<?xml version="1.0" encoding="utf-8"?>
<svg xmlns="http://www.w3.org/2000/svg" xmlns:xlink="http://www.w3.org/1999/xlink" width="600" height="400" viewBox="0 0 2400 1600">
<defs>
  <clipPath id="clip150">
    <rect x="0" y="0" width="2400" height="1600"/>
  </clipPath>
</defs>
<path clip-path="url(#clip150)" d="M0 1600 L2400 1600 L2400 0 L0 0  Z" fill="#ffffff" fill-rule="evenodd" fill-opacity="1"/>
<defs>
  <clipPath id="clip151">
    <rect x="480" y="0" width="1681" height="1600"/>
  </clipPath>
</defs>
<path clip-path="url(#clip150)" d="M673.506 1273.7 L2305.51 1273.7 L2305.51 94.4882 L673.506 94.4882  Z" fill="#ffffff" fill-rule="evenodd" fill-opacity="1"/>
<defs>
  <clipPath id="clip152">
    <rect x="673" y="94" width="1633" height="1180"/>
  </clipPath>
</defs>
<polyline clip-path="url(#clip152)" style="stroke:#000000; stroke-linecap:round; stroke-linejoin:round; stroke-width:4; stroke-opacity:0.1; fill:none" points="719.695,1273.7 719.695,94.4882 "/>
<polyline clip-path="url(#clip152)" style="stroke:#000000; stroke-linecap:round; stroke-linejoin:round; stroke-width:4; stroke-opacity:0.1; fill:none" points="1040.45,1273.7 1040.45,94.4882 "/>
<polyline clip-path="url(#clip152)" style="stroke:#000000; stroke-linecap:round; stroke-linejoin:round; stroke-width:4; stroke-opacity:0.1; fill:none" points="1361.21,1273.7 1361.21,94.4882 "/>
<polyline clip-path="url(#clip152)" style="stroke:#000000; stroke-linecap:round; stroke-linejoin:round; stroke-width:4; stroke-opacity:0.1; fill:none" points="1681.96,1273.7 1681.96,94.4882 "/>
<polyline clip-path="url(#clip152)" style="stroke:#000000; stroke-linecap:round; stroke-linejoin:round; stroke-width:4; stroke-opacity:0.1; fill:none" points="2002.72,1273.7 2002.72,94.4882 "/>
<polyline clip-path="url(#clip150)" style="stroke:#000000; stroke-linecap:round; stroke-linejoin:round; stroke-width:8; stroke-opacity:1; fill:none" points="673.506,1273.7 2305.51,1273.7 "/>
<polyline clip-path="url(#clip150)" style="stroke:#000000; stroke-linecap:round; stroke-linejoin:round; stroke-width:8; stroke-opacity:1; fill:none" points="719.695,1273.7 719.695,1254.8 "/>
<polyline clip-path="url(#clip150)" style="stroke:#000000; stroke-linecap:round; stroke-linejoin:round; stroke-width:8; stroke-opacity:1; fill:none" points="1040.45,1273.7 1040.45,1254.8 "/>
<polyline clip-path="url(#clip150)" style="stroke:#000000; stroke-linecap:round; stroke-linejoin:round; stroke-width:8; stroke-opacity:1; fill:none" points="1361.21,1273.7 1361.21,1254.8 "/>
<polyline clip-path="url(#clip150)" style="stroke:#000000; stroke-linecap:round; stroke-linejoin:round; stroke-width:8; stroke-opacity:1; fill:none" points="1681.96,1273.7 1681.96,1254.8 "/>
<polyline clip-path="url(#clip150)" style="stroke:#000000; stroke-linecap:round; stroke-linejoin:round; stroke-width:8; stroke-opacity:1; fill:none" points="2002.72,1273.7 2002.72,1254.8 "/>
<path clip-path="url(#clip150)" d="M644.302 1316.33 Q637.08 1316.33 633.422 1323.46 Q629.811 1330.55 629.811 1344.81 Q629.811 1359.02 633.422 1366.15 Q637.08 1373.23 644.302 1373.23 Q651.57 1373.23 655.181 1366.15 Q658.839 1359.02 658.839 1344.81 Q658.839 1330.55 655.181 1323.46 Q651.57 1316.33 644.302 1316.33 M644.302 1308.93 Q655.922 1308.93 662.033 1318.14 Q668.19 1327.31 668.19 1344.81 Q668.19 1362.26 662.033 1371.47 Q655.922 1380.64 644.302 1380.64 Q632.681 1380.64 626.524 1371.47 Q620.413 1362.26 620.413 1344.81 Q620.413 1327.31 626.524 1318.14 Q632.681 1308.93 644.302 1308.93 Z" fill="#000000" fill-rule="nonzero" fill-opacity="1" /><path clip-path="url(#clip150)" d="M684.626 1367.54 L694.394 1367.54 L694.394 1379.3 L684.626 1379.3 L684.626 1367.54 Z" fill="#000000" fill-rule="nonzero" fill-opacity="1" /><path clip-path="url(#clip150)" d="M734.764 1316.33 Q727.542 1316.33 723.885 1323.46 Q720.274 1330.55 720.274 1344.81 Q720.274 1359.02 723.885 1366.15 Q727.542 1373.23 734.764 1373.23 Q742.033 1373.23 745.644 1366.15 Q749.301 1359.02 749.301 1344.81 Q749.301 1330.55 745.644 1323.46 Q742.033 1316.33 734.764 1316.33 M734.764 1308.93 Q746.384 1308.93 752.496 1318.14 Q758.653 1327.31 758.653 1344.81 Q758.653 1362.26 752.496 1371.47 Q746.384 1380.64 734.764 1380.64 Q723.144 1380.64 716.986 1371.47 Q710.875 1362.26 710.875 1344.81 Q710.875 1327.31 716.986 1318.14 Q723.144 1308.93 734.764 1308.93 Z" fill="#000000" fill-rule="nonzero" fill-opacity="1" /><path clip-path="url(#clip150)" d="M795.088 1316.33 Q787.866 1316.33 784.208 1323.46 Q780.597 1330.55 780.597 1344.81 Q780.597 1359.02 784.208 1366.15 Q787.866 1373.23 795.088 1373.23 Q802.356 1373.23 805.967 1366.15 Q809.625 1359.02 809.625 1344.81 Q809.625 1330.55 805.967 1323.46 Q802.356 1316.33 795.088 1316.33 M795.088 1308.93 Q806.708 1308.93 812.819 1318.14 Q818.977 1327.31 818.977 1344.81 Q818.977 1362.26 812.819 1371.47 Q806.708 1380.64 795.088 1380.64 Q783.468 1380.64 777.31 1371.47 Q771.199 1362.26 771.199 1344.81 Q771.199 1327.31 777.31 1318.14 Q783.468 1308.93 795.088 1308.93 Z" fill="#000000" fill-rule="nonzero" fill-opacity="1" /><path clip-path="url(#clip150)" d="M966.053 1316.33 Q958.831 1316.33 955.173 1323.46 Q951.562 1330.55 951.562 1344.81 Q951.562 1359.02 955.173 1366.15 Q958.831 1373.23 966.053 1373.23 Q973.321 1373.23 976.932 1366.15 Q980.59 1359.02 980.59 1344.81 Q980.59 1330.55 976.932 1323.46 Q973.321 1316.33 966.053 1316.33 M966.053 1308.93 Q977.673 1308.93 983.784 1318.14 Q989.942 1327.31 989.942 1344.81 Q989.942 1362.26 983.784 1371.47 Q977.673 1380.64 966.053 1380.64 Q954.433 1380.64 948.275 1371.47 Q942.164 1362.26 942.164 1344.81 Q942.164 1327.31 948.275 1318.14 Q954.433 1308.93 966.053 1308.93 Z" fill="#000000" fill-rule="nonzero" fill-opacity="1" /><path clip-path="url(#clip150)" d="M1006.38 1367.54 L1016.15 1367.54 L1016.15 1379.3 L1006.38 1379.3 L1006.38 1367.54 Z" fill="#000000" fill-rule="nonzero" fill-opacity="1" /><path clip-path="url(#clip150)" d="M1044.57 1371.43 L1077.21 1371.43 L1077.21 1379.3 L1033.32 1379.3 L1033.32 1371.43 Q1038.65 1365.92 1047.81 1356.66 Q1057.02 1347.35 1059.39 1344.67 Q1063.88 1339.62 1065.64 1336.15 Q1067.44 1332.63 1067.44 1329.25 Q1067.44 1323.74 1063.55 1320.27 Q1059.71 1316.8 1053.51 1316.8 Q1049.11 1316.8 1044.2 1318.32 Q1039.34 1319.85 1033.78 1322.95 L1033.78 1313.51 Q1039.43 1311.24 1044.34 1310.08 Q1049.25 1308.93 1053.32 1308.93 Q1064.06 1308.93 1070.45 1314.3 Q1076.84 1319.67 1076.84 1328.65 Q1076.84 1332.91 1075.22 1336.75 Q1073.64 1340.55 1069.43 1345.73 Q1068.27 1347.07 1062.07 1353.51 Q1055.87 1359.9 1044.57 1371.43 Z" fill="#000000" fill-rule="nonzero" fill-opacity="1" /><path clip-path="url(#clip150)" d="M1096.93 1310.18 L1133.64 1310.18 L1133.64 1318.05 L1105.5 1318.05 L1105.5 1334.99 Q1107.53 1334.3 1109.57 1333.97 Q1111.61 1333.6 1113.64 1333.6 Q1125.22 1333.6 1131.98 1339.94 Q1138.74 1346.29 1138.74 1357.12 Q1138.74 1368.28 1131.79 1374.48 Q1124.85 1380.64 1112.21 1380.64 Q1107.86 1380.64 1103.32 1379.9 Q1098.83 1379.16 1094.02 1377.68 L1094.02 1368.28 Q1098.18 1370.55 1102.63 1371.66 Q1107.07 1372.77 1112.02 1372.77 Q1120.03 1372.77 1124.71 1368.56 Q1129.39 1364.34 1129.39 1357.12 Q1129.39 1349.9 1124.71 1345.68 Q1120.03 1341.47 1112.02 1341.47 Q1108.27 1341.47 1104.52 1342.31 Q1100.82 1343.14 1096.93 1344.9 L1096.93 1310.18 Z" fill="#000000" fill-rule="nonzero" fill-opacity="1" /><path clip-path="url(#clip150)" d="M1285.81 1316.33 Q1278.59 1316.33 1274.93 1323.46 Q1271.32 1330.55 1271.32 1344.81 Q1271.32 1359.02 1274.93 1366.15 Q1278.59 1373.23 1285.81 1373.23 Q1293.08 1373.23 1296.69 1366.15 Q1300.35 1359.02 1300.35 1344.81 Q1300.35 1330.55 1296.69 1323.46 Q1293.08 1316.33 1285.81 1316.33 M1285.81 1308.93 Q1297.43 1308.93 1303.54 1318.14 Q1309.7 1327.31 1309.7 1344.81 Q1309.7 1362.26 1303.54 1371.47 Q1297.43 1380.64 1285.81 1380.64 Q1274.19 1380.64 1268.04 1371.47 Q1261.92 1362.26 1261.92 1344.81 Q1261.92 1327.31 1268.04 1318.14 Q1274.19 1308.93 1285.81 1308.93 Z" fill="#000000" fill-rule="nonzero" fill-opacity="1" /><path clip-path="url(#clip150)" d="M1326.14 1367.54 L1335.91 1367.54 L1335.91 1379.3 L1326.14 1379.3 L1326.14 1367.54 Z" fill="#000000" fill-rule="nonzero" fill-opacity="1" /><path clip-path="url(#clip150)" d="M1356.37 1310.18 L1393.08 1310.18 L1393.08 1318.05 L1364.93 1318.05 L1364.93 1334.99 Q1366.97 1334.3 1369.01 1333.97 Q1371.04 1333.6 1373.08 1333.6 Q1384.66 1333.6 1391.41 1339.94 Q1398.17 1346.29 1398.17 1357.12 Q1398.17 1368.28 1391.23 1374.48 Q1384.29 1380.64 1371.65 1380.64 Q1367.29 1380.64 1362.76 1379.9 Q1358.27 1379.16 1353.45 1377.68 L1353.45 1368.28 Q1357.62 1370.55 1362.06 1371.66 Q1366.51 1372.77 1371.46 1372.77 Q1379.47 1372.77 1384.15 1368.56 Q1388.82 1364.34 1388.82 1357.12 Q1388.82 1349.9 1384.15 1345.68 Q1379.47 1341.47 1371.46 1341.47 Q1367.71 1341.47 1363.96 1342.31 Q1360.26 1343.14 1356.37 1344.9 L1356.37 1310.18 Z" fill="#000000" fill-rule="nonzero" fill-opacity="1" /><path clip-path="url(#clip150)" d="M1436.6 1316.33 Q1429.38 1316.33 1425.72 1323.46 Q1422.11 1330.55 1422.11 1344.81 Q1422.11 1359.02 1425.72 1366.15 Q1429.38 1373.23 1436.6 1373.23 Q1443.87 1373.23 1447.48 1366.15 Q1451.14 1359.02 1451.14 1344.81 Q1451.14 1330.55 1447.48 1323.46 Q1443.87 1316.33 1436.6 1316.33 M1436.6 1308.93 Q1448.22 1308.93 1454.33 1318.14 Q1460.49 1327.31 1460.49 1344.81 Q1460.49 1362.26 1454.33 1371.47 Q1448.22 1380.64 1436.6 1380.64 Q1424.98 1380.64 1418.82 1371.47 Q1412.71 1362.26 1412.71 1344.81 Q1412.71 1327.31 1418.82 1318.14 Q1424.98 1308.93 1436.6 1308.93 Z" fill="#000000" fill-rule="nonzero" fill-opacity="1" /><path clip-path="url(#clip150)" d="M1607.56 1316.33 Q1600.34 1316.33 1596.69 1323.46 Q1593.07 1330.55 1593.07 1344.81 Q1593.07 1359.02 1596.69 1366.15 Q1600.34 1373.23 1607.56 1373.23 Q1614.83 1373.23 1618.44 1366.15 Q1622.1 1359.02 1622.1 1344.81 Q1622.1 1330.55 1618.44 1323.46 Q1614.83 1316.33 1607.56 1316.33 M1607.56 1308.93 Q1619.18 1308.93 1625.3 1318.14 Q1631.45 1327.31 1631.45 1344.81 Q1631.45 1362.26 1625.3 1371.47 Q1619.18 1380.64 1607.56 1380.64 Q1595.94 1380.64 1589.79 1371.47 Q1583.68 1362.26 1583.68 1344.81 Q1583.68 1327.31 1589.79 1318.14 Q1595.94 1308.93 1607.56 1308.93 Z" fill="#000000" fill-rule="nonzero" fill-opacity="1" /><path clip-path="url(#clip150)" d="M1647.89 1367.54 L1657.66 1367.54 L1657.66 1379.3 L1647.89 1379.3 L1647.89 1367.54 Z" fill="#000000" fill-rule="nonzero" fill-opacity="1" /><path clip-path="url(#clip150)" d="M1675.67 1310.18 L1720.11 1310.18 L1720.11 1314.16 L1695.02 1379.3 L1685.25 1379.3 L1708.86 1318.05 L1675.67 1318.05 L1675.67 1310.18 Z" fill="#000000" fill-rule="nonzero" fill-opacity="1" /><path clip-path="url(#clip150)" d="M1738.44 1310.18 L1775.16 1310.18 L1775.16 1318.05 L1747.01 1318.05 L1747.01 1334.99 Q1749.05 1334.3 1751.08 1333.97 Q1753.12 1333.6 1755.16 1333.6 Q1766.73 1333.6 1773.49 1339.94 Q1780.25 1346.29 1780.25 1357.12 Q1780.25 1368.28 1773.3 1374.48 Q1766.36 1380.64 1753.72 1380.64 Q1749.37 1380.64 1744.83 1379.9 Q1740.34 1379.16 1735.53 1377.68 L1735.53 1368.28 Q1739.69 1370.55 1744.14 1371.66 Q1748.58 1372.77 1753.54 1372.77 Q1761.55 1372.77 1766.22 1368.56 Q1770.9 1364.34 1770.9 1357.12 Q1770.9 1349.9 1766.22 1345.68 Q1761.55 1341.47 1753.54 1341.47 Q1749.79 1341.47 1746.04 1342.31 Q1742.33 1343.14 1738.44 1344.9 L1738.44 1310.18 Z" fill="#000000" fill-rule="nonzero" fill-opacity="1" /><path clip-path="url(#clip150)" d="M1906.86 1371.43 L1922.14 1371.43 L1922.14 1318.69 L1905.52 1322.03 L1905.52 1313.51 L1922.05 1310.18 L1931.4 1310.18 L1931.4 1371.43 L1946.68 1371.43 L1946.68 1379.3 L1906.86 1379.3 L1906.86 1371.43 Z" fill="#000000" fill-rule="nonzero" fill-opacity="1" /><path clip-path="url(#clip150)" d="M1965.57 1367.54 L1975.33 1367.54 L1975.33 1379.3 L1965.57 1379.3 L1965.57 1367.54 Z" fill="#000000" fill-rule="nonzero" fill-opacity="1" /><path clip-path="url(#clip150)" d="M2015.7 1316.33 Q2008.48 1316.33 2004.82 1323.46 Q2001.21 1330.55 2001.21 1344.81 Q2001.21 1359.02 2004.82 1366.15 Q2008.48 1373.23 2015.7 1373.23 Q2022.97 1373.23 2026.58 1366.15 Q2030.24 1359.02 2030.24 1344.81 Q2030.24 1330.55 2026.58 1323.46 Q2022.97 1316.33 2015.7 1316.33 M2015.7 1308.93 Q2027.32 1308.93 2033.44 1318.14 Q2039.59 1327.31 2039.59 1344.81 Q2039.59 1362.26 2033.44 1371.47 Q2027.32 1380.64 2015.7 1380.64 Q2004.08 1380.64 1997.93 1371.47 Q1991.82 1362.26 1991.82 1344.81 Q1991.82 1327.31 1997.93 1318.14 Q2004.08 1308.93 2015.7 1308.93 Z" fill="#000000" fill-rule="nonzero" fill-opacity="1" /><path clip-path="url(#clip150)" d="M2076.03 1316.33 Q2068.81 1316.33 2065.15 1323.46 Q2061.54 1330.55 2061.54 1344.81 Q2061.54 1359.02 2065.15 1366.15 Q2068.81 1373.23 2076.03 1373.23 Q2083.3 1373.23 2086.91 1366.15 Q2090.57 1359.02 2090.57 1344.81 Q2090.57 1330.55 2086.91 1323.46 Q2083.3 1316.33 2076.03 1316.33 M2076.03 1308.93 Q2087.65 1308.93 2093.76 1318.14 Q2099.92 1327.31 2099.92 1344.81 Q2099.92 1362.26 2093.76 1371.47 Q2087.65 1380.64 2076.03 1380.64 Q2064.41 1380.64 2058.25 1371.47 Q2052.14 1362.26 2052.14 1344.81 Q2052.14 1327.31 2058.25 1318.14 Q2064.41 1308.93 2076.03 1308.93 Z" fill="#000000" fill-rule="nonzero" fill-opacity="1" /><path clip-path="url(#clip150)" d="M1375.05 1484.39 L1375.05 1527.42 L1363.34 1527.42 L1363.34 1484.77 Q1363.34 1474.65 1359.39 1469.62 Q1355.45 1464.59 1347.55 1464.59 Q1338.07 1464.59 1332.59 1470.64 Q1327.12 1476.69 1327.12 1487.13 L1327.12 1527.42 L1315.34 1527.42 L1315.34 1428.37 L1327.12 1428.37 L1327.12 1467.2 Q1331.32 1460.77 1336.99 1457.59 Q1342.72 1454.41 1350.16 1454.41 Q1362.45 1454.41 1368.75 1462.05 Q1375.05 1469.62 1375.05 1484.39 Z" fill="#000000" fill-rule="nonzero" fill-opacity="1" /><path clip-path="url(#clip150)" d="M1426.04 1464.34 Q1416.62 1464.34 1411.15 1471.72 Q1405.67 1479.04 1405.67 1491.84 Q1405.67 1504.63 1411.08 1512.02 Q1416.56 1519.34 1426.04 1519.34 Q1435.4 1519.34 1440.87 1511.96 Q1446.35 1504.57 1446.35 1491.84 Q1446.35 1479.17 1440.87 1471.79 Q1435.4 1464.34 1426.04 1464.34 M1426.04 1454.41 Q1441.32 1454.41 1450.04 1464.34 Q1458.76 1474.27 1458.76 1491.84 Q1458.76 1509.35 1450.04 1519.34 Q1441.32 1529.27 1426.04 1529.27 Q1410.7 1529.27 1401.98 1519.34 Q1393.32 1509.35 1393.32 1491.84 Q1393.32 1474.27 1401.98 1464.34 Q1410.7 1454.41 1426.04 1454.41 Z" fill="#000000" fill-rule="nonzero" fill-opacity="1" /><path clip-path="url(#clip150)" d="M1476.97 1499.29 L1476.97 1456.13 L1488.68 1456.13 L1488.68 1498.84 Q1488.68 1508.96 1492.63 1514.06 Q1496.57 1519.08 1504.47 1519.08 Q1513.95 1519.08 1519.43 1513.04 Q1524.97 1506.99 1524.97 1496.55 L1524.97 1456.13 L1536.68 1456.13 L1536.68 1527.42 L1524.97 1527.42 L1524.97 1516.47 Q1520.7 1522.97 1515.04 1526.15 Q1509.43 1529.27 1501.99 1529.27 Q1489.7 1529.27 1483.33 1521.63 Q1476.97 1513.99 1476.97 1499.29 M1506.44 1454.41 L1506.44 1454.41 Z" fill="#000000" fill-rule="nonzero" fill-opacity="1" /><path clip-path="url(#clip150)" d="M1602.12 1467.08 Q1600.14 1465.93 1597.79 1465.42 Q1595.5 1464.85 1592.7 1464.85 Q1582.77 1464.85 1577.42 1471.34 Q1572.14 1477.77 1572.14 1489.87 L1572.14 1527.42 L1560.36 1527.42 L1560.36 1456.13 L1572.14 1456.13 L1572.14 1467.2 Q1575.83 1460.71 1581.75 1457.59 Q1587.67 1454.41 1596.13 1454.41 Q1597.34 1454.41 1598.81 1454.6 Q1600.27 1454.73 1602.05 1455.05 L1602.12 1467.08 Z" fill="#000000" fill-rule="nonzero" fill-opacity="1" /><path clip-path="url(#clip150)" d="M1659.86 1458.23 L1659.86 1469.3 Q1654.89 1466.76 1649.54 1465.49 Q1644.2 1464.21 1638.47 1464.21 Q1629.75 1464.21 1625.35 1466.89 Q1621.02 1469.56 1621.02 1474.91 Q1621.02 1478.98 1624.14 1481.34 Q1627.26 1483.63 1636.68 1485.73 L1640.69 1486.62 Q1653.17 1489.29 1658.39 1494.19 Q1663.67 1499.03 1663.67 1507.75 Q1663.67 1517.68 1655.78 1523.48 Q1647.95 1529.27 1634.2 1529.27 Q1628.47 1529.27 1622.23 1528.12 Q1616.06 1527.04 1609.18 1524.81 L1609.18 1512.72 Q1615.68 1516.09 1621.98 1517.81 Q1628.28 1519.47 1634.46 1519.47 Q1642.73 1519.47 1647.19 1516.67 Q1651.64 1513.8 1651.64 1508.64 Q1651.64 1503.87 1648.4 1501.32 Q1645.21 1498.78 1634.33 1496.42 L1630.25 1495.47 Q1619.37 1493.18 1614.53 1488.47 Q1609.69 1483.69 1609.69 1475.42 Q1609.69 1465.36 1616.82 1459.88 Q1623.95 1454.41 1637.07 1454.41 Q1643.56 1454.41 1649.29 1455.36 Q1655.02 1456.32 1659.86 1458.23 Z" fill="#000000" fill-rule="nonzero" fill-opacity="1" /><polyline clip-path="url(#clip152)" style="stroke:#000000; stroke-linecap:round; stroke-linejoin:round; stroke-width:4; stroke-opacity:0.1; fill:none" points="673.506,1157.57 2305.51,1157.57 "/>
<polyline clip-path="url(#clip152)" style="stroke:#000000; stroke-linecap:round; stroke-linejoin:round; stroke-width:4; stroke-opacity:0.1; fill:none" points="673.506,993.003 2305.51,993.003 "/>
<polyline clip-path="url(#clip152)" style="stroke:#000000; stroke-linecap:round; stroke-linejoin:round; stroke-width:4; stroke-opacity:0.1; fill:none" points="673.506,828.431 2305.51,828.431 "/>
<polyline clip-path="url(#clip152)" style="stroke:#000000; stroke-linecap:round; stroke-linejoin:round; stroke-width:4; stroke-opacity:0.1; fill:none" points="673.506,663.859 2305.51,663.859 "/>
<polyline clip-path="url(#clip152)" style="stroke:#000000; stroke-linecap:round; stroke-linejoin:round; stroke-width:4; stroke-opacity:0.1; fill:none" points="673.506,499.288 2305.51,499.288 "/>
<polyline clip-path="url(#clip152)" style="stroke:#000000; stroke-linecap:round; stroke-linejoin:round; stroke-width:4; stroke-opacity:0.1; fill:none" points="673.506,334.716 2305.51,334.716 "/>
<polyline clip-path="url(#clip152)" style="stroke:#000000; stroke-linecap:round; stroke-linejoin:round; stroke-width:4; stroke-opacity:0.1; fill:none" points="673.506,170.145 2305.51,170.145 "/>
<polyline clip-path="url(#clip150)" style="stroke:#000000; stroke-linecap:round; stroke-linejoin:round; stroke-width:8; stroke-opacity:1; fill:none" points="673.506,1273.7 673.506,94.4882 "/>
<polyline clip-path="url(#clip150)" style="stroke:#000000; stroke-linecap:round; stroke-linejoin:round; stroke-width:8; stroke-opacity:1; fill:none" points="673.506,1157.57 692.404,1157.57 "/>
<polyline clip-path="url(#clip150)" style="stroke:#000000; stroke-linecap:round; stroke-linejoin:round; stroke-width:8; stroke-opacity:1; fill:none" points="673.506,993.003 692.404,993.003 "/>
<polyline clip-path="url(#clip150)" style="stroke:#000000; stroke-linecap:round; stroke-linejoin:round; stroke-width:8; stroke-opacity:1; fill:none" points="673.506,828.431 692.404,828.431 "/>
<polyline clip-path="url(#clip150)" style="stroke:#000000; stroke-linecap:round; stroke-linejoin:round; stroke-width:8; stroke-opacity:1; fill:none" points="673.506,663.859 692.404,663.859 "/>
<polyline clip-path="url(#clip150)" style="stroke:#000000; stroke-linecap:round; stroke-linejoin:round; stroke-width:8; stroke-opacity:1; fill:none" points="673.506,499.288 692.404,499.288 "/>
<polyline clip-path="url(#clip150)" style="stroke:#000000; stroke-linecap:round; stroke-linejoin:round; stroke-width:8; stroke-opacity:1; fill:none" points="673.506,334.716 692.404,334.716 "/>
<polyline clip-path="url(#clip150)" style="stroke:#000000; stroke-linecap:round; stroke-linejoin:round; stroke-width:8; stroke-opacity:1; fill:none" points="673.506,170.145 692.404,170.145 "/>
<path clip-path="url(#clip150)" d="M384.128 1184.26 L399.405 1184.26 L399.405 1131.53 L382.785 1134.87 L382.785 1126.35 L399.313 1123.01 L408.665 1123.01 L408.665 1184.26 L423.942 1184.26 L423.942 1192.13 L384.128 1192.13 L384.128 1184.26 Z" fill="#000000" fill-rule="nonzero" fill-opacity="1" /><path clip-path="url(#clip150)" d="M471.164 1154.87 Q477.877 1156.3 481.627 1160.84 Q485.423 1165.38 485.423 1172.04 Q485.423 1182.27 478.386 1187.88 Q471.349 1193.48 458.387 1193.48 Q454.035 1193.48 449.405 1192.6 Q444.822 1191.76 439.914 1190.05 L439.914 1181.02 Q443.803 1183.29 448.433 1184.45 Q453.063 1185.61 458.109 1185.61 Q466.905 1185.61 471.488 1182.13 Q476.118 1178.66 476.118 1172.04 Q476.118 1165.93 471.812 1162.5 Q467.553 1159.03 459.914 1159.03 L451.859 1159.03 L451.859 1151.35 L460.285 1151.35 Q467.183 1151.35 470.84 1148.62 Q474.498 1145.84 474.498 1140.65 Q474.498 1135.33 470.701 1132.5 Q466.951 1129.63 459.914 1129.63 Q456.072 1129.63 451.674 1130.47 Q447.276 1131.3 441.998 1133.06 L441.998 1124.73 Q447.322 1123.25 451.951 1122.51 Q456.627 1121.76 460.748 1121.76 Q471.396 1121.76 477.599 1126.63 Q483.803 1131.44 483.803 1139.68 Q483.803 1145.42 480.516 1149.4 Q477.229 1153.34 471.164 1154.87 Z" fill="#000000" fill-rule="nonzero" fill-opacity="1" /><path clip-path="url(#clip150)" d="M523.155 1129.17 Q515.933 1129.17 512.275 1136.3 Q508.664 1143.38 508.664 1157.64 Q508.664 1171.86 512.275 1178.99 Q515.933 1186.07 523.155 1186.07 Q530.423 1186.07 534.034 1178.99 Q537.692 1171.86 537.692 1157.64 Q537.692 1143.38 534.034 1136.3 Q530.423 1129.17 523.155 1129.17 M523.155 1121.76 Q534.775 1121.76 540.886 1130.98 Q547.043 1140.14 547.043 1157.64 Q547.043 1175.1 540.886 1184.31 Q534.775 1193.48 523.155 1193.48 Q511.534 1193.48 505.377 1184.31 Q499.266 1175.1 499.266 1157.64 Q499.266 1140.14 505.377 1130.98 Q511.534 1121.76 523.155 1121.76 Z" fill="#000000" fill-rule="nonzero" fill-opacity="1" /><path clip-path="url(#clip150)" d="M563.479 1180.38 L573.247 1180.38 L573.247 1192.13 L563.479 1192.13 L563.479 1180.38 Z" fill="#000000" fill-rule="nonzero" fill-opacity="1" /><path clip-path="url(#clip150)" d="M613.617 1129.17 Q606.395 1129.17 602.738 1136.3 Q599.127 1143.38 599.127 1157.64 Q599.127 1171.86 602.738 1178.99 Q606.395 1186.07 613.617 1186.07 Q620.886 1186.07 624.497 1178.99 Q628.154 1171.86 628.154 1157.64 Q628.154 1143.38 624.497 1136.3 Q620.886 1129.17 613.617 1129.17 M613.617 1121.76 Q625.238 1121.76 631.349 1130.98 Q637.506 1140.14 637.506 1157.64 Q637.506 1175.1 631.349 1184.31 Q625.238 1193.48 613.617 1193.48 Q601.997 1193.48 595.84 1184.31 Q589.728 1175.1 589.728 1157.64 Q589.728 1140.14 595.84 1130.98 Q601.997 1121.76 613.617 1121.76 Z" fill="#000000" fill-rule="nonzero" fill-opacity="1" /><path clip-path="url(#clip150)" d="M384.128 1019.69 L399.405 1019.69 L399.405 966.961 L382.785 970.294 L382.785 961.776 L399.313 958.443 L408.665 958.443 L408.665 1019.69 L423.942 1019.69 L423.942 1027.56 L384.128 1027.56 L384.128 1019.69 Z" fill="#000000" fill-rule="nonzero" fill-opacity="1" /><path clip-path="url(#clip150)" d="M468.525 966.591 L444.914 1003.49 L468.525 1003.49 L468.525 966.591 M466.072 958.443 L477.831 958.443 L477.831 1003.49 L487.692 1003.49 L487.692 1011.27 L477.831 1011.27 L477.831 1027.56 L468.525 1027.56 L468.525 1011.27 L437.322 1011.27 L437.322 1002.24 L466.072 958.443 Z" fill="#000000" fill-rule="nonzero" fill-opacity="1" /><path clip-path="url(#clip150)" d="M523.155 964.6 Q515.933 964.6 512.275 971.73 Q508.664 978.813 508.664 993.072 Q508.664 1007.29 512.275 1014.41 Q515.933 1021.5 523.155 1021.5 Q530.423 1021.5 534.034 1014.41 Q537.692 1007.29 537.692 993.072 Q537.692 978.813 534.034 971.73 Q530.423 964.6 523.155 964.6 M523.155 957.193 Q534.775 957.193 540.886 966.406 Q547.043 975.572 547.043 993.072 Q547.043 1010.53 540.886 1019.74 Q534.775 1028.91 523.155 1028.91 Q511.534 1028.91 505.377 1019.74 Q499.266 1010.53 499.266 993.072 Q499.266 975.572 505.377 966.406 Q511.534 957.193 523.155 957.193 Z" fill="#000000" fill-rule="nonzero" fill-opacity="1" /><path clip-path="url(#clip150)" d="M563.479 1015.8 L573.247 1015.8 L573.247 1027.56 L563.479 1027.56 L563.479 1015.8 Z" fill="#000000" fill-rule="nonzero" fill-opacity="1" /><path clip-path="url(#clip150)" d="M613.617 964.6 Q606.395 964.6 602.738 971.73 Q599.127 978.813 599.127 993.072 Q599.127 1007.29 602.738 1014.41 Q606.395 1021.5 613.617 1021.5 Q620.886 1021.5 624.497 1014.41 Q628.154 1007.29 628.154 993.072 Q628.154 978.813 624.497 971.73 Q620.886 964.6 613.617 964.6 M613.617 957.193 Q625.238 957.193 631.349 966.406 Q637.506 975.572 637.506 993.072 Q637.506 1010.53 631.349 1019.74 Q625.238 1028.91 613.617 1028.91 Q601.997 1028.91 595.84 1019.74 Q589.728 1010.53 589.728 993.072 Q589.728 975.572 595.84 966.406 Q601.997 957.193 613.617 957.193 Z" fill="#000000" fill-rule="nonzero" fill-opacity="1" /><path clip-path="url(#clip150)" d="M384.128 855.121 L399.405 855.121 L399.405 802.39 L382.785 805.723 L382.785 797.204 L399.313 793.871 L408.665 793.871 L408.665 855.121 L423.942 855.121 L423.942 862.991 L384.128 862.991 L384.128 855.121 Z" fill="#000000" fill-rule="nonzero" fill-opacity="1" /><path clip-path="url(#clip150)" d="M442.924 793.871 L479.636 793.871 L479.636 801.741 L451.488 801.741 L451.488 818.686 Q453.525 817.991 455.562 817.667 Q457.6 817.297 459.637 817.297 Q471.211 817.297 477.97 823.639 Q484.729 829.982 484.729 840.815 Q484.729 851.973 477.785 858.176 Q470.84 864.334 458.201 864.334 Q453.85 864.334 449.313 863.593 Q444.822 862.852 440.007 861.371 L440.007 851.973 Q444.174 854.241 448.618 855.352 Q453.063 856.463 458.016 856.463 Q466.025 856.463 470.701 852.25 Q475.377 848.037 475.377 840.815 Q475.377 833.593 470.701 829.38 Q466.025 825.167 458.016 825.167 Q454.266 825.167 450.516 826.001 Q446.813 826.834 442.924 828.593 L442.924 793.871 Z" fill="#000000" fill-rule="nonzero" fill-opacity="1" /><path clip-path="url(#clip150)" d="M523.155 800.028 Q515.933 800.028 512.275 807.158 Q508.664 814.241 508.664 828.5 Q508.664 842.713 512.275 849.843 Q515.933 856.926 523.155 856.926 Q530.423 856.926 534.034 849.843 Q537.692 842.713 537.692 828.5 Q537.692 814.241 534.034 807.158 Q530.423 800.028 523.155 800.028 M523.155 792.621 Q534.775 792.621 540.886 801.834 Q547.043 811.001 547.043 828.5 Q547.043 845.954 540.886 855.167 Q534.775 864.334 523.155 864.334 Q511.534 864.334 505.377 855.167 Q499.266 845.954 499.266 828.5 Q499.266 811.001 505.377 801.834 Q511.534 792.621 523.155 792.621 Z" fill="#000000" fill-rule="nonzero" fill-opacity="1" /><path clip-path="url(#clip150)" d="M563.479 851.232 L573.247 851.232 L573.247 862.991 L563.479 862.991 L563.479 851.232 Z" fill="#000000" fill-rule="nonzero" fill-opacity="1" /><path clip-path="url(#clip150)" d="M613.617 800.028 Q606.395 800.028 602.738 807.158 Q599.127 814.241 599.127 828.5 Q599.127 842.713 602.738 849.843 Q606.395 856.926 613.617 856.926 Q620.886 856.926 624.497 849.843 Q628.154 842.713 628.154 828.5 Q628.154 814.241 624.497 807.158 Q620.886 800.028 613.617 800.028 M613.617 792.621 Q625.238 792.621 631.349 801.834 Q637.506 811.001 637.506 828.5 Q637.506 845.954 631.349 855.167 Q625.238 864.334 613.617 864.334 Q601.997 864.334 595.84 855.167 Q589.728 845.954 589.728 828.5 Q589.728 811.001 595.84 801.834 Q601.997 792.621 613.617 792.621 Z" fill="#000000" fill-rule="nonzero" fill-opacity="1" /><path clip-path="url(#clip150)" d="M384.128 690.549 L399.405 690.549 L399.405 637.818 L382.785 641.151 L382.785 632.633 L399.313 629.299 L408.665 629.299 L408.665 690.549 L423.942 690.549 L423.942 698.419 L384.128 698.419 L384.128 690.549 Z" fill="#000000" fill-rule="nonzero" fill-opacity="1" /><path clip-path="url(#clip150)" d="M463.988 660.133 Q457.692 660.133 453.988 664.438 Q450.331 668.744 450.331 676.244 Q450.331 683.697 453.988 688.049 Q457.692 692.355 463.988 692.355 Q470.285 692.355 473.942 688.049 Q477.646 683.697 477.646 676.244 Q477.646 668.744 473.942 664.438 Q470.285 660.133 463.988 660.133 M482.553 630.827 L482.553 639.346 Q479.035 637.679 475.424 636.799 Q471.859 635.92 468.34 635.92 Q459.081 635.92 454.174 642.17 Q449.313 648.42 448.618 661.059 Q451.35 657.031 455.47 654.901 Q459.59 652.725 464.544 652.725 Q474.961 652.725 480.979 659.068 Q487.044 665.364 487.044 676.244 Q487.044 686.892 480.748 693.327 Q474.451 699.762 463.988 699.762 Q451.998 699.762 445.655 690.595 Q439.313 681.382 439.313 663.929 Q439.313 647.54 447.09 637.818 Q454.868 628.049 467.97 628.049 Q471.488 628.049 475.053 628.744 Q478.664 629.438 482.553 630.827 Z" fill="#000000" fill-rule="nonzero" fill-opacity="1" /><path clip-path="url(#clip150)" d="M523.155 635.457 Q515.933 635.457 512.275 642.586 Q508.664 649.67 508.664 663.929 Q508.664 678.142 512.275 685.271 Q515.933 692.355 523.155 692.355 Q530.423 692.355 534.034 685.271 Q537.692 678.142 537.692 663.929 Q537.692 649.67 534.034 642.586 Q530.423 635.457 523.155 635.457 M523.155 628.049 Q534.775 628.049 540.886 637.262 Q547.043 646.429 547.043 663.929 Q547.043 681.382 540.886 690.595 Q534.775 699.762 523.155 699.762 Q511.534 699.762 505.377 690.595 Q499.266 681.382 499.266 663.929 Q499.266 646.429 505.377 637.262 Q511.534 628.049 523.155 628.049 Z" fill="#000000" fill-rule="nonzero" fill-opacity="1" /><path clip-path="url(#clip150)" d="M563.479 686.66 L573.247 686.66 L573.247 698.419 L563.479 698.419 L563.479 686.66 Z" fill="#000000" fill-rule="nonzero" fill-opacity="1" /><path clip-path="url(#clip150)" d="M613.617 635.457 Q606.395 635.457 602.738 642.586 Q599.127 649.67 599.127 663.929 Q599.127 678.142 602.738 685.271 Q606.395 692.355 613.617 692.355 Q620.886 692.355 624.497 685.271 Q628.154 678.142 628.154 663.929 Q628.154 649.67 624.497 642.586 Q620.886 635.457 613.617 635.457 M613.617 628.049 Q625.238 628.049 631.349 637.262 Q637.506 646.429 637.506 663.929 Q637.506 681.382 631.349 690.595 Q625.238 699.762 613.617 699.762 Q601.997 699.762 595.84 690.595 Q589.728 681.382 589.728 663.929 Q589.728 646.429 595.84 637.262 Q601.997 628.049 613.617 628.049 Z" fill="#000000" fill-rule="nonzero" fill-opacity="1" /><path clip-path="url(#clip150)" d="M384.128 525.977 L399.405 525.977 L399.405 473.246 L382.785 476.58 L382.785 468.061 L399.313 464.728 L408.665 464.728 L408.665 525.977 L423.942 525.977 L423.942 533.848 L384.128 533.848 L384.128 525.977 Z" fill="#000000" fill-rule="nonzero" fill-opacity="1" /><path clip-path="url(#clip150)" d="M440.47 464.728 L484.914 464.728 L484.914 468.709 L459.822 533.848 L450.053 533.848 L473.664 472.598 L440.47 472.598 L440.47 464.728 Z" fill="#000000" fill-rule="nonzero" fill-opacity="1" /><path clip-path="url(#clip150)" d="M523.155 470.885 Q515.933 470.885 512.275 478.015 Q508.664 485.098 508.664 499.357 Q508.664 513.57 512.275 520.7 Q515.933 527.783 523.155 527.783 Q530.423 527.783 534.034 520.7 Q537.692 513.57 537.692 499.357 Q537.692 485.098 534.034 478.015 Q530.423 470.885 523.155 470.885 M523.155 463.478 Q534.775 463.478 540.886 472.691 Q547.043 481.857 547.043 499.357 Q547.043 516.811 540.886 526.024 Q534.775 535.19 523.155 535.19 Q511.534 535.19 505.377 526.024 Q499.266 516.811 499.266 499.357 Q499.266 481.857 505.377 472.691 Q511.534 463.478 523.155 463.478 Z" fill="#000000" fill-rule="nonzero" fill-opacity="1" /><path clip-path="url(#clip150)" d="M563.479 522.089 L573.247 522.089 L573.247 533.848 L563.479 533.848 L563.479 522.089 Z" fill="#000000" fill-rule="nonzero" fill-opacity="1" /><path clip-path="url(#clip150)" d="M613.617 470.885 Q606.395 470.885 602.738 478.015 Q599.127 485.098 599.127 499.357 Q599.127 513.57 602.738 520.7 Q606.395 527.783 613.617 527.783 Q620.886 527.783 624.497 520.7 Q628.154 513.57 628.154 499.357 Q628.154 485.098 624.497 478.015 Q620.886 470.885 613.617 470.885 M613.617 463.478 Q625.238 463.478 631.349 472.691 Q637.506 481.857 637.506 499.357 Q637.506 516.811 631.349 526.024 Q625.238 535.19 613.617 535.19 Q601.997 535.19 595.84 526.024 Q589.728 516.811 589.728 499.357 Q589.728 481.857 595.84 472.691 Q601.997 463.478 613.617 463.478 Z" fill="#000000" fill-rule="nonzero" fill-opacity="1" /><path clip-path="url(#clip150)" d="M384.128 361.406 L399.405 361.406 L399.405 308.675 L382.785 312.008 L382.785 303.489 L399.313 300.156 L408.665 300.156 L408.665 361.406 L423.942 361.406 L423.942 369.276 L384.128 369.276 L384.128 361.406 Z" fill="#000000" fill-rule="nonzero" fill-opacity="1" /><path clip-path="url(#clip150)" d="M462.831 336.452 Q456.164 336.452 452.322 340.017 Q448.525 343.582 448.525 349.832 Q448.525 356.082 452.322 359.647 Q456.164 363.211 462.831 363.211 Q469.498 363.211 473.34 359.647 Q477.183 356.035 477.183 349.832 Q477.183 343.582 473.34 340.017 Q469.544 336.452 462.831 336.452 M453.479 332.471 Q447.461 330.989 444.081 326.869 Q440.748 322.749 440.748 316.823 Q440.748 308.536 446.627 303.721 Q452.553 298.906 462.831 298.906 Q473.155 298.906 479.035 303.721 Q484.914 308.536 484.914 316.823 Q484.914 322.749 481.535 326.869 Q478.201 330.989 472.229 332.471 Q478.988 334.045 482.738 338.628 Q486.535 343.211 486.535 349.832 Q486.535 359.878 480.377 365.248 Q474.266 370.619 462.831 370.619 Q451.396 370.619 445.238 365.248 Q439.127 359.878 439.127 349.832 Q439.127 343.211 442.924 338.628 Q446.72 334.045 453.479 332.471 M450.053 317.702 Q450.053 323.073 453.387 326.082 Q456.766 329.091 462.831 329.091 Q468.849 329.091 472.229 326.082 Q475.655 323.073 475.655 317.702 Q475.655 312.332 472.229 309.323 Q468.849 306.314 462.831 306.314 Q456.766 306.314 453.387 309.323 Q450.053 312.332 450.053 317.702 Z" fill="#000000" fill-rule="nonzero" fill-opacity="1" /><path clip-path="url(#clip150)" d="M523.155 306.314 Q515.933 306.314 512.275 313.443 Q508.664 320.526 508.664 334.786 Q508.664 348.998 512.275 356.128 Q515.933 363.211 523.155 363.211 Q530.423 363.211 534.034 356.128 Q537.692 348.998 537.692 334.786 Q537.692 320.526 534.034 313.443 Q530.423 306.314 523.155 306.314 M523.155 298.906 Q534.775 298.906 540.886 308.119 Q547.043 317.286 547.043 334.786 Q547.043 352.239 540.886 361.452 Q534.775 370.619 523.155 370.619 Q511.534 370.619 505.377 361.452 Q499.266 352.239 499.266 334.786 Q499.266 317.286 505.377 308.119 Q511.534 298.906 523.155 298.906 Z" fill="#000000" fill-rule="nonzero" fill-opacity="1" /><path clip-path="url(#clip150)" d="M563.479 357.517 L573.247 357.517 L573.247 369.276 L563.479 369.276 L563.479 357.517 Z" fill="#000000" fill-rule="nonzero" fill-opacity="1" /><path clip-path="url(#clip150)" d="M613.617 306.314 Q606.395 306.314 602.738 313.443 Q599.127 320.526 599.127 334.786 Q599.127 348.998 602.738 356.128 Q606.395 363.211 613.617 363.211 Q620.886 363.211 624.497 356.128 Q628.154 348.998 628.154 334.786 Q628.154 320.526 624.497 313.443 Q620.886 306.314 613.617 306.314 M613.617 298.906 Q625.238 298.906 631.349 308.119 Q637.506 317.286 637.506 334.786 Q637.506 352.239 631.349 361.452 Q625.238 370.619 613.617 370.619 Q601.997 370.619 595.84 361.452 Q589.728 352.239 589.728 334.786 Q589.728 317.286 595.84 308.119 Q601.997 298.906 613.617 298.906 Z" fill="#000000" fill-rule="nonzero" fill-opacity="1" /><path clip-path="url(#clip150)" d="M384.128 196.834 L399.405 196.834 L399.405 144.103 L382.785 147.436 L382.785 138.918 L399.313 135.585 L408.665 135.585 L408.665 196.834 L423.942 196.834 L423.942 204.705 L384.128 204.705 L384.128 196.834 Z" fill="#000000" fill-rule="nonzero" fill-opacity="1" /><path clip-path="url(#clip150)" d="M443.109 203.269 L443.109 194.751 Q446.627 196.418 450.238 197.297 Q453.85 198.177 457.322 198.177 Q466.581 198.177 471.442 191.973 Q476.349 185.723 477.044 173.038 Q474.359 177.019 470.238 179.149 Q466.118 181.279 461.118 181.279 Q450.748 181.279 444.683 175.029 Q438.664 168.732 438.664 157.853 Q438.664 147.205 444.961 140.77 Q451.257 134.335 461.72 134.335 Q473.711 134.335 480.007 143.547 Q486.349 152.714 486.349 170.214 Q486.349 186.556 478.572 196.325 Q470.84 206.047 457.738 206.047 Q454.22 206.047 450.609 205.353 Q446.998 204.658 443.109 203.269 M461.72 173.964 Q468.016 173.964 471.674 169.658 Q475.377 165.353 475.377 157.853 Q475.377 150.399 471.674 146.094 Q468.016 141.742 461.72 141.742 Q455.424 141.742 451.72 146.094 Q448.063 150.399 448.063 157.853 Q448.063 165.353 451.72 169.658 Q455.424 173.964 461.72 173.964 Z" fill="#000000" fill-rule="nonzero" fill-opacity="1" /><path clip-path="url(#clip150)" d="M523.155 141.742 Q515.933 141.742 512.275 148.871 Q508.664 155.955 508.664 170.214 Q508.664 184.427 512.275 191.556 Q515.933 198.64 523.155 198.64 Q530.423 198.64 534.034 191.556 Q537.692 184.427 537.692 170.214 Q537.692 155.955 534.034 148.871 Q530.423 141.742 523.155 141.742 M523.155 134.335 Q534.775 134.335 540.886 143.547 Q547.043 152.714 547.043 170.214 Q547.043 187.668 540.886 196.88 Q534.775 206.047 523.155 206.047 Q511.534 206.047 505.377 196.88 Q499.266 187.668 499.266 170.214 Q499.266 152.714 505.377 143.547 Q511.534 134.335 523.155 134.335 Z" fill="#000000" fill-rule="nonzero" fill-opacity="1" /><path clip-path="url(#clip150)" d="M563.479 192.945 L573.247 192.945 L573.247 204.705 L563.479 204.705 L563.479 192.945 Z" fill="#000000" fill-rule="nonzero" fill-opacity="1" /><path clip-path="url(#clip150)" d="M613.617 141.742 Q606.395 141.742 602.738 148.871 Q599.127 155.955 599.127 170.214 Q599.127 184.427 602.738 191.556 Q606.395 198.64 613.617 198.64 Q620.886 198.64 624.497 191.556 Q628.154 184.427 628.154 170.214 Q628.154 155.955 624.497 148.871 Q620.886 141.742 613.617 141.742 M613.617 134.335 Q625.238 134.335 631.349 143.547 Q637.506 152.714 637.506 170.214 Q637.506 187.668 631.349 196.88 Q625.238 206.047 613.617 206.047 Q601.997 206.047 595.84 196.88 Q589.728 187.668 589.728 170.214 Q589.728 152.714 595.84 143.547 Q601.997 134.335 613.617 134.335 Z" fill="#000000" fill-rule="nonzero" fill-opacity="1" /><path clip-path="url(#clip150)" d="M249.714 1099.45 L260.663 1099.45 Q257.926 1104.42 256.589 1109.45 Q255.189 1114.41 255.189 1119.51 Q255.189 1130.9 262.446 1137.2 Q269.639 1143.51 282.689 1143.51 Q295.739 1143.51 302.995 1137.2 Q310.189 1130.9 310.189 1119.51 Q310.189 1114.41 308.852 1109.45 Q307.451 1104.42 304.714 1099.45 L315.536 1099.45 Q317.828 1104.36 318.973 1109.64 Q320.119 1114.86 320.119 1120.78 Q320.119 1136.88 309.998 1146.37 Q299.876 1155.85 282.689 1155.85 Q265.247 1155.85 255.253 1146.31 Q245.258 1136.69 245.258 1120.02 Q245.258 1114.6 246.404 1109.45 Q247.486 1104.29 249.714 1099.45 Z" fill="#000000" fill-rule="nonzero" fill-opacity="1" /><path clip-path="url(#clip150)" d="M255.189 1051.46 Q255.189 1060.88 262.573 1066.35 Q269.894 1071.83 282.689 1071.83 Q295.484 1071.83 302.868 1066.42 Q310.189 1060.94 310.189 1051.46 Q310.189 1042.1 302.804 1036.62 Q295.42 1031.15 282.689 1031.15 Q270.021 1031.15 262.637 1036.62 Q255.189 1042.1 255.189 1051.46 M245.258 1051.46 Q245.258 1036.18 255.189 1027.46 Q265.119 1018.74 282.689 1018.74 Q300.195 1018.74 310.189 1027.46 Q320.119 1036.18 320.119 1051.46 Q320.119 1066.8 310.189 1075.52 Q300.195 1084.18 282.689 1084.18 Q265.119 1084.18 255.189 1075.52 Q245.258 1066.8 245.258 1051.46 Z" fill="#000000" fill-rule="nonzero" fill-opacity="1" /><path clip-path="url(#clip150)" d="M275.241 940.057 L318.273 940.057 L318.273 951.77 L275.623 951.77 Q265.501 951.77 260.472 955.717 Q255.444 959.663 255.444 967.557 Q255.444 977.042 261.491 982.516 Q267.538 987.991 277.978 987.991 L318.273 987.991 L318.273 999.767 L246.977 999.767 L246.977 987.991 L258.054 987.991 Q251.624 983.789 248.441 978.124 Q245.258 972.395 245.258 964.947 Q245.258 952.661 252.897 946.359 Q260.472 940.057 275.241 940.057 Z" fill="#000000" fill-rule="nonzero" fill-opacity="1" /><path clip-path="url(#clip150)" d="M249.714 865.387 L260.663 865.387 Q257.926 870.353 256.589 875.381 Q255.189 880.347 255.189 885.439 Q255.189 896.834 262.446 903.136 Q269.639 909.438 282.689 909.438 Q295.739 909.438 302.995 903.136 Q310.189 896.834 310.189 885.439 Q310.189 880.347 308.852 875.381 Q307.451 870.353 304.714 865.387 L315.536 865.387 Q317.828 870.289 318.973 875.572 Q320.119 880.792 320.119 886.712 Q320.119 902.818 309.998 912.303 Q299.876 921.787 282.689 921.787 Q265.247 921.787 255.253 912.239 Q245.258 902.627 245.258 885.949 Q245.258 880.538 246.404 875.381 Q247.486 870.225 249.714 865.387 Z" fill="#000000" fill-rule="nonzero" fill-opacity="1" /><path clip-path="url(#clip150)" d="M302.104 843.362 L302.104 829.93 L318.273 829.93 L318.273 843.362 L302.104 843.362 Z" fill="#000000" fill-rule="nonzero" fill-opacity="1" /><path clip-path="url(#clip150)" d="M246.977 770.538 L246.977 758.125 L306.815 735.845 L246.977 713.565 L246.977 701.152 L318.273 727.888 L318.273 743.802 L246.977 770.538 Z" fill="#000000" fill-rule="nonzero" fill-opacity="1" /><path clip-path="url(#clip150)" d="M279.697 624 L285.426 624 L285.426 677.854 Q297.521 677.09 303.887 670.597 Q310.189 664.04 310.189 652.391 Q310.189 645.643 308.534 639.341 Q306.878 632.975 303.568 626.737 L314.645 626.737 Q317.318 633.039 318.719 639.659 Q320.119 646.28 320.119 653.091 Q320.119 670.151 310.189 680.145 Q300.258 690.076 283.325 690.076 Q265.82 690.076 255.571 680.654 Q245.258 671.17 245.258 655.128 Q245.258 640.742 254.552 632.402 Q263.783 624 279.697 624 M276.259 635.713 Q266.647 635.84 260.918 641.123 Q255.189 646.343 255.189 655.001 Q255.189 664.804 260.727 670.724 Q266.265 676.58 276.323 677.472 L276.259 635.713 Z" fill="#000000" fill-rule="nonzero" fill-opacity="1" /><path clip-path="url(#clip150)" d="M275.241 545.511 L318.273 545.511 L318.273 557.223 L275.623 557.223 Q265.501 557.223 260.472 561.17 Q255.444 565.117 255.444 573.01 Q255.444 582.495 261.491 587.97 Q267.538 593.444 277.978 593.444 L318.273 593.444 L318.273 605.221 L246.977 605.221 L246.977 593.444 L258.054 593.444 Q251.624 589.243 248.441 583.577 Q245.258 577.848 245.258 570.4 Q245.258 558.115 252.897 551.813 Q260.472 545.511 275.241 545.511 Z" fill="#000000" fill-rule="nonzero" fill-opacity="1" /><path clip-path="url(#clip150)" d="M226.734 510.563 L246.977 510.563 L246.977 486.437 L256.08 486.437 L256.08 510.563 L294.784 510.563 Q303.505 510.563 305.987 508.207 Q308.47 505.789 308.47 498.468 L308.47 486.437 L318.273 486.437 L318.273 498.468 Q318.273 512.027 313.244 517.183 Q308.152 522.339 294.784 522.339 L256.08 522.339 L256.08 530.933 L246.977 530.933 L246.977 522.339 L226.734 522.339 L226.734 510.563 Z" fill="#000000" fill-rule="nonzero" fill-opacity="1" /><path clip-path="url(#clip150)" d="M257.926 429.718 Q256.78 431.692 256.271 434.047 Q255.698 436.339 255.698 439.14 Q255.698 449.07 262.191 454.417 Q268.621 459.701 280.715 459.701 L318.273 459.701 L318.273 471.477 L246.977 471.477 L246.977 459.701 L258.054 459.701 Q251.561 456.009 248.441 450.089 Q245.258 444.168 245.258 435.702 Q245.258 434.493 245.449 433.028 Q245.577 431.564 245.895 429.782 L257.926 429.718 Z" fill="#000000" fill-rule="nonzero" fill-opacity="1" /><path clip-path="url(#clip150)" d="M246.977 417.433 L246.977 405.72 L318.273 405.72 L318.273 417.433 L246.977 417.433 M219.223 417.433 L219.223 405.72 L234.055 405.72 L234.055 417.433 L219.223 417.433 Z" fill="#000000" fill-rule="nonzero" fill-opacity="1" /><path clip-path="url(#clip150)" d="M249.714 329.904 L260.663 329.904 Q257.926 334.869 256.589 339.898 Q255.189 344.863 255.189 349.956 Q255.189 361.351 262.446 367.653 Q269.639 373.955 282.689 373.955 Q295.739 373.955 302.995 367.653 Q310.189 361.351 310.189 349.956 Q310.189 344.863 308.852 339.898 Q307.451 334.869 304.714 329.904 L315.536 329.904 Q317.828 334.806 318.973 340.089 Q320.119 345.309 320.119 351.229 Q320.119 367.334 309.998 376.819 Q299.876 386.304 282.689 386.304 Q265.247 386.304 255.253 376.756 Q245.258 367.143 245.258 350.465 Q245.258 345.054 246.404 339.898 Q247.486 334.742 249.714 329.904 Z" fill="#000000" fill-rule="nonzero" fill-opacity="1" /><path clip-path="url(#clip150)" d="M219.223 309.534 L219.223 297.821 L318.273 297.821 L318.273 309.534 L219.223 309.534 Z" fill="#000000" fill-rule="nonzero" fill-opacity="1" /><path clip-path="url(#clip150)" d="M279.697 212.329 L285.426 212.329 L285.426 266.183 Q297.521 265.419 303.887 258.926 Q310.189 252.37 310.189 240.721 Q310.189 233.973 308.534 227.671 Q306.878 221.305 303.568 215.067 L314.645 215.067 Q317.318 221.369 318.719 227.989 Q320.119 234.609 320.119 241.421 Q320.119 258.481 310.189 268.475 Q300.258 278.405 283.325 278.405 Q265.82 278.405 255.571 268.984 Q245.258 259.499 245.258 243.458 Q245.258 229.071 254.552 220.732 Q263.783 212.329 279.697 212.329 M276.259 224.042 Q266.647 224.17 260.918 229.453 Q255.189 234.673 255.189 243.33 Q255.189 253.134 260.727 259.054 Q266.265 264.91 276.323 265.801 L276.259 224.042 Z" fill="#000000" fill-rule="nonzero" fill-opacity="1" /><polyline clip-path="url(#clip152)" style="stroke:#008000; stroke-linecap:round; stroke-linejoin:round; stroke-width:8; stroke-opacity:1; fill:none" points="719.695,209.727 847.997,296.526 976.3,314.101 1104.6,146.257 1232.9,553.417 1361.21,401.587 1489.51,644.323 1617.81,654.57 1746.11,1026.09 1874.42,1029.8 2002.72,906.193 2131.02,960.964 2259.32,1240.32 "/>
<circle clip-path="url(#clip152)" cx="719.695" cy="209.727" r="14.4" fill="#008000" fill-rule="evenodd" fill-opacity="1" stroke="#000000" stroke-opacity="1" stroke-width="6.4"/>
<circle clip-path="url(#clip152)" cx="847.997" cy="296.526" r="14.4" fill="#008000" fill-rule="evenodd" fill-opacity="1" stroke="#000000" stroke-opacity="1" stroke-width="6.4"/>
<circle clip-path="url(#clip152)" cx="976.3" cy="314.101" r="14.4" fill="#008000" fill-rule="evenodd" fill-opacity="1" stroke="#000000" stroke-opacity="1" stroke-width="6.4"/>
<circle clip-path="url(#clip152)" cx="1104.6" cy="146.257" r="14.4" fill="#008000" fill-rule="evenodd" fill-opacity="1" stroke="#000000" stroke-opacity="1" stroke-width="6.4"/>
<circle clip-path="url(#clip152)" cx="1232.9" cy="553.417" r="14.4" fill="#008000" fill-rule="evenodd" fill-opacity="1" stroke="#000000" stroke-opacity="1" stroke-width="6.4"/>
<circle clip-path="url(#clip152)" cx="1361.21" cy="401.587" r="14.4" fill="#008000" fill-rule="evenodd" fill-opacity="1" stroke="#000000" stroke-opacity="1" stroke-width="6.4"/>
<circle clip-path="url(#clip152)" cx="1489.51" cy="644.323" r="14.4" fill="#008000" fill-rule="evenodd" fill-opacity="1" stroke="#000000" stroke-opacity="1" stroke-width="6.4"/>
<circle clip-path="url(#clip152)" cx="1617.81" cy="654.57" r="14.4" fill="#008000" fill-rule="evenodd" fill-opacity="1" stroke="#000000" stroke-opacity="1" stroke-width="6.4"/>
<circle clip-path="url(#clip152)" cx="1746.11" cy="1026.09" r="14.4" fill="#008000" fill-rule="evenodd" fill-opacity="1" stroke="#000000" stroke-opacity="1" stroke-width="6.4"/>
<circle clip-path="url(#clip152)" cx="1874.42" cy="1029.8" r="14.4" fill="#008000" fill-rule="evenodd" fill-opacity="1" stroke="#000000" stroke-opacity="1" stroke-width="6.4"/>
<circle clip-path="url(#clip152)" cx="2002.72" cy="906.193" r="14.4" fill="#008000" fill-rule="evenodd" fill-opacity="1" stroke="#000000" stroke-opacity="1" stroke-width="6.4"/>
<circle clip-path="url(#clip152)" cx="2131.02" cy="960.964" r="14.4" fill="#008000" fill-rule="evenodd" fill-opacity="1" stroke="#000000" stroke-opacity="1" stroke-width="6.4"/>
<circle clip-path="url(#clip152)" cx="2259.32" cy="1240.32" r="14.4" fill="#008000" fill-rule="evenodd" fill-opacity="1" stroke="#000000" stroke-opacity="1" stroke-width="6.4"/>
<polyline clip-path="url(#clip152)" style="stroke:#00008b; stroke-linecap:round; stroke-linejoin:round; stroke-width:8; stroke-opacity:1; fill:none" points="719.695,203.956 847.997,292.983 976.3,380.22 1104.6,465.509 1232.9,541.015 1361.21,617.566 1489.51,700.923 1617.81,768.245 1746.11,836.232 1874.42,902.338 2002.72,964.516 2131.02,1026.99 2259.32,1082.49 "/>
<path clip-path="url(#clip152)" d="M719.695 275.196 L847.997 362.539 L976.3 456.345 L1104.6 537.35 L1232.9 612.614 L1361.21 688.171 L1489.51 776.219 L1617.81 842.219 L1746.11 914.671 L1874.42 984.885 L2002.72 1040.46 L2131.02 1106.89 L2259.32 1162.25 L2259.32 1003.94 L2131.02 948.392 L2002.72 882.702 L1874.42 818.648 L1746.11 760.19 L1617.81 689.258 L1489.51 626.913 L1361.21 541.978 L1232.9 469.139 L1104.6 396.591 L976.3 312.024 L847.997 219.869 L719.695 127.862  Z" fill="#0000ff" fill-rule="evenodd" fill-opacity="0.1"/>
<polyline clip-path="url(#clip152)" style="stroke:#0000ff; stroke-linecap:round; stroke-linejoin:round; stroke-width:0; stroke-opacity:0.1; fill:none" points="719.695,275.196 847.997,362.539 976.3,456.345 1104.6,537.35 1232.9,612.614 1361.21,688.171 1489.51,776.219 1617.81,842.219 1746.11,914.671 1874.42,984.885 2002.72,1040.46 2131.02,1106.89 2259.32,1162.25 "/>
</svg>
