<?xml version="1.0" encoding="utf-8"?>
<svg xmlns="http://www.w3.org/2000/svg" xmlns:xlink="http://www.w3.org/1999/xlink" width="600" height="400" viewBox="0 0 2400 1600">
<defs>
  <clipPath id="clip270">
    <rect x="0" y="0" width="2400" height="1600"/>
  </clipPath>
</defs>
<path clip-path="url(#clip270)" d="M0 1600 L2400 1600 L2400 0 L0 0  Z" fill="#ffffff" fill-rule="evenodd" fill-opacity="1"/>
<defs>
  <clipPath id="clip271">
    <rect x="480" y="0" width="1681" height="1600"/>
  </clipPath>
</defs>
<path clip-path="url(#clip270)" d="M673.506 1273.7 L2305.51 1273.7 L2305.51 94.4882 L673.506 94.4882  Z" fill="#ffffff" fill-rule="evenodd" fill-opacity="1"/>
<defs>
  <clipPath id="clip272">
    <rect x="673" y="94" width="1633" height="1180"/>
  </clipPath>
</defs>
<polyline clip-path="url(#clip272)" style="stroke:#000000; stroke-linecap:round; stroke-linejoin:round; stroke-width:4; stroke-opacity:0.1; fill:none" points="719.695,1273.7 719.695,94.4882 "/>
<polyline clip-path="url(#clip272)" style="stroke:#000000; stroke-linecap:round; stroke-linejoin:round; stroke-width:4; stroke-opacity:0.1; fill:none" points="1040.45,1273.7 1040.45,94.4882 "/>
<polyline clip-path="url(#clip272)" style="stroke:#000000; stroke-linecap:round; stroke-linejoin:round; stroke-width:4; stroke-opacity:0.1; fill:none" points="1361.21,1273.7 1361.21,94.4882 "/>
<polyline clip-path="url(#clip272)" style="stroke:#000000; stroke-linecap:round; stroke-linejoin:round; stroke-width:4; stroke-opacity:0.1; fill:none" points="1681.96,1273.7 1681.96,94.4882 "/>
<polyline clip-path="url(#clip272)" style="stroke:#000000; stroke-linecap:round; stroke-linejoin:round; stroke-width:4; stroke-opacity:0.1; fill:none" points="2002.72,1273.7 2002.72,94.4882 "/>
<polyline clip-path="url(#clip270)" style="stroke:#000000; stroke-linecap:round; stroke-linejoin:round; stroke-width:8; stroke-opacity:1; fill:none" points="673.506,1273.7 2305.51,1273.7 "/>
<polyline clip-path="url(#clip270)" style="stroke:#000000; stroke-linecap:round; stroke-linejoin:round; stroke-width:8; stroke-opacity:1; fill:none" points="719.695,1273.7 719.695,1254.8 "/>
<polyline clip-path="url(#clip270)" style="stroke:#000000; stroke-linecap:round; stroke-linejoin:round; stroke-width:8; stroke-opacity:1; fill:none" points="1040.45,1273.7 1040.45,1254.8 "/>
<polyline clip-path="url(#clip270)" style="stroke:#000000; stroke-linecap:round; stroke-linejoin:round; stroke-width:8; stroke-opacity:1; fill:none" points="1361.21,1273.7 1361.21,1254.8 "/>
<polyline clip-path="url(#clip270)" style="stroke:#000000; stroke-linecap:round; stroke-linejoin:round; stroke-width:8; stroke-opacity:1; fill:none" points="1681.96,1273.7 1681.96,1254.8 "/>
<polyline clip-path="url(#clip270)" style="stroke:#000000; stroke-linecap:round; stroke-linejoin:round; stroke-width:8; stroke-opacity:1; fill:none" points="2002.72,1273.7 2002.72,1254.8 "/>
<path clip-path="url(#clip270)" d="M644.302 1316.33 Q637.08 1316.33 633.422 1323.46 Q629.811 1330.55 629.811 1344.81 Q629.811 1359.02 633.422 1366.15 Q637.08 1373.23 644.302 1373.23 Q651.57 1373.23 655.181 1366.15 Q658.839 1359.02 658.839 1344.81 Q658.839 1330.55 655.181 1323.46 Q651.57 1316.33 644.302 1316.33 M644.302 1308.93 Q655.922 1308.93 662.033 1318.14 Q668.19 1327.31 668.19 1344.81 Q668.19 1362.26 662.033 1371.47 Q655.922 1380.64 644.302 1380.64 Q632.681 1380.64 626.524 1371.47 Q620.413 1362.26 620.413 1344.81 Q620.413 1327.31 626.524 1318.14 Q632.681 1308.93 644.302 1308.93 Z" fill="#000000" fill-rule="nonzero" fill-opacity="1" /><path clip-path="url(#clip270)" d="M684.626 1367.54 L694.394 1367.54 L694.394 1379.3 L684.626 1379.3 L684.626 1367.54 Z" fill="#000000" fill-rule="nonzero" fill-opacity="1" /><path clip-path="url(#clip270)" d="M734.764 1316.33 Q727.542 1316.33 723.885 1323.46 Q720.274 1330.55 720.274 1344.81 Q720.274 1359.02 723.885 1366.15 Q727.542 1373.23 734.764 1373.23 Q742.033 1373.23 745.644 1366.15 Q749.301 1359.02 749.301 1344.81 Q749.301 1330.55 745.644 1323.46 Q742.033 1316.33 734.764 1316.33 M734.764 1308.93 Q746.384 1308.93 752.496 1318.14 Q758.653 1327.31 758.653 1344.81 Q758.653 1362.26 752.496 1371.47 Q746.384 1380.64 734.764 1380.64 Q723.144 1380.64 716.986 1371.47 Q710.875 1362.26 710.875 1344.81 Q710.875 1327.31 716.986 1318.14 Q723.144 1308.93 734.764 1308.93 Z" fill="#000000" fill-rule="nonzero" fill-opacity="1" /><path clip-path="url(#clip270)" d="M795.088 1316.33 Q787.866 1316.33 784.208 1323.46 Q780.597 1330.55 780.597 1344.81 Q780.597 1359.02 784.208 1366.15 Q787.866 1373.23 795.088 1373.23 Q802.356 1373.23 805.967 1366.15 Q809.625 1359.02 809.625 1344.81 Q809.625 1330.55 805.967 1323.46 Q802.356 1316.33 795.088 1316.33 M795.088 1308.93 Q806.708 1308.93 812.819 1318.14 Q818.977 1327.31 818.977 1344.81 Q818.977 1362.26 812.819 1371.47 Q806.708 1380.64 795.088 1380.64 Q783.468 1380.64 777.31 1371.47 Q771.199 1362.26 771.199 1344.81 Q771.199 1327.31 777.31 1318.14 Q783.468 1308.93 795.088 1308.93 Z" fill="#000000" fill-rule="nonzero" fill-opacity="1" /><path clip-path="url(#clip270)" d="M966.053 1316.33 Q958.831 1316.33 955.173 1323.46 Q951.562 1330.55 951.562 1344.81 Q951.562 1359.02 955.173 1366.15 Q958.831 1373.23 966.053 1373.23 Q973.321 1373.23 976.932 1366.15 Q980.59 1359.02 980.59 1344.81 Q980.59 1330.55 976.932 1323.46 Q973.321 1316.33 966.053 1316.33 M966.053 1308.93 Q977.673 1308.93 983.784 1318.14 Q989.942 1327.31 989.942 1344.81 Q989.942 1362.26 983.784 1371.47 Q977.673 1380.64 966.053 1380.64 Q954.433 1380.64 948.275 1371.47 Q942.164 1362.26 942.164 1344.81 Q942.164 1327.31 948.275 1318.14 Q954.433 1308.93 966.053 1308.93 Z" fill="#000000" fill-rule="nonzero" fill-opacity="1" /><path clip-path="url(#clip270)" d="M1006.38 1367.54 L1016.15 1367.54 L1016.15 1379.3 L1006.38 1379.3 L1006.38 1367.54 Z" fill="#000000" fill-rule="nonzero" fill-opacity="1" /><path clip-path="url(#clip270)" d="M1044.57 1371.43 L1077.21 1371.43 L1077.21 1379.3 L1033.32 1379.3 L1033.32 1371.43 Q1038.65 1365.92 1047.81 1356.66 Q1057.02 1347.35 1059.39 1344.67 Q1063.88 1339.62 1065.64 1336.15 Q1067.44 1332.63 1067.44 1329.25 Q1067.44 1323.74 1063.55 1320.27 Q1059.71 1316.8 1053.51 1316.8 Q1049.11 1316.8 1044.2 1318.32 Q1039.34 1319.85 1033.78 1322.95 L1033.78 1313.51 Q1039.43 1311.24 1044.34 1310.08 Q1049.25 1308.93 1053.32 1308.93 Q1064.06 1308.93 1070.45 1314.3 Q1076.84 1319.67 1076.84 1328.65 Q1076.84 1332.91 1075.22 1336.75 Q1073.64 1340.55 1069.43 1345.73 Q1068.27 1347.07 1062.07 1353.51 Q1055.87 1359.9 1044.57 1371.43 Z" fill="#000000" fill-rule="nonzero" fill-opacity="1" /><path clip-path="url(#clip270)" d="M1096.93 1310.18 L1133.64 1310.18 L1133.64 1318.05 L1105.5 1318.05 L1105.5 1334.99 Q1107.53 1334.3 1109.57 1333.97 Q1111.61 1333.6 1113.64 1333.6 Q1125.22 1333.6 1131.98 1339.94 Q1138.74 1346.29 1138.74 1357.12 Q1138.74 1368.28 1131.79 1374.48 Q1124.85 1380.64 1112.21 1380.64 Q1107.86 1380.64 1103.32 1379.9 Q1098.83 1379.16 1094.02 1377.68 L1094.02 1368.28 Q1098.18 1370.55 1102.63 1371.66 Q1107.07 1372.77 1112.02 1372.77 Q1120.03 1372.77 1124.71 1368.56 Q1129.39 1364.34 1129.39 1357.12 Q1129.39 1349.9 1124.71 1345.68 Q1120.03 1341.47 1112.02 1341.47 Q1108.27 1341.47 1104.52 1342.31 Q1100.82 1343.14 1096.93 1344.9 L1096.93 1310.18 Z" fill="#000000" fill-rule="nonzero" fill-opacity="1" /><path clip-path="url(#clip270)" d="M1285.81 1316.33 Q1278.59 1316.33 1274.93 1323.46 Q1271.32 1330.55 1271.32 1344.81 Q1271.32 1359.02 1274.93 1366.15 Q1278.59 1373.23 1285.81 1373.23 Q1293.08 1373.23 1296.69 1366.15 Q1300.35 1359.02 1300.35 1344.81 Q1300.35 1330.55 1296.69 1323.46 Q1293.08 1316.33 1285.81 1316.33 M1285.81 1308.93 Q1297.43 1308.93 1303.54 1318.14 Q1309.7 1327.31 1309.7 1344.81 Q1309.7 1362.26 1303.54 1371.47 Q1297.43 1380.64 1285.81 1380.64 Q1274.19 1380.64 1268.04 1371.47 Q1261.92 1362.26 1261.92 1344.81 Q1261.92 1327.31 1268.04 1318.14 Q1274.19 1308.93 1285.81 1308.93 Z" fill="#000000" fill-rule="nonzero" fill-opacity="1" /><path clip-path="url(#clip270)" d="M1326.14 1367.54 L1335.91 1367.54 L1335.91 1379.3 L1326.14 1379.3 L1326.14 1367.54 Z" fill="#000000" fill-rule="nonzero" fill-opacity="1" /><path clip-path="url(#clip270)" d="M1356.37 1310.18 L1393.08 1310.18 L1393.08 1318.05 L1364.93 1318.05 L1364.93 1334.99 Q1366.97 1334.3 1369.01 1333.97 Q1371.04 1333.6 1373.08 1333.6 Q1384.66 1333.6 1391.41 1339.94 Q1398.17 1346.29 1398.17 1357.12 Q1398.17 1368.28 1391.23 1374.48 Q1384.29 1380.64 1371.65 1380.64 Q1367.29 1380.64 1362.76 1379.9 Q1358.27 1379.16 1353.45 1377.68 L1353.45 1368.28 Q1357.62 1370.55 1362.06 1371.66 Q1366.51 1372.77 1371.46 1372.77 Q1379.47 1372.77 1384.15 1368.56 Q1388.82 1364.34 1388.82 1357.12 Q1388.82 1349.9 1384.15 1345.68 Q1379.47 1341.47 1371.46 1341.47 Q1367.71 1341.47 1363.96 1342.31 Q1360.26 1343.14 1356.37 1344.9 L1356.37 1310.18 Z" fill="#000000" fill-rule="nonzero" fill-opacity="1" /><path clip-path="url(#clip270)" d="M1436.6 1316.33 Q1429.38 1316.33 1425.72 1323.46 Q1422.11 1330.55 1422.11 1344.81 Q1422.11 1359.02 1425.72 1366.15 Q1429.38 1373.23 1436.6 1373.23 Q1443.87 1373.23 1447.48 1366.15 Q1451.14 1359.02 1451.14 1344.81 Q1451.14 1330.55 1447.48 1323.46 Q1443.87 1316.33 1436.6 1316.33 M1436.6 1308.93 Q1448.22 1308.93 1454.33 1318.14 Q1460.49 1327.31 1460.49 1344.81 Q1460.49 1362.26 1454.33 1371.47 Q1448.22 1380.64 1436.6 1380.64 Q1424.98 1380.64 1418.82 1371.47 Q1412.71 1362.26 1412.71 1344.81 Q1412.71 1327.31 1418.82 1318.14 Q1424.98 1308.93 1436.6 1308.93 Z" fill="#000000" fill-rule="nonzero" fill-opacity="1" /><path clip-path="url(#clip270)" d="M1607.56 1316.33 Q1600.34 1316.33 1596.69 1323.46 Q1593.07 1330.55 1593.07 1344.81 Q1593.07 1359.02 1596.69 1366.15 Q1600.34 1373.23 1607.56 1373.23 Q1614.83 1373.23 1618.44 1366.15 Q1622.1 1359.02 1622.1 1344.81 Q1622.1 1330.55 1618.44 1323.46 Q1614.83 1316.33 1607.56 1316.33 M1607.56 1308.93 Q1619.18 1308.93 1625.3 1318.14 Q1631.45 1327.31 1631.45 1344.81 Q1631.45 1362.26 1625.3 1371.47 Q1619.18 1380.64 1607.56 1380.64 Q1595.94 1380.64 1589.79 1371.47 Q1583.68 1362.26 1583.68 1344.81 Q1583.68 1327.31 1589.79 1318.14 Q1595.94 1308.93 1607.56 1308.93 Z" fill="#000000" fill-rule="nonzero" fill-opacity="1" /><path clip-path="url(#clip270)" d="M1647.89 1367.54 L1657.66 1367.54 L1657.66 1379.3 L1647.89 1379.3 L1647.89 1367.54 Z" fill="#000000" fill-rule="nonzero" fill-opacity="1" /><path clip-path="url(#clip270)" d="M1675.67 1310.18 L1720.11 1310.18 L1720.11 1314.16 L1695.02 1379.3 L1685.25 1379.3 L1708.86 1318.05 L1675.67 1318.05 L1675.67 1310.18 Z" fill="#000000" fill-rule="nonzero" fill-opacity="1" /><path clip-path="url(#clip270)" d="M1738.44 1310.18 L1775.16 1310.18 L1775.16 1318.05 L1747.01 1318.05 L1747.01 1334.99 Q1749.05 1334.3 1751.08 1333.97 Q1753.12 1333.6 1755.16 1333.6 Q1766.73 1333.6 1773.49 1339.94 Q1780.25 1346.29 1780.25 1357.12 Q1780.25 1368.28 1773.3 1374.48 Q1766.36 1380.64 1753.72 1380.64 Q1749.37 1380.64 1744.83 1379.9 Q1740.34 1379.16 1735.53 1377.68 L1735.53 1368.28 Q1739.69 1370.55 1744.14 1371.66 Q1748.58 1372.77 1753.54 1372.77 Q1761.55 1372.77 1766.22 1368.56 Q1770.9 1364.34 1770.9 1357.12 Q1770.9 1349.9 1766.22 1345.68 Q1761.55 1341.47 1753.54 1341.47 Q1749.79 1341.47 1746.04 1342.31 Q1742.33 1343.14 1738.44 1344.9 L1738.44 1310.18 Z" fill="#000000" fill-rule="nonzero" fill-opacity="1" /><path clip-path="url(#clip270)" d="M1906.86 1371.43 L1922.14 1371.43 L1922.14 1318.69 L1905.52 1322.03 L1905.52 1313.51 L1922.05 1310.18 L1931.4 1310.18 L1931.4 1371.43 L1946.68 1371.43 L1946.68 1379.3 L1906.86 1379.3 L1906.86 1371.43 Z" fill="#000000" fill-rule="nonzero" fill-opacity="1" /><path clip-path="url(#clip270)" d="M1965.57 1367.54 L1975.33 1367.54 L1975.33 1379.3 L1965.57 1379.3 L1965.57 1367.54 Z" fill="#000000" fill-rule="nonzero" fill-opacity="1" /><path clip-path="url(#clip270)" d="M2015.7 1316.33 Q2008.48 1316.33 2004.82 1323.46 Q2001.21 1330.55 2001.21 1344.81 Q2001.21 1359.02 2004.82 1366.15 Q2008.48 1373.23 2015.7 1373.23 Q2022.97 1373.23 2026.58 1366.15 Q2030.24 1359.02 2030.24 1344.81 Q2030.24 1330.55 2026.58 1323.46 Q2022.97 1316.33 2015.7 1316.33 M2015.7 1308.93 Q2027.32 1308.93 2033.44 1318.14 Q2039.59 1327.31 2039.59 1344.81 Q2039.59 1362.26 2033.44 1371.47 Q2027.32 1380.64 2015.7 1380.64 Q2004.08 1380.64 1997.93 1371.47 Q1991.82 1362.26 1991.82 1344.81 Q1991.82 1327.31 1997.93 1318.14 Q2004.08 1308.93 2015.7 1308.93 Z" fill="#000000" fill-rule="nonzero" fill-opacity="1" /><path clip-path="url(#clip270)" d="M2076.03 1316.33 Q2068.81 1316.33 2065.15 1323.46 Q2061.54 1330.55 2061.54 1344.81 Q2061.54 1359.02 2065.15 1366.15 Q2068.81 1373.23 2076.03 1373.23 Q2083.3 1373.23 2086.91 1366.15 Q2090.57 1359.02 2090.57 1344.81 Q2090.57 1330.55 2086.91 1323.46 Q2083.3 1316.33 2076.03 1316.33 M2076.03 1308.93 Q2087.65 1308.93 2093.76 1318.14 Q2099.92 1327.31 2099.92 1344.81 Q2099.92 1362.26 2093.76 1371.47 Q2087.65 1380.64 2076.03 1380.64 Q2064.41 1380.64 2058.25 1371.47 Q2052.14 1362.26 2052.14 1344.81 Q2052.14 1327.31 2058.25 1318.14 Q2064.41 1308.93 2076.03 1308.93 Z" fill="#000000" fill-rule="nonzero" fill-opacity="1" /><path clip-path="url(#clip270)" d="M1375.05 1484.39 L1375.05 1527.42 L1363.34 1527.42 L1363.34 1484.77 Q1363.34 1474.65 1359.39 1469.62 Q1355.45 1464.59 1347.55 1464.59 Q1338.07 1464.59 1332.59 1470.64 Q1327.12 1476.69 1327.12 1487.13 L1327.12 1527.42 L1315.34 1527.42 L1315.34 1428.37 L1327.12 1428.37 L1327.12 1467.2 Q1331.32 1460.77 1336.99 1457.59 Q1342.72 1454.41 1350.16 1454.41 Q1362.45 1454.41 1368.75 1462.05 Q1375.05 1469.62 1375.05 1484.39 Z" fill="#000000" fill-rule="nonzero" fill-opacity="1" /><path clip-path="url(#clip270)" d="M1426.04 1464.34 Q1416.62 1464.34 1411.15 1471.72 Q1405.67 1479.04 1405.67 1491.84 Q1405.67 1504.63 1411.08 1512.02 Q1416.56 1519.34 1426.04 1519.34 Q1435.4 1519.34 1440.87 1511.96 Q1446.35 1504.57 1446.35 1491.84 Q1446.35 1479.17 1440.87 1471.79 Q1435.4 1464.34 1426.04 1464.34 M1426.04 1454.41 Q1441.32 1454.41 1450.04 1464.34 Q1458.76 1474.27 1458.76 1491.84 Q1458.76 1509.35 1450.04 1519.34 Q1441.32 1529.27 1426.04 1529.27 Q1410.7 1529.27 1401.98 1519.34 Q1393.32 1509.35 1393.32 1491.84 Q1393.32 1474.27 1401.98 1464.34 Q1410.7 1454.41 1426.04 1454.41 Z" fill="#000000" fill-rule="nonzero" fill-opacity="1" /><path clip-path="url(#clip270)" d="M1476.97 1499.29 L1476.97 1456.13 L1488.68 1456.13 L1488.68 1498.84 Q1488.68 1508.96 1492.63 1514.06 Q1496.57 1519.08 1504.47 1519.08 Q1513.95 1519.08 1519.43 1513.04 Q1524.97 1506.99 1524.97 1496.55 L1524.97 1456.13 L1536.68 1456.13 L1536.68 1527.42 L1524.97 1527.42 L1524.97 1516.47 Q1520.7 1522.97 1515.04 1526.15 Q1509.43 1529.27 1501.99 1529.27 Q1489.7 1529.27 1483.33 1521.63 Q1476.97 1513.99 1476.97 1499.29 M1506.44 1454.41 L1506.44 1454.41 Z" fill="#000000" fill-rule="nonzero" fill-opacity="1" /><path clip-path="url(#clip270)" d="M1602.12 1467.08 Q1600.14 1465.93 1597.79 1465.42 Q1595.5 1464.85 1592.7 1464.85 Q1582.77 1464.85 1577.42 1471.34 Q1572.14 1477.77 1572.14 1489.87 L1572.14 1527.42 L1560.36 1527.42 L1560.36 1456.13 L1572.14 1456.13 L1572.14 1467.2 Q1575.83 1460.71 1581.75 1457.59 Q1587.67 1454.41 1596.13 1454.41 Q1597.34 1454.41 1598.81 1454.6 Q1600.27 1454.73 1602.05 1455.05 L1602.12 1467.08 Z" fill="#000000" fill-rule="nonzero" fill-opacity="1" /><path clip-path="url(#clip270)" d="M1659.86 1458.23 L1659.86 1469.3 Q1654.89 1466.76 1649.54 1465.49 Q1644.2 1464.21 1638.47 1464.21 Q1629.75 1464.21 1625.35 1466.89 Q1621.02 1469.56 1621.02 1474.91 Q1621.02 1478.98 1624.14 1481.34 Q1627.26 1483.63 1636.68 1485.73 L1640.69 1486.62 Q1653.17 1489.29 1658.39 1494.19 Q1663.67 1499.03 1663.67 1507.75 Q1663.67 1517.68 1655.78 1523.48 Q1647.95 1529.27 1634.2 1529.27 Q1628.47 1529.27 1622.23 1528.12 Q1616.06 1527.04 1609.18 1524.81 L1609.18 1512.72 Q1615.68 1516.09 1621.98 1517.81 Q1628.28 1519.47 1634.46 1519.47 Q1642.73 1519.47 1647.19 1516.67 Q1651.64 1513.8 1651.64 1508.64 Q1651.64 1503.87 1648.4 1501.32 Q1645.21 1498.78 1634.33 1496.42 L1630.25 1495.47 Q1619.37 1493.18 1614.53 1488.47 Q1609.69 1483.69 1609.69 1475.42 Q1609.69 1465.36 1616.82 1459.88 Q1623.95 1454.41 1637.07 1454.41 Q1643.56 1454.41 1649.29 1455.36 Q1655.02 1456.32 1659.86 1458.23 Z" fill="#000000" fill-rule="nonzero" fill-opacity="1" /><polyline clip-path="url(#clip272)" style="stroke:#000000; stroke-linecap:round; stroke-linejoin:round; stroke-width:4; stroke-opacity:0.1; fill:none" points="673.506,1083.28 2305.51,1083.28 "/>
<polyline clip-path="url(#clip272)" style="stroke:#000000; stroke-linecap:round; stroke-linejoin:round; stroke-width:4; stroke-opacity:0.1; fill:none" points="673.506,867.078 2305.51,867.078 "/>
<polyline clip-path="url(#clip272)" style="stroke:#000000; stroke-linecap:round; stroke-linejoin:round; stroke-width:4; stroke-opacity:0.1; fill:none" points="673.506,650.874 2305.51,650.874 "/>
<polyline clip-path="url(#clip272)" style="stroke:#000000; stroke-linecap:round; stroke-linejoin:round; stroke-width:4; stroke-opacity:0.1; fill:none" points="673.506,434.669 2305.51,434.669 "/>
<polyline clip-path="url(#clip272)" style="stroke:#000000; stroke-linecap:round; stroke-linejoin:round; stroke-width:4; stroke-opacity:0.1; fill:none" points="673.506,218.465 2305.51,218.465 "/>
<polyline clip-path="url(#clip270)" style="stroke:#000000; stroke-linecap:round; stroke-linejoin:round; stroke-width:8; stroke-opacity:1; fill:none" points="673.506,1273.7 673.506,94.4882 "/>
<polyline clip-path="url(#clip270)" style="stroke:#000000; stroke-linecap:round; stroke-linejoin:round; stroke-width:8; stroke-opacity:1; fill:none" points="673.506,1083.28 692.404,1083.28 "/>
<polyline clip-path="url(#clip270)" style="stroke:#000000; stroke-linecap:round; stroke-linejoin:round; stroke-width:8; stroke-opacity:1; fill:none" points="673.506,867.078 692.404,867.078 "/>
<polyline clip-path="url(#clip270)" style="stroke:#000000; stroke-linecap:round; stroke-linejoin:round; stroke-width:8; stroke-opacity:1; fill:none" points="673.506,650.874 692.404,650.874 "/>
<polyline clip-path="url(#clip270)" style="stroke:#000000; stroke-linecap:round; stroke-linejoin:round; stroke-width:8; stroke-opacity:1; fill:none" points="673.506,434.669 692.404,434.669 "/>
<polyline clip-path="url(#clip270)" style="stroke:#000000; stroke-linecap:round; stroke-linejoin:round; stroke-width:8; stroke-opacity:1; fill:none" points="673.506,218.465 692.404,218.465 "/>
<path clip-path="url(#clip270)" d="M443.109 1116.41 L443.109 1107.89 Q446.627 1109.56 450.238 1110.43 Q453.85 1111.31 457.322 1111.31 Q466.581 1111.31 471.442 1105.11 Q476.349 1098.86 477.044 1086.18 Q474.359 1090.16 470.238 1092.29 Q466.118 1094.42 461.118 1094.42 Q450.748 1094.42 444.683 1088.17 Q438.664 1081.87 438.664 1070.99 Q438.664 1060.34 444.961 1053.91 Q451.257 1047.47 461.72 1047.47 Q473.711 1047.47 480.007 1056.69 Q486.349 1065.85 486.349 1083.35 Q486.349 1099.69 478.572 1109.46 Q470.84 1119.18 457.738 1119.18 Q454.22 1119.18 450.609 1118.49 Q446.998 1117.8 443.109 1116.41 M461.72 1087.1 Q468.016 1087.1 471.674 1082.8 Q475.377 1078.49 475.377 1070.99 Q475.377 1063.54 471.674 1059.23 Q468.016 1054.88 461.72 1054.88 Q455.424 1054.88 451.72 1059.23 Q448.063 1063.54 448.063 1070.99 Q448.063 1078.49 451.72 1082.8 Q455.424 1087.1 461.72 1087.1 Z" fill="#000000" fill-rule="nonzero" fill-opacity="1" /><path clip-path="url(#clip270)" d="M523.155 1054.88 Q515.933 1054.88 512.275 1062.01 Q508.664 1069.09 508.664 1083.35 Q508.664 1097.56 512.275 1104.69 Q515.933 1111.78 523.155 1111.78 Q530.423 1111.78 534.034 1104.69 Q537.692 1097.56 537.692 1083.35 Q537.692 1069.09 534.034 1062.01 Q530.423 1054.88 523.155 1054.88 M523.155 1047.47 Q534.775 1047.47 540.886 1056.69 Q547.043 1065.85 547.043 1083.35 Q547.043 1100.81 540.886 1110.02 Q534.775 1119.18 523.155 1119.18 Q511.534 1119.18 505.377 1110.02 Q499.266 1100.81 499.266 1083.35 Q499.266 1065.85 505.377 1056.69 Q511.534 1047.47 523.155 1047.47 Z" fill="#000000" fill-rule="nonzero" fill-opacity="1" /><path clip-path="url(#clip270)" d="M563.479 1106.08 L573.247 1106.08 L573.247 1117.84 L563.479 1117.84 L563.479 1106.08 Z" fill="#000000" fill-rule="nonzero" fill-opacity="1" /><path clip-path="url(#clip270)" d="M613.617 1054.88 Q606.395 1054.88 602.738 1062.01 Q599.127 1069.09 599.127 1083.35 Q599.127 1097.56 602.738 1104.69 Q606.395 1111.78 613.617 1111.78 Q620.886 1111.78 624.497 1104.69 Q628.154 1097.56 628.154 1083.35 Q628.154 1069.09 624.497 1062.01 Q620.886 1054.88 613.617 1054.88 M613.617 1047.47 Q625.238 1047.47 631.349 1056.69 Q637.506 1065.85 637.506 1083.35 Q637.506 1100.81 631.349 1110.02 Q625.238 1119.18 613.617 1119.18 Q601.997 1119.18 595.84 1110.02 Q589.728 1100.81 589.728 1083.35 Q589.728 1065.85 595.84 1056.69 Q601.997 1047.47 613.617 1047.47 Z" fill="#000000" fill-rule="nonzero" fill-opacity="1" /><path clip-path="url(#clip270)" d="M384.128 893.768 L399.405 893.768 L399.405 841.036 L382.785 844.37 L382.785 835.851 L399.313 832.518 L408.665 832.518 L408.665 893.768 L423.942 893.768 L423.942 901.638 L384.128 901.638 L384.128 893.768 Z" fill="#000000" fill-rule="nonzero" fill-opacity="1" /><path clip-path="url(#clip270)" d="M462.831 838.675 Q455.609 838.675 451.951 845.805 Q448.34 852.888 448.34 867.147 Q448.34 881.36 451.951 888.49 Q455.609 895.573 462.831 895.573 Q470.099 895.573 473.711 888.49 Q477.368 881.36 477.368 867.147 Q477.368 852.888 473.711 845.805 Q470.099 838.675 462.831 838.675 M462.831 831.268 Q474.451 831.268 480.562 840.481 Q486.72 849.647 486.72 867.147 Q486.72 884.601 480.562 893.814 Q474.451 902.981 462.831 902.981 Q451.211 902.981 445.053 893.814 Q438.942 884.601 438.942 867.147 Q438.942 849.647 445.053 840.481 Q451.211 831.268 462.831 831.268 Z" fill="#000000" fill-rule="nonzero" fill-opacity="1" /><path clip-path="url(#clip270)" d="M523.155 838.675 Q515.933 838.675 512.275 845.805 Q508.664 852.888 508.664 867.147 Q508.664 881.36 512.275 888.49 Q515.933 895.573 523.155 895.573 Q530.423 895.573 534.034 888.49 Q537.692 881.36 537.692 867.147 Q537.692 852.888 534.034 845.805 Q530.423 838.675 523.155 838.675 M523.155 831.268 Q534.775 831.268 540.886 840.481 Q547.043 849.647 547.043 867.147 Q547.043 884.601 540.886 893.814 Q534.775 902.981 523.155 902.981 Q511.534 902.981 505.377 893.814 Q499.266 884.601 499.266 867.147 Q499.266 849.647 505.377 840.481 Q511.534 831.268 523.155 831.268 Z" fill="#000000" fill-rule="nonzero" fill-opacity="1" /><path clip-path="url(#clip270)" d="M563.479 889.879 L573.247 889.879 L573.247 901.638 L563.479 901.638 L563.479 889.879 Z" fill="#000000" fill-rule="nonzero" fill-opacity="1" /><path clip-path="url(#clip270)" d="M613.617 838.675 Q606.395 838.675 602.738 845.805 Q599.127 852.888 599.127 867.147 Q599.127 881.36 602.738 888.49 Q606.395 895.573 613.617 895.573 Q620.886 895.573 624.497 888.49 Q628.154 881.36 628.154 867.147 Q628.154 852.888 624.497 845.805 Q620.886 838.675 613.617 838.675 M613.617 831.268 Q625.238 831.268 631.349 840.481 Q637.506 849.647 637.506 867.147 Q637.506 884.601 631.349 893.814 Q625.238 902.981 613.617 902.981 Q601.997 902.981 595.84 893.814 Q589.728 884.601 589.728 867.147 Q589.728 849.647 595.84 840.481 Q601.997 831.268 613.617 831.268 Z" fill="#000000" fill-rule="nonzero" fill-opacity="1" /><path clip-path="url(#clip270)" d="M384.128 677.563 L399.405 677.563 L399.405 624.832 L382.785 628.165 L382.785 619.647 L399.313 616.314 L408.665 616.314 L408.665 677.563 L423.942 677.563 L423.942 685.434 L384.128 685.434 L384.128 677.563 Z" fill="#000000" fill-rule="nonzero" fill-opacity="1" /><path clip-path="url(#clip270)" d="M444.451 677.563 L459.729 677.563 L459.729 624.832 L443.109 628.165 L443.109 619.647 L459.637 616.314 L468.988 616.314 L468.988 677.563 L484.266 677.563 L484.266 685.434 L444.451 685.434 L444.451 677.563 Z" fill="#000000" fill-rule="nonzero" fill-opacity="1" /><path clip-path="url(#clip270)" d="M523.155 622.471 Q515.933 622.471 512.275 629.601 Q508.664 636.684 508.664 650.943 Q508.664 665.156 512.275 672.286 Q515.933 679.369 523.155 679.369 Q530.423 679.369 534.034 672.286 Q537.692 665.156 537.692 650.943 Q537.692 636.684 534.034 629.601 Q530.423 622.471 523.155 622.471 M523.155 615.064 Q534.775 615.064 540.886 624.277 Q547.043 633.443 547.043 650.943 Q547.043 668.397 540.886 677.61 Q534.775 686.776 523.155 686.776 Q511.534 686.776 505.377 677.61 Q499.266 668.397 499.266 650.943 Q499.266 633.443 505.377 624.277 Q511.534 615.064 523.155 615.064 Z" fill="#000000" fill-rule="nonzero" fill-opacity="1" /><path clip-path="url(#clip270)" d="M563.479 673.674 L573.247 673.674 L573.247 685.434 L563.479 685.434 L563.479 673.674 Z" fill="#000000" fill-rule="nonzero" fill-opacity="1" /><path clip-path="url(#clip270)" d="M613.617 622.471 Q606.395 622.471 602.738 629.601 Q599.127 636.684 599.127 650.943 Q599.127 665.156 602.738 672.286 Q606.395 679.369 613.617 679.369 Q620.886 679.369 624.497 672.286 Q628.154 665.156 628.154 650.943 Q628.154 636.684 624.497 629.601 Q620.886 622.471 613.617 622.471 M613.617 615.064 Q625.238 615.064 631.349 624.277 Q637.506 633.443 637.506 650.943 Q637.506 668.397 631.349 677.61 Q625.238 686.776 613.617 686.776 Q601.997 686.776 595.84 677.61 Q589.728 668.397 589.728 650.943 Q589.728 633.443 595.84 624.277 Q601.997 615.064 613.617 615.064 Z" fill="#000000" fill-rule="nonzero" fill-opacity="1" /><path clip-path="url(#clip270)" d="M384.128 461.359 L399.405 461.359 L399.405 408.628 L382.785 411.961 L382.785 403.443 L399.313 400.109 L408.665 400.109 L408.665 461.359 L423.942 461.359 L423.942 469.229 L384.128 469.229 L384.128 461.359 Z" fill="#000000" fill-rule="nonzero" fill-opacity="1" /><path clip-path="url(#clip270)" d="M450.887 461.359 L483.525 461.359 L483.525 469.229 L439.637 469.229 L439.637 461.359 Q444.961 455.85 454.127 446.591 Q463.34 437.285 465.701 434.6 Q470.192 429.554 471.951 426.081 Q473.757 422.563 473.757 419.183 Q473.757 413.674 469.868 410.202 Q466.025 406.73 459.822 406.73 Q455.424 406.73 450.516 408.257 Q445.655 409.785 440.1 412.887 L440.1 403.443 Q445.748 401.174 450.655 400.017 Q455.562 398.859 459.637 398.859 Q470.377 398.859 476.766 404.23 Q483.155 409.6 483.155 418.581 Q483.155 422.841 481.535 426.683 Q479.961 430.48 475.748 435.665 Q474.59 437.007 468.387 443.442 Q462.183 449.831 450.887 461.359 Z" fill="#000000" fill-rule="nonzero" fill-opacity="1" /><path clip-path="url(#clip270)" d="M523.155 406.267 Q515.933 406.267 512.275 413.396 Q508.664 420.48 508.664 434.739 Q508.664 448.952 512.275 456.081 Q515.933 463.165 523.155 463.165 Q530.423 463.165 534.034 456.081 Q537.692 448.952 537.692 434.739 Q537.692 420.48 534.034 413.396 Q530.423 406.267 523.155 406.267 M523.155 398.859 Q534.775 398.859 540.886 408.072 Q547.043 417.239 547.043 434.739 Q547.043 452.192 540.886 461.405 Q534.775 470.572 523.155 470.572 Q511.534 470.572 505.377 461.405 Q499.266 452.192 499.266 434.739 Q499.266 417.239 505.377 408.072 Q511.534 398.859 523.155 398.859 Z" fill="#000000" fill-rule="nonzero" fill-opacity="1" /><path clip-path="url(#clip270)" d="M563.479 457.47 L573.247 457.47 L573.247 469.229 L563.479 469.229 L563.479 457.47 Z" fill="#000000" fill-rule="nonzero" fill-opacity="1" /><path clip-path="url(#clip270)" d="M613.617 406.267 Q606.395 406.267 602.738 413.396 Q599.127 420.48 599.127 434.739 Q599.127 448.952 602.738 456.081 Q606.395 463.165 613.617 463.165 Q620.886 463.165 624.497 456.081 Q628.154 448.952 628.154 434.739 Q628.154 420.48 624.497 413.396 Q620.886 406.267 613.617 406.267 M613.617 398.859 Q625.238 398.859 631.349 408.072 Q637.506 417.239 637.506 434.739 Q637.506 452.192 631.349 461.405 Q625.238 470.572 613.617 470.572 Q601.997 470.572 595.84 461.405 Q589.728 452.192 589.728 434.739 Q589.728 417.239 595.84 408.072 Q601.997 398.859 613.617 398.859 Z" fill="#000000" fill-rule="nonzero" fill-opacity="1" /><path clip-path="url(#clip270)" d="M384.128 245.155 L399.405 245.155 L399.405 192.423 L382.785 195.757 L382.785 187.238 L399.313 183.905 L408.665 183.905 L408.665 245.155 L423.942 245.155 L423.942 253.025 L384.128 253.025 L384.128 245.155 Z" fill="#000000" fill-rule="nonzero" fill-opacity="1" /><path clip-path="url(#clip270)" d="M471.164 215.757 Q477.877 217.192 481.627 221.729 Q485.423 226.266 485.423 232.933 Q485.423 243.164 478.386 248.766 Q471.349 254.368 458.387 254.368 Q454.035 254.368 449.405 253.488 Q444.822 252.655 439.914 250.942 L439.914 241.914 Q443.803 244.182 448.433 245.34 Q453.063 246.497 458.109 246.497 Q466.905 246.497 471.488 243.025 Q476.118 239.553 476.118 232.933 Q476.118 226.821 471.812 223.396 Q467.553 219.923 459.914 219.923 L451.859 219.923 L451.859 212.238 L460.285 212.238 Q467.183 212.238 470.84 209.507 Q474.498 206.729 474.498 201.544 Q474.498 196.22 470.701 193.396 Q466.951 190.525 459.914 190.525 Q456.072 190.525 451.674 191.359 Q447.276 192.192 441.998 193.951 L441.998 185.618 Q447.322 184.136 451.951 183.396 Q456.627 182.655 460.748 182.655 Q471.396 182.655 477.599 187.516 Q483.803 192.331 483.803 200.572 Q483.803 206.312 480.516 210.294 Q477.229 214.229 471.164 215.757 Z" fill="#000000" fill-rule="nonzero" fill-opacity="1" /><path clip-path="url(#clip270)" d="M523.155 190.062 Q515.933 190.062 512.275 197.192 Q508.664 204.275 508.664 218.534 Q508.664 232.747 512.275 239.877 Q515.933 246.96 523.155 246.96 Q530.423 246.96 534.034 239.877 Q537.692 232.747 537.692 218.534 Q537.692 204.275 534.034 197.192 Q530.423 190.062 523.155 190.062 M523.155 182.655 Q534.775 182.655 540.886 191.868 Q547.043 201.035 547.043 218.534 Q547.043 235.988 540.886 245.201 Q534.775 254.368 523.155 254.368 Q511.534 254.368 505.377 245.201 Q499.266 235.988 499.266 218.534 Q499.266 201.035 505.377 191.868 Q511.534 182.655 523.155 182.655 Z" fill="#000000" fill-rule="nonzero" fill-opacity="1" /><path clip-path="url(#clip270)" d="M563.479 241.266 L573.247 241.266 L573.247 253.025 L563.479 253.025 L563.479 241.266 Z" fill="#000000" fill-rule="nonzero" fill-opacity="1" /><path clip-path="url(#clip270)" d="M613.617 190.062 Q606.395 190.062 602.738 197.192 Q599.127 204.275 599.127 218.534 Q599.127 232.747 602.738 239.877 Q606.395 246.96 613.617 246.96 Q620.886 246.96 624.497 239.877 Q628.154 232.747 628.154 218.534 Q628.154 204.275 624.497 197.192 Q620.886 190.062 613.617 190.062 M613.617 182.655 Q625.238 182.655 631.349 191.868 Q637.506 201.035 637.506 218.534 Q637.506 235.988 631.349 245.201 Q625.238 254.368 613.617 254.368 Q601.997 254.368 595.84 245.201 Q589.728 235.988 589.728 218.534 Q589.728 201.035 595.84 191.868 Q601.997 182.655 613.617 182.655 Z" fill="#000000" fill-rule="nonzero" fill-opacity="1" /><path clip-path="url(#clip270)" d="M307.579 932.195 L345.391 932.195 L345.391 943.972 L246.977 943.972 L246.977 932.195 L257.799 932.195 Q251.433 928.503 248.378 922.901 Q245.258 917.236 245.258 909.406 Q245.258 896.42 255.571 888.336 Q265.883 880.188 282.689 880.188 Q299.494 880.188 309.807 888.336 Q320.119 896.42 320.119 909.406 Q320.119 917.236 317.064 922.901 Q313.944 928.503 307.579 932.195 M282.689 892.346 Q269.766 892.346 262.446 897.693 Q255.062 902.977 255.062 912.271 Q255.062 921.565 262.446 926.912 Q269.766 932.195 282.689 932.195 Q295.611 932.195 302.995 926.912 Q310.316 921.565 310.316 912.271 Q310.316 902.977 302.995 897.693 Q295.611 892.346 282.689 892.346 Z" fill="#000000" fill-rule="nonzero" fill-opacity="1" /><path clip-path="url(#clip270)" d="M282.434 828.371 Q282.434 842.566 285.681 848.041 Q288.927 853.515 296.757 853.515 Q302.995 853.515 306.688 849.441 Q310.316 845.303 310.316 838.238 Q310.316 828.498 303.441 822.642 Q296.502 816.721 285.044 816.721 L282.434 816.721 L282.434 828.371 M277.596 805.009 L318.273 805.009 L318.273 816.721 L307.451 816.721 Q313.944 820.732 317.064 826.716 Q320.119 832.699 320.119 841.357 Q320.119 852.306 314.008 858.799 Q307.833 865.228 297.521 865.228 Q285.49 865.228 279.379 857.207 Q273.268 849.123 273.268 833.145 L273.268 816.721 L272.122 816.721 Q264.037 816.721 259.645 822.069 Q255.189 827.352 255.189 836.964 Q255.189 843.075 256.653 848.868 Q258.117 854.661 261.045 860.008 L250.224 860.008 Q247.741 853.579 246.532 847.531 Q245.258 841.484 245.258 835.755 Q245.258 820.286 253.279 812.647 Q261.3 805.009 277.596 805.009 Z" fill="#000000" fill-rule="nonzero" fill-opacity="1" /><path clip-path="url(#clip270)" d="M257.926 739.569 Q256.78 741.542 256.271 743.898 Q255.698 746.189 255.698 748.99 Q255.698 758.921 262.191 764.268 Q268.621 769.552 280.715 769.552 L318.273 769.552 L318.273 781.328 L246.977 781.328 L246.977 769.552 L258.054 769.552 Q251.561 765.859 248.441 759.939 Q245.258 754.019 245.258 745.553 Q245.258 744.343 245.449 742.879 Q245.577 741.415 245.895 739.633 L257.926 739.569 Z" fill="#000000" fill-rule="nonzero" fill-opacity="1" /><path clip-path="url(#clip270)" d="M279.697 669.164 L285.426 669.164 L285.426 723.018 Q297.521 722.254 303.887 715.761 Q310.189 709.205 310.189 697.555 Q310.189 690.808 308.534 684.506 Q306.878 678.14 303.568 671.902 L314.645 671.902 Q317.318 678.204 318.719 684.824 Q320.119 691.444 320.119 698.256 Q320.119 715.316 310.189 725.31 Q300.258 735.24 283.325 735.24 Q265.82 735.24 255.571 725.819 Q245.258 716.334 245.258 700.293 Q245.258 685.906 254.552 677.567 Q263.783 669.164 279.697 669.164 M276.259 680.877 Q266.647 681.005 260.918 686.288 Q255.189 691.508 255.189 700.165 Q255.189 709.969 260.727 715.889 Q266.265 721.745 276.323 722.636 L276.259 680.877 Z" fill="#000000" fill-rule="nonzero" fill-opacity="1" /><path clip-path="url(#clip270)" d="M275.241 590.675 L318.273 590.675 L318.273 602.388 L275.623 602.388 Q265.501 602.388 260.472 606.335 Q255.444 610.282 255.444 618.175 Q255.444 627.66 261.491 633.134 Q267.538 638.609 277.978 638.609 L318.273 638.609 L318.273 650.386 L246.977 650.386 L246.977 638.609 L258.054 638.609 Q251.624 634.408 248.441 628.742 Q245.258 623.013 245.258 615.565 Q245.258 603.279 252.897 596.977 Q260.472 590.675 275.241 590.675 Z" fill="#000000" fill-rule="nonzero" fill-opacity="1" /><path clip-path="url(#clip270)" d="M302.104 565.658 L302.104 552.226 L318.273 552.226 L318.273 565.658 L302.104 565.658 Z" fill="#000000" fill-rule="nonzero" fill-opacity="1" /><path clip-path="url(#clip270)" d="M267.029 443.818 Q269.003 434.588 275.241 429.432 Q281.479 424.212 290.646 424.212 Q304.714 424.212 312.417 433.888 Q320.119 443.564 320.119 461.388 Q320.119 467.371 318.91 473.737 Q317.764 480.039 315.409 486.787 L302.995 486.787 Q306.115 481.44 307.706 475.074 Q309.297 468.708 309.297 461.77 Q309.297 449.675 304.523 443.373 Q299.749 437.007 290.646 437.007 Q282.243 437.007 277.533 442.927 Q272.758 448.784 272.758 459.287 L272.758 470.363 L262.191 470.363 L262.191 458.778 Q262.191 449.293 258.435 444.264 Q254.616 439.235 247.486 439.235 Q240.166 439.235 236.283 444.455 Q232.336 449.611 232.336 459.287 Q232.336 464.571 233.482 470.618 Q234.628 476.665 237.047 483.922 L225.588 483.922 Q223.551 476.602 222.533 470.236 Q221.514 463.807 221.514 458.141 Q221.514 443.5 228.198 434.97 Q234.819 426.44 246.15 426.44 Q254.043 426.44 259.518 430.96 Q264.928 435.479 267.029 443.818 Z" fill="#000000" fill-rule="nonzero" fill-opacity="1" /><polyline clip-path="url(#clip272)" style="stroke:#008000; stroke-linecap:round; stroke-linejoin:round; stroke-width:8; stroke-opacity:1; fill:none" points="719.695,204.533 847.997,314.269 976.3,281.981 1104.6,511.799 1232.9,544.464 1361.21,608.924 1489.51,719.184 1617.81,817.359 1746.11,709.723 1874.42,919.027 2002.72,872.735 2131.02,926.242 2259.32,1095.83 "/>
<circle clip-path="url(#clip272)" cx="719.695" cy="204.533" r="14.4" fill="#008000" fill-rule="evenodd" fill-opacity="1" stroke="#000000" stroke-opacity="1" stroke-width="6.4"/>
<circle clip-path="url(#clip272)" cx="847.997" cy="314.269" r="14.4" fill="#008000" fill-rule="evenodd" fill-opacity="1" stroke="#000000" stroke-opacity="1" stroke-width="6.4"/>
<circle clip-path="url(#clip272)" cx="976.3" cy="281.981" r="14.4" fill="#008000" fill-rule="evenodd" fill-opacity="1" stroke="#000000" stroke-opacity="1" stroke-width="6.4"/>
<circle clip-path="url(#clip272)" cx="1104.6" cy="511.799" r="14.4" fill="#008000" fill-rule="evenodd" fill-opacity="1" stroke="#000000" stroke-opacity="1" stroke-width="6.4"/>
<circle clip-path="url(#clip272)" cx="1232.9" cy="544.464" r="14.4" fill="#008000" fill-rule="evenodd" fill-opacity="1" stroke="#000000" stroke-opacity="1" stroke-width="6.4"/>
<circle clip-path="url(#clip272)" cx="1361.21" cy="608.924" r="14.4" fill="#008000" fill-rule="evenodd" fill-opacity="1" stroke="#000000" stroke-opacity="1" stroke-width="6.4"/>
<circle clip-path="url(#clip272)" cx="1489.51" cy="719.184" r="14.4" fill="#008000" fill-rule="evenodd" fill-opacity="1" stroke="#000000" stroke-opacity="1" stroke-width="6.4"/>
<circle clip-path="url(#clip272)" cx="1617.81" cy="817.359" r="14.4" fill="#008000" fill-rule="evenodd" fill-opacity="1" stroke="#000000" stroke-opacity="1" stroke-width="6.4"/>
<circle clip-path="url(#clip272)" cx="1746.11" cy="709.723" r="14.4" fill="#008000" fill-rule="evenodd" fill-opacity="1" stroke="#000000" stroke-opacity="1" stroke-width="6.4"/>
<circle clip-path="url(#clip272)" cx="1874.42" cy="919.027" r="14.4" fill="#008000" fill-rule="evenodd" fill-opacity="1" stroke="#000000" stroke-opacity="1" stroke-width="6.4"/>
<circle clip-path="url(#clip272)" cx="2002.72" cy="872.735" r="14.4" fill="#008000" fill-rule="evenodd" fill-opacity="1" stroke="#000000" stroke-opacity="1" stroke-width="6.4"/>
<circle clip-path="url(#clip272)" cx="2131.02" cy="926.242" r="14.4" fill="#008000" fill-rule="evenodd" fill-opacity="1" stroke="#000000" stroke-opacity="1" stroke-width="6.4"/>
<circle clip-path="url(#clip272)" cx="2259.32" cy="1095.83" r="14.4" fill="#008000" fill-rule="evenodd" fill-opacity="1" stroke="#000000" stroke-opacity="1" stroke-width="6.4"/>
<polyline clip-path="url(#clip272)" style="stroke:#00008b; stroke-linecap:round; stroke-linejoin:round; stroke-width:8; stroke-opacity:1; fill:none" points="719.695,206.251 847.997,299.774 976.3,410.457 1104.6,512.202 1232.9,609.685 1361.21,695.34 1489.51,782.29 1617.81,857.088 1746.11,923.331 1874.42,989.487 2002.72,1051.03 2131.02,1111.37 2259.32,1162.03 "/>
<path clip-path="url(#clip272)" d="M719.695 283.634 L847.997 377.366 L976.3 483.211 L1104.6 587.112 L1232.9 688.269 L1361.21 774.105 L1489.51 861.156 L1617.81 936.294 L1746.11 1003.03 L1874.42 1069.6 L2002.72 1130.1 L2131.02 1189.68 L2259.32 1240.32 L2259.32 1080.45 L2131.02 1032.05 L2002.72 969.905 L1874.42 913.303 L1746.11 842.641 L1617.81 774.517 L1489.51 705.704 L1361.21 619.25 L1232.9 532.577 L1104.6 432.35 L976.3 334.322 L847.997 224.028 L719.695 127.862  Z" fill="#0000ff" fill-rule="evenodd" fill-opacity="0.1"/>
<polyline clip-path="url(#clip272)" style="stroke:#0000ff; stroke-linecap:round; stroke-linejoin:round; stroke-width:0; stroke-opacity:0.1; fill:none" points="719.695,283.634 847.997,377.366 976.3,483.211 1104.6,587.112 1232.9,688.269 1361.21,774.105 1489.51,861.156 1617.81,936.294 1746.11,1003.03 1874.42,1069.6 2002.72,1130.1 2131.02,1189.68 2259.32,1240.32 "/>
</svg>
