<?xml version="1.0" encoding="utf-8"?>
<svg xmlns="http://www.w3.org/2000/svg" xmlns:xlink="http://www.w3.org/1999/xlink" width="600" height="400" viewBox="0 0 2400 1600">
<defs>
  <clipPath id="clip430">
    <rect x="0" y="0" width="2400" height="1600"/>
  </clipPath>
</defs>
<path clip-path="url(#clip430)" d="M0 1600 L2400 1600 L2400 0 L0 0  Z" fill="#ffffff" fill-rule="evenodd" fill-opacity="1"/>
<defs>
  <clipPath id="clip431">
    <rect x="480" y="0" width="1681" height="1600"/>
  </clipPath>
</defs>
<path clip-path="url(#clip430)" d="M561.747 1273.7 L2305.51 1273.7 L2305.51 94.4882 L561.747 94.4882  Z" fill="#ffffff" fill-rule="evenodd" fill-opacity="1"/>
<defs>
  <clipPath id="clip432">
    <rect x="561" y="94" width="1745" height="1180"/>
  </clipPath>
</defs>
<polyline clip-path="url(#clip432)" style="stroke:#000000; stroke-linecap:round; stroke-linejoin:round; stroke-width:4; stroke-opacity:0.1; fill:none" points="611.099,1273.7 611.099,94.4882 "/>
<polyline clip-path="url(#clip432)" style="stroke:#000000; stroke-linecap:round; stroke-linejoin:round; stroke-width:4; stroke-opacity:0.1; fill:none" points="953.82,1273.7 953.82,94.4882 "/>
<polyline clip-path="url(#clip432)" style="stroke:#000000; stroke-linecap:round; stroke-linejoin:round; stroke-width:4; stroke-opacity:0.1; fill:none" points="1296.54,1273.7 1296.54,94.4882 "/>
<polyline clip-path="url(#clip432)" style="stroke:#000000; stroke-linecap:round; stroke-linejoin:round; stroke-width:4; stroke-opacity:0.1; fill:none" points="1639.26,1273.7 1639.26,94.4882 "/>
<polyline clip-path="url(#clip432)" style="stroke:#000000; stroke-linecap:round; stroke-linejoin:round; stroke-width:4; stroke-opacity:0.1; fill:none" points="1981.98,1273.7 1981.98,94.4882 "/>
<polyline clip-path="url(#clip430)" style="stroke:#000000; stroke-linecap:round; stroke-linejoin:round; stroke-width:8; stroke-opacity:1; fill:none" points="561.747,1273.7 2305.51,1273.7 "/>
<polyline clip-path="url(#clip430)" style="stroke:#000000; stroke-linecap:round; stroke-linejoin:round; stroke-width:8; stroke-opacity:1; fill:none" points="611.099,1273.7 611.099,1254.8 "/>
<polyline clip-path="url(#clip430)" style="stroke:#000000; stroke-linecap:round; stroke-linejoin:round; stroke-width:8; stroke-opacity:1; fill:none" points="953.82,1273.7 953.82,1254.8 "/>
<polyline clip-path="url(#clip430)" style="stroke:#000000; stroke-linecap:round; stroke-linejoin:round; stroke-width:8; stroke-opacity:1; fill:none" points="1296.54,1273.7 1296.54,1254.8 "/>
<polyline clip-path="url(#clip430)" style="stroke:#000000; stroke-linecap:round; stroke-linejoin:round; stroke-width:8; stroke-opacity:1; fill:none" points="1639.26,1273.7 1639.26,1254.8 "/>
<polyline clip-path="url(#clip430)" style="stroke:#000000; stroke-linecap:round; stroke-linejoin:round; stroke-width:8; stroke-opacity:1; fill:none" points="1981.98,1273.7 1981.98,1254.8 "/>
<path clip-path="url(#clip430)" d="M535.706 1316.33 Q528.484 1316.33 524.826 1323.46 Q521.215 1330.55 521.215 1344.81 Q521.215 1359.02 524.826 1366.15 Q528.484 1373.23 535.706 1373.23 Q542.974 1373.23 546.586 1366.15 Q550.243 1359.02 550.243 1344.81 Q550.243 1330.55 546.586 1323.46 Q542.974 1316.33 535.706 1316.33 M535.706 1308.93 Q547.326 1308.93 553.437 1318.14 Q559.595 1327.31 559.595 1344.81 Q559.595 1362.26 553.437 1371.47 Q547.326 1380.64 535.706 1380.64 Q524.086 1380.64 517.928 1371.47 Q511.817 1362.26 511.817 1344.81 Q511.817 1327.31 517.928 1318.14 Q524.086 1308.93 535.706 1308.93 Z" fill="#000000" fill-rule="nonzero" fill-opacity="1" /><path clip-path="url(#clip430)" d="M576.03 1367.54 L585.798 1367.54 L585.798 1379.3 L576.03 1379.3 L576.03 1367.54 Z" fill="#000000" fill-rule="nonzero" fill-opacity="1" /><path clip-path="url(#clip430)" d="M626.168 1316.33 Q618.946 1316.33 615.289 1323.46 Q611.678 1330.55 611.678 1344.81 Q611.678 1359.02 615.289 1366.15 Q618.946 1373.23 626.168 1373.23 Q633.437 1373.23 637.048 1366.15 Q640.705 1359.02 640.705 1344.81 Q640.705 1330.55 637.048 1323.46 Q633.437 1316.33 626.168 1316.33 M626.168 1308.93 Q637.789 1308.93 643.9 1318.14 Q650.057 1327.31 650.057 1344.81 Q650.057 1362.26 643.9 1371.47 Q637.789 1380.64 626.168 1380.64 Q614.548 1380.64 608.391 1371.47 Q602.28 1362.26 602.28 1344.81 Q602.28 1327.31 608.391 1318.14 Q614.548 1308.93 626.168 1308.93 Z" fill="#000000" fill-rule="nonzero" fill-opacity="1" /><path clip-path="url(#clip430)" d="M686.492 1316.33 Q679.27 1316.33 675.613 1323.46 Q672.002 1330.55 672.002 1344.81 Q672.002 1359.02 675.613 1366.15 Q679.27 1373.23 686.492 1373.23 Q693.761 1373.23 697.372 1366.15 Q701.029 1359.02 701.029 1344.81 Q701.029 1330.55 697.372 1323.46 Q693.761 1316.33 686.492 1316.33 M686.492 1308.93 Q698.113 1308.93 704.224 1318.14 Q710.381 1327.31 710.381 1344.81 Q710.381 1362.26 704.224 1371.47 Q698.113 1380.64 686.492 1380.64 Q674.872 1380.64 668.715 1371.47 Q662.603 1362.26 662.603 1344.81 Q662.603 1327.31 668.715 1318.14 Q674.872 1308.93 686.492 1308.93 Z" fill="#000000" fill-rule="nonzero" fill-opacity="1" /><path clip-path="url(#clip430)" d="M879.422 1316.33 Q872.2 1316.33 868.543 1323.46 Q864.932 1330.55 864.932 1344.81 Q864.932 1359.02 868.543 1366.15 Q872.2 1373.23 879.422 1373.23 Q886.691 1373.23 890.302 1366.15 Q893.959 1359.02 893.959 1344.81 Q893.959 1330.55 890.302 1323.46 Q886.691 1316.33 879.422 1316.33 M879.422 1308.93 Q891.043 1308.93 897.154 1318.14 Q903.311 1327.31 903.311 1344.81 Q903.311 1362.26 897.154 1371.47 Q891.043 1380.64 879.422 1380.64 Q867.802 1380.64 861.645 1371.47 Q855.534 1362.26 855.534 1344.81 Q855.534 1327.31 861.645 1318.14 Q867.802 1308.93 879.422 1308.93 Z" fill="#000000" fill-rule="nonzero" fill-opacity="1" /><path clip-path="url(#clip430)" d="M919.746 1367.54 L929.515 1367.54 L929.515 1379.3 L919.746 1379.3 L919.746 1367.54 Z" fill="#000000" fill-rule="nonzero" fill-opacity="1" /><path clip-path="url(#clip430)" d="M957.94 1371.43 L990.579 1371.43 L990.579 1379.3 L946.691 1379.3 L946.691 1371.43 Q952.015 1365.92 961.181 1356.66 Q970.394 1347.35 972.755 1344.67 Q977.246 1339.62 979.005 1336.15 Q980.811 1332.63 980.811 1329.25 Q980.811 1323.74 976.922 1320.27 Q973.079 1316.8 966.876 1316.8 Q962.478 1316.8 957.57 1318.32 Q952.709 1319.85 947.154 1322.95 L947.154 1313.51 Q952.802 1311.24 957.709 1310.08 Q962.616 1308.93 966.69 1308.93 Q977.431 1308.93 983.82 1314.3 Q990.209 1319.67 990.209 1328.65 Q990.209 1332.91 988.588 1336.75 Q987.014 1340.55 982.801 1345.73 Q981.644 1347.07 975.44 1353.51 Q969.237 1359.9 957.94 1371.43 Z" fill="#000000" fill-rule="nonzero" fill-opacity="1" /><path clip-path="url(#clip430)" d="M1010.3 1310.18 L1047.01 1310.18 L1047.01 1318.05 L1018.87 1318.05 L1018.87 1334.99 Q1020.9 1334.3 1022.94 1333.97 Q1024.98 1333.6 1027.01 1333.6 Q1038.59 1333.6 1045.35 1339.94 Q1052.11 1346.29 1052.11 1357.12 Q1052.11 1368.28 1045.16 1374.48 Q1038.22 1380.64 1025.58 1380.64 Q1021.23 1380.64 1016.69 1379.9 Q1012.2 1379.16 1007.38 1377.68 L1007.38 1368.28 Q1011.55 1370.55 1016 1371.66 Q1020.44 1372.77 1025.39 1372.77 Q1033.4 1372.77 1038.08 1368.56 Q1042.75 1364.34 1042.75 1357.12 Q1042.75 1349.9 1038.08 1345.68 Q1033.4 1341.47 1025.39 1341.47 Q1021.64 1341.47 1017.89 1342.31 Q1014.19 1343.14 1010.3 1344.9 L1010.3 1310.18 Z" fill="#000000" fill-rule="nonzero" fill-opacity="1" /><path clip-path="url(#clip430)" d="M1221.15 1316.33 Q1213.93 1316.33 1210.27 1323.46 Q1206.66 1330.55 1206.66 1344.81 Q1206.66 1359.02 1210.27 1366.15 Q1213.93 1373.23 1221.15 1373.23 Q1228.42 1373.23 1232.03 1366.15 Q1235.68 1359.02 1235.68 1344.81 Q1235.68 1330.55 1232.03 1323.46 Q1228.42 1316.33 1221.15 1316.33 M1221.15 1308.93 Q1232.77 1308.93 1238.88 1318.14 Q1245.04 1327.31 1245.04 1344.81 Q1245.04 1362.26 1238.88 1371.47 Q1232.77 1380.64 1221.15 1380.64 Q1209.53 1380.64 1203.37 1371.47 Q1197.26 1362.26 1197.26 1344.81 Q1197.26 1327.31 1203.37 1318.14 Q1209.53 1308.93 1221.15 1308.93 Z" fill="#000000" fill-rule="nonzero" fill-opacity="1" /><path clip-path="url(#clip430)" d="M1261.47 1367.54 L1271.24 1367.54 L1271.24 1379.3 L1261.47 1379.3 L1261.47 1367.54 Z" fill="#000000" fill-rule="nonzero" fill-opacity="1" /><path clip-path="url(#clip430)" d="M1291.7 1310.18 L1328.42 1310.18 L1328.42 1318.05 L1300.27 1318.05 L1300.27 1334.99 Q1302.31 1334.3 1304.34 1333.97 Q1306.38 1333.6 1308.42 1333.6 Q1319.99 1333.6 1326.75 1339.94 Q1333.51 1346.29 1333.51 1357.12 Q1333.51 1368.28 1326.56 1374.48 Q1319.62 1380.64 1306.98 1380.64 Q1302.63 1380.64 1298.09 1379.9 Q1293.6 1379.16 1288.79 1377.68 L1288.79 1368.28 Q1292.95 1370.55 1297.4 1371.66 Q1301.84 1372.77 1306.8 1372.77 Q1314.8 1372.77 1319.48 1368.56 Q1324.16 1364.34 1324.16 1357.12 Q1324.16 1349.9 1319.48 1345.68 Q1314.8 1341.47 1306.8 1341.47 Q1303.05 1341.47 1299.3 1342.31 Q1295.59 1343.14 1291.7 1344.9 L1291.7 1310.18 Z" fill="#000000" fill-rule="nonzero" fill-opacity="1" /><path clip-path="url(#clip430)" d="M1371.93 1316.33 Q1364.71 1316.33 1361.05 1323.46 Q1357.44 1330.55 1357.44 1344.81 Q1357.44 1359.02 1361.05 1366.15 Q1364.71 1373.23 1371.93 1373.23 Q1379.2 1373.23 1382.81 1366.15 Q1386.47 1359.02 1386.47 1344.81 Q1386.47 1330.55 1382.81 1323.46 Q1379.2 1316.33 1371.93 1316.33 M1371.93 1308.93 Q1383.55 1308.93 1389.67 1318.14 Q1395.82 1327.31 1395.82 1344.81 Q1395.82 1362.26 1389.67 1371.47 Q1383.55 1380.64 1371.93 1380.64 Q1360.31 1380.64 1354.16 1371.47 Q1348.05 1362.26 1348.05 1344.81 Q1348.05 1327.31 1354.16 1318.14 Q1360.31 1308.93 1371.93 1308.93 Z" fill="#000000" fill-rule="nonzero" fill-opacity="1" /><path clip-path="url(#clip430)" d="M1564.86 1316.33 Q1557.64 1316.33 1553.98 1323.46 Q1550.37 1330.55 1550.37 1344.81 Q1550.37 1359.02 1553.98 1366.15 Q1557.64 1373.23 1564.86 1373.23 Q1572.13 1373.23 1575.74 1366.15 Q1579.4 1359.02 1579.4 1344.81 Q1579.4 1330.55 1575.74 1323.46 Q1572.13 1316.33 1564.86 1316.33 M1564.86 1308.93 Q1576.48 1308.93 1582.6 1318.14 Q1588.75 1327.31 1588.75 1344.81 Q1588.75 1362.26 1582.6 1371.47 Q1576.48 1380.64 1564.86 1380.64 Q1553.24 1380.64 1547.09 1371.47 Q1540.98 1362.26 1540.98 1344.81 Q1540.98 1327.31 1547.09 1318.14 Q1553.24 1308.93 1564.86 1308.93 Z" fill="#000000" fill-rule="nonzero" fill-opacity="1" /><path clip-path="url(#clip430)" d="M1605.19 1367.54 L1614.96 1367.54 L1614.96 1379.3 L1605.19 1379.3 L1605.19 1367.54 Z" fill="#000000" fill-rule="nonzero" fill-opacity="1" /><path clip-path="url(#clip430)" d="M1632.97 1310.18 L1677.41 1310.18 L1677.41 1314.16 L1652.32 1379.3 L1642.55 1379.3 L1666.16 1318.05 L1632.97 1318.05 L1632.97 1310.18 Z" fill="#000000" fill-rule="nonzero" fill-opacity="1" /><path clip-path="url(#clip430)" d="M1695.74 1310.18 L1732.46 1310.18 L1732.46 1318.05 L1704.31 1318.05 L1704.31 1334.99 Q1706.35 1334.3 1708.38 1333.97 Q1710.42 1333.6 1712.46 1333.6 Q1724.03 1333.6 1730.79 1339.94 Q1737.55 1346.29 1737.55 1357.12 Q1737.55 1368.28 1730.6 1374.48 Q1723.66 1380.64 1711.02 1380.64 Q1706.67 1380.64 1702.13 1379.9 Q1697.64 1379.16 1692.83 1377.68 L1692.83 1368.28 Q1696.99 1370.55 1701.44 1371.66 Q1705.88 1372.77 1710.84 1372.77 Q1718.85 1372.77 1723.52 1368.56 Q1728.2 1364.34 1728.2 1357.12 Q1728.2 1349.9 1723.52 1345.68 Q1718.85 1341.47 1710.84 1341.47 Q1707.09 1341.47 1703.34 1342.31 Q1699.63 1343.14 1695.74 1344.9 L1695.74 1310.18 Z" fill="#000000" fill-rule="nonzero" fill-opacity="1" /><path clip-path="url(#clip430)" d="M1886.13 1371.43 L1901.4 1371.43 L1901.4 1318.69 L1884.78 1322.03 L1884.78 1313.51 L1901.31 1310.18 L1910.66 1310.18 L1910.66 1371.43 L1925.94 1371.43 L1925.94 1379.3 L1886.13 1379.3 L1886.13 1371.43 Z" fill="#000000" fill-rule="nonzero" fill-opacity="1" /><path clip-path="url(#clip430)" d="M1944.83 1367.54 L1954.6 1367.54 L1954.6 1379.3 L1944.83 1379.3 L1944.83 1367.54 Z" fill="#000000" fill-rule="nonzero" fill-opacity="1" /><path clip-path="url(#clip430)" d="M1994.97 1316.33 Q1987.75 1316.33 1984.09 1323.46 Q1980.48 1330.55 1980.48 1344.81 Q1980.48 1359.02 1984.09 1366.15 Q1987.75 1373.23 1994.97 1373.23 Q2002.24 1373.23 2005.85 1366.15 Q2009.51 1359.02 2009.51 1344.81 Q2009.51 1330.55 2005.85 1323.46 Q2002.24 1316.33 1994.97 1316.33 M1994.97 1308.93 Q2006.59 1308.93 2012.7 1318.14 Q2018.86 1327.31 2018.86 1344.81 Q2018.86 1362.26 2012.7 1371.47 Q2006.59 1380.64 1994.97 1380.64 Q1983.35 1380.64 1977.19 1371.47 Q1971.08 1362.26 1971.08 1344.81 Q1971.08 1327.31 1977.19 1318.14 Q1983.35 1308.93 1994.97 1308.93 Z" fill="#000000" fill-rule="nonzero" fill-opacity="1" /><path clip-path="url(#clip430)" d="M2055.29 1316.33 Q2048.07 1316.33 2044.41 1323.46 Q2040.8 1330.55 2040.8 1344.81 Q2040.8 1359.02 2044.41 1366.15 Q2048.07 1373.23 2055.29 1373.23 Q2062.56 1373.23 2066.17 1366.15 Q2069.83 1359.02 2069.83 1344.81 Q2069.83 1330.55 2066.17 1323.46 Q2062.56 1316.33 2055.29 1316.33 M2055.29 1308.93 Q2066.91 1308.93 2073.02 1318.14 Q2079.18 1327.31 2079.18 1344.81 Q2079.18 1362.26 2073.02 1371.47 Q2066.91 1380.64 2055.29 1380.64 Q2043.67 1380.64 2037.52 1371.47 Q2031.4 1362.26 2031.4 1344.81 Q2031.4 1327.31 2037.52 1318.14 Q2043.67 1308.93 2055.29 1308.93 Z" fill="#000000" fill-rule="nonzero" fill-opacity="1" /><path clip-path="url(#clip430)" d="M1319.17 1484.39 L1319.17 1527.42 L1307.46 1527.42 L1307.46 1484.77 Q1307.46 1474.65 1303.51 1469.62 Q1299.57 1464.59 1291.67 1464.59 Q1282.19 1464.59 1276.71 1470.64 Q1271.24 1476.69 1271.24 1487.13 L1271.24 1527.42 L1259.46 1527.42 L1259.46 1428.37 L1271.24 1428.37 L1271.24 1467.2 Q1275.44 1460.77 1281.11 1457.59 Q1286.84 1454.41 1294.28 1454.41 Q1306.57 1454.41 1312.87 1462.05 Q1319.17 1469.62 1319.17 1484.39 Z" fill="#000000" fill-rule="nonzero" fill-opacity="1" /><path clip-path="url(#clip430)" d="M1370.16 1464.34 Q1360.74 1464.34 1355.27 1471.72 Q1349.79 1479.04 1349.79 1491.84 Q1349.79 1504.63 1355.2 1512.02 Q1360.68 1519.34 1370.16 1519.34 Q1379.52 1519.34 1385 1511.96 Q1390.47 1504.57 1390.47 1491.84 Q1390.47 1479.17 1385 1471.79 Q1379.52 1464.34 1370.16 1464.34 M1370.16 1454.41 Q1385.44 1454.41 1394.16 1464.34 Q1402.88 1474.27 1402.88 1491.84 Q1402.88 1509.35 1394.16 1519.34 Q1385.44 1529.27 1370.16 1529.27 Q1354.82 1529.27 1346.1 1519.34 Q1337.44 1509.35 1337.44 1491.84 Q1337.44 1474.27 1346.1 1464.34 Q1354.82 1454.41 1370.16 1454.41 Z" fill="#000000" fill-rule="nonzero" fill-opacity="1" /><path clip-path="url(#clip430)" d="M1421.09 1499.29 L1421.09 1456.13 L1432.8 1456.13 L1432.8 1498.84 Q1432.8 1508.96 1436.75 1514.06 Q1440.7 1519.08 1448.59 1519.08 Q1458.07 1519.08 1463.55 1513.04 Q1469.09 1506.99 1469.09 1496.55 L1469.09 1456.13 L1480.8 1456.13 L1480.8 1527.42 L1469.09 1527.42 L1469.09 1516.47 Q1464.82 1522.97 1459.16 1526.15 Q1453.55 1529.27 1446.11 1529.27 Q1433.82 1529.27 1427.45 1521.63 Q1421.09 1513.99 1421.09 1499.29 M1450.56 1454.41 L1450.56 1454.41 Z" fill="#000000" fill-rule="nonzero" fill-opacity="1" /><path clip-path="url(#clip430)" d="M1546.24 1467.08 Q1544.27 1465.93 1541.91 1465.42 Q1539.62 1464.85 1536.82 1464.85 Q1526.89 1464.85 1521.54 1471.34 Q1516.26 1477.77 1516.26 1489.87 L1516.26 1527.42 L1504.48 1527.42 L1504.48 1456.13 L1516.26 1456.13 L1516.26 1467.2 Q1519.95 1460.71 1525.87 1457.59 Q1531.79 1454.41 1540.26 1454.41 Q1541.46 1454.41 1542.93 1454.6 Q1544.39 1454.73 1546.18 1455.05 L1546.24 1467.08 Z" fill="#000000" fill-rule="nonzero" fill-opacity="1" /><path clip-path="url(#clip430)" d="M1603.98 1458.23 L1603.98 1469.3 Q1599.01 1466.76 1593.66 1465.49 Q1588.32 1464.21 1582.59 1464.21 Q1573.87 1464.21 1569.47 1466.89 Q1565.15 1469.56 1565.15 1474.91 Q1565.15 1478.98 1568.26 1481.34 Q1571.38 1483.63 1580.8 1485.73 L1584.82 1486.62 Q1597.29 1489.29 1602.51 1494.19 Q1607.8 1499.03 1607.8 1507.75 Q1607.8 1517.68 1599.9 1523.48 Q1592.07 1529.27 1578.32 1529.27 Q1572.59 1529.27 1566.35 1528.12 Q1560.18 1527.04 1553.3 1524.81 L1553.3 1512.72 Q1559.8 1516.09 1566.1 1517.81 Q1572.4 1519.47 1578.58 1519.47 Q1586.85 1519.47 1591.31 1516.67 Q1595.76 1513.8 1595.76 1508.64 Q1595.76 1503.87 1592.52 1501.32 Q1589.33 1498.78 1578.45 1496.42 L1574.38 1495.47 Q1563.49 1493.18 1558.65 1488.47 Q1553.81 1483.69 1553.81 1475.42 Q1553.81 1465.36 1560.94 1459.88 Q1568.07 1454.41 1581.19 1454.41 Q1587.68 1454.41 1593.41 1455.36 Q1599.14 1456.32 1603.98 1458.23 Z" fill="#000000" fill-rule="nonzero" fill-opacity="1" /><polyline clip-path="url(#clip432)" style="stroke:#000000; stroke-linecap:round; stroke-linejoin:round; stroke-width:4; stroke-opacity:0.1; fill:none" points="561.747,1226.13 2305.51,1226.13 "/>
<polyline clip-path="url(#clip432)" style="stroke:#000000; stroke-linecap:round; stroke-linejoin:round; stroke-width:4; stroke-opacity:0.1; fill:none" points="561.747,1007.67 2305.51,1007.67 "/>
<polyline clip-path="url(#clip432)" style="stroke:#000000; stroke-linecap:round; stroke-linejoin:round; stroke-width:4; stroke-opacity:0.1; fill:none" points="561.747,789.216 2305.51,789.216 "/>
<polyline clip-path="url(#clip432)" style="stroke:#000000; stroke-linecap:round; stroke-linejoin:round; stroke-width:4; stroke-opacity:0.1; fill:none" points="561.747,570.762 2305.51,570.762 "/>
<polyline clip-path="url(#clip432)" style="stroke:#000000; stroke-linecap:round; stroke-linejoin:round; stroke-width:4; stroke-opacity:0.1; fill:none" points="561.747,352.308 2305.51,352.308 "/>
<polyline clip-path="url(#clip432)" style="stroke:#000000; stroke-linecap:round; stroke-linejoin:round; stroke-width:4; stroke-opacity:0.1; fill:none" points="561.747,133.853 2305.51,133.853 "/>
<polyline clip-path="url(#clip430)" style="stroke:#000000; stroke-linecap:round; stroke-linejoin:round; stroke-width:8; stroke-opacity:1; fill:none" points="561.747,1273.7 561.747,94.4882 "/>
<polyline clip-path="url(#clip430)" style="stroke:#000000; stroke-linecap:round; stroke-linejoin:round; stroke-width:8; stroke-opacity:1; fill:none" points="561.747,1226.13 580.645,1226.13 "/>
<polyline clip-path="url(#clip430)" style="stroke:#000000; stroke-linecap:round; stroke-linejoin:round; stroke-width:8; stroke-opacity:1; fill:none" points="561.747,1007.67 580.645,1007.67 "/>
<polyline clip-path="url(#clip430)" style="stroke:#000000; stroke-linecap:round; stroke-linejoin:round; stroke-width:8; stroke-opacity:1; fill:none" points="561.747,789.216 580.645,789.216 "/>
<polyline clip-path="url(#clip430)" style="stroke:#000000; stroke-linecap:round; stroke-linejoin:round; stroke-width:8; stroke-opacity:1; fill:none" points="561.747,570.762 580.645,570.762 "/>
<polyline clip-path="url(#clip430)" style="stroke:#000000; stroke-linecap:round; stroke-linejoin:round; stroke-width:8; stroke-opacity:1; fill:none" points="561.747,352.308 580.645,352.308 "/>
<polyline clip-path="url(#clip430)" style="stroke:#000000; stroke-linecap:round; stroke-linejoin:round; stroke-width:8; stroke-opacity:1; fill:none" points="561.747,133.853 580.645,133.853 "/>
<path clip-path="url(#clip430)" d="M352.23 1222.4 Q345.933 1222.4 342.23 1226.7 Q338.572 1231.01 338.572 1238.51 Q338.572 1245.96 342.23 1250.31 Q345.933 1254.62 352.23 1254.62 Q358.526 1254.62 362.183 1250.31 Q365.887 1245.96 365.887 1238.51 Q365.887 1231.01 362.183 1226.7 Q358.526 1222.4 352.23 1222.4 M370.794 1193.09 L370.794 1201.61 Q367.276 1199.94 363.665 1199.06 Q360.1 1198.19 356.582 1198.19 Q347.322 1198.19 342.415 1204.44 Q337.554 1210.69 336.859 1223.32 Q339.591 1219.3 343.711 1217.17 Q347.832 1214.99 352.785 1214.99 Q363.202 1214.99 369.22 1221.33 Q375.285 1227.63 375.285 1238.51 Q375.285 1249.16 368.989 1255.59 Q362.693 1262.03 352.23 1262.03 Q340.239 1262.03 333.896 1252.86 Q327.554 1243.65 327.554 1226.19 Q327.554 1209.81 335.332 1200.08 Q343.109 1190.32 356.211 1190.32 Q359.73 1190.32 363.294 1191.01 Q366.906 1191.7 370.794 1193.09 Z" fill="#000000" fill-rule="nonzero" fill-opacity="1" /><path clip-path="url(#clip430)" d="M391.489 1191.57 L428.202 1191.57 L428.202 1199.44 L400.054 1199.44 L400.054 1216.38 Q402.091 1215.69 404.128 1215.36 Q406.165 1214.99 408.202 1214.99 Q419.776 1214.99 426.535 1221.33 Q433.294 1227.68 433.294 1238.51 Q433.294 1249.67 426.35 1255.87 Q419.405 1262.03 406.766 1262.03 Q402.415 1262.03 397.878 1261.29 Q393.387 1260.55 388.572 1259.06 L388.572 1249.67 Q392.739 1251.94 397.183 1253.05 Q401.628 1254.16 406.581 1254.16 Q414.59 1254.16 419.266 1249.94 Q423.942 1245.73 423.942 1238.51 Q423.942 1231.29 419.266 1227.07 Q414.59 1222.86 406.581 1222.86 Q402.831 1222.86 399.081 1223.69 Q395.378 1224.53 391.489 1226.29 L391.489 1191.57 Z" fill="#000000" fill-rule="nonzero" fill-opacity="1" /><path clip-path="url(#clip430)" d="M451.72 1248.93 L461.488 1248.93 L461.488 1260.69 L451.72 1260.69 L451.72 1248.93 Z" fill="#000000" fill-rule="nonzero" fill-opacity="1" /><path clip-path="url(#clip430)" d="M501.859 1197.72 Q494.636 1197.72 490.979 1204.85 Q487.368 1211.94 487.368 1226.19 Q487.368 1240.41 490.979 1247.54 Q494.636 1254.62 501.859 1254.62 Q509.127 1254.62 512.738 1247.54 Q516.396 1240.41 516.396 1226.19 Q516.396 1211.94 512.738 1204.85 Q509.127 1197.72 501.859 1197.72 M501.859 1190.32 Q513.479 1190.32 519.59 1199.53 Q525.747 1208.69 525.747 1226.19 Q525.747 1243.65 519.59 1252.86 Q513.479 1262.03 501.859 1262.03 Q490.238 1262.03 484.081 1252.86 Q477.97 1243.65 477.97 1226.19 Q477.97 1208.69 484.081 1199.53 Q490.238 1190.32 501.859 1190.32 Z" fill="#000000" fill-rule="nonzero" fill-opacity="1" /><path clip-path="url(#clip430)" d="M328.711 973.111 L373.156 973.111 L373.156 977.092 L348.063 1042.23 L338.295 1042.23 L361.906 980.981 L328.711 980.981 L328.711 973.111 Z" fill="#000000" fill-rule="nonzero" fill-opacity="1" /><path clip-path="url(#clip430)" d="M411.396 979.268 Q404.174 979.268 400.516 986.398 Q396.905 993.481 396.905 1007.74 Q396.905 1021.95 400.516 1029.08 Q404.174 1036.17 411.396 1036.17 Q418.665 1036.17 422.276 1029.08 Q425.933 1021.95 425.933 1007.74 Q425.933 993.481 422.276 986.398 Q418.665 979.268 411.396 979.268 M411.396 971.861 Q423.016 971.861 429.127 981.074 Q435.285 990.24 435.285 1007.74 Q435.285 1025.19 429.127 1034.41 Q423.016 1043.57 411.396 1043.57 Q399.776 1043.57 393.618 1034.41 Q387.507 1025.19 387.507 1007.74 Q387.507 990.24 393.618 981.074 Q399.776 971.861 411.396 971.861 Z" fill="#000000" fill-rule="nonzero" fill-opacity="1" /><path clip-path="url(#clip430)" d="M451.72 1030.47 L461.488 1030.47 L461.488 1042.23 L451.72 1042.23 L451.72 1030.47 Z" fill="#000000" fill-rule="nonzero" fill-opacity="1" /><path clip-path="url(#clip430)" d="M501.859 979.268 Q494.636 979.268 490.979 986.398 Q487.368 993.481 487.368 1007.74 Q487.368 1021.95 490.979 1029.08 Q494.636 1036.17 501.859 1036.17 Q509.127 1036.17 512.738 1029.08 Q516.396 1021.95 516.396 1007.74 Q516.396 993.481 512.738 986.398 Q509.127 979.268 501.859 979.268 M501.859 971.861 Q513.479 971.861 519.59 981.074 Q525.747 990.24 525.747 1007.74 Q525.747 1025.19 519.59 1034.41 Q513.479 1043.57 501.859 1043.57 Q490.238 1043.57 484.081 1034.41 Q477.97 1025.19 477.97 1007.74 Q477.97 990.24 484.081 981.074 Q490.238 971.861 501.859 971.861 Z" fill="#000000" fill-rule="nonzero" fill-opacity="1" /><path clip-path="url(#clip430)" d="M328.711 754.656 L373.156 754.656 L373.156 758.638 L348.063 823.776 L338.295 823.776 L361.906 762.527 L328.711 762.527 L328.711 754.656 Z" fill="#000000" fill-rule="nonzero" fill-opacity="1" /><path clip-path="url(#clip430)" d="M391.489 754.656 L428.202 754.656 L428.202 762.527 L400.054 762.527 L400.054 779.471 Q402.091 778.777 404.128 778.452 Q406.165 778.082 408.202 778.082 Q419.776 778.082 426.535 784.425 Q433.294 790.767 433.294 801.601 Q433.294 812.758 426.35 818.962 Q419.405 825.119 406.766 825.119 Q402.415 825.119 397.878 824.378 Q393.387 823.637 388.572 822.156 L388.572 812.758 Q392.739 815.026 397.183 816.137 Q401.628 817.249 406.581 817.249 Q414.59 817.249 419.266 813.036 Q423.942 808.823 423.942 801.601 Q423.942 794.378 419.266 790.165 Q414.59 785.952 406.581 785.952 Q402.831 785.952 399.081 786.786 Q395.378 787.619 391.489 789.378 L391.489 754.656 Z" fill="#000000" fill-rule="nonzero" fill-opacity="1" /><path clip-path="url(#clip430)" d="M451.72 812.017 L461.488 812.017 L461.488 823.776 L451.72 823.776 L451.72 812.017 Z" fill="#000000" fill-rule="nonzero" fill-opacity="1" /><path clip-path="url(#clip430)" d="M501.859 760.814 Q494.636 760.814 490.979 767.943 Q487.368 775.027 487.368 789.286 Q487.368 803.499 490.979 810.628 Q494.636 817.712 501.859 817.712 Q509.127 817.712 512.738 810.628 Q516.396 803.499 516.396 789.286 Q516.396 775.027 512.738 767.943 Q509.127 760.814 501.859 760.814 M501.859 753.406 Q513.479 753.406 519.59 762.619 Q525.747 771.786 525.747 789.286 Q525.747 806.739 519.59 815.952 Q513.479 825.119 501.859 825.119 Q490.238 825.119 484.081 815.952 Q477.97 806.739 477.97 789.286 Q477.97 771.786 484.081 762.619 Q490.238 753.406 501.859 753.406 Z" fill="#000000" fill-rule="nonzero" fill-opacity="1" /><path clip-path="url(#clip430)" d="M351.072 572.498 Q344.406 572.498 340.563 576.063 Q336.767 579.628 336.767 585.878 Q336.767 592.128 340.563 595.692 Q344.406 599.257 351.072 599.257 Q357.739 599.257 361.582 595.692 Q365.424 592.081 365.424 585.878 Q365.424 579.628 361.582 576.063 Q357.785 572.498 351.072 572.498 M341.721 568.517 Q335.702 567.035 332.322 562.915 Q328.989 558.794 328.989 552.869 Q328.989 544.582 334.869 539.767 Q340.795 534.952 351.072 534.952 Q361.396 534.952 367.276 539.767 Q373.156 544.582 373.156 552.869 Q373.156 558.794 369.776 562.915 Q366.443 567.035 360.47 568.517 Q367.23 570.091 370.98 574.674 Q374.776 579.257 374.776 585.878 Q374.776 595.924 368.619 601.294 Q362.507 606.665 351.072 606.665 Q339.637 606.665 333.48 601.294 Q327.369 595.924 327.369 585.878 Q327.369 579.257 331.165 574.674 Q334.961 570.091 341.721 568.517 M338.295 553.748 Q338.295 559.118 341.628 562.128 Q345.008 565.137 351.072 565.137 Q357.091 565.137 360.47 562.128 Q363.896 559.118 363.896 553.748 Q363.896 548.378 360.47 545.369 Q357.091 542.359 351.072 542.359 Q345.008 542.359 341.628 545.369 Q338.295 548.378 338.295 553.748 Z" fill="#000000" fill-rule="nonzero" fill-opacity="1" /><path clip-path="url(#clip430)" d="M411.396 542.359 Q404.174 542.359 400.516 549.489 Q396.905 556.572 396.905 570.831 Q396.905 585.044 400.516 592.174 Q404.174 599.257 411.396 599.257 Q418.665 599.257 422.276 592.174 Q425.933 585.044 425.933 570.831 Q425.933 556.572 422.276 549.489 Q418.665 542.359 411.396 542.359 M411.396 534.952 Q423.016 534.952 429.127 544.165 Q435.285 553.331 435.285 570.831 Q435.285 588.285 429.127 597.498 Q423.016 606.665 411.396 606.665 Q399.776 606.665 393.618 597.498 Q387.507 588.285 387.507 570.831 Q387.507 553.331 393.618 544.165 Q399.776 534.952 411.396 534.952 Z" fill="#000000" fill-rule="nonzero" fill-opacity="1" /><path clip-path="url(#clip430)" d="M451.72 593.563 L461.488 593.563 L461.488 605.322 L451.72 605.322 L451.72 593.563 Z" fill="#000000" fill-rule="nonzero" fill-opacity="1" /><path clip-path="url(#clip430)" d="M501.859 542.359 Q494.636 542.359 490.979 549.489 Q487.368 556.572 487.368 570.831 Q487.368 585.044 490.979 592.174 Q494.636 599.257 501.859 599.257 Q509.127 599.257 512.738 592.174 Q516.396 585.044 516.396 570.831 Q516.396 556.572 512.738 549.489 Q509.127 542.359 501.859 542.359 M501.859 534.952 Q513.479 534.952 519.59 544.165 Q525.747 553.331 525.747 570.831 Q525.747 588.285 519.59 597.498 Q513.479 606.665 501.859 606.665 Q490.238 606.665 484.081 597.498 Q477.97 588.285 477.97 570.831 Q477.97 553.331 484.081 544.165 Q490.238 534.952 501.859 534.952 Z" fill="#000000" fill-rule="nonzero" fill-opacity="1" /><path clip-path="url(#clip430)" d="M351.072 354.044 Q344.406 354.044 340.563 357.608 Q336.767 361.173 336.767 367.423 Q336.767 373.673 340.563 377.238 Q344.406 380.803 351.072 380.803 Q357.739 380.803 361.582 377.238 Q365.424 373.627 365.424 367.423 Q365.424 361.173 361.582 357.608 Q357.785 354.044 351.072 354.044 M341.721 350.062 Q335.702 348.581 332.322 344.46 Q328.989 340.34 328.989 334.414 Q328.989 326.127 334.869 321.312 Q340.795 316.498 351.072 316.498 Q361.396 316.498 367.276 321.312 Q373.156 326.127 373.156 334.414 Q373.156 340.34 369.776 344.46 Q366.443 348.581 360.47 350.062 Q367.23 351.636 370.98 356.22 Q374.776 360.803 374.776 367.423 Q374.776 377.469 368.619 382.84 Q362.507 388.21 351.072 388.21 Q339.637 388.21 333.48 382.84 Q327.369 377.469 327.369 367.423 Q327.369 360.803 331.165 356.22 Q334.961 351.636 341.721 350.062 M338.295 335.294 Q338.295 340.664 341.628 343.673 Q345.008 346.683 351.072 346.683 Q357.091 346.683 360.47 343.673 Q363.896 340.664 363.896 335.294 Q363.896 329.923 360.47 326.914 Q357.091 323.905 351.072 323.905 Q345.008 323.905 341.628 326.914 Q338.295 329.923 338.295 335.294 Z" fill="#000000" fill-rule="nonzero" fill-opacity="1" /><path clip-path="url(#clip430)" d="M391.489 317.748 L428.202 317.748 L428.202 325.618 L400.054 325.618 L400.054 342.562 Q402.091 341.868 404.128 341.544 Q406.165 341.173 408.202 341.173 Q419.776 341.173 426.535 347.516 Q433.294 353.858 433.294 364.692 Q433.294 375.849 426.35 382.053 Q419.405 388.21 406.766 388.21 Q402.415 388.21 397.878 387.469 Q393.387 386.729 388.572 385.247 L388.572 375.849 Q392.739 378.118 397.183 379.229 Q401.628 380.34 406.581 380.34 Q414.59 380.34 419.266 376.127 Q423.942 371.914 423.942 364.692 Q423.942 357.47 419.266 353.257 Q414.59 349.044 406.581 349.044 Q402.831 349.044 399.081 349.877 Q395.378 350.71 391.489 352.47 L391.489 317.748 Z" fill="#000000" fill-rule="nonzero" fill-opacity="1" /><path clip-path="url(#clip430)" d="M451.72 375.108 L461.488 375.108 L461.488 386.868 L451.72 386.868 L451.72 375.108 Z" fill="#000000" fill-rule="nonzero" fill-opacity="1" /><path clip-path="url(#clip430)" d="M501.859 323.905 Q494.636 323.905 490.979 331.035 Q487.368 338.118 487.368 352.377 Q487.368 366.59 490.979 373.719 Q494.636 380.803 501.859 380.803 Q509.127 380.803 512.738 373.719 Q516.396 366.59 516.396 352.377 Q516.396 338.118 512.738 331.035 Q509.127 323.905 501.859 323.905 M501.859 316.498 Q513.479 316.498 519.59 325.71 Q525.747 334.877 525.747 352.377 Q525.747 369.831 519.59 379.044 Q513.479 388.21 501.859 388.21 Q490.238 388.21 484.081 379.044 Q477.97 369.831 477.97 352.377 Q477.97 334.877 484.081 325.71 Q490.238 316.498 501.859 316.498 Z" fill="#000000" fill-rule="nonzero" fill-opacity="1" /><path clip-path="url(#clip430)" d="M331.35 166.978 L331.35 158.46 Q334.869 160.126 338.48 161.006 Q342.091 161.885 345.563 161.885 Q354.822 161.885 359.683 155.682 Q364.591 149.432 365.285 136.747 Q362.6 140.728 358.48 142.858 Q354.359 144.987 349.359 144.987 Q338.989 144.987 332.924 138.737 Q326.906 132.441 326.906 121.562 Q326.906 110.914 333.202 104.478 Q339.498 98.0432 349.961 98.0432 Q361.952 98.0432 368.248 107.256 Q374.591 116.423 374.591 133.923 Q374.591 150.265 366.813 160.034 Q359.082 169.756 345.98 169.756 Q342.461 169.756 338.85 169.061 Q335.239 168.367 331.35 166.978 M349.961 137.673 Q356.257 137.673 359.915 133.367 Q363.619 129.062 363.619 121.562 Q363.619 114.108 359.915 109.802 Q356.257 105.451 349.961 105.451 Q343.665 105.451 339.961 109.802 Q336.304 114.108 336.304 121.562 Q336.304 129.062 339.961 133.367 Q343.665 137.673 349.961 137.673 Z" fill="#000000" fill-rule="nonzero" fill-opacity="1" /><path clip-path="url(#clip430)" d="M411.396 105.451 Q404.174 105.451 400.516 112.58 Q396.905 119.663 396.905 133.923 Q396.905 148.136 400.516 155.265 Q404.174 162.348 411.396 162.348 Q418.665 162.348 422.276 155.265 Q425.933 148.136 425.933 133.923 Q425.933 119.663 422.276 112.58 Q418.665 105.451 411.396 105.451 M411.396 98.0432 Q423.016 98.0432 429.127 107.256 Q435.285 116.423 435.285 133.923 Q435.285 151.376 429.127 160.589 Q423.016 169.756 411.396 169.756 Q399.776 169.756 393.618 160.589 Q387.507 151.376 387.507 133.923 Q387.507 116.423 393.618 107.256 Q399.776 98.0432 411.396 98.0432 Z" fill="#000000" fill-rule="nonzero" fill-opacity="1" /><path clip-path="url(#clip430)" d="M451.72 156.654 L461.488 156.654 L461.488 168.413 L451.72 168.413 L451.72 156.654 Z" fill="#000000" fill-rule="nonzero" fill-opacity="1" /><path clip-path="url(#clip430)" d="M501.859 105.451 Q494.636 105.451 490.979 112.58 Q487.368 119.663 487.368 133.923 Q487.368 148.136 490.979 155.265 Q494.636 162.348 501.859 162.348 Q509.127 162.348 512.738 155.265 Q516.396 148.136 516.396 133.923 Q516.396 119.663 512.738 112.58 Q509.127 105.451 501.859 105.451 M501.859 98.0432 Q513.479 98.0432 519.59 107.256 Q525.747 116.423 525.747 133.923 Q525.747 151.376 519.59 160.589 Q513.479 169.756 501.859 169.756 Q490.238 169.756 484.081 160.589 Q477.97 151.376 477.97 133.923 Q477.97 116.423 484.081 107.256 Q490.238 98.0432 501.859 98.0432 Z" fill="#000000" fill-rule="nonzero" fill-opacity="1" /><path clip-path="url(#clip430)" d="M251.699 931.845 L289.512 931.845 L289.512 943.622 L191.098 943.622 L191.098 931.845 L201.92 931.845 Q195.554 928.153 192.498 922.551 Q189.379 916.886 189.379 909.056 Q189.379 896.07 199.692 887.986 Q210.004 879.837 226.809 879.837 Q243.615 879.837 253.927 887.986 Q264.24 896.07 264.24 909.056 Q264.24 916.886 261.184 922.551 Q258.065 928.153 251.699 931.845 M226.809 891.996 Q213.887 891.996 206.567 897.343 Q199.182 902.627 199.182 911.921 Q199.182 921.215 206.567 926.562 Q213.887 931.845 226.809 931.845 Q239.732 931.845 247.116 926.562 Q254.437 921.215 254.437 911.921 Q254.437 902.627 247.116 897.343 Q239.732 891.996 226.809 891.996 Z" fill="#000000" fill-rule="nonzero" fill-opacity="1" /><path clip-path="url(#clip430)" d="M226.555 828.021 Q226.555 842.216 229.801 847.691 Q233.048 853.165 240.878 853.165 Q247.116 853.165 250.808 849.091 Q254.437 844.953 254.437 837.887 Q254.437 828.148 247.562 822.291 Q240.623 816.371 229.165 816.371 L226.555 816.371 L226.555 828.021 M221.717 804.658 L262.394 804.658 L262.394 816.371 L251.572 816.371 Q258.065 820.382 261.184 826.366 Q264.24 832.349 264.24 841.007 Q264.24 851.956 258.129 858.449 Q251.954 864.878 241.642 864.878 Q229.61 864.878 223.499 856.857 Q217.388 848.773 217.388 832.795 L217.388 816.371 L216.242 816.371 Q208.158 816.371 203.766 821.719 Q199.31 827.002 199.31 836.614 Q199.31 842.725 200.774 848.518 Q202.238 854.311 205.166 859.658 L194.344 859.658 Q191.862 853.229 190.652 847.181 Q189.379 841.134 189.379 835.405 Q189.379 819.936 197.4 812.297 Q205.421 804.658 221.717 804.658 Z" fill="#000000" fill-rule="nonzero" fill-opacity="1" /><path clip-path="url(#clip430)" d="M202.047 739.219 Q200.901 741.192 200.392 743.548 Q199.819 745.839 199.819 748.64 Q199.819 758.571 206.312 763.918 Q212.741 769.201 224.836 769.201 L262.394 769.201 L262.394 780.978 L191.098 780.978 L191.098 769.201 L202.174 769.201 Q195.681 765.509 192.562 759.589 Q189.379 753.669 189.379 745.203 Q189.379 743.993 189.57 742.529 Q189.697 741.065 190.016 739.283 L202.047 739.219 Z" fill="#000000" fill-rule="nonzero" fill-opacity="1" /><path clip-path="url(#clip430)" d="M223.818 668.814 L229.547 668.814 L229.547 722.668 Q241.642 721.904 248.007 715.411 Q254.309 708.855 254.309 697.205 Q254.309 690.458 252.654 684.156 Q250.999 677.79 247.689 671.552 L258.765 671.552 Q261.439 677.854 262.839 684.474 Q264.24 691.094 264.24 697.906 Q264.24 714.966 254.309 724.96 Q244.379 734.89 227.446 734.89 Q209.94 734.89 199.692 725.469 Q189.379 715.984 189.379 699.943 Q189.379 685.556 198.673 677.217 Q207.903 668.814 223.818 668.814 M220.38 680.527 Q210.768 680.654 205.039 685.938 Q199.31 691.158 199.31 699.815 Q199.31 709.618 204.848 715.539 Q210.386 721.395 220.444 722.286 L220.38 680.527 Z" fill="#000000" fill-rule="nonzero" fill-opacity="1" /><path clip-path="url(#clip430)" d="M219.362 590.325 L262.394 590.325 L262.394 602.038 L219.744 602.038 Q209.622 602.038 204.593 605.985 Q199.564 609.931 199.564 617.825 Q199.564 627.31 205.612 632.784 Q211.659 638.259 222.099 638.259 L262.394 638.259 L262.394 650.035 L191.098 650.035 L191.098 638.259 L202.174 638.259 Q195.745 634.058 192.562 628.392 Q189.379 622.663 189.379 615.215 Q189.379 602.929 197.018 596.627 Q204.593 590.325 219.362 590.325 Z" fill="#000000" fill-rule="nonzero" fill-opacity="1" /><path clip-path="url(#clip430)" d="M246.225 565.308 L246.225 551.876 L262.394 551.876 L262.394 565.308 L246.225 565.308 Z" fill="#000000" fill-rule="nonzero" fill-opacity="1" /><path clip-path="url(#clip430)" d="M167.354 485.673 L167.354 424.562 L172.828 424.562 L262.394 459.064 L262.394 472.496 L178.175 440.031 L178.175 485.673 L167.354 485.673 Z" fill="#000000" fill-rule="nonzero" fill-opacity="1" /><polyline clip-path="url(#clip432)" style="stroke:#008000; stroke-linecap:round; stroke-linejoin:round; stroke-width:8; stroke-opacity:1; fill:none" points="611.099,1084.5 748.188,807.674 885.276,634.763 1022.36,401.145 1159.45,502.446 1296.54,139.526 1433.63,127.862 1570.72,397.467 1707.81,303.059 1844.89,202.951 1981.98,388.619 2119.07,420.266 2256.16,596.854 "/>
<circle clip-path="url(#clip432)" cx="611.099" cy="1084.5" r="14.4" fill="#008000" fill-rule="evenodd" fill-opacity="1" stroke="#000000" stroke-opacity="1" stroke-width="6.4"/>
<circle clip-path="url(#clip432)" cx="748.188" cy="807.674" r="14.4" fill="#008000" fill-rule="evenodd" fill-opacity="1" stroke="#000000" stroke-opacity="1" stroke-width="6.4"/>
<circle clip-path="url(#clip432)" cx="885.276" cy="634.763" r="14.4" fill="#008000" fill-rule="evenodd" fill-opacity="1" stroke="#000000" stroke-opacity="1" stroke-width="6.4"/>
<circle clip-path="url(#clip432)" cx="1022.36" cy="401.145" r="14.4" fill="#008000" fill-rule="evenodd" fill-opacity="1" stroke="#000000" stroke-opacity="1" stroke-width="6.4"/>
<circle clip-path="url(#clip432)" cx="1159.45" cy="502.446" r="14.4" fill="#008000" fill-rule="evenodd" fill-opacity="1" stroke="#000000" stroke-opacity="1" stroke-width="6.4"/>
<circle clip-path="url(#clip432)" cx="1296.54" cy="139.526" r="14.4" fill="#008000" fill-rule="evenodd" fill-opacity="1" stroke="#000000" stroke-opacity="1" stroke-width="6.4"/>
<circle clip-path="url(#clip432)" cx="1433.63" cy="127.862" r="14.4" fill="#008000" fill-rule="evenodd" fill-opacity="1" stroke="#000000" stroke-opacity="1" stroke-width="6.4"/>
<circle clip-path="url(#clip432)" cx="1570.72" cy="397.467" r="14.4" fill="#008000" fill-rule="evenodd" fill-opacity="1" stroke="#000000" stroke-opacity="1" stroke-width="6.4"/>
<circle clip-path="url(#clip432)" cx="1707.81" cy="303.059" r="14.4" fill="#008000" fill-rule="evenodd" fill-opacity="1" stroke="#000000" stroke-opacity="1" stroke-width="6.4"/>
<circle clip-path="url(#clip432)" cx="1844.89" cy="202.951" r="14.4" fill="#008000" fill-rule="evenodd" fill-opacity="1" stroke="#000000" stroke-opacity="1" stroke-width="6.4"/>
<circle clip-path="url(#clip432)" cx="1981.98" cy="388.619" r="14.4" fill="#008000" fill-rule="evenodd" fill-opacity="1" stroke="#000000" stroke-opacity="1" stroke-width="6.4"/>
<circle clip-path="url(#clip432)" cx="2119.07" cy="420.266" r="14.4" fill="#008000" fill-rule="evenodd" fill-opacity="1" stroke="#000000" stroke-opacity="1" stroke-width="6.4"/>
<circle clip-path="url(#clip432)" cx="2256.16" cy="596.854" r="14.4" fill="#008000" fill-rule="evenodd" fill-opacity="1" stroke="#000000" stroke-opacity="1" stroke-width="6.4"/>
<polyline clip-path="url(#clip432)" style="stroke:#00008b; stroke-linecap:round; stroke-linejoin:round; stroke-width:8; stroke-opacity:1; fill:none" points="611.099,1086.75 748.188,853.058 885.276,721.255 1022.36,639.118 1159.45,580.438 1296.54,530.021 1433.63,508.343 1570.72,489.346 1707.81,492.797 1844.89,498.149 1981.98,523.549 2119.07,553.579 2256.16,573.631 "/>
<path clip-path="url(#clip432)" d="M611.099 1240.32 L748.188 1005.4 L885.276 882.209 L1022.36 798.04 L1159.45 735.627 L1296.54 696.419 L1433.63 671.168 L1570.72 647.196 L1707.81 647.567 L1844.89 661.504 L1981.98 681.016 L2119.07 715.503 L2256.16 745.056 L2256.16 403.409 L2119.07 392.334 L1981.98 363.84 L1844.89 337.101 L1707.81 339.324 L1570.72 328.141 L1433.63 349.049 L1296.54 364.982 L1159.45 430.713 L1022.36 481.633 L885.276 554.21 L748.188 695.735 L611.099 928.751  Z" fill="#0000ff" fill-rule="evenodd" fill-opacity="0.1"/>
<polyline clip-path="url(#clip432)" style="stroke:#0000ff; stroke-linecap:round; stroke-linejoin:round; stroke-width:0; stroke-opacity:0.1; fill:none" points="611.099,1240.32 748.188,1005.4 885.276,882.209 1022.36,798.04 1159.45,735.627 1296.54,696.419 1433.63,671.168 1570.72,647.196 1707.81,647.567 1844.89,661.504 1981.98,681.016 2119.07,715.503 2256.16,745.056 "/>
</svg>
