<?xml version="1.0" encoding="utf-8"?>
<svg xmlns="http://www.w3.org/2000/svg" xmlns:xlink="http://www.w3.org/1999/xlink" width="600" height="400" viewBox="0 0 2400 1600">
<defs>
  <clipPath id="clip310">
    <rect x="0" y="0" width="2400" height="1600"/>
  </clipPath>
</defs>
<path clip-path="url(#clip310)" d="M0 1600 L2400 1600 L2400 0 L0 0  Z" fill="#ffffff" fill-rule="evenodd" fill-opacity="1"/>
<defs>
  <clipPath id="clip311">
    <rect x="480" y="0" width="1681" height="1600"/>
  </clipPath>
</defs>
<path clip-path="url(#clip310)" d="M673.506 1273.7 L2305.51 1273.7 L2305.51 94.4882 L673.506 94.4882  Z" fill="#ffffff" fill-rule="evenodd" fill-opacity="1"/>
<defs>
  <clipPath id="clip312">
    <rect x="673" y="94" width="1633" height="1180"/>
  </clipPath>
</defs>
<polyline clip-path="url(#clip312)" style="stroke:#000000; stroke-linecap:round; stroke-linejoin:round; stroke-width:4; stroke-opacity:0.1; fill:none" points="719.695,1273.7 719.695,94.4882 "/>
<polyline clip-path="url(#clip312)" style="stroke:#000000; stroke-linecap:round; stroke-linejoin:round; stroke-width:4; stroke-opacity:0.1; fill:none" points="1040.45,1273.7 1040.45,94.4882 "/>
<polyline clip-path="url(#clip312)" style="stroke:#000000; stroke-linecap:round; stroke-linejoin:round; stroke-width:4; stroke-opacity:0.1; fill:none" points="1361.21,1273.7 1361.21,94.4882 "/>
<polyline clip-path="url(#clip312)" style="stroke:#000000; stroke-linecap:round; stroke-linejoin:round; stroke-width:4; stroke-opacity:0.1; fill:none" points="1681.96,1273.7 1681.96,94.4882 "/>
<polyline clip-path="url(#clip312)" style="stroke:#000000; stroke-linecap:round; stroke-linejoin:round; stroke-width:4; stroke-opacity:0.1; fill:none" points="2002.72,1273.7 2002.72,94.4882 "/>
<polyline clip-path="url(#clip310)" style="stroke:#000000; stroke-linecap:round; stroke-linejoin:round; stroke-width:8; stroke-opacity:1; fill:none" points="673.506,1273.7 2305.51,1273.7 "/>
<polyline clip-path="url(#clip310)" style="stroke:#000000; stroke-linecap:round; stroke-linejoin:round; stroke-width:8; stroke-opacity:1; fill:none" points="719.695,1273.7 719.695,1254.8 "/>
<polyline clip-path="url(#clip310)" style="stroke:#000000; stroke-linecap:round; stroke-linejoin:round; stroke-width:8; stroke-opacity:1; fill:none" points="1040.45,1273.7 1040.45,1254.8 "/>
<polyline clip-path="url(#clip310)" style="stroke:#000000; stroke-linecap:round; stroke-linejoin:round; stroke-width:8; stroke-opacity:1; fill:none" points="1361.21,1273.7 1361.21,1254.8 "/>
<polyline clip-path="url(#clip310)" style="stroke:#000000; stroke-linecap:round; stroke-linejoin:round; stroke-width:8; stroke-opacity:1; fill:none" points="1681.96,1273.7 1681.96,1254.8 "/>
<polyline clip-path="url(#clip310)" style="stroke:#000000; stroke-linecap:round; stroke-linejoin:round; stroke-width:8; stroke-opacity:1; fill:none" points="2002.72,1273.7 2002.72,1254.8 "/>
<path clip-path="url(#clip310)" d="M644.302 1316.33 Q637.08 1316.33 633.422 1323.46 Q629.811 1330.55 629.811 1344.81 Q629.811 1359.02 633.422 1366.15 Q637.08 1373.23 644.302 1373.23 Q651.57 1373.23 655.181 1366.15 Q658.839 1359.02 658.839 1344.81 Q658.839 1330.55 655.181 1323.46 Q651.57 1316.33 644.302 1316.33 M644.302 1308.93 Q655.922 1308.93 662.033 1318.14 Q668.19 1327.31 668.19 1344.81 Q668.19 1362.26 662.033 1371.47 Q655.922 1380.64 644.302 1380.64 Q632.681 1380.64 626.524 1371.47 Q620.413 1362.26 620.413 1344.81 Q620.413 1327.31 626.524 1318.14 Q632.681 1308.93 644.302 1308.93 Z" fill="#000000" fill-rule="nonzero" fill-opacity="1" /><path clip-path="url(#clip310)" d="M684.626 1367.54 L694.394 1367.54 L694.394 1379.3 L684.626 1379.3 L684.626 1367.54 Z" fill="#000000" fill-rule="nonzero" fill-opacity="1" /><path clip-path="url(#clip310)" d="M734.764 1316.33 Q727.542 1316.33 723.885 1323.46 Q720.274 1330.55 720.274 1344.81 Q720.274 1359.02 723.885 1366.15 Q727.542 1373.23 734.764 1373.23 Q742.033 1373.23 745.644 1366.15 Q749.301 1359.02 749.301 1344.81 Q749.301 1330.55 745.644 1323.46 Q742.033 1316.33 734.764 1316.33 M734.764 1308.93 Q746.384 1308.93 752.496 1318.14 Q758.653 1327.31 758.653 1344.81 Q758.653 1362.26 752.496 1371.47 Q746.384 1380.64 734.764 1380.64 Q723.144 1380.64 716.986 1371.47 Q710.875 1362.26 710.875 1344.81 Q710.875 1327.31 716.986 1318.14 Q723.144 1308.93 734.764 1308.93 Z" fill="#000000" fill-rule="nonzero" fill-opacity="1" /><path clip-path="url(#clip310)" d="M795.088 1316.33 Q787.866 1316.33 784.208 1323.46 Q780.597 1330.55 780.597 1344.81 Q780.597 1359.02 784.208 1366.15 Q787.866 1373.23 795.088 1373.23 Q802.356 1373.23 805.967 1366.15 Q809.625 1359.02 809.625 1344.81 Q809.625 1330.55 805.967 1323.46 Q802.356 1316.33 795.088 1316.33 M795.088 1308.93 Q806.708 1308.93 812.819 1318.14 Q818.977 1327.31 818.977 1344.81 Q818.977 1362.26 812.819 1371.47 Q806.708 1380.64 795.088 1380.64 Q783.468 1380.64 777.31 1371.47 Q771.199 1362.26 771.199 1344.81 Q771.199 1327.31 777.31 1318.14 Q783.468 1308.93 795.088 1308.93 Z" fill="#000000" fill-rule="nonzero" fill-opacity="1" /><path clip-path="url(#clip310)" d="M966.053 1316.33 Q958.831 1316.33 955.173 1323.46 Q951.562 1330.55 951.562 1344.81 Q951.562 1359.02 955.173 1366.15 Q958.831 1373.23 966.053 1373.23 Q973.321 1373.23 976.932 1366.15 Q980.59 1359.02 980.59 1344.81 Q980.59 1330.55 976.932 1323.46 Q973.321 1316.33 966.053 1316.33 M966.053 1308.93 Q977.673 1308.93 983.784 1318.14 Q989.942 1327.31 989.942 1344.81 Q989.942 1362.26 983.784 1371.47 Q977.673 1380.64 966.053 1380.64 Q954.433 1380.64 948.275 1371.47 Q942.164 1362.26 942.164 1344.81 Q942.164 1327.31 948.275 1318.14 Q954.433 1308.93 966.053 1308.93 Z" fill="#000000" fill-rule="nonzero" fill-opacity="1" /><path clip-path="url(#clip310)" d="M1006.38 1367.54 L1016.15 1367.54 L1016.15 1379.3 L1006.38 1379.3 L1006.38 1367.54 Z" fill="#000000" fill-rule="nonzero" fill-opacity="1" /><path clip-path="url(#clip310)" d="M1044.57 1371.43 L1077.21 1371.43 L1077.21 1379.3 L1033.32 1379.3 L1033.32 1371.43 Q1038.65 1365.92 1047.81 1356.66 Q1057.02 1347.35 1059.39 1344.67 Q1063.88 1339.62 1065.64 1336.15 Q1067.44 1332.63 1067.44 1329.25 Q1067.44 1323.74 1063.55 1320.27 Q1059.71 1316.8 1053.51 1316.8 Q1049.11 1316.8 1044.2 1318.32 Q1039.34 1319.85 1033.78 1322.95 L1033.78 1313.51 Q1039.43 1311.24 1044.34 1310.08 Q1049.25 1308.93 1053.32 1308.93 Q1064.06 1308.93 1070.45 1314.3 Q1076.84 1319.67 1076.84 1328.65 Q1076.84 1332.91 1075.22 1336.75 Q1073.64 1340.55 1069.43 1345.73 Q1068.27 1347.07 1062.07 1353.51 Q1055.87 1359.9 1044.57 1371.43 Z" fill="#000000" fill-rule="nonzero" fill-opacity="1" /><path clip-path="url(#clip310)" d="M1096.93 1310.18 L1133.64 1310.18 L1133.64 1318.05 L1105.5 1318.05 L1105.5 1334.99 Q1107.53 1334.3 1109.57 1333.97 Q1111.61 1333.6 1113.64 1333.6 Q1125.22 1333.6 1131.98 1339.94 Q1138.74 1346.29 1138.74 1357.12 Q1138.74 1368.28 1131.79 1374.48 Q1124.85 1380.64 1112.21 1380.64 Q1107.86 1380.64 1103.32 1379.9 Q1098.83 1379.16 1094.02 1377.68 L1094.02 1368.28 Q1098.18 1370.55 1102.63 1371.66 Q1107.07 1372.77 1112.02 1372.77 Q1120.03 1372.77 1124.71 1368.56 Q1129.39 1364.34 1129.39 1357.12 Q1129.39 1349.9 1124.71 1345.68 Q1120.03 1341.47 1112.02 1341.47 Q1108.27 1341.47 1104.52 1342.31 Q1100.82 1343.14 1096.93 1344.9 L1096.93 1310.18 Z" fill="#000000" fill-rule="nonzero" fill-opacity="1" /><path clip-path="url(#clip310)" d="M1285.81 1316.33 Q1278.59 1316.33 1274.93 1323.46 Q1271.32 1330.55 1271.32 1344.81 Q1271.32 1359.02 1274.93 1366.15 Q1278.59 1373.23 1285.81 1373.23 Q1293.08 1373.23 1296.69 1366.15 Q1300.35 1359.02 1300.35 1344.81 Q1300.35 1330.55 1296.69 1323.46 Q1293.08 1316.33 1285.81 1316.33 M1285.81 1308.93 Q1297.43 1308.93 1303.54 1318.14 Q1309.7 1327.31 1309.7 1344.81 Q1309.7 1362.26 1303.54 1371.47 Q1297.43 1380.64 1285.81 1380.64 Q1274.19 1380.64 1268.04 1371.47 Q1261.92 1362.26 1261.92 1344.81 Q1261.92 1327.31 1268.04 1318.14 Q1274.19 1308.93 1285.81 1308.93 Z" fill="#000000" fill-rule="nonzero" fill-opacity="1" /><path clip-path="url(#clip310)" d="M1326.14 1367.54 L1335.91 1367.54 L1335.91 1379.3 L1326.14 1379.3 L1326.14 1367.54 Z" fill="#000000" fill-rule="nonzero" fill-opacity="1" /><path clip-path="url(#clip310)" d="M1356.37 1310.18 L1393.08 1310.18 L1393.08 1318.05 L1364.93 1318.05 L1364.93 1334.99 Q1366.97 1334.3 1369.01 1333.97 Q1371.04 1333.6 1373.08 1333.6 Q1384.66 1333.6 1391.41 1339.94 Q1398.17 1346.29 1398.17 1357.12 Q1398.17 1368.28 1391.23 1374.48 Q1384.29 1380.64 1371.65 1380.64 Q1367.29 1380.64 1362.76 1379.9 Q1358.27 1379.16 1353.45 1377.68 L1353.45 1368.28 Q1357.62 1370.55 1362.06 1371.66 Q1366.51 1372.77 1371.46 1372.77 Q1379.47 1372.77 1384.15 1368.56 Q1388.82 1364.34 1388.82 1357.12 Q1388.82 1349.9 1384.15 1345.68 Q1379.47 1341.47 1371.46 1341.47 Q1367.71 1341.47 1363.96 1342.31 Q1360.26 1343.14 1356.37 1344.9 L1356.37 1310.18 Z" fill="#000000" fill-rule="nonzero" fill-opacity="1" /><path clip-path="url(#clip310)" d="M1436.6 1316.33 Q1429.38 1316.33 1425.72 1323.46 Q1422.11 1330.55 1422.11 1344.81 Q1422.11 1359.02 1425.72 1366.15 Q1429.38 1373.23 1436.6 1373.23 Q1443.87 1373.23 1447.48 1366.15 Q1451.14 1359.02 1451.14 1344.81 Q1451.14 1330.55 1447.48 1323.46 Q1443.87 1316.33 1436.6 1316.33 M1436.6 1308.93 Q1448.22 1308.93 1454.33 1318.14 Q1460.49 1327.31 1460.49 1344.81 Q1460.49 1362.26 1454.33 1371.47 Q1448.22 1380.64 1436.6 1380.64 Q1424.98 1380.64 1418.82 1371.47 Q1412.71 1362.26 1412.71 1344.81 Q1412.71 1327.31 1418.82 1318.14 Q1424.98 1308.93 1436.6 1308.93 Z" fill="#000000" fill-rule="nonzero" fill-opacity="1" /><path clip-path="url(#clip310)" d="M1607.56 1316.33 Q1600.34 1316.33 1596.69 1323.46 Q1593.07 1330.55 1593.07 1344.81 Q1593.07 1359.02 1596.69 1366.15 Q1600.34 1373.23 1607.56 1373.23 Q1614.83 1373.23 1618.44 1366.15 Q1622.1 1359.02 1622.1 1344.81 Q1622.1 1330.55 1618.44 1323.46 Q1614.83 1316.33 1607.56 1316.33 M1607.56 1308.93 Q1619.18 1308.93 1625.3 1318.14 Q1631.45 1327.31 1631.45 1344.81 Q1631.45 1362.26 1625.3 1371.47 Q1619.18 1380.64 1607.56 1380.64 Q1595.94 1380.64 1589.79 1371.47 Q1583.68 1362.26 1583.68 1344.81 Q1583.68 1327.31 1589.79 1318.14 Q1595.94 1308.93 1607.56 1308.93 Z" fill="#000000" fill-rule="nonzero" fill-opacity="1" /><path clip-path="url(#clip310)" d="M1647.89 1367.54 L1657.66 1367.54 L1657.66 1379.3 L1647.89 1379.3 L1647.89 1367.54 Z" fill="#000000" fill-rule="nonzero" fill-opacity="1" /><path clip-path="url(#clip310)" d="M1675.67 1310.18 L1720.11 1310.18 L1720.11 1314.16 L1695.02 1379.3 L1685.25 1379.3 L1708.86 1318.05 L1675.67 1318.05 L1675.67 1310.18 Z" fill="#000000" fill-rule="nonzero" fill-opacity="1" /><path clip-path="url(#clip310)" d="M1738.44 1310.18 L1775.16 1310.18 L1775.16 1318.05 L1747.01 1318.05 L1747.01 1334.99 Q1749.05 1334.3 1751.08 1333.97 Q1753.12 1333.6 1755.16 1333.6 Q1766.73 1333.6 1773.49 1339.94 Q1780.25 1346.29 1780.25 1357.12 Q1780.25 1368.28 1773.3 1374.48 Q1766.36 1380.64 1753.72 1380.64 Q1749.37 1380.64 1744.83 1379.9 Q1740.34 1379.16 1735.53 1377.68 L1735.53 1368.28 Q1739.69 1370.55 1744.14 1371.66 Q1748.58 1372.77 1753.54 1372.77 Q1761.55 1372.77 1766.22 1368.56 Q1770.9 1364.34 1770.9 1357.12 Q1770.9 1349.9 1766.22 1345.68 Q1761.55 1341.47 1753.54 1341.47 Q1749.79 1341.47 1746.04 1342.31 Q1742.33 1343.14 1738.44 1344.9 L1738.44 1310.18 Z" fill="#000000" fill-rule="nonzero" fill-opacity="1" /><path clip-path="url(#clip310)" d="M1906.86 1371.43 L1922.14 1371.43 L1922.14 1318.69 L1905.52 1322.03 L1905.52 1313.51 L1922.05 1310.18 L1931.4 1310.18 L1931.4 1371.43 L1946.68 1371.43 L1946.68 1379.3 L1906.86 1379.3 L1906.86 1371.43 Z" fill="#000000" fill-rule="nonzero" fill-opacity="1" /><path clip-path="url(#clip310)" d="M1965.57 1367.54 L1975.33 1367.54 L1975.33 1379.3 L1965.57 1379.3 L1965.57 1367.54 Z" fill="#000000" fill-rule="nonzero" fill-opacity="1" /><path clip-path="url(#clip310)" d="M2015.7 1316.33 Q2008.48 1316.33 2004.82 1323.46 Q2001.21 1330.55 2001.21 1344.81 Q2001.21 1359.02 2004.82 1366.15 Q2008.48 1373.23 2015.7 1373.23 Q2022.97 1373.23 2026.58 1366.15 Q2030.24 1359.02 2030.24 1344.81 Q2030.24 1330.55 2026.58 1323.46 Q2022.97 1316.33 2015.7 1316.33 M2015.7 1308.93 Q2027.32 1308.93 2033.44 1318.14 Q2039.59 1327.31 2039.59 1344.81 Q2039.59 1362.26 2033.44 1371.47 Q2027.32 1380.64 2015.7 1380.64 Q2004.08 1380.64 1997.93 1371.47 Q1991.82 1362.26 1991.82 1344.81 Q1991.82 1327.31 1997.93 1318.14 Q2004.08 1308.93 2015.7 1308.93 Z" fill="#000000" fill-rule="nonzero" fill-opacity="1" /><path clip-path="url(#clip310)" d="M2076.03 1316.33 Q2068.81 1316.33 2065.15 1323.46 Q2061.54 1330.55 2061.54 1344.81 Q2061.54 1359.02 2065.15 1366.15 Q2068.81 1373.23 2076.03 1373.23 Q2083.3 1373.23 2086.91 1366.15 Q2090.57 1359.02 2090.57 1344.81 Q2090.57 1330.55 2086.91 1323.46 Q2083.3 1316.33 2076.03 1316.33 M2076.03 1308.93 Q2087.65 1308.93 2093.76 1318.14 Q2099.92 1327.31 2099.92 1344.81 Q2099.92 1362.26 2093.76 1371.47 Q2087.65 1380.64 2076.03 1380.64 Q2064.41 1380.64 2058.25 1371.47 Q2052.14 1362.26 2052.14 1344.81 Q2052.14 1327.31 2058.25 1318.14 Q2064.41 1308.93 2076.03 1308.93 Z" fill="#000000" fill-rule="nonzero" fill-opacity="1" /><path clip-path="url(#clip310)" d="M1375.05 1484.39 L1375.05 1527.42 L1363.34 1527.42 L1363.34 1484.77 Q1363.34 1474.65 1359.39 1469.62 Q1355.45 1464.59 1347.55 1464.59 Q1338.07 1464.59 1332.59 1470.64 Q1327.12 1476.69 1327.12 1487.13 L1327.12 1527.42 L1315.34 1527.42 L1315.34 1428.37 L1327.12 1428.37 L1327.12 1467.2 Q1331.32 1460.77 1336.99 1457.59 Q1342.72 1454.41 1350.16 1454.41 Q1362.45 1454.41 1368.75 1462.05 Q1375.05 1469.62 1375.05 1484.39 Z" fill="#000000" fill-rule="nonzero" fill-opacity="1" /><path clip-path="url(#clip310)" d="M1426.04 1464.34 Q1416.62 1464.34 1411.15 1471.72 Q1405.67 1479.04 1405.67 1491.84 Q1405.67 1504.63 1411.08 1512.02 Q1416.56 1519.34 1426.04 1519.34 Q1435.4 1519.34 1440.87 1511.96 Q1446.35 1504.57 1446.35 1491.84 Q1446.35 1479.17 1440.87 1471.79 Q1435.4 1464.34 1426.04 1464.34 M1426.04 1454.41 Q1441.32 1454.41 1450.04 1464.34 Q1458.76 1474.27 1458.76 1491.84 Q1458.76 1509.35 1450.04 1519.34 Q1441.32 1529.27 1426.04 1529.27 Q1410.7 1529.27 1401.98 1519.34 Q1393.32 1509.35 1393.32 1491.84 Q1393.32 1474.27 1401.98 1464.34 Q1410.7 1454.41 1426.04 1454.41 Z" fill="#000000" fill-rule="nonzero" fill-opacity="1" /><path clip-path="url(#clip310)" d="M1476.97 1499.29 L1476.97 1456.13 L1488.68 1456.13 L1488.68 1498.84 Q1488.68 1508.96 1492.63 1514.06 Q1496.57 1519.08 1504.47 1519.08 Q1513.95 1519.08 1519.43 1513.04 Q1524.97 1506.99 1524.97 1496.55 L1524.97 1456.13 L1536.68 1456.13 L1536.68 1527.42 L1524.97 1527.42 L1524.97 1516.47 Q1520.7 1522.97 1515.04 1526.15 Q1509.43 1529.27 1501.99 1529.27 Q1489.7 1529.27 1483.33 1521.63 Q1476.97 1513.99 1476.97 1499.29 M1506.44 1454.41 L1506.44 1454.41 Z" fill="#000000" fill-rule="nonzero" fill-opacity="1" /><path clip-path="url(#clip310)" d="M1602.12 1467.08 Q1600.14 1465.93 1597.79 1465.42 Q1595.5 1464.85 1592.7 1464.85 Q1582.77 1464.85 1577.42 1471.34 Q1572.14 1477.77 1572.14 1489.87 L1572.14 1527.42 L1560.36 1527.42 L1560.36 1456.13 L1572.14 1456.13 L1572.14 1467.2 Q1575.83 1460.71 1581.75 1457.59 Q1587.67 1454.41 1596.13 1454.41 Q1597.34 1454.41 1598.81 1454.6 Q1600.27 1454.73 1602.05 1455.05 L1602.12 1467.08 Z" fill="#000000" fill-rule="nonzero" fill-opacity="1" /><path clip-path="url(#clip310)" d="M1659.86 1458.23 L1659.86 1469.3 Q1654.89 1466.76 1649.54 1465.49 Q1644.2 1464.21 1638.47 1464.21 Q1629.75 1464.21 1625.35 1466.89 Q1621.02 1469.56 1621.02 1474.91 Q1621.02 1478.98 1624.14 1481.34 Q1627.26 1483.63 1636.68 1485.73 L1640.69 1486.62 Q1653.17 1489.29 1658.39 1494.19 Q1663.67 1499.03 1663.67 1507.75 Q1663.67 1517.68 1655.78 1523.48 Q1647.95 1529.27 1634.2 1529.27 Q1628.47 1529.27 1622.23 1528.12 Q1616.06 1527.04 1609.18 1524.81 L1609.18 1512.72 Q1615.68 1516.09 1621.98 1517.81 Q1628.28 1519.47 1634.46 1519.47 Q1642.73 1519.47 1647.19 1516.67 Q1651.64 1513.8 1651.64 1508.64 Q1651.64 1503.87 1648.4 1501.32 Q1645.21 1498.78 1634.33 1496.42 L1630.25 1495.47 Q1619.37 1493.18 1614.53 1488.47 Q1609.69 1483.69 1609.69 1475.42 Q1609.69 1465.36 1616.82 1459.88 Q1623.95 1454.41 1637.07 1454.41 Q1643.56 1454.41 1649.29 1455.36 Q1655.02 1456.32 1659.86 1458.23 Z" fill="#000000" fill-rule="nonzero" fill-opacity="1" /><polyline clip-path="url(#clip312)" style="stroke:#000000; stroke-linecap:round; stroke-linejoin:round; stroke-width:4; stroke-opacity:0.1; fill:none" points="673.506,1151.56 2305.51,1151.56 "/>
<polyline clip-path="url(#clip312)" style="stroke:#000000; stroke-linecap:round; stroke-linejoin:round; stroke-width:4; stroke-opacity:0.1; fill:none" points="673.506,861.812 2305.51,861.812 "/>
<polyline clip-path="url(#clip312)" style="stroke:#000000; stroke-linecap:round; stroke-linejoin:round; stroke-width:4; stroke-opacity:0.1; fill:none" points="673.506,572.06 2305.51,572.06 "/>
<polyline clip-path="url(#clip312)" style="stroke:#000000; stroke-linecap:round; stroke-linejoin:round; stroke-width:4; stroke-opacity:0.1; fill:none" points="673.506,282.308 2305.51,282.308 "/>
<polyline clip-path="url(#clip310)" style="stroke:#000000; stroke-linecap:round; stroke-linejoin:round; stroke-width:8; stroke-opacity:1; fill:none" points="673.506,1273.7 673.506,94.4882 "/>
<polyline clip-path="url(#clip310)" style="stroke:#000000; stroke-linecap:round; stroke-linejoin:round; stroke-width:8; stroke-opacity:1; fill:none" points="673.506,1151.56 692.404,1151.56 "/>
<polyline clip-path="url(#clip310)" style="stroke:#000000; stroke-linecap:round; stroke-linejoin:round; stroke-width:8; stroke-opacity:1; fill:none" points="673.506,861.812 692.404,861.812 "/>
<polyline clip-path="url(#clip310)" style="stroke:#000000; stroke-linecap:round; stroke-linejoin:round; stroke-width:8; stroke-opacity:1; fill:none" points="673.506,572.06 692.404,572.06 "/>
<polyline clip-path="url(#clip310)" style="stroke:#000000; stroke-linecap:round; stroke-linejoin:round; stroke-width:8; stroke-opacity:1; fill:none" points="673.506,282.308 692.404,282.308 "/>
<path clip-path="url(#clip310)" d="M443.109 1184.69 L443.109 1176.17 Q446.627 1177.84 450.238 1178.72 Q453.85 1179.6 457.322 1179.6 Q466.581 1179.6 471.442 1173.39 Q476.349 1167.14 477.044 1154.46 Q474.359 1158.44 470.238 1160.57 Q466.118 1162.7 461.118 1162.7 Q450.748 1162.7 444.683 1156.45 Q438.664 1150.15 438.664 1139.27 Q438.664 1128.62 444.961 1122.19 Q451.257 1115.75 461.72 1115.75 Q473.711 1115.75 480.007 1124.97 Q486.349 1134.13 486.349 1151.63 Q486.349 1167.98 478.572 1177.75 Q470.84 1187.47 457.738 1187.47 Q454.22 1187.47 450.609 1186.77 Q446.998 1186.08 443.109 1184.69 M461.72 1155.38 Q468.016 1155.38 471.674 1151.08 Q475.377 1146.77 475.377 1139.27 Q475.377 1131.82 471.674 1127.51 Q468.016 1123.16 461.72 1123.16 Q455.424 1123.16 451.72 1127.51 Q448.063 1131.82 448.063 1139.27 Q448.063 1146.77 451.72 1151.08 Q455.424 1155.38 461.72 1155.38 Z" fill="#000000" fill-rule="nonzero" fill-opacity="1" /><path clip-path="url(#clip310)" d="M523.155 1123.16 Q515.933 1123.16 512.275 1130.29 Q508.664 1137.37 508.664 1151.63 Q508.664 1165.85 512.275 1172.98 Q515.933 1180.06 523.155 1180.06 Q530.423 1180.06 534.034 1172.98 Q537.692 1165.85 537.692 1151.63 Q537.692 1137.37 534.034 1130.29 Q530.423 1123.16 523.155 1123.16 M523.155 1115.75 Q534.775 1115.75 540.886 1124.97 Q547.043 1134.13 547.043 1151.63 Q547.043 1169.09 540.886 1178.3 Q534.775 1187.47 523.155 1187.47 Q511.534 1187.47 505.377 1178.3 Q499.266 1169.09 499.266 1151.63 Q499.266 1134.13 505.377 1124.97 Q511.534 1115.75 523.155 1115.75 Z" fill="#000000" fill-rule="nonzero" fill-opacity="1" /><path clip-path="url(#clip310)" d="M563.479 1174.37 L573.247 1174.37 L573.247 1186.12 L563.479 1186.12 L563.479 1174.37 Z" fill="#000000" fill-rule="nonzero" fill-opacity="1" /><path clip-path="url(#clip310)" d="M613.617 1123.16 Q606.395 1123.16 602.738 1130.29 Q599.127 1137.37 599.127 1151.63 Q599.127 1165.85 602.738 1172.98 Q606.395 1180.06 613.617 1180.06 Q620.886 1180.06 624.497 1172.98 Q628.154 1165.85 628.154 1151.63 Q628.154 1137.37 624.497 1130.29 Q620.886 1123.16 613.617 1123.16 M613.617 1115.75 Q625.238 1115.75 631.349 1124.97 Q637.506 1134.13 637.506 1151.63 Q637.506 1169.09 631.349 1178.3 Q625.238 1187.47 613.617 1187.47 Q601.997 1187.47 595.84 1178.3 Q589.728 1169.09 589.728 1151.63 Q589.728 1134.13 595.84 1124.97 Q601.997 1115.75 613.617 1115.75 Z" fill="#000000" fill-rule="nonzero" fill-opacity="1" /><path clip-path="url(#clip310)" d="M384.128 888.502 L399.405 888.502 L399.405 835.771 L382.785 839.104 L382.785 830.586 L399.313 827.252 L408.665 827.252 L408.665 888.502 L423.942 888.502 L423.942 896.372 L384.128 896.372 L384.128 888.502 Z" fill="#000000" fill-rule="nonzero" fill-opacity="1" /><path clip-path="url(#clip310)" d="M462.831 833.41 Q455.609 833.41 451.951 840.539 Q448.34 847.623 448.34 861.882 Q448.34 876.095 451.951 883.224 Q455.609 890.308 462.831 890.308 Q470.099 890.308 473.711 883.224 Q477.368 876.095 477.368 861.882 Q477.368 847.623 473.711 840.539 Q470.099 833.41 462.831 833.41 M462.831 826.002 Q474.451 826.002 480.562 835.215 Q486.72 844.382 486.72 861.882 Q486.72 879.336 480.562 888.548 Q474.451 897.715 462.831 897.715 Q451.211 897.715 445.053 888.548 Q438.942 879.336 438.942 861.882 Q438.942 844.382 445.053 835.215 Q451.211 826.002 462.831 826.002 Z" fill="#000000" fill-rule="nonzero" fill-opacity="1" /><path clip-path="url(#clip310)" d="M523.155 833.41 Q515.933 833.41 512.275 840.539 Q508.664 847.623 508.664 861.882 Q508.664 876.095 512.275 883.224 Q515.933 890.308 523.155 890.308 Q530.423 890.308 534.034 883.224 Q537.692 876.095 537.692 861.882 Q537.692 847.623 534.034 840.539 Q530.423 833.41 523.155 833.41 M523.155 826.002 Q534.775 826.002 540.886 835.215 Q547.043 844.382 547.043 861.882 Q547.043 879.336 540.886 888.548 Q534.775 897.715 523.155 897.715 Q511.534 897.715 505.377 888.548 Q499.266 879.336 499.266 861.882 Q499.266 844.382 505.377 835.215 Q511.534 826.002 523.155 826.002 Z" fill="#000000" fill-rule="nonzero" fill-opacity="1" /><path clip-path="url(#clip310)" d="M563.479 884.613 L573.247 884.613 L573.247 896.372 L563.479 896.372 L563.479 884.613 Z" fill="#000000" fill-rule="nonzero" fill-opacity="1" /><path clip-path="url(#clip310)" d="M613.617 833.41 Q606.395 833.41 602.738 840.539 Q599.127 847.623 599.127 861.882 Q599.127 876.095 602.738 883.224 Q606.395 890.308 613.617 890.308 Q620.886 890.308 624.497 883.224 Q628.154 876.095 628.154 861.882 Q628.154 847.623 624.497 840.539 Q620.886 833.41 613.617 833.41 M613.617 826.002 Q625.238 826.002 631.349 835.215 Q637.506 844.382 637.506 861.882 Q637.506 879.336 631.349 888.548 Q625.238 897.715 613.617 897.715 Q601.997 897.715 595.84 888.548 Q589.728 879.336 589.728 861.882 Q589.728 844.382 595.84 835.215 Q601.997 826.002 613.617 826.002 Z" fill="#000000" fill-rule="nonzero" fill-opacity="1" /><path clip-path="url(#clip310)" d="M384.128 598.75 L399.405 598.75 L399.405 546.019 L382.785 549.352 L382.785 540.834 L399.313 537.5 L408.665 537.5 L408.665 598.75 L423.942 598.75 L423.942 606.62 L384.128 606.62 L384.128 598.75 Z" fill="#000000" fill-rule="nonzero" fill-opacity="1" /><path clip-path="url(#clip310)" d="M444.451 598.75 L459.729 598.75 L459.729 546.019 L443.109 549.352 L443.109 540.834 L459.637 537.5 L468.988 537.5 L468.988 598.75 L484.266 598.75 L484.266 606.62 L444.451 606.62 L444.451 598.75 Z" fill="#000000" fill-rule="nonzero" fill-opacity="1" /><path clip-path="url(#clip310)" d="M523.155 543.658 Q515.933 543.658 512.275 550.787 Q508.664 557.871 508.664 572.13 Q508.664 586.343 512.275 593.472 Q515.933 600.556 523.155 600.556 Q530.423 600.556 534.034 593.472 Q537.692 586.343 537.692 572.13 Q537.692 557.871 534.034 550.787 Q530.423 543.658 523.155 543.658 M523.155 536.25 Q534.775 536.25 540.886 545.463 Q547.043 554.63 547.043 572.13 Q547.043 589.583 540.886 598.796 Q534.775 607.963 523.155 607.963 Q511.534 607.963 505.377 598.796 Q499.266 589.583 499.266 572.13 Q499.266 554.63 505.377 545.463 Q511.534 536.25 523.155 536.25 Z" fill="#000000" fill-rule="nonzero" fill-opacity="1" /><path clip-path="url(#clip310)" d="M563.479 594.861 L573.247 594.861 L573.247 606.62 L563.479 606.62 L563.479 594.861 Z" fill="#000000" fill-rule="nonzero" fill-opacity="1" /><path clip-path="url(#clip310)" d="M613.617 543.658 Q606.395 543.658 602.738 550.787 Q599.127 557.871 599.127 572.13 Q599.127 586.343 602.738 593.472 Q606.395 600.556 613.617 600.556 Q620.886 600.556 624.497 593.472 Q628.154 586.343 628.154 572.13 Q628.154 557.871 624.497 550.787 Q620.886 543.658 613.617 543.658 M613.617 536.25 Q625.238 536.25 631.349 545.463 Q637.506 554.63 637.506 572.13 Q637.506 589.583 631.349 598.796 Q625.238 607.963 613.617 607.963 Q601.997 607.963 595.84 598.796 Q589.728 589.583 589.728 572.13 Q589.728 554.63 595.84 545.463 Q601.997 536.25 613.617 536.25 Z" fill="#000000" fill-rule="nonzero" fill-opacity="1" /><path clip-path="url(#clip310)" d="M384.128 308.998 L399.405 308.998 L399.405 256.267 L382.785 259.6 L382.785 251.081 L399.313 247.748 L408.665 247.748 L408.665 308.998 L423.942 308.998 L423.942 316.868 L384.128 316.868 L384.128 308.998 Z" fill="#000000" fill-rule="nonzero" fill-opacity="1" /><path clip-path="url(#clip310)" d="M450.887 308.998 L483.525 308.998 L483.525 316.868 L439.637 316.868 L439.637 308.998 Q444.961 303.489 454.127 294.229 Q463.34 284.924 465.701 282.239 Q470.192 277.192 471.951 273.72 Q473.757 270.202 473.757 266.822 Q473.757 261.313 469.868 257.841 Q466.025 254.368 459.822 254.368 Q455.424 254.368 450.516 255.896 Q445.655 257.424 440.1 260.526 L440.1 251.081 Q445.748 248.813 450.655 247.655 Q455.562 246.498 459.637 246.498 Q470.377 246.498 476.766 251.868 Q483.155 257.239 483.155 266.22 Q483.155 270.479 481.535 274.322 Q479.961 278.118 475.748 283.303 Q474.59 284.646 468.387 291.081 Q462.183 297.47 450.887 308.998 Z" fill="#000000" fill-rule="nonzero" fill-opacity="1" /><path clip-path="url(#clip310)" d="M523.155 253.905 Q515.933 253.905 512.275 261.035 Q508.664 268.118 508.664 282.378 Q508.664 296.59 512.275 303.72 Q515.933 310.803 523.155 310.803 Q530.423 310.803 534.034 303.72 Q537.692 296.59 537.692 282.378 Q537.692 268.118 534.034 261.035 Q530.423 253.905 523.155 253.905 M523.155 246.498 Q534.775 246.498 540.886 255.711 Q547.043 264.878 547.043 282.378 Q547.043 299.831 540.886 309.044 Q534.775 318.211 523.155 318.211 Q511.534 318.211 505.377 309.044 Q499.266 299.831 499.266 282.378 Q499.266 264.878 505.377 255.711 Q511.534 246.498 523.155 246.498 Z" fill="#000000" fill-rule="nonzero" fill-opacity="1" /><path clip-path="url(#clip310)" d="M563.479 305.109 L573.247 305.109 L573.247 316.868 L563.479 316.868 L563.479 305.109 Z" fill="#000000" fill-rule="nonzero" fill-opacity="1" /><path clip-path="url(#clip310)" d="M613.617 253.905 Q606.395 253.905 602.738 261.035 Q599.127 268.118 599.127 282.378 Q599.127 296.59 602.738 303.72 Q606.395 310.803 613.617 310.803 Q620.886 310.803 624.497 303.72 Q628.154 296.59 628.154 282.378 Q628.154 268.118 624.497 261.035 Q620.886 253.905 613.617 253.905 M613.617 246.498 Q625.238 246.498 631.349 255.711 Q637.506 264.878 637.506 282.378 Q637.506 299.831 631.349 309.044 Q625.238 318.211 613.617 318.211 Q601.997 318.211 595.84 309.044 Q589.728 299.831 589.728 282.378 Q589.728 264.878 595.84 255.711 Q601.997 246.498 613.617 246.498 Z" fill="#000000" fill-rule="nonzero" fill-opacity="1" /><path clip-path="url(#clip310)" d="M307.579 933.755 L345.391 933.755 L345.391 945.532 L246.977 945.532 L246.977 933.755 L257.799 933.755 Q251.433 930.063 248.378 924.461 Q245.258 918.796 245.258 910.966 Q245.258 897.98 255.571 889.895 Q265.883 881.747 282.689 881.747 Q299.494 881.747 309.807 889.895 Q320.119 897.98 320.119 910.966 Q320.119 918.796 317.064 924.461 Q313.944 930.063 307.579 933.755 M282.689 893.906 Q269.766 893.906 262.446 899.253 Q255.062 904.536 255.062 913.83 Q255.062 923.124 262.446 928.471 Q269.766 933.755 282.689 933.755 Q295.611 933.755 302.995 928.471 Q310.316 923.124 310.316 913.83 Q310.316 904.536 302.995 899.253 Q295.611 893.906 282.689 893.906 Z" fill="#000000" fill-rule="nonzero" fill-opacity="1" /><path clip-path="url(#clip310)" d="M282.434 829.93 Q282.434 844.126 285.681 849.6 Q288.927 855.075 296.757 855.075 Q302.995 855.075 306.688 851.001 Q310.316 846.863 310.316 839.797 Q310.316 830.058 303.441 824.201 Q296.502 818.281 285.044 818.281 L282.434 818.281 L282.434 829.93 M277.596 806.568 L318.273 806.568 L318.273 818.281 L307.451 818.281 Q313.944 822.291 317.064 828.275 Q320.119 834.259 320.119 842.916 Q320.119 853.865 314.008 860.358 Q307.833 866.788 297.521 866.788 Q285.49 866.788 279.379 858.767 Q273.268 850.683 273.268 834.705 L273.268 818.281 L272.122 818.281 Q264.037 818.281 259.645 823.628 Q255.189 828.912 255.189 838.524 Q255.189 844.635 256.653 850.428 Q258.117 856.221 261.045 861.568 L250.224 861.568 Q247.741 855.139 246.532 849.091 Q245.258 843.044 245.258 837.315 Q245.258 821.846 253.279 814.207 Q261.3 806.568 277.596 806.568 Z" fill="#000000" fill-rule="nonzero" fill-opacity="1" /><path clip-path="url(#clip310)" d="M257.926 741.129 Q256.78 743.102 256.271 745.457 Q255.698 747.749 255.698 750.55 Q255.698 760.48 262.191 765.828 Q268.621 771.111 280.715 771.111 L318.273 771.111 L318.273 782.888 L246.977 782.888 L246.977 771.111 L258.054 771.111 Q251.561 767.419 248.441 761.499 Q245.258 755.579 245.258 747.112 Q245.258 745.903 245.449 744.439 Q245.577 742.975 245.895 741.192 L257.926 741.129 Z" fill="#000000" fill-rule="nonzero" fill-opacity="1" /><path clip-path="url(#clip310)" d="M279.697 670.724 L285.426 670.724 L285.426 724.578 Q297.521 723.814 303.887 717.321 Q310.189 710.764 310.189 699.115 Q310.189 692.367 308.534 686.065 Q306.878 679.7 303.568 673.461 L314.645 673.461 Q317.318 679.763 318.719 686.384 Q320.119 693.004 320.119 699.815 Q320.119 716.875 310.189 726.87 Q300.258 736.8 283.325 736.8 Q265.82 736.8 255.571 727.379 Q245.258 717.894 245.258 701.852 Q245.258 687.466 254.552 679.127 Q263.783 670.724 279.697 670.724 M276.259 682.437 Q266.647 682.564 260.918 687.848 Q255.189 693.068 255.189 701.725 Q255.189 711.528 260.727 717.448 Q266.265 723.305 276.323 724.196 L276.259 682.437 Z" fill="#000000" fill-rule="nonzero" fill-opacity="1" /><path clip-path="url(#clip310)" d="M275.241 592.235 L318.273 592.235 L318.273 603.948 L275.623 603.948 Q265.501 603.948 260.472 607.894 Q255.444 611.841 255.444 619.735 Q255.444 629.22 261.491 634.694 Q267.538 640.169 277.978 640.169 L318.273 640.169 L318.273 651.945 L246.977 651.945 L246.977 640.169 L258.054 640.169 Q251.624 635.967 248.441 630.302 Q245.258 624.573 245.258 617.125 Q245.258 604.839 252.897 598.537 Q260.472 592.235 275.241 592.235 Z" fill="#000000" fill-rule="nonzero" fill-opacity="1" /><path clip-path="url(#clip310)" d="M302.104 567.218 L302.104 553.786 L318.273 553.786 L318.273 567.218 L302.104 567.218 Z" fill="#000000" fill-rule="nonzero" fill-opacity="1" /><path clip-path="url(#clip310)" d="M234.437 449.006 L285.171 481.472 L285.171 449.006 L234.437 449.006 M223.233 452.38 L223.233 436.211 L285.171 436.211 L285.171 422.652 L295.866 422.652 L295.866 436.211 L318.273 436.211 L318.273 449.006 L295.866 449.006 L295.866 491.911 L283.453 491.911 L223.233 452.38 Z" fill="#000000" fill-rule="nonzero" fill-opacity="1" /><polyline clip-path="url(#clip312)" style="stroke:#008000; stroke-linecap:round; stroke-linejoin:round; stroke-width:8; stroke-opacity:1; fill:none" points="719.695,287.046 847.997,421.211 976.3,550.651 1104.6,699.848 1232.9,636.029 1361.21,713.737 1489.51,708.946 1617.81,837.595 1746.11,896.469 1874.42,997.823 2002.72,1133.64 2131.02,1185.92 2259.32,1203.89 "/>
<circle clip-path="url(#clip312)" cx="719.695" cy="287.046" r="14.4" fill="#008000" fill-rule="evenodd" fill-opacity="1" stroke="#000000" stroke-opacity="1" stroke-width="6.4"/>
<circle clip-path="url(#clip312)" cx="847.997" cy="421.211" r="14.4" fill="#008000" fill-rule="evenodd" fill-opacity="1" stroke="#000000" stroke-opacity="1" stroke-width="6.4"/>
<circle clip-path="url(#clip312)" cx="976.3" cy="550.651" r="14.4" fill="#008000" fill-rule="evenodd" fill-opacity="1" stroke="#000000" stroke-opacity="1" stroke-width="6.4"/>
<circle clip-path="url(#clip312)" cx="1104.6" cy="699.848" r="14.4" fill="#008000" fill-rule="evenodd" fill-opacity="1" stroke="#000000" stroke-opacity="1" stroke-width="6.4"/>
<circle clip-path="url(#clip312)" cx="1232.9" cy="636.029" r="14.4" fill="#008000" fill-rule="evenodd" fill-opacity="1" stroke="#000000" stroke-opacity="1" stroke-width="6.4"/>
<circle clip-path="url(#clip312)" cx="1361.21" cy="713.737" r="14.4" fill="#008000" fill-rule="evenodd" fill-opacity="1" stroke="#000000" stroke-opacity="1" stroke-width="6.4"/>
<circle clip-path="url(#clip312)" cx="1489.51" cy="708.946" r="14.4" fill="#008000" fill-rule="evenodd" fill-opacity="1" stroke="#000000" stroke-opacity="1" stroke-width="6.4"/>
<circle clip-path="url(#clip312)" cx="1617.81" cy="837.595" r="14.4" fill="#008000" fill-rule="evenodd" fill-opacity="1" stroke="#000000" stroke-opacity="1" stroke-width="6.4"/>
<circle clip-path="url(#clip312)" cx="1746.11" cy="896.469" r="14.4" fill="#008000" fill-rule="evenodd" fill-opacity="1" stroke="#000000" stroke-opacity="1" stroke-width="6.4"/>
<circle clip-path="url(#clip312)" cx="1874.42" cy="997.823" r="14.4" fill="#008000" fill-rule="evenodd" fill-opacity="1" stroke="#000000" stroke-opacity="1" stroke-width="6.4"/>
<circle clip-path="url(#clip312)" cx="2002.72" cy="1133.64" r="14.4" fill="#008000" fill-rule="evenodd" fill-opacity="1" stroke="#000000" stroke-opacity="1" stroke-width="6.4"/>
<circle clip-path="url(#clip312)" cx="2131.02" cy="1185.92" r="14.4" fill="#008000" fill-rule="evenodd" fill-opacity="1" stroke="#000000" stroke-opacity="1" stroke-width="6.4"/>
<circle clip-path="url(#clip312)" cx="2259.32" cy="1203.89" r="14.4" fill="#008000" fill-rule="evenodd" fill-opacity="1" stroke="#000000" stroke-opacity="1" stroke-width="6.4"/>
<polyline clip-path="url(#clip312)" style="stroke:#00008b; stroke-linecap:round; stroke-linejoin:round; stroke-width:8; stroke-opacity:1; fill:none" points="719.695,224.533 847.997,236.87 976.3,321.111 1104.6,414.203 1232.9,506.452 1361.21,601.588 1489.51,691.284 1617.81,770.12 1746.11,848.182 1874.42,921.169 2002.72,995.473 2131.02,1060.62 2259.32,1135.94 "/>
<path clip-path="url(#clip312)" d="M719.695 320.122 L847.997 340.397 L976.3 423.838 L1104.6 518.267 L1232.9 609.196 L1361.21 711.957 L1489.51 788.655 L1617.81 872.284 L1746.11 953.255 L1874.42 1025.77 L2002.72 1099.01 L2131.02 1168.72 L2259.32 1240.32 L2259.32 1028.74 L2131.02 955.601 L2002.72 890.789 L1874.42 817.042 L1746.11 750.674 L1617.81 669.382 L1489.51 585.631 L1361.21 496.178 L1232.9 401.119 L1104.6 312.31 L976.3 223.266 L847.997 133.953 L719.695 127.862  Z" fill="#0000ff" fill-rule="evenodd" fill-opacity="0.1"/>
<polyline clip-path="url(#clip312)" style="stroke:#0000ff; stroke-linecap:round; stroke-linejoin:round; stroke-width:0; stroke-opacity:0.1; fill:none" points="719.695,320.122 847.997,340.397 976.3,423.838 1104.6,518.267 1232.9,609.196 1361.21,711.957 1489.51,788.655 1617.81,872.284 1746.11,953.255 1874.42,1025.77 2002.72,1099.01 2131.02,1168.72 2259.32,1240.32 "/>
</svg>
