<?xml version="1.0" encoding="utf-8"?>
<svg xmlns="http://www.w3.org/2000/svg" xmlns:xlink="http://www.w3.org/1999/xlink" width="600" height="400" viewBox="0 0 2400 1600">
<defs>
  <clipPath id="clip570">
    <rect x="0" y="0" width="2400" height="1600"/>
  </clipPath>
</defs>
<path clip-path="url(#clip570)" d="M0 1600 L2400 1600 L2400 0 L0 0  Z" fill="#ffffff" fill-rule="evenodd" fill-opacity="1"/>
<defs>
  <clipPath id="clip571">
    <rect x="480" y="0" width="1681" height="1600"/>
  </clipPath>
</defs>
<path clip-path="url(#clip570)" d="M735.651 1082.2 L2305.51 1082.2 L2305.51 94.4882 L735.651 94.4882  Z" fill="#ffffff" fill-rule="evenodd" fill-opacity="1"/>
<defs>
  <clipPath id="clip572">
    <rect x="735" y="94" width="1571" height="989"/>
  </clipPath>
</defs>
<polyline clip-path="url(#clip572)" style="stroke:#000000; stroke-linecap:round; stroke-linejoin:round; stroke-width:4; stroke-opacity:0.1; fill:none" points="780.081,1082.2 780.081,94.4882 "/>
<polyline clip-path="url(#clip572)" style="stroke:#000000; stroke-linecap:round; stroke-linejoin:round; stroke-width:4; stroke-opacity:0.1; fill:none" points="1150.33,1082.2 1150.33,94.4882 "/>
<polyline clip-path="url(#clip572)" style="stroke:#000000; stroke-linecap:round; stroke-linejoin:round; stroke-width:4; stroke-opacity:0.1; fill:none" points="1520.58,1082.2 1520.58,94.4882 "/>
<polyline clip-path="url(#clip572)" style="stroke:#000000; stroke-linecap:round; stroke-linejoin:round; stroke-width:4; stroke-opacity:0.1; fill:none" points="1890.83,1082.2 1890.83,94.4882 "/>
<polyline clip-path="url(#clip572)" style="stroke:#000000; stroke-linecap:round; stroke-linejoin:round; stroke-width:4; stroke-opacity:0.1; fill:none" points="2261.08,1082.2 2261.08,94.4882 "/>
<polyline clip-path="url(#clip570)" style="stroke:#000000; stroke-linecap:round; stroke-linejoin:round; stroke-width:8; stroke-opacity:1; fill:none" points="735.651,1082.2 2305.51,1082.2 "/>
<polyline clip-path="url(#clip570)" style="stroke:#000000; stroke-linecap:round; stroke-linejoin:round; stroke-width:8; stroke-opacity:1; fill:none" points="780.081,1082.2 780.081,1063.3 "/>
<polyline clip-path="url(#clip570)" style="stroke:#000000; stroke-linecap:round; stroke-linejoin:round; stroke-width:8; stroke-opacity:1; fill:none" points="1150.33,1082.2 1150.33,1063.3 "/>
<polyline clip-path="url(#clip570)" style="stroke:#000000; stroke-linecap:round; stroke-linejoin:round; stroke-width:8; stroke-opacity:1; fill:none" points="1520.58,1082.2 1520.58,1063.3 "/>
<polyline clip-path="url(#clip570)" style="stroke:#000000; stroke-linecap:round; stroke-linejoin:round; stroke-width:8; stroke-opacity:1; fill:none" points="1890.83,1082.2 1890.83,1063.3 "/>
<polyline clip-path="url(#clip570)" style="stroke:#000000; stroke-linecap:round; stroke-linejoin:round; stroke-width:8; stroke-opacity:1; fill:none" points="2261.08,1082.2 2261.08,1063.3 "/>
<path clip-path="url(#clip570)" d="M734.85 1124.84 Q727.628 1124.84 723.97 1131.97 Q720.359 1139.05 720.359 1153.31 Q720.359 1167.52 723.97 1174.65 Q727.628 1181.73 734.85 1181.73 Q742.118 1181.73 745.729 1174.65 Q749.387 1167.52 749.387 1153.31 Q749.387 1139.05 745.729 1131.97 Q742.118 1124.84 734.85 1124.84 M734.85 1117.43 Q746.47 1117.43 752.581 1126.64 Q758.739 1135.81 758.739 1153.31 Q758.739 1170.76 752.581 1179.98 Q746.47 1189.14 734.85 1189.14 Q723.23 1189.14 717.072 1179.98 Q710.961 1170.76 710.961 1153.31 Q710.961 1135.81 717.072 1126.64 Q723.23 1117.43 734.85 1117.43 Z" fill="#000000" fill-rule="nonzero" fill-opacity="1" /><path clip-path="url(#clip570)" d="M775.174 1176.04 L784.942 1176.04 L784.942 1187.8 L775.174 1187.8 L775.174 1176.04 Z" fill="#000000" fill-rule="nonzero" fill-opacity="1" /><path clip-path="url(#clip570)" d="M825.312 1124.84 Q818.09 1124.84 814.433 1131.97 Q810.822 1139.05 810.822 1153.31 Q810.822 1167.52 814.433 1174.65 Q818.09 1181.73 825.312 1181.73 Q832.581 1181.73 836.192 1174.65 Q839.849 1167.52 839.849 1153.31 Q839.849 1139.05 836.192 1131.97 Q832.581 1124.84 825.312 1124.84 M825.312 1117.43 Q836.933 1117.43 843.044 1126.64 Q849.201 1135.81 849.201 1153.31 Q849.201 1170.76 843.044 1179.98 Q836.933 1189.14 825.312 1189.14 Q813.692 1189.14 807.535 1179.98 Q801.424 1170.76 801.424 1153.31 Q801.424 1135.81 807.535 1126.64 Q813.692 1117.43 825.312 1117.43 Z" fill="#000000" fill-rule="nonzero" fill-opacity="1" /><path clip-path="url(#clip570)" d="M1106.1 1124.84 Q1098.87 1124.84 1095.22 1131.97 Q1091.6 1139.05 1091.6 1153.31 Q1091.6 1167.52 1095.22 1174.65 Q1098.87 1181.73 1106.1 1181.73 Q1113.36 1181.73 1116.97 1174.65 Q1120.63 1167.52 1120.63 1153.31 Q1120.63 1139.05 1116.97 1131.97 Q1113.36 1124.84 1106.1 1124.84 M1106.1 1117.43 Q1117.72 1117.43 1123.83 1126.64 Q1129.98 1135.81 1129.98 1153.31 Q1129.98 1170.76 1123.83 1179.98 Q1117.72 1189.14 1106.1 1189.14 Q1094.48 1189.14 1088.32 1179.98 Q1082.21 1170.76 1082.21 1153.31 Q1082.21 1135.81 1088.32 1126.64 Q1094.48 1117.43 1106.1 1117.43 Z" fill="#000000" fill-rule="nonzero" fill-opacity="1" /><path clip-path="url(#clip570)" d="M1146.42 1176.04 L1156.19 1176.04 L1156.19 1187.8 L1146.42 1187.8 L1146.42 1176.04 Z" fill="#000000" fill-rule="nonzero" fill-opacity="1" /><path clip-path="url(#clip570)" d="M1176.65 1118.68 L1213.36 1118.68 L1213.36 1126.55 L1185.22 1126.55 L1185.22 1143.49 Q1187.25 1142.8 1189.29 1142.48 Q1191.33 1142.11 1193.36 1142.11 Q1204.94 1142.11 1211.7 1148.45 Q1218.46 1154.79 1218.46 1165.62 Q1218.46 1176.78 1211.51 1182.98 Q1204.57 1189.14 1191.93 1189.14 Q1187.58 1189.14 1183.04 1188.4 Q1178.55 1187.66 1173.73 1186.18 L1173.73 1176.78 Q1177.9 1179.05 1182.34 1180.16 Q1186.79 1181.27 1191.74 1181.27 Q1199.75 1181.27 1204.43 1177.06 Q1209.1 1172.85 1209.1 1165.62 Q1209.1 1158.4 1204.43 1154.19 Q1199.75 1149.98 1191.74 1149.98 Q1187.99 1149.98 1184.24 1150.81 Q1180.54 1151.64 1176.65 1153.4 L1176.65 1118.68 Z" fill="#000000" fill-rule="nonzero" fill-opacity="1" /><path clip-path="url(#clip570)" d="M1454.89 1179.93 L1470.17 1179.93 L1470.17 1127.2 L1453.54 1130.53 L1453.54 1122.01 L1470.07 1118.68 L1479.42 1118.68 L1479.42 1179.93 L1494.7 1179.93 L1494.7 1187.8 L1454.89 1187.8 L1454.89 1179.93 Z" fill="#000000" fill-rule="nonzero" fill-opacity="1" /><path clip-path="url(#clip570)" d="M1513.59 1176.04 L1523.36 1176.04 L1523.36 1187.8 L1513.59 1187.8 L1513.59 1176.04 Z" fill="#000000" fill-rule="nonzero" fill-opacity="1" /><path clip-path="url(#clip570)" d="M1563.73 1124.84 Q1556.51 1124.84 1552.85 1131.97 Q1549.24 1139.05 1549.24 1153.31 Q1549.24 1167.52 1552.85 1174.65 Q1556.51 1181.73 1563.73 1181.73 Q1571 1181.73 1574.61 1174.65 Q1578.27 1167.52 1578.27 1153.31 Q1578.27 1139.05 1574.61 1131.97 Q1571 1124.84 1563.73 1124.84 M1563.73 1117.43 Q1575.35 1117.43 1581.46 1126.64 Q1587.62 1135.81 1587.62 1153.31 Q1587.62 1170.76 1581.46 1179.98 Q1575.35 1189.14 1563.73 1189.14 Q1552.11 1189.14 1545.95 1179.98 Q1539.84 1170.76 1539.84 1153.31 Q1539.84 1135.81 1545.95 1126.64 Q1552.11 1117.43 1563.73 1117.43 Z" fill="#000000" fill-rule="nonzero" fill-opacity="1" /><path clip-path="url(#clip570)" d="M1826.13 1179.93 L1841.41 1179.93 L1841.41 1127.2 L1824.79 1130.53 L1824.79 1122.01 L1841.32 1118.68 L1850.67 1118.68 L1850.67 1179.93 L1865.95 1179.93 L1865.95 1187.8 L1826.13 1187.8 L1826.13 1179.93 Z" fill="#000000" fill-rule="nonzero" fill-opacity="1" /><path clip-path="url(#clip570)" d="M1884.84 1176.04 L1894.6 1176.04 L1894.6 1187.8 L1884.84 1187.8 L1884.84 1176.04 Z" fill="#000000" fill-rule="nonzero" fill-opacity="1" /><path clip-path="url(#clip570)" d="M1915.07 1118.68 L1951.78 1118.68 L1951.78 1126.55 L1923.63 1126.55 L1923.63 1143.49 Q1925.67 1142.8 1927.71 1142.48 Q1929.74 1142.11 1931.78 1142.11 Q1943.35 1142.11 1950.11 1148.45 Q1956.87 1154.79 1956.87 1165.62 Q1956.87 1176.78 1949.93 1182.98 Q1942.98 1189.14 1930.35 1189.14 Q1925.99 1189.14 1921.46 1188.4 Q1916.97 1187.66 1912.15 1186.18 L1912.15 1176.78 Q1916.32 1179.05 1920.76 1180.16 Q1925.21 1181.27 1930.16 1181.27 Q1938.17 1181.27 1942.85 1177.06 Q1947.52 1172.85 1947.52 1165.62 Q1947.52 1158.4 1942.85 1154.19 Q1938.17 1149.98 1930.16 1149.98 Q1926.41 1149.98 1922.66 1150.81 Q1918.96 1151.64 1915.07 1153.4 L1915.07 1118.68 Z" fill="#000000" fill-rule="nonzero" fill-opacity="1" /><path clip-path="url(#clip570)" d="M2203.56 1179.93 L2236.2 1179.93 L2236.2 1187.8 L2192.31 1187.8 L2192.31 1179.93 Q2197.63 1174.42 2206.8 1165.16 Q2216.01 1155.86 2218.37 1153.17 Q2222.86 1148.12 2224.62 1144.65 Q2226.43 1141.13 2226.43 1137.75 Q2226.43 1132.24 2222.54 1128.77 Q2218.7 1125.3 2212.49 1125.3 Q2208.1 1125.3 2203.19 1126.83 Q2198.33 1128.36 2192.77 1131.46 L2192.77 1122.01 Q2198.42 1119.74 2203.33 1118.59 Q2208.23 1117.43 2212.31 1117.43 Q2223.05 1117.43 2229.44 1122.8 Q2235.83 1128.17 2235.83 1137.15 Q2235.83 1141.41 2234.21 1145.25 Q2232.63 1149.05 2228.42 1154.24 Q2227.26 1155.58 2221.06 1162.01 Q2214.86 1168.4 2203.56 1179.93 Z" fill="#000000" fill-rule="nonzero" fill-opacity="1" /><path clip-path="url(#clip570)" d="M2255.83 1176.04 L2265.6 1176.04 L2265.6 1187.8 L2255.83 1187.8 L2255.83 1176.04 Z" fill="#000000" fill-rule="nonzero" fill-opacity="1" /><path clip-path="url(#clip570)" d="M2305.97 1124.84 Q2298.74 1124.84 2295.09 1131.97 Q2291.48 1139.05 2291.48 1153.31 Q2291.48 1167.52 2295.09 1174.65 Q2298.74 1181.73 2305.97 1181.73 Q2313.23 1181.73 2316.85 1174.65 Q2320.5 1167.52 2320.5 1153.31 Q2320.5 1139.05 2316.85 1131.97 Q2313.23 1124.84 2305.97 1124.84 M2305.97 1117.43 Q2317.59 1117.43 2323.7 1126.64 Q2329.85 1135.81 2329.85 1153.31 Q2329.85 1170.76 2323.7 1179.98 Q2317.59 1189.14 2305.97 1189.14 Q2294.35 1189.14 2288.19 1179.98 Q2282.08 1170.76 2282.08 1153.31 Q2282.08 1135.81 2288.19 1126.64 Q2294.35 1117.43 2305.97 1117.43 Z" fill="#000000" fill-rule="nonzero" fill-opacity="1" /><path clip-path="url(#clip570)" d="M1461 1278.32 Q1465.39 1270.42 1471.5 1266.67 Q1477.61 1262.91 1485.89 1262.91 Q1497.03 1262.91 1503.08 1270.74 Q1509.12 1278.51 1509.12 1292.9 L1509.12 1335.93 L1497.35 1335.93 L1497.35 1293.28 Q1497.35 1283.03 1493.72 1278.06 Q1490.09 1273.1 1482.64 1273.1 Q1473.54 1273.1 1468.26 1279.15 Q1462.97 1285.19 1462.97 1295.63 L1462.97 1335.93 L1451.2 1335.93 L1451.2 1293.28 Q1451.2 1282.97 1447.57 1278.06 Q1443.94 1273.1 1436.36 1273.1 Q1427.39 1273.1 1422.1 1279.21 Q1416.82 1285.26 1416.82 1295.63 L1416.82 1335.93 L1405.04 1335.93 L1405.04 1264.63 L1416.82 1264.63 L1416.82 1275.71 Q1420.83 1269.15 1426.43 1266.03 Q1432.03 1262.91 1439.74 1262.91 Q1447.5 1262.91 1452.91 1266.86 Q1458.39 1270.81 1461 1278.32 Z" fill="#000000" fill-rule="nonzero" fill-opacity="1" /><path clip-path="url(#clip570)" d="M1587.99 1278.32 Q1592.39 1270.42 1598.5 1266.67 Q1604.61 1262.91 1612.88 1262.91 Q1624.02 1262.91 1630.07 1270.74 Q1636.12 1278.51 1636.12 1292.9 L1636.12 1335.93 L1624.34 1335.93 L1624.34 1293.28 Q1624.34 1283.03 1620.71 1278.06 Q1617.09 1273.1 1609.64 1273.1 Q1600.53 1273.1 1595.25 1279.15 Q1589.97 1285.19 1589.97 1295.63 L1589.97 1335.93 L1578.19 1335.93 L1578.19 1293.28 Q1578.19 1282.97 1574.56 1278.06 Q1570.93 1273.1 1563.36 1273.1 Q1554.38 1273.1 1549.1 1279.21 Q1543.82 1285.26 1543.82 1295.63 L1543.82 1335.93 L1532.04 1335.93 L1532.04 1264.63 L1543.82 1264.63 L1543.82 1275.71 Q1547.83 1269.15 1553.43 1266.03 Q1559.03 1262.91 1566.73 1262.91 Q1574.5 1262.91 1579.91 1266.86 Q1585.38 1270.81 1587.99 1278.32 Z" fill="#000000" fill-rule="nonzero" fill-opacity="1" /><polyline clip-path="url(#clip572)" style="stroke:#000000; stroke-linecap:round; stroke-linejoin:round; stroke-width:4; stroke-opacity:0.1; fill:none" points="735.651,971.258 2305.51,971.258 "/>
<polyline clip-path="url(#clip572)" style="stroke:#000000; stroke-linecap:round; stroke-linejoin:round; stroke-width:4; stroke-opacity:0.1; fill:none" points="735.651,700.782 2305.51,700.782 "/>
<polyline clip-path="url(#clip572)" style="stroke:#000000; stroke-linecap:round; stroke-linejoin:round; stroke-width:4; stroke-opacity:0.1; fill:none" points="735.651,430.306 2305.51,430.306 "/>
<polyline clip-path="url(#clip572)" style="stroke:#000000; stroke-linecap:round; stroke-linejoin:round; stroke-width:4; stroke-opacity:0.1; fill:none" points="735.651,159.83 2305.51,159.83 "/>
<polyline clip-path="url(#clip570)" style="stroke:#000000; stroke-linecap:round; stroke-linejoin:round; stroke-width:8; stroke-opacity:1; fill:none" points="735.651,1082.2 735.651,94.4882 "/>
<polyline clip-path="url(#clip570)" style="stroke:#000000; stroke-linecap:round; stroke-linejoin:round; stroke-width:8; stroke-opacity:1; fill:none" points="735.651,971.258 754.549,971.258 "/>
<polyline clip-path="url(#clip570)" style="stroke:#000000; stroke-linecap:round; stroke-linejoin:round; stroke-width:8; stroke-opacity:1; fill:none" points="735.651,700.782 754.549,700.782 "/>
<polyline clip-path="url(#clip570)" style="stroke:#000000; stroke-linecap:round; stroke-linejoin:round; stroke-width:8; stroke-opacity:1; fill:none" points="735.651,430.306 754.549,430.306 "/>
<polyline clip-path="url(#clip570)" style="stroke:#000000; stroke-linecap:round; stroke-linejoin:round; stroke-width:8; stroke-opacity:1; fill:none" points="735.651,159.83 754.549,159.83 "/>
<path clip-path="url(#clip570)" d="M536.735 997.948 L552.013 997.948 L552.013 945.217 L535.393 948.55 L535.393 940.031 L551.92 936.698 L561.272 936.698 L561.272 997.948 L576.55 997.948 L576.55 1005.82 L536.735 1005.82 L536.735 997.948 Z" fill="#000000" fill-rule="nonzero" fill-opacity="1" /><path clip-path="url(#clip570)" d="M615.439 942.856 Q608.216 942.856 604.559 949.985 Q600.948 957.068 600.948 971.328 Q600.948 985.54 604.559 992.67 Q608.216 999.753 615.439 999.753 Q622.707 999.753 626.318 992.67 Q629.976 985.54 629.976 971.328 Q629.976 957.068 626.318 949.985 Q622.707 942.856 615.439 942.856 M615.439 935.448 Q627.059 935.448 633.17 944.661 Q639.327 953.828 639.327 971.328 Q639.327 988.781 633.17 997.994 Q627.059 1007.16 615.439 1007.16 Q603.818 1007.16 597.661 997.994 Q591.55 988.781 591.55 971.328 Q591.55 953.828 597.661 944.661 Q603.818 935.448 615.439 935.448 Z" fill="#000000" fill-rule="nonzero" fill-opacity="1" /><path clip-path="url(#clip570)" d="M675.762 942.856 Q668.54 942.856 664.883 949.985 Q661.272 957.068 661.272 971.328 Q661.272 985.54 664.883 992.67 Q668.54 999.753 675.762 999.753 Q683.031 999.753 686.642 992.67 Q690.299 985.54 690.299 971.328 Q690.299 957.068 686.642 949.985 Q683.031 942.856 675.762 942.856 M675.762 935.448 Q687.383 935.448 693.494 944.661 Q699.651 953.828 699.651 971.328 Q699.651 988.781 693.494 997.994 Q687.383 1007.16 675.762 1007.16 Q664.142 1007.16 657.985 997.994 Q651.874 988.781 651.874 971.328 Q651.874 953.828 657.985 944.661 Q664.142 935.448 675.762 935.448 Z" fill="#000000" fill-rule="nonzero" fill-opacity="1" /><path clip-path="url(#clip570)" d="M543.17 727.472 L575.809 727.472 L575.809 735.342 L531.921 735.342 L531.921 727.472 Q537.245 721.962 546.411 712.703 Q555.624 703.398 557.985 700.713 Q562.476 695.666 564.235 692.194 Q566.041 688.676 566.041 685.296 Q566.041 679.787 562.152 676.315 Q558.309 672.842 552.106 672.842 Q547.707 672.842 542.8 674.37 Q537.939 675.898 532.383 679 L532.383 669.555 Q538.032 667.287 542.939 666.129 Q547.846 664.972 551.92 664.972 Q562.661 664.972 569.05 670.342 Q575.439 675.713 575.439 684.694 Q575.439 688.953 573.818 692.796 Q572.244 696.592 568.031 701.777 Q566.874 703.12 560.67 709.555 Q554.467 715.944 543.17 727.472 Z" fill="#000000" fill-rule="nonzero" fill-opacity="1" /><path clip-path="url(#clip570)" d="M615.439 672.379 Q608.216 672.379 604.559 679.509 Q600.948 686.592 600.948 700.851 Q600.948 715.064 604.559 722.194 Q608.216 729.277 615.439 729.277 Q622.707 729.277 626.318 722.194 Q629.976 715.064 629.976 700.851 Q629.976 686.592 626.318 679.509 Q622.707 672.379 615.439 672.379 M615.439 664.972 Q627.059 664.972 633.17 674.185 Q639.327 683.352 639.327 700.851 Q639.327 718.305 633.17 727.518 Q627.059 736.685 615.439 736.685 Q603.818 736.685 597.661 727.518 Q591.55 718.305 591.55 700.851 Q591.55 683.352 597.661 674.185 Q603.818 664.972 615.439 664.972 Z" fill="#000000" fill-rule="nonzero" fill-opacity="1" /><path clip-path="url(#clip570)" d="M675.762 672.379 Q668.54 672.379 664.883 679.509 Q661.272 686.592 661.272 700.851 Q661.272 715.064 664.883 722.194 Q668.54 729.277 675.762 729.277 Q683.031 729.277 686.642 722.194 Q690.299 715.064 690.299 700.851 Q690.299 686.592 686.642 679.509 Q683.031 672.379 675.762 672.379 M675.762 664.972 Q687.383 664.972 693.494 674.185 Q699.651 683.352 699.651 700.851 Q699.651 718.305 693.494 727.518 Q687.383 736.685 675.762 736.685 Q664.142 736.685 657.985 727.518 Q651.874 718.305 651.874 700.851 Q651.874 683.352 657.985 674.185 Q664.142 664.972 675.762 664.972 Z" fill="#000000" fill-rule="nonzero" fill-opacity="1" /><path clip-path="url(#clip570)" d="M563.448 427.598 Q570.161 429.033 573.911 433.57 Q577.707 438.107 577.707 444.773 Q577.707 455.005 570.67 460.607 Q563.633 466.208 550.67 466.208 Q546.319 466.208 541.689 465.329 Q537.106 464.495 532.198 462.783 L532.198 453.755 Q536.087 456.023 540.717 457.181 Q545.346 458.338 550.393 458.338 Q559.189 458.338 563.772 454.866 Q568.402 451.394 568.402 444.773 Q568.402 438.662 564.096 435.236 Q559.837 431.764 552.198 431.764 L544.143 431.764 L544.143 424.079 L552.569 424.079 Q559.467 424.079 563.124 421.348 Q566.781 418.57 566.781 413.385 Q566.781 408.061 562.985 405.237 Q559.235 402.366 552.198 402.366 Q548.356 402.366 543.957 403.2 Q539.559 404.033 534.282 405.792 L534.282 397.459 Q539.606 395.977 544.235 395.237 Q548.911 394.496 553.032 394.496 Q563.68 394.496 569.883 399.357 Q576.087 404.172 576.087 412.412 Q576.087 418.153 572.8 422.135 Q569.513 426.07 563.448 427.598 Z" fill="#000000" fill-rule="nonzero" fill-opacity="1" /><path clip-path="url(#clip570)" d="M615.439 401.903 Q608.216 401.903 604.559 409.033 Q600.948 416.116 600.948 430.375 Q600.948 444.588 604.559 451.718 Q608.216 458.801 615.439 458.801 Q622.707 458.801 626.318 451.718 Q629.976 444.588 629.976 430.375 Q629.976 416.116 626.318 409.033 Q622.707 401.903 615.439 401.903 M615.439 394.496 Q627.059 394.496 633.17 403.709 Q639.327 412.875 639.327 430.375 Q639.327 447.829 633.17 457.042 Q627.059 466.208 615.439 466.208 Q603.818 466.208 597.661 457.042 Q591.55 447.829 591.55 430.375 Q591.55 412.875 597.661 403.709 Q603.818 394.496 615.439 394.496 Z" fill="#000000" fill-rule="nonzero" fill-opacity="1" /><path clip-path="url(#clip570)" d="M675.762 401.903 Q668.54 401.903 664.883 409.033 Q661.272 416.116 661.272 430.375 Q661.272 444.588 664.883 451.718 Q668.54 458.801 675.762 458.801 Q683.031 458.801 686.642 451.718 Q690.299 444.588 690.299 430.375 Q690.299 416.116 686.642 409.033 Q683.031 401.903 675.762 401.903 M675.762 394.496 Q687.383 394.496 693.494 403.709 Q699.651 412.875 699.651 430.375 Q699.651 447.829 693.494 457.042 Q687.383 466.208 675.762 466.208 Q664.142 466.208 657.985 457.042 Q651.874 447.829 651.874 430.375 Q651.874 412.875 657.985 403.709 Q664.142 394.496 675.762 394.496 Z" fill="#000000" fill-rule="nonzero" fill-opacity="1" /><path clip-path="url(#clip570)" d="M560.809 133.418 L537.198 170.316 L560.809 170.316 L560.809 133.418 M558.356 125.27 L570.115 125.27 L570.115 170.316 L579.976 170.316 L579.976 178.094 L570.115 178.094 L570.115 194.39 L560.809 194.39 L560.809 178.094 L529.606 178.094 L529.606 169.066 L558.356 125.27 Z" fill="#000000" fill-rule="nonzero" fill-opacity="1" /><path clip-path="url(#clip570)" d="M615.439 131.427 Q608.216 131.427 604.559 138.557 Q600.948 145.64 600.948 159.899 Q600.948 174.112 604.559 181.242 Q608.216 188.325 615.439 188.325 Q622.707 188.325 626.318 181.242 Q629.976 174.112 629.976 159.899 Q629.976 145.64 626.318 138.557 Q622.707 131.427 615.439 131.427 M615.439 124.02 Q627.059 124.02 633.17 133.233 Q639.327 142.399 639.327 159.899 Q639.327 177.353 633.17 186.566 Q627.059 195.732 615.439 195.732 Q603.818 195.732 597.661 186.566 Q591.55 177.353 591.55 159.899 Q591.55 142.399 597.661 133.233 Q603.818 124.02 615.439 124.02 Z" fill="#000000" fill-rule="nonzero" fill-opacity="1" /><path clip-path="url(#clip570)" d="M675.762 131.427 Q668.54 131.427 664.883 138.557 Q661.272 145.64 661.272 159.899 Q661.272 174.112 664.883 181.242 Q668.54 188.325 675.762 188.325 Q683.031 188.325 686.642 181.242 Q690.299 174.112 690.299 159.899 Q690.299 145.64 686.642 138.557 Q683.031 131.427 675.762 131.427 M675.762 124.02 Q687.383 124.02 693.494 133.233 Q699.651 142.399 699.651 159.899 Q699.651 177.353 693.494 186.566 Q687.383 195.732 675.762 195.732 Q664.142 195.732 657.985 186.566 Q651.874 177.353 651.874 159.899 Q651.874 142.399 657.985 133.233 Q664.142 124.02 675.762 124.02 Z" fill="#000000" fill-rule="nonzero" fill-opacity="1" /><path clip-path="url(#clip570)" d="M492.212 806.497 L393.798 806.497 L393.798 794.784 L438.103 794.784 Q447.333 794.784 452.044 790.391 Q456.755 785.999 456.755 777.405 Q456.755 767.984 451.407 763.274 Q446.06 758.499 435.366 758.499 L393.798 758.499 L393.798 746.786 L448.67 746.786 Q452.49 746.786 454.336 745.704 Q456.118 744.558 456.118 742.203 Q456.118 741.63 455.8 740.612 Q455.418 739.593 454.654 737.811 L464.075 737.811 Q465.539 740.421 466.24 742.776 Q466.94 745.068 466.94 747.296 Q466.94 751.688 464.457 754.298 Q461.975 756.908 456.882 757.863 Q461.911 761.046 464.457 765.693 Q466.94 770.276 466.94 776.514 Q466.94 783.007 464.457 787.591 Q461.975 792.11 457.009 794.784 L492.212 794.784 L492.212 806.497 Z" fill="#000000" fill-rule="nonzero" fill-opacity="1" /><path clip-path="url(#clip570)" d="M428.618 675.427 Q415.887 675.427 408.885 680.71 Q401.882 685.93 401.882 695.415 Q401.882 704.836 408.885 710.12 Q415.887 715.34 428.618 715.34 Q441.286 715.34 448.288 710.12 Q455.291 704.836 455.291 695.415 Q455.291 685.93 448.288 680.71 Q441.286 675.427 428.618 675.427 M456.245 663.714 Q474.451 663.714 483.3 671.798 Q492.212 679.883 492.212 696.561 Q492.212 702.736 491.257 708.21 Q490.366 713.685 488.456 718.841 L477.061 718.841 Q479.862 713.685 481.199 708.656 Q482.536 703.627 482.536 698.407 Q482.536 686.885 476.488 681.156 Q470.505 675.427 458.346 675.427 L452.553 675.427 Q458.855 679.055 461.975 684.721 Q465.094 690.386 465.094 698.28 Q465.094 711.393 455.1 719.414 Q445.105 727.435 428.618 727.435 Q412.067 727.435 402.073 719.414 Q392.079 711.393 392.079 698.28 Q392.079 690.386 395.198 684.721 Q398.317 679.055 404.619 675.427 L393.798 675.427 L393.798 663.714 L456.245 663.714 Z" fill="#000000" fill-rule="nonzero" fill-opacity="1" /><path clip-path="url(#clip570)" d="M370.054 577.331 L370.054 566.51 L477.189 599.611 L477.189 610.433 L370.054 577.331 Z" fill="#000000" fill-rule="nonzero" fill-opacity="1" /><path clip-path="url(#clip570)" d="M492.212 513.992 L393.798 513.992 L393.798 502.28 L438.103 502.28 Q447.333 502.28 452.044 497.887 Q456.755 493.495 456.755 484.901 Q456.755 475.48 451.407 470.769 Q446.06 465.995 435.366 465.995 L393.798 465.995 L393.798 454.282 L448.67 454.282 Q452.49 454.282 454.336 453.2 Q456.118 452.054 456.118 449.699 Q456.118 449.126 455.8 448.107 Q455.418 447.089 454.654 445.307 L464.075 445.307 Q465.539 447.916 466.24 450.272 Q466.94 452.563 466.94 454.791 Q466.94 459.184 464.457 461.794 Q461.975 464.404 456.882 465.358 Q461.911 468.541 464.457 473.188 Q466.94 477.772 466.94 484.01 Q466.94 490.503 464.457 495.086 Q461.975 499.606 457.009 502.28 L492.212 502.28 L492.212 513.992 Z" fill="#000000" fill-rule="nonzero" fill-opacity="1" /><path clip-path="url(#clip570)" d="M370.054 429.329 L370.054 416.47 L454.272 416.47 L454.272 370.191 L465.094 370.191 L465.094 429.329 L370.054 429.329 Z" fill="#000000" fill-rule="nonzero" fill-opacity="1" /><polyline clip-path="url(#clip572)" style="stroke:#009af9; stroke-linecap:round; stroke-linejoin:round; stroke-width:8; stroke-opacity:1; fill:none" points="878.814,424.377 977.548,327.356 1076.28,282.81 1175.01,290.217 1273.75,297.815 1372.48,343.52 1471.21,389.226 1569.95,435.457 1668.68,482.214 1767.41,529.096 1866.15,625.425 1964.88,721.754 2063.62,816.05 2162.35,908.351 2261.08,1000.65 "/>
<polyline clip-path="url(#clip572)" style="stroke:#008000; stroke-linecap:round; stroke-linejoin:round; stroke-width:8; stroke-opacity:1; fill:none" points="780.081,521.398 1026.67,279.088 1273.25,297.586 1520.58,412.078 1767.17,528.855 2013.75,769.437 2261.08,1000.65 "/>
<circle clip-path="url(#clip572)" cx="780.081" cy="521.398" r="28.8" fill="#008000" fill-rule="evenodd" fill-opacity="1" stroke="#000000" stroke-opacity="1" stroke-width="6.4"/>
<circle clip-path="url(#clip572)" cx="1026.67" cy="279.088" r="28.8" fill="#008000" fill-rule="evenodd" fill-opacity="1" stroke="#000000" stroke-opacity="1" stroke-width="6.4"/>
<circle clip-path="url(#clip572)" cx="1273.25" cy="297.586" r="28.8" fill="#008000" fill-rule="evenodd" fill-opacity="1" stroke="#000000" stroke-opacity="1" stroke-width="6.4"/>
<circle clip-path="url(#clip572)" cx="1520.58" cy="412.078" r="28.8" fill="#008000" fill-rule="evenodd" fill-opacity="1" stroke="#000000" stroke-opacity="1" stroke-width="6.4"/>
<circle clip-path="url(#clip572)" cx="1767.17" cy="528.855" r="28.8" fill="#008000" fill-rule="evenodd" fill-opacity="1" stroke="#000000" stroke-opacity="1" stroke-width="6.4"/>
<circle clip-path="url(#clip572)" cx="2013.75" cy="769.437" r="28.8" fill="#008000" fill-rule="evenodd" fill-opacity="1" stroke="#000000" stroke-opacity="1" stroke-width="6.4"/>
<circle clip-path="url(#clip572)" cx="2261.08" cy="1000.65" r="28.8" fill="#008000" fill-rule="evenodd" fill-opacity="1" stroke="#000000" stroke-opacity="1" stroke-width="6.4"/>
<circle clip-path="url(#clip572)" cx="878.814" cy="122.442" r="28.8" fill="#008000" fill-rule="evenodd" fill-opacity="1" stroke="#000000" stroke-opacity="1" stroke-width="6.4"/>
<circle clip-path="url(#clip572)" cx="2261.08" cy="1054.25" r="28.8" fill="#008000" fill-rule="evenodd" fill-opacity="1" stroke="#000000" stroke-opacity="1" stroke-width="6.4"/>
<line clip-path="url(#clip572)" x1="878.814" y1="122.442" x2="878.814" y2="90.4423" style="stroke:#0000ff; stroke-width:6.4; stroke-opacity:1"/>
<line clip-path="url(#clip572)" x1="878.814" y1="122.442" x2="846.814" y2="122.442" style="stroke:#0000ff; stroke-width:6.4; stroke-opacity:1"/>
<line clip-path="url(#clip572)" x1="878.814" y1="122.442" x2="878.814" y2="154.442" style="stroke:#0000ff; stroke-width:6.4; stroke-opacity:1"/>
<line clip-path="url(#clip572)" x1="878.814" y1="122.442" x2="910.814" y2="122.442" style="stroke:#0000ff; stroke-width:6.4; stroke-opacity:1"/>
<line clip-path="url(#clip572)" x1="2261.08" y1="1054.25" x2="2261.08" y2="1022.25" style="stroke:#0000ff; stroke-width:6.4; stroke-opacity:1"/>
<line clip-path="url(#clip572)" x1="2261.08" y1="1054.25" x2="2229.08" y2="1054.25" style="stroke:#0000ff; stroke-width:6.4; stroke-opacity:1"/>
<line clip-path="url(#clip572)" x1="2261.08" y1="1054.25" x2="2261.08" y2="1086.25" style="stroke:#0000ff; stroke-width:6.4; stroke-opacity:1"/>
<line clip-path="url(#clip572)" x1="2261.08" y1="1054.25" x2="2293.08" y2="1054.25" style="stroke:#0000ff; stroke-width:6.4; stroke-opacity:1"/>
</svg>
