<?xml version="1.0" encoding="utf-8"?>
<svg xmlns="http://www.w3.org/2000/svg" xmlns:xlink="http://www.w3.org/1999/xlink" width="600" height="400" viewBox="0 0 2400 1600">
<defs>
  <clipPath id="clip610">
    <rect x="0" y="0" width="2400" height="1600"/>
  </clipPath>
</defs>
<path clip-path="url(#clip610)" d="M0 1600 L2400 1600 L2400 0 L0 0  Z" fill="#ffffff" fill-rule="evenodd" fill-opacity="1"/>
<defs>
  <clipPath id="clip611">
    <rect x="480" y="0" width="1681" height="1600"/>
  </clipPath>
</defs>
<path clip-path="url(#clip610)" d="M685.08 1273.7 L2305.51 1273.7 L2305.51 94.4882 L685.08 94.4882  Z" fill="#ffffff" fill-rule="evenodd" fill-opacity="1"/>
<defs>
  <clipPath id="clip612">
    <rect x="685" y="94" width="1621" height="1180"/>
  </clipPath>
</defs>
<polyline clip-path="url(#clip612)" style="stroke:#000000; stroke-linecap:round; stroke-linejoin:round; stroke-width:4; stroke-opacity:0.1; fill:none" points="730.941,1273.7 730.941,94.4882 "/>
<polyline clip-path="url(#clip612)" style="stroke:#000000; stroke-linecap:round; stroke-linejoin:round; stroke-width:4; stroke-opacity:0.1; fill:none" points="1078.38,1273.7 1078.38,94.4882 "/>
<polyline clip-path="url(#clip612)" style="stroke:#000000; stroke-linecap:round; stroke-linejoin:round; stroke-width:4; stroke-opacity:0.1; fill:none" points="1425.81,1273.7 1425.81,94.4882 "/>
<polyline clip-path="url(#clip612)" style="stroke:#000000; stroke-linecap:round; stroke-linejoin:round; stroke-width:4; stroke-opacity:0.1; fill:none" points="1773.24,1273.7 1773.24,94.4882 "/>
<polyline clip-path="url(#clip612)" style="stroke:#000000; stroke-linecap:round; stroke-linejoin:round; stroke-width:4; stroke-opacity:0.1; fill:none" points="2120.68,1273.7 2120.68,94.4882 "/>
<polyline clip-path="url(#clip610)" style="stroke:#000000; stroke-linecap:round; stroke-linejoin:round; stroke-width:8; stroke-opacity:1; fill:none" points="685.08,1273.7 2305.51,1273.7 "/>
<polyline clip-path="url(#clip610)" style="stroke:#000000; stroke-linecap:round; stroke-linejoin:round; stroke-width:8; stroke-opacity:1; fill:none" points="730.941,1273.7 730.941,1254.8 "/>
<polyline clip-path="url(#clip610)" style="stroke:#000000; stroke-linecap:round; stroke-linejoin:round; stroke-width:8; stroke-opacity:1; fill:none" points="1078.38,1273.7 1078.38,1254.8 "/>
<polyline clip-path="url(#clip610)" style="stroke:#000000; stroke-linecap:round; stroke-linejoin:round; stroke-width:8; stroke-opacity:1; fill:none" points="1425.81,1273.7 1425.81,1254.8 "/>
<polyline clip-path="url(#clip610)" style="stroke:#000000; stroke-linecap:round; stroke-linejoin:round; stroke-width:8; stroke-opacity:1; fill:none" points="1773.24,1273.7 1773.24,1254.8 "/>
<polyline clip-path="url(#clip610)" style="stroke:#000000; stroke-linecap:round; stroke-linejoin:round; stroke-width:8; stroke-opacity:1; fill:none" points="2120.68,1273.7 2120.68,1254.8 "/>
<path clip-path="url(#clip610)" d="M655.548 1316.33 Q648.326 1316.33 644.669 1323.46 Q641.057 1330.55 641.057 1344.81 Q641.057 1359.02 644.669 1366.15 Q648.326 1373.23 655.548 1373.23 Q662.817 1373.23 666.428 1366.15 Q670.085 1359.02 670.085 1344.81 Q670.085 1330.55 666.428 1323.46 Q662.817 1316.33 655.548 1316.33 M655.548 1308.93 Q667.168 1308.93 673.28 1318.14 Q679.437 1327.31 679.437 1344.81 Q679.437 1362.26 673.28 1371.47 Q667.168 1380.64 655.548 1380.64 Q643.928 1380.64 637.77 1371.47 Q631.659 1362.26 631.659 1344.81 Q631.659 1327.31 637.77 1318.14 Q643.928 1308.93 655.548 1308.93 Z" fill="#000000" fill-rule="nonzero" fill-opacity="1" /><path clip-path="url(#clip610)" d="M695.872 1367.54 L705.64 1367.54 L705.64 1379.3 L695.872 1379.3 L695.872 1367.54 Z" fill="#000000" fill-rule="nonzero" fill-opacity="1" /><path clip-path="url(#clip610)" d="M746.011 1316.33 Q738.788 1316.33 735.131 1323.46 Q731.52 1330.55 731.52 1344.81 Q731.52 1359.02 735.131 1366.15 Q738.788 1373.23 746.011 1373.23 Q753.279 1373.23 756.89 1366.15 Q760.548 1359.02 760.548 1344.81 Q760.548 1330.55 756.89 1323.46 Q753.279 1316.33 746.011 1316.33 M746.011 1308.93 Q757.631 1308.93 763.742 1318.14 Q769.899 1327.31 769.899 1344.81 Q769.899 1362.26 763.742 1371.47 Q757.631 1380.64 746.011 1380.64 Q734.39 1380.64 728.233 1371.47 Q722.122 1362.26 722.122 1344.81 Q722.122 1327.31 728.233 1318.14 Q734.39 1308.93 746.011 1308.93 Z" fill="#000000" fill-rule="nonzero" fill-opacity="1" /><path clip-path="url(#clip610)" d="M806.334 1316.33 Q799.112 1316.33 795.455 1323.46 Q791.844 1330.55 791.844 1344.81 Q791.844 1359.02 795.455 1366.15 Q799.112 1373.23 806.334 1373.23 Q813.603 1373.23 817.214 1366.15 Q820.871 1359.02 820.871 1344.81 Q820.871 1330.55 817.214 1323.46 Q813.603 1316.33 806.334 1316.33 M806.334 1308.93 Q817.955 1308.93 824.066 1318.14 Q830.223 1327.31 830.223 1344.81 Q830.223 1362.26 824.066 1371.47 Q817.955 1380.64 806.334 1380.64 Q794.714 1380.64 788.557 1371.47 Q782.446 1362.26 782.446 1344.81 Q782.446 1327.31 788.557 1318.14 Q794.714 1308.93 806.334 1308.93 Z" fill="#000000" fill-rule="nonzero" fill-opacity="1" /><path clip-path="url(#clip610)" d="M1003.98 1316.33 Q996.755 1316.33 993.098 1323.46 Q989.487 1330.55 989.487 1344.81 Q989.487 1359.02 993.098 1366.15 Q996.755 1373.23 1003.98 1373.23 Q1011.25 1373.23 1014.86 1366.15 Q1018.51 1359.02 1018.51 1344.81 Q1018.51 1330.55 1014.86 1323.46 Q1011.25 1316.33 1003.98 1316.33 M1003.98 1308.93 Q1015.6 1308.93 1021.71 1318.14 Q1027.87 1327.31 1027.87 1344.81 Q1027.87 1362.26 1021.71 1371.47 Q1015.6 1380.64 1003.98 1380.64 Q992.357 1380.64 986.2 1371.47 Q980.089 1362.26 980.089 1344.81 Q980.089 1327.31 986.2 1318.14 Q992.357 1308.93 1003.98 1308.93 Z" fill="#000000" fill-rule="nonzero" fill-opacity="1" /><path clip-path="url(#clip610)" d="M1044.3 1367.54 L1054.07 1367.54 L1054.07 1379.3 L1044.3 1379.3 L1044.3 1367.54 Z" fill="#000000" fill-rule="nonzero" fill-opacity="1" /><path clip-path="url(#clip610)" d="M1082.5 1371.43 L1115.13 1371.43 L1115.13 1379.3 L1071.25 1379.3 L1071.25 1371.43 Q1076.57 1365.92 1085.74 1356.66 Q1094.95 1347.35 1097.31 1344.67 Q1101.8 1339.62 1103.56 1336.15 Q1105.37 1332.63 1105.37 1329.25 Q1105.37 1323.74 1101.48 1320.27 Q1097.63 1316.8 1091.43 1316.8 Q1087.03 1316.8 1082.13 1318.32 Q1077.26 1319.85 1071.71 1322.95 L1071.71 1313.51 Q1077.36 1311.24 1082.26 1310.08 Q1087.17 1308.93 1091.25 1308.93 Q1101.99 1308.93 1108.38 1314.3 Q1114.76 1319.67 1114.76 1328.65 Q1114.76 1332.91 1113.14 1336.75 Q1111.57 1340.55 1107.36 1345.73 Q1106.2 1347.07 1100 1353.51 Q1093.79 1359.9 1082.5 1371.43 Z" fill="#000000" fill-rule="nonzero" fill-opacity="1" /><path clip-path="url(#clip610)" d="M1134.86 1310.18 L1171.57 1310.18 L1171.57 1318.05 L1143.42 1318.05 L1143.42 1334.99 Q1145.46 1334.3 1147.5 1333.97 Q1149.53 1333.6 1151.57 1333.6 Q1163.14 1333.6 1169.9 1339.94 Q1176.66 1346.29 1176.66 1357.12 Q1176.66 1368.28 1169.72 1374.48 Q1162.77 1380.64 1150.13 1380.64 Q1145.78 1380.64 1141.25 1379.9 Q1136.75 1379.16 1131.94 1377.68 L1131.94 1368.28 Q1136.11 1370.55 1140.55 1371.66 Q1145 1372.77 1149.95 1372.77 Q1157.96 1372.77 1162.63 1368.56 Q1167.31 1364.34 1167.31 1357.12 Q1167.31 1349.9 1162.63 1345.68 Q1157.96 1341.47 1149.95 1341.47 Q1146.2 1341.47 1142.45 1342.31 Q1138.75 1343.14 1134.86 1344.9 L1134.86 1310.18 Z" fill="#000000" fill-rule="nonzero" fill-opacity="1" /><path clip-path="url(#clip610)" d="M1350.42 1316.33 Q1343.19 1316.33 1339.54 1323.46 Q1335.93 1330.55 1335.93 1344.81 Q1335.93 1359.02 1339.54 1366.15 Q1343.19 1373.23 1350.42 1373.23 Q1357.68 1373.23 1361.3 1366.15 Q1364.95 1359.02 1364.95 1344.81 Q1364.95 1330.55 1361.3 1323.46 Q1357.68 1316.33 1350.42 1316.33 M1350.42 1308.93 Q1362.04 1308.93 1368.15 1318.14 Q1374.3 1327.31 1374.3 1344.81 Q1374.3 1362.26 1368.15 1371.47 Q1362.04 1380.64 1350.42 1380.64 Q1338.8 1380.64 1332.64 1371.47 Q1326.53 1362.26 1326.53 1344.81 Q1326.53 1327.31 1332.64 1318.14 Q1338.8 1308.93 1350.42 1308.93 Z" fill="#000000" fill-rule="nonzero" fill-opacity="1" /><path clip-path="url(#clip610)" d="M1390.74 1367.54 L1400.51 1367.54 L1400.51 1379.3 L1390.74 1379.3 L1390.74 1367.54 Z" fill="#000000" fill-rule="nonzero" fill-opacity="1" /><path clip-path="url(#clip610)" d="M1420.97 1310.18 L1457.68 1310.18 L1457.68 1318.05 L1429.54 1318.05 L1429.54 1334.99 Q1431.57 1334.3 1433.61 1333.97 Q1435.65 1333.6 1437.68 1333.6 Q1449.26 1333.6 1456.02 1339.94 Q1462.78 1346.29 1462.78 1357.12 Q1462.78 1368.28 1455.83 1374.48 Q1448.89 1380.64 1436.25 1380.64 Q1431.9 1380.64 1427.36 1379.9 Q1422.87 1379.16 1418.05 1377.68 L1418.05 1368.28 Q1422.22 1370.55 1426.67 1371.66 Q1431.11 1372.77 1436.06 1372.77 Q1444.07 1372.77 1448.75 1368.56 Q1453.42 1364.34 1453.42 1357.12 Q1453.42 1349.9 1448.75 1345.68 Q1444.07 1341.47 1436.06 1341.47 Q1432.31 1341.47 1428.56 1342.31 Q1424.86 1343.14 1420.97 1344.9 L1420.97 1310.18 Z" fill="#000000" fill-rule="nonzero" fill-opacity="1" /><path clip-path="url(#clip610)" d="M1501.2 1316.33 Q1493.98 1316.33 1490.32 1323.46 Q1486.71 1330.55 1486.71 1344.81 Q1486.71 1359.02 1490.32 1366.15 Q1493.98 1373.23 1501.2 1373.23 Q1508.47 1373.23 1512.08 1366.15 Q1515.74 1359.02 1515.74 1344.81 Q1515.74 1330.55 1512.08 1323.46 Q1508.47 1316.33 1501.2 1316.33 M1501.2 1308.93 Q1512.82 1308.93 1518.93 1318.14 Q1525.09 1327.31 1525.09 1344.81 Q1525.09 1362.26 1518.93 1371.47 Q1512.82 1380.64 1501.2 1380.64 Q1489.58 1380.64 1483.42 1371.47 Q1477.31 1362.26 1477.31 1344.81 Q1477.31 1327.31 1483.42 1318.14 Q1489.58 1308.93 1501.2 1308.93 Z" fill="#000000" fill-rule="nonzero" fill-opacity="1" /><path clip-path="url(#clip610)" d="M1698.85 1316.33 Q1691.62 1316.33 1687.97 1323.46 Q1684.35 1330.55 1684.35 1344.81 Q1684.35 1359.02 1687.97 1366.15 Q1691.62 1373.23 1698.85 1373.23 Q1706.11 1373.23 1709.72 1366.15 Q1713.38 1359.02 1713.38 1344.81 Q1713.38 1330.55 1709.72 1323.46 Q1706.11 1316.33 1698.85 1316.33 M1698.85 1308.93 Q1710.47 1308.93 1716.58 1318.14 Q1722.73 1327.31 1722.73 1344.81 Q1722.73 1362.26 1716.58 1371.47 Q1710.47 1380.64 1698.85 1380.64 Q1687.22 1380.64 1681.07 1371.47 Q1674.96 1362.26 1674.96 1344.81 Q1674.96 1327.31 1681.07 1318.14 Q1687.22 1308.93 1698.85 1308.93 Z" fill="#000000" fill-rule="nonzero" fill-opacity="1" /><path clip-path="url(#clip610)" d="M1739.17 1367.54 L1748.94 1367.54 L1748.94 1379.3 L1739.17 1379.3 L1739.17 1367.54 Z" fill="#000000" fill-rule="nonzero" fill-opacity="1" /><path clip-path="url(#clip610)" d="M1766.95 1310.18 L1811.39 1310.18 L1811.39 1314.16 L1786.3 1379.3 L1776.53 1379.3 L1800.14 1318.05 L1766.95 1318.05 L1766.95 1310.18 Z" fill="#000000" fill-rule="nonzero" fill-opacity="1" /><path clip-path="url(#clip610)" d="M1829.72 1310.18 L1866.44 1310.18 L1866.44 1318.05 L1838.29 1318.05 L1838.29 1334.99 Q1840.33 1334.3 1842.36 1333.97 Q1844.4 1333.6 1846.44 1333.6 Q1858.01 1333.6 1864.77 1339.94 Q1871.53 1346.29 1871.53 1357.12 Q1871.53 1368.28 1864.59 1374.48 Q1857.64 1380.64 1845 1380.64 Q1840.65 1380.64 1836.11 1379.9 Q1831.62 1379.16 1826.81 1377.68 L1826.81 1368.28 Q1830.97 1370.55 1835.42 1371.66 Q1839.86 1372.77 1844.82 1372.77 Q1852.83 1372.77 1857.5 1368.56 Q1862.18 1364.34 1862.18 1357.12 Q1862.18 1349.9 1857.5 1345.68 Q1852.83 1341.47 1844.82 1341.47 Q1841.07 1341.47 1837.32 1342.31 Q1833.61 1343.14 1829.72 1344.9 L1829.72 1310.18 Z" fill="#000000" fill-rule="nonzero" fill-opacity="1" /><path clip-path="url(#clip610)" d="M2024.82 1371.43 L2040.1 1371.43 L2040.1 1318.69 L2023.48 1322.03 L2023.48 1313.51 L2040.01 1310.18 L2049.36 1310.18 L2049.36 1371.43 L2064.64 1371.43 L2064.64 1379.3 L2024.82 1379.3 L2024.82 1371.43 Z" fill="#000000" fill-rule="nonzero" fill-opacity="1" /><path clip-path="url(#clip610)" d="M2083.52 1367.54 L2093.29 1367.54 L2093.29 1379.3 L2083.52 1379.3 L2083.52 1367.54 Z" fill="#000000" fill-rule="nonzero" fill-opacity="1" /><path clip-path="url(#clip610)" d="M2133.66 1316.33 Q2126.44 1316.33 2122.78 1323.46 Q2119.17 1330.55 2119.17 1344.81 Q2119.17 1359.02 2122.78 1366.15 Q2126.44 1373.23 2133.66 1373.23 Q2140.93 1373.23 2144.54 1366.15 Q2148.2 1359.02 2148.2 1344.81 Q2148.2 1330.55 2144.54 1323.46 Q2140.93 1316.33 2133.66 1316.33 M2133.66 1308.93 Q2145.28 1308.93 2151.39 1318.14 Q2157.55 1327.31 2157.55 1344.81 Q2157.55 1362.26 2151.39 1371.47 Q2145.28 1380.64 2133.66 1380.64 Q2122.04 1380.64 2115.89 1371.47 Q2109.77 1362.26 2109.77 1344.81 Q2109.77 1327.31 2115.89 1318.14 Q2122.04 1308.93 2133.66 1308.93 Z" fill="#000000" fill-rule="nonzero" fill-opacity="1" /><path clip-path="url(#clip610)" d="M2193.99 1316.33 Q2186.76 1316.33 2183.11 1323.46 Q2179.5 1330.55 2179.5 1344.81 Q2179.5 1359.02 2183.11 1366.15 Q2186.76 1373.23 2193.99 1373.23 Q2201.26 1373.23 2204.87 1366.15 Q2208.52 1359.02 2208.52 1344.81 Q2208.52 1330.55 2204.87 1323.46 Q2201.26 1316.33 2193.99 1316.33 M2193.99 1308.93 Q2205.61 1308.93 2211.72 1318.14 Q2217.88 1327.31 2217.88 1344.81 Q2217.88 1362.26 2211.72 1371.47 Q2205.61 1380.64 2193.99 1380.64 Q2182.37 1380.64 2176.21 1371.47 Q2170.1 1362.26 2170.1 1344.81 Q2170.1 1327.31 2176.21 1318.14 Q2182.37 1308.93 2193.99 1308.93 Z" fill="#000000" fill-rule="nonzero" fill-opacity="1" /><path clip-path="url(#clip610)" d="M1380.84 1484.39 L1380.84 1527.42 L1369.13 1527.42 L1369.13 1484.77 Q1369.13 1474.65 1365.18 1469.62 Q1361.23 1464.59 1353.34 1464.59 Q1343.86 1464.59 1338.38 1470.64 Q1332.91 1476.69 1332.91 1487.13 L1332.91 1527.42 L1321.13 1527.42 L1321.13 1428.37 L1332.91 1428.37 L1332.91 1467.2 Q1337.11 1460.77 1342.77 1457.59 Q1348.5 1454.41 1355.95 1454.41 Q1368.24 1454.41 1374.54 1462.05 Q1380.84 1469.62 1380.84 1484.39 Z" fill="#000000" fill-rule="nonzero" fill-opacity="1" /><path clip-path="url(#clip610)" d="M1431.83 1464.34 Q1422.41 1464.34 1416.93 1471.72 Q1411.46 1479.04 1411.46 1491.84 Q1411.46 1504.63 1416.87 1512.02 Q1422.34 1519.34 1431.83 1519.34 Q1441.19 1519.34 1446.66 1511.96 Q1452.14 1504.57 1452.14 1491.84 Q1452.14 1479.17 1446.66 1471.79 Q1441.19 1464.34 1431.83 1464.34 M1431.83 1454.41 Q1447.11 1454.41 1455.83 1464.34 Q1464.55 1474.27 1464.55 1491.84 Q1464.55 1509.35 1455.83 1519.34 Q1447.11 1529.27 1431.83 1529.27 Q1416.49 1529.27 1407.77 1519.34 Q1399.11 1509.35 1399.11 1491.84 Q1399.11 1474.27 1407.77 1464.34 Q1416.49 1454.41 1431.83 1454.41 Z" fill="#000000" fill-rule="nonzero" fill-opacity="1" /><path clip-path="url(#clip610)" d="M1482.76 1499.29 L1482.76 1456.13 L1494.47 1456.13 L1494.47 1498.84 Q1494.47 1508.96 1498.42 1514.06 Q1502.36 1519.08 1510.26 1519.08 Q1519.74 1519.08 1525.21 1513.04 Q1530.75 1506.99 1530.75 1496.55 L1530.75 1456.13 L1542.47 1456.13 L1542.47 1527.42 L1530.75 1527.42 L1530.75 1516.47 Q1526.49 1522.97 1520.82 1526.15 Q1515.22 1529.27 1507.77 1529.27 Q1495.49 1529.27 1489.12 1521.63 Q1482.76 1513.99 1482.76 1499.29 M1512.23 1454.41 L1512.23 1454.41 Z" fill="#000000" fill-rule="nonzero" fill-opacity="1" /><path clip-path="url(#clip610)" d="M1607.91 1467.08 Q1605.93 1465.93 1603.58 1465.42 Q1601.28 1464.85 1598.48 1464.85 Q1588.55 1464.85 1583.21 1471.34 Q1577.92 1477.77 1577.92 1489.87 L1577.92 1527.42 L1566.15 1527.42 L1566.15 1456.13 L1577.92 1456.13 L1577.92 1467.2 Q1581.61 1460.71 1587.53 1457.59 Q1593.46 1454.41 1601.92 1454.41 Q1603.13 1454.41 1604.6 1454.6 Q1606.06 1454.73 1607.84 1455.05 L1607.91 1467.08 Z" fill="#000000" fill-rule="nonzero" fill-opacity="1" /><path clip-path="url(#clip610)" d="M1665.64 1458.23 L1665.64 1469.3 Q1660.68 1466.76 1655.33 1465.49 Q1649.98 1464.21 1644.25 1464.21 Q1635.53 1464.21 1631.14 1466.89 Q1626.81 1469.56 1626.81 1474.91 Q1626.81 1478.98 1629.93 1481.34 Q1633.05 1483.63 1642.47 1485.73 L1646.48 1486.62 Q1658.96 1489.29 1664.18 1494.19 Q1669.46 1499.03 1669.46 1507.75 Q1669.46 1517.68 1661.57 1523.48 Q1653.74 1529.27 1639.99 1529.27 Q1634.26 1529.27 1628.02 1528.12 Q1621.85 1527.04 1614.97 1524.81 L1614.97 1512.72 Q1621.46 1516.09 1627.77 1517.81 Q1634.07 1519.47 1640.24 1519.47 Q1648.52 1519.47 1652.97 1516.67 Q1657.43 1513.8 1657.43 1508.64 Q1657.43 1503.87 1654.18 1501.32 Q1651 1498.78 1640.12 1496.42 L1636.04 1495.47 Q1625.16 1493.18 1620.32 1488.47 Q1615.48 1483.69 1615.48 1475.42 Q1615.48 1465.36 1622.61 1459.88 Q1629.74 1454.41 1642.85 1454.41 Q1649.35 1454.41 1655.08 1455.36 Q1660.8 1456.32 1665.64 1458.23 Z" fill="#000000" fill-rule="nonzero" fill-opacity="1" /><polyline clip-path="url(#clip612)" style="stroke:#000000; stroke-linecap:round; stroke-linejoin:round; stroke-width:4; stroke-opacity:0.1; fill:none" points="685.08,1116.16 2305.51,1116.16 "/>
<polyline clip-path="url(#clip612)" style="stroke:#000000; stroke-linecap:round; stroke-linejoin:round; stroke-width:4; stroke-opacity:0.1; fill:none" points="685.08,897.963 2305.51,897.963 "/>
<polyline clip-path="url(#clip612)" style="stroke:#000000; stroke-linecap:round; stroke-linejoin:round; stroke-width:4; stroke-opacity:0.1; fill:none" points="685.08,679.77 2305.51,679.77 "/>
<polyline clip-path="url(#clip612)" style="stroke:#000000; stroke-linecap:round; stroke-linejoin:round; stroke-width:4; stroke-opacity:0.1; fill:none" points="685.08,461.577 2305.51,461.577 "/>
<polyline clip-path="url(#clip612)" style="stroke:#000000; stroke-linecap:round; stroke-linejoin:round; stroke-width:4; stroke-opacity:0.1; fill:none" points="685.08,243.384 2305.51,243.384 "/>
<polyline clip-path="url(#clip610)" style="stroke:#000000; stroke-linecap:round; stroke-linejoin:round; stroke-width:8; stroke-opacity:1; fill:none" points="685.08,1273.7 685.08,94.4882 "/>
<polyline clip-path="url(#clip610)" style="stroke:#000000; stroke-linecap:round; stroke-linejoin:round; stroke-width:8; stroke-opacity:1; fill:none" points="685.08,1116.16 703.978,1116.16 "/>
<polyline clip-path="url(#clip610)" style="stroke:#000000; stroke-linecap:round; stroke-linejoin:round; stroke-width:8; stroke-opacity:1; fill:none" points="685.08,897.963 703.978,897.963 "/>
<polyline clip-path="url(#clip610)" style="stroke:#000000; stroke-linecap:round; stroke-linejoin:round; stroke-width:8; stroke-opacity:1; fill:none" points="685.08,679.77 703.978,679.77 "/>
<polyline clip-path="url(#clip610)" style="stroke:#000000; stroke-linecap:round; stroke-linejoin:round; stroke-width:8; stroke-opacity:1; fill:none" points="685.08,461.577 703.978,461.577 "/>
<polyline clip-path="url(#clip610)" style="stroke:#000000; stroke-linecap:round; stroke-linejoin:round; stroke-width:8; stroke-opacity:1; fill:none" points="685.08,243.384 703.978,243.384 "/>
<path clip-path="url(#clip610)" d="M395.702 1142.85 L410.979 1142.85 L410.979 1090.12 L394.359 1093.45 L394.359 1084.93 L410.887 1081.6 L420.239 1081.6 L420.239 1142.85 L435.516 1142.85 L435.516 1150.72 L395.702 1150.72 L395.702 1142.85 Z" fill="#000000" fill-rule="nonzero" fill-opacity="1" /><path clip-path="url(#clip610)" d="M474.405 1087.75 Q467.183 1087.75 463.525 1094.88 Q459.914 1101.97 459.914 1116.23 Q459.914 1130.44 463.525 1137.57 Q467.183 1144.65 474.405 1144.65 Q481.673 1144.65 485.285 1137.57 Q488.942 1130.44 488.942 1116.23 Q488.942 1101.97 485.285 1094.88 Q481.673 1087.75 474.405 1087.75 M474.405 1080.35 Q486.025 1080.35 492.136 1089.56 Q498.294 1098.73 498.294 1116.23 Q498.294 1133.68 492.136 1142.89 Q486.025 1152.06 474.405 1152.06 Q462.785 1152.06 456.627 1142.89 Q450.516 1133.68 450.516 1116.23 Q450.516 1098.73 456.627 1089.56 Q462.785 1080.35 474.405 1080.35 Z" fill="#000000" fill-rule="nonzero" fill-opacity="1" /><path clip-path="url(#clip610)" d="M534.729 1087.75 Q527.507 1087.75 523.849 1094.88 Q520.238 1101.97 520.238 1116.23 Q520.238 1130.44 523.849 1137.57 Q527.507 1144.65 534.729 1144.65 Q541.997 1144.65 545.608 1137.57 Q549.266 1130.44 549.266 1116.23 Q549.266 1101.97 545.608 1094.88 Q541.997 1087.75 534.729 1087.75 M534.729 1080.35 Q546.349 1080.35 552.46 1089.56 Q558.618 1098.73 558.618 1116.23 Q558.618 1133.68 552.46 1142.89 Q546.349 1152.06 534.729 1152.06 Q523.108 1152.06 516.951 1142.89 Q510.84 1133.68 510.84 1116.23 Q510.84 1098.73 516.951 1089.56 Q523.108 1080.35 534.729 1080.35 Z" fill="#000000" fill-rule="nonzero" fill-opacity="1" /><path clip-path="url(#clip610)" d="M575.053 1138.96 L584.821 1138.96 L584.821 1150.72 L575.053 1150.72 L575.053 1138.96 Z" fill="#000000" fill-rule="nonzero" fill-opacity="1" /><path clip-path="url(#clip610)" d="M625.191 1087.75 Q617.969 1087.75 614.312 1094.88 Q610.701 1101.97 610.701 1116.23 Q610.701 1130.44 614.312 1137.57 Q617.969 1144.65 625.191 1144.65 Q632.46 1144.65 636.071 1137.57 Q639.728 1130.44 639.728 1116.23 Q639.728 1101.97 636.071 1094.88 Q632.46 1087.75 625.191 1087.75 M625.191 1080.35 Q636.812 1080.35 642.923 1089.56 Q649.08 1098.73 649.08 1116.23 Q649.08 1133.68 642.923 1142.89 Q636.812 1152.06 625.191 1152.06 Q613.571 1152.06 607.414 1142.89 Q601.302 1133.68 601.302 1116.23 Q601.302 1098.73 607.414 1089.56 Q613.571 1080.35 625.191 1080.35 Z" fill="#000000" fill-rule="nonzero" fill-opacity="1" /><path clip-path="url(#clip610)" d="M402.137 924.653 L434.776 924.653 L434.776 932.523 L390.887 932.523 L390.887 924.653 Q396.211 919.144 405.378 909.885 Q414.59 900.579 416.952 897.894 Q421.442 892.848 423.202 889.376 Q425.007 885.857 425.007 882.477 Q425.007 876.968 421.118 873.496 Q417.276 870.024 411.072 870.024 Q406.674 870.024 401.766 871.552 Q396.905 873.079 391.35 876.181 L391.35 866.737 Q396.998 864.468 401.905 863.311 Q406.813 862.154 410.887 862.154 Q421.627 862.154 428.016 867.524 Q434.405 872.894 434.405 881.876 Q434.405 886.135 432.785 889.977 Q431.211 893.774 426.998 898.959 Q425.84 900.301 419.637 906.737 Q413.433 913.125 402.137 924.653 Z" fill="#000000" fill-rule="nonzero" fill-opacity="1" /><path clip-path="url(#clip610)" d="M474.405 869.561 Q467.183 869.561 463.525 876.69 Q459.914 883.774 459.914 898.033 Q459.914 912.246 463.525 919.375 Q467.183 926.459 474.405 926.459 Q481.673 926.459 485.285 919.375 Q488.942 912.246 488.942 898.033 Q488.942 883.774 485.285 876.69 Q481.673 869.561 474.405 869.561 M474.405 862.154 Q486.025 862.154 492.136 871.366 Q498.294 880.533 498.294 898.033 Q498.294 915.487 492.136 924.699 Q486.025 933.866 474.405 933.866 Q462.785 933.866 456.627 924.699 Q450.516 915.487 450.516 898.033 Q450.516 880.533 456.627 871.366 Q462.785 862.154 474.405 862.154 Z" fill="#000000" fill-rule="nonzero" fill-opacity="1" /><path clip-path="url(#clip610)" d="M534.729 869.561 Q527.507 869.561 523.849 876.69 Q520.238 883.774 520.238 898.033 Q520.238 912.246 523.849 919.375 Q527.507 926.459 534.729 926.459 Q541.997 926.459 545.608 919.375 Q549.266 912.246 549.266 898.033 Q549.266 883.774 545.608 876.69 Q541.997 869.561 534.729 869.561 M534.729 862.154 Q546.349 862.154 552.46 871.366 Q558.618 880.533 558.618 898.033 Q558.618 915.487 552.46 924.699 Q546.349 933.866 534.729 933.866 Q523.108 933.866 516.951 924.699 Q510.84 915.487 510.84 898.033 Q510.84 880.533 516.951 871.366 Q523.108 862.154 534.729 862.154 Z" fill="#000000" fill-rule="nonzero" fill-opacity="1" /><path clip-path="url(#clip610)" d="M575.053 920.764 L584.821 920.764 L584.821 932.523 L575.053 932.523 L575.053 920.764 Z" fill="#000000" fill-rule="nonzero" fill-opacity="1" /><path clip-path="url(#clip610)" d="M625.191 869.561 Q617.969 869.561 614.312 876.69 Q610.701 883.774 610.701 898.033 Q610.701 912.246 614.312 919.375 Q617.969 926.459 625.191 926.459 Q632.46 926.459 636.071 919.375 Q639.728 912.246 639.728 898.033 Q639.728 883.774 636.071 876.69 Q632.46 869.561 625.191 869.561 M625.191 862.154 Q636.812 862.154 642.923 871.366 Q649.08 880.533 649.08 898.033 Q649.08 915.487 642.923 924.699 Q636.812 933.866 625.191 933.866 Q613.571 933.866 607.414 924.699 Q601.302 915.487 601.302 898.033 Q601.302 880.533 607.414 871.366 Q613.571 862.154 625.191 862.154 Z" fill="#000000" fill-rule="nonzero" fill-opacity="1" /><path clip-path="url(#clip610)" d="M422.415 677.062 Q429.127 678.497 432.877 683.034 Q436.674 687.571 436.674 694.238 Q436.674 704.469 429.637 710.071 Q422.6 715.673 409.637 715.673 Q405.285 715.673 400.655 714.793 Q396.072 713.96 391.165 712.247 L391.165 703.219 Q395.054 705.488 399.683 706.645 Q404.313 707.803 409.359 707.803 Q418.155 707.803 422.739 704.33 Q427.368 700.858 427.368 694.238 Q427.368 688.127 423.063 684.701 Q418.803 681.229 411.165 681.229 L403.109 681.229 L403.109 673.544 L411.535 673.544 Q418.433 673.544 422.09 670.812 Q425.748 668.034 425.748 662.849 Q425.748 657.525 421.952 654.701 Q418.202 651.831 411.165 651.831 Q407.322 651.831 402.924 652.664 Q398.526 653.497 393.248 655.257 L393.248 646.923 Q398.572 645.442 403.202 644.701 Q407.878 643.96 411.998 643.96 Q422.646 643.96 428.85 648.821 Q435.053 653.636 435.053 661.877 Q435.053 667.618 431.766 671.599 Q428.479 675.534 422.415 677.062 Z" fill="#000000" fill-rule="nonzero" fill-opacity="1" /><path clip-path="url(#clip610)" d="M474.405 651.368 Q467.183 651.368 463.525 658.497 Q459.914 665.581 459.914 679.84 Q459.914 694.053 463.525 701.182 Q467.183 708.266 474.405 708.266 Q481.673 708.266 485.285 701.182 Q488.942 694.053 488.942 679.84 Q488.942 665.581 485.285 658.497 Q481.673 651.368 474.405 651.368 M474.405 643.96 Q486.025 643.96 492.136 653.173 Q498.294 662.34 498.294 679.84 Q498.294 697.293 492.136 706.506 Q486.025 715.673 474.405 715.673 Q462.785 715.673 456.627 706.506 Q450.516 697.293 450.516 679.84 Q450.516 662.34 456.627 653.173 Q462.785 643.96 474.405 643.96 Z" fill="#000000" fill-rule="nonzero" fill-opacity="1" /><path clip-path="url(#clip610)" d="M534.729 651.368 Q527.507 651.368 523.849 658.497 Q520.238 665.581 520.238 679.84 Q520.238 694.053 523.849 701.182 Q527.507 708.266 534.729 708.266 Q541.997 708.266 545.608 701.182 Q549.266 694.053 549.266 679.84 Q549.266 665.581 545.608 658.497 Q541.997 651.368 534.729 651.368 M534.729 643.96 Q546.349 643.96 552.46 653.173 Q558.618 662.34 558.618 679.84 Q558.618 697.293 552.46 706.506 Q546.349 715.673 534.729 715.673 Q523.108 715.673 516.951 706.506 Q510.84 697.293 510.84 679.84 Q510.84 662.34 516.951 653.173 Q523.108 643.96 534.729 643.96 Z" fill="#000000" fill-rule="nonzero" fill-opacity="1" /><path clip-path="url(#clip610)" d="M575.053 702.571 L584.821 702.571 L584.821 714.33 L575.053 714.33 L575.053 702.571 Z" fill="#000000" fill-rule="nonzero" fill-opacity="1" /><path clip-path="url(#clip610)" d="M625.191 651.368 Q617.969 651.368 614.312 658.497 Q610.701 665.581 610.701 679.84 Q610.701 694.053 614.312 701.182 Q617.969 708.266 625.191 708.266 Q632.46 708.266 636.071 701.182 Q639.728 694.053 639.728 679.84 Q639.728 665.581 636.071 658.497 Q632.46 651.368 625.191 651.368 M625.191 643.96 Q636.812 643.96 642.923 653.173 Q649.08 662.34 649.08 679.84 Q649.08 697.293 642.923 706.506 Q636.812 715.673 625.191 715.673 Q613.571 715.673 607.414 706.506 Q601.302 697.293 601.302 679.84 Q601.302 662.34 607.414 653.173 Q613.571 643.96 625.191 643.96 Z" fill="#000000" fill-rule="nonzero" fill-opacity="1" /><path clip-path="url(#clip610)" d="M419.776 435.165 L396.165 472.063 L419.776 472.063 L419.776 435.165 M417.322 427.017 L429.081 427.017 L429.081 472.063 L438.942 472.063 L438.942 479.841 L429.081 479.841 L429.081 496.137 L419.776 496.137 L419.776 479.841 L388.572 479.841 L388.572 470.813 L417.322 427.017 Z" fill="#000000" fill-rule="nonzero" fill-opacity="1" /><path clip-path="url(#clip610)" d="M474.405 433.175 Q467.183 433.175 463.525 440.304 Q459.914 447.387 459.914 461.647 Q459.914 475.86 463.525 482.989 Q467.183 490.072 474.405 490.072 Q481.673 490.072 485.285 482.989 Q488.942 475.86 488.942 461.647 Q488.942 447.387 485.285 440.304 Q481.673 433.175 474.405 433.175 M474.405 425.767 Q486.025 425.767 492.136 434.98 Q498.294 444.147 498.294 461.647 Q498.294 479.1 492.136 488.313 Q486.025 497.48 474.405 497.48 Q462.785 497.48 456.627 488.313 Q450.516 479.1 450.516 461.647 Q450.516 444.147 456.627 434.98 Q462.785 425.767 474.405 425.767 Z" fill="#000000" fill-rule="nonzero" fill-opacity="1" /><path clip-path="url(#clip610)" d="M534.729 433.175 Q527.507 433.175 523.849 440.304 Q520.238 447.387 520.238 461.647 Q520.238 475.86 523.849 482.989 Q527.507 490.072 534.729 490.072 Q541.997 490.072 545.608 482.989 Q549.266 475.86 549.266 461.647 Q549.266 447.387 545.608 440.304 Q541.997 433.175 534.729 433.175 M534.729 425.767 Q546.349 425.767 552.46 434.98 Q558.618 444.147 558.618 461.647 Q558.618 479.1 552.46 488.313 Q546.349 497.48 534.729 497.48 Q523.108 497.48 516.951 488.313 Q510.84 479.1 510.84 461.647 Q510.84 444.147 516.951 434.98 Q523.108 425.767 534.729 425.767 Z" fill="#000000" fill-rule="nonzero" fill-opacity="1" /><path clip-path="url(#clip610)" d="M575.053 484.378 L584.821 484.378 L584.821 496.137 L575.053 496.137 L575.053 484.378 Z" fill="#000000" fill-rule="nonzero" fill-opacity="1" /><path clip-path="url(#clip610)" d="M625.191 433.175 Q617.969 433.175 614.312 440.304 Q610.701 447.387 610.701 461.647 Q610.701 475.86 614.312 482.989 Q617.969 490.072 625.191 490.072 Q632.46 490.072 636.071 482.989 Q639.728 475.86 639.728 461.647 Q639.728 447.387 636.071 440.304 Q632.46 433.175 625.191 433.175 M625.191 425.767 Q636.812 425.767 642.923 434.98 Q649.08 444.147 649.08 461.647 Q649.08 479.1 642.923 488.313 Q636.812 497.48 625.191 497.48 Q613.571 497.48 607.414 488.313 Q601.302 479.1 601.302 461.647 Q601.302 444.147 607.414 434.98 Q613.571 425.767 625.191 425.767 Z" fill="#000000" fill-rule="nonzero" fill-opacity="1" /><path clip-path="url(#clip610)" d="M394.174 208.824 L430.887 208.824 L430.887 216.694 L402.739 216.694 L402.739 233.639 Q404.776 232.944 406.813 232.62 Q408.85 232.25 410.887 232.25 Q422.461 232.25 429.22 238.592 Q435.979 244.935 435.979 255.768 Q435.979 266.926 429.035 273.129 Q422.09 279.287 409.452 279.287 Q405.1 279.287 400.563 278.546 Q396.072 277.805 391.257 276.324 L391.257 266.926 Q395.424 269.194 399.868 270.305 Q404.313 271.416 409.266 271.416 Q417.276 271.416 421.952 267.203 Q426.627 262.99 426.627 255.768 Q426.627 248.546 421.952 244.333 Q417.276 240.12 409.266 240.12 Q405.516 240.12 401.766 240.953 Q398.063 241.787 394.174 243.546 L394.174 208.824 Z" fill="#000000" fill-rule="nonzero" fill-opacity="1" /><path clip-path="url(#clip610)" d="M474.405 214.981 Q467.183 214.981 463.525 222.111 Q459.914 229.194 459.914 243.453 Q459.914 257.666 463.525 264.796 Q467.183 271.879 474.405 271.879 Q481.673 271.879 485.285 264.796 Q488.942 257.666 488.942 243.453 Q488.942 229.194 485.285 222.111 Q481.673 214.981 474.405 214.981 M474.405 207.574 Q486.025 207.574 492.136 216.787 Q498.294 225.954 498.294 243.453 Q498.294 260.907 492.136 270.12 Q486.025 279.287 474.405 279.287 Q462.785 279.287 456.627 270.12 Q450.516 260.907 450.516 243.453 Q450.516 225.954 456.627 216.787 Q462.785 207.574 474.405 207.574 Z" fill="#000000" fill-rule="nonzero" fill-opacity="1" /><path clip-path="url(#clip610)" d="M534.729 214.981 Q527.507 214.981 523.849 222.111 Q520.238 229.194 520.238 243.453 Q520.238 257.666 523.849 264.796 Q527.507 271.879 534.729 271.879 Q541.997 271.879 545.608 264.796 Q549.266 257.666 549.266 243.453 Q549.266 229.194 545.608 222.111 Q541.997 214.981 534.729 214.981 M534.729 207.574 Q546.349 207.574 552.46 216.787 Q558.618 225.954 558.618 243.453 Q558.618 260.907 552.46 270.12 Q546.349 279.287 534.729 279.287 Q523.108 279.287 516.951 270.12 Q510.84 260.907 510.84 243.453 Q510.84 225.954 516.951 216.787 Q523.108 207.574 534.729 207.574 Z" fill="#000000" fill-rule="nonzero" fill-opacity="1" /><path clip-path="url(#clip610)" d="M575.053 266.185 L584.821 266.185 L584.821 277.944 L575.053 277.944 L575.053 266.185 Z" fill="#000000" fill-rule="nonzero" fill-opacity="1" /><path clip-path="url(#clip610)" d="M625.191 214.981 Q617.969 214.981 614.312 222.111 Q610.701 229.194 610.701 243.453 Q610.701 257.666 614.312 264.796 Q617.969 271.879 625.191 271.879 Q632.46 271.879 636.071 264.796 Q639.728 257.666 639.728 243.453 Q639.728 229.194 636.071 222.111 Q632.46 214.981 625.191 214.981 M625.191 207.574 Q636.812 207.574 642.923 216.787 Q649.08 225.954 649.08 243.453 Q649.08 260.907 642.923 270.12 Q636.812 279.287 625.191 279.287 Q613.571 279.287 607.414 270.12 Q601.302 260.907 601.302 243.453 Q601.302 225.954 607.414 216.787 Q613.571 207.574 625.191 207.574 Z" fill="#000000" fill-rule="nonzero" fill-opacity="1" /><path clip-path="url(#clip610)" d="M255.501 913.798 L266.45 913.798 Q263.713 918.764 262.376 923.793 Q260.976 928.758 260.976 933.85 Q260.976 945.245 268.233 951.547 Q275.426 957.849 288.476 957.849 Q301.526 957.849 308.782 951.547 Q315.976 945.245 315.976 933.85 Q315.976 928.758 314.639 923.793 Q313.238 918.764 310.501 913.798 L321.323 913.798 Q323.615 918.7 324.76 923.984 Q325.906 929.204 325.906 935.124 Q325.906 951.229 315.785 960.714 Q305.663 970.199 288.476 970.199 Q271.034 970.199 261.04 960.65 Q251.045 951.038 251.045 934.36 Q251.045 928.949 252.191 923.793 Q253.273 918.636 255.501 913.798 Z" fill="#000000" fill-rule="nonzero" fill-opacity="1" /><path clip-path="url(#clip610)" d="M260.976 865.801 Q260.976 875.222 268.36 880.697 Q275.681 886.171 288.476 886.171 Q301.271 886.171 308.655 880.76 Q315.976 875.286 315.976 865.801 Q315.976 856.443 308.591 850.969 Q301.207 845.494 288.476 845.494 Q275.808 845.494 268.424 850.969 Q260.976 856.443 260.976 865.801 M251.045 865.801 Q251.045 850.523 260.976 841.802 Q270.906 833.081 288.476 833.081 Q305.982 833.081 315.976 841.802 Q325.906 850.523 325.906 865.801 Q325.906 881.142 315.976 889.863 Q305.982 898.521 288.476 898.521 Q270.906 898.521 260.976 889.863 Q251.045 881.142 251.045 865.801 Z" fill="#000000" fill-rule="nonzero" fill-opacity="1" /><path clip-path="url(#clip610)" d="M281.028 754.401 L324.06 754.401 L324.06 766.114 L281.41 766.114 Q271.288 766.114 266.259 770.061 Q261.231 774.008 261.231 781.901 Q261.231 791.386 267.278 796.86 Q273.325 802.335 283.765 802.335 L324.06 802.335 L324.06 814.112 L252.764 814.112 L252.764 802.335 L263.841 802.335 Q257.411 798.134 254.228 792.468 Q251.045 786.739 251.045 779.291 Q251.045 767.005 258.684 760.703 Q266.259 754.401 281.028 754.401 Z" fill="#000000" fill-rule="nonzero" fill-opacity="1" /><path clip-path="url(#clip610)" d="M255.501 679.731 L266.45 679.731 Q263.713 684.697 262.376 689.726 Q260.976 694.691 260.976 699.783 Q260.976 711.178 268.233 717.48 Q275.426 723.782 288.476 723.782 Q301.526 723.782 308.782 717.48 Q315.976 711.178 315.976 699.783 Q315.976 694.691 314.639 689.726 Q313.238 684.697 310.501 679.731 L321.323 679.731 Q323.615 684.633 324.76 689.917 Q325.906 695.136 325.906 701.057 Q325.906 717.162 315.785 726.647 Q305.663 736.132 288.476 736.132 Q271.034 736.132 261.04 726.583 Q251.045 716.971 251.045 700.293 Q251.045 694.882 252.191 689.726 Q253.273 684.569 255.501 679.731 Z" fill="#000000" fill-rule="nonzero" fill-opacity="1" /><path clip-path="url(#clip610)" d="M307.891 657.706 L307.891 644.274 L324.06 644.274 L324.06 657.706 L307.891 657.706 Z" fill="#000000" fill-rule="nonzero" fill-opacity="1" /><path clip-path="url(#clip610)" d="M236.341 504.802 L249.9 504.802 Q243.852 511.295 240.86 518.679 Q237.868 526 237.868 534.275 Q237.868 550.571 247.863 559.229 Q257.793 567.886 276.636 567.886 Q295.414 567.886 305.409 559.229 Q315.339 550.571 315.339 534.275 Q315.339 526 312.347 518.679 Q309.355 511.295 303.308 504.802 L316.74 504.802 Q321.323 511.549 323.615 519.125 Q325.906 526.636 325.906 535.039 Q325.906 556.619 312.729 569.032 Q299.488 581.445 276.636 581.445 Q253.719 581.445 240.542 569.032 Q227.301 556.619 227.301 535.039 Q227.301 526.509 229.593 518.997 Q231.821 511.422 236.341 504.802 Z" fill="#000000" fill-rule="nonzero" fill-opacity="1" /><path clip-path="url(#clip610)" d="M229.02 484.941 L229.02 465.78 L293.696 441.527 L229.02 417.146 L229.02 397.985 L324.06 397.985 L324.06 410.526 L240.606 410.526 L305.791 435.034 L305.791 447.956 L240.606 472.464 L324.06 472.464 L324.06 484.941 L229.02 484.941 Z" fill="#000000" fill-rule="nonzero" fill-opacity="1" /><polyline clip-path="url(#clip612)" style="stroke:#008000; stroke-linecap:round; stroke-linejoin:round; stroke-width:8; stroke-opacity:1; fill:none" points="730.941,1183.1 869.915,1232.31 1008.89,1213.67 1147.86,1188.5 1286.84,1138.51 1425.81,1154.58 1564.78,1138.27 1703.76,1173.31 1842.73,1148.03 1981.7,1137.6 2120.68,1116.16 2259.65,1151.36 "/>
<circle clip-path="url(#clip612)" cx="730.941" cy="1183.1" r="14.4" fill="#008000" fill-rule="evenodd" fill-opacity="1" stroke="#000000" stroke-opacity="1" stroke-width="6.4"/>
<circle clip-path="url(#clip612)" cx="869.915" cy="1232.31" r="14.4" fill="#008000" fill-rule="evenodd" fill-opacity="1" stroke="#000000" stroke-opacity="1" stroke-width="6.4"/>
<circle clip-path="url(#clip612)" cx="1008.89" cy="1213.67" r="14.4" fill="#008000" fill-rule="evenodd" fill-opacity="1" stroke="#000000" stroke-opacity="1" stroke-width="6.4"/>
<circle clip-path="url(#clip612)" cx="1147.86" cy="1188.5" r="14.4" fill="#008000" fill-rule="evenodd" fill-opacity="1" stroke="#000000" stroke-opacity="1" stroke-width="6.4"/>
<circle clip-path="url(#clip612)" cx="1286.84" cy="1138.51" r="14.4" fill="#008000" fill-rule="evenodd" fill-opacity="1" stroke="#000000" stroke-opacity="1" stroke-width="6.4"/>
<circle clip-path="url(#clip612)" cx="1425.81" cy="1154.58" r="14.4" fill="#008000" fill-rule="evenodd" fill-opacity="1" stroke="#000000" stroke-opacity="1" stroke-width="6.4"/>
<circle clip-path="url(#clip612)" cx="1564.78" cy="1138.27" r="14.4" fill="#008000" fill-rule="evenodd" fill-opacity="1" stroke="#000000" stroke-opacity="1" stroke-width="6.4"/>
<circle clip-path="url(#clip612)" cx="1703.76" cy="1173.31" r="14.4" fill="#008000" fill-rule="evenodd" fill-opacity="1" stroke="#000000" stroke-opacity="1" stroke-width="6.4"/>
<circle clip-path="url(#clip612)" cx="1842.73" cy="1148.03" r="14.4" fill="#008000" fill-rule="evenodd" fill-opacity="1" stroke="#000000" stroke-opacity="1" stroke-width="6.4"/>
<circle clip-path="url(#clip612)" cx="1981.7" cy="1137.6" r="14.4" fill="#008000" fill-rule="evenodd" fill-opacity="1" stroke="#000000" stroke-opacity="1" stroke-width="6.4"/>
<circle clip-path="url(#clip612)" cx="2120.68" cy="1116.16" r="14.4" fill="#008000" fill-rule="evenodd" fill-opacity="1" stroke="#000000" stroke-opacity="1" stroke-width="6.4"/>
<circle clip-path="url(#clip612)" cx="2259.65" cy="1151.36" r="14.4" fill="#008000" fill-rule="evenodd" fill-opacity="1" stroke="#000000" stroke-opacity="1" stroke-width="6.4"/>
<polyline clip-path="url(#clip612)" style="stroke:#00008b; stroke-linecap:round; stroke-linejoin:round; stroke-width:8; stroke-opacity:1; fill:none" points="730.941,1168.73 869.915,907.511 1008.89,739.906 1147.86,608.807 1286.84,498.156 1425.81,415.331 1564.78,356.091 1703.76,308.374 1842.73,285.517 1981.7,283.13 2120.68,268.125 2259.65,288.33 "/>
<path clip-path="url(#clip612)" d="M730.941 1240.32 L869.915 985.856 L1008.89 851.546 L1147.86 755.732 L1286.84 653.619 L1425.81 579.254 L1564.78 543.226 L1703.76 502.261 L1842.73 493.242 L1981.7 472.312 L2120.68 467.782 L2259.65 452.218 L2259.65 137.431 L2120.68 135.207 L1981.7 151.137 L1842.73 127.862 L1703.76 193.869 L1564.78 223.579 L1425.81 283.86 L1286.84 379.022 L1147.86 516.521 L1008.89 636.769 L869.915 833.703 L730.941 1101.7  Z" fill="#0000ff" fill-rule="evenodd" fill-opacity="0.1"/>
<polyline clip-path="url(#clip612)" style="stroke:#0000ff; stroke-linecap:round; stroke-linejoin:round; stroke-width:0; stroke-opacity:0.1; fill:none" points="730.941,1240.32 869.915,985.856 1008.89,851.546 1147.86,755.732 1286.84,653.619 1425.81,579.254 1564.78,543.226 1703.76,502.261 1842.73,493.242 1981.7,472.312 2120.68,467.782 2259.65,452.218 "/>
</svg>
