<?xml version="1.0" encoding="utf-8"?>
<svg xmlns="http://www.w3.org/2000/svg" xmlns:xlink="http://www.w3.org/1999/xlink" width="600" height="400" viewBox="0 0 2400 1600">
<defs>
  <clipPath id="clip740">
    <rect x="0" y="0" width="2400" height="1600"/>
  </clipPath>
</defs>
<path clip-path="url(#clip740)" d="M0 1600 L2400 1600 L2400 0 L0 0  Z" fill="#ffffff" fill-rule="evenodd" fill-opacity="1"/>
<defs>
  <clipPath id="clip741">
    <rect x="480" y="0" width="1681" height="1600"/>
  </clipPath>
</defs>
<path clip-path="url(#clip740)" d="M685.08 1273.7 L2305.51 1273.7 L2305.51 94.4882 L685.08 94.4882  Z" fill="#ffffff" fill-rule="evenodd" fill-opacity="1"/>
<defs>
  <clipPath id="clip742">
    <rect x="685" y="94" width="1621" height="1180"/>
  </clipPath>
</defs>
<polyline clip-path="url(#clip742)" style="stroke:#000000; stroke-linecap:round; stroke-linejoin:round; stroke-width:4; stroke-opacity:0.1; fill:none" points="730.941,1273.7 730.941,94.4882 "/>
<polyline clip-path="url(#clip742)" style="stroke:#000000; stroke-linecap:round; stroke-linejoin:round; stroke-width:4; stroke-opacity:0.1; fill:none" points="966.127,1273.7 966.127,94.4882 "/>
<polyline clip-path="url(#clip742)" style="stroke:#000000; stroke-linecap:round; stroke-linejoin:round; stroke-width:4; stroke-opacity:0.1; fill:none" points="1201.31,1273.7 1201.31,94.4882 "/>
<polyline clip-path="url(#clip742)" style="stroke:#000000; stroke-linecap:round; stroke-linejoin:round; stroke-width:4; stroke-opacity:0.1; fill:none" points="1436.5,1273.7 1436.5,94.4882 "/>
<polyline clip-path="url(#clip742)" style="stroke:#000000; stroke-linecap:round; stroke-linejoin:round; stroke-width:4; stroke-opacity:0.1; fill:none" points="1671.69,1273.7 1671.69,94.4882 "/>
<polyline clip-path="url(#clip742)" style="stroke:#000000; stroke-linecap:round; stroke-linejoin:round; stroke-width:4; stroke-opacity:0.1; fill:none" points="1906.87,1273.7 1906.87,94.4882 "/>
<polyline clip-path="url(#clip742)" style="stroke:#000000; stroke-linecap:round; stroke-linejoin:round; stroke-width:4; stroke-opacity:0.1; fill:none" points="2142.06,1273.7 2142.06,94.4882 "/>
<polyline clip-path="url(#clip740)" style="stroke:#000000; stroke-linecap:round; stroke-linejoin:round; stroke-width:8; stroke-opacity:1; fill:none" points="685.08,1273.7 2305.51,1273.7 "/>
<polyline clip-path="url(#clip740)" style="stroke:#000000; stroke-linecap:round; stroke-linejoin:round; stroke-width:8; stroke-opacity:1; fill:none" points="730.941,1273.7 730.941,1254.8 "/>
<polyline clip-path="url(#clip740)" style="stroke:#000000; stroke-linecap:round; stroke-linejoin:round; stroke-width:8; stroke-opacity:1; fill:none" points="966.127,1273.7 966.127,1254.8 "/>
<polyline clip-path="url(#clip740)" style="stroke:#000000; stroke-linecap:round; stroke-linejoin:round; stroke-width:8; stroke-opacity:1; fill:none" points="1201.31,1273.7 1201.31,1254.8 "/>
<polyline clip-path="url(#clip740)" style="stroke:#000000; stroke-linecap:round; stroke-linejoin:round; stroke-width:8; stroke-opacity:1; fill:none" points="1436.5,1273.7 1436.5,1254.8 "/>
<polyline clip-path="url(#clip740)" style="stroke:#000000; stroke-linecap:round; stroke-linejoin:round; stroke-width:8; stroke-opacity:1; fill:none" points="1671.69,1273.7 1671.69,1254.8 "/>
<polyline clip-path="url(#clip740)" style="stroke:#000000; stroke-linecap:round; stroke-linejoin:round; stroke-width:8; stroke-opacity:1; fill:none" points="1906.87,1273.7 1906.87,1254.8 "/>
<polyline clip-path="url(#clip740)" style="stroke:#000000; stroke-linecap:round; stroke-linejoin:round; stroke-width:8; stroke-opacity:1; fill:none" points="2142.06,1273.7 2142.06,1254.8 "/>
<path clip-path="url(#clip740)" d="M685.71 1316.33 Q678.488 1316.33 674.83 1323.46 Q671.219 1330.55 671.219 1344.81 Q671.219 1359.02 674.83 1366.15 Q678.488 1373.23 685.71 1373.23 Q692.978 1373.23 696.59 1366.15 Q700.247 1359.02 700.247 1344.81 Q700.247 1330.55 696.59 1323.46 Q692.978 1316.33 685.71 1316.33 M685.71 1308.93 Q697.33 1308.93 703.441 1318.14 Q709.599 1327.31 709.599 1344.81 Q709.599 1362.26 703.441 1371.47 Q697.33 1380.64 685.71 1380.64 Q674.09 1380.64 667.932 1371.47 Q661.821 1362.26 661.821 1344.81 Q661.821 1327.31 667.932 1318.14 Q674.09 1308.93 685.71 1308.93 Z" fill="#000000" fill-rule="nonzero" fill-opacity="1" /><path clip-path="url(#clip740)" d="M726.034 1367.54 L735.802 1367.54 L735.802 1379.3 L726.034 1379.3 L726.034 1367.54 Z" fill="#000000" fill-rule="nonzero" fill-opacity="1" /><path clip-path="url(#clip740)" d="M776.172 1316.33 Q768.95 1316.33 765.293 1323.46 Q761.682 1330.55 761.682 1344.81 Q761.682 1359.02 765.293 1366.15 Q768.95 1373.23 776.172 1373.23 Q783.441 1373.23 787.052 1366.15 Q790.709 1359.02 790.709 1344.81 Q790.709 1330.55 787.052 1323.46 Q783.441 1316.33 776.172 1316.33 M776.172 1308.93 Q787.793 1308.93 793.904 1318.14 Q800.061 1327.31 800.061 1344.81 Q800.061 1362.26 793.904 1371.47 Q787.793 1380.64 776.172 1380.64 Q764.552 1380.64 758.395 1371.47 Q752.284 1362.26 752.284 1344.81 Q752.284 1327.31 758.395 1318.14 Q764.552 1308.93 776.172 1308.93 Z" fill="#000000" fill-rule="nonzero" fill-opacity="1" /><path clip-path="url(#clip740)" d="M922.493 1316.33 Q915.271 1316.33 911.614 1323.46 Q908.003 1330.55 908.003 1344.81 Q908.003 1359.02 911.614 1366.15 Q915.271 1373.23 922.493 1373.23 Q929.762 1373.23 933.373 1366.15 Q937.03 1359.02 937.03 1344.81 Q937.03 1330.55 933.373 1323.46 Q929.762 1316.33 922.493 1316.33 M922.493 1308.93 Q934.114 1308.93 940.225 1318.14 Q946.382 1327.31 946.382 1344.81 Q946.382 1362.26 940.225 1371.47 Q934.114 1380.64 922.493 1380.64 Q910.873 1380.64 904.716 1371.47 Q898.605 1362.26 898.605 1344.81 Q898.605 1327.31 904.716 1318.14 Q910.873 1308.93 922.493 1308.93 Z" fill="#000000" fill-rule="nonzero" fill-opacity="1" /><path clip-path="url(#clip740)" d="M962.817 1367.54 L972.586 1367.54 L972.586 1379.3 L962.817 1379.3 L962.817 1367.54 Z" fill="#000000" fill-rule="nonzero" fill-opacity="1" /><path clip-path="url(#clip740)" d="M1001.01 1371.43 L1033.65 1371.43 L1033.65 1379.3 L989.761 1379.3 L989.761 1371.43 Q995.085 1365.92 1004.25 1356.66 Q1013.47 1347.35 1015.83 1344.67 Q1020.32 1339.62 1022.08 1336.15 Q1023.88 1332.63 1023.88 1329.25 Q1023.88 1323.74 1019.99 1320.27 Q1016.15 1316.8 1009.95 1316.8 Q1005.55 1316.8 1000.64 1318.32 Q995.78 1319.85 990.224 1322.95 L990.224 1313.51 Q995.873 1311.24 1000.78 1310.08 Q1005.69 1308.93 1009.76 1308.93 Q1020.5 1308.93 1026.89 1314.3 Q1033.28 1319.67 1033.28 1328.65 Q1033.28 1332.91 1031.66 1336.75 Q1030.09 1340.55 1025.87 1345.73 Q1024.71 1347.07 1018.51 1353.51 Q1012.31 1359.9 1001.01 1371.43 Z" fill="#000000" fill-rule="nonzero" fill-opacity="1" /><path clip-path="url(#clip740)" d="M1155.6 1316.33 Q1148.37 1316.33 1144.72 1323.46 Q1141.11 1330.55 1141.11 1344.81 Q1141.11 1359.02 1144.72 1366.15 Q1148.37 1373.23 1155.6 1373.23 Q1162.86 1373.23 1166.48 1366.15 Q1170.13 1359.02 1170.13 1344.81 Q1170.13 1330.55 1166.48 1323.46 Q1162.86 1316.33 1155.6 1316.33 M1155.6 1308.93 Q1167.22 1308.93 1173.33 1318.14 Q1179.48 1327.31 1179.48 1344.81 Q1179.48 1362.26 1173.33 1371.47 Q1167.22 1380.64 1155.6 1380.64 Q1143.98 1380.64 1137.82 1371.47 Q1131.71 1362.26 1131.71 1344.81 Q1131.71 1327.31 1137.82 1318.14 Q1143.98 1308.93 1155.6 1308.93 Z" fill="#000000" fill-rule="nonzero" fill-opacity="1" /><path clip-path="url(#clip740)" d="M1195.92 1367.54 L1205.69 1367.54 L1205.69 1379.3 L1195.92 1379.3 L1195.92 1367.54 Z" fill="#000000" fill-rule="nonzero" fill-opacity="1" /><path clip-path="url(#clip740)" d="M1251.75 1318.32 L1228.14 1355.22 L1251.75 1355.22 L1251.75 1318.32 M1249.3 1310.18 L1261.06 1310.18 L1261.06 1355.22 L1270.92 1355.22 L1270.92 1363 L1261.06 1363 L1261.06 1379.3 L1251.75 1379.3 L1251.75 1363 L1220.55 1363 L1220.55 1353.97 L1249.3 1310.18 Z" fill="#000000" fill-rule="nonzero" fill-opacity="1" /><path clip-path="url(#clip740)" d="M1391.11 1316.33 Q1383.88 1316.33 1380.23 1323.46 Q1376.62 1330.55 1376.62 1344.81 Q1376.62 1359.02 1380.23 1366.15 Q1383.88 1373.23 1391.11 1373.23 Q1398.37 1373.23 1401.99 1366.15 Q1405.64 1359.02 1405.64 1344.81 Q1405.64 1330.55 1401.99 1323.46 Q1398.37 1316.33 1391.11 1316.33 M1391.11 1308.93 Q1402.73 1308.93 1408.84 1318.14 Q1414.99 1327.31 1414.99 1344.81 Q1414.99 1362.26 1408.84 1371.47 Q1402.73 1380.64 1391.11 1380.64 Q1379.49 1380.64 1373.33 1371.47 Q1367.22 1362.26 1367.22 1344.81 Q1367.22 1327.31 1373.33 1318.14 Q1379.49 1308.93 1391.11 1308.93 Z" fill="#000000" fill-rule="nonzero" fill-opacity="1" /><path clip-path="url(#clip740)" d="M1431.43 1367.54 L1441.2 1367.54 L1441.2 1379.3 L1431.43 1379.3 L1431.43 1367.54 Z" fill="#000000" fill-rule="nonzero" fill-opacity="1" /><path clip-path="url(#clip740)" d="M1482.73 1341.01 Q1476.43 1341.01 1472.73 1345.31 Q1469.07 1349.62 1469.07 1357.12 Q1469.07 1364.57 1472.73 1368.93 Q1476.43 1373.23 1482.73 1373.23 Q1489.02 1373.23 1492.68 1368.93 Q1496.38 1364.57 1496.38 1357.12 Q1496.38 1349.62 1492.68 1345.31 Q1489.02 1341.01 1482.73 1341.01 M1501.29 1311.7 L1501.29 1320.22 Q1497.77 1318.56 1494.16 1317.68 Q1490.6 1316.8 1487.08 1316.8 Q1477.82 1316.8 1472.91 1323.05 Q1468.05 1329.3 1467.36 1341.93 Q1470.09 1337.91 1474.21 1335.78 Q1478.33 1333.6 1483.28 1333.6 Q1493.7 1333.6 1499.72 1339.94 Q1505.78 1346.24 1505.78 1357.12 Q1505.78 1367.77 1499.49 1374.2 Q1493.19 1380.64 1482.73 1380.64 Q1470.74 1380.64 1464.39 1371.47 Q1458.05 1362.26 1458.05 1344.81 Q1458.05 1328.42 1465.83 1318.69 Q1473.61 1308.93 1486.71 1308.93 Q1490.23 1308.93 1493.79 1309.62 Q1497.4 1310.31 1501.29 1311.7 Z" fill="#000000" fill-rule="nonzero" fill-opacity="1" /><path clip-path="url(#clip740)" d="M1626.55 1316.33 Q1619.32 1316.33 1615.67 1323.46 Q1612.06 1330.55 1612.06 1344.81 Q1612.06 1359.02 1615.67 1366.15 Q1619.32 1373.23 1626.55 1373.23 Q1633.82 1373.23 1637.43 1366.15 Q1641.08 1359.02 1641.08 1344.81 Q1641.08 1330.55 1637.43 1323.46 Q1633.82 1316.33 1626.55 1316.33 M1626.55 1308.93 Q1638.17 1308.93 1644.28 1318.14 Q1650.44 1327.31 1650.44 1344.81 Q1650.44 1362.26 1644.28 1371.47 Q1638.17 1380.64 1626.55 1380.64 Q1614.93 1380.64 1608.77 1371.47 Q1602.66 1362.26 1602.66 1344.81 Q1602.66 1327.31 1608.77 1318.14 Q1614.93 1308.93 1626.55 1308.93 Z" fill="#000000" fill-rule="nonzero" fill-opacity="1" /><path clip-path="url(#clip740)" d="M1666.87 1367.54 L1676.64 1367.54 L1676.64 1379.3 L1666.87 1379.3 L1666.87 1367.54 Z" fill="#000000" fill-rule="nonzero" fill-opacity="1" /><path clip-path="url(#clip740)" d="M1717.01 1346.47 Q1710.34 1346.47 1706.5 1350.04 Q1702.7 1353.6 1702.7 1359.85 Q1702.7 1366.1 1706.5 1369.67 Q1710.34 1373.23 1717.01 1373.23 Q1723.68 1373.23 1727.52 1369.67 Q1731.36 1366.06 1731.36 1359.85 Q1731.36 1353.6 1727.52 1350.04 Q1723.72 1346.47 1717.01 1346.47 M1707.66 1342.49 Q1701.64 1341.01 1698.26 1336.89 Q1694.93 1332.77 1694.93 1326.84 Q1694.93 1318.56 1700.81 1313.74 Q1706.73 1308.93 1717.01 1308.93 Q1727.33 1308.93 1733.21 1313.74 Q1739.09 1318.56 1739.09 1326.84 Q1739.09 1332.77 1735.71 1336.89 Q1732.38 1341.01 1726.41 1342.49 Q1733.17 1344.06 1736.92 1348.65 Q1740.71 1353.23 1740.71 1359.85 Q1740.71 1369.9 1734.56 1375.27 Q1728.44 1380.64 1717.01 1380.64 Q1705.57 1380.64 1699.42 1375.27 Q1693.31 1369.9 1693.31 1359.85 Q1693.31 1353.23 1697.1 1348.65 Q1700.9 1344.06 1707.66 1342.49 M1704.23 1327.72 Q1704.23 1333.09 1707.56 1336.1 Q1710.94 1339.11 1717.01 1339.11 Q1723.03 1339.11 1726.41 1336.1 Q1729.83 1333.09 1729.83 1327.72 Q1729.83 1322.35 1726.41 1319.34 Q1723.03 1316.33 1717.01 1316.33 Q1710.94 1316.33 1707.56 1319.34 Q1704.23 1322.35 1704.23 1327.72 Z" fill="#000000" fill-rule="nonzero" fill-opacity="1" /><path clip-path="url(#clip740)" d="M1841.18 1371.43 L1856.46 1371.43 L1856.46 1318.69 L1839.83 1322.03 L1839.83 1313.51 L1856.36 1310.18 L1865.71 1310.18 L1865.71 1371.43 L1880.99 1371.43 L1880.99 1379.3 L1841.18 1379.3 L1841.18 1371.43 Z" fill="#000000" fill-rule="nonzero" fill-opacity="1" /><path clip-path="url(#clip740)" d="M1899.88 1367.54 L1909.65 1367.54 L1909.65 1379.3 L1899.88 1379.3 L1899.88 1367.54 Z" fill="#000000" fill-rule="nonzero" fill-opacity="1" /><path clip-path="url(#clip740)" d="M1950.02 1316.33 Q1942.8 1316.33 1939.14 1323.46 Q1935.53 1330.55 1935.53 1344.81 Q1935.53 1359.02 1939.14 1366.15 Q1942.8 1373.23 1950.02 1373.23 Q1957.29 1373.23 1960.9 1366.15 Q1964.56 1359.02 1964.56 1344.81 Q1964.56 1330.55 1960.9 1323.46 Q1957.29 1316.33 1950.02 1316.33 M1950.02 1308.93 Q1961.64 1308.93 1967.75 1318.14 Q1973.91 1327.31 1973.91 1344.81 Q1973.91 1362.26 1967.75 1371.47 Q1961.64 1380.64 1950.02 1380.64 Q1938.4 1380.64 1932.24 1371.47 Q1926.13 1362.26 1926.13 1344.81 Q1926.13 1327.31 1932.24 1318.14 Q1938.4 1308.93 1950.02 1308.93 Z" fill="#000000" fill-rule="nonzero" fill-opacity="1" /><path clip-path="url(#clip740)" d="M2077.96 1371.43 L2093.24 1371.43 L2093.24 1318.69 L2076.62 1322.03 L2076.62 1313.51 L2093.15 1310.18 L2102.5 1310.18 L2102.5 1371.43 L2117.78 1371.43 L2117.78 1379.3 L2077.96 1379.3 L2077.96 1371.43 Z" fill="#000000" fill-rule="nonzero" fill-opacity="1" /><path clip-path="url(#clip740)" d="M2136.66 1367.54 L2146.43 1367.54 L2146.43 1379.3 L2136.66 1379.3 L2136.66 1367.54 Z" fill="#000000" fill-rule="nonzero" fill-opacity="1" /><path clip-path="url(#clip740)" d="M2174.86 1371.43 L2207.5 1371.43 L2207.5 1379.3 L2163.61 1379.3 L2163.61 1371.43 Q2168.93 1365.92 2178.1 1356.66 Q2187.31 1347.35 2189.67 1344.67 Q2194.16 1339.62 2195.92 1336.15 Q2197.73 1332.63 2197.73 1329.25 Q2197.73 1323.74 2193.84 1320.27 Q2190 1316.8 2183.79 1316.8 Q2179.4 1316.8 2174.49 1318.32 Q2169.63 1319.85 2164.07 1322.95 L2164.07 1313.51 Q2169.72 1311.24 2174.63 1310.08 Q2179.53 1308.93 2183.61 1308.93 Q2194.35 1308.93 2200.74 1314.3 Q2207.13 1319.67 2207.13 1328.65 Q2207.13 1332.91 2205.51 1336.75 Q2203.93 1340.55 2199.72 1345.73 Q2198.56 1347.07 2192.36 1353.51 Q2186.15 1359.9 2174.86 1371.43 Z" fill="#000000" fill-rule="nonzero" fill-opacity="1" /><path clip-path="url(#clip740)" d="M1380.84 1484.39 L1380.84 1527.42 L1369.13 1527.42 L1369.13 1484.77 Q1369.13 1474.65 1365.18 1469.62 Q1361.23 1464.59 1353.34 1464.59 Q1343.86 1464.59 1338.38 1470.64 Q1332.91 1476.69 1332.91 1487.13 L1332.91 1527.42 L1321.13 1527.42 L1321.13 1428.37 L1332.91 1428.37 L1332.91 1467.2 Q1337.11 1460.77 1342.77 1457.59 Q1348.5 1454.41 1355.95 1454.41 Q1368.24 1454.41 1374.54 1462.05 Q1380.84 1469.62 1380.84 1484.39 Z" fill="#000000" fill-rule="nonzero" fill-opacity="1" /><path clip-path="url(#clip740)" d="M1431.83 1464.34 Q1422.41 1464.34 1416.93 1471.72 Q1411.46 1479.04 1411.46 1491.84 Q1411.46 1504.63 1416.87 1512.02 Q1422.34 1519.34 1431.83 1519.34 Q1441.19 1519.34 1446.66 1511.96 Q1452.14 1504.57 1452.14 1491.84 Q1452.14 1479.17 1446.66 1471.79 Q1441.19 1464.34 1431.83 1464.34 M1431.83 1454.41 Q1447.11 1454.41 1455.83 1464.34 Q1464.55 1474.27 1464.55 1491.84 Q1464.55 1509.35 1455.83 1519.34 Q1447.11 1529.27 1431.83 1529.27 Q1416.49 1529.27 1407.77 1519.34 Q1399.11 1509.35 1399.11 1491.84 Q1399.11 1474.27 1407.77 1464.34 Q1416.49 1454.41 1431.83 1454.41 Z" fill="#000000" fill-rule="nonzero" fill-opacity="1" /><path clip-path="url(#clip740)" d="M1482.76 1499.29 L1482.76 1456.13 L1494.47 1456.13 L1494.47 1498.84 Q1494.47 1508.96 1498.42 1514.06 Q1502.36 1519.08 1510.26 1519.08 Q1519.74 1519.08 1525.21 1513.04 Q1530.75 1506.99 1530.75 1496.55 L1530.75 1456.13 L1542.47 1456.13 L1542.47 1527.42 L1530.75 1527.42 L1530.75 1516.47 Q1526.49 1522.97 1520.82 1526.15 Q1515.22 1529.27 1507.77 1529.27 Q1495.49 1529.27 1489.12 1521.63 Q1482.76 1513.99 1482.76 1499.29 M1512.23 1454.41 L1512.23 1454.41 Z" fill="#000000" fill-rule="nonzero" fill-opacity="1" /><path clip-path="url(#clip740)" d="M1607.91 1467.08 Q1605.93 1465.93 1603.58 1465.42 Q1601.28 1464.85 1598.48 1464.85 Q1588.55 1464.85 1583.21 1471.34 Q1577.92 1477.77 1577.92 1489.87 L1577.92 1527.42 L1566.15 1527.42 L1566.15 1456.13 L1577.92 1456.13 L1577.92 1467.2 Q1581.61 1460.71 1587.53 1457.59 Q1593.46 1454.41 1601.92 1454.41 Q1603.13 1454.41 1604.6 1454.6 Q1606.06 1454.73 1607.84 1455.05 L1607.91 1467.08 Z" fill="#000000" fill-rule="nonzero" fill-opacity="1" /><path clip-path="url(#clip740)" d="M1665.64 1458.23 L1665.64 1469.3 Q1660.68 1466.76 1655.33 1465.49 Q1649.98 1464.21 1644.25 1464.21 Q1635.53 1464.21 1631.14 1466.89 Q1626.81 1469.56 1626.81 1474.91 Q1626.81 1478.98 1629.93 1481.34 Q1633.05 1483.63 1642.47 1485.73 L1646.48 1486.62 Q1658.96 1489.29 1664.18 1494.19 Q1669.46 1499.03 1669.46 1507.75 Q1669.46 1517.68 1661.57 1523.48 Q1653.74 1529.27 1639.99 1529.27 Q1634.26 1529.27 1628.02 1528.12 Q1621.85 1527.04 1614.97 1524.81 L1614.97 1512.72 Q1621.46 1516.09 1627.77 1517.81 Q1634.07 1519.47 1640.24 1519.47 Q1648.52 1519.47 1652.97 1516.67 Q1657.43 1513.8 1657.43 1508.64 Q1657.43 1503.87 1654.18 1501.32 Q1651 1498.78 1640.12 1496.42 L1636.04 1495.47 Q1625.16 1493.18 1620.32 1488.47 Q1615.48 1483.69 1615.48 1475.42 Q1615.48 1465.36 1622.61 1459.88 Q1629.74 1454.41 1642.85 1454.41 Q1649.35 1454.41 1655.08 1455.36 Q1660.8 1456.32 1665.64 1458.23 Z" fill="#000000" fill-rule="nonzero" fill-opacity="1" /><polyline clip-path="url(#clip742)" style="stroke:#000000; stroke-linecap:round; stroke-linejoin:round; stroke-width:4; stroke-opacity:0.1; fill:none" points="685.08,1041.05 2305.51,1041.05 "/>
<polyline clip-path="url(#clip742)" style="stroke:#000000; stroke-linecap:round; stroke-linejoin:round; stroke-width:4; stroke-opacity:0.1; fill:none" points="685.08,752.588 2305.51,752.588 "/>
<polyline clip-path="url(#clip742)" style="stroke:#000000; stroke-linecap:round; stroke-linejoin:round; stroke-width:4; stroke-opacity:0.1; fill:none" points="685.08,464.13 2305.51,464.13 "/>
<polyline clip-path="url(#clip742)" style="stroke:#000000; stroke-linecap:round; stroke-linejoin:round; stroke-width:4; stroke-opacity:0.1; fill:none" points="685.08,175.671 2305.51,175.671 "/>
<polyline clip-path="url(#clip740)" style="stroke:#000000; stroke-linecap:round; stroke-linejoin:round; stroke-width:8; stroke-opacity:1; fill:none" points="685.08,1273.7 685.08,94.4882 "/>
<polyline clip-path="url(#clip740)" style="stroke:#000000; stroke-linecap:round; stroke-linejoin:round; stroke-width:8; stroke-opacity:1; fill:none" points="685.08,1041.05 703.978,1041.05 "/>
<polyline clip-path="url(#clip740)" style="stroke:#000000; stroke-linecap:round; stroke-linejoin:round; stroke-width:8; stroke-opacity:1; fill:none" points="685.08,752.588 703.978,752.588 "/>
<polyline clip-path="url(#clip740)" style="stroke:#000000; stroke-linecap:round; stroke-linejoin:round; stroke-width:8; stroke-opacity:1; fill:none" points="685.08,464.13 703.978,464.13 "/>
<polyline clip-path="url(#clip740)" style="stroke:#000000; stroke-linecap:round; stroke-linejoin:round; stroke-width:8; stroke-opacity:1; fill:none" points="685.08,175.671 703.978,175.671 "/>
<path clip-path="url(#clip740)" d="M422.415 1038.34 Q429.127 1039.77 432.877 1044.31 Q436.674 1048.85 436.674 1055.51 Q436.674 1065.74 429.637 1071.35 Q422.6 1076.95 409.637 1076.95 Q405.285 1076.95 400.655 1076.07 Q396.072 1075.24 391.165 1073.52 L391.165 1064.49 Q395.054 1066.76 399.683 1067.92 Q404.313 1069.08 409.359 1069.08 Q418.155 1069.08 422.739 1065.61 Q427.368 1062.13 427.368 1055.51 Q427.368 1049.4 423.063 1045.98 Q418.803 1042.5 411.165 1042.5 L403.109 1042.5 L403.109 1034.82 L411.535 1034.82 Q418.433 1034.82 422.09 1032.09 Q425.748 1029.31 425.748 1024.12 Q425.748 1018.8 421.952 1015.98 Q418.202 1013.11 411.165 1013.11 Q407.322 1013.11 402.924 1013.94 Q398.526 1014.77 393.248 1016.53 L393.248 1008.2 Q398.572 1006.72 403.202 1005.98 Q407.878 1005.24 411.998 1005.24 Q422.646 1005.24 428.85 1010.1 Q435.053 1014.91 435.053 1023.15 Q435.053 1028.89 431.766 1032.87 Q428.479 1036.81 422.415 1038.34 Z" fill="#000000" fill-rule="nonzero" fill-opacity="1" /><path clip-path="url(#clip740)" d="M474.405 1012.64 Q467.183 1012.64 463.525 1019.77 Q459.914 1026.86 459.914 1041.12 Q459.914 1055.33 463.525 1062.46 Q467.183 1069.54 474.405 1069.54 Q481.673 1069.54 485.285 1062.46 Q488.942 1055.33 488.942 1041.12 Q488.942 1026.86 485.285 1019.77 Q481.673 1012.64 474.405 1012.64 M474.405 1005.24 Q486.025 1005.24 492.136 1014.45 Q498.294 1023.62 498.294 1041.12 Q498.294 1058.57 492.136 1067.78 Q486.025 1076.95 474.405 1076.95 Q462.785 1076.95 456.627 1067.78 Q450.516 1058.57 450.516 1041.12 Q450.516 1023.62 456.627 1014.45 Q462.785 1005.24 474.405 1005.24 Z" fill="#000000" fill-rule="nonzero" fill-opacity="1" /><path clip-path="url(#clip740)" d="M534.729 1012.64 Q527.507 1012.64 523.849 1019.77 Q520.238 1026.86 520.238 1041.12 Q520.238 1055.33 523.849 1062.46 Q527.507 1069.54 534.729 1069.54 Q541.997 1069.54 545.608 1062.46 Q549.266 1055.33 549.266 1041.12 Q549.266 1026.86 545.608 1019.77 Q541.997 1012.64 534.729 1012.64 M534.729 1005.24 Q546.349 1005.24 552.46 1014.45 Q558.618 1023.62 558.618 1041.12 Q558.618 1058.57 552.46 1067.78 Q546.349 1076.95 534.729 1076.95 Q523.108 1076.95 516.951 1067.78 Q510.84 1058.57 510.84 1041.12 Q510.84 1023.62 516.951 1014.45 Q523.108 1005.24 534.729 1005.24 Z" fill="#000000" fill-rule="nonzero" fill-opacity="1" /><path clip-path="url(#clip740)" d="M575.053 1063.85 L584.821 1063.85 L584.821 1075.61 L575.053 1075.61 L575.053 1063.85 Z" fill="#000000" fill-rule="nonzero" fill-opacity="1" /><path clip-path="url(#clip740)" d="M625.191 1012.64 Q617.969 1012.64 614.312 1019.77 Q610.701 1026.86 610.701 1041.12 Q610.701 1055.33 614.312 1062.46 Q617.969 1069.54 625.191 1069.54 Q632.46 1069.54 636.071 1062.46 Q639.728 1055.33 639.728 1041.12 Q639.728 1026.86 636.071 1019.77 Q632.46 1012.64 625.191 1012.64 M625.191 1005.24 Q636.812 1005.24 642.923 1014.45 Q649.08 1023.62 649.08 1041.12 Q649.08 1058.57 642.923 1067.78 Q636.812 1076.95 625.191 1076.95 Q613.571 1076.95 607.414 1067.78 Q601.302 1058.57 601.302 1041.12 Q601.302 1023.62 607.414 1014.45 Q613.571 1005.24 625.191 1005.24 Z" fill="#000000" fill-rule="nonzero" fill-opacity="1" /><path clip-path="url(#clip740)" d="M422.415 749.88 Q429.127 751.315 432.877 755.852 Q436.674 760.389 436.674 767.055 Q436.674 777.287 429.637 782.889 Q422.6 788.49 409.637 788.49 Q405.285 788.49 400.655 787.611 Q396.072 786.777 391.165 785.065 L391.165 776.037 Q395.054 778.305 399.683 779.463 Q404.313 780.62 409.359 780.62 Q418.155 780.62 422.739 777.148 Q427.368 773.676 427.368 767.055 Q427.368 760.944 423.063 757.518 Q418.803 754.046 411.165 754.046 L403.109 754.046 L403.109 746.361 L411.535 746.361 Q418.433 746.361 422.09 743.63 Q425.748 740.852 425.748 735.667 Q425.748 730.343 421.952 727.519 Q418.202 724.648 411.165 724.648 Q407.322 724.648 402.924 725.482 Q398.526 726.315 393.248 728.074 L393.248 719.741 Q398.572 718.259 403.202 717.519 Q407.878 716.778 411.998 716.778 Q422.646 716.778 428.85 721.639 Q435.053 726.454 435.053 734.694 Q435.053 740.435 431.766 744.417 Q428.479 748.352 422.415 749.88 Z" fill="#000000" fill-rule="nonzero" fill-opacity="1" /><path clip-path="url(#clip740)" d="M454.498 718.028 L491.21 718.028 L491.21 725.898 L463.062 725.898 L463.062 742.843 Q465.099 742.148 467.137 741.824 Q469.174 741.454 471.211 741.454 Q482.785 741.454 489.544 747.796 Q496.303 754.139 496.303 764.972 Q496.303 776.129 489.359 782.333 Q482.414 788.49 469.775 788.49 Q465.424 788.49 460.887 787.75 Q456.396 787.009 451.581 785.527 L451.581 776.129 Q455.748 778.398 460.192 779.509 Q464.637 780.62 469.59 780.62 Q477.599 780.62 482.275 776.407 Q486.951 772.194 486.951 764.972 Q486.951 757.75 482.275 753.537 Q477.599 749.324 469.59 749.324 Q465.84 749.324 462.09 750.157 Q458.387 750.991 454.498 752.75 L454.498 718.028 Z" fill="#000000" fill-rule="nonzero" fill-opacity="1" /><path clip-path="url(#clip740)" d="M534.729 724.185 Q527.507 724.185 523.849 731.315 Q520.238 738.398 520.238 752.657 Q520.238 766.87 523.849 774 Q527.507 781.083 534.729 781.083 Q541.997 781.083 545.608 774 Q549.266 766.87 549.266 752.657 Q549.266 738.398 545.608 731.315 Q541.997 724.185 534.729 724.185 M534.729 716.778 Q546.349 716.778 552.46 725.991 Q558.618 735.157 558.618 752.657 Q558.618 770.111 552.46 779.324 Q546.349 788.49 534.729 788.49 Q523.108 788.49 516.951 779.324 Q510.84 770.111 510.84 752.657 Q510.84 735.157 516.951 725.991 Q523.108 716.778 534.729 716.778 Z" fill="#000000" fill-rule="nonzero" fill-opacity="1" /><path clip-path="url(#clip740)" d="M575.053 775.389 L584.821 775.389 L584.821 787.148 L575.053 787.148 L575.053 775.389 Z" fill="#000000" fill-rule="nonzero" fill-opacity="1" /><path clip-path="url(#clip740)" d="M625.191 724.185 Q617.969 724.185 614.312 731.315 Q610.701 738.398 610.701 752.657 Q610.701 766.87 614.312 774 Q617.969 781.083 625.191 781.083 Q632.46 781.083 636.071 774 Q639.728 766.87 639.728 752.657 Q639.728 738.398 636.071 731.315 Q632.46 724.185 625.191 724.185 M625.191 716.778 Q636.812 716.778 642.923 725.991 Q649.08 735.157 649.08 752.657 Q649.08 770.111 642.923 779.324 Q636.812 788.49 625.191 788.49 Q613.571 788.49 607.414 779.324 Q601.302 770.111 601.302 752.657 Q601.302 735.157 607.414 725.991 Q613.571 716.778 625.191 716.778 Z" fill="#000000" fill-rule="nonzero" fill-opacity="1" /><path clip-path="url(#clip740)" d="M419.776 437.718 L396.165 474.616 L419.776 474.616 L419.776 437.718 M417.322 429.57 L429.081 429.57 L429.081 474.616 L438.942 474.616 L438.942 482.393 L429.081 482.393 L429.081 498.69 L419.776 498.69 L419.776 482.393 L388.572 482.393 L388.572 473.366 L417.322 429.57 Z" fill="#000000" fill-rule="nonzero" fill-opacity="1" /><path clip-path="url(#clip740)" d="M474.405 435.727 Q467.183 435.727 463.525 442.857 Q459.914 449.94 459.914 464.199 Q459.914 478.412 463.525 485.542 Q467.183 492.625 474.405 492.625 Q481.673 492.625 485.285 485.542 Q488.942 478.412 488.942 464.199 Q488.942 449.94 485.285 442.857 Q481.673 435.727 474.405 435.727 M474.405 428.32 Q486.025 428.32 492.136 437.533 Q498.294 446.699 498.294 464.199 Q498.294 481.653 492.136 490.866 Q486.025 500.032 474.405 500.032 Q462.785 500.032 456.627 490.866 Q450.516 481.653 450.516 464.199 Q450.516 446.699 456.627 437.533 Q462.785 428.32 474.405 428.32 Z" fill="#000000" fill-rule="nonzero" fill-opacity="1" /><path clip-path="url(#clip740)" d="M534.729 435.727 Q527.507 435.727 523.849 442.857 Q520.238 449.94 520.238 464.199 Q520.238 478.412 523.849 485.542 Q527.507 492.625 534.729 492.625 Q541.997 492.625 545.608 485.542 Q549.266 478.412 549.266 464.199 Q549.266 449.94 545.608 442.857 Q541.997 435.727 534.729 435.727 M534.729 428.32 Q546.349 428.32 552.46 437.533 Q558.618 446.699 558.618 464.199 Q558.618 481.653 552.46 490.866 Q546.349 500.032 534.729 500.032 Q523.108 500.032 516.951 490.866 Q510.84 481.653 510.84 464.199 Q510.84 446.699 516.951 437.533 Q523.108 428.32 534.729 428.32 Z" fill="#000000" fill-rule="nonzero" fill-opacity="1" /><path clip-path="url(#clip740)" d="M575.053 486.93 L584.821 486.93 L584.821 498.69 L575.053 498.69 L575.053 486.93 Z" fill="#000000" fill-rule="nonzero" fill-opacity="1" /><path clip-path="url(#clip740)" d="M625.191 435.727 Q617.969 435.727 614.312 442.857 Q610.701 449.94 610.701 464.199 Q610.701 478.412 614.312 485.542 Q617.969 492.625 625.191 492.625 Q632.46 492.625 636.071 485.542 Q639.728 478.412 639.728 464.199 Q639.728 449.94 636.071 442.857 Q632.46 435.727 625.191 435.727 M625.191 428.32 Q636.812 428.32 642.923 437.533 Q649.08 446.699 649.08 464.199 Q649.08 481.653 642.923 490.866 Q636.812 500.032 625.191 500.032 Q613.571 500.032 607.414 490.866 Q601.302 481.653 601.302 464.199 Q601.302 446.699 607.414 437.533 Q613.571 428.32 625.191 428.32 Z" fill="#000000" fill-rule="nonzero" fill-opacity="1" /><path clip-path="url(#clip740)" d="M419.776 149.26 L396.165 186.158 L419.776 186.158 L419.776 149.26 M417.322 141.111 L429.081 141.111 L429.081 186.158 L438.942 186.158 L438.942 193.935 L429.081 193.935 L429.081 210.231 L419.776 210.231 L419.776 193.935 L388.572 193.935 L388.572 184.908 L417.322 141.111 Z" fill="#000000" fill-rule="nonzero" fill-opacity="1" /><path clip-path="url(#clip740)" d="M454.498 141.111 L491.21 141.111 L491.21 148.982 L463.062 148.982 L463.062 165.926 Q465.099 165.232 467.137 164.908 Q469.174 164.537 471.211 164.537 Q482.785 164.537 489.544 170.88 Q496.303 177.222 496.303 188.056 Q496.303 199.213 489.359 205.417 Q482.414 211.574 469.775 211.574 Q465.424 211.574 460.887 210.833 Q456.396 210.093 451.581 208.611 L451.581 199.213 Q455.748 201.481 460.192 202.593 Q464.637 203.704 469.59 203.704 Q477.599 203.704 482.275 199.491 Q486.951 195.278 486.951 188.056 Q486.951 180.833 482.275 176.621 Q477.599 172.408 469.59 172.408 Q465.84 172.408 462.09 173.241 Q458.387 174.074 454.498 175.833 L454.498 141.111 Z" fill="#000000" fill-rule="nonzero" fill-opacity="1" /><path clip-path="url(#clip740)" d="M534.729 147.269 Q527.507 147.269 523.849 154.398 Q520.238 161.482 520.238 175.741 Q520.238 189.954 523.849 197.083 Q527.507 204.167 534.729 204.167 Q541.997 204.167 545.608 197.083 Q549.266 189.954 549.266 175.741 Q549.266 161.482 545.608 154.398 Q541.997 147.269 534.729 147.269 M534.729 139.861 Q546.349 139.861 552.46 149.074 Q558.618 158.241 558.618 175.741 Q558.618 193.195 552.46 202.407 Q546.349 211.574 534.729 211.574 Q523.108 211.574 516.951 202.407 Q510.84 193.195 510.84 175.741 Q510.84 158.241 516.951 149.074 Q523.108 139.861 534.729 139.861 Z" fill="#000000" fill-rule="nonzero" fill-opacity="1" /><path clip-path="url(#clip740)" d="M575.053 198.472 L584.821 198.472 L584.821 210.231 L575.053 210.231 L575.053 198.472 Z" fill="#000000" fill-rule="nonzero" fill-opacity="1" /><path clip-path="url(#clip740)" d="M625.191 147.269 Q617.969 147.269 614.312 154.398 Q610.701 161.482 610.701 175.741 Q610.701 189.954 614.312 197.083 Q617.969 204.167 625.191 204.167 Q632.46 204.167 636.071 197.083 Q639.728 189.954 639.728 175.741 Q639.728 161.482 636.071 154.398 Q632.46 147.269 625.191 147.269 M625.191 139.861 Q636.812 139.861 642.923 149.074 Q649.08 158.241 649.08 175.741 Q649.08 193.195 642.923 202.407 Q636.812 211.574 625.191 211.574 Q613.571 211.574 607.414 202.407 Q601.302 193.195 601.302 175.741 Q601.302 158.241 607.414 149.074 Q613.571 139.861 625.191 139.861 Z" fill="#000000" fill-rule="nonzero" fill-opacity="1" /><path clip-path="url(#clip740)" d="M313.366 932.195 L351.178 932.195 L351.178 943.972 L252.764 943.972 L252.764 932.195 L263.586 932.195 Q257.22 928.503 254.165 922.901 Q251.045 917.236 251.045 909.406 Q251.045 896.42 261.358 888.336 Q271.67 880.188 288.476 880.188 Q305.281 880.188 315.594 888.336 Q325.906 896.42 325.906 909.406 Q325.906 917.236 322.851 922.901 Q319.731 928.503 313.366 932.195 M288.476 892.346 Q275.553 892.346 268.233 897.693 Q260.849 902.977 260.849 912.271 Q260.849 921.565 268.233 926.912 Q275.553 932.195 288.476 932.195 Q301.398 932.195 308.782 926.912 Q316.103 921.565 316.103 912.271 Q316.103 902.977 308.782 897.693 Q301.398 892.346 288.476 892.346 Z" fill="#000000" fill-rule="nonzero" fill-opacity="1" /><path clip-path="url(#clip740)" d="M288.221 828.371 Q288.221 842.566 291.468 848.041 Q294.714 853.515 302.544 853.515 Q308.782 853.515 312.475 849.441 Q316.103 845.303 316.103 838.238 Q316.103 828.498 309.228 822.642 Q302.289 816.721 290.831 816.721 L288.221 816.721 L288.221 828.371 M283.383 805.009 L324.06 805.009 L324.06 816.721 L313.238 816.721 Q319.731 820.732 322.851 826.716 Q325.906 832.699 325.906 841.357 Q325.906 852.306 319.795 858.799 Q313.62 865.228 303.308 865.228 Q291.277 865.228 285.166 857.207 Q279.055 849.123 279.055 833.145 L279.055 816.721 L277.909 816.721 Q269.824 816.721 265.432 822.069 Q260.976 827.352 260.976 836.964 Q260.976 843.075 262.44 848.868 Q263.904 854.661 266.832 860.008 L256.011 860.008 Q253.528 853.579 252.319 847.531 Q251.045 841.484 251.045 835.755 Q251.045 820.286 259.066 812.647 Q267.087 805.009 283.383 805.009 Z" fill="#000000" fill-rule="nonzero" fill-opacity="1" /><path clip-path="url(#clip740)" d="M263.713 739.569 Q262.567 741.542 262.058 743.898 Q261.485 746.189 261.485 748.99 Q261.485 758.921 267.978 764.268 Q274.408 769.552 286.502 769.552 L324.06 769.552 L324.06 781.328 L252.764 781.328 L252.764 769.552 L263.841 769.552 Q257.348 765.859 254.228 759.939 Q251.045 754.019 251.045 745.553 Q251.045 744.343 251.236 742.879 Q251.364 741.415 251.682 739.633 L263.713 739.569 Z" fill="#000000" fill-rule="nonzero" fill-opacity="1" /><path clip-path="url(#clip740)" d="M285.484 669.164 L291.213 669.164 L291.213 723.018 Q303.308 722.254 309.674 715.761 Q315.976 709.205 315.976 697.555 Q315.976 690.808 314.321 684.506 Q312.666 678.14 309.355 671.902 L320.432 671.902 Q323.105 678.204 324.506 684.824 Q325.906 691.444 325.906 698.256 Q325.906 715.316 315.976 725.31 Q306.045 735.24 289.112 735.24 Q271.607 735.24 261.358 725.819 Q251.045 716.334 251.045 700.293 Q251.045 685.906 260.339 677.567 Q269.57 669.164 285.484 669.164 M282.046 680.877 Q272.434 681.005 266.705 686.288 Q260.976 691.508 260.976 700.165 Q260.976 709.969 266.514 715.889 Q272.052 721.745 282.11 722.636 L282.046 680.877 Z" fill="#000000" fill-rule="nonzero" fill-opacity="1" /><path clip-path="url(#clip740)" d="M281.028 590.675 L324.06 590.675 L324.06 602.388 L281.41 602.388 Q271.288 602.388 266.259 606.335 Q261.231 610.282 261.231 618.175 Q261.231 627.66 267.278 633.134 Q273.325 638.609 283.765 638.609 L324.06 638.609 L324.06 650.386 L252.764 650.386 L252.764 638.609 L263.841 638.609 Q257.411 634.408 254.228 628.742 Q251.045 623.013 251.045 615.565 Q251.045 603.279 258.684 596.977 Q266.259 590.675 281.028 590.675 Z" fill="#000000" fill-rule="nonzero" fill-opacity="1" /><path clip-path="url(#clip740)" d="M307.891 565.658 L307.891 552.226 L324.06 552.226 L324.06 565.658 L307.891 565.658 Z" fill="#000000" fill-rule="nonzero" fill-opacity="1" /><path clip-path="url(#clip740)" d="M272.816 443.818 Q274.79 434.588 281.028 429.432 Q287.266 424.212 296.433 424.212 Q310.501 424.212 318.204 433.888 Q325.906 443.564 325.906 461.388 Q325.906 467.371 324.697 473.737 Q323.551 480.039 321.196 486.787 L308.782 486.787 Q311.902 481.44 313.493 475.074 Q315.084 468.708 315.084 461.77 Q315.084 449.675 310.31 443.373 Q305.536 437.007 296.433 437.007 Q288.03 437.007 283.32 442.927 Q278.545 448.784 278.545 459.287 L278.545 470.363 L267.978 470.363 L267.978 458.778 Q267.978 449.293 264.222 444.264 Q260.403 439.235 253.273 439.235 Q245.953 439.235 242.07 444.455 Q238.123 449.611 238.123 459.287 Q238.123 464.571 239.269 470.618 Q240.415 476.665 242.834 483.922 L231.375 483.922 Q229.338 476.602 228.32 470.236 Q227.301 463.807 227.301 458.141 Q227.301 443.5 233.985 434.97 Q240.606 426.44 251.937 426.44 Q259.83 426.44 265.305 430.96 Q270.715 435.479 272.816 443.818 Z" fill="#000000" fill-rule="nonzero" fill-opacity="1" /><polyline clip-path="url(#clip742)" style="stroke:#008000; stroke-linecap:round; stroke-linejoin:round; stroke-width:8; stroke-opacity:1; fill:none" points="730.941,160.598 848.534,210.957 966.127,307.625 1083.72,351.074 1201.31,330.988 1318.91,466.508 1436.5,594.85 1554.09,688.623 1671.69,847.17 1789.28,896.939 1906.87,937.412 2024.46,911.26 2142.06,969.099 2259.65,912.742 "/>
<circle clip-path="url(#clip742)" cx="730.941" cy="160.598" r="14.4" fill="#008000" fill-rule="evenodd" fill-opacity="1" stroke="#000000" stroke-opacity="1" stroke-width="6.4"/>
<circle clip-path="url(#clip742)" cx="848.534" cy="210.957" r="14.4" fill="#008000" fill-rule="evenodd" fill-opacity="1" stroke="#000000" stroke-opacity="1" stroke-width="6.4"/>
<circle clip-path="url(#clip742)" cx="966.127" cy="307.625" r="14.4" fill="#008000" fill-rule="evenodd" fill-opacity="1" stroke="#000000" stroke-opacity="1" stroke-width="6.4"/>
<circle clip-path="url(#clip742)" cx="1083.72" cy="351.074" r="14.4" fill="#008000" fill-rule="evenodd" fill-opacity="1" stroke="#000000" stroke-opacity="1" stroke-width="6.4"/>
<circle clip-path="url(#clip742)" cx="1201.31" cy="330.988" r="14.4" fill="#008000" fill-rule="evenodd" fill-opacity="1" stroke="#000000" stroke-opacity="1" stroke-width="6.4"/>
<circle clip-path="url(#clip742)" cx="1318.91" cy="466.508" r="14.4" fill="#008000" fill-rule="evenodd" fill-opacity="1" stroke="#000000" stroke-opacity="1" stroke-width="6.4"/>
<circle clip-path="url(#clip742)" cx="1436.5" cy="594.85" r="14.4" fill="#008000" fill-rule="evenodd" fill-opacity="1" stroke="#000000" stroke-opacity="1" stroke-width="6.4"/>
<circle clip-path="url(#clip742)" cx="1554.09" cy="688.623" r="14.4" fill="#008000" fill-rule="evenodd" fill-opacity="1" stroke="#000000" stroke-opacity="1" stroke-width="6.4"/>
<circle clip-path="url(#clip742)" cx="1671.69" cy="847.17" r="14.4" fill="#008000" fill-rule="evenodd" fill-opacity="1" stroke="#000000" stroke-opacity="1" stroke-width="6.4"/>
<circle clip-path="url(#clip742)" cx="1789.28" cy="896.939" r="14.4" fill="#008000" fill-rule="evenodd" fill-opacity="1" stroke="#000000" stroke-opacity="1" stroke-width="6.4"/>
<circle clip-path="url(#clip742)" cx="1906.87" cy="937.412" r="14.4" fill="#008000" fill-rule="evenodd" fill-opacity="1" stroke="#000000" stroke-opacity="1" stroke-width="6.4"/>
<circle clip-path="url(#clip742)" cx="2024.46" cy="911.26" r="14.4" fill="#008000" fill-rule="evenodd" fill-opacity="1" stroke="#000000" stroke-opacity="1" stroke-width="6.4"/>
<circle clip-path="url(#clip742)" cx="2142.06" cy="969.099" r="14.4" fill="#008000" fill-rule="evenodd" fill-opacity="1" stroke="#000000" stroke-opacity="1" stroke-width="6.4"/>
<circle clip-path="url(#clip742)" cx="2259.65" cy="912.742" r="14.4" fill="#008000" fill-rule="evenodd" fill-opacity="1" stroke="#000000" stroke-opacity="1" stroke-width="6.4"/>
<polyline clip-path="url(#clip742)" style="stroke:#00008b; stroke-linecap:round; stroke-linejoin:round; stroke-width:8; stroke-opacity:1; fill:none" points="730.941,190.37 848.534,273.506 966.127,362.831 1083.72,450.532 1201.31,537.702 1318.91,620.583 1436.5,705.277 1554.09,780.115 1671.69,854.868 1789.28,924.826 1906.87,986.241 2024.46,1054.67 2142.06,1111.14 2259.65,1170.26 "/>
<path clip-path="url(#clip742)" d="M730.941 252.959 L848.534 337.184 L966.127 428.138 L1083.72 515.393 L1201.31 601.24 L1318.91 684.056 L1436.5 766.919 L1554.09 843.462 L1671.69 918.465 L1789.28 992.56 L1906.87 1049.92 L2024.46 1121.2 L2142.06 1177.52 L2259.65 1240.32 L2259.65 1103.27 L2142.06 1046.02 L2024.46 988.485 L1906.87 920.304 L1789.28 855.061 L1671.69 791.775 L1554.09 716.287 L1436.5 643.396 L1318.91 553.045 L1201.31 474.55 L1083.72 387.629 L966.127 295.274 L848.534 206.686 L730.941 127.862  Z" fill="#0000ff" fill-rule="evenodd" fill-opacity="0.1"/>
<polyline clip-path="url(#clip742)" style="stroke:#0000ff; stroke-linecap:round; stroke-linejoin:round; stroke-width:0; stroke-opacity:0.1; fill:none" points="730.941,252.959 848.534,337.184 966.127,428.138 1083.72,515.393 1201.31,601.24 1318.91,684.056 1436.5,766.919 1554.09,843.462 1671.69,918.465 1789.28,992.56 1906.87,1049.92 2024.46,1121.2 2142.06,1177.52 2259.65,1240.32 "/>
</svg>
