<?xml version="1.0" encoding="utf-8"?>
<svg xmlns="http://www.w3.org/2000/svg" xmlns:xlink="http://www.w3.org/1999/xlink" width="600" height="400" viewBox="0 0 2400 1600">
<defs>
  <clipPath id="clip390">
    <rect x="0" y="0" width="2400" height="1600"/>
  </clipPath>
</defs>
<path clip-path="url(#clip390)" d="M0 1600 L2400 1600 L2400 0 L0 0  Z" fill="#ffffff" fill-rule="evenodd" fill-opacity="1"/>
<defs>
  <clipPath id="clip391">
    <rect x="480" y="0" width="1681" height="1600"/>
  </clipPath>
</defs>
<path clip-path="url(#clip390)" d="M685.08 1273.7 L2305.51 1273.7 L2305.51 94.4882 L685.08 94.4882  Z" fill="#ffffff" fill-rule="evenodd" fill-opacity="1"/>
<defs>
  <clipPath id="clip392">
    <rect x="685" y="94" width="1621" height="1180"/>
  </clipPath>
</defs>
<polyline clip-path="url(#clip392)" style="stroke:#000000; stroke-linecap:round; stroke-linejoin:round; stroke-width:4; stroke-opacity:0.1; fill:none" points="730.941,1273.7 730.941,94.4882 "/>
<polyline clip-path="url(#clip392)" style="stroke:#000000; stroke-linecap:round; stroke-linejoin:round; stroke-width:4; stroke-opacity:0.1; fill:none" points="966.127,1273.7 966.127,94.4882 "/>
<polyline clip-path="url(#clip392)" style="stroke:#000000; stroke-linecap:round; stroke-linejoin:round; stroke-width:4; stroke-opacity:0.1; fill:none" points="1201.31,1273.7 1201.31,94.4882 "/>
<polyline clip-path="url(#clip392)" style="stroke:#000000; stroke-linecap:round; stroke-linejoin:round; stroke-width:4; stroke-opacity:0.1; fill:none" points="1436.5,1273.7 1436.5,94.4882 "/>
<polyline clip-path="url(#clip392)" style="stroke:#000000; stroke-linecap:round; stroke-linejoin:round; stroke-width:4; stroke-opacity:0.1; fill:none" points="1671.69,1273.7 1671.69,94.4882 "/>
<polyline clip-path="url(#clip392)" style="stroke:#000000; stroke-linecap:round; stroke-linejoin:round; stroke-width:4; stroke-opacity:0.1; fill:none" points="1906.87,1273.7 1906.87,94.4882 "/>
<polyline clip-path="url(#clip392)" style="stroke:#000000; stroke-linecap:round; stroke-linejoin:round; stroke-width:4; stroke-opacity:0.1; fill:none" points="2142.06,1273.7 2142.06,94.4882 "/>
<polyline clip-path="url(#clip390)" style="stroke:#000000; stroke-linecap:round; stroke-linejoin:round; stroke-width:8; stroke-opacity:1; fill:none" points="685.08,1273.7 2305.51,1273.7 "/>
<polyline clip-path="url(#clip390)" style="stroke:#000000; stroke-linecap:round; stroke-linejoin:round; stroke-width:8; stroke-opacity:1; fill:none" points="730.941,1273.7 730.941,1254.8 "/>
<polyline clip-path="url(#clip390)" style="stroke:#000000; stroke-linecap:round; stroke-linejoin:round; stroke-width:8; stroke-opacity:1; fill:none" points="966.127,1273.7 966.127,1254.8 "/>
<polyline clip-path="url(#clip390)" style="stroke:#000000; stroke-linecap:round; stroke-linejoin:round; stroke-width:8; stroke-opacity:1; fill:none" points="1201.31,1273.7 1201.31,1254.8 "/>
<polyline clip-path="url(#clip390)" style="stroke:#000000; stroke-linecap:round; stroke-linejoin:round; stroke-width:8; stroke-opacity:1; fill:none" points="1436.5,1273.7 1436.5,1254.8 "/>
<polyline clip-path="url(#clip390)" style="stroke:#000000; stroke-linecap:round; stroke-linejoin:round; stroke-width:8; stroke-opacity:1; fill:none" points="1671.69,1273.7 1671.69,1254.8 "/>
<polyline clip-path="url(#clip390)" style="stroke:#000000; stroke-linecap:round; stroke-linejoin:round; stroke-width:8; stroke-opacity:1; fill:none" points="1906.87,1273.7 1906.87,1254.8 "/>
<polyline clip-path="url(#clip390)" style="stroke:#000000; stroke-linecap:round; stroke-linejoin:round; stroke-width:8; stroke-opacity:1; fill:none" points="2142.06,1273.7 2142.06,1254.8 "/>
<path clip-path="url(#clip390)" d="M685.71 1316.33 Q678.488 1316.33 674.83 1323.46 Q671.219 1330.55 671.219 1344.81 Q671.219 1359.02 674.83 1366.15 Q678.488 1373.23 685.71 1373.23 Q692.978 1373.23 696.59 1366.15 Q700.247 1359.02 700.247 1344.81 Q700.247 1330.55 696.59 1323.46 Q692.978 1316.33 685.71 1316.33 M685.71 1308.93 Q697.33 1308.93 703.441 1318.14 Q709.599 1327.31 709.599 1344.81 Q709.599 1362.26 703.441 1371.47 Q697.33 1380.64 685.71 1380.64 Q674.09 1380.64 667.932 1371.47 Q661.821 1362.26 661.821 1344.81 Q661.821 1327.31 667.932 1318.14 Q674.09 1308.93 685.71 1308.93 Z" fill="#000000" fill-rule="nonzero" fill-opacity="1" /><path clip-path="url(#clip390)" d="M726.034 1367.54 L735.802 1367.54 L735.802 1379.3 L726.034 1379.3 L726.034 1367.54 Z" fill="#000000" fill-rule="nonzero" fill-opacity="1" /><path clip-path="url(#clip390)" d="M776.172 1316.33 Q768.95 1316.33 765.293 1323.46 Q761.682 1330.55 761.682 1344.81 Q761.682 1359.02 765.293 1366.15 Q768.95 1373.23 776.172 1373.23 Q783.441 1373.23 787.052 1366.15 Q790.709 1359.02 790.709 1344.81 Q790.709 1330.55 787.052 1323.46 Q783.441 1316.33 776.172 1316.33 M776.172 1308.93 Q787.793 1308.93 793.904 1318.14 Q800.061 1327.31 800.061 1344.81 Q800.061 1362.26 793.904 1371.47 Q787.793 1380.64 776.172 1380.64 Q764.552 1380.64 758.395 1371.47 Q752.284 1362.26 752.284 1344.81 Q752.284 1327.31 758.395 1318.14 Q764.552 1308.93 776.172 1308.93 Z" fill="#000000" fill-rule="nonzero" fill-opacity="1" /><path clip-path="url(#clip390)" d="M922.493 1316.33 Q915.271 1316.33 911.614 1323.46 Q908.003 1330.55 908.003 1344.81 Q908.003 1359.02 911.614 1366.15 Q915.271 1373.23 922.493 1373.23 Q929.762 1373.23 933.373 1366.15 Q937.03 1359.02 937.03 1344.81 Q937.03 1330.55 933.373 1323.46 Q929.762 1316.33 922.493 1316.33 M922.493 1308.93 Q934.114 1308.93 940.225 1318.14 Q946.382 1327.31 946.382 1344.81 Q946.382 1362.26 940.225 1371.47 Q934.114 1380.64 922.493 1380.64 Q910.873 1380.64 904.716 1371.47 Q898.605 1362.26 898.605 1344.81 Q898.605 1327.31 904.716 1318.14 Q910.873 1308.93 922.493 1308.93 Z" fill="#000000" fill-rule="nonzero" fill-opacity="1" /><path clip-path="url(#clip390)" d="M962.817 1367.54 L972.586 1367.54 L972.586 1379.3 L962.817 1379.3 L962.817 1367.54 Z" fill="#000000" fill-rule="nonzero" fill-opacity="1" /><path clip-path="url(#clip390)" d="M1001.01 1371.43 L1033.65 1371.43 L1033.65 1379.3 L989.761 1379.3 L989.761 1371.43 Q995.085 1365.92 1004.25 1356.66 Q1013.47 1347.35 1015.83 1344.67 Q1020.32 1339.62 1022.08 1336.15 Q1023.88 1332.63 1023.88 1329.25 Q1023.88 1323.74 1019.99 1320.27 Q1016.15 1316.8 1009.95 1316.8 Q1005.55 1316.8 1000.64 1318.32 Q995.78 1319.85 990.224 1322.95 L990.224 1313.51 Q995.873 1311.24 1000.78 1310.08 Q1005.69 1308.93 1009.76 1308.93 Q1020.5 1308.93 1026.89 1314.3 Q1033.28 1319.67 1033.28 1328.65 Q1033.28 1332.91 1031.66 1336.75 Q1030.09 1340.55 1025.87 1345.73 Q1024.71 1347.07 1018.51 1353.51 Q1012.31 1359.9 1001.01 1371.43 Z" fill="#000000" fill-rule="nonzero" fill-opacity="1" /><path clip-path="url(#clip390)" d="M1155.6 1316.33 Q1148.37 1316.33 1144.72 1323.46 Q1141.11 1330.55 1141.11 1344.81 Q1141.11 1359.02 1144.72 1366.15 Q1148.37 1373.23 1155.6 1373.23 Q1162.86 1373.23 1166.48 1366.15 Q1170.13 1359.02 1170.13 1344.81 Q1170.13 1330.55 1166.48 1323.46 Q1162.86 1316.33 1155.6 1316.33 M1155.6 1308.93 Q1167.22 1308.93 1173.33 1318.14 Q1179.48 1327.31 1179.48 1344.81 Q1179.48 1362.26 1173.33 1371.47 Q1167.22 1380.64 1155.6 1380.64 Q1143.98 1380.64 1137.82 1371.47 Q1131.71 1362.26 1131.71 1344.81 Q1131.71 1327.31 1137.82 1318.14 Q1143.98 1308.93 1155.6 1308.93 Z" fill="#000000" fill-rule="nonzero" fill-opacity="1" /><path clip-path="url(#clip390)" d="M1195.92 1367.54 L1205.69 1367.54 L1205.69 1379.3 L1195.92 1379.3 L1195.92 1367.54 Z" fill="#000000" fill-rule="nonzero" fill-opacity="1" /><path clip-path="url(#clip390)" d="M1251.75 1318.32 L1228.14 1355.22 L1251.75 1355.22 L1251.75 1318.32 M1249.3 1310.18 L1261.06 1310.18 L1261.06 1355.22 L1270.92 1355.22 L1270.92 1363 L1261.06 1363 L1261.06 1379.3 L1251.75 1379.3 L1251.75 1363 L1220.55 1363 L1220.55 1353.97 L1249.3 1310.18 Z" fill="#000000" fill-rule="nonzero" fill-opacity="1" /><path clip-path="url(#clip390)" d="M1391.11 1316.33 Q1383.88 1316.33 1380.23 1323.46 Q1376.62 1330.55 1376.62 1344.81 Q1376.62 1359.02 1380.23 1366.15 Q1383.88 1373.23 1391.11 1373.23 Q1398.37 1373.23 1401.99 1366.15 Q1405.64 1359.02 1405.64 1344.81 Q1405.64 1330.55 1401.99 1323.46 Q1398.37 1316.33 1391.11 1316.33 M1391.11 1308.93 Q1402.73 1308.93 1408.84 1318.14 Q1414.99 1327.31 1414.99 1344.81 Q1414.99 1362.26 1408.84 1371.47 Q1402.73 1380.64 1391.11 1380.64 Q1379.49 1380.64 1373.33 1371.47 Q1367.22 1362.26 1367.22 1344.81 Q1367.22 1327.31 1373.33 1318.14 Q1379.49 1308.93 1391.11 1308.93 Z" fill="#000000" fill-rule="nonzero" fill-opacity="1" /><path clip-path="url(#clip390)" d="M1431.43 1367.54 L1441.2 1367.54 L1441.2 1379.3 L1431.43 1379.3 L1431.43 1367.54 Z" fill="#000000" fill-rule="nonzero" fill-opacity="1" /><path clip-path="url(#clip390)" d="M1482.73 1341.01 Q1476.43 1341.01 1472.73 1345.31 Q1469.07 1349.62 1469.07 1357.12 Q1469.07 1364.57 1472.73 1368.93 Q1476.43 1373.23 1482.73 1373.23 Q1489.02 1373.23 1492.68 1368.93 Q1496.38 1364.57 1496.38 1357.12 Q1496.38 1349.62 1492.68 1345.31 Q1489.02 1341.01 1482.73 1341.01 M1501.29 1311.7 L1501.29 1320.22 Q1497.77 1318.56 1494.16 1317.68 Q1490.6 1316.8 1487.08 1316.8 Q1477.82 1316.8 1472.91 1323.05 Q1468.05 1329.3 1467.36 1341.93 Q1470.09 1337.91 1474.21 1335.78 Q1478.33 1333.6 1483.28 1333.6 Q1493.7 1333.6 1499.72 1339.94 Q1505.78 1346.24 1505.78 1357.12 Q1505.78 1367.77 1499.49 1374.2 Q1493.19 1380.64 1482.73 1380.64 Q1470.74 1380.64 1464.39 1371.47 Q1458.05 1362.26 1458.05 1344.81 Q1458.05 1328.42 1465.83 1318.69 Q1473.61 1308.93 1486.71 1308.93 Q1490.23 1308.93 1493.79 1309.62 Q1497.4 1310.31 1501.29 1311.7 Z" fill="#000000" fill-rule="nonzero" fill-opacity="1" /><path clip-path="url(#clip390)" d="M1626.55 1316.33 Q1619.32 1316.33 1615.67 1323.46 Q1612.06 1330.55 1612.06 1344.81 Q1612.06 1359.02 1615.67 1366.15 Q1619.32 1373.23 1626.55 1373.23 Q1633.82 1373.23 1637.43 1366.15 Q1641.08 1359.02 1641.08 1344.81 Q1641.08 1330.55 1637.43 1323.46 Q1633.82 1316.33 1626.55 1316.33 M1626.55 1308.93 Q1638.17 1308.93 1644.28 1318.14 Q1650.44 1327.31 1650.44 1344.81 Q1650.44 1362.26 1644.28 1371.47 Q1638.17 1380.64 1626.55 1380.64 Q1614.93 1380.64 1608.77 1371.47 Q1602.66 1362.26 1602.66 1344.81 Q1602.66 1327.31 1608.77 1318.14 Q1614.93 1308.93 1626.55 1308.93 Z" fill="#000000" fill-rule="nonzero" fill-opacity="1" /><path clip-path="url(#clip390)" d="M1666.87 1367.54 L1676.64 1367.54 L1676.64 1379.3 L1666.87 1379.3 L1666.87 1367.54 Z" fill="#000000" fill-rule="nonzero" fill-opacity="1" /><path clip-path="url(#clip390)" d="M1717.01 1346.47 Q1710.34 1346.47 1706.5 1350.04 Q1702.7 1353.6 1702.7 1359.85 Q1702.7 1366.1 1706.5 1369.67 Q1710.34 1373.23 1717.01 1373.23 Q1723.68 1373.23 1727.52 1369.67 Q1731.36 1366.06 1731.36 1359.85 Q1731.36 1353.6 1727.52 1350.04 Q1723.72 1346.47 1717.01 1346.47 M1707.66 1342.49 Q1701.64 1341.01 1698.26 1336.89 Q1694.93 1332.77 1694.93 1326.84 Q1694.93 1318.56 1700.81 1313.74 Q1706.73 1308.93 1717.01 1308.93 Q1727.33 1308.93 1733.21 1313.74 Q1739.09 1318.56 1739.09 1326.84 Q1739.09 1332.77 1735.71 1336.89 Q1732.38 1341.01 1726.41 1342.49 Q1733.17 1344.06 1736.92 1348.65 Q1740.71 1353.23 1740.71 1359.85 Q1740.71 1369.9 1734.56 1375.27 Q1728.44 1380.64 1717.01 1380.64 Q1705.57 1380.64 1699.42 1375.27 Q1693.31 1369.9 1693.31 1359.85 Q1693.31 1353.23 1697.1 1348.65 Q1700.9 1344.06 1707.66 1342.49 M1704.23 1327.72 Q1704.23 1333.09 1707.56 1336.1 Q1710.94 1339.11 1717.01 1339.11 Q1723.03 1339.11 1726.41 1336.1 Q1729.83 1333.09 1729.83 1327.72 Q1729.83 1322.35 1726.41 1319.34 Q1723.03 1316.33 1717.01 1316.33 Q1710.94 1316.33 1707.56 1319.34 Q1704.23 1322.35 1704.23 1327.72 Z" fill="#000000" fill-rule="nonzero" fill-opacity="1" /><path clip-path="url(#clip390)" d="M1841.18 1371.43 L1856.46 1371.43 L1856.46 1318.69 L1839.83 1322.03 L1839.83 1313.51 L1856.36 1310.18 L1865.71 1310.18 L1865.71 1371.43 L1880.99 1371.43 L1880.99 1379.3 L1841.18 1379.3 L1841.18 1371.43 Z" fill="#000000" fill-rule="nonzero" fill-opacity="1" /><path clip-path="url(#clip390)" d="M1899.88 1367.54 L1909.65 1367.54 L1909.65 1379.3 L1899.88 1379.3 L1899.88 1367.54 Z" fill="#000000" fill-rule="nonzero" fill-opacity="1" /><path clip-path="url(#clip390)" d="M1950.02 1316.33 Q1942.8 1316.33 1939.14 1323.46 Q1935.53 1330.55 1935.53 1344.81 Q1935.53 1359.02 1939.14 1366.15 Q1942.8 1373.23 1950.02 1373.23 Q1957.29 1373.23 1960.9 1366.15 Q1964.56 1359.02 1964.56 1344.81 Q1964.56 1330.55 1960.9 1323.46 Q1957.29 1316.33 1950.02 1316.33 M1950.02 1308.93 Q1961.64 1308.93 1967.75 1318.14 Q1973.91 1327.31 1973.91 1344.81 Q1973.91 1362.26 1967.75 1371.47 Q1961.64 1380.64 1950.02 1380.64 Q1938.4 1380.64 1932.24 1371.47 Q1926.13 1362.26 1926.13 1344.81 Q1926.13 1327.31 1932.24 1318.14 Q1938.4 1308.93 1950.02 1308.93 Z" fill="#000000" fill-rule="nonzero" fill-opacity="1" /><path clip-path="url(#clip390)" d="M2077.96 1371.43 L2093.24 1371.43 L2093.24 1318.69 L2076.62 1322.03 L2076.62 1313.51 L2093.15 1310.18 L2102.5 1310.18 L2102.5 1371.43 L2117.78 1371.43 L2117.78 1379.3 L2077.96 1379.3 L2077.96 1371.43 Z" fill="#000000" fill-rule="nonzero" fill-opacity="1" /><path clip-path="url(#clip390)" d="M2136.66 1367.54 L2146.43 1367.54 L2146.43 1379.3 L2136.66 1379.3 L2136.66 1367.54 Z" fill="#000000" fill-rule="nonzero" fill-opacity="1" /><path clip-path="url(#clip390)" d="M2174.86 1371.43 L2207.5 1371.43 L2207.5 1379.3 L2163.61 1379.3 L2163.61 1371.43 Q2168.93 1365.92 2178.1 1356.66 Q2187.31 1347.35 2189.67 1344.67 Q2194.16 1339.62 2195.92 1336.15 Q2197.73 1332.63 2197.73 1329.25 Q2197.73 1323.74 2193.84 1320.27 Q2190 1316.8 2183.79 1316.8 Q2179.4 1316.8 2174.49 1318.32 Q2169.63 1319.85 2164.07 1322.95 L2164.07 1313.51 Q2169.72 1311.24 2174.63 1310.08 Q2179.53 1308.93 2183.61 1308.93 Q2194.35 1308.93 2200.74 1314.3 Q2207.13 1319.67 2207.13 1328.65 Q2207.13 1332.91 2205.51 1336.75 Q2203.93 1340.55 2199.72 1345.73 Q2198.56 1347.07 2192.36 1353.51 Q2186.15 1359.9 2174.86 1371.43 Z" fill="#000000" fill-rule="nonzero" fill-opacity="1" /><path clip-path="url(#clip390)" d="M1380.84 1484.39 L1380.84 1527.42 L1369.13 1527.42 L1369.13 1484.77 Q1369.13 1474.65 1365.18 1469.62 Q1361.23 1464.59 1353.34 1464.59 Q1343.86 1464.59 1338.38 1470.64 Q1332.91 1476.69 1332.91 1487.13 L1332.91 1527.42 L1321.13 1527.42 L1321.13 1428.37 L1332.91 1428.37 L1332.91 1467.2 Q1337.11 1460.77 1342.77 1457.59 Q1348.5 1454.41 1355.95 1454.41 Q1368.24 1454.41 1374.54 1462.05 Q1380.84 1469.62 1380.84 1484.39 Z" fill="#000000" fill-rule="nonzero" fill-opacity="1" /><path clip-path="url(#clip390)" d="M1431.83 1464.34 Q1422.41 1464.34 1416.93 1471.72 Q1411.46 1479.04 1411.46 1491.84 Q1411.46 1504.63 1416.87 1512.02 Q1422.34 1519.34 1431.83 1519.34 Q1441.19 1519.34 1446.66 1511.96 Q1452.14 1504.57 1452.14 1491.84 Q1452.14 1479.17 1446.66 1471.79 Q1441.19 1464.34 1431.83 1464.34 M1431.83 1454.41 Q1447.11 1454.41 1455.83 1464.34 Q1464.55 1474.27 1464.55 1491.84 Q1464.55 1509.35 1455.83 1519.34 Q1447.11 1529.27 1431.83 1529.27 Q1416.49 1529.27 1407.77 1519.34 Q1399.11 1509.35 1399.11 1491.84 Q1399.11 1474.27 1407.77 1464.34 Q1416.49 1454.41 1431.83 1454.41 Z" fill="#000000" fill-rule="nonzero" fill-opacity="1" /><path clip-path="url(#clip390)" d="M1482.76 1499.29 L1482.76 1456.13 L1494.47 1456.13 L1494.47 1498.84 Q1494.47 1508.96 1498.42 1514.06 Q1502.36 1519.08 1510.26 1519.08 Q1519.74 1519.08 1525.21 1513.04 Q1530.75 1506.99 1530.75 1496.55 L1530.75 1456.13 L1542.47 1456.13 L1542.47 1527.42 L1530.75 1527.42 L1530.75 1516.47 Q1526.49 1522.97 1520.82 1526.15 Q1515.22 1529.27 1507.77 1529.27 Q1495.49 1529.27 1489.12 1521.63 Q1482.76 1513.99 1482.76 1499.29 M1512.23 1454.41 L1512.23 1454.41 Z" fill="#000000" fill-rule="nonzero" fill-opacity="1" /><path clip-path="url(#clip390)" d="M1607.91 1467.08 Q1605.93 1465.93 1603.58 1465.42 Q1601.28 1464.85 1598.48 1464.85 Q1588.55 1464.85 1583.21 1471.34 Q1577.92 1477.77 1577.92 1489.87 L1577.92 1527.42 L1566.15 1527.42 L1566.15 1456.13 L1577.92 1456.13 L1577.92 1467.2 Q1581.61 1460.71 1587.53 1457.59 Q1593.46 1454.41 1601.92 1454.41 Q1603.13 1454.41 1604.6 1454.6 Q1606.06 1454.73 1607.84 1455.05 L1607.91 1467.08 Z" fill="#000000" fill-rule="nonzero" fill-opacity="1" /><path clip-path="url(#clip390)" d="M1665.64 1458.23 L1665.64 1469.3 Q1660.68 1466.76 1655.33 1465.49 Q1649.98 1464.21 1644.25 1464.21 Q1635.53 1464.21 1631.14 1466.89 Q1626.81 1469.56 1626.81 1474.91 Q1626.81 1478.98 1629.93 1481.34 Q1633.05 1483.63 1642.47 1485.73 L1646.48 1486.62 Q1658.96 1489.29 1664.18 1494.19 Q1669.46 1499.03 1669.46 1507.75 Q1669.46 1517.68 1661.57 1523.48 Q1653.74 1529.27 1639.99 1529.27 Q1634.26 1529.27 1628.02 1528.12 Q1621.85 1527.04 1614.97 1524.81 L1614.97 1512.72 Q1621.46 1516.09 1627.77 1517.81 Q1634.07 1519.47 1640.24 1519.47 Q1648.52 1519.47 1652.97 1516.67 Q1657.43 1513.8 1657.43 1508.64 Q1657.43 1503.87 1654.18 1501.32 Q1651 1498.78 1640.12 1496.42 L1636.04 1495.47 Q1625.16 1493.18 1620.32 1488.47 Q1615.48 1483.69 1615.48 1475.42 Q1615.48 1465.36 1622.61 1459.88 Q1629.74 1454.41 1642.85 1454.41 Q1649.35 1454.41 1655.08 1455.36 Q1660.8 1456.32 1665.64 1458.23 Z" fill="#000000" fill-rule="nonzero" fill-opacity="1" /><polyline clip-path="url(#clip392)" style="stroke:#000000; stroke-linecap:round; stroke-linejoin:round; stroke-width:4; stroke-opacity:0.1; fill:none" points="685.08,1048.15 2305.51,1048.15 "/>
<polyline clip-path="url(#clip392)" style="stroke:#000000; stroke-linecap:round; stroke-linejoin:round; stroke-width:4; stroke-opacity:0.1; fill:none" points="685.08,780.47 2305.51,780.47 "/>
<polyline clip-path="url(#clip392)" style="stroke:#000000; stroke-linecap:round; stroke-linejoin:round; stroke-width:4; stroke-opacity:0.1; fill:none" points="685.08,512.789 2305.51,512.789 "/>
<polyline clip-path="url(#clip392)" style="stroke:#000000; stroke-linecap:round; stroke-linejoin:round; stroke-width:4; stroke-opacity:0.1; fill:none" points="685.08,245.108 2305.51,245.108 "/>
<polyline clip-path="url(#clip390)" style="stroke:#000000; stroke-linecap:round; stroke-linejoin:round; stroke-width:8; stroke-opacity:1; fill:none" points="685.08,1273.7 685.08,94.4882 "/>
<polyline clip-path="url(#clip390)" style="stroke:#000000; stroke-linecap:round; stroke-linejoin:round; stroke-width:8; stroke-opacity:1; fill:none" points="685.08,1048.15 703.978,1048.15 "/>
<polyline clip-path="url(#clip390)" style="stroke:#000000; stroke-linecap:round; stroke-linejoin:round; stroke-width:8; stroke-opacity:1; fill:none" points="685.08,780.47 703.978,780.47 "/>
<polyline clip-path="url(#clip390)" style="stroke:#000000; stroke-linecap:round; stroke-linejoin:round; stroke-width:8; stroke-opacity:1; fill:none" points="685.08,512.789 703.978,512.789 "/>
<polyline clip-path="url(#clip390)" style="stroke:#000000; stroke-linecap:round; stroke-linejoin:round; stroke-width:8; stroke-opacity:1; fill:none" points="685.08,245.108 703.978,245.108 "/>
<path clip-path="url(#clip390)" d="M402.137 1074.84 L434.776 1074.84 L434.776 1082.71 L390.887 1082.71 L390.887 1074.84 Q396.211 1069.33 405.378 1060.07 Q414.59 1050.77 416.952 1048.08 Q421.442 1043.04 423.202 1039.56 Q425.007 1036.04 425.007 1032.66 Q425.007 1027.16 421.118 1023.68 Q417.276 1020.21 411.072 1020.21 Q406.674 1020.21 401.766 1021.74 Q396.905 1023.27 391.35 1026.37 L391.35 1016.92 Q396.998 1014.66 401.905 1013.5 Q406.813 1012.34 410.887 1012.34 Q421.627 1012.34 428.016 1017.71 Q434.405 1023.08 434.405 1032.06 Q434.405 1036.32 432.785 1040.16 Q431.211 1043.96 426.998 1049.15 Q425.84 1050.49 419.637 1056.92 Q413.433 1063.31 402.137 1074.84 Z" fill="#000000" fill-rule="nonzero" fill-opacity="1" /><path clip-path="url(#clip390)" d="M454.498 1013.59 L491.21 1013.59 L491.21 1021.46 L463.062 1021.46 L463.062 1038.41 Q465.099 1037.71 467.137 1037.39 Q469.174 1037.02 471.211 1037.02 Q482.785 1037.02 489.544 1043.36 Q496.303 1049.7 496.303 1060.53 Q496.303 1071.69 489.359 1077.9 Q482.414 1084.05 469.775 1084.05 Q465.424 1084.05 460.887 1083.31 Q456.396 1082.57 451.581 1081.09 L451.581 1071.69 Q455.748 1073.96 460.192 1075.07 Q464.637 1076.18 469.59 1076.18 Q477.599 1076.18 482.275 1071.97 Q486.951 1067.76 486.951 1060.53 Q486.951 1053.31 482.275 1049.1 Q477.599 1044.89 469.59 1044.89 Q465.84 1044.89 462.09 1045.72 Q458.387 1046.55 454.498 1048.31 L454.498 1013.59 Z" fill="#000000" fill-rule="nonzero" fill-opacity="1" /><path clip-path="url(#clip390)" d="M534.729 1019.75 Q527.507 1019.75 523.849 1026.88 Q520.238 1033.96 520.238 1048.22 Q520.238 1062.43 523.849 1069.56 Q527.507 1076.65 534.729 1076.65 Q541.997 1076.65 545.608 1069.56 Q549.266 1062.43 549.266 1048.22 Q549.266 1033.96 545.608 1026.88 Q541.997 1019.75 534.729 1019.75 M534.729 1012.34 Q546.349 1012.34 552.46 1021.55 Q558.618 1030.72 558.618 1048.22 Q558.618 1065.67 552.46 1074.89 Q546.349 1084.05 534.729 1084.05 Q523.108 1084.05 516.951 1074.89 Q510.84 1065.67 510.84 1048.22 Q510.84 1030.72 516.951 1021.55 Q523.108 1012.34 534.729 1012.34 Z" fill="#000000" fill-rule="nonzero" fill-opacity="1" /><path clip-path="url(#clip390)" d="M575.053 1070.95 L584.821 1070.95 L584.821 1082.71 L575.053 1082.71 L575.053 1070.95 Z" fill="#000000" fill-rule="nonzero" fill-opacity="1" /><path clip-path="url(#clip390)" d="M625.191 1019.75 Q617.969 1019.75 614.312 1026.88 Q610.701 1033.96 610.701 1048.22 Q610.701 1062.43 614.312 1069.56 Q617.969 1076.65 625.191 1076.65 Q632.46 1076.65 636.071 1069.56 Q639.728 1062.43 639.728 1048.22 Q639.728 1033.96 636.071 1026.88 Q632.46 1019.75 625.191 1019.75 M625.191 1012.34 Q636.812 1012.34 642.923 1021.55 Q649.08 1030.72 649.08 1048.22 Q649.08 1065.67 642.923 1074.89 Q636.812 1084.05 625.191 1084.05 Q613.571 1084.05 607.414 1074.89 Q601.302 1065.67 601.302 1048.22 Q601.302 1030.72 607.414 1021.55 Q613.571 1012.34 625.191 1012.34 Z" fill="#000000" fill-rule="nonzero" fill-opacity="1" /><path clip-path="url(#clip390)" d="M422.415 777.761 Q429.127 779.197 432.877 783.734 Q436.674 788.271 436.674 794.937 Q436.674 805.169 429.637 810.771 Q422.6 816.372 409.637 816.372 Q405.285 816.372 400.655 815.493 Q396.072 814.659 391.165 812.946 L391.165 803.919 Q395.054 806.187 399.683 807.345 Q404.313 808.502 409.359 808.502 Q418.155 808.502 422.739 805.03 Q427.368 801.558 427.368 794.937 Q427.368 788.826 423.063 785.4 Q418.803 781.928 411.165 781.928 L403.109 781.928 L403.109 774.243 L411.535 774.243 Q418.433 774.243 422.09 771.512 Q425.748 768.734 425.748 763.549 Q425.748 758.225 421.952 755.4 Q418.202 752.53 411.165 752.53 Q407.322 752.53 402.924 753.363 Q398.526 754.197 393.248 755.956 L393.248 747.623 Q398.572 746.141 403.202 745.401 Q407.878 744.66 411.998 744.66 Q422.646 744.66 428.85 749.521 Q435.053 754.336 435.053 762.576 Q435.053 768.317 431.766 772.299 Q428.479 776.234 422.415 777.761 Z" fill="#000000" fill-rule="nonzero" fill-opacity="1" /><path clip-path="url(#clip390)" d="M474.405 752.067 Q467.183 752.067 463.525 759.197 Q459.914 766.28 459.914 780.539 Q459.914 794.752 463.525 801.882 Q467.183 808.965 474.405 808.965 Q481.673 808.965 485.285 801.882 Q488.942 794.752 488.942 780.539 Q488.942 766.28 485.285 759.197 Q481.673 752.067 474.405 752.067 M474.405 744.66 Q486.025 744.66 492.136 753.873 Q498.294 763.039 498.294 780.539 Q498.294 797.993 492.136 807.206 Q486.025 816.372 474.405 816.372 Q462.785 816.372 456.627 807.206 Q450.516 797.993 450.516 780.539 Q450.516 763.039 456.627 753.873 Q462.785 744.66 474.405 744.66 Z" fill="#000000" fill-rule="nonzero" fill-opacity="1" /><path clip-path="url(#clip390)" d="M534.729 752.067 Q527.507 752.067 523.849 759.197 Q520.238 766.28 520.238 780.539 Q520.238 794.752 523.849 801.882 Q527.507 808.965 534.729 808.965 Q541.997 808.965 545.608 801.882 Q549.266 794.752 549.266 780.539 Q549.266 766.28 545.608 759.197 Q541.997 752.067 534.729 752.067 M534.729 744.66 Q546.349 744.66 552.46 753.873 Q558.618 763.039 558.618 780.539 Q558.618 797.993 552.46 807.206 Q546.349 816.372 534.729 816.372 Q523.108 816.372 516.951 807.206 Q510.84 797.993 510.84 780.539 Q510.84 763.039 516.951 753.873 Q523.108 744.66 534.729 744.66 Z" fill="#000000" fill-rule="nonzero" fill-opacity="1" /><path clip-path="url(#clip390)" d="M575.053 803.271 L584.821 803.271 L584.821 815.03 L575.053 815.03 L575.053 803.271 Z" fill="#000000" fill-rule="nonzero" fill-opacity="1" /><path clip-path="url(#clip390)" d="M625.191 752.067 Q617.969 752.067 614.312 759.197 Q610.701 766.28 610.701 780.539 Q610.701 794.752 614.312 801.882 Q617.969 808.965 625.191 808.965 Q632.46 808.965 636.071 801.882 Q639.728 794.752 639.728 780.539 Q639.728 766.28 636.071 759.197 Q632.46 752.067 625.191 752.067 M625.191 744.66 Q636.812 744.66 642.923 753.873 Q649.08 763.039 649.08 780.539 Q649.08 797.993 642.923 807.206 Q636.812 816.372 625.191 816.372 Q613.571 816.372 607.414 807.206 Q601.302 797.993 601.302 780.539 Q601.302 763.039 607.414 753.873 Q613.571 744.66 625.191 744.66 Z" fill="#000000" fill-rule="nonzero" fill-opacity="1" /><path clip-path="url(#clip390)" d="M422.415 510.081 Q429.127 511.516 432.877 516.053 Q436.674 520.59 436.674 527.256 Q436.674 537.488 429.637 543.09 Q422.6 548.691 409.637 548.691 Q405.285 548.691 400.655 547.812 Q396.072 546.978 391.165 545.266 L391.165 536.238 Q395.054 538.506 399.683 539.664 Q404.313 540.821 409.359 540.821 Q418.155 540.821 422.739 537.349 Q427.368 533.877 427.368 527.256 Q427.368 521.145 423.063 517.719 Q418.803 514.247 411.165 514.247 L403.109 514.247 L403.109 506.562 L411.535 506.562 Q418.433 506.562 422.09 503.831 Q425.748 501.053 425.748 495.868 Q425.748 490.544 421.952 487.72 Q418.202 484.849 411.165 484.849 Q407.322 484.849 402.924 485.683 Q398.526 486.516 393.248 488.275 L393.248 479.942 Q398.572 478.46 403.202 477.72 Q407.878 476.979 411.998 476.979 Q422.646 476.979 428.85 481.84 Q435.053 486.655 435.053 494.895 Q435.053 500.636 431.766 504.618 Q428.479 508.553 422.415 510.081 Z" fill="#000000" fill-rule="nonzero" fill-opacity="1" /><path clip-path="url(#clip390)" d="M454.498 478.229 L491.21 478.229 L491.21 486.099 L463.062 486.099 L463.062 503.044 Q465.099 502.349 467.137 502.025 Q469.174 501.655 471.211 501.655 Q482.785 501.655 489.544 507.997 Q496.303 514.34 496.303 525.173 Q496.303 536.33 489.359 542.534 Q482.414 548.691 469.775 548.691 Q465.424 548.691 460.887 547.951 Q456.396 547.21 451.581 545.728 L451.581 536.33 Q455.748 538.599 460.192 539.71 Q464.637 540.821 469.59 540.821 Q477.599 540.821 482.275 536.608 Q486.951 532.395 486.951 525.173 Q486.951 517.951 482.275 513.738 Q477.599 509.525 469.59 509.525 Q465.84 509.525 462.09 510.358 Q458.387 511.192 454.498 512.951 L454.498 478.229 Z" fill="#000000" fill-rule="nonzero" fill-opacity="1" /><path clip-path="url(#clip390)" d="M534.729 484.386 Q527.507 484.386 523.849 491.516 Q520.238 498.599 520.238 512.858 Q520.238 527.071 523.849 534.201 Q527.507 541.284 534.729 541.284 Q541.997 541.284 545.608 534.201 Q549.266 527.071 549.266 512.858 Q549.266 498.599 545.608 491.516 Q541.997 484.386 534.729 484.386 M534.729 476.979 Q546.349 476.979 552.46 486.192 Q558.618 495.358 558.618 512.858 Q558.618 530.312 552.46 539.525 Q546.349 548.691 534.729 548.691 Q523.108 548.691 516.951 539.525 Q510.84 530.312 510.84 512.858 Q510.84 495.358 516.951 486.192 Q523.108 476.979 534.729 476.979 Z" fill="#000000" fill-rule="nonzero" fill-opacity="1" /><path clip-path="url(#clip390)" d="M575.053 535.59 L584.821 535.59 L584.821 547.349 L575.053 547.349 L575.053 535.59 Z" fill="#000000" fill-rule="nonzero" fill-opacity="1" /><path clip-path="url(#clip390)" d="M625.191 484.386 Q617.969 484.386 614.312 491.516 Q610.701 498.599 610.701 512.858 Q610.701 527.071 614.312 534.201 Q617.969 541.284 625.191 541.284 Q632.46 541.284 636.071 534.201 Q639.728 527.071 639.728 512.858 Q639.728 498.599 636.071 491.516 Q632.46 484.386 625.191 484.386 M625.191 476.979 Q636.812 476.979 642.923 486.192 Q649.08 495.358 649.08 512.858 Q649.08 530.312 642.923 539.525 Q636.812 548.691 625.191 548.691 Q613.571 548.691 607.414 539.525 Q601.302 530.312 601.302 512.858 Q601.302 495.358 607.414 486.192 Q613.571 476.979 625.191 476.979 Z" fill="#000000" fill-rule="nonzero" fill-opacity="1" /><path clip-path="url(#clip390)" d="M419.776 218.696 L396.165 255.594 L419.776 255.594 L419.776 218.696 M417.322 210.548 L429.081 210.548 L429.081 255.594 L438.942 255.594 L438.942 263.372 L429.081 263.372 L429.081 279.668 L419.776 279.668 L419.776 263.372 L388.572 263.372 L388.572 254.344 L417.322 210.548 Z" fill="#000000" fill-rule="nonzero" fill-opacity="1" /><path clip-path="url(#clip390)" d="M474.405 216.705 Q467.183 216.705 463.525 223.835 Q459.914 230.918 459.914 245.177 Q459.914 259.39 463.525 266.52 Q467.183 273.603 474.405 273.603 Q481.673 273.603 485.285 266.52 Q488.942 259.39 488.942 245.177 Q488.942 230.918 485.285 223.835 Q481.673 216.705 474.405 216.705 M474.405 209.298 Q486.025 209.298 492.136 218.511 Q498.294 227.677 498.294 245.177 Q498.294 262.631 492.136 271.844 Q486.025 281.01 474.405 281.01 Q462.785 281.01 456.627 271.844 Q450.516 262.631 450.516 245.177 Q450.516 227.677 456.627 218.511 Q462.785 209.298 474.405 209.298 Z" fill="#000000" fill-rule="nonzero" fill-opacity="1" /><path clip-path="url(#clip390)" d="M534.729 216.705 Q527.507 216.705 523.849 223.835 Q520.238 230.918 520.238 245.177 Q520.238 259.39 523.849 266.52 Q527.507 273.603 534.729 273.603 Q541.997 273.603 545.608 266.52 Q549.266 259.39 549.266 245.177 Q549.266 230.918 545.608 223.835 Q541.997 216.705 534.729 216.705 M534.729 209.298 Q546.349 209.298 552.46 218.511 Q558.618 227.677 558.618 245.177 Q558.618 262.631 552.46 271.844 Q546.349 281.01 534.729 281.01 Q523.108 281.01 516.951 271.844 Q510.84 262.631 510.84 245.177 Q510.84 227.677 516.951 218.511 Q523.108 209.298 534.729 209.298 Z" fill="#000000" fill-rule="nonzero" fill-opacity="1" /><path clip-path="url(#clip390)" d="M575.053 267.909 L584.821 267.909 L584.821 279.668 L575.053 279.668 L575.053 267.909 Z" fill="#000000" fill-rule="nonzero" fill-opacity="1" /><path clip-path="url(#clip390)" d="M625.191 216.705 Q617.969 216.705 614.312 223.835 Q610.701 230.918 610.701 245.177 Q610.701 259.39 614.312 266.52 Q617.969 273.603 625.191 273.603 Q632.46 273.603 636.071 266.52 Q639.728 259.39 639.728 245.177 Q639.728 230.918 636.071 223.835 Q632.46 216.705 625.191 216.705 M625.191 209.298 Q636.812 209.298 642.923 218.511 Q649.08 227.677 649.08 245.177 Q649.08 262.631 642.923 271.844 Q636.812 281.01 625.191 281.01 Q613.571 281.01 607.414 271.844 Q601.302 262.631 601.302 245.177 Q601.302 227.677 607.414 218.511 Q613.571 209.298 625.191 209.298 Z" fill="#000000" fill-rule="nonzero" fill-opacity="1" /><path clip-path="url(#clip390)" d="M313.366 930.89 L351.178 930.89 L351.178 942.667 L252.764 942.667 L252.764 930.89 L263.586 930.89 Q257.22 927.198 254.165 921.596 Q251.045 915.931 251.045 908.101 Q251.045 895.115 261.358 887.031 Q271.67 878.883 288.476 878.883 Q305.281 878.883 315.594 887.031 Q325.906 895.115 325.906 908.101 Q325.906 915.931 322.851 921.596 Q319.731 927.198 313.366 930.89 M288.476 891.041 Q275.553 891.041 268.233 896.388 Q260.849 901.672 260.849 910.966 Q260.849 920.26 268.233 925.607 Q275.553 930.89 288.476 930.89 Q301.398 930.89 308.782 925.607 Q316.103 920.26 316.103 910.966 Q316.103 901.672 308.782 896.388 Q301.398 891.041 288.476 891.041 Z" fill="#000000" fill-rule="nonzero" fill-opacity="1" /><path clip-path="url(#clip390)" d="M288.221 827.066 Q288.221 841.261 291.468 846.736 Q294.714 852.21 302.544 852.21 Q308.782 852.21 312.475 848.136 Q316.103 843.999 316.103 836.933 Q316.103 827.193 309.228 821.337 Q302.289 815.416 290.831 815.416 L288.221 815.416 L288.221 827.066 M283.383 803.704 L324.06 803.704 L324.06 815.416 L313.238 815.416 Q319.731 819.427 322.851 825.411 Q325.906 831.394 325.906 840.052 Q325.906 851.001 319.795 857.494 Q313.62 863.923 303.308 863.923 Q291.277 863.923 285.166 855.902 Q279.055 847.818 279.055 831.84 L279.055 815.416 L277.909 815.416 Q269.824 815.416 265.432 820.764 Q260.976 826.047 260.976 835.659 Q260.976 841.771 262.44 847.563 Q263.904 853.356 266.832 858.703 L256.011 858.703 Q253.528 852.274 252.319 846.227 Q251.045 840.179 251.045 834.45 Q251.045 818.981 259.066 811.342 Q267.087 803.704 283.383 803.704 Z" fill="#000000" fill-rule="nonzero" fill-opacity="1" /><path clip-path="url(#clip390)" d="M263.713 738.264 Q262.567 740.238 262.058 742.593 Q261.485 744.884 261.485 747.685 Q261.485 757.616 267.978 762.963 Q274.408 768.247 286.502 768.247 L324.06 768.247 L324.06 780.023 L252.764 780.023 L252.764 768.247 L263.841 768.247 Q257.348 764.555 254.228 758.634 Q251.045 752.714 251.045 744.248 Q251.045 743.038 251.236 741.574 Q251.364 740.11 251.682 738.328 L263.713 738.264 Z" fill="#000000" fill-rule="nonzero" fill-opacity="1" /><path clip-path="url(#clip390)" d="M285.484 667.859 L291.213 667.859 L291.213 721.713 Q303.308 720.949 309.674 714.456 Q315.976 707.9 315.976 696.25 Q315.976 689.503 314.321 683.201 Q312.666 676.835 309.355 670.597 L320.432 670.597 Q323.105 676.899 324.506 683.519 Q325.906 690.139 325.906 696.951 Q325.906 714.011 315.976 724.005 Q306.045 733.935 289.112 733.935 Q271.607 733.935 261.358 724.514 Q251.045 715.029 251.045 698.988 Q251.045 684.601 260.339 676.262 Q269.57 667.859 285.484 667.859 M282.046 679.572 Q272.434 679.7 266.705 684.983 Q260.976 690.203 260.976 698.86 Q260.976 708.664 266.514 714.584 Q272.052 720.44 282.11 721.331 L282.046 679.572 Z" fill="#000000" fill-rule="nonzero" fill-opacity="1" /><path clip-path="url(#clip390)" d="M281.028 589.37 L324.06 589.37 L324.06 601.083 L281.41 601.083 Q271.288 601.083 266.259 605.03 Q261.231 608.977 261.231 616.87 Q261.231 626.355 267.278 631.83 Q273.325 637.304 283.765 637.304 L324.06 637.304 L324.06 649.081 L252.764 649.081 L252.764 637.304 L263.841 637.304 Q257.411 633.103 254.228 627.437 Q251.045 621.708 251.045 614.26 Q251.045 601.974 258.684 595.672 Q266.259 589.37 281.028 589.37 Z" fill="#000000" fill-rule="nonzero" fill-opacity="1" /><path clip-path="url(#clip390)" d="M307.891 564.353 L307.891 550.921 L324.06 550.921 L324.06 564.353 L307.891 564.353 Z" fill="#000000" fill-rule="nonzero" fill-opacity="1" /><path clip-path="url(#clip390)" d="M313.238 470.395 L313.238 425.517 L324.06 425.517 L324.06 485.864 L313.238 485.864 Q305.663 478.543 292.932 465.939 Q280.137 453.271 276.445 450.025 Q269.506 443.85 264.732 441.431 Q259.894 438.949 255.247 438.949 Q247.672 438.949 242.897 444.296 Q238.123 449.579 238.123 458.109 Q238.123 464.157 240.224 470.904 Q242.324 477.588 246.589 485.227 L233.603 485.227 Q230.484 477.461 228.893 470.713 Q227.301 463.966 227.301 458.364 Q227.301 443.596 234.686 434.811 Q242.07 426.026 254.419 426.026 Q260.276 426.026 265.559 428.254 Q270.779 430.419 277.909 436.211 Q279.755 437.803 288.603 446.333 Q297.388 454.863 313.238 470.395 Z" fill="#000000" fill-rule="nonzero" fill-opacity="1" /><polyline clip-path="url(#clip392)" style="stroke:#008000; stroke-linecap:round; stroke-linejoin:round; stroke-width:8; stroke-opacity:1; fill:none" points="730.941,127.862 848.534,167.944 966.127,352.382 1083.72,427.895 1201.31,400.114 1318.91,504.827 1436.5,587.28 1554.09,740.659 1671.69,846.758 1789.28,963.374 1906.87,929.007 2024.46,978.039 2142.06,939.256 2259.65,867.019 "/>
<circle clip-path="url(#clip392)" cx="730.941" cy="127.862" r="14.4" fill="#008000" fill-rule="evenodd" fill-opacity="1" stroke="#000000" stroke-opacity="1" stroke-width="6.4"/>
<circle clip-path="url(#clip392)" cx="848.534" cy="167.944" r="14.4" fill="#008000" fill-rule="evenodd" fill-opacity="1" stroke="#000000" stroke-opacity="1" stroke-width="6.4"/>
<circle clip-path="url(#clip392)" cx="966.127" cy="352.382" r="14.4" fill="#008000" fill-rule="evenodd" fill-opacity="1" stroke="#000000" stroke-opacity="1" stroke-width="6.4"/>
<circle clip-path="url(#clip392)" cx="1083.72" cy="427.895" r="14.4" fill="#008000" fill-rule="evenodd" fill-opacity="1" stroke="#000000" stroke-opacity="1" stroke-width="6.4"/>
<circle clip-path="url(#clip392)" cx="1201.31" cy="400.114" r="14.4" fill="#008000" fill-rule="evenodd" fill-opacity="1" stroke="#000000" stroke-opacity="1" stroke-width="6.4"/>
<circle clip-path="url(#clip392)" cx="1318.91" cy="504.827" r="14.4" fill="#008000" fill-rule="evenodd" fill-opacity="1" stroke="#000000" stroke-opacity="1" stroke-width="6.4"/>
<circle clip-path="url(#clip392)" cx="1436.5" cy="587.28" r="14.4" fill="#008000" fill-rule="evenodd" fill-opacity="1" stroke="#000000" stroke-opacity="1" stroke-width="6.4"/>
<circle clip-path="url(#clip392)" cx="1554.09" cy="740.659" r="14.4" fill="#008000" fill-rule="evenodd" fill-opacity="1" stroke="#000000" stroke-opacity="1" stroke-width="6.4"/>
<circle clip-path="url(#clip392)" cx="1671.69" cy="846.758" r="14.4" fill="#008000" fill-rule="evenodd" fill-opacity="1" stroke="#000000" stroke-opacity="1" stroke-width="6.4"/>
<circle clip-path="url(#clip392)" cx="1789.28" cy="963.374" r="14.4" fill="#008000" fill-rule="evenodd" fill-opacity="1" stroke="#000000" stroke-opacity="1" stroke-width="6.4"/>
<circle clip-path="url(#clip392)" cx="1906.87" cy="929.007" r="14.4" fill="#008000" fill-rule="evenodd" fill-opacity="1" stroke="#000000" stroke-opacity="1" stroke-width="6.4"/>
<circle clip-path="url(#clip392)" cx="2024.46" cy="978.039" r="14.4" fill="#008000" fill-rule="evenodd" fill-opacity="1" stroke="#000000" stroke-opacity="1" stroke-width="6.4"/>
<circle clip-path="url(#clip392)" cx="2142.06" cy="939.256" r="14.4" fill="#008000" fill-rule="evenodd" fill-opacity="1" stroke="#000000" stroke-opacity="1" stroke-width="6.4"/>
<circle clip-path="url(#clip392)" cx="2259.65" cy="867.019" r="14.4" fill="#008000" fill-rule="evenodd" fill-opacity="1" stroke="#000000" stroke-opacity="1" stroke-width="6.4"/>
<polyline clip-path="url(#clip392)" style="stroke:#00008b; stroke-linecap:round; stroke-linejoin:round; stroke-width:8; stroke-opacity:1; fill:none" points="730.941,230.956 848.534,365.44 966.127,486.123 1083.72,590.788 1201.31,681.437 1318.91,759.667 1436.5,827.278 1554.09,889.362 1671.69,946.04 1789.28,999.735 1906.87,1056.71 2024.46,1100.51 2142.06,1141.81 2259.65,1182.76 "/>
<path clip-path="url(#clip392)" d="M730.941 287.661 L848.534 422.362 L966.127 548.718 L1083.72 650.858 L1201.31 744.557 L1318.91 818.508 L1436.5 886.682 L1554.09 947.963 L1671.69 1002.28 L1789.28 1056.51 L1906.87 1114.4 L2024.46 1155.81 L2142.06 1199.7 L2259.65 1240.32 L2259.65 1126.06 L2142.06 1082.96 L2024.46 1042.15 L1906.87 999.615 L1789.28 942.949 L1671.69 886.485 L1554.09 828.521 L1436.5 766.927 L1318.91 698.6 L1201.31 621.001 L1083.72 530.91 L966.127 424.998 L848.534 305.263 L730.941 174.188  Z" fill="#0000ff" fill-rule="evenodd" fill-opacity="0.1"/>
<polyline clip-path="url(#clip392)" style="stroke:#0000ff; stroke-linecap:round; stroke-linejoin:round; stroke-width:0; stroke-opacity:0.1; fill:none" points="730.941,287.661 848.534,422.362 966.127,548.718 1083.72,650.858 1201.31,744.557 1318.91,818.508 1436.5,886.682 1554.09,947.963 1671.69,1002.28 1789.28,1056.51 1906.87,1114.4 2024.46,1155.81 2142.06,1199.7 2259.65,1240.32 "/>
</svg>
