<?xml version="1.0" encoding="utf-8"?>
<svg xmlns="http://www.w3.org/2000/svg" xmlns:xlink="http://www.w3.org/1999/xlink" width="600" height="400" viewBox="0 0 2400 1600">
<defs>
  <clipPath id="clip860">
    <rect x="0" y="0" width="2400" height="1600"/>
  </clipPath>
</defs>
<path clip-path="url(#clip860)" d="M0 1600 L2400 1600 L2400 0 L0 0  Z" fill="#ffffff" fill-rule="evenodd" fill-opacity="1"/>
<defs>
  <clipPath id="clip861">
    <rect x="480" y="0" width="1681" height="1600"/>
  </clipPath>
</defs>
<path clip-path="url(#clip860)" d="M680.45 1273.7 L2305.51 1273.7 L2305.51 94.4882 L680.45 94.4882  Z" fill="#ffffff" fill-rule="evenodd" fill-opacity="1"/>
<defs>
  <clipPath id="clip862">
    <rect x="680" y="94" width="1626" height="1180"/>
  </clipPath>
</defs>
<polyline clip-path="url(#clip862)" style="stroke:#000000; stroke-linecap:round; stroke-linejoin:round; stroke-width:4; stroke-opacity:0.1; fill:none" points="726.443,1273.7 726.443,94.4882 "/>
<polyline clip-path="url(#clip862)" style="stroke:#000000; stroke-linecap:round; stroke-linejoin:round; stroke-width:4; stroke-opacity:0.1; fill:none" points="962.301,1273.7 962.301,94.4882 "/>
<polyline clip-path="url(#clip862)" style="stroke:#000000; stroke-linecap:round; stroke-linejoin:round; stroke-width:4; stroke-opacity:0.1; fill:none" points="1198.16,1273.7 1198.16,94.4882 "/>
<polyline clip-path="url(#clip862)" style="stroke:#000000; stroke-linecap:round; stroke-linejoin:round; stroke-width:4; stroke-opacity:0.1; fill:none" points="1434.02,1273.7 1434.02,94.4882 "/>
<polyline clip-path="url(#clip862)" style="stroke:#000000; stroke-linecap:round; stroke-linejoin:round; stroke-width:4; stroke-opacity:0.1; fill:none" points="1669.87,1273.7 1669.87,94.4882 "/>
<polyline clip-path="url(#clip862)" style="stroke:#000000; stroke-linecap:round; stroke-linejoin:round; stroke-width:4; stroke-opacity:0.1; fill:none" points="1905.73,1273.7 1905.73,94.4882 "/>
<polyline clip-path="url(#clip862)" style="stroke:#000000; stroke-linecap:round; stroke-linejoin:round; stroke-width:4; stroke-opacity:0.1; fill:none" points="2141.59,1273.7 2141.59,94.4882 "/>
<polyline clip-path="url(#clip860)" style="stroke:#000000; stroke-linecap:round; stroke-linejoin:round; stroke-width:8; stroke-opacity:1; fill:none" points="680.45,1273.7 2305.51,1273.7 "/>
<polyline clip-path="url(#clip860)" style="stroke:#000000; stroke-linecap:round; stroke-linejoin:round; stroke-width:8; stroke-opacity:1; fill:none" points="726.443,1273.7 726.443,1254.8 "/>
<polyline clip-path="url(#clip860)" style="stroke:#000000; stroke-linecap:round; stroke-linejoin:round; stroke-width:8; stroke-opacity:1; fill:none" points="962.301,1273.7 962.301,1254.8 "/>
<polyline clip-path="url(#clip860)" style="stroke:#000000; stroke-linecap:round; stroke-linejoin:round; stroke-width:8; stroke-opacity:1; fill:none" points="1198.16,1273.7 1198.16,1254.8 "/>
<polyline clip-path="url(#clip860)" style="stroke:#000000; stroke-linecap:round; stroke-linejoin:round; stroke-width:8; stroke-opacity:1; fill:none" points="1434.02,1273.7 1434.02,1254.8 "/>
<polyline clip-path="url(#clip860)" style="stroke:#000000; stroke-linecap:round; stroke-linejoin:round; stroke-width:8; stroke-opacity:1; fill:none" points="1669.87,1273.7 1669.87,1254.8 "/>
<polyline clip-path="url(#clip860)" style="stroke:#000000; stroke-linecap:round; stroke-linejoin:round; stroke-width:8; stroke-opacity:1; fill:none" points="1905.73,1273.7 1905.73,1254.8 "/>
<polyline clip-path="url(#clip860)" style="stroke:#000000; stroke-linecap:round; stroke-linejoin:round; stroke-width:8; stroke-opacity:1; fill:none" points="2141.59,1273.7 2141.59,1254.8 "/>
<path clip-path="url(#clip860)" d="M681.211 1316.33 Q673.989 1316.33 670.332 1323.46 Q666.721 1330.55 666.721 1344.81 Q666.721 1359.02 670.332 1366.15 Q673.989 1373.23 681.211 1373.23 Q688.48 1373.23 692.091 1366.15 Q695.748 1359.02 695.748 1344.81 Q695.748 1330.55 692.091 1323.46 Q688.48 1316.33 681.211 1316.33 M681.211 1308.93 Q692.832 1308.93 698.943 1318.14 Q705.1 1327.31 705.1 1344.81 Q705.1 1362.26 698.943 1371.47 Q692.832 1380.64 681.211 1380.64 Q669.591 1380.64 663.434 1371.47 Q657.323 1362.26 657.323 1344.81 Q657.323 1327.31 663.434 1318.14 Q669.591 1308.93 681.211 1308.93 Z" fill="#000000" fill-rule="nonzero" fill-opacity="1" /><path clip-path="url(#clip860)" d="M721.535 1367.54 L731.304 1367.54 L731.304 1379.3 L721.535 1379.3 L721.535 1367.54 Z" fill="#000000" fill-rule="nonzero" fill-opacity="1" /><path clip-path="url(#clip860)" d="M771.674 1316.33 Q764.452 1316.33 760.794 1323.46 Q757.183 1330.55 757.183 1344.81 Q757.183 1359.02 760.794 1366.15 Q764.452 1373.23 771.674 1373.23 Q778.942 1373.23 782.553 1366.15 Q786.211 1359.02 786.211 1344.81 Q786.211 1330.55 782.553 1323.46 Q778.942 1316.33 771.674 1316.33 M771.674 1308.93 Q783.294 1308.93 789.405 1318.14 Q795.563 1327.31 795.563 1344.81 Q795.563 1362.26 789.405 1371.47 Q783.294 1380.64 771.674 1380.64 Q760.054 1380.64 753.896 1371.47 Q747.785 1362.26 747.785 1344.81 Q747.785 1327.31 753.896 1318.14 Q760.054 1308.93 771.674 1308.93 Z" fill="#000000" fill-rule="nonzero" fill-opacity="1" /><path clip-path="url(#clip860)" d="M918.667 1316.33 Q911.444 1316.33 907.787 1323.46 Q904.176 1330.55 904.176 1344.81 Q904.176 1359.02 907.787 1366.15 Q911.444 1373.23 918.667 1373.23 Q925.935 1373.23 929.546 1366.15 Q933.204 1359.02 933.204 1344.81 Q933.204 1330.55 929.546 1323.46 Q925.935 1316.33 918.667 1316.33 M918.667 1308.93 Q930.287 1308.93 936.398 1318.14 Q942.555 1327.31 942.555 1344.81 Q942.555 1362.26 936.398 1371.47 Q930.287 1380.64 918.667 1380.64 Q907.046 1380.64 900.889 1371.47 Q894.778 1362.26 894.778 1344.81 Q894.778 1327.31 900.889 1318.14 Q907.046 1308.93 918.667 1308.93 Z" fill="#000000" fill-rule="nonzero" fill-opacity="1" /><path clip-path="url(#clip860)" d="M958.99 1367.54 L968.759 1367.54 L968.759 1379.3 L958.99 1379.3 L958.99 1367.54 Z" fill="#000000" fill-rule="nonzero" fill-opacity="1" /><path clip-path="url(#clip860)" d="M997.185 1371.43 L1029.82 1371.43 L1029.82 1379.3 L985.935 1379.3 L985.935 1371.43 Q991.259 1365.92 1000.43 1356.66 Q1009.64 1347.35 1012 1344.67 Q1016.49 1339.62 1018.25 1336.15 Q1020.05 1332.63 1020.05 1329.25 Q1020.05 1323.74 1016.17 1320.27 Q1012.32 1316.8 1006.12 1316.8 Q1001.72 1316.8 996.814 1318.32 Q991.953 1319.85 986.398 1322.95 L986.398 1313.51 Q992.046 1311.24 996.953 1310.08 Q1001.86 1308.93 1005.93 1308.93 Q1016.68 1308.93 1023.06 1314.3 Q1029.45 1319.67 1029.45 1328.65 Q1029.45 1332.91 1027.83 1336.75 Q1026.26 1340.55 1022.05 1345.73 Q1020.89 1347.07 1014.68 1353.51 Q1008.48 1359.9 997.185 1371.43 Z" fill="#000000" fill-rule="nonzero" fill-opacity="1" /><path clip-path="url(#clip860)" d="M1152.44 1316.33 Q1145.22 1316.33 1141.56 1323.46 Q1137.95 1330.55 1137.95 1344.81 Q1137.95 1359.02 1141.56 1366.15 Q1145.22 1373.23 1152.44 1373.23 Q1159.71 1373.23 1163.32 1366.15 Q1166.98 1359.02 1166.98 1344.81 Q1166.98 1330.55 1163.32 1323.46 Q1159.71 1316.33 1152.44 1316.33 M1152.44 1308.93 Q1164.06 1308.93 1170.17 1318.14 Q1176.33 1327.31 1176.33 1344.81 Q1176.33 1362.26 1170.17 1371.47 Q1164.06 1380.64 1152.44 1380.64 Q1140.82 1380.64 1134.66 1371.47 Q1128.55 1362.26 1128.55 1344.81 Q1128.55 1327.31 1134.66 1318.14 Q1140.82 1308.93 1152.44 1308.93 Z" fill="#000000" fill-rule="nonzero" fill-opacity="1" /><path clip-path="url(#clip860)" d="M1192.77 1367.54 L1202.53 1367.54 L1202.53 1379.3 L1192.77 1379.3 L1192.77 1367.54 Z" fill="#000000" fill-rule="nonzero" fill-opacity="1" /><path clip-path="url(#clip860)" d="M1248.6 1318.32 L1224.99 1355.22 L1248.6 1355.22 L1248.6 1318.32 M1246.14 1310.18 L1257.9 1310.18 L1257.9 1355.22 L1267.76 1355.22 L1267.76 1363 L1257.9 1363 L1257.9 1379.3 L1248.6 1379.3 L1248.6 1363 L1217.39 1363 L1217.39 1353.97 L1246.14 1310.18 Z" fill="#000000" fill-rule="nonzero" fill-opacity="1" /><path clip-path="url(#clip860)" d="M1388.62 1316.33 Q1381.4 1316.33 1377.74 1323.46 Q1374.13 1330.55 1374.13 1344.81 Q1374.13 1359.02 1377.74 1366.15 Q1381.4 1373.23 1388.62 1373.23 Q1395.89 1373.23 1399.5 1366.15 Q1403.16 1359.02 1403.16 1344.81 Q1403.16 1330.55 1399.5 1323.46 Q1395.89 1316.33 1388.62 1316.33 M1388.62 1308.93 Q1400.24 1308.93 1406.35 1318.14 Q1412.51 1327.31 1412.51 1344.81 Q1412.51 1362.26 1406.35 1371.47 Q1400.24 1380.64 1388.62 1380.64 Q1377 1380.64 1370.85 1371.47 Q1364.73 1362.26 1364.73 1344.81 Q1364.73 1327.31 1370.85 1318.14 Q1377 1308.93 1388.62 1308.93 Z" fill="#000000" fill-rule="nonzero" fill-opacity="1" /><path clip-path="url(#clip860)" d="M1428.95 1367.54 L1438.72 1367.54 L1438.72 1379.3 L1428.95 1379.3 L1428.95 1367.54 Z" fill="#000000" fill-rule="nonzero" fill-opacity="1" /><path clip-path="url(#clip860)" d="M1480.24 1341.01 Q1473.95 1341.01 1470.24 1345.31 Q1466.59 1349.62 1466.59 1357.12 Q1466.59 1364.57 1470.24 1368.93 Q1473.95 1373.23 1480.24 1373.23 Q1486.54 1373.23 1490.2 1368.93 Q1493.9 1364.57 1493.9 1357.12 Q1493.9 1349.62 1490.2 1345.31 Q1486.54 1341.01 1480.24 1341.01 M1498.81 1311.7 L1498.81 1320.22 Q1495.29 1318.56 1491.68 1317.68 Q1488.11 1316.8 1484.6 1316.8 Q1475.34 1316.8 1470.43 1323.05 Q1465.57 1329.3 1464.87 1341.93 Q1467.6 1337.91 1471.72 1335.78 Q1475.85 1333.6 1480.8 1333.6 Q1491.22 1333.6 1497.23 1339.94 Q1503.3 1346.24 1503.3 1357.12 Q1503.3 1367.77 1497 1374.2 Q1490.71 1380.64 1480.24 1380.64 Q1468.25 1380.64 1461.91 1371.47 Q1455.57 1362.26 1455.57 1344.81 Q1455.57 1328.42 1463.35 1318.69 Q1471.12 1308.93 1484.22 1308.93 Q1487.74 1308.93 1491.31 1309.62 Q1494.92 1310.31 1498.81 1311.7 Z" fill="#000000" fill-rule="nonzero" fill-opacity="1" /><path clip-path="url(#clip860)" d="M1624.74 1316.33 Q1617.51 1316.33 1613.86 1323.46 Q1610.25 1330.55 1610.25 1344.81 Q1610.25 1359.02 1613.86 1366.15 Q1617.51 1373.23 1624.74 1373.23 Q1632 1373.23 1635.62 1366.15 Q1639.27 1359.02 1639.27 1344.81 Q1639.27 1330.55 1635.62 1323.46 Q1632 1316.33 1624.74 1316.33 M1624.74 1308.93 Q1636.36 1308.93 1642.47 1318.14 Q1648.62 1327.31 1648.62 1344.81 Q1648.62 1362.26 1642.47 1371.47 Q1636.36 1380.64 1624.74 1380.64 Q1613.12 1380.64 1606.96 1371.47 Q1600.85 1362.26 1600.85 1344.81 Q1600.85 1327.31 1606.96 1318.14 Q1613.12 1308.93 1624.74 1308.93 Z" fill="#000000" fill-rule="nonzero" fill-opacity="1" /><path clip-path="url(#clip860)" d="M1665.06 1367.54 L1674.83 1367.54 L1674.83 1379.3 L1665.06 1379.3 L1665.06 1367.54 Z" fill="#000000" fill-rule="nonzero" fill-opacity="1" /><path clip-path="url(#clip860)" d="M1715.2 1346.47 Q1708.53 1346.47 1704.69 1350.04 Q1700.89 1353.6 1700.89 1359.85 Q1700.89 1366.1 1704.69 1369.67 Q1708.53 1373.23 1715.2 1373.23 Q1721.87 1373.23 1725.71 1369.67 Q1729.55 1366.06 1729.55 1359.85 Q1729.55 1353.6 1725.71 1350.04 Q1721.91 1346.47 1715.2 1346.47 M1705.85 1342.49 Q1699.83 1341.01 1696.45 1336.89 Q1693.12 1332.77 1693.12 1326.84 Q1693.12 1318.56 1698.99 1313.74 Q1704.92 1308.93 1715.2 1308.93 Q1725.52 1308.93 1731.4 1313.74 Q1737.28 1318.56 1737.28 1326.84 Q1737.28 1332.77 1733.9 1336.89 Q1730.57 1341.01 1724.6 1342.49 Q1731.36 1344.06 1735.11 1348.65 Q1738.9 1353.23 1738.9 1359.85 Q1738.9 1369.9 1732.74 1375.27 Q1726.63 1380.64 1715.2 1380.64 Q1703.76 1380.64 1697.61 1375.27 Q1691.49 1369.9 1691.49 1359.85 Q1691.49 1353.23 1695.29 1348.65 Q1699.09 1344.06 1705.85 1342.49 M1702.42 1327.72 Q1702.42 1333.09 1705.75 1336.1 Q1709.13 1339.11 1715.2 1339.11 Q1721.22 1339.11 1724.6 1336.1 Q1728.02 1333.09 1728.02 1327.72 Q1728.02 1322.35 1724.6 1319.34 Q1721.22 1316.33 1715.2 1316.33 Q1709.13 1316.33 1705.75 1319.34 Q1702.42 1322.35 1702.42 1327.72 Z" fill="#000000" fill-rule="nonzero" fill-opacity="1" /><path clip-path="url(#clip860)" d="M1840.04 1371.43 L1855.32 1371.43 L1855.32 1318.69 L1838.7 1322.03 L1838.7 1313.51 L1855.22 1310.18 L1864.58 1310.18 L1864.58 1371.43 L1879.85 1371.43 L1879.85 1379.3 L1840.04 1379.3 L1840.04 1371.43 Z" fill="#000000" fill-rule="nonzero" fill-opacity="1" /><path clip-path="url(#clip860)" d="M1898.74 1367.54 L1908.51 1367.54 L1908.51 1379.3 L1898.74 1379.3 L1898.74 1367.54 Z" fill="#000000" fill-rule="nonzero" fill-opacity="1" /><path clip-path="url(#clip860)" d="M1948.88 1316.33 Q1941.66 1316.33 1938 1323.46 Q1934.39 1330.55 1934.39 1344.81 Q1934.39 1359.02 1938 1366.15 Q1941.66 1373.23 1948.88 1373.23 Q1956.15 1373.23 1959.76 1366.15 Q1963.42 1359.02 1963.42 1344.81 Q1963.42 1330.55 1959.76 1323.46 Q1956.15 1316.33 1948.88 1316.33 M1948.88 1308.93 Q1960.5 1308.93 1966.61 1318.14 Q1972.77 1327.31 1972.77 1344.81 Q1972.77 1362.26 1966.61 1371.47 Q1960.5 1380.64 1948.88 1380.64 Q1937.26 1380.64 1931.1 1371.47 Q1924.99 1362.26 1924.99 1344.81 Q1924.99 1327.31 1931.1 1318.14 Q1937.26 1308.93 1948.88 1308.93 Z" fill="#000000" fill-rule="nonzero" fill-opacity="1" /><path clip-path="url(#clip860)" d="M2077.49 1371.43 L2092.77 1371.43 L2092.77 1318.69 L2076.15 1322.03 L2076.15 1313.51 L2092.68 1310.18 L2102.03 1310.18 L2102.03 1371.43 L2117.31 1371.43 L2117.31 1379.3 L2077.49 1379.3 L2077.49 1371.43 Z" fill="#000000" fill-rule="nonzero" fill-opacity="1" /><path clip-path="url(#clip860)" d="M2136.2 1367.54 L2145.97 1367.54 L2145.97 1379.3 L2136.2 1379.3 L2136.2 1367.54 Z" fill="#000000" fill-rule="nonzero" fill-opacity="1" /><path clip-path="url(#clip860)" d="M2174.39 1371.43 L2207.03 1371.43 L2207.03 1379.3 L2163.14 1379.3 L2163.14 1371.43 Q2168.47 1365.92 2177.63 1356.66 Q2186.84 1347.35 2189.21 1344.67 Q2193.7 1339.62 2195.46 1336.15 Q2197.26 1332.63 2197.26 1329.25 Q2197.26 1323.74 2193.37 1320.27 Q2189.53 1316.8 2183.33 1316.8 Q2178.93 1316.8 2174.02 1318.32 Q2169.16 1319.85 2163.6 1322.95 L2163.6 1313.51 Q2169.25 1311.24 2174.16 1310.08 Q2179.07 1308.93 2183.14 1308.93 Q2193.88 1308.93 2200.27 1314.3 Q2206.66 1319.67 2206.66 1328.65 Q2206.66 1332.91 2205.04 1336.75 Q2203.47 1340.55 2199.25 1345.73 Q2198.09 1347.07 2191.89 1353.51 Q2185.69 1359.9 2174.39 1371.43 Z" fill="#000000" fill-rule="nonzero" fill-opacity="1" /><path clip-path="url(#clip860)" d="M1378.53 1484.39 L1378.53 1527.42 L1366.81 1527.42 L1366.81 1484.77 Q1366.81 1474.65 1362.87 1469.62 Q1358.92 1464.59 1351.03 1464.59 Q1341.54 1464.59 1336.07 1470.64 Q1330.59 1476.69 1330.59 1487.13 L1330.59 1527.42 L1318.82 1527.42 L1318.82 1428.37 L1330.59 1428.37 L1330.59 1467.2 Q1334.79 1460.77 1340.46 1457.59 Q1346.19 1454.41 1353.64 1454.41 Q1365.92 1454.41 1372.22 1462.05 Q1378.53 1469.62 1378.53 1484.39 Z" fill="#000000" fill-rule="nonzero" fill-opacity="1" /><path clip-path="url(#clip860)" d="M1429.51 1464.34 Q1420.09 1464.34 1414.62 1471.72 Q1409.14 1479.04 1409.14 1491.84 Q1409.14 1504.63 1414.56 1512.02 Q1420.03 1519.34 1429.51 1519.34 Q1438.87 1519.34 1444.35 1511.96 Q1449.82 1504.57 1449.82 1491.84 Q1449.82 1479.17 1444.35 1471.79 Q1438.87 1464.34 1429.51 1464.34 M1429.51 1454.41 Q1444.79 1454.41 1453.51 1464.34 Q1462.23 1474.27 1462.23 1491.84 Q1462.23 1509.35 1453.51 1519.34 Q1444.79 1529.27 1429.51 1529.27 Q1414.17 1529.27 1405.45 1519.34 Q1396.8 1509.35 1396.8 1491.84 Q1396.8 1474.27 1405.45 1464.34 Q1414.17 1454.41 1429.51 1454.41 Z" fill="#000000" fill-rule="nonzero" fill-opacity="1" /><path clip-path="url(#clip860)" d="M1480.44 1499.29 L1480.44 1456.13 L1492.15 1456.13 L1492.15 1498.84 Q1492.15 1508.96 1496.1 1514.06 Q1500.05 1519.08 1507.94 1519.08 Q1517.43 1519.08 1522.9 1513.04 Q1528.44 1506.99 1528.44 1496.55 L1528.44 1456.13 L1540.15 1456.13 L1540.15 1527.42 L1528.44 1527.42 L1528.44 1516.47 Q1524.17 1522.97 1518.51 1526.15 Q1512.91 1529.27 1505.46 1529.27 Q1493.17 1529.27 1486.81 1521.63 Q1480.44 1513.99 1480.44 1499.29 M1509.91 1454.41 L1509.91 1454.41 Z" fill="#000000" fill-rule="nonzero" fill-opacity="1" /><path clip-path="url(#clip860)" d="M1605.59 1467.08 Q1603.62 1465.93 1601.26 1465.42 Q1598.97 1464.85 1596.17 1464.85 Q1586.24 1464.85 1580.89 1471.34 Q1575.61 1477.77 1575.61 1489.87 L1575.61 1527.42 L1563.83 1527.42 L1563.83 1456.13 L1575.61 1456.13 L1575.61 1467.2 Q1579.3 1460.71 1585.22 1457.59 Q1591.14 1454.41 1599.61 1454.41 Q1600.82 1454.41 1602.28 1454.6 Q1603.74 1454.73 1605.53 1455.05 L1605.59 1467.08 Z" fill="#000000" fill-rule="nonzero" fill-opacity="1" /><path clip-path="url(#clip860)" d="M1663.33 1458.23 L1663.33 1469.3 Q1658.36 1466.76 1653.01 1465.49 Q1647.67 1464.21 1641.94 1464.21 Q1633.22 1464.21 1628.83 1466.89 Q1624.5 1469.56 1624.5 1474.91 Q1624.5 1478.98 1627.62 1481.34 Q1630.73 1483.63 1640.16 1485.73 L1644.17 1486.62 Q1656.64 1489.29 1661.86 1494.19 Q1667.15 1499.03 1667.15 1507.75 Q1667.15 1517.68 1659.25 1523.48 Q1651.42 1529.27 1637.67 1529.27 Q1631.94 1529.27 1625.71 1528.12 Q1619.53 1527.04 1612.66 1524.81 L1612.66 1512.72 Q1619.15 1516.09 1625.45 1517.81 Q1631.75 1519.47 1637.93 1519.47 Q1646.2 1519.47 1650.66 1516.67 Q1655.12 1513.8 1655.12 1508.64 Q1655.12 1503.87 1651.87 1501.32 Q1648.69 1498.78 1637.8 1496.42 L1633.73 1495.47 Q1622.84 1493.18 1618 1488.47 Q1613.17 1483.69 1613.17 1475.42 Q1613.17 1465.36 1620.3 1459.88 Q1627.42 1454.41 1640.54 1454.41 Q1647.03 1454.41 1652.76 1455.36 Q1658.49 1456.32 1663.33 1458.23 Z" fill="#000000" fill-rule="nonzero" fill-opacity="1" /><polyline clip-path="url(#clip862)" style="stroke:#000000; stroke-linecap:round; stroke-linejoin:round; stroke-width:4; stroke-opacity:0.1; fill:none" points="680.45,1105.59 2305.51,1105.59 "/>
<polyline clip-path="url(#clip862)" style="stroke:#000000; stroke-linecap:round; stroke-linejoin:round; stroke-width:4; stroke-opacity:0.1; fill:none" points="680.45,899.305 2305.51,899.305 "/>
<polyline clip-path="url(#clip862)" style="stroke:#000000; stroke-linecap:round; stroke-linejoin:round; stroke-width:4; stroke-opacity:0.1; fill:none" points="680.45,693.017 2305.51,693.017 "/>
<polyline clip-path="url(#clip862)" style="stroke:#000000; stroke-linecap:round; stroke-linejoin:round; stroke-width:4; stroke-opacity:0.1; fill:none" points="680.45,486.729 2305.51,486.729 "/>
<polyline clip-path="url(#clip862)" style="stroke:#000000; stroke-linecap:round; stroke-linejoin:round; stroke-width:4; stroke-opacity:0.1; fill:none" points="680.45,280.442 2305.51,280.442 "/>
<polyline clip-path="url(#clip860)" style="stroke:#000000; stroke-linecap:round; stroke-linejoin:round; stroke-width:8; stroke-opacity:1; fill:none" points="680.45,1273.7 680.45,94.4882 "/>
<polyline clip-path="url(#clip860)" style="stroke:#000000; stroke-linecap:round; stroke-linejoin:round; stroke-width:8; stroke-opacity:1; fill:none" points="680.45,1105.59 699.348,1105.59 "/>
<polyline clip-path="url(#clip860)" style="stroke:#000000; stroke-linecap:round; stroke-linejoin:round; stroke-width:8; stroke-opacity:1; fill:none" points="680.45,899.305 699.348,899.305 "/>
<polyline clip-path="url(#clip860)" style="stroke:#000000; stroke-linecap:round; stroke-linejoin:round; stroke-width:8; stroke-opacity:1; fill:none" points="680.45,693.017 699.348,693.017 "/>
<polyline clip-path="url(#clip860)" style="stroke:#000000; stroke-linecap:round; stroke-linejoin:round; stroke-width:8; stroke-opacity:1; fill:none" points="680.45,486.729 699.348,486.729 "/>
<polyline clip-path="url(#clip860)" style="stroke:#000000; stroke-linecap:round; stroke-linejoin:round; stroke-width:8; stroke-opacity:1; fill:none" points="680.45,280.442 699.348,280.442 "/>
<path clip-path="url(#clip860)" d="M397.507 1132.28 L430.146 1132.28 L430.146 1140.15 L386.257 1140.15 L386.257 1132.28 Q391.581 1126.77 400.748 1117.51 Q409.961 1108.21 412.322 1105.52 Q416.813 1100.48 418.572 1097 Q420.378 1093.49 420.378 1090.11 Q420.378 1084.6 416.489 1081.12 Q412.646 1077.65 406.442 1077.65 Q402.044 1077.65 397.137 1079.18 Q392.276 1080.71 386.72 1083.81 L386.72 1074.37 Q392.368 1072.1 397.276 1070.94 Q402.183 1069.78 406.257 1069.78 Q416.998 1069.78 423.387 1075.15 Q429.776 1080.52 429.776 1089.5 Q429.776 1093.76 428.155 1097.61 Q426.581 1101.4 422.368 1106.59 Q421.211 1107.93 415.007 1114.37 Q408.803 1120.75 397.507 1132.28 Z" fill="#000000" fill-rule="nonzero" fill-opacity="1" /><path clip-path="url(#clip860)" d="M469.775 1107.33 Q463.109 1107.33 459.266 1110.89 Q455.47 1114.46 455.47 1120.71 Q455.47 1126.96 459.266 1130.52 Q463.109 1134.09 469.775 1134.09 Q476.442 1134.09 480.285 1130.52 Q484.127 1126.91 484.127 1120.71 Q484.127 1114.46 480.285 1110.89 Q476.488 1107.33 469.775 1107.33 M460.424 1103.35 Q454.405 1101.87 451.025 1097.75 Q447.692 1093.62 447.692 1087.7 Q447.692 1079.41 453.572 1074.6 Q459.498 1069.78 469.775 1069.78 Q480.099 1069.78 485.979 1074.6 Q491.859 1079.41 491.859 1087.7 Q491.859 1093.62 488.479 1097.75 Q485.146 1101.87 479.173 1103.35 Q485.933 1104.92 489.683 1109.5 Q493.479 1114.09 493.479 1120.71 Q493.479 1130.75 487.322 1136.12 Q481.211 1141.49 469.775 1141.49 Q458.34 1141.49 452.183 1136.12 Q446.072 1130.75 446.072 1120.71 Q446.072 1114.09 449.868 1109.5 Q453.664 1104.92 460.424 1103.35 M456.998 1088.58 Q456.998 1093.95 460.331 1096.96 Q463.711 1099.97 469.775 1099.97 Q475.794 1099.97 479.173 1096.96 Q482.599 1093.95 482.599 1088.58 Q482.599 1083.21 479.173 1080.2 Q475.794 1077.19 469.775 1077.19 Q463.711 1077.19 460.331 1080.2 Q456.998 1083.21 456.998 1088.58 Z" fill="#000000" fill-rule="nonzero" fill-opacity="1" /><path clip-path="url(#clip860)" d="M530.099 1077.19 Q522.877 1077.19 519.22 1084.32 Q515.608 1091.4 515.608 1105.66 Q515.608 1119.87 519.22 1127 Q522.877 1134.09 530.099 1134.09 Q537.368 1134.09 540.979 1127 Q544.636 1119.87 544.636 1105.66 Q544.636 1091.4 540.979 1084.32 Q537.368 1077.19 530.099 1077.19 M530.099 1069.78 Q541.719 1069.78 547.831 1079 Q553.988 1088.16 553.988 1105.66 Q553.988 1123.12 547.831 1132.33 Q541.719 1141.49 530.099 1141.49 Q518.479 1141.49 512.321 1132.33 Q506.21 1123.12 506.21 1105.66 Q506.21 1088.16 512.321 1079 Q518.479 1069.78 530.099 1069.78 Z" fill="#000000" fill-rule="nonzero" fill-opacity="1" /><path clip-path="url(#clip860)" d="M570.423 1128.39 L580.191 1128.39 L580.191 1140.15 L570.423 1140.15 L570.423 1128.39 Z" fill="#000000" fill-rule="nonzero" fill-opacity="1" /><path clip-path="url(#clip860)" d="M620.562 1077.19 Q613.339 1077.19 609.682 1084.32 Q606.071 1091.4 606.071 1105.66 Q606.071 1119.87 609.682 1127 Q613.339 1134.09 620.562 1134.09 Q627.83 1134.09 631.441 1127 Q635.099 1119.87 635.099 1105.66 Q635.099 1091.4 631.441 1084.32 Q627.83 1077.19 620.562 1077.19 M620.562 1069.78 Q632.182 1069.78 638.293 1079 Q644.45 1088.16 644.45 1105.66 Q644.45 1123.12 638.293 1132.33 Q632.182 1141.49 620.562 1141.49 Q608.941 1141.49 602.784 1132.33 Q596.673 1123.12 596.673 1105.66 Q596.673 1088.16 602.784 1079 Q608.941 1069.78 620.562 1069.78 Z" fill="#000000" fill-rule="nonzero" fill-opacity="1" /><path clip-path="url(#clip860)" d="M397.507 925.994 L430.146 925.994 L430.146 933.865 L386.257 933.865 L386.257 925.994 Q391.581 920.485 400.748 911.226 Q409.961 901.92 412.322 899.235 Q416.813 894.189 418.572 890.717 Q420.378 887.198 420.378 883.819 Q420.378 878.309 416.489 874.837 Q412.646 871.365 406.442 871.365 Q402.044 871.365 397.137 872.893 Q392.276 874.42 386.72 877.522 L386.72 868.078 Q392.368 865.809 397.276 864.652 Q402.183 863.495 406.257 863.495 Q416.998 863.495 423.387 868.865 Q429.776 874.235 429.776 883.217 Q429.776 887.476 428.155 891.318 Q426.581 895.115 422.368 900.3 Q421.211 901.643 415.007 908.078 Q408.803 914.467 397.507 925.994 Z" fill="#000000" fill-rule="nonzero" fill-opacity="1" /><path clip-path="url(#clip860)" d="M450.053 932.429 L450.053 923.911 Q453.572 925.578 457.183 926.457 Q460.794 927.337 464.266 927.337 Q473.525 927.337 478.386 921.133 Q483.294 914.883 483.988 902.198 Q481.303 906.18 477.183 908.309 Q473.062 910.439 468.062 910.439 Q457.692 910.439 451.627 904.189 Q445.609 897.893 445.609 887.013 Q445.609 876.365 451.905 869.93 Q458.201 863.495 468.664 863.495 Q480.655 863.495 486.951 872.707 Q493.294 881.874 493.294 899.374 Q493.294 915.717 485.516 925.485 Q477.785 935.207 464.683 935.207 Q461.164 935.207 457.553 934.513 Q453.942 933.818 450.053 932.429 M468.664 903.124 Q474.961 903.124 478.618 898.818 Q482.322 894.513 482.322 887.013 Q482.322 879.559 478.618 875.254 Q474.961 870.902 468.664 870.902 Q462.368 870.902 458.664 875.254 Q455.007 879.559 455.007 887.013 Q455.007 894.513 458.664 898.818 Q462.368 903.124 468.664 903.124 Z" fill="#000000" fill-rule="nonzero" fill-opacity="1" /><path clip-path="url(#clip860)" d="M530.099 870.902 Q522.877 870.902 519.22 878.032 Q515.608 885.115 515.608 899.374 Q515.608 913.587 519.22 920.716 Q522.877 927.8 530.099 927.8 Q537.368 927.8 540.979 920.716 Q544.636 913.587 544.636 899.374 Q544.636 885.115 540.979 878.032 Q537.368 870.902 530.099 870.902 M530.099 863.495 Q541.719 863.495 547.831 872.707 Q553.988 881.874 553.988 899.374 Q553.988 916.828 547.831 926.041 Q541.719 935.207 530.099 935.207 Q518.479 935.207 512.321 926.041 Q506.21 916.828 506.21 899.374 Q506.21 881.874 512.321 872.707 Q518.479 863.495 530.099 863.495 Z" fill="#000000" fill-rule="nonzero" fill-opacity="1" /><path clip-path="url(#clip860)" d="M570.423 922.105 L580.191 922.105 L580.191 933.865 L570.423 933.865 L570.423 922.105 Z" fill="#000000" fill-rule="nonzero" fill-opacity="1" /><path clip-path="url(#clip860)" d="M620.562 870.902 Q613.339 870.902 609.682 878.032 Q606.071 885.115 606.071 899.374 Q606.071 913.587 609.682 920.716 Q613.339 927.8 620.562 927.8 Q627.83 927.8 631.441 920.716 Q635.099 913.587 635.099 899.374 Q635.099 885.115 631.441 878.032 Q627.83 870.902 620.562 870.902 M620.562 863.495 Q632.182 863.495 638.293 872.707 Q644.45 881.874 644.45 899.374 Q644.45 916.828 638.293 926.041 Q632.182 935.207 620.562 935.207 Q608.941 935.207 602.784 926.041 Q596.673 916.828 596.673 899.374 Q596.673 881.874 602.784 872.707 Q608.941 863.495 620.562 863.495 Z" fill="#000000" fill-rule="nonzero" fill-opacity="1" /><path clip-path="url(#clip860)" d="M417.785 690.309 Q424.498 691.744 428.248 696.281 Q432.044 700.818 432.044 707.484 Q432.044 717.716 425.007 723.318 Q417.97 728.92 405.007 728.92 Q400.655 728.92 396.026 728.04 Q391.442 727.207 386.535 725.494 L386.535 716.466 Q390.424 718.734 395.054 719.892 Q399.683 721.049 404.729 721.049 Q413.526 721.049 418.109 717.577 Q422.739 714.105 422.739 707.484 Q422.739 701.373 418.433 697.947 Q414.174 694.475 406.535 694.475 L398.479 694.475 L398.479 686.79 L406.905 686.79 Q413.803 686.79 417.461 684.059 Q421.118 681.281 421.118 676.096 Q421.118 670.772 417.322 667.948 Q413.572 665.077 406.535 665.077 Q402.692 665.077 398.294 665.911 Q393.896 666.744 388.618 668.503 L388.618 660.17 Q393.942 658.688 398.572 657.948 Q403.248 657.207 407.368 657.207 Q418.016 657.207 424.22 662.068 Q430.424 666.883 430.424 675.124 Q430.424 680.864 427.137 684.846 Q423.85 688.781 417.785 690.309 Z" fill="#000000" fill-rule="nonzero" fill-opacity="1" /><path clip-path="url(#clip860)" d="M469.775 664.614 Q462.553 664.614 458.896 671.744 Q455.285 678.827 455.285 693.086 Q455.285 707.299 458.896 714.429 Q462.553 721.512 469.775 721.512 Q477.044 721.512 480.655 714.429 Q484.312 707.299 484.312 693.086 Q484.312 678.827 480.655 671.744 Q477.044 664.614 469.775 664.614 M469.775 657.207 Q481.396 657.207 487.507 666.42 Q493.664 675.586 493.664 693.086 Q493.664 710.54 487.507 719.753 Q481.396 728.92 469.775 728.92 Q458.155 728.92 451.998 719.753 Q445.887 710.54 445.887 693.086 Q445.887 675.586 451.998 666.42 Q458.155 657.207 469.775 657.207 Z" fill="#000000" fill-rule="nonzero" fill-opacity="1" /><path clip-path="url(#clip860)" d="M530.099 664.614 Q522.877 664.614 519.22 671.744 Q515.608 678.827 515.608 693.086 Q515.608 707.299 519.22 714.429 Q522.877 721.512 530.099 721.512 Q537.368 721.512 540.979 714.429 Q544.636 707.299 544.636 693.086 Q544.636 678.827 540.979 671.744 Q537.368 664.614 530.099 664.614 M530.099 657.207 Q541.719 657.207 547.831 666.42 Q553.988 675.586 553.988 693.086 Q553.988 710.54 547.831 719.753 Q541.719 728.92 530.099 728.92 Q518.479 728.92 512.321 719.753 Q506.21 710.54 506.21 693.086 Q506.21 675.586 512.321 666.42 Q518.479 657.207 530.099 657.207 Z" fill="#000000" fill-rule="nonzero" fill-opacity="1" /><path clip-path="url(#clip860)" d="M570.423 715.818 L580.191 715.818 L580.191 727.577 L570.423 727.577 L570.423 715.818 Z" fill="#000000" fill-rule="nonzero" fill-opacity="1" /><path clip-path="url(#clip860)" d="M620.562 664.614 Q613.339 664.614 609.682 671.744 Q606.071 678.827 606.071 693.086 Q606.071 707.299 609.682 714.429 Q613.339 721.512 620.562 721.512 Q627.83 721.512 631.441 714.429 Q635.099 707.299 635.099 693.086 Q635.099 678.827 631.441 671.744 Q627.83 664.614 620.562 664.614 M620.562 657.207 Q632.182 657.207 638.293 666.42 Q644.45 675.586 644.45 693.086 Q644.45 710.54 638.293 719.753 Q632.182 728.92 620.562 728.92 Q608.941 728.92 602.784 719.753 Q596.673 710.54 596.673 693.086 Q596.673 675.586 602.784 666.42 Q608.941 657.207 620.562 657.207 Z" fill="#000000" fill-rule="nonzero" fill-opacity="1" /><path clip-path="url(#clip860)" d="M417.785 484.021 Q424.498 485.456 428.248 489.993 Q432.044 494.53 432.044 501.197 Q432.044 511.428 425.007 517.03 Q417.97 522.632 405.007 522.632 Q400.655 522.632 396.026 521.752 Q391.442 520.919 386.535 519.206 L386.535 510.178 Q390.424 512.447 395.054 513.604 Q399.683 514.762 404.729 514.762 Q413.526 514.762 418.109 511.289 Q422.739 507.817 422.739 501.197 Q422.739 495.086 418.433 491.66 Q414.174 488.188 406.535 488.188 L398.479 488.188 L398.479 480.503 L406.905 480.503 Q413.803 480.503 417.461 477.771 Q421.118 474.993 421.118 469.808 Q421.118 464.484 417.322 461.66 Q413.572 458.79 406.535 458.79 Q402.692 458.79 398.294 459.623 Q393.896 460.456 388.618 462.216 L388.618 453.882 Q393.942 452.401 398.572 451.66 Q403.248 450.919 407.368 450.919 Q418.016 450.919 424.22 455.78 Q430.424 460.595 430.424 468.836 Q430.424 474.577 427.137 478.558 Q423.85 482.493 417.785 484.021 Z" fill="#000000" fill-rule="nonzero" fill-opacity="1" /><path clip-path="url(#clip860)" d="M451.396 513.419 L466.674 513.419 L466.674 460.688 L450.053 464.021 L450.053 455.503 L466.581 452.169 L475.933 452.169 L475.933 513.419 L491.21 513.419 L491.21 521.289 L451.396 521.289 L451.396 513.419 Z" fill="#000000" fill-rule="nonzero" fill-opacity="1" /><path clip-path="url(#clip860)" d="M530.099 458.327 Q522.877 458.327 519.22 465.456 Q515.608 472.54 515.608 486.799 Q515.608 501.012 519.22 508.141 Q522.877 515.225 530.099 515.225 Q537.368 515.225 540.979 508.141 Q544.636 501.012 544.636 486.799 Q544.636 472.54 540.979 465.456 Q537.368 458.327 530.099 458.327 M530.099 450.919 Q541.719 450.919 547.831 460.132 Q553.988 469.299 553.988 486.799 Q553.988 504.252 547.831 513.465 Q541.719 522.632 530.099 522.632 Q518.479 522.632 512.321 513.465 Q506.21 504.252 506.21 486.799 Q506.21 469.299 512.321 460.132 Q518.479 450.919 530.099 450.919 Z" fill="#000000" fill-rule="nonzero" fill-opacity="1" /><path clip-path="url(#clip860)" d="M570.423 509.53 L580.191 509.53 L580.191 521.289 L570.423 521.289 L570.423 509.53 Z" fill="#000000" fill-rule="nonzero" fill-opacity="1" /><path clip-path="url(#clip860)" d="M620.562 458.327 Q613.339 458.327 609.682 465.456 Q606.071 472.54 606.071 486.799 Q606.071 501.012 609.682 508.141 Q613.339 515.225 620.562 515.225 Q627.83 515.225 631.441 508.141 Q635.099 501.012 635.099 486.799 Q635.099 472.54 631.441 465.456 Q627.83 458.327 620.562 458.327 M620.562 450.919 Q632.182 450.919 638.293 460.132 Q644.45 469.299 644.45 486.799 Q644.45 504.252 638.293 513.465 Q632.182 522.632 620.562 522.632 Q608.941 522.632 602.784 513.465 Q596.673 504.252 596.673 486.799 Q596.673 469.299 602.784 460.132 Q608.941 450.919 620.562 450.919 Z" fill="#000000" fill-rule="nonzero" fill-opacity="1" /><path clip-path="url(#clip860)" d="M417.785 277.733 Q424.498 279.169 428.248 283.706 Q432.044 288.243 432.044 294.909 Q432.044 305.141 425.007 310.742 Q417.97 316.344 405.007 316.344 Q400.655 316.344 396.026 315.465 Q391.442 314.631 386.535 312.918 L386.535 303.891 Q390.424 306.159 395.054 307.317 Q399.683 308.474 404.729 308.474 Q413.526 308.474 418.109 305.002 Q422.739 301.53 422.739 294.909 Q422.739 288.798 418.433 285.372 Q414.174 281.9 406.535 281.9 L398.479 281.9 L398.479 274.215 L406.905 274.215 Q413.803 274.215 417.461 271.483 Q421.118 268.706 421.118 263.521 Q421.118 258.196 417.322 255.372 Q413.572 252.502 406.535 252.502 Q402.692 252.502 398.294 253.335 Q393.896 254.169 388.618 255.928 L388.618 247.595 Q393.942 246.113 398.572 245.372 Q403.248 244.632 407.368 244.632 Q418.016 244.632 424.22 249.493 Q430.424 254.308 430.424 262.548 Q430.424 268.289 427.137 272.27 Q423.85 276.206 417.785 277.733 Z" fill="#000000" fill-rule="nonzero" fill-opacity="1" /><path clip-path="url(#clip860)" d="M457.831 307.131 L490.47 307.131 L490.47 315.002 L446.581 315.002 L446.581 307.131 Q451.905 301.622 461.072 292.363 Q470.285 283.057 472.646 280.372 Q477.136 275.326 478.896 271.854 Q480.701 268.335 480.701 264.956 Q480.701 259.446 476.812 255.974 Q472.97 252.502 466.766 252.502 Q462.368 252.502 457.461 254.03 Q452.6 255.558 447.044 258.659 L447.044 249.215 Q452.692 246.947 457.6 245.789 Q462.507 244.632 466.581 244.632 Q477.322 244.632 483.71 250.002 Q490.099 255.372 490.099 264.354 Q490.099 268.613 488.479 272.456 Q486.905 276.252 482.692 281.437 Q481.535 282.78 475.331 289.215 Q469.127 295.604 457.831 307.131 Z" fill="#000000" fill-rule="nonzero" fill-opacity="1" /><path clip-path="url(#clip860)" d="M530.099 252.039 Q522.877 252.039 519.22 259.169 Q515.608 266.252 515.608 280.511 Q515.608 294.724 519.22 301.854 Q522.877 308.937 530.099 308.937 Q537.368 308.937 540.979 301.854 Q544.636 294.724 544.636 280.511 Q544.636 266.252 540.979 259.169 Q537.368 252.039 530.099 252.039 M530.099 244.632 Q541.719 244.632 547.831 253.845 Q553.988 263.011 553.988 280.511 Q553.988 297.965 547.831 307.178 Q541.719 316.344 530.099 316.344 Q518.479 316.344 512.321 307.178 Q506.21 297.965 506.21 280.511 Q506.21 263.011 512.321 253.845 Q518.479 244.632 530.099 244.632 Z" fill="#000000" fill-rule="nonzero" fill-opacity="1" /><path clip-path="url(#clip860)" d="M570.423 303.243 L580.191 303.243 L580.191 315.002 L570.423 315.002 L570.423 303.243 Z" fill="#000000" fill-rule="nonzero" fill-opacity="1" /><path clip-path="url(#clip860)" d="M620.562 252.039 Q613.339 252.039 609.682 259.169 Q606.071 266.252 606.071 280.511 Q606.071 294.724 609.682 301.854 Q613.339 308.937 620.562 308.937 Q627.83 308.937 631.441 301.854 Q635.099 294.724 635.099 280.511 Q635.099 266.252 631.441 259.169 Q627.83 252.039 620.562 252.039 M620.562 244.632 Q632.182 244.632 638.293 253.845 Q644.45 263.011 644.45 280.511 Q644.45 297.965 638.293 307.178 Q632.182 316.344 620.562 316.344 Q608.941 316.344 602.784 307.178 Q596.673 297.965 596.673 280.511 Q596.673 263.011 602.784 253.845 Q608.941 244.632 620.562 244.632 Z" fill="#000000" fill-rule="nonzero" fill-opacity="1" /><path clip-path="url(#clip860)" d="M311.051 933.309 L348.863 933.309 L348.863 945.086 L250.449 945.086 L250.449 933.309 L261.271 933.309 Q254.905 929.617 251.85 924.015 Q248.731 918.35 248.731 910.52 Q248.731 897.534 259.043 889.45 Q269.356 881.302 286.161 881.302 Q302.966 881.302 313.279 889.45 Q323.591 897.534 323.591 910.52 Q323.591 918.35 320.536 924.015 Q317.417 929.617 311.051 933.309 M286.161 893.46 Q273.239 893.46 265.918 898.807 Q258.534 904.091 258.534 913.385 Q258.534 922.679 265.918 928.026 Q273.239 933.309 286.161 933.309 Q299.083 933.309 306.468 928.026 Q313.788 922.679 313.788 913.385 Q313.788 904.091 306.468 898.807 Q299.083 893.46 286.161 893.46 Z" fill="#000000" fill-rule="nonzero" fill-opacity="1" /><path clip-path="url(#clip860)" d="M285.906 829.485 Q285.906 843.68 289.153 849.155 Q292.399 854.629 300.229 854.629 Q306.468 854.629 310.16 850.555 Q313.788 846.417 313.788 839.352 Q313.788 829.612 306.913 823.756 Q299.975 817.835 288.516 817.835 L285.906 817.835 L285.906 829.485 M281.068 806.123 L321.745 806.123 L321.745 817.835 L310.924 817.835 Q317.417 821.846 320.536 827.83 Q323.591 833.813 323.591 842.471 Q323.591 853.42 317.48 859.913 Q311.306 866.342 300.993 866.342 Q288.962 866.342 282.851 858.321 Q276.74 850.237 276.74 834.259 L276.74 817.835 L275.594 817.835 Q267.509 817.835 263.117 823.183 Q258.661 828.466 258.661 838.078 Q258.661 844.189 260.125 849.982 Q261.589 855.775 264.518 861.122 L253.696 861.122 Q251.213 854.693 250.004 848.645 Q248.731 842.598 248.731 836.869 Q248.731 821.4 256.751 813.761 Q264.772 806.123 281.068 806.123 Z" fill="#000000" fill-rule="nonzero" fill-opacity="1" /><path clip-path="url(#clip860)" d="M261.398 740.683 Q260.253 742.656 259.743 745.012 Q259.17 747.303 259.17 750.104 Q259.17 760.035 265.663 765.382 Q272.093 770.666 284.188 770.666 L321.745 770.666 L321.745 782.442 L250.449 782.442 L250.449 770.666 L261.526 770.666 Q255.033 766.973 251.914 761.053 Q248.731 755.133 248.731 746.667 Q248.731 745.457 248.922 743.993 Q249.049 742.529 249.367 740.747 L261.398 740.683 Z" fill="#000000" fill-rule="nonzero" fill-opacity="1" /><path clip-path="url(#clip860)" d="M283.169 670.278 L288.898 670.278 L288.898 724.132 Q300.993 723.368 307.359 716.875 Q313.661 710.319 313.661 698.669 Q313.661 691.922 312.006 685.62 Q310.351 679.254 307.041 673.016 L318.117 673.016 Q320.79 679.318 322.191 685.938 Q323.591 692.558 323.591 699.37 Q323.591 716.43 313.661 726.424 Q303.73 736.354 286.798 736.354 Q269.292 736.354 259.043 726.933 Q248.731 717.448 248.731 701.407 Q248.731 687.02 258.025 678.681 Q267.255 670.278 283.169 670.278 M279.732 681.991 Q270.119 682.119 264.39 687.402 Q258.661 692.622 258.661 701.279 Q258.661 711.083 264.199 717.003 Q269.737 722.859 279.795 723.75 L279.732 681.991 Z" fill="#000000" fill-rule="nonzero" fill-opacity="1" /><path clip-path="url(#clip860)" d="M278.713 591.789 L321.745 591.789 L321.745 603.502 L279.095 603.502 Q268.974 603.502 263.945 607.449 Q258.916 611.396 258.916 619.289 Q258.916 628.774 264.963 634.248 Q271.011 639.723 281.45 639.723 L321.745 639.723 L321.745 651.5 L250.449 651.5 L250.449 639.723 L261.526 639.723 Q255.096 635.522 251.914 629.856 Q248.731 624.127 248.731 616.679 Q248.731 604.393 256.37 598.091 Q263.945 591.789 278.713 591.789 Z" fill="#000000" fill-rule="nonzero" fill-opacity="1" /><path clip-path="url(#clip860)" d="M305.576 566.772 L305.576 553.34 L321.745 553.34 L321.745 566.772 L305.576 566.772 Z" fill="#000000" fill-rule="nonzero" fill-opacity="1" /><path clip-path="url(#clip860)" d="M269.101 454.799 Q269.101 463.457 275.021 468.549 Q280.941 473.578 291.254 473.578 Q301.502 473.578 307.486 468.549 Q313.406 463.457 313.406 454.799 Q313.406 446.142 307.486 441.113 Q301.502 436.02 291.254 436.02 Q280.941 436.02 275.021 441.113 Q269.101 446.142 269.101 454.799 M228.806 429.273 L240.519 429.273 Q238.227 434.111 237.018 439.076 Q235.808 443.978 235.808 448.815 Q235.808 461.547 244.402 468.295 Q252.996 474.979 270.374 475.933 Q264.836 472.178 261.908 466.512 Q258.916 460.847 258.916 454.035 Q258.916 439.712 267.637 431.437 Q276.294 423.098 291.254 423.098 Q305.895 423.098 314.743 431.755 Q323.591 440.413 323.591 454.799 Q323.591 471.286 310.987 480.007 Q298.32 488.728 274.321 488.728 Q251.786 488.728 238.418 478.034 Q224.987 467.34 224.987 449.325 Q224.987 444.487 225.941 439.585 Q226.896 434.62 228.806 429.273 Z" fill="#000000" fill-rule="nonzero" fill-opacity="1" /><polyline clip-path="url(#clip862)" style="stroke:#008000; stroke-linecap:round; stroke-linejoin:round; stroke-width:8; stroke-opacity:1; fill:none" points="726.443,888.293 844.372,1009.62 962.301,928.695 1080.23,586.725 1198.16,546.613 1316.09,691.498 1434.02,706.814 1551.95,835.141 1669.87,1155.87 1787.8,956.182 1905.73,1240.32 2023.66,206.588 2141.59,736.909 2259.52,539.782 "/>
<circle clip-path="url(#clip862)" cx="726.443" cy="888.293" r="14.4" fill="#008000" fill-rule="evenodd" fill-opacity="1" stroke="#000000" stroke-opacity="1" stroke-width="6.4"/>
<circle clip-path="url(#clip862)" cx="844.372" cy="1009.62" r="14.4" fill="#008000" fill-rule="evenodd" fill-opacity="1" stroke="#000000" stroke-opacity="1" stroke-width="6.4"/>
<circle clip-path="url(#clip862)" cx="962.301" cy="928.695" r="14.4" fill="#008000" fill-rule="evenodd" fill-opacity="1" stroke="#000000" stroke-opacity="1" stroke-width="6.4"/>
<circle clip-path="url(#clip862)" cx="1080.23" cy="586.725" r="14.4" fill="#008000" fill-rule="evenodd" fill-opacity="1" stroke="#000000" stroke-opacity="1" stroke-width="6.4"/>
<circle clip-path="url(#clip862)" cx="1198.16" cy="546.613" r="14.4" fill="#008000" fill-rule="evenodd" fill-opacity="1" stroke="#000000" stroke-opacity="1" stroke-width="6.4"/>
<circle clip-path="url(#clip862)" cx="1316.09" cy="691.498" r="14.4" fill="#008000" fill-rule="evenodd" fill-opacity="1" stroke="#000000" stroke-opacity="1" stroke-width="6.4"/>
<circle clip-path="url(#clip862)" cx="1434.02" cy="706.814" r="14.4" fill="#008000" fill-rule="evenodd" fill-opacity="1" stroke="#000000" stroke-opacity="1" stroke-width="6.4"/>
<circle clip-path="url(#clip862)" cx="1551.95" cy="835.141" r="14.4" fill="#008000" fill-rule="evenodd" fill-opacity="1" stroke="#000000" stroke-opacity="1" stroke-width="6.4"/>
<circle clip-path="url(#clip862)" cx="1669.87" cy="1155.87" r="14.4" fill="#008000" fill-rule="evenodd" fill-opacity="1" stroke="#000000" stroke-opacity="1" stroke-width="6.4"/>
<circle clip-path="url(#clip862)" cx="1787.8" cy="956.182" r="14.4" fill="#008000" fill-rule="evenodd" fill-opacity="1" stroke="#000000" stroke-opacity="1" stroke-width="6.4"/>
<circle clip-path="url(#clip862)" cx="1905.73" cy="1240.32" r="14.4" fill="#008000" fill-rule="evenodd" fill-opacity="1" stroke="#000000" stroke-opacity="1" stroke-width="6.4"/>
<circle clip-path="url(#clip862)" cx="2023.66" cy="206.588" r="14.4" fill="#008000" fill-rule="evenodd" fill-opacity="1" stroke="#000000" stroke-opacity="1" stroke-width="6.4"/>
<circle clip-path="url(#clip862)" cx="2141.59" cy="736.909" r="14.4" fill="#008000" fill-rule="evenodd" fill-opacity="1" stroke="#000000" stroke-opacity="1" stroke-width="6.4"/>
<circle clip-path="url(#clip862)" cx="2259.52" cy="539.782" r="14.4" fill="#008000" fill-rule="evenodd" fill-opacity="1" stroke="#000000" stroke-opacity="1" stroke-width="6.4"/>
<polyline clip-path="url(#clip862)" style="stroke:#00008b; stroke-linecap:round; stroke-linejoin:round; stroke-width:8; stroke-opacity:1; fill:none" points="726.443,448.047 844.372,373.777 962.301,347.406 1080.23,378.546 1198.16,369.542 1316.09,382.263 1434.02,395.559 1551.95,412.715 1669.87,458.288 1787.8,471.116 1905.73,517.421 2023.66,556.344 2141.59,589.515 2259.52,648.885 "/>
<path clip-path="url(#clip862)" d="M726.443 687.986 L844.372 593.466 L962.301 569.326 L1080.23 608.823 L1198.16 603.847 L1316.09 620.042 L1434.02 611.721 L1551.95 653.862 L1669.87 676.375 L1787.8 691.323 L1905.73 770.669 L2023.66 792.425 L2141.59 825.666 L2259.52 880.537 L2259.52 423.696 L2141.59 359.763 L2023.66 318.28 L1905.73 291.248 L1787.8 257.762 L1669.87 237.626 L1551.95 183.607 L1434.02 174.501 L1316.09 155.594 L1198.16 131.458 L1080.23 143.191 L962.301 127.862 L844.372 133.033 L726.443 226.593  Z" fill="#0000ff" fill-rule="evenodd" fill-opacity="0.1"/>
<polyline clip-path="url(#clip862)" style="stroke:#0000ff; stroke-linecap:round; stroke-linejoin:round; stroke-width:0; stroke-opacity:0.1; fill:none" points="726.443,687.986 844.372,593.466 962.301,569.326 1080.23,608.823 1198.16,603.847 1316.09,620.042 1434.02,611.721 1551.95,653.862 1669.87,676.375 1787.8,691.323 1905.73,770.669 2023.66,792.425 2141.59,825.666 2259.52,880.537 "/>
</svg>
