<?xml version="1.0" encoding="utf-8"?>
<svg xmlns="http://www.w3.org/2000/svg" xmlns:xlink="http://www.w3.org/1999/xlink" width="600" height="400" viewBox="0 0 2400 1600">
<defs>
  <clipPath id="clip570">
    <rect x="0" y="0" width="2400" height="1600"/>
  </clipPath>
</defs>
<path clip-path="url(#clip570)" d="M0 1600 L2400 1600 L2400 0 L0 0  Z" fill="#ffffff" fill-rule="evenodd" fill-opacity="1"/>
<defs>
  <clipPath id="clip571">
    <rect x="480" y="0" width="1681" height="1600"/>
  </clipPath>
</defs>
<path clip-path="url(#clip570)" d="M685.08 1273.7 L2305.51 1273.7 L2305.51 94.4882 L685.08 94.4882  Z" fill="#ffffff" fill-rule="evenodd" fill-opacity="1"/>
<defs>
  <clipPath id="clip572">
    <rect x="685" y="94" width="1621" height="1180"/>
  </clipPath>
</defs>
<polyline clip-path="url(#clip572)" style="stroke:#000000; stroke-linecap:round; stroke-linejoin:round; stroke-width:4; stroke-opacity:0.1; fill:none" points="730.941,1273.7 730.941,94.4882 "/>
<polyline clip-path="url(#clip572)" style="stroke:#000000; stroke-linecap:round; stroke-linejoin:round; stroke-width:4; stroke-opacity:0.1; fill:none" points="966.127,1273.7 966.127,94.4882 "/>
<polyline clip-path="url(#clip572)" style="stroke:#000000; stroke-linecap:round; stroke-linejoin:round; stroke-width:4; stroke-opacity:0.1; fill:none" points="1201.31,1273.7 1201.31,94.4882 "/>
<polyline clip-path="url(#clip572)" style="stroke:#000000; stroke-linecap:round; stroke-linejoin:round; stroke-width:4; stroke-opacity:0.1; fill:none" points="1436.5,1273.7 1436.5,94.4882 "/>
<polyline clip-path="url(#clip572)" style="stroke:#000000; stroke-linecap:round; stroke-linejoin:round; stroke-width:4; stroke-opacity:0.1; fill:none" points="1671.69,1273.7 1671.69,94.4882 "/>
<polyline clip-path="url(#clip572)" style="stroke:#000000; stroke-linecap:round; stroke-linejoin:round; stroke-width:4; stroke-opacity:0.1; fill:none" points="1906.87,1273.7 1906.87,94.4882 "/>
<polyline clip-path="url(#clip572)" style="stroke:#000000; stroke-linecap:round; stroke-linejoin:round; stroke-width:4; stroke-opacity:0.1; fill:none" points="2142.06,1273.7 2142.06,94.4882 "/>
<polyline clip-path="url(#clip570)" style="stroke:#000000; stroke-linecap:round; stroke-linejoin:round; stroke-width:8; stroke-opacity:1; fill:none" points="685.08,1273.7 2305.51,1273.7 "/>
<polyline clip-path="url(#clip570)" style="stroke:#000000; stroke-linecap:round; stroke-linejoin:round; stroke-width:8; stroke-opacity:1; fill:none" points="730.941,1273.7 730.941,1254.8 "/>
<polyline clip-path="url(#clip570)" style="stroke:#000000; stroke-linecap:round; stroke-linejoin:round; stroke-width:8; stroke-opacity:1; fill:none" points="966.127,1273.7 966.127,1254.8 "/>
<polyline clip-path="url(#clip570)" style="stroke:#000000; stroke-linecap:round; stroke-linejoin:round; stroke-width:8; stroke-opacity:1; fill:none" points="1201.31,1273.7 1201.31,1254.8 "/>
<polyline clip-path="url(#clip570)" style="stroke:#000000; stroke-linecap:round; stroke-linejoin:round; stroke-width:8; stroke-opacity:1; fill:none" points="1436.5,1273.7 1436.5,1254.8 "/>
<polyline clip-path="url(#clip570)" style="stroke:#000000; stroke-linecap:round; stroke-linejoin:round; stroke-width:8; stroke-opacity:1; fill:none" points="1671.69,1273.7 1671.69,1254.8 "/>
<polyline clip-path="url(#clip570)" style="stroke:#000000; stroke-linecap:round; stroke-linejoin:round; stroke-width:8; stroke-opacity:1; fill:none" points="1906.87,1273.7 1906.87,1254.8 "/>
<polyline clip-path="url(#clip570)" style="stroke:#000000; stroke-linecap:round; stroke-linejoin:round; stroke-width:8; stroke-opacity:1; fill:none" points="2142.06,1273.7 2142.06,1254.8 "/>
<path clip-path="url(#clip570)" d="M685.71 1316.33 Q678.488 1316.33 674.83 1323.46 Q671.219 1330.55 671.219 1344.81 Q671.219 1359.02 674.83 1366.15 Q678.488 1373.23 685.71 1373.23 Q692.978 1373.23 696.59 1366.15 Q700.247 1359.02 700.247 1344.81 Q700.247 1330.55 696.59 1323.46 Q692.978 1316.33 685.71 1316.33 M685.71 1308.93 Q697.33 1308.93 703.441 1318.14 Q709.599 1327.31 709.599 1344.81 Q709.599 1362.26 703.441 1371.47 Q697.33 1380.64 685.71 1380.64 Q674.09 1380.64 667.932 1371.47 Q661.821 1362.26 661.821 1344.81 Q661.821 1327.31 667.932 1318.14 Q674.09 1308.93 685.71 1308.93 Z" fill="#000000" fill-rule="nonzero" fill-opacity="1" /><path clip-path="url(#clip570)" d="M726.034 1367.54 L735.802 1367.54 L735.802 1379.3 L726.034 1379.3 L726.034 1367.54 Z" fill="#000000" fill-rule="nonzero" fill-opacity="1" /><path clip-path="url(#clip570)" d="M776.172 1316.33 Q768.95 1316.33 765.293 1323.46 Q761.682 1330.55 761.682 1344.81 Q761.682 1359.02 765.293 1366.15 Q768.95 1373.23 776.172 1373.23 Q783.441 1373.23 787.052 1366.15 Q790.709 1359.02 790.709 1344.81 Q790.709 1330.55 787.052 1323.46 Q783.441 1316.33 776.172 1316.33 M776.172 1308.93 Q787.793 1308.93 793.904 1318.14 Q800.061 1327.31 800.061 1344.81 Q800.061 1362.26 793.904 1371.47 Q787.793 1380.64 776.172 1380.64 Q764.552 1380.64 758.395 1371.47 Q752.284 1362.26 752.284 1344.81 Q752.284 1327.31 758.395 1318.14 Q764.552 1308.93 776.172 1308.93 Z" fill="#000000" fill-rule="nonzero" fill-opacity="1" /><path clip-path="url(#clip570)" d="M922.493 1316.33 Q915.271 1316.33 911.614 1323.46 Q908.003 1330.55 908.003 1344.81 Q908.003 1359.02 911.614 1366.15 Q915.271 1373.23 922.493 1373.23 Q929.762 1373.23 933.373 1366.15 Q937.03 1359.02 937.03 1344.81 Q937.03 1330.55 933.373 1323.46 Q929.762 1316.33 922.493 1316.33 M922.493 1308.93 Q934.114 1308.93 940.225 1318.14 Q946.382 1327.31 946.382 1344.81 Q946.382 1362.26 940.225 1371.47 Q934.114 1380.64 922.493 1380.64 Q910.873 1380.64 904.716 1371.47 Q898.605 1362.26 898.605 1344.81 Q898.605 1327.31 904.716 1318.14 Q910.873 1308.93 922.493 1308.93 Z" fill="#000000" fill-rule="nonzero" fill-opacity="1" /><path clip-path="url(#clip570)" d="M962.817 1367.54 L972.586 1367.54 L972.586 1379.3 L962.817 1379.3 L962.817 1367.54 Z" fill="#000000" fill-rule="nonzero" fill-opacity="1" /><path clip-path="url(#clip570)" d="M1001.01 1371.43 L1033.65 1371.43 L1033.65 1379.3 L989.761 1379.3 L989.761 1371.43 Q995.085 1365.92 1004.25 1356.66 Q1013.47 1347.35 1015.83 1344.67 Q1020.32 1339.62 1022.08 1336.15 Q1023.88 1332.63 1023.88 1329.25 Q1023.88 1323.74 1019.99 1320.27 Q1016.15 1316.8 1009.95 1316.8 Q1005.55 1316.8 1000.64 1318.32 Q995.78 1319.85 990.224 1322.95 L990.224 1313.51 Q995.873 1311.24 1000.78 1310.08 Q1005.69 1308.93 1009.76 1308.93 Q1020.5 1308.93 1026.89 1314.3 Q1033.28 1319.67 1033.28 1328.65 Q1033.28 1332.91 1031.66 1336.75 Q1030.09 1340.55 1025.87 1345.73 Q1024.71 1347.07 1018.51 1353.51 Q1012.31 1359.9 1001.01 1371.43 Z" fill="#000000" fill-rule="nonzero" fill-opacity="1" /><path clip-path="url(#clip570)" d="M1155.6 1316.33 Q1148.37 1316.33 1144.72 1323.46 Q1141.11 1330.55 1141.11 1344.81 Q1141.11 1359.02 1144.72 1366.15 Q1148.37 1373.23 1155.6 1373.23 Q1162.86 1373.23 1166.48 1366.15 Q1170.13 1359.02 1170.13 1344.81 Q1170.13 1330.55 1166.48 1323.46 Q1162.86 1316.33 1155.6 1316.33 M1155.6 1308.93 Q1167.22 1308.93 1173.33 1318.14 Q1179.48 1327.31 1179.48 1344.81 Q1179.48 1362.26 1173.33 1371.47 Q1167.22 1380.64 1155.6 1380.64 Q1143.98 1380.64 1137.82 1371.47 Q1131.71 1362.26 1131.71 1344.81 Q1131.71 1327.31 1137.82 1318.14 Q1143.98 1308.93 1155.6 1308.93 Z" fill="#000000" fill-rule="nonzero" fill-opacity="1" /><path clip-path="url(#clip570)" d="M1195.92 1367.54 L1205.69 1367.54 L1205.69 1379.3 L1195.92 1379.3 L1195.92 1367.54 Z" fill="#000000" fill-rule="nonzero" fill-opacity="1" /><path clip-path="url(#clip570)" d="M1251.75 1318.32 L1228.14 1355.22 L1251.75 1355.22 L1251.75 1318.32 M1249.3 1310.18 L1261.06 1310.18 L1261.06 1355.22 L1270.92 1355.22 L1270.92 1363 L1261.06 1363 L1261.06 1379.3 L1251.75 1379.3 L1251.75 1363 L1220.55 1363 L1220.55 1353.97 L1249.3 1310.18 Z" fill="#000000" fill-rule="nonzero" fill-opacity="1" /><path clip-path="url(#clip570)" d="M1391.11 1316.33 Q1383.88 1316.33 1380.23 1323.46 Q1376.62 1330.55 1376.62 1344.81 Q1376.62 1359.02 1380.23 1366.15 Q1383.88 1373.23 1391.11 1373.23 Q1398.37 1373.23 1401.99 1366.15 Q1405.64 1359.02 1405.64 1344.81 Q1405.64 1330.55 1401.99 1323.46 Q1398.37 1316.33 1391.11 1316.33 M1391.11 1308.93 Q1402.73 1308.93 1408.84 1318.14 Q1414.99 1327.31 1414.99 1344.81 Q1414.99 1362.26 1408.84 1371.47 Q1402.73 1380.64 1391.11 1380.64 Q1379.49 1380.64 1373.33 1371.47 Q1367.22 1362.26 1367.22 1344.81 Q1367.22 1327.31 1373.33 1318.14 Q1379.49 1308.93 1391.11 1308.93 Z" fill="#000000" fill-rule="nonzero" fill-opacity="1" /><path clip-path="url(#clip570)" d="M1431.43 1367.54 L1441.2 1367.54 L1441.2 1379.3 L1431.43 1379.3 L1431.43 1367.54 Z" fill="#000000" fill-rule="nonzero" fill-opacity="1" /><path clip-path="url(#clip570)" d="M1482.73 1341.01 Q1476.43 1341.01 1472.73 1345.31 Q1469.07 1349.62 1469.07 1357.12 Q1469.07 1364.57 1472.73 1368.93 Q1476.43 1373.23 1482.73 1373.23 Q1489.02 1373.23 1492.68 1368.93 Q1496.38 1364.57 1496.38 1357.12 Q1496.38 1349.62 1492.68 1345.31 Q1489.02 1341.01 1482.73 1341.01 M1501.29 1311.7 L1501.29 1320.22 Q1497.77 1318.56 1494.16 1317.68 Q1490.6 1316.8 1487.08 1316.8 Q1477.82 1316.8 1472.91 1323.05 Q1468.05 1329.3 1467.36 1341.93 Q1470.09 1337.91 1474.21 1335.78 Q1478.33 1333.6 1483.28 1333.6 Q1493.7 1333.6 1499.72 1339.94 Q1505.78 1346.24 1505.78 1357.12 Q1505.78 1367.77 1499.49 1374.2 Q1493.19 1380.64 1482.73 1380.64 Q1470.74 1380.64 1464.39 1371.47 Q1458.05 1362.26 1458.05 1344.81 Q1458.05 1328.42 1465.83 1318.69 Q1473.61 1308.93 1486.71 1308.93 Q1490.23 1308.93 1493.79 1309.62 Q1497.4 1310.31 1501.29 1311.7 Z" fill="#000000" fill-rule="nonzero" fill-opacity="1" /><path clip-path="url(#clip570)" d="M1626.55 1316.33 Q1619.32 1316.33 1615.67 1323.46 Q1612.06 1330.55 1612.06 1344.81 Q1612.06 1359.02 1615.67 1366.15 Q1619.32 1373.23 1626.55 1373.23 Q1633.82 1373.23 1637.43 1366.15 Q1641.08 1359.02 1641.08 1344.81 Q1641.08 1330.55 1637.43 1323.46 Q1633.82 1316.33 1626.55 1316.33 M1626.55 1308.93 Q1638.17 1308.93 1644.28 1318.14 Q1650.44 1327.31 1650.44 1344.81 Q1650.44 1362.26 1644.28 1371.47 Q1638.17 1380.64 1626.55 1380.64 Q1614.93 1380.64 1608.77 1371.47 Q1602.66 1362.26 1602.66 1344.81 Q1602.66 1327.31 1608.77 1318.14 Q1614.93 1308.93 1626.55 1308.93 Z" fill="#000000" fill-rule="nonzero" fill-opacity="1" /><path clip-path="url(#clip570)" d="M1666.87 1367.54 L1676.64 1367.54 L1676.64 1379.3 L1666.87 1379.3 L1666.87 1367.54 Z" fill="#000000" fill-rule="nonzero" fill-opacity="1" /><path clip-path="url(#clip570)" d="M1717.01 1346.47 Q1710.34 1346.47 1706.5 1350.04 Q1702.7 1353.6 1702.7 1359.85 Q1702.7 1366.1 1706.5 1369.67 Q1710.34 1373.23 1717.01 1373.23 Q1723.68 1373.23 1727.52 1369.67 Q1731.36 1366.06 1731.36 1359.85 Q1731.36 1353.6 1727.52 1350.04 Q1723.72 1346.47 1717.01 1346.47 M1707.66 1342.49 Q1701.64 1341.01 1698.26 1336.89 Q1694.93 1332.77 1694.93 1326.84 Q1694.93 1318.56 1700.81 1313.74 Q1706.73 1308.93 1717.01 1308.93 Q1727.33 1308.93 1733.21 1313.74 Q1739.09 1318.56 1739.09 1326.84 Q1739.09 1332.77 1735.71 1336.89 Q1732.38 1341.01 1726.41 1342.49 Q1733.17 1344.06 1736.92 1348.65 Q1740.71 1353.23 1740.71 1359.85 Q1740.71 1369.9 1734.56 1375.27 Q1728.44 1380.64 1717.01 1380.64 Q1705.57 1380.64 1699.42 1375.27 Q1693.31 1369.9 1693.31 1359.85 Q1693.31 1353.23 1697.1 1348.65 Q1700.9 1344.06 1707.66 1342.49 M1704.23 1327.72 Q1704.23 1333.09 1707.56 1336.1 Q1710.94 1339.11 1717.01 1339.11 Q1723.03 1339.11 1726.41 1336.1 Q1729.83 1333.09 1729.83 1327.72 Q1729.83 1322.35 1726.41 1319.34 Q1723.03 1316.33 1717.01 1316.33 Q1710.94 1316.33 1707.56 1319.34 Q1704.23 1322.35 1704.23 1327.72 Z" fill="#000000" fill-rule="nonzero" fill-opacity="1" /><path clip-path="url(#clip570)" d="M1841.18 1371.43 L1856.46 1371.43 L1856.46 1318.69 L1839.83 1322.03 L1839.83 1313.51 L1856.36 1310.18 L1865.71 1310.18 L1865.71 1371.43 L1880.99 1371.43 L1880.99 1379.3 L1841.18 1379.3 L1841.18 1371.43 Z" fill="#000000" fill-rule="nonzero" fill-opacity="1" /><path clip-path="url(#clip570)" d="M1899.88 1367.54 L1909.65 1367.54 L1909.65 1379.3 L1899.88 1379.3 L1899.88 1367.54 Z" fill="#000000" fill-rule="nonzero" fill-opacity="1" /><path clip-path="url(#clip570)" d="M1950.02 1316.33 Q1942.8 1316.33 1939.14 1323.46 Q1935.53 1330.55 1935.53 1344.81 Q1935.53 1359.02 1939.14 1366.15 Q1942.8 1373.23 1950.02 1373.23 Q1957.29 1373.23 1960.9 1366.15 Q1964.56 1359.02 1964.56 1344.81 Q1964.56 1330.55 1960.9 1323.46 Q1957.29 1316.33 1950.02 1316.33 M1950.02 1308.93 Q1961.64 1308.93 1967.75 1318.14 Q1973.91 1327.31 1973.91 1344.81 Q1973.91 1362.26 1967.75 1371.47 Q1961.64 1380.64 1950.02 1380.64 Q1938.4 1380.64 1932.24 1371.47 Q1926.13 1362.26 1926.13 1344.81 Q1926.13 1327.31 1932.24 1318.14 Q1938.4 1308.93 1950.02 1308.93 Z" fill="#000000" fill-rule="nonzero" fill-opacity="1" /><path clip-path="url(#clip570)" d="M2077.96 1371.43 L2093.24 1371.43 L2093.24 1318.69 L2076.62 1322.03 L2076.62 1313.51 L2093.15 1310.18 L2102.5 1310.18 L2102.5 1371.43 L2117.78 1371.43 L2117.78 1379.3 L2077.96 1379.3 L2077.96 1371.43 Z" fill="#000000" fill-rule="nonzero" fill-opacity="1" /><path clip-path="url(#clip570)" d="M2136.66 1367.54 L2146.43 1367.54 L2146.43 1379.3 L2136.66 1379.3 L2136.66 1367.54 Z" fill="#000000" fill-rule="nonzero" fill-opacity="1" /><path clip-path="url(#clip570)" d="M2174.86 1371.43 L2207.5 1371.43 L2207.5 1379.3 L2163.61 1379.3 L2163.61 1371.43 Q2168.93 1365.92 2178.1 1356.66 Q2187.31 1347.35 2189.67 1344.67 Q2194.16 1339.62 2195.92 1336.15 Q2197.73 1332.63 2197.73 1329.25 Q2197.73 1323.74 2193.84 1320.27 Q2190 1316.8 2183.79 1316.8 Q2179.4 1316.8 2174.49 1318.32 Q2169.63 1319.85 2164.07 1322.95 L2164.07 1313.51 Q2169.72 1311.24 2174.63 1310.08 Q2179.53 1308.93 2183.61 1308.93 Q2194.35 1308.93 2200.74 1314.3 Q2207.13 1319.67 2207.13 1328.65 Q2207.13 1332.91 2205.51 1336.75 Q2203.93 1340.55 2199.72 1345.73 Q2198.56 1347.07 2192.36 1353.51 Q2186.15 1359.9 2174.86 1371.43 Z" fill="#000000" fill-rule="nonzero" fill-opacity="1" /><path clip-path="url(#clip570)" d="M1380.84 1484.39 L1380.84 1527.42 L1369.13 1527.42 L1369.13 1484.77 Q1369.13 1474.65 1365.18 1469.62 Q1361.23 1464.59 1353.34 1464.59 Q1343.86 1464.59 1338.38 1470.64 Q1332.91 1476.69 1332.91 1487.13 L1332.91 1527.42 L1321.13 1527.42 L1321.13 1428.37 L1332.91 1428.37 L1332.91 1467.2 Q1337.11 1460.77 1342.77 1457.59 Q1348.5 1454.41 1355.95 1454.41 Q1368.24 1454.41 1374.54 1462.05 Q1380.84 1469.62 1380.84 1484.39 Z" fill="#000000" fill-rule="nonzero" fill-opacity="1" /><path clip-path="url(#clip570)" d="M1431.83 1464.34 Q1422.41 1464.34 1416.93 1471.72 Q1411.46 1479.04 1411.46 1491.84 Q1411.46 1504.63 1416.87 1512.02 Q1422.34 1519.34 1431.83 1519.34 Q1441.19 1519.34 1446.66 1511.96 Q1452.14 1504.57 1452.14 1491.84 Q1452.14 1479.17 1446.66 1471.79 Q1441.19 1464.34 1431.83 1464.34 M1431.83 1454.41 Q1447.11 1454.41 1455.83 1464.34 Q1464.55 1474.27 1464.55 1491.84 Q1464.55 1509.35 1455.83 1519.34 Q1447.11 1529.27 1431.83 1529.27 Q1416.49 1529.27 1407.77 1519.34 Q1399.11 1509.35 1399.11 1491.84 Q1399.11 1474.27 1407.77 1464.34 Q1416.49 1454.41 1431.83 1454.41 Z" fill="#000000" fill-rule="nonzero" fill-opacity="1" /><path clip-path="url(#clip570)" d="M1482.76 1499.29 L1482.76 1456.13 L1494.47 1456.13 L1494.47 1498.84 Q1494.47 1508.96 1498.42 1514.06 Q1502.36 1519.08 1510.26 1519.08 Q1519.74 1519.08 1525.21 1513.04 Q1530.75 1506.99 1530.75 1496.55 L1530.75 1456.13 L1542.47 1456.13 L1542.47 1527.42 L1530.75 1527.42 L1530.75 1516.47 Q1526.49 1522.97 1520.82 1526.15 Q1515.22 1529.27 1507.77 1529.27 Q1495.49 1529.27 1489.12 1521.63 Q1482.76 1513.99 1482.76 1499.29 M1512.23 1454.41 L1512.23 1454.41 Z" fill="#000000" fill-rule="nonzero" fill-opacity="1" /><path clip-path="url(#clip570)" d="M1607.91 1467.08 Q1605.93 1465.93 1603.58 1465.42 Q1601.28 1464.85 1598.48 1464.85 Q1588.55 1464.85 1583.21 1471.34 Q1577.92 1477.77 1577.92 1489.87 L1577.92 1527.42 L1566.15 1527.42 L1566.15 1456.13 L1577.92 1456.13 L1577.92 1467.2 Q1581.61 1460.71 1587.53 1457.59 Q1593.46 1454.41 1601.92 1454.41 Q1603.13 1454.41 1604.6 1454.6 Q1606.06 1454.73 1607.84 1455.05 L1607.91 1467.08 Z" fill="#000000" fill-rule="nonzero" fill-opacity="1" /><path clip-path="url(#clip570)" d="M1665.64 1458.23 L1665.64 1469.3 Q1660.68 1466.76 1655.33 1465.49 Q1649.98 1464.21 1644.25 1464.21 Q1635.53 1464.21 1631.14 1466.89 Q1626.81 1469.56 1626.81 1474.91 Q1626.81 1478.98 1629.93 1481.34 Q1633.05 1483.63 1642.47 1485.73 L1646.48 1486.62 Q1658.96 1489.29 1664.18 1494.19 Q1669.46 1499.03 1669.46 1507.75 Q1669.46 1517.68 1661.57 1523.48 Q1653.74 1529.27 1639.99 1529.27 Q1634.26 1529.27 1628.02 1528.12 Q1621.85 1527.04 1614.97 1524.81 L1614.97 1512.72 Q1621.46 1516.09 1627.77 1517.81 Q1634.07 1519.47 1640.24 1519.47 Q1648.52 1519.47 1652.97 1516.67 Q1657.43 1513.8 1657.43 1508.64 Q1657.43 1503.87 1654.18 1501.32 Q1651 1498.78 1640.12 1496.42 L1636.04 1495.47 Q1625.16 1493.18 1620.32 1488.47 Q1615.48 1483.69 1615.48 1475.42 Q1615.48 1465.36 1622.61 1459.88 Q1629.74 1454.41 1642.85 1454.41 Q1649.35 1454.41 1655.08 1455.36 Q1660.8 1456.32 1665.64 1458.23 Z" fill="#000000" fill-rule="nonzero" fill-opacity="1" /><polyline clip-path="url(#clip572)" style="stroke:#000000; stroke-linecap:round; stroke-linejoin:round; stroke-width:4; stroke-opacity:0.1; fill:none" points="685.08,1074.66 2305.51,1074.66 "/>
<polyline clip-path="url(#clip572)" style="stroke:#000000; stroke-linecap:round; stroke-linejoin:round; stroke-width:4; stroke-opacity:0.1; fill:none" points="685.08,857.693 2305.51,857.693 "/>
<polyline clip-path="url(#clip572)" style="stroke:#000000; stroke-linecap:round; stroke-linejoin:round; stroke-width:4; stroke-opacity:0.1; fill:none" points="685.08,640.728 2305.51,640.728 "/>
<polyline clip-path="url(#clip572)" style="stroke:#000000; stroke-linecap:round; stroke-linejoin:round; stroke-width:4; stroke-opacity:0.1; fill:none" points="685.08,423.763 2305.51,423.763 "/>
<polyline clip-path="url(#clip572)" style="stroke:#000000; stroke-linecap:round; stroke-linejoin:round; stroke-width:4; stroke-opacity:0.1; fill:none" points="685.08,206.799 2305.51,206.799 "/>
<polyline clip-path="url(#clip570)" style="stroke:#000000; stroke-linecap:round; stroke-linejoin:round; stroke-width:8; stroke-opacity:1; fill:none" points="685.08,1273.7 685.08,94.4882 "/>
<polyline clip-path="url(#clip570)" style="stroke:#000000; stroke-linecap:round; stroke-linejoin:round; stroke-width:8; stroke-opacity:1; fill:none" points="685.08,1074.66 703.978,1074.66 "/>
<polyline clip-path="url(#clip570)" style="stroke:#000000; stroke-linecap:round; stroke-linejoin:round; stroke-width:8; stroke-opacity:1; fill:none" points="685.08,857.693 703.978,857.693 "/>
<polyline clip-path="url(#clip570)" style="stroke:#000000; stroke-linecap:round; stroke-linejoin:round; stroke-width:8; stroke-opacity:1; fill:none" points="685.08,640.728 703.978,640.728 "/>
<polyline clip-path="url(#clip570)" style="stroke:#000000; stroke-linecap:round; stroke-linejoin:round; stroke-width:8; stroke-opacity:1; fill:none" points="685.08,423.763 703.978,423.763 "/>
<polyline clip-path="url(#clip570)" style="stroke:#000000; stroke-linecap:round; stroke-linejoin:round; stroke-width:8; stroke-opacity:1; fill:none" points="685.08,206.799 703.978,206.799 "/>
<path clip-path="url(#clip570)" d="M422.415 1071.95 Q429.127 1073.38 432.877 1077.92 Q436.674 1082.46 436.674 1089.13 Q436.674 1099.36 429.637 1104.96 Q422.6 1110.56 409.637 1110.56 Q405.285 1110.56 400.655 1109.68 Q396.072 1108.85 391.165 1107.13 L391.165 1098.11 Q395.054 1100.37 399.683 1101.53 Q404.313 1102.69 409.359 1102.69 Q418.155 1102.69 422.739 1099.22 Q427.368 1095.75 427.368 1089.13 Q427.368 1083.01 423.063 1079.59 Q418.803 1076.12 411.165 1076.12 L403.109 1076.12 L403.109 1068.43 L411.535 1068.43 Q418.433 1068.43 422.09 1065.7 Q425.748 1062.92 425.748 1057.74 Q425.748 1052.41 421.952 1049.59 Q418.202 1046.72 411.165 1046.72 Q407.322 1046.72 402.924 1047.55 Q398.526 1048.38 393.248 1050.14 L393.248 1041.81 Q398.572 1040.33 403.202 1039.59 Q407.878 1038.85 411.998 1038.85 Q422.646 1038.85 428.85 1043.71 Q435.053 1048.52 435.053 1056.76 Q435.053 1062.5 431.766 1066.49 Q428.479 1070.42 422.415 1071.95 Z" fill="#000000" fill-rule="nonzero" fill-opacity="1" /><path clip-path="url(#clip570)" d="M462.461 1101.35 L495.099 1101.35 L495.099 1109.22 L451.211 1109.22 L451.211 1101.35 Q456.535 1095.84 465.701 1086.58 Q474.914 1077.27 477.275 1074.59 Q481.766 1069.54 483.525 1066.07 Q485.331 1062.55 485.331 1059.17 Q485.331 1053.66 481.442 1050.19 Q477.599 1046.72 471.396 1046.72 Q466.998 1046.72 462.09 1048.25 Q457.229 1049.77 451.674 1052.88 L451.674 1043.43 Q457.322 1041.16 462.229 1040 Q467.137 1038.85 471.211 1038.85 Q481.951 1038.85 488.34 1044.22 Q494.729 1049.59 494.729 1058.57 Q494.729 1062.83 493.109 1066.67 Q491.535 1070.47 487.322 1075.65 Q486.164 1077 479.961 1083.43 Q473.757 1089.82 462.461 1101.35 Z" fill="#000000" fill-rule="nonzero" fill-opacity="1" /><path clip-path="url(#clip570)" d="M514.821 1040.1 L551.534 1040.1 L551.534 1047.97 L523.386 1047.97 L523.386 1064.91 Q525.423 1064.22 527.46 1063.89 Q529.497 1063.52 531.534 1063.52 Q543.108 1063.52 549.868 1069.87 Q556.627 1076.21 556.627 1087.04 Q556.627 1098.2 549.682 1104.4 Q542.738 1110.56 530.099 1110.56 Q525.747 1110.56 521.21 1109.82 Q516.72 1109.08 511.905 1107.6 L511.905 1098.2 Q516.071 1100.47 520.516 1101.58 Q524.96 1102.69 529.914 1102.69 Q537.923 1102.69 542.599 1098.48 Q547.275 1094.26 547.275 1087.04 Q547.275 1079.82 542.599 1075.61 Q537.923 1071.39 529.914 1071.39 Q526.164 1071.39 522.414 1072.23 Q518.71 1073.06 514.821 1074.82 L514.821 1040.1 Z" fill="#000000" fill-rule="nonzero" fill-opacity="1" /><path clip-path="url(#clip570)" d="M575.053 1097.46 L584.821 1097.46 L584.821 1109.22 L575.053 1109.22 L575.053 1097.46 Z" fill="#000000" fill-rule="nonzero" fill-opacity="1" /><path clip-path="url(#clip570)" d="M625.191 1046.25 Q617.969 1046.25 614.312 1053.38 Q610.701 1060.47 610.701 1074.73 Q610.701 1088.94 614.312 1096.07 Q617.969 1103.15 625.191 1103.15 Q632.46 1103.15 636.071 1096.07 Q639.728 1088.94 639.728 1074.73 Q639.728 1060.47 636.071 1053.38 Q632.46 1046.25 625.191 1046.25 M625.191 1038.85 Q636.812 1038.85 642.923 1048.06 Q649.08 1057.23 649.08 1074.73 Q649.08 1092.18 642.923 1101.39 Q636.812 1110.56 625.191 1110.56 Q613.571 1110.56 607.414 1101.39 Q601.302 1092.18 601.302 1074.73 Q601.302 1057.23 607.414 1048.06 Q613.571 1038.85 625.191 1038.85 Z" fill="#000000" fill-rule="nonzero" fill-opacity="1" /><path clip-path="url(#clip570)" d="M422.415 854.985 Q429.127 856.42 432.877 860.957 Q436.674 865.494 436.674 872.16 Q436.674 882.392 429.637 887.994 Q422.6 893.595 409.637 893.595 Q405.285 893.595 400.655 892.716 Q396.072 891.882 391.165 890.17 L391.165 881.142 Q395.054 883.41 399.683 884.568 Q404.313 885.725 409.359 885.725 Q418.155 885.725 422.739 882.253 Q427.368 878.781 427.368 872.16 Q427.368 866.049 423.063 862.623 Q418.803 859.151 411.165 859.151 L403.109 859.151 L403.109 851.466 L411.535 851.466 Q418.433 851.466 422.09 848.735 Q425.748 845.957 425.748 840.772 Q425.748 835.448 421.952 832.624 Q418.202 829.753 411.165 829.753 Q407.322 829.753 402.924 830.587 Q398.526 831.42 393.248 833.179 L393.248 824.846 Q398.572 823.364 403.202 822.624 Q407.878 821.883 411.998 821.883 Q422.646 821.883 428.85 826.744 Q435.053 831.559 435.053 839.799 Q435.053 845.54 431.766 849.522 Q428.479 853.457 422.415 854.985 Z" fill="#000000" fill-rule="nonzero" fill-opacity="1" /><path clip-path="url(#clip570)" d="M454.498 823.133 L491.21 823.133 L491.21 831.003 L463.062 831.003 L463.062 847.948 Q465.099 847.253 467.137 846.929 Q469.174 846.559 471.211 846.559 Q482.785 846.559 489.544 852.901 Q496.303 859.244 496.303 870.077 Q496.303 881.234 489.359 887.438 Q482.414 893.595 469.775 893.595 Q465.424 893.595 460.887 892.855 Q456.396 892.114 451.581 890.632 L451.581 881.234 Q455.748 883.503 460.192 884.614 Q464.637 885.725 469.59 885.725 Q477.599 885.725 482.275 881.512 Q486.951 877.299 486.951 870.077 Q486.951 862.855 482.275 858.642 Q477.599 854.429 469.59 854.429 Q465.84 854.429 462.09 855.262 Q458.387 856.096 454.498 857.855 L454.498 823.133 Z" fill="#000000" fill-rule="nonzero" fill-opacity="1" /><path clip-path="url(#clip570)" d="M534.729 829.29 Q527.507 829.29 523.849 836.42 Q520.238 843.503 520.238 857.762 Q520.238 871.975 523.849 879.105 Q527.507 886.188 534.729 886.188 Q541.997 886.188 545.608 879.105 Q549.266 871.975 549.266 857.762 Q549.266 843.503 545.608 836.42 Q541.997 829.29 534.729 829.29 M534.729 821.883 Q546.349 821.883 552.46 831.096 Q558.618 840.262 558.618 857.762 Q558.618 875.216 552.46 884.429 Q546.349 893.595 534.729 893.595 Q523.108 893.595 516.951 884.429 Q510.84 875.216 510.84 857.762 Q510.84 840.262 516.951 831.096 Q523.108 821.883 534.729 821.883 Z" fill="#000000" fill-rule="nonzero" fill-opacity="1" /><path clip-path="url(#clip570)" d="M575.053 880.494 L584.821 880.494 L584.821 892.253 L575.053 892.253 L575.053 880.494 Z" fill="#000000" fill-rule="nonzero" fill-opacity="1" /><path clip-path="url(#clip570)" d="M625.191 829.29 Q617.969 829.29 614.312 836.42 Q610.701 843.503 610.701 857.762 Q610.701 871.975 614.312 879.105 Q617.969 886.188 625.191 886.188 Q632.46 886.188 636.071 879.105 Q639.728 871.975 639.728 857.762 Q639.728 843.503 636.071 836.42 Q632.46 829.29 625.191 829.29 M625.191 821.883 Q636.812 821.883 642.923 831.096 Q649.08 840.262 649.08 857.762 Q649.08 875.216 642.923 884.429 Q636.812 893.595 625.191 893.595 Q613.571 893.595 607.414 884.429 Q601.302 875.216 601.302 857.762 Q601.302 840.262 607.414 831.096 Q613.571 821.883 625.191 821.883 Z" fill="#000000" fill-rule="nonzero" fill-opacity="1" /><path clip-path="url(#clip570)" d="M422.415 638.02 Q429.127 639.455 432.877 643.992 Q436.674 648.529 436.674 655.196 Q436.674 665.427 429.637 671.029 Q422.6 676.631 409.637 676.631 Q405.285 676.631 400.655 675.751 Q396.072 674.918 391.165 673.205 L391.165 664.177 Q395.054 666.446 399.683 667.603 Q404.313 668.76 409.359 668.76 Q418.155 668.76 422.739 665.288 Q427.368 661.816 427.368 655.196 Q427.368 649.085 423.063 645.659 Q418.803 642.186 411.165 642.186 L403.109 642.186 L403.109 634.501 L411.535 634.501 Q418.433 634.501 422.09 631.77 Q425.748 628.992 425.748 623.807 Q425.748 618.483 421.952 615.659 Q418.202 612.788 411.165 612.788 Q407.322 612.788 402.924 613.622 Q398.526 614.455 393.248 616.214 L393.248 607.881 Q398.572 606.4 403.202 605.659 Q407.878 604.918 411.998 604.918 Q422.646 604.918 428.85 609.779 Q435.053 614.594 435.053 622.835 Q435.053 628.575 431.766 632.557 Q428.479 636.492 422.415 638.02 Z" fill="#000000" fill-rule="nonzero" fill-opacity="1" /><path clip-path="url(#clip570)" d="M452.044 606.168 L496.488 606.168 L496.488 610.15 L471.396 675.288 L461.627 675.288 L485.238 614.038 L452.044 614.038 L452.044 606.168 Z" fill="#000000" fill-rule="nonzero" fill-opacity="1" /><path clip-path="url(#clip570)" d="M514.821 606.168 L551.534 606.168 L551.534 614.038 L523.386 614.038 L523.386 630.983 Q525.423 630.288 527.46 629.964 Q529.497 629.594 531.534 629.594 Q543.108 629.594 549.868 635.937 Q556.627 642.279 556.627 653.112 Q556.627 664.27 549.682 670.473 Q542.738 676.631 530.099 676.631 Q525.747 676.631 521.21 675.89 Q516.72 675.149 511.905 673.668 L511.905 664.27 Q516.071 666.538 520.516 667.649 Q524.96 668.76 529.914 668.76 Q537.923 668.76 542.599 664.547 Q547.275 660.335 547.275 653.112 Q547.275 645.89 542.599 641.677 Q537.923 637.464 529.914 637.464 Q526.164 637.464 522.414 638.298 Q518.71 639.131 514.821 640.89 L514.821 606.168 Z" fill="#000000" fill-rule="nonzero" fill-opacity="1" /><path clip-path="url(#clip570)" d="M575.053 663.529 L584.821 663.529 L584.821 675.288 L575.053 675.288 L575.053 663.529 Z" fill="#000000" fill-rule="nonzero" fill-opacity="1" /><path clip-path="url(#clip570)" d="M625.191 612.326 Q617.969 612.326 614.312 619.455 Q610.701 626.538 610.701 640.798 Q610.701 655.01 614.312 662.14 Q617.969 669.223 625.191 669.223 Q632.46 669.223 636.071 662.14 Q639.728 655.01 639.728 640.798 Q639.728 626.538 636.071 619.455 Q632.46 612.326 625.191 612.326 M625.191 604.918 Q636.812 604.918 642.923 614.131 Q649.08 623.298 649.08 640.798 Q649.08 658.251 642.923 667.464 Q636.812 676.631 625.191 676.631 Q613.571 676.631 607.414 667.464 Q601.302 658.251 601.302 640.798 Q601.302 623.298 607.414 614.131 Q613.571 604.918 625.191 604.918 Z" fill="#000000" fill-rule="nonzero" fill-opacity="1" /><path clip-path="url(#clip570)" d="M419.776 397.352 L396.165 434.25 L419.776 434.25 L419.776 397.352 M417.322 389.203 L429.081 389.203 L429.081 434.25 L438.942 434.25 L438.942 442.027 L429.081 442.027 L429.081 458.323 L419.776 458.323 L419.776 442.027 L388.572 442.027 L388.572 433 L417.322 389.203 Z" fill="#000000" fill-rule="nonzero" fill-opacity="1" /><path clip-path="url(#clip570)" d="M474.405 395.361 Q467.183 395.361 463.525 402.49 Q459.914 409.574 459.914 423.833 Q459.914 438.046 463.525 445.175 Q467.183 452.259 474.405 452.259 Q481.673 452.259 485.285 445.175 Q488.942 438.046 488.942 423.833 Q488.942 409.574 485.285 402.49 Q481.673 395.361 474.405 395.361 M474.405 387.953 Q486.025 387.953 492.136 397.166 Q498.294 406.333 498.294 423.833 Q498.294 441.287 492.136 450.499 Q486.025 459.666 474.405 459.666 Q462.785 459.666 456.627 450.499 Q450.516 441.287 450.516 423.833 Q450.516 406.333 456.627 397.166 Q462.785 387.953 474.405 387.953 Z" fill="#000000" fill-rule="nonzero" fill-opacity="1" /><path clip-path="url(#clip570)" d="M534.729 395.361 Q527.507 395.361 523.849 402.49 Q520.238 409.574 520.238 423.833 Q520.238 438.046 523.849 445.175 Q527.507 452.259 534.729 452.259 Q541.997 452.259 545.608 445.175 Q549.266 438.046 549.266 423.833 Q549.266 409.574 545.608 402.49 Q541.997 395.361 534.729 395.361 M534.729 387.953 Q546.349 387.953 552.46 397.166 Q558.618 406.333 558.618 423.833 Q558.618 441.287 552.46 450.499 Q546.349 459.666 534.729 459.666 Q523.108 459.666 516.951 450.499 Q510.84 441.287 510.84 423.833 Q510.84 406.333 516.951 397.166 Q523.108 387.953 534.729 387.953 Z" fill="#000000" fill-rule="nonzero" fill-opacity="1" /><path clip-path="url(#clip570)" d="M575.053 446.564 L584.821 446.564 L584.821 458.323 L575.053 458.323 L575.053 446.564 Z" fill="#000000" fill-rule="nonzero" fill-opacity="1" /><path clip-path="url(#clip570)" d="M625.191 395.361 Q617.969 395.361 614.312 402.49 Q610.701 409.574 610.701 423.833 Q610.701 438.046 614.312 445.175 Q617.969 452.259 625.191 452.259 Q632.46 452.259 636.071 445.175 Q639.728 438.046 639.728 423.833 Q639.728 409.574 636.071 402.49 Q632.46 395.361 625.191 395.361 M625.191 387.953 Q636.812 387.953 642.923 397.166 Q649.08 406.333 649.08 423.833 Q649.08 441.287 642.923 450.499 Q636.812 459.666 625.191 459.666 Q613.571 459.666 607.414 450.499 Q601.302 441.287 601.302 423.833 Q601.302 406.333 607.414 397.166 Q613.571 387.953 625.191 387.953 Z" fill="#000000" fill-rule="nonzero" fill-opacity="1" /><path clip-path="url(#clip570)" d="M419.776 180.387 L396.165 217.285 L419.776 217.285 L419.776 180.387 M417.322 172.239 L429.081 172.239 L429.081 217.285 L438.942 217.285 L438.942 225.063 L429.081 225.063 L429.081 241.359 L419.776 241.359 L419.776 225.063 L388.572 225.063 L388.572 216.035 L417.322 172.239 Z" fill="#000000" fill-rule="nonzero" fill-opacity="1" /><path clip-path="url(#clip570)" d="M462.461 233.488 L495.099 233.488 L495.099 241.359 L451.211 241.359 L451.211 233.488 Q456.535 227.979 465.701 218.72 Q474.914 209.414 477.275 206.729 Q481.766 201.683 483.525 198.211 Q485.331 194.692 485.331 191.313 Q485.331 185.804 481.442 182.331 Q477.599 178.859 471.396 178.859 Q466.998 178.859 462.09 180.387 Q457.229 181.915 451.674 185.016 L451.674 175.572 Q457.322 173.304 462.229 172.146 Q467.137 170.989 471.211 170.989 Q481.951 170.989 488.34 176.359 Q494.729 181.729 494.729 190.711 Q494.729 194.97 493.109 198.813 Q491.535 202.609 487.322 207.794 Q486.164 209.137 479.961 215.572 Q473.757 221.961 462.461 233.488 Z" fill="#000000" fill-rule="nonzero" fill-opacity="1" /><path clip-path="url(#clip570)" d="M514.821 172.239 L551.534 172.239 L551.534 180.109 L523.386 180.109 L523.386 197.053 Q525.423 196.359 527.46 196.035 Q529.497 195.665 531.534 195.665 Q543.108 195.665 549.868 202.007 Q556.627 208.35 556.627 219.183 Q556.627 230.34 549.682 236.544 Q542.738 242.701 530.099 242.701 Q525.747 242.701 521.21 241.961 Q516.72 241.22 511.905 239.738 L511.905 230.34 Q516.071 232.609 520.516 233.72 Q524.96 234.831 529.914 234.831 Q537.923 234.831 542.599 230.618 Q547.275 226.405 547.275 219.183 Q547.275 211.961 542.599 207.748 Q537.923 203.535 529.914 203.535 Q526.164 203.535 522.414 204.368 Q518.71 205.202 514.821 206.961 L514.821 172.239 Z" fill="#000000" fill-rule="nonzero" fill-opacity="1" /><path clip-path="url(#clip570)" d="M575.053 229.6 L584.821 229.6 L584.821 241.359 L575.053 241.359 L575.053 229.6 Z" fill="#000000" fill-rule="nonzero" fill-opacity="1" /><path clip-path="url(#clip570)" d="M625.191 178.396 Q617.969 178.396 614.312 185.526 Q610.701 192.609 610.701 206.868 Q610.701 221.081 614.312 228.211 Q617.969 235.294 625.191 235.294 Q632.46 235.294 636.071 228.211 Q639.728 221.081 639.728 206.868 Q639.728 192.609 636.071 185.526 Q632.46 178.396 625.191 178.396 M625.191 170.989 Q636.812 170.989 642.923 180.202 Q649.08 189.368 649.08 206.868 Q649.08 224.322 642.923 233.535 Q636.812 242.701 625.191 242.701 Q613.571 242.701 607.414 233.535 Q601.302 224.322 601.302 206.868 Q601.302 189.368 607.414 180.202 Q613.571 170.989 625.191 170.989 Z" fill="#000000" fill-rule="nonzero" fill-opacity="1" /><path clip-path="url(#clip570)" d="M313.366 933.755 L351.178 933.755 L351.178 945.532 L252.764 945.532 L252.764 933.755 L263.586 933.755 Q257.22 930.063 254.165 924.461 Q251.045 918.796 251.045 910.966 Q251.045 897.98 261.358 889.895 Q271.67 881.747 288.476 881.747 Q305.281 881.747 315.594 889.895 Q325.906 897.98 325.906 910.966 Q325.906 918.796 322.851 924.461 Q319.731 930.063 313.366 933.755 M288.476 893.906 Q275.553 893.906 268.233 899.253 Q260.849 904.536 260.849 913.83 Q260.849 923.124 268.233 928.471 Q275.553 933.755 288.476 933.755 Q301.398 933.755 308.782 928.471 Q316.103 923.124 316.103 913.83 Q316.103 904.536 308.782 899.253 Q301.398 893.906 288.476 893.906 Z" fill="#000000" fill-rule="nonzero" fill-opacity="1" /><path clip-path="url(#clip570)" d="M288.221 829.93 Q288.221 844.126 291.468 849.6 Q294.714 855.075 302.544 855.075 Q308.782 855.075 312.475 851.001 Q316.103 846.863 316.103 839.797 Q316.103 830.058 309.228 824.201 Q302.289 818.281 290.831 818.281 L288.221 818.281 L288.221 829.93 M283.383 806.568 L324.06 806.568 L324.06 818.281 L313.238 818.281 Q319.731 822.291 322.851 828.275 Q325.906 834.259 325.906 842.916 Q325.906 853.865 319.795 860.358 Q313.62 866.788 303.308 866.788 Q291.277 866.788 285.166 858.767 Q279.055 850.683 279.055 834.705 L279.055 818.281 L277.909 818.281 Q269.824 818.281 265.432 823.628 Q260.976 828.912 260.976 838.524 Q260.976 844.635 262.44 850.428 Q263.904 856.221 266.832 861.568 L256.011 861.568 Q253.528 855.139 252.319 849.091 Q251.045 843.044 251.045 837.315 Q251.045 821.846 259.066 814.207 Q267.087 806.568 283.383 806.568 Z" fill="#000000" fill-rule="nonzero" fill-opacity="1" /><path clip-path="url(#clip570)" d="M263.713 741.129 Q262.567 743.102 262.058 745.457 Q261.485 747.749 261.485 750.55 Q261.485 760.48 267.978 765.828 Q274.408 771.111 286.502 771.111 L324.06 771.111 L324.06 782.888 L252.764 782.888 L252.764 771.111 L263.841 771.111 Q257.348 767.419 254.228 761.499 Q251.045 755.579 251.045 747.112 Q251.045 745.903 251.236 744.439 Q251.364 742.975 251.682 741.192 L263.713 741.129 Z" fill="#000000" fill-rule="nonzero" fill-opacity="1" /><path clip-path="url(#clip570)" d="M285.484 670.724 L291.213 670.724 L291.213 724.578 Q303.308 723.814 309.674 717.321 Q315.976 710.764 315.976 699.115 Q315.976 692.367 314.321 686.065 Q312.666 679.7 309.355 673.461 L320.432 673.461 Q323.105 679.763 324.506 686.384 Q325.906 693.004 325.906 699.815 Q325.906 716.875 315.976 726.87 Q306.045 736.8 289.112 736.8 Q271.607 736.8 261.358 727.379 Q251.045 717.894 251.045 701.852 Q251.045 687.466 260.339 679.127 Q269.57 670.724 285.484 670.724 M282.046 682.437 Q272.434 682.564 266.705 687.848 Q260.976 693.068 260.976 701.725 Q260.976 711.528 266.514 717.448 Q272.052 723.305 282.11 724.196 L282.046 682.437 Z" fill="#000000" fill-rule="nonzero" fill-opacity="1" /><path clip-path="url(#clip570)" d="M281.028 592.235 L324.06 592.235 L324.06 603.948 L281.41 603.948 Q271.288 603.948 266.259 607.894 Q261.231 611.841 261.231 619.735 Q261.231 629.22 267.278 634.694 Q273.325 640.169 283.765 640.169 L324.06 640.169 L324.06 651.945 L252.764 651.945 L252.764 640.169 L263.841 640.169 Q257.411 635.967 254.228 630.302 Q251.045 624.573 251.045 617.125 Q251.045 604.839 258.684 598.537 Q266.259 592.235 281.028 592.235 Z" fill="#000000" fill-rule="nonzero" fill-opacity="1" /><path clip-path="url(#clip570)" d="M307.891 567.218 L307.891 553.786 L324.06 553.786 L324.06 567.218 L307.891 567.218 Z" fill="#000000" fill-rule="nonzero" fill-opacity="1" /><path clip-path="url(#clip570)" d="M240.224 449.006 L290.958 481.472 L290.958 449.006 L240.224 449.006 M229.02 452.38 L229.02 436.211 L290.958 436.211 L290.958 422.652 L301.653 422.652 L301.653 436.211 L324.06 436.211 L324.06 449.006 L301.653 449.006 L301.653 491.911 L289.24 491.911 L229.02 452.38 Z" fill="#000000" fill-rule="nonzero" fill-opacity="1" /><polyline clip-path="url(#clip572)" style="stroke:#008000; stroke-linecap:round; stroke-linejoin:round; stroke-width:8; stroke-opacity:1; fill:none" points="730.941,301.933 848.534,191.276 966.127,391.378 1083.72,380.633 1201.31,461.387 1318.91,530.578 1436.5,717.462 1554.09,792.209 1671.69,953.196 1789.28,942.207 1906.87,1240.32 2024.46,828.119 2142.06,936.599 2259.65,1055.42 "/>
<circle clip-path="url(#clip572)" cx="730.941" cy="301.933" r="14.4" fill="#008000" fill-rule="evenodd" fill-opacity="1" stroke="#000000" stroke-opacity="1" stroke-width="6.4"/>
<circle clip-path="url(#clip572)" cx="848.534" cy="191.276" r="14.4" fill="#008000" fill-rule="evenodd" fill-opacity="1" stroke="#000000" stroke-opacity="1" stroke-width="6.4"/>
<circle clip-path="url(#clip572)" cx="966.127" cy="391.378" r="14.4" fill="#008000" fill-rule="evenodd" fill-opacity="1" stroke="#000000" stroke-opacity="1" stroke-width="6.4"/>
<circle clip-path="url(#clip572)" cx="1083.72" cy="380.633" r="14.4" fill="#008000" fill-rule="evenodd" fill-opacity="1" stroke="#000000" stroke-opacity="1" stroke-width="6.4"/>
<circle clip-path="url(#clip572)" cx="1201.31" cy="461.387" r="14.4" fill="#008000" fill-rule="evenodd" fill-opacity="1" stroke="#000000" stroke-opacity="1" stroke-width="6.4"/>
<circle clip-path="url(#clip572)" cx="1318.91" cy="530.578" r="14.4" fill="#008000" fill-rule="evenodd" fill-opacity="1" stroke="#000000" stroke-opacity="1" stroke-width="6.4"/>
<circle clip-path="url(#clip572)" cx="1436.5" cy="717.462" r="14.4" fill="#008000" fill-rule="evenodd" fill-opacity="1" stroke="#000000" stroke-opacity="1" stroke-width="6.4"/>
<circle clip-path="url(#clip572)" cx="1554.09" cy="792.209" r="14.4" fill="#008000" fill-rule="evenodd" fill-opacity="1" stroke="#000000" stroke-opacity="1" stroke-width="6.4"/>
<circle clip-path="url(#clip572)" cx="1671.69" cy="953.196" r="14.4" fill="#008000" fill-rule="evenodd" fill-opacity="1" stroke="#000000" stroke-opacity="1" stroke-width="6.4"/>
<circle clip-path="url(#clip572)" cx="1789.28" cy="942.207" r="14.4" fill="#008000" fill-rule="evenodd" fill-opacity="1" stroke="#000000" stroke-opacity="1" stroke-width="6.4"/>
<circle clip-path="url(#clip572)" cx="1906.87" cy="1240.32" r="14.4" fill="#008000" fill-rule="evenodd" fill-opacity="1" stroke="#000000" stroke-opacity="1" stroke-width="6.4"/>
<circle clip-path="url(#clip572)" cx="2024.46" cy="828.119" r="14.4" fill="#008000" fill-rule="evenodd" fill-opacity="1" stroke="#000000" stroke-opacity="1" stroke-width="6.4"/>
<circle clip-path="url(#clip572)" cx="2142.06" cy="936.599" r="14.4" fill="#008000" fill-rule="evenodd" fill-opacity="1" stroke="#000000" stroke-opacity="1" stroke-width="6.4"/>
<circle clip-path="url(#clip572)" cx="2259.65" cy="1055.42" r="14.4" fill="#008000" fill-rule="evenodd" fill-opacity="1" stroke="#000000" stroke-opacity="1" stroke-width="6.4"/>
<polyline clip-path="url(#clip572)" style="stroke:#00008b; stroke-linecap:round; stroke-linejoin:round; stroke-width:8; stroke-opacity:1; fill:none" points="730.941,235.796 848.534,224.004 966.127,280.84 1083.72,358.24 1201.31,432.339 1318.91,520.598 1436.5,606.389 1554.09,687.844 1671.69,770.333 1789.28,843.578 1906.87,918.784 2024.46,988.408 2142.06,1070.39 2259.65,1132.54 "/>
<path clip-path="url(#clip572)" d="M730.941 334.378 L848.534 316.057 L966.127 382.992 L1083.72 445.26 L1201.31 523.156 L1318.91 615.449 L1436.5 700.913 L1554.09 788.697 L1671.69 869.59 L1789.28 934.664 L1906.87 1014.38 L2024.46 1084.14 L2142.06 1165.98 L2259.65 1234.85 L2259.65 1032.94 L2142.06 977.418 L2024.46 896.518 L1906.87 823.275 L1789.28 749.363 L1671.69 669.481 L1554.09 588.182 L1436.5 509.548 L1318.91 426.445 L1201.31 340.282 L1083.72 265.654 L966.127 184.055 L848.534 127.862 L730.941 142.616  Z" fill="#0000ff" fill-rule="evenodd" fill-opacity="0.1"/>
<polyline clip-path="url(#clip572)" style="stroke:#0000ff; stroke-linecap:round; stroke-linejoin:round; stroke-width:0; stroke-opacity:0.1; fill:none" points="730.941,334.378 848.534,316.057 966.127,382.992 1083.72,445.26 1201.31,523.156 1318.91,615.449 1436.5,700.913 1554.09,788.697 1671.69,869.59 1789.28,934.664 1906.87,1014.38 2024.46,1084.14 2142.06,1165.98 2259.65,1234.85 "/>
</svg>
