<?xml version="1.0" encoding="utf-8"?>
<svg xmlns="http://www.w3.org/2000/svg" xmlns:xlink="http://www.w3.org/1999/xlink" width="600" height="400" viewBox="0 0 2400 1600">
<defs>
  <clipPath id="clip040">
    <rect x="0" y="0" width="2400" height="1600"/>
  </clipPath>
</defs>
<path clip-path="url(#clip040)" d="M0 1600 L2400 1600 L2400 0 L0 0  Z" fill="#ffffff" fill-rule="evenodd" fill-opacity="1"/>
<defs>
  <clipPath id="clip041">
    <rect x="480" y="0" width="1681" height="1600"/>
  </clipPath>
</defs>
<path clip-path="url(#clip040)" d="M685.08 1273.7 L2305.51 1273.7 L2305.51 94.4882 L685.08 94.4882  Z" fill="#ffffff" fill-rule="evenodd" fill-opacity="1"/>
<defs>
  <clipPath id="clip042">
    <rect x="685" y="94" width="1621" height="1180"/>
  </clipPath>
</defs>
<polyline clip-path="url(#clip042)" style="stroke:#000000; stroke-linecap:round; stroke-linejoin:round; stroke-width:4; stroke-opacity:0.1; fill:none" points="730.941,1273.7 730.941,94.4882 "/>
<polyline clip-path="url(#clip042)" style="stroke:#000000; stroke-linecap:round; stroke-linejoin:round; stroke-width:4; stroke-opacity:0.1; fill:none" points="966.127,1273.7 966.127,94.4882 "/>
<polyline clip-path="url(#clip042)" style="stroke:#000000; stroke-linecap:round; stroke-linejoin:round; stroke-width:4; stroke-opacity:0.1; fill:none" points="1201.31,1273.7 1201.31,94.4882 "/>
<polyline clip-path="url(#clip042)" style="stroke:#000000; stroke-linecap:round; stroke-linejoin:round; stroke-width:4; stroke-opacity:0.1; fill:none" points="1436.5,1273.7 1436.5,94.4882 "/>
<polyline clip-path="url(#clip042)" style="stroke:#000000; stroke-linecap:round; stroke-linejoin:round; stroke-width:4; stroke-opacity:0.1; fill:none" points="1671.69,1273.7 1671.69,94.4882 "/>
<polyline clip-path="url(#clip042)" style="stroke:#000000; stroke-linecap:round; stroke-linejoin:round; stroke-width:4; stroke-opacity:0.1; fill:none" points="1906.87,1273.7 1906.87,94.4882 "/>
<polyline clip-path="url(#clip042)" style="stroke:#000000; stroke-linecap:round; stroke-linejoin:round; stroke-width:4; stroke-opacity:0.1; fill:none" points="2142.06,1273.7 2142.06,94.4882 "/>
<polyline clip-path="url(#clip040)" style="stroke:#000000; stroke-linecap:round; stroke-linejoin:round; stroke-width:8; stroke-opacity:1; fill:none" points="685.08,1273.7 2305.51,1273.7 "/>
<polyline clip-path="url(#clip040)" style="stroke:#000000; stroke-linecap:round; stroke-linejoin:round; stroke-width:8; stroke-opacity:1; fill:none" points="730.941,1273.7 730.941,1254.8 "/>
<polyline clip-path="url(#clip040)" style="stroke:#000000; stroke-linecap:round; stroke-linejoin:round; stroke-width:8; stroke-opacity:1; fill:none" points="966.127,1273.7 966.127,1254.8 "/>
<polyline clip-path="url(#clip040)" style="stroke:#000000; stroke-linecap:round; stroke-linejoin:round; stroke-width:8; stroke-opacity:1; fill:none" points="1201.31,1273.7 1201.31,1254.8 "/>
<polyline clip-path="url(#clip040)" style="stroke:#000000; stroke-linecap:round; stroke-linejoin:round; stroke-width:8; stroke-opacity:1; fill:none" points="1436.5,1273.7 1436.5,1254.8 "/>
<polyline clip-path="url(#clip040)" style="stroke:#000000; stroke-linecap:round; stroke-linejoin:round; stroke-width:8; stroke-opacity:1; fill:none" points="1671.69,1273.7 1671.69,1254.8 "/>
<polyline clip-path="url(#clip040)" style="stroke:#000000; stroke-linecap:round; stroke-linejoin:round; stroke-width:8; stroke-opacity:1; fill:none" points="1906.87,1273.7 1906.87,1254.8 "/>
<polyline clip-path="url(#clip040)" style="stroke:#000000; stroke-linecap:round; stroke-linejoin:round; stroke-width:8; stroke-opacity:1; fill:none" points="2142.06,1273.7 2142.06,1254.8 "/>
<path clip-path="url(#clip040)" d="M685.71 1316.33 Q678.488 1316.33 674.83 1323.46 Q671.219 1330.55 671.219 1344.81 Q671.219 1359.02 674.83 1366.15 Q678.488 1373.23 685.71 1373.23 Q692.978 1373.23 696.59 1366.15 Q700.247 1359.02 700.247 1344.81 Q700.247 1330.55 696.59 1323.46 Q692.978 1316.33 685.71 1316.33 M685.71 1308.93 Q697.33 1308.93 703.441 1318.14 Q709.599 1327.31 709.599 1344.81 Q709.599 1362.26 703.441 1371.47 Q697.33 1380.64 685.71 1380.64 Q674.09 1380.64 667.932 1371.47 Q661.821 1362.26 661.821 1344.81 Q661.821 1327.31 667.932 1318.14 Q674.09 1308.93 685.71 1308.93 Z" fill="#000000" fill-rule="nonzero" fill-opacity="1" /><path clip-path="url(#clip040)" d="M726.034 1367.54 L735.802 1367.54 L735.802 1379.3 L726.034 1379.3 L726.034 1367.54 Z" fill="#000000" fill-rule="nonzero" fill-opacity="1" /><path clip-path="url(#clip040)" d="M776.172 1316.33 Q768.95 1316.33 765.293 1323.46 Q761.682 1330.55 761.682 1344.81 Q761.682 1359.02 765.293 1366.15 Q768.95 1373.23 776.172 1373.23 Q783.441 1373.23 787.052 1366.15 Q790.709 1359.02 790.709 1344.81 Q790.709 1330.55 787.052 1323.46 Q783.441 1316.33 776.172 1316.33 M776.172 1308.93 Q787.793 1308.93 793.904 1318.14 Q800.061 1327.31 800.061 1344.81 Q800.061 1362.26 793.904 1371.47 Q787.793 1380.64 776.172 1380.64 Q764.552 1380.64 758.395 1371.47 Q752.284 1362.26 752.284 1344.81 Q752.284 1327.31 758.395 1318.14 Q764.552 1308.93 776.172 1308.93 Z" fill="#000000" fill-rule="nonzero" fill-opacity="1" /><path clip-path="url(#clip040)" d="M922.493 1316.33 Q915.271 1316.33 911.614 1323.46 Q908.003 1330.55 908.003 1344.81 Q908.003 1359.02 911.614 1366.15 Q915.271 1373.23 922.493 1373.23 Q929.762 1373.23 933.373 1366.15 Q937.03 1359.02 937.03 1344.81 Q937.03 1330.55 933.373 1323.46 Q929.762 1316.33 922.493 1316.33 M922.493 1308.93 Q934.114 1308.93 940.225 1318.14 Q946.382 1327.31 946.382 1344.81 Q946.382 1362.26 940.225 1371.47 Q934.114 1380.64 922.493 1380.64 Q910.873 1380.64 904.716 1371.47 Q898.605 1362.26 898.605 1344.81 Q898.605 1327.31 904.716 1318.14 Q910.873 1308.93 922.493 1308.93 Z" fill="#000000" fill-rule="nonzero" fill-opacity="1" /><path clip-path="url(#clip040)" d="M962.817 1367.54 L972.586 1367.54 L972.586 1379.3 L962.817 1379.3 L962.817 1367.54 Z" fill="#000000" fill-rule="nonzero" fill-opacity="1" /><path clip-path="url(#clip040)" d="M1001.01 1371.43 L1033.65 1371.43 L1033.65 1379.3 L989.761 1379.3 L989.761 1371.43 Q995.085 1365.92 1004.25 1356.66 Q1013.47 1347.35 1015.83 1344.67 Q1020.32 1339.62 1022.08 1336.15 Q1023.88 1332.63 1023.88 1329.25 Q1023.88 1323.74 1019.99 1320.27 Q1016.15 1316.8 1009.95 1316.8 Q1005.55 1316.8 1000.64 1318.32 Q995.78 1319.85 990.224 1322.95 L990.224 1313.51 Q995.873 1311.24 1000.78 1310.08 Q1005.69 1308.93 1009.76 1308.93 Q1020.5 1308.93 1026.89 1314.3 Q1033.28 1319.67 1033.28 1328.65 Q1033.28 1332.91 1031.66 1336.75 Q1030.09 1340.55 1025.87 1345.73 Q1024.71 1347.07 1018.51 1353.51 Q1012.31 1359.9 1001.01 1371.43 Z" fill="#000000" fill-rule="nonzero" fill-opacity="1" /><path clip-path="url(#clip040)" d="M1155.6 1316.33 Q1148.37 1316.33 1144.72 1323.46 Q1141.11 1330.55 1141.11 1344.81 Q1141.11 1359.02 1144.72 1366.15 Q1148.37 1373.23 1155.6 1373.23 Q1162.86 1373.23 1166.48 1366.15 Q1170.13 1359.02 1170.13 1344.81 Q1170.13 1330.55 1166.48 1323.46 Q1162.86 1316.33 1155.6 1316.33 M1155.6 1308.93 Q1167.22 1308.93 1173.33 1318.14 Q1179.48 1327.31 1179.48 1344.81 Q1179.48 1362.26 1173.33 1371.47 Q1167.22 1380.64 1155.6 1380.64 Q1143.98 1380.64 1137.82 1371.47 Q1131.71 1362.26 1131.71 1344.81 Q1131.71 1327.31 1137.82 1318.14 Q1143.98 1308.93 1155.6 1308.93 Z" fill="#000000" fill-rule="nonzero" fill-opacity="1" /><path clip-path="url(#clip040)" d="M1195.92 1367.54 L1205.69 1367.54 L1205.69 1379.3 L1195.92 1379.3 L1195.92 1367.54 Z" fill="#000000" fill-rule="nonzero" fill-opacity="1" /><path clip-path="url(#clip040)" d="M1251.75 1318.32 L1228.14 1355.22 L1251.75 1355.22 L1251.75 1318.32 M1249.3 1310.18 L1261.06 1310.18 L1261.06 1355.22 L1270.92 1355.22 L1270.92 1363 L1261.06 1363 L1261.06 1379.3 L1251.75 1379.3 L1251.75 1363 L1220.55 1363 L1220.55 1353.97 L1249.3 1310.18 Z" fill="#000000" fill-rule="nonzero" fill-opacity="1" /><path clip-path="url(#clip040)" d="M1391.11 1316.33 Q1383.88 1316.33 1380.23 1323.46 Q1376.62 1330.55 1376.62 1344.81 Q1376.62 1359.02 1380.23 1366.15 Q1383.88 1373.23 1391.11 1373.23 Q1398.37 1373.23 1401.99 1366.15 Q1405.64 1359.02 1405.64 1344.81 Q1405.64 1330.55 1401.99 1323.46 Q1398.37 1316.33 1391.11 1316.33 M1391.11 1308.93 Q1402.73 1308.93 1408.84 1318.14 Q1414.99 1327.31 1414.99 1344.81 Q1414.99 1362.26 1408.84 1371.47 Q1402.73 1380.64 1391.11 1380.64 Q1379.49 1380.64 1373.33 1371.47 Q1367.22 1362.26 1367.22 1344.81 Q1367.22 1327.31 1373.33 1318.14 Q1379.49 1308.93 1391.11 1308.93 Z" fill="#000000" fill-rule="nonzero" fill-opacity="1" /><path clip-path="url(#clip040)" d="M1431.43 1367.54 L1441.2 1367.54 L1441.2 1379.3 L1431.43 1379.3 L1431.43 1367.54 Z" fill="#000000" fill-rule="nonzero" fill-opacity="1" /><path clip-path="url(#clip040)" d="M1482.73 1341.01 Q1476.43 1341.01 1472.73 1345.31 Q1469.07 1349.62 1469.07 1357.12 Q1469.07 1364.57 1472.73 1368.93 Q1476.43 1373.23 1482.73 1373.23 Q1489.02 1373.23 1492.68 1368.93 Q1496.38 1364.57 1496.38 1357.12 Q1496.38 1349.62 1492.68 1345.31 Q1489.02 1341.01 1482.73 1341.01 M1501.29 1311.7 L1501.29 1320.22 Q1497.77 1318.56 1494.16 1317.68 Q1490.6 1316.8 1487.08 1316.8 Q1477.82 1316.8 1472.91 1323.05 Q1468.05 1329.3 1467.36 1341.93 Q1470.09 1337.91 1474.21 1335.78 Q1478.33 1333.6 1483.28 1333.6 Q1493.7 1333.6 1499.72 1339.94 Q1505.78 1346.24 1505.78 1357.12 Q1505.78 1367.77 1499.49 1374.2 Q1493.19 1380.64 1482.73 1380.64 Q1470.74 1380.64 1464.39 1371.47 Q1458.05 1362.26 1458.05 1344.81 Q1458.05 1328.42 1465.83 1318.69 Q1473.61 1308.93 1486.71 1308.93 Q1490.23 1308.93 1493.79 1309.62 Q1497.4 1310.31 1501.29 1311.7 Z" fill="#000000" fill-rule="nonzero" fill-opacity="1" /><path clip-path="url(#clip040)" d="M1626.55 1316.33 Q1619.32 1316.33 1615.67 1323.46 Q1612.06 1330.55 1612.06 1344.81 Q1612.06 1359.02 1615.67 1366.15 Q1619.32 1373.23 1626.55 1373.23 Q1633.82 1373.23 1637.43 1366.15 Q1641.08 1359.02 1641.08 1344.81 Q1641.08 1330.55 1637.43 1323.46 Q1633.82 1316.33 1626.55 1316.33 M1626.55 1308.93 Q1638.17 1308.93 1644.28 1318.14 Q1650.44 1327.31 1650.44 1344.81 Q1650.44 1362.26 1644.28 1371.47 Q1638.17 1380.64 1626.55 1380.64 Q1614.93 1380.64 1608.77 1371.47 Q1602.66 1362.26 1602.66 1344.81 Q1602.66 1327.31 1608.77 1318.14 Q1614.93 1308.93 1626.55 1308.93 Z" fill="#000000" fill-rule="nonzero" fill-opacity="1" /><path clip-path="url(#clip040)" d="M1666.87 1367.54 L1676.64 1367.54 L1676.64 1379.3 L1666.87 1379.3 L1666.87 1367.54 Z" fill="#000000" fill-rule="nonzero" fill-opacity="1" /><path clip-path="url(#clip040)" d="M1717.01 1346.47 Q1710.34 1346.47 1706.5 1350.04 Q1702.7 1353.6 1702.7 1359.85 Q1702.7 1366.1 1706.5 1369.67 Q1710.34 1373.23 1717.01 1373.23 Q1723.68 1373.23 1727.52 1369.67 Q1731.36 1366.06 1731.36 1359.85 Q1731.36 1353.6 1727.52 1350.04 Q1723.72 1346.47 1717.01 1346.47 M1707.66 1342.49 Q1701.64 1341.01 1698.26 1336.89 Q1694.93 1332.77 1694.93 1326.84 Q1694.93 1318.56 1700.81 1313.74 Q1706.73 1308.93 1717.01 1308.93 Q1727.33 1308.93 1733.21 1313.74 Q1739.09 1318.56 1739.09 1326.84 Q1739.09 1332.77 1735.71 1336.89 Q1732.38 1341.01 1726.41 1342.49 Q1733.17 1344.06 1736.92 1348.65 Q1740.71 1353.23 1740.71 1359.85 Q1740.71 1369.9 1734.56 1375.27 Q1728.44 1380.64 1717.01 1380.64 Q1705.57 1380.64 1699.42 1375.27 Q1693.31 1369.9 1693.31 1359.85 Q1693.31 1353.23 1697.1 1348.65 Q1700.9 1344.06 1707.66 1342.49 M1704.23 1327.72 Q1704.23 1333.09 1707.56 1336.1 Q1710.94 1339.11 1717.01 1339.11 Q1723.03 1339.11 1726.41 1336.1 Q1729.83 1333.09 1729.83 1327.72 Q1729.83 1322.35 1726.41 1319.34 Q1723.03 1316.33 1717.01 1316.33 Q1710.94 1316.33 1707.56 1319.34 Q1704.23 1322.35 1704.23 1327.72 Z" fill="#000000" fill-rule="nonzero" fill-opacity="1" /><path clip-path="url(#clip040)" d="M1841.18 1371.43 L1856.46 1371.43 L1856.46 1318.69 L1839.83 1322.03 L1839.83 1313.51 L1856.36 1310.18 L1865.71 1310.18 L1865.71 1371.43 L1880.99 1371.43 L1880.99 1379.3 L1841.18 1379.3 L1841.18 1371.43 Z" fill="#000000" fill-rule="nonzero" fill-opacity="1" /><path clip-path="url(#clip040)" d="M1899.88 1367.54 L1909.65 1367.54 L1909.65 1379.3 L1899.88 1379.3 L1899.88 1367.54 Z" fill="#000000" fill-rule="nonzero" fill-opacity="1" /><path clip-path="url(#clip040)" d="M1950.02 1316.33 Q1942.8 1316.33 1939.14 1323.46 Q1935.53 1330.55 1935.53 1344.81 Q1935.53 1359.02 1939.14 1366.15 Q1942.8 1373.23 1950.02 1373.23 Q1957.29 1373.23 1960.9 1366.15 Q1964.56 1359.02 1964.56 1344.81 Q1964.56 1330.55 1960.9 1323.46 Q1957.29 1316.33 1950.02 1316.33 M1950.02 1308.93 Q1961.64 1308.93 1967.75 1318.14 Q1973.91 1327.31 1973.91 1344.81 Q1973.91 1362.26 1967.75 1371.47 Q1961.64 1380.64 1950.02 1380.64 Q1938.4 1380.64 1932.24 1371.47 Q1926.13 1362.26 1926.13 1344.81 Q1926.13 1327.31 1932.24 1318.14 Q1938.4 1308.93 1950.02 1308.93 Z" fill="#000000" fill-rule="nonzero" fill-opacity="1" /><path clip-path="url(#clip040)" d="M2077.96 1371.43 L2093.24 1371.43 L2093.24 1318.69 L2076.62 1322.03 L2076.62 1313.51 L2093.15 1310.18 L2102.5 1310.18 L2102.5 1371.43 L2117.78 1371.43 L2117.78 1379.3 L2077.96 1379.3 L2077.96 1371.43 Z" fill="#000000" fill-rule="nonzero" fill-opacity="1" /><path clip-path="url(#clip040)" d="M2136.66 1367.54 L2146.43 1367.54 L2146.43 1379.3 L2136.66 1379.3 L2136.66 1367.54 Z" fill="#000000" fill-rule="nonzero" fill-opacity="1" /><path clip-path="url(#clip040)" d="M2174.86 1371.43 L2207.5 1371.43 L2207.5 1379.3 L2163.61 1379.3 L2163.61 1371.43 Q2168.93 1365.92 2178.1 1356.66 Q2187.31 1347.35 2189.67 1344.67 Q2194.16 1339.62 2195.92 1336.15 Q2197.73 1332.63 2197.73 1329.25 Q2197.73 1323.74 2193.84 1320.27 Q2190 1316.8 2183.79 1316.8 Q2179.4 1316.8 2174.49 1318.32 Q2169.63 1319.85 2164.07 1322.95 L2164.07 1313.51 Q2169.72 1311.24 2174.63 1310.08 Q2179.53 1308.93 2183.61 1308.93 Q2194.35 1308.93 2200.74 1314.3 Q2207.13 1319.67 2207.13 1328.65 Q2207.13 1332.91 2205.51 1336.75 Q2203.93 1340.55 2199.72 1345.73 Q2198.56 1347.07 2192.36 1353.51 Q2186.15 1359.9 2174.86 1371.43 Z" fill="#000000" fill-rule="nonzero" fill-opacity="1" /><path clip-path="url(#clip040)" d="M1380.84 1484.39 L1380.84 1527.42 L1369.13 1527.42 L1369.13 1484.77 Q1369.13 1474.65 1365.18 1469.62 Q1361.23 1464.59 1353.34 1464.59 Q1343.86 1464.59 1338.38 1470.64 Q1332.91 1476.69 1332.91 1487.13 L1332.91 1527.42 L1321.13 1527.42 L1321.13 1428.37 L1332.91 1428.37 L1332.91 1467.2 Q1337.11 1460.77 1342.77 1457.59 Q1348.5 1454.41 1355.95 1454.41 Q1368.24 1454.41 1374.54 1462.05 Q1380.84 1469.62 1380.84 1484.39 Z" fill="#000000" fill-rule="nonzero" fill-opacity="1" /><path clip-path="url(#clip040)" d="M1431.83 1464.34 Q1422.41 1464.34 1416.93 1471.72 Q1411.46 1479.04 1411.46 1491.84 Q1411.46 1504.63 1416.87 1512.02 Q1422.34 1519.34 1431.83 1519.34 Q1441.19 1519.34 1446.66 1511.96 Q1452.14 1504.57 1452.14 1491.84 Q1452.14 1479.17 1446.66 1471.79 Q1441.19 1464.34 1431.83 1464.34 M1431.83 1454.41 Q1447.11 1454.41 1455.83 1464.34 Q1464.55 1474.27 1464.55 1491.84 Q1464.55 1509.35 1455.83 1519.34 Q1447.11 1529.27 1431.83 1529.27 Q1416.49 1529.27 1407.77 1519.34 Q1399.11 1509.35 1399.11 1491.84 Q1399.11 1474.27 1407.77 1464.34 Q1416.49 1454.41 1431.83 1454.41 Z" fill="#000000" fill-rule="nonzero" fill-opacity="1" /><path clip-path="url(#clip040)" d="M1482.76 1499.29 L1482.76 1456.13 L1494.47 1456.13 L1494.47 1498.84 Q1494.47 1508.96 1498.42 1514.06 Q1502.36 1519.08 1510.26 1519.08 Q1519.74 1519.08 1525.21 1513.04 Q1530.75 1506.99 1530.75 1496.55 L1530.75 1456.13 L1542.47 1456.13 L1542.47 1527.42 L1530.75 1527.42 L1530.75 1516.47 Q1526.49 1522.97 1520.82 1526.15 Q1515.22 1529.27 1507.77 1529.27 Q1495.49 1529.27 1489.12 1521.63 Q1482.76 1513.99 1482.76 1499.29 M1512.23 1454.41 L1512.23 1454.41 Z" fill="#000000" fill-rule="nonzero" fill-opacity="1" /><path clip-path="url(#clip040)" d="M1607.91 1467.08 Q1605.93 1465.93 1603.58 1465.42 Q1601.28 1464.85 1598.48 1464.85 Q1588.55 1464.85 1583.21 1471.34 Q1577.92 1477.77 1577.92 1489.87 L1577.92 1527.42 L1566.15 1527.42 L1566.15 1456.13 L1577.92 1456.13 L1577.92 1467.2 Q1581.61 1460.71 1587.53 1457.59 Q1593.46 1454.41 1601.92 1454.41 Q1603.13 1454.41 1604.6 1454.6 Q1606.06 1454.73 1607.84 1455.05 L1607.91 1467.08 Z" fill="#000000" fill-rule="nonzero" fill-opacity="1" /><path clip-path="url(#clip040)" d="M1665.64 1458.23 L1665.64 1469.3 Q1660.68 1466.76 1655.33 1465.49 Q1649.98 1464.21 1644.25 1464.21 Q1635.53 1464.21 1631.14 1466.89 Q1626.81 1469.56 1626.81 1474.91 Q1626.81 1478.98 1629.93 1481.34 Q1633.05 1483.63 1642.47 1485.73 L1646.48 1486.62 Q1658.96 1489.29 1664.18 1494.19 Q1669.46 1499.03 1669.46 1507.75 Q1669.46 1517.68 1661.57 1523.48 Q1653.74 1529.27 1639.99 1529.27 Q1634.26 1529.27 1628.02 1528.12 Q1621.85 1527.04 1614.97 1524.81 L1614.97 1512.72 Q1621.46 1516.09 1627.77 1517.81 Q1634.07 1519.47 1640.24 1519.47 Q1648.52 1519.47 1652.97 1516.67 Q1657.43 1513.8 1657.43 1508.64 Q1657.43 1503.87 1654.18 1501.32 Q1651 1498.78 1640.12 1496.42 L1636.04 1495.47 Q1625.16 1493.18 1620.32 1488.47 Q1615.48 1483.69 1615.48 1475.42 Q1615.48 1465.36 1622.61 1459.88 Q1629.74 1454.41 1642.85 1454.41 Q1649.35 1454.41 1655.08 1455.36 Q1660.8 1456.32 1665.64 1458.23 Z" fill="#000000" fill-rule="nonzero" fill-opacity="1" /><polyline clip-path="url(#clip042)" style="stroke:#000000; stroke-linecap:round; stroke-linejoin:round; stroke-width:4; stroke-opacity:0.1; fill:none" points="685.08,1142.33 2305.51,1142.33 "/>
<polyline clip-path="url(#clip042)" style="stroke:#000000; stroke-linecap:round; stroke-linejoin:round; stroke-width:4; stroke-opacity:0.1; fill:none" points="685.08,971.593 2305.51,971.593 "/>
<polyline clip-path="url(#clip042)" style="stroke:#000000; stroke-linecap:round; stroke-linejoin:round; stroke-width:4; stroke-opacity:0.1; fill:none" points="685.08,800.857 2305.51,800.857 "/>
<polyline clip-path="url(#clip042)" style="stroke:#000000; stroke-linecap:round; stroke-linejoin:round; stroke-width:4; stroke-opacity:0.1; fill:none" points="685.08,630.122 2305.51,630.122 "/>
<polyline clip-path="url(#clip042)" style="stroke:#000000; stroke-linecap:round; stroke-linejoin:round; stroke-width:4; stroke-opacity:0.1; fill:none" points="685.08,459.387 2305.51,459.387 "/>
<polyline clip-path="url(#clip042)" style="stroke:#000000; stroke-linecap:round; stroke-linejoin:round; stroke-width:4; stroke-opacity:0.1; fill:none" points="685.08,288.651 2305.51,288.651 "/>
<polyline clip-path="url(#clip042)" style="stroke:#000000; stroke-linecap:round; stroke-linejoin:round; stroke-width:4; stroke-opacity:0.1; fill:none" points="685.08,117.916 2305.51,117.916 "/>
<polyline clip-path="url(#clip040)" style="stroke:#000000; stroke-linecap:round; stroke-linejoin:round; stroke-width:8; stroke-opacity:1; fill:none" points="685.08,1273.7 685.08,94.4882 "/>
<polyline clip-path="url(#clip040)" style="stroke:#000000; stroke-linecap:round; stroke-linejoin:round; stroke-width:8; stroke-opacity:1; fill:none" points="685.08,1142.33 703.978,1142.33 "/>
<polyline clip-path="url(#clip040)" style="stroke:#000000; stroke-linecap:round; stroke-linejoin:round; stroke-width:8; stroke-opacity:1; fill:none" points="685.08,971.593 703.978,971.593 "/>
<polyline clip-path="url(#clip040)" style="stroke:#000000; stroke-linecap:round; stroke-linejoin:round; stroke-width:8; stroke-opacity:1; fill:none" points="685.08,800.857 703.978,800.857 "/>
<polyline clip-path="url(#clip040)" style="stroke:#000000; stroke-linecap:round; stroke-linejoin:round; stroke-width:8; stroke-opacity:1; fill:none" points="685.08,630.122 703.978,630.122 "/>
<polyline clip-path="url(#clip040)" style="stroke:#000000; stroke-linecap:round; stroke-linejoin:round; stroke-width:8; stroke-opacity:1; fill:none" points="685.08,459.387 703.978,459.387 "/>
<polyline clip-path="url(#clip040)" style="stroke:#000000; stroke-linecap:round; stroke-linejoin:round; stroke-width:8; stroke-opacity:1; fill:none" points="685.08,288.651 703.978,288.651 "/>
<polyline clip-path="url(#clip040)" style="stroke:#000000; stroke-linecap:round; stroke-linejoin:round; stroke-width:8; stroke-opacity:1; fill:none" points="685.08,117.916 703.978,117.916 "/>
<path clip-path="url(#clip040)" d="M395.702 1169.02 L410.979 1169.02 L410.979 1116.29 L394.359 1119.62 L394.359 1111.1 L410.887 1107.77 L420.239 1107.77 L420.239 1169.02 L435.516 1169.02 L435.516 1176.89 L395.702 1176.89 L395.702 1169.02 Z" fill="#000000" fill-rule="nonzero" fill-opacity="1" /><path clip-path="url(#clip040)" d="M474.405 1113.93 Q467.183 1113.93 463.525 1121.06 Q459.914 1128.14 459.914 1142.4 Q459.914 1156.61 463.525 1163.74 Q467.183 1170.82 474.405 1170.82 Q481.673 1170.82 485.285 1163.74 Q488.942 1156.61 488.942 1142.4 Q488.942 1128.14 485.285 1121.06 Q481.673 1113.93 474.405 1113.93 M474.405 1106.52 Q486.025 1106.52 492.136 1115.73 Q498.294 1124.9 498.294 1142.4 Q498.294 1159.85 492.136 1169.06 Q486.025 1178.23 474.405 1178.23 Q462.785 1178.23 456.627 1169.06 Q450.516 1159.85 450.516 1142.4 Q450.516 1124.9 456.627 1115.73 Q462.785 1106.52 474.405 1106.52 Z" fill="#000000" fill-rule="nonzero" fill-opacity="1" /><path clip-path="url(#clip040)" d="M534.729 1113.93 Q527.507 1113.93 523.849 1121.06 Q520.238 1128.14 520.238 1142.4 Q520.238 1156.61 523.849 1163.74 Q527.507 1170.82 534.729 1170.82 Q541.997 1170.82 545.608 1163.74 Q549.266 1156.61 549.266 1142.4 Q549.266 1128.14 545.608 1121.06 Q541.997 1113.93 534.729 1113.93 M534.729 1106.52 Q546.349 1106.52 552.46 1115.73 Q558.618 1124.9 558.618 1142.4 Q558.618 1159.85 552.46 1169.06 Q546.349 1178.23 534.729 1178.23 Q523.108 1178.23 516.951 1169.06 Q510.84 1159.85 510.84 1142.4 Q510.84 1124.9 516.951 1115.73 Q523.108 1106.52 534.729 1106.52 Z" fill="#000000" fill-rule="nonzero" fill-opacity="1" /><path clip-path="url(#clip040)" d="M575.053 1165.13 L584.821 1165.13 L584.821 1176.89 L575.053 1176.89 L575.053 1165.13 Z" fill="#000000" fill-rule="nonzero" fill-opacity="1" /><path clip-path="url(#clip040)" d="M625.191 1113.93 Q617.969 1113.93 614.312 1121.06 Q610.701 1128.14 610.701 1142.4 Q610.701 1156.61 614.312 1163.74 Q617.969 1170.82 625.191 1170.82 Q632.46 1170.82 636.071 1163.74 Q639.728 1156.61 639.728 1142.4 Q639.728 1128.14 636.071 1121.06 Q632.46 1113.93 625.191 1113.93 M625.191 1106.52 Q636.812 1106.52 642.923 1115.73 Q649.08 1124.9 649.08 1142.4 Q649.08 1159.85 642.923 1169.06 Q636.812 1178.23 625.191 1178.23 Q613.571 1178.23 607.414 1169.06 Q601.302 1159.85 601.302 1142.4 Q601.302 1124.9 607.414 1115.73 Q613.571 1106.52 625.191 1106.52 Z" fill="#000000" fill-rule="nonzero" fill-opacity="1" /><path clip-path="url(#clip040)" d="M402.137 998.282 L434.776 998.282 L434.776 1006.15 L390.887 1006.15 L390.887 998.282 Q396.211 992.773 405.378 983.514 Q414.59 974.208 416.952 971.523 Q421.442 966.477 423.202 963.005 Q425.007 959.486 425.007 956.107 Q425.007 950.597 421.118 947.125 Q417.276 943.653 411.072 943.653 Q406.674 943.653 401.766 945.181 Q396.905 946.709 391.35 949.81 L391.35 940.366 Q396.998 938.098 401.905 936.94 Q406.813 935.783 410.887 935.783 Q421.627 935.783 428.016 941.153 Q434.405 946.523 434.405 955.505 Q434.405 959.764 432.785 963.607 Q431.211 967.403 426.998 972.588 Q425.84 973.931 419.637 980.366 Q413.433 986.755 402.137 998.282 Z" fill="#000000" fill-rule="nonzero" fill-opacity="1" /><path clip-path="url(#clip040)" d="M474.405 943.19 Q467.183 943.19 463.525 950.32 Q459.914 957.403 459.914 971.662 Q459.914 985.875 463.525 993.005 Q467.183 1000.09 474.405 1000.09 Q481.673 1000.09 485.285 993.005 Q488.942 985.875 488.942 971.662 Q488.942 957.403 485.285 950.32 Q481.673 943.19 474.405 943.19 M474.405 935.783 Q486.025 935.783 492.136 944.996 Q498.294 954.162 498.294 971.662 Q498.294 989.116 492.136 998.329 Q486.025 1007.5 474.405 1007.5 Q462.785 1007.5 456.627 998.329 Q450.516 989.116 450.516 971.662 Q450.516 954.162 456.627 944.996 Q462.785 935.783 474.405 935.783 Z" fill="#000000" fill-rule="nonzero" fill-opacity="1" /><path clip-path="url(#clip040)" d="M534.729 943.19 Q527.507 943.19 523.849 950.32 Q520.238 957.403 520.238 971.662 Q520.238 985.875 523.849 993.005 Q527.507 1000.09 534.729 1000.09 Q541.997 1000.09 545.608 993.005 Q549.266 985.875 549.266 971.662 Q549.266 957.403 545.608 950.32 Q541.997 943.19 534.729 943.19 M534.729 935.783 Q546.349 935.783 552.46 944.996 Q558.618 954.162 558.618 971.662 Q558.618 989.116 552.46 998.329 Q546.349 1007.5 534.729 1007.5 Q523.108 1007.5 516.951 998.329 Q510.84 989.116 510.84 971.662 Q510.84 954.162 516.951 944.996 Q523.108 935.783 534.729 935.783 Z" fill="#000000" fill-rule="nonzero" fill-opacity="1" /><path clip-path="url(#clip040)" d="M575.053 994.394 L584.821 994.394 L584.821 1006.15 L575.053 1006.15 L575.053 994.394 Z" fill="#000000" fill-rule="nonzero" fill-opacity="1" /><path clip-path="url(#clip040)" d="M625.191 943.19 Q617.969 943.19 614.312 950.32 Q610.701 957.403 610.701 971.662 Q610.701 985.875 614.312 993.005 Q617.969 1000.09 625.191 1000.09 Q632.46 1000.09 636.071 993.005 Q639.728 985.875 639.728 971.662 Q639.728 957.403 636.071 950.32 Q632.46 943.19 625.191 943.19 M625.191 935.783 Q636.812 935.783 642.923 944.996 Q649.08 954.162 649.08 971.662 Q649.08 989.116 642.923 998.329 Q636.812 1007.5 625.191 1007.5 Q613.571 1007.5 607.414 998.329 Q601.302 989.116 601.302 971.662 Q601.302 954.162 607.414 944.996 Q613.571 935.783 625.191 935.783 Z" fill="#000000" fill-rule="nonzero" fill-opacity="1" /><path clip-path="url(#clip040)" d="M422.415 798.149 Q429.127 799.584 432.877 804.121 Q436.674 808.658 436.674 815.325 Q436.674 825.556 429.637 831.158 Q422.6 836.76 409.637 836.76 Q405.285 836.76 400.655 835.88 Q396.072 835.047 391.165 833.334 L391.165 824.306 Q395.054 826.575 399.683 827.732 Q404.313 828.89 409.359 828.89 Q418.155 828.89 422.739 825.417 Q427.368 821.945 427.368 815.325 Q427.368 809.214 423.063 805.788 Q418.803 802.316 411.165 802.316 L403.109 802.316 L403.109 794.631 L411.535 794.631 Q418.433 794.631 422.09 791.899 Q425.748 789.121 425.748 783.936 Q425.748 778.612 421.952 775.788 Q418.202 772.918 411.165 772.918 Q407.322 772.918 402.924 773.751 Q398.526 774.584 393.248 776.344 L393.248 768.01 Q398.572 766.529 403.202 765.788 Q407.878 765.047 411.998 765.047 Q422.646 765.047 428.85 769.908 Q435.053 774.723 435.053 782.964 Q435.053 788.705 431.766 792.686 Q428.479 796.621 422.415 798.149 Z" fill="#000000" fill-rule="nonzero" fill-opacity="1" /><path clip-path="url(#clip040)" d="M474.405 772.455 Q467.183 772.455 463.525 779.584 Q459.914 786.668 459.914 800.927 Q459.914 815.14 463.525 822.269 Q467.183 829.353 474.405 829.353 Q481.673 829.353 485.285 822.269 Q488.942 815.14 488.942 800.927 Q488.942 786.668 485.285 779.584 Q481.673 772.455 474.405 772.455 M474.405 765.047 Q486.025 765.047 492.136 774.26 Q498.294 783.427 498.294 800.927 Q498.294 818.38 492.136 827.593 Q486.025 836.76 474.405 836.76 Q462.785 836.76 456.627 827.593 Q450.516 818.38 450.516 800.927 Q450.516 783.427 456.627 774.26 Q462.785 765.047 474.405 765.047 Z" fill="#000000" fill-rule="nonzero" fill-opacity="1" /><path clip-path="url(#clip040)" d="M534.729 772.455 Q527.507 772.455 523.849 779.584 Q520.238 786.668 520.238 800.927 Q520.238 815.14 523.849 822.269 Q527.507 829.353 534.729 829.353 Q541.997 829.353 545.608 822.269 Q549.266 815.14 549.266 800.927 Q549.266 786.668 545.608 779.584 Q541.997 772.455 534.729 772.455 M534.729 765.047 Q546.349 765.047 552.46 774.26 Q558.618 783.427 558.618 800.927 Q558.618 818.38 552.46 827.593 Q546.349 836.76 534.729 836.76 Q523.108 836.76 516.951 827.593 Q510.84 818.38 510.84 800.927 Q510.84 783.427 516.951 774.26 Q523.108 765.047 534.729 765.047 Z" fill="#000000" fill-rule="nonzero" fill-opacity="1" /><path clip-path="url(#clip040)" d="M575.053 823.658 L584.821 823.658 L584.821 835.417 L575.053 835.417 L575.053 823.658 Z" fill="#000000" fill-rule="nonzero" fill-opacity="1" /><path clip-path="url(#clip040)" d="M625.191 772.455 Q617.969 772.455 614.312 779.584 Q610.701 786.668 610.701 800.927 Q610.701 815.14 614.312 822.269 Q617.969 829.353 625.191 829.353 Q632.46 829.353 636.071 822.269 Q639.728 815.14 639.728 800.927 Q639.728 786.668 636.071 779.584 Q632.46 772.455 625.191 772.455 M625.191 765.047 Q636.812 765.047 642.923 774.26 Q649.08 783.427 649.08 800.927 Q649.08 818.38 642.923 827.593 Q636.812 836.76 625.191 836.76 Q613.571 836.76 607.414 827.593 Q601.302 818.38 601.302 800.927 Q601.302 783.427 607.414 774.26 Q613.571 765.047 625.191 765.047 Z" fill="#000000" fill-rule="nonzero" fill-opacity="1" /><path clip-path="url(#clip040)" d="M419.776 603.71 L396.165 640.608 L419.776 640.608 L419.776 603.71 M417.322 595.562 L429.081 595.562 L429.081 640.608 L438.942 640.608 L438.942 648.386 L429.081 648.386 L429.081 664.682 L419.776 664.682 L419.776 648.386 L388.572 648.386 L388.572 639.358 L417.322 595.562 Z" fill="#000000" fill-rule="nonzero" fill-opacity="1" /><path clip-path="url(#clip040)" d="M474.405 601.719 Q467.183 601.719 463.525 608.849 Q459.914 615.932 459.914 630.191 Q459.914 644.404 463.525 651.534 Q467.183 658.617 474.405 658.617 Q481.673 658.617 485.285 651.534 Q488.942 644.404 488.942 630.191 Q488.942 615.932 485.285 608.849 Q481.673 601.719 474.405 601.719 M474.405 594.312 Q486.025 594.312 492.136 603.525 Q498.294 612.692 498.294 630.191 Q498.294 647.645 492.136 656.858 Q486.025 666.025 474.405 666.025 Q462.785 666.025 456.627 656.858 Q450.516 647.645 450.516 630.191 Q450.516 612.692 456.627 603.525 Q462.785 594.312 474.405 594.312 Z" fill="#000000" fill-rule="nonzero" fill-opacity="1" /><path clip-path="url(#clip040)" d="M534.729 601.719 Q527.507 601.719 523.849 608.849 Q520.238 615.932 520.238 630.191 Q520.238 644.404 523.849 651.534 Q527.507 658.617 534.729 658.617 Q541.997 658.617 545.608 651.534 Q549.266 644.404 549.266 630.191 Q549.266 615.932 545.608 608.849 Q541.997 601.719 534.729 601.719 M534.729 594.312 Q546.349 594.312 552.46 603.525 Q558.618 612.692 558.618 630.191 Q558.618 647.645 552.46 656.858 Q546.349 666.025 534.729 666.025 Q523.108 666.025 516.951 656.858 Q510.84 647.645 510.84 630.191 Q510.84 612.692 516.951 603.525 Q523.108 594.312 534.729 594.312 Z" fill="#000000" fill-rule="nonzero" fill-opacity="1" /><path clip-path="url(#clip040)" d="M575.053 652.923 L584.821 652.923 L584.821 664.682 L575.053 664.682 L575.053 652.923 Z" fill="#000000" fill-rule="nonzero" fill-opacity="1" /><path clip-path="url(#clip040)" d="M625.191 601.719 Q617.969 601.719 614.312 608.849 Q610.701 615.932 610.701 630.191 Q610.701 644.404 614.312 651.534 Q617.969 658.617 625.191 658.617 Q632.46 658.617 636.071 651.534 Q639.728 644.404 639.728 630.191 Q639.728 615.932 636.071 608.849 Q632.46 601.719 625.191 601.719 M625.191 594.312 Q636.812 594.312 642.923 603.525 Q649.08 612.692 649.08 630.191 Q649.08 647.645 642.923 656.858 Q636.812 666.025 625.191 666.025 Q613.571 666.025 607.414 656.858 Q601.302 647.645 601.302 630.191 Q601.302 612.692 607.414 603.525 Q613.571 594.312 625.191 594.312 Z" fill="#000000" fill-rule="nonzero" fill-opacity="1" /><path clip-path="url(#clip040)" d="M394.174 424.827 L430.887 424.827 L430.887 432.697 L402.739 432.697 L402.739 449.641 Q404.776 448.947 406.813 448.623 Q408.85 448.252 410.887 448.252 Q422.461 448.252 429.22 454.595 Q435.979 460.938 435.979 471.771 Q435.979 482.928 429.035 489.132 Q422.09 495.289 409.452 495.289 Q405.1 495.289 400.563 494.549 Q396.072 493.808 391.257 492.326 L391.257 482.928 Q395.424 485.197 399.868 486.308 Q404.313 487.419 409.266 487.419 Q417.276 487.419 421.952 483.206 Q426.627 478.993 426.627 471.771 Q426.627 464.549 421.952 460.336 Q417.276 456.123 409.266 456.123 Q405.516 456.123 401.766 456.956 Q398.063 457.789 394.174 459.549 L394.174 424.827 Z" fill="#000000" fill-rule="nonzero" fill-opacity="1" /><path clip-path="url(#clip040)" d="M474.405 430.984 Q467.183 430.984 463.525 438.114 Q459.914 445.197 459.914 459.456 Q459.914 473.669 463.525 480.799 Q467.183 487.882 474.405 487.882 Q481.673 487.882 485.285 480.799 Q488.942 473.669 488.942 459.456 Q488.942 445.197 485.285 438.114 Q481.673 430.984 474.405 430.984 M474.405 423.577 Q486.025 423.577 492.136 432.79 Q498.294 441.956 498.294 459.456 Q498.294 476.91 492.136 486.123 Q486.025 495.289 474.405 495.289 Q462.785 495.289 456.627 486.123 Q450.516 476.91 450.516 459.456 Q450.516 441.956 456.627 432.79 Q462.785 423.577 474.405 423.577 Z" fill="#000000" fill-rule="nonzero" fill-opacity="1" /><path clip-path="url(#clip040)" d="M534.729 430.984 Q527.507 430.984 523.849 438.114 Q520.238 445.197 520.238 459.456 Q520.238 473.669 523.849 480.799 Q527.507 487.882 534.729 487.882 Q541.997 487.882 545.608 480.799 Q549.266 473.669 549.266 459.456 Q549.266 445.197 545.608 438.114 Q541.997 430.984 534.729 430.984 M534.729 423.577 Q546.349 423.577 552.46 432.79 Q558.618 441.956 558.618 459.456 Q558.618 476.91 552.46 486.123 Q546.349 495.289 534.729 495.289 Q523.108 495.289 516.951 486.123 Q510.84 476.91 510.84 459.456 Q510.84 441.956 516.951 432.79 Q523.108 423.577 534.729 423.577 Z" fill="#000000" fill-rule="nonzero" fill-opacity="1" /><path clip-path="url(#clip040)" d="M575.053 482.187 L584.821 482.187 L584.821 493.947 L575.053 493.947 L575.053 482.187 Z" fill="#000000" fill-rule="nonzero" fill-opacity="1" /><path clip-path="url(#clip040)" d="M625.191 430.984 Q617.969 430.984 614.312 438.114 Q610.701 445.197 610.701 459.456 Q610.701 473.669 614.312 480.799 Q617.969 487.882 625.191 487.882 Q632.46 487.882 636.071 480.799 Q639.728 473.669 639.728 459.456 Q639.728 445.197 636.071 438.114 Q632.46 430.984 625.191 430.984 M625.191 423.577 Q636.812 423.577 642.923 432.79 Q649.08 441.956 649.08 459.456 Q649.08 476.91 642.923 486.123 Q636.812 495.289 625.191 495.289 Q613.571 495.289 607.414 486.123 Q601.302 476.91 601.302 459.456 Q601.302 441.956 607.414 432.79 Q613.571 423.577 625.191 423.577 Z" fill="#000000" fill-rule="nonzero" fill-opacity="1" /><path clip-path="url(#clip040)" d="M415.239 284.924 Q408.942 284.924 405.239 289.23 Q401.581 293.536 401.581 301.036 Q401.581 308.489 405.239 312.841 Q408.942 317.147 415.239 317.147 Q421.535 317.147 425.192 312.841 Q428.896 308.489 428.896 301.036 Q428.896 293.536 425.192 289.23 Q421.535 284.924 415.239 284.924 M433.803 255.619 L433.803 264.138 Q430.285 262.471 426.674 261.591 Q423.109 260.712 419.59 260.712 Q410.331 260.712 405.424 266.962 Q400.563 273.212 399.868 285.85 Q402.6 281.823 406.72 279.693 Q410.841 277.517 415.794 277.517 Q426.211 277.517 432.229 283.86 Q438.294 290.156 438.294 301.036 Q438.294 311.684 431.998 318.119 Q425.702 324.554 415.239 324.554 Q403.248 324.554 396.905 315.387 Q390.563 306.174 390.563 288.721 Q390.563 272.332 398.341 262.61 Q406.118 252.841 419.22 252.841 Q422.739 252.841 426.303 253.536 Q429.914 254.23 433.803 255.619 Z" fill="#000000" fill-rule="nonzero" fill-opacity="1" /><path clip-path="url(#clip040)" d="M474.405 260.249 Q467.183 260.249 463.525 267.378 Q459.914 274.462 459.914 288.721 Q459.914 302.934 463.525 310.063 Q467.183 317.147 474.405 317.147 Q481.673 317.147 485.285 310.063 Q488.942 302.934 488.942 288.721 Q488.942 274.462 485.285 267.378 Q481.673 260.249 474.405 260.249 M474.405 252.841 Q486.025 252.841 492.136 262.054 Q498.294 271.221 498.294 288.721 Q498.294 306.174 492.136 315.387 Q486.025 324.554 474.405 324.554 Q462.785 324.554 456.627 315.387 Q450.516 306.174 450.516 288.721 Q450.516 271.221 456.627 262.054 Q462.785 252.841 474.405 252.841 Z" fill="#000000" fill-rule="nonzero" fill-opacity="1" /><path clip-path="url(#clip040)" d="M534.729 260.249 Q527.507 260.249 523.849 267.378 Q520.238 274.462 520.238 288.721 Q520.238 302.934 523.849 310.063 Q527.507 317.147 534.729 317.147 Q541.997 317.147 545.608 310.063 Q549.266 302.934 549.266 288.721 Q549.266 274.462 545.608 267.378 Q541.997 260.249 534.729 260.249 M534.729 252.841 Q546.349 252.841 552.46 262.054 Q558.618 271.221 558.618 288.721 Q558.618 306.174 552.46 315.387 Q546.349 324.554 534.729 324.554 Q523.108 324.554 516.951 315.387 Q510.84 306.174 510.84 288.721 Q510.84 271.221 516.951 262.054 Q523.108 252.841 534.729 252.841 Z" fill="#000000" fill-rule="nonzero" fill-opacity="1" /><path clip-path="url(#clip040)" d="M575.053 311.452 L584.821 311.452 L584.821 323.211 L575.053 323.211 L575.053 311.452 Z" fill="#000000" fill-rule="nonzero" fill-opacity="1" /><path clip-path="url(#clip040)" d="M625.191 260.249 Q617.969 260.249 614.312 267.378 Q610.701 274.462 610.701 288.721 Q610.701 302.934 614.312 310.063 Q617.969 317.147 625.191 317.147 Q632.46 317.147 636.071 310.063 Q639.728 302.934 639.728 288.721 Q639.728 274.462 636.071 267.378 Q632.46 260.249 625.191 260.249 M625.191 252.841 Q636.812 252.841 642.923 262.054 Q649.08 271.221 649.08 288.721 Q649.08 306.174 642.923 315.387 Q636.812 324.554 625.191 324.554 Q613.571 324.554 607.414 315.387 Q601.302 306.174 601.302 288.721 Q601.302 271.221 607.414 262.054 Q613.571 252.841 625.191 252.841 Z" fill="#000000" fill-rule="nonzero" fill-opacity="1" /><path clip-path="url(#clip040)" d="M391.72 83.356 L436.164 83.356 L436.164 87.3374 L411.072 152.476 L401.304 152.476 L424.915 91.2263 L391.72 91.2263 L391.72 83.356 Z" fill="#000000" fill-rule="nonzero" fill-opacity="1" /><path clip-path="url(#clip040)" d="M474.405 89.5133 Q467.183 89.5133 463.525 96.6429 Q459.914 103.726 459.914 117.985 Q459.914 132.198 463.525 139.328 Q467.183 146.411 474.405 146.411 Q481.673 146.411 485.285 139.328 Q488.942 132.198 488.942 117.985 Q488.942 103.726 485.285 96.6429 Q481.673 89.5133 474.405 89.5133 M474.405 82.106 Q486.025 82.106 492.136 91.3189 Q498.294 100.486 498.294 117.985 Q498.294 135.439 492.136 144.652 Q486.025 153.819 474.405 153.819 Q462.785 153.819 456.627 144.652 Q450.516 135.439 450.516 117.985 Q450.516 100.486 456.627 91.3189 Q462.785 82.106 474.405 82.106 Z" fill="#000000" fill-rule="nonzero" fill-opacity="1" /><path clip-path="url(#clip040)" d="M534.729 89.5133 Q527.507 89.5133 523.849 96.6429 Q520.238 103.726 520.238 117.985 Q520.238 132.198 523.849 139.328 Q527.507 146.411 534.729 146.411 Q541.997 146.411 545.608 139.328 Q549.266 132.198 549.266 117.985 Q549.266 103.726 545.608 96.6429 Q541.997 89.5133 534.729 89.5133 M534.729 82.106 Q546.349 82.106 552.46 91.3189 Q558.618 100.486 558.618 117.985 Q558.618 135.439 552.46 144.652 Q546.349 153.819 534.729 153.819 Q523.108 153.819 516.951 144.652 Q510.84 135.439 510.84 117.985 Q510.84 100.486 516.951 91.3189 Q523.108 82.106 534.729 82.106 Z" fill="#000000" fill-rule="nonzero" fill-opacity="1" /><path clip-path="url(#clip040)" d="M575.053 140.717 L584.821 140.717 L584.821 152.476 L575.053 152.476 L575.053 140.717 Z" fill="#000000" fill-rule="nonzero" fill-opacity="1" /><path clip-path="url(#clip040)" d="M625.191 89.5133 Q617.969 89.5133 614.312 96.6429 Q610.701 103.726 610.701 117.985 Q610.701 132.198 614.312 139.328 Q617.969 146.411 625.191 146.411 Q632.46 146.411 636.071 139.328 Q639.728 132.198 639.728 117.985 Q639.728 103.726 636.071 96.6429 Q632.46 89.5133 625.191 89.5133 M625.191 82.106 Q636.812 82.106 642.923 91.3189 Q649.08 100.486 649.08 117.985 Q649.08 135.439 642.923 144.652 Q636.812 153.819 625.191 153.819 Q613.571 153.819 607.414 144.652 Q601.302 135.439 601.302 117.985 Q601.302 100.486 607.414 91.3189 Q613.571 82.106 625.191 82.106 Z" fill="#000000" fill-rule="nonzero" fill-opacity="1" /><path clip-path="url(#clip040)" d="M255.501 913.798 L266.45 913.798 Q263.713 918.764 262.376 923.793 Q260.976 928.758 260.976 933.85 Q260.976 945.245 268.233 951.547 Q275.426 957.849 288.476 957.849 Q301.526 957.849 308.782 951.547 Q315.976 945.245 315.976 933.85 Q315.976 928.758 314.639 923.793 Q313.238 918.764 310.501 913.798 L321.323 913.798 Q323.615 918.7 324.76 923.984 Q325.906 929.204 325.906 935.124 Q325.906 951.229 315.785 960.714 Q305.663 970.199 288.476 970.199 Q271.034 970.199 261.04 960.65 Q251.045 951.038 251.045 934.36 Q251.045 928.949 252.191 923.793 Q253.273 918.636 255.501 913.798 Z" fill="#000000" fill-rule="nonzero" fill-opacity="1" /><path clip-path="url(#clip040)" d="M260.976 865.801 Q260.976 875.222 268.36 880.697 Q275.681 886.171 288.476 886.171 Q301.271 886.171 308.655 880.76 Q315.976 875.286 315.976 865.801 Q315.976 856.443 308.591 850.969 Q301.207 845.494 288.476 845.494 Q275.808 845.494 268.424 850.969 Q260.976 856.443 260.976 865.801 M251.045 865.801 Q251.045 850.523 260.976 841.802 Q270.906 833.081 288.476 833.081 Q305.982 833.081 315.976 841.802 Q325.906 850.523 325.906 865.801 Q325.906 881.142 315.976 889.863 Q305.982 898.521 288.476 898.521 Q270.906 898.521 260.976 889.863 Q251.045 881.142 251.045 865.801 Z" fill="#000000" fill-rule="nonzero" fill-opacity="1" /><path clip-path="url(#clip040)" d="M281.028 754.401 L324.06 754.401 L324.06 766.114 L281.41 766.114 Q271.288 766.114 266.259 770.061 Q261.231 774.008 261.231 781.901 Q261.231 791.386 267.278 796.86 Q273.325 802.335 283.765 802.335 L324.06 802.335 L324.06 814.112 L252.764 814.112 L252.764 802.335 L263.841 802.335 Q257.411 798.134 254.228 792.468 Q251.045 786.739 251.045 779.291 Q251.045 767.005 258.684 760.703 Q266.259 754.401 281.028 754.401 Z" fill="#000000" fill-rule="nonzero" fill-opacity="1" /><path clip-path="url(#clip040)" d="M255.501 679.731 L266.45 679.731 Q263.713 684.697 262.376 689.726 Q260.976 694.691 260.976 699.783 Q260.976 711.178 268.233 717.48 Q275.426 723.782 288.476 723.782 Q301.526 723.782 308.782 717.48 Q315.976 711.178 315.976 699.783 Q315.976 694.691 314.639 689.726 Q313.238 684.697 310.501 679.731 L321.323 679.731 Q323.615 684.633 324.76 689.917 Q325.906 695.136 325.906 701.057 Q325.906 717.162 315.785 726.647 Q305.663 736.132 288.476 736.132 Q271.034 736.132 261.04 726.583 Q251.045 716.971 251.045 700.293 Q251.045 694.882 252.191 689.726 Q253.273 684.569 255.501 679.731 Z" fill="#000000" fill-rule="nonzero" fill-opacity="1" /><path clip-path="url(#clip040)" d="M307.891 657.706 L307.891 644.274 L324.06 644.274 L324.06 657.706 L307.891 657.706 Z" fill="#000000" fill-rule="nonzero" fill-opacity="1" /><path clip-path="url(#clip040)" d="M236.341 504.802 L249.9 504.802 Q243.852 511.295 240.86 518.679 Q237.868 526 237.868 534.275 Q237.868 550.571 247.863 559.229 Q257.793 567.886 276.636 567.886 Q295.414 567.886 305.409 559.229 Q315.339 550.571 315.339 534.275 Q315.339 526 312.347 518.679 Q309.355 511.295 303.308 504.802 L316.74 504.802 Q321.323 511.549 323.615 519.125 Q325.906 526.636 325.906 535.039 Q325.906 556.619 312.729 569.032 Q299.488 581.445 276.636 581.445 Q253.719 581.445 240.542 569.032 Q227.301 556.619 227.301 535.039 Q227.301 526.509 229.593 518.997 Q231.821 511.422 236.341 504.802 Z" fill="#000000" fill-rule="nonzero" fill-opacity="1" /><path clip-path="url(#clip040)" d="M229.02 484.941 L229.02 465.78 L293.696 441.527 L229.02 417.146 L229.02 397.985 L324.06 397.985 L324.06 410.526 L240.606 410.526 L305.791 435.034 L305.791 447.956 L240.606 472.464 L324.06 472.464 L324.06 484.941 L229.02 484.941 Z" fill="#000000" fill-rule="nonzero" fill-opacity="1" /><polyline clip-path="url(#clip042)" style="stroke:#008000; stroke-linecap:round; stroke-linejoin:round; stroke-width:8; stroke-opacity:1; fill:none" points="730.941,1176.8 848.534,1180.77 966.127,1176.29 1083.72,1185.77 1201.31,1161.12 1318.91,1174.22 1436.5,1143.45 1554.09,1149.83 1671.69,1142.33 1789.28,1169.99 1906.87,1240.32 2024.46,1214.47 2142.06,1227.48 2259.65,1231.1 "/>
<circle clip-path="url(#clip042)" cx="730.941" cy="1176.8" r="14.4" fill="#008000" fill-rule="evenodd" fill-opacity="1" stroke="#000000" stroke-opacity="1" stroke-width="6.4"/>
<circle clip-path="url(#clip042)" cx="848.534" cy="1180.77" r="14.4" fill="#008000" fill-rule="evenodd" fill-opacity="1" stroke="#000000" stroke-opacity="1" stroke-width="6.4"/>
<circle clip-path="url(#clip042)" cx="966.127" cy="1176.29" r="14.4" fill="#008000" fill-rule="evenodd" fill-opacity="1" stroke="#000000" stroke-opacity="1" stroke-width="6.4"/>
<circle clip-path="url(#clip042)" cx="1083.72" cy="1185.77" r="14.4" fill="#008000" fill-rule="evenodd" fill-opacity="1" stroke="#000000" stroke-opacity="1" stroke-width="6.4"/>
<circle clip-path="url(#clip042)" cx="1201.31" cy="1161.12" r="14.4" fill="#008000" fill-rule="evenodd" fill-opacity="1" stroke="#000000" stroke-opacity="1" stroke-width="6.4"/>
<circle clip-path="url(#clip042)" cx="1318.91" cy="1174.22" r="14.4" fill="#008000" fill-rule="evenodd" fill-opacity="1" stroke="#000000" stroke-opacity="1" stroke-width="6.4"/>
<circle clip-path="url(#clip042)" cx="1436.5" cy="1143.45" r="14.4" fill="#008000" fill-rule="evenodd" fill-opacity="1" stroke="#000000" stroke-opacity="1" stroke-width="6.4"/>
<circle clip-path="url(#clip042)" cx="1554.09" cy="1149.83" r="14.4" fill="#008000" fill-rule="evenodd" fill-opacity="1" stroke="#000000" stroke-opacity="1" stroke-width="6.4"/>
<circle clip-path="url(#clip042)" cx="1671.69" cy="1142.33" r="14.4" fill="#008000" fill-rule="evenodd" fill-opacity="1" stroke="#000000" stroke-opacity="1" stroke-width="6.4"/>
<circle clip-path="url(#clip042)" cx="1789.28" cy="1169.99" r="14.4" fill="#008000" fill-rule="evenodd" fill-opacity="1" stroke="#000000" stroke-opacity="1" stroke-width="6.4"/>
<circle clip-path="url(#clip042)" cx="1906.87" cy="1240.32" r="14.4" fill="#008000" fill-rule="evenodd" fill-opacity="1" stroke="#000000" stroke-opacity="1" stroke-width="6.4"/>
<circle clip-path="url(#clip042)" cx="2024.46" cy="1214.47" r="14.4" fill="#008000" fill-rule="evenodd" fill-opacity="1" stroke="#000000" stroke-opacity="1" stroke-width="6.4"/>
<circle clip-path="url(#clip042)" cx="2142.06" cy="1227.48" r="14.4" fill="#008000" fill-rule="evenodd" fill-opacity="1" stroke="#000000" stroke-opacity="1" stroke-width="6.4"/>
<circle clip-path="url(#clip042)" cx="2259.65" cy="1231.1" r="14.4" fill="#008000" fill-rule="evenodd" fill-opacity="1" stroke="#000000" stroke-opacity="1" stroke-width="6.4"/>
<polyline clip-path="url(#clip042)" style="stroke:#00008b; stroke-linecap:round; stroke-linejoin:round; stroke-width:8; stroke-opacity:1; fill:none" points="730.941,1165.44 848.534,846.269 966.127,679.603 1083.72,550.474 1201.31,454.673 1318.91,383.265 1436.5,328.819 1554.09,284.173 1671.69,255.259 1789.28,249.851 1906.87,236.3 2024.46,261.446 2142.06,260.162 2259.65,287.481 "/>
<path clip-path="url(#clip042)" d="M730.941 1227.19 L848.534 923.981 L966.127 781.8 L1083.72 688.348 L1201.31 618.949 L1318.91 558.997 L1436.5 500.187 L1554.09 469.039 L1671.69 450.78 L1789.28 428.044 L1906.87 418.728 L2024.46 413.284 L2142.06 417.089 L2259.65 446.413 L2259.65 181.473 L2142.06 173.852 L2024.46 136.12 L1906.87 146.135 L1789.28 127.862 L1671.69 137.869 L1554.09 167.425 L1436.5 233.098 L1318.91 289.859 L1201.31 353.946 L1083.72 471.52 L966.127 597.196 L848.534 776.005 L730.941 1126.56  Z" fill="#0000ff" fill-rule="evenodd" fill-opacity="0.1"/>
<polyline clip-path="url(#clip042)" style="stroke:#0000ff; stroke-linecap:round; stroke-linejoin:round; stroke-width:0; stroke-opacity:0.1; fill:none" points="730.941,1227.19 848.534,923.981 966.127,781.8 1083.72,688.348 1201.31,618.949 1318.91,558.997 1436.5,500.187 1554.09,469.039 1671.69,450.78 1789.28,428.044 1906.87,418.728 2024.46,413.284 2142.06,417.089 2259.65,446.413 "/>
</svg>
