<?xml version="1.0" encoding="utf-8"?>
<svg xmlns="http://www.w3.org/2000/svg" xmlns:xlink="http://www.w3.org/1999/xlink" width="600" height="400" viewBox="0 0 2400 1600">
<defs>
  <clipPath id="clip190">
    <rect x="0" y="0" width="2400" height="1600"/>
  </clipPath>
</defs>
<path clip-path="url(#clip190)" d="M0 1600 L2400 1600 L2400 0 L0 0  Z" fill="#ffffff" fill-rule="evenodd" fill-opacity="1"/>
<defs>
  <clipPath id="clip191">
    <rect x="480" y="0" width="1681" height="1600"/>
  </clipPath>
</defs>
<path clip-path="url(#clip190)" d="M680.45 1273.7 L2305.51 1273.7 L2305.51 94.4882 L680.45 94.4882  Z" fill="#ffffff" fill-rule="evenodd" fill-opacity="1"/>
<defs>
  <clipPath id="clip192">
    <rect x="680" y="94" width="1626" height="1180"/>
  </clipPath>
</defs>
<polyline clip-path="url(#clip192)" style="stroke:#000000; stroke-linecap:round; stroke-linejoin:round; stroke-width:4; stroke-opacity:0.1; fill:none" points="726.443,1273.7 726.443,94.4882 "/>
<polyline clip-path="url(#clip192)" style="stroke:#000000; stroke-linecap:round; stroke-linejoin:round; stroke-width:4; stroke-opacity:0.1; fill:none" points="962.301,1273.7 962.301,94.4882 "/>
<polyline clip-path="url(#clip192)" style="stroke:#000000; stroke-linecap:round; stroke-linejoin:round; stroke-width:4; stroke-opacity:0.1; fill:none" points="1198.16,1273.7 1198.16,94.4882 "/>
<polyline clip-path="url(#clip192)" style="stroke:#000000; stroke-linecap:round; stroke-linejoin:round; stroke-width:4; stroke-opacity:0.1; fill:none" points="1434.02,1273.7 1434.02,94.4882 "/>
<polyline clip-path="url(#clip192)" style="stroke:#000000; stroke-linecap:round; stroke-linejoin:round; stroke-width:4; stroke-opacity:0.1; fill:none" points="1669.87,1273.7 1669.87,94.4882 "/>
<polyline clip-path="url(#clip192)" style="stroke:#000000; stroke-linecap:round; stroke-linejoin:round; stroke-width:4; stroke-opacity:0.1; fill:none" points="1905.73,1273.7 1905.73,94.4882 "/>
<polyline clip-path="url(#clip192)" style="stroke:#000000; stroke-linecap:round; stroke-linejoin:round; stroke-width:4; stroke-opacity:0.1; fill:none" points="2141.59,1273.7 2141.59,94.4882 "/>
<polyline clip-path="url(#clip190)" style="stroke:#000000; stroke-linecap:round; stroke-linejoin:round; stroke-width:8; stroke-opacity:1; fill:none" points="680.45,1273.7 2305.51,1273.7 "/>
<polyline clip-path="url(#clip190)" style="stroke:#000000; stroke-linecap:round; stroke-linejoin:round; stroke-width:8; stroke-opacity:1; fill:none" points="726.443,1273.7 726.443,1254.8 "/>
<polyline clip-path="url(#clip190)" style="stroke:#000000; stroke-linecap:round; stroke-linejoin:round; stroke-width:8; stroke-opacity:1; fill:none" points="962.301,1273.7 962.301,1254.8 "/>
<polyline clip-path="url(#clip190)" style="stroke:#000000; stroke-linecap:round; stroke-linejoin:round; stroke-width:8; stroke-opacity:1; fill:none" points="1198.16,1273.7 1198.16,1254.8 "/>
<polyline clip-path="url(#clip190)" style="stroke:#000000; stroke-linecap:round; stroke-linejoin:round; stroke-width:8; stroke-opacity:1; fill:none" points="1434.02,1273.7 1434.02,1254.8 "/>
<polyline clip-path="url(#clip190)" style="stroke:#000000; stroke-linecap:round; stroke-linejoin:round; stroke-width:8; stroke-opacity:1; fill:none" points="1669.87,1273.7 1669.87,1254.8 "/>
<polyline clip-path="url(#clip190)" style="stroke:#000000; stroke-linecap:round; stroke-linejoin:round; stroke-width:8; stroke-opacity:1; fill:none" points="1905.73,1273.7 1905.73,1254.8 "/>
<polyline clip-path="url(#clip190)" style="stroke:#000000; stroke-linecap:round; stroke-linejoin:round; stroke-width:8; stroke-opacity:1; fill:none" points="2141.59,1273.7 2141.59,1254.8 "/>
<path clip-path="url(#clip190)" d="M681.211 1316.33 Q673.989 1316.33 670.332 1323.46 Q666.721 1330.55 666.721 1344.81 Q666.721 1359.02 670.332 1366.15 Q673.989 1373.23 681.211 1373.23 Q688.48 1373.23 692.091 1366.15 Q695.748 1359.02 695.748 1344.81 Q695.748 1330.55 692.091 1323.46 Q688.48 1316.33 681.211 1316.33 M681.211 1308.93 Q692.832 1308.93 698.943 1318.14 Q705.1 1327.31 705.1 1344.81 Q705.1 1362.26 698.943 1371.47 Q692.832 1380.64 681.211 1380.64 Q669.591 1380.64 663.434 1371.47 Q657.323 1362.26 657.323 1344.81 Q657.323 1327.31 663.434 1318.14 Q669.591 1308.93 681.211 1308.93 Z" fill="#000000" fill-rule="nonzero" fill-opacity="1" /><path clip-path="url(#clip190)" d="M721.535 1367.54 L731.304 1367.54 L731.304 1379.3 L721.535 1379.3 L721.535 1367.54 Z" fill="#000000" fill-rule="nonzero" fill-opacity="1" /><path clip-path="url(#clip190)" d="M771.674 1316.33 Q764.452 1316.33 760.794 1323.46 Q757.183 1330.55 757.183 1344.81 Q757.183 1359.02 760.794 1366.15 Q764.452 1373.23 771.674 1373.23 Q778.942 1373.23 782.553 1366.15 Q786.211 1359.02 786.211 1344.81 Q786.211 1330.55 782.553 1323.46 Q778.942 1316.33 771.674 1316.33 M771.674 1308.93 Q783.294 1308.93 789.405 1318.14 Q795.563 1327.31 795.563 1344.81 Q795.563 1362.26 789.405 1371.47 Q783.294 1380.64 771.674 1380.64 Q760.054 1380.64 753.896 1371.47 Q747.785 1362.26 747.785 1344.81 Q747.785 1327.31 753.896 1318.14 Q760.054 1308.93 771.674 1308.93 Z" fill="#000000" fill-rule="nonzero" fill-opacity="1" /><path clip-path="url(#clip190)" d="M918.667 1316.33 Q911.444 1316.33 907.787 1323.46 Q904.176 1330.55 904.176 1344.81 Q904.176 1359.02 907.787 1366.15 Q911.444 1373.23 918.667 1373.23 Q925.935 1373.23 929.546 1366.15 Q933.204 1359.02 933.204 1344.81 Q933.204 1330.55 929.546 1323.46 Q925.935 1316.33 918.667 1316.33 M918.667 1308.93 Q930.287 1308.93 936.398 1318.14 Q942.555 1327.31 942.555 1344.81 Q942.555 1362.26 936.398 1371.47 Q930.287 1380.64 918.667 1380.64 Q907.046 1380.64 900.889 1371.47 Q894.778 1362.26 894.778 1344.81 Q894.778 1327.31 900.889 1318.14 Q907.046 1308.93 918.667 1308.93 Z" fill="#000000" fill-rule="nonzero" fill-opacity="1" /><path clip-path="url(#clip190)" d="M958.99 1367.54 L968.759 1367.54 L968.759 1379.3 L958.99 1379.3 L958.99 1367.54 Z" fill="#000000" fill-rule="nonzero" fill-opacity="1" /><path clip-path="url(#clip190)" d="M997.185 1371.43 L1029.82 1371.43 L1029.82 1379.3 L985.935 1379.3 L985.935 1371.43 Q991.259 1365.92 1000.43 1356.66 Q1009.64 1347.35 1012 1344.67 Q1016.49 1339.62 1018.25 1336.15 Q1020.05 1332.63 1020.05 1329.25 Q1020.05 1323.74 1016.17 1320.27 Q1012.32 1316.8 1006.12 1316.8 Q1001.72 1316.8 996.814 1318.32 Q991.953 1319.85 986.398 1322.95 L986.398 1313.51 Q992.046 1311.24 996.953 1310.08 Q1001.86 1308.93 1005.93 1308.93 Q1016.68 1308.93 1023.06 1314.3 Q1029.45 1319.67 1029.45 1328.65 Q1029.45 1332.91 1027.83 1336.75 Q1026.26 1340.55 1022.05 1345.73 Q1020.89 1347.07 1014.68 1353.51 Q1008.48 1359.9 997.185 1371.43 Z" fill="#000000" fill-rule="nonzero" fill-opacity="1" /><path clip-path="url(#clip190)" d="M1152.44 1316.33 Q1145.22 1316.33 1141.56 1323.46 Q1137.95 1330.55 1137.95 1344.81 Q1137.95 1359.02 1141.56 1366.15 Q1145.22 1373.23 1152.44 1373.23 Q1159.71 1373.23 1163.32 1366.15 Q1166.98 1359.02 1166.98 1344.81 Q1166.98 1330.55 1163.32 1323.46 Q1159.71 1316.33 1152.44 1316.33 M1152.44 1308.93 Q1164.06 1308.93 1170.17 1318.14 Q1176.33 1327.31 1176.33 1344.81 Q1176.33 1362.26 1170.17 1371.47 Q1164.06 1380.64 1152.44 1380.64 Q1140.82 1380.64 1134.66 1371.47 Q1128.55 1362.26 1128.55 1344.81 Q1128.55 1327.31 1134.66 1318.14 Q1140.82 1308.93 1152.44 1308.93 Z" fill="#000000" fill-rule="nonzero" fill-opacity="1" /><path clip-path="url(#clip190)" d="M1192.77 1367.54 L1202.53 1367.54 L1202.53 1379.3 L1192.77 1379.3 L1192.77 1367.54 Z" fill="#000000" fill-rule="nonzero" fill-opacity="1" /><path clip-path="url(#clip190)" d="M1248.6 1318.32 L1224.99 1355.22 L1248.6 1355.22 L1248.6 1318.32 M1246.14 1310.18 L1257.9 1310.18 L1257.9 1355.22 L1267.76 1355.22 L1267.76 1363 L1257.9 1363 L1257.9 1379.3 L1248.6 1379.3 L1248.6 1363 L1217.39 1363 L1217.39 1353.97 L1246.14 1310.18 Z" fill="#000000" fill-rule="nonzero" fill-opacity="1" /><path clip-path="url(#clip190)" d="M1388.62 1316.33 Q1381.4 1316.33 1377.74 1323.46 Q1374.13 1330.55 1374.13 1344.81 Q1374.13 1359.02 1377.74 1366.15 Q1381.4 1373.23 1388.62 1373.23 Q1395.89 1373.23 1399.5 1366.15 Q1403.16 1359.02 1403.16 1344.81 Q1403.16 1330.55 1399.5 1323.46 Q1395.89 1316.33 1388.62 1316.33 M1388.62 1308.93 Q1400.24 1308.93 1406.35 1318.14 Q1412.51 1327.31 1412.51 1344.81 Q1412.51 1362.26 1406.35 1371.47 Q1400.24 1380.64 1388.62 1380.64 Q1377 1380.64 1370.85 1371.47 Q1364.73 1362.26 1364.73 1344.81 Q1364.73 1327.31 1370.85 1318.14 Q1377 1308.93 1388.62 1308.93 Z" fill="#000000" fill-rule="nonzero" fill-opacity="1" /><path clip-path="url(#clip190)" d="M1428.95 1367.54 L1438.72 1367.54 L1438.72 1379.3 L1428.95 1379.3 L1428.95 1367.54 Z" fill="#000000" fill-rule="nonzero" fill-opacity="1" /><path clip-path="url(#clip190)" d="M1480.24 1341.01 Q1473.95 1341.01 1470.24 1345.31 Q1466.59 1349.62 1466.59 1357.12 Q1466.59 1364.57 1470.24 1368.93 Q1473.95 1373.23 1480.24 1373.23 Q1486.54 1373.23 1490.2 1368.93 Q1493.9 1364.57 1493.9 1357.12 Q1493.9 1349.62 1490.2 1345.31 Q1486.54 1341.01 1480.24 1341.01 M1498.81 1311.7 L1498.81 1320.22 Q1495.29 1318.56 1491.68 1317.68 Q1488.11 1316.8 1484.6 1316.8 Q1475.34 1316.8 1470.43 1323.05 Q1465.57 1329.3 1464.87 1341.93 Q1467.6 1337.91 1471.72 1335.78 Q1475.85 1333.6 1480.8 1333.6 Q1491.22 1333.6 1497.23 1339.94 Q1503.3 1346.24 1503.3 1357.12 Q1503.3 1367.77 1497 1374.2 Q1490.71 1380.64 1480.24 1380.64 Q1468.25 1380.64 1461.91 1371.47 Q1455.57 1362.26 1455.57 1344.81 Q1455.57 1328.42 1463.35 1318.69 Q1471.12 1308.93 1484.22 1308.93 Q1487.74 1308.93 1491.31 1309.62 Q1494.92 1310.31 1498.81 1311.7 Z" fill="#000000" fill-rule="nonzero" fill-opacity="1" /><path clip-path="url(#clip190)" d="M1624.74 1316.33 Q1617.51 1316.33 1613.86 1323.46 Q1610.25 1330.55 1610.25 1344.81 Q1610.25 1359.02 1613.86 1366.15 Q1617.51 1373.23 1624.74 1373.23 Q1632 1373.23 1635.62 1366.15 Q1639.27 1359.02 1639.27 1344.81 Q1639.27 1330.55 1635.62 1323.46 Q1632 1316.33 1624.74 1316.33 M1624.74 1308.93 Q1636.36 1308.93 1642.47 1318.14 Q1648.62 1327.31 1648.62 1344.81 Q1648.62 1362.26 1642.47 1371.47 Q1636.36 1380.64 1624.74 1380.64 Q1613.12 1380.64 1606.96 1371.47 Q1600.85 1362.26 1600.85 1344.81 Q1600.85 1327.31 1606.96 1318.14 Q1613.12 1308.93 1624.74 1308.93 Z" fill="#000000" fill-rule="nonzero" fill-opacity="1" /><path clip-path="url(#clip190)" d="M1665.06 1367.54 L1674.83 1367.54 L1674.83 1379.3 L1665.06 1379.3 L1665.06 1367.54 Z" fill="#000000" fill-rule="nonzero" fill-opacity="1" /><path clip-path="url(#clip190)" d="M1715.2 1346.47 Q1708.53 1346.47 1704.69 1350.04 Q1700.89 1353.6 1700.89 1359.85 Q1700.89 1366.1 1704.69 1369.67 Q1708.53 1373.23 1715.2 1373.23 Q1721.87 1373.23 1725.71 1369.67 Q1729.55 1366.06 1729.55 1359.85 Q1729.55 1353.6 1725.71 1350.04 Q1721.91 1346.47 1715.2 1346.47 M1705.85 1342.49 Q1699.83 1341.01 1696.45 1336.89 Q1693.12 1332.77 1693.12 1326.84 Q1693.12 1318.56 1698.99 1313.74 Q1704.92 1308.93 1715.2 1308.93 Q1725.52 1308.93 1731.4 1313.74 Q1737.28 1318.56 1737.28 1326.84 Q1737.28 1332.77 1733.9 1336.89 Q1730.57 1341.01 1724.6 1342.49 Q1731.36 1344.06 1735.11 1348.65 Q1738.9 1353.23 1738.9 1359.85 Q1738.9 1369.9 1732.74 1375.27 Q1726.63 1380.64 1715.2 1380.64 Q1703.76 1380.64 1697.61 1375.27 Q1691.49 1369.9 1691.49 1359.85 Q1691.49 1353.23 1695.29 1348.65 Q1699.09 1344.06 1705.85 1342.49 M1702.42 1327.72 Q1702.42 1333.09 1705.75 1336.1 Q1709.13 1339.11 1715.2 1339.11 Q1721.22 1339.11 1724.6 1336.1 Q1728.02 1333.09 1728.02 1327.72 Q1728.02 1322.35 1724.6 1319.34 Q1721.22 1316.33 1715.2 1316.33 Q1709.13 1316.33 1705.75 1319.34 Q1702.42 1322.35 1702.42 1327.72 Z" fill="#000000" fill-rule="nonzero" fill-opacity="1" /><path clip-path="url(#clip190)" d="M1840.04 1371.43 L1855.32 1371.43 L1855.32 1318.69 L1838.7 1322.03 L1838.7 1313.51 L1855.22 1310.18 L1864.58 1310.18 L1864.58 1371.43 L1879.85 1371.43 L1879.85 1379.3 L1840.04 1379.3 L1840.04 1371.43 Z" fill="#000000" fill-rule="nonzero" fill-opacity="1" /><path clip-path="url(#clip190)" d="M1898.74 1367.54 L1908.51 1367.54 L1908.51 1379.3 L1898.74 1379.3 L1898.74 1367.54 Z" fill="#000000" fill-rule="nonzero" fill-opacity="1" /><path clip-path="url(#clip190)" d="M1948.88 1316.33 Q1941.66 1316.33 1938 1323.46 Q1934.39 1330.55 1934.39 1344.81 Q1934.39 1359.02 1938 1366.15 Q1941.66 1373.23 1948.88 1373.23 Q1956.15 1373.23 1959.76 1366.15 Q1963.42 1359.02 1963.42 1344.81 Q1963.42 1330.55 1959.76 1323.46 Q1956.15 1316.33 1948.88 1316.33 M1948.88 1308.93 Q1960.5 1308.93 1966.61 1318.14 Q1972.77 1327.31 1972.77 1344.81 Q1972.77 1362.26 1966.61 1371.47 Q1960.5 1380.64 1948.88 1380.64 Q1937.26 1380.64 1931.1 1371.47 Q1924.99 1362.26 1924.99 1344.81 Q1924.99 1327.31 1931.1 1318.14 Q1937.26 1308.93 1948.88 1308.93 Z" fill="#000000" fill-rule="nonzero" fill-opacity="1" /><path clip-path="url(#clip190)" d="M2077.49 1371.43 L2092.77 1371.43 L2092.77 1318.69 L2076.15 1322.03 L2076.15 1313.51 L2092.68 1310.18 L2102.03 1310.18 L2102.03 1371.43 L2117.31 1371.43 L2117.31 1379.3 L2077.49 1379.3 L2077.49 1371.43 Z" fill="#000000" fill-rule="nonzero" fill-opacity="1" /><path clip-path="url(#clip190)" d="M2136.2 1367.54 L2145.97 1367.54 L2145.97 1379.3 L2136.2 1379.3 L2136.2 1367.54 Z" fill="#000000" fill-rule="nonzero" fill-opacity="1" /><path clip-path="url(#clip190)" d="M2174.39 1371.43 L2207.03 1371.43 L2207.03 1379.3 L2163.14 1379.3 L2163.14 1371.43 Q2168.47 1365.92 2177.63 1356.66 Q2186.84 1347.35 2189.21 1344.67 Q2193.7 1339.62 2195.46 1336.15 Q2197.26 1332.63 2197.26 1329.25 Q2197.26 1323.74 2193.37 1320.27 Q2189.53 1316.8 2183.33 1316.8 Q2178.93 1316.8 2174.02 1318.32 Q2169.16 1319.85 2163.6 1322.95 L2163.6 1313.51 Q2169.25 1311.24 2174.16 1310.08 Q2179.07 1308.93 2183.14 1308.93 Q2193.88 1308.93 2200.27 1314.3 Q2206.66 1319.67 2206.66 1328.65 Q2206.66 1332.91 2205.04 1336.75 Q2203.47 1340.55 2199.25 1345.73 Q2198.09 1347.07 2191.89 1353.51 Q2185.69 1359.9 2174.39 1371.43 Z" fill="#000000" fill-rule="nonzero" fill-opacity="1" /><path clip-path="url(#clip190)" d="M1378.53 1484.39 L1378.53 1527.42 L1366.81 1527.42 L1366.81 1484.77 Q1366.81 1474.65 1362.87 1469.62 Q1358.92 1464.59 1351.03 1464.59 Q1341.54 1464.59 1336.07 1470.64 Q1330.59 1476.69 1330.59 1487.13 L1330.59 1527.42 L1318.82 1527.42 L1318.82 1428.37 L1330.59 1428.37 L1330.59 1467.2 Q1334.79 1460.77 1340.46 1457.59 Q1346.19 1454.41 1353.64 1454.41 Q1365.92 1454.41 1372.22 1462.05 Q1378.53 1469.62 1378.53 1484.39 Z" fill="#000000" fill-rule="nonzero" fill-opacity="1" /><path clip-path="url(#clip190)" d="M1429.51 1464.34 Q1420.09 1464.34 1414.62 1471.72 Q1409.14 1479.04 1409.14 1491.84 Q1409.14 1504.63 1414.56 1512.02 Q1420.03 1519.34 1429.51 1519.34 Q1438.87 1519.34 1444.35 1511.96 Q1449.82 1504.57 1449.82 1491.84 Q1449.82 1479.17 1444.35 1471.79 Q1438.87 1464.34 1429.51 1464.34 M1429.51 1454.41 Q1444.79 1454.41 1453.51 1464.34 Q1462.23 1474.27 1462.23 1491.84 Q1462.23 1509.35 1453.51 1519.34 Q1444.79 1529.27 1429.51 1529.27 Q1414.17 1529.27 1405.45 1519.34 Q1396.8 1509.35 1396.8 1491.84 Q1396.8 1474.27 1405.45 1464.34 Q1414.17 1454.41 1429.51 1454.41 Z" fill="#000000" fill-rule="nonzero" fill-opacity="1" /><path clip-path="url(#clip190)" d="M1480.44 1499.29 L1480.44 1456.13 L1492.15 1456.13 L1492.15 1498.84 Q1492.15 1508.96 1496.1 1514.06 Q1500.05 1519.08 1507.94 1519.08 Q1517.43 1519.08 1522.9 1513.04 Q1528.44 1506.99 1528.44 1496.55 L1528.44 1456.13 L1540.15 1456.13 L1540.15 1527.42 L1528.44 1527.42 L1528.44 1516.47 Q1524.17 1522.97 1518.51 1526.15 Q1512.91 1529.27 1505.46 1529.27 Q1493.17 1529.27 1486.81 1521.63 Q1480.44 1513.99 1480.44 1499.29 M1509.91 1454.41 L1509.91 1454.41 Z" fill="#000000" fill-rule="nonzero" fill-opacity="1" /><path clip-path="url(#clip190)" d="M1605.59 1467.08 Q1603.62 1465.93 1601.26 1465.42 Q1598.97 1464.85 1596.17 1464.85 Q1586.24 1464.85 1580.89 1471.34 Q1575.61 1477.77 1575.61 1489.87 L1575.61 1527.42 L1563.83 1527.42 L1563.83 1456.13 L1575.61 1456.13 L1575.61 1467.2 Q1579.3 1460.71 1585.22 1457.59 Q1591.14 1454.41 1599.61 1454.41 Q1600.82 1454.41 1602.28 1454.6 Q1603.74 1454.73 1605.53 1455.05 L1605.59 1467.08 Z" fill="#000000" fill-rule="nonzero" fill-opacity="1" /><path clip-path="url(#clip190)" d="M1663.33 1458.23 L1663.33 1469.3 Q1658.36 1466.76 1653.01 1465.49 Q1647.67 1464.21 1641.94 1464.21 Q1633.22 1464.21 1628.83 1466.89 Q1624.5 1469.56 1624.5 1474.91 Q1624.5 1478.98 1627.62 1481.34 Q1630.73 1483.63 1640.16 1485.73 L1644.17 1486.62 Q1656.64 1489.29 1661.86 1494.19 Q1667.15 1499.03 1667.15 1507.75 Q1667.15 1517.68 1659.25 1523.48 Q1651.42 1529.27 1637.67 1529.27 Q1631.94 1529.27 1625.71 1528.12 Q1619.53 1527.04 1612.66 1524.81 L1612.66 1512.72 Q1619.15 1516.09 1625.45 1517.81 Q1631.75 1519.47 1637.93 1519.47 Q1646.2 1519.47 1650.66 1516.67 Q1655.12 1513.8 1655.12 1508.64 Q1655.12 1503.87 1651.87 1501.32 Q1648.69 1498.78 1637.8 1496.42 L1633.73 1495.47 Q1622.84 1493.18 1618 1488.47 Q1613.17 1483.69 1613.17 1475.42 Q1613.17 1465.36 1620.3 1459.88 Q1627.42 1454.41 1640.54 1454.41 Q1647.03 1454.41 1652.76 1455.36 Q1658.49 1456.32 1663.33 1458.23 Z" fill="#000000" fill-rule="nonzero" fill-opacity="1" /><polyline clip-path="url(#clip192)" style="stroke:#000000; stroke-linecap:round; stroke-linejoin:round; stroke-width:4; stroke-opacity:0.1; fill:none" points="680.45,1115.1 2305.51,1115.1 "/>
<polyline clip-path="url(#clip192)" style="stroke:#000000; stroke-linecap:round; stroke-linejoin:round; stroke-width:4; stroke-opacity:0.1; fill:none" points="680.45,931.053 2305.51,931.053 "/>
<polyline clip-path="url(#clip192)" style="stroke:#000000; stroke-linecap:round; stroke-linejoin:round; stroke-width:4; stroke-opacity:0.1; fill:none" points="680.45,747.009 2305.51,747.009 "/>
<polyline clip-path="url(#clip192)" style="stroke:#000000; stroke-linecap:round; stroke-linejoin:round; stroke-width:4; stroke-opacity:0.1; fill:none" points="680.45,562.964 2305.51,562.964 "/>
<polyline clip-path="url(#clip192)" style="stroke:#000000; stroke-linecap:round; stroke-linejoin:round; stroke-width:4; stroke-opacity:0.1; fill:none" points="680.45,378.919 2305.51,378.919 "/>
<polyline clip-path="url(#clip192)" style="stroke:#000000; stroke-linecap:round; stroke-linejoin:round; stroke-width:4; stroke-opacity:0.1; fill:none" points="680.45,194.875 2305.51,194.875 "/>
<polyline clip-path="url(#clip190)" style="stroke:#000000; stroke-linecap:round; stroke-linejoin:round; stroke-width:8; stroke-opacity:1; fill:none" points="680.45,1273.7 680.45,94.4882 "/>
<polyline clip-path="url(#clip190)" style="stroke:#000000; stroke-linecap:round; stroke-linejoin:round; stroke-width:8; stroke-opacity:1; fill:none" points="680.45,1115.1 699.348,1115.1 "/>
<polyline clip-path="url(#clip190)" style="stroke:#000000; stroke-linecap:round; stroke-linejoin:round; stroke-width:8; stroke-opacity:1; fill:none" points="680.45,931.053 699.348,931.053 "/>
<polyline clip-path="url(#clip190)" style="stroke:#000000; stroke-linecap:round; stroke-linejoin:round; stroke-width:8; stroke-opacity:1; fill:none" points="680.45,747.009 699.348,747.009 "/>
<polyline clip-path="url(#clip190)" style="stroke:#000000; stroke-linecap:round; stroke-linejoin:round; stroke-width:8; stroke-opacity:1; fill:none" points="680.45,562.964 699.348,562.964 "/>
<polyline clip-path="url(#clip190)" style="stroke:#000000; stroke-linecap:round; stroke-linejoin:round; stroke-width:8; stroke-opacity:1; fill:none" points="680.45,378.919 699.348,378.919 "/>
<polyline clip-path="url(#clip190)" style="stroke:#000000; stroke-linecap:round; stroke-linejoin:round; stroke-width:8; stroke-opacity:1; fill:none" points="680.45,194.875 699.348,194.875 "/>
<path clip-path="url(#clip190)" d="M391.072 1141.79 L406.35 1141.79 L406.35 1089.06 L389.73 1092.39 L389.73 1083.87 L406.257 1080.54 L415.609 1080.54 L415.609 1141.79 L430.887 1141.79 L430.887 1149.66 L391.072 1149.66 L391.072 1141.79 Z" fill="#000000" fill-rule="nonzero" fill-opacity="1" /><path clip-path="url(#clip190)" d="M469.775 1086.7 Q462.553 1086.7 458.896 1093.82 Q455.285 1100.91 455.285 1115.17 Q455.285 1129.38 458.896 1136.51 Q462.553 1143.59 469.775 1143.59 Q477.044 1143.59 480.655 1136.51 Q484.312 1129.38 484.312 1115.17 Q484.312 1100.91 480.655 1093.82 Q477.044 1086.7 469.775 1086.7 M469.775 1079.29 Q481.396 1079.29 487.507 1088.5 Q493.664 1097.67 493.664 1115.17 Q493.664 1132.62 487.507 1141.83 Q481.396 1151 469.775 1151 Q458.155 1151 451.998 1141.83 Q445.887 1132.62 445.887 1115.17 Q445.887 1097.67 451.998 1088.5 Q458.155 1079.29 469.775 1079.29 Z" fill="#000000" fill-rule="nonzero" fill-opacity="1" /><path clip-path="url(#clip190)" d="M530.099 1086.7 Q522.877 1086.7 519.22 1093.82 Q515.608 1100.91 515.608 1115.17 Q515.608 1129.38 519.22 1136.51 Q522.877 1143.59 530.099 1143.59 Q537.368 1143.59 540.979 1136.51 Q544.636 1129.38 544.636 1115.17 Q544.636 1100.91 540.979 1093.82 Q537.368 1086.7 530.099 1086.7 M530.099 1079.29 Q541.719 1079.29 547.831 1088.5 Q553.988 1097.67 553.988 1115.17 Q553.988 1132.62 547.831 1141.83 Q541.719 1151 530.099 1151 Q518.479 1151 512.321 1141.83 Q506.21 1132.62 506.21 1115.17 Q506.21 1097.67 512.321 1088.5 Q518.479 1079.29 530.099 1079.29 Z" fill="#000000" fill-rule="nonzero" fill-opacity="1" /><path clip-path="url(#clip190)" d="M570.423 1137.9 L580.191 1137.9 L580.191 1149.66 L570.423 1149.66 L570.423 1137.9 Z" fill="#000000" fill-rule="nonzero" fill-opacity="1" /><path clip-path="url(#clip190)" d="M620.562 1086.7 Q613.339 1086.7 609.682 1093.82 Q606.071 1100.91 606.071 1115.17 Q606.071 1129.38 609.682 1136.51 Q613.339 1143.59 620.562 1143.59 Q627.83 1143.59 631.441 1136.51 Q635.099 1129.38 635.099 1115.17 Q635.099 1100.91 631.441 1093.82 Q627.83 1086.7 620.562 1086.7 M620.562 1079.29 Q632.182 1079.29 638.293 1088.5 Q644.45 1097.67 644.45 1115.17 Q644.45 1132.62 638.293 1141.83 Q632.182 1151 620.562 1151 Q608.941 1151 602.784 1141.83 Q596.673 1132.62 596.673 1115.17 Q596.673 1097.67 602.784 1088.5 Q608.941 1079.29 620.562 1079.29 Z" fill="#000000" fill-rule="nonzero" fill-opacity="1" /><path clip-path="url(#clip190)" d="M391.072 957.743 L406.35 957.743 L406.35 905.012 L389.73 908.345 L389.73 899.827 L406.257 896.493 L415.609 896.493 L415.609 957.743 L430.887 957.743 L430.887 965.613 L391.072 965.613 L391.072 957.743 Z" fill="#000000" fill-rule="nonzero" fill-opacity="1" /><path clip-path="url(#clip190)" d="M449.868 896.493 L486.581 896.493 L486.581 904.364 L458.433 904.364 L458.433 921.308 Q460.47 920.613 462.507 920.289 Q464.544 919.919 466.581 919.919 Q478.155 919.919 484.914 926.262 Q491.673 932.604 491.673 943.437 Q491.673 954.595 484.729 960.798 Q477.785 966.956 465.146 966.956 Q460.794 966.956 456.257 966.215 Q451.766 965.474 446.951 963.993 L446.951 954.595 Q451.118 956.863 455.562 957.974 Q460.007 959.086 464.961 959.086 Q472.97 959.086 477.646 954.873 Q482.322 950.66 482.322 943.437 Q482.322 936.215 477.646 932.002 Q472.97 927.789 464.961 927.789 Q461.211 927.789 457.461 928.623 Q453.757 929.456 449.868 931.215 L449.868 896.493 Z" fill="#000000" fill-rule="nonzero" fill-opacity="1" /><path clip-path="url(#clip190)" d="M530.099 902.651 Q522.877 902.651 519.22 909.78 Q515.608 916.864 515.608 931.123 Q515.608 945.336 519.22 952.465 Q522.877 959.548 530.099 959.548 Q537.368 959.548 540.979 952.465 Q544.636 945.336 544.636 931.123 Q544.636 916.864 540.979 909.78 Q537.368 902.651 530.099 902.651 M530.099 895.243 Q541.719 895.243 547.831 904.456 Q553.988 913.623 553.988 931.123 Q553.988 948.576 547.831 957.789 Q541.719 966.956 530.099 966.956 Q518.479 966.956 512.321 957.789 Q506.21 948.576 506.21 931.123 Q506.21 913.623 512.321 904.456 Q518.479 895.243 530.099 895.243 Z" fill="#000000" fill-rule="nonzero" fill-opacity="1" /><path clip-path="url(#clip190)" d="M570.423 953.854 L580.191 953.854 L580.191 965.613 L570.423 965.613 L570.423 953.854 Z" fill="#000000" fill-rule="nonzero" fill-opacity="1" /><path clip-path="url(#clip190)" d="M620.562 902.651 Q613.339 902.651 609.682 909.78 Q606.071 916.864 606.071 931.123 Q606.071 945.336 609.682 952.465 Q613.339 959.548 620.562 959.548 Q627.83 959.548 631.441 952.465 Q635.099 945.336 635.099 931.123 Q635.099 916.864 631.441 909.78 Q627.83 902.651 620.562 902.651 M620.562 895.243 Q632.182 895.243 638.293 904.456 Q644.45 913.623 644.45 931.123 Q644.45 948.576 638.293 957.789 Q632.182 966.956 620.562 966.956 Q608.941 966.956 602.784 957.789 Q596.673 948.576 596.673 931.123 Q596.673 913.623 602.784 904.456 Q608.941 895.243 620.562 895.243 Z" fill="#000000" fill-rule="nonzero" fill-opacity="1" /><path clip-path="url(#clip190)" d="M397.507 773.698 L430.146 773.698 L430.146 781.569 L386.257 781.569 L386.257 773.698 Q391.581 768.189 400.748 758.93 Q409.961 749.624 412.322 746.939 Q416.813 741.893 418.572 738.421 Q420.378 734.902 420.378 731.523 Q420.378 726.013 416.489 722.541 Q412.646 719.069 406.442 719.069 Q402.044 719.069 397.137 720.597 Q392.276 722.124 386.72 725.226 L386.72 715.782 Q392.368 713.513 397.276 712.356 Q402.183 711.199 406.257 711.199 Q416.998 711.199 423.387 716.569 Q429.776 721.939 429.776 730.921 Q429.776 735.18 428.155 739.023 Q426.581 742.819 422.368 748.004 Q421.211 749.347 415.007 755.782 Q408.803 762.171 397.507 773.698 Z" fill="#000000" fill-rule="nonzero" fill-opacity="1" /><path clip-path="url(#clip190)" d="M469.775 718.606 Q462.553 718.606 458.896 725.736 Q455.285 732.819 455.285 747.078 Q455.285 761.291 458.896 768.421 Q462.553 775.504 469.775 775.504 Q477.044 775.504 480.655 768.421 Q484.312 761.291 484.312 747.078 Q484.312 732.819 480.655 725.736 Q477.044 718.606 469.775 718.606 M469.775 711.199 Q481.396 711.199 487.507 720.412 Q493.664 729.578 493.664 747.078 Q493.664 764.532 487.507 773.745 Q481.396 782.911 469.775 782.911 Q458.155 782.911 451.998 773.745 Q445.887 764.532 445.887 747.078 Q445.887 729.578 451.998 720.412 Q458.155 711.199 469.775 711.199 Z" fill="#000000" fill-rule="nonzero" fill-opacity="1" /><path clip-path="url(#clip190)" d="M530.099 718.606 Q522.877 718.606 519.22 725.736 Q515.608 732.819 515.608 747.078 Q515.608 761.291 519.22 768.421 Q522.877 775.504 530.099 775.504 Q537.368 775.504 540.979 768.421 Q544.636 761.291 544.636 747.078 Q544.636 732.819 540.979 725.736 Q537.368 718.606 530.099 718.606 M530.099 711.199 Q541.719 711.199 547.831 720.412 Q553.988 729.578 553.988 747.078 Q553.988 764.532 547.831 773.745 Q541.719 782.911 530.099 782.911 Q518.479 782.911 512.321 773.745 Q506.21 764.532 506.21 747.078 Q506.21 729.578 512.321 720.412 Q518.479 711.199 530.099 711.199 Z" fill="#000000" fill-rule="nonzero" fill-opacity="1" /><path clip-path="url(#clip190)" d="M570.423 769.809 L580.191 769.809 L580.191 781.569 L570.423 781.569 L570.423 769.809 Z" fill="#000000" fill-rule="nonzero" fill-opacity="1" /><path clip-path="url(#clip190)" d="M620.562 718.606 Q613.339 718.606 609.682 725.736 Q606.071 732.819 606.071 747.078 Q606.071 761.291 609.682 768.421 Q613.339 775.504 620.562 775.504 Q627.83 775.504 631.441 768.421 Q635.099 761.291 635.099 747.078 Q635.099 732.819 631.441 725.736 Q627.83 718.606 620.562 718.606 M620.562 711.199 Q632.182 711.199 638.293 720.412 Q644.45 729.578 644.45 747.078 Q644.45 764.532 638.293 773.745 Q632.182 782.911 620.562 782.911 Q608.941 782.911 602.784 773.745 Q596.673 764.532 596.673 747.078 Q596.673 729.578 602.784 720.412 Q608.941 711.199 620.562 711.199 Z" fill="#000000" fill-rule="nonzero" fill-opacity="1" /><path clip-path="url(#clip190)" d="M397.507 589.654 L430.146 589.654 L430.146 597.524 L386.257 597.524 L386.257 589.654 Q391.581 584.144 400.748 574.885 Q409.961 565.58 412.322 562.894 Q416.813 557.848 418.572 554.376 Q420.378 550.858 420.378 547.478 Q420.378 541.969 416.489 538.496 Q412.646 535.024 406.442 535.024 Q402.044 535.024 397.137 536.552 Q392.276 538.08 386.72 541.182 L386.72 531.737 Q392.368 529.469 397.276 528.311 Q402.183 527.154 406.257 527.154 Q416.998 527.154 423.387 532.524 Q429.776 537.895 429.776 546.876 Q429.776 551.135 428.155 554.978 Q426.581 558.774 422.368 563.959 Q421.211 565.302 415.007 571.737 Q408.803 578.126 397.507 589.654 Z" fill="#000000" fill-rule="nonzero" fill-opacity="1" /><path clip-path="url(#clip190)" d="M449.868 528.404 L486.581 528.404 L486.581 536.274 L458.433 536.274 L458.433 553.219 Q460.47 552.524 462.507 552.2 Q464.544 551.83 466.581 551.83 Q478.155 551.83 484.914 558.172 Q491.673 564.515 491.673 575.348 Q491.673 586.505 484.729 592.709 Q477.785 598.867 465.146 598.867 Q460.794 598.867 456.257 598.126 Q451.766 597.385 446.951 595.904 L446.951 586.505 Q451.118 588.774 455.562 589.885 Q460.007 590.996 464.961 590.996 Q472.97 590.996 477.646 586.783 Q482.322 582.57 482.322 575.348 Q482.322 568.126 477.646 563.913 Q472.97 559.7 464.961 559.7 Q461.211 559.7 457.461 560.533 Q453.757 561.367 449.868 563.126 L449.868 528.404 Z" fill="#000000" fill-rule="nonzero" fill-opacity="1" /><path clip-path="url(#clip190)" d="M530.099 534.561 Q522.877 534.561 519.22 541.691 Q515.608 548.774 515.608 563.033 Q515.608 577.246 519.22 584.376 Q522.877 591.459 530.099 591.459 Q537.368 591.459 540.979 584.376 Q544.636 577.246 544.636 563.033 Q544.636 548.774 540.979 541.691 Q537.368 534.561 530.099 534.561 M530.099 527.154 Q541.719 527.154 547.831 536.367 Q553.988 545.533 553.988 563.033 Q553.988 580.487 547.831 589.7 Q541.719 598.867 530.099 598.867 Q518.479 598.867 512.321 589.7 Q506.21 580.487 506.21 563.033 Q506.21 545.533 512.321 536.367 Q518.479 527.154 530.099 527.154 Z" fill="#000000" fill-rule="nonzero" fill-opacity="1" /><path clip-path="url(#clip190)" d="M570.423 585.765 L580.191 585.765 L580.191 597.524 L570.423 597.524 L570.423 585.765 Z" fill="#000000" fill-rule="nonzero" fill-opacity="1" /><path clip-path="url(#clip190)" d="M620.562 534.561 Q613.339 534.561 609.682 541.691 Q606.071 548.774 606.071 563.033 Q606.071 577.246 609.682 584.376 Q613.339 591.459 620.562 591.459 Q627.83 591.459 631.441 584.376 Q635.099 577.246 635.099 563.033 Q635.099 548.774 631.441 541.691 Q627.83 534.561 620.562 534.561 M620.562 527.154 Q632.182 527.154 638.293 536.367 Q644.45 545.533 644.45 563.033 Q644.45 580.487 638.293 589.7 Q632.182 598.867 620.562 598.867 Q608.941 598.867 602.784 589.7 Q596.673 580.487 596.673 563.033 Q596.673 545.533 602.784 536.367 Q608.941 527.154 620.562 527.154 Z" fill="#000000" fill-rule="nonzero" fill-opacity="1" /><path clip-path="url(#clip190)" d="M417.785 376.211 Q424.498 377.646 428.248 382.183 Q432.044 386.72 432.044 393.387 Q432.044 403.618 425.007 409.22 Q417.97 414.822 405.007 414.822 Q400.655 414.822 396.026 413.942 Q391.442 413.109 386.535 411.396 L386.535 402.368 Q390.424 404.637 395.054 405.794 Q399.683 406.952 404.729 406.952 Q413.526 406.952 418.109 403.479 Q422.739 400.007 422.739 393.387 Q422.739 387.276 418.433 383.85 Q414.174 380.378 406.535 380.378 L398.479 380.378 L398.479 372.692 L406.905 372.692 Q413.803 372.692 417.461 369.961 Q421.118 367.183 421.118 361.998 Q421.118 356.674 417.322 353.85 Q413.572 350.98 406.535 350.98 Q402.692 350.98 398.294 351.813 Q393.896 352.646 388.618 354.406 L388.618 346.072 Q393.942 344.591 398.572 343.85 Q403.248 343.109 407.368 343.109 Q418.016 343.109 424.22 347.97 Q430.424 352.785 430.424 361.026 Q430.424 366.767 427.137 370.748 Q423.85 374.683 417.785 376.211 Z" fill="#000000" fill-rule="nonzero" fill-opacity="1" /><path clip-path="url(#clip190)" d="M469.775 350.517 Q462.553 350.517 458.896 357.646 Q455.285 364.73 455.285 378.989 Q455.285 393.202 458.896 400.331 Q462.553 407.414 469.775 407.414 Q477.044 407.414 480.655 400.331 Q484.312 393.202 484.312 378.989 Q484.312 364.73 480.655 357.646 Q477.044 350.517 469.775 350.517 M469.775 343.109 Q481.396 343.109 487.507 352.322 Q493.664 361.489 493.664 378.989 Q493.664 396.442 487.507 405.655 Q481.396 414.822 469.775 414.822 Q458.155 414.822 451.998 405.655 Q445.887 396.442 445.887 378.989 Q445.887 361.489 451.998 352.322 Q458.155 343.109 469.775 343.109 Z" fill="#000000" fill-rule="nonzero" fill-opacity="1" /><path clip-path="url(#clip190)" d="M530.099 350.517 Q522.877 350.517 519.22 357.646 Q515.608 364.73 515.608 378.989 Q515.608 393.202 519.22 400.331 Q522.877 407.414 530.099 407.414 Q537.368 407.414 540.979 400.331 Q544.636 393.202 544.636 378.989 Q544.636 364.73 540.979 357.646 Q537.368 350.517 530.099 350.517 M530.099 343.109 Q541.719 343.109 547.831 352.322 Q553.988 361.489 553.988 378.989 Q553.988 396.442 547.831 405.655 Q541.719 414.822 530.099 414.822 Q518.479 414.822 512.321 405.655 Q506.21 396.442 506.21 378.989 Q506.21 361.489 512.321 352.322 Q518.479 343.109 530.099 343.109 Z" fill="#000000" fill-rule="nonzero" fill-opacity="1" /><path clip-path="url(#clip190)" d="M570.423 401.72 L580.191 401.72 L580.191 413.479 L570.423 413.479 L570.423 401.72 Z" fill="#000000" fill-rule="nonzero" fill-opacity="1" /><path clip-path="url(#clip190)" d="M620.562 350.517 Q613.339 350.517 609.682 357.646 Q606.071 364.73 606.071 378.989 Q606.071 393.202 609.682 400.331 Q613.339 407.414 620.562 407.414 Q627.83 407.414 631.441 400.331 Q635.099 393.202 635.099 378.989 Q635.099 364.73 631.441 357.646 Q627.83 350.517 620.562 350.517 M620.562 343.109 Q632.182 343.109 638.293 352.322 Q644.45 361.489 644.45 378.989 Q644.45 396.442 638.293 405.655 Q632.182 414.822 620.562 414.822 Q608.941 414.822 602.784 405.655 Q596.673 396.442 596.673 378.989 Q596.673 361.489 602.784 352.322 Q608.941 343.109 620.562 343.109 Z" fill="#000000" fill-rule="nonzero" fill-opacity="1" /><path clip-path="url(#clip190)" d="M417.785 192.166 Q424.498 193.601 428.248 198.138 Q432.044 202.675 432.044 209.342 Q432.044 219.574 425.007 225.175 Q417.97 230.777 405.007 230.777 Q400.655 230.777 396.026 229.898 Q391.442 229.064 386.535 227.351 L386.535 218.324 Q390.424 220.592 395.054 221.749 Q399.683 222.907 404.729 222.907 Q413.526 222.907 418.109 219.435 Q422.739 215.962 422.739 209.342 Q422.739 203.231 418.433 199.805 Q414.174 196.333 406.535 196.333 L398.479 196.333 L398.479 188.648 L406.905 188.648 Q413.803 188.648 417.461 185.916 Q421.118 183.139 421.118 177.953 Q421.118 172.629 417.322 169.805 Q413.572 166.935 406.535 166.935 Q402.692 166.935 398.294 167.768 Q393.896 168.602 388.618 170.361 L388.618 162.028 Q393.942 160.546 398.572 159.805 Q403.248 159.065 407.368 159.065 Q418.016 159.065 424.22 163.926 Q430.424 168.74 430.424 176.981 Q430.424 182.722 427.137 186.703 Q423.85 190.639 417.785 192.166 Z" fill="#000000" fill-rule="nonzero" fill-opacity="1" /><path clip-path="url(#clip190)" d="M449.868 160.315 L486.581 160.315 L486.581 168.185 L458.433 168.185 L458.433 185.129 Q460.47 184.435 462.507 184.111 Q464.544 183.74 466.581 183.74 Q478.155 183.74 484.914 190.083 Q491.673 196.426 491.673 207.259 Q491.673 218.416 484.729 224.62 Q477.785 230.777 465.146 230.777 Q460.794 230.777 456.257 230.036 Q451.766 229.296 446.951 227.814 L446.951 218.416 Q451.118 220.685 455.562 221.796 Q460.007 222.907 464.961 222.907 Q472.97 222.907 477.646 218.694 Q482.322 214.481 482.322 207.259 Q482.322 200.037 477.646 195.824 Q472.97 191.611 464.961 191.611 Q461.211 191.611 457.461 192.444 Q453.757 193.277 449.868 195.037 L449.868 160.315 Z" fill="#000000" fill-rule="nonzero" fill-opacity="1" /><path clip-path="url(#clip190)" d="M530.099 166.472 Q522.877 166.472 519.22 173.602 Q515.608 180.685 515.608 194.944 Q515.608 209.157 519.22 216.287 Q522.877 223.37 530.099 223.37 Q537.368 223.37 540.979 216.287 Q544.636 209.157 544.636 194.944 Q544.636 180.685 540.979 173.602 Q537.368 166.472 530.099 166.472 M530.099 159.065 Q541.719 159.065 547.831 168.278 Q553.988 177.444 553.988 194.944 Q553.988 212.398 547.831 221.611 Q541.719 230.777 530.099 230.777 Q518.479 230.777 512.321 221.611 Q506.21 212.398 506.21 194.944 Q506.21 177.444 512.321 168.278 Q518.479 159.065 530.099 159.065 Z" fill="#000000" fill-rule="nonzero" fill-opacity="1" /><path clip-path="url(#clip190)" d="M570.423 217.675 L580.191 217.675 L580.191 229.435 L570.423 229.435 L570.423 217.675 Z" fill="#000000" fill-rule="nonzero" fill-opacity="1" /><path clip-path="url(#clip190)" d="M620.562 166.472 Q613.339 166.472 609.682 173.602 Q606.071 180.685 606.071 194.944 Q606.071 209.157 609.682 216.287 Q613.339 223.37 620.562 223.37 Q627.83 223.37 631.441 216.287 Q635.099 209.157 635.099 194.944 Q635.099 180.685 631.441 173.602 Q627.83 166.472 620.562 166.472 M620.562 159.065 Q632.182 159.065 638.293 168.278 Q644.45 177.444 644.45 194.944 Q644.45 212.398 638.293 221.611 Q632.182 230.777 620.562 230.777 Q608.941 230.777 602.784 221.611 Q596.673 212.398 596.673 194.944 Q596.673 177.444 602.784 168.278 Q608.941 159.065 620.562 159.065 Z" fill="#000000" fill-rule="nonzero" fill-opacity="1" /><path clip-path="url(#clip190)" d="M311.051 931.4 L348.863 931.4 L348.863 943.176 L250.449 943.176 L250.449 931.4 L261.271 931.4 Q254.905 927.708 251.85 922.106 Q248.731 916.44 248.731 908.61 Q248.731 895.624 259.043 887.54 Q269.356 879.392 286.161 879.392 Q302.966 879.392 313.279 887.54 Q323.591 895.624 323.591 908.61 Q323.591 916.44 320.536 922.106 Q317.417 927.708 311.051 931.4 M286.161 891.55 Q273.239 891.55 265.918 896.898 Q258.534 902.181 258.534 911.475 Q258.534 920.769 265.918 926.116 Q273.239 931.4 286.161 931.4 Q299.083 931.4 306.468 926.116 Q313.788 920.769 313.788 911.475 Q313.788 902.181 306.468 896.898 Q299.083 891.55 286.161 891.55 Z" fill="#000000" fill-rule="nonzero" fill-opacity="1" /><path clip-path="url(#clip190)" d="M285.906 827.575 Q285.906 841.771 289.153 847.245 Q292.399 852.72 300.229 852.72 Q306.468 852.72 310.16 848.645 Q313.788 844.508 313.788 837.442 Q313.788 827.702 306.913 821.846 Q299.975 815.926 288.516 815.926 L285.906 815.926 L285.906 827.575 M281.068 804.213 L321.745 804.213 L321.745 815.926 L310.924 815.926 Q317.417 819.936 320.536 825.92 Q323.591 831.904 323.591 840.561 Q323.591 851.51 317.48 858.003 Q311.306 864.432 300.993 864.432 Q288.962 864.432 282.851 856.412 Q276.74 848.327 276.74 832.349 L276.74 815.926 L275.594 815.926 Q267.509 815.926 263.117 821.273 Q258.661 826.556 258.661 836.169 Q258.661 842.28 260.125 848.073 Q261.589 853.865 264.518 859.213 L253.696 859.213 Q251.213 852.783 250.004 846.736 Q248.731 840.688 248.731 834.959 Q248.731 819.491 256.751 811.852 Q264.772 804.213 281.068 804.213 Z" fill="#000000" fill-rule="nonzero" fill-opacity="1" /><path clip-path="url(#clip190)" d="M261.398 738.773 Q260.253 740.747 259.743 743.102 Q259.17 745.394 259.17 748.195 Q259.17 758.125 265.663 763.472 Q272.093 768.756 284.188 768.756 L321.745 768.756 L321.745 780.532 L250.449 780.532 L250.449 768.756 L261.526 768.756 Q255.033 765.064 251.914 759.144 Q248.731 753.224 248.731 744.757 Q248.731 743.548 248.922 742.084 Q249.049 740.619 249.367 738.837 L261.398 738.773 Z" fill="#000000" fill-rule="nonzero" fill-opacity="1" /><path clip-path="url(#clip190)" d="M283.169 668.369 L288.898 668.369 L288.898 722.223 Q300.993 721.459 307.359 714.966 Q313.661 708.409 313.661 696.76 Q313.661 690.012 312.006 683.71 Q310.351 677.344 307.041 671.106 L318.117 671.106 Q320.79 677.408 322.191 684.028 Q323.591 690.649 323.591 697.46 Q323.591 714.52 313.661 724.514 Q303.73 734.445 286.798 734.445 Q269.292 734.445 259.043 725.023 Q248.731 715.539 248.731 699.497 Q248.731 685.11 258.025 676.771 Q267.255 668.369 283.169 668.369 M279.732 680.082 Q270.119 680.209 264.39 685.492 Q258.661 690.712 258.661 699.37 Q258.661 709.173 264.199 715.093 Q269.737 720.949 279.795 721.841 L279.732 680.082 Z" fill="#000000" fill-rule="nonzero" fill-opacity="1" /><path clip-path="url(#clip190)" d="M278.713 589.88 L321.745 589.88 L321.745 601.592 L279.095 601.592 Q268.974 601.592 263.945 605.539 Q258.916 609.486 258.916 617.379 Q258.916 626.864 264.963 632.339 Q271.011 637.813 281.45 637.813 L321.745 637.813 L321.745 649.59 L250.449 649.59 L250.449 637.813 L261.526 637.813 Q255.096 633.612 251.914 627.946 Q248.731 622.217 248.731 614.769 Q248.731 602.484 256.37 596.182 Q263.945 589.88 278.713 589.88 Z" fill="#000000" fill-rule="nonzero" fill-opacity="1" /><path clip-path="url(#clip190)" d="M305.576 564.862 L305.576 551.431 L321.745 551.431 L321.745 564.862 L305.576 564.862 Z" fill="#000000" fill-rule="nonzero" fill-opacity="1" /><path clip-path="url(#clip190)" d="M310.924 479.753 L310.924 458.746 L238.418 458.746 L243.002 481.599 L231.289 481.599 L226.705 458.873 L226.705 446.015 L310.924 446.015 L310.924 425.008 L321.745 425.008 L321.745 479.753 L310.924 479.753 Z" fill="#000000" fill-rule="nonzero" fill-opacity="1" /><polyline clip-path="url(#clip192)" style="stroke:#008000; stroke-linecap:round; stroke-linejoin:round; stroke-width:8; stroke-opacity:1; fill:none" points="726.443,283.806 844.372,381.928 962.301,444.085 1080.23,490.531 1198.16,597.213 1316.09,616.1 1434.02,674.955 1551.95,749.582 1669.87,797.382 1787.8,893.117 1905.73,818.681 2023.66,753.864 2141.59,806.676 2259.52,833.53 "/>
<circle clip-path="url(#clip192)" cx="726.443" cy="283.806" r="14.4" fill="#008000" fill-rule="evenodd" fill-opacity="1" stroke="#000000" stroke-opacity="1" stroke-width="6.4"/>
<circle clip-path="url(#clip192)" cx="844.372" cy="381.928" r="14.4" fill="#008000" fill-rule="evenodd" fill-opacity="1" stroke="#000000" stroke-opacity="1" stroke-width="6.4"/>
<circle clip-path="url(#clip192)" cx="962.301" cy="444.085" r="14.4" fill="#008000" fill-rule="evenodd" fill-opacity="1" stroke="#000000" stroke-opacity="1" stroke-width="6.4"/>
<circle clip-path="url(#clip192)" cx="1080.23" cy="490.531" r="14.4" fill="#008000" fill-rule="evenodd" fill-opacity="1" stroke="#000000" stroke-opacity="1" stroke-width="6.4"/>
<circle clip-path="url(#clip192)" cx="1198.16" cy="597.213" r="14.4" fill="#008000" fill-rule="evenodd" fill-opacity="1" stroke="#000000" stroke-opacity="1" stroke-width="6.4"/>
<circle clip-path="url(#clip192)" cx="1316.09" cy="616.1" r="14.4" fill="#008000" fill-rule="evenodd" fill-opacity="1" stroke="#000000" stroke-opacity="1" stroke-width="6.4"/>
<circle clip-path="url(#clip192)" cx="1434.02" cy="674.955" r="14.4" fill="#008000" fill-rule="evenodd" fill-opacity="1" stroke="#000000" stroke-opacity="1" stroke-width="6.4"/>
<circle clip-path="url(#clip192)" cx="1551.95" cy="749.582" r="14.4" fill="#008000" fill-rule="evenodd" fill-opacity="1" stroke="#000000" stroke-opacity="1" stroke-width="6.4"/>
<circle clip-path="url(#clip192)" cx="1669.87" cy="797.382" r="14.4" fill="#008000" fill-rule="evenodd" fill-opacity="1" stroke="#000000" stroke-opacity="1" stroke-width="6.4"/>
<circle clip-path="url(#clip192)" cx="1787.8" cy="893.117" r="14.4" fill="#008000" fill-rule="evenodd" fill-opacity="1" stroke="#000000" stroke-opacity="1" stroke-width="6.4"/>
<circle clip-path="url(#clip192)" cx="1905.73" cy="818.681" r="14.4" fill="#008000" fill-rule="evenodd" fill-opacity="1" stroke="#000000" stroke-opacity="1" stroke-width="6.4"/>
<circle clip-path="url(#clip192)" cx="2023.66" cy="753.864" r="14.4" fill="#008000" fill-rule="evenodd" fill-opacity="1" stroke="#000000" stroke-opacity="1" stroke-width="6.4"/>
<circle clip-path="url(#clip192)" cx="2141.59" cy="806.676" r="14.4" fill="#008000" fill-rule="evenodd" fill-opacity="1" stroke="#000000" stroke-opacity="1" stroke-width="6.4"/>
<circle clip-path="url(#clip192)" cx="2259.52" cy="833.53" r="14.4" fill="#008000" fill-rule="evenodd" fill-opacity="1" stroke="#000000" stroke-opacity="1" stroke-width="6.4"/>
<polyline clip-path="url(#clip192)" style="stroke:#00008b; stroke-linecap:round; stroke-linejoin:round; stroke-width:8; stroke-opacity:1; fill:none" points="726.443,142.349 844.372,1015.99 962.301,998.275 1080.23,993.727 1198.16,996.137 1316.09,1001.18 1434.02,1014.34 1551.95,1021.79 1669.87,1038.19 1787.8,1047.44 1905.73,1067.34 2023.66,1082.05 2141.59,1098.36 2259.52,1114.89 "/>
<path clip-path="url(#clip192)" d="M726.443 154.379 L844.372 1084.03 L962.301 1085.95 L1080.23 1102.19 L1198.16 1115.13 L1316.09 1132.43 L1434.02 1151.71 L1551.95 1169.48 L1669.87 1175.6 L1787.8 1193.85 L1905.73 1209.58 L2023.66 1223.77 L2141.59 1235.27 L2259.52 1240.32 L2259.52 1019.95 L2141.59 997.589 L2023.66 975.388 L1905.73 966.889 L1787.8 937.561 L1669.87 938.904 L1551.95 930.344 L1434.02 928.366 L1316.09 923.5 L1198.16 930.3 L1080.23 930.921 L962.301 953.321 L844.372 985.248 L726.443 127.862  Z" fill="#0000ff" fill-rule="evenodd" fill-opacity="0.1"/>
<polyline clip-path="url(#clip192)" style="stroke:#0000ff; stroke-linecap:round; stroke-linejoin:round; stroke-width:0; stroke-opacity:0.1; fill:none" points="726.443,154.379 844.372,1084.03 962.301,1085.95 1080.23,1102.19 1198.16,1115.13 1316.09,1132.43 1434.02,1151.71 1551.95,1169.48 1669.87,1175.6 1787.8,1193.85 1905.73,1209.58 2023.66,1223.77 2141.59,1235.27 2259.52,1240.32 "/>
</svg>
