<?xml version="1.0" encoding="utf-8"?>
<svg xmlns="http://www.w3.org/2000/svg" xmlns:xlink="http://www.w3.org/1999/xlink" width="600" height="400" viewBox="0 0 2400 1600">
<defs>
  <clipPath id="clip120">
    <rect x="0" y="0" width="2400" height="1600"/>
  </clipPath>
</defs>
<path clip-path="url(#clip120)" d="M0 1600 L2400 1600 L2400 0 L0 0  Z" fill="#ffffff" fill-rule="evenodd" fill-opacity="1"/>
<defs>
  <clipPath id="clip121">
    <rect x="480" y="0" width="1681" height="1600"/>
  </clipPath>
</defs>
<path clip-path="url(#clip120)" d="M680.45 1273.7 L2305.51 1273.7 L2305.51 94.4882 L680.45 94.4882  Z" fill="#ffffff" fill-rule="evenodd" fill-opacity="1"/>
<defs>
  <clipPath id="clip122">
    <rect x="680" y="94" width="1626" height="1180"/>
  </clipPath>
</defs>
<polyline clip-path="url(#clip122)" style="stroke:#000000; stroke-linecap:round; stroke-linejoin:round; stroke-width:4; stroke-opacity:0.1; fill:none" points="726.443,1273.7 726.443,94.4882 "/>
<polyline clip-path="url(#clip122)" style="stroke:#000000; stroke-linecap:round; stroke-linejoin:round; stroke-width:4; stroke-opacity:0.1; fill:none" points="962.301,1273.7 962.301,94.4882 "/>
<polyline clip-path="url(#clip122)" style="stroke:#000000; stroke-linecap:round; stroke-linejoin:round; stroke-width:4; stroke-opacity:0.1; fill:none" points="1198.16,1273.7 1198.16,94.4882 "/>
<polyline clip-path="url(#clip122)" style="stroke:#000000; stroke-linecap:round; stroke-linejoin:round; stroke-width:4; stroke-opacity:0.1; fill:none" points="1434.02,1273.7 1434.02,94.4882 "/>
<polyline clip-path="url(#clip122)" style="stroke:#000000; stroke-linecap:round; stroke-linejoin:round; stroke-width:4; stroke-opacity:0.1; fill:none" points="1669.87,1273.7 1669.87,94.4882 "/>
<polyline clip-path="url(#clip122)" style="stroke:#000000; stroke-linecap:round; stroke-linejoin:round; stroke-width:4; stroke-opacity:0.1; fill:none" points="1905.73,1273.7 1905.73,94.4882 "/>
<polyline clip-path="url(#clip122)" style="stroke:#000000; stroke-linecap:round; stroke-linejoin:round; stroke-width:4; stroke-opacity:0.1; fill:none" points="2141.59,1273.7 2141.59,94.4882 "/>
<polyline clip-path="url(#clip120)" style="stroke:#000000; stroke-linecap:round; stroke-linejoin:round; stroke-width:8; stroke-opacity:1; fill:none" points="680.45,1273.7 2305.51,1273.7 "/>
<polyline clip-path="url(#clip120)" style="stroke:#000000; stroke-linecap:round; stroke-linejoin:round; stroke-width:8; stroke-opacity:1; fill:none" points="726.443,1273.7 726.443,1254.8 "/>
<polyline clip-path="url(#clip120)" style="stroke:#000000; stroke-linecap:round; stroke-linejoin:round; stroke-width:8; stroke-opacity:1; fill:none" points="962.301,1273.7 962.301,1254.8 "/>
<polyline clip-path="url(#clip120)" style="stroke:#000000; stroke-linecap:round; stroke-linejoin:round; stroke-width:8; stroke-opacity:1; fill:none" points="1198.16,1273.7 1198.16,1254.8 "/>
<polyline clip-path="url(#clip120)" style="stroke:#000000; stroke-linecap:round; stroke-linejoin:round; stroke-width:8; stroke-opacity:1; fill:none" points="1434.02,1273.7 1434.02,1254.8 "/>
<polyline clip-path="url(#clip120)" style="stroke:#000000; stroke-linecap:round; stroke-linejoin:round; stroke-width:8; stroke-opacity:1; fill:none" points="1669.87,1273.7 1669.87,1254.8 "/>
<polyline clip-path="url(#clip120)" style="stroke:#000000; stroke-linecap:round; stroke-linejoin:round; stroke-width:8; stroke-opacity:1; fill:none" points="1905.73,1273.7 1905.73,1254.8 "/>
<polyline clip-path="url(#clip120)" style="stroke:#000000; stroke-linecap:round; stroke-linejoin:round; stroke-width:8; stroke-opacity:1; fill:none" points="2141.59,1273.7 2141.59,1254.8 "/>
<path clip-path="url(#clip120)" d="M681.211 1316.33 Q673.989 1316.33 670.332 1323.46 Q666.721 1330.55 666.721 1344.81 Q666.721 1359.02 670.332 1366.15 Q673.989 1373.23 681.211 1373.23 Q688.48 1373.23 692.091 1366.15 Q695.748 1359.02 695.748 1344.81 Q695.748 1330.55 692.091 1323.46 Q688.48 1316.33 681.211 1316.33 M681.211 1308.93 Q692.832 1308.93 698.943 1318.14 Q705.1 1327.31 705.1 1344.81 Q705.1 1362.26 698.943 1371.47 Q692.832 1380.64 681.211 1380.64 Q669.591 1380.64 663.434 1371.47 Q657.323 1362.26 657.323 1344.81 Q657.323 1327.31 663.434 1318.14 Q669.591 1308.93 681.211 1308.93 Z" fill="#000000" fill-rule="nonzero" fill-opacity="1" /><path clip-path="url(#clip120)" d="M721.535 1367.54 L731.304 1367.54 L731.304 1379.3 L721.535 1379.3 L721.535 1367.54 Z" fill="#000000" fill-rule="nonzero" fill-opacity="1" /><path clip-path="url(#clip120)" d="M771.674 1316.33 Q764.452 1316.33 760.794 1323.46 Q757.183 1330.55 757.183 1344.81 Q757.183 1359.02 760.794 1366.15 Q764.452 1373.23 771.674 1373.23 Q778.942 1373.23 782.553 1366.15 Q786.211 1359.02 786.211 1344.81 Q786.211 1330.55 782.553 1323.46 Q778.942 1316.33 771.674 1316.33 M771.674 1308.93 Q783.294 1308.93 789.405 1318.14 Q795.563 1327.31 795.563 1344.81 Q795.563 1362.26 789.405 1371.47 Q783.294 1380.64 771.674 1380.64 Q760.054 1380.64 753.896 1371.47 Q747.785 1362.26 747.785 1344.81 Q747.785 1327.31 753.896 1318.14 Q760.054 1308.93 771.674 1308.93 Z" fill="#000000" fill-rule="nonzero" fill-opacity="1" /><path clip-path="url(#clip120)" d="M918.667 1316.33 Q911.444 1316.33 907.787 1323.46 Q904.176 1330.55 904.176 1344.81 Q904.176 1359.02 907.787 1366.15 Q911.444 1373.23 918.667 1373.23 Q925.935 1373.23 929.546 1366.15 Q933.204 1359.02 933.204 1344.81 Q933.204 1330.55 929.546 1323.46 Q925.935 1316.33 918.667 1316.33 M918.667 1308.93 Q930.287 1308.93 936.398 1318.14 Q942.555 1327.31 942.555 1344.81 Q942.555 1362.26 936.398 1371.47 Q930.287 1380.64 918.667 1380.64 Q907.046 1380.64 900.889 1371.47 Q894.778 1362.26 894.778 1344.81 Q894.778 1327.31 900.889 1318.14 Q907.046 1308.93 918.667 1308.93 Z" fill="#000000" fill-rule="nonzero" fill-opacity="1" /><path clip-path="url(#clip120)" d="M958.99 1367.54 L968.759 1367.54 L968.759 1379.3 L958.99 1379.3 L958.99 1367.54 Z" fill="#000000" fill-rule="nonzero" fill-opacity="1" /><path clip-path="url(#clip120)" d="M997.185 1371.43 L1029.82 1371.43 L1029.82 1379.3 L985.935 1379.3 L985.935 1371.43 Q991.259 1365.92 1000.43 1356.66 Q1009.64 1347.35 1012 1344.67 Q1016.49 1339.62 1018.25 1336.15 Q1020.05 1332.63 1020.05 1329.25 Q1020.05 1323.74 1016.17 1320.27 Q1012.32 1316.8 1006.12 1316.8 Q1001.72 1316.8 996.814 1318.32 Q991.953 1319.85 986.398 1322.95 L986.398 1313.51 Q992.046 1311.24 996.953 1310.08 Q1001.86 1308.93 1005.93 1308.93 Q1016.68 1308.93 1023.06 1314.3 Q1029.45 1319.67 1029.45 1328.65 Q1029.45 1332.91 1027.83 1336.75 Q1026.26 1340.55 1022.05 1345.73 Q1020.89 1347.07 1014.68 1353.51 Q1008.48 1359.9 997.185 1371.43 Z" fill="#000000" fill-rule="nonzero" fill-opacity="1" /><path clip-path="url(#clip120)" d="M1152.44 1316.33 Q1145.22 1316.33 1141.56 1323.46 Q1137.95 1330.55 1137.95 1344.81 Q1137.95 1359.02 1141.56 1366.15 Q1145.22 1373.23 1152.44 1373.23 Q1159.71 1373.23 1163.32 1366.15 Q1166.98 1359.02 1166.98 1344.81 Q1166.98 1330.55 1163.32 1323.46 Q1159.71 1316.33 1152.44 1316.33 M1152.44 1308.93 Q1164.06 1308.93 1170.17 1318.14 Q1176.33 1327.31 1176.33 1344.81 Q1176.33 1362.26 1170.17 1371.47 Q1164.06 1380.64 1152.44 1380.64 Q1140.82 1380.64 1134.66 1371.47 Q1128.55 1362.26 1128.55 1344.81 Q1128.55 1327.31 1134.66 1318.14 Q1140.82 1308.93 1152.44 1308.93 Z" fill="#000000" fill-rule="nonzero" fill-opacity="1" /><path clip-path="url(#clip120)" d="M1192.77 1367.54 L1202.53 1367.54 L1202.53 1379.3 L1192.77 1379.3 L1192.77 1367.54 Z" fill="#000000" fill-rule="nonzero" fill-opacity="1" /><path clip-path="url(#clip120)" d="M1248.6 1318.32 L1224.99 1355.22 L1248.6 1355.22 L1248.6 1318.32 M1246.14 1310.18 L1257.9 1310.18 L1257.9 1355.22 L1267.76 1355.22 L1267.76 1363 L1257.9 1363 L1257.9 1379.3 L1248.6 1379.3 L1248.6 1363 L1217.39 1363 L1217.39 1353.97 L1246.14 1310.18 Z" fill="#000000" fill-rule="nonzero" fill-opacity="1" /><path clip-path="url(#clip120)" d="M1388.62 1316.33 Q1381.4 1316.33 1377.74 1323.46 Q1374.13 1330.55 1374.13 1344.81 Q1374.13 1359.02 1377.74 1366.15 Q1381.4 1373.23 1388.62 1373.23 Q1395.89 1373.23 1399.5 1366.15 Q1403.16 1359.02 1403.16 1344.81 Q1403.16 1330.55 1399.5 1323.46 Q1395.89 1316.33 1388.62 1316.33 M1388.62 1308.93 Q1400.24 1308.93 1406.35 1318.14 Q1412.51 1327.31 1412.51 1344.81 Q1412.51 1362.26 1406.35 1371.47 Q1400.24 1380.64 1388.62 1380.64 Q1377 1380.64 1370.85 1371.47 Q1364.73 1362.26 1364.73 1344.81 Q1364.73 1327.31 1370.85 1318.14 Q1377 1308.93 1388.62 1308.93 Z" fill="#000000" fill-rule="nonzero" fill-opacity="1" /><path clip-path="url(#clip120)" d="M1428.95 1367.54 L1438.72 1367.54 L1438.72 1379.3 L1428.95 1379.3 L1428.95 1367.54 Z" fill="#000000" fill-rule="nonzero" fill-opacity="1" /><path clip-path="url(#clip120)" d="M1480.24 1341.01 Q1473.95 1341.01 1470.24 1345.31 Q1466.59 1349.62 1466.59 1357.12 Q1466.59 1364.57 1470.24 1368.93 Q1473.95 1373.23 1480.24 1373.23 Q1486.54 1373.23 1490.2 1368.93 Q1493.9 1364.57 1493.9 1357.12 Q1493.9 1349.62 1490.2 1345.31 Q1486.54 1341.01 1480.24 1341.01 M1498.81 1311.7 L1498.81 1320.22 Q1495.29 1318.56 1491.68 1317.68 Q1488.11 1316.8 1484.6 1316.8 Q1475.34 1316.8 1470.43 1323.05 Q1465.57 1329.3 1464.87 1341.93 Q1467.6 1337.91 1471.72 1335.78 Q1475.85 1333.6 1480.8 1333.6 Q1491.22 1333.6 1497.23 1339.94 Q1503.3 1346.24 1503.3 1357.12 Q1503.3 1367.77 1497 1374.2 Q1490.71 1380.64 1480.24 1380.64 Q1468.25 1380.64 1461.91 1371.47 Q1455.57 1362.26 1455.57 1344.81 Q1455.57 1328.42 1463.35 1318.69 Q1471.12 1308.93 1484.22 1308.93 Q1487.74 1308.93 1491.31 1309.62 Q1494.92 1310.31 1498.81 1311.7 Z" fill="#000000" fill-rule="nonzero" fill-opacity="1" /><path clip-path="url(#clip120)" d="M1624.74 1316.33 Q1617.51 1316.33 1613.86 1323.46 Q1610.25 1330.55 1610.25 1344.81 Q1610.25 1359.02 1613.86 1366.15 Q1617.51 1373.23 1624.74 1373.23 Q1632 1373.23 1635.62 1366.15 Q1639.27 1359.02 1639.27 1344.81 Q1639.27 1330.55 1635.62 1323.46 Q1632 1316.33 1624.74 1316.33 M1624.74 1308.93 Q1636.36 1308.93 1642.47 1318.14 Q1648.62 1327.31 1648.62 1344.81 Q1648.62 1362.26 1642.47 1371.47 Q1636.36 1380.64 1624.74 1380.64 Q1613.12 1380.64 1606.96 1371.47 Q1600.85 1362.26 1600.85 1344.81 Q1600.85 1327.31 1606.96 1318.14 Q1613.12 1308.93 1624.74 1308.93 Z" fill="#000000" fill-rule="nonzero" fill-opacity="1" /><path clip-path="url(#clip120)" d="M1665.06 1367.54 L1674.83 1367.54 L1674.83 1379.3 L1665.06 1379.3 L1665.06 1367.54 Z" fill="#000000" fill-rule="nonzero" fill-opacity="1" /><path clip-path="url(#clip120)" d="M1715.2 1346.47 Q1708.53 1346.47 1704.69 1350.04 Q1700.89 1353.6 1700.89 1359.85 Q1700.89 1366.1 1704.69 1369.67 Q1708.53 1373.23 1715.2 1373.23 Q1721.87 1373.23 1725.71 1369.67 Q1729.55 1366.06 1729.55 1359.85 Q1729.55 1353.6 1725.71 1350.04 Q1721.91 1346.47 1715.2 1346.47 M1705.85 1342.49 Q1699.83 1341.01 1696.45 1336.89 Q1693.12 1332.77 1693.12 1326.84 Q1693.12 1318.56 1698.99 1313.74 Q1704.92 1308.93 1715.2 1308.93 Q1725.52 1308.93 1731.4 1313.74 Q1737.28 1318.56 1737.28 1326.84 Q1737.28 1332.77 1733.9 1336.89 Q1730.57 1341.01 1724.6 1342.49 Q1731.36 1344.06 1735.11 1348.65 Q1738.9 1353.23 1738.9 1359.85 Q1738.9 1369.9 1732.74 1375.27 Q1726.63 1380.64 1715.2 1380.64 Q1703.76 1380.64 1697.61 1375.27 Q1691.49 1369.9 1691.49 1359.85 Q1691.49 1353.23 1695.29 1348.65 Q1699.09 1344.06 1705.85 1342.49 M1702.42 1327.72 Q1702.42 1333.09 1705.75 1336.1 Q1709.13 1339.11 1715.2 1339.11 Q1721.22 1339.11 1724.6 1336.1 Q1728.02 1333.09 1728.02 1327.72 Q1728.02 1322.35 1724.6 1319.34 Q1721.22 1316.33 1715.2 1316.33 Q1709.13 1316.33 1705.75 1319.34 Q1702.42 1322.35 1702.42 1327.72 Z" fill="#000000" fill-rule="nonzero" fill-opacity="1" /><path clip-path="url(#clip120)" d="M1840.04 1371.43 L1855.32 1371.43 L1855.32 1318.69 L1838.7 1322.03 L1838.7 1313.51 L1855.22 1310.18 L1864.58 1310.18 L1864.58 1371.43 L1879.85 1371.43 L1879.85 1379.3 L1840.04 1379.3 L1840.04 1371.43 Z" fill="#000000" fill-rule="nonzero" fill-opacity="1" /><path clip-path="url(#clip120)" d="M1898.74 1367.54 L1908.51 1367.54 L1908.51 1379.3 L1898.74 1379.3 L1898.74 1367.54 Z" fill="#000000" fill-rule="nonzero" fill-opacity="1" /><path clip-path="url(#clip120)" d="M1948.88 1316.33 Q1941.66 1316.33 1938 1323.46 Q1934.39 1330.55 1934.39 1344.81 Q1934.39 1359.02 1938 1366.15 Q1941.66 1373.23 1948.88 1373.23 Q1956.15 1373.23 1959.76 1366.15 Q1963.42 1359.02 1963.42 1344.81 Q1963.42 1330.55 1959.76 1323.46 Q1956.15 1316.33 1948.88 1316.33 M1948.88 1308.93 Q1960.5 1308.93 1966.61 1318.14 Q1972.77 1327.31 1972.77 1344.81 Q1972.77 1362.26 1966.61 1371.47 Q1960.5 1380.64 1948.88 1380.64 Q1937.26 1380.64 1931.1 1371.47 Q1924.99 1362.26 1924.99 1344.81 Q1924.99 1327.31 1931.1 1318.14 Q1937.26 1308.93 1948.88 1308.93 Z" fill="#000000" fill-rule="nonzero" fill-opacity="1" /><path clip-path="url(#clip120)" d="M2077.49 1371.43 L2092.77 1371.43 L2092.77 1318.69 L2076.15 1322.03 L2076.15 1313.51 L2092.68 1310.18 L2102.03 1310.18 L2102.03 1371.43 L2117.31 1371.43 L2117.31 1379.3 L2077.49 1379.3 L2077.49 1371.43 Z" fill="#000000" fill-rule="nonzero" fill-opacity="1" /><path clip-path="url(#clip120)" d="M2136.2 1367.54 L2145.97 1367.54 L2145.97 1379.3 L2136.2 1379.3 L2136.2 1367.54 Z" fill="#000000" fill-rule="nonzero" fill-opacity="1" /><path clip-path="url(#clip120)" d="M2174.39 1371.43 L2207.03 1371.43 L2207.03 1379.3 L2163.14 1379.3 L2163.14 1371.43 Q2168.47 1365.92 2177.63 1356.66 Q2186.84 1347.35 2189.21 1344.67 Q2193.7 1339.62 2195.46 1336.15 Q2197.26 1332.63 2197.26 1329.25 Q2197.26 1323.74 2193.37 1320.27 Q2189.53 1316.8 2183.33 1316.8 Q2178.93 1316.8 2174.02 1318.32 Q2169.16 1319.85 2163.6 1322.95 L2163.6 1313.51 Q2169.25 1311.24 2174.16 1310.08 Q2179.07 1308.93 2183.14 1308.93 Q2193.88 1308.93 2200.27 1314.3 Q2206.66 1319.67 2206.66 1328.65 Q2206.66 1332.91 2205.04 1336.75 Q2203.47 1340.55 2199.25 1345.73 Q2198.09 1347.07 2191.89 1353.51 Q2185.69 1359.9 2174.39 1371.43 Z" fill="#000000" fill-rule="nonzero" fill-opacity="1" /><path clip-path="url(#clip120)" d="M1378.53 1484.39 L1378.53 1527.42 L1366.81 1527.42 L1366.81 1484.77 Q1366.81 1474.65 1362.87 1469.62 Q1358.92 1464.59 1351.03 1464.59 Q1341.54 1464.59 1336.07 1470.64 Q1330.59 1476.69 1330.59 1487.13 L1330.59 1527.42 L1318.82 1527.42 L1318.82 1428.37 L1330.59 1428.37 L1330.59 1467.2 Q1334.79 1460.77 1340.46 1457.59 Q1346.19 1454.41 1353.64 1454.41 Q1365.92 1454.41 1372.22 1462.05 Q1378.53 1469.62 1378.53 1484.39 Z" fill="#000000" fill-rule="nonzero" fill-opacity="1" /><path clip-path="url(#clip120)" d="M1429.51 1464.34 Q1420.09 1464.34 1414.62 1471.72 Q1409.14 1479.04 1409.14 1491.84 Q1409.14 1504.63 1414.56 1512.02 Q1420.03 1519.34 1429.51 1519.34 Q1438.87 1519.34 1444.35 1511.96 Q1449.82 1504.57 1449.82 1491.84 Q1449.82 1479.17 1444.35 1471.79 Q1438.87 1464.34 1429.51 1464.34 M1429.51 1454.41 Q1444.79 1454.41 1453.51 1464.34 Q1462.23 1474.27 1462.23 1491.84 Q1462.23 1509.35 1453.51 1519.34 Q1444.79 1529.27 1429.51 1529.27 Q1414.17 1529.27 1405.45 1519.34 Q1396.8 1509.35 1396.8 1491.84 Q1396.8 1474.27 1405.45 1464.34 Q1414.17 1454.41 1429.51 1454.41 Z" fill="#000000" fill-rule="nonzero" fill-opacity="1" /><path clip-path="url(#clip120)" d="M1480.44 1499.29 L1480.44 1456.13 L1492.15 1456.13 L1492.15 1498.84 Q1492.15 1508.96 1496.1 1514.06 Q1500.05 1519.08 1507.94 1519.08 Q1517.43 1519.08 1522.9 1513.04 Q1528.44 1506.99 1528.44 1496.55 L1528.44 1456.13 L1540.15 1456.13 L1540.15 1527.42 L1528.44 1527.42 L1528.44 1516.47 Q1524.17 1522.97 1518.51 1526.15 Q1512.91 1529.27 1505.46 1529.27 Q1493.17 1529.27 1486.81 1521.63 Q1480.44 1513.99 1480.44 1499.29 M1509.91 1454.41 L1509.91 1454.41 Z" fill="#000000" fill-rule="nonzero" fill-opacity="1" /><path clip-path="url(#clip120)" d="M1605.59 1467.08 Q1603.62 1465.93 1601.26 1465.42 Q1598.97 1464.85 1596.17 1464.85 Q1586.24 1464.85 1580.89 1471.34 Q1575.61 1477.77 1575.61 1489.87 L1575.61 1527.42 L1563.83 1527.42 L1563.83 1456.13 L1575.61 1456.13 L1575.61 1467.2 Q1579.3 1460.71 1585.22 1457.59 Q1591.14 1454.41 1599.61 1454.41 Q1600.82 1454.41 1602.28 1454.6 Q1603.74 1454.73 1605.53 1455.05 L1605.59 1467.08 Z" fill="#000000" fill-rule="nonzero" fill-opacity="1" /><path clip-path="url(#clip120)" d="M1663.33 1458.23 L1663.33 1469.3 Q1658.36 1466.76 1653.01 1465.49 Q1647.67 1464.21 1641.94 1464.21 Q1633.22 1464.21 1628.83 1466.89 Q1624.5 1469.56 1624.5 1474.91 Q1624.5 1478.98 1627.62 1481.34 Q1630.73 1483.63 1640.16 1485.73 L1644.17 1486.62 Q1656.64 1489.29 1661.86 1494.19 Q1667.15 1499.03 1667.15 1507.75 Q1667.15 1517.68 1659.25 1523.48 Q1651.42 1529.27 1637.67 1529.27 Q1631.94 1529.27 1625.71 1528.12 Q1619.53 1527.04 1612.66 1524.81 L1612.66 1512.72 Q1619.15 1516.09 1625.45 1517.81 Q1631.75 1519.47 1637.93 1519.47 Q1646.2 1519.47 1650.66 1516.67 Q1655.12 1513.8 1655.12 1508.64 Q1655.12 1503.87 1651.87 1501.32 Q1648.69 1498.78 1637.8 1496.42 L1633.73 1495.47 Q1622.84 1493.18 1618 1488.47 Q1613.17 1483.69 1613.17 1475.42 Q1613.17 1465.36 1620.3 1459.88 Q1627.42 1454.41 1640.54 1454.41 Q1647.03 1454.41 1652.76 1455.36 Q1658.49 1456.32 1663.33 1458.23 Z" fill="#000000" fill-rule="nonzero" fill-opacity="1" /><polyline clip-path="url(#clip122)" style="stroke:#000000; stroke-linecap:round; stroke-linejoin:round; stroke-width:4; stroke-opacity:0.1; fill:none" points="680.45,1108.29 2305.51,1108.29 "/>
<polyline clip-path="url(#clip122)" style="stroke:#000000; stroke-linecap:round; stroke-linejoin:round; stroke-width:4; stroke-opacity:0.1; fill:none" points="680.45,925.721 2305.51,925.721 "/>
<polyline clip-path="url(#clip122)" style="stroke:#000000; stroke-linecap:round; stroke-linejoin:round; stroke-width:4; stroke-opacity:0.1; fill:none" points="680.45,743.149 2305.51,743.149 "/>
<polyline clip-path="url(#clip122)" style="stroke:#000000; stroke-linecap:round; stroke-linejoin:round; stroke-width:4; stroke-opacity:0.1; fill:none" points="680.45,560.577 2305.51,560.577 "/>
<polyline clip-path="url(#clip122)" style="stroke:#000000; stroke-linecap:round; stroke-linejoin:round; stroke-width:4; stroke-opacity:0.1; fill:none" points="680.45,378.004 2305.51,378.004 "/>
<polyline clip-path="url(#clip122)" style="stroke:#000000; stroke-linecap:round; stroke-linejoin:round; stroke-width:4; stroke-opacity:0.1; fill:none" points="680.45,195.432 2305.51,195.432 "/>
<polyline clip-path="url(#clip120)" style="stroke:#000000; stroke-linecap:round; stroke-linejoin:round; stroke-width:8; stroke-opacity:1; fill:none" points="680.45,1273.7 680.45,94.4882 "/>
<polyline clip-path="url(#clip120)" style="stroke:#000000; stroke-linecap:round; stroke-linejoin:round; stroke-width:8; stroke-opacity:1; fill:none" points="680.45,1108.29 699.348,1108.29 "/>
<polyline clip-path="url(#clip120)" style="stroke:#000000; stroke-linecap:round; stroke-linejoin:round; stroke-width:8; stroke-opacity:1; fill:none" points="680.45,925.721 699.348,925.721 "/>
<polyline clip-path="url(#clip120)" style="stroke:#000000; stroke-linecap:round; stroke-linejoin:round; stroke-width:8; stroke-opacity:1; fill:none" points="680.45,743.149 699.348,743.149 "/>
<polyline clip-path="url(#clip120)" style="stroke:#000000; stroke-linecap:round; stroke-linejoin:round; stroke-width:8; stroke-opacity:1; fill:none" points="680.45,560.577 699.348,560.577 "/>
<polyline clip-path="url(#clip120)" style="stroke:#000000; stroke-linecap:round; stroke-linejoin:round; stroke-width:8; stroke-opacity:1; fill:none" points="680.45,378.004 699.348,378.004 "/>
<polyline clip-path="url(#clip120)" style="stroke:#000000; stroke-linecap:round; stroke-linejoin:round; stroke-width:8; stroke-opacity:1; fill:none" points="680.45,195.432 699.348,195.432 "/>
<path clip-path="url(#clip120)" d="M391.072 1134.98 L406.35 1134.98 L406.35 1082.25 L389.73 1085.58 L389.73 1077.07 L406.257 1073.73 L415.609 1073.73 L415.609 1134.98 L430.887 1134.98 L430.887 1142.85 L391.072 1142.85 L391.072 1134.98 Z" fill="#000000" fill-rule="nonzero" fill-opacity="1" /><path clip-path="url(#clip120)" d="M469.775 1079.89 Q462.553 1079.89 458.896 1087.02 Q455.285 1094.1 455.285 1108.36 Q455.285 1122.58 458.896 1129.71 Q462.553 1136.79 469.775 1136.79 Q477.044 1136.79 480.655 1129.71 Q484.312 1122.58 484.312 1108.36 Q484.312 1094.1 480.655 1087.02 Q477.044 1079.89 469.775 1079.89 M469.775 1072.48 Q481.396 1072.48 487.507 1081.7 Q493.664 1090.86 493.664 1108.36 Q493.664 1125.82 487.507 1135.03 Q481.396 1144.2 469.775 1144.2 Q458.155 1144.2 451.998 1135.03 Q445.887 1125.82 445.887 1108.36 Q445.887 1090.86 451.998 1081.7 Q458.155 1072.48 469.775 1072.48 Z" fill="#000000" fill-rule="nonzero" fill-opacity="1" /><path clip-path="url(#clip120)" d="M530.099 1079.89 Q522.877 1079.89 519.22 1087.02 Q515.608 1094.1 515.608 1108.36 Q515.608 1122.58 519.22 1129.71 Q522.877 1136.79 530.099 1136.79 Q537.368 1136.79 540.979 1129.71 Q544.636 1122.58 544.636 1108.36 Q544.636 1094.1 540.979 1087.02 Q537.368 1079.89 530.099 1079.89 M530.099 1072.48 Q541.719 1072.48 547.831 1081.7 Q553.988 1090.86 553.988 1108.36 Q553.988 1125.82 547.831 1135.03 Q541.719 1144.2 530.099 1144.2 Q518.479 1144.2 512.321 1135.03 Q506.21 1125.82 506.21 1108.36 Q506.21 1090.86 512.321 1081.7 Q518.479 1072.48 530.099 1072.48 Z" fill="#000000" fill-rule="nonzero" fill-opacity="1" /><path clip-path="url(#clip120)" d="M570.423 1131.09 L580.191 1131.09 L580.191 1142.85 L570.423 1142.85 L570.423 1131.09 Z" fill="#000000" fill-rule="nonzero" fill-opacity="1" /><path clip-path="url(#clip120)" d="M620.562 1079.89 Q613.339 1079.89 609.682 1087.02 Q606.071 1094.1 606.071 1108.36 Q606.071 1122.58 609.682 1129.71 Q613.339 1136.79 620.562 1136.79 Q627.83 1136.79 631.441 1129.71 Q635.099 1122.58 635.099 1108.36 Q635.099 1094.1 631.441 1087.02 Q627.83 1079.89 620.562 1079.89 M620.562 1072.48 Q632.182 1072.48 638.293 1081.7 Q644.45 1090.86 644.45 1108.36 Q644.45 1125.82 638.293 1135.03 Q632.182 1144.2 620.562 1144.2 Q608.941 1144.2 602.784 1135.03 Q596.673 1125.82 596.673 1108.36 Q596.673 1090.86 602.784 1081.7 Q608.941 1072.48 620.562 1072.48 Z" fill="#000000" fill-rule="nonzero" fill-opacity="1" /><path clip-path="url(#clip120)" d="M391.072 952.411 L406.35 952.411 L406.35 899.679 L389.73 903.013 L389.73 894.494 L406.257 891.161 L415.609 891.161 L415.609 952.411 L430.887 952.411 L430.887 960.281 L391.072 960.281 L391.072 952.411 Z" fill="#000000" fill-rule="nonzero" fill-opacity="1" /><path clip-path="url(#clip120)" d="M449.868 891.161 L486.581 891.161 L486.581 899.031 L458.433 899.031 L458.433 915.976 Q460.47 915.281 462.507 914.957 Q464.544 914.587 466.581 914.587 Q478.155 914.587 484.914 920.929 Q491.673 927.272 491.673 938.105 Q491.673 949.262 484.729 955.466 Q477.785 961.624 465.146 961.624 Q460.794 961.624 456.257 960.883 Q451.766 960.142 446.951 958.661 L446.951 949.262 Q451.118 951.531 455.562 952.642 Q460.007 953.753 464.961 953.753 Q472.97 953.753 477.646 949.54 Q482.322 945.327 482.322 938.105 Q482.322 930.883 477.646 926.67 Q472.97 922.457 464.961 922.457 Q461.211 922.457 457.461 923.29 Q453.757 924.124 449.868 925.883 L449.868 891.161 Z" fill="#000000" fill-rule="nonzero" fill-opacity="1" /><path clip-path="url(#clip120)" d="M530.099 897.318 Q522.877 897.318 519.22 904.448 Q515.608 911.531 515.608 925.79 Q515.608 940.003 519.22 947.133 Q522.877 954.216 530.099 954.216 Q537.368 954.216 540.979 947.133 Q544.636 940.003 544.636 925.79 Q544.636 911.531 540.979 904.448 Q537.368 897.318 530.099 897.318 M530.099 889.911 Q541.719 889.911 547.831 899.124 Q553.988 908.29 553.988 925.79 Q553.988 943.244 547.831 952.457 Q541.719 961.624 530.099 961.624 Q518.479 961.624 512.321 952.457 Q506.21 943.244 506.21 925.79 Q506.21 908.29 512.321 899.124 Q518.479 889.911 530.099 889.911 Z" fill="#000000" fill-rule="nonzero" fill-opacity="1" /><path clip-path="url(#clip120)" d="M570.423 948.522 L580.191 948.522 L580.191 960.281 L570.423 960.281 L570.423 948.522 Z" fill="#000000" fill-rule="nonzero" fill-opacity="1" /><path clip-path="url(#clip120)" d="M620.562 897.318 Q613.339 897.318 609.682 904.448 Q606.071 911.531 606.071 925.79 Q606.071 940.003 609.682 947.133 Q613.339 954.216 620.562 954.216 Q627.83 954.216 631.441 947.133 Q635.099 940.003 635.099 925.79 Q635.099 911.531 631.441 904.448 Q627.83 897.318 620.562 897.318 M620.562 889.911 Q632.182 889.911 638.293 899.124 Q644.45 908.29 644.45 925.79 Q644.45 943.244 638.293 952.457 Q632.182 961.624 620.562 961.624 Q608.941 961.624 602.784 952.457 Q596.673 943.244 596.673 925.79 Q596.673 908.29 602.784 899.124 Q608.941 889.911 620.562 889.911 Z" fill="#000000" fill-rule="nonzero" fill-opacity="1" /><path clip-path="url(#clip120)" d="M397.507 769.838 L430.146 769.838 L430.146 777.709 L386.257 777.709 L386.257 769.838 Q391.581 764.329 400.748 755.07 Q409.961 745.764 412.322 743.079 Q416.813 738.033 418.572 734.561 Q420.378 731.042 420.378 727.663 Q420.378 722.154 416.489 718.681 Q412.646 715.209 406.442 715.209 Q402.044 715.209 397.137 716.737 Q392.276 718.265 386.72 721.366 L386.72 711.922 Q392.368 709.654 397.276 708.496 Q402.183 707.339 406.257 707.339 Q416.998 707.339 423.387 712.709 Q429.776 718.079 429.776 727.061 Q429.776 731.32 428.155 735.163 Q426.581 738.959 422.368 744.144 Q421.211 745.487 415.007 751.922 Q408.803 758.311 397.507 769.838 Z" fill="#000000" fill-rule="nonzero" fill-opacity="1" /><path clip-path="url(#clip120)" d="M469.775 714.746 Q462.553 714.746 458.896 721.876 Q455.285 728.959 455.285 743.218 Q455.285 757.431 458.896 764.561 Q462.553 771.644 469.775 771.644 Q477.044 771.644 480.655 764.561 Q484.312 757.431 484.312 743.218 Q484.312 728.959 480.655 721.876 Q477.044 714.746 469.775 714.746 M469.775 707.339 Q481.396 707.339 487.507 716.552 Q493.664 725.718 493.664 743.218 Q493.664 760.672 487.507 769.885 Q481.396 779.051 469.775 779.051 Q458.155 779.051 451.998 769.885 Q445.887 760.672 445.887 743.218 Q445.887 725.718 451.998 716.552 Q458.155 707.339 469.775 707.339 Z" fill="#000000" fill-rule="nonzero" fill-opacity="1" /><path clip-path="url(#clip120)" d="M530.099 714.746 Q522.877 714.746 519.22 721.876 Q515.608 728.959 515.608 743.218 Q515.608 757.431 519.22 764.561 Q522.877 771.644 530.099 771.644 Q537.368 771.644 540.979 764.561 Q544.636 757.431 544.636 743.218 Q544.636 728.959 540.979 721.876 Q537.368 714.746 530.099 714.746 M530.099 707.339 Q541.719 707.339 547.831 716.552 Q553.988 725.718 553.988 743.218 Q553.988 760.672 547.831 769.885 Q541.719 779.051 530.099 779.051 Q518.479 779.051 512.321 769.885 Q506.21 760.672 506.21 743.218 Q506.21 725.718 512.321 716.552 Q518.479 707.339 530.099 707.339 Z" fill="#000000" fill-rule="nonzero" fill-opacity="1" /><path clip-path="url(#clip120)" d="M570.423 765.95 L580.191 765.95 L580.191 777.709 L570.423 777.709 L570.423 765.95 Z" fill="#000000" fill-rule="nonzero" fill-opacity="1" /><path clip-path="url(#clip120)" d="M620.562 714.746 Q613.339 714.746 609.682 721.876 Q606.071 728.959 606.071 743.218 Q606.071 757.431 609.682 764.561 Q613.339 771.644 620.562 771.644 Q627.83 771.644 631.441 764.561 Q635.099 757.431 635.099 743.218 Q635.099 728.959 631.441 721.876 Q627.83 714.746 620.562 714.746 M620.562 707.339 Q632.182 707.339 638.293 716.552 Q644.45 725.718 644.45 743.218 Q644.45 760.672 638.293 769.885 Q632.182 779.051 620.562 779.051 Q608.941 779.051 602.784 769.885 Q596.673 760.672 596.673 743.218 Q596.673 725.718 602.784 716.552 Q608.941 707.339 620.562 707.339 Z" fill="#000000" fill-rule="nonzero" fill-opacity="1" /><path clip-path="url(#clip120)" d="M397.507 587.266 L430.146 587.266 L430.146 595.137 L386.257 595.137 L386.257 587.266 Q391.581 581.757 400.748 572.498 Q409.961 563.192 412.322 560.507 Q416.813 555.461 418.572 551.989 Q420.378 548.47 420.378 545.091 Q420.378 539.581 416.489 536.109 Q412.646 532.637 406.442 532.637 Q402.044 532.637 397.137 534.165 Q392.276 535.692 386.72 538.794 L386.72 529.35 Q392.368 527.081 397.276 525.924 Q402.183 524.767 406.257 524.767 Q416.998 524.767 423.387 530.137 Q429.776 535.507 429.776 544.489 Q429.776 548.748 428.155 552.591 Q426.581 556.387 422.368 561.572 Q421.211 562.915 415.007 569.35 Q408.803 575.739 397.507 587.266 Z" fill="#000000" fill-rule="nonzero" fill-opacity="1" /><path clip-path="url(#clip120)" d="M449.868 526.017 L486.581 526.017 L486.581 533.887 L458.433 533.887 L458.433 550.831 Q460.47 550.137 462.507 549.813 Q464.544 549.442 466.581 549.442 Q478.155 549.442 484.914 555.785 Q491.673 562.127 491.673 572.961 Q491.673 584.118 484.729 590.322 Q477.785 596.479 465.146 596.479 Q460.794 596.479 456.257 595.738 Q451.766 594.998 446.951 593.516 L446.951 584.118 Q451.118 586.387 455.562 587.498 Q460.007 588.609 464.961 588.609 Q472.97 588.609 477.646 584.396 Q482.322 580.183 482.322 572.961 Q482.322 565.739 477.646 561.526 Q472.97 557.313 464.961 557.313 Q461.211 557.313 457.461 558.146 Q453.757 558.979 449.868 560.739 L449.868 526.017 Z" fill="#000000" fill-rule="nonzero" fill-opacity="1" /><path clip-path="url(#clip120)" d="M530.099 532.174 Q522.877 532.174 519.22 539.304 Q515.608 546.387 515.608 560.646 Q515.608 574.859 519.22 581.988 Q522.877 589.072 530.099 589.072 Q537.368 589.072 540.979 581.988 Q544.636 574.859 544.636 560.646 Q544.636 546.387 540.979 539.304 Q537.368 532.174 530.099 532.174 M530.099 524.767 Q541.719 524.767 547.831 533.979 Q553.988 543.146 553.988 560.646 Q553.988 578.1 547.831 587.313 Q541.719 596.479 530.099 596.479 Q518.479 596.479 512.321 587.313 Q506.21 578.1 506.21 560.646 Q506.21 543.146 512.321 533.979 Q518.479 524.767 530.099 524.767 Z" fill="#000000" fill-rule="nonzero" fill-opacity="1" /><path clip-path="url(#clip120)" d="M570.423 583.377 L580.191 583.377 L580.191 595.137 L570.423 595.137 L570.423 583.377 Z" fill="#000000" fill-rule="nonzero" fill-opacity="1" /><path clip-path="url(#clip120)" d="M620.562 532.174 Q613.339 532.174 609.682 539.304 Q606.071 546.387 606.071 560.646 Q606.071 574.859 609.682 581.988 Q613.339 589.072 620.562 589.072 Q627.83 589.072 631.441 581.988 Q635.099 574.859 635.099 560.646 Q635.099 546.387 631.441 539.304 Q627.83 532.174 620.562 532.174 M620.562 524.767 Q632.182 524.767 638.293 533.979 Q644.45 543.146 644.45 560.646 Q644.45 578.1 638.293 587.313 Q632.182 596.479 620.562 596.479 Q608.941 596.479 602.784 587.313 Q596.673 578.1 596.673 560.646 Q596.673 543.146 602.784 533.979 Q608.941 524.767 620.562 524.767 Z" fill="#000000" fill-rule="nonzero" fill-opacity="1" /><path clip-path="url(#clip120)" d="M417.785 375.296 Q424.498 376.731 428.248 381.268 Q432.044 385.805 432.044 392.472 Q432.044 402.703 425.007 408.305 Q417.97 413.907 405.007 413.907 Q400.655 413.907 396.026 413.027 Q391.442 412.194 386.535 410.481 L386.535 401.453 Q390.424 403.722 395.054 404.879 Q399.683 406.037 404.729 406.037 Q413.526 406.037 418.109 402.564 Q422.739 399.092 422.739 392.472 Q422.739 386.361 418.433 382.935 Q414.174 379.463 406.535 379.463 L398.479 379.463 L398.479 371.778 L406.905 371.778 Q413.803 371.778 417.461 369.046 Q421.118 366.268 421.118 361.083 Q421.118 355.759 417.322 352.935 Q413.572 350.065 406.535 350.065 Q402.692 350.065 398.294 350.898 Q393.896 351.731 388.618 353.491 L388.618 345.157 Q393.942 343.676 398.572 342.935 Q403.248 342.194 407.368 342.194 Q418.016 342.194 424.22 347.055 Q430.424 351.87 430.424 360.111 Q430.424 365.852 427.137 369.833 Q423.85 373.768 417.785 375.296 Z" fill="#000000" fill-rule="nonzero" fill-opacity="1" /><path clip-path="url(#clip120)" d="M469.775 349.602 Q462.553 349.602 458.896 356.731 Q455.285 363.815 455.285 378.074 Q455.285 392.287 458.896 399.416 Q462.553 406.5 469.775 406.5 Q477.044 406.5 480.655 399.416 Q484.312 392.287 484.312 378.074 Q484.312 363.815 480.655 356.731 Q477.044 349.602 469.775 349.602 M469.775 342.194 Q481.396 342.194 487.507 351.407 Q493.664 360.574 493.664 378.074 Q493.664 395.527 487.507 404.74 Q481.396 413.907 469.775 413.907 Q458.155 413.907 451.998 404.74 Q445.887 395.527 445.887 378.074 Q445.887 360.574 451.998 351.407 Q458.155 342.194 469.775 342.194 Z" fill="#000000" fill-rule="nonzero" fill-opacity="1" /><path clip-path="url(#clip120)" d="M530.099 349.602 Q522.877 349.602 519.22 356.731 Q515.608 363.815 515.608 378.074 Q515.608 392.287 519.22 399.416 Q522.877 406.5 530.099 406.5 Q537.368 406.5 540.979 399.416 Q544.636 392.287 544.636 378.074 Q544.636 363.815 540.979 356.731 Q537.368 349.602 530.099 349.602 M530.099 342.194 Q541.719 342.194 547.831 351.407 Q553.988 360.574 553.988 378.074 Q553.988 395.527 547.831 404.74 Q541.719 413.907 530.099 413.907 Q518.479 413.907 512.321 404.74 Q506.21 395.527 506.21 378.074 Q506.21 360.574 512.321 351.407 Q518.479 342.194 530.099 342.194 Z" fill="#000000" fill-rule="nonzero" fill-opacity="1" /><path clip-path="url(#clip120)" d="M570.423 400.805 L580.191 400.805 L580.191 412.564 L570.423 412.564 L570.423 400.805 Z" fill="#000000" fill-rule="nonzero" fill-opacity="1" /><path clip-path="url(#clip120)" d="M620.562 349.602 Q613.339 349.602 609.682 356.731 Q606.071 363.815 606.071 378.074 Q606.071 392.287 609.682 399.416 Q613.339 406.5 620.562 406.5 Q627.83 406.5 631.441 399.416 Q635.099 392.287 635.099 378.074 Q635.099 363.815 631.441 356.731 Q627.83 349.602 620.562 349.602 M620.562 342.194 Q632.182 342.194 638.293 351.407 Q644.45 360.574 644.45 378.074 Q644.45 395.527 638.293 404.74 Q632.182 413.907 620.562 413.907 Q608.941 413.907 602.784 404.74 Q596.673 395.527 596.673 378.074 Q596.673 360.574 602.784 351.407 Q608.941 342.194 620.562 342.194 Z" fill="#000000" fill-rule="nonzero" fill-opacity="1" /><path clip-path="url(#clip120)" d="M417.785 192.724 Q424.498 194.159 428.248 198.696 Q432.044 203.233 432.044 209.9 Q432.044 220.131 425.007 225.733 Q417.97 231.335 405.007 231.335 Q400.655 231.335 396.026 230.455 Q391.442 229.622 386.535 227.909 L386.535 218.881 Q390.424 221.15 395.054 222.307 Q399.683 223.464 404.729 223.464 Q413.526 223.464 418.109 219.992 Q422.739 216.52 422.739 209.9 Q422.739 203.789 418.433 200.363 Q414.174 196.891 406.535 196.891 L398.479 196.891 L398.479 189.205 L406.905 189.205 Q413.803 189.205 417.461 186.474 Q421.118 183.696 421.118 178.511 Q421.118 173.187 417.322 170.363 Q413.572 167.493 406.535 167.493 Q402.692 167.493 398.294 168.326 Q393.896 169.159 388.618 170.918 L388.618 162.585 Q393.942 161.104 398.572 160.363 Q403.248 159.622 407.368 159.622 Q418.016 159.622 424.22 164.483 Q430.424 169.298 430.424 177.539 Q430.424 183.279 427.137 187.261 Q423.85 191.196 417.785 192.724 Z" fill="#000000" fill-rule="nonzero" fill-opacity="1" /><path clip-path="url(#clip120)" d="M449.868 160.872 L486.581 160.872 L486.581 168.743 L458.433 168.743 L458.433 185.687 Q460.47 184.992 462.507 184.668 Q464.544 184.298 466.581 184.298 Q478.155 184.298 484.914 190.641 Q491.673 196.983 491.673 207.816 Q491.673 218.974 484.729 225.177 Q477.785 231.335 465.146 231.335 Q460.794 231.335 456.257 230.594 Q451.766 229.853 446.951 228.372 L446.951 218.974 Q451.118 221.242 455.562 222.353 Q460.007 223.464 464.961 223.464 Q472.97 223.464 477.646 219.252 Q482.322 215.039 482.322 207.816 Q482.322 200.594 477.646 196.381 Q472.97 192.168 464.961 192.168 Q461.211 192.168 457.461 193.002 Q453.757 193.835 449.868 195.594 L449.868 160.872 Z" fill="#000000" fill-rule="nonzero" fill-opacity="1" /><path clip-path="url(#clip120)" d="M530.099 167.03 Q522.877 167.03 519.22 174.159 Q515.608 181.242 515.608 195.502 Q515.608 209.715 519.22 216.844 Q522.877 223.927 530.099 223.927 Q537.368 223.927 540.979 216.844 Q544.636 209.715 544.636 195.502 Q544.636 181.242 540.979 174.159 Q537.368 167.03 530.099 167.03 M530.099 159.622 Q541.719 159.622 547.831 168.835 Q553.988 178.002 553.988 195.502 Q553.988 212.955 547.831 222.168 Q541.719 231.335 530.099 231.335 Q518.479 231.335 512.321 222.168 Q506.21 212.955 506.21 195.502 Q506.21 178.002 512.321 168.835 Q518.479 159.622 530.099 159.622 Z" fill="#000000" fill-rule="nonzero" fill-opacity="1" /><path clip-path="url(#clip120)" d="M570.423 218.233 L580.191 218.233 L580.191 229.992 L570.423 229.992 L570.423 218.233 Z" fill="#000000" fill-rule="nonzero" fill-opacity="1" /><path clip-path="url(#clip120)" d="M620.562 167.03 Q613.339 167.03 609.682 174.159 Q606.071 181.242 606.071 195.502 Q606.071 209.715 609.682 216.844 Q613.339 223.927 620.562 223.927 Q627.83 223.927 631.441 216.844 Q635.099 209.715 635.099 195.502 Q635.099 181.242 631.441 174.159 Q627.83 167.03 620.562 167.03 M620.562 159.622 Q632.182 159.622 638.293 168.835 Q644.45 178.002 644.45 195.502 Q644.45 212.955 638.293 222.168 Q632.182 231.335 620.562 231.335 Q608.941 231.335 602.784 222.168 Q596.673 212.955 596.673 195.502 Q596.673 178.002 602.784 168.835 Q608.941 159.622 620.562 159.622 Z" fill="#000000" fill-rule="nonzero" fill-opacity="1" /><path clip-path="url(#clip120)" d="M311.051 931.4 L348.863 931.4 L348.863 943.176 L250.449 943.176 L250.449 931.4 L261.271 931.4 Q254.905 927.708 251.85 922.106 Q248.731 916.44 248.731 908.61 Q248.731 895.624 259.043 887.54 Q269.356 879.392 286.161 879.392 Q302.966 879.392 313.279 887.54 Q323.591 895.624 323.591 908.61 Q323.591 916.44 320.536 922.106 Q317.417 927.708 311.051 931.4 M286.161 891.55 Q273.239 891.55 265.918 896.898 Q258.534 902.181 258.534 911.475 Q258.534 920.769 265.918 926.116 Q273.239 931.4 286.161 931.4 Q299.083 931.4 306.468 926.116 Q313.788 920.769 313.788 911.475 Q313.788 902.181 306.468 896.898 Q299.083 891.55 286.161 891.55 Z" fill="#000000" fill-rule="nonzero" fill-opacity="1" /><path clip-path="url(#clip120)" d="M285.906 827.575 Q285.906 841.771 289.153 847.245 Q292.399 852.72 300.229 852.72 Q306.468 852.72 310.16 848.645 Q313.788 844.508 313.788 837.442 Q313.788 827.702 306.913 821.846 Q299.975 815.926 288.516 815.926 L285.906 815.926 L285.906 827.575 M281.068 804.213 L321.745 804.213 L321.745 815.926 L310.924 815.926 Q317.417 819.936 320.536 825.92 Q323.591 831.904 323.591 840.561 Q323.591 851.51 317.48 858.003 Q311.306 864.432 300.993 864.432 Q288.962 864.432 282.851 856.412 Q276.74 848.327 276.74 832.349 L276.74 815.926 L275.594 815.926 Q267.509 815.926 263.117 821.273 Q258.661 826.556 258.661 836.169 Q258.661 842.28 260.125 848.073 Q261.589 853.865 264.518 859.213 L253.696 859.213 Q251.213 852.783 250.004 846.736 Q248.731 840.688 248.731 834.959 Q248.731 819.491 256.751 811.852 Q264.772 804.213 281.068 804.213 Z" fill="#000000" fill-rule="nonzero" fill-opacity="1" /><path clip-path="url(#clip120)" d="M261.398 738.773 Q260.253 740.747 259.743 743.102 Q259.17 745.394 259.17 748.195 Q259.17 758.125 265.663 763.472 Q272.093 768.756 284.188 768.756 L321.745 768.756 L321.745 780.532 L250.449 780.532 L250.449 768.756 L261.526 768.756 Q255.033 765.064 251.914 759.144 Q248.731 753.224 248.731 744.757 Q248.731 743.548 248.922 742.084 Q249.049 740.619 249.367 738.837 L261.398 738.773 Z" fill="#000000" fill-rule="nonzero" fill-opacity="1" /><path clip-path="url(#clip120)" d="M283.169 668.369 L288.898 668.369 L288.898 722.223 Q300.993 721.459 307.359 714.966 Q313.661 708.409 313.661 696.76 Q313.661 690.012 312.006 683.71 Q310.351 677.344 307.041 671.106 L318.117 671.106 Q320.79 677.408 322.191 684.028 Q323.591 690.649 323.591 697.46 Q323.591 714.52 313.661 724.514 Q303.73 734.445 286.798 734.445 Q269.292 734.445 259.043 725.023 Q248.731 715.539 248.731 699.497 Q248.731 685.11 258.025 676.771 Q267.255 668.369 283.169 668.369 M279.732 680.082 Q270.119 680.209 264.39 685.492 Q258.661 690.712 258.661 699.37 Q258.661 709.173 264.199 715.093 Q269.737 720.949 279.795 721.841 L279.732 680.082 Z" fill="#000000" fill-rule="nonzero" fill-opacity="1" /><path clip-path="url(#clip120)" d="M278.713 589.88 L321.745 589.88 L321.745 601.592 L279.095 601.592 Q268.974 601.592 263.945 605.539 Q258.916 609.486 258.916 617.379 Q258.916 626.864 264.963 632.339 Q271.011 637.813 281.45 637.813 L321.745 637.813 L321.745 649.59 L250.449 649.59 L250.449 637.813 L261.526 637.813 Q255.096 633.612 251.914 627.946 Q248.731 622.217 248.731 614.769 Q248.731 602.484 256.37 596.182 Q263.945 589.88 278.713 589.88 Z" fill="#000000" fill-rule="nonzero" fill-opacity="1" /><path clip-path="url(#clip120)" d="M305.576 564.862 L305.576 551.431 L321.745 551.431 L321.745 564.862 L305.576 564.862 Z" fill="#000000" fill-rule="nonzero" fill-opacity="1" /><path clip-path="url(#clip120)" d="M310.924 479.753 L310.924 458.746 L238.418 458.746 L243.002 481.599 L231.289 481.599 L226.705 458.873 L226.705 446.015 L310.924 446.015 L310.924 425.008 L321.745 425.008 L321.745 479.753 L310.924 479.753 Z" fill="#000000" fill-rule="nonzero" fill-opacity="1" /><polyline clip-path="url(#clip122)" style="stroke:#008000; stroke-linecap:round; stroke-linejoin:round; stroke-width:8; stroke-opacity:1; fill:none" points="726.443,283.652 844.372,380.989 962.301,442.648 1080.23,488.723 1198.16,594.552 1316.09,613.288 1434.02,671.672 1551.95,745.702 1669.87,793.119 1787.8,888.088 1905.73,814.247 2023.66,749.949 2141.59,802.339 2259.52,828.978 "/>
<circle clip-path="url(#clip122)" cx="726.443" cy="283.652" r="14.4" fill="#008000" fill-rule="evenodd" fill-opacity="1" stroke="#000000" stroke-opacity="1" stroke-width="6.4"/>
<circle clip-path="url(#clip122)" cx="844.372" cy="380.989" r="14.4" fill="#008000" fill-rule="evenodd" fill-opacity="1" stroke="#000000" stroke-opacity="1" stroke-width="6.4"/>
<circle clip-path="url(#clip122)" cx="962.301" cy="442.648" r="14.4" fill="#008000" fill-rule="evenodd" fill-opacity="1" stroke="#000000" stroke-opacity="1" stroke-width="6.4"/>
<circle clip-path="url(#clip122)" cx="1080.23" cy="488.723" r="14.4" fill="#008000" fill-rule="evenodd" fill-opacity="1" stroke="#000000" stroke-opacity="1" stroke-width="6.4"/>
<circle clip-path="url(#clip122)" cx="1198.16" cy="594.552" r="14.4" fill="#008000" fill-rule="evenodd" fill-opacity="1" stroke="#000000" stroke-opacity="1" stroke-width="6.4"/>
<circle clip-path="url(#clip122)" cx="1316.09" cy="613.288" r="14.4" fill="#008000" fill-rule="evenodd" fill-opacity="1" stroke="#000000" stroke-opacity="1" stroke-width="6.4"/>
<circle clip-path="url(#clip122)" cx="1434.02" cy="671.672" r="14.4" fill="#008000" fill-rule="evenodd" fill-opacity="1" stroke="#000000" stroke-opacity="1" stroke-width="6.4"/>
<circle clip-path="url(#clip122)" cx="1551.95" cy="745.702" r="14.4" fill="#008000" fill-rule="evenodd" fill-opacity="1" stroke="#000000" stroke-opacity="1" stroke-width="6.4"/>
<circle clip-path="url(#clip122)" cx="1669.87" cy="793.119" r="14.4" fill="#008000" fill-rule="evenodd" fill-opacity="1" stroke="#000000" stroke-opacity="1" stroke-width="6.4"/>
<circle clip-path="url(#clip122)" cx="1787.8" cy="888.088" r="14.4" fill="#008000" fill-rule="evenodd" fill-opacity="1" stroke="#000000" stroke-opacity="1" stroke-width="6.4"/>
<circle clip-path="url(#clip122)" cx="1905.73" cy="814.247" r="14.4" fill="#008000" fill-rule="evenodd" fill-opacity="1" stroke="#000000" stroke-opacity="1" stroke-width="6.4"/>
<circle clip-path="url(#clip122)" cx="2023.66" cy="749.949" r="14.4" fill="#008000" fill-rule="evenodd" fill-opacity="1" stroke="#000000" stroke-opacity="1" stroke-width="6.4"/>
<circle clip-path="url(#clip122)" cx="2141.59" cy="802.339" r="14.4" fill="#008000" fill-rule="evenodd" fill-opacity="1" stroke="#000000" stroke-opacity="1" stroke-width="6.4"/>
<circle clip-path="url(#clip122)" cx="2259.52" cy="828.978" r="14.4" fill="#008000" fill-rule="evenodd" fill-opacity="1" stroke="#000000" stroke-opacity="1" stroke-width="6.4"/>
<polyline clip-path="url(#clip122)" style="stroke:#00008b; stroke-linecap:round; stroke-linejoin:round; stroke-width:8; stroke-opacity:1; fill:none" points="726.443,140.3 844.372,998.917 962.301,988.168 1080.23,981.218 1198.16,980.613 1316.09,988.585 1434.02,995.801 1551.95,1008.52 1669.87,1023.28 1787.8,1041.35 1905.73,1058.93 2023.66,1069.22 2141.59,1086.8 2259.52,1101.77 "/>
<path clip-path="url(#clip122)" d="M726.443 152.923 L844.372 1077.96 L962.301 1079.38 L1080.23 1089.65 L1198.16 1103.17 L1316.09 1123.21 L1434.02 1148.89 L1551.95 1149.84 L1669.87 1165.52 L1787.8 1181.54 L1905.73 1204.9 L2023.66 1201.65 L2141.59 1222.02 L2259.52 1240.32 L2259.52 1023.42 L2141.59 1007.7 L2023.66 988.965 L1905.73 984.32 L1787.8 960.709 L1669.87 960.122 L1551.95 936.047 L1434.02 927.496 L1316.09 927.151 L1198.16 921.522 L1080.23 937.113 L962.301 951.316 L844.372 978.353 L726.443 127.862  Z" fill="#0000ff" fill-rule="evenodd" fill-opacity="0.1"/>
<polyline clip-path="url(#clip122)" style="stroke:#0000ff; stroke-linecap:round; stroke-linejoin:round; stroke-width:0; stroke-opacity:0.1; fill:none" points="726.443,152.923 844.372,1077.96 962.301,1079.38 1080.23,1089.65 1198.16,1103.17 1316.09,1123.21 1434.02,1148.89 1551.95,1149.84 1669.87,1165.52 1787.8,1181.54 1905.73,1204.9 2023.66,1201.65 2141.59,1222.02 2259.52,1240.32 "/>
</svg>
