<?xml version="1.0" encoding="utf-8"?>
<svg xmlns="http://www.w3.org/2000/svg" xmlns:xlink="http://www.w3.org/1999/xlink" width="600" height="400" viewBox="0 0 2400 1600">
<defs>
  <clipPath id="clip500">
    <rect x="0" y="0" width="2400" height="1600"/>
  </clipPath>
</defs>
<path clip-path="url(#clip500)" d="M0 1600 L2400 1600 L2400 0 L0 0  Z" fill="#ffffff" fill-rule="evenodd" fill-opacity="1"/>
<defs>
  <clipPath id="clip501">
    <rect x="480" y="0" width="1681" height="1600"/>
  </clipPath>
</defs>
<path clip-path="url(#clip500)" d="M680.45 1273.7 L2305.51 1273.7 L2305.51 94.4882 L680.45 94.4882  Z" fill="#ffffff" fill-rule="evenodd" fill-opacity="1"/>
<defs>
  <clipPath id="clip502">
    <rect x="680" y="94" width="1626" height="1180"/>
  </clipPath>
</defs>
<polyline clip-path="url(#clip502)" style="stroke:#000000; stroke-linecap:round; stroke-linejoin:round; stroke-width:4; stroke-opacity:0.1; fill:none" points="726.443,1273.7 726.443,94.4882 "/>
<polyline clip-path="url(#clip502)" style="stroke:#000000; stroke-linecap:round; stroke-linejoin:round; stroke-width:4; stroke-opacity:0.1; fill:none" points="962.301,1273.7 962.301,94.4882 "/>
<polyline clip-path="url(#clip502)" style="stroke:#000000; stroke-linecap:round; stroke-linejoin:round; stroke-width:4; stroke-opacity:0.1; fill:none" points="1198.16,1273.7 1198.16,94.4882 "/>
<polyline clip-path="url(#clip502)" style="stroke:#000000; stroke-linecap:round; stroke-linejoin:round; stroke-width:4; stroke-opacity:0.1; fill:none" points="1434.02,1273.7 1434.02,94.4882 "/>
<polyline clip-path="url(#clip502)" style="stroke:#000000; stroke-linecap:round; stroke-linejoin:round; stroke-width:4; stroke-opacity:0.1; fill:none" points="1669.87,1273.7 1669.87,94.4882 "/>
<polyline clip-path="url(#clip502)" style="stroke:#000000; stroke-linecap:round; stroke-linejoin:round; stroke-width:4; stroke-opacity:0.1; fill:none" points="1905.73,1273.7 1905.73,94.4882 "/>
<polyline clip-path="url(#clip502)" style="stroke:#000000; stroke-linecap:round; stroke-linejoin:round; stroke-width:4; stroke-opacity:0.1; fill:none" points="2141.59,1273.7 2141.59,94.4882 "/>
<polyline clip-path="url(#clip500)" style="stroke:#000000; stroke-linecap:round; stroke-linejoin:round; stroke-width:8; stroke-opacity:1; fill:none" points="680.45,1273.7 2305.51,1273.7 "/>
<polyline clip-path="url(#clip500)" style="stroke:#000000; stroke-linecap:round; stroke-linejoin:round; stroke-width:8; stroke-opacity:1; fill:none" points="726.443,1273.7 726.443,1254.8 "/>
<polyline clip-path="url(#clip500)" style="stroke:#000000; stroke-linecap:round; stroke-linejoin:round; stroke-width:8; stroke-opacity:1; fill:none" points="962.301,1273.7 962.301,1254.8 "/>
<polyline clip-path="url(#clip500)" style="stroke:#000000; stroke-linecap:round; stroke-linejoin:round; stroke-width:8; stroke-opacity:1; fill:none" points="1198.16,1273.7 1198.16,1254.8 "/>
<polyline clip-path="url(#clip500)" style="stroke:#000000; stroke-linecap:round; stroke-linejoin:round; stroke-width:8; stroke-opacity:1; fill:none" points="1434.02,1273.7 1434.02,1254.8 "/>
<polyline clip-path="url(#clip500)" style="stroke:#000000; stroke-linecap:round; stroke-linejoin:round; stroke-width:8; stroke-opacity:1; fill:none" points="1669.87,1273.7 1669.87,1254.8 "/>
<polyline clip-path="url(#clip500)" style="stroke:#000000; stroke-linecap:round; stroke-linejoin:round; stroke-width:8; stroke-opacity:1; fill:none" points="1905.73,1273.7 1905.73,1254.8 "/>
<polyline clip-path="url(#clip500)" style="stroke:#000000; stroke-linecap:round; stroke-linejoin:round; stroke-width:8; stroke-opacity:1; fill:none" points="2141.59,1273.7 2141.59,1254.8 "/>
<path clip-path="url(#clip500)" d="M681.211 1316.33 Q673.989 1316.33 670.332 1323.46 Q666.721 1330.55 666.721 1344.81 Q666.721 1359.02 670.332 1366.15 Q673.989 1373.23 681.211 1373.23 Q688.48 1373.23 692.091 1366.15 Q695.748 1359.02 695.748 1344.81 Q695.748 1330.55 692.091 1323.46 Q688.48 1316.33 681.211 1316.33 M681.211 1308.93 Q692.832 1308.93 698.943 1318.14 Q705.1 1327.31 705.1 1344.81 Q705.1 1362.26 698.943 1371.47 Q692.832 1380.64 681.211 1380.64 Q669.591 1380.64 663.434 1371.47 Q657.323 1362.26 657.323 1344.81 Q657.323 1327.31 663.434 1318.14 Q669.591 1308.93 681.211 1308.93 Z" fill="#000000" fill-rule="nonzero" fill-opacity="1" /><path clip-path="url(#clip500)" d="M721.535 1367.54 L731.304 1367.54 L731.304 1379.3 L721.535 1379.3 L721.535 1367.54 Z" fill="#000000" fill-rule="nonzero" fill-opacity="1" /><path clip-path="url(#clip500)" d="M771.674 1316.33 Q764.452 1316.33 760.794 1323.46 Q757.183 1330.55 757.183 1344.81 Q757.183 1359.02 760.794 1366.15 Q764.452 1373.23 771.674 1373.23 Q778.942 1373.23 782.553 1366.15 Q786.211 1359.02 786.211 1344.81 Q786.211 1330.55 782.553 1323.46 Q778.942 1316.33 771.674 1316.33 M771.674 1308.93 Q783.294 1308.93 789.405 1318.14 Q795.563 1327.31 795.563 1344.81 Q795.563 1362.26 789.405 1371.47 Q783.294 1380.64 771.674 1380.64 Q760.054 1380.64 753.896 1371.47 Q747.785 1362.26 747.785 1344.81 Q747.785 1327.31 753.896 1318.14 Q760.054 1308.93 771.674 1308.93 Z" fill="#000000" fill-rule="nonzero" fill-opacity="1" /><path clip-path="url(#clip500)" d="M918.667 1316.33 Q911.444 1316.33 907.787 1323.46 Q904.176 1330.55 904.176 1344.81 Q904.176 1359.02 907.787 1366.15 Q911.444 1373.23 918.667 1373.23 Q925.935 1373.23 929.546 1366.15 Q933.204 1359.02 933.204 1344.81 Q933.204 1330.55 929.546 1323.46 Q925.935 1316.33 918.667 1316.33 M918.667 1308.93 Q930.287 1308.93 936.398 1318.14 Q942.555 1327.31 942.555 1344.81 Q942.555 1362.26 936.398 1371.47 Q930.287 1380.64 918.667 1380.64 Q907.046 1380.64 900.889 1371.47 Q894.778 1362.26 894.778 1344.81 Q894.778 1327.31 900.889 1318.14 Q907.046 1308.93 918.667 1308.93 Z" fill="#000000" fill-rule="nonzero" fill-opacity="1" /><path clip-path="url(#clip500)" d="M958.99 1367.54 L968.759 1367.54 L968.759 1379.3 L958.99 1379.3 L958.99 1367.54 Z" fill="#000000" fill-rule="nonzero" fill-opacity="1" /><path clip-path="url(#clip500)" d="M997.185 1371.43 L1029.82 1371.43 L1029.82 1379.3 L985.935 1379.3 L985.935 1371.43 Q991.259 1365.92 1000.43 1356.66 Q1009.64 1347.35 1012 1344.67 Q1016.49 1339.62 1018.25 1336.15 Q1020.05 1332.63 1020.05 1329.25 Q1020.05 1323.74 1016.17 1320.27 Q1012.32 1316.8 1006.12 1316.8 Q1001.72 1316.8 996.814 1318.32 Q991.953 1319.85 986.398 1322.95 L986.398 1313.51 Q992.046 1311.24 996.953 1310.08 Q1001.86 1308.93 1005.93 1308.93 Q1016.68 1308.93 1023.06 1314.3 Q1029.45 1319.67 1029.45 1328.65 Q1029.45 1332.91 1027.83 1336.75 Q1026.26 1340.55 1022.05 1345.73 Q1020.89 1347.07 1014.68 1353.51 Q1008.48 1359.9 997.185 1371.43 Z" fill="#000000" fill-rule="nonzero" fill-opacity="1" /><path clip-path="url(#clip500)" d="M1152.44 1316.33 Q1145.22 1316.33 1141.56 1323.46 Q1137.95 1330.55 1137.95 1344.81 Q1137.95 1359.02 1141.56 1366.15 Q1145.22 1373.23 1152.44 1373.23 Q1159.71 1373.23 1163.32 1366.15 Q1166.98 1359.02 1166.98 1344.81 Q1166.98 1330.55 1163.32 1323.46 Q1159.71 1316.33 1152.44 1316.33 M1152.44 1308.93 Q1164.06 1308.93 1170.17 1318.14 Q1176.33 1327.31 1176.33 1344.81 Q1176.33 1362.26 1170.17 1371.47 Q1164.06 1380.64 1152.44 1380.64 Q1140.82 1380.64 1134.66 1371.47 Q1128.55 1362.26 1128.55 1344.81 Q1128.55 1327.31 1134.66 1318.14 Q1140.82 1308.93 1152.44 1308.93 Z" fill="#000000" fill-rule="nonzero" fill-opacity="1" /><path clip-path="url(#clip500)" d="M1192.77 1367.54 L1202.53 1367.54 L1202.53 1379.3 L1192.77 1379.3 L1192.77 1367.54 Z" fill="#000000" fill-rule="nonzero" fill-opacity="1" /><path clip-path="url(#clip500)" d="M1248.6 1318.32 L1224.99 1355.22 L1248.6 1355.22 L1248.6 1318.32 M1246.14 1310.18 L1257.9 1310.18 L1257.9 1355.22 L1267.76 1355.22 L1267.76 1363 L1257.9 1363 L1257.9 1379.3 L1248.6 1379.3 L1248.6 1363 L1217.39 1363 L1217.39 1353.97 L1246.14 1310.18 Z" fill="#000000" fill-rule="nonzero" fill-opacity="1" /><path clip-path="url(#clip500)" d="M1388.62 1316.33 Q1381.4 1316.33 1377.74 1323.46 Q1374.13 1330.55 1374.13 1344.81 Q1374.13 1359.02 1377.74 1366.15 Q1381.4 1373.23 1388.62 1373.23 Q1395.89 1373.23 1399.5 1366.15 Q1403.16 1359.02 1403.16 1344.81 Q1403.16 1330.55 1399.5 1323.46 Q1395.89 1316.33 1388.62 1316.33 M1388.62 1308.93 Q1400.24 1308.93 1406.35 1318.14 Q1412.51 1327.31 1412.51 1344.81 Q1412.51 1362.26 1406.35 1371.47 Q1400.24 1380.64 1388.62 1380.64 Q1377 1380.64 1370.85 1371.47 Q1364.73 1362.26 1364.73 1344.81 Q1364.73 1327.31 1370.85 1318.14 Q1377 1308.93 1388.62 1308.93 Z" fill="#000000" fill-rule="nonzero" fill-opacity="1" /><path clip-path="url(#clip500)" d="M1428.95 1367.54 L1438.72 1367.54 L1438.72 1379.3 L1428.95 1379.3 L1428.95 1367.54 Z" fill="#000000" fill-rule="nonzero" fill-opacity="1" /><path clip-path="url(#clip500)" d="M1480.24 1341.01 Q1473.95 1341.01 1470.24 1345.31 Q1466.59 1349.62 1466.59 1357.12 Q1466.59 1364.57 1470.24 1368.93 Q1473.95 1373.23 1480.24 1373.23 Q1486.54 1373.23 1490.2 1368.93 Q1493.9 1364.57 1493.9 1357.12 Q1493.9 1349.62 1490.2 1345.31 Q1486.54 1341.01 1480.24 1341.01 M1498.81 1311.7 L1498.81 1320.22 Q1495.29 1318.56 1491.68 1317.68 Q1488.11 1316.8 1484.6 1316.8 Q1475.34 1316.8 1470.43 1323.05 Q1465.57 1329.3 1464.87 1341.93 Q1467.6 1337.91 1471.72 1335.78 Q1475.85 1333.6 1480.8 1333.6 Q1491.22 1333.6 1497.23 1339.94 Q1503.3 1346.24 1503.3 1357.12 Q1503.3 1367.77 1497 1374.2 Q1490.71 1380.64 1480.24 1380.64 Q1468.25 1380.64 1461.91 1371.47 Q1455.57 1362.26 1455.57 1344.81 Q1455.57 1328.42 1463.35 1318.69 Q1471.12 1308.93 1484.22 1308.93 Q1487.74 1308.93 1491.31 1309.62 Q1494.92 1310.31 1498.81 1311.7 Z" fill="#000000" fill-rule="nonzero" fill-opacity="1" /><path clip-path="url(#clip500)" d="M1624.74 1316.33 Q1617.51 1316.33 1613.86 1323.46 Q1610.25 1330.55 1610.25 1344.81 Q1610.25 1359.02 1613.86 1366.15 Q1617.51 1373.23 1624.74 1373.23 Q1632 1373.23 1635.62 1366.15 Q1639.27 1359.02 1639.27 1344.81 Q1639.27 1330.55 1635.62 1323.46 Q1632 1316.33 1624.74 1316.33 M1624.74 1308.93 Q1636.36 1308.93 1642.47 1318.14 Q1648.62 1327.31 1648.62 1344.81 Q1648.62 1362.26 1642.47 1371.47 Q1636.36 1380.64 1624.74 1380.64 Q1613.12 1380.64 1606.96 1371.47 Q1600.85 1362.26 1600.85 1344.81 Q1600.85 1327.31 1606.96 1318.14 Q1613.12 1308.93 1624.74 1308.93 Z" fill="#000000" fill-rule="nonzero" fill-opacity="1" /><path clip-path="url(#clip500)" d="M1665.06 1367.54 L1674.83 1367.54 L1674.83 1379.3 L1665.06 1379.3 L1665.06 1367.54 Z" fill="#000000" fill-rule="nonzero" fill-opacity="1" /><path clip-path="url(#clip500)" d="M1715.2 1346.47 Q1708.53 1346.47 1704.69 1350.04 Q1700.89 1353.6 1700.89 1359.85 Q1700.89 1366.1 1704.69 1369.67 Q1708.53 1373.23 1715.2 1373.23 Q1721.87 1373.23 1725.71 1369.67 Q1729.55 1366.06 1729.55 1359.85 Q1729.55 1353.6 1725.71 1350.04 Q1721.91 1346.47 1715.2 1346.47 M1705.85 1342.49 Q1699.83 1341.01 1696.45 1336.89 Q1693.12 1332.77 1693.12 1326.84 Q1693.12 1318.56 1698.99 1313.74 Q1704.92 1308.93 1715.2 1308.93 Q1725.52 1308.93 1731.4 1313.74 Q1737.28 1318.56 1737.28 1326.84 Q1737.28 1332.77 1733.9 1336.89 Q1730.57 1341.01 1724.6 1342.49 Q1731.36 1344.06 1735.11 1348.65 Q1738.9 1353.23 1738.9 1359.85 Q1738.9 1369.9 1732.74 1375.27 Q1726.63 1380.64 1715.2 1380.64 Q1703.76 1380.64 1697.61 1375.27 Q1691.49 1369.9 1691.49 1359.85 Q1691.49 1353.23 1695.29 1348.65 Q1699.09 1344.06 1705.85 1342.49 M1702.42 1327.72 Q1702.42 1333.09 1705.75 1336.1 Q1709.13 1339.11 1715.2 1339.11 Q1721.22 1339.11 1724.6 1336.1 Q1728.02 1333.09 1728.02 1327.72 Q1728.02 1322.35 1724.6 1319.34 Q1721.22 1316.33 1715.2 1316.33 Q1709.13 1316.33 1705.75 1319.34 Q1702.42 1322.35 1702.42 1327.72 Z" fill="#000000" fill-rule="nonzero" fill-opacity="1" /><path clip-path="url(#clip500)" d="M1840.04 1371.43 L1855.32 1371.43 L1855.32 1318.69 L1838.7 1322.03 L1838.7 1313.51 L1855.22 1310.18 L1864.58 1310.18 L1864.58 1371.43 L1879.85 1371.43 L1879.85 1379.3 L1840.04 1379.3 L1840.04 1371.43 Z" fill="#000000" fill-rule="nonzero" fill-opacity="1" /><path clip-path="url(#clip500)" d="M1898.74 1367.54 L1908.51 1367.54 L1908.51 1379.3 L1898.74 1379.3 L1898.74 1367.54 Z" fill="#000000" fill-rule="nonzero" fill-opacity="1" /><path clip-path="url(#clip500)" d="M1948.88 1316.33 Q1941.66 1316.33 1938 1323.46 Q1934.39 1330.55 1934.39 1344.81 Q1934.39 1359.02 1938 1366.15 Q1941.66 1373.23 1948.88 1373.23 Q1956.15 1373.23 1959.76 1366.15 Q1963.42 1359.02 1963.42 1344.81 Q1963.42 1330.55 1959.76 1323.46 Q1956.15 1316.33 1948.88 1316.33 M1948.88 1308.93 Q1960.5 1308.93 1966.61 1318.14 Q1972.77 1327.31 1972.77 1344.81 Q1972.77 1362.26 1966.61 1371.47 Q1960.5 1380.64 1948.88 1380.64 Q1937.26 1380.64 1931.1 1371.47 Q1924.99 1362.26 1924.99 1344.81 Q1924.99 1327.31 1931.1 1318.14 Q1937.26 1308.93 1948.88 1308.93 Z" fill="#000000" fill-rule="nonzero" fill-opacity="1" /><path clip-path="url(#clip500)" d="M2077.49 1371.43 L2092.77 1371.43 L2092.77 1318.69 L2076.15 1322.03 L2076.15 1313.51 L2092.68 1310.18 L2102.03 1310.18 L2102.03 1371.43 L2117.31 1371.43 L2117.31 1379.3 L2077.49 1379.3 L2077.49 1371.43 Z" fill="#000000" fill-rule="nonzero" fill-opacity="1" /><path clip-path="url(#clip500)" d="M2136.2 1367.54 L2145.97 1367.54 L2145.97 1379.3 L2136.2 1379.3 L2136.2 1367.54 Z" fill="#000000" fill-rule="nonzero" fill-opacity="1" /><path clip-path="url(#clip500)" d="M2174.39 1371.43 L2207.03 1371.43 L2207.03 1379.3 L2163.14 1379.3 L2163.14 1371.43 Q2168.47 1365.92 2177.63 1356.66 Q2186.84 1347.35 2189.21 1344.67 Q2193.7 1339.62 2195.46 1336.15 Q2197.26 1332.63 2197.26 1329.25 Q2197.26 1323.74 2193.37 1320.27 Q2189.53 1316.8 2183.33 1316.8 Q2178.93 1316.8 2174.02 1318.32 Q2169.16 1319.85 2163.6 1322.95 L2163.6 1313.51 Q2169.25 1311.24 2174.16 1310.08 Q2179.07 1308.93 2183.14 1308.93 Q2193.88 1308.93 2200.27 1314.3 Q2206.66 1319.67 2206.66 1328.65 Q2206.66 1332.91 2205.04 1336.75 Q2203.47 1340.55 2199.25 1345.73 Q2198.09 1347.07 2191.89 1353.51 Q2185.69 1359.9 2174.39 1371.43 Z" fill="#000000" fill-rule="nonzero" fill-opacity="1" /><path clip-path="url(#clip500)" d="M1378.53 1484.39 L1378.53 1527.42 L1366.81 1527.42 L1366.81 1484.77 Q1366.81 1474.65 1362.87 1469.62 Q1358.92 1464.59 1351.03 1464.59 Q1341.54 1464.59 1336.07 1470.64 Q1330.59 1476.69 1330.59 1487.13 L1330.59 1527.42 L1318.82 1527.42 L1318.82 1428.37 L1330.59 1428.37 L1330.59 1467.2 Q1334.79 1460.77 1340.46 1457.59 Q1346.19 1454.41 1353.64 1454.41 Q1365.92 1454.41 1372.22 1462.05 Q1378.53 1469.62 1378.53 1484.39 Z" fill="#000000" fill-rule="nonzero" fill-opacity="1" /><path clip-path="url(#clip500)" d="M1429.51 1464.34 Q1420.09 1464.34 1414.62 1471.72 Q1409.14 1479.04 1409.14 1491.84 Q1409.14 1504.63 1414.56 1512.02 Q1420.03 1519.34 1429.51 1519.34 Q1438.87 1519.34 1444.35 1511.96 Q1449.82 1504.57 1449.82 1491.84 Q1449.82 1479.17 1444.35 1471.79 Q1438.87 1464.34 1429.51 1464.34 M1429.51 1454.41 Q1444.79 1454.41 1453.51 1464.34 Q1462.23 1474.27 1462.23 1491.84 Q1462.23 1509.35 1453.51 1519.34 Q1444.79 1529.27 1429.51 1529.27 Q1414.17 1529.27 1405.45 1519.34 Q1396.8 1509.35 1396.8 1491.84 Q1396.8 1474.27 1405.45 1464.34 Q1414.17 1454.41 1429.51 1454.41 Z" fill="#000000" fill-rule="nonzero" fill-opacity="1" /><path clip-path="url(#clip500)" d="M1480.44 1499.29 L1480.44 1456.13 L1492.15 1456.13 L1492.15 1498.84 Q1492.15 1508.96 1496.1 1514.06 Q1500.05 1519.08 1507.94 1519.08 Q1517.43 1519.08 1522.9 1513.04 Q1528.44 1506.99 1528.44 1496.55 L1528.44 1456.13 L1540.15 1456.13 L1540.15 1527.42 L1528.44 1527.42 L1528.44 1516.47 Q1524.17 1522.97 1518.51 1526.15 Q1512.91 1529.27 1505.46 1529.27 Q1493.17 1529.27 1486.81 1521.63 Q1480.44 1513.99 1480.44 1499.29 M1509.91 1454.41 L1509.91 1454.41 Z" fill="#000000" fill-rule="nonzero" fill-opacity="1" /><path clip-path="url(#clip500)" d="M1605.59 1467.08 Q1603.62 1465.93 1601.26 1465.42 Q1598.97 1464.85 1596.17 1464.85 Q1586.24 1464.85 1580.89 1471.34 Q1575.61 1477.77 1575.61 1489.87 L1575.61 1527.42 L1563.83 1527.42 L1563.83 1456.13 L1575.61 1456.13 L1575.61 1467.2 Q1579.3 1460.71 1585.22 1457.59 Q1591.14 1454.41 1599.61 1454.41 Q1600.82 1454.41 1602.28 1454.6 Q1603.74 1454.73 1605.53 1455.05 L1605.59 1467.08 Z" fill="#000000" fill-rule="nonzero" fill-opacity="1" /><path clip-path="url(#clip500)" d="M1663.33 1458.23 L1663.33 1469.3 Q1658.36 1466.76 1653.01 1465.49 Q1647.67 1464.21 1641.94 1464.21 Q1633.22 1464.21 1628.83 1466.89 Q1624.5 1469.56 1624.5 1474.91 Q1624.5 1478.98 1627.62 1481.34 Q1630.73 1483.63 1640.16 1485.73 L1644.17 1486.62 Q1656.64 1489.29 1661.86 1494.19 Q1667.15 1499.03 1667.15 1507.75 Q1667.15 1517.68 1659.25 1523.48 Q1651.42 1529.27 1637.67 1529.27 Q1631.94 1529.27 1625.71 1528.12 Q1619.53 1527.04 1612.66 1524.81 L1612.66 1512.72 Q1619.15 1516.09 1625.45 1517.81 Q1631.75 1519.47 1637.93 1519.47 Q1646.2 1519.47 1650.66 1516.67 Q1655.12 1513.8 1655.12 1508.64 Q1655.12 1503.87 1651.87 1501.32 Q1648.69 1498.78 1637.8 1496.42 L1633.73 1495.47 Q1622.84 1493.18 1618 1488.47 Q1613.17 1483.69 1613.17 1475.42 Q1613.17 1465.36 1620.3 1459.88 Q1627.42 1454.41 1640.54 1454.41 Q1647.03 1454.41 1652.76 1455.36 Q1658.49 1456.32 1663.33 1458.23 Z" fill="#000000" fill-rule="nonzero" fill-opacity="1" /><polyline clip-path="url(#clip502)" style="stroke:#000000; stroke-linecap:round; stroke-linejoin:round; stroke-width:4; stroke-opacity:0.1; fill:none" points="680.45,1212.74 2305.51,1212.74 "/>
<polyline clip-path="url(#clip502)" style="stroke:#000000; stroke-linecap:round; stroke-linejoin:round; stroke-width:4; stroke-opacity:0.1; fill:none" points="680.45,1051.91 2305.51,1051.91 "/>
<polyline clip-path="url(#clip502)" style="stroke:#000000; stroke-linecap:round; stroke-linejoin:round; stroke-width:4; stroke-opacity:0.1; fill:none" points="680.45,891.071 2305.51,891.071 "/>
<polyline clip-path="url(#clip502)" style="stroke:#000000; stroke-linecap:round; stroke-linejoin:round; stroke-width:4; stroke-opacity:0.1; fill:none" points="680.45,730.236 2305.51,730.236 "/>
<polyline clip-path="url(#clip502)" style="stroke:#000000; stroke-linecap:round; stroke-linejoin:round; stroke-width:4; stroke-opacity:0.1; fill:none" points="680.45,569.401 2305.51,569.401 "/>
<polyline clip-path="url(#clip502)" style="stroke:#000000; stroke-linecap:round; stroke-linejoin:round; stroke-width:4; stroke-opacity:0.1; fill:none" points="680.45,408.567 2305.51,408.567 "/>
<polyline clip-path="url(#clip502)" style="stroke:#000000; stroke-linecap:round; stroke-linejoin:round; stroke-width:4; stroke-opacity:0.1; fill:none" points="680.45,247.732 2305.51,247.732 "/>
<polyline clip-path="url(#clip500)" style="stroke:#000000; stroke-linecap:round; stroke-linejoin:round; stroke-width:8; stroke-opacity:1; fill:none" points="680.45,1273.7 680.45,94.4882 "/>
<polyline clip-path="url(#clip500)" style="stroke:#000000; stroke-linecap:round; stroke-linejoin:round; stroke-width:8; stroke-opacity:1; fill:none" points="680.45,1212.74 699.348,1212.74 "/>
<polyline clip-path="url(#clip500)" style="stroke:#000000; stroke-linecap:round; stroke-linejoin:round; stroke-width:8; stroke-opacity:1; fill:none" points="680.45,1051.91 699.348,1051.91 "/>
<polyline clip-path="url(#clip500)" style="stroke:#000000; stroke-linecap:round; stroke-linejoin:round; stroke-width:8; stroke-opacity:1; fill:none" points="680.45,891.071 699.348,891.071 "/>
<polyline clip-path="url(#clip500)" style="stroke:#000000; stroke-linecap:round; stroke-linejoin:round; stroke-width:8; stroke-opacity:1; fill:none" points="680.45,730.236 699.348,730.236 "/>
<polyline clip-path="url(#clip500)" style="stroke:#000000; stroke-linecap:round; stroke-linejoin:round; stroke-width:8; stroke-opacity:1; fill:none" points="680.45,569.401 699.348,569.401 "/>
<polyline clip-path="url(#clip500)" style="stroke:#000000; stroke-linecap:round; stroke-linejoin:round; stroke-width:8; stroke-opacity:1; fill:none" points="680.45,408.567 699.348,408.567 "/>
<polyline clip-path="url(#clip500)" style="stroke:#000000; stroke-linecap:round; stroke-linejoin:round; stroke-width:8; stroke-opacity:1; fill:none" points="680.45,247.732 699.348,247.732 "/>
<path clip-path="url(#clip500)" d="M449.868 1178.18 L486.581 1178.18 L486.581 1186.05 L458.433 1186.05 L458.433 1202.99 Q460.47 1202.3 462.507 1201.98 Q464.544 1201.61 466.581 1201.61 Q478.155 1201.61 484.914 1207.95 Q491.673 1214.29 491.673 1225.12 Q491.673 1236.28 484.729 1242.48 Q477.785 1248.64 465.146 1248.64 Q460.794 1248.64 456.257 1247.9 Q451.766 1247.16 446.951 1245.68 L446.951 1236.28 Q451.118 1238.55 455.562 1239.66 Q460.007 1240.77 464.961 1240.77 Q472.97 1240.77 477.646 1236.56 Q482.322 1232.35 482.322 1225.12 Q482.322 1217.9 477.646 1213.69 Q472.97 1209.48 464.961 1209.48 Q461.211 1209.48 457.461 1210.31 Q453.757 1211.14 449.868 1212.9 L449.868 1178.18 Z" fill="#000000" fill-rule="nonzero" fill-opacity="1" /><path clip-path="url(#clip500)" d="M530.099 1184.34 Q522.877 1184.34 519.22 1191.47 Q515.608 1198.55 515.608 1212.81 Q515.608 1227.02 519.22 1234.15 Q522.877 1241.23 530.099 1241.23 Q537.368 1241.23 540.979 1234.15 Q544.636 1227.02 544.636 1212.81 Q544.636 1198.55 540.979 1191.47 Q537.368 1184.34 530.099 1184.34 M530.099 1176.93 Q541.719 1176.93 547.831 1186.14 Q553.988 1195.31 553.988 1212.81 Q553.988 1230.26 547.831 1239.48 Q541.719 1248.64 530.099 1248.64 Q518.479 1248.64 512.321 1239.48 Q506.21 1230.26 506.21 1212.81 Q506.21 1195.31 512.321 1186.14 Q518.479 1176.93 530.099 1176.93 Z" fill="#000000" fill-rule="nonzero" fill-opacity="1" /><path clip-path="url(#clip500)" d="M570.423 1235.54 L580.191 1235.54 L580.191 1247.3 L570.423 1247.3 L570.423 1235.54 Z" fill="#000000" fill-rule="nonzero" fill-opacity="1" /><path clip-path="url(#clip500)" d="M620.562 1184.34 Q613.339 1184.34 609.682 1191.47 Q606.071 1198.55 606.071 1212.81 Q606.071 1227.02 609.682 1234.15 Q613.339 1241.23 620.562 1241.23 Q627.83 1241.23 631.441 1234.15 Q635.099 1227.02 635.099 1212.81 Q635.099 1198.55 631.441 1191.47 Q627.83 1184.34 620.562 1184.34 M620.562 1176.93 Q632.182 1176.93 638.293 1186.14 Q644.45 1195.31 644.45 1212.81 Q644.45 1230.26 638.293 1239.48 Q632.182 1248.64 620.562 1248.64 Q608.941 1248.64 602.784 1239.48 Q596.673 1230.26 596.673 1212.81 Q596.673 1195.31 602.784 1186.14 Q608.941 1176.93 620.562 1176.93 Z" fill="#000000" fill-rule="nonzero" fill-opacity="1" /><path clip-path="url(#clip500)" d="M391.072 1078.59 L406.35 1078.59 L406.35 1025.86 L389.73 1029.2 L389.73 1020.68 L406.257 1017.35 L415.609 1017.35 L415.609 1078.59 L430.887 1078.59 L430.887 1086.47 L391.072 1086.47 L391.072 1078.59 Z" fill="#000000" fill-rule="nonzero" fill-opacity="1" /><path clip-path="url(#clip500)" d="M469.775 1023.5 Q462.553 1023.5 458.896 1030.63 Q455.285 1037.72 455.285 1051.97 Q455.285 1066.19 458.896 1073.32 Q462.553 1080.4 469.775 1080.4 Q477.044 1080.4 480.655 1073.32 Q484.312 1066.19 484.312 1051.97 Q484.312 1037.72 480.655 1030.63 Q477.044 1023.5 469.775 1023.5 M469.775 1016.1 Q481.396 1016.1 487.507 1025.31 Q493.664 1034.47 493.664 1051.97 Q493.664 1069.43 487.507 1078.64 Q481.396 1087.81 469.775 1087.81 Q458.155 1087.81 451.998 1078.64 Q445.887 1069.43 445.887 1051.97 Q445.887 1034.47 451.998 1025.31 Q458.155 1016.1 469.775 1016.1 Z" fill="#000000" fill-rule="nonzero" fill-opacity="1" /><path clip-path="url(#clip500)" d="M530.099 1023.5 Q522.877 1023.5 519.22 1030.63 Q515.608 1037.72 515.608 1051.97 Q515.608 1066.19 519.22 1073.32 Q522.877 1080.4 530.099 1080.4 Q537.368 1080.4 540.979 1073.32 Q544.636 1066.19 544.636 1051.97 Q544.636 1037.72 540.979 1030.63 Q537.368 1023.5 530.099 1023.5 M530.099 1016.1 Q541.719 1016.1 547.831 1025.31 Q553.988 1034.47 553.988 1051.97 Q553.988 1069.43 547.831 1078.64 Q541.719 1087.81 530.099 1087.81 Q518.479 1087.81 512.321 1078.64 Q506.21 1069.43 506.21 1051.97 Q506.21 1034.47 512.321 1025.31 Q518.479 1016.1 530.099 1016.1 Z" fill="#000000" fill-rule="nonzero" fill-opacity="1" /><path clip-path="url(#clip500)" d="M570.423 1074.71 L580.191 1074.71 L580.191 1086.47 L570.423 1086.47 L570.423 1074.71 Z" fill="#000000" fill-rule="nonzero" fill-opacity="1" /><path clip-path="url(#clip500)" d="M620.562 1023.5 Q613.339 1023.5 609.682 1030.63 Q606.071 1037.72 606.071 1051.97 Q606.071 1066.19 609.682 1073.32 Q613.339 1080.4 620.562 1080.4 Q627.83 1080.4 631.441 1073.32 Q635.099 1066.19 635.099 1051.97 Q635.099 1037.72 631.441 1030.63 Q627.83 1023.5 620.562 1023.5 M620.562 1016.1 Q632.182 1016.1 638.293 1025.31 Q644.45 1034.47 644.45 1051.97 Q644.45 1069.43 638.293 1078.64 Q632.182 1087.81 620.562 1087.81 Q608.941 1087.81 602.784 1078.64 Q596.673 1069.43 596.673 1051.97 Q596.673 1034.47 602.784 1025.31 Q608.941 1016.1 620.562 1016.1 Z" fill="#000000" fill-rule="nonzero" fill-opacity="1" /><path clip-path="url(#clip500)" d="M391.072 917.76 L406.35 917.76 L406.35 865.029 L389.73 868.362 L389.73 859.844 L406.257 856.511 L415.609 856.511 L415.609 917.76 L430.887 917.76 L430.887 925.631 L391.072 925.631 L391.072 917.76 Z" fill="#000000" fill-rule="nonzero" fill-opacity="1" /><path clip-path="url(#clip500)" d="M449.868 856.511 L486.581 856.511 L486.581 864.381 L458.433 864.381 L458.433 881.325 Q460.47 880.631 462.507 880.307 Q464.544 879.936 466.581 879.936 Q478.155 879.936 484.914 886.279 Q491.673 892.621 491.673 903.455 Q491.673 914.612 484.729 920.816 Q477.785 926.973 465.146 926.973 Q460.794 926.973 456.257 926.232 Q451.766 925.492 446.951 924.01 L446.951 914.612 Q451.118 916.881 455.562 917.992 Q460.007 919.103 464.961 919.103 Q472.97 919.103 477.646 914.89 Q482.322 910.677 482.322 903.455 Q482.322 896.233 477.646 892.02 Q472.97 887.807 464.961 887.807 Q461.211 887.807 457.461 888.64 Q453.757 889.473 449.868 891.233 L449.868 856.511 Z" fill="#000000" fill-rule="nonzero" fill-opacity="1" /><path clip-path="url(#clip500)" d="M530.099 862.668 Q522.877 862.668 519.22 869.798 Q515.608 876.881 515.608 891.14 Q515.608 905.353 519.22 912.482 Q522.877 919.566 530.099 919.566 Q537.368 919.566 540.979 912.482 Q544.636 905.353 544.636 891.14 Q544.636 876.881 540.979 869.798 Q537.368 862.668 530.099 862.668 M530.099 855.261 Q541.719 855.261 547.831 864.473 Q553.988 873.64 553.988 891.14 Q553.988 908.594 547.831 917.807 Q541.719 926.973 530.099 926.973 Q518.479 926.973 512.321 917.807 Q506.21 908.594 506.21 891.14 Q506.21 873.64 512.321 864.473 Q518.479 855.261 530.099 855.261 Z" fill="#000000" fill-rule="nonzero" fill-opacity="1" /><path clip-path="url(#clip500)" d="M570.423 913.871 L580.191 913.871 L580.191 925.631 L570.423 925.631 L570.423 913.871 Z" fill="#000000" fill-rule="nonzero" fill-opacity="1" /><path clip-path="url(#clip500)" d="M620.562 862.668 Q613.339 862.668 609.682 869.798 Q606.071 876.881 606.071 891.14 Q606.071 905.353 609.682 912.482 Q613.339 919.566 620.562 919.566 Q627.83 919.566 631.441 912.482 Q635.099 905.353 635.099 891.14 Q635.099 876.881 631.441 869.798 Q627.83 862.668 620.562 862.668 M620.562 855.261 Q632.182 855.261 638.293 864.473 Q644.45 873.64 644.45 891.14 Q644.45 908.594 638.293 917.807 Q632.182 926.973 620.562 926.973 Q608.941 926.973 602.784 917.807 Q596.673 908.594 596.673 891.14 Q596.673 873.64 602.784 864.473 Q608.941 855.261 620.562 855.261 Z" fill="#000000" fill-rule="nonzero" fill-opacity="1" /><path clip-path="url(#clip500)" d="M397.507 756.926 L430.146 756.926 L430.146 764.796 L386.257 764.796 L386.257 756.926 Q391.581 751.416 400.748 742.157 Q409.961 732.852 412.322 730.166 Q416.813 725.12 418.572 721.648 Q420.378 718.13 420.378 714.75 Q420.378 709.241 416.489 705.768 Q412.646 702.296 406.442 702.296 Q402.044 702.296 397.137 703.824 Q392.276 705.352 386.72 708.454 L386.72 699.009 Q392.368 696.741 397.276 695.583 Q402.183 694.426 406.257 694.426 Q416.998 694.426 423.387 699.796 Q429.776 705.167 429.776 714.148 Q429.776 718.407 428.155 722.25 Q426.581 726.046 422.368 731.231 Q421.211 732.574 415.007 739.009 Q408.803 745.398 397.507 756.926 Z" fill="#000000" fill-rule="nonzero" fill-opacity="1" /><path clip-path="url(#clip500)" d="M469.775 701.833 Q462.553 701.833 458.896 708.963 Q455.285 716.046 455.285 730.305 Q455.285 744.518 458.896 751.648 Q462.553 758.731 469.775 758.731 Q477.044 758.731 480.655 751.648 Q484.312 744.518 484.312 730.305 Q484.312 716.046 480.655 708.963 Q477.044 701.833 469.775 701.833 M469.775 694.426 Q481.396 694.426 487.507 703.639 Q493.664 712.805 493.664 730.305 Q493.664 747.759 487.507 756.972 Q481.396 766.139 469.775 766.139 Q458.155 766.139 451.998 756.972 Q445.887 747.759 445.887 730.305 Q445.887 712.805 451.998 703.639 Q458.155 694.426 469.775 694.426 Z" fill="#000000" fill-rule="nonzero" fill-opacity="1" /><path clip-path="url(#clip500)" d="M530.099 701.833 Q522.877 701.833 519.22 708.963 Q515.608 716.046 515.608 730.305 Q515.608 744.518 519.22 751.648 Q522.877 758.731 530.099 758.731 Q537.368 758.731 540.979 751.648 Q544.636 744.518 544.636 730.305 Q544.636 716.046 540.979 708.963 Q537.368 701.833 530.099 701.833 M530.099 694.426 Q541.719 694.426 547.831 703.639 Q553.988 712.805 553.988 730.305 Q553.988 747.759 547.831 756.972 Q541.719 766.139 530.099 766.139 Q518.479 766.139 512.321 756.972 Q506.21 747.759 506.21 730.305 Q506.21 712.805 512.321 703.639 Q518.479 694.426 530.099 694.426 Z" fill="#000000" fill-rule="nonzero" fill-opacity="1" /><path clip-path="url(#clip500)" d="M570.423 753.037 L580.191 753.037 L580.191 764.796 L570.423 764.796 L570.423 753.037 Z" fill="#000000" fill-rule="nonzero" fill-opacity="1" /><path clip-path="url(#clip500)" d="M620.562 701.833 Q613.339 701.833 609.682 708.963 Q606.071 716.046 606.071 730.305 Q606.071 744.518 609.682 751.648 Q613.339 758.731 620.562 758.731 Q627.83 758.731 631.441 751.648 Q635.099 744.518 635.099 730.305 Q635.099 716.046 631.441 708.963 Q627.83 701.833 620.562 701.833 M620.562 694.426 Q632.182 694.426 638.293 703.639 Q644.45 712.805 644.45 730.305 Q644.45 747.759 638.293 756.972 Q632.182 766.139 620.562 766.139 Q608.941 766.139 602.784 756.972 Q596.673 747.759 596.673 730.305 Q596.673 712.805 602.784 703.639 Q608.941 694.426 620.562 694.426 Z" fill="#000000" fill-rule="nonzero" fill-opacity="1" /><path clip-path="url(#clip500)" d="M397.507 596.091 L430.146 596.091 L430.146 603.961 L386.257 603.961 L386.257 596.091 Q391.581 590.582 400.748 581.323 Q409.961 572.017 412.322 569.332 Q416.813 564.286 418.572 560.813 Q420.378 557.295 420.378 553.915 Q420.378 548.406 416.489 544.934 Q412.646 541.462 406.442 541.462 Q402.044 541.462 397.137 542.989 Q392.276 544.517 386.72 547.619 L386.72 538.175 Q392.368 535.906 397.276 534.749 Q402.183 533.591 406.257 533.591 Q416.998 533.591 423.387 538.962 Q429.776 544.332 429.776 553.313 Q429.776 557.573 428.155 561.415 Q426.581 565.212 422.368 570.397 Q421.211 571.739 415.007 578.174 Q408.803 584.563 397.507 596.091 Z" fill="#000000" fill-rule="nonzero" fill-opacity="1" /><path clip-path="url(#clip500)" d="M449.868 534.841 L486.581 534.841 L486.581 542.712 L458.433 542.712 L458.433 559.656 Q460.47 558.962 462.507 558.637 Q464.544 558.267 466.581 558.267 Q478.155 558.267 484.914 564.61 Q491.673 570.952 491.673 581.786 Q491.673 592.943 484.729 599.147 Q477.785 605.304 465.146 605.304 Q460.794 605.304 456.257 604.563 Q451.766 603.822 446.951 602.341 L446.951 592.943 Q451.118 595.211 455.562 596.322 Q460.007 597.434 464.961 597.434 Q472.97 597.434 477.646 593.221 Q482.322 589.008 482.322 581.786 Q482.322 574.563 477.646 570.35 Q472.97 566.137 464.961 566.137 Q461.211 566.137 457.461 566.971 Q453.757 567.804 449.868 569.563 L449.868 534.841 Z" fill="#000000" fill-rule="nonzero" fill-opacity="1" /><path clip-path="url(#clip500)" d="M530.099 540.999 Q522.877 540.999 519.22 548.128 Q515.608 555.212 515.608 569.471 Q515.608 583.684 519.22 590.813 Q522.877 597.897 530.099 597.897 Q537.368 597.897 540.979 590.813 Q544.636 583.684 544.636 569.471 Q544.636 555.212 540.979 548.128 Q537.368 540.999 530.099 540.999 M530.099 533.591 Q541.719 533.591 547.831 542.804 Q553.988 551.971 553.988 569.471 Q553.988 586.924 547.831 596.137 Q541.719 605.304 530.099 605.304 Q518.479 605.304 512.321 596.137 Q506.21 586.924 506.21 569.471 Q506.21 551.971 512.321 542.804 Q518.479 533.591 530.099 533.591 Z" fill="#000000" fill-rule="nonzero" fill-opacity="1" /><path clip-path="url(#clip500)" d="M570.423 592.202 L580.191 592.202 L580.191 603.961 L570.423 603.961 L570.423 592.202 Z" fill="#000000" fill-rule="nonzero" fill-opacity="1" /><path clip-path="url(#clip500)" d="M620.562 540.999 Q613.339 540.999 609.682 548.128 Q606.071 555.212 606.071 569.471 Q606.071 583.684 609.682 590.813 Q613.339 597.897 620.562 597.897 Q627.83 597.897 631.441 590.813 Q635.099 583.684 635.099 569.471 Q635.099 555.212 631.441 548.128 Q627.83 540.999 620.562 540.999 M620.562 533.591 Q632.182 533.591 638.293 542.804 Q644.45 551.971 644.45 569.471 Q644.45 586.924 638.293 596.137 Q632.182 605.304 620.562 605.304 Q608.941 605.304 602.784 596.137 Q596.673 586.924 596.673 569.471 Q596.673 551.971 602.784 542.804 Q608.941 533.591 620.562 533.591 Z" fill="#000000" fill-rule="nonzero" fill-opacity="1" /><path clip-path="url(#clip500)" d="M417.785 405.858 Q424.498 407.294 428.248 411.831 Q432.044 416.368 432.044 423.034 Q432.044 433.266 425.007 438.867 Q417.97 444.469 405.007 444.469 Q400.655 444.469 396.026 443.59 Q391.442 442.756 386.535 441.043 L386.535 432.016 Q390.424 434.284 395.054 435.442 Q399.683 436.599 404.729 436.599 Q413.526 436.599 418.109 433.127 Q422.739 429.655 422.739 423.034 Q422.739 416.923 418.433 413.497 Q414.174 410.025 406.535 410.025 L398.479 410.025 L398.479 402.34 L406.905 402.34 Q413.803 402.34 417.461 399.608 Q421.118 396.831 421.118 391.645 Q421.118 386.321 417.322 383.497 Q413.572 380.627 406.535 380.627 Q402.692 380.627 398.294 381.46 Q393.896 382.294 388.618 384.053 L388.618 375.72 Q393.942 374.238 398.572 373.497 Q403.248 372.757 407.368 372.757 Q418.016 372.757 424.22 377.618 Q430.424 382.433 430.424 390.673 Q430.424 396.414 427.137 400.395 Q423.85 404.331 417.785 405.858 Z" fill="#000000" fill-rule="nonzero" fill-opacity="1" /><path clip-path="url(#clip500)" d="M469.775 380.164 Q462.553 380.164 458.896 387.294 Q455.285 394.377 455.285 408.636 Q455.285 422.849 458.896 429.979 Q462.553 437.062 469.775 437.062 Q477.044 437.062 480.655 429.979 Q484.312 422.849 484.312 408.636 Q484.312 394.377 480.655 387.294 Q477.044 380.164 469.775 380.164 M469.775 372.757 Q481.396 372.757 487.507 381.97 Q493.664 391.136 493.664 408.636 Q493.664 426.09 487.507 435.303 Q481.396 444.469 469.775 444.469 Q458.155 444.469 451.998 435.303 Q445.887 426.09 445.887 408.636 Q445.887 391.136 451.998 381.97 Q458.155 372.757 469.775 372.757 Z" fill="#000000" fill-rule="nonzero" fill-opacity="1" /><path clip-path="url(#clip500)" d="M530.099 380.164 Q522.877 380.164 519.22 387.294 Q515.608 394.377 515.608 408.636 Q515.608 422.849 519.22 429.979 Q522.877 437.062 530.099 437.062 Q537.368 437.062 540.979 429.979 Q544.636 422.849 544.636 408.636 Q544.636 394.377 540.979 387.294 Q537.368 380.164 530.099 380.164 M530.099 372.757 Q541.719 372.757 547.831 381.97 Q553.988 391.136 553.988 408.636 Q553.988 426.09 547.831 435.303 Q541.719 444.469 530.099 444.469 Q518.479 444.469 512.321 435.303 Q506.21 426.09 506.21 408.636 Q506.21 391.136 512.321 381.97 Q518.479 372.757 530.099 372.757 Z" fill="#000000" fill-rule="nonzero" fill-opacity="1" /><path clip-path="url(#clip500)" d="M570.423 431.368 L580.191 431.368 L580.191 443.127 L570.423 443.127 L570.423 431.368 Z" fill="#000000" fill-rule="nonzero" fill-opacity="1" /><path clip-path="url(#clip500)" d="M620.562 380.164 Q613.339 380.164 609.682 387.294 Q606.071 394.377 606.071 408.636 Q606.071 422.849 609.682 429.979 Q613.339 437.062 620.562 437.062 Q627.83 437.062 631.441 429.979 Q635.099 422.849 635.099 408.636 Q635.099 394.377 631.441 387.294 Q627.83 380.164 620.562 380.164 M620.562 372.757 Q632.182 372.757 638.293 381.97 Q644.45 391.136 644.45 408.636 Q644.45 426.09 638.293 435.303 Q632.182 444.469 620.562 444.469 Q608.941 444.469 602.784 435.303 Q596.673 426.09 596.673 408.636 Q596.673 391.136 602.784 381.97 Q608.941 372.757 620.562 372.757 Z" fill="#000000" fill-rule="nonzero" fill-opacity="1" /><path clip-path="url(#clip500)" d="M417.785 245.024 Q424.498 246.459 428.248 250.996 Q432.044 255.533 432.044 262.2 Q432.044 272.431 425.007 278.033 Q417.97 283.635 405.007 283.635 Q400.655 283.635 396.026 282.755 Q391.442 281.922 386.535 280.209 L386.535 271.181 Q390.424 273.45 395.054 274.607 Q399.683 275.764 404.729 275.764 Q413.526 275.764 418.109 272.292 Q422.739 268.82 422.739 262.2 Q422.739 256.089 418.433 252.663 Q414.174 249.19 406.535 249.19 L398.479 249.19 L398.479 241.505 L406.905 241.505 Q413.803 241.505 417.461 238.774 Q421.118 235.996 421.118 230.811 Q421.118 225.487 417.322 222.663 Q413.572 219.792 406.535 219.792 Q402.692 219.792 398.294 220.626 Q393.896 221.459 388.618 223.218 L388.618 214.885 Q393.942 213.404 398.572 212.663 Q403.248 211.922 407.368 211.922 Q418.016 211.922 424.22 216.783 Q430.424 221.598 430.424 229.839 Q430.424 235.579 427.137 239.561 Q423.85 243.496 417.785 245.024 Z" fill="#000000" fill-rule="nonzero" fill-opacity="1" /><path clip-path="url(#clip500)" d="M449.868 213.172 L486.581 213.172 L486.581 221.042 L458.433 221.042 L458.433 237.987 Q460.47 237.292 462.507 236.968 Q464.544 236.598 466.581 236.598 Q478.155 236.598 484.914 242.94 Q491.673 249.283 491.673 260.116 Q491.673 271.274 484.729 277.477 Q477.785 283.635 465.146 283.635 Q460.794 283.635 456.257 282.894 Q451.766 282.153 446.951 280.672 L446.951 271.274 Q451.118 273.542 455.562 274.653 Q460.007 275.764 464.961 275.764 Q472.97 275.764 477.646 271.551 Q482.322 267.338 482.322 260.116 Q482.322 252.894 477.646 248.681 Q472.97 244.468 464.961 244.468 Q461.211 244.468 457.461 245.302 Q453.757 246.135 449.868 247.894 L449.868 213.172 Z" fill="#000000" fill-rule="nonzero" fill-opacity="1" /><path clip-path="url(#clip500)" d="M530.099 219.329 Q522.877 219.329 519.22 226.459 Q515.608 233.542 515.608 247.802 Q515.608 262.014 519.22 269.144 Q522.877 276.227 530.099 276.227 Q537.368 276.227 540.979 269.144 Q544.636 262.014 544.636 247.802 Q544.636 233.542 540.979 226.459 Q537.368 219.329 530.099 219.329 M530.099 211.922 Q541.719 211.922 547.831 221.135 Q553.988 230.302 553.988 247.802 Q553.988 265.255 547.831 274.468 Q541.719 283.635 530.099 283.635 Q518.479 283.635 512.321 274.468 Q506.21 265.255 506.21 247.802 Q506.21 230.302 512.321 221.135 Q518.479 211.922 530.099 211.922 Z" fill="#000000" fill-rule="nonzero" fill-opacity="1" /><path clip-path="url(#clip500)" d="M570.423 270.533 L580.191 270.533 L580.191 282.292 L570.423 282.292 L570.423 270.533 Z" fill="#000000" fill-rule="nonzero" fill-opacity="1" /><path clip-path="url(#clip500)" d="M620.562 219.329 Q613.339 219.329 609.682 226.459 Q606.071 233.542 606.071 247.802 Q606.071 262.014 609.682 269.144 Q613.339 276.227 620.562 276.227 Q627.83 276.227 631.441 269.144 Q635.099 262.014 635.099 247.802 Q635.099 233.542 631.441 226.459 Q627.83 219.329 620.562 219.329 M620.562 211.922 Q632.182 211.922 638.293 221.135 Q644.45 230.302 644.45 247.802 Q644.45 265.255 638.293 274.468 Q632.182 283.635 620.562 283.635 Q608.941 283.635 602.784 274.468 Q596.673 265.255 596.673 247.802 Q596.673 230.302 602.784 221.135 Q608.941 211.922 620.562 211.922 Z" fill="#000000" fill-rule="nonzero" fill-opacity="1" /><path clip-path="url(#clip500)" d="M311.051 931.4 L348.863 931.4 L348.863 943.176 L250.449 943.176 L250.449 931.4 L261.271 931.4 Q254.905 927.708 251.85 922.106 Q248.731 916.44 248.731 908.61 Q248.731 895.624 259.043 887.54 Q269.356 879.392 286.161 879.392 Q302.966 879.392 313.279 887.54 Q323.591 895.624 323.591 908.61 Q323.591 916.44 320.536 922.106 Q317.417 927.708 311.051 931.4 M286.161 891.55 Q273.239 891.55 265.918 896.898 Q258.534 902.181 258.534 911.475 Q258.534 920.769 265.918 926.116 Q273.239 931.4 286.161 931.4 Q299.083 931.4 306.468 926.116 Q313.788 920.769 313.788 911.475 Q313.788 902.181 306.468 896.898 Q299.083 891.55 286.161 891.55 Z" fill="#000000" fill-rule="nonzero" fill-opacity="1" /><path clip-path="url(#clip500)" d="M285.906 827.575 Q285.906 841.771 289.153 847.245 Q292.399 852.72 300.229 852.72 Q306.468 852.72 310.16 848.645 Q313.788 844.508 313.788 837.442 Q313.788 827.702 306.913 821.846 Q299.975 815.926 288.516 815.926 L285.906 815.926 L285.906 827.575 M281.068 804.213 L321.745 804.213 L321.745 815.926 L310.924 815.926 Q317.417 819.936 320.536 825.92 Q323.591 831.904 323.591 840.561 Q323.591 851.51 317.48 858.003 Q311.306 864.432 300.993 864.432 Q288.962 864.432 282.851 856.412 Q276.74 848.327 276.74 832.349 L276.74 815.926 L275.594 815.926 Q267.509 815.926 263.117 821.273 Q258.661 826.556 258.661 836.169 Q258.661 842.28 260.125 848.073 Q261.589 853.865 264.518 859.213 L253.696 859.213 Q251.213 852.783 250.004 846.736 Q248.731 840.688 248.731 834.959 Q248.731 819.491 256.751 811.852 Q264.772 804.213 281.068 804.213 Z" fill="#000000" fill-rule="nonzero" fill-opacity="1" /><path clip-path="url(#clip500)" d="M261.398 738.773 Q260.253 740.747 259.743 743.102 Q259.17 745.394 259.17 748.195 Q259.17 758.125 265.663 763.472 Q272.093 768.756 284.188 768.756 L321.745 768.756 L321.745 780.532 L250.449 780.532 L250.449 768.756 L261.526 768.756 Q255.033 765.064 251.914 759.144 Q248.731 753.224 248.731 744.757 Q248.731 743.548 248.922 742.084 Q249.049 740.619 249.367 738.837 L261.398 738.773 Z" fill="#000000" fill-rule="nonzero" fill-opacity="1" /><path clip-path="url(#clip500)" d="M283.169 668.369 L288.898 668.369 L288.898 722.223 Q300.993 721.459 307.359 714.966 Q313.661 708.409 313.661 696.76 Q313.661 690.012 312.006 683.71 Q310.351 677.344 307.041 671.106 L318.117 671.106 Q320.79 677.408 322.191 684.028 Q323.591 690.649 323.591 697.46 Q323.591 714.52 313.661 724.514 Q303.73 734.445 286.798 734.445 Q269.292 734.445 259.043 725.023 Q248.731 715.539 248.731 699.497 Q248.731 685.11 258.025 676.771 Q267.255 668.369 283.169 668.369 M279.732 680.082 Q270.119 680.209 264.39 685.492 Q258.661 690.712 258.661 699.37 Q258.661 709.173 264.199 715.093 Q269.737 720.949 279.795 721.841 L279.732 680.082 Z" fill="#000000" fill-rule="nonzero" fill-opacity="1" /><path clip-path="url(#clip500)" d="M278.713 589.88 L321.745 589.88 L321.745 601.592 L279.095 601.592 Q268.974 601.592 263.945 605.539 Q258.916 609.486 258.916 617.379 Q258.916 626.864 264.963 632.339 Q271.011 637.813 281.45 637.813 L321.745 637.813 L321.745 649.59 L250.449 649.59 L250.449 637.813 L261.526 637.813 Q255.096 633.612 251.914 627.946 Q248.731 622.217 248.731 614.769 Q248.731 602.484 256.37 596.182 Q263.945 589.88 278.713 589.88 Z" fill="#000000" fill-rule="nonzero" fill-opacity="1" /><path clip-path="url(#clip500)" d="M305.576 564.862 L305.576 551.431 L321.745 551.431 L321.745 564.862 L305.576 564.862 Z" fill="#000000" fill-rule="nonzero" fill-opacity="1" /><path clip-path="url(#clip500)" d="M310.924 479.753 L310.924 458.746 L238.418 458.746 L243.002 481.599 L231.289 481.599 L226.705 458.873 L226.705 446.015 L310.924 446.015 L310.924 425.008 L321.745 425.008 L321.745 479.753 L310.924 479.753 Z" fill="#000000" fill-rule="nonzero" fill-opacity="1" /><polyline clip-path="url(#clip502)" style="stroke:#008000; stroke-linecap:round; stroke-linejoin:round; stroke-width:8; stroke-opacity:1; fill:none" points="726.443,325.448 844.372,411.196 962.301,465.514 1080.23,506.103 1198.16,599.331 1316.09,615.836 1434.02,667.269 1551.95,732.485 1669.87,774.257 1787.8,857.918 1905.73,792.869 2023.66,736.227 2141.59,782.379 2259.52,805.846 "/>
<circle clip-path="url(#clip502)" cx="726.443" cy="325.448" r="14.4" fill="#008000" fill-rule="evenodd" fill-opacity="1" stroke="#000000" stroke-opacity="1" stroke-width="6.4"/>
<circle clip-path="url(#clip502)" cx="844.372" cy="411.196" r="14.4" fill="#008000" fill-rule="evenodd" fill-opacity="1" stroke="#000000" stroke-opacity="1" stroke-width="6.4"/>
<circle clip-path="url(#clip502)" cx="962.301" cy="465.514" r="14.4" fill="#008000" fill-rule="evenodd" fill-opacity="1" stroke="#000000" stroke-opacity="1" stroke-width="6.4"/>
<circle clip-path="url(#clip502)" cx="1080.23" cy="506.103" r="14.4" fill="#008000" fill-rule="evenodd" fill-opacity="1" stroke="#000000" stroke-opacity="1" stroke-width="6.4"/>
<circle clip-path="url(#clip502)" cx="1198.16" cy="599.331" r="14.4" fill="#008000" fill-rule="evenodd" fill-opacity="1" stroke="#000000" stroke-opacity="1" stroke-width="6.4"/>
<circle clip-path="url(#clip502)" cx="1316.09" cy="615.836" r="14.4" fill="#008000" fill-rule="evenodd" fill-opacity="1" stroke="#000000" stroke-opacity="1" stroke-width="6.4"/>
<circle clip-path="url(#clip502)" cx="1434.02" cy="667.269" r="14.4" fill="#008000" fill-rule="evenodd" fill-opacity="1" stroke="#000000" stroke-opacity="1" stroke-width="6.4"/>
<circle clip-path="url(#clip502)" cx="1551.95" cy="732.485" r="14.4" fill="#008000" fill-rule="evenodd" fill-opacity="1" stroke="#000000" stroke-opacity="1" stroke-width="6.4"/>
<circle clip-path="url(#clip502)" cx="1669.87" cy="774.257" r="14.4" fill="#008000" fill-rule="evenodd" fill-opacity="1" stroke="#000000" stroke-opacity="1" stroke-width="6.4"/>
<circle clip-path="url(#clip502)" cx="1787.8" cy="857.918" r="14.4" fill="#008000" fill-rule="evenodd" fill-opacity="1" stroke="#000000" stroke-opacity="1" stroke-width="6.4"/>
<circle clip-path="url(#clip502)" cx="1905.73" cy="792.869" r="14.4" fill="#008000" fill-rule="evenodd" fill-opacity="1" stroke="#000000" stroke-opacity="1" stroke-width="6.4"/>
<circle clip-path="url(#clip502)" cx="2023.66" cy="736.227" r="14.4" fill="#008000" fill-rule="evenodd" fill-opacity="1" stroke="#000000" stroke-opacity="1" stroke-width="6.4"/>
<circle clip-path="url(#clip502)" cx="2141.59" cy="782.379" r="14.4" fill="#008000" fill-rule="evenodd" fill-opacity="1" stroke="#000000" stroke-opacity="1" stroke-width="6.4"/>
<circle clip-path="url(#clip502)" cx="2259.52" cy="805.846" r="14.4" fill="#008000" fill-rule="evenodd" fill-opacity="1" stroke="#000000" stroke-opacity="1" stroke-width="6.4"/>
<polyline clip-path="url(#clip502)" style="stroke:#00008b; stroke-linecap:round; stroke-linejoin:round; stroke-width:8; stroke-opacity:1; fill:none" points="726.443,141.437 844.372,1008.26 962.301,1046.41 1080.23,1066.41 1198.16,1085.03 1316.09,1098.15 1434.02,1117.25 1551.95,1133.36 1669.87,1144.41 1787.8,1160.49 1905.73,1166.55 2023.66,1177.09 2141.59,1188.18 2259.52,1196.77 "/>
<path clip-path="url(#clip502)" d="M726.443 151.961 L844.372 1081.45 L962.301 1104.69 L1080.23 1122.62 L1198.16 1141.18 L1316.09 1152.16 L1434.02 1168.7 L1551.95 1183.83 L1669.87 1194.8 L1787.8 1205.95 L1905.73 1210.07 L2023.66 1224.21 L2141.59 1232.49 L2259.52 1240.32 L2259.52 1174.62 L2141.59 1165.37 L2023.66 1157.5 L1905.73 1145.5 L1787.8 1147.08 L1669.87 1130.19 L1551.95 1112.66 L1434.02 1105.02 L1316.09 1082.82 L1198.16 1073.74 L1080.23 1059.23 L962.301 1039.97 L844.372 1012.35 L726.443 127.862  Z" fill="#0000ff" fill-rule="evenodd" fill-opacity="0.1"/>
<polyline clip-path="url(#clip502)" style="stroke:#0000ff; stroke-linecap:round; stroke-linejoin:round; stroke-width:0; stroke-opacity:0.1; fill:none" points="726.443,151.961 844.372,1081.45 962.301,1104.69 1080.23,1122.62 1198.16,1141.18 1316.09,1152.16 1434.02,1168.7 1551.95,1183.83 1669.87,1194.8 1787.8,1205.95 1905.73,1210.07 2023.66,1224.21 2141.59,1232.49 2259.52,1240.32 "/>
</svg>
