<?xml version="1.0" encoding="utf-8"?>
<svg xmlns="http://www.w3.org/2000/svg" xmlns:xlink="http://www.w3.org/1999/xlink" width="600" height="400" viewBox="0 0 2400 1600">
<defs>
  <clipPath id="clip540">
    <rect x="0" y="0" width="2400" height="1600"/>
  </clipPath>
</defs>
<path clip-path="url(#clip540)" d="M0 1600 L2400 1600 L2400 0 L0 0  Z" fill="#ffffff" fill-rule="evenodd" fill-opacity="1"/>
<defs>
  <clipPath id="clip541">
    <rect x="480" y="0" width="1681" height="1600"/>
  </clipPath>
</defs>
<path clip-path="url(#clip540)" d="M440.544 1273.7 L2305.51 1273.7 L2305.51 94.4882 L440.544 94.4882  Z" fill="#ffffff" fill-rule="evenodd" fill-opacity="1"/>
<defs>
  <clipPath id="clip542">
    <rect x="440" y="94" width="1866" height="1180"/>
  </clipPath>
</defs>
<polyline clip-path="url(#clip542)" style="stroke:#000000; stroke-linecap:round; stroke-linejoin:round; stroke-width:4; stroke-opacity:0.1; fill:none" points="493.326,1273.7 493.326,94.4882 "/>
<polyline clip-path="url(#clip542)" style="stroke:#000000; stroke-linecap:round; stroke-linejoin:round; stroke-width:4; stroke-opacity:0.1; fill:none" points="807.506,1273.7 807.506,94.4882 "/>
<polyline clip-path="url(#clip542)" style="stroke:#000000; stroke-linecap:round; stroke-linejoin:round; stroke-width:4; stroke-opacity:0.1; fill:none" points="1121.68,1273.7 1121.68,94.4882 "/>
<polyline clip-path="url(#clip542)" style="stroke:#000000; stroke-linecap:round; stroke-linejoin:round; stroke-width:4; stroke-opacity:0.1; fill:none" points="1435.86,1273.7 1435.86,94.4882 "/>
<polyline clip-path="url(#clip542)" style="stroke:#000000; stroke-linecap:round; stroke-linejoin:round; stroke-width:4; stroke-opacity:0.1; fill:none" points="1750.04,1273.7 1750.04,94.4882 "/>
<polyline clip-path="url(#clip542)" style="stroke:#000000; stroke-linecap:round; stroke-linejoin:round; stroke-width:4; stroke-opacity:0.1; fill:none" points="2064.22,1273.7 2064.22,94.4882 "/>
<polyline clip-path="url(#clip540)" style="stroke:#000000; stroke-linecap:round; stroke-linejoin:round; stroke-width:8; stroke-opacity:1; fill:none" points="440.544,1273.7 2305.51,1273.7 "/>
<polyline clip-path="url(#clip540)" style="stroke:#000000; stroke-linecap:round; stroke-linejoin:round; stroke-width:8; stroke-opacity:1; fill:none" points="493.326,1273.7 493.326,1254.8 "/>
<polyline clip-path="url(#clip540)" style="stroke:#000000; stroke-linecap:round; stroke-linejoin:round; stroke-width:8; stroke-opacity:1; fill:none" points="807.506,1273.7 807.506,1254.8 "/>
<polyline clip-path="url(#clip540)" style="stroke:#000000; stroke-linecap:round; stroke-linejoin:round; stroke-width:8; stroke-opacity:1; fill:none" points="1121.68,1273.7 1121.68,1254.8 "/>
<polyline clip-path="url(#clip540)" style="stroke:#000000; stroke-linecap:round; stroke-linejoin:round; stroke-width:8; stroke-opacity:1; fill:none" points="1435.86,1273.7 1435.86,1254.8 "/>
<polyline clip-path="url(#clip540)" style="stroke:#000000; stroke-linecap:round; stroke-linejoin:round; stroke-width:8; stroke-opacity:1; fill:none" points="1750.04,1273.7 1750.04,1254.8 "/>
<polyline clip-path="url(#clip540)" style="stroke:#000000; stroke-linecap:round; stroke-linejoin:round; stroke-width:8; stroke-opacity:1; fill:none" points="2064.22,1273.7 2064.22,1254.8 "/>
<path clip-path="url(#clip540)" d="M493.326 1316.33 Q486.104 1316.33 482.447 1323.46 Q478.836 1330.55 478.836 1344.81 Q478.836 1359.02 482.447 1366.15 Q486.104 1373.23 493.326 1373.23 Q500.595 1373.23 504.206 1366.15 Q507.863 1359.02 507.863 1344.81 Q507.863 1330.55 504.206 1323.46 Q500.595 1316.33 493.326 1316.33 M493.326 1308.93 Q504.947 1308.93 511.058 1318.14 Q517.215 1327.31 517.215 1344.81 Q517.215 1362.26 511.058 1371.47 Q504.947 1380.64 493.326 1380.64 Q481.706 1380.64 475.549 1371.47 Q469.438 1362.26 469.438 1344.81 Q469.438 1327.31 475.549 1318.14 Q481.706 1308.93 493.326 1308.93 Z" fill="#000000" fill-rule="nonzero" fill-opacity="1" /><path clip-path="url(#clip540)" d="M788.061 1310.18 L824.774 1310.18 L824.774 1318.05 L796.626 1318.05 L796.626 1334.99 Q798.663 1334.3 800.7 1333.97 Q802.737 1333.6 804.774 1333.6 Q816.348 1333.6 823.107 1339.94 Q829.867 1346.29 829.867 1357.12 Q829.867 1368.28 822.922 1374.48 Q815.978 1380.64 803.339 1380.64 Q798.987 1380.64 794.45 1379.9 Q789.959 1379.16 785.145 1377.68 L785.145 1368.28 Q789.311 1370.55 793.756 1371.66 Q798.2 1372.77 803.154 1372.77 Q811.163 1372.77 815.839 1368.56 Q820.515 1364.34 820.515 1357.12 Q820.515 1349.9 815.839 1345.68 Q811.163 1341.47 803.154 1341.47 Q799.404 1341.47 795.654 1342.31 Q791.95 1343.14 788.061 1344.9 L788.061 1310.18 Z" fill="#000000" fill-rule="nonzero" fill-opacity="1" /><path clip-path="url(#clip540)" d="M1071.06 1371.43 L1086.34 1371.43 L1086.34 1318.69 L1069.72 1322.03 L1069.72 1313.51 L1086.25 1310.18 L1095.6 1310.18 L1095.6 1371.43 L1110.87 1371.43 L1110.87 1379.3 L1071.06 1379.3 L1071.06 1371.43 Z" fill="#000000" fill-rule="nonzero" fill-opacity="1" /><path clip-path="url(#clip540)" d="M1149.76 1316.33 Q1142.54 1316.33 1138.88 1323.46 Q1135.27 1330.55 1135.27 1344.81 Q1135.27 1359.02 1138.88 1366.15 Q1142.54 1373.23 1149.76 1373.23 Q1157.03 1373.23 1160.64 1366.15 Q1164.3 1359.02 1164.3 1344.81 Q1164.3 1330.55 1160.64 1323.46 Q1157.03 1316.33 1149.76 1316.33 M1149.76 1308.93 Q1161.38 1308.93 1167.49 1318.14 Q1173.65 1327.31 1173.65 1344.81 Q1173.65 1362.26 1167.49 1371.47 Q1161.38 1380.64 1149.76 1380.64 Q1138.14 1380.64 1131.99 1371.47 Q1125.87 1362.26 1125.87 1344.81 Q1125.87 1327.31 1131.99 1318.14 Q1138.14 1308.93 1149.76 1308.93 Z" fill="#000000" fill-rule="nonzero" fill-opacity="1" /><path clip-path="url(#clip540)" d="M1386.23 1371.43 L1401.51 1371.43 L1401.51 1318.69 L1384.89 1322.03 L1384.89 1313.51 L1401.42 1310.18 L1410.77 1310.18 L1410.77 1371.43 L1426.05 1371.43 L1426.05 1379.3 L1386.23 1379.3 L1386.23 1371.43 Z" fill="#000000" fill-rule="nonzero" fill-opacity="1" /><path clip-path="url(#clip540)" d="M1445.03 1310.18 L1481.74 1310.18 L1481.74 1318.05 L1453.6 1318.05 L1453.6 1334.99 Q1455.63 1334.3 1457.67 1333.97 Q1459.71 1333.6 1461.74 1333.6 Q1473.32 1333.6 1480.08 1339.94 Q1486.84 1346.29 1486.84 1357.12 Q1486.84 1368.28 1479.89 1374.48 Q1472.95 1380.64 1460.31 1380.64 Q1455.96 1380.64 1451.42 1379.9 Q1446.93 1379.16 1442.11 1377.68 L1442.11 1368.28 Q1446.28 1370.55 1450.72 1371.66 Q1455.17 1372.77 1460.12 1372.77 Q1468.13 1372.77 1472.81 1368.56 Q1477.48 1364.34 1477.48 1357.12 Q1477.48 1349.9 1472.81 1345.68 Q1468.13 1341.47 1460.12 1341.47 Q1456.37 1341.47 1452.62 1342.31 Q1448.92 1343.14 1445.03 1344.9 L1445.03 1310.18 Z" fill="#000000" fill-rule="nonzero" fill-opacity="1" /><path clip-path="url(#clip540)" d="M1707.59 1371.43 L1740.23 1371.43 L1740.23 1379.3 L1696.34 1379.3 L1696.34 1371.43 Q1701.66 1365.92 1710.83 1356.66 Q1720.04 1347.35 1722.4 1344.67 Q1726.9 1339.62 1728.65 1336.15 Q1730.46 1332.63 1730.46 1329.25 Q1730.46 1323.74 1726.57 1320.27 Q1722.73 1316.8 1716.52 1316.8 Q1712.13 1316.8 1707.22 1318.32 Q1702.36 1319.85 1696.8 1322.95 L1696.8 1313.51 Q1702.45 1311.24 1707.36 1310.08 Q1712.27 1308.93 1716.34 1308.93 Q1727.08 1308.93 1733.47 1314.3 Q1739.86 1319.67 1739.86 1328.65 Q1739.86 1332.91 1738.24 1336.75 Q1736.66 1340.55 1732.45 1345.73 Q1731.29 1347.07 1725.09 1353.51 Q1718.89 1359.9 1707.59 1371.43 Z" fill="#000000" fill-rule="nonzero" fill-opacity="1" /><path clip-path="url(#clip540)" d="M1779.86 1316.33 Q1772.64 1316.33 1768.98 1323.46 Q1765.37 1330.55 1765.37 1344.81 Q1765.37 1359.02 1768.98 1366.15 Q1772.64 1373.23 1779.86 1373.23 Q1787.13 1373.23 1790.74 1366.15 Q1794.39 1359.02 1794.39 1344.81 Q1794.39 1330.55 1790.74 1323.46 Q1787.13 1316.33 1779.86 1316.33 M1779.86 1308.93 Q1791.48 1308.93 1797.59 1318.14 Q1803.75 1327.31 1803.75 1344.81 Q1803.75 1362.26 1797.59 1371.47 Q1791.48 1380.64 1779.86 1380.64 Q1768.24 1380.64 1762.08 1371.47 Q1755.97 1362.26 1755.97 1344.81 Q1755.97 1327.31 1762.08 1318.14 Q1768.24 1308.93 1779.86 1308.93 Z" fill="#000000" fill-rule="nonzero" fill-opacity="1" /><path clip-path="url(#clip540)" d="M2022.76 1371.43 L2055.4 1371.43 L2055.4 1379.3 L2011.51 1379.3 L2011.51 1371.43 Q2016.84 1365.92 2026 1356.66 Q2035.22 1347.35 2037.58 1344.67 Q2042.07 1339.62 2043.83 1336.15 Q2045.63 1332.63 2045.63 1329.25 Q2045.63 1323.74 2041.75 1320.27 Q2037.9 1316.8 2031.7 1316.8 Q2027.3 1316.8 2022.39 1318.32 Q2017.53 1319.85 2011.98 1322.95 L2011.98 1313.51 Q2017.63 1311.24 2022.53 1310.08 Q2027.44 1308.93 2031.51 1308.93 Q2042.25 1308.93 2048.64 1314.3 Q2055.03 1319.67 2055.03 1328.65 Q2055.03 1332.91 2053.41 1336.75 Q2051.84 1340.55 2047.63 1345.73 Q2046.47 1347.07 2040.26 1353.51 Q2034.06 1359.9 2022.76 1371.43 Z" fill="#000000" fill-rule="nonzero" fill-opacity="1" /><path clip-path="url(#clip540)" d="M2075.12 1310.18 L2111.84 1310.18 L2111.84 1318.05 L2083.69 1318.05 L2083.69 1334.99 Q2085.73 1334.3 2087.76 1333.97 Q2089.8 1333.6 2091.84 1333.6 Q2103.41 1333.6 2110.17 1339.94 Q2116.93 1346.29 2116.93 1357.12 Q2116.93 1368.28 2109.99 1374.48 Q2103.04 1380.64 2090.4 1380.64 Q2086.05 1380.64 2081.51 1379.9 Q2077.02 1379.16 2072.21 1377.68 L2072.21 1368.28 Q2076.37 1370.55 2080.82 1371.66 Q2085.26 1372.77 2090.22 1372.77 Q2098.23 1372.77 2102.9 1368.56 Q2107.58 1364.34 2107.58 1357.12 Q2107.58 1349.9 2102.9 1345.68 Q2098.23 1341.47 2090.22 1341.47 Q2086.47 1341.47 2082.72 1342.31 Q2079.01 1343.14 2075.12 1344.9 L2075.12 1310.18 Z" fill="#000000" fill-rule="nonzero" fill-opacity="1" /><path clip-path="url(#clip540)" d="M1258.57 1484.39 L1258.57 1527.42 L1246.86 1527.42 L1246.86 1484.77 Q1246.86 1474.65 1242.91 1469.62 Q1238.97 1464.59 1231.07 1464.59 Q1221.59 1464.59 1216.11 1470.64 Q1210.64 1476.69 1210.64 1487.13 L1210.64 1527.42 L1198.86 1527.42 L1198.86 1428.37 L1210.64 1428.37 L1210.64 1467.2 Q1214.84 1460.77 1220.51 1457.59 Q1226.23 1454.41 1233.68 1454.41 Q1245.97 1454.41 1252.27 1462.05 Q1258.57 1469.62 1258.57 1484.39 Z" fill="#000000" fill-rule="nonzero" fill-opacity="1" /><path clip-path="url(#clip540)" d="M1309.56 1464.34 Q1300.14 1464.34 1294.67 1471.72 Q1289.19 1479.04 1289.19 1491.84 Q1289.19 1504.63 1294.6 1512.02 Q1300.08 1519.34 1309.56 1519.34 Q1318.92 1519.34 1324.39 1511.96 Q1329.87 1504.57 1329.87 1491.84 Q1329.87 1479.17 1324.39 1471.79 Q1318.92 1464.34 1309.56 1464.34 M1309.56 1454.41 Q1324.84 1454.41 1333.56 1464.34 Q1342.28 1474.27 1342.28 1491.84 Q1342.28 1509.35 1333.56 1519.34 Q1324.84 1529.27 1309.56 1529.27 Q1294.22 1529.27 1285.5 1519.34 Q1276.84 1509.35 1276.84 1491.84 Q1276.84 1474.27 1285.5 1464.34 Q1294.22 1454.41 1309.56 1454.41 Z" fill="#000000" fill-rule="nonzero" fill-opacity="1" /><path clip-path="url(#clip540)" d="M1360.49 1499.29 L1360.49 1456.13 L1372.2 1456.13 L1372.2 1498.84 Q1372.2 1508.96 1376.15 1514.06 Q1380.09 1519.08 1387.99 1519.08 Q1397.47 1519.08 1402.95 1513.04 Q1408.49 1506.99 1408.49 1496.55 L1408.49 1456.13 L1420.2 1456.13 L1420.2 1527.42 L1408.49 1527.42 L1408.49 1516.47 Q1404.22 1522.97 1398.55 1526.15 Q1392.95 1529.27 1385.5 1529.27 Q1373.22 1529.27 1366.85 1521.63 Q1360.49 1513.99 1360.49 1499.29 M1389.96 1454.41 L1389.96 1454.41 Z" fill="#000000" fill-rule="nonzero" fill-opacity="1" /><path clip-path="url(#clip540)" d="M1485.64 1467.08 Q1483.66 1465.93 1481.31 1465.42 Q1479.02 1464.85 1476.22 1464.85 Q1466.29 1464.85 1460.94 1471.34 Q1455.65 1477.77 1455.65 1489.87 L1455.65 1527.42 L1443.88 1527.42 L1443.88 1456.13 L1455.65 1456.13 L1455.65 1467.2 Q1459.35 1460.71 1465.27 1457.59 Q1471.19 1454.41 1479.65 1454.41 Q1480.86 1454.41 1482.33 1454.6 Q1483.79 1454.73 1485.57 1455.05 L1485.64 1467.08 Z" fill="#000000" fill-rule="nonzero" fill-opacity="1" /><path clip-path="url(#clip540)" d="M1543.37 1458.23 L1543.37 1469.3 Q1538.41 1466.76 1533.06 1465.49 Q1527.71 1464.21 1521.99 1464.21 Q1513.26 1464.21 1508.87 1466.89 Q1504.54 1469.56 1504.54 1474.91 Q1504.54 1478.98 1507.66 1481.34 Q1510.78 1483.63 1520.2 1485.73 L1524.21 1486.62 Q1536.69 1489.29 1541.91 1494.19 Q1547.19 1499.03 1547.19 1507.75 Q1547.19 1517.68 1539.3 1523.48 Q1531.47 1529.27 1517.72 1529.27 Q1511.99 1529.27 1505.75 1528.12 Q1499.58 1527.04 1492.7 1524.81 L1492.7 1512.72 Q1499.2 1516.09 1505.5 1517.81 Q1511.8 1519.47 1517.98 1519.47 Q1526.25 1519.47 1530.71 1516.67 Q1535.16 1513.8 1535.16 1508.64 Q1535.16 1503.87 1531.92 1501.32 Q1528.73 1498.78 1517.85 1496.42 L1513.77 1495.47 Q1502.89 1493.18 1498.05 1488.47 Q1493.21 1483.69 1493.21 1475.42 Q1493.21 1465.36 1500.34 1459.88 Q1507.47 1454.41 1520.59 1454.41 Q1527.08 1454.41 1532.81 1455.36 Q1538.54 1456.32 1543.37 1458.23 Z" fill="#000000" fill-rule="nonzero" fill-opacity="1" /><polyline clip-path="url(#clip542)" style="stroke:#000000; stroke-linecap:round; stroke-linejoin:round; stroke-width:4; stroke-opacity:0.1; fill:none" points="440.544,1139.26 2305.51,1139.26 "/>
<polyline clip-path="url(#clip542)" style="stroke:#000000; stroke-linecap:round; stroke-linejoin:round; stroke-width:4; stroke-opacity:0.1; fill:none" points="440.544,880.179 2305.51,880.179 "/>
<polyline clip-path="url(#clip542)" style="stroke:#000000; stroke-linecap:round; stroke-linejoin:round; stroke-width:4; stroke-opacity:0.1; fill:none" points="440.544,621.1 2305.51,621.1 "/>
<polyline clip-path="url(#clip542)" style="stroke:#000000; stroke-linecap:round; stroke-linejoin:round; stroke-width:4; stroke-opacity:0.1; fill:none" points="440.544,362.021 2305.51,362.021 "/>
<polyline clip-path="url(#clip542)" style="stroke:#000000; stroke-linecap:round; stroke-linejoin:round; stroke-width:4; stroke-opacity:0.1; fill:none" points="440.544,102.941 2305.51,102.941 "/>
<polyline clip-path="url(#clip540)" style="stroke:#000000; stroke-linecap:round; stroke-linejoin:round; stroke-width:8; stroke-opacity:1; fill:none" points="440.544,1273.7 440.544,94.4882 "/>
<polyline clip-path="url(#clip540)" style="stroke:#000000; stroke-linecap:round; stroke-linejoin:round; stroke-width:8; stroke-opacity:1; fill:none" points="440.544,1139.26 459.442,1139.26 "/>
<polyline clip-path="url(#clip540)" style="stroke:#000000; stroke-linecap:round; stroke-linejoin:round; stroke-width:8; stroke-opacity:1; fill:none" points="440.544,880.179 459.442,880.179 "/>
<polyline clip-path="url(#clip540)" style="stroke:#000000; stroke-linecap:round; stroke-linejoin:round; stroke-width:8; stroke-opacity:1; fill:none" points="440.544,621.1 459.442,621.1 "/>
<polyline clip-path="url(#clip540)" style="stroke:#000000; stroke-linecap:round; stroke-linejoin:round; stroke-width:8; stroke-opacity:1; fill:none" points="440.544,362.021 459.442,362.021 "/>
<polyline clip-path="url(#clip540)" style="stroke:#000000; stroke-linecap:round; stroke-linejoin:round; stroke-width:8; stroke-opacity:1; fill:none" points="440.544,102.941 459.442,102.941 "/>
<path clip-path="url(#clip540)" d="M290.193 1110.86 Q282.971 1110.86 279.313 1117.99 Q275.702 1125.07 275.702 1139.33 Q275.702 1153.54 279.313 1160.67 Q282.971 1167.75 290.193 1167.75 Q297.461 1167.75 301.073 1160.67 Q304.73 1153.54 304.73 1139.33 Q304.73 1125.07 301.073 1117.99 Q297.461 1110.86 290.193 1110.86 M290.193 1103.45 Q301.813 1103.45 307.924 1112.66 Q314.082 1121.83 314.082 1139.33 Q314.082 1156.78 307.924 1165.99 Q301.813 1175.16 290.193 1175.16 Q278.573 1175.16 272.415 1165.99 Q266.304 1156.78 266.304 1139.33 Q266.304 1121.83 272.415 1112.66 Q278.573 1103.45 290.193 1103.45 Z" fill="#000000" fill-rule="nonzero" fill-opacity="1" /><path clip-path="url(#clip540)" d="M330.517 1162.06 L340.285 1162.06 L340.285 1173.82 L330.517 1173.82 L330.517 1162.06 Z" fill="#000000" fill-rule="nonzero" fill-opacity="1" /><path clip-path="url(#clip540)" d="M380.655 1110.86 Q373.433 1110.86 369.776 1117.99 Q366.165 1125.07 366.165 1139.33 Q366.165 1153.54 369.776 1160.67 Q373.433 1167.75 380.655 1167.75 Q387.924 1167.75 391.535 1160.67 Q395.192 1153.54 395.192 1139.33 Q395.192 1125.07 391.535 1117.99 Q387.924 1110.86 380.655 1110.86 M380.655 1103.45 Q392.276 1103.45 398.387 1112.66 Q404.544 1121.83 404.544 1139.33 Q404.544 1156.78 398.387 1165.99 Q392.276 1175.16 380.655 1175.16 Q369.035 1175.16 362.878 1165.99 Q356.767 1156.78 356.767 1139.33 Q356.767 1121.83 362.878 1112.66 Q369.035 1103.45 380.655 1103.45 Z" fill="#000000" fill-rule="nonzero" fill-opacity="1" /><path clip-path="url(#clip540)" d="M292.184 851.776 Q284.962 851.776 281.304 858.906 Q277.693 865.989 277.693 880.249 Q277.693 894.461 281.304 901.591 Q284.962 908.674 292.184 908.674 Q299.452 908.674 303.063 901.591 Q306.721 894.461 306.721 880.249 Q306.721 865.989 303.063 858.906 Q299.452 851.776 292.184 851.776 M292.184 844.369 Q303.804 844.369 309.915 853.582 Q316.073 862.749 316.073 880.249 Q316.073 897.702 309.915 906.915 Q303.804 916.082 292.184 916.082 Q280.563 916.082 274.406 906.915 Q268.295 897.702 268.295 880.249 Q268.295 862.749 274.406 853.582 Q280.563 844.369 292.184 844.369 Z" fill="#000000" fill-rule="nonzero" fill-opacity="1" /><path clip-path="url(#clip540)" d="M332.508 902.98 L342.276 902.98 L342.276 914.739 L332.508 914.739 L332.508 902.98 Z" fill="#000000" fill-rule="nonzero" fill-opacity="1" /><path clip-path="url(#clip540)" d="M362.739 845.619 L399.452 845.619 L399.452 853.489 L371.304 853.489 L371.304 870.434 Q373.341 869.739 375.378 869.415 Q377.415 869.045 379.452 869.045 Q391.026 869.045 397.785 875.387 Q404.544 881.73 404.544 892.563 Q404.544 903.721 397.6 909.924 Q390.655 916.082 378.017 916.082 Q373.665 916.082 369.128 915.341 Q364.637 914.6 359.822 913.119 L359.822 903.721 Q363.989 905.989 368.433 907.1 Q372.878 908.211 377.831 908.211 Q385.841 908.211 390.517 903.998 Q395.192 899.785 395.192 892.563 Q395.192 885.341 390.517 881.128 Q385.841 876.915 377.831 876.915 Q374.081 876.915 370.331 877.749 Q366.628 878.582 362.739 880.341 L362.739 845.619 Z" fill="#000000" fill-rule="nonzero" fill-opacity="1" /><path clip-path="url(#clip540)" d="M271.813 647.789 L287.091 647.789 L287.091 595.058 L270.471 598.392 L270.471 589.873 L286.999 586.54 L296.35 586.54 L296.35 647.789 L311.628 647.789 L311.628 655.66 L271.813 655.66 L271.813 647.789 Z" fill="#000000" fill-rule="nonzero" fill-opacity="1" /><path clip-path="url(#clip540)" d="M330.517 643.901 L340.285 643.901 L340.285 655.66 L330.517 655.66 L330.517 643.901 Z" fill="#000000" fill-rule="nonzero" fill-opacity="1" /><path clip-path="url(#clip540)" d="M380.655 592.697 Q373.433 592.697 369.776 599.827 Q366.165 606.91 366.165 621.169 Q366.165 635.382 369.776 642.512 Q373.433 649.595 380.655 649.595 Q387.924 649.595 391.535 642.512 Q395.192 635.382 395.192 621.169 Q395.192 606.91 391.535 599.827 Q387.924 592.697 380.655 592.697 M380.655 585.29 Q392.276 585.29 398.387 594.503 Q404.544 603.669 404.544 621.169 Q404.544 638.623 398.387 647.836 Q392.276 657.002 380.655 657.002 Q369.035 657.002 362.878 647.836 Q356.767 638.623 356.767 621.169 Q356.767 603.669 362.878 594.503 Q369.035 585.29 380.655 585.29 Z" fill="#000000" fill-rule="nonzero" fill-opacity="1" /><path clip-path="url(#clip540)" d="M273.804 388.71 L289.082 388.71 L289.082 335.979 L272.462 339.312 L272.462 330.794 L288.989 327.461 L298.341 327.461 L298.341 388.71 L313.619 388.71 L313.619 396.581 L273.804 396.581 L273.804 388.71 Z" fill="#000000" fill-rule="nonzero" fill-opacity="1" /><path clip-path="url(#clip540)" d="M332.508 384.821 L342.276 384.821 L342.276 396.581 L332.508 396.581 L332.508 384.821 Z" fill="#000000" fill-rule="nonzero" fill-opacity="1" /><path clip-path="url(#clip540)" d="M362.739 327.461 L399.452 327.461 L399.452 335.331 L371.304 335.331 L371.304 352.275 Q373.341 351.581 375.378 351.257 Q377.415 350.886 379.452 350.886 Q391.026 350.886 397.785 357.229 Q404.544 363.571 404.544 374.405 Q404.544 385.562 397.6 391.766 Q390.655 397.923 378.017 397.923 Q373.665 397.923 369.128 397.182 Q364.637 396.442 359.822 394.96 L359.822 385.562 Q363.989 387.831 368.433 388.942 Q372.878 390.053 377.831 390.053 Q385.841 390.053 390.517 385.84 Q395.192 381.627 395.192 374.405 Q395.192 367.183 390.517 362.97 Q385.841 358.757 377.831 358.757 Q374.081 358.757 370.331 359.59 Q366.628 360.423 362.739 362.183 L362.739 327.461 Z" fill="#000000" fill-rule="nonzero" fill-opacity="1" /><path clip-path="url(#clip540)" d="M278.249 129.631 L310.887 129.631 L310.887 137.501 L266.999 137.501 L266.999 129.631 Q272.323 124.122 281.489 114.862 Q290.702 105.557 293.063 102.872 Q297.554 97.8255 299.313 94.3533 Q301.119 90.8348 301.119 87.4552 Q301.119 81.946 297.23 78.4738 Q293.387 75.0016 287.184 75.0016 Q282.786 75.0016 277.878 76.5293 Q273.017 78.0571 267.462 81.1589 L267.462 71.7146 Q273.11 69.446 278.017 68.2886 Q282.925 67.1312 286.999 67.1312 Q297.739 67.1312 304.128 72.5016 Q310.517 77.8719 310.517 86.8534 Q310.517 91.1126 308.897 94.9552 Q307.323 98.7514 303.11 103.937 Q301.952 105.279 295.749 111.714 Q289.545 118.103 278.249 129.631 Z" fill="#000000" fill-rule="nonzero" fill-opacity="1" /><path clip-path="url(#clip540)" d="M330.517 125.742 L340.285 125.742 L340.285 137.501 L330.517 137.501 L330.517 125.742 Z" fill="#000000" fill-rule="nonzero" fill-opacity="1" /><path clip-path="url(#clip540)" d="M380.655 74.5386 Q373.433 74.5386 369.776 81.6682 Q366.165 88.7515 366.165 103.011 Q366.165 117.224 369.776 124.353 Q373.433 131.436 380.655 131.436 Q387.924 131.436 391.535 124.353 Q395.192 117.224 395.192 103.011 Q395.192 88.7515 391.535 81.6682 Q387.924 74.5386 380.655 74.5386 M380.655 67.1312 Q392.276 67.1312 398.387 76.3442 Q404.544 85.5108 404.544 103.011 Q404.544 120.464 398.387 129.677 Q392.276 138.844 380.655 138.844 Q369.035 138.844 362.878 129.677 Q356.767 120.464 356.767 103.011 Q356.767 85.5108 362.878 76.3442 Q369.035 67.1312 380.655 67.1312 Z" fill="#000000" fill-rule="nonzero" fill-opacity="1" /><path clip-path="url(#clip540)" d="M159.97 1187.36 Q159.97 1192.9 164.68 1196.09 Q169.391 1199.2 177.794 1199.2 Q186.069 1199.2 190.843 1196.09 Q195.554 1192.9 195.554 1187.36 Q195.554 1181.95 190.843 1178.83 Q186.069 1175.65 177.794 1175.65 Q169.454 1175.65 164.744 1178.83 Q159.97 1181.95 159.97 1187.36 M151.885 1187.36 Q151.885 1177.31 158.887 1171.39 Q165.89 1165.47 177.794 1165.47 Q189.697 1165.47 196.7 1171.45 Q203.638 1177.37 203.638 1187.36 Q203.638 1197.55 196.7 1203.47 Q189.697 1209.39 177.794 1209.39 Q165.826 1209.39 158.887 1203.47 Q151.885 1197.49 151.885 1187.36 M113.118 1253.06 Q113.118 1258.53 117.892 1261.72 Q122.603 1264.84 130.878 1264.84 Q139.281 1264.84 143.992 1261.72 Q148.702 1258.6 148.702 1253.06 Q148.702 1247.52 143.992 1244.4 Q139.281 1241.22 130.878 1241.22 Q122.667 1241.22 117.892 1244.4 Q113.118 1247.58 113.118 1253.06 M105.034 1195.58 L105.034 1185.39 L203.638 1244.85 L203.638 1255.03 L105.034 1195.58 M105.034 1253.06 Q105.034 1243 112.036 1237.02 Q118.974 1231.03 130.878 1231.03 Q142.909 1231.03 149.848 1237.02 Q156.787 1242.94 156.787 1253.06 Q156.787 1263.18 149.848 1269.1 Q142.846 1274.96 130.878 1274.96 Q119.038 1274.96 112.036 1269.04 Q105.034 1263.12 105.034 1253.06 Z" fill="#000000" fill-rule="nonzero" fill-opacity="1" /><path clip-path="url(#clip540)" d="M130.496 1104.55 L130.496 1092.83 L201.792 1092.83 L201.792 1104.55 L130.496 1104.55 M102.742 1104.55 L102.742 1092.83 L117.574 1092.83 L117.574 1104.55 L102.742 1104.55 Z" fill="#000000" fill-rule="nonzero" fill-opacity="1" /><path clip-path="url(#clip540)" d="M158.76 1009.06 L201.792 1009.06 L201.792 1020.77 L159.142 1020.77 Q149.021 1020.77 143.992 1024.72 Q138.963 1028.67 138.963 1036.56 Q138.963 1046.05 145.01 1051.52 Q151.058 1057 161.497 1057 L201.792 1057 L201.792 1068.77 L130.496 1068.77 L130.496 1057 L141.573 1057 Q135.143 1052.79 131.96 1047.13 Q128.778 1041.4 128.778 1033.95 Q128.778 1021.67 136.416 1015.36 Q143.992 1009.06 158.76 1009.06 Z" fill="#000000" fill-rule="nonzero" fill-opacity="1" /><path clip-path="url(#clip540)" d="M130.496 985.699 L130.496 973.986 L203.065 973.986 Q216.688 973.986 222.799 979.206 Q228.91 984.362 228.91 995.884 L228.91 1000.34 L218.98 1000.34 L218.98 997.221 Q218.98 990.537 215.86 988.118 Q212.805 985.699 203.065 985.699 L130.496 985.699 M102.742 985.699 L102.742 973.986 L117.574 973.986 L117.574 985.699 L102.742 985.699 Z" fill="#000000" fill-rule="nonzero" fill-opacity="1" /><path clip-path="url(#clip540)" d="M185.623 947.823 L185.623 934.392 L201.792 934.392 L201.792 947.823 L185.623 947.823 Z" fill="#000000" fill-rule="nonzero" fill-opacity="1" /><path clip-path="url(#clip540)" d="M144.183 811.088 Q136.289 806.695 132.533 800.584 Q128.778 794.473 128.778 786.198 Q128.778 775.058 136.607 769.01 Q144.374 762.963 158.76 762.963 L201.792 762.963 L201.792 774.74 L159.142 774.74 Q148.893 774.74 143.928 778.368 Q138.963 781.997 138.963 789.444 Q138.963 798.547 145.01 803.831 Q151.058 809.114 161.497 809.114 L201.792 809.114 L201.792 820.891 L159.142 820.891 Q148.83 820.891 143.928 824.519 Q138.963 828.148 138.963 835.723 Q138.963 844.699 145.074 849.982 Q151.121 855.266 161.497 855.266 L201.792 855.266 L201.792 867.042 L130.496 867.042 L130.496 855.266 L141.573 855.266 Q135.016 851.255 131.897 845.654 Q128.778 840.052 128.778 832.349 Q128.778 824.583 132.724 819.172 Q136.671 813.698 144.183 811.088 Z" fill="#000000" fill-rule="nonzero" fill-opacity="1" /><path clip-path="url(#clip540)" d="M165.953 707.199 Q165.953 721.395 169.2 726.87 Q172.446 732.344 180.276 732.344 Q186.515 732.344 190.207 728.27 Q193.835 724.132 193.835 717.066 Q193.835 707.327 186.96 701.47 Q180.022 695.55 168.563 695.55 L165.953 695.55 L165.953 707.199 M161.115 683.837 L201.792 683.837 L201.792 695.55 L190.971 695.55 Q197.464 699.561 200.583 705.544 Q203.638 711.528 203.638 720.186 Q203.638 731.135 197.527 737.628 Q191.352 744.057 181.04 744.057 Q169.009 744.057 162.898 736.036 Q156.787 727.952 156.787 711.974 L156.787 695.55 L155.641 695.55 Q147.556 695.55 143.164 700.897 Q138.708 706.181 138.708 715.793 Q138.708 721.904 140.172 727.697 Q141.636 733.49 144.565 738.837 L133.743 738.837 Q131.26 732.408 130.051 726.36 Q128.778 720.313 128.778 714.584 Q128.778 699.115 136.798 691.476 Q144.819 683.837 161.115 683.837 Z" fill="#000000" fill-rule="nonzero" fill-opacity="1" /><path clip-path="url(#clip540)" d="M132.597 614.26 L143.673 614.26 Q141.127 619.225 139.854 624.573 Q138.581 629.92 138.581 635.649 Q138.581 644.37 141.254 648.762 Q143.928 653.091 149.275 653.091 Q153.349 653.091 155.705 649.972 Q157.996 646.853 160.097 637.431 L160.988 633.421 Q163.662 620.944 168.563 615.724 Q173.401 610.441 182.122 610.441 Q192.053 610.441 197.846 618.334 Q203.638 626.164 203.638 639.914 Q203.638 645.643 202.492 651.881 Q201.41 658.056 199.182 664.931 L187.087 664.931 Q190.461 658.438 192.18 652.136 Q193.835 645.834 193.835 639.659 Q193.835 631.384 191.034 626.928 Q188.17 622.472 183.013 622.472 Q178.239 622.472 175.693 625.718 Q173.147 628.901 170.791 639.787 L169.836 643.861 Q167.545 654.746 162.834 659.584 Q158.06 664.422 149.784 664.422 Q139.727 664.422 134.252 657.292 Q128.778 650.163 128.778 637.049 Q128.778 630.556 129.732 624.827 Q130.687 619.098 132.597 614.26 Z" fill="#000000" fill-rule="nonzero" fill-opacity="1" /><path clip-path="url(#clip540)" d="M132.597 546.338 L143.673 546.338 Q141.127 551.303 139.854 556.651 Q138.581 561.998 138.581 567.727 Q138.581 576.448 141.254 580.84 Q143.928 585.169 149.275 585.169 Q153.349 585.169 155.705 582.05 Q157.996 578.93 160.097 569.509 L160.988 565.499 Q163.662 553.022 168.563 547.802 Q173.401 542.519 182.122 542.519 Q192.053 542.519 197.846 550.412 Q203.638 558.242 203.638 571.992 Q203.638 577.721 202.492 583.959 Q201.41 590.134 199.182 597.009 L187.087 597.009 Q190.461 590.516 192.18 584.214 Q193.835 577.912 193.835 571.737 Q193.835 563.462 191.034 559.006 Q188.17 554.55 183.013 554.55 Q178.239 554.55 175.693 557.796 Q173.147 560.979 170.791 571.865 L169.836 575.939 Q167.545 586.824 162.834 591.662 Q158.06 596.5 149.784 596.5 Q139.727 596.5 134.252 589.37 Q128.778 582.241 128.778 569.127 Q128.778 562.634 129.732 556.905 Q130.687 551.176 132.597 546.338 Z" fill="#000000" fill-rule="nonzero" fill-opacity="1" /><path clip-path="url(#clip540)" d="M130.496 482.426 L130.496 470.713 L201.792 470.713 L201.792 482.426 L130.496 482.426 M102.742 482.426 L102.742 470.713 L117.574 470.713 L117.574 482.426 L102.742 482.426 Z" fill="#000000" fill-rule="nonzero" fill-opacity="1" /><path clip-path="url(#clip540)" d="M158.76 386.941 L201.792 386.941 L201.792 398.654 L159.142 398.654 Q149.021 398.654 143.992 402.6 Q138.963 406.547 138.963 414.441 Q138.963 423.926 145.01 429.4 Q151.058 434.875 161.497 434.875 L201.792 434.875 L201.792 446.651 L130.496 446.651 L130.496 434.875 L141.573 434.875 Q135.143 430.673 131.96 425.008 Q128.778 419.279 128.778 411.831 Q128.778 399.545 136.416 393.243 Q143.992 386.941 158.76 386.941 Z" fill="#000000" fill-rule="nonzero" fill-opacity="1" /><path clip-path="url(#clip540)" d="M114.073 250.46 L127.632 250.46 Q121.584 256.953 118.592 264.337 Q115.601 271.658 115.601 279.933 Q115.601 296.229 125.595 304.887 Q135.525 313.544 154.368 313.544 Q173.147 313.544 183.141 304.887 Q193.071 296.229 193.071 279.933 Q193.071 271.658 190.079 264.337 Q187.087 256.953 181.04 250.46 L194.472 250.46 Q199.055 257.208 201.347 264.783 Q203.638 272.294 203.638 280.697 Q203.638 302.277 190.461 314.69 Q177.221 327.103 154.368 327.103 Q131.451 327.103 118.274 314.69 Q105.034 302.277 105.034 280.697 Q105.034 272.167 107.325 264.656 Q109.553 257.08 114.073 250.46 Z" fill="#000000" fill-rule="nonzero" fill-opacity="1" /><path clip-path="url(#clip540)" d="M109.871 173.626 L122.412 173.626 Q118.911 180.947 117.192 187.44 Q115.473 193.933 115.473 199.98 Q115.473 210.483 119.547 216.213 Q123.621 221.878 131.133 221.878 Q137.435 221.878 140.681 218.122 Q143.864 214.303 145.838 203.736 L147.429 195.97 Q150.166 181.583 157.105 174.772 Q163.98 167.897 175.566 167.897 Q189.379 167.897 196.509 177.191 Q203.638 186.421 203.638 204.309 Q203.638 211.056 202.111 218.695 Q200.583 226.27 197.591 234.418 L184.35 234.418 Q188.743 226.589 190.971 219.077 Q193.199 211.566 193.199 204.309 Q193.199 193.296 188.87 187.312 Q184.541 181.328 176.52 181.328 Q169.518 181.328 165.571 185.657 Q161.625 189.922 159.651 199.725 L158.124 207.555 Q155.259 221.942 149.148 228.371 Q143.037 234.8 132.151 234.8 Q119.547 234.8 112.29 225.952 Q105.034 217.04 105.034 201.444 Q105.034 194.76 106.243 187.821 Q107.452 180.883 109.871 173.626 Z" fill="#000000" fill-rule="nonzero" fill-opacity="1" /><path clip-path="url(#clip540)" d="M106.752 147.845 L106.752 93.2271 L117.574 93.2271 L117.574 134.986 L145.583 134.986 L145.583 97.3011 L156.405 97.3011 L156.405 134.986 L201.792 134.986 L201.792 147.845 L106.752 147.845 Z" fill="#000000" fill-rule="nonzero" fill-opacity="1" /><polyline clip-path="url(#clip542)" style="stroke:#008000; stroke-linecap:round; stroke-linejoin:round; stroke-width:8; stroke-opacity:1; fill:none" points="493.326,1139.26 556.162,880.179 807.506,154.757 1498.7,890.542 2252.73,983.811 "/>
<circle clip-path="url(#clip542)" cx="493.326" cy="1139.26" r="14.4" fill="#008000" fill-rule="evenodd" fill-opacity="1" stroke="#000000" stroke-opacity="1" stroke-width="6.4"/>
<circle clip-path="url(#clip542)" cx="556.162" cy="880.179" r="14.4" fill="#008000" fill-rule="evenodd" fill-opacity="1" stroke="#000000" stroke-opacity="1" stroke-width="6.4"/>
<circle clip-path="url(#clip542)" cx="807.506" cy="154.757" r="14.4" fill="#008000" fill-rule="evenodd" fill-opacity="1" stroke="#000000" stroke-opacity="1" stroke-width="6.4"/>
<circle clip-path="url(#clip542)" cx="1498.7" cy="890.542" r="14.4" fill="#008000" fill-rule="evenodd" fill-opacity="1" stroke="#000000" stroke-opacity="1" stroke-width="6.4"/>
<circle clip-path="url(#clip542)" cx="2252.73" cy="983.811" r="14.4" fill="#008000" fill-rule="evenodd" fill-opacity="1" stroke="#000000" stroke-opacity="1" stroke-width="6.4"/>
<polyline clip-path="url(#clip542)" style="stroke:#00008b; stroke-linecap:round; stroke-linejoin:round; stroke-width:8; stroke-opacity:1; fill:none" points="493.326,1137.05 556.162,991.155 807.506,249.373 1498.7,597.152 2252.73,873.47 "/>
<path clip-path="url(#clip542)" d="M493.326 1240.32 L556.162 1094.39 L807.506 398.933 L1498.7 736.102 L2252.73 993.202 L2252.73 776.276 L1498.7 498.086 L807.506 127.862 L556.162 884.257 L493.326 1041.92  Z" fill="#0000ff" fill-rule="evenodd" fill-opacity="0.1"/>
<polyline clip-path="url(#clip542)" style="stroke:#0000ff; stroke-linecap:round; stroke-linejoin:round; stroke-width:0; stroke-opacity:0.1; fill:none" points="493.326,1240.32 556.162,1094.39 807.506,398.933 1498.7,736.102 2252.73,993.202 "/>
<path clip-path="url(#clip540)" d="M1779.12 444.835 L2243.35 444.835 L2243.35 133.795 L1779.12 133.795  Z" fill="#ffffff" fill-rule="evenodd" fill-opacity="1"/>
<polyline clip-path="url(#clip540)" style="stroke:#000000; stroke-linecap:round; stroke-linejoin:round; stroke-width:8; stroke-opacity:1; fill:none" points="1779.12,444.835 2243.35,444.835 2243.35,133.795 1779.12,133.795 1779.12,444.835 "/>
<polyline clip-path="url(#clip540)" style="stroke:#008000; stroke-linecap:round; stroke-linejoin:round; stroke-width:8; stroke-opacity:1; fill:none" points="1799.84,237.475 1924.17,237.475 "/>
<circle clip-path="url(#clip540)" cx="1862.01" cy="237.475" r="8.63411" fill="#008000" fill-rule="evenodd" fill-opacity="1" stroke="#000000" stroke-opacity="1" stroke-width="7.67476"/>
<path clip-path="url(#clip540)" d="M2000.63 208.239 L2000.63 218.1 Q1995.91 213.702 1990.54 211.526 Q1985.22 209.35 1979.2 209.35 Q1967.35 209.35 1961.05 216.619 Q1954.76 223.841 1954.76 237.545 Q1954.76 251.202 1961.05 258.47 Q1967.35 265.693 1979.2 265.693 Q1985.22 265.693 1990.54 263.517 Q1995.91 261.341 2000.63 256.943 L2000.63 266.711 Q1995.73 270.044 1990.22 271.711 Q1984.76 273.378 1978.64 273.378 Q1962.95 273.378 1953.92 263.794 Q1944.89 254.165 1944.89 237.545 Q1944.89 220.878 1953.92 211.295 Q1962.95 201.665 1978.64 201.665 Q1984.85 201.665 1990.31 203.332 Q1995.82 204.952 2000.63 208.239 Z" fill="#000000" fill-rule="nonzero" fill-opacity="1" /><path clip-path="url(#clip540)" d="M2047.76 221.711 L2047.76 229.767 Q2044.15 227.915 2040.26 226.989 Q2036.38 226.063 2032.21 226.063 Q2025.87 226.063 2022.67 228.008 Q2019.52 229.952 2019.52 233.841 Q2019.52 236.804 2021.79 238.517 Q2024.06 240.183 2030.91 241.711 L2033.83 242.359 Q2042.9 244.304 2046.7 247.869 Q2050.54 251.387 2050.54 257.73 Q2050.54 264.952 2044.8 269.165 Q2039.11 273.378 2029.11 273.378 Q2024.94 273.378 2020.4 272.544 Q2015.91 271.757 2010.91 270.137 L2010.91 261.341 Q2015.63 263.794 2020.22 265.044 Q2024.8 266.248 2029.29 266.248 Q2035.31 266.248 2038.55 264.211 Q2041.79 262.128 2041.79 258.378 Q2041.79 254.906 2039.43 253.054 Q2037.12 251.202 2029.2 249.489 L2026.24 248.794 Q2018.32 247.128 2014.8 243.702 Q2011.28 240.23 2011.28 234.211 Q2011.28 226.896 2016.47 222.915 Q2021.65 218.934 2031.19 218.934 Q2035.91 218.934 2040.08 219.628 Q2044.25 220.322 2047.76 221.711 Z" fill="#000000" fill-rule="nonzero" fill-opacity="1" /><path clip-path="url(#clip540)" d="M2108.46 243.98 L2108.46 248.146 L2069.29 248.146 Q2069.85 256.943 2074.57 261.572 Q2079.34 266.156 2087.81 266.156 Q2092.72 266.156 2097.3 264.952 Q2101.93 263.748 2106.47 261.341 L2106.47 269.396 Q2101.88 271.341 2097.07 272.359 Q2092.25 273.378 2087.3 273.378 Q2074.89 273.378 2067.63 266.156 Q2060.4 258.933 2060.4 246.619 Q2060.4 233.887 2067.25 226.434 Q2074.15 218.934 2085.82 218.934 Q2096.28 218.934 2102.35 225.693 Q2108.46 232.406 2108.46 243.98 M2099.94 241.48 Q2099.85 234.489 2096 230.322 Q2092.21 226.156 2085.91 226.156 Q2078.78 226.156 2074.48 230.183 Q2070.22 234.211 2069.57 241.526 L2099.94 241.48 Z" fill="#000000" fill-rule="nonzero" fill-opacity="1" /><path clip-path="url(#clip540)" d="M2152.49 228.146 Q2151.05 227.313 2149.34 226.943 Q2147.67 226.526 2145.63 226.526 Q2138.41 226.526 2134.52 231.248 Q2130.68 235.924 2130.68 244.72 L2130.68 272.035 L2122.12 272.035 L2122.12 220.184 L2130.68 220.184 L2130.68 228.239 Q2133.37 223.517 2137.67 221.248 Q2141.98 218.934 2148.13 218.934 Q2149.01 218.934 2150.08 219.072 Q2151.14 219.165 2152.44 219.397 L2152.49 228.146 Z" fill="#000000" fill-rule="nonzero" fill-opacity="1" /><path clip-path="url(#clip540)" d="M2189.8 228.146 Q2188.37 227.313 2186.65 226.943 Q2184.99 226.526 2182.95 226.526 Q2175.73 226.526 2171.84 231.248 Q2168 235.924 2168 244.72 L2168 272.035 L2159.43 272.035 L2159.43 220.184 L2168 220.184 L2168 228.239 Q2170.68 223.517 2174.99 221.248 Q2179.29 218.934 2185.45 218.934 Q2186.33 218.934 2187.39 219.072 Q2188.46 219.165 2189.75 219.397 L2189.8 228.146 Z" fill="#000000" fill-rule="nonzero" fill-opacity="1" /><polyline clip-path="url(#clip540)" style="stroke:#00008b; stroke-linecap:round; stroke-linejoin:round; stroke-width:8; stroke-opacity:1; fill:none" points="1799.84,341.155 1924.17,341.155 "/>
<path clip-path="url(#clip540)" d="M1985.59 333.817 Q1988.78 328.076 1993.23 325.345 Q1997.67 322.614 2003.69 322.614 Q2011.79 322.614 2016.19 328.308 Q2020.59 333.956 2020.59 344.419 L2020.59 375.715 L2012.02 375.715 L2012.02 344.697 Q2012.02 337.243 2009.38 333.632 Q2006.75 330.021 2001.33 330.021 Q1994.71 330.021 1990.87 334.419 Q1987.02 338.817 1987.02 346.41 L1987.02 375.715 L1978.46 375.715 L1978.46 344.697 Q1978.46 337.197 1975.82 333.632 Q1973.18 330.021 1967.67 330.021 Q1961.14 330.021 1957.3 334.465 Q1953.46 338.863 1953.46 346.41 L1953.46 375.715 L1944.89 375.715 L1944.89 323.864 L1953.46 323.864 L1953.46 331.919 Q1956.38 327.151 1960.45 324.882 Q1964.52 322.614 1970.13 322.614 Q1975.77 322.614 1979.71 325.484 Q1983.69 328.354 1985.59 333.817 Z" fill="#000000" fill-rule="nonzero" fill-opacity="1" /><path clip-path="url(#clip540)" d="M2057.67 329.836 Q2050.82 329.836 2046.84 335.206 Q2042.86 340.53 2042.86 349.836 Q2042.86 359.141 2046.79 364.511 Q2050.77 369.836 2057.67 369.836 Q2064.48 369.836 2068.46 364.465 Q2072.44 359.095 2072.44 349.836 Q2072.44 340.623 2068.46 335.252 Q2064.48 329.836 2057.67 329.836 M2057.67 322.614 Q2068.78 322.614 2075.13 329.836 Q2081.47 337.058 2081.47 349.836 Q2081.47 362.567 2075.13 369.836 Q2068.78 377.058 2057.67 377.058 Q2046.51 377.058 2040.17 369.836 Q2033.88 362.567 2033.88 349.836 Q2033.88 337.058 2040.17 329.836 Q2046.51 322.614 2057.67 322.614 Z" fill="#000000" fill-rule="nonzero" fill-opacity="1" /><path clip-path="url(#clip540)" d="M2129.71 331.734 L2129.71 303.678 L2138.23 303.678 L2138.23 375.715 L2129.71 375.715 L2129.71 367.937 Q2127.02 372.567 2122.9 374.835 Q2118.83 377.058 2113.09 377.058 Q2103.69 377.058 2097.76 369.558 Q2091.88 362.058 2091.88 349.836 Q2091.88 337.613 2097.76 330.114 Q2103.69 322.614 2113.09 322.614 Q2118.83 322.614 2122.9 324.882 Q2127.02 327.104 2129.71 331.734 M2100.68 349.836 Q2100.68 359.234 2104.52 364.604 Q2108.41 369.928 2115.17 369.928 Q2121.93 369.928 2125.82 364.604 Q2129.71 359.234 2129.71 349.836 Q2129.71 340.438 2125.82 335.113 Q2121.93 329.743 2115.17 329.743 Q2108.41 329.743 2104.52 335.113 Q2100.68 340.438 2100.68 349.836 Z" fill="#000000" fill-rule="nonzero" fill-opacity="1" /><path clip-path="url(#clip540)" d="M2200.12 347.66 L2200.12 351.826 L2160.96 351.826 Q2161.51 360.623 2166.24 365.252 Q2171 369.836 2179.48 369.836 Q2184.38 369.836 2188.97 368.632 Q2193.6 367.428 2198.13 365.021 L2198.13 373.076 Q2193.55 375.021 2188.74 376.039 Q2183.92 377.058 2178.97 377.058 Q2166.56 377.058 2159.29 369.836 Q2152.07 362.613 2152.07 350.299 Q2152.07 337.567 2158.92 330.114 Q2165.82 322.614 2177.49 322.614 Q2187.95 322.614 2194.01 329.373 Q2200.12 336.086 2200.12 347.66 M2191.61 345.16 Q2191.51 338.169 2187.67 334.002 Q2183.87 329.836 2177.58 329.836 Q2170.45 329.836 2166.14 333.863 Q2161.88 337.891 2161.24 345.206 L2191.61 345.16 Z" fill="#000000" fill-rule="nonzero" fill-opacity="1" /><path clip-path="url(#clip540)" d="M2214.11 303.678 L2222.62 303.678 L2222.62 375.715 L2214.11 375.715 L2214.11 303.678 Z" fill="#000000" fill-rule="nonzero" fill-opacity="1" /></svg>
