<?xml version="1.0" encoding="utf-8"?>
<svg xmlns="http://www.w3.org/2000/svg" xmlns:xlink="http://www.w3.org/1999/xlink" width="600" height="400" viewBox="0 0 2400 1600">
<defs>
  <clipPath id="clip130">
    <rect x="0" y="0" width="2400" height="1600"/>
  </clipPath>
</defs>
<path clip-path="url(#clip130)" d="M0 1600 L2400 1600 L2400 0 L0 0  Z" fill="#ffffff" fill-rule="evenodd" fill-opacity="1"/>
<defs>
  <clipPath id="clip131">
    <rect x="480" y="0" width="1681" height="1600"/>
  </clipPath>
</defs>
<path clip-path="url(#clip130)" d="M673.506 1273.7 L2305.51 1273.7 L2305.51 94.4882 L673.506 94.4882  Z" fill="#ffffff" fill-rule="evenodd" fill-opacity="1"/>
<defs>
  <clipPath id="clip132">
    <rect x="673" y="94" width="1633" height="1180"/>
  </clipPath>
</defs>
<polyline clip-path="url(#clip132)" style="stroke:#000000; stroke-linecap:round; stroke-linejoin:round; stroke-width:4; stroke-opacity:0.1; fill:none" points="719.695,1273.7 719.695,94.4882 "/>
<polyline clip-path="url(#clip132)" style="stroke:#000000; stroke-linecap:round; stroke-linejoin:round; stroke-width:4; stroke-opacity:0.1; fill:none" points="1040.45,1273.7 1040.45,94.4882 "/>
<polyline clip-path="url(#clip132)" style="stroke:#000000; stroke-linecap:round; stroke-linejoin:round; stroke-width:4; stroke-opacity:0.1; fill:none" points="1361.21,1273.7 1361.21,94.4882 "/>
<polyline clip-path="url(#clip132)" style="stroke:#000000; stroke-linecap:round; stroke-linejoin:round; stroke-width:4; stroke-opacity:0.1; fill:none" points="1681.96,1273.7 1681.96,94.4882 "/>
<polyline clip-path="url(#clip132)" style="stroke:#000000; stroke-linecap:round; stroke-linejoin:round; stroke-width:4; stroke-opacity:0.1; fill:none" points="2002.72,1273.7 2002.72,94.4882 "/>
<polyline clip-path="url(#clip130)" style="stroke:#000000; stroke-linecap:round; stroke-linejoin:round; stroke-width:8; stroke-opacity:1; fill:none" points="673.506,1273.7 2305.51,1273.7 "/>
<polyline clip-path="url(#clip130)" style="stroke:#000000; stroke-linecap:round; stroke-linejoin:round; stroke-width:8; stroke-opacity:1; fill:none" points="719.695,1273.7 719.695,1254.8 "/>
<polyline clip-path="url(#clip130)" style="stroke:#000000; stroke-linecap:round; stroke-linejoin:round; stroke-width:8; stroke-opacity:1; fill:none" points="1040.45,1273.7 1040.45,1254.8 "/>
<polyline clip-path="url(#clip130)" style="stroke:#000000; stroke-linecap:round; stroke-linejoin:round; stroke-width:8; stroke-opacity:1; fill:none" points="1361.21,1273.7 1361.21,1254.8 "/>
<polyline clip-path="url(#clip130)" style="stroke:#000000; stroke-linecap:round; stroke-linejoin:round; stroke-width:8; stroke-opacity:1; fill:none" points="1681.96,1273.7 1681.96,1254.8 "/>
<polyline clip-path="url(#clip130)" style="stroke:#000000; stroke-linecap:round; stroke-linejoin:round; stroke-width:8; stroke-opacity:1; fill:none" points="2002.72,1273.7 2002.72,1254.8 "/>
<path clip-path="url(#clip130)" d="M644.302 1316.33 Q637.08 1316.33 633.422 1323.46 Q629.811 1330.55 629.811 1344.81 Q629.811 1359.02 633.422 1366.15 Q637.08 1373.23 644.302 1373.23 Q651.57 1373.23 655.181 1366.15 Q658.839 1359.02 658.839 1344.81 Q658.839 1330.55 655.181 1323.46 Q651.57 1316.33 644.302 1316.33 M644.302 1308.93 Q655.922 1308.93 662.033 1318.14 Q668.19 1327.31 668.19 1344.81 Q668.19 1362.26 662.033 1371.47 Q655.922 1380.64 644.302 1380.64 Q632.681 1380.64 626.524 1371.47 Q620.413 1362.26 620.413 1344.81 Q620.413 1327.31 626.524 1318.14 Q632.681 1308.93 644.302 1308.93 Z" fill="#000000" fill-rule="nonzero" fill-opacity="1" /><path clip-path="url(#clip130)" d="M684.626 1367.54 L694.394 1367.54 L694.394 1379.3 L684.626 1379.3 L684.626 1367.54 Z" fill="#000000" fill-rule="nonzero" fill-opacity="1" /><path clip-path="url(#clip130)" d="M734.764 1316.33 Q727.542 1316.33 723.885 1323.46 Q720.274 1330.55 720.274 1344.81 Q720.274 1359.02 723.885 1366.15 Q727.542 1373.23 734.764 1373.23 Q742.033 1373.23 745.644 1366.15 Q749.301 1359.02 749.301 1344.81 Q749.301 1330.55 745.644 1323.46 Q742.033 1316.33 734.764 1316.33 M734.764 1308.93 Q746.384 1308.93 752.496 1318.14 Q758.653 1327.31 758.653 1344.81 Q758.653 1362.26 752.496 1371.47 Q746.384 1380.64 734.764 1380.64 Q723.144 1380.64 716.986 1371.47 Q710.875 1362.26 710.875 1344.81 Q710.875 1327.31 716.986 1318.14 Q723.144 1308.93 734.764 1308.93 Z" fill="#000000" fill-rule="nonzero" fill-opacity="1" /><path clip-path="url(#clip130)" d="M795.088 1316.33 Q787.866 1316.33 784.208 1323.46 Q780.597 1330.55 780.597 1344.81 Q780.597 1359.02 784.208 1366.15 Q787.866 1373.23 795.088 1373.23 Q802.356 1373.23 805.967 1366.15 Q809.625 1359.02 809.625 1344.81 Q809.625 1330.55 805.967 1323.46 Q802.356 1316.33 795.088 1316.33 M795.088 1308.93 Q806.708 1308.93 812.819 1318.14 Q818.977 1327.31 818.977 1344.81 Q818.977 1362.26 812.819 1371.47 Q806.708 1380.64 795.088 1380.64 Q783.468 1380.64 777.31 1371.47 Q771.199 1362.26 771.199 1344.81 Q771.199 1327.31 777.31 1318.14 Q783.468 1308.93 795.088 1308.93 Z" fill="#000000" fill-rule="nonzero" fill-opacity="1" /><path clip-path="url(#clip130)" d="M966.053 1316.33 Q958.831 1316.33 955.173 1323.46 Q951.562 1330.55 951.562 1344.81 Q951.562 1359.02 955.173 1366.15 Q958.831 1373.23 966.053 1373.23 Q973.321 1373.23 976.932 1366.15 Q980.59 1359.02 980.59 1344.81 Q980.59 1330.55 976.932 1323.46 Q973.321 1316.33 966.053 1316.33 M966.053 1308.93 Q977.673 1308.93 983.784 1318.14 Q989.942 1327.31 989.942 1344.81 Q989.942 1362.26 983.784 1371.47 Q977.673 1380.64 966.053 1380.64 Q954.433 1380.64 948.275 1371.47 Q942.164 1362.26 942.164 1344.81 Q942.164 1327.31 948.275 1318.14 Q954.433 1308.93 966.053 1308.93 Z" fill="#000000" fill-rule="nonzero" fill-opacity="1" /><path clip-path="url(#clip130)" d="M1006.38 1367.54 L1016.15 1367.54 L1016.15 1379.3 L1006.38 1379.3 L1006.38 1367.54 Z" fill="#000000" fill-rule="nonzero" fill-opacity="1" /><path clip-path="url(#clip130)" d="M1044.57 1371.43 L1077.21 1371.43 L1077.21 1379.3 L1033.32 1379.3 L1033.32 1371.43 Q1038.65 1365.92 1047.81 1356.66 Q1057.02 1347.35 1059.39 1344.67 Q1063.88 1339.62 1065.64 1336.15 Q1067.44 1332.63 1067.44 1329.25 Q1067.44 1323.74 1063.55 1320.27 Q1059.71 1316.8 1053.51 1316.8 Q1049.11 1316.8 1044.2 1318.32 Q1039.34 1319.85 1033.78 1322.95 L1033.78 1313.51 Q1039.43 1311.24 1044.34 1310.08 Q1049.25 1308.93 1053.32 1308.93 Q1064.06 1308.93 1070.45 1314.3 Q1076.84 1319.67 1076.84 1328.65 Q1076.84 1332.91 1075.22 1336.75 Q1073.64 1340.55 1069.43 1345.73 Q1068.27 1347.07 1062.07 1353.51 Q1055.87 1359.9 1044.57 1371.43 Z" fill="#000000" fill-rule="nonzero" fill-opacity="1" /><path clip-path="url(#clip130)" d="M1096.93 1310.18 L1133.64 1310.18 L1133.64 1318.05 L1105.5 1318.05 L1105.5 1334.99 Q1107.53 1334.3 1109.57 1333.97 Q1111.61 1333.6 1113.64 1333.6 Q1125.22 1333.6 1131.98 1339.94 Q1138.74 1346.29 1138.74 1357.12 Q1138.74 1368.28 1131.79 1374.48 Q1124.85 1380.64 1112.21 1380.64 Q1107.86 1380.64 1103.32 1379.9 Q1098.83 1379.16 1094.02 1377.68 L1094.02 1368.28 Q1098.18 1370.55 1102.63 1371.66 Q1107.07 1372.77 1112.02 1372.77 Q1120.03 1372.77 1124.71 1368.56 Q1129.39 1364.34 1129.39 1357.12 Q1129.39 1349.9 1124.71 1345.68 Q1120.03 1341.47 1112.02 1341.47 Q1108.27 1341.47 1104.52 1342.31 Q1100.82 1343.14 1096.93 1344.9 L1096.93 1310.18 Z" fill="#000000" fill-rule="nonzero" fill-opacity="1" /><path clip-path="url(#clip130)" d="M1285.81 1316.33 Q1278.59 1316.33 1274.93 1323.46 Q1271.32 1330.55 1271.32 1344.81 Q1271.32 1359.02 1274.93 1366.15 Q1278.59 1373.23 1285.81 1373.23 Q1293.08 1373.23 1296.69 1366.15 Q1300.35 1359.02 1300.35 1344.81 Q1300.35 1330.55 1296.69 1323.46 Q1293.08 1316.33 1285.81 1316.33 M1285.81 1308.93 Q1297.43 1308.93 1303.54 1318.14 Q1309.7 1327.31 1309.7 1344.81 Q1309.7 1362.26 1303.54 1371.47 Q1297.43 1380.64 1285.81 1380.64 Q1274.19 1380.64 1268.04 1371.47 Q1261.92 1362.26 1261.92 1344.81 Q1261.92 1327.31 1268.04 1318.14 Q1274.19 1308.93 1285.81 1308.93 Z" fill="#000000" fill-rule="nonzero" fill-opacity="1" /><path clip-path="url(#clip130)" d="M1326.14 1367.54 L1335.91 1367.54 L1335.91 1379.3 L1326.14 1379.3 L1326.14 1367.54 Z" fill="#000000" fill-rule="nonzero" fill-opacity="1" /><path clip-path="url(#clip130)" d="M1356.37 1310.18 L1393.08 1310.18 L1393.08 1318.05 L1364.93 1318.05 L1364.93 1334.99 Q1366.97 1334.3 1369.01 1333.97 Q1371.04 1333.6 1373.08 1333.6 Q1384.66 1333.6 1391.41 1339.94 Q1398.17 1346.29 1398.17 1357.12 Q1398.17 1368.28 1391.23 1374.48 Q1384.29 1380.64 1371.65 1380.64 Q1367.29 1380.64 1362.76 1379.9 Q1358.27 1379.16 1353.45 1377.68 L1353.45 1368.28 Q1357.62 1370.55 1362.06 1371.66 Q1366.51 1372.77 1371.46 1372.77 Q1379.47 1372.77 1384.15 1368.56 Q1388.82 1364.34 1388.82 1357.12 Q1388.82 1349.9 1384.15 1345.68 Q1379.47 1341.47 1371.46 1341.47 Q1367.71 1341.47 1363.96 1342.31 Q1360.26 1343.14 1356.37 1344.9 L1356.37 1310.18 Z" fill="#000000" fill-rule="nonzero" fill-opacity="1" /><path clip-path="url(#clip130)" d="M1436.6 1316.33 Q1429.38 1316.33 1425.72 1323.46 Q1422.11 1330.55 1422.11 1344.81 Q1422.11 1359.02 1425.72 1366.15 Q1429.38 1373.23 1436.6 1373.23 Q1443.87 1373.23 1447.48 1366.15 Q1451.14 1359.02 1451.14 1344.81 Q1451.14 1330.55 1447.48 1323.46 Q1443.87 1316.33 1436.6 1316.33 M1436.6 1308.93 Q1448.22 1308.93 1454.33 1318.14 Q1460.49 1327.31 1460.49 1344.81 Q1460.49 1362.26 1454.33 1371.47 Q1448.22 1380.64 1436.6 1380.64 Q1424.98 1380.64 1418.82 1371.47 Q1412.71 1362.26 1412.71 1344.81 Q1412.71 1327.31 1418.82 1318.14 Q1424.98 1308.93 1436.6 1308.93 Z" fill="#000000" fill-rule="nonzero" fill-opacity="1" /><path clip-path="url(#clip130)" d="M1607.56 1316.33 Q1600.34 1316.33 1596.69 1323.46 Q1593.07 1330.55 1593.07 1344.81 Q1593.07 1359.02 1596.69 1366.15 Q1600.34 1373.23 1607.56 1373.23 Q1614.83 1373.23 1618.44 1366.15 Q1622.1 1359.02 1622.1 1344.81 Q1622.1 1330.55 1618.44 1323.46 Q1614.83 1316.33 1607.56 1316.33 M1607.56 1308.93 Q1619.18 1308.93 1625.3 1318.14 Q1631.45 1327.31 1631.45 1344.81 Q1631.45 1362.26 1625.3 1371.47 Q1619.18 1380.64 1607.56 1380.64 Q1595.94 1380.64 1589.79 1371.47 Q1583.68 1362.26 1583.68 1344.81 Q1583.68 1327.31 1589.79 1318.14 Q1595.94 1308.93 1607.56 1308.93 Z" fill="#000000" fill-rule="nonzero" fill-opacity="1" /><path clip-path="url(#clip130)" d="M1647.89 1367.54 L1657.66 1367.54 L1657.66 1379.3 L1647.89 1379.3 L1647.89 1367.54 Z" fill="#000000" fill-rule="nonzero" fill-opacity="1" /><path clip-path="url(#clip130)" d="M1675.67 1310.18 L1720.11 1310.18 L1720.11 1314.16 L1695.02 1379.3 L1685.25 1379.3 L1708.86 1318.05 L1675.67 1318.05 L1675.67 1310.18 Z" fill="#000000" fill-rule="nonzero" fill-opacity="1" /><path clip-path="url(#clip130)" d="M1738.44 1310.18 L1775.16 1310.18 L1775.16 1318.05 L1747.01 1318.05 L1747.01 1334.99 Q1749.05 1334.3 1751.08 1333.97 Q1753.12 1333.6 1755.16 1333.6 Q1766.73 1333.6 1773.49 1339.94 Q1780.25 1346.29 1780.25 1357.12 Q1780.25 1368.28 1773.3 1374.48 Q1766.36 1380.64 1753.72 1380.64 Q1749.37 1380.64 1744.83 1379.9 Q1740.34 1379.16 1735.53 1377.68 L1735.53 1368.28 Q1739.69 1370.55 1744.14 1371.66 Q1748.58 1372.77 1753.54 1372.77 Q1761.55 1372.77 1766.22 1368.56 Q1770.9 1364.34 1770.9 1357.12 Q1770.9 1349.9 1766.22 1345.68 Q1761.55 1341.47 1753.54 1341.47 Q1749.79 1341.47 1746.04 1342.31 Q1742.33 1343.14 1738.44 1344.9 L1738.44 1310.18 Z" fill="#000000" fill-rule="nonzero" fill-opacity="1" /><path clip-path="url(#clip130)" d="M1906.86 1371.43 L1922.14 1371.43 L1922.14 1318.69 L1905.52 1322.03 L1905.52 1313.51 L1922.05 1310.18 L1931.4 1310.18 L1931.4 1371.43 L1946.68 1371.43 L1946.68 1379.3 L1906.86 1379.3 L1906.86 1371.43 Z" fill="#000000" fill-rule="nonzero" fill-opacity="1" /><path clip-path="url(#clip130)" d="M1965.57 1367.54 L1975.33 1367.54 L1975.33 1379.3 L1965.57 1379.3 L1965.57 1367.54 Z" fill="#000000" fill-rule="nonzero" fill-opacity="1" /><path clip-path="url(#clip130)" d="M2015.7 1316.33 Q2008.48 1316.33 2004.82 1323.46 Q2001.21 1330.55 2001.21 1344.81 Q2001.21 1359.02 2004.82 1366.15 Q2008.48 1373.23 2015.7 1373.23 Q2022.97 1373.23 2026.58 1366.15 Q2030.24 1359.02 2030.24 1344.81 Q2030.24 1330.55 2026.58 1323.46 Q2022.97 1316.33 2015.7 1316.33 M2015.7 1308.93 Q2027.32 1308.93 2033.44 1318.14 Q2039.59 1327.31 2039.59 1344.81 Q2039.59 1362.26 2033.44 1371.47 Q2027.32 1380.64 2015.7 1380.64 Q2004.08 1380.64 1997.93 1371.47 Q1991.82 1362.26 1991.82 1344.81 Q1991.82 1327.31 1997.93 1318.14 Q2004.08 1308.93 2015.7 1308.93 Z" fill="#000000" fill-rule="nonzero" fill-opacity="1" /><path clip-path="url(#clip130)" d="M2076.03 1316.33 Q2068.81 1316.33 2065.15 1323.46 Q2061.54 1330.55 2061.54 1344.81 Q2061.54 1359.02 2065.15 1366.15 Q2068.81 1373.23 2076.03 1373.23 Q2083.3 1373.23 2086.91 1366.15 Q2090.57 1359.02 2090.57 1344.81 Q2090.57 1330.55 2086.91 1323.46 Q2083.3 1316.33 2076.03 1316.33 M2076.03 1308.93 Q2087.65 1308.93 2093.76 1318.14 Q2099.92 1327.31 2099.92 1344.81 Q2099.92 1362.26 2093.76 1371.47 Q2087.65 1380.64 2076.03 1380.64 Q2064.41 1380.64 2058.25 1371.47 Q2052.14 1362.26 2052.14 1344.81 Q2052.14 1327.31 2058.25 1318.14 Q2064.41 1308.93 2076.03 1308.93 Z" fill="#000000" fill-rule="nonzero" fill-opacity="1" /><path clip-path="url(#clip130)" d="M1375.05 1484.39 L1375.05 1527.42 L1363.34 1527.42 L1363.34 1484.77 Q1363.34 1474.65 1359.39 1469.62 Q1355.45 1464.59 1347.55 1464.59 Q1338.07 1464.59 1332.59 1470.64 Q1327.12 1476.69 1327.12 1487.13 L1327.12 1527.42 L1315.34 1527.42 L1315.34 1428.37 L1327.12 1428.37 L1327.12 1467.2 Q1331.32 1460.77 1336.99 1457.59 Q1342.72 1454.41 1350.16 1454.41 Q1362.45 1454.41 1368.75 1462.05 Q1375.05 1469.62 1375.05 1484.39 Z" fill="#000000" fill-rule="nonzero" fill-opacity="1" /><path clip-path="url(#clip130)" d="M1426.04 1464.34 Q1416.62 1464.34 1411.15 1471.72 Q1405.67 1479.04 1405.67 1491.84 Q1405.67 1504.63 1411.08 1512.02 Q1416.56 1519.34 1426.04 1519.34 Q1435.4 1519.34 1440.87 1511.96 Q1446.35 1504.57 1446.35 1491.84 Q1446.35 1479.17 1440.87 1471.79 Q1435.4 1464.34 1426.04 1464.34 M1426.04 1454.41 Q1441.32 1454.41 1450.04 1464.34 Q1458.76 1474.27 1458.76 1491.84 Q1458.76 1509.35 1450.04 1519.34 Q1441.32 1529.27 1426.04 1529.27 Q1410.7 1529.27 1401.98 1519.34 Q1393.32 1509.35 1393.32 1491.84 Q1393.32 1474.27 1401.98 1464.34 Q1410.7 1454.41 1426.04 1454.41 Z" fill="#000000" fill-rule="nonzero" fill-opacity="1" /><path clip-path="url(#clip130)" d="M1476.97 1499.29 L1476.97 1456.13 L1488.68 1456.13 L1488.68 1498.84 Q1488.68 1508.96 1492.63 1514.06 Q1496.57 1519.08 1504.47 1519.08 Q1513.95 1519.08 1519.43 1513.04 Q1524.97 1506.99 1524.97 1496.55 L1524.97 1456.13 L1536.68 1456.13 L1536.68 1527.42 L1524.97 1527.42 L1524.97 1516.47 Q1520.7 1522.97 1515.04 1526.15 Q1509.43 1529.27 1501.99 1529.27 Q1489.7 1529.27 1483.33 1521.63 Q1476.97 1513.99 1476.97 1499.29 M1506.44 1454.41 L1506.44 1454.41 Z" fill="#000000" fill-rule="nonzero" fill-opacity="1" /><path clip-path="url(#clip130)" d="M1602.12 1467.08 Q1600.14 1465.93 1597.79 1465.42 Q1595.5 1464.85 1592.7 1464.85 Q1582.77 1464.85 1577.42 1471.34 Q1572.14 1477.77 1572.14 1489.87 L1572.14 1527.42 L1560.36 1527.42 L1560.36 1456.13 L1572.14 1456.13 L1572.14 1467.2 Q1575.83 1460.71 1581.75 1457.59 Q1587.67 1454.41 1596.13 1454.41 Q1597.34 1454.41 1598.81 1454.6 Q1600.27 1454.73 1602.05 1455.05 L1602.12 1467.08 Z" fill="#000000" fill-rule="nonzero" fill-opacity="1" /><path clip-path="url(#clip130)" d="M1659.86 1458.23 L1659.86 1469.3 Q1654.89 1466.76 1649.54 1465.49 Q1644.2 1464.21 1638.47 1464.21 Q1629.75 1464.21 1625.35 1466.89 Q1621.02 1469.56 1621.02 1474.91 Q1621.02 1478.98 1624.14 1481.34 Q1627.26 1483.63 1636.68 1485.73 L1640.69 1486.62 Q1653.17 1489.29 1658.39 1494.19 Q1663.67 1499.03 1663.67 1507.75 Q1663.67 1517.68 1655.78 1523.48 Q1647.95 1529.27 1634.2 1529.27 Q1628.47 1529.27 1622.23 1528.12 Q1616.06 1527.04 1609.18 1524.81 L1609.18 1512.72 Q1615.68 1516.09 1621.98 1517.81 Q1628.28 1519.47 1634.46 1519.47 Q1642.73 1519.47 1647.19 1516.67 Q1651.64 1513.8 1651.64 1508.64 Q1651.64 1503.87 1648.4 1501.32 Q1645.21 1498.78 1634.33 1496.42 L1630.25 1495.47 Q1619.37 1493.18 1614.53 1488.47 Q1609.69 1483.69 1609.69 1475.42 Q1609.69 1465.36 1616.82 1459.88 Q1623.95 1454.41 1637.07 1454.41 Q1643.56 1454.41 1649.29 1455.36 Q1655.02 1456.32 1659.86 1458.23 Z" fill="#000000" fill-rule="nonzero" fill-opacity="1" /><polyline clip-path="url(#clip132)" style="stroke:#000000; stroke-linecap:round; stroke-linejoin:round; stroke-width:4; stroke-opacity:0.1; fill:none" points="673.506,1143.26 2305.51,1143.26 "/>
<polyline clip-path="url(#clip132)" style="stroke:#000000; stroke-linecap:round; stroke-linejoin:round; stroke-width:4; stroke-opacity:0.1; fill:none" points="673.506,857.109 2305.51,857.109 "/>
<polyline clip-path="url(#clip132)" style="stroke:#000000; stroke-linecap:round; stroke-linejoin:round; stroke-width:4; stroke-opacity:0.1; fill:none" points="673.506,570.956 2305.51,570.956 "/>
<polyline clip-path="url(#clip132)" style="stroke:#000000; stroke-linecap:round; stroke-linejoin:round; stroke-width:4; stroke-opacity:0.1; fill:none" points="673.506,284.804 2305.51,284.804 "/>
<polyline clip-path="url(#clip130)" style="stroke:#000000; stroke-linecap:round; stroke-linejoin:round; stroke-width:8; stroke-opacity:1; fill:none" points="673.506,1273.7 673.506,94.4882 "/>
<polyline clip-path="url(#clip130)" style="stroke:#000000; stroke-linecap:round; stroke-linejoin:round; stroke-width:8; stroke-opacity:1; fill:none" points="673.506,1143.26 692.404,1143.26 "/>
<polyline clip-path="url(#clip130)" style="stroke:#000000; stroke-linecap:round; stroke-linejoin:round; stroke-width:8; stroke-opacity:1; fill:none" points="673.506,857.109 692.404,857.109 "/>
<polyline clip-path="url(#clip130)" style="stroke:#000000; stroke-linecap:round; stroke-linejoin:round; stroke-width:8; stroke-opacity:1; fill:none" points="673.506,570.956 692.404,570.956 "/>
<polyline clip-path="url(#clip130)" style="stroke:#000000; stroke-linecap:round; stroke-linejoin:round; stroke-width:8; stroke-opacity:1; fill:none" points="673.506,284.804 692.404,284.804 "/>
<path clip-path="url(#clip130)" d="M443.109 1176.39 L443.109 1167.87 Q446.627 1169.54 450.238 1170.41 Q453.85 1171.29 457.322 1171.29 Q466.581 1171.29 471.442 1165.09 Q476.349 1158.84 477.044 1146.16 Q474.359 1150.14 470.238 1152.27 Q466.118 1154.4 461.118 1154.4 Q450.748 1154.4 444.683 1148.15 Q438.664 1141.85 438.664 1130.97 Q438.664 1120.32 444.961 1113.89 Q451.257 1107.45 461.72 1107.45 Q473.711 1107.45 480.007 1116.67 Q486.349 1125.83 486.349 1143.33 Q486.349 1159.67 478.572 1169.44 Q470.84 1179.16 457.738 1179.16 Q454.22 1179.16 450.609 1178.47 Q446.998 1177.78 443.109 1176.39 M461.72 1147.08 Q468.016 1147.08 471.674 1142.78 Q475.377 1138.47 475.377 1130.97 Q475.377 1123.52 471.674 1119.21 Q468.016 1114.86 461.72 1114.86 Q455.424 1114.86 451.72 1119.21 Q448.063 1123.52 448.063 1130.97 Q448.063 1138.47 451.72 1142.78 Q455.424 1147.08 461.72 1147.08 Z" fill="#000000" fill-rule="nonzero" fill-opacity="1" /><path clip-path="url(#clip130)" d="M523.155 1114.86 Q515.933 1114.86 512.275 1121.99 Q508.664 1129.07 508.664 1143.33 Q508.664 1157.54 512.275 1164.67 Q515.933 1171.76 523.155 1171.76 Q530.423 1171.76 534.034 1164.67 Q537.692 1157.54 537.692 1143.33 Q537.692 1129.07 534.034 1121.99 Q530.423 1114.86 523.155 1114.86 M523.155 1107.45 Q534.775 1107.45 540.886 1116.67 Q547.043 1125.83 547.043 1143.33 Q547.043 1160.79 540.886 1170 Q534.775 1179.16 523.155 1179.16 Q511.534 1179.16 505.377 1170 Q499.266 1160.79 499.266 1143.33 Q499.266 1125.83 505.377 1116.67 Q511.534 1107.45 523.155 1107.45 Z" fill="#000000" fill-rule="nonzero" fill-opacity="1" /><path clip-path="url(#clip130)" d="M563.479 1166.06 L573.247 1166.06 L573.247 1177.82 L563.479 1177.82 L563.479 1166.06 Z" fill="#000000" fill-rule="nonzero" fill-opacity="1" /><path clip-path="url(#clip130)" d="M613.617 1114.86 Q606.395 1114.86 602.738 1121.99 Q599.127 1129.07 599.127 1143.33 Q599.127 1157.54 602.738 1164.67 Q606.395 1171.76 613.617 1171.76 Q620.886 1171.76 624.497 1164.67 Q628.154 1157.54 628.154 1143.33 Q628.154 1129.07 624.497 1121.99 Q620.886 1114.86 613.617 1114.86 M613.617 1107.45 Q625.238 1107.45 631.349 1116.67 Q637.506 1125.83 637.506 1143.33 Q637.506 1160.79 631.349 1170 Q625.238 1179.16 613.617 1179.16 Q601.997 1179.16 595.84 1170 Q589.728 1160.79 589.728 1143.33 Q589.728 1125.83 595.84 1116.67 Q601.997 1107.45 613.617 1107.45 Z" fill="#000000" fill-rule="nonzero" fill-opacity="1" /><path clip-path="url(#clip130)" d="M384.128 883.799 L399.405 883.799 L399.405 831.068 L382.785 834.401 L382.785 825.883 L399.313 822.549 L408.665 822.549 L408.665 883.799 L423.942 883.799 L423.942 891.669 L384.128 891.669 L384.128 883.799 Z" fill="#000000" fill-rule="nonzero" fill-opacity="1" /><path clip-path="url(#clip130)" d="M462.831 828.707 Q455.609 828.707 451.951 835.836 Q448.34 842.92 448.34 857.179 Q448.34 871.392 451.951 878.521 Q455.609 885.605 462.831 885.605 Q470.099 885.605 473.711 878.521 Q477.368 871.392 477.368 857.179 Q477.368 842.92 473.711 835.836 Q470.099 828.707 462.831 828.707 M462.831 821.299 Q474.451 821.299 480.562 830.512 Q486.72 839.679 486.72 857.179 Q486.72 874.632 480.562 883.845 Q474.451 893.012 462.831 893.012 Q451.211 893.012 445.053 883.845 Q438.942 874.632 438.942 857.179 Q438.942 839.679 445.053 830.512 Q451.211 821.299 462.831 821.299 Z" fill="#000000" fill-rule="nonzero" fill-opacity="1" /><path clip-path="url(#clip130)" d="M523.155 828.707 Q515.933 828.707 512.275 835.836 Q508.664 842.92 508.664 857.179 Q508.664 871.392 512.275 878.521 Q515.933 885.605 523.155 885.605 Q530.423 885.605 534.034 878.521 Q537.692 871.392 537.692 857.179 Q537.692 842.92 534.034 835.836 Q530.423 828.707 523.155 828.707 M523.155 821.299 Q534.775 821.299 540.886 830.512 Q547.043 839.679 547.043 857.179 Q547.043 874.632 540.886 883.845 Q534.775 893.012 523.155 893.012 Q511.534 893.012 505.377 883.845 Q499.266 874.632 499.266 857.179 Q499.266 839.679 505.377 830.512 Q511.534 821.299 523.155 821.299 Z" fill="#000000" fill-rule="nonzero" fill-opacity="1" /><path clip-path="url(#clip130)" d="M563.479 879.91 L573.247 879.91 L573.247 891.669 L563.479 891.669 L563.479 879.91 Z" fill="#000000" fill-rule="nonzero" fill-opacity="1" /><path clip-path="url(#clip130)" d="M613.617 828.707 Q606.395 828.707 602.738 835.836 Q599.127 842.92 599.127 857.179 Q599.127 871.392 602.738 878.521 Q606.395 885.605 613.617 885.605 Q620.886 885.605 624.497 878.521 Q628.154 871.392 628.154 857.179 Q628.154 842.92 624.497 835.836 Q620.886 828.707 613.617 828.707 M613.617 821.299 Q625.238 821.299 631.349 830.512 Q637.506 839.679 637.506 857.179 Q637.506 874.632 631.349 883.845 Q625.238 893.012 613.617 893.012 Q601.997 893.012 595.84 883.845 Q589.728 874.632 589.728 857.179 Q589.728 839.679 595.84 830.512 Q601.997 821.299 613.617 821.299 Z" fill="#000000" fill-rule="nonzero" fill-opacity="1" /><path clip-path="url(#clip130)" d="M384.128 597.646 L399.405 597.646 L399.405 544.915 L382.785 548.248 L382.785 539.73 L399.313 536.396 L408.665 536.396 L408.665 597.646 L423.942 597.646 L423.942 605.516 L384.128 605.516 L384.128 597.646 Z" fill="#000000" fill-rule="nonzero" fill-opacity="1" /><path clip-path="url(#clip130)" d="M444.451 597.646 L459.729 597.646 L459.729 544.915 L443.109 548.248 L443.109 539.73 L459.637 536.396 L468.988 536.396 L468.988 597.646 L484.266 597.646 L484.266 605.516 L444.451 605.516 L444.451 597.646 Z" fill="#000000" fill-rule="nonzero" fill-opacity="1" /><path clip-path="url(#clip130)" d="M523.155 542.554 Q515.933 542.554 512.275 549.683 Q508.664 556.767 508.664 571.026 Q508.664 585.239 512.275 592.368 Q515.933 599.452 523.155 599.452 Q530.423 599.452 534.034 592.368 Q537.692 585.239 537.692 571.026 Q537.692 556.767 534.034 549.683 Q530.423 542.554 523.155 542.554 M523.155 535.146 Q534.775 535.146 540.886 544.359 Q547.043 553.526 547.043 571.026 Q547.043 588.48 540.886 597.692 Q534.775 606.859 523.155 606.859 Q511.534 606.859 505.377 597.692 Q499.266 588.48 499.266 571.026 Q499.266 553.526 505.377 544.359 Q511.534 535.146 523.155 535.146 Z" fill="#000000" fill-rule="nonzero" fill-opacity="1" /><path clip-path="url(#clip130)" d="M563.479 593.757 L573.247 593.757 L573.247 605.516 L563.479 605.516 L563.479 593.757 Z" fill="#000000" fill-rule="nonzero" fill-opacity="1" /><path clip-path="url(#clip130)" d="M613.617 542.554 Q606.395 542.554 602.738 549.683 Q599.127 556.767 599.127 571.026 Q599.127 585.239 602.738 592.368 Q606.395 599.452 613.617 599.452 Q620.886 599.452 624.497 592.368 Q628.154 585.239 628.154 571.026 Q628.154 556.767 624.497 549.683 Q620.886 542.554 613.617 542.554 M613.617 535.146 Q625.238 535.146 631.349 544.359 Q637.506 553.526 637.506 571.026 Q637.506 588.48 631.349 597.692 Q625.238 606.859 613.617 606.859 Q601.997 606.859 595.84 597.692 Q589.728 588.48 589.728 571.026 Q589.728 553.526 595.84 544.359 Q601.997 535.146 613.617 535.146 Z" fill="#000000" fill-rule="nonzero" fill-opacity="1" /><path clip-path="url(#clip130)" d="M384.128 311.493 L399.405 311.493 L399.405 258.762 L382.785 262.095 L382.785 253.577 L399.313 250.244 L408.665 250.244 L408.665 311.493 L423.942 311.493 L423.942 319.364 L384.128 319.364 L384.128 311.493 Z" fill="#000000" fill-rule="nonzero" fill-opacity="1" /><path clip-path="url(#clip130)" d="M450.887 311.493 L483.525 311.493 L483.525 319.364 L439.637 319.364 L439.637 311.493 Q444.961 305.984 454.127 296.725 Q463.34 287.419 465.701 284.734 Q470.192 279.688 471.951 276.216 Q473.757 272.697 473.757 269.318 Q473.757 263.808 469.868 260.336 Q466.025 256.864 459.822 256.864 Q455.424 256.864 450.516 258.392 Q445.655 259.919 440.1 263.021 L440.1 253.577 Q445.748 251.308 450.655 250.151 Q455.562 248.994 459.637 248.994 Q470.377 248.994 476.766 254.364 Q483.155 259.734 483.155 268.716 Q483.155 272.975 481.535 276.818 Q479.961 280.614 475.748 285.799 Q474.59 287.142 468.387 293.577 Q462.183 299.966 450.887 311.493 Z" fill="#000000" fill-rule="nonzero" fill-opacity="1" /><path clip-path="url(#clip130)" d="M523.155 256.401 Q515.933 256.401 512.275 263.531 Q508.664 270.614 508.664 284.873 Q508.664 299.086 512.275 306.216 Q515.933 313.299 523.155 313.299 Q530.423 313.299 534.034 306.216 Q537.692 299.086 537.692 284.873 Q537.692 270.614 534.034 263.531 Q530.423 256.401 523.155 256.401 M523.155 248.994 Q534.775 248.994 540.886 258.207 Q547.043 267.373 547.043 284.873 Q547.043 302.327 540.886 311.54 Q534.775 320.706 523.155 320.706 Q511.534 320.706 505.377 311.54 Q499.266 302.327 499.266 284.873 Q499.266 267.373 505.377 258.207 Q511.534 248.994 523.155 248.994 Z" fill="#000000" fill-rule="nonzero" fill-opacity="1" /><path clip-path="url(#clip130)" d="M563.479 307.604 L573.247 307.604 L573.247 319.364 L563.479 319.364 L563.479 307.604 Z" fill="#000000" fill-rule="nonzero" fill-opacity="1" /><path clip-path="url(#clip130)" d="M613.617 256.401 Q606.395 256.401 602.738 263.531 Q599.127 270.614 599.127 284.873 Q599.127 299.086 602.738 306.216 Q606.395 313.299 613.617 313.299 Q620.886 313.299 624.497 306.216 Q628.154 299.086 628.154 284.873 Q628.154 270.614 624.497 263.531 Q620.886 256.401 613.617 256.401 M613.617 248.994 Q625.238 248.994 631.349 258.207 Q637.506 267.373 637.506 284.873 Q637.506 302.327 631.349 311.54 Q625.238 320.706 613.617 320.706 Q601.997 320.706 595.84 311.54 Q589.728 302.327 589.728 284.873 Q589.728 267.373 595.84 258.207 Q601.997 248.994 613.617 248.994 Z" fill="#000000" fill-rule="nonzero" fill-opacity="1" /><path clip-path="url(#clip130)" d="M307.579 933.755 L345.391 933.755 L345.391 945.532 L246.977 945.532 L246.977 933.755 L257.799 933.755 Q251.433 930.063 248.378 924.461 Q245.258 918.796 245.258 910.966 Q245.258 897.98 255.571 889.895 Q265.883 881.747 282.689 881.747 Q299.494 881.747 309.807 889.895 Q320.119 897.98 320.119 910.966 Q320.119 918.796 317.064 924.461 Q313.944 930.063 307.579 933.755 M282.689 893.906 Q269.766 893.906 262.446 899.253 Q255.062 904.536 255.062 913.83 Q255.062 923.124 262.446 928.471 Q269.766 933.755 282.689 933.755 Q295.611 933.755 302.995 928.471 Q310.316 923.124 310.316 913.83 Q310.316 904.536 302.995 899.253 Q295.611 893.906 282.689 893.906 Z" fill="#000000" fill-rule="nonzero" fill-opacity="1" /><path clip-path="url(#clip130)" d="M282.434 829.93 Q282.434 844.126 285.681 849.6 Q288.927 855.075 296.757 855.075 Q302.995 855.075 306.688 851.001 Q310.316 846.863 310.316 839.797 Q310.316 830.058 303.441 824.201 Q296.502 818.281 285.044 818.281 L282.434 818.281 L282.434 829.93 M277.596 806.568 L318.273 806.568 L318.273 818.281 L307.451 818.281 Q313.944 822.291 317.064 828.275 Q320.119 834.259 320.119 842.916 Q320.119 853.865 314.008 860.358 Q307.833 866.788 297.521 866.788 Q285.49 866.788 279.379 858.767 Q273.268 850.683 273.268 834.705 L273.268 818.281 L272.122 818.281 Q264.037 818.281 259.645 823.628 Q255.189 828.912 255.189 838.524 Q255.189 844.635 256.653 850.428 Q258.117 856.221 261.045 861.568 L250.224 861.568 Q247.741 855.139 246.532 849.091 Q245.258 843.044 245.258 837.315 Q245.258 821.846 253.279 814.207 Q261.3 806.568 277.596 806.568 Z" fill="#000000" fill-rule="nonzero" fill-opacity="1" /><path clip-path="url(#clip130)" d="M257.926 741.129 Q256.78 743.102 256.271 745.457 Q255.698 747.749 255.698 750.55 Q255.698 760.48 262.191 765.828 Q268.621 771.111 280.715 771.111 L318.273 771.111 L318.273 782.888 L246.977 782.888 L246.977 771.111 L258.054 771.111 Q251.561 767.419 248.441 761.499 Q245.258 755.579 245.258 747.112 Q245.258 745.903 245.449 744.439 Q245.577 742.975 245.895 741.192 L257.926 741.129 Z" fill="#000000" fill-rule="nonzero" fill-opacity="1" /><path clip-path="url(#clip130)" d="M279.697 670.724 L285.426 670.724 L285.426 724.578 Q297.521 723.814 303.887 717.321 Q310.189 710.764 310.189 699.115 Q310.189 692.367 308.534 686.065 Q306.878 679.7 303.568 673.461 L314.645 673.461 Q317.318 679.763 318.719 686.384 Q320.119 693.004 320.119 699.815 Q320.119 716.875 310.189 726.87 Q300.258 736.8 283.325 736.8 Q265.82 736.8 255.571 727.379 Q245.258 717.894 245.258 701.852 Q245.258 687.466 254.552 679.127 Q263.783 670.724 279.697 670.724 M276.259 682.437 Q266.647 682.564 260.918 687.848 Q255.189 693.068 255.189 701.725 Q255.189 711.528 260.727 717.448 Q266.265 723.305 276.323 724.196 L276.259 682.437 Z" fill="#000000" fill-rule="nonzero" fill-opacity="1" /><path clip-path="url(#clip130)" d="M275.241 592.235 L318.273 592.235 L318.273 603.948 L275.623 603.948 Q265.501 603.948 260.472 607.894 Q255.444 611.841 255.444 619.735 Q255.444 629.22 261.491 634.694 Q267.538 640.169 277.978 640.169 L318.273 640.169 L318.273 651.945 L246.977 651.945 L246.977 640.169 L258.054 640.169 Q251.624 635.967 248.441 630.302 Q245.258 624.573 245.258 617.125 Q245.258 604.839 252.897 598.537 Q260.472 592.235 275.241 592.235 Z" fill="#000000" fill-rule="nonzero" fill-opacity="1" /><path clip-path="url(#clip130)" d="M302.104 567.218 L302.104 553.786 L318.273 553.786 L318.273 567.218 L302.104 567.218 Z" fill="#000000" fill-rule="nonzero" fill-opacity="1" /><path clip-path="url(#clip130)" d="M234.437 449.006 L285.171 481.472 L285.171 449.006 L234.437 449.006 M223.233 452.38 L223.233 436.211 L285.171 436.211 L285.171 422.652 L295.866 422.652 L295.866 436.211 L318.273 436.211 L318.273 449.006 L295.866 449.006 L295.866 491.911 L283.453 491.911 L223.233 452.38 Z" fill="#000000" fill-rule="nonzero" fill-opacity="1" /><polyline clip-path="url(#clip132)" style="stroke:#008000; stroke-linecap:round; stroke-linejoin:round; stroke-width:8; stroke-opacity:1; fill:none" points="719.695,289.483 847.997,421.981 976.3,549.813 1104.6,697.156 1232.9,634.13 1361.21,710.873 1489.51,706.142 1617.81,833.192 1746.11,891.335 1874.42,991.431 2002.72,1125.56 2131.02,1177.19 2259.32,1194.94 "/>
<circle clip-path="url(#clip132)" cx="719.695" cy="289.483" r="14.4" fill="#008000" fill-rule="evenodd" fill-opacity="1" stroke="#000000" stroke-opacity="1" stroke-width="6.4"/>
<circle clip-path="url(#clip132)" cx="847.997" cy="421.981" r="14.4" fill="#008000" fill-rule="evenodd" fill-opacity="1" stroke="#000000" stroke-opacity="1" stroke-width="6.4"/>
<circle clip-path="url(#clip132)" cx="976.3" cy="549.813" r="14.4" fill="#008000" fill-rule="evenodd" fill-opacity="1" stroke="#000000" stroke-opacity="1" stroke-width="6.4"/>
<circle clip-path="url(#clip132)" cx="1104.6" cy="697.156" r="14.4" fill="#008000" fill-rule="evenodd" fill-opacity="1" stroke="#000000" stroke-opacity="1" stroke-width="6.4"/>
<circle clip-path="url(#clip132)" cx="1232.9" cy="634.13" r="14.4" fill="#008000" fill-rule="evenodd" fill-opacity="1" stroke="#000000" stroke-opacity="1" stroke-width="6.4"/>
<circle clip-path="url(#clip132)" cx="1361.21" cy="710.873" r="14.4" fill="#008000" fill-rule="evenodd" fill-opacity="1" stroke="#000000" stroke-opacity="1" stroke-width="6.4"/>
<circle clip-path="url(#clip132)" cx="1489.51" cy="706.142" r="14.4" fill="#008000" fill-rule="evenodd" fill-opacity="1" stroke="#000000" stroke-opacity="1" stroke-width="6.4"/>
<circle clip-path="url(#clip132)" cx="1617.81" cy="833.192" r="14.4" fill="#008000" fill-rule="evenodd" fill-opacity="1" stroke="#000000" stroke-opacity="1" stroke-width="6.4"/>
<circle clip-path="url(#clip132)" cx="1746.11" cy="891.335" r="14.4" fill="#008000" fill-rule="evenodd" fill-opacity="1" stroke="#000000" stroke-opacity="1" stroke-width="6.4"/>
<circle clip-path="url(#clip132)" cx="1874.42" cy="991.431" r="14.4" fill="#008000" fill-rule="evenodd" fill-opacity="1" stroke="#000000" stroke-opacity="1" stroke-width="6.4"/>
<circle clip-path="url(#clip132)" cx="2002.72" cy="1125.56" r="14.4" fill="#008000" fill-rule="evenodd" fill-opacity="1" stroke="#000000" stroke-opacity="1" stroke-width="6.4"/>
<circle clip-path="url(#clip132)" cx="2131.02" cy="1177.19" r="14.4" fill="#008000" fill-rule="evenodd" fill-opacity="1" stroke="#000000" stroke-opacity="1" stroke-width="6.4"/>
<circle clip-path="url(#clip132)" cx="2259.32" cy="1194.94" r="14.4" fill="#008000" fill-rule="evenodd" fill-opacity="1" stroke="#000000" stroke-opacity="1" stroke-width="6.4"/>
<polyline clip-path="url(#clip132)" style="stroke:#00008b; stroke-linecap:round; stroke-linejoin:round; stroke-width:8; stroke-opacity:1; fill:none" points="719.695,233.239 847.997,244.976 976.3,329.796 1104.6,427.598 1232.9,523.576 1361.21,615.849 1489.51,698.974 1617.81,782.677 1746.11,865.12 1874.42,935.659 2002.72,1006.29 2131.02,1075.17 2259.32,1140.16 "/>
<path clip-path="url(#clip132)" d="M719.695 332.661 L847.997 351.829 L976.3 433.903 L1104.6 531.461 L1232.9 625.717 L1361.21 722.894 L1489.51 802.669 L1617.81 887.196 L1746.11 974.064 L1874.42 1037.87 L2002.72 1107 L2131.02 1178.66 L2259.32 1240.32 L2259.32 1035.67 L2131.02 975.393 L2002.72 905.171 L1874.42 827.511 L1746.11 756.809 L1617.81 680.39 L1489.51 600.135 L1361.21 510.78 L1232.9 422.845 L1104.6 328.955 L976.3 231.848 L847.997 143.541 L719.695 127.862  Z" fill="#0000ff" fill-rule="evenodd" fill-opacity="0.1"/>
<polyline clip-path="url(#clip132)" style="stroke:#0000ff; stroke-linecap:round; stroke-linejoin:round; stroke-width:0; stroke-opacity:0.1; fill:none" points="719.695,332.661 847.997,351.829 976.3,433.903 1104.6,531.461 1232.9,625.717 1361.21,722.894 1489.51,802.669 1617.81,887.196 1746.11,974.064 1874.42,1037.87 2002.72,1107 2131.02,1178.66 2259.32,1240.32 "/>
</svg>
