<?xml version="1.0" encoding="utf-8"?>
<svg xmlns="http://www.w3.org/2000/svg" xmlns:xlink="http://www.w3.org/1999/xlink" width="600" height="400" viewBox="0 0 2400 1600">
<defs>
  <clipPath id="clip080">
    <rect x="0" y="0" width="2400" height="1600"/>
  </clipPath>
</defs>
<path clip-path="url(#clip080)" d="M0 1600 L2400 1600 L2400 0 L0 0  Z" fill="#ffffff" fill-rule="evenodd" fill-opacity="1"/>
<defs>
  <clipPath id="clip081">
    <rect x="480" y="0" width="1681" height="1600"/>
  </clipPath>
</defs>
<path clip-path="url(#clip080)" d="M561.747 1273.7 L2305.51 1273.7 L2305.51 94.4882 L561.747 94.4882  Z" fill="#ffffff" fill-rule="evenodd" fill-opacity="1"/>
<defs>
  <clipPath id="clip082">
    <rect x="561" y="94" width="1745" height="1180"/>
  </clipPath>
</defs>
<polyline clip-path="url(#clip082)" style="stroke:#000000; stroke-linecap:round; stroke-linejoin:round; stroke-width:4; stroke-opacity:0.1; fill:none" points="611.099,1273.7 611.099,94.4882 "/>
<polyline clip-path="url(#clip082)" style="stroke:#000000; stroke-linecap:round; stroke-linejoin:round; stroke-width:4; stroke-opacity:0.1; fill:none" points="953.82,1273.7 953.82,94.4882 "/>
<polyline clip-path="url(#clip082)" style="stroke:#000000; stroke-linecap:round; stroke-linejoin:round; stroke-width:4; stroke-opacity:0.1; fill:none" points="1296.54,1273.7 1296.54,94.4882 "/>
<polyline clip-path="url(#clip082)" style="stroke:#000000; stroke-linecap:round; stroke-linejoin:round; stroke-width:4; stroke-opacity:0.1; fill:none" points="1639.26,1273.7 1639.26,94.4882 "/>
<polyline clip-path="url(#clip082)" style="stroke:#000000; stroke-linecap:round; stroke-linejoin:round; stroke-width:4; stroke-opacity:0.1; fill:none" points="1981.98,1273.7 1981.98,94.4882 "/>
<polyline clip-path="url(#clip080)" style="stroke:#000000; stroke-linecap:round; stroke-linejoin:round; stroke-width:8; stroke-opacity:1; fill:none" points="561.747,1273.7 2305.51,1273.7 "/>
<polyline clip-path="url(#clip080)" style="stroke:#000000; stroke-linecap:round; stroke-linejoin:round; stroke-width:8; stroke-opacity:1; fill:none" points="611.099,1273.7 611.099,1254.8 "/>
<polyline clip-path="url(#clip080)" style="stroke:#000000; stroke-linecap:round; stroke-linejoin:round; stroke-width:8; stroke-opacity:1; fill:none" points="953.82,1273.7 953.82,1254.8 "/>
<polyline clip-path="url(#clip080)" style="stroke:#000000; stroke-linecap:round; stroke-linejoin:round; stroke-width:8; stroke-opacity:1; fill:none" points="1296.54,1273.7 1296.54,1254.8 "/>
<polyline clip-path="url(#clip080)" style="stroke:#000000; stroke-linecap:round; stroke-linejoin:round; stroke-width:8; stroke-opacity:1; fill:none" points="1639.26,1273.7 1639.26,1254.8 "/>
<polyline clip-path="url(#clip080)" style="stroke:#000000; stroke-linecap:round; stroke-linejoin:round; stroke-width:8; stroke-opacity:1; fill:none" points="1981.98,1273.7 1981.98,1254.8 "/>
<path clip-path="url(#clip080)" d="M535.706 1316.33 Q528.484 1316.33 524.826 1323.46 Q521.215 1330.55 521.215 1344.81 Q521.215 1359.02 524.826 1366.15 Q528.484 1373.23 535.706 1373.23 Q542.974 1373.23 546.586 1366.15 Q550.243 1359.02 550.243 1344.81 Q550.243 1330.55 546.586 1323.46 Q542.974 1316.33 535.706 1316.33 M535.706 1308.93 Q547.326 1308.93 553.437 1318.14 Q559.595 1327.31 559.595 1344.81 Q559.595 1362.26 553.437 1371.47 Q547.326 1380.64 535.706 1380.64 Q524.086 1380.64 517.928 1371.47 Q511.817 1362.26 511.817 1344.81 Q511.817 1327.31 517.928 1318.14 Q524.086 1308.93 535.706 1308.93 Z" fill="#000000" fill-rule="nonzero" fill-opacity="1" /><path clip-path="url(#clip080)" d="M576.03 1367.54 L585.798 1367.54 L585.798 1379.3 L576.03 1379.3 L576.03 1367.54 Z" fill="#000000" fill-rule="nonzero" fill-opacity="1" /><path clip-path="url(#clip080)" d="M626.168 1316.33 Q618.946 1316.33 615.289 1323.46 Q611.678 1330.55 611.678 1344.81 Q611.678 1359.02 615.289 1366.15 Q618.946 1373.23 626.168 1373.23 Q633.437 1373.23 637.048 1366.15 Q640.705 1359.02 640.705 1344.81 Q640.705 1330.55 637.048 1323.46 Q633.437 1316.33 626.168 1316.33 M626.168 1308.93 Q637.789 1308.93 643.9 1318.14 Q650.057 1327.31 650.057 1344.81 Q650.057 1362.26 643.9 1371.47 Q637.789 1380.64 626.168 1380.64 Q614.548 1380.64 608.391 1371.47 Q602.28 1362.26 602.28 1344.81 Q602.28 1327.31 608.391 1318.14 Q614.548 1308.93 626.168 1308.93 Z" fill="#000000" fill-rule="nonzero" fill-opacity="1" /><path clip-path="url(#clip080)" d="M686.492 1316.33 Q679.27 1316.33 675.613 1323.46 Q672.002 1330.55 672.002 1344.81 Q672.002 1359.02 675.613 1366.15 Q679.27 1373.23 686.492 1373.23 Q693.761 1373.23 697.372 1366.15 Q701.029 1359.02 701.029 1344.81 Q701.029 1330.55 697.372 1323.46 Q693.761 1316.33 686.492 1316.33 M686.492 1308.93 Q698.113 1308.93 704.224 1318.14 Q710.381 1327.31 710.381 1344.81 Q710.381 1362.26 704.224 1371.47 Q698.113 1380.64 686.492 1380.64 Q674.872 1380.64 668.715 1371.47 Q662.603 1362.26 662.603 1344.81 Q662.603 1327.31 668.715 1318.14 Q674.872 1308.93 686.492 1308.93 Z" fill="#000000" fill-rule="nonzero" fill-opacity="1" /><path clip-path="url(#clip080)" d="M879.422 1316.33 Q872.2 1316.33 868.543 1323.46 Q864.932 1330.55 864.932 1344.81 Q864.932 1359.02 868.543 1366.15 Q872.2 1373.23 879.422 1373.23 Q886.691 1373.23 890.302 1366.15 Q893.959 1359.02 893.959 1344.81 Q893.959 1330.55 890.302 1323.46 Q886.691 1316.33 879.422 1316.33 M879.422 1308.93 Q891.043 1308.93 897.154 1318.14 Q903.311 1327.31 903.311 1344.81 Q903.311 1362.26 897.154 1371.47 Q891.043 1380.64 879.422 1380.64 Q867.802 1380.64 861.645 1371.47 Q855.534 1362.26 855.534 1344.81 Q855.534 1327.31 861.645 1318.14 Q867.802 1308.93 879.422 1308.93 Z" fill="#000000" fill-rule="nonzero" fill-opacity="1" /><path clip-path="url(#clip080)" d="M919.746 1367.54 L929.515 1367.54 L929.515 1379.3 L919.746 1379.3 L919.746 1367.54 Z" fill="#000000" fill-rule="nonzero" fill-opacity="1" /><path clip-path="url(#clip080)" d="M957.94 1371.43 L990.579 1371.43 L990.579 1379.3 L946.691 1379.3 L946.691 1371.43 Q952.015 1365.92 961.181 1356.66 Q970.394 1347.35 972.755 1344.67 Q977.246 1339.62 979.005 1336.15 Q980.811 1332.63 980.811 1329.25 Q980.811 1323.74 976.922 1320.27 Q973.079 1316.8 966.876 1316.8 Q962.478 1316.8 957.57 1318.32 Q952.709 1319.85 947.154 1322.95 L947.154 1313.51 Q952.802 1311.24 957.709 1310.08 Q962.616 1308.93 966.69 1308.93 Q977.431 1308.93 983.82 1314.3 Q990.209 1319.67 990.209 1328.65 Q990.209 1332.91 988.588 1336.75 Q987.014 1340.55 982.801 1345.73 Q981.644 1347.07 975.44 1353.51 Q969.237 1359.9 957.94 1371.43 Z" fill="#000000" fill-rule="nonzero" fill-opacity="1" /><path clip-path="url(#clip080)" d="M1010.3 1310.18 L1047.01 1310.18 L1047.01 1318.05 L1018.87 1318.05 L1018.87 1334.99 Q1020.9 1334.3 1022.94 1333.97 Q1024.98 1333.6 1027.01 1333.6 Q1038.59 1333.6 1045.35 1339.94 Q1052.11 1346.29 1052.11 1357.12 Q1052.11 1368.28 1045.16 1374.48 Q1038.22 1380.64 1025.58 1380.64 Q1021.23 1380.64 1016.69 1379.9 Q1012.2 1379.16 1007.38 1377.68 L1007.38 1368.28 Q1011.55 1370.55 1016 1371.66 Q1020.44 1372.77 1025.39 1372.77 Q1033.4 1372.77 1038.08 1368.56 Q1042.75 1364.34 1042.75 1357.12 Q1042.75 1349.9 1038.08 1345.68 Q1033.4 1341.47 1025.39 1341.47 Q1021.64 1341.47 1017.89 1342.31 Q1014.19 1343.14 1010.3 1344.9 L1010.3 1310.18 Z" fill="#000000" fill-rule="nonzero" fill-opacity="1" /><path clip-path="url(#clip080)" d="M1221.15 1316.33 Q1213.93 1316.33 1210.27 1323.46 Q1206.66 1330.55 1206.66 1344.81 Q1206.66 1359.02 1210.27 1366.15 Q1213.93 1373.23 1221.15 1373.23 Q1228.42 1373.23 1232.03 1366.15 Q1235.68 1359.02 1235.68 1344.81 Q1235.68 1330.55 1232.03 1323.46 Q1228.42 1316.33 1221.15 1316.33 M1221.15 1308.93 Q1232.77 1308.93 1238.88 1318.14 Q1245.04 1327.31 1245.04 1344.81 Q1245.04 1362.26 1238.88 1371.47 Q1232.77 1380.64 1221.15 1380.64 Q1209.53 1380.64 1203.37 1371.47 Q1197.26 1362.26 1197.26 1344.81 Q1197.26 1327.31 1203.37 1318.14 Q1209.53 1308.93 1221.15 1308.93 Z" fill="#000000" fill-rule="nonzero" fill-opacity="1" /><path clip-path="url(#clip080)" d="M1261.47 1367.54 L1271.24 1367.54 L1271.24 1379.3 L1261.47 1379.3 L1261.47 1367.54 Z" fill="#000000" fill-rule="nonzero" fill-opacity="1" /><path clip-path="url(#clip080)" d="M1291.7 1310.18 L1328.42 1310.18 L1328.42 1318.05 L1300.27 1318.05 L1300.27 1334.99 Q1302.31 1334.3 1304.34 1333.97 Q1306.38 1333.6 1308.42 1333.6 Q1319.99 1333.6 1326.75 1339.94 Q1333.51 1346.29 1333.51 1357.12 Q1333.51 1368.28 1326.56 1374.48 Q1319.62 1380.64 1306.98 1380.64 Q1302.63 1380.64 1298.09 1379.9 Q1293.6 1379.16 1288.79 1377.68 L1288.79 1368.28 Q1292.95 1370.55 1297.4 1371.66 Q1301.84 1372.77 1306.8 1372.77 Q1314.8 1372.77 1319.48 1368.56 Q1324.16 1364.34 1324.16 1357.12 Q1324.16 1349.9 1319.48 1345.68 Q1314.8 1341.47 1306.8 1341.47 Q1303.05 1341.47 1299.3 1342.31 Q1295.59 1343.14 1291.7 1344.9 L1291.7 1310.18 Z" fill="#000000" fill-rule="nonzero" fill-opacity="1" /><path clip-path="url(#clip080)" d="M1371.93 1316.33 Q1364.71 1316.33 1361.05 1323.46 Q1357.44 1330.55 1357.44 1344.81 Q1357.44 1359.02 1361.05 1366.15 Q1364.71 1373.23 1371.93 1373.23 Q1379.2 1373.23 1382.81 1366.15 Q1386.47 1359.02 1386.47 1344.81 Q1386.47 1330.55 1382.81 1323.46 Q1379.2 1316.33 1371.93 1316.33 M1371.93 1308.93 Q1383.55 1308.93 1389.67 1318.14 Q1395.82 1327.31 1395.82 1344.81 Q1395.82 1362.26 1389.67 1371.47 Q1383.55 1380.64 1371.93 1380.64 Q1360.31 1380.64 1354.16 1371.47 Q1348.05 1362.26 1348.05 1344.81 Q1348.05 1327.31 1354.16 1318.14 Q1360.31 1308.93 1371.93 1308.93 Z" fill="#000000" fill-rule="nonzero" fill-opacity="1" /><path clip-path="url(#clip080)" d="M1564.86 1316.33 Q1557.64 1316.33 1553.98 1323.46 Q1550.37 1330.55 1550.37 1344.81 Q1550.37 1359.02 1553.98 1366.15 Q1557.64 1373.23 1564.86 1373.23 Q1572.13 1373.23 1575.74 1366.15 Q1579.4 1359.02 1579.4 1344.81 Q1579.4 1330.55 1575.74 1323.46 Q1572.13 1316.33 1564.86 1316.33 M1564.86 1308.93 Q1576.48 1308.93 1582.6 1318.14 Q1588.75 1327.31 1588.75 1344.81 Q1588.75 1362.26 1582.6 1371.47 Q1576.48 1380.64 1564.86 1380.64 Q1553.24 1380.64 1547.09 1371.47 Q1540.98 1362.26 1540.98 1344.81 Q1540.98 1327.31 1547.09 1318.14 Q1553.24 1308.93 1564.86 1308.93 Z" fill="#000000" fill-rule="nonzero" fill-opacity="1" /><path clip-path="url(#clip080)" d="M1605.19 1367.54 L1614.96 1367.54 L1614.96 1379.3 L1605.19 1379.3 L1605.19 1367.54 Z" fill="#000000" fill-rule="nonzero" fill-opacity="1" /><path clip-path="url(#clip080)" d="M1632.97 1310.18 L1677.41 1310.18 L1677.41 1314.16 L1652.32 1379.3 L1642.55 1379.3 L1666.16 1318.05 L1632.97 1318.05 L1632.97 1310.18 Z" fill="#000000" fill-rule="nonzero" fill-opacity="1" /><path clip-path="url(#clip080)" d="M1695.74 1310.18 L1732.46 1310.18 L1732.46 1318.05 L1704.31 1318.05 L1704.31 1334.99 Q1706.35 1334.3 1708.38 1333.97 Q1710.42 1333.6 1712.46 1333.6 Q1724.03 1333.6 1730.79 1339.94 Q1737.55 1346.29 1737.55 1357.12 Q1737.55 1368.28 1730.6 1374.48 Q1723.66 1380.64 1711.02 1380.64 Q1706.67 1380.64 1702.13 1379.9 Q1697.64 1379.16 1692.83 1377.68 L1692.83 1368.28 Q1696.99 1370.55 1701.44 1371.66 Q1705.88 1372.77 1710.84 1372.77 Q1718.85 1372.77 1723.52 1368.56 Q1728.2 1364.34 1728.2 1357.12 Q1728.2 1349.9 1723.52 1345.68 Q1718.85 1341.47 1710.84 1341.47 Q1707.09 1341.47 1703.34 1342.31 Q1699.63 1343.14 1695.74 1344.9 L1695.74 1310.18 Z" fill="#000000" fill-rule="nonzero" fill-opacity="1" /><path clip-path="url(#clip080)" d="M1886.13 1371.43 L1901.4 1371.43 L1901.4 1318.69 L1884.78 1322.03 L1884.78 1313.51 L1901.31 1310.18 L1910.66 1310.18 L1910.66 1371.43 L1925.94 1371.43 L1925.94 1379.3 L1886.13 1379.3 L1886.13 1371.43 Z" fill="#000000" fill-rule="nonzero" fill-opacity="1" /><path clip-path="url(#clip080)" d="M1944.83 1367.54 L1954.6 1367.54 L1954.6 1379.3 L1944.83 1379.3 L1944.83 1367.54 Z" fill="#000000" fill-rule="nonzero" fill-opacity="1" /><path clip-path="url(#clip080)" d="M1994.97 1316.33 Q1987.75 1316.33 1984.09 1323.46 Q1980.48 1330.55 1980.48 1344.81 Q1980.48 1359.02 1984.09 1366.15 Q1987.75 1373.23 1994.97 1373.23 Q2002.24 1373.23 2005.85 1366.15 Q2009.51 1359.02 2009.51 1344.81 Q2009.51 1330.55 2005.85 1323.46 Q2002.24 1316.33 1994.97 1316.33 M1994.97 1308.93 Q2006.59 1308.93 2012.7 1318.14 Q2018.86 1327.31 2018.86 1344.81 Q2018.86 1362.26 2012.7 1371.47 Q2006.59 1380.64 1994.97 1380.64 Q1983.35 1380.64 1977.19 1371.47 Q1971.08 1362.26 1971.08 1344.81 Q1971.08 1327.31 1977.19 1318.14 Q1983.35 1308.93 1994.97 1308.93 Z" fill="#000000" fill-rule="nonzero" fill-opacity="1" /><path clip-path="url(#clip080)" d="M2055.29 1316.33 Q2048.07 1316.33 2044.41 1323.46 Q2040.8 1330.55 2040.8 1344.81 Q2040.8 1359.02 2044.41 1366.15 Q2048.07 1373.23 2055.29 1373.23 Q2062.56 1373.23 2066.17 1366.15 Q2069.83 1359.02 2069.83 1344.81 Q2069.83 1330.55 2066.17 1323.46 Q2062.56 1316.33 2055.29 1316.33 M2055.29 1308.93 Q2066.91 1308.93 2073.02 1318.14 Q2079.18 1327.31 2079.18 1344.81 Q2079.18 1362.26 2073.02 1371.47 Q2066.91 1380.64 2055.29 1380.64 Q2043.67 1380.64 2037.52 1371.47 Q2031.4 1362.26 2031.4 1344.81 Q2031.4 1327.31 2037.52 1318.14 Q2043.67 1308.93 2055.29 1308.93 Z" fill="#000000" fill-rule="nonzero" fill-opacity="1" /><path clip-path="url(#clip080)" d="M1319.17 1484.39 L1319.17 1527.42 L1307.46 1527.42 L1307.46 1484.77 Q1307.46 1474.65 1303.51 1469.62 Q1299.57 1464.59 1291.67 1464.59 Q1282.19 1464.59 1276.71 1470.64 Q1271.24 1476.69 1271.24 1487.13 L1271.24 1527.42 L1259.46 1527.42 L1259.46 1428.37 L1271.24 1428.37 L1271.24 1467.2 Q1275.44 1460.77 1281.11 1457.59 Q1286.84 1454.41 1294.28 1454.41 Q1306.57 1454.41 1312.87 1462.05 Q1319.17 1469.62 1319.17 1484.39 Z" fill="#000000" fill-rule="nonzero" fill-opacity="1" /><path clip-path="url(#clip080)" d="M1370.16 1464.34 Q1360.74 1464.34 1355.27 1471.72 Q1349.79 1479.04 1349.79 1491.84 Q1349.79 1504.63 1355.2 1512.02 Q1360.68 1519.34 1370.16 1519.34 Q1379.52 1519.34 1385 1511.96 Q1390.47 1504.57 1390.47 1491.84 Q1390.47 1479.17 1385 1471.79 Q1379.52 1464.34 1370.16 1464.34 M1370.16 1454.41 Q1385.44 1454.41 1394.16 1464.34 Q1402.88 1474.27 1402.88 1491.84 Q1402.88 1509.35 1394.16 1519.34 Q1385.44 1529.27 1370.16 1529.27 Q1354.82 1529.27 1346.1 1519.34 Q1337.44 1509.35 1337.44 1491.84 Q1337.44 1474.27 1346.1 1464.34 Q1354.82 1454.41 1370.16 1454.41 Z" fill="#000000" fill-rule="nonzero" fill-opacity="1" /><path clip-path="url(#clip080)" d="M1421.09 1499.29 L1421.09 1456.13 L1432.8 1456.13 L1432.8 1498.84 Q1432.8 1508.96 1436.75 1514.06 Q1440.7 1519.08 1448.59 1519.08 Q1458.07 1519.08 1463.55 1513.04 Q1469.09 1506.99 1469.09 1496.55 L1469.09 1456.13 L1480.8 1456.13 L1480.8 1527.42 L1469.09 1527.42 L1469.09 1516.47 Q1464.82 1522.97 1459.16 1526.15 Q1453.55 1529.27 1446.11 1529.27 Q1433.82 1529.27 1427.45 1521.63 Q1421.09 1513.99 1421.09 1499.29 M1450.56 1454.41 L1450.56 1454.41 Z" fill="#000000" fill-rule="nonzero" fill-opacity="1" /><path clip-path="url(#clip080)" d="M1546.24 1467.08 Q1544.27 1465.93 1541.91 1465.42 Q1539.62 1464.85 1536.82 1464.85 Q1526.89 1464.85 1521.54 1471.34 Q1516.26 1477.77 1516.26 1489.87 L1516.26 1527.42 L1504.48 1527.42 L1504.48 1456.13 L1516.26 1456.13 L1516.26 1467.2 Q1519.95 1460.71 1525.87 1457.59 Q1531.79 1454.41 1540.26 1454.41 Q1541.46 1454.41 1542.93 1454.6 Q1544.39 1454.73 1546.18 1455.05 L1546.24 1467.08 Z" fill="#000000" fill-rule="nonzero" fill-opacity="1" /><path clip-path="url(#clip080)" d="M1603.98 1458.23 L1603.98 1469.3 Q1599.01 1466.76 1593.66 1465.49 Q1588.32 1464.21 1582.59 1464.21 Q1573.87 1464.21 1569.47 1466.89 Q1565.15 1469.56 1565.15 1474.91 Q1565.15 1478.98 1568.26 1481.34 Q1571.38 1483.63 1580.8 1485.73 L1584.82 1486.62 Q1597.29 1489.29 1602.51 1494.19 Q1607.8 1499.03 1607.8 1507.75 Q1607.8 1517.68 1599.9 1523.48 Q1592.07 1529.27 1578.32 1529.27 Q1572.59 1529.27 1566.35 1528.12 Q1560.18 1527.04 1553.3 1524.81 L1553.3 1512.72 Q1559.8 1516.09 1566.1 1517.81 Q1572.4 1519.47 1578.58 1519.47 Q1586.85 1519.47 1591.31 1516.67 Q1595.76 1513.8 1595.76 1508.64 Q1595.76 1503.87 1592.52 1501.32 Q1589.33 1498.78 1578.45 1496.42 L1574.38 1495.47 Q1563.49 1493.18 1558.65 1488.47 Q1553.81 1483.69 1553.81 1475.42 Q1553.81 1465.36 1560.94 1459.88 Q1568.07 1454.41 1581.19 1454.41 Q1587.68 1454.41 1593.41 1455.36 Q1599.14 1456.32 1603.98 1458.23 Z" fill="#000000" fill-rule="nonzero" fill-opacity="1" /><polyline clip-path="url(#clip082)" style="stroke:#000000; stroke-linecap:round; stroke-linejoin:round; stroke-width:4; stroke-opacity:0.1; fill:none" points="561.747,1213.7 2305.51,1213.7 "/>
<polyline clip-path="url(#clip082)" style="stroke:#000000; stroke-linecap:round; stroke-linejoin:round; stroke-width:4; stroke-opacity:0.1; fill:none" points="561.747,997.719 2305.51,997.719 "/>
<polyline clip-path="url(#clip082)" style="stroke:#000000; stroke-linecap:round; stroke-linejoin:round; stroke-width:4; stroke-opacity:0.1; fill:none" points="561.747,781.736 2305.51,781.736 "/>
<polyline clip-path="url(#clip082)" style="stroke:#000000; stroke-linecap:round; stroke-linejoin:round; stroke-width:4; stroke-opacity:0.1; fill:none" points="561.747,565.752 2305.51,565.752 "/>
<polyline clip-path="url(#clip082)" style="stroke:#000000; stroke-linecap:round; stroke-linejoin:round; stroke-width:4; stroke-opacity:0.1; fill:none" points="561.747,349.769 2305.51,349.769 "/>
<polyline clip-path="url(#clip082)" style="stroke:#000000; stroke-linecap:round; stroke-linejoin:round; stroke-width:4; stroke-opacity:0.1; fill:none" points="561.747,133.785 2305.51,133.785 "/>
<polyline clip-path="url(#clip080)" style="stroke:#000000; stroke-linecap:round; stroke-linejoin:round; stroke-width:8; stroke-opacity:1; fill:none" points="561.747,1273.7 561.747,94.4882 "/>
<polyline clip-path="url(#clip080)" style="stroke:#000000; stroke-linecap:round; stroke-linejoin:round; stroke-width:8; stroke-opacity:1; fill:none" points="561.747,1213.7 580.645,1213.7 "/>
<polyline clip-path="url(#clip080)" style="stroke:#000000; stroke-linecap:round; stroke-linejoin:round; stroke-width:8; stroke-opacity:1; fill:none" points="561.747,997.719 580.645,997.719 "/>
<polyline clip-path="url(#clip080)" style="stroke:#000000; stroke-linecap:round; stroke-linejoin:round; stroke-width:8; stroke-opacity:1; fill:none" points="561.747,781.736 580.645,781.736 "/>
<polyline clip-path="url(#clip080)" style="stroke:#000000; stroke-linecap:round; stroke-linejoin:round; stroke-width:8; stroke-opacity:1; fill:none" points="561.747,565.752 580.645,565.752 "/>
<polyline clip-path="url(#clip080)" style="stroke:#000000; stroke-linecap:round; stroke-linejoin:round; stroke-width:8; stroke-opacity:1; fill:none" points="561.747,349.769 580.645,349.769 "/>
<polyline clip-path="url(#clip080)" style="stroke:#000000; stroke-linecap:round; stroke-linejoin:round; stroke-width:8; stroke-opacity:1; fill:none" points="561.747,133.785 580.645,133.785 "/>
<path clip-path="url(#clip080)" d="M352.23 1209.98 Q345.933 1209.98 342.23 1214.28 Q338.572 1218.59 338.572 1226.09 Q338.572 1233.54 342.23 1237.89 Q345.933 1242.2 352.23 1242.2 Q358.526 1242.2 362.183 1237.89 Q365.887 1233.54 365.887 1226.09 Q365.887 1218.59 362.183 1214.28 Q358.526 1209.98 352.23 1209.98 M370.794 1180.67 L370.794 1189.19 Q367.276 1187.52 363.665 1186.64 Q360.1 1185.76 356.582 1185.76 Q347.322 1185.76 342.415 1192.01 Q337.554 1198.26 336.859 1210.9 Q339.591 1206.87 343.711 1204.74 Q347.832 1202.57 352.785 1202.57 Q363.202 1202.57 369.22 1208.91 Q375.285 1215.21 375.285 1226.09 Q375.285 1236.74 368.989 1243.17 Q362.693 1249.61 352.23 1249.61 Q340.239 1249.61 333.896 1240.44 Q327.554 1231.23 327.554 1213.77 Q327.554 1197.38 335.332 1187.66 Q343.109 1177.89 356.211 1177.89 Q359.73 1177.89 363.294 1178.59 Q366.906 1179.28 370.794 1180.67 Z" fill="#000000" fill-rule="nonzero" fill-opacity="1" /><path clip-path="url(#clip080)" d="M391.489 1179.14 L428.202 1179.14 L428.202 1187.01 L400.054 1187.01 L400.054 1203.96 Q402.091 1203.26 404.128 1202.94 Q406.165 1202.57 408.202 1202.57 Q419.776 1202.57 426.535 1208.91 Q433.294 1215.25 433.294 1226.09 Q433.294 1237.24 426.35 1243.45 Q419.405 1249.61 406.766 1249.61 Q402.415 1249.61 397.878 1248.86 Q393.387 1248.12 388.572 1246.64 L388.572 1237.24 Q392.739 1239.51 397.183 1240.62 Q401.628 1241.74 406.581 1241.74 Q414.59 1241.74 419.266 1237.52 Q423.942 1233.31 423.942 1226.09 Q423.942 1218.87 419.266 1214.65 Q414.59 1210.44 406.581 1210.44 Q402.831 1210.44 399.081 1211.27 Q395.378 1212.11 391.489 1213.87 L391.489 1179.14 Z" fill="#000000" fill-rule="nonzero" fill-opacity="1" /><path clip-path="url(#clip080)" d="M451.72 1236.5 L461.488 1236.5 L461.488 1248.26 L451.72 1248.26 L451.72 1236.5 Z" fill="#000000" fill-rule="nonzero" fill-opacity="1" /><path clip-path="url(#clip080)" d="M501.859 1185.3 Q494.636 1185.3 490.979 1192.43 Q487.368 1199.51 487.368 1213.77 Q487.368 1227.99 490.979 1235.11 Q494.636 1242.2 501.859 1242.2 Q509.127 1242.2 512.738 1235.11 Q516.396 1227.99 516.396 1213.77 Q516.396 1199.51 512.738 1192.43 Q509.127 1185.3 501.859 1185.3 M501.859 1177.89 Q513.479 1177.89 519.59 1187.11 Q525.747 1196.27 525.747 1213.77 Q525.747 1231.23 519.59 1240.44 Q513.479 1249.61 501.859 1249.61 Q490.238 1249.61 484.081 1240.44 Q477.97 1231.23 477.97 1213.77 Q477.97 1196.27 484.081 1187.11 Q490.238 1177.89 501.859 1177.89 Z" fill="#000000" fill-rule="nonzero" fill-opacity="1" /><path clip-path="url(#clip080)" d="M328.711 963.159 L373.156 963.159 L373.156 967.141 L348.063 1032.28 L338.295 1032.28 L361.906 971.03 L328.711 971.03 L328.711 963.159 Z" fill="#000000" fill-rule="nonzero" fill-opacity="1" /><path clip-path="url(#clip080)" d="M411.396 969.317 Q404.174 969.317 400.516 976.446 Q396.905 983.53 396.905 997.789 Q396.905 1012 400.516 1019.13 Q404.174 1026.21 411.396 1026.21 Q418.665 1026.21 422.276 1019.13 Q425.933 1012 425.933 997.789 Q425.933 983.53 422.276 976.446 Q418.665 969.317 411.396 969.317 M411.396 961.909 Q423.016 961.909 429.127 971.122 Q435.285 980.289 435.285 997.789 Q435.285 1015.24 429.127 1024.46 Q423.016 1033.62 411.396 1033.62 Q399.776 1033.62 393.618 1024.46 Q387.507 1015.24 387.507 997.789 Q387.507 980.289 393.618 971.122 Q399.776 961.909 411.396 961.909 Z" fill="#000000" fill-rule="nonzero" fill-opacity="1" /><path clip-path="url(#clip080)" d="M451.72 1020.52 L461.488 1020.52 L461.488 1032.28 L451.72 1032.28 L451.72 1020.52 Z" fill="#000000" fill-rule="nonzero" fill-opacity="1" /><path clip-path="url(#clip080)" d="M501.859 969.317 Q494.636 969.317 490.979 976.446 Q487.368 983.53 487.368 997.789 Q487.368 1012 490.979 1019.13 Q494.636 1026.21 501.859 1026.21 Q509.127 1026.21 512.738 1019.13 Q516.396 1012 516.396 997.789 Q516.396 983.53 512.738 976.446 Q509.127 969.317 501.859 969.317 M501.859 961.909 Q513.479 961.909 519.59 971.122 Q525.747 980.289 525.747 997.789 Q525.747 1015.24 519.59 1024.46 Q513.479 1033.62 501.859 1033.62 Q490.238 1033.62 484.081 1024.46 Q477.97 1015.24 477.97 997.789 Q477.97 980.289 484.081 971.122 Q490.238 961.909 501.859 961.909 Z" fill="#000000" fill-rule="nonzero" fill-opacity="1" /><path clip-path="url(#clip080)" d="M328.711 747.176 L373.156 747.176 L373.156 751.157 L348.063 816.296 L338.295 816.296 L361.906 755.046 L328.711 755.046 L328.711 747.176 Z" fill="#000000" fill-rule="nonzero" fill-opacity="1" /><path clip-path="url(#clip080)" d="M391.489 747.176 L428.202 747.176 L428.202 755.046 L400.054 755.046 L400.054 771.991 Q402.091 771.296 404.128 770.972 Q406.165 770.602 408.202 770.602 Q419.776 770.602 426.535 776.944 Q433.294 783.287 433.294 794.12 Q433.294 805.278 426.35 811.481 Q419.405 817.639 406.766 817.639 Q402.415 817.639 397.878 816.898 Q393.387 816.157 388.572 814.676 L388.572 805.278 Q392.739 807.546 397.183 808.657 Q401.628 809.768 406.581 809.768 Q414.59 809.768 419.266 805.555 Q423.942 801.342 423.942 794.12 Q423.942 786.898 419.266 782.685 Q414.59 778.472 406.581 778.472 Q402.831 778.472 399.081 779.305 Q395.378 780.139 391.489 781.898 L391.489 747.176 Z" fill="#000000" fill-rule="nonzero" fill-opacity="1" /><path clip-path="url(#clip080)" d="M451.72 804.537 L461.488 804.537 L461.488 816.296 L451.72 816.296 L451.72 804.537 Z" fill="#000000" fill-rule="nonzero" fill-opacity="1" /><path clip-path="url(#clip080)" d="M501.859 753.333 Q494.636 753.333 490.979 760.463 Q487.368 767.546 487.368 781.805 Q487.368 796.018 490.979 803.148 Q494.636 810.231 501.859 810.231 Q509.127 810.231 512.738 803.148 Q516.396 796.018 516.396 781.805 Q516.396 767.546 512.738 760.463 Q509.127 753.333 501.859 753.333 M501.859 745.926 Q513.479 745.926 519.59 755.139 Q525.747 764.306 525.747 781.805 Q525.747 799.259 519.59 808.472 Q513.479 817.639 501.859 817.639 Q490.238 817.639 484.081 808.472 Q477.97 799.259 477.97 781.805 Q477.97 764.306 484.081 755.139 Q490.238 745.926 501.859 745.926 Z" fill="#000000" fill-rule="nonzero" fill-opacity="1" /><path clip-path="url(#clip080)" d="M351.072 567.489 Q344.406 567.489 340.563 571.053 Q336.767 574.618 336.767 580.868 Q336.767 587.118 340.563 590.683 Q344.406 594.248 351.072 594.248 Q357.739 594.248 361.582 590.683 Q365.424 587.072 365.424 580.868 Q365.424 574.618 361.582 571.053 Q357.785 567.489 351.072 567.489 M341.721 563.507 Q335.702 562.026 332.322 557.905 Q328.989 553.785 328.989 547.859 Q328.989 539.572 334.869 534.757 Q340.795 529.942 351.072 529.942 Q361.396 529.942 367.276 534.757 Q373.156 539.572 373.156 547.859 Q373.156 553.785 369.776 557.905 Q366.443 562.026 360.47 563.507 Q367.23 565.081 370.98 569.664 Q374.776 574.248 374.776 580.868 Q374.776 590.914 368.619 596.285 Q362.507 601.655 351.072 601.655 Q339.637 601.655 333.48 596.285 Q327.369 590.914 327.369 580.868 Q327.369 574.248 331.165 569.664 Q334.961 565.081 341.721 563.507 M338.295 548.739 Q338.295 554.109 341.628 557.118 Q345.008 560.127 351.072 560.127 Q357.091 560.127 360.47 557.118 Q363.896 554.109 363.896 548.739 Q363.896 543.368 360.47 540.359 Q357.091 537.35 351.072 537.35 Q345.008 537.35 341.628 540.359 Q338.295 543.368 338.295 548.739 Z" fill="#000000" fill-rule="nonzero" fill-opacity="1" /><path clip-path="url(#clip080)" d="M411.396 537.35 Q404.174 537.35 400.516 544.479 Q396.905 551.563 396.905 565.822 Q396.905 580.035 400.516 587.164 Q404.174 594.248 411.396 594.248 Q418.665 594.248 422.276 587.164 Q425.933 580.035 425.933 565.822 Q425.933 551.563 422.276 544.479 Q418.665 537.35 411.396 537.35 M411.396 529.942 Q423.016 529.942 429.127 539.155 Q435.285 548.322 435.285 565.822 Q435.285 583.276 429.127 592.488 Q423.016 601.655 411.396 601.655 Q399.776 601.655 393.618 592.488 Q387.507 583.276 387.507 565.822 Q387.507 548.322 393.618 539.155 Q399.776 529.942 411.396 529.942 Z" fill="#000000" fill-rule="nonzero" fill-opacity="1" /><path clip-path="url(#clip080)" d="M451.72 588.553 L461.488 588.553 L461.488 600.312 L451.72 600.312 L451.72 588.553 Z" fill="#000000" fill-rule="nonzero" fill-opacity="1" /><path clip-path="url(#clip080)" d="M501.859 537.35 Q494.636 537.35 490.979 544.479 Q487.368 551.563 487.368 565.822 Q487.368 580.035 490.979 587.164 Q494.636 594.248 501.859 594.248 Q509.127 594.248 512.738 587.164 Q516.396 580.035 516.396 565.822 Q516.396 551.563 512.738 544.479 Q509.127 537.35 501.859 537.35 M501.859 529.942 Q513.479 529.942 519.59 539.155 Q525.747 548.322 525.747 565.822 Q525.747 583.276 519.59 592.488 Q513.479 601.655 501.859 601.655 Q490.238 601.655 484.081 592.488 Q477.97 583.276 477.97 565.822 Q477.97 548.322 484.081 539.155 Q490.238 529.942 501.859 529.942 Z" fill="#000000" fill-rule="nonzero" fill-opacity="1" /><path clip-path="url(#clip080)" d="M351.072 351.505 Q344.406 351.505 340.563 355.07 Q336.767 358.635 336.767 364.885 Q336.767 371.135 340.563 374.699 Q344.406 378.264 351.072 378.264 Q357.739 378.264 361.582 374.699 Q365.424 371.088 365.424 364.885 Q365.424 358.635 361.582 355.07 Q357.785 351.505 351.072 351.505 M341.721 347.524 Q335.702 346.042 332.322 341.922 Q328.989 337.801 328.989 331.876 Q328.989 323.589 334.869 318.774 Q340.795 313.959 351.072 313.959 Q361.396 313.959 367.276 318.774 Q373.156 323.589 373.156 331.876 Q373.156 337.801 369.776 341.922 Q366.443 346.042 360.47 347.524 Q367.23 349.098 370.98 353.681 Q374.776 358.264 374.776 364.885 Q374.776 374.931 368.619 380.301 Q362.507 385.672 351.072 385.672 Q339.637 385.672 333.48 380.301 Q327.369 374.931 327.369 364.885 Q327.369 358.264 331.165 353.681 Q334.961 349.098 341.721 347.524 M338.295 332.755 Q338.295 338.126 341.628 341.135 Q345.008 344.144 351.072 344.144 Q357.091 344.144 360.47 341.135 Q363.896 338.126 363.896 332.755 Q363.896 327.385 360.47 324.376 Q357.091 321.366 351.072 321.366 Q345.008 321.366 341.628 324.376 Q338.295 327.385 338.295 332.755 Z" fill="#000000" fill-rule="nonzero" fill-opacity="1" /><path clip-path="url(#clip080)" d="M391.489 315.209 L428.202 315.209 L428.202 323.079 L400.054 323.079 L400.054 340.024 Q402.091 339.329 404.128 339.005 Q406.165 338.635 408.202 338.635 Q419.776 338.635 426.535 344.977 Q433.294 351.32 433.294 362.153 Q433.294 373.31 426.35 379.514 Q419.405 385.672 406.766 385.672 Q402.415 385.672 397.878 384.931 Q393.387 384.19 388.572 382.709 L388.572 373.31 Q392.739 375.579 397.183 376.69 Q401.628 377.801 406.581 377.801 Q414.59 377.801 419.266 373.588 Q423.942 369.375 423.942 362.153 Q423.942 354.931 419.266 350.718 Q414.59 346.505 406.581 346.505 Q402.831 346.505 399.081 347.338 Q395.378 348.172 391.489 349.931 L391.489 315.209 Z" fill="#000000" fill-rule="nonzero" fill-opacity="1" /><path clip-path="url(#clip080)" d="M451.72 372.57 L461.488 372.57 L461.488 384.329 L451.72 384.329 L451.72 372.57 Z" fill="#000000" fill-rule="nonzero" fill-opacity="1" /><path clip-path="url(#clip080)" d="M501.859 321.366 Q494.636 321.366 490.979 328.496 Q487.368 335.579 487.368 349.838 Q487.368 364.051 490.979 371.181 Q494.636 378.264 501.859 378.264 Q509.127 378.264 512.738 371.181 Q516.396 364.051 516.396 349.838 Q516.396 335.579 512.738 328.496 Q509.127 321.366 501.859 321.366 M501.859 313.959 Q513.479 313.959 519.59 323.172 Q525.747 332.338 525.747 349.838 Q525.747 367.292 519.59 376.505 Q513.479 385.672 501.859 385.672 Q490.238 385.672 484.081 376.505 Q477.97 367.292 477.97 349.838 Q477.97 332.338 484.081 323.172 Q490.238 313.959 501.859 313.959 Z" fill="#000000" fill-rule="nonzero" fill-opacity="1" /><path clip-path="url(#clip080)" d="M331.35 166.91 L331.35 158.392 Q334.869 160.058 338.48 160.938 Q342.091 161.818 345.563 161.818 Q354.822 161.818 359.683 155.614 Q364.591 149.364 365.285 136.679 Q362.6 140.66 358.48 142.79 Q354.359 144.92 349.359 144.92 Q338.989 144.92 332.924 138.67 Q326.906 132.373 326.906 121.494 Q326.906 110.846 333.202 104.411 Q339.498 97.9755 349.961 97.9755 Q361.952 97.9755 368.248 107.188 Q374.591 116.355 374.591 133.855 Q374.591 150.197 366.813 159.966 Q359.082 169.688 345.98 169.688 Q342.461 169.688 338.85 168.994 Q335.239 168.299 331.35 166.91 M349.961 137.605 Q356.257 137.605 359.915 133.299 Q363.619 128.994 363.619 121.494 Q363.619 114.04 359.915 109.735 Q356.257 105.383 349.961 105.383 Q343.665 105.383 339.961 109.735 Q336.304 114.04 336.304 121.494 Q336.304 128.994 339.961 133.299 Q343.665 137.605 349.961 137.605 Z" fill="#000000" fill-rule="nonzero" fill-opacity="1" /><path clip-path="url(#clip080)" d="M411.396 105.383 Q404.174 105.383 400.516 112.512 Q396.905 119.596 396.905 133.855 Q396.905 148.068 400.516 155.197 Q404.174 162.281 411.396 162.281 Q418.665 162.281 422.276 155.197 Q425.933 148.068 425.933 133.855 Q425.933 119.596 422.276 112.512 Q418.665 105.383 411.396 105.383 M411.396 97.9755 Q423.016 97.9755 429.127 107.188 Q435.285 116.355 435.285 133.855 Q435.285 151.309 429.127 160.521 Q423.016 169.688 411.396 169.688 Q399.776 169.688 393.618 160.521 Q387.507 151.309 387.507 133.855 Q387.507 116.355 393.618 107.188 Q399.776 97.9755 411.396 97.9755 Z" fill="#000000" fill-rule="nonzero" fill-opacity="1" /><path clip-path="url(#clip080)" d="M451.72 156.586 L461.488 156.586 L461.488 168.345 L451.72 168.345 L451.72 156.586 Z" fill="#000000" fill-rule="nonzero" fill-opacity="1" /><path clip-path="url(#clip080)" d="M501.859 105.383 Q494.636 105.383 490.979 112.512 Q487.368 119.596 487.368 133.855 Q487.368 148.068 490.979 155.197 Q494.636 162.281 501.859 162.281 Q509.127 162.281 512.738 155.197 Q516.396 148.068 516.396 133.855 Q516.396 119.596 512.738 112.512 Q509.127 105.383 501.859 105.383 M501.859 97.9755 Q513.479 97.9755 519.59 107.188 Q525.747 116.355 525.747 133.855 Q525.747 151.309 519.59 160.521 Q513.479 169.688 501.859 169.688 Q490.238 169.688 484.081 160.521 Q477.97 151.309 477.97 133.855 Q477.97 116.355 484.081 107.188 Q490.238 97.9755 501.859 97.9755 Z" fill="#000000" fill-rule="nonzero" fill-opacity="1" /><path clip-path="url(#clip080)" d="M251.699 931.845 L289.512 931.845 L289.512 943.622 L191.098 943.622 L191.098 931.845 L201.92 931.845 Q195.554 928.153 192.498 922.551 Q189.379 916.886 189.379 909.056 Q189.379 896.07 199.692 887.986 Q210.004 879.837 226.809 879.837 Q243.615 879.837 253.927 887.986 Q264.24 896.07 264.24 909.056 Q264.24 916.886 261.184 922.551 Q258.065 928.153 251.699 931.845 M226.809 891.996 Q213.887 891.996 206.567 897.343 Q199.182 902.627 199.182 911.921 Q199.182 921.215 206.567 926.562 Q213.887 931.845 226.809 931.845 Q239.732 931.845 247.116 926.562 Q254.437 921.215 254.437 911.921 Q254.437 902.627 247.116 897.343 Q239.732 891.996 226.809 891.996 Z" fill="#000000" fill-rule="nonzero" fill-opacity="1" /><path clip-path="url(#clip080)" d="M226.555 828.021 Q226.555 842.216 229.801 847.691 Q233.048 853.165 240.878 853.165 Q247.116 853.165 250.808 849.091 Q254.437 844.953 254.437 837.887 Q254.437 828.148 247.562 822.291 Q240.623 816.371 229.165 816.371 L226.555 816.371 L226.555 828.021 M221.717 804.658 L262.394 804.658 L262.394 816.371 L251.572 816.371 Q258.065 820.382 261.184 826.366 Q264.24 832.349 264.24 841.007 Q264.24 851.956 258.129 858.449 Q251.954 864.878 241.642 864.878 Q229.61 864.878 223.499 856.857 Q217.388 848.773 217.388 832.795 L217.388 816.371 L216.242 816.371 Q208.158 816.371 203.766 821.719 Q199.31 827.002 199.31 836.614 Q199.31 842.725 200.774 848.518 Q202.238 854.311 205.166 859.658 L194.344 859.658 Q191.862 853.229 190.652 847.181 Q189.379 841.134 189.379 835.405 Q189.379 819.936 197.4 812.297 Q205.421 804.658 221.717 804.658 Z" fill="#000000" fill-rule="nonzero" fill-opacity="1" /><path clip-path="url(#clip080)" d="M202.047 739.219 Q200.901 741.192 200.392 743.548 Q199.819 745.839 199.819 748.64 Q199.819 758.571 206.312 763.918 Q212.741 769.201 224.836 769.201 L262.394 769.201 L262.394 780.978 L191.098 780.978 L191.098 769.201 L202.174 769.201 Q195.681 765.509 192.562 759.589 Q189.379 753.669 189.379 745.203 Q189.379 743.993 189.57 742.529 Q189.697 741.065 190.016 739.283 L202.047 739.219 Z" fill="#000000" fill-rule="nonzero" fill-opacity="1" /><path clip-path="url(#clip080)" d="M223.818 668.814 L229.547 668.814 L229.547 722.668 Q241.642 721.904 248.007 715.411 Q254.309 708.855 254.309 697.205 Q254.309 690.458 252.654 684.156 Q250.999 677.79 247.689 671.552 L258.765 671.552 Q261.439 677.854 262.839 684.474 Q264.24 691.094 264.24 697.906 Q264.24 714.966 254.309 724.96 Q244.379 734.89 227.446 734.89 Q209.94 734.89 199.692 725.469 Q189.379 715.984 189.379 699.943 Q189.379 685.556 198.673 677.217 Q207.903 668.814 223.818 668.814 M220.38 680.527 Q210.768 680.654 205.039 685.938 Q199.31 691.158 199.31 699.815 Q199.31 709.618 204.848 715.539 Q210.386 721.395 220.444 722.286 L220.38 680.527 Z" fill="#000000" fill-rule="nonzero" fill-opacity="1" /><path clip-path="url(#clip080)" d="M219.362 590.325 L262.394 590.325 L262.394 602.038 L219.744 602.038 Q209.622 602.038 204.593 605.985 Q199.564 609.931 199.564 617.825 Q199.564 627.31 205.612 632.784 Q211.659 638.259 222.099 638.259 L262.394 638.259 L262.394 650.035 L191.098 650.035 L191.098 638.259 L202.174 638.259 Q195.745 634.058 192.562 628.392 Q189.379 622.663 189.379 615.215 Q189.379 602.929 197.018 596.627 Q204.593 590.325 219.362 590.325 Z" fill="#000000" fill-rule="nonzero" fill-opacity="1" /><path clip-path="url(#clip080)" d="M246.225 565.308 L246.225 551.876 L262.394 551.876 L262.394 565.308 L246.225 565.308 Z" fill="#000000" fill-rule="nonzero" fill-opacity="1" /><path clip-path="url(#clip080)" d="M167.354 485.673 L167.354 424.562 L172.828 424.562 L262.394 459.064 L262.394 472.496 L178.175 440.031 L178.175 485.673 L167.354 485.673 Z" fill="#000000" fill-rule="nonzero" fill-opacity="1" /><polyline clip-path="url(#clip082)" style="stroke:#008000; stroke-linecap:round; stroke-linejoin:round; stroke-width:8; stroke-opacity:1; fill:none" points="611.099,1073.68 748.188,799.985 885.276,629.03 1022.36,398.054 1159.45,498.209 1296.54,139.394 1433.63,127.862 1570.72,394.418 1707.81,301.077 1844.89,202.102 1981.98,385.67 2119.07,416.958 2256.16,591.55 "/>
<circle clip-path="url(#clip082)" cx="611.099" cy="1073.68" r="14.4" fill="#008000" fill-rule="evenodd" fill-opacity="1" stroke="#000000" stroke-opacity="1" stroke-width="6.4"/>
<circle clip-path="url(#clip082)" cx="748.188" cy="799.985" r="14.4" fill="#008000" fill-rule="evenodd" fill-opacity="1" stroke="#000000" stroke-opacity="1" stroke-width="6.4"/>
<circle clip-path="url(#clip082)" cx="885.276" cy="629.03" r="14.4" fill="#008000" fill-rule="evenodd" fill-opacity="1" stroke="#000000" stroke-opacity="1" stroke-width="6.4"/>
<circle clip-path="url(#clip082)" cx="1022.36" cy="398.054" r="14.4" fill="#008000" fill-rule="evenodd" fill-opacity="1" stroke="#000000" stroke-opacity="1" stroke-width="6.4"/>
<circle clip-path="url(#clip082)" cx="1159.45" cy="498.209" r="14.4" fill="#008000" fill-rule="evenodd" fill-opacity="1" stroke="#000000" stroke-opacity="1" stroke-width="6.4"/>
<circle clip-path="url(#clip082)" cx="1296.54" cy="139.394" r="14.4" fill="#008000" fill-rule="evenodd" fill-opacity="1" stroke="#000000" stroke-opacity="1" stroke-width="6.4"/>
<circle clip-path="url(#clip082)" cx="1433.63" cy="127.862" r="14.4" fill="#008000" fill-rule="evenodd" fill-opacity="1" stroke="#000000" stroke-opacity="1" stroke-width="6.4"/>
<circle clip-path="url(#clip082)" cx="1570.72" cy="394.418" r="14.4" fill="#008000" fill-rule="evenodd" fill-opacity="1" stroke="#000000" stroke-opacity="1" stroke-width="6.4"/>
<circle clip-path="url(#clip082)" cx="1707.81" cy="301.077" r="14.4" fill="#008000" fill-rule="evenodd" fill-opacity="1" stroke="#000000" stroke-opacity="1" stroke-width="6.4"/>
<circle clip-path="url(#clip082)" cx="1844.89" cy="202.102" r="14.4" fill="#008000" fill-rule="evenodd" fill-opacity="1" stroke="#000000" stroke-opacity="1" stroke-width="6.4"/>
<circle clip-path="url(#clip082)" cx="1981.98" cy="385.67" r="14.4" fill="#008000" fill-rule="evenodd" fill-opacity="1" stroke="#000000" stroke-opacity="1" stroke-width="6.4"/>
<circle clip-path="url(#clip082)" cx="2119.07" cy="416.958" r="14.4" fill="#008000" fill-rule="evenodd" fill-opacity="1" stroke="#000000" stroke-opacity="1" stroke-width="6.4"/>
<circle clip-path="url(#clip082)" cx="2256.16" cy="591.55" r="14.4" fill="#008000" fill-rule="evenodd" fill-opacity="1" stroke="#000000" stroke-opacity="1" stroke-width="6.4"/>
<polyline clip-path="url(#clip082)" style="stroke:#00008b; stroke-linecap:round; stroke-linejoin:round; stroke-width:8; stroke-opacity:1; fill:none" points="611.099,1078 748.188,859.301 885.276,738.069 1022.36,665.629 1159.45,601.607 1296.54,560.615 1433.63,533.392 1570.72,509.48 1707.81,511.82 1844.89,528.808 1981.98,542.084 2119.07,579.732 2256.16,598.292 "/>
<path clip-path="url(#clip082)" d="M611.099 1240.32 L748.188 1007.35 L885.276 892.167 L1022.36 815.009 L1159.45 760.535 L1296.54 714.869 L1433.63 681.551 L1570.72 670.657 L1707.81 665.002 L1844.89 680.174 L1981.98 701.251 L2119.07 740.022 L2256.16 751.84 L2256.16 441.51 L2119.07 423.198 L1981.98 388.782 L1844.89 370.856 L1707.81 360.087 L1570.72 349.181 L1433.63 377.613 L1296.54 403.045 L1159.45 427.557 L1022.36 517.153 L885.276 591.41 L748.188 711.218 L611.099 925.161  Z" fill="#0000ff" fill-rule="evenodd" fill-opacity="0.1"/>
<polyline clip-path="url(#clip082)" style="stroke:#0000ff; stroke-linecap:round; stroke-linejoin:round; stroke-width:0; stroke-opacity:0.1; fill:none" points="611.099,1240.32 748.188,1007.35 885.276,892.167 1022.36,815.009 1159.45,760.535 1296.54,714.869 1433.63,681.551 1570.72,670.657 1707.81,665.002 1844.89,680.174 1981.98,701.251 2119.07,740.022 2256.16,751.84 "/>
</svg>
