<?xml version="1.0" encoding="utf-8"?>
<svg xmlns="http://www.w3.org/2000/svg" xmlns:xlink="http://www.w3.org/1999/xlink" width="600" height="400" viewBox="0 0 2400 1600">
<defs>
  <clipPath id="clip110">
    <rect x="0" y="0" width="2400" height="1600"/>
  </clipPath>
</defs>
<path clip-path="url(#clip110)" d="M0 1600 L2400 1600 L2400 0 L0 0  Z" fill="#ffffff" fill-rule="evenodd" fill-opacity="1"/>
<defs>
  <clipPath id="clip111">
    <rect x="480" y="0" width="1681" height="1600"/>
  </clipPath>
</defs>
<path clip-path="url(#clip110)" d="M561.747 1273.7 L2305.51 1273.7 L2305.51 94.4882 L561.747 94.4882  Z" fill="#ffffff" fill-rule="evenodd" fill-opacity="1"/>
<defs>
  <clipPath id="clip112">
    <rect x="561" y="94" width="1745" height="1180"/>
  </clipPath>
</defs>
<polyline clip-path="url(#clip112)" style="stroke:#000000; stroke-linecap:round; stroke-linejoin:round; stroke-width:4; stroke-opacity:0.1; fill:none" points="611.099,1273.7 611.099,94.4882 "/>
<polyline clip-path="url(#clip112)" style="stroke:#000000; stroke-linecap:round; stroke-linejoin:round; stroke-width:4; stroke-opacity:0.1; fill:none" points="953.82,1273.7 953.82,94.4882 "/>
<polyline clip-path="url(#clip112)" style="stroke:#000000; stroke-linecap:round; stroke-linejoin:round; stroke-width:4; stroke-opacity:0.1; fill:none" points="1296.54,1273.7 1296.54,94.4882 "/>
<polyline clip-path="url(#clip112)" style="stroke:#000000; stroke-linecap:round; stroke-linejoin:round; stroke-width:4; stroke-opacity:0.1; fill:none" points="1639.26,1273.7 1639.26,94.4882 "/>
<polyline clip-path="url(#clip112)" style="stroke:#000000; stroke-linecap:round; stroke-linejoin:round; stroke-width:4; stroke-opacity:0.1; fill:none" points="1981.98,1273.7 1981.98,94.4882 "/>
<polyline clip-path="url(#clip110)" style="stroke:#000000; stroke-linecap:round; stroke-linejoin:round; stroke-width:8; stroke-opacity:1; fill:none" points="561.747,1273.7 2305.51,1273.7 "/>
<polyline clip-path="url(#clip110)" style="stroke:#000000; stroke-linecap:round; stroke-linejoin:round; stroke-width:8; stroke-opacity:1; fill:none" points="611.099,1273.7 611.099,1254.8 "/>
<polyline clip-path="url(#clip110)" style="stroke:#000000; stroke-linecap:round; stroke-linejoin:round; stroke-width:8; stroke-opacity:1; fill:none" points="953.82,1273.7 953.82,1254.8 "/>
<polyline clip-path="url(#clip110)" style="stroke:#000000; stroke-linecap:round; stroke-linejoin:round; stroke-width:8; stroke-opacity:1; fill:none" points="1296.54,1273.7 1296.54,1254.8 "/>
<polyline clip-path="url(#clip110)" style="stroke:#000000; stroke-linecap:round; stroke-linejoin:round; stroke-width:8; stroke-opacity:1; fill:none" points="1639.26,1273.7 1639.26,1254.8 "/>
<polyline clip-path="url(#clip110)" style="stroke:#000000; stroke-linecap:round; stroke-linejoin:round; stroke-width:8; stroke-opacity:1; fill:none" points="1981.98,1273.7 1981.98,1254.8 "/>
<path clip-path="url(#clip110)" d="M535.706 1316.33 Q528.484 1316.33 524.826 1323.46 Q521.215 1330.55 521.215 1344.81 Q521.215 1359.02 524.826 1366.15 Q528.484 1373.23 535.706 1373.23 Q542.974 1373.23 546.586 1366.15 Q550.243 1359.02 550.243 1344.81 Q550.243 1330.55 546.586 1323.46 Q542.974 1316.33 535.706 1316.33 M535.706 1308.93 Q547.326 1308.93 553.437 1318.14 Q559.595 1327.31 559.595 1344.81 Q559.595 1362.26 553.437 1371.47 Q547.326 1380.64 535.706 1380.64 Q524.086 1380.64 517.928 1371.47 Q511.817 1362.26 511.817 1344.81 Q511.817 1327.31 517.928 1318.14 Q524.086 1308.93 535.706 1308.93 Z" fill="#000000" fill-rule="nonzero" fill-opacity="1" /><path clip-path="url(#clip110)" d="M576.03 1367.54 L585.798 1367.54 L585.798 1379.3 L576.03 1379.3 L576.03 1367.54 Z" fill="#000000" fill-rule="nonzero" fill-opacity="1" /><path clip-path="url(#clip110)" d="M626.168 1316.33 Q618.946 1316.33 615.289 1323.46 Q611.678 1330.55 611.678 1344.81 Q611.678 1359.02 615.289 1366.15 Q618.946 1373.23 626.168 1373.23 Q633.437 1373.23 637.048 1366.15 Q640.705 1359.02 640.705 1344.81 Q640.705 1330.55 637.048 1323.46 Q633.437 1316.33 626.168 1316.33 M626.168 1308.93 Q637.789 1308.93 643.9 1318.14 Q650.057 1327.31 650.057 1344.81 Q650.057 1362.26 643.9 1371.47 Q637.789 1380.64 626.168 1380.64 Q614.548 1380.64 608.391 1371.47 Q602.28 1362.26 602.28 1344.81 Q602.28 1327.31 608.391 1318.14 Q614.548 1308.93 626.168 1308.93 Z" fill="#000000" fill-rule="nonzero" fill-opacity="1" /><path clip-path="url(#clip110)" d="M686.492 1316.33 Q679.27 1316.33 675.613 1323.46 Q672.002 1330.55 672.002 1344.81 Q672.002 1359.02 675.613 1366.15 Q679.27 1373.23 686.492 1373.23 Q693.761 1373.23 697.372 1366.15 Q701.029 1359.02 701.029 1344.81 Q701.029 1330.55 697.372 1323.46 Q693.761 1316.33 686.492 1316.33 M686.492 1308.93 Q698.113 1308.93 704.224 1318.14 Q710.381 1327.31 710.381 1344.81 Q710.381 1362.26 704.224 1371.47 Q698.113 1380.64 686.492 1380.64 Q674.872 1380.64 668.715 1371.47 Q662.603 1362.26 662.603 1344.81 Q662.603 1327.31 668.715 1318.14 Q674.872 1308.93 686.492 1308.93 Z" fill="#000000" fill-rule="nonzero" fill-opacity="1" /><path clip-path="url(#clip110)" d="M879.422 1316.33 Q872.2 1316.33 868.543 1323.46 Q864.932 1330.55 864.932 1344.81 Q864.932 1359.02 868.543 1366.15 Q872.2 1373.23 879.422 1373.23 Q886.691 1373.23 890.302 1366.15 Q893.959 1359.02 893.959 1344.81 Q893.959 1330.55 890.302 1323.46 Q886.691 1316.33 879.422 1316.33 M879.422 1308.93 Q891.043 1308.93 897.154 1318.14 Q903.311 1327.31 903.311 1344.81 Q903.311 1362.26 897.154 1371.47 Q891.043 1380.64 879.422 1380.64 Q867.802 1380.64 861.645 1371.47 Q855.534 1362.26 855.534 1344.81 Q855.534 1327.31 861.645 1318.14 Q867.802 1308.93 879.422 1308.93 Z" fill="#000000" fill-rule="nonzero" fill-opacity="1" /><path clip-path="url(#clip110)" d="M919.746 1367.54 L929.515 1367.54 L929.515 1379.3 L919.746 1379.3 L919.746 1367.54 Z" fill="#000000" fill-rule="nonzero" fill-opacity="1" /><path clip-path="url(#clip110)" d="M957.94 1371.43 L990.579 1371.43 L990.579 1379.3 L946.691 1379.3 L946.691 1371.43 Q952.015 1365.92 961.181 1356.66 Q970.394 1347.35 972.755 1344.67 Q977.246 1339.62 979.005 1336.15 Q980.811 1332.63 980.811 1329.25 Q980.811 1323.74 976.922 1320.27 Q973.079 1316.8 966.876 1316.8 Q962.478 1316.8 957.57 1318.32 Q952.709 1319.85 947.154 1322.95 L947.154 1313.51 Q952.802 1311.24 957.709 1310.08 Q962.616 1308.93 966.69 1308.93 Q977.431 1308.93 983.82 1314.3 Q990.209 1319.67 990.209 1328.65 Q990.209 1332.91 988.588 1336.75 Q987.014 1340.55 982.801 1345.73 Q981.644 1347.07 975.44 1353.51 Q969.237 1359.9 957.94 1371.43 Z" fill="#000000" fill-rule="nonzero" fill-opacity="1" /><path clip-path="url(#clip110)" d="M1010.3 1310.18 L1047.01 1310.18 L1047.01 1318.05 L1018.87 1318.05 L1018.87 1334.99 Q1020.9 1334.3 1022.94 1333.97 Q1024.98 1333.6 1027.01 1333.6 Q1038.59 1333.6 1045.35 1339.94 Q1052.11 1346.29 1052.11 1357.12 Q1052.11 1368.28 1045.16 1374.48 Q1038.22 1380.64 1025.58 1380.64 Q1021.23 1380.64 1016.69 1379.9 Q1012.2 1379.16 1007.38 1377.68 L1007.38 1368.28 Q1011.55 1370.55 1016 1371.66 Q1020.44 1372.77 1025.39 1372.77 Q1033.4 1372.77 1038.08 1368.56 Q1042.75 1364.34 1042.75 1357.12 Q1042.75 1349.9 1038.08 1345.68 Q1033.4 1341.47 1025.39 1341.47 Q1021.64 1341.47 1017.89 1342.31 Q1014.19 1343.14 1010.3 1344.9 L1010.3 1310.18 Z" fill="#000000" fill-rule="nonzero" fill-opacity="1" /><path clip-path="url(#clip110)" d="M1221.15 1316.33 Q1213.93 1316.33 1210.27 1323.46 Q1206.66 1330.55 1206.66 1344.81 Q1206.66 1359.02 1210.27 1366.15 Q1213.93 1373.23 1221.15 1373.23 Q1228.42 1373.23 1232.03 1366.15 Q1235.68 1359.02 1235.68 1344.81 Q1235.68 1330.55 1232.03 1323.46 Q1228.42 1316.33 1221.15 1316.33 M1221.15 1308.93 Q1232.77 1308.93 1238.88 1318.14 Q1245.04 1327.31 1245.04 1344.81 Q1245.04 1362.26 1238.88 1371.47 Q1232.77 1380.64 1221.15 1380.64 Q1209.53 1380.64 1203.37 1371.47 Q1197.26 1362.26 1197.26 1344.81 Q1197.26 1327.31 1203.37 1318.14 Q1209.53 1308.93 1221.15 1308.93 Z" fill="#000000" fill-rule="nonzero" fill-opacity="1" /><path clip-path="url(#clip110)" d="M1261.47 1367.54 L1271.24 1367.54 L1271.24 1379.3 L1261.47 1379.3 L1261.47 1367.54 Z" fill="#000000" fill-rule="nonzero" fill-opacity="1" /><path clip-path="url(#clip110)" d="M1291.7 1310.18 L1328.42 1310.18 L1328.42 1318.05 L1300.27 1318.05 L1300.27 1334.99 Q1302.31 1334.3 1304.34 1333.97 Q1306.38 1333.6 1308.42 1333.6 Q1319.99 1333.6 1326.75 1339.94 Q1333.51 1346.29 1333.51 1357.12 Q1333.51 1368.28 1326.56 1374.48 Q1319.62 1380.64 1306.98 1380.64 Q1302.63 1380.64 1298.09 1379.9 Q1293.6 1379.16 1288.79 1377.68 L1288.79 1368.28 Q1292.95 1370.55 1297.4 1371.66 Q1301.84 1372.77 1306.8 1372.77 Q1314.8 1372.77 1319.48 1368.56 Q1324.16 1364.34 1324.16 1357.12 Q1324.16 1349.9 1319.48 1345.68 Q1314.8 1341.47 1306.8 1341.47 Q1303.05 1341.47 1299.3 1342.31 Q1295.59 1343.14 1291.7 1344.9 L1291.7 1310.18 Z" fill="#000000" fill-rule="nonzero" fill-opacity="1" /><path clip-path="url(#clip110)" d="M1371.93 1316.33 Q1364.71 1316.33 1361.05 1323.46 Q1357.44 1330.55 1357.44 1344.81 Q1357.44 1359.02 1361.05 1366.15 Q1364.71 1373.23 1371.93 1373.23 Q1379.2 1373.23 1382.81 1366.15 Q1386.47 1359.02 1386.47 1344.81 Q1386.47 1330.55 1382.81 1323.46 Q1379.2 1316.33 1371.93 1316.33 M1371.93 1308.93 Q1383.55 1308.93 1389.67 1318.14 Q1395.82 1327.31 1395.82 1344.81 Q1395.82 1362.26 1389.67 1371.47 Q1383.55 1380.64 1371.93 1380.64 Q1360.31 1380.64 1354.16 1371.47 Q1348.05 1362.26 1348.05 1344.81 Q1348.05 1327.31 1354.16 1318.14 Q1360.31 1308.93 1371.93 1308.93 Z" fill="#000000" fill-rule="nonzero" fill-opacity="1" /><path clip-path="url(#clip110)" d="M1564.86 1316.33 Q1557.64 1316.33 1553.98 1323.46 Q1550.37 1330.55 1550.37 1344.81 Q1550.37 1359.02 1553.98 1366.15 Q1557.64 1373.23 1564.86 1373.23 Q1572.13 1373.23 1575.74 1366.15 Q1579.4 1359.02 1579.4 1344.81 Q1579.4 1330.55 1575.74 1323.46 Q1572.13 1316.33 1564.86 1316.33 M1564.86 1308.93 Q1576.48 1308.93 1582.6 1318.14 Q1588.75 1327.31 1588.75 1344.81 Q1588.75 1362.26 1582.6 1371.47 Q1576.48 1380.64 1564.86 1380.64 Q1553.24 1380.64 1547.09 1371.47 Q1540.98 1362.26 1540.98 1344.81 Q1540.98 1327.31 1547.09 1318.14 Q1553.24 1308.93 1564.86 1308.93 Z" fill="#000000" fill-rule="nonzero" fill-opacity="1" /><path clip-path="url(#clip110)" d="M1605.19 1367.54 L1614.96 1367.54 L1614.96 1379.3 L1605.19 1379.3 L1605.19 1367.54 Z" fill="#000000" fill-rule="nonzero" fill-opacity="1" /><path clip-path="url(#clip110)" d="M1632.97 1310.18 L1677.41 1310.18 L1677.41 1314.16 L1652.32 1379.3 L1642.55 1379.3 L1666.16 1318.05 L1632.97 1318.05 L1632.97 1310.18 Z" fill="#000000" fill-rule="nonzero" fill-opacity="1" /><path clip-path="url(#clip110)" d="M1695.74 1310.18 L1732.46 1310.18 L1732.46 1318.05 L1704.31 1318.05 L1704.31 1334.99 Q1706.35 1334.3 1708.38 1333.97 Q1710.42 1333.6 1712.46 1333.6 Q1724.03 1333.6 1730.79 1339.94 Q1737.55 1346.29 1737.55 1357.12 Q1737.55 1368.28 1730.6 1374.48 Q1723.66 1380.64 1711.02 1380.64 Q1706.67 1380.64 1702.13 1379.9 Q1697.64 1379.16 1692.83 1377.68 L1692.83 1368.28 Q1696.99 1370.55 1701.44 1371.66 Q1705.88 1372.77 1710.84 1372.77 Q1718.85 1372.77 1723.52 1368.56 Q1728.2 1364.34 1728.2 1357.12 Q1728.2 1349.9 1723.52 1345.68 Q1718.85 1341.47 1710.84 1341.47 Q1707.09 1341.47 1703.34 1342.31 Q1699.63 1343.14 1695.74 1344.9 L1695.74 1310.18 Z" fill="#000000" fill-rule="nonzero" fill-opacity="1" /><path clip-path="url(#clip110)" d="M1886.13 1371.43 L1901.4 1371.43 L1901.4 1318.69 L1884.78 1322.03 L1884.78 1313.51 L1901.31 1310.18 L1910.66 1310.18 L1910.66 1371.43 L1925.94 1371.43 L1925.94 1379.3 L1886.13 1379.3 L1886.13 1371.43 Z" fill="#000000" fill-rule="nonzero" fill-opacity="1" /><path clip-path="url(#clip110)" d="M1944.83 1367.54 L1954.6 1367.54 L1954.6 1379.3 L1944.83 1379.3 L1944.83 1367.54 Z" fill="#000000" fill-rule="nonzero" fill-opacity="1" /><path clip-path="url(#clip110)" d="M1994.97 1316.33 Q1987.75 1316.33 1984.09 1323.46 Q1980.48 1330.55 1980.48 1344.81 Q1980.48 1359.02 1984.09 1366.15 Q1987.75 1373.23 1994.97 1373.23 Q2002.24 1373.23 2005.85 1366.15 Q2009.51 1359.02 2009.51 1344.81 Q2009.51 1330.55 2005.85 1323.46 Q2002.24 1316.33 1994.97 1316.33 M1994.97 1308.93 Q2006.59 1308.93 2012.7 1318.14 Q2018.86 1327.31 2018.86 1344.81 Q2018.86 1362.26 2012.7 1371.47 Q2006.59 1380.64 1994.97 1380.64 Q1983.35 1380.64 1977.19 1371.47 Q1971.08 1362.26 1971.08 1344.81 Q1971.08 1327.31 1977.19 1318.14 Q1983.35 1308.93 1994.97 1308.93 Z" fill="#000000" fill-rule="nonzero" fill-opacity="1" /><path clip-path="url(#clip110)" d="M2055.29 1316.33 Q2048.07 1316.33 2044.41 1323.46 Q2040.8 1330.55 2040.8 1344.81 Q2040.8 1359.02 2044.41 1366.15 Q2048.07 1373.23 2055.29 1373.23 Q2062.56 1373.23 2066.17 1366.15 Q2069.83 1359.02 2069.83 1344.81 Q2069.83 1330.55 2066.17 1323.46 Q2062.56 1316.33 2055.29 1316.33 M2055.29 1308.93 Q2066.91 1308.93 2073.02 1318.14 Q2079.18 1327.31 2079.18 1344.81 Q2079.18 1362.26 2073.02 1371.47 Q2066.91 1380.64 2055.29 1380.64 Q2043.67 1380.64 2037.52 1371.47 Q2031.4 1362.26 2031.4 1344.81 Q2031.4 1327.31 2037.52 1318.14 Q2043.67 1308.93 2055.29 1308.93 Z" fill="#000000" fill-rule="nonzero" fill-opacity="1" /><path clip-path="url(#clip110)" d="M1319.17 1484.39 L1319.17 1527.42 L1307.46 1527.42 L1307.46 1484.77 Q1307.46 1474.65 1303.51 1469.62 Q1299.57 1464.59 1291.67 1464.59 Q1282.19 1464.59 1276.71 1470.64 Q1271.24 1476.69 1271.24 1487.13 L1271.24 1527.42 L1259.46 1527.42 L1259.46 1428.37 L1271.24 1428.37 L1271.24 1467.2 Q1275.44 1460.77 1281.11 1457.59 Q1286.84 1454.41 1294.28 1454.41 Q1306.57 1454.41 1312.87 1462.05 Q1319.17 1469.62 1319.17 1484.39 Z" fill="#000000" fill-rule="nonzero" fill-opacity="1" /><path clip-path="url(#clip110)" d="M1370.16 1464.34 Q1360.74 1464.34 1355.27 1471.72 Q1349.79 1479.04 1349.79 1491.84 Q1349.79 1504.63 1355.2 1512.02 Q1360.68 1519.34 1370.16 1519.34 Q1379.52 1519.34 1385 1511.96 Q1390.47 1504.57 1390.47 1491.84 Q1390.47 1479.17 1385 1471.79 Q1379.52 1464.34 1370.16 1464.34 M1370.16 1454.41 Q1385.44 1454.41 1394.16 1464.34 Q1402.88 1474.27 1402.88 1491.84 Q1402.88 1509.35 1394.16 1519.34 Q1385.44 1529.27 1370.16 1529.27 Q1354.82 1529.27 1346.1 1519.34 Q1337.44 1509.35 1337.44 1491.84 Q1337.44 1474.27 1346.1 1464.34 Q1354.82 1454.41 1370.16 1454.41 Z" fill="#000000" fill-rule="nonzero" fill-opacity="1" /><path clip-path="url(#clip110)" d="M1421.09 1499.29 L1421.09 1456.13 L1432.8 1456.13 L1432.8 1498.84 Q1432.8 1508.96 1436.75 1514.06 Q1440.7 1519.08 1448.59 1519.08 Q1458.07 1519.08 1463.55 1513.04 Q1469.09 1506.99 1469.09 1496.55 L1469.09 1456.13 L1480.8 1456.13 L1480.8 1527.42 L1469.09 1527.42 L1469.09 1516.47 Q1464.82 1522.97 1459.16 1526.15 Q1453.55 1529.27 1446.11 1529.27 Q1433.82 1529.27 1427.45 1521.63 Q1421.09 1513.99 1421.09 1499.29 M1450.56 1454.41 L1450.56 1454.41 Z" fill="#000000" fill-rule="nonzero" fill-opacity="1" /><path clip-path="url(#clip110)" d="M1546.24 1467.08 Q1544.27 1465.93 1541.91 1465.42 Q1539.62 1464.85 1536.82 1464.85 Q1526.89 1464.85 1521.54 1471.34 Q1516.26 1477.77 1516.26 1489.87 L1516.26 1527.42 L1504.48 1527.42 L1504.48 1456.13 L1516.26 1456.13 L1516.26 1467.2 Q1519.95 1460.71 1525.87 1457.59 Q1531.79 1454.41 1540.26 1454.41 Q1541.46 1454.41 1542.93 1454.6 Q1544.39 1454.73 1546.18 1455.05 L1546.24 1467.08 Z" fill="#000000" fill-rule="nonzero" fill-opacity="1" /><path clip-path="url(#clip110)" d="M1603.98 1458.23 L1603.98 1469.3 Q1599.01 1466.76 1593.66 1465.49 Q1588.32 1464.21 1582.59 1464.21 Q1573.87 1464.21 1569.47 1466.89 Q1565.15 1469.56 1565.15 1474.91 Q1565.15 1478.98 1568.26 1481.34 Q1571.38 1483.63 1580.8 1485.73 L1584.82 1486.62 Q1597.29 1489.29 1602.51 1494.19 Q1607.8 1499.03 1607.8 1507.75 Q1607.8 1517.68 1599.9 1523.48 Q1592.07 1529.27 1578.32 1529.27 Q1572.59 1529.27 1566.35 1528.12 Q1560.18 1527.04 1553.3 1524.81 L1553.3 1512.72 Q1559.8 1516.09 1566.1 1517.81 Q1572.4 1519.47 1578.58 1519.47 Q1586.85 1519.47 1591.31 1516.67 Q1595.76 1513.8 1595.76 1508.64 Q1595.76 1503.87 1592.52 1501.32 Q1589.33 1498.78 1578.45 1496.42 L1574.38 1495.47 Q1563.49 1493.18 1558.65 1488.47 Q1553.81 1483.69 1553.81 1475.42 Q1553.81 1465.36 1560.94 1459.88 Q1568.07 1454.41 1581.19 1454.41 Q1587.68 1454.41 1593.41 1455.36 Q1599.14 1456.32 1603.98 1458.23 Z" fill="#000000" fill-rule="nonzero" fill-opacity="1" /><polyline clip-path="url(#clip112)" style="stroke:#000000; stroke-linecap:round; stroke-linejoin:round; stroke-width:4; stroke-opacity:0.1; fill:none" points="561.747,1267.3 2305.51,1267.3 "/>
<polyline clip-path="url(#clip112)" style="stroke:#000000; stroke-linecap:round; stroke-linejoin:round; stroke-width:4; stroke-opacity:0.1; fill:none" points="561.747,939.501 2305.51,939.501 "/>
<polyline clip-path="url(#clip112)" style="stroke:#000000; stroke-linecap:round; stroke-linejoin:round; stroke-width:4; stroke-opacity:0.1; fill:none" points="561.747,611.699 2305.51,611.699 "/>
<polyline clip-path="url(#clip112)" style="stroke:#000000; stroke-linecap:round; stroke-linejoin:round; stroke-width:4; stroke-opacity:0.1; fill:none" points="561.747,283.897 2305.51,283.897 "/>
<polyline clip-path="url(#clip110)" style="stroke:#000000; stroke-linecap:round; stroke-linejoin:round; stroke-width:8; stroke-opacity:1; fill:none" points="561.747,1273.7 561.747,94.4882 "/>
<polyline clip-path="url(#clip110)" style="stroke:#000000; stroke-linecap:round; stroke-linejoin:round; stroke-width:8; stroke-opacity:1; fill:none" points="561.747,1267.3 580.645,1267.3 "/>
<polyline clip-path="url(#clip110)" style="stroke:#000000; stroke-linecap:round; stroke-linejoin:round; stroke-width:8; stroke-opacity:1; fill:none" points="561.747,939.501 580.645,939.501 "/>
<polyline clip-path="url(#clip110)" style="stroke:#000000; stroke-linecap:round; stroke-linejoin:round; stroke-width:8; stroke-opacity:1; fill:none" points="561.747,611.699 580.645,611.699 "/>
<polyline clip-path="url(#clip110)" style="stroke:#000000; stroke-linecap:round; stroke-linejoin:round; stroke-width:8; stroke-opacity:1; fill:none" points="561.747,283.897 580.645,283.897 "/>
<path clip-path="url(#clip110)" d="M351.072 1269.04 Q344.406 1269.04 340.563 1272.6 Q336.767 1276.17 336.767 1282.42 Q336.767 1288.67 340.563 1292.23 Q344.406 1295.8 351.072 1295.8 Q357.739 1295.8 361.582 1292.23 Q365.424 1288.62 365.424 1282.42 Q365.424 1276.17 361.582 1272.6 Q357.785 1269.04 351.072 1269.04 M341.721 1265.06 Q335.702 1263.58 332.322 1259.46 Q328.989 1255.33 328.989 1249.41 Q328.989 1241.12 334.869 1236.31 Q340.795 1231.49 351.072 1231.49 Q361.396 1231.49 367.276 1236.31 Q373.156 1241.12 373.156 1249.41 Q373.156 1255.33 369.776 1259.46 Q366.443 1263.58 360.47 1265.06 Q367.23 1266.63 370.98 1271.21 Q374.776 1275.8 374.776 1282.42 Q374.776 1292.46 368.619 1297.83 Q362.507 1303.2 351.072 1303.2 Q339.637 1303.2 333.48 1297.83 Q327.369 1292.46 327.369 1282.42 Q327.369 1275.8 331.165 1271.21 Q334.961 1266.63 341.721 1265.06 M338.295 1250.29 Q338.295 1255.66 341.628 1258.67 Q345.008 1261.68 351.072 1261.68 Q357.091 1261.68 360.47 1258.67 Q363.896 1255.66 363.896 1250.29 Q363.896 1244.92 360.47 1241.91 Q357.091 1238.9 351.072 1238.9 Q345.008 1238.9 341.628 1241.91 Q338.295 1244.92 338.295 1250.29 Z" fill="#000000" fill-rule="nonzero" fill-opacity="1" /><path clip-path="url(#clip110)" d="M411.396 1238.9 Q404.174 1238.9 400.516 1246.03 Q396.905 1253.11 396.905 1267.37 Q396.905 1281.58 400.516 1288.71 Q404.174 1295.8 411.396 1295.8 Q418.665 1295.8 422.276 1288.71 Q425.933 1281.58 425.933 1267.37 Q425.933 1253.11 422.276 1246.03 Q418.665 1238.9 411.396 1238.9 M411.396 1231.49 Q423.016 1231.49 429.127 1240.71 Q435.285 1249.87 435.285 1267.37 Q435.285 1284.83 429.127 1294.04 Q423.016 1303.2 411.396 1303.2 Q399.776 1303.2 393.618 1294.04 Q387.507 1284.83 387.507 1267.37 Q387.507 1249.87 393.618 1240.71 Q399.776 1231.49 411.396 1231.49 Z" fill="#000000" fill-rule="nonzero" fill-opacity="1" /><path clip-path="url(#clip110)" d="M451.72 1290.1 L461.488 1290.1 L461.488 1301.86 L451.72 1301.86 L451.72 1290.1 Z" fill="#000000" fill-rule="nonzero" fill-opacity="1" /><path clip-path="url(#clip110)" d="M501.859 1238.9 Q494.636 1238.9 490.979 1246.03 Q487.368 1253.11 487.368 1267.37 Q487.368 1281.58 490.979 1288.71 Q494.636 1295.8 501.859 1295.8 Q509.127 1295.8 512.738 1288.71 Q516.396 1281.58 516.396 1267.37 Q516.396 1253.11 512.738 1246.03 Q509.127 1238.9 501.859 1238.9 M501.859 1231.49 Q513.479 1231.49 519.59 1240.71 Q525.747 1249.87 525.747 1267.37 Q525.747 1284.83 519.59 1294.04 Q513.479 1303.2 501.859 1303.2 Q490.238 1303.2 484.081 1294.04 Q477.97 1284.83 477.97 1267.37 Q477.97 1249.87 484.081 1240.71 Q490.238 1231.49 501.859 1231.49 Z" fill="#000000" fill-rule="nonzero" fill-opacity="1" /><path clip-path="url(#clip110)" d="M351.072 941.237 Q344.406 941.237 340.563 944.801 Q336.767 948.366 336.767 954.616 Q336.767 960.866 340.563 964.431 Q344.406 967.996 351.072 967.996 Q357.739 967.996 361.582 964.431 Q365.424 960.82 365.424 954.616 Q365.424 948.366 361.582 944.801 Q357.785 941.237 351.072 941.237 M341.721 937.255 Q335.702 935.774 332.322 931.653 Q328.989 927.533 328.989 921.607 Q328.989 913.32 334.869 908.505 Q340.795 903.691 351.072 903.691 Q361.396 903.691 367.276 908.505 Q373.156 913.32 373.156 921.607 Q373.156 927.533 369.776 931.653 Q366.443 935.774 360.47 937.255 Q367.23 938.829 370.98 943.413 Q374.776 947.996 374.776 954.616 Q374.776 964.662 368.619 970.033 Q362.507 975.403 351.072 975.403 Q339.637 975.403 333.48 970.033 Q327.369 964.662 327.369 954.616 Q327.369 947.996 331.165 943.413 Q334.961 938.829 341.721 937.255 M338.295 922.487 Q338.295 927.857 341.628 930.866 Q345.008 933.876 351.072 933.876 Q357.091 933.876 360.47 930.866 Q363.896 927.857 363.896 922.487 Q363.896 917.116 360.47 914.107 Q357.091 911.098 351.072 911.098 Q345.008 911.098 341.628 914.107 Q338.295 917.116 338.295 922.487 Z" fill="#000000" fill-rule="nonzero" fill-opacity="1" /><path clip-path="url(#clip110)" d="M391.489 904.941 L428.202 904.941 L428.202 912.811 L400.054 912.811 L400.054 929.755 Q402.091 929.061 404.128 928.737 Q406.165 928.366 408.202 928.366 Q419.776 928.366 426.535 934.709 Q433.294 941.051 433.294 951.885 Q433.294 963.042 426.35 969.246 Q419.405 975.403 406.766 975.403 Q402.415 975.403 397.878 974.662 Q393.387 973.922 388.572 972.44 L388.572 963.042 Q392.739 965.311 397.183 966.422 Q401.628 967.533 406.581 967.533 Q414.59 967.533 419.266 963.32 Q423.942 959.107 423.942 951.885 Q423.942 944.663 419.266 940.45 Q414.59 936.237 406.581 936.237 Q402.831 936.237 399.081 937.07 Q395.378 937.903 391.489 939.663 L391.489 904.941 Z" fill="#000000" fill-rule="nonzero" fill-opacity="1" /><path clip-path="url(#clip110)" d="M451.72 962.301 L461.488 962.301 L461.488 974.061 L451.72 974.061 L451.72 962.301 Z" fill="#000000" fill-rule="nonzero" fill-opacity="1" /><path clip-path="url(#clip110)" d="M501.859 911.098 Q494.636 911.098 490.979 918.227 Q487.368 925.311 487.368 939.57 Q487.368 953.783 490.979 960.912 Q494.636 967.996 501.859 967.996 Q509.127 967.996 512.738 960.912 Q516.396 953.783 516.396 939.57 Q516.396 925.311 512.738 918.227 Q509.127 911.098 501.859 911.098 M501.859 903.691 Q513.479 903.691 519.59 912.903 Q525.747 922.07 525.747 939.57 Q525.747 957.024 519.59 966.236 Q513.479 975.403 501.859 975.403 Q490.238 975.403 484.081 966.236 Q477.97 957.024 477.97 939.57 Q477.97 922.07 484.081 912.903 Q490.238 903.691 501.859 903.691 Z" fill="#000000" fill-rule="nonzero" fill-opacity="1" /><path clip-path="url(#clip110)" d="M331.35 644.824 L331.35 636.305 Q334.869 637.972 338.48 638.851 Q342.091 639.731 345.563 639.731 Q354.822 639.731 359.683 633.527 Q364.591 627.277 365.285 614.592 Q362.6 618.574 358.48 620.703 Q354.359 622.833 349.359 622.833 Q338.989 622.833 332.924 616.583 Q326.906 610.287 326.906 599.407 Q326.906 588.759 333.202 582.324 Q339.498 575.889 349.961 575.889 Q361.952 575.889 368.248 585.102 Q374.591 594.268 374.591 611.768 Q374.591 628.111 366.813 637.879 Q359.082 647.601 345.98 647.601 Q342.461 647.601 338.85 646.907 Q335.239 646.212 331.35 644.824 M349.961 615.518 Q356.257 615.518 359.915 611.213 Q363.619 606.907 363.619 599.407 Q363.619 591.953 359.915 587.648 Q356.257 583.296 349.961 583.296 Q343.665 583.296 339.961 587.648 Q336.304 591.953 336.304 599.407 Q336.304 606.907 339.961 611.213 Q343.665 615.518 349.961 615.518 Z" fill="#000000" fill-rule="nonzero" fill-opacity="1" /><path clip-path="url(#clip110)" d="M411.396 583.296 Q404.174 583.296 400.516 590.426 Q396.905 597.509 396.905 611.768 Q396.905 625.981 400.516 633.111 Q404.174 640.194 411.396 640.194 Q418.665 640.194 422.276 633.111 Q425.933 625.981 425.933 611.768 Q425.933 597.509 422.276 590.426 Q418.665 583.296 411.396 583.296 M411.396 575.889 Q423.016 575.889 429.127 585.102 Q435.285 594.268 435.285 611.768 Q435.285 629.222 429.127 638.435 Q423.016 647.601 411.396 647.601 Q399.776 647.601 393.618 638.435 Q387.507 629.222 387.507 611.768 Q387.507 594.268 393.618 585.102 Q399.776 575.889 411.396 575.889 Z" fill="#000000" fill-rule="nonzero" fill-opacity="1" /><path clip-path="url(#clip110)" d="M451.72 634.5 L461.488 634.5 L461.488 646.259 L451.72 646.259 L451.72 634.5 Z" fill="#000000" fill-rule="nonzero" fill-opacity="1" /><path clip-path="url(#clip110)" d="M501.859 583.296 Q494.636 583.296 490.979 590.426 Q487.368 597.509 487.368 611.768 Q487.368 625.981 490.979 633.111 Q494.636 640.194 501.859 640.194 Q509.127 640.194 512.738 633.111 Q516.396 625.981 516.396 611.768 Q516.396 597.509 512.738 590.426 Q509.127 583.296 501.859 583.296 M501.859 575.889 Q513.479 575.889 519.59 585.102 Q525.747 594.268 525.747 611.768 Q525.747 629.222 519.59 638.435 Q513.479 647.601 501.859 647.601 Q490.238 647.601 484.081 638.435 Q477.97 629.222 477.97 611.768 Q477.97 594.268 484.081 585.102 Q490.238 575.889 501.859 575.889 Z" fill="#000000" fill-rule="nonzero" fill-opacity="1" /><path clip-path="url(#clip110)" d="M331.35 317.022 L331.35 308.503 Q334.869 310.17 338.48 311.05 Q342.091 311.929 345.563 311.929 Q354.822 311.929 359.683 305.726 Q364.591 299.476 365.285 286.79 Q362.6 290.772 358.48 292.902 Q354.359 295.031 349.359 295.031 Q338.989 295.031 332.924 288.781 Q326.906 282.485 326.906 271.605 Q326.906 260.957 333.202 254.522 Q339.498 248.087 349.961 248.087 Q361.952 248.087 368.248 257.3 Q374.591 266.466 374.591 283.966 Q374.591 300.309 366.813 310.077 Q359.082 319.8 345.98 319.8 Q342.461 319.8 338.85 319.105 Q335.239 318.411 331.35 317.022 M349.961 287.716 Q356.257 287.716 359.915 283.411 Q363.619 279.105 363.619 271.605 Q363.619 264.152 359.915 259.846 Q356.257 255.494 349.961 255.494 Q343.665 255.494 339.961 259.846 Q336.304 264.152 336.304 271.605 Q336.304 279.105 339.961 283.411 Q343.665 287.716 349.961 287.716 Z" fill="#000000" fill-rule="nonzero" fill-opacity="1" /><path clip-path="url(#clip110)" d="M391.489 249.337 L428.202 249.337 L428.202 257.207 L400.054 257.207 L400.054 274.152 Q402.091 273.457 404.128 273.133 Q406.165 272.763 408.202 272.763 Q419.776 272.763 426.535 279.105 Q433.294 285.448 433.294 296.281 Q433.294 307.438 426.35 313.642 Q419.405 319.8 406.766 319.8 Q402.415 319.8 397.878 319.059 Q393.387 318.318 388.572 316.837 L388.572 307.438 Q392.739 309.707 397.183 310.818 Q401.628 311.929 406.581 311.929 Q414.59 311.929 419.266 307.716 Q423.942 303.503 423.942 296.281 Q423.942 289.059 419.266 284.846 Q414.59 280.633 406.581 280.633 Q402.831 280.633 399.081 281.466 Q395.378 282.3 391.489 284.059 L391.489 249.337 Z" fill="#000000" fill-rule="nonzero" fill-opacity="1" /><path clip-path="url(#clip110)" d="M451.72 306.698 L461.488 306.698 L461.488 318.457 L451.72 318.457 L451.72 306.698 Z" fill="#000000" fill-rule="nonzero" fill-opacity="1" /><path clip-path="url(#clip110)" d="M501.859 255.494 Q494.636 255.494 490.979 262.624 Q487.368 269.707 487.368 283.966 Q487.368 298.179 490.979 305.309 Q494.636 312.392 501.859 312.392 Q509.127 312.392 512.738 305.309 Q516.396 298.179 516.396 283.966 Q516.396 269.707 512.738 262.624 Q509.127 255.494 501.859 255.494 M501.859 248.087 Q513.479 248.087 519.59 257.3 Q525.747 266.466 525.747 283.966 Q525.747 301.42 519.59 310.633 Q513.479 319.8 501.859 319.8 Q490.238 319.8 484.081 310.633 Q477.97 301.42 477.97 283.966 Q477.97 266.466 484.081 257.3 Q490.238 248.087 501.859 248.087 Z" fill="#000000" fill-rule="nonzero" fill-opacity="1" /><path clip-path="url(#clip110)" d="M251.699 933.309 L289.512 933.309 L289.512 945.086 L191.098 945.086 L191.098 933.309 L201.92 933.309 Q195.554 929.617 192.498 924.015 Q189.379 918.35 189.379 910.52 Q189.379 897.534 199.692 889.45 Q210.004 881.302 226.809 881.302 Q243.615 881.302 253.927 889.45 Q264.24 897.534 264.24 910.52 Q264.24 918.35 261.184 924.015 Q258.065 929.617 251.699 933.309 M226.809 893.46 Q213.887 893.46 206.567 898.807 Q199.182 904.091 199.182 913.385 Q199.182 922.679 206.567 928.026 Q213.887 933.309 226.809 933.309 Q239.732 933.309 247.116 928.026 Q254.437 922.679 254.437 913.385 Q254.437 904.091 247.116 898.807 Q239.732 893.46 226.809 893.46 Z" fill="#000000" fill-rule="nonzero" fill-opacity="1" /><path clip-path="url(#clip110)" d="M226.555 829.485 Q226.555 843.68 229.801 849.155 Q233.048 854.629 240.878 854.629 Q247.116 854.629 250.808 850.555 Q254.437 846.417 254.437 839.352 Q254.437 829.612 247.562 823.756 Q240.623 817.835 229.165 817.835 L226.555 817.835 L226.555 829.485 M221.717 806.123 L262.394 806.123 L262.394 817.835 L251.572 817.835 Q258.065 821.846 261.184 827.83 Q264.24 833.813 264.24 842.471 Q264.24 853.42 258.129 859.913 Q251.954 866.342 241.642 866.342 Q229.61 866.342 223.499 858.321 Q217.388 850.237 217.388 834.259 L217.388 817.835 L216.242 817.835 Q208.158 817.835 203.766 823.183 Q199.31 828.466 199.31 838.078 Q199.31 844.189 200.774 849.982 Q202.238 855.775 205.166 861.122 L194.344 861.122 Q191.862 854.693 190.652 848.645 Q189.379 842.598 189.379 836.869 Q189.379 821.4 197.4 813.761 Q205.421 806.123 221.717 806.123 Z" fill="#000000" fill-rule="nonzero" fill-opacity="1" /><path clip-path="url(#clip110)" d="M202.047 740.683 Q200.901 742.656 200.392 745.012 Q199.819 747.303 199.819 750.104 Q199.819 760.035 206.312 765.382 Q212.741 770.666 224.836 770.666 L262.394 770.666 L262.394 782.442 L191.098 782.442 L191.098 770.666 L202.174 770.666 Q195.681 766.973 192.562 761.053 Q189.379 755.133 189.379 746.667 Q189.379 745.457 189.57 743.993 Q189.697 742.529 190.016 740.747 L202.047 740.683 Z" fill="#000000" fill-rule="nonzero" fill-opacity="1" /><path clip-path="url(#clip110)" d="M223.818 670.278 L229.547 670.278 L229.547 724.132 Q241.642 723.368 248.007 716.875 Q254.309 710.319 254.309 698.669 Q254.309 691.922 252.654 685.62 Q250.999 679.254 247.689 673.016 L258.765 673.016 Q261.439 679.318 262.839 685.938 Q264.24 692.558 264.24 699.37 Q264.24 716.43 254.309 726.424 Q244.379 736.354 227.446 736.354 Q209.94 736.354 199.692 726.933 Q189.379 717.448 189.379 701.407 Q189.379 687.02 198.673 678.681 Q207.903 670.278 223.818 670.278 M220.38 681.991 Q210.768 682.119 205.039 687.402 Q199.31 692.622 199.31 701.279 Q199.31 711.083 204.848 717.003 Q210.386 722.859 220.444 723.75 L220.38 681.991 Z" fill="#000000" fill-rule="nonzero" fill-opacity="1" /><path clip-path="url(#clip110)" d="M219.362 591.789 L262.394 591.789 L262.394 603.502 L219.744 603.502 Q209.622 603.502 204.593 607.449 Q199.564 611.396 199.564 619.289 Q199.564 628.774 205.612 634.248 Q211.659 639.723 222.099 639.723 L262.394 639.723 L262.394 651.5 L191.098 651.5 L191.098 639.723 L202.174 639.723 Q195.745 635.522 192.562 629.856 Q189.379 624.127 189.379 616.679 Q189.379 604.393 197.018 598.091 Q204.593 591.789 219.362 591.789 Z" fill="#000000" fill-rule="nonzero" fill-opacity="1" /><path clip-path="url(#clip110)" d="M246.225 566.772 L246.225 553.34 L262.394 553.34 L262.394 566.772 L246.225 566.772 Z" fill="#000000" fill-rule="nonzero" fill-opacity="1" /><path clip-path="url(#clip110)" d="M209.749 454.799 Q209.749 463.457 215.669 468.549 Q221.59 473.578 231.902 473.578 Q242.151 473.578 248.135 468.549 Q254.055 463.457 254.055 454.799 Q254.055 446.142 248.135 441.113 Q242.151 436.02 231.902 436.02 Q221.59 436.02 215.669 441.113 Q209.749 446.142 209.749 454.799 M169.454 429.273 L181.167 429.273 Q178.876 434.111 177.666 439.076 Q176.457 443.978 176.457 448.815 Q176.457 461.547 185.05 468.295 Q193.644 474.979 211.023 475.933 Q205.484 472.178 202.556 466.512 Q199.564 460.847 199.564 454.035 Q199.564 439.712 208.285 431.437 Q216.943 423.098 231.902 423.098 Q246.543 423.098 255.392 431.755 Q264.24 440.413 264.24 454.799 Q264.24 471.286 251.636 480.007 Q238.968 488.728 214.969 488.728 Q192.435 488.728 179.067 478.034 Q165.635 467.34 165.635 449.325 Q165.635 444.487 166.59 439.585 Q167.545 434.62 169.454 429.273 Z" fill="#000000" fill-rule="nonzero" fill-opacity="1" /><polyline clip-path="url(#clip112)" style="stroke:#008000; stroke-linecap:round; stroke-linejoin:round; stroke-width:8; stroke-opacity:1; fill:none" points="611.099,834.175 748.188,576.156 885.276,406.646 1022.36,762.522 1159.45,444.238 1296.54,520.067 1433.63,233.855 1570.72,565.465 1707.81,620.56 1844.89,1078.42 1981.98,904.037 2119.07,731.246 2256.16,1240.32 "/>
<circle clip-path="url(#clip112)" cx="611.099" cy="834.175" r="14.4" fill="#008000" fill-rule="evenodd" fill-opacity="1" stroke="#000000" stroke-opacity="1" stroke-width="6.4"/>
<circle clip-path="url(#clip112)" cx="748.188" cy="576.156" r="14.4" fill="#008000" fill-rule="evenodd" fill-opacity="1" stroke="#000000" stroke-opacity="1" stroke-width="6.4"/>
<circle clip-path="url(#clip112)" cx="885.276" cy="406.646" r="14.4" fill="#008000" fill-rule="evenodd" fill-opacity="1" stroke="#000000" stroke-opacity="1" stroke-width="6.4"/>
<circle clip-path="url(#clip112)" cx="1022.36" cy="762.522" r="14.4" fill="#008000" fill-rule="evenodd" fill-opacity="1" stroke="#000000" stroke-opacity="1" stroke-width="6.4"/>
<circle clip-path="url(#clip112)" cx="1159.45" cy="444.238" r="14.4" fill="#008000" fill-rule="evenodd" fill-opacity="1" stroke="#000000" stroke-opacity="1" stroke-width="6.4"/>
<circle clip-path="url(#clip112)" cx="1296.54" cy="520.067" r="14.4" fill="#008000" fill-rule="evenodd" fill-opacity="1" stroke="#000000" stroke-opacity="1" stroke-width="6.4"/>
<circle clip-path="url(#clip112)" cx="1433.63" cy="233.855" r="14.4" fill="#008000" fill-rule="evenodd" fill-opacity="1" stroke="#000000" stroke-opacity="1" stroke-width="6.4"/>
<circle clip-path="url(#clip112)" cx="1570.72" cy="565.465" r="14.4" fill="#008000" fill-rule="evenodd" fill-opacity="1" stroke="#000000" stroke-opacity="1" stroke-width="6.4"/>
<circle clip-path="url(#clip112)" cx="1707.81" cy="620.56" r="14.4" fill="#008000" fill-rule="evenodd" fill-opacity="1" stroke="#000000" stroke-opacity="1" stroke-width="6.4"/>
<circle clip-path="url(#clip112)" cx="1844.89" cy="1078.42" r="14.4" fill="#008000" fill-rule="evenodd" fill-opacity="1" stroke="#000000" stroke-opacity="1" stroke-width="6.4"/>
<circle clip-path="url(#clip112)" cx="1981.98" cy="904.037" r="14.4" fill="#008000" fill-rule="evenodd" fill-opacity="1" stroke="#000000" stroke-opacity="1" stroke-width="6.4"/>
<circle clip-path="url(#clip112)" cx="2119.07" cy="731.246" r="14.4" fill="#008000" fill-rule="evenodd" fill-opacity="1" stroke="#000000" stroke-opacity="1" stroke-width="6.4"/>
<circle clip-path="url(#clip112)" cx="2256.16" cy="1240.32" r="14.4" fill="#008000" fill-rule="evenodd" fill-opacity="1" stroke="#000000" stroke-opacity="1" stroke-width="6.4"/>
<polyline clip-path="url(#clip112)" style="stroke:#00008b; stroke-linecap:round; stroke-linejoin:round; stroke-width:8; stroke-opacity:1; fill:none" points="611.099,500.202 748.188,417.015 885.276,375.628 1022.36,354.253 1159.45,371.202 1296.54,382.022 1433.63,401.456 1570.72,434.449 1707.81,481.29 1844.89,537.279 1981.98,619.617 2119.07,706.331 2256.16,772.961 "/>
<path clip-path="url(#clip112)" d="M611.099 734.527 L748.188 649.511 L885.276 597.827 L1022.36 584.512 L1159.45 615.432 L1296.54 623.414 L1433.63 639.094 L1570.72 673.085 L1707.81 719.014 L1844.89 770.69 L1981.98 860.149 L2119.07 935.955 L2256.16 1009.22 L2256.16 540.588 L2119.07 475.599 L1981.98 371.849 L1844.89 308.67 L1707.81 237.05 L1570.72 201.57 L1433.63 170.599 L1296.54 131.213 L1159.45 129.704 L1022.36 127.862 L885.276 148.214 L748.188 182.836 L611.099 268.799  Z" fill="#0000ff" fill-rule="evenodd" fill-opacity="0.1"/>
<polyline clip-path="url(#clip112)" style="stroke:#0000ff; stroke-linecap:round; stroke-linejoin:round; stroke-width:0; stroke-opacity:0.1; fill:none" points="611.099,734.527 748.188,649.511 885.276,597.827 1022.36,584.512 1159.45,615.432 1296.54,623.414 1433.63,639.094 1570.72,673.085 1707.81,719.014 1844.89,770.69 1981.98,860.149 2119.07,935.955 2256.16,1009.22 "/>
</svg>
