<?xml version="1.0" encoding="utf-8"?>
<svg xmlns="http://www.w3.org/2000/svg" xmlns:xlink="http://www.w3.org/1999/xlink" width="600" height="400" viewBox="0 0 2400 1600">
<defs>
  <clipPath id="clip870">
    <rect x="0" y="0" width="2400" height="1600"/>
  </clipPath>
</defs>
<path clip-path="url(#clip870)" d="M0 1600 L2400 1600 L2400 0 L0 0  Z" fill="#ffffff" fill-rule="evenodd" fill-opacity="1"/>
<defs>
  <clipPath id="clip871">
    <rect x="480" y="0" width="1681" height="1600"/>
  </clipPath>
</defs>
<path clip-path="url(#clip870)" d="M680.45 1273.7 L2305.51 1273.7 L2305.51 94.4882 L680.45 94.4882  Z" fill="#ffffff" fill-rule="evenodd" fill-opacity="1"/>
<defs>
  <clipPath id="clip872">
    <rect x="680" y="94" width="1626" height="1180"/>
  </clipPath>
</defs>
<polyline clip-path="url(#clip872)" style="stroke:#000000; stroke-linecap:round; stroke-linejoin:round; stroke-width:4; stroke-opacity:0.1; fill:none" points="726.443,1273.7 726.443,94.4882 "/>
<polyline clip-path="url(#clip872)" style="stroke:#000000; stroke-linecap:round; stroke-linejoin:round; stroke-width:4; stroke-opacity:0.1; fill:none" points="1045.83,1273.7 1045.83,94.4882 "/>
<polyline clip-path="url(#clip872)" style="stroke:#000000; stroke-linecap:round; stroke-linejoin:round; stroke-width:4; stroke-opacity:0.1; fill:none" points="1365.22,1273.7 1365.22,94.4882 "/>
<polyline clip-path="url(#clip872)" style="stroke:#000000; stroke-linecap:round; stroke-linejoin:round; stroke-width:4; stroke-opacity:0.1; fill:none" points="1684.62,1273.7 1684.62,94.4882 "/>
<polyline clip-path="url(#clip872)" style="stroke:#000000; stroke-linecap:round; stroke-linejoin:round; stroke-width:4; stroke-opacity:0.1; fill:none" points="2004.01,1273.7 2004.01,94.4882 "/>
<polyline clip-path="url(#clip870)" style="stroke:#000000; stroke-linecap:round; stroke-linejoin:round; stroke-width:8; stroke-opacity:1; fill:none" points="680.45,1273.7 2305.51,1273.7 "/>
<polyline clip-path="url(#clip870)" style="stroke:#000000; stroke-linecap:round; stroke-linejoin:round; stroke-width:8; stroke-opacity:1; fill:none" points="726.443,1273.7 726.443,1254.8 "/>
<polyline clip-path="url(#clip870)" style="stroke:#000000; stroke-linecap:round; stroke-linejoin:round; stroke-width:8; stroke-opacity:1; fill:none" points="1045.83,1273.7 1045.83,1254.8 "/>
<polyline clip-path="url(#clip870)" style="stroke:#000000; stroke-linecap:round; stroke-linejoin:round; stroke-width:8; stroke-opacity:1; fill:none" points="1365.22,1273.7 1365.22,1254.8 "/>
<polyline clip-path="url(#clip870)" style="stroke:#000000; stroke-linecap:round; stroke-linejoin:round; stroke-width:8; stroke-opacity:1; fill:none" points="1684.62,1273.7 1684.62,1254.8 "/>
<polyline clip-path="url(#clip870)" style="stroke:#000000; stroke-linecap:round; stroke-linejoin:round; stroke-width:8; stroke-opacity:1; fill:none" points="2004.01,1273.7 2004.01,1254.8 "/>
<path clip-path="url(#clip870)" d="M651.05 1316.33 Q643.827 1316.33 640.17 1323.46 Q636.559 1330.55 636.559 1344.81 Q636.559 1359.02 640.17 1366.15 Q643.827 1373.23 651.05 1373.23 Q658.318 1373.23 661.929 1366.15 Q665.587 1359.02 665.587 1344.81 Q665.587 1330.55 661.929 1323.46 Q658.318 1316.33 651.05 1316.33 M651.05 1308.93 Q662.67 1308.93 668.781 1318.14 Q674.938 1327.31 674.938 1344.81 Q674.938 1362.26 668.781 1371.47 Q662.67 1380.64 651.05 1380.64 Q639.429 1380.64 633.272 1371.47 Q627.161 1362.26 627.161 1344.81 Q627.161 1327.31 633.272 1318.14 Q639.429 1308.93 651.05 1308.93 Z" fill="#000000" fill-rule="nonzero" fill-opacity="1" /><path clip-path="url(#clip870)" d="M691.373 1367.54 L701.142 1367.54 L701.142 1379.3 L691.373 1379.3 L691.373 1367.54 Z" fill="#000000" fill-rule="nonzero" fill-opacity="1" /><path clip-path="url(#clip870)" d="M741.512 1316.33 Q734.29 1316.33 730.632 1323.46 Q727.021 1330.55 727.021 1344.81 Q727.021 1359.02 730.632 1366.15 Q734.29 1373.23 741.512 1373.23 Q748.781 1373.23 752.392 1366.15 Q756.049 1359.02 756.049 1344.81 Q756.049 1330.55 752.392 1323.46 Q748.781 1316.33 741.512 1316.33 M741.512 1308.93 Q753.132 1308.93 759.243 1318.14 Q765.401 1327.31 765.401 1344.81 Q765.401 1362.26 759.243 1371.47 Q753.132 1380.64 741.512 1380.64 Q729.892 1380.64 723.734 1371.47 Q717.623 1362.26 717.623 1344.81 Q717.623 1327.31 723.734 1318.14 Q729.892 1308.93 741.512 1308.93 Z" fill="#000000" fill-rule="nonzero" fill-opacity="1" /><path clip-path="url(#clip870)" d="M801.836 1316.33 Q794.614 1316.33 790.956 1323.46 Q787.345 1330.55 787.345 1344.81 Q787.345 1359.02 790.956 1366.15 Q794.614 1373.23 801.836 1373.23 Q809.104 1373.23 812.715 1366.15 Q816.373 1359.02 816.373 1344.81 Q816.373 1330.55 812.715 1323.46 Q809.104 1316.33 801.836 1316.33 M801.836 1308.93 Q813.456 1308.93 819.567 1318.14 Q825.725 1327.31 825.725 1344.81 Q825.725 1362.26 819.567 1371.47 Q813.456 1380.64 801.836 1380.64 Q790.215 1380.64 784.058 1371.47 Q777.947 1362.26 777.947 1344.81 Q777.947 1327.31 784.058 1318.14 Q790.215 1308.93 801.836 1308.93 Z" fill="#000000" fill-rule="nonzero" fill-opacity="1" /><path clip-path="url(#clip870)" d="M971.436 1316.33 Q964.214 1316.33 960.556 1323.46 Q956.945 1330.55 956.945 1344.81 Q956.945 1359.02 960.556 1366.15 Q964.214 1373.23 971.436 1373.23 Q978.704 1373.23 982.316 1366.15 Q985.973 1359.02 985.973 1344.81 Q985.973 1330.55 982.316 1323.46 Q978.704 1316.33 971.436 1316.33 M971.436 1308.93 Q983.056 1308.93 989.167 1318.14 Q995.325 1327.31 995.325 1344.81 Q995.325 1362.26 989.167 1371.47 Q983.056 1380.64 971.436 1380.64 Q959.816 1380.64 953.658 1371.47 Q947.547 1362.26 947.547 1344.81 Q947.547 1327.31 953.658 1318.14 Q959.816 1308.93 971.436 1308.93 Z" fill="#000000" fill-rule="nonzero" fill-opacity="1" /><path clip-path="url(#clip870)" d="M1011.76 1367.54 L1021.53 1367.54 L1021.53 1379.3 L1011.76 1379.3 L1011.76 1367.54 Z" fill="#000000" fill-rule="nonzero" fill-opacity="1" /><path clip-path="url(#clip870)" d="M1049.95 1371.43 L1082.59 1371.43 L1082.59 1379.3 L1038.7 1379.3 L1038.7 1371.43 Q1044.03 1365.92 1053.19 1356.66 Q1062.41 1347.35 1064.77 1344.67 Q1069.26 1339.62 1071.02 1336.15 Q1072.82 1332.63 1072.82 1329.25 Q1072.82 1323.74 1068.94 1320.27 Q1065.09 1316.8 1058.89 1316.8 Q1054.49 1316.8 1049.58 1318.32 Q1044.72 1319.85 1039.17 1322.95 L1039.17 1313.51 Q1044.82 1311.24 1049.72 1310.08 Q1054.63 1308.93 1058.7 1308.93 Q1069.44 1308.93 1075.83 1314.3 Q1082.22 1319.67 1082.22 1328.65 Q1082.22 1332.91 1080.6 1336.75 Q1079.03 1340.55 1074.82 1345.73 Q1073.66 1347.07 1067.45 1353.51 Q1061.25 1359.9 1049.95 1371.43 Z" fill="#000000" fill-rule="nonzero" fill-opacity="1" /><path clip-path="url(#clip870)" d="M1102.31 1310.18 L1139.03 1310.18 L1139.03 1318.05 L1110.88 1318.05 L1110.88 1334.99 Q1112.92 1334.3 1114.95 1333.97 Q1116.99 1333.6 1119.03 1333.6 Q1130.6 1333.6 1137.36 1339.94 Q1144.12 1346.29 1144.12 1357.12 Q1144.12 1368.28 1137.18 1374.48 Q1130.23 1380.64 1117.59 1380.64 Q1113.24 1380.64 1108.7 1379.9 Q1104.21 1379.16 1099.4 1377.68 L1099.4 1368.28 Q1103.56 1370.55 1108.01 1371.66 Q1112.45 1372.77 1117.41 1372.77 Q1125.42 1372.77 1130.09 1368.56 Q1134.77 1364.34 1134.77 1357.12 Q1134.77 1349.9 1130.09 1345.68 Q1125.42 1341.47 1117.41 1341.47 Q1113.66 1341.47 1109.91 1342.31 Q1106.2 1343.14 1102.31 1344.9 L1102.31 1310.18 Z" fill="#000000" fill-rule="nonzero" fill-opacity="1" /><path clip-path="url(#clip870)" d="M1289.83 1316.33 Q1282.61 1316.33 1278.95 1323.46 Q1275.34 1330.55 1275.34 1344.81 Q1275.34 1359.02 1278.95 1366.15 Q1282.61 1373.23 1289.83 1373.23 Q1297.1 1373.23 1300.71 1366.15 Q1304.37 1359.02 1304.37 1344.81 Q1304.37 1330.55 1300.71 1323.46 Q1297.1 1316.33 1289.83 1316.33 M1289.83 1308.93 Q1301.45 1308.93 1307.56 1318.14 Q1313.72 1327.31 1313.72 1344.81 Q1313.72 1362.26 1307.56 1371.47 Q1301.45 1380.64 1289.83 1380.64 Q1278.21 1380.64 1272.05 1371.47 Q1265.94 1362.26 1265.94 1344.81 Q1265.94 1327.31 1272.05 1318.14 Q1278.21 1308.93 1289.83 1308.93 Z" fill="#000000" fill-rule="nonzero" fill-opacity="1" /><path clip-path="url(#clip870)" d="M1330.16 1367.54 L1339.92 1367.54 L1339.92 1379.3 L1330.16 1379.3 L1330.16 1367.54 Z" fill="#000000" fill-rule="nonzero" fill-opacity="1" /><path clip-path="url(#clip870)" d="M1360.39 1310.18 L1397.1 1310.18 L1397.1 1318.05 L1368.95 1318.05 L1368.95 1334.99 Q1370.99 1334.3 1373.03 1333.97 Q1375.06 1333.6 1377.1 1333.6 Q1388.67 1333.6 1395.43 1339.94 Q1402.19 1346.29 1402.19 1357.12 Q1402.19 1368.28 1395.25 1374.48 Q1388.3 1380.64 1375.66 1380.64 Q1371.31 1380.64 1366.78 1379.9 Q1362.28 1379.16 1357.47 1377.68 L1357.47 1368.28 Q1361.64 1370.55 1366.08 1371.66 Q1370.53 1372.77 1375.48 1372.77 Q1383.49 1372.77 1388.16 1368.56 Q1392.84 1364.34 1392.84 1357.12 Q1392.84 1349.9 1388.16 1345.68 Q1383.49 1341.47 1375.48 1341.47 Q1371.73 1341.47 1367.98 1342.31 Q1364.28 1343.14 1360.39 1344.9 L1360.39 1310.18 Z" fill="#000000" fill-rule="nonzero" fill-opacity="1" /><path clip-path="url(#clip870)" d="M1440.62 1316.33 Q1433.4 1316.33 1429.74 1323.46 Q1426.13 1330.55 1426.13 1344.81 Q1426.13 1359.02 1429.74 1366.15 Q1433.4 1373.23 1440.62 1373.23 Q1447.89 1373.23 1451.5 1366.15 Q1455.15 1359.02 1455.15 1344.81 Q1455.15 1330.55 1451.5 1323.46 Q1447.89 1316.33 1440.62 1316.33 M1440.62 1308.93 Q1452.24 1308.93 1458.35 1318.14 Q1464.51 1327.31 1464.51 1344.81 Q1464.51 1362.26 1458.35 1371.47 Q1452.24 1380.64 1440.62 1380.64 Q1429 1380.64 1422.84 1371.47 Q1416.73 1362.26 1416.73 1344.81 Q1416.73 1327.31 1422.84 1318.14 Q1429 1308.93 1440.62 1308.93 Z" fill="#000000" fill-rule="nonzero" fill-opacity="1" /><path clip-path="url(#clip870)" d="M1610.22 1316.33 Q1603 1316.33 1599.34 1323.46 Q1595.73 1330.55 1595.73 1344.81 Q1595.73 1359.02 1599.34 1366.15 Q1603 1373.23 1610.22 1373.23 Q1617.49 1373.23 1621.1 1366.15 Q1624.75 1359.02 1624.75 1344.81 Q1624.75 1330.55 1621.1 1323.46 Q1617.49 1316.33 1610.22 1316.33 M1610.22 1308.93 Q1621.84 1308.93 1627.95 1318.14 Q1634.11 1327.31 1634.11 1344.81 Q1634.11 1362.26 1627.95 1371.47 Q1621.84 1380.64 1610.22 1380.64 Q1598.6 1380.64 1592.44 1371.47 Q1586.33 1362.26 1586.33 1344.81 Q1586.33 1327.31 1592.44 1318.14 Q1598.6 1308.93 1610.22 1308.93 Z" fill="#000000" fill-rule="nonzero" fill-opacity="1" /><path clip-path="url(#clip870)" d="M1650.54 1367.54 L1660.31 1367.54 L1660.31 1379.3 L1650.54 1379.3 L1650.54 1367.54 Z" fill="#000000" fill-rule="nonzero" fill-opacity="1" /><path clip-path="url(#clip870)" d="M1678.32 1310.18 L1722.76 1310.18 L1722.76 1314.16 L1697.67 1379.3 L1687.9 1379.3 L1711.51 1318.05 L1678.32 1318.05 L1678.32 1310.18 Z" fill="#000000" fill-rule="nonzero" fill-opacity="1" /><path clip-path="url(#clip870)" d="M1741.1 1310.18 L1777.81 1310.18 L1777.81 1318.05 L1749.66 1318.05 L1749.66 1334.99 Q1751.7 1334.3 1753.74 1333.97 Q1755.77 1333.6 1757.81 1333.6 Q1769.38 1333.6 1776.14 1339.94 Q1782.9 1346.29 1782.9 1357.12 Q1782.9 1368.28 1775.96 1374.48 Q1769.01 1380.64 1756.37 1380.64 Q1752.02 1380.64 1747.49 1379.9 Q1743 1379.16 1738.18 1377.68 L1738.18 1368.28 Q1742.35 1370.55 1746.79 1371.66 Q1751.24 1372.77 1756.19 1372.77 Q1764.2 1372.77 1768.87 1368.56 Q1773.55 1364.34 1773.55 1357.12 Q1773.55 1349.9 1768.87 1345.68 Q1764.2 1341.47 1756.19 1341.47 Q1752.44 1341.47 1748.69 1342.31 Q1744.99 1343.14 1741.1 1344.9 L1741.1 1310.18 Z" fill="#000000" fill-rule="nonzero" fill-opacity="1" /><path clip-path="url(#clip870)" d="M1908.15 1371.43 L1923.43 1371.43 L1923.43 1318.69 L1906.81 1322.03 L1906.81 1313.51 L1923.34 1310.18 L1932.69 1310.18 L1932.69 1371.43 L1947.97 1371.43 L1947.97 1379.3 L1908.15 1379.3 L1908.15 1371.43 Z" fill="#000000" fill-rule="nonzero" fill-opacity="1" /><path clip-path="url(#clip870)" d="M1966.85 1367.54 L1976.62 1367.54 L1976.62 1379.3 L1966.85 1379.3 L1966.85 1367.54 Z" fill="#000000" fill-rule="nonzero" fill-opacity="1" /><path clip-path="url(#clip870)" d="M2016.99 1316.33 Q2009.77 1316.33 2006.11 1323.46 Q2002.5 1330.55 2002.5 1344.81 Q2002.5 1359.02 2006.11 1366.15 Q2009.77 1373.23 2016.99 1373.23 Q2024.26 1373.23 2027.87 1366.15 Q2031.53 1359.02 2031.53 1344.81 Q2031.53 1330.55 2027.87 1323.46 Q2024.26 1316.33 2016.99 1316.33 M2016.99 1308.93 Q2028.61 1308.93 2034.72 1318.14 Q2040.88 1327.31 2040.88 1344.81 Q2040.88 1362.26 2034.72 1371.47 Q2028.61 1380.64 2016.99 1380.64 Q2005.37 1380.64 1999.22 1371.47 Q1993.1 1362.26 1993.1 1344.81 Q1993.1 1327.31 1999.22 1318.14 Q2005.37 1308.93 2016.99 1308.93 Z" fill="#000000" fill-rule="nonzero" fill-opacity="1" /><path clip-path="url(#clip870)" d="M2077.32 1316.33 Q2070.09 1316.33 2066.44 1323.46 Q2062.83 1330.55 2062.83 1344.81 Q2062.83 1359.02 2066.44 1366.15 Q2070.09 1373.23 2077.32 1373.23 Q2084.58 1373.23 2088.2 1366.15 Q2091.85 1359.02 2091.85 1344.81 Q2091.85 1330.55 2088.2 1323.46 Q2084.58 1316.33 2077.32 1316.33 M2077.32 1308.93 Q2088.94 1308.93 2095.05 1318.14 Q2101.21 1327.31 2101.21 1344.81 Q2101.21 1362.26 2095.05 1371.47 Q2088.94 1380.64 2077.32 1380.64 Q2065.7 1380.64 2059.54 1371.47 Q2053.43 1362.26 2053.43 1344.81 Q2053.43 1327.31 2059.54 1318.14 Q2065.7 1308.93 2077.32 1308.93 Z" fill="#000000" fill-rule="nonzero" fill-opacity="1" /><path clip-path="url(#clip870)" d="M1378.53 1484.39 L1378.53 1527.42 L1366.81 1527.42 L1366.81 1484.77 Q1366.81 1474.65 1362.87 1469.62 Q1358.92 1464.59 1351.03 1464.59 Q1341.54 1464.59 1336.07 1470.64 Q1330.59 1476.69 1330.59 1487.13 L1330.59 1527.42 L1318.82 1527.42 L1318.82 1428.37 L1330.59 1428.37 L1330.59 1467.2 Q1334.79 1460.77 1340.46 1457.59 Q1346.19 1454.41 1353.64 1454.41 Q1365.92 1454.41 1372.22 1462.05 Q1378.53 1469.62 1378.53 1484.39 Z" fill="#000000" fill-rule="nonzero" fill-opacity="1" /><path clip-path="url(#clip870)" d="M1429.51 1464.34 Q1420.09 1464.34 1414.62 1471.72 Q1409.14 1479.04 1409.14 1491.84 Q1409.14 1504.63 1414.56 1512.02 Q1420.03 1519.34 1429.51 1519.34 Q1438.87 1519.34 1444.35 1511.96 Q1449.82 1504.57 1449.82 1491.84 Q1449.82 1479.17 1444.35 1471.79 Q1438.87 1464.34 1429.51 1464.34 M1429.51 1454.41 Q1444.79 1454.41 1453.51 1464.34 Q1462.23 1474.27 1462.23 1491.84 Q1462.23 1509.35 1453.51 1519.34 Q1444.79 1529.27 1429.51 1529.27 Q1414.17 1529.27 1405.45 1519.34 Q1396.8 1509.35 1396.8 1491.84 Q1396.8 1474.27 1405.45 1464.34 Q1414.17 1454.41 1429.51 1454.41 Z" fill="#000000" fill-rule="nonzero" fill-opacity="1" /><path clip-path="url(#clip870)" d="M1480.44 1499.29 L1480.44 1456.13 L1492.15 1456.13 L1492.15 1498.84 Q1492.15 1508.96 1496.1 1514.06 Q1500.05 1519.08 1507.94 1519.08 Q1517.43 1519.08 1522.9 1513.04 Q1528.44 1506.99 1528.44 1496.55 L1528.44 1456.13 L1540.15 1456.13 L1540.15 1527.42 L1528.44 1527.42 L1528.44 1516.47 Q1524.17 1522.97 1518.51 1526.15 Q1512.91 1529.27 1505.46 1529.27 Q1493.17 1529.27 1486.81 1521.63 Q1480.44 1513.99 1480.44 1499.29 M1509.91 1454.41 L1509.91 1454.41 Z" fill="#000000" fill-rule="nonzero" fill-opacity="1" /><path clip-path="url(#clip870)" d="M1605.59 1467.08 Q1603.62 1465.93 1601.26 1465.42 Q1598.97 1464.85 1596.17 1464.85 Q1586.24 1464.85 1580.89 1471.34 Q1575.61 1477.77 1575.61 1489.87 L1575.61 1527.42 L1563.83 1527.42 L1563.83 1456.13 L1575.61 1456.13 L1575.61 1467.2 Q1579.3 1460.71 1585.22 1457.59 Q1591.14 1454.41 1599.61 1454.41 Q1600.82 1454.41 1602.28 1454.6 Q1603.74 1454.73 1605.53 1455.05 L1605.59 1467.08 Z" fill="#000000" fill-rule="nonzero" fill-opacity="1" /><path clip-path="url(#clip870)" d="M1663.33 1458.23 L1663.33 1469.3 Q1658.36 1466.76 1653.01 1465.49 Q1647.67 1464.21 1641.94 1464.21 Q1633.22 1464.21 1628.83 1466.89 Q1624.5 1469.56 1624.5 1474.91 Q1624.5 1478.98 1627.62 1481.34 Q1630.73 1483.63 1640.16 1485.73 L1644.17 1486.62 Q1656.64 1489.29 1661.86 1494.19 Q1667.15 1499.03 1667.15 1507.75 Q1667.15 1517.68 1659.25 1523.48 Q1651.42 1529.27 1637.67 1529.27 Q1631.94 1529.27 1625.71 1528.12 Q1619.53 1527.04 1612.66 1524.81 L1612.66 1512.72 Q1619.15 1516.09 1625.45 1517.81 Q1631.75 1519.47 1637.93 1519.47 Q1646.2 1519.47 1650.66 1516.67 Q1655.12 1513.8 1655.12 1508.64 Q1655.12 1503.87 1651.87 1501.32 Q1648.69 1498.78 1637.8 1496.42 L1633.73 1495.47 Q1622.84 1493.18 1618 1488.47 Q1613.17 1483.69 1613.17 1475.42 Q1613.17 1465.36 1620.3 1459.88 Q1627.42 1454.41 1640.54 1454.41 Q1647.03 1454.41 1652.76 1455.36 Q1658.49 1456.32 1663.33 1458.23 Z" fill="#000000" fill-rule="nonzero" fill-opacity="1" /><polyline clip-path="url(#clip872)" style="stroke:#000000; stroke-linecap:round; stroke-linejoin:round; stroke-width:4; stroke-opacity:0.1; fill:none" points="680.45,1169.76 2305.51,1169.76 "/>
<polyline clip-path="url(#clip872)" style="stroke:#000000; stroke-linecap:round; stroke-linejoin:round; stroke-width:4; stroke-opacity:0.1; fill:none" points="680.45,911.41 2305.51,911.41 "/>
<polyline clip-path="url(#clip872)" style="stroke:#000000; stroke-linecap:round; stroke-linejoin:round; stroke-width:4; stroke-opacity:0.1; fill:none" points="680.45,653.062 2305.51,653.062 "/>
<polyline clip-path="url(#clip872)" style="stroke:#000000; stroke-linecap:round; stroke-linejoin:round; stroke-width:4; stroke-opacity:0.1; fill:none" points="680.45,394.713 2305.51,394.713 "/>
<polyline clip-path="url(#clip872)" style="stroke:#000000; stroke-linecap:round; stroke-linejoin:round; stroke-width:4; stroke-opacity:0.1; fill:none" points="680.45,136.365 2305.51,136.365 "/>
<polyline clip-path="url(#clip870)" style="stroke:#000000; stroke-linecap:round; stroke-linejoin:round; stroke-width:8; stroke-opacity:1; fill:none" points="680.45,1273.7 680.45,94.4882 "/>
<polyline clip-path="url(#clip870)" style="stroke:#000000; stroke-linecap:round; stroke-linejoin:round; stroke-width:8; stroke-opacity:1; fill:none" points="680.45,1169.76 699.348,1169.76 "/>
<polyline clip-path="url(#clip870)" style="stroke:#000000; stroke-linecap:round; stroke-linejoin:round; stroke-width:8; stroke-opacity:1; fill:none" points="680.45,911.41 699.348,911.41 "/>
<polyline clip-path="url(#clip870)" style="stroke:#000000; stroke-linecap:round; stroke-linejoin:round; stroke-width:8; stroke-opacity:1; fill:none" points="680.45,653.062 699.348,653.062 "/>
<polyline clip-path="url(#clip870)" style="stroke:#000000; stroke-linecap:round; stroke-linejoin:round; stroke-width:8; stroke-opacity:1; fill:none" points="680.45,394.713 699.348,394.713 "/>
<polyline clip-path="url(#clip870)" style="stroke:#000000; stroke-linecap:round; stroke-linejoin:round; stroke-width:8; stroke-opacity:1; fill:none" points="680.45,136.365 699.348,136.365 "/>
<path clip-path="url(#clip870)" d="M391.072 1196.45 L406.35 1196.45 L406.35 1143.72 L389.73 1147.05 L389.73 1138.53 L406.257 1135.2 L415.609 1135.2 L415.609 1196.45 L430.887 1196.45 L430.887 1204.32 L391.072 1204.32 L391.072 1196.45 Z" fill="#000000" fill-rule="nonzero" fill-opacity="1" /><path clip-path="url(#clip870)" d="M469.775 1141.36 Q462.553 1141.36 458.896 1148.49 Q455.285 1155.57 455.285 1169.83 Q455.285 1184.04 458.896 1191.17 Q462.553 1198.25 469.775 1198.25 Q477.044 1198.25 480.655 1191.17 Q484.312 1184.04 484.312 1169.83 Q484.312 1155.57 480.655 1148.49 Q477.044 1141.36 469.775 1141.36 M469.775 1133.95 Q481.396 1133.95 487.507 1143.16 Q493.664 1152.33 493.664 1169.83 Q493.664 1187.28 487.507 1196.49 Q481.396 1205.66 469.775 1205.66 Q458.155 1205.66 451.998 1196.49 Q445.887 1187.28 445.887 1169.83 Q445.887 1152.33 451.998 1143.16 Q458.155 1133.95 469.775 1133.95 Z" fill="#000000" fill-rule="nonzero" fill-opacity="1" /><path clip-path="url(#clip870)" d="M530.099 1141.36 Q522.877 1141.36 519.22 1148.49 Q515.608 1155.57 515.608 1169.83 Q515.608 1184.04 519.22 1191.17 Q522.877 1198.25 530.099 1198.25 Q537.368 1198.25 540.979 1191.17 Q544.636 1184.04 544.636 1169.83 Q544.636 1155.57 540.979 1148.49 Q537.368 1141.36 530.099 1141.36 M530.099 1133.95 Q541.719 1133.95 547.831 1143.16 Q553.988 1152.33 553.988 1169.83 Q553.988 1187.28 547.831 1196.49 Q541.719 1205.66 530.099 1205.66 Q518.479 1205.66 512.321 1196.49 Q506.21 1187.28 506.21 1169.83 Q506.21 1152.33 512.321 1143.16 Q518.479 1133.95 530.099 1133.95 Z" fill="#000000" fill-rule="nonzero" fill-opacity="1" /><path clip-path="url(#clip870)" d="M570.423 1192.56 L580.191 1192.56 L580.191 1204.32 L570.423 1204.32 L570.423 1192.56 Z" fill="#000000" fill-rule="nonzero" fill-opacity="1" /><path clip-path="url(#clip870)" d="M620.562 1141.36 Q613.339 1141.36 609.682 1148.49 Q606.071 1155.57 606.071 1169.83 Q606.071 1184.04 609.682 1191.17 Q613.339 1198.25 620.562 1198.25 Q627.83 1198.25 631.441 1191.17 Q635.099 1184.04 635.099 1169.83 Q635.099 1155.57 631.441 1148.49 Q627.83 1141.36 620.562 1141.36 M620.562 1133.95 Q632.182 1133.95 638.293 1143.16 Q644.45 1152.33 644.45 1169.83 Q644.45 1187.28 638.293 1196.49 Q632.182 1205.66 620.562 1205.66 Q608.941 1205.66 602.784 1196.49 Q596.673 1187.28 596.673 1169.83 Q596.673 1152.33 602.784 1143.16 Q608.941 1133.95 620.562 1133.95 Z" fill="#000000" fill-rule="nonzero" fill-opacity="1" /><path clip-path="url(#clip870)" d="M391.072 938.1 L406.35 938.1 L406.35 885.369 L389.73 888.702 L389.73 880.184 L406.257 876.85 L415.609 876.85 L415.609 938.1 L430.887 938.1 L430.887 945.97 L391.072 945.97 L391.072 938.1 Z" fill="#000000" fill-rule="nonzero" fill-opacity="1" /><path clip-path="url(#clip870)" d="M457.831 938.1 L490.47 938.1 L490.47 945.97 L446.581 945.97 L446.581 938.1 Q451.905 932.591 461.072 923.332 Q470.285 914.026 472.646 911.341 Q477.136 906.295 478.896 902.822 Q480.701 899.304 480.701 895.924 Q480.701 890.415 476.812 886.943 Q472.97 883.471 466.766 883.471 Q462.368 883.471 457.461 884.998 Q452.6 886.526 447.044 889.628 L447.044 880.184 Q452.692 877.915 457.6 876.758 Q462.507 875.6 466.581 875.6 Q477.322 875.6 483.71 880.971 Q490.099 886.341 490.099 895.322 Q490.099 899.582 488.479 903.424 Q486.905 907.221 482.692 912.406 Q481.535 913.748 475.331 920.183 Q469.127 926.572 457.831 938.1 Z" fill="#000000" fill-rule="nonzero" fill-opacity="1" /><path clip-path="url(#clip870)" d="M510.192 876.85 L546.905 876.85 L546.905 884.721 L518.757 884.721 L518.757 901.665 Q520.794 900.971 522.831 900.647 Q524.868 900.276 526.905 900.276 Q538.479 900.276 545.238 906.619 Q551.997 912.961 551.997 923.795 Q551.997 934.952 545.053 941.156 Q538.108 947.313 525.47 947.313 Q521.118 947.313 516.581 946.572 Q512.09 945.831 507.275 944.35 L507.275 934.952 Q511.442 937.22 515.886 938.332 Q520.331 939.443 525.284 939.443 Q533.294 939.443 537.969 935.23 Q542.645 931.017 542.645 923.795 Q542.645 916.572 537.969 912.359 Q533.294 908.146 525.284 908.146 Q521.534 908.146 517.784 908.98 Q514.081 909.813 510.192 911.572 L510.192 876.85 Z" fill="#000000" fill-rule="nonzero" fill-opacity="1" /><path clip-path="url(#clip870)" d="M570.423 934.211 L580.191 934.211 L580.191 945.97 L570.423 945.97 L570.423 934.211 Z" fill="#000000" fill-rule="nonzero" fill-opacity="1" /><path clip-path="url(#clip870)" d="M620.562 883.008 Q613.339 883.008 609.682 890.137 Q606.071 897.221 606.071 911.48 Q606.071 925.693 609.682 932.822 Q613.339 939.906 620.562 939.906 Q627.83 939.906 631.441 932.822 Q635.099 925.693 635.099 911.48 Q635.099 897.221 631.441 890.137 Q627.83 883.008 620.562 883.008 M620.562 875.6 Q632.182 875.6 638.293 884.813 Q644.45 893.98 644.45 911.48 Q644.45 928.933 638.293 938.146 Q632.182 947.313 620.562 947.313 Q608.941 947.313 602.784 938.146 Q596.673 928.933 596.673 911.48 Q596.673 893.98 602.784 884.813 Q608.941 875.6 620.562 875.6 Z" fill="#000000" fill-rule="nonzero" fill-opacity="1" /><path clip-path="url(#clip870)" d="M391.072 679.751 L406.35 679.751 L406.35 627.02 L389.73 630.354 L389.73 621.835 L406.257 618.502 L415.609 618.502 L415.609 679.751 L430.887 679.751 L430.887 687.622 L391.072 687.622 L391.072 679.751 Z" fill="#000000" fill-rule="nonzero" fill-opacity="1" /><path clip-path="url(#clip870)" d="M449.868 618.502 L486.581 618.502 L486.581 626.372 L458.433 626.372 L458.433 643.316 Q460.47 642.622 462.507 642.298 Q464.544 641.928 466.581 641.928 Q478.155 641.928 484.914 648.27 Q491.673 654.613 491.673 665.446 Q491.673 676.603 484.729 682.807 Q477.785 688.964 465.146 688.964 Q460.794 688.964 456.257 688.224 Q451.766 687.483 446.951 686.001 L446.951 676.603 Q451.118 678.872 455.562 679.983 Q460.007 681.094 464.961 681.094 Q472.97 681.094 477.646 676.881 Q482.322 672.668 482.322 665.446 Q482.322 658.224 477.646 654.011 Q472.97 649.798 464.961 649.798 Q461.211 649.798 457.461 650.631 Q453.757 651.465 449.868 653.224 L449.868 618.502 Z" fill="#000000" fill-rule="nonzero" fill-opacity="1" /><path clip-path="url(#clip870)" d="M530.099 624.659 Q522.877 624.659 519.22 631.789 Q515.608 638.872 515.608 653.131 Q515.608 667.344 519.22 674.474 Q522.877 681.557 530.099 681.557 Q537.368 681.557 540.979 674.474 Q544.636 667.344 544.636 653.131 Q544.636 638.872 540.979 631.789 Q537.368 624.659 530.099 624.659 M530.099 617.252 Q541.719 617.252 547.831 626.465 Q553.988 635.631 553.988 653.131 Q553.988 670.585 547.831 679.798 Q541.719 688.964 530.099 688.964 Q518.479 688.964 512.321 679.798 Q506.21 670.585 506.21 653.131 Q506.21 635.631 512.321 626.465 Q518.479 617.252 530.099 617.252 Z" fill="#000000" fill-rule="nonzero" fill-opacity="1" /><path clip-path="url(#clip870)" d="M570.423 675.863 L580.191 675.863 L580.191 687.622 L570.423 687.622 L570.423 675.863 Z" fill="#000000" fill-rule="nonzero" fill-opacity="1" /><path clip-path="url(#clip870)" d="M620.562 624.659 Q613.339 624.659 609.682 631.789 Q606.071 638.872 606.071 653.131 Q606.071 667.344 609.682 674.474 Q613.339 681.557 620.562 681.557 Q627.83 681.557 631.441 674.474 Q635.099 667.344 635.099 653.131 Q635.099 638.872 631.441 631.789 Q627.83 624.659 620.562 624.659 M620.562 617.252 Q632.182 617.252 638.293 626.465 Q644.45 635.631 644.45 653.131 Q644.45 670.585 638.293 679.798 Q632.182 688.964 620.562 688.964 Q608.941 688.964 602.784 679.798 Q596.673 670.585 596.673 653.131 Q596.673 635.631 602.784 626.465 Q608.941 617.252 620.562 617.252 Z" fill="#000000" fill-rule="nonzero" fill-opacity="1" /><path clip-path="url(#clip870)" d="M391.072 421.403 L406.35 421.403 L406.35 368.672 L389.73 372.005 L389.73 363.487 L406.257 360.153 L415.609 360.153 L415.609 421.403 L430.887 421.403 L430.887 429.273 L391.072 429.273 L391.072 421.403 Z" fill="#000000" fill-rule="nonzero" fill-opacity="1" /><path clip-path="url(#clip870)" d="M447.414 360.153 L491.859 360.153 L491.859 364.135 L466.766 429.273 L456.998 429.273 L480.609 368.024 L447.414 368.024 L447.414 360.153 Z" fill="#000000" fill-rule="nonzero" fill-opacity="1" /><path clip-path="url(#clip870)" d="M510.192 360.153 L546.905 360.153 L546.905 368.024 L518.757 368.024 L518.757 384.968 Q520.794 384.274 522.831 383.949 Q524.868 383.579 526.905 383.579 Q538.479 383.579 545.238 389.922 Q551.997 396.264 551.997 407.097 Q551.997 418.255 545.053 424.458 Q538.108 430.616 525.47 430.616 Q521.118 430.616 516.581 429.875 Q512.09 429.134 507.275 427.653 L507.275 418.255 Q511.442 420.523 515.886 421.634 Q520.331 422.746 525.284 422.746 Q533.294 422.746 537.969 418.533 Q542.645 414.32 542.645 407.097 Q542.645 399.875 537.969 395.662 Q533.294 391.449 525.284 391.449 Q521.534 391.449 517.784 392.283 Q514.081 393.116 510.192 394.875 L510.192 360.153 Z" fill="#000000" fill-rule="nonzero" fill-opacity="1" /><path clip-path="url(#clip870)" d="M570.423 417.514 L580.191 417.514 L580.191 429.273 L570.423 429.273 L570.423 417.514 Z" fill="#000000" fill-rule="nonzero" fill-opacity="1" /><path clip-path="url(#clip870)" d="M620.562 366.311 Q613.339 366.311 609.682 373.44 Q606.071 380.524 606.071 394.783 Q606.071 408.996 609.682 416.125 Q613.339 423.208 620.562 423.208 Q627.83 423.208 631.441 416.125 Q635.099 408.996 635.099 394.783 Q635.099 380.524 631.441 373.44 Q627.83 366.311 620.562 366.311 M620.562 358.903 Q632.182 358.903 638.293 368.116 Q644.45 377.283 644.45 394.783 Q644.45 412.236 638.293 421.449 Q632.182 430.616 620.562 430.616 Q608.941 430.616 602.784 421.449 Q596.673 412.236 596.673 394.783 Q596.673 377.283 602.784 368.116 Q608.941 358.903 620.562 358.903 Z" fill="#000000" fill-rule="nonzero" fill-opacity="1" /><path clip-path="url(#clip870)" d="M397.507 163.054 L430.146 163.054 L430.146 170.925 L386.257 170.925 L386.257 163.054 Q391.581 157.545 400.748 148.286 Q409.961 138.98 412.322 136.295 Q416.813 131.249 418.572 127.777 Q420.378 124.258 420.378 120.879 Q420.378 115.369 416.489 111.897 Q412.646 108.425 406.442 108.425 Q402.044 108.425 397.137 109.953 Q392.276 111.481 386.72 114.582 L386.72 105.138 Q392.368 102.87 397.276 101.712 Q402.183 100.555 406.257 100.555 Q416.998 100.555 423.387 105.925 Q429.776 111.295 429.776 120.277 Q429.776 124.536 428.155 128.379 Q426.581 132.175 422.368 137.36 Q421.211 138.703 415.007 145.138 Q408.803 151.527 397.507 163.054 Z" fill="#000000" fill-rule="nonzero" fill-opacity="1" /><path clip-path="url(#clip870)" d="M469.775 107.962 Q462.553 107.962 458.896 115.092 Q455.285 122.175 455.285 136.434 Q455.285 150.647 458.896 157.777 Q462.553 164.86 469.775 164.86 Q477.044 164.86 480.655 157.777 Q484.312 150.647 484.312 136.434 Q484.312 122.175 480.655 115.092 Q477.044 107.962 469.775 107.962 M469.775 100.555 Q481.396 100.555 487.507 109.768 Q493.664 118.934 493.664 136.434 Q493.664 153.888 487.507 163.101 Q481.396 172.267 469.775 172.267 Q458.155 172.267 451.998 163.101 Q445.887 153.888 445.887 136.434 Q445.887 118.934 451.998 109.768 Q458.155 100.555 469.775 100.555 Z" fill="#000000" fill-rule="nonzero" fill-opacity="1" /><path clip-path="url(#clip870)" d="M530.099 107.962 Q522.877 107.962 519.22 115.092 Q515.608 122.175 515.608 136.434 Q515.608 150.647 519.22 157.777 Q522.877 164.86 530.099 164.86 Q537.368 164.86 540.979 157.777 Q544.636 150.647 544.636 136.434 Q544.636 122.175 540.979 115.092 Q537.368 107.962 530.099 107.962 M530.099 100.555 Q541.719 100.555 547.831 109.768 Q553.988 118.934 553.988 136.434 Q553.988 153.888 547.831 163.101 Q541.719 172.267 530.099 172.267 Q518.479 172.267 512.321 163.101 Q506.21 153.888 506.21 136.434 Q506.21 118.934 512.321 109.768 Q518.479 100.555 530.099 100.555 Z" fill="#000000" fill-rule="nonzero" fill-opacity="1" /><path clip-path="url(#clip870)" d="M570.423 159.166 L580.191 159.166 L580.191 170.925 L570.423 170.925 L570.423 159.166 Z" fill="#000000" fill-rule="nonzero" fill-opacity="1" /><path clip-path="url(#clip870)" d="M620.562 107.962 Q613.339 107.962 609.682 115.092 Q606.071 122.175 606.071 136.434 Q606.071 150.647 609.682 157.777 Q613.339 164.86 620.562 164.86 Q627.83 164.86 631.441 157.777 Q635.099 150.647 635.099 136.434 Q635.099 122.175 631.441 115.092 Q627.83 107.962 620.562 107.962 M620.562 100.555 Q632.182 100.555 638.293 109.768 Q644.45 118.934 644.45 136.434 Q644.45 153.888 638.293 163.101 Q632.182 172.267 620.562 172.267 Q608.941 172.267 602.784 163.101 Q596.673 153.888 596.673 136.434 Q596.673 118.934 602.784 109.768 Q608.941 100.555 620.562 100.555 Z" fill="#000000" fill-rule="nonzero" fill-opacity="1" /><path clip-path="url(#clip870)" d="M253.187 1099.45 L264.136 1099.45 Q261.398 1104.42 260.062 1109.45 Q258.661 1114.41 258.661 1119.51 Q258.661 1130.9 265.918 1137.2 Q273.111 1143.51 286.161 1143.51 Q299.211 1143.51 306.468 1137.2 Q313.661 1130.9 313.661 1119.51 Q313.661 1114.41 312.324 1109.45 Q310.924 1104.42 308.186 1099.45 L319.008 1099.45 Q321.3 1104.36 322.446 1109.64 Q323.591 1114.86 323.591 1120.78 Q323.591 1136.88 313.47 1146.37 Q303.348 1155.85 286.161 1155.85 Q268.719 1155.85 258.725 1146.31 Q248.731 1136.69 248.731 1120.02 Q248.731 1114.6 249.876 1109.45 Q250.959 1104.29 253.187 1099.45 Z" fill="#000000" fill-rule="nonzero" fill-opacity="1" /><path clip-path="url(#clip870)" d="M258.661 1051.46 Q258.661 1060.88 266.045 1066.35 Q273.366 1071.83 286.161 1071.83 Q298.956 1071.83 306.34 1066.42 Q313.661 1060.94 313.661 1051.46 Q313.661 1042.1 306.277 1036.62 Q298.892 1031.15 286.161 1031.15 Q273.493 1031.15 266.109 1036.62 Q258.661 1042.1 258.661 1051.46 M248.731 1051.46 Q248.731 1036.18 258.661 1027.46 Q268.592 1018.74 286.161 1018.74 Q303.667 1018.74 313.661 1027.46 Q323.591 1036.18 323.591 1051.46 Q323.591 1066.8 313.661 1075.52 Q303.667 1084.18 286.161 1084.18 Q268.592 1084.18 258.661 1075.52 Q248.731 1066.8 248.731 1051.46 Z" fill="#000000" fill-rule="nonzero" fill-opacity="1" /><path clip-path="url(#clip870)" d="M278.713 940.057 L321.745 940.057 L321.745 951.77 L279.095 951.77 Q268.974 951.77 263.945 955.717 Q258.916 959.663 258.916 967.557 Q258.916 977.042 264.963 982.516 Q271.011 987.991 281.45 987.991 L321.745 987.991 L321.745 999.767 L250.449 999.767 L250.449 987.991 L261.526 987.991 Q255.096 983.789 251.914 978.124 Q248.731 972.395 248.731 964.947 Q248.731 952.661 256.37 946.359 Q263.945 940.057 278.713 940.057 Z" fill="#000000" fill-rule="nonzero" fill-opacity="1" /><path clip-path="url(#clip870)" d="M253.187 865.387 L264.136 865.387 Q261.398 870.353 260.062 875.381 Q258.661 880.347 258.661 885.439 Q258.661 896.834 265.918 903.136 Q273.111 909.438 286.161 909.438 Q299.211 909.438 306.468 903.136 Q313.661 896.834 313.661 885.439 Q313.661 880.347 312.324 875.381 Q310.924 870.353 308.186 865.387 L319.008 865.387 Q321.3 870.289 322.446 875.572 Q323.591 880.792 323.591 886.712 Q323.591 902.818 313.47 912.303 Q303.348 921.787 286.161 921.787 Q268.719 921.787 258.725 912.239 Q248.731 902.627 248.731 885.949 Q248.731 880.538 249.876 875.381 Q250.959 870.225 253.187 865.387 Z" fill="#000000" fill-rule="nonzero" fill-opacity="1" /><path clip-path="url(#clip870)" d="M305.576 843.362 L305.576 829.93 L321.745 829.93 L321.745 843.362 L305.576 843.362 Z" fill="#000000" fill-rule="nonzero" fill-opacity="1" /><path clip-path="url(#clip870)" d="M250.449 770.538 L250.449 758.125 L310.287 735.845 L250.449 713.565 L250.449 701.152 L321.745 727.888 L321.745 743.802 L250.449 770.538 Z" fill="#000000" fill-rule="nonzero" fill-opacity="1" /><path clip-path="url(#clip870)" d="M283.169 624 L288.898 624 L288.898 677.854 Q300.993 677.09 307.359 670.597 Q313.661 664.04 313.661 652.391 Q313.661 645.643 312.006 639.341 Q310.351 632.975 307.041 626.737 L318.117 626.737 Q320.79 633.039 322.191 639.659 Q323.591 646.28 323.591 653.091 Q323.591 670.151 313.661 680.145 Q303.73 690.076 286.798 690.076 Q269.292 690.076 259.043 680.654 Q248.731 671.17 248.731 655.128 Q248.731 640.742 258.025 632.402 Q267.255 624 283.169 624 M279.732 635.713 Q270.119 635.84 264.39 641.123 Q258.661 646.343 258.661 655.001 Q258.661 664.804 264.199 670.724 Q269.737 676.58 279.795 677.472 L279.732 635.713 Z" fill="#000000" fill-rule="nonzero" fill-opacity="1" /><path clip-path="url(#clip870)" d="M278.713 545.511 L321.745 545.511 L321.745 557.223 L279.095 557.223 Q268.974 557.223 263.945 561.17 Q258.916 565.117 258.916 573.01 Q258.916 582.495 264.963 587.97 Q271.011 593.444 281.45 593.444 L321.745 593.444 L321.745 605.221 L250.449 605.221 L250.449 593.444 L261.526 593.444 Q255.096 589.243 251.914 583.577 Q248.731 577.848 248.731 570.4 Q248.731 558.115 256.37 551.813 Q263.945 545.511 278.713 545.511 Z" fill="#000000" fill-rule="nonzero" fill-opacity="1" /><path clip-path="url(#clip870)" d="M230.206 510.563 L250.449 510.563 L250.449 486.437 L259.552 486.437 L259.552 510.563 L298.256 510.563 Q306.977 510.563 309.459 508.207 Q311.942 505.789 311.942 498.468 L311.942 486.437 L321.745 486.437 L321.745 498.468 Q321.745 512.027 316.716 517.183 Q311.624 522.339 298.256 522.339 L259.552 522.339 L259.552 530.933 L250.449 530.933 L250.449 522.339 L230.206 522.339 L230.206 510.563 Z" fill="#000000" fill-rule="nonzero" fill-opacity="1" /><path clip-path="url(#clip870)" d="M261.398 429.718 Q260.253 431.692 259.743 434.047 Q259.17 436.339 259.17 439.14 Q259.17 449.07 265.663 454.417 Q272.093 459.701 284.188 459.701 L321.745 459.701 L321.745 471.477 L250.449 471.477 L250.449 459.701 L261.526 459.701 Q255.033 456.009 251.914 450.089 Q248.731 444.168 248.731 435.702 Q248.731 434.493 248.922 433.028 Q249.049 431.564 249.367 429.782 L261.398 429.718 Z" fill="#000000" fill-rule="nonzero" fill-opacity="1" /><path clip-path="url(#clip870)" d="M250.449 417.433 L250.449 405.72 L321.745 405.72 L321.745 417.433 L250.449 417.433 M222.695 417.433 L222.695 405.72 L237.527 405.72 L237.527 417.433 L222.695 417.433 Z" fill="#000000" fill-rule="nonzero" fill-opacity="1" /><path clip-path="url(#clip870)" d="M253.187 329.904 L264.136 329.904 Q261.398 334.869 260.062 339.898 Q258.661 344.863 258.661 349.956 Q258.661 361.351 265.918 367.653 Q273.111 373.955 286.161 373.955 Q299.211 373.955 306.468 367.653 Q313.661 361.351 313.661 349.956 Q313.661 344.863 312.324 339.898 Q310.924 334.869 308.186 329.904 L319.008 329.904 Q321.3 334.806 322.446 340.089 Q323.591 345.309 323.591 351.229 Q323.591 367.334 313.47 376.819 Q303.348 386.304 286.161 386.304 Q268.719 386.304 258.725 376.756 Q248.731 367.143 248.731 350.465 Q248.731 345.054 249.876 339.898 Q250.959 334.742 253.187 329.904 Z" fill="#000000" fill-rule="nonzero" fill-opacity="1" /><path clip-path="url(#clip870)" d="M222.695 309.534 L222.695 297.821 L321.745 297.821 L321.745 309.534 L222.695 309.534 Z" fill="#000000" fill-rule="nonzero" fill-opacity="1" /><path clip-path="url(#clip870)" d="M283.169 212.329 L288.898 212.329 L288.898 266.183 Q300.993 265.419 307.359 258.926 Q313.661 252.37 313.661 240.721 Q313.661 233.973 312.006 227.671 Q310.351 221.305 307.041 215.067 L318.117 215.067 Q320.79 221.369 322.191 227.989 Q323.591 234.609 323.591 241.421 Q323.591 258.481 313.661 268.475 Q303.73 278.405 286.798 278.405 Q269.292 278.405 259.043 268.984 Q248.731 259.499 248.731 243.458 Q248.731 229.071 258.025 220.732 Q267.255 212.329 283.169 212.329 M279.732 224.042 Q270.119 224.17 264.39 229.453 Q258.661 234.673 258.661 243.33 Q258.661 253.134 264.199 259.054 Q269.737 264.91 279.795 265.801 L279.732 224.042 Z" fill="#000000" fill-rule="nonzero" fill-opacity="1" /><polyline clip-path="url(#clip872)" style="stroke:#008000; stroke-linecap:round; stroke-linejoin:round; stroke-width:8; stroke-opacity:1; fill:none" points="726.443,264.559 854.199,319.063 981.955,330.099 1109.71,224.704 1237.47,480.372 1365.22,385.034 1492.98,537.455 1620.74,543.89 1748.49,777.181 1876.25,779.509 2004.01,701.891 2131.76,736.283 2259.52,911.7 "/>
<circle clip-path="url(#clip872)" cx="726.443" cy="264.559" r="14.4" fill="#008000" fill-rule="evenodd" fill-opacity="1" stroke="#000000" stroke-opacity="1" stroke-width="6.4"/>
<circle clip-path="url(#clip872)" cx="854.199" cy="319.063" r="14.4" fill="#008000" fill-rule="evenodd" fill-opacity="1" stroke="#000000" stroke-opacity="1" stroke-width="6.4"/>
<circle clip-path="url(#clip872)" cx="981.955" cy="330.099" r="14.4" fill="#008000" fill-rule="evenodd" fill-opacity="1" stroke="#000000" stroke-opacity="1" stroke-width="6.4"/>
<circle clip-path="url(#clip872)" cx="1109.71" cy="224.704" r="14.4" fill="#008000" fill-rule="evenodd" fill-opacity="1" stroke="#000000" stroke-opacity="1" stroke-width="6.4"/>
<circle clip-path="url(#clip872)" cx="1237.47" cy="480.372" r="14.4" fill="#008000" fill-rule="evenodd" fill-opacity="1" stroke="#000000" stroke-opacity="1" stroke-width="6.4"/>
<circle clip-path="url(#clip872)" cx="1365.22" cy="385.034" r="14.4" fill="#008000" fill-rule="evenodd" fill-opacity="1" stroke="#000000" stroke-opacity="1" stroke-width="6.4"/>
<circle clip-path="url(#clip872)" cx="1492.98" cy="537.455" r="14.4" fill="#008000" fill-rule="evenodd" fill-opacity="1" stroke="#000000" stroke-opacity="1" stroke-width="6.4"/>
<circle clip-path="url(#clip872)" cx="1620.74" cy="543.89" r="14.4" fill="#008000" fill-rule="evenodd" fill-opacity="1" stroke="#000000" stroke-opacity="1" stroke-width="6.4"/>
<circle clip-path="url(#clip872)" cx="1748.49" cy="777.181" r="14.4" fill="#008000" fill-rule="evenodd" fill-opacity="1" stroke="#000000" stroke-opacity="1" stroke-width="6.4"/>
<circle clip-path="url(#clip872)" cx="1876.25" cy="779.509" r="14.4" fill="#008000" fill-rule="evenodd" fill-opacity="1" stroke="#000000" stroke-opacity="1" stroke-width="6.4"/>
<circle clip-path="url(#clip872)" cx="2004.01" cy="701.891" r="14.4" fill="#008000" fill-rule="evenodd" fill-opacity="1" stroke="#000000" stroke-opacity="1" stroke-width="6.4"/>
<circle clip-path="url(#clip872)" cx="2131.76" cy="736.283" r="14.4" fill="#008000" fill-rule="evenodd" fill-opacity="1" stroke="#000000" stroke-opacity="1" stroke-width="6.4"/>
<circle clip-path="url(#clip872)" cx="2259.52" cy="911.7" r="14.4" fill="#008000" fill-rule="evenodd" fill-opacity="1" stroke="#000000" stroke-opacity="1" stroke-width="6.4"/>
<polyline clip-path="url(#clip872)" style="stroke:#00008b; stroke-linecap:round; stroke-linejoin:round; stroke-width:8; stroke-opacity:1; fill:none" points="726.443,258.41 854.199,376.514 981.955,477.656 1109.71,575.808 1237.47,655.183 1365.22,728.051 1492.98,807.877 1620.74,864.442 1748.49,925.681 1876.25,980.841 2004.01,1027.91 2131.76,1078.15 2259.52,1118.6 "/>
<path clip-path="url(#clip872)" d="M726.443 382.348 L854.199 502.088 L981.955 601.766 L1109.71 702.054 L1237.47 776.339 L1365.22 853.7 L1492.98 929.232 L1620.74 985.187 L1748.49 1047.99 L1876.25 1096.46 L2004.01 1148.02 L2131.76 1198.43 L2259.52 1240.32 L2259.52 991.689 L2131.76 947.781 L2004.01 906.598 L1876.25 860.884 L1748.49 803.671 L1620.74 742.226 L1492.98 683.066 L1365.22 602.028 L1237.47 529.995 L1109.71 445.755 L981.955 355.056 L854.199 252.477 L726.443 127.862  Z" fill="#0000ff" fill-rule="evenodd" fill-opacity="0.1"/>
<polyline clip-path="url(#clip872)" style="stroke:#0000ff; stroke-linecap:round; stroke-linejoin:round; stroke-width:0; stroke-opacity:0.1; fill:none" points="726.443,382.348 854.199,502.088 981.955,601.766 1109.71,702.054 1237.47,776.339 1365.22,853.7 1492.98,929.232 1620.74,985.187 1748.49,1047.99 1876.25,1096.46 2004.01,1148.02 2131.76,1198.43 2259.52,1240.32 "/>
</svg>
