<?xml version="1.0" encoding="utf-8"?>
<svg xmlns="http://www.w3.org/2000/svg" xmlns:xlink="http://www.w3.org/1999/xlink" width="600" height="400" viewBox="0 0 2400 1600">
<defs>
  <clipPath id="clip180">
    <rect x="0" y="0" width="2400" height="1600"/>
  </clipPath>
</defs>
<path clip-path="url(#clip180)" d="M0 1600 L2400 1600 L2400 0 L0 0  Z" fill="#ffffff" fill-rule="evenodd" fill-opacity="1"/>
<defs>
  <clipPath id="clip181">
    <rect x="480" y="0" width="1681" height="1600"/>
  </clipPath>
</defs>
<path clip-path="url(#clip180)" d="M680.45 1273.7 L2305.51 1273.7 L2305.51 94.4882 L680.45 94.4882  Z" fill="#ffffff" fill-rule="evenodd" fill-opacity="1"/>
<defs>
  <clipPath id="clip182">
    <rect x="680" y="94" width="1626" height="1180"/>
  </clipPath>
</defs>
<polyline clip-path="url(#clip182)" style="stroke:#000000; stroke-linecap:round; stroke-linejoin:round; stroke-width:4; stroke-opacity:0.1; fill:none" points="726.443,1273.7 726.443,94.4882 "/>
<polyline clip-path="url(#clip182)" style="stroke:#000000; stroke-linecap:round; stroke-linejoin:round; stroke-width:4; stroke-opacity:0.1; fill:none" points="1045.83,1273.7 1045.83,94.4882 "/>
<polyline clip-path="url(#clip182)" style="stroke:#000000; stroke-linecap:round; stroke-linejoin:round; stroke-width:4; stroke-opacity:0.1; fill:none" points="1365.22,1273.7 1365.22,94.4882 "/>
<polyline clip-path="url(#clip182)" style="stroke:#000000; stroke-linecap:round; stroke-linejoin:round; stroke-width:4; stroke-opacity:0.1; fill:none" points="1684.62,1273.7 1684.62,94.4882 "/>
<polyline clip-path="url(#clip182)" style="stroke:#000000; stroke-linecap:round; stroke-linejoin:round; stroke-width:4; stroke-opacity:0.1; fill:none" points="2004.01,1273.7 2004.01,94.4882 "/>
<polyline clip-path="url(#clip180)" style="stroke:#000000; stroke-linecap:round; stroke-linejoin:round; stroke-width:8; stroke-opacity:1; fill:none" points="680.45,1273.7 2305.51,1273.7 "/>
<polyline clip-path="url(#clip180)" style="stroke:#000000; stroke-linecap:round; stroke-linejoin:round; stroke-width:8; stroke-opacity:1; fill:none" points="726.443,1273.7 726.443,1254.8 "/>
<polyline clip-path="url(#clip180)" style="stroke:#000000; stroke-linecap:round; stroke-linejoin:round; stroke-width:8; stroke-opacity:1; fill:none" points="1045.83,1273.7 1045.83,1254.8 "/>
<polyline clip-path="url(#clip180)" style="stroke:#000000; stroke-linecap:round; stroke-linejoin:round; stroke-width:8; stroke-opacity:1; fill:none" points="1365.22,1273.7 1365.22,1254.8 "/>
<polyline clip-path="url(#clip180)" style="stroke:#000000; stroke-linecap:round; stroke-linejoin:round; stroke-width:8; stroke-opacity:1; fill:none" points="1684.62,1273.7 1684.62,1254.8 "/>
<polyline clip-path="url(#clip180)" style="stroke:#000000; stroke-linecap:round; stroke-linejoin:round; stroke-width:8; stroke-opacity:1; fill:none" points="2004.01,1273.7 2004.01,1254.8 "/>
<path clip-path="url(#clip180)" d="M651.05 1316.33 Q643.827 1316.33 640.17 1323.46 Q636.559 1330.55 636.559 1344.81 Q636.559 1359.02 640.17 1366.15 Q643.827 1373.23 651.05 1373.23 Q658.318 1373.23 661.929 1366.15 Q665.587 1359.02 665.587 1344.81 Q665.587 1330.55 661.929 1323.46 Q658.318 1316.33 651.05 1316.33 M651.05 1308.93 Q662.67 1308.93 668.781 1318.14 Q674.938 1327.31 674.938 1344.81 Q674.938 1362.26 668.781 1371.47 Q662.67 1380.64 651.05 1380.64 Q639.429 1380.64 633.272 1371.47 Q627.161 1362.26 627.161 1344.81 Q627.161 1327.31 633.272 1318.14 Q639.429 1308.93 651.05 1308.93 Z" fill="#000000" fill-rule="nonzero" fill-opacity="1" /><path clip-path="url(#clip180)" d="M691.373 1367.54 L701.142 1367.54 L701.142 1379.3 L691.373 1379.3 L691.373 1367.54 Z" fill="#000000" fill-rule="nonzero" fill-opacity="1" /><path clip-path="url(#clip180)" d="M741.512 1316.33 Q734.29 1316.33 730.632 1323.46 Q727.021 1330.55 727.021 1344.81 Q727.021 1359.02 730.632 1366.15 Q734.29 1373.23 741.512 1373.23 Q748.781 1373.23 752.392 1366.15 Q756.049 1359.02 756.049 1344.81 Q756.049 1330.55 752.392 1323.46 Q748.781 1316.33 741.512 1316.33 M741.512 1308.93 Q753.132 1308.93 759.243 1318.14 Q765.401 1327.31 765.401 1344.81 Q765.401 1362.26 759.243 1371.47 Q753.132 1380.64 741.512 1380.64 Q729.892 1380.64 723.734 1371.47 Q717.623 1362.26 717.623 1344.81 Q717.623 1327.31 723.734 1318.14 Q729.892 1308.93 741.512 1308.93 Z" fill="#000000" fill-rule="nonzero" fill-opacity="1" /><path clip-path="url(#clip180)" d="M801.836 1316.33 Q794.614 1316.33 790.956 1323.46 Q787.345 1330.55 787.345 1344.81 Q787.345 1359.02 790.956 1366.15 Q794.614 1373.23 801.836 1373.23 Q809.104 1373.23 812.715 1366.15 Q816.373 1359.02 816.373 1344.81 Q816.373 1330.55 812.715 1323.46 Q809.104 1316.33 801.836 1316.33 M801.836 1308.93 Q813.456 1308.93 819.567 1318.14 Q825.725 1327.31 825.725 1344.81 Q825.725 1362.26 819.567 1371.47 Q813.456 1380.64 801.836 1380.64 Q790.215 1380.64 784.058 1371.47 Q777.947 1362.26 777.947 1344.81 Q777.947 1327.31 784.058 1318.14 Q790.215 1308.93 801.836 1308.93 Z" fill="#000000" fill-rule="nonzero" fill-opacity="1" /><path clip-path="url(#clip180)" d="M971.436 1316.33 Q964.214 1316.33 960.556 1323.46 Q956.945 1330.55 956.945 1344.81 Q956.945 1359.02 960.556 1366.15 Q964.214 1373.23 971.436 1373.23 Q978.704 1373.23 982.316 1366.15 Q985.973 1359.02 985.973 1344.81 Q985.973 1330.55 982.316 1323.46 Q978.704 1316.33 971.436 1316.33 M971.436 1308.93 Q983.056 1308.93 989.167 1318.14 Q995.325 1327.31 995.325 1344.81 Q995.325 1362.26 989.167 1371.47 Q983.056 1380.64 971.436 1380.64 Q959.816 1380.64 953.658 1371.47 Q947.547 1362.26 947.547 1344.81 Q947.547 1327.31 953.658 1318.14 Q959.816 1308.93 971.436 1308.93 Z" fill="#000000" fill-rule="nonzero" fill-opacity="1" /><path clip-path="url(#clip180)" d="M1011.76 1367.54 L1021.53 1367.54 L1021.53 1379.3 L1011.76 1379.3 L1011.76 1367.54 Z" fill="#000000" fill-rule="nonzero" fill-opacity="1" /><path clip-path="url(#clip180)" d="M1049.95 1371.43 L1082.59 1371.43 L1082.59 1379.3 L1038.7 1379.3 L1038.7 1371.43 Q1044.03 1365.92 1053.19 1356.66 Q1062.41 1347.35 1064.77 1344.67 Q1069.26 1339.62 1071.02 1336.15 Q1072.82 1332.63 1072.82 1329.25 Q1072.82 1323.74 1068.94 1320.27 Q1065.09 1316.8 1058.89 1316.8 Q1054.49 1316.8 1049.58 1318.32 Q1044.72 1319.85 1039.17 1322.95 L1039.17 1313.51 Q1044.82 1311.24 1049.72 1310.08 Q1054.63 1308.93 1058.7 1308.93 Q1069.44 1308.93 1075.83 1314.3 Q1082.22 1319.67 1082.22 1328.65 Q1082.22 1332.91 1080.6 1336.75 Q1079.03 1340.55 1074.82 1345.73 Q1073.66 1347.07 1067.45 1353.51 Q1061.25 1359.9 1049.95 1371.43 Z" fill="#000000" fill-rule="nonzero" fill-opacity="1" /><path clip-path="url(#clip180)" d="M1102.31 1310.18 L1139.03 1310.18 L1139.03 1318.05 L1110.88 1318.05 L1110.88 1334.99 Q1112.92 1334.3 1114.95 1333.97 Q1116.99 1333.6 1119.03 1333.6 Q1130.6 1333.6 1137.36 1339.94 Q1144.12 1346.29 1144.12 1357.12 Q1144.12 1368.28 1137.18 1374.48 Q1130.23 1380.64 1117.59 1380.64 Q1113.24 1380.64 1108.7 1379.9 Q1104.21 1379.16 1099.4 1377.68 L1099.4 1368.28 Q1103.56 1370.55 1108.01 1371.66 Q1112.45 1372.77 1117.41 1372.77 Q1125.42 1372.77 1130.09 1368.56 Q1134.77 1364.34 1134.77 1357.12 Q1134.77 1349.9 1130.09 1345.68 Q1125.42 1341.47 1117.41 1341.47 Q1113.66 1341.47 1109.91 1342.31 Q1106.2 1343.14 1102.31 1344.9 L1102.31 1310.18 Z" fill="#000000" fill-rule="nonzero" fill-opacity="1" /><path clip-path="url(#clip180)" d="M1289.83 1316.33 Q1282.61 1316.33 1278.95 1323.46 Q1275.34 1330.55 1275.34 1344.81 Q1275.34 1359.02 1278.95 1366.15 Q1282.61 1373.23 1289.83 1373.23 Q1297.1 1373.23 1300.71 1366.15 Q1304.37 1359.02 1304.37 1344.81 Q1304.37 1330.55 1300.71 1323.46 Q1297.1 1316.33 1289.83 1316.33 M1289.83 1308.93 Q1301.45 1308.93 1307.56 1318.14 Q1313.72 1327.31 1313.72 1344.81 Q1313.72 1362.26 1307.56 1371.47 Q1301.45 1380.64 1289.83 1380.64 Q1278.21 1380.64 1272.05 1371.47 Q1265.94 1362.26 1265.94 1344.81 Q1265.94 1327.31 1272.05 1318.14 Q1278.21 1308.93 1289.83 1308.93 Z" fill="#000000" fill-rule="nonzero" fill-opacity="1" /><path clip-path="url(#clip180)" d="M1330.16 1367.54 L1339.92 1367.54 L1339.92 1379.3 L1330.16 1379.3 L1330.16 1367.54 Z" fill="#000000" fill-rule="nonzero" fill-opacity="1" /><path clip-path="url(#clip180)" d="M1360.39 1310.18 L1397.1 1310.18 L1397.1 1318.05 L1368.95 1318.05 L1368.95 1334.99 Q1370.99 1334.3 1373.03 1333.97 Q1375.06 1333.6 1377.1 1333.6 Q1388.67 1333.6 1395.43 1339.94 Q1402.19 1346.29 1402.19 1357.12 Q1402.19 1368.28 1395.25 1374.48 Q1388.3 1380.64 1375.66 1380.64 Q1371.31 1380.64 1366.78 1379.9 Q1362.28 1379.16 1357.47 1377.68 L1357.47 1368.28 Q1361.64 1370.55 1366.08 1371.66 Q1370.53 1372.77 1375.48 1372.77 Q1383.49 1372.77 1388.16 1368.56 Q1392.84 1364.34 1392.84 1357.12 Q1392.84 1349.9 1388.16 1345.68 Q1383.49 1341.47 1375.48 1341.47 Q1371.73 1341.47 1367.98 1342.31 Q1364.28 1343.14 1360.39 1344.9 L1360.39 1310.18 Z" fill="#000000" fill-rule="nonzero" fill-opacity="1" /><path clip-path="url(#clip180)" d="M1440.62 1316.33 Q1433.4 1316.33 1429.74 1323.46 Q1426.13 1330.55 1426.13 1344.81 Q1426.13 1359.02 1429.74 1366.15 Q1433.4 1373.23 1440.62 1373.23 Q1447.89 1373.23 1451.5 1366.15 Q1455.15 1359.02 1455.15 1344.81 Q1455.15 1330.55 1451.5 1323.46 Q1447.89 1316.33 1440.62 1316.33 M1440.62 1308.93 Q1452.24 1308.93 1458.35 1318.14 Q1464.51 1327.31 1464.51 1344.81 Q1464.51 1362.26 1458.35 1371.47 Q1452.24 1380.64 1440.62 1380.64 Q1429 1380.64 1422.84 1371.47 Q1416.73 1362.26 1416.73 1344.81 Q1416.73 1327.31 1422.84 1318.14 Q1429 1308.93 1440.62 1308.93 Z" fill="#000000" fill-rule="nonzero" fill-opacity="1" /><path clip-path="url(#clip180)" d="M1610.22 1316.33 Q1603 1316.33 1599.34 1323.46 Q1595.73 1330.55 1595.73 1344.81 Q1595.73 1359.02 1599.34 1366.15 Q1603 1373.23 1610.22 1373.23 Q1617.49 1373.23 1621.1 1366.15 Q1624.75 1359.02 1624.75 1344.81 Q1624.75 1330.55 1621.1 1323.46 Q1617.49 1316.33 1610.22 1316.33 M1610.22 1308.93 Q1621.84 1308.93 1627.95 1318.14 Q1634.11 1327.31 1634.11 1344.81 Q1634.11 1362.26 1627.95 1371.47 Q1621.84 1380.64 1610.22 1380.64 Q1598.6 1380.64 1592.44 1371.47 Q1586.33 1362.26 1586.33 1344.81 Q1586.33 1327.31 1592.44 1318.14 Q1598.6 1308.93 1610.22 1308.93 Z" fill="#000000" fill-rule="nonzero" fill-opacity="1" /><path clip-path="url(#clip180)" d="M1650.54 1367.54 L1660.31 1367.54 L1660.31 1379.3 L1650.54 1379.3 L1650.54 1367.54 Z" fill="#000000" fill-rule="nonzero" fill-opacity="1" /><path clip-path="url(#clip180)" d="M1678.32 1310.18 L1722.76 1310.18 L1722.76 1314.16 L1697.67 1379.3 L1687.9 1379.3 L1711.51 1318.05 L1678.32 1318.05 L1678.32 1310.18 Z" fill="#000000" fill-rule="nonzero" fill-opacity="1" /><path clip-path="url(#clip180)" d="M1741.1 1310.18 L1777.81 1310.18 L1777.81 1318.05 L1749.66 1318.05 L1749.66 1334.99 Q1751.7 1334.3 1753.74 1333.97 Q1755.77 1333.6 1757.81 1333.6 Q1769.38 1333.6 1776.14 1339.94 Q1782.9 1346.29 1782.9 1357.12 Q1782.9 1368.28 1775.96 1374.48 Q1769.01 1380.64 1756.37 1380.64 Q1752.02 1380.64 1747.49 1379.9 Q1743 1379.16 1738.18 1377.68 L1738.18 1368.28 Q1742.35 1370.55 1746.79 1371.66 Q1751.24 1372.77 1756.19 1372.77 Q1764.2 1372.77 1768.87 1368.56 Q1773.55 1364.34 1773.55 1357.12 Q1773.55 1349.9 1768.87 1345.68 Q1764.2 1341.47 1756.19 1341.47 Q1752.44 1341.47 1748.69 1342.31 Q1744.99 1343.14 1741.1 1344.9 L1741.1 1310.18 Z" fill="#000000" fill-rule="nonzero" fill-opacity="1" /><path clip-path="url(#clip180)" d="M1908.15 1371.43 L1923.43 1371.43 L1923.43 1318.69 L1906.81 1322.03 L1906.81 1313.51 L1923.34 1310.18 L1932.69 1310.18 L1932.69 1371.43 L1947.97 1371.43 L1947.97 1379.3 L1908.15 1379.3 L1908.15 1371.43 Z" fill="#000000" fill-rule="nonzero" fill-opacity="1" /><path clip-path="url(#clip180)" d="M1966.85 1367.54 L1976.62 1367.54 L1976.62 1379.3 L1966.85 1379.3 L1966.85 1367.54 Z" fill="#000000" fill-rule="nonzero" fill-opacity="1" /><path clip-path="url(#clip180)" d="M2016.99 1316.33 Q2009.77 1316.33 2006.11 1323.46 Q2002.5 1330.55 2002.5 1344.81 Q2002.5 1359.02 2006.11 1366.15 Q2009.77 1373.23 2016.99 1373.23 Q2024.26 1373.23 2027.87 1366.15 Q2031.53 1359.02 2031.53 1344.81 Q2031.53 1330.55 2027.87 1323.46 Q2024.26 1316.33 2016.99 1316.33 M2016.99 1308.93 Q2028.61 1308.93 2034.72 1318.14 Q2040.88 1327.31 2040.88 1344.81 Q2040.88 1362.26 2034.72 1371.47 Q2028.61 1380.64 2016.99 1380.64 Q2005.37 1380.64 1999.22 1371.47 Q1993.1 1362.26 1993.1 1344.81 Q1993.1 1327.31 1999.22 1318.14 Q2005.37 1308.93 2016.99 1308.93 Z" fill="#000000" fill-rule="nonzero" fill-opacity="1" /><path clip-path="url(#clip180)" d="M2077.32 1316.33 Q2070.09 1316.33 2066.44 1323.46 Q2062.83 1330.55 2062.83 1344.81 Q2062.83 1359.02 2066.44 1366.15 Q2070.09 1373.23 2077.32 1373.23 Q2084.58 1373.23 2088.2 1366.15 Q2091.85 1359.02 2091.85 1344.81 Q2091.85 1330.55 2088.2 1323.46 Q2084.58 1316.33 2077.32 1316.33 M2077.32 1308.93 Q2088.94 1308.93 2095.05 1318.14 Q2101.21 1327.31 2101.21 1344.81 Q2101.21 1362.26 2095.05 1371.47 Q2088.94 1380.64 2077.32 1380.64 Q2065.7 1380.64 2059.54 1371.47 Q2053.43 1362.26 2053.43 1344.81 Q2053.43 1327.31 2059.54 1318.14 Q2065.7 1308.93 2077.32 1308.93 Z" fill="#000000" fill-rule="nonzero" fill-opacity="1" /><path clip-path="url(#clip180)" d="M1378.53 1484.39 L1378.53 1527.42 L1366.81 1527.42 L1366.81 1484.77 Q1366.81 1474.65 1362.87 1469.62 Q1358.92 1464.59 1351.03 1464.59 Q1341.54 1464.59 1336.07 1470.64 Q1330.59 1476.69 1330.59 1487.13 L1330.59 1527.42 L1318.82 1527.42 L1318.82 1428.37 L1330.59 1428.37 L1330.59 1467.2 Q1334.79 1460.77 1340.46 1457.59 Q1346.19 1454.41 1353.64 1454.41 Q1365.92 1454.41 1372.22 1462.05 Q1378.53 1469.62 1378.53 1484.39 Z" fill="#000000" fill-rule="nonzero" fill-opacity="1" /><path clip-path="url(#clip180)" d="M1429.51 1464.34 Q1420.09 1464.34 1414.62 1471.72 Q1409.14 1479.04 1409.14 1491.84 Q1409.14 1504.63 1414.56 1512.02 Q1420.03 1519.34 1429.51 1519.34 Q1438.87 1519.34 1444.35 1511.96 Q1449.82 1504.57 1449.82 1491.84 Q1449.82 1479.17 1444.35 1471.79 Q1438.87 1464.34 1429.51 1464.34 M1429.51 1454.41 Q1444.79 1454.41 1453.51 1464.34 Q1462.23 1474.27 1462.23 1491.84 Q1462.23 1509.35 1453.51 1519.34 Q1444.79 1529.27 1429.51 1529.27 Q1414.17 1529.27 1405.45 1519.34 Q1396.8 1509.35 1396.8 1491.84 Q1396.8 1474.27 1405.45 1464.34 Q1414.17 1454.41 1429.51 1454.41 Z" fill="#000000" fill-rule="nonzero" fill-opacity="1" /><path clip-path="url(#clip180)" d="M1480.44 1499.29 L1480.44 1456.13 L1492.15 1456.13 L1492.15 1498.84 Q1492.15 1508.96 1496.1 1514.06 Q1500.05 1519.08 1507.94 1519.08 Q1517.43 1519.08 1522.9 1513.04 Q1528.44 1506.99 1528.44 1496.55 L1528.44 1456.13 L1540.15 1456.13 L1540.15 1527.42 L1528.44 1527.42 L1528.44 1516.47 Q1524.17 1522.97 1518.51 1526.15 Q1512.91 1529.27 1505.46 1529.27 Q1493.17 1529.27 1486.81 1521.63 Q1480.44 1513.99 1480.44 1499.29 M1509.91 1454.41 L1509.91 1454.41 Z" fill="#000000" fill-rule="nonzero" fill-opacity="1" /><path clip-path="url(#clip180)" d="M1605.59 1467.08 Q1603.62 1465.93 1601.26 1465.42 Q1598.97 1464.85 1596.17 1464.85 Q1586.24 1464.85 1580.89 1471.34 Q1575.61 1477.77 1575.61 1489.87 L1575.61 1527.42 L1563.83 1527.42 L1563.83 1456.13 L1575.61 1456.13 L1575.61 1467.2 Q1579.3 1460.71 1585.22 1457.59 Q1591.14 1454.41 1599.61 1454.41 Q1600.82 1454.41 1602.28 1454.6 Q1603.74 1454.73 1605.53 1455.05 L1605.59 1467.08 Z" fill="#000000" fill-rule="nonzero" fill-opacity="1" /><path clip-path="url(#clip180)" d="M1663.33 1458.23 L1663.33 1469.3 Q1658.36 1466.76 1653.01 1465.49 Q1647.67 1464.21 1641.94 1464.21 Q1633.22 1464.21 1628.83 1466.89 Q1624.5 1469.56 1624.5 1474.91 Q1624.5 1478.98 1627.62 1481.34 Q1630.73 1483.63 1640.16 1485.73 L1644.17 1486.62 Q1656.64 1489.29 1661.86 1494.19 Q1667.15 1499.03 1667.15 1507.75 Q1667.15 1517.68 1659.25 1523.48 Q1651.42 1529.27 1637.67 1529.27 Q1631.94 1529.27 1625.71 1528.12 Q1619.53 1527.04 1612.66 1524.81 L1612.66 1512.72 Q1619.15 1516.09 1625.45 1517.81 Q1631.75 1519.47 1637.93 1519.47 Q1646.2 1519.47 1650.66 1516.67 Q1655.12 1513.8 1655.12 1508.64 Q1655.12 1503.87 1651.87 1501.32 Q1648.69 1498.78 1637.8 1496.42 L1633.73 1495.47 Q1622.84 1493.18 1618 1488.47 Q1613.17 1483.69 1613.17 1475.42 Q1613.17 1465.36 1620.3 1459.88 Q1627.42 1454.41 1640.54 1454.41 Q1647.03 1454.41 1652.76 1455.36 Q1658.49 1456.32 1663.33 1458.23 Z" fill="#000000" fill-rule="nonzero" fill-opacity="1" /><polyline clip-path="url(#clip182)" style="stroke:#000000; stroke-linecap:round; stroke-linejoin:round; stroke-width:4; stroke-opacity:0.1; fill:none" points="680.45,1187.76 2305.51,1187.76 "/>
<polyline clip-path="url(#clip182)" style="stroke:#000000; stroke-linecap:round; stroke-linejoin:round; stroke-width:4; stroke-opacity:0.1; fill:none" points="680.45,865.981 2305.51,865.981 "/>
<polyline clip-path="url(#clip182)" style="stroke:#000000; stroke-linecap:round; stroke-linejoin:round; stroke-width:4; stroke-opacity:0.1; fill:none" points="680.45,544.205 2305.51,544.205 "/>
<polyline clip-path="url(#clip182)" style="stroke:#000000; stroke-linecap:round; stroke-linejoin:round; stroke-width:4; stroke-opacity:0.1; fill:none" points="680.45,222.43 2305.51,222.43 "/>
<polyline clip-path="url(#clip180)" style="stroke:#000000; stroke-linecap:round; stroke-linejoin:round; stroke-width:8; stroke-opacity:1; fill:none" points="680.45,1273.7 680.45,94.4882 "/>
<polyline clip-path="url(#clip180)" style="stroke:#000000; stroke-linecap:round; stroke-linejoin:round; stroke-width:8; stroke-opacity:1; fill:none" points="680.45,1187.76 699.348,1187.76 "/>
<polyline clip-path="url(#clip180)" style="stroke:#000000; stroke-linecap:round; stroke-linejoin:round; stroke-width:8; stroke-opacity:1; fill:none" points="680.45,865.981 699.348,865.981 "/>
<polyline clip-path="url(#clip180)" style="stroke:#000000; stroke-linecap:round; stroke-linejoin:round; stroke-width:8; stroke-opacity:1; fill:none" points="680.45,544.205 699.348,544.205 "/>
<polyline clip-path="url(#clip180)" style="stroke:#000000; stroke-linecap:round; stroke-linejoin:round; stroke-width:8; stroke-opacity:1; fill:none" points="680.45,222.43 699.348,222.43 "/>
<path clip-path="url(#clip180)" d="M449.868 1153.2 L486.581 1153.2 L486.581 1161.07 L458.433 1161.07 L458.433 1178.01 Q460.47 1177.32 462.507 1176.99 Q464.544 1176.62 466.581 1176.62 Q478.155 1176.62 484.914 1182.97 Q491.673 1189.31 491.673 1200.14 Q491.673 1211.3 484.729 1217.5 Q477.785 1223.66 465.146 1223.66 Q460.794 1223.66 456.257 1222.92 Q451.766 1222.18 446.951 1220.7 L446.951 1211.3 Q451.118 1213.57 455.562 1214.68 Q460.007 1215.79 464.961 1215.79 Q472.97 1215.79 477.646 1211.58 Q482.322 1207.36 482.322 1200.14 Q482.322 1192.92 477.646 1188.71 Q472.97 1184.49 464.961 1184.49 Q461.211 1184.49 457.461 1185.33 Q453.757 1186.16 449.868 1187.92 L449.868 1153.2 Z" fill="#000000" fill-rule="nonzero" fill-opacity="1" /><path clip-path="url(#clip180)" d="M530.099 1159.35 Q522.877 1159.35 519.22 1166.48 Q515.608 1173.57 515.608 1187.83 Q515.608 1202.04 519.22 1209.17 Q522.877 1216.25 530.099 1216.25 Q537.368 1216.25 540.979 1209.17 Q544.636 1202.04 544.636 1187.83 Q544.636 1173.57 540.979 1166.48 Q537.368 1159.35 530.099 1159.35 M530.099 1151.95 Q541.719 1151.95 547.831 1161.16 Q553.988 1170.33 553.988 1187.83 Q553.988 1205.28 547.831 1214.49 Q541.719 1223.66 530.099 1223.66 Q518.479 1223.66 512.321 1214.49 Q506.21 1205.28 506.21 1187.83 Q506.21 1170.33 512.321 1161.16 Q518.479 1151.95 530.099 1151.95 Z" fill="#000000" fill-rule="nonzero" fill-opacity="1" /><path clip-path="url(#clip180)" d="M570.423 1210.56 L580.191 1210.56 L580.191 1222.32 L570.423 1222.32 L570.423 1210.56 Z" fill="#000000" fill-rule="nonzero" fill-opacity="1" /><path clip-path="url(#clip180)" d="M620.562 1159.35 Q613.339 1159.35 609.682 1166.48 Q606.071 1173.57 606.071 1187.83 Q606.071 1202.04 609.682 1209.17 Q613.339 1216.25 620.562 1216.25 Q627.83 1216.25 631.441 1209.17 Q635.099 1202.04 635.099 1187.83 Q635.099 1173.57 631.441 1166.48 Q627.83 1159.35 620.562 1159.35 M620.562 1151.95 Q632.182 1151.95 638.293 1161.16 Q644.45 1170.33 644.45 1187.83 Q644.45 1205.28 638.293 1214.49 Q632.182 1223.66 620.562 1223.66 Q608.941 1223.66 602.784 1214.49 Q596.673 1205.28 596.673 1187.83 Q596.673 1170.33 602.784 1161.16 Q608.941 1151.95 620.562 1151.95 Z" fill="#000000" fill-rule="nonzero" fill-opacity="1" /><path clip-path="url(#clip180)" d="M391.072 892.671 L406.35 892.671 L406.35 839.94 L389.73 843.273 L389.73 834.754 L406.257 831.421 L415.609 831.421 L415.609 892.671 L430.887 892.671 L430.887 900.541 L391.072 900.541 L391.072 892.671 Z" fill="#000000" fill-rule="nonzero" fill-opacity="1" /><path clip-path="url(#clip180)" d="M469.775 837.579 Q462.553 837.579 458.896 844.708 Q455.285 851.791 455.285 866.051 Q455.285 880.263 458.896 887.393 Q462.553 894.476 469.775 894.476 Q477.044 894.476 480.655 887.393 Q484.312 880.263 484.312 866.051 Q484.312 851.791 480.655 844.708 Q477.044 837.579 469.775 837.579 M469.775 830.171 Q481.396 830.171 487.507 839.384 Q493.664 848.551 493.664 866.051 Q493.664 883.504 487.507 892.717 Q481.396 901.884 469.775 901.884 Q458.155 901.884 451.998 892.717 Q445.887 883.504 445.887 866.051 Q445.887 848.551 451.998 839.384 Q458.155 830.171 469.775 830.171 Z" fill="#000000" fill-rule="nonzero" fill-opacity="1" /><path clip-path="url(#clip180)" d="M530.099 837.579 Q522.877 837.579 519.22 844.708 Q515.608 851.791 515.608 866.051 Q515.608 880.263 519.22 887.393 Q522.877 894.476 530.099 894.476 Q537.368 894.476 540.979 887.393 Q544.636 880.263 544.636 866.051 Q544.636 851.791 540.979 844.708 Q537.368 837.579 530.099 837.579 M530.099 830.171 Q541.719 830.171 547.831 839.384 Q553.988 848.551 553.988 866.051 Q553.988 883.504 547.831 892.717 Q541.719 901.884 530.099 901.884 Q518.479 901.884 512.321 892.717 Q506.21 883.504 506.21 866.051 Q506.21 848.551 512.321 839.384 Q518.479 830.171 530.099 830.171 Z" fill="#000000" fill-rule="nonzero" fill-opacity="1" /><path clip-path="url(#clip180)" d="M570.423 888.782 L580.191 888.782 L580.191 900.541 L570.423 900.541 L570.423 888.782 Z" fill="#000000" fill-rule="nonzero" fill-opacity="1" /><path clip-path="url(#clip180)" d="M620.562 837.579 Q613.339 837.579 609.682 844.708 Q606.071 851.791 606.071 866.051 Q606.071 880.263 609.682 887.393 Q613.339 894.476 620.562 894.476 Q627.83 894.476 631.441 887.393 Q635.099 880.263 635.099 866.051 Q635.099 851.791 631.441 844.708 Q627.83 837.579 620.562 837.579 M620.562 830.171 Q632.182 830.171 638.293 839.384 Q644.45 848.551 644.45 866.051 Q644.45 883.504 638.293 892.717 Q632.182 901.884 620.562 901.884 Q608.941 901.884 602.784 892.717 Q596.673 883.504 596.673 866.051 Q596.673 848.551 602.784 839.384 Q608.941 830.171 620.562 830.171 Z" fill="#000000" fill-rule="nonzero" fill-opacity="1" /><path clip-path="url(#clip180)" d="M391.072 570.895 L406.35 570.895 L406.35 518.164 L389.73 521.497 L389.73 512.979 L406.257 509.645 L415.609 509.645 L415.609 570.895 L430.887 570.895 L430.887 578.765 L391.072 578.765 L391.072 570.895 Z" fill="#000000" fill-rule="nonzero" fill-opacity="1" /><path clip-path="url(#clip180)" d="M449.868 509.645 L486.581 509.645 L486.581 517.516 L458.433 517.516 L458.433 534.46 Q460.47 533.766 462.507 533.442 Q464.544 533.071 466.581 533.071 Q478.155 533.071 484.914 539.414 Q491.673 545.756 491.673 556.59 Q491.673 567.747 484.729 573.951 Q477.785 580.108 465.146 580.108 Q460.794 580.108 456.257 579.367 Q451.766 578.627 446.951 577.145 L446.951 567.747 Q451.118 570.016 455.562 571.127 Q460.007 572.238 464.961 572.238 Q472.97 572.238 477.646 568.025 Q482.322 563.812 482.322 556.59 Q482.322 549.367 477.646 545.155 Q472.97 540.942 464.961 540.942 Q461.211 540.942 457.461 541.775 Q453.757 542.608 449.868 544.368 L449.868 509.645 Z" fill="#000000" fill-rule="nonzero" fill-opacity="1" /><path clip-path="url(#clip180)" d="M530.099 515.803 Q522.877 515.803 519.22 522.932 Q515.608 530.016 515.608 544.275 Q515.608 558.488 519.22 565.617 Q522.877 572.701 530.099 572.701 Q537.368 572.701 540.979 565.617 Q544.636 558.488 544.636 544.275 Q544.636 530.016 540.979 522.932 Q537.368 515.803 530.099 515.803 M530.099 508.395 Q541.719 508.395 547.831 517.608 Q553.988 526.775 553.988 544.275 Q553.988 561.729 547.831 570.941 Q541.719 580.108 530.099 580.108 Q518.479 580.108 512.321 570.941 Q506.21 561.729 506.21 544.275 Q506.21 526.775 512.321 517.608 Q518.479 508.395 530.099 508.395 Z" fill="#000000" fill-rule="nonzero" fill-opacity="1" /><path clip-path="url(#clip180)" d="M570.423 567.006 L580.191 567.006 L580.191 578.765 L570.423 578.765 L570.423 567.006 Z" fill="#000000" fill-rule="nonzero" fill-opacity="1" /><path clip-path="url(#clip180)" d="M620.562 515.803 Q613.339 515.803 609.682 522.932 Q606.071 530.016 606.071 544.275 Q606.071 558.488 609.682 565.617 Q613.339 572.701 620.562 572.701 Q627.83 572.701 631.441 565.617 Q635.099 558.488 635.099 544.275 Q635.099 530.016 631.441 522.932 Q627.83 515.803 620.562 515.803 M620.562 508.395 Q632.182 508.395 638.293 517.608 Q644.45 526.775 644.45 544.275 Q644.45 561.729 638.293 570.941 Q632.182 580.108 620.562 580.108 Q608.941 580.108 602.784 570.941 Q596.673 561.729 596.673 544.275 Q596.673 526.775 602.784 517.608 Q608.941 508.395 620.562 508.395 Z" fill="#000000" fill-rule="nonzero" fill-opacity="1" /><path clip-path="url(#clip180)" d="M397.507 249.119 L430.146 249.119 L430.146 256.99 L386.257 256.99 L386.257 249.119 Q391.581 243.61 400.748 234.351 Q409.961 225.046 412.322 222.36 Q416.813 217.314 418.572 213.842 Q420.378 210.323 420.378 206.944 Q420.378 201.435 416.489 197.962 Q412.646 194.49 406.442 194.49 Q402.044 194.49 397.137 196.018 Q392.276 197.546 386.72 200.648 L386.72 191.203 Q392.368 188.935 397.276 187.777 Q402.183 186.62 406.257 186.62 Q416.998 186.62 423.387 191.99 Q429.776 197.36 429.776 206.342 Q429.776 210.601 428.155 214.444 Q426.581 218.24 422.368 223.425 Q421.211 224.768 415.007 231.203 Q408.803 237.592 397.507 249.119 Z" fill="#000000" fill-rule="nonzero" fill-opacity="1" /><path clip-path="url(#clip180)" d="M469.775 194.027 Q462.553 194.027 458.896 201.157 Q455.285 208.24 455.285 222.499 Q455.285 236.712 458.896 243.842 Q462.553 250.925 469.775 250.925 Q477.044 250.925 480.655 243.842 Q484.312 236.712 484.312 222.499 Q484.312 208.24 480.655 201.157 Q477.044 194.027 469.775 194.027 M469.775 186.62 Q481.396 186.62 487.507 195.833 Q493.664 204.999 493.664 222.499 Q493.664 239.953 487.507 249.166 Q481.396 258.332 469.775 258.332 Q458.155 258.332 451.998 249.166 Q445.887 239.953 445.887 222.499 Q445.887 204.999 451.998 195.833 Q458.155 186.62 469.775 186.62 Z" fill="#000000" fill-rule="nonzero" fill-opacity="1" /><path clip-path="url(#clip180)" d="M530.099 194.027 Q522.877 194.027 519.22 201.157 Q515.608 208.24 515.608 222.499 Q515.608 236.712 519.22 243.842 Q522.877 250.925 530.099 250.925 Q537.368 250.925 540.979 243.842 Q544.636 236.712 544.636 222.499 Q544.636 208.24 540.979 201.157 Q537.368 194.027 530.099 194.027 M530.099 186.62 Q541.719 186.62 547.831 195.833 Q553.988 204.999 553.988 222.499 Q553.988 239.953 547.831 249.166 Q541.719 258.332 530.099 258.332 Q518.479 258.332 512.321 249.166 Q506.21 239.953 506.21 222.499 Q506.21 204.999 512.321 195.833 Q518.479 186.62 530.099 186.62 Z" fill="#000000" fill-rule="nonzero" fill-opacity="1" /><path clip-path="url(#clip180)" d="M570.423 245.231 L580.191 245.231 L580.191 256.99 L570.423 256.99 L570.423 245.231 Z" fill="#000000" fill-rule="nonzero" fill-opacity="1" /><path clip-path="url(#clip180)" d="M620.562 194.027 Q613.339 194.027 609.682 201.157 Q606.071 208.24 606.071 222.499 Q606.071 236.712 609.682 243.842 Q613.339 250.925 620.562 250.925 Q627.83 250.925 631.441 243.842 Q635.099 236.712 635.099 222.499 Q635.099 208.24 631.441 201.157 Q627.83 194.027 620.562 194.027 M620.562 186.62 Q632.182 186.62 638.293 195.833 Q644.45 204.999 644.45 222.499 Q644.45 239.953 638.293 249.166 Q632.182 258.332 620.562 258.332 Q608.941 258.332 602.784 249.166 Q596.673 239.953 596.673 222.499 Q596.673 204.999 602.784 195.833 Q608.941 186.62 620.562 186.62 Z" fill="#000000" fill-rule="nonzero" fill-opacity="1" /><path clip-path="url(#clip180)" d="M253.187 1099.45 L264.136 1099.45 Q261.398 1104.42 260.062 1109.45 Q258.661 1114.41 258.661 1119.51 Q258.661 1130.9 265.918 1137.2 Q273.111 1143.51 286.161 1143.51 Q299.211 1143.51 306.468 1137.2 Q313.661 1130.9 313.661 1119.51 Q313.661 1114.41 312.324 1109.45 Q310.924 1104.42 308.186 1099.45 L319.008 1099.45 Q321.3 1104.36 322.446 1109.64 Q323.591 1114.86 323.591 1120.78 Q323.591 1136.88 313.47 1146.37 Q303.348 1155.85 286.161 1155.85 Q268.719 1155.85 258.725 1146.31 Q248.731 1136.69 248.731 1120.02 Q248.731 1114.6 249.876 1109.45 Q250.959 1104.29 253.187 1099.45 Z" fill="#000000" fill-rule="nonzero" fill-opacity="1" /><path clip-path="url(#clip180)" d="M258.661 1051.46 Q258.661 1060.88 266.045 1066.35 Q273.366 1071.83 286.161 1071.83 Q298.956 1071.83 306.34 1066.42 Q313.661 1060.94 313.661 1051.46 Q313.661 1042.1 306.277 1036.62 Q298.892 1031.15 286.161 1031.15 Q273.493 1031.15 266.109 1036.62 Q258.661 1042.1 258.661 1051.46 M248.731 1051.46 Q248.731 1036.18 258.661 1027.46 Q268.592 1018.74 286.161 1018.74 Q303.667 1018.74 313.661 1027.46 Q323.591 1036.18 323.591 1051.46 Q323.591 1066.8 313.661 1075.52 Q303.667 1084.18 286.161 1084.18 Q268.592 1084.18 258.661 1075.52 Q248.731 1066.8 248.731 1051.46 Z" fill="#000000" fill-rule="nonzero" fill-opacity="1" /><path clip-path="url(#clip180)" d="M278.713 940.057 L321.745 940.057 L321.745 951.77 L279.095 951.77 Q268.974 951.77 263.945 955.717 Q258.916 959.663 258.916 967.557 Q258.916 977.042 264.963 982.516 Q271.011 987.991 281.45 987.991 L321.745 987.991 L321.745 999.767 L250.449 999.767 L250.449 987.991 L261.526 987.991 Q255.096 983.789 251.914 978.124 Q248.731 972.395 248.731 964.947 Q248.731 952.661 256.37 946.359 Q263.945 940.057 278.713 940.057 Z" fill="#000000" fill-rule="nonzero" fill-opacity="1" /><path clip-path="url(#clip180)" d="M253.187 865.387 L264.136 865.387 Q261.398 870.353 260.062 875.381 Q258.661 880.347 258.661 885.439 Q258.661 896.834 265.918 903.136 Q273.111 909.438 286.161 909.438 Q299.211 909.438 306.468 903.136 Q313.661 896.834 313.661 885.439 Q313.661 880.347 312.324 875.381 Q310.924 870.353 308.186 865.387 L319.008 865.387 Q321.3 870.289 322.446 875.572 Q323.591 880.792 323.591 886.712 Q323.591 902.818 313.47 912.303 Q303.348 921.787 286.161 921.787 Q268.719 921.787 258.725 912.239 Q248.731 902.627 248.731 885.949 Q248.731 880.538 249.876 875.381 Q250.959 870.225 253.187 865.387 Z" fill="#000000" fill-rule="nonzero" fill-opacity="1" /><path clip-path="url(#clip180)" d="M305.576 843.362 L305.576 829.93 L321.745 829.93 L321.745 843.362 L305.576 843.362 Z" fill="#000000" fill-rule="nonzero" fill-opacity="1" /><path clip-path="url(#clip180)" d="M250.449 770.538 L250.449 758.125 L310.287 735.845 L250.449 713.565 L250.449 701.152 L321.745 727.888 L321.745 743.802 L250.449 770.538 Z" fill="#000000" fill-rule="nonzero" fill-opacity="1" /><path clip-path="url(#clip180)" d="M283.169 624 L288.898 624 L288.898 677.854 Q300.993 677.09 307.359 670.597 Q313.661 664.04 313.661 652.391 Q313.661 645.643 312.006 639.341 Q310.351 632.975 307.041 626.737 L318.117 626.737 Q320.79 633.039 322.191 639.659 Q323.591 646.28 323.591 653.091 Q323.591 670.151 313.661 680.145 Q303.73 690.076 286.798 690.076 Q269.292 690.076 259.043 680.654 Q248.731 671.17 248.731 655.128 Q248.731 640.742 258.025 632.402 Q267.255 624 283.169 624 M279.732 635.713 Q270.119 635.84 264.39 641.123 Q258.661 646.343 258.661 655.001 Q258.661 664.804 264.199 670.724 Q269.737 676.58 279.795 677.472 L279.732 635.713 Z" fill="#000000" fill-rule="nonzero" fill-opacity="1" /><path clip-path="url(#clip180)" d="M278.713 545.511 L321.745 545.511 L321.745 557.223 L279.095 557.223 Q268.974 557.223 263.945 561.17 Q258.916 565.117 258.916 573.01 Q258.916 582.495 264.963 587.97 Q271.011 593.444 281.45 593.444 L321.745 593.444 L321.745 605.221 L250.449 605.221 L250.449 593.444 L261.526 593.444 Q255.096 589.243 251.914 583.577 Q248.731 577.848 248.731 570.4 Q248.731 558.115 256.37 551.813 Q263.945 545.511 278.713 545.511 Z" fill="#000000" fill-rule="nonzero" fill-opacity="1" /><path clip-path="url(#clip180)" d="M230.206 510.563 L250.449 510.563 L250.449 486.437 L259.552 486.437 L259.552 510.563 L298.256 510.563 Q306.977 510.563 309.459 508.207 Q311.942 505.789 311.942 498.468 L311.942 486.437 L321.745 486.437 L321.745 498.468 Q321.745 512.027 316.716 517.183 Q311.624 522.339 298.256 522.339 L259.552 522.339 L259.552 530.933 L250.449 530.933 L250.449 522.339 L230.206 522.339 L230.206 510.563 Z" fill="#000000" fill-rule="nonzero" fill-opacity="1" /><path clip-path="url(#clip180)" d="M261.398 429.718 Q260.253 431.692 259.743 434.047 Q259.17 436.339 259.17 439.14 Q259.17 449.07 265.663 454.417 Q272.093 459.701 284.188 459.701 L321.745 459.701 L321.745 471.477 L250.449 471.477 L250.449 459.701 L261.526 459.701 Q255.033 456.009 251.914 450.089 Q248.731 444.168 248.731 435.702 Q248.731 434.493 248.922 433.028 Q249.049 431.564 249.367 429.782 L261.398 429.718 Z" fill="#000000" fill-rule="nonzero" fill-opacity="1" /><path clip-path="url(#clip180)" d="M250.449 417.433 L250.449 405.72 L321.745 405.72 L321.745 417.433 L250.449 417.433 M222.695 417.433 L222.695 405.72 L237.527 405.72 L237.527 417.433 L222.695 417.433 Z" fill="#000000" fill-rule="nonzero" fill-opacity="1" /><path clip-path="url(#clip180)" d="M253.187 329.904 L264.136 329.904 Q261.398 334.869 260.062 339.898 Q258.661 344.863 258.661 349.956 Q258.661 361.351 265.918 367.653 Q273.111 373.955 286.161 373.955 Q299.211 373.955 306.468 367.653 Q313.661 361.351 313.661 349.956 Q313.661 344.863 312.324 339.898 Q310.924 334.869 308.186 329.904 L319.008 329.904 Q321.3 334.806 322.446 340.089 Q323.591 345.309 323.591 351.229 Q323.591 367.334 313.47 376.819 Q303.348 386.304 286.161 386.304 Q268.719 386.304 258.725 376.756 Q248.731 367.143 248.731 350.465 Q248.731 345.054 249.876 339.898 Q250.959 334.742 253.187 329.904 Z" fill="#000000" fill-rule="nonzero" fill-opacity="1" /><path clip-path="url(#clip180)" d="M222.695 309.534 L222.695 297.821 L321.745 297.821 L321.745 309.534 L222.695 309.534 Z" fill="#000000" fill-rule="nonzero" fill-opacity="1" /><path clip-path="url(#clip180)" d="M283.169 212.329 L288.898 212.329 L288.898 266.183 Q300.993 265.419 307.359 258.926 Q313.661 252.37 313.661 240.721 Q313.661 233.973 312.006 227.671 Q310.351 221.305 307.041 215.067 L318.117 215.067 Q320.79 221.369 322.191 227.989 Q323.591 234.609 323.591 241.421 Q323.591 258.481 313.661 268.475 Q303.73 278.405 286.798 278.405 Q269.292 278.405 259.043 268.984 Q248.731 259.499 248.731 243.458 Q248.731 229.071 258.025 220.732 Q267.255 212.329 283.169 212.329 M279.732 224.042 Q270.119 224.17 264.39 229.453 Q258.661 234.673 258.661 243.33 Q258.661 253.134 264.199 259.054 Q269.737 264.91 279.795 265.801 L279.732 224.042 Z" fill="#000000" fill-rule="nonzero" fill-opacity="1" /><polyline clip-path="url(#clip182)" style="stroke:#008000; stroke-linecap:round; stroke-linejoin:round; stroke-width:8; stroke-opacity:1; fill:none" points="726.443,302.264 854.199,336.206 981.955,343.079 1109.71,277.444 1237.47,436.662 1365.22,377.29 1492.98,472.211 1620.74,476.218 1748.49,621.501 1876.25,622.951 2004.01,574.614 2131.76,596.032 2259.52,705.274 "/>
<circle clip-path="url(#clip182)" cx="726.443" cy="302.264" r="14.4" fill="#008000" fill-rule="evenodd" fill-opacity="1" stroke="#000000" stroke-opacity="1" stroke-width="6.4"/>
<circle clip-path="url(#clip182)" cx="854.199" cy="336.206" r="14.4" fill="#008000" fill-rule="evenodd" fill-opacity="1" stroke="#000000" stroke-opacity="1" stroke-width="6.4"/>
<circle clip-path="url(#clip182)" cx="981.955" cy="343.079" r="14.4" fill="#008000" fill-rule="evenodd" fill-opacity="1" stroke="#000000" stroke-opacity="1" stroke-width="6.4"/>
<circle clip-path="url(#clip182)" cx="1109.71" cy="277.444" r="14.4" fill="#008000" fill-rule="evenodd" fill-opacity="1" stroke="#000000" stroke-opacity="1" stroke-width="6.4"/>
<circle clip-path="url(#clip182)" cx="1237.47" cy="436.662" r="14.4" fill="#008000" fill-rule="evenodd" fill-opacity="1" stroke="#000000" stroke-opacity="1" stroke-width="6.4"/>
<circle clip-path="url(#clip182)" cx="1365.22" cy="377.29" r="14.4" fill="#008000" fill-rule="evenodd" fill-opacity="1" stroke="#000000" stroke-opacity="1" stroke-width="6.4"/>
<circle clip-path="url(#clip182)" cx="1492.98" cy="472.211" r="14.4" fill="#008000" fill-rule="evenodd" fill-opacity="1" stroke="#000000" stroke-opacity="1" stroke-width="6.4"/>
<circle clip-path="url(#clip182)" cx="1620.74" cy="476.218" r="14.4" fill="#008000" fill-rule="evenodd" fill-opacity="1" stroke="#000000" stroke-opacity="1" stroke-width="6.4"/>
<circle clip-path="url(#clip182)" cx="1748.49" cy="621.501" r="14.4" fill="#008000" fill-rule="evenodd" fill-opacity="1" stroke="#000000" stroke-opacity="1" stroke-width="6.4"/>
<circle clip-path="url(#clip182)" cx="1876.25" cy="622.951" r="14.4" fill="#008000" fill-rule="evenodd" fill-opacity="1" stroke="#000000" stroke-opacity="1" stroke-width="6.4"/>
<circle clip-path="url(#clip182)" cx="2004.01" cy="574.614" r="14.4" fill="#008000" fill-rule="evenodd" fill-opacity="1" stroke="#000000" stroke-opacity="1" stroke-width="6.4"/>
<circle clip-path="url(#clip182)" cx="2131.76" cy="596.032" r="14.4" fill="#008000" fill-rule="evenodd" fill-opacity="1" stroke="#000000" stroke-opacity="1" stroke-width="6.4"/>
<circle clip-path="url(#clip182)" cx="2259.52" cy="705.274" r="14.4" fill="#008000" fill-rule="evenodd" fill-opacity="1" stroke="#000000" stroke-opacity="1" stroke-width="6.4"/>
<polyline clip-path="url(#clip182)" style="stroke:#00008b; stroke-linecap:round; stroke-linejoin:round; stroke-width:8; stroke-opacity:1; fill:none" points="726.443,296.29 854.199,412.176 981.955,505.41 1109.71,593.196 1237.47,679.649 1365.22,744.837 1492.98,809.585 1620.74,872.135 1748.49,927.597 1876.25,965.062 2004.01,991.004 2131.76,1027.73 2259.52,1078.48 "/>
<path clip-path="url(#clip182)" d="M726.443 458.094 L854.199 567.201 L981.955 668.141 L1109.71 745.363 L1237.47 843.093 L1365.22 906.374 L1492.98 971.351 L1620.74 1037.42 L1748.49 1085.81 L1876.25 1119.13 L2004.01 1150.16 L2131.76 1181.39 L2259.52 1240.32 L2259.52 911.468 L2131.76 859.148 L2004.01 824.201 L1876.25 807.763 L1748.49 769.299 L1620.74 708.614 L1492.98 651.496 L1365.22 582.586 L1237.47 514.246 L1109.71 443.028 L981.955 356.95 L854.199 251.004 L726.443 127.862  Z" fill="#0000ff" fill-rule="evenodd" fill-opacity="0.1"/>
<polyline clip-path="url(#clip182)" style="stroke:#0000ff; stroke-linecap:round; stroke-linejoin:round; stroke-width:0; stroke-opacity:0.1; fill:none" points="726.443,458.094 854.199,567.201 981.955,668.141 1109.71,745.363 1237.47,843.093 1365.22,906.374 1492.98,971.351 1620.74,1037.42 1748.49,1085.81 1876.25,1119.13 2004.01,1150.16 2131.76,1181.39 2259.52,1240.32 "/>
</svg>
