<?xml version="1.0" encoding="utf-8"?>
<svg xmlns="http://www.w3.org/2000/svg" xmlns:xlink="http://www.w3.org/1999/xlink" width="600" height="400" viewBox="0 0 2400 1600">
<defs>
  <clipPath id="clip460">
    <rect x="0" y="0" width="2400" height="1600"/>
  </clipPath>
</defs>
<path clip-path="url(#clip460)" d="M0 1600 L2400 1600 L2400 0 L0 0  Z" fill="#ffffff" fill-rule="evenodd" fill-opacity="1"/>
<defs>
  <clipPath id="clip461">
    <rect x="480" y="0" width="1681" height="1600"/>
  </clipPath>
</defs>
<path clip-path="url(#clip460)" d="M561.747 1273.7 L2305.51 1273.7 L2305.51 94.4882 L561.747 94.4882  Z" fill="#ffffff" fill-rule="evenodd" fill-opacity="1"/>
<defs>
  <clipPath id="clip462">
    <rect x="561" y="94" width="1745" height="1180"/>
  </clipPath>
</defs>
<polyline clip-path="url(#clip462)" style="stroke:#000000; stroke-linecap:round; stroke-linejoin:round; stroke-width:4; stroke-opacity:0.1; fill:none" points="611.099,1273.7 611.099,94.4882 "/>
<polyline clip-path="url(#clip462)" style="stroke:#000000; stroke-linecap:round; stroke-linejoin:round; stroke-width:4; stroke-opacity:0.1; fill:none" points="953.82,1273.7 953.82,94.4882 "/>
<polyline clip-path="url(#clip462)" style="stroke:#000000; stroke-linecap:round; stroke-linejoin:round; stroke-width:4; stroke-opacity:0.1; fill:none" points="1296.54,1273.7 1296.54,94.4882 "/>
<polyline clip-path="url(#clip462)" style="stroke:#000000; stroke-linecap:round; stroke-linejoin:round; stroke-width:4; stroke-opacity:0.1; fill:none" points="1639.26,1273.7 1639.26,94.4882 "/>
<polyline clip-path="url(#clip462)" style="stroke:#000000; stroke-linecap:round; stroke-linejoin:round; stroke-width:4; stroke-opacity:0.1; fill:none" points="1981.98,1273.7 1981.98,94.4882 "/>
<polyline clip-path="url(#clip460)" style="stroke:#000000; stroke-linecap:round; stroke-linejoin:round; stroke-width:8; stroke-opacity:1; fill:none" points="561.747,1273.7 2305.51,1273.7 "/>
<polyline clip-path="url(#clip460)" style="stroke:#000000; stroke-linecap:round; stroke-linejoin:round; stroke-width:8; stroke-opacity:1; fill:none" points="611.099,1273.7 611.099,1254.8 "/>
<polyline clip-path="url(#clip460)" style="stroke:#000000; stroke-linecap:round; stroke-linejoin:round; stroke-width:8; stroke-opacity:1; fill:none" points="953.82,1273.7 953.82,1254.8 "/>
<polyline clip-path="url(#clip460)" style="stroke:#000000; stroke-linecap:round; stroke-linejoin:round; stroke-width:8; stroke-opacity:1; fill:none" points="1296.54,1273.7 1296.54,1254.8 "/>
<polyline clip-path="url(#clip460)" style="stroke:#000000; stroke-linecap:round; stroke-linejoin:round; stroke-width:8; stroke-opacity:1; fill:none" points="1639.26,1273.7 1639.26,1254.8 "/>
<polyline clip-path="url(#clip460)" style="stroke:#000000; stroke-linecap:round; stroke-linejoin:round; stroke-width:8; stroke-opacity:1; fill:none" points="1981.98,1273.7 1981.98,1254.8 "/>
<path clip-path="url(#clip460)" d="M535.706 1316.33 Q528.484 1316.33 524.826 1323.46 Q521.215 1330.55 521.215 1344.81 Q521.215 1359.02 524.826 1366.15 Q528.484 1373.23 535.706 1373.23 Q542.974 1373.23 546.586 1366.15 Q550.243 1359.02 550.243 1344.81 Q550.243 1330.55 546.586 1323.46 Q542.974 1316.33 535.706 1316.33 M535.706 1308.93 Q547.326 1308.93 553.437 1318.14 Q559.595 1327.31 559.595 1344.81 Q559.595 1362.26 553.437 1371.47 Q547.326 1380.64 535.706 1380.64 Q524.086 1380.64 517.928 1371.47 Q511.817 1362.26 511.817 1344.81 Q511.817 1327.31 517.928 1318.14 Q524.086 1308.93 535.706 1308.93 Z" fill="#000000" fill-rule="nonzero" fill-opacity="1" /><path clip-path="url(#clip460)" d="M576.03 1367.54 L585.798 1367.54 L585.798 1379.3 L576.03 1379.3 L576.03 1367.54 Z" fill="#000000" fill-rule="nonzero" fill-opacity="1" /><path clip-path="url(#clip460)" d="M626.168 1316.33 Q618.946 1316.33 615.289 1323.46 Q611.678 1330.55 611.678 1344.81 Q611.678 1359.02 615.289 1366.15 Q618.946 1373.23 626.168 1373.23 Q633.437 1373.23 637.048 1366.15 Q640.705 1359.02 640.705 1344.81 Q640.705 1330.55 637.048 1323.46 Q633.437 1316.33 626.168 1316.33 M626.168 1308.93 Q637.789 1308.93 643.9 1318.14 Q650.057 1327.31 650.057 1344.81 Q650.057 1362.26 643.9 1371.47 Q637.789 1380.64 626.168 1380.64 Q614.548 1380.64 608.391 1371.47 Q602.28 1362.26 602.28 1344.81 Q602.28 1327.31 608.391 1318.14 Q614.548 1308.93 626.168 1308.93 Z" fill="#000000" fill-rule="nonzero" fill-opacity="1" /><path clip-path="url(#clip460)" d="M686.492 1316.33 Q679.27 1316.33 675.613 1323.46 Q672.002 1330.55 672.002 1344.81 Q672.002 1359.02 675.613 1366.15 Q679.27 1373.23 686.492 1373.23 Q693.761 1373.23 697.372 1366.15 Q701.029 1359.02 701.029 1344.81 Q701.029 1330.55 697.372 1323.46 Q693.761 1316.33 686.492 1316.33 M686.492 1308.93 Q698.113 1308.93 704.224 1318.14 Q710.381 1327.31 710.381 1344.81 Q710.381 1362.26 704.224 1371.47 Q698.113 1380.64 686.492 1380.64 Q674.872 1380.64 668.715 1371.47 Q662.603 1362.26 662.603 1344.81 Q662.603 1327.31 668.715 1318.14 Q674.872 1308.93 686.492 1308.93 Z" fill="#000000" fill-rule="nonzero" fill-opacity="1" /><path clip-path="url(#clip460)" d="M879.422 1316.33 Q872.2 1316.33 868.543 1323.46 Q864.932 1330.55 864.932 1344.81 Q864.932 1359.02 868.543 1366.15 Q872.2 1373.23 879.422 1373.23 Q886.691 1373.23 890.302 1366.15 Q893.959 1359.02 893.959 1344.81 Q893.959 1330.55 890.302 1323.46 Q886.691 1316.33 879.422 1316.33 M879.422 1308.93 Q891.043 1308.93 897.154 1318.14 Q903.311 1327.31 903.311 1344.81 Q903.311 1362.26 897.154 1371.47 Q891.043 1380.64 879.422 1380.64 Q867.802 1380.64 861.645 1371.47 Q855.534 1362.26 855.534 1344.81 Q855.534 1327.31 861.645 1318.14 Q867.802 1308.93 879.422 1308.93 Z" fill="#000000" fill-rule="nonzero" fill-opacity="1" /><path clip-path="url(#clip460)" d="M919.746 1367.54 L929.515 1367.54 L929.515 1379.3 L919.746 1379.3 L919.746 1367.54 Z" fill="#000000" fill-rule="nonzero" fill-opacity="1" /><path clip-path="url(#clip460)" d="M957.94 1371.43 L990.579 1371.43 L990.579 1379.3 L946.691 1379.3 L946.691 1371.43 Q952.015 1365.92 961.181 1356.66 Q970.394 1347.35 972.755 1344.67 Q977.246 1339.62 979.005 1336.15 Q980.811 1332.63 980.811 1329.25 Q980.811 1323.74 976.922 1320.27 Q973.079 1316.8 966.876 1316.8 Q962.478 1316.8 957.57 1318.32 Q952.709 1319.85 947.154 1322.95 L947.154 1313.51 Q952.802 1311.24 957.709 1310.08 Q962.616 1308.93 966.69 1308.93 Q977.431 1308.93 983.82 1314.3 Q990.209 1319.67 990.209 1328.65 Q990.209 1332.91 988.588 1336.75 Q987.014 1340.55 982.801 1345.73 Q981.644 1347.07 975.44 1353.51 Q969.237 1359.9 957.94 1371.43 Z" fill="#000000" fill-rule="nonzero" fill-opacity="1" /><path clip-path="url(#clip460)" d="M1010.3 1310.18 L1047.01 1310.18 L1047.01 1318.05 L1018.87 1318.05 L1018.87 1334.99 Q1020.9 1334.3 1022.94 1333.97 Q1024.98 1333.6 1027.01 1333.6 Q1038.59 1333.6 1045.35 1339.94 Q1052.11 1346.29 1052.11 1357.12 Q1052.11 1368.28 1045.16 1374.48 Q1038.22 1380.64 1025.58 1380.64 Q1021.23 1380.64 1016.69 1379.9 Q1012.2 1379.16 1007.38 1377.68 L1007.38 1368.28 Q1011.55 1370.55 1016 1371.66 Q1020.44 1372.77 1025.39 1372.77 Q1033.4 1372.77 1038.08 1368.56 Q1042.75 1364.34 1042.75 1357.12 Q1042.75 1349.9 1038.08 1345.68 Q1033.4 1341.47 1025.39 1341.47 Q1021.64 1341.47 1017.89 1342.31 Q1014.19 1343.14 1010.3 1344.9 L1010.3 1310.18 Z" fill="#000000" fill-rule="nonzero" fill-opacity="1" /><path clip-path="url(#clip460)" d="M1221.15 1316.33 Q1213.93 1316.33 1210.27 1323.46 Q1206.66 1330.55 1206.66 1344.81 Q1206.66 1359.02 1210.27 1366.15 Q1213.93 1373.23 1221.15 1373.23 Q1228.42 1373.23 1232.03 1366.15 Q1235.68 1359.02 1235.68 1344.81 Q1235.68 1330.55 1232.03 1323.46 Q1228.42 1316.33 1221.15 1316.33 M1221.15 1308.93 Q1232.77 1308.93 1238.88 1318.14 Q1245.04 1327.31 1245.04 1344.81 Q1245.04 1362.26 1238.88 1371.47 Q1232.77 1380.64 1221.15 1380.64 Q1209.53 1380.64 1203.37 1371.47 Q1197.26 1362.26 1197.26 1344.81 Q1197.26 1327.31 1203.37 1318.14 Q1209.53 1308.93 1221.15 1308.93 Z" fill="#000000" fill-rule="nonzero" fill-opacity="1" /><path clip-path="url(#clip460)" d="M1261.47 1367.54 L1271.24 1367.54 L1271.24 1379.3 L1261.47 1379.3 L1261.47 1367.54 Z" fill="#000000" fill-rule="nonzero" fill-opacity="1" /><path clip-path="url(#clip460)" d="M1291.7 1310.18 L1328.42 1310.18 L1328.42 1318.05 L1300.27 1318.05 L1300.27 1334.99 Q1302.31 1334.3 1304.34 1333.97 Q1306.38 1333.6 1308.42 1333.6 Q1319.99 1333.6 1326.75 1339.94 Q1333.51 1346.29 1333.51 1357.12 Q1333.51 1368.28 1326.56 1374.48 Q1319.62 1380.64 1306.98 1380.64 Q1302.63 1380.64 1298.09 1379.9 Q1293.6 1379.16 1288.79 1377.68 L1288.79 1368.28 Q1292.95 1370.55 1297.4 1371.66 Q1301.84 1372.77 1306.8 1372.77 Q1314.8 1372.77 1319.48 1368.56 Q1324.16 1364.34 1324.16 1357.12 Q1324.16 1349.9 1319.48 1345.68 Q1314.8 1341.47 1306.8 1341.47 Q1303.05 1341.47 1299.3 1342.31 Q1295.59 1343.14 1291.7 1344.9 L1291.7 1310.18 Z" fill="#000000" fill-rule="nonzero" fill-opacity="1" /><path clip-path="url(#clip460)" d="M1371.93 1316.33 Q1364.71 1316.33 1361.05 1323.46 Q1357.44 1330.55 1357.44 1344.81 Q1357.44 1359.02 1361.05 1366.15 Q1364.71 1373.23 1371.93 1373.23 Q1379.2 1373.23 1382.81 1366.15 Q1386.47 1359.02 1386.47 1344.81 Q1386.47 1330.55 1382.81 1323.46 Q1379.2 1316.33 1371.93 1316.33 M1371.93 1308.93 Q1383.55 1308.93 1389.67 1318.14 Q1395.82 1327.31 1395.82 1344.81 Q1395.82 1362.26 1389.67 1371.47 Q1383.55 1380.64 1371.93 1380.64 Q1360.31 1380.64 1354.16 1371.47 Q1348.05 1362.26 1348.05 1344.81 Q1348.05 1327.31 1354.16 1318.14 Q1360.31 1308.93 1371.93 1308.93 Z" fill="#000000" fill-rule="nonzero" fill-opacity="1" /><path clip-path="url(#clip460)" d="M1564.86 1316.33 Q1557.64 1316.33 1553.98 1323.46 Q1550.37 1330.55 1550.37 1344.81 Q1550.37 1359.02 1553.98 1366.15 Q1557.64 1373.23 1564.86 1373.23 Q1572.13 1373.23 1575.74 1366.15 Q1579.4 1359.02 1579.4 1344.81 Q1579.4 1330.55 1575.74 1323.46 Q1572.13 1316.33 1564.86 1316.33 M1564.86 1308.93 Q1576.48 1308.93 1582.6 1318.14 Q1588.75 1327.31 1588.75 1344.81 Q1588.75 1362.26 1582.6 1371.47 Q1576.48 1380.64 1564.86 1380.64 Q1553.24 1380.64 1547.09 1371.47 Q1540.98 1362.26 1540.98 1344.81 Q1540.98 1327.31 1547.09 1318.14 Q1553.24 1308.93 1564.86 1308.93 Z" fill="#000000" fill-rule="nonzero" fill-opacity="1" /><path clip-path="url(#clip460)" d="M1605.19 1367.54 L1614.96 1367.54 L1614.96 1379.3 L1605.19 1379.3 L1605.19 1367.54 Z" fill="#000000" fill-rule="nonzero" fill-opacity="1" /><path clip-path="url(#clip460)" d="M1632.97 1310.18 L1677.41 1310.18 L1677.41 1314.16 L1652.32 1379.3 L1642.55 1379.3 L1666.16 1318.05 L1632.97 1318.05 L1632.97 1310.18 Z" fill="#000000" fill-rule="nonzero" fill-opacity="1" /><path clip-path="url(#clip460)" d="M1695.74 1310.18 L1732.46 1310.18 L1732.46 1318.05 L1704.31 1318.05 L1704.31 1334.99 Q1706.35 1334.3 1708.38 1333.97 Q1710.42 1333.6 1712.46 1333.6 Q1724.03 1333.6 1730.79 1339.94 Q1737.55 1346.29 1737.55 1357.12 Q1737.55 1368.28 1730.6 1374.48 Q1723.66 1380.64 1711.02 1380.64 Q1706.67 1380.64 1702.13 1379.9 Q1697.64 1379.16 1692.83 1377.68 L1692.83 1368.28 Q1696.99 1370.55 1701.44 1371.66 Q1705.88 1372.77 1710.84 1372.77 Q1718.85 1372.77 1723.52 1368.56 Q1728.2 1364.34 1728.2 1357.12 Q1728.2 1349.9 1723.52 1345.68 Q1718.85 1341.47 1710.84 1341.47 Q1707.09 1341.47 1703.34 1342.31 Q1699.63 1343.14 1695.74 1344.9 L1695.74 1310.18 Z" fill="#000000" fill-rule="nonzero" fill-opacity="1" /><path clip-path="url(#clip460)" d="M1886.13 1371.43 L1901.4 1371.43 L1901.4 1318.69 L1884.78 1322.03 L1884.78 1313.51 L1901.31 1310.18 L1910.66 1310.18 L1910.66 1371.43 L1925.94 1371.43 L1925.94 1379.3 L1886.13 1379.3 L1886.13 1371.43 Z" fill="#000000" fill-rule="nonzero" fill-opacity="1" /><path clip-path="url(#clip460)" d="M1944.83 1367.54 L1954.6 1367.54 L1954.6 1379.3 L1944.83 1379.3 L1944.83 1367.54 Z" fill="#000000" fill-rule="nonzero" fill-opacity="1" /><path clip-path="url(#clip460)" d="M1994.97 1316.33 Q1987.75 1316.33 1984.09 1323.46 Q1980.48 1330.55 1980.48 1344.81 Q1980.48 1359.02 1984.09 1366.15 Q1987.75 1373.23 1994.97 1373.23 Q2002.24 1373.23 2005.85 1366.15 Q2009.51 1359.02 2009.51 1344.81 Q2009.51 1330.55 2005.85 1323.46 Q2002.24 1316.33 1994.97 1316.33 M1994.97 1308.93 Q2006.59 1308.93 2012.7 1318.14 Q2018.86 1327.31 2018.86 1344.81 Q2018.86 1362.26 2012.7 1371.47 Q2006.59 1380.64 1994.97 1380.64 Q1983.35 1380.64 1977.19 1371.47 Q1971.08 1362.26 1971.08 1344.81 Q1971.08 1327.31 1977.19 1318.14 Q1983.35 1308.93 1994.97 1308.93 Z" fill="#000000" fill-rule="nonzero" fill-opacity="1" /><path clip-path="url(#clip460)" d="M2055.29 1316.33 Q2048.07 1316.33 2044.41 1323.46 Q2040.8 1330.55 2040.8 1344.81 Q2040.8 1359.02 2044.41 1366.15 Q2048.07 1373.23 2055.29 1373.23 Q2062.56 1373.23 2066.17 1366.15 Q2069.83 1359.02 2069.83 1344.81 Q2069.83 1330.55 2066.17 1323.46 Q2062.56 1316.33 2055.29 1316.33 M2055.29 1308.93 Q2066.91 1308.93 2073.02 1318.14 Q2079.18 1327.31 2079.18 1344.81 Q2079.18 1362.26 2073.02 1371.47 Q2066.91 1380.64 2055.29 1380.64 Q2043.67 1380.64 2037.52 1371.47 Q2031.4 1362.26 2031.4 1344.81 Q2031.4 1327.31 2037.52 1318.14 Q2043.67 1308.93 2055.29 1308.93 Z" fill="#000000" fill-rule="nonzero" fill-opacity="1" /><path clip-path="url(#clip460)" d="M1319.17 1484.39 L1319.17 1527.42 L1307.46 1527.42 L1307.46 1484.77 Q1307.46 1474.65 1303.51 1469.62 Q1299.57 1464.59 1291.67 1464.59 Q1282.19 1464.59 1276.71 1470.64 Q1271.24 1476.69 1271.24 1487.13 L1271.24 1527.42 L1259.46 1527.42 L1259.46 1428.37 L1271.24 1428.37 L1271.24 1467.2 Q1275.44 1460.77 1281.11 1457.59 Q1286.84 1454.41 1294.28 1454.41 Q1306.57 1454.41 1312.87 1462.05 Q1319.17 1469.62 1319.17 1484.39 Z" fill="#000000" fill-rule="nonzero" fill-opacity="1" /><path clip-path="url(#clip460)" d="M1370.16 1464.34 Q1360.74 1464.34 1355.27 1471.72 Q1349.79 1479.04 1349.79 1491.84 Q1349.79 1504.63 1355.2 1512.02 Q1360.68 1519.34 1370.16 1519.34 Q1379.52 1519.34 1385 1511.96 Q1390.47 1504.57 1390.47 1491.84 Q1390.47 1479.17 1385 1471.79 Q1379.52 1464.34 1370.16 1464.34 M1370.16 1454.41 Q1385.44 1454.41 1394.16 1464.34 Q1402.88 1474.27 1402.88 1491.84 Q1402.88 1509.35 1394.16 1519.34 Q1385.44 1529.27 1370.16 1529.27 Q1354.82 1529.27 1346.1 1519.34 Q1337.44 1509.35 1337.44 1491.84 Q1337.44 1474.27 1346.1 1464.34 Q1354.82 1454.41 1370.16 1454.41 Z" fill="#000000" fill-rule="nonzero" fill-opacity="1" /><path clip-path="url(#clip460)" d="M1421.09 1499.29 L1421.09 1456.13 L1432.8 1456.13 L1432.8 1498.84 Q1432.8 1508.96 1436.75 1514.06 Q1440.7 1519.08 1448.59 1519.08 Q1458.07 1519.08 1463.55 1513.04 Q1469.09 1506.99 1469.09 1496.55 L1469.09 1456.13 L1480.8 1456.13 L1480.8 1527.42 L1469.09 1527.42 L1469.09 1516.47 Q1464.82 1522.97 1459.16 1526.15 Q1453.55 1529.27 1446.11 1529.27 Q1433.82 1529.27 1427.45 1521.63 Q1421.09 1513.99 1421.09 1499.29 M1450.56 1454.41 L1450.56 1454.41 Z" fill="#000000" fill-rule="nonzero" fill-opacity="1" /><path clip-path="url(#clip460)" d="M1546.24 1467.08 Q1544.27 1465.93 1541.91 1465.42 Q1539.62 1464.85 1536.82 1464.85 Q1526.89 1464.85 1521.54 1471.34 Q1516.26 1477.77 1516.26 1489.87 L1516.26 1527.42 L1504.48 1527.42 L1504.48 1456.13 L1516.26 1456.13 L1516.26 1467.2 Q1519.95 1460.71 1525.87 1457.59 Q1531.79 1454.41 1540.26 1454.41 Q1541.46 1454.41 1542.93 1454.6 Q1544.39 1454.73 1546.18 1455.05 L1546.24 1467.08 Z" fill="#000000" fill-rule="nonzero" fill-opacity="1" /><path clip-path="url(#clip460)" d="M1603.98 1458.23 L1603.98 1469.3 Q1599.01 1466.76 1593.66 1465.49 Q1588.32 1464.21 1582.59 1464.21 Q1573.87 1464.21 1569.47 1466.89 Q1565.15 1469.56 1565.15 1474.91 Q1565.15 1478.98 1568.26 1481.34 Q1571.38 1483.63 1580.8 1485.73 L1584.82 1486.62 Q1597.29 1489.29 1602.51 1494.19 Q1607.8 1499.03 1607.8 1507.75 Q1607.8 1517.68 1599.9 1523.48 Q1592.07 1529.27 1578.32 1529.27 Q1572.59 1529.27 1566.35 1528.12 Q1560.18 1527.04 1553.3 1524.81 L1553.3 1512.72 Q1559.8 1516.09 1566.1 1517.81 Q1572.4 1519.47 1578.58 1519.47 Q1586.85 1519.47 1591.31 1516.67 Q1595.76 1513.8 1595.76 1508.64 Q1595.76 1503.87 1592.52 1501.32 Q1589.33 1498.78 1578.45 1496.42 L1574.38 1495.47 Q1563.49 1493.18 1558.65 1488.47 Q1553.81 1483.69 1553.81 1475.42 Q1553.81 1465.36 1560.94 1459.88 Q1568.07 1454.41 1581.19 1454.41 Q1587.68 1454.41 1593.41 1455.36 Q1599.14 1456.32 1603.98 1458.23 Z" fill="#000000" fill-rule="nonzero" fill-opacity="1" /><polyline clip-path="url(#clip462)" style="stroke:#000000; stroke-linecap:round; stroke-linejoin:round; stroke-width:4; stroke-opacity:0.1; fill:none" points="561.747,1217.89 2305.51,1217.89 "/>
<polyline clip-path="url(#clip462)" style="stroke:#000000; stroke-linecap:round; stroke-linejoin:round; stroke-width:4; stroke-opacity:0.1; fill:none" points="561.747,1001.08 2305.51,1001.08 "/>
<polyline clip-path="url(#clip462)" style="stroke:#000000; stroke-linecap:round; stroke-linejoin:round; stroke-width:4; stroke-opacity:0.1; fill:none" points="561.747,784.26 2305.51,784.26 "/>
<polyline clip-path="url(#clip462)" style="stroke:#000000; stroke-linecap:round; stroke-linejoin:round; stroke-width:4; stroke-opacity:0.1; fill:none" points="561.747,567.443 2305.51,567.443 "/>
<polyline clip-path="url(#clip462)" style="stroke:#000000; stroke-linecap:round; stroke-linejoin:round; stroke-width:4; stroke-opacity:0.1; fill:none" points="561.747,350.626 2305.51,350.626 "/>
<polyline clip-path="url(#clip462)" style="stroke:#000000; stroke-linecap:round; stroke-linejoin:round; stroke-width:4; stroke-opacity:0.1; fill:none" points="561.747,133.808 2305.51,133.808 "/>
<polyline clip-path="url(#clip460)" style="stroke:#000000; stroke-linecap:round; stroke-linejoin:round; stroke-width:8; stroke-opacity:1; fill:none" points="561.747,1273.7 561.747,94.4882 "/>
<polyline clip-path="url(#clip460)" style="stroke:#000000; stroke-linecap:round; stroke-linejoin:round; stroke-width:8; stroke-opacity:1; fill:none" points="561.747,1217.89 580.645,1217.89 "/>
<polyline clip-path="url(#clip460)" style="stroke:#000000; stroke-linecap:round; stroke-linejoin:round; stroke-width:8; stroke-opacity:1; fill:none" points="561.747,1001.08 580.645,1001.08 "/>
<polyline clip-path="url(#clip460)" style="stroke:#000000; stroke-linecap:round; stroke-linejoin:round; stroke-width:8; stroke-opacity:1; fill:none" points="561.747,784.26 580.645,784.26 "/>
<polyline clip-path="url(#clip460)" style="stroke:#000000; stroke-linecap:round; stroke-linejoin:round; stroke-width:8; stroke-opacity:1; fill:none" points="561.747,567.443 580.645,567.443 "/>
<polyline clip-path="url(#clip460)" style="stroke:#000000; stroke-linecap:round; stroke-linejoin:round; stroke-width:8; stroke-opacity:1; fill:none" points="561.747,350.626 580.645,350.626 "/>
<polyline clip-path="url(#clip460)" style="stroke:#000000; stroke-linecap:round; stroke-linejoin:round; stroke-width:8; stroke-opacity:1; fill:none" points="561.747,133.808 580.645,133.808 "/>
<path clip-path="url(#clip460)" d="M352.23 1214.17 Q345.933 1214.17 342.23 1218.47 Q338.572 1222.78 338.572 1230.28 Q338.572 1237.73 342.23 1242.08 Q345.933 1246.39 352.23 1246.39 Q358.526 1246.39 362.183 1242.08 Q365.887 1237.73 365.887 1230.28 Q365.887 1222.78 362.183 1218.47 Q358.526 1214.17 352.23 1214.17 M370.794 1184.86 L370.794 1193.38 Q367.276 1191.71 363.665 1190.83 Q360.1 1189.96 356.582 1189.96 Q347.322 1189.96 342.415 1196.21 Q337.554 1202.46 336.859 1215.09 Q339.591 1211.07 343.711 1208.94 Q347.832 1206.76 352.785 1206.76 Q363.202 1206.76 369.22 1213.1 Q375.285 1219.4 375.285 1230.28 Q375.285 1240.93 368.989 1247.36 Q362.693 1253.8 352.23 1253.8 Q340.239 1253.8 333.896 1244.63 Q327.554 1235.42 327.554 1217.96 Q327.554 1201.58 335.332 1191.85 Q343.109 1182.09 356.211 1182.09 Q359.73 1182.09 363.294 1182.78 Q366.906 1183.47 370.794 1184.86 Z" fill="#000000" fill-rule="nonzero" fill-opacity="1" /><path clip-path="url(#clip460)" d="M391.489 1183.33 L428.202 1183.33 L428.202 1191.21 L400.054 1191.21 L400.054 1208.15 Q402.091 1207.46 404.128 1207.13 Q406.165 1206.76 408.202 1206.76 Q419.776 1206.76 426.535 1213.1 Q433.294 1219.45 433.294 1230.28 Q433.294 1241.44 426.35 1247.64 Q419.405 1253.8 406.766 1253.8 Q402.415 1253.8 397.878 1253.06 Q393.387 1252.32 388.572 1250.83 L388.572 1241.44 Q392.739 1243.71 397.183 1244.82 Q401.628 1245.93 406.581 1245.93 Q414.59 1245.93 419.266 1241.71 Q423.942 1237.5 423.942 1230.28 Q423.942 1223.06 419.266 1218.84 Q414.59 1214.63 406.581 1214.63 Q402.831 1214.63 399.081 1215.46 Q395.378 1216.3 391.489 1218.06 L391.489 1183.33 Z" fill="#000000" fill-rule="nonzero" fill-opacity="1" /><path clip-path="url(#clip460)" d="M451.72 1240.7 L461.488 1240.7 L461.488 1252.45 L451.72 1252.45 L451.72 1240.7 Z" fill="#000000" fill-rule="nonzero" fill-opacity="1" /><path clip-path="url(#clip460)" d="M501.859 1189.49 Q494.636 1189.49 490.979 1196.62 Q487.368 1203.71 487.368 1217.96 Q487.368 1232.18 490.979 1239.31 Q494.636 1246.39 501.859 1246.39 Q509.127 1246.39 512.738 1239.31 Q516.396 1232.18 516.396 1217.96 Q516.396 1203.71 512.738 1196.62 Q509.127 1189.49 501.859 1189.49 M501.859 1182.09 Q513.479 1182.09 519.59 1191.3 Q525.747 1200.46 525.747 1217.96 Q525.747 1235.42 519.59 1244.63 Q513.479 1253.8 501.859 1253.8 Q490.238 1253.8 484.081 1244.63 Q477.97 1235.42 477.97 1217.96 Q477.97 1200.46 484.081 1191.3 Q490.238 1182.09 501.859 1182.09 Z" fill="#000000" fill-rule="nonzero" fill-opacity="1" /><path clip-path="url(#clip460)" d="M328.711 966.518 L373.156 966.518 L373.156 970.499 L348.063 1035.64 L338.295 1035.64 L361.906 974.388 L328.711 974.388 L328.711 966.518 Z" fill="#000000" fill-rule="nonzero" fill-opacity="1" /><path clip-path="url(#clip460)" d="M411.396 972.675 Q404.174 972.675 400.516 979.805 Q396.905 986.888 396.905 1001.15 Q396.905 1015.36 400.516 1022.49 Q404.174 1029.57 411.396 1029.57 Q418.665 1029.57 422.276 1022.49 Q425.933 1015.36 425.933 1001.15 Q425.933 986.888 422.276 979.805 Q418.665 972.675 411.396 972.675 M411.396 965.268 Q423.016 965.268 429.127 974.481 Q435.285 983.647 435.285 1001.15 Q435.285 1018.6 429.127 1027.81 Q423.016 1036.98 411.396 1036.98 Q399.776 1036.98 393.618 1027.81 Q387.507 1018.6 387.507 1001.15 Q387.507 983.647 393.618 974.481 Q399.776 965.268 411.396 965.268 Z" fill="#000000" fill-rule="nonzero" fill-opacity="1" /><path clip-path="url(#clip460)" d="M451.72 1023.88 L461.488 1023.88 L461.488 1035.64 L451.72 1035.64 L451.72 1023.88 Z" fill="#000000" fill-rule="nonzero" fill-opacity="1" /><path clip-path="url(#clip460)" d="M501.859 972.675 Q494.636 972.675 490.979 979.805 Q487.368 986.888 487.368 1001.15 Q487.368 1015.36 490.979 1022.49 Q494.636 1029.57 501.859 1029.57 Q509.127 1029.57 512.738 1022.49 Q516.396 1015.36 516.396 1001.15 Q516.396 986.888 512.738 979.805 Q509.127 972.675 501.859 972.675 M501.859 965.268 Q513.479 965.268 519.59 974.481 Q525.747 983.647 525.747 1001.15 Q525.747 1018.6 519.59 1027.81 Q513.479 1036.98 501.859 1036.98 Q490.238 1036.98 484.081 1027.81 Q477.97 1018.6 477.97 1001.15 Q477.97 983.647 484.081 974.481 Q490.238 965.268 501.859 965.268 Z" fill="#000000" fill-rule="nonzero" fill-opacity="1" /><path clip-path="url(#clip460)" d="M328.711 749.7 L373.156 749.7 L373.156 753.682 L348.063 818.82 L338.295 818.82 L361.906 757.571 L328.711 757.571 L328.711 749.7 Z" fill="#000000" fill-rule="nonzero" fill-opacity="1" /><path clip-path="url(#clip460)" d="M391.489 749.7 L428.202 749.7 L428.202 757.571 L400.054 757.571 L400.054 774.515 Q402.091 773.821 404.128 773.496 Q406.165 773.126 408.202 773.126 Q419.776 773.126 426.535 779.469 Q433.294 785.811 433.294 796.645 Q433.294 807.802 426.35 814.006 Q419.405 820.163 406.766 820.163 Q402.415 820.163 397.878 819.422 Q393.387 818.681 388.572 817.2 L388.572 807.802 Q392.739 810.07 397.183 811.181 Q401.628 812.293 406.581 812.293 Q414.59 812.293 419.266 808.08 Q423.942 803.867 423.942 796.645 Q423.942 789.422 419.266 785.209 Q414.59 780.996 406.581 780.996 Q402.831 780.996 399.081 781.83 Q395.378 782.663 391.489 784.422 L391.489 749.7 Z" fill="#000000" fill-rule="nonzero" fill-opacity="1" /><path clip-path="url(#clip460)" d="M451.72 807.061 L461.488 807.061 L461.488 818.82 L451.72 818.82 L451.72 807.061 Z" fill="#000000" fill-rule="nonzero" fill-opacity="1" /><path clip-path="url(#clip460)" d="M501.859 755.858 Q494.636 755.858 490.979 762.987 Q487.368 770.071 487.368 784.33 Q487.368 798.543 490.979 805.672 Q494.636 812.756 501.859 812.756 Q509.127 812.756 512.738 805.672 Q516.396 798.543 516.396 784.33 Q516.396 770.071 512.738 762.987 Q509.127 755.858 501.859 755.858 M501.859 748.45 Q513.479 748.45 519.59 757.663 Q525.747 766.83 525.747 784.33 Q525.747 801.783 519.59 810.996 Q513.479 820.163 501.859 820.163 Q490.238 820.163 484.081 810.996 Q477.97 801.783 477.97 784.33 Q477.97 766.83 484.081 757.663 Q490.238 748.45 501.859 748.45 Z" fill="#000000" fill-rule="nonzero" fill-opacity="1" /><path clip-path="url(#clip460)" d="M351.072 569.179 Q344.406 569.179 340.563 572.744 Q336.767 576.309 336.767 582.559 Q336.767 588.809 340.563 592.373 Q344.406 595.938 351.072 595.938 Q357.739 595.938 361.582 592.373 Q365.424 588.762 365.424 582.559 Q365.424 576.309 361.582 572.744 Q357.785 569.179 351.072 569.179 M341.721 565.198 Q335.702 563.716 332.322 559.596 Q328.989 555.475 328.989 549.55 Q328.989 541.263 334.869 536.448 Q340.795 531.633 351.072 531.633 Q361.396 531.633 367.276 536.448 Q373.156 541.263 373.156 549.55 Q373.156 555.475 369.776 559.596 Q366.443 563.716 360.47 565.198 Q367.23 566.772 370.98 571.355 Q374.776 575.938 374.776 582.559 Q374.776 592.605 368.619 597.975 Q362.507 603.346 351.072 603.346 Q339.637 603.346 333.48 597.975 Q327.369 592.605 327.369 582.559 Q327.369 575.938 331.165 571.355 Q334.961 566.772 341.721 565.198 M338.295 550.429 Q338.295 555.8 341.628 558.809 Q345.008 561.818 351.072 561.818 Q357.091 561.818 360.47 558.809 Q363.896 555.8 363.896 550.429 Q363.896 545.059 360.47 542.05 Q357.091 539.04 351.072 539.04 Q345.008 539.04 341.628 542.05 Q338.295 545.059 338.295 550.429 Z" fill="#000000" fill-rule="nonzero" fill-opacity="1" /><path clip-path="url(#clip460)" d="M411.396 539.04 Q404.174 539.04 400.516 546.17 Q396.905 553.253 396.905 567.512 Q396.905 581.725 400.516 588.855 Q404.174 595.938 411.396 595.938 Q418.665 595.938 422.276 588.855 Q425.933 581.725 425.933 567.512 Q425.933 553.253 422.276 546.17 Q418.665 539.04 411.396 539.04 M411.396 531.633 Q423.016 531.633 429.127 540.846 Q435.285 550.013 435.285 567.512 Q435.285 584.966 429.127 594.179 Q423.016 603.346 411.396 603.346 Q399.776 603.346 393.618 594.179 Q387.507 584.966 387.507 567.512 Q387.507 550.013 393.618 540.846 Q399.776 531.633 411.396 531.633 Z" fill="#000000" fill-rule="nonzero" fill-opacity="1" /><path clip-path="url(#clip460)" d="M451.72 590.244 L461.488 590.244 L461.488 602.003 L451.72 602.003 L451.72 590.244 Z" fill="#000000" fill-rule="nonzero" fill-opacity="1" /><path clip-path="url(#clip460)" d="M501.859 539.04 Q494.636 539.04 490.979 546.17 Q487.368 553.253 487.368 567.512 Q487.368 581.725 490.979 588.855 Q494.636 595.938 501.859 595.938 Q509.127 595.938 512.738 588.855 Q516.396 581.725 516.396 567.512 Q516.396 553.253 512.738 546.17 Q509.127 539.04 501.859 539.04 M501.859 531.633 Q513.479 531.633 519.59 540.846 Q525.747 550.013 525.747 567.512 Q525.747 584.966 519.59 594.179 Q513.479 603.346 501.859 603.346 Q490.238 603.346 484.081 594.179 Q477.97 584.966 477.97 567.512 Q477.97 550.013 484.081 540.846 Q490.238 531.633 501.859 531.633 Z" fill="#000000" fill-rule="nonzero" fill-opacity="1" /><path clip-path="url(#clip460)" d="M351.072 352.362 Q344.406 352.362 340.563 355.927 Q336.767 359.491 336.767 365.741 Q336.767 371.991 340.563 375.556 Q344.406 379.121 351.072 379.121 Q357.739 379.121 361.582 375.556 Q365.424 371.945 365.424 365.741 Q365.424 359.491 361.582 355.927 Q357.785 352.362 351.072 352.362 M341.721 348.38 Q335.702 346.899 332.322 342.778 Q328.989 338.658 328.989 332.732 Q328.989 324.445 334.869 319.63 Q340.795 314.816 351.072 314.816 Q361.396 314.816 367.276 319.63 Q373.156 324.445 373.156 332.732 Q373.156 338.658 369.776 342.778 Q366.443 346.899 360.47 348.38 Q367.23 349.954 370.98 354.538 Q374.776 359.121 374.776 365.741 Q374.776 375.788 368.619 381.158 Q362.507 386.528 351.072 386.528 Q339.637 386.528 333.48 381.158 Q327.369 375.788 327.369 365.741 Q327.369 359.121 331.165 354.538 Q334.961 349.954 341.721 348.38 M338.295 333.612 Q338.295 338.982 341.628 341.991 Q345.008 345.001 351.072 345.001 Q357.091 345.001 360.47 341.991 Q363.896 338.982 363.896 333.612 Q363.896 328.242 360.47 325.232 Q357.091 322.223 351.072 322.223 Q345.008 322.223 341.628 325.232 Q338.295 328.242 338.295 333.612 Z" fill="#000000" fill-rule="nonzero" fill-opacity="1" /><path clip-path="url(#clip460)" d="M391.489 316.066 L428.202 316.066 L428.202 323.936 L400.054 323.936 L400.054 340.88 Q402.091 340.186 404.128 339.862 Q406.165 339.491 408.202 339.491 Q419.776 339.491 426.535 345.834 Q433.294 352.177 433.294 363.01 Q433.294 374.167 426.35 380.371 Q419.405 386.528 406.766 386.528 Q402.415 386.528 397.878 385.788 Q393.387 385.047 388.572 383.565 L388.572 374.167 Q392.739 376.436 397.183 377.547 Q401.628 378.658 406.581 378.658 Q414.59 378.658 419.266 374.445 Q423.942 370.232 423.942 363.01 Q423.942 355.788 419.266 351.575 Q414.59 347.362 406.581 347.362 Q402.831 347.362 399.081 348.195 Q395.378 349.028 391.489 350.788 L391.489 316.066 Z" fill="#000000" fill-rule="nonzero" fill-opacity="1" /><path clip-path="url(#clip460)" d="M451.72 373.426 L461.488 373.426 L461.488 385.186 L451.72 385.186 L451.72 373.426 Z" fill="#000000" fill-rule="nonzero" fill-opacity="1" /><path clip-path="url(#clip460)" d="M501.859 322.223 Q494.636 322.223 490.979 329.353 Q487.368 336.436 487.368 350.695 Q487.368 364.908 490.979 372.038 Q494.636 379.121 501.859 379.121 Q509.127 379.121 512.738 372.038 Q516.396 364.908 516.396 350.695 Q516.396 336.436 512.738 329.353 Q509.127 322.223 501.859 322.223 M501.859 314.816 Q513.479 314.816 519.59 324.029 Q525.747 333.195 525.747 350.695 Q525.747 368.149 519.59 377.362 Q513.479 386.528 501.859 386.528 Q490.238 386.528 484.081 377.362 Q477.97 368.149 477.97 350.695 Q477.97 333.195 484.081 324.029 Q490.238 314.816 501.859 314.816 Z" fill="#000000" fill-rule="nonzero" fill-opacity="1" /><path clip-path="url(#clip460)" d="M331.35 166.933 L331.35 158.415 Q334.869 160.081 338.48 160.961 Q342.091 161.841 345.563 161.841 Q354.822 161.841 359.683 155.637 Q364.591 149.387 365.285 136.702 Q362.6 140.683 358.48 142.813 Q354.359 144.943 349.359 144.943 Q338.989 144.943 332.924 138.693 Q326.906 132.396 326.906 121.517 Q326.906 110.869 333.202 104.433 Q339.498 97.9983 349.961 97.9983 Q361.952 97.9983 368.248 107.211 Q374.591 116.378 374.591 133.878 Q374.591 150.22 366.813 159.989 Q359.082 169.711 345.98 169.711 Q342.461 169.711 338.85 169.016 Q335.239 168.322 331.35 166.933 M349.961 137.628 Q356.257 137.628 359.915 133.322 Q363.619 129.017 363.619 121.517 Q363.619 114.063 359.915 109.758 Q356.257 105.406 349.961 105.406 Q343.665 105.406 339.961 109.758 Q336.304 114.063 336.304 121.517 Q336.304 129.017 339.961 133.322 Q343.665 137.628 349.961 137.628 Z" fill="#000000" fill-rule="nonzero" fill-opacity="1" /><path clip-path="url(#clip460)" d="M411.396 105.406 Q404.174 105.406 400.516 112.535 Q396.905 119.619 396.905 133.878 Q396.905 148.091 400.516 155.22 Q404.174 162.304 411.396 162.304 Q418.665 162.304 422.276 155.22 Q425.933 148.091 425.933 133.878 Q425.933 119.619 422.276 112.535 Q418.665 105.406 411.396 105.406 M411.396 97.9983 Q423.016 97.9983 429.127 107.211 Q435.285 116.378 435.285 133.878 Q435.285 151.331 429.127 160.544 Q423.016 169.711 411.396 169.711 Q399.776 169.711 393.618 160.544 Q387.507 151.331 387.507 133.878 Q387.507 116.378 393.618 107.211 Q399.776 97.9983 411.396 97.9983 Z" fill="#000000" fill-rule="nonzero" fill-opacity="1" /><path clip-path="url(#clip460)" d="M451.72 156.609 L461.488 156.609 L461.488 168.368 L451.72 168.368 L451.72 156.609 Z" fill="#000000" fill-rule="nonzero" fill-opacity="1" /><path clip-path="url(#clip460)" d="M501.859 105.406 Q494.636 105.406 490.979 112.535 Q487.368 119.619 487.368 133.878 Q487.368 148.091 490.979 155.22 Q494.636 162.304 501.859 162.304 Q509.127 162.304 512.738 155.22 Q516.396 148.091 516.396 133.878 Q516.396 119.619 512.738 112.535 Q509.127 105.406 501.859 105.406 M501.859 97.9983 Q513.479 97.9983 519.59 107.211 Q525.747 116.378 525.747 133.878 Q525.747 151.331 519.59 160.544 Q513.479 169.711 501.859 169.711 Q490.238 169.711 484.081 160.544 Q477.97 151.331 477.97 133.878 Q477.97 116.378 484.081 107.211 Q490.238 97.9983 501.859 97.9983 Z" fill="#000000" fill-rule="nonzero" fill-opacity="1" /><path clip-path="url(#clip460)" d="M251.699 931.845 L289.512 931.845 L289.512 943.622 L191.098 943.622 L191.098 931.845 L201.92 931.845 Q195.554 928.153 192.498 922.551 Q189.379 916.886 189.379 909.056 Q189.379 896.07 199.692 887.986 Q210.004 879.837 226.809 879.837 Q243.615 879.837 253.927 887.986 Q264.24 896.07 264.24 909.056 Q264.24 916.886 261.184 922.551 Q258.065 928.153 251.699 931.845 M226.809 891.996 Q213.887 891.996 206.567 897.343 Q199.182 902.627 199.182 911.921 Q199.182 921.215 206.567 926.562 Q213.887 931.845 226.809 931.845 Q239.732 931.845 247.116 926.562 Q254.437 921.215 254.437 911.921 Q254.437 902.627 247.116 897.343 Q239.732 891.996 226.809 891.996 Z" fill="#000000" fill-rule="nonzero" fill-opacity="1" /><path clip-path="url(#clip460)" d="M226.555 828.021 Q226.555 842.216 229.801 847.691 Q233.048 853.165 240.878 853.165 Q247.116 853.165 250.808 849.091 Q254.437 844.953 254.437 837.887 Q254.437 828.148 247.562 822.291 Q240.623 816.371 229.165 816.371 L226.555 816.371 L226.555 828.021 M221.717 804.658 L262.394 804.658 L262.394 816.371 L251.572 816.371 Q258.065 820.382 261.184 826.366 Q264.24 832.349 264.24 841.007 Q264.24 851.956 258.129 858.449 Q251.954 864.878 241.642 864.878 Q229.61 864.878 223.499 856.857 Q217.388 848.773 217.388 832.795 L217.388 816.371 L216.242 816.371 Q208.158 816.371 203.766 821.719 Q199.31 827.002 199.31 836.614 Q199.31 842.725 200.774 848.518 Q202.238 854.311 205.166 859.658 L194.344 859.658 Q191.862 853.229 190.652 847.181 Q189.379 841.134 189.379 835.405 Q189.379 819.936 197.4 812.297 Q205.421 804.658 221.717 804.658 Z" fill="#000000" fill-rule="nonzero" fill-opacity="1" /><path clip-path="url(#clip460)" d="M202.047 739.219 Q200.901 741.192 200.392 743.548 Q199.819 745.839 199.819 748.64 Q199.819 758.571 206.312 763.918 Q212.741 769.201 224.836 769.201 L262.394 769.201 L262.394 780.978 L191.098 780.978 L191.098 769.201 L202.174 769.201 Q195.681 765.509 192.562 759.589 Q189.379 753.669 189.379 745.203 Q189.379 743.993 189.57 742.529 Q189.697 741.065 190.016 739.283 L202.047 739.219 Z" fill="#000000" fill-rule="nonzero" fill-opacity="1" /><path clip-path="url(#clip460)" d="M223.818 668.814 L229.547 668.814 L229.547 722.668 Q241.642 721.904 248.007 715.411 Q254.309 708.855 254.309 697.205 Q254.309 690.458 252.654 684.156 Q250.999 677.79 247.689 671.552 L258.765 671.552 Q261.439 677.854 262.839 684.474 Q264.24 691.094 264.24 697.906 Q264.24 714.966 254.309 724.96 Q244.379 734.89 227.446 734.89 Q209.94 734.89 199.692 725.469 Q189.379 715.984 189.379 699.943 Q189.379 685.556 198.673 677.217 Q207.903 668.814 223.818 668.814 M220.38 680.527 Q210.768 680.654 205.039 685.938 Q199.31 691.158 199.31 699.815 Q199.31 709.618 204.848 715.539 Q210.386 721.395 220.444 722.286 L220.38 680.527 Z" fill="#000000" fill-rule="nonzero" fill-opacity="1" /><path clip-path="url(#clip460)" d="M219.362 590.325 L262.394 590.325 L262.394 602.038 L219.744 602.038 Q209.622 602.038 204.593 605.985 Q199.564 609.931 199.564 617.825 Q199.564 627.31 205.612 632.784 Q211.659 638.259 222.099 638.259 L262.394 638.259 L262.394 650.035 L191.098 650.035 L191.098 638.259 L202.174 638.259 Q195.745 634.058 192.562 628.392 Q189.379 622.663 189.379 615.215 Q189.379 602.929 197.018 596.627 Q204.593 590.325 219.362 590.325 Z" fill="#000000" fill-rule="nonzero" fill-opacity="1" /><path clip-path="url(#clip460)" d="M246.225 565.308 L246.225 551.876 L262.394 551.876 L262.394 565.308 L246.225 565.308 Z" fill="#000000" fill-rule="nonzero" fill-opacity="1" /><path clip-path="url(#clip460)" d="M167.354 485.673 L167.354 424.562 L172.828 424.562 L262.394 459.064 L262.394 472.496 L178.175 440.031 L178.175 485.673 L167.354 485.673 Z" fill="#000000" fill-rule="nonzero" fill-opacity="1" /><polyline clip-path="url(#clip462)" style="stroke:#008000; stroke-linecap:round; stroke-linejoin:round; stroke-width:8; stroke-opacity:1; fill:none" points="611.099,1077.33 748.188,802.579 885.276,630.965 1022.36,399.097 1159.45,499.639 1296.54,139.439 1433.63,127.862 1570.72,395.447 1707.81,301.746 1844.89,202.388 1981.98,386.665 2119.07,418.074 2256.16,593.34 "/>
<circle clip-path="url(#clip462)" cx="611.099" cy="1077.33" r="14.4" fill="#008000" fill-rule="evenodd" fill-opacity="1" stroke="#000000" stroke-opacity="1" stroke-width="6.4"/>
<circle clip-path="url(#clip462)" cx="748.188" cy="802.579" r="14.4" fill="#008000" fill-rule="evenodd" fill-opacity="1" stroke="#000000" stroke-opacity="1" stroke-width="6.4"/>
<circle clip-path="url(#clip462)" cx="885.276" cy="630.965" r="14.4" fill="#008000" fill-rule="evenodd" fill-opacity="1" stroke="#000000" stroke-opacity="1" stroke-width="6.4"/>
<circle clip-path="url(#clip462)" cx="1022.36" cy="399.097" r="14.4" fill="#008000" fill-rule="evenodd" fill-opacity="1" stroke="#000000" stroke-opacity="1" stroke-width="6.4"/>
<circle clip-path="url(#clip462)" cx="1159.45" cy="499.639" r="14.4" fill="#008000" fill-rule="evenodd" fill-opacity="1" stroke="#000000" stroke-opacity="1" stroke-width="6.4"/>
<circle clip-path="url(#clip462)" cx="1296.54" cy="139.439" r="14.4" fill="#008000" fill-rule="evenodd" fill-opacity="1" stroke="#000000" stroke-opacity="1" stroke-width="6.4"/>
<circle clip-path="url(#clip462)" cx="1433.63" cy="127.862" r="14.4" fill="#008000" fill-rule="evenodd" fill-opacity="1" stroke="#000000" stroke-opacity="1" stroke-width="6.4"/>
<circle clip-path="url(#clip462)" cx="1570.72" cy="395.447" r="14.4" fill="#008000" fill-rule="evenodd" fill-opacity="1" stroke="#000000" stroke-opacity="1" stroke-width="6.4"/>
<circle clip-path="url(#clip462)" cx="1707.81" cy="301.746" r="14.4" fill="#008000" fill-rule="evenodd" fill-opacity="1" stroke="#000000" stroke-opacity="1" stroke-width="6.4"/>
<circle clip-path="url(#clip462)" cx="1844.89" cy="202.388" r="14.4" fill="#008000" fill-rule="evenodd" fill-opacity="1" stroke="#000000" stroke-opacity="1" stroke-width="6.4"/>
<circle clip-path="url(#clip462)" cx="1981.98" cy="386.665" r="14.4" fill="#008000" fill-rule="evenodd" fill-opacity="1" stroke="#000000" stroke-opacity="1" stroke-width="6.4"/>
<circle clip-path="url(#clip462)" cx="2119.07" cy="418.074" r="14.4" fill="#008000" fill-rule="evenodd" fill-opacity="1" stroke="#000000" stroke-opacity="1" stroke-width="6.4"/>
<circle clip-path="url(#clip462)" cx="2256.16" cy="593.34" r="14.4" fill="#008000" fill-rule="evenodd" fill-opacity="1" stroke="#000000" stroke-opacity="1" stroke-width="6.4"/>
<polyline clip-path="url(#clip462)" style="stroke:#00008b; stroke-linecap:round; stroke-linejoin:round; stroke-width:8; stroke-opacity:1; fill:none" points="611.099,1079.98 748.188,1024.45 885.276,955.769 1022.36,902.513 1159.45,857.235 1296.54,819.417 1433.63,779.491 1570.72,749.828 1707.81,711.426 1844.89,680.984 1981.98,677.541 2119.07,644.022 2256.16,640.066 "/>
<path clip-path="url(#clip462)" d="M611.099 1240.32 L748.188 1184.13 L885.276 1125.79 L1022.36 1062.35 L1159.45 1026.61 L1296.54 978.385 L1433.63 959.638 L1570.72 903.977 L1707.81 881.562 L1844.89 845.005 L1981.98 851.949 L2119.07 805.427 L2256.16 810.948 L2256.16 470.593 L2119.07 476.591 L1981.98 512.932 L1844.89 509.924 L1707.81 533.714 L1570.72 580.828 L1433.63 606.965 L1296.54 653.546 L1159.45 694.533 L1022.36 746.596 L885.276 787.944 L748.188 862.858 L611.099 912.843  Z" fill="#0000ff" fill-rule="evenodd" fill-opacity="0.1"/>
<polyline clip-path="url(#clip462)" style="stroke:#0000ff; stroke-linecap:round; stroke-linejoin:round; stroke-width:0; stroke-opacity:0.1; fill:none" points="611.099,1240.32 748.188,1184.13 885.276,1125.79 1022.36,1062.35 1159.45,1026.61 1296.54,978.385 1433.63,959.638 1570.72,903.977 1707.81,881.562 1844.89,845.005 1981.98,851.949 2119.07,805.427 2256.16,810.948 "/>
</svg>
