<?xml version="1.0" encoding="utf-8"?>
<svg xmlns="http://www.w3.org/2000/svg" xmlns:xlink="http://www.w3.org/1999/xlink" width="600" height="400" viewBox="0 0 2400 1600">
<defs>
  <clipPath id="clip050">
    <rect x="0" y="0" width="2400" height="1600"/>
  </clipPath>
</defs>
<path clip-path="url(#clip050)" d="M0 1600 L2400 1600 L2400 0 L0 0  Z" fill="#ffffff" fill-rule="evenodd" fill-opacity="1"/>
<defs>
  <clipPath id="clip051">
    <rect x="480" y="0" width="1681" height="1600"/>
  </clipPath>
</defs>
<path clip-path="url(#clip050)" d="M673.506 1273.7 L2305.51 1273.7 L2305.51 94.4882 L673.506 94.4882  Z" fill="#ffffff" fill-rule="evenodd" fill-opacity="1"/>
<defs>
  <clipPath id="clip052">
    <rect x="673" y="94" width="1633" height="1180"/>
  </clipPath>
</defs>
<polyline clip-path="url(#clip052)" style="stroke:#000000; stroke-linecap:round; stroke-linejoin:round; stroke-width:4; stroke-opacity:0.1; fill:none" points="719.695,1273.7 719.695,94.4882 "/>
<polyline clip-path="url(#clip052)" style="stroke:#000000; stroke-linecap:round; stroke-linejoin:round; stroke-width:4; stroke-opacity:0.1; fill:none" points="1040.45,1273.7 1040.45,94.4882 "/>
<polyline clip-path="url(#clip052)" style="stroke:#000000; stroke-linecap:round; stroke-linejoin:round; stroke-width:4; stroke-opacity:0.1; fill:none" points="1361.21,1273.7 1361.21,94.4882 "/>
<polyline clip-path="url(#clip052)" style="stroke:#000000; stroke-linecap:round; stroke-linejoin:round; stroke-width:4; stroke-opacity:0.1; fill:none" points="1681.96,1273.7 1681.96,94.4882 "/>
<polyline clip-path="url(#clip052)" style="stroke:#000000; stroke-linecap:round; stroke-linejoin:round; stroke-width:4; stroke-opacity:0.1; fill:none" points="2002.72,1273.7 2002.72,94.4882 "/>
<polyline clip-path="url(#clip050)" style="stroke:#000000; stroke-linecap:round; stroke-linejoin:round; stroke-width:8; stroke-opacity:1; fill:none" points="673.506,1273.7 2305.51,1273.7 "/>
<polyline clip-path="url(#clip050)" style="stroke:#000000; stroke-linecap:round; stroke-linejoin:round; stroke-width:8; stroke-opacity:1; fill:none" points="719.695,1273.7 719.695,1254.8 "/>
<polyline clip-path="url(#clip050)" style="stroke:#000000; stroke-linecap:round; stroke-linejoin:round; stroke-width:8; stroke-opacity:1; fill:none" points="1040.45,1273.7 1040.45,1254.8 "/>
<polyline clip-path="url(#clip050)" style="stroke:#000000; stroke-linecap:round; stroke-linejoin:round; stroke-width:8; stroke-opacity:1; fill:none" points="1361.21,1273.7 1361.21,1254.8 "/>
<polyline clip-path="url(#clip050)" style="stroke:#000000; stroke-linecap:round; stroke-linejoin:round; stroke-width:8; stroke-opacity:1; fill:none" points="1681.96,1273.7 1681.96,1254.8 "/>
<polyline clip-path="url(#clip050)" style="stroke:#000000; stroke-linecap:round; stroke-linejoin:round; stroke-width:8; stroke-opacity:1; fill:none" points="2002.72,1273.7 2002.72,1254.8 "/>
<path clip-path="url(#clip050)" d="M644.302 1316.33 Q637.08 1316.33 633.422 1323.46 Q629.811 1330.55 629.811 1344.81 Q629.811 1359.02 633.422 1366.15 Q637.08 1373.23 644.302 1373.23 Q651.57 1373.23 655.181 1366.15 Q658.839 1359.02 658.839 1344.81 Q658.839 1330.55 655.181 1323.46 Q651.57 1316.33 644.302 1316.33 M644.302 1308.93 Q655.922 1308.93 662.033 1318.14 Q668.19 1327.31 668.19 1344.81 Q668.19 1362.26 662.033 1371.47 Q655.922 1380.64 644.302 1380.64 Q632.681 1380.64 626.524 1371.47 Q620.413 1362.26 620.413 1344.81 Q620.413 1327.31 626.524 1318.14 Q632.681 1308.93 644.302 1308.93 Z" fill="#000000" fill-rule="nonzero" fill-opacity="1" /><path clip-path="url(#clip050)" d="M684.626 1367.54 L694.394 1367.54 L694.394 1379.3 L684.626 1379.3 L684.626 1367.54 Z" fill="#000000" fill-rule="nonzero" fill-opacity="1" /><path clip-path="url(#clip050)" d="M734.764 1316.33 Q727.542 1316.33 723.885 1323.46 Q720.274 1330.55 720.274 1344.81 Q720.274 1359.02 723.885 1366.15 Q727.542 1373.23 734.764 1373.23 Q742.033 1373.23 745.644 1366.15 Q749.301 1359.02 749.301 1344.81 Q749.301 1330.55 745.644 1323.46 Q742.033 1316.33 734.764 1316.33 M734.764 1308.93 Q746.384 1308.93 752.496 1318.14 Q758.653 1327.31 758.653 1344.81 Q758.653 1362.26 752.496 1371.47 Q746.384 1380.64 734.764 1380.64 Q723.144 1380.64 716.986 1371.47 Q710.875 1362.26 710.875 1344.81 Q710.875 1327.31 716.986 1318.14 Q723.144 1308.93 734.764 1308.93 Z" fill="#000000" fill-rule="nonzero" fill-opacity="1" /><path clip-path="url(#clip050)" d="M795.088 1316.33 Q787.866 1316.33 784.208 1323.46 Q780.597 1330.55 780.597 1344.81 Q780.597 1359.02 784.208 1366.15 Q787.866 1373.23 795.088 1373.23 Q802.356 1373.23 805.967 1366.15 Q809.625 1359.02 809.625 1344.81 Q809.625 1330.55 805.967 1323.46 Q802.356 1316.33 795.088 1316.33 M795.088 1308.93 Q806.708 1308.93 812.819 1318.14 Q818.977 1327.31 818.977 1344.81 Q818.977 1362.26 812.819 1371.47 Q806.708 1380.64 795.088 1380.64 Q783.468 1380.64 777.31 1371.47 Q771.199 1362.26 771.199 1344.81 Q771.199 1327.31 777.31 1318.14 Q783.468 1308.93 795.088 1308.93 Z" fill="#000000" fill-rule="nonzero" fill-opacity="1" /><path clip-path="url(#clip050)" d="M966.053 1316.33 Q958.831 1316.33 955.173 1323.46 Q951.562 1330.55 951.562 1344.81 Q951.562 1359.02 955.173 1366.15 Q958.831 1373.23 966.053 1373.23 Q973.321 1373.23 976.932 1366.15 Q980.59 1359.02 980.59 1344.81 Q980.59 1330.55 976.932 1323.46 Q973.321 1316.33 966.053 1316.33 M966.053 1308.93 Q977.673 1308.93 983.784 1318.14 Q989.942 1327.31 989.942 1344.81 Q989.942 1362.26 983.784 1371.47 Q977.673 1380.64 966.053 1380.64 Q954.433 1380.64 948.275 1371.47 Q942.164 1362.26 942.164 1344.81 Q942.164 1327.31 948.275 1318.14 Q954.433 1308.93 966.053 1308.93 Z" fill="#000000" fill-rule="nonzero" fill-opacity="1" /><path clip-path="url(#clip050)" d="M1006.38 1367.54 L1016.15 1367.54 L1016.15 1379.3 L1006.38 1379.3 L1006.38 1367.54 Z" fill="#000000" fill-rule="nonzero" fill-opacity="1" /><path clip-path="url(#clip050)" d="M1044.57 1371.43 L1077.21 1371.43 L1077.21 1379.3 L1033.32 1379.3 L1033.32 1371.43 Q1038.65 1365.92 1047.81 1356.66 Q1057.02 1347.35 1059.39 1344.67 Q1063.88 1339.62 1065.64 1336.15 Q1067.44 1332.63 1067.44 1329.25 Q1067.44 1323.74 1063.55 1320.27 Q1059.71 1316.8 1053.51 1316.8 Q1049.11 1316.8 1044.2 1318.32 Q1039.34 1319.85 1033.78 1322.95 L1033.78 1313.51 Q1039.43 1311.24 1044.34 1310.08 Q1049.25 1308.93 1053.32 1308.93 Q1064.06 1308.93 1070.45 1314.3 Q1076.84 1319.67 1076.84 1328.65 Q1076.84 1332.91 1075.22 1336.75 Q1073.64 1340.55 1069.43 1345.73 Q1068.27 1347.07 1062.07 1353.51 Q1055.87 1359.9 1044.57 1371.43 Z" fill="#000000" fill-rule="nonzero" fill-opacity="1" /><path clip-path="url(#clip050)" d="M1096.93 1310.18 L1133.64 1310.18 L1133.64 1318.05 L1105.5 1318.05 L1105.5 1334.99 Q1107.53 1334.3 1109.57 1333.97 Q1111.61 1333.6 1113.64 1333.6 Q1125.22 1333.6 1131.98 1339.94 Q1138.74 1346.29 1138.74 1357.12 Q1138.74 1368.28 1131.79 1374.48 Q1124.85 1380.64 1112.21 1380.64 Q1107.86 1380.64 1103.32 1379.9 Q1098.83 1379.16 1094.02 1377.68 L1094.02 1368.28 Q1098.18 1370.55 1102.63 1371.66 Q1107.07 1372.77 1112.02 1372.77 Q1120.03 1372.77 1124.71 1368.56 Q1129.39 1364.34 1129.39 1357.12 Q1129.39 1349.9 1124.71 1345.68 Q1120.03 1341.47 1112.02 1341.47 Q1108.27 1341.47 1104.52 1342.31 Q1100.82 1343.14 1096.93 1344.9 L1096.93 1310.18 Z" fill="#000000" fill-rule="nonzero" fill-opacity="1" /><path clip-path="url(#clip050)" d="M1285.81 1316.33 Q1278.59 1316.33 1274.93 1323.46 Q1271.32 1330.55 1271.32 1344.81 Q1271.32 1359.02 1274.93 1366.15 Q1278.59 1373.23 1285.81 1373.23 Q1293.08 1373.23 1296.69 1366.15 Q1300.35 1359.02 1300.35 1344.81 Q1300.35 1330.55 1296.69 1323.46 Q1293.08 1316.33 1285.81 1316.33 M1285.81 1308.93 Q1297.43 1308.93 1303.54 1318.14 Q1309.7 1327.31 1309.7 1344.81 Q1309.7 1362.26 1303.54 1371.47 Q1297.43 1380.64 1285.81 1380.64 Q1274.19 1380.64 1268.04 1371.47 Q1261.92 1362.26 1261.92 1344.81 Q1261.92 1327.31 1268.04 1318.14 Q1274.19 1308.93 1285.81 1308.93 Z" fill="#000000" fill-rule="nonzero" fill-opacity="1" /><path clip-path="url(#clip050)" d="M1326.14 1367.54 L1335.91 1367.54 L1335.91 1379.3 L1326.14 1379.3 L1326.14 1367.54 Z" fill="#000000" fill-rule="nonzero" fill-opacity="1" /><path clip-path="url(#clip050)" d="M1356.37 1310.18 L1393.08 1310.18 L1393.08 1318.05 L1364.93 1318.05 L1364.93 1334.99 Q1366.97 1334.3 1369.01 1333.97 Q1371.04 1333.6 1373.08 1333.6 Q1384.66 1333.6 1391.41 1339.94 Q1398.17 1346.29 1398.17 1357.12 Q1398.17 1368.28 1391.23 1374.48 Q1384.29 1380.64 1371.65 1380.64 Q1367.29 1380.64 1362.76 1379.9 Q1358.27 1379.16 1353.45 1377.68 L1353.45 1368.28 Q1357.62 1370.55 1362.06 1371.66 Q1366.51 1372.77 1371.46 1372.77 Q1379.47 1372.77 1384.15 1368.56 Q1388.82 1364.34 1388.82 1357.12 Q1388.82 1349.9 1384.15 1345.68 Q1379.47 1341.47 1371.46 1341.47 Q1367.71 1341.47 1363.96 1342.31 Q1360.26 1343.14 1356.37 1344.9 L1356.37 1310.18 Z" fill="#000000" fill-rule="nonzero" fill-opacity="1" /><path clip-path="url(#clip050)" d="M1436.6 1316.33 Q1429.38 1316.33 1425.72 1323.46 Q1422.11 1330.55 1422.11 1344.81 Q1422.11 1359.02 1425.72 1366.15 Q1429.38 1373.23 1436.6 1373.23 Q1443.87 1373.23 1447.48 1366.15 Q1451.14 1359.02 1451.14 1344.81 Q1451.14 1330.55 1447.48 1323.46 Q1443.87 1316.33 1436.6 1316.33 M1436.6 1308.93 Q1448.22 1308.93 1454.33 1318.14 Q1460.49 1327.31 1460.49 1344.81 Q1460.49 1362.26 1454.33 1371.47 Q1448.22 1380.64 1436.6 1380.64 Q1424.98 1380.64 1418.82 1371.47 Q1412.71 1362.26 1412.71 1344.81 Q1412.71 1327.31 1418.82 1318.14 Q1424.98 1308.93 1436.6 1308.93 Z" fill="#000000" fill-rule="nonzero" fill-opacity="1" /><path clip-path="url(#clip050)" d="M1607.56 1316.33 Q1600.34 1316.33 1596.69 1323.46 Q1593.07 1330.55 1593.07 1344.81 Q1593.07 1359.02 1596.69 1366.15 Q1600.34 1373.23 1607.56 1373.23 Q1614.83 1373.23 1618.44 1366.15 Q1622.1 1359.02 1622.1 1344.81 Q1622.1 1330.55 1618.44 1323.46 Q1614.83 1316.33 1607.56 1316.33 M1607.56 1308.93 Q1619.18 1308.93 1625.3 1318.14 Q1631.45 1327.31 1631.45 1344.81 Q1631.45 1362.26 1625.3 1371.47 Q1619.18 1380.64 1607.56 1380.64 Q1595.94 1380.64 1589.79 1371.47 Q1583.68 1362.26 1583.68 1344.81 Q1583.68 1327.31 1589.79 1318.14 Q1595.94 1308.93 1607.56 1308.93 Z" fill="#000000" fill-rule="nonzero" fill-opacity="1" /><path clip-path="url(#clip050)" d="M1647.89 1367.54 L1657.66 1367.54 L1657.66 1379.3 L1647.89 1379.3 L1647.89 1367.54 Z" fill="#000000" fill-rule="nonzero" fill-opacity="1" /><path clip-path="url(#clip050)" d="M1675.67 1310.18 L1720.11 1310.18 L1720.11 1314.16 L1695.02 1379.3 L1685.25 1379.3 L1708.86 1318.05 L1675.67 1318.05 L1675.67 1310.18 Z" fill="#000000" fill-rule="nonzero" fill-opacity="1" /><path clip-path="url(#clip050)" d="M1738.44 1310.18 L1775.16 1310.18 L1775.16 1318.05 L1747.01 1318.05 L1747.01 1334.99 Q1749.05 1334.3 1751.08 1333.97 Q1753.12 1333.6 1755.16 1333.6 Q1766.73 1333.6 1773.49 1339.94 Q1780.25 1346.29 1780.25 1357.12 Q1780.25 1368.28 1773.3 1374.48 Q1766.36 1380.64 1753.72 1380.64 Q1749.37 1380.64 1744.83 1379.9 Q1740.34 1379.16 1735.53 1377.68 L1735.53 1368.28 Q1739.69 1370.55 1744.14 1371.66 Q1748.58 1372.77 1753.54 1372.77 Q1761.55 1372.77 1766.22 1368.56 Q1770.9 1364.34 1770.9 1357.12 Q1770.9 1349.9 1766.22 1345.68 Q1761.55 1341.47 1753.54 1341.47 Q1749.79 1341.47 1746.04 1342.31 Q1742.33 1343.14 1738.44 1344.9 L1738.44 1310.18 Z" fill="#000000" fill-rule="nonzero" fill-opacity="1" /><path clip-path="url(#clip050)" d="M1906.86 1371.43 L1922.14 1371.43 L1922.14 1318.69 L1905.52 1322.03 L1905.52 1313.51 L1922.05 1310.18 L1931.4 1310.18 L1931.4 1371.43 L1946.68 1371.43 L1946.68 1379.3 L1906.86 1379.3 L1906.86 1371.43 Z" fill="#000000" fill-rule="nonzero" fill-opacity="1" /><path clip-path="url(#clip050)" d="M1965.57 1367.54 L1975.33 1367.54 L1975.33 1379.3 L1965.57 1379.3 L1965.57 1367.54 Z" fill="#000000" fill-rule="nonzero" fill-opacity="1" /><path clip-path="url(#clip050)" d="M2015.7 1316.33 Q2008.48 1316.33 2004.82 1323.46 Q2001.21 1330.55 2001.21 1344.81 Q2001.21 1359.02 2004.82 1366.15 Q2008.48 1373.23 2015.7 1373.23 Q2022.97 1373.23 2026.58 1366.15 Q2030.24 1359.02 2030.24 1344.81 Q2030.24 1330.55 2026.58 1323.46 Q2022.97 1316.33 2015.7 1316.33 M2015.7 1308.93 Q2027.32 1308.93 2033.44 1318.14 Q2039.59 1327.31 2039.59 1344.81 Q2039.59 1362.26 2033.44 1371.47 Q2027.32 1380.64 2015.7 1380.64 Q2004.08 1380.64 1997.93 1371.47 Q1991.82 1362.26 1991.82 1344.81 Q1991.82 1327.31 1997.93 1318.14 Q2004.08 1308.93 2015.7 1308.93 Z" fill="#000000" fill-rule="nonzero" fill-opacity="1" /><path clip-path="url(#clip050)" d="M2076.03 1316.33 Q2068.81 1316.33 2065.15 1323.46 Q2061.54 1330.55 2061.54 1344.81 Q2061.54 1359.02 2065.15 1366.15 Q2068.81 1373.23 2076.03 1373.23 Q2083.3 1373.23 2086.91 1366.15 Q2090.57 1359.02 2090.57 1344.81 Q2090.57 1330.55 2086.91 1323.46 Q2083.3 1316.33 2076.03 1316.33 M2076.03 1308.93 Q2087.65 1308.93 2093.76 1318.14 Q2099.92 1327.31 2099.92 1344.81 Q2099.92 1362.26 2093.76 1371.47 Q2087.65 1380.64 2076.03 1380.64 Q2064.41 1380.64 2058.25 1371.47 Q2052.14 1362.26 2052.14 1344.81 Q2052.14 1327.31 2058.25 1318.14 Q2064.41 1308.93 2076.03 1308.93 Z" fill="#000000" fill-rule="nonzero" fill-opacity="1" /><path clip-path="url(#clip050)" d="M1375.05 1484.39 L1375.05 1527.42 L1363.34 1527.42 L1363.34 1484.77 Q1363.34 1474.65 1359.39 1469.62 Q1355.45 1464.59 1347.55 1464.59 Q1338.07 1464.59 1332.59 1470.64 Q1327.12 1476.69 1327.12 1487.13 L1327.12 1527.42 L1315.34 1527.42 L1315.34 1428.37 L1327.12 1428.37 L1327.12 1467.2 Q1331.32 1460.77 1336.99 1457.59 Q1342.72 1454.41 1350.16 1454.41 Q1362.45 1454.41 1368.75 1462.05 Q1375.05 1469.62 1375.05 1484.39 Z" fill="#000000" fill-rule="nonzero" fill-opacity="1" /><path clip-path="url(#clip050)" d="M1426.04 1464.34 Q1416.62 1464.34 1411.15 1471.72 Q1405.67 1479.04 1405.67 1491.84 Q1405.67 1504.63 1411.08 1512.02 Q1416.56 1519.34 1426.04 1519.34 Q1435.4 1519.34 1440.87 1511.96 Q1446.35 1504.57 1446.35 1491.84 Q1446.35 1479.17 1440.87 1471.79 Q1435.4 1464.34 1426.04 1464.34 M1426.04 1454.41 Q1441.32 1454.41 1450.04 1464.34 Q1458.76 1474.27 1458.76 1491.84 Q1458.76 1509.35 1450.04 1519.34 Q1441.32 1529.27 1426.04 1529.27 Q1410.7 1529.27 1401.98 1519.34 Q1393.32 1509.35 1393.32 1491.84 Q1393.32 1474.27 1401.98 1464.34 Q1410.7 1454.41 1426.04 1454.41 Z" fill="#000000" fill-rule="nonzero" fill-opacity="1" /><path clip-path="url(#clip050)" d="M1476.97 1499.29 L1476.97 1456.13 L1488.68 1456.13 L1488.68 1498.84 Q1488.68 1508.96 1492.63 1514.06 Q1496.57 1519.08 1504.47 1519.08 Q1513.95 1519.08 1519.43 1513.04 Q1524.97 1506.99 1524.97 1496.55 L1524.97 1456.13 L1536.68 1456.13 L1536.68 1527.42 L1524.97 1527.42 L1524.97 1516.47 Q1520.7 1522.97 1515.04 1526.15 Q1509.43 1529.27 1501.99 1529.27 Q1489.7 1529.27 1483.33 1521.63 Q1476.97 1513.99 1476.97 1499.29 M1506.44 1454.41 L1506.44 1454.41 Z" fill="#000000" fill-rule="nonzero" fill-opacity="1" /><path clip-path="url(#clip050)" d="M1602.12 1467.08 Q1600.14 1465.93 1597.79 1465.42 Q1595.5 1464.85 1592.7 1464.85 Q1582.77 1464.85 1577.42 1471.34 Q1572.14 1477.77 1572.14 1489.87 L1572.14 1527.42 L1560.36 1527.42 L1560.36 1456.13 L1572.14 1456.13 L1572.14 1467.2 Q1575.83 1460.71 1581.75 1457.59 Q1587.67 1454.41 1596.13 1454.41 Q1597.34 1454.41 1598.81 1454.6 Q1600.27 1454.73 1602.05 1455.05 L1602.12 1467.08 Z" fill="#000000" fill-rule="nonzero" fill-opacity="1" /><path clip-path="url(#clip050)" d="M1659.86 1458.23 L1659.86 1469.3 Q1654.89 1466.76 1649.54 1465.49 Q1644.2 1464.21 1638.47 1464.21 Q1629.75 1464.21 1625.35 1466.89 Q1621.02 1469.56 1621.02 1474.91 Q1621.02 1478.98 1624.14 1481.34 Q1627.26 1483.63 1636.68 1485.73 L1640.69 1486.62 Q1653.17 1489.29 1658.39 1494.19 Q1663.67 1499.03 1663.67 1507.75 Q1663.67 1517.68 1655.78 1523.48 Q1647.95 1529.27 1634.2 1529.27 Q1628.47 1529.27 1622.23 1528.12 Q1616.06 1527.04 1609.18 1524.81 L1609.18 1512.72 Q1615.68 1516.09 1621.98 1517.81 Q1628.28 1519.47 1634.46 1519.47 Q1642.73 1519.47 1647.19 1516.67 Q1651.64 1513.8 1651.64 1508.64 Q1651.64 1503.87 1648.4 1501.32 Q1645.21 1498.78 1634.33 1496.42 L1630.25 1495.47 Q1619.37 1493.18 1614.53 1488.47 Q1609.69 1483.69 1609.69 1475.42 Q1609.69 1465.36 1616.82 1459.88 Q1623.95 1454.41 1637.07 1454.41 Q1643.56 1454.41 1649.29 1455.36 Q1655.02 1456.32 1659.86 1458.23 Z" fill="#000000" fill-rule="nonzero" fill-opacity="1" /><polyline clip-path="url(#clip052)" style="stroke:#000000; stroke-linecap:round; stroke-linejoin:round; stroke-width:4; stroke-opacity:0.1; fill:none" points="673.506,1230.13 2305.51,1230.13 "/>
<polyline clip-path="url(#clip052)" style="stroke:#000000; stroke-linecap:round; stroke-linejoin:round; stroke-width:4; stroke-opacity:0.1; fill:none" points="673.506,1061.15 2305.51,1061.15 "/>
<polyline clip-path="url(#clip052)" style="stroke:#000000; stroke-linecap:round; stroke-linejoin:round; stroke-width:4; stroke-opacity:0.1; fill:none" points="673.506,892.175 2305.51,892.175 "/>
<polyline clip-path="url(#clip052)" style="stroke:#000000; stroke-linecap:round; stroke-linejoin:round; stroke-width:4; stroke-opacity:0.1; fill:none" points="673.506,723.199 2305.51,723.199 "/>
<polyline clip-path="url(#clip052)" style="stroke:#000000; stroke-linecap:round; stroke-linejoin:round; stroke-width:4; stroke-opacity:0.1; fill:none" points="673.506,554.224 2305.51,554.224 "/>
<polyline clip-path="url(#clip052)" style="stroke:#000000; stroke-linecap:round; stroke-linejoin:round; stroke-width:4; stroke-opacity:0.1; fill:none" points="673.506,385.249 2305.51,385.249 "/>
<polyline clip-path="url(#clip052)" style="stroke:#000000; stroke-linecap:round; stroke-linejoin:round; stroke-width:4; stroke-opacity:0.1; fill:none" points="673.506,216.274 2305.51,216.274 "/>
<polyline clip-path="url(#clip050)" style="stroke:#000000; stroke-linecap:round; stroke-linejoin:round; stroke-width:8; stroke-opacity:1; fill:none" points="673.506,1273.7 673.506,94.4882 "/>
<polyline clip-path="url(#clip050)" style="stroke:#000000; stroke-linecap:round; stroke-linejoin:round; stroke-width:8; stroke-opacity:1; fill:none" points="673.506,1230.13 692.404,1230.13 "/>
<polyline clip-path="url(#clip050)" style="stroke:#000000; stroke-linecap:round; stroke-linejoin:round; stroke-width:8; stroke-opacity:1; fill:none" points="673.506,1061.15 692.404,1061.15 "/>
<polyline clip-path="url(#clip050)" style="stroke:#000000; stroke-linecap:round; stroke-linejoin:round; stroke-width:8; stroke-opacity:1; fill:none" points="673.506,892.175 692.404,892.175 "/>
<polyline clip-path="url(#clip050)" style="stroke:#000000; stroke-linecap:round; stroke-linejoin:round; stroke-width:8; stroke-opacity:1; fill:none" points="673.506,723.199 692.404,723.199 "/>
<polyline clip-path="url(#clip050)" style="stroke:#000000; stroke-linecap:round; stroke-linejoin:round; stroke-width:8; stroke-opacity:1; fill:none" points="673.506,554.224 692.404,554.224 "/>
<polyline clip-path="url(#clip050)" style="stroke:#000000; stroke-linecap:round; stroke-linejoin:round; stroke-width:8; stroke-opacity:1; fill:none" points="673.506,385.249 692.404,385.249 "/>
<polyline clip-path="url(#clip050)" style="stroke:#000000; stroke-linecap:round; stroke-linejoin:round; stroke-width:8; stroke-opacity:1; fill:none" points="673.506,216.274 692.404,216.274 "/>
<path clip-path="url(#clip050)" d="M440.47 1195.57 L484.914 1195.57 L484.914 1199.55 L459.822 1264.69 L450.053 1264.69 L473.664 1203.44 L440.47 1203.44 L440.47 1195.57 Z" fill="#000000" fill-rule="nonzero" fill-opacity="1" /><path clip-path="url(#clip050)" d="M523.155 1201.72 Q515.933 1201.72 512.275 1208.85 Q508.664 1215.94 508.664 1230.19 Q508.664 1244.41 512.275 1251.54 Q515.933 1258.62 523.155 1258.62 Q530.423 1258.62 534.034 1251.54 Q537.692 1244.41 537.692 1230.19 Q537.692 1215.94 534.034 1208.85 Q530.423 1201.72 523.155 1201.72 M523.155 1194.32 Q534.775 1194.32 540.886 1203.53 Q547.043 1212.69 547.043 1230.19 Q547.043 1247.65 540.886 1256.86 Q534.775 1266.03 523.155 1266.03 Q511.534 1266.03 505.377 1256.86 Q499.266 1247.65 499.266 1230.19 Q499.266 1212.69 505.377 1203.53 Q511.534 1194.32 523.155 1194.32 Z" fill="#000000" fill-rule="nonzero" fill-opacity="1" /><path clip-path="url(#clip050)" d="M563.479 1252.93 L573.247 1252.93 L573.247 1264.69 L563.479 1264.69 L563.479 1252.93 Z" fill="#000000" fill-rule="nonzero" fill-opacity="1" /><path clip-path="url(#clip050)" d="M613.617 1201.72 Q606.395 1201.72 602.738 1208.85 Q599.127 1215.94 599.127 1230.19 Q599.127 1244.41 602.738 1251.54 Q606.395 1258.62 613.617 1258.62 Q620.886 1258.62 624.497 1251.54 Q628.154 1244.41 628.154 1230.19 Q628.154 1215.94 624.497 1208.85 Q620.886 1201.72 613.617 1201.72 M613.617 1194.32 Q625.238 1194.32 631.349 1203.53 Q637.506 1212.69 637.506 1230.19 Q637.506 1247.65 631.349 1256.86 Q625.238 1266.03 613.617 1266.03 Q601.997 1266.03 595.84 1256.86 Q589.728 1247.65 589.728 1230.19 Q589.728 1212.69 595.84 1203.53 Q601.997 1194.32 613.617 1194.32 Z" fill="#000000" fill-rule="nonzero" fill-opacity="1" /><path clip-path="url(#clip050)" d="M462.831 1062.89 Q456.164 1062.89 452.322 1066.45 Q448.525 1070.02 448.525 1076.27 Q448.525 1082.52 452.322 1086.08 Q456.164 1089.65 462.831 1089.65 Q469.498 1089.65 473.34 1086.08 Q477.183 1082.47 477.183 1076.27 Q477.183 1070.02 473.34 1066.45 Q469.544 1062.89 462.831 1062.89 M453.479 1058.9 Q447.461 1057.42 444.081 1053.3 Q440.748 1049.18 440.748 1043.26 Q440.748 1034.97 446.627 1030.15 Q452.553 1025.34 462.831 1025.34 Q473.155 1025.34 479.035 1030.15 Q484.914 1034.97 484.914 1043.26 Q484.914 1049.18 481.535 1053.3 Q478.201 1057.42 472.229 1058.9 Q478.988 1060.48 482.738 1065.06 Q486.535 1069.65 486.535 1076.27 Q486.535 1086.31 480.377 1091.68 Q474.266 1097.05 462.831 1097.05 Q451.396 1097.05 445.238 1091.68 Q439.127 1086.31 439.127 1076.27 Q439.127 1069.65 442.924 1065.06 Q446.72 1060.48 453.479 1058.9 M450.053 1044.14 Q450.053 1049.51 453.387 1052.52 Q456.766 1055.52 462.831 1055.52 Q468.849 1055.52 472.229 1052.52 Q475.655 1049.51 475.655 1044.14 Q475.655 1038.77 472.229 1035.76 Q468.849 1032.75 462.831 1032.75 Q456.766 1032.75 453.387 1035.76 Q450.053 1038.77 450.053 1044.14 Z" fill="#000000" fill-rule="nonzero" fill-opacity="1" /><path clip-path="url(#clip050)" d="M523.155 1032.75 Q515.933 1032.75 512.275 1039.88 Q508.664 1046.96 508.664 1061.22 Q508.664 1075.43 512.275 1082.56 Q515.933 1089.65 523.155 1089.65 Q530.423 1089.65 534.034 1082.56 Q537.692 1075.43 537.692 1061.22 Q537.692 1046.96 534.034 1039.88 Q530.423 1032.75 523.155 1032.75 M523.155 1025.34 Q534.775 1025.34 540.886 1034.55 Q547.043 1043.72 547.043 1061.22 Q547.043 1078.67 540.886 1087.89 Q534.775 1097.05 523.155 1097.05 Q511.534 1097.05 505.377 1087.89 Q499.266 1078.67 499.266 1061.22 Q499.266 1043.72 505.377 1034.55 Q511.534 1025.34 523.155 1025.34 Z" fill="#000000" fill-rule="nonzero" fill-opacity="1" /><path clip-path="url(#clip050)" d="M563.479 1083.95 L573.247 1083.95 L573.247 1095.71 L563.479 1095.71 L563.479 1083.95 Z" fill="#000000" fill-rule="nonzero" fill-opacity="1" /><path clip-path="url(#clip050)" d="M613.617 1032.75 Q606.395 1032.75 602.738 1039.88 Q599.127 1046.96 599.127 1061.22 Q599.127 1075.43 602.738 1082.56 Q606.395 1089.65 613.617 1089.65 Q620.886 1089.65 624.497 1082.56 Q628.154 1075.43 628.154 1061.22 Q628.154 1046.96 624.497 1039.88 Q620.886 1032.75 613.617 1032.75 M613.617 1025.34 Q625.238 1025.34 631.349 1034.55 Q637.506 1043.72 637.506 1061.22 Q637.506 1078.67 631.349 1087.89 Q625.238 1097.05 613.617 1097.05 Q601.997 1097.05 595.84 1087.89 Q589.728 1078.67 589.728 1061.22 Q589.728 1043.72 595.84 1034.55 Q601.997 1025.34 613.617 1025.34 Z" fill="#000000" fill-rule="nonzero" fill-opacity="1" /><path clip-path="url(#clip050)" d="M443.109 925.299 L443.109 916.781 Q446.627 918.448 450.238 919.327 Q453.85 920.207 457.322 920.207 Q466.581 920.207 471.442 914.003 Q476.349 907.753 477.044 895.068 Q474.359 899.05 470.238 901.179 Q466.118 903.309 461.118 903.309 Q450.748 903.309 444.683 897.059 Q438.664 890.763 438.664 879.883 Q438.664 869.235 444.961 862.8 Q451.257 856.365 461.72 856.365 Q473.711 856.365 480.007 865.578 Q486.349 874.744 486.349 892.244 Q486.349 908.587 478.572 918.355 Q470.84 928.077 457.738 928.077 Q454.22 928.077 450.609 927.383 Q446.998 926.688 443.109 925.299 M461.72 895.994 Q468.016 895.994 471.674 891.689 Q475.377 887.383 475.377 879.883 Q475.377 872.429 471.674 868.124 Q468.016 863.772 461.72 863.772 Q455.424 863.772 451.72 868.124 Q448.063 872.429 448.063 879.883 Q448.063 887.383 451.72 891.689 Q455.424 895.994 461.72 895.994 Z" fill="#000000" fill-rule="nonzero" fill-opacity="1" /><path clip-path="url(#clip050)" d="M523.155 863.772 Q515.933 863.772 512.275 870.902 Q508.664 877.985 508.664 892.244 Q508.664 906.457 512.275 913.587 Q515.933 920.67 523.155 920.67 Q530.423 920.67 534.034 913.587 Q537.692 906.457 537.692 892.244 Q537.692 877.985 534.034 870.902 Q530.423 863.772 523.155 863.772 M523.155 856.365 Q534.775 856.365 540.886 865.578 Q547.043 874.744 547.043 892.244 Q547.043 909.698 540.886 918.911 Q534.775 928.077 523.155 928.077 Q511.534 928.077 505.377 918.911 Q499.266 909.698 499.266 892.244 Q499.266 874.744 505.377 865.578 Q511.534 856.365 523.155 856.365 Z" fill="#000000" fill-rule="nonzero" fill-opacity="1" /><path clip-path="url(#clip050)" d="M563.479 914.975 L573.247 914.975 L573.247 926.735 L563.479 926.735 L563.479 914.975 Z" fill="#000000" fill-rule="nonzero" fill-opacity="1" /><path clip-path="url(#clip050)" d="M613.617 863.772 Q606.395 863.772 602.738 870.902 Q599.127 877.985 599.127 892.244 Q599.127 906.457 602.738 913.587 Q606.395 920.67 613.617 920.67 Q620.886 920.67 624.497 913.587 Q628.154 906.457 628.154 892.244 Q628.154 877.985 624.497 870.902 Q620.886 863.772 613.617 863.772 M613.617 856.365 Q625.238 856.365 631.349 865.578 Q637.506 874.744 637.506 892.244 Q637.506 909.698 631.349 918.911 Q625.238 928.077 613.617 928.077 Q601.997 928.077 595.84 918.911 Q589.728 909.698 589.728 892.244 Q589.728 874.744 595.84 865.578 Q601.997 856.365 613.617 856.365 Z" fill="#000000" fill-rule="nonzero" fill-opacity="1" /><path clip-path="url(#clip050)" d="M384.128 749.889 L399.405 749.889 L399.405 697.158 L382.785 700.491 L382.785 691.973 L399.313 688.639 L408.665 688.639 L408.665 749.889 L423.942 749.889 L423.942 757.759 L384.128 757.759 L384.128 749.889 Z" fill="#000000" fill-rule="nonzero" fill-opacity="1" /><path clip-path="url(#clip050)" d="M462.831 694.797 Q455.609 694.797 451.951 701.926 Q448.34 709.01 448.34 723.269 Q448.34 737.482 451.951 744.611 Q455.609 751.695 462.831 751.695 Q470.099 751.695 473.711 744.611 Q477.368 737.482 477.368 723.269 Q477.368 709.01 473.711 701.926 Q470.099 694.797 462.831 694.797 M462.831 687.389 Q474.451 687.389 480.562 696.602 Q486.72 705.769 486.72 723.269 Q486.72 740.722 480.562 749.935 Q474.451 759.102 462.831 759.102 Q451.211 759.102 445.053 749.935 Q438.942 740.722 438.942 723.269 Q438.942 705.769 445.053 696.602 Q451.211 687.389 462.831 687.389 Z" fill="#000000" fill-rule="nonzero" fill-opacity="1" /><path clip-path="url(#clip050)" d="M523.155 694.797 Q515.933 694.797 512.275 701.926 Q508.664 709.01 508.664 723.269 Q508.664 737.482 512.275 744.611 Q515.933 751.695 523.155 751.695 Q530.423 751.695 534.034 744.611 Q537.692 737.482 537.692 723.269 Q537.692 709.01 534.034 701.926 Q530.423 694.797 523.155 694.797 M523.155 687.389 Q534.775 687.389 540.886 696.602 Q547.043 705.769 547.043 723.269 Q547.043 740.722 540.886 749.935 Q534.775 759.102 523.155 759.102 Q511.534 759.102 505.377 749.935 Q499.266 740.722 499.266 723.269 Q499.266 705.769 505.377 696.602 Q511.534 687.389 523.155 687.389 Z" fill="#000000" fill-rule="nonzero" fill-opacity="1" /><path clip-path="url(#clip050)" d="M563.479 746 L573.247 746 L573.247 757.759 L563.479 757.759 L563.479 746 Z" fill="#000000" fill-rule="nonzero" fill-opacity="1" /><path clip-path="url(#clip050)" d="M613.617 694.797 Q606.395 694.797 602.738 701.926 Q599.127 709.01 599.127 723.269 Q599.127 737.482 602.738 744.611 Q606.395 751.695 613.617 751.695 Q620.886 751.695 624.497 744.611 Q628.154 737.482 628.154 723.269 Q628.154 709.01 624.497 701.926 Q620.886 694.797 613.617 694.797 M613.617 687.389 Q625.238 687.389 631.349 696.602 Q637.506 705.769 637.506 723.269 Q637.506 740.722 631.349 749.935 Q625.238 759.102 613.617 759.102 Q601.997 759.102 595.84 749.935 Q589.728 740.722 589.728 723.269 Q589.728 705.769 595.84 696.602 Q601.997 687.389 613.617 687.389 Z" fill="#000000" fill-rule="nonzero" fill-opacity="1" /><path clip-path="url(#clip050)" d="M384.128 580.914 L399.405 580.914 L399.405 528.183 L382.785 531.516 L382.785 522.998 L399.313 519.664 L408.665 519.664 L408.665 580.914 L423.942 580.914 L423.942 588.784 L384.128 588.784 L384.128 580.914 Z" fill="#000000" fill-rule="nonzero" fill-opacity="1" /><path clip-path="url(#clip050)" d="M444.451 580.914 L459.729 580.914 L459.729 528.183 L443.109 531.516 L443.109 522.998 L459.637 519.664 L468.988 519.664 L468.988 580.914 L484.266 580.914 L484.266 588.784 L444.451 588.784 L444.451 580.914 Z" fill="#000000" fill-rule="nonzero" fill-opacity="1" /><path clip-path="url(#clip050)" d="M523.155 525.822 Q515.933 525.822 512.275 532.951 Q508.664 540.034 508.664 554.294 Q508.664 568.507 512.275 575.636 Q515.933 582.719 523.155 582.719 Q530.423 582.719 534.034 575.636 Q537.692 568.507 537.692 554.294 Q537.692 540.034 534.034 532.951 Q530.423 525.822 523.155 525.822 M523.155 518.414 Q534.775 518.414 540.886 527.627 Q547.043 536.794 547.043 554.294 Q547.043 571.747 540.886 580.96 Q534.775 590.127 523.155 590.127 Q511.534 590.127 505.377 580.96 Q499.266 571.747 499.266 554.294 Q499.266 536.794 505.377 527.627 Q511.534 518.414 523.155 518.414 Z" fill="#000000" fill-rule="nonzero" fill-opacity="1" /><path clip-path="url(#clip050)" d="M563.479 577.025 L573.247 577.025 L573.247 588.784 L563.479 588.784 L563.479 577.025 Z" fill="#000000" fill-rule="nonzero" fill-opacity="1" /><path clip-path="url(#clip050)" d="M613.617 525.822 Q606.395 525.822 602.738 532.951 Q599.127 540.034 599.127 554.294 Q599.127 568.507 602.738 575.636 Q606.395 582.719 613.617 582.719 Q620.886 582.719 624.497 575.636 Q628.154 568.507 628.154 554.294 Q628.154 540.034 624.497 532.951 Q620.886 525.822 613.617 525.822 M613.617 518.414 Q625.238 518.414 631.349 527.627 Q637.506 536.794 637.506 554.294 Q637.506 571.747 631.349 580.96 Q625.238 590.127 613.617 590.127 Q601.997 590.127 595.84 580.96 Q589.728 571.747 589.728 554.294 Q589.728 536.794 595.84 527.627 Q601.997 518.414 613.617 518.414 Z" fill="#000000" fill-rule="nonzero" fill-opacity="1" /><path clip-path="url(#clip050)" d="M384.128 411.939 L399.405 411.939 L399.405 359.208 L382.785 362.541 L382.785 354.022 L399.313 350.689 L408.665 350.689 L408.665 411.939 L423.942 411.939 L423.942 419.809 L384.128 419.809 L384.128 411.939 Z" fill="#000000" fill-rule="nonzero" fill-opacity="1" /><path clip-path="url(#clip050)" d="M450.887 411.939 L483.525 411.939 L483.525 419.809 L439.637 419.809 L439.637 411.939 Q444.961 406.429 454.127 397.17 Q463.34 387.865 465.701 385.18 Q470.192 380.133 471.951 376.661 Q473.757 373.143 473.757 369.763 Q473.757 364.254 469.868 360.782 Q466.025 357.309 459.822 357.309 Q455.424 357.309 450.516 358.837 Q445.655 360.365 440.1 363.467 L440.1 354.022 Q445.748 351.754 450.655 350.596 Q455.562 349.439 459.637 349.439 Q470.377 349.439 476.766 354.809 Q483.155 360.18 483.155 369.161 Q483.155 373.42 481.535 377.263 Q479.961 381.059 475.748 386.244 Q474.59 387.587 468.387 394.022 Q462.183 400.411 450.887 411.939 Z" fill="#000000" fill-rule="nonzero" fill-opacity="1" /><path clip-path="url(#clip050)" d="M523.155 356.846 Q515.933 356.846 512.275 363.976 Q508.664 371.059 508.664 385.318 Q508.664 399.531 512.275 406.661 Q515.933 413.744 523.155 413.744 Q530.423 413.744 534.034 406.661 Q537.692 399.531 537.692 385.318 Q537.692 371.059 534.034 363.976 Q530.423 356.846 523.155 356.846 M523.155 349.439 Q534.775 349.439 540.886 358.652 Q547.043 367.819 547.043 385.318 Q547.043 402.772 540.886 411.985 Q534.775 421.152 523.155 421.152 Q511.534 421.152 505.377 411.985 Q499.266 402.772 499.266 385.318 Q499.266 367.819 505.377 358.652 Q511.534 349.439 523.155 349.439 Z" fill="#000000" fill-rule="nonzero" fill-opacity="1" /><path clip-path="url(#clip050)" d="M563.479 408.05 L573.247 408.05 L573.247 419.809 L563.479 419.809 L563.479 408.05 Z" fill="#000000" fill-rule="nonzero" fill-opacity="1" /><path clip-path="url(#clip050)" d="M613.617 356.846 Q606.395 356.846 602.738 363.976 Q599.127 371.059 599.127 385.318 Q599.127 399.531 602.738 406.661 Q606.395 413.744 613.617 413.744 Q620.886 413.744 624.497 406.661 Q628.154 399.531 628.154 385.318 Q628.154 371.059 624.497 363.976 Q620.886 356.846 613.617 356.846 M613.617 349.439 Q625.238 349.439 631.349 358.652 Q637.506 367.819 637.506 385.318 Q637.506 402.772 631.349 411.985 Q625.238 421.152 613.617 421.152 Q601.997 421.152 595.84 411.985 Q589.728 402.772 589.728 385.318 Q589.728 367.819 595.84 358.652 Q601.997 349.439 613.617 349.439 Z" fill="#000000" fill-rule="nonzero" fill-opacity="1" /><path clip-path="url(#clip050)" d="M384.128 242.963 L399.405 242.963 L399.405 190.232 L382.785 193.566 L382.785 185.047 L399.313 181.714 L408.665 181.714 L408.665 242.963 L423.942 242.963 L423.942 250.834 L384.128 250.834 L384.128 242.963 Z" fill="#000000" fill-rule="nonzero" fill-opacity="1" /><path clip-path="url(#clip050)" d="M471.164 213.566 Q477.877 215.001 481.627 219.538 Q485.423 224.075 485.423 230.741 Q485.423 240.973 478.386 246.575 Q471.349 252.176 458.387 252.176 Q454.035 252.176 449.405 251.297 Q444.822 250.463 439.914 248.751 L439.914 239.723 Q443.803 241.991 448.433 243.149 Q453.063 244.306 458.109 244.306 Q466.905 244.306 471.488 240.834 Q476.118 237.362 476.118 230.741 Q476.118 224.63 471.812 221.204 Q467.553 217.732 459.914 217.732 L451.859 217.732 L451.859 210.047 L460.285 210.047 Q467.183 210.047 470.84 207.316 Q474.498 204.538 474.498 199.353 Q474.498 194.029 470.701 191.205 Q466.951 188.334 459.914 188.334 Q456.072 188.334 451.674 189.167 Q447.276 190.001 441.998 191.76 L441.998 183.427 Q447.322 181.945 451.951 181.205 Q456.627 180.464 460.748 180.464 Q471.396 180.464 477.599 185.325 Q483.803 190.14 483.803 198.38 Q483.803 204.121 480.516 208.103 Q477.229 212.038 471.164 213.566 Z" fill="#000000" fill-rule="nonzero" fill-opacity="1" /><path clip-path="url(#clip050)" d="M523.155 187.871 Q515.933 187.871 512.275 195.001 Q508.664 202.084 508.664 216.343 Q508.664 230.556 512.275 237.686 Q515.933 244.769 523.155 244.769 Q530.423 244.769 534.034 237.686 Q537.692 230.556 537.692 216.343 Q537.692 202.084 534.034 195.001 Q530.423 187.871 523.155 187.871 M523.155 180.464 Q534.775 180.464 540.886 189.677 Q547.043 198.843 547.043 216.343 Q547.043 233.797 540.886 243.01 Q534.775 252.176 523.155 252.176 Q511.534 252.176 505.377 243.01 Q499.266 233.797 499.266 216.343 Q499.266 198.843 505.377 189.677 Q511.534 180.464 523.155 180.464 Z" fill="#000000" fill-rule="nonzero" fill-opacity="1" /><path clip-path="url(#clip050)" d="M563.479 239.075 L573.247 239.075 L573.247 250.834 L563.479 250.834 L563.479 239.075 Z" fill="#000000" fill-rule="nonzero" fill-opacity="1" /><path clip-path="url(#clip050)" d="M613.617 187.871 Q606.395 187.871 602.738 195.001 Q599.127 202.084 599.127 216.343 Q599.127 230.556 602.738 237.686 Q606.395 244.769 613.617 244.769 Q620.886 244.769 624.497 237.686 Q628.154 230.556 628.154 216.343 Q628.154 202.084 624.497 195.001 Q620.886 187.871 613.617 187.871 M613.617 180.464 Q625.238 180.464 631.349 189.677 Q637.506 198.843 637.506 216.343 Q637.506 233.797 631.349 243.01 Q625.238 252.176 613.617 252.176 Q601.997 252.176 595.84 243.01 Q589.728 233.797 589.728 216.343 Q589.728 198.843 595.84 189.677 Q601.997 180.464 613.617 180.464 Z" fill="#000000" fill-rule="nonzero" fill-opacity="1" /><path clip-path="url(#clip050)" d="M307.579 930.89 L345.391 930.89 L345.391 942.667 L246.977 942.667 L246.977 930.89 L257.799 930.89 Q251.433 927.198 248.378 921.596 Q245.258 915.931 245.258 908.101 Q245.258 895.115 255.571 887.031 Q265.883 878.883 282.689 878.883 Q299.494 878.883 309.807 887.031 Q320.119 895.115 320.119 908.101 Q320.119 915.931 317.064 921.596 Q313.944 927.198 307.579 930.89 M282.689 891.041 Q269.766 891.041 262.446 896.388 Q255.062 901.672 255.062 910.966 Q255.062 920.26 262.446 925.607 Q269.766 930.89 282.689 930.89 Q295.611 930.89 302.995 925.607 Q310.316 920.26 310.316 910.966 Q310.316 901.672 302.995 896.388 Q295.611 891.041 282.689 891.041 Z" fill="#000000" fill-rule="nonzero" fill-opacity="1" /><path clip-path="url(#clip050)" d="M282.434 827.066 Q282.434 841.261 285.681 846.736 Q288.927 852.21 296.757 852.21 Q302.995 852.21 306.688 848.136 Q310.316 843.999 310.316 836.933 Q310.316 827.193 303.441 821.337 Q296.502 815.416 285.044 815.416 L282.434 815.416 L282.434 827.066 M277.596 803.704 L318.273 803.704 L318.273 815.416 L307.451 815.416 Q313.944 819.427 317.064 825.411 Q320.119 831.394 320.119 840.052 Q320.119 851.001 314.008 857.494 Q307.833 863.923 297.521 863.923 Q285.49 863.923 279.379 855.902 Q273.268 847.818 273.268 831.84 L273.268 815.416 L272.122 815.416 Q264.037 815.416 259.645 820.764 Q255.189 826.047 255.189 835.659 Q255.189 841.771 256.653 847.563 Q258.117 853.356 261.045 858.703 L250.224 858.703 Q247.741 852.274 246.532 846.227 Q245.258 840.179 245.258 834.45 Q245.258 818.981 253.279 811.342 Q261.3 803.704 277.596 803.704 Z" fill="#000000" fill-rule="nonzero" fill-opacity="1" /><path clip-path="url(#clip050)" d="M257.926 738.264 Q256.78 740.238 256.271 742.593 Q255.698 744.884 255.698 747.685 Q255.698 757.616 262.191 762.963 Q268.621 768.247 280.715 768.247 L318.273 768.247 L318.273 780.023 L246.977 780.023 L246.977 768.247 L258.054 768.247 Q251.561 764.555 248.441 758.634 Q245.258 752.714 245.258 744.248 Q245.258 743.038 245.449 741.574 Q245.577 740.11 245.895 738.328 L257.926 738.264 Z" fill="#000000" fill-rule="nonzero" fill-opacity="1" /><path clip-path="url(#clip050)" d="M279.697 667.859 L285.426 667.859 L285.426 721.713 Q297.521 720.949 303.887 714.456 Q310.189 707.9 310.189 696.25 Q310.189 689.503 308.534 683.201 Q306.878 676.835 303.568 670.597 L314.645 670.597 Q317.318 676.899 318.719 683.519 Q320.119 690.139 320.119 696.951 Q320.119 714.011 310.189 724.005 Q300.258 733.935 283.325 733.935 Q265.82 733.935 255.571 724.514 Q245.258 715.029 245.258 698.988 Q245.258 684.601 254.552 676.262 Q263.783 667.859 279.697 667.859 M276.259 679.572 Q266.647 679.7 260.918 684.983 Q255.189 690.203 255.189 698.86 Q255.189 708.664 260.727 714.584 Q266.265 720.44 276.323 721.331 L276.259 679.572 Z" fill="#000000" fill-rule="nonzero" fill-opacity="1" /><path clip-path="url(#clip050)" d="M275.241 589.37 L318.273 589.37 L318.273 601.083 L275.623 601.083 Q265.501 601.083 260.472 605.03 Q255.444 608.977 255.444 616.87 Q255.444 626.355 261.491 631.83 Q267.538 637.304 277.978 637.304 L318.273 637.304 L318.273 649.081 L246.977 649.081 L246.977 637.304 L258.054 637.304 Q251.624 633.103 248.441 627.437 Q245.258 621.708 245.258 614.26 Q245.258 601.974 252.897 595.672 Q260.472 589.37 275.241 589.37 Z" fill="#000000" fill-rule="nonzero" fill-opacity="1" /><path clip-path="url(#clip050)" d="M302.104 564.353 L302.104 550.921 L318.273 550.921 L318.273 564.353 L302.104 564.353 Z" fill="#000000" fill-rule="nonzero" fill-opacity="1" /><path clip-path="url(#clip050)" d="M307.451 470.395 L307.451 425.517 L318.273 425.517 L318.273 485.864 L307.451 485.864 Q299.876 478.543 287.145 465.939 Q274.35 453.271 270.658 450.025 Q263.719 443.85 258.945 441.431 Q254.107 438.949 249.46 438.949 Q241.885 438.949 237.11 444.296 Q232.336 449.579 232.336 458.109 Q232.336 464.157 234.437 470.904 Q236.537 477.588 240.802 485.227 L227.816 485.227 Q224.697 477.461 223.106 470.713 Q221.514 463.966 221.514 458.364 Q221.514 443.596 228.899 434.811 Q236.283 426.026 248.632 426.026 Q254.489 426.026 259.772 428.254 Q264.992 430.419 272.122 436.211 Q273.968 437.803 282.816 446.333 Q291.601 454.863 307.451 470.395 Z" fill="#000000" fill-rule="nonzero" fill-opacity="1" /><polyline clip-path="url(#clip052)" style="stroke:#008000; stroke-linecap:round; stroke-linejoin:round; stroke-width:8; stroke-opacity:1; fill:none" points="719.695,127.862 847.997,357.023 976.3,464.626 1104.6,452.053 1232.9,531.371 1361.21,546.545 1489.51,642.741 1617.81,736.349 1746.11,840.401 1874.42,845.13 2002.72,887.897 2131.02,995.294 2259.32,1033.27 "/>
<circle clip-path="url(#clip052)" cx="719.695" cy="127.862" r="14.4" fill="#008000" fill-rule="evenodd" fill-opacity="1" stroke="#000000" stroke-opacity="1" stroke-width="6.4"/>
<circle clip-path="url(#clip052)" cx="847.997" cy="357.023" r="14.4" fill="#008000" fill-rule="evenodd" fill-opacity="1" stroke="#000000" stroke-opacity="1" stroke-width="6.4"/>
<circle clip-path="url(#clip052)" cx="976.3" cy="464.626" r="14.4" fill="#008000" fill-rule="evenodd" fill-opacity="1" stroke="#000000" stroke-opacity="1" stroke-width="6.4"/>
<circle clip-path="url(#clip052)" cx="1104.6" cy="452.053" r="14.4" fill="#008000" fill-rule="evenodd" fill-opacity="1" stroke="#000000" stroke-opacity="1" stroke-width="6.4"/>
<circle clip-path="url(#clip052)" cx="1232.9" cy="531.371" r="14.4" fill="#008000" fill-rule="evenodd" fill-opacity="1" stroke="#000000" stroke-opacity="1" stroke-width="6.4"/>
<circle clip-path="url(#clip052)" cx="1361.21" cy="546.545" r="14.4" fill="#008000" fill-rule="evenodd" fill-opacity="1" stroke="#000000" stroke-opacity="1" stroke-width="6.4"/>
<circle clip-path="url(#clip052)" cx="1489.51" cy="642.741" r="14.4" fill="#008000" fill-rule="evenodd" fill-opacity="1" stroke="#000000" stroke-opacity="1" stroke-width="6.4"/>
<circle clip-path="url(#clip052)" cx="1617.81" cy="736.349" r="14.4" fill="#008000" fill-rule="evenodd" fill-opacity="1" stroke="#000000" stroke-opacity="1" stroke-width="6.4"/>
<circle clip-path="url(#clip052)" cx="1746.11" cy="840.401" r="14.4" fill="#008000" fill-rule="evenodd" fill-opacity="1" stroke="#000000" stroke-opacity="1" stroke-width="6.4"/>
<circle clip-path="url(#clip052)" cx="1874.42" cy="845.13" r="14.4" fill="#008000" fill-rule="evenodd" fill-opacity="1" stroke="#000000" stroke-opacity="1" stroke-width="6.4"/>
<circle clip-path="url(#clip052)" cx="2002.72" cy="887.897" r="14.4" fill="#008000" fill-rule="evenodd" fill-opacity="1" stroke="#000000" stroke-opacity="1" stroke-width="6.4"/>
<circle clip-path="url(#clip052)" cx="2131.02" cy="995.294" r="14.4" fill="#008000" fill-rule="evenodd" fill-opacity="1" stroke="#000000" stroke-opacity="1" stroke-width="6.4"/>
<circle clip-path="url(#clip052)" cx="2259.32" cy="1033.27" r="14.4" fill="#008000" fill-rule="evenodd" fill-opacity="1" stroke="#000000" stroke-opacity="1" stroke-width="6.4"/>
<polyline clip-path="url(#clip052)" style="stroke:#00008b; stroke-linecap:round; stroke-linejoin:round; stroke-width:8; stroke-opacity:1; fill:none" points="719.695,256.974 847.997,433.316 976.3,547.109 1104.6,647.168 1232.9,725.049 1361.21,807.822 1489.51,878.465 1617.81,937.552 1746.11,994.053 1874.42,1044.93 2002.72,1097.06 2131.02,1143.25 2259.32,1179.97 "/>
<path clip-path="url(#clip052)" d="M719.695 318.249 L847.997 492.013 L976.3 606.425 L1104.6 707.25 L1232.9 784.907 L1361.21 865.852 L1489.51 938.142 L1617.81 1002.33 L1746.11 1058.46 L1874.42 1103.95 L2002.72 1159.06 L2131.02 1202.28 L2259.32 1240.32 L2259.32 1116.17 L2131.02 1080.38 L2002.72 1037.43 L1874.42 984.376 L1746.11 931.555 L1617.81 875.18 L1489.51 820.863 L1361.21 748.094 L1232.9 664.385 L1104.6 586.851 L976.3 484.89 L847.997 373.764 L719.695 199.288  Z" fill="#0000ff" fill-rule="evenodd" fill-opacity="0.1"/>
<polyline clip-path="url(#clip052)" style="stroke:#0000ff; stroke-linecap:round; stroke-linejoin:round; stroke-width:0; stroke-opacity:0.1; fill:none" points="719.695,318.249 847.997,492.013 976.3,606.425 1104.6,707.25 1232.9,784.907 1361.21,865.852 1489.51,938.142 1617.81,1002.33 1746.11,1058.46 1874.42,1103.95 2002.72,1159.06 2131.02,1202.28 2259.32,1240.32 "/>
</svg>
