<?xml version="1.0" encoding="utf-8"?>
<svg xmlns="http://www.w3.org/2000/svg" xmlns:xlink="http://www.w3.org/1999/xlink" width="600" height="400" viewBox="0 0 2400 1600">
<defs>
  <clipPath id="clip840">
    <rect x="0" y="0" width="2400" height="1600"/>
  </clipPath>
</defs>
<path clip-path="url(#clip840)" d="M0 1600 L2400 1600 L2400 0 L0 0  Z" fill="#ffffff" fill-rule="evenodd" fill-opacity="1"/>
<defs>
  <clipPath id="clip841">
    <rect x="480" y="0" width="1681" height="1600"/>
  </clipPath>
</defs>
<path clip-path="url(#clip840)" d="M673.506 1273.7 L2305.51 1273.7 L2305.51 94.4882 L673.506 94.4882  Z" fill="#ffffff" fill-rule="evenodd" fill-opacity="1"/>
<defs>
  <clipPath id="clip842">
    <rect x="673" y="94" width="1633" height="1180"/>
  </clipPath>
</defs>
<polyline clip-path="url(#clip842)" style="stroke:#000000; stroke-linecap:round; stroke-linejoin:round; stroke-width:4; stroke-opacity:0.1; fill:none" points="719.695,1273.7 719.695,94.4882 "/>
<polyline clip-path="url(#clip842)" style="stroke:#000000; stroke-linecap:round; stroke-linejoin:round; stroke-width:4; stroke-opacity:0.1; fill:none" points="1040.45,1273.7 1040.45,94.4882 "/>
<polyline clip-path="url(#clip842)" style="stroke:#000000; stroke-linecap:round; stroke-linejoin:round; stroke-width:4; stroke-opacity:0.1; fill:none" points="1361.21,1273.7 1361.21,94.4882 "/>
<polyline clip-path="url(#clip842)" style="stroke:#000000; stroke-linecap:round; stroke-linejoin:round; stroke-width:4; stroke-opacity:0.1; fill:none" points="1681.96,1273.7 1681.96,94.4882 "/>
<polyline clip-path="url(#clip842)" style="stroke:#000000; stroke-linecap:round; stroke-linejoin:round; stroke-width:4; stroke-opacity:0.1; fill:none" points="2002.72,1273.7 2002.72,94.4882 "/>
<polyline clip-path="url(#clip840)" style="stroke:#000000; stroke-linecap:round; stroke-linejoin:round; stroke-width:8; stroke-opacity:1; fill:none" points="673.506,1273.7 2305.51,1273.7 "/>
<polyline clip-path="url(#clip840)" style="stroke:#000000; stroke-linecap:round; stroke-linejoin:round; stroke-width:8; stroke-opacity:1; fill:none" points="719.695,1273.7 719.695,1254.8 "/>
<polyline clip-path="url(#clip840)" style="stroke:#000000; stroke-linecap:round; stroke-linejoin:round; stroke-width:8; stroke-opacity:1; fill:none" points="1040.45,1273.7 1040.45,1254.8 "/>
<polyline clip-path="url(#clip840)" style="stroke:#000000; stroke-linecap:round; stroke-linejoin:round; stroke-width:8; stroke-opacity:1; fill:none" points="1361.21,1273.7 1361.21,1254.8 "/>
<polyline clip-path="url(#clip840)" style="stroke:#000000; stroke-linecap:round; stroke-linejoin:round; stroke-width:8; stroke-opacity:1; fill:none" points="1681.96,1273.7 1681.96,1254.8 "/>
<polyline clip-path="url(#clip840)" style="stroke:#000000; stroke-linecap:round; stroke-linejoin:round; stroke-width:8; stroke-opacity:1; fill:none" points="2002.72,1273.7 2002.72,1254.8 "/>
<path clip-path="url(#clip840)" d="M644.302 1316.33 Q637.08 1316.33 633.422 1323.46 Q629.811 1330.55 629.811 1344.81 Q629.811 1359.02 633.422 1366.15 Q637.08 1373.23 644.302 1373.23 Q651.57 1373.23 655.181 1366.15 Q658.839 1359.02 658.839 1344.81 Q658.839 1330.55 655.181 1323.46 Q651.57 1316.33 644.302 1316.33 M644.302 1308.93 Q655.922 1308.93 662.033 1318.14 Q668.19 1327.31 668.19 1344.81 Q668.19 1362.26 662.033 1371.47 Q655.922 1380.64 644.302 1380.64 Q632.681 1380.64 626.524 1371.47 Q620.413 1362.26 620.413 1344.81 Q620.413 1327.31 626.524 1318.14 Q632.681 1308.93 644.302 1308.93 Z" fill="#000000" fill-rule="nonzero" fill-opacity="1" /><path clip-path="url(#clip840)" d="M684.626 1367.54 L694.394 1367.54 L694.394 1379.3 L684.626 1379.3 L684.626 1367.54 Z" fill="#000000" fill-rule="nonzero" fill-opacity="1" /><path clip-path="url(#clip840)" d="M734.764 1316.33 Q727.542 1316.33 723.885 1323.46 Q720.274 1330.55 720.274 1344.81 Q720.274 1359.02 723.885 1366.15 Q727.542 1373.23 734.764 1373.23 Q742.033 1373.23 745.644 1366.15 Q749.301 1359.02 749.301 1344.81 Q749.301 1330.55 745.644 1323.46 Q742.033 1316.33 734.764 1316.33 M734.764 1308.93 Q746.384 1308.93 752.496 1318.14 Q758.653 1327.31 758.653 1344.81 Q758.653 1362.26 752.496 1371.47 Q746.384 1380.64 734.764 1380.64 Q723.144 1380.64 716.986 1371.47 Q710.875 1362.26 710.875 1344.81 Q710.875 1327.31 716.986 1318.14 Q723.144 1308.93 734.764 1308.93 Z" fill="#000000" fill-rule="nonzero" fill-opacity="1" /><path clip-path="url(#clip840)" d="M795.088 1316.33 Q787.866 1316.33 784.208 1323.46 Q780.597 1330.55 780.597 1344.81 Q780.597 1359.02 784.208 1366.15 Q787.866 1373.23 795.088 1373.23 Q802.356 1373.23 805.967 1366.15 Q809.625 1359.02 809.625 1344.81 Q809.625 1330.55 805.967 1323.46 Q802.356 1316.33 795.088 1316.33 M795.088 1308.93 Q806.708 1308.93 812.819 1318.14 Q818.977 1327.31 818.977 1344.81 Q818.977 1362.26 812.819 1371.47 Q806.708 1380.64 795.088 1380.64 Q783.468 1380.64 777.31 1371.47 Q771.199 1362.26 771.199 1344.81 Q771.199 1327.31 777.31 1318.14 Q783.468 1308.93 795.088 1308.93 Z" fill="#000000" fill-rule="nonzero" fill-opacity="1" /><path clip-path="url(#clip840)" d="M966.053 1316.33 Q958.831 1316.33 955.173 1323.46 Q951.562 1330.55 951.562 1344.81 Q951.562 1359.02 955.173 1366.15 Q958.831 1373.23 966.053 1373.23 Q973.321 1373.23 976.932 1366.15 Q980.59 1359.02 980.59 1344.81 Q980.59 1330.55 976.932 1323.46 Q973.321 1316.33 966.053 1316.33 M966.053 1308.93 Q977.673 1308.93 983.784 1318.14 Q989.942 1327.31 989.942 1344.81 Q989.942 1362.26 983.784 1371.47 Q977.673 1380.64 966.053 1380.64 Q954.433 1380.64 948.275 1371.47 Q942.164 1362.26 942.164 1344.81 Q942.164 1327.31 948.275 1318.14 Q954.433 1308.93 966.053 1308.93 Z" fill="#000000" fill-rule="nonzero" fill-opacity="1" /><path clip-path="url(#clip840)" d="M1006.38 1367.54 L1016.15 1367.54 L1016.15 1379.3 L1006.38 1379.3 L1006.38 1367.54 Z" fill="#000000" fill-rule="nonzero" fill-opacity="1" /><path clip-path="url(#clip840)" d="M1044.57 1371.43 L1077.21 1371.43 L1077.21 1379.3 L1033.32 1379.3 L1033.32 1371.43 Q1038.65 1365.92 1047.81 1356.66 Q1057.02 1347.35 1059.39 1344.67 Q1063.88 1339.62 1065.64 1336.15 Q1067.44 1332.63 1067.44 1329.25 Q1067.44 1323.74 1063.55 1320.27 Q1059.71 1316.8 1053.51 1316.8 Q1049.11 1316.8 1044.2 1318.32 Q1039.34 1319.85 1033.78 1322.95 L1033.78 1313.51 Q1039.43 1311.24 1044.34 1310.08 Q1049.25 1308.93 1053.32 1308.93 Q1064.06 1308.93 1070.45 1314.3 Q1076.84 1319.67 1076.84 1328.65 Q1076.84 1332.91 1075.22 1336.75 Q1073.64 1340.55 1069.43 1345.73 Q1068.27 1347.07 1062.07 1353.51 Q1055.87 1359.9 1044.57 1371.43 Z" fill="#000000" fill-rule="nonzero" fill-opacity="1" /><path clip-path="url(#clip840)" d="M1096.93 1310.18 L1133.64 1310.18 L1133.64 1318.05 L1105.5 1318.05 L1105.5 1334.99 Q1107.53 1334.3 1109.57 1333.97 Q1111.61 1333.6 1113.64 1333.6 Q1125.22 1333.6 1131.98 1339.94 Q1138.74 1346.29 1138.74 1357.12 Q1138.74 1368.28 1131.79 1374.48 Q1124.85 1380.64 1112.21 1380.64 Q1107.86 1380.64 1103.32 1379.9 Q1098.83 1379.16 1094.02 1377.68 L1094.02 1368.28 Q1098.18 1370.55 1102.63 1371.66 Q1107.07 1372.77 1112.02 1372.77 Q1120.03 1372.77 1124.71 1368.56 Q1129.39 1364.34 1129.39 1357.12 Q1129.39 1349.9 1124.71 1345.68 Q1120.03 1341.47 1112.02 1341.47 Q1108.27 1341.47 1104.52 1342.31 Q1100.82 1343.14 1096.93 1344.9 L1096.93 1310.18 Z" fill="#000000" fill-rule="nonzero" fill-opacity="1" /><path clip-path="url(#clip840)" d="M1285.81 1316.33 Q1278.59 1316.33 1274.93 1323.46 Q1271.32 1330.55 1271.32 1344.81 Q1271.32 1359.02 1274.93 1366.15 Q1278.59 1373.23 1285.81 1373.23 Q1293.08 1373.23 1296.69 1366.15 Q1300.35 1359.02 1300.35 1344.81 Q1300.35 1330.55 1296.69 1323.46 Q1293.08 1316.33 1285.81 1316.33 M1285.81 1308.93 Q1297.43 1308.93 1303.54 1318.14 Q1309.7 1327.31 1309.7 1344.81 Q1309.7 1362.26 1303.54 1371.47 Q1297.43 1380.64 1285.81 1380.64 Q1274.19 1380.64 1268.04 1371.47 Q1261.92 1362.26 1261.92 1344.81 Q1261.92 1327.31 1268.04 1318.14 Q1274.19 1308.93 1285.81 1308.93 Z" fill="#000000" fill-rule="nonzero" fill-opacity="1" /><path clip-path="url(#clip840)" d="M1326.14 1367.54 L1335.91 1367.54 L1335.91 1379.3 L1326.14 1379.3 L1326.14 1367.54 Z" fill="#000000" fill-rule="nonzero" fill-opacity="1" /><path clip-path="url(#clip840)" d="M1356.37 1310.18 L1393.08 1310.18 L1393.08 1318.05 L1364.93 1318.05 L1364.93 1334.99 Q1366.97 1334.3 1369.01 1333.97 Q1371.04 1333.6 1373.08 1333.6 Q1384.66 1333.6 1391.41 1339.94 Q1398.17 1346.29 1398.17 1357.12 Q1398.17 1368.28 1391.23 1374.48 Q1384.29 1380.64 1371.65 1380.64 Q1367.29 1380.64 1362.76 1379.9 Q1358.27 1379.16 1353.45 1377.68 L1353.45 1368.28 Q1357.62 1370.55 1362.06 1371.66 Q1366.51 1372.77 1371.46 1372.77 Q1379.47 1372.77 1384.15 1368.56 Q1388.82 1364.34 1388.82 1357.12 Q1388.82 1349.9 1384.15 1345.68 Q1379.47 1341.47 1371.46 1341.47 Q1367.71 1341.47 1363.96 1342.31 Q1360.26 1343.14 1356.37 1344.9 L1356.37 1310.18 Z" fill="#000000" fill-rule="nonzero" fill-opacity="1" /><path clip-path="url(#clip840)" d="M1436.6 1316.33 Q1429.38 1316.33 1425.72 1323.46 Q1422.11 1330.55 1422.11 1344.81 Q1422.11 1359.02 1425.72 1366.15 Q1429.38 1373.23 1436.6 1373.23 Q1443.87 1373.23 1447.48 1366.15 Q1451.14 1359.02 1451.14 1344.81 Q1451.14 1330.55 1447.48 1323.46 Q1443.87 1316.33 1436.6 1316.33 M1436.6 1308.93 Q1448.22 1308.93 1454.33 1318.14 Q1460.49 1327.31 1460.49 1344.81 Q1460.49 1362.26 1454.33 1371.47 Q1448.22 1380.64 1436.6 1380.64 Q1424.98 1380.64 1418.82 1371.47 Q1412.71 1362.26 1412.71 1344.81 Q1412.71 1327.31 1418.82 1318.14 Q1424.98 1308.93 1436.6 1308.93 Z" fill="#000000" fill-rule="nonzero" fill-opacity="1" /><path clip-path="url(#clip840)" d="M1607.56 1316.33 Q1600.34 1316.33 1596.69 1323.46 Q1593.07 1330.55 1593.07 1344.81 Q1593.07 1359.02 1596.69 1366.15 Q1600.34 1373.23 1607.56 1373.23 Q1614.83 1373.23 1618.44 1366.15 Q1622.1 1359.02 1622.1 1344.81 Q1622.1 1330.55 1618.44 1323.46 Q1614.83 1316.33 1607.56 1316.33 M1607.56 1308.93 Q1619.18 1308.93 1625.3 1318.14 Q1631.45 1327.31 1631.45 1344.81 Q1631.45 1362.26 1625.3 1371.47 Q1619.18 1380.64 1607.56 1380.64 Q1595.94 1380.64 1589.79 1371.47 Q1583.68 1362.26 1583.68 1344.81 Q1583.68 1327.31 1589.79 1318.14 Q1595.94 1308.93 1607.56 1308.93 Z" fill="#000000" fill-rule="nonzero" fill-opacity="1" /><path clip-path="url(#clip840)" d="M1647.89 1367.54 L1657.66 1367.54 L1657.66 1379.3 L1647.89 1379.3 L1647.89 1367.54 Z" fill="#000000" fill-rule="nonzero" fill-opacity="1" /><path clip-path="url(#clip840)" d="M1675.67 1310.18 L1720.11 1310.18 L1720.11 1314.16 L1695.02 1379.3 L1685.25 1379.3 L1708.86 1318.05 L1675.67 1318.05 L1675.67 1310.18 Z" fill="#000000" fill-rule="nonzero" fill-opacity="1" /><path clip-path="url(#clip840)" d="M1738.44 1310.18 L1775.16 1310.18 L1775.16 1318.05 L1747.01 1318.05 L1747.01 1334.99 Q1749.05 1334.3 1751.08 1333.97 Q1753.12 1333.6 1755.16 1333.6 Q1766.73 1333.6 1773.49 1339.94 Q1780.25 1346.29 1780.25 1357.12 Q1780.25 1368.28 1773.3 1374.48 Q1766.36 1380.64 1753.72 1380.64 Q1749.37 1380.64 1744.83 1379.9 Q1740.34 1379.16 1735.53 1377.68 L1735.53 1368.28 Q1739.69 1370.55 1744.14 1371.66 Q1748.58 1372.77 1753.54 1372.77 Q1761.55 1372.77 1766.22 1368.56 Q1770.9 1364.34 1770.9 1357.12 Q1770.9 1349.9 1766.22 1345.68 Q1761.55 1341.47 1753.54 1341.47 Q1749.79 1341.47 1746.04 1342.31 Q1742.33 1343.14 1738.44 1344.9 L1738.44 1310.18 Z" fill="#000000" fill-rule="nonzero" fill-opacity="1" /><path clip-path="url(#clip840)" d="M1906.86 1371.43 L1922.14 1371.43 L1922.14 1318.69 L1905.52 1322.03 L1905.52 1313.51 L1922.05 1310.18 L1931.4 1310.18 L1931.4 1371.43 L1946.68 1371.43 L1946.68 1379.3 L1906.86 1379.3 L1906.86 1371.43 Z" fill="#000000" fill-rule="nonzero" fill-opacity="1" /><path clip-path="url(#clip840)" d="M1965.57 1367.54 L1975.33 1367.54 L1975.33 1379.3 L1965.57 1379.3 L1965.57 1367.54 Z" fill="#000000" fill-rule="nonzero" fill-opacity="1" /><path clip-path="url(#clip840)" d="M2015.7 1316.33 Q2008.48 1316.33 2004.82 1323.46 Q2001.21 1330.55 2001.21 1344.81 Q2001.21 1359.02 2004.82 1366.15 Q2008.48 1373.23 2015.7 1373.23 Q2022.97 1373.23 2026.58 1366.15 Q2030.24 1359.02 2030.24 1344.81 Q2030.24 1330.55 2026.58 1323.46 Q2022.97 1316.33 2015.7 1316.33 M2015.7 1308.93 Q2027.32 1308.93 2033.44 1318.14 Q2039.59 1327.31 2039.59 1344.81 Q2039.59 1362.26 2033.44 1371.47 Q2027.32 1380.64 2015.7 1380.64 Q2004.08 1380.64 1997.93 1371.47 Q1991.82 1362.26 1991.82 1344.81 Q1991.82 1327.31 1997.93 1318.14 Q2004.08 1308.93 2015.7 1308.93 Z" fill="#000000" fill-rule="nonzero" fill-opacity="1" /><path clip-path="url(#clip840)" d="M2076.03 1316.33 Q2068.81 1316.33 2065.15 1323.46 Q2061.54 1330.55 2061.54 1344.81 Q2061.54 1359.02 2065.15 1366.15 Q2068.81 1373.23 2076.03 1373.23 Q2083.3 1373.23 2086.91 1366.15 Q2090.57 1359.02 2090.57 1344.81 Q2090.57 1330.55 2086.91 1323.46 Q2083.3 1316.33 2076.03 1316.33 M2076.03 1308.93 Q2087.65 1308.93 2093.76 1318.14 Q2099.92 1327.31 2099.92 1344.81 Q2099.92 1362.26 2093.76 1371.47 Q2087.65 1380.64 2076.03 1380.64 Q2064.41 1380.64 2058.25 1371.47 Q2052.14 1362.26 2052.14 1344.81 Q2052.14 1327.31 2058.25 1318.14 Q2064.41 1308.93 2076.03 1308.93 Z" fill="#000000" fill-rule="nonzero" fill-opacity="1" /><path clip-path="url(#clip840)" d="M1375.05 1484.39 L1375.05 1527.42 L1363.34 1527.42 L1363.34 1484.77 Q1363.34 1474.65 1359.39 1469.62 Q1355.45 1464.59 1347.55 1464.59 Q1338.07 1464.59 1332.59 1470.64 Q1327.12 1476.69 1327.12 1487.13 L1327.12 1527.42 L1315.34 1527.42 L1315.34 1428.37 L1327.12 1428.37 L1327.12 1467.2 Q1331.32 1460.77 1336.99 1457.59 Q1342.72 1454.41 1350.16 1454.41 Q1362.45 1454.41 1368.75 1462.05 Q1375.05 1469.62 1375.05 1484.39 Z" fill="#000000" fill-rule="nonzero" fill-opacity="1" /><path clip-path="url(#clip840)" d="M1426.04 1464.34 Q1416.62 1464.34 1411.15 1471.72 Q1405.67 1479.04 1405.67 1491.84 Q1405.67 1504.63 1411.08 1512.02 Q1416.56 1519.34 1426.04 1519.34 Q1435.4 1519.34 1440.87 1511.96 Q1446.35 1504.57 1446.35 1491.84 Q1446.35 1479.17 1440.87 1471.79 Q1435.4 1464.34 1426.04 1464.34 M1426.04 1454.41 Q1441.32 1454.41 1450.04 1464.34 Q1458.76 1474.27 1458.76 1491.84 Q1458.76 1509.35 1450.04 1519.34 Q1441.32 1529.27 1426.04 1529.27 Q1410.7 1529.27 1401.98 1519.34 Q1393.32 1509.35 1393.32 1491.84 Q1393.32 1474.27 1401.98 1464.34 Q1410.7 1454.41 1426.04 1454.41 Z" fill="#000000" fill-rule="nonzero" fill-opacity="1" /><path clip-path="url(#clip840)" d="M1476.97 1499.29 L1476.97 1456.13 L1488.68 1456.13 L1488.68 1498.84 Q1488.68 1508.96 1492.63 1514.06 Q1496.57 1519.08 1504.47 1519.08 Q1513.95 1519.08 1519.43 1513.04 Q1524.97 1506.99 1524.97 1496.55 L1524.97 1456.13 L1536.68 1456.13 L1536.68 1527.42 L1524.97 1527.42 L1524.97 1516.47 Q1520.7 1522.97 1515.04 1526.15 Q1509.43 1529.27 1501.99 1529.27 Q1489.7 1529.27 1483.33 1521.63 Q1476.97 1513.99 1476.97 1499.29 M1506.44 1454.41 L1506.44 1454.41 Z" fill="#000000" fill-rule="nonzero" fill-opacity="1" /><path clip-path="url(#clip840)" d="M1602.12 1467.08 Q1600.14 1465.93 1597.79 1465.42 Q1595.5 1464.85 1592.7 1464.85 Q1582.77 1464.85 1577.42 1471.34 Q1572.14 1477.77 1572.14 1489.87 L1572.14 1527.42 L1560.36 1527.42 L1560.36 1456.13 L1572.14 1456.13 L1572.14 1467.2 Q1575.83 1460.71 1581.75 1457.59 Q1587.67 1454.41 1596.13 1454.41 Q1597.34 1454.41 1598.81 1454.6 Q1600.27 1454.73 1602.05 1455.05 L1602.12 1467.08 Z" fill="#000000" fill-rule="nonzero" fill-opacity="1" /><path clip-path="url(#clip840)" d="M1659.86 1458.23 L1659.86 1469.3 Q1654.89 1466.76 1649.54 1465.49 Q1644.2 1464.21 1638.47 1464.21 Q1629.75 1464.21 1625.35 1466.89 Q1621.02 1469.56 1621.02 1474.91 Q1621.02 1478.98 1624.14 1481.34 Q1627.26 1483.63 1636.68 1485.73 L1640.69 1486.62 Q1653.17 1489.29 1658.39 1494.19 Q1663.67 1499.03 1663.67 1507.75 Q1663.67 1517.68 1655.78 1523.48 Q1647.95 1529.27 1634.2 1529.27 Q1628.47 1529.27 1622.23 1528.12 Q1616.06 1527.04 1609.18 1524.81 L1609.18 1512.72 Q1615.68 1516.09 1621.98 1517.81 Q1628.28 1519.47 1634.46 1519.47 Q1642.73 1519.47 1647.19 1516.67 Q1651.64 1513.8 1651.64 1508.64 Q1651.64 1503.87 1648.4 1501.32 Q1645.21 1498.78 1634.33 1496.42 L1630.25 1495.47 Q1619.37 1493.18 1614.53 1488.47 Q1609.69 1483.69 1609.69 1475.42 Q1609.69 1465.36 1616.82 1459.88 Q1623.95 1454.41 1637.07 1454.41 Q1643.56 1454.41 1649.29 1455.36 Q1655.02 1456.32 1659.86 1458.23 Z" fill="#000000" fill-rule="nonzero" fill-opacity="1" /><polyline clip-path="url(#clip842)" style="stroke:#000000; stroke-linecap:round; stroke-linejoin:round; stroke-width:4; stroke-opacity:0.1; fill:none" points="673.506,1139.06 2305.51,1139.06 "/>
<polyline clip-path="url(#clip842)" style="stroke:#000000; stroke-linecap:round; stroke-linejoin:round; stroke-width:4; stroke-opacity:0.1; fill:none" points="673.506,958.693 2305.51,958.693 "/>
<polyline clip-path="url(#clip842)" style="stroke:#000000; stroke-linecap:round; stroke-linejoin:round; stroke-width:4; stroke-opacity:0.1; fill:none" points="673.506,778.327 2305.51,778.327 "/>
<polyline clip-path="url(#clip842)" style="stroke:#000000; stroke-linecap:round; stroke-linejoin:round; stroke-width:4; stroke-opacity:0.1; fill:none" points="673.506,597.961 2305.51,597.961 "/>
<polyline clip-path="url(#clip842)" style="stroke:#000000; stroke-linecap:round; stroke-linejoin:round; stroke-width:4; stroke-opacity:0.1; fill:none" points="673.506,417.596 2305.51,417.596 "/>
<polyline clip-path="url(#clip842)" style="stroke:#000000; stroke-linecap:round; stroke-linejoin:round; stroke-width:4; stroke-opacity:0.1; fill:none" points="673.506,237.23 2305.51,237.23 "/>
<polyline clip-path="url(#clip840)" style="stroke:#000000; stroke-linecap:round; stroke-linejoin:round; stroke-width:8; stroke-opacity:1; fill:none" points="673.506,1273.7 673.506,94.4882 "/>
<polyline clip-path="url(#clip840)" style="stroke:#000000; stroke-linecap:round; stroke-linejoin:round; stroke-width:8; stroke-opacity:1; fill:none" points="673.506,1139.06 692.404,1139.06 "/>
<polyline clip-path="url(#clip840)" style="stroke:#000000; stroke-linecap:round; stroke-linejoin:round; stroke-width:8; stroke-opacity:1; fill:none" points="673.506,958.693 692.404,958.693 "/>
<polyline clip-path="url(#clip840)" style="stroke:#000000; stroke-linecap:round; stroke-linejoin:round; stroke-width:8; stroke-opacity:1; fill:none" points="673.506,778.327 692.404,778.327 "/>
<polyline clip-path="url(#clip840)" style="stroke:#000000; stroke-linecap:round; stroke-linejoin:round; stroke-width:8; stroke-opacity:1; fill:none" points="673.506,597.961 692.404,597.961 "/>
<polyline clip-path="url(#clip840)" style="stroke:#000000; stroke-linecap:round; stroke-linejoin:round; stroke-width:8; stroke-opacity:1; fill:none" points="673.506,417.596 692.404,417.596 "/>
<polyline clip-path="url(#clip840)" style="stroke:#000000; stroke-linecap:round; stroke-linejoin:round; stroke-width:8; stroke-opacity:1; fill:none" points="673.506,237.23 692.404,237.23 "/>
<path clip-path="url(#clip840)" d="M463.988 1135.33 Q457.692 1135.33 453.988 1139.64 Q450.331 1143.94 450.331 1151.44 Q450.331 1158.9 453.988 1163.25 Q457.692 1167.55 463.988 1167.55 Q470.285 1167.55 473.942 1163.25 Q477.646 1158.9 477.646 1151.44 Q477.646 1143.94 473.942 1139.64 Q470.285 1135.33 463.988 1135.33 M482.553 1106.03 L482.553 1114.54 Q479.035 1112.88 475.424 1112 Q471.859 1111.12 468.34 1111.12 Q459.081 1111.12 454.174 1117.37 Q449.313 1123.62 448.618 1136.26 Q451.35 1132.23 455.47 1130.1 Q459.59 1127.92 464.544 1127.92 Q474.961 1127.92 480.979 1134.27 Q487.044 1140.56 487.044 1151.44 Q487.044 1162.09 480.748 1168.53 Q474.451 1174.96 463.988 1174.96 Q451.998 1174.96 445.655 1165.79 Q439.313 1156.58 439.313 1139.13 Q439.313 1122.74 447.09 1113.02 Q454.868 1103.25 467.97 1103.25 Q471.488 1103.25 475.053 1103.94 Q478.664 1104.64 482.553 1106.03 Z" fill="#000000" fill-rule="nonzero" fill-opacity="1" /><path clip-path="url(#clip840)" d="M523.155 1110.66 Q515.933 1110.66 512.275 1117.79 Q508.664 1124.87 508.664 1139.13 Q508.664 1153.34 512.275 1160.47 Q515.933 1167.55 523.155 1167.55 Q530.423 1167.55 534.034 1160.47 Q537.692 1153.34 537.692 1139.13 Q537.692 1124.87 534.034 1117.79 Q530.423 1110.66 523.155 1110.66 M523.155 1103.25 Q534.775 1103.25 540.886 1112.46 Q547.043 1121.63 547.043 1139.13 Q547.043 1156.58 540.886 1165.79 Q534.775 1174.96 523.155 1174.96 Q511.534 1174.96 505.377 1165.79 Q499.266 1156.58 499.266 1139.13 Q499.266 1121.63 505.377 1112.46 Q511.534 1103.25 523.155 1103.25 Z" fill="#000000" fill-rule="nonzero" fill-opacity="1" /><path clip-path="url(#clip840)" d="M563.479 1161.86 L573.247 1161.86 L573.247 1173.62 L563.479 1173.62 L563.479 1161.86 Z" fill="#000000" fill-rule="nonzero" fill-opacity="1" /><path clip-path="url(#clip840)" d="M613.617 1110.66 Q606.395 1110.66 602.738 1117.79 Q599.127 1124.87 599.127 1139.13 Q599.127 1153.34 602.738 1160.47 Q606.395 1167.55 613.617 1167.55 Q620.886 1167.55 624.497 1160.47 Q628.154 1153.34 628.154 1139.13 Q628.154 1124.87 624.497 1117.79 Q620.886 1110.66 613.617 1110.66 M613.617 1103.25 Q625.238 1103.25 631.349 1112.46 Q637.506 1121.63 637.506 1139.13 Q637.506 1156.58 631.349 1165.79 Q625.238 1174.96 613.617 1174.96 Q601.997 1174.96 595.84 1165.79 Q589.728 1156.58 589.728 1139.13 Q589.728 1121.63 595.84 1112.46 Q601.997 1103.25 613.617 1103.25 Z" fill="#000000" fill-rule="nonzero" fill-opacity="1" /><path clip-path="url(#clip840)" d="M440.47 924.133 L484.914 924.133 L484.914 928.114 L459.822 993.253 L450.053 993.253 L473.664 932.003 L440.47 932.003 L440.47 924.133 Z" fill="#000000" fill-rule="nonzero" fill-opacity="1" /><path clip-path="url(#clip840)" d="M523.155 930.29 Q515.933 930.29 512.275 937.42 Q508.664 944.503 508.664 958.762 Q508.664 972.975 512.275 980.105 Q515.933 987.188 523.155 987.188 Q530.423 987.188 534.034 980.105 Q537.692 972.975 537.692 958.762 Q537.692 944.503 534.034 937.42 Q530.423 930.29 523.155 930.29 M523.155 922.883 Q534.775 922.883 540.886 932.096 Q547.043 941.262 547.043 958.762 Q547.043 976.216 540.886 985.429 Q534.775 994.595 523.155 994.595 Q511.534 994.595 505.377 985.429 Q499.266 976.216 499.266 958.762 Q499.266 941.262 505.377 932.096 Q511.534 922.883 523.155 922.883 Z" fill="#000000" fill-rule="nonzero" fill-opacity="1" /><path clip-path="url(#clip840)" d="M563.479 981.494 L573.247 981.494 L573.247 993.253 L563.479 993.253 L563.479 981.494 Z" fill="#000000" fill-rule="nonzero" fill-opacity="1" /><path clip-path="url(#clip840)" d="M613.617 930.29 Q606.395 930.29 602.738 937.42 Q599.127 944.503 599.127 958.762 Q599.127 972.975 602.738 980.105 Q606.395 987.188 613.617 987.188 Q620.886 987.188 624.497 980.105 Q628.154 972.975 628.154 958.762 Q628.154 944.503 624.497 937.42 Q620.886 930.29 613.617 930.29 M613.617 922.883 Q625.238 922.883 631.349 932.096 Q637.506 941.262 637.506 958.762 Q637.506 976.216 631.349 985.429 Q625.238 994.595 613.617 994.595 Q601.997 994.595 595.84 985.429 Q589.728 976.216 589.728 958.762 Q589.728 941.262 595.84 932.096 Q601.997 922.883 613.617 922.883 Z" fill="#000000" fill-rule="nonzero" fill-opacity="1" /><path clip-path="url(#clip840)" d="M462.831 780.063 Q456.164 780.063 452.322 783.628 Q448.525 787.193 448.525 793.443 Q448.525 799.693 452.322 803.258 Q456.164 806.822 462.831 806.822 Q469.498 806.822 473.34 803.258 Q477.183 799.646 477.183 793.443 Q477.183 787.193 473.34 783.628 Q469.544 780.063 462.831 780.063 M453.479 776.082 Q447.461 774.6 444.081 770.48 Q440.748 766.36 440.748 760.434 Q440.748 752.147 446.627 747.332 Q452.553 742.517 462.831 742.517 Q473.155 742.517 479.035 747.332 Q484.914 752.147 484.914 760.434 Q484.914 766.36 481.535 770.48 Q478.201 774.6 472.229 776.082 Q478.988 777.656 482.738 782.239 Q486.535 786.822 486.535 793.443 Q486.535 803.489 480.377 808.859 Q474.266 814.23 462.831 814.23 Q451.396 814.23 445.238 808.859 Q439.127 803.489 439.127 793.443 Q439.127 786.822 442.924 782.239 Q446.72 777.656 453.479 776.082 M450.053 761.313 Q450.053 766.684 453.387 769.693 Q456.766 772.702 462.831 772.702 Q468.849 772.702 472.229 769.693 Q475.655 766.684 475.655 761.313 Q475.655 755.943 472.229 752.934 Q468.849 749.924 462.831 749.924 Q456.766 749.924 453.387 752.934 Q450.053 755.943 450.053 761.313 Z" fill="#000000" fill-rule="nonzero" fill-opacity="1" /><path clip-path="url(#clip840)" d="M523.155 749.924 Q515.933 749.924 512.275 757.054 Q508.664 764.137 508.664 778.397 Q508.664 792.609 512.275 799.739 Q515.933 806.822 523.155 806.822 Q530.423 806.822 534.034 799.739 Q537.692 792.609 537.692 778.397 Q537.692 764.137 534.034 757.054 Q530.423 749.924 523.155 749.924 M523.155 742.517 Q534.775 742.517 540.886 751.73 Q547.043 760.897 547.043 778.397 Q547.043 795.85 540.886 805.063 Q534.775 814.23 523.155 814.23 Q511.534 814.23 505.377 805.063 Q499.266 795.85 499.266 778.397 Q499.266 760.897 505.377 751.73 Q511.534 742.517 523.155 742.517 Z" fill="#000000" fill-rule="nonzero" fill-opacity="1" /><path clip-path="url(#clip840)" d="M563.479 801.128 L573.247 801.128 L573.247 812.887 L563.479 812.887 L563.479 801.128 Z" fill="#000000" fill-rule="nonzero" fill-opacity="1" /><path clip-path="url(#clip840)" d="M613.617 749.924 Q606.395 749.924 602.738 757.054 Q599.127 764.137 599.127 778.397 Q599.127 792.609 602.738 799.739 Q606.395 806.822 613.617 806.822 Q620.886 806.822 624.497 799.739 Q628.154 792.609 628.154 778.397 Q628.154 764.137 624.497 757.054 Q620.886 749.924 613.617 749.924 M613.617 742.517 Q625.238 742.517 631.349 751.73 Q637.506 760.897 637.506 778.397 Q637.506 795.85 631.349 805.063 Q625.238 814.23 613.617 814.23 Q601.997 814.23 595.84 805.063 Q589.728 795.85 589.728 778.397 Q589.728 760.897 595.84 751.73 Q601.997 742.517 613.617 742.517 Z" fill="#000000" fill-rule="nonzero" fill-opacity="1" /><path clip-path="url(#clip840)" d="M443.109 631.086 L443.109 622.568 Q446.627 624.234 450.238 625.114 Q453.85 625.994 457.322 625.994 Q466.581 625.994 471.442 619.79 Q476.349 613.54 477.044 600.855 Q474.359 604.836 470.238 606.966 Q466.118 609.096 461.118 609.096 Q450.748 609.096 444.683 602.846 Q438.664 596.549 438.664 585.67 Q438.664 575.022 444.961 568.587 Q451.257 562.151 461.72 562.151 Q473.711 562.151 480.007 571.364 Q486.349 580.531 486.349 598.031 Q486.349 614.373 478.572 624.142 Q470.84 633.864 457.738 633.864 Q454.22 633.864 450.609 633.17 Q446.998 632.475 443.109 631.086 M461.72 601.781 Q468.016 601.781 471.674 597.475 Q475.377 593.17 475.377 585.67 Q475.377 578.216 471.674 573.911 Q468.016 569.559 461.72 569.559 Q455.424 569.559 451.72 573.911 Q448.063 578.216 448.063 585.67 Q448.063 593.17 451.72 597.475 Q455.424 601.781 461.72 601.781 Z" fill="#000000" fill-rule="nonzero" fill-opacity="1" /><path clip-path="url(#clip840)" d="M523.155 569.559 Q515.933 569.559 512.275 576.688 Q508.664 583.772 508.664 598.031 Q508.664 612.244 512.275 619.373 Q515.933 626.457 523.155 626.457 Q530.423 626.457 534.034 619.373 Q537.692 612.244 537.692 598.031 Q537.692 583.772 534.034 576.688 Q530.423 569.559 523.155 569.559 M523.155 562.151 Q534.775 562.151 540.886 571.364 Q547.043 580.531 547.043 598.031 Q547.043 615.485 540.886 624.697 Q534.775 633.864 523.155 633.864 Q511.534 633.864 505.377 624.697 Q499.266 615.485 499.266 598.031 Q499.266 580.531 505.377 571.364 Q511.534 562.151 523.155 562.151 Z" fill="#000000" fill-rule="nonzero" fill-opacity="1" /><path clip-path="url(#clip840)" d="M563.479 620.762 L573.247 620.762 L573.247 632.521 L563.479 632.521 L563.479 620.762 Z" fill="#000000" fill-rule="nonzero" fill-opacity="1" /><path clip-path="url(#clip840)" d="M613.617 569.559 Q606.395 569.559 602.738 576.688 Q599.127 583.772 599.127 598.031 Q599.127 612.244 602.738 619.373 Q606.395 626.457 613.617 626.457 Q620.886 626.457 624.497 619.373 Q628.154 612.244 628.154 598.031 Q628.154 583.772 624.497 576.688 Q620.886 569.559 613.617 569.559 M613.617 562.151 Q625.238 562.151 631.349 571.364 Q637.506 580.531 637.506 598.031 Q637.506 615.485 631.349 624.697 Q625.238 633.864 613.617 633.864 Q601.997 633.864 595.84 624.697 Q589.728 615.485 589.728 598.031 Q589.728 580.531 595.84 571.364 Q601.997 562.151 613.617 562.151 Z" fill="#000000" fill-rule="nonzero" fill-opacity="1" /><path clip-path="url(#clip840)" d="M384.128 444.285 L399.405 444.285 L399.405 391.554 L382.785 394.888 L382.785 386.369 L399.313 383.036 L408.665 383.036 L408.665 444.285 L423.942 444.285 L423.942 452.156 L384.128 452.156 L384.128 444.285 Z" fill="#000000" fill-rule="nonzero" fill-opacity="1" /><path clip-path="url(#clip840)" d="M462.831 389.193 Q455.609 389.193 451.951 396.323 Q448.34 403.406 448.34 417.665 Q448.34 431.878 451.951 439.008 Q455.609 446.091 462.831 446.091 Q470.099 446.091 473.711 439.008 Q477.368 431.878 477.368 417.665 Q477.368 403.406 473.711 396.323 Q470.099 389.193 462.831 389.193 M462.831 381.786 Q474.451 381.786 480.562 390.999 Q486.72 400.165 486.72 417.665 Q486.72 435.119 480.562 444.332 Q474.451 453.498 462.831 453.498 Q451.211 453.498 445.053 444.332 Q438.942 435.119 438.942 417.665 Q438.942 400.165 445.053 390.999 Q451.211 381.786 462.831 381.786 Z" fill="#000000" fill-rule="nonzero" fill-opacity="1" /><path clip-path="url(#clip840)" d="M523.155 389.193 Q515.933 389.193 512.275 396.323 Q508.664 403.406 508.664 417.665 Q508.664 431.878 512.275 439.008 Q515.933 446.091 523.155 446.091 Q530.423 446.091 534.034 439.008 Q537.692 431.878 537.692 417.665 Q537.692 403.406 534.034 396.323 Q530.423 389.193 523.155 389.193 M523.155 381.786 Q534.775 381.786 540.886 390.999 Q547.043 400.165 547.043 417.665 Q547.043 435.119 540.886 444.332 Q534.775 453.498 523.155 453.498 Q511.534 453.498 505.377 444.332 Q499.266 435.119 499.266 417.665 Q499.266 400.165 505.377 390.999 Q511.534 381.786 523.155 381.786 Z" fill="#000000" fill-rule="nonzero" fill-opacity="1" /><path clip-path="url(#clip840)" d="M563.479 440.397 L573.247 440.397 L573.247 452.156 L563.479 452.156 L563.479 440.397 Z" fill="#000000" fill-rule="nonzero" fill-opacity="1" /><path clip-path="url(#clip840)" d="M613.617 389.193 Q606.395 389.193 602.738 396.323 Q599.127 403.406 599.127 417.665 Q599.127 431.878 602.738 439.008 Q606.395 446.091 613.617 446.091 Q620.886 446.091 624.497 439.008 Q628.154 431.878 628.154 417.665 Q628.154 403.406 624.497 396.323 Q620.886 389.193 613.617 389.193 M613.617 381.786 Q625.238 381.786 631.349 390.999 Q637.506 400.165 637.506 417.665 Q637.506 435.119 631.349 444.332 Q625.238 453.498 613.617 453.498 Q601.997 453.498 595.84 444.332 Q589.728 435.119 589.728 417.665 Q589.728 400.165 595.84 390.999 Q601.997 381.786 613.617 381.786 Z" fill="#000000" fill-rule="nonzero" fill-opacity="1" /><path clip-path="url(#clip840)" d="M384.128 263.92 L399.405 263.92 L399.405 211.189 L382.785 214.522 L382.785 206.003 L399.313 202.67 L408.665 202.67 L408.665 263.92 L423.942 263.92 L423.942 271.79 L384.128 271.79 L384.128 263.92 Z" fill="#000000" fill-rule="nonzero" fill-opacity="1" /><path clip-path="url(#clip840)" d="M444.451 263.92 L459.729 263.92 L459.729 211.189 L443.109 214.522 L443.109 206.003 L459.637 202.67 L468.988 202.67 L468.988 263.92 L484.266 263.92 L484.266 271.79 L444.451 271.79 L444.451 263.92 Z" fill="#000000" fill-rule="nonzero" fill-opacity="1" /><path clip-path="url(#clip840)" d="M523.155 208.827 Q515.933 208.827 512.275 215.957 Q508.664 223.04 508.664 237.3 Q508.664 251.512 512.275 258.642 Q515.933 265.725 523.155 265.725 Q530.423 265.725 534.034 258.642 Q537.692 251.512 537.692 237.3 Q537.692 223.04 534.034 215.957 Q530.423 208.827 523.155 208.827 M523.155 201.42 Q534.775 201.42 540.886 210.633 Q547.043 219.8 547.043 237.3 Q547.043 254.753 540.886 263.966 Q534.775 273.133 523.155 273.133 Q511.534 273.133 505.377 263.966 Q499.266 254.753 499.266 237.3 Q499.266 219.8 505.377 210.633 Q511.534 201.42 523.155 201.42 Z" fill="#000000" fill-rule="nonzero" fill-opacity="1" /><path clip-path="url(#clip840)" d="M563.479 260.031 L573.247 260.031 L573.247 271.79 L563.479 271.79 L563.479 260.031 Z" fill="#000000" fill-rule="nonzero" fill-opacity="1" /><path clip-path="url(#clip840)" d="M613.617 208.827 Q606.395 208.827 602.738 215.957 Q599.127 223.04 599.127 237.3 Q599.127 251.512 602.738 258.642 Q606.395 265.725 613.617 265.725 Q620.886 265.725 624.497 258.642 Q628.154 251.512 628.154 237.3 Q628.154 223.04 624.497 215.957 Q620.886 208.827 613.617 208.827 M613.617 201.42 Q625.238 201.42 631.349 210.633 Q637.506 219.8 637.506 237.3 Q637.506 254.753 631.349 263.966 Q625.238 273.133 613.617 273.133 Q601.997 273.133 595.84 263.966 Q589.728 254.753 589.728 237.3 Q589.728 219.8 595.84 210.633 Q601.997 201.42 613.617 201.42 Z" fill="#000000" fill-rule="nonzero" fill-opacity="1" /><path clip-path="url(#clip840)" d="M307.579 931.4 L345.391 931.4 L345.391 943.176 L246.977 943.176 L246.977 931.4 L257.799 931.4 Q251.433 927.708 248.378 922.106 Q245.258 916.44 245.258 908.61 Q245.258 895.624 255.571 887.54 Q265.883 879.392 282.689 879.392 Q299.494 879.392 309.807 887.54 Q320.119 895.624 320.119 908.61 Q320.119 916.44 317.064 922.106 Q313.944 927.708 307.579 931.4 M282.689 891.55 Q269.766 891.55 262.446 896.898 Q255.062 902.181 255.062 911.475 Q255.062 920.769 262.446 926.116 Q269.766 931.4 282.689 931.4 Q295.611 931.4 302.995 926.116 Q310.316 920.769 310.316 911.475 Q310.316 902.181 302.995 896.898 Q295.611 891.55 282.689 891.55 Z" fill="#000000" fill-rule="nonzero" fill-opacity="1" /><path clip-path="url(#clip840)" d="M282.434 827.575 Q282.434 841.771 285.681 847.245 Q288.927 852.72 296.757 852.72 Q302.995 852.72 306.688 848.645 Q310.316 844.508 310.316 837.442 Q310.316 827.702 303.441 821.846 Q296.502 815.926 285.044 815.926 L282.434 815.926 L282.434 827.575 M277.596 804.213 L318.273 804.213 L318.273 815.926 L307.451 815.926 Q313.944 819.936 317.064 825.92 Q320.119 831.904 320.119 840.561 Q320.119 851.51 314.008 858.003 Q307.833 864.432 297.521 864.432 Q285.49 864.432 279.379 856.412 Q273.268 848.327 273.268 832.349 L273.268 815.926 L272.122 815.926 Q264.037 815.926 259.645 821.273 Q255.189 826.556 255.189 836.169 Q255.189 842.28 256.653 848.073 Q258.117 853.865 261.045 859.213 L250.224 859.213 Q247.741 852.783 246.532 846.736 Q245.258 840.688 245.258 834.959 Q245.258 819.491 253.279 811.852 Q261.3 804.213 277.596 804.213 Z" fill="#000000" fill-rule="nonzero" fill-opacity="1" /><path clip-path="url(#clip840)" d="M257.926 738.773 Q256.78 740.747 256.271 743.102 Q255.698 745.394 255.698 748.195 Q255.698 758.125 262.191 763.472 Q268.621 768.756 280.715 768.756 L318.273 768.756 L318.273 780.532 L246.977 780.532 L246.977 768.756 L258.054 768.756 Q251.561 765.064 248.441 759.144 Q245.258 753.224 245.258 744.757 Q245.258 743.548 245.449 742.084 Q245.577 740.619 245.895 738.837 L257.926 738.773 Z" fill="#000000" fill-rule="nonzero" fill-opacity="1" /><path clip-path="url(#clip840)" d="M279.697 668.369 L285.426 668.369 L285.426 722.223 Q297.521 721.459 303.887 714.966 Q310.189 708.409 310.189 696.76 Q310.189 690.012 308.534 683.71 Q306.878 677.344 303.568 671.106 L314.645 671.106 Q317.318 677.408 318.719 684.028 Q320.119 690.649 320.119 697.46 Q320.119 714.52 310.189 724.514 Q300.258 734.445 283.325 734.445 Q265.82 734.445 255.571 725.023 Q245.258 715.539 245.258 699.497 Q245.258 685.11 254.552 676.771 Q263.783 668.369 279.697 668.369 M276.259 680.082 Q266.647 680.209 260.918 685.492 Q255.189 690.712 255.189 699.37 Q255.189 709.173 260.727 715.093 Q266.265 720.949 276.323 721.841 L276.259 680.082 Z" fill="#000000" fill-rule="nonzero" fill-opacity="1" /><path clip-path="url(#clip840)" d="M275.241 589.88 L318.273 589.88 L318.273 601.592 L275.623 601.592 Q265.501 601.592 260.472 605.539 Q255.444 609.486 255.444 617.379 Q255.444 626.864 261.491 632.339 Q267.538 637.813 277.978 637.813 L318.273 637.813 L318.273 649.59 L246.977 649.59 L246.977 637.813 L258.054 637.813 Q251.624 633.612 248.441 627.946 Q245.258 622.217 245.258 614.769 Q245.258 602.484 252.897 596.182 Q260.472 589.88 275.241 589.88 Z" fill="#000000" fill-rule="nonzero" fill-opacity="1" /><path clip-path="url(#clip840)" d="M302.104 564.862 L302.104 551.431 L318.273 551.431 L318.273 564.862 L302.104 564.862 Z" fill="#000000" fill-rule="nonzero" fill-opacity="1" /><path clip-path="url(#clip840)" d="M307.451 479.753 L307.451 458.746 L234.946 458.746 L239.529 481.599 L227.816 481.599 L223.233 458.873 L223.233 446.015 L307.451 446.015 L307.451 425.008 L318.273 425.008 L318.273 479.753 L307.451 479.753 Z" fill="#000000" fill-rule="nonzero" fill-opacity="1" /><polyline clip-path="url(#clip842)" style="stroke:#008000; stroke-linecap:round; stroke-linejoin:round; stroke-width:8; stroke-opacity:1; fill:none" points="719.695,463.916 847.997,679.318 976.3,651.63 1104.6,731.26 1232.9,738.976 1361.21,867.569 1489.51,831.096 1617.81,919.425 1746.11,962.719 1874.42,1011.5 2002.72,1096.62 2131.02,1039.54 2259.32,1240.32 "/>
<circle clip-path="url(#clip842)" cx="719.695" cy="463.916" r="14.4" fill="#008000" fill-rule="evenodd" fill-opacity="1" stroke="#000000" stroke-opacity="1" stroke-width="6.4"/>
<circle clip-path="url(#clip842)" cx="847.997" cy="679.318" r="14.4" fill="#008000" fill-rule="evenodd" fill-opacity="1" stroke="#000000" stroke-opacity="1" stroke-width="6.4"/>
<circle clip-path="url(#clip842)" cx="976.3" cy="651.63" r="14.4" fill="#008000" fill-rule="evenodd" fill-opacity="1" stroke="#000000" stroke-opacity="1" stroke-width="6.4"/>
<circle clip-path="url(#clip842)" cx="1104.6" cy="731.26" r="14.4" fill="#008000" fill-rule="evenodd" fill-opacity="1" stroke="#000000" stroke-opacity="1" stroke-width="6.4"/>
<circle clip-path="url(#clip842)" cx="1232.9" cy="738.976" r="14.4" fill="#008000" fill-rule="evenodd" fill-opacity="1" stroke="#000000" stroke-opacity="1" stroke-width="6.4"/>
<circle clip-path="url(#clip842)" cx="1361.21" cy="867.569" r="14.4" fill="#008000" fill-rule="evenodd" fill-opacity="1" stroke="#000000" stroke-opacity="1" stroke-width="6.4"/>
<circle clip-path="url(#clip842)" cx="1489.51" cy="831.096" r="14.4" fill="#008000" fill-rule="evenodd" fill-opacity="1" stroke="#000000" stroke-opacity="1" stroke-width="6.4"/>
<circle clip-path="url(#clip842)" cx="1617.81" cy="919.425" r="14.4" fill="#008000" fill-rule="evenodd" fill-opacity="1" stroke="#000000" stroke-opacity="1" stroke-width="6.4"/>
<circle clip-path="url(#clip842)" cx="1746.11" cy="962.719" r="14.4" fill="#008000" fill-rule="evenodd" fill-opacity="1" stroke="#000000" stroke-opacity="1" stroke-width="6.4"/>
<circle clip-path="url(#clip842)" cx="1874.42" cy="1011.5" r="14.4" fill="#008000" fill-rule="evenodd" fill-opacity="1" stroke="#000000" stroke-opacity="1" stroke-width="6.4"/>
<circle clip-path="url(#clip842)" cx="2002.72" cy="1096.62" r="14.4" fill="#008000" fill-rule="evenodd" fill-opacity="1" stroke="#000000" stroke-opacity="1" stroke-width="6.4"/>
<circle clip-path="url(#clip842)" cx="2131.02" cy="1039.54" r="14.4" fill="#008000" fill-rule="evenodd" fill-opacity="1" stroke="#000000" stroke-opacity="1" stroke-width="6.4"/>
<circle clip-path="url(#clip842)" cx="2259.32" cy="1240.32" r="14.4" fill="#008000" fill-rule="evenodd" fill-opacity="1" stroke="#000000" stroke-opacity="1" stroke-width="6.4"/>
<polyline clip-path="url(#clip842)" style="stroke:#00008b; stroke-linecap:round; stroke-linejoin:round; stroke-width:8; stroke-opacity:1; fill:none" points="719.695,193.23 847.997,256.677 976.3,375.028 1104.6,471.248 1232.9,559.008 1361.21,633.613 1489.51,708.171 1617.81,766.809 1746.11,822.804 1874.42,884.42 2002.72,928.292 2131.02,970.197 2259.32,1011.7 "/>
<path clip-path="url(#clip842)" d="M719.695 258.665 L847.997 320.136 L976.3 438.575 L1104.6 539.95 L1232.9 621.27 L1361.21 694.239 L1489.51 774.158 L1617.81 831.953 L1746.11 887.523 L1874.42 949.569 L2002.72 990.905 L2131.02 1033.38 L2259.32 1073.12 L2259.32 949.228 L2131.02 905.528 L2002.72 863.619 L1874.42 819.224 L1746.11 754.299 L1617.81 702.056 L1489.51 642.807 L1361.21 569.184 L1232.9 491.135 L1104.6 406.422 L976.3 312.252 L847.997 193.154 L719.695 127.862  Z" fill="#0000ff" fill-rule="evenodd" fill-opacity="0.1"/>
<polyline clip-path="url(#clip842)" style="stroke:#0000ff; stroke-linecap:round; stroke-linejoin:round; stroke-width:0; stroke-opacity:0.1; fill:none" points="719.695,258.665 847.997,320.136 976.3,438.575 1104.6,539.95 1232.9,621.27 1361.21,694.239 1489.51,774.158 1617.81,831.953 1746.11,887.523 1874.42,949.569 2002.72,990.905 2131.02,1033.38 2259.32,1073.12 "/>
</svg>
