<?xml version="1.0" encoding="utf-8"?>
<svg xmlns="http://www.w3.org/2000/svg" xmlns:xlink="http://www.w3.org/1999/xlink" width="600" height="400" viewBox="0 0 2400 1600">
<defs>
  <clipPath id="clip070">
    <rect x="0" y="0" width="2400" height="1600"/>
  </clipPath>
</defs>
<path clip-path="url(#clip070)" d="M0 1600 L2400 1600 L2400 0 L0 0  Z" fill="#ffffff" fill-rule="evenodd" fill-opacity="1"/>
<defs>
  <clipPath id="clip071">
    <rect x="480" y="0" width="1681" height="1600"/>
  </clipPath>
</defs>
<path clip-path="url(#clip070)" d="M673.506 1273.7 L2305.51 1273.7 L2305.51 94.4882 L673.506 94.4882  Z" fill="#ffffff" fill-rule="evenodd" fill-opacity="1"/>
<defs>
  <clipPath id="clip072">
    <rect x="673" y="94" width="1633" height="1180"/>
  </clipPath>
</defs>
<polyline clip-path="url(#clip072)" style="stroke:#000000; stroke-linecap:round; stroke-linejoin:round; stroke-width:4; stroke-opacity:0.1; fill:none" points="719.695,1273.7 719.695,94.4882 "/>
<polyline clip-path="url(#clip072)" style="stroke:#000000; stroke-linecap:round; stroke-linejoin:round; stroke-width:4; stroke-opacity:0.1; fill:none" points="1040.45,1273.7 1040.45,94.4882 "/>
<polyline clip-path="url(#clip072)" style="stroke:#000000; stroke-linecap:round; stroke-linejoin:round; stroke-width:4; stroke-opacity:0.1; fill:none" points="1361.21,1273.7 1361.21,94.4882 "/>
<polyline clip-path="url(#clip072)" style="stroke:#000000; stroke-linecap:round; stroke-linejoin:round; stroke-width:4; stroke-opacity:0.1; fill:none" points="1681.96,1273.7 1681.96,94.4882 "/>
<polyline clip-path="url(#clip072)" style="stroke:#000000; stroke-linecap:round; stroke-linejoin:round; stroke-width:4; stroke-opacity:0.1; fill:none" points="2002.72,1273.7 2002.72,94.4882 "/>
<polyline clip-path="url(#clip070)" style="stroke:#000000; stroke-linecap:round; stroke-linejoin:round; stroke-width:8; stroke-opacity:1; fill:none" points="673.506,1273.7 2305.51,1273.7 "/>
<polyline clip-path="url(#clip070)" style="stroke:#000000; stroke-linecap:round; stroke-linejoin:round; stroke-width:8; stroke-opacity:1; fill:none" points="719.695,1273.7 719.695,1254.8 "/>
<polyline clip-path="url(#clip070)" style="stroke:#000000; stroke-linecap:round; stroke-linejoin:round; stroke-width:8; stroke-opacity:1; fill:none" points="1040.45,1273.7 1040.45,1254.8 "/>
<polyline clip-path="url(#clip070)" style="stroke:#000000; stroke-linecap:round; stroke-linejoin:round; stroke-width:8; stroke-opacity:1; fill:none" points="1361.21,1273.7 1361.21,1254.8 "/>
<polyline clip-path="url(#clip070)" style="stroke:#000000; stroke-linecap:round; stroke-linejoin:round; stroke-width:8; stroke-opacity:1; fill:none" points="1681.96,1273.7 1681.96,1254.8 "/>
<polyline clip-path="url(#clip070)" style="stroke:#000000; stroke-linecap:round; stroke-linejoin:round; stroke-width:8; stroke-opacity:1; fill:none" points="2002.72,1273.7 2002.72,1254.8 "/>
<path clip-path="url(#clip070)" d="M644.302 1316.33 Q637.08 1316.33 633.422 1323.46 Q629.811 1330.55 629.811 1344.81 Q629.811 1359.02 633.422 1366.15 Q637.08 1373.23 644.302 1373.23 Q651.57 1373.23 655.181 1366.15 Q658.839 1359.02 658.839 1344.81 Q658.839 1330.55 655.181 1323.46 Q651.57 1316.33 644.302 1316.33 M644.302 1308.93 Q655.922 1308.93 662.033 1318.14 Q668.19 1327.31 668.19 1344.81 Q668.19 1362.26 662.033 1371.47 Q655.922 1380.64 644.302 1380.64 Q632.681 1380.64 626.524 1371.47 Q620.413 1362.26 620.413 1344.81 Q620.413 1327.31 626.524 1318.14 Q632.681 1308.93 644.302 1308.93 Z" fill="#000000" fill-rule="nonzero" fill-opacity="1" /><path clip-path="url(#clip070)" d="M684.626 1367.54 L694.394 1367.54 L694.394 1379.3 L684.626 1379.3 L684.626 1367.54 Z" fill="#000000" fill-rule="nonzero" fill-opacity="1" /><path clip-path="url(#clip070)" d="M734.764 1316.33 Q727.542 1316.33 723.885 1323.46 Q720.274 1330.55 720.274 1344.81 Q720.274 1359.02 723.885 1366.15 Q727.542 1373.23 734.764 1373.23 Q742.033 1373.23 745.644 1366.15 Q749.301 1359.02 749.301 1344.81 Q749.301 1330.55 745.644 1323.46 Q742.033 1316.33 734.764 1316.33 M734.764 1308.93 Q746.384 1308.93 752.496 1318.14 Q758.653 1327.31 758.653 1344.81 Q758.653 1362.26 752.496 1371.47 Q746.384 1380.64 734.764 1380.64 Q723.144 1380.64 716.986 1371.47 Q710.875 1362.26 710.875 1344.81 Q710.875 1327.31 716.986 1318.14 Q723.144 1308.93 734.764 1308.93 Z" fill="#000000" fill-rule="nonzero" fill-opacity="1" /><path clip-path="url(#clip070)" d="M795.088 1316.33 Q787.866 1316.33 784.208 1323.46 Q780.597 1330.55 780.597 1344.81 Q780.597 1359.02 784.208 1366.15 Q787.866 1373.23 795.088 1373.23 Q802.356 1373.23 805.967 1366.15 Q809.625 1359.02 809.625 1344.81 Q809.625 1330.55 805.967 1323.46 Q802.356 1316.33 795.088 1316.33 M795.088 1308.93 Q806.708 1308.93 812.819 1318.14 Q818.977 1327.31 818.977 1344.81 Q818.977 1362.26 812.819 1371.47 Q806.708 1380.64 795.088 1380.64 Q783.468 1380.64 777.31 1371.47 Q771.199 1362.26 771.199 1344.81 Q771.199 1327.31 777.31 1318.14 Q783.468 1308.93 795.088 1308.93 Z" fill="#000000" fill-rule="nonzero" fill-opacity="1" /><path clip-path="url(#clip070)" d="M966.053 1316.33 Q958.831 1316.33 955.173 1323.46 Q951.562 1330.55 951.562 1344.81 Q951.562 1359.02 955.173 1366.15 Q958.831 1373.23 966.053 1373.23 Q973.321 1373.23 976.932 1366.15 Q980.59 1359.02 980.59 1344.81 Q980.59 1330.55 976.932 1323.46 Q973.321 1316.33 966.053 1316.33 M966.053 1308.93 Q977.673 1308.93 983.784 1318.14 Q989.942 1327.31 989.942 1344.81 Q989.942 1362.26 983.784 1371.47 Q977.673 1380.64 966.053 1380.64 Q954.433 1380.64 948.275 1371.47 Q942.164 1362.26 942.164 1344.81 Q942.164 1327.31 948.275 1318.14 Q954.433 1308.93 966.053 1308.93 Z" fill="#000000" fill-rule="nonzero" fill-opacity="1" /><path clip-path="url(#clip070)" d="M1006.38 1367.54 L1016.15 1367.54 L1016.15 1379.3 L1006.38 1379.3 L1006.38 1367.54 Z" fill="#000000" fill-rule="nonzero" fill-opacity="1" /><path clip-path="url(#clip070)" d="M1044.57 1371.43 L1077.21 1371.43 L1077.21 1379.3 L1033.32 1379.3 L1033.32 1371.43 Q1038.65 1365.92 1047.81 1356.66 Q1057.02 1347.35 1059.39 1344.67 Q1063.88 1339.62 1065.64 1336.15 Q1067.44 1332.63 1067.44 1329.25 Q1067.44 1323.74 1063.55 1320.27 Q1059.71 1316.8 1053.51 1316.8 Q1049.11 1316.8 1044.2 1318.32 Q1039.34 1319.85 1033.78 1322.95 L1033.78 1313.51 Q1039.43 1311.24 1044.34 1310.08 Q1049.25 1308.93 1053.32 1308.93 Q1064.06 1308.93 1070.45 1314.3 Q1076.84 1319.67 1076.84 1328.65 Q1076.84 1332.91 1075.22 1336.75 Q1073.64 1340.55 1069.43 1345.73 Q1068.27 1347.07 1062.07 1353.51 Q1055.87 1359.9 1044.57 1371.43 Z" fill="#000000" fill-rule="nonzero" fill-opacity="1" /><path clip-path="url(#clip070)" d="M1096.93 1310.18 L1133.64 1310.18 L1133.64 1318.05 L1105.5 1318.05 L1105.5 1334.99 Q1107.53 1334.3 1109.57 1333.97 Q1111.61 1333.6 1113.64 1333.6 Q1125.22 1333.6 1131.98 1339.94 Q1138.74 1346.29 1138.74 1357.12 Q1138.74 1368.28 1131.79 1374.48 Q1124.85 1380.64 1112.21 1380.64 Q1107.86 1380.64 1103.32 1379.9 Q1098.83 1379.16 1094.02 1377.68 L1094.02 1368.28 Q1098.18 1370.55 1102.63 1371.66 Q1107.07 1372.77 1112.02 1372.77 Q1120.03 1372.77 1124.71 1368.56 Q1129.39 1364.34 1129.39 1357.12 Q1129.39 1349.9 1124.71 1345.68 Q1120.03 1341.47 1112.02 1341.47 Q1108.27 1341.47 1104.52 1342.31 Q1100.82 1343.14 1096.93 1344.9 L1096.93 1310.18 Z" fill="#000000" fill-rule="nonzero" fill-opacity="1" /><path clip-path="url(#clip070)" d="M1285.81 1316.33 Q1278.59 1316.33 1274.93 1323.46 Q1271.32 1330.55 1271.32 1344.81 Q1271.32 1359.02 1274.93 1366.15 Q1278.59 1373.23 1285.81 1373.23 Q1293.08 1373.23 1296.69 1366.15 Q1300.35 1359.02 1300.35 1344.81 Q1300.35 1330.55 1296.69 1323.46 Q1293.08 1316.33 1285.81 1316.33 M1285.81 1308.93 Q1297.43 1308.93 1303.54 1318.14 Q1309.7 1327.31 1309.7 1344.81 Q1309.7 1362.26 1303.54 1371.47 Q1297.43 1380.64 1285.81 1380.64 Q1274.19 1380.64 1268.04 1371.47 Q1261.92 1362.26 1261.92 1344.81 Q1261.92 1327.31 1268.04 1318.14 Q1274.19 1308.93 1285.81 1308.93 Z" fill="#000000" fill-rule="nonzero" fill-opacity="1" /><path clip-path="url(#clip070)" d="M1326.14 1367.54 L1335.91 1367.54 L1335.91 1379.3 L1326.14 1379.3 L1326.14 1367.54 Z" fill="#000000" fill-rule="nonzero" fill-opacity="1" /><path clip-path="url(#clip070)" d="M1356.37 1310.18 L1393.08 1310.18 L1393.08 1318.05 L1364.93 1318.05 L1364.93 1334.99 Q1366.97 1334.3 1369.01 1333.97 Q1371.04 1333.6 1373.08 1333.6 Q1384.66 1333.6 1391.41 1339.94 Q1398.17 1346.29 1398.17 1357.12 Q1398.17 1368.28 1391.23 1374.48 Q1384.29 1380.64 1371.65 1380.64 Q1367.29 1380.64 1362.76 1379.9 Q1358.27 1379.16 1353.45 1377.68 L1353.45 1368.28 Q1357.62 1370.55 1362.06 1371.66 Q1366.51 1372.77 1371.46 1372.77 Q1379.47 1372.77 1384.15 1368.56 Q1388.82 1364.34 1388.82 1357.12 Q1388.82 1349.9 1384.15 1345.68 Q1379.47 1341.47 1371.46 1341.47 Q1367.71 1341.47 1363.96 1342.31 Q1360.26 1343.14 1356.37 1344.9 L1356.37 1310.18 Z" fill="#000000" fill-rule="nonzero" fill-opacity="1" /><path clip-path="url(#clip070)" d="M1436.6 1316.33 Q1429.38 1316.33 1425.72 1323.46 Q1422.11 1330.55 1422.11 1344.81 Q1422.11 1359.02 1425.72 1366.15 Q1429.38 1373.23 1436.6 1373.23 Q1443.87 1373.23 1447.48 1366.15 Q1451.14 1359.02 1451.14 1344.81 Q1451.14 1330.55 1447.48 1323.46 Q1443.87 1316.33 1436.6 1316.33 M1436.6 1308.93 Q1448.22 1308.93 1454.33 1318.14 Q1460.49 1327.31 1460.49 1344.81 Q1460.49 1362.26 1454.33 1371.47 Q1448.22 1380.64 1436.6 1380.64 Q1424.98 1380.64 1418.82 1371.47 Q1412.71 1362.26 1412.71 1344.81 Q1412.71 1327.31 1418.82 1318.14 Q1424.98 1308.93 1436.6 1308.93 Z" fill="#000000" fill-rule="nonzero" fill-opacity="1" /><path clip-path="url(#clip070)" d="M1607.56 1316.33 Q1600.34 1316.33 1596.69 1323.46 Q1593.07 1330.55 1593.07 1344.81 Q1593.07 1359.02 1596.69 1366.15 Q1600.34 1373.23 1607.56 1373.23 Q1614.83 1373.23 1618.44 1366.15 Q1622.1 1359.02 1622.1 1344.81 Q1622.1 1330.55 1618.44 1323.46 Q1614.83 1316.33 1607.56 1316.33 M1607.56 1308.93 Q1619.18 1308.93 1625.3 1318.14 Q1631.45 1327.31 1631.45 1344.81 Q1631.45 1362.26 1625.3 1371.47 Q1619.18 1380.64 1607.56 1380.64 Q1595.94 1380.64 1589.79 1371.47 Q1583.68 1362.26 1583.68 1344.81 Q1583.68 1327.31 1589.79 1318.14 Q1595.94 1308.93 1607.56 1308.93 Z" fill="#000000" fill-rule="nonzero" fill-opacity="1" /><path clip-path="url(#clip070)" d="M1647.89 1367.54 L1657.66 1367.54 L1657.66 1379.3 L1647.89 1379.3 L1647.89 1367.54 Z" fill="#000000" fill-rule="nonzero" fill-opacity="1" /><path clip-path="url(#clip070)" d="M1675.67 1310.18 L1720.11 1310.18 L1720.11 1314.16 L1695.02 1379.3 L1685.25 1379.3 L1708.86 1318.05 L1675.67 1318.05 L1675.67 1310.18 Z" fill="#000000" fill-rule="nonzero" fill-opacity="1" /><path clip-path="url(#clip070)" d="M1738.44 1310.18 L1775.16 1310.18 L1775.16 1318.05 L1747.01 1318.05 L1747.01 1334.99 Q1749.05 1334.3 1751.08 1333.97 Q1753.12 1333.6 1755.16 1333.6 Q1766.73 1333.6 1773.49 1339.94 Q1780.25 1346.29 1780.25 1357.12 Q1780.25 1368.28 1773.3 1374.48 Q1766.36 1380.64 1753.72 1380.64 Q1749.37 1380.64 1744.83 1379.9 Q1740.34 1379.16 1735.53 1377.68 L1735.53 1368.28 Q1739.69 1370.55 1744.14 1371.66 Q1748.58 1372.77 1753.54 1372.77 Q1761.55 1372.77 1766.22 1368.56 Q1770.9 1364.34 1770.9 1357.12 Q1770.9 1349.9 1766.22 1345.68 Q1761.55 1341.47 1753.54 1341.47 Q1749.79 1341.47 1746.04 1342.31 Q1742.33 1343.14 1738.44 1344.9 L1738.44 1310.18 Z" fill="#000000" fill-rule="nonzero" fill-opacity="1" /><path clip-path="url(#clip070)" d="M1906.86 1371.43 L1922.14 1371.43 L1922.14 1318.69 L1905.52 1322.03 L1905.52 1313.51 L1922.05 1310.18 L1931.4 1310.18 L1931.4 1371.43 L1946.68 1371.43 L1946.68 1379.3 L1906.86 1379.3 L1906.86 1371.43 Z" fill="#000000" fill-rule="nonzero" fill-opacity="1" /><path clip-path="url(#clip070)" d="M1965.57 1367.54 L1975.33 1367.54 L1975.33 1379.3 L1965.57 1379.3 L1965.57 1367.54 Z" fill="#000000" fill-rule="nonzero" fill-opacity="1" /><path clip-path="url(#clip070)" d="M2015.7 1316.33 Q2008.48 1316.33 2004.82 1323.46 Q2001.21 1330.55 2001.21 1344.81 Q2001.21 1359.02 2004.82 1366.15 Q2008.48 1373.23 2015.7 1373.23 Q2022.97 1373.23 2026.58 1366.15 Q2030.24 1359.02 2030.24 1344.81 Q2030.24 1330.55 2026.58 1323.46 Q2022.97 1316.33 2015.7 1316.33 M2015.7 1308.93 Q2027.32 1308.93 2033.44 1318.14 Q2039.59 1327.31 2039.59 1344.81 Q2039.59 1362.26 2033.44 1371.47 Q2027.32 1380.64 2015.7 1380.64 Q2004.08 1380.64 1997.93 1371.47 Q1991.82 1362.26 1991.82 1344.81 Q1991.82 1327.31 1997.93 1318.14 Q2004.08 1308.93 2015.7 1308.93 Z" fill="#000000" fill-rule="nonzero" fill-opacity="1" /><path clip-path="url(#clip070)" d="M2076.03 1316.33 Q2068.81 1316.33 2065.15 1323.46 Q2061.54 1330.55 2061.54 1344.81 Q2061.54 1359.02 2065.15 1366.15 Q2068.81 1373.23 2076.03 1373.23 Q2083.3 1373.23 2086.91 1366.15 Q2090.57 1359.02 2090.57 1344.81 Q2090.57 1330.55 2086.91 1323.46 Q2083.3 1316.33 2076.03 1316.33 M2076.03 1308.93 Q2087.65 1308.93 2093.76 1318.14 Q2099.92 1327.31 2099.92 1344.81 Q2099.92 1362.26 2093.76 1371.47 Q2087.65 1380.64 2076.03 1380.64 Q2064.41 1380.64 2058.25 1371.47 Q2052.14 1362.26 2052.14 1344.81 Q2052.14 1327.31 2058.25 1318.14 Q2064.41 1308.93 2076.03 1308.93 Z" fill="#000000" fill-rule="nonzero" fill-opacity="1" /><path clip-path="url(#clip070)" d="M1375.05 1484.39 L1375.05 1527.42 L1363.34 1527.42 L1363.34 1484.77 Q1363.34 1474.65 1359.39 1469.62 Q1355.45 1464.59 1347.55 1464.59 Q1338.07 1464.59 1332.59 1470.64 Q1327.12 1476.69 1327.12 1487.13 L1327.12 1527.42 L1315.34 1527.42 L1315.34 1428.37 L1327.12 1428.37 L1327.12 1467.2 Q1331.32 1460.77 1336.99 1457.59 Q1342.72 1454.41 1350.16 1454.41 Q1362.45 1454.41 1368.75 1462.05 Q1375.05 1469.62 1375.05 1484.39 Z" fill="#000000" fill-rule="nonzero" fill-opacity="1" /><path clip-path="url(#clip070)" d="M1426.04 1464.34 Q1416.62 1464.34 1411.15 1471.72 Q1405.67 1479.04 1405.67 1491.84 Q1405.67 1504.63 1411.08 1512.02 Q1416.56 1519.34 1426.04 1519.34 Q1435.4 1519.34 1440.87 1511.96 Q1446.35 1504.57 1446.35 1491.84 Q1446.35 1479.17 1440.87 1471.79 Q1435.4 1464.34 1426.04 1464.34 M1426.04 1454.41 Q1441.32 1454.41 1450.04 1464.34 Q1458.76 1474.27 1458.76 1491.84 Q1458.76 1509.35 1450.04 1519.34 Q1441.32 1529.27 1426.04 1529.27 Q1410.7 1529.27 1401.98 1519.34 Q1393.32 1509.35 1393.32 1491.84 Q1393.32 1474.27 1401.98 1464.34 Q1410.7 1454.41 1426.04 1454.41 Z" fill="#000000" fill-rule="nonzero" fill-opacity="1" /><path clip-path="url(#clip070)" d="M1476.97 1499.29 L1476.97 1456.13 L1488.68 1456.13 L1488.68 1498.84 Q1488.68 1508.96 1492.63 1514.06 Q1496.57 1519.08 1504.47 1519.08 Q1513.95 1519.08 1519.43 1513.04 Q1524.97 1506.99 1524.97 1496.55 L1524.97 1456.13 L1536.68 1456.13 L1536.68 1527.42 L1524.97 1527.42 L1524.97 1516.47 Q1520.7 1522.97 1515.04 1526.15 Q1509.43 1529.27 1501.99 1529.27 Q1489.7 1529.27 1483.33 1521.63 Q1476.97 1513.99 1476.97 1499.29 M1506.44 1454.41 L1506.44 1454.41 Z" fill="#000000" fill-rule="nonzero" fill-opacity="1" /><path clip-path="url(#clip070)" d="M1602.12 1467.08 Q1600.14 1465.93 1597.79 1465.42 Q1595.5 1464.85 1592.7 1464.85 Q1582.77 1464.85 1577.42 1471.34 Q1572.14 1477.77 1572.14 1489.87 L1572.14 1527.42 L1560.36 1527.42 L1560.36 1456.13 L1572.14 1456.13 L1572.14 1467.2 Q1575.83 1460.71 1581.75 1457.59 Q1587.67 1454.41 1596.13 1454.41 Q1597.34 1454.41 1598.81 1454.6 Q1600.27 1454.73 1602.05 1455.05 L1602.12 1467.08 Z" fill="#000000" fill-rule="nonzero" fill-opacity="1" /><path clip-path="url(#clip070)" d="M1659.86 1458.23 L1659.86 1469.3 Q1654.89 1466.76 1649.54 1465.49 Q1644.2 1464.21 1638.47 1464.21 Q1629.75 1464.21 1625.35 1466.89 Q1621.02 1469.56 1621.02 1474.91 Q1621.02 1478.98 1624.14 1481.34 Q1627.26 1483.63 1636.68 1485.73 L1640.69 1486.62 Q1653.17 1489.29 1658.39 1494.19 Q1663.67 1499.03 1663.67 1507.75 Q1663.67 1517.68 1655.78 1523.48 Q1647.95 1529.27 1634.2 1529.27 Q1628.47 1529.27 1622.23 1528.12 Q1616.06 1527.04 1609.18 1524.81 L1609.18 1512.72 Q1615.68 1516.09 1621.98 1517.81 Q1628.28 1519.47 1634.46 1519.47 Q1642.73 1519.47 1647.19 1516.67 Q1651.64 1513.8 1651.64 1508.64 Q1651.64 1503.87 1648.4 1501.32 Q1645.21 1498.78 1634.33 1496.42 L1630.25 1495.47 Q1619.37 1493.18 1614.53 1488.47 Q1609.69 1483.69 1609.69 1475.42 Q1609.69 1465.36 1616.82 1459.88 Q1623.95 1454.41 1637.07 1454.41 Q1643.56 1454.41 1649.29 1455.36 Q1655.02 1456.32 1659.86 1458.23 Z" fill="#000000" fill-rule="nonzero" fill-opacity="1" /><polyline clip-path="url(#clip072)" style="stroke:#000000; stroke-linecap:round; stroke-linejoin:round; stroke-width:4; stroke-opacity:0.1; fill:none" points="673.506,1142.66 2305.51,1142.66 "/>
<polyline clip-path="url(#clip072)" style="stroke:#000000; stroke-linecap:round; stroke-linejoin:round; stroke-width:4; stroke-opacity:0.1; fill:none" points="673.506,980.103 2305.51,980.103 "/>
<polyline clip-path="url(#clip072)" style="stroke:#000000; stroke-linecap:round; stroke-linejoin:round; stroke-width:4; stroke-opacity:0.1; fill:none" points="673.506,817.548 2305.51,817.548 "/>
<polyline clip-path="url(#clip072)" style="stroke:#000000; stroke-linecap:round; stroke-linejoin:round; stroke-width:4; stroke-opacity:0.1; fill:none" points="673.506,654.994 2305.51,654.994 "/>
<polyline clip-path="url(#clip072)" style="stroke:#000000; stroke-linecap:round; stroke-linejoin:round; stroke-width:4; stroke-opacity:0.1; fill:none" points="673.506,492.44 2305.51,492.44 "/>
<polyline clip-path="url(#clip072)" style="stroke:#000000; stroke-linecap:round; stroke-linejoin:round; stroke-width:4; stroke-opacity:0.1; fill:none" points="673.506,329.885 2305.51,329.885 "/>
<polyline clip-path="url(#clip072)" style="stroke:#000000; stroke-linecap:round; stroke-linejoin:round; stroke-width:4; stroke-opacity:0.1; fill:none" points="673.506,167.331 2305.51,167.331 "/>
<polyline clip-path="url(#clip070)" style="stroke:#000000; stroke-linecap:round; stroke-linejoin:round; stroke-width:8; stroke-opacity:1; fill:none" points="673.506,1273.7 673.506,94.4882 "/>
<polyline clip-path="url(#clip070)" style="stroke:#000000; stroke-linecap:round; stroke-linejoin:round; stroke-width:8; stroke-opacity:1; fill:none" points="673.506,1142.66 692.404,1142.66 "/>
<polyline clip-path="url(#clip070)" style="stroke:#000000; stroke-linecap:round; stroke-linejoin:round; stroke-width:8; stroke-opacity:1; fill:none" points="673.506,980.103 692.404,980.103 "/>
<polyline clip-path="url(#clip070)" style="stroke:#000000; stroke-linecap:round; stroke-linejoin:round; stroke-width:8; stroke-opacity:1; fill:none" points="673.506,817.548 692.404,817.548 "/>
<polyline clip-path="url(#clip070)" style="stroke:#000000; stroke-linecap:round; stroke-linejoin:round; stroke-width:8; stroke-opacity:1; fill:none" points="673.506,654.994 692.404,654.994 "/>
<polyline clip-path="url(#clip070)" style="stroke:#000000; stroke-linecap:round; stroke-linejoin:round; stroke-width:8; stroke-opacity:1; fill:none" points="673.506,492.44 692.404,492.44 "/>
<polyline clip-path="url(#clip070)" style="stroke:#000000; stroke-linecap:round; stroke-linejoin:round; stroke-width:8; stroke-opacity:1; fill:none" points="673.506,329.885 692.404,329.885 "/>
<polyline clip-path="url(#clip070)" style="stroke:#000000; stroke-linecap:round; stroke-linejoin:round; stroke-width:8; stroke-opacity:1; fill:none" points="673.506,167.331 692.404,167.331 "/>
<path clip-path="url(#clip070)" d="M462.831 1144.39 Q456.164 1144.39 452.322 1147.96 Q448.525 1151.52 448.525 1157.77 Q448.525 1164.02 452.322 1167.59 Q456.164 1171.15 462.831 1171.15 Q469.498 1171.15 473.34 1167.59 Q477.183 1163.98 477.183 1157.77 Q477.183 1151.52 473.34 1147.96 Q469.544 1144.39 462.831 1144.39 M453.479 1140.41 Q447.461 1138.93 444.081 1134.81 Q440.748 1130.69 440.748 1124.76 Q440.748 1116.48 446.627 1111.66 Q452.553 1106.85 462.831 1106.85 Q473.155 1106.85 479.035 1111.66 Q484.914 1116.48 484.914 1124.76 Q484.914 1130.69 481.535 1134.81 Q478.201 1138.93 472.229 1140.41 Q478.988 1141.99 482.738 1146.57 Q486.535 1151.15 486.535 1157.77 Q486.535 1167.82 480.377 1173.19 Q474.266 1178.56 462.831 1178.56 Q451.396 1178.56 445.238 1173.19 Q439.127 1167.82 439.127 1157.77 Q439.127 1151.15 442.924 1146.57 Q446.72 1141.99 453.479 1140.41 M450.053 1125.64 Q450.053 1131.01 453.387 1134.02 Q456.766 1137.03 462.831 1137.03 Q468.849 1137.03 472.229 1134.02 Q475.655 1131.01 475.655 1125.64 Q475.655 1120.27 472.229 1117.26 Q468.849 1114.25 462.831 1114.25 Q456.766 1114.25 453.387 1117.26 Q450.053 1120.27 450.053 1125.64 Z" fill="#000000" fill-rule="nonzero" fill-opacity="1" /><path clip-path="url(#clip070)" d="M503.247 1108.1 L539.96 1108.1 L539.96 1115.97 L511.812 1115.97 L511.812 1132.91 Q513.849 1132.22 515.886 1131.89 Q517.923 1131.52 519.96 1131.52 Q531.534 1131.52 538.294 1137.87 Q545.053 1144.21 545.053 1155.04 Q545.053 1166.2 538.108 1172.4 Q531.164 1178.56 518.525 1178.56 Q514.173 1178.56 509.636 1177.82 Q505.146 1177.08 500.331 1175.6 L500.331 1166.2 Q504.497 1168.47 508.942 1169.58 Q513.386 1170.69 518.34 1170.69 Q526.349 1170.69 531.025 1166.48 Q535.701 1162.26 535.701 1155.04 Q535.701 1147.82 531.025 1143.61 Q526.349 1139.39 518.34 1139.39 Q514.59 1139.39 510.84 1140.23 Q507.136 1141.06 503.247 1142.82 L503.247 1108.1 Z" fill="#000000" fill-rule="nonzero" fill-opacity="1" /><path clip-path="url(#clip070)" d="M563.479 1165.46 L573.247 1165.46 L573.247 1177.22 L563.479 1177.22 L563.479 1165.46 Z" fill="#000000" fill-rule="nonzero" fill-opacity="1" /><path clip-path="url(#clip070)" d="M613.617 1114.25 Q606.395 1114.25 602.738 1121.38 Q599.127 1128.47 599.127 1142.73 Q599.127 1156.94 602.738 1164.07 Q606.395 1171.15 613.617 1171.15 Q620.886 1171.15 624.497 1164.07 Q628.154 1156.94 628.154 1142.73 Q628.154 1128.47 624.497 1121.38 Q620.886 1114.25 613.617 1114.25 M613.617 1106.85 Q625.238 1106.85 631.349 1116.06 Q637.506 1125.23 637.506 1142.73 Q637.506 1160.18 631.349 1169.39 Q625.238 1178.56 613.617 1178.56 Q601.997 1178.56 595.84 1169.39 Q589.728 1160.18 589.728 1142.73 Q589.728 1125.23 595.84 1116.06 Q601.997 1106.85 613.617 1106.85 Z" fill="#000000" fill-rule="nonzero" fill-opacity="1" /><path clip-path="url(#clip070)" d="M443.109 1013.23 L443.109 1004.71 Q446.627 1006.38 450.238 1007.26 Q453.85 1008.14 457.322 1008.14 Q466.581 1008.14 471.442 1001.93 Q476.349 995.681 477.044 982.996 Q474.359 986.978 470.238 989.107 Q466.118 991.237 461.118 991.237 Q450.748 991.237 444.683 984.987 Q438.664 978.691 438.664 967.811 Q438.664 957.163 444.961 950.728 Q451.257 944.293 461.72 944.293 Q473.711 944.293 480.007 953.506 Q486.349 962.672 486.349 980.172 Q486.349 996.515 478.572 1006.28 Q470.84 1016.01 457.738 1016.01 Q454.22 1016.01 450.609 1015.31 Q446.998 1014.62 443.109 1013.23 M461.72 983.922 Q468.016 983.922 471.674 979.617 Q475.377 975.311 475.377 967.811 Q475.377 960.358 471.674 956.052 Q468.016 951.7 461.72 951.7 Q455.424 951.7 451.72 956.052 Q448.063 960.358 448.063 967.811 Q448.063 975.311 451.72 979.617 Q455.424 983.922 461.72 983.922 Z" fill="#000000" fill-rule="nonzero" fill-opacity="1" /><path clip-path="url(#clip070)" d="M523.155 951.7 Q515.933 951.7 512.275 958.83 Q508.664 965.913 508.664 980.172 Q508.664 994.385 512.275 1001.51 Q515.933 1008.6 523.155 1008.6 Q530.423 1008.6 534.034 1001.51 Q537.692 994.385 537.692 980.172 Q537.692 965.913 534.034 958.83 Q530.423 951.7 523.155 951.7 M523.155 944.293 Q534.775 944.293 540.886 953.506 Q547.043 962.672 547.043 980.172 Q547.043 997.626 540.886 1006.84 Q534.775 1016.01 523.155 1016.01 Q511.534 1016.01 505.377 1006.84 Q499.266 997.626 499.266 980.172 Q499.266 962.672 505.377 953.506 Q511.534 944.293 523.155 944.293 Z" fill="#000000" fill-rule="nonzero" fill-opacity="1" /><path clip-path="url(#clip070)" d="M563.479 1002.9 L573.247 1002.9 L573.247 1014.66 L563.479 1014.66 L563.479 1002.9 Z" fill="#000000" fill-rule="nonzero" fill-opacity="1" /><path clip-path="url(#clip070)" d="M613.617 951.7 Q606.395 951.7 602.738 958.83 Q599.127 965.913 599.127 980.172 Q599.127 994.385 602.738 1001.51 Q606.395 1008.6 613.617 1008.6 Q620.886 1008.6 624.497 1001.51 Q628.154 994.385 628.154 980.172 Q628.154 965.913 624.497 958.83 Q620.886 951.7 613.617 951.7 M613.617 944.293 Q625.238 944.293 631.349 953.506 Q637.506 962.672 637.506 980.172 Q637.506 997.626 631.349 1006.84 Q625.238 1016.01 613.617 1016.01 Q601.997 1016.01 595.84 1006.84 Q589.728 997.626 589.728 980.172 Q589.728 962.672 595.84 953.506 Q601.997 944.293 613.617 944.293 Z" fill="#000000" fill-rule="nonzero" fill-opacity="1" /><path clip-path="url(#clip070)" d="M443.109 850.673 L443.109 842.155 Q446.627 843.821 450.238 844.701 Q453.85 845.581 457.322 845.581 Q466.581 845.581 471.442 839.377 Q476.349 833.127 477.044 820.442 Q474.359 824.423 470.238 826.553 Q466.118 828.683 461.118 828.683 Q450.748 828.683 444.683 822.433 Q438.664 816.136 438.664 805.257 Q438.664 794.609 444.961 788.174 Q451.257 781.738 461.72 781.738 Q473.711 781.738 480.007 790.951 Q486.349 800.118 486.349 817.618 Q486.349 833.96 478.572 843.729 Q470.84 853.451 457.738 853.451 Q454.22 853.451 450.609 852.757 Q446.998 852.062 443.109 850.673 M461.72 821.368 Q468.016 821.368 471.674 817.062 Q475.377 812.757 475.377 805.257 Q475.377 797.803 471.674 793.498 Q468.016 789.146 461.72 789.146 Q455.424 789.146 451.72 793.498 Q448.063 797.803 448.063 805.257 Q448.063 812.757 451.72 817.062 Q455.424 821.368 461.72 821.368 Z" fill="#000000" fill-rule="nonzero" fill-opacity="1" /><path clip-path="url(#clip070)" d="M503.247 782.988 L539.96 782.988 L539.96 790.859 L511.812 790.859 L511.812 807.803 Q513.849 807.109 515.886 806.785 Q517.923 806.414 519.96 806.414 Q531.534 806.414 538.294 812.757 Q545.053 819.099 545.053 829.933 Q545.053 841.09 538.108 847.294 Q531.164 853.451 518.525 853.451 Q514.173 853.451 509.636 852.71 Q505.146 851.97 500.331 850.488 L500.331 841.09 Q504.497 843.358 508.942 844.47 Q513.386 845.581 518.34 845.581 Q526.349 845.581 531.025 841.368 Q535.701 837.155 535.701 829.933 Q535.701 822.71 531.025 818.497 Q526.349 814.285 518.34 814.285 Q514.59 814.285 510.84 815.118 Q507.136 815.951 503.247 817.71 L503.247 782.988 Z" fill="#000000" fill-rule="nonzero" fill-opacity="1" /><path clip-path="url(#clip070)" d="M563.479 840.349 L573.247 840.349 L573.247 852.108 L563.479 852.108 L563.479 840.349 Z" fill="#000000" fill-rule="nonzero" fill-opacity="1" /><path clip-path="url(#clip070)" d="M613.617 789.146 Q606.395 789.146 602.738 796.275 Q599.127 803.359 599.127 817.618 Q599.127 831.831 602.738 838.96 Q606.395 846.044 613.617 846.044 Q620.886 846.044 624.497 838.96 Q628.154 831.831 628.154 817.618 Q628.154 803.359 624.497 796.275 Q620.886 789.146 613.617 789.146 M613.617 781.738 Q625.238 781.738 631.349 790.951 Q637.506 800.118 637.506 817.618 Q637.506 835.071 631.349 844.284 Q625.238 853.451 613.617 853.451 Q601.997 853.451 595.84 844.284 Q589.728 835.071 589.728 817.618 Q589.728 800.118 595.84 790.951 Q601.997 781.738 613.617 781.738 Z" fill="#000000" fill-rule="nonzero" fill-opacity="1" /><path clip-path="url(#clip070)" d="M384.128 681.684 L399.405 681.684 L399.405 628.953 L382.785 632.286 L382.785 623.767 L399.313 620.434 L408.665 620.434 L408.665 681.684 L423.942 681.684 L423.942 689.554 L384.128 689.554 L384.128 681.684 Z" fill="#000000" fill-rule="nonzero" fill-opacity="1" /><path clip-path="url(#clip070)" d="M462.831 626.591 Q455.609 626.591 451.951 633.721 Q448.34 640.804 448.34 655.063 Q448.34 669.276 451.951 676.406 Q455.609 683.489 462.831 683.489 Q470.099 683.489 473.711 676.406 Q477.368 669.276 477.368 655.063 Q477.368 640.804 473.711 633.721 Q470.099 626.591 462.831 626.591 M462.831 619.184 Q474.451 619.184 480.562 628.397 Q486.72 637.564 486.72 655.063 Q486.72 672.517 480.562 681.73 Q474.451 690.897 462.831 690.897 Q451.211 690.897 445.053 681.73 Q438.942 672.517 438.942 655.063 Q438.942 637.564 445.053 628.397 Q451.211 619.184 462.831 619.184 Z" fill="#000000" fill-rule="nonzero" fill-opacity="1" /><path clip-path="url(#clip070)" d="M523.155 626.591 Q515.933 626.591 512.275 633.721 Q508.664 640.804 508.664 655.063 Q508.664 669.276 512.275 676.406 Q515.933 683.489 523.155 683.489 Q530.423 683.489 534.034 676.406 Q537.692 669.276 537.692 655.063 Q537.692 640.804 534.034 633.721 Q530.423 626.591 523.155 626.591 M523.155 619.184 Q534.775 619.184 540.886 628.397 Q547.043 637.564 547.043 655.063 Q547.043 672.517 540.886 681.73 Q534.775 690.897 523.155 690.897 Q511.534 690.897 505.377 681.73 Q499.266 672.517 499.266 655.063 Q499.266 637.564 505.377 628.397 Q511.534 619.184 523.155 619.184 Z" fill="#000000" fill-rule="nonzero" fill-opacity="1" /><path clip-path="url(#clip070)" d="M563.479 677.795 L573.247 677.795 L573.247 689.554 L563.479 689.554 L563.479 677.795 Z" fill="#000000" fill-rule="nonzero" fill-opacity="1" /><path clip-path="url(#clip070)" d="M613.617 626.591 Q606.395 626.591 602.738 633.721 Q599.127 640.804 599.127 655.063 Q599.127 669.276 602.738 676.406 Q606.395 683.489 613.617 683.489 Q620.886 683.489 624.497 676.406 Q628.154 669.276 628.154 655.063 Q628.154 640.804 624.497 633.721 Q620.886 626.591 613.617 626.591 M613.617 619.184 Q625.238 619.184 631.349 628.397 Q637.506 637.564 637.506 655.063 Q637.506 672.517 631.349 681.73 Q625.238 690.897 613.617 690.897 Q601.997 690.897 595.84 681.73 Q589.728 672.517 589.728 655.063 Q589.728 637.564 595.84 628.397 Q601.997 619.184 613.617 619.184 Z" fill="#000000" fill-rule="nonzero" fill-opacity="1" /><path clip-path="url(#clip070)" d="M384.128 519.129 L399.405 519.129 L399.405 466.398 L382.785 469.731 L382.785 461.213 L399.313 457.88 L408.665 457.88 L408.665 519.129 L423.942 519.129 L423.942 527 L384.128 527 L384.128 519.129 Z" fill="#000000" fill-rule="nonzero" fill-opacity="1" /><path clip-path="url(#clip070)" d="M462.831 464.037 Q455.609 464.037 451.951 471.167 Q448.34 478.25 448.34 492.509 Q448.34 506.722 451.951 513.852 Q455.609 520.935 462.831 520.935 Q470.099 520.935 473.711 513.852 Q477.368 506.722 477.368 492.509 Q477.368 478.25 473.711 471.167 Q470.099 464.037 462.831 464.037 M462.831 456.63 Q474.451 456.63 480.562 465.843 Q486.72 475.009 486.72 492.509 Q486.72 509.963 480.562 519.176 Q474.451 528.342 462.831 528.342 Q451.211 528.342 445.053 519.176 Q438.942 509.963 438.942 492.509 Q438.942 475.009 445.053 465.843 Q451.211 456.63 462.831 456.63 Z" fill="#000000" fill-rule="nonzero" fill-opacity="1" /><path clip-path="url(#clip070)" d="M503.247 457.88 L539.96 457.88 L539.96 465.75 L511.812 465.75 L511.812 482.694 Q513.849 482 515.886 481.676 Q517.923 481.305 519.96 481.305 Q531.534 481.305 538.294 487.648 Q545.053 493.991 545.053 504.824 Q545.053 515.981 538.108 522.185 Q531.164 528.342 518.525 528.342 Q514.173 528.342 509.636 527.602 Q505.146 526.861 500.331 525.379 L500.331 515.981 Q504.497 518.25 508.942 519.361 Q513.386 520.472 518.34 520.472 Q526.349 520.472 531.025 516.259 Q535.701 512.046 535.701 504.824 Q535.701 497.602 531.025 493.389 Q526.349 489.176 518.34 489.176 Q514.59 489.176 510.84 490.009 Q507.136 490.842 503.247 492.602 L503.247 457.88 Z" fill="#000000" fill-rule="nonzero" fill-opacity="1" /><path clip-path="url(#clip070)" d="M563.479 515.24 L573.247 515.24 L573.247 527 L563.479 527 L563.479 515.24 Z" fill="#000000" fill-rule="nonzero" fill-opacity="1" /><path clip-path="url(#clip070)" d="M613.617 464.037 Q606.395 464.037 602.738 471.167 Q599.127 478.25 599.127 492.509 Q599.127 506.722 602.738 513.852 Q606.395 520.935 613.617 520.935 Q620.886 520.935 624.497 513.852 Q628.154 506.722 628.154 492.509 Q628.154 478.25 624.497 471.167 Q620.886 464.037 613.617 464.037 M613.617 456.63 Q625.238 456.63 631.349 465.843 Q637.506 475.009 637.506 492.509 Q637.506 509.963 631.349 519.176 Q625.238 528.342 613.617 528.342 Q601.997 528.342 595.84 519.176 Q589.728 509.963 589.728 492.509 Q589.728 475.009 595.84 465.843 Q601.997 456.63 613.617 456.63 Z" fill="#000000" fill-rule="nonzero" fill-opacity="1" /><path clip-path="url(#clip070)" d="M384.128 356.575 L399.405 356.575 L399.405 303.844 L382.785 307.177 L382.785 298.659 L399.313 295.325 L408.665 295.325 L408.665 356.575 L423.942 356.575 L423.942 364.445 L384.128 364.445 L384.128 356.575 Z" fill="#000000" fill-rule="nonzero" fill-opacity="1" /><path clip-path="url(#clip070)" d="M444.451 356.575 L459.729 356.575 L459.729 303.844 L443.109 307.177 L443.109 298.659 L459.637 295.325 L468.988 295.325 L468.988 356.575 L484.266 356.575 L484.266 364.445 L444.451 364.445 L444.451 356.575 Z" fill="#000000" fill-rule="nonzero" fill-opacity="1" /><path clip-path="url(#clip070)" d="M523.155 301.483 Q515.933 301.483 512.275 308.612 Q508.664 315.696 508.664 329.955 Q508.664 344.168 512.275 351.297 Q515.933 358.381 523.155 358.381 Q530.423 358.381 534.034 351.297 Q537.692 344.168 537.692 329.955 Q537.692 315.696 534.034 308.612 Q530.423 301.483 523.155 301.483 M523.155 294.075 Q534.775 294.075 540.886 303.288 Q547.043 312.455 547.043 329.955 Q547.043 347.408 540.886 356.621 Q534.775 365.788 523.155 365.788 Q511.534 365.788 505.377 356.621 Q499.266 347.408 499.266 329.955 Q499.266 312.455 505.377 303.288 Q511.534 294.075 523.155 294.075 Z" fill="#000000" fill-rule="nonzero" fill-opacity="1" /><path clip-path="url(#clip070)" d="M563.479 352.686 L573.247 352.686 L573.247 364.445 L563.479 364.445 L563.479 352.686 Z" fill="#000000" fill-rule="nonzero" fill-opacity="1" /><path clip-path="url(#clip070)" d="M613.617 301.483 Q606.395 301.483 602.738 308.612 Q599.127 315.696 599.127 329.955 Q599.127 344.168 602.738 351.297 Q606.395 358.381 613.617 358.381 Q620.886 358.381 624.497 351.297 Q628.154 344.168 628.154 329.955 Q628.154 315.696 624.497 308.612 Q620.886 301.483 613.617 301.483 M613.617 294.075 Q625.238 294.075 631.349 303.288 Q637.506 312.455 637.506 329.955 Q637.506 347.408 631.349 356.621 Q625.238 365.788 613.617 365.788 Q601.997 365.788 595.84 356.621 Q589.728 347.408 589.728 329.955 Q589.728 312.455 595.84 303.288 Q601.997 294.075 613.617 294.075 Z" fill="#000000" fill-rule="nonzero" fill-opacity="1" /><path clip-path="url(#clip070)" d="M384.128 194.021 L399.405 194.021 L399.405 141.289 L382.785 144.623 L382.785 136.104 L399.313 132.771 L408.665 132.771 L408.665 194.021 L423.942 194.021 L423.942 201.891 L384.128 201.891 L384.128 194.021 Z" fill="#000000" fill-rule="nonzero" fill-opacity="1" /><path clip-path="url(#clip070)" d="M444.451 194.021 L459.729 194.021 L459.729 141.289 L443.109 144.623 L443.109 136.104 L459.637 132.771 L468.988 132.771 L468.988 194.021 L484.266 194.021 L484.266 201.891 L444.451 201.891 L444.451 194.021 Z" fill="#000000" fill-rule="nonzero" fill-opacity="1" /><path clip-path="url(#clip070)" d="M503.247 132.771 L539.96 132.771 L539.96 140.641 L511.812 140.641 L511.812 157.586 Q513.849 156.891 515.886 156.567 Q517.923 156.197 519.96 156.197 Q531.534 156.197 538.294 162.539 Q545.053 168.882 545.053 179.715 Q545.053 190.872 538.108 197.076 Q531.164 203.234 518.525 203.234 Q514.173 203.234 509.636 202.493 Q505.146 201.752 500.331 200.271 L500.331 190.872 Q504.497 193.141 508.942 194.252 Q513.386 195.363 518.34 195.363 Q526.349 195.363 531.025 191.15 Q535.701 186.937 535.701 179.715 Q535.701 172.493 531.025 168.28 Q526.349 164.067 518.34 164.067 Q514.59 164.067 510.84 164.9 Q507.136 165.734 503.247 167.493 L503.247 132.771 Z" fill="#000000" fill-rule="nonzero" fill-opacity="1" /><path clip-path="url(#clip070)" d="M563.479 190.132 L573.247 190.132 L573.247 201.891 L563.479 201.891 L563.479 190.132 Z" fill="#000000" fill-rule="nonzero" fill-opacity="1" /><path clip-path="url(#clip070)" d="M613.617 138.928 Q606.395 138.928 602.738 146.058 Q599.127 153.141 599.127 167.4 Q599.127 181.613 602.738 188.743 Q606.395 195.826 613.617 195.826 Q620.886 195.826 624.497 188.743 Q628.154 181.613 628.154 167.4 Q628.154 153.141 624.497 146.058 Q620.886 138.928 613.617 138.928 M613.617 131.521 Q625.238 131.521 631.349 140.734 Q637.506 149.9 637.506 167.4 Q637.506 184.854 631.349 194.067 Q625.238 203.234 613.617 203.234 Q601.997 203.234 595.84 194.067 Q589.728 184.854 589.728 167.4 Q589.728 149.9 595.84 140.734 Q601.997 131.521 613.617 131.521 Z" fill="#000000" fill-rule="nonzero" fill-opacity="1" /><path clip-path="url(#clip070)" d="M307.579 931.718 L345.391 931.718 L345.391 943.495 L246.977 943.495 L246.977 931.718 L257.799 931.718 Q251.433 928.026 248.378 922.424 Q245.258 916.759 245.258 908.929 Q245.258 895.943 255.571 887.858 Q265.883 879.71 282.689 879.71 Q299.494 879.71 309.807 887.858 Q320.119 895.943 320.119 908.929 Q320.119 916.759 317.064 922.424 Q313.944 928.026 307.579 931.718 M282.689 891.869 Q269.766 891.869 262.446 897.216 Q255.062 902.499 255.062 911.793 Q255.062 921.087 262.446 926.434 Q269.766 931.718 282.689 931.718 Q295.611 931.718 302.995 926.434 Q310.316 921.087 310.316 911.793 Q310.316 902.499 302.995 897.216 Q295.611 891.869 282.689 891.869 Z" fill="#000000" fill-rule="nonzero" fill-opacity="1" /><path clip-path="url(#clip070)" d="M282.434 827.893 Q282.434 842.089 285.681 847.563 Q288.927 853.038 296.757 853.038 Q302.995 853.038 306.688 848.964 Q310.316 844.826 310.316 837.76 Q310.316 828.021 303.441 822.164 Q296.502 816.244 285.044 816.244 L282.434 816.244 L282.434 827.893 M277.596 804.531 L318.273 804.531 L318.273 816.244 L307.451 816.244 Q313.944 820.254 317.064 826.238 Q320.119 832.222 320.119 840.879 Q320.119 851.828 314.008 858.321 Q307.833 864.751 297.521 864.751 Q285.49 864.751 279.379 856.73 Q273.268 848.645 273.268 832.668 L273.268 816.244 L272.122 816.244 Q264.037 816.244 259.645 821.591 Q255.189 826.875 255.189 836.487 Q255.189 842.598 256.653 848.391 Q258.117 854.184 261.045 859.531 L250.224 859.531 Q247.741 853.101 246.532 847.054 Q245.258 841.007 245.258 835.278 Q245.258 819.809 253.279 812.17 Q261.3 804.531 277.596 804.531 Z" fill="#000000" fill-rule="nonzero" fill-opacity="1" /><path clip-path="url(#clip070)" d="M257.926 739.092 Q256.78 741.065 256.271 743.42 Q255.698 745.712 255.698 748.513 Q255.698 758.443 262.191 763.791 Q268.621 769.074 280.715 769.074 L318.273 769.074 L318.273 780.851 L246.977 780.851 L246.977 769.074 L258.054 769.074 Q251.561 765.382 248.441 759.462 Q245.258 753.542 245.258 745.075 Q245.258 743.866 245.449 742.402 Q245.577 740.938 245.895 739.155 L257.926 739.092 Z" fill="#000000" fill-rule="nonzero" fill-opacity="1" /><path clip-path="url(#clip070)" d="M279.697 668.687 L285.426 668.687 L285.426 722.541 Q297.521 721.777 303.887 715.284 Q310.189 708.727 310.189 697.078 Q310.189 690.33 308.534 684.028 Q306.878 677.663 303.568 671.424 L314.645 671.424 Q317.318 677.726 318.719 684.347 Q320.119 690.967 320.119 697.778 Q320.119 714.838 310.189 724.832 Q300.258 734.763 283.325 734.763 Q265.82 734.763 255.571 725.342 Q245.258 715.857 245.258 699.815 Q245.258 685.429 254.552 677.09 Q263.783 668.687 279.697 668.687 M276.259 680.4 Q266.647 680.527 260.918 685.811 Q255.189 691.031 255.189 699.688 Q255.189 709.491 260.727 715.411 Q266.265 721.268 276.323 722.159 L276.259 680.4 Z" fill="#000000" fill-rule="nonzero" fill-opacity="1" /><path clip-path="url(#clip070)" d="M275.241 590.198 L318.273 590.198 L318.273 601.911 L275.623 601.911 Q265.501 601.911 260.472 605.857 Q255.444 609.804 255.444 617.698 Q255.444 627.183 261.491 632.657 Q267.538 638.132 277.978 638.132 L318.273 638.132 L318.273 649.908 L246.977 649.908 L246.977 638.132 L258.054 638.132 Q251.624 633.93 248.441 628.265 Q245.258 622.536 245.258 615.088 Q245.258 602.802 252.897 596.5 Q260.472 590.198 275.241 590.198 Z" fill="#000000" fill-rule="nonzero" fill-opacity="1" /><path clip-path="url(#clip070)" d="M302.104 565.181 L302.104 551.749 L318.273 551.749 L318.273 565.181 L302.104 565.181 Z" fill="#000000" fill-rule="nonzero" fill-opacity="1" /><path clip-path="url(#clip070)" d="M223.233 482.172 L223.233 431.692 L234.055 431.692 L234.055 470.395 L257.353 470.395 Q256.398 467.594 255.953 464.793 Q255.444 461.992 255.444 459.192 Q255.444 443.277 264.165 433.983 Q272.886 424.689 287.781 424.689 Q303.123 424.689 311.653 434.238 Q320.119 443.787 320.119 461.165 Q320.119 467.149 319.101 473.387 Q318.082 479.562 316.045 486.182 L303.123 486.182 Q306.242 480.453 307.77 474.342 Q309.297 468.231 309.297 461.42 Q309.297 450.407 303.505 443.978 Q297.712 437.548 287.781 437.548 Q277.851 437.548 272.058 443.978 Q266.265 450.407 266.265 461.42 Q266.265 466.576 267.411 471.732 Q268.557 476.825 270.976 482.172 L223.233 482.172 Z" fill="#000000" fill-rule="nonzero" fill-opacity="1" /><polyline clip-path="url(#clip072)" style="stroke:#008000; stroke-linecap:round; stroke-linejoin:round; stroke-width:8; stroke-opacity:1; fill:none" points="719.695,246.537 847.997,356.979 976.3,630.312 1104.6,619.536 1232.9,611.251 1361.21,590.538 1489.51,849.076 1617.81,984.891 1746.11,781.489 1874.42,864.98 2002.72,952.91 2131.02,1180.03 2259.32,1240.32 "/>
<circle clip-path="url(#clip072)" cx="719.695" cy="246.537" r="14.4" fill="#008000" fill-rule="evenodd" fill-opacity="1" stroke="#000000" stroke-opacity="1" stroke-width="6.4"/>
<circle clip-path="url(#clip072)" cx="847.997" cy="356.979" r="14.4" fill="#008000" fill-rule="evenodd" fill-opacity="1" stroke="#000000" stroke-opacity="1" stroke-width="6.4"/>
<circle clip-path="url(#clip072)" cx="976.3" cy="630.312" r="14.4" fill="#008000" fill-rule="evenodd" fill-opacity="1" stroke="#000000" stroke-opacity="1" stroke-width="6.4"/>
<circle clip-path="url(#clip072)" cx="1104.6" cy="619.536" r="14.4" fill="#008000" fill-rule="evenodd" fill-opacity="1" stroke="#000000" stroke-opacity="1" stroke-width="6.4"/>
<circle clip-path="url(#clip072)" cx="1232.9" cy="611.251" r="14.4" fill="#008000" fill-rule="evenodd" fill-opacity="1" stroke="#000000" stroke-opacity="1" stroke-width="6.4"/>
<circle clip-path="url(#clip072)" cx="1361.21" cy="590.538" r="14.4" fill="#008000" fill-rule="evenodd" fill-opacity="1" stroke="#000000" stroke-opacity="1" stroke-width="6.4"/>
<circle clip-path="url(#clip072)" cx="1489.51" cy="849.076" r="14.4" fill="#008000" fill-rule="evenodd" fill-opacity="1" stroke="#000000" stroke-opacity="1" stroke-width="6.4"/>
<circle clip-path="url(#clip072)" cx="1617.81" cy="984.891" r="14.4" fill="#008000" fill-rule="evenodd" fill-opacity="1" stroke="#000000" stroke-opacity="1" stroke-width="6.4"/>
<circle clip-path="url(#clip072)" cx="1746.11" cy="781.489" r="14.4" fill="#008000" fill-rule="evenodd" fill-opacity="1" stroke="#000000" stroke-opacity="1" stroke-width="6.4"/>
<circle clip-path="url(#clip072)" cx="1874.42" cy="864.98" r="14.4" fill="#008000" fill-rule="evenodd" fill-opacity="1" stroke="#000000" stroke-opacity="1" stroke-width="6.4"/>
<circle clip-path="url(#clip072)" cx="2002.72" cy="952.91" r="14.4" fill="#008000" fill-rule="evenodd" fill-opacity="1" stroke="#000000" stroke-opacity="1" stroke-width="6.4"/>
<circle clip-path="url(#clip072)" cx="2131.02" cy="1180.03" r="14.4" fill="#008000" fill-rule="evenodd" fill-opacity="1" stroke="#000000" stroke-opacity="1" stroke-width="6.4"/>
<circle clip-path="url(#clip072)" cx="2259.32" cy="1240.32" r="14.4" fill="#008000" fill-rule="evenodd" fill-opacity="1" stroke="#000000" stroke-opacity="1" stroke-width="6.4"/>
<polyline clip-path="url(#clip072)" style="stroke:#00008b; stroke-linecap:round; stroke-linejoin:round; stroke-width:8; stroke-opacity:1; fill:none" points="719.695,245.731 847.997,429.638 976.3,479.085 1104.6,512.876 1232.9,560.877 1361.21,599.544 1489.51,652.9 1617.81,706.809 1746.11,754.75 1874.42,796.154 2002.72,851.748 2131.02,905.676 2259.32,963.541 "/>
<path clip-path="url(#clip072)" d="M719.695 362.441 L847.997 537.856 L976.3 593.624 L1104.6 633.628 L1232.9 677.604 L1361.21 712.417 L1489.51 766.902 L1617.81 822.74 L1746.11 869.744 L1874.42 914.051 L2002.72 968.612 L2131.02 1029.17 L2259.32 1083.79 L2259.32 842.911 L2131.02 780.897 L2002.72 737.219 L1874.42 676.87 L1746.11 639.741 L1617.81 584.398 L1489.51 539.71 L1361.21 490.181 L1232.9 437.174 L1104.6 393.137 L976.3 363.151 L847.997 320.63 L719.695 127.862  Z" fill="#0000ff" fill-rule="evenodd" fill-opacity="0.1"/>
<polyline clip-path="url(#clip072)" style="stroke:#0000ff; stroke-linecap:round; stroke-linejoin:round; stroke-width:0; stroke-opacity:0.1; fill:none" points="719.695,362.441 847.997,537.856 976.3,593.624 1104.6,633.628 1232.9,677.604 1361.21,712.417 1489.51,766.902 1617.81,822.74 1746.11,869.744 1874.42,914.051 2002.72,968.612 2131.02,1029.17 2259.32,1083.79 "/>
</svg>
