<?xml version="1.0" encoding="utf-8"?>
<svg xmlns="http://www.w3.org/2000/svg" xmlns:xlink="http://www.w3.org/1999/xlink" width="600" height="400" viewBox="0 0 2400 1600">
<defs>
  <clipPath id="clip220">
    <rect x="0" y="0" width="2400" height="1600"/>
  </clipPath>
</defs>
<path clip-path="url(#clip220)" d="M0 1600 L2400 1600 L2400 0 L0 0  Z" fill="#ffffff" fill-rule="evenodd" fill-opacity="1"/>
<defs>
  <clipPath id="clip221">
    <rect x="480" y="0" width="1681" height="1600"/>
  </clipPath>
</defs>
<path clip-path="url(#clip220)" d="M673.506 1273.7 L2305.51 1273.7 L2305.51 94.4882 L673.506 94.4882  Z" fill="#ffffff" fill-rule="evenodd" fill-opacity="1"/>
<defs>
  <clipPath id="clip222">
    <rect x="673" y="94" width="1633" height="1180"/>
  </clipPath>
</defs>
<polyline clip-path="url(#clip222)" style="stroke:#000000; stroke-linecap:round; stroke-linejoin:round; stroke-width:4; stroke-opacity:0.1; fill:none" points="719.695,1273.7 719.695,94.4882 "/>
<polyline clip-path="url(#clip222)" style="stroke:#000000; stroke-linecap:round; stroke-linejoin:round; stroke-width:4; stroke-opacity:0.1; fill:none" points="1040.45,1273.7 1040.45,94.4882 "/>
<polyline clip-path="url(#clip222)" style="stroke:#000000; stroke-linecap:round; stroke-linejoin:round; stroke-width:4; stroke-opacity:0.1; fill:none" points="1361.21,1273.7 1361.21,94.4882 "/>
<polyline clip-path="url(#clip222)" style="stroke:#000000; stroke-linecap:round; stroke-linejoin:round; stroke-width:4; stroke-opacity:0.1; fill:none" points="1681.96,1273.7 1681.96,94.4882 "/>
<polyline clip-path="url(#clip222)" style="stroke:#000000; stroke-linecap:round; stroke-linejoin:round; stroke-width:4; stroke-opacity:0.1; fill:none" points="2002.72,1273.7 2002.72,94.4882 "/>
<polyline clip-path="url(#clip220)" style="stroke:#000000; stroke-linecap:round; stroke-linejoin:round; stroke-width:8; stroke-opacity:1; fill:none" points="673.506,1273.7 2305.51,1273.7 "/>
<polyline clip-path="url(#clip220)" style="stroke:#000000; stroke-linecap:round; stroke-linejoin:round; stroke-width:8; stroke-opacity:1; fill:none" points="719.695,1273.7 719.695,1254.8 "/>
<polyline clip-path="url(#clip220)" style="stroke:#000000; stroke-linecap:round; stroke-linejoin:round; stroke-width:8; stroke-opacity:1; fill:none" points="1040.45,1273.7 1040.45,1254.8 "/>
<polyline clip-path="url(#clip220)" style="stroke:#000000; stroke-linecap:round; stroke-linejoin:round; stroke-width:8; stroke-opacity:1; fill:none" points="1361.21,1273.7 1361.21,1254.8 "/>
<polyline clip-path="url(#clip220)" style="stroke:#000000; stroke-linecap:round; stroke-linejoin:round; stroke-width:8; stroke-opacity:1; fill:none" points="1681.96,1273.7 1681.96,1254.8 "/>
<polyline clip-path="url(#clip220)" style="stroke:#000000; stroke-linecap:round; stroke-linejoin:round; stroke-width:8; stroke-opacity:1; fill:none" points="2002.72,1273.7 2002.72,1254.8 "/>
<path clip-path="url(#clip220)" d="M644.302 1316.33 Q637.08 1316.33 633.422 1323.46 Q629.811 1330.55 629.811 1344.81 Q629.811 1359.02 633.422 1366.15 Q637.08 1373.23 644.302 1373.23 Q651.57 1373.23 655.181 1366.15 Q658.839 1359.02 658.839 1344.81 Q658.839 1330.55 655.181 1323.46 Q651.57 1316.33 644.302 1316.33 M644.302 1308.93 Q655.922 1308.93 662.033 1318.14 Q668.19 1327.31 668.19 1344.81 Q668.19 1362.26 662.033 1371.47 Q655.922 1380.64 644.302 1380.64 Q632.681 1380.64 626.524 1371.47 Q620.413 1362.26 620.413 1344.81 Q620.413 1327.31 626.524 1318.14 Q632.681 1308.93 644.302 1308.93 Z" fill="#000000" fill-rule="nonzero" fill-opacity="1" /><path clip-path="url(#clip220)" d="M684.626 1367.54 L694.394 1367.54 L694.394 1379.3 L684.626 1379.3 L684.626 1367.54 Z" fill="#000000" fill-rule="nonzero" fill-opacity="1" /><path clip-path="url(#clip220)" d="M734.764 1316.33 Q727.542 1316.33 723.885 1323.46 Q720.274 1330.55 720.274 1344.81 Q720.274 1359.02 723.885 1366.15 Q727.542 1373.23 734.764 1373.23 Q742.033 1373.23 745.644 1366.15 Q749.301 1359.02 749.301 1344.81 Q749.301 1330.55 745.644 1323.46 Q742.033 1316.33 734.764 1316.33 M734.764 1308.93 Q746.384 1308.93 752.496 1318.14 Q758.653 1327.31 758.653 1344.81 Q758.653 1362.26 752.496 1371.47 Q746.384 1380.64 734.764 1380.64 Q723.144 1380.64 716.986 1371.47 Q710.875 1362.26 710.875 1344.81 Q710.875 1327.31 716.986 1318.14 Q723.144 1308.93 734.764 1308.93 Z" fill="#000000" fill-rule="nonzero" fill-opacity="1" /><path clip-path="url(#clip220)" d="M795.088 1316.33 Q787.866 1316.33 784.208 1323.46 Q780.597 1330.55 780.597 1344.81 Q780.597 1359.02 784.208 1366.15 Q787.866 1373.23 795.088 1373.23 Q802.356 1373.23 805.967 1366.15 Q809.625 1359.02 809.625 1344.81 Q809.625 1330.55 805.967 1323.46 Q802.356 1316.33 795.088 1316.33 M795.088 1308.93 Q806.708 1308.93 812.819 1318.14 Q818.977 1327.31 818.977 1344.81 Q818.977 1362.26 812.819 1371.47 Q806.708 1380.64 795.088 1380.64 Q783.468 1380.64 777.31 1371.47 Q771.199 1362.26 771.199 1344.81 Q771.199 1327.31 777.31 1318.14 Q783.468 1308.93 795.088 1308.93 Z" fill="#000000" fill-rule="nonzero" fill-opacity="1" /><path clip-path="url(#clip220)" d="M966.053 1316.33 Q958.831 1316.33 955.173 1323.46 Q951.562 1330.55 951.562 1344.81 Q951.562 1359.02 955.173 1366.15 Q958.831 1373.23 966.053 1373.23 Q973.321 1373.23 976.932 1366.15 Q980.59 1359.02 980.59 1344.81 Q980.59 1330.55 976.932 1323.46 Q973.321 1316.33 966.053 1316.33 M966.053 1308.93 Q977.673 1308.93 983.784 1318.14 Q989.942 1327.31 989.942 1344.81 Q989.942 1362.26 983.784 1371.47 Q977.673 1380.64 966.053 1380.64 Q954.433 1380.64 948.275 1371.47 Q942.164 1362.26 942.164 1344.81 Q942.164 1327.31 948.275 1318.14 Q954.433 1308.93 966.053 1308.93 Z" fill="#000000" fill-rule="nonzero" fill-opacity="1" /><path clip-path="url(#clip220)" d="M1006.38 1367.54 L1016.15 1367.54 L1016.15 1379.3 L1006.38 1379.3 L1006.38 1367.54 Z" fill="#000000" fill-rule="nonzero" fill-opacity="1" /><path clip-path="url(#clip220)" d="M1044.57 1371.43 L1077.21 1371.43 L1077.21 1379.3 L1033.32 1379.3 L1033.32 1371.43 Q1038.65 1365.92 1047.81 1356.66 Q1057.02 1347.35 1059.39 1344.67 Q1063.88 1339.62 1065.64 1336.15 Q1067.44 1332.63 1067.44 1329.25 Q1067.44 1323.74 1063.55 1320.27 Q1059.71 1316.8 1053.51 1316.8 Q1049.11 1316.8 1044.2 1318.32 Q1039.34 1319.85 1033.78 1322.95 L1033.78 1313.51 Q1039.43 1311.24 1044.34 1310.08 Q1049.25 1308.93 1053.32 1308.93 Q1064.06 1308.93 1070.45 1314.3 Q1076.84 1319.67 1076.84 1328.65 Q1076.84 1332.91 1075.22 1336.75 Q1073.64 1340.55 1069.43 1345.73 Q1068.27 1347.07 1062.07 1353.51 Q1055.87 1359.9 1044.57 1371.43 Z" fill="#000000" fill-rule="nonzero" fill-opacity="1" /><path clip-path="url(#clip220)" d="M1096.93 1310.18 L1133.64 1310.18 L1133.64 1318.05 L1105.5 1318.05 L1105.5 1334.99 Q1107.53 1334.3 1109.57 1333.97 Q1111.61 1333.6 1113.64 1333.6 Q1125.22 1333.6 1131.98 1339.94 Q1138.74 1346.29 1138.74 1357.12 Q1138.74 1368.28 1131.79 1374.48 Q1124.85 1380.64 1112.21 1380.64 Q1107.86 1380.64 1103.32 1379.9 Q1098.83 1379.16 1094.02 1377.68 L1094.02 1368.28 Q1098.18 1370.55 1102.63 1371.66 Q1107.07 1372.77 1112.02 1372.77 Q1120.03 1372.77 1124.71 1368.56 Q1129.39 1364.34 1129.39 1357.12 Q1129.39 1349.9 1124.71 1345.68 Q1120.03 1341.47 1112.02 1341.47 Q1108.27 1341.47 1104.52 1342.31 Q1100.82 1343.14 1096.93 1344.9 L1096.93 1310.18 Z" fill="#000000" fill-rule="nonzero" fill-opacity="1" /><path clip-path="url(#clip220)" d="M1285.81 1316.33 Q1278.59 1316.33 1274.93 1323.46 Q1271.32 1330.55 1271.32 1344.81 Q1271.32 1359.02 1274.93 1366.15 Q1278.59 1373.23 1285.81 1373.23 Q1293.08 1373.23 1296.69 1366.15 Q1300.35 1359.02 1300.35 1344.81 Q1300.35 1330.55 1296.69 1323.46 Q1293.08 1316.33 1285.81 1316.33 M1285.81 1308.93 Q1297.43 1308.93 1303.54 1318.14 Q1309.7 1327.31 1309.7 1344.81 Q1309.7 1362.26 1303.54 1371.47 Q1297.43 1380.64 1285.81 1380.64 Q1274.19 1380.64 1268.04 1371.47 Q1261.92 1362.26 1261.92 1344.81 Q1261.92 1327.31 1268.04 1318.14 Q1274.19 1308.93 1285.81 1308.93 Z" fill="#000000" fill-rule="nonzero" fill-opacity="1" /><path clip-path="url(#clip220)" d="M1326.14 1367.54 L1335.91 1367.54 L1335.91 1379.3 L1326.14 1379.3 L1326.14 1367.54 Z" fill="#000000" fill-rule="nonzero" fill-opacity="1" /><path clip-path="url(#clip220)" d="M1356.37 1310.18 L1393.08 1310.18 L1393.08 1318.05 L1364.93 1318.05 L1364.93 1334.99 Q1366.97 1334.3 1369.01 1333.97 Q1371.04 1333.6 1373.08 1333.6 Q1384.66 1333.6 1391.41 1339.94 Q1398.17 1346.29 1398.17 1357.12 Q1398.17 1368.28 1391.23 1374.48 Q1384.29 1380.64 1371.65 1380.64 Q1367.29 1380.64 1362.76 1379.9 Q1358.27 1379.16 1353.45 1377.68 L1353.45 1368.28 Q1357.62 1370.55 1362.06 1371.66 Q1366.51 1372.77 1371.46 1372.77 Q1379.47 1372.77 1384.15 1368.56 Q1388.82 1364.34 1388.82 1357.12 Q1388.82 1349.9 1384.15 1345.68 Q1379.47 1341.47 1371.46 1341.47 Q1367.71 1341.47 1363.96 1342.31 Q1360.26 1343.14 1356.37 1344.9 L1356.37 1310.18 Z" fill="#000000" fill-rule="nonzero" fill-opacity="1" /><path clip-path="url(#clip220)" d="M1436.6 1316.33 Q1429.38 1316.33 1425.72 1323.46 Q1422.11 1330.55 1422.11 1344.81 Q1422.11 1359.02 1425.72 1366.15 Q1429.38 1373.23 1436.6 1373.23 Q1443.87 1373.23 1447.48 1366.15 Q1451.14 1359.02 1451.14 1344.81 Q1451.14 1330.55 1447.48 1323.46 Q1443.87 1316.33 1436.6 1316.33 M1436.6 1308.93 Q1448.22 1308.93 1454.33 1318.14 Q1460.49 1327.31 1460.49 1344.81 Q1460.49 1362.26 1454.33 1371.47 Q1448.22 1380.64 1436.6 1380.64 Q1424.98 1380.64 1418.82 1371.47 Q1412.71 1362.26 1412.71 1344.81 Q1412.71 1327.31 1418.82 1318.14 Q1424.98 1308.93 1436.6 1308.93 Z" fill="#000000" fill-rule="nonzero" fill-opacity="1" /><path clip-path="url(#clip220)" d="M1607.56 1316.33 Q1600.34 1316.33 1596.69 1323.46 Q1593.07 1330.55 1593.07 1344.81 Q1593.07 1359.02 1596.69 1366.15 Q1600.34 1373.23 1607.56 1373.23 Q1614.83 1373.23 1618.44 1366.15 Q1622.1 1359.02 1622.1 1344.81 Q1622.1 1330.55 1618.44 1323.46 Q1614.83 1316.33 1607.56 1316.33 M1607.56 1308.93 Q1619.18 1308.93 1625.3 1318.14 Q1631.45 1327.31 1631.45 1344.81 Q1631.45 1362.26 1625.3 1371.47 Q1619.18 1380.64 1607.56 1380.64 Q1595.94 1380.64 1589.79 1371.47 Q1583.68 1362.26 1583.68 1344.81 Q1583.68 1327.31 1589.79 1318.14 Q1595.94 1308.93 1607.56 1308.93 Z" fill="#000000" fill-rule="nonzero" fill-opacity="1" /><path clip-path="url(#clip220)" d="M1647.89 1367.54 L1657.66 1367.54 L1657.66 1379.3 L1647.89 1379.3 L1647.89 1367.54 Z" fill="#000000" fill-rule="nonzero" fill-opacity="1" /><path clip-path="url(#clip220)" d="M1675.67 1310.18 L1720.11 1310.18 L1720.11 1314.16 L1695.02 1379.3 L1685.25 1379.3 L1708.86 1318.05 L1675.67 1318.05 L1675.67 1310.18 Z" fill="#000000" fill-rule="nonzero" fill-opacity="1" /><path clip-path="url(#clip220)" d="M1738.44 1310.18 L1775.16 1310.18 L1775.16 1318.05 L1747.01 1318.05 L1747.01 1334.99 Q1749.05 1334.3 1751.08 1333.97 Q1753.12 1333.6 1755.16 1333.6 Q1766.73 1333.6 1773.49 1339.94 Q1780.25 1346.29 1780.25 1357.12 Q1780.25 1368.28 1773.3 1374.48 Q1766.36 1380.64 1753.72 1380.64 Q1749.37 1380.64 1744.83 1379.9 Q1740.34 1379.16 1735.53 1377.68 L1735.53 1368.28 Q1739.69 1370.55 1744.14 1371.66 Q1748.58 1372.77 1753.54 1372.77 Q1761.55 1372.77 1766.22 1368.56 Q1770.9 1364.34 1770.9 1357.12 Q1770.9 1349.9 1766.22 1345.68 Q1761.55 1341.47 1753.54 1341.47 Q1749.79 1341.47 1746.04 1342.31 Q1742.33 1343.14 1738.44 1344.9 L1738.44 1310.18 Z" fill="#000000" fill-rule="nonzero" fill-opacity="1" /><path clip-path="url(#clip220)" d="M1906.86 1371.43 L1922.14 1371.43 L1922.14 1318.69 L1905.52 1322.03 L1905.52 1313.51 L1922.05 1310.18 L1931.4 1310.18 L1931.4 1371.43 L1946.68 1371.43 L1946.68 1379.3 L1906.86 1379.3 L1906.86 1371.43 Z" fill="#000000" fill-rule="nonzero" fill-opacity="1" /><path clip-path="url(#clip220)" d="M1965.57 1367.54 L1975.33 1367.54 L1975.33 1379.3 L1965.57 1379.3 L1965.57 1367.54 Z" fill="#000000" fill-rule="nonzero" fill-opacity="1" /><path clip-path="url(#clip220)" d="M2015.7 1316.33 Q2008.48 1316.33 2004.82 1323.46 Q2001.21 1330.55 2001.21 1344.81 Q2001.21 1359.02 2004.82 1366.15 Q2008.48 1373.23 2015.7 1373.23 Q2022.97 1373.23 2026.58 1366.15 Q2030.24 1359.02 2030.24 1344.81 Q2030.24 1330.55 2026.58 1323.46 Q2022.97 1316.33 2015.7 1316.33 M2015.7 1308.93 Q2027.32 1308.93 2033.44 1318.14 Q2039.59 1327.31 2039.59 1344.81 Q2039.59 1362.26 2033.44 1371.47 Q2027.32 1380.64 2015.7 1380.64 Q2004.08 1380.64 1997.93 1371.47 Q1991.82 1362.26 1991.82 1344.81 Q1991.82 1327.31 1997.93 1318.14 Q2004.08 1308.93 2015.7 1308.93 Z" fill="#000000" fill-rule="nonzero" fill-opacity="1" /><path clip-path="url(#clip220)" d="M2076.03 1316.33 Q2068.81 1316.33 2065.15 1323.46 Q2061.54 1330.55 2061.54 1344.81 Q2061.54 1359.02 2065.15 1366.15 Q2068.81 1373.23 2076.03 1373.23 Q2083.3 1373.23 2086.91 1366.15 Q2090.57 1359.02 2090.57 1344.81 Q2090.57 1330.55 2086.91 1323.46 Q2083.3 1316.33 2076.03 1316.33 M2076.03 1308.93 Q2087.65 1308.93 2093.76 1318.14 Q2099.92 1327.31 2099.92 1344.81 Q2099.92 1362.26 2093.76 1371.47 Q2087.65 1380.64 2076.03 1380.64 Q2064.41 1380.64 2058.25 1371.47 Q2052.14 1362.26 2052.14 1344.81 Q2052.14 1327.31 2058.25 1318.14 Q2064.41 1308.93 2076.03 1308.93 Z" fill="#000000" fill-rule="nonzero" fill-opacity="1" /><path clip-path="url(#clip220)" d="M1375.05 1484.39 L1375.05 1527.42 L1363.34 1527.42 L1363.34 1484.77 Q1363.34 1474.65 1359.39 1469.62 Q1355.45 1464.59 1347.55 1464.59 Q1338.07 1464.59 1332.59 1470.64 Q1327.12 1476.69 1327.12 1487.13 L1327.12 1527.42 L1315.34 1527.42 L1315.34 1428.37 L1327.12 1428.37 L1327.12 1467.2 Q1331.32 1460.77 1336.99 1457.59 Q1342.72 1454.41 1350.16 1454.41 Q1362.45 1454.41 1368.75 1462.05 Q1375.05 1469.62 1375.05 1484.39 Z" fill="#000000" fill-rule="nonzero" fill-opacity="1" /><path clip-path="url(#clip220)" d="M1426.04 1464.34 Q1416.62 1464.34 1411.15 1471.72 Q1405.67 1479.04 1405.67 1491.84 Q1405.67 1504.63 1411.08 1512.02 Q1416.56 1519.34 1426.04 1519.34 Q1435.4 1519.34 1440.87 1511.96 Q1446.35 1504.57 1446.35 1491.84 Q1446.35 1479.17 1440.87 1471.79 Q1435.4 1464.34 1426.04 1464.34 M1426.04 1454.41 Q1441.32 1454.41 1450.04 1464.34 Q1458.76 1474.27 1458.76 1491.84 Q1458.76 1509.35 1450.04 1519.34 Q1441.32 1529.27 1426.04 1529.27 Q1410.7 1529.27 1401.98 1519.34 Q1393.32 1509.35 1393.32 1491.84 Q1393.32 1474.27 1401.98 1464.34 Q1410.7 1454.41 1426.04 1454.41 Z" fill="#000000" fill-rule="nonzero" fill-opacity="1" /><path clip-path="url(#clip220)" d="M1476.97 1499.29 L1476.97 1456.13 L1488.68 1456.13 L1488.68 1498.84 Q1488.68 1508.96 1492.63 1514.06 Q1496.57 1519.08 1504.47 1519.08 Q1513.95 1519.08 1519.43 1513.04 Q1524.97 1506.99 1524.97 1496.55 L1524.97 1456.13 L1536.68 1456.13 L1536.68 1527.42 L1524.97 1527.42 L1524.97 1516.47 Q1520.7 1522.97 1515.04 1526.15 Q1509.43 1529.27 1501.99 1529.27 Q1489.7 1529.27 1483.33 1521.63 Q1476.97 1513.99 1476.97 1499.29 M1506.44 1454.41 L1506.44 1454.41 Z" fill="#000000" fill-rule="nonzero" fill-opacity="1" /><path clip-path="url(#clip220)" d="M1602.12 1467.08 Q1600.14 1465.93 1597.79 1465.42 Q1595.5 1464.85 1592.7 1464.85 Q1582.77 1464.85 1577.42 1471.34 Q1572.14 1477.77 1572.14 1489.87 L1572.14 1527.42 L1560.36 1527.42 L1560.36 1456.13 L1572.14 1456.13 L1572.14 1467.2 Q1575.83 1460.71 1581.75 1457.59 Q1587.67 1454.41 1596.13 1454.41 Q1597.34 1454.41 1598.81 1454.6 Q1600.27 1454.73 1602.05 1455.05 L1602.12 1467.08 Z" fill="#000000" fill-rule="nonzero" fill-opacity="1" /><path clip-path="url(#clip220)" d="M1659.86 1458.23 L1659.86 1469.3 Q1654.89 1466.76 1649.54 1465.49 Q1644.2 1464.21 1638.47 1464.21 Q1629.75 1464.21 1625.35 1466.89 Q1621.02 1469.56 1621.02 1474.91 Q1621.02 1478.98 1624.14 1481.34 Q1627.26 1483.63 1636.68 1485.73 L1640.69 1486.62 Q1653.17 1489.29 1658.39 1494.19 Q1663.67 1499.03 1663.67 1507.75 Q1663.67 1517.68 1655.78 1523.48 Q1647.95 1529.27 1634.2 1529.27 Q1628.47 1529.27 1622.23 1528.12 Q1616.06 1527.04 1609.18 1524.81 L1609.18 1512.72 Q1615.68 1516.09 1621.98 1517.81 Q1628.28 1519.47 1634.46 1519.47 Q1642.73 1519.47 1647.19 1516.67 Q1651.64 1513.8 1651.64 1508.64 Q1651.64 1503.87 1648.4 1501.32 Q1645.21 1498.78 1634.33 1496.42 L1630.25 1495.47 Q1619.37 1493.18 1614.53 1488.47 Q1609.69 1483.69 1609.69 1475.42 Q1609.69 1465.36 1616.82 1459.88 Q1623.95 1454.41 1637.07 1454.41 Q1643.56 1454.41 1649.29 1455.36 Q1655.02 1456.32 1659.86 1458.23 Z" fill="#000000" fill-rule="nonzero" fill-opacity="1" /><polyline clip-path="url(#clip222)" style="stroke:#000000; stroke-linecap:round; stroke-linejoin:round; stroke-width:4; stroke-opacity:0.1; fill:none" points="673.506,1150.49 2305.51,1150.49 "/>
<polyline clip-path="url(#clip222)" style="stroke:#000000; stroke-linecap:round; stroke-linejoin:round; stroke-width:4; stroke-opacity:0.1; fill:none" points="673.506,990.483 2305.51,990.483 "/>
<polyline clip-path="url(#clip222)" style="stroke:#000000; stroke-linecap:round; stroke-linejoin:round; stroke-width:4; stroke-opacity:0.1; fill:none" points="673.506,830.478 2305.51,830.478 "/>
<polyline clip-path="url(#clip222)" style="stroke:#000000; stroke-linecap:round; stroke-linejoin:round; stroke-width:4; stroke-opacity:0.1; fill:none" points="673.506,670.472 2305.51,670.472 "/>
<polyline clip-path="url(#clip222)" style="stroke:#000000; stroke-linecap:round; stroke-linejoin:round; stroke-width:4; stroke-opacity:0.1; fill:none" points="673.506,510.466 2305.51,510.466 "/>
<polyline clip-path="url(#clip222)" style="stroke:#000000; stroke-linecap:round; stroke-linejoin:round; stroke-width:4; stroke-opacity:0.1; fill:none" points="673.506,350.46 2305.51,350.46 "/>
<polyline clip-path="url(#clip222)" style="stroke:#000000; stroke-linecap:round; stroke-linejoin:round; stroke-width:4; stroke-opacity:0.1; fill:none" points="673.506,190.455 2305.51,190.455 "/>
<polyline clip-path="url(#clip220)" style="stroke:#000000; stroke-linecap:round; stroke-linejoin:round; stroke-width:8; stroke-opacity:1; fill:none" points="673.506,1273.7 673.506,94.4882 "/>
<polyline clip-path="url(#clip220)" style="stroke:#000000; stroke-linecap:round; stroke-linejoin:round; stroke-width:8; stroke-opacity:1; fill:none" points="673.506,1150.49 692.404,1150.49 "/>
<polyline clip-path="url(#clip220)" style="stroke:#000000; stroke-linecap:round; stroke-linejoin:round; stroke-width:8; stroke-opacity:1; fill:none" points="673.506,990.483 692.404,990.483 "/>
<polyline clip-path="url(#clip220)" style="stroke:#000000; stroke-linecap:round; stroke-linejoin:round; stroke-width:8; stroke-opacity:1; fill:none" points="673.506,830.478 692.404,830.478 "/>
<polyline clip-path="url(#clip220)" style="stroke:#000000; stroke-linecap:round; stroke-linejoin:round; stroke-width:8; stroke-opacity:1; fill:none" points="673.506,670.472 692.404,670.472 "/>
<polyline clip-path="url(#clip220)" style="stroke:#000000; stroke-linecap:round; stroke-linejoin:round; stroke-width:8; stroke-opacity:1; fill:none" points="673.506,510.466 692.404,510.466 "/>
<polyline clip-path="url(#clip220)" style="stroke:#000000; stroke-linecap:round; stroke-linejoin:round; stroke-width:8; stroke-opacity:1; fill:none" points="673.506,350.46 692.404,350.46 "/>
<polyline clip-path="url(#clip220)" style="stroke:#000000; stroke-linecap:round; stroke-linejoin:round; stroke-width:8; stroke-opacity:1; fill:none" points="673.506,190.455 692.404,190.455 "/>
<path clip-path="url(#clip220)" d="M463.988 1146.76 Q457.692 1146.76 453.988 1151.07 Q450.331 1155.37 450.331 1162.87 Q450.331 1170.33 453.988 1174.68 Q457.692 1178.98 463.988 1178.98 Q470.285 1178.98 473.942 1174.68 Q477.646 1170.33 477.646 1162.87 Q477.646 1155.37 473.942 1151.07 Q470.285 1146.76 463.988 1146.76 M482.553 1117.46 L482.553 1125.98 Q479.035 1124.31 475.424 1123.43 Q471.859 1122.55 468.34 1122.55 Q459.081 1122.55 454.174 1128.8 Q449.313 1135.05 448.618 1147.69 Q451.35 1143.66 455.47 1141.53 Q459.59 1139.36 464.544 1139.36 Q474.961 1139.36 480.979 1145.7 Q487.044 1151.99 487.044 1162.87 Q487.044 1173.52 480.748 1179.96 Q474.451 1186.39 463.988 1186.39 Q451.998 1186.39 445.655 1177.23 Q439.313 1168.01 439.313 1150.56 Q439.313 1134.17 447.09 1124.45 Q454.868 1114.68 467.97 1114.68 Q471.488 1114.68 475.053 1115.37 Q478.664 1116.07 482.553 1117.46 Z" fill="#000000" fill-rule="nonzero" fill-opacity="1" /><path clip-path="url(#clip220)" d="M523.155 1122.09 Q515.933 1122.09 512.275 1129.22 Q508.664 1136.3 508.664 1150.56 Q508.664 1164.77 512.275 1171.9 Q515.933 1178.98 523.155 1178.98 Q530.423 1178.98 534.034 1171.9 Q537.692 1164.77 537.692 1150.56 Q537.692 1136.3 534.034 1129.22 Q530.423 1122.09 523.155 1122.09 M523.155 1114.68 Q534.775 1114.68 540.886 1123.89 Q547.043 1133.06 547.043 1150.56 Q547.043 1168.01 540.886 1177.23 Q534.775 1186.39 523.155 1186.39 Q511.534 1186.39 505.377 1177.23 Q499.266 1168.01 499.266 1150.56 Q499.266 1133.06 505.377 1123.89 Q511.534 1114.68 523.155 1114.68 Z" fill="#000000" fill-rule="nonzero" fill-opacity="1" /><path clip-path="url(#clip220)" d="M563.479 1173.29 L573.247 1173.29 L573.247 1185.05 L563.479 1185.05 L563.479 1173.29 Z" fill="#000000" fill-rule="nonzero" fill-opacity="1" /><path clip-path="url(#clip220)" d="M613.617 1122.09 Q606.395 1122.09 602.738 1129.22 Q599.127 1136.3 599.127 1150.56 Q599.127 1164.77 602.738 1171.9 Q606.395 1178.98 613.617 1178.98 Q620.886 1178.98 624.497 1171.9 Q628.154 1164.77 628.154 1150.56 Q628.154 1136.3 624.497 1129.22 Q620.886 1122.09 613.617 1122.09 M613.617 1114.68 Q625.238 1114.68 631.349 1123.89 Q637.506 1133.06 637.506 1150.56 Q637.506 1168.01 631.349 1177.23 Q625.238 1186.39 613.617 1186.39 Q601.997 1186.39 595.84 1177.23 Q589.728 1168.01 589.728 1150.56 Q589.728 1133.06 595.84 1123.89 Q601.997 1114.68 613.617 1114.68 Z" fill="#000000" fill-rule="nonzero" fill-opacity="1" /><path clip-path="url(#clip220)" d="M440.47 955.923 L484.914 955.923 L484.914 959.905 L459.822 1025.04 L450.053 1025.04 L473.664 963.794 L440.47 963.794 L440.47 955.923 Z" fill="#000000" fill-rule="nonzero" fill-opacity="1" /><path clip-path="url(#clip220)" d="M523.155 962.081 Q515.933 962.081 512.275 969.21 Q508.664 976.294 508.664 990.553 Q508.664 1004.77 512.275 1011.9 Q515.933 1018.98 523.155 1018.98 Q530.423 1018.98 534.034 1011.9 Q537.692 1004.77 537.692 990.553 Q537.692 976.294 534.034 969.21 Q530.423 962.081 523.155 962.081 M523.155 954.673 Q534.775 954.673 540.886 963.886 Q547.043 973.053 547.043 990.553 Q547.043 1008.01 540.886 1017.22 Q534.775 1026.39 523.155 1026.39 Q511.534 1026.39 505.377 1017.22 Q499.266 1008.01 499.266 990.553 Q499.266 973.053 505.377 963.886 Q511.534 954.673 523.155 954.673 Z" fill="#000000" fill-rule="nonzero" fill-opacity="1" /><path clip-path="url(#clip220)" d="M563.479 1013.28 L573.247 1013.28 L573.247 1025.04 L563.479 1025.04 L563.479 1013.28 Z" fill="#000000" fill-rule="nonzero" fill-opacity="1" /><path clip-path="url(#clip220)" d="M613.617 962.081 Q606.395 962.081 602.738 969.21 Q599.127 976.294 599.127 990.553 Q599.127 1004.77 602.738 1011.9 Q606.395 1018.98 613.617 1018.98 Q620.886 1018.98 624.497 1011.9 Q628.154 1004.77 628.154 990.553 Q628.154 976.294 624.497 969.21 Q620.886 962.081 613.617 962.081 M613.617 954.673 Q625.238 954.673 631.349 963.886 Q637.506 973.053 637.506 990.553 Q637.506 1008.01 631.349 1017.22 Q625.238 1026.39 613.617 1026.39 Q601.997 1026.39 595.84 1017.22 Q589.728 1008.01 589.728 990.553 Q589.728 973.053 595.84 963.886 Q601.997 954.673 613.617 954.673 Z" fill="#000000" fill-rule="nonzero" fill-opacity="1" /><path clip-path="url(#clip220)" d="M462.831 832.214 Q456.164 832.214 452.322 835.779 Q448.525 839.343 448.525 845.593 Q448.525 851.843 452.322 855.408 Q456.164 858.973 462.831 858.973 Q469.498 858.973 473.34 855.408 Q477.183 851.797 477.183 845.593 Q477.183 839.343 473.34 835.779 Q469.544 832.214 462.831 832.214 M453.479 828.232 Q447.461 826.751 444.081 822.63 Q440.748 818.51 440.748 812.584 Q440.748 804.297 446.627 799.482 Q452.553 794.668 462.831 794.668 Q473.155 794.668 479.035 799.482 Q484.914 804.297 484.914 812.584 Q484.914 818.51 481.535 822.63 Q478.201 826.751 472.229 828.232 Q478.988 829.806 482.738 834.39 Q486.535 838.973 486.535 845.593 Q486.535 855.64 480.377 861.01 Q474.266 866.38 462.831 866.38 Q451.396 866.38 445.238 861.01 Q439.127 855.64 439.127 845.593 Q439.127 838.973 442.924 834.39 Q446.72 829.806 453.479 828.232 M450.053 813.464 Q450.053 818.834 453.387 821.843 Q456.766 824.853 462.831 824.853 Q468.849 824.853 472.229 821.843 Q475.655 818.834 475.655 813.464 Q475.655 808.094 472.229 805.084 Q468.849 802.075 462.831 802.075 Q456.766 802.075 453.387 805.084 Q450.053 808.094 450.053 813.464 Z" fill="#000000" fill-rule="nonzero" fill-opacity="1" /><path clip-path="url(#clip220)" d="M523.155 802.075 Q515.933 802.075 512.275 809.205 Q508.664 816.288 508.664 830.547 Q508.664 844.76 512.275 851.89 Q515.933 858.973 523.155 858.973 Q530.423 858.973 534.034 851.89 Q537.692 844.76 537.692 830.547 Q537.692 816.288 534.034 809.205 Q530.423 802.075 523.155 802.075 M523.155 794.668 Q534.775 794.668 540.886 803.881 Q547.043 813.047 547.043 830.547 Q547.043 848.001 540.886 857.214 Q534.775 866.38 523.155 866.38 Q511.534 866.38 505.377 857.214 Q499.266 848.001 499.266 830.547 Q499.266 813.047 505.377 803.881 Q511.534 794.668 523.155 794.668 Z" fill="#000000" fill-rule="nonzero" fill-opacity="1" /><path clip-path="url(#clip220)" d="M563.479 853.278 L573.247 853.278 L573.247 865.038 L563.479 865.038 L563.479 853.278 Z" fill="#000000" fill-rule="nonzero" fill-opacity="1" /><path clip-path="url(#clip220)" d="M613.617 802.075 Q606.395 802.075 602.738 809.205 Q599.127 816.288 599.127 830.547 Q599.127 844.76 602.738 851.89 Q606.395 858.973 613.617 858.973 Q620.886 858.973 624.497 851.89 Q628.154 844.76 628.154 830.547 Q628.154 816.288 624.497 809.205 Q620.886 802.075 613.617 802.075 M613.617 794.668 Q625.238 794.668 631.349 803.881 Q637.506 813.047 637.506 830.547 Q637.506 848.001 631.349 857.214 Q625.238 866.38 613.617 866.38 Q601.997 866.38 595.84 857.214 Q589.728 848.001 589.728 830.547 Q589.728 813.047 595.84 803.881 Q601.997 794.668 613.617 794.668 Z" fill="#000000" fill-rule="nonzero" fill-opacity="1" /><path clip-path="url(#clip220)" d="M443.109 703.597 L443.109 695.078 Q446.627 696.745 450.238 697.625 Q453.85 698.504 457.322 698.504 Q466.581 698.504 471.442 692.3 Q476.349 686.05 477.044 673.365 Q474.359 677.347 470.238 679.476 Q466.118 681.606 461.118 681.606 Q450.748 681.606 444.683 675.356 Q438.664 669.06 438.664 658.18 Q438.664 647.532 444.961 641.097 Q451.257 634.662 461.72 634.662 Q473.711 634.662 480.007 643.875 Q486.349 653.041 486.349 670.541 Q486.349 686.884 478.572 696.652 Q470.84 706.374 457.738 706.374 Q454.22 706.374 450.609 705.68 Q446.998 704.986 443.109 703.597 M461.72 674.291 Q468.016 674.291 471.674 669.986 Q475.377 665.68 475.377 658.18 Q475.377 650.727 471.674 646.421 Q468.016 642.069 461.72 642.069 Q455.424 642.069 451.72 646.421 Q448.063 650.727 448.063 658.18 Q448.063 665.68 451.72 669.986 Q455.424 674.291 461.72 674.291 Z" fill="#000000" fill-rule="nonzero" fill-opacity="1" /><path clip-path="url(#clip220)" d="M523.155 642.069 Q515.933 642.069 512.275 649.199 Q508.664 656.282 508.664 670.541 Q508.664 684.754 512.275 691.884 Q515.933 698.967 523.155 698.967 Q530.423 698.967 534.034 691.884 Q537.692 684.754 537.692 670.541 Q537.692 656.282 534.034 649.199 Q530.423 642.069 523.155 642.069 M523.155 634.662 Q534.775 634.662 540.886 643.875 Q547.043 653.041 547.043 670.541 Q547.043 687.995 540.886 697.208 Q534.775 706.374 523.155 706.374 Q511.534 706.374 505.377 697.208 Q499.266 687.995 499.266 670.541 Q499.266 653.041 505.377 643.875 Q511.534 634.662 523.155 634.662 Z" fill="#000000" fill-rule="nonzero" fill-opacity="1" /><path clip-path="url(#clip220)" d="M563.479 693.273 L573.247 693.273 L573.247 705.032 L563.479 705.032 L563.479 693.273 Z" fill="#000000" fill-rule="nonzero" fill-opacity="1" /><path clip-path="url(#clip220)" d="M613.617 642.069 Q606.395 642.069 602.738 649.199 Q599.127 656.282 599.127 670.541 Q599.127 684.754 602.738 691.884 Q606.395 698.967 613.617 698.967 Q620.886 698.967 624.497 691.884 Q628.154 684.754 628.154 670.541 Q628.154 656.282 624.497 649.199 Q620.886 642.069 613.617 642.069 M613.617 634.662 Q625.238 634.662 631.349 643.875 Q637.506 653.041 637.506 670.541 Q637.506 687.995 631.349 697.208 Q625.238 706.374 613.617 706.374 Q601.997 706.374 595.84 697.208 Q589.728 687.995 589.728 670.541 Q589.728 653.041 595.84 643.875 Q601.997 634.662 613.617 634.662 Z" fill="#000000" fill-rule="nonzero" fill-opacity="1" /><path clip-path="url(#clip220)" d="M384.128 537.156 L399.405 537.156 L399.405 484.425 L382.785 487.758 L382.785 479.239 L399.313 475.906 L408.665 475.906 L408.665 537.156 L423.942 537.156 L423.942 545.026 L384.128 545.026 L384.128 537.156 Z" fill="#000000" fill-rule="nonzero" fill-opacity="1" /><path clip-path="url(#clip220)" d="M462.831 482.063 Q455.609 482.063 451.951 489.193 Q448.34 496.276 448.34 510.536 Q448.34 524.748 451.951 531.878 Q455.609 538.961 462.831 538.961 Q470.099 538.961 473.711 531.878 Q477.368 524.748 477.368 510.536 Q477.368 496.276 473.711 489.193 Q470.099 482.063 462.831 482.063 M462.831 474.656 Q474.451 474.656 480.562 483.869 Q486.72 493.036 486.72 510.536 Q486.72 527.989 480.562 537.202 Q474.451 546.369 462.831 546.369 Q451.211 546.369 445.053 537.202 Q438.942 527.989 438.942 510.536 Q438.942 493.036 445.053 483.869 Q451.211 474.656 462.831 474.656 Z" fill="#000000" fill-rule="nonzero" fill-opacity="1" /><path clip-path="url(#clip220)" d="M523.155 482.063 Q515.933 482.063 512.275 489.193 Q508.664 496.276 508.664 510.536 Q508.664 524.748 512.275 531.878 Q515.933 538.961 523.155 538.961 Q530.423 538.961 534.034 531.878 Q537.692 524.748 537.692 510.536 Q537.692 496.276 534.034 489.193 Q530.423 482.063 523.155 482.063 M523.155 474.656 Q534.775 474.656 540.886 483.869 Q547.043 493.036 547.043 510.536 Q547.043 527.989 540.886 537.202 Q534.775 546.369 523.155 546.369 Q511.534 546.369 505.377 537.202 Q499.266 527.989 499.266 510.536 Q499.266 493.036 505.377 483.869 Q511.534 474.656 523.155 474.656 Z" fill="#000000" fill-rule="nonzero" fill-opacity="1" /><path clip-path="url(#clip220)" d="M563.479 533.267 L573.247 533.267 L573.247 545.026 L563.479 545.026 L563.479 533.267 Z" fill="#000000" fill-rule="nonzero" fill-opacity="1" /><path clip-path="url(#clip220)" d="M613.617 482.063 Q606.395 482.063 602.738 489.193 Q599.127 496.276 599.127 510.536 Q599.127 524.748 602.738 531.878 Q606.395 538.961 613.617 538.961 Q620.886 538.961 624.497 531.878 Q628.154 524.748 628.154 510.536 Q628.154 496.276 624.497 489.193 Q620.886 482.063 613.617 482.063 M613.617 474.656 Q625.238 474.656 631.349 483.869 Q637.506 493.036 637.506 510.536 Q637.506 527.989 631.349 537.202 Q625.238 546.369 613.617 546.369 Q601.997 546.369 595.84 537.202 Q589.728 527.989 589.728 510.536 Q589.728 493.036 595.84 483.869 Q601.997 474.656 613.617 474.656 Z" fill="#000000" fill-rule="nonzero" fill-opacity="1" /><path clip-path="url(#clip220)" d="M384.128 377.15 L399.405 377.15 L399.405 324.419 L382.785 327.752 L382.785 319.234 L399.313 315.9 L408.665 315.9 L408.665 377.15 L423.942 377.15 L423.942 385.02 L384.128 385.02 L384.128 377.15 Z" fill="#000000" fill-rule="nonzero" fill-opacity="1" /><path clip-path="url(#clip220)" d="M444.451 377.15 L459.729 377.15 L459.729 324.419 L443.109 327.752 L443.109 319.234 L459.637 315.9 L468.988 315.9 L468.988 377.15 L484.266 377.15 L484.266 385.02 L444.451 385.02 L444.451 377.15 Z" fill="#000000" fill-rule="nonzero" fill-opacity="1" /><path clip-path="url(#clip220)" d="M523.155 322.058 Q515.933 322.058 512.275 329.187 Q508.664 336.271 508.664 350.53 Q508.664 364.743 512.275 371.872 Q515.933 378.956 523.155 378.956 Q530.423 378.956 534.034 371.872 Q537.692 364.743 537.692 350.53 Q537.692 336.271 534.034 329.187 Q530.423 322.058 523.155 322.058 M523.155 314.65 Q534.775 314.65 540.886 323.863 Q547.043 333.03 547.043 350.53 Q547.043 367.983 540.886 377.196 Q534.775 386.363 523.155 386.363 Q511.534 386.363 505.377 377.196 Q499.266 367.983 499.266 350.53 Q499.266 333.03 505.377 323.863 Q511.534 314.65 523.155 314.65 Z" fill="#000000" fill-rule="nonzero" fill-opacity="1" /><path clip-path="url(#clip220)" d="M563.479 373.261 L573.247 373.261 L573.247 385.02 L563.479 385.02 L563.479 373.261 Z" fill="#000000" fill-rule="nonzero" fill-opacity="1" /><path clip-path="url(#clip220)" d="M613.617 322.058 Q606.395 322.058 602.738 329.187 Q599.127 336.271 599.127 350.53 Q599.127 364.743 602.738 371.872 Q606.395 378.956 613.617 378.956 Q620.886 378.956 624.497 371.872 Q628.154 364.743 628.154 350.53 Q628.154 336.271 624.497 329.187 Q620.886 322.058 613.617 322.058 M613.617 314.65 Q625.238 314.65 631.349 323.863 Q637.506 333.03 637.506 350.53 Q637.506 367.983 631.349 377.196 Q625.238 386.363 613.617 386.363 Q601.997 386.363 595.84 377.196 Q589.728 367.983 589.728 350.53 Q589.728 333.03 595.84 323.863 Q601.997 314.65 613.617 314.65 Z" fill="#000000" fill-rule="nonzero" fill-opacity="1" /><path clip-path="url(#clip220)" d="M384.128 217.144 L399.405 217.144 L399.405 164.413 L382.785 167.746 L382.785 159.228 L399.313 155.895 L408.665 155.895 L408.665 217.144 L423.942 217.144 L423.942 225.015 L384.128 225.015 L384.128 217.144 Z" fill="#000000" fill-rule="nonzero" fill-opacity="1" /><path clip-path="url(#clip220)" d="M450.887 217.144 L483.525 217.144 L483.525 225.015 L439.637 225.015 L439.637 217.144 Q444.961 211.635 454.127 202.376 Q463.34 193.07 465.701 190.385 Q470.192 185.339 471.951 181.867 Q473.757 178.348 473.757 174.969 Q473.757 169.459 469.868 165.987 Q466.025 162.515 459.822 162.515 Q455.424 162.515 450.516 164.043 Q445.655 165.57 440.1 168.672 L440.1 159.228 Q445.748 156.959 450.655 155.802 Q455.562 154.645 459.637 154.645 Q470.377 154.645 476.766 160.015 Q483.155 165.385 483.155 174.367 Q483.155 178.626 481.535 182.468 Q479.961 186.265 475.748 191.45 Q474.59 192.793 468.387 199.228 Q462.183 205.617 450.887 217.144 Z" fill="#000000" fill-rule="nonzero" fill-opacity="1" /><path clip-path="url(#clip220)" d="M523.155 162.052 Q515.933 162.052 512.275 169.182 Q508.664 176.265 508.664 190.524 Q508.664 204.737 512.275 211.866 Q515.933 218.95 523.155 218.95 Q530.423 218.95 534.034 211.866 Q537.692 204.737 537.692 190.524 Q537.692 176.265 534.034 169.182 Q530.423 162.052 523.155 162.052 M523.155 154.645 Q534.775 154.645 540.886 163.857 Q547.043 173.024 547.043 190.524 Q547.043 207.978 540.886 217.191 Q534.775 226.357 523.155 226.357 Q511.534 226.357 505.377 217.191 Q499.266 207.978 499.266 190.524 Q499.266 173.024 505.377 163.857 Q511.534 154.645 523.155 154.645 Z" fill="#000000" fill-rule="nonzero" fill-opacity="1" /><path clip-path="url(#clip220)" d="M563.479 213.255 L573.247 213.255 L573.247 225.015 L563.479 225.015 L563.479 213.255 Z" fill="#000000" fill-rule="nonzero" fill-opacity="1" /><path clip-path="url(#clip220)" d="M613.617 162.052 Q606.395 162.052 602.738 169.182 Q599.127 176.265 599.127 190.524 Q599.127 204.737 602.738 211.866 Q606.395 218.95 613.617 218.95 Q620.886 218.95 624.497 211.866 Q628.154 204.737 628.154 190.524 Q628.154 176.265 624.497 169.182 Q620.886 162.052 613.617 162.052 M613.617 154.645 Q625.238 154.645 631.349 163.857 Q637.506 173.024 637.506 190.524 Q637.506 207.978 631.349 217.191 Q625.238 226.357 613.617 226.357 Q601.997 226.357 595.84 217.191 Q589.728 207.978 589.728 190.524 Q589.728 173.024 595.84 163.857 Q601.997 154.645 613.617 154.645 Z" fill="#000000" fill-rule="nonzero" fill-opacity="1" /><path clip-path="url(#clip220)" d="M307.579 931.4 L345.391 931.4 L345.391 943.176 L246.977 943.176 L246.977 931.4 L257.799 931.4 Q251.433 927.708 248.378 922.106 Q245.258 916.44 245.258 908.61 Q245.258 895.624 255.571 887.54 Q265.883 879.392 282.689 879.392 Q299.494 879.392 309.807 887.54 Q320.119 895.624 320.119 908.61 Q320.119 916.44 317.064 922.106 Q313.944 927.708 307.579 931.4 M282.689 891.55 Q269.766 891.55 262.446 896.898 Q255.062 902.181 255.062 911.475 Q255.062 920.769 262.446 926.116 Q269.766 931.4 282.689 931.4 Q295.611 931.4 302.995 926.116 Q310.316 920.769 310.316 911.475 Q310.316 902.181 302.995 896.898 Q295.611 891.55 282.689 891.55 Z" fill="#000000" fill-rule="nonzero" fill-opacity="1" /><path clip-path="url(#clip220)" d="M282.434 827.575 Q282.434 841.771 285.681 847.245 Q288.927 852.72 296.757 852.72 Q302.995 852.72 306.688 848.645 Q310.316 844.508 310.316 837.442 Q310.316 827.702 303.441 821.846 Q296.502 815.926 285.044 815.926 L282.434 815.926 L282.434 827.575 M277.596 804.213 L318.273 804.213 L318.273 815.926 L307.451 815.926 Q313.944 819.936 317.064 825.92 Q320.119 831.904 320.119 840.561 Q320.119 851.51 314.008 858.003 Q307.833 864.432 297.521 864.432 Q285.49 864.432 279.379 856.412 Q273.268 848.327 273.268 832.349 L273.268 815.926 L272.122 815.926 Q264.037 815.926 259.645 821.273 Q255.189 826.556 255.189 836.169 Q255.189 842.28 256.653 848.073 Q258.117 853.865 261.045 859.213 L250.224 859.213 Q247.741 852.783 246.532 846.736 Q245.258 840.688 245.258 834.959 Q245.258 819.491 253.279 811.852 Q261.3 804.213 277.596 804.213 Z" fill="#000000" fill-rule="nonzero" fill-opacity="1" /><path clip-path="url(#clip220)" d="M257.926 738.773 Q256.78 740.747 256.271 743.102 Q255.698 745.394 255.698 748.195 Q255.698 758.125 262.191 763.472 Q268.621 768.756 280.715 768.756 L318.273 768.756 L318.273 780.532 L246.977 780.532 L246.977 768.756 L258.054 768.756 Q251.561 765.064 248.441 759.144 Q245.258 753.224 245.258 744.757 Q245.258 743.548 245.449 742.084 Q245.577 740.619 245.895 738.837 L257.926 738.773 Z" fill="#000000" fill-rule="nonzero" fill-opacity="1" /><path clip-path="url(#clip220)" d="M279.697 668.369 L285.426 668.369 L285.426 722.223 Q297.521 721.459 303.887 714.966 Q310.189 708.409 310.189 696.76 Q310.189 690.012 308.534 683.71 Q306.878 677.344 303.568 671.106 L314.645 671.106 Q317.318 677.408 318.719 684.028 Q320.119 690.649 320.119 697.46 Q320.119 714.52 310.189 724.514 Q300.258 734.445 283.325 734.445 Q265.82 734.445 255.571 725.023 Q245.258 715.539 245.258 699.497 Q245.258 685.11 254.552 676.771 Q263.783 668.369 279.697 668.369 M276.259 680.082 Q266.647 680.209 260.918 685.492 Q255.189 690.712 255.189 699.37 Q255.189 709.173 260.727 715.093 Q266.265 720.949 276.323 721.841 L276.259 680.082 Z" fill="#000000" fill-rule="nonzero" fill-opacity="1" /><path clip-path="url(#clip220)" d="M275.241 589.88 L318.273 589.88 L318.273 601.592 L275.623 601.592 Q265.501 601.592 260.472 605.539 Q255.444 609.486 255.444 617.379 Q255.444 626.864 261.491 632.339 Q267.538 637.813 277.978 637.813 L318.273 637.813 L318.273 649.59 L246.977 649.59 L246.977 637.813 L258.054 637.813 Q251.624 633.612 248.441 627.946 Q245.258 622.217 245.258 614.769 Q245.258 602.484 252.897 596.182 Q260.472 589.88 275.241 589.88 Z" fill="#000000" fill-rule="nonzero" fill-opacity="1" /><path clip-path="url(#clip220)" d="M302.104 564.862 L302.104 551.431 L318.273 551.431 L318.273 564.862 L302.104 564.862 Z" fill="#000000" fill-rule="nonzero" fill-opacity="1" /><path clip-path="url(#clip220)" d="M307.451 479.753 L307.451 458.746 L234.946 458.746 L239.529 481.599 L227.816 481.599 L223.233 458.873 L223.233 446.015 L307.451 446.015 L307.451 425.008 L318.273 425.008 L318.273 479.753 L307.451 479.753 Z" fill="#000000" fill-rule="nonzero" fill-opacity="1" /><polyline clip-path="url(#clip222)" style="stroke:#008000; stroke-linecap:round; stroke-linejoin:round; stroke-width:8; stroke-opacity:1; fill:none" points="719.695,551.557 847.997,742.645 976.3,718.082 1104.6,788.724 1232.9,795.568 1361.21,909.646 1489.51,877.29 1617.81,955.648 1746.11,994.055 1874.42,1037.33 2002.72,1112.84 2131.02,1062.21 2259.32,1240.32 "/>
<circle clip-path="url(#clip222)" cx="719.695" cy="551.557" r="14.4" fill="#008000" fill-rule="evenodd" fill-opacity="1" stroke="#000000" stroke-opacity="1" stroke-width="6.4"/>
<circle clip-path="url(#clip222)" cx="847.997" cy="742.645" r="14.4" fill="#008000" fill-rule="evenodd" fill-opacity="1" stroke="#000000" stroke-opacity="1" stroke-width="6.4"/>
<circle clip-path="url(#clip222)" cx="976.3" cy="718.082" r="14.4" fill="#008000" fill-rule="evenodd" fill-opacity="1" stroke="#000000" stroke-opacity="1" stroke-width="6.4"/>
<circle clip-path="url(#clip222)" cx="1104.6" cy="788.724" r="14.4" fill="#008000" fill-rule="evenodd" fill-opacity="1" stroke="#000000" stroke-opacity="1" stroke-width="6.4"/>
<circle clip-path="url(#clip222)" cx="1232.9" cy="795.568" r="14.4" fill="#008000" fill-rule="evenodd" fill-opacity="1" stroke="#000000" stroke-opacity="1" stroke-width="6.4"/>
<circle clip-path="url(#clip222)" cx="1361.21" cy="909.646" r="14.4" fill="#008000" fill-rule="evenodd" fill-opacity="1" stroke="#000000" stroke-opacity="1" stroke-width="6.4"/>
<circle clip-path="url(#clip222)" cx="1489.51" cy="877.29" r="14.4" fill="#008000" fill-rule="evenodd" fill-opacity="1" stroke="#000000" stroke-opacity="1" stroke-width="6.4"/>
<circle clip-path="url(#clip222)" cx="1617.81" cy="955.648" r="14.4" fill="#008000" fill-rule="evenodd" fill-opacity="1" stroke="#000000" stroke-opacity="1" stroke-width="6.4"/>
<circle clip-path="url(#clip222)" cx="1746.11" cy="994.055" r="14.4" fill="#008000" fill-rule="evenodd" fill-opacity="1" stroke="#000000" stroke-opacity="1" stroke-width="6.4"/>
<circle clip-path="url(#clip222)" cx="1874.42" cy="1037.33" r="14.4" fill="#008000" fill-rule="evenodd" fill-opacity="1" stroke="#000000" stroke-opacity="1" stroke-width="6.4"/>
<circle clip-path="url(#clip222)" cx="2002.72" cy="1112.84" r="14.4" fill="#008000" fill-rule="evenodd" fill-opacity="1" stroke="#000000" stroke-opacity="1" stroke-width="6.4"/>
<circle clip-path="url(#clip222)" cx="2131.02" cy="1062.21" r="14.4" fill="#008000" fill-rule="evenodd" fill-opacity="1" stroke="#000000" stroke-opacity="1" stroke-width="6.4"/>
<circle clip-path="url(#clip222)" cx="2259.32" cy="1240.32" r="14.4" fill="#008000" fill-rule="evenodd" fill-opacity="1" stroke="#000000" stroke-opacity="1" stroke-width="6.4"/>
<polyline clip-path="url(#clip222)" style="stroke:#00008b; stroke-linecap:round; stroke-linejoin:round; stroke-width:8; stroke-opacity:1; fill:none" points="719.695,188.685 847.997,326.766 976.3,453.649 1104.6,558.319 1232.9,649.016 1361.21,724.968 1489.51,795.24 1617.81,858.759 1746.11,909.867 1874.42,955.998 2002.72,1013.15 2131.02,1052.02 2259.32,1095.45 "/>
<path clip-path="url(#clip222)" d="M719.695 250.667 L847.997 387.384 L976.3 515.248 L1104.6 619.984 L1232.9 708.389 L1361.21 786.853 L1489.51 859.292 L1617.81 921.548 L1746.11 972.845 L1874.42 1017.99 L2002.72 1074.63 L2131.02 1110.61 L2259.32 1156.1 L2259.32 1032.47 L2131.02 991.789 L2002.72 952.337 L1874.42 896.793 L1746.11 847.449 L1617.81 796.068 L1489.51 731.737 L1361.21 660.452 L1232.9 589.89 L1104.6 498.483 L976.3 390.652 L847.997 265.936 L719.695 127.862  Z" fill="#0000ff" fill-rule="evenodd" fill-opacity="0.1"/>
<polyline clip-path="url(#clip222)" style="stroke:#0000ff; stroke-linecap:round; stroke-linejoin:round; stroke-width:0; stroke-opacity:0.1; fill:none" points="719.695,250.667 847.997,387.384 976.3,515.248 1104.6,619.984 1232.9,708.389 1361.21,786.853 1489.51,859.292 1617.81,921.548 1746.11,972.845 1874.42,1017.99 2002.72,1074.63 2131.02,1110.61 2259.32,1156.1 "/>
</svg>
