<?xml version="1.0" encoding="utf-8"?>
<svg xmlns="http://www.w3.org/2000/svg" xmlns:xlink="http://www.w3.org/1999/xlink" width="600" height="400" viewBox="0 0 2400 1600">
<defs>
  <clipPath id="clip970">
    <rect x="0" y="0" width="2400" height="1600"/>
  </clipPath>
</defs>
<path clip-path="url(#clip970)" d="M0 1600 L2400 1600 L2400 0 L0 0  Z" fill="#ffffff" fill-rule="evenodd" fill-opacity="1"/>
<defs>
  <clipPath id="clip971">
    <rect x="480" y="0" width="1681" height="1600"/>
  </clipPath>
</defs>
<path clip-path="url(#clip970)" d="M680.45 1273.7 L2305.51 1273.7 L2305.51 94.4882 L680.45 94.4882  Z" fill="#ffffff" fill-rule="evenodd" fill-opacity="1"/>
<defs>
  <clipPath id="clip972">
    <rect x="680" y="94" width="1626" height="1180"/>
  </clipPath>
</defs>
<polyline clip-path="url(#clip972)" style="stroke:#000000; stroke-linecap:round; stroke-linejoin:round; stroke-width:4; stroke-opacity:0.1; fill:none" points="726.443,1273.7 726.443,94.4882 "/>
<polyline clip-path="url(#clip972)" style="stroke:#000000; stroke-linecap:round; stroke-linejoin:round; stroke-width:4; stroke-opacity:0.1; fill:none" points="1045.83,1273.7 1045.83,94.4882 "/>
<polyline clip-path="url(#clip972)" style="stroke:#000000; stroke-linecap:round; stroke-linejoin:round; stroke-width:4; stroke-opacity:0.1; fill:none" points="1365.22,1273.7 1365.22,94.4882 "/>
<polyline clip-path="url(#clip972)" style="stroke:#000000; stroke-linecap:round; stroke-linejoin:round; stroke-width:4; stroke-opacity:0.1; fill:none" points="1684.62,1273.7 1684.62,94.4882 "/>
<polyline clip-path="url(#clip972)" style="stroke:#000000; stroke-linecap:round; stroke-linejoin:round; stroke-width:4; stroke-opacity:0.1; fill:none" points="2004.01,1273.7 2004.01,94.4882 "/>
<polyline clip-path="url(#clip970)" style="stroke:#000000; stroke-linecap:round; stroke-linejoin:round; stroke-width:8; stroke-opacity:1; fill:none" points="680.45,1273.7 2305.51,1273.7 "/>
<polyline clip-path="url(#clip970)" style="stroke:#000000; stroke-linecap:round; stroke-linejoin:round; stroke-width:8; stroke-opacity:1; fill:none" points="726.443,1273.7 726.443,1254.8 "/>
<polyline clip-path="url(#clip970)" style="stroke:#000000; stroke-linecap:round; stroke-linejoin:round; stroke-width:8; stroke-opacity:1; fill:none" points="1045.83,1273.7 1045.83,1254.8 "/>
<polyline clip-path="url(#clip970)" style="stroke:#000000; stroke-linecap:round; stroke-linejoin:round; stroke-width:8; stroke-opacity:1; fill:none" points="1365.22,1273.7 1365.22,1254.8 "/>
<polyline clip-path="url(#clip970)" style="stroke:#000000; stroke-linecap:round; stroke-linejoin:round; stroke-width:8; stroke-opacity:1; fill:none" points="1684.62,1273.7 1684.62,1254.8 "/>
<polyline clip-path="url(#clip970)" style="stroke:#000000; stroke-linecap:round; stroke-linejoin:round; stroke-width:8; stroke-opacity:1; fill:none" points="2004.01,1273.7 2004.01,1254.8 "/>
<path clip-path="url(#clip970)" d="M651.05 1316.33 Q643.827 1316.33 640.17 1323.46 Q636.559 1330.55 636.559 1344.81 Q636.559 1359.02 640.17 1366.15 Q643.827 1373.23 651.05 1373.23 Q658.318 1373.23 661.929 1366.15 Q665.587 1359.02 665.587 1344.81 Q665.587 1330.55 661.929 1323.46 Q658.318 1316.33 651.05 1316.33 M651.05 1308.93 Q662.67 1308.93 668.781 1318.14 Q674.938 1327.31 674.938 1344.81 Q674.938 1362.26 668.781 1371.47 Q662.67 1380.64 651.05 1380.64 Q639.429 1380.64 633.272 1371.47 Q627.161 1362.26 627.161 1344.81 Q627.161 1327.31 633.272 1318.14 Q639.429 1308.93 651.05 1308.93 Z" fill="#000000" fill-rule="nonzero" fill-opacity="1" /><path clip-path="url(#clip970)" d="M691.373 1367.54 L701.142 1367.54 L701.142 1379.3 L691.373 1379.3 L691.373 1367.54 Z" fill="#000000" fill-rule="nonzero" fill-opacity="1" /><path clip-path="url(#clip970)" d="M741.512 1316.33 Q734.29 1316.33 730.632 1323.46 Q727.021 1330.55 727.021 1344.81 Q727.021 1359.02 730.632 1366.15 Q734.29 1373.23 741.512 1373.23 Q748.781 1373.23 752.392 1366.15 Q756.049 1359.02 756.049 1344.81 Q756.049 1330.55 752.392 1323.46 Q748.781 1316.33 741.512 1316.33 M741.512 1308.93 Q753.132 1308.93 759.243 1318.14 Q765.401 1327.31 765.401 1344.81 Q765.401 1362.26 759.243 1371.47 Q753.132 1380.64 741.512 1380.64 Q729.892 1380.64 723.734 1371.47 Q717.623 1362.26 717.623 1344.81 Q717.623 1327.31 723.734 1318.14 Q729.892 1308.93 741.512 1308.93 Z" fill="#000000" fill-rule="nonzero" fill-opacity="1" /><path clip-path="url(#clip970)" d="M801.836 1316.33 Q794.614 1316.33 790.956 1323.46 Q787.345 1330.55 787.345 1344.81 Q787.345 1359.02 790.956 1366.15 Q794.614 1373.23 801.836 1373.23 Q809.104 1373.23 812.715 1366.15 Q816.373 1359.02 816.373 1344.81 Q816.373 1330.55 812.715 1323.46 Q809.104 1316.33 801.836 1316.33 M801.836 1308.93 Q813.456 1308.93 819.567 1318.14 Q825.725 1327.31 825.725 1344.81 Q825.725 1362.26 819.567 1371.47 Q813.456 1380.64 801.836 1380.64 Q790.215 1380.64 784.058 1371.47 Q777.947 1362.26 777.947 1344.81 Q777.947 1327.31 784.058 1318.14 Q790.215 1308.93 801.836 1308.93 Z" fill="#000000" fill-rule="nonzero" fill-opacity="1" /><path clip-path="url(#clip970)" d="M971.436 1316.33 Q964.214 1316.33 960.556 1323.46 Q956.945 1330.55 956.945 1344.81 Q956.945 1359.02 960.556 1366.15 Q964.214 1373.23 971.436 1373.23 Q978.704 1373.23 982.316 1366.15 Q985.973 1359.02 985.973 1344.81 Q985.973 1330.55 982.316 1323.46 Q978.704 1316.33 971.436 1316.33 M971.436 1308.93 Q983.056 1308.93 989.167 1318.14 Q995.325 1327.31 995.325 1344.81 Q995.325 1362.26 989.167 1371.47 Q983.056 1380.64 971.436 1380.64 Q959.816 1380.64 953.658 1371.47 Q947.547 1362.26 947.547 1344.81 Q947.547 1327.31 953.658 1318.14 Q959.816 1308.93 971.436 1308.93 Z" fill="#000000" fill-rule="nonzero" fill-opacity="1" /><path clip-path="url(#clip970)" d="M1011.76 1367.54 L1021.53 1367.54 L1021.53 1379.3 L1011.76 1379.3 L1011.76 1367.54 Z" fill="#000000" fill-rule="nonzero" fill-opacity="1" /><path clip-path="url(#clip970)" d="M1049.95 1371.43 L1082.59 1371.43 L1082.59 1379.3 L1038.7 1379.3 L1038.7 1371.43 Q1044.03 1365.92 1053.19 1356.66 Q1062.41 1347.35 1064.77 1344.67 Q1069.26 1339.62 1071.02 1336.15 Q1072.82 1332.63 1072.82 1329.25 Q1072.82 1323.74 1068.94 1320.27 Q1065.09 1316.8 1058.89 1316.8 Q1054.49 1316.8 1049.58 1318.32 Q1044.72 1319.85 1039.17 1322.95 L1039.17 1313.51 Q1044.82 1311.24 1049.72 1310.08 Q1054.63 1308.93 1058.7 1308.93 Q1069.44 1308.93 1075.83 1314.3 Q1082.22 1319.67 1082.22 1328.65 Q1082.22 1332.91 1080.6 1336.75 Q1079.03 1340.55 1074.82 1345.73 Q1073.66 1347.07 1067.45 1353.51 Q1061.25 1359.9 1049.95 1371.43 Z" fill="#000000" fill-rule="nonzero" fill-opacity="1" /><path clip-path="url(#clip970)" d="M1102.31 1310.18 L1139.03 1310.18 L1139.03 1318.05 L1110.88 1318.05 L1110.88 1334.99 Q1112.92 1334.3 1114.95 1333.97 Q1116.99 1333.6 1119.03 1333.6 Q1130.6 1333.6 1137.36 1339.94 Q1144.12 1346.29 1144.12 1357.12 Q1144.12 1368.28 1137.18 1374.48 Q1130.23 1380.64 1117.59 1380.64 Q1113.24 1380.64 1108.7 1379.9 Q1104.21 1379.16 1099.4 1377.68 L1099.4 1368.28 Q1103.56 1370.55 1108.01 1371.66 Q1112.45 1372.77 1117.41 1372.77 Q1125.42 1372.77 1130.09 1368.56 Q1134.77 1364.34 1134.77 1357.12 Q1134.77 1349.9 1130.09 1345.68 Q1125.42 1341.47 1117.41 1341.47 Q1113.66 1341.47 1109.91 1342.31 Q1106.2 1343.14 1102.31 1344.9 L1102.31 1310.18 Z" fill="#000000" fill-rule="nonzero" fill-opacity="1" /><path clip-path="url(#clip970)" d="M1289.83 1316.33 Q1282.61 1316.33 1278.95 1323.46 Q1275.34 1330.55 1275.34 1344.81 Q1275.34 1359.02 1278.95 1366.15 Q1282.61 1373.23 1289.83 1373.23 Q1297.1 1373.23 1300.71 1366.15 Q1304.37 1359.02 1304.37 1344.81 Q1304.37 1330.55 1300.71 1323.46 Q1297.1 1316.33 1289.83 1316.33 M1289.83 1308.93 Q1301.45 1308.93 1307.56 1318.14 Q1313.72 1327.31 1313.72 1344.81 Q1313.72 1362.26 1307.56 1371.47 Q1301.45 1380.64 1289.83 1380.64 Q1278.21 1380.64 1272.05 1371.47 Q1265.94 1362.26 1265.94 1344.81 Q1265.94 1327.31 1272.05 1318.14 Q1278.21 1308.93 1289.83 1308.93 Z" fill="#000000" fill-rule="nonzero" fill-opacity="1" /><path clip-path="url(#clip970)" d="M1330.16 1367.54 L1339.92 1367.54 L1339.92 1379.3 L1330.16 1379.3 L1330.16 1367.54 Z" fill="#000000" fill-rule="nonzero" fill-opacity="1" /><path clip-path="url(#clip970)" d="M1360.39 1310.18 L1397.1 1310.18 L1397.1 1318.05 L1368.95 1318.05 L1368.95 1334.99 Q1370.99 1334.3 1373.03 1333.97 Q1375.06 1333.6 1377.1 1333.6 Q1388.67 1333.6 1395.43 1339.94 Q1402.19 1346.29 1402.19 1357.12 Q1402.19 1368.28 1395.25 1374.48 Q1388.3 1380.64 1375.66 1380.64 Q1371.31 1380.64 1366.78 1379.9 Q1362.28 1379.16 1357.47 1377.68 L1357.47 1368.28 Q1361.64 1370.55 1366.08 1371.66 Q1370.53 1372.77 1375.48 1372.77 Q1383.49 1372.77 1388.16 1368.56 Q1392.84 1364.34 1392.84 1357.12 Q1392.84 1349.9 1388.16 1345.68 Q1383.49 1341.47 1375.48 1341.47 Q1371.73 1341.47 1367.98 1342.31 Q1364.28 1343.14 1360.39 1344.9 L1360.39 1310.18 Z" fill="#000000" fill-rule="nonzero" fill-opacity="1" /><path clip-path="url(#clip970)" d="M1440.62 1316.33 Q1433.4 1316.33 1429.74 1323.46 Q1426.13 1330.55 1426.13 1344.81 Q1426.13 1359.02 1429.74 1366.15 Q1433.4 1373.23 1440.62 1373.23 Q1447.89 1373.23 1451.5 1366.15 Q1455.15 1359.02 1455.15 1344.81 Q1455.15 1330.55 1451.5 1323.46 Q1447.89 1316.33 1440.62 1316.33 M1440.62 1308.93 Q1452.24 1308.93 1458.35 1318.14 Q1464.51 1327.31 1464.51 1344.81 Q1464.51 1362.26 1458.35 1371.47 Q1452.24 1380.64 1440.62 1380.64 Q1429 1380.64 1422.84 1371.47 Q1416.73 1362.26 1416.73 1344.81 Q1416.73 1327.31 1422.84 1318.14 Q1429 1308.93 1440.62 1308.93 Z" fill="#000000" fill-rule="nonzero" fill-opacity="1" /><path clip-path="url(#clip970)" d="M1610.22 1316.33 Q1603 1316.33 1599.34 1323.46 Q1595.73 1330.55 1595.73 1344.81 Q1595.73 1359.02 1599.34 1366.15 Q1603 1373.23 1610.22 1373.23 Q1617.49 1373.23 1621.1 1366.15 Q1624.75 1359.02 1624.75 1344.81 Q1624.75 1330.55 1621.1 1323.46 Q1617.49 1316.33 1610.22 1316.33 M1610.22 1308.93 Q1621.84 1308.93 1627.95 1318.14 Q1634.11 1327.31 1634.11 1344.81 Q1634.11 1362.26 1627.95 1371.47 Q1621.84 1380.64 1610.22 1380.64 Q1598.6 1380.64 1592.44 1371.47 Q1586.33 1362.26 1586.33 1344.81 Q1586.33 1327.31 1592.44 1318.14 Q1598.6 1308.93 1610.22 1308.93 Z" fill="#000000" fill-rule="nonzero" fill-opacity="1" /><path clip-path="url(#clip970)" d="M1650.54 1367.54 L1660.31 1367.54 L1660.31 1379.3 L1650.54 1379.3 L1650.54 1367.54 Z" fill="#000000" fill-rule="nonzero" fill-opacity="1" /><path clip-path="url(#clip970)" d="M1678.32 1310.18 L1722.76 1310.18 L1722.76 1314.16 L1697.67 1379.3 L1687.9 1379.3 L1711.51 1318.05 L1678.32 1318.05 L1678.32 1310.18 Z" fill="#000000" fill-rule="nonzero" fill-opacity="1" /><path clip-path="url(#clip970)" d="M1741.1 1310.18 L1777.81 1310.18 L1777.81 1318.05 L1749.66 1318.05 L1749.66 1334.99 Q1751.7 1334.3 1753.74 1333.97 Q1755.77 1333.6 1757.81 1333.6 Q1769.38 1333.6 1776.14 1339.94 Q1782.9 1346.29 1782.9 1357.12 Q1782.9 1368.28 1775.96 1374.48 Q1769.01 1380.64 1756.37 1380.64 Q1752.02 1380.64 1747.49 1379.9 Q1743 1379.16 1738.18 1377.68 L1738.18 1368.28 Q1742.35 1370.55 1746.79 1371.66 Q1751.24 1372.77 1756.19 1372.77 Q1764.2 1372.77 1768.87 1368.56 Q1773.55 1364.34 1773.55 1357.12 Q1773.55 1349.9 1768.87 1345.68 Q1764.2 1341.47 1756.19 1341.47 Q1752.44 1341.47 1748.69 1342.31 Q1744.99 1343.14 1741.1 1344.9 L1741.1 1310.18 Z" fill="#000000" fill-rule="nonzero" fill-opacity="1" /><path clip-path="url(#clip970)" d="M1908.15 1371.43 L1923.43 1371.43 L1923.43 1318.69 L1906.81 1322.03 L1906.81 1313.51 L1923.34 1310.18 L1932.69 1310.18 L1932.69 1371.43 L1947.97 1371.43 L1947.97 1379.3 L1908.15 1379.3 L1908.15 1371.43 Z" fill="#000000" fill-rule="nonzero" fill-opacity="1" /><path clip-path="url(#clip970)" d="M1966.85 1367.54 L1976.62 1367.54 L1976.62 1379.3 L1966.85 1379.3 L1966.85 1367.54 Z" fill="#000000" fill-rule="nonzero" fill-opacity="1" /><path clip-path="url(#clip970)" d="M2016.99 1316.33 Q2009.77 1316.33 2006.11 1323.46 Q2002.5 1330.55 2002.5 1344.81 Q2002.5 1359.02 2006.11 1366.15 Q2009.77 1373.23 2016.99 1373.23 Q2024.26 1373.23 2027.87 1366.15 Q2031.53 1359.02 2031.53 1344.81 Q2031.53 1330.55 2027.87 1323.46 Q2024.26 1316.33 2016.99 1316.33 M2016.99 1308.93 Q2028.61 1308.93 2034.72 1318.14 Q2040.88 1327.31 2040.88 1344.81 Q2040.88 1362.26 2034.72 1371.47 Q2028.61 1380.64 2016.99 1380.64 Q2005.37 1380.64 1999.22 1371.47 Q1993.1 1362.26 1993.1 1344.81 Q1993.1 1327.31 1999.22 1318.14 Q2005.37 1308.93 2016.99 1308.93 Z" fill="#000000" fill-rule="nonzero" fill-opacity="1" /><path clip-path="url(#clip970)" d="M2077.32 1316.33 Q2070.09 1316.33 2066.44 1323.46 Q2062.83 1330.55 2062.83 1344.81 Q2062.83 1359.02 2066.44 1366.15 Q2070.09 1373.23 2077.32 1373.23 Q2084.58 1373.23 2088.2 1366.15 Q2091.85 1359.02 2091.85 1344.81 Q2091.85 1330.55 2088.2 1323.46 Q2084.58 1316.33 2077.32 1316.33 M2077.32 1308.93 Q2088.94 1308.93 2095.05 1318.14 Q2101.21 1327.31 2101.21 1344.81 Q2101.21 1362.26 2095.05 1371.47 Q2088.94 1380.64 2077.32 1380.64 Q2065.7 1380.64 2059.54 1371.47 Q2053.43 1362.26 2053.43 1344.81 Q2053.43 1327.31 2059.54 1318.14 Q2065.7 1308.93 2077.32 1308.93 Z" fill="#000000" fill-rule="nonzero" fill-opacity="1" /><path clip-path="url(#clip970)" d="M1378.53 1484.39 L1378.53 1527.42 L1366.81 1527.42 L1366.81 1484.77 Q1366.81 1474.65 1362.87 1469.62 Q1358.92 1464.59 1351.03 1464.59 Q1341.54 1464.59 1336.07 1470.64 Q1330.59 1476.69 1330.59 1487.13 L1330.59 1527.42 L1318.82 1527.42 L1318.82 1428.37 L1330.59 1428.37 L1330.59 1467.2 Q1334.79 1460.77 1340.46 1457.59 Q1346.19 1454.41 1353.64 1454.41 Q1365.92 1454.41 1372.22 1462.05 Q1378.53 1469.62 1378.53 1484.39 Z" fill="#000000" fill-rule="nonzero" fill-opacity="1" /><path clip-path="url(#clip970)" d="M1429.51 1464.34 Q1420.09 1464.34 1414.62 1471.72 Q1409.14 1479.04 1409.14 1491.84 Q1409.14 1504.63 1414.56 1512.02 Q1420.03 1519.34 1429.51 1519.34 Q1438.87 1519.34 1444.35 1511.96 Q1449.82 1504.57 1449.82 1491.84 Q1449.82 1479.17 1444.35 1471.79 Q1438.87 1464.34 1429.51 1464.34 M1429.51 1454.41 Q1444.79 1454.41 1453.51 1464.34 Q1462.23 1474.27 1462.23 1491.84 Q1462.23 1509.35 1453.51 1519.34 Q1444.79 1529.27 1429.51 1529.27 Q1414.17 1529.27 1405.45 1519.34 Q1396.8 1509.35 1396.8 1491.84 Q1396.8 1474.27 1405.45 1464.34 Q1414.17 1454.41 1429.51 1454.41 Z" fill="#000000" fill-rule="nonzero" fill-opacity="1" /><path clip-path="url(#clip970)" d="M1480.44 1499.29 L1480.44 1456.13 L1492.15 1456.13 L1492.15 1498.84 Q1492.15 1508.96 1496.1 1514.06 Q1500.05 1519.08 1507.94 1519.08 Q1517.43 1519.08 1522.9 1513.04 Q1528.44 1506.99 1528.44 1496.55 L1528.44 1456.13 L1540.15 1456.13 L1540.15 1527.42 L1528.44 1527.42 L1528.44 1516.47 Q1524.17 1522.97 1518.51 1526.15 Q1512.91 1529.27 1505.46 1529.27 Q1493.17 1529.27 1486.81 1521.63 Q1480.44 1513.99 1480.44 1499.29 M1509.91 1454.41 L1509.91 1454.41 Z" fill="#000000" fill-rule="nonzero" fill-opacity="1" /><path clip-path="url(#clip970)" d="M1605.59 1467.08 Q1603.62 1465.93 1601.26 1465.42 Q1598.97 1464.85 1596.17 1464.85 Q1586.24 1464.85 1580.89 1471.34 Q1575.61 1477.77 1575.61 1489.87 L1575.61 1527.42 L1563.83 1527.42 L1563.83 1456.13 L1575.61 1456.13 L1575.61 1467.2 Q1579.3 1460.71 1585.22 1457.59 Q1591.14 1454.41 1599.61 1454.41 Q1600.82 1454.41 1602.28 1454.6 Q1603.74 1454.73 1605.53 1455.05 L1605.59 1467.08 Z" fill="#000000" fill-rule="nonzero" fill-opacity="1" /><path clip-path="url(#clip970)" d="M1663.33 1458.23 L1663.33 1469.3 Q1658.36 1466.76 1653.01 1465.49 Q1647.67 1464.21 1641.94 1464.21 Q1633.22 1464.21 1628.83 1466.89 Q1624.5 1469.56 1624.5 1474.91 Q1624.5 1478.98 1627.62 1481.34 Q1630.73 1483.63 1640.16 1485.73 L1644.17 1486.62 Q1656.64 1489.29 1661.86 1494.19 Q1667.15 1499.03 1667.15 1507.75 Q1667.15 1517.68 1659.25 1523.48 Q1651.42 1529.27 1637.67 1529.27 Q1631.94 1529.27 1625.71 1528.12 Q1619.53 1527.04 1612.66 1524.81 L1612.66 1512.72 Q1619.15 1516.09 1625.45 1517.81 Q1631.75 1519.47 1637.93 1519.47 Q1646.2 1519.47 1650.66 1516.67 Q1655.12 1513.8 1655.12 1508.64 Q1655.12 1503.87 1651.87 1501.32 Q1648.69 1498.78 1637.8 1496.42 L1633.73 1495.47 Q1622.84 1493.18 1618 1488.47 Q1613.17 1483.69 1613.17 1475.42 Q1613.17 1465.36 1620.3 1459.88 Q1627.42 1454.41 1640.54 1454.41 Q1647.03 1454.41 1652.76 1455.36 Q1658.49 1456.32 1663.33 1458.23 Z" fill="#000000" fill-rule="nonzero" fill-opacity="1" /><polyline clip-path="url(#clip972)" style="stroke:#000000; stroke-linecap:round; stroke-linejoin:round; stroke-width:4; stroke-opacity:0.1; fill:none" points="680.45,1170.24 2305.51,1170.24 "/>
<polyline clip-path="url(#clip972)" style="stroke:#000000; stroke-linecap:round; stroke-linejoin:round; stroke-width:4; stroke-opacity:0.1; fill:none" points="680.45,909.467 2305.51,909.467 "/>
<polyline clip-path="url(#clip972)" style="stroke:#000000; stroke-linecap:round; stroke-linejoin:round; stroke-width:4; stroke-opacity:0.1; fill:none" points="680.45,648.698 2305.51,648.698 "/>
<polyline clip-path="url(#clip972)" style="stroke:#000000; stroke-linecap:round; stroke-linejoin:round; stroke-width:4; stroke-opacity:0.1; fill:none" points="680.45,387.929 2305.51,387.929 "/>
<polyline clip-path="url(#clip972)" style="stroke:#000000; stroke-linecap:round; stroke-linejoin:round; stroke-width:4; stroke-opacity:0.1; fill:none" points="680.45,127.159 2305.51,127.159 "/>
<polyline clip-path="url(#clip970)" style="stroke:#000000; stroke-linecap:round; stroke-linejoin:round; stroke-width:8; stroke-opacity:1; fill:none" points="680.45,1273.7 680.45,94.4882 "/>
<polyline clip-path="url(#clip970)" style="stroke:#000000; stroke-linecap:round; stroke-linejoin:round; stroke-width:8; stroke-opacity:1; fill:none" points="680.45,1170.24 699.348,1170.24 "/>
<polyline clip-path="url(#clip970)" style="stroke:#000000; stroke-linecap:round; stroke-linejoin:round; stroke-width:8; stroke-opacity:1; fill:none" points="680.45,909.467 699.348,909.467 "/>
<polyline clip-path="url(#clip970)" style="stroke:#000000; stroke-linecap:round; stroke-linejoin:round; stroke-width:8; stroke-opacity:1; fill:none" points="680.45,648.698 699.348,648.698 "/>
<polyline clip-path="url(#clip970)" style="stroke:#000000; stroke-linecap:round; stroke-linejoin:round; stroke-width:8; stroke-opacity:1; fill:none" points="680.45,387.929 699.348,387.929 "/>
<polyline clip-path="url(#clip970)" style="stroke:#000000; stroke-linecap:round; stroke-linejoin:round; stroke-width:8; stroke-opacity:1; fill:none" points="680.45,127.159 699.348,127.159 "/>
<path clip-path="url(#clip970)" d="M391.072 1196.93 L406.35 1196.93 L406.35 1144.2 L389.73 1147.53 L389.73 1139.01 L406.257 1135.68 L415.609 1135.68 L415.609 1196.93 L430.887 1196.93 L430.887 1204.8 L391.072 1204.8 L391.072 1196.93 Z" fill="#000000" fill-rule="nonzero" fill-opacity="1" /><path clip-path="url(#clip970)" d="M469.775 1141.83 Q462.553 1141.83 458.896 1148.96 Q455.285 1156.05 455.285 1170.31 Q455.285 1184.52 458.896 1191.65 Q462.553 1198.73 469.775 1198.73 Q477.044 1198.73 480.655 1191.65 Q484.312 1184.52 484.312 1170.31 Q484.312 1156.05 480.655 1148.96 Q477.044 1141.83 469.775 1141.83 M469.775 1134.43 Q481.396 1134.43 487.507 1143.64 Q493.664 1152.81 493.664 1170.31 Q493.664 1187.76 487.507 1196.97 Q481.396 1206.14 469.775 1206.14 Q458.155 1206.14 451.998 1196.97 Q445.887 1187.76 445.887 1170.31 Q445.887 1152.81 451.998 1143.64 Q458.155 1134.43 469.775 1134.43 Z" fill="#000000" fill-rule="nonzero" fill-opacity="1" /><path clip-path="url(#clip970)" d="M530.099 1141.83 Q522.877 1141.83 519.22 1148.96 Q515.608 1156.05 515.608 1170.31 Q515.608 1184.52 519.22 1191.65 Q522.877 1198.73 530.099 1198.73 Q537.368 1198.73 540.979 1191.65 Q544.636 1184.52 544.636 1170.31 Q544.636 1156.05 540.979 1148.96 Q537.368 1141.83 530.099 1141.83 M530.099 1134.43 Q541.719 1134.43 547.831 1143.64 Q553.988 1152.81 553.988 1170.31 Q553.988 1187.76 547.831 1196.97 Q541.719 1206.14 530.099 1206.14 Q518.479 1206.14 512.321 1196.97 Q506.21 1187.76 506.21 1170.31 Q506.21 1152.81 512.321 1143.64 Q518.479 1134.43 530.099 1134.43 Z" fill="#000000" fill-rule="nonzero" fill-opacity="1" /><path clip-path="url(#clip970)" d="M570.423 1193.04 L580.191 1193.04 L580.191 1204.8 L570.423 1204.8 L570.423 1193.04 Z" fill="#000000" fill-rule="nonzero" fill-opacity="1" /><path clip-path="url(#clip970)" d="M620.562 1141.83 Q613.339 1141.83 609.682 1148.96 Q606.071 1156.05 606.071 1170.31 Q606.071 1184.52 609.682 1191.65 Q613.339 1198.73 620.562 1198.73 Q627.83 1198.73 631.441 1191.65 Q635.099 1184.52 635.099 1170.31 Q635.099 1156.05 631.441 1148.96 Q627.83 1141.83 620.562 1141.83 M620.562 1134.43 Q632.182 1134.43 638.293 1143.64 Q644.45 1152.81 644.45 1170.31 Q644.45 1187.76 638.293 1196.97 Q632.182 1206.14 620.562 1206.14 Q608.941 1206.14 602.784 1196.97 Q596.673 1187.76 596.673 1170.31 Q596.673 1152.81 602.784 1143.64 Q608.941 1134.43 620.562 1134.43 Z" fill="#000000" fill-rule="nonzero" fill-opacity="1" /><path clip-path="url(#clip970)" d="M391.072 936.157 L406.35 936.157 L406.35 883.426 L389.73 886.759 L389.73 878.241 L406.257 874.907 L415.609 874.907 L415.609 936.157 L430.887 936.157 L430.887 944.027 L391.072 944.027 L391.072 936.157 Z" fill="#000000" fill-rule="nonzero" fill-opacity="1" /><path clip-path="url(#clip970)" d="M457.831 936.157 L490.47 936.157 L490.47 944.027 L446.581 944.027 L446.581 936.157 Q451.905 930.648 461.072 921.388 Q470.285 912.083 472.646 909.398 Q477.136 904.352 478.896 900.879 Q480.701 897.361 480.701 893.981 Q480.701 888.472 476.812 885 Q472.97 881.528 466.766 881.528 Q462.368 881.528 457.461 883.055 Q452.6 884.583 447.044 887.685 L447.044 878.241 Q452.692 875.972 457.6 874.815 Q462.507 873.657 466.581 873.657 Q477.322 873.657 483.71 879.028 Q490.099 884.398 490.099 893.379 Q490.099 897.639 488.479 901.481 Q486.905 905.277 482.692 910.463 Q481.535 911.805 475.331 918.24 Q469.127 924.629 457.831 936.157 Z" fill="#000000" fill-rule="nonzero" fill-opacity="1" /><path clip-path="url(#clip970)" d="M510.192 874.907 L546.905 874.907 L546.905 882.778 L518.757 882.778 L518.757 899.722 Q520.794 899.027 522.831 898.703 Q524.868 898.333 526.905 898.333 Q538.479 898.333 545.238 904.676 Q551.997 911.018 551.997 921.851 Q551.997 933.009 545.053 939.212 Q538.108 945.37 525.47 945.37 Q521.118 945.37 516.581 944.629 Q512.09 943.888 507.275 942.407 L507.275 933.009 Q511.442 935.277 515.886 936.388 Q520.331 937.499 525.284 937.499 Q533.294 937.499 537.969 933.287 Q542.645 929.074 542.645 921.851 Q542.645 914.629 537.969 910.416 Q533.294 906.203 525.284 906.203 Q521.534 906.203 517.784 907.037 Q514.081 907.87 510.192 909.629 L510.192 874.907 Z" fill="#000000" fill-rule="nonzero" fill-opacity="1" /><path clip-path="url(#clip970)" d="M570.423 932.268 L580.191 932.268 L580.191 944.027 L570.423 944.027 L570.423 932.268 Z" fill="#000000" fill-rule="nonzero" fill-opacity="1" /><path clip-path="url(#clip970)" d="M620.562 881.065 Q613.339 881.065 609.682 888.194 Q606.071 895.277 606.071 909.537 Q606.071 923.75 609.682 930.879 Q613.339 937.962 620.562 937.962 Q627.83 937.962 631.441 930.879 Q635.099 923.75 635.099 909.537 Q635.099 895.277 631.441 888.194 Q627.83 881.065 620.562 881.065 M620.562 873.657 Q632.182 873.657 638.293 882.87 Q644.45 892.037 644.45 909.537 Q644.45 926.99 638.293 936.203 Q632.182 945.37 620.562 945.37 Q608.941 945.37 602.784 936.203 Q596.673 926.99 596.673 909.537 Q596.673 892.037 602.784 882.87 Q608.941 873.657 620.562 873.657 Z" fill="#000000" fill-rule="nonzero" fill-opacity="1" /><path clip-path="url(#clip970)" d="M391.072 675.388 L406.35 675.388 L406.35 622.656 L389.73 625.99 L389.73 617.471 L406.257 614.138 L415.609 614.138 L415.609 675.388 L430.887 675.388 L430.887 683.258 L391.072 683.258 L391.072 675.388 Z" fill="#000000" fill-rule="nonzero" fill-opacity="1" /><path clip-path="url(#clip970)" d="M449.868 614.138 L486.581 614.138 L486.581 622.008 L458.433 622.008 L458.433 638.953 Q460.47 638.258 462.507 637.934 Q464.544 637.564 466.581 637.564 Q478.155 637.564 484.914 643.906 Q491.673 650.249 491.673 661.082 Q491.673 672.239 484.729 678.443 Q477.785 684.6 465.146 684.6 Q460.794 684.6 456.257 683.86 Q451.766 683.119 446.951 681.638 L446.951 672.239 Q451.118 674.508 455.562 675.619 Q460.007 676.73 464.961 676.73 Q472.97 676.73 477.646 672.517 Q482.322 668.304 482.322 661.082 Q482.322 653.86 477.646 649.647 Q472.97 645.434 464.961 645.434 Q461.211 645.434 457.461 646.267 Q453.757 647.101 449.868 648.86 L449.868 614.138 Z" fill="#000000" fill-rule="nonzero" fill-opacity="1" /><path clip-path="url(#clip970)" d="M530.099 620.295 Q522.877 620.295 519.22 627.425 Q515.608 634.508 515.608 648.767 Q515.608 662.98 519.22 670.11 Q522.877 677.193 530.099 677.193 Q537.368 677.193 540.979 670.11 Q544.636 662.98 544.636 648.767 Q544.636 634.508 540.979 627.425 Q537.368 620.295 530.099 620.295 M530.099 612.888 Q541.719 612.888 547.831 622.101 Q553.988 631.267 553.988 648.767 Q553.988 666.221 547.831 675.434 Q541.719 684.6 530.099 684.6 Q518.479 684.6 512.321 675.434 Q506.21 666.221 506.21 648.767 Q506.21 631.267 512.321 622.101 Q518.479 612.888 530.099 612.888 Z" fill="#000000" fill-rule="nonzero" fill-opacity="1" /><path clip-path="url(#clip970)" d="M570.423 671.499 L580.191 671.499 L580.191 683.258 L570.423 683.258 L570.423 671.499 Z" fill="#000000" fill-rule="nonzero" fill-opacity="1" /><path clip-path="url(#clip970)" d="M620.562 620.295 Q613.339 620.295 609.682 627.425 Q606.071 634.508 606.071 648.767 Q606.071 662.98 609.682 670.11 Q613.339 677.193 620.562 677.193 Q627.83 677.193 631.441 670.11 Q635.099 662.98 635.099 648.767 Q635.099 634.508 631.441 627.425 Q627.83 620.295 620.562 620.295 M620.562 612.888 Q632.182 612.888 638.293 622.101 Q644.45 631.267 644.45 648.767 Q644.45 666.221 638.293 675.434 Q632.182 684.6 620.562 684.6 Q608.941 684.6 602.784 675.434 Q596.673 666.221 596.673 648.767 Q596.673 631.267 602.784 622.101 Q608.941 612.888 620.562 612.888 Z" fill="#000000" fill-rule="nonzero" fill-opacity="1" /><path clip-path="url(#clip970)" d="M391.072 414.618 L406.35 414.618 L406.35 361.887 L389.73 365.22 L389.73 356.702 L406.257 353.369 L415.609 353.369 L415.609 414.618 L430.887 414.618 L430.887 422.489 L391.072 422.489 L391.072 414.618 Z" fill="#000000" fill-rule="nonzero" fill-opacity="1" /><path clip-path="url(#clip970)" d="M447.414 353.369 L491.859 353.369 L491.859 357.35 L466.766 422.489 L456.998 422.489 L480.609 361.239 L447.414 361.239 L447.414 353.369 Z" fill="#000000" fill-rule="nonzero" fill-opacity="1" /><path clip-path="url(#clip970)" d="M510.192 353.369 L546.905 353.369 L546.905 361.239 L518.757 361.239 L518.757 378.183 Q520.794 377.489 522.831 377.165 Q524.868 376.794 526.905 376.794 Q538.479 376.794 545.238 383.137 Q551.997 389.48 551.997 400.313 Q551.997 411.47 545.053 417.674 Q538.108 423.831 525.47 423.831 Q521.118 423.831 516.581 423.09 Q512.09 422.35 507.275 420.868 L507.275 411.47 Q511.442 413.739 515.886 414.85 Q520.331 415.961 525.284 415.961 Q533.294 415.961 537.969 411.748 Q542.645 407.535 542.645 400.313 Q542.645 393.091 537.969 388.878 Q533.294 384.665 525.284 384.665 Q521.534 384.665 517.784 385.498 Q514.081 386.331 510.192 388.091 L510.192 353.369 Z" fill="#000000" fill-rule="nonzero" fill-opacity="1" /><path clip-path="url(#clip970)" d="M570.423 410.729 L580.191 410.729 L580.191 422.489 L570.423 422.489 L570.423 410.729 Z" fill="#000000" fill-rule="nonzero" fill-opacity="1" /><path clip-path="url(#clip970)" d="M620.562 359.526 Q613.339 359.526 609.682 366.656 Q606.071 373.739 606.071 387.998 Q606.071 402.211 609.682 409.341 Q613.339 416.424 620.562 416.424 Q627.83 416.424 631.441 409.341 Q635.099 402.211 635.099 387.998 Q635.099 373.739 631.441 366.656 Q627.83 359.526 620.562 359.526 M620.562 352.119 Q632.182 352.119 638.293 361.332 Q644.45 370.498 644.45 387.998 Q644.45 405.452 638.293 414.665 Q632.182 423.831 620.562 423.831 Q608.941 423.831 602.784 414.665 Q596.673 405.452 596.673 387.998 Q596.673 370.498 602.784 361.332 Q608.941 352.119 620.562 352.119 Z" fill="#000000" fill-rule="nonzero" fill-opacity="1" /><path clip-path="url(#clip970)" d="M397.507 153.849 L430.146 153.849 L430.146 161.719 L386.257 161.719 L386.257 153.849 Q391.581 148.34 400.748 139.081 Q409.961 129.775 412.322 127.09 Q416.813 122.044 418.572 118.571 Q420.378 115.053 420.378 111.673 Q420.378 106.164 416.489 102.692 Q412.646 99.2196 406.442 99.2196 Q402.044 99.2196 397.137 100.747 Q392.276 102.275 386.72 105.377 L386.72 95.9326 Q392.368 93.6641 397.276 92.5067 Q402.183 91.3493 406.257 91.3493 Q416.998 91.3493 423.387 96.7196 Q429.776 102.09 429.776 111.071 Q429.776 115.331 428.155 119.173 Q426.581 122.969 422.368 128.155 Q421.211 129.497 415.007 135.932 Q408.803 142.321 397.507 153.849 Z" fill="#000000" fill-rule="nonzero" fill-opacity="1" /><path clip-path="url(#clip970)" d="M469.775 98.7566 Q462.553 98.7566 458.896 105.886 Q455.285 112.97 455.285 127.229 Q455.285 141.442 458.896 148.571 Q462.553 155.654 469.775 155.654 Q477.044 155.654 480.655 148.571 Q484.312 141.442 484.312 127.229 Q484.312 112.97 480.655 105.886 Q477.044 98.7566 469.775 98.7566 M469.775 91.3493 Q481.396 91.3493 487.507 100.562 Q493.664 109.729 493.664 127.229 Q493.664 144.682 487.507 153.895 Q481.396 163.062 469.775 163.062 Q458.155 163.062 451.998 153.895 Q445.887 144.682 445.887 127.229 Q445.887 109.729 451.998 100.562 Q458.155 91.3493 469.775 91.3493 Z" fill="#000000" fill-rule="nonzero" fill-opacity="1" /><path clip-path="url(#clip970)" d="M530.099 98.7566 Q522.877 98.7566 519.22 105.886 Q515.608 112.97 515.608 127.229 Q515.608 141.442 519.22 148.571 Q522.877 155.654 530.099 155.654 Q537.368 155.654 540.979 148.571 Q544.636 141.442 544.636 127.229 Q544.636 112.97 540.979 105.886 Q537.368 98.7566 530.099 98.7566 M530.099 91.3493 Q541.719 91.3493 547.831 100.562 Q553.988 109.729 553.988 127.229 Q553.988 144.682 547.831 153.895 Q541.719 163.062 530.099 163.062 Q518.479 163.062 512.321 153.895 Q506.21 144.682 506.21 127.229 Q506.21 109.729 512.321 100.562 Q518.479 91.3493 530.099 91.3493 Z" fill="#000000" fill-rule="nonzero" fill-opacity="1" /><path clip-path="url(#clip970)" d="M570.423 149.96 L580.191 149.96 L580.191 161.719 L570.423 161.719 L570.423 149.96 Z" fill="#000000" fill-rule="nonzero" fill-opacity="1" /><path clip-path="url(#clip970)" d="M620.562 98.7566 Q613.339 98.7566 609.682 105.886 Q606.071 112.97 606.071 127.229 Q606.071 141.442 609.682 148.571 Q613.339 155.654 620.562 155.654 Q627.83 155.654 631.441 148.571 Q635.099 141.442 635.099 127.229 Q635.099 112.97 631.441 105.886 Q627.83 98.7566 620.562 98.7566 M620.562 91.3493 Q632.182 91.3493 638.293 100.562 Q644.45 109.729 644.45 127.229 Q644.45 144.682 638.293 153.895 Q632.182 163.062 620.562 163.062 Q608.941 163.062 602.784 153.895 Q596.673 144.682 596.673 127.229 Q596.673 109.729 602.784 100.562 Q608.941 91.3493 620.562 91.3493 Z" fill="#000000" fill-rule="nonzero" fill-opacity="1" /><path clip-path="url(#clip970)" d="M253.187 1099.45 L264.136 1099.45 Q261.398 1104.42 260.062 1109.45 Q258.661 1114.41 258.661 1119.51 Q258.661 1130.9 265.918 1137.2 Q273.111 1143.51 286.161 1143.51 Q299.211 1143.51 306.468 1137.2 Q313.661 1130.9 313.661 1119.51 Q313.661 1114.41 312.324 1109.45 Q310.924 1104.42 308.186 1099.45 L319.008 1099.45 Q321.3 1104.36 322.446 1109.64 Q323.591 1114.86 323.591 1120.78 Q323.591 1136.88 313.47 1146.37 Q303.348 1155.85 286.161 1155.85 Q268.719 1155.85 258.725 1146.31 Q248.731 1136.69 248.731 1120.02 Q248.731 1114.6 249.876 1109.45 Q250.959 1104.29 253.187 1099.45 Z" fill="#000000" fill-rule="nonzero" fill-opacity="1" /><path clip-path="url(#clip970)" d="M258.661 1051.46 Q258.661 1060.88 266.045 1066.35 Q273.366 1071.83 286.161 1071.83 Q298.956 1071.83 306.34 1066.42 Q313.661 1060.94 313.661 1051.46 Q313.661 1042.1 306.277 1036.62 Q298.892 1031.15 286.161 1031.15 Q273.493 1031.15 266.109 1036.62 Q258.661 1042.1 258.661 1051.46 M248.731 1051.46 Q248.731 1036.18 258.661 1027.46 Q268.592 1018.74 286.161 1018.74 Q303.667 1018.74 313.661 1027.46 Q323.591 1036.18 323.591 1051.46 Q323.591 1066.8 313.661 1075.52 Q303.667 1084.18 286.161 1084.18 Q268.592 1084.18 258.661 1075.52 Q248.731 1066.8 248.731 1051.46 Z" fill="#000000" fill-rule="nonzero" fill-opacity="1" /><path clip-path="url(#clip970)" d="M278.713 940.057 L321.745 940.057 L321.745 951.77 L279.095 951.77 Q268.974 951.77 263.945 955.717 Q258.916 959.663 258.916 967.557 Q258.916 977.042 264.963 982.516 Q271.011 987.991 281.45 987.991 L321.745 987.991 L321.745 999.767 L250.449 999.767 L250.449 987.991 L261.526 987.991 Q255.096 983.789 251.914 978.124 Q248.731 972.395 248.731 964.947 Q248.731 952.661 256.37 946.359 Q263.945 940.057 278.713 940.057 Z" fill="#000000" fill-rule="nonzero" fill-opacity="1" /><path clip-path="url(#clip970)" d="M253.187 865.387 L264.136 865.387 Q261.398 870.353 260.062 875.381 Q258.661 880.347 258.661 885.439 Q258.661 896.834 265.918 903.136 Q273.111 909.438 286.161 909.438 Q299.211 909.438 306.468 903.136 Q313.661 896.834 313.661 885.439 Q313.661 880.347 312.324 875.381 Q310.924 870.353 308.186 865.387 L319.008 865.387 Q321.3 870.289 322.446 875.572 Q323.591 880.792 323.591 886.712 Q323.591 902.818 313.47 912.303 Q303.348 921.787 286.161 921.787 Q268.719 921.787 258.725 912.239 Q248.731 902.627 248.731 885.949 Q248.731 880.538 249.876 875.381 Q250.959 870.225 253.187 865.387 Z" fill="#000000" fill-rule="nonzero" fill-opacity="1" /><path clip-path="url(#clip970)" d="M305.576 843.362 L305.576 829.93 L321.745 829.93 L321.745 843.362 L305.576 843.362 Z" fill="#000000" fill-rule="nonzero" fill-opacity="1" /><path clip-path="url(#clip970)" d="M250.449 770.538 L250.449 758.125 L310.287 735.845 L250.449 713.565 L250.449 701.152 L321.745 727.888 L321.745 743.802 L250.449 770.538 Z" fill="#000000" fill-rule="nonzero" fill-opacity="1" /><path clip-path="url(#clip970)" d="M283.169 624 L288.898 624 L288.898 677.854 Q300.993 677.09 307.359 670.597 Q313.661 664.04 313.661 652.391 Q313.661 645.643 312.006 639.341 Q310.351 632.975 307.041 626.737 L318.117 626.737 Q320.79 633.039 322.191 639.659 Q323.591 646.28 323.591 653.091 Q323.591 670.151 313.661 680.145 Q303.73 690.076 286.798 690.076 Q269.292 690.076 259.043 680.654 Q248.731 671.17 248.731 655.128 Q248.731 640.742 258.025 632.402 Q267.255 624 283.169 624 M279.732 635.713 Q270.119 635.84 264.39 641.123 Q258.661 646.343 258.661 655.001 Q258.661 664.804 264.199 670.724 Q269.737 676.58 279.795 677.472 L279.732 635.713 Z" fill="#000000" fill-rule="nonzero" fill-opacity="1" /><path clip-path="url(#clip970)" d="M278.713 545.511 L321.745 545.511 L321.745 557.223 L279.095 557.223 Q268.974 557.223 263.945 561.17 Q258.916 565.117 258.916 573.01 Q258.916 582.495 264.963 587.97 Q271.011 593.444 281.45 593.444 L321.745 593.444 L321.745 605.221 L250.449 605.221 L250.449 593.444 L261.526 593.444 Q255.096 589.243 251.914 583.577 Q248.731 577.848 248.731 570.4 Q248.731 558.115 256.37 551.813 Q263.945 545.511 278.713 545.511 Z" fill="#000000" fill-rule="nonzero" fill-opacity="1" /><path clip-path="url(#clip970)" d="M230.206 510.563 L250.449 510.563 L250.449 486.437 L259.552 486.437 L259.552 510.563 L298.256 510.563 Q306.977 510.563 309.459 508.207 Q311.942 505.789 311.942 498.468 L311.942 486.437 L321.745 486.437 L321.745 498.468 Q321.745 512.027 316.716 517.183 Q311.624 522.339 298.256 522.339 L259.552 522.339 L259.552 530.933 L250.449 530.933 L250.449 522.339 L230.206 522.339 L230.206 510.563 Z" fill="#000000" fill-rule="nonzero" fill-opacity="1" /><path clip-path="url(#clip970)" d="M261.398 429.718 Q260.253 431.692 259.743 434.047 Q259.17 436.339 259.17 439.14 Q259.17 449.07 265.663 454.417 Q272.093 459.701 284.188 459.701 L321.745 459.701 L321.745 471.477 L250.449 471.477 L250.449 459.701 L261.526 459.701 Q255.033 456.009 251.914 450.089 Q248.731 444.168 248.731 435.702 Q248.731 434.493 248.922 433.028 Q249.049 431.564 249.367 429.782 L261.398 429.718 Z" fill="#000000" fill-rule="nonzero" fill-opacity="1" /><path clip-path="url(#clip970)" d="M250.449 417.433 L250.449 405.72 L321.745 405.72 L321.745 417.433 L250.449 417.433 M222.695 417.433 L222.695 405.72 L237.527 405.72 L237.527 417.433 L222.695 417.433 Z" fill="#000000" fill-rule="nonzero" fill-opacity="1" /><path clip-path="url(#clip970)" d="M253.187 329.904 L264.136 329.904 Q261.398 334.869 260.062 339.898 Q258.661 344.863 258.661 349.956 Q258.661 361.351 265.918 367.653 Q273.111 373.955 286.161 373.955 Q299.211 373.955 306.468 367.653 Q313.661 361.351 313.661 349.956 Q313.661 344.863 312.324 339.898 Q310.924 334.869 308.186 329.904 L319.008 329.904 Q321.3 334.806 322.446 340.089 Q323.591 345.309 323.591 351.229 Q323.591 367.334 313.47 376.819 Q303.348 386.304 286.161 386.304 Q268.719 386.304 258.725 376.756 Q248.731 367.143 248.731 350.465 Q248.731 345.054 249.876 339.898 Q250.959 334.742 253.187 329.904 Z" fill="#000000" fill-rule="nonzero" fill-opacity="1" /><path clip-path="url(#clip970)" d="M222.695 309.534 L222.695 297.821 L321.745 297.821 L321.745 309.534 L222.695 309.534 Z" fill="#000000" fill-rule="nonzero" fill-opacity="1" /><path clip-path="url(#clip970)" d="M283.169 212.329 L288.898 212.329 L288.898 266.183 Q300.993 265.419 307.359 258.926 Q313.661 252.37 313.661 240.721 Q313.661 233.973 312.006 227.671 Q310.351 221.305 307.041 215.067 L318.117 215.067 Q320.79 221.369 322.191 227.989 Q323.591 234.609 323.591 241.421 Q323.591 258.481 313.661 268.475 Q303.73 278.405 286.798 278.405 Q269.292 278.405 259.043 268.984 Q248.731 259.499 248.731 243.458 Q248.731 229.071 258.025 220.732 Q267.255 212.329 283.169 212.329 M279.732 224.042 Q270.119 224.17 264.39 229.453 Q258.661 234.673 258.661 243.33 Q258.661 253.134 264.199 259.054 Q269.737 264.91 279.795 265.801 L279.732 224.042 Z" fill="#000000" fill-rule="nonzero" fill-opacity="1" /><polyline clip-path="url(#clip972)" style="stroke:#008000; stroke-linecap:round; stroke-linejoin:round; stroke-width:8; stroke-opacity:1; fill:none" points="726.443,256.555 854.199,311.57 981.955,322.709 1109.71,216.327 1237.47,474.39 1365.22,378.158 1492.98,532.008 1620.74,538.503 1748.49,773.98 1876.25,776.329 2004.01,697.985 2131.76,732.699 2259.52,909.76 "/>
<circle clip-path="url(#clip972)" cx="726.443" cy="256.555" r="14.4" fill="#008000" fill-rule="evenodd" fill-opacity="1" stroke="#000000" stroke-opacity="1" stroke-width="6.4"/>
<circle clip-path="url(#clip972)" cx="854.199" cy="311.57" r="14.4" fill="#008000" fill-rule="evenodd" fill-opacity="1" stroke="#000000" stroke-opacity="1" stroke-width="6.4"/>
<circle clip-path="url(#clip972)" cx="981.955" cy="322.709" r="14.4" fill="#008000" fill-rule="evenodd" fill-opacity="1" stroke="#000000" stroke-opacity="1" stroke-width="6.4"/>
<circle clip-path="url(#clip972)" cx="1109.71" cy="216.327" r="14.4" fill="#008000" fill-rule="evenodd" fill-opacity="1" stroke="#000000" stroke-opacity="1" stroke-width="6.4"/>
<circle clip-path="url(#clip972)" cx="1237.47" cy="474.39" r="14.4" fill="#008000" fill-rule="evenodd" fill-opacity="1" stroke="#000000" stroke-opacity="1" stroke-width="6.4"/>
<circle clip-path="url(#clip972)" cx="1365.22" cy="378.158" r="14.4" fill="#008000" fill-rule="evenodd" fill-opacity="1" stroke="#000000" stroke-opacity="1" stroke-width="6.4"/>
<circle clip-path="url(#clip972)" cx="1492.98" cy="532.008" r="14.4" fill="#008000" fill-rule="evenodd" fill-opacity="1" stroke="#000000" stroke-opacity="1" stroke-width="6.4"/>
<circle clip-path="url(#clip972)" cx="1620.74" cy="538.503" r="14.4" fill="#008000" fill-rule="evenodd" fill-opacity="1" stroke="#000000" stroke-opacity="1" stroke-width="6.4"/>
<circle clip-path="url(#clip972)" cx="1748.49" cy="773.98" r="14.4" fill="#008000" fill-rule="evenodd" fill-opacity="1" stroke="#000000" stroke-opacity="1" stroke-width="6.4"/>
<circle clip-path="url(#clip972)" cx="1876.25" cy="776.329" r="14.4" fill="#008000" fill-rule="evenodd" fill-opacity="1" stroke="#000000" stroke-opacity="1" stroke-width="6.4"/>
<circle clip-path="url(#clip972)" cx="2004.01" cy="697.985" r="14.4" fill="#008000" fill-rule="evenodd" fill-opacity="1" stroke="#000000" stroke-opacity="1" stroke-width="6.4"/>
<circle clip-path="url(#clip972)" cx="2131.76" cy="732.699" r="14.4" fill="#008000" fill-rule="evenodd" fill-opacity="1" stroke="#000000" stroke-opacity="1" stroke-width="6.4"/>
<circle clip-path="url(#clip972)" cx="2259.52" cy="909.76" r="14.4" fill="#008000" fill-rule="evenodd" fill-opacity="1" stroke="#000000" stroke-opacity="1" stroke-width="6.4"/>
<polyline clip-path="url(#clip972)" style="stroke:#00008b; stroke-linecap:round; stroke-linejoin:round; stroke-width:8; stroke-opacity:1; fill:none" points="726.443,254.688 854.199,363.179 981.955,477.55 1109.71,555.915 1237.47,649.727 1365.22,730.48 1492.98,792.381 1620.74,853.805 1748.49,911.124 1876.25,974.67 2004.01,1032.67 2131.76,1079.51 2259.52,1124 "/>
<path clip-path="url(#clip972)" d="M726.443 377.048 L854.199 491.489 L981.955 603.27 L1109.71 679.984 L1237.47 775.715 L1365.22 858.391 L1492.98 921.766 L1620.74 972.362 L1748.49 1030.27 L1876.25 1099.53 L2004.01 1153.69 L2131.76 1202.52 L2259.52 1240.32 L2259.52 999.1 L2131.76 946.494 L2004.01 908.953 L1876.25 846.847 L1748.49 784.584 L1620.74 724.396 L1492.98 667.774 L1365.22 608.741 L1237.47 523.575 L1109.71 435.355 L981.955 347.116 L854.199 240.136 L726.443 127.862  Z" fill="#0000ff" fill-rule="evenodd" fill-opacity="0.1"/>
<polyline clip-path="url(#clip972)" style="stroke:#0000ff; stroke-linecap:round; stroke-linejoin:round; stroke-width:0; stroke-opacity:0.1; fill:none" points="726.443,377.048 854.199,491.489 981.955,603.27 1109.71,679.984 1237.47,775.715 1365.22,858.391 1492.98,921.766 1620.74,972.362 1748.49,1030.27 1876.25,1099.53 2004.01,1153.69 2131.76,1202.52 2259.52,1240.32 "/>
</svg>
