<?xml version="1.0" encoding="utf-8"?>
<svg xmlns="http://www.w3.org/2000/svg" xmlns:xlink="http://www.w3.org/1999/xlink" width="600" height="400" viewBox="0 0 2400 1600">
<defs>
  <clipPath id="clip590">
    <rect x="0" y="0" width="2400" height="1600"/>
  </clipPath>
</defs>
<path clip-path="url(#clip590)" d="M0 1600 L2400 1600 L2400 0 L0 0  Z" fill="#ffffff" fill-rule="evenodd" fill-opacity="1"/>
<defs>
  <clipPath id="clip591">
    <rect x="480" y="0" width="1681" height="1600"/>
  </clipPath>
</defs>
<path clip-path="url(#clip590)" d="M1266.39 1082.2 L2305.51 1082.2 L2305.51 94.4882 L1266.39 94.4882  Z" fill="#ffffff" fill-rule="evenodd" fill-opacity="1"/>
<defs>
  <clipPath id="clip592">
    <rect x="1266" y="94" width="1040" height="989"/>
  </clipPath>
</defs>
<polyline clip-path="url(#clip592)" style="stroke:#000000; stroke-linecap:round; stroke-linejoin:round; stroke-width:4; stroke-opacity:0.1; fill:none" points="1295.8,1082.2 1295.8,94.4882 "/>
<polyline clip-path="url(#clip592)" style="stroke:#000000; stroke-linecap:round; stroke-linejoin:round; stroke-width:4; stroke-opacity:0.1; fill:none" points="1444.33,1082.2 1444.33,94.4882 "/>
<polyline clip-path="url(#clip592)" style="stroke:#000000; stroke-linecap:round; stroke-linejoin:round; stroke-width:4; stroke-opacity:0.1; fill:none" points="1592.86,1082.2 1592.86,94.4882 "/>
<polyline clip-path="url(#clip592)" style="stroke:#000000; stroke-linecap:round; stroke-linejoin:round; stroke-width:4; stroke-opacity:0.1; fill:none" points="1741.39,1082.2 1741.39,94.4882 "/>
<polyline clip-path="url(#clip592)" style="stroke:#000000; stroke-linecap:round; stroke-linejoin:round; stroke-width:4; stroke-opacity:0.1; fill:none" points="1889.92,1082.2 1889.92,94.4882 "/>
<polyline clip-path="url(#clip592)" style="stroke:#000000; stroke-linecap:round; stroke-linejoin:round; stroke-width:4; stroke-opacity:0.1; fill:none" points="2038.45,1082.2 2038.45,94.4882 "/>
<polyline clip-path="url(#clip592)" style="stroke:#000000; stroke-linecap:round; stroke-linejoin:round; stroke-width:4; stroke-opacity:0.1; fill:none" points="2186.98,1082.2 2186.98,94.4882 "/>
<polyline clip-path="url(#clip590)" style="stroke:#000000; stroke-linecap:round; stroke-linejoin:round; stroke-width:8; stroke-opacity:1; fill:none" points="1266.39,1082.2 2305.51,1082.2 "/>
<polyline clip-path="url(#clip590)" style="stroke:#000000; stroke-linecap:round; stroke-linejoin:round; stroke-width:8; stroke-opacity:1; fill:none" points="1295.8,1082.2 1295.8,1063.3 "/>
<polyline clip-path="url(#clip590)" style="stroke:#000000; stroke-linecap:round; stroke-linejoin:round; stroke-width:8; stroke-opacity:1; fill:none" points="1444.33,1082.2 1444.33,1063.3 "/>
<polyline clip-path="url(#clip590)" style="stroke:#000000; stroke-linecap:round; stroke-linejoin:round; stroke-width:8; stroke-opacity:1; fill:none" points="1592.86,1082.2 1592.86,1063.3 "/>
<polyline clip-path="url(#clip590)" style="stroke:#000000; stroke-linecap:round; stroke-linejoin:round; stroke-width:8; stroke-opacity:1; fill:none" points="1741.39,1082.2 1741.39,1063.3 "/>
<polyline clip-path="url(#clip590)" style="stroke:#000000; stroke-linecap:round; stroke-linejoin:round; stroke-width:8; stroke-opacity:1; fill:none" points="1889.92,1082.2 1889.92,1063.3 "/>
<polyline clip-path="url(#clip590)" style="stroke:#000000; stroke-linecap:round; stroke-linejoin:round; stroke-width:8; stroke-opacity:1; fill:none" points="2038.45,1082.2 2038.45,1063.3 "/>
<polyline clip-path="url(#clip590)" style="stroke:#000000; stroke-linecap:round; stroke-linejoin:round; stroke-width:8; stroke-opacity:1; fill:none" points="2186.98,1082.2 2186.98,1063.3 "/>
<path clip-path="url(#clip590)" d="M1250.57 1124.84 Q1243.34 1124.84 1239.69 1131.97 Q1236.08 1139.05 1236.08 1153.31 Q1236.08 1167.52 1239.69 1174.65 Q1243.34 1181.73 1250.57 1181.73 Q1257.84 1181.73 1261.45 1174.65 Q1265.1 1167.52 1265.1 1153.31 Q1265.1 1139.05 1261.45 1131.97 Q1257.84 1124.84 1250.57 1124.84 M1250.57 1117.43 Q1262.19 1117.43 1268.3 1126.64 Q1274.46 1135.81 1274.46 1153.31 Q1274.46 1170.76 1268.3 1179.98 Q1262.19 1189.14 1250.57 1189.14 Q1238.95 1189.14 1232.79 1179.98 Q1226.68 1170.76 1226.68 1153.31 Q1226.68 1135.81 1232.79 1126.64 Q1238.95 1117.43 1250.57 1117.43 Z" fill="#000000" fill-rule="nonzero" fill-opacity="1" /><path clip-path="url(#clip590)" d="M1290.89 1176.04 L1300.66 1176.04 L1300.66 1187.8 L1290.89 1187.8 L1290.89 1176.04 Z" fill="#000000" fill-rule="nonzero" fill-opacity="1" /><path clip-path="url(#clip590)" d="M1341.03 1124.84 Q1333.81 1124.84 1330.15 1131.97 Q1326.54 1139.05 1326.54 1153.31 Q1326.54 1167.52 1330.15 1174.65 Q1333.81 1181.73 1341.03 1181.73 Q1348.3 1181.73 1351.91 1174.65 Q1355.57 1167.52 1355.57 1153.31 Q1355.57 1139.05 1351.91 1131.97 Q1348.3 1124.84 1341.03 1124.84 M1341.03 1117.43 Q1352.65 1117.43 1358.76 1126.64 Q1364.92 1135.81 1364.92 1153.31 Q1364.92 1170.76 1358.76 1179.98 Q1352.65 1189.14 1341.03 1189.14 Q1329.41 1189.14 1323.25 1179.98 Q1317.14 1170.76 1317.14 1153.31 Q1317.14 1135.81 1323.25 1126.64 Q1329.41 1117.43 1341.03 1117.43 Z" fill="#000000" fill-rule="nonzero" fill-opacity="1" /><path clip-path="url(#clip590)" d="M1400.7 1124.84 Q1393.47 1124.84 1389.82 1131.97 Q1386.2 1139.05 1386.2 1153.31 Q1386.2 1167.52 1389.82 1174.65 Q1393.47 1181.73 1400.7 1181.73 Q1407.96 1181.73 1411.57 1174.65 Q1415.23 1167.52 1415.23 1153.31 Q1415.23 1139.05 1411.57 1131.97 Q1407.96 1124.84 1400.7 1124.84 M1400.7 1117.43 Q1412.32 1117.43 1418.43 1126.64 Q1424.58 1135.81 1424.58 1153.31 Q1424.58 1170.76 1418.43 1179.98 Q1412.32 1189.14 1400.7 1189.14 Q1389.07 1189.14 1382.92 1179.98 Q1376.81 1170.76 1376.81 1153.31 Q1376.81 1135.81 1382.92 1126.64 Q1389.07 1117.43 1400.7 1117.43 Z" fill="#000000" fill-rule="nonzero" fill-opacity="1" /><path clip-path="url(#clip590)" d="M1441.02 1176.04 L1450.79 1176.04 L1450.79 1187.8 L1441.02 1187.8 L1441.02 1176.04 Z" fill="#000000" fill-rule="nonzero" fill-opacity="1" /><path clip-path="url(#clip590)" d="M1479.21 1179.93 L1511.85 1179.93 L1511.85 1187.8 L1467.96 1187.8 L1467.96 1179.93 Q1473.29 1174.42 1482.45 1165.16 Q1491.67 1155.86 1494.03 1153.17 Q1498.52 1148.12 1500.28 1144.65 Q1502.08 1141.13 1502.08 1137.75 Q1502.08 1132.24 1498.19 1128.77 Q1494.35 1125.3 1488.15 1125.3 Q1483.75 1125.3 1478.84 1126.83 Q1473.98 1128.36 1468.43 1131.46 L1468.43 1122.01 Q1474.07 1119.74 1478.98 1118.59 Q1483.89 1117.43 1487.96 1117.43 Q1498.7 1117.43 1505.09 1122.8 Q1511.48 1128.17 1511.48 1137.15 Q1511.48 1141.41 1509.86 1145.25 Q1508.29 1149.05 1504.07 1154.24 Q1502.92 1155.58 1496.71 1162.01 Q1490.51 1168.4 1479.21 1179.93 Z" fill="#000000" fill-rule="nonzero" fill-opacity="1" /><path clip-path="url(#clip590)" d="M1547.14 1124.84 Q1539.92 1124.84 1536.26 1131.97 Q1532.65 1139.05 1532.65 1153.31 Q1532.65 1167.52 1536.26 1174.65 Q1539.92 1181.73 1547.14 1181.73 Q1554.41 1181.73 1558.02 1174.65 Q1561.68 1167.52 1561.68 1153.31 Q1561.68 1139.05 1558.02 1131.97 Q1554.41 1124.84 1547.14 1124.84 M1547.14 1117.43 Q1558.76 1117.43 1564.87 1126.64 Q1571.03 1135.81 1571.03 1153.31 Q1571.03 1170.76 1564.87 1179.98 Q1558.76 1189.14 1547.14 1189.14 Q1535.52 1189.14 1529.37 1179.98 Q1523.25 1170.76 1523.25 1153.31 Q1523.25 1135.81 1529.37 1126.64 Q1535.52 1117.43 1547.14 1117.43 Z" fill="#000000" fill-rule="nonzero" fill-opacity="1" /><path clip-path="url(#clip590)" d="M1587.47 1176.04 L1597.24 1176.04 L1597.24 1187.8 L1587.47 1187.8 L1587.47 1176.04 Z" fill="#000000" fill-rule="nonzero" fill-opacity="1" /><path clip-path="url(#clip590)" d="M1643.3 1126.83 L1619.69 1163.73 L1643.3 1163.73 L1643.3 1126.83 M1640.85 1118.68 L1652.61 1118.68 L1652.61 1163.73 L1662.47 1163.73 L1662.47 1171.5 L1652.61 1171.5 L1652.61 1187.8 L1643.3 1187.8 L1643.3 1171.5 L1612.1 1171.5 L1612.1 1162.48 L1640.85 1118.68 Z" fill="#000000" fill-rule="nonzero" fill-opacity="1" /><path clip-path="url(#clip590)" d="M1696 1124.84 Q1688.78 1124.84 1685.12 1131.97 Q1681.51 1139.05 1681.51 1153.31 Q1681.51 1167.52 1685.12 1174.65 Q1688.78 1181.73 1696 1181.73 Q1703.27 1181.73 1706.88 1174.65 Q1710.53 1167.52 1710.53 1153.31 Q1710.53 1139.05 1706.88 1131.97 Q1703.27 1124.84 1696 1124.84 M1696 1117.43 Q1707.62 1117.43 1713.73 1126.64 Q1719.89 1135.81 1719.89 1153.31 Q1719.89 1170.76 1713.73 1179.98 Q1707.62 1189.14 1696 1189.14 Q1684.38 1189.14 1678.22 1179.98 Q1672.11 1170.76 1672.11 1153.31 Q1672.11 1135.81 1678.22 1126.64 Q1684.38 1117.43 1696 1117.43 Z" fill="#000000" fill-rule="nonzero" fill-opacity="1" /><path clip-path="url(#clip590)" d="M1736.32 1176.04 L1746.09 1176.04 L1746.09 1187.8 L1736.32 1187.8 L1736.32 1176.04 Z" fill="#000000" fill-rule="nonzero" fill-opacity="1" /><path clip-path="url(#clip590)" d="M1787.62 1149.51 Q1781.32 1149.51 1777.62 1153.82 Q1773.96 1158.12 1773.96 1165.62 Q1773.96 1173.08 1777.62 1177.43 Q1781.32 1181.73 1787.62 1181.73 Q1793.91 1181.73 1797.57 1177.43 Q1801.28 1173.08 1801.28 1165.62 Q1801.28 1158.12 1797.57 1153.82 Q1793.91 1149.51 1787.62 1149.51 M1806.18 1120.21 L1806.18 1128.73 Q1802.66 1127.06 1799.05 1126.18 Q1795.49 1125.3 1791.97 1125.3 Q1782.71 1125.3 1777.8 1131.55 Q1772.94 1137.8 1772.25 1150.44 Q1774.98 1146.41 1779.1 1144.28 Q1783.22 1142.11 1788.17 1142.11 Q1798.59 1142.11 1804.61 1148.45 Q1810.67 1154.74 1810.67 1165.62 Q1810.67 1176.27 1804.38 1182.71 Q1798.08 1189.14 1787.62 1189.14 Q1775.63 1189.14 1769.28 1179.98 Q1762.94 1170.76 1762.94 1153.31 Q1762.94 1136.92 1770.72 1127.2 Q1778.5 1117.43 1791.6 1117.43 Q1795.12 1117.43 1798.68 1118.12 Q1802.29 1118.82 1806.18 1120.21 Z" fill="#000000" fill-rule="nonzero" fill-opacity="1" /><path clip-path="url(#clip590)" d="M1844.78 1124.84 Q1837.56 1124.84 1833.9 1131.97 Q1830.29 1139.05 1830.29 1153.31 Q1830.29 1167.52 1833.9 1174.65 Q1837.56 1181.73 1844.78 1181.73 Q1852.05 1181.73 1855.66 1174.65 Q1859.32 1167.52 1859.32 1153.31 Q1859.32 1139.05 1855.66 1131.97 Q1852.05 1124.84 1844.78 1124.84 M1844.78 1117.43 Q1856.4 1117.43 1862.51 1126.64 Q1868.67 1135.81 1868.67 1153.31 Q1868.67 1170.76 1862.51 1179.98 Q1856.4 1189.14 1844.78 1189.14 Q1833.16 1189.14 1827.01 1179.98 Q1820.89 1170.76 1820.89 1153.31 Q1820.89 1135.81 1827.01 1126.64 Q1833.16 1117.43 1844.78 1117.43 Z" fill="#000000" fill-rule="nonzero" fill-opacity="1" /><path clip-path="url(#clip590)" d="M1885.11 1176.04 L1894.88 1176.04 L1894.88 1187.8 L1885.11 1187.8 L1885.11 1176.04 Z" fill="#000000" fill-rule="nonzero" fill-opacity="1" /><path clip-path="url(#clip590)" d="M1935.25 1154.98 Q1928.58 1154.98 1924.74 1158.54 Q1920.94 1162.11 1920.94 1168.36 Q1920.94 1174.61 1924.74 1178.17 Q1928.58 1181.73 1935.25 1181.73 Q1941.91 1181.73 1945.76 1178.17 Q1949.6 1174.56 1949.6 1168.36 Q1949.6 1162.11 1945.76 1158.54 Q1941.96 1154.98 1935.25 1154.98 M1925.89 1150.99 Q1919.88 1149.51 1916.5 1145.39 Q1913.16 1141.27 1913.16 1135.35 Q1913.16 1127.06 1919.04 1122.24 Q1924.97 1117.43 1935.25 1117.43 Q1945.57 1117.43 1951.45 1122.24 Q1957.33 1127.06 1957.33 1135.35 Q1957.33 1141.27 1953.95 1145.39 Q1950.62 1149.51 1944.64 1150.99 Q1951.4 1152.57 1955.15 1157.15 Q1958.95 1161.74 1958.95 1168.36 Q1958.95 1178.4 1952.79 1183.77 Q1946.68 1189.14 1935.25 1189.14 Q1923.81 1189.14 1917.65 1183.77 Q1911.54 1178.4 1911.54 1168.36 Q1911.54 1161.74 1915.34 1157.15 Q1919.13 1152.57 1925.89 1150.99 M1922.47 1136.23 Q1922.47 1141.6 1925.8 1144.61 Q1929.18 1147.61 1935.25 1147.61 Q1941.26 1147.61 1944.64 1144.61 Q1948.07 1141.6 1948.07 1136.23 Q1948.07 1130.86 1944.64 1127.85 Q1941.26 1124.84 1935.25 1124.84 Q1929.18 1124.84 1925.8 1127.85 Q1922.47 1130.86 1922.47 1136.23 Z" fill="#000000" fill-rule="nonzero" fill-opacity="1" /><path clip-path="url(#clip590)" d="M1972.76 1179.93 L1988.04 1179.93 L1988.04 1127.2 L1971.42 1130.53 L1971.42 1122.01 L1987.94 1118.68 L1997.3 1118.68 L1997.3 1179.93 L2012.57 1179.93 L2012.57 1187.8 L1972.76 1187.8 L1972.76 1179.93 Z" fill="#000000" fill-rule="nonzero" fill-opacity="1" /><path clip-path="url(#clip590)" d="M2031.46 1176.04 L2041.23 1176.04 L2041.23 1187.8 L2031.46 1187.8 L2031.46 1176.04 Z" fill="#000000" fill-rule="nonzero" fill-opacity="1" /><path clip-path="url(#clip590)" d="M2081.6 1124.84 Q2074.38 1124.84 2070.72 1131.97 Q2067.11 1139.05 2067.11 1153.31 Q2067.11 1167.52 2070.72 1174.65 Q2074.38 1181.73 2081.6 1181.73 Q2088.87 1181.73 2092.48 1174.65 Q2096.14 1167.52 2096.14 1153.31 Q2096.14 1139.05 2092.48 1131.97 Q2088.87 1124.84 2081.6 1124.84 M2081.6 1117.43 Q2093.22 1117.43 2099.33 1126.64 Q2105.49 1135.81 2105.49 1153.31 Q2105.49 1170.76 2099.33 1179.98 Q2093.22 1189.14 2081.6 1189.14 Q2069.98 1189.14 2063.82 1179.98 Q2057.71 1170.76 2057.71 1153.31 Q2057.71 1135.81 2063.82 1126.64 Q2069.98 1117.43 2081.6 1117.43 Z" fill="#000000" fill-rule="nonzero" fill-opacity="1" /><path clip-path="url(#clip590)" d="M2122.89 1179.93 L2138.16 1179.93 L2138.16 1127.2 L2121.54 1130.53 L2121.54 1122.01 L2138.07 1118.68 L2147.42 1118.68 L2147.42 1179.93 L2162.7 1179.93 L2162.7 1187.8 L2122.89 1187.8 L2122.89 1179.93 Z" fill="#000000" fill-rule="nonzero" fill-opacity="1" /><path clip-path="url(#clip590)" d="M2181.59 1176.04 L2191.36 1176.04 L2191.36 1187.8 L2181.59 1187.8 L2181.59 1176.04 Z" fill="#000000" fill-rule="nonzero" fill-opacity="1" /><path clip-path="url(#clip590)" d="M2219.78 1179.93 L2252.42 1179.93 L2252.42 1187.8 L2208.53 1187.8 L2208.53 1179.93 Q2213.86 1174.42 2223.03 1165.16 Q2232.24 1155.86 2234.6 1153.17 Q2239.09 1148.12 2240.85 1144.65 Q2242.66 1141.13 2242.66 1137.75 Q2242.66 1132.24 2238.77 1128.77 Q2234.92 1125.3 2228.72 1125.3 Q2224.32 1125.3 2219.41 1126.83 Q2214.55 1128.36 2209 1131.46 L2209 1122.01 Q2214.65 1119.74 2219.55 1118.59 Q2224.46 1117.43 2228.53 1117.43 Q2239.28 1117.43 2245.66 1122.8 Q2252.05 1128.17 2252.05 1137.15 Q2252.05 1141.41 2250.43 1145.25 Q2248.86 1149.05 2244.65 1154.24 Q2243.49 1155.58 2237.28 1162.01 Q2231.08 1168.4 2219.78 1179.93 Z" fill="#000000" fill-rule="nonzero" fill-opacity="1" /><path clip-path="url(#clip590)" d="M1671.49 1292.9 L1671.49 1335.93 L1659.78 1335.93 L1659.78 1293.28 Q1659.78 1283.16 1655.84 1278.13 Q1651.89 1273.1 1644 1273.1 Q1634.51 1273.1 1629.04 1279.15 Q1623.56 1285.19 1623.56 1295.63 L1623.56 1335.93 L1611.78 1335.93 L1611.78 1236.88 L1623.56 1236.88 L1623.56 1275.71 Q1627.76 1269.28 1633.43 1266.1 Q1639.16 1262.91 1646.61 1262.91 Q1658.89 1262.91 1665.19 1270.55 Q1671.49 1278.13 1671.49 1292.9 Z" fill="#000000" fill-rule="nonzero" fill-opacity="1" /><path clip-path="url(#clip590)" d="M1722.48 1272.84 Q1713.06 1272.84 1707.59 1280.23 Q1702.11 1287.55 1702.11 1300.34 Q1702.11 1313.14 1707.52 1320.52 Q1713 1327.84 1722.48 1327.84 Q1731.84 1327.84 1737.32 1320.46 Q1742.79 1313.07 1742.79 1300.34 Q1742.79 1287.68 1737.32 1280.29 Q1731.84 1272.84 1722.48 1272.84 M1722.48 1262.91 Q1737.76 1262.91 1746.48 1272.84 Q1755.2 1282.77 1755.2 1300.34 Q1755.2 1317.85 1746.48 1327.84 Q1737.76 1337.77 1722.48 1337.77 Q1707.14 1337.77 1698.42 1327.84 Q1689.76 1317.85 1689.76 1300.34 Q1689.76 1282.77 1698.42 1272.84 Q1707.14 1262.91 1722.48 1262.91 Z" fill="#000000" fill-rule="nonzero" fill-opacity="1" /><path clip-path="url(#clip590)" d="M1773.41 1307.79 L1773.41 1264.63 L1785.12 1264.63 L1785.12 1307.35 Q1785.12 1317.47 1789.07 1322.56 Q1793.02 1327.59 1800.91 1327.59 Q1810.39 1327.59 1815.87 1321.54 Q1821.41 1315.49 1821.41 1305.05 L1821.41 1264.63 L1833.12 1264.63 L1833.12 1335.93 L1821.41 1335.93 L1821.41 1324.98 Q1817.14 1331.47 1811.48 1334.65 Q1805.88 1337.77 1798.43 1337.77 Q1786.14 1337.77 1779.78 1330.13 Q1773.41 1322.5 1773.41 1307.79 M1802.88 1262.91 L1802.88 1262.91 Z" fill="#000000" fill-rule="nonzero" fill-opacity="1" /><path clip-path="url(#clip590)" d="M1898.56 1275.58 Q1896.59 1274.43 1894.23 1273.93 Q1891.94 1273.35 1889.14 1273.35 Q1879.21 1273.35 1873.86 1279.85 Q1868.58 1286.28 1868.58 1298.37 L1868.58 1335.93 L1856.8 1335.93 L1856.8 1264.63 L1868.58 1264.63 L1868.58 1275.71 Q1872.27 1269.22 1878.19 1266.1 Q1884.11 1262.91 1892.58 1262.91 Q1893.79 1262.91 1895.25 1263.1 Q1896.71 1263.23 1898.5 1263.55 L1898.56 1275.58 Z" fill="#000000" fill-rule="nonzero" fill-opacity="1" /><path clip-path="url(#clip590)" d="M1956.3 1266.73 L1956.3 1277.81 Q1951.33 1275.26 1945.98 1273.99 Q1940.64 1272.72 1934.91 1272.72 Q1926.19 1272.72 1921.79 1275.39 Q1917.47 1278.06 1917.47 1283.41 Q1917.47 1287.48 1920.59 1289.84 Q1923.7 1292.13 1933.13 1294.23 L1937.14 1295.12 Q1949.61 1297.8 1954.83 1302.7 Q1960.12 1307.54 1960.12 1316.26 Q1960.12 1326.19 1952.22 1331.98 Q1944.39 1337.77 1930.64 1337.77 Q1924.91 1337.77 1918.68 1336.63 Q1912.5 1335.55 1905.63 1333.32 L1905.63 1321.22 Q1912.12 1324.6 1918.42 1326.32 Q1924.72 1327.97 1930.9 1327.97 Q1939.17 1327.97 1943.63 1325.17 Q1948.08 1322.31 1948.08 1317.15 Q1948.08 1312.37 1944.84 1309.83 Q1941.66 1307.28 1930.77 1304.93 L1926.7 1303.97 Q1915.81 1301.68 1910.97 1296.97 Q1906.13 1292.2 1906.13 1283.92 Q1906.13 1273.86 1913.26 1268.39 Q1920.39 1262.91 1933.51 1262.91 Q1940 1262.91 1945.73 1263.87 Q1951.46 1264.82 1956.3 1266.73 Z" fill="#000000" fill-rule="nonzero" fill-opacity="1" /><polyline clip-path="url(#clip592)" style="stroke:#000000; stroke-linecap:round; stroke-linejoin:round; stroke-width:4; stroke-opacity:0.1; fill:none" points="1266.39,1054.25 2305.51,1054.25 "/>
<polyline clip-path="url(#clip592)" style="stroke:#000000; stroke-linecap:round; stroke-linejoin:round; stroke-width:4; stroke-opacity:0.1; fill:none" points="1266.39,757.225 2305.51,757.225 "/>
<polyline clip-path="url(#clip592)" style="stroke:#000000; stroke-linecap:round; stroke-linejoin:round; stroke-width:4; stroke-opacity:0.1; fill:none" points="1266.39,460.204 2305.51,460.204 "/>
<polyline clip-path="url(#clip592)" style="stroke:#000000; stroke-linecap:round; stroke-linejoin:round; stroke-width:4; stroke-opacity:0.1; fill:none" points="1266.39,163.183 2305.51,163.183 "/>
<polyline clip-path="url(#clip590)" style="stroke:#000000; stroke-linecap:round; stroke-linejoin:round; stroke-width:8; stroke-opacity:1; fill:none" points="1266.39,1082.2 1266.39,94.4882 "/>
<polyline clip-path="url(#clip590)" style="stroke:#000000; stroke-linecap:round; stroke-linejoin:round; stroke-width:8; stroke-opacity:1; fill:none" points="1266.39,1054.25 1285.29,1054.25 "/>
<polyline clip-path="url(#clip590)" style="stroke:#000000; stroke-linecap:round; stroke-linejoin:round; stroke-width:8; stroke-opacity:1; fill:none" points="1266.39,757.225 1285.29,757.225 "/>
<polyline clip-path="url(#clip590)" style="stroke:#000000; stroke-linecap:round; stroke-linejoin:round; stroke-width:8; stroke-opacity:1; fill:none" points="1266.39,460.204 1285.29,460.204 "/>
<polyline clip-path="url(#clip590)" style="stroke:#000000; stroke-linecap:round; stroke-linejoin:round; stroke-width:8; stroke-opacity:1; fill:none" points="1266.39,163.183 1285.29,163.183 "/>
<path clip-path="url(#clip590)" d="M1206.5 1025.84 Q1199.28 1025.84 1195.62 1032.97 Q1192.01 1040.06 1192.01 1054.32 Q1192.01 1068.53 1195.62 1075.66 Q1199.28 1082.74 1206.5 1082.74 Q1213.77 1082.74 1217.38 1075.66 Q1221.04 1068.53 1221.04 1054.32 Q1221.04 1040.06 1217.38 1032.97 Q1213.77 1025.84 1206.5 1025.84 M1206.5 1018.44 Q1218.12 1018.44 1224.23 1027.65 Q1230.39 1036.82 1230.39 1054.32 Q1230.39 1071.77 1224.23 1080.98 Q1218.12 1090.15 1206.5 1090.15 Q1194.88 1090.15 1188.72 1080.98 Q1182.61 1071.77 1182.61 1054.32 Q1182.61 1036.82 1188.72 1027.65 Q1194.88 1018.44 1206.5 1018.44 Z" fill="#000000" fill-rule="nonzero" fill-opacity="1" /><path clip-path="url(#clip590)" d="M798.739 735.56 L835.452 735.56 L835.452 743.43 L807.304 743.43 L807.304 760.375 Q809.341 759.68 811.378 759.356 Q813.415 758.986 815.452 758.986 Q827.026 758.986 833.785 765.328 Q840.544 771.671 840.544 782.504 Q840.544 793.661 833.6 799.865 Q826.656 806.022 814.017 806.022 Q809.665 806.022 805.128 805.282 Q800.637 804.541 795.822 803.06 L795.822 793.661 Q799.989 795.93 804.434 797.041 Q808.878 798.152 813.832 798.152 Q821.841 798.152 826.517 793.939 Q831.193 789.726 831.193 782.504 Q831.193 775.282 826.517 771.069 Q821.841 766.856 813.832 766.856 Q810.082 766.856 806.332 767.689 Q802.628 768.523 798.739 770.282 L798.739 735.56 Z" fill="#000000" fill-rule="nonzero" fill-opacity="1" /><path clip-path="url(#clip590)" d="M858.97 792.921 L868.739 792.921 L868.739 804.68 L858.97 804.68 L858.97 792.921 Z" fill="#000000" fill-rule="nonzero" fill-opacity="1" /><path clip-path="url(#clip590)" d="M909.109 741.717 Q901.887 741.717 898.229 748.847 Q894.618 755.93 894.618 770.189 Q894.618 784.402 898.229 791.532 Q901.887 798.615 909.109 798.615 Q916.377 798.615 919.988 791.532 Q923.646 784.402 923.646 770.189 Q923.646 755.93 919.988 748.847 Q916.377 741.717 909.109 741.717 M909.109 734.31 Q920.729 734.31 926.84 743.523 Q932.998 752.689 932.998 770.189 Q932.998 787.643 926.84 796.856 Q920.729 806.022 909.109 806.022 Q897.489 806.022 891.331 796.856 Q885.22 787.643 885.22 770.189 Q885.22 752.689 891.331 743.523 Q897.489 734.31 909.109 734.31 Z" fill="#000000" fill-rule="nonzero" fill-opacity="1" /><path clip-path="url(#clip590)" d="M969.433 741.717 Q962.21 741.717 958.553 748.847 Q954.942 755.93 954.942 770.189 Q954.942 784.402 958.553 791.532 Q962.21 798.615 969.433 798.615 Q976.701 798.615 980.312 791.532 Q983.97 784.402 983.97 770.189 Q983.97 755.93 980.312 748.847 Q976.701 741.717 969.433 741.717 M969.433 734.31 Q981.053 734.31 987.164 743.523 Q993.321 752.689 993.321 770.189 Q993.321 787.643 987.164 796.856 Q981.053 806.022 969.433 806.022 Q957.812 806.022 951.655 796.856 Q945.544 787.643 945.544 770.189 Q945.544 752.689 951.655 743.523 Q957.812 734.31 969.433 734.31 Z" fill="#000000" fill-rule="nonzero" fill-opacity="1" /><path clip-path="url(#clip590)" d="M1066.1 753.754 L1044.94 775.004 L1066.1 796.161 L1060.59 801.763 L1039.34 780.513 L1018.09 801.763 L1012.63 796.161 L1033.74 775.004 L1012.63 753.754 L1018.09 748.152 L1039.34 769.402 L1060.59 748.152 L1066.1 753.754 Z" fill="#000000" fill-rule="nonzero" fill-opacity="1" /><path clip-path="url(#clip590)" d="M1090.82 796.81 L1106.1 796.81 L1106.1 744.078 L1089.48 747.412 L1089.48 738.893 L1106.01 735.56 L1115.36 735.56 L1115.36 796.81 L1130.64 796.81 L1130.64 804.68 L1090.82 804.68 L1090.82 796.81 Z" fill="#000000" fill-rule="nonzero" fill-opacity="1" /><path clip-path="url(#clip590)" d="M1169.52 741.717 Q1162.3 741.717 1158.64 748.847 Q1155.03 755.93 1155.03 770.189 Q1155.03 784.402 1158.64 791.532 Q1162.3 798.615 1169.52 798.615 Q1176.79 798.615 1180.4 791.532 Q1184.06 784.402 1184.06 770.189 Q1184.06 755.93 1180.4 748.847 Q1176.79 741.717 1169.52 741.717 M1169.52 734.31 Q1181.14 734.31 1187.26 743.523 Q1193.41 752.689 1193.41 770.189 Q1193.41 787.643 1187.26 796.856 Q1181.14 806.022 1169.52 806.022 Q1157.9 806.022 1151.75 796.856 Q1145.64 787.643 1145.64 770.189 Q1145.64 752.689 1151.75 743.523 Q1157.9 734.31 1169.52 734.31 Z" fill="#000000" fill-rule="nonzero" fill-opacity="1" /><path clip-path="url(#clip590)" d="M1218.8 719.579 Q1224.26 720.745 1227.3 724.431 Q1230.39 728.117 1230.39 733.534 Q1230.39 741.847 1224.67 746.398 Q1218.95 750.95 1208.42 750.95 Q1204.89 750.95 1201.12 750.235 Q1197.4 749.558 1193.41 748.166 L1193.41 740.831 Q1196.57 742.675 1200.33 743.615 Q1204.1 744.555 1208.2 744.555 Q1215.34 744.555 1219.07 741.734 Q1222.83 738.913 1222.83 733.534 Q1222.83 728.569 1219.33 725.785 Q1215.87 722.964 1209.66 722.964 L1203.12 722.964 L1203.12 716.72 L1209.96 716.72 Q1215.57 716.72 1218.54 714.501 Q1221.51 712.244 1221.51 708.031 Q1221.51 703.705 1218.43 701.41 Q1215.38 699.078 1209.66 699.078 Q1206.54 699.078 1202.97 699.755 Q1199.39 700.432 1195.11 701.862 L1195.11 695.091 Q1199.43 693.887 1203.19 693.285 Q1206.99 692.683 1210.34 692.683 Q1218.99 692.683 1224.03 696.633 Q1229.07 700.545 1229.07 707.241 Q1229.07 711.905 1226.4 715.14 Q1223.73 718.337 1218.8 719.579 Z" fill="#000000" fill-rule="nonzero" fill-opacity="1" /><path clip-path="url(#clip590)" d="M796.317 499.789 L811.595 499.789 L811.595 447.058 L794.975 450.391 L794.975 441.872 L811.502 438.539 L820.854 438.539 L820.854 499.789 L836.132 499.789 L836.132 507.659 L796.317 507.659 L796.317 499.789 Z" fill="#000000" fill-rule="nonzero" fill-opacity="1" /><path clip-path="url(#clip590)" d="M855.021 495.9 L864.789 495.9 L864.789 507.659 L855.021 507.659 L855.021 495.9 Z" fill="#000000" fill-rule="nonzero" fill-opacity="1" /><path clip-path="url(#clip590)" d="M905.159 444.696 Q897.937 444.696 894.28 451.826 Q890.669 458.909 890.669 473.168 Q890.669 487.381 894.28 494.511 Q897.937 501.594 905.159 501.594 Q912.428 501.594 916.039 494.511 Q919.696 487.381 919.696 473.168 Q919.696 458.909 916.039 451.826 Q912.428 444.696 905.159 444.696 M905.159 437.289 Q916.78 437.289 922.891 446.502 Q929.048 455.669 929.048 473.168 Q929.048 490.622 922.891 499.835 Q916.78 509.002 905.159 509.002 Q893.539 509.002 887.382 499.835 Q881.27 490.622 881.27 473.168 Q881.27 455.669 887.382 446.502 Q893.539 437.289 905.159 437.289 Z" fill="#000000" fill-rule="nonzero" fill-opacity="1" /><path clip-path="url(#clip590)" d="M965.483 444.696 Q958.261 444.696 954.603 451.826 Q950.992 458.909 950.992 473.168 Q950.992 487.381 954.603 494.511 Q958.261 501.594 965.483 501.594 Q972.751 501.594 976.363 494.511 Q980.02 487.381 980.02 473.168 Q980.02 458.909 976.363 451.826 Q972.751 444.696 965.483 444.696 M965.483 437.289 Q977.103 437.289 983.214 446.502 Q989.372 455.669 989.372 473.168 Q989.372 490.622 983.214 499.835 Q977.103 509.002 965.483 509.002 Q953.863 509.002 947.705 499.835 Q941.594 490.622 941.594 473.168 Q941.594 455.669 947.705 446.502 Q953.863 437.289 965.483 437.289 Z" fill="#000000" fill-rule="nonzero" fill-opacity="1" /><path clip-path="url(#clip590)" d="M1062.15 456.733 L1040.99 477.983 L1062.15 499.141 L1056.64 504.742 L1035.39 483.492 L1014.14 504.742 L1008.68 499.141 L1029.79 477.983 L1008.68 456.733 L1014.14 451.132 L1035.39 472.381 L1056.64 451.132 L1062.15 456.733 Z" fill="#000000" fill-rule="nonzero" fill-opacity="1" /><path clip-path="url(#clip590)" d="M1086.87 499.789 L1102.15 499.789 L1102.15 447.058 L1085.53 450.391 L1085.53 441.872 L1102.06 438.539 L1111.41 438.539 L1111.41 499.789 L1126.69 499.789 L1126.69 507.659 L1086.87 507.659 L1086.87 499.789 Z" fill="#000000" fill-rule="nonzero" fill-opacity="1" /><path clip-path="url(#clip590)" d="M1165.57 444.696 Q1158.35 444.696 1154.69 451.826 Q1151.08 458.909 1151.08 473.168 Q1151.08 487.381 1154.69 494.511 Q1158.35 501.594 1165.57 501.594 Q1172.84 501.594 1176.45 494.511 Q1180.11 487.381 1180.11 473.168 Q1180.11 458.909 1176.45 451.826 Q1172.84 444.696 1165.57 444.696 M1165.57 437.289 Q1177.19 437.289 1183.31 446.502 Q1189.46 455.669 1189.46 473.168 Q1189.46 490.622 1183.31 499.835 Q1177.19 509.002 1165.57 509.002 Q1153.95 509.002 1147.8 499.835 Q1141.69 490.622 1141.69 473.168 Q1141.69 455.669 1147.8 446.502 Q1153.95 437.289 1165.57 437.289 Z" fill="#000000" fill-rule="nonzero" fill-opacity="1" /><path clip-path="url(#clip590)" d="M1214.82 403.299 L1195.63 433.278 L1214.82 433.278 L1214.82 403.299 M1212.82 396.678 L1222.38 396.678 L1222.38 433.278 L1230.39 433.278 L1230.39 439.598 L1222.38 439.598 L1222.38 452.838 L1214.82 452.838 L1214.82 439.598 L1189.46 439.598 L1189.46 432.263 L1212.82 396.678 Z" fill="#000000" fill-rule="nonzero" fill-opacity="1" /><path clip-path="url(#clip590)" d="M796.317 202.768 L811.595 202.768 L811.595 150.037 L794.975 153.37 L794.975 144.851 L811.502 141.518 L820.854 141.518 L820.854 202.768 L836.132 202.768 L836.132 210.638 L796.317 210.638 L796.317 202.768 Z" fill="#000000" fill-rule="nonzero" fill-opacity="1" /><path clip-path="url(#clip590)" d="M855.021 198.879 L864.789 198.879 L864.789 210.638 L855.021 210.638 L855.021 198.879 Z" fill="#000000" fill-rule="nonzero" fill-opacity="1" /><path clip-path="url(#clip590)" d="M885.252 141.518 L921.965 141.518 L921.965 149.388 L893.817 149.388 L893.817 166.333 Q895.854 165.638 897.891 165.314 Q899.928 164.944 901.965 164.944 Q913.539 164.944 920.298 171.287 Q927.057 177.629 927.057 188.462 Q927.057 199.62 920.113 205.823 Q913.168 211.981 900.53 211.981 Q896.178 211.981 891.641 211.24 Q887.15 210.499 882.335 209.018 L882.335 199.62 Q886.502 201.888 890.946 202.999 Q895.391 204.11 900.344 204.11 Q908.354 204.11 913.03 199.897 Q917.705 195.685 917.705 188.462 Q917.705 181.24 913.03 177.027 Q908.354 172.814 900.344 172.814 Q896.594 172.814 892.844 173.648 Q889.141 174.481 885.252 176.24 L885.252 141.518 Z" fill="#000000" fill-rule="nonzero" fill-opacity="1" /><path clip-path="url(#clip590)" d="M965.483 147.676 Q958.261 147.676 954.603 154.805 Q950.992 161.888 950.992 176.148 Q950.992 190.36 954.603 197.49 Q958.261 204.573 965.483 204.573 Q972.751 204.573 976.363 197.49 Q980.02 190.36 980.02 176.148 Q980.02 161.888 976.363 154.805 Q972.751 147.676 965.483 147.676 M965.483 140.268 Q977.103 140.268 983.214 149.481 Q989.372 158.648 989.372 176.148 Q989.372 193.601 983.214 202.814 Q977.103 211.981 965.483 211.981 Q953.863 211.981 947.705 202.814 Q941.594 193.601 941.594 176.148 Q941.594 158.648 947.705 149.481 Q953.863 140.268 965.483 140.268 Z" fill="#000000" fill-rule="nonzero" fill-opacity="1" /><path clip-path="url(#clip590)" d="M1062.15 159.713 L1040.99 180.962 L1062.15 202.12 L1056.64 207.722 L1035.39 186.472 L1014.14 207.722 L1008.68 202.12 L1029.79 180.962 L1008.68 159.713 L1014.14 154.111 L1035.39 175.361 L1056.64 154.111 L1062.15 159.713 Z" fill="#000000" fill-rule="nonzero" fill-opacity="1" /><path clip-path="url(#clip590)" d="M1086.87 202.768 L1102.15 202.768 L1102.15 150.037 L1085.53 153.37 L1085.53 144.851 L1102.06 141.518 L1111.41 141.518 L1111.41 202.768 L1126.69 202.768 L1126.69 210.638 L1086.87 210.638 L1086.87 202.768 Z" fill="#000000" fill-rule="nonzero" fill-opacity="1" /><path clip-path="url(#clip590)" d="M1165.57 147.676 Q1158.35 147.676 1154.69 154.805 Q1151.08 161.888 1151.08 176.148 Q1151.08 190.36 1154.69 197.49 Q1158.35 204.573 1165.57 204.573 Q1172.84 204.573 1176.45 197.49 Q1180.11 190.36 1180.11 176.148 Q1180.11 161.888 1176.45 154.805 Q1172.84 147.676 1165.57 147.676 M1165.57 140.268 Q1177.19 140.268 1183.31 149.481 Q1189.46 158.648 1189.46 176.148 Q1189.46 193.601 1183.31 202.814 Q1177.19 211.981 1165.57 211.981 Q1153.95 211.981 1147.8 202.814 Q1141.69 193.601 1141.69 176.148 Q1141.69 158.648 1147.8 149.481 Q1153.95 140.268 1165.57 140.268 Z" fill="#000000" fill-rule="nonzero" fill-opacity="1" /><path clip-path="url(#clip590)" d="M1214.82 106.278 L1195.63 136.257 L1214.82 136.257 L1214.82 106.278 M1212.82 99.6574 L1222.38 99.6574 L1222.38 136.257 L1230.39 136.257 L1230.39 142.577 L1222.38 142.577 L1222.38 155.817 L1214.82 155.817 L1214.82 142.577 L1189.46 142.577 L1189.46 135.242 L1212.82 99.6574 Z" fill="#000000" fill-rule="nonzero" fill-opacity="1" /><path clip-path="url(#clip590)" d="M659.167 1010.23 L659.167 998.518 L730.463 998.518 L730.463 1010.23 L659.167 1010.23 M631.412 1010.23 L631.412 998.518 L646.244 998.518 L646.244 1010.23 L631.412 1010.23 Z" fill="#000000" fill-rule="nonzero" fill-opacity="1" /><path clip-path="url(#clip590)" d="M687.43 914.746 L730.463 914.746 L730.463 926.458 L687.812 926.458 Q677.691 926.458 672.662 930.405 Q667.633 934.352 667.633 942.245 Q667.633 951.73 673.681 957.205 Q679.728 962.679 690.168 962.679 L730.463 962.679 L730.463 974.456 L659.167 974.456 L659.167 962.679 L670.243 962.679 Q663.814 958.478 660.631 952.812 Q657.448 947.083 657.448 939.635 Q657.448 927.35 665.087 921.048 Q672.662 914.746 687.43 914.746 Z" fill="#000000" fill-rule="nonzero" fill-opacity="1" /><path clip-path="url(#clip590)" d="M631.412 855.29 L641.152 855.29 L641.152 866.493 Q641.152 872.796 643.698 875.278 Q646.244 877.697 652.865 877.697 L659.167 877.697 L659.167 858.409 L668.27 858.409 L668.27 877.697 L730.463 877.697 L730.463 889.474 L668.27 889.474 L668.27 900.677 L659.167 900.677 L659.167 889.474 L654.201 889.474 Q642.298 889.474 636.887 883.936 Q631.412 878.397 631.412 866.366 L631.412 855.29 Z" fill="#000000" fill-rule="nonzero" fill-opacity="1" /><path clip-path="url(#clip590)" d="M702.326 846.696 L659.167 846.696 L659.167 834.983 L701.881 834.983 Q712.002 834.983 717.095 831.037 Q722.124 827.09 722.124 819.196 Q722.124 809.711 716.076 804.237 Q710.029 798.699 699.589 798.699 L659.167 798.699 L659.167 786.986 L730.463 786.986 L730.463 798.699 L719.514 798.699 Q726.007 802.964 729.19 808.629 Q732.309 814.231 732.309 821.679 Q732.309 833.965 724.67 840.33 Q717.031 846.696 702.326 846.696 M657.448 817.223 L657.448 817.223 Z" fill="#000000" fill-rule="nonzero" fill-opacity="1" /><path clip-path="url(#clip590)" d="M661.267 717.409 L672.344 717.409 Q669.797 722.374 668.524 727.721 Q667.251 733.068 667.251 738.797 Q667.251 747.518 669.925 751.911 Q672.598 756.239 677.946 756.239 Q682.02 756.239 684.375 753.12 Q686.667 750.001 688.767 740.58 L689.658 736.569 Q692.332 724.093 697.234 718.873 Q702.072 713.589 710.793 713.589 Q720.723 713.589 726.516 721.483 Q732.309 729.313 732.309 743.062 Q732.309 748.792 731.163 755.03 Q730.081 761.205 727.853 768.08 L715.758 768.08 Q719.132 761.587 720.85 755.285 Q722.506 748.983 722.506 742.808 Q722.506 734.532 719.705 730.076 Q716.84 725.62 711.684 725.62 Q706.91 725.62 704.363 728.867 Q701.817 732.05 699.462 742.935 L698.507 747.009 Q696.215 757.895 691.505 762.732 Q686.73 767.57 678.455 767.57 Q668.397 767.57 662.923 760.441 Q657.448 753.311 657.448 740.198 Q657.448 733.705 658.403 727.976 Q659.358 722.247 661.267 717.409 Z" fill="#000000" fill-rule="nonzero" fill-opacity="1" /><path clip-path="url(#clip590)" d="M691.886 633.954 L697.616 633.954 L697.616 687.808 Q709.71 687.044 716.076 680.551 Q722.378 673.995 722.378 662.345 Q722.378 655.598 720.723 649.296 Q719.068 642.93 715.758 636.691 L726.834 636.691 Q729.508 642.994 730.908 649.614 Q732.309 656.234 732.309 663.046 Q732.309 680.106 722.378 690.1 Q712.448 700.03 695.515 700.03 Q678.009 700.03 667.76 690.609 Q657.448 681.124 657.448 665.083 Q657.448 650.696 666.742 642.357 Q675.972 633.954 691.886 633.954 M688.449 645.667 Q678.837 645.794 673.108 651.078 Q667.378 656.298 667.378 664.955 Q667.378 674.758 672.917 680.679 Q678.455 686.535 688.513 687.426 L688.449 645.667 Z" fill="#000000" fill-rule="nonzero" fill-opacity="1" /><path clip-path="url(#clip590)" d="M669.988 567.815 L631.412 567.815 L631.412 556.102 L730.463 556.102 L730.463 567.815 L719.768 567.815 Q726.134 571.507 729.253 577.172 Q732.309 582.774 732.309 590.667 Q732.309 603.59 721.996 611.738 Q711.684 619.822 694.878 619.822 Q678.073 619.822 667.76 611.738 Q657.448 603.59 657.448 590.667 Q657.448 582.774 660.567 577.172 Q663.623 571.507 669.988 567.815 M694.878 607.728 Q707.801 607.728 715.185 602.444 Q722.506 597.097 722.506 587.803 Q722.506 578.509 715.185 573.162 Q707.801 567.815 694.878 567.815 Q681.956 567.815 674.635 573.162 Q667.251 578.509 667.251 587.803 Q667.251 597.097 674.635 602.444 Q681.956 607.728 694.878 607.728 Z" fill="#000000" fill-rule="nonzero" fill-opacity="1" /><path clip-path="url(#clip590)" d="M672.853 435.026 Q664.96 430.634 661.204 424.522 Q657.448 418.411 657.448 410.136 Q657.448 398.996 665.278 392.949 Q673.044 386.901 687.43 386.901 L730.463 386.901 L730.463 398.678 L687.812 398.678 Q677.564 398.678 672.598 402.306 Q667.633 405.935 667.633 413.382 Q667.633 422.485 673.681 427.769 Q679.728 433.053 690.168 433.053 L730.463 433.053 L730.463 444.829 L687.812 444.829 Q677.5 444.829 672.598 448.458 Q667.633 452.086 667.633 459.661 Q667.633 468.637 673.744 473.92 Q679.792 479.204 690.168 479.204 L730.463 479.204 L730.463 490.98 L659.167 490.98 L659.167 479.204 L670.243 479.204 Q663.686 475.194 660.567 469.592 Q657.448 463.99 657.448 456.287 Q657.448 448.521 661.395 443.11 Q665.341 437.636 672.853 435.026 Z" fill="#000000" fill-rule="nonzero" fill-opacity="1" /><path clip-path="url(#clip590)" d="M694.624 331.138 Q694.624 345.333 697.87 350.808 Q701.117 356.282 708.947 356.282 Q715.185 356.282 718.877 352.208 Q722.506 348.07 722.506 341.004 Q722.506 331.265 715.631 325.408 Q708.692 319.488 697.234 319.488 L694.624 319.488 L694.624 331.138 M689.786 307.775 L730.463 307.775 L730.463 319.488 L719.641 319.488 Q726.134 323.499 729.253 329.482 Q732.309 335.466 732.309 344.124 Q732.309 355.073 726.198 361.566 Q720.023 367.995 709.71 367.995 Q697.679 367.995 691.568 359.974 Q685.457 351.89 685.457 335.912 L685.457 319.488 L684.311 319.488 Q676.227 319.488 671.834 324.836 Q667.378 330.119 667.378 339.731 Q667.378 345.842 668.843 351.635 Q670.307 357.428 673.235 362.775 L662.413 362.775 Q659.931 356.346 658.721 350.298 Q657.448 344.251 657.448 338.522 Q657.448 323.053 665.469 315.414 Q673.49 307.775 689.786 307.775 Z" fill="#000000" fill-rule="nonzero" fill-opacity="1" /><path clip-path="url(#clip590)" d="M661.267 238.198 L672.344 238.198 Q669.797 243.163 668.524 248.511 Q667.251 253.858 667.251 259.587 Q667.251 268.308 669.925 272.7 Q672.598 277.029 677.946 277.029 Q682.02 277.029 684.375 273.91 Q686.667 270.791 688.767 261.369 L689.658 257.359 Q692.332 244.882 697.234 239.662 Q702.072 234.379 710.793 234.379 Q720.723 234.379 726.516 242.272 Q732.309 250.102 732.309 263.852 Q732.309 269.581 731.163 275.82 Q730.081 281.994 727.853 288.869 L715.758 288.869 Q719.132 282.376 720.85 276.074 Q722.506 269.772 722.506 263.597 Q722.506 255.322 719.705 250.866 Q716.84 246.41 711.684 246.41 Q706.91 246.41 704.363 249.657 Q701.817 252.839 699.462 263.725 L698.507 267.799 Q696.215 278.684 691.505 283.522 Q686.73 288.36 678.455 288.36 Q668.397 288.36 662.923 281.23 Q657.448 274.101 657.448 260.987 Q657.448 254.494 658.403 248.765 Q659.358 243.036 661.267 238.198 Z" fill="#000000" fill-rule="nonzero" fill-opacity="1" /><path clip-path="url(#clip590)" d="M661.267 170.276 L672.344 170.276 Q669.797 175.241 668.524 180.589 Q667.251 185.936 667.251 191.665 Q667.251 200.386 669.925 204.778 Q672.598 209.107 677.946 209.107 Q682.02 209.107 684.375 205.988 Q686.667 202.869 688.767 193.447 L689.658 189.437 Q692.332 176.96 697.234 171.74 Q702.072 166.457 710.793 166.457 Q720.723 166.457 726.516 174.35 Q732.309 182.18 732.309 195.93 Q732.309 201.659 731.163 207.897 Q730.081 214.072 727.853 220.947 L715.758 220.947 Q719.132 214.454 720.85 208.152 Q722.506 201.85 722.506 195.675 Q722.506 187.4 719.705 182.944 Q716.84 178.488 711.684 178.488 Q706.91 178.488 704.363 181.734 Q701.817 184.917 699.462 195.803 L698.507 199.877 Q696.215 210.762 691.505 215.6 Q686.73 220.438 678.455 220.438 Q668.397 220.438 662.923 213.308 Q657.448 206.179 657.448 193.065 Q657.448 186.572 658.403 180.843 Q659.358 175.114 661.267 170.276 Z" fill="#000000" fill-rule="nonzero" fill-opacity="1" /><polyline clip-path="url(#clip592)" style="stroke:#009af9; stroke-linecap:round; stroke-linejoin:round; stroke-width:8; stroke-opacity:1; fill:none" points="1295.8,373.436 1299.4,406.302 1300.87,413.666 1303.45,422.622 1306.02,428.861 1309.19,434.735 1312.88,440.387 1317.53,446.566 1323.58,453.717 1331.93,462.522 1343.07,472.898 1357.15,484.468 1375.24,497.58 1398.39,512.372 1428.1,529.117 1466.06,547.987 1514,569.035 1574.17,592.377 1650.61,618.49 1750.36,648.156 1883.36,681.959 2048.11,717.213 2243.53,752.355 2276.1,757.67 "/>
<polyline clip-path="url(#clip592)" style="stroke:#e26f46; stroke-linecap:round; stroke-linejoin:round; stroke-width:8; stroke-opacity:1; fill:none" points="1295.8,853.655 1299.4,836.242 1300.87,832.525 1303.45,828.225 1306.02,825.455 1309.19,823.064 1312.88,820.965 1317.53,818.867 1323.58,816.667 1331.93,814.278 1343.07,811.922 1357.15,809.885 1375.24,808.32 1398.39,807.477 1428.1,807.643 1466.06,809.152 1514,812.329 1574.17,817.492 1650.61,825.09 1750.36,835.837 1883.36,850.59 2048.11,868.459 2243.53,888.182 2276.1,891.28 "/>
<polyline clip-path="url(#clip592)" style="stroke:#3da44d; stroke-linecap:round; stroke-linejoin:round; stroke-width:8; stroke-opacity:1; fill:none" points="1295.8,1003.84 1299.4,988.707 1300.87,985.209 1303.45,980.828 1306.02,977.649 1309.19,974.535 1312.88,971.432 1317.53,967.939 1323.58,963.788 1331.93,958.536 1343.07,952.165 1357.15,944.861 1375.24,936.391 1398.39,926.694 1428.1,915.703 1466.06,903.547 1514,890.61 1574.17,877.45 1650.61,864.726 1750.36,853.499 1883.36,845.776 2048.11,844.365 2243.53,850.168 2276.1,851.663 "/>
<polyline clip-path="url(#clip592)" style="stroke:#c271d2; stroke-linecap:round; stroke-linejoin:round; stroke-width:8; stroke-opacity:1; fill:none" points="1295.8,1054.25 1299.4,1053.93 1300.87,1053.78 1303.45,1053.5 1306.02,1053.21 1309.19,1052.84 1312.88,1052.39 1317.53,1051.81 1323.58,1051.01 1331.93,1049.84 1343.07,1048.19 1357.15,1045.97 1375.24,1042.89 1398.39,1038.64 1428.1,1032.72 1466.06,1024.49 1514,1013.21 1574.17,997.86 1650.61,976.873 1750.36,947.687 1883.36,906.854 2048.11,855.143 2243.53,794.474 2276.1,784.566 "/>
<polyline clip-path="url(#clip592)" style="stroke:#ac8d18; stroke-linecap:round; stroke-linejoin:round; stroke-width:8; stroke-opacity:1; fill:none" points="1295.8,122.442 1299.4,122.442 1300.87,122.442 1303.45,122.442 1306.02,122.442 1309.19,122.442 1312.88,122.442 1317.53,122.442 1323.58,122.442 1331.93,122.442 1343.07,122.442 1357.15,122.442 1375.24,122.442 1398.39,122.442 1428.1,122.442 1466.06,122.442 1514,122.442 1574.17,122.442 1650.61,122.442 1750.36,122.442 1883.36,122.442 2048.11,122.442 2243.53,122.442 2276.1,122.442 "/>
<path clip-path="url(#clip590)" d="M1760.99 880.468 L2270.87 880.468 L2270.87 258.388 L1760.99 258.388  Z" fill="#ffffff" fill-rule="evenodd" fill-opacity="1"/>
<polyline clip-path="url(#clip590)" style="stroke:#000000; stroke-linecap:round; stroke-linejoin:round; stroke-width:8; stroke-opacity:1; fill:none" points="1760.99,880.468 2270.87,880.468 2270.87,258.388 1760.99,258.388 1760.99,880.468 "/>
<polyline clip-path="url(#clip590)" style="stroke:#009af9; stroke-linecap:round; stroke-linejoin:round; stroke-width:8; stroke-opacity:1; fill:none" points="1772.54,362.068 1841.81,362.068 "/>
<path clip-path="url(#clip590)" d="M1890.9 370.748 Q1890.9 361.35 1887.02 356.026 Q1883.17 350.656 1876.41 350.656 Q1869.65 350.656 1865.77 356.026 Q1861.92 361.35 1861.92 370.748 Q1861.92 380.146 1865.77 385.517 Q1869.65 390.841 1876.41 390.841 Q1883.17 390.841 1887.02 385.517 Q1890.9 380.146 1890.9 370.748 M1861.92 352.646 Q1864.61 348.017 1868.68 345.795 Q1872.8 343.526 1878.5 343.526 Q1887.94 343.526 1893.82 351.026 Q1899.75 358.526 1899.75 370.748 Q1899.75 382.97 1893.82 390.47 Q1887.94 397.97 1878.5 397.97 Q1872.8 397.97 1868.68 395.748 Q1864.61 393.48 1861.92 388.85 L1861.92 396.628 L1853.36 396.628 L1853.36 324.591 L1861.92 324.591 L1861.92 352.646 Z" fill="#000000" fill-rule="nonzero" fill-opacity="1" /><path clip-path="url(#clip590)" d="M1943.91 352.739 Q1942.48 351.906 1940.77 351.535 Q1939.1 351.119 1937.06 351.119 Q1929.84 351.119 1925.95 355.841 Q1922.11 360.517 1922.11 369.313 L1922.11 396.628 L1913.54 396.628 L1913.54 344.776 L1922.11 344.776 L1922.11 352.832 Q1924.79 348.109 1929.1 345.841 Q1933.4 343.526 1939.56 343.526 Q1940.44 343.526 1941.51 343.665 Q1942.57 343.758 1943.87 343.989 L1943.91 352.739 Z" fill="#000000" fill-rule="nonzero" fill-opacity="1" /><path clip-path="url(#clip590)" d="M1976.41 370.563 Q1966.09 370.563 1962.11 372.924 Q1958.13 375.285 1958.13 380.98 Q1958.13 385.517 1961.09 388.202 Q1964.1 390.841 1969.24 390.841 Q1976.32 390.841 1980.58 385.841 Q1984.89 380.794 1984.89 372.461 L1984.89 370.563 L1976.41 370.563 M1993.4 367.044 L1993.4 396.628 L1984.89 396.628 L1984.89 388.757 Q1981.97 393.48 1977.62 395.748 Q1973.27 397.97 1966.97 397.97 Q1959.01 397.97 1954.28 393.526 Q1949.61 389.035 1949.61 381.535 Q1949.61 372.785 1955.44 368.341 Q1961.32 363.896 1972.94 363.896 L1984.89 363.896 L1984.89 363.063 Q1984.89 357.183 1981 353.989 Q1977.15 350.748 1970.16 350.748 Q1965.72 350.748 1961.51 351.813 Q1957.29 352.878 1953.4 355.008 L1953.4 347.137 Q1958.08 345.332 1962.48 344.452 Q1966.88 343.526 1971.04 343.526 Q1982.29 343.526 1987.85 349.359 Q1993.4 355.193 1993.4 367.044 Z" fill="#000000" fill-rule="nonzero" fill-opacity="1" /><path clip-path="url(#clip590)" d="M2010.95 344.776 L2019.47 344.776 L2019.47 396.628 L2010.95 396.628 L2010.95 344.776 M2010.95 324.591 L2019.47 324.591 L2019.47 335.378 L2010.95 335.378 L2010.95 324.591 Z" fill="#000000" fill-rule="nonzero" fill-opacity="1" /><path clip-path="url(#clip590)" d="M2080.39 365.332 L2080.39 396.628 L2071.88 396.628 L2071.88 365.609 Q2071.88 358.248 2069.01 354.591 Q2066.14 350.933 2060.39 350.933 Q2053.5 350.933 2049.51 355.332 Q2045.53 359.73 2045.53 367.322 L2045.53 396.628 L2036.97 396.628 L2036.97 344.776 L2045.53 344.776 L2045.53 352.832 Q2048.59 348.156 2052.71 345.841 Q2056.88 343.526 2062.29 343.526 Q2071.23 343.526 2075.81 349.082 Q2080.39 354.591 2080.39 365.332 Z" fill="#000000" fill-rule="nonzero" fill-opacity="1" /><polyline clip-path="url(#clip590)" style="stroke:#e26f46; stroke-linecap:round; stroke-linejoin:round; stroke-width:8; stroke-opacity:1; fill:none" points="1772.54,465.748 1841.81,465.748 "/>
<path clip-path="url(#clip590)" d="M1853.36 448.456 L1862.39 448.456 L1878.59 491.974 L1894.79 448.456 L1903.82 448.456 L1884.38 500.308 L1872.8 500.308 L1853.36 448.456 Z" fill="#000000" fill-rule="nonzero" fill-opacity="1" /><path clip-path="url(#clip590)" d="M1959.93 472.252 L1959.93 476.419 L1920.77 476.419 Q1921.32 485.215 1926.04 489.845 Q1930.81 494.428 1939.28 494.428 Q1944.19 494.428 1948.77 493.224 Q1953.4 492.021 1957.94 489.613 L1957.94 497.669 Q1953.36 499.613 1948.54 500.632 Q1943.73 501.65 1938.77 501.65 Q1926.37 501.65 1919.1 494.428 Q1911.88 487.206 1911.88 474.891 Q1911.88 462.16 1918.73 454.706 Q1925.63 447.206 1937.29 447.206 Q1947.76 447.206 1953.82 453.965 Q1959.93 460.678 1959.93 472.252 M1951.41 469.752 Q1951.32 462.762 1947.48 458.595 Q1943.68 454.428 1937.39 454.428 Q1930.26 454.428 1925.95 458.456 Q1921.69 462.484 1921.04 469.799 L1951.41 469.752 Z" fill="#000000" fill-rule="nonzero" fill-opacity="1" /><path clip-path="url(#clip590)" d="M2017.02 469.012 L2017.02 500.308 L2008.5 500.308 L2008.5 469.289 Q2008.5 461.928 2005.63 458.271 Q2002.76 454.613 1997.02 454.613 Q1990.12 454.613 1986.14 459.012 Q1982.15 463.41 1982.15 471.002 L1982.15 500.308 L1973.59 500.308 L1973.59 448.456 L1982.15 448.456 L1982.15 456.512 Q1985.21 451.836 1989.33 449.521 Q1993.5 447.206 1998.91 447.206 Q2007.85 447.206 2012.43 452.762 Q2017.02 458.271 2017.02 469.012 Z" fill="#000000" fill-rule="nonzero" fill-opacity="1" /><path clip-path="url(#clip590)" d="M2042.43 433.734 L2042.43 448.456 L2059.98 448.456 L2059.98 455.076 L2042.43 455.076 L2042.43 483.224 Q2042.43 489.567 2044.14 491.373 Q2045.9 493.178 2051.23 493.178 L2059.98 493.178 L2059.98 500.308 L2051.23 500.308 Q2041.37 500.308 2037.62 496.65 Q2033.87 492.947 2033.87 483.224 L2033.87 455.076 L2027.62 455.076 L2027.62 448.456 L2033.87 448.456 L2033.87 433.734 L2042.43 433.734 Z" fill="#000000" fill-rule="nonzero" fill-opacity="1" /><path clip-path="url(#clip590)" d="M2101.23 456.419 Q2099.79 455.586 2098.08 455.215 Q2096.41 454.799 2094.38 454.799 Q2087.15 454.799 2083.26 459.521 Q2079.42 464.197 2079.42 472.993 L2079.42 500.308 L2070.86 500.308 L2070.86 448.456 L2079.42 448.456 L2079.42 456.512 Q2082.11 451.789 2086.41 449.521 Q2090.72 447.206 2096.88 447.206 Q2097.76 447.206 2098.82 447.345 Q2099.88 447.438 2101.18 447.669 L2101.23 456.419 Z" fill="#000000" fill-rule="nonzero" fill-opacity="1" /><path clip-path="url(#clip590)" d="M2110.16 448.456 L2118.68 448.456 L2118.68 500.308 L2110.16 500.308 L2110.16 448.456 M2110.16 428.271 L2118.68 428.271 L2118.68 439.058 L2110.16 439.058 L2110.16 428.271 Z" fill="#000000" fill-rule="nonzero" fill-opacity="1" /><path clip-path="url(#clip590)" d="M2173.82 450.447 L2173.82 458.41 Q2170.21 456.419 2166.55 455.447 Q2162.94 454.428 2159.24 454.428 Q2150.95 454.428 2146.37 459.706 Q2141.78 464.937 2141.78 474.428 Q2141.78 483.919 2146.37 489.197 Q2150.95 494.428 2159.24 494.428 Q2162.94 494.428 2166.55 493.456 Q2170.21 492.437 2173.82 490.447 L2173.82 498.317 Q2170.25 499.984 2166.41 500.817 Q2162.62 501.65 2158.31 501.65 Q2146.6 501.65 2139.7 494.289 Q2132.8 486.928 2132.8 474.428 Q2132.8 461.743 2139.75 454.475 Q2146.74 447.206 2158.87 447.206 Q2162.8 447.206 2166.55 448.039 Q2170.3 448.826 2173.82 450.447 Z" fill="#000000" fill-rule="nonzero" fill-opacity="1" /><path clip-path="url(#clip590)" d="M2188.63 428.271 L2197.15 428.271 L2197.15 500.308 L2188.63 500.308 L2188.63 428.271 Z" fill="#000000" fill-rule="nonzero" fill-opacity="1" /><path clip-path="url(#clip590)" d="M2259.33 472.252 L2259.33 476.419 L2220.16 476.419 Q2220.72 485.215 2225.44 489.845 Q2230.21 494.428 2238.68 494.428 Q2243.59 494.428 2248.17 493.224 Q2252.8 492.021 2257.34 489.613 L2257.34 497.669 Q2252.75 499.613 2247.94 500.632 Q2243.12 501.65 2238.17 501.65 Q2225.76 501.65 2218.5 494.428 Q2211.27 487.206 2211.27 474.891 Q2211.27 462.16 2218.13 454.706 Q2225.02 447.206 2236.69 447.206 Q2247.15 447.206 2253.22 453.965 Q2259.33 460.678 2259.33 472.252 M2250.81 469.752 Q2250.72 462.762 2246.87 458.595 Q2243.08 454.428 2236.78 454.428 Q2229.65 454.428 2225.35 458.456 Q2221.09 462.484 2220.44 469.799 L2250.81 469.752 Z" fill="#000000" fill-rule="nonzero" fill-opacity="1" /><polyline clip-path="url(#clip590)" style="stroke:#3da44d; stroke-linecap:round; stroke-linejoin:round; stroke-width:8; stroke-opacity:1; fill:none" points="1772.54,569.428 1841.81,569.428 "/>
<path clip-path="url(#clip590)" d="M1909.1 540.192 L1909.1 550.053 Q1904.38 545.655 1899.01 543.479 Q1893.68 541.303 1887.66 541.303 Q1875.81 541.303 1869.52 548.571 Q1863.22 555.793 1863.22 569.497 Q1863.22 583.154 1869.52 590.423 Q1875.81 597.645 1887.66 597.645 Q1893.68 597.645 1899.01 595.469 Q1904.38 593.293 1909.1 588.895 L1909.1 598.664 Q1904.19 601.997 1898.68 603.664 Q1893.22 605.33 1887.11 605.33 Q1871.41 605.33 1862.39 595.747 Q1853.36 586.117 1853.36 569.497 Q1853.36 552.831 1862.39 543.247 Q1871.41 533.618 1887.11 533.618 Q1893.31 533.618 1898.77 535.284 Q1904.28 536.905 1909.1 540.192 Z" fill="#000000" fill-rule="nonzero" fill-opacity="1" /><path clip-path="url(#clip590)" d="M1923.54 534.868 L1937.48 534.868 L1955.12 581.904 L1972.85 534.868 L1986.78 534.868 L1986.78 603.988 L1977.66 603.988 L1977.66 543.294 L1959.84 590.701 L1950.44 590.701 L1932.62 543.294 L1932.62 603.988 L1923.54 603.988 L1923.54 534.868 Z" fill="#000000" fill-rule="nonzero" fill-opacity="1" /><polyline clip-path="url(#clip590)" style="stroke:#c271d2; stroke-linecap:round; stroke-linejoin:round; stroke-width:8; stroke-opacity:1; fill:none" points="1772.54,673.108 1841.81,673.108 "/>
<path clip-path="url(#clip590)" d="M1890.9 681.788 Q1890.9 672.39 1887.02 667.066 Q1883.17 661.696 1876.41 661.696 Q1869.65 661.696 1865.77 667.066 Q1861.92 672.39 1861.92 681.788 Q1861.92 691.186 1865.77 696.557 Q1869.65 701.881 1876.41 701.881 Q1883.17 701.881 1887.02 696.557 Q1890.9 691.186 1890.9 681.788 M1861.92 663.686 Q1864.61 659.057 1868.68 656.835 Q1872.8 654.566 1878.5 654.566 Q1887.94 654.566 1893.82 662.066 Q1899.75 669.566 1899.75 681.788 Q1899.75 694.01 1893.82 701.51 Q1887.94 709.01 1878.5 709.01 Q1872.8 709.01 1868.68 706.788 Q1864.61 704.52 1861.92 699.89 L1861.92 707.668 L1853.36 707.668 L1853.36 635.631 L1861.92 635.631 L1861.92 663.686 Z" fill="#000000" fill-rule="nonzero" fill-opacity="1" /><path clip-path="url(#clip590)" d="M1913.87 635.631 L1922.39 635.631 L1922.39 707.668 L1913.87 707.668 L1913.87 635.631 Z" fill="#000000" fill-rule="nonzero" fill-opacity="1" /><path clip-path="url(#clip590)" d="M1960.3 661.788 Q1953.45 661.788 1949.47 667.159 Q1945.49 672.483 1945.49 681.788 Q1945.49 691.094 1949.42 696.464 Q1953.4 701.788 1960.3 701.788 Q1967.11 701.788 1971.09 696.418 Q1975.07 691.047 1975.07 681.788 Q1975.07 672.575 1971.09 667.205 Q1967.11 661.788 1960.3 661.788 M1960.3 654.566 Q1971.41 654.566 1977.76 661.788 Q1984.1 669.01 1984.1 681.788 Q1984.1 694.52 1977.76 701.788 Q1971.41 709.01 1960.3 709.01 Q1949.15 709.01 1942.8 701.788 Q1936.51 694.52 1936.51 681.788 Q1936.51 669.01 1942.8 661.788 Q1949.15 654.566 1960.3 654.566 Z" fill="#000000" fill-rule="nonzero" fill-opacity="1" /><path clip-path="url(#clip590)" d="M2018.31 661.788 Q2011.46 661.788 2007.48 667.159 Q2003.5 672.483 2003.5 681.788 Q2003.5 691.094 2007.43 696.464 Q2011.41 701.788 2018.31 701.788 Q2025.12 701.788 2029.1 696.418 Q2033.08 691.047 2033.08 681.788 Q2033.08 672.575 2029.1 667.205 Q2025.12 661.788 2018.31 661.788 M2018.31 654.566 Q2029.42 654.566 2035.76 661.788 Q2042.11 669.01 2042.11 681.788 Q2042.11 694.52 2035.76 701.788 Q2029.42 709.01 2018.31 709.01 Q2007.15 709.01 2000.81 701.788 Q1994.52 694.52 1994.52 681.788 Q1994.52 669.01 2000.81 661.788 Q2007.15 654.566 2018.31 654.566 Z" fill="#000000" fill-rule="nonzero" fill-opacity="1" /><path clip-path="url(#clip590)" d="M2090.35 663.686 L2090.35 635.631 L2098.87 635.631 L2098.87 707.668 L2090.35 707.668 L2090.35 699.89 Q2087.66 704.52 2083.54 706.788 Q2079.47 709.01 2073.73 709.01 Q2064.33 709.01 2058.4 701.51 Q2052.52 694.01 2052.52 681.788 Q2052.52 669.566 2058.4 662.066 Q2064.33 654.566 2073.73 654.566 Q2079.47 654.566 2083.54 656.835 Q2087.66 659.057 2090.35 663.686 M2061.32 681.788 Q2061.32 691.186 2065.16 696.557 Q2069.05 701.881 2075.81 701.881 Q2082.57 701.881 2086.46 696.557 Q2090.35 691.186 2090.35 681.788 Q2090.35 672.39 2086.46 667.066 Q2082.57 661.696 2075.81 661.696 Q2069.05 661.696 2065.16 667.066 Q2061.32 672.39 2061.32 681.788 Z" fill="#000000" fill-rule="nonzero" fill-opacity="1" /><polyline clip-path="url(#clip590)" style="stroke:#ac8d18; stroke-linecap:round; stroke-linejoin:round; stroke-width:8; stroke-opacity:1; fill:none" points="1772.54,776.788 1841.81,776.788 "/>
<path clip-path="url(#clip590)" d="M1890.21 761.024 L1890.21 769.079 Q1886.6 767.228 1882.71 766.302 Q1878.82 765.376 1874.65 765.376 Q1868.31 765.376 1865.12 767.32 Q1861.97 769.265 1861.97 773.153 Q1861.97 776.116 1864.24 777.829 Q1866.51 779.496 1873.36 781.024 L1876.28 781.672 Q1885.35 783.616 1889.15 787.181 Q1892.99 790.7 1892.99 797.042 Q1892.99 804.264 1887.25 808.477 Q1881.55 812.69 1871.55 812.69 Q1867.39 812.69 1862.85 811.857 Q1858.36 811.07 1853.36 809.45 L1853.36 800.653 Q1858.08 803.107 1862.66 804.357 Q1867.25 805.561 1871.74 805.561 Q1877.76 805.561 1881 803.524 Q1884.24 801.44 1884.24 797.69 Q1884.24 794.218 1881.88 792.366 Q1879.56 790.514 1871.65 788.801 L1868.68 788.107 Q1860.77 786.44 1857.25 783.014 Q1853.73 779.542 1853.73 773.524 Q1853.73 766.209 1858.91 762.228 Q1864.1 758.246 1873.64 758.246 Q1878.36 758.246 1882.53 758.941 Q1886.69 759.635 1890.21 761.024 Z" fill="#000000" fill-rule="nonzero" fill-opacity="1" /><path clip-path="url(#clip590)" d="M1905.67 790.885 L1905.67 759.496 L1914.19 759.496 L1914.19 790.561 Q1914.19 797.922 1917.06 801.625 Q1919.93 805.283 1925.67 805.283 Q1932.57 805.283 1936.55 800.885 Q1940.58 796.487 1940.58 788.894 L1940.58 759.496 L1949.1 759.496 L1949.1 811.348 L1940.58 811.348 L1940.58 803.385 Q1937.48 808.107 1933.36 810.422 Q1929.28 812.69 1923.87 812.69 Q1914.93 812.69 1910.3 807.135 Q1905.67 801.579 1905.67 790.885 M1927.11 758.246 L1927.11 758.246 Z" fill="#000000" fill-rule="nonzero" fill-opacity="1" /><path clip-path="url(#clip590)" d="M2007.02 769.45 Q2010.21 763.709 2014.65 760.978 Q2019.1 758.246 2025.12 758.246 Q2033.22 758.246 2037.62 763.941 Q2042.01 769.589 2042.01 780.052 L2042.01 811.348 L2033.45 811.348 L2033.45 780.329 Q2033.45 772.876 2030.81 769.265 Q2028.17 765.653 2022.76 765.653 Q2016.14 765.653 2012.29 770.052 Q2008.45 774.45 2008.45 782.042 L2008.45 811.348 L1999.89 811.348 L1999.89 780.329 Q1999.89 772.829 1997.25 769.265 Q1994.61 765.653 1989.1 765.653 Q1982.57 765.653 1978.73 770.098 Q1974.89 774.496 1974.89 782.042 L1974.89 811.348 L1966.32 811.348 L1966.32 759.496 L1974.89 759.496 L1974.89 767.552 Q1977.8 762.783 1981.88 760.515 Q1985.95 758.246 1991.55 758.246 Q1997.2 758.246 2001.14 761.116 Q2005.12 763.987 2007.02 769.45 Z" fill="#000000" fill-rule="nonzero" fill-opacity="1" /></svg>
