<?xml version="1.0" encoding="utf-8"?>
<svg xmlns="http://www.w3.org/2000/svg" xmlns:xlink="http://www.w3.org/1999/xlink" width="600" height="400" viewBox="0 0 2400 1600">
<defs>
  <clipPath id="clip060">
    <rect x="0" y="0" width="2400" height="1600"/>
  </clipPath>
</defs>
<path clip-path="url(#clip060)" d="M0 1600 L2400 1600 L2400 0 L0 0  Z" fill="#ffffff" fill-rule="evenodd" fill-opacity="1"/>
<defs>
  <clipPath id="clip061">
    <rect x="480" y="0" width="1681" height="1600"/>
  </clipPath>
</defs>
<path clip-path="url(#clip060)" d="M673.506 1273.7 L2305.51 1273.7 L2305.51 94.4882 L673.506 94.4882  Z" fill="#ffffff" fill-rule="evenodd" fill-opacity="1"/>
<defs>
  <clipPath id="clip062">
    <rect x="673" y="94" width="1633" height="1180"/>
  </clipPath>
</defs>
<polyline clip-path="url(#clip062)" style="stroke:#000000; stroke-linecap:round; stroke-linejoin:round; stroke-width:4; stroke-opacity:0.1; fill:none" points="719.695,1273.7 719.695,94.4882 "/>
<polyline clip-path="url(#clip062)" style="stroke:#000000; stroke-linecap:round; stroke-linejoin:round; stroke-width:4; stroke-opacity:0.1; fill:none" points="1040.45,1273.7 1040.45,94.4882 "/>
<polyline clip-path="url(#clip062)" style="stroke:#000000; stroke-linecap:round; stroke-linejoin:round; stroke-width:4; stroke-opacity:0.1; fill:none" points="1361.21,1273.7 1361.21,94.4882 "/>
<polyline clip-path="url(#clip062)" style="stroke:#000000; stroke-linecap:round; stroke-linejoin:round; stroke-width:4; stroke-opacity:0.1; fill:none" points="1681.96,1273.7 1681.96,94.4882 "/>
<polyline clip-path="url(#clip062)" style="stroke:#000000; stroke-linecap:round; stroke-linejoin:round; stroke-width:4; stroke-opacity:0.1; fill:none" points="2002.72,1273.7 2002.72,94.4882 "/>
<polyline clip-path="url(#clip060)" style="stroke:#000000; stroke-linecap:round; stroke-linejoin:round; stroke-width:8; stroke-opacity:1; fill:none" points="673.506,1273.7 2305.51,1273.7 "/>
<polyline clip-path="url(#clip060)" style="stroke:#000000; stroke-linecap:round; stroke-linejoin:round; stroke-width:8; stroke-opacity:1; fill:none" points="719.695,1273.7 719.695,1254.8 "/>
<polyline clip-path="url(#clip060)" style="stroke:#000000; stroke-linecap:round; stroke-linejoin:round; stroke-width:8; stroke-opacity:1; fill:none" points="1040.45,1273.7 1040.45,1254.8 "/>
<polyline clip-path="url(#clip060)" style="stroke:#000000; stroke-linecap:round; stroke-linejoin:round; stroke-width:8; stroke-opacity:1; fill:none" points="1361.21,1273.7 1361.21,1254.8 "/>
<polyline clip-path="url(#clip060)" style="stroke:#000000; stroke-linecap:round; stroke-linejoin:round; stroke-width:8; stroke-opacity:1; fill:none" points="1681.96,1273.7 1681.96,1254.8 "/>
<polyline clip-path="url(#clip060)" style="stroke:#000000; stroke-linecap:round; stroke-linejoin:round; stroke-width:8; stroke-opacity:1; fill:none" points="2002.72,1273.7 2002.72,1254.8 "/>
<path clip-path="url(#clip060)" d="M644.302 1316.33 Q637.08 1316.33 633.422 1323.46 Q629.811 1330.55 629.811 1344.81 Q629.811 1359.02 633.422 1366.15 Q637.08 1373.23 644.302 1373.23 Q651.57 1373.23 655.181 1366.15 Q658.839 1359.02 658.839 1344.81 Q658.839 1330.55 655.181 1323.46 Q651.57 1316.33 644.302 1316.33 M644.302 1308.93 Q655.922 1308.93 662.033 1318.14 Q668.19 1327.31 668.19 1344.81 Q668.19 1362.26 662.033 1371.47 Q655.922 1380.64 644.302 1380.64 Q632.681 1380.64 626.524 1371.47 Q620.413 1362.26 620.413 1344.81 Q620.413 1327.31 626.524 1318.14 Q632.681 1308.93 644.302 1308.93 Z" fill="#000000" fill-rule="nonzero" fill-opacity="1" /><path clip-path="url(#clip060)" d="M684.626 1367.54 L694.394 1367.54 L694.394 1379.3 L684.626 1379.3 L684.626 1367.54 Z" fill="#000000" fill-rule="nonzero" fill-opacity="1" /><path clip-path="url(#clip060)" d="M734.764 1316.33 Q727.542 1316.33 723.885 1323.46 Q720.274 1330.55 720.274 1344.81 Q720.274 1359.02 723.885 1366.15 Q727.542 1373.23 734.764 1373.23 Q742.033 1373.23 745.644 1366.15 Q749.301 1359.02 749.301 1344.81 Q749.301 1330.55 745.644 1323.46 Q742.033 1316.33 734.764 1316.33 M734.764 1308.93 Q746.384 1308.93 752.496 1318.14 Q758.653 1327.31 758.653 1344.81 Q758.653 1362.26 752.496 1371.47 Q746.384 1380.64 734.764 1380.64 Q723.144 1380.64 716.986 1371.47 Q710.875 1362.26 710.875 1344.81 Q710.875 1327.31 716.986 1318.14 Q723.144 1308.93 734.764 1308.93 Z" fill="#000000" fill-rule="nonzero" fill-opacity="1" /><path clip-path="url(#clip060)" d="M795.088 1316.33 Q787.866 1316.33 784.208 1323.46 Q780.597 1330.55 780.597 1344.81 Q780.597 1359.02 784.208 1366.15 Q787.866 1373.23 795.088 1373.23 Q802.356 1373.23 805.967 1366.15 Q809.625 1359.02 809.625 1344.81 Q809.625 1330.55 805.967 1323.46 Q802.356 1316.33 795.088 1316.33 M795.088 1308.93 Q806.708 1308.93 812.819 1318.14 Q818.977 1327.31 818.977 1344.81 Q818.977 1362.26 812.819 1371.47 Q806.708 1380.64 795.088 1380.64 Q783.468 1380.64 777.31 1371.47 Q771.199 1362.26 771.199 1344.81 Q771.199 1327.31 777.31 1318.14 Q783.468 1308.93 795.088 1308.93 Z" fill="#000000" fill-rule="nonzero" fill-opacity="1" /><path clip-path="url(#clip060)" d="M966.053 1316.33 Q958.831 1316.33 955.173 1323.46 Q951.562 1330.55 951.562 1344.81 Q951.562 1359.02 955.173 1366.15 Q958.831 1373.23 966.053 1373.23 Q973.321 1373.23 976.932 1366.15 Q980.59 1359.02 980.59 1344.81 Q980.59 1330.55 976.932 1323.46 Q973.321 1316.33 966.053 1316.33 M966.053 1308.93 Q977.673 1308.93 983.784 1318.14 Q989.942 1327.31 989.942 1344.81 Q989.942 1362.26 983.784 1371.47 Q977.673 1380.64 966.053 1380.64 Q954.433 1380.64 948.275 1371.47 Q942.164 1362.26 942.164 1344.81 Q942.164 1327.31 948.275 1318.14 Q954.433 1308.93 966.053 1308.93 Z" fill="#000000" fill-rule="nonzero" fill-opacity="1" /><path clip-path="url(#clip060)" d="M1006.38 1367.54 L1016.15 1367.54 L1016.15 1379.3 L1006.38 1379.3 L1006.38 1367.54 Z" fill="#000000" fill-rule="nonzero" fill-opacity="1" /><path clip-path="url(#clip060)" d="M1044.57 1371.43 L1077.21 1371.43 L1077.21 1379.3 L1033.32 1379.3 L1033.32 1371.43 Q1038.65 1365.92 1047.81 1356.66 Q1057.02 1347.35 1059.39 1344.67 Q1063.88 1339.62 1065.64 1336.15 Q1067.44 1332.63 1067.44 1329.25 Q1067.44 1323.74 1063.55 1320.27 Q1059.71 1316.8 1053.51 1316.8 Q1049.11 1316.8 1044.2 1318.32 Q1039.34 1319.85 1033.78 1322.95 L1033.78 1313.51 Q1039.43 1311.24 1044.34 1310.08 Q1049.25 1308.93 1053.32 1308.93 Q1064.06 1308.93 1070.45 1314.3 Q1076.84 1319.67 1076.84 1328.65 Q1076.84 1332.91 1075.22 1336.75 Q1073.64 1340.55 1069.43 1345.73 Q1068.27 1347.07 1062.07 1353.51 Q1055.87 1359.9 1044.57 1371.43 Z" fill="#000000" fill-rule="nonzero" fill-opacity="1" /><path clip-path="url(#clip060)" d="M1096.93 1310.18 L1133.64 1310.18 L1133.64 1318.05 L1105.5 1318.05 L1105.5 1334.99 Q1107.53 1334.3 1109.57 1333.97 Q1111.61 1333.6 1113.64 1333.6 Q1125.22 1333.6 1131.98 1339.94 Q1138.74 1346.29 1138.74 1357.12 Q1138.74 1368.28 1131.79 1374.48 Q1124.85 1380.64 1112.21 1380.64 Q1107.86 1380.64 1103.32 1379.9 Q1098.83 1379.16 1094.02 1377.68 L1094.02 1368.28 Q1098.18 1370.55 1102.63 1371.66 Q1107.07 1372.77 1112.02 1372.77 Q1120.03 1372.77 1124.71 1368.56 Q1129.39 1364.34 1129.39 1357.12 Q1129.39 1349.9 1124.71 1345.68 Q1120.03 1341.47 1112.02 1341.47 Q1108.27 1341.47 1104.52 1342.31 Q1100.82 1343.14 1096.93 1344.9 L1096.93 1310.18 Z" fill="#000000" fill-rule="nonzero" fill-opacity="1" /><path clip-path="url(#clip060)" d="M1285.81 1316.33 Q1278.59 1316.33 1274.93 1323.46 Q1271.32 1330.55 1271.32 1344.81 Q1271.32 1359.02 1274.93 1366.15 Q1278.59 1373.23 1285.81 1373.23 Q1293.08 1373.23 1296.69 1366.15 Q1300.35 1359.02 1300.35 1344.81 Q1300.35 1330.55 1296.69 1323.46 Q1293.08 1316.33 1285.81 1316.33 M1285.81 1308.93 Q1297.43 1308.93 1303.54 1318.14 Q1309.7 1327.31 1309.7 1344.81 Q1309.7 1362.26 1303.54 1371.47 Q1297.43 1380.64 1285.81 1380.64 Q1274.19 1380.64 1268.04 1371.47 Q1261.92 1362.26 1261.92 1344.81 Q1261.92 1327.31 1268.04 1318.14 Q1274.19 1308.93 1285.81 1308.93 Z" fill="#000000" fill-rule="nonzero" fill-opacity="1" /><path clip-path="url(#clip060)" d="M1326.14 1367.54 L1335.91 1367.54 L1335.91 1379.3 L1326.14 1379.3 L1326.14 1367.54 Z" fill="#000000" fill-rule="nonzero" fill-opacity="1" /><path clip-path="url(#clip060)" d="M1356.37 1310.18 L1393.08 1310.18 L1393.08 1318.05 L1364.93 1318.05 L1364.93 1334.99 Q1366.97 1334.3 1369.01 1333.97 Q1371.04 1333.6 1373.08 1333.6 Q1384.66 1333.6 1391.41 1339.94 Q1398.17 1346.29 1398.17 1357.12 Q1398.17 1368.28 1391.23 1374.48 Q1384.29 1380.64 1371.65 1380.64 Q1367.29 1380.64 1362.76 1379.9 Q1358.27 1379.16 1353.45 1377.68 L1353.45 1368.28 Q1357.62 1370.55 1362.06 1371.66 Q1366.51 1372.77 1371.46 1372.77 Q1379.47 1372.77 1384.15 1368.56 Q1388.82 1364.34 1388.82 1357.12 Q1388.82 1349.9 1384.15 1345.68 Q1379.47 1341.47 1371.46 1341.47 Q1367.71 1341.47 1363.96 1342.31 Q1360.26 1343.14 1356.37 1344.9 L1356.37 1310.18 Z" fill="#000000" fill-rule="nonzero" fill-opacity="1" /><path clip-path="url(#clip060)" d="M1436.6 1316.33 Q1429.38 1316.33 1425.72 1323.46 Q1422.11 1330.55 1422.11 1344.81 Q1422.11 1359.02 1425.72 1366.15 Q1429.38 1373.23 1436.6 1373.23 Q1443.87 1373.23 1447.48 1366.15 Q1451.14 1359.02 1451.14 1344.81 Q1451.14 1330.55 1447.48 1323.46 Q1443.87 1316.33 1436.6 1316.33 M1436.6 1308.93 Q1448.22 1308.93 1454.33 1318.14 Q1460.49 1327.31 1460.49 1344.81 Q1460.49 1362.26 1454.33 1371.47 Q1448.22 1380.64 1436.6 1380.64 Q1424.98 1380.64 1418.82 1371.47 Q1412.71 1362.26 1412.71 1344.81 Q1412.71 1327.31 1418.82 1318.14 Q1424.98 1308.93 1436.6 1308.93 Z" fill="#000000" fill-rule="nonzero" fill-opacity="1" /><path clip-path="url(#clip060)" d="M1607.56 1316.33 Q1600.34 1316.33 1596.69 1323.46 Q1593.07 1330.55 1593.07 1344.81 Q1593.07 1359.02 1596.69 1366.15 Q1600.34 1373.23 1607.56 1373.23 Q1614.83 1373.23 1618.44 1366.15 Q1622.1 1359.02 1622.1 1344.81 Q1622.1 1330.55 1618.44 1323.46 Q1614.83 1316.33 1607.56 1316.33 M1607.56 1308.93 Q1619.18 1308.93 1625.3 1318.14 Q1631.45 1327.31 1631.45 1344.81 Q1631.45 1362.26 1625.3 1371.47 Q1619.18 1380.64 1607.56 1380.64 Q1595.94 1380.64 1589.79 1371.47 Q1583.68 1362.26 1583.68 1344.81 Q1583.68 1327.31 1589.79 1318.14 Q1595.94 1308.93 1607.56 1308.93 Z" fill="#000000" fill-rule="nonzero" fill-opacity="1" /><path clip-path="url(#clip060)" d="M1647.89 1367.54 L1657.66 1367.54 L1657.66 1379.3 L1647.89 1379.3 L1647.89 1367.54 Z" fill="#000000" fill-rule="nonzero" fill-opacity="1" /><path clip-path="url(#clip060)" d="M1675.67 1310.18 L1720.11 1310.18 L1720.11 1314.16 L1695.02 1379.3 L1685.25 1379.3 L1708.86 1318.05 L1675.67 1318.05 L1675.67 1310.18 Z" fill="#000000" fill-rule="nonzero" fill-opacity="1" /><path clip-path="url(#clip060)" d="M1738.44 1310.18 L1775.16 1310.18 L1775.16 1318.05 L1747.01 1318.05 L1747.01 1334.99 Q1749.05 1334.3 1751.08 1333.97 Q1753.12 1333.6 1755.16 1333.6 Q1766.73 1333.6 1773.49 1339.94 Q1780.25 1346.29 1780.25 1357.12 Q1780.25 1368.28 1773.3 1374.48 Q1766.36 1380.64 1753.72 1380.64 Q1749.37 1380.64 1744.83 1379.9 Q1740.34 1379.16 1735.53 1377.68 L1735.53 1368.28 Q1739.69 1370.55 1744.14 1371.66 Q1748.58 1372.77 1753.54 1372.77 Q1761.55 1372.77 1766.22 1368.56 Q1770.9 1364.34 1770.9 1357.12 Q1770.9 1349.9 1766.22 1345.68 Q1761.55 1341.47 1753.54 1341.47 Q1749.79 1341.47 1746.04 1342.31 Q1742.33 1343.14 1738.44 1344.9 L1738.44 1310.18 Z" fill="#000000" fill-rule="nonzero" fill-opacity="1" /><path clip-path="url(#clip060)" d="M1906.86 1371.43 L1922.14 1371.43 L1922.14 1318.69 L1905.52 1322.03 L1905.52 1313.51 L1922.05 1310.18 L1931.4 1310.18 L1931.4 1371.43 L1946.68 1371.43 L1946.68 1379.3 L1906.86 1379.3 L1906.86 1371.43 Z" fill="#000000" fill-rule="nonzero" fill-opacity="1" /><path clip-path="url(#clip060)" d="M1965.57 1367.54 L1975.33 1367.54 L1975.33 1379.3 L1965.57 1379.3 L1965.57 1367.54 Z" fill="#000000" fill-rule="nonzero" fill-opacity="1" /><path clip-path="url(#clip060)" d="M2015.7 1316.33 Q2008.48 1316.33 2004.82 1323.46 Q2001.21 1330.55 2001.21 1344.81 Q2001.21 1359.02 2004.82 1366.15 Q2008.48 1373.23 2015.7 1373.23 Q2022.97 1373.23 2026.58 1366.15 Q2030.24 1359.02 2030.24 1344.81 Q2030.24 1330.55 2026.58 1323.46 Q2022.97 1316.33 2015.7 1316.33 M2015.7 1308.93 Q2027.32 1308.93 2033.44 1318.14 Q2039.59 1327.31 2039.59 1344.81 Q2039.59 1362.26 2033.44 1371.47 Q2027.32 1380.64 2015.7 1380.64 Q2004.08 1380.64 1997.93 1371.47 Q1991.82 1362.26 1991.82 1344.81 Q1991.82 1327.31 1997.93 1318.14 Q2004.08 1308.93 2015.7 1308.93 Z" fill="#000000" fill-rule="nonzero" fill-opacity="1" /><path clip-path="url(#clip060)" d="M2076.03 1316.33 Q2068.81 1316.33 2065.15 1323.46 Q2061.54 1330.55 2061.54 1344.81 Q2061.54 1359.02 2065.15 1366.15 Q2068.81 1373.23 2076.03 1373.23 Q2083.3 1373.23 2086.91 1366.15 Q2090.57 1359.02 2090.57 1344.81 Q2090.57 1330.55 2086.91 1323.46 Q2083.3 1316.33 2076.03 1316.33 M2076.03 1308.93 Q2087.65 1308.93 2093.76 1318.14 Q2099.92 1327.31 2099.92 1344.81 Q2099.92 1362.26 2093.76 1371.47 Q2087.65 1380.64 2076.03 1380.64 Q2064.41 1380.64 2058.25 1371.47 Q2052.14 1362.26 2052.14 1344.81 Q2052.14 1327.31 2058.25 1318.14 Q2064.41 1308.93 2076.03 1308.93 Z" fill="#000000" fill-rule="nonzero" fill-opacity="1" /><path clip-path="url(#clip060)" d="M1375.05 1484.39 L1375.05 1527.42 L1363.34 1527.42 L1363.34 1484.77 Q1363.34 1474.65 1359.39 1469.62 Q1355.45 1464.59 1347.55 1464.59 Q1338.07 1464.59 1332.59 1470.64 Q1327.12 1476.69 1327.12 1487.13 L1327.12 1527.42 L1315.34 1527.42 L1315.34 1428.37 L1327.12 1428.37 L1327.12 1467.2 Q1331.32 1460.77 1336.99 1457.59 Q1342.72 1454.41 1350.16 1454.41 Q1362.45 1454.41 1368.75 1462.05 Q1375.05 1469.62 1375.05 1484.39 Z" fill="#000000" fill-rule="nonzero" fill-opacity="1" /><path clip-path="url(#clip060)" d="M1426.04 1464.34 Q1416.62 1464.34 1411.15 1471.72 Q1405.67 1479.04 1405.67 1491.84 Q1405.67 1504.63 1411.08 1512.02 Q1416.56 1519.34 1426.04 1519.34 Q1435.4 1519.34 1440.87 1511.96 Q1446.35 1504.57 1446.35 1491.84 Q1446.35 1479.17 1440.87 1471.79 Q1435.4 1464.34 1426.04 1464.34 M1426.04 1454.41 Q1441.32 1454.41 1450.04 1464.34 Q1458.76 1474.27 1458.76 1491.84 Q1458.76 1509.35 1450.04 1519.34 Q1441.32 1529.27 1426.04 1529.27 Q1410.7 1529.27 1401.98 1519.34 Q1393.32 1509.35 1393.32 1491.84 Q1393.32 1474.27 1401.98 1464.34 Q1410.7 1454.41 1426.04 1454.41 Z" fill="#000000" fill-rule="nonzero" fill-opacity="1" /><path clip-path="url(#clip060)" d="M1476.97 1499.29 L1476.97 1456.13 L1488.68 1456.13 L1488.68 1498.84 Q1488.68 1508.96 1492.63 1514.06 Q1496.57 1519.08 1504.47 1519.08 Q1513.95 1519.08 1519.43 1513.04 Q1524.97 1506.99 1524.97 1496.55 L1524.97 1456.13 L1536.68 1456.13 L1536.68 1527.42 L1524.97 1527.42 L1524.97 1516.47 Q1520.7 1522.97 1515.04 1526.15 Q1509.43 1529.27 1501.99 1529.27 Q1489.7 1529.27 1483.33 1521.63 Q1476.97 1513.99 1476.97 1499.29 M1506.44 1454.41 L1506.44 1454.41 Z" fill="#000000" fill-rule="nonzero" fill-opacity="1" /><path clip-path="url(#clip060)" d="M1602.12 1467.08 Q1600.14 1465.93 1597.79 1465.42 Q1595.5 1464.85 1592.7 1464.85 Q1582.77 1464.85 1577.42 1471.34 Q1572.14 1477.77 1572.14 1489.87 L1572.14 1527.42 L1560.36 1527.42 L1560.36 1456.13 L1572.14 1456.13 L1572.14 1467.2 Q1575.83 1460.71 1581.75 1457.59 Q1587.67 1454.41 1596.13 1454.41 Q1597.34 1454.41 1598.81 1454.6 Q1600.27 1454.73 1602.05 1455.05 L1602.12 1467.08 Z" fill="#000000" fill-rule="nonzero" fill-opacity="1" /><path clip-path="url(#clip060)" d="M1659.86 1458.23 L1659.86 1469.3 Q1654.89 1466.76 1649.54 1465.49 Q1644.2 1464.21 1638.47 1464.21 Q1629.75 1464.21 1625.35 1466.89 Q1621.02 1469.56 1621.02 1474.91 Q1621.02 1478.98 1624.14 1481.34 Q1627.26 1483.63 1636.68 1485.73 L1640.69 1486.62 Q1653.17 1489.29 1658.39 1494.19 Q1663.67 1499.03 1663.67 1507.75 Q1663.67 1517.68 1655.78 1523.48 Q1647.95 1529.27 1634.2 1529.27 Q1628.47 1529.27 1622.23 1528.12 Q1616.06 1527.04 1609.18 1524.81 L1609.18 1512.72 Q1615.68 1516.09 1621.98 1517.81 Q1628.28 1519.47 1634.46 1519.47 Q1642.73 1519.47 1647.19 1516.67 Q1651.64 1513.8 1651.64 1508.64 Q1651.64 1503.87 1648.4 1501.32 Q1645.21 1498.78 1634.33 1496.42 L1630.25 1495.47 Q1619.37 1493.18 1614.53 1488.47 Q1609.69 1483.69 1609.69 1475.42 Q1609.69 1465.36 1616.82 1459.88 Q1623.95 1454.41 1637.07 1454.41 Q1643.56 1454.41 1649.29 1455.36 Q1655.02 1456.32 1659.86 1458.23 Z" fill="#000000" fill-rule="nonzero" fill-opacity="1" /><polyline clip-path="url(#clip062)" style="stroke:#000000; stroke-linecap:round; stroke-linejoin:round; stroke-width:4; stroke-opacity:0.1; fill:none" points="673.506,1136.24 2305.51,1136.24 "/>
<polyline clip-path="url(#clip062)" style="stroke:#000000; stroke-linecap:round; stroke-linejoin:round; stroke-width:4; stroke-opacity:0.1; fill:none" points="673.506,879.727 2305.51,879.727 "/>
<polyline clip-path="url(#clip062)" style="stroke:#000000; stroke-linecap:round; stroke-linejoin:round; stroke-width:4; stroke-opacity:0.1; fill:none" points="673.506,623.216 2305.51,623.216 "/>
<polyline clip-path="url(#clip062)" style="stroke:#000000; stroke-linecap:round; stroke-linejoin:round; stroke-width:4; stroke-opacity:0.1; fill:none" points="673.506,366.705 2305.51,366.705 "/>
<polyline clip-path="url(#clip062)" style="stroke:#000000; stroke-linecap:round; stroke-linejoin:round; stroke-width:4; stroke-opacity:0.1; fill:none" points="673.506,110.195 2305.51,110.195 "/>
<polyline clip-path="url(#clip060)" style="stroke:#000000; stroke-linecap:round; stroke-linejoin:round; stroke-width:8; stroke-opacity:1; fill:none" points="673.506,1273.7 673.506,94.4882 "/>
<polyline clip-path="url(#clip060)" style="stroke:#000000; stroke-linecap:round; stroke-linejoin:round; stroke-width:8; stroke-opacity:1; fill:none" points="673.506,1136.24 692.404,1136.24 "/>
<polyline clip-path="url(#clip060)" style="stroke:#000000; stroke-linecap:round; stroke-linejoin:round; stroke-width:8; stroke-opacity:1; fill:none" points="673.506,879.727 692.404,879.727 "/>
<polyline clip-path="url(#clip060)" style="stroke:#000000; stroke-linecap:round; stroke-linejoin:round; stroke-width:8; stroke-opacity:1; fill:none" points="673.506,623.216 692.404,623.216 "/>
<polyline clip-path="url(#clip060)" style="stroke:#000000; stroke-linecap:round; stroke-linejoin:round; stroke-width:8; stroke-opacity:1; fill:none" points="673.506,366.705 692.404,366.705 "/>
<polyline clip-path="url(#clip060)" style="stroke:#000000; stroke-linecap:round; stroke-linejoin:round; stroke-width:8; stroke-opacity:1; fill:none" points="673.506,110.195 692.404,110.195 "/>
<path clip-path="url(#clip060)" d="M450.887 1162.93 L483.525 1162.93 L483.525 1170.8 L439.637 1170.8 L439.637 1162.93 Q444.961 1157.42 454.127 1148.16 Q463.34 1138.85 465.701 1136.17 Q470.192 1131.12 471.951 1127.65 Q473.757 1124.13 473.757 1120.75 Q473.757 1115.24 469.868 1111.77 Q466.025 1108.3 459.822 1108.3 Q455.424 1108.3 450.516 1109.83 Q445.655 1111.35 440.1 1114.45 L440.1 1105.01 Q445.748 1102.74 450.655 1101.58 Q455.562 1100.43 459.637 1100.43 Q470.377 1100.43 476.766 1105.8 Q483.155 1111.17 483.155 1120.15 Q483.155 1124.41 481.535 1128.25 Q479.961 1132.05 475.748 1137.23 Q474.59 1138.58 468.387 1145.01 Q462.183 1151.4 450.887 1162.93 Z" fill="#000000" fill-rule="nonzero" fill-opacity="1" /><path clip-path="url(#clip060)" d="M503.247 1101.68 L539.96 1101.68 L539.96 1109.55 L511.812 1109.55 L511.812 1126.49 Q513.849 1125.8 515.886 1125.47 Q517.923 1125.1 519.96 1125.1 Q531.534 1125.1 538.294 1131.45 Q545.053 1137.79 545.053 1148.62 Q545.053 1159.78 538.108 1165.98 Q531.164 1172.14 518.525 1172.14 Q514.173 1172.14 509.636 1171.4 Q505.146 1170.66 500.331 1169.18 L500.331 1159.78 Q504.497 1162.05 508.942 1163.16 Q513.386 1164.27 518.34 1164.27 Q526.349 1164.27 531.025 1160.06 Q535.701 1155.84 535.701 1148.62 Q535.701 1141.4 531.025 1137.19 Q526.349 1132.97 518.34 1132.97 Q514.59 1132.97 510.84 1133.81 Q507.136 1134.64 503.247 1136.4 L503.247 1101.68 Z" fill="#000000" fill-rule="nonzero" fill-opacity="1" /><path clip-path="url(#clip060)" d="M563.479 1159.04 L573.247 1159.04 L573.247 1170.8 L563.479 1170.8 L563.479 1159.04 Z" fill="#000000" fill-rule="nonzero" fill-opacity="1" /><path clip-path="url(#clip060)" d="M613.617 1107.83 Q606.395 1107.83 602.738 1114.96 Q599.127 1122.05 599.127 1136.31 Q599.127 1150.52 602.738 1157.65 Q606.395 1164.73 613.617 1164.73 Q620.886 1164.73 624.497 1157.65 Q628.154 1150.52 628.154 1136.31 Q628.154 1122.05 624.497 1114.96 Q620.886 1107.83 613.617 1107.83 M613.617 1100.43 Q625.238 1100.43 631.349 1109.64 Q637.506 1118.81 637.506 1136.31 Q637.506 1153.76 631.349 1162.97 Q625.238 1172.14 613.617 1172.14 Q601.997 1172.14 595.84 1162.97 Q589.728 1153.76 589.728 1136.31 Q589.728 1118.81 595.84 1109.64 Q601.997 1100.43 613.617 1100.43 Z" fill="#000000" fill-rule="nonzero" fill-opacity="1" /><path clip-path="url(#clip060)" d="M442.924 845.167 L479.636 845.167 L479.636 853.037 L451.488 853.037 L451.488 869.981 Q453.525 869.287 455.562 868.963 Q457.6 868.592 459.637 868.592 Q471.211 868.592 477.97 874.935 Q484.729 881.277 484.729 892.111 Q484.729 903.268 477.785 909.472 Q470.84 915.629 458.201 915.629 Q453.85 915.629 449.313 914.888 Q444.822 914.148 440.007 912.666 L440.007 903.268 Q444.174 905.537 448.618 906.648 Q453.063 907.759 458.016 907.759 Q466.025 907.759 470.701 903.546 Q475.377 899.333 475.377 892.111 Q475.377 884.889 470.701 880.676 Q466.025 876.463 458.016 876.463 Q454.266 876.463 450.516 877.296 Q446.813 878.129 442.924 879.889 L442.924 845.167 Z" fill="#000000" fill-rule="nonzero" fill-opacity="1" /><path clip-path="url(#clip060)" d="M523.155 851.324 Q515.933 851.324 512.275 858.454 Q508.664 865.537 508.664 879.796 Q508.664 894.009 512.275 901.138 Q515.933 908.222 523.155 908.222 Q530.423 908.222 534.034 901.138 Q537.692 894.009 537.692 879.796 Q537.692 865.537 534.034 858.454 Q530.423 851.324 523.155 851.324 M523.155 843.917 Q534.775 843.917 540.886 853.129 Q547.043 862.296 547.043 879.796 Q547.043 897.25 540.886 906.463 Q534.775 915.629 523.155 915.629 Q511.534 915.629 505.377 906.463 Q499.266 897.25 499.266 879.796 Q499.266 862.296 505.377 853.129 Q511.534 843.917 523.155 843.917 Z" fill="#000000" fill-rule="nonzero" fill-opacity="1" /><path clip-path="url(#clip060)" d="M563.479 902.527 L573.247 902.527 L573.247 914.287 L563.479 914.287 L563.479 902.527 Z" fill="#000000" fill-rule="nonzero" fill-opacity="1" /><path clip-path="url(#clip060)" d="M613.617 851.324 Q606.395 851.324 602.738 858.454 Q599.127 865.537 599.127 879.796 Q599.127 894.009 602.738 901.138 Q606.395 908.222 613.617 908.222 Q620.886 908.222 624.497 901.138 Q628.154 894.009 628.154 879.796 Q628.154 865.537 624.497 858.454 Q620.886 851.324 613.617 851.324 M613.617 843.917 Q625.238 843.917 631.349 853.129 Q637.506 862.296 637.506 879.796 Q637.506 897.25 631.349 906.463 Q625.238 915.629 613.617 915.629 Q601.997 915.629 595.84 906.463 Q589.728 897.25 589.728 879.796 Q589.728 862.296 595.84 853.129 Q601.997 843.917 613.617 843.917 Z" fill="#000000" fill-rule="nonzero" fill-opacity="1" /><path clip-path="url(#clip060)" d="M440.47 588.656 L484.914 588.656 L484.914 592.637 L459.822 657.776 L450.053 657.776 L473.664 596.526 L440.47 596.526 L440.47 588.656 Z" fill="#000000" fill-rule="nonzero" fill-opacity="1" /><path clip-path="url(#clip060)" d="M503.247 588.656 L539.96 588.656 L539.96 596.526 L511.812 596.526 L511.812 613.471 Q513.849 612.776 515.886 612.452 Q517.923 612.082 519.96 612.082 Q531.534 612.082 538.294 618.424 Q545.053 624.767 545.053 635.6 Q545.053 646.758 538.108 652.961 Q531.164 659.119 518.525 659.119 Q514.173 659.119 509.636 658.378 Q505.146 657.637 500.331 656.156 L500.331 646.758 Q504.497 649.026 508.942 650.137 Q513.386 651.248 518.34 651.248 Q526.349 651.248 531.025 647.035 Q535.701 642.822 535.701 635.6 Q535.701 628.378 531.025 624.165 Q526.349 619.952 518.34 619.952 Q514.59 619.952 510.84 620.785 Q507.136 621.619 503.247 623.378 L503.247 588.656 Z" fill="#000000" fill-rule="nonzero" fill-opacity="1" /><path clip-path="url(#clip060)" d="M563.479 646.017 L573.247 646.017 L573.247 657.776 L563.479 657.776 L563.479 646.017 Z" fill="#000000" fill-rule="nonzero" fill-opacity="1" /><path clip-path="url(#clip060)" d="M613.617 594.813 Q606.395 594.813 602.738 601.943 Q599.127 609.026 599.127 623.285 Q599.127 637.498 602.738 644.628 Q606.395 651.711 613.617 651.711 Q620.886 651.711 624.497 644.628 Q628.154 637.498 628.154 623.285 Q628.154 609.026 624.497 601.943 Q620.886 594.813 613.617 594.813 M613.617 587.406 Q625.238 587.406 631.349 596.619 Q637.506 605.786 637.506 623.285 Q637.506 640.739 631.349 649.952 Q625.238 659.119 613.617 659.119 Q601.997 659.119 595.84 649.952 Q589.728 640.739 589.728 623.285 Q589.728 605.786 595.84 596.619 Q601.997 587.406 613.617 587.406 Z" fill="#000000" fill-rule="nonzero" fill-opacity="1" /><path clip-path="url(#clip060)" d="M384.128 393.395 L399.405 393.395 L399.405 340.664 L382.785 343.997 L382.785 335.479 L399.313 332.145 L408.665 332.145 L408.665 393.395 L423.942 393.395 L423.942 401.265 L384.128 401.265 L384.128 393.395 Z" fill="#000000" fill-rule="nonzero" fill-opacity="1" /><path clip-path="url(#clip060)" d="M462.831 338.303 Q455.609 338.303 451.951 345.432 Q448.34 352.516 448.34 366.775 Q448.34 380.988 451.951 388.117 Q455.609 395.201 462.831 395.201 Q470.099 395.201 473.711 388.117 Q477.368 380.988 477.368 366.775 Q477.368 352.516 473.711 345.432 Q470.099 338.303 462.831 338.303 M462.831 330.895 Q474.451 330.895 480.562 340.108 Q486.72 349.275 486.72 366.775 Q486.72 384.228 480.562 393.441 Q474.451 402.608 462.831 402.608 Q451.211 402.608 445.053 393.441 Q438.942 384.228 438.942 366.775 Q438.942 349.275 445.053 340.108 Q451.211 330.895 462.831 330.895 Z" fill="#000000" fill-rule="nonzero" fill-opacity="1" /><path clip-path="url(#clip060)" d="M523.155 338.303 Q515.933 338.303 512.275 345.432 Q508.664 352.516 508.664 366.775 Q508.664 380.988 512.275 388.117 Q515.933 395.201 523.155 395.201 Q530.423 395.201 534.034 388.117 Q537.692 380.988 537.692 366.775 Q537.692 352.516 534.034 345.432 Q530.423 338.303 523.155 338.303 M523.155 330.895 Q534.775 330.895 540.886 340.108 Q547.043 349.275 547.043 366.775 Q547.043 384.228 540.886 393.441 Q534.775 402.608 523.155 402.608 Q511.534 402.608 505.377 393.441 Q499.266 384.228 499.266 366.775 Q499.266 349.275 505.377 340.108 Q511.534 330.895 523.155 330.895 Z" fill="#000000" fill-rule="nonzero" fill-opacity="1" /><path clip-path="url(#clip060)" d="M563.479 389.506 L573.247 389.506 L573.247 401.265 L563.479 401.265 L563.479 389.506 Z" fill="#000000" fill-rule="nonzero" fill-opacity="1" /><path clip-path="url(#clip060)" d="M613.617 338.303 Q606.395 338.303 602.738 345.432 Q599.127 352.516 599.127 366.775 Q599.127 380.988 602.738 388.117 Q606.395 395.201 613.617 395.201 Q620.886 395.201 624.497 388.117 Q628.154 380.988 628.154 366.775 Q628.154 352.516 624.497 345.432 Q620.886 338.303 613.617 338.303 M613.617 330.895 Q625.238 330.895 631.349 340.108 Q637.506 349.275 637.506 366.775 Q637.506 384.228 631.349 393.441 Q625.238 402.608 613.617 402.608 Q601.997 402.608 595.84 393.441 Q589.728 384.228 589.728 366.775 Q589.728 349.275 595.84 340.108 Q601.997 330.895 613.617 330.895 Z" fill="#000000" fill-rule="nonzero" fill-opacity="1" /><path clip-path="url(#clip060)" d="M384.128 136.885 L399.405 136.885 L399.405 84.1533 L382.785 87.4866 L382.785 78.9682 L399.313 75.6349 L408.665 75.6349 L408.665 136.885 L423.942 136.885 L423.942 144.755 L384.128 144.755 L384.128 136.885 Z" fill="#000000" fill-rule="nonzero" fill-opacity="1" /><path clip-path="url(#clip060)" d="M450.887 136.885 L483.525 136.885 L483.525 144.755 L439.637 144.755 L439.637 136.885 Q444.961 131.375 454.127 122.116 Q463.34 112.811 465.701 110.125 Q470.192 105.079 471.951 101.607 Q473.757 98.0884 473.757 94.7088 Q473.757 89.1996 469.868 85.7274 Q466.025 82.2552 459.822 82.2552 Q455.424 82.2552 450.516 83.783 Q445.655 85.3107 440.1 88.4126 L440.1 78.9682 Q445.748 76.6997 450.655 75.5423 Q455.562 74.3849 459.637 74.3849 Q470.377 74.3849 476.766 79.7552 Q483.155 85.1255 483.155 94.107 Q483.155 98.3662 481.535 102.209 Q479.961 106.005 475.748 111.19 Q474.59 112.533 468.387 118.968 Q462.183 125.357 450.887 136.885 Z" fill="#000000" fill-rule="nonzero" fill-opacity="1" /><path clip-path="url(#clip060)" d="M503.247 75.6349 L539.96 75.6349 L539.96 83.5052 L511.812 83.5052 L511.812 100.45 Q513.849 99.7551 515.886 99.431 Q517.923 99.0607 519.96 99.0607 Q531.534 99.0607 538.294 105.403 Q545.053 111.746 545.053 122.579 Q545.053 133.736 538.108 139.94 Q531.164 146.097 518.525 146.097 Q514.173 146.097 509.636 145.357 Q505.146 144.616 500.331 143.134 L500.331 133.736 Q504.497 136.005 508.942 137.116 Q513.386 138.227 518.34 138.227 Q526.349 138.227 531.025 134.014 Q535.701 129.801 535.701 122.579 Q535.701 115.357 531.025 111.144 Q526.349 106.931 518.34 106.931 Q514.59 106.931 510.84 107.764 Q507.136 108.598 503.247 110.357 L503.247 75.6349 Z" fill="#000000" fill-rule="nonzero" fill-opacity="1" /><path clip-path="url(#clip060)" d="M563.479 132.996 L573.247 132.996 L573.247 144.755 L563.479 144.755 L563.479 132.996 Z" fill="#000000" fill-rule="nonzero" fill-opacity="1" /><path clip-path="url(#clip060)" d="M613.617 81.7922 Q606.395 81.7922 602.738 88.9218 Q599.127 96.0051 599.127 110.264 Q599.127 124.477 602.738 131.607 Q606.395 138.69 613.617 138.69 Q620.886 138.69 624.497 131.607 Q628.154 124.477 628.154 110.264 Q628.154 96.0051 624.497 88.9218 Q620.886 81.7922 613.617 81.7922 M613.617 74.3849 Q625.238 74.3849 631.349 83.5978 Q637.506 92.7644 637.506 110.264 Q637.506 127.718 631.349 136.931 Q625.238 146.097 613.617 146.097 Q601.997 146.097 595.84 136.931 Q589.728 127.718 589.728 110.264 Q589.728 92.7644 595.84 83.5978 Q601.997 74.3849 613.617 74.3849 Z" fill="#000000" fill-rule="nonzero" fill-opacity="1" /><path clip-path="url(#clip060)" d="M307.579 931.4 L345.391 931.4 L345.391 943.176 L246.977 943.176 L246.977 931.4 L257.799 931.4 Q251.433 927.708 248.378 922.106 Q245.258 916.44 245.258 908.61 Q245.258 895.624 255.571 887.54 Q265.883 879.392 282.689 879.392 Q299.494 879.392 309.807 887.54 Q320.119 895.624 320.119 908.61 Q320.119 916.44 317.064 922.106 Q313.944 927.708 307.579 931.4 M282.689 891.55 Q269.766 891.55 262.446 896.898 Q255.062 902.181 255.062 911.475 Q255.062 920.769 262.446 926.116 Q269.766 931.4 282.689 931.4 Q295.611 931.4 302.995 926.116 Q310.316 920.769 310.316 911.475 Q310.316 902.181 302.995 896.898 Q295.611 891.55 282.689 891.55 Z" fill="#000000" fill-rule="nonzero" fill-opacity="1" /><path clip-path="url(#clip060)" d="M282.434 827.575 Q282.434 841.771 285.681 847.245 Q288.927 852.72 296.757 852.72 Q302.995 852.72 306.688 848.645 Q310.316 844.508 310.316 837.442 Q310.316 827.702 303.441 821.846 Q296.502 815.926 285.044 815.926 L282.434 815.926 L282.434 827.575 M277.596 804.213 L318.273 804.213 L318.273 815.926 L307.451 815.926 Q313.944 819.936 317.064 825.92 Q320.119 831.904 320.119 840.561 Q320.119 851.51 314.008 858.003 Q307.833 864.432 297.521 864.432 Q285.49 864.432 279.379 856.412 Q273.268 848.327 273.268 832.349 L273.268 815.926 L272.122 815.926 Q264.037 815.926 259.645 821.273 Q255.189 826.556 255.189 836.169 Q255.189 842.28 256.653 848.073 Q258.117 853.865 261.045 859.213 L250.224 859.213 Q247.741 852.783 246.532 846.736 Q245.258 840.688 245.258 834.959 Q245.258 819.491 253.279 811.852 Q261.3 804.213 277.596 804.213 Z" fill="#000000" fill-rule="nonzero" fill-opacity="1" /><path clip-path="url(#clip060)" d="M257.926 738.773 Q256.78 740.747 256.271 743.102 Q255.698 745.394 255.698 748.195 Q255.698 758.125 262.191 763.472 Q268.621 768.756 280.715 768.756 L318.273 768.756 L318.273 780.532 L246.977 780.532 L246.977 768.756 L258.054 768.756 Q251.561 765.064 248.441 759.144 Q245.258 753.224 245.258 744.757 Q245.258 743.548 245.449 742.084 Q245.577 740.619 245.895 738.837 L257.926 738.773 Z" fill="#000000" fill-rule="nonzero" fill-opacity="1" /><path clip-path="url(#clip060)" d="M279.697 668.369 L285.426 668.369 L285.426 722.223 Q297.521 721.459 303.887 714.966 Q310.189 708.409 310.189 696.76 Q310.189 690.012 308.534 683.71 Q306.878 677.344 303.568 671.106 L314.645 671.106 Q317.318 677.408 318.719 684.028 Q320.119 690.649 320.119 697.46 Q320.119 714.52 310.189 724.514 Q300.258 734.445 283.325 734.445 Q265.82 734.445 255.571 725.023 Q245.258 715.539 245.258 699.497 Q245.258 685.11 254.552 676.771 Q263.783 668.369 279.697 668.369 M276.259 680.082 Q266.647 680.209 260.918 685.492 Q255.189 690.712 255.189 699.37 Q255.189 709.173 260.727 715.093 Q266.265 720.949 276.323 721.841 L276.259 680.082 Z" fill="#000000" fill-rule="nonzero" fill-opacity="1" /><path clip-path="url(#clip060)" d="M275.241 589.88 L318.273 589.88 L318.273 601.592 L275.623 601.592 Q265.501 601.592 260.472 605.539 Q255.444 609.486 255.444 617.379 Q255.444 626.864 261.491 632.339 Q267.538 637.813 277.978 637.813 L318.273 637.813 L318.273 649.59 L246.977 649.59 L246.977 637.813 L258.054 637.813 Q251.624 633.612 248.441 627.946 Q245.258 622.217 245.258 614.769 Q245.258 602.484 252.897 596.182 Q260.472 589.88 275.241 589.88 Z" fill="#000000" fill-rule="nonzero" fill-opacity="1" /><path clip-path="url(#clip060)" d="M302.104 564.862 L302.104 551.431 L318.273 551.431 L318.273 564.862 L302.104 564.862 Z" fill="#000000" fill-rule="nonzero" fill-opacity="1" /><path clip-path="url(#clip060)" d="M307.451 479.753 L307.451 458.746 L234.946 458.746 L239.529 481.599 L227.816 481.599 L223.233 458.873 L223.233 446.015 L307.451 446.015 L307.451 425.008 L318.273 425.008 L318.273 479.753 L307.451 479.753 Z" fill="#000000" fill-rule="nonzero" fill-opacity="1" /><polyline clip-path="url(#clip062)" style="stroke:#008000; stroke-linecap:round; stroke-linejoin:round; stroke-width:8; stroke-opacity:1; fill:none" points="719.695,393.055 847.997,515.591 976.3,499.84 1104.6,545.139 1232.9,549.528 1361.21,622.681 1489.51,601.932 1617.81,652.18 1746.11,676.808 1874.42,704.557 2002.72,752.979 2131.02,720.511 2259.32,834.728 "/>
<circle clip-path="url(#clip062)" cx="719.695" cy="393.055" r="14.4" fill="#008000" fill-rule="evenodd" fill-opacity="1" stroke="#000000" stroke-opacity="1" stroke-width="6.4"/>
<circle clip-path="url(#clip062)" cx="847.997" cy="515.591" r="14.4" fill="#008000" fill-rule="evenodd" fill-opacity="1" stroke="#000000" stroke-opacity="1" stroke-width="6.4"/>
<circle clip-path="url(#clip062)" cx="976.3" cy="499.84" r="14.4" fill="#008000" fill-rule="evenodd" fill-opacity="1" stroke="#000000" stroke-opacity="1" stroke-width="6.4"/>
<circle clip-path="url(#clip062)" cx="1104.6" cy="545.139" r="14.4" fill="#008000" fill-rule="evenodd" fill-opacity="1" stroke="#000000" stroke-opacity="1" stroke-width="6.4"/>
<circle clip-path="url(#clip062)" cx="1232.9" cy="549.528" r="14.4" fill="#008000" fill-rule="evenodd" fill-opacity="1" stroke="#000000" stroke-opacity="1" stroke-width="6.4"/>
<circle clip-path="url(#clip062)" cx="1361.21" cy="622.681" r="14.4" fill="#008000" fill-rule="evenodd" fill-opacity="1" stroke="#000000" stroke-opacity="1" stroke-width="6.4"/>
<circle clip-path="url(#clip062)" cx="1489.51" cy="601.932" r="14.4" fill="#008000" fill-rule="evenodd" fill-opacity="1" stroke="#000000" stroke-opacity="1" stroke-width="6.4"/>
<circle clip-path="url(#clip062)" cx="1617.81" cy="652.18" r="14.4" fill="#008000" fill-rule="evenodd" fill-opacity="1" stroke="#000000" stroke-opacity="1" stroke-width="6.4"/>
<circle clip-path="url(#clip062)" cx="1746.11" cy="676.808" r="14.4" fill="#008000" fill-rule="evenodd" fill-opacity="1" stroke="#000000" stroke-opacity="1" stroke-width="6.4"/>
<circle clip-path="url(#clip062)" cx="1874.42" cy="704.557" r="14.4" fill="#008000" fill-rule="evenodd" fill-opacity="1" stroke="#000000" stroke-opacity="1" stroke-width="6.4"/>
<circle clip-path="url(#clip062)" cx="2002.72" cy="752.979" r="14.4" fill="#008000" fill-rule="evenodd" fill-opacity="1" stroke="#000000" stroke-opacity="1" stroke-width="6.4"/>
<circle clip-path="url(#clip062)" cx="2131.02" cy="720.511" r="14.4" fill="#008000" fill-rule="evenodd" fill-opacity="1" stroke="#000000" stroke-opacity="1" stroke-width="6.4"/>
<circle clip-path="url(#clip062)" cx="2259.32" cy="834.728" r="14.4" fill="#008000" fill-rule="evenodd" fill-opacity="1" stroke="#000000" stroke-opacity="1" stroke-width="6.4"/>
<polyline clip-path="url(#clip062)" style="stroke:#00008b; stroke-linecap:round; stroke-linejoin:round; stroke-width:8; stroke-opacity:1; fill:none" points="719.695,169.555 847.997,907.424 976.3,969.588 1104.6,991.995 1232.9,1024.35 1361.21,1055.2 1489.51,1066.8 1617.81,1089.33 1746.11,1117.39 1874.42,1134.5 2002.72,1140.9 2131.02,1164.76 2259.32,1183.96 "/>
<path clip-path="url(#clip062)" d="M719.695 200.655 L847.997 988.047 L976.3 1032.13 L1104.6 1050.15 L1232.9 1089.23 L1361.21 1114.76 L1489.51 1121.38 L1617.81 1155.26 L1746.11 1175.74 L1874.42 1189.74 L2002.72 1209.61 L2131.02 1214.16 L2259.32 1240.32 L2259.32 1132.01 L2131.02 1116.76 L2002.72 1098.4 L1874.42 1083.14 L1746.11 1069.05 L1617.81 1039.75 L1489.51 1016.2 L1361.21 1009.79 L1232.9 977.982 L1104.6 954.048 L976.3 916.038 L847.997 857.356 L719.695 127.862  Z" fill="#0000ff" fill-rule="evenodd" fill-opacity="0.1"/>
<polyline clip-path="url(#clip062)" style="stroke:#0000ff; stroke-linecap:round; stroke-linejoin:round; stroke-width:0; stroke-opacity:0.1; fill:none" points="719.695,200.655 847.997,988.047 976.3,1032.13 1104.6,1050.15 1232.9,1089.23 1361.21,1114.76 1489.51,1121.38 1617.81,1155.26 1746.11,1175.74 1874.42,1189.74 2002.72,1209.61 2131.02,1214.16 2259.32,1240.32 "/>
</svg>
