<?xml version="1.0" encoding="utf-8"?>
<svg xmlns="http://www.w3.org/2000/svg" xmlns:xlink="http://www.w3.org/1999/xlink" width="600" height="400" viewBox="0 0 2400 1600">
<defs>
  <clipPath id="clip670">
    <rect x="0" y="0" width="2400" height="1600"/>
  </clipPath>
</defs>
<path clip-path="url(#clip670)" d="M0 1600 L2400 1600 L2400 0 L0 0  Z" fill="#ffffff" fill-rule="evenodd" fill-opacity="1"/>
<defs>
  <clipPath id="clip671">
    <rect x="480" y="0" width="1681" height="1600"/>
  </clipPath>
</defs>
<path clip-path="url(#clip670)" d="M680.45 1273.7 L2305.51 1273.7 L2305.51 94.4882 L680.45 94.4882  Z" fill="#ffffff" fill-rule="evenodd" fill-opacity="1"/>
<defs>
  <clipPath id="clip672">
    <rect x="680" y="94" width="1626" height="1180"/>
  </clipPath>
</defs>
<polyline clip-path="url(#clip672)" style="stroke:#000000; stroke-linecap:round; stroke-linejoin:round; stroke-width:4; stroke-opacity:0.1; fill:none" points="726.443,1273.7 726.443,94.4882 "/>
<polyline clip-path="url(#clip672)" style="stroke:#000000; stroke-linecap:round; stroke-linejoin:round; stroke-width:4; stroke-opacity:0.1; fill:none" points="1045.83,1273.7 1045.83,94.4882 "/>
<polyline clip-path="url(#clip672)" style="stroke:#000000; stroke-linecap:round; stroke-linejoin:round; stroke-width:4; stroke-opacity:0.1; fill:none" points="1365.22,1273.7 1365.22,94.4882 "/>
<polyline clip-path="url(#clip672)" style="stroke:#000000; stroke-linecap:round; stroke-linejoin:round; stroke-width:4; stroke-opacity:0.1; fill:none" points="1684.62,1273.7 1684.62,94.4882 "/>
<polyline clip-path="url(#clip672)" style="stroke:#000000; stroke-linecap:round; stroke-linejoin:round; stroke-width:4; stroke-opacity:0.1; fill:none" points="2004.01,1273.7 2004.01,94.4882 "/>
<polyline clip-path="url(#clip670)" style="stroke:#000000; stroke-linecap:round; stroke-linejoin:round; stroke-width:8; stroke-opacity:1; fill:none" points="680.45,1273.7 2305.51,1273.7 "/>
<polyline clip-path="url(#clip670)" style="stroke:#000000; stroke-linecap:round; stroke-linejoin:round; stroke-width:8; stroke-opacity:1; fill:none" points="726.443,1273.7 726.443,1254.8 "/>
<polyline clip-path="url(#clip670)" style="stroke:#000000; stroke-linecap:round; stroke-linejoin:round; stroke-width:8; stroke-opacity:1; fill:none" points="1045.83,1273.7 1045.83,1254.8 "/>
<polyline clip-path="url(#clip670)" style="stroke:#000000; stroke-linecap:round; stroke-linejoin:round; stroke-width:8; stroke-opacity:1; fill:none" points="1365.22,1273.7 1365.22,1254.8 "/>
<polyline clip-path="url(#clip670)" style="stroke:#000000; stroke-linecap:round; stroke-linejoin:round; stroke-width:8; stroke-opacity:1; fill:none" points="1684.62,1273.7 1684.62,1254.8 "/>
<polyline clip-path="url(#clip670)" style="stroke:#000000; stroke-linecap:round; stroke-linejoin:round; stroke-width:8; stroke-opacity:1; fill:none" points="2004.01,1273.7 2004.01,1254.8 "/>
<path clip-path="url(#clip670)" d="M651.05 1316.33 Q643.827 1316.33 640.17 1323.46 Q636.559 1330.55 636.559 1344.81 Q636.559 1359.02 640.17 1366.15 Q643.827 1373.23 651.05 1373.23 Q658.318 1373.23 661.929 1366.15 Q665.587 1359.02 665.587 1344.81 Q665.587 1330.55 661.929 1323.46 Q658.318 1316.33 651.05 1316.33 M651.05 1308.93 Q662.67 1308.93 668.781 1318.14 Q674.938 1327.31 674.938 1344.81 Q674.938 1362.26 668.781 1371.47 Q662.67 1380.64 651.05 1380.64 Q639.429 1380.64 633.272 1371.47 Q627.161 1362.26 627.161 1344.81 Q627.161 1327.31 633.272 1318.14 Q639.429 1308.93 651.05 1308.93 Z" fill="#000000" fill-rule="nonzero" fill-opacity="1" /><path clip-path="url(#clip670)" d="M691.373 1367.54 L701.142 1367.54 L701.142 1379.3 L691.373 1379.3 L691.373 1367.54 Z" fill="#000000" fill-rule="nonzero" fill-opacity="1" /><path clip-path="url(#clip670)" d="M741.512 1316.33 Q734.29 1316.33 730.632 1323.46 Q727.021 1330.55 727.021 1344.81 Q727.021 1359.02 730.632 1366.15 Q734.29 1373.23 741.512 1373.23 Q748.781 1373.23 752.392 1366.15 Q756.049 1359.02 756.049 1344.81 Q756.049 1330.55 752.392 1323.46 Q748.781 1316.33 741.512 1316.33 M741.512 1308.93 Q753.132 1308.93 759.243 1318.14 Q765.401 1327.31 765.401 1344.81 Q765.401 1362.26 759.243 1371.47 Q753.132 1380.64 741.512 1380.64 Q729.892 1380.64 723.734 1371.47 Q717.623 1362.26 717.623 1344.81 Q717.623 1327.31 723.734 1318.14 Q729.892 1308.93 741.512 1308.93 Z" fill="#000000" fill-rule="nonzero" fill-opacity="1" /><path clip-path="url(#clip670)" d="M801.836 1316.33 Q794.614 1316.33 790.956 1323.46 Q787.345 1330.55 787.345 1344.81 Q787.345 1359.02 790.956 1366.15 Q794.614 1373.23 801.836 1373.23 Q809.104 1373.23 812.715 1366.15 Q816.373 1359.02 816.373 1344.81 Q816.373 1330.55 812.715 1323.46 Q809.104 1316.33 801.836 1316.33 M801.836 1308.93 Q813.456 1308.93 819.567 1318.14 Q825.725 1327.31 825.725 1344.81 Q825.725 1362.26 819.567 1371.47 Q813.456 1380.64 801.836 1380.64 Q790.215 1380.64 784.058 1371.47 Q777.947 1362.26 777.947 1344.81 Q777.947 1327.31 784.058 1318.14 Q790.215 1308.93 801.836 1308.93 Z" fill="#000000" fill-rule="nonzero" fill-opacity="1" /><path clip-path="url(#clip670)" d="M971.436 1316.33 Q964.214 1316.33 960.556 1323.46 Q956.945 1330.55 956.945 1344.81 Q956.945 1359.02 960.556 1366.15 Q964.214 1373.23 971.436 1373.23 Q978.704 1373.23 982.316 1366.15 Q985.973 1359.02 985.973 1344.81 Q985.973 1330.55 982.316 1323.46 Q978.704 1316.33 971.436 1316.33 M971.436 1308.93 Q983.056 1308.93 989.167 1318.14 Q995.325 1327.31 995.325 1344.81 Q995.325 1362.26 989.167 1371.47 Q983.056 1380.64 971.436 1380.64 Q959.816 1380.64 953.658 1371.47 Q947.547 1362.26 947.547 1344.81 Q947.547 1327.31 953.658 1318.14 Q959.816 1308.93 971.436 1308.93 Z" fill="#000000" fill-rule="nonzero" fill-opacity="1" /><path clip-path="url(#clip670)" d="M1011.76 1367.54 L1021.53 1367.54 L1021.53 1379.3 L1011.76 1379.3 L1011.76 1367.54 Z" fill="#000000" fill-rule="nonzero" fill-opacity="1" /><path clip-path="url(#clip670)" d="M1049.95 1371.43 L1082.59 1371.43 L1082.59 1379.3 L1038.7 1379.3 L1038.7 1371.43 Q1044.03 1365.92 1053.19 1356.66 Q1062.41 1347.35 1064.77 1344.67 Q1069.26 1339.62 1071.02 1336.15 Q1072.82 1332.63 1072.82 1329.25 Q1072.82 1323.74 1068.94 1320.27 Q1065.09 1316.8 1058.89 1316.8 Q1054.49 1316.8 1049.58 1318.32 Q1044.72 1319.85 1039.17 1322.95 L1039.17 1313.51 Q1044.82 1311.24 1049.72 1310.08 Q1054.63 1308.93 1058.7 1308.93 Q1069.44 1308.93 1075.83 1314.3 Q1082.22 1319.67 1082.22 1328.65 Q1082.22 1332.91 1080.6 1336.75 Q1079.03 1340.55 1074.82 1345.73 Q1073.66 1347.07 1067.45 1353.51 Q1061.25 1359.9 1049.95 1371.43 Z" fill="#000000" fill-rule="nonzero" fill-opacity="1" /><path clip-path="url(#clip670)" d="M1102.31 1310.18 L1139.03 1310.18 L1139.03 1318.05 L1110.88 1318.05 L1110.88 1334.99 Q1112.92 1334.3 1114.95 1333.97 Q1116.99 1333.6 1119.03 1333.6 Q1130.6 1333.6 1137.36 1339.94 Q1144.12 1346.29 1144.12 1357.12 Q1144.12 1368.28 1137.18 1374.48 Q1130.23 1380.64 1117.59 1380.64 Q1113.24 1380.64 1108.7 1379.9 Q1104.21 1379.16 1099.4 1377.68 L1099.4 1368.28 Q1103.56 1370.55 1108.01 1371.66 Q1112.45 1372.77 1117.41 1372.77 Q1125.42 1372.77 1130.09 1368.56 Q1134.77 1364.34 1134.77 1357.12 Q1134.77 1349.9 1130.09 1345.68 Q1125.42 1341.47 1117.41 1341.47 Q1113.66 1341.47 1109.91 1342.31 Q1106.2 1343.14 1102.31 1344.9 L1102.31 1310.18 Z" fill="#000000" fill-rule="nonzero" fill-opacity="1" /><path clip-path="url(#clip670)" d="M1289.83 1316.33 Q1282.61 1316.33 1278.95 1323.46 Q1275.34 1330.55 1275.34 1344.81 Q1275.34 1359.02 1278.95 1366.15 Q1282.61 1373.23 1289.83 1373.23 Q1297.1 1373.23 1300.71 1366.15 Q1304.37 1359.02 1304.37 1344.81 Q1304.37 1330.55 1300.71 1323.46 Q1297.1 1316.33 1289.83 1316.33 M1289.83 1308.93 Q1301.45 1308.93 1307.56 1318.14 Q1313.72 1327.31 1313.72 1344.81 Q1313.72 1362.26 1307.56 1371.47 Q1301.45 1380.64 1289.83 1380.64 Q1278.21 1380.64 1272.05 1371.47 Q1265.94 1362.26 1265.94 1344.81 Q1265.94 1327.31 1272.05 1318.14 Q1278.21 1308.93 1289.83 1308.93 Z" fill="#000000" fill-rule="nonzero" fill-opacity="1" /><path clip-path="url(#clip670)" d="M1330.16 1367.54 L1339.92 1367.54 L1339.92 1379.3 L1330.16 1379.3 L1330.16 1367.54 Z" fill="#000000" fill-rule="nonzero" fill-opacity="1" /><path clip-path="url(#clip670)" d="M1360.39 1310.18 L1397.1 1310.18 L1397.1 1318.05 L1368.95 1318.05 L1368.95 1334.99 Q1370.99 1334.3 1373.03 1333.97 Q1375.06 1333.6 1377.1 1333.6 Q1388.67 1333.6 1395.43 1339.94 Q1402.19 1346.29 1402.19 1357.12 Q1402.19 1368.28 1395.25 1374.48 Q1388.3 1380.64 1375.66 1380.64 Q1371.31 1380.64 1366.78 1379.9 Q1362.28 1379.16 1357.47 1377.68 L1357.47 1368.28 Q1361.64 1370.55 1366.08 1371.66 Q1370.53 1372.77 1375.48 1372.77 Q1383.49 1372.77 1388.16 1368.56 Q1392.84 1364.34 1392.84 1357.12 Q1392.84 1349.9 1388.16 1345.68 Q1383.49 1341.47 1375.48 1341.47 Q1371.73 1341.47 1367.98 1342.31 Q1364.28 1343.14 1360.39 1344.9 L1360.39 1310.18 Z" fill="#000000" fill-rule="nonzero" fill-opacity="1" /><path clip-path="url(#clip670)" d="M1440.62 1316.33 Q1433.4 1316.33 1429.74 1323.46 Q1426.13 1330.55 1426.13 1344.81 Q1426.13 1359.02 1429.74 1366.15 Q1433.4 1373.23 1440.62 1373.23 Q1447.89 1373.23 1451.5 1366.15 Q1455.15 1359.02 1455.15 1344.81 Q1455.15 1330.55 1451.5 1323.46 Q1447.89 1316.33 1440.62 1316.33 M1440.62 1308.93 Q1452.24 1308.93 1458.35 1318.14 Q1464.51 1327.31 1464.51 1344.81 Q1464.51 1362.26 1458.35 1371.47 Q1452.24 1380.64 1440.62 1380.64 Q1429 1380.64 1422.84 1371.47 Q1416.73 1362.26 1416.73 1344.81 Q1416.73 1327.31 1422.84 1318.14 Q1429 1308.93 1440.62 1308.93 Z" fill="#000000" fill-rule="nonzero" fill-opacity="1" /><path clip-path="url(#clip670)" d="M1610.22 1316.33 Q1603 1316.33 1599.34 1323.46 Q1595.73 1330.55 1595.73 1344.81 Q1595.73 1359.02 1599.34 1366.15 Q1603 1373.23 1610.22 1373.23 Q1617.49 1373.23 1621.1 1366.15 Q1624.75 1359.02 1624.75 1344.81 Q1624.75 1330.55 1621.1 1323.46 Q1617.49 1316.33 1610.22 1316.33 M1610.22 1308.93 Q1621.84 1308.93 1627.95 1318.14 Q1634.11 1327.31 1634.11 1344.81 Q1634.11 1362.26 1627.95 1371.47 Q1621.84 1380.64 1610.22 1380.64 Q1598.6 1380.64 1592.44 1371.47 Q1586.33 1362.26 1586.33 1344.81 Q1586.33 1327.31 1592.44 1318.14 Q1598.6 1308.93 1610.22 1308.93 Z" fill="#000000" fill-rule="nonzero" fill-opacity="1" /><path clip-path="url(#clip670)" d="M1650.54 1367.54 L1660.31 1367.54 L1660.31 1379.3 L1650.54 1379.3 L1650.54 1367.54 Z" fill="#000000" fill-rule="nonzero" fill-opacity="1" /><path clip-path="url(#clip670)" d="M1678.32 1310.18 L1722.76 1310.18 L1722.76 1314.16 L1697.67 1379.3 L1687.9 1379.3 L1711.51 1318.05 L1678.32 1318.05 L1678.32 1310.18 Z" fill="#000000" fill-rule="nonzero" fill-opacity="1" /><path clip-path="url(#clip670)" d="M1741.1 1310.18 L1777.81 1310.18 L1777.81 1318.05 L1749.66 1318.05 L1749.66 1334.99 Q1751.7 1334.3 1753.74 1333.97 Q1755.77 1333.6 1757.81 1333.6 Q1769.38 1333.6 1776.14 1339.94 Q1782.9 1346.29 1782.9 1357.12 Q1782.9 1368.28 1775.96 1374.48 Q1769.01 1380.64 1756.37 1380.64 Q1752.02 1380.64 1747.49 1379.9 Q1743 1379.16 1738.18 1377.68 L1738.18 1368.28 Q1742.35 1370.55 1746.79 1371.66 Q1751.24 1372.77 1756.19 1372.77 Q1764.2 1372.77 1768.87 1368.56 Q1773.55 1364.34 1773.55 1357.12 Q1773.55 1349.9 1768.87 1345.68 Q1764.2 1341.47 1756.19 1341.47 Q1752.44 1341.47 1748.69 1342.31 Q1744.99 1343.14 1741.1 1344.9 L1741.1 1310.18 Z" fill="#000000" fill-rule="nonzero" fill-opacity="1" /><path clip-path="url(#clip670)" d="M1908.15 1371.43 L1923.43 1371.43 L1923.43 1318.69 L1906.81 1322.03 L1906.81 1313.51 L1923.34 1310.18 L1932.69 1310.18 L1932.69 1371.43 L1947.97 1371.43 L1947.97 1379.3 L1908.15 1379.3 L1908.15 1371.43 Z" fill="#000000" fill-rule="nonzero" fill-opacity="1" /><path clip-path="url(#clip670)" d="M1966.85 1367.54 L1976.62 1367.54 L1976.62 1379.3 L1966.85 1379.3 L1966.85 1367.54 Z" fill="#000000" fill-rule="nonzero" fill-opacity="1" /><path clip-path="url(#clip670)" d="M2016.99 1316.33 Q2009.77 1316.33 2006.11 1323.46 Q2002.5 1330.55 2002.5 1344.81 Q2002.5 1359.02 2006.11 1366.15 Q2009.77 1373.23 2016.99 1373.23 Q2024.26 1373.23 2027.87 1366.15 Q2031.53 1359.02 2031.53 1344.81 Q2031.53 1330.55 2027.87 1323.46 Q2024.26 1316.33 2016.99 1316.33 M2016.99 1308.93 Q2028.61 1308.93 2034.72 1318.14 Q2040.88 1327.31 2040.88 1344.81 Q2040.88 1362.26 2034.72 1371.47 Q2028.61 1380.64 2016.99 1380.64 Q2005.37 1380.64 1999.22 1371.47 Q1993.1 1362.26 1993.1 1344.81 Q1993.1 1327.31 1999.22 1318.14 Q2005.37 1308.93 2016.99 1308.93 Z" fill="#000000" fill-rule="nonzero" fill-opacity="1" /><path clip-path="url(#clip670)" d="M2077.32 1316.33 Q2070.09 1316.33 2066.44 1323.46 Q2062.83 1330.55 2062.83 1344.81 Q2062.83 1359.02 2066.44 1366.15 Q2070.09 1373.23 2077.32 1373.23 Q2084.58 1373.23 2088.2 1366.15 Q2091.85 1359.02 2091.85 1344.81 Q2091.85 1330.55 2088.2 1323.46 Q2084.58 1316.33 2077.32 1316.33 M2077.32 1308.93 Q2088.94 1308.93 2095.05 1318.14 Q2101.21 1327.31 2101.21 1344.81 Q2101.21 1362.26 2095.05 1371.47 Q2088.94 1380.64 2077.32 1380.64 Q2065.7 1380.64 2059.54 1371.47 Q2053.43 1362.26 2053.43 1344.81 Q2053.43 1327.31 2059.54 1318.14 Q2065.7 1308.93 2077.32 1308.93 Z" fill="#000000" fill-rule="nonzero" fill-opacity="1" /><path clip-path="url(#clip670)" d="M1378.53 1484.39 L1378.53 1527.42 L1366.81 1527.42 L1366.81 1484.77 Q1366.81 1474.65 1362.87 1469.62 Q1358.92 1464.59 1351.03 1464.59 Q1341.54 1464.59 1336.07 1470.64 Q1330.59 1476.69 1330.59 1487.13 L1330.59 1527.42 L1318.82 1527.42 L1318.82 1428.37 L1330.59 1428.37 L1330.59 1467.2 Q1334.79 1460.77 1340.46 1457.59 Q1346.19 1454.41 1353.64 1454.41 Q1365.92 1454.41 1372.22 1462.05 Q1378.53 1469.62 1378.53 1484.39 Z" fill="#000000" fill-rule="nonzero" fill-opacity="1" /><path clip-path="url(#clip670)" d="M1429.51 1464.34 Q1420.09 1464.34 1414.62 1471.72 Q1409.14 1479.04 1409.14 1491.84 Q1409.14 1504.63 1414.56 1512.02 Q1420.03 1519.34 1429.51 1519.34 Q1438.87 1519.34 1444.35 1511.96 Q1449.82 1504.57 1449.82 1491.84 Q1449.82 1479.17 1444.35 1471.79 Q1438.87 1464.34 1429.51 1464.34 M1429.51 1454.41 Q1444.79 1454.41 1453.51 1464.34 Q1462.23 1474.27 1462.23 1491.84 Q1462.23 1509.35 1453.51 1519.34 Q1444.79 1529.27 1429.51 1529.27 Q1414.17 1529.27 1405.45 1519.34 Q1396.8 1509.35 1396.8 1491.84 Q1396.8 1474.27 1405.45 1464.34 Q1414.17 1454.41 1429.51 1454.41 Z" fill="#000000" fill-rule="nonzero" fill-opacity="1" /><path clip-path="url(#clip670)" d="M1480.44 1499.29 L1480.44 1456.13 L1492.15 1456.13 L1492.15 1498.84 Q1492.15 1508.96 1496.1 1514.06 Q1500.05 1519.08 1507.94 1519.08 Q1517.43 1519.08 1522.9 1513.04 Q1528.44 1506.99 1528.44 1496.55 L1528.44 1456.13 L1540.15 1456.13 L1540.15 1527.42 L1528.44 1527.42 L1528.44 1516.47 Q1524.17 1522.97 1518.51 1526.15 Q1512.91 1529.27 1505.46 1529.27 Q1493.17 1529.27 1486.81 1521.63 Q1480.44 1513.99 1480.44 1499.29 M1509.91 1454.41 L1509.91 1454.41 Z" fill="#000000" fill-rule="nonzero" fill-opacity="1" /><path clip-path="url(#clip670)" d="M1605.59 1467.08 Q1603.62 1465.93 1601.26 1465.42 Q1598.97 1464.85 1596.17 1464.85 Q1586.24 1464.85 1580.89 1471.34 Q1575.61 1477.77 1575.61 1489.87 L1575.61 1527.42 L1563.83 1527.42 L1563.83 1456.13 L1575.61 1456.13 L1575.61 1467.2 Q1579.3 1460.71 1585.22 1457.59 Q1591.14 1454.41 1599.61 1454.41 Q1600.82 1454.41 1602.28 1454.6 Q1603.74 1454.73 1605.53 1455.05 L1605.59 1467.08 Z" fill="#000000" fill-rule="nonzero" fill-opacity="1" /><path clip-path="url(#clip670)" d="M1663.33 1458.23 L1663.33 1469.3 Q1658.36 1466.76 1653.01 1465.49 Q1647.67 1464.21 1641.94 1464.21 Q1633.22 1464.21 1628.83 1466.89 Q1624.5 1469.56 1624.5 1474.91 Q1624.5 1478.98 1627.62 1481.34 Q1630.73 1483.63 1640.16 1485.73 L1644.17 1486.62 Q1656.64 1489.29 1661.86 1494.19 Q1667.15 1499.03 1667.15 1507.75 Q1667.15 1517.68 1659.25 1523.48 Q1651.42 1529.27 1637.67 1529.27 Q1631.94 1529.27 1625.71 1528.12 Q1619.53 1527.04 1612.66 1524.81 L1612.66 1512.72 Q1619.15 1516.09 1625.45 1517.81 Q1631.75 1519.47 1637.93 1519.47 Q1646.2 1519.47 1650.66 1516.67 Q1655.12 1513.8 1655.12 1508.64 Q1655.12 1503.87 1651.87 1501.32 Q1648.69 1498.78 1637.8 1496.42 L1633.73 1495.47 Q1622.84 1493.18 1618 1488.47 Q1613.17 1483.69 1613.17 1475.42 Q1613.17 1465.36 1620.3 1459.88 Q1627.42 1454.41 1640.54 1454.41 Q1647.03 1454.41 1652.76 1455.36 Q1658.49 1456.32 1663.33 1458.23 Z" fill="#000000" fill-rule="nonzero" fill-opacity="1" /><polyline clip-path="url(#clip672)" style="stroke:#000000; stroke-linecap:round; stroke-linejoin:round; stroke-width:4; stroke-opacity:0.1; fill:none" points="680.45,1096.97 2305.51,1096.97 "/>
<polyline clip-path="url(#clip672)" style="stroke:#000000; stroke-linecap:round; stroke-linejoin:round; stroke-width:4; stroke-opacity:0.1; fill:none" points="680.45,876.703 2305.51,876.703 "/>
<polyline clip-path="url(#clip672)" style="stroke:#000000; stroke-linecap:round; stroke-linejoin:round; stroke-width:4; stroke-opacity:0.1; fill:none" points="680.45,656.437 2305.51,656.437 "/>
<polyline clip-path="url(#clip672)" style="stroke:#000000; stroke-linecap:round; stroke-linejoin:round; stroke-width:4; stroke-opacity:0.1; fill:none" points="680.45,436.171 2305.51,436.171 "/>
<polyline clip-path="url(#clip672)" style="stroke:#000000; stroke-linecap:round; stroke-linejoin:round; stroke-width:4; stroke-opacity:0.1; fill:none" points="680.45,215.906 2305.51,215.906 "/>
<polyline clip-path="url(#clip670)" style="stroke:#000000; stroke-linecap:round; stroke-linejoin:round; stroke-width:8; stroke-opacity:1; fill:none" points="680.45,1273.7 680.45,94.4882 "/>
<polyline clip-path="url(#clip670)" style="stroke:#000000; stroke-linecap:round; stroke-linejoin:round; stroke-width:8; stroke-opacity:1; fill:none" points="680.45,1096.97 699.348,1096.97 "/>
<polyline clip-path="url(#clip670)" style="stroke:#000000; stroke-linecap:round; stroke-linejoin:round; stroke-width:8; stroke-opacity:1; fill:none" points="680.45,876.703 699.348,876.703 "/>
<polyline clip-path="url(#clip670)" style="stroke:#000000; stroke-linecap:round; stroke-linejoin:round; stroke-width:8; stroke-opacity:1; fill:none" points="680.45,656.437 699.348,656.437 "/>
<polyline clip-path="url(#clip670)" style="stroke:#000000; stroke-linecap:round; stroke-linejoin:round; stroke-width:8; stroke-opacity:1; fill:none" points="680.45,436.171 699.348,436.171 "/>
<polyline clip-path="url(#clip670)" style="stroke:#000000; stroke-linecap:round; stroke-linejoin:round; stroke-width:8; stroke-opacity:1; fill:none" points="680.45,215.906 699.348,215.906 "/>
<path clip-path="url(#clip670)" d="M449.868 1062.41 L486.581 1062.41 L486.581 1070.28 L458.433 1070.28 L458.433 1087.22 Q460.47 1086.53 462.507 1086.2 Q464.544 1085.83 466.581 1085.83 Q478.155 1085.83 484.914 1092.18 Q491.673 1098.52 491.673 1109.35 Q491.673 1120.51 484.729 1126.71 Q477.785 1132.87 465.146 1132.87 Q460.794 1132.87 456.257 1132.13 Q451.766 1131.39 446.951 1129.91 L446.951 1120.51 Q451.118 1122.78 455.562 1123.89 Q460.007 1125 464.961 1125 Q472.97 1125 477.646 1120.79 Q482.322 1116.57 482.322 1109.35 Q482.322 1102.13 477.646 1097.92 Q472.97 1093.7 464.961 1093.7 Q461.211 1093.7 457.461 1094.54 Q453.757 1095.37 449.868 1097.13 L449.868 1062.41 Z" fill="#000000" fill-rule="nonzero" fill-opacity="1" /><path clip-path="url(#clip670)" d="M530.099 1068.57 Q522.877 1068.57 519.22 1075.7 Q515.608 1082.78 515.608 1097.04 Q515.608 1111.25 519.22 1118.38 Q522.877 1125.46 530.099 1125.46 Q537.368 1125.46 540.979 1118.38 Q544.636 1111.25 544.636 1097.04 Q544.636 1082.78 540.979 1075.7 Q537.368 1068.57 530.099 1068.57 M530.099 1061.16 Q541.719 1061.16 547.831 1070.37 Q553.988 1079.54 553.988 1097.04 Q553.988 1114.49 547.831 1123.7 Q541.719 1132.87 530.099 1132.87 Q518.479 1132.87 512.321 1123.7 Q506.21 1114.49 506.21 1097.04 Q506.21 1079.54 512.321 1070.37 Q518.479 1061.16 530.099 1061.16 Z" fill="#000000" fill-rule="nonzero" fill-opacity="1" /><path clip-path="url(#clip670)" d="M570.423 1119.77 L580.191 1119.77 L580.191 1131.53 L570.423 1131.53 L570.423 1119.77 Z" fill="#000000" fill-rule="nonzero" fill-opacity="1" /><path clip-path="url(#clip670)" d="M620.562 1068.57 Q613.339 1068.57 609.682 1075.7 Q606.071 1082.78 606.071 1097.04 Q606.071 1111.25 609.682 1118.38 Q613.339 1125.46 620.562 1125.46 Q627.83 1125.46 631.441 1118.38 Q635.099 1111.25 635.099 1097.04 Q635.099 1082.78 631.441 1075.7 Q627.83 1068.57 620.562 1068.57 M620.562 1061.16 Q632.182 1061.16 638.293 1070.37 Q644.45 1079.54 644.45 1097.04 Q644.45 1114.49 638.293 1123.7 Q632.182 1132.87 620.562 1132.87 Q608.941 1132.87 602.784 1123.7 Q596.673 1114.49 596.673 1097.04 Q596.673 1079.54 602.784 1070.37 Q608.941 1061.16 620.562 1061.16 Z" fill="#000000" fill-rule="nonzero" fill-opacity="1" /><path clip-path="url(#clip670)" d="M391.072 903.392 L406.35 903.392 L406.35 850.661 L389.73 853.995 L389.73 845.476 L406.257 842.143 L415.609 842.143 L415.609 903.392 L430.887 903.392 L430.887 911.263 L391.072 911.263 L391.072 903.392 Z" fill="#000000" fill-rule="nonzero" fill-opacity="1" /><path clip-path="url(#clip670)" d="M469.775 848.3 Q462.553 848.3 458.896 855.43 Q455.285 862.513 455.285 876.772 Q455.285 890.985 458.896 898.115 Q462.553 905.198 469.775 905.198 Q477.044 905.198 480.655 898.115 Q484.312 890.985 484.312 876.772 Q484.312 862.513 480.655 855.43 Q477.044 848.3 469.775 848.3 M469.775 840.893 Q481.396 840.893 487.507 850.106 Q493.664 859.272 493.664 876.772 Q493.664 894.226 487.507 903.439 Q481.396 912.605 469.775 912.605 Q458.155 912.605 451.998 903.439 Q445.887 894.226 445.887 876.772 Q445.887 859.272 451.998 850.106 Q458.155 840.893 469.775 840.893 Z" fill="#000000" fill-rule="nonzero" fill-opacity="1" /><path clip-path="url(#clip670)" d="M530.099 848.3 Q522.877 848.3 519.22 855.43 Q515.608 862.513 515.608 876.772 Q515.608 890.985 519.22 898.115 Q522.877 905.198 530.099 905.198 Q537.368 905.198 540.979 898.115 Q544.636 890.985 544.636 876.772 Q544.636 862.513 540.979 855.43 Q537.368 848.3 530.099 848.3 M530.099 840.893 Q541.719 840.893 547.831 850.106 Q553.988 859.272 553.988 876.772 Q553.988 894.226 547.831 903.439 Q541.719 912.605 530.099 912.605 Q518.479 912.605 512.321 903.439 Q506.21 894.226 506.21 876.772 Q506.21 859.272 512.321 850.106 Q518.479 840.893 530.099 840.893 Z" fill="#000000" fill-rule="nonzero" fill-opacity="1" /><path clip-path="url(#clip670)" d="M570.423 899.504 L580.191 899.504 L580.191 911.263 L570.423 911.263 L570.423 899.504 Z" fill="#000000" fill-rule="nonzero" fill-opacity="1" /><path clip-path="url(#clip670)" d="M620.562 848.3 Q613.339 848.3 609.682 855.43 Q606.071 862.513 606.071 876.772 Q606.071 890.985 609.682 898.115 Q613.339 905.198 620.562 905.198 Q627.83 905.198 631.441 898.115 Q635.099 890.985 635.099 876.772 Q635.099 862.513 631.441 855.43 Q627.83 848.3 620.562 848.3 M620.562 840.893 Q632.182 840.893 638.293 850.106 Q644.45 859.272 644.45 876.772 Q644.45 894.226 638.293 903.439 Q632.182 912.605 620.562 912.605 Q608.941 912.605 602.784 903.439 Q596.673 894.226 596.673 876.772 Q596.673 859.272 602.784 850.106 Q608.941 840.893 620.562 840.893 Z" fill="#000000" fill-rule="nonzero" fill-opacity="1" /><path clip-path="url(#clip670)" d="M391.072 683.127 L406.35 683.127 L406.35 630.396 L389.73 633.729 L389.73 625.21 L406.257 621.877 L415.609 621.877 L415.609 683.127 L430.887 683.127 L430.887 690.997 L391.072 690.997 L391.072 683.127 Z" fill="#000000" fill-rule="nonzero" fill-opacity="1" /><path clip-path="url(#clip670)" d="M449.868 621.877 L486.581 621.877 L486.581 629.747 L458.433 629.747 L458.433 646.692 Q460.47 645.997 462.507 645.673 Q464.544 645.303 466.581 645.303 Q478.155 645.303 484.914 651.645 Q491.673 657.988 491.673 668.821 Q491.673 679.979 484.729 686.182 Q477.785 692.34 465.146 692.34 Q460.794 692.34 456.257 691.599 Q451.766 690.858 446.951 689.377 L446.951 679.979 Q451.118 682.247 455.562 683.358 Q460.007 684.469 464.961 684.469 Q472.97 684.469 477.646 680.256 Q482.322 676.043 482.322 668.821 Q482.322 661.599 477.646 657.386 Q472.97 653.173 464.961 653.173 Q461.211 653.173 457.461 654.007 Q453.757 654.84 449.868 656.599 L449.868 621.877 Z" fill="#000000" fill-rule="nonzero" fill-opacity="1" /><path clip-path="url(#clip670)" d="M530.099 628.034 Q522.877 628.034 519.22 635.164 Q515.608 642.247 515.608 656.507 Q515.608 670.719 519.22 677.849 Q522.877 684.932 530.099 684.932 Q537.368 684.932 540.979 677.849 Q544.636 670.719 544.636 656.507 Q544.636 642.247 540.979 635.164 Q537.368 628.034 530.099 628.034 M530.099 620.627 Q541.719 620.627 547.831 629.84 Q553.988 639.007 553.988 656.507 Q553.988 673.96 547.831 683.173 Q541.719 692.34 530.099 692.34 Q518.479 692.34 512.321 683.173 Q506.21 673.96 506.21 656.507 Q506.21 639.007 512.321 629.84 Q518.479 620.627 530.099 620.627 Z" fill="#000000" fill-rule="nonzero" fill-opacity="1" /><path clip-path="url(#clip670)" d="M570.423 679.238 L580.191 679.238 L580.191 690.997 L570.423 690.997 L570.423 679.238 Z" fill="#000000" fill-rule="nonzero" fill-opacity="1" /><path clip-path="url(#clip670)" d="M620.562 628.034 Q613.339 628.034 609.682 635.164 Q606.071 642.247 606.071 656.507 Q606.071 670.719 609.682 677.849 Q613.339 684.932 620.562 684.932 Q627.83 684.932 631.441 677.849 Q635.099 670.719 635.099 656.507 Q635.099 642.247 631.441 635.164 Q627.83 628.034 620.562 628.034 M620.562 620.627 Q632.182 620.627 638.293 629.84 Q644.45 639.007 644.45 656.507 Q644.45 673.96 638.293 683.173 Q632.182 692.34 620.562 692.34 Q608.941 692.34 602.784 683.173 Q596.673 673.96 596.673 656.507 Q596.673 639.007 602.784 629.84 Q608.941 620.627 620.562 620.627 Z" fill="#000000" fill-rule="nonzero" fill-opacity="1" /><path clip-path="url(#clip670)" d="M397.507 462.861 L430.146 462.861 L430.146 470.731 L386.257 470.731 L386.257 462.861 Q391.581 457.352 400.748 448.093 Q409.961 438.787 412.322 436.102 Q416.813 431.056 418.572 427.583 Q420.378 424.065 420.378 420.685 Q420.378 415.176 416.489 411.704 Q412.646 408.232 406.442 408.232 Q402.044 408.232 397.137 409.759 Q392.276 411.287 386.72 414.389 L386.72 404.945 Q392.368 402.676 397.276 401.519 Q402.183 400.361 406.257 400.361 Q416.998 400.361 423.387 405.732 Q429.776 411.102 429.776 420.083 Q429.776 424.343 428.155 428.185 Q426.581 431.982 422.368 437.167 Q421.211 438.509 415.007 444.944 Q408.803 451.333 397.507 462.861 Z" fill="#000000" fill-rule="nonzero" fill-opacity="1" /><path clip-path="url(#clip670)" d="M469.775 407.769 Q462.553 407.769 458.896 414.898 Q455.285 421.982 455.285 436.241 Q455.285 450.454 458.896 457.583 Q462.553 464.667 469.775 464.667 Q477.044 464.667 480.655 457.583 Q484.312 450.454 484.312 436.241 Q484.312 421.982 480.655 414.898 Q477.044 407.769 469.775 407.769 M469.775 400.361 Q481.396 400.361 487.507 409.574 Q493.664 418.741 493.664 436.241 Q493.664 453.694 487.507 462.907 Q481.396 472.074 469.775 472.074 Q458.155 472.074 451.998 462.907 Q445.887 453.694 445.887 436.241 Q445.887 418.741 451.998 409.574 Q458.155 400.361 469.775 400.361 Z" fill="#000000" fill-rule="nonzero" fill-opacity="1" /><path clip-path="url(#clip670)" d="M530.099 407.769 Q522.877 407.769 519.22 414.898 Q515.608 421.982 515.608 436.241 Q515.608 450.454 519.22 457.583 Q522.877 464.667 530.099 464.667 Q537.368 464.667 540.979 457.583 Q544.636 450.454 544.636 436.241 Q544.636 421.982 540.979 414.898 Q537.368 407.769 530.099 407.769 M530.099 400.361 Q541.719 400.361 547.831 409.574 Q553.988 418.741 553.988 436.241 Q553.988 453.694 547.831 462.907 Q541.719 472.074 530.099 472.074 Q518.479 472.074 512.321 462.907 Q506.21 453.694 506.21 436.241 Q506.21 418.741 512.321 409.574 Q518.479 400.361 530.099 400.361 Z" fill="#000000" fill-rule="nonzero" fill-opacity="1" /><path clip-path="url(#clip670)" d="M570.423 458.972 L580.191 458.972 L580.191 470.731 L570.423 470.731 L570.423 458.972 Z" fill="#000000" fill-rule="nonzero" fill-opacity="1" /><path clip-path="url(#clip670)" d="M620.562 407.769 Q613.339 407.769 609.682 414.898 Q606.071 421.982 606.071 436.241 Q606.071 450.454 609.682 457.583 Q613.339 464.667 620.562 464.667 Q627.83 464.667 631.441 457.583 Q635.099 450.454 635.099 436.241 Q635.099 421.982 631.441 414.898 Q627.83 407.769 620.562 407.769 M620.562 400.361 Q632.182 400.361 638.293 409.574 Q644.45 418.741 644.45 436.241 Q644.45 453.694 638.293 462.907 Q632.182 472.074 620.562 472.074 Q608.941 472.074 602.784 462.907 Q596.673 453.694 596.673 436.241 Q596.673 418.741 602.784 409.574 Q608.941 400.361 620.562 400.361 Z" fill="#000000" fill-rule="nonzero" fill-opacity="1" /><path clip-path="url(#clip670)" d="M397.507 242.595 L430.146 242.595 L430.146 250.466 L386.257 250.466 L386.257 242.595 Q391.581 237.086 400.748 227.827 Q409.961 218.521 412.322 215.836 Q416.813 210.79 418.572 207.318 Q420.378 203.799 420.378 200.42 Q420.378 194.91 416.489 191.438 Q412.646 187.966 406.442 187.966 Q402.044 187.966 397.137 189.494 Q392.276 191.022 386.72 194.123 L386.72 184.679 Q392.368 182.41 397.276 181.253 Q402.183 180.096 406.257 180.096 Q416.998 180.096 423.387 185.466 Q429.776 190.836 429.776 199.818 Q429.776 204.077 428.155 207.92 Q426.581 211.716 422.368 216.901 Q421.211 218.244 415.007 224.679 Q408.803 231.068 397.507 242.595 Z" fill="#000000" fill-rule="nonzero" fill-opacity="1" /><path clip-path="url(#clip670)" d="M449.868 181.346 L486.581 181.346 L486.581 189.216 L458.433 189.216 L458.433 206.16 Q460.47 205.466 462.507 205.142 Q464.544 204.771 466.581 204.771 Q478.155 204.771 484.914 211.114 Q491.673 217.457 491.673 228.29 Q491.673 239.447 484.729 245.651 Q477.785 251.808 465.146 251.808 Q460.794 251.808 456.257 251.067 Q451.766 250.327 446.951 248.845 L446.951 239.447 Q451.118 241.716 455.562 242.827 Q460.007 243.938 464.961 243.938 Q472.97 243.938 477.646 239.725 Q482.322 235.512 482.322 228.29 Q482.322 221.068 477.646 216.855 Q472.97 212.642 464.961 212.642 Q461.211 212.642 457.461 213.475 Q453.757 214.308 449.868 216.068 L449.868 181.346 Z" fill="#000000" fill-rule="nonzero" fill-opacity="1" /><path clip-path="url(#clip670)" d="M530.099 187.503 Q522.877 187.503 519.22 194.633 Q515.608 201.716 515.608 215.975 Q515.608 230.188 519.22 237.318 Q522.877 244.401 530.099 244.401 Q537.368 244.401 540.979 237.318 Q544.636 230.188 544.636 215.975 Q544.636 201.716 540.979 194.633 Q537.368 187.503 530.099 187.503 M530.099 180.096 Q541.719 180.096 547.831 189.309 Q553.988 198.475 553.988 215.975 Q553.988 233.429 547.831 242.642 Q541.719 251.808 530.099 251.808 Q518.479 251.808 512.321 242.642 Q506.21 233.429 506.21 215.975 Q506.21 198.475 512.321 189.309 Q518.479 180.096 530.099 180.096 Z" fill="#000000" fill-rule="nonzero" fill-opacity="1" /><path clip-path="url(#clip670)" d="M570.423 238.706 L580.191 238.706 L580.191 250.466 L570.423 250.466 L570.423 238.706 Z" fill="#000000" fill-rule="nonzero" fill-opacity="1" /><path clip-path="url(#clip670)" d="M620.562 187.503 Q613.339 187.503 609.682 194.633 Q606.071 201.716 606.071 215.975 Q606.071 230.188 609.682 237.318 Q613.339 244.401 620.562 244.401 Q627.83 244.401 631.441 237.318 Q635.099 230.188 635.099 215.975 Q635.099 201.716 631.441 194.633 Q627.83 187.503 620.562 187.503 M620.562 180.096 Q632.182 180.096 638.293 189.309 Q644.45 198.475 644.45 215.975 Q644.45 233.429 638.293 242.642 Q632.182 251.808 620.562 251.808 Q608.941 251.808 602.784 242.642 Q596.673 233.429 596.673 215.975 Q596.673 198.475 602.784 189.309 Q608.941 180.096 620.562 180.096 Z" fill="#000000" fill-rule="nonzero" fill-opacity="1" /><path clip-path="url(#clip670)" d="M253.187 913.798 L264.136 913.798 Q261.398 918.764 260.062 923.793 Q258.661 928.758 258.661 933.85 Q258.661 945.245 265.918 951.547 Q273.111 957.849 286.161 957.849 Q299.211 957.849 306.468 951.547 Q313.661 945.245 313.661 933.85 Q313.661 928.758 312.324 923.793 Q310.924 918.764 308.186 913.798 L319.008 913.798 Q321.3 918.7 322.446 923.984 Q323.591 929.204 323.591 935.124 Q323.591 951.229 313.47 960.714 Q303.348 970.199 286.161 970.199 Q268.719 970.199 258.725 960.65 Q248.731 951.038 248.731 934.36 Q248.731 928.949 249.876 923.793 Q250.959 918.636 253.187 913.798 Z" fill="#000000" fill-rule="nonzero" fill-opacity="1" /><path clip-path="url(#clip670)" d="M258.661 865.801 Q258.661 875.222 266.045 880.697 Q273.366 886.171 286.161 886.171 Q298.956 886.171 306.34 880.76 Q313.661 875.286 313.661 865.801 Q313.661 856.443 306.277 850.969 Q298.892 845.494 286.161 845.494 Q273.493 845.494 266.109 850.969 Q258.661 856.443 258.661 865.801 M248.731 865.801 Q248.731 850.523 258.661 841.802 Q268.592 833.081 286.161 833.081 Q303.667 833.081 313.661 841.802 Q323.591 850.523 323.591 865.801 Q323.591 881.142 313.661 889.863 Q303.667 898.521 286.161 898.521 Q268.592 898.521 258.661 889.863 Q248.731 881.142 248.731 865.801 Z" fill="#000000" fill-rule="nonzero" fill-opacity="1" /><path clip-path="url(#clip670)" d="M278.713 754.401 L321.745 754.401 L321.745 766.114 L279.095 766.114 Q268.974 766.114 263.945 770.061 Q258.916 774.008 258.916 781.901 Q258.916 791.386 264.963 796.86 Q271.011 802.335 281.45 802.335 L321.745 802.335 L321.745 814.112 L250.449 814.112 L250.449 802.335 L261.526 802.335 Q255.096 798.134 251.914 792.468 Q248.731 786.739 248.731 779.291 Q248.731 767.005 256.37 760.703 Q263.945 754.401 278.713 754.401 Z" fill="#000000" fill-rule="nonzero" fill-opacity="1" /><path clip-path="url(#clip670)" d="M253.187 679.731 L264.136 679.731 Q261.398 684.697 260.062 689.726 Q258.661 694.691 258.661 699.783 Q258.661 711.178 265.918 717.48 Q273.111 723.782 286.161 723.782 Q299.211 723.782 306.468 717.48 Q313.661 711.178 313.661 699.783 Q313.661 694.691 312.324 689.726 Q310.924 684.697 308.186 679.731 L319.008 679.731 Q321.3 684.633 322.446 689.917 Q323.591 695.136 323.591 701.057 Q323.591 717.162 313.47 726.647 Q303.348 736.132 286.161 736.132 Q268.719 736.132 258.725 726.583 Q248.731 716.971 248.731 700.293 Q248.731 694.882 249.876 689.726 Q250.959 684.569 253.187 679.731 Z" fill="#000000" fill-rule="nonzero" fill-opacity="1" /><path clip-path="url(#clip670)" d="M305.576 657.706 L305.576 644.274 L321.745 644.274 L321.745 657.706 L305.576 657.706 Z" fill="#000000" fill-rule="nonzero" fill-opacity="1" /><path clip-path="url(#clip670)" d="M234.026 504.802 L247.585 504.802 Q241.537 511.295 238.546 518.679 Q235.554 526 235.554 534.275 Q235.554 550.571 245.548 559.229 Q255.478 567.886 274.321 567.886 Q293.1 567.886 303.094 559.229 Q313.024 550.571 313.024 534.275 Q313.024 526 310.032 518.679 Q307.041 511.295 300.993 504.802 L314.425 504.802 Q319.008 511.549 321.3 519.125 Q323.591 526.636 323.591 535.039 Q323.591 556.619 310.414 569.032 Q297.174 581.445 274.321 581.445 Q251.404 581.445 238.227 569.032 Q224.987 556.619 224.987 535.039 Q224.987 526.509 227.278 518.997 Q229.506 511.422 234.026 504.802 Z" fill="#000000" fill-rule="nonzero" fill-opacity="1" /><path clip-path="url(#clip670)" d="M226.705 484.941 L226.705 465.78 L291.381 441.527 L226.705 417.146 L226.705 397.985 L321.745 397.985 L321.745 410.526 L238.291 410.526 L303.476 435.034 L303.476 447.956 L238.291 472.464 L321.745 472.464 L321.745 484.941 L226.705 484.941 Z" fill="#000000" fill-rule="nonzero" fill-opacity="1" /><polyline clip-path="url(#clip672)" style="stroke:#008000; stroke-linecap:round; stroke-linejoin:round; stroke-width:8; stroke-opacity:1; fill:none" points="726.443,1109.58 854.199,1124.22 981.955,1239.22 1109.71,876.703 1237.47,917.606 1365.22,950.146 1492.98,1026.59 1620.74,910.419 1748.49,992.094 1876.25,1006.34 2004.01,1027.77 2131.76,1052.47 2259.52,941.128 "/>
<circle clip-path="url(#clip672)" cx="726.443" cy="1109.58" r="14.4" fill="#008000" fill-rule="evenodd" fill-opacity="1" stroke="#000000" stroke-opacity="1" stroke-width="6.4"/>
<circle clip-path="url(#clip672)" cx="854.199" cy="1124.22" r="14.4" fill="#008000" fill-rule="evenodd" fill-opacity="1" stroke="#000000" stroke-opacity="1" stroke-width="6.4"/>
<circle clip-path="url(#clip672)" cx="981.955" cy="1239.22" r="14.4" fill="#008000" fill-rule="evenodd" fill-opacity="1" stroke="#000000" stroke-opacity="1" stroke-width="6.4"/>
<circle clip-path="url(#clip672)" cx="1109.71" cy="876.703" r="14.4" fill="#008000" fill-rule="evenodd" fill-opacity="1" stroke="#000000" stroke-opacity="1" stroke-width="6.4"/>
<circle clip-path="url(#clip672)" cx="1237.47" cy="917.606" r="14.4" fill="#008000" fill-rule="evenodd" fill-opacity="1" stroke="#000000" stroke-opacity="1" stroke-width="6.4"/>
<circle clip-path="url(#clip672)" cx="1365.22" cy="950.146" r="14.4" fill="#008000" fill-rule="evenodd" fill-opacity="1" stroke="#000000" stroke-opacity="1" stroke-width="6.4"/>
<circle clip-path="url(#clip672)" cx="1492.98" cy="1026.59" r="14.4" fill="#008000" fill-rule="evenodd" fill-opacity="1" stroke="#000000" stroke-opacity="1" stroke-width="6.4"/>
<circle clip-path="url(#clip672)" cx="1620.74" cy="910.419" r="14.4" fill="#008000" fill-rule="evenodd" fill-opacity="1" stroke="#000000" stroke-opacity="1" stroke-width="6.4"/>
<circle clip-path="url(#clip672)" cx="1748.49" cy="992.094" r="14.4" fill="#008000" fill-rule="evenodd" fill-opacity="1" stroke="#000000" stroke-opacity="1" stroke-width="6.4"/>
<circle clip-path="url(#clip672)" cx="1876.25" cy="1006.34" r="14.4" fill="#008000" fill-rule="evenodd" fill-opacity="1" stroke="#000000" stroke-opacity="1" stroke-width="6.4"/>
<circle clip-path="url(#clip672)" cx="2004.01" cy="1027.77" r="14.4" fill="#008000" fill-rule="evenodd" fill-opacity="1" stroke="#000000" stroke-opacity="1" stroke-width="6.4"/>
<circle clip-path="url(#clip672)" cx="2131.76" cy="1052.47" r="14.4" fill="#008000" fill-rule="evenodd" fill-opacity="1" stroke="#000000" stroke-opacity="1" stroke-width="6.4"/>
<circle clip-path="url(#clip672)" cx="2259.52" cy="941.128" r="14.4" fill="#008000" fill-rule="evenodd" fill-opacity="1" stroke="#000000" stroke-opacity="1" stroke-width="6.4"/>
<polyline clip-path="url(#clip672)" style="stroke:#00008b; stroke-linecap:round; stroke-linejoin:round; stroke-width:8; stroke-opacity:1; fill:none" points="726.443,1111.07 854.199,833.207 981.955,725.686 1109.71,577.779 1237.47,509.741 1365.22,467.229 1492.98,429.468 1620.74,387.061 1748.49,414.635 1876.25,372.466 2004.01,362.211 2131.76,365.041 2259.52,346.43 "/>
<path clip-path="url(#clip672)" d="M726.443 1240.32 L854.199 972.046 L981.955 890.922 L1109.71 770.724 L1237.47 715.702 L1365.22 677.11 L1492.98 646.425 L1620.74 603.345 L1748.49 587.564 L1876.25 586.799 L2004.01 568.78 L2131.76 550.015 L2259.52 551.37 L2259.52 127.862 L2131.76 150.039 L2004.01 191.134 L1876.25 161.834 L1748.49 179.308 L1620.74 187.956 L1492.98 250.024 L1365.22 272.516 L1237.47 317.079 L1109.71 402.055 L981.955 566.462 L854.199 710.438 L726.443 979.358  Z" fill="#0000ff" fill-rule="evenodd" fill-opacity="0.1"/>
<polyline clip-path="url(#clip672)" style="stroke:#0000ff; stroke-linecap:round; stroke-linejoin:round; stroke-width:0; stroke-opacity:0.1; fill:none" points="726.443,1240.32 854.199,972.046 981.955,890.922 1109.71,770.724 1237.47,715.702 1365.22,677.11 1492.98,646.425 1620.74,603.345 1748.49,587.564 1876.25,586.799 2004.01,568.78 2131.76,550.015 2259.52,551.37 "/>
</svg>
