<?xml version="1.0" encoding="utf-8"?>
<svg xmlns="http://www.w3.org/2000/svg" xmlns:xlink="http://www.w3.org/1999/xlink" width="600" height="400" viewBox="0 0 2400 1600">
<defs>
  <clipPath id="clip640">
    <rect x="0" y="0" width="2400" height="1600"/>
  </clipPath>
</defs>
<path clip-path="url(#clip640)" d="M0 1600 L2400 1600 L2400 0 L0 0  Z" fill="#ffffff" fill-rule="evenodd" fill-opacity="1"/>
<defs>
  <clipPath id="clip641">
    <rect x="480" y="0" width="1681" height="1600"/>
  </clipPath>
</defs>
<path clip-path="url(#clip640)" d="M680.45 1273.7 L2305.51 1273.7 L2305.51 94.4882 L680.45 94.4882  Z" fill="#ffffff" fill-rule="evenodd" fill-opacity="1"/>
<defs>
  <clipPath id="clip642">
    <rect x="680" y="94" width="1626" height="1180"/>
  </clipPath>
</defs>
<polyline clip-path="url(#clip642)" style="stroke:#000000; stroke-linecap:round; stroke-linejoin:round; stroke-width:4; stroke-opacity:0.1; fill:none" points="726.443,1273.7 726.443,94.4882 "/>
<polyline clip-path="url(#clip642)" style="stroke:#000000; stroke-linecap:round; stroke-linejoin:round; stroke-width:4; stroke-opacity:0.1; fill:none" points="1045.83,1273.7 1045.83,94.4882 "/>
<polyline clip-path="url(#clip642)" style="stroke:#000000; stroke-linecap:round; stroke-linejoin:round; stroke-width:4; stroke-opacity:0.1; fill:none" points="1365.22,1273.7 1365.22,94.4882 "/>
<polyline clip-path="url(#clip642)" style="stroke:#000000; stroke-linecap:round; stroke-linejoin:round; stroke-width:4; stroke-opacity:0.1; fill:none" points="1684.62,1273.7 1684.62,94.4882 "/>
<polyline clip-path="url(#clip642)" style="stroke:#000000; stroke-linecap:round; stroke-linejoin:round; stroke-width:4; stroke-opacity:0.1; fill:none" points="2004.01,1273.7 2004.01,94.4882 "/>
<polyline clip-path="url(#clip640)" style="stroke:#000000; stroke-linecap:round; stroke-linejoin:round; stroke-width:8; stroke-opacity:1; fill:none" points="680.45,1273.7 2305.51,1273.7 "/>
<polyline clip-path="url(#clip640)" style="stroke:#000000; stroke-linecap:round; stroke-linejoin:round; stroke-width:8; stroke-opacity:1; fill:none" points="726.443,1273.7 726.443,1254.8 "/>
<polyline clip-path="url(#clip640)" style="stroke:#000000; stroke-linecap:round; stroke-linejoin:round; stroke-width:8; stroke-opacity:1; fill:none" points="1045.83,1273.7 1045.83,1254.8 "/>
<polyline clip-path="url(#clip640)" style="stroke:#000000; stroke-linecap:round; stroke-linejoin:round; stroke-width:8; stroke-opacity:1; fill:none" points="1365.22,1273.7 1365.22,1254.8 "/>
<polyline clip-path="url(#clip640)" style="stroke:#000000; stroke-linecap:round; stroke-linejoin:round; stroke-width:8; stroke-opacity:1; fill:none" points="1684.62,1273.7 1684.62,1254.8 "/>
<polyline clip-path="url(#clip640)" style="stroke:#000000; stroke-linecap:round; stroke-linejoin:round; stroke-width:8; stroke-opacity:1; fill:none" points="2004.01,1273.7 2004.01,1254.8 "/>
<path clip-path="url(#clip640)" d="M651.05 1316.33 Q643.827 1316.33 640.17 1323.46 Q636.559 1330.55 636.559 1344.81 Q636.559 1359.02 640.17 1366.15 Q643.827 1373.23 651.05 1373.23 Q658.318 1373.23 661.929 1366.15 Q665.587 1359.02 665.587 1344.81 Q665.587 1330.55 661.929 1323.46 Q658.318 1316.33 651.05 1316.33 M651.05 1308.93 Q662.67 1308.93 668.781 1318.14 Q674.938 1327.31 674.938 1344.81 Q674.938 1362.26 668.781 1371.47 Q662.67 1380.64 651.05 1380.64 Q639.429 1380.64 633.272 1371.47 Q627.161 1362.26 627.161 1344.81 Q627.161 1327.31 633.272 1318.14 Q639.429 1308.93 651.05 1308.93 Z" fill="#000000" fill-rule="nonzero" fill-opacity="1" /><path clip-path="url(#clip640)" d="M691.373 1367.54 L701.142 1367.54 L701.142 1379.3 L691.373 1379.3 L691.373 1367.54 Z" fill="#000000" fill-rule="nonzero" fill-opacity="1" /><path clip-path="url(#clip640)" d="M741.512 1316.33 Q734.29 1316.33 730.632 1323.46 Q727.021 1330.55 727.021 1344.81 Q727.021 1359.02 730.632 1366.15 Q734.29 1373.23 741.512 1373.23 Q748.781 1373.23 752.392 1366.15 Q756.049 1359.02 756.049 1344.81 Q756.049 1330.55 752.392 1323.46 Q748.781 1316.33 741.512 1316.33 M741.512 1308.93 Q753.132 1308.93 759.243 1318.14 Q765.401 1327.31 765.401 1344.81 Q765.401 1362.26 759.243 1371.47 Q753.132 1380.64 741.512 1380.64 Q729.892 1380.64 723.734 1371.47 Q717.623 1362.26 717.623 1344.81 Q717.623 1327.31 723.734 1318.14 Q729.892 1308.93 741.512 1308.93 Z" fill="#000000" fill-rule="nonzero" fill-opacity="1" /><path clip-path="url(#clip640)" d="M801.836 1316.33 Q794.614 1316.33 790.956 1323.46 Q787.345 1330.55 787.345 1344.81 Q787.345 1359.02 790.956 1366.15 Q794.614 1373.23 801.836 1373.23 Q809.104 1373.23 812.715 1366.15 Q816.373 1359.02 816.373 1344.81 Q816.373 1330.55 812.715 1323.46 Q809.104 1316.33 801.836 1316.33 M801.836 1308.93 Q813.456 1308.93 819.567 1318.14 Q825.725 1327.31 825.725 1344.81 Q825.725 1362.26 819.567 1371.47 Q813.456 1380.64 801.836 1380.64 Q790.215 1380.64 784.058 1371.47 Q777.947 1362.26 777.947 1344.81 Q777.947 1327.31 784.058 1318.14 Q790.215 1308.93 801.836 1308.93 Z" fill="#000000" fill-rule="nonzero" fill-opacity="1" /><path clip-path="url(#clip640)" d="M971.436 1316.33 Q964.214 1316.33 960.556 1323.46 Q956.945 1330.55 956.945 1344.81 Q956.945 1359.02 960.556 1366.15 Q964.214 1373.23 971.436 1373.23 Q978.704 1373.23 982.316 1366.15 Q985.973 1359.02 985.973 1344.81 Q985.973 1330.55 982.316 1323.46 Q978.704 1316.33 971.436 1316.33 M971.436 1308.93 Q983.056 1308.93 989.167 1318.14 Q995.325 1327.31 995.325 1344.81 Q995.325 1362.26 989.167 1371.47 Q983.056 1380.64 971.436 1380.64 Q959.816 1380.64 953.658 1371.47 Q947.547 1362.26 947.547 1344.81 Q947.547 1327.31 953.658 1318.14 Q959.816 1308.93 971.436 1308.93 Z" fill="#000000" fill-rule="nonzero" fill-opacity="1" /><path clip-path="url(#clip640)" d="M1011.76 1367.54 L1021.53 1367.54 L1021.53 1379.3 L1011.76 1379.3 L1011.76 1367.54 Z" fill="#000000" fill-rule="nonzero" fill-opacity="1" /><path clip-path="url(#clip640)" d="M1049.95 1371.43 L1082.59 1371.43 L1082.59 1379.3 L1038.7 1379.3 L1038.7 1371.43 Q1044.03 1365.92 1053.19 1356.66 Q1062.41 1347.35 1064.77 1344.67 Q1069.26 1339.62 1071.02 1336.15 Q1072.82 1332.63 1072.82 1329.25 Q1072.82 1323.74 1068.94 1320.27 Q1065.09 1316.8 1058.89 1316.8 Q1054.49 1316.8 1049.58 1318.32 Q1044.72 1319.85 1039.17 1322.95 L1039.17 1313.51 Q1044.82 1311.24 1049.72 1310.08 Q1054.63 1308.93 1058.7 1308.93 Q1069.44 1308.93 1075.83 1314.3 Q1082.22 1319.67 1082.22 1328.65 Q1082.22 1332.91 1080.6 1336.75 Q1079.03 1340.55 1074.82 1345.73 Q1073.66 1347.07 1067.45 1353.51 Q1061.25 1359.9 1049.95 1371.43 Z" fill="#000000" fill-rule="nonzero" fill-opacity="1" /><path clip-path="url(#clip640)" d="M1102.31 1310.18 L1139.03 1310.18 L1139.03 1318.05 L1110.88 1318.05 L1110.88 1334.99 Q1112.92 1334.3 1114.95 1333.97 Q1116.99 1333.6 1119.03 1333.6 Q1130.6 1333.6 1137.36 1339.94 Q1144.12 1346.29 1144.12 1357.12 Q1144.12 1368.28 1137.18 1374.48 Q1130.23 1380.64 1117.59 1380.64 Q1113.24 1380.64 1108.7 1379.9 Q1104.21 1379.16 1099.4 1377.68 L1099.4 1368.28 Q1103.56 1370.55 1108.01 1371.66 Q1112.45 1372.77 1117.41 1372.77 Q1125.42 1372.77 1130.09 1368.56 Q1134.77 1364.34 1134.77 1357.12 Q1134.77 1349.9 1130.09 1345.68 Q1125.42 1341.47 1117.41 1341.47 Q1113.66 1341.47 1109.91 1342.31 Q1106.2 1343.14 1102.31 1344.9 L1102.31 1310.18 Z" fill="#000000" fill-rule="nonzero" fill-opacity="1" /><path clip-path="url(#clip640)" d="M1289.83 1316.33 Q1282.61 1316.33 1278.95 1323.46 Q1275.34 1330.55 1275.34 1344.81 Q1275.34 1359.02 1278.95 1366.15 Q1282.61 1373.23 1289.83 1373.23 Q1297.1 1373.23 1300.71 1366.15 Q1304.37 1359.02 1304.37 1344.81 Q1304.37 1330.55 1300.71 1323.46 Q1297.1 1316.33 1289.83 1316.33 M1289.83 1308.93 Q1301.45 1308.93 1307.56 1318.14 Q1313.72 1327.31 1313.72 1344.81 Q1313.72 1362.26 1307.56 1371.47 Q1301.45 1380.64 1289.83 1380.64 Q1278.21 1380.64 1272.05 1371.47 Q1265.94 1362.26 1265.94 1344.81 Q1265.94 1327.31 1272.05 1318.14 Q1278.21 1308.93 1289.83 1308.93 Z" fill="#000000" fill-rule="nonzero" fill-opacity="1" /><path clip-path="url(#clip640)" d="M1330.16 1367.54 L1339.92 1367.54 L1339.92 1379.3 L1330.16 1379.3 L1330.16 1367.54 Z" fill="#000000" fill-rule="nonzero" fill-opacity="1" /><path clip-path="url(#clip640)" d="M1360.39 1310.18 L1397.1 1310.18 L1397.1 1318.05 L1368.95 1318.05 L1368.95 1334.99 Q1370.99 1334.3 1373.03 1333.97 Q1375.06 1333.6 1377.1 1333.6 Q1388.67 1333.6 1395.43 1339.94 Q1402.19 1346.29 1402.19 1357.12 Q1402.19 1368.28 1395.25 1374.48 Q1388.3 1380.64 1375.66 1380.64 Q1371.31 1380.64 1366.78 1379.9 Q1362.28 1379.16 1357.47 1377.68 L1357.47 1368.28 Q1361.64 1370.55 1366.08 1371.66 Q1370.53 1372.77 1375.48 1372.77 Q1383.49 1372.77 1388.16 1368.56 Q1392.84 1364.34 1392.84 1357.12 Q1392.84 1349.9 1388.16 1345.68 Q1383.49 1341.47 1375.48 1341.47 Q1371.73 1341.47 1367.98 1342.31 Q1364.28 1343.14 1360.39 1344.9 L1360.39 1310.18 Z" fill="#000000" fill-rule="nonzero" fill-opacity="1" /><path clip-path="url(#clip640)" d="M1440.62 1316.33 Q1433.4 1316.33 1429.74 1323.46 Q1426.13 1330.55 1426.13 1344.81 Q1426.13 1359.02 1429.74 1366.15 Q1433.4 1373.23 1440.62 1373.23 Q1447.89 1373.23 1451.5 1366.15 Q1455.15 1359.02 1455.15 1344.81 Q1455.15 1330.55 1451.5 1323.46 Q1447.89 1316.33 1440.62 1316.33 M1440.62 1308.93 Q1452.24 1308.93 1458.35 1318.14 Q1464.51 1327.31 1464.51 1344.81 Q1464.51 1362.26 1458.35 1371.47 Q1452.24 1380.64 1440.62 1380.64 Q1429 1380.64 1422.84 1371.47 Q1416.73 1362.26 1416.73 1344.81 Q1416.73 1327.31 1422.84 1318.14 Q1429 1308.93 1440.62 1308.93 Z" fill="#000000" fill-rule="nonzero" fill-opacity="1" /><path clip-path="url(#clip640)" d="M1610.22 1316.33 Q1603 1316.33 1599.34 1323.46 Q1595.73 1330.55 1595.73 1344.81 Q1595.73 1359.02 1599.34 1366.15 Q1603 1373.23 1610.22 1373.23 Q1617.49 1373.23 1621.1 1366.15 Q1624.75 1359.02 1624.75 1344.81 Q1624.75 1330.55 1621.1 1323.46 Q1617.49 1316.33 1610.22 1316.33 M1610.22 1308.93 Q1621.84 1308.93 1627.95 1318.14 Q1634.11 1327.31 1634.11 1344.81 Q1634.11 1362.26 1627.95 1371.47 Q1621.84 1380.64 1610.22 1380.64 Q1598.6 1380.64 1592.44 1371.47 Q1586.33 1362.26 1586.33 1344.81 Q1586.33 1327.31 1592.44 1318.14 Q1598.6 1308.93 1610.22 1308.93 Z" fill="#000000" fill-rule="nonzero" fill-opacity="1" /><path clip-path="url(#clip640)" d="M1650.54 1367.54 L1660.31 1367.54 L1660.31 1379.3 L1650.54 1379.3 L1650.54 1367.54 Z" fill="#000000" fill-rule="nonzero" fill-opacity="1" /><path clip-path="url(#clip640)" d="M1678.32 1310.18 L1722.76 1310.18 L1722.76 1314.16 L1697.67 1379.3 L1687.9 1379.3 L1711.51 1318.05 L1678.32 1318.05 L1678.32 1310.18 Z" fill="#000000" fill-rule="nonzero" fill-opacity="1" /><path clip-path="url(#clip640)" d="M1741.1 1310.18 L1777.81 1310.18 L1777.81 1318.05 L1749.66 1318.05 L1749.66 1334.99 Q1751.7 1334.3 1753.74 1333.97 Q1755.77 1333.6 1757.81 1333.6 Q1769.38 1333.6 1776.14 1339.94 Q1782.9 1346.29 1782.9 1357.12 Q1782.9 1368.28 1775.96 1374.48 Q1769.01 1380.64 1756.37 1380.64 Q1752.02 1380.64 1747.49 1379.9 Q1743 1379.16 1738.18 1377.68 L1738.18 1368.28 Q1742.35 1370.55 1746.79 1371.66 Q1751.24 1372.77 1756.19 1372.77 Q1764.2 1372.77 1768.87 1368.56 Q1773.55 1364.34 1773.55 1357.12 Q1773.55 1349.9 1768.87 1345.68 Q1764.2 1341.47 1756.19 1341.47 Q1752.44 1341.47 1748.69 1342.31 Q1744.99 1343.14 1741.1 1344.9 L1741.1 1310.18 Z" fill="#000000" fill-rule="nonzero" fill-opacity="1" /><path clip-path="url(#clip640)" d="M1908.15 1371.43 L1923.43 1371.43 L1923.43 1318.69 L1906.81 1322.03 L1906.81 1313.51 L1923.34 1310.18 L1932.69 1310.18 L1932.69 1371.43 L1947.97 1371.43 L1947.97 1379.3 L1908.15 1379.3 L1908.15 1371.43 Z" fill="#000000" fill-rule="nonzero" fill-opacity="1" /><path clip-path="url(#clip640)" d="M1966.85 1367.54 L1976.62 1367.54 L1976.62 1379.3 L1966.85 1379.3 L1966.85 1367.54 Z" fill="#000000" fill-rule="nonzero" fill-opacity="1" /><path clip-path="url(#clip640)" d="M2016.99 1316.33 Q2009.77 1316.33 2006.11 1323.46 Q2002.5 1330.55 2002.5 1344.81 Q2002.5 1359.02 2006.11 1366.15 Q2009.77 1373.23 2016.99 1373.23 Q2024.26 1373.23 2027.87 1366.15 Q2031.53 1359.02 2031.53 1344.81 Q2031.53 1330.55 2027.87 1323.46 Q2024.26 1316.33 2016.99 1316.33 M2016.99 1308.93 Q2028.61 1308.93 2034.72 1318.14 Q2040.88 1327.31 2040.88 1344.81 Q2040.88 1362.26 2034.72 1371.47 Q2028.61 1380.64 2016.99 1380.64 Q2005.37 1380.64 1999.22 1371.47 Q1993.1 1362.26 1993.1 1344.81 Q1993.1 1327.31 1999.22 1318.14 Q2005.37 1308.93 2016.99 1308.93 Z" fill="#000000" fill-rule="nonzero" fill-opacity="1" /><path clip-path="url(#clip640)" d="M2077.32 1316.33 Q2070.09 1316.33 2066.44 1323.46 Q2062.83 1330.55 2062.83 1344.81 Q2062.83 1359.02 2066.44 1366.15 Q2070.09 1373.23 2077.32 1373.23 Q2084.58 1373.23 2088.2 1366.15 Q2091.85 1359.02 2091.85 1344.81 Q2091.85 1330.55 2088.2 1323.46 Q2084.58 1316.33 2077.32 1316.33 M2077.32 1308.93 Q2088.94 1308.93 2095.05 1318.14 Q2101.21 1327.31 2101.21 1344.81 Q2101.21 1362.26 2095.05 1371.47 Q2088.94 1380.64 2077.32 1380.64 Q2065.7 1380.64 2059.54 1371.47 Q2053.43 1362.26 2053.43 1344.81 Q2053.43 1327.31 2059.54 1318.14 Q2065.7 1308.93 2077.32 1308.93 Z" fill="#000000" fill-rule="nonzero" fill-opacity="1" /><path clip-path="url(#clip640)" d="M1378.53 1484.39 L1378.53 1527.42 L1366.81 1527.42 L1366.81 1484.77 Q1366.81 1474.65 1362.87 1469.62 Q1358.92 1464.59 1351.03 1464.59 Q1341.54 1464.59 1336.07 1470.64 Q1330.59 1476.69 1330.59 1487.13 L1330.59 1527.42 L1318.82 1527.42 L1318.82 1428.37 L1330.59 1428.37 L1330.59 1467.2 Q1334.79 1460.77 1340.46 1457.59 Q1346.19 1454.41 1353.64 1454.41 Q1365.92 1454.41 1372.22 1462.05 Q1378.53 1469.62 1378.53 1484.39 Z" fill="#000000" fill-rule="nonzero" fill-opacity="1" /><path clip-path="url(#clip640)" d="M1429.51 1464.34 Q1420.09 1464.34 1414.62 1471.72 Q1409.14 1479.04 1409.14 1491.84 Q1409.14 1504.63 1414.56 1512.02 Q1420.03 1519.34 1429.51 1519.34 Q1438.87 1519.34 1444.35 1511.96 Q1449.82 1504.57 1449.82 1491.84 Q1449.82 1479.17 1444.35 1471.79 Q1438.87 1464.34 1429.51 1464.34 M1429.51 1454.41 Q1444.79 1454.41 1453.51 1464.34 Q1462.23 1474.27 1462.23 1491.84 Q1462.23 1509.35 1453.51 1519.34 Q1444.79 1529.27 1429.51 1529.27 Q1414.17 1529.27 1405.45 1519.34 Q1396.8 1509.35 1396.8 1491.84 Q1396.8 1474.27 1405.45 1464.34 Q1414.17 1454.41 1429.51 1454.41 Z" fill="#000000" fill-rule="nonzero" fill-opacity="1" /><path clip-path="url(#clip640)" d="M1480.44 1499.29 L1480.44 1456.13 L1492.15 1456.13 L1492.15 1498.84 Q1492.15 1508.96 1496.1 1514.06 Q1500.05 1519.08 1507.94 1519.08 Q1517.43 1519.08 1522.9 1513.04 Q1528.44 1506.99 1528.44 1496.55 L1528.44 1456.13 L1540.15 1456.13 L1540.15 1527.42 L1528.44 1527.42 L1528.44 1516.47 Q1524.17 1522.97 1518.51 1526.15 Q1512.91 1529.27 1505.46 1529.27 Q1493.17 1529.27 1486.81 1521.63 Q1480.44 1513.99 1480.44 1499.29 M1509.91 1454.41 L1509.91 1454.41 Z" fill="#000000" fill-rule="nonzero" fill-opacity="1" /><path clip-path="url(#clip640)" d="M1605.59 1467.08 Q1603.62 1465.93 1601.26 1465.42 Q1598.97 1464.85 1596.17 1464.85 Q1586.24 1464.85 1580.89 1471.34 Q1575.61 1477.77 1575.61 1489.87 L1575.61 1527.42 L1563.83 1527.42 L1563.83 1456.13 L1575.61 1456.13 L1575.61 1467.2 Q1579.3 1460.71 1585.22 1457.59 Q1591.14 1454.41 1599.61 1454.41 Q1600.82 1454.41 1602.28 1454.6 Q1603.74 1454.73 1605.53 1455.05 L1605.59 1467.08 Z" fill="#000000" fill-rule="nonzero" fill-opacity="1" /><path clip-path="url(#clip640)" d="M1663.33 1458.23 L1663.33 1469.3 Q1658.36 1466.76 1653.01 1465.49 Q1647.67 1464.21 1641.94 1464.21 Q1633.22 1464.21 1628.83 1466.89 Q1624.5 1469.56 1624.5 1474.91 Q1624.5 1478.98 1627.62 1481.34 Q1630.73 1483.63 1640.16 1485.73 L1644.17 1486.62 Q1656.64 1489.29 1661.86 1494.19 Q1667.15 1499.03 1667.15 1507.75 Q1667.15 1517.68 1659.25 1523.48 Q1651.42 1529.27 1637.67 1529.27 Q1631.94 1529.27 1625.71 1528.12 Q1619.53 1527.04 1612.66 1524.81 L1612.66 1512.72 Q1619.15 1516.09 1625.45 1517.81 Q1631.75 1519.47 1637.93 1519.47 Q1646.2 1519.47 1650.66 1516.67 Q1655.12 1513.8 1655.12 1508.64 Q1655.12 1503.87 1651.87 1501.32 Q1648.69 1498.78 1637.8 1496.42 L1633.73 1495.47 Q1622.84 1493.18 1618 1488.47 Q1613.17 1483.69 1613.17 1475.42 Q1613.17 1465.36 1620.3 1459.88 Q1627.42 1454.41 1640.54 1454.41 Q1647.03 1454.41 1652.76 1455.36 Q1658.49 1456.32 1663.33 1458.23 Z" fill="#000000" fill-rule="nonzero" fill-opacity="1" /><polyline clip-path="url(#clip642)" style="stroke:#000000; stroke-linecap:round; stroke-linejoin:round; stroke-width:4; stroke-opacity:0.1; fill:none" points="680.45,1171.96 2305.51,1171.96 "/>
<polyline clip-path="url(#clip642)" style="stroke:#000000; stroke-linecap:round; stroke-linejoin:round; stroke-width:4; stroke-opacity:0.1; fill:none" points="680.45,1005.85 2305.51,1005.85 "/>
<polyline clip-path="url(#clip642)" style="stroke:#000000; stroke-linecap:round; stroke-linejoin:round; stroke-width:4; stroke-opacity:0.1; fill:none" points="680.45,839.746 2305.51,839.746 "/>
<polyline clip-path="url(#clip642)" style="stroke:#000000; stroke-linecap:round; stroke-linejoin:round; stroke-width:4; stroke-opacity:0.1; fill:none" points="680.45,673.641 2305.51,673.641 "/>
<polyline clip-path="url(#clip642)" style="stroke:#000000; stroke-linecap:round; stroke-linejoin:round; stroke-width:4; stroke-opacity:0.1; fill:none" points="680.45,507.535 2305.51,507.535 "/>
<polyline clip-path="url(#clip642)" style="stroke:#000000; stroke-linecap:round; stroke-linejoin:round; stroke-width:4; stroke-opacity:0.1; fill:none" points="680.45,341.43 2305.51,341.43 "/>
<polyline clip-path="url(#clip642)" style="stroke:#000000; stroke-linecap:round; stroke-linejoin:round; stroke-width:4; stroke-opacity:0.1; fill:none" points="680.45,175.325 2305.51,175.325 "/>
<polyline clip-path="url(#clip640)" style="stroke:#000000; stroke-linecap:round; stroke-linejoin:round; stroke-width:8; stroke-opacity:1; fill:none" points="680.45,1273.7 680.45,94.4882 "/>
<polyline clip-path="url(#clip640)" style="stroke:#000000; stroke-linecap:round; stroke-linejoin:round; stroke-width:8; stroke-opacity:1; fill:none" points="680.45,1171.96 699.348,1171.96 "/>
<polyline clip-path="url(#clip640)" style="stroke:#000000; stroke-linecap:round; stroke-linejoin:round; stroke-width:8; stroke-opacity:1; fill:none" points="680.45,1005.85 699.348,1005.85 "/>
<polyline clip-path="url(#clip640)" style="stroke:#000000; stroke-linecap:round; stroke-linejoin:round; stroke-width:8; stroke-opacity:1; fill:none" points="680.45,839.746 699.348,839.746 "/>
<polyline clip-path="url(#clip640)" style="stroke:#000000; stroke-linecap:round; stroke-linejoin:round; stroke-width:8; stroke-opacity:1; fill:none" points="680.45,673.641 699.348,673.641 "/>
<polyline clip-path="url(#clip640)" style="stroke:#000000; stroke-linecap:round; stroke-linejoin:round; stroke-width:8; stroke-opacity:1; fill:none" points="680.45,507.535 699.348,507.535 "/>
<polyline clip-path="url(#clip640)" style="stroke:#000000; stroke-linecap:round; stroke-linejoin:round; stroke-width:8; stroke-opacity:1; fill:none" points="680.45,341.43 699.348,341.43 "/>
<polyline clip-path="url(#clip640)" style="stroke:#000000; stroke-linecap:round; stroke-linejoin:round; stroke-width:8; stroke-opacity:1; fill:none" points="680.45,175.325 699.348,175.325 "/>
<path clip-path="url(#clip640)" d="M391.072 1198.65 L406.35 1198.65 L406.35 1145.91 L389.73 1149.25 L389.73 1140.73 L406.257 1137.4 L415.609 1137.4 L415.609 1198.65 L430.887 1198.65 L430.887 1206.52 L391.072 1206.52 L391.072 1198.65 Z" fill="#000000" fill-rule="nonzero" fill-opacity="1" /><path clip-path="url(#clip640)" d="M457.831 1198.65 L490.47 1198.65 L490.47 1206.52 L446.581 1206.52 L446.581 1198.65 Q451.905 1193.14 461.072 1183.88 Q470.285 1174.57 472.646 1171.89 Q477.136 1166.84 478.896 1163.37 Q480.701 1159.85 480.701 1156.47 Q480.701 1150.96 476.812 1147.49 Q472.97 1144.02 466.766 1144.02 Q462.368 1144.02 457.461 1145.54 Q452.6 1147.07 447.044 1150.17 L447.044 1140.73 Q452.692 1138.46 457.6 1137.3 Q462.507 1136.15 466.581 1136.15 Q477.322 1136.15 483.71 1141.52 Q490.099 1146.89 490.099 1155.87 Q490.099 1160.13 488.479 1163.97 Q486.905 1167.77 482.692 1172.95 Q481.535 1174.29 475.331 1180.73 Q469.127 1187.12 457.831 1198.65 Z" fill="#000000" fill-rule="nonzero" fill-opacity="1" /><path clip-path="url(#clip640)" d="M510.192 1137.4 L546.905 1137.4 L546.905 1145.27 L518.757 1145.27 L518.757 1162.21 Q520.794 1161.52 522.831 1161.19 Q524.868 1160.82 526.905 1160.82 Q538.479 1160.82 545.238 1167.16 Q551.997 1173.51 551.997 1184.34 Q551.997 1195.5 545.053 1201.7 Q538.108 1207.86 525.47 1207.86 Q521.118 1207.86 516.581 1207.12 Q512.09 1206.38 507.275 1204.9 L507.275 1195.5 Q511.442 1197.77 515.886 1198.88 Q520.331 1199.99 525.284 1199.99 Q533.294 1199.99 537.969 1195.78 Q542.645 1191.56 542.645 1184.34 Q542.645 1177.12 537.969 1172.91 Q533.294 1168.69 525.284 1168.69 Q521.534 1168.69 517.784 1169.53 Q514.081 1170.36 510.192 1172.12 L510.192 1137.4 Z" fill="#000000" fill-rule="nonzero" fill-opacity="1" /><path clip-path="url(#clip640)" d="M570.423 1194.76 L580.191 1194.76 L580.191 1206.52 L570.423 1206.52 L570.423 1194.76 Z" fill="#000000" fill-rule="nonzero" fill-opacity="1" /><path clip-path="url(#clip640)" d="M620.562 1143.55 Q613.339 1143.55 609.682 1150.68 Q606.071 1157.77 606.071 1172.03 Q606.071 1186.24 609.682 1193.37 Q613.339 1200.45 620.562 1200.45 Q627.83 1200.45 631.441 1193.37 Q635.099 1186.24 635.099 1172.03 Q635.099 1157.77 631.441 1150.68 Q627.83 1143.55 620.562 1143.55 M620.562 1136.15 Q632.182 1136.15 638.293 1145.36 Q644.45 1154.53 644.45 1172.03 Q644.45 1189.48 638.293 1198.69 Q632.182 1207.86 620.562 1207.86 Q608.941 1207.86 602.784 1198.69 Q596.673 1189.48 596.673 1172.03 Q596.673 1154.53 602.784 1145.36 Q608.941 1136.15 620.562 1136.15 Z" fill="#000000" fill-rule="nonzero" fill-opacity="1" /><path clip-path="url(#clip640)" d="M391.072 1032.54 L406.35 1032.54 L406.35 979.809 L389.73 983.143 L389.73 974.624 L406.257 971.291 L415.609 971.291 L415.609 1032.54 L430.887 1032.54 L430.887 1040.41 L391.072 1040.41 L391.072 1032.54 Z" fill="#000000" fill-rule="nonzero" fill-opacity="1" /><path clip-path="url(#clip640)" d="M449.868 971.291 L486.581 971.291 L486.581 979.161 L458.433 979.161 L458.433 996.106 Q460.47 995.411 462.507 995.087 Q464.544 994.717 466.581 994.717 Q478.155 994.717 484.914 1001.06 Q491.673 1007.4 491.673 1018.24 Q491.673 1029.39 484.729 1035.6 Q477.785 1041.75 465.146 1041.75 Q460.794 1041.75 456.257 1041.01 Q451.766 1040.27 446.951 1038.79 L446.951 1029.39 Q451.118 1031.66 455.562 1032.77 Q460.007 1033.88 464.961 1033.88 Q472.97 1033.88 477.646 1029.67 Q482.322 1025.46 482.322 1018.24 Q482.322 1011.01 477.646 1006.8 Q472.97 1002.59 464.961 1002.59 Q461.211 1002.59 457.461 1003.42 Q453.757 1004.25 449.868 1006.01 L449.868 971.291 Z" fill="#000000" fill-rule="nonzero" fill-opacity="1" /><path clip-path="url(#clip640)" d="M530.099 977.448 Q522.877 977.448 519.22 984.578 Q515.608 991.661 515.608 1005.92 Q515.608 1020.13 519.22 1027.26 Q522.877 1034.35 530.099 1034.35 Q537.368 1034.35 540.979 1027.26 Q544.636 1020.13 544.636 1005.92 Q544.636 991.661 540.979 984.578 Q537.368 977.448 530.099 977.448 M530.099 970.041 Q541.719 970.041 547.831 979.254 Q553.988 988.421 553.988 1005.92 Q553.988 1023.37 547.831 1032.59 Q541.719 1041.75 530.099 1041.75 Q518.479 1041.75 512.321 1032.59 Q506.21 1023.37 506.21 1005.92 Q506.21 988.421 512.321 979.254 Q518.479 970.041 530.099 970.041 Z" fill="#000000" fill-rule="nonzero" fill-opacity="1" /><path clip-path="url(#clip640)" d="M570.423 1028.65 L580.191 1028.65 L580.191 1040.41 L570.423 1040.41 L570.423 1028.65 Z" fill="#000000" fill-rule="nonzero" fill-opacity="1" /><path clip-path="url(#clip640)" d="M620.562 977.448 Q613.339 977.448 609.682 984.578 Q606.071 991.661 606.071 1005.92 Q606.071 1020.13 609.682 1027.26 Q613.339 1034.35 620.562 1034.35 Q627.83 1034.35 631.441 1027.26 Q635.099 1020.13 635.099 1005.92 Q635.099 991.661 631.441 984.578 Q627.83 977.448 620.562 977.448 M620.562 970.041 Q632.182 970.041 638.293 979.254 Q644.45 988.421 644.45 1005.92 Q644.45 1023.37 638.293 1032.59 Q632.182 1041.75 620.562 1041.75 Q608.941 1041.75 602.784 1032.59 Q596.673 1023.37 596.673 1005.92 Q596.673 988.421 602.784 979.254 Q608.941 970.041 620.562 970.041 Z" fill="#000000" fill-rule="nonzero" fill-opacity="1" /><path clip-path="url(#clip640)" d="M391.072 866.435 L406.35 866.435 L406.35 813.704 L389.73 817.038 L389.73 808.519 L406.257 805.186 L415.609 805.186 L415.609 866.435 L430.887 866.435 L430.887 874.306 L391.072 874.306 L391.072 866.435 Z" fill="#000000" fill-rule="nonzero" fill-opacity="1" /><path clip-path="url(#clip640)" d="M447.414 805.186 L491.859 805.186 L491.859 809.167 L466.766 874.306 L456.998 874.306 L480.609 813.056 L447.414 813.056 L447.414 805.186 Z" fill="#000000" fill-rule="nonzero" fill-opacity="1" /><path clip-path="url(#clip640)" d="M510.192 805.186 L546.905 805.186 L546.905 813.056 L518.757 813.056 L518.757 830 Q520.794 829.306 522.831 828.982 Q524.868 828.612 526.905 828.612 Q538.479 828.612 545.238 834.954 Q551.997 841.297 551.997 852.13 Q551.997 863.287 545.053 869.491 Q538.108 875.648 525.47 875.648 Q521.118 875.648 516.581 874.908 Q512.09 874.167 507.275 872.685 L507.275 863.287 Q511.442 865.556 515.886 866.667 Q520.331 867.778 525.284 867.778 Q533.294 867.778 537.969 863.565 Q542.645 859.352 542.645 852.13 Q542.645 844.908 537.969 840.695 Q533.294 836.482 525.284 836.482 Q521.534 836.482 517.784 837.315 Q514.081 838.149 510.192 839.908 L510.192 805.186 Z" fill="#000000" fill-rule="nonzero" fill-opacity="1" /><path clip-path="url(#clip640)" d="M570.423 862.547 L580.191 862.547 L580.191 874.306 L570.423 874.306 L570.423 862.547 Z" fill="#000000" fill-rule="nonzero" fill-opacity="1" /><path clip-path="url(#clip640)" d="M620.562 811.343 Q613.339 811.343 609.682 818.473 Q606.071 825.556 606.071 839.815 Q606.071 854.028 609.682 861.158 Q613.339 868.241 620.562 868.241 Q627.83 868.241 631.441 861.158 Q635.099 854.028 635.099 839.815 Q635.099 825.556 631.441 818.473 Q627.83 811.343 620.562 811.343 M620.562 803.936 Q632.182 803.936 638.293 813.149 Q644.45 822.315 644.45 839.815 Q644.45 857.269 638.293 866.482 Q632.182 875.648 620.562 875.648 Q608.941 875.648 602.784 866.482 Q596.673 857.269 596.673 839.815 Q596.673 822.315 602.784 813.149 Q608.941 803.936 620.562 803.936 Z" fill="#000000" fill-rule="nonzero" fill-opacity="1" /><path clip-path="url(#clip640)" d="M397.507 700.33 L430.146 700.33 L430.146 708.201 L386.257 708.201 L386.257 700.33 Q391.581 694.821 400.748 685.562 Q409.961 676.256 412.322 673.571 Q416.813 668.525 418.572 665.053 Q420.378 661.534 420.378 658.155 Q420.378 652.645 416.489 649.173 Q412.646 645.701 406.442 645.701 Q402.044 645.701 397.137 647.229 Q392.276 648.756 386.72 651.858 L386.72 642.414 Q392.368 640.145 397.276 638.988 Q402.183 637.831 406.257 637.831 Q416.998 637.831 423.387 643.201 Q429.776 648.571 429.776 657.553 Q429.776 661.812 428.155 665.655 Q426.581 669.451 422.368 674.636 Q421.211 675.979 415.007 682.414 Q408.803 688.803 397.507 700.33 Z" fill="#000000" fill-rule="nonzero" fill-opacity="1" /><path clip-path="url(#clip640)" d="M469.775 645.238 Q462.553 645.238 458.896 652.368 Q455.285 659.451 455.285 673.71 Q455.285 687.923 458.896 695.053 Q462.553 702.136 469.775 702.136 Q477.044 702.136 480.655 695.053 Q484.312 687.923 484.312 673.71 Q484.312 659.451 480.655 652.368 Q477.044 645.238 469.775 645.238 M469.775 637.831 Q481.396 637.831 487.507 647.044 Q493.664 656.21 493.664 673.71 Q493.664 691.164 487.507 700.377 Q481.396 709.543 469.775 709.543 Q458.155 709.543 451.998 700.377 Q445.887 691.164 445.887 673.71 Q445.887 656.21 451.998 647.044 Q458.155 637.831 469.775 637.831 Z" fill="#000000" fill-rule="nonzero" fill-opacity="1" /><path clip-path="url(#clip640)" d="M530.099 645.238 Q522.877 645.238 519.22 652.368 Q515.608 659.451 515.608 673.71 Q515.608 687.923 519.22 695.053 Q522.877 702.136 530.099 702.136 Q537.368 702.136 540.979 695.053 Q544.636 687.923 544.636 673.71 Q544.636 659.451 540.979 652.368 Q537.368 645.238 530.099 645.238 M530.099 637.831 Q541.719 637.831 547.831 647.044 Q553.988 656.21 553.988 673.71 Q553.988 691.164 547.831 700.377 Q541.719 709.543 530.099 709.543 Q518.479 709.543 512.321 700.377 Q506.21 691.164 506.21 673.71 Q506.21 656.21 512.321 647.044 Q518.479 637.831 530.099 637.831 Z" fill="#000000" fill-rule="nonzero" fill-opacity="1" /><path clip-path="url(#clip640)" d="M570.423 696.441 L580.191 696.441 L580.191 708.201 L570.423 708.201 L570.423 696.441 Z" fill="#000000" fill-rule="nonzero" fill-opacity="1" /><path clip-path="url(#clip640)" d="M620.562 645.238 Q613.339 645.238 609.682 652.368 Q606.071 659.451 606.071 673.71 Q606.071 687.923 609.682 695.053 Q613.339 702.136 620.562 702.136 Q627.83 702.136 631.441 695.053 Q635.099 687.923 635.099 673.71 Q635.099 659.451 631.441 652.368 Q627.83 645.238 620.562 645.238 M620.562 637.831 Q632.182 637.831 638.293 647.044 Q644.45 656.21 644.45 673.71 Q644.45 691.164 638.293 700.377 Q632.182 709.543 620.562 709.543 Q608.941 709.543 602.784 700.377 Q596.673 691.164 596.673 673.71 Q596.673 656.21 602.784 647.044 Q608.941 637.831 620.562 637.831 Z" fill="#000000" fill-rule="nonzero" fill-opacity="1" /><path clip-path="url(#clip640)" d="M397.507 534.225 L430.146 534.225 L430.146 542.095 L386.257 542.095 L386.257 534.225 Q391.581 528.716 400.748 519.457 Q409.961 510.151 412.322 507.466 Q416.813 502.42 418.572 498.947 Q420.378 495.429 420.378 492.049 Q420.378 486.54 416.489 483.068 Q412.646 479.596 406.442 479.596 Q402.044 479.596 397.137 481.124 Q392.276 482.651 386.72 485.753 L386.72 476.309 Q392.368 474.04 397.276 472.883 Q402.183 471.725 406.257 471.725 Q416.998 471.725 423.387 477.096 Q429.776 482.466 429.776 491.448 Q429.776 495.707 428.155 499.549 Q426.581 503.346 422.368 508.531 Q421.211 509.873 415.007 516.309 Q408.803 522.697 397.507 534.225 Z" fill="#000000" fill-rule="nonzero" fill-opacity="1" /><path clip-path="url(#clip640)" d="M457.831 534.225 L490.47 534.225 L490.47 542.095 L446.581 542.095 L446.581 534.225 Q451.905 528.716 461.072 519.457 Q470.285 510.151 472.646 507.466 Q477.136 502.42 478.896 498.947 Q480.701 495.429 480.701 492.049 Q480.701 486.54 476.812 483.068 Q472.97 479.596 466.766 479.596 Q462.368 479.596 457.461 481.124 Q452.6 482.651 447.044 485.753 L447.044 476.309 Q452.692 474.04 457.6 472.883 Q462.507 471.725 466.581 471.725 Q477.322 471.725 483.71 477.096 Q490.099 482.466 490.099 491.448 Q490.099 495.707 488.479 499.549 Q486.905 503.346 482.692 508.531 Q481.535 509.873 475.331 516.309 Q469.127 522.697 457.831 534.225 Z" fill="#000000" fill-rule="nonzero" fill-opacity="1" /><path clip-path="url(#clip640)" d="M510.192 472.975 L546.905 472.975 L546.905 480.846 L518.757 480.846 L518.757 497.79 Q520.794 497.096 522.831 496.772 Q524.868 496.401 526.905 496.401 Q538.479 496.401 545.238 502.744 Q551.997 509.086 551.997 519.92 Q551.997 531.077 545.053 537.281 Q538.108 543.438 525.47 543.438 Q521.118 543.438 516.581 542.697 Q512.09 541.957 507.275 540.475 L507.275 531.077 Q511.442 533.345 515.886 534.457 Q520.331 535.568 525.284 535.568 Q533.294 535.568 537.969 531.355 Q542.645 527.142 542.645 519.92 Q542.645 512.697 537.969 508.484 Q533.294 504.272 525.284 504.272 Q521.534 504.272 517.784 505.105 Q514.081 505.938 510.192 507.697 L510.192 472.975 Z" fill="#000000" fill-rule="nonzero" fill-opacity="1" /><path clip-path="url(#clip640)" d="M570.423 530.336 L580.191 530.336 L580.191 542.095 L570.423 542.095 L570.423 530.336 Z" fill="#000000" fill-rule="nonzero" fill-opacity="1" /><path clip-path="url(#clip640)" d="M620.562 479.133 Q613.339 479.133 609.682 486.262 Q606.071 493.346 606.071 507.605 Q606.071 521.818 609.682 528.947 Q613.339 536.031 620.562 536.031 Q627.83 536.031 631.441 528.947 Q635.099 521.818 635.099 507.605 Q635.099 493.346 631.441 486.262 Q627.83 479.133 620.562 479.133 M620.562 471.725 Q632.182 471.725 638.293 480.938 Q644.45 490.105 644.45 507.605 Q644.45 525.058 638.293 534.271 Q632.182 543.438 620.562 543.438 Q608.941 543.438 602.784 534.271 Q596.673 525.058 596.673 507.605 Q596.673 490.105 602.784 480.938 Q608.941 471.725 620.562 471.725 Z" fill="#000000" fill-rule="nonzero" fill-opacity="1" /><path clip-path="url(#clip640)" d="M397.507 368.12 L430.146 368.12 L430.146 375.99 L386.257 375.99 L386.257 368.12 Q391.581 362.611 400.748 353.351 Q409.961 344.046 412.322 341.361 Q416.813 336.314 418.572 332.842 Q420.378 329.324 420.378 325.944 Q420.378 320.435 416.489 316.963 Q412.646 313.491 406.442 313.491 Q402.044 313.491 397.137 315.018 Q392.276 316.546 386.72 319.648 L386.72 310.204 Q392.368 307.935 397.276 306.778 Q402.183 305.62 406.257 305.62 Q416.998 305.62 423.387 310.991 Q429.776 316.361 429.776 325.342 Q429.776 329.602 428.155 333.444 Q426.581 337.24 422.368 342.426 Q421.211 343.768 415.007 350.203 Q408.803 356.592 397.507 368.12 Z" fill="#000000" fill-rule="nonzero" fill-opacity="1" /><path clip-path="url(#clip640)" d="M449.868 306.87 L486.581 306.87 L486.581 314.741 L458.433 314.741 L458.433 331.685 Q460.47 330.99 462.507 330.666 Q464.544 330.296 466.581 330.296 Q478.155 330.296 484.914 336.639 Q491.673 342.981 491.673 353.814 Q491.673 364.972 484.729 371.175 Q477.785 377.333 465.146 377.333 Q460.794 377.333 456.257 376.592 Q451.766 375.851 446.951 374.37 L446.951 364.972 Q451.118 367.24 455.562 368.351 Q460.007 369.462 464.961 369.462 Q472.97 369.462 477.646 365.25 Q482.322 361.037 482.322 353.814 Q482.322 346.592 477.646 342.379 Q472.97 338.166 464.961 338.166 Q461.211 338.166 457.461 339 Q453.757 339.833 449.868 341.592 L449.868 306.87 Z" fill="#000000" fill-rule="nonzero" fill-opacity="1" /><path clip-path="url(#clip640)" d="M530.099 313.028 Q522.877 313.028 519.22 320.157 Q515.608 327.24 515.608 341.5 Q515.608 355.713 519.22 362.842 Q522.877 369.925 530.099 369.925 Q537.368 369.925 540.979 362.842 Q544.636 355.713 544.636 341.5 Q544.636 327.24 540.979 320.157 Q537.368 313.028 530.099 313.028 M530.099 305.62 Q541.719 305.62 547.831 314.833 Q553.988 324 553.988 341.5 Q553.988 358.953 547.831 368.166 Q541.719 377.333 530.099 377.333 Q518.479 377.333 512.321 368.166 Q506.21 358.953 506.21 341.5 Q506.21 324 512.321 314.833 Q518.479 305.62 530.099 305.62 Z" fill="#000000" fill-rule="nonzero" fill-opacity="1" /><path clip-path="url(#clip640)" d="M570.423 364.231 L580.191 364.231 L580.191 375.99 L570.423 375.99 L570.423 364.231 Z" fill="#000000" fill-rule="nonzero" fill-opacity="1" /><path clip-path="url(#clip640)" d="M620.562 313.028 Q613.339 313.028 609.682 320.157 Q606.071 327.24 606.071 341.5 Q606.071 355.713 609.682 362.842 Q613.339 369.925 620.562 369.925 Q627.83 369.925 631.441 362.842 Q635.099 355.713 635.099 341.5 Q635.099 327.24 631.441 320.157 Q627.83 313.028 620.562 313.028 M620.562 305.62 Q632.182 305.62 638.293 314.833 Q644.45 324 644.45 341.5 Q644.45 358.953 638.293 368.166 Q632.182 377.333 620.562 377.333 Q608.941 377.333 602.784 368.166 Q596.673 358.953 596.673 341.5 Q596.673 324 602.784 314.833 Q608.941 305.62 620.562 305.62 Z" fill="#000000" fill-rule="nonzero" fill-opacity="1" /><path clip-path="url(#clip640)" d="M397.507 202.015 L430.146 202.015 L430.146 209.885 L386.257 209.885 L386.257 202.015 Q391.581 196.505 400.748 187.246 Q409.961 177.941 412.322 175.256 Q416.813 170.209 418.572 166.737 Q420.378 163.219 420.378 159.839 Q420.378 154.33 416.489 150.858 Q412.646 147.385 406.442 147.385 Q402.044 147.385 397.137 148.913 Q392.276 150.441 386.72 153.543 L386.72 144.098 Q392.368 141.83 397.276 140.672 Q402.183 139.515 406.257 139.515 Q416.998 139.515 423.387 144.885 Q429.776 150.256 429.776 159.237 Q429.776 163.496 428.155 167.339 Q426.581 171.135 422.368 176.32 Q421.211 177.663 415.007 184.098 Q408.803 190.487 397.507 202.015 Z" fill="#000000" fill-rule="nonzero" fill-opacity="1" /><path clip-path="url(#clip640)" d="M447.414 140.765 L491.859 140.765 L491.859 144.746 L466.766 209.885 L456.998 209.885 L480.609 148.635 L447.414 148.635 L447.414 140.765 Z" fill="#000000" fill-rule="nonzero" fill-opacity="1" /><path clip-path="url(#clip640)" d="M510.192 140.765 L546.905 140.765 L546.905 148.635 L518.757 148.635 L518.757 165.58 Q520.794 164.885 522.831 164.561 Q524.868 164.191 526.905 164.191 Q538.479 164.191 545.238 170.533 Q551.997 176.876 551.997 187.709 Q551.997 198.867 545.053 205.07 Q538.108 211.228 525.47 211.228 Q521.118 211.228 516.581 210.487 Q512.09 209.746 507.275 208.265 L507.275 198.867 Q511.442 201.135 515.886 202.246 Q520.331 203.357 525.284 203.357 Q533.294 203.357 537.969 199.144 Q542.645 194.931 542.645 187.709 Q542.645 180.487 537.969 176.274 Q533.294 172.061 525.284 172.061 Q521.534 172.061 517.784 172.894 Q514.081 173.728 510.192 175.487 L510.192 140.765 Z" fill="#000000" fill-rule="nonzero" fill-opacity="1" /><path clip-path="url(#clip640)" d="M570.423 198.126 L580.191 198.126 L580.191 209.885 L570.423 209.885 L570.423 198.126 Z" fill="#000000" fill-rule="nonzero" fill-opacity="1" /><path clip-path="url(#clip640)" d="M620.562 146.922 Q613.339 146.922 609.682 154.052 Q606.071 161.135 606.071 175.394 Q606.071 189.607 609.682 196.737 Q613.339 203.82 620.562 203.82 Q627.83 203.82 631.441 196.737 Q635.099 189.607 635.099 175.394 Q635.099 161.135 631.441 154.052 Q627.83 146.922 620.562 146.922 M620.562 139.515 Q632.182 139.515 638.293 148.728 Q644.45 157.895 644.45 175.394 Q644.45 192.848 638.293 202.061 Q632.182 211.228 620.562 211.228 Q608.941 211.228 602.784 202.061 Q596.673 192.848 596.673 175.394 Q596.673 157.895 602.784 148.728 Q608.941 139.515 620.562 139.515 Z" fill="#000000" fill-rule="nonzero" fill-opacity="1" /><path clip-path="url(#clip640)" d="M253.187 1099.45 L264.136 1099.45 Q261.398 1104.42 260.062 1109.45 Q258.661 1114.41 258.661 1119.51 Q258.661 1130.9 265.918 1137.2 Q273.111 1143.51 286.161 1143.51 Q299.211 1143.51 306.468 1137.2 Q313.661 1130.9 313.661 1119.51 Q313.661 1114.41 312.324 1109.45 Q310.924 1104.42 308.186 1099.45 L319.008 1099.45 Q321.3 1104.36 322.446 1109.64 Q323.591 1114.86 323.591 1120.78 Q323.591 1136.88 313.47 1146.37 Q303.348 1155.85 286.161 1155.85 Q268.719 1155.85 258.725 1146.31 Q248.731 1136.69 248.731 1120.02 Q248.731 1114.6 249.876 1109.45 Q250.959 1104.29 253.187 1099.45 Z" fill="#000000" fill-rule="nonzero" fill-opacity="1" /><path clip-path="url(#clip640)" d="M258.661 1051.46 Q258.661 1060.88 266.045 1066.35 Q273.366 1071.83 286.161 1071.83 Q298.956 1071.83 306.34 1066.42 Q313.661 1060.94 313.661 1051.46 Q313.661 1042.1 306.277 1036.62 Q298.892 1031.15 286.161 1031.15 Q273.493 1031.15 266.109 1036.62 Q258.661 1042.1 258.661 1051.46 M248.731 1051.46 Q248.731 1036.18 258.661 1027.46 Q268.592 1018.74 286.161 1018.74 Q303.667 1018.74 313.661 1027.46 Q323.591 1036.18 323.591 1051.46 Q323.591 1066.8 313.661 1075.52 Q303.667 1084.18 286.161 1084.18 Q268.592 1084.18 258.661 1075.52 Q248.731 1066.8 248.731 1051.46 Z" fill="#000000" fill-rule="nonzero" fill-opacity="1" /><path clip-path="url(#clip640)" d="M278.713 940.057 L321.745 940.057 L321.745 951.77 L279.095 951.77 Q268.974 951.77 263.945 955.717 Q258.916 959.663 258.916 967.557 Q258.916 977.042 264.963 982.516 Q271.011 987.991 281.45 987.991 L321.745 987.991 L321.745 999.767 L250.449 999.767 L250.449 987.991 L261.526 987.991 Q255.096 983.789 251.914 978.124 Q248.731 972.395 248.731 964.947 Q248.731 952.661 256.37 946.359 Q263.945 940.057 278.713 940.057 Z" fill="#000000" fill-rule="nonzero" fill-opacity="1" /><path clip-path="url(#clip640)" d="M253.187 865.387 L264.136 865.387 Q261.398 870.353 260.062 875.381 Q258.661 880.347 258.661 885.439 Q258.661 896.834 265.918 903.136 Q273.111 909.438 286.161 909.438 Q299.211 909.438 306.468 903.136 Q313.661 896.834 313.661 885.439 Q313.661 880.347 312.324 875.381 Q310.924 870.353 308.186 865.387 L319.008 865.387 Q321.3 870.289 322.446 875.572 Q323.591 880.792 323.591 886.712 Q323.591 902.818 313.47 912.303 Q303.348 921.787 286.161 921.787 Q268.719 921.787 258.725 912.239 Q248.731 902.627 248.731 885.949 Q248.731 880.538 249.876 875.381 Q250.959 870.225 253.187 865.387 Z" fill="#000000" fill-rule="nonzero" fill-opacity="1" /><path clip-path="url(#clip640)" d="M305.576 843.362 L305.576 829.93 L321.745 829.93 L321.745 843.362 L305.576 843.362 Z" fill="#000000" fill-rule="nonzero" fill-opacity="1" /><path clip-path="url(#clip640)" d="M250.449 770.538 L250.449 758.125 L310.287 735.845 L250.449 713.565 L250.449 701.152 L321.745 727.888 L321.745 743.802 L250.449 770.538 Z" fill="#000000" fill-rule="nonzero" fill-opacity="1" /><path clip-path="url(#clip640)" d="M283.169 624 L288.898 624 L288.898 677.854 Q300.993 677.09 307.359 670.597 Q313.661 664.04 313.661 652.391 Q313.661 645.643 312.006 639.341 Q310.351 632.975 307.041 626.737 L318.117 626.737 Q320.79 633.039 322.191 639.659 Q323.591 646.28 323.591 653.091 Q323.591 670.151 313.661 680.145 Q303.73 690.076 286.798 690.076 Q269.292 690.076 259.043 680.654 Q248.731 671.17 248.731 655.128 Q248.731 640.742 258.025 632.402 Q267.255 624 283.169 624 M279.732 635.713 Q270.119 635.84 264.39 641.123 Q258.661 646.343 258.661 655.001 Q258.661 664.804 264.199 670.724 Q269.737 676.58 279.795 677.472 L279.732 635.713 Z" fill="#000000" fill-rule="nonzero" fill-opacity="1" /><path clip-path="url(#clip640)" d="M278.713 545.511 L321.745 545.511 L321.745 557.223 L279.095 557.223 Q268.974 557.223 263.945 561.17 Q258.916 565.117 258.916 573.01 Q258.916 582.495 264.963 587.97 Q271.011 593.444 281.45 593.444 L321.745 593.444 L321.745 605.221 L250.449 605.221 L250.449 593.444 L261.526 593.444 Q255.096 589.243 251.914 583.577 Q248.731 577.848 248.731 570.4 Q248.731 558.115 256.37 551.813 Q263.945 545.511 278.713 545.511 Z" fill="#000000" fill-rule="nonzero" fill-opacity="1" /><path clip-path="url(#clip640)" d="M230.206 510.563 L250.449 510.563 L250.449 486.437 L259.552 486.437 L259.552 510.563 L298.256 510.563 Q306.977 510.563 309.459 508.207 Q311.942 505.789 311.942 498.468 L311.942 486.437 L321.745 486.437 L321.745 498.468 Q321.745 512.027 316.716 517.183 Q311.624 522.339 298.256 522.339 L259.552 522.339 L259.552 530.933 L250.449 530.933 L250.449 522.339 L230.206 522.339 L230.206 510.563 Z" fill="#000000" fill-rule="nonzero" fill-opacity="1" /><path clip-path="url(#clip640)" d="M261.398 429.718 Q260.253 431.692 259.743 434.047 Q259.17 436.339 259.17 439.14 Q259.17 449.07 265.663 454.417 Q272.093 459.701 284.188 459.701 L321.745 459.701 L321.745 471.477 L250.449 471.477 L250.449 459.701 L261.526 459.701 Q255.033 456.009 251.914 450.089 Q248.731 444.168 248.731 435.702 Q248.731 434.493 248.922 433.028 Q249.049 431.564 249.367 429.782 L261.398 429.718 Z" fill="#000000" fill-rule="nonzero" fill-opacity="1" /><path clip-path="url(#clip640)" d="M250.449 417.433 L250.449 405.72 L321.745 405.72 L321.745 417.433 L250.449 417.433 M222.695 417.433 L222.695 405.72 L237.527 405.72 L237.527 417.433 L222.695 417.433 Z" fill="#000000" fill-rule="nonzero" fill-opacity="1" /><path clip-path="url(#clip640)" d="M253.187 329.904 L264.136 329.904 Q261.398 334.869 260.062 339.898 Q258.661 344.863 258.661 349.956 Q258.661 361.351 265.918 367.653 Q273.111 373.955 286.161 373.955 Q299.211 373.955 306.468 367.653 Q313.661 361.351 313.661 349.956 Q313.661 344.863 312.324 339.898 Q310.924 334.869 308.186 329.904 L319.008 329.904 Q321.3 334.806 322.446 340.089 Q323.591 345.309 323.591 351.229 Q323.591 367.334 313.47 376.819 Q303.348 386.304 286.161 386.304 Q268.719 386.304 258.725 376.756 Q248.731 367.143 248.731 350.465 Q248.731 345.054 249.876 339.898 Q250.959 334.742 253.187 329.904 Z" fill="#000000" fill-rule="nonzero" fill-opacity="1" /><path clip-path="url(#clip640)" d="M222.695 309.534 L222.695 297.821 L321.745 297.821 L321.745 309.534 L222.695 309.534 Z" fill="#000000" fill-rule="nonzero" fill-opacity="1" /><path clip-path="url(#clip640)" d="M283.169 212.329 L288.898 212.329 L288.898 266.183 Q300.993 265.419 307.359 258.926 Q313.661 252.37 313.661 240.721 Q313.661 233.973 312.006 227.671 Q310.351 221.305 307.041 215.067 L318.117 215.067 Q320.79 221.369 322.191 227.989 Q323.591 234.609 323.591 241.421 Q323.591 258.481 313.661 268.475 Q303.73 278.405 286.798 278.405 Q269.292 278.405 259.043 268.984 Q248.731 259.499 248.731 243.458 Q248.731 229.071 258.025 220.732 Q267.255 212.329 283.169 212.329 M279.732 224.042 Q270.119 224.17 264.39 229.453 Q258.661 234.673 258.661 243.33 Q258.661 253.134 264.199 259.054 Q269.737 264.91 279.795 265.801 L279.732 224.042 Z" fill="#000000" fill-rule="nonzero" fill-opacity="1" /><polyline clip-path="url(#clip642)" style="stroke:#008000; stroke-linecap:round; stroke-linejoin:round; stroke-width:8; stroke-opacity:1; fill:none" points="726.443,756.063 854.199,791.107 981.955,798.202 1109.71,730.438 1237.47,894.82 1365.22,833.522 1492.98,931.521 1620.74,935.659 1748.49,1085.65 1876.25,1087.15 2004.01,1037.25 2131.76,1059.36 2259.52,1172.14 "/>
<circle clip-path="url(#clip642)" cx="726.443" cy="756.063" r="14.4" fill="#008000" fill-rule="evenodd" fill-opacity="1" stroke="#000000" stroke-opacity="1" stroke-width="6.4"/>
<circle clip-path="url(#clip642)" cx="854.199" cy="791.107" r="14.4" fill="#008000" fill-rule="evenodd" fill-opacity="1" stroke="#000000" stroke-opacity="1" stroke-width="6.4"/>
<circle clip-path="url(#clip642)" cx="981.955" cy="798.202" r="14.4" fill="#008000" fill-rule="evenodd" fill-opacity="1" stroke="#000000" stroke-opacity="1" stroke-width="6.4"/>
<circle clip-path="url(#clip642)" cx="1109.71" cy="730.438" r="14.4" fill="#008000" fill-rule="evenodd" fill-opacity="1" stroke="#000000" stroke-opacity="1" stroke-width="6.4"/>
<circle clip-path="url(#clip642)" cx="1237.47" cy="894.82" r="14.4" fill="#008000" fill-rule="evenodd" fill-opacity="1" stroke="#000000" stroke-opacity="1" stroke-width="6.4"/>
<circle clip-path="url(#clip642)" cx="1365.22" cy="833.522" r="14.4" fill="#008000" fill-rule="evenodd" fill-opacity="1" stroke="#000000" stroke-opacity="1" stroke-width="6.4"/>
<circle clip-path="url(#clip642)" cx="1492.98" cy="931.521" r="14.4" fill="#008000" fill-rule="evenodd" fill-opacity="1" stroke="#000000" stroke-opacity="1" stroke-width="6.4"/>
<circle clip-path="url(#clip642)" cx="1620.74" cy="935.659" r="14.4" fill="#008000" fill-rule="evenodd" fill-opacity="1" stroke="#000000" stroke-opacity="1" stroke-width="6.4"/>
<circle clip-path="url(#clip642)" cx="1748.49" cy="1085.65" r="14.4" fill="#008000" fill-rule="evenodd" fill-opacity="1" stroke="#000000" stroke-opacity="1" stroke-width="6.4"/>
<circle clip-path="url(#clip642)" cx="1876.25" cy="1087.15" r="14.4" fill="#008000" fill-rule="evenodd" fill-opacity="1" stroke="#000000" stroke-opacity="1" stroke-width="6.4"/>
<circle clip-path="url(#clip642)" cx="2004.01" cy="1037.25" r="14.4" fill="#008000" fill-rule="evenodd" fill-opacity="1" stroke="#000000" stroke-opacity="1" stroke-width="6.4"/>
<circle clip-path="url(#clip642)" cx="2131.76" cy="1059.36" r="14.4" fill="#008000" fill-rule="evenodd" fill-opacity="1" stroke="#000000" stroke-opacity="1" stroke-width="6.4"/>
<circle clip-path="url(#clip642)" cx="2259.52" cy="1172.14" r="14.4" fill="#008000" fill-rule="evenodd" fill-opacity="1" stroke="#000000" stroke-opacity="1" stroke-width="6.4"/>
<polyline clip-path="url(#clip642)" style="stroke:#00008b; stroke-linecap:round; stroke-linejoin:round; stroke-width:8; stroke-opacity:1; fill:none" points="726.443,813.111 854.199,496.339 981.955,435.243 1109.71,473.19 1237.47,486.977 1365.22,544.39 1492.98,611.329 1620.74,640.68 1748.49,632.922 1876.25,662.581 2004.01,817.679 2131.76,800.721 2259.52,868.088 "/>
<path clip-path="url(#clip642)" d="M726.443 991.586 L854.199 788.545 L981.955 745.494 L1109.71 795.462 L1237.47 825.268 L1365.22 936.18 L1492.98 984.345 L1620.74 1045.47 L1748.49 1052.45 L1876.25 1107.85 L2004.01 1218.37 L2131.76 1240.32 L2259.52 1228.38 L2259.52 491.715 L2131.76 386.652 L2004.01 474.299 L1876.25 284.646 L1748.49 268.344 L1620.74 247.898 L1492.98 271.476 L1365.22 226.882 L1237.47 127.862 L1109.71 159.144 L981.955 139.443 L854.199 246.821 L726.443 648.239  Z" fill="#0000ff" fill-rule="evenodd" fill-opacity="0.1"/>
<polyline clip-path="url(#clip642)" style="stroke:#0000ff; stroke-linecap:round; stroke-linejoin:round; stroke-width:0; stroke-opacity:0.1; fill:none" points="726.443,991.586 854.199,788.545 981.955,745.494 1109.71,795.462 1237.47,825.268 1365.22,936.18 1492.98,984.345 1620.74,1045.47 1748.49,1052.45 1876.25,1107.85 2004.01,1218.37 2131.76,1240.32 2259.52,1228.38 "/>
</svg>
