<?xml version="1.0" encoding="utf-8"?>
<svg xmlns="http://www.w3.org/2000/svg" xmlns:xlink="http://www.w3.org/1999/xlink" width="600" height="400" viewBox="0 0 2400 1600">
<defs>
  <clipPath id="clip050">
    <rect x="0" y="0" width="2400" height="1600"/>
  </clipPath>
</defs>
<path clip-path="url(#clip050)" d="M0 1600 L2400 1600 L2400 0 L0 0  Z" fill="#ffffff" fill-rule="evenodd" fill-opacity="1"/>
<defs>
  <clipPath id="clip051">
    <rect x="480" y="0" width="1681" height="1600"/>
  </clipPath>
</defs>
<path clip-path="url(#clip050)" d="M673.506 1273.7 L2305.51 1273.7 L2305.51 94.4882 L673.506 94.4882  Z" fill="#ffffff" fill-rule="evenodd" fill-opacity="1"/>
<defs>
  <clipPath id="clip052">
    <rect x="673" y="94" width="1633" height="1180"/>
  </clipPath>
</defs>
<polyline clip-path="url(#clip052)" style="stroke:#000000; stroke-linecap:round; stroke-linejoin:round; stroke-width:4; stroke-opacity:0.1; fill:none" points="719.695,1273.7 719.695,94.4882 "/>
<polyline clip-path="url(#clip052)" style="stroke:#000000; stroke-linecap:round; stroke-linejoin:round; stroke-width:4; stroke-opacity:0.1; fill:none" points="994.628,1273.7 994.628,94.4882 "/>
<polyline clip-path="url(#clip052)" style="stroke:#000000; stroke-linecap:round; stroke-linejoin:round; stroke-width:4; stroke-opacity:0.1; fill:none" points="1269.56,1273.7 1269.56,94.4882 "/>
<polyline clip-path="url(#clip052)" style="stroke:#000000; stroke-linecap:round; stroke-linejoin:round; stroke-width:4; stroke-opacity:0.1; fill:none" points="1544.5,1273.7 1544.5,94.4882 "/>
<polyline clip-path="url(#clip052)" style="stroke:#000000; stroke-linecap:round; stroke-linejoin:round; stroke-width:4; stroke-opacity:0.1; fill:none" points="1819.43,1273.7 1819.43,94.4882 "/>
<polyline clip-path="url(#clip052)" style="stroke:#000000; stroke-linecap:round; stroke-linejoin:round; stroke-width:4; stroke-opacity:0.1; fill:none" points="2094.36,1273.7 2094.36,94.4882 "/>
<polyline clip-path="url(#clip050)" style="stroke:#000000; stroke-linecap:round; stroke-linejoin:round; stroke-width:8; stroke-opacity:1; fill:none" points="673.506,1273.7 2305.51,1273.7 "/>
<polyline clip-path="url(#clip050)" style="stroke:#000000; stroke-linecap:round; stroke-linejoin:round; stroke-width:8; stroke-opacity:1; fill:none" points="719.695,1273.7 719.695,1254.8 "/>
<polyline clip-path="url(#clip050)" style="stroke:#000000; stroke-linecap:round; stroke-linejoin:round; stroke-width:8; stroke-opacity:1; fill:none" points="994.628,1273.7 994.628,1254.8 "/>
<polyline clip-path="url(#clip050)" style="stroke:#000000; stroke-linecap:round; stroke-linejoin:round; stroke-width:8; stroke-opacity:1; fill:none" points="1269.56,1273.7 1269.56,1254.8 "/>
<polyline clip-path="url(#clip050)" style="stroke:#000000; stroke-linecap:round; stroke-linejoin:round; stroke-width:8; stroke-opacity:1; fill:none" points="1544.5,1273.7 1544.5,1254.8 "/>
<polyline clip-path="url(#clip050)" style="stroke:#000000; stroke-linecap:round; stroke-linejoin:round; stroke-width:8; stroke-opacity:1; fill:none" points="1819.43,1273.7 1819.43,1254.8 "/>
<polyline clip-path="url(#clip050)" style="stroke:#000000; stroke-linecap:round; stroke-linejoin:round; stroke-width:8; stroke-opacity:1; fill:none" points="2094.36,1273.7 2094.36,1254.8 "/>
<path clip-path="url(#clip050)" d="M644.302 1316.33 Q637.08 1316.33 633.422 1323.46 Q629.811 1330.55 629.811 1344.81 Q629.811 1359.02 633.422 1366.15 Q637.08 1373.23 644.302 1373.23 Q651.57 1373.23 655.181 1366.15 Q658.839 1359.02 658.839 1344.81 Q658.839 1330.55 655.181 1323.46 Q651.57 1316.33 644.302 1316.33 M644.302 1308.93 Q655.922 1308.93 662.033 1318.14 Q668.19 1327.31 668.19 1344.81 Q668.19 1362.26 662.033 1371.47 Q655.922 1380.64 644.302 1380.64 Q632.681 1380.64 626.524 1371.47 Q620.413 1362.26 620.413 1344.81 Q620.413 1327.31 626.524 1318.14 Q632.681 1308.93 644.302 1308.93 Z" fill="#000000" fill-rule="nonzero" fill-opacity="1" /><path clip-path="url(#clip050)" d="M684.626 1367.54 L694.394 1367.54 L694.394 1379.3 L684.626 1379.3 L684.626 1367.54 Z" fill="#000000" fill-rule="nonzero" fill-opacity="1" /><path clip-path="url(#clip050)" d="M734.764 1316.33 Q727.542 1316.33 723.885 1323.46 Q720.274 1330.55 720.274 1344.81 Q720.274 1359.02 723.885 1366.15 Q727.542 1373.23 734.764 1373.23 Q742.033 1373.23 745.644 1366.15 Q749.301 1359.02 749.301 1344.81 Q749.301 1330.55 745.644 1323.46 Q742.033 1316.33 734.764 1316.33 M734.764 1308.93 Q746.384 1308.93 752.496 1318.14 Q758.653 1327.31 758.653 1344.81 Q758.653 1362.26 752.496 1371.47 Q746.384 1380.64 734.764 1380.64 Q723.144 1380.64 716.986 1371.47 Q710.875 1362.26 710.875 1344.81 Q710.875 1327.31 716.986 1318.14 Q723.144 1308.93 734.764 1308.93 Z" fill="#000000" fill-rule="nonzero" fill-opacity="1" /><path clip-path="url(#clip050)" d="M795.088 1316.33 Q787.866 1316.33 784.208 1323.46 Q780.597 1330.55 780.597 1344.81 Q780.597 1359.02 784.208 1366.15 Q787.866 1373.23 795.088 1373.23 Q802.356 1373.23 805.967 1366.15 Q809.625 1359.02 809.625 1344.81 Q809.625 1330.55 805.967 1323.46 Q802.356 1316.33 795.088 1316.33 M795.088 1308.93 Q806.708 1308.93 812.819 1318.14 Q818.977 1327.31 818.977 1344.81 Q818.977 1362.26 812.819 1371.47 Q806.708 1380.64 795.088 1380.64 Q783.468 1380.64 777.31 1371.47 Q771.199 1362.26 771.199 1344.81 Q771.199 1327.31 777.31 1318.14 Q783.468 1308.93 795.088 1308.93 Z" fill="#000000" fill-rule="nonzero" fill-opacity="1" /><path clip-path="url(#clip050)" d="M920.231 1316.33 Q913.008 1316.33 909.351 1323.46 Q905.74 1330.55 905.74 1344.81 Q905.74 1359.02 909.351 1366.15 Q913.008 1373.23 920.231 1373.23 Q927.499 1373.23 931.11 1366.15 Q934.768 1359.02 934.768 1344.81 Q934.768 1330.55 931.11 1323.46 Q927.499 1316.33 920.231 1316.33 M920.231 1308.93 Q931.851 1308.93 937.962 1318.14 Q944.119 1327.31 944.119 1344.81 Q944.119 1362.26 937.962 1371.47 Q931.851 1380.64 920.231 1380.64 Q908.61 1380.64 902.453 1371.47 Q896.342 1362.26 896.342 1344.81 Q896.342 1327.31 902.453 1318.14 Q908.61 1308.93 920.231 1308.93 Z" fill="#000000" fill-rule="nonzero" fill-opacity="1" /><path clip-path="url(#clip050)" d="M960.555 1367.54 L970.323 1367.54 L970.323 1379.3 L960.555 1379.3 L960.555 1367.54 Z" fill="#000000" fill-rule="nonzero" fill-opacity="1" /><path clip-path="url(#clip050)" d="M998.749 1371.43 L1031.39 1371.43 L1031.39 1379.3 L987.499 1379.3 L987.499 1371.43 Q992.823 1365.92 1001.99 1356.66 Q1011.2 1347.35 1013.56 1344.67 Q1018.05 1339.62 1019.81 1336.15 Q1021.62 1332.63 1021.62 1329.25 Q1021.62 1323.74 1017.73 1320.27 Q1013.89 1316.8 1007.68 1316.8 Q1003.29 1316.8 998.378 1318.32 Q993.517 1319.85 987.962 1322.95 L987.962 1313.51 Q993.61 1311.24 998.517 1310.08 Q1003.42 1308.93 1007.5 1308.93 Q1018.24 1308.93 1024.63 1314.3 Q1031.02 1319.67 1031.02 1328.65 Q1031.02 1332.91 1029.4 1336.75 Q1027.82 1340.55 1023.61 1345.73 Q1022.45 1347.07 1016.25 1353.51 Q1010.04 1359.9 998.749 1371.43 Z" fill="#000000" fill-rule="nonzero" fill-opacity="1" /><path clip-path="url(#clip050)" d="M1051.11 1310.18 L1087.82 1310.18 L1087.82 1318.05 L1059.67 1318.05 L1059.67 1334.99 Q1061.71 1334.3 1063.75 1333.97 Q1065.79 1333.6 1067.82 1333.6 Q1079.4 1333.6 1086.16 1339.94 Q1092.91 1346.29 1092.91 1357.12 Q1092.91 1368.28 1085.97 1374.48 Q1079.03 1380.64 1066.39 1380.64 Q1062.04 1380.64 1057.5 1379.9 Q1053.01 1379.16 1048.19 1377.68 L1048.19 1368.28 Q1052.36 1370.55 1056.8 1371.66 Q1061.25 1372.77 1066.2 1372.77 Q1074.21 1372.77 1078.89 1368.56 Q1083.56 1364.34 1083.56 1357.12 Q1083.56 1349.9 1078.89 1345.68 Q1074.21 1341.47 1066.2 1341.47 Q1062.45 1341.47 1058.7 1342.31 Q1055 1343.14 1051.11 1344.9 L1051.11 1310.18 Z" fill="#000000" fill-rule="nonzero" fill-opacity="1" /><path clip-path="url(#clip050)" d="M1194.17 1316.33 Q1186.95 1316.33 1183.29 1323.46 Q1179.68 1330.55 1179.68 1344.81 Q1179.68 1359.02 1183.29 1366.15 Q1186.95 1373.23 1194.17 1373.23 Q1201.44 1373.23 1205.05 1366.15 Q1208.71 1359.02 1208.71 1344.81 Q1208.71 1330.55 1205.05 1323.46 Q1201.44 1316.33 1194.17 1316.33 M1194.17 1308.93 Q1205.79 1308.93 1211.9 1318.14 Q1218.06 1327.31 1218.06 1344.81 Q1218.06 1362.26 1211.9 1371.47 Q1205.79 1380.64 1194.17 1380.64 Q1182.55 1380.64 1176.39 1371.47 Q1170.28 1362.26 1170.28 1344.81 Q1170.28 1327.31 1176.39 1318.14 Q1182.55 1308.93 1194.17 1308.93 Z" fill="#000000" fill-rule="nonzero" fill-opacity="1" /><path clip-path="url(#clip050)" d="M1234.49 1367.54 L1244.26 1367.54 L1244.26 1379.3 L1234.49 1379.3 L1234.49 1367.54 Z" fill="#000000" fill-rule="nonzero" fill-opacity="1" /><path clip-path="url(#clip050)" d="M1264.72 1310.18 L1301.44 1310.18 L1301.44 1318.05 L1273.29 1318.05 L1273.29 1334.99 Q1275.33 1334.3 1277.36 1333.97 Q1279.4 1333.6 1281.44 1333.6 Q1293.01 1333.6 1299.77 1339.94 Q1306.53 1346.29 1306.53 1357.12 Q1306.53 1368.28 1299.58 1374.48 Q1292.64 1380.64 1280 1380.64 Q1275.65 1380.64 1271.11 1379.9 Q1266.62 1379.16 1261.81 1377.68 L1261.81 1368.28 Q1265.97 1370.55 1270.42 1371.66 Q1274.86 1372.77 1279.82 1372.77 Q1287.83 1372.77 1292.5 1368.56 Q1297.18 1364.34 1297.18 1357.12 Q1297.18 1349.9 1292.5 1345.68 Q1287.83 1341.47 1279.82 1341.47 Q1276.07 1341.47 1272.32 1342.31 Q1268.61 1343.14 1264.72 1344.9 L1264.72 1310.18 Z" fill="#000000" fill-rule="nonzero" fill-opacity="1" /><path clip-path="url(#clip050)" d="M1344.96 1316.33 Q1337.73 1316.33 1334.08 1323.46 Q1330.46 1330.55 1330.46 1344.81 Q1330.46 1359.02 1334.08 1366.15 Q1337.73 1373.23 1344.96 1373.23 Q1352.22 1373.23 1355.83 1366.15 Q1359.49 1359.02 1359.49 1344.81 Q1359.49 1330.55 1355.83 1323.46 Q1352.22 1316.33 1344.96 1316.33 M1344.96 1308.93 Q1356.58 1308.93 1362.69 1318.14 Q1368.84 1327.31 1368.84 1344.81 Q1368.84 1362.26 1362.69 1371.47 Q1356.58 1380.64 1344.96 1380.64 Q1333.33 1380.64 1327.18 1371.47 Q1321.07 1362.26 1321.07 1344.81 Q1321.07 1327.31 1327.18 1318.14 Q1333.33 1308.93 1344.96 1308.93 Z" fill="#000000" fill-rule="nonzero" fill-opacity="1" /><path clip-path="url(#clip050)" d="M1470.1 1316.33 Q1462.88 1316.33 1459.22 1323.46 Q1455.61 1330.55 1455.61 1344.81 Q1455.61 1359.02 1459.22 1366.15 Q1462.88 1373.23 1470.1 1373.23 Q1477.37 1373.23 1480.98 1366.15 Q1484.63 1359.02 1484.63 1344.81 Q1484.63 1330.55 1480.98 1323.46 Q1477.37 1316.33 1470.1 1316.33 M1470.1 1308.93 Q1481.72 1308.93 1487.83 1318.14 Q1493.99 1327.31 1493.99 1344.81 Q1493.99 1362.26 1487.83 1371.47 Q1481.72 1380.64 1470.1 1380.64 Q1458.48 1380.64 1452.32 1371.47 Q1446.21 1362.26 1446.21 1344.81 Q1446.21 1327.31 1452.32 1318.14 Q1458.48 1308.93 1470.1 1308.93 Z" fill="#000000" fill-rule="nonzero" fill-opacity="1" /><path clip-path="url(#clip050)" d="M1510.42 1367.54 L1520.19 1367.54 L1520.19 1379.3 L1510.42 1379.3 L1510.42 1367.54 Z" fill="#000000" fill-rule="nonzero" fill-opacity="1" /><path clip-path="url(#clip050)" d="M1538.2 1310.18 L1582.64 1310.18 L1582.64 1314.16 L1557.55 1379.3 L1547.78 1379.3 L1571.39 1318.05 L1538.2 1318.05 L1538.2 1310.18 Z" fill="#000000" fill-rule="nonzero" fill-opacity="1" /><path clip-path="url(#clip050)" d="M1600.98 1310.18 L1637.69 1310.18 L1637.69 1318.05 L1609.54 1318.05 L1609.54 1334.99 Q1611.58 1334.3 1613.62 1333.97 Q1615.65 1333.6 1617.69 1333.6 Q1629.26 1333.6 1636.02 1339.94 Q1642.78 1346.29 1642.78 1357.12 Q1642.78 1368.28 1635.84 1374.48 Q1628.89 1380.64 1616.25 1380.64 Q1611.9 1380.64 1607.37 1379.9 Q1602.87 1379.16 1598.06 1377.68 L1598.06 1368.28 Q1602.23 1370.55 1606.67 1371.66 Q1611.12 1372.77 1616.07 1372.77 Q1624.08 1372.77 1628.75 1368.56 Q1633.43 1364.34 1633.43 1357.12 Q1633.43 1349.9 1628.75 1345.68 Q1624.08 1341.47 1616.07 1341.47 Q1612.32 1341.47 1608.57 1342.31 Q1604.87 1343.14 1600.98 1344.9 L1600.98 1310.18 Z" fill="#000000" fill-rule="nonzero" fill-opacity="1" /><path clip-path="url(#clip050)" d="M1723.57 1371.43 L1738.85 1371.43 L1738.85 1318.69 L1722.23 1322.03 L1722.23 1313.51 L1738.76 1310.18 L1748.11 1310.18 L1748.11 1371.43 L1763.39 1371.43 L1763.39 1379.3 L1723.57 1379.3 L1723.57 1371.43 Z" fill="#000000" fill-rule="nonzero" fill-opacity="1" /><path clip-path="url(#clip050)" d="M1782.28 1367.54 L1792.05 1367.54 L1792.05 1379.3 L1782.28 1379.3 L1782.28 1367.54 Z" fill="#000000" fill-rule="nonzero" fill-opacity="1" /><path clip-path="url(#clip050)" d="M1832.42 1316.33 Q1825.19 1316.33 1821.54 1323.46 Q1817.92 1330.55 1817.92 1344.81 Q1817.92 1359.02 1821.54 1366.15 Q1825.19 1373.23 1832.42 1373.23 Q1839.68 1373.23 1843.29 1366.15 Q1846.95 1359.02 1846.95 1344.81 Q1846.95 1330.55 1843.29 1323.46 Q1839.68 1316.33 1832.42 1316.33 M1832.42 1308.93 Q1844.04 1308.93 1850.15 1318.14 Q1856.3 1327.31 1856.3 1344.81 Q1856.3 1362.26 1850.15 1371.47 Q1844.04 1380.64 1832.42 1380.64 Q1820.79 1380.64 1814.64 1371.47 Q1808.53 1362.26 1808.53 1344.81 Q1808.53 1327.31 1814.64 1318.14 Q1820.79 1308.93 1832.42 1308.93 Z" fill="#000000" fill-rule="nonzero" fill-opacity="1" /><path clip-path="url(#clip050)" d="M1892.74 1316.33 Q1885.52 1316.33 1881.86 1323.46 Q1878.25 1330.55 1878.25 1344.81 Q1878.25 1359.02 1881.86 1366.15 Q1885.52 1373.23 1892.74 1373.23 Q1900.01 1373.23 1903.62 1366.15 Q1907.28 1359.02 1907.28 1344.81 Q1907.28 1330.55 1903.62 1323.46 Q1900.01 1316.33 1892.74 1316.33 M1892.74 1308.93 Q1904.36 1308.93 1910.47 1318.14 Q1916.63 1327.31 1916.63 1344.81 Q1916.63 1362.26 1910.47 1371.47 Q1904.36 1380.64 1892.74 1380.64 Q1881.12 1380.64 1874.96 1371.47 Q1868.85 1362.26 1868.85 1344.81 Q1868.85 1327.31 1874.96 1318.14 Q1881.12 1308.93 1892.74 1308.93 Z" fill="#000000" fill-rule="nonzero" fill-opacity="1" /><path clip-path="url(#clip050)" d="M1999.5 1371.43 L2014.78 1371.43 L2014.78 1318.69 L1998.16 1322.03 L1998.16 1313.51 L2014.69 1310.18 L2024.04 1310.18 L2024.04 1371.43 L2039.32 1371.43 L2039.32 1379.3 L1999.5 1379.3 L1999.5 1371.43 Z" fill="#000000" fill-rule="nonzero" fill-opacity="1" /><path clip-path="url(#clip050)" d="M2058.21 1367.54 L2067.97 1367.54 L2067.97 1379.3 L2058.21 1379.3 L2058.21 1367.54 Z" fill="#000000" fill-rule="nonzero" fill-opacity="1" /><path clip-path="url(#clip050)" d="M2096.4 1371.43 L2129.04 1371.43 L2129.04 1379.3 L2085.15 1379.3 L2085.15 1371.43 Q2090.47 1365.92 2099.64 1356.66 Q2108.85 1347.35 2111.21 1344.67 Q2115.71 1339.62 2117.46 1336.15 Q2119.27 1332.63 2119.27 1329.25 Q2119.27 1323.74 2115.38 1320.27 Q2111.54 1316.8 2105.33 1316.8 Q2100.94 1316.8 2096.03 1318.32 Q2091.17 1319.85 2085.61 1322.95 L2085.61 1313.51 Q2091.26 1311.24 2096.17 1310.08 Q2101.08 1308.93 2105.15 1308.93 Q2115.89 1308.93 2122.28 1314.3 Q2128.67 1319.67 2128.67 1328.65 Q2128.67 1332.91 2127.05 1336.75 Q2125.47 1340.55 2121.26 1345.73 Q2120.1 1347.07 2113.9 1353.51 Q2107.7 1359.9 2096.4 1371.43 Z" fill="#000000" fill-rule="nonzero" fill-opacity="1" /><path clip-path="url(#clip050)" d="M2148.76 1310.18 L2185.47 1310.18 L2185.47 1318.05 L2157.33 1318.05 L2157.33 1334.99 Q2159.36 1334.3 2161.4 1333.97 Q2163.44 1333.6 2165.47 1333.6 Q2177.05 1333.6 2183.81 1339.94 Q2190.57 1346.29 2190.57 1357.12 Q2190.57 1368.28 2183.62 1374.48 Q2176.68 1380.64 2164.04 1380.64 Q2159.69 1380.64 2155.15 1379.9 Q2150.66 1379.16 2145.84 1377.68 L2145.84 1368.28 Q2150.01 1370.55 2154.46 1371.66 Q2158.9 1372.77 2163.85 1372.77 Q2171.86 1372.77 2176.54 1368.56 Q2181.21 1364.34 2181.21 1357.12 Q2181.21 1349.9 2176.54 1345.68 Q2171.86 1341.47 2163.85 1341.47 Q2160.1 1341.47 2156.35 1342.31 Q2152.65 1343.14 2148.76 1344.9 L2148.76 1310.18 Z" fill="#000000" fill-rule="nonzero" fill-opacity="1" /><path clip-path="url(#clip050)" d="M1375.05 1484.39 L1375.05 1527.42 L1363.34 1527.42 L1363.34 1484.77 Q1363.34 1474.65 1359.39 1469.62 Q1355.45 1464.59 1347.55 1464.59 Q1338.07 1464.59 1332.59 1470.64 Q1327.12 1476.69 1327.12 1487.13 L1327.12 1527.42 L1315.34 1527.42 L1315.34 1428.37 L1327.12 1428.37 L1327.12 1467.2 Q1331.32 1460.77 1336.99 1457.59 Q1342.72 1454.41 1350.16 1454.41 Q1362.45 1454.41 1368.75 1462.05 Q1375.05 1469.62 1375.05 1484.39 Z" fill="#000000" fill-rule="nonzero" fill-opacity="1" /><path clip-path="url(#clip050)" d="M1426.04 1464.34 Q1416.62 1464.34 1411.15 1471.72 Q1405.67 1479.04 1405.67 1491.84 Q1405.67 1504.63 1411.08 1512.02 Q1416.56 1519.34 1426.04 1519.34 Q1435.4 1519.34 1440.87 1511.96 Q1446.35 1504.57 1446.35 1491.84 Q1446.35 1479.17 1440.87 1471.79 Q1435.4 1464.34 1426.04 1464.34 M1426.04 1454.41 Q1441.32 1454.41 1450.04 1464.34 Q1458.76 1474.27 1458.76 1491.84 Q1458.76 1509.35 1450.04 1519.34 Q1441.32 1529.27 1426.04 1529.27 Q1410.7 1529.27 1401.98 1519.34 Q1393.32 1509.35 1393.32 1491.84 Q1393.32 1474.27 1401.98 1464.34 Q1410.7 1454.41 1426.04 1454.41 Z" fill="#000000" fill-rule="nonzero" fill-opacity="1" /><path clip-path="url(#clip050)" d="M1476.97 1499.29 L1476.97 1456.13 L1488.68 1456.13 L1488.68 1498.84 Q1488.68 1508.96 1492.63 1514.06 Q1496.57 1519.08 1504.47 1519.08 Q1513.95 1519.08 1519.43 1513.04 Q1524.97 1506.99 1524.97 1496.55 L1524.97 1456.13 L1536.68 1456.13 L1536.68 1527.42 L1524.97 1527.42 L1524.97 1516.47 Q1520.7 1522.97 1515.04 1526.15 Q1509.43 1529.27 1501.99 1529.27 Q1489.7 1529.27 1483.33 1521.63 Q1476.97 1513.99 1476.97 1499.29 M1506.44 1454.41 L1506.44 1454.41 Z" fill="#000000" fill-rule="nonzero" fill-opacity="1" /><path clip-path="url(#clip050)" d="M1602.12 1467.08 Q1600.14 1465.93 1597.79 1465.42 Q1595.5 1464.85 1592.7 1464.85 Q1582.77 1464.85 1577.42 1471.34 Q1572.14 1477.77 1572.14 1489.87 L1572.14 1527.42 L1560.36 1527.42 L1560.36 1456.13 L1572.14 1456.13 L1572.14 1467.2 Q1575.83 1460.71 1581.75 1457.59 Q1587.67 1454.41 1596.13 1454.41 Q1597.34 1454.41 1598.81 1454.6 Q1600.27 1454.73 1602.05 1455.05 L1602.12 1467.08 Z" fill="#000000" fill-rule="nonzero" fill-opacity="1" /><path clip-path="url(#clip050)" d="M1659.86 1458.23 L1659.86 1469.3 Q1654.89 1466.76 1649.54 1465.49 Q1644.2 1464.21 1638.47 1464.21 Q1629.75 1464.21 1625.35 1466.89 Q1621.02 1469.56 1621.02 1474.91 Q1621.02 1478.98 1624.14 1481.34 Q1627.26 1483.63 1636.68 1485.73 L1640.69 1486.62 Q1653.17 1489.29 1658.39 1494.19 Q1663.67 1499.03 1663.67 1507.75 Q1663.67 1517.68 1655.78 1523.48 Q1647.95 1529.27 1634.2 1529.27 Q1628.47 1529.27 1622.23 1528.12 Q1616.06 1527.04 1609.18 1524.81 L1609.18 1512.72 Q1615.68 1516.09 1621.98 1517.81 Q1628.28 1519.47 1634.46 1519.47 Q1642.73 1519.47 1647.19 1516.67 Q1651.64 1513.8 1651.64 1508.64 Q1651.64 1503.87 1648.4 1501.32 Q1645.21 1498.78 1634.33 1496.42 L1630.25 1495.47 Q1619.37 1493.18 1614.53 1488.47 Q1609.69 1483.69 1609.69 1475.42 Q1609.69 1465.36 1616.82 1459.88 Q1623.95 1454.41 1637.07 1454.41 Q1643.56 1454.41 1649.29 1455.36 Q1655.02 1456.32 1659.86 1458.23 Z" fill="#000000" fill-rule="nonzero" fill-opacity="1" /><polyline clip-path="url(#clip052)" style="stroke:#000000; stroke-linecap:round; stroke-linejoin:round; stroke-width:4; stroke-opacity:0.1; fill:none" points="673.506,1112.86 2305.51,1112.86 "/>
<polyline clip-path="url(#clip052)" style="stroke:#000000; stroke-linecap:round; stroke-linejoin:round; stroke-width:4; stroke-opacity:0.1; fill:none" points="673.506,882.212 2305.51,882.212 "/>
<polyline clip-path="url(#clip052)" style="stroke:#000000; stroke-linecap:round; stroke-linejoin:round; stroke-width:4; stroke-opacity:0.1; fill:none" points="673.506,651.568 2305.51,651.568 "/>
<polyline clip-path="url(#clip052)" style="stroke:#000000; stroke-linecap:round; stroke-linejoin:round; stroke-width:4; stroke-opacity:0.1; fill:none" points="673.506,420.924 2305.51,420.924 "/>
<polyline clip-path="url(#clip052)" style="stroke:#000000; stroke-linecap:round; stroke-linejoin:round; stroke-width:4; stroke-opacity:0.1; fill:none" points="673.506,190.28 2305.51,190.28 "/>
<polyline clip-path="url(#clip050)" style="stroke:#000000; stroke-linecap:round; stroke-linejoin:round; stroke-width:8; stroke-opacity:1; fill:none" points="673.506,1273.7 673.506,94.4882 "/>
<polyline clip-path="url(#clip050)" style="stroke:#000000; stroke-linecap:round; stroke-linejoin:round; stroke-width:8; stroke-opacity:1; fill:none" points="673.506,1112.86 692.404,1112.86 "/>
<polyline clip-path="url(#clip050)" style="stroke:#000000; stroke-linecap:round; stroke-linejoin:round; stroke-width:8; stroke-opacity:1; fill:none" points="673.506,882.212 692.404,882.212 "/>
<polyline clip-path="url(#clip050)" style="stroke:#000000; stroke-linecap:round; stroke-linejoin:round; stroke-width:8; stroke-opacity:1; fill:none" points="673.506,651.568 692.404,651.568 "/>
<polyline clip-path="url(#clip050)" style="stroke:#000000; stroke-linecap:round; stroke-linejoin:round; stroke-width:8; stroke-opacity:1; fill:none" points="673.506,420.924 692.404,420.924 "/>
<polyline clip-path="url(#clip050)" style="stroke:#000000; stroke-linecap:round; stroke-linejoin:round; stroke-width:8; stroke-opacity:1; fill:none" points="673.506,190.28 692.404,190.28 "/>
<path clip-path="url(#clip050)" d="M384.128 1139.55 L399.405 1139.55 L399.405 1086.82 L382.785 1090.15 L382.785 1081.63 L399.313 1078.3 L408.665 1078.3 L408.665 1139.55 L423.942 1139.55 L423.942 1147.42 L384.128 1147.42 L384.128 1139.55 Z" fill="#000000" fill-rule="nonzero" fill-opacity="1" /><path clip-path="url(#clip050)" d="M462.831 1084.45 Q455.609 1084.45 451.951 1091.58 Q448.34 1098.67 448.34 1112.93 Q448.34 1127.14 451.951 1134.27 Q455.609 1141.35 462.831 1141.35 Q470.099 1141.35 473.711 1134.27 Q477.368 1127.14 477.368 1112.93 Q477.368 1098.67 473.711 1091.58 Q470.099 1084.45 462.831 1084.45 M462.831 1077.05 Q474.451 1077.05 480.562 1086.26 Q486.72 1095.43 486.72 1112.93 Q486.72 1130.38 480.562 1139.59 Q474.451 1148.76 462.831 1148.76 Q451.211 1148.76 445.053 1139.59 Q438.942 1130.38 438.942 1112.93 Q438.942 1095.43 445.053 1086.26 Q451.211 1077.05 462.831 1077.05 Z" fill="#000000" fill-rule="nonzero" fill-opacity="1" /><path clip-path="url(#clip050)" d="M523.155 1084.45 Q515.933 1084.45 512.275 1091.58 Q508.664 1098.67 508.664 1112.93 Q508.664 1127.14 512.275 1134.27 Q515.933 1141.35 523.155 1141.35 Q530.423 1141.35 534.034 1134.27 Q537.692 1127.14 537.692 1112.93 Q537.692 1098.67 534.034 1091.58 Q530.423 1084.45 523.155 1084.45 M523.155 1077.05 Q534.775 1077.05 540.886 1086.26 Q547.043 1095.43 547.043 1112.93 Q547.043 1130.38 540.886 1139.59 Q534.775 1148.76 523.155 1148.76 Q511.534 1148.76 505.377 1139.59 Q499.266 1130.38 499.266 1112.93 Q499.266 1095.43 505.377 1086.26 Q511.534 1077.05 523.155 1077.05 Z" fill="#000000" fill-rule="nonzero" fill-opacity="1" /><path clip-path="url(#clip050)" d="M563.479 1135.66 L573.247 1135.66 L573.247 1147.42 L563.479 1147.42 L563.479 1135.66 Z" fill="#000000" fill-rule="nonzero" fill-opacity="1" /><path clip-path="url(#clip050)" d="M613.617 1084.45 Q606.395 1084.45 602.738 1091.58 Q599.127 1098.67 599.127 1112.93 Q599.127 1127.14 602.738 1134.27 Q606.395 1141.35 613.617 1141.35 Q620.886 1141.35 624.497 1134.27 Q628.154 1127.14 628.154 1112.93 Q628.154 1098.67 624.497 1091.58 Q620.886 1084.45 613.617 1084.45 M613.617 1077.05 Q625.238 1077.05 631.349 1086.26 Q637.506 1095.43 637.506 1112.93 Q637.506 1130.38 631.349 1139.59 Q625.238 1148.76 613.617 1148.76 Q601.997 1148.76 595.84 1139.59 Q589.728 1130.38 589.728 1112.93 Q589.728 1095.43 595.84 1086.26 Q601.997 1077.05 613.617 1077.05 Z" fill="#000000" fill-rule="nonzero" fill-opacity="1" /><path clip-path="url(#clip050)" d="M384.128 908.902 L399.405 908.902 L399.405 856.171 L382.785 859.504 L382.785 850.986 L399.313 847.652 L408.665 847.652 L408.665 908.902 L423.942 908.902 L423.942 916.772 L384.128 916.772 L384.128 908.902 Z" fill="#000000" fill-rule="nonzero" fill-opacity="1" /><path clip-path="url(#clip050)" d="M450.887 908.902 L483.525 908.902 L483.525 916.772 L439.637 916.772 L439.637 908.902 Q444.961 903.393 454.127 894.134 Q463.34 884.828 465.701 882.143 Q470.192 877.097 471.951 873.625 Q473.757 870.106 473.757 866.726 Q473.757 861.217 469.868 857.745 Q466.025 854.273 459.822 854.273 Q455.424 854.273 450.516 855.801 Q445.655 857.328 440.1 860.43 L440.1 850.986 Q445.748 848.717 450.655 847.56 Q455.562 846.402 459.637 846.402 Q470.377 846.402 476.766 851.773 Q483.155 857.143 483.155 866.125 Q483.155 870.384 481.535 874.226 Q479.961 878.023 475.748 883.208 Q474.59 884.55 468.387 890.986 Q462.183 897.374 450.887 908.902 Z" fill="#000000" fill-rule="nonzero" fill-opacity="1" /><path clip-path="url(#clip050)" d="M523.155 853.81 Q515.933 853.81 512.275 860.939 Q508.664 868.023 508.664 882.282 Q508.664 896.495 512.275 903.624 Q515.933 910.708 523.155 910.708 Q530.423 910.708 534.034 903.624 Q537.692 896.495 537.692 882.282 Q537.692 868.023 534.034 860.939 Q530.423 853.81 523.155 853.81 M523.155 846.402 Q534.775 846.402 540.886 855.615 Q547.043 864.782 547.043 882.282 Q547.043 899.736 540.886 908.948 Q534.775 918.115 523.155 918.115 Q511.534 918.115 505.377 908.948 Q499.266 899.736 499.266 882.282 Q499.266 864.782 505.377 855.615 Q511.534 846.402 523.155 846.402 Z" fill="#000000" fill-rule="nonzero" fill-opacity="1" /><path clip-path="url(#clip050)" d="M563.479 905.013 L573.247 905.013 L573.247 916.772 L563.479 916.772 L563.479 905.013 Z" fill="#000000" fill-rule="nonzero" fill-opacity="1" /><path clip-path="url(#clip050)" d="M613.617 853.81 Q606.395 853.81 602.738 860.939 Q599.127 868.023 599.127 882.282 Q599.127 896.495 602.738 903.624 Q606.395 910.708 613.617 910.708 Q620.886 910.708 624.497 903.624 Q628.154 896.495 628.154 882.282 Q628.154 868.023 624.497 860.939 Q620.886 853.81 613.617 853.81 M613.617 846.402 Q625.238 846.402 631.349 855.615 Q637.506 864.782 637.506 882.282 Q637.506 899.736 631.349 908.948 Q625.238 918.115 613.617 918.115 Q601.997 918.115 595.84 908.948 Q589.728 899.736 589.728 882.282 Q589.728 864.782 595.84 855.615 Q601.997 846.402 613.617 846.402 Z" fill="#000000" fill-rule="nonzero" fill-opacity="1" /><path clip-path="url(#clip050)" d="M384.128 678.258 L399.405 678.258 L399.405 625.527 L382.785 628.86 L382.785 620.341 L399.313 617.008 L408.665 617.008 L408.665 678.258 L423.942 678.258 L423.942 686.128 L384.128 686.128 L384.128 678.258 Z" fill="#000000" fill-rule="nonzero" fill-opacity="1" /><path clip-path="url(#clip050)" d="M468.525 625.156 L444.914 662.054 L468.525 662.054 L468.525 625.156 M466.072 617.008 L477.831 617.008 L477.831 662.054 L487.692 662.054 L487.692 669.832 L477.831 669.832 L477.831 686.128 L468.525 686.128 L468.525 669.832 L437.322 669.832 L437.322 660.804 L466.072 617.008 Z" fill="#000000" fill-rule="nonzero" fill-opacity="1" /><path clip-path="url(#clip050)" d="M523.155 623.166 Q515.933 623.166 512.275 630.295 Q508.664 637.378 508.664 651.638 Q508.664 665.85 512.275 672.98 Q515.933 680.063 523.155 680.063 Q530.423 680.063 534.034 672.98 Q537.692 665.85 537.692 651.638 Q537.692 637.378 534.034 630.295 Q530.423 623.166 523.155 623.166 M523.155 615.758 Q534.775 615.758 540.886 624.971 Q547.043 634.138 547.043 651.638 Q547.043 669.091 540.886 678.304 Q534.775 687.471 523.155 687.471 Q511.534 687.471 505.377 678.304 Q499.266 669.091 499.266 651.638 Q499.266 634.138 505.377 624.971 Q511.534 615.758 523.155 615.758 Z" fill="#000000" fill-rule="nonzero" fill-opacity="1" /><path clip-path="url(#clip050)" d="M563.479 674.369 L573.247 674.369 L573.247 686.128 L563.479 686.128 L563.479 674.369 Z" fill="#000000" fill-rule="nonzero" fill-opacity="1" /><path clip-path="url(#clip050)" d="M613.617 623.166 Q606.395 623.166 602.738 630.295 Q599.127 637.378 599.127 651.638 Q599.127 665.85 602.738 672.98 Q606.395 680.063 613.617 680.063 Q620.886 680.063 624.497 672.98 Q628.154 665.85 628.154 651.638 Q628.154 637.378 624.497 630.295 Q620.886 623.166 613.617 623.166 M613.617 615.758 Q625.238 615.758 631.349 624.971 Q637.506 634.138 637.506 651.638 Q637.506 669.091 631.349 678.304 Q625.238 687.471 613.617 687.471 Q601.997 687.471 595.84 678.304 Q589.728 669.091 589.728 651.638 Q589.728 634.138 595.84 624.971 Q601.997 615.758 613.617 615.758 Z" fill="#000000" fill-rule="nonzero" fill-opacity="1" /><path clip-path="url(#clip050)" d="M384.128 447.614 L399.405 447.614 L399.405 394.882 L382.785 398.216 L382.785 389.697 L399.313 386.364 L408.665 386.364 L408.665 447.614 L423.942 447.614 L423.942 455.484 L384.128 455.484 L384.128 447.614 Z" fill="#000000" fill-rule="nonzero" fill-opacity="1" /><path clip-path="url(#clip050)" d="M463.988 417.197 Q457.692 417.197 453.988 421.503 Q450.331 425.808 450.331 433.308 Q450.331 440.762 453.988 445.114 Q457.692 449.419 463.988 449.419 Q470.285 449.419 473.942 445.114 Q477.646 440.762 477.646 433.308 Q477.646 425.808 473.942 421.503 Q470.285 417.197 463.988 417.197 M482.553 387.892 L482.553 396.41 Q479.035 394.743 475.424 393.864 Q471.859 392.984 468.34 392.984 Q459.081 392.984 454.174 399.234 Q449.313 405.484 448.618 418.123 Q451.35 414.095 455.47 411.966 Q459.59 409.79 464.544 409.79 Q474.961 409.79 480.979 416.132 Q487.044 422.428 487.044 433.308 Q487.044 443.956 480.748 450.391 Q474.451 456.826 463.988 456.826 Q451.998 456.826 445.655 447.66 Q439.313 438.447 439.313 420.993 Q439.313 404.604 447.09 394.882 Q454.868 385.114 467.97 385.114 Q471.488 385.114 475.053 385.808 Q478.664 386.503 482.553 387.892 Z" fill="#000000" fill-rule="nonzero" fill-opacity="1" /><path clip-path="url(#clip050)" d="M523.155 392.521 Q515.933 392.521 512.275 399.651 Q508.664 406.734 508.664 420.993 Q508.664 435.206 512.275 442.336 Q515.933 449.419 523.155 449.419 Q530.423 449.419 534.034 442.336 Q537.692 435.206 537.692 420.993 Q537.692 406.734 534.034 399.651 Q530.423 392.521 523.155 392.521 M523.155 385.114 Q534.775 385.114 540.886 394.327 Q547.043 403.493 547.043 420.993 Q547.043 438.447 540.886 447.66 Q534.775 456.826 523.155 456.826 Q511.534 456.826 505.377 447.66 Q499.266 438.447 499.266 420.993 Q499.266 403.493 505.377 394.327 Q511.534 385.114 523.155 385.114 Z" fill="#000000" fill-rule="nonzero" fill-opacity="1" /><path clip-path="url(#clip050)" d="M563.479 443.725 L573.247 443.725 L573.247 455.484 L563.479 455.484 L563.479 443.725 Z" fill="#000000" fill-rule="nonzero" fill-opacity="1" /><path clip-path="url(#clip050)" d="M613.617 392.521 Q606.395 392.521 602.738 399.651 Q599.127 406.734 599.127 420.993 Q599.127 435.206 602.738 442.336 Q606.395 449.419 613.617 449.419 Q620.886 449.419 624.497 442.336 Q628.154 435.206 628.154 420.993 Q628.154 406.734 624.497 399.651 Q620.886 392.521 613.617 392.521 M613.617 385.114 Q625.238 385.114 631.349 394.327 Q637.506 403.493 637.506 420.993 Q637.506 438.447 631.349 447.66 Q625.238 456.826 613.617 456.826 Q601.997 456.826 595.84 447.66 Q589.728 438.447 589.728 420.993 Q589.728 403.493 595.84 394.327 Q601.997 385.114 613.617 385.114 Z" fill="#000000" fill-rule="nonzero" fill-opacity="1" /><path clip-path="url(#clip050)" d="M384.128 216.969 L399.405 216.969 L399.405 164.238 L382.785 167.571 L382.785 159.053 L399.313 155.72 L408.665 155.72 L408.665 216.969 L423.942 216.969 L423.942 224.84 L384.128 224.84 L384.128 216.969 Z" fill="#000000" fill-rule="nonzero" fill-opacity="1" /><path clip-path="url(#clip050)" d="M462.831 192.016 Q456.164 192.016 452.322 195.58 Q448.525 199.145 448.525 205.395 Q448.525 211.645 452.322 215.21 Q456.164 218.775 462.831 218.775 Q469.498 218.775 473.34 215.21 Q477.183 211.599 477.183 205.395 Q477.183 199.145 473.34 195.58 Q469.544 192.016 462.831 192.016 M453.479 188.034 Q447.461 186.553 444.081 182.432 Q440.748 178.312 440.748 172.386 Q440.748 164.099 446.627 159.284 Q452.553 154.47 462.831 154.47 Q473.155 154.47 479.035 159.284 Q484.914 164.099 484.914 172.386 Q484.914 178.312 481.535 182.432 Q478.201 186.553 472.229 188.034 Q478.988 189.608 482.738 194.192 Q486.535 198.775 486.535 205.395 Q486.535 215.441 480.377 220.812 Q474.266 226.182 462.831 226.182 Q451.396 226.182 445.238 220.812 Q439.127 215.441 439.127 205.395 Q439.127 198.775 442.924 194.192 Q446.72 189.608 453.479 188.034 M450.053 173.266 Q450.053 178.636 453.387 181.645 Q456.766 184.655 462.831 184.655 Q468.849 184.655 472.229 181.645 Q475.655 178.636 475.655 173.266 Q475.655 167.895 472.229 164.886 Q468.849 161.877 462.831 161.877 Q456.766 161.877 453.387 164.886 Q450.053 167.895 450.053 173.266 Z" fill="#000000" fill-rule="nonzero" fill-opacity="1" /><path clip-path="url(#clip050)" d="M523.155 161.877 Q515.933 161.877 512.275 169.006 Q508.664 176.09 508.664 190.349 Q508.664 204.562 512.275 211.691 Q515.933 218.775 523.155 218.775 Q530.423 218.775 534.034 211.691 Q537.692 204.562 537.692 190.349 Q537.692 176.09 534.034 169.006 Q530.423 161.877 523.155 161.877 M523.155 154.47 Q534.775 154.47 540.886 163.682 Q547.043 172.849 547.043 190.349 Q547.043 207.803 540.886 217.015 Q534.775 226.182 523.155 226.182 Q511.534 226.182 505.377 217.015 Q499.266 207.803 499.266 190.349 Q499.266 172.849 505.377 163.682 Q511.534 154.47 523.155 154.47 Z" fill="#000000" fill-rule="nonzero" fill-opacity="1" /><path clip-path="url(#clip050)" d="M563.479 213.08 L573.247 213.08 L573.247 224.84 L563.479 224.84 L563.479 213.08 Z" fill="#000000" fill-rule="nonzero" fill-opacity="1" /><path clip-path="url(#clip050)" d="M613.617 161.877 Q606.395 161.877 602.738 169.006 Q599.127 176.09 599.127 190.349 Q599.127 204.562 602.738 211.691 Q606.395 218.775 613.617 218.775 Q620.886 218.775 624.497 211.691 Q628.154 204.562 628.154 190.349 Q628.154 176.09 624.497 169.006 Q620.886 161.877 613.617 161.877 M613.617 154.47 Q625.238 154.47 631.349 163.682 Q637.506 172.849 637.506 190.349 Q637.506 207.803 631.349 217.015 Q625.238 226.182 613.617 226.182 Q601.997 226.182 595.84 217.015 Q589.728 207.803 589.728 190.349 Q589.728 172.849 595.84 163.682 Q601.997 154.47 613.617 154.47 Z" fill="#000000" fill-rule="nonzero" fill-opacity="1" /><path clip-path="url(#clip050)" d="M307.579 930.89 L345.391 930.89 L345.391 942.667 L246.977 942.667 L246.977 930.89 L257.799 930.89 Q251.433 927.198 248.378 921.596 Q245.258 915.931 245.258 908.101 Q245.258 895.115 255.571 887.031 Q265.883 878.883 282.689 878.883 Q299.494 878.883 309.807 887.031 Q320.119 895.115 320.119 908.101 Q320.119 915.931 317.064 921.596 Q313.944 927.198 307.579 930.89 M282.689 891.041 Q269.766 891.041 262.446 896.388 Q255.062 901.672 255.062 910.966 Q255.062 920.26 262.446 925.607 Q269.766 930.89 282.689 930.89 Q295.611 930.89 302.995 925.607 Q310.316 920.26 310.316 910.966 Q310.316 901.672 302.995 896.388 Q295.611 891.041 282.689 891.041 Z" fill="#000000" fill-rule="nonzero" fill-opacity="1" /><path clip-path="url(#clip050)" d="M282.434 827.066 Q282.434 841.261 285.681 846.736 Q288.927 852.21 296.757 852.21 Q302.995 852.21 306.688 848.136 Q310.316 843.999 310.316 836.933 Q310.316 827.193 303.441 821.337 Q296.502 815.416 285.044 815.416 L282.434 815.416 L282.434 827.066 M277.596 803.704 L318.273 803.704 L318.273 815.416 L307.451 815.416 Q313.944 819.427 317.064 825.411 Q320.119 831.394 320.119 840.052 Q320.119 851.001 314.008 857.494 Q307.833 863.923 297.521 863.923 Q285.49 863.923 279.379 855.902 Q273.268 847.818 273.268 831.84 L273.268 815.416 L272.122 815.416 Q264.037 815.416 259.645 820.764 Q255.189 826.047 255.189 835.659 Q255.189 841.771 256.653 847.563 Q258.117 853.356 261.045 858.703 L250.224 858.703 Q247.741 852.274 246.532 846.227 Q245.258 840.179 245.258 834.45 Q245.258 818.981 253.279 811.342 Q261.3 803.704 277.596 803.704 Z" fill="#000000" fill-rule="nonzero" fill-opacity="1" /><path clip-path="url(#clip050)" d="M257.926 738.264 Q256.78 740.238 256.271 742.593 Q255.698 744.884 255.698 747.685 Q255.698 757.616 262.191 762.963 Q268.621 768.247 280.715 768.247 L318.273 768.247 L318.273 780.023 L246.977 780.023 L246.977 768.247 L258.054 768.247 Q251.561 764.555 248.441 758.634 Q245.258 752.714 245.258 744.248 Q245.258 743.038 245.449 741.574 Q245.577 740.11 245.895 738.328 L257.926 738.264 Z" fill="#000000" fill-rule="nonzero" fill-opacity="1" /><path clip-path="url(#clip050)" d="M279.697 667.859 L285.426 667.859 L285.426 721.713 Q297.521 720.949 303.887 714.456 Q310.189 707.9 310.189 696.25 Q310.189 689.503 308.534 683.201 Q306.878 676.835 303.568 670.597 L314.645 670.597 Q317.318 676.899 318.719 683.519 Q320.119 690.139 320.119 696.951 Q320.119 714.011 310.189 724.005 Q300.258 733.935 283.325 733.935 Q265.82 733.935 255.571 724.514 Q245.258 715.029 245.258 698.988 Q245.258 684.601 254.552 676.262 Q263.783 667.859 279.697 667.859 M276.259 679.572 Q266.647 679.7 260.918 684.983 Q255.189 690.203 255.189 698.86 Q255.189 708.664 260.727 714.584 Q266.265 720.44 276.323 721.331 L276.259 679.572 Z" fill="#000000" fill-rule="nonzero" fill-opacity="1" /><path clip-path="url(#clip050)" d="M275.241 589.37 L318.273 589.37 L318.273 601.083 L275.623 601.083 Q265.501 601.083 260.472 605.03 Q255.444 608.977 255.444 616.87 Q255.444 626.355 261.491 631.83 Q267.538 637.304 277.978 637.304 L318.273 637.304 L318.273 649.081 L246.977 649.081 L246.977 637.304 L258.054 637.304 Q251.624 633.103 248.441 627.437 Q245.258 621.708 245.258 614.26 Q245.258 601.974 252.897 595.672 Q260.472 589.37 275.241 589.37 Z" fill="#000000" fill-rule="nonzero" fill-opacity="1" /><path clip-path="url(#clip050)" d="M302.104 564.353 L302.104 550.921 L318.273 550.921 L318.273 564.353 L302.104 564.353 Z" fill="#000000" fill-rule="nonzero" fill-opacity="1" /><path clip-path="url(#clip050)" d="M307.451 470.395 L307.451 425.517 L318.273 425.517 L318.273 485.864 L307.451 485.864 Q299.876 478.543 287.145 465.939 Q274.35 453.271 270.658 450.025 Q263.719 443.85 258.945 441.431 Q254.107 438.949 249.46 438.949 Q241.885 438.949 237.11 444.296 Q232.336 449.579 232.336 458.109 Q232.336 464.157 234.437 470.904 Q236.537 477.588 240.802 485.227 L227.816 485.227 Q224.697 477.461 223.106 470.713 Q221.514 463.966 221.514 458.364 Q221.514 443.596 228.899 434.811 Q236.283 426.026 248.632 426.026 Q254.489 426.026 259.772 428.254 Q264.992 430.419 272.122 436.211 Q273.968 437.803 282.816 446.333 Q291.601 454.863 307.451 470.395 Z" fill="#000000" fill-rule="nonzero" fill-opacity="1" /><polyline clip-path="url(#clip052)" style="stroke:#008000; stroke-linecap:round; stroke-linejoin:round; stroke-width:8; stroke-opacity:1; fill:none" points="719.695,127.862 829.668,195.762 939.642,136.184 1049.62,212.391 1159.59,463.837 1269.56,489.843 1379.54,590.072 1489.51,634.326 1599.48,850.717 1709.46,828.511 1819.43,975.572 1929.4,1021.93 2039.38,1013.08 2149.35,995.903 2259.32,1000.1 "/>
<circle clip-path="url(#clip052)" cx="719.695" cy="127.862" r="14.4" fill="#008000" fill-rule="evenodd" fill-opacity="1" stroke="#000000" stroke-opacity="1" stroke-width="6.4"/>
<circle clip-path="url(#clip052)" cx="829.668" cy="195.762" r="14.4" fill="#008000" fill-rule="evenodd" fill-opacity="1" stroke="#000000" stroke-opacity="1" stroke-width="6.4"/>
<circle clip-path="url(#clip052)" cx="939.642" cy="136.184" r="14.4" fill="#008000" fill-rule="evenodd" fill-opacity="1" stroke="#000000" stroke-opacity="1" stroke-width="6.4"/>
<circle clip-path="url(#clip052)" cx="1049.62" cy="212.391" r="14.4" fill="#008000" fill-rule="evenodd" fill-opacity="1" stroke="#000000" stroke-opacity="1" stroke-width="6.4"/>
<circle clip-path="url(#clip052)" cx="1159.59" cy="463.837" r="14.4" fill="#008000" fill-rule="evenodd" fill-opacity="1" stroke="#000000" stroke-opacity="1" stroke-width="6.4"/>
<circle clip-path="url(#clip052)" cx="1269.56" cy="489.843" r="14.4" fill="#008000" fill-rule="evenodd" fill-opacity="1" stroke="#000000" stroke-opacity="1" stroke-width="6.4"/>
<circle clip-path="url(#clip052)" cx="1379.54" cy="590.072" r="14.4" fill="#008000" fill-rule="evenodd" fill-opacity="1" stroke="#000000" stroke-opacity="1" stroke-width="6.4"/>
<circle clip-path="url(#clip052)" cx="1489.51" cy="634.326" r="14.4" fill="#008000" fill-rule="evenodd" fill-opacity="1" stroke="#000000" stroke-opacity="1" stroke-width="6.4"/>
<circle clip-path="url(#clip052)" cx="1599.48" cy="850.717" r="14.4" fill="#008000" fill-rule="evenodd" fill-opacity="1" stroke="#000000" stroke-opacity="1" stroke-width="6.4"/>
<circle clip-path="url(#clip052)" cx="1709.46" cy="828.511" r="14.4" fill="#008000" fill-rule="evenodd" fill-opacity="1" stroke="#000000" stroke-opacity="1" stroke-width="6.4"/>
<circle clip-path="url(#clip052)" cx="1819.43" cy="975.572" r="14.4" fill="#008000" fill-rule="evenodd" fill-opacity="1" stroke="#000000" stroke-opacity="1" stroke-width="6.4"/>
<circle clip-path="url(#clip052)" cx="1929.4" cy="1021.93" r="14.4" fill="#008000" fill-rule="evenodd" fill-opacity="1" stroke="#000000" stroke-opacity="1" stroke-width="6.4"/>
<circle clip-path="url(#clip052)" cx="2039.38" cy="1013.08" r="14.4" fill="#008000" fill-rule="evenodd" fill-opacity="1" stroke="#000000" stroke-opacity="1" stroke-width="6.4"/>
<circle clip-path="url(#clip052)" cx="2149.35" cy="995.903" r="14.4" fill="#008000" fill-rule="evenodd" fill-opacity="1" stroke="#000000" stroke-opacity="1" stroke-width="6.4"/>
<circle clip-path="url(#clip052)" cx="2259.32" cy="1000.1" r="14.4" fill="#008000" fill-rule="evenodd" fill-opacity="1" stroke="#000000" stroke-opacity="1" stroke-width="6.4"/>
<polyline clip-path="url(#clip052)" style="stroke:#00008b; stroke-linecap:round; stroke-linejoin:round; stroke-width:8; stroke-opacity:1; fill:none" points="719.695,293.345 829.668,419.923 939.642,501.764 1049.62,584.968 1159.59,661.236 1269.56,732.07 1379.54,787.47 1489.51,851.664 1599.48,911.642 1709.46,959.607 1819.43,1003.51 1929.4,1054.69 2039.38,1098.03 2149.35,1140.98 2259.32,1177.51 "/>
<path clip-path="url(#clip052)" d="M719.695 355.29 L829.668 482.715 L939.642 560.475 L1049.62 644.91 L1159.59 722.209 L1269.56 797.579 L1379.54 846.506 L1489.51 914.488 L1599.48 968.898 L1709.46 1019.31 L1819.43 1065.14 L1929.4 1116.32 L2039.38 1162.68 L2149.35 1203.91 L2259.32 1240.32 L2259.32 1115.76 L2149.35 1079.75 L2039.38 1032.57 L1929.4 996.769 L1819.43 942.9 L1709.46 898.88 L1599.48 853.208 L1489.51 788.589 L1379.54 723.675 L1269.56 668.904 L1159.59 598.293 L1049.62 522.759 L939.642 441.754 L829.668 358.078 L719.695 234.288  Z" fill="#0000ff" fill-rule="evenodd" fill-opacity="0.1"/>
<polyline clip-path="url(#clip052)" style="stroke:#0000ff; stroke-linecap:round; stroke-linejoin:round; stroke-width:0; stroke-opacity:0.1; fill:none" points="719.695,355.29 829.668,482.715 939.642,560.475 1049.62,644.91 1159.59,722.209 1269.56,797.579 1379.54,846.506 1489.51,914.488 1599.48,968.898 1709.46,1019.31 1819.43,1065.14 1929.4,1116.32 2039.38,1162.68 2149.35,1203.91 2259.32,1240.32 "/>
</svg>
