<?xml version="1.0" encoding="utf-8"?>
<svg xmlns="http://www.w3.org/2000/svg" xmlns:xlink="http://www.w3.org/1999/xlink" width="600" height="400" viewBox="0 0 2400 1600">
<defs>
  <clipPath id="clip090">
    <rect x="0" y="0" width="2400" height="1600"/>
  </clipPath>
</defs>
<path clip-path="url(#clip090)" d="M0 1600 L2400 1600 L2400 0 L0 0  Z" fill="#ffffff" fill-rule="evenodd" fill-opacity="1"/>
<defs>
  <clipPath id="clip091">
    <rect x="480" y="0" width="1681" height="1600"/>
  </clipPath>
</defs>
<path clip-path="url(#clip090)" d="M680.45 1273.7 L2305.51 1273.7 L2305.51 94.4882 L680.45 94.4882  Z" fill="#ffffff" fill-rule="evenodd" fill-opacity="1"/>
<defs>
  <clipPath id="clip092">
    <rect x="680" y="94" width="1626" height="1180"/>
  </clipPath>
</defs>
<polyline clip-path="url(#clip092)" style="stroke:#000000; stroke-linecap:round; stroke-linejoin:round; stroke-width:4; stroke-opacity:0.1; fill:none" points="726.443,1273.7 726.443,94.4882 "/>
<polyline clip-path="url(#clip092)" style="stroke:#000000; stroke-linecap:round; stroke-linejoin:round; stroke-width:4; stroke-opacity:0.1; fill:none" points="1000.21,1273.7 1000.21,94.4882 "/>
<polyline clip-path="url(#clip092)" style="stroke:#000000; stroke-linecap:round; stroke-linejoin:round; stroke-width:4; stroke-opacity:0.1; fill:none" points="1273.97,1273.7 1273.97,94.4882 "/>
<polyline clip-path="url(#clip092)" style="stroke:#000000; stroke-linecap:round; stroke-linejoin:round; stroke-width:4; stroke-opacity:0.1; fill:none" points="1547.73,1273.7 1547.73,94.4882 "/>
<polyline clip-path="url(#clip092)" style="stroke:#000000; stroke-linecap:round; stroke-linejoin:round; stroke-width:4; stroke-opacity:0.1; fill:none" points="1821.5,1273.7 1821.5,94.4882 "/>
<polyline clip-path="url(#clip092)" style="stroke:#000000; stroke-linecap:round; stroke-linejoin:round; stroke-width:4; stroke-opacity:0.1; fill:none" points="2095.26,1273.7 2095.26,94.4882 "/>
<polyline clip-path="url(#clip090)" style="stroke:#000000; stroke-linecap:round; stroke-linejoin:round; stroke-width:8; stroke-opacity:1; fill:none" points="680.45,1273.7 2305.51,1273.7 "/>
<polyline clip-path="url(#clip090)" style="stroke:#000000; stroke-linecap:round; stroke-linejoin:round; stroke-width:8; stroke-opacity:1; fill:none" points="726.443,1273.7 726.443,1254.8 "/>
<polyline clip-path="url(#clip090)" style="stroke:#000000; stroke-linecap:round; stroke-linejoin:round; stroke-width:8; stroke-opacity:1; fill:none" points="1000.21,1273.7 1000.21,1254.8 "/>
<polyline clip-path="url(#clip090)" style="stroke:#000000; stroke-linecap:round; stroke-linejoin:round; stroke-width:8; stroke-opacity:1; fill:none" points="1273.97,1273.7 1273.97,1254.8 "/>
<polyline clip-path="url(#clip090)" style="stroke:#000000; stroke-linecap:round; stroke-linejoin:round; stroke-width:8; stroke-opacity:1; fill:none" points="1547.73,1273.7 1547.73,1254.8 "/>
<polyline clip-path="url(#clip090)" style="stroke:#000000; stroke-linecap:round; stroke-linejoin:round; stroke-width:8; stroke-opacity:1; fill:none" points="1821.5,1273.7 1821.5,1254.8 "/>
<polyline clip-path="url(#clip090)" style="stroke:#000000; stroke-linecap:round; stroke-linejoin:round; stroke-width:8; stroke-opacity:1; fill:none" points="2095.26,1273.7 2095.26,1254.8 "/>
<path clip-path="url(#clip090)" d="M651.05 1316.33 Q643.827 1316.33 640.17 1323.46 Q636.559 1330.55 636.559 1344.81 Q636.559 1359.02 640.17 1366.15 Q643.827 1373.23 651.05 1373.23 Q658.318 1373.23 661.929 1366.15 Q665.587 1359.02 665.587 1344.81 Q665.587 1330.55 661.929 1323.46 Q658.318 1316.33 651.05 1316.33 M651.05 1308.93 Q662.67 1308.93 668.781 1318.14 Q674.938 1327.31 674.938 1344.81 Q674.938 1362.26 668.781 1371.47 Q662.67 1380.64 651.05 1380.64 Q639.429 1380.64 633.272 1371.47 Q627.161 1362.26 627.161 1344.81 Q627.161 1327.31 633.272 1318.14 Q639.429 1308.93 651.05 1308.93 Z" fill="#000000" fill-rule="nonzero" fill-opacity="1" /><path clip-path="url(#clip090)" d="M691.373 1367.54 L701.142 1367.54 L701.142 1379.3 L691.373 1379.3 L691.373 1367.54 Z" fill="#000000" fill-rule="nonzero" fill-opacity="1" /><path clip-path="url(#clip090)" d="M741.512 1316.33 Q734.29 1316.33 730.632 1323.46 Q727.021 1330.55 727.021 1344.81 Q727.021 1359.02 730.632 1366.15 Q734.29 1373.23 741.512 1373.23 Q748.781 1373.23 752.392 1366.15 Q756.049 1359.02 756.049 1344.81 Q756.049 1330.55 752.392 1323.46 Q748.781 1316.33 741.512 1316.33 M741.512 1308.93 Q753.132 1308.93 759.243 1318.14 Q765.401 1327.31 765.401 1344.81 Q765.401 1362.26 759.243 1371.47 Q753.132 1380.64 741.512 1380.64 Q729.892 1380.64 723.734 1371.47 Q717.623 1362.26 717.623 1344.81 Q717.623 1327.31 723.734 1318.14 Q729.892 1308.93 741.512 1308.93 Z" fill="#000000" fill-rule="nonzero" fill-opacity="1" /><path clip-path="url(#clip090)" d="M801.836 1316.33 Q794.614 1316.33 790.956 1323.46 Q787.345 1330.55 787.345 1344.81 Q787.345 1359.02 790.956 1366.15 Q794.614 1373.23 801.836 1373.23 Q809.104 1373.23 812.715 1366.15 Q816.373 1359.02 816.373 1344.81 Q816.373 1330.55 812.715 1323.46 Q809.104 1316.33 801.836 1316.33 M801.836 1308.93 Q813.456 1308.93 819.567 1318.14 Q825.725 1327.31 825.725 1344.81 Q825.725 1362.26 819.567 1371.47 Q813.456 1380.64 801.836 1380.64 Q790.215 1380.64 784.058 1371.47 Q777.947 1362.26 777.947 1344.81 Q777.947 1327.31 784.058 1318.14 Q790.215 1308.93 801.836 1308.93 Z" fill="#000000" fill-rule="nonzero" fill-opacity="1" /><path clip-path="url(#clip090)" d="M925.809 1316.33 Q918.586 1316.33 914.929 1323.46 Q911.318 1330.55 911.318 1344.81 Q911.318 1359.02 914.929 1366.15 Q918.586 1373.23 925.809 1373.23 Q933.077 1373.23 936.688 1366.15 Q940.346 1359.02 940.346 1344.81 Q940.346 1330.55 936.688 1323.46 Q933.077 1316.33 925.809 1316.33 M925.809 1308.93 Q937.429 1308.93 943.54 1318.14 Q949.697 1327.31 949.697 1344.81 Q949.697 1362.26 943.54 1371.47 Q937.429 1380.64 925.809 1380.64 Q914.188 1380.64 908.031 1371.47 Q901.92 1362.26 901.92 1344.81 Q901.92 1327.31 908.031 1318.14 Q914.188 1308.93 925.809 1308.93 Z" fill="#000000" fill-rule="nonzero" fill-opacity="1" /><path clip-path="url(#clip090)" d="M966.133 1367.54 L975.901 1367.54 L975.901 1379.3 L966.133 1379.3 L966.133 1367.54 Z" fill="#000000" fill-rule="nonzero" fill-opacity="1" /><path clip-path="url(#clip090)" d="M1004.33 1371.43 L1036.97 1371.43 L1036.97 1379.3 L993.077 1379.3 L993.077 1371.43 Q998.401 1365.92 1007.57 1356.66 Q1016.78 1347.35 1019.14 1344.67 Q1023.63 1339.62 1025.39 1336.15 Q1027.2 1332.63 1027.2 1329.25 Q1027.2 1323.74 1023.31 1320.27 Q1019.47 1316.8 1013.26 1316.8 Q1008.86 1316.8 1003.96 1318.32 Q999.095 1319.85 993.54 1322.95 L993.54 1313.51 Q999.188 1311.24 1004.1 1310.08 Q1009 1308.93 1013.08 1308.93 Q1023.82 1308.93 1030.21 1314.3 Q1036.6 1319.67 1036.6 1328.65 Q1036.6 1332.91 1034.97 1336.75 Q1033.4 1340.55 1029.19 1345.73 Q1028.03 1347.07 1021.83 1353.51 Q1015.62 1359.9 1004.33 1371.43 Z" fill="#000000" fill-rule="nonzero" fill-opacity="1" /><path clip-path="url(#clip090)" d="M1056.69 1310.18 L1093.4 1310.18 L1093.4 1318.05 L1065.25 1318.05 L1065.25 1334.99 Q1067.29 1334.3 1069.33 1333.97 Q1071.36 1333.6 1073.4 1333.6 Q1084.97 1333.6 1091.73 1339.94 Q1098.49 1346.29 1098.49 1357.12 Q1098.49 1368.28 1091.55 1374.48 Q1084.6 1380.64 1071.97 1380.64 Q1067.61 1380.64 1063.08 1379.9 Q1058.59 1379.16 1053.77 1377.68 L1053.77 1368.28 Q1057.94 1370.55 1062.38 1371.66 Q1066.83 1372.77 1071.78 1372.77 Q1079.79 1372.77 1084.47 1368.56 Q1089.14 1364.34 1089.14 1357.12 Q1089.14 1349.9 1084.47 1345.68 Q1079.79 1341.47 1071.78 1341.47 Q1068.03 1341.47 1064.28 1342.31 Q1060.58 1343.14 1056.69 1344.9 L1056.69 1310.18 Z" fill="#000000" fill-rule="nonzero" fill-opacity="1" /><path clip-path="url(#clip090)" d="M1198.58 1316.33 Q1191.35 1316.33 1187.7 1323.46 Q1184.09 1330.55 1184.09 1344.81 Q1184.09 1359.02 1187.7 1366.15 Q1191.35 1373.23 1198.58 1373.23 Q1205.85 1373.23 1209.46 1366.15 Q1213.11 1359.02 1213.11 1344.81 Q1213.11 1330.55 1209.46 1323.46 Q1205.85 1316.33 1198.58 1316.33 M1198.58 1308.93 Q1210.2 1308.93 1216.31 1318.14 Q1222.47 1327.31 1222.47 1344.81 Q1222.47 1362.26 1216.31 1371.47 Q1210.2 1380.64 1198.58 1380.64 Q1186.96 1380.64 1180.8 1371.47 Q1174.69 1362.26 1174.69 1344.81 Q1174.69 1327.31 1180.8 1318.14 Q1186.96 1308.93 1198.58 1308.93 Z" fill="#000000" fill-rule="nonzero" fill-opacity="1" /><path clip-path="url(#clip090)" d="M1238.9 1367.54 L1248.67 1367.54 L1248.67 1379.3 L1238.9 1379.3 L1238.9 1367.54 Z" fill="#000000" fill-rule="nonzero" fill-opacity="1" /><path clip-path="url(#clip090)" d="M1269.13 1310.18 L1305.84 1310.18 L1305.84 1318.05 L1277.7 1318.05 L1277.7 1334.99 Q1279.73 1334.3 1281.77 1333.97 Q1283.81 1333.6 1285.85 1333.6 Q1297.42 1333.6 1304.18 1339.94 Q1310.94 1346.29 1310.94 1357.12 Q1310.94 1368.28 1303.99 1374.48 Q1297.05 1380.64 1284.41 1380.64 Q1280.06 1380.64 1275.52 1379.9 Q1271.03 1379.16 1266.22 1377.68 L1266.22 1368.28 Q1270.38 1370.55 1274.83 1371.66 Q1279.27 1372.77 1284.22 1372.77 Q1292.23 1372.77 1296.91 1368.56 Q1301.59 1364.34 1301.59 1357.12 Q1301.59 1349.9 1296.91 1345.68 Q1292.23 1341.47 1284.22 1341.47 Q1280.47 1341.47 1276.72 1342.31 Q1273.02 1343.14 1269.13 1344.9 L1269.13 1310.18 Z" fill="#000000" fill-rule="nonzero" fill-opacity="1" /><path clip-path="url(#clip090)" d="M1349.36 1316.33 Q1342.14 1316.33 1338.48 1323.46 Q1334.87 1330.55 1334.87 1344.81 Q1334.87 1359.02 1338.48 1366.15 Q1342.14 1373.23 1349.36 1373.23 Q1356.63 1373.23 1360.24 1366.15 Q1363.9 1359.02 1363.9 1344.81 Q1363.9 1330.55 1360.24 1323.46 Q1356.63 1316.33 1349.36 1316.33 M1349.36 1308.93 Q1360.98 1308.93 1367.09 1318.14 Q1373.25 1327.31 1373.25 1344.81 Q1373.25 1362.26 1367.09 1371.47 Q1360.98 1380.64 1349.36 1380.64 Q1337.74 1380.64 1331.59 1371.47 Q1325.47 1362.26 1325.47 1344.81 Q1325.47 1327.31 1331.59 1318.14 Q1337.74 1308.93 1349.36 1308.93 Z" fill="#000000" fill-rule="nonzero" fill-opacity="1" /><path clip-path="url(#clip090)" d="M1473.34 1316.33 Q1466.11 1316.33 1462.46 1323.46 Q1458.85 1330.55 1458.85 1344.81 Q1458.85 1359.02 1462.46 1366.15 Q1466.11 1373.23 1473.34 1373.23 Q1480.6 1373.23 1484.22 1366.15 Q1487.87 1359.02 1487.87 1344.81 Q1487.87 1330.55 1484.22 1323.46 Q1480.6 1316.33 1473.34 1316.33 M1473.34 1308.93 Q1484.96 1308.93 1491.07 1318.14 Q1497.22 1327.31 1497.22 1344.81 Q1497.22 1362.26 1491.07 1371.47 Q1484.96 1380.64 1473.34 1380.64 Q1461.72 1380.64 1455.56 1371.47 Q1449.45 1362.26 1449.45 1344.81 Q1449.45 1327.31 1455.56 1318.14 Q1461.72 1308.93 1473.34 1308.93 Z" fill="#000000" fill-rule="nonzero" fill-opacity="1" /><path clip-path="url(#clip090)" d="M1513.66 1367.54 L1523.43 1367.54 L1523.43 1379.3 L1513.66 1379.3 L1513.66 1367.54 Z" fill="#000000" fill-rule="nonzero" fill-opacity="1" /><path clip-path="url(#clip090)" d="M1541.44 1310.18 L1585.88 1310.18 L1585.88 1314.16 L1560.79 1379.3 L1551.02 1379.3 L1574.63 1318.05 L1541.44 1318.05 L1541.44 1310.18 Z" fill="#000000" fill-rule="nonzero" fill-opacity="1" /><path clip-path="url(#clip090)" d="M1604.22 1310.18 L1640.93 1310.18 L1640.93 1318.05 L1612.78 1318.05 L1612.78 1334.99 Q1614.82 1334.3 1616.85 1333.97 Q1618.89 1333.6 1620.93 1333.6 Q1632.5 1333.6 1639.26 1339.94 Q1646.02 1346.29 1646.02 1357.12 Q1646.02 1368.28 1639.08 1374.48 Q1632.13 1380.64 1619.49 1380.64 Q1615.14 1380.64 1610.6 1379.9 Q1606.11 1379.16 1601.3 1377.68 L1601.3 1368.28 Q1605.47 1370.55 1609.91 1371.66 Q1614.35 1372.77 1619.31 1372.77 Q1627.32 1372.77 1631.99 1368.56 Q1636.67 1364.34 1636.67 1357.12 Q1636.67 1349.9 1631.99 1345.68 Q1627.32 1341.47 1619.31 1341.47 Q1615.56 1341.47 1611.81 1342.31 Q1608.1 1343.14 1604.22 1344.9 L1604.22 1310.18 Z" fill="#000000" fill-rule="nonzero" fill-opacity="1" /><path clip-path="url(#clip090)" d="M1725.64 1371.43 L1740.92 1371.43 L1740.92 1318.69 L1724.3 1322.03 L1724.3 1313.51 L1740.83 1310.18 L1750.18 1310.18 L1750.18 1371.43 L1765.46 1371.43 L1765.46 1379.3 L1725.64 1379.3 L1725.64 1371.43 Z" fill="#000000" fill-rule="nonzero" fill-opacity="1" /><path clip-path="url(#clip090)" d="M1784.34 1367.54 L1794.11 1367.54 L1794.11 1379.3 L1784.34 1379.3 L1784.34 1367.54 Z" fill="#000000" fill-rule="nonzero" fill-opacity="1" /><path clip-path="url(#clip090)" d="M1834.48 1316.33 Q1827.26 1316.33 1823.6 1323.46 Q1819.99 1330.55 1819.99 1344.81 Q1819.99 1359.02 1823.6 1366.15 Q1827.26 1373.23 1834.48 1373.23 Q1841.75 1373.23 1845.36 1366.15 Q1849.02 1359.02 1849.02 1344.81 Q1849.02 1330.55 1845.36 1323.46 Q1841.75 1316.33 1834.48 1316.33 M1834.48 1308.93 Q1846.1 1308.93 1852.21 1318.14 Q1858.37 1327.31 1858.37 1344.81 Q1858.37 1362.26 1852.21 1371.47 Q1846.1 1380.64 1834.48 1380.64 Q1822.86 1380.64 1816.71 1371.47 Q1810.59 1362.26 1810.59 1344.81 Q1810.59 1327.31 1816.71 1318.14 Q1822.86 1308.93 1834.48 1308.93 Z" fill="#000000" fill-rule="nonzero" fill-opacity="1" /><path clip-path="url(#clip090)" d="M1894.81 1316.33 Q1887.59 1316.33 1883.93 1323.46 Q1880.32 1330.55 1880.32 1344.81 Q1880.32 1359.02 1883.93 1366.15 Q1887.59 1373.23 1894.81 1373.23 Q1902.08 1373.23 1905.69 1366.15 Q1909.34 1359.02 1909.34 1344.81 Q1909.34 1330.55 1905.69 1323.46 Q1902.08 1316.33 1894.81 1316.33 M1894.81 1308.93 Q1906.43 1308.93 1912.54 1318.14 Q1918.7 1327.31 1918.7 1344.81 Q1918.7 1362.26 1912.54 1371.47 Q1906.43 1380.64 1894.81 1380.64 Q1883.19 1380.64 1877.03 1371.47 Q1870.92 1362.26 1870.92 1344.81 Q1870.92 1327.31 1877.03 1318.14 Q1883.19 1308.93 1894.81 1308.93 Z" fill="#000000" fill-rule="nonzero" fill-opacity="1" /><path clip-path="url(#clip090)" d="M2000.4 1371.43 L2015.68 1371.43 L2015.68 1318.69 L1999.06 1322.03 L1999.06 1313.51 L2015.59 1310.18 L2024.94 1310.18 L2024.94 1371.43 L2040.22 1371.43 L2040.22 1379.3 L2000.4 1379.3 L2000.4 1371.43 Z" fill="#000000" fill-rule="nonzero" fill-opacity="1" /><path clip-path="url(#clip090)" d="M2059.1 1367.54 L2068.87 1367.54 L2068.87 1379.3 L2059.1 1379.3 L2059.1 1367.54 Z" fill="#000000" fill-rule="nonzero" fill-opacity="1" /><path clip-path="url(#clip090)" d="M2097.3 1371.43 L2129.94 1371.43 L2129.94 1379.3 L2086.05 1379.3 L2086.05 1371.43 Q2091.37 1365.92 2100.54 1356.66 Q2109.75 1347.35 2112.11 1344.67 Q2116.6 1339.62 2118.36 1336.15 Q2120.17 1332.63 2120.17 1329.25 Q2120.17 1323.74 2116.28 1320.27 Q2112.44 1316.8 2106.23 1316.8 Q2101.84 1316.8 2096.93 1318.32 Q2092.07 1319.85 2086.51 1322.95 L2086.51 1313.51 Q2092.16 1311.24 2097.07 1310.08 Q2101.97 1308.93 2106.05 1308.93 Q2116.79 1308.93 2123.18 1314.3 Q2129.57 1319.67 2129.57 1328.65 Q2129.57 1332.91 2127.95 1336.75 Q2126.37 1340.55 2122.16 1345.73 Q2121 1347.07 2114.8 1353.51 Q2108.59 1359.9 2097.3 1371.43 Z" fill="#000000" fill-rule="nonzero" fill-opacity="1" /><path clip-path="url(#clip090)" d="M2149.66 1310.18 L2186.37 1310.18 L2186.37 1318.05 L2158.22 1318.05 L2158.22 1334.99 Q2160.26 1334.3 2162.3 1333.97 Q2164.33 1333.6 2166.37 1333.6 Q2177.95 1333.6 2184.71 1339.94 Q2191.46 1346.29 2191.46 1357.12 Q2191.46 1368.28 2184.52 1374.48 Q2177.58 1380.64 2164.94 1380.64 Q2160.58 1380.64 2156.05 1379.9 Q2151.56 1379.16 2146.74 1377.68 L2146.74 1368.28 Q2150.91 1370.55 2155.35 1371.66 Q2159.8 1372.77 2164.75 1372.77 Q2172.76 1372.77 2177.44 1368.56 Q2182.11 1364.34 2182.11 1357.12 Q2182.11 1349.9 2177.44 1345.68 Q2172.76 1341.47 2164.75 1341.47 Q2161 1341.47 2157.25 1342.31 Q2153.55 1343.14 2149.66 1344.9 L2149.66 1310.18 Z" fill="#000000" fill-rule="nonzero" fill-opacity="1" /><path clip-path="url(#clip090)" d="M1378.53 1484.39 L1378.53 1527.42 L1366.81 1527.42 L1366.81 1484.77 Q1366.81 1474.65 1362.87 1469.62 Q1358.92 1464.59 1351.03 1464.59 Q1341.54 1464.59 1336.07 1470.64 Q1330.59 1476.69 1330.59 1487.13 L1330.59 1527.42 L1318.82 1527.42 L1318.82 1428.37 L1330.59 1428.37 L1330.59 1467.2 Q1334.79 1460.77 1340.46 1457.59 Q1346.19 1454.41 1353.64 1454.41 Q1365.92 1454.41 1372.22 1462.05 Q1378.53 1469.62 1378.53 1484.39 Z" fill="#000000" fill-rule="nonzero" fill-opacity="1" /><path clip-path="url(#clip090)" d="M1429.51 1464.34 Q1420.09 1464.34 1414.62 1471.72 Q1409.14 1479.04 1409.14 1491.84 Q1409.14 1504.63 1414.56 1512.02 Q1420.03 1519.34 1429.51 1519.34 Q1438.87 1519.34 1444.35 1511.96 Q1449.82 1504.57 1449.82 1491.84 Q1449.82 1479.17 1444.35 1471.79 Q1438.87 1464.34 1429.51 1464.34 M1429.51 1454.41 Q1444.79 1454.41 1453.51 1464.34 Q1462.23 1474.27 1462.23 1491.84 Q1462.23 1509.35 1453.51 1519.34 Q1444.79 1529.27 1429.51 1529.27 Q1414.17 1529.27 1405.45 1519.34 Q1396.8 1509.35 1396.8 1491.84 Q1396.8 1474.27 1405.45 1464.34 Q1414.17 1454.41 1429.51 1454.41 Z" fill="#000000" fill-rule="nonzero" fill-opacity="1" /><path clip-path="url(#clip090)" d="M1480.44 1499.29 L1480.44 1456.13 L1492.15 1456.13 L1492.15 1498.84 Q1492.15 1508.96 1496.1 1514.06 Q1500.05 1519.08 1507.94 1519.08 Q1517.43 1519.08 1522.9 1513.04 Q1528.44 1506.99 1528.44 1496.55 L1528.44 1456.13 L1540.15 1456.13 L1540.15 1527.42 L1528.44 1527.42 L1528.44 1516.47 Q1524.17 1522.97 1518.51 1526.15 Q1512.91 1529.27 1505.46 1529.27 Q1493.17 1529.27 1486.81 1521.63 Q1480.44 1513.99 1480.44 1499.29 M1509.91 1454.41 L1509.91 1454.41 Z" fill="#000000" fill-rule="nonzero" fill-opacity="1" /><path clip-path="url(#clip090)" d="M1605.59 1467.08 Q1603.62 1465.93 1601.26 1465.42 Q1598.97 1464.85 1596.17 1464.85 Q1586.24 1464.85 1580.89 1471.34 Q1575.61 1477.77 1575.61 1489.87 L1575.61 1527.42 L1563.83 1527.42 L1563.83 1456.13 L1575.61 1456.13 L1575.61 1467.2 Q1579.3 1460.71 1585.22 1457.59 Q1591.14 1454.41 1599.61 1454.41 Q1600.82 1454.41 1602.28 1454.6 Q1603.74 1454.73 1605.53 1455.05 L1605.59 1467.08 Z" fill="#000000" fill-rule="nonzero" fill-opacity="1" /><path clip-path="url(#clip090)" d="M1663.33 1458.23 L1663.33 1469.3 Q1658.36 1466.76 1653.01 1465.49 Q1647.67 1464.21 1641.94 1464.21 Q1633.22 1464.21 1628.83 1466.89 Q1624.5 1469.56 1624.5 1474.91 Q1624.5 1478.98 1627.62 1481.34 Q1630.73 1483.63 1640.16 1485.73 L1644.17 1486.62 Q1656.64 1489.29 1661.86 1494.19 Q1667.15 1499.03 1667.15 1507.75 Q1667.15 1517.68 1659.25 1523.48 Q1651.42 1529.27 1637.67 1529.27 Q1631.94 1529.27 1625.71 1528.12 Q1619.53 1527.04 1612.66 1524.81 L1612.66 1512.72 Q1619.15 1516.09 1625.45 1517.81 Q1631.75 1519.47 1637.93 1519.47 Q1646.2 1519.47 1650.66 1516.67 Q1655.12 1513.8 1655.12 1508.64 Q1655.12 1503.87 1651.87 1501.32 Q1648.69 1498.78 1637.8 1496.42 L1633.73 1495.47 Q1622.84 1493.18 1618 1488.47 Q1613.17 1483.69 1613.17 1475.42 Q1613.17 1465.36 1620.3 1459.88 Q1627.42 1454.41 1640.54 1454.41 Q1647.03 1454.41 1652.76 1455.36 Q1658.49 1456.32 1663.33 1458.23 Z" fill="#000000" fill-rule="nonzero" fill-opacity="1" /><polyline clip-path="url(#clip092)" style="stroke:#000000; stroke-linecap:round; stroke-linejoin:round; stroke-width:4; stroke-opacity:0.1; fill:none" points="680.45,1106.03 2305.51,1106.03 "/>
<polyline clip-path="url(#clip092)" style="stroke:#000000; stroke-linecap:round; stroke-linejoin:round; stroke-width:4; stroke-opacity:0.1; fill:none" points="680.45,902.745 2305.51,902.745 "/>
<polyline clip-path="url(#clip092)" style="stroke:#000000; stroke-linecap:round; stroke-linejoin:round; stroke-width:4; stroke-opacity:0.1; fill:none" points="680.45,699.464 2305.51,699.464 "/>
<polyline clip-path="url(#clip092)" style="stroke:#000000; stroke-linecap:round; stroke-linejoin:round; stroke-width:4; stroke-opacity:0.1; fill:none" points="680.45,496.182 2305.51,496.182 "/>
<polyline clip-path="url(#clip092)" style="stroke:#000000; stroke-linecap:round; stroke-linejoin:round; stroke-width:4; stroke-opacity:0.1; fill:none" points="680.45,292.901 2305.51,292.901 "/>
<polyline clip-path="url(#clip090)" style="stroke:#000000; stroke-linecap:round; stroke-linejoin:round; stroke-width:8; stroke-opacity:1; fill:none" points="680.45,1273.7 680.45,94.4882 "/>
<polyline clip-path="url(#clip090)" style="stroke:#000000; stroke-linecap:round; stroke-linejoin:round; stroke-width:8; stroke-opacity:1; fill:none" points="680.45,1106.03 699.348,1106.03 "/>
<polyline clip-path="url(#clip090)" style="stroke:#000000; stroke-linecap:round; stroke-linejoin:round; stroke-width:8; stroke-opacity:1; fill:none" points="680.45,902.745 699.348,902.745 "/>
<polyline clip-path="url(#clip090)" style="stroke:#000000; stroke-linecap:round; stroke-linejoin:round; stroke-width:8; stroke-opacity:1; fill:none" points="680.45,699.464 699.348,699.464 "/>
<polyline clip-path="url(#clip090)" style="stroke:#000000; stroke-linecap:round; stroke-linejoin:round; stroke-width:8; stroke-opacity:1; fill:none" points="680.45,496.182 699.348,496.182 "/>
<polyline clip-path="url(#clip090)" style="stroke:#000000; stroke-linecap:round; stroke-linejoin:round; stroke-width:8; stroke-opacity:1; fill:none" points="680.45,292.901 699.348,292.901 "/>
<path clip-path="url(#clip090)" d="M391.072 1132.72 L406.35 1132.72 L406.35 1079.99 L389.73 1083.32 L389.73 1074.8 L406.257 1071.47 L415.609 1071.47 L415.609 1132.72 L430.887 1132.72 L430.887 1140.59 L391.072 1140.59 L391.072 1132.72 Z" fill="#000000" fill-rule="nonzero" fill-opacity="1" /><path clip-path="url(#clip090)" d="M457.831 1132.72 L490.47 1132.72 L490.47 1140.59 L446.581 1140.59 L446.581 1132.72 Q451.905 1127.21 461.072 1117.95 Q470.285 1108.64 472.646 1105.96 Q477.136 1100.91 478.896 1097.44 Q480.701 1093.92 480.701 1090.54 Q480.701 1085.03 476.812 1081.56 Q472.97 1078.09 466.766 1078.09 Q462.368 1078.09 457.461 1079.61 Q452.6 1081.14 447.044 1084.24 L447.044 1074.8 Q452.692 1072.53 457.6 1071.37 Q462.507 1070.22 466.581 1070.22 Q477.322 1070.22 483.71 1075.59 Q490.099 1080.96 490.099 1089.94 Q490.099 1094.2 488.479 1098.04 Q486.905 1101.84 482.692 1107.02 Q481.535 1108.36 475.331 1114.8 Q469.127 1121.19 457.831 1132.72 Z" fill="#000000" fill-rule="nonzero" fill-opacity="1" /><path clip-path="url(#clip090)" d="M530.099 1077.62 Q522.877 1077.62 519.22 1084.75 Q515.608 1091.84 515.608 1106.1 Q515.608 1120.31 519.22 1127.44 Q522.877 1134.52 530.099 1134.52 Q537.368 1134.52 540.979 1127.44 Q544.636 1120.31 544.636 1106.1 Q544.636 1091.84 540.979 1084.75 Q537.368 1077.62 530.099 1077.62 M530.099 1070.22 Q541.719 1070.22 547.831 1079.43 Q553.988 1088.6 553.988 1106.1 Q553.988 1123.55 547.831 1132.76 Q541.719 1141.93 530.099 1141.93 Q518.479 1141.93 512.321 1132.76 Q506.21 1123.55 506.21 1106.1 Q506.21 1088.6 512.321 1079.43 Q518.479 1070.22 530.099 1070.22 Z" fill="#000000" fill-rule="nonzero" fill-opacity="1" /><path clip-path="url(#clip090)" d="M570.423 1128.83 L580.191 1128.83 L580.191 1140.59 L570.423 1140.59 L570.423 1128.83 Z" fill="#000000" fill-rule="nonzero" fill-opacity="1" /><path clip-path="url(#clip090)" d="M620.562 1077.62 Q613.339 1077.62 609.682 1084.75 Q606.071 1091.84 606.071 1106.1 Q606.071 1120.31 609.682 1127.44 Q613.339 1134.52 620.562 1134.52 Q627.83 1134.52 631.441 1127.44 Q635.099 1120.31 635.099 1106.1 Q635.099 1091.84 631.441 1084.75 Q627.83 1077.62 620.562 1077.62 M620.562 1070.22 Q632.182 1070.22 638.293 1079.43 Q644.45 1088.6 644.45 1106.1 Q644.45 1123.55 638.293 1132.76 Q632.182 1141.93 620.562 1141.93 Q608.941 1141.93 602.784 1132.76 Q596.673 1123.55 596.673 1106.1 Q596.673 1088.6 602.784 1079.43 Q608.941 1070.22 620.562 1070.22 Z" fill="#000000" fill-rule="nonzero" fill-opacity="1" /><path clip-path="url(#clip090)" d="M391.072 929.435 L406.35 929.435 L406.35 876.704 L389.73 880.037 L389.73 871.518 L406.257 868.185 L415.609 868.185 L415.609 929.435 L430.887 929.435 L430.887 937.305 L391.072 937.305 L391.072 929.435 Z" fill="#000000" fill-rule="nonzero" fill-opacity="1" /><path clip-path="url(#clip090)" d="M475.47 876.333 L451.859 913.231 L475.47 913.231 L475.47 876.333 M473.016 868.185 L484.775 868.185 L484.775 913.231 L494.636 913.231 L494.636 921.009 L484.775 921.009 L484.775 937.305 L475.47 937.305 L475.47 921.009 L444.266 921.009 L444.266 911.981 L473.016 868.185 Z" fill="#000000" fill-rule="nonzero" fill-opacity="1" /><path clip-path="url(#clip090)" d="M530.099 874.342 Q522.877 874.342 519.22 881.472 Q515.608 888.555 515.608 902.815 Q515.608 917.027 519.22 924.157 Q522.877 931.24 530.099 931.24 Q537.368 931.24 540.979 924.157 Q544.636 917.027 544.636 902.815 Q544.636 888.555 540.979 881.472 Q537.368 874.342 530.099 874.342 M530.099 866.935 Q541.719 866.935 547.831 876.148 Q553.988 885.315 553.988 902.815 Q553.988 920.268 547.831 929.481 Q541.719 938.648 530.099 938.648 Q518.479 938.648 512.321 929.481 Q506.21 920.268 506.21 902.815 Q506.21 885.315 512.321 876.148 Q518.479 866.935 530.099 866.935 Z" fill="#000000" fill-rule="nonzero" fill-opacity="1" /><path clip-path="url(#clip090)" d="M570.423 925.546 L580.191 925.546 L580.191 937.305 L570.423 937.305 L570.423 925.546 Z" fill="#000000" fill-rule="nonzero" fill-opacity="1" /><path clip-path="url(#clip090)" d="M620.562 874.342 Q613.339 874.342 609.682 881.472 Q606.071 888.555 606.071 902.815 Q606.071 917.027 609.682 924.157 Q613.339 931.24 620.562 931.24 Q627.83 931.24 631.441 924.157 Q635.099 917.027 635.099 902.815 Q635.099 888.555 631.441 881.472 Q627.83 874.342 620.562 874.342 M620.562 866.935 Q632.182 866.935 638.293 876.148 Q644.45 885.315 644.45 902.815 Q644.45 920.268 638.293 929.481 Q632.182 938.648 620.562 938.648 Q608.941 938.648 602.784 929.481 Q596.673 920.268 596.673 902.815 Q596.673 885.315 602.784 876.148 Q608.941 866.935 620.562 866.935 Z" fill="#000000" fill-rule="nonzero" fill-opacity="1" /><path clip-path="url(#clip090)" d="M391.072 726.153 L406.35 726.153 L406.35 673.422 L389.73 676.755 L389.73 668.237 L406.257 664.904 L415.609 664.904 L415.609 726.153 L430.887 726.153 L430.887 734.024 L391.072 734.024 L391.072 726.153 Z" fill="#000000" fill-rule="nonzero" fill-opacity="1" /><path clip-path="url(#clip090)" d="M470.933 695.737 Q464.637 695.737 460.933 700.042 Q457.275 704.348 457.275 711.848 Q457.275 719.301 460.933 723.653 Q464.637 727.959 470.933 727.959 Q477.229 727.959 480.886 723.653 Q484.59 719.301 484.59 711.848 Q484.59 704.348 480.886 700.042 Q477.229 695.737 470.933 695.737 M489.498 666.431 L489.498 674.95 Q485.979 673.283 482.368 672.404 Q478.803 671.524 475.285 671.524 Q466.025 671.524 461.118 677.774 Q456.257 684.024 455.562 696.663 Q458.294 692.635 462.414 690.505 Q466.535 688.329 471.488 688.329 Q481.905 688.329 487.923 694.672 Q493.988 700.968 493.988 711.848 Q493.988 722.496 487.692 728.931 Q481.396 735.366 470.933 735.366 Q458.942 735.366 452.6 726.2 Q446.257 716.987 446.257 699.533 Q446.257 683.144 454.035 673.422 Q461.812 663.654 474.914 663.654 Q478.433 663.654 481.998 664.348 Q485.609 665.043 489.498 666.431 Z" fill="#000000" fill-rule="nonzero" fill-opacity="1" /><path clip-path="url(#clip090)" d="M530.099 671.061 Q522.877 671.061 519.22 678.191 Q515.608 685.274 515.608 699.533 Q515.608 713.746 519.22 720.876 Q522.877 727.959 530.099 727.959 Q537.368 727.959 540.979 720.876 Q544.636 713.746 544.636 699.533 Q544.636 685.274 540.979 678.191 Q537.368 671.061 530.099 671.061 M530.099 663.654 Q541.719 663.654 547.831 672.867 Q553.988 682.033 553.988 699.533 Q553.988 716.987 547.831 726.2 Q541.719 735.366 530.099 735.366 Q518.479 735.366 512.321 726.2 Q506.21 716.987 506.21 699.533 Q506.21 682.033 512.321 672.867 Q518.479 663.654 530.099 663.654 Z" fill="#000000" fill-rule="nonzero" fill-opacity="1" /><path clip-path="url(#clip090)" d="M570.423 722.264 L580.191 722.264 L580.191 734.024 L570.423 734.024 L570.423 722.264 Z" fill="#000000" fill-rule="nonzero" fill-opacity="1" /><path clip-path="url(#clip090)" d="M620.562 671.061 Q613.339 671.061 609.682 678.191 Q606.071 685.274 606.071 699.533 Q606.071 713.746 609.682 720.876 Q613.339 727.959 620.562 727.959 Q627.83 727.959 631.441 720.876 Q635.099 713.746 635.099 699.533 Q635.099 685.274 631.441 678.191 Q627.83 671.061 620.562 671.061 M620.562 663.654 Q632.182 663.654 638.293 672.867 Q644.45 682.033 644.45 699.533 Q644.45 716.987 638.293 726.2 Q632.182 735.366 620.562 735.366 Q608.941 735.366 602.784 726.2 Q596.673 716.987 596.673 699.533 Q596.673 682.033 602.784 672.867 Q608.941 663.654 620.562 663.654 Z" fill="#000000" fill-rule="nonzero" fill-opacity="1" /><path clip-path="url(#clip090)" d="M391.072 522.872 L406.35 522.872 L406.35 470.141 L389.73 473.474 L389.73 464.955 L406.257 461.622 L415.609 461.622 L415.609 522.872 L430.887 522.872 L430.887 530.742 L391.072 530.742 L391.072 522.872 Z" fill="#000000" fill-rule="nonzero" fill-opacity="1" /><path clip-path="url(#clip090)" d="M469.775 497.918 Q463.109 497.918 459.266 501.483 Q455.47 505.048 455.47 511.298 Q455.47 517.548 459.266 521.113 Q463.109 524.677 469.775 524.677 Q476.442 524.677 480.285 521.113 Q484.127 517.501 484.127 511.298 Q484.127 505.048 480.285 501.483 Q476.488 497.918 469.775 497.918 M460.424 493.937 Q454.405 492.455 451.025 488.335 Q447.692 484.215 447.692 478.289 Q447.692 470.002 453.572 465.187 Q459.498 460.372 469.775 460.372 Q480.099 460.372 485.979 465.187 Q491.859 470.002 491.859 478.289 Q491.859 484.215 488.479 488.335 Q485.146 492.455 479.173 493.937 Q485.933 495.511 489.683 500.094 Q493.479 504.677 493.479 511.298 Q493.479 521.344 487.322 526.714 Q481.211 532.085 469.775 532.085 Q458.34 532.085 452.183 526.714 Q446.072 521.344 446.072 511.298 Q446.072 504.677 449.868 500.094 Q453.664 495.511 460.424 493.937 M456.998 479.168 Q456.998 484.539 460.331 487.548 Q463.711 490.557 469.775 490.557 Q475.794 490.557 479.173 487.548 Q482.599 484.539 482.599 479.168 Q482.599 473.798 479.173 470.789 Q475.794 467.78 469.775 467.78 Q463.711 467.78 460.331 470.789 Q456.998 473.798 456.998 479.168 Z" fill="#000000" fill-rule="nonzero" fill-opacity="1" /><path clip-path="url(#clip090)" d="M530.099 467.78 Q522.877 467.78 519.22 474.909 Q515.608 481.992 515.608 496.252 Q515.608 510.464 519.22 517.594 Q522.877 524.677 530.099 524.677 Q537.368 524.677 540.979 517.594 Q544.636 510.464 544.636 496.252 Q544.636 481.992 540.979 474.909 Q537.368 467.78 530.099 467.78 M530.099 460.372 Q541.719 460.372 547.831 469.585 Q553.988 478.752 553.988 496.252 Q553.988 513.705 547.831 522.918 Q541.719 532.085 530.099 532.085 Q518.479 532.085 512.321 522.918 Q506.21 513.705 506.21 496.252 Q506.21 478.752 512.321 469.585 Q518.479 460.372 530.099 460.372 Z" fill="#000000" fill-rule="nonzero" fill-opacity="1" /><path clip-path="url(#clip090)" d="M570.423 518.983 L580.191 518.983 L580.191 530.742 L570.423 530.742 L570.423 518.983 Z" fill="#000000" fill-rule="nonzero" fill-opacity="1" /><path clip-path="url(#clip090)" d="M620.562 467.78 Q613.339 467.78 609.682 474.909 Q606.071 481.992 606.071 496.252 Q606.071 510.464 609.682 517.594 Q613.339 524.677 620.562 524.677 Q627.83 524.677 631.441 517.594 Q635.099 510.464 635.099 496.252 Q635.099 481.992 631.441 474.909 Q627.83 467.78 620.562 467.78 M620.562 460.372 Q632.182 460.372 638.293 469.585 Q644.45 478.752 644.45 496.252 Q644.45 513.705 638.293 522.918 Q632.182 532.085 620.562 532.085 Q608.941 532.085 602.784 522.918 Q596.673 513.705 596.673 496.252 Q596.673 478.752 602.784 469.585 Q608.941 460.372 620.562 460.372 Z" fill="#000000" fill-rule="nonzero" fill-opacity="1" /><path clip-path="url(#clip090)" d="M397.507 319.59 L430.146 319.59 L430.146 327.461 L386.257 327.461 L386.257 319.59 Q391.581 314.081 400.748 304.822 Q409.961 295.516 412.322 292.831 Q416.813 287.785 418.572 284.313 Q420.378 280.794 420.378 277.415 Q420.378 271.905 416.489 268.433 Q412.646 264.961 406.442 264.961 Q402.044 264.961 397.137 266.489 Q392.276 268.017 386.72 271.118 L386.72 261.674 Q392.368 259.405 397.276 258.248 Q402.183 257.091 406.257 257.091 Q416.998 257.091 423.387 262.461 Q429.776 267.831 429.776 276.813 Q429.776 281.072 428.155 284.915 Q426.581 288.711 422.368 293.896 Q421.211 295.239 415.007 301.674 Q408.803 308.063 397.507 319.59 Z" fill="#000000" fill-rule="nonzero" fill-opacity="1" /><path clip-path="url(#clip090)" d="M469.775 264.498 Q462.553 264.498 458.896 271.628 Q455.285 278.711 455.285 292.97 Q455.285 307.183 458.896 314.313 Q462.553 321.396 469.775 321.396 Q477.044 321.396 480.655 314.313 Q484.312 307.183 484.312 292.97 Q484.312 278.711 480.655 271.628 Q477.044 264.498 469.775 264.498 M469.775 257.091 Q481.396 257.091 487.507 266.304 Q493.664 275.47 493.664 292.97 Q493.664 310.424 487.507 319.637 Q481.396 328.803 469.775 328.803 Q458.155 328.803 451.998 319.637 Q445.887 310.424 445.887 292.97 Q445.887 275.47 451.998 266.304 Q458.155 257.091 469.775 257.091 Z" fill="#000000" fill-rule="nonzero" fill-opacity="1" /><path clip-path="url(#clip090)" d="M530.099 264.498 Q522.877 264.498 519.22 271.628 Q515.608 278.711 515.608 292.97 Q515.608 307.183 519.22 314.313 Q522.877 321.396 530.099 321.396 Q537.368 321.396 540.979 314.313 Q544.636 307.183 544.636 292.97 Q544.636 278.711 540.979 271.628 Q537.368 264.498 530.099 264.498 M530.099 257.091 Q541.719 257.091 547.831 266.304 Q553.988 275.47 553.988 292.97 Q553.988 310.424 547.831 319.637 Q541.719 328.803 530.099 328.803 Q518.479 328.803 512.321 319.637 Q506.21 310.424 506.21 292.97 Q506.21 275.47 512.321 266.304 Q518.479 257.091 530.099 257.091 Z" fill="#000000" fill-rule="nonzero" fill-opacity="1" /><path clip-path="url(#clip090)" d="M570.423 315.701 L580.191 315.701 L580.191 327.461 L570.423 327.461 L570.423 315.701 Z" fill="#000000" fill-rule="nonzero" fill-opacity="1" /><path clip-path="url(#clip090)" d="M620.562 264.498 Q613.339 264.498 609.682 271.628 Q606.071 278.711 606.071 292.97 Q606.071 307.183 609.682 314.313 Q613.339 321.396 620.562 321.396 Q627.83 321.396 631.441 314.313 Q635.099 307.183 635.099 292.97 Q635.099 278.711 631.441 271.628 Q627.83 264.498 620.562 264.498 M620.562 257.091 Q632.182 257.091 638.293 266.304 Q644.45 275.47 644.45 292.97 Q644.45 310.424 638.293 319.637 Q632.182 328.803 620.562 328.803 Q608.941 328.803 602.784 319.637 Q596.673 310.424 596.673 292.97 Q596.673 275.47 602.784 266.304 Q608.941 257.091 620.562 257.091 Z" fill="#000000" fill-rule="nonzero" fill-opacity="1" /><path clip-path="url(#clip090)" d="M311.051 932.195 L348.863 932.195 L348.863 943.972 L250.449 943.972 L250.449 932.195 L261.271 932.195 Q254.905 928.503 251.85 922.901 Q248.731 917.236 248.731 909.406 Q248.731 896.42 259.043 888.336 Q269.356 880.188 286.161 880.188 Q302.966 880.188 313.279 888.336 Q323.591 896.42 323.591 909.406 Q323.591 917.236 320.536 922.901 Q317.417 928.503 311.051 932.195 M286.161 892.346 Q273.239 892.346 265.918 897.693 Q258.534 902.977 258.534 912.271 Q258.534 921.565 265.918 926.912 Q273.239 932.195 286.161 932.195 Q299.083 932.195 306.468 926.912 Q313.788 921.565 313.788 912.271 Q313.788 902.977 306.468 897.693 Q299.083 892.346 286.161 892.346 Z" fill="#000000" fill-rule="nonzero" fill-opacity="1" /><path clip-path="url(#clip090)" d="M285.906 828.371 Q285.906 842.566 289.153 848.041 Q292.399 853.515 300.229 853.515 Q306.468 853.515 310.16 849.441 Q313.788 845.303 313.788 838.238 Q313.788 828.498 306.913 822.642 Q299.975 816.721 288.516 816.721 L285.906 816.721 L285.906 828.371 M281.068 805.009 L321.745 805.009 L321.745 816.721 L310.924 816.721 Q317.417 820.732 320.536 826.716 Q323.591 832.699 323.591 841.357 Q323.591 852.306 317.48 858.799 Q311.306 865.228 300.993 865.228 Q288.962 865.228 282.851 857.207 Q276.74 849.123 276.74 833.145 L276.74 816.721 L275.594 816.721 Q267.509 816.721 263.117 822.069 Q258.661 827.352 258.661 836.964 Q258.661 843.075 260.125 848.868 Q261.589 854.661 264.518 860.008 L253.696 860.008 Q251.213 853.579 250.004 847.531 Q248.731 841.484 248.731 835.755 Q248.731 820.286 256.751 812.647 Q264.772 805.009 281.068 805.009 Z" fill="#000000" fill-rule="nonzero" fill-opacity="1" /><path clip-path="url(#clip090)" d="M261.398 739.569 Q260.253 741.542 259.743 743.898 Q259.17 746.189 259.17 748.99 Q259.17 758.921 265.663 764.268 Q272.093 769.552 284.188 769.552 L321.745 769.552 L321.745 781.328 L250.449 781.328 L250.449 769.552 L261.526 769.552 Q255.033 765.859 251.914 759.939 Q248.731 754.019 248.731 745.553 Q248.731 744.343 248.922 742.879 Q249.049 741.415 249.367 739.633 L261.398 739.569 Z" fill="#000000" fill-rule="nonzero" fill-opacity="1" /><path clip-path="url(#clip090)" d="M283.169 669.164 L288.898 669.164 L288.898 723.018 Q300.993 722.254 307.359 715.761 Q313.661 709.205 313.661 697.555 Q313.661 690.808 312.006 684.506 Q310.351 678.14 307.041 671.902 L318.117 671.902 Q320.79 678.204 322.191 684.824 Q323.591 691.444 323.591 698.256 Q323.591 715.316 313.661 725.31 Q303.73 735.24 286.798 735.24 Q269.292 735.24 259.043 725.819 Q248.731 716.334 248.731 700.293 Q248.731 685.906 258.025 677.567 Q267.255 669.164 283.169 669.164 M279.732 680.877 Q270.119 681.005 264.39 686.288 Q258.661 691.508 258.661 700.165 Q258.661 709.969 264.199 715.889 Q269.737 721.745 279.795 722.636 L279.732 680.877 Z" fill="#000000" fill-rule="nonzero" fill-opacity="1" /><path clip-path="url(#clip090)" d="M278.713 590.675 L321.745 590.675 L321.745 602.388 L279.095 602.388 Q268.974 602.388 263.945 606.335 Q258.916 610.282 258.916 618.175 Q258.916 627.66 264.963 633.134 Q271.011 638.609 281.45 638.609 L321.745 638.609 L321.745 650.386 L250.449 650.386 L250.449 638.609 L261.526 638.609 Q255.096 634.408 251.914 628.742 Q248.731 623.013 248.731 615.565 Q248.731 603.279 256.37 596.977 Q263.945 590.675 278.713 590.675 Z" fill="#000000" fill-rule="nonzero" fill-opacity="1" /><path clip-path="url(#clip090)" d="M305.576 565.658 L305.576 552.226 L321.745 552.226 L321.745 565.658 L305.576 565.658 Z" fill="#000000" fill-rule="nonzero" fill-opacity="1" /><path clip-path="url(#clip090)" d="M270.501 443.818 Q272.475 434.588 278.713 429.432 Q284.952 424.212 294.118 424.212 Q308.186 424.212 315.889 433.888 Q323.591 443.564 323.591 461.388 Q323.591 467.371 322.382 473.737 Q321.236 480.039 318.881 486.787 L306.468 486.787 Q309.587 481.44 311.178 475.074 Q312.77 468.708 312.77 461.77 Q312.77 449.675 307.995 443.373 Q303.221 437.007 294.118 437.007 Q285.715 437.007 281.005 442.927 Q276.231 448.784 276.231 459.287 L276.231 470.363 L265.663 470.363 L265.663 458.778 Q265.663 449.293 261.908 444.264 Q258.088 439.235 250.959 439.235 Q243.638 439.235 239.755 444.455 Q235.808 449.611 235.808 459.287 Q235.808 464.571 236.954 470.618 Q238.1 476.665 240.519 483.922 L229.061 483.922 Q227.024 476.602 226.005 470.236 Q224.987 463.807 224.987 458.141 Q224.987 443.5 231.671 434.97 Q238.291 426.44 249.622 426.44 Q257.515 426.44 262.99 430.96 Q268.401 435.479 270.501 443.818 Z" fill="#000000" fill-rule="nonzero" fill-opacity="1" /><polyline clip-path="url(#clip092)" style="stroke:#008000; stroke-linecap:round; stroke-linejoin:round; stroke-width:8; stroke-opacity:1; fill:none" points="726.443,184.695 835.948,237.801 945.454,313.647 1054.96,432.725 1164.46,521.827 1273.97,612.467 1383.48,687.522 1492.98,753.953 1602.49,852.427 1711.99,935.996 1821.5,997.016 1931,1167.56 2040.51,1181.62 2150.01,1240.32 2259.52,1129.52 "/>
<circle clip-path="url(#clip092)" cx="726.443" cy="184.695" r="14.4" fill="#008000" fill-rule="evenodd" fill-opacity="1" stroke="#000000" stroke-opacity="1" stroke-width="6.4"/>
<circle clip-path="url(#clip092)" cx="835.948" cy="237.801" r="14.4" fill="#008000" fill-rule="evenodd" fill-opacity="1" stroke="#000000" stroke-opacity="1" stroke-width="6.4"/>
<circle clip-path="url(#clip092)" cx="945.454" cy="313.647" r="14.4" fill="#008000" fill-rule="evenodd" fill-opacity="1" stroke="#000000" stroke-opacity="1" stroke-width="6.4"/>
<circle clip-path="url(#clip092)" cx="1054.96" cy="432.725" r="14.4" fill="#008000" fill-rule="evenodd" fill-opacity="1" stroke="#000000" stroke-opacity="1" stroke-width="6.4"/>
<circle clip-path="url(#clip092)" cx="1164.46" cy="521.827" r="14.4" fill="#008000" fill-rule="evenodd" fill-opacity="1" stroke="#000000" stroke-opacity="1" stroke-width="6.4"/>
<circle clip-path="url(#clip092)" cx="1273.97" cy="612.467" r="14.4" fill="#008000" fill-rule="evenodd" fill-opacity="1" stroke="#000000" stroke-opacity="1" stroke-width="6.4"/>
<circle clip-path="url(#clip092)" cx="1383.48" cy="687.522" r="14.4" fill="#008000" fill-rule="evenodd" fill-opacity="1" stroke="#000000" stroke-opacity="1" stroke-width="6.4"/>
<circle clip-path="url(#clip092)" cx="1492.98" cy="753.953" r="14.4" fill="#008000" fill-rule="evenodd" fill-opacity="1" stroke="#000000" stroke-opacity="1" stroke-width="6.4"/>
<circle clip-path="url(#clip092)" cx="1602.49" cy="852.427" r="14.4" fill="#008000" fill-rule="evenodd" fill-opacity="1" stroke="#000000" stroke-opacity="1" stroke-width="6.4"/>
<circle clip-path="url(#clip092)" cx="1711.99" cy="935.996" r="14.4" fill="#008000" fill-rule="evenodd" fill-opacity="1" stroke="#000000" stroke-opacity="1" stroke-width="6.4"/>
<circle clip-path="url(#clip092)" cx="1821.5" cy="997.016" r="14.4" fill="#008000" fill-rule="evenodd" fill-opacity="1" stroke="#000000" stroke-opacity="1" stroke-width="6.4"/>
<circle clip-path="url(#clip092)" cx="1931" cy="1167.56" r="14.4" fill="#008000" fill-rule="evenodd" fill-opacity="1" stroke="#000000" stroke-opacity="1" stroke-width="6.4"/>
<circle clip-path="url(#clip092)" cx="2040.51" cy="1181.62" r="14.4" fill="#008000" fill-rule="evenodd" fill-opacity="1" stroke="#000000" stroke-opacity="1" stroke-width="6.4"/>
<circle clip-path="url(#clip092)" cx="2150.01" cy="1240.32" r="14.4" fill="#008000" fill-rule="evenodd" fill-opacity="1" stroke="#000000" stroke-opacity="1" stroke-width="6.4"/>
<circle clip-path="url(#clip092)" cx="2259.52" cy="1129.52" r="14.4" fill="#008000" fill-rule="evenodd" fill-opacity="1" stroke="#000000" stroke-opacity="1" stroke-width="6.4"/>
<polyline clip-path="url(#clip092)" style="stroke:#00008b; stroke-linecap:round; stroke-linejoin:round; stroke-width:8; stroke-opacity:1; fill:none" points="726.443,181.457 835.948,270.041 945.454,377.092 1054.96,474.054 1164.46,559.721 1273.97,633.35 1383.48,703.411 1492.98,758.14 1602.49,822.274 1711.99,881.228 1821.5,932.38 1931,978.034 2040.51,1029.46 2150.01,1066.59 2259.52,1110.65 "/>
<path clip-path="url(#clip092)" d="M726.443 236.537 L835.948 324.254 L945.454 431.835 L1054.96 529.431 L1164.46 615.044 L1273.97 687.658 L1383.48 756.101 L1492.98 810.138 L1602.49 875.891 L1711.99 934.899 L1821.5 986.414 L1931 1031.36 L2040.51 1083.06 L2150.01 1118.3 L2259.52 1164.65 L2259.52 1056.33 L2150.01 1012.01 L2040.51 973.186 L1931 922.047 L1821.5 879.675 L1711.99 828.38 L1602.49 766.125 L1492.98 705.414 L1383.48 649.654 L1273.97 578.565 L1164.46 507.356 L1054.96 418.637 L945.454 323.685 L835.948 217.429 L726.443 127.862  Z" fill="#0000ff" fill-rule="evenodd" fill-opacity="0.1"/>
<polyline clip-path="url(#clip092)" style="stroke:#0000ff; stroke-linecap:round; stroke-linejoin:round; stroke-width:0; stroke-opacity:0.1; fill:none" points="726.443,236.537 835.948,324.254 945.454,431.835 1054.96,529.431 1164.46,615.044 1273.97,687.658 1383.48,756.101 1492.98,810.138 1602.49,875.891 1711.99,934.899 1821.5,986.414 1931,1031.36 2040.51,1083.06 2150.01,1118.3 2259.52,1164.65 "/>
</svg>
