<?xml version="1.0" encoding="utf-8"?>
<svg xmlns="http://www.w3.org/2000/svg" xmlns:xlink="http://www.w3.org/1999/xlink" width="600" height="400" viewBox="0 0 2400 1600">
<defs>
  <clipPath id="clip210">
    <rect x="0" y="0" width="2400" height="1600"/>
  </clipPath>
</defs>
<path clip-path="url(#clip210)" d="M0 1600 L2400 1600 L2400 0 L0 0  Z" fill="#ffffff" fill-rule="evenodd" fill-opacity="1"/>
<defs>
  <clipPath id="clip211">
    <rect x="480" y="0" width="1681" height="1600"/>
  </clipPath>
</defs>
<path clip-path="url(#clip210)" d="M673.506 1273.7 L2305.51 1273.7 L2305.51 94.4882 L673.506 94.4882  Z" fill="#ffffff" fill-rule="evenodd" fill-opacity="1"/>
<defs>
  <clipPath id="clip212">
    <rect x="673" y="94" width="1633" height="1180"/>
  </clipPath>
</defs>
<polyline clip-path="url(#clip212)" style="stroke:#000000; stroke-linecap:round; stroke-linejoin:round; stroke-width:4; stroke-opacity:0.1; fill:none" points="719.695,1273.7 719.695,94.4882 "/>
<polyline clip-path="url(#clip212)" style="stroke:#000000; stroke-linecap:round; stroke-linejoin:round; stroke-width:4; stroke-opacity:0.1; fill:none" points="994.628,1273.7 994.628,94.4882 "/>
<polyline clip-path="url(#clip212)" style="stroke:#000000; stroke-linecap:round; stroke-linejoin:round; stroke-width:4; stroke-opacity:0.1; fill:none" points="1269.56,1273.7 1269.56,94.4882 "/>
<polyline clip-path="url(#clip212)" style="stroke:#000000; stroke-linecap:round; stroke-linejoin:round; stroke-width:4; stroke-opacity:0.1; fill:none" points="1544.5,1273.7 1544.5,94.4882 "/>
<polyline clip-path="url(#clip212)" style="stroke:#000000; stroke-linecap:round; stroke-linejoin:round; stroke-width:4; stroke-opacity:0.1; fill:none" points="1819.43,1273.7 1819.43,94.4882 "/>
<polyline clip-path="url(#clip212)" style="stroke:#000000; stroke-linecap:round; stroke-linejoin:round; stroke-width:4; stroke-opacity:0.1; fill:none" points="2094.36,1273.7 2094.36,94.4882 "/>
<polyline clip-path="url(#clip210)" style="stroke:#000000; stroke-linecap:round; stroke-linejoin:round; stroke-width:8; stroke-opacity:1; fill:none" points="673.506,1273.7 2305.51,1273.7 "/>
<polyline clip-path="url(#clip210)" style="stroke:#000000; stroke-linecap:round; stroke-linejoin:round; stroke-width:8; stroke-opacity:1; fill:none" points="719.695,1273.7 719.695,1254.8 "/>
<polyline clip-path="url(#clip210)" style="stroke:#000000; stroke-linecap:round; stroke-linejoin:round; stroke-width:8; stroke-opacity:1; fill:none" points="994.628,1273.7 994.628,1254.8 "/>
<polyline clip-path="url(#clip210)" style="stroke:#000000; stroke-linecap:round; stroke-linejoin:round; stroke-width:8; stroke-opacity:1; fill:none" points="1269.56,1273.7 1269.56,1254.8 "/>
<polyline clip-path="url(#clip210)" style="stroke:#000000; stroke-linecap:round; stroke-linejoin:round; stroke-width:8; stroke-opacity:1; fill:none" points="1544.5,1273.7 1544.5,1254.8 "/>
<polyline clip-path="url(#clip210)" style="stroke:#000000; stroke-linecap:round; stroke-linejoin:round; stroke-width:8; stroke-opacity:1; fill:none" points="1819.43,1273.7 1819.43,1254.8 "/>
<polyline clip-path="url(#clip210)" style="stroke:#000000; stroke-linecap:round; stroke-linejoin:round; stroke-width:8; stroke-opacity:1; fill:none" points="2094.36,1273.7 2094.36,1254.8 "/>
<path clip-path="url(#clip210)" d="M644.302 1316.33 Q637.08 1316.33 633.422 1323.46 Q629.811 1330.55 629.811 1344.81 Q629.811 1359.02 633.422 1366.15 Q637.08 1373.23 644.302 1373.23 Q651.57 1373.23 655.181 1366.15 Q658.839 1359.02 658.839 1344.81 Q658.839 1330.55 655.181 1323.46 Q651.57 1316.33 644.302 1316.33 M644.302 1308.93 Q655.922 1308.93 662.033 1318.14 Q668.19 1327.31 668.19 1344.81 Q668.19 1362.26 662.033 1371.47 Q655.922 1380.64 644.302 1380.64 Q632.681 1380.64 626.524 1371.47 Q620.413 1362.26 620.413 1344.81 Q620.413 1327.31 626.524 1318.14 Q632.681 1308.93 644.302 1308.93 Z" fill="#000000" fill-rule="nonzero" fill-opacity="1" /><path clip-path="url(#clip210)" d="M684.626 1367.54 L694.394 1367.54 L694.394 1379.3 L684.626 1379.3 L684.626 1367.54 Z" fill="#000000" fill-rule="nonzero" fill-opacity="1" /><path clip-path="url(#clip210)" d="M734.764 1316.33 Q727.542 1316.33 723.885 1323.46 Q720.274 1330.55 720.274 1344.81 Q720.274 1359.02 723.885 1366.15 Q727.542 1373.23 734.764 1373.23 Q742.033 1373.23 745.644 1366.15 Q749.301 1359.02 749.301 1344.81 Q749.301 1330.55 745.644 1323.46 Q742.033 1316.33 734.764 1316.33 M734.764 1308.93 Q746.384 1308.93 752.496 1318.14 Q758.653 1327.31 758.653 1344.81 Q758.653 1362.26 752.496 1371.47 Q746.384 1380.64 734.764 1380.64 Q723.144 1380.64 716.986 1371.47 Q710.875 1362.26 710.875 1344.81 Q710.875 1327.31 716.986 1318.14 Q723.144 1308.93 734.764 1308.93 Z" fill="#000000" fill-rule="nonzero" fill-opacity="1" /><path clip-path="url(#clip210)" d="M795.088 1316.33 Q787.866 1316.33 784.208 1323.46 Q780.597 1330.55 780.597 1344.81 Q780.597 1359.02 784.208 1366.15 Q787.866 1373.23 795.088 1373.23 Q802.356 1373.23 805.967 1366.15 Q809.625 1359.02 809.625 1344.81 Q809.625 1330.55 805.967 1323.46 Q802.356 1316.33 795.088 1316.33 M795.088 1308.93 Q806.708 1308.93 812.819 1318.14 Q818.977 1327.31 818.977 1344.81 Q818.977 1362.26 812.819 1371.47 Q806.708 1380.64 795.088 1380.64 Q783.468 1380.64 777.31 1371.47 Q771.199 1362.26 771.199 1344.81 Q771.199 1327.31 777.31 1318.14 Q783.468 1308.93 795.088 1308.93 Z" fill="#000000" fill-rule="nonzero" fill-opacity="1" /><path clip-path="url(#clip210)" d="M920.231 1316.33 Q913.008 1316.33 909.351 1323.46 Q905.74 1330.55 905.74 1344.81 Q905.74 1359.02 909.351 1366.15 Q913.008 1373.23 920.231 1373.23 Q927.499 1373.23 931.11 1366.15 Q934.768 1359.02 934.768 1344.81 Q934.768 1330.55 931.11 1323.46 Q927.499 1316.33 920.231 1316.33 M920.231 1308.93 Q931.851 1308.93 937.962 1318.14 Q944.119 1327.31 944.119 1344.81 Q944.119 1362.26 937.962 1371.47 Q931.851 1380.64 920.231 1380.64 Q908.61 1380.64 902.453 1371.47 Q896.342 1362.26 896.342 1344.81 Q896.342 1327.31 902.453 1318.14 Q908.61 1308.93 920.231 1308.93 Z" fill="#000000" fill-rule="nonzero" fill-opacity="1" /><path clip-path="url(#clip210)" d="M960.555 1367.54 L970.323 1367.54 L970.323 1379.3 L960.555 1379.3 L960.555 1367.54 Z" fill="#000000" fill-rule="nonzero" fill-opacity="1" /><path clip-path="url(#clip210)" d="M998.749 1371.43 L1031.39 1371.43 L1031.39 1379.3 L987.499 1379.3 L987.499 1371.43 Q992.823 1365.92 1001.99 1356.66 Q1011.2 1347.35 1013.56 1344.67 Q1018.05 1339.62 1019.81 1336.15 Q1021.62 1332.63 1021.62 1329.25 Q1021.62 1323.74 1017.73 1320.27 Q1013.89 1316.8 1007.68 1316.8 Q1003.29 1316.8 998.378 1318.32 Q993.517 1319.85 987.962 1322.95 L987.962 1313.51 Q993.61 1311.24 998.517 1310.08 Q1003.42 1308.93 1007.5 1308.93 Q1018.24 1308.93 1024.63 1314.3 Q1031.02 1319.67 1031.02 1328.65 Q1031.02 1332.91 1029.4 1336.75 Q1027.82 1340.55 1023.61 1345.73 Q1022.45 1347.07 1016.25 1353.51 Q1010.04 1359.9 998.749 1371.43 Z" fill="#000000" fill-rule="nonzero" fill-opacity="1" /><path clip-path="url(#clip210)" d="M1051.11 1310.18 L1087.82 1310.18 L1087.82 1318.05 L1059.67 1318.05 L1059.67 1334.99 Q1061.71 1334.3 1063.75 1333.97 Q1065.79 1333.6 1067.82 1333.6 Q1079.4 1333.6 1086.16 1339.94 Q1092.91 1346.29 1092.91 1357.12 Q1092.91 1368.28 1085.97 1374.48 Q1079.03 1380.64 1066.39 1380.64 Q1062.04 1380.64 1057.5 1379.9 Q1053.01 1379.16 1048.19 1377.68 L1048.19 1368.28 Q1052.36 1370.55 1056.8 1371.66 Q1061.25 1372.77 1066.2 1372.77 Q1074.21 1372.77 1078.89 1368.56 Q1083.56 1364.34 1083.56 1357.12 Q1083.56 1349.9 1078.89 1345.68 Q1074.21 1341.47 1066.2 1341.47 Q1062.45 1341.47 1058.7 1342.31 Q1055 1343.14 1051.11 1344.9 L1051.11 1310.18 Z" fill="#000000" fill-rule="nonzero" fill-opacity="1" /><path clip-path="url(#clip210)" d="M1194.17 1316.33 Q1186.95 1316.33 1183.29 1323.46 Q1179.68 1330.55 1179.68 1344.81 Q1179.68 1359.02 1183.29 1366.15 Q1186.95 1373.23 1194.17 1373.23 Q1201.44 1373.23 1205.05 1366.15 Q1208.71 1359.02 1208.71 1344.81 Q1208.71 1330.55 1205.05 1323.46 Q1201.44 1316.33 1194.17 1316.33 M1194.17 1308.93 Q1205.79 1308.93 1211.9 1318.14 Q1218.06 1327.31 1218.06 1344.81 Q1218.06 1362.26 1211.9 1371.47 Q1205.79 1380.64 1194.17 1380.64 Q1182.55 1380.64 1176.39 1371.47 Q1170.28 1362.26 1170.28 1344.81 Q1170.28 1327.31 1176.39 1318.14 Q1182.55 1308.93 1194.17 1308.93 Z" fill="#000000" fill-rule="nonzero" fill-opacity="1" /><path clip-path="url(#clip210)" d="M1234.49 1367.54 L1244.26 1367.54 L1244.26 1379.3 L1234.49 1379.3 L1234.49 1367.54 Z" fill="#000000" fill-rule="nonzero" fill-opacity="1" /><path clip-path="url(#clip210)" d="M1264.72 1310.18 L1301.44 1310.18 L1301.44 1318.05 L1273.29 1318.05 L1273.29 1334.99 Q1275.33 1334.3 1277.36 1333.97 Q1279.4 1333.6 1281.44 1333.6 Q1293.01 1333.6 1299.77 1339.94 Q1306.53 1346.29 1306.53 1357.12 Q1306.53 1368.28 1299.58 1374.48 Q1292.64 1380.64 1280 1380.64 Q1275.65 1380.64 1271.11 1379.9 Q1266.62 1379.16 1261.81 1377.68 L1261.81 1368.28 Q1265.97 1370.55 1270.42 1371.66 Q1274.86 1372.77 1279.82 1372.77 Q1287.83 1372.77 1292.5 1368.56 Q1297.18 1364.34 1297.18 1357.12 Q1297.18 1349.9 1292.5 1345.68 Q1287.83 1341.47 1279.82 1341.47 Q1276.07 1341.47 1272.32 1342.31 Q1268.61 1343.14 1264.72 1344.9 L1264.72 1310.18 Z" fill="#000000" fill-rule="nonzero" fill-opacity="1" /><path clip-path="url(#clip210)" d="M1344.96 1316.33 Q1337.73 1316.33 1334.08 1323.46 Q1330.46 1330.55 1330.46 1344.81 Q1330.46 1359.02 1334.08 1366.15 Q1337.73 1373.23 1344.96 1373.23 Q1352.22 1373.23 1355.83 1366.15 Q1359.49 1359.02 1359.49 1344.81 Q1359.49 1330.55 1355.83 1323.46 Q1352.22 1316.33 1344.96 1316.33 M1344.96 1308.93 Q1356.58 1308.93 1362.69 1318.14 Q1368.84 1327.31 1368.84 1344.81 Q1368.84 1362.26 1362.69 1371.47 Q1356.58 1380.64 1344.96 1380.64 Q1333.33 1380.64 1327.18 1371.47 Q1321.07 1362.26 1321.07 1344.81 Q1321.07 1327.31 1327.18 1318.14 Q1333.33 1308.93 1344.96 1308.93 Z" fill="#000000" fill-rule="nonzero" fill-opacity="1" /><path clip-path="url(#clip210)" d="M1470.1 1316.33 Q1462.88 1316.33 1459.22 1323.46 Q1455.61 1330.55 1455.61 1344.81 Q1455.61 1359.02 1459.22 1366.15 Q1462.88 1373.23 1470.1 1373.23 Q1477.37 1373.23 1480.98 1366.15 Q1484.63 1359.02 1484.63 1344.81 Q1484.63 1330.55 1480.98 1323.46 Q1477.37 1316.33 1470.1 1316.33 M1470.1 1308.93 Q1481.72 1308.93 1487.83 1318.14 Q1493.99 1327.31 1493.99 1344.81 Q1493.99 1362.26 1487.83 1371.47 Q1481.72 1380.64 1470.1 1380.64 Q1458.48 1380.64 1452.32 1371.47 Q1446.21 1362.26 1446.21 1344.81 Q1446.21 1327.31 1452.32 1318.14 Q1458.48 1308.93 1470.1 1308.93 Z" fill="#000000" fill-rule="nonzero" fill-opacity="1" /><path clip-path="url(#clip210)" d="M1510.42 1367.54 L1520.19 1367.54 L1520.19 1379.3 L1510.42 1379.3 L1510.42 1367.54 Z" fill="#000000" fill-rule="nonzero" fill-opacity="1" /><path clip-path="url(#clip210)" d="M1538.2 1310.18 L1582.64 1310.18 L1582.64 1314.16 L1557.55 1379.3 L1547.78 1379.3 L1571.39 1318.05 L1538.2 1318.05 L1538.2 1310.18 Z" fill="#000000" fill-rule="nonzero" fill-opacity="1" /><path clip-path="url(#clip210)" d="M1600.98 1310.18 L1637.69 1310.18 L1637.69 1318.05 L1609.54 1318.05 L1609.54 1334.99 Q1611.58 1334.3 1613.62 1333.97 Q1615.65 1333.6 1617.69 1333.6 Q1629.26 1333.6 1636.02 1339.94 Q1642.78 1346.29 1642.78 1357.12 Q1642.78 1368.28 1635.84 1374.48 Q1628.89 1380.64 1616.25 1380.64 Q1611.9 1380.64 1607.37 1379.9 Q1602.87 1379.16 1598.06 1377.68 L1598.06 1368.28 Q1602.23 1370.55 1606.67 1371.66 Q1611.12 1372.77 1616.07 1372.77 Q1624.08 1372.77 1628.75 1368.56 Q1633.43 1364.34 1633.43 1357.12 Q1633.43 1349.9 1628.75 1345.68 Q1624.08 1341.47 1616.07 1341.47 Q1612.32 1341.47 1608.57 1342.31 Q1604.87 1343.14 1600.98 1344.9 L1600.98 1310.18 Z" fill="#000000" fill-rule="nonzero" fill-opacity="1" /><path clip-path="url(#clip210)" d="M1723.57 1371.43 L1738.85 1371.43 L1738.85 1318.69 L1722.23 1322.03 L1722.23 1313.51 L1738.76 1310.18 L1748.11 1310.18 L1748.11 1371.43 L1763.39 1371.43 L1763.39 1379.3 L1723.57 1379.3 L1723.57 1371.43 Z" fill="#000000" fill-rule="nonzero" fill-opacity="1" /><path clip-path="url(#clip210)" d="M1782.28 1367.54 L1792.05 1367.54 L1792.05 1379.3 L1782.28 1379.3 L1782.28 1367.54 Z" fill="#000000" fill-rule="nonzero" fill-opacity="1" /><path clip-path="url(#clip210)" d="M1832.42 1316.33 Q1825.19 1316.33 1821.54 1323.46 Q1817.92 1330.55 1817.92 1344.81 Q1817.92 1359.02 1821.54 1366.15 Q1825.19 1373.23 1832.42 1373.23 Q1839.68 1373.23 1843.29 1366.15 Q1846.95 1359.02 1846.95 1344.81 Q1846.95 1330.55 1843.29 1323.46 Q1839.68 1316.33 1832.42 1316.33 M1832.42 1308.93 Q1844.04 1308.93 1850.15 1318.14 Q1856.3 1327.31 1856.3 1344.81 Q1856.3 1362.26 1850.15 1371.47 Q1844.04 1380.64 1832.42 1380.64 Q1820.79 1380.64 1814.64 1371.47 Q1808.53 1362.26 1808.53 1344.81 Q1808.53 1327.31 1814.64 1318.14 Q1820.79 1308.93 1832.42 1308.93 Z" fill="#000000" fill-rule="nonzero" fill-opacity="1" /><path clip-path="url(#clip210)" d="M1892.74 1316.33 Q1885.52 1316.33 1881.86 1323.46 Q1878.25 1330.55 1878.25 1344.81 Q1878.25 1359.02 1881.86 1366.15 Q1885.52 1373.23 1892.74 1373.23 Q1900.01 1373.23 1903.62 1366.15 Q1907.28 1359.02 1907.28 1344.81 Q1907.28 1330.55 1903.62 1323.46 Q1900.01 1316.33 1892.74 1316.33 M1892.74 1308.93 Q1904.36 1308.93 1910.47 1318.14 Q1916.63 1327.31 1916.63 1344.81 Q1916.63 1362.26 1910.47 1371.47 Q1904.36 1380.64 1892.74 1380.64 Q1881.12 1380.64 1874.96 1371.47 Q1868.85 1362.26 1868.85 1344.81 Q1868.85 1327.31 1874.96 1318.14 Q1881.12 1308.93 1892.74 1308.93 Z" fill="#000000" fill-rule="nonzero" fill-opacity="1" /><path clip-path="url(#clip210)" d="M1999.5 1371.43 L2014.78 1371.43 L2014.78 1318.69 L1998.16 1322.03 L1998.16 1313.51 L2014.69 1310.18 L2024.04 1310.18 L2024.04 1371.43 L2039.32 1371.43 L2039.32 1379.3 L1999.5 1379.3 L1999.5 1371.43 Z" fill="#000000" fill-rule="nonzero" fill-opacity="1" /><path clip-path="url(#clip210)" d="M2058.21 1367.54 L2067.97 1367.54 L2067.97 1379.3 L2058.21 1379.3 L2058.21 1367.54 Z" fill="#000000" fill-rule="nonzero" fill-opacity="1" /><path clip-path="url(#clip210)" d="M2096.4 1371.43 L2129.04 1371.43 L2129.04 1379.3 L2085.15 1379.3 L2085.15 1371.43 Q2090.47 1365.92 2099.64 1356.66 Q2108.85 1347.35 2111.21 1344.67 Q2115.71 1339.62 2117.46 1336.15 Q2119.27 1332.63 2119.27 1329.25 Q2119.27 1323.74 2115.38 1320.27 Q2111.54 1316.8 2105.33 1316.8 Q2100.94 1316.8 2096.03 1318.32 Q2091.17 1319.85 2085.61 1322.95 L2085.61 1313.51 Q2091.26 1311.24 2096.17 1310.08 Q2101.08 1308.93 2105.15 1308.93 Q2115.89 1308.93 2122.28 1314.3 Q2128.67 1319.67 2128.67 1328.65 Q2128.67 1332.91 2127.05 1336.75 Q2125.47 1340.55 2121.26 1345.73 Q2120.1 1347.07 2113.9 1353.51 Q2107.7 1359.9 2096.4 1371.43 Z" fill="#000000" fill-rule="nonzero" fill-opacity="1" /><path clip-path="url(#clip210)" d="M2148.76 1310.18 L2185.47 1310.18 L2185.47 1318.05 L2157.33 1318.05 L2157.33 1334.99 Q2159.36 1334.3 2161.4 1333.97 Q2163.44 1333.6 2165.47 1333.6 Q2177.05 1333.6 2183.81 1339.94 Q2190.57 1346.29 2190.57 1357.12 Q2190.57 1368.28 2183.62 1374.48 Q2176.68 1380.64 2164.04 1380.64 Q2159.69 1380.64 2155.15 1379.9 Q2150.66 1379.16 2145.84 1377.68 L2145.84 1368.28 Q2150.01 1370.55 2154.46 1371.66 Q2158.9 1372.77 2163.85 1372.77 Q2171.86 1372.77 2176.54 1368.56 Q2181.21 1364.34 2181.21 1357.12 Q2181.21 1349.9 2176.54 1345.68 Q2171.86 1341.47 2163.85 1341.47 Q2160.1 1341.47 2156.35 1342.31 Q2152.65 1343.14 2148.76 1344.9 L2148.76 1310.18 Z" fill="#000000" fill-rule="nonzero" fill-opacity="1" /><path clip-path="url(#clip210)" d="M1375.05 1484.39 L1375.05 1527.42 L1363.34 1527.42 L1363.34 1484.77 Q1363.34 1474.65 1359.39 1469.62 Q1355.45 1464.59 1347.55 1464.59 Q1338.07 1464.59 1332.59 1470.64 Q1327.12 1476.69 1327.12 1487.13 L1327.12 1527.42 L1315.34 1527.42 L1315.34 1428.37 L1327.12 1428.37 L1327.12 1467.2 Q1331.32 1460.77 1336.99 1457.59 Q1342.72 1454.41 1350.16 1454.41 Q1362.45 1454.41 1368.75 1462.05 Q1375.05 1469.62 1375.05 1484.39 Z" fill="#000000" fill-rule="nonzero" fill-opacity="1" /><path clip-path="url(#clip210)" d="M1426.04 1464.34 Q1416.62 1464.34 1411.15 1471.72 Q1405.67 1479.04 1405.67 1491.84 Q1405.67 1504.63 1411.08 1512.02 Q1416.56 1519.34 1426.04 1519.34 Q1435.4 1519.34 1440.87 1511.96 Q1446.35 1504.57 1446.35 1491.84 Q1446.35 1479.17 1440.87 1471.79 Q1435.4 1464.34 1426.04 1464.34 M1426.04 1454.41 Q1441.32 1454.41 1450.04 1464.34 Q1458.76 1474.27 1458.76 1491.84 Q1458.76 1509.35 1450.04 1519.34 Q1441.32 1529.27 1426.04 1529.27 Q1410.7 1529.27 1401.98 1519.34 Q1393.32 1509.35 1393.32 1491.84 Q1393.32 1474.27 1401.98 1464.34 Q1410.7 1454.41 1426.04 1454.41 Z" fill="#000000" fill-rule="nonzero" fill-opacity="1" /><path clip-path="url(#clip210)" d="M1476.97 1499.29 L1476.97 1456.13 L1488.68 1456.13 L1488.68 1498.84 Q1488.68 1508.96 1492.63 1514.06 Q1496.57 1519.08 1504.47 1519.08 Q1513.95 1519.08 1519.43 1513.04 Q1524.97 1506.99 1524.97 1496.55 L1524.97 1456.13 L1536.68 1456.13 L1536.68 1527.42 L1524.97 1527.42 L1524.97 1516.47 Q1520.7 1522.97 1515.04 1526.15 Q1509.43 1529.27 1501.99 1529.27 Q1489.7 1529.27 1483.33 1521.63 Q1476.97 1513.99 1476.97 1499.29 M1506.44 1454.41 L1506.44 1454.41 Z" fill="#000000" fill-rule="nonzero" fill-opacity="1" /><path clip-path="url(#clip210)" d="M1602.12 1467.08 Q1600.14 1465.93 1597.79 1465.42 Q1595.5 1464.85 1592.7 1464.85 Q1582.77 1464.85 1577.42 1471.34 Q1572.14 1477.77 1572.14 1489.87 L1572.14 1527.42 L1560.36 1527.42 L1560.36 1456.13 L1572.14 1456.13 L1572.14 1467.2 Q1575.83 1460.71 1581.75 1457.59 Q1587.67 1454.41 1596.13 1454.41 Q1597.34 1454.41 1598.81 1454.6 Q1600.27 1454.73 1602.05 1455.05 L1602.12 1467.08 Z" fill="#000000" fill-rule="nonzero" fill-opacity="1" /><path clip-path="url(#clip210)" d="M1659.86 1458.23 L1659.86 1469.3 Q1654.89 1466.76 1649.54 1465.49 Q1644.2 1464.21 1638.47 1464.21 Q1629.75 1464.21 1625.35 1466.89 Q1621.02 1469.56 1621.02 1474.91 Q1621.02 1478.98 1624.14 1481.34 Q1627.26 1483.63 1636.68 1485.73 L1640.69 1486.62 Q1653.17 1489.29 1658.39 1494.19 Q1663.67 1499.03 1663.67 1507.75 Q1663.67 1517.68 1655.78 1523.48 Q1647.95 1529.27 1634.2 1529.27 Q1628.47 1529.27 1622.23 1528.12 Q1616.06 1527.04 1609.18 1524.81 L1609.18 1512.72 Q1615.68 1516.09 1621.98 1517.81 Q1628.28 1519.47 1634.46 1519.47 Q1642.73 1519.47 1647.19 1516.67 Q1651.64 1513.8 1651.64 1508.64 Q1651.64 1503.87 1648.4 1501.32 Q1645.21 1498.78 1634.33 1496.42 L1630.25 1495.47 Q1619.37 1493.18 1614.53 1488.47 Q1609.69 1483.69 1609.69 1475.42 Q1609.69 1465.36 1616.82 1459.88 Q1623.95 1454.41 1637.07 1454.41 Q1643.56 1454.41 1649.29 1455.36 Q1655.02 1456.32 1659.86 1458.23 Z" fill="#000000" fill-rule="nonzero" fill-opacity="1" /><polyline clip-path="url(#clip212)" style="stroke:#000000; stroke-linecap:round; stroke-linejoin:round; stroke-width:4; stroke-opacity:0.1; fill:none" points="673.506,1184.98 2305.51,1184.98 "/>
<polyline clip-path="url(#clip212)" style="stroke:#000000; stroke-linecap:round; stroke-linejoin:round; stroke-width:4; stroke-opacity:0.1; fill:none" points="673.506,1000 2305.51,1000 "/>
<polyline clip-path="url(#clip212)" style="stroke:#000000; stroke-linecap:round; stroke-linejoin:round; stroke-width:4; stroke-opacity:0.1; fill:none" points="673.506,815.023 2305.51,815.023 "/>
<polyline clip-path="url(#clip212)" style="stroke:#000000; stroke-linecap:round; stroke-linejoin:round; stroke-width:4; stroke-opacity:0.1; fill:none" points="673.506,630.043 2305.51,630.043 "/>
<polyline clip-path="url(#clip212)" style="stroke:#000000; stroke-linecap:round; stroke-linejoin:round; stroke-width:4; stroke-opacity:0.1; fill:none" points="673.506,445.063 2305.51,445.063 "/>
<polyline clip-path="url(#clip212)" style="stroke:#000000; stroke-linecap:round; stroke-linejoin:round; stroke-width:4; stroke-opacity:0.1; fill:none" points="673.506,260.083 2305.51,260.083 "/>
<polyline clip-path="url(#clip210)" style="stroke:#000000; stroke-linecap:round; stroke-linejoin:round; stroke-width:8; stroke-opacity:1; fill:none" points="673.506,1273.7 673.506,94.4882 "/>
<polyline clip-path="url(#clip210)" style="stroke:#000000; stroke-linecap:round; stroke-linejoin:round; stroke-width:8; stroke-opacity:1; fill:none" points="673.506,1184.98 692.404,1184.98 "/>
<polyline clip-path="url(#clip210)" style="stroke:#000000; stroke-linecap:round; stroke-linejoin:round; stroke-width:8; stroke-opacity:1; fill:none" points="673.506,1000 692.404,1000 "/>
<polyline clip-path="url(#clip210)" style="stroke:#000000; stroke-linecap:round; stroke-linejoin:round; stroke-width:8; stroke-opacity:1; fill:none" points="673.506,815.023 692.404,815.023 "/>
<polyline clip-path="url(#clip210)" style="stroke:#000000; stroke-linecap:round; stroke-linejoin:round; stroke-width:8; stroke-opacity:1; fill:none" points="673.506,630.043 692.404,630.043 "/>
<polyline clip-path="url(#clip210)" style="stroke:#000000; stroke-linecap:round; stroke-linejoin:round; stroke-width:8; stroke-opacity:1; fill:none" points="673.506,445.063 692.404,445.063 "/>
<polyline clip-path="url(#clip210)" style="stroke:#000000; stroke-linecap:round; stroke-linejoin:round; stroke-width:8; stroke-opacity:1; fill:none" points="673.506,260.083 692.404,260.083 "/>
<path clip-path="url(#clip210)" d="M384.128 1211.67 L399.405 1211.67 L399.405 1158.94 L382.785 1162.28 L382.785 1153.76 L399.313 1150.42 L408.665 1150.42 L408.665 1211.67 L423.942 1211.67 L423.942 1219.54 L384.128 1219.54 L384.128 1211.67 Z" fill="#000000" fill-rule="nonzero" fill-opacity="1" /><path clip-path="url(#clip210)" d="M468.525 1158.57 L444.914 1195.47 L468.525 1195.47 L468.525 1158.57 M466.072 1150.42 L477.831 1150.42 L477.831 1195.47 L487.692 1195.47 L487.692 1203.25 L477.831 1203.25 L477.831 1219.54 L468.525 1219.54 L468.525 1203.25 L437.322 1203.25 L437.322 1194.22 L466.072 1150.42 Z" fill="#000000" fill-rule="nonzero" fill-opacity="1" /><path clip-path="url(#clip210)" d="M523.155 1156.58 Q515.933 1156.58 512.275 1163.71 Q508.664 1170.79 508.664 1185.05 Q508.664 1199.27 512.275 1206.4 Q515.933 1213.48 523.155 1213.48 Q530.423 1213.48 534.034 1206.4 Q537.692 1199.27 537.692 1185.05 Q537.692 1170.79 534.034 1163.71 Q530.423 1156.58 523.155 1156.58 M523.155 1149.17 Q534.775 1149.17 540.886 1158.39 Q547.043 1167.55 547.043 1185.05 Q547.043 1202.51 540.886 1211.72 Q534.775 1220.89 523.155 1220.89 Q511.534 1220.89 505.377 1211.72 Q499.266 1202.51 499.266 1185.05 Q499.266 1167.55 505.377 1158.39 Q511.534 1149.17 523.155 1149.17 Z" fill="#000000" fill-rule="nonzero" fill-opacity="1" /><path clip-path="url(#clip210)" d="M563.479 1207.78 L573.247 1207.78 L573.247 1219.54 L563.479 1219.54 L563.479 1207.78 Z" fill="#000000" fill-rule="nonzero" fill-opacity="1" /><path clip-path="url(#clip210)" d="M613.617 1156.58 Q606.395 1156.58 602.738 1163.71 Q599.127 1170.79 599.127 1185.05 Q599.127 1199.27 602.738 1206.4 Q606.395 1213.48 613.617 1213.48 Q620.886 1213.48 624.497 1206.4 Q628.154 1199.27 628.154 1185.05 Q628.154 1170.79 624.497 1163.71 Q620.886 1156.58 613.617 1156.58 M613.617 1149.17 Q625.238 1149.17 631.349 1158.39 Q637.506 1167.55 637.506 1185.05 Q637.506 1202.51 631.349 1211.72 Q625.238 1220.89 613.617 1220.89 Q601.997 1220.89 595.84 1211.72 Q589.728 1202.51 589.728 1185.05 Q589.728 1167.55 595.84 1158.39 Q601.997 1149.17 613.617 1149.17 Z" fill="#000000" fill-rule="nonzero" fill-opacity="1" /><path clip-path="url(#clip210)" d="M384.128 1026.69 L399.405 1026.69 L399.405 973.962 L382.785 977.295 L382.785 968.777 L399.313 965.443 L408.665 965.443 L408.665 1026.69 L423.942 1026.69 L423.942 1034.56 L384.128 1034.56 L384.128 1026.69 Z" fill="#000000" fill-rule="nonzero" fill-opacity="1" /><path clip-path="url(#clip210)" d="M442.924 965.443 L479.636 965.443 L479.636 973.314 L451.488 973.314 L451.488 990.258 Q453.525 989.564 455.562 989.24 Q457.6 988.869 459.637 988.869 Q471.211 988.869 477.97 995.212 Q484.729 1001.55 484.729 1012.39 Q484.729 1023.54 477.785 1029.75 Q470.84 1035.91 458.201 1035.91 Q453.85 1035.91 449.313 1035.17 Q444.822 1034.42 440.007 1032.94 L440.007 1023.54 Q444.174 1025.81 448.618 1026.92 Q453.063 1028.04 458.016 1028.04 Q466.025 1028.04 470.701 1023.82 Q475.377 1019.61 475.377 1012.39 Q475.377 1005.17 470.701 1000.95 Q466.025 996.74 458.016 996.74 Q454.266 996.74 450.516 997.573 Q446.813 998.406 442.924 1000.17 L442.924 965.443 Z" fill="#000000" fill-rule="nonzero" fill-opacity="1" /><path clip-path="url(#clip210)" d="M523.155 971.601 Q515.933 971.601 512.275 978.73 Q508.664 985.814 508.664 1000.07 Q508.664 1014.29 512.275 1021.42 Q515.933 1028.5 523.155 1028.5 Q530.423 1028.5 534.034 1021.42 Q537.692 1014.29 537.692 1000.07 Q537.692 985.814 534.034 978.73 Q530.423 971.601 523.155 971.601 M523.155 964.193 Q534.775 964.193 540.886 973.406 Q547.043 982.573 547.043 1000.07 Q547.043 1017.53 540.886 1026.74 Q534.775 1035.91 523.155 1035.91 Q511.534 1035.91 505.377 1026.74 Q499.266 1017.53 499.266 1000.07 Q499.266 982.573 505.377 973.406 Q511.534 964.193 523.155 964.193 Z" fill="#000000" fill-rule="nonzero" fill-opacity="1" /><path clip-path="url(#clip210)" d="M563.479 1022.8 L573.247 1022.8 L573.247 1034.56 L563.479 1034.56 L563.479 1022.8 Z" fill="#000000" fill-rule="nonzero" fill-opacity="1" /><path clip-path="url(#clip210)" d="M613.617 971.601 Q606.395 971.601 602.738 978.73 Q599.127 985.814 599.127 1000.07 Q599.127 1014.29 602.738 1021.42 Q606.395 1028.5 613.617 1028.5 Q620.886 1028.5 624.497 1021.42 Q628.154 1014.29 628.154 1000.07 Q628.154 985.814 624.497 978.73 Q620.886 971.601 613.617 971.601 M613.617 964.193 Q625.238 964.193 631.349 973.406 Q637.506 982.573 637.506 1000.07 Q637.506 1017.53 631.349 1026.74 Q625.238 1035.91 613.617 1035.91 Q601.997 1035.91 595.84 1026.74 Q589.728 1017.53 589.728 1000.07 Q589.728 982.573 595.84 973.406 Q601.997 964.193 613.617 964.193 Z" fill="#000000" fill-rule="nonzero" fill-opacity="1" /><path clip-path="url(#clip210)" d="M384.128 841.713 L399.405 841.713 L399.405 788.982 L382.785 792.315 L382.785 783.797 L399.313 780.463 L408.665 780.463 L408.665 841.713 L423.942 841.713 L423.942 849.583 L384.128 849.583 L384.128 841.713 Z" fill="#000000" fill-rule="nonzero" fill-opacity="1" /><path clip-path="url(#clip210)" d="M463.988 811.297 Q457.692 811.297 453.988 815.602 Q450.331 819.908 450.331 827.408 Q450.331 834.861 453.988 839.213 Q457.692 843.519 463.988 843.519 Q470.285 843.519 473.942 839.213 Q477.646 834.861 477.646 827.408 Q477.646 819.908 473.942 815.602 Q470.285 811.297 463.988 811.297 M482.553 781.991 L482.553 790.51 Q479.035 788.843 475.424 787.963 Q471.859 787.084 468.34 787.084 Q459.081 787.084 454.174 793.334 Q449.313 799.584 448.618 812.222 Q451.35 808.195 455.47 806.065 Q459.59 803.889 464.544 803.889 Q474.961 803.889 480.979 810.232 Q487.044 816.528 487.044 827.408 Q487.044 838.056 480.748 844.491 Q474.451 850.926 463.988 850.926 Q451.998 850.926 445.655 841.759 Q439.313 832.546 439.313 815.093 Q439.313 798.704 447.09 788.982 Q454.868 779.213 467.97 779.213 Q471.488 779.213 475.053 779.908 Q478.664 780.602 482.553 781.991 Z" fill="#000000" fill-rule="nonzero" fill-opacity="1" /><path clip-path="url(#clip210)" d="M523.155 786.621 Q515.933 786.621 512.275 793.75 Q508.664 800.834 508.664 815.093 Q508.664 829.306 512.275 836.435 Q515.933 843.519 523.155 843.519 Q530.423 843.519 534.034 836.435 Q537.692 829.306 537.692 815.093 Q537.692 800.834 534.034 793.75 Q530.423 786.621 523.155 786.621 M523.155 779.213 Q534.775 779.213 540.886 788.426 Q547.043 797.593 547.043 815.093 Q547.043 832.546 540.886 841.759 Q534.775 850.926 523.155 850.926 Q511.534 850.926 505.377 841.759 Q499.266 832.546 499.266 815.093 Q499.266 797.593 505.377 788.426 Q511.534 779.213 523.155 779.213 Z" fill="#000000" fill-rule="nonzero" fill-opacity="1" /><path clip-path="url(#clip210)" d="M563.479 837.824 L573.247 837.824 L573.247 849.583 L563.479 849.583 L563.479 837.824 Z" fill="#000000" fill-rule="nonzero" fill-opacity="1" /><path clip-path="url(#clip210)" d="M613.617 786.621 Q606.395 786.621 602.738 793.75 Q599.127 800.834 599.127 815.093 Q599.127 829.306 602.738 836.435 Q606.395 843.519 613.617 843.519 Q620.886 843.519 624.497 836.435 Q628.154 829.306 628.154 815.093 Q628.154 800.834 624.497 793.75 Q620.886 786.621 613.617 786.621 M613.617 779.213 Q625.238 779.213 631.349 788.426 Q637.506 797.593 637.506 815.093 Q637.506 832.546 631.349 841.759 Q625.238 850.926 613.617 850.926 Q601.997 850.926 595.84 841.759 Q589.728 832.546 589.728 815.093 Q589.728 797.593 595.84 788.426 Q601.997 779.213 613.617 779.213 Z" fill="#000000" fill-rule="nonzero" fill-opacity="1" /><path clip-path="url(#clip210)" d="M384.128 656.733 L399.405 656.733 L399.405 604.002 L382.785 607.335 L382.785 598.817 L399.313 595.483 L408.665 595.483 L408.665 656.733 L423.942 656.733 L423.942 664.603 L384.128 664.603 L384.128 656.733 Z" fill="#000000" fill-rule="nonzero" fill-opacity="1" /><path clip-path="url(#clip210)" d="M440.47 595.483 L484.914 595.483 L484.914 599.465 L459.822 664.603 L450.053 664.603 L473.664 603.354 L440.47 603.354 L440.47 595.483 Z" fill="#000000" fill-rule="nonzero" fill-opacity="1" /><path clip-path="url(#clip210)" d="M523.155 601.641 Q515.933 601.641 512.275 608.77 Q508.664 615.854 508.664 630.113 Q508.664 644.326 512.275 651.455 Q515.933 658.539 523.155 658.539 Q530.423 658.539 534.034 651.455 Q537.692 644.326 537.692 630.113 Q537.692 615.854 534.034 608.77 Q530.423 601.641 523.155 601.641 M523.155 594.233 Q534.775 594.233 540.886 603.446 Q547.043 612.613 547.043 630.113 Q547.043 647.566 540.886 656.779 Q534.775 665.946 523.155 665.946 Q511.534 665.946 505.377 656.779 Q499.266 647.566 499.266 630.113 Q499.266 612.613 505.377 603.446 Q511.534 594.233 523.155 594.233 Z" fill="#000000" fill-rule="nonzero" fill-opacity="1" /><path clip-path="url(#clip210)" d="M563.479 652.844 L573.247 652.844 L573.247 664.603 L563.479 664.603 L563.479 652.844 Z" fill="#000000" fill-rule="nonzero" fill-opacity="1" /><path clip-path="url(#clip210)" d="M613.617 601.641 Q606.395 601.641 602.738 608.77 Q599.127 615.854 599.127 630.113 Q599.127 644.326 602.738 651.455 Q606.395 658.539 613.617 658.539 Q620.886 658.539 624.497 651.455 Q628.154 644.326 628.154 630.113 Q628.154 615.854 624.497 608.77 Q620.886 601.641 613.617 601.641 M613.617 594.233 Q625.238 594.233 631.349 603.446 Q637.506 612.613 637.506 630.113 Q637.506 647.566 631.349 656.779 Q625.238 665.946 613.617 665.946 Q601.997 665.946 595.84 656.779 Q589.728 647.566 589.728 630.113 Q589.728 612.613 595.84 603.446 Q601.997 594.233 613.617 594.233 Z" fill="#000000" fill-rule="nonzero" fill-opacity="1" /><path clip-path="url(#clip210)" d="M384.128 471.753 L399.405 471.753 L399.405 419.022 L382.785 422.355 L382.785 413.837 L399.313 410.503 L408.665 410.503 L408.665 471.753 L423.942 471.753 L423.942 479.623 L384.128 479.623 L384.128 471.753 Z" fill="#000000" fill-rule="nonzero" fill-opacity="1" /><path clip-path="url(#clip210)" d="M462.831 446.799 Q456.164 446.799 452.322 450.364 Q448.525 453.929 448.525 460.179 Q448.525 466.429 452.322 469.994 Q456.164 473.559 462.831 473.559 Q469.498 473.559 473.34 469.994 Q477.183 466.383 477.183 460.179 Q477.183 453.929 473.34 450.364 Q469.544 446.799 462.831 446.799 M453.479 442.818 Q447.461 441.336 444.081 437.216 Q440.748 433.096 440.748 427.17 Q440.748 418.883 446.627 414.068 Q452.553 409.253 462.831 409.253 Q473.155 409.253 479.035 414.068 Q484.914 418.883 484.914 427.17 Q484.914 433.096 481.535 437.216 Q478.201 441.336 472.229 442.818 Q478.988 444.392 482.738 448.975 Q486.535 453.559 486.535 460.179 Q486.535 470.225 480.377 475.596 Q474.266 480.966 462.831 480.966 Q451.396 480.966 445.238 475.596 Q439.127 470.225 439.127 460.179 Q439.127 453.559 442.924 448.975 Q446.72 444.392 453.479 442.818 M450.053 428.049 Q450.053 433.42 453.387 436.429 Q456.766 439.438 462.831 439.438 Q468.849 439.438 472.229 436.429 Q475.655 433.42 475.655 428.049 Q475.655 422.679 472.229 419.67 Q468.849 416.661 462.831 416.661 Q456.766 416.661 453.387 419.67 Q450.053 422.679 450.053 428.049 Z" fill="#000000" fill-rule="nonzero" fill-opacity="1" /><path clip-path="url(#clip210)" d="M523.155 416.661 Q515.933 416.661 512.275 423.79 Q508.664 430.874 508.664 445.133 Q508.664 459.346 512.275 466.475 Q515.933 473.559 523.155 473.559 Q530.423 473.559 534.034 466.475 Q537.692 459.346 537.692 445.133 Q537.692 430.874 534.034 423.79 Q530.423 416.661 523.155 416.661 M523.155 409.253 Q534.775 409.253 540.886 418.466 Q547.043 427.633 547.043 445.133 Q547.043 462.586 540.886 471.799 Q534.775 480.966 523.155 480.966 Q511.534 480.966 505.377 471.799 Q499.266 462.586 499.266 445.133 Q499.266 427.633 505.377 418.466 Q511.534 409.253 523.155 409.253 Z" fill="#000000" fill-rule="nonzero" fill-opacity="1" /><path clip-path="url(#clip210)" d="M563.479 467.864 L573.247 467.864 L573.247 479.623 L563.479 479.623 L563.479 467.864 Z" fill="#000000" fill-rule="nonzero" fill-opacity="1" /><path clip-path="url(#clip210)" d="M613.617 416.661 Q606.395 416.661 602.738 423.79 Q599.127 430.874 599.127 445.133 Q599.127 459.346 602.738 466.475 Q606.395 473.559 613.617 473.559 Q620.886 473.559 624.497 466.475 Q628.154 459.346 628.154 445.133 Q628.154 430.874 624.497 423.79 Q620.886 416.661 613.617 416.661 M613.617 409.253 Q625.238 409.253 631.349 418.466 Q637.506 427.633 637.506 445.133 Q637.506 462.586 631.349 471.799 Q625.238 480.966 613.617 480.966 Q601.997 480.966 595.84 471.799 Q589.728 462.586 589.728 445.133 Q589.728 427.633 595.84 418.466 Q601.997 409.253 613.617 409.253 Z" fill="#000000" fill-rule="nonzero" fill-opacity="1" /><path clip-path="url(#clip210)" d="M384.128 286.773 L399.405 286.773 L399.405 234.042 L382.785 237.375 L382.785 228.857 L399.313 225.523 L408.665 225.523 L408.665 286.773 L423.942 286.773 L423.942 294.643 L384.128 294.643 L384.128 286.773 Z" fill="#000000" fill-rule="nonzero" fill-opacity="1" /><path clip-path="url(#clip210)" d="M443.109 293.208 L443.109 284.69 Q446.627 286.356 450.238 287.236 Q453.85 288.116 457.322 288.116 Q466.581 288.116 471.442 281.912 Q476.349 275.662 477.044 262.977 Q474.359 266.958 470.238 269.088 Q466.118 271.217 461.118 271.217 Q450.748 271.217 444.683 264.967 Q438.664 258.671 438.664 247.792 Q438.664 237.144 444.961 230.708 Q451.257 224.273 461.72 224.273 Q473.711 224.273 480.007 233.486 Q486.349 242.653 486.349 260.153 Q486.349 276.495 478.572 286.264 Q470.84 295.986 457.738 295.986 Q454.22 295.986 450.609 295.291 Q446.998 294.597 443.109 293.208 M461.72 263.903 Q468.016 263.903 471.674 259.597 Q475.377 255.292 475.377 247.792 Q475.377 240.338 471.674 236.032 Q468.016 231.681 461.72 231.681 Q455.424 231.681 451.72 236.032 Q448.063 240.338 448.063 247.792 Q448.063 255.292 451.72 259.597 Q455.424 263.903 461.72 263.903 Z" fill="#000000" fill-rule="nonzero" fill-opacity="1" /><path clip-path="url(#clip210)" d="M523.155 231.681 Q515.933 231.681 512.275 238.81 Q508.664 245.894 508.664 260.153 Q508.664 274.366 512.275 281.495 Q515.933 288.578 523.155 288.578 Q530.423 288.578 534.034 281.495 Q537.692 274.366 537.692 260.153 Q537.692 245.894 534.034 238.81 Q530.423 231.681 523.155 231.681 M523.155 224.273 Q534.775 224.273 540.886 233.486 Q547.043 242.653 547.043 260.153 Q547.043 277.606 540.886 286.819 Q534.775 295.986 523.155 295.986 Q511.534 295.986 505.377 286.819 Q499.266 277.606 499.266 260.153 Q499.266 242.653 505.377 233.486 Q511.534 224.273 523.155 224.273 Z" fill="#000000" fill-rule="nonzero" fill-opacity="1" /><path clip-path="url(#clip210)" d="M563.479 282.884 L573.247 282.884 L573.247 294.643 L563.479 294.643 L563.479 282.884 Z" fill="#000000" fill-rule="nonzero" fill-opacity="1" /><path clip-path="url(#clip210)" d="M613.617 231.681 Q606.395 231.681 602.738 238.81 Q599.127 245.894 599.127 260.153 Q599.127 274.366 602.738 281.495 Q606.395 288.578 613.617 288.578 Q620.886 288.578 624.497 281.495 Q628.154 274.366 628.154 260.153 Q628.154 245.894 624.497 238.81 Q620.886 231.681 613.617 231.681 M613.617 224.273 Q625.238 224.273 631.349 233.486 Q637.506 242.653 637.506 260.153 Q637.506 277.606 631.349 286.819 Q625.238 295.986 613.617 295.986 Q601.997 295.986 595.84 286.819 Q589.728 277.606 589.728 260.153 Q589.728 242.653 595.84 233.486 Q601.997 224.273 613.617 224.273 Z" fill="#000000" fill-rule="nonzero" fill-opacity="1" /><path clip-path="url(#clip210)" d="M307.579 933.309 L345.391 933.309 L345.391 945.086 L246.977 945.086 L246.977 933.309 L257.799 933.309 Q251.433 929.617 248.378 924.015 Q245.258 918.35 245.258 910.52 Q245.258 897.534 255.571 889.45 Q265.883 881.302 282.689 881.302 Q299.494 881.302 309.807 889.45 Q320.119 897.534 320.119 910.52 Q320.119 918.35 317.064 924.015 Q313.944 929.617 307.579 933.309 M282.689 893.46 Q269.766 893.46 262.446 898.807 Q255.062 904.091 255.062 913.385 Q255.062 922.679 262.446 928.026 Q269.766 933.309 282.689 933.309 Q295.611 933.309 302.995 928.026 Q310.316 922.679 310.316 913.385 Q310.316 904.091 302.995 898.807 Q295.611 893.46 282.689 893.46 Z" fill="#000000" fill-rule="nonzero" fill-opacity="1" /><path clip-path="url(#clip210)" d="M282.434 829.485 Q282.434 843.68 285.681 849.155 Q288.927 854.629 296.757 854.629 Q302.995 854.629 306.688 850.555 Q310.316 846.417 310.316 839.352 Q310.316 829.612 303.441 823.756 Q296.502 817.835 285.044 817.835 L282.434 817.835 L282.434 829.485 M277.596 806.123 L318.273 806.123 L318.273 817.835 L307.451 817.835 Q313.944 821.846 317.064 827.83 Q320.119 833.813 320.119 842.471 Q320.119 853.42 314.008 859.913 Q307.833 866.342 297.521 866.342 Q285.49 866.342 279.379 858.321 Q273.268 850.237 273.268 834.259 L273.268 817.835 L272.122 817.835 Q264.037 817.835 259.645 823.183 Q255.189 828.466 255.189 838.078 Q255.189 844.189 256.653 849.982 Q258.117 855.775 261.045 861.122 L250.224 861.122 Q247.741 854.693 246.532 848.645 Q245.258 842.598 245.258 836.869 Q245.258 821.4 253.279 813.761 Q261.3 806.123 277.596 806.123 Z" fill="#000000" fill-rule="nonzero" fill-opacity="1" /><path clip-path="url(#clip210)" d="M257.926 740.683 Q256.78 742.656 256.271 745.012 Q255.698 747.303 255.698 750.104 Q255.698 760.035 262.191 765.382 Q268.621 770.666 280.715 770.666 L318.273 770.666 L318.273 782.442 L246.977 782.442 L246.977 770.666 L258.054 770.666 Q251.561 766.973 248.441 761.053 Q245.258 755.133 245.258 746.667 Q245.258 745.457 245.449 743.993 Q245.577 742.529 245.895 740.747 L257.926 740.683 Z" fill="#000000" fill-rule="nonzero" fill-opacity="1" /><path clip-path="url(#clip210)" d="M279.697 670.278 L285.426 670.278 L285.426 724.132 Q297.521 723.368 303.887 716.875 Q310.189 710.319 310.189 698.669 Q310.189 691.922 308.534 685.62 Q306.878 679.254 303.568 673.016 L314.645 673.016 Q317.318 679.318 318.719 685.938 Q320.119 692.558 320.119 699.37 Q320.119 716.43 310.189 726.424 Q300.258 736.354 283.325 736.354 Q265.82 736.354 255.571 726.933 Q245.258 717.448 245.258 701.407 Q245.258 687.02 254.552 678.681 Q263.783 670.278 279.697 670.278 M276.259 681.991 Q266.647 682.119 260.918 687.402 Q255.189 692.622 255.189 701.279 Q255.189 711.083 260.727 717.003 Q266.265 722.859 276.323 723.75 L276.259 681.991 Z" fill="#000000" fill-rule="nonzero" fill-opacity="1" /><path clip-path="url(#clip210)" d="M275.241 591.789 L318.273 591.789 L318.273 603.502 L275.623 603.502 Q265.501 603.502 260.472 607.449 Q255.444 611.396 255.444 619.289 Q255.444 628.774 261.491 634.248 Q267.538 639.723 277.978 639.723 L318.273 639.723 L318.273 651.5 L246.977 651.5 L246.977 639.723 L258.054 639.723 Q251.624 635.522 248.441 629.856 Q245.258 624.127 245.258 616.679 Q245.258 604.393 252.897 598.091 Q260.472 591.789 275.241 591.789 Z" fill="#000000" fill-rule="nonzero" fill-opacity="1" /><path clip-path="url(#clip210)" d="M302.104 566.772 L302.104 553.34 L318.273 553.34 L318.273 566.772 L302.104 566.772 Z" fill="#000000" fill-rule="nonzero" fill-opacity="1" /><path clip-path="url(#clip210)" d="M265.629 454.799 Q265.629 463.457 271.549 468.549 Q277.469 473.578 287.781 473.578 Q298.03 473.578 304.014 468.549 Q309.934 463.457 309.934 454.799 Q309.934 446.142 304.014 441.113 Q298.03 436.02 287.781 436.02 Q277.469 436.02 271.549 441.113 Q265.629 446.142 265.629 454.799 M225.334 429.273 L237.047 429.273 Q234.755 434.111 233.546 439.076 Q232.336 443.978 232.336 448.815 Q232.336 461.547 240.93 468.295 Q249.523 474.979 266.902 475.933 Q261.364 472.178 258.435 466.512 Q255.444 460.847 255.444 454.035 Q255.444 439.712 264.165 431.437 Q272.822 423.098 287.781 423.098 Q302.422 423.098 311.271 431.755 Q320.119 440.413 320.119 454.799 Q320.119 471.286 307.515 480.007 Q294.847 488.728 270.849 488.728 Q248.314 488.728 234.946 478.034 Q221.514 467.34 221.514 449.325 Q221.514 444.487 222.469 439.585 Q223.424 434.62 225.334 429.273 Z" fill="#000000" fill-rule="nonzero" fill-opacity="1" /><polyline clip-path="url(#clip212)" style="stroke:#008000; stroke-linecap:round; stroke-linejoin:round; stroke-width:8; stroke-opacity:1; fill:none" points="719.695,288.443 829.668,387.868 939.642,318.801 1049.62,358.722 1159.59,622.955 1269.56,565.218 1379.54,728.159 1489.51,664.87 1599.48,812.645 1709.46,638.727 1819.43,942.831 1929.4,1004.58 2039.38,989.062 2149.35,1091.26 2259.32,1236.49 "/>
<circle clip-path="url(#clip212)" cx="719.695" cy="288.443" r="14.4" fill="#008000" fill-rule="evenodd" fill-opacity="1" stroke="#000000" stroke-opacity="1" stroke-width="6.4"/>
<circle clip-path="url(#clip212)" cx="829.668" cy="387.868" r="14.4" fill="#008000" fill-rule="evenodd" fill-opacity="1" stroke="#000000" stroke-opacity="1" stroke-width="6.4"/>
<circle clip-path="url(#clip212)" cx="939.642" cy="318.801" r="14.4" fill="#008000" fill-rule="evenodd" fill-opacity="1" stroke="#000000" stroke-opacity="1" stroke-width="6.4"/>
<circle clip-path="url(#clip212)" cx="1049.62" cy="358.722" r="14.4" fill="#008000" fill-rule="evenodd" fill-opacity="1" stroke="#000000" stroke-opacity="1" stroke-width="6.4"/>
<circle clip-path="url(#clip212)" cx="1159.59" cy="622.955" r="14.4" fill="#008000" fill-rule="evenodd" fill-opacity="1" stroke="#000000" stroke-opacity="1" stroke-width="6.4"/>
<circle clip-path="url(#clip212)" cx="1269.56" cy="565.218" r="14.4" fill="#008000" fill-rule="evenodd" fill-opacity="1" stroke="#000000" stroke-opacity="1" stroke-width="6.4"/>
<circle clip-path="url(#clip212)" cx="1379.54" cy="728.159" r="14.4" fill="#008000" fill-rule="evenodd" fill-opacity="1" stroke="#000000" stroke-opacity="1" stroke-width="6.4"/>
<circle clip-path="url(#clip212)" cx="1489.51" cy="664.87" r="14.4" fill="#008000" fill-rule="evenodd" fill-opacity="1" stroke="#000000" stroke-opacity="1" stroke-width="6.4"/>
<circle clip-path="url(#clip212)" cx="1599.48" cy="812.645" r="14.4" fill="#008000" fill-rule="evenodd" fill-opacity="1" stroke="#000000" stroke-opacity="1" stroke-width="6.4"/>
<circle clip-path="url(#clip212)" cx="1709.46" cy="638.727" r="14.4" fill="#008000" fill-rule="evenodd" fill-opacity="1" stroke="#000000" stroke-opacity="1" stroke-width="6.4"/>
<circle clip-path="url(#clip212)" cx="1819.43" cy="942.831" r="14.4" fill="#008000" fill-rule="evenodd" fill-opacity="1" stroke="#000000" stroke-opacity="1" stroke-width="6.4"/>
<circle clip-path="url(#clip212)" cx="1929.4" cy="1004.58" r="14.4" fill="#008000" fill-rule="evenodd" fill-opacity="1" stroke="#000000" stroke-opacity="1" stroke-width="6.4"/>
<circle clip-path="url(#clip212)" cx="2039.38" cy="989.062" r="14.4" fill="#008000" fill-rule="evenodd" fill-opacity="1" stroke="#000000" stroke-opacity="1" stroke-width="6.4"/>
<circle clip-path="url(#clip212)" cx="2149.35" cy="1091.26" r="14.4" fill="#008000" fill-rule="evenodd" fill-opacity="1" stroke="#000000" stroke-opacity="1" stroke-width="6.4"/>
<circle clip-path="url(#clip212)" cx="2259.32" cy="1236.49" r="14.4" fill="#008000" fill-rule="evenodd" fill-opacity="1" stroke="#000000" stroke-opacity="1" stroke-width="6.4"/>
<polyline clip-path="url(#clip212)" style="stroke:#00008b; stroke-linecap:round; stroke-linejoin:round; stroke-width:8; stroke-opacity:1; fill:none" points="719.695,226.786 829.668,255.611 939.642,273.253 1049.62,325.78 1159.59,380.215 1269.56,443.414 1379.54,512.822 1489.51,597.7 1599.48,673.018 1709.46,741.375 1819.43,827.648 1929.4,904.035 2039.38,982.91 2149.35,1064.25 2259.32,1139.39 "/>
<path clip-path="url(#clip212)" d="M719.695 324.921 L829.668 353.476 L939.642 366.104 L1049.62 419.753 L1159.59 480.687 L1269.56 537.237 L1379.54 613.638 L1489.51 700.792 L1599.48 768.562 L1709.46 840.512 L1819.43 927.355 L1929.4 999.847 L2039.38 1083.53 L2149.35 1165.15 L2259.32 1240.32 L2259.32 1039.45 L2149.35 962.193 L2039.38 880.722 L1929.4 801.495 L1819.43 732.175 L1709.46 642.224 L1599.48 571.399 L1489.51 498.807 L1379.54 405.624 L1269.56 347.441 L1159.59 281.007 L1049.62 227.529 L939.642 179.134 L829.668 153.973 L719.695 127.862  Z" fill="#0000ff" fill-rule="evenodd" fill-opacity="0.1"/>
<polyline clip-path="url(#clip212)" style="stroke:#0000ff; stroke-linecap:round; stroke-linejoin:round; stroke-width:0; stroke-opacity:0.1; fill:none" points="719.695,324.921 829.668,353.476 939.642,366.104 1049.62,419.753 1159.59,480.687 1269.56,537.237 1379.54,613.638 1489.51,700.792 1599.48,768.562 1709.46,840.512 1819.43,927.355 1929.4,999.847 2039.38,1083.53 2149.35,1165.15 2259.32,1240.32 "/>
</svg>
