<?xml version="1.0" encoding="utf-8"?>
<svg xmlns="http://www.w3.org/2000/svg" xmlns:xlink="http://www.w3.org/1999/xlink" width="600" height="400" viewBox="0 0 2400 1600">
<defs>
  <clipPath id="clip130">
    <rect x="0" y="0" width="2400" height="1600"/>
  </clipPath>
</defs>
<path clip-path="url(#clip130)" d="M0 1600 L2400 1600 L2400 0 L0 0  Z" fill="#ffffff" fill-rule="evenodd" fill-opacity="1"/>
<defs>
  <clipPath id="clip131">
    <rect x="480" y="0" width="1681" height="1600"/>
  </clipPath>
</defs>
<path clip-path="url(#clip130)" d="M680.45 1273.7 L2305.51 1273.7 L2305.51 94.4882 L680.45 94.4882  Z" fill="#ffffff" fill-rule="evenodd" fill-opacity="1"/>
<defs>
  <clipPath id="clip132">
    <rect x="680" y="94" width="1626" height="1180"/>
  </clipPath>
</defs>
<polyline clip-path="url(#clip132)" style="stroke:#000000; stroke-linecap:round; stroke-linejoin:round; stroke-width:4; stroke-opacity:0.1; fill:none" points="726.443,1273.7 726.443,94.4882 "/>
<polyline clip-path="url(#clip132)" style="stroke:#000000; stroke-linecap:round; stroke-linejoin:round; stroke-width:4; stroke-opacity:0.1; fill:none" points="1000.21,1273.7 1000.21,94.4882 "/>
<polyline clip-path="url(#clip132)" style="stroke:#000000; stroke-linecap:round; stroke-linejoin:round; stroke-width:4; stroke-opacity:0.1; fill:none" points="1273.97,1273.7 1273.97,94.4882 "/>
<polyline clip-path="url(#clip132)" style="stroke:#000000; stroke-linecap:round; stroke-linejoin:round; stroke-width:4; stroke-opacity:0.1; fill:none" points="1547.73,1273.7 1547.73,94.4882 "/>
<polyline clip-path="url(#clip132)" style="stroke:#000000; stroke-linecap:round; stroke-linejoin:round; stroke-width:4; stroke-opacity:0.1; fill:none" points="1821.5,1273.7 1821.5,94.4882 "/>
<polyline clip-path="url(#clip132)" style="stroke:#000000; stroke-linecap:round; stroke-linejoin:round; stroke-width:4; stroke-opacity:0.1; fill:none" points="2095.26,1273.7 2095.26,94.4882 "/>
<polyline clip-path="url(#clip130)" style="stroke:#000000; stroke-linecap:round; stroke-linejoin:round; stroke-width:8; stroke-opacity:1; fill:none" points="680.45,1273.7 2305.51,1273.7 "/>
<polyline clip-path="url(#clip130)" style="stroke:#000000; stroke-linecap:round; stroke-linejoin:round; stroke-width:8; stroke-opacity:1; fill:none" points="726.443,1273.7 726.443,1254.8 "/>
<polyline clip-path="url(#clip130)" style="stroke:#000000; stroke-linecap:round; stroke-linejoin:round; stroke-width:8; stroke-opacity:1; fill:none" points="1000.21,1273.7 1000.21,1254.8 "/>
<polyline clip-path="url(#clip130)" style="stroke:#000000; stroke-linecap:round; stroke-linejoin:round; stroke-width:8; stroke-opacity:1; fill:none" points="1273.97,1273.7 1273.97,1254.8 "/>
<polyline clip-path="url(#clip130)" style="stroke:#000000; stroke-linecap:round; stroke-linejoin:round; stroke-width:8; stroke-opacity:1; fill:none" points="1547.73,1273.7 1547.73,1254.8 "/>
<polyline clip-path="url(#clip130)" style="stroke:#000000; stroke-linecap:round; stroke-linejoin:round; stroke-width:8; stroke-opacity:1; fill:none" points="1821.5,1273.7 1821.5,1254.8 "/>
<polyline clip-path="url(#clip130)" style="stroke:#000000; stroke-linecap:round; stroke-linejoin:round; stroke-width:8; stroke-opacity:1; fill:none" points="2095.26,1273.7 2095.26,1254.8 "/>
<path clip-path="url(#clip130)" d="M651.05 1316.33 Q643.827 1316.33 640.17 1323.46 Q636.559 1330.55 636.559 1344.81 Q636.559 1359.02 640.17 1366.15 Q643.827 1373.23 651.05 1373.23 Q658.318 1373.23 661.929 1366.15 Q665.587 1359.02 665.587 1344.81 Q665.587 1330.55 661.929 1323.46 Q658.318 1316.33 651.05 1316.33 M651.05 1308.93 Q662.67 1308.93 668.781 1318.14 Q674.938 1327.31 674.938 1344.81 Q674.938 1362.26 668.781 1371.47 Q662.67 1380.64 651.05 1380.64 Q639.429 1380.64 633.272 1371.47 Q627.161 1362.26 627.161 1344.81 Q627.161 1327.31 633.272 1318.14 Q639.429 1308.93 651.05 1308.93 Z" fill="#000000" fill-rule="nonzero" fill-opacity="1" /><path clip-path="url(#clip130)" d="M691.373 1367.54 L701.142 1367.54 L701.142 1379.3 L691.373 1379.3 L691.373 1367.54 Z" fill="#000000" fill-rule="nonzero" fill-opacity="1" /><path clip-path="url(#clip130)" d="M741.512 1316.33 Q734.29 1316.33 730.632 1323.46 Q727.021 1330.55 727.021 1344.81 Q727.021 1359.02 730.632 1366.15 Q734.29 1373.23 741.512 1373.23 Q748.781 1373.23 752.392 1366.15 Q756.049 1359.02 756.049 1344.81 Q756.049 1330.55 752.392 1323.46 Q748.781 1316.33 741.512 1316.33 M741.512 1308.93 Q753.132 1308.93 759.243 1318.14 Q765.401 1327.31 765.401 1344.81 Q765.401 1362.26 759.243 1371.47 Q753.132 1380.64 741.512 1380.64 Q729.892 1380.64 723.734 1371.47 Q717.623 1362.26 717.623 1344.81 Q717.623 1327.31 723.734 1318.14 Q729.892 1308.93 741.512 1308.93 Z" fill="#000000" fill-rule="nonzero" fill-opacity="1" /><path clip-path="url(#clip130)" d="M801.836 1316.33 Q794.614 1316.33 790.956 1323.46 Q787.345 1330.55 787.345 1344.81 Q787.345 1359.02 790.956 1366.15 Q794.614 1373.23 801.836 1373.23 Q809.104 1373.23 812.715 1366.15 Q816.373 1359.02 816.373 1344.81 Q816.373 1330.55 812.715 1323.46 Q809.104 1316.33 801.836 1316.33 M801.836 1308.93 Q813.456 1308.93 819.567 1318.14 Q825.725 1327.31 825.725 1344.81 Q825.725 1362.26 819.567 1371.47 Q813.456 1380.64 801.836 1380.64 Q790.215 1380.64 784.058 1371.47 Q777.947 1362.26 777.947 1344.81 Q777.947 1327.31 784.058 1318.14 Q790.215 1308.93 801.836 1308.93 Z" fill="#000000" fill-rule="nonzero" fill-opacity="1" /><path clip-path="url(#clip130)" d="M925.809 1316.33 Q918.586 1316.33 914.929 1323.46 Q911.318 1330.55 911.318 1344.81 Q911.318 1359.02 914.929 1366.15 Q918.586 1373.23 925.809 1373.23 Q933.077 1373.23 936.688 1366.15 Q940.346 1359.02 940.346 1344.81 Q940.346 1330.55 936.688 1323.46 Q933.077 1316.33 925.809 1316.33 M925.809 1308.93 Q937.429 1308.93 943.54 1318.14 Q949.697 1327.31 949.697 1344.81 Q949.697 1362.26 943.54 1371.47 Q937.429 1380.64 925.809 1380.64 Q914.188 1380.64 908.031 1371.47 Q901.92 1362.26 901.92 1344.81 Q901.92 1327.31 908.031 1318.14 Q914.188 1308.93 925.809 1308.93 Z" fill="#000000" fill-rule="nonzero" fill-opacity="1" /><path clip-path="url(#clip130)" d="M966.133 1367.54 L975.901 1367.54 L975.901 1379.3 L966.133 1379.3 L966.133 1367.54 Z" fill="#000000" fill-rule="nonzero" fill-opacity="1" /><path clip-path="url(#clip130)" d="M1004.33 1371.43 L1036.97 1371.43 L1036.97 1379.3 L993.077 1379.3 L993.077 1371.43 Q998.401 1365.92 1007.57 1356.66 Q1016.78 1347.35 1019.14 1344.67 Q1023.63 1339.62 1025.39 1336.15 Q1027.2 1332.63 1027.2 1329.25 Q1027.2 1323.74 1023.31 1320.27 Q1019.47 1316.8 1013.26 1316.8 Q1008.86 1316.8 1003.96 1318.32 Q999.095 1319.85 993.54 1322.95 L993.54 1313.51 Q999.188 1311.24 1004.1 1310.08 Q1009 1308.93 1013.08 1308.93 Q1023.82 1308.93 1030.21 1314.3 Q1036.6 1319.67 1036.6 1328.65 Q1036.6 1332.91 1034.97 1336.75 Q1033.4 1340.55 1029.19 1345.73 Q1028.03 1347.07 1021.83 1353.51 Q1015.62 1359.9 1004.33 1371.43 Z" fill="#000000" fill-rule="nonzero" fill-opacity="1" /><path clip-path="url(#clip130)" d="M1056.69 1310.18 L1093.4 1310.18 L1093.4 1318.05 L1065.25 1318.05 L1065.25 1334.99 Q1067.29 1334.3 1069.33 1333.97 Q1071.36 1333.6 1073.4 1333.6 Q1084.97 1333.6 1091.73 1339.94 Q1098.49 1346.29 1098.49 1357.12 Q1098.49 1368.28 1091.55 1374.48 Q1084.6 1380.64 1071.97 1380.64 Q1067.61 1380.64 1063.08 1379.9 Q1058.59 1379.16 1053.77 1377.68 L1053.77 1368.28 Q1057.94 1370.55 1062.38 1371.66 Q1066.83 1372.77 1071.78 1372.77 Q1079.79 1372.77 1084.47 1368.56 Q1089.14 1364.34 1089.14 1357.12 Q1089.14 1349.9 1084.47 1345.68 Q1079.79 1341.47 1071.78 1341.47 Q1068.03 1341.47 1064.28 1342.31 Q1060.58 1343.14 1056.69 1344.9 L1056.69 1310.18 Z" fill="#000000" fill-rule="nonzero" fill-opacity="1" /><path clip-path="url(#clip130)" d="M1198.58 1316.33 Q1191.35 1316.33 1187.7 1323.46 Q1184.09 1330.55 1184.09 1344.81 Q1184.09 1359.02 1187.7 1366.15 Q1191.35 1373.23 1198.58 1373.23 Q1205.85 1373.23 1209.46 1366.15 Q1213.11 1359.02 1213.11 1344.81 Q1213.11 1330.55 1209.46 1323.46 Q1205.85 1316.33 1198.58 1316.33 M1198.58 1308.93 Q1210.2 1308.93 1216.31 1318.14 Q1222.47 1327.31 1222.47 1344.81 Q1222.47 1362.26 1216.31 1371.47 Q1210.2 1380.64 1198.58 1380.64 Q1186.96 1380.64 1180.8 1371.47 Q1174.69 1362.26 1174.69 1344.81 Q1174.69 1327.31 1180.8 1318.14 Q1186.96 1308.93 1198.58 1308.93 Z" fill="#000000" fill-rule="nonzero" fill-opacity="1" /><path clip-path="url(#clip130)" d="M1238.9 1367.54 L1248.67 1367.54 L1248.67 1379.3 L1238.9 1379.3 L1238.9 1367.54 Z" fill="#000000" fill-rule="nonzero" fill-opacity="1" /><path clip-path="url(#clip130)" d="M1269.13 1310.18 L1305.84 1310.18 L1305.84 1318.05 L1277.7 1318.05 L1277.7 1334.99 Q1279.73 1334.3 1281.77 1333.97 Q1283.81 1333.6 1285.85 1333.6 Q1297.42 1333.6 1304.18 1339.94 Q1310.94 1346.29 1310.94 1357.12 Q1310.94 1368.28 1303.99 1374.48 Q1297.05 1380.64 1284.41 1380.64 Q1280.06 1380.64 1275.52 1379.9 Q1271.03 1379.16 1266.22 1377.68 L1266.22 1368.28 Q1270.38 1370.55 1274.83 1371.66 Q1279.27 1372.77 1284.22 1372.77 Q1292.23 1372.77 1296.91 1368.56 Q1301.59 1364.34 1301.59 1357.12 Q1301.59 1349.9 1296.91 1345.68 Q1292.23 1341.47 1284.22 1341.47 Q1280.47 1341.47 1276.72 1342.31 Q1273.02 1343.14 1269.13 1344.9 L1269.13 1310.18 Z" fill="#000000" fill-rule="nonzero" fill-opacity="1" /><path clip-path="url(#clip130)" d="M1349.36 1316.33 Q1342.14 1316.33 1338.48 1323.46 Q1334.87 1330.55 1334.87 1344.81 Q1334.87 1359.02 1338.48 1366.15 Q1342.14 1373.23 1349.36 1373.23 Q1356.63 1373.23 1360.24 1366.15 Q1363.9 1359.02 1363.9 1344.81 Q1363.9 1330.55 1360.24 1323.46 Q1356.63 1316.33 1349.36 1316.33 M1349.36 1308.93 Q1360.98 1308.93 1367.09 1318.14 Q1373.25 1327.31 1373.25 1344.81 Q1373.25 1362.26 1367.09 1371.47 Q1360.98 1380.64 1349.36 1380.64 Q1337.74 1380.64 1331.59 1371.47 Q1325.47 1362.26 1325.47 1344.81 Q1325.47 1327.31 1331.59 1318.14 Q1337.74 1308.93 1349.36 1308.93 Z" fill="#000000" fill-rule="nonzero" fill-opacity="1" /><path clip-path="url(#clip130)" d="M1473.34 1316.33 Q1466.11 1316.33 1462.46 1323.46 Q1458.85 1330.55 1458.85 1344.81 Q1458.85 1359.02 1462.46 1366.15 Q1466.11 1373.23 1473.34 1373.23 Q1480.6 1373.23 1484.22 1366.15 Q1487.87 1359.02 1487.87 1344.81 Q1487.87 1330.55 1484.22 1323.46 Q1480.6 1316.33 1473.34 1316.33 M1473.34 1308.93 Q1484.96 1308.93 1491.07 1318.14 Q1497.22 1327.31 1497.22 1344.81 Q1497.22 1362.26 1491.07 1371.47 Q1484.96 1380.64 1473.34 1380.64 Q1461.72 1380.64 1455.56 1371.47 Q1449.45 1362.26 1449.45 1344.81 Q1449.45 1327.31 1455.56 1318.14 Q1461.72 1308.93 1473.34 1308.93 Z" fill="#000000" fill-rule="nonzero" fill-opacity="1" /><path clip-path="url(#clip130)" d="M1513.66 1367.54 L1523.43 1367.54 L1523.43 1379.3 L1513.66 1379.3 L1513.66 1367.54 Z" fill="#000000" fill-rule="nonzero" fill-opacity="1" /><path clip-path="url(#clip130)" d="M1541.44 1310.18 L1585.88 1310.18 L1585.88 1314.16 L1560.79 1379.3 L1551.02 1379.3 L1574.63 1318.05 L1541.44 1318.05 L1541.44 1310.18 Z" fill="#000000" fill-rule="nonzero" fill-opacity="1" /><path clip-path="url(#clip130)" d="M1604.22 1310.18 L1640.93 1310.18 L1640.93 1318.05 L1612.78 1318.05 L1612.78 1334.99 Q1614.82 1334.3 1616.85 1333.97 Q1618.89 1333.6 1620.93 1333.6 Q1632.5 1333.6 1639.26 1339.94 Q1646.02 1346.29 1646.02 1357.12 Q1646.02 1368.28 1639.08 1374.48 Q1632.13 1380.64 1619.49 1380.64 Q1615.14 1380.64 1610.6 1379.9 Q1606.11 1379.16 1601.3 1377.68 L1601.3 1368.28 Q1605.47 1370.55 1609.91 1371.66 Q1614.35 1372.77 1619.31 1372.77 Q1627.32 1372.77 1631.99 1368.56 Q1636.67 1364.34 1636.67 1357.12 Q1636.67 1349.9 1631.99 1345.68 Q1627.32 1341.47 1619.31 1341.47 Q1615.56 1341.47 1611.81 1342.31 Q1608.1 1343.14 1604.22 1344.9 L1604.22 1310.18 Z" fill="#000000" fill-rule="nonzero" fill-opacity="1" /><path clip-path="url(#clip130)" d="M1725.64 1371.43 L1740.92 1371.43 L1740.92 1318.69 L1724.3 1322.03 L1724.3 1313.51 L1740.83 1310.18 L1750.18 1310.18 L1750.18 1371.43 L1765.46 1371.43 L1765.46 1379.3 L1725.64 1379.3 L1725.64 1371.43 Z" fill="#000000" fill-rule="nonzero" fill-opacity="1" /><path clip-path="url(#clip130)" d="M1784.34 1367.54 L1794.11 1367.54 L1794.11 1379.3 L1784.34 1379.3 L1784.34 1367.54 Z" fill="#000000" fill-rule="nonzero" fill-opacity="1" /><path clip-path="url(#clip130)" d="M1834.48 1316.33 Q1827.26 1316.33 1823.6 1323.46 Q1819.99 1330.55 1819.99 1344.81 Q1819.99 1359.02 1823.6 1366.15 Q1827.26 1373.23 1834.48 1373.23 Q1841.75 1373.23 1845.36 1366.15 Q1849.02 1359.02 1849.02 1344.81 Q1849.02 1330.55 1845.36 1323.46 Q1841.75 1316.33 1834.48 1316.33 M1834.48 1308.93 Q1846.1 1308.93 1852.21 1318.14 Q1858.37 1327.31 1858.37 1344.81 Q1858.37 1362.26 1852.21 1371.47 Q1846.1 1380.64 1834.48 1380.64 Q1822.86 1380.64 1816.71 1371.47 Q1810.59 1362.26 1810.59 1344.81 Q1810.59 1327.31 1816.71 1318.14 Q1822.86 1308.93 1834.48 1308.93 Z" fill="#000000" fill-rule="nonzero" fill-opacity="1" /><path clip-path="url(#clip130)" d="M1894.81 1316.33 Q1887.59 1316.33 1883.93 1323.46 Q1880.32 1330.55 1880.32 1344.81 Q1880.32 1359.02 1883.93 1366.15 Q1887.59 1373.23 1894.81 1373.23 Q1902.08 1373.23 1905.69 1366.15 Q1909.34 1359.02 1909.34 1344.81 Q1909.34 1330.55 1905.69 1323.46 Q1902.08 1316.33 1894.81 1316.33 M1894.81 1308.93 Q1906.43 1308.93 1912.54 1318.14 Q1918.7 1327.31 1918.7 1344.81 Q1918.7 1362.26 1912.54 1371.47 Q1906.43 1380.64 1894.81 1380.64 Q1883.19 1380.64 1877.03 1371.47 Q1870.92 1362.26 1870.92 1344.81 Q1870.92 1327.31 1877.03 1318.14 Q1883.19 1308.93 1894.81 1308.93 Z" fill="#000000" fill-rule="nonzero" fill-opacity="1" /><path clip-path="url(#clip130)" d="M2000.4 1371.43 L2015.68 1371.43 L2015.68 1318.69 L1999.06 1322.03 L1999.06 1313.51 L2015.59 1310.18 L2024.94 1310.18 L2024.94 1371.43 L2040.22 1371.43 L2040.22 1379.3 L2000.4 1379.3 L2000.4 1371.43 Z" fill="#000000" fill-rule="nonzero" fill-opacity="1" /><path clip-path="url(#clip130)" d="M2059.1 1367.54 L2068.87 1367.54 L2068.87 1379.3 L2059.1 1379.3 L2059.1 1367.54 Z" fill="#000000" fill-rule="nonzero" fill-opacity="1" /><path clip-path="url(#clip130)" d="M2097.3 1371.43 L2129.94 1371.43 L2129.94 1379.3 L2086.05 1379.3 L2086.05 1371.43 Q2091.37 1365.92 2100.54 1356.66 Q2109.75 1347.35 2112.11 1344.67 Q2116.6 1339.62 2118.36 1336.15 Q2120.17 1332.63 2120.17 1329.25 Q2120.17 1323.74 2116.28 1320.27 Q2112.44 1316.8 2106.23 1316.8 Q2101.84 1316.8 2096.93 1318.32 Q2092.07 1319.85 2086.51 1322.95 L2086.51 1313.51 Q2092.16 1311.24 2097.07 1310.08 Q2101.97 1308.93 2106.05 1308.93 Q2116.79 1308.93 2123.18 1314.3 Q2129.57 1319.67 2129.57 1328.65 Q2129.57 1332.91 2127.95 1336.75 Q2126.37 1340.55 2122.16 1345.73 Q2121 1347.07 2114.8 1353.51 Q2108.59 1359.9 2097.3 1371.43 Z" fill="#000000" fill-rule="nonzero" fill-opacity="1" /><path clip-path="url(#clip130)" d="M2149.66 1310.18 L2186.37 1310.18 L2186.37 1318.05 L2158.22 1318.05 L2158.22 1334.99 Q2160.26 1334.3 2162.3 1333.97 Q2164.33 1333.6 2166.37 1333.6 Q2177.95 1333.6 2184.71 1339.94 Q2191.46 1346.29 2191.46 1357.12 Q2191.46 1368.28 2184.52 1374.48 Q2177.58 1380.64 2164.94 1380.64 Q2160.58 1380.64 2156.05 1379.9 Q2151.56 1379.16 2146.74 1377.68 L2146.74 1368.28 Q2150.91 1370.55 2155.35 1371.66 Q2159.8 1372.77 2164.75 1372.77 Q2172.76 1372.77 2177.44 1368.56 Q2182.11 1364.34 2182.11 1357.12 Q2182.11 1349.9 2177.44 1345.68 Q2172.76 1341.47 2164.75 1341.47 Q2161 1341.47 2157.25 1342.31 Q2153.55 1343.14 2149.66 1344.9 L2149.66 1310.18 Z" fill="#000000" fill-rule="nonzero" fill-opacity="1" /><path clip-path="url(#clip130)" d="M1378.53 1484.39 L1378.53 1527.42 L1366.81 1527.42 L1366.81 1484.77 Q1366.81 1474.65 1362.87 1469.62 Q1358.92 1464.59 1351.03 1464.59 Q1341.54 1464.59 1336.07 1470.64 Q1330.59 1476.69 1330.59 1487.13 L1330.59 1527.42 L1318.82 1527.42 L1318.82 1428.37 L1330.59 1428.37 L1330.59 1467.2 Q1334.79 1460.77 1340.46 1457.59 Q1346.19 1454.41 1353.64 1454.41 Q1365.92 1454.41 1372.22 1462.05 Q1378.53 1469.62 1378.53 1484.39 Z" fill="#000000" fill-rule="nonzero" fill-opacity="1" /><path clip-path="url(#clip130)" d="M1429.51 1464.34 Q1420.09 1464.34 1414.62 1471.72 Q1409.14 1479.04 1409.14 1491.84 Q1409.14 1504.63 1414.56 1512.02 Q1420.03 1519.34 1429.51 1519.34 Q1438.87 1519.34 1444.35 1511.96 Q1449.82 1504.57 1449.82 1491.84 Q1449.82 1479.17 1444.35 1471.79 Q1438.87 1464.34 1429.51 1464.34 M1429.51 1454.41 Q1444.79 1454.41 1453.51 1464.34 Q1462.23 1474.27 1462.23 1491.84 Q1462.23 1509.35 1453.51 1519.34 Q1444.79 1529.27 1429.51 1529.27 Q1414.17 1529.27 1405.45 1519.34 Q1396.8 1509.35 1396.8 1491.84 Q1396.8 1474.27 1405.45 1464.34 Q1414.17 1454.41 1429.51 1454.41 Z" fill="#000000" fill-rule="nonzero" fill-opacity="1" /><path clip-path="url(#clip130)" d="M1480.44 1499.29 L1480.44 1456.13 L1492.15 1456.13 L1492.15 1498.84 Q1492.15 1508.96 1496.1 1514.06 Q1500.05 1519.08 1507.94 1519.08 Q1517.43 1519.08 1522.9 1513.04 Q1528.44 1506.99 1528.44 1496.55 L1528.44 1456.13 L1540.15 1456.13 L1540.15 1527.42 L1528.44 1527.42 L1528.44 1516.47 Q1524.17 1522.97 1518.51 1526.15 Q1512.91 1529.27 1505.46 1529.27 Q1493.17 1529.27 1486.81 1521.63 Q1480.44 1513.99 1480.44 1499.29 M1509.91 1454.41 L1509.91 1454.41 Z" fill="#000000" fill-rule="nonzero" fill-opacity="1" /><path clip-path="url(#clip130)" d="M1605.59 1467.08 Q1603.62 1465.93 1601.26 1465.42 Q1598.97 1464.85 1596.17 1464.85 Q1586.24 1464.85 1580.89 1471.34 Q1575.61 1477.77 1575.61 1489.87 L1575.61 1527.42 L1563.83 1527.42 L1563.83 1456.13 L1575.61 1456.13 L1575.61 1467.2 Q1579.3 1460.71 1585.22 1457.59 Q1591.14 1454.41 1599.61 1454.41 Q1600.82 1454.41 1602.28 1454.6 Q1603.74 1454.73 1605.53 1455.05 L1605.59 1467.08 Z" fill="#000000" fill-rule="nonzero" fill-opacity="1" /><path clip-path="url(#clip130)" d="M1663.33 1458.23 L1663.33 1469.3 Q1658.36 1466.76 1653.01 1465.49 Q1647.67 1464.21 1641.94 1464.21 Q1633.22 1464.21 1628.83 1466.89 Q1624.5 1469.56 1624.5 1474.91 Q1624.5 1478.98 1627.62 1481.34 Q1630.73 1483.63 1640.16 1485.73 L1644.17 1486.62 Q1656.64 1489.29 1661.86 1494.19 Q1667.15 1499.03 1667.15 1507.75 Q1667.15 1517.68 1659.25 1523.48 Q1651.42 1529.27 1637.67 1529.27 Q1631.94 1529.27 1625.71 1528.12 Q1619.53 1527.04 1612.66 1524.81 L1612.66 1512.72 Q1619.15 1516.09 1625.45 1517.81 Q1631.75 1519.47 1637.93 1519.47 Q1646.2 1519.47 1650.66 1516.67 Q1655.12 1513.8 1655.12 1508.64 Q1655.12 1503.87 1651.87 1501.32 Q1648.69 1498.78 1637.8 1496.42 L1633.73 1495.47 Q1622.84 1493.18 1618 1488.47 Q1613.17 1483.69 1613.17 1475.42 Q1613.17 1465.36 1620.3 1459.88 Q1627.42 1454.41 1640.54 1454.41 Q1647.03 1454.41 1652.76 1455.36 Q1658.49 1456.32 1663.33 1458.23 Z" fill="#000000" fill-rule="nonzero" fill-opacity="1" /><polyline clip-path="url(#clip132)" style="stroke:#000000; stroke-linecap:round; stroke-linejoin:round; stroke-width:4; stroke-opacity:0.1; fill:none" points="680.45,1256.63 2305.51,1256.63 "/>
<polyline clip-path="url(#clip132)" style="stroke:#000000; stroke-linecap:round; stroke-linejoin:round; stroke-width:4; stroke-opacity:0.1; fill:none" points="680.45,1010.22 2305.51,1010.22 "/>
<polyline clip-path="url(#clip132)" style="stroke:#000000; stroke-linecap:round; stroke-linejoin:round; stroke-width:4; stroke-opacity:0.1; fill:none" points="680.45,763.811 2305.51,763.811 "/>
<polyline clip-path="url(#clip132)" style="stroke:#000000; stroke-linecap:round; stroke-linejoin:round; stroke-width:4; stroke-opacity:0.1; fill:none" points="680.45,517.402 2305.51,517.402 "/>
<polyline clip-path="url(#clip132)" style="stroke:#000000; stroke-linecap:round; stroke-linejoin:round; stroke-width:4; stroke-opacity:0.1; fill:none" points="680.45,270.993 2305.51,270.993 "/>
<polyline clip-path="url(#clip130)" style="stroke:#000000; stroke-linecap:round; stroke-linejoin:round; stroke-width:8; stroke-opacity:1; fill:none" points="680.45,1273.7 680.45,94.4882 "/>
<polyline clip-path="url(#clip130)" style="stroke:#000000; stroke-linecap:round; stroke-linejoin:round; stroke-width:8; stroke-opacity:1; fill:none" points="680.45,1256.63 699.348,1256.63 "/>
<polyline clip-path="url(#clip130)" style="stroke:#000000; stroke-linecap:round; stroke-linejoin:round; stroke-width:8; stroke-opacity:1; fill:none" points="680.45,1010.22 699.348,1010.22 "/>
<polyline clip-path="url(#clip130)" style="stroke:#000000; stroke-linecap:round; stroke-linejoin:round; stroke-width:8; stroke-opacity:1; fill:none" points="680.45,763.811 699.348,763.811 "/>
<polyline clip-path="url(#clip130)" style="stroke:#000000; stroke-linecap:round; stroke-linejoin:round; stroke-width:8; stroke-opacity:1; fill:none" points="680.45,517.402 699.348,517.402 "/>
<polyline clip-path="url(#clip130)" style="stroke:#000000; stroke-linecap:round; stroke-linejoin:round; stroke-width:8; stroke-opacity:1; fill:none" points="680.45,270.993 699.348,270.993 "/>
<path clip-path="url(#clip130)" d="M391.072 1283.32 L406.35 1283.32 L406.35 1230.59 L389.73 1233.92 L389.73 1225.4 L406.257 1222.07 L415.609 1222.07 L415.609 1283.32 L430.887 1283.32 L430.887 1291.19 L391.072 1291.19 L391.072 1283.32 Z" fill="#000000" fill-rule="nonzero" fill-opacity="1" /><path clip-path="url(#clip130)" d="M457.831 1283.32 L490.47 1283.32 L490.47 1291.19 L446.581 1291.19 L446.581 1283.32 Q451.905 1277.81 461.072 1268.55 Q470.285 1259.25 472.646 1256.56 Q477.136 1251.51 478.896 1248.04 Q480.701 1244.52 480.701 1241.14 Q480.701 1235.63 476.812 1232.16 Q472.97 1228.69 466.766 1228.69 Q462.368 1228.69 457.461 1230.22 Q452.6 1231.75 447.044 1234.85 L447.044 1225.4 Q452.692 1223.13 457.6 1221.98 Q462.507 1220.82 466.581 1220.82 Q477.322 1220.82 483.71 1226.19 Q490.099 1231.56 490.099 1240.54 Q490.099 1244.8 488.479 1248.64 Q486.905 1252.44 482.692 1257.63 Q481.535 1258.97 475.331 1265.4 Q469.127 1271.79 457.831 1283.32 Z" fill="#000000" fill-rule="nonzero" fill-opacity="1" /><path clip-path="url(#clip130)" d="M510.192 1222.07 L546.905 1222.07 L546.905 1229.94 L518.757 1229.94 L518.757 1246.88 Q520.794 1246.19 522.831 1245.87 Q524.868 1245.5 526.905 1245.5 Q538.479 1245.5 545.238 1251.84 Q551.997 1258.18 551.997 1269.01 Q551.997 1280.17 545.053 1286.37 Q538.108 1292.53 525.47 1292.53 Q521.118 1292.53 516.581 1291.79 Q512.09 1291.05 507.275 1289.57 L507.275 1280.17 Q511.442 1282.44 515.886 1283.55 Q520.331 1284.66 525.284 1284.66 Q533.294 1284.66 537.969 1280.45 Q542.645 1276.24 542.645 1269.01 Q542.645 1261.79 537.969 1257.58 Q533.294 1253.37 525.284 1253.37 Q521.534 1253.37 517.784 1254.2 Q514.081 1255.03 510.192 1256.79 L510.192 1222.07 Z" fill="#000000" fill-rule="nonzero" fill-opacity="1" /><path clip-path="url(#clip130)" d="M570.423 1279.43 L580.191 1279.43 L580.191 1291.19 L570.423 1291.19 L570.423 1279.43 Z" fill="#000000" fill-rule="nonzero" fill-opacity="1" /><path clip-path="url(#clip130)" d="M620.562 1228.23 Q613.339 1228.23 609.682 1235.36 Q606.071 1242.44 606.071 1256.7 Q606.071 1270.91 609.682 1278.04 Q613.339 1285.12 620.562 1285.12 Q627.83 1285.12 631.441 1278.04 Q635.099 1270.91 635.099 1256.7 Q635.099 1242.44 631.441 1235.36 Q627.83 1228.23 620.562 1228.23 M620.562 1220.82 Q632.182 1220.82 638.293 1230.03 Q644.45 1239.2 644.45 1256.7 Q644.45 1274.15 638.293 1283.37 Q632.182 1292.53 620.562 1292.53 Q608.941 1292.53 602.784 1283.37 Q596.673 1274.15 596.673 1256.7 Q596.673 1239.2 602.784 1230.03 Q608.941 1220.82 620.562 1220.82 Z" fill="#000000" fill-rule="nonzero" fill-opacity="1" /><path clip-path="url(#clip130)" d="M391.072 1036.91 L406.35 1036.91 L406.35 984.179 L389.73 987.512 L389.73 978.994 L406.257 975.66 L415.609 975.66 L415.609 1036.91 L430.887 1036.91 L430.887 1044.78 L391.072 1044.78 L391.072 1036.91 Z" fill="#000000" fill-rule="nonzero" fill-opacity="1" /><path clip-path="url(#clip130)" d="M449.868 975.66 L486.581 975.66 L486.581 983.531 L458.433 983.531 L458.433 1000.48 Q460.47 999.781 462.507 999.457 Q464.544 999.086 466.581 999.086 Q478.155 999.086 484.914 1005.43 Q491.673 1011.77 491.673 1022.6 Q491.673 1033.76 484.729 1039.97 Q477.785 1046.12 465.146 1046.12 Q460.794 1046.12 456.257 1045.38 Q451.766 1044.64 446.951 1043.16 L446.951 1033.76 Q451.118 1036.03 455.562 1037.14 Q460.007 1038.25 464.961 1038.25 Q472.97 1038.25 477.646 1034.04 Q482.322 1029.83 482.322 1022.6 Q482.322 1015.38 477.646 1011.17 Q472.97 1006.96 464.961 1006.96 Q461.211 1006.96 457.461 1007.79 Q453.757 1008.62 449.868 1010.38 L449.868 975.66 Z" fill="#000000" fill-rule="nonzero" fill-opacity="1" /><path clip-path="url(#clip130)" d="M530.099 981.818 Q522.877 981.818 519.22 988.947 Q515.608 996.031 515.608 1010.29 Q515.608 1024.5 519.22 1031.63 Q522.877 1038.72 530.099 1038.72 Q537.368 1038.72 540.979 1031.63 Q544.636 1024.5 544.636 1010.29 Q544.636 996.031 540.979 988.947 Q537.368 981.818 530.099 981.818 M530.099 974.41 Q541.719 974.41 547.831 983.623 Q553.988 992.79 553.988 1010.29 Q553.988 1027.74 547.831 1036.96 Q541.719 1046.12 530.099 1046.12 Q518.479 1046.12 512.321 1036.96 Q506.21 1027.74 506.21 1010.29 Q506.21 992.79 512.321 983.623 Q518.479 974.41 530.099 974.41 Z" fill="#000000" fill-rule="nonzero" fill-opacity="1" /><path clip-path="url(#clip130)" d="M570.423 1033.02 L580.191 1033.02 L580.191 1044.78 L570.423 1044.78 L570.423 1033.02 Z" fill="#000000" fill-rule="nonzero" fill-opacity="1" /><path clip-path="url(#clip130)" d="M620.562 981.818 Q613.339 981.818 609.682 988.947 Q606.071 996.031 606.071 1010.29 Q606.071 1024.5 609.682 1031.63 Q613.339 1038.72 620.562 1038.72 Q627.83 1038.72 631.441 1031.63 Q635.099 1024.5 635.099 1010.29 Q635.099 996.031 631.441 988.947 Q627.83 981.818 620.562 981.818 M620.562 974.41 Q632.182 974.41 638.293 983.623 Q644.45 992.79 644.45 1010.29 Q644.45 1027.74 638.293 1036.96 Q632.182 1046.12 620.562 1046.12 Q608.941 1046.12 602.784 1036.96 Q596.673 1027.74 596.673 1010.29 Q596.673 992.79 602.784 983.623 Q608.941 974.41 620.562 974.41 Z" fill="#000000" fill-rule="nonzero" fill-opacity="1" /><path clip-path="url(#clip130)" d="M391.072 790.501 L406.35 790.501 L406.35 737.77 L389.73 741.103 L389.73 732.585 L406.257 729.251 L415.609 729.251 L415.609 790.501 L430.887 790.501 L430.887 798.371 L391.072 798.371 L391.072 790.501 Z" fill="#000000" fill-rule="nonzero" fill-opacity="1" /><path clip-path="url(#clip130)" d="M447.414 729.251 L491.859 729.251 L491.859 733.233 L466.766 798.371 L456.998 798.371 L480.609 737.122 L447.414 737.122 L447.414 729.251 Z" fill="#000000" fill-rule="nonzero" fill-opacity="1" /><path clip-path="url(#clip130)" d="M510.192 729.251 L546.905 729.251 L546.905 737.122 L518.757 737.122 L518.757 754.066 Q520.794 753.372 522.831 753.047 Q524.868 752.677 526.905 752.677 Q538.479 752.677 545.238 759.02 Q551.997 765.362 551.997 776.195 Q551.997 787.353 545.053 793.556 Q538.108 799.714 525.47 799.714 Q521.118 799.714 516.581 798.973 Q512.09 798.232 507.275 796.751 L507.275 787.353 Q511.442 789.621 515.886 790.732 Q520.331 791.844 525.284 791.844 Q533.294 791.844 537.969 787.631 Q542.645 783.418 542.645 776.195 Q542.645 768.973 537.969 764.76 Q533.294 760.547 525.284 760.547 Q521.534 760.547 517.784 761.381 Q514.081 762.214 510.192 763.973 L510.192 729.251 Z" fill="#000000" fill-rule="nonzero" fill-opacity="1" /><path clip-path="url(#clip130)" d="M570.423 786.612 L580.191 786.612 L580.191 798.371 L570.423 798.371 L570.423 786.612 Z" fill="#000000" fill-rule="nonzero" fill-opacity="1" /><path clip-path="url(#clip130)" d="M620.562 735.409 Q613.339 735.409 609.682 742.538 Q606.071 749.622 606.071 763.881 Q606.071 778.094 609.682 785.223 Q613.339 792.306 620.562 792.306 Q627.83 792.306 631.441 785.223 Q635.099 778.094 635.099 763.881 Q635.099 749.622 631.441 742.538 Q627.83 735.409 620.562 735.409 M620.562 728.001 Q632.182 728.001 638.293 737.214 Q644.45 746.381 644.45 763.881 Q644.45 781.334 638.293 790.547 Q632.182 799.714 620.562 799.714 Q608.941 799.714 602.784 790.547 Q596.673 781.334 596.673 763.881 Q596.673 746.381 602.784 737.214 Q608.941 728.001 620.562 728.001 Z" fill="#000000" fill-rule="nonzero" fill-opacity="1" /><path clip-path="url(#clip130)" d="M397.507 544.092 L430.146 544.092 L430.146 551.962 L386.257 551.962 L386.257 544.092 Q391.581 538.582 400.748 529.323 Q409.961 520.018 412.322 517.333 Q416.813 512.286 418.572 508.814 Q420.378 505.296 420.378 501.916 Q420.378 496.407 416.489 492.935 Q412.646 489.462 406.442 489.462 Q402.044 489.462 397.137 490.99 Q392.276 492.518 386.72 495.62 L386.72 486.175 Q392.368 483.907 397.276 482.749 Q402.183 481.592 406.257 481.592 Q416.998 481.592 423.387 486.962 Q429.776 492.333 429.776 501.314 Q429.776 505.573 428.155 509.416 Q426.581 513.212 422.368 518.397 Q421.211 519.74 415.007 526.175 Q408.803 532.564 397.507 544.092 Z" fill="#000000" fill-rule="nonzero" fill-opacity="1" /><path clip-path="url(#clip130)" d="M469.775 488.999 Q462.553 488.999 458.896 496.129 Q455.285 503.212 455.285 517.471 Q455.285 531.684 458.896 538.814 Q462.553 545.897 469.775 545.897 Q477.044 545.897 480.655 538.814 Q484.312 531.684 484.312 517.471 Q484.312 503.212 480.655 496.129 Q477.044 488.999 469.775 488.999 M469.775 481.592 Q481.396 481.592 487.507 490.805 Q493.664 499.972 493.664 517.471 Q493.664 534.925 487.507 544.138 Q481.396 553.305 469.775 553.305 Q458.155 553.305 451.998 544.138 Q445.887 534.925 445.887 517.471 Q445.887 499.972 451.998 490.805 Q458.155 481.592 469.775 481.592 Z" fill="#000000" fill-rule="nonzero" fill-opacity="1" /><path clip-path="url(#clip130)" d="M530.099 488.999 Q522.877 488.999 519.22 496.129 Q515.608 503.212 515.608 517.471 Q515.608 531.684 519.22 538.814 Q522.877 545.897 530.099 545.897 Q537.368 545.897 540.979 538.814 Q544.636 531.684 544.636 517.471 Q544.636 503.212 540.979 496.129 Q537.368 488.999 530.099 488.999 M530.099 481.592 Q541.719 481.592 547.831 490.805 Q553.988 499.972 553.988 517.471 Q553.988 534.925 547.831 544.138 Q541.719 553.305 530.099 553.305 Q518.479 553.305 512.321 544.138 Q506.21 534.925 506.21 517.471 Q506.21 499.972 512.321 490.805 Q518.479 481.592 530.099 481.592 Z" fill="#000000" fill-rule="nonzero" fill-opacity="1" /><path clip-path="url(#clip130)" d="M570.423 540.203 L580.191 540.203 L580.191 551.962 L570.423 551.962 L570.423 540.203 Z" fill="#000000" fill-rule="nonzero" fill-opacity="1" /><path clip-path="url(#clip130)" d="M620.562 488.999 Q613.339 488.999 609.682 496.129 Q606.071 503.212 606.071 517.471 Q606.071 531.684 609.682 538.814 Q613.339 545.897 620.562 545.897 Q627.83 545.897 631.441 538.814 Q635.099 531.684 635.099 517.471 Q635.099 503.212 631.441 496.129 Q627.83 488.999 620.562 488.999 M620.562 481.592 Q632.182 481.592 638.293 490.805 Q644.45 499.972 644.45 517.471 Q644.45 534.925 638.293 544.138 Q632.182 553.305 620.562 553.305 Q608.941 553.305 602.784 544.138 Q596.673 534.925 596.673 517.471 Q596.673 499.972 602.784 490.805 Q608.941 481.592 620.562 481.592 Z" fill="#000000" fill-rule="nonzero" fill-opacity="1" /><path clip-path="url(#clip130)" d="M397.507 297.683 L430.146 297.683 L430.146 305.553 L386.257 305.553 L386.257 297.683 Q391.581 292.173 400.748 282.914 Q409.961 273.609 412.322 270.923 Q416.813 265.877 418.572 262.405 Q420.378 258.886 420.378 255.507 Q420.378 249.998 416.489 246.525 Q412.646 243.053 406.442 243.053 Q402.044 243.053 397.137 244.581 Q392.276 246.109 386.72 249.211 L386.72 239.766 Q392.368 237.498 397.276 236.34 Q402.183 235.183 406.257 235.183 Q416.998 235.183 423.387 240.553 Q429.776 245.924 429.776 254.905 Q429.776 259.164 428.155 263.007 Q426.581 266.803 422.368 271.988 Q421.211 273.331 415.007 279.766 Q408.803 286.155 397.507 297.683 Z" fill="#000000" fill-rule="nonzero" fill-opacity="1" /><path clip-path="url(#clip130)" d="M457.831 297.683 L490.47 297.683 L490.47 305.553 L446.581 305.553 L446.581 297.683 Q451.905 292.173 461.072 282.914 Q470.285 273.609 472.646 270.923 Q477.136 265.877 478.896 262.405 Q480.701 258.886 480.701 255.507 Q480.701 249.998 476.812 246.525 Q472.97 243.053 466.766 243.053 Q462.368 243.053 457.461 244.581 Q452.6 246.109 447.044 249.211 L447.044 239.766 Q452.692 237.498 457.6 236.34 Q462.507 235.183 466.581 235.183 Q477.322 235.183 483.71 240.553 Q490.099 245.924 490.099 254.905 Q490.099 259.164 488.479 263.007 Q486.905 266.803 482.692 271.988 Q481.535 273.331 475.331 279.766 Q469.127 286.155 457.831 297.683 Z" fill="#000000" fill-rule="nonzero" fill-opacity="1" /><path clip-path="url(#clip130)" d="M510.192 236.433 L546.905 236.433 L546.905 244.303 L518.757 244.303 L518.757 261.248 Q520.794 260.553 522.831 260.229 Q524.868 259.859 526.905 259.859 Q538.479 259.859 545.238 266.201 Q551.997 272.544 551.997 283.377 Q551.997 294.534 545.053 300.738 Q538.108 306.895 525.47 306.895 Q521.118 306.895 516.581 306.155 Q512.09 305.414 507.275 303.932 L507.275 294.534 Q511.442 296.803 515.886 297.914 Q520.331 299.025 525.284 299.025 Q533.294 299.025 537.969 294.812 Q542.645 290.599 542.645 283.377 Q542.645 276.155 537.969 271.942 Q533.294 267.729 525.284 267.729 Q521.534 267.729 517.784 268.562 Q514.081 269.396 510.192 271.155 L510.192 236.433 Z" fill="#000000" fill-rule="nonzero" fill-opacity="1" /><path clip-path="url(#clip130)" d="M570.423 293.794 L580.191 293.794 L580.191 305.553 L570.423 305.553 L570.423 293.794 Z" fill="#000000" fill-rule="nonzero" fill-opacity="1" /><path clip-path="url(#clip130)" d="M620.562 242.59 Q613.339 242.59 609.682 249.72 Q606.071 256.803 606.071 271.062 Q606.071 285.275 609.682 292.405 Q613.339 299.488 620.562 299.488 Q627.83 299.488 631.441 292.405 Q635.099 285.275 635.099 271.062 Q635.099 256.803 631.441 249.72 Q627.83 242.59 620.562 242.59 M620.562 235.183 Q632.182 235.183 638.293 244.396 Q644.45 253.562 644.45 271.062 Q644.45 288.516 638.293 297.729 Q632.182 306.895 620.562 306.895 Q608.941 306.895 602.784 297.729 Q596.673 288.516 596.673 271.062 Q596.673 253.562 602.784 244.396 Q608.941 235.183 620.562 235.183 Z" fill="#000000" fill-rule="nonzero" fill-opacity="1" /><path clip-path="url(#clip130)" d="M311.051 933.755 L348.863 933.755 L348.863 945.532 L250.449 945.532 L250.449 933.755 L261.271 933.755 Q254.905 930.063 251.85 924.461 Q248.731 918.796 248.731 910.966 Q248.731 897.98 259.043 889.895 Q269.356 881.747 286.161 881.747 Q302.966 881.747 313.279 889.895 Q323.591 897.98 323.591 910.966 Q323.591 918.796 320.536 924.461 Q317.417 930.063 311.051 933.755 M286.161 893.906 Q273.239 893.906 265.918 899.253 Q258.534 904.536 258.534 913.83 Q258.534 923.124 265.918 928.471 Q273.239 933.755 286.161 933.755 Q299.083 933.755 306.468 928.471 Q313.788 923.124 313.788 913.83 Q313.788 904.536 306.468 899.253 Q299.083 893.906 286.161 893.906 Z" fill="#000000" fill-rule="nonzero" fill-opacity="1" /><path clip-path="url(#clip130)" d="M285.906 829.93 Q285.906 844.126 289.153 849.6 Q292.399 855.075 300.229 855.075 Q306.468 855.075 310.16 851.001 Q313.788 846.863 313.788 839.797 Q313.788 830.058 306.913 824.201 Q299.975 818.281 288.516 818.281 L285.906 818.281 L285.906 829.93 M281.068 806.568 L321.745 806.568 L321.745 818.281 L310.924 818.281 Q317.417 822.291 320.536 828.275 Q323.591 834.259 323.591 842.916 Q323.591 853.865 317.48 860.358 Q311.306 866.788 300.993 866.788 Q288.962 866.788 282.851 858.767 Q276.74 850.683 276.74 834.705 L276.74 818.281 L275.594 818.281 Q267.509 818.281 263.117 823.628 Q258.661 828.912 258.661 838.524 Q258.661 844.635 260.125 850.428 Q261.589 856.221 264.518 861.568 L253.696 861.568 Q251.213 855.139 250.004 849.091 Q248.731 843.044 248.731 837.315 Q248.731 821.846 256.751 814.207 Q264.772 806.568 281.068 806.568 Z" fill="#000000" fill-rule="nonzero" fill-opacity="1" /><path clip-path="url(#clip130)" d="M261.398 741.129 Q260.253 743.102 259.743 745.457 Q259.17 747.749 259.17 750.55 Q259.17 760.48 265.663 765.828 Q272.093 771.111 284.188 771.111 L321.745 771.111 L321.745 782.888 L250.449 782.888 L250.449 771.111 L261.526 771.111 Q255.033 767.419 251.914 761.499 Q248.731 755.579 248.731 747.112 Q248.731 745.903 248.922 744.439 Q249.049 742.975 249.367 741.192 L261.398 741.129 Z" fill="#000000" fill-rule="nonzero" fill-opacity="1" /><path clip-path="url(#clip130)" d="M283.169 670.724 L288.898 670.724 L288.898 724.578 Q300.993 723.814 307.359 717.321 Q313.661 710.764 313.661 699.115 Q313.661 692.367 312.006 686.065 Q310.351 679.7 307.041 673.461 L318.117 673.461 Q320.79 679.763 322.191 686.384 Q323.591 693.004 323.591 699.815 Q323.591 716.875 313.661 726.87 Q303.73 736.8 286.798 736.8 Q269.292 736.8 259.043 727.379 Q248.731 717.894 248.731 701.852 Q248.731 687.466 258.025 679.127 Q267.255 670.724 283.169 670.724 M279.732 682.437 Q270.119 682.564 264.39 687.848 Q258.661 693.068 258.661 701.725 Q258.661 711.528 264.199 717.448 Q269.737 723.305 279.795 724.196 L279.732 682.437 Z" fill="#000000" fill-rule="nonzero" fill-opacity="1" /><path clip-path="url(#clip130)" d="M278.713 592.235 L321.745 592.235 L321.745 603.948 L279.095 603.948 Q268.974 603.948 263.945 607.894 Q258.916 611.841 258.916 619.735 Q258.916 629.22 264.963 634.694 Q271.011 640.169 281.45 640.169 L321.745 640.169 L321.745 651.945 L250.449 651.945 L250.449 640.169 L261.526 640.169 Q255.096 635.967 251.914 630.302 Q248.731 624.573 248.731 617.125 Q248.731 604.839 256.37 598.537 Q263.945 592.235 278.713 592.235 Z" fill="#000000" fill-rule="nonzero" fill-opacity="1" /><path clip-path="url(#clip130)" d="M305.576 567.218 L305.576 553.786 L321.745 553.786 L321.745 567.218 L305.576 567.218 Z" fill="#000000" fill-rule="nonzero" fill-opacity="1" /><path clip-path="url(#clip130)" d="M237.909 449.006 L288.644 481.472 L288.644 449.006 L237.909 449.006 M226.705 452.38 L226.705 436.211 L288.644 436.211 L288.644 422.652 L299.338 422.652 L299.338 436.211 L321.745 436.211 L321.745 449.006 L299.338 449.006 L299.338 491.911 L286.925 491.911 L226.705 452.38 Z" fill="#000000" fill-rule="nonzero" fill-opacity="1" /><polyline clip-path="url(#clip132)" style="stroke:#008000; stroke-linecap:round; stroke-linejoin:round; stroke-width:8; stroke-opacity:1; fill:none" points="726.443,127.862 835.948,227.497 945.454,333.437 1054.96,394.199 1164.46,653.868 1273.97,709.736 1383.48,692.444 1492.98,752.588 1602.49,854.885 1711.99,936.65 1821.5,998.649 1931,1072.8 2040.51,1081.66 2150.01,1118.67 2259.52,1120.81 "/>
<circle clip-path="url(#clip132)" cx="726.443" cy="127.862" r="14.4" fill="#008000" fill-rule="evenodd" fill-opacity="1" stroke="#000000" stroke-opacity="1" stroke-width="6.4"/>
<circle clip-path="url(#clip132)" cx="835.948" cy="227.497" r="14.4" fill="#008000" fill-rule="evenodd" fill-opacity="1" stroke="#000000" stroke-opacity="1" stroke-width="6.4"/>
<circle clip-path="url(#clip132)" cx="945.454" cy="333.437" r="14.4" fill="#008000" fill-rule="evenodd" fill-opacity="1" stroke="#000000" stroke-opacity="1" stroke-width="6.4"/>
<circle clip-path="url(#clip132)" cx="1054.96" cy="394.199" r="14.4" fill="#008000" fill-rule="evenodd" fill-opacity="1" stroke="#000000" stroke-opacity="1" stroke-width="6.4"/>
<circle clip-path="url(#clip132)" cx="1164.46" cy="653.868" r="14.4" fill="#008000" fill-rule="evenodd" fill-opacity="1" stroke="#000000" stroke-opacity="1" stroke-width="6.4"/>
<circle clip-path="url(#clip132)" cx="1273.97" cy="709.736" r="14.4" fill="#008000" fill-rule="evenodd" fill-opacity="1" stroke="#000000" stroke-opacity="1" stroke-width="6.4"/>
<circle clip-path="url(#clip132)" cx="1383.48" cy="692.444" r="14.4" fill="#008000" fill-rule="evenodd" fill-opacity="1" stroke="#000000" stroke-opacity="1" stroke-width="6.4"/>
<circle clip-path="url(#clip132)" cx="1492.98" cy="752.588" r="14.4" fill="#008000" fill-rule="evenodd" fill-opacity="1" stroke="#000000" stroke-opacity="1" stroke-width="6.4"/>
<circle clip-path="url(#clip132)" cx="1602.49" cy="854.885" r="14.4" fill="#008000" fill-rule="evenodd" fill-opacity="1" stroke="#000000" stroke-opacity="1" stroke-width="6.4"/>
<circle clip-path="url(#clip132)" cx="1711.99" cy="936.65" r="14.4" fill="#008000" fill-rule="evenodd" fill-opacity="1" stroke="#000000" stroke-opacity="1" stroke-width="6.4"/>
<circle clip-path="url(#clip132)" cx="1821.5" cy="998.649" r="14.4" fill="#008000" fill-rule="evenodd" fill-opacity="1" stroke="#000000" stroke-opacity="1" stroke-width="6.4"/>
<circle clip-path="url(#clip132)" cx="1931" cy="1072.8" r="14.4" fill="#008000" fill-rule="evenodd" fill-opacity="1" stroke="#000000" stroke-opacity="1" stroke-width="6.4"/>
<circle clip-path="url(#clip132)" cx="2040.51" cy="1081.66" r="14.4" fill="#008000" fill-rule="evenodd" fill-opacity="1" stroke="#000000" stroke-opacity="1" stroke-width="6.4"/>
<circle clip-path="url(#clip132)" cx="2150.01" cy="1118.67" r="14.4" fill="#008000" fill-rule="evenodd" fill-opacity="1" stroke="#000000" stroke-opacity="1" stroke-width="6.4"/>
<circle clip-path="url(#clip132)" cx="2259.52" cy="1120.81" r="14.4" fill="#008000" fill-rule="evenodd" fill-opacity="1" stroke="#000000" stroke-opacity="1" stroke-width="6.4"/>
<polyline clip-path="url(#clip132)" style="stroke:#00008b; stroke-linecap:round; stroke-linejoin:round; stroke-width:8; stroke-opacity:1; fill:none" points="726.443,185.767 835.948,367.129 945.454,478.215 1054.96,564.258 1164.46,642.802 1273.97,714.522 1383.48,783.321 1492.98,840.118 1602.49,898.078 1711.99,953.712 1821.5,1005.7 1931,1047.48 2040.51,1099.81 2150.01,1145.21 2259.52,1188.42 "/>
<path clip-path="url(#clip132)" d="M726.443 239.892 L835.948 420.651 L945.454 527.993 L1054.96 616.671 L1164.46 695.432 L1273.97 764.344 L1383.48 837.096 L1492.98 892.108 L1602.49 950.169 L1711.99 1008.67 L1821.5 1055.06 L1931 1101.27 L2040.51 1151.99 L2150.01 1195.27 L2259.52 1240.32 L2259.52 1136.9 L2150.01 1094.28 L2040.51 1049.77 L1931 992.781 L1821.5 955.479 L1711.99 898.296 L1602.49 846.361 L1492.98 787.956 L1383.48 729.029 L1273.97 661.254 L1164.46 587.467 L1054.96 514.085 L945.454 426.533 L835.948 315.363 L726.443 132.825  Z" fill="#0000ff" fill-rule="evenodd" fill-opacity="0.1"/>
<polyline clip-path="url(#clip132)" style="stroke:#0000ff; stroke-linecap:round; stroke-linejoin:round; stroke-width:0; stroke-opacity:0.1; fill:none" points="726.443,239.892 835.948,420.651 945.454,527.993 1054.96,616.671 1164.46,695.432 1273.97,764.344 1383.48,837.096 1492.98,892.108 1602.49,950.169 1711.99,1008.67 1821.5,1055.06 1931,1101.27 2040.51,1151.99 2150.01,1195.27 2259.52,1240.32 "/>
</svg>
