<?xml version="1.0" encoding="utf-8"?>
<svg xmlns="http://www.w3.org/2000/svg" xmlns:xlink="http://www.w3.org/1999/xlink" width="600" height="400" viewBox="0 0 2400 1600">
<defs>
  <clipPath id="clip810">
    <rect x="0" y="0" width="2400" height="1600"/>
  </clipPath>
</defs>
<path clip-path="url(#clip810)" d="M0 1600 L2400 1600 L2400 0 L0 0  Z" fill="#ffffff" fill-rule="evenodd" fill-opacity="1"/>
<defs>
  <clipPath id="clip811">
    <rect x="480" y="0" width="1681" height="1600"/>
  </clipPath>
</defs>
<path clip-path="url(#clip810)" d="M685.08 1273.7 L2305.51 1273.7 L2305.51 94.4882 L685.08 94.4882  Z" fill="#ffffff" fill-rule="evenodd" fill-opacity="1"/>
<defs>
  <clipPath id="clip812">
    <rect x="685" y="94" width="1621" height="1180"/>
  </clipPath>
</defs>
<polyline clip-path="url(#clip812)" style="stroke:#000000; stroke-linecap:round; stroke-linejoin:round; stroke-width:4; stroke-opacity:0.1; fill:none" points="730.941,1273.7 730.941,94.4882 "/>
<polyline clip-path="url(#clip812)" style="stroke:#000000; stroke-linecap:round; stroke-linejoin:round; stroke-width:4; stroke-opacity:0.1; fill:none" points="1003.93,1273.7 1003.93,94.4882 "/>
<polyline clip-path="url(#clip812)" style="stroke:#000000; stroke-linecap:round; stroke-linejoin:round; stroke-width:4; stroke-opacity:0.1; fill:none" points="1276.91,1273.7 1276.91,94.4882 "/>
<polyline clip-path="url(#clip812)" style="stroke:#000000; stroke-linecap:round; stroke-linejoin:round; stroke-width:4; stroke-opacity:0.1; fill:none" points="1549.89,1273.7 1549.89,94.4882 "/>
<polyline clip-path="url(#clip812)" style="stroke:#000000; stroke-linecap:round; stroke-linejoin:round; stroke-width:4; stroke-opacity:0.1; fill:none" points="1822.88,1273.7 1822.88,94.4882 "/>
<polyline clip-path="url(#clip812)" style="stroke:#000000; stroke-linecap:round; stroke-linejoin:round; stroke-width:4; stroke-opacity:0.1; fill:none" points="2095.86,1273.7 2095.86,94.4882 "/>
<polyline clip-path="url(#clip810)" style="stroke:#000000; stroke-linecap:round; stroke-linejoin:round; stroke-width:8; stroke-opacity:1; fill:none" points="685.08,1273.7 2305.51,1273.7 "/>
<polyline clip-path="url(#clip810)" style="stroke:#000000; stroke-linecap:round; stroke-linejoin:round; stroke-width:8; stroke-opacity:1; fill:none" points="730.941,1273.7 730.941,1254.8 "/>
<polyline clip-path="url(#clip810)" style="stroke:#000000; stroke-linecap:round; stroke-linejoin:round; stroke-width:8; stroke-opacity:1; fill:none" points="1003.93,1273.7 1003.93,1254.8 "/>
<polyline clip-path="url(#clip810)" style="stroke:#000000; stroke-linecap:round; stroke-linejoin:round; stroke-width:8; stroke-opacity:1; fill:none" points="1276.91,1273.7 1276.91,1254.8 "/>
<polyline clip-path="url(#clip810)" style="stroke:#000000; stroke-linecap:round; stroke-linejoin:round; stroke-width:8; stroke-opacity:1; fill:none" points="1549.89,1273.7 1549.89,1254.8 "/>
<polyline clip-path="url(#clip810)" style="stroke:#000000; stroke-linecap:round; stroke-linejoin:round; stroke-width:8; stroke-opacity:1; fill:none" points="1822.88,1273.7 1822.88,1254.8 "/>
<polyline clip-path="url(#clip810)" style="stroke:#000000; stroke-linecap:round; stroke-linejoin:round; stroke-width:8; stroke-opacity:1; fill:none" points="2095.86,1273.7 2095.86,1254.8 "/>
<path clip-path="url(#clip810)" d="M655.548 1316.33 Q648.326 1316.33 644.669 1323.46 Q641.057 1330.55 641.057 1344.81 Q641.057 1359.02 644.669 1366.15 Q648.326 1373.23 655.548 1373.23 Q662.817 1373.23 666.428 1366.15 Q670.085 1359.02 670.085 1344.81 Q670.085 1330.55 666.428 1323.46 Q662.817 1316.33 655.548 1316.33 M655.548 1308.93 Q667.168 1308.93 673.28 1318.14 Q679.437 1327.31 679.437 1344.81 Q679.437 1362.26 673.28 1371.47 Q667.168 1380.64 655.548 1380.64 Q643.928 1380.64 637.77 1371.47 Q631.659 1362.26 631.659 1344.81 Q631.659 1327.31 637.77 1318.14 Q643.928 1308.93 655.548 1308.93 Z" fill="#000000" fill-rule="nonzero" fill-opacity="1" /><path clip-path="url(#clip810)" d="M695.872 1367.54 L705.64 1367.54 L705.64 1379.3 L695.872 1379.3 L695.872 1367.54 Z" fill="#000000" fill-rule="nonzero" fill-opacity="1" /><path clip-path="url(#clip810)" d="M746.011 1316.33 Q738.788 1316.33 735.131 1323.46 Q731.52 1330.55 731.52 1344.81 Q731.52 1359.02 735.131 1366.15 Q738.788 1373.23 746.011 1373.23 Q753.279 1373.23 756.89 1366.15 Q760.548 1359.02 760.548 1344.81 Q760.548 1330.55 756.89 1323.46 Q753.279 1316.33 746.011 1316.33 M746.011 1308.93 Q757.631 1308.93 763.742 1318.14 Q769.899 1327.31 769.899 1344.81 Q769.899 1362.26 763.742 1371.47 Q757.631 1380.64 746.011 1380.64 Q734.39 1380.64 728.233 1371.47 Q722.122 1362.26 722.122 1344.81 Q722.122 1327.31 728.233 1318.14 Q734.39 1308.93 746.011 1308.93 Z" fill="#000000" fill-rule="nonzero" fill-opacity="1" /><path clip-path="url(#clip810)" d="M806.334 1316.33 Q799.112 1316.33 795.455 1323.46 Q791.844 1330.55 791.844 1344.81 Q791.844 1359.02 795.455 1366.15 Q799.112 1373.23 806.334 1373.23 Q813.603 1373.23 817.214 1366.15 Q820.871 1359.02 820.871 1344.81 Q820.871 1330.55 817.214 1323.46 Q813.603 1316.33 806.334 1316.33 M806.334 1308.93 Q817.955 1308.93 824.066 1318.14 Q830.223 1327.31 830.223 1344.81 Q830.223 1362.26 824.066 1371.47 Q817.955 1380.64 806.334 1380.64 Q794.714 1380.64 788.557 1371.47 Q782.446 1362.26 782.446 1344.81 Q782.446 1327.31 788.557 1318.14 Q794.714 1308.93 806.334 1308.93 Z" fill="#000000" fill-rule="nonzero" fill-opacity="1" /><path clip-path="url(#clip810)" d="M929.527 1316.33 Q922.305 1316.33 918.648 1323.46 Q915.037 1330.55 915.037 1344.81 Q915.037 1359.02 918.648 1366.15 Q922.305 1373.23 929.527 1373.23 Q936.796 1373.23 940.407 1366.15 Q944.064 1359.02 944.064 1344.81 Q944.064 1330.55 940.407 1323.46 Q936.796 1316.33 929.527 1316.33 M929.527 1308.93 Q941.148 1308.93 947.259 1318.14 Q953.416 1327.31 953.416 1344.81 Q953.416 1362.26 947.259 1371.47 Q941.148 1380.64 929.527 1380.64 Q917.907 1380.64 911.75 1371.47 Q905.639 1362.26 905.639 1344.81 Q905.639 1327.31 911.75 1318.14 Q917.907 1308.93 929.527 1308.93 Z" fill="#000000" fill-rule="nonzero" fill-opacity="1" /><path clip-path="url(#clip810)" d="M969.851 1367.54 L979.62 1367.54 L979.62 1379.3 L969.851 1379.3 L969.851 1367.54 Z" fill="#000000" fill-rule="nonzero" fill-opacity="1" /><path clip-path="url(#clip810)" d="M1008.05 1371.43 L1040.68 1371.43 L1040.68 1379.3 L996.795 1379.3 L996.795 1371.43 Q1002.12 1365.92 1011.29 1356.66 Q1020.5 1347.35 1022.86 1344.67 Q1027.35 1339.62 1029.11 1336.15 Q1030.92 1332.63 1030.92 1329.25 Q1030.92 1323.74 1027.03 1320.27 Q1023.18 1316.8 1016.98 1316.8 Q1012.58 1316.8 1007.68 1318.32 Q1002.81 1319.85 997.258 1322.95 L997.258 1313.51 Q1002.91 1311.24 1007.81 1310.08 Q1012.72 1308.93 1016.8 1308.93 Q1027.54 1308.93 1033.92 1314.3 Q1040.31 1319.67 1040.31 1328.65 Q1040.31 1332.91 1038.69 1336.75 Q1037.12 1340.55 1032.91 1345.73 Q1031.75 1347.07 1025.55 1353.51 Q1019.34 1359.9 1008.05 1371.43 Z" fill="#000000" fill-rule="nonzero" fill-opacity="1" /><path clip-path="url(#clip810)" d="M1060.41 1310.18 L1097.12 1310.18 L1097.12 1318.05 L1068.97 1318.05 L1068.97 1334.99 Q1071.01 1334.3 1073.05 1333.97 Q1075.08 1333.6 1077.12 1333.6 Q1088.69 1333.6 1095.45 1339.94 Q1102.21 1346.29 1102.21 1357.12 Q1102.21 1368.28 1095.27 1374.48 Q1088.32 1380.64 1075.68 1380.64 Q1071.33 1380.64 1066.8 1379.9 Q1062.3 1379.16 1057.49 1377.68 L1057.49 1368.28 Q1061.66 1370.55 1066.1 1371.66 Q1070.55 1372.77 1075.5 1372.77 Q1083.51 1372.77 1088.18 1368.56 Q1092.86 1364.34 1092.86 1357.12 Q1092.86 1349.9 1088.18 1345.68 Q1083.51 1341.47 1075.5 1341.47 Q1071.75 1341.47 1068 1342.31 Q1064.3 1343.14 1060.41 1344.9 L1060.41 1310.18 Z" fill="#000000" fill-rule="nonzero" fill-opacity="1" /><path clip-path="url(#clip810)" d="M1201.52 1316.33 Q1194.29 1316.33 1190.64 1323.46 Q1187.03 1330.55 1187.03 1344.81 Q1187.03 1359.02 1190.64 1366.15 Q1194.29 1373.23 1201.52 1373.23 Q1208.78 1373.23 1212.4 1366.15 Q1216.05 1359.02 1216.05 1344.81 Q1216.05 1330.55 1212.4 1323.46 Q1208.78 1316.33 1201.52 1316.33 M1201.52 1308.93 Q1213.14 1308.93 1219.25 1318.14 Q1225.4 1327.31 1225.4 1344.81 Q1225.4 1362.26 1219.25 1371.47 Q1213.14 1380.64 1201.52 1380.64 Q1189.9 1380.64 1183.74 1371.47 Q1177.63 1362.26 1177.63 1344.81 Q1177.63 1327.31 1183.74 1318.14 Q1189.9 1308.93 1201.52 1308.93 Z" fill="#000000" fill-rule="nonzero" fill-opacity="1" /><path clip-path="url(#clip810)" d="M1241.84 1367.54 L1251.61 1367.54 L1251.61 1379.3 L1241.84 1379.3 L1241.84 1367.54 Z" fill="#000000" fill-rule="nonzero" fill-opacity="1" /><path clip-path="url(#clip810)" d="M1272.07 1310.18 L1308.78 1310.18 L1308.78 1318.05 L1280.64 1318.05 L1280.64 1334.99 Q1282.67 1334.3 1284.71 1333.97 Q1286.75 1333.6 1288.78 1333.6 Q1300.36 1333.6 1307.12 1339.94 Q1313.88 1346.29 1313.88 1357.12 Q1313.88 1368.28 1306.93 1374.48 Q1299.99 1380.64 1287.35 1380.64 Q1283 1380.64 1278.46 1379.9 Q1273.97 1379.16 1269.15 1377.68 L1269.15 1368.28 Q1273.32 1370.55 1277.77 1371.66 Q1282.21 1372.77 1287.16 1372.77 Q1295.17 1372.77 1299.85 1368.56 Q1304.52 1364.34 1304.52 1357.12 Q1304.52 1349.9 1299.85 1345.68 Q1295.17 1341.47 1287.16 1341.47 Q1283.41 1341.47 1279.66 1342.31 Q1275.96 1343.14 1272.07 1344.9 L1272.07 1310.18 Z" fill="#000000" fill-rule="nonzero" fill-opacity="1" /><path clip-path="url(#clip810)" d="M1352.3 1316.33 Q1345.08 1316.33 1341.42 1323.46 Q1337.81 1330.55 1337.81 1344.81 Q1337.81 1359.02 1341.42 1366.15 Q1345.08 1373.23 1352.3 1373.23 Q1359.57 1373.23 1363.18 1366.15 Q1366.84 1359.02 1366.84 1344.81 Q1366.84 1330.55 1363.18 1323.46 Q1359.57 1316.33 1352.3 1316.33 M1352.3 1308.93 Q1363.92 1308.93 1370.03 1318.14 Q1376.19 1327.31 1376.19 1344.81 Q1376.19 1362.26 1370.03 1371.47 Q1363.92 1380.64 1352.3 1380.64 Q1340.68 1380.64 1334.52 1371.47 Q1328.41 1362.26 1328.41 1344.81 Q1328.41 1327.31 1334.52 1318.14 Q1340.68 1308.93 1352.3 1308.93 Z" fill="#000000" fill-rule="nonzero" fill-opacity="1" /><path clip-path="url(#clip810)" d="M1475.49 1316.33 Q1468.27 1316.33 1464.62 1323.46 Q1461 1330.55 1461 1344.81 Q1461 1359.02 1464.62 1366.15 Q1468.27 1373.23 1475.49 1373.23 Q1482.76 1373.23 1486.37 1366.15 Q1490.03 1359.02 1490.03 1344.81 Q1490.03 1330.55 1486.37 1323.46 Q1482.76 1316.33 1475.49 1316.33 M1475.49 1308.93 Q1487.12 1308.93 1493.23 1318.14 Q1499.38 1327.31 1499.38 1344.81 Q1499.38 1362.26 1493.23 1371.47 Q1487.12 1380.64 1475.49 1380.64 Q1463.87 1380.64 1457.72 1371.47 Q1451.61 1362.26 1451.61 1344.81 Q1451.61 1327.31 1457.72 1318.14 Q1463.87 1308.93 1475.49 1308.93 Z" fill="#000000" fill-rule="nonzero" fill-opacity="1" /><path clip-path="url(#clip810)" d="M1515.82 1367.54 L1525.59 1367.54 L1525.59 1379.3 L1515.82 1379.3 L1515.82 1367.54 Z" fill="#000000" fill-rule="nonzero" fill-opacity="1" /><path clip-path="url(#clip810)" d="M1543.6 1310.18 L1588.04 1310.18 L1588.04 1314.16 L1562.95 1379.3 L1553.18 1379.3 L1576.79 1318.05 L1543.6 1318.05 L1543.6 1310.18 Z" fill="#000000" fill-rule="nonzero" fill-opacity="1" /><path clip-path="url(#clip810)" d="M1606.37 1310.18 L1643.09 1310.18 L1643.09 1318.05 L1614.94 1318.05 L1614.94 1334.99 Q1616.98 1334.3 1619.01 1333.97 Q1621.05 1333.6 1623.09 1333.6 Q1634.66 1333.6 1641.42 1339.94 Q1648.18 1346.29 1648.18 1357.12 Q1648.18 1368.28 1641.23 1374.48 Q1634.29 1380.64 1621.65 1380.64 Q1617.3 1380.64 1612.76 1379.9 Q1608.27 1379.16 1603.46 1377.68 L1603.46 1368.28 Q1607.62 1370.55 1612.07 1371.66 Q1616.51 1372.77 1621.47 1372.77 Q1629.48 1372.77 1634.15 1368.56 Q1638.83 1364.34 1638.83 1357.12 Q1638.83 1349.9 1634.15 1345.68 Q1629.48 1341.47 1621.47 1341.47 Q1617.72 1341.47 1613.97 1342.31 Q1610.26 1343.14 1606.37 1344.9 L1606.37 1310.18 Z" fill="#000000" fill-rule="nonzero" fill-opacity="1" /><path clip-path="url(#clip810)" d="M1727.02 1371.43 L1742.3 1371.43 L1742.3 1318.69 L1725.68 1322.03 L1725.68 1313.51 L1742.21 1310.18 L1751.56 1310.18 L1751.56 1371.43 L1766.84 1371.43 L1766.84 1379.3 L1727.02 1379.3 L1727.02 1371.43 Z" fill="#000000" fill-rule="nonzero" fill-opacity="1" /><path clip-path="url(#clip810)" d="M1785.72 1367.54 L1795.49 1367.54 L1795.49 1379.3 L1785.72 1379.3 L1785.72 1367.54 Z" fill="#000000" fill-rule="nonzero" fill-opacity="1" /><path clip-path="url(#clip810)" d="M1835.86 1316.33 Q1828.64 1316.33 1824.98 1323.46 Q1821.37 1330.55 1821.37 1344.81 Q1821.37 1359.02 1824.98 1366.15 Q1828.64 1373.23 1835.86 1373.23 Q1843.13 1373.23 1846.74 1366.15 Q1850.4 1359.02 1850.4 1344.81 Q1850.4 1330.55 1846.74 1323.46 Q1843.13 1316.33 1835.86 1316.33 M1835.86 1308.93 Q1847.48 1308.93 1853.59 1318.14 Q1859.75 1327.31 1859.75 1344.81 Q1859.75 1362.26 1853.59 1371.47 Q1847.48 1380.64 1835.86 1380.64 Q1824.24 1380.64 1818.08 1371.47 Q1811.97 1362.26 1811.97 1344.81 Q1811.97 1327.31 1818.08 1318.14 Q1824.24 1308.93 1835.86 1308.93 Z" fill="#000000" fill-rule="nonzero" fill-opacity="1" /><path clip-path="url(#clip810)" d="M1896.19 1316.33 Q1888.96 1316.33 1885.31 1323.46 Q1881.7 1330.55 1881.7 1344.81 Q1881.7 1359.02 1885.31 1366.15 Q1888.96 1373.23 1896.19 1373.23 Q1903.45 1373.23 1907.07 1366.15 Q1910.72 1359.02 1910.72 1344.81 Q1910.72 1330.55 1907.07 1323.46 Q1903.45 1316.33 1896.19 1316.33 M1896.19 1308.93 Q1907.81 1308.93 1913.92 1318.14 Q1920.08 1327.31 1920.08 1344.81 Q1920.08 1362.26 1913.92 1371.47 Q1907.81 1380.64 1896.19 1380.64 Q1884.57 1380.64 1878.41 1371.47 Q1872.3 1362.26 1872.3 1344.81 Q1872.3 1327.31 1878.41 1318.14 Q1884.57 1308.93 1896.19 1308.93 Z" fill="#000000" fill-rule="nonzero" fill-opacity="1" /><path clip-path="url(#clip810)" d="M2001 1371.43 L2016.28 1371.43 L2016.28 1318.69 L1999.66 1322.03 L1999.66 1313.51 L2016.18 1310.18 L2025.54 1310.18 L2025.54 1371.43 L2040.81 1371.43 L2040.81 1379.3 L2001 1379.3 L2001 1371.43 Z" fill="#000000" fill-rule="nonzero" fill-opacity="1" /><path clip-path="url(#clip810)" d="M2059.7 1367.54 L2069.47 1367.54 L2069.47 1379.3 L2059.7 1379.3 L2059.7 1367.54 Z" fill="#000000" fill-rule="nonzero" fill-opacity="1" /><path clip-path="url(#clip810)" d="M2097.9 1371.43 L2130.54 1371.43 L2130.54 1379.3 L2086.65 1379.3 L2086.65 1371.43 Q2091.97 1365.92 2101.14 1356.66 Q2110.35 1347.35 2112.71 1344.67 Q2117.2 1339.62 2118.96 1336.15 Q2120.77 1332.63 2120.77 1329.25 Q2120.77 1323.74 2116.88 1320.27 Q2113.04 1316.8 2106.83 1316.8 Q2102.43 1316.8 2097.53 1318.32 Q2092.67 1319.85 2087.11 1322.95 L2087.11 1313.51 Q2092.76 1311.24 2097.67 1310.08 Q2102.57 1308.93 2106.65 1308.93 Q2117.39 1308.93 2123.78 1314.3 Q2130.17 1319.67 2130.17 1328.65 Q2130.17 1332.91 2128.55 1336.75 Q2126.97 1340.55 2122.76 1345.73 Q2121.6 1347.07 2115.4 1353.51 Q2109.19 1359.9 2097.9 1371.43 Z" fill="#000000" fill-rule="nonzero" fill-opacity="1" /><path clip-path="url(#clip810)" d="M2150.26 1310.18 L2186.97 1310.18 L2186.97 1318.05 L2158.82 1318.05 L2158.82 1334.99 Q2160.86 1334.3 2162.9 1333.97 Q2164.93 1333.6 2166.97 1333.6 Q2178.54 1333.6 2185.3 1339.94 Q2192.06 1346.29 2192.06 1357.12 Q2192.06 1368.28 2185.12 1374.48 Q2178.17 1380.64 2165.54 1380.64 Q2161.18 1380.64 2156.65 1379.9 Q2152.16 1379.16 2147.34 1377.68 L2147.34 1368.28 Q2151.51 1370.55 2155.95 1371.66 Q2160.4 1372.77 2165.35 1372.77 Q2173.36 1372.77 2178.04 1368.56 Q2182.71 1364.34 2182.71 1357.12 Q2182.71 1349.9 2178.04 1345.68 Q2173.36 1341.47 2165.35 1341.47 Q2161.6 1341.47 2157.85 1342.31 Q2154.15 1343.14 2150.26 1344.9 L2150.26 1310.18 Z" fill="#000000" fill-rule="nonzero" fill-opacity="1" /><path clip-path="url(#clip810)" d="M1380.84 1484.39 L1380.84 1527.42 L1369.13 1527.42 L1369.13 1484.77 Q1369.13 1474.65 1365.18 1469.62 Q1361.23 1464.59 1353.34 1464.59 Q1343.86 1464.59 1338.38 1470.64 Q1332.91 1476.69 1332.91 1487.13 L1332.91 1527.42 L1321.13 1527.42 L1321.13 1428.37 L1332.91 1428.37 L1332.91 1467.2 Q1337.11 1460.77 1342.77 1457.59 Q1348.5 1454.41 1355.95 1454.41 Q1368.24 1454.41 1374.54 1462.05 Q1380.84 1469.62 1380.84 1484.39 Z" fill="#000000" fill-rule="nonzero" fill-opacity="1" /><path clip-path="url(#clip810)" d="M1431.83 1464.34 Q1422.41 1464.34 1416.93 1471.72 Q1411.46 1479.04 1411.46 1491.84 Q1411.46 1504.63 1416.87 1512.02 Q1422.34 1519.34 1431.83 1519.34 Q1441.19 1519.34 1446.66 1511.96 Q1452.14 1504.57 1452.14 1491.84 Q1452.14 1479.17 1446.66 1471.79 Q1441.19 1464.34 1431.83 1464.34 M1431.83 1454.41 Q1447.11 1454.41 1455.83 1464.34 Q1464.55 1474.27 1464.55 1491.84 Q1464.55 1509.35 1455.83 1519.34 Q1447.11 1529.27 1431.83 1529.27 Q1416.49 1529.27 1407.77 1519.34 Q1399.11 1509.35 1399.11 1491.84 Q1399.11 1474.27 1407.77 1464.34 Q1416.49 1454.41 1431.83 1454.41 Z" fill="#000000" fill-rule="nonzero" fill-opacity="1" /><path clip-path="url(#clip810)" d="M1482.76 1499.29 L1482.76 1456.13 L1494.47 1456.13 L1494.47 1498.84 Q1494.47 1508.96 1498.42 1514.06 Q1502.36 1519.08 1510.26 1519.08 Q1519.74 1519.08 1525.21 1513.04 Q1530.75 1506.99 1530.75 1496.55 L1530.75 1456.13 L1542.47 1456.13 L1542.47 1527.42 L1530.75 1527.42 L1530.75 1516.47 Q1526.49 1522.97 1520.82 1526.15 Q1515.22 1529.27 1507.77 1529.27 Q1495.49 1529.27 1489.12 1521.63 Q1482.76 1513.99 1482.76 1499.29 M1512.23 1454.41 L1512.23 1454.41 Z" fill="#000000" fill-rule="nonzero" fill-opacity="1" /><path clip-path="url(#clip810)" d="M1607.91 1467.08 Q1605.93 1465.93 1603.58 1465.42 Q1601.28 1464.85 1598.48 1464.85 Q1588.55 1464.85 1583.21 1471.34 Q1577.92 1477.77 1577.92 1489.87 L1577.92 1527.42 L1566.15 1527.42 L1566.15 1456.13 L1577.92 1456.13 L1577.92 1467.2 Q1581.61 1460.71 1587.53 1457.59 Q1593.46 1454.41 1601.92 1454.41 Q1603.13 1454.41 1604.6 1454.6 Q1606.06 1454.73 1607.84 1455.05 L1607.91 1467.08 Z" fill="#000000" fill-rule="nonzero" fill-opacity="1" /><path clip-path="url(#clip810)" d="M1665.64 1458.23 L1665.64 1469.3 Q1660.68 1466.76 1655.33 1465.49 Q1649.98 1464.21 1644.25 1464.21 Q1635.53 1464.21 1631.14 1466.89 Q1626.81 1469.56 1626.81 1474.91 Q1626.81 1478.98 1629.93 1481.34 Q1633.05 1483.63 1642.47 1485.73 L1646.48 1486.62 Q1658.96 1489.29 1664.18 1494.19 Q1669.46 1499.03 1669.46 1507.75 Q1669.46 1517.68 1661.57 1523.48 Q1653.74 1529.27 1639.99 1529.27 Q1634.26 1529.27 1628.02 1528.12 Q1621.85 1527.04 1614.97 1524.81 L1614.97 1512.72 Q1621.46 1516.09 1627.77 1517.81 Q1634.07 1519.47 1640.24 1519.47 Q1648.52 1519.47 1652.97 1516.67 Q1657.43 1513.8 1657.43 1508.64 Q1657.43 1503.87 1654.18 1501.32 Q1651 1498.78 1640.12 1496.42 L1636.04 1495.47 Q1625.16 1493.18 1620.32 1488.47 Q1615.48 1483.69 1615.48 1475.42 Q1615.48 1465.36 1622.61 1459.88 Q1629.74 1454.41 1642.85 1454.41 Q1649.35 1454.41 1655.08 1455.36 Q1660.8 1456.32 1665.64 1458.23 Z" fill="#000000" fill-rule="nonzero" fill-opacity="1" /><polyline clip-path="url(#clip812)" style="stroke:#000000; stroke-linecap:round; stroke-linejoin:round; stroke-width:4; stroke-opacity:0.1; fill:none" points="685.08,1085.39 2305.51,1085.39 "/>
<polyline clip-path="url(#clip812)" style="stroke:#000000; stroke-linecap:round; stroke-linejoin:round; stroke-width:4; stroke-opacity:0.1; fill:none" points="685.08,848.18 2305.51,848.18 "/>
<polyline clip-path="url(#clip812)" style="stroke:#000000; stroke-linecap:round; stroke-linejoin:round; stroke-width:4; stroke-opacity:0.1; fill:none" points="685.08,610.973 2305.51,610.973 "/>
<polyline clip-path="url(#clip812)" style="stroke:#000000; stroke-linecap:round; stroke-linejoin:round; stroke-width:4; stroke-opacity:0.1; fill:none" points="685.08,373.767 2305.51,373.767 "/>
<polyline clip-path="url(#clip812)" style="stroke:#000000; stroke-linecap:round; stroke-linejoin:round; stroke-width:4; stroke-opacity:0.1; fill:none" points="685.08,136.56 2305.51,136.56 "/>
<polyline clip-path="url(#clip810)" style="stroke:#000000; stroke-linecap:round; stroke-linejoin:round; stroke-width:8; stroke-opacity:1; fill:none" points="685.08,1273.7 685.08,94.4882 "/>
<polyline clip-path="url(#clip810)" style="stroke:#000000; stroke-linecap:round; stroke-linejoin:round; stroke-width:8; stroke-opacity:1; fill:none" points="685.08,1085.39 703.978,1085.39 "/>
<polyline clip-path="url(#clip810)" style="stroke:#000000; stroke-linecap:round; stroke-linejoin:round; stroke-width:8; stroke-opacity:1; fill:none" points="685.08,848.18 703.978,848.18 "/>
<polyline clip-path="url(#clip810)" style="stroke:#000000; stroke-linecap:round; stroke-linejoin:round; stroke-width:8; stroke-opacity:1; fill:none" points="685.08,610.973 703.978,610.973 "/>
<polyline clip-path="url(#clip810)" style="stroke:#000000; stroke-linecap:round; stroke-linejoin:round; stroke-width:8; stroke-opacity:1; fill:none" points="685.08,373.767 703.978,373.767 "/>
<polyline clip-path="url(#clip810)" style="stroke:#000000; stroke-linecap:round; stroke-linejoin:round; stroke-width:8; stroke-opacity:1; fill:none" points="685.08,136.56 703.978,136.56 "/>
<path clip-path="url(#clip810)" d="M402.137 1112.08 L434.776 1112.08 L434.776 1119.95 L390.887 1119.95 L390.887 1112.08 Q396.211 1106.57 405.378 1097.31 Q414.59 1088 416.952 1085.32 Q421.442 1080.27 423.202 1076.8 Q425.007 1073.28 425.007 1069.9 Q425.007 1064.39 421.118 1060.92 Q417.276 1057.45 411.072 1057.45 Q406.674 1057.45 401.766 1058.97 Q396.905 1060.5 391.35 1063.6 L391.35 1054.16 Q396.998 1051.89 401.905 1050.73 Q406.813 1049.58 410.887 1049.58 Q421.627 1049.58 428.016 1054.95 Q434.405 1060.32 434.405 1069.3 Q434.405 1073.56 432.785 1077.4 Q431.211 1081.2 426.998 1086.38 Q425.84 1087.72 419.637 1094.16 Q413.433 1100.55 402.137 1112.08 Z" fill="#000000" fill-rule="nonzero" fill-opacity="1" /><path clip-path="url(#clip810)" d="M474.405 1056.98 Q467.183 1056.98 463.525 1064.11 Q459.914 1071.2 459.914 1085.46 Q459.914 1099.67 463.525 1106.8 Q467.183 1113.88 474.405 1113.88 Q481.673 1113.88 485.285 1106.8 Q488.942 1099.67 488.942 1085.46 Q488.942 1071.2 485.285 1064.11 Q481.673 1056.98 474.405 1056.98 M474.405 1049.58 Q486.025 1049.58 492.136 1058.79 Q498.294 1067.96 498.294 1085.46 Q498.294 1102.91 492.136 1112.12 Q486.025 1121.29 474.405 1121.29 Q462.785 1121.29 456.627 1112.12 Q450.516 1102.91 450.516 1085.46 Q450.516 1067.96 456.627 1058.79 Q462.785 1049.58 474.405 1049.58 Z" fill="#000000" fill-rule="nonzero" fill-opacity="1" /><path clip-path="url(#clip810)" d="M534.729 1056.98 Q527.507 1056.98 523.849 1064.11 Q520.238 1071.2 520.238 1085.46 Q520.238 1099.67 523.849 1106.8 Q527.507 1113.88 534.729 1113.88 Q541.997 1113.88 545.608 1106.8 Q549.266 1099.67 549.266 1085.46 Q549.266 1071.2 545.608 1064.11 Q541.997 1056.98 534.729 1056.98 M534.729 1049.58 Q546.349 1049.58 552.46 1058.79 Q558.618 1067.96 558.618 1085.46 Q558.618 1102.91 552.46 1112.12 Q546.349 1121.29 534.729 1121.29 Q523.108 1121.29 516.951 1112.12 Q510.84 1102.91 510.84 1085.46 Q510.84 1067.96 516.951 1058.79 Q523.108 1049.58 534.729 1049.58 Z" fill="#000000" fill-rule="nonzero" fill-opacity="1" /><path clip-path="url(#clip810)" d="M575.053 1108.19 L584.821 1108.19 L584.821 1119.95 L575.053 1119.95 L575.053 1108.19 Z" fill="#000000" fill-rule="nonzero" fill-opacity="1" /><path clip-path="url(#clip810)" d="M625.191 1056.98 Q617.969 1056.98 614.312 1064.11 Q610.701 1071.2 610.701 1085.46 Q610.701 1099.67 614.312 1106.8 Q617.969 1113.88 625.191 1113.88 Q632.46 1113.88 636.071 1106.8 Q639.728 1099.67 639.728 1085.46 Q639.728 1071.2 636.071 1064.11 Q632.46 1056.98 625.191 1056.98 M625.191 1049.58 Q636.812 1049.58 642.923 1058.79 Q649.08 1067.96 649.08 1085.46 Q649.08 1102.91 642.923 1112.12 Q636.812 1121.29 625.191 1121.29 Q613.571 1121.29 607.414 1112.12 Q601.302 1102.91 601.302 1085.46 Q601.302 1067.96 607.414 1058.79 Q613.571 1049.58 625.191 1049.58 Z" fill="#000000" fill-rule="nonzero" fill-opacity="1" /><path clip-path="url(#clip810)" d="M402.137 874.87 L434.776 874.87 L434.776 882.74 L390.887 882.74 L390.887 874.87 Q396.211 869.36 405.378 860.101 Q414.59 850.796 416.952 848.111 Q421.442 843.064 423.202 839.592 Q425.007 836.074 425.007 832.694 Q425.007 827.185 421.118 823.713 Q417.276 820.24 411.072 820.24 Q406.674 820.24 401.766 821.768 Q396.905 823.296 391.35 826.398 L391.35 816.953 Q396.998 814.685 401.905 813.527 Q406.813 812.37 410.887 812.37 Q421.627 812.37 428.016 817.74 Q434.405 823.111 434.405 832.092 Q434.405 836.351 432.785 840.194 Q431.211 843.99 426.998 849.175 Q425.84 850.518 419.637 856.953 Q413.433 863.342 402.137 874.87 Z" fill="#000000" fill-rule="nonzero" fill-opacity="1" /><path clip-path="url(#clip810)" d="M454.498 813.62 L491.21 813.62 L491.21 821.49 L463.062 821.49 L463.062 838.435 Q465.099 837.74 467.137 837.416 Q469.174 837.046 471.211 837.046 Q482.785 837.046 489.544 843.388 Q496.303 849.731 496.303 860.564 Q496.303 871.722 489.359 877.925 Q482.414 884.083 469.775 884.083 Q465.424 884.083 460.887 883.342 Q456.396 882.601 451.581 881.12 L451.581 871.722 Q455.748 873.99 460.192 875.101 Q464.637 876.212 469.59 876.212 Q477.599 876.212 482.275 871.999 Q486.951 867.786 486.951 860.564 Q486.951 853.342 482.275 849.129 Q477.599 844.916 469.59 844.916 Q465.84 844.916 462.09 845.75 Q458.387 846.583 454.498 848.342 L454.498 813.62 Z" fill="#000000" fill-rule="nonzero" fill-opacity="1" /><path clip-path="url(#clip810)" d="M534.729 819.777 Q527.507 819.777 523.849 826.907 Q520.238 833.99 520.238 848.249 Q520.238 862.462 523.849 869.592 Q527.507 876.675 534.729 876.675 Q541.997 876.675 545.608 869.592 Q549.266 862.462 549.266 848.249 Q549.266 833.99 545.608 826.907 Q541.997 819.777 534.729 819.777 M534.729 812.37 Q546.349 812.37 552.46 821.583 Q558.618 830.75 558.618 848.249 Q558.618 865.703 552.46 874.916 Q546.349 884.083 534.729 884.083 Q523.108 884.083 516.951 874.916 Q510.84 865.703 510.84 848.249 Q510.84 830.75 516.951 821.583 Q523.108 812.37 534.729 812.37 Z" fill="#000000" fill-rule="nonzero" fill-opacity="1" /><path clip-path="url(#clip810)" d="M575.053 870.981 L584.821 870.981 L584.821 882.74 L575.053 882.74 L575.053 870.981 Z" fill="#000000" fill-rule="nonzero" fill-opacity="1" /><path clip-path="url(#clip810)" d="M625.191 819.777 Q617.969 819.777 614.312 826.907 Q610.701 833.99 610.701 848.249 Q610.701 862.462 614.312 869.592 Q617.969 876.675 625.191 876.675 Q632.46 876.675 636.071 869.592 Q639.728 862.462 639.728 848.249 Q639.728 833.99 636.071 826.907 Q632.46 819.777 625.191 819.777 M625.191 812.37 Q636.812 812.37 642.923 821.583 Q649.08 830.75 649.08 848.249 Q649.08 865.703 642.923 874.916 Q636.812 884.083 625.191 884.083 Q613.571 884.083 607.414 874.916 Q601.302 865.703 601.302 848.249 Q601.302 830.75 607.414 821.583 Q613.571 812.37 625.191 812.37 Z" fill="#000000" fill-rule="nonzero" fill-opacity="1" /><path clip-path="url(#clip810)" d="M422.415 608.265 Q429.127 609.7 432.877 614.237 Q436.674 618.774 436.674 625.441 Q436.674 635.672 429.637 641.274 Q422.6 646.876 409.637 646.876 Q405.285 646.876 400.655 645.996 Q396.072 645.163 391.165 643.45 L391.165 634.422 Q395.054 636.691 399.683 637.848 Q404.313 639.006 409.359 639.006 Q418.155 639.006 422.739 635.533 Q427.368 632.061 427.368 625.441 Q427.368 619.33 423.063 615.904 Q418.803 612.432 411.165 612.432 L403.109 612.432 L403.109 604.747 L411.535 604.747 Q418.433 604.747 422.09 602.015 Q425.748 599.237 425.748 594.052 Q425.748 588.728 421.952 585.904 Q418.202 583.034 411.165 583.034 Q407.322 583.034 402.924 583.867 Q398.526 584.7 393.248 586.46 L393.248 578.126 Q398.572 576.645 403.202 575.904 Q407.878 575.163 411.998 575.163 Q422.646 575.163 428.85 580.024 Q435.053 584.839 435.053 593.08 Q435.053 598.821 431.766 602.802 Q428.479 606.737 422.415 608.265 Z" fill="#000000" fill-rule="nonzero" fill-opacity="1" /><path clip-path="url(#clip810)" d="M474.405 582.571 Q467.183 582.571 463.525 589.7 Q459.914 596.784 459.914 611.043 Q459.914 625.256 463.525 632.385 Q467.183 639.469 474.405 639.469 Q481.673 639.469 485.285 632.385 Q488.942 625.256 488.942 611.043 Q488.942 596.784 485.285 589.7 Q481.673 582.571 474.405 582.571 M474.405 575.163 Q486.025 575.163 492.136 584.376 Q498.294 593.543 498.294 611.043 Q498.294 628.496 492.136 637.709 Q486.025 646.876 474.405 646.876 Q462.785 646.876 456.627 637.709 Q450.516 628.496 450.516 611.043 Q450.516 593.543 456.627 584.376 Q462.785 575.163 474.405 575.163 Z" fill="#000000" fill-rule="nonzero" fill-opacity="1" /><path clip-path="url(#clip810)" d="M534.729 582.571 Q527.507 582.571 523.849 589.7 Q520.238 596.784 520.238 611.043 Q520.238 625.256 523.849 632.385 Q527.507 639.469 534.729 639.469 Q541.997 639.469 545.608 632.385 Q549.266 625.256 549.266 611.043 Q549.266 596.784 545.608 589.7 Q541.997 582.571 534.729 582.571 M534.729 575.163 Q546.349 575.163 552.46 584.376 Q558.618 593.543 558.618 611.043 Q558.618 628.496 552.46 637.709 Q546.349 646.876 534.729 646.876 Q523.108 646.876 516.951 637.709 Q510.84 628.496 510.84 611.043 Q510.84 593.543 516.951 584.376 Q523.108 575.163 534.729 575.163 Z" fill="#000000" fill-rule="nonzero" fill-opacity="1" /><path clip-path="url(#clip810)" d="M575.053 633.774 L584.821 633.774 L584.821 645.533 L575.053 645.533 L575.053 633.774 Z" fill="#000000" fill-rule="nonzero" fill-opacity="1" /><path clip-path="url(#clip810)" d="M625.191 582.571 Q617.969 582.571 614.312 589.7 Q610.701 596.784 610.701 611.043 Q610.701 625.256 614.312 632.385 Q617.969 639.469 625.191 639.469 Q632.46 639.469 636.071 632.385 Q639.728 625.256 639.728 611.043 Q639.728 596.784 636.071 589.7 Q632.46 582.571 625.191 582.571 M625.191 575.163 Q636.812 575.163 642.923 584.376 Q649.08 593.543 649.08 611.043 Q649.08 628.496 642.923 637.709 Q636.812 646.876 625.191 646.876 Q613.571 646.876 607.414 637.709 Q601.302 628.496 601.302 611.043 Q601.302 593.543 607.414 584.376 Q613.571 575.163 625.191 575.163 Z" fill="#000000" fill-rule="nonzero" fill-opacity="1" /><path clip-path="url(#clip810)" d="M422.415 371.058 Q429.127 372.494 432.877 377.031 Q436.674 381.568 436.674 388.234 Q436.674 398.466 429.637 404.067 Q422.6 409.669 409.637 409.669 Q405.285 409.669 400.655 408.79 Q396.072 407.956 391.165 406.243 L391.165 397.216 Q395.054 399.484 399.683 400.642 Q404.313 401.799 409.359 401.799 Q418.155 401.799 422.739 398.327 Q427.368 394.855 427.368 388.234 Q427.368 382.123 423.063 378.697 Q418.803 375.225 411.165 375.225 L403.109 375.225 L403.109 367.54 L411.535 367.54 Q418.433 367.54 422.09 364.808 Q425.748 362.031 425.748 356.845 Q425.748 351.521 421.952 348.697 Q418.202 345.827 411.165 345.827 Q407.322 345.827 402.924 346.66 Q398.526 347.494 393.248 349.253 L393.248 340.92 Q398.572 339.438 403.202 338.697 Q407.878 337.957 411.998 337.957 Q422.646 337.957 428.85 342.818 Q435.053 347.633 435.053 355.873 Q435.053 361.614 431.766 365.595 Q428.479 369.531 422.415 371.058 Z" fill="#000000" fill-rule="nonzero" fill-opacity="1" /><path clip-path="url(#clip810)" d="M454.498 339.207 L491.21 339.207 L491.21 347.077 L463.062 347.077 L463.062 364.021 Q465.099 363.327 467.137 363.003 Q469.174 362.632 471.211 362.632 Q482.785 362.632 489.544 368.975 Q496.303 375.318 496.303 386.151 Q496.303 397.308 489.359 403.512 Q482.414 409.669 469.775 409.669 Q465.424 409.669 460.887 408.929 Q456.396 408.188 451.581 406.706 L451.581 397.308 Q455.748 399.577 460.192 400.688 Q464.637 401.799 469.59 401.799 Q477.599 401.799 482.275 397.586 Q486.951 393.373 486.951 386.151 Q486.951 378.929 482.275 374.716 Q477.599 370.503 469.59 370.503 Q465.84 370.503 462.09 371.336 Q458.387 372.169 454.498 373.929 L454.498 339.207 Z" fill="#000000" fill-rule="nonzero" fill-opacity="1" /><path clip-path="url(#clip810)" d="M534.729 345.364 Q527.507 345.364 523.849 352.494 Q520.238 359.577 520.238 373.836 Q520.238 388.049 523.849 395.179 Q527.507 402.262 534.729 402.262 Q541.997 402.262 545.608 395.179 Q549.266 388.049 549.266 373.836 Q549.266 359.577 545.608 352.494 Q541.997 345.364 534.729 345.364 M534.729 337.957 Q546.349 337.957 552.46 347.17 Q558.618 356.336 558.618 373.836 Q558.618 391.29 552.46 400.503 Q546.349 409.669 534.729 409.669 Q523.108 409.669 516.951 400.503 Q510.84 391.29 510.84 373.836 Q510.84 356.336 516.951 347.17 Q523.108 337.957 534.729 337.957 Z" fill="#000000" fill-rule="nonzero" fill-opacity="1" /><path clip-path="url(#clip810)" d="M575.053 396.567 L584.821 396.567 L584.821 408.327 L575.053 408.327 L575.053 396.567 Z" fill="#000000" fill-rule="nonzero" fill-opacity="1" /><path clip-path="url(#clip810)" d="M625.191 345.364 Q617.969 345.364 614.312 352.494 Q610.701 359.577 610.701 373.836 Q610.701 388.049 614.312 395.179 Q617.969 402.262 625.191 402.262 Q632.46 402.262 636.071 395.179 Q639.728 388.049 639.728 373.836 Q639.728 359.577 636.071 352.494 Q632.46 345.364 625.191 345.364 M625.191 337.957 Q636.812 337.957 642.923 347.17 Q649.08 356.336 649.08 373.836 Q649.08 391.29 642.923 400.503 Q636.812 409.669 625.191 409.669 Q613.571 409.669 607.414 400.503 Q601.302 391.29 601.302 373.836 Q601.302 356.336 607.414 347.17 Q613.571 337.957 625.191 337.957 Z" fill="#000000" fill-rule="nonzero" fill-opacity="1" /><path clip-path="url(#clip810)" d="M419.776 110.148 L396.165 147.046 L419.776 147.046 L419.776 110.148 M417.322 102 L429.081 102 L429.081 147.046 L438.942 147.046 L438.942 154.824 L429.081 154.824 L429.081 171.12 L419.776 171.12 L419.776 154.824 L388.572 154.824 L388.572 145.796 L417.322 102 Z" fill="#000000" fill-rule="nonzero" fill-opacity="1" /><path clip-path="url(#clip810)" d="M474.405 108.157 Q467.183 108.157 463.525 115.287 Q459.914 122.37 459.914 136.629 Q459.914 150.842 463.525 157.972 Q467.183 165.055 474.405 165.055 Q481.673 165.055 485.285 157.972 Q488.942 150.842 488.942 136.629 Q488.942 122.37 485.285 115.287 Q481.673 108.157 474.405 108.157 M474.405 100.75 Q486.025 100.75 492.136 109.963 Q498.294 119.13 498.294 136.629 Q498.294 154.083 492.136 163.296 Q486.025 172.463 474.405 172.463 Q462.785 172.463 456.627 163.296 Q450.516 154.083 450.516 136.629 Q450.516 119.13 456.627 109.963 Q462.785 100.75 474.405 100.75 Z" fill="#000000" fill-rule="nonzero" fill-opacity="1" /><path clip-path="url(#clip810)" d="M534.729 108.157 Q527.507 108.157 523.849 115.287 Q520.238 122.37 520.238 136.629 Q520.238 150.842 523.849 157.972 Q527.507 165.055 534.729 165.055 Q541.997 165.055 545.608 157.972 Q549.266 150.842 549.266 136.629 Q549.266 122.37 545.608 115.287 Q541.997 108.157 534.729 108.157 M534.729 100.75 Q546.349 100.75 552.46 109.963 Q558.618 119.13 558.618 136.629 Q558.618 154.083 552.46 163.296 Q546.349 172.463 534.729 172.463 Q523.108 172.463 516.951 163.296 Q510.84 154.083 510.84 136.629 Q510.84 119.13 516.951 109.963 Q523.108 100.75 534.729 100.75 Z" fill="#000000" fill-rule="nonzero" fill-opacity="1" /><path clip-path="url(#clip810)" d="M575.053 159.361 L584.821 159.361 L584.821 171.12 L575.053 171.12 L575.053 159.361 Z" fill="#000000" fill-rule="nonzero" fill-opacity="1" /><path clip-path="url(#clip810)" d="M625.191 108.157 Q617.969 108.157 614.312 115.287 Q610.701 122.37 610.701 136.629 Q610.701 150.842 614.312 157.972 Q617.969 165.055 625.191 165.055 Q632.46 165.055 636.071 157.972 Q639.728 150.842 639.728 136.629 Q639.728 122.37 636.071 115.287 Q632.46 108.157 625.191 108.157 M625.191 100.75 Q636.812 100.75 642.923 109.963 Q649.08 119.13 649.08 136.629 Q649.08 154.083 642.923 163.296 Q636.812 172.463 625.191 172.463 Q613.571 172.463 607.414 163.296 Q601.302 154.083 601.302 136.629 Q601.302 119.13 607.414 109.963 Q613.571 100.75 625.191 100.75 Z" fill="#000000" fill-rule="nonzero" fill-opacity="1" /><path clip-path="url(#clip810)" d="M255.501 1099.45 L266.45 1099.45 Q263.713 1104.42 262.376 1109.45 Q260.976 1114.41 260.976 1119.51 Q260.976 1130.9 268.233 1137.2 Q275.426 1143.51 288.476 1143.51 Q301.526 1143.51 308.782 1137.2 Q315.976 1130.9 315.976 1119.51 Q315.976 1114.41 314.639 1109.45 Q313.238 1104.42 310.501 1099.45 L321.323 1099.45 Q323.615 1104.36 324.76 1109.64 Q325.906 1114.86 325.906 1120.78 Q325.906 1136.88 315.785 1146.37 Q305.663 1155.85 288.476 1155.85 Q271.034 1155.85 261.04 1146.31 Q251.045 1136.69 251.045 1120.02 Q251.045 1114.6 252.191 1109.45 Q253.273 1104.29 255.501 1099.45 Z" fill="#000000" fill-rule="nonzero" fill-opacity="1" /><path clip-path="url(#clip810)" d="M260.976 1051.46 Q260.976 1060.88 268.36 1066.35 Q275.681 1071.83 288.476 1071.83 Q301.271 1071.83 308.655 1066.42 Q315.976 1060.94 315.976 1051.46 Q315.976 1042.1 308.591 1036.62 Q301.207 1031.15 288.476 1031.15 Q275.808 1031.15 268.424 1036.62 Q260.976 1042.1 260.976 1051.46 M251.045 1051.46 Q251.045 1036.18 260.976 1027.46 Q270.906 1018.74 288.476 1018.74 Q305.982 1018.74 315.976 1027.46 Q325.906 1036.18 325.906 1051.46 Q325.906 1066.8 315.976 1075.52 Q305.982 1084.18 288.476 1084.18 Q270.906 1084.18 260.976 1075.52 Q251.045 1066.8 251.045 1051.46 Z" fill="#000000" fill-rule="nonzero" fill-opacity="1" /><path clip-path="url(#clip810)" d="M281.028 940.057 L324.06 940.057 L324.06 951.77 L281.41 951.77 Q271.288 951.77 266.259 955.717 Q261.231 959.663 261.231 967.557 Q261.231 977.042 267.278 982.516 Q273.325 987.991 283.765 987.991 L324.06 987.991 L324.06 999.767 L252.764 999.767 L252.764 987.991 L263.841 987.991 Q257.411 983.789 254.228 978.124 Q251.045 972.395 251.045 964.947 Q251.045 952.661 258.684 946.359 Q266.259 940.057 281.028 940.057 Z" fill="#000000" fill-rule="nonzero" fill-opacity="1" /><path clip-path="url(#clip810)" d="M255.501 865.387 L266.45 865.387 Q263.713 870.353 262.376 875.381 Q260.976 880.347 260.976 885.439 Q260.976 896.834 268.233 903.136 Q275.426 909.438 288.476 909.438 Q301.526 909.438 308.782 903.136 Q315.976 896.834 315.976 885.439 Q315.976 880.347 314.639 875.381 Q313.238 870.353 310.501 865.387 L321.323 865.387 Q323.615 870.289 324.76 875.572 Q325.906 880.792 325.906 886.712 Q325.906 902.818 315.785 912.303 Q305.663 921.787 288.476 921.787 Q271.034 921.787 261.04 912.239 Q251.045 902.627 251.045 885.949 Q251.045 880.538 252.191 875.381 Q253.273 870.225 255.501 865.387 Z" fill="#000000" fill-rule="nonzero" fill-opacity="1" /><path clip-path="url(#clip810)" d="M307.891 843.362 L307.891 829.93 L324.06 829.93 L324.06 843.362 L307.891 843.362 Z" fill="#000000" fill-rule="nonzero" fill-opacity="1" /><path clip-path="url(#clip810)" d="M252.764 770.538 L252.764 758.125 L312.602 735.845 L252.764 713.565 L252.764 701.152 L324.06 727.888 L324.06 743.802 L252.764 770.538 Z" fill="#000000" fill-rule="nonzero" fill-opacity="1" /><path clip-path="url(#clip810)" d="M285.484 624 L291.213 624 L291.213 677.854 Q303.308 677.09 309.674 670.597 Q315.976 664.04 315.976 652.391 Q315.976 645.643 314.321 639.341 Q312.666 632.975 309.355 626.737 L320.432 626.737 Q323.105 633.039 324.506 639.659 Q325.906 646.28 325.906 653.091 Q325.906 670.151 315.976 680.145 Q306.045 690.076 289.112 690.076 Q271.607 690.076 261.358 680.654 Q251.045 671.17 251.045 655.128 Q251.045 640.742 260.339 632.402 Q269.57 624 285.484 624 M282.046 635.713 Q272.434 635.84 266.705 641.123 Q260.976 646.343 260.976 655.001 Q260.976 664.804 266.514 670.724 Q272.052 676.58 282.11 677.472 L282.046 635.713 Z" fill="#000000" fill-rule="nonzero" fill-opacity="1" /><path clip-path="url(#clip810)" d="M281.028 545.511 L324.06 545.511 L324.06 557.223 L281.41 557.223 Q271.288 557.223 266.259 561.17 Q261.231 565.117 261.231 573.01 Q261.231 582.495 267.278 587.97 Q273.325 593.444 283.765 593.444 L324.06 593.444 L324.06 605.221 L252.764 605.221 L252.764 593.444 L263.841 593.444 Q257.411 589.243 254.228 583.577 Q251.045 577.848 251.045 570.4 Q251.045 558.115 258.684 551.813 Q266.259 545.511 281.028 545.511 Z" fill="#000000" fill-rule="nonzero" fill-opacity="1" /><path clip-path="url(#clip810)" d="M232.521 510.563 L252.764 510.563 L252.764 486.437 L261.867 486.437 L261.867 510.563 L300.571 510.563 Q309.292 510.563 311.774 508.207 Q314.257 505.789 314.257 498.468 L314.257 486.437 L324.06 486.437 L324.06 498.468 Q324.06 512.027 319.031 517.183 Q313.939 522.339 300.571 522.339 L261.867 522.339 L261.867 530.933 L252.764 530.933 L252.764 522.339 L232.521 522.339 L232.521 510.563 Z" fill="#000000" fill-rule="nonzero" fill-opacity="1" /><path clip-path="url(#clip810)" d="M263.713 429.718 Q262.567 431.692 262.058 434.047 Q261.485 436.339 261.485 439.14 Q261.485 449.07 267.978 454.417 Q274.408 459.701 286.502 459.701 L324.06 459.701 L324.06 471.477 L252.764 471.477 L252.764 459.701 L263.841 459.701 Q257.348 456.009 254.228 450.089 Q251.045 444.168 251.045 435.702 Q251.045 434.493 251.236 433.028 Q251.364 431.564 251.682 429.782 L263.713 429.718 Z" fill="#000000" fill-rule="nonzero" fill-opacity="1" /><path clip-path="url(#clip810)" d="M252.764 417.433 L252.764 405.72 L324.06 405.72 L324.06 417.433 L252.764 417.433 M225.01 417.433 L225.01 405.72 L239.842 405.72 L239.842 417.433 L225.01 417.433 Z" fill="#000000" fill-rule="nonzero" fill-opacity="1" /><path clip-path="url(#clip810)" d="M255.501 329.904 L266.45 329.904 Q263.713 334.869 262.376 339.898 Q260.976 344.863 260.976 349.956 Q260.976 361.351 268.233 367.653 Q275.426 373.955 288.476 373.955 Q301.526 373.955 308.782 367.653 Q315.976 361.351 315.976 349.956 Q315.976 344.863 314.639 339.898 Q313.238 334.869 310.501 329.904 L321.323 329.904 Q323.615 334.806 324.76 340.089 Q325.906 345.309 325.906 351.229 Q325.906 367.334 315.785 376.819 Q305.663 386.304 288.476 386.304 Q271.034 386.304 261.04 376.756 Q251.045 367.143 251.045 350.465 Q251.045 345.054 252.191 339.898 Q253.273 334.742 255.501 329.904 Z" fill="#000000" fill-rule="nonzero" fill-opacity="1" /><path clip-path="url(#clip810)" d="M225.01 309.534 L225.01 297.821 L324.06 297.821 L324.06 309.534 L225.01 309.534 Z" fill="#000000" fill-rule="nonzero" fill-opacity="1" /><path clip-path="url(#clip810)" d="M285.484 212.329 L291.213 212.329 L291.213 266.183 Q303.308 265.419 309.674 258.926 Q315.976 252.37 315.976 240.721 Q315.976 233.973 314.321 227.671 Q312.666 221.305 309.355 215.067 L320.432 215.067 Q323.105 221.369 324.506 227.989 Q325.906 234.609 325.906 241.421 Q325.906 258.481 315.976 268.475 Q306.045 278.405 289.112 278.405 Q271.607 278.405 261.358 268.984 Q251.045 259.499 251.045 243.458 Q251.045 229.071 260.339 220.732 Q269.57 212.329 285.484 212.329 M282.046 224.042 Q272.434 224.17 266.705 229.453 Q260.976 234.673 260.976 243.33 Q260.976 253.134 266.514 259.054 Q272.052 264.91 282.11 265.801 L282.046 224.042 Z" fill="#000000" fill-rule="nonzero" fill-opacity="1" /><polyline clip-path="url(#clip812)" style="stroke:#008000; stroke-linecap:round; stroke-linejoin:round; stroke-width:8; stroke-opacity:1; fill:none" points="730.941,791.001 840.135,747.283 949.328,725.162 1058.52,646.911 1167.72,677.633 1276.91,784.056 1386.1,766.213 1495.3,823.432 1604.49,896.642 1713.68,940.56 1822.88,861.396 1932.07,1011.34 2041.26,1013.87 2150.46,1020.42 2259.65,1038.07 "/>
<circle clip-path="url(#clip812)" cx="730.941" cy="791.001" r="14.4" fill="#008000" fill-rule="evenodd" fill-opacity="1" stroke="#000000" stroke-opacity="1" stroke-width="6.4"/>
<circle clip-path="url(#clip812)" cx="840.135" cy="747.283" r="14.4" fill="#008000" fill-rule="evenodd" fill-opacity="1" stroke="#000000" stroke-opacity="1" stroke-width="6.4"/>
<circle clip-path="url(#clip812)" cx="949.328" cy="725.162" r="14.4" fill="#008000" fill-rule="evenodd" fill-opacity="1" stroke="#000000" stroke-opacity="1" stroke-width="6.4"/>
<circle clip-path="url(#clip812)" cx="1058.52" cy="646.911" r="14.4" fill="#008000" fill-rule="evenodd" fill-opacity="1" stroke="#000000" stroke-opacity="1" stroke-width="6.4"/>
<circle clip-path="url(#clip812)" cx="1167.72" cy="677.633" r="14.4" fill="#008000" fill-rule="evenodd" fill-opacity="1" stroke="#000000" stroke-opacity="1" stroke-width="6.4"/>
<circle clip-path="url(#clip812)" cx="1276.91" cy="784.056" r="14.4" fill="#008000" fill-rule="evenodd" fill-opacity="1" stroke="#000000" stroke-opacity="1" stroke-width="6.4"/>
<circle clip-path="url(#clip812)" cx="1386.1" cy="766.213" r="14.4" fill="#008000" fill-rule="evenodd" fill-opacity="1" stroke="#000000" stroke-opacity="1" stroke-width="6.4"/>
<circle clip-path="url(#clip812)" cx="1495.3" cy="823.432" r="14.4" fill="#008000" fill-rule="evenodd" fill-opacity="1" stroke="#000000" stroke-opacity="1" stroke-width="6.4"/>
<circle clip-path="url(#clip812)" cx="1604.49" cy="896.642" r="14.4" fill="#008000" fill-rule="evenodd" fill-opacity="1" stroke="#000000" stroke-opacity="1" stroke-width="6.4"/>
<circle clip-path="url(#clip812)" cx="1713.68" cy="940.56" r="14.4" fill="#008000" fill-rule="evenodd" fill-opacity="1" stroke="#000000" stroke-opacity="1" stroke-width="6.4"/>
<circle clip-path="url(#clip812)" cx="1822.88" cy="861.396" r="14.4" fill="#008000" fill-rule="evenodd" fill-opacity="1" stroke="#000000" stroke-opacity="1" stroke-width="6.4"/>
<circle clip-path="url(#clip812)" cx="1932.07" cy="1011.34" r="14.4" fill="#008000" fill-rule="evenodd" fill-opacity="1" stroke="#000000" stroke-opacity="1" stroke-width="6.4"/>
<circle clip-path="url(#clip812)" cx="2041.26" cy="1013.87" r="14.4" fill="#008000" fill-rule="evenodd" fill-opacity="1" stroke="#000000" stroke-opacity="1" stroke-width="6.4"/>
<circle clip-path="url(#clip812)" cx="2150.46" cy="1020.42" r="14.4" fill="#008000" fill-rule="evenodd" fill-opacity="1" stroke="#000000" stroke-opacity="1" stroke-width="6.4"/>
<circle clip-path="url(#clip812)" cx="2259.65" cy="1038.07" r="14.4" fill="#008000" fill-rule="evenodd" fill-opacity="1" stroke="#000000" stroke-opacity="1" stroke-width="6.4"/>
<polyline clip-path="url(#clip812)" style="stroke:#00008b; stroke-linecap:round; stroke-linejoin:round; stroke-width:8; stroke-opacity:1; fill:none" points="730.941,799.326 840.135,530.123 949.328,436.581 1058.52,468.082 1167.72,422.237 1276.91,477.478 1386.1,436.089 1495.3,513.634 1604.49,525.17 1713.68,582.262 1822.88,677.46 1932.07,681.038 2041.26,763.379 2150.46,780.375 2259.65,830.186 "/>
<path clip-path="url(#clip812)" d="M730.941 930.269 L840.135 729.043 L949.328 710.347 L1058.52 757.742 L1167.72 847.045 L1276.91 875.799 L1386.1 895.211 L1495.3 953.675 L1604.49 966.352 L1713.68 1105.76 L1822.88 1118.77 L1932.07 1134.19 L2041.26 1166.12 L2150.46 1239.96 L2259.65 1240.32 L2259.65 521.597 L2150.46 478.029 L2041.26 487.679 L1932.07 398.676 L1822.88 379.199 L1713.68 237.569 L1604.49 263.737 L1495.3 176.946 L1386.1 127.862 L1276.91 166.366 L1167.72 139.217 L1058.52 179.441 L949.328 244.346 L840.135 342.718 L730.941 658.952  Z" fill="#0000ff" fill-rule="evenodd" fill-opacity="0.1"/>
<polyline clip-path="url(#clip812)" style="stroke:#0000ff; stroke-linecap:round; stroke-linejoin:round; stroke-width:0; stroke-opacity:0.1; fill:none" points="730.941,930.269 840.135,729.043 949.328,710.347 1058.52,757.742 1167.72,847.045 1276.91,875.799 1386.1,895.211 1495.3,953.675 1604.49,966.352 1713.68,1105.76 1822.88,1118.77 1932.07,1134.19 2041.26,1166.12 2150.46,1239.96 2259.65,1240.32 "/>
</svg>
