<?xml version="1.0" encoding="utf-8"?>
<svg xmlns="http://www.w3.org/2000/svg" xmlns:xlink="http://www.w3.org/1999/xlink" width="600" height="400" viewBox="0 0 2400 1600">
<defs>
  <clipPath id="clip600">
    <rect x="0" y="0" width="2400" height="1600"/>
  </clipPath>
</defs>
<path clip-path="url(#clip600)" d="M0 1600 L2400 1600 L2400 0 L0 0  Z" fill="#ffffff" fill-rule="evenodd" fill-opacity="1"/>
<defs>
  <clipPath id="clip601">
    <rect x="480" y="0" width="1681" height="1600"/>
  </clipPath>
</defs>
<path clip-path="url(#clip600)" d="M883.706 1082.2 L2305.51 1082.2 L2305.51 94.4882 L883.706 94.4882  Z" fill="#ffffff" fill-rule="evenodd" fill-opacity="1"/>
<defs>
  <clipPath id="clip602">
    <rect x="883" y="94" width="1423" height="989"/>
  </clipPath>
</defs>
<polyline clip-path="url(#clip602)" style="stroke:#000000; stroke-linecap:round; stroke-linejoin:round; stroke-width:4; stroke-opacity:0.1; fill:none" points="923.946,1082.2 923.946,94.4882 "/>
<polyline clip-path="url(#clip602)" style="stroke:#000000; stroke-linecap:round; stroke-linejoin:round; stroke-width:4; stroke-opacity:0.1; fill:none" points="1371.05,1082.2 1371.05,94.4882 "/>
<polyline clip-path="url(#clip602)" style="stroke:#000000; stroke-linecap:round; stroke-linejoin:round; stroke-width:4; stroke-opacity:0.1; fill:none" points="1818.16,1082.2 1818.16,94.4882 "/>
<polyline clip-path="url(#clip602)" style="stroke:#000000; stroke-linecap:round; stroke-linejoin:round; stroke-width:4; stroke-opacity:0.1; fill:none" points="2265.27,1082.2 2265.27,94.4882 "/>
<polyline clip-path="url(#clip600)" style="stroke:#000000; stroke-linecap:round; stroke-linejoin:round; stroke-width:8; stroke-opacity:1; fill:none" points="883.706,1082.2 2305.51,1082.2 "/>
<polyline clip-path="url(#clip600)" style="stroke:#000000; stroke-linecap:round; stroke-linejoin:round; stroke-width:8; stroke-opacity:1; fill:none" points="923.946,1082.2 923.946,1063.3 "/>
<polyline clip-path="url(#clip600)" style="stroke:#000000; stroke-linecap:round; stroke-linejoin:round; stroke-width:8; stroke-opacity:1; fill:none" points="1371.05,1082.2 1371.05,1063.3 "/>
<polyline clip-path="url(#clip600)" style="stroke:#000000; stroke-linecap:round; stroke-linejoin:round; stroke-width:8; stroke-opacity:1; fill:none" points="1818.16,1082.2 1818.16,1063.3 "/>
<polyline clip-path="url(#clip600)" style="stroke:#000000; stroke-linecap:round; stroke-linejoin:round; stroke-width:8; stroke-opacity:1; fill:none" points="2265.27,1082.2 2265.27,1063.3 "/>
<path clip-path="url(#clip600)" d="M923.946 1124.84 Q916.723 1124.84 913.066 1131.97 Q909.455 1139.05 909.455 1153.31 Q909.455 1167.52 913.066 1174.65 Q916.723 1181.73 923.946 1181.73 Q931.214 1181.73 934.825 1174.65 Q938.483 1167.52 938.483 1153.31 Q938.483 1139.05 934.825 1131.97 Q931.214 1124.84 923.946 1124.84 M923.946 1117.43 Q935.566 1117.43 941.677 1126.64 Q947.834 1135.81 947.834 1153.31 Q947.834 1170.76 941.677 1179.98 Q935.566 1189.14 923.946 1189.14 Q912.325 1189.14 906.168 1179.98 Q900.057 1170.76 900.057 1153.31 Q900.057 1135.81 906.168 1126.64 Q912.325 1117.43 923.946 1117.43 Z" fill="#000000" fill-rule="nonzero" fill-opacity="1" /><path clip-path="url(#clip600)" d="M1351.82 1179.93 L1367.1 1179.93 L1367.1 1127.2 L1350.48 1130.53 L1350.48 1122.01 L1367 1118.68 L1376.36 1118.68 L1376.36 1179.93 L1391.63 1179.93 L1391.63 1187.8 L1351.82 1187.8 L1351.82 1179.93 Z" fill="#000000" fill-rule="nonzero" fill-opacity="1" /><path clip-path="url(#clip600)" d="M1807.47 1179.93 L1840.11 1179.93 L1840.11 1187.8 L1796.22 1187.8 L1796.22 1179.93 Q1801.54 1174.42 1810.71 1165.16 Q1819.92 1155.86 1822.28 1153.17 Q1826.77 1148.12 1828.53 1144.65 Q1830.34 1141.13 1830.34 1137.75 Q1830.34 1132.24 1826.45 1128.77 Q1822.61 1125.3 1816.4 1125.3 Q1812.01 1125.3 1807.1 1126.83 Q1802.24 1128.36 1796.68 1131.46 L1796.68 1122.01 Q1802.33 1119.74 1807.24 1118.59 Q1812.14 1117.43 1816.22 1117.43 Q1826.96 1117.43 1833.35 1122.8 Q1839.74 1128.17 1839.74 1137.15 Q1839.74 1141.41 1838.12 1145.25 Q1836.54 1149.05 1832.33 1154.24 Q1831.17 1155.58 1824.97 1162.01 Q1818.77 1168.4 1807.47 1179.93 Z" fill="#000000" fill-rule="nonzero" fill-opacity="1" /><path clip-path="url(#clip600)" d="M2273.77 1150.53 Q2280.48 1151.97 2284.23 1156.5 Q2288.03 1161.04 2288.03 1167.71 Q2288.03 1177.94 2280.99 1183.54 Q2273.95 1189.14 2260.99 1189.14 Q2256.64 1189.14 2252.01 1188.26 Q2247.42 1187.43 2242.52 1185.72 L2242.52 1176.69 Q2246.41 1178.96 2251.04 1180.11 Q2255.67 1181.27 2260.71 1181.27 Q2269.51 1181.27 2274.09 1177.8 Q2278.72 1174.33 2278.72 1167.71 Q2278.72 1161.6 2274.42 1158.17 Q2270.16 1154.7 2262.52 1154.7 L2254.46 1154.7 L2254.46 1147.01 L2262.89 1147.01 Q2269.79 1147.01 2273.44 1144.28 Q2277.1 1141.5 2277.1 1136.32 Q2277.1 1130.99 2273.3 1128.17 Q2269.55 1125.3 2262.52 1125.3 Q2258.67 1125.3 2254.28 1126.13 Q2249.88 1126.97 2244.6 1128.73 L2244.6 1120.39 Q2249.92 1118.91 2254.55 1118.17 Q2259.23 1117.43 2263.35 1117.43 Q2274 1117.43 2280.2 1122.29 Q2286.41 1127.11 2286.41 1135.35 Q2286.41 1141.09 2283.12 1145.07 Q2279.83 1149 2273.77 1150.53 Z" fill="#000000" fill-rule="nonzero" fill-opacity="1" /><path clip-path="url(#clip600)" d="M1535.03 1278.32 Q1539.42 1270.42 1545.53 1266.67 Q1551.64 1262.91 1559.92 1262.91 Q1571.06 1262.91 1577.1 1270.74 Q1583.15 1278.51 1583.15 1292.9 L1583.15 1335.93 L1571.37 1335.93 L1571.37 1293.28 Q1571.37 1283.03 1567.75 1278.06 Q1564.12 1273.1 1556.67 1273.1 Q1547.57 1273.1 1542.28 1279.15 Q1537 1285.19 1537 1295.63 L1537 1335.93 L1525.22 1335.93 L1525.22 1293.28 Q1525.22 1282.97 1521.59 1278.06 Q1517.97 1273.1 1510.39 1273.1 Q1501.41 1273.1 1496.13 1279.21 Q1490.85 1285.26 1490.85 1295.63 L1490.85 1335.93 L1479.07 1335.93 L1479.07 1264.63 L1490.85 1264.63 L1490.85 1275.71 Q1494.86 1269.15 1500.46 1266.03 Q1506.06 1262.91 1513.76 1262.91 Q1521.53 1262.91 1526.94 1266.86 Q1532.42 1270.81 1535.03 1278.32 Z" fill="#000000" fill-rule="nonzero" fill-opacity="1" /><path clip-path="url(#clip600)" d="M1662.02 1278.32 Q1666.41 1270.42 1672.53 1266.67 Q1678.64 1262.91 1686.91 1262.91 Q1698.05 1262.91 1704.1 1270.74 Q1710.15 1278.51 1710.15 1292.9 L1710.15 1335.93 L1698.37 1335.93 L1698.37 1293.28 Q1698.37 1283.03 1694.74 1278.06 Q1691.11 1273.1 1683.67 1273.1 Q1674.56 1273.1 1669.28 1279.15 Q1664 1285.19 1664 1295.63 L1664 1335.93 L1652.22 1335.93 L1652.22 1293.28 Q1652.22 1282.97 1648.59 1278.06 Q1644.96 1273.1 1637.39 1273.1 Q1628.41 1273.1 1623.13 1279.21 Q1617.84 1285.26 1617.84 1295.63 L1617.84 1335.93 L1606.07 1335.93 L1606.07 1264.63 L1617.84 1264.63 L1617.84 1275.71 Q1621.85 1269.15 1627.46 1266.03 Q1633.06 1262.91 1640.76 1262.91 Q1648.53 1262.91 1653.94 1266.86 Q1659.41 1270.81 1662.02 1278.32 Z" fill="#000000" fill-rule="nonzero" fill-opacity="1" /><polyline clip-path="url(#clip602)" style="stroke:#000000; stroke-linecap:round; stroke-linejoin:round; stroke-width:4; stroke-opacity:0.1; fill:none" points="883.706,947.028 2305.51,947.028 "/>
<polyline clip-path="url(#clip602)" style="stroke:#000000; stroke-linecap:round; stroke-linejoin:round; stroke-width:4; stroke-opacity:0.1; fill:none" points="883.706,786.548 2305.51,786.548 "/>
<polyline clip-path="url(#clip602)" style="stroke:#000000; stroke-linecap:round; stroke-linejoin:round; stroke-width:4; stroke-opacity:0.1; fill:none" points="883.706,626.067 2305.51,626.067 "/>
<polyline clip-path="url(#clip602)" style="stroke:#000000; stroke-linecap:round; stroke-linejoin:round; stroke-width:4; stroke-opacity:0.1; fill:none" points="883.706,465.586 2305.51,465.586 "/>
<polyline clip-path="url(#clip602)" style="stroke:#000000; stroke-linecap:round; stroke-linejoin:round; stroke-width:4; stroke-opacity:0.1; fill:none" points="883.706,305.106 2305.51,305.106 "/>
<polyline clip-path="url(#clip602)" style="stroke:#000000; stroke-linecap:round; stroke-linejoin:round; stroke-width:4; stroke-opacity:0.1; fill:none" points="883.706,144.625 2305.51,144.625 "/>
<polyline clip-path="url(#clip600)" style="stroke:#000000; stroke-linecap:round; stroke-linejoin:round; stroke-width:8; stroke-opacity:1; fill:none" points="883.706,1082.2 883.706,94.4882 "/>
<polyline clip-path="url(#clip600)" style="stroke:#000000; stroke-linecap:round; stroke-linejoin:round; stroke-width:8; stroke-opacity:1; fill:none" points="883.706,947.028 902.603,947.028 "/>
<polyline clip-path="url(#clip600)" style="stroke:#000000; stroke-linecap:round; stroke-linejoin:round; stroke-width:8; stroke-opacity:1; fill:none" points="883.706,786.548 902.603,786.548 "/>
<polyline clip-path="url(#clip600)" style="stroke:#000000; stroke-linecap:round; stroke-linejoin:round; stroke-width:8; stroke-opacity:1; fill:none" points="883.706,626.067 902.603,626.067 "/>
<polyline clip-path="url(#clip600)" style="stroke:#000000; stroke-linecap:round; stroke-linejoin:round; stroke-width:8; stroke-opacity:1; fill:none" points="883.706,465.586 902.603,465.586 "/>
<polyline clip-path="url(#clip600)" style="stroke:#000000; stroke-linecap:round; stroke-linejoin:round; stroke-width:8; stroke-opacity:1; fill:none" points="883.706,305.106 902.603,305.106 "/>
<polyline clip-path="url(#clip600)" style="stroke:#000000; stroke-linecap:round; stroke-linejoin:round; stroke-width:8; stroke-opacity:1; fill:none" points="883.706,144.625 902.603,144.625 "/>
<path clip-path="url(#clip600)" d="M603.633 947.931 L662.985 947.931 L662.985 955.801 L603.633 955.801 L603.633 947.931 Z" fill="#000000" fill-rule="nonzero" fill-opacity="1" /><path clip-path="url(#clip600)" d="M684.79 973.718 L700.068 973.718 L700.068 920.987 L683.447 924.32 L683.447 915.802 L699.975 912.468 L709.327 912.468 L709.327 973.718 L724.605 973.718 L724.605 981.588 L684.79 981.588 L684.79 973.718 Z" fill="#000000" fill-rule="nonzero" fill-opacity="1" /><path clip-path="url(#clip600)" d="M763.493 918.626 Q756.271 918.626 752.614 925.755 Q749.003 932.839 749.003 947.098 Q749.003 961.311 752.614 968.44 Q756.271 975.524 763.493 975.524 Q770.762 975.524 774.373 968.44 Q778.03 961.311 778.03 947.098 Q778.03 932.839 774.373 925.755 Q770.762 918.626 763.493 918.626 M763.493 911.218 Q775.114 911.218 781.225 920.431 Q787.382 929.598 787.382 947.098 Q787.382 964.551 781.225 973.764 Q775.114 982.931 763.493 982.931 Q751.873 982.931 745.716 973.764 Q739.605 964.551 739.605 947.098 Q739.605 929.598 745.716 920.431 Q751.873 911.218 763.493 911.218 Z" fill="#000000" fill-rule="nonzero" fill-opacity="1" /><path clip-path="url(#clip600)" d="M823.817 918.626 Q816.595 918.626 812.938 925.755 Q809.326 932.839 809.326 947.098 Q809.326 961.311 812.938 968.44 Q816.595 975.524 823.817 975.524 Q831.086 975.524 834.697 968.44 Q838.354 961.311 838.354 947.098 Q838.354 932.839 834.697 925.755 Q831.086 918.626 823.817 918.626 M823.817 911.218 Q835.437 911.218 841.548 920.431 Q847.706 929.598 847.706 947.098 Q847.706 964.551 841.548 973.764 Q835.437 982.931 823.817 982.931 Q812.197 982.931 806.039 973.764 Q799.928 964.551 799.928 947.098 Q799.928 929.598 806.039 920.431 Q812.197 911.218 823.817 911.218 Z" fill="#000000" fill-rule="nonzero" fill-opacity="1" /><path clip-path="url(#clip600)" d="M823.817 758.145 Q816.595 758.145 812.938 765.275 Q809.326 772.358 809.326 786.617 Q809.326 800.83 812.938 807.96 Q816.595 815.043 823.817 815.043 Q831.086 815.043 834.697 807.96 Q838.354 800.83 838.354 786.617 Q838.354 772.358 834.697 765.275 Q831.086 758.145 823.817 758.145 M823.817 750.738 Q835.437 750.738 841.548 759.951 Q847.706 769.117 847.706 786.617 Q847.706 804.071 841.548 813.284 Q835.437 822.45 823.817 822.45 Q812.197 822.45 806.039 813.284 Q799.928 804.071 799.928 786.617 Q799.928 769.117 806.039 759.951 Q812.197 750.738 823.817 750.738 Z" fill="#000000" fill-rule="nonzero" fill-opacity="1" /><path clip-path="url(#clip600)" d="M684.79 652.757 L700.068 652.757 L700.068 600.026 L683.447 603.359 L683.447 594.84 L699.975 591.507 L709.327 591.507 L709.327 652.757 L724.605 652.757 L724.605 660.627 L684.79 660.627 L684.79 652.757 Z" fill="#000000" fill-rule="nonzero" fill-opacity="1" /><path clip-path="url(#clip600)" d="M763.493 597.664 Q756.271 597.664 752.614 604.794 Q749.003 611.877 749.003 626.137 Q749.003 640.349 752.614 647.479 Q756.271 654.562 763.493 654.562 Q770.762 654.562 774.373 647.479 Q778.03 640.349 778.03 626.137 Q778.03 611.877 774.373 604.794 Q770.762 597.664 763.493 597.664 M763.493 590.257 Q775.114 590.257 781.225 599.47 Q787.382 608.637 787.382 626.137 Q787.382 643.59 781.225 652.803 Q775.114 661.97 763.493 661.97 Q751.873 661.97 745.716 652.803 Q739.605 643.59 739.605 626.137 Q739.605 608.637 745.716 599.47 Q751.873 590.257 763.493 590.257 Z" fill="#000000" fill-rule="nonzero" fill-opacity="1" /><path clip-path="url(#clip600)" d="M823.817 597.664 Q816.595 597.664 812.938 604.794 Q809.326 611.877 809.326 626.137 Q809.326 640.349 812.938 647.479 Q816.595 654.562 823.817 654.562 Q831.086 654.562 834.697 647.479 Q838.354 640.349 838.354 626.137 Q838.354 611.877 834.697 604.794 Q831.086 597.664 823.817 597.664 M823.817 590.257 Q835.437 590.257 841.548 599.47 Q847.706 608.637 847.706 626.137 Q847.706 643.59 841.548 652.803 Q835.437 661.97 823.817 661.97 Q812.197 661.97 806.039 652.803 Q799.928 643.59 799.928 626.137 Q799.928 608.637 806.039 599.47 Q812.197 590.257 823.817 590.257 Z" fill="#000000" fill-rule="nonzero" fill-opacity="1" /><path clip-path="url(#clip600)" d="M691.225 492.276 L723.864 492.276 L723.864 500.146 L679.975 500.146 L679.975 492.276 Q685.299 486.767 694.466 477.508 Q703.679 468.202 706.04 465.517 Q710.531 460.471 712.29 456.999 Q714.095 453.48 714.095 450.1 Q714.095 444.591 710.207 441.119 Q706.364 437.647 700.16 437.647 Q695.762 437.647 690.855 439.175 Q685.994 440.702 680.438 443.804 L680.438 434.36 Q686.086 432.091 690.994 430.934 Q695.901 429.776 699.975 429.776 Q710.716 429.776 717.105 435.147 Q723.494 440.517 723.494 449.499 Q723.494 453.758 721.873 457.6 Q720.299 461.397 716.086 466.582 Q714.929 467.924 708.725 474.36 Q702.521 480.748 691.225 492.276 Z" fill="#000000" fill-rule="nonzero" fill-opacity="1" /><path clip-path="url(#clip600)" d="M763.493 437.184 Q756.271 437.184 752.614 444.313 Q749.003 451.397 749.003 465.656 Q749.003 479.869 752.614 486.998 Q756.271 494.082 763.493 494.082 Q770.762 494.082 774.373 486.998 Q778.03 479.869 778.03 465.656 Q778.03 451.397 774.373 444.313 Q770.762 437.184 763.493 437.184 M763.493 429.776 Q775.114 429.776 781.225 438.989 Q787.382 448.156 787.382 465.656 Q787.382 483.11 781.225 492.322 Q775.114 501.489 763.493 501.489 Q751.873 501.489 745.716 492.322 Q739.605 483.11 739.605 465.656 Q739.605 448.156 745.716 438.989 Q751.873 429.776 763.493 429.776 Z" fill="#000000" fill-rule="nonzero" fill-opacity="1" /><path clip-path="url(#clip600)" d="M823.817 437.184 Q816.595 437.184 812.938 444.313 Q809.326 451.397 809.326 465.656 Q809.326 479.869 812.938 486.998 Q816.595 494.082 823.817 494.082 Q831.086 494.082 834.697 486.998 Q838.354 479.869 838.354 465.656 Q838.354 451.397 834.697 444.313 Q831.086 437.184 823.817 437.184 M823.817 429.776 Q835.437 429.776 841.548 438.989 Q847.706 448.156 847.706 465.656 Q847.706 483.11 841.548 492.322 Q835.437 501.489 823.817 501.489 Q812.197 501.489 806.039 492.322 Q799.928 483.11 799.928 465.656 Q799.928 448.156 806.039 438.989 Q812.197 429.776 823.817 429.776 Z" fill="#000000" fill-rule="nonzero" fill-opacity="1" /><path clip-path="url(#clip600)" d="M711.503 302.398 Q718.216 303.833 721.966 308.37 Q725.762 312.907 725.762 319.573 Q725.762 329.805 718.725 335.407 Q711.688 341.008 698.725 341.008 Q694.373 341.008 689.744 340.129 Q685.16 339.295 680.253 337.583 L680.253 328.555 Q684.142 330.823 688.772 331.981 Q693.401 333.138 698.447 333.138 Q707.244 333.138 711.827 329.666 Q716.457 326.194 716.457 319.573 Q716.457 313.462 712.151 310.036 Q707.892 306.564 700.253 306.564 L692.197 306.564 L692.197 298.879 L700.623 298.879 Q707.521 298.879 711.179 296.148 Q714.836 293.37 714.836 288.185 Q714.836 282.861 711.04 280.037 Q707.29 277.166 700.253 277.166 Q696.41 277.166 692.012 278 Q687.614 278.833 682.336 280.592 L682.336 272.259 Q687.66 270.777 692.29 270.037 Q696.966 269.296 701.086 269.296 Q711.734 269.296 717.938 274.157 Q724.142 278.972 724.142 287.212 Q724.142 292.953 720.855 296.935 Q717.568 300.87 711.503 302.398 Z" fill="#000000" fill-rule="nonzero" fill-opacity="1" /><path clip-path="url(#clip600)" d="M763.493 276.703 Q756.271 276.703 752.614 283.833 Q749.003 290.916 749.003 305.175 Q749.003 319.388 752.614 326.518 Q756.271 333.601 763.493 333.601 Q770.762 333.601 774.373 326.518 Q778.03 319.388 778.03 305.175 Q778.03 290.916 774.373 283.833 Q770.762 276.703 763.493 276.703 M763.493 269.296 Q775.114 269.296 781.225 278.509 Q787.382 287.675 787.382 305.175 Q787.382 322.629 781.225 331.842 Q775.114 341.008 763.493 341.008 Q751.873 341.008 745.716 331.842 Q739.605 322.629 739.605 305.175 Q739.605 287.675 745.716 278.509 Q751.873 269.296 763.493 269.296 Z" fill="#000000" fill-rule="nonzero" fill-opacity="1" /><path clip-path="url(#clip600)" d="M823.817 276.703 Q816.595 276.703 812.938 283.833 Q809.326 290.916 809.326 305.175 Q809.326 319.388 812.938 326.518 Q816.595 333.601 823.817 333.601 Q831.086 333.601 834.697 326.518 Q838.354 319.388 838.354 305.175 Q838.354 290.916 834.697 283.833 Q831.086 276.703 823.817 276.703 M823.817 269.296 Q835.437 269.296 841.548 278.509 Q847.706 287.675 847.706 305.175 Q847.706 322.629 841.548 331.842 Q835.437 341.008 823.817 341.008 Q812.197 341.008 806.039 331.842 Q799.928 322.629 799.928 305.175 Q799.928 287.675 806.039 278.509 Q812.197 269.296 823.817 269.296 Z" fill="#000000" fill-rule="nonzero" fill-opacity="1" /><path clip-path="url(#clip600)" d="M708.864 118.213 L685.253 155.111 L708.864 155.111 L708.864 118.213 M706.41 110.065 L718.17 110.065 L718.17 155.111 L728.031 155.111 L728.031 162.889 L718.17 162.889 L718.17 179.185 L708.864 179.185 L708.864 162.889 L677.66 162.889 L677.66 153.861 L706.41 110.065 Z" fill="#000000" fill-rule="nonzero" fill-opacity="1" /><path clip-path="url(#clip600)" d="M763.493 116.223 Q756.271 116.223 752.614 123.352 Q749.003 130.435 749.003 144.695 Q749.003 158.908 752.614 166.037 Q756.271 173.12 763.493 173.12 Q770.762 173.12 774.373 166.037 Q778.03 158.908 778.03 144.695 Q778.03 130.435 774.373 123.352 Q770.762 116.223 763.493 116.223 M763.493 108.815 Q775.114 108.815 781.225 118.028 Q787.382 127.195 787.382 144.695 Q787.382 162.148 781.225 171.361 Q775.114 180.528 763.493 180.528 Q751.873 180.528 745.716 171.361 Q739.605 162.148 739.605 144.695 Q739.605 127.195 745.716 118.028 Q751.873 108.815 763.493 108.815 Z" fill="#000000" fill-rule="nonzero" fill-opacity="1" /><path clip-path="url(#clip600)" d="M823.817 116.223 Q816.595 116.223 812.938 123.352 Q809.326 130.435 809.326 144.695 Q809.326 158.908 812.938 166.037 Q816.595 173.12 823.817 173.12 Q831.086 173.12 834.697 166.037 Q838.354 158.908 838.354 144.695 Q838.354 130.435 834.697 123.352 Q831.086 116.223 823.817 116.223 M823.817 108.815 Q835.437 108.815 841.548 118.028 Q847.706 127.195 847.706 144.695 Q847.706 162.148 841.548 171.361 Q835.437 180.528 823.817 180.528 Q812.197 180.528 806.039 171.361 Q799.928 162.148 799.928 144.695 Q799.928 127.195 806.039 118.028 Q812.197 108.815 823.817 108.815 Z" fill="#000000" fill-rule="nonzero" fill-opacity="1" /><path clip-path="url(#clip600)" d="M566.239 806.497 L467.825 806.497 L467.825 794.784 L512.13 794.784 Q521.361 794.784 526.071 790.391 Q530.782 785.999 530.782 777.405 Q530.782 767.984 525.435 763.274 Q520.088 758.499 509.393 758.499 L467.825 758.499 L467.825 746.786 L522.698 746.786 Q526.517 746.786 528.363 745.704 Q530.145 744.558 530.145 742.203 Q530.145 741.63 529.827 740.612 Q529.445 739.593 528.681 737.811 L538.103 737.811 Q539.567 740.421 540.267 742.776 Q540.967 745.068 540.967 747.296 Q540.967 751.688 538.485 754.298 Q536.002 756.908 530.909 757.863 Q535.938 761.046 538.485 765.693 Q540.967 770.276 540.967 776.514 Q540.967 783.007 538.485 787.591 Q536.002 792.11 531.037 794.784 L566.239 794.784 L566.239 806.497 Z" fill="#000000" fill-rule="nonzero" fill-opacity="1" /><path clip-path="url(#clip600)" d="M502.646 675.427 Q489.914 675.427 482.912 680.71 Q475.91 685.93 475.91 695.415 Q475.91 704.836 482.912 710.12 Q489.914 715.34 502.646 715.34 Q515.313 715.34 522.316 710.12 Q529.318 704.836 529.318 695.415 Q529.318 685.93 522.316 680.71 Q515.313 675.427 502.646 675.427 M530.273 663.714 Q548.479 663.714 557.327 671.798 Q566.239 679.883 566.239 696.561 Q566.239 702.736 565.284 708.21 Q564.393 713.685 562.483 718.841 L551.089 718.841 Q553.89 713.685 555.226 708.656 Q556.563 703.627 556.563 698.407 Q556.563 686.885 550.516 681.156 Q544.532 675.427 532.373 675.427 L526.581 675.427 Q532.883 679.055 536.002 684.721 Q539.121 690.386 539.121 698.28 Q539.121 711.393 529.127 719.414 Q519.133 727.435 502.646 727.435 Q486.095 727.435 476.101 719.414 Q466.106 711.393 466.106 698.28 Q466.106 690.386 469.226 684.721 Q472.345 679.055 478.647 675.427 L467.825 675.427 L467.825 663.714 L530.273 663.714 Z" fill="#000000" fill-rule="nonzero" fill-opacity="1" /><path clip-path="url(#clip600)" d="M444.081 577.331 L444.081 566.51 L551.216 599.611 L551.216 610.433 L444.081 577.331 Z" fill="#000000" fill-rule="nonzero" fill-opacity="1" /><path clip-path="url(#clip600)" d="M566.239 513.992 L467.825 513.992 L467.825 502.28 L512.13 502.28 Q521.361 502.28 526.071 497.887 Q530.782 493.495 530.782 484.901 Q530.782 475.48 525.435 470.769 Q520.088 465.995 509.393 465.995 L467.825 465.995 L467.825 454.282 L522.698 454.282 Q526.517 454.282 528.363 453.2 Q530.145 452.054 530.145 449.699 Q530.145 449.126 529.827 448.107 Q529.445 447.089 528.681 445.307 L538.103 445.307 Q539.567 447.916 540.267 450.272 Q540.967 452.563 540.967 454.791 Q540.967 459.184 538.485 461.794 Q536.002 464.404 530.909 465.358 Q535.938 468.541 538.485 473.188 Q540.967 477.772 540.967 484.01 Q540.967 490.503 538.485 495.086 Q536.002 499.606 531.037 502.28 L566.239 502.28 L566.239 513.992 Z" fill="#000000" fill-rule="nonzero" fill-opacity="1" /><path clip-path="url(#clip600)" d="M444.081 429.329 L444.081 416.47 L528.299 416.47 L528.299 370.191 L539.121 370.191 L539.121 429.329 L444.081 429.329 Z" fill="#000000" fill-rule="nonzero" fill-opacity="1" /><polyline clip-path="url(#clip602)" style="stroke:#009af9; stroke-linecap:round; stroke-linejoin:round; stroke-width:8; stroke-opacity:1; fill:none" points="1013.37,272.806 1102.79,217.593 1192.21,224.184 1281.63,253.614 1371.05,294.291 1460.48,335.905 1549.9,392.298 1639.32,478.03 1728.74,561.36 1818.16,643.508 1907.58,725.655 1997.01,807.803 2086.43,889.951 2175.85,972.098 2265.27,1054.25 "/>
<polyline clip-path="url(#clip602)" style="stroke:#008000; stroke-linecap:round; stroke-linejoin:round; stroke-width:8; stroke-opacity:1; fill:none" points="923.946,359.153 1072.83,215.385 1221.72,226.36 1371.05,294.291 1519.94,363.578 1668.83,506.322 1818.16,643.508 "/>
<circle clip-path="url(#clip602)" cx="923.946" cy="359.153" r="28.8" fill="#008000" fill-rule="evenodd" fill-opacity="1" stroke="#000000" stroke-opacity="1" stroke-width="6.4"/>
<circle clip-path="url(#clip602)" cx="1072.83" cy="215.385" r="28.8" fill="#008000" fill-rule="evenodd" fill-opacity="1" stroke="#000000" stroke-opacity="1" stroke-width="6.4"/>
<circle clip-path="url(#clip602)" cx="1221.72" cy="226.36" r="28.8" fill="#008000" fill-rule="evenodd" fill-opacity="1" stroke="#000000" stroke-opacity="1" stroke-width="6.4"/>
<circle clip-path="url(#clip602)" cx="1371.05" cy="294.291" r="28.8" fill="#008000" fill-rule="evenodd" fill-opacity="1" stroke="#000000" stroke-opacity="1" stroke-width="6.4"/>
<circle clip-path="url(#clip602)" cx="1519.94" cy="363.578" r="28.8" fill="#008000" fill-rule="evenodd" fill-opacity="1" stroke="#000000" stroke-opacity="1" stroke-width="6.4"/>
<circle clip-path="url(#clip602)" cx="1668.83" cy="506.322" r="28.8" fill="#008000" fill-rule="evenodd" fill-opacity="1" stroke="#000000" stroke-opacity="1" stroke-width="6.4"/>
<circle clip-path="url(#clip602)" cx="1818.16" cy="643.508" r="28.8" fill="#008000" fill-rule="evenodd" fill-opacity="1" stroke="#000000" stroke-opacity="1" stroke-width="6.4"/>
<circle clip-path="url(#clip602)" cx="1013.37" cy="122.442" r="28.8" fill="#008000" fill-rule="evenodd" fill-opacity="1" stroke="#000000" stroke-opacity="1" stroke-width="6.4"/>
<circle clip-path="url(#clip602)" cx="2265.27" cy="675.306" r="28.8" fill="#008000" fill-rule="evenodd" fill-opacity="1" stroke="#000000" stroke-opacity="1" stroke-width="6.4"/>
<line clip-path="url(#clip602)" x1="1013.37" y1="122.442" x2="1013.37" y2="90.4423" style="stroke:#0000ff; stroke-width:6.4; stroke-opacity:1"/>
<line clip-path="url(#clip602)" x1="1013.37" y1="122.442" x2="981.367" y2="122.442" style="stroke:#0000ff; stroke-width:6.4; stroke-opacity:1"/>
<line clip-path="url(#clip602)" x1="1013.37" y1="122.442" x2="1013.37" y2="154.442" style="stroke:#0000ff; stroke-width:6.4; stroke-opacity:1"/>
<line clip-path="url(#clip602)" x1="1013.37" y1="122.442" x2="1045.37" y2="122.442" style="stroke:#0000ff; stroke-width:6.4; stroke-opacity:1"/>
<line clip-path="url(#clip602)" x1="2265.27" y1="675.306" x2="2265.27" y2="643.306" style="stroke:#0000ff; stroke-width:6.4; stroke-opacity:1"/>
<line clip-path="url(#clip602)" x1="2265.27" y1="675.306" x2="2233.27" y2="675.306" style="stroke:#0000ff; stroke-width:6.4; stroke-opacity:1"/>
<line clip-path="url(#clip602)" x1="2265.27" y1="675.306" x2="2265.27" y2="707.306" style="stroke:#0000ff; stroke-width:6.4; stroke-opacity:1"/>
<line clip-path="url(#clip602)" x1="2265.27" y1="675.306" x2="2297.27" y2="675.306" style="stroke:#0000ff; stroke-width:6.4; stroke-opacity:1"/>
</svg>
