<?xml version="1.0" encoding="utf-8"?>
<svg xmlns="http://www.w3.org/2000/svg" xmlns:xlink="http://www.w3.org/1999/xlink" width="600" height="400" viewBox="0 0 2400 1600">
<defs>
  <clipPath id="clip960">
    <rect x="0" y="0" width="2400" height="1600"/>
  </clipPath>
</defs>
<path clip-path="url(#clip960)" d="M0 1600 L2400 1600 L2400 0 L0 0  Z" fill="#ffffff" fill-rule="evenodd" fill-opacity="1"/>
<defs>
  <clipPath id="clip961">
    <rect x="480" y="0" width="1681" height="1600"/>
  </clipPath>
</defs>
<path clip-path="url(#clip960)" d="M680.45 1273.7 L2305.51 1273.7 L2305.51 94.4882 L680.45 94.4882  Z" fill="#ffffff" fill-rule="evenodd" fill-opacity="1"/>
<defs>
  <clipPath id="clip962">
    <rect x="680" y="94" width="1626" height="1180"/>
  </clipPath>
</defs>
<polyline clip-path="url(#clip962)" style="stroke:#000000; stroke-linecap:round; stroke-linejoin:round; stroke-width:4; stroke-opacity:0.1; fill:none" points="726.443,1273.7 726.443,94.4882 "/>
<polyline clip-path="url(#clip962)" style="stroke:#000000; stroke-linecap:round; stroke-linejoin:round; stroke-width:4; stroke-opacity:0.1; fill:none" points="1074.87,1273.7 1074.87,94.4882 "/>
<polyline clip-path="url(#clip962)" style="stroke:#000000; stroke-linecap:round; stroke-linejoin:round; stroke-width:4; stroke-opacity:0.1; fill:none" points="1423.3,1273.7 1423.3,94.4882 "/>
<polyline clip-path="url(#clip962)" style="stroke:#000000; stroke-linecap:round; stroke-linejoin:round; stroke-width:4; stroke-opacity:0.1; fill:none" points="1771.72,1273.7 1771.72,94.4882 "/>
<polyline clip-path="url(#clip962)" style="stroke:#000000; stroke-linecap:round; stroke-linejoin:round; stroke-width:4; stroke-opacity:0.1; fill:none" points="2120.15,1273.7 2120.15,94.4882 "/>
<polyline clip-path="url(#clip960)" style="stroke:#000000; stroke-linecap:round; stroke-linejoin:round; stroke-width:8; stroke-opacity:1; fill:none" points="680.45,1273.7 2305.51,1273.7 "/>
<polyline clip-path="url(#clip960)" style="stroke:#000000; stroke-linecap:round; stroke-linejoin:round; stroke-width:8; stroke-opacity:1; fill:none" points="726.443,1273.7 726.443,1254.8 "/>
<polyline clip-path="url(#clip960)" style="stroke:#000000; stroke-linecap:round; stroke-linejoin:round; stroke-width:8; stroke-opacity:1; fill:none" points="1074.87,1273.7 1074.87,1254.8 "/>
<polyline clip-path="url(#clip960)" style="stroke:#000000; stroke-linecap:round; stroke-linejoin:round; stroke-width:8; stroke-opacity:1; fill:none" points="1423.3,1273.7 1423.3,1254.8 "/>
<polyline clip-path="url(#clip960)" style="stroke:#000000; stroke-linecap:round; stroke-linejoin:round; stroke-width:8; stroke-opacity:1; fill:none" points="1771.72,1273.7 1771.72,1254.8 "/>
<polyline clip-path="url(#clip960)" style="stroke:#000000; stroke-linecap:round; stroke-linejoin:round; stroke-width:8; stroke-opacity:1; fill:none" points="2120.15,1273.7 2120.15,1254.8 "/>
<path clip-path="url(#clip960)" d="M651.05 1316.33 Q643.827 1316.33 640.17 1323.46 Q636.559 1330.55 636.559 1344.81 Q636.559 1359.02 640.17 1366.15 Q643.827 1373.23 651.05 1373.23 Q658.318 1373.23 661.929 1366.15 Q665.587 1359.02 665.587 1344.81 Q665.587 1330.55 661.929 1323.46 Q658.318 1316.33 651.05 1316.33 M651.05 1308.93 Q662.67 1308.93 668.781 1318.14 Q674.938 1327.31 674.938 1344.81 Q674.938 1362.26 668.781 1371.47 Q662.67 1380.64 651.05 1380.64 Q639.429 1380.64 633.272 1371.47 Q627.161 1362.26 627.161 1344.81 Q627.161 1327.31 633.272 1318.14 Q639.429 1308.93 651.05 1308.93 Z" fill="#000000" fill-rule="nonzero" fill-opacity="1" /><path clip-path="url(#clip960)" d="M691.373 1367.54 L701.142 1367.54 L701.142 1379.3 L691.373 1379.3 L691.373 1367.54 Z" fill="#000000" fill-rule="nonzero" fill-opacity="1" /><path clip-path="url(#clip960)" d="M741.512 1316.33 Q734.29 1316.33 730.632 1323.46 Q727.021 1330.55 727.021 1344.81 Q727.021 1359.02 730.632 1366.15 Q734.29 1373.23 741.512 1373.23 Q748.781 1373.23 752.392 1366.15 Q756.049 1359.02 756.049 1344.81 Q756.049 1330.55 752.392 1323.46 Q748.781 1316.33 741.512 1316.33 M741.512 1308.93 Q753.132 1308.93 759.243 1318.14 Q765.401 1327.31 765.401 1344.81 Q765.401 1362.26 759.243 1371.47 Q753.132 1380.64 741.512 1380.64 Q729.892 1380.64 723.734 1371.47 Q717.623 1362.26 717.623 1344.81 Q717.623 1327.31 723.734 1318.14 Q729.892 1308.93 741.512 1308.93 Z" fill="#000000" fill-rule="nonzero" fill-opacity="1" /><path clip-path="url(#clip960)" d="M801.836 1316.33 Q794.614 1316.33 790.956 1323.46 Q787.345 1330.55 787.345 1344.81 Q787.345 1359.02 790.956 1366.15 Q794.614 1373.23 801.836 1373.23 Q809.104 1373.23 812.715 1366.15 Q816.373 1359.02 816.373 1344.81 Q816.373 1330.55 812.715 1323.46 Q809.104 1316.33 801.836 1316.33 M801.836 1308.93 Q813.456 1308.93 819.567 1318.14 Q825.725 1327.31 825.725 1344.81 Q825.725 1362.26 819.567 1371.47 Q813.456 1380.64 801.836 1380.64 Q790.215 1380.64 784.058 1371.47 Q777.947 1362.26 777.947 1344.81 Q777.947 1327.31 784.058 1318.14 Q790.215 1308.93 801.836 1308.93 Z" fill="#000000" fill-rule="nonzero" fill-opacity="1" /><path clip-path="url(#clip960)" d="M1000.47 1316.33 Q993.249 1316.33 989.592 1323.46 Q985.981 1330.55 985.981 1344.81 Q985.981 1359.02 989.592 1366.15 Q993.249 1373.23 1000.47 1373.23 Q1007.74 1373.23 1011.35 1366.15 Q1015.01 1359.02 1015.01 1344.81 Q1015.01 1330.55 1011.35 1323.46 Q1007.74 1316.33 1000.47 1316.33 M1000.47 1308.93 Q1012.09 1308.93 1018.2 1318.14 Q1024.36 1327.31 1024.36 1344.81 Q1024.36 1362.26 1018.2 1371.47 Q1012.09 1380.64 1000.47 1380.64 Q988.851 1380.64 982.694 1371.47 Q976.583 1362.26 976.583 1344.81 Q976.583 1327.31 982.694 1318.14 Q988.851 1308.93 1000.47 1308.93 Z" fill="#000000" fill-rule="nonzero" fill-opacity="1" /><path clip-path="url(#clip960)" d="M1040.8 1367.54 L1050.56 1367.54 L1050.56 1379.3 L1040.8 1379.3 L1040.8 1367.54 Z" fill="#000000" fill-rule="nonzero" fill-opacity="1" /><path clip-path="url(#clip960)" d="M1078.99 1371.43 L1111.63 1371.43 L1111.63 1379.3 L1067.74 1379.3 L1067.74 1371.43 Q1073.06 1365.92 1082.23 1356.66 Q1091.44 1347.35 1093.8 1344.67 Q1098.3 1339.62 1100.05 1336.15 Q1101.86 1332.63 1101.86 1329.25 Q1101.86 1323.74 1097.97 1320.27 Q1094.13 1316.8 1087.92 1316.8 Q1083.53 1316.8 1078.62 1318.32 Q1073.76 1319.85 1068.2 1322.95 L1068.2 1313.51 Q1073.85 1311.24 1078.76 1310.08 Q1083.67 1308.93 1087.74 1308.93 Q1098.48 1308.93 1104.87 1314.3 Q1111.26 1319.67 1111.26 1328.65 Q1111.26 1332.91 1109.64 1336.75 Q1108.06 1340.55 1103.85 1345.73 Q1102.69 1347.07 1096.49 1353.51 Q1090.29 1359.9 1078.99 1371.43 Z" fill="#000000" fill-rule="nonzero" fill-opacity="1" /><path clip-path="url(#clip960)" d="M1131.35 1310.18 L1168.06 1310.18 L1168.06 1318.05 L1139.92 1318.05 L1139.92 1334.99 Q1141.95 1334.3 1143.99 1333.97 Q1146.03 1333.6 1148.06 1333.6 Q1159.64 1333.6 1166.4 1339.94 Q1173.16 1346.29 1173.16 1357.12 Q1173.16 1368.28 1166.21 1374.48 Q1159.27 1380.64 1146.63 1380.64 Q1142.28 1380.64 1137.74 1379.9 Q1133.25 1379.16 1128.43 1377.68 L1128.43 1368.28 Q1132.6 1370.55 1137.04 1371.66 Q1141.49 1372.77 1146.44 1372.77 Q1154.45 1372.77 1159.13 1368.56 Q1163.8 1364.34 1163.8 1357.12 Q1163.8 1349.9 1159.13 1345.68 Q1154.45 1341.47 1146.44 1341.47 Q1142.69 1341.47 1138.94 1342.31 Q1135.24 1343.14 1131.35 1344.9 L1131.35 1310.18 Z" fill="#000000" fill-rule="nonzero" fill-opacity="1" /><path clip-path="url(#clip960)" d="M1347.9 1316.33 Q1340.68 1316.33 1337.02 1323.46 Q1333.41 1330.55 1333.41 1344.81 Q1333.41 1359.02 1337.02 1366.15 Q1340.68 1373.23 1347.9 1373.23 Q1355.17 1373.23 1358.78 1366.15 Q1362.44 1359.02 1362.44 1344.81 Q1362.44 1330.55 1358.78 1323.46 Q1355.17 1316.33 1347.9 1316.33 M1347.9 1308.93 Q1359.52 1308.93 1365.63 1318.14 Q1371.79 1327.31 1371.79 1344.81 Q1371.79 1362.26 1365.63 1371.47 Q1359.52 1380.64 1347.9 1380.64 Q1336.28 1380.64 1330.12 1371.47 Q1324.01 1362.26 1324.01 1344.81 Q1324.01 1327.31 1330.12 1318.14 Q1336.28 1308.93 1347.9 1308.93 Z" fill="#000000" fill-rule="nonzero" fill-opacity="1" /><path clip-path="url(#clip960)" d="M1388.23 1367.54 L1397.99 1367.54 L1397.99 1379.3 L1388.23 1379.3 L1388.23 1367.54 Z" fill="#000000" fill-rule="nonzero" fill-opacity="1" /><path clip-path="url(#clip960)" d="M1418.46 1310.18 L1455.17 1310.18 L1455.17 1318.05 L1427.02 1318.05 L1427.02 1334.99 Q1429.06 1334.3 1431.1 1333.97 Q1433.13 1333.6 1435.17 1333.6 Q1446.74 1333.6 1453.5 1339.94 Q1460.26 1346.29 1460.26 1357.12 Q1460.26 1368.28 1453.32 1374.48 Q1446.37 1380.64 1433.74 1380.64 Q1429.38 1380.64 1424.85 1379.9 Q1420.36 1379.16 1415.54 1377.68 L1415.54 1368.28 Q1419.71 1370.55 1424.15 1371.66 Q1428.6 1372.77 1433.55 1372.77 Q1441.56 1372.77 1446.24 1368.56 Q1450.91 1364.34 1450.91 1357.12 Q1450.91 1349.9 1446.24 1345.68 Q1441.56 1341.47 1433.55 1341.47 Q1429.8 1341.47 1426.05 1342.31 Q1422.35 1343.14 1418.46 1344.9 L1418.46 1310.18 Z" fill="#000000" fill-rule="nonzero" fill-opacity="1" /><path clip-path="url(#clip960)" d="M1498.69 1316.33 Q1491.47 1316.33 1487.81 1323.46 Q1484.2 1330.55 1484.2 1344.81 Q1484.2 1359.02 1487.81 1366.15 Q1491.47 1373.23 1498.69 1373.23 Q1505.96 1373.23 1509.57 1366.15 Q1513.23 1359.02 1513.23 1344.81 Q1513.23 1330.55 1509.57 1323.46 Q1505.96 1316.33 1498.69 1316.33 M1498.69 1308.93 Q1510.31 1308.93 1516.42 1318.14 Q1522.58 1327.31 1522.58 1344.81 Q1522.58 1362.26 1516.42 1371.47 Q1510.31 1380.64 1498.69 1380.64 Q1487.07 1380.64 1480.91 1371.47 Q1474.8 1362.26 1474.8 1344.81 Q1474.8 1327.31 1480.91 1318.14 Q1487.07 1308.93 1498.69 1308.93 Z" fill="#000000" fill-rule="nonzero" fill-opacity="1" /><path clip-path="url(#clip960)" d="M1697.32 1316.33 Q1690.1 1316.33 1686.45 1323.46 Q1682.83 1330.55 1682.83 1344.81 Q1682.83 1359.02 1686.45 1366.15 Q1690.1 1373.23 1697.32 1373.23 Q1704.59 1373.23 1708.2 1366.15 Q1711.86 1359.02 1711.86 1344.81 Q1711.86 1330.55 1708.2 1323.46 Q1704.59 1316.33 1697.32 1316.33 M1697.32 1308.93 Q1708.94 1308.93 1715.06 1318.14 Q1721.21 1327.31 1721.21 1344.81 Q1721.21 1362.26 1715.06 1371.47 Q1708.94 1380.64 1697.32 1380.64 Q1685.7 1380.64 1679.55 1371.47 Q1673.44 1362.26 1673.44 1344.81 Q1673.44 1327.31 1679.55 1318.14 Q1685.7 1308.93 1697.32 1308.93 Z" fill="#000000" fill-rule="nonzero" fill-opacity="1" /><path clip-path="url(#clip960)" d="M1737.65 1367.54 L1747.42 1367.54 L1747.42 1379.3 L1737.65 1379.3 L1737.65 1367.54 Z" fill="#000000" fill-rule="nonzero" fill-opacity="1" /><path clip-path="url(#clip960)" d="M1765.43 1310.18 L1809.87 1310.18 L1809.87 1314.16 L1784.78 1379.3 L1775.01 1379.3 L1798.62 1318.05 L1765.43 1318.05 L1765.43 1310.18 Z" fill="#000000" fill-rule="nonzero" fill-opacity="1" /><path clip-path="url(#clip960)" d="M1828.2 1310.18 L1864.92 1310.18 L1864.92 1318.05 L1836.77 1318.05 L1836.77 1334.99 Q1838.81 1334.3 1840.84 1333.97 Q1842.88 1333.6 1844.92 1333.6 Q1856.49 1333.6 1863.25 1339.94 Q1870.01 1346.29 1870.01 1357.12 Q1870.01 1368.28 1863.06 1374.48 Q1856.12 1380.64 1843.48 1380.64 Q1839.13 1380.64 1834.59 1379.9 Q1830.1 1379.16 1825.29 1377.68 L1825.29 1368.28 Q1829.45 1370.55 1833.9 1371.66 Q1838.34 1372.77 1843.3 1372.77 Q1851.31 1372.77 1855.98 1368.56 Q1860.66 1364.34 1860.66 1357.12 Q1860.66 1349.9 1855.98 1345.68 Q1851.31 1341.47 1843.3 1341.47 Q1839.55 1341.47 1835.8 1342.31 Q1832.09 1343.14 1828.2 1344.9 L1828.2 1310.18 Z" fill="#000000" fill-rule="nonzero" fill-opacity="1" /><path clip-path="url(#clip960)" d="M2024.29 1371.43 L2039.57 1371.43 L2039.57 1318.69 L2022.95 1322.03 L2022.95 1313.51 L2039.48 1310.18 L2048.83 1310.18 L2048.83 1371.43 L2064.11 1371.43 L2064.11 1379.3 L2024.29 1379.3 L2024.29 1371.43 Z" fill="#000000" fill-rule="nonzero" fill-opacity="1" /><path clip-path="url(#clip960)" d="M2083 1367.54 L2092.76 1367.54 L2092.76 1379.3 L2083 1379.3 L2083 1367.54 Z" fill="#000000" fill-rule="nonzero" fill-opacity="1" /><path clip-path="url(#clip960)" d="M2133.13 1316.33 Q2125.91 1316.33 2122.26 1323.46 Q2118.64 1330.55 2118.64 1344.81 Q2118.64 1359.02 2122.26 1366.15 Q2125.91 1373.23 2133.13 1373.23 Q2140.4 1373.23 2144.01 1366.15 Q2147.67 1359.02 2147.67 1344.81 Q2147.67 1330.55 2144.01 1323.46 Q2140.4 1316.33 2133.13 1316.33 M2133.13 1308.93 Q2144.76 1308.93 2150.87 1318.14 Q2157.02 1327.31 2157.02 1344.81 Q2157.02 1362.26 2150.87 1371.47 Q2144.76 1380.64 2133.13 1380.64 Q2121.51 1380.64 2115.36 1371.47 Q2109.25 1362.26 2109.25 1344.81 Q2109.25 1327.31 2115.36 1318.14 Q2121.51 1308.93 2133.13 1308.93 Z" fill="#000000" fill-rule="nonzero" fill-opacity="1" /><path clip-path="url(#clip960)" d="M2193.46 1316.33 Q2186.24 1316.33 2182.58 1323.46 Q2178.97 1330.55 2178.97 1344.81 Q2178.97 1359.02 2182.58 1366.15 Q2186.24 1373.23 2193.46 1373.23 Q2200.73 1373.23 2204.34 1366.15 Q2208 1359.02 2208 1344.81 Q2208 1330.55 2204.34 1323.46 Q2200.73 1316.33 2193.46 1316.33 M2193.46 1308.93 Q2205.08 1308.93 2211.19 1318.14 Q2217.35 1327.31 2217.35 1344.81 Q2217.35 1362.26 2211.19 1371.47 Q2205.08 1380.64 2193.46 1380.64 Q2181.84 1380.64 2175.68 1371.47 Q2169.57 1362.26 2169.57 1344.81 Q2169.57 1327.31 2175.68 1318.14 Q2181.84 1308.93 2193.46 1308.93 Z" fill="#000000" fill-rule="nonzero" fill-opacity="1" /><path clip-path="url(#clip960)" d="M1378.53 1484.39 L1378.53 1527.42 L1366.81 1527.42 L1366.81 1484.77 Q1366.81 1474.65 1362.87 1469.62 Q1358.92 1464.59 1351.03 1464.59 Q1341.54 1464.59 1336.07 1470.64 Q1330.59 1476.69 1330.59 1487.13 L1330.59 1527.42 L1318.82 1527.42 L1318.82 1428.37 L1330.59 1428.37 L1330.59 1467.2 Q1334.79 1460.77 1340.46 1457.59 Q1346.19 1454.41 1353.64 1454.41 Q1365.92 1454.41 1372.22 1462.05 Q1378.53 1469.62 1378.53 1484.39 Z" fill="#000000" fill-rule="nonzero" fill-opacity="1" /><path clip-path="url(#clip960)" d="M1429.51 1464.34 Q1420.09 1464.34 1414.62 1471.72 Q1409.14 1479.04 1409.14 1491.84 Q1409.14 1504.63 1414.56 1512.02 Q1420.03 1519.34 1429.51 1519.34 Q1438.87 1519.34 1444.35 1511.96 Q1449.82 1504.57 1449.82 1491.84 Q1449.82 1479.17 1444.35 1471.79 Q1438.87 1464.34 1429.51 1464.34 M1429.51 1454.41 Q1444.79 1454.41 1453.51 1464.34 Q1462.23 1474.27 1462.23 1491.84 Q1462.23 1509.35 1453.51 1519.34 Q1444.79 1529.27 1429.51 1529.27 Q1414.17 1529.27 1405.45 1519.34 Q1396.8 1509.35 1396.8 1491.84 Q1396.8 1474.27 1405.45 1464.34 Q1414.17 1454.41 1429.51 1454.41 Z" fill="#000000" fill-rule="nonzero" fill-opacity="1" /><path clip-path="url(#clip960)" d="M1480.44 1499.29 L1480.44 1456.13 L1492.15 1456.13 L1492.15 1498.84 Q1492.15 1508.96 1496.1 1514.06 Q1500.05 1519.08 1507.94 1519.08 Q1517.43 1519.08 1522.9 1513.04 Q1528.44 1506.99 1528.44 1496.55 L1528.44 1456.13 L1540.15 1456.13 L1540.15 1527.42 L1528.44 1527.42 L1528.44 1516.47 Q1524.17 1522.97 1518.51 1526.15 Q1512.91 1529.27 1505.46 1529.27 Q1493.17 1529.27 1486.81 1521.63 Q1480.44 1513.99 1480.44 1499.29 M1509.91 1454.41 L1509.91 1454.41 Z" fill="#000000" fill-rule="nonzero" fill-opacity="1" /><path clip-path="url(#clip960)" d="M1605.59 1467.08 Q1603.62 1465.93 1601.26 1465.42 Q1598.97 1464.85 1596.17 1464.85 Q1586.24 1464.85 1580.89 1471.34 Q1575.61 1477.77 1575.61 1489.87 L1575.61 1527.42 L1563.83 1527.42 L1563.83 1456.13 L1575.61 1456.13 L1575.61 1467.2 Q1579.3 1460.71 1585.22 1457.59 Q1591.14 1454.41 1599.61 1454.41 Q1600.82 1454.41 1602.28 1454.6 Q1603.74 1454.73 1605.53 1455.05 L1605.59 1467.08 Z" fill="#000000" fill-rule="nonzero" fill-opacity="1" /><path clip-path="url(#clip960)" d="M1663.33 1458.23 L1663.33 1469.3 Q1658.36 1466.76 1653.01 1465.49 Q1647.67 1464.21 1641.94 1464.21 Q1633.22 1464.21 1628.83 1466.89 Q1624.5 1469.56 1624.5 1474.91 Q1624.5 1478.98 1627.62 1481.34 Q1630.73 1483.63 1640.16 1485.73 L1644.17 1486.62 Q1656.64 1489.29 1661.86 1494.19 Q1667.15 1499.03 1667.15 1507.75 Q1667.15 1517.68 1659.25 1523.48 Q1651.42 1529.27 1637.67 1529.27 Q1631.94 1529.27 1625.71 1528.12 Q1619.53 1527.04 1612.66 1524.81 L1612.66 1512.72 Q1619.15 1516.09 1625.45 1517.81 Q1631.75 1519.47 1637.93 1519.47 Q1646.2 1519.47 1650.66 1516.67 Q1655.12 1513.8 1655.12 1508.64 Q1655.12 1503.87 1651.87 1501.32 Q1648.69 1498.78 1637.8 1496.42 L1633.73 1495.47 Q1622.84 1493.18 1618 1488.47 Q1613.17 1483.69 1613.17 1475.42 Q1613.17 1465.36 1620.3 1459.88 Q1627.42 1454.41 1640.54 1454.41 Q1647.03 1454.41 1652.76 1455.36 Q1658.49 1456.32 1663.33 1458.23 Z" fill="#000000" fill-rule="nonzero" fill-opacity="1" /><polyline clip-path="url(#clip962)" style="stroke:#000000; stroke-linecap:round; stroke-linejoin:round; stroke-width:4; stroke-opacity:0.1; fill:none" points="680.45,1135.17 2305.51,1135.17 "/>
<polyline clip-path="url(#clip962)" style="stroke:#000000; stroke-linecap:round; stroke-linejoin:round; stroke-width:4; stroke-opacity:0.1; fill:none" points="680.45,978.485 2305.51,978.485 "/>
<polyline clip-path="url(#clip962)" style="stroke:#000000; stroke-linecap:round; stroke-linejoin:round; stroke-width:4; stroke-opacity:0.1; fill:none" points="680.45,821.797 2305.51,821.797 "/>
<polyline clip-path="url(#clip962)" style="stroke:#000000; stroke-linecap:round; stroke-linejoin:round; stroke-width:4; stroke-opacity:0.1; fill:none" points="680.45,665.109 2305.51,665.109 "/>
<polyline clip-path="url(#clip962)" style="stroke:#000000; stroke-linecap:round; stroke-linejoin:round; stroke-width:4; stroke-opacity:0.1; fill:none" points="680.45,508.422 2305.51,508.422 "/>
<polyline clip-path="url(#clip962)" style="stroke:#000000; stroke-linecap:round; stroke-linejoin:round; stroke-width:4; stroke-opacity:0.1; fill:none" points="680.45,351.734 2305.51,351.734 "/>
<polyline clip-path="url(#clip962)" style="stroke:#000000; stroke-linecap:round; stroke-linejoin:round; stroke-width:4; stroke-opacity:0.1; fill:none" points="680.45,195.046 2305.51,195.046 "/>
<polyline clip-path="url(#clip960)" style="stroke:#000000; stroke-linecap:round; stroke-linejoin:round; stroke-width:8; stroke-opacity:1; fill:none" points="680.45,1273.7 680.45,94.4882 "/>
<polyline clip-path="url(#clip960)" style="stroke:#000000; stroke-linecap:round; stroke-linejoin:round; stroke-width:8; stroke-opacity:1; fill:none" points="680.45,1135.17 699.348,1135.17 "/>
<polyline clip-path="url(#clip960)" style="stroke:#000000; stroke-linecap:round; stroke-linejoin:round; stroke-width:8; stroke-opacity:1; fill:none" points="680.45,978.485 699.348,978.485 "/>
<polyline clip-path="url(#clip960)" style="stroke:#000000; stroke-linecap:round; stroke-linejoin:round; stroke-width:8; stroke-opacity:1; fill:none" points="680.45,821.797 699.348,821.797 "/>
<polyline clip-path="url(#clip960)" style="stroke:#000000; stroke-linecap:round; stroke-linejoin:round; stroke-width:8; stroke-opacity:1; fill:none" points="680.45,665.109 699.348,665.109 "/>
<polyline clip-path="url(#clip960)" style="stroke:#000000; stroke-linecap:round; stroke-linejoin:round; stroke-width:8; stroke-opacity:1; fill:none" points="680.45,508.422 699.348,508.422 "/>
<polyline clip-path="url(#clip960)" style="stroke:#000000; stroke-linecap:round; stroke-linejoin:round; stroke-width:8; stroke-opacity:1; fill:none" points="680.45,351.734 699.348,351.734 "/>
<polyline clip-path="url(#clip960)" style="stroke:#000000; stroke-linecap:round; stroke-linejoin:round; stroke-width:8; stroke-opacity:1; fill:none" points="680.45,195.046 699.348,195.046 "/>
<path clip-path="url(#clip960)" d="M397.507 1161.86 L430.146 1161.86 L430.146 1169.73 L386.257 1169.73 L386.257 1161.86 Q391.581 1156.35 400.748 1147.09 Q409.961 1137.79 412.322 1135.1 Q416.813 1130.06 418.572 1126.58 Q420.378 1123.07 420.378 1119.69 Q420.378 1114.18 416.489 1110.71 Q412.646 1107.23 406.442 1107.23 Q402.044 1107.23 397.137 1108.76 Q392.276 1110.29 386.72 1113.39 L386.72 1103.95 Q392.368 1101.68 397.276 1100.52 Q402.183 1099.36 406.257 1099.36 Q416.998 1099.36 423.387 1104.73 Q429.776 1110.1 429.776 1119.08 Q429.776 1123.34 428.155 1127.19 Q426.581 1130.98 422.368 1136.17 Q421.211 1137.51 415.007 1143.95 Q408.803 1150.33 397.507 1161.86 Z" fill="#000000" fill-rule="nonzero" fill-opacity="1" /><path clip-path="url(#clip960)" d="M469.775 1106.77 Q462.553 1106.77 458.896 1113.9 Q455.285 1120.98 455.285 1135.24 Q455.285 1149.46 458.896 1156.58 Q462.553 1163.67 469.775 1163.67 Q477.044 1163.67 480.655 1156.58 Q484.312 1149.46 484.312 1135.24 Q484.312 1120.98 480.655 1113.9 Q477.044 1106.77 469.775 1106.77 M469.775 1099.36 Q481.396 1099.36 487.507 1108.58 Q493.664 1117.74 493.664 1135.24 Q493.664 1152.7 487.507 1161.91 Q481.396 1171.08 469.775 1171.08 Q458.155 1171.08 451.998 1161.91 Q445.887 1152.7 445.887 1135.24 Q445.887 1117.74 451.998 1108.58 Q458.155 1099.36 469.775 1099.36 Z" fill="#000000" fill-rule="nonzero" fill-opacity="1" /><path clip-path="url(#clip960)" d="M530.099 1106.77 Q522.877 1106.77 519.22 1113.9 Q515.608 1120.98 515.608 1135.24 Q515.608 1149.46 519.22 1156.58 Q522.877 1163.67 530.099 1163.67 Q537.368 1163.67 540.979 1156.58 Q544.636 1149.46 544.636 1135.24 Q544.636 1120.98 540.979 1113.9 Q537.368 1106.77 530.099 1106.77 M530.099 1099.36 Q541.719 1099.36 547.831 1108.58 Q553.988 1117.74 553.988 1135.24 Q553.988 1152.7 547.831 1161.91 Q541.719 1171.08 530.099 1171.08 Q518.479 1171.08 512.321 1161.91 Q506.21 1152.7 506.21 1135.24 Q506.21 1117.74 512.321 1108.58 Q518.479 1099.36 530.099 1099.36 Z" fill="#000000" fill-rule="nonzero" fill-opacity="1" /><path clip-path="url(#clip960)" d="M570.423 1157.97 L580.191 1157.97 L580.191 1169.73 L570.423 1169.73 L570.423 1157.97 Z" fill="#000000" fill-rule="nonzero" fill-opacity="1" /><path clip-path="url(#clip960)" d="M620.562 1106.77 Q613.339 1106.77 609.682 1113.9 Q606.071 1120.98 606.071 1135.24 Q606.071 1149.46 609.682 1156.58 Q613.339 1163.67 620.562 1163.67 Q627.83 1163.67 631.441 1156.58 Q635.099 1149.46 635.099 1135.24 Q635.099 1120.98 631.441 1113.9 Q627.83 1106.77 620.562 1106.77 M620.562 1099.36 Q632.182 1099.36 638.293 1108.58 Q644.45 1117.74 644.45 1135.24 Q644.45 1152.7 638.293 1161.91 Q632.182 1171.08 620.562 1171.08 Q608.941 1171.08 602.784 1161.91 Q596.673 1152.7 596.673 1135.24 Q596.673 1117.74 602.784 1108.58 Q608.941 1099.36 620.562 1099.36 Z" fill="#000000" fill-rule="nonzero" fill-opacity="1" /><path clip-path="url(#clip960)" d="M397.507 1005.17 L430.146 1005.17 L430.146 1013.04 L386.257 1013.04 L386.257 1005.17 Q391.581 999.665 400.748 990.406 Q409.961 981.101 412.322 978.415 Q416.813 973.369 418.572 969.897 Q420.378 966.379 420.378 962.999 Q420.378 957.49 416.489 954.017 Q412.646 950.545 406.442 950.545 Q402.044 950.545 397.137 952.073 Q392.276 953.601 386.72 956.703 L386.72 947.258 Q392.368 944.99 397.276 943.832 Q402.183 942.675 406.257 942.675 Q416.998 942.675 423.387 948.045 Q429.776 953.416 429.776 962.397 Q429.776 966.656 428.155 970.499 Q426.581 974.295 422.368 979.48 Q421.211 980.823 415.007 987.258 Q408.803 993.647 397.507 1005.17 Z" fill="#000000" fill-rule="nonzero" fill-opacity="1" /><path clip-path="url(#clip960)" d="M457.831 1005.17 L490.47 1005.17 L490.47 1013.04 L446.581 1013.04 L446.581 1005.17 Q451.905 999.665 461.072 990.406 Q470.285 981.101 472.646 978.415 Q477.136 973.369 478.896 969.897 Q480.701 966.379 480.701 962.999 Q480.701 957.49 476.812 954.017 Q472.97 950.545 466.766 950.545 Q462.368 950.545 457.461 952.073 Q452.6 953.601 447.044 956.703 L447.044 947.258 Q452.692 944.99 457.6 943.832 Q462.507 942.675 466.581 942.675 Q477.322 942.675 483.71 948.045 Q490.099 953.416 490.099 962.397 Q490.099 966.656 488.479 970.499 Q486.905 974.295 482.692 979.48 Q481.535 980.823 475.331 987.258 Q469.127 993.647 457.831 1005.17 Z" fill="#000000" fill-rule="nonzero" fill-opacity="1" /><path clip-path="url(#clip960)" d="M510.192 943.925 L546.905 943.925 L546.905 951.795 L518.757 951.795 L518.757 968.74 Q520.794 968.045 522.831 967.721 Q524.868 967.351 526.905 967.351 Q538.479 967.351 545.238 973.693 Q551.997 980.036 551.997 990.869 Q551.997 1002.03 545.053 1008.23 Q538.108 1014.39 525.47 1014.39 Q521.118 1014.39 516.581 1013.65 Q512.09 1012.91 507.275 1011.42 L507.275 1002.03 Q511.442 1004.29 515.886 1005.41 Q520.331 1006.52 525.284 1006.52 Q533.294 1006.52 537.969 1002.3 Q542.645 998.091 542.645 990.869 Q542.645 983.647 537.969 979.434 Q533.294 975.221 525.284 975.221 Q521.534 975.221 517.784 976.054 Q514.081 976.888 510.192 978.647 L510.192 943.925 Z" fill="#000000" fill-rule="nonzero" fill-opacity="1" /><path clip-path="url(#clip960)" d="M570.423 1001.29 L580.191 1001.29 L580.191 1013.04 L570.423 1013.04 L570.423 1001.29 Z" fill="#000000" fill-rule="nonzero" fill-opacity="1" /><path clip-path="url(#clip960)" d="M620.562 950.082 Q613.339 950.082 609.682 957.212 Q606.071 964.295 606.071 978.554 Q606.071 992.767 609.682 999.897 Q613.339 1006.98 620.562 1006.98 Q627.83 1006.98 631.441 999.897 Q635.099 992.767 635.099 978.554 Q635.099 964.295 631.441 957.212 Q627.83 950.082 620.562 950.082 M620.562 942.675 Q632.182 942.675 638.293 951.888 Q644.45 961.054 644.45 978.554 Q644.45 996.008 638.293 1005.22 Q632.182 1014.39 620.562 1014.39 Q608.941 1014.39 602.784 1005.22 Q596.673 996.008 596.673 978.554 Q596.673 961.054 602.784 951.888 Q608.941 942.675 620.562 942.675 Z" fill="#000000" fill-rule="nonzero" fill-opacity="1" /><path clip-path="url(#clip960)" d="M397.507 848.487 L430.146 848.487 L430.146 856.357 L386.257 856.357 L386.257 848.487 Q391.581 842.978 400.748 833.718 Q409.961 824.413 412.322 821.728 Q416.813 816.681 418.572 813.209 Q420.378 809.691 420.378 806.311 Q420.378 800.802 416.489 797.33 Q412.646 793.857 406.442 793.857 Q402.044 793.857 397.137 795.385 Q392.276 796.913 386.72 800.015 L386.72 790.57 Q392.368 788.302 397.276 787.145 Q402.183 785.987 406.257 785.987 Q416.998 785.987 423.387 791.357 Q429.776 796.728 429.776 805.709 Q429.776 809.969 428.155 813.811 Q426.581 817.607 422.368 822.793 Q421.211 824.135 415.007 830.57 Q408.803 836.959 397.507 848.487 Z" fill="#000000" fill-rule="nonzero" fill-opacity="1" /><path clip-path="url(#clip960)" d="M449.868 787.237 L486.581 787.237 L486.581 795.107 L458.433 795.107 L458.433 812.052 Q460.47 811.357 462.507 811.033 Q464.544 810.663 466.581 810.663 Q478.155 810.663 484.914 817.006 Q491.673 823.348 491.673 834.181 Q491.673 845.339 484.729 851.542 Q477.785 857.7 465.146 857.7 Q460.794 857.7 456.257 856.959 Q451.766 856.218 446.951 854.737 L446.951 845.339 Q451.118 847.607 455.562 848.718 Q460.007 849.829 464.961 849.829 Q472.97 849.829 477.646 845.616 Q482.322 841.404 482.322 834.181 Q482.322 826.959 477.646 822.746 Q472.97 818.533 464.961 818.533 Q461.211 818.533 457.461 819.367 Q453.757 820.2 449.868 821.959 L449.868 787.237 Z" fill="#000000" fill-rule="nonzero" fill-opacity="1" /><path clip-path="url(#clip960)" d="M530.099 793.395 Q522.877 793.395 519.22 800.524 Q515.608 807.607 515.608 821.867 Q515.608 836.079 519.22 843.209 Q522.877 850.292 530.099 850.292 Q537.368 850.292 540.979 843.209 Q544.636 836.079 544.636 821.867 Q544.636 807.607 540.979 800.524 Q537.368 793.395 530.099 793.395 M530.099 785.987 Q541.719 785.987 547.831 795.2 Q553.988 804.367 553.988 821.867 Q553.988 839.32 547.831 848.533 Q541.719 857.7 530.099 857.7 Q518.479 857.7 512.321 848.533 Q506.21 839.32 506.21 821.867 Q506.21 804.367 512.321 795.2 Q518.479 785.987 530.099 785.987 Z" fill="#000000" fill-rule="nonzero" fill-opacity="1" /><path clip-path="url(#clip960)" d="M570.423 844.598 L580.191 844.598 L580.191 856.357 L570.423 856.357 L570.423 844.598 Z" fill="#000000" fill-rule="nonzero" fill-opacity="1" /><path clip-path="url(#clip960)" d="M620.562 793.395 Q613.339 793.395 609.682 800.524 Q606.071 807.607 606.071 821.867 Q606.071 836.079 609.682 843.209 Q613.339 850.292 620.562 850.292 Q627.83 850.292 631.441 843.209 Q635.099 836.079 635.099 821.867 Q635.099 807.607 631.441 800.524 Q627.83 793.395 620.562 793.395 M620.562 785.987 Q632.182 785.987 638.293 795.2 Q644.45 804.367 644.45 821.867 Q644.45 839.32 638.293 848.533 Q632.182 857.7 620.562 857.7 Q608.941 857.7 602.784 848.533 Q596.673 839.32 596.673 821.867 Q596.673 804.367 602.784 795.2 Q608.941 785.987 620.562 785.987 Z" fill="#000000" fill-rule="nonzero" fill-opacity="1" /><path clip-path="url(#clip960)" d="M397.507 691.799 L430.146 691.799 L430.146 699.669 L386.257 699.669 L386.257 691.799 Q391.581 686.29 400.748 677.031 Q409.961 667.725 412.322 665.04 Q416.813 659.994 418.572 656.521 Q420.378 653.003 420.378 649.623 Q420.378 644.114 416.489 640.642 Q412.646 637.17 406.442 637.17 Q402.044 637.17 397.137 638.697 Q392.276 640.225 386.72 643.327 L386.72 633.883 Q392.368 631.614 397.276 630.457 Q402.183 629.299 406.257 629.299 Q416.998 629.299 423.387 634.67 Q429.776 640.04 429.776 649.021 Q429.776 653.281 428.155 657.123 Q426.581 660.92 422.368 666.105 Q421.211 667.447 415.007 673.882 Q408.803 680.271 397.507 691.799 Z" fill="#000000" fill-rule="nonzero" fill-opacity="1" /><path clip-path="url(#clip960)" d="M447.414 630.549 L491.859 630.549 L491.859 634.531 L466.766 699.669 L456.998 699.669 L480.609 638.42 L447.414 638.42 L447.414 630.549 Z" fill="#000000" fill-rule="nonzero" fill-opacity="1" /><path clip-path="url(#clip960)" d="M510.192 630.549 L546.905 630.549 L546.905 638.42 L518.757 638.42 L518.757 655.364 Q520.794 654.67 522.831 654.346 Q524.868 653.975 526.905 653.975 Q538.479 653.975 545.238 660.318 Q551.997 666.66 551.997 677.494 Q551.997 688.651 545.053 694.855 Q538.108 701.012 525.47 701.012 Q521.118 701.012 516.581 700.271 Q512.09 699.53 507.275 698.049 L507.275 688.651 Q511.442 690.919 515.886 692.031 Q520.331 693.142 525.284 693.142 Q533.294 693.142 537.969 688.929 Q542.645 684.716 542.645 677.494 Q542.645 670.271 537.969 666.058 Q533.294 661.846 525.284 661.846 Q521.534 661.846 517.784 662.679 Q514.081 663.512 510.192 665.271 L510.192 630.549 Z" fill="#000000" fill-rule="nonzero" fill-opacity="1" /><path clip-path="url(#clip960)" d="M570.423 687.91 L580.191 687.91 L580.191 699.669 L570.423 699.669 L570.423 687.91 Z" fill="#000000" fill-rule="nonzero" fill-opacity="1" /><path clip-path="url(#clip960)" d="M620.562 636.707 Q613.339 636.707 609.682 643.836 Q606.071 650.92 606.071 665.179 Q606.071 679.392 609.682 686.521 Q613.339 693.605 620.562 693.605 Q627.83 693.605 631.441 686.521 Q635.099 679.392 635.099 665.179 Q635.099 650.92 631.441 643.836 Q627.83 636.707 620.562 636.707 M620.562 629.299 Q632.182 629.299 638.293 638.512 Q644.45 647.679 644.45 665.179 Q644.45 682.632 638.293 691.845 Q632.182 701.012 620.562 701.012 Q608.941 701.012 602.784 691.845 Q596.673 682.632 596.673 665.179 Q596.673 647.679 602.784 638.512 Q608.941 629.299 620.562 629.299 Z" fill="#000000" fill-rule="nonzero" fill-opacity="1" /><path clip-path="url(#clip960)" d="M417.785 505.713 Q424.498 507.148 428.248 511.685 Q432.044 516.222 432.044 522.889 Q432.044 533.121 425.007 538.722 Q417.97 544.324 405.007 544.324 Q400.655 544.324 396.026 543.445 Q391.442 542.611 386.535 540.898 L386.535 531.871 Q390.424 534.139 395.054 535.296 Q399.683 536.454 404.729 536.454 Q413.526 536.454 418.109 532.982 Q422.739 529.509 422.739 522.889 Q422.739 516.778 418.433 513.352 Q414.174 509.88 406.535 509.88 L398.479 509.88 L398.479 502.195 L406.905 502.195 Q413.803 502.195 417.461 499.463 Q421.118 496.686 421.118 491.5 Q421.118 486.176 417.322 483.352 Q413.572 480.482 406.535 480.482 Q402.692 480.482 398.294 481.315 Q393.896 482.149 388.618 483.908 L388.618 475.575 Q393.942 474.093 398.572 473.352 Q403.248 472.612 407.368 472.612 Q418.016 472.612 424.22 477.473 Q430.424 482.287 430.424 490.528 Q430.424 496.269 427.137 500.25 Q423.85 504.186 417.785 505.713 Z" fill="#000000" fill-rule="nonzero" fill-opacity="1" /><path clip-path="url(#clip960)" d="M469.775 480.019 Q462.553 480.019 458.896 487.149 Q455.285 494.232 455.285 508.491 Q455.285 522.704 458.896 529.834 Q462.553 536.917 469.775 536.917 Q477.044 536.917 480.655 529.834 Q484.312 522.704 484.312 508.491 Q484.312 494.232 480.655 487.149 Q477.044 480.019 469.775 480.019 M469.775 472.612 Q481.396 472.612 487.507 481.825 Q493.664 490.991 493.664 508.491 Q493.664 525.945 487.507 535.158 Q481.396 544.324 469.775 544.324 Q458.155 544.324 451.998 535.158 Q445.887 525.945 445.887 508.491 Q445.887 490.991 451.998 481.825 Q458.155 472.612 469.775 472.612 Z" fill="#000000" fill-rule="nonzero" fill-opacity="1" /><path clip-path="url(#clip960)" d="M530.099 480.019 Q522.877 480.019 519.22 487.149 Q515.608 494.232 515.608 508.491 Q515.608 522.704 519.22 529.834 Q522.877 536.917 530.099 536.917 Q537.368 536.917 540.979 529.834 Q544.636 522.704 544.636 508.491 Q544.636 494.232 540.979 487.149 Q537.368 480.019 530.099 480.019 M530.099 472.612 Q541.719 472.612 547.831 481.825 Q553.988 490.991 553.988 508.491 Q553.988 525.945 547.831 535.158 Q541.719 544.324 530.099 544.324 Q518.479 544.324 512.321 535.158 Q506.21 525.945 506.21 508.491 Q506.21 490.991 512.321 481.825 Q518.479 472.612 530.099 472.612 Z" fill="#000000" fill-rule="nonzero" fill-opacity="1" /><path clip-path="url(#clip960)" d="M570.423 531.222 L580.191 531.222 L580.191 542.982 L570.423 542.982 L570.423 531.222 Z" fill="#000000" fill-rule="nonzero" fill-opacity="1" /><path clip-path="url(#clip960)" d="M620.562 480.019 Q613.339 480.019 609.682 487.149 Q606.071 494.232 606.071 508.491 Q606.071 522.704 609.682 529.834 Q613.339 536.917 620.562 536.917 Q627.83 536.917 631.441 529.834 Q635.099 522.704 635.099 508.491 Q635.099 494.232 631.441 487.149 Q627.83 480.019 620.562 480.019 M620.562 472.612 Q632.182 472.612 638.293 481.825 Q644.45 490.991 644.45 508.491 Q644.45 525.945 638.293 535.158 Q632.182 544.324 620.562 544.324 Q608.941 544.324 602.784 535.158 Q596.673 525.945 596.673 508.491 Q596.673 490.991 602.784 481.825 Q608.941 472.612 620.562 472.612 Z" fill="#000000" fill-rule="nonzero" fill-opacity="1" /><path clip-path="url(#clip960)" d="M417.785 349.026 Q424.498 350.461 428.248 354.998 Q432.044 359.535 432.044 366.201 Q432.044 376.433 425.007 382.035 Q417.97 387.636 405.007 387.636 Q400.655 387.636 396.026 386.757 Q391.442 385.923 386.535 384.21 L386.535 375.183 Q390.424 377.451 395.054 378.609 Q399.683 379.766 404.729 379.766 Q413.526 379.766 418.109 376.294 Q422.739 372.822 422.739 366.201 Q422.739 360.09 418.433 356.664 Q414.174 353.192 406.535 353.192 L398.479 353.192 L398.479 345.507 L406.905 345.507 Q413.803 345.507 417.461 342.776 Q421.118 339.998 421.118 334.813 Q421.118 329.489 417.322 326.665 Q413.572 323.794 406.535 323.794 Q402.692 323.794 398.294 324.627 Q393.896 325.461 388.618 327.22 L388.618 318.887 Q393.942 317.405 398.572 316.665 Q403.248 315.924 407.368 315.924 Q418.016 315.924 424.22 320.785 Q430.424 325.6 430.424 333.84 Q430.424 339.581 427.137 343.563 Q423.85 347.498 417.785 349.026 Z" fill="#000000" fill-rule="nonzero" fill-opacity="1" /><path clip-path="url(#clip960)" d="M457.831 378.423 L490.47 378.423 L490.47 386.294 L446.581 386.294 L446.581 378.423 Q451.905 372.914 461.072 363.655 Q470.285 354.35 472.646 351.664 Q477.136 346.618 478.896 343.146 Q480.701 339.627 480.701 336.248 Q480.701 330.739 476.812 327.266 Q472.97 323.794 466.766 323.794 Q462.368 323.794 457.461 325.322 Q452.6 326.85 447.044 329.952 L447.044 320.507 Q452.692 318.239 457.6 317.081 Q462.507 315.924 466.581 315.924 Q477.322 315.924 483.71 321.294 Q490.099 326.665 490.099 335.646 Q490.099 339.905 488.479 343.748 Q486.905 347.544 482.692 352.729 Q481.535 354.072 475.331 360.507 Q469.127 366.896 457.831 378.423 Z" fill="#000000" fill-rule="nonzero" fill-opacity="1" /><path clip-path="url(#clip960)" d="M510.192 317.174 L546.905 317.174 L546.905 325.044 L518.757 325.044 L518.757 341.989 Q520.794 341.294 522.831 340.97 Q524.868 340.6 526.905 340.6 Q538.479 340.6 545.238 346.942 Q551.997 353.285 551.997 364.118 Q551.997 375.275 545.053 381.479 Q538.108 387.636 525.47 387.636 Q521.118 387.636 516.581 386.896 Q512.09 386.155 507.275 384.673 L507.275 375.275 Q511.442 377.544 515.886 378.655 Q520.331 379.766 525.284 379.766 Q533.294 379.766 537.969 375.553 Q542.645 371.34 542.645 364.118 Q542.645 356.896 537.969 352.683 Q533.294 348.47 525.284 348.47 Q521.534 348.47 517.784 349.303 Q514.081 350.137 510.192 351.896 L510.192 317.174 Z" fill="#000000" fill-rule="nonzero" fill-opacity="1" /><path clip-path="url(#clip960)" d="M570.423 374.535 L580.191 374.535 L580.191 386.294 L570.423 386.294 L570.423 374.535 Z" fill="#000000" fill-rule="nonzero" fill-opacity="1" /><path clip-path="url(#clip960)" d="M620.562 323.331 Q613.339 323.331 609.682 330.461 Q606.071 337.544 606.071 351.803 Q606.071 366.016 609.682 373.146 Q613.339 380.229 620.562 380.229 Q627.83 380.229 631.441 373.146 Q635.099 366.016 635.099 351.803 Q635.099 337.544 631.441 330.461 Q627.83 323.331 620.562 323.331 M620.562 315.924 Q632.182 315.924 638.293 325.137 Q644.45 334.303 644.45 351.803 Q644.45 369.257 638.293 378.47 Q632.182 387.636 620.562 387.636 Q608.941 387.636 602.784 378.47 Q596.673 369.257 596.673 351.803 Q596.673 334.303 602.784 325.137 Q608.941 315.924 620.562 315.924 Z" fill="#000000" fill-rule="nonzero" fill-opacity="1" /><path clip-path="url(#clip960)" d="M417.785 192.338 Q424.498 193.773 428.248 198.31 Q432.044 202.847 432.044 209.514 Q432.044 219.745 425.007 225.347 Q417.97 230.949 405.007 230.949 Q400.655 230.949 396.026 230.069 Q391.442 229.236 386.535 227.523 L386.535 218.495 Q390.424 220.764 395.054 221.921 Q399.683 223.078 404.729 223.078 Q413.526 223.078 418.109 219.606 Q422.739 216.134 422.739 209.514 Q422.739 203.402 418.433 199.977 Q414.174 196.504 406.535 196.504 L398.479 196.504 L398.479 188.819 L406.905 188.819 Q413.803 188.819 417.461 186.088 Q421.118 183.31 421.118 178.125 Q421.118 172.801 417.322 169.977 Q413.572 167.106 406.535 167.106 Q402.692 167.106 398.294 167.94 Q393.896 168.773 388.618 170.532 L388.618 162.199 Q393.942 160.718 398.572 159.977 Q403.248 159.236 407.368 159.236 Q418.016 159.236 424.22 164.097 Q430.424 168.912 430.424 177.153 Q430.424 182.893 427.137 186.875 Q423.85 190.81 417.785 192.338 Z" fill="#000000" fill-rule="nonzero" fill-opacity="1" /><path clip-path="url(#clip960)" d="M449.868 160.486 L486.581 160.486 L486.581 168.356 L458.433 168.356 L458.433 185.301 Q460.47 184.606 462.507 184.282 Q464.544 183.912 466.581 183.912 Q478.155 183.912 484.914 190.254 Q491.673 196.597 491.673 207.43 Q491.673 218.588 484.729 224.791 Q477.785 230.949 465.146 230.949 Q460.794 230.949 456.257 230.208 Q451.766 229.467 446.951 227.986 L446.951 218.588 Q451.118 220.856 455.562 221.967 Q460.007 223.078 464.961 223.078 Q472.97 223.078 477.646 218.865 Q482.322 214.652 482.322 207.43 Q482.322 200.208 477.646 195.995 Q472.97 191.782 464.961 191.782 Q461.211 191.782 457.461 192.616 Q453.757 193.449 449.868 195.208 L449.868 160.486 Z" fill="#000000" fill-rule="nonzero" fill-opacity="1" /><path clip-path="url(#clip960)" d="M530.099 166.643 Q522.877 166.643 519.22 173.773 Q515.608 180.856 515.608 195.115 Q515.608 209.328 519.22 216.458 Q522.877 223.541 530.099 223.541 Q537.368 223.541 540.979 216.458 Q544.636 209.328 544.636 195.115 Q544.636 180.856 540.979 173.773 Q537.368 166.643 530.099 166.643 M530.099 159.236 Q541.719 159.236 547.831 168.449 Q553.988 177.616 553.988 195.115 Q553.988 212.569 547.831 221.782 Q541.719 230.949 530.099 230.949 Q518.479 230.949 512.321 221.782 Q506.21 212.569 506.21 195.115 Q506.21 177.616 512.321 168.449 Q518.479 159.236 530.099 159.236 Z" fill="#000000" fill-rule="nonzero" fill-opacity="1" /><path clip-path="url(#clip960)" d="M570.423 217.847 L580.191 217.847 L580.191 229.606 L570.423 229.606 L570.423 217.847 Z" fill="#000000" fill-rule="nonzero" fill-opacity="1" /><path clip-path="url(#clip960)" d="M620.562 166.643 Q613.339 166.643 609.682 173.773 Q606.071 180.856 606.071 195.115 Q606.071 209.328 609.682 216.458 Q613.339 223.541 620.562 223.541 Q627.83 223.541 631.441 216.458 Q635.099 209.328 635.099 195.115 Q635.099 180.856 631.441 173.773 Q627.83 166.643 620.562 166.643 M620.562 159.236 Q632.182 159.236 638.293 168.449 Q644.45 177.616 644.45 195.115 Q644.45 212.569 638.293 221.782 Q632.182 230.949 620.562 230.949 Q608.941 230.949 602.784 221.782 Q596.673 212.569 596.673 195.115 Q596.673 177.616 602.784 168.449 Q608.941 159.236 620.562 159.236 Z" fill="#000000" fill-rule="nonzero" fill-opacity="1" /><path clip-path="url(#clip960)" d="M311.051 932.195 L348.863 932.195 L348.863 943.972 L250.449 943.972 L250.449 932.195 L261.271 932.195 Q254.905 928.503 251.85 922.901 Q248.731 917.236 248.731 909.406 Q248.731 896.42 259.043 888.336 Q269.356 880.188 286.161 880.188 Q302.966 880.188 313.279 888.336 Q323.591 896.42 323.591 909.406 Q323.591 917.236 320.536 922.901 Q317.417 928.503 311.051 932.195 M286.161 892.346 Q273.239 892.346 265.918 897.693 Q258.534 902.977 258.534 912.271 Q258.534 921.565 265.918 926.912 Q273.239 932.195 286.161 932.195 Q299.083 932.195 306.468 926.912 Q313.788 921.565 313.788 912.271 Q313.788 902.977 306.468 897.693 Q299.083 892.346 286.161 892.346 Z" fill="#000000" fill-rule="nonzero" fill-opacity="1" /><path clip-path="url(#clip960)" d="M285.906 828.371 Q285.906 842.566 289.153 848.041 Q292.399 853.515 300.229 853.515 Q306.468 853.515 310.16 849.441 Q313.788 845.303 313.788 838.238 Q313.788 828.498 306.913 822.642 Q299.975 816.721 288.516 816.721 L285.906 816.721 L285.906 828.371 M281.068 805.009 L321.745 805.009 L321.745 816.721 L310.924 816.721 Q317.417 820.732 320.536 826.716 Q323.591 832.699 323.591 841.357 Q323.591 852.306 317.48 858.799 Q311.306 865.228 300.993 865.228 Q288.962 865.228 282.851 857.207 Q276.74 849.123 276.74 833.145 L276.74 816.721 L275.594 816.721 Q267.509 816.721 263.117 822.069 Q258.661 827.352 258.661 836.964 Q258.661 843.075 260.125 848.868 Q261.589 854.661 264.518 860.008 L253.696 860.008 Q251.213 853.579 250.004 847.531 Q248.731 841.484 248.731 835.755 Q248.731 820.286 256.751 812.647 Q264.772 805.009 281.068 805.009 Z" fill="#000000" fill-rule="nonzero" fill-opacity="1" /><path clip-path="url(#clip960)" d="M261.398 739.569 Q260.253 741.542 259.743 743.898 Q259.17 746.189 259.17 748.99 Q259.17 758.921 265.663 764.268 Q272.093 769.552 284.188 769.552 L321.745 769.552 L321.745 781.328 L250.449 781.328 L250.449 769.552 L261.526 769.552 Q255.033 765.859 251.914 759.939 Q248.731 754.019 248.731 745.553 Q248.731 744.343 248.922 742.879 Q249.049 741.415 249.367 739.633 L261.398 739.569 Z" fill="#000000" fill-rule="nonzero" fill-opacity="1" /><path clip-path="url(#clip960)" d="M283.169 669.164 L288.898 669.164 L288.898 723.018 Q300.993 722.254 307.359 715.761 Q313.661 709.205 313.661 697.555 Q313.661 690.808 312.006 684.506 Q310.351 678.14 307.041 671.902 L318.117 671.902 Q320.79 678.204 322.191 684.824 Q323.591 691.444 323.591 698.256 Q323.591 715.316 313.661 725.31 Q303.73 735.24 286.798 735.24 Q269.292 735.24 259.043 725.819 Q248.731 716.334 248.731 700.293 Q248.731 685.906 258.025 677.567 Q267.255 669.164 283.169 669.164 M279.732 680.877 Q270.119 681.005 264.39 686.288 Q258.661 691.508 258.661 700.165 Q258.661 709.969 264.199 715.889 Q269.737 721.745 279.795 722.636 L279.732 680.877 Z" fill="#000000" fill-rule="nonzero" fill-opacity="1" /><path clip-path="url(#clip960)" d="M278.713 590.675 L321.745 590.675 L321.745 602.388 L279.095 602.388 Q268.974 602.388 263.945 606.335 Q258.916 610.282 258.916 618.175 Q258.916 627.66 264.963 633.134 Q271.011 638.609 281.45 638.609 L321.745 638.609 L321.745 650.386 L250.449 650.386 L250.449 638.609 L261.526 638.609 Q255.096 634.408 251.914 628.742 Q248.731 623.013 248.731 615.565 Q248.731 603.279 256.37 596.977 Q263.945 590.675 278.713 590.675 Z" fill="#000000" fill-rule="nonzero" fill-opacity="1" /><path clip-path="url(#clip960)" d="M305.576 565.658 L305.576 552.226 L321.745 552.226 L321.745 565.658 L305.576 565.658 Z" fill="#000000" fill-rule="nonzero" fill-opacity="1" /><path clip-path="url(#clip960)" d="M270.501 443.818 Q272.475 434.588 278.713 429.432 Q284.952 424.212 294.118 424.212 Q308.186 424.212 315.889 433.888 Q323.591 443.564 323.591 461.388 Q323.591 467.371 322.382 473.737 Q321.236 480.039 318.881 486.787 L306.468 486.787 Q309.587 481.44 311.178 475.074 Q312.77 468.708 312.77 461.77 Q312.77 449.675 307.995 443.373 Q303.221 437.007 294.118 437.007 Q285.715 437.007 281.005 442.927 Q276.231 448.784 276.231 459.287 L276.231 470.363 L265.663 470.363 L265.663 458.778 Q265.663 449.293 261.908 444.264 Q258.088 439.235 250.959 439.235 Q243.638 439.235 239.755 444.455 Q235.808 449.611 235.808 459.287 Q235.808 464.571 236.954 470.618 Q238.1 476.665 240.519 483.922 L229.061 483.922 Q227.024 476.602 226.005 470.236 Q224.987 463.807 224.987 458.141 Q224.987 443.5 231.671 434.97 Q238.291 426.44 249.622 426.44 Q257.515 426.44 262.99 430.96 Q268.401 435.479 270.501 443.818 Z" fill="#000000" fill-rule="nonzero" fill-opacity="1" /><polyline clip-path="url(#clip962)" style="stroke:#008000; stroke-linecap:round; stroke-linejoin:round; stroke-width:8; stroke-opacity:1; fill:none" points="726.443,200.882 865.813,282.24 1005.18,370.764 1144.55,471.284 1283.93,494.502 1423.3,678.876 1562.67,798.967 1702.04,865.134 1841.41,920.09 1980.78,984.998 2120.15,1051.72 2259.52,1097.56 "/>
<circle clip-path="url(#clip962)" cx="726.443" cy="200.882" r="14.4" fill="#008000" fill-rule="evenodd" fill-opacity="1" stroke="#000000" stroke-opacity="1" stroke-width="6.4"/>
<circle clip-path="url(#clip962)" cx="865.813" cy="282.24" r="14.4" fill="#008000" fill-rule="evenodd" fill-opacity="1" stroke="#000000" stroke-opacity="1" stroke-width="6.4"/>
<circle clip-path="url(#clip962)" cx="1005.18" cy="370.764" r="14.4" fill="#008000" fill-rule="evenodd" fill-opacity="1" stroke="#000000" stroke-opacity="1" stroke-width="6.4"/>
<circle clip-path="url(#clip962)" cx="1144.55" cy="471.284" r="14.4" fill="#008000" fill-rule="evenodd" fill-opacity="1" stroke="#000000" stroke-opacity="1" stroke-width="6.4"/>
<circle clip-path="url(#clip962)" cx="1283.93" cy="494.502" r="14.4" fill="#008000" fill-rule="evenodd" fill-opacity="1" stroke="#000000" stroke-opacity="1" stroke-width="6.4"/>
<circle clip-path="url(#clip962)" cx="1423.3" cy="678.876" r="14.4" fill="#008000" fill-rule="evenodd" fill-opacity="1" stroke="#000000" stroke-opacity="1" stroke-width="6.4"/>
<circle clip-path="url(#clip962)" cx="1562.67" cy="798.967" r="14.4" fill="#008000" fill-rule="evenodd" fill-opacity="1" stroke="#000000" stroke-opacity="1" stroke-width="6.4"/>
<circle clip-path="url(#clip962)" cx="1702.04" cy="865.134" r="14.4" fill="#008000" fill-rule="evenodd" fill-opacity="1" stroke="#000000" stroke-opacity="1" stroke-width="6.4"/>
<circle clip-path="url(#clip962)" cx="1841.41" cy="920.09" r="14.4" fill="#008000" fill-rule="evenodd" fill-opacity="1" stroke="#000000" stroke-opacity="1" stroke-width="6.4"/>
<circle clip-path="url(#clip962)" cx="1980.78" cy="984.998" r="14.4" fill="#008000" fill-rule="evenodd" fill-opacity="1" stroke="#000000" stroke-opacity="1" stroke-width="6.4"/>
<circle clip-path="url(#clip962)" cx="2120.15" cy="1051.72" r="14.4" fill="#008000" fill-rule="evenodd" fill-opacity="1" stroke="#000000" stroke-opacity="1" stroke-width="6.4"/>
<circle clip-path="url(#clip962)" cx="2259.52" cy="1097.56" r="14.4" fill="#008000" fill-rule="evenodd" fill-opacity="1" stroke="#000000" stroke-opacity="1" stroke-width="6.4"/>
<polyline clip-path="url(#clip962)" style="stroke:#00008b; stroke-linecap:round; stroke-linejoin:round; stroke-width:8; stroke-opacity:1; fill:none" points="726.443,191.173 865.813,300.433 1005.18,423.895 1144.55,533.693 1283.93,636.865 1423.3,733.323 1562.67,820.438 1702.04,904.701 1841.41,979.089 1980.78,1052.35 2120.15,1113.82 2259.52,1177.32 "/>
<path clip-path="url(#clip962)" d="M726.443 259.122 L865.813 364.53 L1005.18 491.605 L1144.55 600.199 L1283.93 702.861 L1423.3 799.643 L1562.67 885.876 L1702.04 973.527 L1841.41 1045.77 L1980.78 1115.27 L2120.15 1177.49 L2259.52 1240.32 L2259.52 1114.26 L2120.15 1048.24 L1980.78 986.914 L1841.41 916.002 L1702.04 840.124 L1562.67 755.155 L1423.3 668.718 L1283.93 574.293 L1144.55 468.723 L1005.18 357.054 L865.813 238.354 L726.443 127.862  Z" fill="#0000ff" fill-rule="evenodd" fill-opacity="0.1"/>
<polyline clip-path="url(#clip962)" style="stroke:#0000ff; stroke-linecap:round; stroke-linejoin:round; stroke-width:0; stroke-opacity:0.1; fill:none" points="726.443,259.122 865.813,364.53 1005.18,491.605 1144.55,600.199 1283.93,702.861 1423.3,799.643 1562.67,885.876 1702.04,973.527 1841.41,1045.77 1980.78,1115.27 2120.15,1177.49 2259.52,1240.32 "/>
</svg>
