<?xml version="1.0" encoding="utf-8"?>
<svg xmlns="http://www.w3.org/2000/svg" xmlns:xlink="http://www.w3.org/1999/xlink" width="600" height="400" viewBox="0 0 2400 1600">
<defs>
  <clipPath id="clip120">
    <rect x="0" y="0" width="2400" height="1600"/>
  </clipPath>
</defs>
<path clip-path="url(#clip120)" d="M0 1600 L2400 1600 L2400 0 L0 0  Z" fill="#ffffff" fill-rule="evenodd" fill-opacity="1"/>
<defs>
  <clipPath id="clip121">
    <rect x="480" y="0" width="1681" height="1600"/>
  </clipPath>
</defs>
<path clip-path="url(#clip120)" d="M673.506 1273.7 L2305.51 1273.7 L2305.51 94.4882 L673.506 94.4882  Z" fill="#ffffff" fill-rule="evenodd" fill-opacity="1"/>
<defs>
  <clipPath id="clip122">
    <rect x="673" y="94" width="1633" height="1180"/>
  </clipPath>
</defs>
<polyline clip-path="url(#clip122)" style="stroke:#000000; stroke-linecap:round; stroke-linejoin:round; stroke-width:4; stroke-opacity:0.1; fill:none" points="719.695,1273.7 719.695,94.4882 "/>
<polyline clip-path="url(#clip122)" style="stroke:#000000; stroke-linecap:round; stroke-linejoin:round; stroke-width:4; stroke-opacity:0.1; fill:none" points="1069.61,1273.7 1069.61,94.4882 "/>
<polyline clip-path="url(#clip122)" style="stroke:#000000; stroke-linecap:round; stroke-linejoin:round; stroke-width:4; stroke-opacity:0.1; fill:none" points="1419.53,1273.7 1419.53,94.4882 "/>
<polyline clip-path="url(#clip122)" style="stroke:#000000; stroke-linecap:round; stroke-linejoin:round; stroke-width:4; stroke-opacity:0.1; fill:none" points="1769.44,1273.7 1769.44,94.4882 "/>
<polyline clip-path="url(#clip122)" style="stroke:#000000; stroke-linecap:round; stroke-linejoin:round; stroke-width:4; stroke-opacity:0.1; fill:none" points="2119.36,1273.7 2119.36,94.4882 "/>
<polyline clip-path="url(#clip120)" style="stroke:#000000; stroke-linecap:round; stroke-linejoin:round; stroke-width:8; stroke-opacity:1; fill:none" points="673.506,1273.7 2305.51,1273.7 "/>
<polyline clip-path="url(#clip120)" style="stroke:#000000; stroke-linecap:round; stroke-linejoin:round; stroke-width:8; stroke-opacity:1; fill:none" points="719.695,1273.7 719.695,1254.8 "/>
<polyline clip-path="url(#clip120)" style="stroke:#000000; stroke-linecap:round; stroke-linejoin:round; stroke-width:8; stroke-opacity:1; fill:none" points="1069.61,1273.7 1069.61,1254.8 "/>
<polyline clip-path="url(#clip120)" style="stroke:#000000; stroke-linecap:round; stroke-linejoin:round; stroke-width:8; stroke-opacity:1; fill:none" points="1419.53,1273.7 1419.53,1254.8 "/>
<polyline clip-path="url(#clip120)" style="stroke:#000000; stroke-linecap:round; stroke-linejoin:round; stroke-width:8; stroke-opacity:1; fill:none" points="1769.44,1273.7 1769.44,1254.8 "/>
<polyline clip-path="url(#clip120)" style="stroke:#000000; stroke-linecap:round; stroke-linejoin:round; stroke-width:8; stroke-opacity:1; fill:none" points="2119.36,1273.7 2119.36,1254.8 "/>
<path clip-path="url(#clip120)" d="M644.302 1316.33 Q637.08 1316.33 633.422 1323.46 Q629.811 1330.55 629.811 1344.81 Q629.811 1359.02 633.422 1366.15 Q637.08 1373.23 644.302 1373.23 Q651.57 1373.23 655.181 1366.15 Q658.839 1359.02 658.839 1344.81 Q658.839 1330.55 655.181 1323.46 Q651.57 1316.33 644.302 1316.33 M644.302 1308.93 Q655.922 1308.93 662.033 1318.14 Q668.19 1327.31 668.19 1344.81 Q668.19 1362.26 662.033 1371.47 Q655.922 1380.64 644.302 1380.64 Q632.681 1380.64 626.524 1371.47 Q620.413 1362.26 620.413 1344.81 Q620.413 1327.31 626.524 1318.14 Q632.681 1308.93 644.302 1308.93 Z" fill="#000000" fill-rule="nonzero" fill-opacity="1" /><path clip-path="url(#clip120)" d="M684.626 1367.54 L694.394 1367.54 L694.394 1379.3 L684.626 1379.3 L684.626 1367.54 Z" fill="#000000" fill-rule="nonzero" fill-opacity="1" /><path clip-path="url(#clip120)" d="M734.764 1316.33 Q727.542 1316.33 723.885 1323.46 Q720.274 1330.55 720.274 1344.81 Q720.274 1359.02 723.885 1366.15 Q727.542 1373.23 734.764 1373.23 Q742.033 1373.23 745.644 1366.15 Q749.301 1359.02 749.301 1344.81 Q749.301 1330.55 745.644 1323.46 Q742.033 1316.33 734.764 1316.33 M734.764 1308.93 Q746.384 1308.93 752.496 1318.14 Q758.653 1327.31 758.653 1344.81 Q758.653 1362.26 752.496 1371.47 Q746.384 1380.64 734.764 1380.64 Q723.144 1380.64 716.986 1371.47 Q710.875 1362.26 710.875 1344.81 Q710.875 1327.31 716.986 1318.14 Q723.144 1308.93 734.764 1308.93 Z" fill="#000000" fill-rule="nonzero" fill-opacity="1" /><path clip-path="url(#clip120)" d="M795.088 1316.33 Q787.866 1316.33 784.208 1323.46 Q780.597 1330.55 780.597 1344.81 Q780.597 1359.02 784.208 1366.15 Q787.866 1373.23 795.088 1373.23 Q802.356 1373.23 805.967 1366.15 Q809.625 1359.02 809.625 1344.81 Q809.625 1330.55 805.967 1323.46 Q802.356 1316.33 795.088 1316.33 M795.088 1308.93 Q806.708 1308.93 812.819 1318.14 Q818.977 1327.31 818.977 1344.81 Q818.977 1362.26 812.819 1371.47 Q806.708 1380.64 795.088 1380.64 Q783.468 1380.64 777.31 1371.47 Q771.199 1362.26 771.199 1344.81 Q771.199 1327.31 777.31 1318.14 Q783.468 1308.93 795.088 1308.93 Z" fill="#000000" fill-rule="nonzero" fill-opacity="1" /><path clip-path="url(#clip120)" d="M995.213 1316.33 Q987.99 1316.33 984.333 1323.46 Q980.722 1330.55 980.722 1344.81 Q980.722 1359.02 984.333 1366.15 Q987.99 1373.23 995.213 1373.23 Q1002.48 1373.23 1006.09 1366.15 Q1009.75 1359.02 1009.75 1344.81 Q1009.75 1330.55 1006.09 1323.46 Q1002.48 1316.33 995.213 1316.33 M995.213 1308.93 Q1006.83 1308.93 1012.94 1318.14 Q1019.1 1327.31 1019.1 1344.81 Q1019.1 1362.26 1012.94 1371.47 Q1006.83 1380.64 995.213 1380.64 Q983.592 1380.64 977.435 1371.47 Q971.324 1362.26 971.324 1344.81 Q971.324 1327.31 977.435 1318.14 Q983.592 1308.93 995.213 1308.93 Z" fill="#000000" fill-rule="nonzero" fill-opacity="1" /><path clip-path="url(#clip120)" d="M1035.54 1367.54 L1045.3 1367.54 L1045.3 1379.3 L1035.54 1379.3 L1035.54 1367.54 Z" fill="#000000" fill-rule="nonzero" fill-opacity="1" /><path clip-path="url(#clip120)" d="M1073.73 1371.43 L1106.37 1371.43 L1106.37 1379.3 L1062.48 1379.3 L1062.48 1371.43 Q1067.8 1365.92 1076.97 1356.66 Q1086.18 1347.35 1088.55 1344.67 Q1093.04 1339.62 1094.8 1336.15 Q1096.6 1332.63 1096.6 1329.25 Q1096.6 1323.74 1092.71 1320.27 Q1088.87 1316.8 1082.67 1316.8 Q1078.27 1316.8 1073.36 1318.32 Q1068.5 1319.85 1062.94 1322.95 L1062.94 1313.51 Q1068.59 1311.24 1073.5 1310.08 Q1078.41 1308.93 1082.48 1308.93 Q1093.22 1308.93 1099.61 1314.3 Q1106 1319.67 1106 1328.65 Q1106 1332.91 1104.38 1336.75 Q1102.8 1340.55 1098.59 1345.73 Q1097.43 1347.07 1091.23 1353.51 Q1085.03 1359.9 1073.73 1371.43 Z" fill="#000000" fill-rule="nonzero" fill-opacity="1" /><path clip-path="url(#clip120)" d="M1126.09 1310.18 L1162.8 1310.18 L1162.8 1318.05 L1134.66 1318.05 L1134.66 1334.99 Q1136.69 1334.3 1138.73 1333.97 Q1140.77 1333.6 1142.8 1333.6 Q1154.38 1333.6 1161.14 1339.94 Q1167.9 1346.29 1167.9 1357.12 Q1167.9 1368.28 1160.95 1374.48 Q1154.01 1380.64 1141.37 1380.64 Q1137.02 1380.64 1132.48 1379.9 Q1127.99 1379.16 1123.17 1377.68 L1123.17 1368.28 Q1127.34 1370.55 1131.79 1371.66 Q1136.23 1372.77 1141.18 1372.77 Q1149.19 1372.77 1153.87 1368.56 Q1158.55 1364.34 1158.55 1357.12 Q1158.55 1349.9 1153.87 1345.68 Q1149.19 1341.47 1141.18 1341.47 Q1137.43 1341.47 1133.68 1342.31 Q1129.98 1343.14 1126.09 1344.9 L1126.09 1310.18 Z" fill="#000000" fill-rule="nonzero" fill-opacity="1" /><path clip-path="url(#clip120)" d="M1344.13 1316.33 Q1336.91 1316.33 1333.25 1323.46 Q1329.64 1330.55 1329.64 1344.81 Q1329.64 1359.02 1333.25 1366.15 Q1336.91 1373.23 1344.13 1373.23 Q1351.4 1373.23 1355.01 1366.15 Q1358.67 1359.02 1358.67 1344.81 Q1358.67 1330.55 1355.01 1323.46 Q1351.4 1316.33 1344.13 1316.33 M1344.13 1308.93 Q1355.75 1308.93 1361.86 1318.14 Q1368.02 1327.31 1368.02 1344.81 Q1368.02 1362.26 1361.86 1371.47 Q1355.75 1380.64 1344.13 1380.64 Q1332.51 1380.64 1326.35 1371.47 Q1320.24 1362.26 1320.24 1344.81 Q1320.24 1327.31 1326.35 1318.14 Q1332.51 1308.93 1344.13 1308.93 Z" fill="#000000" fill-rule="nonzero" fill-opacity="1" /><path clip-path="url(#clip120)" d="M1384.46 1367.54 L1394.23 1367.54 L1394.23 1379.3 L1384.46 1379.3 L1384.46 1367.54 Z" fill="#000000" fill-rule="nonzero" fill-opacity="1" /><path clip-path="url(#clip120)" d="M1414.69 1310.18 L1451.4 1310.18 L1451.4 1318.05 L1423.25 1318.05 L1423.25 1334.99 Q1425.29 1334.3 1427.33 1333.97 Q1429.36 1333.6 1431.4 1333.6 Q1442.97 1333.6 1449.73 1339.94 Q1456.49 1346.29 1456.49 1357.12 Q1456.49 1368.28 1449.55 1374.48 Q1442.6 1380.64 1429.97 1380.64 Q1425.61 1380.64 1421.08 1379.9 Q1416.59 1379.16 1411.77 1377.68 L1411.77 1368.28 Q1415.94 1370.55 1420.38 1371.66 Q1424.83 1372.77 1429.78 1372.77 Q1437.79 1372.77 1442.47 1368.56 Q1447.14 1364.34 1447.14 1357.12 Q1447.14 1349.9 1442.47 1345.68 Q1437.79 1341.47 1429.78 1341.47 Q1426.03 1341.47 1422.28 1342.31 Q1418.58 1343.14 1414.69 1344.9 L1414.69 1310.18 Z" fill="#000000" fill-rule="nonzero" fill-opacity="1" /><path clip-path="url(#clip120)" d="M1494.92 1316.33 Q1487.7 1316.33 1484.04 1323.46 Q1480.43 1330.55 1480.43 1344.81 Q1480.43 1359.02 1484.04 1366.15 Q1487.7 1373.23 1494.92 1373.23 Q1502.19 1373.23 1505.8 1366.15 Q1509.46 1359.02 1509.46 1344.81 Q1509.46 1330.55 1505.8 1323.46 Q1502.19 1316.33 1494.92 1316.33 M1494.92 1308.93 Q1506.54 1308.93 1512.65 1318.14 Q1518.81 1327.31 1518.81 1344.81 Q1518.81 1362.26 1512.65 1371.47 Q1506.54 1380.64 1494.92 1380.64 Q1483.3 1380.64 1477.14 1371.47 Q1471.03 1362.26 1471.03 1344.81 Q1471.03 1327.31 1477.14 1318.14 Q1483.3 1308.93 1494.92 1308.93 Z" fill="#000000" fill-rule="nonzero" fill-opacity="1" /><path clip-path="url(#clip120)" d="M1695.04 1316.33 Q1687.82 1316.33 1684.16 1323.46 Q1680.55 1330.55 1680.55 1344.81 Q1680.55 1359.02 1684.16 1366.15 Q1687.82 1373.23 1695.04 1373.23 Q1702.31 1373.23 1705.92 1366.15 Q1709.58 1359.02 1709.58 1344.81 Q1709.58 1330.55 1705.92 1323.46 Q1702.31 1316.33 1695.04 1316.33 M1695.04 1308.93 Q1706.66 1308.93 1712.77 1318.14 Q1718.93 1327.31 1718.93 1344.81 Q1718.93 1362.26 1712.77 1371.47 Q1706.66 1380.64 1695.04 1380.64 Q1683.42 1380.64 1677.27 1371.47 Q1671.15 1362.26 1671.15 1344.81 Q1671.15 1327.31 1677.27 1318.14 Q1683.42 1308.93 1695.04 1308.93 Z" fill="#000000" fill-rule="nonzero" fill-opacity="1" /><path clip-path="url(#clip120)" d="M1735.37 1367.54 L1745.14 1367.54 L1745.14 1379.3 L1735.37 1379.3 L1735.37 1367.54 Z" fill="#000000" fill-rule="nonzero" fill-opacity="1" /><path clip-path="url(#clip120)" d="M1763.15 1310.18 L1807.59 1310.18 L1807.59 1314.16 L1782.5 1379.3 L1772.73 1379.3 L1796.34 1318.05 L1763.15 1318.05 L1763.15 1310.18 Z" fill="#000000" fill-rule="nonzero" fill-opacity="1" /><path clip-path="url(#clip120)" d="M1825.92 1310.18 L1862.64 1310.18 L1862.64 1318.05 L1834.49 1318.05 L1834.49 1334.99 Q1836.52 1334.3 1838.56 1333.97 Q1840.6 1333.6 1842.64 1333.6 Q1854.21 1333.6 1860.97 1339.94 Q1867.73 1346.29 1867.73 1357.12 Q1867.73 1368.28 1860.78 1374.48 Q1853.84 1380.64 1841.2 1380.64 Q1836.85 1380.64 1832.31 1379.9 Q1827.82 1379.16 1823.01 1377.68 L1823.01 1368.28 Q1827.17 1370.55 1831.62 1371.66 Q1836.06 1372.77 1841.01 1372.77 Q1849.02 1372.77 1853.7 1368.56 Q1858.38 1364.34 1858.38 1357.12 Q1858.38 1349.9 1853.7 1345.68 Q1849.02 1341.47 1841.01 1341.47 Q1837.26 1341.47 1833.52 1342.31 Q1829.81 1343.14 1825.92 1344.9 L1825.92 1310.18 Z" fill="#000000" fill-rule="nonzero" fill-opacity="1" /><path clip-path="url(#clip120)" d="M2023.5 1371.43 L2038.78 1371.43 L2038.78 1318.69 L2022.16 1322.03 L2022.16 1313.51 L2038.69 1310.18 L2048.04 1310.18 L2048.04 1371.43 L2063.32 1371.43 L2063.32 1379.3 L2023.5 1379.3 L2023.5 1371.43 Z" fill="#000000" fill-rule="nonzero" fill-opacity="1" /><path clip-path="url(#clip120)" d="M2082.2 1367.54 L2091.97 1367.54 L2091.97 1379.3 L2082.2 1379.3 L2082.2 1367.54 Z" fill="#000000" fill-rule="nonzero" fill-opacity="1" /><path clip-path="url(#clip120)" d="M2132.34 1316.33 Q2125.12 1316.33 2121.46 1323.46 Q2117.85 1330.55 2117.85 1344.81 Q2117.85 1359.02 2121.46 1366.15 Q2125.12 1373.23 2132.34 1373.23 Q2139.61 1373.23 2143.22 1366.15 Q2146.88 1359.02 2146.88 1344.81 Q2146.88 1330.55 2143.22 1323.46 Q2139.61 1316.33 2132.34 1316.33 M2132.34 1308.93 Q2143.96 1308.93 2150.07 1318.14 Q2156.23 1327.31 2156.23 1344.81 Q2156.23 1362.26 2150.07 1371.47 Q2143.96 1380.64 2132.34 1380.64 Q2120.72 1380.64 2114.57 1371.47 Q2108.45 1362.26 2108.45 1344.81 Q2108.45 1327.31 2114.57 1318.14 Q2120.72 1308.93 2132.34 1308.93 Z" fill="#000000" fill-rule="nonzero" fill-opacity="1" /><path clip-path="url(#clip120)" d="M2192.67 1316.33 Q2185.44 1316.33 2181.79 1323.46 Q2178.18 1330.55 2178.18 1344.81 Q2178.18 1359.02 2181.79 1366.15 Q2185.44 1373.23 2192.67 1373.23 Q2199.94 1373.23 2203.55 1366.15 Q2207.2 1359.02 2207.2 1344.81 Q2207.2 1330.55 2203.55 1323.46 Q2199.94 1316.33 2192.67 1316.33 M2192.67 1308.93 Q2204.29 1308.93 2210.4 1318.14 Q2216.56 1327.31 2216.56 1344.81 Q2216.56 1362.26 2210.4 1371.47 Q2204.29 1380.64 2192.67 1380.64 Q2181.05 1380.64 2174.89 1371.47 Q2168.78 1362.26 2168.78 1344.81 Q2168.78 1327.31 2174.89 1318.14 Q2181.05 1308.93 2192.67 1308.93 Z" fill="#000000" fill-rule="nonzero" fill-opacity="1" /><path clip-path="url(#clip120)" d="M1375.05 1484.39 L1375.05 1527.42 L1363.34 1527.42 L1363.34 1484.77 Q1363.34 1474.65 1359.39 1469.62 Q1355.45 1464.59 1347.55 1464.59 Q1338.07 1464.59 1332.59 1470.64 Q1327.12 1476.69 1327.12 1487.13 L1327.12 1527.42 L1315.34 1527.42 L1315.34 1428.37 L1327.12 1428.37 L1327.12 1467.2 Q1331.32 1460.77 1336.99 1457.59 Q1342.72 1454.41 1350.16 1454.41 Q1362.45 1454.41 1368.75 1462.05 Q1375.05 1469.62 1375.05 1484.39 Z" fill="#000000" fill-rule="nonzero" fill-opacity="1" /><path clip-path="url(#clip120)" d="M1426.04 1464.34 Q1416.62 1464.34 1411.15 1471.72 Q1405.67 1479.04 1405.67 1491.84 Q1405.67 1504.63 1411.08 1512.02 Q1416.56 1519.34 1426.04 1519.34 Q1435.4 1519.34 1440.87 1511.96 Q1446.35 1504.57 1446.35 1491.84 Q1446.35 1479.17 1440.87 1471.79 Q1435.4 1464.34 1426.04 1464.34 M1426.04 1454.41 Q1441.32 1454.41 1450.04 1464.34 Q1458.76 1474.27 1458.76 1491.84 Q1458.76 1509.35 1450.04 1519.34 Q1441.32 1529.27 1426.04 1529.27 Q1410.7 1529.27 1401.98 1519.34 Q1393.32 1509.35 1393.32 1491.84 Q1393.32 1474.27 1401.98 1464.34 Q1410.7 1454.41 1426.04 1454.41 Z" fill="#000000" fill-rule="nonzero" fill-opacity="1" /><path clip-path="url(#clip120)" d="M1476.97 1499.29 L1476.97 1456.13 L1488.68 1456.13 L1488.68 1498.84 Q1488.68 1508.96 1492.63 1514.06 Q1496.57 1519.08 1504.47 1519.08 Q1513.95 1519.08 1519.43 1513.04 Q1524.97 1506.99 1524.97 1496.55 L1524.97 1456.13 L1536.68 1456.13 L1536.68 1527.42 L1524.97 1527.42 L1524.97 1516.47 Q1520.7 1522.97 1515.04 1526.15 Q1509.43 1529.27 1501.99 1529.27 Q1489.7 1529.27 1483.33 1521.63 Q1476.97 1513.99 1476.97 1499.29 M1506.44 1454.41 L1506.44 1454.41 Z" fill="#000000" fill-rule="nonzero" fill-opacity="1" /><path clip-path="url(#clip120)" d="M1602.12 1467.08 Q1600.14 1465.93 1597.79 1465.42 Q1595.5 1464.85 1592.7 1464.85 Q1582.77 1464.85 1577.42 1471.34 Q1572.14 1477.77 1572.14 1489.87 L1572.14 1527.42 L1560.36 1527.42 L1560.36 1456.13 L1572.14 1456.13 L1572.14 1467.2 Q1575.83 1460.71 1581.75 1457.59 Q1587.67 1454.41 1596.13 1454.41 Q1597.34 1454.41 1598.81 1454.6 Q1600.27 1454.73 1602.05 1455.05 L1602.12 1467.08 Z" fill="#000000" fill-rule="nonzero" fill-opacity="1" /><path clip-path="url(#clip120)" d="M1659.86 1458.23 L1659.86 1469.3 Q1654.89 1466.76 1649.54 1465.49 Q1644.2 1464.21 1638.47 1464.21 Q1629.75 1464.21 1625.35 1466.89 Q1621.02 1469.56 1621.02 1474.91 Q1621.02 1478.98 1624.14 1481.34 Q1627.26 1483.63 1636.68 1485.73 L1640.69 1486.62 Q1653.17 1489.29 1658.39 1494.19 Q1663.67 1499.03 1663.67 1507.75 Q1663.67 1517.68 1655.78 1523.48 Q1647.95 1529.27 1634.2 1529.27 Q1628.47 1529.27 1622.23 1528.12 Q1616.06 1527.04 1609.18 1524.81 L1609.18 1512.72 Q1615.68 1516.09 1621.98 1517.81 Q1628.28 1519.47 1634.46 1519.47 Q1642.73 1519.47 1647.19 1516.67 Q1651.64 1513.8 1651.64 1508.64 Q1651.64 1503.87 1648.4 1501.32 Q1645.21 1498.78 1634.33 1496.42 L1630.25 1495.47 Q1619.37 1493.18 1614.53 1488.47 Q1609.69 1483.69 1609.69 1475.42 Q1609.69 1465.36 1616.82 1459.88 Q1623.95 1454.41 1637.07 1454.41 Q1643.56 1454.41 1649.29 1455.36 Q1655.02 1456.32 1659.86 1458.23 Z" fill="#000000" fill-rule="nonzero" fill-opacity="1" /><polyline clip-path="url(#clip122)" style="stroke:#000000; stroke-linecap:round; stroke-linejoin:round; stroke-width:4; stroke-opacity:0.1; fill:none" points="673.506,1221.64 2305.51,1221.64 "/>
<polyline clip-path="url(#clip122)" style="stroke:#000000; stroke-linecap:round; stroke-linejoin:round; stroke-width:4; stroke-opacity:0.1; fill:none" points="673.506,985.782 2305.51,985.782 "/>
<polyline clip-path="url(#clip122)" style="stroke:#000000; stroke-linecap:round; stroke-linejoin:round; stroke-width:4; stroke-opacity:0.1; fill:none" points="673.506,749.92 2305.51,749.92 "/>
<polyline clip-path="url(#clip122)" style="stroke:#000000; stroke-linecap:round; stroke-linejoin:round; stroke-width:4; stroke-opacity:0.1; fill:none" points="673.506,514.057 2305.51,514.057 "/>
<polyline clip-path="url(#clip122)" style="stroke:#000000; stroke-linecap:round; stroke-linejoin:round; stroke-width:4; stroke-opacity:0.1; fill:none" points="673.506,278.194 2305.51,278.194 "/>
<polyline clip-path="url(#clip120)" style="stroke:#000000; stroke-linecap:round; stroke-linejoin:round; stroke-width:8; stroke-opacity:1; fill:none" points="673.506,1273.7 673.506,94.4882 "/>
<polyline clip-path="url(#clip120)" style="stroke:#000000; stroke-linecap:round; stroke-linejoin:round; stroke-width:8; stroke-opacity:1; fill:none" points="673.506,1221.64 692.404,1221.64 "/>
<polyline clip-path="url(#clip120)" style="stroke:#000000; stroke-linecap:round; stroke-linejoin:round; stroke-width:8; stroke-opacity:1; fill:none" points="673.506,985.782 692.404,985.782 "/>
<polyline clip-path="url(#clip120)" style="stroke:#000000; stroke-linecap:round; stroke-linejoin:round; stroke-width:8; stroke-opacity:1; fill:none" points="673.506,749.92 692.404,749.92 "/>
<polyline clip-path="url(#clip120)" style="stroke:#000000; stroke-linecap:round; stroke-linejoin:round; stroke-width:8; stroke-opacity:1; fill:none" points="673.506,514.057 692.404,514.057 "/>
<polyline clip-path="url(#clip120)" style="stroke:#000000; stroke-linecap:round; stroke-linejoin:round; stroke-width:8; stroke-opacity:1; fill:none" points="673.506,278.194 692.404,278.194 "/>
<path clip-path="url(#clip120)" d="M462.831 1223.38 Q456.164 1223.38 452.322 1226.95 Q448.525 1230.51 448.525 1236.76 Q448.525 1243.01 452.322 1246.58 Q456.164 1250.14 462.831 1250.14 Q469.498 1250.14 473.34 1246.58 Q477.183 1242.96 477.183 1236.76 Q477.183 1230.51 473.34 1226.95 Q469.544 1223.38 462.831 1223.38 M453.479 1219.4 Q447.461 1217.92 444.081 1213.8 Q440.748 1209.68 440.748 1203.75 Q440.748 1195.46 446.627 1190.65 Q452.553 1185.83 462.831 1185.83 Q473.155 1185.83 479.035 1190.65 Q484.914 1195.46 484.914 1203.75 Q484.914 1209.68 481.535 1213.8 Q478.201 1217.92 472.229 1219.4 Q478.988 1220.97 482.738 1225.56 Q486.535 1230.14 486.535 1236.76 Q486.535 1246.81 480.377 1252.18 Q474.266 1257.55 462.831 1257.55 Q451.396 1257.55 445.238 1252.18 Q439.127 1246.81 439.127 1236.76 Q439.127 1230.14 442.924 1225.56 Q446.72 1220.97 453.479 1219.4 M450.053 1204.63 Q450.053 1210 453.387 1213.01 Q456.766 1216.02 462.831 1216.02 Q468.849 1216.02 472.229 1213.01 Q475.655 1210 475.655 1204.63 Q475.655 1199.26 472.229 1196.25 Q468.849 1193.24 462.831 1193.24 Q456.766 1193.24 453.387 1196.25 Q450.053 1199.26 450.053 1204.63 Z" fill="#000000" fill-rule="nonzero" fill-opacity="1" /><path clip-path="url(#clip120)" d="M523.155 1193.24 Q515.933 1193.24 512.275 1200.37 Q508.664 1207.45 508.664 1221.71 Q508.664 1235.93 512.275 1243.06 Q515.933 1250.14 523.155 1250.14 Q530.423 1250.14 534.034 1243.06 Q537.692 1235.93 537.692 1221.71 Q537.692 1207.45 534.034 1200.37 Q530.423 1193.24 523.155 1193.24 M523.155 1185.83 Q534.775 1185.83 540.886 1195.05 Q547.043 1204.21 547.043 1221.71 Q547.043 1239.17 540.886 1248.38 Q534.775 1257.55 523.155 1257.55 Q511.534 1257.55 505.377 1248.38 Q499.266 1239.17 499.266 1221.71 Q499.266 1204.21 505.377 1195.05 Q511.534 1185.83 523.155 1185.83 Z" fill="#000000" fill-rule="nonzero" fill-opacity="1" /><path clip-path="url(#clip120)" d="M563.479 1244.45 L573.247 1244.45 L573.247 1256.2 L563.479 1256.2 L563.479 1244.45 Z" fill="#000000" fill-rule="nonzero" fill-opacity="1" /><path clip-path="url(#clip120)" d="M613.617 1193.24 Q606.395 1193.24 602.738 1200.37 Q599.127 1207.45 599.127 1221.71 Q599.127 1235.93 602.738 1243.06 Q606.395 1250.14 613.617 1250.14 Q620.886 1250.14 624.497 1243.06 Q628.154 1235.93 628.154 1221.71 Q628.154 1207.45 624.497 1200.37 Q620.886 1193.24 613.617 1193.24 M613.617 1185.83 Q625.238 1185.83 631.349 1195.05 Q637.506 1204.21 637.506 1221.71 Q637.506 1239.17 631.349 1248.38 Q625.238 1257.55 613.617 1257.55 Q601.997 1257.55 595.84 1248.38 Q589.728 1239.17 589.728 1221.71 Q589.728 1204.21 595.84 1195.05 Q601.997 1185.83 613.617 1185.83 Z" fill="#000000" fill-rule="nonzero" fill-opacity="1" /><path clip-path="url(#clip120)" d="M384.128 1012.47 L399.405 1012.47 L399.405 959.741 L382.785 963.074 L382.785 954.555 L399.313 951.222 L408.665 951.222 L408.665 1012.47 L423.942 1012.47 L423.942 1020.34 L384.128 1020.34 L384.128 1012.47 Z" fill="#000000" fill-rule="nonzero" fill-opacity="1" /><path clip-path="url(#clip120)" d="M462.831 957.379 Q455.609 957.379 451.951 964.509 Q448.34 971.592 448.34 985.852 Q448.34 1000.06 451.951 1007.19 Q455.609 1014.28 462.831 1014.28 Q470.099 1014.28 473.711 1007.19 Q477.368 1000.06 477.368 985.852 Q477.368 971.592 473.711 964.509 Q470.099 957.379 462.831 957.379 M462.831 949.972 Q474.451 949.972 480.562 959.185 Q486.72 968.352 486.72 985.852 Q486.72 1003.31 480.562 1012.52 Q474.451 1021.68 462.831 1021.68 Q451.211 1021.68 445.053 1012.52 Q438.942 1003.31 438.942 985.852 Q438.942 968.352 445.053 959.185 Q451.211 949.972 462.831 949.972 Z" fill="#000000" fill-rule="nonzero" fill-opacity="1" /><path clip-path="url(#clip120)" d="M523.155 957.379 Q515.933 957.379 512.275 964.509 Q508.664 971.592 508.664 985.852 Q508.664 1000.06 512.275 1007.19 Q515.933 1014.28 523.155 1014.28 Q530.423 1014.28 534.034 1007.19 Q537.692 1000.06 537.692 985.852 Q537.692 971.592 534.034 964.509 Q530.423 957.379 523.155 957.379 M523.155 949.972 Q534.775 949.972 540.886 959.185 Q547.043 968.352 547.043 985.852 Q547.043 1003.31 540.886 1012.52 Q534.775 1021.68 523.155 1021.68 Q511.534 1021.68 505.377 1012.52 Q499.266 1003.31 499.266 985.852 Q499.266 968.352 505.377 959.185 Q511.534 949.972 523.155 949.972 Z" fill="#000000" fill-rule="nonzero" fill-opacity="1" /><path clip-path="url(#clip120)" d="M563.479 1008.58 L573.247 1008.58 L573.247 1020.34 L563.479 1020.34 L563.479 1008.58 Z" fill="#000000" fill-rule="nonzero" fill-opacity="1" /><path clip-path="url(#clip120)" d="M613.617 957.379 Q606.395 957.379 602.738 964.509 Q599.127 971.592 599.127 985.852 Q599.127 1000.06 602.738 1007.19 Q606.395 1014.28 613.617 1014.28 Q620.886 1014.28 624.497 1007.19 Q628.154 1000.06 628.154 985.852 Q628.154 971.592 624.497 964.509 Q620.886 957.379 613.617 957.379 M613.617 949.972 Q625.238 949.972 631.349 959.185 Q637.506 968.352 637.506 985.852 Q637.506 1003.31 631.349 1012.52 Q625.238 1021.68 613.617 1021.68 Q601.997 1021.68 595.84 1012.52 Q589.728 1003.31 589.728 985.852 Q589.728 968.352 595.84 959.185 Q601.997 949.972 613.617 949.972 Z" fill="#000000" fill-rule="nonzero" fill-opacity="1" /><path clip-path="url(#clip120)" d="M384.128 776.609 L399.405 776.609 L399.405 723.878 L382.785 727.211 L382.785 718.693 L399.313 715.36 L408.665 715.36 L408.665 776.609 L423.942 776.609 L423.942 784.48 L384.128 784.48 L384.128 776.609 Z" fill="#000000" fill-rule="nonzero" fill-opacity="1" /><path clip-path="url(#clip120)" d="M450.887 776.609 L483.525 776.609 L483.525 784.48 L439.637 784.48 L439.637 776.609 Q444.961 771.1 454.127 761.841 Q463.34 752.535 465.701 749.85 Q470.192 744.804 471.951 741.332 Q473.757 737.813 473.757 734.434 Q473.757 728.924 469.868 725.452 Q466.025 721.98 459.822 721.98 Q455.424 721.98 450.516 723.508 Q445.655 725.035 440.1 728.137 L440.1 718.693 Q445.748 716.424 450.655 715.267 Q455.562 714.11 459.637 714.11 Q470.377 714.11 476.766 719.48 Q483.155 724.85 483.155 733.832 Q483.155 738.091 481.535 741.933 Q479.961 745.73 475.748 750.915 Q474.59 752.258 468.387 758.693 Q462.183 765.082 450.887 776.609 Z" fill="#000000" fill-rule="nonzero" fill-opacity="1" /><path clip-path="url(#clip120)" d="M523.155 721.517 Q515.933 721.517 512.275 728.647 Q508.664 735.73 508.664 749.989 Q508.664 764.202 512.275 771.331 Q515.933 778.415 523.155 778.415 Q530.423 778.415 534.034 771.331 Q537.692 764.202 537.692 749.989 Q537.692 735.73 534.034 728.647 Q530.423 721.517 523.155 721.517 M523.155 714.11 Q534.775 714.11 540.886 723.322 Q547.043 732.489 547.043 749.989 Q547.043 767.443 540.886 776.656 Q534.775 785.822 523.155 785.822 Q511.534 785.822 505.377 776.656 Q499.266 767.443 499.266 749.989 Q499.266 732.489 505.377 723.322 Q511.534 714.11 523.155 714.11 Z" fill="#000000" fill-rule="nonzero" fill-opacity="1" /><path clip-path="url(#clip120)" d="M563.479 772.72 L573.247 772.72 L573.247 784.48 L563.479 784.48 L563.479 772.72 Z" fill="#000000" fill-rule="nonzero" fill-opacity="1" /><path clip-path="url(#clip120)" d="M613.617 721.517 Q606.395 721.517 602.738 728.647 Q599.127 735.73 599.127 749.989 Q599.127 764.202 602.738 771.331 Q606.395 778.415 613.617 778.415 Q620.886 778.415 624.497 771.331 Q628.154 764.202 628.154 749.989 Q628.154 735.73 624.497 728.647 Q620.886 721.517 613.617 721.517 M613.617 714.11 Q625.238 714.11 631.349 723.322 Q637.506 732.489 637.506 749.989 Q637.506 767.443 631.349 776.656 Q625.238 785.822 613.617 785.822 Q601.997 785.822 595.84 776.656 Q589.728 767.443 589.728 749.989 Q589.728 732.489 595.84 723.322 Q601.997 714.11 613.617 714.11 Z" fill="#000000" fill-rule="nonzero" fill-opacity="1" /><path clip-path="url(#clip120)" d="M384.128 540.747 L399.405 540.747 L399.405 488.015 L382.785 491.349 L382.785 482.83 L399.313 479.497 L408.665 479.497 L408.665 540.747 L423.942 540.747 L423.942 548.617 L384.128 548.617 L384.128 540.747 Z" fill="#000000" fill-rule="nonzero" fill-opacity="1" /><path clip-path="url(#clip120)" d="M468.525 487.645 L444.914 524.543 L468.525 524.543 L468.525 487.645 M466.072 479.497 L477.831 479.497 L477.831 524.543 L487.692 524.543 L487.692 532.321 L477.831 532.321 L477.831 548.617 L468.525 548.617 L468.525 532.321 L437.322 532.321 L437.322 523.293 L466.072 479.497 Z" fill="#000000" fill-rule="nonzero" fill-opacity="1" /><path clip-path="url(#clip120)" d="M523.155 485.654 Q515.933 485.654 512.275 492.784 Q508.664 499.867 508.664 514.126 Q508.664 528.339 512.275 535.469 Q515.933 542.552 523.155 542.552 Q530.423 542.552 534.034 535.469 Q537.692 528.339 537.692 514.126 Q537.692 499.867 534.034 492.784 Q530.423 485.654 523.155 485.654 M523.155 478.247 Q534.775 478.247 540.886 487.46 Q547.043 496.627 547.043 514.126 Q547.043 531.58 540.886 540.793 Q534.775 549.96 523.155 549.96 Q511.534 549.96 505.377 540.793 Q499.266 531.58 499.266 514.126 Q499.266 496.627 505.377 487.46 Q511.534 478.247 523.155 478.247 Z" fill="#000000" fill-rule="nonzero" fill-opacity="1" /><path clip-path="url(#clip120)" d="M563.479 536.858 L573.247 536.858 L573.247 548.617 L563.479 548.617 L563.479 536.858 Z" fill="#000000" fill-rule="nonzero" fill-opacity="1" /><path clip-path="url(#clip120)" d="M613.617 485.654 Q606.395 485.654 602.738 492.784 Q599.127 499.867 599.127 514.126 Q599.127 528.339 602.738 535.469 Q606.395 542.552 613.617 542.552 Q620.886 542.552 624.497 535.469 Q628.154 528.339 628.154 514.126 Q628.154 499.867 624.497 492.784 Q620.886 485.654 613.617 485.654 M613.617 478.247 Q625.238 478.247 631.349 487.46 Q637.506 496.627 637.506 514.126 Q637.506 531.58 631.349 540.793 Q625.238 549.96 613.617 549.96 Q601.997 549.96 595.84 540.793 Q589.728 531.58 589.728 514.126 Q589.728 496.627 595.84 487.46 Q601.997 478.247 613.617 478.247 Z" fill="#000000" fill-rule="nonzero" fill-opacity="1" /><path clip-path="url(#clip120)" d="M384.128 304.884 L399.405 304.884 L399.405 252.153 L382.785 255.486 L382.785 246.968 L399.313 243.634 L408.665 243.634 L408.665 304.884 L423.942 304.884 L423.942 312.754 L384.128 312.754 L384.128 304.884 Z" fill="#000000" fill-rule="nonzero" fill-opacity="1" /><path clip-path="url(#clip120)" d="M463.988 274.468 Q457.692 274.468 453.988 278.773 Q450.331 283.079 450.331 290.579 Q450.331 298.032 453.988 302.384 Q457.692 306.69 463.988 306.69 Q470.285 306.69 473.942 302.384 Q477.646 298.032 477.646 290.579 Q477.646 283.079 473.942 278.773 Q470.285 274.468 463.988 274.468 M482.553 245.162 L482.553 253.681 Q479.035 252.014 475.424 251.134 Q471.859 250.255 468.34 250.255 Q459.081 250.255 454.174 256.505 Q449.313 262.755 448.618 275.394 Q451.35 271.366 455.47 269.236 Q459.59 267.06 464.544 267.06 Q474.961 267.06 480.979 273.403 Q487.044 279.699 487.044 290.579 Q487.044 301.227 480.748 307.662 Q474.451 314.097 463.988 314.097 Q451.998 314.097 445.655 304.93 Q439.313 295.718 439.313 278.264 Q439.313 261.875 447.09 252.153 Q454.868 242.384 467.97 242.384 Q471.488 242.384 475.053 243.079 Q478.664 243.773 482.553 245.162 Z" fill="#000000" fill-rule="nonzero" fill-opacity="1" /><path clip-path="url(#clip120)" d="M523.155 249.792 Q515.933 249.792 512.275 256.921 Q508.664 264.005 508.664 278.264 Q508.664 292.477 512.275 299.606 Q515.933 306.69 523.155 306.69 Q530.423 306.69 534.034 299.606 Q537.692 292.477 537.692 278.264 Q537.692 264.005 534.034 256.921 Q530.423 249.792 523.155 249.792 M523.155 242.384 Q534.775 242.384 540.886 251.597 Q547.043 260.764 547.043 278.264 Q547.043 295.718 540.886 304.93 Q534.775 314.097 523.155 314.097 Q511.534 314.097 505.377 304.93 Q499.266 295.718 499.266 278.264 Q499.266 260.764 505.377 251.597 Q511.534 242.384 523.155 242.384 Z" fill="#000000" fill-rule="nonzero" fill-opacity="1" /><path clip-path="url(#clip120)" d="M563.479 300.995 L573.247 300.995 L573.247 312.754 L563.479 312.754 L563.479 300.995 Z" fill="#000000" fill-rule="nonzero" fill-opacity="1" /><path clip-path="url(#clip120)" d="M613.617 249.792 Q606.395 249.792 602.738 256.921 Q599.127 264.005 599.127 278.264 Q599.127 292.477 602.738 299.606 Q606.395 306.69 613.617 306.69 Q620.886 306.69 624.497 299.606 Q628.154 292.477 628.154 278.264 Q628.154 264.005 624.497 256.921 Q620.886 249.792 613.617 249.792 M613.617 242.384 Q625.238 242.384 631.349 251.597 Q637.506 260.764 637.506 278.264 Q637.506 295.718 631.349 304.93 Q625.238 314.097 613.617 314.097 Q601.997 314.097 595.84 304.93 Q589.728 295.718 589.728 278.264 Q589.728 260.764 595.84 251.597 Q601.997 242.384 613.617 242.384 Z" fill="#000000" fill-rule="nonzero" fill-opacity="1" /><path clip-path="url(#clip120)" d="M307.579 931.845 L345.391 931.845 L345.391 943.622 L246.977 943.622 L246.977 931.845 L257.799 931.845 Q251.433 928.153 248.378 922.551 Q245.258 916.886 245.258 909.056 Q245.258 896.07 255.571 887.986 Q265.883 879.837 282.689 879.837 Q299.494 879.837 309.807 887.986 Q320.119 896.07 320.119 909.056 Q320.119 916.886 317.064 922.551 Q313.944 928.153 307.579 931.845 M282.689 891.996 Q269.766 891.996 262.446 897.343 Q255.062 902.627 255.062 911.921 Q255.062 921.215 262.446 926.562 Q269.766 931.845 282.689 931.845 Q295.611 931.845 302.995 926.562 Q310.316 921.215 310.316 911.921 Q310.316 902.627 302.995 897.343 Q295.611 891.996 282.689 891.996 Z" fill="#000000" fill-rule="nonzero" fill-opacity="1" /><path clip-path="url(#clip120)" d="M282.434 828.021 Q282.434 842.216 285.681 847.691 Q288.927 853.165 296.757 853.165 Q302.995 853.165 306.688 849.091 Q310.316 844.953 310.316 837.887 Q310.316 828.148 303.441 822.291 Q296.502 816.371 285.044 816.371 L282.434 816.371 L282.434 828.021 M277.596 804.658 L318.273 804.658 L318.273 816.371 L307.451 816.371 Q313.944 820.382 317.064 826.366 Q320.119 832.349 320.119 841.007 Q320.119 851.956 314.008 858.449 Q307.833 864.878 297.521 864.878 Q285.49 864.878 279.379 856.857 Q273.268 848.773 273.268 832.795 L273.268 816.371 L272.122 816.371 Q264.037 816.371 259.645 821.719 Q255.189 827.002 255.189 836.614 Q255.189 842.725 256.653 848.518 Q258.117 854.311 261.045 859.658 L250.224 859.658 Q247.741 853.229 246.532 847.181 Q245.258 841.134 245.258 835.405 Q245.258 819.936 253.279 812.297 Q261.3 804.658 277.596 804.658 Z" fill="#000000" fill-rule="nonzero" fill-opacity="1" /><path clip-path="url(#clip120)" d="M257.926 739.219 Q256.78 741.192 256.271 743.548 Q255.698 745.839 255.698 748.64 Q255.698 758.571 262.191 763.918 Q268.621 769.201 280.715 769.201 L318.273 769.201 L318.273 780.978 L246.977 780.978 L246.977 769.201 L258.054 769.201 Q251.561 765.509 248.441 759.589 Q245.258 753.669 245.258 745.203 Q245.258 743.993 245.449 742.529 Q245.577 741.065 245.895 739.283 L257.926 739.219 Z" fill="#000000" fill-rule="nonzero" fill-opacity="1" /><path clip-path="url(#clip120)" d="M279.697 668.814 L285.426 668.814 L285.426 722.668 Q297.521 721.904 303.887 715.411 Q310.189 708.855 310.189 697.205 Q310.189 690.458 308.534 684.156 Q306.878 677.79 303.568 671.552 L314.645 671.552 Q317.318 677.854 318.719 684.474 Q320.119 691.094 320.119 697.906 Q320.119 714.966 310.189 724.96 Q300.258 734.89 283.325 734.89 Q265.82 734.89 255.571 725.469 Q245.258 715.984 245.258 699.943 Q245.258 685.556 254.552 677.217 Q263.783 668.814 279.697 668.814 M276.259 680.527 Q266.647 680.654 260.918 685.938 Q255.189 691.158 255.189 699.815 Q255.189 709.618 260.727 715.539 Q266.265 721.395 276.323 722.286 L276.259 680.527 Z" fill="#000000" fill-rule="nonzero" fill-opacity="1" /><path clip-path="url(#clip120)" d="M275.241 590.325 L318.273 590.325 L318.273 602.038 L275.623 602.038 Q265.501 602.038 260.472 605.985 Q255.444 609.931 255.444 617.825 Q255.444 627.31 261.491 632.784 Q267.538 638.259 277.978 638.259 L318.273 638.259 L318.273 650.035 L246.977 650.035 L246.977 638.259 L258.054 638.259 Q251.624 634.058 248.441 628.392 Q245.258 622.663 245.258 615.215 Q245.258 602.929 252.897 596.627 Q260.472 590.325 275.241 590.325 Z" fill="#000000" fill-rule="nonzero" fill-opacity="1" /><path clip-path="url(#clip120)" d="M302.104 565.308 L302.104 551.876 L318.273 551.876 L318.273 565.308 L302.104 565.308 Z" fill="#000000" fill-rule="nonzero" fill-opacity="1" /><path clip-path="url(#clip120)" d="M223.233 485.673 L223.233 424.562 L228.708 424.562 L318.273 459.064 L318.273 472.496 L234.055 440.031 L234.055 485.673 L223.233 485.673 Z" fill="#000000" fill-rule="nonzero" fill-opacity="1" /><polyline clip-path="url(#clip122)" style="stroke:#008000; stroke-linecap:round; stroke-linejoin:round; stroke-width:8; stroke-opacity:1; fill:none" points="719.695,1113.95 859.661,851.027 999.627,756.515 1139.59,614.5 1279.56,322.277 1419.53,474.297 1559.49,459.271 1699.46,391.012 1839.42,338.539 1979.39,348.258 2119.36,311.556 2259.32,127.862 "/>
<circle clip-path="url(#clip122)" cx="719.695" cy="1113.95" r="14.4" fill="#008000" fill-rule="evenodd" fill-opacity="1" stroke="#000000" stroke-opacity="1" stroke-width="6.4"/>
<circle clip-path="url(#clip122)" cx="859.661" cy="851.027" r="14.4" fill="#008000" fill-rule="evenodd" fill-opacity="1" stroke="#000000" stroke-opacity="1" stroke-width="6.4"/>
<circle clip-path="url(#clip122)" cx="999.627" cy="756.515" r="14.4" fill="#008000" fill-rule="evenodd" fill-opacity="1" stroke="#000000" stroke-opacity="1" stroke-width="6.4"/>
<circle clip-path="url(#clip122)" cx="1139.59" cy="614.5" r="14.4" fill="#008000" fill-rule="evenodd" fill-opacity="1" stroke="#000000" stroke-opacity="1" stroke-width="6.4"/>
<circle clip-path="url(#clip122)" cx="1279.56" cy="322.277" r="14.4" fill="#008000" fill-rule="evenodd" fill-opacity="1" stroke="#000000" stroke-opacity="1" stroke-width="6.4"/>
<circle clip-path="url(#clip122)" cx="1419.53" cy="474.297" r="14.4" fill="#008000" fill-rule="evenodd" fill-opacity="1" stroke="#000000" stroke-opacity="1" stroke-width="6.4"/>
<circle clip-path="url(#clip122)" cx="1559.49" cy="459.271" r="14.4" fill="#008000" fill-rule="evenodd" fill-opacity="1" stroke="#000000" stroke-opacity="1" stroke-width="6.4"/>
<circle clip-path="url(#clip122)" cx="1699.46" cy="391.012" r="14.4" fill="#008000" fill-rule="evenodd" fill-opacity="1" stroke="#000000" stroke-opacity="1" stroke-width="6.4"/>
<circle clip-path="url(#clip122)" cx="1839.42" cy="338.539" r="14.4" fill="#008000" fill-rule="evenodd" fill-opacity="1" stroke="#000000" stroke-opacity="1" stroke-width="6.4"/>
<circle clip-path="url(#clip122)" cx="1979.39" cy="348.258" r="14.4" fill="#008000" fill-rule="evenodd" fill-opacity="1" stroke="#000000" stroke-opacity="1" stroke-width="6.4"/>
<circle clip-path="url(#clip122)" cx="2119.36" cy="311.556" r="14.4" fill="#008000" fill-rule="evenodd" fill-opacity="1" stroke="#000000" stroke-opacity="1" stroke-width="6.4"/>
<circle clip-path="url(#clip122)" cx="2259.32" cy="127.862" r="14.4" fill="#008000" fill-rule="evenodd" fill-opacity="1" stroke="#000000" stroke-opacity="1" stroke-width="6.4"/>
<polyline clip-path="url(#clip122)" style="stroke:#00008b; stroke-linecap:round; stroke-linejoin:round; stroke-width:8; stroke-opacity:1; fill:none" points="719.695,1115.45 859.661,1025.08 999.627,948.585 1139.59,867.728 1279.56,802.856 1419.53,733.196 1559.49,681.553 1699.46,637.042 1839.42,588.099 1979.39,561.051 2119.36,520.877 2259.32,500.684 "/>
<path clip-path="url(#clip122)" d="M719.695 1240.32 L859.661 1145.72 L999.627 1065.19 L1139.59 984.229 L1279.56 918.733 L1419.53 846.732 L1559.49 805.361 L1699.46 755.38 L1839.42 720.497 L1979.39 682.752 L2119.36 641.699 L2259.32 621.956 L2259.32 374.819 L2119.36 392.097 L1979.39 435.362 L1839.42 472.197 L1699.46 507.532 L1559.49 558.877 L1419.53 616.047 L1279.56 685.377 L1139.59 748.649 L999.627 827.296 L859.661 908.05 L719.695 996.318  Z" fill="#0000ff" fill-rule="evenodd" fill-opacity="0.1"/>
<polyline clip-path="url(#clip122)" style="stroke:#0000ff; stroke-linecap:round; stroke-linejoin:round; stroke-width:0; stroke-opacity:0.1; fill:none" points="719.695,1240.32 859.661,1145.72 999.627,1065.19 1139.59,984.229 1279.56,918.733 1419.53,846.732 1559.49,805.361 1699.46,755.38 1839.42,720.497 1979.39,682.752 2119.36,641.699 2259.32,621.956 "/>
</svg>
