<?xml version="1.0" encoding="utf-8"?>
<svg xmlns="http://www.w3.org/2000/svg" xmlns:xlink="http://www.w3.org/1999/xlink" width="600" height="400" viewBox="0 0 2400 1600">
<defs>
  <clipPath id="clip730">
    <rect x="0" y="0" width="2400" height="1600"/>
  </clipPath>
</defs>
<path clip-path="url(#clip730)" d="M0 1600 L2400 1600 L2400 0 L0 0  Z" fill="#ffffff" fill-rule="evenodd" fill-opacity="1"/>
<defs>
  <clipPath id="clip731">
    <rect x="480" y="0" width="1681" height="1600"/>
  </clipPath>
</defs>
<path clip-path="url(#clip730)" d="M680.45 1273.7 L2305.51 1273.7 L2305.51 94.4882 L680.45 94.4882  Z" fill="#ffffff" fill-rule="evenodd" fill-opacity="1"/>
<defs>
  <clipPath id="clip732">
    <rect x="680" y="94" width="1626" height="1180"/>
  </clipPath>
</defs>
<polyline clip-path="url(#clip732)" style="stroke:#000000; stroke-linecap:round; stroke-linejoin:round; stroke-width:4; stroke-opacity:0.1; fill:none" points="726.443,1273.7 726.443,94.4882 "/>
<polyline clip-path="url(#clip732)" style="stroke:#000000; stroke-linecap:round; stroke-linejoin:round; stroke-width:4; stroke-opacity:0.1; fill:none" points="1074.87,1273.7 1074.87,94.4882 "/>
<polyline clip-path="url(#clip732)" style="stroke:#000000; stroke-linecap:round; stroke-linejoin:round; stroke-width:4; stroke-opacity:0.1; fill:none" points="1423.3,1273.7 1423.3,94.4882 "/>
<polyline clip-path="url(#clip732)" style="stroke:#000000; stroke-linecap:round; stroke-linejoin:round; stroke-width:4; stroke-opacity:0.1; fill:none" points="1771.72,1273.7 1771.72,94.4882 "/>
<polyline clip-path="url(#clip732)" style="stroke:#000000; stroke-linecap:round; stroke-linejoin:round; stroke-width:4; stroke-opacity:0.1; fill:none" points="2120.15,1273.7 2120.15,94.4882 "/>
<polyline clip-path="url(#clip730)" style="stroke:#000000; stroke-linecap:round; stroke-linejoin:round; stroke-width:8; stroke-opacity:1; fill:none" points="680.45,1273.7 2305.51,1273.7 "/>
<polyline clip-path="url(#clip730)" style="stroke:#000000; stroke-linecap:round; stroke-linejoin:round; stroke-width:8; stroke-opacity:1; fill:none" points="726.443,1273.7 726.443,1254.8 "/>
<polyline clip-path="url(#clip730)" style="stroke:#000000; stroke-linecap:round; stroke-linejoin:round; stroke-width:8; stroke-opacity:1; fill:none" points="1074.87,1273.7 1074.87,1254.8 "/>
<polyline clip-path="url(#clip730)" style="stroke:#000000; stroke-linecap:round; stroke-linejoin:round; stroke-width:8; stroke-opacity:1; fill:none" points="1423.3,1273.7 1423.3,1254.8 "/>
<polyline clip-path="url(#clip730)" style="stroke:#000000; stroke-linecap:round; stroke-linejoin:round; stroke-width:8; stroke-opacity:1; fill:none" points="1771.72,1273.7 1771.72,1254.8 "/>
<polyline clip-path="url(#clip730)" style="stroke:#000000; stroke-linecap:round; stroke-linejoin:round; stroke-width:8; stroke-opacity:1; fill:none" points="2120.15,1273.7 2120.15,1254.8 "/>
<path clip-path="url(#clip730)" d="M651.05 1316.33 Q643.827 1316.33 640.17 1323.46 Q636.559 1330.55 636.559 1344.81 Q636.559 1359.02 640.17 1366.15 Q643.827 1373.23 651.05 1373.23 Q658.318 1373.23 661.929 1366.15 Q665.587 1359.02 665.587 1344.81 Q665.587 1330.55 661.929 1323.46 Q658.318 1316.33 651.05 1316.33 M651.05 1308.93 Q662.67 1308.93 668.781 1318.14 Q674.938 1327.31 674.938 1344.81 Q674.938 1362.26 668.781 1371.47 Q662.67 1380.64 651.05 1380.64 Q639.429 1380.64 633.272 1371.47 Q627.161 1362.26 627.161 1344.81 Q627.161 1327.31 633.272 1318.14 Q639.429 1308.93 651.05 1308.93 Z" fill="#000000" fill-rule="nonzero" fill-opacity="1" /><path clip-path="url(#clip730)" d="M691.373 1367.54 L701.142 1367.54 L701.142 1379.3 L691.373 1379.3 L691.373 1367.54 Z" fill="#000000" fill-rule="nonzero" fill-opacity="1" /><path clip-path="url(#clip730)" d="M741.512 1316.33 Q734.29 1316.33 730.632 1323.46 Q727.021 1330.55 727.021 1344.81 Q727.021 1359.02 730.632 1366.15 Q734.29 1373.23 741.512 1373.23 Q748.781 1373.23 752.392 1366.15 Q756.049 1359.02 756.049 1344.81 Q756.049 1330.55 752.392 1323.46 Q748.781 1316.33 741.512 1316.33 M741.512 1308.93 Q753.132 1308.93 759.243 1318.14 Q765.401 1327.31 765.401 1344.81 Q765.401 1362.26 759.243 1371.47 Q753.132 1380.64 741.512 1380.64 Q729.892 1380.64 723.734 1371.47 Q717.623 1362.26 717.623 1344.81 Q717.623 1327.31 723.734 1318.14 Q729.892 1308.93 741.512 1308.93 Z" fill="#000000" fill-rule="nonzero" fill-opacity="1" /><path clip-path="url(#clip730)" d="M801.836 1316.33 Q794.614 1316.33 790.956 1323.46 Q787.345 1330.55 787.345 1344.81 Q787.345 1359.02 790.956 1366.15 Q794.614 1373.23 801.836 1373.23 Q809.104 1373.23 812.715 1366.15 Q816.373 1359.02 816.373 1344.81 Q816.373 1330.55 812.715 1323.46 Q809.104 1316.33 801.836 1316.33 M801.836 1308.93 Q813.456 1308.93 819.567 1318.14 Q825.725 1327.31 825.725 1344.81 Q825.725 1362.26 819.567 1371.47 Q813.456 1380.64 801.836 1380.64 Q790.215 1380.64 784.058 1371.47 Q777.947 1362.26 777.947 1344.81 Q777.947 1327.31 784.058 1318.14 Q790.215 1308.93 801.836 1308.93 Z" fill="#000000" fill-rule="nonzero" fill-opacity="1" /><path clip-path="url(#clip730)" d="M1000.47 1316.33 Q993.249 1316.33 989.592 1323.46 Q985.981 1330.55 985.981 1344.81 Q985.981 1359.02 989.592 1366.15 Q993.249 1373.23 1000.47 1373.23 Q1007.74 1373.23 1011.35 1366.15 Q1015.01 1359.02 1015.01 1344.81 Q1015.01 1330.55 1011.35 1323.46 Q1007.74 1316.33 1000.47 1316.33 M1000.47 1308.93 Q1012.09 1308.93 1018.2 1318.14 Q1024.36 1327.31 1024.36 1344.81 Q1024.36 1362.26 1018.2 1371.47 Q1012.09 1380.64 1000.47 1380.64 Q988.851 1380.64 982.694 1371.47 Q976.583 1362.26 976.583 1344.81 Q976.583 1327.31 982.694 1318.14 Q988.851 1308.93 1000.47 1308.93 Z" fill="#000000" fill-rule="nonzero" fill-opacity="1" /><path clip-path="url(#clip730)" d="M1040.8 1367.54 L1050.56 1367.54 L1050.56 1379.3 L1040.8 1379.3 L1040.8 1367.54 Z" fill="#000000" fill-rule="nonzero" fill-opacity="1" /><path clip-path="url(#clip730)" d="M1078.99 1371.43 L1111.63 1371.43 L1111.63 1379.3 L1067.74 1379.3 L1067.74 1371.43 Q1073.06 1365.92 1082.23 1356.66 Q1091.44 1347.35 1093.8 1344.67 Q1098.3 1339.62 1100.05 1336.15 Q1101.86 1332.63 1101.86 1329.25 Q1101.86 1323.74 1097.97 1320.27 Q1094.13 1316.8 1087.92 1316.8 Q1083.53 1316.8 1078.62 1318.32 Q1073.76 1319.85 1068.2 1322.95 L1068.2 1313.51 Q1073.85 1311.24 1078.76 1310.08 Q1083.67 1308.93 1087.74 1308.93 Q1098.48 1308.93 1104.87 1314.3 Q1111.26 1319.67 1111.26 1328.65 Q1111.26 1332.91 1109.64 1336.75 Q1108.06 1340.55 1103.85 1345.73 Q1102.69 1347.07 1096.49 1353.51 Q1090.29 1359.9 1078.99 1371.43 Z" fill="#000000" fill-rule="nonzero" fill-opacity="1" /><path clip-path="url(#clip730)" d="M1131.35 1310.18 L1168.06 1310.18 L1168.06 1318.05 L1139.92 1318.05 L1139.92 1334.99 Q1141.95 1334.3 1143.99 1333.97 Q1146.03 1333.6 1148.06 1333.6 Q1159.64 1333.6 1166.4 1339.94 Q1173.16 1346.29 1173.16 1357.12 Q1173.16 1368.28 1166.21 1374.48 Q1159.27 1380.64 1146.63 1380.64 Q1142.28 1380.64 1137.74 1379.9 Q1133.25 1379.16 1128.43 1377.68 L1128.43 1368.28 Q1132.6 1370.55 1137.04 1371.66 Q1141.49 1372.77 1146.44 1372.77 Q1154.45 1372.77 1159.13 1368.56 Q1163.8 1364.34 1163.8 1357.12 Q1163.8 1349.9 1159.13 1345.68 Q1154.45 1341.47 1146.44 1341.47 Q1142.69 1341.47 1138.94 1342.31 Q1135.24 1343.14 1131.35 1344.9 L1131.35 1310.18 Z" fill="#000000" fill-rule="nonzero" fill-opacity="1" /><path clip-path="url(#clip730)" d="M1347.9 1316.33 Q1340.68 1316.33 1337.02 1323.46 Q1333.41 1330.55 1333.41 1344.81 Q1333.41 1359.02 1337.02 1366.15 Q1340.68 1373.23 1347.9 1373.23 Q1355.17 1373.23 1358.78 1366.15 Q1362.44 1359.02 1362.44 1344.81 Q1362.44 1330.55 1358.78 1323.46 Q1355.17 1316.33 1347.9 1316.33 M1347.9 1308.93 Q1359.52 1308.93 1365.63 1318.14 Q1371.79 1327.31 1371.79 1344.81 Q1371.79 1362.26 1365.63 1371.47 Q1359.52 1380.64 1347.9 1380.64 Q1336.28 1380.64 1330.12 1371.47 Q1324.01 1362.26 1324.01 1344.81 Q1324.01 1327.31 1330.12 1318.14 Q1336.28 1308.93 1347.9 1308.93 Z" fill="#000000" fill-rule="nonzero" fill-opacity="1" /><path clip-path="url(#clip730)" d="M1388.23 1367.54 L1397.99 1367.54 L1397.99 1379.3 L1388.23 1379.3 L1388.23 1367.54 Z" fill="#000000" fill-rule="nonzero" fill-opacity="1" /><path clip-path="url(#clip730)" d="M1418.46 1310.18 L1455.17 1310.18 L1455.17 1318.05 L1427.02 1318.05 L1427.02 1334.99 Q1429.06 1334.3 1431.1 1333.97 Q1433.13 1333.6 1435.17 1333.6 Q1446.74 1333.6 1453.5 1339.94 Q1460.26 1346.29 1460.26 1357.12 Q1460.26 1368.28 1453.32 1374.48 Q1446.37 1380.64 1433.74 1380.64 Q1429.38 1380.64 1424.85 1379.9 Q1420.36 1379.16 1415.54 1377.68 L1415.54 1368.28 Q1419.71 1370.55 1424.15 1371.66 Q1428.6 1372.77 1433.55 1372.77 Q1441.56 1372.77 1446.24 1368.56 Q1450.91 1364.34 1450.91 1357.12 Q1450.91 1349.9 1446.24 1345.68 Q1441.56 1341.47 1433.55 1341.47 Q1429.8 1341.47 1426.05 1342.31 Q1422.35 1343.14 1418.46 1344.9 L1418.46 1310.18 Z" fill="#000000" fill-rule="nonzero" fill-opacity="1" /><path clip-path="url(#clip730)" d="M1498.69 1316.33 Q1491.47 1316.33 1487.81 1323.46 Q1484.2 1330.55 1484.2 1344.81 Q1484.2 1359.02 1487.81 1366.15 Q1491.47 1373.23 1498.69 1373.23 Q1505.96 1373.23 1509.57 1366.15 Q1513.23 1359.02 1513.23 1344.81 Q1513.23 1330.55 1509.57 1323.46 Q1505.96 1316.33 1498.69 1316.33 M1498.69 1308.93 Q1510.31 1308.93 1516.42 1318.14 Q1522.58 1327.31 1522.58 1344.81 Q1522.58 1362.26 1516.42 1371.47 Q1510.31 1380.64 1498.69 1380.64 Q1487.07 1380.64 1480.91 1371.47 Q1474.8 1362.26 1474.8 1344.81 Q1474.8 1327.31 1480.91 1318.14 Q1487.07 1308.93 1498.69 1308.93 Z" fill="#000000" fill-rule="nonzero" fill-opacity="1" /><path clip-path="url(#clip730)" d="M1697.32 1316.33 Q1690.1 1316.33 1686.45 1323.46 Q1682.83 1330.55 1682.83 1344.81 Q1682.83 1359.02 1686.45 1366.15 Q1690.1 1373.23 1697.32 1373.23 Q1704.59 1373.23 1708.2 1366.15 Q1711.86 1359.02 1711.86 1344.81 Q1711.86 1330.55 1708.2 1323.46 Q1704.59 1316.33 1697.32 1316.33 M1697.32 1308.93 Q1708.94 1308.93 1715.06 1318.14 Q1721.21 1327.31 1721.21 1344.81 Q1721.21 1362.26 1715.06 1371.47 Q1708.94 1380.64 1697.32 1380.64 Q1685.7 1380.64 1679.55 1371.47 Q1673.44 1362.26 1673.44 1344.81 Q1673.44 1327.31 1679.55 1318.14 Q1685.7 1308.93 1697.32 1308.93 Z" fill="#000000" fill-rule="nonzero" fill-opacity="1" /><path clip-path="url(#clip730)" d="M1737.65 1367.54 L1747.42 1367.54 L1747.42 1379.3 L1737.65 1379.3 L1737.65 1367.54 Z" fill="#000000" fill-rule="nonzero" fill-opacity="1" /><path clip-path="url(#clip730)" d="M1765.43 1310.18 L1809.87 1310.18 L1809.87 1314.16 L1784.78 1379.3 L1775.01 1379.3 L1798.62 1318.05 L1765.43 1318.05 L1765.43 1310.18 Z" fill="#000000" fill-rule="nonzero" fill-opacity="1" /><path clip-path="url(#clip730)" d="M1828.2 1310.18 L1864.92 1310.18 L1864.92 1318.05 L1836.77 1318.05 L1836.77 1334.99 Q1838.81 1334.3 1840.84 1333.97 Q1842.88 1333.6 1844.92 1333.6 Q1856.49 1333.6 1863.25 1339.94 Q1870.01 1346.29 1870.01 1357.12 Q1870.01 1368.28 1863.06 1374.48 Q1856.12 1380.64 1843.48 1380.64 Q1839.13 1380.64 1834.59 1379.9 Q1830.1 1379.16 1825.29 1377.68 L1825.29 1368.28 Q1829.45 1370.55 1833.9 1371.66 Q1838.34 1372.77 1843.3 1372.77 Q1851.31 1372.77 1855.98 1368.56 Q1860.66 1364.34 1860.66 1357.12 Q1860.66 1349.9 1855.98 1345.68 Q1851.31 1341.47 1843.3 1341.47 Q1839.55 1341.47 1835.8 1342.31 Q1832.09 1343.14 1828.2 1344.9 L1828.2 1310.18 Z" fill="#000000" fill-rule="nonzero" fill-opacity="1" /><path clip-path="url(#clip730)" d="M2024.29 1371.43 L2039.57 1371.43 L2039.57 1318.69 L2022.95 1322.03 L2022.95 1313.51 L2039.48 1310.18 L2048.83 1310.18 L2048.83 1371.43 L2064.11 1371.43 L2064.11 1379.3 L2024.29 1379.3 L2024.29 1371.43 Z" fill="#000000" fill-rule="nonzero" fill-opacity="1" /><path clip-path="url(#clip730)" d="M2083 1367.54 L2092.76 1367.54 L2092.76 1379.3 L2083 1379.3 L2083 1367.54 Z" fill="#000000" fill-rule="nonzero" fill-opacity="1" /><path clip-path="url(#clip730)" d="M2133.13 1316.33 Q2125.91 1316.33 2122.26 1323.46 Q2118.64 1330.55 2118.64 1344.81 Q2118.64 1359.02 2122.26 1366.15 Q2125.91 1373.23 2133.13 1373.23 Q2140.4 1373.23 2144.01 1366.15 Q2147.67 1359.02 2147.67 1344.81 Q2147.67 1330.55 2144.01 1323.46 Q2140.4 1316.33 2133.13 1316.33 M2133.13 1308.93 Q2144.76 1308.93 2150.87 1318.14 Q2157.02 1327.31 2157.02 1344.81 Q2157.02 1362.26 2150.87 1371.47 Q2144.76 1380.64 2133.13 1380.64 Q2121.51 1380.64 2115.36 1371.47 Q2109.25 1362.26 2109.25 1344.81 Q2109.25 1327.31 2115.36 1318.14 Q2121.51 1308.93 2133.13 1308.93 Z" fill="#000000" fill-rule="nonzero" fill-opacity="1" /><path clip-path="url(#clip730)" d="M2193.46 1316.33 Q2186.24 1316.33 2182.58 1323.46 Q2178.97 1330.55 2178.97 1344.81 Q2178.97 1359.02 2182.58 1366.15 Q2186.24 1373.23 2193.46 1373.23 Q2200.73 1373.23 2204.34 1366.15 Q2208 1359.02 2208 1344.81 Q2208 1330.55 2204.34 1323.46 Q2200.73 1316.33 2193.46 1316.33 M2193.46 1308.93 Q2205.08 1308.93 2211.19 1318.14 Q2217.35 1327.31 2217.35 1344.81 Q2217.35 1362.26 2211.19 1371.47 Q2205.08 1380.64 2193.46 1380.64 Q2181.84 1380.64 2175.68 1371.47 Q2169.57 1362.26 2169.57 1344.81 Q2169.57 1327.31 2175.68 1318.14 Q2181.84 1308.93 2193.46 1308.93 Z" fill="#000000" fill-rule="nonzero" fill-opacity="1" /><path clip-path="url(#clip730)" d="M1378.53 1484.39 L1378.53 1527.42 L1366.81 1527.42 L1366.81 1484.77 Q1366.81 1474.65 1362.87 1469.62 Q1358.92 1464.59 1351.03 1464.59 Q1341.54 1464.59 1336.07 1470.64 Q1330.59 1476.69 1330.59 1487.13 L1330.59 1527.42 L1318.82 1527.42 L1318.82 1428.37 L1330.59 1428.37 L1330.59 1467.2 Q1334.79 1460.77 1340.46 1457.59 Q1346.19 1454.41 1353.64 1454.41 Q1365.92 1454.41 1372.22 1462.05 Q1378.53 1469.62 1378.53 1484.39 Z" fill="#000000" fill-rule="nonzero" fill-opacity="1" /><path clip-path="url(#clip730)" d="M1429.51 1464.34 Q1420.09 1464.34 1414.62 1471.72 Q1409.14 1479.04 1409.14 1491.84 Q1409.14 1504.63 1414.56 1512.02 Q1420.03 1519.34 1429.51 1519.34 Q1438.87 1519.34 1444.35 1511.96 Q1449.82 1504.57 1449.82 1491.84 Q1449.82 1479.17 1444.35 1471.79 Q1438.87 1464.34 1429.51 1464.34 M1429.51 1454.41 Q1444.79 1454.41 1453.51 1464.34 Q1462.23 1474.27 1462.23 1491.84 Q1462.23 1509.35 1453.51 1519.34 Q1444.79 1529.27 1429.51 1529.27 Q1414.17 1529.27 1405.45 1519.34 Q1396.8 1509.35 1396.8 1491.84 Q1396.8 1474.27 1405.45 1464.34 Q1414.17 1454.41 1429.51 1454.41 Z" fill="#000000" fill-rule="nonzero" fill-opacity="1" /><path clip-path="url(#clip730)" d="M1480.44 1499.29 L1480.44 1456.13 L1492.15 1456.13 L1492.15 1498.84 Q1492.15 1508.96 1496.1 1514.06 Q1500.05 1519.08 1507.94 1519.08 Q1517.43 1519.08 1522.9 1513.04 Q1528.44 1506.99 1528.44 1496.55 L1528.44 1456.13 L1540.15 1456.13 L1540.15 1527.42 L1528.44 1527.42 L1528.44 1516.47 Q1524.17 1522.97 1518.51 1526.15 Q1512.91 1529.27 1505.46 1529.27 Q1493.17 1529.27 1486.81 1521.63 Q1480.44 1513.99 1480.44 1499.29 M1509.91 1454.41 L1509.91 1454.41 Z" fill="#000000" fill-rule="nonzero" fill-opacity="1" /><path clip-path="url(#clip730)" d="M1605.59 1467.08 Q1603.62 1465.93 1601.26 1465.42 Q1598.97 1464.85 1596.17 1464.85 Q1586.24 1464.85 1580.89 1471.34 Q1575.61 1477.77 1575.61 1489.87 L1575.61 1527.42 L1563.83 1527.42 L1563.83 1456.13 L1575.61 1456.13 L1575.61 1467.2 Q1579.3 1460.71 1585.22 1457.59 Q1591.14 1454.41 1599.61 1454.41 Q1600.82 1454.41 1602.28 1454.6 Q1603.74 1454.73 1605.53 1455.05 L1605.59 1467.08 Z" fill="#000000" fill-rule="nonzero" fill-opacity="1" /><path clip-path="url(#clip730)" d="M1663.33 1458.23 L1663.33 1469.3 Q1658.36 1466.76 1653.01 1465.49 Q1647.67 1464.21 1641.94 1464.21 Q1633.22 1464.21 1628.83 1466.89 Q1624.5 1469.56 1624.5 1474.91 Q1624.5 1478.98 1627.62 1481.34 Q1630.73 1483.63 1640.16 1485.73 L1644.17 1486.62 Q1656.64 1489.29 1661.86 1494.19 Q1667.15 1499.03 1667.15 1507.75 Q1667.15 1517.68 1659.25 1523.48 Q1651.42 1529.27 1637.67 1529.27 Q1631.94 1529.27 1625.71 1528.12 Q1619.53 1527.04 1612.66 1524.81 L1612.66 1512.72 Q1619.15 1516.09 1625.45 1517.81 Q1631.75 1519.47 1637.93 1519.47 Q1646.2 1519.47 1650.66 1516.67 Q1655.12 1513.8 1655.12 1508.64 Q1655.12 1503.87 1651.87 1501.32 Q1648.69 1498.78 1637.8 1496.42 L1633.73 1495.47 Q1622.84 1493.18 1618 1488.47 Q1613.17 1483.69 1613.17 1475.42 Q1613.17 1465.36 1620.3 1459.88 Q1627.42 1454.41 1640.54 1454.41 Q1647.03 1454.41 1652.76 1455.36 Q1658.49 1456.32 1663.33 1458.23 Z" fill="#000000" fill-rule="nonzero" fill-opacity="1" /><polyline clip-path="url(#clip732)" style="stroke:#000000; stroke-linecap:round; stroke-linejoin:round; stroke-width:4; stroke-opacity:0.1; fill:none" points="680.45,1183.38 2305.51,1183.38 "/>
<polyline clip-path="url(#clip732)" style="stroke:#000000; stroke-linecap:round; stroke-linejoin:round; stroke-width:4; stroke-opacity:0.1; fill:none" points="680.45,1017.11 2305.51,1017.11 "/>
<polyline clip-path="url(#clip732)" style="stroke:#000000; stroke-linecap:round; stroke-linejoin:round; stroke-width:4; stroke-opacity:0.1; fill:none" points="680.45,850.839 2305.51,850.839 "/>
<polyline clip-path="url(#clip732)" style="stroke:#000000; stroke-linecap:round; stroke-linejoin:round; stroke-width:4; stroke-opacity:0.1; fill:none" points="680.45,684.567 2305.51,684.567 "/>
<polyline clip-path="url(#clip732)" style="stroke:#000000; stroke-linecap:round; stroke-linejoin:round; stroke-width:4; stroke-opacity:0.1; fill:none" points="680.45,518.295 2305.51,518.295 "/>
<polyline clip-path="url(#clip732)" style="stroke:#000000; stroke-linecap:round; stroke-linejoin:round; stroke-width:4; stroke-opacity:0.1; fill:none" points="680.45,352.023 2305.51,352.023 "/>
<polyline clip-path="url(#clip732)" style="stroke:#000000; stroke-linecap:round; stroke-linejoin:round; stroke-width:4; stroke-opacity:0.1; fill:none" points="680.45,185.752 2305.51,185.752 "/>
<polyline clip-path="url(#clip730)" style="stroke:#000000; stroke-linecap:round; stroke-linejoin:round; stroke-width:8; stroke-opacity:1; fill:none" points="680.45,1273.7 680.45,94.4882 "/>
<polyline clip-path="url(#clip730)" style="stroke:#000000; stroke-linecap:round; stroke-linejoin:round; stroke-width:8; stroke-opacity:1; fill:none" points="680.45,1183.38 699.348,1183.38 "/>
<polyline clip-path="url(#clip730)" style="stroke:#000000; stroke-linecap:round; stroke-linejoin:round; stroke-width:8; stroke-opacity:1; fill:none" points="680.45,1017.11 699.348,1017.11 "/>
<polyline clip-path="url(#clip730)" style="stroke:#000000; stroke-linecap:round; stroke-linejoin:round; stroke-width:8; stroke-opacity:1; fill:none" points="680.45,850.839 699.348,850.839 "/>
<polyline clip-path="url(#clip730)" style="stroke:#000000; stroke-linecap:round; stroke-linejoin:round; stroke-width:8; stroke-opacity:1; fill:none" points="680.45,684.567 699.348,684.567 "/>
<polyline clip-path="url(#clip730)" style="stroke:#000000; stroke-linecap:round; stroke-linejoin:round; stroke-width:8; stroke-opacity:1; fill:none" points="680.45,518.295 699.348,518.295 "/>
<polyline clip-path="url(#clip730)" style="stroke:#000000; stroke-linecap:round; stroke-linejoin:round; stroke-width:8; stroke-opacity:1; fill:none" points="680.45,352.023 699.348,352.023 "/>
<polyline clip-path="url(#clip730)" style="stroke:#000000; stroke-linecap:round; stroke-linejoin:round; stroke-width:8; stroke-opacity:1; fill:none" points="680.45,185.752 699.348,185.752 "/>
<path clip-path="url(#clip730)" d="M397.507 1210.07 L430.146 1210.07 L430.146 1217.94 L386.257 1217.94 L386.257 1210.07 Q391.581 1204.56 400.748 1195.3 Q409.961 1186 412.322 1183.31 Q416.813 1178.27 418.572 1174.79 Q420.378 1171.28 420.378 1167.9 Q420.378 1162.39 416.489 1158.91 Q412.646 1155.44 406.442 1155.44 Q402.044 1155.44 397.137 1156.97 Q392.276 1158.5 386.72 1161.6 L386.72 1152.16 Q392.368 1149.89 397.276 1148.73 Q402.183 1147.57 406.257 1147.57 Q416.998 1147.57 423.387 1152.94 Q429.776 1158.31 429.776 1167.29 Q429.776 1171.55 428.155 1175.4 Q426.581 1179.19 422.368 1184.38 Q421.211 1185.72 415.007 1192.16 Q408.803 1198.54 397.507 1210.07 Z" fill="#000000" fill-rule="nonzero" fill-opacity="1" /><path clip-path="url(#clip730)" d="M451.396 1210.07 L466.674 1210.07 L466.674 1157.34 L450.053 1160.67 L450.053 1152.16 L466.581 1148.82 L475.933 1148.82 L475.933 1210.07 L491.21 1210.07 L491.21 1217.94 L451.396 1217.94 L451.396 1210.07 Z" fill="#000000" fill-rule="nonzero" fill-opacity="1" /><path clip-path="url(#clip730)" d="M530.099 1154.98 Q522.877 1154.98 519.22 1162.11 Q515.608 1169.19 515.608 1183.45 Q515.608 1197.66 519.22 1204.79 Q522.877 1211.88 530.099 1211.88 Q537.368 1211.88 540.979 1204.79 Q544.636 1197.66 544.636 1183.45 Q544.636 1169.19 540.979 1162.11 Q537.368 1154.98 530.099 1154.98 M530.099 1147.57 Q541.719 1147.57 547.831 1156.79 Q553.988 1165.95 553.988 1183.45 Q553.988 1200.91 547.831 1210.12 Q541.719 1219.29 530.099 1219.29 Q518.479 1219.29 512.321 1210.12 Q506.21 1200.91 506.21 1183.45 Q506.21 1165.95 512.321 1156.79 Q518.479 1147.57 530.099 1147.57 Z" fill="#000000" fill-rule="nonzero" fill-opacity="1" /><path clip-path="url(#clip730)" d="M570.423 1206.18 L580.191 1206.18 L580.191 1217.94 L570.423 1217.94 L570.423 1206.18 Z" fill="#000000" fill-rule="nonzero" fill-opacity="1" /><path clip-path="url(#clip730)" d="M620.562 1154.98 Q613.339 1154.98 609.682 1162.11 Q606.071 1169.19 606.071 1183.45 Q606.071 1197.66 609.682 1204.79 Q613.339 1211.88 620.562 1211.88 Q627.83 1211.88 631.441 1204.79 Q635.099 1197.66 635.099 1183.45 Q635.099 1169.19 631.441 1162.11 Q627.83 1154.98 620.562 1154.98 M620.562 1147.57 Q632.182 1147.57 638.293 1156.79 Q644.45 1165.95 644.45 1183.45 Q644.45 1200.91 638.293 1210.12 Q632.182 1219.29 620.562 1219.29 Q608.941 1219.29 602.784 1210.12 Q596.673 1200.91 596.673 1183.45 Q596.673 1165.95 602.784 1156.79 Q608.941 1147.57 620.562 1147.57 Z" fill="#000000" fill-rule="nonzero" fill-opacity="1" /><path clip-path="url(#clip730)" d="M397.507 1043.8 L430.146 1043.8 L430.146 1051.67 L386.257 1051.67 L386.257 1043.8 Q391.581 1038.29 400.748 1029.03 Q409.961 1019.73 412.322 1017.04 Q416.813 1011.99 418.572 1008.52 Q420.378 1005 420.378 1001.62 Q420.378 996.115 416.489 992.643 Q412.646 989.171 406.442 989.171 Q402.044 989.171 397.137 990.699 Q392.276 992.227 386.72 995.328 L386.72 985.884 Q392.368 983.615 397.276 982.458 Q402.183 981.301 406.257 981.301 Q416.998 981.301 423.387 986.671 Q429.776 992.041 429.776 1001.02 Q429.776 1005.28 428.155 1009.12 Q426.581 1012.92 422.368 1018.11 Q421.211 1019.45 415.007 1025.88 Q408.803 1032.27 397.507 1043.8 Z" fill="#000000" fill-rule="nonzero" fill-opacity="1" /><path clip-path="url(#clip730)" d="M457.831 1043.8 L490.47 1043.8 L490.47 1051.67 L446.581 1051.67 L446.581 1043.8 Q451.905 1038.29 461.072 1029.03 Q470.285 1019.73 472.646 1017.04 Q477.136 1011.99 478.896 1008.52 Q480.701 1005 480.701 1001.62 Q480.701 996.115 476.812 992.643 Q472.97 989.171 466.766 989.171 Q462.368 989.171 457.461 990.699 Q452.6 992.227 447.044 995.328 L447.044 985.884 Q452.692 983.615 457.6 982.458 Q462.507 981.301 466.581 981.301 Q477.322 981.301 483.71 986.671 Q490.099 992.041 490.099 1001.02 Q490.099 1005.28 488.479 1009.12 Q486.905 1012.92 482.692 1018.11 Q481.535 1019.45 475.331 1025.88 Q469.127 1032.27 457.831 1043.8 Z" fill="#000000" fill-rule="nonzero" fill-opacity="1" /><path clip-path="url(#clip730)" d="M530.099 988.708 Q522.877 988.708 519.22 995.838 Q515.608 1002.92 515.608 1017.18 Q515.608 1031.39 519.22 1038.52 Q522.877 1045.61 530.099 1045.61 Q537.368 1045.61 540.979 1038.52 Q544.636 1031.39 544.636 1017.18 Q544.636 1002.92 540.979 995.838 Q537.368 988.708 530.099 988.708 M530.099 981.301 Q541.719 981.301 547.831 990.514 Q553.988 999.68 553.988 1017.18 Q553.988 1034.63 547.831 1043.85 Q541.719 1053.01 530.099 1053.01 Q518.479 1053.01 512.321 1043.85 Q506.21 1034.63 506.21 1017.18 Q506.21 999.68 512.321 990.514 Q518.479 981.301 530.099 981.301 Z" fill="#000000" fill-rule="nonzero" fill-opacity="1" /><path clip-path="url(#clip730)" d="M570.423 1039.91 L580.191 1039.91 L580.191 1051.67 L570.423 1051.67 L570.423 1039.91 Z" fill="#000000" fill-rule="nonzero" fill-opacity="1" /><path clip-path="url(#clip730)" d="M620.562 988.708 Q613.339 988.708 609.682 995.838 Q606.071 1002.92 606.071 1017.18 Q606.071 1031.39 609.682 1038.52 Q613.339 1045.61 620.562 1045.61 Q627.83 1045.61 631.441 1038.52 Q635.099 1031.39 635.099 1017.18 Q635.099 1002.92 631.441 995.838 Q627.83 988.708 620.562 988.708 M620.562 981.301 Q632.182 981.301 638.293 990.514 Q644.45 999.68 644.45 1017.18 Q644.45 1034.63 638.293 1043.85 Q632.182 1053.01 620.562 1053.01 Q608.941 1053.01 602.784 1043.85 Q596.673 1034.63 596.673 1017.18 Q596.673 999.68 602.784 990.514 Q608.941 981.301 620.562 981.301 Z" fill="#000000" fill-rule="nonzero" fill-opacity="1" /><path clip-path="url(#clip730)" d="M397.507 877.529 L430.146 877.529 L430.146 885.399 L386.257 885.399 L386.257 877.529 Q391.581 872.019 400.748 862.76 Q409.961 853.455 412.322 850.769 Q416.813 845.723 418.572 842.251 Q420.378 838.732 420.378 835.353 Q420.378 829.844 416.489 826.371 Q412.646 822.899 406.442 822.899 Q402.044 822.899 397.137 824.427 Q392.276 825.955 386.72 829.057 L386.72 819.612 Q392.368 817.344 397.276 816.186 Q402.183 815.029 406.257 815.029 Q416.998 815.029 423.387 820.399 Q429.776 825.77 429.776 834.751 Q429.776 839.01 428.155 842.853 Q426.581 846.649 422.368 851.834 Q421.211 853.177 415.007 859.612 Q408.803 866.001 397.507 877.529 Z" fill="#000000" fill-rule="nonzero" fill-opacity="1" /><path clip-path="url(#clip730)" d="M478.109 848.131 Q484.822 849.566 488.572 854.103 Q492.368 858.64 492.368 865.306 Q492.368 875.538 485.331 881.14 Q478.294 886.741 465.331 886.741 Q460.979 886.741 456.35 885.862 Q451.766 885.028 446.859 883.316 L446.859 874.288 Q450.748 876.556 455.377 877.714 Q460.007 878.871 465.053 878.871 Q473.849 878.871 478.433 875.399 Q483.062 871.927 483.062 865.306 Q483.062 859.195 478.757 855.769 Q474.498 852.297 466.859 852.297 L458.803 852.297 L458.803 844.612 L467.229 844.612 Q474.127 844.612 477.785 841.881 Q481.442 839.103 481.442 833.918 Q481.442 828.594 477.646 825.77 Q473.896 822.899 466.859 822.899 Q463.016 822.899 458.618 823.733 Q454.22 824.566 448.942 826.325 L448.942 817.992 Q454.266 816.51 458.896 815.77 Q463.572 815.029 467.692 815.029 Q478.34 815.029 484.544 819.89 Q490.747 824.705 490.747 832.945 Q490.747 838.686 487.46 842.668 Q484.173 846.603 478.109 848.131 Z" fill="#000000" fill-rule="nonzero" fill-opacity="1" /><path clip-path="url(#clip730)" d="M530.099 822.436 Q522.877 822.436 519.22 829.566 Q515.608 836.649 515.608 850.908 Q515.608 865.121 519.22 872.251 Q522.877 879.334 530.099 879.334 Q537.368 879.334 540.979 872.251 Q544.636 865.121 544.636 850.908 Q544.636 836.649 540.979 829.566 Q537.368 822.436 530.099 822.436 M530.099 815.029 Q541.719 815.029 547.831 824.242 Q553.988 833.408 553.988 850.908 Q553.988 868.362 547.831 877.575 Q541.719 886.741 530.099 886.741 Q518.479 886.741 512.321 877.575 Q506.21 868.362 506.21 850.908 Q506.21 833.408 512.321 824.242 Q518.479 815.029 530.099 815.029 Z" fill="#000000" fill-rule="nonzero" fill-opacity="1" /><path clip-path="url(#clip730)" d="M570.423 873.64 L580.191 873.64 L580.191 885.399 L570.423 885.399 L570.423 873.64 Z" fill="#000000" fill-rule="nonzero" fill-opacity="1" /><path clip-path="url(#clip730)" d="M620.562 822.436 Q613.339 822.436 609.682 829.566 Q606.071 836.649 606.071 850.908 Q606.071 865.121 609.682 872.251 Q613.339 879.334 620.562 879.334 Q627.83 879.334 631.441 872.251 Q635.099 865.121 635.099 850.908 Q635.099 836.649 631.441 829.566 Q627.83 822.436 620.562 822.436 M620.562 815.029 Q632.182 815.029 638.293 824.242 Q644.45 833.408 644.45 850.908 Q644.45 868.362 638.293 877.575 Q632.182 886.741 620.562 886.741 Q608.941 886.741 602.784 877.575 Q596.673 868.362 596.673 850.908 Q596.673 833.408 602.784 824.242 Q608.941 815.029 620.562 815.029 Z" fill="#000000" fill-rule="nonzero" fill-opacity="1" /><path clip-path="url(#clip730)" d="M397.507 711.257 L430.146 711.257 L430.146 719.127 L386.257 719.127 L386.257 711.257 Q391.581 705.747 400.748 696.488 Q409.961 687.183 412.322 684.498 Q416.813 679.451 418.572 675.979 Q420.378 672.461 420.378 669.081 Q420.378 663.572 416.489 660.1 Q412.646 656.627 406.442 656.627 Q402.044 656.627 397.137 658.155 Q392.276 659.683 386.72 662.785 L386.72 653.34 Q392.368 651.072 397.276 649.914 Q402.183 648.757 406.257 648.757 Q416.998 648.757 423.387 654.127 Q429.776 659.498 429.776 668.479 Q429.776 672.738 428.155 676.581 Q426.581 680.377 422.368 685.562 Q421.211 686.905 415.007 693.34 Q408.803 699.729 397.507 711.257 Z" fill="#000000" fill-rule="nonzero" fill-opacity="1" /><path clip-path="url(#clip730)" d="M475.47 658.155 L451.859 695.053 L475.47 695.053 L475.47 658.155 M473.016 650.007 L484.775 650.007 L484.775 695.053 L494.636 695.053 L494.636 702.831 L484.775 702.831 L484.775 719.127 L475.47 719.127 L475.47 702.831 L444.266 702.831 L444.266 693.803 L473.016 650.007 Z" fill="#000000" fill-rule="nonzero" fill-opacity="1" /><path clip-path="url(#clip730)" d="M530.099 656.164 Q522.877 656.164 519.22 663.294 Q515.608 670.377 515.608 684.636 Q515.608 698.849 519.22 705.979 Q522.877 713.062 530.099 713.062 Q537.368 713.062 540.979 705.979 Q544.636 698.849 544.636 684.636 Q544.636 670.377 540.979 663.294 Q537.368 656.164 530.099 656.164 M530.099 648.757 Q541.719 648.757 547.831 657.97 Q553.988 667.137 553.988 684.636 Q553.988 702.09 547.831 711.303 Q541.719 720.47 530.099 720.47 Q518.479 720.47 512.321 711.303 Q506.21 702.09 506.21 684.636 Q506.21 667.137 512.321 657.97 Q518.479 648.757 530.099 648.757 Z" fill="#000000" fill-rule="nonzero" fill-opacity="1" /><path clip-path="url(#clip730)" d="M570.423 707.368 L580.191 707.368 L580.191 719.127 L570.423 719.127 L570.423 707.368 Z" fill="#000000" fill-rule="nonzero" fill-opacity="1" /><path clip-path="url(#clip730)" d="M620.562 656.164 Q613.339 656.164 609.682 663.294 Q606.071 670.377 606.071 684.636 Q606.071 698.849 609.682 705.979 Q613.339 713.062 620.562 713.062 Q627.83 713.062 631.441 705.979 Q635.099 698.849 635.099 684.636 Q635.099 670.377 631.441 663.294 Q627.83 656.164 620.562 656.164 M620.562 648.757 Q632.182 648.757 638.293 657.97 Q644.45 667.137 644.45 684.636 Q644.45 702.09 638.293 711.303 Q632.182 720.47 620.562 720.47 Q608.941 720.47 602.784 711.303 Q596.673 702.09 596.673 684.636 Q596.673 667.137 602.784 657.97 Q608.941 648.757 620.562 648.757 Z" fill="#000000" fill-rule="nonzero" fill-opacity="1" /><path clip-path="url(#clip730)" d="M397.507 544.985 L430.146 544.985 L430.146 552.855 L386.257 552.855 L386.257 544.985 Q391.581 539.476 400.748 530.216 Q409.961 520.911 412.322 518.226 Q416.813 513.18 418.572 509.707 Q420.378 506.189 420.378 502.809 Q420.378 497.3 416.489 493.828 Q412.646 490.356 406.442 490.356 Q402.044 490.356 397.137 491.883 Q392.276 493.411 386.72 496.513 L386.72 487.069 Q392.368 484.8 397.276 483.643 Q402.183 482.485 406.257 482.485 Q416.998 482.485 423.387 487.856 Q429.776 493.226 429.776 502.207 Q429.776 506.467 428.155 510.309 Q426.581 514.105 422.368 519.291 Q421.211 520.633 415.007 527.068 Q408.803 533.457 397.507 544.985 Z" fill="#000000" fill-rule="nonzero" fill-opacity="1" /><path clip-path="url(#clip730)" d="M449.868 483.735 L486.581 483.735 L486.581 491.606 L458.433 491.606 L458.433 508.55 Q460.47 507.855 462.507 507.531 Q464.544 507.161 466.581 507.161 Q478.155 507.161 484.914 513.504 Q491.673 519.846 491.673 530.679 Q491.673 541.837 484.729 548.04 Q477.785 554.198 465.146 554.198 Q460.794 554.198 456.257 553.457 Q451.766 552.716 446.951 551.235 L446.951 541.837 Q451.118 544.105 455.562 545.216 Q460.007 546.328 464.961 546.328 Q472.97 546.328 477.646 542.115 Q482.322 537.902 482.322 530.679 Q482.322 523.457 477.646 519.244 Q472.97 515.031 464.961 515.031 Q461.211 515.031 457.461 515.865 Q453.757 516.698 449.868 518.457 L449.868 483.735 Z" fill="#000000" fill-rule="nonzero" fill-opacity="1" /><path clip-path="url(#clip730)" d="M530.099 489.893 Q522.877 489.893 519.22 497.022 Q515.608 504.106 515.608 518.365 Q515.608 532.578 519.22 539.707 Q522.877 546.79 530.099 546.79 Q537.368 546.79 540.979 539.707 Q544.636 532.578 544.636 518.365 Q544.636 504.106 540.979 497.022 Q537.368 489.893 530.099 489.893 M530.099 482.485 Q541.719 482.485 547.831 491.698 Q553.988 500.865 553.988 518.365 Q553.988 535.818 547.831 545.031 Q541.719 554.198 530.099 554.198 Q518.479 554.198 512.321 545.031 Q506.21 535.818 506.21 518.365 Q506.21 500.865 512.321 491.698 Q518.479 482.485 530.099 482.485 Z" fill="#000000" fill-rule="nonzero" fill-opacity="1" /><path clip-path="url(#clip730)" d="M570.423 541.096 L580.191 541.096 L580.191 552.855 L570.423 552.855 L570.423 541.096 Z" fill="#000000" fill-rule="nonzero" fill-opacity="1" /><path clip-path="url(#clip730)" d="M620.562 489.893 Q613.339 489.893 609.682 497.022 Q606.071 504.106 606.071 518.365 Q606.071 532.578 609.682 539.707 Q613.339 546.79 620.562 546.79 Q627.83 546.79 631.441 539.707 Q635.099 532.578 635.099 518.365 Q635.099 504.106 631.441 497.022 Q627.83 489.893 620.562 489.893 M620.562 482.485 Q632.182 482.485 638.293 491.698 Q644.45 500.865 644.45 518.365 Q644.45 535.818 638.293 545.031 Q632.182 554.198 620.562 554.198 Q608.941 554.198 602.784 545.031 Q596.673 535.818 596.673 518.365 Q596.673 500.865 602.784 491.698 Q608.941 482.485 620.562 482.485 Z" fill="#000000" fill-rule="nonzero" fill-opacity="1" /><path clip-path="url(#clip730)" d="M397.507 378.713 L430.146 378.713 L430.146 386.583 L386.257 386.583 L386.257 378.713 Q391.581 373.204 400.748 363.945 Q409.961 354.639 412.322 351.954 Q416.813 346.908 418.572 343.436 Q420.378 339.917 420.378 336.537 Q420.378 331.028 416.489 327.556 Q412.646 324.084 406.442 324.084 Q402.044 324.084 397.137 325.612 Q392.276 327.139 386.72 330.241 L386.72 320.797 Q392.368 318.528 397.276 317.371 Q402.183 316.213 406.257 316.213 Q416.998 316.213 423.387 321.584 Q429.776 326.954 429.776 335.936 Q429.776 340.195 428.155 344.037 Q426.581 347.834 422.368 353.019 Q421.211 354.361 415.007 360.797 Q408.803 367.185 397.507 378.713 Z" fill="#000000" fill-rule="nonzero" fill-opacity="1" /><path clip-path="url(#clip730)" d="M470.933 348.297 Q464.637 348.297 460.933 352.602 Q457.275 356.908 457.275 364.408 Q457.275 371.861 460.933 376.213 Q464.637 380.519 470.933 380.519 Q477.229 380.519 480.886 376.213 Q484.59 371.861 484.59 364.408 Q484.59 356.908 480.886 352.602 Q477.229 348.297 470.933 348.297 M489.498 318.991 L489.498 327.51 Q485.979 325.843 482.368 324.963 Q478.803 324.084 475.285 324.084 Q466.025 324.084 461.118 330.334 Q456.257 336.584 455.562 349.223 Q458.294 345.195 462.414 343.065 Q466.535 340.889 471.488 340.889 Q481.905 340.889 487.923 347.232 Q493.988 353.528 493.988 364.408 Q493.988 375.056 487.692 381.491 Q481.396 387.926 470.933 387.926 Q458.942 387.926 452.6 378.759 Q446.257 369.547 446.257 352.093 Q446.257 335.704 454.035 325.982 Q461.812 316.213 474.914 316.213 Q478.433 316.213 481.998 316.908 Q485.609 317.602 489.498 318.991 Z" fill="#000000" fill-rule="nonzero" fill-opacity="1" /><path clip-path="url(#clip730)" d="M530.099 323.621 Q522.877 323.621 519.22 330.75 Q515.608 337.834 515.608 352.093 Q515.608 366.306 519.22 373.435 Q522.877 380.519 530.099 380.519 Q537.368 380.519 540.979 373.435 Q544.636 366.306 544.636 352.093 Q544.636 337.834 540.979 330.75 Q537.368 323.621 530.099 323.621 M530.099 316.213 Q541.719 316.213 547.831 325.426 Q553.988 334.593 553.988 352.093 Q553.988 369.547 547.831 378.759 Q541.719 387.926 530.099 387.926 Q518.479 387.926 512.321 378.759 Q506.21 369.547 506.21 352.093 Q506.21 334.593 512.321 325.426 Q518.479 316.213 530.099 316.213 Z" fill="#000000" fill-rule="nonzero" fill-opacity="1" /><path clip-path="url(#clip730)" d="M570.423 374.824 L580.191 374.824 L580.191 386.583 L570.423 386.583 L570.423 374.824 Z" fill="#000000" fill-rule="nonzero" fill-opacity="1" /><path clip-path="url(#clip730)" d="M620.562 323.621 Q613.339 323.621 609.682 330.75 Q606.071 337.834 606.071 352.093 Q606.071 366.306 609.682 373.435 Q613.339 380.519 620.562 380.519 Q627.83 380.519 631.441 373.435 Q635.099 366.306 635.099 352.093 Q635.099 337.834 631.441 330.75 Q627.83 323.621 620.562 323.621 M620.562 316.213 Q632.182 316.213 638.293 325.426 Q644.45 334.593 644.45 352.093 Q644.45 369.547 638.293 378.759 Q632.182 387.926 620.562 387.926 Q608.941 387.926 602.784 378.759 Q596.673 369.547 596.673 352.093 Q596.673 334.593 602.784 325.426 Q608.941 316.213 620.562 316.213 Z" fill="#000000" fill-rule="nonzero" fill-opacity="1" /><path clip-path="url(#clip730)" d="M397.507 212.441 L430.146 212.441 L430.146 220.312 L386.257 220.312 L386.257 212.441 Q391.581 206.932 400.748 197.673 Q409.961 188.367 412.322 185.682 Q416.813 180.636 418.572 177.164 Q420.378 173.645 420.378 170.266 Q420.378 164.756 416.489 161.284 Q412.646 157.812 406.442 157.812 Q402.044 157.812 397.137 159.34 Q392.276 160.868 386.72 163.969 L386.72 154.525 Q392.368 152.256 397.276 151.099 Q402.183 149.942 406.257 149.942 Q416.998 149.942 423.387 155.312 Q429.776 160.682 429.776 169.664 Q429.776 173.923 428.155 177.766 Q426.581 181.562 422.368 186.747 Q421.211 188.09 415.007 194.525 Q408.803 200.914 397.507 212.441 Z" fill="#000000" fill-rule="nonzero" fill-opacity="1" /><path clip-path="url(#clip730)" d="M447.414 151.192 L491.859 151.192 L491.859 155.173 L466.766 220.312 L456.998 220.312 L480.609 159.062 L447.414 159.062 L447.414 151.192 Z" fill="#000000" fill-rule="nonzero" fill-opacity="1" /><path clip-path="url(#clip730)" d="M530.099 157.349 Q522.877 157.349 519.22 164.479 Q515.608 171.562 515.608 185.821 Q515.608 200.034 519.22 207.164 Q522.877 214.247 530.099 214.247 Q537.368 214.247 540.979 207.164 Q544.636 200.034 544.636 185.821 Q544.636 171.562 540.979 164.479 Q537.368 157.349 530.099 157.349 M530.099 149.942 Q541.719 149.942 547.831 159.155 Q553.988 168.321 553.988 185.821 Q553.988 203.275 547.831 212.488 Q541.719 221.654 530.099 221.654 Q518.479 221.654 512.321 212.488 Q506.21 203.275 506.21 185.821 Q506.21 168.321 512.321 159.155 Q518.479 149.942 530.099 149.942 Z" fill="#000000" fill-rule="nonzero" fill-opacity="1" /><path clip-path="url(#clip730)" d="M570.423 208.552 L580.191 208.552 L580.191 220.312 L570.423 220.312 L570.423 208.552 Z" fill="#000000" fill-rule="nonzero" fill-opacity="1" /><path clip-path="url(#clip730)" d="M620.562 157.349 Q613.339 157.349 609.682 164.479 Q606.071 171.562 606.071 185.821 Q606.071 200.034 609.682 207.164 Q613.339 214.247 620.562 214.247 Q627.83 214.247 631.441 207.164 Q635.099 200.034 635.099 185.821 Q635.099 171.562 631.441 164.479 Q627.83 157.349 620.562 157.349 M620.562 149.942 Q632.182 149.942 638.293 159.155 Q644.45 168.321 644.45 185.821 Q644.45 203.275 638.293 212.488 Q632.182 221.654 620.562 221.654 Q608.941 221.654 602.784 212.488 Q596.673 203.275 596.673 185.821 Q596.673 168.321 602.784 159.155 Q608.941 149.942 620.562 149.942 Z" fill="#000000" fill-rule="nonzero" fill-opacity="1" /><path clip-path="url(#clip730)" d="M311.051 931.718 L348.863 931.718 L348.863 943.495 L250.449 943.495 L250.449 931.718 L261.271 931.718 Q254.905 928.026 251.85 922.424 Q248.731 916.759 248.731 908.929 Q248.731 895.943 259.043 887.858 Q269.356 879.71 286.161 879.71 Q302.966 879.71 313.279 887.858 Q323.591 895.943 323.591 908.929 Q323.591 916.759 320.536 922.424 Q317.417 928.026 311.051 931.718 M286.161 891.869 Q273.239 891.869 265.918 897.216 Q258.534 902.499 258.534 911.793 Q258.534 921.087 265.918 926.434 Q273.239 931.718 286.161 931.718 Q299.083 931.718 306.468 926.434 Q313.788 921.087 313.788 911.793 Q313.788 902.499 306.468 897.216 Q299.083 891.869 286.161 891.869 Z" fill="#000000" fill-rule="nonzero" fill-opacity="1" /><path clip-path="url(#clip730)" d="M285.906 827.893 Q285.906 842.089 289.153 847.563 Q292.399 853.038 300.229 853.038 Q306.468 853.038 310.16 848.964 Q313.788 844.826 313.788 837.76 Q313.788 828.021 306.913 822.164 Q299.975 816.244 288.516 816.244 L285.906 816.244 L285.906 827.893 M281.068 804.531 L321.745 804.531 L321.745 816.244 L310.924 816.244 Q317.417 820.254 320.536 826.238 Q323.591 832.222 323.591 840.879 Q323.591 851.828 317.48 858.321 Q311.306 864.751 300.993 864.751 Q288.962 864.751 282.851 856.73 Q276.74 848.645 276.74 832.668 L276.74 816.244 L275.594 816.244 Q267.509 816.244 263.117 821.591 Q258.661 826.875 258.661 836.487 Q258.661 842.598 260.125 848.391 Q261.589 854.184 264.518 859.531 L253.696 859.531 Q251.213 853.101 250.004 847.054 Q248.731 841.007 248.731 835.278 Q248.731 819.809 256.751 812.17 Q264.772 804.531 281.068 804.531 Z" fill="#000000" fill-rule="nonzero" fill-opacity="1" /><path clip-path="url(#clip730)" d="M261.398 739.092 Q260.253 741.065 259.743 743.42 Q259.17 745.712 259.17 748.513 Q259.17 758.443 265.663 763.791 Q272.093 769.074 284.188 769.074 L321.745 769.074 L321.745 780.851 L250.449 780.851 L250.449 769.074 L261.526 769.074 Q255.033 765.382 251.914 759.462 Q248.731 753.542 248.731 745.075 Q248.731 743.866 248.922 742.402 Q249.049 740.938 249.367 739.155 L261.398 739.092 Z" fill="#000000" fill-rule="nonzero" fill-opacity="1" /><path clip-path="url(#clip730)" d="M283.169 668.687 L288.898 668.687 L288.898 722.541 Q300.993 721.777 307.359 715.284 Q313.661 708.727 313.661 697.078 Q313.661 690.33 312.006 684.028 Q310.351 677.663 307.041 671.424 L318.117 671.424 Q320.79 677.726 322.191 684.347 Q323.591 690.967 323.591 697.778 Q323.591 714.838 313.661 724.832 Q303.73 734.763 286.798 734.763 Q269.292 734.763 259.043 725.342 Q248.731 715.857 248.731 699.815 Q248.731 685.429 258.025 677.09 Q267.255 668.687 283.169 668.687 M279.732 680.4 Q270.119 680.527 264.39 685.811 Q258.661 691.031 258.661 699.688 Q258.661 709.491 264.199 715.411 Q269.737 721.268 279.795 722.159 L279.732 680.4 Z" fill="#000000" fill-rule="nonzero" fill-opacity="1" /><path clip-path="url(#clip730)" d="M278.713 590.198 L321.745 590.198 L321.745 601.911 L279.095 601.911 Q268.974 601.911 263.945 605.857 Q258.916 609.804 258.916 617.698 Q258.916 627.183 264.963 632.657 Q271.011 638.132 281.45 638.132 L321.745 638.132 L321.745 649.908 L250.449 649.908 L250.449 638.132 L261.526 638.132 Q255.096 633.93 251.914 628.265 Q248.731 622.536 248.731 615.088 Q248.731 602.802 256.37 596.5 Q263.945 590.198 278.713 590.198 Z" fill="#000000" fill-rule="nonzero" fill-opacity="1" /><path clip-path="url(#clip730)" d="M305.576 565.181 L305.576 551.749 L321.745 551.749 L321.745 565.181 L305.576 565.181 Z" fill="#000000" fill-rule="nonzero" fill-opacity="1" /><path clip-path="url(#clip730)" d="M226.705 482.172 L226.705 431.692 L237.527 431.692 L237.527 470.395 L260.826 470.395 Q259.871 467.594 259.425 464.793 Q258.916 461.992 258.916 459.192 Q258.916 443.277 267.637 433.983 Q276.358 424.689 291.254 424.689 Q306.595 424.689 315.125 434.238 Q323.591 443.787 323.591 461.165 Q323.591 467.149 322.573 473.387 Q321.554 479.562 319.517 486.182 L306.595 486.182 Q309.714 480.453 311.242 474.342 Q312.77 468.231 312.77 461.42 Q312.77 450.407 306.977 443.978 Q301.184 437.548 291.254 437.548 Q281.323 437.548 275.53 443.978 Q269.737 450.407 269.737 461.42 Q269.737 466.576 270.883 471.732 Q272.029 476.825 274.448 482.172 L226.705 482.172 Z" fill="#000000" fill-rule="nonzero" fill-opacity="1" /><polyline clip-path="url(#clip732)" style="stroke:#008000; stroke-linecap:round; stroke-linejoin:round; stroke-width:8; stroke-opacity:1; fill:none" points="726.443,292.754 865.813,348.782 1005.18,235.127 1144.55,433.582 1283.93,397.704 1423.3,753.798 1562.67,801.036 1702.04,956.363 1841.41,1125.08 1980.78,1209.31 2120.15,935.613 2259.52,1024.98 "/>
<circle clip-path="url(#clip732)" cx="726.443" cy="292.754" r="14.4" fill="#008000" fill-rule="evenodd" fill-opacity="1" stroke="#000000" stroke-opacity="1" stroke-width="6.4"/>
<circle clip-path="url(#clip732)" cx="865.813" cy="348.782" r="14.4" fill="#008000" fill-rule="evenodd" fill-opacity="1" stroke="#000000" stroke-opacity="1" stroke-width="6.4"/>
<circle clip-path="url(#clip732)" cx="1005.18" cy="235.127" r="14.4" fill="#008000" fill-rule="evenodd" fill-opacity="1" stroke="#000000" stroke-opacity="1" stroke-width="6.4"/>
<circle clip-path="url(#clip732)" cx="1144.55" cy="433.582" r="14.4" fill="#008000" fill-rule="evenodd" fill-opacity="1" stroke="#000000" stroke-opacity="1" stroke-width="6.4"/>
<circle clip-path="url(#clip732)" cx="1283.93" cy="397.704" r="14.4" fill="#008000" fill-rule="evenodd" fill-opacity="1" stroke="#000000" stroke-opacity="1" stroke-width="6.4"/>
<circle clip-path="url(#clip732)" cx="1423.3" cy="753.798" r="14.4" fill="#008000" fill-rule="evenodd" fill-opacity="1" stroke="#000000" stroke-opacity="1" stroke-width="6.4"/>
<circle clip-path="url(#clip732)" cx="1562.67" cy="801.036" r="14.4" fill="#008000" fill-rule="evenodd" fill-opacity="1" stroke="#000000" stroke-opacity="1" stroke-width="6.4"/>
<circle clip-path="url(#clip732)" cx="1702.04" cy="956.363" r="14.4" fill="#008000" fill-rule="evenodd" fill-opacity="1" stroke="#000000" stroke-opacity="1" stroke-width="6.4"/>
<circle clip-path="url(#clip732)" cx="1841.41" cy="1125.08" r="14.4" fill="#008000" fill-rule="evenodd" fill-opacity="1" stroke="#000000" stroke-opacity="1" stroke-width="6.4"/>
<circle clip-path="url(#clip732)" cx="1980.78" cy="1209.31" r="14.4" fill="#008000" fill-rule="evenodd" fill-opacity="1" stroke="#000000" stroke-opacity="1" stroke-width="6.4"/>
<circle clip-path="url(#clip732)" cx="2120.15" cy="935.613" r="14.4" fill="#008000" fill-rule="evenodd" fill-opacity="1" stroke="#000000" stroke-opacity="1" stroke-width="6.4"/>
<circle clip-path="url(#clip732)" cx="2259.52" cy="1024.98" r="14.4" fill="#008000" fill-rule="evenodd" fill-opacity="1" stroke="#000000" stroke-opacity="1" stroke-width="6.4"/>
<polyline clip-path="url(#clip732)" style="stroke:#00008b; stroke-linecap:round; stroke-linejoin:round; stroke-width:8; stroke-opacity:1; fill:none" points="726.443,295.681 865.813,524.019 1005.18,592.456 1144.55,624.222 1283.93,667.812 1423.3,724.603 1562.67,765.133 1702.04,824.701 1841.41,900.717 1980.78,933.846 2120.15,1015.87 2259.52,1068.38 "/>
<path clip-path="url(#clip732)" d="M726.443 468.196 L865.813 697.836 L1005.18 758.637 L1144.55 788.412 L1283.93 837.574 L1423.3 897.983 L1562.67 926.267 L1702.04 997.861 L1841.41 1062.78 L1980.78 1104.98 L2120.15 1182.16 L2259.52 1240.32 L2259.52 899.276 L2120.15 848.048 L1980.78 767.431 L1841.41 734.156 L1702.04 655.574 L1562.67 600.259 L1423.3 558.291 L1283.93 492.322 L1144.55 455.045 L1005.18 436.652 L865.813 365.536 L726.443 127.862  Z" fill="#0000ff" fill-rule="evenodd" fill-opacity="0.1"/>
<polyline clip-path="url(#clip732)" style="stroke:#0000ff; stroke-linecap:round; stroke-linejoin:round; stroke-width:0; stroke-opacity:0.1; fill:none" points="726.443,468.196 865.813,697.836 1005.18,758.637 1144.55,788.412 1283.93,837.574 1423.3,897.983 1562.67,926.267 1702.04,997.861 1841.41,1062.78 1980.78,1104.98 2120.15,1182.16 2259.52,1240.32 "/>
</svg>
