<?xml version="1.0" encoding="utf-8"?>
<svg xmlns="http://www.w3.org/2000/svg" xmlns:xlink="http://www.w3.org/1999/xlink" width="600" height="400" viewBox="0 0 2400 1600">
<defs>
  <clipPath id="clip540">
    <rect x="0" y="0" width="2400" height="1600"/>
  </clipPath>
</defs>
<path clip-path="url(#clip540)" d="M0 1600 L2400 1600 L2400 0 L0 0  Z" fill="#ffffff" fill-rule="evenodd" fill-opacity="1"/>
<defs>
  <clipPath id="clip541">
    <rect x="480" y="0" width="1681" height="1600"/>
  </clipPath>
</defs>
<path clip-path="url(#clip540)" d="M680.45 1273.7 L2305.51 1273.7 L2305.51 94.4882 L680.45 94.4882  Z" fill="#ffffff" fill-rule="evenodd" fill-opacity="1"/>
<defs>
  <clipPath id="clip542">
    <rect x="680" y="94" width="1626" height="1180"/>
  </clipPath>
</defs>
<polyline clip-path="url(#clip542)" style="stroke:#000000; stroke-linecap:round; stroke-linejoin:round; stroke-width:4; stroke-opacity:0.1; fill:none" points="726.443,1273.7 726.443,94.4882 "/>
<polyline clip-path="url(#clip542)" style="stroke:#000000; stroke-linecap:round; stroke-linejoin:round; stroke-width:4; stroke-opacity:0.1; fill:none" points="1074.87,1273.7 1074.87,94.4882 "/>
<polyline clip-path="url(#clip542)" style="stroke:#000000; stroke-linecap:round; stroke-linejoin:round; stroke-width:4; stroke-opacity:0.1; fill:none" points="1423.3,1273.7 1423.3,94.4882 "/>
<polyline clip-path="url(#clip542)" style="stroke:#000000; stroke-linecap:round; stroke-linejoin:round; stroke-width:4; stroke-opacity:0.1; fill:none" points="1771.72,1273.7 1771.72,94.4882 "/>
<polyline clip-path="url(#clip542)" style="stroke:#000000; stroke-linecap:round; stroke-linejoin:round; stroke-width:4; stroke-opacity:0.1; fill:none" points="2120.15,1273.7 2120.15,94.4882 "/>
<polyline clip-path="url(#clip540)" style="stroke:#000000; stroke-linecap:round; stroke-linejoin:round; stroke-width:8; stroke-opacity:1; fill:none" points="680.45,1273.7 2305.51,1273.7 "/>
<polyline clip-path="url(#clip540)" style="stroke:#000000; stroke-linecap:round; stroke-linejoin:round; stroke-width:8; stroke-opacity:1; fill:none" points="726.443,1273.7 726.443,1254.8 "/>
<polyline clip-path="url(#clip540)" style="stroke:#000000; stroke-linecap:round; stroke-linejoin:round; stroke-width:8; stroke-opacity:1; fill:none" points="1074.87,1273.7 1074.87,1254.8 "/>
<polyline clip-path="url(#clip540)" style="stroke:#000000; stroke-linecap:round; stroke-linejoin:round; stroke-width:8; stroke-opacity:1; fill:none" points="1423.3,1273.7 1423.3,1254.8 "/>
<polyline clip-path="url(#clip540)" style="stroke:#000000; stroke-linecap:round; stroke-linejoin:round; stroke-width:8; stroke-opacity:1; fill:none" points="1771.72,1273.7 1771.72,1254.8 "/>
<polyline clip-path="url(#clip540)" style="stroke:#000000; stroke-linecap:round; stroke-linejoin:round; stroke-width:8; stroke-opacity:1; fill:none" points="2120.15,1273.7 2120.15,1254.8 "/>
<path clip-path="url(#clip540)" d="M651.05 1316.33 Q643.827 1316.33 640.17 1323.46 Q636.559 1330.55 636.559 1344.81 Q636.559 1359.02 640.17 1366.15 Q643.827 1373.23 651.05 1373.23 Q658.318 1373.23 661.929 1366.15 Q665.587 1359.02 665.587 1344.81 Q665.587 1330.55 661.929 1323.46 Q658.318 1316.33 651.05 1316.33 M651.05 1308.93 Q662.67 1308.93 668.781 1318.14 Q674.938 1327.31 674.938 1344.81 Q674.938 1362.26 668.781 1371.47 Q662.67 1380.64 651.05 1380.64 Q639.429 1380.64 633.272 1371.47 Q627.161 1362.26 627.161 1344.81 Q627.161 1327.31 633.272 1318.14 Q639.429 1308.93 651.05 1308.93 Z" fill="#000000" fill-rule="nonzero" fill-opacity="1" /><path clip-path="url(#clip540)" d="M691.373 1367.54 L701.142 1367.54 L701.142 1379.3 L691.373 1379.3 L691.373 1367.54 Z" fill="#000000" fill-rule="nonzero" fill-opacity="1" /><path clip-path="url(#clip540)" d="M741.512 1316.33 Q734.29 1316.33 730.632 1323.46 Q727.021 1330.55 727.021 1344.81 Q727.021 1359.02 730.632 1366.15 Q734.29 1373.23 741.512 1373.23 Q748.781 1373.23 752.392 1366.15 Q756.049 1359.02 756.049 1344.81 Q756.049 1330.55 752.392 1323.46 Q748.781 1316.33 741.512 1316.33 M741.512 1308.93 Q753.132 1308.93 759.243 1318.14 Q765.401 1327.31 765.401 1344.81 Q765.401 1362.26 759.243 1371.47 Q753.132 1380.64 741.512 1380.64 Q729.892 1380.64 723.734 1371.47 Q717.623 1362.26 717.623 1344.81 Q717.623 1327.31 723.734 1318.14 Q729.892 1308.93 741.512 1308.93 Z" fill="#000000" fill-rule="nonzero" fill-opacity="1" /><path clip-path="url(#clip540)" d="M801.836 1316.33 Q794.614 1316.33 790.956 1323.46 Q787.345 1330.55 787.345 1344.81 Q787.345 1359.02 790.956 1366.15 Q794.614 1373.23 801.836 1373.23 Q809.104 1373.23 812.715 1366.15 Q816.373 1359.02 816.373 1344.81 Q816.373 1330.55 812.715 1323.46 Q809.104 1316.33 801.836 1316.33 M801.836 1308.93 Q813.456 1308.93 819.567 1318.14 Q825.725 1327.31 825.725 1344.81 Q825.725 1362.26 819.567 1371.47 Q813.456 1380.64 801.836 1380.64 Q790.215 1380.64 784.058 1371.47 Q777.947 1362.26 777.947 1344.81 Q777.947 1327.31 784.058 1318.14 Q790.215 1308.93 801.836 1308.93 Z" fill="#000000" fill-rule="nonzero" fill-opacity="1" /><path clip-path="url(#clip540)" d="M1000.47 1316.33 Q993.249 1316.33 989.592 1323.46 Q985.981 1330.55 985.981 1344.81 Q985.981 1359.02 989.592 1366.15 Q993.249 1373.23 1000.47 1373.23 Q1007.74 1373.23 1011.35 1366.15 Q1015.01 1359.02 1015.01 1344.81 Q1015.01 1330.55 1011.35 1323.46 Q1007.74 1316.33 1000.47 1316.33 M1000.47 1308.93 Q1012.09 1308.93 1018.2 1318.14 Q1024.36 1327.31 1024.36 1344.81 Q1024.36 1362.26 1018.2 1371.47 Q1012.09 1380.64 1000.47 1380.64 Q988.851 1380.64 982.694 1371.47 Q976.583 1362.26 976.583 1344.81 Q976.583 1327.31 982.694 1318.14 Q988.851 1308.93 1000.47 1308.93 Z" fill="#000000" fill-rule="nonzero" fill-opacity="1" /><path clip-path="url(#clip540)" d="M1040.8 1367.54 L1050.56 1367.54 L1050.56 1379.3 L1040.8 1379.3 L1040.8 1367.54 Z" fill="#000000" fill-rule="nonzero" fill-opacity="1" /><path clip-path="url(#clip540)" d="M1078.99 1371.43 L1111.63 1371.43 L1111.63 1379.3 L1067.74 1379.3 L1067.74 1371.43 Q1073.06 1365.92 1082.23 1356.66 Q1091.44 1347.35 1093.8 1344.67 Q1098.3 1339.62 1100.05 1336.15 Q1101.86 1332.63 1101.86 1329.25 Q1101.86 1323.74 1097.97 1320.27 Q1094.13 1316.8 1087.92 1316.8 Q1083.53 1316.8 1078.62 1318.32 Q1073.76 1319.85 1068.2 1322.95 L1068.2 1313.51 Q1073.85 1311.24 1078.76 1310.08 Q1083.67 1308.93 1087.74 1308.93 Q1098.48 1308.93 1104.87 1314.3 Q1111.26 1319.67 1111.26 1328.65 Q1111.26 1332.91 1109.64 1336.75 Q1108.06 1340.55 1103.85 1345.73 Q1102.69 1347.07 1096.49 1353.51 Q1090.29 1359.9 1078.99 1371.43 Z" fill="#000000" fill-rule="nonzero" fill-opacity="1" /><path clip-path="url(#clip540)" d="M1131.35 1310.18 L1168.06 1310.18 L1168.06 1318.05 L1139.92 1318.05 L1139.92 1334.99 Q1141.95 1334.3 1143.99 1333.97 Q1146.03 1333.6 1148.06 1333.6 Q1159.64 1333.6 1166.4 1339.94 Q1173.16 1346.29 1173.16 1357.12 Q1173.16 1368.28 1166.21 1374.48 Q1159.27 1380.64 1146.63 1380.64 Q1142.28 1380.64 1137.74 1379.9 Q1133.25 1379.16 1128.43 1377.68 L1128.43 1368.28 Q1132.6 1370.55 1137.04 1371.66 Q1141.49 1372.77 1146.44 1372.77 Q1154.45 1372.77 1159.13 1368.56 Q1163.8 1364.34 1163.8 1357.12 Q1163.8 1349.9 1159.13 1345.68 Q1154.45 1341.47 1146.44 1341.47 Q1142.69 1341.47 1138.94 1342.31 Q1135.24 1343.14 1131.35 1344.9 L1131.35 1310.18 Z" fill="#000000" fill-rule="nonzero" fill-opacity="1" /><path clip-path="url(#clip540)" d="M1347.9 1316.33 Q1340.68 1316.33 1337.02 1323.46 Q1333.41 1330.55 1333.41 1344.81 Q1333.41 1359.02 1337.02 1366.15 Q1340.68 1373.23 1347.9 1373.23 Q1355.17 1373.23 1358.78 1366.15 Q1362.44 1359.02 1362.44 1344.81 Q1362.44 1330.55 1358.78 1323.46 Q1355.17 1316.33 1347.9 1316.33 M1347.9 1308.93 Q1359.52 1308.93 1365.63 1318.14 Q1371.79 1327.31 1371.79 1344.81 Q1371.79 1362.26 1365.63 1371.47 Q1359.52 1380.64 1347.9 1380.64 Q1336.28 1380.64 1330.12 1371.47 Q1324.01 1362.26 1324.01 1344.81 Q1324.01 1327.31 1330.12 1318.14 Q1336.28 1308.93 1347.9 1308.93 Z" fill="#000000" fill-rule="nonzero" fill-opacity="1" /><path clip-path="url(#clip540)" d="M1388.23 1367.54 L1397.99 1367.54 L1397.99 1379.3 L1388.23 1379.3 L1388.23 1367.54 Z" fill="#000000" fill-rule="nonzero" fill-opacity="1" /><path clip-path="url(#clip540)" d="M1418.46 1310.18 L1455.17 1310.18 L1455.17 1318.05 L1427.02 1318.05 L1427.02 1334.99 Q1429.06 1334.3 1431.1 1333.97 Q1433.13 1333.6 1435.17 1333.6 Q1446.74 1333.6 1453.5 1339.94 Q1460.26 1346.29 1460.26 1357.12 Q1460.26 1368.28 1453.32 1374.48 Q1446.37 1380.64 1433.74 1380.64 Q1429.38 1380.64 1424.85 1379.9 Q1420.36 1379.16 1415.54 1377.68 L1415.54 1368.28 Q1419.71 1370.55 1424.15 1371.66 Q1428.6 1372.77 1433.55 1372.77 Q1441.56 1372.77 1446.24 1368.56 Q1450.91 1364.34 1450.91 1357.12 Q1450.91 1349.9 1446.24 1345.68 Q1441.56 1341.47 1433.55 1341.47 Q1429.8 1341.47 1426.05 1342.31 Q1422.35 1343.14 1418.46 1344.9 L1418.46 1310.18 Z" fill="#000000" fill-rule="nonzero" fill-opacity="1" /><path clip-path="url(#clip540)" d="M1498.69 1316.33 Q1491.47 1316.33 1487.81 1323.46 Q1484.2 1330.55 1484.2 1344.81 Q1484.2 1359.02 1487.81 1366.15 Q1491.47 1373.23 1498.69 1373.23 Q1505.96 1373.23 1509.57 1366.15 Q1513.23 1359.02 1513.23 1344.81 Q1513.23 1330.55 1509.57 1323.46 Q1505.96 1316.33 1498.69 1316.33 M1498.69 1308.93 Q1510.31 1308.93 1516.42 1318.14 Q1522.58 1327.31 1522.58 1344.81 Q1522.58 1362.26 1516.42 1371.47 Q1510.31 1380.64 1498.69 1380.64 Q1487.07 1380.64 1480.91 1371.47 Q1474.8 1362.26 1474.8 1344.81 Q1474.8 1327.31 1480.91 1318.14 Q1487.07 1308.93 1498.69 1308.93 Z" fill="#000000" fill-rule="nonzero" fill-opacity="1" /><path clip-path="url(#clip540)" d="M1697.32 1316.33 Q1690.1 1316.33 1686.45 1323.46 Q1682.83 1330.55 1682.83 1344.81 Q1682.83 1359.02 1686.45 1366.15 Q1690.1 1373.23 1697.32 1373.23 Q1704.59 1373.23 1708.2 1366.15 Q1711.86 1359.02 1711.86 1344.81 Q1711.86 1330.55 1708.2 1323.46 Q1704.59 1316.33 1697.32 1316.33 M1697.32 1308.93 Q1708.94 1308.93 1715.06 1318.14 Q1721.21 1327.31 1721.21 1344.81 Q1721.21 1362.26 1715.06 1371.47 Q1708.94 1380.64 1697.32 1380.64 Q1685.7 1380.64 1679.55 1371.47 Q1673.44 1362.26 1673.44 1344.81 Q1673.44 1327.31 1679.55 1318.14 Q1685.7 1308.93 1697.32 1308.93 Z" fill="#000000" fill-rule="nonzero" fill-opacity="1" /><path clip-path="url(#clip540)" d="M1737.65 1367.54 L1747.42 1367.54 L1747.42 1379.3 L1737.65 1379.3 L1737.65 1367.54 Z" fill="#000000" fill-rule="nonzero" fill-opacity="1" /><path clip-path="url(#clip540)" d="M1765.43 1310.18 L1809.87 1310.18 L1809.87 1314.16 L1784.78 1379.3 L1775.01 1379.3 L1798.62 1318.05 L1765.43 1318.05 L1765.43 1310.18 Z" fill="#000000" fill-rule="nonzero" fill-opacity="1" /><path clip-path="url(#clip540)" d="M1828.2 1310.18 L1864.92 1310.18 L1864.92 1318.05 L1836.77 1318.05 L1836.77 1334.99 Q1838.81 1334.3 1840.84 1333.97 Q1842.88 1333.6 1844.92 1333.6 Q1856.49 1333.6 1863.25 1339.94 Q1870.01 1346.29 1870.01 1357.12 Q1870.01 1368.28 1863.06 1374.48 Q1856.12 1380.64 1843.48 1380.64 Q1839.13 1380.64 1834.59 1379.9 Q1830.1 1379.16 1825.29 1377.68 L1825.29 1368.28 Q1829.45 1370.55 1833.9 1371.66 Q1838.34 1372.77 1843.3 1372.77 Q1851.31 1372.77 1855.98 1368.56 Q1860.66 1364.34 1860.66 1357.12 Q1860.66 1349.9 1855.98 1345.68 Q1851.31 1341.47 1843.3 1341.47 Q1839.55 1341.47 1835.8 1342.31 Q1832.09 1343.14 1828.2 1344.9 L1828.2 1310.18 Z" fill="#000000" fill-rule="nonzero" fill-opacity="1" /><path clip-path="url(#clip540)" d="M2024.29 1371.43 L2039.57 1371.43 L2039.57 1318.69 L2022.95 1322.03 L2022.95 1313.51 L2039.48 1310.18 L2048.83 1310.18 L2048.83 1371.43 L2064.11 1371.43 L2064.11 1379.3 L2024.29 1379.3 L2024.29 1371.43 Z" fill="#000000" fill-rule="nonzero" fill-opacity="1" /><path clip-path="url(#clip540)" d="M2083 1367.54 L2092.76 1367.54 L2092.76 1379.3 L2083 1379.3 L2083 1367.54 Z" fill="#000000" fill-rule="nonzero" fill-opacity="1" /><path clip-path="url(#clip540)" d="M2133.13 1316.33 Q2125.91 1316.33 2122.26 1323.46 Q2118.64 1330.55 2118.64 1344.81 Q2118.64 1359.02 2122.26 1366.15 Q2125.91 1373.23 2133.13 1373.23 Q2140.4 1373.23 2144.01 1366.15 Q2147.67 1359.02 2147.67 1344.81 Q2147.67 1330.55 2144.01 1323.46 Q2140.4 1316.33 2133.13 1316.33 M2133.13 1308.93 Q2144.76 1308.93 2150.87 1318.14 Q2157.02 1327.31 2157.02 1344.81 Q2157.02 1362.26 2150.87 1371.47 Q2144.76 1380.64 2133.13 1380.64 Q2121.51 1380.64 2115.36 1371.47 Q2109.25 1362.26 2109.25 1344.81 Q2109.25 1327.31 2115.36 1318.14 Q2121.51 1308.93 2133.13 1308.93 Z" fill="#000000" fill-rule="nonzero" fill-opacity="1" /><path clip-path="url(#clip540)" d="M2193.46 1316.33 Q2186.24 1316.33 2182.58 1323.46 Q2178.97 1330.55 2178.97 1344.81 Q2178.97 1359.02 2182.58 1366.15 Q2186.24 1373.23 2193.46 1373.23 Q2200.73 1373.23 2204.34 1366.15 Q2208 1359.02 2208 1344.81 Q2208 1330.55 2204.34 1323.46 Q2200.73 1316.33 2193.46 1316.33 M2193.46 1308.93 Q2205.08 1308.93 2211.19 1318.14 Q2217.35 1327.31 2217.35 1344.81 Q2217.35 1362.26 2211.19 1371.47 Q2205.08 1380.64 2193.46 1380.64 Q2181.84 1380.64 2175.68 1371.47 Q2169.57 1362.26 2169.57 1344.81 Q2169.57 1327.31 2175.68 1318.14 Q2181.84 1308.93 2193.46 1308.93 Z" fill="#000000" fill-rule="nonzero" fill-opacity="1" /><path clip-path="url(#clip540)" d="M1378.53 1484.39 L1378.53 1527.42 L1366.81 1527.42 L1366.81 1484.77 Q1366.81 1474.65 1362.87 1469.62 Q1358.92 1464.59 1351.03 1464.59 Q1341.54 1464.59 1336.07 1470.64 Q1330.59 1476.69 1330.59 1487.13 L1330.59 1527.42 L1318.82 1527.42 L1318.82 1428.37 L1330.59 1428.37 L1330.59 1467.2 Q1334.79 1460.77 1340.46 1457.59 Q1346.19 1454.41 1353.64 1454.41 Q1365.92 1454.41 1372.22 1462.05 Q1378.53 1469.62 1378.53 1484.39 Z" fill="#000000" fill-rule="nonzero" fill-opacity="1" /><path clip-path="url(#clip540)" d="M1429.51 1464.34 Q1420.09 1464.34 1414.62 1471.72 Q1409.14 1479.04 1409.14 1491.84 Q1409.14 1504.63 1414.56 1512.02 Q1420.03 1519.34 1429.51 1519.34 Q1438.87 1519.34 1444.35 1511.96 Q1449.82 1504.57 1449.82 1491.84 Q1449.82 1479.17 1444.35 1471.79 Q1438.87 1464.34 1429.51 1464.34 M1429.51 1454.41 Q1444.79 1454.41 1453.51 1464.34 Q1462.23 1474.27 1462.23 1491.84 Q1462.23 1509.35 1453.51 1519.34 Q1444.79 1529.27 1429.51 1529.27 Q1414.17 1529.27 1405.45 1519.34 Q1396.8 1509.35 1396.8 1491.84 Q1396.8 1474.27 1405.45 1464.34 Q1414.17 1454.41 1429.51 1454.41 Z" fill="#000000" fill-rule="nonzero" fill-opacity="1" /><path clip-path="url(#clip540)" d="M1480.44 1499.29 L1480.44 1456.13 L1492.15 1456.13 L1492.15 1498.84 Q1492.15 1508.96 1496.1 1514.06 Q1500.05 1519.08 1507.94 1519.08 Q1517.43 1519.08 1522.9 1513.04 Q1528.44 1506.99 1528.44 1496.55 L1528.44 1456.13 L1540.15 1456.13 L1540.15 1527.42 L1528.44 1527.42 L1528.44 1516.47 Q1524.17 1522.97 1518.51 1526.15 Q1512.91 1529.27 1505.46 1529.27 Q1493.17 1529.27 1486.81 1521.63 Q1480.44 1513.99 1480.44 1499.29 M1509.91 1454.41 L1509.91 1454.41 Z" fill="#000000" fill-rule="nonzero" fill-opacity="1" /><path clip-path="url(#clip540)" d="M1605.59 1467.08 Q1603.62 1465.93 1601.26 1465.42 Q1598.97 1464.85 1596.17 1464.85 Q1586.24 1464.85 1580.89 1471.34 Q1575.61 1477.77 1575.61 1489.87 L1575.61 1527.42 L1563.83 1527.42 L1563.83 1456.13 L1575.61 1456.13 L1575.61 1467.2 Q1579.3 1460.71 1585.22 1457.59 Q1591.14 1454.41 1599.61 1454.41 Q1600.82 1454.41 1602.28 1454.6 Q1603.74 1454.73 1605.53 1455.05 L1605.59 1467.08 Z" fill="#000000" fill-rule="nonzero" fill-opacity="1" /><path clip-path="url(#clip540)" d="M1663.33 1458.23 L1663.33 1469.3 Q1658.36 1466.76 1653.01 1465.49 Q1647.67 1464.21 1641.94 1464.21 Q1633.22 1464.21 1628.83 1466.89 Q1624.5 1469.56 1624.5 1474.91 Q1624.5 1478.98 1627.62 1481.34 Q1630.73 1483.63 1640.16 1485.73 L1644.17 1486.62 Q1656.64 1489.29 1661.86 1494.19 Q1667.15 1499.03 1667.15 1507.75 Q1667.15 1517.68 1659.25 1523.48 Q1651.42 1529.27 1637.67 1529.27 Q1631.94 1529.27 1625.71 1528.12 Q1619.53 1527.04 1612.66 1524.81 L1612.66 1512.72 Q1619.15 1516.09 1625.45 1517.81 Q1631.75 1519.47 1637.93 1519.47 Q1646.2 1519.47 1650.66 1516.67 Q1655.12 1513.8 1655.12 1508.64 Q1655.12 1503.87 1651.87 1501.32 Q1648.69 1498.78 1637.8 1496.42 L1633.73 1495.47 Q1622.84 1493.18 1618 1488.47 Q1613.17 1483.69 1613.17 1475.42 Q1613.17 1465.36 1620.3 1459.88 Q1627.42 1454.41 1640.54 1454.41 Q1647.03 1454.41 1652.76 1455.36 Q1658.49 1456.32 1663.33 1458.23 Z" fill="#000000" fill-rule="nonzero" fill-opacity="1" /><polyline clip-path="url(#clip542)" style="stroke:#000000; stroke-linecap:round; stroke-linejoin:round; stroke-width:4; stroke-opacity:0.1; fill:none" points="680.45,1054.71 2305.51,1054.71 "/>
<polyline clip-path="url(#clip542)" style="stroke:#000000; stroke-linecap:round; stroke-linejoin:round; stroke-width:4; stroke-opacity:0.1; fill:none" points="680.45,757.47 2305.51,757.47 "/>
<polyline clip-path="url(#clip542)" style="stroke:#000000; stroke-linecap:round; stroke-linejoin:round; stroke-width:4; stroke-opacity:0.1; fill:none" points="680.45,460.227 2305.51,460.227 "/>
<polyline clip-path="url(#clip542)" style="stroke:#000000; stroke-linecap:round; stroke-linejoin:round; stroke-width:4; stroke-opacity:0.1; fill:none" points="680.45,162.984 2305.51,162.984 "/>
<polyline clip-path="url(#clip540)" style="stroke:#000000; stroke-linecap:round; stroke-linejoin:round; stroke-width:8; stroke-opacity:1; fill:none" points="680.45,1273.7 680.45,94.4882 "/>
<polyline clip-path="url(#clip540)" style="stroke:#000000; stroke-linecap:round; stroke-linejoin:round; stroke-width:8; stroke-opacity:1; fill:none" points="680.45,1054.71 699.348,1054.71 "/>
<polyline clip-path="url(#clip540)" style="stroke:#000000; stroke-linecap:round; stroke-linejoin:round; stroke-width:8; stroke-opacity:1; fill:none" points="680.45,757.47 699.348,757.47 "/>
<polyline clip-path="url(#clip540)" style="stroke:#000000; stroke-linecap:round; stroke-linejoin:round; stroke-width:8; stroke-opacity:1; fill:none" points="680.45,460.227 699.348,460.227 "/>
<polyline clip-path="url(#clip540)" style="stroke:#000000; stroke-linecap:round; stroke-linejoin:round; stroke-width:8; stroke-opacity:1; fill:none" points="680.45,162.984 699.348,162.984 "/>
<path clip-path="url(#clip540)" d="M397.507 1081.4 L430.146 1081.4 L430.146 1089.27 L386.257 1089.27 L386.257 1081.4 Q391.581 1075.89 400.748 1066.63 Q409.961 1057.33 412.322 1054.64 Q416.813 1049.6 418.572 1046.13 Q420.378 1042.61 420.378 1039.23 Q420.378 1033.72 416.489 1030.25 Q412.646 1026.77 406.442 1026.77 Q402.044 1026.77 397.137 1028.3 Q392.276 1029.83 386.72 1032.93 L386.72 1023.49 Q392.368 1021.22 397.276 1020.06 Q402.183 1018.9 406.257 1018.9 Q416.998 1018.9 423.387 1024.27 Q429.776 1029.64 429.776 1038.63 Q429.776 1042.88 428.155 1046.73 Q426.581 1050.52 422.368 1055.71 Q421.211 1057.05 415.007 1063.49 Q408.803 1069.87 397.507 1081.4 Z" fill="#000000" fill-rule="nonzero" fill-opacity="1" /><path clip-path="url(#clip540)" d="M469.775 1026.31 Q462.553 1026.31 458.896 1033.44 Q455.285 1040.52 455.285 1054.78 Q455.285 1069 458.896 1076.12 Q462.553 1083.21 469.775 1083.21 Q477.044 1083.21 480.655 1076.12 Q484.312 1069 484.312 1054.78 Q484.312 1040.52 480.655 1033.44 Q477.044 1026.31 469.775 1026.31 M469.775 1018.9 Q481.396 1018.9 487.507 1028.12 Q493.664 1037.28 493.664 1054.78 Q493.664 1072.24 487.507 1081.45 Q481.396 1090.62 469.775 1090.62 Q458.155 1090.62 451.998 1081.45 Q445.887 1072.24 445.887 1054.78 Q445.887 1037.28 451.998 1028.12 Q458.155 1018.9 469.775 1018.9 Z" fill="#000000" fill-rule="nonzero" fill-opacity="1" /><path clip-path="url(#clip540)" d="M530.099 1026.31 Q522.877 1026.31 519.22 1033.44 Q515.608 1040.52 515.608 1054.78 Q515.608 1069 519.22 1076.12 Q522.877 1083.21 530.099 1083.21 Q537.368 1083.21 540.979 1076.12 Q544.636 1069 544.636 1054.78 Q544.636 1040.52 540.979 1033.44 Q537.368 1026.31 530.099 1026.31 M530.099 1018.9 Q541.719 1018.9 547.831 1028.12 Q553.988 1037.28 553.988 1054.78 Q553.988 1072.24 547.831 1081.45 Q541.719 1090.62 530.099 1090.62 Q518.479 1090.62 512.321 1081.45 Q506.21 1072.24 506.21 1054.78 Q506.21 1037.28 512.321 1028.12 Q518.479 1018.9 530.099 1018.9 Z" fill="#000000" fill-rule="nonzero" fill-opacity="1" /><path clip-path="url(#clip540)" d="M570.423 1077.51 L580.191 1077.51 L580.191 1089.27 L570.423 1089.27 L570.423 1077.51 Z" fill="#000000" fill-rule="nonzero" fill-opacity="1" /><path clip-path="url(#clip540)" d="M620.562 1026.31 Q613.339 1026.31 609.682 1033.44 Q606.071 1040.52 606.071 1054.78 Q606.071 1069 609.682 1076.12 Q613.339 1083.21 620.562 1083.21 Q627.83 1083.21 631.441 1076.12 Q635.099 1069 635.099 1054.78 Q635.099 1040.52 631.441 1033.44 Q627.83 1026.31 620.562 1026.31 M620.562 1018.9 Q632.182 1018.9 638.293 1028.12 Q644.45 1037.28 644.45 1054.78 Q644.45 1072.24 638.293 1081.45 Q632.182 1090.62 620.562 1090.62 Q608.941 1090.62 602.784 1081.45 Q596.673 1072.24 596.673 1054.78 Q596.673 1037.28 602.784 1028.12 Q608.941 1018.9 620.562 1018.9 Z" fill="#000000" fill-rule="nonzero" fill-opacity="1" /><path clip-path="url(#clip540)" d="M397.507 784.16 L430.146 784.16 L430.146 792.03 L386.257 792.03 L386.257 784.16 Q391.581 778.65 400.748 769.391 Q409.961 760.086 412.322 757.4 Q416.813 752.354 418.572 748.882 Q420.378 745.363 420.378 741.984 Q420.378 736.475 416.489 733.002 Q412.646 729.53 406.442 729.53 Q402.044 729.53 397.137 731.058 Q392.276 732.586 386.72 735.688 L386.72 726.243 Q392.368 723.975 397.276 722.817 Q402.183 721.66 406.257 721.66 Q416.998 721.66 423.387 727.03 Q429.776 732.401 429.776 741.382 Q429.776 745.641 428.155 749.484 Q426.581 753.28 422.368 758.465 Q421.211 759.808 415.007 766.243 Q408.803 772.632 397.507 784.16 Z" fill="#000000" fill-rule="nonzero" fill-opacity="1" /><path clip-path="url(#clip540)" d="M449.868 722.91 L486.581 722.91 L486.581 730.78 L458.433 730.78 L458.433 747.725 Q460.47 747.03 462.507 746.706 Q464.544 746.336 466.581 746.336 Q478.155 746.336 484.914 752.678 Q491.673 759.021 491.673 769.854 Q491.673 781.011 484.729 787.215 Q477.785 793.372 465.146 793.372 Q460.794 793.372 456.257 792.632 Q451.766 791.891 446.951 790.409 L446.951 781.011 Q451.118 783.28 455.562 784.391 Q460.007 785.502 464.961 785.502 Q472.97 785.502 477.646 781.289 Q482.322 777.076 482.322 769.854 Q482.322 762.632 477.646 758.419 Q472.97 754.206 464.961 754.206 Q461.211 754.206 457.461 755.039 Q453.757 755.873 449.868 757.632 L449.868 722.91 Z" fill="#000000" fill-rule="nonzero" fill-opacity="1" /><path clip-path="url(#clip540)" d="M530.099 729.067 Q522.877 729.067 519.22 736.197 Q515.608 743.28 515.608 757.539 Q515.608 771.752 519.22 778.882 Q522.877 785.965 530.099 785.965 Q537.368 785.965 540.979 778.882 Q544.636 771.752 544.636 757.539 Q544.636 743.28 540.979 736.197 Q537.368 729.067 530.099 729.067 M530.099 721.66 Q541.719 721.66 547.831 730.873 Q553.988 740.039 553.988 757.539 Q553.988 774.993 547.831 784.206 Q541.719 793.372 530.099 793.372 Q518.479 793.372 512.321 784.206 Q506.21 774.993 506.21 757.539 Q506.21 740.039 512.321 730.873 Q518.479 721.66 530.099 721.66 Z" fill="#000000" fill-rule="nonzero" fill-opacity="1" /><path clip-path="url(#clip540)" d="M570.423 780.271 L580.191 780.271 L580.191 792.03 L570.423 792.03 L570.423 780.271 Z" fill="#000000" fill-rule="nonzero" fill-opacity="1" /><path clip-path="url(#clip540)" d="M620.562 729.067 Q613.339 729.067 609.682 736.197 Q606.071 743.28 606.071 757.539 Q606.071 771.752 609.682 778.882 Q613.339 785.965 620.562 785.965 Q627.83 785.965 631.441 778.882 Q635.099 771.752 635.099 757.539 Q635.099 743.28 631.441 736.197 Q627.83 729.067 620.562 729.067 M620.562 721.66 Q632.182 721.66 638.293 730.873 Q644.45 740.039 644.45 757.539 Q644.45 774.993 638.293 784.206 Q632.182 793.372 620.562 793.372 Q608.941 793.372 602.784 784.206 Q596.673 774.993 596.673 757.539 Q596.673 740.039 602.784 730.873 Q608.941 721.66 620.562 721.66 Z" fill="#000000" fill-rule="nonzero" fill-opacity="1" /><path clip-path="url(#clip540)" d="M417.785 457.518 Q424.498 458.954 428.248 463.491 Q432.044 468.028 432.044 474.694 Q432.044 484.926 425.007 490.527 Q417.97 496.129 405.007 496.129 Q400.655 496.129 396.026 495.25 Q391.442 494.416 386.535 492.703 L386.535 483.676 Q390.424 485.944 395.054 487.102 Q399.683 488.259 404.729 488.259 Q413.526 488.259 418.109 484.787 Q422.739 481.315 422.739 474.694 Q422.739 468.583 418.433 465.157 Q414.174 461.685 406.535 461.685 L398.479 461.685 L398.479 454 L406.905 454 Q413.803 454 417.461 451.268 Q421.118 448.491 421.118 443.305 Q421.118 437.981 417.322 435.157 Q413.572 432.287 406.535 432.287 Q402.692 432.287 398.294 433.12 Q393.896 433.954 388.618 435.713 L388.618 427.38 Q393.942 425.898 398.572 425.157 Q403.248 424.417 407.368 424.417 Q418.016 424.417 424.22 429.278 Q430.424 434.093 430.424 442.333 Q430.424 448.074 427.137 452.055 Q423.85 455.991 417.785 457.518 Z" fill="#000000" fill-rule="nonzero" fill-opacity="1" /><path clip-path="url(#clip540)" d="M469.775 431.824 Q462.553 431.824 458.896 438.954 Q455.285 446.037 455.285 460.296 Q455.285 474.509 458.896 481.639 Q462.553 488.722 469.775 488.722 Q477.044 488.722 480.655 481.639 Q484.312 474.509 484.312 460.296 Q484.312 446.037 480.655 438.954 Q477.044 431.824 469.775 431.824 M469.775 424.417 Q481.396 424.417 487.507 433.63 Q493.664 442.796 493.664 460.296 Q493.664 477.75 487.507 486.963 Q481.396 496.129 469.775 496.129 Q458.155 496.129 451.998 486.963 Q445.887 477.75 445.887 460.296 Q445.887 442.796 451.998 433.63 Q458.155 424.417 469.775 424.417 Z" fill="#000000" fill-rule="nonzero" fill-opacity="1" /><path clip-path="url(#clip540)" d="M530.099 431.824 Q522.877 431.824 519.22 438.954 Q515.608 446.037 515.608 460.296 Q515.608 474.509 519.22 481.639 Q522.877 488.722 530.099 488.722 Q537.368 488.722 540.979 481.639 Q544.636 474.509 544.636 460.296 Q544.636 446.037 540.979 438.954 Q537.368 431.824 530.099 431.824 M530.099 424.417 Q541.719 424.417 547.831 433.63 Q553.988 442.796 553.988 460.296 Q553.988 477.75 547.831 486.963 Q541.719 496.129 530.099 496.129 Q518.479 496.129 512.321 486.963 Q506.21 477.75 506.21 460.296 Q506.21 442.796 512.321 433.63 Q518.479 424.417 530.099 424.417 Z" fill="#000000" fill-rule="nonzero" fill-opacity="1" /><path clip-path="url(#clip540)" d="M570.423 483.027 L580.191 483.027 L580.191 494.787 L570.423 494.787 L570.423 483.027 Z" fill="#000000" fill-rule="nonzero" fill-opacity="1" /><path clip-path="url(#clip540)" d="M620.562 431.824 Q613.339 431.824 609.682 438.954 Q606.071 446.037 606.071 460.296 Q606.071 474.509 609.682 481.639 Q613.339 488.722 620.562 488.722 Q627.83 488.722 631.441 481.639 Q635.099 474.509 635.099 460.296 Q635.099 446.037 631.441 438.954 Q627.83 431.824 620.562 431.824 M620.562 424.417 Q632.182 424.417 638.293 433.63 Q644.45 442.796 644.45 460.296 Q644.45 477.75 638.293 486.963 Q632.182 496.129 620.562 496.129 Q608.941 496.129 602.784 486.963 Q596.673 477.75 596.673 460.296 Q596.673 442.796 602.784 433.63 Q608.941 424.417 620.562 424.417 Z" fill="#000000" fill-rule="nonzero" fill-opacity="1" /><path clip-path="url(#clip540)" d="M417.785 160.275 Q424.498 161.71 428.248 166.247 Q432.044 170.784 432.044 177.451 Q432.044 187.682 425.007 193.284 Q417.97 198.886 405.007 198.886 Q400.655 198.886 396.026 198.006 Q391.442 197.173 386.535 195.46 L386.535 186.432 Q390.424 188.701 395.054 189.858 Q399.683 191.016 404.729 191.016 Q413.526 191.016 418.109 187.544 Q422.739 184.071 422.739 177.451 Q422.739 171.34 418.433 167.914 Q414.174 164.442 406.535 164.442 L398.479 164.442 L398.479 156.757 L406.905 156.757 Q413.803 156.757 417.461 154.025 Q421.118 151.247 421.118 146.062 Q421.118 140.738 417.322 137.914 Q413.572 135.044 406.535 135.044 Q402.692 135.044 398.294 135.877 Q393.896 136.711 388.618 138.47 L388.618 130.136 Q393.942 128.655 398.572 127.914 Q403.248 127.174 407.368 127.174 Q418.016 127.174 424.22 132.035 Q430.424 136.849 430.424 145.09 Q430.424 150.831 427.137 154.812 Q423.85 158.747 417.785 160.275 Z" fill="#000000" fill-rule="nonzero" fill-opacity="1" /><path clip-path="url(#clip540)" d="M449.868 128.424 L486.581 128.424 L486.581 136.294 L458.433 136.294 L458.433 153.238 Q460.47 152.544 462.507 152.22 Q464.544 151.849 466.581 151.849 Q478.155 151.849 484.914 158.192 Q491.673 164.534 491.673 175.368 Q491.673 186.525 484.729 192.729 Q477.785 198.886 465.146 198.886 Q460.794 198.886 456.257 198.145 Q451.766 197.405 446.951 195.923 L446.951 186.525 Q451.118 188.794 455.562 189.905 Q460.007 191.016 464.961 191.016 Q472.97 191.016 477.646 186.803 Q482.322 182.59 482.322 175.368 Q482.322 168.146 477.646 163.933 Q472.97 159.72 464.961 159.72 Q461.211 159.72 457.461 160.553 Q453.757 161.386 449.868 163.146 L449.868 128.424 Z" fill="#000000" fill-rule="nonzero" fill-opacity="1" /><path clip-path="url(#clip540)" d="M530.099 134.581 Q522.877 134.581 519.22 141.71 Q515.608 148.794 515.608 163.053 Q515.608 177.266 519.22 184.395 Q522.877 191.479 530.099 191.479 Q537.368 191.479 540.979 184.395 Q544.636 177.266 544.636 163.053 Q544.636 148.794 540.979 141.71 Q537.368 134.581 530.099 134.581 M530.099 127.174 Q541.719 127.174 547.831 136.386 Q553.988 145.553 553.988 163.053 Q553.988 180.507 547.831 189.719 Q541.719 198.886 530.099 198.886 Q518.479 198.886 512.321 189.719 Q506.21 180.507 506.21 163.053 Q506.21 145.553 512.321 136.386 Q518.479 127.174 530.099 127.174 Z" fill="#000000" fill-rule="nonzero" fill-opacity="1" /><path clip-path="url(#clip540)" d="M570.423 185.784 L580.191 185.784 L580.191 197.544 L570.423 197.544 L570.423 185.784 Z" fill="#000000" fill-rule="nonzero" fill-opacity="1" /><path clip-path="url(#clip540)" d="M620.562 134.581 Q613.339 134.581 609.682 141.71 Q606.071 148.794 606.071 163.053 Q606.071 177.266 609.682 184.395 Q613.339 191.479 620.562 191.479 Q627.83 191.479 631.441 184.395 Q635.099 177.266 635.099 163.053 Q635.099 148.794 631.441 141.71 Q627.83 134.581 620.562 134.581 M620.562 127.174 Q632.182 127.174 638.293 136.386 Q644.45 145.553 644.45 163.053 Q644.45 180.507 638.293 189.719 Q632.182 198.886 620.562 198.886 Q608.941 198.886 602.784 189.719 Q596.673 180.507 596.673 163.053 Q596.673 145.553 602.784 136.386 Q608.941 127.174 620.562 127.174 Z" fill="#000000" fill-rule="nonzero" fill-opacity="1" /><path clip-path="url(#clip540)" d="M311.051 930.89 L348.863 930.89 L348.863 942.667 L250.449 942.667 L250.449 930.89 L261.271 930.89 Q254.905 927.198 251.85 921.596 Q248.731 915.931 248.731 908.101 Q248.731 895.115 259.043 887.031 Q269.356 878.883 286.161 878.883 Q302.966 878.883 313.279 887.031 Q323.591 895.115 323.591 908.101 Q323.591 915.931 320.536 921.596 Q317.417 927.198 311.051 930.89 M286.161 891.041 Q273.239 891.041 265.918 896.388 Q258.534 901.672 258.534 910.966 Q258.534 920.26 265.918 925.607 Q273.239 930.89 286.161 930.89 Q299.083 930.89 306.468 925.607 Q313.788 920.26 313.788 910.966 Q313.788 901.672 306.468 896.388 Q299.083 891.041 286.161 891.041 Z" fill="#000000" fill-rule="nonzero" fill-opacity="1" /><path clip-path="url(#clip540)" d="M285.906 827.066 Q285.906 841.261 289.153 846.736 Q292.399 852.21 300.229 852.21 Q306.468 852.21 310.16 848.136 Q313.788 843.999 313.788 836.933 Q313.788 827.193 306.913 821.337 Q299.975 815.416 288.516 815.416 L285.906 815.416 L285.906 827.066 M281.068 803.704 L321.745 803.704 L321.745 815.416 L310.924 815.416 Q317.417 819.427 320.536 825.411 Q323.591 831.394 323.591 840.052 Q323.591 851.001 317.48 857.494 Q311.306 863.923 300.993 863.923 Q288.962 863.923 282.851 855.902 Q276.74 847.818 276.74 831.84 L276.74 815.416 L275.594 815.416 Q267.509 815.416 263.117 820.764 Q258.661 826.047 258.661 835.659 Q258.661 841.771 260.125 847.563 Q261.589 853.356 264.518 858.703 L253.696 858.703 Q251.213 852.274 250.004 846.227 Q248.731 840.179 248.731 834.45 Q248.731 818.981 256.751 811.342 Q264.772 803.704 281.068 803.704 Z" fill="#000000" fill-rule="nonzero" fill-opacity="1" /><path clip-path="url(#clip540)" d="M261.398 738.264 Q260.253 740.238 259.743 742.593 Q259.17 744.884 259.17 747.685 Q259.17 757.616 265.663 762.963 Q272.093 768.247 284.188 768.247 L321.745 768.247 L321.745 780.023 L250.449 780.023 L250.449 768.247 L261.526 768.247 Q255.033 764.555 251.914 758.634 Q248.731 752.714 248.731 744.248 Q248.731 743.038 248.922 741.574 Q249.049 740.11 249.367 738.328 L261.398 738.264 Z" fill="#000000" fill-rule="nonzero" fill-opacity="1" /><path clip-path="url(#clip540)" d="M283.169 667.859 L288.898 667.859 L288.898 721.713 Q300.993 720.949 307.359 714.456 Q313.661 707.9 313.661 696.25 Q313.661 689.503 312.006 683.201 Q310.351 676.835 307.041 670.597 L318.117 670.597 Q320.79 676.899 322.191 683.519 Q323.591 690.139 323.591 696.951 Q323.591 714.011 313.661 724.005 Q303.73 733.935 286.798 733.935 Q269.292 733.935 259.043 724.514 Q248.731 715.029 248.731 698.988 Q248.731 684.601 258.025 676.262 Q267.255 667.859 283.169 667.859 M279.732 679.572 Q270.119 679.7 264.39 684.983 Q258.661 690.203 258.661 698.86 Q258.661 708.664 264.199 714.584 Q269.737 720.44 279.795 721.331 L279.732 679.572 Z" fill="#000000" fill-rule="nonzero" fill-opacity="1" /><path clip-path="url(#clip540)" d="M278.713 589.37 L321.745 589.37 L321.745 601.083 L279.095 601.083 Q268.974 601.083 263.945 605.03 Q258.916 608.977 258.916 616.87 Q258.916 626.355 264.963 631.83 Q271.011 637.304 281.45 637.304 L321.745 637.304 L321.745 649.081 L250.449 649.081 L250.449 637.304 L261.526 637.304 Q255.096 633.103 251.914 627.437 Q248.731 621.708 248.731 614.26 Q248.731 601.974 256.37 595.672 Q263.945 589.37 278.713 589.37 Z" fill="#000000" fill-rule="nonzero" fill-opacity="1" /><path clip-path="url(#clip540)" d="M305.576 564.353 L305.576 550.921 L321.745 550.921 L321.745 564.353 L305.576 564.353 Z" fill="#000000" fill-rule="nonzero" fill-opacity="1" /><path clip-path="url(#clip540)" d="M310.924 470.395 L310.924 425.517 L321.745 425.517 L321.745 485.864 L310.924 485.864 Q303.348 478.543 290.617 465.939 Q277.822 453.271 274.13 450.025 Q267.191 443.85 262.417 441.431 Q257.579 438.949 252.932 438.949 Q245.357 438.949 240.583 444.296 Q235.808 449.579 235.808 458.109 Q235.808 464.157 237.909 470.904 Q240.01 477.588 244.275 485.227 L231.289 485.227 Q228.169 477.461 226.578 470.713 Q224.987 463.966 224.987 458.364 Q224.987 443.596 232.371 434.811 Q239.755 426.026 252.104 426.026 Q257.961 426.026 263.244 428.254 Q268.464 430.419 275.594 436.211 Q277.44 437.803 286.288 446.333 Q295.073 454.863 310.924 470.395 Z" fill="#000000" fill-rule="nonzero" fill-opacity="1" /><polyline clip-path="url(#clip542)" style="stroke:#008000; stroke-linecap:round; stroke-linejoin:round; stroke-width:8; stroke-opacity:1; fill:none" points="726.443,127.862 865.813,208.186 1005.18,325.431 1144.55,408.847 1283.93,493.038 1423.3,639.469 1562.67,732.549 1702.04,777.084 1841.41,909.443 1980.78,932.322 2120.15,933.812 2259.52,950.314 "/>
<circle clip-path="url(#clip542)" cx="726.443" cy="127.862" r="14.4" fill="#008000" fill-rule="evenodd" fill-opacity="1" stroke="#000000" stroke-opacity="1" stroke-width="6.4"/>
<circle clip-path="url(#clip542)" cx="865.813" cy="208.186" r="14.4" fill="#008000" fill-rule="evenodd" fill-opacity="1" stroke="#000000" stroke-opacity="1" stroke-width="6.4"/>
<circle clip-path="url(#clip542)" cx="1005.18" cy="325.431" r="14.4" fill="#008000" fill-rule="evenodd" fill-opacity="1" stroke="#000000" stroke-opacity="1" stroke-width="6.4"/>
<circle clip-path="url(#clip542)" cx="1144.55" cy="408.847" r="14.4" fill="#008000" fill-rule="evenodd" fill-opacity="1" stroke="#000000" stroke-opacity="1" stroke-width="6.4"/>
<circle clip-path="url(#clip542)" cx="1283.93" cy="493.038" r="14.4" fill="#008000" fill-rule="evenodd" fill-opacity="1" stroke="#000000" stroke-opacity="1" stroke-width="6.4"/>
<circle clip-path="url(#clip542)" cx="1423.3" cy="639.469" r="14.4" fill="#008000" fill-rule="evenodd" fill-opacity="1" stroke="#000000" stroke-opacity="1" stroke-width="6.4"/>
<circle clip-path="url(#clip542)" cx="1562.67" cy="732.549" r="14.4" fill="#008000" fill-rule="evenodd" fill-opacity="1" stroke="#000000" stroke-opacity="1" stroke-width="6.4"/>
<circle clip-path="url(#clip542)" cx="1702.04" cy="777.084" r="14.4" fill="#008000" fill-rule="evenodd" fill-opacity="1" stroke="#000000" stroke-opacity="1" stroke-width="6.4"/>
<circle clip-path="url(#clip542)" cx="1841.41" cy="909.443" r="14.4" fill="#008000" fill-rule="evenodd" fill-opacity="1" stroke="#000000" stroke-opacity="1" stroke-width="6.4"/>
<circle clip-path="url(#clip542)" cx="1980.78" cy="932.322" r="14.4" fill="#008000" fill-rule="evenodd" fill-opacity="1" stroke="#000000" stroke-opacity="1" stroke-width="6.4"/>
<circle clip-path="url(#clip542)" cx="2120.15" cy="933.812" r="14.4" fill="#008000" fill-rule="evenodd" fill-opacity="1" stroke="#000000" stroke-opacity="1" stroke-width="6.4"/>
<circle clip-path="url(#clip542)" cx="2259.52" cy="950.314" r="14.4" fill="#008000" fill-rule="evenodd" fill-opacity="1" stroke="#000000" stroke-opacity="1" stroke-width="6.4"/>
<polyline clip-path="url(#clip542)" style="stroke:#00008b; stroke-linecap:round; stroke-linejoin:round; stroke-width:8; stroke-opacity:1; fill:none" points="726.443,234.573 865.813,417.982 1005.18,548.932 1144.55,649.04 1283.93,746.057 1423.3,825.272 1562.67,901.738 1702.04,966.037 1841.41,1022.74 1980.78,1079.55 2120.15,1126.36 2259.52,1175.07 "/>
<path clip-path="url(#clip542)" d="M726.443 295.689 L865.813 478.292 L1005.18 613.266 L1144.55 714.176 L1283.93 808.726 L1423.3 885.023 L1562.67 965.238 L1702.04 1029.82 L1841.41 1080.96 L1980.78 1142.05 L2120.15 1188.32 L2259.52 1240.32 L2259.52 1115.03 L2120.15 1065.23 L1980.78 1017.2 L1841.41 962.734 L1702.04 903.946 L1562.67 840.173 L1423.3 766.775 L1283.93 681.853 L1144.55 587.669 L1005.18 488.825 L865.813 355.387 L726.443 173.843  Z" fill="#0000ff" fill-rule="evenodd" fill-opacity="0.1"/>
<polyline clip-path="url(#clip542)" style="stroke:#0000ff; stroke-linecap:round; stroke-linejoin:round; stroke-width:0; stroke-opacity:0.1; fill:none" points="726.443,295.689 865.813,478.292 1005.18,613.266 1144.55,714.176 1283.93,808.726 1423.3,885.023 1562.67,965.238 1702.04,1029.82 1841.41,1080.96 1980.78,1142.05 2120.15,1188.32 2259.52,1240.32 "/>
</svg>
