<?xml version="1.0" encoding="utf-8"?>
<svg xmlns="http://www.w3.org/2000/svg" xmlns:xlink="http://www.w3.org/1999/xlink" width="600" height="400" viewBox="0 0 2400 1600">
<defs>
  <clipPath id="clip000">
    <rect x="0" y="0" width="2400" height="1600"/>
  </clipPath>
</defs>
<path clip-path="url(#clip000)" d="M0 1600 L2400 1600 L2400 0 L0 0  Z" fill="#ffffff" fill-rule="evenodd" fill-opacity="1"/>
<defs>
  <clipPath id="clip001">
    <rect x="480" y="0" width="1681" height="1600"/>
  </clipPath>
</defs>
<path clip-path="url(#clip000)" d="M680.45 1273.7 L2305.51 1273.7 L2305.51 94.4882 L680.45 94.4882  Z" fill="#ffffff" fill-rule="evenodd" fill-opacity="1"/>
<defs>
  <clipPath id="clip002">
    <rect x="680" y="94" width="1626" height="1180"/>
  </clipPath>
</defs>
<polyline clip-path="url(#clip002)" style="stroke:#000000; stroke-linecap:round; stroke-linejoin:round; stroke-width:4; stroke-opacity:0.1; fill:none" points="726.443,1273.7 726.443,94.4882 "/>
<polyline clip-path="url(#clip002)" style="stroke:#000000; stroke-linecap:round; stroke-linejoin:round; stroke-width:4; stroke-opacity:0.1; fill:none" points="1074.87,1273.7 1074.87,94.4882 "/>
<polyline clip-path="url(#clip002)" style="stroke:#000000; stroke-linecap:round; stroke-linejoin:round; stroke-width:4; stroke-opacity:0.1; fill:none" points="1423.3,1273.7 1423.3,94.4882 "/>
<polyline clip-path="url(#clip002)" style="stroke:#000000; stroke-linecap:round; stroke-linejoin:round; stroke-width:4; stroke-opacity:0.1; fill:none" points="1771.72,1273.7 1771.72,94.4882 "/>
<polyline clip-path="url(#clip002)" style="stroke:#000000; stroke-linecap:round; stroke-linejoin:round; stroke-width:4; stroke-opacity:0.1; fill:none" points="2120.15,1273.7 2120.15,94.4882 "/>
<polyline clip-path="url(#clip000)" style="stroke:#000000; stroke-linecap:round; stroke-linejoin:round; stroke-width:8; stroke-opacity:1; fill:none" points="680.45,1273.7 2305.51,1273.7 "/>
<polyline clip-path="url(#clip000)" style="stroke:#000000; stroke-linecap:round; stroke-linejoin:round; stroke-width:8; stroke-opacity:1; fill:none" points="726.443,1273.7 726.443,1254.8 "/>
<polyline clip-path="url(#clip000)" style="stroke:#000000; stroke-linecap:round; stroke-linejoin:round; stroke-width:8; stroke-opacity:1; fill:none" points="1074.87,1273.7 1074.87,1254.8 "/>
<polyline clip-path="url(#clip000)" style="stroke:#000000; stroke-linecap:round; stroke-linejoin:round; stroke-width:8; stroke-opacity:1; fill:none" points="1423.3,1273.7 1423.3,1254.8 "/>
<polyline clip-path="url(#clip000)" style="stroke:#000000; stroke-linecap:round; stroke-linejoin:round; stroke-width:8; stroke-opacity:1; fill:none" points="1771.72,1273.7 1771.72,1254.8 "/>
<polyline clip-path="url(#clip000)" style="stroke:#000000; stroke-linecap:round; stroke-linejoin:round; stroke-width:8; stroke-opacity:1; fill:none" points="2120.15,1273.7 2120.15,1254.8 "/>
<path clip-path="url(#clip000)" d="M651.05 1316.33 Q643.827 1316.33 640.17 1323.46 Q636.559 1330.55 636.559 1344.81 Q636.559 1359.02 640.17 1366.15 Q643.827 1373.23 651.05 1373.23 Q658.318 1373.23 661.929 1366.15 Q665.587 1359.02 665.587 1344.81 Q665.587 1330.55 661.929 1323.46 Q658.318 1316.33 651.05 1316.33 M651.05 1308.93 Q662.67 1308.93 668.781 1318.14 Q674.938 1327.31 674.938 1344.81 Q674.938 1362.26 668.781 1371.47 Q662.67 1380.64 651.05 1380.64 Q639.429 1380.64 633.272 1371.47 Q627.161 1362.26 627.161 1344.81 Q627.161 1327.31 633.272 1318.14 Q639.429 1308.93 651.05 1308.93 Z" fill="#000000" fill-rule="nonzero" fill-opacity="1" /><path clip-path="url(#clip000)" d="M691.373 1367.54 L701.142 1367.54 L701.142 1379.3 L691.373 1379.3 L691.373 1367.54 Z" fill="#000000" fill-rule="nonzero" fill-opacity="1" /><path clip-path="url(#clip000)" d="M741.512 1316.33 Q734.29 1316.33 730.632 1323.46 Q727.021 1330.55 727.021 1344.81 Q727.021 1359.02 730.632 1366.15 Q734.29 1373.23 741.512 1373.23 Q748.781 1373.23 752.392 1366.15 Q756.049 1359.02 756.049 1344.81 Q756.049 1330.55 752.392 1323.46 Q748.781 1316.33 741.512 1316.33 M741.512 1308.93 Q753.132 1308.93 759.243 1318.14 Q765.401 1327.31 765.401 1344.81 Q765.401 1362.26 759.243 1371.47 Q753.132 1380.64 741.512 1380.64 Q729.892 1380.64 723.734 1371.47 Q717.623 1362.26 717.623 1344.81 Q717.623 1327.31 723.734 1318.14 Q729.892 1308.93 741.512 1308.93 Z" fill="#000000" fill-rule="nonzero" fill-opacity="1" /><path clip-path="url(#clip000)" d="M801.836 1316.33 Q794.614 1316.33 790.956 1323.46 Q787.345 1330.55 787.345 1344.81 Q787.345 1359.02 790.956 1366.15 Q794.614 1373.23 801.836 1373.23 Q809.104 1373.23 812.715 1366.15 Q816.373 1359.02 816.373 1344.81 Q816.373 1330.55 812.715 1323.46 Q809.104 1316.33 801.836 1316.33 M801.836 1308.93 Q813.456 1308.93 819.567 1318.14 Q825.725 1327.31 825.725 1344.81 Q825.725 1362.26 819.567 1371.47 Q813.456 1380.64 801.836 1380.64 Q790.215 1380.64 784.058 1371.47 Q777.947 1362.26 777.947 1344.81 Q777.947 1327.31 784.058 1318.14 Q790.215 1308.93 801.836 1308.93 Z" fill="#000000" fill-rule="nonzero" fill-opacity="1" /><path clip-path="url(#clip000)" d="M1000.47 1316.33 Q993.249 1316.33 989.592 1323.46 Q985.981 1330.55 985.981 1344.81 Q985.981 1359.02 989.592 1366.15 Q993.249 1373.23 1000.47 1373.23 Q1007.74 1373.23 1011.35 1366.15 Q1015.01 1359.02 1015.01 1344.81 Q1015.01 1330.55 1011.35 1323.46 Q1007.74 1316.33 1000.47 1316.33 M1000.47 1308.93 Q1012.09 1308.93 1018.2 1318.14 Q1024.36 1327.31 1024.36 1344.81 Q1024.36 1362.26 1018.2 1371.47 Q1012.09 1380.64 1000.47 1380.64 Q988.851 1380.64 982.694 1371.47 Q976.583 1362.26 976.583 1344.81 Q976.583 1327.31 982.694 1318.14 Q988.851 1308.93 1000.47 1308.93 Z" fill="#000000" fill-rule="nonzero" fill-opacity="1" /><path clip-path="url(#clip000)" d="M1040.8 1367.54 L1050.56 1367.54 L1050.56 1379.3 L1040.8 1379.3 L1040.8 1367.54 Z" fill="#000000" fill-rule="nonzero" fill-opacity="1" /><path clip-path="url(#clip000)" d="M1078.99 1371.43 L1111.63 1371.43 L1111.63 1379.3 L1067.74 1379.3 L1067.74 1371.43 Q1073.06 1365.92 1082.23 1356.66 Q1091.44 1347.35 1093.8 1344.67 Q1098.3 1339.62 1100.05 1336.15 Q1101.86 1332.63 1101.86 1329.25 Q1101.86 1323.74 1097.97 1320.27 Q1094.13 1316.8 1087.92 1316.8 Q1083.53 1316.8 1078.62 1318.32 Q1073.76 1319.85 1068.2 1322.95 L1068.2 1313.51 Q1073.85 1311.24 1078.76 1310.08 Q1083.67 1308.93 1087.74 1308.93 Q1098.48 1308.93 1104.87 1314.3 Q1111.26 1319.67 1111.26 1328.65 Q1111.26 1332.91 1109.64 1336.75 Q1108.06 1340.55 1103.85 1345.73 Q1102.69 1347.07 1096.49 1353.51 Q1090.29 1359.9 1078.99 1371.43 Z" fill="#000000" fill-rule="nonzero" fill-opacity="1" /><path clip-path="url(#clip000)" d="M1131.35 1310.18 L1168.06 1310.18 L1168.06 1318.05 L1139.92 1318.05 L1139.92 1334.99 Q1141.95 1334.3 1143.99 1333.97 Q1146.03 1333.6 1148.06 1333.6 Q1159.64 1333.6 1166.4 1339.94 Q1173.16 1346.29 1173.16 1357.12 Q1173.16 1368.28 1166.21 1374.48 Q1159.27 1380.64 1146.63 1380.64 Q1142.28 1380.64 1137.74 1379.9 Q1133.25 1379.16 1128.43 1377.68 L1128.43 1368.28 Q1132.6 1370.55 1137.04 1371.66 Q1141.49 1372.77 1146.44 1372.77 Q1154.45 1372.77 1159.13 1368.56 Q1163.8 1364.34 1163.8 1357.12 Q1163.8 1349.9 1159.13 1345.68 Q1154.45 1341.47 1146.44 1341.47 Q1142.69 1341.47 1138.94 1342.31 Q1135.24 1343.14 1131.35 1344.9 L1131.35 1310.18 Z" fill="#000000" fill-rule="nonzero" fill-opacity="1" /><path clip-path="url(#clip000)" d="M1347.9 1316.33 Q1340.68 1316.33 1337.02 1323.46 Q1333.41 1330.55 1333.41 1344.81 Q1333.41 1359.02 1337.02 1366.15 Q1340.68 1373.23 1347.9 1373.23 Q1355.17 1373.23 1358.78 1366.15 Q1362.44 1359.02 1362.44 1344.81 Q1362.44 1330.55 1358.78 1323.46 Q1355.17 1316.33 1347.9 1316.33 M1347.9 1308.93 Q1359.52 1308.93 1365.63 1318.14 Q1371.79 1327.31 1371.79 1344.81 Q1371.79 1362.26 1365.63 1371.47 Q1359.52 1380.64 1347.9 1380.64 Q1336.28 1380.64 1330.12 1371.47 Q1324.01 1362.26 1324.01 1344.81 Q1324.01 1327.31 1330.12 1318.14 Q1336.28 1308.93 1347.9 1308.93 Z" fill="#000000" fill-rule="nonzero" fill-opacity="1" /><path clip-path="url(#clip000)" d="M1388.23 1367.54 L1397.99 1367.54 L1397.99 1379.3 L1388.23 1379.3 L1388.23 1367.54 Z" fill="#000000" fill-rule="nonzero" fill-opacity="1" /><path clip-path="url(#clip000)" d="M1418.46 1310.18 L1455.17 1310.18 L1455.17 1318.05 L1427.02 1318.05 L1427.02 1334.99 Q1429.06 1334.3 1431.1 1333.97 Q1433.13 1333.6 1435.17 1333.6 Q1446.74 1333.6 1453.5 1339.94 Q1460.26 1346.29 1460.26 1357.12 Q1460.26 1368.28 1453.32 1374.48 Q1446.37 1380.64 1433.74 1380.64 Q1429.38 1380.64 1424.85 1379.9 Q1420.36 1379.16 1415.54 1377.68 L1415.54 1368.28 Q1419.71 1370.55 1424.15 1371.66 Q1428.6 1372.77 1433.55 1372.77 Q1441.56 1372.77 1446.24 1368.56 Q1450.91 1364.34 1450.91 1357.12 Q1450.91 1349.9 1446.24 1345.68 Q1441.56 1341.47 1433.55 1341.47 Q1429.8 1341.47 1426.05 1342.31 Q1422.35 1343.14 1418.46 1344.9 L1418.46 1310.18 Z" fill="#000000" fill-rule="nonzero" fill-opacity="1" /><path clip-path="url(#clip000)" d="M1498.69 1316.33 Q1491.47 1316.33 1487.81 1323.46 Q1484.2 1330.55 1484.2 1344.81 Q1484.2 1359.02 1487.81 1366.15 Q1491.47 1373.23 1498.69 1373.23 Q1505.96 1373.23 1509.57 1366.15 Q1513.23 1359.02 1513.23 1344.81 Q1513.23 1330.55 1509.57 1323.46 Q1505.96 1316.33 1498.69 1316.33 M1498.69 1308.93 Q1510.31 1308.93 1516.42 1318.14 Q1522.58 1327.31 1522.58 1344.81 Q1522.58 1362.26 1516.42 1371.47 Q1510.31 1380.64 1498.69 1380.64 Q1487.07 1380.64 1480.91 1371.47 Q1474.8 1362.26 1474.8 1344.81 Q1474.8 1327.31 1480.91 1318.14 Q1487.07 1308.93 1498.69 1308.93 Z" fill="#000000" fill-rule="nonzero" fill-opacity="1" /><path clip-path="url(#clip000)" d="M1697.32 1316.33 Q1690.1 1316.33 1686.45 1323.46 Q1682.83 1330.55 1682.83 1344.81 Q1682.83 1359.02 1686.45 1366.15 Q1690.1 1373.23 1697.32 1373.23 Q1704.59 1373.23 1708.2 1366.15 Q1711.86 1359.02 1711.86 1344.81 Q1711.86 1330.55 1708.2 1323.46 Q1704.59 1316.33 1697.32 1316.33 M1697.32 1308.93 Q1708.94 1308.93 1715.06 1318.14 Q1721.21 1327.31 1721.21 1344.81 Q1721.21 1362.26 1715.06 1371.47 Q1708.94 1380.64 1697.32 1380.64 Q1685.7 1380.64 1679.55 1371.47 Q1673.44 1362.26 1673.44 1344.81 Q1673.44 1327.31 1679.55 1318.14 Q1685.7 1308.93 1697.32 1308.93 Z" fill="#000000" fill-rule="nonzero" fill-opacity="1" /><path clip-path="url(#clip000)" d="M1737.65 1367.54 L1747.42 1367.54 L1747.42 1379.3 L1737.65 1379.3 L1737.65 1367.54 Z" fill="#000000" fill-rule="nonzero" fill-opacity="1" /><path clip-path="url(#clip000)" d="M1765.43 1310.18 L1809.87 1310.18 L1809.87 1314.16 L1784.78 1379.3 L1775.01 1379.3 L1798.62 1318.05 L1765.43 1318.05 L1765.43 1310.18 Z" fill="#000000" fill-rule="nonzero" fill-opacity="1" /><path clip-path="url(#clip000)" d="M1828.2 1310.18 L1864.92 1310.18 L1864.92 1318.05 L1836.77 1318.05 L1836.77 1334.99 Q1838.81 1334.3 1840.84 1333.97 Q1842.88 1333.6 1844.92 1333.6 Q1856.49 1333.6 1863.25 1339.94 Q1870.01 1346.29 1870.01 1357.12 Q1870.01 1368.28 1863.06 1374.48 Q1856.12 1380.64 1843.48 1380.64 Q1839.13 1380.64 1834.59 1379.9 Q1830.1 1379.16 1825.29 1377.68 L1825.29 1368.28 Q1829.45 1370.55 1833.9 1371.66 Q1838.34 1372.77 1843.3 1372.77 Q1851.31 1372.77 1855.98 1368.56 Q1860.66 1364.34 1860.66 1357.12 Q1860.66 1349.9 1855.98 1345.68 Q1851.31 1341.47 1843.3 1341.47 Q1839.55 1341.47 1835.8 1342.31 Q1832.09 1343.14 1828.2 1344.9 L1828.2 1310.18 Z" fill="#000000" fill-rule="nonzero" fill-opacity="1" /><path clip-path="url(#clip000)" d="M2024.29 1371.43 L2039.57 1371.43 L2039.57 1318.69 L2022.95 1322.03 L2022.95 1313.51 L2039.48 1310.18 L2048.83 1310.18 L2048.83 1371.43 L2064.11 1371.43 L2064.11 1379.3 L2024.29 1379.3 L2024.29 1371.43 Z" fill="#000000" fill-rule="nonzero" fill-opacity="1" /><path clip-path="url(#clip000)" d="M2083 1367.54 L2092.76 1367.54 L2092.76 1379.3 L2083 1379.3 L2083 1367.54 Z" fill="#000000" fill-rule="nonzero" fill-opacity="1" /><path clip-path="url(#clip000)" d="M2133.13 1316.33 Q2125.91 1316.33 2122.26 1323.46 Q2118.64 1330.55 2118.64 1344.81 Q2118.64 1359.02 2122.26 1366.15 Q2125.91 1373.23 2133.13 1373.23 Q2140.4 1373.23 2144.01 1366.15 Q2147.67 1359.02 2147.67 1344.81 Q2147.67 1330.55 2144.01 1323.46 Q2140.4 1316.33 2133.13 1316.33 M2133.13 1308.93 Q2144.76 1308.93 2150.87 1318.14 Q2157.02 1327.31 2157.02 1344.81 Q2157.02 1362.26 2150.87 1371.47 Q2144.76 1380.64 2133.13 1380.64 Q2121.51 1380.64 2115.36 1371.47 Q2109.25 1362.26 2109.25 1344.81 Q2109.25 1327.31 2115.36 1318.14 Q2121.51 1308.93 2133.13 1308.93 Z" fill="#000000" fill-rule="nonzero" fill-opacity="1" /><path clip-path="url(#clip000)" d="M2193.46 1316.33 Q2186.24 1316.33 2182.58 1323.46 Q2178.97 1330.55 2178.97 1344.81 Q2178.97 1359.02 2182.58 1366.15 Q2186.24 1373.23 2193.46 1373.23 Q2200.73 1373.23 2204.34 1366.15 Q2208 1359.02 2208 1344.81 Q2208 1330.55 2204.34 1323.46 Q2200.73 1316.33 2193.46 1316.33 M2193.46 1308.93 Q2205.08 1308.93 2211.19 1318.14 Q2217.35 1327.31 2217.35 1344.81 Q2217.35 1362.26 2211.19 1371.47 Q2205.08 1380.64 2193.46 1380.64 Q2181.84 1380.64 2175.68 1371.47 Q2169.57 1362.26 2169.57 1344.81 Q2169.57 1327.31 2175.68 1318.14 Q2181.84 1308.93 2193.46 1308.93 Z" fill="#000000" fill-rule="nonzero" fill-opacity="1" /><path clip-path="url(#clip000)" d="M1378.53 1484.39 L1378.53 1527.42 L1366.81 1527.42 L1366.81 1484.77 Q1366.81 1474.65 1362.87 1469.62 Q1358.92 1464.59 1351.03 1464.59 Q1341.54 1464.59 1336.07 1470.64 Q1330.59 1476.69 1330.59 1487.13 L1330.59 1527.42 L1318.82 1527.42 L1318.82 1428.37 L1330.59 1428.37 L1330.59 1467.2 Q1334.79 1460.77 1340.46 1457.59 Q1346.19 1454.41 1353.64 1454.41 Q1365.92 1454.41 1372.22 1462.05 Q1378.53 1469.62 1378.53 1484.39 Z" fill="#000000" fill-rule="nonzero" fill-opacity="1" /><path clip-path="url(#clip000)" d="M1429.51 1464.34 Q1420.09 1464.34 1414.62 1471.72 Q1409.14 1479.04 1409.14 1491.84 Q1409.14 1504.63 1414.56 1512.02 Q1420.03 1519.34 1429.51 1519.34 Q1438.87 1519.34 1444.35 1511.96 Q1449.82 1504.57 1449.82 1491.84 Q1449.82 1479.17 1444.35 1471.79 Q1438.87 1464.34 1429.51 1464.34 M1429.51 1454.41 Q1444.79 1454.41 1453.51 1464.34 Q1462.23 1474.27 1462.23 1491.84 Q1462.23 1509.35 1453.51 1519.34 Q1444.79 1529.27 1429.51 1529.27 Q1414.17 1529.27 1405.45 1519.34 Q1396.8 1509.35 1396.8 1491.84 Q1396.8 1474.27 1405.45 1464.34 Q1414.17 1454.41 1429.51 1454.41 Z" fill="#000000" fill-rule="nonzero" fill-opacity="1" /><path clip-path="url(#clip000)" d="M1480.44 1499.29 L1480.44 1456.13 L1492.15 1456.13 L1492.15 1498.84 Q1492.15 1508.96 1496.1 1514.06 Q1500.05 1519.08 1507.94 1519.08 Q1517.43 1519.08 1522.9 1513.04 Q1528.44 1506.99 1528.44 1496.55 L1528.44 1456.13 L1540.15 1456.13 L1540.15 1527.42 L1528.44 1527.42 L1528.44 1516.47 Q1524.17 1522.97 1518.51 1526.15 Q1512.91 1529.27 1505.46 1529.27 Q1493.17 1529.27 1486.81 1521.63 Q1480.44 1513.99 1480.44 1499.29 M1509.91 1454.41 L1509.91 1454.41 Z" fill="#000000" fill-rule="nonzero" fill-opacity="1" /><path clip-path="url(#clip000)" d="M1605.59 1467.08 Q1603.62 1465.93 1601.26 1465.42 Q1598.97 1464.85 1596.17 1464.85 Q1586.24 1464.85 1580.89 1471.34 Q1575.61 1477.77 1575.61 1489.87 L1575.61 1527.42 L1563.83 1527.42 L1563.83 1456.13 L1575.61 1456.13 L1575.61 1467.2 Q1579.3 1460.71 1585.22 1457.59 Q1591.14 1454.41 1599.61 1454.41 Q1600.82 1454.41 1602.28 1454.6 Q1603.74 1454.73 1605.53 1455.05 L1605.59 1467.08 Z" fill="#000000" fill-rule="nonzero" fill-opacity="1" /><path clip-path="url(#clip000)" d="M1663.33 1458.23 L1663.33 1469.3 Q1658.36 1466.76 1653.01 1465.49 Q1647.67 1464.21 1641.94 1464.21 Q1633.22 1464.21 1628.83 1466.89 Q1624.5 1469.56 1624.5 1474.91 Q1624.5 1478.98 1627.62 1481.34 Q1630.73 1483.63 1640.16 1485.73 L1644.17 1486.62 Q1656.64 1489.29 1661.86 1494.19 Q1667.15 1499.03 1667.15 1507.75 Q1667.15 1517.68 1659.25 1523.48 Q1651.42 1529.27 1637.67 1529.27 Q1631.94 1529.27 1625.71 1528.12 Q1619.53 1527.04 1612.66 1524.81 L1612.66 1512.72 Q1619.15 1516.09 1625.45 1517.81 Q1631.75 1519.47 1637.93 1519.47 Q1646.2 1519.47 1650.66 1516.67 Q1655.12 1513.8 1655.12 1508.64 Q1655.12 1503.87 1651.87 1501.32 Q1648.69 1498.78 1637.8 1496.42 L1633.73 1495.47 Q1622.84 1493.18 1618 1488.47 Q1613.17 1483.69 1613.17 1475.42 Q1613.17 1465.36 1620.3 1459.88 Q1627.42 1454.41 1640.54 1454.41 Q1647.03 1454.41 1652.76 1455.36 Q1658.49 1456.32 1663.33 1458.23 Z" fill="#000000" fill-rule="nonzero" fill-opacity="1" /><polyline clip-path="url(#clip002)" style="stroke:#000000; stroke-linecap:round; stroke-linejoin:round; stroke-width:4; stroke-opacity:0.1; fill:none" points="680.45,1245.21 2305.51,1245.21 "/>
<polyline clip-path="url(#clip002)" style="stroke:#000000; stroke-linecap:round; stroke-linejoin:round; stroke-width:4; stroke-opacity:0.1; fill:none" points="680.45,1007.24 2305.51,1007.24 "/>
<polyline clip-path="url(#clip002)" style="stroke:#000000; stroke-linecap:round; stroke-linejoin:round; stroke-width:4; stroke-opacity:0.1; fill:none" points="680.45,769.267 2305.51,769.267 "/>
<polyline clip-path="url(#clip002)" style="stroke:#000000; stroke-linecap:round; stroke-linejoin:round; stroke-width:4; stroke-opacity:0.1; fill:none" points="680.45,531.296 2305.51,531.296 "/>
<polyline clip-path="url(#clip002)" style="stroke:#000000; stroke-linecap:round; stroke-linejoin:round; stroke-width:4; stroke-opacity:0.1; fill:none" points="680.45,293.324 2305.51,293.324 "/>
<polyline clip-path="url(#clip000)" style="stroke:#000000; stroke-linecap:round; stroke-linejoin:round; stroke-width:8; stroke-opacity:1; fill:none" points="680.45,1273.7 680.45,94.4882 "/>
<polyline clip-path="url(#clip000)" style="stroke:#000000; stroke-linecap:round; stroke-linejoin:round; stroke-width:8; stroke-opacity:1; fill:none" points="680.45,1245.21 699.348,1245.21 "/>
<polyline clip-path="url(#clip000)" style="stroke:#000000; stroke-linecap:round; stroke-linejoin:round; stroke-width:8; stroke-opacity:1; fill:none" points="680.45,1007.24 699.348,1007.24 "/>
<polyline clip-path="url(#clip000)" style="stroke:#000000; stroke-linecap:round; stroke-linejoin:round; stroke-width:8; stroke-opacity:1; fill:none" points="680.45,769.267 699.348,769.267 "/>
<polyline clip-path="url(#clip000)" style="stroke:#000000; stroke-linecap:round; stroke-linejoin:round; stroke-width:8; stroke-opacity:1; fill:none" points="680.45,531.296 699.348,531.296 "/>
<polyline clip-path="url(#clip000)" style="stroke:#000000; stroke-linecap:round; stroke-linejoin:round; stroke-width:8; stroke-opacity:1; fill:none" points="680.45,293.324 699.348,293.324 "/>
<path clip-path="url(#clip000)" d="M397.507 1271.9 L430.146 1271.9 L430.146 1279.77 L386.257 1279.77 L386.257 1271.9 Q391.581 1266.39 400.748 1257.13 Q409.961 1247.83 412.322 1245.14 Q416.813 1240.1 418.572 1236.62 Q420.378 1233.1 420.378 1229.72 Q420.378 1224.22 416.489 1220.74 Q412.646 1217.27 406.442 1217.27 Q402.044 1217.27 397.137 1218.8 Q392.276 1220.33 386.72 1223.43 L386.72 1213.98 Q392.368 1211.72 397.276 1210.56 Q402.183 1209.4 406.257 1209.4 Q416.998 1209.4 423.387 1214.77 Q429.776 1220.14 429.776 1229.12 Q429.776 1233.38 428.155 1237.22 Q426.581 1241.02 422.368 1246.21 Q421.211 1247.55 415.007 1253.98 Q408.803 1260.37 397.507 1271.9 Z" fill="#000000" fill-rule="nonzero" fill-opacity="1" /><path clip-path="url(#clip000)" d="M469.775 1216.81 Q462.553 1216.81 458.896 1223.94 Q455.285 1231.02 455.285 1245.28 Q455.285 1259.49 458.896 1266.62 Q462.553 1273.71 469.775 1273.71 Q477.044 1273.71 480.655 1266.62 Q484.312 1259.49 484.312 1245.28 Q484.312 1231.02 480.655 1223.94 Q477.044 1216.81 469.775 1216.81 M469.775 1209.4 Q481.396 1209.4 487.507 1218.61 Q493.664 1227.78 493.664 1245.28 Q493.664 1262.73 487.507 1271.95 Q481.396 1281.11 469.775 1281.11 Q458.155 1281.11 451.998 1271.95 Q445.887 1262.73 445.887 1245.28 Q445.887 1227.78 451.998 1218.61 Q458.155 1209.4 469.775 1209.4 Z" fill="#000000" fill-rule="nonzero" fill-opacity="1" /><path clip-path="url(#clip000)" d="M530.099 1216.81 Q522.877 1216.81 519.22 1223.94 Q515.608 1231.02 515.608 1245.28 Q515.608 1259.49 519.22 1266.62 Q522.877 1273.71 530.099 1273.71 Q537.368 1273.71 540.979 1266.62 Q544.636 1259.49 544.636 1245.28 Q544.636 1231.02 540.979 1223.94 Q537.368 1216.81 530.099 1216.81 M530.099 1209.4 Q541.719 1209.4 547.831 1218.61 Q553.988 1227.78 553.988 1245.28 Q553.988 1262.73 547.831 1271.95 Q541.719 1281.11 530.099 1281.11 Q518.479 1281.11 512.321 1271.95 Q506.21 1262.73 506.21 1245.28 Q506.21 1227.78 512.321 1218.61 Q518.479 1209.4 530.099 1209.4 Z" fill="#000000" fill-rule="nonzero" fill-opacity="1" /><path clip-path="url(#clip000)" d="M570.423 1268.01 L580.191 1268.01 L580.191 1279.77 L570.423 1279.77 L570.423 1268.01 Z" fill="#000000" fill-rule="nonzero" fill-opacity="1" /><path clip-path="url(#clip000)" d="M620.562 1216.81 Q613.339 1216.81 609.682 1223.94 Q606.071 1231.02 606.071 1245.28 Q606.071 1259.49 609.682 1266.62 Q613.339 1273.71 620.562 1273.71 Q627.83 1273.71 631.441 1266.62 Q635.099 1259.49 635.099 1245.28 Q635.099 1231.02 631.441 1223.94 Q627.83 1216.81 620.562 1216.81 M620.562 1209.4 Q632.182 1209.4 638.293 1218.61 Q644.45 1227.78 644.45 1245.28 Q644.45 1262.73 638.293 1271.95 Q632.182 1281.11 620.562 1281.11 Q608.941 1281.11 602.784 1271.95 Q596.673 1262.73 596.673 1245.28 Q596.673 1227.78 602.784 1218.61 Q608.941 1209.4 620.562 1209.4 Z" fill="#000000" fill-rule="nonzero" fill-opacity="1" /><path clip-path="url(#clip000)" d="M397.507 1033.93 L430.146 1033.93 L430.146 1041.8 L386.257 1041.8 L386.257 1033.93 Q391.581 1028.42 400.748 1019.16 Q409.961 1009.85 412.322 1007.17 Q416.813 1002.12 418.572 998.651 Q420.378 995.133 420.378 991.753 Q420.378 986.244 416.489 982.772 Q412.646 979.3 406.442 979.3 Q402.044 979.3 397.137 980.827 Q392.276 982.355 386.72 985.457 L386.72 976.012 Q392.368 973.744 397.276 972.587 Q402.183 971.429 406.257 971.429 Q416.998 971.429 423.387 976.8 Q429.776 982.17 429.776 991.151 Q429.776 995.411 428.155 999.253 Q426.581 1003.05 422.368 1008.23 Q421.211 1009.58 415.007 1016.01 Q408.803 1022.4 397.507 1033.93 Z" fill="#000000" fill-rule="nonzero" fill-opacity="1" /><path clip-path="url(#clip000)" d="M457.831 1033.93 L490.47 1033.93 L490.47 1041.8 L446.581 1041.8 L446.581 1033.93 Q451.905 1028.42 461.072 1019.16 Q470.285 1009.85 472.646 1007.17 Q477.136 1002.12 478.896 998.651 Q480.701 995.133 480.701 991.753 Q480.701 986.244 476.812 982.772 Q472.97 979.3 466.766 979.3 Q462.368 979.3 457.461 980.827 Q452.6 982.355 447.044 985.457 L447.044 976.012 Q452.692 973.744 457.6 972.587 Q462.507 971.429 466.581 971.429 Q477.322 971.429 483.71 976.8 Q490.099 982.17 490.099 991.151 Q490.099 995.411 488.479 999.253 Q486.905 1003.05 482.692 1008.23 Q481.535 1009.58 475.331 1016.01 Q469.127 1022.4 457.831 1033.93 Z" fill="#000000" fill-rule="nonzero" fill-opacity="1" /><path clip-path="url(#clip000)" d="M510.192 972.679 L546.905 972.679 L546.905 980.55 L518.757 980.55 L518.757 997.494 Q520.794 996.799 522.831 996.475 Q524.868 996.105 526.905 996.105 Q538.479 996.105 545.238 1002.45 Q551.997 1008.79 551.997 1019.62 Q551.997 1030.78 545.053 1036.98 Q538.108 1043.14 525.47 1043.14 Q521.118 1043.14 516.581 1042.4 Q512.09 1041.66 507.275 1040.18 L507.275 1030.78 Q511.442 1033.05 515.886 1034.16 Q520.331 1035.27 525.284 1035.27 Q533.294 1035.27 537.969 1031.06 Q542.645 1026.85 542.645 1019.62 Q542.645 1012.4 537.969 1008.19 Q533.294 1003.98 525.284 1003.98 Q521.534 1003.98 517.784 1004.81 Q514.081 1005.64 510.192 1007.4 L510.192 972.679 Z" fill="#000000" fill-rule="nonzero" fill-opacity="1" /><path clip-path="url(#clip000)" d="M570.423 1030.04 L580.191 1030.04 L580.191 1041.8 L570.423 1041.8 L570.423 1030.04 Z" fill="#000000" fill-rule="nonzero" fill-opacity="1" /><path clip-path="url(#clip000)" d="M620.562 978.837 Q613.339 978.837 609.682 985.966 Q606.071 993.049 606.071 1007.31 Q606.071 1021.52 609.682 1028.65 Q613.339 1035.73 620.562 1035.73 Q627.83 1035.73 631.441 1028.65 Q635.099 1021.52 635.099 1007.31 Q635.099 993.049 631.441 985.966 Q627.83 978.837 620.562 978.837 M620.562 971.429 Q632.182 971.429 638.293 980.642 Q644.45 989.809 644.45 1007.31 Q644.45 1024.76 638.293 1033.98 Q632.182 1043.14 620.562 1043.14 Q608.941 1043.14 602.784 1033.98 Q596.673 1024.76 596.673 1007.31 Q596.673 989.809 602.784 980.642 Q608.941 971.429 620.562 971.429 Z" fill="#000000" fill-rule="nonzero" fill-opacity="1" /><path clip-path="url(#clip000)" d="M397.507 795.957 L430.146 795.957 L430.146 803.827 L386.257 803.827 L386.257 795.957 Q391.581 790.448 400.748 781.189 Q409.961 771.883 412.322 769.198 Q416.813 764.152 418.572 760.68 Q420.378 757.161 420.378 753.781 Q420.378 748.272 416.489 744.8 Q412.646 741.328 406.442 741.328 Q402.044 741.328 397.137 742.856 Q392.276 744.383 386.72 747.485 L386.72 738.041 Q392.368 735.772 397.276 734.615 Q402.183 733.457 406.257 733.457 Q416.998 733.457 423.387 738.828 Q429.776 744.198 429.776 753.18 Q429.776 757.439 428.155 761.281 Q426.581 765.078 422.368 770.263 Q421.211 771.605 415.007 778.041 Q408.803 784.429 397.507 795.957 Z" fill="#000000" fill-rule="nonzero" fill-opacity="1" /><path clip-path="url(#clip000)" d="M449.868 734.707 L486.581 734.707 L486.581 742.578 L458.433 742.578 L458.433 759.522 Q460.47 758.828 462.507 758.504 Q464.544 758.133 466.581 758.133 Q478.155 758.133 484.914 764.476 Q491.673 770.818 491.673 781.652 Q491.673 792.809 484.729 799.013 Q477.785 805.17 465.146 805.17 Q460.794 805.17 456.257 804.429 Q451.766 803.689 446.951 802.207 L446.951 792.809 Q451.118 795.077 455.562 796.189 Q460.007 797.3 464.961 797.3 Q472.97 797.3 477.646 793.087 Q482.322 788.874 482.322 781.652 Q482.322 774.429 477.646 770.217 Q472.97 766.004 464.961 766.004 Q461.211 766.004 457.461 766.837 Q453.757 767.67 449.868 769.429 L449.868 734.707 Z" fill="#000000" fill-rule="nonzero" fill-opacity="1" /><path clip-path="url(#clip000)" d="M530.099 740.865 Q522.877 740.865 519.22 747.994 Q515.608 755.078 515.608 769.337 Q515.608 783.55 519.22 790.679 Q522.877 797.763 530.099 797.763 Q537.368 797.763 540.979 790.679 Q544.636 783.55 544.636 769.337 Q544.636 755.078 540.979 747.994 Q537.368 740.865 530.099 740.865 M530.099 733.457 Q541.719 733.457 547.831 742.67 Q553.988 751.837 553.988 769.337 Q553.988 786.79 547.831 796.003 Q541.719 805.17 530.099 805.17 Q518.479 805.17 512.321 796.003 Q506.21 786.79 506.21 769.337 Q506.21 751.837 512.321 742.67 Q518.479 733.457 530.099 733.457 Z" fill="#000000" fill-rule="nonzero" fill-opacity="1" /><path clip-path="url(#clip000)" d="M570.423 792.068 L580.191 792.068 L580.191 803.827 L570.423 803.827 L570.423 792.068 Z" fill="#000000" fill-rule="nonzero" fill-opacity="1" /><path clip-path="url(#clip000)" d="M620.562 740.865 Q613.339 740.865 609.682 747.994 Q606.071 755.078 606.071 769.337 Q606.071 783.55 609.682 790.679 Q613.339 797.763 620.562 797.763 Q627.83 797.763 631.441 790.679 Q635.099 783.55 635.099 769.337 Q635.099 755.078 631.441 747.994 Q627.83 740.865 620.562 740.865 M620.562 733.457 Q632.182 733.457 638.293 742.67 Q644.45 751.837 644.45 769.337 Q644.45 786.79 638.293 796.003 Q632.182 805.17 620.562 805.17 Q608.941 805.17 602.784 796.003 Q596.673 786.79 596.673 769.337 Q596.673 751.837 602.784 742.67 Q608.941 733.457 620.562 733.457 Z" fill="#000000" fill-rule="nonzero" fill-opacity="1" /><path clip-path="url(#clip000)" d="M397.507 557.985 L430.146 557.985 L430.146 565.856 L386.257 565.856 L386.257 557.985 Q391.581 552.476 400.748 543.217 Q409.961 533.911 412.322 531.226 Q416.813 526.18 418.572 522.708 Q420.378 519.189 420.378 515.81 Q420.378 510.3 416.489 506.828 Q412.646 503.356 406.442 503.356 Q402.044 503.356 397.137 504.884 Q392.276 506.412 386.72 509.513 L386.72 500.069 Q392.368 497.801 397.276 496.643 Q402.183 495.486 406.257 495.486 Q416.998 495.486 423.387 500.856 Q429.776 506.226 429.776 515.208 Q429.776 519.467 428.155 523.31 Q426.581 527.106 422.368 532.291 Q421.211 533.634 415.007 540.069 Q408.803 546.458 397.507 557.985 Z" fill="#000000" fill-rule="nonzero" fill-opacity="1" /><path clip-path="url(#clip000)" d="M447.414 496.736 L491.859 496.736 L491.859 500.717 L466.766 565.856 L456.998 565.856 L480.609 504.606 L447.414 504.606 L447.414 496.736 Z" fill="#000000" fill-rule="nonzero" fill-opacity="1" /><path clip-path="url(#clip000)" d="M510.192 496.736 L546.905 496.736 L546.905 504.606 L518.757 504.606 L518.757 521.55 Q520.794 520.856 522.831 520.532 Q524.868 520.161 526.905 520.161 Q538.479 520.161 545.238 526.504 Q551.997 532.847 551.997 543.68 Q551.997 554.837 545.053 561.041 Q538.108 567.198 525.47 567.198 Q521.118 567.198 516.581 566.458 Q512.09 565.717 507.275 564.235 L507.275 554.837 Q511.442 557.106 515.886 558.217 Q520.331 559.328 525.284 559.328 Q533.294 559.328 537.969 555.115 Q542.645 550.902 542.645 543.68 Q542.645 536.458 537.969 532.245 Q533.294 528.032 525.284 528.032 Q521.534 528.032 517.784 528.865 Q514.081 529.698 510.192 531.458 L510.192 496.736 Z" fill="#000000" fill-rule="nonzero" fill-opacity="1" /><path clip-path="url(#clip000)" d="M570.423 554.096 L580.191 554.096 L580.191 565.856 L570.423 565.856 L570.423 554.096 Z" fill="#000000" fill-rule="nonzero" fill-opacity="1" /><path clip-path="url(#clip000)" d="M620.562 502.893 Q613.339 502.893 609.682 510.023 Q606.071 517.106 606.071 531.365 Q606.071 545.578 609.682 552.708 Q613.339 559.791 620.562 559.791 Q627.83 559.791 631.441 552.708 Q635.099 545.578 635.099 531.365 Q635.099 517.106 631.441 510.023 Q627.83 502.893 620.562 502.893 M620.562 495.486 Q632.182 495.486 638.293 504.699 Q644.45 513.865 644.45 531.365 Q644.45 548.819 638.293 558.032 Q632.182 567.198 620.562 567.198 Q608.941 567.198 602.784 558.032 Q596.673 548.819 596.673 531.365 Q596.673 513.865 602.784 504.699 Q608.941 495.486 620.562 495.486 Z" fill="#000000" fill-rule="nonzero" fill-opacity="1" /><path clip-path="url(#clip000)" d="M417.785 290.616 Q424.498 292.051 428.248 296.588 Q432.044 301.125 432.044 307.791 Q432.044 318.023 425.007 323.625 Q417.97 329.227 405.007 329.227 Q400.655 329.227 396.026 328.347 Q391.442 327.514 386.535 325.801 L386.535 316.773 Q390.424 319.041 395.054 320.199 Q399.683 321.356 404.729 321.356 Q413.526 321.356 418.109 317.884 Q422.739 314.412 422.739 307.791 Q422.739 301.68 418.433 298.254 Q414.174 294.782 406.535 294.782 L398.479 294.782 L398.479 287.097 L406.905 287.097 Q413.803 287.097 417.461 284.366 Q421.118 281.588 421.118 276.403 Q421.118 271.079 417.322 268.255 Q413.572 265.384 406.535 265.384 Q402.692 265.384 398.294 266.218 Q393.896 267.051 388.618 268.81 L388.618 260.477 Q393.942 258.995 398.572 258.255 Q403.248 257.514 407.368 257.514 Q418.016 257.514 424.22 262.375 Q430.424 267.19 430.424 275.431 Q430.424 281.171 427.137 285.153 Q423.85 289.088 417.785 290.616 Z" fill="#000000" fill-rule="nonzero" fill-opacity="1" /><path clip-path="url(#clip000)" d="M469.775 264.921 Q462.553 264.921 458.896 272.051 Q455.285 279.134 455.285 293.393 Q455.285 307.606 458.896 314.736 Q462.553 321.819 469.775 321.819 Q477.044 321.819 480.655 314.736 Q484.312 307.606 484.312 293.393 Q484.312 279.134 480.655 272.051 Q477.044 264.921 469.775 264.921 M469.775 257.514 Q481.396 257.514 487.507 266.727 Q493.664 275.893 493.664 293.393 Q493.664 310.847 487.507 320.06 Q481.396 329.227 469.775 329.227 Q458.155 329.227 451.998 320.06 Q445.887 310.847 445.887 293.393 Q445.887 275.893 451.998 266.727 Q458.155 257.514 469.775 257.514 Z" fill="#000000" fill-rule="nonzero" fill-opacity="1" /><path clip-path="url(#clip000)" d="M530.099 264.921 Q522.877 264.921 519.22 272.051 Q515.608 279.134 515.608 293.393 Q515.608 307.606 519.22 314.736 Q522.877 321.819 530.099 321.819 Q537.368 321.819 540.979 314.736 Q544.636 307.606 544.636 293.393 Q544.636 279.134 540.979 272.051 Q537.368 264.921 530.099 264.921 M530.099 257.514 Q541.719 257.514 547.831 266.727 Q553.988 275.893 553.988 293.393 Q553.988 310.847 547.831 320.06 Q541.719 329.227 530.099 329.227 Q518.479 329.227 512.321 320.06 Q506.21 310.847 506.21 293.393 Q506.21 275.893 512.321 266.727 Q518.479 257.514 530.099 257.514 Z" fill="#000000" fill-rule="nonzero" fill-opacity="1" /><path clip-path="url(#clip000)" d="M570.423 316.125 L580.191 316.125 L580.191 327.884 L570.423 327.884 L570.423 316.125 Z" fill="#000000" fill-rule="nonzero" fill-opacity="1" /><path clip-path="url(#clip000)" d="M620.562 264.921 Q613.339 264.921 609.682 272.051 Q606.071 279.134 606.071 293.393 Q606.071 307.606 609.682 314.736 Q613.339 321.819 620.562 321.819 Q627.83 321.819 631.441 314.736 Q635.099 307.606 635.099 293.393 Q635.099 279.134 631.441 272.051 Q627.83 264.921 620.562 264.921 M620.562 257.514 Q632.182 257.514 638.293 266.727 Q644.45 275.893 644.45 293.393 Q644.45 310.847 638.293 320.06 Q632.182 329.227 620.562 329.227 Q608.941 329.227 602.784 320.06 Q596.673 310.847 596.673 293.393 Q596.673 275.893 602.784 266.727 Q608.941 257.514 620.562 257.514 Z" fill="#000000" fill-rule="nonzero" fill-opacity="1" /><path clip-path="url(#clip000)" d="M311.051 933.755 L348.863 933.755 L348.863 945.532 L250.449 945.532 L250.449 933.755 L261.271 933.755 Q254.905 930.063 251.85 924.461 Q248.731 918.796 248.731 910.966 Q248.731 897.98 259.043 889.895 Q269.356 881.747 286.161 881.747 Q302.966 881.747 313.279 889.895 Q323.591 897.98 323.591 910.966 Q323.591 918.796 320.536 924.461 Q317.417 930.063 311.051 933.755 M286.161 893.906 Q273.239 893.906 265.918 899.253 Q258.534 904.536 258.534 913.83 Q258.534 923.124 265.918 928.471 Q273.239 933.755 286.161 933.755 Q299.083 933.755 306.468 928.471 Q313.788 923.124 313.788 913.83 Q313.788 904.536 306.468 899.253 Q299.083 893.906 286.161 893.906 Z" fill="#000000" fill-rule="nonzero" fill-opacity="1" /><path clip-path="url(#clip000)" d="M285.906 829.93 Q285.906 844.126 289.153 849.6 Q292.399 855.075 300.229 855.075 Q306.468 855.075 310.16 851.001 Q313.788 846.863 313.788 839.797 Q313.788 830.058 306.913 824.201 Q299.975 818.281 288.516 818.281 L285.906 818.281 L285.906 829.93 M281.068 806.568 L321.745 806.568 L321.745 818.281 L310.924 818.281 Q317.417 822.291 320.536 828.275 Q323.591 834.259 323.591 842.916 Q323.591 853.865 317.48 860.358 Q311.306 866.788 300.993 866.788 Q288.962 866.788 282.851 858.767 Q276.74 850.683 276.74 834.705 L276.74 818.281 L275.594 818.281 Q267.509 818.281 263.117 823.628 Q258.661 828.912 258.661 838.524 Q258.661 844.635 260.125 850.428 Q261.589 856.221 264.518 861.568 L253.696 861.568 Q251.213 855.139 250.004 849.091 Q248.731 843.044 248.731 837.315 Q248.731 821.846 256.751 814.207 Q264.772 806.568 281.068 806.568 Z" fill="#000000" fill-rule="nonzero" fill-opacity="1" /><path clip-path="url(#clip000)" d="M261.398 741.129 Q260.253 743.102 259.743 745.457 Q259.17 747.749 259.17 750.55 Q259.17 760.48 265.663 765.828 Q272.093 771.111 284.188 771.111 L321.745 771.111 L321.745 782.888 L250.449 782.888 L250.449 771.111 L261.526 771.111 Q255.033 767.419 251.914 761.499 Q248.731 755.579 248.731 747.112 Q248.731 745.903 248.922 744.439 Q249.049 742.975 249.367 741.192 L261.398 741.129 Z" fill="#000000" fill-rule="nonzero" fill-opacity="1" /><path clip-path="url(#clip000)" d="M283.169 670.724 L288.898 670.724 L288.898 724.578 Q300.993 723.814 307.359 717.321 Q313.661 710.764 313.661 699.115 Q313.661 692.367 312.006 686.065 Q310.351 679.7 307.041 673.461 L318.117 673.461 Q320.79 679.763 322.191 686.384 Q323.591 693.004 323.591 699.815 Q323.591 716.875 313.661 726.87 Q303.73 736.8 286.798 736.8 Q269.292 736.8 259.043 727.379 Q248.731 717.894 248.731 701.852 Q248.731 687.466 258.025 679.127 Q267.255 670.724 283.169 670.724 M279.732 682.437 Q270.119 682.564 264.39 687.848 Q258.661 693.068 258.661 701.725 Q258.661 711.528 264.199 717.448 Q269.737 723.305 279.795 724.196 L279.732 682.437 Z" fill="#000000" fill-rule="nonzero" fill-opacity="1" /><path clip-path="url(#clip000)" d="M278.713 592.235 L321.745 592.235 L321.745 603.948 L279.095 603.948 Q268.974 603.948 263.945 607.894 Q258.916 611.841 258.916 619.735 Q258.916 629.22 264.963 634.694 Q271.011 640.169 281.45 640.169 L321.745 640.169 L321.745 651.945 L250.449 651.945 L250.449 640.169 L261.526 640.169 Q255.096 635.967 251.914 630.302 Q248.731 624.573 248.731 617.125 Q248.731 604.839 256.37 598.537 Q263.945 592.235 278.713 592.235 Z" fill="#000000" fill-rule="nonzero" fill-opacity="1" /><path clip-path="url(#clip000)" d="M305.576 567.218 L305.576 553.786 L321.745 553.786 L321.745 567.218 L305.576 567.218 Z" fill="#000000" fill-rule="nonzero" fill-opacity="1" /><path clip-path="url(#clip000)" d="M237.909 449.006 L288.644 481.472 L288.644 449.006 L237.909 449.006 M226.705 452.38 L226.705 436.211 L288.644 436.211 L288.644 422.652 L299.338 422.652 L299.338 436.211 L321.745 436.211 L321.745 449.006 L299.338 449.006 L299.338 491.911 L286.925 491.911 L226.705 452.38 Z" fill="#000000" fill-rule="nonzero" fill-opacity="1" /><polyline clip-path="url(#clip002)" style="stroke:#008000; stroke-linecap:round; stroke-linejoin:round; stroke-width:8; stroke-opacity:1; fill:none" points="726.443,229.176 865.813,465.928 1005.18,517.939 1144.55,506.942 1283.93,669.364 1423.3,820.085 1562.67,943.486 1702.04,1020.81 1841.41,1147.93 1980.78,1205.88 2120.15,1209.19 2259.52,1240.32 "/>
<circle clip-path="url(#clip002)" cx="726.443" cy="229.176" r="14.4" fill="#008000" fill-rule="evenodd" fill-opacity="1" stroke="#000000" stroke-opacity="1" stroke-width="6.4"/>
<circle clip-path="url(#clip002)" cx="865.813" cy="465.928" r="14.4" fill="#008000" fill-rule="evenodd" fill-opacity="1" stroke="#000000" stroke-opacity="1" stroke-width="6.4"/>
<circle clip-path="url(#clip002)" cx="1005.18" cy="517.939" r="14.4" fill="#008000" fill-rule="evenodd" fill-opacity="1" stroke="#000000" stroke-opacity="1" stroke-width="6.4"/>
<circle clip-path="url(#clip002)" cx="1144.55" cy="506.942" r="14.4" fill="#008000" fill-rule="evenodd" fill-opacity="1" stroke="#000000" stroke-opacity="1" stroke-width="6.4"/>
<circle clip-path="url(#clip002)" cx="1283.93" cy="669.364" r="14.4" fill="#008000" fill-rule="evenodd" fill-opacity="1" stroke="#000000" stroke-opacity="1" stroke-width="6.4"/>
<circle clip-path="url(#clip002)" cx="1423.3" cy="820.085" r="14.4" fill="#008000" fill-rule="evenodd" fill-opacity="1" stroke="#000000" stroke-opacity="1" stroke-width="6.4"/>
<circle clip-path="url(#clip002)" cx="1562.67" cy="943.486" r="14.4" fill="#008000" fill-rule="evenodd" fill-opacity="1" stroke="#000000" stroke-opacity="1" stroke-width="6.4"/>
<circle clip-path="url(#clip002)" cx="1702.04" cy="1020.81" r="14.4" fill="#008000" fill-rule="evenodd" fill-opacity="1" stroke="#000000" stroke-opacity="1" stroke-width="6.4"/>
<circle clip-path="url(#clip002)" cx="1841.41" cy="1147.93" r="14.4" fill="#008000" fill-rule="evenodd" fill-opacity="1" stroke="#000000" stroke-opacity="1" stroke-width="6.4"/>
<circle clip-path="url(#clip002)" cx="1980.78" cy="1205.88" r="14.4" fill="#008000" fill-rule="evenodd" fill-opacity="1" stroke="#000000" stroke-opacity="1" stroke-width="6.4"/>
<circle clip-path="url(#clip002)" cx="2120.15" cy="1209.19" r="14.4" fill="#008000" fill-rule="evenodd" fill-opacity="1" stroke="#000000" stroke-opacity="1" stroke-width="6.4"/>
<circle clip-path="url(#clip002)" cx="2259.52" cy="1240.32" r="14.4" fill="#008000" fill-rule="evenodd" fill-opacity="1" stroke="#000000" stroke-opacity="1" stroke-width="6.4"/>
<polyline clip-path="url(#clip002)" style="stroke:#00008b; stroke-linecap:round; stroke-linejoin:round; stroke-width:8; stroke-opacity:1; fill:none" points="726.443,224.819 865.813,239.551 1005.18,300.236 1144.55,378.233 1283.93,485.651 1423.3,571.899 1562.67,672.667 1702.04,762.383 1841.41,854.374 1980.78,947.459 2120.15,1027.04 2259.52,1100.21 "/>
<path clip-path="url(#clip002)" d="M726.443 319.675 L865.813 335.717 L1005.18 397.337 L1144.55 472.122 L1283.93 589.178 L1423.3 672.365 L1562.67 773.022 L1702.04 858.484 L1841.41 956.713 L1980.78 1047.61 L2120.15 1126.8 L2259.52 1199.76 L2259.52 1001.8 L2120.15 930.829 L1980.78 844.21 L1841.41 756.443 L1702.04 663.911 L1562.67 574.991 L1423.3 466.417 L1283.93 383.996 L1144.55 280.646 L1005.18 200.405 L865.813 144.41 L726.443 127.862  Z" fill="#0000ff" fill-rule="evenodd" fill-opacity="0.1"/>
<polyline clip-path="url(#clip002)" style="stroke:#0000ff; stroke-linecap:round; stroke-linejoin:round; stroke-width:0; stroke-opacity:0.1; fill:none" points="726.443,319.675 865.813,335.717 1005.18,397.337 1144.55,472.122 1283.93,589.178 1423.3,672.365 1562.67,773.022 1702.04,858.484 1841.41,956.713 1980.78,1047.61 2120.15,1126.8 2259.52,1199.76 "/>
</svg>
