<?xml version="1.0" encoding="utf-8"?>
<svg xmlns="http://www.w3.org/2000/svg" xmlns:xlink="http://www.w3.org/1999/xlink" width="600" height="400" viewBox="0 0 2400 1600">
<defs>
  <clipPath id="clip800">
    <rect x="0" y="0" width="2400" height="1600"/>
  </clipPath>
</defs>
<path clip-path="url(#clip800)" d="M0 1600 L2400 1600 L2400 0 L0 0  Z" fill="#ffffff" fill-rule="evenodd" fill-opacity="1"/>
<defs>
  <clipPath id="clip801">
    <rect x="480" y="0" width="1681" height="1600"/>
  </clipPath>
</defs>
<path clip-path="url(#clip800)" d="M680.45 1273.7 L2305.51 1273.7 L2305.51 94.4882 L680.45 94.4882  Z" fill="#ffffff" fill-rule="evenodd" fill-opacity="1"/>
<defs>
  <clipPath id="clip802">
    <rect x="680" y="94" width="1626" height="1180"/>
  </clipPath>
</defs>
<polyline clip-path="url(#clip802)" style="stroke:#000000; stroke-linecap:round; stroke-linejoin:round; stroke-width:4; stroke-opacity:0.1; fill:none" points="726.443,1273.7 726.443,94.4882 "/>
<polyline clip-path="url(#clip802)" style="stroke:#000000; stroke-linecap:round; stroke-linejoin:round; stroke-width:4; stroke-opacity:0.1; fill:none" points="1074.87,1273.7 1074.87,94.4882 "/>
<polyline clip-path="url(#clip802)" style="stroke:#000000; stroke-linecap:round; stroke-linejoin:round; stroke-width:4; stroke-opacity:0.1; fill:none" points="1423.3,1273.7 1423.3,94.4882 "/>
<polyline clip-path="url(#clip802)" style="stroke:#000000; stroke-linecap:round; stroke-linejoin:round; stroke-width:4; stroke-opacity:0.1; fill:none" points="1771.72,1273.7 1771.72,94.4882 "/>
<polyline clip-path="url(#clip802)" style="stroke:#000000; stroke-linecap:round; stroke-linejoin:round; stroke-width:4; stroke-opacity:0.1; fill:none" points="2120.15,1273.7 2120.15,94.4882 "/>
<polyline clip-path="url(#clip800)" style="stroke:#000000; stroke-linecap:round; stroke-linejoin:round; stroke-width:8; stroke-opacity:1; fill:none" points="680.45,1273.7 2305.51,1273.7 "/>
<polyline clip-path="url(#clip800)" style="stroke:#000000; stroke-linecap:round; stroke-linejoin:round; stroke-width:8; stroke-opacity:1; fill:none" points="726.443,1273.7 726.443,1254.8 "/>
<polyline clip-path="url(#clip800)" style="stroke:#000000; stroke-linecap:round; stroke-linejoin:round; stroke-width:8; stroke-opacity:1; fill:none" points="1074.87,1273.7 1074.87,1254.8 "/>
<polyline clip-path="url(#clip800)" style="stroke:#000000; stroke-linecap:round; stroke-linejoin:round; stroke-width:8; stroke-opacity:1; fill:none" points="1423.3,1273.7 1423.3,1254.8 "/>
<polyline clip-path="url(#clip800)" style="stroke:#000000; stroke-linecap:round; stroke-linejoin:round; stroke-width:8; stroke-opacity:1; fill:none" points="1771.72,1273.7 1771.72,1254.8 "/>
<polyline clip-path="url(#clip800)" style="stroke:#000000; stroke-linecap:round; stroke-linejoin:round; stroke-width:8; stroke-opacity:1; fill:none" points="2120.15,1273.7 2120.15,1254.8 "/>
<path clip-path="url(#clip800)" d="M651.05 1316.33 Q643.827 1316.33 640.17 1323.46 Q636.559 1330.55 636.559 1344.81 Q636.559 1359.02 640.17 1366.15 Q643.827 1373.23 651.05 1373.23 Q658.318 1373.23 661.929 1366.15 Q665.587 1359.02 665.587 1344.81 Q665.587 1330.55 661.929 1323.46 Q658.318 1316.33 651.05 1316.33 M651.05 1308.93 Q662.67 1308.93 668.781 1318.14 Q674.938 1327.31 674.938 1344.81 Q674.938 1362.26 668.781 1371.47 Q662.67 1380.64 651.05 1380.64 Q639.429 1380.64 633.272 1371.47 Q627.161 1362.26 627.161 1344.81 Q627.161 1327.31 633.272 1318.14 Q639.429 1308.93 651.05 1308.93 Z" fill="#000000" fill-rule="nonzero" fill-opacity="1" /><path clip-path="url(#clip800)" d="M691.373 1367.54 L701.142 1367.54 L701.142 1379.3 L691.373 1379.3 L691.373 1367.54 Z" fill="#000000" fill-rule="nonzero" fill-opacity="1" /><path clip-path="url(#clip800)" d="M741.512 1316.33 Q734.29 1316.33 730.632 1323.46 Q727.021 1330.55 727.021 1344.81 Q727.021 1359.02 730.632 1366.15 Q734.29 1373.23 741.512 1373.23 Q748.781 1373.23 752.392 1366.15 Q756.049 1359.02 756.049 1344.81 Q756.049 1330.55 752.392 1323.46 Q748.781 1316.33 741.512 1316.33 M741.512 1308.93 Q753.132 1308.93 759.243 1318.14 Q765.401 1327.31 765.401 1344.81 Q765.401 1362.26 759.243 1371.47 Q753.132 1380.64 741.512 1380.64 Q729.892 1380.64 723.734 1371.47 Q717.623 1362.26 717.623 1344.81 Q717.623 1327.31 723.734 1318.14 Q729.892 1308.93 741.512 1308.93 Z" fill="#000000" fill-rule="nonzero" fill-opacity="1" /><path clip-path="url(#clip800)" d="M801.836 1316.33 Q794.614 1316.33 790.956 1323.46 Q787.345 1330.55 787.345 1344.81 Q787.345 1359.02 790.956 1366.15 Q794.614 1373.23 801.836 1373.23 Q809.104 1373.23 812.715 1366.15 Q816.373 1359.02 816.373 1344.81 Q816.373 1330.55 812.715 1323.46 Q809.104 1316.33 801.836 1316.33 M801.836 1308.93 Q813.456 1308.93 819.567 1318.14 Q825.725 1327.31 825.725 1344.81 Q825.725 1362.26 819.567 1371.47 Q813.456 1380.64 801.836 1380.64 Q790.215 1380.64 784.058 1371.47 Q777.947 1362.26 777.947 1344.81 Q777.947 1327.31 784.058 1318.14 Q790.215 1308.93 801.836 1308.93 Z" fill="#000000" fill-rule="nonzero" fill-opacity="1" /><path clip-path="url(#clip800)" d="M1000.47 1316.33 Q993.249 1316.33 989.592 1323.46 Q985.981 1330.55 985.981 1344.81 Q985.981 1359.02 989.592 1366.15 Q993.249 1373.23 1000.47 1373.23 Q1007.74 1373.23 1011.35 1366.15 Q1015.01 1359.02 1015.01 1344.81 Q1015.01 1330.55 1011.35 1323.46 Q1007.74 1316.33 1000.47 1316.33 M1000.47 1308.93 Q1012.09 1308.93 1018.2 1318.14 Q1024.36 1327.31 1024.36 1344.81 Q1024.36 1362.26 1018.2 1371.47 Q1012.09 1380.64 1000.47 1380.64 Q988.851 1380.64 982.694 1371.47 Q976.583 1362.26 976.583 1344.81 Q976.583 1327.31 982.694 1318.14 Q988.851 1308.93 1000.47 1308.93 Z" fill="#000000" fill-rule="nonzero" fill-opacity="1" /><path clip-path="url(#clip800)" d="M1040.8 1367.54 L1050.56 1367.54 L1050.56 1379.3 L1040.8 1379.3 L1040.8 1367.54 Z" fill="#000000" fill-rule="nonzero" fill-opacity="1" /><path clip-path="url(#clip800)" d="M1078.99 1371.43 L1111.63 1371.43 L1111.63 1379.3 L1067.74 1379.3 L1067.74 1371.43 Q1073.06 1365.92 1082.23 1356.66 Q1091.44 1347.35 1093.8 1344.67 Q1098.3 1339.62 1100.05 1336.15 Q1101.86 1332.63 1101.86 1329.25 Q1101.86 1323.74 1097.97 1320.27 Q1094.13 1316.8 1087.92 1316.8 Q1083.53 1316.8 1078.62 1318.32 Q1073.76 1319.85 1068.2 1322.95 L1068.2 1313.51 Q1073.85 1311.24 1078.76 1310.08 Q1083.67 1308.93 1087.74 1308.93 Q1098.48 1308.93 1104.87 1314.3 Q1111.26 1319.67 1111.26 1328.65 Q1111.26 1332.91 1109.64 1336.75 Q1108.06 1340.55 1103.85 1345.73 Q1102.69 1347.07 1096.49 1353.51 Q1090.29 1359.9 1078.99 1371.43 Z" fill="#000000" fill-rule="nonzero" fill-opacity="1" /><path clip-path="url(#clip800)" d="M1131.35 1310.18 L1168.06 1310.18 L1168.06 1318.05 L1139.92 1318.05 L1139.92 1334.99 Q1141.95 1334.3 1143.99 1333.97 Q1146.03 1333.6 1148.06 1333.6 Q1159.64 1333.6 1166.4 1339.94 Q1173.16 1346.29 1173.16 1357.12 Q1173.16 1368.28 1166.21 1374.48 Q1159.27 1380.64 1146.63 1380.64 Q1142.28 1380.64 1137.74 1379.9 Q1133.25 1379.16 1128.43 1377.68 L1128.43 1368.28 Q1132.6 1370.55 1137.04 1371.66 Q1141.49 1372.77 1146.44 1372.77 Q1154.45 1372.77 1159.13 1368.56 Q1163.8 1364.34 1163.8 1357.12 Q1163.8 1349.9 1159.13 1345.68 Q1154.45 1341.47 1146.44 1341.47 Q1142.69 1341.47 1138.94 1342.31 Q1135.24 1343.14 1131.35 1344.9 L1131.35 1310.18 Z" fill="#000000" fill-rule="nonzero" fill-opacity="1" /><path clip-path="url(#clip800)" d="M1347.9 1316.33 Q1340.68 1316.33 1337.02 1323.46 Q1333.41 1330.55 1333.41 1344.81 Q1333.41 1359.02 1337.02 1366.15 Q1340.68 1373.23 1347.9 1373.23 Q1355.17 1373.23 1358.78 1366.15 Q1362.44 1359.02 1362.44 1344.81 Q1362.44 1330.55 1358.78 1323.46 Q1355.17 1316.33 1347.9 1316.33 M1347.9 1308.93 Q1359.52 1308.93 1365.63 1318.14 Q1371.79 1327.31 1371.79 1344.81 Q1371.79 1362.26 1365.63 1371.47 Q1359.52 1380.64 1347.9 1380.64 Q1336.28 1380.64 1330.12 1371.47 Q1324.01 1362.26 1324.01 1344.81 Q1324.01 1327.31 1330.12 1318.14 Q1336.28 1308.93 1347.9 1308.93 Z" fill="#000000" fill-rule="nonzero" fill-opacity="1" /><path clip-path="url(#clip800)" d="M1388.23 1367.54 L1397.99 1367.54 L1397.99 1379.3 L1388.23 1379.3 L1388.23 1367.54 Z" fill="#000000" fill-rule="nonzero" fill-opacity="1" /><path clip-path="url(#clip800)" d="M1418.46 1310.18 L1455.17 1310.18 L1455.17 1318.05 L1427.02 1318.05 L1427.02 1334.99 Q1429.06 1334.3 1431.1 1333.97 Q1433.13 1333.6 1435.17 1333.6 Q1446.74 1333.6 1453.5 1339.94 Q1460.26 1346.29 1460.26 1357.12 Q1460.26 1368.28 1453.32 1374.48 Q1446.37 1380.64 1433.74 1380.64 Q1429.38 1380.64 1424.85 1379.9 Q1420.36 1379.16 1415.54 1377.68 L1415.54 1368.28 Q1419.71 1370.55 1424.15 1371.66 Q1428.6 1372.77 1433.55 1372.77 Q1441.56 1372.77 1446.24 1368.56 Q1450.91 1364.34 1450.91 1357.12 Q1450.91 1349.9 1446.24 1345.68 Q1441.56 1341.47 1433.55 1341.47 Q1429.8 1341.47 1426.05 1342.31 Q1422.35 1343.14 1418.46 1344.9 L1418.46 1310.18 Z" fill="#000000" fill-rule="nonzero" fill-opacity="1" /><path clip-path="url(#clip800)" d="M1498.69 1316.33 Q1491.47 1316.33 1487.81 1323.46 Q1484.2 1330.55 1484.2 1344.81 Q1484.2 1359.02 1487.81 1366.15 Q1491.47 1373.23 1498.69 1373.23 Q1505.96 1373.23 1509.57 1366.15 Q1513.23 1359.02 1513.23 1344.81 Q1513.23 1330.55 1509.57 1323.46 Q1505.96 1316.33 1498.69 1316.33 M1498.69 1308.93 Q1510.31 1308.93 1516.42 1318.14 Q1522.58 1327.31 1522.58 1344.81 Q1522.58 1362.26 1516.42 1371.47 Q1510.31 1380.64 1498.69 1380.64 Q1487.07 1380.64 1480.91 1371.47 Q1474.8 1362.26 1474.8 1344.81 Q1474.8 1327.31 1480.91 1318.14 Q1487.07 1308.93 1498.69 1308.93 Z" fill="#000000" fill-rule="nonzero" fill-opacity="1" /><path clip-path="url(#clip800)" d="M1697.32 1316.33 Q1690.1 1316.33 1686.45 1323.46 Q1682.83 1330.55 1682.83 1344.81 Q1682.83 1359.02 1686.45 1366.15 Q1690.1 1373.23 1697.32 1373.23 Q1704.59 1373.23 1708.2 1366.15 Q1711.86 1359.02 1711.86 1344.81 Q1711.86 1330.55 1708.2 1323.46 Q1704.59 1316.33 1697.32 1316.33 M1697.32 1308.93 Q1708.94 1308.93 1715.06 1318.14 Q1721.21 1327.31 1721.21 1344.81 Q1721.21 1362.26 1715.06 1371.47 Q1708.94 1380.64 1697.32 1380.64 Q1685.7 1380.64 1679.55 1371.47 Q1673.44 1362.26 1673.44 1344.81 Q1673.44 1327.31 1679.55 1318.14 Q1685.7 1308.93 1697.32 1308.93 Z" fill="#000000" fill-rule="nonzero" fill-opacity="1" /><path clip-path="url(#clip800)" d="M1737.65 1367.54 L1747.42 1367.54 L1747.42 1379.3 L1737.65 1379.3 L1737.65 1367.54 Z" fill="#000000" fill-rule="nonzero" fill-opacity="1" /><path clip-path="url(#clip800)" d="M1765.43 1310.18 L1809.87 1310.18 L1809.87 1314.16 L1784.78 1379.3 L1775.01 1379.3 L1798.62 1318.05 L1765.43 1318.05 L1765.43 1310.18 Z" fill="#000000" fill-rule="nonzero" fill-opacity="1" /><path clip-path="url(#clip800)" d="M1828.2 1310.18 L1864.92 1310.18 L1864.92 1318.05 L1836.77 1318.05 L1836.77 1334.99 Q1838.81 1334.3 1840.84 1333.97 Q1842.88 1333.6 1844.92 1333.6 Q1856.49 1333.6 1863.25 1339.94 Q1870.01 1346.29 1870.01 1357.12 Q1870.01 1368.28 1863.06 1374.48 Q1856.12 1380.64 1843.48 1380.64 Q1839.13 1380.64 1834.59 1379.9 Q1830.1 1379.16 1825.29 1377.68 L1825.29 1368.28 Q1829.45 1370.55 1833.9 1371.66 Q1838.34 1372.77 1843.3 1372.77 Q1851.31 1372.77 1855.98 1368.56 Q1860.66 1364.34 1860.66 1357.12 Q1860.66 1349.9 1855.98 1345.68 Q1851.31 1341.47 1843.3 1341.47 Q1839.55 1341.47 1835.8 1342.31 Q1832.09 1343.14 1828.2 1344.9 L1828.2 1310.18 Z" fill="#000000" fill-rule="nonzero" fill-opacity="1" /><path clip-path="url(#clip800)" d="M2024.29 1371.43 L2039.57 1371.43 L2039.57 1318.69 L2022.95 1322.03 L2022.95 1313.51 L2039.48 1310.18 L2048.83 1310.18 L2048.83 1371.43 L2064.11 1371.43 L2064.11 1379.3 L2024.29 1379.3 L2024.29 1371.43 Z" fill="#000000" fill-rule="nonzero" fill-opacity="1" /><path clip-path="url(#clip800)" d="M2083 1367.54 L2092.76 1367.54 L2092.76 1379.3 L2083 1379.3 L2083 1367.54 Z" fill="#000000" fill-rule="nonzero" fill-opacity="1" /><path clip-path="url(#clip800)" d="M2133.13 1316.33 Q2125.91 1316.33 2122.26 1323.46 Q2118.64 1330.55 2118.64 1344.81 Q2118.64 1359.02 2122.26 1366.15 Q2125.91 1373.23 2133.13 1373.23 Q2140.4 1373.23 2144.01 1366.15 Q2147.67 1359.02 2147.67 1344.81 Q2147.67 1330.55 2144.01 1323.46 Q2140.4 1316.33 2133.13 1316.33 M2133.13 1308.93 Q2144.76 1308.93 2150.87 1318.14 Q2157.02 1327.31 2157.02 1344.81 Q2157.02 1362.26 2150.87 1371.47 Q2144.76 1380.64 2133.13 1380.64 Q2121.51 1380.64 2115.36 1371.47 Q2109.25 1362.26 2109.25 1344.81 Q2109.25 1327.31 2115.36 1318.14 Q2121.51 1308.93 2133.13 1308.93 Z" fill="#000000" fill-rule="nonzero" fill-opacity="1" /><path clip-path="url(#clip800)" d="M2193.46 1316.33 Q2186.24 1316.33 2182.58 1323.46 Q2178.97 1330.55 2178.97 1344.81 Q2178.97 1359.02 2182.58 1366.15 Q2186.24 1373.23 2193.46 1373.23 Q2200.73 1373.23 2204.34 1366.15 Q2208 1359.02 2208 1344.81 Q2208 1330.55 2204.34 1323.46 Q2200.73 1316.33 2193.46 1316.33 M2193.46 1308.93 Q2205.08 1308.93 2211.19 1318.14 Q2217.35 1327.31 2217.35 1344.81 Q2217.35 1362.26 2211.19 1371.47 Q2205.08 1380.64 2193.46 1380.64 Q2181.84 1380.64 2175.68 1371.47 Q2169.57 1362.26 2169.57 1344.81 Q2169.57 1327.31 2175.68 1318.14 Q2181.84 1308.93 2193.46 1308.93 Z" fill="#000000" fill-rule="nonzero" fill-opacity="1" /><path clip-path="url(#clip800)" d="M1378.53 1484.39 L1378.53 1527.42 L1366.81 1527.42 L1366.81 1484.77 Q1366.81 1474.65 1362.87 1469.62 Q1358.92 1464.59 1351.03 1464.59 Q1341.54 1464.59 1336.07 1470.64 Q1330.59 1476.69 1330.59 1487.13 L1330.59 1527.42 L1318.82 1527.42 L1318.82 1428.37 L1330.59 1428.37 L1330.59 1467.2 Q1334.79 1460.77 1340.46 1457.59 Q1346.19 1454.41 1353.64 1454.41 Q1365.92 1454.41 1372.22 1462.05 Q1378.53 1469.62 1378.53 1484.39 Z" fill="#000000" fill-rule="nonzero" fill-opacity="1" /><path clip-path="url(#clip800)" d="M1429.51 1464.34 Q1420.09 1464.34 1414.62 1471.72 Q1409.14 1479.04 1409.14 1491.84 Q1409.14 1504.63 1414.56 1512.02 Q1420.03 1519.34 1429.51 1519.34 Q1438.87 1519.34 1444.35 1511.96 Q1449.82 1504.57 1449.82 1491.84 Q1449.82 1479.17 1444.35 1471.79 Q1438.87 1464.34 1429.51 1464.34 M1429.51 1454.41 Q1444.79 1454.41 1453.51 1464.34 Q1462.23 1474.27 1462.23 1491.84 Q1462.23 1509.35 1453.51 1519.34 Q1444.79 1529.27 1429.51 1529.27 Q1414.17 1529.27 1405.45 1519.34 Q1396.8 1509.35 1396.8 1491.84 Q1396.8 1474.27 1405.45 1464.34 Q1414.17 1454.41 1429.51 1454.41 Z" fill="#000000" fill-rule="nonzero" fill-opacity="1" /><path clip-path="url(#clip800)" d="M1480.44 1499.29 L1480.44 1456.13 L1492.15 1456.13 L1492.15 1498.84 Q1492.15 1508.96 1496.1 1514.06 Q1500.05 1519.08 1507.94 1519.08 Q1517.43 1519.08 1522.9 1513.04 Q1528.44 1506.99 1528.44 1496.55 L1528.44 1456.13 L1540.15 1456.13 L1540.15 1527.42 L1528.44 1527.42 L1528.44 1516.47 Q1524.17 1522.97 1518.51 1526.15 Q1512.91 1529.27 1505.46 1529.27 Q1493.17 1529.27 1486.81 1521.63 Q1480.44 1513.99 1480.44 1499.29 M1509.91 1454.41 L1509.91 1454.41 Z" fill="#000000" fill-rule="nonzero" fill-opacity="1" /><path clip-path="url(#clip800)" d="M1605.59 1467.08 Q1603.62 1465.93 1601.26 1465.42 Q1598.97 1464.85 1596.17 1464.85 Q1586.24 1464.85 1580.89 1471.34 Q1575.61 1477.77 1575.61 1489.87 L1575.61 1527.42 L1563.83 1527.42 L1563.83 1456.13 L1575.61 1456.13 L1575.61 1467.2 Q1579.3 1460.71 1585.22 1457.59 Q1591.14 1454.41 1599.61 1454.41 Q1600.82 1454.41 1602.28 1454.6 Q1603.74 1454.73 1605.53 1455.05 L1605.59 1467.08 Z" fill="#000000" fill-rule="nonzero" fill-opacity="1" /><path clip-path="url(#clip800)" d="M1663.33 1458.23 L1663.33 1469.3 Q1658.36 1466.76 1653.01 1465.49 Q1647.67 1464.21 1641.94 1464.21 Q1633.22 1464.21 1628.83 1466.89 Q1624.5 1469.56 1624.5 1474.91 Q1624.5 1478.98 1627.62 1481.34 Q1630.73 1483.63 1640.16 1485.73 L1644.17 1486.62 Q1656.64 1489.29 1661.86 1494.19 Q1667.15 1499.03 1667.15 1507.75 Q1667.15 1517.68 1659.25 1523.48 Q1651.42 1529.27 1637.67 1529.27 Q1631.94 1529.27 1625.71 1528.12 Q1619.53 1527.04 1612.66 1524.81 L1612.66 1512.72 Q1619.15 1516.09 1625.45 1517.81 Q1631.75 1519.47 1637.93 1519.47 Q1646.2 1519.47 1650.66 1516.67 Q1655.12 1513.8 1655.12 1508.64 Q1655.12 1503.87 1651.87 1501.32 Q1648.69 1498.78 1637.8 1496.42 L1633.73 1495.47 Q1622.84 1493.18 1618 1488.47 Q1613.17 1483.69 1613.17 1475.42 Q1613.17 1465.36 1620.3 1459.88 Q1627.42 1454.41 1640.54 1454.41 Q1647.03 1454.41 1652.76 1455.36 Q1658.49 1456.32 1663.33 1458.23 Z" fill="#000000" fill-rule="nonzero" fill-opacity="1" /><polyline clip-path="url(#clip802)" style="stroke:#000000; stroke-linecap:round; stroke-linejoin:round; stroke-width:4; stroke-opacity:0.1; fill:none" points="680.45,1123.91 2305.51,1123.91 "/>
<polyline clip-path="url(#clip802)" style="stroke:#000000; stroke-linecap:round; stroke-linejoin:round; stroke-width:4; stroke-opacity:0.1; fill:none" points="680.45,802.589 2305.51,802.589 "/>
<polyline clip-path="url(#clip802)" style="stroke:#000000; stroke-linecap:round; stroke-linejoin:round; stroke-width:4; stroke-opacity:0.1; fill:none" points="680.45,481.265 2305.51,481.265 "/>
<polyline clip-path="url(#clip802)" style="stroke:#000000; stroke-linecap:round; stroke-linejoin:round; stroke-width:4; stroke-opacity:0.1; fill:none" points="680.45,159.942 2305.51,159.942 "/>
<polyline clip-path="url(#clip800)" style="stroke:#000000; stroke-linecap:round; stroke-linejoin:round; stroke-width:8; stroke-opacity:1; fill:none" points="680.45,1273.7 680.45,94.4882 "/>
<polyline clip-path="url(#clip800)" style="stroke:#000000; stroke-linecap:round; stroke-linejoin:round; stroke-width:8; stroke-opacity:1; fill:none" points="680.45,1123.91 699.348,1123.91 "/>
<polyline clip-path="url(#clip800)" style="stroke:#000000; stroke-linecap:round; stroke-linejoin:round; stroke-width:8; stroke-opacity:1; fill:none" points="680.45,802.589 699.348,802.589 "/>
<polyline clip-path="url(#clip800)" style="stroke:#000000; stroke-linecap:round; stroke-linejoin:round; stroke-width:8; stroke-opacity:1; fill:none" points="680.45,481.265 699.348,481.265 "/>
<polyline clip-path="url(#clip800)" style="stroke:#000000; stroke-linecap:round; stroke-linejoin:round; stroke-width:8; stroke-opacity:1; fill:none" points="680.45,159.942 699.348,159.942 "/>
<path clip-path="url(#clip800)" d="M449.868 1089.35 L486.581 1089.35 L486.581 1097.22 L458.433 1097.22 L458.433 1114.17 Q460.47 1113.47 462.507 1113.15 Q464.544 1112.78 466.581 1112.78 Q478.155 1112.78 484.914 1119.12 Q491.673 1125.46 491.673 1136.3 Q491.673 1147.45 484.729 1153.66 Q477.785 1159.82 465.146 1159.82 Q460.794 1159.82 456.257 1159.07 Q451.766 1158.33 446.951 1156.85 L446.951 1147.45 Q451.118 1149.72 455.562 1150.83 Q460.007 1151.95 464.961 1151.95 Q472.97 1151.95 477.646 1147.73 Q482.322 1143.52 482.322 1136.3 Q482.322 1129.08 477.646 1124.86 Q472.97 1120.65 464.961 1120.65 Q461.211 1120.65 457.461 1121.48 Q453.757 1122.32 449.868 1124.08 L449.868 1089.35 Z" fill="#000000" fill-rule="nonzero" fill-opacity="1" /><path clip-path="url(#clip800)" d="M530.099 1095.51 Q522.877 1095.51 519.22 1102.64 Q515.608 1109.72 515.608 1123.98 Q515.608 1138.2 519.22 1145.33 Q522.877 1152.41 530.099 1152.41 Q537.368 1152.41 540.979 1145.33 Q544.636 1138.2 544.636 1123.98 Q544.636 1109.72 540.979 1102.64 Q537.368 1095.51 530.099 1095.51 M530.099 1088.1 Q541.719 1088.1 547.831 1097.32 Q553.988 1106.48 553.988 1123.98 Q553.988 1141.44 547.831 1150.65 Q541.719 1159.82 530.099 1159.82 Q518.479 1159.82 512.321 1150.65 Q506.21 1141.44 506.21 1123.98 Q506.21 1106.48 512.321 1097.32 Q518.479 1088.1 530.099 1088.1 Z" fill="#000000" fill-rule="nonzero" fill-opacity="1" /><path clip-path="url(#clip800)" d="M570.423 1146.71 L580.191 1146.71 L580.191 1158.47 L570.423 1158.47 L570.423 1146.71 Z" fill="#000000" fill-rule="nonzero" fill-opacity="1" /><path clip-path="url(#clip800)" d="M620.562 1095.51 Q613.339 1095.51 609.682 1102.64 Q606.071 1109.72 606.071 1123.98 Q606.071 1138.2 609.682 1145.33 Q613.339 1152.41 620.562 1152.41 Q627.83 1152.41 631.441 1145.33 Q635.099 1138.2 635.099 1123.98 Q635.099 1109.72 631.441 1102.64 Q627.83 1095.51 620.562 1095.51 M620.562 1088.1 Q632.182 1088.1 638.293 1097.32 Q644.45 1106.48 644.45 1123.98 Q644.45 1141.44 638.293 1150.65 Q632.182 1159.82 620.562 1159.82 Q608.941 1159.82 602.784 1150.65 Q596.673 1141.44 596.673 1123.98 Q596.673 1106.48 602.784 1097.32 Q608.941 1088.1 620.562 1088.1 Z" fill="#000000" fill-rule="nonzero" fill-opacity="1" /><path clip-path="url(#clip800)" d="M391.072 829.279 L406.35 829.279 L406.35 776.548 L389.73 779.881 L389.73 771.363 L406.257 768.029 L415.609 768.029 L415.609 829.279 L430.887 829.279 L430.887 837.149 L391.072 837.149 L391.072 829.279 Z" fill="#000000" fill-rule="nonzero" fill-opacity="1" /><path clip-path="url(#clip800)" d="M469.775 774.187 Q462.553 774.187 458.896 781.316 Q455.285 788.4 455.285 802.659 Q455.285 816.872 458.896 824.001 Q462.553 831.084 469.775 831.084 Q477.044 831.084 480.655 824.001 Q484.312 816.872 484.312 802.659 Q484.312 788.4 480.655 781.316 Q477.044 774.187 469.775 774.187 M469.775 766.779 Q481.396 766.779 487.507 775.992 Q493.664 785.159 493.664 802.659 Q493.664 820.112 487.507 829.325 Q481.396 838.492 469.775 838.492 Q458.155 838.492 451.998 829.325 Q445.887 820.112 445.887 802.659 Q445.887 785.159 451.998 775.992 Q458.155 766.779 469.775 766.779 Z" fill="#000000" fill-rule="nonzero" fill-opacity="1" /><path clip-path="url(#clip800)" d="M530.099 774.187 Q522.877 774.187 519.22 781.316 Q515.608 788.4 515.608 802.659 Q515.608 816.872 519.22 824.001 Q522.877 831.084 530.099 831.084 Q537.368 831.084 540.979 824.001 Q544.636 816.872 544.636 802.659 Q544.636 788.4 540.979 781.316 Q537.368 774.187 530.099 774.187 M530.099 766.779 Q541.719 766.779 547.831 775.992 Q553.988 785.159 553.988 802.659 Q553.988 820.112 547.831 829.325 Q541.719 838.492 530.099 838.492 Q518.479 838.492 512.321 829.325 Q506.21 820.112 506.21 802.659 Q506.21 785.159 512.321 775.992 Q518.479 766.779 530.099 766.779 Z" fill="#000000" fill-rule="nonzero" fill-opacity="1" /><path clip-path="url(#clip800)" d="M570.423 825.39 L580.191 825.39 L580.191 837.149 L570.423 837.149 L570.423 825.39 Z" fill="#000000" fill-rule="nonzero" fill-opacity="1" /><path clip-path="url(#clip800)" d="M620.562 774.187 Q613.339 774.187 609.682 781.316 Q606.071 788.4 606.071 802.659 Q606.071 816.872 609.682 824.001 Q613.339 831.084 620.562 831.084 Q627.83 831.084 631.441 824.001 Q635.099 816.872 635.099 802.659 Q635.099 788.4 631.441 781.316 Q627.83 774.187 620.562 774.187 M620.562 766.779 Q632.182 766.779 638.293 775.992 Q644.45 785.159 644.45 802.659 Q644.45 820.112 638.293 829.325 Q632.182 838.492 620.562 838.492 Q608.941 838.492 602.784 829.325 Q596.673 820.112 596.673 802.659 Q596.673 785.159 602.784 775.992 Q608.941 766.779 620.562 766.779 Z" fill="#000000" fill-rule="nonzero" fill-opacity="1" /><path clip-path="url(#clip800)" d="M391.072 507.955 L406.35 507.955 L406.35 455.224 L389.73 458.557 L389.73 450.039 L406.257 446.705 L415.609 446.705 L415.609 507.955 L430.887 507.955 L430.887 515.825 L391.072 515.825 L391.072 507.955 Z" fill="#000000" fill-rule="nonzero" fill-opacity="1" /><path clip-path="url(#clip800)" d="M449.868 446.705 L486.581 446.705 L486.581 454.576 L458.433 454.576 L458.433 471.52 Q460.47 470.826 462.507 470.502 Q464.544 470.131 466.581 470.131 Q478.155 470.131 484.914 476.474 Q491.673 482.816 491.673 493.65 Q491.673 504.807 484.729 511.011 Q477.785 517.168 465.146 517.168 Q460.794 517.168 456.257 516.427 Q451.766 515.687 446.951 514.205 L446.951 504.807 Q451.118 507.076 455.562 508.187 Q460.007 509.298 464.961 509.298 Q472.97 509.298 477.646 505.085 Q482.322 500.872 482.322 493.65 Q482.322 486.427 477.646 482.215 Q472.97 478.002 464.961 478.002 Q461.211 478.002 457.461 478.835 Q453.757 479.668 449.868 481.428 L449.868 446.705 Z" fill="#000000" fill-rule="nonzero" fill-opacity="1" /><path clip-path="url(#clip800)" d="M530.099 452.863 Q522.877 452.863 519.22 459.992 Q515.608 467.076 515.608 481.335 Q515.608 495.548 519.22 502.677 Q522.877 509.761 530.099 509.761 Q537.368 509.761 540.979 502.677 Q544.636 495.548 544.636 481.335 Q544.636 467.076 540.979 459.992 Q537.368 452.863 530.099 452.863 M530.099 445.455 Q541.719 445.455 547.831 454.668 Q553.988 463.835 553.988 481.335 Q553.988 498.789 547.831 508.001 Q541.719 517.168 530.099 517.168 Q518.479 517.168 512.321 508.001 Q506.21 498.789 506.21 481.335 Q506.21 463.835 512.321 454.668 Q518.479 445.455 530.099 445.455 Z" fill="#000000" fill-rule="nonzero" fill-opacity="1" /><path clip-path="url(#clip800)" d="M570.423 504.066 L580.191 504.066 L580.191 515.825 L570.423 515.825 L570.423 504.066 Z" fill="#000000" fill-rule="nonzero" fill-opacity="1" /><path clip-path="url(#clip800)" d="M620.562 452.863 Q613.339 452.863 609.682 459.992 Q606.071 467.076 606.071 481.335 Q606.071 495.548 609.682 502.677 Q613.339 509.761 620.562 509.761 Q627.83 509.761 631.441 502.677 Q635.099 495.548 635.099 481.335 Q635.099 467.076 631.441 459.992 Q627.83 452.863 620.562 452.863 M620.562 445.455 Q632.182 445.455 638.293 454.668 Q644.45 463.835 644.45 481.335 Q644.45 498.789 638.293 508.001 Q632.182 517.168 620.562 517.168 Q608.941 517.168 602.784 508.001 Q596.673 498.789 596.673 481.335 Q596.673 463.835 602.784 454.668 Q608.941 445.455 620.562 445.455 Z" fill="#000000" fill-rule="nonzero" fill-opacity="1" /><path clip-path="url(#clip800)" d="M397.507 186.631 L430.146 186.631 L430.146 194.502 L386.257 194.502 L386.257 186.631 Q391.581 181.122 400.748 171.863 Q409.961 162.557 412.322 159.872 Q416.813 154.826 418.572 151.354 Q420.378 147.835 420.378 144.456 Q420.378 138.946 416.489 135.474 Q412.646 132.002 406.442 132.002 Q402.044 132.002 397.137 133.53 Q392.276 135.058 386.72 138.159 L386.72 128.715 Q392.368 126.446 397.276 125.289 Q402.183 124.132 406.257 124.132 Q416.998 124.132 423.387 129.502 Q429.776 134.872 429.776 143.854 Q429.776 148.113 428.155 151.956 Q426.581 155.752 422.368 160.937 Q421.211 162.28 415.007 168.715 Q408.803 175.104 397.507 186.631 Z" fill="#000000" fill-rule="nonzero" fill-opacity="1" /><path clip-path="url(#clip800)" d="M469.775 131.539 Q462.553 131.539 458.896 138.669 Q455.285 145.752 455.285 160.011 Q455.285 174.224 458.896 181.354 Q462.553 188.437 469.775 188.437 Q477.044 188.437 480.655 181.354 Q484.312 174.224 484.312 160.011 Q484.312 145.752 480.655 138.669 Q477.044 131.539 469.775 131.539 M469.775 124.132 Q481.396 124.132 487.507 133.345 Q493.664 142.511 493.664 160.011 Q493.664 177.465 487.507 186.678 Q481.396 195.844 469.775 195.844 Q458.155 195.844 451.998 186.678 Q445.887 177.465 445.887 160.011 Q445.887 142.511 451.998 133.345 Q458.155 124.132 469.775 124.132 Z" fill="#000000" fill-rule="nonzero" fill-opacity="1" /><path clip-path="url(#clip800)" d="M530.099 131.539 Q522.877 131.539 519.22 138.669 Q515.608 145.752 515.608 160.011 Q515.608 174.224 519.22 181.354 Q522.877 188.437 530.099 188.437 Q537.368 188.437 540.979 181.354 Q544.636 174.224 544.636 160.011 Q544.636 145.752 540.979 138.669 Q537.368 131.539 530.099 131.539 M530.099 124.132 Q541.719 124.132 547.831 133.345 Q553.988 142.511 553.988 160.011 Q553.988 177.465 547.831 186.678 Q541.719 195.844 530.099 195.844 Q518.479 195.844 512.321 186.678 Q506.21 177.465 506.21 160.011 Q506.21 142.511 512.321 133.345 Q518.479 124.132 530.099 124.132 Z" fill="#000000" fill-rule="nonzero" fill-opacity="1" /><path clip-path="url(#clip800)" d="M570.423 182.742 L580.191 182.742 L580.191 194.502 L570.423 194.502 L570.423 182.742 Z" fill="#000000" fill-rule="nonzero" fill-opacity="1" /><path clip-path="url(#clip800)" d="M620.562 131.539 Q613.339 131.539 609.682 138.669 Q606.071 145.752 606.071 160.011 Q606.071 174.224 609.682 181.354 Q613.339 188.437 620.562 188.437 Q627.83 188.437 631.441 181.354 Q635.099 174.224 635.099 160.011 Q635.099 145.752 631.441 138.669 Q627.83 131.539 620.562 131.539 M620.562 124.132 Q632.182 124.132 638.293 133.345 Q644.45 142.511 644.45 160.011 Q644.45 177.465 638.293 186.678 Q632.182 195.844 620.562 195.844 Q608.941 195.844 602.784 186.678 Q596.673 177.465 596.673 160.011 Q596.673 142.511 602.784 133.345 Q608.941 124.132 620.562 124.132 Z" fill="#000000" fill-rule="nonzero" fill-opacity="1" /><path clip-path="url(#clip800)" d="M253.187 913.798 L264.136 913.798 Q261.398 918.764 260.062 923.793 Q258.661 928.758 258.661 933.85 Q258.661 945.245 265.918 951.547 Q273.111 957.849 286.161 957.849 Q299.211 957.849 306.468 951.547 Q313.661 945.245 313.661 933.85 Q313.661 928.758 312.324 923.793 Q310.924 918.764 308.186 913.798 L319.008 913.798 Q321.3 918.7 322.446 923.984 Q323.591 929.204 323.591 935.124 Q323.591 951.229 313.47 960.714 Q303.348 970.199 286.161 970.199 Q268.719 970.199 258.725 960.65 Q248.731 951.038 248.731 934.36 Q248.731 928.949 249.876 923.793 Q250.959 918.636 253.187 913.798 Z" fill="#000000" fill-rule="nonzero" fill-opacity="1" /><path clip-path="url(#clip800)" d="M258.661 865.801 Q258.661 875.222 266.045 880.697 Q273.366 886.171 286.161 886.171 Q298.956 886.171 306.34 880.76 Q313.661 875.286 313.661 865.801 Q313.661 856.443 306.277 850.969 Q298.892 845.494 286.161 845.494 Q273.493 845.494 266.109 850.969 Q258.661 856.443 258.661 865.801 M248.731 865.801 Q248.731 850.523 258.661 841.802 Q268.592 833.081 286.161 833.081 Q303.667 833.081 313.661 841.802 Q323.591 850.523 323.591 865.801 Q323.591 881.142 313.661 889.863 Q303.667 898.521 286.161 898.521 Q268.592 898.521 258.661 889.863 Q248.731 881.142 248.731 865.801 Z" fill="#000000" fill-rule="nonzero" fill-opacity="1" /><path clip-path="url(#clip800)" d="M278.713 754.401 L321.745 754.401 L321.745 766.114 L279.095 766.114 Q268.974 766.114 263.945 770.061 Q258.916 774.008 258.916 781.901 Q258.916 791.386 264.963 796.86 Q271.011 802.335 281.45 802.335 L321.745 802.335 L321.745 814.112 L250.449 814.112 L250.449 802.335 L261.526 802.335 Q255.096 798.134 251.914 792.468 Q248.731 786.739 248.731 779.291 Q248.731 767.005 256.37 760.703 Q263.945 754.401 278.713 754.401 Z" fill="#000000" fill-rule="nonzero" fill-opacity="1" /><path clip-path="url(#clip800)" d="M253.187 679.731 L264.136 679.731 Q261.398 684.697 260.062 689.726 Q258.661 694.691 258.661 699.783 Q258.661 711.178 265.918 717.48 Q273.111 723.782 286.161 723.782 Q299.211 723.782 306.468 717.48 Q313.661 711.178 313.661 699.783 Q313.661 694.691 312.324 689.726 Q310.924 684.697 308.186 679.731 L319.008 679.731 Q321.3 684.633 322.446 689.917 Q323.591 695.136 323.591 701.057 Q323.591 717.162 313.47 726.647 Q303.348 736.132 286.161 736.132 Q268.719 736.132 258.725 726.583 Q248.731 716.971 248.731 700.293 Q248.731 694.882 249.876 689.726 Q250.959 684.569 253.187 679.731 Z" fill="#000000" fill-rule="nonzero" fill-opacity="1" /><path clip-path="url(#clip800)" d="M305.576 657.706 L305.576 644.274 L321.745 644.274 L321.745 657.706 L305.576 657.706 Z" fill="#000000" fill-rule="nonzero" fill-opacity="1" /><path clip-path="url(#clip800)" d="M234.026 504.802 L247.585 504.802 Q241.537 511.295 238.546 518.679 Q235.554 526 235.554 534.275 Q235.554 550.571 245.548 559.229 Q255.478 567.886 274.321 567.886 Q293.1 567.886 303.094 559.229 Q313.024 550.571 313.024 534.275 Q313.024 526 310.032 518.679 Q307.041 511.295 300.993 504.802 L314.425 504.802 Q319.008 511.549 321.3 519.125 Q323.591 526.636 323.591 535.039 Q323.591 556.619 310.414 569.032 Q297.174 581.445 274.321 581.445 Q251.404 581.445 238.227 569.032 Q224.987 556.619 224.987 535.039 Q224.987 526.509 227.278 518.997 Q229.506 511.422 234.026 504.802 Z" fill="#000000" fill-rule="nonzero" fill-opacity="1" /><path clip-path="url(#clip800)" d="M226.705 484.941 L226.705 465.78 L291.381 441.527 L226.705 417.146 L226.705 397.985 L321.745 397.985 L321.745 410.526 L238.291 410.526 L303.476 435.034 L303.476 447.956 L238.291 472.464 L321.745 472.464 L321.745 484.941 L226.705 484.941 Z" fill="#000000" fill-rule="nonzero" fill-opacity="1" /><polyline clip-path="url(#clip802)" style="stroke:#008000; stroke-linecap:round; stroke-linejoin:round; stroke-width:8; stroke-opacity:1; fill:none" points="726.443,999.766 865.813,1144.7 1005.18,1089.79 1144.55,1015.66 1283.93,868.412 1423.3,915.769 1562.67,867.726 1702.04,970.936 1841.41,896.453 1980.78,865.733 2120.15,802.589 2259.52,906.277 "/>
<circle clip-path="url(#clip802)" cx="726.443" cy="999.766" r="14.4" fill="#008000" fill-rule="evenodd" fill-opacity="1" stroke="#000000" stroke-opacity="1" stroke-width="6.4"/>
<circle clip-path="url(#clip802)" cx="865.813" cy="1144.7" r="14.4" fill="#008000" fill-rule="evenodd" fill-opacity="1" stroke="#000000" stroke-opacity="1" stroke-width="6.4"/>
<circle clip-path="url(#clip802)" cx="1005.18" cy="1089.79" r="14.4" fill="#008000" fill-rule="evenodd" fill-opacity="1" stroke="#000000" stroke-opacity="1" stroke-width="6.4"/>
<circle clip-path="url(#clip802)" cx="1144.55" cy="1015.66" r="14.4" fill="#008000" fill-rule="evenodd" fill-opacity="1" stroke="#000000" stroke-opacity="1" stroke-width="6.4"/>
<circle clip-path="url(#clip802)" cx="1283.93" cy="868.412" r="14.4" fill="#008000" fill-rule="evenodd" fill-opacity="1" stroke="#000000" stroke-opacity="1" stroke-width="6.4"/>
<circle clip-path="url(#clip802)" cx="1423.3" cy="915.769" r="14.4" fill="#008000" fill-rule="evenodd" fill-opacity="1" stroke="#000000" stroke-opacity="1" stroke-width="6.4"/>
<circle clip-path="url(#clip802)" cx="1562.67" cy="867.726" r="14.4" fill="#008000" fill-rule="evenodd" fill-opacity="1" stroke="#000000" stroke-opacity="1" stroke-width="6.4"/>
<circle clip-path="url(#clip802)" cx="1702.04" cy="970.936" r="14.4" fill="#008000" fill-rule="evenodd" fill-opacity="1" stroke="#000000" stroke-opacity="1" stroke-width="6.4"/>
<circle clip-path="url(#clip802)" cx="1841.41" cy="896.453" r="14.4" fill="#008000" fill-rule="evenodd" fill-opacity="1" stroke="#000000" stroke-opacity="1" stroke-width="6.4"/>
<circle clip-path="url(#clip802)" cx="1980.78" cy="865.733" r="14.4" fill="#008000" fill-rule="evenodd" fill-opacity="1" stroke="#000000" stroke-opacity="1" stroke-width="6.4"/>
<circle clip-path="url(#clip802)" cx="2120.15" cy="802.589" r="14.4" fill="#008000" fill-rule="evenodd" fill-opacity="1" stroke="#000000" stroke-opacity="1" stroke-width="6.4"/>
<circle clip-path="url(#clip802)" cx="2259.52" cy="906.277" r="14.4" fill="#008000" fill-rule="evenodd" fill-opacity="1" stroke="#000000" stroke-opacity="1" stroke-width="6.4"/>
<polyline clip-path="url(#clip802)" style="stroke:#00008b; stroke-linecap:round; stroke-linejoin:round; stroke-width:8; stroke-opacity:1; fill:none" points="726.443,1009.01 865.813,813.132 1005.18,680.647 1144.55,553.817 1283.93,484.202 1423.3,410.923 1562.67,379.647 1702.04,360.901 1841.41,350.467 1980.78,374.89 2120.15,376.735 2259.52,429.059 "/>
<path clip-path="url(#clip802)" d="M726.443 1240.32 L865.813 1041.98 L1005.18 909.113 L1144.55 769.076 L1283.93 720.473 L1423.3 658.744 L1562.67 612.973 L1702.04 596.383 L1841.41 583.124 L1980.78 598.535 L2120.15 611.549 L2259.52 640.202 L2259.52 201.795 L2120.15 145.362 L1980.78 139.296 L1841.41 137.594 L1702.04 127.862 L1562.67 155.078 L1423.3 181.934 L1283.93 251.949 L1144.55 323.968 L1005.18 446.648 L865.813 573.842 L726.443 786.024  Z" fill="#0000ff" fill-rule="evenodd" fill-opacity="0.1"/>
<polyline clip-path="url(#clip802)" style="stroke:#0000ff; stroke-linecap:round; stroke-linejoin:round; stroke-width:0; stroke-opacity:0.1; fill:none" points="726.443,1240.32 865.813,1041.98 1005.18,909.113 1144.55,769.076 1283.93,720.473 1423.3,658.744 1562.67,612.973 1702.04,596.383 1841.41,583.124 1980.78,598.535 2120.15,611.549 2259.52,640.202 "/>
</svg>
