<?xml version="1.0" encoding="utf-8"?>
<svg xmlns="http://www.w3.org/2000/svg" xmlns:xlink="http://www.w3.org/1999/xlink" width="600" height="400" viewBox="0 0 2400 1600">
<defs>
  <clipPath id="clip620">
    <rect x="0" y="0" width="2400" height="1600"/>
  </clipPath>
</defs>
<path clip-path="url(#clip620)" d="M0 1600 L2400 1600 L2400 0 L0 0  Z" fill="#ffffff" fill-rule="evenodd" fill-opacity="1"/>
<defs>
  <clipPath id="clip621">
    <rect x="480" y="0" width="1681" height="1600"/>
  </clipPath>
</defs>
<path clip-path="url(#clip620)" d="M680.45 1273.7 L2305.51 1273.7 L2305.51 94.4882 L680.45 94.4882  Z" fill="#ffffff" fill-rule="evenodd" fill-opacity="1"/>
<defs>
  <clipPath id="clip622">
    <rect x="680" y="94" width="1626" height="1180"/>
  </clipPath>
</defs>
<polyline clip-path="url(#clip622)" style="stroke:#000000; stroke-linecap:round; stroke-linejoin:round; stroke-width:4; stroke-opacity:0.1; fill:none" points="726.443,1273.7 726.443,94.4882 "/>
<polyline clip-path="url(#clip622)" style="stroke:#000000; stroke-linecap:round; stroke-linejoin:round; stroke-width:4; stroke-opacity:0.1; fill:none" points="1074.87,1273.7 1074.87,94.4882 "/>
<polyline clip-path="url(#clip622)" style="stroke:#000000; stroke-linecap:round; stroke-linejoin:round; stroke-width:4; stroke-opacity:0.1; fill:none" points="1423.3,1273.7 1423.3,94.4882 "/>
<polyline clip-path="url(#clip622)" style="stroke:#000000; stroke-linecap:round; stroke-linejoin:round; stroke-width:4; stroke-opacity:0.1; fill:none" points="1771.72,1273.7 1771.72,94.4882 "/>
<polyline clip-path="url(#clip622)" style="stroke:#000000; stroke-linecap:round; stroke-linejoin:round; stroke-width:4; stroke-opacity:0.1; fill:none" points="2120.15,1273.7 2120.15,94.4882 "/>
<polyline clip-path="url(#clip620)" style="stroke:#000000; stroke-linecap:round; stroke-linejoin:round; stroke-width:8; stroke-opacity:1; fill:none" points="680.45,1273.7 2305.51,1273.7 "/>
<polyline clip-path="url(#clip620)" style="stroke:#000000; stroke-linecap:round; stroke-linejoin:round; stroke-width:8; stroke-opacity:1; fill:none" points="726.443,1273.7 726.443,1254.8 "/>
<polyline clip-path="url(#clip620)" style="stroke:#000000; stroke-linecap:round; stroke-linejoin:round; stroke-width:8; stroke-opacity:1; fill:none" points="1074.87,1273.7 1074.87,1254.8 "/>
<polyline clip-path="url(#clip620)" style="stroke:#000000; stroke-linecap:round; stroke-linejoin:round; stroke-width:8; stroke-opacity:1; fill:none" points="1423.3,1273.7 1423.3,1254.8 "/>
<polyline clip-path="url(#clip620)" style="stroke:#000000; stroke-linecap:round; stroke-linejoin:round; stroke-width:8; stroke-opacity:1; fill:none" points="1771.72,1273.7 1771.72,1254.8 "/>
<polyline clip-path="url(#clip620)" style="stroke:#000000; stroke-linecap:round; stroke-linejoin:round; stroke-width:8; stroke-opacity:1; fill:none" points="2120.15,1273.7 2120.15,1254.8 "/>
<path clip-path="url(#clip620)" d="M651.05 1316.33 Q643.827 1316.33 640.17 1323.46 Q636.559 1330.55 636.559 1344.81 Q636.559 1359.02 640.17 1366.15 Q643.827 1373.23 651.05 1373.23 Q658.318 1373.23 661.929 1366.15 Q665.587 1359.02 665.587 1344.81 Q665.587 1330.55 661.929 1323.46 Q658.318 1316.33 651.05 1316.33 M651.05 1308.93 Q662.67 1308.93 668.781 1318.14 Q674.938 1327.31 674.938 1344.81 Q674.938 1362.26 668.781 1371.47 Q662.67 1380.64 651.05 1380.64 Q639.429 1380.64 633.272 1371.47 Q627.161 1362.26 627.161 1344.81 Q627.161 1327.31 633.272 1318.14 Q639.429 1308.93 651.05 1308.93 Z" fill="#000000" fill-rule="nonzero" fill-opacity="1" /><path clip-path="url(#clip620)" d="M691.373 1367.54 L701.142 1367.54 L701.142 1379.3 L691.373 1379.3 L691.373 1367.54 Z" fill="#000000" fill-rule="nonzero" fill-opacity="1" /><path clip-path="url(#clip620)" d="M741.512 1316.33 Q734.29 1316.33 730.632 1323.46 Q727.021 1330.55 727.021 1344.81 Q727.021 1359.02 730.632 1366.15 Q734.29 1373.23 741.512 1373.23 Q748.781 1373.23 752.392 1366.15 Q756.049 1359.02 756.049 1344.81 Q756.049 1330.55 752.392 1323.46 Q748.781 1316.33 741.512 1316.33 M741.512 1308.93 Q753.132 1308.93 759.243 1318.14 Q765.401 1327.31 765.401 1344.81 Q765.401 1362.26 759.243 1371.47 Q753.132 1380.64 741.512 1380.64 Q729.892 1380.64 723.734 1371.47 Q717.623 1362.26 717.623 1344.81 Q717.623 1327.31 723.734 1318.14 Q729.892 1308.93 741.512 1308.93 Z" fill="#000000" fill-rule="nonzero" fill-opacity="1" /><path clip-path="url(#clip620)" d="M801.836 1316.33 Q794.614 1316.33 790.956 1323.46 Q787.345 1330.55 787.345 1344.81 Q787.345 1359.02 790.956 1366.15 Q794.614 1373.23 801.836 1373.23 Q809.104 1373.23 812.715 1366.15 Q816.373 1359.02 816.373 1344.81 Q816.373 1330.55 812.715 1323.46 Q809.104 1316.33 801.836 1316.33 M801.836 1308.93 Q813.456 1308.93 819.567 1318.14 Q825.725 1327.31 825.725 1344.81 Q825.725 1362.26 819.567 1371.47 Q813.456 1380.64 801.836 1380.64 Q790.215 1380.64 784.058 1371.47 Q777.947 1362.26 777.947 1344.81 Q777.947 1327.31 784.058 1318.14 Q790.215 1308.93 801.836 1308.93 Z" fill="#000000" fill-rule="nonzero" fill-opacity="1" /><path clip-path="url(#clip620)" d="M1000.47 1316.33 Q993.249 1316.33 989.592 1323.46 Q985.981 1330.55 985.981 1344.81 Q985.981 1359.02 989.592 1366.15 Q993.249 1373.23 1000.47 1373.23 Q1007.74 1373.23 1011.35 1366.15 Q1015.01 1359.02 1015.01 1344.81 Q1015.01 1330.55 1011.35 1323.46 Q1007.74 1316.33 1000.47 1316.33 M1000.47 1308.93 Q1012.09 1308.93 1018.2 1318.14 Q1024.36 1327.31 1024.36 1344.81 Q1024.36 1362.26 1018.2 1371.47 Q1012.09 1380.64 1000.47 1380.64 Q988.851 1380.64 982.694 1371.47 Q976.583 1362.26 976.583 1344.81 Q976.583 1327.31 982.694 1318.14 Q988.851 1308.93 1000.47 1308.93 Z" fill="#000000" fill-rule="nonzero" fill-opacity="1" /><path clip-path="url(#clip620)" d="M1040.8 1367.54 L1050.56 1367.54 L1050.56 1379.3 L1040.8 1379.3 L1040.8 1367.54 Z" fill="#000000" fill-rule="nonzero" fill-opacity="1" /><path clip-path="url(#clip620)" d="M1078.99 1371.43 L1111.63 1371.43 L1111.63 1379.3 L1067.74 1379.3 L1067.74 1371.43 Q1073.06 1365.92 1082.23 1356.66 Q1091.44 1347.35 1093.8 1344.67 Q1098.3 1339.62 1100.05 1336.15 Q1101.86 1332.63 1101.86 1329.25 Q1101.86 1323.74 1097.97 1320.27 Q1094.13 1316.8 1087.92 1316.8 Q1083.53 1316.8 1078.62 1318.32 Q1073.76 1319.85 1068.2 1322.95 L1068.2 1313.51 Q1073.85 1311.24 1078.76 1310.08 Q1083.67 1308.93 1087.74 1308.93 Q1098.48 1308.93 1104.87 1314.3 Q1111.26 1319.67 1111.26 1328.65 Q1111.26 1332.91 1109.64 1336.75 Q1108.06 1340.55 1103.85 1345.73 Q1102.69 1347.07 1096.49 1353.51 Q1090.29 1359.9 1078.99 1371.43 Z" fill="#000000" fill-rule="nonzero" fill-opacity="1" /><path clip-path="url(#clip620)" d="M1131.35 1310.18 L1168.06 1310.18 L1168.06 1318.05 L1139.92 1318.05 L1139.92 1334.99 Q1141.95 1334.3 1143.99 1333.97 Q1146.03 1333.6 1148.06 1333.6 Q1159.64 1333.6 1166.4 1339.94 Q1173.16 1346.29 1173.16 1357.12 Q1173.16 1368.28 1166.21 1374.48 Q1159.27 1380.64 1146.63 1380.64 Q1142.28 1380.64 1137.74 1379.9 Q1133.25 1379.16 1128.43 1377.68 L1128.43 1368.28 Q1132.6 1370.55 1137.04 1371.66 Q1141.49 1372.77 1146.44 1372.77 Q1154.45 1372.77 1159.13 1368.56 Q1163.8 1364.34 1163.8 1357.12 Q1163.8 1349.9 1159.13 1345.68 Q1154.45 1341.47 1146.44 1341.47 Q1142.69 1341.47 1138.94 1342.31 Q1135.24 1343.14 1131.35 1344.9 L1131.35 1310.18 Z" fill="#000000" fill-rule="nonzero" fill-opacity="1" /><path clip-path="url(#clip620)" d="M1347.9 1316.33 Q1340.68 1316.33 1337.02 1323.46 Q1333.41 1330.55 1333.41 1344.81 Q1333.41 1359.02 1337.02 1366.15 Q1340.68 1373.23 1347.9 1373.23 Q1355.17 1373.23 1358.78 1366.15 Q1362.44 1359.02 1362.44 1344.81 Q1362.44 1330.55 1358.78 1323.46 Q1355.17 1316.33 1347.9 1316.33 M1347.9 1308.93 Q1359.52 1308.93 1365.63 1318.14 Q1371.79 1327.31 1371.79 1344.81 Q1371.79 1362.26 1365.63 1371.47 Q1359.52 1380.64 1347.9 1380.64 Q1336.28 1380.64 1330.12 1371.47 Q1324.01 1362.26 1324.01 1344.81 Q1324.01 1327.31 1330.12 1318.14 Q1336.28 1308.93 1347.9 1308.93 Z" fill="#000000" fill-rule="nonzero" fill-opacity="1" /><path clip-path="url(#clip620)" d="M1388.23 1367.54 L1397.99 1367.54 L1397.99 1379.3 L1388.23 1379.3 L1388.23 1367.54 Z" fill="#000000" fill-rule="nonzero" fill-opacity="1" /><path clip-path="url(#clip620)" d="M1418.46 1310.18 L1455.17 1310.18 L1455.17 1318.05 L1427.02 1318.05 L1427.02 1334.99 Q1429.06 1334.3 1431.1 1333.97 Q1433.13 1333.6 1435.17 1333.6 Q1446.74 1333.6 1453.5 1339.94 Q1460.26 1346.29 1460.26 1357.12 Q1460.26 1368.28 1453.32 1374.48 Q1446.37 1380.64 1433.74 1380.64 Q1429.38 1380.64 1424.85 1379.9 Q1420.36 1379.16 1415.54 1377.68 L1415.54 1368.28 Q1419.71 1370.55 1424.15 1371.66 Q1428.6 1372.77 1433.55 1372.77 Q1441.56 1372.77 1446.24 1368.56 Q1450.91 1364.34 1450.91 1357.12 Q1450.91 1349.9 1446.24 1345.68 Q1441.56 1341.47 1433.55 1341.47 Q1429.8 1341.47 1426.05 1342.31 Q1422.35 1343.14 1418.46 1344.9 L1418.46 1310.18 Z" fill="#000000" fill-rule="nonzero" fill-opacity="1" /><path clip-path="url(#clip620)" d="M1498.69 1316.33 Q1491.47 1316.33 1487.81 1323.46 Q1484.2 1330.55 1484.2 1344.81 Q1484.2 1359.02 1487.81 1366.15 Q1491.47 1373.23 1498.69 1373.23 Q1505.96 1373.23 1509.57 1366.15 Q1513.23 1359.02 1513.23 1344.81 Q1513.23 1330.55 1509.57 1323.46 Q1505.96 1316.33 1498.69 1316.33 M1498.69 1308.93 Q1510.31 1308.93 1516.42 1318.14 Q1522.58 1327.31 1522.58 1344.81 Q1522.58 1362.26 1516.42 1371.47 Q1510.31 1380.64 1498.69 1380.64 Q1487.07 1380.64 1480.91 1371.47 Q1474.8 1362.26 1474.8 1344.81 Q1474.8 1327.31 1480.91 1318.14 Q1487.07 1308.93 1498.69 1308.93 Z" fill="#000000" fill-rule="nonzero" fill-opacity="1" /><path clip-path="url(#clip620)" d="M1697.32 1316.33 Q1690.1 1316.33 1686.45 1323.46 Q1682.83 1330.55 1682.83 1344.81 Q1682.83 1359.02 1686.45 1366.15 Q1690.1 1373.23 1697.32 1373.23 Q1704.59 1373.23 1708.2 1366.15 Q1711.86 1359.02 1711.86 1344.81 Q1711.86 1330.55 1708.2 1323.46 Q1704.59 1316.33 1697.32 1316.33 M1697.32 1308.93 Q1708.94 1308.93 1715.06 1318.14 Q1721.21 1327.31 1721.21 1344.81 Q1721.21 1362.26 1715.06 1371.47 Q1708.94 1380.64 1697.32 1380.64 Q1685.7 1380.64 1679.55 1371.47 Q1673.44 1362.26 1673.44 1344.81 Q1673.44 1327.31 1679.55 1318.14 Q1685.7 1308.93 1697.32 1308.93 Z" fill="#000000" fill-rule="nonzero" fill-opacity="1" /><path clip-path="url(#clip620)" d="M1737.65 1367.54 L1747.42 1367.54 L1747.42 1379.3 L1737.65 1379.3 L1737.65 1367.54 Z" fill="#000000" fill-rule="nonzero" fill-opacity="1" /><path clip-path="url(#clip620)" d="M1765.43 1310.18 L1809.87 1310.18 L1809.87 1314.16 L1784.78 1379.3 L1775.01 1379.3 L1798.62 1318.05 L1765.43 1318.05 L1765.43 1310.18 Z" fill="#000000" fill-rule="nonzero" fill-opacity="1" /><path clip-path="url(#clip620)" d="M1828.2 1310.18 L1864.92 1310.18 L1864.92 1318.05 L1836.77 1318.05 L1836.77 1334.99 Q1838.81 1334.3 1840.84 1333.97 Q1842.88 1333.6 1844.92 1333.6 Q1856.49 1333.6 1863.25 1339.94 Q1870.01 1346.29 1870.01 1357.12 Q1870.01 1368.28 1863.06 1374.48 Q1856.12 1380.64 1843.48 1380.64 Q1839.13 1380.64 1834.59 1379.9 Q1830.1 1379.16 1825.29 1377.68 L1825.29 1368.28 Q1829.45 1370.55 1833.9 1371.66 Q1838.34 1372.77 1843.3 1372.77 Q1851.31 1372.77 1855.98 1368.56 Q1860.66 1364.34 1860.66 1357.12 Q1860.66 1349.9 1855.98 1345.68 Q1851.31 1341.47 1843.3 1341.47 Q1839.55 1341.47 1835.8 1342.31 Q1832.09 1343.14 1828.2 1344.9 L1828.2 1310.18 Z" fill="#000000" fill-rule="nonzero" fill-opacity="1" /><path clip-path="url(#clip620)" d="M2024.29 1371.43 L2039.57 1371.43 L2039.57 1318.69 L2022.95 1322.03 L2022.95 1313.51 L2039.48 1310.18 L2048.83 1310.18 L2048.83 1371.43 L2064.11 1371.43 L2064.11 1379.3 L2024.29 1379.3 L2024.29 1371.43 Z" fill="#000000" fill-rule="nonzero" fill-opacity="1" /><path clip-path="url(#clip620)" d="M2083 1367.54 L2092.76 1367.54 L2092.76 1379.3 L2083 1379.3 L2083 1367.54 Z" fill="#000000" fill-rule="nonzero" fill-opacity="1" /><path clip-path="url(#clip620)" d="M2133.13 1316.33 Q2125.91 1316.33 2122.26 1323.46 Q2118.64 1330.55 2118.64 1344.81 Q2118.64 1359.02 2122.26 1366.15 Q2125.91 1373.23 2133.13 1373.23 Q2140.4 1373.23 2144.01 1366.15 Q2147.67 1359.02 2147.67 1344.81 Q2147.67 1330.55 2144.01 1323.46 Q2140.4 1316.33 2133.13 1316.33 M2133.13 1308.93 Q2144.76 1308.93 2150.87 1318.14 Q2157.02 1327.31 2157.02 1344.81 Q2157.02 1362.26 2150.87 1371.47 Q2144.76 1380.64 2133.13 1380.64 Q2121.51 1380.64 2115.36 1371.47 Q2109.25 1362.26 2109.25 1344.81 Q2109.25 1327.31 2115.36 1318.14 Q2121.51 1308.93 2133.13 1308.93 Z" fill="#000000" fill-rule="nonzero" fill-opacity="1" /><path clip-path="url(#clip620)" d="M2193.46 1316.33 Q2186.24 1316.33 2182.58 1323.46 Q2178.97 1330.55 2178.97 1344.81 Q2178.97 1359.02 2182.58 1366.15 Q2186.24 1373.23 2193.46 1373.23 Q2200.73 1373.23 2204.34 1366.15 Q2208 1359.02 2208 1344.81 Q2208 1330.55 2204.34 1323.46 Q2200.73 1316.33 2193.46 1316.33 M2193.46 1308.93 Q2205.08 1308.93 2211.19 1318.14 Q2217.35 1327.31 2217.35 1344.81 Q2217.35 1362.26 2211.19 1371.47 Q2205.08 1380.64 2193.46 1380.64 Q2181.84 1380.64 2175.68 1371.47 Q2169.57 1362.26 2169.57 1344.81 Q2169.57 1327.31 2175.68 1318.14 Q2181.84 1308.93 2193.46 1308.93 Z" fill="#000000" fill-rule="nonzero" fill-opacity="1" /><path clip-path="url(#clip620)" d="M1378.53 1484.39 L1378.53 1527.42 L1366.81 1527.42 L1366.81 1484.77 Q1366.81 1474.65 1362.87 1469.62 Q1358.92 1464.59 1351.03 1464.59 Q1341.54 1464.59 1336.07 1470.64 Q1330.59 1476.69 1330.59 1487.13 L1330.59 1527.42 L1318.82 1527.42 L1318.82 1428.37 L1330.59 1428.37 L1330.59 1467.2 Q1334.79 1460.77 1340.46 1457.59 Q1346.19 1454.41 1353.64 1454.41 Q1365.92 1454.41 1372.22 1462.05 Q1378.53 1469.62 1378.53 1484.39 Z" fill="#000000" fill-rule="nonzero" fill-opacity="1" /><path clip-path="url(#clip620)" d="M1429.51 1464.34 Q1420.09 1464.34 1414.62 1471.72 Q1409.14 1479.04 1409.14 1491.84 Q1409.14 1504.63 1414.56 1512.02 Q1420.03 1519.34 1429.51 1519.34 Q1438.87 1519.34 1444.35 1511.96 Q1449.82 1504.57 1449.82 1491.84 Q1449.82 1479.17 1444.35 1471.79 Q1438.87 1464.34 1429.51 1464.34 M1429.51 1454.41 Q1444.79 1454.41 1453.51 1464.34 Q1462.23 1474.27 1462.23 1491.84 Q1462.23 1509.35 1453.51 1519.34 Q1444.79 1529.27 1429.51 1529.27 Q1414.17 1529.27 1405.45 1519.34 Q1396.8 1509.35 1396.8 1491.84 Q1396.8 1474.27 1405.45 1464.34 Q1414.17 1454.41 1429.51 1454.41 Z" fill="#000000" fill-rule="nonzero" fill-opacity="1" /><path clip-path="url(#clip620)" d="M1480.44 1499.29 L1480.44 1456.13 L1492.15 1456.13 L1492.15 1498.84 Q1492.15 1508.96 1496.1 1514.06 Q1500.05 1519.08 1507.94 1519.08 Q1517.43 1519.08 1522.9 1513.04 Q1528.44 1506.99 1528.44 1496.55 L1528.44 1456.13 L1540.15 1456.13 L1540.15 1527.42 L1528.44 1527.42 L1528.44 1516.47 Q1524.17 1522.97 1518.51 1526.15 Q1512.91 1529.27 1505.46 1529.27 Q1493.17 1529.27 1486.81 1521.63 Q1480.44 1513.99 1480.44 1499.29 M1509.91 1454.41 L1509.91 1454.41 Z" fill="#000000" fill-rule="nonzero" fill-opacity="1" /><path clip-path="url(#clip620)" d="M1605.59 1467.08 Q1603.62 1465.93 1601.26 1465.42 Q1598.97 1464.85 1596.17 1464.85 Q1586.24 1464.85 1580.89 1471.34 Q1575.61 1477.77 1575.61 1489.87 L1575.61 1527.42 L1563.83 1527.42 L1563.83 1456.13 L1575.61 1456.13 L1575.61 1467.2 Q1579.3 1460.71 1585.22 1457.59 Q1591.14 1454.41 1599.61 1454.41 Q1600.82 1454.41 1602.28 1454.6 Q1603.74 1454.73 1605.53 1455.05 L1605.59 1467.08 Z" fill="#000000" fill-rule="nonzero" fill-opacity="1" /><path clip-path="url(#clip620)" d="M1663.33 1458.23 L1663.33 1469.3 Q1658.36 1466.76 1653.01 1465.49 Q1647.67 1464.21 1641.94 1464.21 Q1633.22 1464.21 1628.83 1466.89 Q1624.5 1469.56 1624.5 1474.91 Q1624.5 1478.98 1627.62 1481.34 Q1630.73 1483.63 1640.16 1485.73 L1644.17 1486.62 Q1656.64 1489.29 1661.86 1494.19 Q1667.15 1499.03 1667.15 1507.75 Q1667.15 1517.68 1659.25 1523.48 Q1651.42 1529.27 1637.67 1529.27 Q1631.94 1529.27 1625.71 1528.12 Q1619.53 1527.04 1612.66 1524.81 L1612.66 1512.72 Q1619.15 1516.09 1625.45 1517.81 Q1631.75 1519.47 1637.93 1519.47 Q1646.2 1519.47 1650.66 1516.67 Q1655.12 1513.8 1655.12 1508.64 Q1655.12 1503.87 1651.87 1501.32 Q1648.69 1498.78 1637.8 1496.42 L1633.73 1495.47 Q1622.84 1493.18 1618 1488.47 Q1613.17 1483.69 1613.17 1475.42 Q1613.17 1465.36 1620.3 1459.88 Q1627.42 1454.41 1640.54 1454.41 Q1647.03 1454.41 1652.76 1455.36 Q1658.49 1456.32 1663.33 1458.23 Z" fill="#000000" fill-rule="nonzero" fill-opacity="1" /><polyline clip-path="url(#clip622)" style="stroke:#000000; stroke-linecap:round; stroke-linejoin:round; stroke-width:4; stroke-opacity:0.1; fill:none" points="680.45,1155.5 2305.51,1155.5 "/>
<polyline clip-path="url(#clip622)" style="stroke:#000000; stroke-linecap:round; stroke-linejoin:round; stroke-width:4; stroke-opacity:0.1; fill:none" points="680.45,887.257 2305.51,887.257 "/>
<polyline clip-path="url(#clip622)" style="stroke:#000000; stroke-linecap:round; stroke-linejoin:round; stroke-width:4; stroke-opacity:0.1; fill:none" points="680.45,619.014 2305.51,619.014 "/>
<polyline clip-path="url(#clip622)" style="stroke:#000000; stroke-linecap:round; stroke-linejoin:round; stroke-width:4; stroke-opacity:0.1; fill:none" points="680.45,350.771 2305.51,350.771 "/>
<polyline clip-path="url(#clip620)" style="stroke:#000000; stroke-linecap:round; stroke-linejoin:round; stroke-width:8; stroke-opacity:1; fill:none" points="680.45,1273.7 680.45,94.4882 "/>
<polyline clip-path="url(#clip620)" style="stroke:#000000; stroke-linecap:round; stroke-linejoin:round; stroke-width:8; stroke-opacity:1; fill:none" points="680.45,1155.5 699.348,1155.5 "/>
<polyline clip-path="url(#clip620)" style="stroke:#000000; stroke-linecap:round; stroke-linejoin:round; stroke-width:8; stroke-opacity:1; fill:none" points="680.45,887.257 699.348,887.257 "/>
<polyline clip-path="url(#clip620)" style="stroke:#000000; stroke-linecap:round; stroke-linejoin:round; stroke-width:8; stroke-opacity:1; fill:none" points="680.45,619.014 699.348,619.014 "/>
<polyline clip-path="url(#clip620)" style="stroke:#000000; stroke-linecap:round; stroke-linejoin:round; stroke-width:8; stroke-opacity:1; fill:none" points="680.45,350.771 699.348,350.771 "/>
<path clip-path="url(#clip620)" d="M397.507 1182.19 L430.146 1182.19 L430.146 1190.06 L386.257 1190.06 L386.257 1182.19 Q391.581 1176.68 400.748 1167.42 Q409.961 1158.12 412.322 1155.43 Q416.813 1150.38 418.572 1146.91 Q420.378 1143.39 420.378 1140.01 Q420.378 1134.5 416.489 1131.03 Q412.646 1127.56 406.442 1127.56 Q402.044 1127.56 397.137 1129.09 Q392.276 1130.62 386.72 1133.72 L386.72 1124.27 Q392.368 1122 397.276 1120.85 Q402.183 1119.69 406.257 1119.69 Q416.998 1119.69 423.387 1125.06 Q429.776 1130.43 429.776 1139.41 Q429.776 1143.67 428.155 1147.51 Q426.581 1151.31 422.368 1156.5 Q421.211 1157.84 415.007 1164.27 Q408.803 1170.66 397.507 1182.19 Z" fill="#000000" fill-rule="nonzero" fill-opacity="1" /><path clip-path="url(#clip620)" d="M451.396 1182.19 L466.674 1182.19 L466.674 1129.46 L450.053 1132.79 L450.053 1124.27 L466.581 1120.94 L475.933 1120.94 L475.933 1182.19 L491.21 1182.19 L491.21 1190.06 L451.396 1190.06 L451.396 1182.19 Z" fill="#000000" fill-rule="nonzero" fill-opacity="1" /><path clip-path="url(#clip620)" d="M530.099 1127.1 Q522.877 1127.1 519.22 1134.23 Q515.608 1141.31 515.608 1155.57 Q515.608 1169.78 519.22 1176.91 Q522.877 1184 530.099 1184 Q537.368 1184 540.979 1176.91 Q544.636 1169.78 544.636 1155.57 Q544.636 1141.31 540.979 1134.23 Q537.368 1127.1 530.099 1127.1 M530.099 1119.69 Q541.719 1119.69 547.831 1128.9 Q553.988 1138.07 553.988 1155.57 Q553.988 1173.02 547.831 1182.24 Q541.719 1191.4 530.099 1191.4 Q518.479 1191.4 512.321 1182.24 Q506.21 1173.02 506.21 1155.57 Q506.21 1138.07 512.321 1128.9 Q518.479 1119.69 530.099 1119.69 Z" fill="#000000" fill-rule="nonzero" fill-opacity="1" /><path clip-path="url(#clip620)" d="M570.423 1178.3 L580.191 1178.3 L580.191 1190.06 L570.423 1190.06 L570.423 1178.3 Z" fill="#000000" fill-rule="nonzero" fill-opacity="1" /><path clip-path="url(#clip620)" d="M620.562 1127.1 Q613.339 1127.1 609.682 1134.23 Q606.071 1141.31 606.071 1155.57 Q606.071 1169.78 609.682 1176.91 Q613.339 1184 620.562 1184 Q627.83 1184 631.441 1176.91 Q635.099 1169.78 635.099 1155.57 Q635.099 1141.31 631.441 1134.23 Q627.83 1127.1 620.562 1127.1 M620.562 1119.69 Q632.182 1119.69 638.293 1128.9 Q644.45 1138.07 644.45 1155.57 Q644.45 1173.02 638.293 1182.24 Q632.182 1191.4 620.562 1191.4 Q608.941 1191.4 602.784 1182.24 Q596.673 1173.02 596.673 1155.57 Q596.673 1138.07 602.784 1128.9 Q608.941 1119.69 620.562 1119.69 Z" fill="#000000" fill-rule="nonzero" fill-opacity="1" /><path clip-path="url(#clip620)" d="M397.507 913.947 L430.146 913.947 L430.146 921.817 L386.257 921.817 L386.257 913.947 Q391.581 908.437 400.748 899.178 Q409.961 889.873 412.322 887.187 Q416.813 882.141 418.572 878.669 Q420.378 875.15 420.378 871.771 Q420.378 866.262 416.489 862.789 Q412.646 859.317 406.442 859.317 Q402.044 859.317 397.137 860.845 Q392.276 862.373 386.72 865.475 L386.72 856.03 Q392.368 853.762 397.276 852.604 Q402.183 851.447 406.257 851.447 Q416.998 851.447 423.387 856.817 Q429.776 862.188 429.776 871.169 Q429.776 875.428 428.155 879.271 Q426.581 883.067 422.368 888.252 Q421.211 889.595 415.007 896.03 Q408.803 902.419 397.507 913.947 Z" fill="#000000" fill-rule="nonzero" fill-opacity="1" /><path clip-path="url(#clip620)" d="M475.47 860.845 L451.859 897.743 L475.47 897.743 L475.47 860.845 M473.016 852.697 L484.775 852.697 L484.775 897.743 L494.636 897.743 L494.636 905.521 L484.775 905.521 L484.775 921.817 L475.47 921.817 L475.47 905.521 L444.266 905.521 L444.266 896.493 L473.016 852.697 Z" fill="#000000" fill-rule="nonzero" fill-opacity="1" /><path clip-path="url(#clip620)" d="M530.099 858.854 Q522.877 858.854 519.22 865.984 Q515.608 873.067 515.608 887.326 Q515.608 901.539 519.22 908.669 Q522.877 915.752 530.099 915.752 Q537.368 915.752 540.979 908.669 Q544.636 901.539 544.636 887.326 Q544.636 873.067 540.979 865.984 Q537.368 858.854 530.099 858.854 M530.099 851.447 Q541.719 851.447 547.831 860.66 Q553.988 869.826 553.988 887.326 Q553.988 904.78 547.831 913.993 Q541.719 923.159 530.099 923.159 Q518.479 923.159 512.321 913.993 Q506.21 904.78 506.21 887.326 Q506.21 869.826 512.321 860.66 Q518.479 851.447 530.099 851.447 Z" fill="#000000" fill-rule="nonzero" fill-opacity="1" /><path clip-path="url(#clip620)" d="M570.423 910.058 L580.191 910.058 L580.191 921.817 L570.423 921.817 L570.423 910.058 Z" fill="#000000" fill-rule="nonzero" fill-opacity="1" /><path clip-path="url(#clip620)" d="M620.562 858.854 Q613.339 858.854 609.682 865.984 Q606.071 873.067 606.071 887.326 Q606.071 901.539 609.682 908.669 Q613.339 915.752 620.562 915.752 Q627.83 915.752 631.441 908.669 Q635.099 901.539 635.099 887.326 Q635.099 873.067 631.441 865.984 Q627.83 858.854 620.562 858.854 M620.562 851.447 Q632.182 851.447 638.293 860.66 Q644.45 869.826 644.45 887.326 Q644.45 904.78 638.293 913.993 Q632.182 923.159 620.562 923.159 Q608.941 923.159 602.784 913.993 Q596.673 904.78 596.673 887.326 Q596.673 869.826 602.784 860.66 Q608.941 851.447 620.562 851.447 Z" fill="#000000" fill-rule="nonzero" fill-opacity="1" /><path clip-path="url(#clip620)" d="M397.507 645.703 L430.146 645.703 L430.146 653.574 L386.257 653.574 L386.257 645.703 Q391.581 640.194 400.748 630.935 Q409.961 621.629 412.322 618.944 Q416.813 613.898 418.572 610.426 Q420.378 606.907 420.378 603.528 Q420.378 598.018 416.489 594.546 Q412.646 591.074 406.442 591.074 Q402.044 591.074 397.137 592.602 Q392.276 594.13 386.72 597.231 L386.72 587.787 Q392.368 585.519 397.276 584.361 Q402.183 583.204 406.257 583.204 Q416.998 583.204 423.387 588.574 Q429.776 593.944 429.776 602.926 Q429.776 607.185 428.155 611.028 Q426.581 614.824 422.368 620.009 Q421.211 621.352 415.007 627.787 Q408.803 634.176 397.507 645.703 Z" fill="#000000" fill-rule="nonzero" fill-opacity="1" /><path clip-path="url(#clip620)" d="M447.414 584.454 L491.859 584.454 L491.859 588.435 L466.766 653.574 L456.998 653.574 L480.609 592.324 L447.414 592.324 L447.414 584.454 Z" fill="#000000" fill-rule="nonzero" fill-opacity="1" /><path clip-path="url(#clip620)" d="M530.099 590.611 Q522.877 590.611 519.22 597.741 Q515.608 604.824 515.608 619.083 Q515.608 633.296 519.22 640.426 Q522.877 647.509 530.099 647.509 Q537.368 647.509 540.979 640.426 Q544.636 633.296 544.636 619.083 Q544.636 604.824 540.979 597.741 Q537.368 590.611 530.099 590.611 M530.099 583.204 Q541.719 583.204 547.831 592.417 Q553.988 601.583 553.988 619.083 Q553.988 636.537 547.831 645.75 Q541.719 654.916 530.099 654.916 Q518.479 654.916 512.321 645.75 Q506.21 636.537 506.21 619.083 Q506.21 601.583 512.321 592.417 Q518.479 583.204 530.099 583.204 Z" fill="#000000" fill-rule="nonzero" fill-opacity="1" /><path clip-path="url(#clip620)" d="M570.423 641.815 L580.191 641.815 L580.191 653.574 L570.423 653.574 L570.423 641.815 Z" fill="#000000" fill-rule="nonzero" fill-opacity="1" /><path clip-path="url(#clip620)" d="M620.562 590.611 Q613.339 590.611 609.682 597.741 Q606.071 604.824 606.071 619.083 Q606.071 633.296 609.682 640.426 Q613.339 647.509 620.562 647.509 Q627.83 647.509 631.441 640.426 Q635.099 633.296 635.099 619.083 Q635.099 604.824 631.441 597.741 Q627.83 590.611 620.562 590.611 M620.562 583.204 Q632.182 583.204 638.293 592.417 Q644.45 601.583 644.45 619.083 Q644.45 636.537 638.293 645.75 Q632.182 654.916 620.562 654.916 Q608.941 654.916 602.784 645.75 Q596.673 636.537 596.673 619.083 Q596.673 601.583 602.784 592.417 Q608.941 583.204 620.562 583.204 Z" fill="#000000" fill-rule="nonzero" fill-opacity="1" /><path clip-path="url(#clip620)" d="M417.785 348.062 Q424.498 349.497 428.248 354.034 Q432.044 358.571 432.044 365.238 Q432.044 375.47 425.007 381.071 Q417.97 386.673 405.007 386.673 Q400.655 386.673 396.026 385.794 Q391.442 384.96 386.535 383.247 L386.535 374.22 Q390.424 376.488 395.054 377.645 Q399.683 378.803 404.729 378.803 Q413.526 378.803 418.109 375.331 Q422.739 371.858 422.739 365.238 Q422.739 359.127 418.433 355.701 Q414.174 352.229 406.535 352.229 L398.479 352.229 L398.479 344.544 L406.905 344.544 Q413.803 344.544 417.461 341.812 Q421.118 339.035 421.118 333.849 Q421.118 328.525 417.322 325.701 Q413.572 322.831 406.535 322.831 Q402.692 322.831 398.294 323.664 Q393.896 324.498 388.618 326.257 L388.618 317.924 Q393.942 316.442 398.572 315.701 Q403.248 314.961 407.368 314.961 Q418.016 314.961 424.22 319.822 Q430.424 324.636 430.424 332.877 Q430.424 338.618 427.137 342.599 Q423.85 346.535 417.785 348.062 Z" fill="#000000" fill-rule="nonzero" fill-opacity="1" /><path clip-path="url(#clip620)" d="M469.775 322.368 Q462.553 322.368 458.896 329.498 Q455.285 336.581 455.285 350.84 Q455.285 365.053 458.896 372.183 Q462.553 379.266 469.775 379.266 Q477.044 379.266 480.655 372.183 Q484.312 365.053 484.312 350.84 Q484.312 336.581 480.655 329.498 Q477.044 322.368 469.775 322.368 M469.775 314.961 Q481.396 314.961 487.507 324.174 Q493.664 333.34 493.664 350.84 Q493.664 368.294 487.507 377.507 Q481.396 386.673 469.775 386.673 Q458.155 386.673 451.998 377.507 Q445.887 368.294 445.887 350.84 Q445.887 333.34 451.998 324.174 Q458.155 314.961 469.775 314.961 Z" fill="#000000" fill-rule="nonzero" fill-opacity="1" /><path clip-path="url(#clip620)" d="M530.099 322.368 Q522.877 322.368 519.22 329.498 Q515.608 336.581 515.608 350.84 Q515.608 365.053 519.22 372.183 Q522.877 379.266 530.099 379.266 Q537.368 379.266 540.979 372.183 Q544.636 365.053 544.636 350.84 Q544.636 336.581 540.979 329.498 Q537.368 322.368 530.099 322.368 M530.099 314.961 Q541.719 314.961 547.831 324.174 Q553.988 333.34 553.988 350.84 Q553.988 368.294 547.831 377.507 Q541.719 386.673 530.099 386.673 Q518.479 386.673 512.321 377.507 Q506.21 368.294 506.21 350.84 Q506.21 333.34 512.321 324.174 Q518.479 314.961 530.099 314.961 Z" fill="#000000" fill-rule="nonzero" fill-opacity="1" /><path clip-path="url(#clip620)" d="M570.423 373.571 L580.191 373.571 L580.191 385.331 L570.423 385.331 L570.423 373.571 Z" fill="#000000" fill-rule="nonzero" fill-opacity="1" /><path clip-path="url(#clip620)" d="M620.562 322.368 Q613.339 322.368 609.682 329.498 Q606.071 336.581 606.071 350.84 Q606.071 365.053 609.682 372.183 Q613.339 379.266 620.562 379.266 Q627.83 379.266 631.441 372.183 Q635.099 365.053 635.099 350.84 Q635.099 336.581 631.441 329.498 Q627.83 322.368 620.562 322.368 M620.562 314.961 Q632.182 314.961 638.293 324.174 Q644.45 333.34 644.45 350.84 Q644.45 368.294 638.293 377.507 Q632.182 386.673 620.562 386.673 Q608.941 386.673 602.784 377.507 Q596.673 368.294 596.673 350.84 Q596.673 333.34 602.784 324.174 Q608.941 314.961 620.562 314.961 Z" fill="#000000" fill-rule="nonzero" fill-opacity="1" /><path clip-path="url(#clip620)" d="M311.051 933.755 L348.863 933.755 L348.863 945.532 L250.449 945.532 L250.449 933.755 L261.271 933.755 Q254.905 930.063 251.85 924.461 Q248.731 918.796 248.731 910.966 Q248.731 897.98 259.043 889.895 Q269.356 881.747 286.161 881.747 Q302.966 881.747 313.279 889.895 Q323.591 897.98 323.591 910.966 Q323.591 918.796 320.536 924.461 Q317.417 930.063 311.051 933.755 M286.161 893.906 Q273.239 893.906 265.918 899.253 Q258.534 904.536 258.534 913.83 Q258.534 923.124 265.918 928.471 Q273.239 933.755 286.161 933.755 Q299.083 933.755 306.468 928.471 Q313.788 923.124 313.788 913.83 Q313.788 904.536 306.468 899.253 Q299.083 893.906 286.161 893.906 Z" fill="#000000" fill-rule="nonzero" fill-opacity="1" /><path clip-path="url(#clip620)" d="M285.906 829.93 Q285.906 844.126 289.153 849.6 Q292.399 855.075 300.229 855.075 Q306.468 855.075 310.16 851.001 Q313.788 846.863 313.788 839.797 Q313.788 830.058 306.913 824.201 Q299.975 818.281 288.516 818.281 L285.906 818.281 L285.906 829.93 M281.068 806.568 L321.745 806.568 L321.745 818.281 L310.924 818.281 Q317.417 822.291 320.536 828.275 Q323.591 834.259 323.591 842.916 Q323.591 853.865 317.48 860.358 Q311.306 866.788 300.993 866.788 Q288.962 866.788 282.851 858.767 Q276.74 850.683 276.74 834.705 L276.74 818.281 L275.594 818.281 Q267.509 818.281 263.117 823.628 Q258.661 828.912 258.661 838.524 Q258.661 844.635 260.125 850.428 Q261.589 856.221 264.518 861.568 L253.696 861.568 Q251.213 855.139 250.004 849.091 Q248.731 843.044 248.731 837.315 Q248.731 821.846 256.751 814.207 Q264.772 806.568 281.068 806.568 Z" fill="#000000" fill-rule="nonzero" fill-opacity="1" /><path clip-path="url(#clip620)" d="M261.398 741.129 Q260.253 743.102 259.743 745.457 Q259.17 747.749 259.17 750.55 Q259.17 760.48 265.663 765.828 Q272.093 771.111 284.188 771.111 L321.745 771.111 L321.745 782.888 L250.449 782.888 L250.449 771.111 L261.526 771.111 Q255.033 767.419 251.914 761.499 Q248.731 755.579 248.731 747.112 Q248.731 745.903 248.922 744.439 Q249.049 742.975 249.367 741.192 L261.398 741.129 Z" fill="#000000" fill-rule="nonzero" fill-opacity="1" /><path clip-path="url(#clip620)" d="M283.169 670.724 L288.898 670.724 L288.898 724.578 Q300.993 723.814 307.359 717.321 Q313.661 710.764 313.661 699.115 Q313.661 692.367 312.006 686.065 Q310.351 679.7 307.041 673.461 L318.117 673.461 Q320.79 679.763 322.191 686.384 Q323.591 693.004 323.591 699.815 Q323.591 716.875 313.661 726.87 Q303.73 736.8 286.798 736.8 Q269.292 736.8 259.043 727.379 Q248.731 717.894 248.731 701.852 Q248.731 687.466 258.025 679.127 Q267.255 670.724 283.169 670.724 M279.732 682.437 Q270.119 682.564 264.39 687.848 Q258.661 693.068 258.661 701.725 Q258.661 711.528 264.199 717.448 Q269.737 723.305 279.795 724.196 L279.732 682.437 Z" fill="#000000" fill-rule="nonzero" fill-opacity="1" /><path clip-path="url(#clip620)" d="M278.713 592.235 L321.745 592.235 L321.745 603.948 L279.095 603.948 Q268.974 603.948 263.945 607.894 Q258.916 611.841 258.916 619.735 Q258.916 629.22 264.963 634.694 Q271.011 640.169 281.45 640.169 L321.745 640.169 L321.745 651.945 L250.449 651.945 L250.449 640.169 L261.526 640.169 Q255.096 635.967 251.914 630.302 Q248.731 624.573 248.731 617.125 Q248.731 604.839 256.37 598.537 Q263.945 592.235 278.713 592.235 Z" fill="#000000" fill-rule="nonzero" fill-opacity="1" /><path clip-path="url(#clip620)" d="M305.576 567.218 L305.576 553.786 L321.745 553.786 L321.745 567.218 L305.576 567.218 Z" fill="#000000" fill-rule="nonzero" fill-opacity="1" /><path clip-path="url(#clip620)" d="M237.909 449.006 L288.644 481.472 L288.644 449.006 L237.909 449.006 M226.705 452.38 L226.705 436.211 L288.644 436.211 L288.644 422.652 L299.338 422.652 L299.338 436.211 L321.745 436.211 L321.745 449.006 L299.338 449.006 L299.338 491.911 L286.925 491.911 L226.705 452.38 Z" fill="#000000" fill-rule="nonzero" fill-opacity="1" /><polyline clip-path="url(#clip622)" style="stroke:#008000; stroke-linecap:round; stroke-linejoin:round; stroke-width:8; stroke-opacity:1; fill:none" points="726.443,290.514 865.813,512.905 1005.18,561.76 1144.55,551.43 1283.93,703.999 1423.3,845.578 1562.67,961.493 1702.04,1034.12 1841.41,1153.54 1980.78,1207.97 2120.15,1211.08 2259.52,1240.32 "/>
<circle clip-path="url(#clip622)" cx="726.443" cy="290.514" r="14.4" fill="#008000" fill-rule="evenodd" fill-opacity="1" stroke="#000000" stroke-opacity="1" stroke-width="6.4"/>
<circle clip-path="url(#clip622)" cx="865.813" cy="512.905" r="14.4" fill="#008000" fill-rule="evenodd" fill-opacity="1" stroke="#000000" stroke-opacity="1" stroke-width="6.4"/>
<circle clip-path="url(#clip622)" cx="1005.18" cy="561.76" r="14.4" fill="#008000" fill-rule="evenodd" fill-opacity="1" stroke="#000000" stroke-opacity="1" stroke-width="6.4"/>
<circle clip-path="url(#clip622)" cx="1144.55" cy="551.43" r="14.4" fill="#008000" fill-rule="evenodd" fill-opacity="1" stroke="#000000" stroke-opacity="1" stroke-width="6.4"/>
<circle clip-path="url(#clip622)" cx="1283.93" cy="703.999" r="14.4" fill="#008000" fill-rule="evenodd" fill-opacity="1" stroke="#000000" stroke-opacity="1" stroke-width="6.4"/>
<circle clip-path="url(#clip622)" cx="1423.3" cy="845.578" r="14.4" fill="#008000" fill-rule="evenodd" fill-opacity="1" stroke="#000000" stroke-opacity="1" stroke-width="6.4"/>
<circle clip-path="url(#clip622)" cx="1562.67" cy="961.493" r="14.4" fill="#008000" fill-rule="evenodd" fill-opacity="1" stroke="#000000" stroke-opacity="1" stroke-width="6.4"/>
<circle clip-path="url(#clip622)" cx="1702.04" cy="1034.12" r="14.4" fill="#008000" fill-rule="evenodd" fill-opacity="1" stroke="#000000" stroke-opacity="1" stroke-width="6.4"/>
<circle clip-path="url(#clip622)" cx="1841.41" cy="1153.54" r="14.4" fill="#008000" fill-rule="evenodd" fill-opacity="1" stroke="#000000" stroke-opacity="1" stroke-width="6.4"/>
<circle clip-path="url(#clip622)" cx="1980.78" cy="1207.97" r="14.4" fill="#008000" fill-rule="evenodd" fill-opacity="1" stroke="#000000" stroke-opacity="1" stroke-width="6.4"/>
<circle clip-path="url(#clip622)" cx="2120.15" cy="1211.08" r="14.4" fill="#008000" fill-rule="evenodd" fill-opacity="1" stroke="#000000" stroke-opacity="1" stroke-width="6.4"/>
<circle clip-path="url(#clip622)" cx="2259.52" cy="1240.32" r="14.4" fill="#008000" fill-rule="evenodd" fill-opacity="1" stroke="#000000" stroke-opacity="1" stroke-width="6.4"/>
<polyline clip-path="url(#clip622)" style="stroke:#00008b; stroke-linecap:round; stroke-linejoin:round; stroke-width:8; stroke-opacity:1; fill:none" points="726.443,215.897 865.813,252.41 1005.18,324.376 1144.55,418.143 1283.93,503.453 1423.3,588.95 1562.67,676.992 1702.04,750.369 1841.41,821.348 1980.78,887.182 2120.15,951.576 2259.52,1017.41 "/>
<path clip-path="url(#clip622)" d="M726.443 309.833 L865.813 341.744 L1005.18 415.6 L1144.55 511.961 L1283.93 595.275 L1423.3 679.23 L1562.67 770.397 L1702.04 848.334 L1841.41 916.524 L1980.78 983.054 L2120.15 1043.95 L2259.52 1112.83 L2259.52 926.765 L2120.15 863.665 L1980.78 793.31 L1841.41 730.884 L1702.04 653.644 L1562.67 583.601 L1423.3 499.646 L1283.93 404.439 L1144.55 328.121 L1005.18 233.883 L865.813 162.241 L726.443 127.862  Z" fill="#0000ff" fill-rule="evenodd" fill-opacity="0.1"/>
<polyline clip-path="url(#clip622)" style="stroke:#0000ff; stroke-linecap:round; stroke-linejoin:round; stroke-width:0; stroke-opacity:0.1; fill:none" points="726.443,309.833 865.813,341.744 1005.18,415.6 1144.55,511.961 1283.93,595.275 1423.3,679.23 1562.67,770.397 1702.04,848.334 1841.41,916.524 1980.78,983.054 2120.15,1043.95 2259.52,1112.83 "/>
</svg>
