<?xml version="1.0" encoding="utf-8"?>
<svg xmlns="http://www.w3.org/2000/svg" xmlns:xlink="http://www.w3.org/1999/xlink" width="600" height="400" viewBox="0 0 2400 1600">
<defs>
  <clipPath id="clip590">
    <rect x="0" y="0" width="2400" height="1600"/>
  </clipPath>
</defs>
<path clip-path="url(#clip590)" d="M0 1600 L2400 1600 L2400 0 L0 0  Z" fill="#ffffff" fill-rule="evenodd" fill-opacity="1"/>
<defs>
  <clipPath id="clip591">
    <rect x="480" y="0" width="1681" height="1600"/>
  </clipPath>
</defs>
<path clip-path="url(#clip590)" d="M680.45 1273.7 L2305.51 1273.7 L2305.51 94.4882 L680.45 94.4882  Z" fill="#ffffff" fill-rule="evenodd" fill-opacity="1"/>
<defs>
  <clipPath id="clip592">
    <rect x="680" y="94" width="1626" height="1180"/>
  </clipPath>
</defs>
<polyline clip-path="url(#clip592)" style="stroke:#000000; stroke-linecap:round; stroke-linejoin:round; stroke-width:4; stroke-opacity:0.1; fill:none" points="726.443,1273.7 726.443,94.4882 "/>
<polyline clip-path="url(#clip592)" style="stroke:#000000; stroke-linecap:round; stroke-linejoin:round; stroke-width:4; stroke-opacity:0.1; fill:none" points="1074.87,1273.7 1074.87,94.4882 "/>
<polyline clip-path="url(#clip592)" style="stroke:#000000; stroke-linecap:round; stroke-linejoin:round; stroke-width:4; stroke-opacity:0.1; fill:none" points="1423.3,1273.7 1423.3,94.4882 "/>
<polyline clip-path="url(#clip592)" style="stroke:#000000; stroke-linecap:round; stroke-linejoin:round; stroke-width:4; stroke-opacity:0.1; fill:none" points="1771.72,1273.7 1771.72,94.4882 "/>
<polyline clip-path="url(#clip592)" style="stroke:#000000; stroke-linecap:round; stroke-linejoin:round; stroke-width:4; stroke-opacity:0.1; fill:none" points="2120.15,1273.7 2120.15,94.4882 "/>
<polyline clip-path="url(#clip590)" style="stroke:#000000; stroke-linecap:round; stroke-linejoin:round; stroke-width:8; stroke-opacity:1; fill:none" points="680.45,1273.7 2305.51,1273.7 "/>
<polyline clip-path="url(#clip590)" style="stroke:#000000; stroke-linecap:round; stroke-linejoin:round; stroke-width:8; stroke-opacity:1; fill:none" points="726.443,1273.7 726.443,1254.8 "/>
<polyline clip-path="url(#clip590)" style="stroke:#000000; stroke-linecap:round; stroke-linejoin:round; stroke-width:8; stroke-opacity:1; fill:none" points="1074.87,1273.7 1074.87,1254.8 "/>
<polyline clip-path="url(#clip590)" style="stroke:#000000; stroke-linecap:round; stroke-linejoin:round; stroke-width:8; stroke-opacity:1; fill:none" points="1423.3,1273.7 1423.3,1254.8 "/>
<polyline clip-path="url(#clip590)" style="stroke:#000000; stroke-linecap:round; stroke-linejoin:round; stroke-width:8; stroke-opacity:1; fill:none" points="1771.72,1273.7 1771.72,1254.8 "/>
<polyline clip-path="url(#clip590)" style="stroke:#000000; stroke-linecap:round; stroke-linejoin:round; stroke-width:8; stroke-opacity:1; fill:none" points="2120.15,1273.7 2120.15,1254.8 "/>
<path clip-path="url(#clip590)" d="M651.05 1316.33 Q643.827 1316.33 640.17 1323.46 Q636.559 1330.55 636.559 1344.81 Q636.559 1359.02 640.17 1366.15 Q643.827 1373.23 651.05 1373.23 Q658.318 1373.23 661.929 1366.15 Q665.587 1359.02 665.587 1344.81 Q665.587 1330.55 661.929 1323.46 Q658.318 1316.33 651.05 1316.33 M651.05 1308.93 Q662.67 1308.93 668.781 1318.14 Q674.938 1327.31 674.938 1344.81 Q674.938 1362.26 668.781 1371.47 Q662.67 1380.64 651.05 1380.64 Q639.429 1380.64 633.272 1371.47 Q627.161 1362.26 627.161 1344.81 Q627.161 1327.31 633.272 1318.14 Q639.429 1308.93 651.05 1308.93 Z" fill="#000000" fill-rule="nonzero" fill-opacity="1" /><path clip-path="url(#clip590)" d="M691.373 1367.54 L701.142 1367.54 L701.142 1379.3 L691.373 1379.3 L691.373 1367.54 Z" fill="#000000" fill-rule="nonzero" fill-opacity="1" /><path clip-path="url(#clip590)" d="M741.512 1316.33 Q734.29 1316.33 730.632 1323.46 Q727.021 1330.55 727.021 1344.81 Q727.021 1359.02 730.632 1366.15 Q734.29 1373.23 741.512 1373.23 Q748.781 1373.23 752.392 1366.15 Q756.049 1359.02 756.049 1344.81 Q756.049 1330.55 752.392 1323.46 Q748.781 1316.33 741.512 1316.33 M741.512 1308.93 Q753.132 1308.93 759.243 1318.14 Q765.401 1327.31 765.401 1344.81 Q765.401 1362.26 759.243 1371.47 Q753.132 1380.64 741.512 1380.64 Q729.892 1380.64 723.734 1371.47 Q717.623 1362.26 717.623 1344.81 Q717.623 1327.31 723.734 1318.14 Q729.892 1308.93 741.512 1308.93 Z" fill="#000000" fill-rule="nonzero" fill-opacity="1" /><path clip-path="url(#clip590)" d="M801.836 1316.33 Q794.614 1316.33 790.956 1323.46 Q787.345 1330.55 787.345 1344.81 Q787.345 1359.02 790.956 1366.15 Q794.614 1373.23 801.836 1373.23 Q809.104 1373.23 812.715 1366.15 Q816.373 1359.02 816.373 1344.81 Q816.373 1330.55 812.715 1323.46 Q809.104 1316.33 801.836 1316.33 M801.836 1308.93 Q813.456 1308.93 819.567 1318.14 Q825.725 1327.31 825.725 1344.81 Q825.725 1362.26 819.567 1371.47 Q813.456 1380.64 801.836 1380.64 Q790.215 1380.64 784.058 1371.47 Q777.947 1362.26 777.947 1344.81 Q777.947 1327.31 784.058 1318.14 Q790.215 1308.93 801.836 1308.93 Z" fill="#000000" fill-rule="nonzero" fill-opacity="1" /><path clip-path="url(#clip590)" d="M1000.47 1316.33 Q993.249 1316.33 989.592 1323.46 Q985.981 1330.55 985.981 1344.81 Q985.981 1359.02 989.592 1366.15 Q993.249 1373.23 1000.47 1373.23 Q1007.74 1373.23 1011.35 1366.15 Q1015.01 1359.02 1015.01 1344.81 Q1015.01 1330.55 1011.35 1323.46 Q1007.74 1316.33 1000.47 1316.33 M1000.47 1308.93 Q1012.09 1308.93 1018.2 1318.14 Q1024.36 1327.31 1024.36 1344.81 Q1024.36 1362.26 1018.2 1371.47 Q1012.09 1380.64 1000.47 1380.64 Q988.851 1380.64 982.694 1371.47 Q976.583 1362.26 976.583 1344.81 Q976.583 1327.31 982.694 1318.14 Q988.851 1308.93 1000.47 1308.93 Z" fill="#000000" fill-rule="nonzero" fill-opacity="1" /><path clip-path="url(#clip590)" d="M1040.8 1367.54 L1050.56 1367.54 L1050.56 1379.3 L1040.8 1379.3 L1040.8 1367.54 Z" fill="#000000" fill-rule="nonzero" fill-opacity="1" /><path clip-path="url(#clip590)" d="M1078.99 1371.43 L1111.63 1371.43 L1111.63 1379.3 L1067.74 1379.3 L1067.74 1371.43 Q1073.06 1365.92 1082.23 1356.66 Q1091.44 1347.35 1093.8 1344.67 Q1098.3 1339.62 1100.05 1336.15 Q1101.86 1332.63 1101.86 1329.25 Q1101.86 1323.74 1097.97 1320.27 Q1094.13 1316.8 1087.92 1316.8 Q1083.53 1316.8 1078.62 1318.32 Q1073.76 1319.85 1068.2 1322.95 L1068.2 1313.51 Q1073.85 1311.24 1078.76 1310.08 Q1083.67 1308.93 1087.74 1308.93 Q1098.48 1308.93 1104.87 1314.3 Q1111.26 1319.67 1111.26 1328.65 Q1111.26 1332.91 1109.64 1336.75 Q1108.06 1340.55 1103.85 1345.73 Q1102.69 1347.07 1096.49 1353.51 Q1090.29 1359.9 1078.99 1371.43 Z" fill="#000000" fill-rule="nonzero" fill-opacity="1" /><path clip-path="url(#clip590)" d="M1131.35 1310.18 L1168.06 1310.18 L1168.06 1318.05 L1139.92 1318.05 L1139.92 1334.99 Q1141.95 1334.3 1143.99 1333.97 Q1146.03 1333.6 1148.06 1333.6 Q1159.64 1333.6 1166.4 1339.94 Q1173.16 1346.29 1173.16 1357.12 Q1173.16 1368.28 1166.21 1374.48 Q1159.27 1380.64 1146.63 1380.64 Q1142.28 1380.64 1137.74 1379.9 Q1133.25 1379.16 1128.43 1377.68 L1128.43 1368.28 Q1132.6 1370.55 1137.04 1371.66 Q1141.49 1372.77 1146.44 1372.77 Q1154.45 1372.77 1159.13 1368.56 Q1163.8 1364.34 1163.8 1357.12 Q1163.8 1349.9 1159.13 1345.68 Q1154.45 1341.47 1146.44 1341.47 Q1142.69 1341.47 1138.94 1342.31 Q1135.24 1343.14 1131.35 1344.9 L1131.35 1310.18 Z" fill="#000000" fill-rule="nonzero" fill-opacity="1" /><path clip-path="url(#clip590)" d="M1347.9 1316.33 Q1340.68 1316.33 1337.02 1323.46 Q1333.41 1330.55 1333.41 1344.81 Q1333.41 1359.02 1337.02 1366.15 Q1340.68 1373.23 1347.9 1373.23 Q1355.17 1373.23 1358.78 1366.15 Q1362.44 1359.02 1362.44 1344.81 Q1362.44 1330.55 1358.78 1323.46 Q1355.17 1316.33 1347.9 1316.33 M1347.9 1308.93 Q1359.52 1308.93 1365.63 1318.14 Q1371.79 1327.31 1371.79 1344.81 Q1371.79 1362.26 1365.63 1371.47 Q1359.52 1380.64 1347.9 1380.64 Q1336.28 1380.64 1330.12 1371.47 Q1324.01 1362.26 1324.01 1344.81 Q1324.01 1327.31 1330.12 1318.14 Q1336.28 1308.93 1347.9 1308.93 Z" fill="#000000" fill-rule="nonzero" fill-opacity="1" /><path clip-path="url(#clip590)" d="M1388.23 1367.54 L1397.99 1367.54 L1397.99 1379.3 L1388.23 1379.3 L1388.23 1367.54 Z" fill="#000000" fill-rule="nonzero" fill-opacity="1" /><path clip-path="url(#clip590)" d="M1418.46 1310.18 L1455.17 1310.18 L1455.17 1318.05 L1427.02 1318.05 L1427.02 1334.99 Q1429.06 1334.3 1431.1 1333.97 Q1433.13 1333.6 1435.17 1333.6 Q1446.74 1333.6 1453.5 1339.94 Q1460.26 1346.29 1460.26 1357.12 Q1460.26 1368.28 1453.32 1374.48 Q1446.37 1380.64 1433.74 1380.64 Q1429.38 1380.64 1424.85 1379.9 Q1420.36 1379.16 1415.54 1377.68 L1415.54 1368.28 Q1419.71 1370.55 1424.15 1371.66 Q1428.6 1372.77 1433.55 1372.77 Q1441.56 1372.77 1446.24 1368.56 Q1450.91 1364.34 1450.91 1357.12 Q1450.91 1349.9 1446.24 1345.68 Q1441.56 1341.47 1433.55 1341.47 Q1429.8 1341.47 1426.05 1342.31 Q1422.35 1343.14 1418.46 1344.9 L1418.46 1310.18 Z" fill="#000000" fill-rule="nonzero" fill-opacity="1" /><path clip-path="url(#clip590)" d="M1498.69 1316.33 Q1491.47 1316.33 1487.81 1323.46 Q1484.2 1330.55 1484.2 1344.81 Q1484.2 1359.02 1487.81 1366.15 Q1491.47 1373.23 1498.69 1373.23 Q1505.96 1373.23 1509.57 1366.15 Q1513.23 1359.02 1513.23 1344.81 Q1513.23 1330.55 1509.57 1323.46 Q1505.96 1316.33 1498.69 1316.33 M1498.69 1308.93 Q1510.31 1308.93 1516.42 1318.14 Q1522.58 1327.31 1522.58 1344.81 Q1522.58 1362.26 1516.42 1371.47 Q1510.31 1380.64 1498.69 1380.64 Q1487.07 1380.64 1480.91 1371.47 Q1474.8 1362.26 1474.8 1344.81 Q1474.8 1327.31 1480.91 1318.14 Q1487.07 1308.93 1498.69 1308.93 Z" fill="#000000" fill-rule="nonzero" fill-opacity="1" /><path clip-path="url(#clip590)" d="M1697.32 1316.33 Q1690.1 1316.33 1686.45 1323.46 Q1682.83 1330.55 1682.83 1344.81 Q1682.83 1359.02 1686.45 1366.15 Q1690.1 1373.23 1697.32 1373.23 Q1704.59 1373.23 1708.2 1366.15 Q1711.86 1359.02 1711.86 1344.81 Q1711.86 1330.55 1708.2 1323.46 Q1704.59 1316.33 1697.32 1316.33 M1697.32 1308.93 Q1708.94 1308.93 1715.06 1318.14 Q1721.21 1327.31 1721.21 1344.81 Q1721.21 1362.26 1715.06 1371.47 Q1708.94 1380.64 1697.32 1380.64 Q1685.7 1380.64 1679.55 1371.47 Q1673.44 1362.26 1673.44 1344.81 Q1673.44 1327.31 1679.55 1318.14 Q1685.7 1308.93 1697.32 1308.93 Z" fill="#000000" fill-rule="nonzero" fill-opacity="1" /><path clip-path="url(#clip590)" d="M1737.65 1367.54 L1747.42 1367.54 L1747.42 1379.3 L1737.65 1379.3 L1737.65 1367.54 Z" fill="#000000" fill-rule="nonzero" fill-opacity="1" /><path clip-path="url(#clip590)" d="M1765.43 1310.18 L1809.87 1310.18 L1809.87 1314.16 L1784.78 1379.3 L1775.01 1379.3 L1798.62 1318.05 L1765.43 1318.05 L1765.43 1310.18 Z" fill="#000000" fill-rule="nonzero" fill-opacity="1" /><path clip-path="url(#clip590)" d="M1828.2 1310.18 L1864.92 1310.18 L1864.92 1318.05 L1836.77 1318.05 L1836.77 1334.99 Q1838.81 1334.3 1840.84 1333.97 Q1842.88 1333.6 1844.92 1333.6 Q1856.49 1333.6 1863.25 1339.94 Q1870.01 1346.29 1870.01 1357.12 Q1870.01 1368.28 1863.06 1374.48 Q1856.12 1380.64 1843.48 1380.64 Q1839.13 1380.64 1834.59 1379.9 Q1830.1 1379.16 1825.29 1377.68 L1825.29 1368.28 Q1829.45 1370.55 1833.9 1371.66 Q1838.34 1372.77 1843.3 1372.77 Q1851.31 1372.77 1855.98 1368.56 Q1860.66 1364.34 1860.66 1357.12 Q1860.66 1349.9 1855.98 1345.68 Q1851.31 1341.47 1843.3 1341.47 Q1839.55 1341.47 1835.8 1342.31 Q1832.09 1343.14 1828.2 1344.9 L1828.2 1310.18 Z" fill="#000000" fill-rule="nonzero" fill-opacity="1" /><path clip-path="url(#clip590)" d="M2024.29 1371.43 L2039.57 1371.43 L2039.57 1318.69 L2022.95 1322.03 L2022.95 1313.51 L2039.48 1310.18 L2048.83 1310.18 L2048.83 1371.43 L2064.11 1371.43 L2064.11 1379.3 L2024.29 1379.3 L2024.29 1371.43 Z" fill="#000000" fill-rule="nonzero" fill-opacity="1" /><path clip-path="url(#clip590)" d="M2083 1367.54 L2092.76 1367.54 L2092.76 1379.3 L2083 1379.3 L2083 1367.54 Z" fill="#000000" fill-rule="nonzero" fill-opacity="1" /><path clip-path="url(#clip590)" d="M2133.13 1316.33 Q2125.91 1316.33 2122.26 1323.46 Q2118.64 1330.55 2118.64 1344.81 Q2118.64 1359.02 2122.26 1366.15 Q2125.91 1373.23 2133.13 1373.23 Q2140.4 1373.23 2144.01 1366.15 Q2147.67 1359.02 2147.67 1344.81 Q2147.67 1330.55 2144.01 1323.46 Q2140.4 1316.33 2133.13 1316.33 M2133.13 1308.93 Q2144.76 1308.93 2150.87 1318.14 Q2157.02 1327.31 2157.02 1344.81 Q2157.02 1362.26 2150.87 1371.47 Q2144.76 1380.64 2133.13 1380.64 Q2121.51 1380.64 2115.36 1371.47 Q2109.25 1362.26 2109.25 1344.81 Q2109.25 1327.31 2115.36 1318.14 Q2121.51 1308.93 2133.13 1308.93 Z" fill="#000000" fill-rule="nonzero" fill-opacity="1" /><path clip-path="url(#clip590)" d="M2193.46 1316.33 Q2186.24 1316.33 2182.58 1323.46 Q2178.97 1330.55 2178.97 1344.81 Q2178.97 1359.02 2182.58 1366.15 Q2186.24 1373.23 2193.46 1373.23 Q2200.73 1373.23 2204.34 1366.15 Q2208 1359.02 2208 1344.81 Q2208 1330.55 2204.34 1323.46 Q2200.73 1316.33 2193.46 1316.33 M2193.46 1308.93 Q2205.08 1308.93 2211.19 1318.14 Q2217.35 1327.31 2217.35 1344.81 Q2217.35 1362.26 2211.19 1371.47 Q2205.08 1380.64 2193.46 1380.64 Q2181.84 1380.64 2175.68 1371.47 Q2169.57 1362.26 2169.57 1344.81 Q2169.57 1327.31 2175.68 1318.14 Q2181.84 1308.93 2193.46 1308.93 Z" fill="#000000" fill-rule="nonzero" fill-opacity="1" /><path clip-path="url(#clip590)" d="M1378.53 1484.39 L1378.53 1527.42 L1366.81 1527.42 L1366.81 1484.77 Q1366.81 1474.65 1362.87 1469.62 Q1358.92 1464.59 1351.03 1464.59 Q1341.54 1464.59 1336.07 1470.64 Q1330.59 1476.69 1330.59 1487.13 L1330.59 1527.42 L1318.82 1527.42 L1318.82 1428.37 L1330.59 1428.37 L1330.59 1467.2 Q1334.79 1460.77 1340.46 1457.59 Q1346.19 1454.41 1353.64 1454.41 Q1365.92 1454.41 1372.22 1462.05 Q1378.53 1469.62 1378.53 1484.39 Z" fill="#000000" fill-rule="nonzero" fill-opacity="1" /><path clip-path="url(#clip590)" d="M1429.51 1464.34 Q1420.09 1464.34 1414.62 1471.72 Q1409.14 1479.04 1409.14 1491.84 Q1409.14 1504.63 1414.56 1512.02 Q1420.03 1519.34 1429.51 1519.34 Q1438.87 1519.34 1444.35 1511.96 Q1449.82 1504.57 1449.82 1491.84 Q1449.82 1479.17 1444.35 1471.79 Q1438.87 1464.34 1429.51 1464.34 M1429.51 1454.41 Q1444.79 1454.41 1453.51 1464.34 Q1462.23 1474.27 1462.23 1491.84 Q1462.23 1509.35 1453.51 1519.34 Q1444.79 1529.27 1429.51 1529.27 Q1414.17 1529.27 1405.45 1519.34 Q1396.8 1509.35 1396.8 1491.84 Q1396.8 1474.27 1405.45 1464.34 Q1414.17 1454.41 1429.51 1454.41 Z" fill="#000000" fill-rule="nonzero" fill-opacity="1" /><path clip-path="url(#clip590)" d="M1480.44 1499.29 L1480.44 1456.13 L1492.15 1456.13 L1492.15 1498.84 Q1492.15 1508.96 1496.1 1514.06 Q1500.05 1519.08 1507.94 1519.08 Q1517.43 1519.08 1522.9 1513.04 Q1528.44 1506.99 1528.44 1496.55 L1528.44 1456.13 L1540.15 1456.13 L1540.15 1527.42 L1528.44 1527.42 L1528.44 1516.47 Q1524.17 1522.97 1518.51 1526.15 Q1512.91 1529.27 1505.46 1529.27 Q1493.17 1529.27 1486.81 1521.63 Q1480.44 1513.99 1480.44 1499.29 M1509.91 1454.41 L1509.91 1454.41 Z" fill="#000000" fill-rule="nonzero" fill-opacity="1" /><path clip-path="url(#clip590)" d="M1605.59 1467.08 Q1603.62 1465.93 1601.26 1465.42 Q1598.97 1464.85 1596.17 1464.85 Q1586.24 1464.85 1580.89 1471.34 Q1575.61 1477.77 1575.61 1489.87 L1575.61 1527.42 L1563.83 1527.42 L1563.83 1456.13 L1575.61 1456.13 L1575.61 1467.2 Q1579.3 1460.71 1585.22 1457.59 Q1591.14 1454.41 1599.61 1454.41 Q1600.82 1454.41 1602.28 1454.6 Q1603.74 1454.73 1605.53 1455.05 L1605.59 1467.08 Z" fill="#000000" fill-rule="nonzero" fill-opacity="1" /><path clip-path="url(#clip590)" d="M1663.33 1458.23 L1663.33 1469.3 Q1658.36 1466.76 1653.01 1465.49 Q1647.67 1464.21 1641.94 1464.21 Q1633.22 1464.21 1628.83 1466.89 Q1624.5 1469.56 1624.5 1474.91 Q1624.5 1478.98 1627.62 1481.34 Q1630.73 1483.63 1640.16 1485.73 L1644.17 1486.62 Q1656.64 1489.29 1661.86 1494.19 Q1667.15 1499.03 1667.15 1507.75 Q1667.15 1517.68 1659.25 1523.48 Q1651.42 1529.27 1637.67 1529.27 Q1631.94 1529.27 1625.71 1528.12 Q1619.53 1527.04 1612.66 1524.81 L1612.66 1512.72 Q1619.15 1516.09 1625.45 1517.81 Q1631.75 1519.47 1637.93 1519.47 Q1646.2 1519.47 1650.66 1516.67 Q1655.12 1513.8 1655.12 1508.64 Q1655.12 1503.87 1651.87 1501.32 Q1648.69 1498.78 1637.8 1496.42 L1633.73 1495.47 Q1622.84 1493.18 1618 1488.47 Q1613.17 1483.69 1613.17 1475.42 Q1613.17 1465.36 1620.3 1459.88 Q1627.42 1454.41 1640.54 1454.41 Q1647.03 1454.41 1652.76 1455.36 Q1658.49 1456.32 1663.33 1458.23 Z" fill="#000000" fill-rule="nonzero" fill-opacity="1" /><polyline clip-path="url(#clip592)" style="stroke:#000000; stroke-linecap:round; stroke-linejoin:round; stroke-width:4; stroke-opacity:0.1; fill:none" points="680.45,1230.94 2305.51,1230.94 "/>
<polyline clip-path="url(#clip592)" style="stroke:#000000; stroke-linecap:round; stroke-linejoin:round; stroke-width:4; stroke-opacity:0.1; fill:none" points="680.45,939.543 2305.51,939.543 "/>
<polyline clip-path="url(#clip592)" style="stroke:#000000; stroke-linecap:round; stroke-linejoin:round; stroke-width:4; stroke-opacity:0.1; fill:none" points="680.45,648.145 2305.51,648.145 "/>
<polyline clip-path="url(#clip592)" style="stroke:#000000; stroke-linecap:round; stroke-linejoin:round; stroke-width:4; stroke-opacity:0.1; fill:none" points="680.45,356.747 2305.51,356.747 "/>
<polyline clip-path="url(#clip590)" style="stroke:#000000; stroke-linecap:round; stroke-linejoin:round; stroke-width:8; stroke-opacity:1; fill:none" points="680.45,1273.7 680.45,94.4882 "/>
<polyline clip-path="url(#clip590)" style="stroke:#000000; stroke-linecap:round; stroke-linejoin:round; stroke-width:8; stroke-opacity:1; fill:none" points="680.45,1230.94 699.348,1230.94 "/>
<polyline clip-path="url(#clip590)" style="stroke:#000000; stroke-linecap:round; stroke-linejoin:round; stroke-width:8; stroke-opacity:1; fill:none" points="680.45,939.543 699.348,939.543 "/>
<polyline clip-path="url(#clip590)" style="stroke:#000000; stroke-linecap:round; stroke-linejoin:round; stroke-width:8; stroke-opacity:1; fill:none" points="680.45,648.145 699.348,648.145 "/>
<polyline clip-path="url(#clip590)" style="stroke:#000000; stroke-linecap:round; stroke-linejoin:round; stroke-width:8; stroke-opacity:1; fill:none" points="680.45,356.747 699.348,356.747 "/>
<path clip-path="url(#clip590)" d="M530.099 1202.54 Q522.877 1202.54 519.22 1209.67 Q515.608 1216.75 515.608 1231.01 Q515.608 1245.22 519.22 1252.35 Q522.877 1259.44 530.099 1259.44 Q537.368 1259.44 540.979 1252.35 Q544.636 1245.22 544.636 1231.01 Q544.636 1216.75 540.979 1209.67 Q537.368 1202.54 530.099 1202.54 M530.099 1195.13 Q541.719 1195.13 547.831 1204.34 Q553.988 1213.51 553.988 1231.01 Q553.988 1248.46 547.831 1257.68 Q541.719 1266.84 530.099 1266.84 Q518.479 1266.84 512.321 1257.68 Q506.21 1248.46 506.21 1231.01 Q506.21 1213.51 512.321 1204.34 Q518.479 1195.13 530.099 1195.13 Z" fill="#000000" fill-rule="nonzero" fill-opacity="1" /><path clip-path="url(#clip590)" d="M570.423 1253.74 L580.191 1253.74 L580.191 1265.5 L570.423 1265.5 L570.423 1253.74 Z" fill="#000000" fill-rule="nonzero" fill-opacity="1" /><path clip-path="url(#clip590)" d="M620.562 1202.54 Q613.339 1202.54 609.682 1209.67 Q606.071 1216.75 606.071 1231.01 Q606.071 1245.22 609.682 1252.35 Q613.339 1259.44 620.562 1259.44 Q627.83 1259.44 631.441 1252.35 Q635.099 1245.22 635.099 1231.01 Q635.099 1216.75 631.441 1209.67 Q627.83 1202.54 620.562 1202.54 M620.562 1195.13 Q632.182 1195.13 638.293 1204.34 Q644.45 1213.51 644.45 1231.01 Q644.45 1248.46 638.293 1257.68 Q632.182 1266.84 620.562 1266.84 Q608.941 1266.84 602.784 1257.68 Q596.673 1248.46 596.673 1231.01 Q596.673 1213.51 602.784 1204.34 Q608.941 1195.13 620.562 1195.13 Z" fill="#000000" fill-rule="nonzero" fill-opacity="1" /><path clip-path="url(#clip590)" d="M391.072 966.233 L406.35 966.233 L406.35 913.502 L389.73 916.835 L389.73 908.316 L406.257 904.983 L415.609 904.983 L415.609 966.233 L430.887 966.233 L430.887 974.103 L391.072 974.103 L391.072 966.233 Z" fill="#000000" fill-rule="nonzero" fill-opacity="1" /><path clip-path="url(#clip590)" d="M469.775 911.141 Q462.553 911.141 458.896 918.27 Q455.285 925.353 455.285 939.613 Q455.285 953.825 458.896 960.955 Q462.553 968.038 469.775 968.038 Q477.044 968.038 480.655 960.955 Q484.312 953.825 484.312 939.613 Q484.312 925.353 480.655 918.27 Q477.044 911.141 469.775 911.141 M469.775 903.733 Q481.396 903.733 487.507 912.946 Q493.664 922.113 493.664 939.613 Q493.664 957.066 487.507 966.279 Q481.396 975.446 469.775 975.446 Q458.155 975.446 451.998 966.279 Q445.887 957.066 445.887 939.613 Q445.887 922.113 451.998 912.946 Q458.155 903.733 469.775 903.733 Z" fill="#000000" fill-rule="nonzero" fill-opacity="1" /><path clip-path="url(#clip590)" d="M530.099 911.141 Q522.877 911.141 519.22 918.27 Q515.608 925.353 515.608 939.613 Q515.608 953.825 519.22 960.955 Q522.877 968.038 530.099 968.038 Q537.368 968.038 540.979 960.955 Q544.636 953.825 544.636 939.613 Q544.636 925.353 540.979 918.27 Q537.368 911.141 530.099 911.141 M530.099 903.733 Q541.719 903.733 547.831 912.946 Q553.988 922.113 553.988 939.613 Q553.988 957.066 547.831 966.279 Q541.719 975.446 530.099 975.446 Q518.479 975.446 512.321 966.279 Q506.21 957.066 506.21 939.613 Q506.21 922.113 512.321 912.946 Q518.479 903.733 530.099 903.733 Z" fill="#000000" fill-rule="nonzero" fill-opacity="1" /><path clip-path="url(#clip590)" d="M570.423 962.344 L580.191 962.344 L580.191 974.103 L570.423 974.103 L570.423 962.344 Z" fill="#000000" fill-rule="nonzero" fill-opacity="1" /><path clip-path="url(#clip590)" d="M620.562 911.141 Q613.339 911.141 609.682 918.27 Q606.071 925.353 606.071 939.613 Q606.071 953.825 609.682 960.955 Q613.339 968.038 620.562 968.038 Q627.83 968.038 631.441 960.955 Q635.099 953.825 635.099 939.613 Q635.099 925.353 631.441 918.27 Q627.83 911.141 620.562 911.141 M620.562 903.733 Q632.182 903.733 638.293 912.946 Q644.45 922.113 644.45 939.613 Q644.45 957.066 638.293 966.279 Q632.182 975.446 620.562 975.446 Q608.941 975.446 602.784 966.279 Q596.673 957.066 596.673 939.613 Q596.673 922.113 602.784 912.946 Q608.941 903.733 620.562 903.733 Z" fill="#000000" fill-rule="nonzero" fill-opacity="1" /><path clip-path="url(#clip590)" d="M397.507 674.835 L430.146 674.835 L430.146 682.705 L386.257 682.705 L386.257 674.835 Q391.581 669.325 400.748 660.066 Q409.961 650.761 412.322 648.075 Q416.813 643.029 418.572 639.557 Q420.378 636.038 420.378 632.659 Q420.378 627.15 416.489 623.677 Q412.646 620.205 406.442 620.205 Q402.044 620.205 397.137 621.733 Q392.276 623.261 386.72 626.363 L386.72 616.918 Q392.368 614.65 397.276 613.492 Q402.183 612.335 406.257 612.335 Q416.998 612.335 423.387 617.705 Q429.776 623.076 429.776 632.057 Q429.776 636.316 428.155 640.159 Q426.581 643.955 422.368 649.14 Q421.211 650.483 415.007 656.918 Q408.803 663.307 397.507 674.835 Z" fill="#000000" fill-rule="nonzero" fill-opacity="1" /><path clip-path="url(#clip590)" d="M469.775 619.742 Q462.553 619.742 458.896 626.872 Q455.285 633.955 455.285 648.214 Q455.285 662.427 458.896 669.557 Q462.553 676.64 469.775 676.64 Q477.044 676.64 480.655 669.557 Q484.312 662.427 484.312 648.214 Q484.312 633.955 480.655 626.872 Q477.044 619.742 469.775 619.742 M469.775 612.335 Q481.396 612.335 487.507 621.548 Q493.664 630.714 493.664 648.214 Q493.664 665.668 487.507 674.881 Q481.396 684.047 469.775 684.047 Q458.155 684.047 451.998 674.881 Q445.887 665.668 445.887 648.214 Q445.887 630.714 451.998 621.548 Q458.155 612.335 469.775 612.335 Z" fill="#000000" fill-rule="nonzero" fill-opacity="1" /><path clip-path="url(#clip590)" d="M530.099 619.742 Q522.877 619.742 519.22 626.872 Q515.608 633.955 515.608 648.214 Q515.608 662.427 519.22 669.557 Q522.877 676.64 530.099 676.64 Q537.368 676.64 540.979 669.557 Q544.636 662.427 544.636 648.214 Q544.636 633.955 540.979 626.872 Q537.368 619.742 530.099 619.742 M530.099 612.335 Q541.719 612.335 547.831 621.548 Q553.988 630.714 553.988 648.214 Q553.988 665.668 547.831 674.881 Q541.719 684.047 530.099 684.047 Q518.479 684.047 512.321 674.881 Q506.21 665.668 506.21 648.214 Q506.21 630.714 512.321 621.548 Q518.479 612.335 530.099 612.335 Z" fill="#000000" fill-rule="nonzero" fill-opacity="1" /><path clip-path="url(#clip590)" d="M570.423 670.946 L580.191 670.946 L580.191 682.705 L570.423 682.705 L570.423 670.946 Z" fill="#000000" fill-rule="nonzero" fill-opacity="1" /><path clip-path="url(#clip590)" d="M620.562 619.742 Q613.339 619.742 609.682 626.872 Q606.071 633.955 606.071 648.214 Q606.071 662.427 609.682 669.557 Q613.339 676.64 620.562 676.64 Q627.83 676.64 631.441 669.557 Q635.099 662.427 635.099 648.214 Q635.099 633.955 631.441 626.872 Q627.83 619.742 620.562 619.742 M620.562 612.335 Q632.182 612.335 638.293 621.548 Q644.45 630.714 644.45 648.214 Q644.45 665.668 638.293 674.881 Q632.182 684.047 620.562 684.047 Q608.941 684.047 602.784 674.881 Q596.673 665.668 596.673 648.214 Q596.673 630.714 602.784 621.548 Q608.941 612.335 620.562 612.335 Z" fill="#000000" fill-rule="nonzero" fill-opacity="1" /><path clip-path="url(#clip590)" d="M417.785 354.038 Q424.498 355.473 428.248 360.01 Q432.044 364.547 432.044 371.214 Q432.044 381.446 425.007 387.047 Q417.97 392.649 405.007 392.649 Q400.655 392.649 396.026 391.77 Q391.442 390.936 386.535 389.223 L386.535 380.196 Q390.424 382.464 395.054 383.621 Q399.683 384.779 404.729 384.779 Q413.526 384.779 418.109 381.307 Q422.739 377.834 422.739 371.214 Q422.739 365.103 418.433 361.677 Q414.174 358.205 406.535 358.205 L398.479 358.205 L398.479 350.52 L406.905 350.52 Q413.803 350.52 417.461 347.788 Q421.118 345.011 421.118 339.825 Q421.118 334.501 417.322 331.677 Q413.572 328.807 406.535 328.807 Q402.692 328.807 398.294 329.64 Q393.896 330.474 388.618 332.233 L388.618 323.9 Q393.942 322.418 398.572 321.677 Q403.248 320.937 407.368 320.937 Q418.016 320.937 424.22 325.798 Q430.424 330.612 430.424 338.853 Q430.424 344.594 427.137 348.575 Q423.85 352.51 417.785 354.038 Z" fill="#000000" fill-rule="nonzero" fill-opacity="1" /><path clip-path="url(#clip590)" d="M469.775 328.344 Q462.553 328.344 458.896 335.474 Q455.285 342.557 455.285 356.816 Q455.285 371.029 458.896 378.159 Q462.553 385.242 469.775 385.242 Q477.044 385.242 480.655 378.159 Q484.312 371.029 484.312 356.816 Q484.312 342.557 480.655 335.474 Q477.044 328.344 469.775 328.344 M469.775 320.937 Q481.396 320.937 487.507 330.15 Q493.664 339.316 493.664 356.816 Q493.664 374.27 487.507 383.483 Q481.396 392.649 469.775 392.649 Q458.155 392.649 451.998 383.483 Q445.887 374.27 445.887 356.816 Q445.887 339.316 451.998 330.15 Q458.155 320.937 469.775 320.937 Z" fill="#000000" fill-rule="nonzero" fill-opacity="1" /><path clip-path="url(#clip590)" d="M530.099 328.344 Q522.877 328.344 519.22 335.474 Q515.608 342.557 515.608 356.816 Q515.608 371.029 519.22 378.159 Q522.877 385.242 530.099 385.242 Q537.368 385.242 540.979 378.159 Q544.636 371.029 544.636 356.816 Q544.636 342.557 540.979 335.474 Q537.368 328.344 530.099 328.344 M530.099 320.937 Q541.719 320.937 547.831 330.15 Q553.988 339.316 553.988 356.816 Q553.988 374.27 547.831 383.483 Q541.719 392.649 530.099 392.649 Q518.479 392.649 512.321 383.483 Q506.21 374.27 506.21 356.816 Q506.21 339.316 512.321 330.15 Q518.479 320.937 530.099 320.937 Z" fill="#000000" fill-rule="nonzero" fill-opacity="1" /><path clip-path="url(#clip590)" d="M570.423 379.547 L580.191 379.547 L580.191 391.307 L570.423 391.307 L570.423 379.547 Z" fill="#000000" fill-rule="nonzero" fill-opacity="1" /><path clip-path="url(#clip590)" d="M620.562 328.344 Q613.339 328.344 609.682 335.474 Q606.071 342.557 606.071 356.816 Q606.071 371.029 609.682 378.159 Q613.339 385.242 620.562 385.242 Q627.83 385.242 631.441 378.159 Q635.099 371.029 635.099 356.816 Q635.099 342.557 631.441 335.474 Q627.83 328.344 620.562 328.344 M620.562 320.937 Q632.182 320.937 638.293 330.15 Q644.45 339.316 644.45 356.816 Q644.45 374.27 638.293 383.483 Q632.182 392.649 620.562 392.649 Q608.941 392.649 602.784 383.483 Q596.673 374.27 596.673 356.816 Q596.673 339.316 602.784 330.15 Q608.941 320.937 620.562 320.937 Z" fill="#000000" fill-rule="nonzero" fill-opacity="1" /><path clip-path="url(#clip590)" d="M253.187 913.798 L264.136 913.798 Q261.398 918.764 260.062 923.793 Q258.661 928.758 258.661 933.85 Q258.661 945.245 265.918 951.547 Q273.111 957.849 286.161 957.849 Q299.211 957.849 306.468 951.547 Q313.661 945.245 313.661 933.85 Q313.661 928.758 312.324 923.793 Q310.924 918.764 308.186 913.798 L319.008 913.798 Q321.3 918.7 322.446 923.984 Q323.591 929.204 323.591 935.124 Q323.591 951.229 313.47 960.714 Q303.348 970.199 286.161 970.199 Q268.719 970.199 258.725 960.65 Q248.731 951.038 248.731 934.36 Q248.731 928.949 249.876 923.793 Q250.959 918.636 253.187 913.798 Z" fill="#000000" fill-rule="nonzero" fill-opacity="1" /><path clip-path="url(#clip590)" d="M258.661 865.801 Q258.661 875.222 266.045 880.697 Q273.366 886.171 286.161 886.171 Q298.956 886.171 306.34 880.76 Q313.661 875.286 313.661 865.801 Q313.661 856.443 306.277 850.969 Q298.892 845.494 286.161 845.494 Q273.493 845.494 266.109 850.969 Q258.661 856.443 258.661 865.801 M248.731 865.801 Q248.731 850.523 258.661 841.802 Q268.592 833.081 286.161 833.081 Q303.667 833.081 313.661 841.802 Q323.591 850.523 323.591 865.801 Q323.591 881.142 313.661 889.863 Q303.667 898.521 286.161 898.521 Q268.592 898.521 258.661 889.863 Q248.731 881.142 248.731 865.801 Z" fill="#000000" fill-rule="nonzero" fill-opacity="1" /><path clip-path="url(#clip590)" d="M278.713 754.401 L321.745 754.401 L321.745 766.114 L279.095 766.114 Q268.974 766.114 263.945 770.061 Q258.916 774.008 258.916 781.901 Q258.916 791.386 264.963 796.86 Q271.011 802.335 281.45 802.335 L321.745 802.335 L321.745 814.112 L250.449 814.112 L250.449 802.335 L261.526 802.335 Q255.096 798.134 251.914 792.468 Q248.731 786.739 248.731 779.291 Q248.731 767.005 256.37 760.703 Q263.945 754.401 278.713 754.401 Z" fill="#000000" fill-rule="nonzero" fill-opacity="1" /><path clip-path="url(#clip590)" d="M253.187 679.731 L264.136 679.731 Q261.398 684.697 260.062 689.726 Q258.661 694.691 258.661 699.783 Q258.661 711.178 265.918 717.48 Q273.111 723.782 286.161 723.782 Q299.211 723.782 306.468 717.48 Q313.661 711.178 313.661 699.783 Q313.661 694.691 312.324 689.726 Q310.924 684.697 308.186 679.731 L319.008 679.731 Q321.3 684.633 322.446 689.917 Q323.591 695.136 323.591 701.057 Q323.591 717.162 313.47 726.647 Q303.348 736.132 286.161 736.132 Q268.719 736.132 258.725 726.583 Q248.731 716.971 248.731 700.293 Q248.731 694.882 249.876 689.726 Q250.959 684.569 253.187 679.731 Z" fill="#000000" fill-rule="nonzero" fill-opacity="1" /><path clip-path="url(#clip590)" d="M305.576 657.706 L305.576 644.274 L321.745 644.274 L321.745 657.706 L305.576 657.706 Z" fill="#000000" fill-rule="nonzero" fill-opacity="1" /><path clip-path="url(#clip590)" d="M234.026 504.802 L247.585 504.802 Q241.537 511.295 238.546 518.679 Q235.554 526 235.554 534.275 Q235.554 550.571 245.548 559.229 Q255.478 567.886 274.321 567.886 Q293.1 567.886 303.094 559.229 Q313.024 550.571 313.024 534.275 Q313.024 526 310.032 518.679 Q307.041 511.295 300.993 504.802 L314.425 504.802 Q319.008 511.549 321.3 519.125 Q323.591 526.636 323.591 535.039 Q323.591 556.619 310.414 569.032 Q297.174 581.445 274.321 581.445 Q251.404 581.445 238.227 569.032 Q224.987 556.619 224.987 535.039 Q224.987 526.509 227.278 518.997 Q229.506 511.422 234.026 504.802 Z" fill="#000000" fill-rule="nonzero" fill-opacity="1" /><path clip-path="url(#clip590)" d="M226.705 484.941 L226.705 465.78 L291.381 441.527 L226.705 417.146 L226.705 397.985 L321.745 397.985 L321.745 410.526 L238.291 410.526 L303.476 435.034 L303.476 447.956 L238.291 472.464 L321.745 472.464 L321.745 484.941 L226.705 484.941 Z" fill="#000000" fill-rule="nonzero" fill-opacity="1" /><polyline clip-path="url(#clip592)" style="stroke:#008000; stroke-linecap:round; stroke-linejoin:round; stroke-width:8; stroke-opacity:1; fill:none" points="726.443,1028.95 865.813,1094.67 1005.18,1069.77 1144.55,1036.16 1283.93,969.39 1423.3,990.863 1562.67,969.078 1702.04,1015.88 1841.41,982.104 1980.78,968.175 2120.15,939.543 2259.52,986.559 "/>
<circle clip-path="url(#clip592)" cx="726.443" cy="1028.95" r="14.4" fill="#008000" fill-rule="evenodd" fill-opacity="1" stroke="#000000" stroke-opacity="1" stroke-width="6.4"/>
<circle clip-path="url(#clip592)" cx="865.813" cy="1094.67" r="14.4" fill="#008000" fill-rule="evenodd" fill-opacity="1" stroke="#000000" stroke-opacity="1" stroke-width="6.4"/>
<circle clip-path="url(#clip592)" cx="1005.18" cy="1069.77" r="14.4" fill="#008000" fill-rule="evenodd" fill-opacity="1" stroke="#000000" stroke-opacity="1" stroke-width="6.4"/>
<circle clip-path="url(#clip592)" cx="1144.55" cy="1036.16" r="14.4" fill="#008000" fill-rule="evenodd" fill-opacity="1" stroke="#000000" stroke-opacity="1" stroke-width="6.4"/>
<circle clip-path="url(#clip592)" cx="1283.93" cy="969.39" r="14.4" fill="#008000" fill-rule="evenodd" fill-opacity="1" stroke="#000000" stroke-opacity="1" stroke-width="6.4"/>
<circle clip-path="url(#clip592)" cx="1423.3" cy="990.863" r="14.4" fill="#008000" fill-rule="evenodd" fill-opacity="1" stroke="#000000" stroke-opacity="1" stroke-width="6.4"/>
<circle clip-path="url(#clip592)" cx="1562.67" cy="969.078" r="14.4" fill="#008000" fill-rule="evenodd" fill-opacity="1" stroke="#000000" stroke-opacity="1" stroke-width="6.4"/>
<circle clip-path="url(#clip592)" cx="1702.04" cy="1015.88" r="14.4" fill="#008000" fill-rule="evenodd" fill-opacity="1" stroke="#000000" stroke-opacity="1" stroke-width="6.4"/>
<circle clip-path="url(#clip592)" cx="1841.41" cy="982.104" r="14.4" fill="#008000" fill-rule="evenodd" fill-opacity="1" stroke="#000000" stroke-opacity="1" stroke-width="6.4"/>
<circle clip-path="url(#clip592)" cx="1980.78" cy="968.175" r="14.4" fill="#008000" fill-rule="evenodd" fill-opacity="1" stroke="#000000" stroke-opacity="1" stroke-width="6.4"/>
<circle clip-path="url(#clip592)" cx="2120.15" cy="939.543" r="14.4" fill="#008000" fill-rule="evenodd" fill-opacity="1" stroke="#000000" stroke-opacity="1" stroke-width="6.4"/>
<circle clip-path="url(#clip592)" cx="2259.52" cy="986.559" r="14.4" fill="#008000" fill-rule="evenodd" fill-opacity="1" stroke="#000000" stroke-opacity="1" stroke-width="6.4"/>
<polyline clip-path="url(#clip592)" style="stroke:#00008b; stroke-linecap:round; stroke-linejoin:round; stroke-width:8; stroke-opacity:1; fill:none" points="726.443,1028.61 865.813,901.705 1005.18,781.259 1144.55,682.643 1283.93,608.888 1423.3,533.498 1562.67,483.818 1702.04,445.086 1841.41,409.489 1980.78,385.456 2120.15,354.326 2259.52,346.565 "/>
<path clip-path="url(#clip592)" d="M726.443 1240.32 L865.813 1115.97 L1005.18 1001.48 L1144.55 894.101 L1283.93 824.529 L1423.3 745.908 L1562.67 701.747 L1702.04 650.955 L1841.41 619.478 L1980.78 604.331 L2120.15 579.129 L2259.52 560.829 L2259.52 130.575 L2120.15 127.862 L1980.78 177.816 L1841.41 188.66 L1702.04 239.594 L1562.67 266.021 L1423.3 308.799 L1283.93 400.907 L1144.55 485.188 L1005.18 566.579 L865.813 696.552 L726.443 814.952  Z" fill="#0000ff" fill-rule="evenodd" fill-opacity="0.1"/>
<polyline clip-path="url(#clip592)" style="stroke:#0000ff; stroke-linecap:round; stroke-linejoin:round; stroke-width:0; stroke-opacity:0.1; fill:none" points="726.443,1240.32 865.813,1115.97 1005.18,1001.48 1144.55,894.101 1283.93,824.529 1423.3,745.908 1562.67,701.747 1702.04,650.955 1841.41,619.478 1980.78,604.331 2120.15,579.129 2259.52,560.829 "/>
</svg>
