<?xml version="1.0" encoding="utf-8"?>
<svg xmlns="http://www.w3.org/2000/svg" xmlns:xlink="http://www.w3.org/1999/xlink" width="600" height="400" viewBox="0 0 2400 1600">
<defs>
  <clipPath id="clip430">
    <rect x="0" y="0" width="2400" height="1600"/>
  </clipPath>
</defs>
<path clip-path="url(#clip430)" d="M0 1600 L2400 1600 L2400 0 L0 0  Z" fill="#ffffff" fill-rule="evenodd" fill-opacity="1"/>
<defs>
  <clipPath id="clip431">
    <rect x="480" y="0" width="1681" height="1600"/>
  </clipPath>
</defs>
<path clip-path="url(#clip430)" d="M685.08 1273.7 L2305.51 1273.7 L2305.51 94.4882 L685.08 94.4882  Z" fill="#ffffff" fill-rule="evenodd" fill-opacity="1"/>
<defs>
  <clipPath id="clip432">
    <rect x="685" y="94" width="1621" height="1180"/>
  </clipPath>
</defs>
<polyline clip-path="url(#clip432)" style="stroke:#000000; stroke-linecap:round; stroke-linejoin:round; stroke-width:4; stroke-opacity:0.1; fill:none" points="730.941,1273.7 730.941,94.4882 "/>
<polyline clip-path="url(#clip432)" style="stroke:#000000; stroke-linecap:round; stroke-linejoin:round; stroke-width:4; stroke-opacity:0.1; fill:none" points="1078.38,1273.7 1078.38,94.4882 "/>
<polyline clip-path="url(#clip432)" style="stroke:#000000; stroke-linecap:round; stroke-linejoin:round; stroke-width:4; stroke-opacity:0.1; fill:none" points="1425.81,1273.7 1425.81,94.4882 "/>
<polyline clip-path="url(#clip432)" style="stroke:#000000; stroke-linecap:round; stroke-linejoin:round; stroke-width:4; stroke-opacity:0.1; fill:none" points="1773.24,1273.7 1773.24,94.4882 "/>
<polyline clip-path="url(#clip432)" style="stroke:#000000; stroke-linecap:round; stroke-linejoin:round; stroke-width:4; stroke-opacity:0.1; fill:none" points="2120.68,1273.7 2120.68,94.4882 "/>
<polyline clip-path="url(#clip430)" style="stroke:#000000; stroke-linecap:round; stroke-linejoin:round; stroke-width:8; stroke-opacity:1; fill:none" points="685.08,1273.7 2305.51,1273.7 "/>
<polyline clip-path="url(#clip430)" style="stroke:#000000; stroke-linecap:round; stroke-linejoin:round; stroke-width:8; stroke-opacity:1; fill:none" points="730.941,1273.7 730.941,1254.8 "/>
<polyline clip-path="url(#clip430)" style="stroke:#000000; stroke-linecap:round; stroke-linejoin:round; stroke-width:8; stroke-opacity:1; fill:none" points="1078.38,1273.7 1078.38,1254.8 "/>
<polyline clip-path="url(#clip430)" style="stroke:#000000; stroke-linecap:round; stroke-linejoin:round; stroke-width:8; stroke-opacity:1; fill:none" points="1425.81,1273.7 1425.81,1254.8 "/>
<polyline clip-path="url(#clip430)" style="stroke:#000000; stroke-linecap:round; stroke-linejoin:round; stroke-width:8; stroke-opacity:1; fill:none" points="1773.24,1273.7 1773.24,1254.8 "/>
<polyline clip-path="url(#clip430)" style="stroke:#000000; stroke-linecap:round; stroke-linejoin:round; stroke-width:8; stroke-opacity:1; fill:none" points="2120.68,1273.7 2120.68,1254.8 "/>
<path clip-path="url(#clip430)" d="M655.548 1316.33 Q648.326 1316.33 644.669 1323.46 Q641.057 1330.55 641.057 1344.81 Q641.057 1359.02 644.669 1366.15 Q648.326 1373.23 655.548 1373.23 Q662.817 1373.23 666.428 1366.15 Q670.085 1359.02 670.085 1344.81 Q670.085 1330.55 666.428 1323.46 Q662.817 1316.33 655.548 1316.33 M655.548 1308.93 Q667.168 1308.93 673.28 1318.14 Q679.437 1327.31 679.437 1344.81 Q679.437 1362.26 673.28 1371.47 Q667.168 1380.64 655.548 1380.64 Q643.928 1380.64 637.77 1371.47 Q631.659 1362.26 631.659 1344.81 Q631.659 1327.31 637.77 1318.14 Q643.928 1308.93 655.548 1308.93 Z" fill="#000000" fill-rule="nonzero" fill-opacity="1" /><path clip-path="url(#clip430)" d="M695.872 1367.54 L705.64 1367.54 L705.64 1379.3 L695.872 1379.3 L695.872 1367.54 Z" fill="#000000" fill-rule="nonzero" fill-opacity="1" /><path clip-path="url(#clip430)" d="M746.011 1316.33 Q738.788 1316.33 735.131 1323.46 Q731.52 1330.55 731.52 1344.81 Q731.52 1359.02 735.131 1366.15 Q738.788 1373.23 746.011 1373.23 Q753.279 1373.23 756.89 1366.15 Q760.548 1359.02 760.548 1344.81 Q760.548 1330.55 756.89 1323.46 Q753.279 1316.33 746.011 1316.33 M746.011 1308.93 Q757.631 1308.93 763.742 1318.14 Q769.899 1327.31 769.899 1344.81 Q769.899 1362.26 763.742 1371.47 Q757.631 1380.64 746.011 1380.64 Q734.39 1380.64 728.233 1371.47 Q722.122 1362.26 722.122 1344.81 Q722.122 1327.31 728.233 1318.14 Q734.39 1308.93 746.011 1308.93 Z" fill="#000000" fill-rule="nonzero" fill-opacity="1" /><path clip-path="url(#clip430)" d="M806.334 1316.33 Q799.112 1316.33 795.455 1323.46 Q791.844 1330.55 791.844 1344.81 Q791.844 1359.02 795.455 1366.15 Q799.112 1373.23 806.334 1373.23 Q813.603 1373.23 817.214 1366.15 Q820.871 1359.02 820.871 1344.81 Q820.871 1330.55 817.214 1323.46 Q813.603 1316.33 806.334 1316.33 M806.334 1308.93 Q817.955 1308.93 824.066 1318.14 Q830.223 1327.31 830.223 1344.81 Q830.223 1362.26 824.066 1371.47 Q817.955 1380.64 806.334 1380.64 Q794.714 1380.64 788.557 1371.47 Q782.446 1362.26 782.446 1344.81 Q782.446 1327.31 788.557 1318.14 Q794.714 1308.93 806.334 1308.93 Z" fill="#000000" fill-rule="nonzero" fill-opacity="1" /><path clip-path="url(#clip430)" d="M1003.98 1316.33 Q996.755 1316.33 993.098 1323.46 Q989.487 1330.55 989.487 1344.81 Q989.487 1359.02 993.098 1366.15 Q996.755 1373.23 1003.98 1373.23 Q1011.25 1373.23 1014.86 1366.15 Q1018.51 1359.02 1018.51 1344.81 Q1018.51 1330.55 1014.86 1323.46 Q1011.25 1316.33 1003.98 1316.33 M1003.98 1308.93 Q1015.6 1308.93 1021.71 1318.14 Q1027.87 1327.31 1027.87 1344.81 Q1027.87 1362.26 1021.71 1371.47 Q1015.6 1380.64 1003.98 1380.64 Q992.357 1380.64 986.2 1371.47 Q980.089 1362.26 980.089 1344.81 Q980.089 1327.31 986.2 1318.14 Q992.357 1308.93 1003.98 1308.93 Z" fill="#000000" fill-rule="nonzero" fill-opacity="1" /><path clip-path="url(#clip430)" d="M1044.3 1367.54 L1054.07 1367.54 L1054.07 1379.3 L1044.3 1379.3 L1044.3 1367.54 Z" fill="#000000" fill-rule="nonzero" fill-opacity="1" /><path clip-path="url(#clip430)" d="M1082.5 1371.43 L1115.13 1371.43 L1115.13 1379.3 L1071.25 1379.3 L1071.25 1371.43 Q1076.57 1365.92 1085.74 1356.66 Q1094.95 1347.35 1097.31 1344.67 Q1101.8 1339.62 1103.56 1336.15 Q1105.37 1332.63 1105.37 1329.25 Q1105.37 1323.74 1101.48 1320.27 Q1097.63 1316.8 1091.43 1316.8 Q1087.03 1316.8 1082.13 1318.32 Q1077.26 1319.85 1071.71 1322.95 L1071.71 1313.51 Q1077.36 1311.24 1082.26 1310.08 Q1087.17 1308.93 1091.25 1308.93 Q1101.99 1308.93 1108.38 1314.3 Q1114.76 1319.67 1114.76 1328.65 Q1114.76 1332.91 1113.14 1336.75 Q1111.57 1340.55 1107.36 1345.73 Q1106.2 1347.07 1100 1353.51 Q1093.79 1359.9 1082.5 1371.43 Z" fill="#000000" fill-rule="nonzero" fill-opacity="1" /><path clip-path="url(#clip430)" d="M1134.86 1310.18 L1171.57 1310.18 L1171.57 1318.05 L1143.42 1318.05 L1143.42 1334.99 Q1145.46 1334.3 1147.5 1333.97 Q1149.53 1333.6 1151.57 1333.6 Q1163.14 1333.6 1169.9 1339.94 Q1176.66 1346.29 1176.66 1357.12 Q1176.66 1368.28 1169.72 1374.48 Q1162.77 1380.64 1150.13 1380.64 Q1145.78 1380.64 1141.25 1379.9 Q1136.75 1379.16 1131.94 1377.68 L1131.94 1368.28 Q1136.11 1370.55 1140.55 1371.66 Q1145 1372.77 1149.95 1372.77 Q1157.96 1372.77 1162.63 1368.56 Q1167.31 1364.34 1167.31 1357.12 Q1167.31 1349.9 1162.63 1345.68 Q1157.96 1341.47 1149.95 1341.47 Q1146.2 1341.47 1142.45 1342.31 Q1138.75 1343.14 1134.86 1344.9 L1134.86 1310.18 Z" fill="#000000" fill-rule="nonzero" fill-opacity="1" /><path clip-path="url(#clip430)" d="M1350.42 1316.33 Q1343.19 1316.33 1339.54 1323.46 Q1335.93 1330.55 1335.93 1344.81 Q1335.93 1359.02 1339.54 1366.15 Q1343.19 1373.23 1350.42 1373.23 Q1357.68 1373.23 1361.3 1366.15 Q1364.95 1359.02 1364.95 1344.81 Q1364.95 1330.55 1361.3 1323.46 Q1357.68 1316.33 1350.42 1316.33 M1350.42 1308.93 Q1362.04 1308.93 1368.15 1318.14 Q1374.3 1327.31 1374.3 1344.81 Q1374.3 1362.26 1368.15 1371.47 Q1362.04 1380.64 1350.42 1380.64 Q1338.8 1380.64 1332.64 1371.47 Q1326.53 1362.26 1326.53 1344.81 Q1326.53 1327.31 1332.64 1318.14 Q1338.8 1308.93 1350.42 1308.93 Z" fill="#000000" fill-rule="nonzero" fill-opacity="1" /><path clip-path="url(#clip430)" d="M1390.74 1367.54 L1400.51 1367.54 L1400.51 1379.3 L1390.74 1379.3 L1390.74 1367.54 Z" fill="#000000" fill-rule="nonzero" fill-opacity="1" /><path clip-path="url(#clip430)" d="M1420.97 1310.18 L1457.68 1310.18 L1457.68 1318.05 L1429.54 1318.05 L1429.54 1334.99 Q1431.57 1334.3 1433.61 1333.97 Q1435.65 1333.6 1437.68 1333.6 Q1449.26 1333.6 1456.02 1339.94 Q1462.78 1346.29 1462.78 1357.12 Q1462.78 1368.28 1455.83 1374.48 Q1448.89 1380.64 1436.25 1380.64 Q1431.9 1380.64 1427.36 1379.9 Q1422.87 1379.16 1418.05 1377.68 L1418.05 1368.28 Q1422.22 1370.55 1426.67 1371.66 Q1431.11 1372.77 1436.06 1372.77 Q1444.07 1372.77 1448.75 1368.56 Q1453.42 1364.34 1453.42 1357.12 Q1453.42 1349.9 1448.75 1345.68 Q1444.07 1341.47 1436.06 1341.47 Q1432.31 1341.47 1428.56 1342.31 Q1424.86 1343.14 1420.97 1344.9 L1420.97 1310.18 Z" fill="#000000" fill-rule="nonzero" fill-opacity="1" /><path clip-path="url(#clip430)" d="M1501.2 1316.33 Q1493.98 1316.33 1490.32 1323.46 Q1486.71 1330.55 1486.71 1344.81 Q1486.71 1359.02 1490.32 1366.15 Q1493.98 1373.23 1501.2 1373.23 Q1508.47 1373.23 1512.08 1366.15 Q1515.74 1359.02 1515.74 1344.81 Q1515.74 1330.55 1512.08 1323.46 Q1508.47 1316.33 1501.2 1316.33 M1501.2 1308.93 Q1512.82 1308.93 1518.93 1318.14 Q1525.09 1327.31 1525.09 1344.81 Q1525.09 1362.26 1518.93 1371.47 Q1512.82 1380.64 1501.2 1380.64 Q1489.58 1380.64 1483.42 1371.47 Q1477.31 1362.26 1477.31 1344.81 Q1477.31 1327.31 1483.42 1318.14 Q1489.58 1308.93 1501.2 1308.93 Z" fill="#000000" fill-rule="nonzero" fill-opacity="1" /><path clip-path="url(#clip430)" d="M1698.85 1316.33 Q1691.62 1316.33 1687.97 1323.46 Q1684.35 1330.55 1684.35 1344.81 Q1684.35 1359.02 1687.97 1366.15 Q1691.62 1373.23 1698.85 1373.23 Q1706.11 1373.23 1709.72 1366.15 Q1713.38 1359.02 1713.38 1344.81 Q1713.38 1330.55 1709.72 1323.46 Q1706.11 1316.33 1698.85 1316.33 M1698.85 1308.93 Q1710.47 1308.93 1716.58 1318.14 Q1722.73 1327.31 1722.73 1344.81 Q1722.73 1362.26 1716.58 1371.47 Q1710.47 1380.64 1698.85 1380.64 Q1687.22 1380.64 1681.07 1371.47 Q1674.96 1362.26 1674.96 1344.81 Q1674.96 1327.31 1681.07 1318.14 Q1687.22 1308.93 1698.85 1308.93 Z" fill="#000000" fill-rule="nonzero" fill-opacity="1" /><path clip-path="url(#clip430)" d="M1739.17 1367.54 L1748.94 1367.54 L1748.94 1379.3 L1739.17 1379.3 L1739.17 1367.54 Z" fill="#000000" fill-rule="nonzero" fill-opacity="1" /><path clip-path="url(#clip430)" d="M1766.95 1310.18 L1811.39 1310.18 L1811.39 1314.16 L1786.3 1379.3 L1776.53 1379.3 L1800.14 1318.05 L1766.95 1318.05 L1766.95 1310.18 Z" fill="#000000" fill-rule="nonzero" fill-opacity="1" /><path clip-path="url(#clip430)" d="M1829.72 1310.18 L1866.44 1310.18 L1866.44 1318.05 L1838.29 1318.05 L1838.29 1334.99 Q1840.33 1334.3 1842.36 1333.97 Q1844.4 1333.6 1846.44 1333.6 Q1858.01 1333.6 1864.77 1339.94 Q1871.53 1346.29 1871.53 1357.12 Q1871.53 1368.28 1864.59 1374.48 Q1857.64 1380.64 1845 1380.64 Q1840.65 1380.64 1836.11 1379.9 Q1831.62 1379.16 1826.81 1377.68 L1826.81 1368.28 Q1830.97 1370.55 1835.42 1371.66 Q1839.86 1372.77 1844.82 1372.77 Q1852.83 1372.77 1857.5 1368.56 Q1862.18 1364.34 1862.18 1357.12 Q1862.18 1349.9 1857.5 1345.68 Q1852.83 1341.47 1844.82 1341.47 Q1841.07 1341.47 1837.32 1342.31 Q1833.61 1343.14 1829.72 1344.9 L1829.72 1310.18 Z" fill="#000000" fill-rule="nonzero" fill-opacity="1" /><path clip-path="url(#clip430)" d="M2024.82 1371.43 L2040.1 1371.43 L2040.1 1318.69 L2023.48 1322.03 L2023.48 1313.51 L2040.01 1310.18 L2049.36 1310.18 L2049.36 1371.43 L2064.64 1371.43 L2064.64 1379.3 L2024.82 1379.3 L2024.82 1371.43 Z" fill="#000000" fill-rule="nonzero" fill-opacity="1" /><path clip-path="url(#clip430)" d="M2083.52 1367.54 L2093.29 1367.54 L2093.29 1379.3 L2083.52 1379.3 L2083.52 1367.54 Z" fill="#000000" fill-rule="nonzero" fill-opacity="1" /><path clip-path="url(#clip430)" d="M2133.66 1316.33 Q2126.44 1316.33 2122.78 1323.46 Q2119.17 1330.55 2119.17 1344.81 Q2119.17 1359.02 2122.78 1366.15 Q2126.44 1373.23 2133.66 1373.23 Q2140.93 1373.23 2144.54 1366.15 Q2148.2 1359.02 2148.2 1344.81 Q2148.2 1330.55 2144.54 1323.46 Q2140.93 1316.33 2133.66 1316.33 M2133.66 1308.93 Q2145.28 1308.93 2151.39 1318.14 Q2157.55 1327.31 2157.55 1344.81 Q2157.55 1362.26 2151.39 1371.47 Q2145.28 1380.64 2133.66 1380.64 Q2122.04 1380.64 2115.89 1371.47 Q2109.77 1362.26 2109.77 1344.81 Q2109.77 1327.31 2115.89 1318.14 Q2122.04 1308.93 2133.66 1308.93 Z" fill="#000000" fill-rule="nonzero" fill-opacity="1" /><path clip-path="url(#clip430)" d="M2193.99 1316.33 Q2186.76 1316.33 2183.11 1323.46 Q2179.5 1330.55 2179.5 1344.81 Q2179.5 1359.02 2183.11 1366.15 Q2186.76 1373.23 2193.99 1373.23 Q2201.26 1373.23 2204.87 1366.15 Q2208.52 1359.02 2208.52 1344.81 Q2208.52 1330.55 2204.87 1323.46 Q2201.26 1316.33 2193.99 1316.33 M2193.99 1308.93 Q2205.61 1308.93 2211.72 1318.14 Q2217.88 1327.31 2217.88 1344.81 Q2217.88 1362.26 2211.72 1371.47 Q2205.61 1380.64 2193.99 1380.64 Q2182.37 1380.64 2176.21 1371.47 Q2170.1 1362.26 2170.1 1344.81 Q2170.1 1327.31 2176.21 1318.14 Q2182.37 1308.93 2193.99 1308.93 Z" fill="#000000" fill-rule="nonzero" fill-opacity="1" /><path clip-path="url(#clip430)" d="M1380.84 1484.39 L1380.84 1527.42 L1369.13 1527.42 L1369.13 1484.77 Q1369.13 1474.65 1365.18 1469.62 Q1361.23 1464.59 1353.34 1464.59 Q1343.86 1464.59 1338.38 1470.64 Q1332.91 1476.69 1332.91 1487.13 L1332.91 1527.42 L1321.13 1527.42 L1321.13 1428.37 L1332.91 1428.37 L1332.91 1467.2 Q1337.11 1460.77 1342.77 1457.59 Q1348.5 1454.41 1355.95 1454.41 Q1368.24 1454.41 1374.54 1462.05 Q1380.84 1469.62 1380.84 1484.39 Z" fill="#000000" fill-rule="nonzero" fill-opacity="1" /><path clip-path="url(#clip430)" d="M1431.83 1464.34 Q1422.41 1464.34 1416.93 1471.72 Q1411.46 1479.04 1411.46 1491.84 Q1411.46 1504.63 1416.87 1512.02 Q1422.34 1519.34 1431.83 1519.34 Q1441.19 1519.34 1446.66 1511.96 Q1452.14 1504.57 1452.14 1491.84 Q1452.14 1479.17 1446.66 1471.79 Q1441.19 1464.34 1431.83 1464.34 M1431.83 1454.41 Q1447.11 1454.41 1455.83 1464.34 Q1464.55 1474.27 1464.55 1491.84 Q1464.55 1509.35 1455.83 1519.34 Q1447.11 1529.27 1431.83 1529.27 Q1416.49 1529.27 1407.77 1519.34 Q1399.11 1509.35 1399.11 1491.84 Q1399.11 1474.27 1407.77 1464.34 Q1416.49 1454.41 1431.83 1454.41 Z" fill="#000000" fill-rule="nonzero" fill-opacity="1" /><path clip-path="url(#clip430)" d="M1482.76 1499.29 L1482.76 1456.13 L1494.47 1456.13 L1494.47 1498.84 Q1494.47 1508.96 1498.42 1514.06 Q1502.36 1519.08 1510.26 1519.08 Q1519.74 1519.08 1525.21 1513.04 Q1530.75 1506.99 1530.75 1496.55 L1530.75 1456.13 L1542.47 1456.13 L1542.47 1527.42 L1530.75 1527.42 L1530.75 1516.47 Q1526.49 1522.97 1520.82 1526.15 Q1515.22 1529.27 1507.77 1529.27 Q1495.49 1529.27 1489.12 1521.63 Q1482.76 1513.99 1482.76 1499.29 M1512.23 1454.41 L1512.23 1454.41 Z" fill="#000000" fill-rule="nonzero" fill-opacity="1" /><path clip-path="url(#clip430)" d="M1607.91 1467.08 Q1605.93 1465.93 1603.58 1465.42 Q1601.28 1464.85 1598.48 1464.85 Q1588.55 1464.85 1583.21 1471.34 Q1577.92 1477.77 1577.92 1489.87 L1577.92 1527.42 L1566.15 1527.42 L1566.15 1456.13 L1577.92 1456.13 L1577.92 1467.2 Q1581.61 1460.71 1587.53 1457.59 Q1593.46 1454.41 1601.92 1454.41 Q1603.13 1454.41 1604.6 1454.6 Q1606.06 1454.73 1607.84 1455.05 L1607.91 1467.08 Z" fill="#000000" fill-rule="nonzero" fill-opacity="1" /><path clip-path="url(#clip430)" d="M1665.64 1458.23 L1665.64 1469.3 Q1660.68 1466.76 1655.33 1465.49 Q1649.98 1464.21 1644.25 1464.21 Q1635.53 1464.21 1631.14 1466.89 Q1626.81 1469.56 1626.81 1474.91 Q1626.81 1478.98 1629.93 1481.34 Q1633.05 1483.63 1642.47 1485.73 L1646.48 1486.62 Q1658.96 1489.29 1664.18 1494.19 Q1669.46 1499.03 1669.46 1507.75 Q1669.46 1517.68 1661.57 1523.48 Q1653.74 1529.27 1639.99 1529.27 Q1634.26 1529.27 1628.02 1528.12 Q1621.85 1527.04 1614.97 1524.81 L1614.97 1512.72 Q1621.46 1516.09 1627.77 1517.81 Q1634.07 1519.47 1640.24 1519.47 Q1648.52 1519.47 1652.97 1516.67 Q1657.43 1513.8 1657.43 1508.64 Q1657.43 1503.87 1654.18 1501.32 Q1651 1498.78 1640.12 1496.42 L1636.04 1495.47 Q1625.16 1493.18 1620.32 1488.47 Q1615.48 1483.69 1615.48 1475.42 Q1615.48 1465.36 1622.61 1459.88 Q1629.74 1454.41 1642.85 1454.41 Q1649.35 1454.41 1655.08 1455.36 Q1660.8 1456.32 1665.64 1458.23 Z" fill="#000000" fill-rule="nonzero" fill-opacity="1" /><polyline clip-path="url(#clip432)" style="stroke:#000000; stroke-linecap:round; stroke-linejoin:round; stroke-width:4; stroke-opacity:0.1; fill:none" points="685.08,1091.16 2305.51,1091.16 "/>
<polyline clip-path="url(#clip432)" style="stroke:#000000; stroke-linecap:round; stroke-linejoin:round; stroke-width:4; stroke-opacity:0.1; fill:none" points="685.08,858.789 2305.51,858.789 "/>
<polyline clip-path="url(#clip432)" style="stroke:#000000; stroke-linecap:round; stroke-linejoin:round; stroke-width:4; stroke-opacity:0.1; fill:none" points="685.08,626.418 2305.51,626.418 "/>
<polyline clip-path="url(#clip432)" style="stroke:#000000; stroke-linecap:round; stroke-linejoin:round; stroke-width:4; stroke-opacity:0.1; fill:none" points="685.08,394.046 2305.51,394.046 "/>
<polyline clip-path="url(#clip432)" style="stroke:#000000; stroke-linecap:round; stroke-linejoin:round; stroke-width:4; stroke-opacity:0.1; fill:none" points="685.08,161.675 2305.51,161.675 "/>
<polyline clip-path="url(#clip430)" style="stroke:#000000; stroke-linecap:round; stroke-linejoin:round; stroke-width:8; stroke-opacity:1; fill:none" points="685.08,1273.7 685.08,94.4882 "/>
<polyline clip-path="url(#clip430)" style="stroke:#000000; stroke-linecap:round; stroke-linejoin:round; stroke-width:8; stroke-opacity:1; fill:none" points="685.08,1091.16 703.978,1091.16 "/>
<polyline clip-path="url(#clip430)" style="stroke:#000000; stroke-linecap:round; stroke-linejoin:round; stroke-width:8; stroke-opacity:1; fill:none" points="685.08,858.789 703.978,858.789 "/>
<polyline clip-path="url(#clip430)" style="stroke:#000000; stroke-linecap:round; stroke-linejoin:round; stroke-width:8; stroke-opacity:1; fill:none" points="685.08,626.418 703.978,626.418 "/>
<polyline clip-path="url(#clip430)" style="stroke:#000000; stroke-linecap:round; stroke-linejoin:round; stroke-width:8; stroke-opacity:1; fill:none" points="685.08,394.046 703.978,394.046 "/>
<polyline clip-path="url(#clip430)" style="stroke:#000000; stroke-linecap:round; stroke-linejoin:round; stroke-width:8; stroke-opacity:1; fill:none" points="685.08,161.675 703.978,161.675 "/>
<path clip-path="url(#clip430)" d="M395.702 1117.85 L410.979 1117.85 L410.979 1065.12 L394.359 1068.45 L394.359 1059.93 L410.887 1056.6 L420.239 1056.6 L420.239 1117.85 L435.516 1117.85 L435.516 1125.72 L395.702 1125.72 L395.702 1117.85 Z" fill="#000000" fill-rule="nonzero" fill-opacity="1" /><path clip-path="url(#clip430)" d="M474.405 1062.76 Q467.183 1062.76 463.525 1069.89 Q459.914 1076.97 459.914 1091.23 Q459.914 1105.44 463.525 1112.57 Q467.183 1119.66 474.405 1119.66 Q481.673 1119.66 485.285 1112.57 Q488.942 1105.44 488.942 1091.23 Q488.942 1076.97 485.285 1069.89 Q481.673 1062.76 474.405 1062.76 M474.405 1055.35 Q486.025 1055.35 492.136 1064.56 Q498.294 1073.73 498.294 1091.23 Q498.294 1108.68 492.136 1117.9 Q486.025 1127.06 474.405 1127.06 Q462.785 1127.06 456.627 1117.9 Q450.516 1108.68 450.516 1091.23 Q450.516 1073.73 456.627 1064.56 Q462.785 1055.35 474.405 1055.35 Z" fill="#000000" fill-rule="nonzero" fill-opacity="1" /><path clip-path="url(#clip430)" d="M534.729 1062.76 Q527.507 1062.76 523.849 1069.89 Q520.238 1076.97 520.238 1091.23 Q520.238 1105.44 523.849 1112.57 Q527.507 1119.66 534.729 1119.66 Q541.997 1119.66 545.608 1112.57 Q549.266 1105.44 549.266 1091.23 Q549.266 1076.97 545.608 1069.89 Q541.997 1062.76 534.729 1062.76 M534.729 1055.35 Q546.349 1055.35 552.46 1064.56 Q558.618 1073.73 558.618 1091.23 Q558.618 1108.68 552.46 1117.9 Q546.349 1127.06 534.729 1127.06 Q523.108 1127.06 516.951 1117.9 Q510.84 1108.68 510.84 1091.23 Q510.84 1073.73 516.951 1064.56 Q523.108 1055.35 534.729 1055.35 Z" fill="#000000" fill-rule="nonzero" fill-opacity="1" /><path clip-path="url(#clip430)" d="M575.053 1113.96 L584.821 1113.96 L584.821 1125.72 L575.053 1125.72 L575.053 1113.96 Z" fill="#000000" fill-rule="nonzero" fill-opacity="1" /><path clip-path="url(#clip430)" d="M625.191 1062.76 Q617.969 1062.76 614.312 1069.89 Q610.701 1076.97 610.701 1091.23 Q610.701 1105.44 614.312 1112.57 Q617.969 1119.66 625.191 1119.66 Q632.46 1119.66 636.071 1112.57 Q639.728 1105.44 639.728 1091.23 Q639.728 1076.97 636.071 1069.89 Q632.46 1062.76 625.191 1062.76 M625.191 1055.35 Q636.812 1055.35 642.923 1064.56 Q649.08 1073.73 649.08 1091.23 Q649.08 1108.68 642.923 1117.9 Q636.812 1127.06 625.191 1127.06 Q613.571 1127.06 607.414 1117.9 Q601.302 1108.68 601.302 1091.23 Q601.302 1073.73 607.414 1064.56 Q613.571 1055.35 625.191 1055.35 Z" fill="#000000" fill-rule="nonzero" fill-opacity="1" /><path clip-path="url(#clip430)" d="M402.137 885.479 L434.776 885.479 L434.776 893.349 L390.887 893.349 L390.887 885.479 Q396.211 879.969 405.378 870.71 Q414.59 861.405 416.952 858.719 Q421.442 853.673 423.202 850.201 Q425.007 846.682 425.007 843.303 Q425.007 837.794 421.118 834.321 Q417.276 830.849 411.072 830.849 Q406.674 830.849 401.766 832.377 Q396.905 833.905 391.35 837.007 L391.35 827.562 Q396.998 825.294 401.905 824.136 Q406.813 822.979 410.887 822.979 Q421.627 822.979 428.016 828.349 Q434.405 833.72 434.405 842.701 Q434.405 846.96 432.785 850.803 Q431.211 854.599 426.998 859.784 Q425.84 861.127 419.637 867.562 Q413.433 873.951 402.137 885.479 Z" fill="#000000" fill-rule="nonzero" fill-opacity="1" /><path clip-path="url(#clip430)" d="M474.405 830.386 Q467.183 830.386 463.525 837.516 Q459.914 844.599 459.914 858.858 Q459.914 873.071 463.525 880.201 Q467.183 887.284 474.405 887.284 Q481.673 887.284 485.285 880.201 Q488.942 873.071 488.942 858.858 Q488.942 844.599 485.285 837.516 Q481.673 830.386 474.405 830.386 M474.405 822.979 Q486.025 822.979 492.136 832.192 Q498.294 841.358 498.294 858.858 Q498.294 876.312 492.136 885.525 Q486.025 894.691 474.405 894.691 Q462.785 894.691 456.627 885.525 Q450.516 876.312 450.516 858.858 Q450.516 841.358 456.627 832.192 Q462.785 822.979 474.405 822.979 Z" fill="#000000" fill-rule="nonzero" fill-opacity="1" /><path clip-path="url(#clip430)" d="M534.729 830.386 Q527.507 830.386 523.849 837.516 Q520.238 844.599 520.238 858.858 Q520.238 873.071 523.849 880.201 Q527.507 887.284 534.729 887.284 Q541.997 887.284 545.608 880.201 Q549.266 873.071 549.266 858.858 Q549.266 844.599 545.608 837.516 Q541.997 830.386 534.729 830.386 M534.729 822.979 Q546.349 822.979 552.46 832.192 Q558.618 841.358 558.618 858.858 Q558.618 876.312 552.46 885.525 Q546.349 894.691 534.729 894.691 Q523.108 894.691 516.951 885.525 Q510.84 876.312 510.84 858.858 Q510.84 841.358 516.951 832.192 Q523.108 822.979 534.729 822.979 Z" fill="#000000" fill-rule="nonzero" fill-opacity="1" /><path clip-path="url(#clip430)" d="M575.053 881.59 L584.821 881.59 L584.821 893.349 L575.053 893.349 L575.053 881.59 Z" fill="#000000" fill-rule="nonzero" fill-opacity="1" /><path clip-path="url(#clip430)" d="M625.191 830.386 Q617.969 830.386 614.312 837.516 Q610.701 844.599 610.701 858.858 Q610.701 873.071 614.312 880.201 Q617.969 887.284 625.191 887.284 Q632.46 887.284 636.071 880.201 Q639.728 873.071 639.728 858.858 Q639.728 844.599 636.071 837.516 Q632.46 830.386 625.191 830.386 M625.191 822.979 Q636.812 822.979 642.923 832.192 Q649.08 841.358 649.08 858.858 Q649.08 876.312 642.923 885.525 Q636.812 894.691 625.191 894.691 Q613.571 894.691 607.414 885.525 Q601.302 876.312 601.302 858.858 Q601.302 841.358 607.414 832.192 Q613.571 822.979 625.191 822.979 Z" fill="#000000" fill-rule="nonzero" fill-opacity="1" /><path clip-path="url(#clip430)" d="M422.415 623.709 Q429.127 625.144 432.877 629.681 Q436.674 634.218 436.674 640.885 Q436.674 651.116 429.637 656.718 Q422.6 662.32 409.637 662.32 Q405.285 662.32 400.655 661.44 Q396.072 660.607 391.165 658.894 L391.165 649.866 Q395.054 652.135 399.683 653.292 Q404.313 654.45 409.359 654.45 Q418.155 654.45 422.739 650.978 Q427.368 647.505 427.368 640.885 Q427.368 634.774 423.063 631.348 Q418.803 627.876 411.165 627.876 L403.109 627.876 L403.109 620.191 L411.535 620.191 Q418.433 620.191 422.09 617.459 Q425.748 614.681 425.748 609.496 Q425.748 604.172 421.952 601.348 Q418.202 598.478 411.165 598.478 Q407.322 598.478 402.924 599.311 Q398.526 600.145 393.248 601.904 L393.248 593.57 Q398.572 592.089 403.202 591.348 Q407.878 590.608 411.998 590.608 Q422.646 590.608 428.85 595.469 Q435.053 600.283 435.053 608.524 Q435.053 614.265 431.766 618.246 Q428.479 622.181 422.415 623.709 Z" fill="#000000" fill-rule="nonzero" fill-opacity="1" /><path clip-path="url(#clip430)" d="M474.405 598.015 Q467.183 598.015 463.525 605.144 Q459.914 612.228 459.914 626.487 Q459.914 640.7 463.525 647.829 Q467.183 654.913 474.405 654.913 Q481.673 654.913 485.285 647.829 Q488.942 640.7 488.942 626.487 Q488.942 612.228 485.285 605.144 Q481.673 598.015 474.405 598.015 M474.405 590.608 Q486.025 590.608 492.136 599.82 Q498.294 608.987 498.294 626.487 Q498.294 643.941 492.136 653.153 Q486.025 662.32 474.405 662.32 Q462.785 662.32 456.627 653.153 Q450.516 643.941 450.516 626.487 Q450.516 608.987 456.627 599.82 Q462.785 590.608 474.405 590.608 Z" fill="#000000" fill-rule="nonzero" fill-opacity="1" /><path clip-path="url(#clip430)" d="M534.729 598.015 Q527.507 598.015 523.849 605.144 Q520.238 612.228 520.238 626.487 Q520.238 640.7 523.849 647.829 Q527.507 654.913 534.729 654.913 Q541.997 654.913 545.608 647.829 Q549.266 640.7 549.266 626.487 Q549.266 612.228 545.608 605.144 Q541.997 598.015 534.729 598.015 M534.729 590.608 Q546.349 590.608 552.46 599.82 Q558.618 608.987 558.618 626.487 Q558.618 643.941 552.46 653.153 Q546.349 662.32 534.729 662.32 Q523.108 662.32 516.951 653.153 Q510.84 643.941 510.84 626.487 Q510.84 608.987 516.951 599.82 Q523.108 590.608 534.729 590.608 Z" fill="#000000" fill-rule="nonzero" fill-opacity="1" /><path clip-path="url(#clip430)" d="M575.053 649.218 L584.821 649.218 L584.821 660.978 L575.053 660.978 L575.053 649.218 Z" fill="#000000" fill-rule="nonzero" fill-opacity="1" /><path clip-path="url(#clip430)" d="M625.191 598.015 Q617.969 598.015 614.312 605.144 Q610.701 612.228 610.701 626.487 Q610.701 640.7 614.312 647.829 Q617.969 654.913 625.191 654.913 Q632.46 654.913 636.071 647.829 Q639.728 640.7 639.728 626.487 Q639.728 612.228 636.071 605.144 Q632.46 598.015 625.191 598.015 M625.191 590.608 Q636.812 590.608 642.923 599.82 Q649.08 608.987 649.08 626.487 Q649.08 643.941 642.923 653.153 Q636.812 662.32 625.191 662.32 Q613.571 662.32 607.414 653.153 Q601.302 643.941 601.302 626.487 Q601.302 608.987 607.414 599.82 Q613.571 590.608 625.191 590.608 Z" fill="#000000" fill-rule="nonzero" fill-opacity="1" /><path clip-path="url(#clip430)" d="M419.776 367.634 L396.165 404.532 L419.776 404.532 L419.776 367.634 M417.322 359.486 L429.081 359.486 L429.081 404.532 L438.942 404.532 L438.942 412.31 L429.081 412.31 L429.081 428.606 L419.776 428.606 L419.776 412.31 L388.572 412.31 L388.572 403.282 L417.322 359.486 Z" fill="#000000" fill-rule="nonzero" fill-opacity="1" /><path clip-path="url(#clip430)" d="M474.405 365.643 Q467.183 365.643 463.525 372.773 Q459.914 379.856 459.914 394.116 Q459.914 408.328 463.525 415.458 Q467.183 422.541 474.405 422.541 Q481.673 422.541 485.285 415.458 Q488.942 408.328 488.942 394.116 Q488.942 379.856 485.285 372.773 Q481.673 365.643 474.405 365.643 M474.405 358.236 Q486.025 358.236 492.136 367.449 Q498.294 376.616 498.294 394.116 Q498.294 411.569 492.136 420.782 Q486.025 429.949 474.405 429.949 Q462.785 429.949 456.627 420.782 Q450.516 411.569 450.516 394.116 Q450.516 376.616 456.627 367.449 Q462.785 358.236 474.405 358.236 Z" fill="#000000" fill-rule="nonzero" fill-opacity="1" /><path clip-path="url(#clip430)" d="M534.729 365.643 Q527.507 365.643 523.849 372.773 Q520.238 379.856 520.238 394.116 Q520.238 408.328 523.849 415.458 Q527.507 422.541 534.729 422.541 Q541.997 422.541 545.608 415.458 Q549.266 408.328 549.266 394.116 Q549.266 379.856 545.608 372.773 Q541.997 365.643 534.729 365.643 M534.729 358.236 Q546.349 358.236 552.46 367.449 Q558.618 376.616 558.618 394.116 Q558.618 411.569 552.46 420.782 Q546.349 429.949 534.729 429.949 Q523.108 429.949 516.951 420.782 Q510.84 411.569 510.84 394.116 Q510.84 376.616 516.951 367.449 Q523.108 358.236 534.729 358.236 Z" fill="#000000" fill-rule="nonzero" fill-opacity="1" /><path clip-path="url(#clip430)" d="M575.053 416.847 L584.821 416.847 L584.821 428.606 L575.053 428.606 L575.053 416.847 Z" fill="#000000" fill-rule="nonzero" fill-opacity="1" /><path clip-path="url(#clip430)" d="M625.191 365.643 Q617.969 365.643 614.312 372.773 Q610.701 379.856 610.701 394.116 Q610.701 408.328 614.312 415.458 Q617.969 422.541 625.191 422.541 Q632.46 422.541 636.071 415.458 Q639.728 408.328 639.728 394.116 Q639.728 379.856 636.071 372.773 Q632.46 365.643 625.191 365.643 M625.191 358.236 Q636.812 358.236 642.923 367.449 Q649.08 376.616 649.08 394.116 Q649.08 411.569 642.923 420.782 Q636.812 429.949 625.191 429.949 Q613.571 429.949 607.414 420.782 Q601.302 411.569 601.302 394.116 Q601.302 376.616 607.414 367.449 Q613.571 358.236 625.191 358.236 Z" fill="#000000" fill-rule="nonzero" fill-opacity="1" /><path clip-path="url(#clip430)" d="M394.174 127.115 L430.887 127.115 L430.887 134.985 L402.739 134.985 L402.739 151.929 Q404.776 151.235 406.813 150.911 Q408.85 150.541 410.887 150.541 Q422.461 150.541 429.22 156.883 Q435.979 163.226 435.979 174.059 Q435.979 185.216 429.035 191.42 Q422.09 197.577 409.452 197.577 Q405.1 197.577 400.563 196.837 Q396.072 196.096 391.257 194.614 L391.257 185.216 Q395.424 187.485 399.868 188.596 Q404.313 189.707 409.266 189.707 Q417.276 189.707 421.952 185.494 Q426.627 181.281 426.627 174.059 Q426.627 166.837 421.952 162.624 Q417.276 158.411 409.266 158.411 Q405.516 158.411 401.766 159.244 Q398.063 160.078 394.174 161.837 L394.174 127.115 Z" fill="#000000" fill-rule="nonzero" fill-opacity="1" /><path clip-path="url(#clip430)" d="M474.405 133.272 Q467.183 133.272 463.525 140.402 Q459.914 147.485 459.914 161.744 Q459.914 175.957 463.525 183.087 Q467.183 190.17 474.405 190.17 Q481.673 190.17 485.285 183.087 Q488.942 175.957 488.942 161.744 Q488.942 147.485 485.285 140.402 Q481.673 133.272 474.405 133.272 M474.405 125.865 Q486.025 125.865 492.136 135.078 Q498.294 144.244 498.294 161.744 Q498.294 179.198 492.136 188.411 Q486.025 197.577 474.405 197.577 Q462.785 197.577 456.627 188.411 Q450.516 179.198 450.516 161.744 Q450.516 144.244 456.627 135.078 Q462.785 125.865 474.405 125.865 Z" fill="#000000" fill-rule="nonzero" fill-opacity="1" /><path clip-path="url(#clip430)" d="M534.729 133.272 Q527.507 133.272 523.849 140.402 Q520.238 147.485 520.238 161.744 Q520.238 175.957 523.849 183.087 Q527.507 190.17 534.729 190.17 Q541.997 190.17 545.608 183.087 Q549.266 175.957 549.266 161.744 Q549.266 147.485 545.608 140.402 Q541.997 133.272 534.729 133.272 M534.729 125.865 Q546.349 125.865 552.46 135.078 Q558.618 144.244 558.618 161.744 Q558.618 179.198 552.46 188.411 Q546.349 197.577 534.729 197.577 Q523.108 197.577 516.951 188.411 Q510.84 179.198 510.84 161.744 Q510.84 144.244 516.951 135.078 Q523.108 125.865 534.729 125.865 Z" fill="#000000" fill-rule="nonzero" fill-opacity="1" /><path clip-path="url(#clip430)" d="M575.053 184.476 L584.821 184.476 L584.821 196.235 L575.053 196.235 L575.053 184.476 Z" fill="#000000" fill-rule="nonzero" fill-opacity="1" /><path clip-path="url(#clip430)" d="M625.191 133.272 Q617.969 133.272 614.312 140.402 Q610.701 147.485 610.701 161.744 Q610.701 175.957 614.312 183.087 Q617.969 190.17 625.191 190.17 Q632.46 190.17 636.071 183.087 Q639.728 175.957 639.728 161.744 Q639.728 147.485 636.071 140.402 Q632.46 133.272 625.191 133.272 M625.191 125.865 Q636.812 125.865 642.923 135.078 Q649.08 144.244 649.08 161.744 Q649.08 179.198 642.923 188.411 Q636.812 197.577 625.191 197.577 Q613.571 197.577 607.414 188.411 Q601.302 179.198 601.302 161.744 Q601.302 144.244 607.414 135.078 Q613.571 125.865 625.191 125.865 Z" fill="#000000" fill-rule="nonzero" fill-opacity="1" /><path clip-path="url(#clip430)" d="M255.501 913.798 L266.45 913.798 Q263.713 918.764 262.376 923.793 Q260.976 928.758 260.976 933.85 Q260.976 945.245 268.233 951.547 Q275.426 957.849 288.476 957.849 Q301.526 957.849 308.782 951.547 Q315.976 945.245 315.976 933.85 Q315.976 928.758 314.639 923.793 Q313.238 918.764 310.501 913.798 L321.323 913.798 Q323.615 918.7 324.76 923.984 Q325.906 929.204 325.906 935.124 Q325.906 951.229 315.785 960.714 Q305.663 970.199 288.476 970.199 Q271.034 970.199 261.04 960.65 Q251.045 951.038 251.045 934.36 Q251.045 928.949 252.191 923.793 Q253.273 918.636 255.501 913.798 Z" fill="#000000" fill-rule="nonzero" fill-opacity="1" /><path clip-path="url(#clip430)" d="M260.976 865.801 Q260.976 875.222 268.36 880.697 Q275.681 886.171 288.476 886.171 Q301.271 886.171 308.655 880.76 Q315.976 875.286 315.976 865.801 Q315.976 856.443 308.591 850.969 Q301.207 845.494 288.476 845.494 Q275.808 845.494 268.424 850.969 Q260.976 856.443 260.976 865.801 M251.045 865.801 Q251.045 850.523 260.976 841.802 Q270.906 833.081 288.476 833.081 Q305.982 833.081 315.976 841.802 Q325.906 850.523 325.906 865.801 Q325.906 881.142 315.976 889.863 Q305.982 898.521 288.476 898.521 Q270.906 898.521 260.976 889.863 Q251.045 881.142 251.045 865.801 Z" fill="#000000" fill-rule="nonzero" fill-opacity="1" /><path clip-path="url(#clip430)" d="M281.028 754.401 L324.06 754.401 L324.06 766.114 L281.41 766.114 Q271.288 766.114 266.259 770.061 Q261.231 774.008 261.231 781.901 Q261.231 791.386 267.278 796.86 Q273.325 802.335 283.765 802.335 L324.06 802.335 L324.06 814.112 L252.764 814.112 L252.764 802.335 L263.841 802.335 Q257.411 798.134 254.228 792.468 Q251.045 786.739 251.045 779.291 Q251.045 767.005 258.684 760.703 Q266.259 754.401 281.028 754.401 Z" fill="#000000" fill-rule="nonzero" fill-opacity="1" /><path clip-path="url(#clip430)" d="M255.501 679.731 L266.45 679.731 Q263.713 684.697 262.376 689.726 Q260.976 694.691 260.976 699.783 Q260.976 711.178 268.233 717.48 Q275.426 723.782 288.476 723.782 Q301.526 723.782 308.782 717.48 Q315.976 711.178 315.976 699.783 Q315.976 694.691 314.639 689.726 Q313.238 684.697 310.501 679.731 L321.323 679.731 Q323.615 684.633 324.76 689.917 Q325.906 695.136 325.906 701.057 Q325.906 717.162 315.785 726.647 Q305.663 736.132 288.476 736.132 Q271.034 736.132 261.04 726.583 Q251.045 716.971 251.045 700.293 Q251.045 694.882 252.191 689.726 Q253.273 684.569 255.501 679.731 Z" fill="#000000" fill-rule="nonzero" fill-opacity="1" /><path clip-path="url(#clip430)" d="M307.891 657.706 L307.891 644.274 L324.06 644.274 L324.06 657.706 L307.891 657.706 Z" fill="#000000" fill-rule="nonzero" fill-opacity="1" /><path clip-path="url(#clip430)" d="M236.341 504.802 L249.9 504.802 Q243.852 511.295 240.86 518.679 Q237.868 526 237.868 534.275 Q237.868 550.571 247.863 559.229 Q257.793 567.886 276.636 567.886 Q295.414 567.886 305.409 559.229 Q315.339 550.571 315.339 534.275 Q315.339 526 312.347 518.679 Q309.355 511.295 303.308 504.802 L316.74 504.802 Q321.323 511.549 323.615 519.125 Q325.906 526.636 325.906 535.039 Q325.906 556.619 312.729 569.032 Q299.488 581.445 276.636 581.445 Q253.719 581.445 240.542 569.032 Q227.301 556.619 227.301 535.039 Q227.301 526.509 229.593 518.997 Q231.821 511.422 236.341 504.802 Z" fill="#000000" fill-rule="nonzero" fill-opacity="1" /><path clip-path="url(#clip430)" d="M229.02 484.941 L229.02 465.78 L293.696 441.527 L229.02 417.146 L229.02 397.985 L324.06 397.985 L324.06 410.526 L240.606 410.526 L305.791 435.034 L305.791 447.956 L240.606 472.464 L324.06 472.464 L324.06 484.941 L229.02 484.941 Z" fill="#000000" fill-rule="nonzero" fill-opacity="1" /><polyline clip-path="url(#clip432)" style="stroke:#008000; stroke-linecap:round; stroke-linejoin:round; stroke-width:8; stroke-opacity:1; fill:none" points="730.941,1162.46 869.915,1214.86 1008.89,1195.01 1147.86,1168.2 1286.84,1114.96 1425.81,1132.08 1564.78,1114.71 1703.76,1152.03 1842.73,1125.1 1981.7,1113.99 2120.68,1091.16 2259.65,1128.65 "/>
<circle clip-path="url(#clip432)" cx="730.941" cy="1162.46" r="14.4" fill="#008000" fill-rule="evenodd" fill-opacity="1" stroke="#000000" stroke-opacity="1" stroke-width="6.4"/>
<circle clip-path="url(#clip432)" cx="869.915" cy="1214.86" r="14.4" fill="#008000" fill-rule="evenodd" fill-opacity="1" stroke="#000000" stroke-opacity="1" stroke-width="6.4"/>
<circle clip-path="url(#clip432)" cx="1008.89" cy="1195.01" r="14.4" fill="#008000" fill-rule="evenodd" fill-opacity="1" stroke="#000000" stroke-opacity="1" stroke-width="6.4"/>
<circle clip-path="url(#clip432)" cx="1147.86" cy="1168.2" r="14.4" fill="#008000" fill-rule="evenodd" fill-opacity="1" stroke="#000000" stroke-opacity="1" stroke-width="6.4"/>
<circle clip-path="url(#clip432)" cx="1286.84" cy="1114.96" r="14.4" fill="#008000" fill-rule="evenodd" fill-opacity="1" stroke="#000000" stroke-opacity="1" stroke-width="6.4"/>
<circle clip-path="url(#clip432)" cx="1425.81" cy="1132.08" r="14.4" fill="#008000" fill-rule="evenodd" fill-opacity="1" stroke="#000000" stroke-opacity="1" stroke-width="6.4"/>
<circle clip-path="url(#clip432)" cx="1564.78" cy="1114.71" r="14.4" fill="#008000" fill-rule="evenodd" fill-opacity="1" stroke="#000000" stroke-opacity="1" stroke-width="6.4"/>
<circle clip-path="url(#clip432)" cx="1703.76" cy="1152.03" r="14.4" fill="#008000" fill-rule="evenodd" fill-opacity="1" stroke="#000000" stroke-opacity="1" stroke-width="6.4"/>
<circle clip-path="url(#clip432)" cx="1842.73" cy="1125.1" r="14.4" fill="#008000" fill-rule="evenodd" fill-opacity="1" stroke="#000000" stroke-opacity="1" stroke-width="6.4"/>
<circle clip-path="url(#clip432)" cx="1981.7" cy="1113.99" r="14.4" fill="#008000" fill-rule="evenodd" fill-opacity="1" stroke="#000000" stroke-opacity="1" stroke-width="6.4"/>
<circle clip-path="url(#clip432)" cx="2120.68" cy="1091.16" r="14.4" fill="#008000" fill-rule="evenodd" fill-opacity="1" stroke="#000000" stroke-opacity="1" stroke-width="6.4"/>
<circle clip-path="url(#clip432)" cx="2259.65" cy="1128.65" r="14.4" fill="#008000" fill-rule="evenodd" fill-opacity="1" stroke="#000000" stroke-opacity="1" stroke-width="6.4"/>
<polyline clip-path="url(#clip432)" style="stroke:#00008b; stroke-linecap:round; stroke-linejoin:round; stroke-width:8; stroke-opacity:1; fill:none" points="730.941,1168.68 869.915,909.848 1008.89,705.853 1147.86,595.194 1286.84,519.35 1425.81,398.035 1564.78,354.575 1703.76,317.89 1842.73,291.19 1981.7,274.181 2120.68,257.629 2259.65,235.367 "/>
<path clip-path="url(#clip432)" d="M730.941 1240.32 L869.915 985.455 L1008.89 805.876 L1147.86 686.952 L1286.84 621.068 L1425.81 528.776 L1564.78 472.971 L1703.76 450.376 L1842.73 411.641 L1981.7 405.941 L2120.68 374.296 L2259.65 361.243 L2259.65 127.862 L2120.68 165.478 L1981.7 169.639 L1842.73 178.689 L1703.76 209.975 L1564.78 251.553 L1425.81 296.481 L1286.84 421.005 L1147.86 491.272 L1008.89 628.043 L869.915 846.448 L730.941 1100.14  Z" fill="#0000ff" fill-rule="evenodd" fill-opacity="0.1"/>
<polyline clip-path="url(#clip432)" style="stroke:#0000ff; stroke-linecap:round; stroke-linejoin:round; stroke-width:0; stroke-opacity:0.1; fill:none" points="730.941,1240.32 869.915,985.455 1008.89,805.876 1147.86,686.952 1286.84,621.068 1425.81,528.776 1564.78,472.971 1703.76,450.376 1842.73,411.641 1981.7,405.941 2120.68,374.296 2259.65,361.243 "/>
</svg>
