<?xml version="1.0" encoding="utf-8"?>
<svg xmlns="http://www.w3.org/2000/svg" xmlns:xlink="http://www.w3.org/1999/xlink" width="600" height="400" viewBox="0 0 2400 1600">
<defs>
  <clipPath id="clip410">
    <rect x="0" y="0" width="2400" height="1600"/>
  </clipPath>
</defs>
<path clip-path="url(#clip410)" d="M0 1600 L2400 1600 L2400 0 L0 0  Z" fill="#ffffff" fill-rule="evenodd" fill-opacity="1"/>
<defs>
  <clipPath id="clip411">
    <rect x="480" y="0" width="1681" height="1600"/>
  </clipPath>
</defs>
<path clip-path="url(#clip410)" d="M680.45 1273.7 L2305.51 1273.7 L2305.51 94.4882 L680.45 94.4882  Z" fill="#ffffff" fill-rule="evenodd" fill-opacity="1"/>
<defs>
  <clipPath id="clip412">
    <rect x="680" y="94" width="1626" height="1180"/>
  </clipPath>
</defs>
<polyline clip-path="url(#clip412)" style="stroke:#000000; stroke-linecap:round; stroke-linejoin:round; stroke-width:4; stroke-opacity:0.1; fill:none" points="726.443,1273.7 726.443,94.4882 "/>
<polyline clip-path="url(#clip412)" style="stroke:#000000; stroke-linecap:round; stroke-linejoin:round; stroke-width:4; stroke-opacity:0.1; fill:none" points="1074.87,1273.7 1074.87,94.4882 "/>
<polyline clip-path="url(#clip412)" style="stroke:#000000; stroke-linecap:round; stroke-linejoin:round; stroke-width:4; stroke-opacity:0.1; fill:none" points="1423.3,1273.7 1423.3,94.4882 "/>
<polyline clip-path="url(#clip412)" style="stroke:#000000; stroke-linecap:round; stroke-linejoin:round; stroke-width:4; stroke-opacity:0.1; fill:none" points="1771.72,1273.7 1771.72,94.4882 "/>
<polyline clip-path="url(#clip412)" style="stroke:#000000; stroke-linecap:round; stroke-linejoin:round; stroke-width:4; stroke-opacity:0.1; fill:none" points="2120.15,1273.7 2120.15,94.4882 "/>
<polyline clip-path="url(#clip410)" style="stroke:#000000; stroke-linecap:round; stroke-linejoin:round; stroke-width:8; stroke-opacity:1; fill:none" points="680.45,1273.7 2305.51,1273.7 "/>
<polyline clip-path="url(#clip410)" style="stroke:#000000; stroke-linecap:round; stroke-linejoin:round; stroke-width:8; stroke-opacity:1; fill:none" points="726.443,1273.7 726.443,1254.8 "/>
<polyline clip-path="url(#clip410)" style="stroke:#000000; stroke-linecap:round; stroke-linejoin:round; stroke-width:8; stroke-opacity:1; fill:none" points="1074.87,1273.7 1074.87,1254.8 "/>
<polyline clip-path="url(#clip410)" style="stroke:#000000; stroke-linecap:round; stroke-linejoin:round; stroke-width:8; stroke-opacity:1; fill:none" points="1423.3,1273.7 1423.3,1254.8 "/>
<polyline clip-path="url(#clip410)" style="stroke:#000000; stroke-linecap:round; stroke-linejoin:round; stroke-width:8; stroke-opacity:1; fill:none" points="1771.72,1273.7 1771.72,1254.8 "/>
<polyline clip-path="url(#clip410)" style="stroke:#000000; stroke-linecap:round; stroke-linejoin:round; stroke-width:8; stroke-opacity:1; fill:none" points="2120.15,1273.7 2120.15,1254.8 "/>
<path clip-path="url(#clip410)" d="M651.05 1316.33 Q643.827 1316.33 640.17 1323.46 Q636.559 1330.55 636.559 1344.81 Q636.559 1359.02 640.17 1366.15 Q643.827 1373.23 651.05 1373.23 Q658.318 1373.23 661.929 1366.15 Q665.587 1359.02 665.587 1344.81 Q665.587 1330.55 661.929 1323.46 Q658.318 1316.33 651.05 1316.33 M651.05 1308.93 Q662.67 1308.93 668.781 1318.14 Q674.938 1327.31 674.938 1344.81 Q674.938 1362.26 668.781 1371.47 Q662.67 1380.64 651.05 1380.64 Q639.429 1380.64 633.272 1371.47 Q627.161 1362.26 627.161 1344.81 Q627.161 1327.31 633.272 1318.14 Q639.429 1308.93 651.05 1308.93 Z" fill="#000000" fill-rule="nonzero" fill-opacity="1" /><path clip-path="url(#clip410)" d="M691.373 1367.54 L701.142 1367.54 L701.142 1379.3 L691.373 1379.3 L691.373 1367.54 Z" fill="#000000" fill-rule="nonzero" fill-opacity="1" /><path clip-path="url(#clip410)" d="M741.512 1316.33 Q734.29 1316.33 730.632 1323.46 Q727.021 1330.55 727.021 1344.81 Q727.021 1359.02 730.632 1366.15 Q734.29 1373.23 741.512 1373.23 Q748.781 1373.23 752.392 1366.15 Q756.049 1359.02 756.049 1344.81 Q756.049 1330.55 752.392 1323.46 Q748.781 1316.33 741.512 1316.33 M741.512 1308.93 Q753.132 1308.93 759.243 1318.14 Q765.401 1327.31 765.401 1344.81 Q765.401 1362.26 759.243 1371.47 Q753.132 1380.64 741.512 1380.64 Q729.892 1380.64 723.734 1371.47 Q717.623 1362.26 717.623 1344.81 Q717.623 1327.31 723.734 1318.14 Q729.892 1308.93 741.512 1308.93 Z" fill="#000000" fill-rule="nonzero" fill-opacity="1" /><path clip-path="url(#clip410)" d="M801.836 1316.33 Q794.614 1316.33 790.956 1323.46 Q787.345 1330.55 787.345 1344.81 Q787.345 1359.02 790.956 1366.15 Q794.614 1373.23 801.836 1373.23 Q809.104 1373.23 812.715 1366.15 Q816.373 1359.02 816.373 1344.81 Q816.373 1330.55 812.715 1323.46 Q809.104 1316.33 801.836 1316.33 M801.836 1308.93 Q813.456 1308.93 819.567 1318.14 Q825.725 1327.31 825.725 1344.81 Q825.725 1362.26 819.567 1371.47 Q813.456 1380.64 801.836 1380.64 Q790.215 1380.64 784.058 1371.47 Q777.947 1362.26 777.947 1344.81 Q777.947 1327.31 784.058 1318.14 Q790.215 1308.93 801.836 1308.93 Z" fill="#000000" fill-rule="nonzero" fill-opacity="1" /><path clip-path="url(#clip410)" d="M1000.47 1316.33 Q993.249 1316.33 989.592 1323.46 Q985.981 1330.55 985.981 1344.81 Q985.981 1359.02 989.592 1366.15 Q993.249 1373.23 1000.47 1373.23 Q1007.74 1373.23 1011.35 1366.15 Q1015.01 1359.02 1015.01 1344.81 Q1015.01 1330.55 1011.35 1323.46 Q1007.74 1316.33 1000.47 1316.33 M1000.47 1308.93 Q1012.09 1308.93 1018.2 1318.14 Q1024.36 1327.31 1024.36 1344.81 Q1024.36 1362.26 1018.2 1371.47 Q1012.09 1380.64 1000.47 1380.64 Q988.851 1380.64 982.694 1371.47 Q976.583 1362.26 976.583 1344.81 Q976.583 1327.31 982.694 1318.14 Q988.851 1308.93 1000.47 1308.93 Z" fill="#000000" fill-rule="nonzero" fill-opacity="1" /><path clip-path="url(#clip410)" d="M1040.8 1367.54 L1050.56 1367.54 L1050.56 1379.3 L1040.8 1379.3 L1040.8 1367.54 Z" fill="#000000" fill-rule="nonzero" fill-opacity="1" /><path clip-path="url(#clip410)" d="M1078.99 1371.43 L1111.63 1371.43 L1111.63 1379.3 L1067.74 1379.3 L1067.74 1371.43 Q1073.06 1365.92 1082.23 1356.66 Q1091.44 1347.35 1093.8 1344.67 Q1098.3 1339.62 1100.05 1336.15 Q1101.86 1332.63 1101.86 1329.25 Q1101.86 1323.74 1097.97 1320.27 Q1094.13 1316.8 1087.92 1316.8 Q1083.53 1316.8 1078.62 1318.32 Q1073.76 1319.85 1068.2 1322.95 L1068.2 1313.51 Q1073.85 1311.24 1078.76 1310.08 Q1083.67 1308.93 1087.74 1308.93 Q1098.48 1308.93 1104.87 1314.3 Q1111.26 1319.67 1111.26 1328.65 Q1111.26 1332.91 1109.64 1336.75 Q1108.06 1340.55 1103.85 1345.73 Q1102.69 1347.07 1096.49 1353.51 Q1090.29 1359.9 1078.99 1371.43 Z" fill="#000000" fill-rule="nonzero" fill-opacity="1" /><path clip-path="url(#clip410)" d="M1131.35 1310.18 L1168.06 1310.18 L1168.06 1318.05 L1139.92 1318.05 L1139.92 1334.99 Q1141.95 1334.3 1143.99 1333.97 Q1146.03 1333.6 1148.06 1333.6 Q1159.64 1333.6 1166.4 1339.94 Q1173.16 1346.29 1173.16 1357.12 Q1173.16 1368.28 1166.21 1374.48 Q1159.27 1380.64 1146.63 1380.64 Q1142.28 1380.64 1137.74 1379.9 Q1133.25 1379.16 1128.43 1377.68 L1128.43 1368.28 Q1132.6 1370.55 1137.04 1371.66 Q1141.49 1372.77 1146.44 1372.77 Q1154.45 1372.77 1159.13 1368.56 Q1163.8 1364.34 1163.8 1357.12 Q1163.8 1349.9 1159.13 1345.68 Q1154.45 1341.47 1146.44 1341.47 Q1142.69 1341.47 1138.94 1342.31 Q1135.24 1343.14 1131.35 1344.9 L1131.35 1310.18 Z" fill="#000000" fill-rule="nonzero" fill-opacity="1" /><path clip-path="url(#clip410)" d="M1347.9 1316.33 Q1340.68 1316.33 1337.02 1323.46 Q1333.41 1330.55 1333.41 1344.81 Q1333.41 1359.02 1337.02 1366.15 Q1340.68 1373.23 1347.9 1373.23 Q1355.17 1373.23 1358.78 1366.15 Q1362.44 1359.02 1362.44 1344.81 Q1362.44 1330.55 1358.78 1323.46 Q1355.17 1316.33 1347.9 1316.33 M1347.9 1308.93 Q1359.52 1308.93 1365.63 1318.14 Q1371.79 1327.31 1371.79 1344.81 Q1371.79 1362.26 1365.63 1371.47 Q1359.52 1380.64 1347.9 1380.64 Q1336.28 1380.64 1330.12 1371.47 Q1324.01 1362.26 1324.01 1344.81 Q1324.01 1327.31 1330.12 1318.14 Q1336.28 1308.93 1347.9 1308.93 Z" fill="#000000" fill-rule="nonzero" fill-opacity="1" /><path clip-path="url(#clip410)" d="M1388.23 1367.54 L1397.99 1367.54 L1397.99 1379.3 L1388.23 1379.3 L1388.23 1367.54 Z" fill="#000000" fill-rule="nonzero" fill-opacity="1" /><path clip-path="url(#clip410)" d="M1418.46 1310.18 L1455.17 1310.18 L1455.17 1318.05 L1427.02 1318.05 L1427.02 1334.99 Q1429.06 1334.3 1431.1 1333.97 Q1433.13 1333.6 1435.17 1333.6 Q1446.74 1333.6 1453.5 1339.94 Q1460.26 1346.29 1460.26 1357.12 Q1460.26 1368.28 1453.32 1374.48 Q1446.37 1380.64 1433.74 1380.64 Q1429.38 1380.64 1424.85 1379.9 Q1420.36 1379.16 1415.54 1377.68 L1415.54 1368.28 Q1419.71 1370.55 1424.15 1371.66 Q1428.6 1372.77 1433.55 1372.77 Q1441.56 1372.77 1446.24 1368.56 Q1450.91 1364.34 1450.91 1357.12 Q1450.91 1349.9 1446.24 1345.68 Q1441.56 1341.47 1433.55 1341.47 Q1429.8 1341.47 1426.05 1342.31 Q1422.35 1343.14 1418.46 1344.9 L1418.46 1310.18 Z" fill="#000000" fill-rule="nonzero" fill-opacity="1" /><path clip-path="url(#clip410)" d="M1498.69 1316.33 Q1491.47 1316.33 1487.81 1323.46 Q1484.2 1330.55 1484.2 1344.81 Q1484.2 1359.02 1487.81 1366.15 Q1491.47 1373.23 1498.69 1373.23 Q1505.96 1373.23 1509.57 1366.15 Q1513.23 1359.02 1513.23 1344.81 Q1513.23 1330.55 1509.57 1323.46 Q1505.96 1316.33 1498.69 1316.33 M1498.69 1308.93 Q1510.31 1308.93 1516.42 1318.14 Q1522.58 1327.31 1522.58 1344.81 Q1522.58 1362.26 1516.42 1371.47 Q1510.31 1380.64 1498.69 1380.64 Q1487.07 1380.64 1480.91 1371.47 Q1474.8 1362.26 1474.8 1344.81 Q1474.8 1327.31 1480.91 1318.14 Q1487.07 1308.93 1498.69 1308.93 Z" fill="#000000" fill-rule="nonzero" fill-opacity="1" /><path clip-path="url(#clip410)" d="M1697.32 1316.33 Q1690.1 1316.33 1686.45 1323.46 Q1682.83 1330.55 1682.83 1344.81 Q1682.83 1359.02 1686.45 1366.15 Q1690.1 1373.23 1697.32 1373.23 Q1704.59 1373.23 1708.2 1366.15 Q1711.86 1359.02 1711.86 1344.81 Q1711.86 1330.55 1708.2 1323.46 Q1704.59 1316.33 1697.32 1316.33 M1697.32 1308.93 Q1708.94 1308.93 1715.06 1318.14 Q1721.21 1327.31 1721.21 1344.81 Q1721.21 1362.26 1715.06 1371.47 Q1708.94 1380.64 1697.32 1380.64 Q1685.7 1380.64 1679.55 1371.47 Q1673.44 1362.26 1673.44 1344.81 Q1673.44 1327.31 1679.55 1318.14 Q1685.7 1308.93 1697.32 1308.93 Z" fill="#000000" fill-rule="nonzero" fill-opacity="1" /><path clip-path="url(#clip410)" d="M1737.65 1367.54 L1747.42 1367.54 L1747.42 1379.3 L1737.65 1379.3 L1737.65 1367.54 Z" fill="#000000" fill-rule="nonzero" fill-opacity="1" /><path clip-path="url(#clip410)" d="M1765.43 1310.18 L1809.87 1310.18 L1809.87 1314.16 L1784.78 1379.3 L1775.01 1379.3 L1798.62 1318.05 L1765.43 1318.05 L1765.43 1310.18 Z" fill="#000000" fill-rule="nonzero" fill-opacity="1" /><path clip-path="url(#clip410)" d="M1828.2 1310.18 L1864.92 1310.18 L1864.92 1318.05 L1836.77 1318.05 L1836.77 1334.99 Q1838.81 1334.3 1840.84 1333.97 Q1842.88 1333.6 1844.92 1333.6 Q1856.49 1333.6 1863.25 1339.94 Q1870.01 1346.29 1870.01 1357.12 Q1870.01 1368.28 1863.06 1374.48 Q1856.12 1380.64 1843.48 1380.64 Q1839.13 1380.64 1834.59 1379.9 Q1830.1 1379.16 1825.29 1377.68 L1825.29 1368.28 Q1829.45 1370.55 1833.9 1371.66 Q1838.34 1372.77 1843.3 1372.77 Q1851.31 1372.77 1855.98 1368.56 Q1860.66 1364.34 1860.66 1357.12 Q1860.66 1349.9 1855.98 1345.68 Q1851.31 1341.47 1843.3 1341.47 Q1839.55 1341.47 1835.8 1342.31 Q1832.09 1343.14 1828.2 1344.9 L1828.2 1310.18 Z" fill="#000000" fill-rule="nonzero" fill-opacity="1" /><path clip-path="url(#clip410)" d="M2024.29 1371.43 L2039.57 1371.43 L2039.57 1318.69 L2022.95 1322.03 L2022.95 1313.51 L2039.48 1310.18 L2048.83 1310.18 L2048.83 1371.43 L2064.11 1371.43 L2064.11 1379.3 L2024.29 1379.3 L2024.29 1371.43 Z" fill="#000000" fill-rule="nonzero" fill-opacity="1" /><path clip-path="url(#clip410)" d="M2083 1367.54 L2092.76 1367.54 L2092.76 1379.3 L2083 1379.3 L2083 1367.54 Z" fill="#000000" fill-rule="nonzero" fill-opacity="1" /><path clip-path="url(#clip410)" d="M2133.13 1316.33 Q2125.91 1316.33 2122.26 1323.46 Q2118.64 1330.55 2118.64 1344.81 Q2118.64 1359.02 2122.26 1366.15 Q2125.91 1373.23 2133.13 1373.23 Q2140.4 1373.23 2144.01 1366.15 Q2147.67 1359.02 2147.67 1344.81 Q2147.67 1330.55 2144.01 1323.46 Q2140.4 1316.33 2133.13 1316.33 M2133.13 1308.93 Q2144.76 1308.93 2150.87 1318.14 Q2157.02 1327.31 2157.02 1344.81 Q2157.02 1362.26 2150.87 1371.47 Q2144.76 1380.64 2133.13 1380.64 Q2121.51 1380.64 2115.36 1371.47 Q2109.25 1362.26 2109.25 1344.81 Q2109.25 1327.31 2115.36 1318.14 Q2121.51 1308.93 2133.13 1308.93 Z" fill="#000000" fill-rule="nonzero" fill-opacity="1" /><path clip-path="url(#clip410)" d="M2193.46 1316.33 Q2186.24 1316.33 2182.58 1323.46 Q2178.97 1330.55 2178.97 1344.81 Q2178.97 1359.02 2182.58 1366.15 Q2186.24 1373.23 2193.46 1373.23 Q2200.73 1373.23 2204.34 1366.15 Q2208 1359.02 2208 1344.81 Q2208 1330.55 2204.34 1323.46 Q2200.73 1316.33 2193.46 1316.33 M2193.46 1308.93 Q2205.08 1308.93 2211.19 1318.14 Q2217.35 1327.31 2217.35 1344.81 Q2217.35 1362.26 2211.19 1371.47 Q2205.08 1380.64 2193.46 1380.64 Q2181.84 1380.64 2175.68 1371.47 Q2169.57 1362.26 2169.57 1344.81 Q2169.57 1327.31 2175.68 1318.14 Q2181.84 1308.93 2193.46 1308.93 Z" fill="#000000" fill-rule="nonzero" fill-opacity="1" /><path clip-path="url(#clip410)" d="M1378.53 1484.39 L1378.53 1527.42 L1366.81 1527.42 L1366.81 1484.77 Q1366.81 1474.65 1362.87 1469.62 Q1358.92 1464.59 1351.03 1464.59 Q1341.54 1464.59 1336.07 1470.64 Q1330.59 1476.69 1330.59 1487.13 L1330.59 1527.42 L1318.82 1527.42 L1318.82 1428.37 L1330.59 1428.37 L1330.59 1467.2 Q1334.79 1460.77 1340.46 1457.59 Q1346.19 1454.41 1353.64 1454.41 Q1365.92 1454.41 1372.22 1462.05 Q1378.53 1469.62 1378.53 1484.39 Z" fill="#000000" fill-rule="nonzero" fill-opacity="1" /><path clip-path="url(#clip410)" d="M1429.51 1464.34 Q1420.09 1464.34 1414.62 1471.72 Q1409.14 1479.04 1409.14 1491.84 Q1409.14 1504.63 1414.56 1512.02 Q1420.03 1519.34 1429.51 1519.34 Q1438.87 1519.34 1444.35 1511.96 Q1449.82 1504.57 1449.82 1491.84 Q1449.82 1479.17 1444.35 1471.79 Q1438.87 1464.34 1429.51 1464.34 M1429.51 1454.41 Q1444.79 1454.41 1453.51 1464.34 Q1462.23 1474.27 1462.23 1491.84 Q1462.23 1509.35 1453.51 1519.34 Q1444.79 1529.27 1429.51 1529.27 Q1414.17 1529.27 1405.45 1519.34 Q1396.8 1509.35 1396.8 1491.84 Q1396.8 1474.27 1405.45 1464.34 Q1414.17 1454.41 1429.51 1454.41 Z" fill="#000000" fill-rule="nonzero" fill-opacity="1" /><path clip-path="url(#clip410)" d="M1480.44 1499.29 L1480.44 1456.13 L1492.15 1456.13 L1492.15 1498.84 Q1492.15 1508.96 1496.1 1514.06 Q1500.05 1519.08 1507.94 1519.08 Q1517.43 1519.08 1522.9 1513.04 Q1528.44 1506.99 1528.44 1496.55 L1528.44 1456.13 L1540.15 1456.13 L1540.15 1527.42 L1528.44 1527.42 L1528.44 1516.47 Q1524.17 1522.97 1518.51 1526.15 Q1512.91 1529.27 1505.46 1529.27 Q1493.17 1529.27 1486.81 1521.63 Q1480.44 1513.99 1480.44 1499.29 M1509.91 1454.41 L1509.91 1454.41 Z" fill="#000000" fill-rule="nonzero" fill-opacity="1" /><path clip-path="url(#clip410)" d="M1605.59 1467.08 Q1603.62 1465.93 1601.26 1465.42 Q1598.97 1464.85 1596.17 1464.85 Q1586.24 1464.85 1580.89 1471.34 Q1575.61 1477.77 1575.61 1489.87 L1575.61 1527.42 L1563.83 1527.42 L1563.83 1456.13 L1575.61 1456.13 L1575.61 1467.2 Q1579.3 1460.71 1585.22 1457.59 Q1591.14 1454.41 1599.61 1454.41 Q1600.82 1454.41 1602.28 1454.6 Q1603.74 1454.73 1605.53 1455.05 L1605.59 1467.08 Z" fill="#000000" fill-rule="nonzero" fill-opacity="1" /><path clip-path="url(#clip410)" d="M1663.33 1458.23 L1663.33 1469.3 Q1658.36 1466.76 1653.01 1465.49 Q1647.67 1464.21 1641.94 1464.21 Q1633.22 1464.21 1628.83 1466.89 Q1624.5 1469.56 1624.5 1474.91 Q1624.5 1478.98 1627.62 1481.34 Q1630.73 1483.63 1640.16 1485.73 L1644.17 1486.62 Q1656.64 1489.29 1661.86 1494.19 Q1667.15 1499.03 1667.15 1507.75 Q1667.15 1517.68 1659.25 1523.48 Q1651.42 1529.27 1637.67 1529.27 Q1631.94 1529.27 1625.71 1528.12 Q1619.53 1527.04 1612.66 1524.81 L1612.66 1512.72 Q1619.15 1516.09 1625.45 1517.81 Q1631.75 1519.47 1637.93 1519.47 Q1646.2 1519.47 1650.66 1516.67 Q1655.12 1513.8 1655.12 1508.64 Q1655.12 1503.87 1651.87 1501.32 Q1648.69 1498.78 1637.8 1496.42 L1633.73 1495.47 Q1622.84 1493.18 1618 1488.47 Q1613.17 1483.69 1613.17 1475.42 Q1613.17 1465.36 1620.3 1459.88 Q1627.42 1454.41 1640.54 1454.41 Q1647.03 1454.41 1652.76 1455.36 Q1658.49 1456.32 1663.33 1458.23 Z" fill="#000000" fill-rule="nonzero" fill-opacity="1" /><polyline clip-path="url(#clip412)" style="stroke:#000000; stroke-linecap:round; stroke-linejoin:round; stroke-width:4; stroke-opacity:0.1; fill:none" points="680.45,1055.57 2305.51,1055.57 "/>
<polyline clip-path="url(#clip412)" style="stroke:#000000; stroke-linecap:round; stroke-linejoin:round; stroke-width:4; stroke-opacity:0.1; fill:none" points="680.45,831.135 2305.51,831.135 "/>
<polyline clip-path="url(#clip412)" style="stroke:#000000; stroke-linecap:round; stroke-linejoin:round; stroke-width:4; stroke-opacity:0.1; fill:none" points="680.45,606.704 2305.51,606.704 "/>
<polyline clip-path="url(#clip412)" style="stroke:#000000; stroke-linecap:round; stroke-linejoin:round; stroke-width:4; stroke-opacity:0.1; fill:none" points="680.45,382.272 2305.51,382.272 "/>
<polyline clip-path="url(#clip412)" style="stroke:#000000; stroke-linecap:round; stroke-linejoin:round; stroke-width:4; stroke-opacity:0.1; fill:none" points="680.45,157.841 2305.51,157.841 "/>
<polyline clip-path="url(#clip410)" style="stroke:#000000; stroke-linecap:round; stroke-linejoin:round; stroke-width:8; stroke-opacity:1; fill:none" points="680.45,1273.7 680.45,94.4882 "/>
<polyline clip-path="url(#clip410)" style="stroke:#000000; stroke-linecap:round; stroke-linejoin:round; stroke-width:8; stroke-opacity:1; fill:none" points="680.45,1055.57 699.348,1055.57 "/>
<polyline clip-path="url(#clip410)" style="stroke:#000000; stroke-linecap:round; stroke-linejoin:round; stroke-width:8; stroke-opacity:1; fill:none" points="680.45,831.135 699.348,831.135 "/>
<polyline clip-path="url(#clip410)" style="stroke:#000000; stroke-linecap:round; stroke-linejoin:round; stroke-width:8; stroke-opacity:1; fill:none" points="680.45,606.704 699.348,606.704 "/>
<polyline clip-path="url(#clip410)" style="stroke:#000000; stroke-linecap:round; stroke-linejoin:round; stroke-width:8; stroke-opacity:1; fill:none" points="680.45,382.272 699.348,382.272 "/>
<polyline clip-path="url(#clip410)" style="stroke:#000000; stroke-linecap:round; stroke-linejoin:round; stroke-width:8; stroke-opacity:1; fill:none" points="680.45,157.841 699.348,157.841 "/>
<path clip-path="url(#clip410)" d="M391.072 1082.26 L406.35 1082.26 L406.35 1029.52 L389.73 1032.86 L389.73 1024.34 L406.257 1021.01 L415.609 1021.01 L415.609 1082.26 L430.887 1082.26 L430.887 1090.13 L391.072 1090.13 L391.072 1082.26 Z" fill="#000000" fill-rule="nonzero" fill-opacity="1" /><path clip-path="url(#clip410)" d="M469.775 1027.16 Q462.553 1027.16 458.896 1034.29 Q455.285 1041.38 455.285 1055.64 Q455.285 1069.85 458.896 1076.98 Q462.553 1084.06 469.775 1084.06 Q477.044 1084.06 480.655 1076.98 Q484.312 1069.85 484.312 1055.64 Q484.312 1041.38 480.655 1034.29 Q477.044 1027.16 469.775 1027.16 M469.775 1019.76 Q481.396 1019.76 487.507 1028.97 Q493.664 1038.14 493.664 1055.64 Q493.664 1073.09 487.507 1082.3 Q481.396 1091.47 469.775 1091.47 Q458.155 1091.47 451.998 1082.3 Q445.887 1073.09 445.887 1055.64 Q445.887 1038.14 451.998 1028.97 Q458.155 1019.76 469.775 1019.76 Z" fill="#000000" fill-rule="nonzero" fill-opacity="1" /><path clip-path="url(#clip410)" d="M530.099 1027.16 Q522.877 1027.16 519.22 1034.29 Q515.608 1041.38 515.608 1055.64 Q515.608 1069.85 519.22 1076.98 Q522.877 1084.06 530.099 1084.06 Q537.368 1084.06 540.979 1076.98 Q544.636 1069.85 544.636 1055.64 Q544.636 1041.38 540.979 1034.29 Q537.368 1027.16 530.099 1027.16 M530.099 1019.76 Q541.719 1019.76 547.831 1028.97 Q553.988 1038.14 553.988 1055.64 Q553.988 1073.09 547.831 1082.3 Q541.719 1091.47 530.099 1091.47 Q518.479 1091.47 512.321 1082.3 Q506.21 1073.09 506.21 1055.64 Q506.21 1038.14 512.321 1028.97 Q518.479 1019.76 530.099 1019.76 Z" fill="#000000" fill-rule="nonzero" fill-opacity="1" /><path clip-path="url(#clip410)" d="M570.423 1078.37 L580.191 1078.37 L580.191 1090.13 L570.423 1090.13 L570.423 1078.37 Z" fill="#000000" fill-rule="nonzero" fill-opacity="1" /><path clip-path="url(#clip410)" d="M620.562 1027.16 Q613.339 1027.16 609.682 1034.29 Q606.071 1041.38 606.071 1055.64 Q606.071 1069.85 609.682 1076.98 Q613.339 1084.06 620.562 1084.06 Q627.83 1084.06 631.441 1076.98 Q635.099 1069.85 635.099 1055.64 Q635.099 1041.38 631.441 1034.29 Q627.83 1027.16 620.562 1027.16 M620.562 1019.76 Q632.182 1019.76 638.293 1028.97 Q644.45 1038.14 644.45 1055.64 Q644.45 1073.09 638.293 1082.3 Q632.182 1091.47 620.562 1091.47 Q608.941 1091.47 602.784 1082.3 Q596.673 1073.09 596.673 1055.64 Q596.673 1038.14 602.784 1028.97 Q608.941 1019.76 620.562 1019.76 Z" fill="#000000" fill-rule="nonzero" fill-opacity="1" /><path clip-path="url(#clip410)" d="M391.072 857.825 L406.35 857.825 L406.35 805.094 L389.73 808.427 L389.73 799.908 L406.257 796.575 L415.609 796.575 L415.609 857.825 L430.887 857.825 L430.887 865.695 L391.072 865.695 L391.072 857.825 Z" fill="#000000" fill-rule="nonzero" fill-opacity="1" /><path clip-path="url(#clip410)" d="M449.868 796.575 L486.581 796.575 L486.581 804.445 L458.433 804.445 L458.433 821.39 Q460.47 820.695 462.507 820.371 Q464.544 820.001 466.581 820.001 Q478.155 820.001 484.914 826.343 Q491.673 832.686 491.673 843.519 Q491.673 854.677 484.729 860.88 Q477.785 867.038 465.146 867.038 Q460.794 867.038 456.257 866.297 Q451.766 865.556 446.951 864.075 L446.951 854.677 Q451.118 856.945 455.562 858.056 Q460.007 859.167 464.961 859.167 Q472.97 859.167 477.646 854.954 Q482.322 850.741 482.322 843.519 Q482.322 836.297 477.646 832.084 Q472.97 827.871 464.961 827.871 Q461.211 827.871 457.461 828.705 Q453.757 829.538 449.868 831.297 L449.868 796.575 Z" fill="#000000" fill-rule="nonzero" fill-opacity="1" /><path clip-path="url(#clip410)" d="M530.099 802.732 Q522.877 802.732 519.22 809.862 Q515.608 816.945 515.608 831.205 Q515.608 845.417 519.22 852.547 Q522.877 859.63 530.099 859.63 Q537.368 859.63 540.979 852.547 Q544.636 845.417 544.636 831.205 Q544.636 816.945 540.979 809.862 Q537.368 802.732 530.099 802.732 M530.099 795.325 Q541.719 795.325 547.831 804.538 Q553.988 813.705 553.988 831.205 Q553.988 848.658 547.831 857.871 Q541.719 867.038 530.099 867.038 Q518.479 867.038 512.321 857.871 Q506.21 848.658 506.21 831.205 Q506.21 813.705 512.321 804.538 Q518.479 795.325 530.099 795.325 Z" fill="#000000" fill-rule="nonzero" fill-opacity="1" /><path clip-path="url(#clip410)" d="M570.423 853.936 L580.191 853.936 L580.191 865.695 L570.423 865.695 L570.423 853.936 Z" fill="#000000" fill-rule="nonzero" fill-opacity="1" /><path clip-path="url(#clip410)" d="M620.562 802.732 Q613.339 802.732 609.682 809.862 Q606.071 816.945 606.071 831.205 Q606.071 845.417 609.682 852.547 Q613.339 859.63 620.562 859.63 Q627.83 859.63 631.441 852.547 Q635.099 845.417 635.099 831.205 Q635.099 816.945 631.441 809.862 Q627.83 802.732 620.562 802.732 M620.562 795.325 Q632.182 795.325 638.293 804.538 Q644.45 813.705 644.45 831.205 Q644.45 848.658 638.293 857.871 Q632.182 867.038 620.562 867.038 Q608.941 867.038 602.784 857.871 Q596.673 848.658 596.673 831.205 Q596.673 813.705 602.784 804.538 Q608.941 795.325 620.562 795.325 Z" fill="#000000" fill-rule="nonzero" fill-opacity="1" /><path clip-path="url(#clip410)" d="M397.507 633.393 L430.146 633.393 L430.146 641.264 L386.257 641.264 L386.257 633.393 Q391.581 627.884 400.748 618.625 Q409.961 609.319 412.322 606.634 Q416.813 601.588 418.572 598.116 Q420.378 594.597 420.378 591.218 Q420.378 585.709 416.489 582.236 Q412.646 578.764 406.442 578.764 Q402.044 578.764 397.137 580.292 Q392.276 581.82 386.72 584.921 L386.72 575.477 Q392.368 573.209 397.276 572.051 Q402.183 570.894 406.257 570.894 Q416.998 570.894 423.387 576.264 Q429.776 581.634 429.776 590.616 Q429.776 594.875 428.155 598.718 Q426.581 602.514 422.368 607.699 Q421.211 609.042 415.007 615.477 Q408.803 621.866 397.507 633.393 Z" fill="#000000" fill-rule="nonzero" fill-opacity="1" /><path clip-path="url(#clip410)" d="M469.775 578.301 Q462.553 578.301 458.896 585.431 Q455.285 592.514 455.285 606.773 Q455.285 620.986 458.896 628.116 Q462.553 635.199 469.775 635.199 Q477.044 635.199 480.655 628.116 Q484.312 620.986 484.312 606.773 Q484.312 592.514 480.655 585.431 Q477.044 578.301 469.775 578.301 M469.775 570.894 Q481.396 570.894 487.507 580.107 Q493.664 589.273 493.664 606.773 Q493.664 624.227 487.507 633.44 Q481.396 642.606 469.775 642.606 Q458.155 642.606 451.998 633.44 Q445.887 624.227 445.887 606.773 Q445.887 589.273 451.998 580.107 Q458.155 570.894 469.775 570.894 Z" fill="#000000" fill-rule="nonzero" fill-opacity="1" /><path clip-path="url(#clip410)" d="M530.099 578.301 Q522.877 578.301 519.22 585.431 Q515.608 592.514 515.608 606.773 Q515.608 620.986 519.22 628.116 Q522.877 635.199 530.099 635.199 Q537.368 635.199 540.979 628.116 Q544.636 620.986 544.636 606.773 Q544.636 592.514 540.979 585.431 Q537.368 578.301 530.099 578.301 M530.099 570.894 Q541.719 570.894 547.831 580.107 Q553.988 589.273 553.988 606.773 Q553.988 624.227 547.831 633.44 Q541.719 642.606 530.099 642.606 Q518.479 642.606 512.321 633.44 Q506.21 624.227 506.21 606.773 Q506.21 589.273 512.321 580.107 Q518.479 570.894 530.099 570.894 Z" fill="#000000" fill-rule="nonzero" fill-opacity="1" /><path clip-path="url(#clip410)" d="M570.423 629.505 L580.191 629.505 L580.191 641.264 L570.423 641.264 L570.423 629.505 Z" fill="#000000" fill-rule="nonzero" fill-opacity="1" /><path clip-path="url(#clip410)" d="M620.562 578.301 Q613.339 578.301 609.682 585.431 Q606.071 592.514 606.071 606.773 Q606.071 620.986 609.682 628.116 Q613.339 635.199 620.562 635.199 Q627.83 635.199 631.441 628.116 Q635.099 620.986 635.099 606.773 Q635.099 592.514 631.441 585.431 Q627.83 578.301 620.562 578.301 M620.562 570.894 Q632.182 570.894 638.293 580.107 Q644.45 589.273 644.45 606.773 Q644.45 624.227 638.293 633.44 Q632.182 642.606 620.562 642.606 Q608.941 642.606 602.784 633.44 Q596.673 624.227 596.673 606.773 Q596.673 589.273 602.784 580.107 Q608.941 570.894 620.562 570.894 Z" fill="#000000" fill-rule="nonzero" fill-opacity="1" /><path clip-path="url(#clip410)" d="M397.507 408.962 L430.146 408.962 L430.146 416.832 L386.257 416.832 L386.257 408.962 Q391.581 403.453 400.748 394.194 Q409.961 384.888 412.322 382.203 Q416.813 377.157 418.572 373.685 Q420.378 370.166 420.378 366.786 Q420.378 361.277 416.489 357.805 Q412.646 354.333 406.442 354.333 Q402.044 354.333 397.137 355.861 Q392.276 357.388 386.72 360.49 L386.72 351.046 Q392.368 348.777 397.276 347.62 Q402.183 346.462 406.257 346.462 Q416.998 346.462 423.387 351.833 Q429.776 357.203 429.776 366.185 Q429.776 370.444 428.155 374.286 Q426.581 378.083 422.368 383.268 Q421.211 384.61 415.007 391.046 Q408.803 397.434 397.507 408.962 Z" fill="#000000" fill-rule="nonzero" fill-opacity="1" /><path clip-path="url(#clip410)" d="M449.868 347.712 L486.581 347.712 L486.581 355.583 L458.433 355.583 L458.433 372.527 Q460.47 371.833 462.507 371.509 Q464.544 371.138 466.581 371.138 Q478.155 371.138 484.914 377.481 Q491.673 383.823 491.673 394.657 Q491.673 405.814 484.729 412.018 Q477.785 418.175 465.146 418.175 Q460.794 418.175 456.257 417.434 Q451.766 416.694 446.951 415.212 L446.951 405.814 Q451.118 408.083 455.562 409.194 Q460.007 410.305 464.961 410.305 Q472.97 410.305 477.646 406.092 Q482.322 401.879 482.322 394.657 Q482.322 387.434 477.646 383.222 Q472.97 379.009 464.961 379.009 Q461.211 379.009 457.461 379.842 Q453.757 380.675 449.868 382.435 L449.868 347.712 Z" fill="#000000" fill-rule="nonzero" fill-opacity="1" /><path clip-path="url(#clip410)" d="M530.099 353.87 Q522.877 353.87 519.22 360.999 Q515.608 368.083 515.608 382.342 Q515.608 396.555 519.22 403.684 Q522.877 410.768 530.099 410.768 Q537.368 410.768 540.979 403.684 Q544.636 396.555 544.636 382.342 Q544.636 368.083 540.979 360.999 Q537.368 353.87 530.099 353.87 M530.099 346.462 Q541.719 346.462 547.831 355.675 Q553.988 364.842 553.988 382.342 Q553.988 399.796 547.831 409.008 Q541.719 418.175 530.099 418.175 Q518.479 418.175 512.321 409.008 Q506.21 399.796 506.21 382.342 Q506.21 364.842 512.321 355.675 Q518.479 346.462 530.099 346.462 Z" fill="#000000" fill-rule="nonzero" fill-opacity="1" /><path clip-path="url(#clip410)" d="M570.423 405.073 L580.191 405.073 L580.191 416.832 L570.423 416.832 L570.423 405.073 Z" fill="#000000" fill-rule="nonzero" fill-opacity="1" /><path clip-path="url(#clip410)" d="M620.562 353.87 Q613.339 353.87 609.682 360.999 Q606.071 368.083 606.071 382.342 Q606.071 396.555 609.682 403.684 Q613.339 410.768 620.562 410.768 Q627.83 410.768 631.441 403.684 Q635.099 396.555 635.099 382.342 Q635.099 368.083 631.441 360.999 Q627.83 353.87 620.562 353.87 M620.562 346.462 Q632.182 346.462 638.293 355.675 Q644.45 364.842 644.45 382.342 Q644.45 399.796 638.293 409.008 Q632.182 418.175 620.562 418.175 Q608.941 418.175 602.784 409.008 Q596.673 399.796 596.673 382.342 Q596.673 364.842 602.784 355.675 Q608.941 346.462 620.562 346.462 Z" fill="#000000" fill-rule="nonzero" fill-opacity="1" /><path clip-path="url(#clip410)" d="M417.785 155.133 Q424.498 156.568 428.248 161.105 Q432.044 165.642 432.044 172.309 Q432.044 182.54 425.007 188.142 Q417.97 193.744 405.007 193.744 Q400.655 193.744 396.026 192.864 Q391.442 192.031 386.535 190.318 L386.535 181.29 Q390.424 183.559 395.054 184.716 Q399.683 185.873 404.729 185.873 Q413.526 185.873 418.109 182.401 Q422.739 178.929 422.739 172.309 Q422.739 166.198 418.433 162.772 Q414.174 159.299 406.535 159.299 L398.479 159.299 L398.479 151.614 L406.905 151.614 Q413.803 151.614 417.461 148.883 Q421.118 146.105 421.118 140.92 Q421.118 135.596 417.322 132.772 Q413.572 129.901 406.535 129.901 Q402.692 129.901 398.294 130.735 Q393.896 131.568 388.618 133.327 L388.618 124.994 Q393.942 123.513 398.572 122.772 Q403.248 122.031 407.368 122.031 Q418.016 122.031 424.22 126.892 Q430.424 131.707 430.424 139.948 Q430.424 145.688 427.137 149.67 Q423.85 153.605 417.785 155.133 Z" fill="#000000" fill-rule="nonzero" fill-opacity="1" /><path clip-path="url(#clip410)" d="M469.775 129.439 Q462.553 129.439 458.896 136.568 Q455.285 143.651 455.285 157.911 Q455.285 172.123 458.896 179.253 Q462.553 186.336 469.775 186.336 Q477.044 186.336 480.655 179.253 Q484.312 172.123 484.312 157.911 Q484.312 143.651 480.655 136.568 Q477.044 129.439 469.775 129.439 M469.775 122.031 Q481.396 122.031 487.507 131.244 Q493.664 140.411 493.664 157.911 Q493.664 175.364 487.507 184.577 Q481.396 193.744 469.775 193.744 Q458.155 193.744 451.998 184.577 Q445.887 175.364 445.887 157.911 Q445.887 140.411 451.998 131.244 Q458.155 122.031 469.775 122.031 Z" fill="#000000" fill-rule="nonzero" fill-opacity="1" /><path clip-path="url(#clip410)" d="M530.099 129.439 Q522.877 129.439 519.22 136.568 Q515.608 143.651 515.608 157.911 Q515.608 172.123 519.22 179.253 Q522.877 186.336 530.099 186.336 Q537.368 186.336 540.979 179.253 Q544.636 172.123 544.636 157.911 Q544.636 143.651 540.979 136.568 Q537.368 129.439 530.099 129.439 M530.099 122.031 Q541.719 122.031 547.831 131.244 Q553.988 140.411 553.988 157.911 Q553.988 175.364 547.831 184.577 Q541.719 193.744 530.099 193.744 Q518.479 193.744 512.321 184.577 Q506.21 175.364 506.21 157.911 Q506.21 140.411 512.321 131.244 Q518.479 122.031 530.099 122.031 Z" fill="#000000" fill-rule="nonzero" fill-opacity="1" /><path clip-path="url(#clip410)" d="M570.423 180.642 L580.191 180.642 L580.191 192.401 L570.423 192.401 L570.423 180.642 Z" fill="#000000" fill-rule="nonzero" fill-opacity="1" /><path clip-path="url(#clip410)" d="M620.562 129.439 Q613.339 129.439 609.682 136.568 Q606.071 143.651 606.071 157.911 Q606.071 172.123 609.682 179.253 Q613.339 186.336 620.562 186.336 Q627.83 186.336 631.441 179.253 Q635.099 172.123 635.099 157.911 Q635.099 143.651 631.441 136.568 Q627.83 129.439 620.562 129.439 M620.562 122.031 Q632.182 122.031 638.293 131.244 Q644.45 140.411 644.45 157.911 Q644.45 175.364 638.293 184.577 Q632.182 193.744 620.562 193.744 Q608.941 193.744 602.784 184.577 Q596.673 175.364 596.673 157.911 Q596.673 140.411 602.784 131.244 Q608.941 122.031 620.562 122.031 Z" fill="#000000" fill-rule="nonzero" fill-opacity="1" /><path clip-path="url(#clip410)" d="M311.051 931.4 L348.863 931.4 L348.863 943.176 L250.449 943.176 L250.449 931.4 L261.271 931.4 Q254.905 927.708 251.85 922.106 Q248.731 916.44 248.731 908.61 Q248.731 895.624 259.043 887.54 Q269.356 879.392 286.161 879.392 Q302.966 879.392 313.279 887.54 Q323.591 895.624 323.591 908.61 Q323.591 916.44 320.536 922.106 Q317.417 927.708 311.051 931.4 M286.161 891.55 Q273.239 891.55 265.918 896.898 Q258.534 902.181 258.534 911.475 Q258.534 920.769 265.918 926.116 Q273.239 931.4 286.161 931.4 Q299.083 931.4 306.468 926.116 Q313.788 920.769 313.788 911.475 Q313.788 902.181 306.468 896.898 Q299.083 891.55 286.161 891.55 Z" fill="#000000" fill-rule="nonzero" fill-opacity="1" /><path clip-path="url(#clip410)" d="M285.906 827.575 Q285.906 841.771 289.153 847.245 Q292.399 852.72 300.229 852.72 Q306.468 852.72 310.16 848.645 Q313.788 844.508 313.788 837.442 Q313.788 827.702 306.913 821.846 Q299.975 815.926 288.516 815.926 L285.906 815.926 L285.906 827.575 M281.068 804.213 L321.745 804.213 L321.745 815.926 L310.924 815.926 Q317.417 819.936 320.536 825.92 Q323.591 831.904 323.591 840.561 Q323.591 851.51 317.48 858.003 Q311.306 864.432 300.993 864.432 Q288.962 864.432 282.851 856.412 Q276.74 848.327 276.74 832.349 L276.74 815.926 L275.594 815.926 Q267.509 815.926 263.117 821.273 Q258.661 826.556 258.661 836.169 Q258.661 842.28 260.125 848.073 Q261.589 853.865 264.518 859.213 L253.696 859.213 Q251.213 852.783 250.004 846.736 Q248.731 840.688 248.731 834.959 Q248.731 819.491 256.751 811.852 Q264.772 804.213 281.068 804.213 Z" fill="#000000" fill-rule="nonzero" fill-opacity="1" /><path clip-path="url(#clip410)" d="M261.398 738.773 Q260.253 740.747 259.743 743.102 Q259.17 745.394 259.17 748.195 Q259.17 758.125 265.663 763.472 Q272.093 768.756 284.188 768.756 L321.745 768.756 L321.745 780.532 L250.449 780.532 L250.449 768.756 L261.526 768.756 Q255.033 765.064 251.914 759.144 Q248.731 753.224 248.731 744.757 Q248.731 743.548 248.922 742.084 Q249.049 740.619 249.367 738.837 L261.398 738.773 Z" fill="#000000" fill-rule="nonzero" fill-opacity="1" /><path clip-path="url(#clip410)" d="M283.169 668.369 L288.898 668.369 L288.898 722.223 Q300.993 721.459 307.359 714.966 Q313.661 708.409 313.661 696.76 Q313.661 690.012 312.006 683.71 Q310.351 677.344 307.041 671.106 L318.117 671.106 Q320.79 677.408 322.191 684.028 Q323.591 690.649 323.591 697.46 Q323.591 714.52 313.661 724.514 Q303.73 734.445 286.798 734.445 Q269.292 734.445 259.043 725.023 Q248.731 715.539 248.731 699.497 Q248.731 685.11 258.025 676.771 Q267.255 668.369 283.169 668.369 M279.732 680.082 Q270.119 680.209 264.39 685.492 Q258.661 690.712 258.661 699.37 Q258.661 709.173 264.199 715.093 Q269.737 720.949 279.795 721.841 L279.732 680.082 Z" fill="#000000" fill-rule="nonzero" fill-opacity="1" /><path clip-path="url(#clip410)" d="M278.713 589.88 L321.745 589.88 L321.745 601.592 L279.095 601.592 Q268.974 601.592 263.945 605.539 Q258.916 609.486 258.916 617.379 Q258.916 626.864 264.963 632.339 Q271.011 637.813 281.45 637.813 L321.745 637.813 L321.745 649.59 L250.449 649.59 L250.449 637.813 L261.526 637.813 Q255.096 633.612 251.914 627.946 Q248.731 622.217 248.731 614.769 Q248.731 602.484 256.37 596.182 Q263.945 589.88 278.713 589.88 Z" fill="#000000" fill-rule="nonzero" fill-opacity="1" /><path clip-path="url(#clip410)" d="M305.576 564.862 L305.576 551.431 L321.745 551.431 L321.745 564.862 L305.576 564.862 Z" fill="#000000" fill-rule="nonzero" fill-opacity="1" /><path clip-path="url(#clip410)" d="M310.924 479.753 L310.924 458.746 L238.418 458.746 L243.002 481.599 L231.289 481.599 L226.705 458.873 L226.705 446.015 L310.924 446.015 L310.924 425.008 L321.745 425.008 L321.745 479.753 L310.924 479.753 Z" fill="#000000" fill-rule="nonzero" fill-opacity="1" /><polyline clip-path="url(#clip412)" style="stroke:#008000; stroke-linecap:round; stroke-linejoin:round; stroke-width:8; stroke-opacity:1; fill:none" points="726.443,309.011 865.813,453.237 1005.18,498.59 1144.55,535.182 1283.93,568.6 1423.3,632.068 1562.67,769.466 1702.04,787.697 1841.41,790.786 1980.78,801.655 2120.15,859.884 2259.52,868.015 "/>
<circle clip-path="url(#clip412)" cx="726.443" cy="309.011" r="14.4" fill="#008000" fill-rule="evenodd" fill-opacity="1" stroke="#000000" stroke-opacity="1" stroke-width="6.4"/>
<circle clip-path="url(#clip412)" cx="865.813" cy="453.237" r="14.4" fill="#008000" fill-rule="evenodd" fill-opacity="1" stroke="#000000" stroke-opacity="1" stroke-width="6.4"/>
<circle clip-path="url(#clip412)" cx="1005.18" cy="498.59" r="14.4" fill="#008000" fill-rule="evenodd" fill-opacity="1" stroke="#000000" stroke-opacity="1" stroke-width="6.4"/>
<circle clip-path="url(#clip412)" cx="1144.55" cy="535.182" r="14.4" fill="#008000" fill-rule="evenodd" fill-opacity="1" stroke="#000000" stroke-opacity="1" stroke-width="6.4"/>
<circle clip-path="url(#clip412)" cx="1283.93" cy="568.6" r="14.4" fill="#008000" fill-rule="evenodd" fill-opacity="1" stroke="#000000" stroke-opacity="1" stroke-width="6.4"/>
<circle clip-path="url(#clip412)" cx="1423.3" cy="632.068" r="14.4" fill="#008000" fill-rule="evenodd" fill-opacity="1" stroke="#000000" stroke-opacity="1" stroke-width="6.4"/>
<circle clip-path="url(#clip412)" cx="1562.67" cy="769.466" r="14.4" fill="#008000" fill-rule="evenodd" fill-opacity="1" stroke="#000000" stroke-opacity="1" stroke-width="6.4"/>
<circle clip-path="url(#clip412)" cx="1702.04" cy="787.697" r="14.4" fill="#008000" fill-rule="evenodd" fill-opacity="1" stroke="#000000" stroke-opacity="1" stroke-width="6.4"/>
<circle clip-path="url(#clip412)" cx="1841.41" cy="790.786" r="14.4" fill="#008000" fill-rule="evenodd" fill-opacity="1" stroke="#000000" stroke-opacity="1" stroke-width="6.4"/>
<circle clip-path="url(#clip412)" cx="1980.78" cy="801.655" r="14.4" fill="#008000" fill-rule="evenodd" fill-opacity="1" stroke="#000000" stroke-opacity="1" stroke-width="6.4"/>
<circle clip-path="url(#clip412)" cx="2120.15" cy="859.884" r="14.4" fill="#008000" fill-rule="evenodd" fill-opacity="1" stroke="#000000" stroke-opacity="1" stroke-width="6.4"/>
<circle clip-path="url(#clip412)" cx="2259.52" cy="868.015" r="14.4" fill="#008000" fill-rule="evenodd" fill-opacity="1" stroke="#000000" stroke-opacity="1" stroke-width="6.4"/>
<polyline clip-path="url(#clip412)" style="stroke:#00008b; stroke-linecap:round; stroke-linejoin:round; stroke-width:8; stroke-opacity:1; fill:none" points="726.443,147.796 865.813,949.179 1005.18,956.186 1144.55,972.845 1283.93,984.004 1423.3,999.44 1562.67,1018.58 1702.04,1041.27 1841.41,1054.88 1980.78,1076.45 2120.15,1094.96 2259.52,1114.48 "/>
<path clip-path="url(#clip412)" d="M726.443 163.898 L865.813 1024.61 L1005.18 1041.36 L1144.55 1073.51 L1283.93 1094.03 L1423.3 1110.29 L1562.67 1145.23 L1702.04 1173.99 L1841.41 1178.21 L1980.78 1215.71 L2120.15 1224.86 L2259.52 1240.32 L2259.52 1018.86 L2120.15 992.93 L1980.78 970.16 L1841.41 959.916 L1702.04 949.717 L1562.67 923.959 L1423.3 911.82 L1283.93 912.706 L1144.55 902.29 L1005.18 903.98 L865.813 914.377 L726.443 127.862  Z" fill="#0000ff" fill-rule="evenodd" fill-opacity="0.1"/>
<polyline clip-path="url(#clip412)" style="stroke:#0000ff; stroke-linecap:round; stroke-linejoin:round; stroke-width:0; stroke-opacity:0.1; fill:none" points="726.443,163.898 865.813,1024.61 1005.18,1041.36 1144.55,1073.51 1283.93,1094.03 1423.3,1110.29 1562.67,1145.23 1702.04,1173.99 1841.41,1178.21 1980.78,1215.71 2120.15,1224.86 2259.52,1240.32 "/>
</svg>
