<?xml version="1.0" encoding="utf-8"?>
<svg xmlns="http://www.w3.org/2000/svg" xmlns:xlink="http://www.w3.org/1999/xlink" width="600" height="400" viewBox="0 0 2400 1600">
<defs>
  <clipPath id="clip370">
    <rect x="0" y="0" width="2400" height="1600"/>
  </clipPath>
</defs>
<path clip-path="url(#clip370)" d="M0 1600 L2400 1600 L2400 0 L0 0  Z" fill="#ffffff" fill-rule="evenodd" fill-opacity="1"/>
<defs>
  <clipPath id="clip371">
    <rect x="480" y="0" width="1681" height="1600"/>
  </clipPath>
</defs>
<path clip-path="url(#clip370)" d="M685.08 1273.7 L2305.51 1273.7 L2305.51 94.4882 L685.08 94.4882  Z" fill="#ffffff" fill-rule="evenodd" fill-opacity="1"/>
<defs>
  <clipPath id="clip372">
    <rect x="685" y="94" width="1621" height="1180"/>
  </clipPath>
</defs>
<polyline clip-path="url(#clip372)" style="stroke:#000000; stroke-linecap:round; stroke-linejoin:round; stroke-width:4; stroke-opacity:0.1; fill:none" points="730.941,1273.7 730.941,94.4882 "/>
<polyline clip-path="url(#clip372)" style="stroke:#000000; stroke-linecap:round; stroke-linejoin:round; stroke-width:4; stroke-opacity:0.1; fill:none" points="1078.38,1273.7 1078.38,94.4882 "/>
<polyline clip-path="url(#clip372)" style="stroke:#000000; stroke-linecap:round; stroke-linejoin:round; stroke-width:4; stroke-opacity:0.1; fill:none" points="1425.81,1273.7 1425.81,94.4882 "/>
<polyline clip-path="url(#clip372)" style="stroke:#000000; stroke-linecap:round; stroke-linejoin:round; stroke-width:4; stroke-opacity:0.1; fill:none" points="1773.24,1273.7 1773.24,94.4882 "/>
<polyline clip-path="url(#clip372)" style="stroke:#000000; stroke-linecap:round; stroke-linejoin:round; stroke-width:4; stroke-opacity:0.1; fill:none" points="2120.68,1273.7 2120.68,94.4882 "/>
<polyline clip-path="url(#clip370)" style="stroke:#000000; stroke-linecap:round; stroke-linejoin:round; stroke-width:8; stroke-opacity:1; fill:none" points="685.08,1273.7 2305.51,1273.7 "/>
<polyline clip-path="url(#clip370)" style="stroke:#000000; stroke-linecap:round; stroke-linejoin:round; stroke-width:8; stroke-opacity:1; fill:none" points="730.941,1273.7 730.941,1254.8 "/>
<polyline clip-path="url(#clip370)" style="stroke:#000000; stroke-linecap:round; stroke-linejoin:round; stroke-width:8; stroke-opacity:1; fill:none" points="1078.38,1273.7 1078.38,1254.8 "/>
<polyline clip-path="url(#clip370)" style="stroke:#000000; stroke-linecap:round; stroke-linejoin:round; stroke-width:8; stroke-opacity:1; fill:none" points="1425.81,1273.7 1425.81,1254.8 "/>
<polyline clip-path="url(#clip370)" style="stroke:#000000; stroke-linecap:round; stroke-linejoin:round; stroke-width:8; stroke-opacity:1; fill:none" points="1773.24,1273.7 1773.24,1254.8 "/>
<polyline clip-path="url(#clip370)" style="stroke:#000000; stroke-linecap:round; stroke-linejoin:round; stroke-width:8; stroke-opacity:1; fill:none" points="2120.68,1273.7 2120.68,1254.8 "/>
<path clip-path="url(#clip370)" d="M655.548 1316.33 Q648.326 1316.33 644.669 1323.46 Q641.057 1330.55 641.057 1344.81 Q641.057 1359.02 644.669 1366.15 Q648.326 1373.23 655.548 1373.23 Q662.817 1373.23 666.428 1366.15 Q670.085 1359.02 670.085 1344.81 Q670.085 1330.55 666.428 1323.46 Q662.817 1316.33 655.548 1316.33 M655.548 1308.93 Q667.168 1308.93 673.28 1318.14 Q679.437 1327.31 679.437 1344.81 Q679.437 1362.26 673.28 1371.47 Q667.168 1380.64 655.548 1380.64 Q643.928 1380.64 637.77 1371.47 Q631.659 1362.26 631.659 1344.81 Q631.659 1327.31 637.77 1318.14 Q643.928 1308.93 655.548 1308.93 Z" fill="#000000" fill-rule="nonzero" fill-opacity="1" /><path clip-path="url(#clip370)" d="M695.872 1367.54 L705.64 1367.54 L705.64 1379.3 L695.872 1379.3 L695.872 1367.54 Z" fill="#000000" fill-rule="nonzero" fill-opacity="1" /><path clip-path="url(#clip370)" d="M746.011 1316.33 Q738.788 1316.33 735.131 1323.46 Q731.52 1330.55 731.52 1344.81 Q731.52 1359.02 735.131 1366.15 Q738.788 1373.23 746.011 1373.23 Q753.279 1373.23 756.89 1366.15 Q760.548 1359.02 760.548 1344.81 Q760.548 1330.55 756.89 1323.46 Q753.279 1316.33 746.011 1316.33 M746.011 1308.93 Q757.631 1308.93 763.742 1318.14 Q769.899 1327.31 769.899 1344.81 Q769.899 1362.26 763.742 1371.47 Q757.631 1380.64 746.011 1380.64 Q734.39 1380.64 728.233 1371.47 Q722.122 1362.26 722.122 1344.81 Q722.122 1327.31 728.233 1318.14 Q734.39 1308.93 746.011 1308.93 Z" fill="#000000" fill-rule="nonzero" fill-opacity="1" /><path clip-path="url(#clip370)" d="M806.334 1316.33 Q799.112 1316.33 795.455 1323.46 Q791.844 1330.55 791.844 1344.81 Q791.844 1359.02 795.455 1366.15 Q799.112 1373.23 806.334 1373.23 Q813.603 1373.23 817.214 1366.15 Q820.871 1359.02 820.871 1344.81 Q820.871 1330.55 817.214 1323.46 Q813.603 1316.33 806.334 1316.33 M806.334 1308.93 Q817.955 1308.93 824.066 1318.14 Q830.223 1327.31 830.223 1344.81 Q830.223 1362.26 824.066 1371.47 Q817.955 1380.64 806.334 1380.64 Q794.714 1380.64 788.557 1371.47 Q782.446 1362.26 782.446 1344.81 Q782.446 1327.31 788.557 1318.14 Q794.714 1308.93 806.334 1308.93 Z" fill="#000000" fill-rule="nonzero" fill-opacity="1" /><path clip-path="url(#clip370)" d="M1003.98 1316.33 Q996.755 1316.33 993.098 1323.46 Q989.487 1330.55 989.487 1344.81 Q989.487 1359.02 993.098 1366.15 Q996.755 1373.23 1003.98 1373.23 Q1011.25 1373.23 1014.86 1366.15 Q1018.51 1359.02 1018.51 1344.81 Q1018.51 1330.55 1014.86 1323.46 Q1011.25 1316.33 1003.98 1316.33 M1003.98 1308.93 Q1015.6 1308.93 1021.71 1318.14 Q1027.87 1327.31 1027.87 1344.81 Q1027.87 1362.26 1021.71 1371.47 Q1015.6 1380.64 1003.98 1380.64 Q992.357 1380.64 986.2 1371.47 Q980.089 1362.26 980.089 1344.81 Q980.089 1327.31 986.2 1318.14 Q992.357 1308.93 1003.98 1308.93 Z" fill="#000000" fill-rule="nonzero" fill-opacity="1" /><path clip-path="url(#clip370)" d="M1044.3 1367.54 L1054.07 1367.54 L1054.07 1379.3 L1044.3 1379.3 L1044.3 1367.54 Z" fill="#000000" fill-rule="nonzero" fill-opacity="1" /><path clip-path="url(#clip370)" d="M1082.5 1371.43 L1115.13 1371.43 L1115.13 1379.3 L1071.25 1379.3 L1071.25 1371.43 Q1076.57 1365.92 1085.74 1356.66 Q1094.95 1347.35 1097.31 1344.67 Q1101.8 1339.62 1103.56 1336.15 Q1105.37 1332.63 1105.37 1329.25 Q1105.37 1323.74 1101.48 1320.27 Q1097.63 1316.8 1091.43 1316.8 Q1087.03 1316.8 1082.13 1318.32 Q1077.26 1319.85 1071.71 1322.95 L1071.71 1313.51 Q1077.36 1311.24 1082.26 1310.08 Q1087.17 1308.93 1091.25 1308.93 Q1101.99 1308.93 1108.38 1314.3 Q1114.76 1319.67 1114.76 1328.65 Q1114.76 1332.91 1113.14 1336.75 Q1111.57 1340.55 1107.36 1345.73 Q1106.2 1347.07 1100 1353.51 Q1093.79 1359.9 1082.5 1371.43 Z" fill="#000000" fill-rule="nonzero" fill-opacity="1" /><path clip-path="url(#clip370)" d="M1134.86 1310.18 L1171.57 1310.18 L1171.57 1318.05 L1143.42 1318.05 L1143.42 1334.99 Q1145.46 1334.3 1147.5 1333.97 Q1149.53 1333.6 1151.57 1333.6 Q1163.14 1333.6 1169.9 1339.94 Q1176.66 1346.29 1176.66 1357.12 Q1176.66 1368.28 1169.72 1374.48 Q1162.77 1380.64 1150.13 1380.64 Q1145.78 1380.64 1141.25 1379.9 Q1136.75 1379.16 1131.94 1377.68 L1131.94 1368.28 Q1136.11 1370.55 1140.55 1371.66 Q1145 1372.77 1149.95 1372.77 Q1157.96 1372.77 1162.63 1368.56 Q1167.31 1364.34 1167.31 1357.12 Q1167.31 1349.9 1162.63 1345.68 Q1157.96 1341.47 1149.95 1341.47 Q1146.2 1341.47 1142.45 1342.31 Q1138.75 1343.14 1134.86 1344.9 L1134.86 1310.18 Z" fill="#000000" fill-rule="nonzero" fill-opacity="1" /><path clip-path="url(#clip370)" d="M1350.42 1316.33 Q1343.19 1316.33 1339.54 1323.46 Q1335.93 1330.55 1335.93 1344.81 Q1335.93 1359.02 1339.54 1366.15 Q1343.19 1373.23 1350.42 1373.23 Q1357.68 1373.23 1361.3 1366.15 Q1364.95 1359.02 1364.95 1344.81 Q1364.95 1330.55 1361.3 1323.46 Q1357.68 1316.33 1350.42 1316.33 M1350.42 1308.93 Q1362.04 1308.93 1368.15 1318.14 Q1374.3 1327.31 1374.3 1344.81 Q1374.3 1362.26 1368.15 1371.47 Q1362.04 1380.64 1350.42 1380.64 Q1338.8 1380.64 1332.64 1371.47 Q1326.53 1362.26 1326.53 1344.81 Q1326.53 1327.31 1332.64 1318.14 Q1338.8 1308.93 1350.42 1308.93 Z" fill="#000000" fill-rule="nonzero" fill-opacity="1" /><path clip-path="url(#clip370)" d="M1390.74 1367.54 L1400.51 1367.54 L1400.51 1379.3 L1390.74 1379.3 L1390.74 1367.54 Z" fill="#000000" fill-rule="nonzero" fill-opacity="1" /><path clip-path="url(#clip370)" d="M1420.97 1310.18 L1457.68 1310.18 L1457.68 1318.05 L1429.54 1318.05 L1429.54 1334.99 Q1431.57 1334.3 1433.61 1333.97 Q1435.65 1333.6 1437.68 1333.6 Q1449.26 1333.6 1456.02 1339.94 Q1462.78 1346.29 1462.78 1357.12 Q1462.78 1368.28 1455.83 1374.48 Q1448.89 1380.64 1436.25 1380.64 Q1431.9 1380.64 1427.36 1379.9 Q1422.87 1379.16 1418.05 1377.68 L1418.05 1368.28 Q1422.22 1370.55 1426.67 1371.66 Q1431.11 1372.77 1436.06 1372.77 Q1444.07 1372.77 1448.75 1368.56 Q1453.42 1364.34 1453.42 1357.12 Q1453.42 1349.9 1448.75 1345.68 Q1444.07 1341.47 1436.06 1341.47 Q1432.31 1341.47 1428.56 1342.31 Q1424.86 1343.14 1420.97 1344.9 L1420.97 1310.18 Z" fill="#000000" fill-rule="nonzero" fill-opacity="1" /><path clip-path="url(#clip370)" d="M1501.2 1316.33 Q1493.98 1316.33 1490.32 1323.46 Q1486.71 1330.55 1486.71 1344.81 Q1486.71 1359.02 1490.32 1366.15 Q1493.98 1373.23 1501.2 1373.23 Q1508.47 1373.23 1512.08 1366.15 Q1515.74 1359.02 1515.74 1344.81 Q1515.74 1330.55 1512.08 1323.46 Q1508.47 1316.33 1501.2 1316.33 M1501.2 1308.93 Q1512.82 1308.93 1518.93 1318.14 Q1525.09 1327.31 1525.09 1344.81 Q1525.09 1362.26 1518.93 1371.47 Q1512.82 1380.64 1501.2 1380.64 Q1489.58 1380.64 1483.42 1371.47 Q1477.31 1362.26 1477.31 1344.81 Q1477.31 1327.31 1483.42 1318.14 Q1489.58 1308.93 1501.2 1308.93 Z" fill="#000000" fill-rule="nonzero" fill-opacity="1" /><path clip-path="url(#clip370)" d="M1698.85 1316.33 Q1691.62 1316.33 1687.97 1323.46 Q1684.35 1330.55 1684.35 1344.81 Q1684.35 1359.02 1687.97 1366.15 Q1691.62 1373.23 1698.85 1373.23 Q1706.11 1373.23 1709.72 1366.15 Q1713.38 1359.02 1713.38 1344.81 Q1713.38 1330.55 1709.72 1323.46 Q1706.11 1316.33 1698.85 1316.33 M1698.85 1308.93 Q1710.47 1308.93 1716.58 1318.14 Q1722.73 1327.31 1722.73 1344.81 Q1722.73 1362.26 1716.58 1371.47 Q1710.47 1380.64 1698.85 1380.64 Q1687.22 1380.64 1681.07 1371.47 Q1674.96 1362.26 1674.96 1344.81 Q1674.96 1327.31 1681.07 1318.14 Q1687.22 1308.93 1698.85 1308.93 Z" fill="#000000" fill-rule="nonzero" fill-opacity="1" /><path clip-path="url(#clip370)" d="M1739.17 1367.54 L1748.94 1367.54 L1748.94 1379.3 L1739.17 1379.3 L1739.17 1367.54 Z" fill="#000000" fill-rule="nonzero" fill-opacity="1" /><path clip-path="url(#clip370)" d="M1766.95 1310.18 L1811.39 1310.18 L1811.39 1314.16 L1786.3 1379.3 L1776.53 1379.3 L1800.14 1318.05 L1766.95 1318.05 L1766.95 1310.18 Z" fill="#000000" fill-rule="nonzero" fill-opacity="1" /><path clip-path="url(#clip370)" d="M1829.72 1310.18 L1866.44 1310.18 L1866.44 1318.05 L1838.29 1318.05 L1838.29 1334.99 Q1840.33 1334.3 1842.36 1333.97 Q1844.4 1333.6 1846.44 1333.6 Q1858.01 1333.6 1864.77 1339.94 Q1871.53 1346.29 1871.53 1357.12 Q1871.53 1368.28 1864.59 1374.48 Q1857.64 1380.64 1845 1380.64 Q1840.65 1380.64 1836.11 1379.9 Q1831.62 1379.16 1826.81 1377.68 L1826.81 1368.28 Q1830.97 1370.55 1835.42 1371.66 Q1839.86 1372.77 1844.82 1372.77 Q1852.83 1372.77 1857.5 1368.56 Q1862.18 1364.34 1862.18 1357.12 Q1862.18 1349.9 1857.5 1345.68 Q1852.83 1341.47 1844.82 1341.47 Q1841.07 1341.47 1837.32 1342.31 Q1833.61 1343.14 1829.72 1344.9 L1829.72 1310.18 Z" fill="#000000" fill-rule="nonzero" fill-opacity="1" /><path clip-path="url(#clip370)" d="M2024.82 1371.43 L2040.1 1371.43 L2040.1 1318.69 L2023.48 1322.03 L2023.48 1313.51 L2040.01 1310.18 L2049.36 1310.18 L2049.36 1371.43 L2064.64 1371.43 L2064.64 1379.3 L2024.82 1379.3 L2024.82 1371.43 Z" fill="#000000" fill-rule="nonzero" fill-opacity="1" /><path clip-path="url(#clip370)" d="M2083.52 1367.54 L2093.29 1367.54 L2093.29 1379.3 L2083.52 1379.3 L2083.52 1367.54 Z" fill="#000000" fill-rule="nonzero" fill-opacity="1" /><path clip-path="url(#clip370)" d="M2133.66 1316.33 Q2126.44 1316.33 2122.78 1323.46 Q2119.17 1330.55 2119.17 1344.81 Q2119.17 1359.02 2122.78 1366.15 Q2126.44 1373.23 2133.66 1373.23 Q2140.93 1373.23 2144.54 1366.15 Q2148.2 1359.02 2148.2 1344.81 Q2148.2 1330.55 2144.54 1323.46 Q2140.93 1316.33 2133.66 1316.33 M2133.66 1308.93 Q2145.28 1308.93 2151.39 1318.14 Q2157.55 1327.31 2157.55 1344.81 Q2157.55 1362.26 2151.39 1371.47 Q2145.28 1380.64 2133.66 1380.64 Q2122.04 1380.64 2115.89 1371.47 Q2109.77 1362.26 2109.77 1344.81 Q2109.77 1327.31 2115.89 1318.14 Q2122.04 1308.93 2133.66 1308.93 Z" fill="#000000" fill-rule="nonzero" fill-opacity="1" /><path clip-path="url(#clip370)" d="M2193.99 1316.33 Q2186.76 1316.33 2183.11 1323.46 Q2179.5 1330.55 2179.5 1344.81 Q2179.5 1359.02 2183.11 1366.15 Q2186.76 1373.23 2193.99 1373.23 Q2201.26 1373.23 2204.87 1366.15 Q2208.52 1359.02 2208.52 1344.81 Q2208.52 1330.55 2204.87 1323.46 Q2201.26 1316.33 2193.99 1316.33 M2193.99 1308.93 Q2205.61 1308.93 2211.72 1318.14 Q2217.88 1327.31 2217.88 1344.81 Q2217.88 1362.26 2211.72 1371.47 Q2205.61 1380.64 2193.99 1380.64 Q2182.37 1380.64 2176.21 1371.47 Q2170.1 1362.26 2170.1 1344.81 Q2170.1 1327.31 2176.21 1318.14 Q2182.37 1308.93 2193.99 1308.93 Z" fill="#000000" fill-rule="nonzero" fill-opacity="1" /><path clip-path="url(#clip370)" d="M1380.84 1484.39 L1380.84 1527.42 L1369.13 1527.42 L1369.13 1484.77 Q1369.13 1474.65 1365.18 1469.62 Q1361.23 1464.59 1353.34 1464.59 Q1343.86 1464.59 1338.38 1470.64 Q1332.91 1476.69 1332.91 1487.13 L1332.91 1527.42 L1321.13 1527.42 L1321.13 1428.37 L1332.91 1428.37 L1332.91 1467.2 Q1337.11 1460.77 1342.77 1457.59 Q1348.5 1454.41 1355.95 1454.41 Q1368.24 1454.41 1374.54 1462.05 Q1380.84 1469.62 1380.84 1484.39 Z" fill="#000000" fill-rule="nonzero" fill-opacity="1" /><path clip-path="url(#clip370)" d="M1431.83 1464.34 Q1422.41 1464.34 1416.93 1471.72 Q1411.46 1479.04 1411.46 1491.84 Q1411.46 1504.63 1416.87 1512.02 Q1422.34 1519.34 1431.83 1519.34 Q1441.19 1519.34 1446.66 1511.96 Q1452.14 1504.57 1452.14 1491.84 Q1452.14 1479.17 1446.66 1471.79 Q1441.19 1464.34 1431.83 1464.34 M1431.83 1454.41 Q1447.11 1454.41 1455.83 1464.34 Q1464.55 1474.27 1464.55 1491.84 Q1464.55 1509.35 1455.83 1519.34 Q1447.11 1529.27 1431.83 1529.27 Q1416.49 1529.27 1407.77 1519.34 Q1399.11 1509.35 1399.11 1491.84 Q1399.11 1474.27 1407.77 1464.34 Q1416.49 1454.41 1431.83 1454.41 Z" fill="#000000" fill-rule="nonzero" fill-opacity="1" /><path clip-path="url(#clip370)" d="M1482.76 1499.29 L1482.76 1456.13 L1494.47 1456.13 L1494.47 1498.84 Q1494.47 1508.96 1498.42 1514.06 Q1502.36 1519.08 1510.26 1519.08 Q1519.74 1519.08 1525.21 1513.04 Q1530.75 1506.99 1530.75 1496.55 L1530.75 1456.13 L1542.47 1456.13 L1542.47 1527.42 L1530.75 1527.42 L1530.75 1516.47 Q1526.49 1522.97 1520.82 1526.15 Q1515.22 1529.27 1507.77 1529.27 Q1495.49 1529.27 1489.12 1521.63 Q1482.76 1513.99 1482.76 1499.29 M1512.23 1454.41 L1512.23 1454.41 Z" fill="#000000" fill-rule="nonzero" fill-opacity="1" /><path clip-path="url(#clip370)" d="M1607.91 1467.08 Q1605.93 1465.93 1603.58 1465.42 Q1601.28 1464.85 1598.48 1464.85 Q1588.55 1464.85 1583.21 1471.34 Q1577.92 1477.77 1577.92 1489.87 L1577.92 1527.42 L1566.15 1527.42 L1566.15 1456.13 L1577.92 1456.13 L1577.92 1467.2 Q1581.61 1460.71 1587.53 1457.59 Q1593.46 1454.41 1601.92 1454.41 Q1603.13 1454.41 1604.6 1454.6 Q1606.06 1454.73 1607.84 1455.05 L1607.91 1467.08 Z" fill="#000000" fill-rule="nonzero" fill-opacity="1" /><path clip-path="url(#clip370)" d="M1665.64 1458.23 L1665.64 1469.3 Q1660.68 1466.76 1655.33 1465.49 Q1649.98 1464.21 1644.25 1464.21 Q1635.53 1464.21 1631.14 1466.89 Q1626.81 1469.56 1626.81 1474.91 Q1626.81 1478.98 1629.93 1481.34 Q1633.05 1483.63 1642.47 1485.73 L1646.48 1486.62 Q1658.96 1489.29 1664.18 1494.19 Q1669.46 1499.03 1669.46 1507.75 Q1669.46 1517.68 1661.57 1523.48 Q1653.74 1529.27 1639.99 1529.27 Q1634.26 1529.27 1628.02 1528.12 Q1621.85 1527.04 1614.97 1524.81 L1614.97 1512.72 Q1621.46 1516.09 1627.77 1517.81 Q1634.07 1519.47 1640.24 1519.47 Q1648.52 1519.47 1652.97 1516.67 Q1657.43 1513.8 1657.43 1508.64 Q1657.43 1503.87 1654.18 1501.32 Q1651 1498.78 1640.12 1496.42 L1636.04 1495.47 Q1625.16 1493.18 1620.32 1488.47 Q1615.48 1483.69 1615.48 1475.42 Q1615.48 1465.36 1622.61 1459.88 Q1629.74 1454.41 1642.85 1454.41 Q1649.35 1454.41 1655.08 1455.36 Q1660.8 1456.32 1665.64 1458.23 Z" fill="#000000" fill-rule="nonzero" fill-opacity="1" /><polyline clip-path="url(#clip372)" style="stroke:#000000; stroke-linecap:round; stroke-linejoin:round; stroke-width:4; stroke-opacity:0.1; fill:none" points="685.08,1144.79 2305.51,1144.79 "/>
<polyline clip-path="url(#clip372)" style="stroke:#000000; stroke-linecap:round; stroke-linejoin:round; stroke-width:4; stroke-opacity:0.1; fill:none" points="685.08,841.246 2305.51,841.246 "/>
<polyline clip-path="url(#clip372)" style="stroke:#000000; stroke-linecap:round; stroke-linejoin:round; stroke-width:4; stroke-opacity:0.1; fill:none" points="685.08,537.699 2305.51,537.699 "/>
<polyline clip-path="url(#clip372)" style="stroke:#000000; stroke-linecap:round; stroke-linejoin:round; stroke-width:4; stroke-opacity:0.1; fill:none" points="685.08,234.152 2305.51,234.152 "/>
<polyline clip-path="url(#clip370)" style="stroke:#000000; stroke-linecap:round; stroke-linejoin:round; stroke-width:8; stroke-opacity:1; fill:none" points="685.08,1273.7 685.08,94.4882 "/>
<polyline clip-path="url(#clip370)" style="stroke:#000000; stroke-linecap:round; stroke-linejoin:round; stroke-width:8; stroke-opacity:1; fill:none" points="685.08,1144.79 703.978,1144.79 "/>
<polyline clip-path="url(#clip370)" style="stroke:#000000; stroke-linecap:round; stroke-linejoin:round; stroke-width:8; stroke-opacity:1; fill:none" points="685.08,841.246 703.978,841.246 "/>
<polyline clip-path="url(#clip370)" style="stroke:#000000; stroke-linecap:round; stroke-linejoin:round; stroke-width:8; stroke-opacity:1; fill:none" points="685.08,537.699 703.978,537.699 "/>
<polyline clip-path="url(#clip370)" style="stroke:#000000; stroke-linecap:round; stroke-linejoin:round; stroke-width:8; stroke-opacity:1; fill:none" points="685.08,234.152 703.978,234.152 "/>
<path clip-path="url(#clip370)" d="M422.415 1142.08 Q429.127 1143.52 432.877 1148.06 Q436.674 1152.59 436.674 1159.26 Q436.674 1169.49 429.637 1175.09 Q422.6 1180.7 409.637 1180.7 Q405.285 1180.7 400.655 1179.82 Q396.072 1178.98 391.165 1177.27 L391.165 1168.24 Q395.054 1170.51 399.683 1171.67 Q404.313 1172.83 409.359 1172.83 Q418.155 1172.83 422.739 1169.35 Q427.368 1165.88 427.368 1159.26 Q427.368 1153.15 423.063 1149.72 Q418.803 1146.25 411.165 1146.25 L403.109 1146.25 L403.109 1138.57 L411.535 1138.57 Q418.433 1138.57 422.09 1135.83 Q425.748 1133.06 425.748 1127.87 Q425.748 1122.55 421.952 1119.72 Q418.202 1116.85 411.165 1116.85 Q407.322 1116.85 402.924 1117.69 Q398.526 1118.52 393.248 1120.28 L393.248 1111.95 Q398.572 1110.46 403.202 1109.72 Q407.878 1108.98 411.998 1108.98 Q422.646 1108.98 428.85 1113.84 Q435.053 1118.66 435.053 1126.9 Q435.053 1132.64 431.766 1136.62 Q428.479 1140.56 422.415 1142.08 Z" fill="#000000" fill-rule="nonzero" fill-opacity="1" /><path clip-path="url(#clip370)" d="M474.405 1116.39 Q467.183 1116.39 463.525 1123.52 Q459.914 1130.6 459.914 1144.86 Q459.914 1159.08 463.525 1166.2 Q467.183 1173.29 474.405 1173.29 Q481.673 1173.29 485.285 1166.2 Q488.942 1159.08 488.942 1144.86 Q488.942 1130.6 485.285 1123.52 Q481.673 1116.39 474.405 1116.39 M474.405 1108.98 Q486.025 1108.98 492.136 1118.2 Q498.294 1127.36 498.294 1144.86 Q498.294 1162.32 492.136 1171.53 Q486.025 1180.7 474.405 1180.7 Q462.785 1180.7 456.627 1171.53 Q450.516 1162.32 450.516 1144.86 Q450.516 1127.36 456.627 1118.2 Q462.785 1108.98 474.405 1108.98 Z" fill="#000000" fill-rule="nonzero" fill-opacity="1" /><path clip-path="url(#clip370)" d="M534.729 1116.39 Q527.507 1116.39 523.849 1123.52 Q520.238 1130.6 520.238 1144.86 Q520.238 1159.08 523.849 1166.2 Q527.507 1173.29 534.729 1173.29 Q541.997 1173.29 545.608 1166.2 Q549.266 1159.08 549.266 1144.86 Q549.266 1130.6 545.608 1123.52 Q541.997 1116.39 534.729 1116.39 M534.729 1108.98 Q546.349 1108.98 552.46 1118.2 Q558.618 1127.36 558.618 1144.86 Q558.618 1162.32 552.46 1171.53 Q546.349 1180.7 534.729 1180.7 Q523.108 1180.7 516.951 1171.53 Q510.84 1162.32 510.84 1144.86 Q510.84 1127.36 516.951 1118.2 Q523.108 1108.98 534.729 1108.98 Z" fill="#000000" fill-rule="nonzero" fill-opacity="1" /><path clip-path="url(#clip370)" d="M575.053 1167.59 L584.821 1167.59 L584.821 1179.35 L575.053 1179.35 L575.053 1167.59 Z" fill="#000000" fill-rule="nonzero" fill-opacity="1" /><path clip-path="url(#clip370)" d="M625.191 1116.39 Q617.969 1116.39 614.312 1123.52 Q610.701 1130.6 610.701 1144.86 Q610.701 1159.08 614.312 1166.2 Q617.969 1173.29 625.191 1173.29 Q632.46 1173.29 636.071 1166.2 Q639.728 1159.08 639.728 1144.86 Q639.728 1130.6 636.071 1123.52 Q632.46 1116.39 625.191 1116.39 M625.191 1108.98 Q636.812 1108.98 642.923 1118.2 Q649.08 1127.36 649.08 1144.86 Q649.08 1162.32 642.923 1171.53 Q636.812 1180.7 625.191 1180.7 Q613.571 1180.7 607.414 1171.53 Q601.302 1162.32 601.302 1144.86 Q601.302 1127.36 607.414 1118.2 Q613.571 1108.98 625.191 1108.98 Z" fill="#000000" fill-rule="nonzero" fill-opacity="1" /><path clip-path="url(#clip370)" d="M419.776 814.834 L396.165 851.732 L419.776 851.732 L419.776 814.834 M417.322 806.686 L429.081 806.686 L429.081 851.732 L438.942 851.732 L438.942 859.51 L429.081 859.51 L429.081 875.806 L419.776 875.806 L419.776 859.51 L388.572 859.51 L388.572 850.482 L417.322 806.686 Z" fill="#000000" fill-rule="nonzero" fill-opacity="1" /><path clip-path="url(#clip370)" d="M474.405 812.843 Q467.183 812.843 463.525 819.973 Q459.914 827.056 459.914 841.315 Q459.914 855.528 463.525 862.658 Q467.183 869.741 474.405 869.741 Q481.673 869.741 485.285 862.658 Q488.942 855.528 488.942 841.315 Q488.942 827.056 485.285 819.973 Q481.673 812.843 474.405 812.843 M474.405 805.436 Q486.025 805.436 492.136 814.649 Q498.294 823.815 498.294 841.315 Q498.294 858.769 492.136 867.982 Q486.025 877.149 474.405 877.149 Q462.785 877.149 456.627 867.982 Q450.516 858.769 450.516 841.315 Q450.516 823.815 456.627 814.649 Q462.785 805.436 474.405 805.436 Z" fill="#000000" fill-rule="nonzero" fill-opacity="1" /><path clip-path="url(#clip370)" d="M534.729 812.843 Q527.507 812.843 523.849 819.973 Q520.238 827.056 520.238 841.315 Q520.238 855.528 523.849 862.658 Q527.507 869.741 534.729 869.741 Q541.997 869.741 545.608 862.658 Q549.266 855.528 549.266 841.315 Q549.266 827.056 545.608 819.973 Q541.997 812.843 534.729 812.843 M534.729 805.436 Q546.349 805.436 552.46 814.649 Q558.618 823.815 558.618 841.315 Q558.618 858.769 552.46 867.982 Q546.349 877.149 534.729 877.149 Q523.108 877.149 516.951 867.982 Q510.84 858.769 510.84 841.315 Q510.84 823.815 516.951 814.649 Q523.108 805.436 534.729 805.436 Z" fill="#000000" fill-rule="nonzero" fill-opacity="1" /><path clip-path="url(#clip370)" d="M575.053 864.047 L584.821 864.047 L584.821 875.806 L575.053 875.806 L575.053 864.047 Z" fill="#000000" fill-rule="nonzero" fill-opacity="1" /><path clip-path="url(#clip370)" d="M625.191 812.843 Q617.969 812.843 614.312 819.973 Q610.701 827.056 610.701 841.315 Q610.701 855.528 614.312 862.658 Q617.969 869.741 625.191 869.741 Q632.46 869.741 636.071 862.658 Q639.728 855.528 639.728 841.315 Q639.728 827.056 636.071 819.973 Q632.46 812.843 625.191 812.843 M625.191 805.436 Q636.812 805.436 642.923 814.649 Q649.08 823.815 649.08 841.315 Q649.08 858.769 642.923 867.982 Q636.812 877.149 625.191 877.149 Q613.571 877.149 607.414 867.982 Q601.302 858.769 601.302 841.315 Q601.302 823.815 607.414 814.649 Q613.571 805.436 625.191 805.436 Z" fill="#000000" fill-rule="nonzero" fill-opacity="1" /><path clip-path="url(#clip370)" d="M394.174 503.139 L430.887 503.139 L430.887 511.009 L402.739 511.009 L402.739 527.954 Q404.776 527.259 406.813 526.935 Q408.85 526.565 410.887 526.565 Q422.461 526.565 429.22 532.907 Q435.979 539.25 435.979 550.083 Q435.979 561.241 429.035 567.444 Q422.09 573.602 409.452 573.602 Q405.1 573.602 400.563 572.861 Q396.072 572.12 391.257 570.639 L391.257 561.241 Q395.424 563.509 399.868 564.62 Q404.313 565.731 409.266 565.731 Q417.276 565.731 421.952 561.518 Q426.627 557.305 426.627 550.083 Q426.627 542.861 421.952 538.648 Q417.276 534.435 409.266 534.435 Q405.516 534.435 401.766 535.268 Q398.063 536.102 394.174 537.861 L394.174 503.139 Z" fill="#000000" fill-rule="nonzero" fill-opacity="1" /><path clip-path="url(#clip370)" d="M474.405 509.296 Q467.183 509.296 463.525 516.426 Q459.914 523.509 459.914 537.768 Q459.914 551.981 463.525 559.111 Q467.183 566.194 474.405 566.194 Q481.673 566.194 485.285 559.111 Q488.942 551.981 488.942 537.768 Q488.942 523.509 485.285 516.426 Q481.673 509.296 474.405 509.296 M474.405 501.889 Q486.025 501.889 492.136 511.102 Q498.294 520.269 498.294 537.768 Q498.294 555.222 492.136 564.435 Q486.025 573.602 474.405 573.602 Q462.785 573.602 456.627 564.435 Q450.516 555.222 450.516 537.768 Q450.516 520.269 456.627 511.102 Q462.785 501.889 474.405 501.889 Z" fill="#000000" fill-rule="nonzero" fill-opacity="1" /><path clip-path="url(#clip370)" d="M534.729 509.296 Q527.507 509.296 523.849 516.426 Q520.238 523.509 520.238 537.768 Q520.238 551.981 523.849 559.111 Q527.507 566.194 534.729 566.194 Q541.997 566.194 545.608 559.111 Q549.266 551.981 549.266 537.768 Q549.266 523.509 545.608 516.426 Q541.997 509.296 534.729 509.296 M534.729 501.889 Q546.349 501.889 552.46 511.102 Q558.618 520.269 558.618 537.768 Q558.618 555.222 552.46 564.435 Q546.349 573.602 534.729 573.602 Q523.108 573.602 516.951 564.435 Q510.84 555.222 510.84 537.768 Q510.84 520.269 516.951 511.102 Q523.108 501.889 534.729 501.889 Z" fill="#000000" fill-rule="nonzero" fill-opacity="1" /><path clip-path="url(#clip370)" d="M575.053 560.5 L584.821 560.5 L584.821 572.259 L575.053 572.259 L575.053 560.5 Z" fill="#000000" fill-rule="nonzero" fill-opacity="1" /><path clip-path="url(#clip370)" d="M625.191 509.296 Q617.969 509.296 614.312 516.426 Q610.701 523.509 610.701 537.768 Q610.701 551.981 614.312 559.111 Q617.969 566.194 625.191 566.194 Q632.46 566.194 636.071 559.111 Q639.728 551.981 639.728 537.768 Q639.728 523.509 636.071 516.426 Q632.46 509.296 625.191 509.296 M625.191 501.889 Q636.812 501.889 642.923 511.102 Q649.08 520.269 649.08 537.768 Q649.08 555.222 642.923 564.435 Q636.812 573.602 625.191 573.602 Q613.571 573.602 607.414 564.435 Q601.302 555.222 601.302 537.768 Q601.302 520.269 607.414 511.102 Q613.571 501.889 625.191 501.889 Z" fill="#000000" fill-rule="nonzero" fill-opacity="1" /><path clip-path="url(#clip370)" d="M415.239 230.425 Q408.942 230.425 405.239 234.731 Q401.581 239.036 401.581 246.536 Q401.581 253.99 405.239 258.342 Q408.942 262.647 415.239 262.647 Q421.535 262.647 425.192 258.342 Q428.896 253.99 428.896 246.536 Q428.896 239.036 425.192 234.731 Q421.535 230.425 415.239 230.425 M433.803 201.12 L433.803 209.638 Q430.285 207.972 426.674 207.092 Q423.109 206.212 419.59 206.212 Q410.331 206.212 405.424 212.462 Q400.563 218.712 399.868 231.351 Q402.6 227.323 406.72 225.194 Q410.841 223.018 415.794 223.018 Q426.211 223.018 432.229 229.36 Q438.294 235.657 438.294 246.536 Q438.294 257.184 431.998 263.619 Q425.702 270.055 415.239 270.055 Q403.248 270.055 396.905 260.888 Q390.563 251.675 390.563 234.221 Q390.563 217.833 398.341 208.111 Q406.118 198.342 419.22 198.342 Q422.739 198.342 426.303 199.037 Q429.914 199.731 433.803 201.12 Z" fill="#000000" fill-rule="nonzero" fill-opacity="1" /><path clip-path="url(#clip370)" d="M474.405 205.749 Q467.183 205.749 463.525 212.879 Q459.914 219.962 459.914 234.221 Q459.914 248.434 463.525 255.564 Q467.183 262.647 474.405 262.647 Q481.673 262.647 485.285 255.564 Q488.942 248.434 488.942 234.221 Q488.942 219.962 485.285 212.879 Q481.673 205.749 474.405 205.749 M474.405 198.342 Q486.025 198.342 492.136 207.555 Q498.294 216.722 498.294 234.221 Q498.294 251.675 492.136 260.888 Q486.025 270.055 474.405 270.055 Q462.785 270.055 456.627 260.888 Q450.516 251.675 450.516 234.221 Q450.516 216.722 456.627 207.555 Q462.785 198.342 474.405 198.342 Z" fill="#000000" fill-rule="nonzero" fill-opacity="1" /><path clip-path="url(#clip370)" d="M534.729 205.749 Q527.507 205.749 523.849 212.879 Q520.238 219.962 520.238 234.221 Q520.238 248.434 523.849 255.564 Q527.507 262.647 534.729 262.647 Q541.997 262.647 545.608 255.564 Q549.266 248.434 549.266 234.221 Q549.266 219.962 545.608 212.879 Q541.997 205.749 534.729 205.749 M534.729 198.342 Q546.349 198.342 552.46 207.555 Q558.618 216.722 558.618 234.221 Q558.618 251.675 552.46 260.888 Q546.349 270.055 534.729 270.055 Q523.108 270.055 516.951 260.888 Q510.84 251.675 510.84 234.221 Q510.84 216.722 516.951 207.555 Q523.108 198.342 534.729 198.342 Z" fill="#000000" fill-rule="nonzero" fill-opacity="1" /><path clip-path="url(#clip370)" d="M575.053 256.953 L584.821 256.953 L584.821 268.712 L575.053 268.712 L575.053 256.953 Z" fill="#000000" fill-rule="nonzero" fill-opacity="1" /><path clip-path="url(#clip370)" d="M625.191 205.749 Q617.969 205.749 614.312 212.879 Q610.701 219.962 610.701 234.221 Q610.701 248.434 614.312 255.564 Q617.969 262.647 625.191 262.647 Q632.46 262.647 636.071 255.564 Q639.728 248.434 639.728 234.221 Q639.728 219.962 636.071 212.879 Q632.46 205.749 625.191 205.749 M625.191 198.342 Q636.812 198.342 642.923 207.555 Q649.08 216.722 649.08 234.221 Q649.08 251.675 642.923 260.888 Q636.812 270.055 625.191 270.055 Q613.571 270.055 607.414 260.888 Q601.302 251.675 601.302 234.221 Q601.302 216.722 607.414 207.555 Q613.571 198.342 625.191 198.342 Z" fill="#000000" fill-rule="nonzero" fill-opacity="1" /><path clip-path="url(#clip370)" d="M255.501 1099.45 L266.45 1099.45 Q263.713 1104.42 262.376 1109.45 Q260.976 1114.41 260.976 1119.51 Q260.976 1130.9 268.233 1137.2 Q275.426 1143.51 288.476 1143.51 Q301.526 1143.51 308.782 1137.2 Q315.976 1130.9 315.976 1119.51 Q315.976 1114.41 314.639 1109.45 Q313.238 1104.42 310.501 1099.45 L321.323 1099.45 Q323.615 1104.36 324.76 1109.64 Q325.906 1114.86 325.906 1120.78 Q325.906 1136.88 315.785 1146.37 Q305.663 1155.85 288.476 1155.85 Q271.034 1155.85 261.04 1146.31 Q251.045 1136.69 251.045 1120.02 Q251.045 1114.6 252.191 1109.45 Q253.273 1104.29 255.501 1099.45 Z" fill="#000000" fill-rule="nonzero" fill-opacity="1" /><path clip-path="url(#clip370)" d="M260.976 1051.46 Q260.976 1060.88 268.36 1066.35 Q275.681 1071.83 288.476 1071.83 Q301.271 1071.83 308.655 1066.42 Q315.976 1060.94 315.976 1051.46 Q315.976 1042.1 308.591 1036.62 Q301.207 1031.15 288.476 1031.15 Q275.808 1031.15 268.424 1036.62 Q260.976 1042.1 260.976 1051.46 M251.045 1051.46 Q251.045 1036.18 260.976 1027.46 Q270.906 1018.74 288.476 1018.74 Q305.982 1018.74 315.976 1027.46 Q325.906 1036.18 325.906 1051.46 Q325.906 1066.8 315.976 1075.52 Q305.982 1084.18 288.476 1084.18 Q270.906 1084.18 260.976 1075.52 Q251.045 1066.8 251.045 1051.46 Z" fill="#000000" fill-rule="nonzero" fill-opacity="1" /><path clip-path="url(#clip370)" d="M281.028 940.057 L324.06 940.057 L324.06 951.77 L281.41 951.77 Q271.288 951.77 266.259 955.717 Q261.231 959.663 261.231 967.557 Q261.231 977.042 267.278 982.516 Q273.325 987.991 283.765 987.991 L324.06 987.991 L324.06 999.767 L252.764 999.767 L252.764 987.991 L263.841 987.991 Q257.411 983.789 254.228 978.124 Q251.045 972.395 251.045 964.947 Q251.045 952.661 258.684 946.359 Q266.259 940.057 281.028 940.057 Z" fill="#000000" fill-rule="nonzero" fill-opacity="1" /><path clip-path="url(#clip370)" d="M255.501 865.387 L266.45 865.387 Q263.713 870.353 262.376 875.381 Q260.976 880.347 260.976 885.439 Q260.976 896.834 268.233 903.136 Q275.426 909.438 288.476 909.438 Q301.526 909.438 308.782 903.136 Q315.976 896.834 315.976 885.439 Q315.976 880.347 314.639 875.381 Q313.238 870.353 310.501 865.387 L321.323 865.387 Q323.615 870.289 324.76 875.572 Q325.906 880.792 325.906 886.712 Q325.906 902.818 315.785 912.303 Q305.663 921.787 288.476 921.787 Q271.034 921.787 261.04 912.239 Q251.045 902.627 251.045 885.949 Q251.045 880.538 252.191 875.381 Q253.273 870.225 255.501 865.387 Z" fill="#000000" fill-rule="nonzero" fill-opacity="1" /><path clip-path="url(#clip370)" d="M307.891 843.362 L307.891 829.93 L324.06 829.93 L324.06 843.362 L307.891 843.362 Z" fill="#000000" fill-rule="nonzero" fill-opacity="1" /><path clip-path="url(#clip370)" d="M252.764 770.538 L252.764 758.125 L312.602 735.845 L252.764 713.565 L252.764 701.152 L324.06 727.888 L324.06 743.802 L252.764 770.538 Z" fill="#000000" fill-rule="nonzero" fill-opacity="1" /><path clip-path="url(#clip370)" d="M285.484 624 L291.213 624 L291.213 677.854 Q303.308 677.09 309.674 670.597 Q315.976 664.04 315.976 652.391 Q315.976 645.643 314.321 639.341 Q312.666 632.975 309.355 626.737 L320.432 626.737 Q323.105 633.039 324.506 639.659 Q325.906 646.28 325.906 653.091 Q325.906 670.151 315.976 680.145 Q306.045 690.076 289.112 690.076 Q271.607 690.076 261.358 680.654 Q251.045 671.17 251.045 655.128 Q251.045 640.742 260.339 632.402 Q269.57 624 285.484 624 M282.046 635.713 Q272.434 635.84 266.705 641.123 Q260.976 646.343 260.976 655.001 Q260.976 664.804 266.514 670.724 Q272.052 676.58 282.11 677.472 L282.046 635.713 Z" fill="#000000" fill-rule="nonzero" fill-opacity="1" /><path clip-path="url(#clip370)" d="M281.028 545.511 L324.06 545.511 L324.06 557.223 L281.41 557.223 Q271.288 557.223 266.259 561.17 Q261.231 565.117 261.231 573.01 Q261.231 582.495 267.278 587.97 Q273.325 593.444 283.765 593.444 L324.06 593.444 L324.06 605.221 L252.764 605.221 L252.764 593.444 L263.841 593.444 Q257.411 589.243 254.228 583.577 Q251.045 577.848 251.045 570.4 Q251.045 558.115 258.684 551.813 Q266.259 545.511 281.028 545.511 Z" fill="#000000" fill-rule="nonzero" fill-opacity="1" /><path clip-path="url(#clip370)" d="M232.521 510.563 L252.764 510.563 L252.764 486.437 L261.867 486.437 L261.867 510.563 L300.571 510.563 Q309.292 510.563 311.774 508.207 Q314.257 505.789 314.257 498.468 L314.257 486.437 L324.06 486.437 L324.06 498.468 Q324.06 512.027 319.031 517.183 Q313.939 522.339 300.571 522.339 L261.867 522.339 L261.867 530.933 L252.764 530.933 L252.764 522.339 L232.521 522.339 L232.521 510.563 Z" fill="#000000" fill-rule="nonzero" fill-opacity="1" /><path clip-path="url(#clip370)" d="M263.713 429.718 Q262.567 431.692 262.058 434.047 Q261.485 436.339 261.485 439.14 Q261.485 449.07 267.978 454.417 Q274.408 459.701 286.502 459.701 L324.06 459.701 L324.06 471.477 L252.764 471.477 L252.764 459.701 L263.841 459.701 Q257.348 456.009 254.228 450.089 Q251.045 444.168 251.045 435.702 Q251.045 434.493 251.236 433.028 Q251.364 431.564 251.682 429.782 L263.713 429.718 Z" fill="#000000" fill-rule="nonzero" fill-opacity="1" /><path clip-path="url(#clip370)" d="M252.764 417.433 L252.764 405.72 L324.06 405.72 L324.06 417.433 L252.764 417.433 M225.01 417.433 L225.01 405.72 L239.842 405.72 L239.842 417.433 L225.01 417.433 Z" fill="#000000" fill-rule="nonzero" fill-opacity="1" /><path clip-path="url(#clip370)" d="M255.501 329.904 L266.45 329.904 Q263.713 334.869 262.376 339.898 Q260.976 344.863 260.976 349.956 Q260.976 361.351 268.233 367.653 Q275.426 373.955 288.476 373.955 Q301.526 373.955 308.782 367.653 Q315.976 361.351 315.976 349.956 Q315.976 344.863 314.639 339.898 Q313.238 334.869 310.501 329.904 L321.323 329.904 Q323.615 334.806 324.76 340.089 Q325.906 345.309 325.906 351.229 Q325.906 367.334 315.785 376.819 Q305.663 386.304 288.476 386.304 Q271.034 386.304 261.04 376.756 Q251.045 367.143 251.045 350.465 Q251.045 345.054 252.191 339.898 Q253.273 334.742 255.501 329.904 Z" fill="#000000" fill-rule="nonzero" fill-opacity="1" /><path clip-path="url(#clip370)" d="M225.01 309.534 L225.01 297.821 L324.06 297.821 L324.06 309.534 L225.01 309.534 Z" fill="#000000" fill-rule="nonzero" fill-opacity="1" /><path clip-path="url(#clip370)" d="M285.484 212.329 L291.213 212.329 L291.213 266.183 Q303.308 265.419 309.674 258.926 Q315.976 252.37 315.976 240.721 Q315.976 233.973 314.321 227.671 Q312.666 221.305 309.355 215.067 L320.432 215.067 Q323.105 221.369 324.506 227.989 Q325.906 234.609 325.906 241.421 Q325.906 258.481 315.976 268.475 Q306.045 278.405 289.112 278.405 Q271.607 278.405 261.358 268.984 Q251.045 259.499 251.045 243.458 Q251.045 229.071 260.339 220.732 Q269.57 212.329 285.484 212.329 M282.046 224.042 Q272.434 224.17 266.705 229.453 Q260.976 234.673 260.976 243.33 Q260.976 253.134 266.514 259.054 Q272.052 264.91 282.11 265.801 L282.046 224.042 Z" fill="#000000" fill-rule="nonzero" fill-opacity="1" /><polyline clip-path="url(#clip372)" style="stroke:#008000; stroke-linecap:round; stroke-linejoin:round; stroke-width:8; stroke-opacity:1; fill:none" points="730.941,799.287 869.915,808.067 1008.89,914.777 1147.86,931.723 1286.84,947.214 1425.81,1041.99 1564.78,1078.12 1703.76,1147.69 1842.73,1186.26 1981.7,1207.65 2120.68,1221.63 2259.65,1240.32 "/>
<circle clip-path="url(#clip372)" cx="730.941" cy="799.287" r="14.4" fill="#008000" fill-rule="evenodd" fill-opacity="1" stroke="#000000" stroke-opacity="1" stroke-width="6.4"/>
<circle clip-path="url(#clip372)" cx="869.915" cy="808.067" r="14.4" fill="#008000" fill-rule="evenodd" fill-opacity="1" stroke="#000000" stroke-opacity="1" stroke-width="6.4"/>
<circle clip-path="url(#clip372)" cx="1008.89" cy="914.777" r="14.4" fill="#008000" fill-rule="evenodd" fill-opacity="1" stroke="#000000" stroke-opacity="1" stroke-width="6.4"/>
<circle clip-path="url(#clip372)" cx="1147.86" cy="931.723" r="14.4" fill="#008000" fill-rule="evenodd" fill-opacity="1" stroke="#000000" stroke-opacity="1" stroke-width="6.4"/>
<circle clip-path="url(#clip372)" cx="1286.84" cy="947.214" r="14.4" fill="#008000" fill-rule="evenodd" fill-opacity="1" stroke="#000000" stroke-opacity="1" stroke-width="6.4"/>
<circle clip-path="url(#clip372)" cx="1425.81" cy="1041.99" r="14.4" fill="#008000" fill-rule="evenodd" fill-opacity="1" stroke="#000000" stroke-opacity="1" stroke-width="6.4"/>
<circle clip-path="url(#clip372)" cx="1564.78" cy="1078.12" r="14.4" fill="#008000" fill-rule="evenodd" fill-opacity="1" stroke="#000000" stroke-opacity="1" stroke-width="6.4"/>
<circle clip-path="url(#clip372)" cx="1703.76" cy="1147.69" r="14.4" fill="#008000" fill-rule="evenodd" fill-opacity="1" stroke="#000000" stroke-opacity="1" stroke-width="6.4"/>
<circle clip-path="url(#clip372)" cx="1842.73" cy="1186.26" r="14.4" fill="#008000" fill-rule="evenodd" fill-opacity="1" stroke="#000000" stroke-opacity="1" stroke-width="6.4"/>
<circle clip-path="url(#clip372)" cx="1981.7" cy="1207.65" r="14.4" fill="#008000" fill-rule="evenodd" fill-opacity="1" stroke="#000000" stroke-opacity="1" stroke-width="6.4"/>
<circle clip-path="url(#clip372)" cx="2120.68" cy="1221.63" r="14.4" fill="#008000" fill-rule="evenodd" fill-opacity="1" stroke="#000000" stroke-opacity="1" stroke-width="6.4"/>
<circle clip-path="url(#clip372)" cx="2259.65" cy="1240.32" r="14.4" fill="#008000" fill-rule="evenodd" fill-opacity="1" stroke="#000000" stroke-opacity="1" stroke-width="6.4"/>
<polyline clip-path="url(#clip372)" style="stroke:#00008b; stroke-linecap:round; stroke-linejoin:round; stroke-width:8; stroke-opacity:1; fill:none" points="730.941,805.799 869.915,404.196 1008.89,403.731 1147.86,364.342 1286.84,406.649 1425.81,473.205 1564.78,501.859 1703.76,545.361 1842.73,624.164 1981.7,682.551 2120.68,756.272 2259.65,785.392 "/>
<path clip-path="url(#clip372)" d="M730.941 879.914 L869.915 556.188 L1008.89 633.823 L1147.86 631.091 L1286.84 710.815 L1425.81 843.339 L1564.78 869.108 L1703.76 978.124 L1842.73 1008.22 L1981.7 1051.24 L2120.68 1135.13 L2259.65 1166.87 L2259.65 526.312 L2120.68 417.463 L1981.7 395.491 L1842.73 307.02 L1703.76 262.246 L1564.78 260.789 L1425.81 200.452 L1286.84 168.866 L1147.86 127.862 L1008.89 187.67 L869.915 257.055 L730.941 743.614  Z" fill="#0000ff" fill-rule="evenodd" fill-opacity="0.1"/>
<polyline clip-path="url(#clip372)" style="stroke:#0000ff; stroke-linecap:round; stroke-linejoin:round; stroke-width:0; stroke-opacity:0.1; fill:none" points="730.941,879.914 869.915,556.188 1008.89,633.823 1147.86,631.091 1286.84,710.815 1425.81,843.339 1564.78,869.108 1703.76,978.124 1842.73,1008.22 1981.7,1051.24 2120.68,1135.13 2259.65,1166.87 "/>
</svg>
