<?xml version="1.0" encoding="utf-8"?>
<svg xmlns="http://www.w3.org/2000/svg" xmlns:xlink="http://www.w3.org/1999/xlink" width="600" height="400" viewBox="0 0 2400 1600">
<defs>
  <clipPath id="clip100">
    <rect x="0" y="0" width="2400" height="1600"/>
  </clipPath>
</defs>
<path clip-path="url(#clip100)" d="M0 1600 L2400 1600 L2400 0 L0 0  Z" fill="#ffffff" fill-rule="evenodd" fill-opacity="1"/>
<defs>
  <clipPath id="clip101">
    <rect x="480" y="0" width="1681" height="1600"/>
  </clipPath>
</defs>
<path clip-path="url(#clip100)" d="M673.506 1273.7 L2305.51 1273.7 L2305.51 94.4882 L673.506 94.4882  Z" fill="#ffffff" fill-rule="evenodd" fill-opacity="1"/>
<defs>
  <clipPath id="clip102">
    <rect x="673" y="94" width="1633" height="1180"/>
  </clipPath>
</defs>
<polyline clip-path="url(#clip102)" style="stroke:#000000; stroke-linecap:round; stroke-linejoin:round; stroke-width:4; stroke-opacity:0.1; fill:none" points="719.695,1273.7 719.695,94.4882 "/>
<polyline clip-path="url(#clip102)" style="stroke:#000000; stroke-linecap:round; stroke-linejoin:round; stroke-width:4; stroke-opacity:0.1; fill:none" points="956.561,1273.7 956.561,94.4882 "/>
<polyline clip-path="url(#clip102)" style="stroke:#000000; stroke-linecap:round; stroke-linejoin:round; stroke-width:4; stroke-opacity:0.1; fill:none" points="1193.43,1273.7 1193.43,94.4882 "/>
<polyline clip-path="url(#clip102)" style="stroke:#000000; stroke-linecap:round; stroke-linejoin:round; stroke-width:4; stroke-opacity:0.1; fill:none" points="1430.29,1273.7 1430.29,94.4882 "/>
<polyline clip-path="url(#clip102)" style="stroke:#000000; stroke-linecap:round; stroke-linejoin:round; stroke-width:4; stroke-opacity:0.1; fill:none" points="1667.16,1273.7 1667.16,94.4882 "/>
<polyline clip-path="url(#clip102)" style="stroke:#000000; stroke-linecap:round; stroke-linejoin:round; stroke-width:4; stroke-opacity:0.1; fill:none" points="1904.02,1273.7 1904.02,94.4882 "/>
<polyline clip-path="url(#clip102)" style="stroke:#000000; stroke-linecap:round; stroke-linejoin:round; stroke-width:4; stroke-opacity:0.1; fill:none" points="2140.89,1273.7 2140.89,94.4882 "/>
<polyline clip-path="url(#clip100)" style="stroke:#000000; stroke-linecap:round; stroke-linejoin:round; stroke-width:8; stroke-opacity:1; fill:none" points="673.506,1273.7 2305.51,1273.7 "/>
<polyline clip-path="url(#clip100)" style="stroke:#000000; stroke-linecap:round; stroke-linejoin:round; stroke-width:8; stroke-opacity:1; fill:none" points="719.695,1273.7 719.695,1254.8 "/>
<polyline clip-path="url(#clip100)" style="stroke:#000000; stroke-linecap:round; stroke-linejoin:round; stroke-width:8; stroke-opacity:1; fill:none" points="956.561,1273.7 956.561,1254.8 "/>
<polyline clip-path="url(#clip100)" style="stroke:#000000; stroke-linecap:round; stroke-linejoin:round; stroke-width:8; stroke-opacity:1; fill:none" points="1193.43,1273.7 1193.43,1254.8 "/>
<polyline clip-path="url(#clip100)" style="stroke:#000000; stroke-linecap:round; stroke-linejoin:round; stroke-width:8; stroke-opacity:1; fill:none" points="1430.29,1273.7 1430.29,1254.8 "/>
<polyline clip-path="url(#clip100)" style="stroke:#000000; stroke-linecap:round; stroke-linejoin:round; stroke-width:8; stroke-opacity:1; fill:none" points="1667.16,1273.7 1667.16,1254.8 "/>
<polyline clip-path="url(#clip100)" style="stroke:#000000; stroke-linecap:round; stroke-linejoin:round; stroke-width:8; stroke-opacity:1; fill:none" points="1904.02,1273.7 1904.02,1254.8 "/>
<polyline clip-path="url(#clip100)" style="stroke:#000000; stroke-linecap:round; stroke-linejoin:round; stroke-width:8; stroke-opacity:1; fill:none" points="2140.89,1273.7 2140.89,1254.8 "/>
<path clip-path="url(#clip100)" d="M674.464 1316.33 Q667.241 1316.33 663.584 1323.46 Q659.973 1330.55 659.973 1344.81 Q659.973 1359.02 663.584 1366.15 Q667.241 1373.23 674.464 1373.23 Q681.732 1373.23 685.343 1366.15 Q689.001 1359.02 689.001 1344.81 Q689.001 1330.55 685.343 1323.46 Q681.732 1316.33 674.464 1316.33 M674.464 1308.93 Q686.084 1308.93 692.195 1318.14 Q698.352 1327.31 698.352 1344.81 Q698.352 1362.26 692.195 1371.47 Q686.084 1380.64 674.464 1380.64 Q662.843 1380.64 656.686 1371.47 Q650.575 1362.26 650.575 1344.81 Q650.575 1327.31 656.686 1318.14 Q662.843 1308.93 674.464 1308.93 Z" fill="#000000" fill-rule="nonzero" fill-opacity="1" /><path clip-path="url(#clip100)" d="M714.787 1367.54 L724.556 1367.54 L724.556 1379.3 L714.787 1379.3 L714.787 1367.54 Z" fill="#000000" fill-rule="nonzero" fill-opacity="1" /><path clip-path="url(#clip100)" d="M764.926 1316.33 Q757.704 1316.33 754.046 1323.46 Q750.435 1330.55 750.435 1344.81 Q750.435 1359.02 754.046 1366.15 Q757.704 1373.23 764.926 1373.23 Q772.195 1373.23 775.806 1366.15 Q779.463 1359.02 779.463 1344.81 Q779.463 1330.55 775.806 1323.46 Q772.195 1316.33 764.926 1316.33 M764.926 1308.93 Q776.546 1308.93 782.657 1318.14 Q788.815 1327.31 788.815 1344.81 Q788.815 1362.26 782.657 1371.47 Q776.546 1380.64 764.926 1380.64 Q753.306 1380.64 747.148 1371.47 Q741.037 1362.26 741.037 1344.81 Q741.037 1327.31 747.148 1318.14 Q753.306 1308.93 764.926 1308.93 Z" fill="#000000" fill-rule="nonzero" fill-opacity="1" /><path clip-path="url(#clip100)" d="M912.927 1316.33 Q905.704 1316.33 902.047 1323.46 Q898.436 1330.55 898.436 1344.81 Q898.436 1359.02 902.047 1366.15 Q905.704 1373.23 912.927 1373.23 Q920.195 1373.23 923.806 1366.15 Q927.464 1359.02 927.464 1344.81 Q927.464 1330.55 923.806 1323.46 Q920.195 1316.33 912.927 1316.33 M912.927 1308.93 Q924.547 1308.93 930.658 1318.14 Q936.815 1327.31 936.815 1344.81 Q936.815 1362.26 930.658 1371.47 Q924.547 1380.64 912.927 1380.64 Q901.306 1380.64 895.149 1371.47 Q889.038 1362.26 889.038 1344.81 Q889.038 1327.31 895.149 1318.14 Q901.306 1308.93 912.927 1308.93 Z" fill="#000000" fill-rule="nonzero" fill-opacity="1" /><path clip-path="url(#clip100)" d="M953.251 1367.54 L963.019 1367.54 L963.019 1379.3 L953.251 1379.3 L953.251 1367.54 Z" fill="#000000" fill-rule="nonzero" fill-opacity="1" /><path clip-path="url(#clip100)" d="M991.445 1371.43 L1024.08 1371.43 L1024.08 1379.3 L980.195 1379.3 L980.195 1371.43 Q985.519 1365.92 994.685 1356.66 Q1003.9 1347.35 1006.26 1344.67 Q1010.75 1339.62 1012.51 1336.15 Q1014.32 1332.63 1014.32 1329.25 Q1014.32 1323.74 1010.43 1320.27 Q1006.58 1316.8 1000.38 1316.8 Q995.982 1316.8 991.074 1318.32 Q986.213 1319.85 980.658 1322.95 L980.658 1313.51 Q986.306 1311.24 991.213 1310.08 Q996.121 1308.93 1000.19 1308.93 Q1010.94 1308.93 1017.32 1314.3 Q1023.71 1319.67 1023.71 1328.65 Q1023.71 1332.91 1022.09 1336.75 Q1020.52 1340.55 1016.31 1345.73 Q1015.15 1347.07 1008.94 1353.51 Q1002.74 1359.9 991.445 1371.43 Z" fill="#000000" fill-rule="nonzero" fill-opacity="1" /><path clip-path="url(#clip100)" d="M1147.71 1316.33 Q1140.49 1316.33 1136.83 1323.46 Q1133.22 1330.55 1133.22 1344.81 Q1133.22 1359.02 1136.83 1366.15 Q1140.49 1373.23 1147.71 1373.23 Q1154.98 1373.23 1158.59 1366.15 Q1162.25 1359.02 1162.25 1344.81 Q1162.25 1330.55 1158.59 1323.46 Q1154.98 1316.33 1147.71 1316.33 M1147.71 1308.93 Q1159.33 1308.93 1165.44 1318.14 Q1171.6 1327.31 1171.6 1344.81 Q1171.6 1362.26 1165.44 1371.47 Q1159.33 1380.64 1147.71 1380.64 Q1136.09 1380.64 1129.93 1371.47 Q1123.82 1362.26 1123.82 1344.81 Q1123.82 1327.31 1129.93 1318.14 Q1136.09 1308.93 1147.71 1308.93 Z" fill="#000000" fill-rule="nonzero" fill-opacity="1" /><path clip-path="url(#clip100)" d="M1188.03 1367.54 L1197.8 1367.54 L1197.8 1379.3 L1188.03 1379.3 L1188.03 1367.54 Z" fill="#000000" fill-rule="nonzero" fill-opacity="1" /><path clip-path="url(#clip100)" d="M1243.87 1318.32 L1220.26 1355.22 L1243.87 1355.22 L1243.87 1318.32 M1241.41 1310.18 L1253.17 1310.18 L1253.17 1355.22 L1263.03 1355.22 L1263.03 1363 L1253.17 1363 L1253.17 1379.3 L1243.87 1379.3 L1243.87 1363 L1212.66 1363 L1212.66 1353.97 L1241.41 1310.18 Z" fill="#000000" fill-rule="nonzero" fill-opacity="1" /><path clip-path="url(#clip100)" d="M1384.9 1316.33 Q1377.68 1316.33 1374.02 1323.46 Q1370.41 1330.55 1370.41 1344.81 Q1370.41 1359.02 1374.02 1366.15 Q1377.68 1373.23 1384.9 1373.23 Q1392.17 1373.23 1395.78 1366.15 Q1399.44 1359.02 1399.44 1344.81 Q1399.44 1330.55 1395.78 1323.46 Q1392.17 1316.33 1384.9 1316.33 M1384.9 1308.93 Q1396.52 1308.93 1402.63 1318.14 Q1408.79 1327.31 1408.79 1344.81 Q1408.79 1362.26 1402.63 1371.47 Q1396.52 1380.64 1384.9 1380.64 Q1373.28 1380.64 1367.12 1371.47 Q1361.01 1362.26 1361.01 1344.81 Q1361.01 1327.31 1367.12 1318.14 Q1373.28 1308.93 1384.9 1308.93 Z" fill="#000000" fill-rule="nonzero" fill-opacity="1" /><path clip-path="url(#clip100)" d="M1425.22 1367.54 L1434.99 1367.54 L1434.99 1379.3 L1425.22 1379.3 L1425.22 1367.54 Z" fill="#000000" fill-rule="nonzero" fill-opacity="1" /><path clip-path="url(#clip100)" d="M1476.52 1341.01 Q1470.22 1341.01 1466.52 1345.31 Q1462.86 1349.62 1462.86 1357.12 Q1462.86 1364.57 1466.52 1368.93 Q1470.22 1373.23 1476.52 1373.23 Q1482.82 1373.23 1486.47 1368.93 Q1490.18 1364.57 1490.18 1357.12 Q1490.18 1349.62 1486.47 1345.31 Q1482.82 1341.01 1476.52 1341.01 M1495.08 1311.7 L1495.08 1320.22 Q1491.57 1318.56 1487.95 1317.68 Q1484.39 1316.8 1480.87 1316.8 Q1471.61 1316.8 1466.7 1323.05 Q1461.84 1329.3 1461.15 1341.93 Q1463.88 1337.91 1468 1335.78 Q1472.12 1333.6 1477.07 1333.6 Q1487.49 1333.6 1493.51 1339.94 Q1499.57 1346.24 1499.57 1357.12 Q1499.57 1367.77 1493.28 1374.2 Q1486.98 1380.64 1476.52 1380.64 Q1464.53 1380.64 1458.19 1371.47 Q1451.84 1362.26 1451.84 1344.81 Q1451.84 1328.42 1459.62 1318.69 Q1467.4 1308.93 1480.5 1308.93 Q1484.02 1308.93 1487.58 1309.62 Q1491.19 1310.31 1495.08 1311.7 Z" fill="#000000" fill-rule="nonzero" fill-opacity="1" /><path clip-path="url(#clip100)" d="M1622.02 1316.33 Q1614.8 1316.33 1611.14 1323.46 Q1607.53 1330.55 1607.53 1344.81 Q1607.53 1359.02 1611.14 1366.15 Q1614.8 1373.23 1622.02 1373.23 Q1629.29 1373.23 1632.9 1366.15 Q1636.56 1359.02 1636.56 1344.81 Q1636.56 1330.55 1632.9 1323.46 Q1629.29 1316.33 1622.02 1316.33 M1622.02 1308.93 Q1633.64 1308.93 1639.75 1318.14 Q1645.91 1327.31 1645.91 1344.81 Q1645.91 1362.26 1639.75 1371.47 Q1633.64 1380.64 1622.02 1380.64 Q1610.4 1380.64 1604.24 1371.47 Q1598.13 1362.26 1598.13 1344.81 Q1598.13 1327.31 1604.24 1318.14 Q1610.4 1308.93 1622.02 1308.93 Z" fill="#000000" fill-rule="nonzero" fill-opacity="1" /><path clip-path="url(#clip100)" d="M1662.34 1367.54 L1672.11 1367.54 L1672.11 1379.3 L1662.34 1379.3 L1662.34 1367.54 Z" fill="#000000" fill-rule="nonzero" fill-opacity="1" /><path clip-path="url(#clip100)" d="M1712.48 1346.47 Q1705.82 1346.47 1701.97 1350.04 Q1698.18 1353.6 1698.18 1359.85 Q1698.18 1366.1 1701.97 1369.67 Q1705.82 1373.23 1712.48 1373.23 Q1719.15 1373.23 1722.99 1369.67 Q1726.83 1366.06 1726.83 1359.85 Q1726.83 1353.6 1722.99 1350.04 Q1719.2 1346.47 1712.48 1346.47 M1703.13 1342.49 Q1697.11 1341.01 1693.73 1336.89 Q1690.4 1332.77 1690.4 1326.84 Q1690.4 1318.56 1696.28 1313.74 Q1702.2 1308.93 1712.48 1308.93 Q1722.81 1308.93 1728.69 1313.74 Q1734.57 1318.56 1734.57 1326.84 Q1734.57 1332.77 1731.19 1336.89 Q1727.85 1341.01 1721.88 1342.49 Q1728.64 1344.06 1732.39 1348.65 Q1736.19 1353.23 1736.19 1359.85 Q1736.19 1369.9 1730.03 1375.27 Q1723.92 1380.64 1712.48 1380.64 Q1701.05 1380.64 1694.89 1375.27 Q1688.78 1369.9 1688.78 1359.85 Q1688.78 1353.23 1692.57 1348.65 Q1696.37 1344.06 1703.13 1342.49 M1699.7 1327.72 Q1699.7 1333.09 1703.04 1336.1 Q1706.42 1339.11 1712.48 1339.11 Q1718.5 1339.11 1721.88 1336.1 Q1725.31 1333.09 1725.31 1327.72 Q1725.31 1322.35 1721.88 1319.34 Q1718.5 1316.33 1712.48 1316.33 Q1706.42 1316.33 1703.04 1319.34 Q1699.7 1322.35 1699.7 1327.72 Z" fill="#000000" fill-rule="nonzero" fill-opacity="1" /><path clip-path="url(#clip100)" d="M1838.33 1371.43 L1853.61 1371.43 L1853.61 1318.69 L1836.99 1322.03 L1836.99 1313.51 L1853.52 1310.18 L1862.87 1310.18 L1862.87 1371.43 L1878.14 1371.43 L1878.14 1379.3 L1838.33 1379.3 L1838.33 1371.43 Z" fill="#000000" fill-rule="nonzero" fill-opacity="1" /><path clip-path="url(#clip100)" d="M1897.03 1367.54 L1906.8 1367.54 L1906.8 1379.3 L1897.03 1379.3 L1897.03 1367.54 Z" fill="#000000" fill-rule="nonzero" fill-opacity="1" /><path clip-path="url(#clip100)" d="M1947.17 1316.33 Q1939.95 1316.33 1936.29 1323.46 Q1932.68 1330.55 1932.68 1344.81 Q1932.68 1359.02 1936.29 1366.15 Q1939.95 1373.23 1947.17 1373.23 Q1954.44 1373.23 1958.05 1366.15 Q1961.71 1359.02 1961.71 1344.81 Q1961.71 1330.55 1958.05 1323.46 Q1954.44 1316.33 1947.17 1316.33 M1947.17 1308.93 Q1958.79 1308.93 1964.9 1318.14 Q1971.06 1327.31 1971.06 1344.81 Q1971.06 1362.26 1964.9 1371.47 Q1958.79 1380.64 1947.17 1380.64 Q1935.55 1380.64 1929.39 1371.47 Q1923.28 1362.26 1923.28 1344.81 Q1923.28 1327.31 1929.39 1318.14 Q1935.55 1308.93 1947.17 1308.93 Z" fill="#000000" fill-rule="nonzero" fill-opacity="1" /><path clip-path="url(#clip100)" d="M2076.79 1371.43 L2092.07 1371.43 L2092.07 1318.69 L2075.45 1322.03 L2075.45 1313.51 L2091.98 1310.18 L2101.33 1310.18 L2101.33 1371.43 L2116.61 1371.43 L2116.61 1379.3 L2076.79 1379.3 L2076.79 1371.43 Z" fill="#000000" fill-rule="nonzero" fill-opacity="1" /><path clip-path="url(#clip100)" d="M2135.5 1367.54 L2145.27 1367.54 L2145.27 1379.3 L2135.5 1379.3 L2135.5 1367.54 Z" fill="#000000" fill-rule="nonzero" fill-opacity="1" /><path clip-path="url(#clip100)" d="M2173.69 1371.43 L2206.33 1371.43 L2206.33 1379.3 L2162.44 1379.3 L2162.44 1371.43 Q2167.76 1365.92 2176.93 1356.66 Q2186.14 1347.35 2188.51 1344.67 Q2193 1339.62 2194.76 1336.15 Q2196.56 1332.63 2196.56 1329.25 Q2196.56 1323.74 2192.67 1320.27 Q2188.83 1316.8 2182.63 1316.8 Q2178.23 1316.8 2173.32 1318.32 Q2168.46 1319.85 2162.9 1322.95 L2162.9 1313.51 Q2168.55 1311.24 2173.46 1310.08 Q2178.37 1308.93 2182.44 1308.93 Q2193.18 1308.93 2199.57 1314.3 Q2205.96 1319.67 2205.96 1328.65 Q2205.96 1332.91 2204.34 1336.75 Q2202.76 1340.55 2198.55 1345.73 Q2197.39 1347.07 2191.19 1353.51 Q2184.99 1359.9 2173.69 1371.43 Z" fill="#000000" fill-rule="nonzero" fill-opacity="1" /><path clip-path="url(#clip100)" d="M1375.05 1484.39 L1375.05 1527.42 L1363.34 1527.42 L1363.34 1484.77 Q1363.34 1474.65 1359.39 1469.62 Q1355.45 1464.59 1347.55 1464.59 Q1338.07 1464.59 1332.59 1470.64 Q1327.12 1476.69 1327.12 1487.13 L1327.12 1527.42 L1315.34 1527.42 L1315.34 1428.37 L1327.12 1428.37 L1327.12 1467.2 Q1331.32 1460.77 1336.99 1457.59 Q1342.72 1454.41 1350.16 1454.41 Q1362.45 1454.41 1368.75 1462.05 Q1375.05 1469.62 1375.05 1484.39 Z" fill="#000000" fill-rule="nonzero" fill-opacity="1" /><path clip-path="url(#clip100)" d="M1426.04 1464.34 Q1416.62 1464.34 1411.15 1471.72 Q1405.67 1479.04 1405.67 1491.84 Q1405.67 1504.63 1411.08 1512.02 Q1416.56 1519.34 1426.04 1519.34 Q1435.4 1519.34 1440.87 1511.96 Q1446.35 1504.57 1446.35 1491.84 Q1446.35 1479.17 1440.87 1471.79 Q1435.4 1464.34 1426.04 1464.34 M1426.04 1454.41 Q1441.32 1454.41 1450.04 1464.34 Q1458.76 1474.27 1458.76 1491.84 Q1458.76 1509.35 1450.04 1519.34 Q1441.32 1529.27 1426.04 1529.27 Q1410.7 1529.27 1401.98 1519.34 Q1393.32 1509.35 1393.32 1491.84 Q1393.32 1474.27 1401.98 1464.34 Q1410.7 1454.41 1426.04 1454.41 Z" fill="#000000" fill-rule="nonzero" fill-opacity="1" /><path clip-path="url(#clip100)" d="M1476.97 1499.29 L1476.97 1456.13 L1488.68 1456.13 L1488.68 1498.84 Q1488.68 1508.96 1492.63 1514.06 Q1496.57 1519.08 1504.47 1519.08 Q1513.95 1519.08 1519.43 1513.04 Q1524.97 1506.99 1524.97 1496.55 L1524.97 1456.13 L1536.68 1456.13 L1536.68 1527.42 L1524.97 1527.42 L1524.97 1516.47 Q1520.7 1522.97 1515.04 1526.15 Q1509.43 1529.27 1501.99 1529.27 Q1489.7 1529.27 1483.33 1521.63 Q1476.97 1513.99 1476.97 1499.29 M1506.44 1454.41 L1506.44 1454.41 Z" fill="#000000" fill-rule="nonzero" fill-opacity="1" /><path clip-path="url(#clip100)" d="M1602.12 1467.08 Q1600.14 1465.93 1597.79 1465.42 Q1595.5 1464.85 1592.7 1464.85 Q1582.77 1464.85 1577.42 1471.34 Q1572.14 1477.77 1572.14 1489.87 L1572.14 1527.42 L1560.36 1527.42 L1560.36 1456.13 L1572.14 1456.13 L1572.14 1467.2 Q1575.83 1460.71 1581.75 1457.59 Q1587.67 1454.41 1596.13 1454.41 Q1597.34 1454.41 1598.81 1454.6 Q1600.27 1454.73 1602.05 1455.05 L1602.12 1467.08 Z" fill="#000000" fill-rule="nonzero" fill-opacity="1" /><path clip-path="url(#clip100)" d="M1659.86 1458.23 L1659.86 1469.3 Q1654.89 1466.76 1649.54 1465.49 Q1644.2 1464.21 1638.47 1464.21 Q1629.75 1464.21 1625.35 1466.89 Q1621.02 1469.56 1621.02 1474.91 Q1621.02 1478.98 1624.14 1481.34 Q1627.26 1483.63 1636.68 1485.73 L1640.69 1486.62 Q1653.17 1489.29 1658.39 1494.19 Q1663.67 1499.03 1663.67 1507.75 Q1663.67 1517.68 1655.78 1523.48 Q1647.95 1529.27 1634.2 1529.27 Q1628.47 1529.27 1622.23 1528.12 Q1616.06 1527.04 1609.18 1524.81 L1609.18 1512.72 Q1615.68 1516.09 1621.98 1517.81 Q1628.28 1519.47 1634.46 1519.47 Q1642.73 1519.47 1647.19 1516.67 Q1651.64 1513.8 1651.64 1508.64 Q1651.64 1503.87 1648.4 1501.32 Q1645.21 1498.78 1634.33 1496.42 L1630.25 1495.47 Q1619.37 1493.18 1614.53 1488.47 Q1609.69 1483.69 1609.69 1475.42 Q1609.69 1465.36 1616.82 1459.88 Q1623.95 1454.41 1637.07 1454.41 Q1643.56 1454.41 1649.29 1455.36 Q1655.02 1456.32 1659.86 1458.23 Z" fill="#000000" fill-rule="nonzero" fill-opacity="1" /><polyline clip-path="url(#clip102)" style="stroke:#000000; stroke-linecap:round; stroke-linejoin:round; stroke-width:4; stroke-opacity:0.1; fill:none" points="673.506,1086.47 2305.51,1086.47 "/>
<polyline clip-path="url(#clip102)" style="stroke:#000000; stroke-linecap:round; stroke-linejoin:round; stroke-width:4; stroke-opacity:0.1; fill:none" points="673.506,868.871 2305.51,868.871 "/>
<polyline clip-path="url(#clip102)" style="stroke:#000000; stroke-linecap:round; stroke-linejoin:round; stroke-width:4; stroke-opacity:0.1; fill:none" points="673.506,651.274 2305.51,651.274 "/>
<polyline clip-path="url(#clip102)" style="stroke:#000000; stroke-linecap:round; stroke-linejoin:round; stroke-width:4; stroke-opacity:0.1; fill:none" points="673.506,433.676 2305.51,433.676 "/>
<polyline clip-path="url(#clip102)" style="stroke:#000000; stroke-linecap:round; stroke-linejoin:round; stroke-width:4; stroke-opacity:0.1; fill:none" points="673.506,216.078 2305.51,216.078 "/>
<polyline clip-path="url(#clip100)" style="stroke:#000000; stroke-linecap:round; stroke-linejoin:round; stroke-width:8; stroke-opacity:1; fill:none" points="673.506,1273.7 673.506,94.4882 "/>
<polyline clip-path="url(#clip100)" style="stroke:#000000; stroke-linecap:round; stroke-linejoin:round; stroke-width:8; stroke-opacity:1; fill:none" points="673.506,1086.47 692.404,1086.47 "/>
<polyline clip-path="url(#clip100)" style="stroke:#000000; stroke-linecap:round; stroke-linejoin:round; stroke-width:8; stroke-opacity:1; fill:none" points="673.506,868.871 692.404,868.871 "/>
<polyline clip-path="url(#clip100)" style="stroke:#000000; stroke-linecap:round; stroke-linejoin:round; stroke-width:8; stroke-opacity:1; fill:none" points="673.506,651.274 692.404,651.274 "/>
<polyline clip-path="url(#clip100)" style="stroke:#000000; stroke-linecap:round; stroke-linejoin:round; stroke-width:8; stroke-opacity:1; fill:none" points="673.506,433.676 692.404,433.676 "/>
<polyline clip-path="url(#clip100)" style="stroke:#000000; stroke-linecap:round; stroke-linejoin:round; stroke-width:8; stroke-opacity:1; fill:none" points="673.506,216.078 692.404,216.078 "/>
<path clip-path="url(#clip100)" d="M384.128 1113.16 L399.405 1113.16 L399.405 1060.43 L382.785 1063.76 L382.785 1055.24 L399.313 1051.91 L408.665 1051.91 L408.665 1113.16 L423.942 1113.16 L423.942 1121.03 L384.128 1121.03 L384.128 1113.16 Z" fill="#000000" fill-rule="nonzero" fill-opacity="1" /><path clip-path="url(#clip100)" d="M471.164 1083.76 Q477.877 1085.2 481.627 1089.73 Q485.423 1094.27 485.423 1100.94 Q485.423 1111.17 478.386 1116.77 Q471.349 1122.37 458.387 1122.37 Q454.035 1122.37 449.405 1121.49 Q444.822 1120.66 439.914 1118.95 L439.914 1109.92 Q443.803 1112.19 448.433 1113.34 Q453.063 1114.5 458.109 1114.5 Q466.905 1114.5 471.488 1111.03 Q476.118 1107.56 476.118 1100.94 Q476.118 1094.83 471.812 1091.4 Q467.553 1087.93 459.914 1087.93 L451.859 1087.93 L451.859 1080.24 L460.285 1080.24 Q467.183 1080.24 470.84 1077.51 Q474.498 1074.73 474.498 1069.55 Q474.498 1064.22 470.701 1061.4 Q466.951 1058.53 459.914 1058.53 Q456.072 1058.53 451.674 1059.36 Q447.276 1060.2 441.998 1061.96 L441.998 1053.62 Q447.322 1052.14 451.951 1051.4 Q456.627 1050.66 460.748 1050.66 Q471.396 1050.66 477.599 1055.52 Q483.803 1060.34 483.803 1068.58 Q483.803 1074.32 480.516 1078.3 Q477.229 1082.23 471.164 1083.76 Z" fill="#000000" fill-rule="nonzero" fill-opacity="1" /><path clip-path="url(#clip100)" d="M523.155 1058.07 Q515.933 1058.07 512.275 1065.2 Q508.664 1072.28 508.664 1086.54 Q508.664 1100.75 512.275 1107.88 Q515.933 1114.96 523.155 1114.96 Q530.423 1114.96 534.034 1107.88 Q537.692 1100.75 537.692 1086.54 Q537.692 1072.28 534.034 1065.2 Q530.423 1058.07 523.155 1058.07 M523.155 1050.66 Q534.775 1050.66 540.886 1059.87 Q547.043 1069.04 547.043 1086.54 Q547.043 1103.99 540.886 1113.21 Q534.775 1122.37 523.155 1122.37 Q511.534 1122.37 505.377 1113.21 Q499.266 1103.99 499.266 1086.54 Q499.266 1069.04 505.377 1059.87 Q511.534 1050.66 523.155 1050.66 Z" fill="#000000" fill-rule="nonzero" fill-opacity="1" /><path clip-path="url(#clip100)" d="M563.479 1109.27 L573.247 1109.27 L573.247 1121.03 L563.479 1121.03 L563.479 1109.27 Z" fill="#000000" fill-rule="nonzero" fill-opacity="1" /><path clip-path="url(#clip100)" d="M613.617 1058.07 Q606.395 1058.07 602.738 1065.2 Q599.127 1072.28 599.127 1086.54 Q599.127 1100.75 602.738 1107.88 Q606.395 1114.96 613.617 1114.96 Q620.886 1114.96 624.497 1107.88 Q628.154 1100.75 628.154 1086.54 Q628.154 1072.28 624.497 1065.2 Q620.886 1058.07 613.617 1058.07 M613.617 1050.66 Q625.238 1050.66 631.349 1059.87 Q637.506 1069.04 637.506 1086.54 Q637.506 1103.99 631.349 1113.21 Q625.238 1122.37 613.617 1122.37 Q601.997 1122.37 595.84 1113.21 Q589.728 1103.99 589.728 1086.54 Q589.728 1069.04 595.84 1059.87 Q601.997 1050.66 613.617 1050.66 Z" fill="#000000" fill-rule="nonzero" fill-opacity="1" /><path clip-path="url(#clip100)" d="M384.128 895.561 L399.405 895.561 L399.405 842.83 L382.785 846.163 L382.785 837.645 L399.313 834.311 L408.665 834.311 L408.665 895.561 L423.942 895.561 L423.942 903.431 L384.128 903.431 L384.128 895.561 Z" fill="#000000" fill-rule="nonzero" fill-opacity="1" /><path clip-path="url(#clip100)" d="M468.525 842.46 L444.914 879.357 L468.525 879.357 L468.525 842.46 M466.072 834.311 L477.831 834.311 L477.831 879.357 L487.692 879.357 L487.692 887.135 L477.831 887.135 L477.831 903.431 L468.525 903.431 L468.525 887.135 L437.322 887.135 L437.322 878.108 L466.072 834.311 Z" fill="#000000" fill-rule="nonzero" fill-opacity="1" /><path clip-path="url(#clip100)" d="M523.155 840.469 Q515.933 840.469 512.275 847.598 Q508.664 854.682 508.664 868.941 Q508.664 883.154 512.275 890.283 Q515.933 897.367 523.155 897.367 Q530.423 897.367 534.034 890.283 Q537.692 883.154 537.692 868.941 Q537.692 854.682 534.034 847.598 Q530.423 840.469 523.155 840.469 M523.155 833.061 Q534.775 833.061 540.886 842.274 Q547.043 851.441 547.043 868.941 Q547.043 886.394 540.886 895.607 Q534.775 904.774 523.155 904.774 Q511.534 904.774 505.377 895.607 Q499.266 886.394 499.266 868.941 Q499.266 851.441 505.377 842.274 Q511.534 833.061 523.155 833.061 Z" fill="#000000" fill-rule="nonzero" fill-opacity="1" /><path clip-path="url(#clip100)" d="M563.479 891.672 L573.247 891.672 L573.247 903.431 L563.479 903.431 L563.479 891.672 Z" fill="#000000" fill-rule="nonzero" fill-opacity="1" /><path clip-path="url(#clip100)" d="M613.617 840.469 Q606.395 840.469 602.738 847.598 Q599.127 854.682 599.127 868.941 Q599.127 883.154 602.738 890.283 Q606.395 897.367 613.617 897.367 Q620.886 897.367 624.497 890.283 Q628.154 883.154 628.154 868.941 Q628.154 854.682 624.497 847.598 Q620.886 840.469 613.617 840.469 M613.617 833.061 Q625.238 833.061 631.349 842.274 Q637.506 851.441 637.506 868.941 Q637.506 886.394 631.349 895.607 Q625.238 904.774 613.617 904.774 Q601.997 904.774 595.84 895.607 Q589.728 886.394 589.728 868.941 Q589.728 851.441 595.84 842.274 Q601.997 833.061 613.617 833.061 Z" fill="#000000" fill-rule="nonzero" fill-opacity="1" /><path clip-path="url(#clip100)" d="M384.128 677.963 L399.405 677.963 L399.405 625.232 L382.785 628.565 L382.785 620.047 L399.313 616.714 L408.665 616.714 L408.665 677.963 L423.942 677.963 L423.942 685.834 L384.128 685.834 L384.128 677.963 Z" fill="#000000" fill-rule="nonzero" fill-opacity="1" /><path clip-path="url(#clip100)" d="M442.924 616.714 L479.636 616.714 L479.636 624.584 L451.488 624.584 L451.488 641.528 Q453.525 640.834 455.562 640.51 Q457.6 640.139 459.637 640.139 Q471.211 640.139 477.97 646.482 Q484.729 652.825 484.729 663.658 Q484.729 674.815 477.785 681.019 Q470.84 687.176 458.201 687.176 Q453.85 687.176 449.313 686.435 Q444.822 685.695 440.007 684.213 L440.007 674.815 Q444.174 677.084 448.618 678.195 Q453.063 679.306 458.016 679.306 Q466.025 679.306 470.701 675.093 Q475.377 670.88 475.377 663.658 Q475.377 656.436 470.701 652.223 Q466.025 648.01 458.016 648.01 Q454.266 648.01 450.516 648.843 Q446.813 649.676 442.924 651.436 L442.924 616.714 Z" fill="#000000" fill-rule="nonzero" fill-opacity="1" /><path clip-path="url(#clip100)" d="M523.155 622.871 Q515.933 622.871 512.275 630.001 Q508.664 637.084 508.664 651.343 Q508.664 665.556 512.275 672.686 Q515.933 679.769 523.155 679.769 Q530.423 679.769 534.034 672.686 Q537.692 665.556 537.692 651.343 Q537.692 637.084 534.034 630.001 Q530.423 622.871 523.155 622.871 M523.155 615.464 Q534.775 615.464 540.886 624.677 Q547.043 633.843 547.043 651.343 Q547.043 668.797 540.886 678.01 Q534.775 687.176 523.155 687.176 Q511.534 687.176 505.377 678.01 Q499.266 668.797 499.266 651.343 Q499.266 633.843 505.377 624.677 Q511.534 615.464 523.155 615.464 Z" fill="#000000" fill-rule="nonzero" fill-opacity="1" /><path clip-path="url(#clip100)" d="M563.479 674.074 L573.247 674.074 L573.247 685.834 L563.479 685.834 L563.479 674.074 Z" fill="#000000" fill-rule="nonzero" fill-opacity="1" /><path clip-path="url(#clip100)" d="M613.617 622.871 Q606.395 622.871 602.738 630.001 Q599.127 637.084 599.127 651.343 Q599.127 665.556 602.738 672.686 Q606.395 679.769 613.617 679.769 Q620.886 679.769 624.497 672.686 Q628.154 665.556 628.154 651.343 Q628.154 637.084 624.497 630.001 Q620.886 622.871 613.617 622.871 M613.617 615.464 Q625.238 615.464 631.349 624.677 Q637.506 633.843 637.506 651.343 Q637.506 668.797 631.349 678.01 Q625.238 687.176 613.617 687.176 Q601.997 687.176 595.84 678.01 Q589.728 668.797 589.728 651.343 Q589.728 633.843 595.84 624.677 Q601.997 615.464 613.617 615.464 Z" fill="#000000" fill-rule="nonzero" fill-opacity="1" /><path clip-path="url(#clip100)" d="M384.128 460.366 L399.405 460.366 L399.405 407.634 L382.785 410.968 L382.785 402.449 L399.313 399.116 L408.665 399.116 L408.665 460.366 L423.942 460.366 L423.942 468.236 L384.128 468.236 L384.128 460.366 Z" fill="#000000" fill-rule="nonzero" fill-opacity="1" /><path clip-path="url(#clip100)" d="M463.988 429.949 Q457.692 429.949 453.988 434.255 Q450.331 438.56 450.331 446.06 Q450.331 453.514 453.988 457.866 Q457.692 462.171 463.988 462.171 Q470.285 462.171 473.942 457.866 Q477.646 453.514 477.646 446.06 Q477.646 438.56 473.942 434.255 Q470.285 429.949 463.988 429.949 M482.553 400.644 L482.553 409.162 Q479.035 407.495 475.424 406.616 Q471.859 405.736 468.34 405.736 Q459.081 405.736 454.174 411.986 Q449.313 418.236 448.618 430.875 Q451.35 426.847 455.47 424.718 Q459.59 422.542 464.544 422.542 Q474.961 422.542 480.979 428.884 Q487.044 435.18 487.044 446.06 Q487.044 456.708 480.748 463.143 Q474.451 469.578 463.988 469.578 Q451.998 469.578 445.655 460.412 Q439.313 451.199 439.313 433.745 Q439.313 417.356 447.09 407.634 Q454.868 397.866 467.97 397.866 Q471.488 397.866 475.053 398.56 Q478.664 399.255 482.553 400.644 Z" fill="#000000" fill-rule="nonzero" fill-opacity="1" /><path clip-path="url(#clip100)" d="M523.155 405.273 Q515.933 405.273 512.275 412.403 Q508.664 419.486 508.664 433.745 Q508.664 447.958 512.275 455.088 Q515.933 462.171 523.155 462.171 Q530.423 462.171 534.034 455.088 Q537.692 447.958 537.692 433.745 Q537.692 419.486 534.034 412.403 Q530.423 405.273 523.155 405.273 M523.155 397.866 Q534.775 397.866 540.886 407.079 Q547.043 416.245 547.043 433.745 Q547.043 451.199 540.886 460.412 Q534.775 469.578 523.155 469.578 Q511.534 469.578 505.377 460.412 Q499.266 451.199 499.266 433.745 Q499.266 416.245 505.377 407.079 Q511.534 397.866 523.155 397.866 Z" fill="#000000" fill-rule="nonzero" fill-opacity="1" /><path clip-path="url(#clip100)" d="M563.479 456.477 L573.247 456.477 L573.247 468.236 L563.479 468.236 L563.479 456.477 Z" fill="#000000" fill-rule="nonzero" fill-opacity="1" /><path clip-path="url(#clip100)" d="M613.617 405.273 Q606.395 405.273 602.738 412.403 Q599.127 419.486 599.127 433.745 Q599.127 447.958 602.738 455.088 Q606.395 462.171 613.617 462.171 Q620.886 462.171 624.497 455.088 Q628.154 447.958 628.154 433.745 Q628.154 419.486 624.497 412.403 Q620.886 405.273 613.617 405.273 M613.617 397.866 Q625.238 397.866 631.349 407.079 Q637.506 416.245 637.506 433.745 Q637.506 451.199 631.349 460.412 Q625.238 469.578 613.617 469.578 Q601.997 469.578 595.84 460.412 Q589.728 451.199 589.728 433.745 Q589.728 416.245 595.84 407.079 Q601.997 397.866 613.617 397.866 Z" fill="#000000" fill-rule="nonzero" fill-opacity="1" /><path clip-path="url(#clip100)" d="M384.128 242.768 L399.405 242.768 L399.405 190.037 L382.785 193.37 L382.785 184.851 L399.313 181.518 L408.665 181.518 L408.665 242.768 L423.942 242.768 L423.942 250.638 L384.128 250.638 L384.128 242.768 Z" fill="#000000" fill-rule="nonzero" fill-opacity="1" /><path clip-path="url(#clip100)" d="M440.47 181.518 L484.914 181.518 L484.914 185.499 L459.822 250.638 L450.053 250.638 L473.664 189.388 L440.47 189.388 L440.47 181.518 Z" fill="#000000" fill-rule="nonzero" fill-opacity="1" /><path clip-path="url(#clip100)" d="M523.155 187.675 Q515.933 187.675 512.275 194.805 Q508.664 201.888 508.664 216.147 Q508.664 230.36 512.275 237.49 Q515.933 244.573 523.155 244.573 Q530.423 244.573 534.034 237.49 Q537.692 230.36 537.692 216.147 Q537.692 201.888 534.034 194.805 Q530.423 187.675 523.155 187.675 M523.155 180.268 Q534.775 180.268 540.886 189.481 Q547.043 198.648 547.043 216.147 Q547.043 233.601 540.886 242.814 Q534.775 251.981 523.155 251.981 Q511.534 251.981 505.377 242.814 Q499.266 233.601 499.266 216.147 Q499.266 198.648 505.377 189.481 Q511.534 180.268 523.155 180.268 Z" fill="#000000" fill-rule="nonzero" fill-opacity="1" /><path clip-path="url(#clip100)" d="M563.479 238.879 L573.247 238.879 L573.247 250.638 L563.479 250.638 L563.479 238.879 Z" fill="#000000" fill-rule="nonzero" fill-opacity="1" /><path clip-path="url(#clip100)" d="M613.617 187.675 Q606.395 187.675 602.738 194.805 Q599.127 201.888 599.127 216.147 Q599.127 230.36 602.738 237.49 Q606.395 244.573 613.617 244.573 Q620.886 244.573 624.497 237.49 Q628.154 230.36 628.154 216.147 Q628.154 201.888 624.497 194.805 Q620.886 187.675 613.617 187.675 M613.617 180.268 Q625.238 180.268 631.349 189.481 Q637.506 198.648 637.506 216.147 Q637.506 233.601 631.349 242.814 Q625.238 251.981 613.617 251.981 Q601.997 251.981 595.84 242.814 Q589.728 233.601 589.728 216.147 Q589.728 198.648 595.84 189.481 Q601.997 180.268 613.617 180.268 Z" fill="#000000" fill-rule="nonzero" fill-opacity="1" /><path clip-path="url(#clip100)" d="M307.579 931.718 L345.391 931.718 L345.391 943.495 L246.977 943.495 L246.977 931.718 L257.799 931.718 Q251.433 928.026 248.378 922.424 Q245.258 916.759 245.258 908.929 Q245.258 895.943 255.571 887.858 Q265.883 879.71 282.689 879.71 Q299.494 879.71 309.807 887.858 Q320.119 895.943 320.119 908.929 Q320.119 916.759 317.064 922.424 Q313.944 928.026 307.579 931.718 M282.689 891.869 Q269.766 891.869 262.446 897.216 Q255.062 902.499 255.062 911.793 Q255.062 921.087 262.446 926.434 Q269.766 931.718 282.689 931.718 Q295.611 931.718 302.995 926.434 Q310.316 921.087 310.316 911.793 Q310.316 902.499 302.995 897.216 Q295.611 891.869 282.689 891.869 Z" fill="#000000" fill-rule="nonzero" fill-opacity="1" /><path clip-path="url(#clip100)" d="M282.434 827.893 Q282.434 842.089 285.681 847.563 Q288.927 853.038 296.757 853.038 Q302.995 853.038 306.688 848.964 Q310.316 844.826 310.316 837.76 Q310.316 828.021 303.441 822.164 Q296.502 816.244 285.044 816.244 L282.434 816.244 L282.434 827.893 M277.596 804.531 L318.273 804.531 L318.273 816.244 L307.451 816.244 Q313.944 820.254 317.064 826.238 Q320.119 832.222 320.119 840.879 Q320.119 851.828 314.008 858.321 Q307.833 864.751 297.521 864.751 Q285.49 864.751 279.379 856.73 Q273.268 848.645 273.268 832.668 L273.268 816.244 L272.122 816.244 Q264.037 816.244 259.645 821.591 Q255.189 826.875 255.189 836.487 Q255.189 842.598 256.653 848.391 Q258.117 854.184 261.045 859.531 L250.224 859.531 Q247.741 853.101 246.532 847.054 Q245.258 841.007 245.258 835.278 Q245.258 819.809 253.279 812.17 Q261.3 804.531 277.596 804.531 Z" fill="#000000" fill-rule="nonzero" fill-opacity="1" /><path clip-path="url(#clip100)" d="M257.926 739.092 Q256.78 741.065 256.271 743.42 Q255.698 745.712 255.698 748.513 Q255.698 758.443 262.191 763.791 Q268.621 769.074 280.715 769.074 L318.273 769.074 L318.273 780.851 L246.977 780.851 L246.977 769.074 L258.054 769.074 Q251.561 765.382 248.441 759.462 Q245.258 753.542 245.258 745.075 Q245.258 743.866 245.449 742.402 Q245.577 740.938 245.895 739.155 L257.926 739.092 Z" fill="#000000" fill-rule="nonzero" fill-opacity="1" /><path clip-path="url(#clip100)" d="M279.697 668.687 L285.426 668.687 L285.426 722.541 Q297.521 721.777 303.887 715.284 Q310.189 708.727 310.189 697.078 Q310.189 690.33 308.534 684.028 Q306.878 677.663 303.568 671.424 L314.645 671.424 Q317.318 677.726 318.719 684.347 Q320.119 690.967 320.119 697.778 Q320.119 714.838 310.189 724.832 Q300.258 734.763 283.325 734.763 Q265.82 734.763 255.571 725.342 Q245.258 715.857 245.258 699.815 Q245.258 685.429 254.552 677.09 Q263.783 668.687 279.697 668.687 M276.259 680.4 Q266.647 680.527 260.918 685.811 Q255.189 691.031 255.189 699.688 Q255.189 709.491 260.727 715.411 Q266.265 721.268 276.323 722.159 L276.259 680.4 Z" fill="#000000" fill-rule="nonzero" fill-opacity="1" /><path clip-path="url(#clip100)" d="M275.241 590.198 L318.273 590.198 L318.273 601.911 L275.623 601.911 Q265.501 601.911 260.472 605.857 Q255.444 609.804 255.444 617.698 Q255.444 627.183 261.491 632.657 Q267.538 638.132 277.978 638.132 L318.273 638.132 L318.273 649.908 L246.977 649.908 L246.977 638.132 L258.054 638.132 Q251.624 633.93 248.441 628.265 Q245.258 622.536 245.258 615.088 Q245.258 602.802 252.897 596.5 Q260.472 590.198 275.241 590.198 Z" fill="#000000" fill-rule="nonzero" fill-opacity="1" /><path clip-path="url(#clip100)" d="M302.104 565.181 L302.104 551.749 L318.273 551.749 L318.273 565.181 L302.104 565.181 Z" fill="#000000" fill-rule="nonzero" fill-opacity="1" /><path clip-path="url(#clip100)" d="M223.233 482.172 L223.233 431.692 L234.055 431.692 L234.055 470.395 L257.353 470.395 Q256.398 467.594 255.953 464.793 Q255.444 461.992 255.444 459.192 Q255.444 443.277 264.165 433.983 Q272.886 424.689 287.781 424.689 Q303.123 424.689 311.653 434.238 Q320.119 443.787 320.119 461.165 Q320.119 467.149 319.101 473.387 Q318.082 479.562 316.045 486.182 L303.123 486.182 Q306.242 480.453 307.77 474.342 Q309.297 468.231 309.297 461.42 Q309.297 450.407 303.505 443.978 Q297.712 437.548 287.781 437.548 Q277.851 437.548 272.058 443.978 Q266.265 450.407 266.265 461.42 Q266.265 466.576 267.411 471.732 Q268.557 476.825 270.976 482.172 L223.233 482.172 Z" fill="#000000" fill-rule="nonzero" fill-opacity="1" /><polyline clip-path="url(#clip102)" style="stroke:#008000; stroke-linecap:round; stroke-linejoin:round; stroke-width:8; stroke-opacity:1; fill:none" points="719.695,198.136 838.128,430.166 956.561,593.432 1074.99,665.79 1193.43,553.105 1311.86,567.277 1430.29,721.372 1548.73,818.065 1667.16,665.283 1785.59,1005.99 1904.02,1068.39 2022.46,1009.12 2140.89,1097.01 2259.32,1240.32 "/>
<circle clip-path="url(#clip102)" cx="719.695" cy="198.136" r="14.4" fill="#008000" fill-rule="evenodd" fill-opacity="1" stroke="#000000" stroke-opacity="1" stroke-width="6.4"/>
<circle clip-path="url(#clip102)" cx="838.128" cy="430.166" r="14.4" fill="#008000" fill-rule="evenodd" fill-opacity="1" stroke="#000000" stroke-opacity="1" stroke-width="6.4"/>
<circle clip-path="url(#clip102)" cx="956.561" cy="593.432" r="14.4" fill="#008000" fill-rule="evenodd" fill-opacity="1" stroke="#000000" stroke-opacity="1" stroke-width="6.4"/>
<circle clip-path="url(#clip102)" cx="1074.99" cy="665.79" r="14.4" fill="#008000" fill-rule="evenodd" fill-opacity="1" stroke="#000000" stroke-opacity="1" stroke-width="6.4"/>
<circle clip-path="url(#clip102)" cx="1193.43" cy="553.105" r="14.4" fill="#008000" fill-rule="evenodd" fill-opacity="1" stroke="#000000" stroke-opacity="1" stroke-width="6.4"/>
<circle clip-path="url(#clip102)" cx="1311.86" cy="567.277" r="14.4" fill="#008000" fill-rule="evenodd" fill-opacity="1" stroke="#000000" stroke-opacity="1" stroke-width="6.4"/>
<circle clip-path="url(#clip102)" cx="1430.29" cy="721.372" r="14.4" fill="#008000" fill-rule="evenodd" fill-opacity="1" stroke="#000000" stroke-opacity="1" stroke-width="6.4"/>
<circle clip-path="url(#clip102)" cx="1548.73" cy="818.065" r="14.4" fill="#008000" fill-rule="evenodd" fill-opacity="1" stroke="#000000" stroke-opacity="1" stroke-width="6.4"/>
<circle clip-path="url(#clip102)" cx="1667.16" cy="665.283" r="14.4" fill="#008000" fill-rule="evenodd" fill-opacity="1" stroke="#000000" stroke-opacity="1" stroke-width="6.4"/>
<circle clip-path="url(#clip102)" cx="1785.59" cy="1005.99" r="14.4" fill="#008000" fill-rule="evenodd" fill-opacity="1" stroke="#000000" stroke-opacity="1" stroke-width="6.4"/>
<circle clip-path="url(#clip102)" cx="1904.02" cy="1068.39" r="14.4" fill="#008000" fill-rule="evenodd" fill-opacity="1" stroke="#000000" stroke-opacity="1" stroke-width="6.4"/>
<circle clip-path="url(#clip102)" cx="2022.46" cy="1009.12" r="14.4" fill="#008000" fill-rule="evenodd" fill-opacity="1" stroke="#000000" stroke-opacity="1" stroke-width="6.4"/>
<circle clip-path="url(#clip102)" cx="2140.89" cy="1097.01" r="14.4" fill="#008000" fill-rule="evenodd" fill-opacity="1" stroke="#000000" stroke-opacity="1" stroke-width="6.4"/>
<circle clip-path="url(#clip102)" cx="2259.32" cy="1240.32" r="14.4" fill="#008000" fill-rule="evenodd" fill-opacity="1" stroke="#000000" stroke-opacity="1" stroke-width="6.4"/>
<polyline clip-path="url(#clip102)" style="stroke:#00008b; stroke-linecap:round; stroke-linejoin:round; stroke-width:8; stroke-opacity:1; fill:none" points="719.695,196.62 838.128,352.266 956.561,411.972 1074.99,469.441 1193.43,522.114 1311.86,580.062 1430.29,637.596 1548.73,695.323 1667.16,761.787 1785.59,829.229 1904.02,895.12 2022.46,962.088 2140.89,1030.7 2259.32,1095.41 "/>
<path clip-path="url(#clip102)" d="M719.695 264.284 L838.128 421.771 L956.561 477.534 L1074.99 540.953 L1193.43 586.441 L1311.86 648.18 L1430.29 706.702 L1548.73 766.151 L1667.16 829.221 L1785.59 894.747 L1904.02 964.138 L2022.46 1030.77 L2140.89 1097.35 L2259.32 1165.44 L2259.32 1027.39 L2140.89 959.279 L2022.46 896.446 L1904.02 827.881 L1785.59 765.283 L1667.16 699.6 L1548.73 625.47 L1430.29 570.258 L1311.86 511.533 L1193.43 456.427 L1074.99 402.595 L956.561 347.47 L838.128 285.665 L719.695 127.862  Z" fill="#0000ff" fill-rule="evenodd" fill-opacity="0.1"/>
<polyline clip-path="url(#clip102)" style="stroke:#0000ff; stroke-linecap:round; stroke-linejoin:round; stroke-width:0; stroke-opacity:0.1; fill:none" points="719.695,264.284 838.128,421.771 956.561,477.534 1074.99,540.953 1193.43,586.441 1311.86,648.18 1430.29,706.702 1548.73,766.151 1667.16,829.221 1785.59,894.747 1904.02,964.138 2022.46,1030.77 2140.89,1097.35 2259.32,1165.44 "/>
</svg>
