<?xml version="1.0" encoding="utf-8"?>
<svg xmlns="http://www.w3.org/2000/svg" xmlns:xlink="http://www.w3.org/1999/xlink" width="600" height="400" viewBox="0 0 2400 1600">
<defs>
  <clipPath id="clip020">
    <rect x="0" y="0" width="2400" height="1600"/>
  </clipPath>
</defs>
<path clip-path="url(#clip020)" d="M0 1600 L2400 1600 L2400 0 L0 0  Z" fill="#ffffff" fill-rule="evenodd" fill-opacity="1"/>
<defs>
  <clipPath id="clip021">
    <rect x="480" y="0" width="1681" height="1600"/>
  </clipPath>
</defs>
<path clip-path="url(#clip020)" d="M673.506 1273.7 L2305.51 1273.7 L2305.51 94.4882 L673.506 94.4882  Z" fill="#ffffff" fill-rule="evenodd" fill-opacity="1"/>
<defs>
  <clipPath id="clip022">
    <rect x="673" y="94" width="1633" height="1180"/>
  </clipPath>
</defs>
<polyline clip-path="url(#clip022)" style="stroke:#000000; stroke-linecap:round; stroke-linejoin:round; stroke-width:4; stroke-opacity:0.1; fill:none" points="719.695,1273.7 719.695,94.4882 "/>
<polyline clip-path="url(#clip022)" style="stroke:#000000; stroke-linecap:round; stroke-linejoin:round; stroke-width:4; stroke-opacity:0.1; fill:none" points="956.561,1273.7 956.561,94.4882 "/>
<polyline clip-path="url(#clip022)" style="stroke:#000000; stroke-linecap:round; stroke-linejoin:round; stroke-width:4; stroke-opacity:0.1; fill:none" points="1193.43,1273.7 1193.43,94.4882 "/>
<polyline clip-path="url(#clip022)" style="stroke:#000000; stroke-linecap:round; stroke-linejoin:round; stroke-width:4; stroke-opacity:0.1; fill:none" points="1430.29,1273.7 1430.29,94.4882 "/>
<polyline clip-path="url(#clip022)" style="stroke:#000000; stroke-linecap:round; stroke-linejoin:round; stroke-width:4; stroke-opacity:0.1; fill:none" points="1667.16,1273.7 1667.16,94.4882 "/>
<polyline clip-path="url(#clip022)" style="stroke:#000000; stroke-linecap:round; stroke-linejoin:round; stroke-width:4; stroke-opacity:0.1; fill:none" points="1904.02,1273.7 1904.02,94.4882 "/>
<polyline clip-path="url(#clip022)" style="stroke:#000000; stroke-linecap:round; stroke-linejoin:round; stroke-width:4; stroke-opacity:0.1; fill:none" points="2140.89,1273.7 2140.89,94.4882 "/>
<polyline clip-path="url(#clip020)" style="stroke:#000000; stroke-linecap:round; stroke-linejoin:round; stroke-width:8; stroke-opacity:1; fill:none" points="673.506,1273.7 2305.51,1273.7 "/>
<polyline clip-path="url(#clip020)" style="stroke:#000000; stroke-linecap:round; stroke-linejoin:round; stroke-width:8; stroke-opacity:1; fill:none" points="719.695,1273.7 719.695,1254.8 "/>
<polyline clip-path="url(#clip020)" style="stroke:#000000; stroke-linecap:round; stroke-linejoin:round; stroke-width:8; stroke-opacity:1; fill:none" points="956.561,1273.7 956.561,1254.8 "/>
<polyline clip-path="url(#clip020)" style="stroke:#000000; stroke-linecap:round; stroke-linejoin:round; stroke-width:8; stroke-opacity:1; fill:none" points="1193.43,1273.7 1193.43,1254.8 "/>
<polyline clip-path="url(#clip020)" style="stroke:#000000; stroke-linecap:round; stroke-linejoin:round; stroke-width:8; stroke-opacity:1; fill:none" points="1430.29,1273.7 1430.29,1254.8 "/>
<polyline clip-path="url(#clip020)" style="stroke:#000000; stroke-linecap:round; stroke-linejoin:round; stroke-width:8; stroke-opacity:1; fill:none" points="1667.16,1273.7 1667.16,1254.8 "/>
<polyline clip-path="url(#clip020)" style="stroke:#000000; stroke-linecap:round; stroke-linejoin:round; stroke-width:8; stroke-opacity:1; fill:none" points="1904.02,1273.7 1904.02,1254.8 "/>
<polyline clip-path="url(#clip020)" style="stroke:#000000; stroke-linecap:round; stroke-linejoin:round; stroke-width:8; stroke-opacity:1; fill:none" points="2140.89,1273.7 2140.89,1254.8 "/>
<path clip-path="url(#clip020)" d="M674.464 1316.33 Q667.241 1316.33 663.584 1323.46 Q659.973 1330.55 659.973 1344.81 Q659.973 1359.02 663.584 1366.15 Q667.241 1373.23 674.464 1373.23 Q681.732 1373.23 685.343 1366.15 Q689.001 1359.02 689.001 1344.81 Q689.001 1330.55 685.343 1323.46 Q681.732 1316.33 674.464 1316.33 M674.464 1308.93 Q686.084 1308.93 692.195 1318.14 Q698.352 1327.31 698.352 1344.81 Q698.352 1362.26 692.195 1371.47 Q686.084 1380.64 674.464 1380.64 Q662.843 1380.64 656.686 1371.47 Q650.575 1362.26 650.575 1344.81 Q650.575 1327.31 656.686 1318.14 Q662.843 1308.93 674.464 1308.93 Z" fill="#000000" fill-rule="nonzero" fill-opacity="1" /><path clip-path="url(#clip020)" d="M714.787 1367.54 L724.556 1367.54 L724.556 1379.3 L714.787 1379.3 L714.787 1367.54 Z" fill="#000000" fill-rule="nonzero" fill-opacity="1" /><path clip-path="url(#clip020)" d="M764.926 1316.33 Q757.704 1316.33 754.046 1323.46 Q750.435 1330.55 750.435 1344.81 Q750.435 1359.02 754.046 1366.15 Q757.704 1373.23 764.926 1373.23 Q772.195 1373.23 775.806 1366.15 Q779.463 1359.02 779.463 1344.81 Q779.463 1330.55 775.806 1323.46 Q772.195 1316.33 764.926 1316.33 M764.926 1308.93 Q776.546 1308.93 782.657 1318.14 Q788.815 1327.31 788.815 1344.81 Q788.815 1362.26 782.657 1371.47 Q776.546 1380.64 764.926 1380.64 Q753.306 1380.64 747.148 1371.47 Q741.037 1362.26 741.037 1344.81 Q741.037 1327.31 747.148 1318.14 Q753.306 1308.93 764.926 1308.93 Z" fill="#000000" fill-rule="nonzero" fill-opacity="1" /><path clip-path="url(#clip020)" d="M912.927 1316.33 Q905.704 1316.33 902.047 1323.46 Q898.436 1330.55 898.436 1344.81 Q898.436 1359.02 902.047 1366.15 Q905.704 1373.23 912.927 1373.23 Q920.195 1373.23 923.806 1366.15 Q927.464 1359.02 927.464 1344.81 Q927.464 1330.55 923.806 1323.46 Q920.195 1316.33 912.927 1316.33 M912.927 1308.93 Q924.547 1308.93 930.658 1318.14 Q936.815 1327.31 936.815 1344.81 Q936.815 1362.26 930.658 1371.47 Q924.547 1380.64 912.927 1380.64 Q901.306 1380.64 895.149 1371.47 Q889.038 1362.26 889.038 1344.81 Q889.038 1327.31 895.149 1318.14 Q901.306 1308.93 912.927 1308.93 Z" fill="#000000" fill-rule="nonzero" fill-opacity="1" /><path clip-path="url(#clip020)" d="M953.251 1367.54 L963.019 1367.54 L963.019 1379.3 L953.251 1379.3 L953.251 1367.54 Z" fill="#000000" fill-rule="nonzero" fill-opacity="1" /><path clip-path="url(#clip020)" d="M991.445 1371.43 L1024.08 1371.43 L1024.08 1379.3 L980.195 1379.3 L980.195 1371.43 Q985.519 1365.92 994.685 1356.66 Q1003.9 1347.35 1006.26 1344.67 Q1010.75 1339.62 1012.51 1336.15 Q1014.32 1332.63 1014.32 1329.25 Q1014.32 1323.74 1010.43 1320.27 Q1006.58 1316.8 1000.38 1316.8 Q995.982 1316.8 991.074 1318.32 Q986.213 1319.85 980.658 1322.95 L980.658 1313.51 Q986.306 1311.24 991.213 1310.08 Q996.121 1308.93 1000.19 1308.93 Q1010.94 1308.93 1017.32 1314.3 Q1023.71 1319.67 1023.71 1328.65 Q1023.71 1332.91 1022.09 1336.75 Q1020.52 1340.55 1016.31 1345.73 Q1015.15 1347.07 1008.94 1353.51 Q1002.74 1359.9 991.445 1371.43 Z" fill="#000000" fill-rule="nonzero" fill-opacity="1" /><path clip-path="url(#clip020)" d="M1147.71 1316.33 Q1140.49 1316.33 1136.83 1323.46 Q1133.22 1330.55 1133.22 1344.81 Q1133.22 1359.02 1136.83 1366.15 Q1140.49 1373.23 1147.71 1373.23 Q1154.98 1373.23 1158.59 1366.15 Q1162.25 1359.02 1162.25 1344.81 Q1162.25 1330.55 1158.59 1323.46 Q1154.98 1316.33 1147.71 1316.33 M1147.71 1308.93 Q1159.33 1308.93 1165.44 1318.14 Q1171.6 1327.31 1171.6 1344.81 Q1171.6 1362.26 1165.44 1371.47 Q1159.33 1380.64 1147.71 1380.64 Q1136.09 1380.64 1129.93 1371.47 Q1123.82 1362.26 1123.82 1344.81 Q1123.82 1327.31 1129.93 1318.14 Q1136.09 1308.93 1147.71 1308.93 Z" fill="#000000" fill-rule="nonzero" fill-opacity="1" /><path clip-path="url(#clip020)" d="M1188.03 1367.54 L1197.8 1367.54 L1197.8 1379.3 L1188.03 1379.3 L1188.03 1367.54 Z" fill="#000000" fill-rule="nonzero" fill-opacity="1" /><path clip-path="url(#clip020)" d="M1243.87 1318.32 L1220.26 1355.22 L1243.87 1355.22 L1243.87 1318.32 M1241.41 1310.18 L1253.17 1310.18 L1253.17 1355.22 L1263.03 1355.22 L1263.03 1363 L1253.17 1363 L1253.17 1379.3 L1243.87 1379.3 L1243.87 1363 L1212.66 1363 L1212.66 1353.97 L1241.41 1310.18 Z" fill="#000000" fill-rule="nonzero" fill-opacity="1" /><path clip-path="url(#clip020)" d="M1384.9 1316.33 Q1377.68 1316.33 1374.02 1323.46 Q1370.41 1330.55 1370.41 1344.81 Q1370.41 1359.02 1374.02 1366.15 Q1377.68 1373.23 1384.9 1373.23 Q1392.17 1373.23 1395.78 1366.15 Q1399.44 1359.02 1399.44 1344.81 Q1399.44 1330.55 1395.78 1323.46 Q1392.17 1316.33 1384.9 1316.33 M1384.9 1308.93 Q1396.52 1308.93 1402.63 1318.14 Q1408.79 1327.31 1408.79 1344.81 Q1408.79 1362.26 1402.63 1371.47 Q1396.52 1380.64 1384.9 1380.64 Q1373.28 1380.64 1367.12 1371.47 Q1361.01 1362.26 1361.01 1344.81 Q1361.01 1327.31 1367.12 1318.14 Q1373.28 1308.93 1384.9 1308.93 Z" fill="#000000" fill-rule="nonzero" fill-opacity="1" /><path clip-path="url(#clip020)" d="M1425.22 1367.54 L1434.99 1367.54 L1434.99 1379.3 L1425.22 1379.3 L1425.22 1367.54 Z" fill="#000000" fill-rule="nonzero" fill-opacity="1" /><path clip-path="url(#clip020)" d="M1476.52 1341.01 Q1470.22 1341.01 1466.52 1345.31 Q1462.86 1349.62 1462.86 1357.12 Q1462.86 1364.57 1466.52 1368.93 Q1470.22 1373.23 1476.52 1373.23 Q1482.82 1373.23 1486.47 1368.93 Q1490.18 1364.57 1490.18 1357.12 Q1490.18 1349.62 1486.47 1345.31 Q1482.82 1341.01 1476.52 1341.01 M1495.08 1311.7 L1495.08 1320.22 Q1491.57 1318.56 1487.95 1317.68 Q1484.39 1316.8 1480.87 1316.8 Q1471.61 1316.8 1466.7 1323.05 Q1461.84 1329.3 1461.15 1341.93 Q1463.88 1337.91 1468 1335.78 Q1472.12 1333.6 1477.07 1333.6 Q1487.49 1333.6 1493.51 1339.94 Q1499.57 1346.24 1499.57 1357.12 Q1499.57 1367.77 1493.28 1374.2 Q1486.98 1380.64 1476.52 1380.64 Q1464.53 1380.64 1458.19 1371.47 Q1451.84 1362.26 1451.84 1344.81 Q1451.84 1328.42 1459.62 1318.69 Q1467.4 1308.93 1480.5 1308.93 Q1484.02 1308.93 1487.58 1309.62 Q1491.19 1310.31 1495.08 1311.7 Z" fill="#000000" fill-rule="nonzero" fill-opacity="1" /><path clip-path="url(#clip020)" d="M1622.02 1316.33 Q1614.8 1316.33 1611.14 1323.46 Q1607.53 1330.55 1607.53 1344.81 Q1607.53 1359.02 1611.14 1366.15 Q1614.8 1373.23 1622.02 1373.23 Q1629.29 1373.23 1632.9 1366.15 Q1636.56 1359.02 1636.56 1344.81 Q1636.56 1330.55 1632.9 1323.46 Q1629.29 1316.33 1622.02 1316.33 M1622.02 1308.93 Q1633.64 1308.93 1639.75 1318.14 Q1645.91 1327.31 1645.91 1344.81 Q1645.91 1362.26 1639.75 1371.47 Q1633.64 1380.64 1622.02 1380.64 Q1610.4 1380.64 1604.24 1371.47 Q1598.13 1362.26 1598.13 1344.81 Q1598.13 1327.31 1604.24 1318.14 Q1610.4 1308.93 1622.02 1308.93 Z" fill="#000000" fill-rule="nonzero" fill-opacity="1" /><path clip-path="url(#clip020)" d="M1662.34 1367.54 L1672.11 1367.54 L1672.11 1379.3 L1662.34 1379.3 L1662.34 1367.54 Z" fill="#000000" fill-rule="nonzero" fill-opacity="1" /><path clip-path="url(#clip020)" d="M1712.48 1346.47 Q1705.82 1346.47 1701.97 1350.04 Q1698.18 1353.6 1698.18 1359.85 Q1698.18 1366.1 1701.97 1369.67 Q1705.82 1373.23 1712.48 1373.23 Q1719.15 1373.23 1722.99 1369.67 Q1726.83 1366.06 1726.83 1359.85 Q1726.83 1353.6 1722.99 1350.04 Q1719.2 1346.47 1712.48 1346.47 M1703.13 1342.49 Q1697.11 1341.01 1693.73 1336.89 Q1690.4 1332.77 1690.4 1326.84 Q1690.4 1318.56 1696.28 1313.74 Q1702.2 1308.93 1712.48 1308.93 Q1722.81 1308.93 1728.69 1313.74 Q1734.57 1318.56 1734.57 1326.84 Q1734.57 1332.77 1731.19 1336.89 Q1727.85 1341.01 1721.88 1342.49 Q1728.64 1344.06 1732.39 1348.65 Q1736.19 1353.23 1736.19 1359.85 Q1736.19 1369.9 1730.03 1375.27 Q1723.92 1380.64 1712.48 1380.64 Q1701.05 1380.64 1694.89 1375.27 Q1688.78 1369.9 1688.78 1359.85 Q1688.78 1353.23 1692.57 1348.65 Q1696.37 1344.06 1703.13 1342.49 M1699.7 1327.72 Q1699.7 1333.09 1703.04 1336.1 Q1706.42 1339.11 1712.48 1339.11 Q1718.5 1339.11 1721.88 1336.1 Q1725.31 1333.09 1725.31 1327.72 Q1725.31 1322.35 1721.88 1319.34 Q1718.5 1316.33 1712.48 1316.33 Q1706.42 1316.33 1703.04 1319.34 Q1699.7 1322.35 1699.7 1327.72 Z" fill="#000000" fill-rule="nonzero" fill-opacity="1" /><path clip-path="url(#clip020)" d="M1838.33 1371.43 L1853.61 1371.43 L1853.61 1318.69 L1836.99 1322.03 L1836.99 1313.51 L1853.52 1310.18 L1862.87 1310.18 L1862.87 1371.43 L1878.14 1371.43 L1878.14 1379.3 L1838.33 1379.3 L1838.33 1371.43 Z" fill="#000000" fill-rule="nonzero" fill-opacity="1" /><path clip-path="url(#clip020)" d="M1897.03 1367.54 L1906.8 1367.54 L1906.8 1379.3 L1897.03 1379.3 L1897.03 1367.54 Z" fill="#000000" fill-rule="nonzero" fill-opacity="1" /><path clip-path="url(#clip020)" d="M1947.17 1316.33 Q1939.95 1316.33 1936.29 1323.46 Q1932.68 1330.55 1932.68 1344.81 Q1932.68 1359.02 1936.29 1366.15 Q1939.95 1373.23 1947.17 1373.23 Q1954.44 1373.23 1958.05 1366.15 Q1961.71 1359.02 1961.71 1344.81 Q1961.71 1330.55 1958.05 1323.46 Q1954.44 1316.33 1947.17 1316.33 M1947.17 1308.93 Q1958.79 1308.93 1964.9 1318.14 Q1971.06 1327.31 1971.06 1344.81 Q1971.06 1362.26 1964.9 1371.47 Q1958.79 1380.64 1947.17 1380.64 Q1935.55 1380.64 1929.39 1371.47 Q1923.28 1362.26 1923.28 1344.81 Q1923.28 1327.31 1929.39 1318.14 Q1935.55 1308.93 1947.17 1308.93 Z" fill="#000000" fill-rule="nonzero" fill-opacity="1" /><path clip-path="url(#clip020)" d="M2076.79 1371.43 L2092.07 1371.43 L2092.07 1318.69 L2075.45 1322.03 L2075.45 1313.51 L2091.98 1310.18 L2101.33 1310.18 L2101.33 1371.43 L2116.61 1371.43 L2116.61 1379.3 L2076.79 1379.3 L2076.79 1371.43 Z" fill="#000000" fill-rule="nonzero" fill-opacity="1" /><path clip-path="url(#clip020)" d="M2135.5 1367.54 L2145.27 1367.54 L2145.27 1379.3 L2135.5 1379.3 L2135.5 1367.54 Z" fill="#000000" fill-rule="nonzero" fill-opacity="1" /><path clip-path="url(#clip020)" d="M2173.69 1371.43 L2206.33 1371.43 L2206.33 1379.3 L2162.44 1379.3 L2162.44 1371.43 Q2167.76 1365.92 2176.93 1356.66 Q2186.14 1347.35 2188.51 1344.67 Q2193 1339.62 2194.76 1336.15 Q2196.56 1332.63 2196.56 1329.25 Q2196.56 1323.74 2192.67 1320.27 Q2188.83 1316.8 2182.63 1316.8 Q2178.23 1316.8 2173.32 1318.32 Q2168.46 1319.85 2162.9 1322.95 L2162.9 1313.51 Q2168.55 1311.24 2173.46 1310.08 Q2178.37 1308.93 2182.44 1308.93 Q2193.18 1308.93 2199.57 1314.3 Q2205.96 1319.67 2205.96 1328.65 Q2205.96 1332.91 2204.34 1336.75 Q2202.76 1340.55 2198.55 1345.73 Q2197.39 1347.07 2191.19 1353.51 Q2184.99 1359.9 2173.69 1371.43 Z" fill="#000000" fill-rule="nonzero" fill-opacity="1" /><path clip-path="url(#clip020)" d="M1375.05 1484.39 L1375.05 1527.42 L1363.34 1527.42 L1363.34 1484.77 Q1363.34 1474.65 1359.39 1469.62 Q1355.45 1464.59 1347.55 1464.59 Q1338.07 1464.59 1332.59 1470.64 Q1327.12 1476.69 1327.12 1487.13 L1327.12 1527.42 L1315.34 1527.42 L1315.34 1428.37 L1327.12 1428.37 L1327.12 1467.2 Q1331.32 1460.77 1336.99 1457.59 Q1342.72 1454.41 1350.16 1454.41 Q1362.45 1454.41 1368.75 1462.05 Q1375.05 1469.62 1375.05 1484.39 Z" fill="#000000" fill-rule="nonzero" fill-opacity="1" /><path clip-path="url(#clip020)" d="M1426.04 1464.34 Q1416.62 1464.34 1411.15 1471.72 Q1405.67 1479.04 1405.67 1491.84 Q1405.67 1504.63 1411.08 1512.02 Q1416.56 1519.34 1426.04 1519.34 Q1435.4 1519.34 1440.87 1511.96 Q1446.35 1504.57 1446.35 1491.84 Q1446.35 1479.17 1440.87 1471.79 Q1435.4 1464.34 1426.04 1464.34 M1426.04 1454.41 Q1441.32 1454.41 1450.04 1464.34 Q1458.76 1474.27 1458.76 1491.84 Q1458.76 1509.35 1450.04 1519.34 Q1441.32 1529.27 1426.04 1529.27 Q1410.7 1529.27 1401.98 1519.34 Q1393.32 1509.35 1393.32 1491.84 Q1393.32 1474.27 1401.98 1464.34 Q1410.7 1454.41 1426.04 1454.41 Z" fill="#000000" fill-rule="nonzero" fill-opacity="1" /><path clip-path="url(#clip020)" d="M1476.97 1499.29 L1476.97 1456.13 L1488.68 1456.13 L1488.68 1498.84 Q1488.68 1508.96 1492.63 1514.06 Q1496.57 1519.08 1504.47 1519.08 Q1513.95 1519.08 1519.43 1513.04 Q1524.97 1506.99 1524.97 1496.55 L1524.97 1456.13 L1536.68 1456.13 L1536.68 1527.42 L1524.97 1527.42 L1524.97 1516.47 Q1520.7 1522.97 1515.04 1526.15 Q1509.43 1529.27 1501.99 1529.27 Q1489.7 1529.27 1483.33 1521.63 Q1476.97 1513.99 1476.97 1499.29 M1506.44 1454.41 L1506.44 1454.41 Z" fill="#000000" fill-rule="nonzero" fill-opacity="1" /><path clip-path="url(#clip020)" d="M1602.12 1467.08 Q1600.14 1465.93 1597.79 1465.42 Q1595.5 1464.85 1592.7 1464.85 Q1582.77 1464.85 1577.42 1471.34 Q1572.14 1477.77 1572.14 1489.87 L1572.14 1527.42 L1560.36 1527.42 L1560.36 1456.13 L1572.14 1456.13 L1572.14 1467.2 Q1575.83 1460.71 1581.75 1457.59 Q1587.67 1454.41 1596.13 1454.41 Q1597.34 1454.41 1598.81 1454.6 Q1600.27 1454.73 1602.05 1455.05 L1602.12 1467.08 Z" fill="#000000" fill-rule="nonzero" fill-opacity="1" /><path clip-path="url(#clip020)" d="M1659.86 1458.23 L1659.86 1469.3 Q1654.89 1466.76 1649.54 1465.49 Q1644.2 1464.21 1638.47 1464.21 Q1629.75 1464.21 1625.35 1466.89 Q1621.02 1469.56 1621.02 1474.91 Q1621.02 1478.98 1624.14 1481.34 Q1627.26 1483.63 1636.68 1485.73 L1640.69 1486.62 Q1653.17 1489.29 1658.39 1494.19 Q1663.67 1499.03 1663.67 1507.75 Q1663.67 1517.68 1655.78 1523.48 Q1647.95 1529.27 1634.2 1529.27 Q1628.47 1529.27 1622.23 1528.12 Q1616.06 1527.04 1609.18 1524.81 L1609.18 1512.72 Q1615.68 1516.09 1621.98 1517.81 Q1628.28 1519.47 1634.46 1519.47 Q1642.73 1519.47 1647.19 1516.67 Q1651.64 1513.8 1651.64 1508.64 Q1651.64 1503.87 1648.4 1501.32 Q1645.21 1498.78 1634.33 1496.42 L1630.25 1495.47 Q1619.37 1493.18 1614.53 1488.47 Q1609.69 1483.69 1609.69 1475.42 Q1609.69 1465.36 1616.82 1459.88 Q1623.95 1454.41 1637.07 1454.41 Q1643.56 1454.41 1649.29 1455.36 Q1655.02 1456.32 1659.86 1458.23 Z" fill="#000000" fill-rule="nonzero" fill-opacity="1" /><polyline clip-path="url(#clip022)" style="stroke:#000000; stroke-linecap:round; stroke-linejoin:round; stroke-width:4; stroke-opacity:0.1; fill:none" points="673.506,1093.65 2305.51,1093.65 "/>
<polyline clip-path="url(#clip022)" style="stroke:#000000; stroke-linecap:round; stroke-linejoin:round; stroke-width:4; stroke-opacity:0.1; fill:none" points="673.506,841.615 2305.51,841.615 "/>
<polyline clip-path="url(#clip022)" style="stroke:#000000; stroke-linecap:round; stroke-linejoin:round; stroke-width:4; stroke-opacity:0.1; fill:none" points="673.506,589.577 2305.51,589.577 "/>
<polyline clip-path="url(#clip022)" style="stroke:#000000; stroke-linecap:round; stroke-linejoin:round; stroke-width:4; stroke-opacity:0.1; fill:none" points="673.506,337.539 2305.51,337.539 "/>
<polyline clip-path="url(#clip020)" style="stroke:#000000; stroke-linecap:round; stroke-linejoin:round; stroke-width:8; stroke-opacity:1; fill:none" points="673.506,1273.7 673.506,94.4882 "/>
<polyline clip-path="url(#clip020)" style="stroke:#000000; stroke-linecap:round; stroke-linejoin:round; stroke-width:8; stroke-opacity:1; fill:none" points="673.506,1093.65 692.404,1093.65 "/>
<polyline clip-path="url(#clip020)" style="stroke:#000000; stroke-linecap:round; stroke-linejoin:round; stroke-width:8; stroke-opacity:1; fill:none" points="673.506,841.615 692.404,841.615 "/>
<polyline clip-path="url(#clip020)" style="stroke:#000000; stroke-linecap:round; stroke-linejoin:round; stroke-width:8; stroke-opacity:1; fill:none" points="673.506,589.577 692.404,589.577 "/>
<polyline clip-path="url(#clip020)" style="stroke:#000000; stroke-linecap:round; stroke-linejoin:round; stroke-width:8; stroke-opacity:1; fill:none" points="673.506,337.539 692.404,337.539 "/>
<path clip-path="url(#clip020)" d="M384.128 1120.34 L399.405 1120.34 L399.405 1067.61 L382.785 1070.95 L382.785 1062.43 L399.313 1059.09 L408.665 1059.09 L408.665 1120.34 L423.942 1120.34 L423.942 1128.21 L384.128 1128.21 L384.128 1120.34 Z" fill="#000000" fill-rule="nonzero" fill-opacity="1" /><path clip-path="url(#clip020)" d="M450.887 1120.34 L483.525 1120.34 L483.525 1128.21 L439.637 1128.21 L439.637 1120.34 Q444.961 1114.83 454.127 1105.57 Q463.34 1096.27 465.701 1093.58 Q470.192 1088.54 471.951 1085.07 Q473.757 1081.55 473.757 1078.17 Q473.757 1072.66 469.868 1069.19 Q466.025 1065.71 459.822 1065.71 Q455.424 1065.71 450.516 1067.24 Q445.655 1068.77 440.1 1071.87 L440.1 1062.43 Q445.748 1060.16 450.655 1059 Q455.562 1057.84 459.637 1057.84 Q470.377 1057.84 476.766 1063.21 Q483.155 1068.58 483.155 1077.57 Q483.155 1081.83 481.535 1085.67 Q479.961 1089.46 475.748 1094.65 Q474.59 1095.99 468.387 1102.43 Q462.183 1108.82 450.887 1120.34 Z" fill="#000000" fill-rule="nonzero" fill-opacity="1" /><path clip-path="url(#clip020)" d="M523.155 1065.25 Q515.933 1065.25 512.275 1072.38 Q508.664 1079.46 508.664 1093.72 Q508.664 1107.94 512.275 1115.07 Q515.933 1122.15 523.155 1122.15 Q530.423 1122.15 534.034 1115.07 Q537.692 1107.94 537.692 1093.72 Q537.692 1079.46 534.034 1072.38 Q530.423 1065.25 523.155 1065.25 M523.155 1057.84 Q534.775 1057.84 540.886 1067.06 Q547.043 1076.22 547.043 1093.72 Q547.043 1111.18 540.886 1120.39 Q534.775 1129.56 523.155 1129.56 Q511.534 1129.56 505.377 1120.39 Q499.266 1111.18 499.266 1093.72 Q499.266 1076.22 505.377 1067.06 Q511.534 1057.84 523.155 1057.84 Z" fill="#000000" fill-rule="nonzero" fill-opacity="1" /><path clip-path="url(#clip020)" d="M563.479 1116.45 L573.247 1116.45 L573.247 1128.21 L563.479 1128.21 L563.479 1116.45 Z" fill="#000000" fill-rule="nonzero" fill-opacity="1" /><path clip-path="url(#clip020)" d="M613.617 1065.25 Q606.395 1065.25 602.738 1072.38 Q599.127 1079.46 599.127 1093.72 Q599.127 1107.94 602.738 1115.07 Q606.395 1122.15 613.617 1122.15 Q620.886 1122.15 624.497 1115.07 Q628.154 1107.94 628.154 1093.72 Q628.154 1079.46 624.497 1072.38 Q620.886 1065.25 613.617 1065.25 M613.617 1057.84 Q625.238 1057.84 631.349 1067.06 Q637.506 1076.22 637.506 1093.72 Q637.506 1111.18 631.349 1120.39 Q625.238 1129.56 613.617 1129.56 Q601.997 1129.56 595.84 1120.39 Q589.728 1111.18 589.728 1093.72 Q589.728 1076.22 595.84 1067.06 Q601.997 1057.84 613.617 1057.84 Z" fill="#000000" fill-rule="nonzero" fill-opacity="1" /><path clip-path="url(#clip020)" d="M384.128 868.305 L399.405 868.305 L399.405 815.574 L382.785 818.907 L382.785 810.389 L399.313 807.055 L408.665 807.055 L408.665 868.305 L423.942 868.305 L423.942 876.175 L384.128 876.175 L384.128 868.305 Z" fill="#000000" fill-rule="nonzero" fill-opacity="1" /><path clip-path="url(#clip020)" d="M468.525 815.204 L444.914 852.101 L468.525 852.101 L468.525 815.204 M466.072 807.055 L477.831 807.055 L477.831 852.101 L487.692 852.101 L487.692 859.879 L477.831 859.879 L477.831 876.175 L468.525 876.175 L468.525 859.879 L437.322 859.879 L437.322 850.851 L466.072 807.055 Z" fill="#000000" fill-rule="nonzero" fill-opacity="1" /><path clip-path="url(#clip020)" d="M523.155 813.213 Q515.933 813.213 512.275 820.342 Q508.664 827.426 508.664 841.685 Q508.664 855.898 512.275 863.027 Q515.933 870.111 523.155 870.111 Q530.423 870.111 534.034 863.027 Q537.692 855.898 537.692 841.685 Q537.692 827.426 534.034 820.342 Q530.423 813.213 523.155 813.213 M523.155 805.805 Q534.775 805.805 540.886 815.018 Q547.043 824.185 547.043 841.685 Q547.043 859.138 540.886 868.351 Q534.775 877.518 523.155 877.518 Q511.534 877.518 505.377 868.351 Q499.266 859.138 499.266 841.685 Q499.266 824.185 505.377 815.018 Q511.534 805.805 523.155 805.805 Z" fill="#000000" fill-rule="nonzero" fill-opacity="1" /><path clip-path="url(#clip020)" d="M563.479 864.416 L573.247 864.416 L573.247 876.175 L563.479 876.175 L563.479 864.416 Z" fill="#000000" fill-rule="nonzero" fill-opacity="1" /><path clip-path="url(#clip020)" d="M613.617 813.213 Q606.395 813.213 602.738 820.342 Q599.127 827.426 599.127 841.685 Q599.127 855.898 602.738 863.027 Q606.395 870.111 613.617 870.111 Q620.886 870.111 624.497 863.027 Q628.154 855.898 628.154 841.685 Q628.154 827.426 624.497 820.342 Q620.886 813.213 613.617 813.213 M613.617 805.805 Q625.238 805.805 631.349 815.018 Q637.506 824.185 637.506 841.685 Q637.506 859.138 631.349 868.351 Q625.238 877.518 613.617 877.518 Q601.997 877.518 595.84 868.351 Q589.728 859.138 589.728 841.685 Q589.728 824.185 595.84 815.018 Q601.997 805.805 613.617 805.805 Z" fill="#000000" fill-rule="nonzero" fill-opacity="1" /><path clip-path="url(#clip020)" d="M384.128 616.267 L399.405 616.267 L399.405 563.536 L382.785 566.869 L382.785 558.35 L399.313 555.017 L408.665 555.017 L408.665 616.267 L423.942 616.267 L423.942 624.137 L384.128 624.137 L384.128 616.267 Z" fill="#000000" fill-rule="nonzero" fill-opacity="1" /><path clip-path="url(#clip020)" d="M463.988 585.85 Q457.692 585.85 453.988 590.156 Q450.331 594.461 450.331 601.961 Q450.331 609.415 453.988 613.767 Q457.692 618.072 463.988 618.072 Q470.285 618.072 473.942 613.767 Q477.646 609.415 477.646 601.961 Q477.646 594.461 473.942 590.156 Q470.285 585.85 463.988 585.85 M482.553 556.545 L482.553 565.063 Q479.035 563.397 475.424 562.517 Q471.859 561.637 468.34 561.637 Q459.081 561.637 454.174 567.887 Q449.313 574.137 448.618 586.776 Q451.35 582.748 455.47 580.619 Q459.59 578.443 464.544 578.443 Q474.961 578.443 480.979 584.785 Q487.044 591.082 487.044 601.961 Q487.044 612.609 480.748 619.045 Q474.451 625.48 463.988 625.48 Q451.998 625.48 445.655 616.313 Q439.313 607.1 439.313 589.647 Q439.313 573.258 447.09 563.536 Q454.868 553.767 467.97 553.767 Q471.488 553.767 475.053 554.462 Q478.664 555.156 482.553 556.545 Z" fill="#000000" fill-rule="nonzero" fill-opacity="1" /><path clip-path="url(#clip020)" d="M523.155 561.174 Q515.933 561.174 512.275 568.304 Q508.664 575.387 508.664 589.647 Q508.664 603.859 512.275 610.989 Q515.933 618.072 523.155 618.072 Q530.423 618.072 534.034 610.989 Q537.692 603.859 537.692 589.647 Q537.692 575.387 534.034 568.304 Q530.423 561.174 523.155 561.174 M523.155 553.767 Q534.775 553.767 540.886 562.98 Q547.043 572.147 547.043 589.647 Q547.043 607.1 540.886 616.313 Q534.775 625.48 523.155 625.48 Q511.534 625.48 505.377 616.313 Q499.266 607.1 499.266 589.647 Q499.266 572.147 505.377 562.98 Q511.534 553.767 523.155 553.767 Z" fill="#000000" fill-rule="nonzero" fill-opacity="1" /><path clip-path="url(#clip020)" d="M563.479 612.378 L573.247 612.378 L573.247 624.137 L563.479 624.137 L563.479 612.378 Z" fill="#000000" fill-rule="nonzero" fill-opacity="1" /><path clip-path="url(#clip020)" d="M613.617 561.174 Q606.395 561.174 602.738 568.304 Q599.127 575.387 599.127 589.647 Q599.127 603.859 602.738 610.989 Q606.395 618.072 613.617 618.072 Q620.886 618.072 624.497 610.989 Q628.154 603.859 628.154 589.647 Q628.154 575.387 624.497 568.304 Q620.886 561.174 613.617 561.174 M613.617 553.767 Q625.238 553.767 631.349 562.98 Q637.506 572.147 637.506 589.647 Q637.506 607.1 631.349 616.313 Q625.238 625.48 613.617 625.48 Q601.997 625.48 595.84 616.313 Q589.728 607.1 589.728 589.647 Q589.728 572.147 595.84 562.98 Q601.997 553.767 613.617 553.767 Z" fill="#000000" fill-rule="nonzero" fill-opacity="1" /><path clip-path="url(#clip020)" d="M384.128 364.228 L399.405 364.228 L399.405 311.497 L382.785 314.831 L382.785 306.312 L399.313 302.979 L408.665 302.979 L408.665 364.228 L423.942 364.228 L423.942 372.099 L384.128 372.099 L384.128 364.228 Z" fill="#000000" fill-rule="nonzero" fill-opacity="1" /><path clip-path="url(#clip020)" d="M462.831 339.275 Q456.164 339.275 452.322 342.84 Q448.525 346.405 448.525 352.654 Q448.525 358.904 452.322 362.469 Q456.164 366.034 462.831 366.034 Q469.498 366.034 473.34 362.469 Q477.183 358.858 477.183 352.654 Q477.183 346.405 473.34 342.84 Q469.544 339.275 462.831 339.275 M453.479 335.293 Q447.461 333.812 444.081 329.692 Q440.748 325.571 440.748 319.645 Q440.748 311.358 446.627 306.544 Q452.553 301.729 462.831 301.729 Q473.155 301.729 479.035 306.544 Q484.914 311.358 484.914 319.645 Q484.914 325.571 481.535 329.692 Q478.201 333.812 472.229 335.293 Q478.988 336.868 482.738 341.451 Q486.535 346.034 486.535 352.654 Q486.535 362.701 480.377 368.071 Q474.266 373.441 462.831 373.441 Q451.396 373.441 445.238 368.071 Q439.127 362.701 439.127 352.654 Q439.127 346.034 442.924 341.451 Q446.72 336.868 453.479 335.293 M450.053 320.525 Q450.053 325.895 453.387 328.905 Q456.766 331.914 462.831 331.914 Q468.849 331.914 472.229 328.905 Q475.655 325.895 475.655 320.525 Q475.655 315.155 472.229 312.145 Q468.849 309.136 462.831 309.136 Q456.766 309.136 453.387 312.145 Q450.053 315.155 450.053 320.525 Z" fill="#000000" fill-rule="nonzero" fill-opacity="1" /><path clip-path="url(#clip020)" d="M523.155 309.136 Q515.933 309.136 512.275 316.266 Q508.664 323.349 508.664 337.608 Q508.664 351.821 512.275 358.951 Q515.933 366.034 523.155 366.034 Q530.423 366.034 534.034 358.951 Q537.692 351.821 537.692 337.608 Q537.692 323.349 534.034 316.266 Q530.423 309.136 523.155 309.136 M523.155 301.729 Q534.775 301.729 540.886 310.942 Q547.043 320.108 547.043 337.608 Q547.043 355.062 540.886 364.275 Q534.775 373.441 523.155 373.441 Q511.534 373.441 505.377 364.275 Q499.266 355.062 499.266 337.608 Q499.266 320.108 505.377 310.942 Q511.534 301.729 523.155 301.729 Z" fill="#000000" fill-rule="nonzero" fill-opacity="1" /><path clip-path="url(#clip020)" d="M563.479 360.34 L573.247 360.34 L573.247 372.099 L563.479 372.099 L563.479 360.34 Z" fill="#000000" fill-rule="nonzero" fill-opacity="1" /><path clip-path="url(#clip020)" d="M613.617 309.136 Q606.395 309.136 602.738 316.266 Q599.127 323.349 599.127 337.608 Q599.127 351.821 602.738 358.951 Q606.395 366.034 613.617 366.034 Q620.886 366.034 624.497 358.951 Q628.154 351.821 628.154 337.608 Q628.154 323.349 624.497 316.266 Q620.886 309.136 613.617 309.136 M613.617 301.729 Q625.238 301.729 631.349 310.942 Q637.506 320.108 637.506 337.608 Q637.506 355.062 631.349 364.275 Q625.238 373.441 613.617 373.441 Q601.997 373.441 595.84 364.275 Q589.728 355.062 589.728 337.608 Q589.728 320.108 595.84 310.942 Q601.997 301.729 613.617 301.729 Z" fill="#000000" fill-rule="nonzero" fill-opacity="1" /><path clip-path="url(#clip020)" d="M307.579 932.195 L345.391 932.195 L345.391 943.972 L246.977 943.972 L246.977 932.195 L257.799 932.195 Q251.433 928.503 248.378 922.901 Q245.258 917.236 245.258 909.406 Q245.258 896.42 255.571 888.336 Q265.883 880.188 282.689 880.188 Q299.494 880.188 309.807 888.336 Q320.119 896.42 320.119 909.406 Q320.119 917.236 317.064 922.901 Q313.944 928.503 307.579 932.195 M282.689 892.346 Q269.766 892.346 262.446 897.693 Q255.062 902.977 255.062 912.271 Q255.062 921.565 262.446 926.912 Q269.766 932.195 282.689 932.195 Q295.611 932.195 302.995 926.912 Q310.316 921.565 310.316 912.271 Q310.316 902.977 302.995 897.693 Q295.611 892.346 282.689 892.346 Z" fill="#000000" fill-rule="nonzero" fill-opacity="1" /><path clip-path="url(#clip020)" d="M282.434 828.371 Q282.434 842.566 285.681 848.041 Q288.927 853.515 296.757 853.515 Q302.995 853.515 306.688 849.441 Q310.316 845.303 310.316 838.238 Q310.316 828.498 303.441 822.642 Q296.502 816.721 285.044 816.721 L282.434 816.721 L282.434 828.371 M277.596 805.009 L318.273 805.009 L318.273 816.721 L307.451 816.721 Q313.944 820.732 317.064 826.716 Q320.119 832.699 320.119 841.357 Q320.119 852.306 314.008 858.799 Q307.833 865.228 297.521 865.228 Q285.49 865.228 279.379 857.207 Q273.268 849.123 273.268 833.145 L273.268 816.721 L272.122 816.721 Q264.037 816.721 259.645 822.069 Q255.189 827.352 255.189 836.964 Q255.189 843.075 256.653 848.868 Q258.117 854.661 261.045 860.008 L250.224 860.008 Q247.741 853.579 246.532 847.531 Q245.258 841.484 245.258 835.755 Q245.258 820.286 253.279 812.647 Q261.3 805.009 277.596 805.009 Z" fill="#000000" fill-rule="nonzero" fill-opacity="1" /><path clip-path="url(#clip020)" d="M257.926 739.569 Q256.78 741.542 256.271 743.898 Q255.698 746.189 255.698 748.99 Q255.698 758.921 262.191 764.268 Q268.621 769.552 280.715 769.552 L318.273 769.552 L318.273 781.328 L246.977 781.328 L246.977 769.552 L258.054 769.552 Q251.561 765.859 248.441 759.939 Q245.258 754.019 245.258 745.553 Q245.258 744.343 245.449 742.879 Q245.577 741.415 245.895 739.633 L257.926 739.569 Z" fill="#000000" fill-rule="nonzero" fill-opacity="1" /><path clip-path="url(#clip020)" d="M279.697 669.164 L285.426 669.164 L285.426 723.018 Q297.521 722.254 303.887 715.761 Q310.189 709.205 310.189 697.555 Q310.189 690.808 308.534 684.506 Q306.878 678.14 303.568 671.902 L314.645 671.902 Q317.318 678.204 318.719 684.824 Q320.119 691.444 320.119 698.256 Q320.119 715.316 310.189 725.31 Q300.258 735.24 283.325 735.24 Q265.82 735.24 255.571 725.819 Q245.258 716.334 245.258 700.293 Q245.258 685.906 254.552 677.567 Q263.783 669.164 279.697 669.164 M276.259 680.877 Q266.647 681.005 260.918 686.288 Q255.189 691.508 255.189 700.165 Q255.189 709.969 260.727 715.889 Q266.265 721.745 276.323 722.636 L276.259 680.877 Z" fill="#000000" fill-rule="nonzero" fill-opacity="1" /><path clip-path="url(#clip020)" d="M275.241 590.675 L318.273 590.675 L318.273 602.388 L275.623 602.388 Q265.501 602.388 260.472 606.335 Q255.444 610.282 255.444 618.175 Q255.444 627.66 261.491 633.134 Q267.538 638.609 277.978 638.609 L318.273 638.609 L318.273 650.386 L246.977 650.386 L246.977 638.609 L258.054 638.609 Q251.624 634.408 248.441 628.742 Q245.258 623.013 245.258 615.565 Q245.258 603.279 252.897 596.977 Q260.472 590.675 275.241 590.675 Z" fill="#000000" fill-rule="nonzero" fill-opacity="1" /><path clip-path="url(#clip020)" d="M302.104 565.658 L302.104 552.226 L318.273 552.226 L318.273 565.658 L302.104 565.658 Z" fill="#000000" fill-rule="nonzero" fill-opacity="1" /><path clip-path="url(#clip020)" d="M267.029 443.818 Q269.003 434.588 275.241 429.432 Q281.479 424.212 290.646 424.212 Q304.714 424.212 312.417 433.888 Q320.119 443.564 320.119 461.388 Q320.119 467.371 318.91 473.737 Q317.764 480.039 315.409 486.787 L302.995 486.787 Q306.115 481.44 307.706 475.074 Q309.297 468.708 309.297 461.77 Q309.297 449.675 304.523 443.373 Q299.749 437.007 290.646 437.007 Q282.243 437.007 277.533 442.927 Q272.758 448.784 272.758 459.287 L272.758 470.363 L262.191 470.363 L262.191 458.778 Q262.191 449.293 258.435 444.264 Q254.616 439.235 247.486 439.235 Q240.166 439.235 236.283 444.455 Q232.336 449.611 232.336 459.287 Q232.336 464.571 233.482 470.618 Q234.628 476.665 237.047 483.922 L225.588 483.922 Q223.551 476.602 222.533 470.236 Q221.514 463.807 221.514 458.141 Q221.514 443.5 228.198 434.97 Q234.819 426.44 246.15 426.44 Q254.043 426.44 259.518 430.96 Q264.928 435.479 267.029 443.818 Z" fill="#000000" fill-rule="nonzero" fill-opacity="1" /><polyline clip-path="url(#clip022)" style="stroke:#008000; stroke-linecap:round; stroke-linejoin:round; stroke-width:8; stroke-opacity:1; fill:none" points="719.695,168.011 838.128,153.238 956.561,407.085 1074.99,481.126 1193.43,586.343 1311.86,707.868 1430.29,805.038 1548.73,818.944 1667.16,962.637 1785.59,921.412 1904.02,1031.75 2022.46,1106.1 2140.89,1154.95 2259.32,1227.96 "/>
<circle clip-path="url(#clip022)" cx="719.695" cy="168.011" r="14.4" fill="#008000" fill-rule="evenodd" fill-opacity="1" stroke="#000000" stroke-opacity="1" stroke-width="6.4"/>
<circle clip-path="url(#clip022)" cx="838.128" cy="153.238" r="14.4" fill="#008000" fill-rule="evenodd" fill-opacity="1" stroke="#000000" stroke-opacity="1" stroke-width="6.4"/>
<circle clip-path="url(#clip022)" cx="956.561" cy="407.085" r="14.4" fill="#008000" fill-rule="evenodd" fill-opacity="1" stroke="#000000" stroke-opacity="1" stroke-width="6.4"/>
<circle clip-path="url(#clip022)" cx="1074.99" cy="481.126" r="14.4" fill="#008000" fill-rule="evenodd" fill-opacity="1" stroke="#000000" stroke-opacity="1" stroke-width="6.4"/>
<circle clip-path="url(#clip022)" cx="1193.43" cy="586.343" r="14.4" fill="#008000" fill-rule="evenodd" fill-opacity="1" stroke="#000000" stroke-opacity="1" stroke-width="6.4"/>
<circle clip-path="url(#clip022)" cx="1311.86" cy="707.868" r="14.4" fill="#008000" fill-rule="evenodd" fill-opacity="1" stroke="#000000" stroke-opacity="1" stroke-width="6.4"/>
<circle clip-path="url(#clip022)" cx="1430.29" cy="805.038" r="14.4" fill="#008000" fill-rule="evenodd" fill-opacity="1" stroke="#000000" stroke-opacity="1" stroke-width="6.4"/>
<circle clip-path="url(#clip022)" cx="1548.73" cy="818.944" r="14.4" fill="#008000" fill-rule="evenodd" fill-opacity="1" stroke="#000000" stroke-opacity="1" stroke-width="6.4"/>
<circle clip-path="url(#clip022)" cx="1667.16" cy="962.637" r="14.4" fill="#008000" fill-rule="evenodd" fill-opacity="1" stroke="#000000" stroke-opacity="1" stroke-width="6.4"/>
<circle clip-path="url(#clip022)" cx="1785.59" cy="921.412" r="14.4" fill="#008000" fill-rule="evenodd" fill-opacity="1" stroke="#000000" stroke-opacity="1" stroke-width="6.4"/>
<circle clip-path="url(#clip022)" cx="1904.02" cy="1031.75" r="14.4" fill="#008000" fill-rule="evenodd" fill-opacity="1" stroke="#000000" stroke-opacity="1" stroke-width="6.4"/>
<circle clip-path="url(#clip022)" cx="2022.46" cy="1106.1" r="14.4" fill="#008000" fill-rule="evenodd" fill-opacity="1" stroke="#000000" stroke-opacity="1" stroke-width="6.4"/>
<circle clip-path="url(#clip022)" cx="2140.89" cy="1154.95" r="14.4" fill="#008000" fill-rule="evenodd" fill-opacity="1" stroke="#000000" stroke-opacity="1" stroke-width="6.4"/>
<circle clip-path="url(#clip022)" cx="2259.32" cy="1227.96" r="14.4" fill="#008000" fill-rule="evenodd" fill-opacity="1" stroke="#000000" stroke-opacity="1" stroke-width="6.4"/>
<polyline clip-path="url(#clip022)" style="stroke:#00008b; stroke-linecap:round; stroke-linejoin:round; stroke-width:8; stroke-opacity:1; fill:none" points="719.695,166.869 838.128,304.37 956.561,421.464 1074.99,528.222 1193.43,625.221 1311.86,715.115 1430.29,795.057 1548.73,868.307 1667.16,934.723 1785.59,993.764 1904.02,1048.94 2022.46,1104.89 2140.89,1154.65 2259.32,1201 "/>
<path clip-path="url(#clip022)" d="M719.695 205.1 L838.128 344.113 L956.561 459.07 L1074.99 568.037 L1193.43 663.467 L1311.86 753.581 L1430.29 833.856 L1548.73 907.7 L1667.16 974.318 L1785.59 1034.16 L1904.02 1088.23 L2022.46 1145.27 L2140.89 1190.66 L2259.32 1240.32 L2259.32 1161.23 L2140.89 1116.44 L2022.46 1064.99 L1904.02 1010.07 L1785.59 952.459 L1667.16 895.328 L1548.73 828.538 L1430.29 756.904 L1311.86 676.348 L1193.43 584.568 L1074.99 488.76 L956.561 381.651 L838.128 267.879 L719.695 127.862  Z" fill="#0000ff" fill-rule="evenodd" fill-opacity="0.1"/>
<polyline clip-path="url(#clip022)" style="stroke:#0000ff; stroke-linecap:round; stroke-linejoin:round; stroke-width:0; stroke-opacity:0.1; fill:none" points="719.695,205.1 838.128,344.113 956.561,459.07 1074.99,568.037 1193.43,663.467 1311.86,753.581 1430.29,833.856 1548.73,907.7 1667.16,974.318 1785.59,1034.16 1904.02,1088.23 2022.46,1145.27 2140.89,1190.66 2259.32,1240.32 "/>
</svg>
