<?xml version="1.0" encoding="utf-8"?>
<svg xmlns="http://www.w3.org/2000/svg" xmlns:xlink="http://www.w3.org/1999/xlink" width="600" height="400" viewBox="0 0 2400 1600">
<defs>
  <clipPath id="clip940">
    <rect x="0" y="0" width="2400" height="1600"/>
  </clipPath>
</defs>
<path clip-path="url(#clip940)" d="M0 1600 L2400 1600 L2400 0 L0 0  Z" fill="#ffffff" fill-rule="evenodd" fill-opacity="1"/>
<defs>
  <clipPath id="clip941">
    <rect x="480" y="0" width="1681" height="1600"/>
  </clipPath>
</defs>
<path clip-path="url(#clip940)" d="M673.506 1273.7 L2305.51 1273.7 L2305.51 94.4882 L673.506 94.4882  Z" fill="#ffffff" fill-rule="evenodd" fill-opacity="1"/>
<defs>
  <clipPath id="clip942">
    <rect x="673" y="94" width="1633" height="1180"/>
  </clipPath>
</defs>
<polyline clip-path="url(#clip942)" style="stroke:#000000; stroke-linecap:round; stroke-linejoin:round; stroke-width:4; stroke-opacity:0.1; fill:none" points="719.695,1273.7 719.695,94.4882 "/>
<polyline clip-path="url(#clip942)" style="stroke:#000000; stroke-linecap:round; stroke-linejoin:round; stroke-width:4; stroke-opacity:0.1; fill:none" points="956.561,1273.7 956.561,94.4882 "/>
<polyline clip-path="url(#clip942)" style="stroke:#000000; stroke-linecap:round; stroke-linejoin:round; stroke-width:4; stroke-opacity:0.1; fill:none" points="1193.43,1273.7 1193.43,94.4882 "/>
<polyline clip-path="url(#clip942)" style="stroke:#000000; stroke-linecap:round; stroke-linejoin:round; stroke-width:4; stroke-opacity:0.1; fill:none" points="1430.29,1273.7 1430.29,94.4882 "/>
<polyline clip-path="url(#clip942)" style="stroke:#000000; stroke-linecap:round; stroke-linejoin:round; stroke-width:4; stroke-opacity:0.1; fill:none" points="1667.16,1273.7 1667.16,94.4882 "/>
<polyline clip-path="url(#clip942)" style="stroke:#000000; stroke-linecap:round; stroke-linejoin:round; stroke-width:4; stroke-opacity:0.1; fill:none" points="1904.02,1273.7 1904.02,94.4882 "/>
<polyline clip-path="url(#clip942)" style="stroke:#000000; stroke-linecap:round; stroke-linejoin:round; stroke-width:4; stroke-opacity:0.1; fill:none" points="2140.89,1273.7 2140.89,94.4882 "/>
<polyline clip-path="url(#clip940)" style="stroke:#000000; stroke-linecap:round; stroke-linejoin:round; stroke-width:8; stroke-opacity:1; fill:none" points="673.506,1273.7 2305.51,1273.7 "/>
<polyline clip-path="url(#clip940)" style="stroke:#000000; stroke-linecap:round; stroke-linejoin:round; stroke-width:8; stroke-opacity:1; fill:none" points="719.695,1273.7 719.695,1254.8 "/>
<polyline clip-path="url(#clip940)" style="stroke:#000000; stroke-linecap:round; stroke-linejoin:round; stroke-width:8; stroke-opacity:1; fill:none" points="956.561,1273.7 956.561,1254.8 "/>
<polyline clip-path="url(#clip940)" style="stroke:#000000; stroke-linecap:round; stroke-linejoin:round; stroke-width:8; stroke-opacity:1; fill:none" points="1193.43,1273.7 1193.43,1254.8 "/>
<polyline clip-path="url(#clip940)" style="stroke:#000000; stroke-linecap:round; stroke-linejoin:round; stroke-width:8; stroke-opacity:1; fill:none" points="1430.29,1273.7 1430.29,1254.8 "/>
<polyline clip-path="url(#clip940)" style="stroke:#000000; stroke-linecap:round; stroke-linejoin:round; stroke-width:8; stroke-opacity:1; fill:none" points="1667.16,1273.7 1667.16,1254.8 "/>
<polyline clip-path="url(#clip940)" style="stroke:#000000; stroke-linecap:round; stroke-linejoin:round; stroke-width:8; stroke-opacity:1; fill:none" points="1904.02,1273.7 1904.02,1254.8 "/>
<polyline clip-path="url(#clip940)" style="stroke:#000000; stroke-linecap:round; stroke-linejoin:round; stroke-width:8; stroke-opacity:1; fill:none" points="2140.89,1273.7 2140.89,1254.8 "/>
<path clip-path="url(#clip940)" d="M674.464 1316.33 Q667.241 1316.33 663.584 1323.46 Q659.973 1330.55 659.973 1344.81 Q659.973 1359.02 663.584 1366.15 Q667.241 1373.23 674.464 1373.23 Q681.732 1373.23 685.343 1366.15 Q689.001 1359.02 689.001 1344.81 Q689.001 1330.55 685.343 1323.46 Q681.732 1316.33 674.464 1316.33 M674.464 1308.93 Q686.084 1308.93 692.195 1318.14 Q698.352 1327.31 698.352 1344.81 Q698.352 1362.26 692.195 1371.47 Q686.084 1380.64 674.464 1380.64 Q662.843 1380.64 656.686 1371.47 Q650.575 1362.26 650.575 1344.81 Q650.575 1327.31 656.686 1318.14 Q662.843 1308.93 674.464 1308.93 Z" fill="#000000" fill-rule="nonzero" fill-opacity="1" /><path clip-path="url(#clip940)" d="M714.787 1367.54 L724.556 1367.54 L724.556 1379.3 L714.787 1379.3 L714.787 1367.54 Z" fill="#000000" fill-rule="nonzero" fill-opacity="1" /><path clip-path="url(#clip940)" d="M764.926 1316.33 Q757.704 1316.33 754.046 1323.46 Q750.435 1330.55 750.435 1344.81 Q750.435 1359.02 754.046 1366.15 Q757.704 1373.23 764.926 1373.23 Q772.195 1373.23 775.806 1366.15 Q779.463 1359.02 779.463 1344.81 Q779.463 1330.55 775.806 1323.46 Q772.195 1316.33 764.926 1316.33 M764.926 1308.93 Q776.546 1308.93 782.657 1318.14 Q788.815 1327.31 788.815 1344.81 Q788.815 1362.26 782.657 1371.47 Q776.546 1380.64 764.926 1380.64 Q753.306 1380.64 747.148 1371.47 Q741.037 1362.26 741.037 1344.81 Q741.037 1327.31 747.148 1318.14 Q753.306 1308.93 764.926 1308.93 Z" fill="#000000" fill-rule="nonzero" fill-opacity="1" /><path clip-path="url(#clip940)" d="M912.927 1316.33 Q905.704 1316.33 902.047 1323.46 Q898.436 1330.55 898.436 1344.81 Q898.436 1359.02 902.047 1366.15 Q905.704 1373.23 912.927 1373.23 Q920.195 1373.23 923.806 1366.15 Q927.464 1359.02 927.464 1344.81 Q927.464 1330.55 923.806 1323.46 Q920.195 1316.33 912.927 1316.33 M912.927 1308.93 Q924.547 1308.93 930.658 1318.14 Q936.815 1327.31 936.815 1344.81 Q936.815 1362.26 930.658 1371.47 Q924.547 1380.64 912.927 1380.64 Q901.306 1380.64 895.149 1371.47 Q889.038 1362.26 889.038 1344.81 Q889.038 1327.31 895.149 1318.14 Q901.306 1308.93 912.927 1308.93 Z" fill="#000000" fill-rule="nonzero" fill-opacity="1" /><path clip-path="url(#clip940)" d="M953.251 1367.54 L963.019 1367.54 L963.019 1379.3 L953.251 1379.3 L953.251 1367.54 Z" fill="#000000" fill-rule="nonzero" fill-opacity="1" /><path clip-path="url(#clip940)" d="M991.445 1371.43 L1024.08 1371.43 L1024.08 1379.3 L980.195 1379.3 L980.195 1371.43 Q985.519 1365.92 994.685 1356.66 Q1003.9 1347.35 1006.26 1344.67 Q1010.75 1339.62 1012.51 1336.15 Q1014.32 1332.63 1014.32 1329.25 Q1014.32 1323.74 1010.43 1320.27 Q1006.58 1316.8 1000.38 1316.8 Q995.982 1316.8 991.074 1318.32 Q986.213 1319.85 980.658 1322.95 L980.658 1313.51 Q986.306 1311.24 991.213 1310.08 Q996.121 1308.93 1000.19 1308.93 Q1010.94 1308.93 1017.32 1314.3 Q1023.71 1319.67 1023.71 1328.65 Q1023.71 1332.91 1022.09 1336.75 Q1020.52 1340.55 1016.31 1345.73 Q1015.15 1347.07 1008.94 1353.51 Q1002.74 1359.9 991.445 1371.43 Z" fill="#000000" fill-rule="nonzero" fill-opacity="1" /><path clip-path="url(#clip940)" d="M1147.71 1316.33 Q1140.49 1316.33 1136.83 1323.46 Q1133.22 1330.55 1133.22 1344.81 Q1133.22 1359.02 1136.83 1366.15 Q1140.49 1373.23 1147.71 1373.23 Q1154.98 1373.23 1158.59 1366.15 Q1162.25 1359.02 1162.25 1344.81 Q1162.25 1330.55 1158.59 1323.46 Q1154.98 1316.33 1147.71 1316.33 M1147.71 1308.93 Q1159.33 1308.93 1165.44 1318.14 Q1171.6 1327.31 1171.6 1344.81 Q1171.6 1362.26 1165.44 1371.47 Q1159.33 1380.64 1147.71 1380.64 Q1136.09 1380.64 1129.93 1371.47 Q1123.82 1362.26 1123.82 1344.81 Q1123.82 1327.31 1129.93 1318.14 Q1136.09 1308.93 1147.71 1308.93 Z" fill="#000000" fill-rule="nonzero" fill-opacity="1" /><path clip-path="url(#clip940)" d="M1188.03 1367.54 L1197.8 1367.54 L1197.8 1379.3 L1188.03 1379.3 L1188.03 1367.54 Z" fill="#000000" fill-rule="nonzero" fill-opacity="1" /><path clip-path="url(#clip940)" d="M1243.87 1318.32 L1220.26 1355.22 L1243.87 1355.22 L1243.87 1318.32 M1241.41 1310.18 L1253.17 1310.18 L1253.17 1355.22 L1263.03 1355.22 L1263.03 1363 L1253.17 1363 L1253.17 1379.3 L1243.87 1379.3 L1243.87 1363 L1212.66 1363 L1212.66 1353.97 L1241.41 1310.18 Z" fill="#000000" fill-rule="nonzero" fill-opacity="1" /><path clip-path="url(#clip940)" d="M1384.9 1316.33 Q1377.68 1316.33 1374.02 1323.46 Q1370.41 1330.55 1370.41 1344.81 Q1370.41 1359.02 1374.02 1366.15 Q1377.68 1373.23 1384.9 1373.23 Q1392.17 1373.23 1395.78 1366.15 Q1399.44 1359.02 1399.44 1344.81 Q1399.44 1330.55 1395.78 1323.46 Q1392.17 1316.33 1384.9 1316.33 M1384.9 1308.93 Q1396.52 1308.93 1402.63 1318.14 Q1408.79 1327.31 1408.79 1344.81 Q1408.79 1362.26 1402.63 1371.47 Q1396.52 1380.64 1384.9 1380.64 Q1373.28 1380.64 1367.12 1371.47 Q1361.01 1362.26 1361.01 1344.81 Q1361.01 1327.31 1367.12 1318.14 Q1373.28 1308.93 1384.9 1308.93 Z" fill="#000000" fill-rule="nonzero" fill-opacity="1" /><path clip-path="url(#clip940)" d="M1425.22 1367.54 L1434.99 1367.54 L1434.99 1379.3 L1425.22 1379.3 L1425.22 1367.54 Z" fill="#000000" fill-rule="nonzero" fill-opacity="1" /><path clip-path="url(#clip940)" d="M1476.52 1341.01 Q1470.22 1341.01 1466.52 1345.31 Q1462.86 1349.62 1462.86 1357.12 Q1462.86 1364.57 1466.52 1368.93 Q1470.22 1373.23 1476.52 1373.23 Q1482.82 1373.23 1486.47 1368.93 Q1490.18 1364.57 1490.18 1357.12 Q1490.18 1349.62 1486.47 1345.31 Q1482.82 1341.01 1476.52 1341.01 M1495.08 1311.7 L1495.08 1320.22 Q1491.57 1318.56 1487.95 1317.68 Q1484.39 1316.8 1480.87 1316.8 Q1471.61 1316.8 1466.7 1323.05 Q1461.84 1329.3 1461.15 1341.93 Q1463.88 1337.91 1468 1335.78 Q1472.12 1333.6 1477.07 1333.6 Q1487.49 1333.6 1493.51 1339.94 Q1499.57 1346.24 1499.57 1357.12 Q1499.57 1367.77 1493.28 1374.2 Q1486.98 1380.64 1476.52 1380.64 Q1464.53 1380.64 1458.19 1371.47 Q1451.84 1362.26 1451.84 1344.81 Q1451.84 1328.42 1459.62 1318.69 Q1467.4 1308.93 1480.5 1308.93 Q1484.02 1308.93 1487.58 1309.62 Q1491.19 1310.31 1495.08 1311.7 Z" fill="#000000" fill-rule="nonzero" fill-opacity="1" /><path clip-path="url(#clip940)" d="M1622.02 1316.33 Q1614.8 1316.33 1611.14 1323.46 Q1607.53 1330.55 1607.53 1344.81 Q1607.53 1359.02 1611.14 1366.15 Q1614.8 1373.23 1622.02 1373.23 Q1629.29 1373.23 1632.9 1366.15 Q1636.56 1359.02 1636.56 1344.81 Q1636.56 1330.55 1632.9 1323.46 Q1629.29 1316.33 1622.02 1316.33 M1622.02 1308.93 Q1633.64 1308.93 1639.75 1318.14 Q1645.91 1327.31 1645.91 1344.81 Q1645.91 1362.26 1639.75 1371.47 Q1633.64 1380.64 1622.02 1380.64 Q1610.4 1380.64 1604.24 1371.47 Q1598.13 1362.26 1598.13 1344.81 Q1598.13 1327.31 1604.24 1318.14 Q1610.4 1308.93 1622.02 1308.93 Z" fill="#000000" fill-rule="nonzero" fill-opacity="1" /><path clip-path="url(#clip940)" d="M1662.34 1367.54 L1672.11 1367.54 L1672.11 1379.3 L1662.34 1379.3 L1662.34 1367.54 Z" fill="#000000" fill-rule="nonzero" fill-opacity="1" /><path clip-path="url(#clip940)" d="M1712.48 1346.47 Q1705.82 1346.47 1701.97 1350.04 Q1698.18 1353.6 1698.18 1359.85 Q1698.18 1366.1 1701.97 1369.67 Q1705.82 1373.23 1712.48 1373.23 Q1719.15 1373.23 1722.99 1369.67 Q1726.83 1366.06 1726.83 1359.85 Q1726.83 1353.6 1722.99 1350.04 Q1719.2 1346.47 1712.48 1346.47 M1703.13 1342.49 Q1697.11 1341.01 1693.73 1336.89 Q1690.4 1332.77 1690.4 1326.84 Q1690.4 1318.56 1696.28 1313.74 Q1702.2 1308.93 1712.48 1308.93 Q1722.81 1308.93 1728.69 1313.74 Q1734.57 1318.56 1734.57 1326.84 Q1734.57 1332.77 1731.19 1336.89 Q1727.85 1341.01 1721.88 1342.49 Q1728.64 1344.06 1732.39 1348.65 Q1736.19 1353.23 1736.19 1359.85 Q1736.19 1369.9 1730.03 1375.27 Q1723.92 1380.64 1712.48 1380.64 Q1701.05 1380.64 1694.89 1375.27 Q1688.78 1369.9 1688.78 1359.85 Q1688.78 1353.23 1692.57 1348.65 Q1696.37 1344.06 1703.13 1342.49 M1699.7 1327.72 Q1699.7 1333.09 1703.04 1336.1 Q1706.42 1339.11 1712.48 1339.11 Q1718.5 1339.11 1721.88 1336.1 Q1725.31 1333.09 1725.31 1327.72 Q1725.31 1322.35 1721.88 1319.34 Q1718.5 1316.33 1712.48 1316.33 Q1706.42 1316.33 1703.04 1319.34 Q1699.7 1322.35 1699.7 1327.72 Z" fill="#000000" fill-rule="nonzero" fill-opacity="1" /><path clip-path="url(#clip940)" d="M1838.33 1371.43 L1853.61 1371.43 L1853.61 1318.69 L1836.99 1322.03 L1836.99 1313.51 L1853.52 1310.18 L1862.87 1310.18 L1862.87 1371.43 L1878.14 1371.43 L1878.14 1379.3 L1838.33 1379.3 L1838.33 1371.43 Z" fill="#000000" fill-rule="nonzero" fill-opacity="1" /><path clip-path="url(#clip940)" d="M1897.03 1367.54 L1906.8 1367.54 L1906.8 1379.3 L1897.03 1379.3 L1897.03 1367.54 Z" fill="#000000" fill-rule="nonzero" fill-opacity="1" /><path clip-path="url(#clip940)" d="M1947.17 1316.33 Q1939.95 1316.33 1936.29 1323.46 Q1932.68 1330.55 1932.68 1344.81 Q1932.68 1359.02 1936.29 1366.15 Q1939.95 1373.23 1947.17 1373.23 Q1954.44 1373.23 1958.05 1366.15 Q1961.71 1359.02 1961.71 1344.81 Q1961.71 1330.55 1958.05 1323.46 Q1954.44 1316.33 1947.17 1316.33 M1947.17 1308.93 Q1958.79 1308.93 1964.9 1318.14 Q1971.06 1327.31 1971.06 1344.81 Q1971.06 1362.26 1964.9 1371.47 Q1958.79 1380.64 1947.17 1380.64 Q1935.55 1380.64 1929.39 1371.47 Q1923.28 1362.26 1923.28 1344.81 Q1923.28 1327.31 1929.39 1318.14 Q1935.55 1308.93 1947.17 1308.93 Z" fill="#000000" fill-rule="nonzero" fill-opacity="1" /><path clip-path="url(#clip940)" d="M2076.79 1371.43 L2092.07 1371.43 L2092.07 1318.69 L2075.45 1322.03 L2075.45 1313.51 L2091.98 1310.18 L2101.33 1310.18 L2101.33 1371.43 L2116.61 1371.43 L2116.61 1379.3 L2076.79 1379.3 L2076.79 1371.43 Z" fill="#000000" fill-rule="nonzero" fill-opacity="1" /><path clip-path="url(#clip940)" d="M2135.5 1367.54 L2145.27 1367.54 L2145.27 1379.3 L2135.5 1379.3 L2135.5 1367.54 Z" fill="#000000" fill-rule="nonzero" fill-opacity="1" /><path clip-path="url(#clip940)" d="M2173.69 1371.43 L2206.33 1371.43 L2206.33 1379.3 L2162.44 1379.3 L2162.44 1371.43 Q2167.76 1365.92 2176.93 1356.66 Q2186.14 1347.35 2188.51 1344.67 Q2193 1339.62 2194.76 1336.15 Q2196.56 1332.63 2196.56 1329.25 Q2196.56 1323.74 2192.67 1320.27 Q2188.83 1316.8 2182.63 1316.8 Q2178.23 1316.8 2173.32 1318.32 Q2168.46 1319.85 2162.9 1322.95 L2162.9 1313.51 Q2168.55 1311.24 2173.46 1310.08 Q2178.37 1308.93 2182.44 1308.93 Q2193.18 1308.93 2199.57 1314.3 Q2205.96 1319.67 2205.96 1328.65 Q2205.96 1332.91 2204.34 1336.75 Q2202.76 1340.55 2198.55 1345.73 Q2197.39 1347.07 2191.19 1353.51 Q2184.99 1359.9 2173.69 1371.43 Z" fill="#000000" fill-rule="nonzero" fill-opacity="1" /><path clip-path="url(#clip940)" d="M1375.05 1484.39 L1375.05 1527.42 L1363.34 1527.42 L1363.34 1484.77 Q1363.34 1474.65 1359.39 1469.62 Q1355.45 1464.59 1347.55 1464.59 Q1338.07 1464.59 1332.59 1470.64 Q1327.12 1476.69 1327.12 1487.13 L1327.12 1527.42 L1315.34 1527.42 L1315.34 1428.37 L1327.12 1428.37 L1327.12 1467.2 Q1331.32 1460.77 1336.99 1457.59 Q1342.72 1454.41 1350.16 1454.41 Q1362.45 1454.41 1368.75 1462.05 Q1375.05 1469.62 1375.05 1484.39 Z" fill="#000000" fill-rule="nonzero" fill-opacity="1" /><path clip-path="url(#clip940)" d="M1426.04 1464.34 Q1416.62 1464.34 1411.15 1471.72 Q1405.67 1479.04 1405.67 1491.84 Q1405.67 1504.63 1411.08 1512.02 Q1416.56 1519.34 1426.04 1519.34 Q1435.4 1519.34 1440.87 1511.96 Q1446.35 1504.57 1446.35 1491.84 Q1446.35 1479.17 1440.87 1471.79 Q1435.4 1464.34 1426.04 1464.34 M1426.04 1454.41 Q1441.32 1454.41 1450.04 1464.34 Q1458.76 1474.27 1458.76 1491.84 Q1458.76 1509.35 1450.04 1519.34 Q1441.32 1529.27 1426.04 1529.27 Q1410.7 1529.27 1401.98 1519.34 Q1393.32 1509.35 1393.32 1491.84 Q1393.32 1474.27 1401.98 1464.34 Q1410.7 1454.41 1426.04 1454.41 Z" fill="#000000" fill-rule="nonzero" fill-opacity="1" /><path clip-path="url(#clip940)" d="M1476.97 1499.29 L1476.97 1456.13 L1488.68 1456.13 L1488.68 1498.84 Q1488.68 1508.96 1492.63 1514.06 Q1496.57 1519.08 1504.47 1519.08 Q1513.95 1519.08 1519.43 1513.04 Q1524.97 1506.99 1524.97 1496.55 L1524.97 1456.13 L1536.68 1456.13 L1536.68 1527.42 L1524.97 1527.42 L1524.97 1516.47 Q1520.7 1522.97 1515.04 1526.15 Q1509.43 1529.27 1501.99 1529.27 Q1489.7 1529.27 1483.33 1521.63 Q1476.97 1513.99 1476.97 1499.29 M1506.44 1454.41 L1506.44 1454.41 Z" fill="#000000" fill-rule="nonzero" fill-opacity="1" /><path clip-path="url(#clip940)" d="M1602.12 1467.08 Q1600.14 1465.93 1597.79 1465.42 Q1595.5 1464.85 1592.7 1464.85 Q1582.77 1464.85 1577.42 1471.34 Q1572.14 1477.77 1572.14 1489.87 L1572.14 1527.42 L1560.36 1527.42 L1560.36 1456.13 L1572.14 1456.13 L1572.14 1467.2 Q1575.83 1460.71 1581.75 1457.59 Q1587.67 1454.41 1596.13 1454.41 Q1597.34 1454.41 1598.81 1454.6 Q1600.27 1454.73 1602.05 1455.05 L1602.12 1467.08 Z" fill="#000000" fill-rule="nonzero" fill-opacity="1" /><path clip-path="url(#clip940)" d="M1659.86 1458.23 L1659.86 1469.3 Q1654.89 1466.76 1649.54 1465.49 Q1644.2 1464.21 1638.47 1464.21 Q1629.75 1464.21 1625.35 1466.89 Q1621.02 1469.56 1621.02 1474.91 Q1621.02 1478.98 1624.14 1481.34 Q1627.26 1483.63 1636.68 1485.73 L1640.69 1486.62 Q1653.17 1489.29 1658.39 1494.19 Q1663.67 1499.03 1663.67 1507.75 Q1663.67 1517.68 1655.78 1523.48 Q1647.95 1529.27 1634.2 1529.27 Q1628.47 1529.27 1622.23 1528.12 Q1616.06 1527.04 1609.18 1524.81 L1609.18 1512.72 Q1615.68 1516.09 1621.98 1517.81 Q1628.28 1519.47 1634.46 1519.47 Q1642.73 1519.47 1647.19 1516.67 Q1651.64 1513.8 1651.64 1508.64 Q1651.64 1503.87 1648.4 1501.32 Q1645.21 1498.78 1634.33 1496.42 L1630.25 1495.47 Q1619.37 1493.18 1614.53 1488.47 Q1609.69 1483.69 1609.69 1475.42 Q1609.69 1465.36 1616.82 1459.88 Q1623.95 1454.41 1637.07 1454.41 Q1643.56 1454.41 1649.29 1455.36 Q1655.02 1456.32 1659.86 1458.23 Z" fill="#000000" fill-rule="nonzero" fill-opacity="1" /><polyline clip-path="url(#clip942)" style="stroke:#000000; stroke-linecap:round; stroke-linejoin:round; stroke-width:4; stroke-opacity:0.1; fill:none" points="673.506,1138.7 2305.51,1138.7 "/>
<polyline clip-path="url(#clip942)" style="stroke:#000000; stroke-linecap:round; stroke-linejoin:round; stroke-width:4; stroke-opacity:0.1; fill:none" points="673.506,904.913 2305.51,904.913 "/>
<polyline clip-path="url(#clip942)" style="stroke:#000000; stroke-linecap:round; stroke-linejoin:round; stroke-width:4; stroke-opacity:0.1; fill:none" points="673.506,671.123 2305.51,671.123 "/>
<polyline clip-path="url(#clip942)" style="stroke:#000000; stroke-linecap:round; stroke-linejoin:round; stroke-width:4; stroke-opacity:0.1; fill:none" points="673.506,437.332 2305.51,437.332 "/>
<polyline clip-path="url(#clip942)" style="stroke:#000000; stroke-linecap:round; stroke-linejoin:round; stroke-width:4; stroke-opacity:0.1; fill:none" points="673.506,203.542 2305.51,203.542 "/>
<polyline clip-path="url(#clip940)" style="stroke:#000000; stroke-linecap:round; stroke-linejoin:round; stroke-width:8; stroke-opacity:1; fill:none" points="673.506,1273.7 673.506,94.4882 "/>
<polyline clip-path="url(#clip940)" style="stroke:#000000; stroke-linecap:round; stroke-linejoin:round; stroke-width:8; stroke-opacity:1; fill:none" points="673.506,1138.7 692.404,1138.7 "/>
<polyline clip-path="url(#clip940)" style="stroke:#000000; stroke-linecap:round; stroke-linejoin:round; stroke-width:8; stroke-opacity:1; fill:none" points="673.506,904.913 692.404,904.913 "/>
<polyline clip-path="url(#clip940)" style="stroke:#000000; stroke-linecap:round; stroke-linejoin:round; stroke-width:8; stroke-opacity:1; fill:none" points="673.506,671.123 692.404,671.123 "/>
<polyline clip-path="url(#clip940)" style="stroke:#000000; stroke-linecap:round; stroke-linejoin:round; stroke-width:8; stroke-opacity:1; fill:none" points="673.506,437.332 692.404,437.332 "/>
<polyline clip-path="url(#clip940)" style="stroke:#000000; stroke-linecap:round; stroke-linejoin:round; stroke-width:8; stroke-opacity:1; fill:none" points="673.506,203.542 692.404,203.542 "/>
<path clip-path="url(#clip940)" d="M462.831 1140.44 Q456.164 1140.44 452.322 1144 Q448.525 1147.57 448.525 1153.82 Q448.525 1160.07 452.322 1163.63 Q456.164 1167.2 462.831 1167.2 Q469.498 1167.2 473.34 1163.63 Q477.183 1160.02 477.183 1153.82 Q477.183 1147.57 473.34 1144 Q469.544 1140.44 462.831 1140.44 M453.479 1136.46 Q447.461 1134.98 444.081 1130.86 Q440.748 1126.74 440.748 1120.81 Q440.748 1112.52 446.627 1107.71 Q452.553 1102.89 462.831 1102.89 Q473.155 1102.89 479.035 1107.71 Q484.914 1112.52 484.914 1120.81 Q484.914 1126.74 481.535 1130.86 Q478.201 1134.98 472.229 1136.46 Q478.988 1138.03 482.738 1142.62 Q486.535 1147.2 486.535 1153.82 Q486.535 1163.87 480.377 1169.24 Q474.266 1174.61 462.831 1174.61 Q451.396 1174.61 445.238 1169.24 Q439.127 1163.87 439.127 1153.82 Q439.127 1147.2 442.924 1142.62 Q446.72 1138.03 453.479 1136.46 M450.053 1121.69 Q450.053 1127.06 453.387 1130.07 Q456.766 1133.08 462.831 1133.08 Q468.849 1133.08 472.229 1130.07 Q475.655 1127.06 475.655 1121.69 Q475.655 1116.32 472.229 1113.31 Q468.849 1110.3 462.831 1110.3 Q456.766 1110.3 453.387 1113.31 Q450.053 1116.32 450.053 1121.69 Z" fill="#000000" fill-rule="nonzero" fill-opacity="1" /><path clip-path="url(#clip940)" d="M523.155 1110.3 Q515.933 1110.3 512.275 1117.43 Q508.664 1124.51 508.664 1138.77 Q508.664 1152.99 512.275 1160.12 Q515.933 1167.2 523.155 1167.2 Q530.423 1167.2 534.034 1160.12 Q537.692 1152.99 537.692 1138.77 Q537.692 1124.51 534.034 1117.43 Q530.423 1110.3 523.155 1110.3 M523.155 1102.89 Q534.775 1102.89 540.886 1112.11 Q547.043 1121.27 547.043 1138.77 Q547.043 1156.23 540.886 1165.44 Q534.775 1174.61 523.155 1174.61 Q511.534 1174.61 505.377 1165.44 Q499.266 1156.23 499.266 1138.77 Q499.266 1121.27 505.377 1112.11 Q511.534 1102.89 523.155 1102.89 Z" fill="#000000" fill-rule="nonzero" fill-opacity="1" /><path clip-path="url(#clip940)" d="M563.479 1161.5 L573.247 1161.5 L573.247 1173.26 L563.479 1173.26 L563.479 1161.5 Z" fill="#000000" fill-rule="nonzero" fill-opacity="1" /><path clip-path="url(#clip940)" d="M613.617 1110.3 Q606.395 1110.3 602.738 1117.43 Q599.127 1124.51 599.127 1138.77 Q599.127 1152.99 602.738 1160.12 Q606.395 1167.2 613.617 1167.2 Q620.886 1167.2 624.497 1160.12 Q628.154 1152.99 628.154 1138.77 Q628.154 1124.51 624.497 1117.43 Q620.886 1110.3 613.617 1110.3 M613.617 1102.89 Q625.238 1102.89 631.349 1112.11 Q637.506 1121.27 637.506 1138.77 Q637.506 1156.23 631.349 1165.44 Q625.238 1174.61 613.617 1174.61 Q601.997 1174.61 595.84 1165.44 Q589.728 1156.23 589.728 1138.77 Q589.728 1121.27 595.84 1112.11 Q601.997 1102.89 613.617 1102.89 Z" fill="#000000" fill-rule="nonzero" fill-opacity="1" /><path clip-path="url(#clip940)" d="M384.128 931.603 L399.405 931.603 L399.405 878.872 L382.785 882.205 L382.785 873.687 L399.313 870.353 L408.665 870.353 L408.665 931.603 L423.942 931.603 L423.942 939.473 L384.128 939.473 L384.128 931.603 Z" fill="#000000" fill-rule="nonzero" fill-opacity="1" /><path clip-path="url(#clip940)" d="M462.831 876.511 Q455.609 876.511 451.951 883.64 Q448.34 890.724 448.34 904.983 Q448.34 919.196 451.951 926.325 Q455.609 933.409 462.831 933.409 Q470.099 933.409 473.711 926.325 Q477.368 919.196 477.368 904.983 Q477.368 890.724 473.711 883.64 Q470.099 876.511 462.831 876.511 M462.831 869.103 Q474.451 869.103 480.562 878.316 Q486.72 887.483 486.72 904.983 Q486.72 922.437 480.562 931.649 Q474.451 940.816 462.831 940.816 Q451.211 940.816 445.053 931.649 Q438.942 922.437 438.942 904.983 Q438.942 887.483 445.053 878.316 Q451.211 869.103 462.831 869.103 Z" fill="#000000" fill-rule="nonzero" fill-opacity="1" /><path clip-path="url(#clip940)" d="M523.155 876.511 Q515.933 876.511 512.275 883.64 Q508.664 890.724 508.664 904.983 Q508.664 919.196 512.275 926.325 Q515.933 933.409 523.155 933.409 Q530.423 933.409 534.034 926.325 Q537.692 919.196 537.692 904.983 Q537.692 890.724 534.034 883.64 Q530.423 876.511 523.155 876.511 M523.155 869.103 Q534.775 869.103 540.886 878.316 Q547.043 887.483 547.043 904.983 Q547.043 922.437 540.886 931.649 Q534.775 940.816 523.155 940.816 Q511.534 940.816 505.377 931.649 Q499.266 922.437 499.266 904.983 Q499.266 887.483 505.377 878.316 Q511.534 869.103 523.155 869.103 Z" fill="#000000" fill-rule="nonzero" fill-opacity="1" /><path clip-path="url(#clip940)" d="M563.479 927.714 L573.247 927.714 L573.247 939.473 L563.479 939.473 L563.479 927.714 Z" fill="#000000" fill-rule="nonzero" fill-opacity="1" /><path clip-path="url(#clip940)" d="M613.617 876.511 Q606.395 876.511 602.738 883.64 Q599.127 890.724 599.127 904.983 Q599.127 919.196 602.738 926.325 Q606.395 933.409 613.617 933.409 Q620.886 933.409 624.497 926.325 Q628.154 919.196 628.154 904.983 Q628.154 890.724 624.497 883.64 Q620.886 876.511 613.617 876.511 M613.617 869.103 Q625.238 869.103 631.349 878.316 Q637.506 887.483 637.506 904.983 Q637.506 922.437 631.349 931.649 Q625.238 940.816 613.617 940.816 Q601.997 940.816 595.84 931.649 Q589.728 922.437 589.728 904.983 Q589.728 887.483 595.84 878.316 Q601.997 869.103 613.617 869.103 Z" fill="#000000" fill-rule="nonzero" fill-opacity="1" /><path clip-path="url(#clip940)" d="M384.128 697.813 L399.405 697.813 L399.405 645.081 L382.785 648.415 L382.785 639.896 L399.313 636.563 L408.665 636.563 L408.665 697.813 L423.942 697.813 L423.942 705.683 L384.128 705.683 L384.128 697.813 Z" fill="#000000" fill-rule="nonzero" fill-opacity="1" /><path clip-path="url(#clip940)" d="M450.887 697.813 L483.525 697.813 L483.525 705.683 L439.637 705.683 L439.637 697.813 Q444.961 692.303 454.127 683.044 Q463.34 673.739 465.701 671.054 Q470.192 666.007 471.951 662.535 Q473.757 659.017 473.757 655.637 Q473.757 650.128 469.868 646.656 Q466.025 643.183 459.822 643.183 Q455.424 643.183 450.516 644.711 Q445.655 646.239 440.1 649.341 L440.1 639.896 Q445.748 637.628 450.655 636.47 Q455.562 635.313 459.637 635.313 Q470.377 635.313 476.766 640.683 Q483.155 646.054 483.155 655.035 Q483.155 659.294 481.535 663.137 Q479.961 666.933 475.748 672.118 Q474.59 673.461 468.387 679.896 Q462.183 686.285 450.887 697.813 Z" fill="#000000" fill-rule="nonzero" fill-opacity="1" /><path clip-path="url(#clip940)" d="M523.155 642.72 Q515.933 642.72 512.275 649.85 Q508.664 656.933 508.664 671.192 Q508.664 685.405 512.275 692.535 Q515.933 699.618 523.155 699.618 Q530.423 699.618 534.034 692.535 Q537.692 685.405 537.692 671.192 Q537.692 656.933 534.034 649.85 Q530.423 642.72 523.155 642.72 M523.155 635.313 Q534.775 635.313 540.886 644.526 Q547.043 653.693 547.043 671.192 Q547.043 688.646 540.886 697.859 Q534.775 707.026 523.155 707.026 Q511.534 707.026 505.377 697.859 Q499.266 688.646 499.266 671.192 Q499.266 653.693 505.377 644.526 Q511.534 635.313 523.155 635.313 Z" fill="#000000" fill-rule="nonzero" fill-opacity="1" /><path clip-path="url(#clip940)" d="M563.479 693.924 L573.247 693.924 L573.247 705.683 L563.479 705.683 L563.479 693.924 Z" fill="#000000" fill-rule="nonzero" fill-opacity="1" /><path clip-path="url(#clip940)" d="M613.617 642.72 Q606.395 642.72 602.738 649.85 Q599.127 656.933 599.127 671.192 Q599.127 685.405 602.738 692.535 Q606.395 699.618 613.617 699.618 Q620.886 699.618 624.497 692.535 Q628.154 685.405 628.154 671.192 Q628.154 656.933 624.497 649.85 Q620.886 642.72 613.617 642.72 M613.617 635.313 Q625.238 635.313 631.349 644.526 Q637.506 653.693 637.506 671.192 Q637.506 688.646 631.349 697.859 Q625.238 707.026 613.617 707.026 Q601.997 707.026 595.84 697.859 Q589.728 688.646 589.728 671.192 Q589.728 653.693 595.84 644.526 Q601.997 635.313 613.617 635.313 Z" fill="#000000" fill-rule="nonzero" fill-opacity="1" /><path clip-path="url(#clip940)" d="M384.128 464.022 L399.405 464.022 L399.405 411.291 L382.785 414.624 L382.785 406.106 L399.313 402.772 L408.665 402.772 L408.665 464.022 L423.942 464.022 L423.942 471.892 L384.128 471.892 L384.128 464.022 Z" fill="#000000" fill-rule="nonzero" fill-opacity="1" /><path clip-path="url(#clip940)" d="M468.525 410.921 L444.914 447.819 L468.525 447.819 L468.525 410.921 M466.072 402.772 L477.831 402.772 L477.831 447.819 L487.692 447.819 L487.692 455.596 L477.831 455.596 L477.831 471.892 L468.525 471.892 L468.525 455.596 L437.322 455.596 L437.322 446.569 L466.072 402.772 Z" fill="#000000" fill-rule="nonzero" fill-opacity="1" /><path clip-path="url(#clip940)" d="M523.155 408.93 Q515.933 408.93 512.275 416.059 Q508.664 423.143 508.664 437.402 Q508.664 451.615 512.275 458.744 Q515.933 465.828 523.155 465.828 Q530.423 465.828 534.034 458.744 Q537.692 451.615 537.692 437.402 Q537.692 423.143 534.034 416.059 Q530.423 408.93 523.155 408.93 M523.155 401.522 Q534.775 401.522 540.886 410.735 Q547.043 419.902 547.043 437.402 Q547.043 454.856 540.886 464.068 Q534.775 473.235 523.155 473.235 Q511.534 473.235 505.377 464.068 Q499.266 454.856 499.266 437.402 Q499.266 419.902 505.377 410.735 Q511.534 401.522 523.155 401.522 Z" fill="#000000" fill-rule="nonzero" fill-opacity="1" /><path clip-path="url(#clip940)" d="M563.479 460.133 L573.247 460.133 L573.247 471.892 L563.479 471.892 L563.479 460.133 Z" fill="#000000" fill-rule="nonzero" fill-opacity="1" /><path clip-path="url(#clip940)" d="M613.617 408.93 Q606.395 408.93 602.738 416.059 Q599.127 423.143 599.127 437.402 Q599.127 451.615 602.738 458.744 Q606.395 465.828 613.617 465.828 Q620.886 465.828 624.497 458.744 Q628.154 451.615 628.154 437.402 Q628.154 423.143 624.497 416.059 Q620.886 408.93 613.617 408.93 M613.617 401.522 Q625.238 401.522 631.349 410.735 Q637.506 419.902 637.506 437.402 Q637.506 454.856 631.349 464.068 Q625.238 473.235 613.617 473.235 Q601.997 473.235 595.84 464.068 Q589.728 454.856 589.728 437.402 Q589.728 419.902 595.84 410.735 Q601.997 401.522 613.617 401.522 Z" fill="#000000" fill-rule="nonzero" fill-opacity="1" /><path clip-path="url(#clip940)" d="M384.128 230.232 L399.405 230.232 L399.405 177.5 L382.785 180.834 L382.785 172.315 L399.313 168.982 L408.665 168.982 L408.665 230.232 L423.942 230.232 L423.942 238.102 L384.128 238.102 L384.128 230.232 Z" fill="#000000" fill-rule="nonzero" fill-opacity="1" /><path clip-path="url(#clip940)" d="M463.988 199.815 Q457.692 199.815 453.988 204.121 Q450.331 208.426 450.331 215.926 Q450.331 223.38 453.988 227.732 Q457.692 232.037 463.988 232.037 Q470.285 232.037 473.942 227.732 Q477.646 223.38 477.646 215.926 Q477.646 208.426 473.942 204.121 Q470.285 199.815 463.988 199.815 M482.553 170.51 L482.553 179.028 Q479.035 177.362 475.424 176.482 Q471.859 175.602 468.34 175.602 Q459.081 175.602 454.174 181.852 Q449.313 188.102 448.618 200.741 Q451.35 196.713 455.47 194.584 Q459.59 192.408 464.544 192.408 Q474.961 192.408 480.979 198.75 Q487.044 205.047 487.044 215.926 Q487.044 226.574 480.748 233.009 Q474.451 239.445 463.988 239.445 Q451.998 239.445 445.655 230.278 Q439.313 221.065 439.313 203.611 Q439.313 187.223 447.09 177.5 Q454.868 167.732 467.97 167.732 Q471.488 167.732 475.053 168.426 Q478.664 169.121 482.553 170.51 Z" fill="#000000" fill-rule="nonzero" fill-opacity="1" /><path clip-path="url(#clip940)" d="M523.155 175.139 Q515.933 175.139 512.275 182.269 Q508.664 189.352 508.664 203.611 Q508.664 217.824 512.275 224.954 Q515.933 232.037 523.155 232.037 Q530.423 232.037 534.034 224.954 Q537.692 217.824 537.692 203.611 Q537.692 189.352 534.034 182.269 Q530.423 175.139 523.155 175.139 M523.155 167.732 Q534.775 167.732 540.886 176.945 Q547.043 186.112 547.043 203.611 Q547.043 221.065 540.886 230.278 Q534.775 239.445 523.155 239.445 Q511.534 239.445 505.377 230.278 Q499.266 221.065 499.266 203.611 Q499.266 186.112 505.377 176.945 Q511.534 167.732 523.155 167.732 Z" fill="#000000" fill-rule="nonzero" fill-opacity="1" /><path clip-path="url(#clip940)" d="M563.479 226.343 L573.247 226.343 L573.247 238.102 L563.479 238.102 L563.479 226.343 Z" fill="#000000" fill-rule="nonzero" fill-opacity="1" /><path clip-path="url(#clip940)" d="M613.617 175.139 Q606.395 175.139 602.738 182.269 Q599.127 189.352 599.127 203.611 Q599.127 217.824 602.738 224.954 Q606.395 232.037 613.617 232.037 Q620.886 232.037 624.497 224.954 Q628.154 217.824 628.154 203.611 Q628.154 189.352 624.497 182.269 Q620.886 175.139 613.617 175.139 M613.617 167.732 Q625.238 167.732 631.349 176.945 Q637.506 186.112 637.506 203.611 Q637.506 221.065 631.349 230.278 Q625.238 239.445 613.617 239.445 Q601.997 239.445 595.84 230.278 Q589.728 221.065 589.728 203.611 Q589.728 186.112 595.84 176.945 Q601.997 167.732 613.617 167.732 Z" fill="#000000" fill-rule="nonzero" fill-opacity="1" /><path clip-path="url(#clip940)" d="M307.579 931.4 L345.391 931.4 L345.391 943.176 L246.977 943.176 L246.977 931.4 L257.799 931.4 Q251.433 927.708 248.378 922.106 Q245.258 916.44 245.258 908.61 Q245.258 895.624 255.571 887.54 Q265.883 879.392 282.689 879.392 Q299.494 879.392 309.807 887.54 Q320.119 895.624 320.119 908.61 Q320.119 916.44 317.064 922.106 Q313.944 927.708 307.579 931.4 M282.689 891.55 Q269.766 891.55 262.446 896.898 Q255.062 902.181 255.062 911.475 Q255.062 920.769 262.446 926.116 Q269.766 931.4 282.689 931.4 Q295.611 931.4 302.995 926.116 Q310.316 920.769 310.316 911.475 Q310.316 902.181 302.995 896.898 Q295.611 891.55 282.689 891.55 Z" fill="#000000" fill-rule="nonzero" fill-opacity="1" /><path clip-path="url(#clip940)" d="M282.434 827.575 Q282.434 841.771 285.681 847.245 Q288.927 852.72 296.757 852.72 Q302.995 852.72 306.688 848.645 Q310.316 844.508 310.316 837.442 Q310.316 827.702 303.441 821.846 Q296.502 815.926 285.044 815.926 L282.434 815.926 L282.434 827.575 M277.596 804.213 L318.273 804.213 L318.273 815.926 L307.451 815.926 Q313.944 819.936 317.064 825.92 Q320.119 831.904 320.119 840.561 Q320.119 851.51 314.008 858.003 Q307.833 864.432 297.521 864.432 Q285.49 864.432 279.379 856.412 Q273.268 848.327 273.268 832.349 L273.268 815.926 L272.122 815.926 Q264.037 815.926 259.645 821.273 Q255.189 826.556 255.189 836.169 Q255.189 842.28 256.653 848.073 Q258.117 853.865 261.045 859.213 L250.224 859.213 Q247.741 852.783 246.532 846.736 Q245.258 840.688 245.258 834.959 Q245.258 819.491 253.279 811.852 Q261.3 804.213 277.596 804.213 Z" fill="#000000" fill-rule="nonzero" fill-opacity="1" /><path clip-path="url(#clip940)" d="M257.926 738.773 Q256.78 740.747 256.271 743.102 Q255.698 745.394 255.698 748.195 Q255.698 758.125 262.191 763.472 Q268.621 768.756 280.715 768.756 L318.273 768.756 L318.273 780.532 L246.977 780.532 L246.977 768.756 L258.054 768.756 Q251.561 765.064 248.441 759.144 Q245.258 753.224 245.258 744.757 Q245.258 743.548 245.449 742.084 Q245.577 740.619 245.895 738.837 L257.926 738.773 Z" fill="#000000" fill-rule="nonzero" fill-opacity="1" /><path clip-path="url(#clip940)" d="M279.697 668.369 L285.426 668.369 L285.426 722.223 Q297.521 721.459 303.887 714.966 Q310.189 708.409 310.189 696.76 Q310.189 690.012 308.534 683.71 Q306.878 677.344 303.568 671.106 L314.645 671.106 Q317.318 677.408 318.719 684.028 Q320.119 690.649 320.119 697.46 Q320.119 714.52 310.189 724.514 Q300.258 734.445 283.325 734.445 Q265.82 734.445 255.571 725.023 Q245.258 715.539 245.258 699.497 Q245.258 685.11 254.552 676.771 Q263.783 668.369 279.697 668.369 M276.259 680.082 Q266.647 680.209 260.918 685.492 Q255.189 690.712 255.189 699.37 Q255.189 709.173 260.727 715.093 Q266.265 720.949 276.323 721.841 L276.259 680.082 Z" fill="#000000" fill-rule="nonzero" fill-opacity="1" /><path clip-path="url(#clip940)" d="M275.241 589.88 L318.273 589.88 L318.273 601.592 L275.623 601.592 Q265.501 601.592 260.472 605.539 Q255.444 609.486 255.444 617.379 Q255.444 626.864 261.491 632.339 Q267.538 637.813 277.978 637.813 L318.273 637.813 L318.273 649.59 L246.977 649.59 L246.977 637.813 L258.054 637.813 Q251.624 633.612 248.441 627.946 Q245.258 622.217 245.258 614.769 Q245.258 602.484 252.897 596.182 Q260.472 589.88 275.241 589.88 Z" fill="#000000" fill-rule="nonzero" fill-opacity="1" /><path clip-path="url(#clip940)" d="M302.104 564.862 L302.104 551.431 L318.273 551.431 L318.273 564.862 L302.104 564.862 Z" fill="#000000" fill-rule="nonzero" fill-opacity="1" /><path clip-path="url(#clip940)" d="M307.451 479.753 L307.451 458.746 L234.946 458.746 L239.529 481.599 L227.816 481.599 L223.233 458.873 L223.233 446.015 L307.451 446.015 L307.451 425.008 L318.273 425.008 L318.273 479.753 L307.451 479.753 Z" fill="#000000" fill-rule="nonzero" fill-opacity="1" /><polyline clip-path="url(#clip942)" style="stroke:#008000; stroke-linecap:round; stroke-linejoin:round; stroke-width:8; stroke-opacity:1; fill:none" points="719.695,251.422 838.128,336.233 956.561,384.29 1074.99,557.032 1193.43,656.686 1311.86,724.809 1430.29,851.099 1548.73,852.934 1667.16,938.521 1785.59,1009.59 1904.02,998.572 2022.46,1048.15 2140.89,1224.61 2259.32,1240.32 "/>
<circle clip-path="url(#clip942)" cx="719.695" cy="251.422" r="14.4" fill="#008000" fill-rule="evenodd" fill-opacity="1" stroke="#000000" stroke-opacity="1" stroke-width="6.4"/>
<circle clip-path="url(#clip942)" cx="838.128" cy="336.233" r="14.4" fill="#008000" fill-rule="evenodd" fill-opacity="1" stroke="#000000" stroke-opacity="1" stroke-width="6.4"/>
<circle clip-path="url(#clip942)" cx="956.561" cy="384.29" r="14.4" fill="#008000" fill-rule="evenodd" fill-opacity="1" stroke="#000000" stroke-opacity="1" stroke-width="6.4"/>
<circle clip-path="url(#clip942)" cx="1074.99" cy="557.032" r="14.4" fill="#008000" fill-rule="evenodd" fill-opacity="1" stroke="#000000" stroke-opacity="1" stroke-width="6.4"/>
<circle clip-path="url(#clip942)" cx="1193.43" cy="656.686" r="14.4" fill="#008000" fill-rule="evenodd" fill-opacity="1" stroke="#000000" stroke-opacity="1" stroke-width="6.4"/>
<circle clip-path="url(#clip942)" cx="1311.86" cy="724.809" r="14.4" fill="#008000" fill-rule="evenodd" fill-opacity="1" stroke="#000000" stroke-opacity="1" stroke-width="6.4"/>
<circle clip-path="url(#clip942)" cx="1430.29" cy="851.099" r="14.4" fill="#008000" fill-rule="evenodd" fill-opacity="1" stroke="#000000" stroke-opacity="1" stroke-width="6.4"/>
<circle clip-path="url(#clip942)" cx="1548.73" cy="852.934" r="14.4" fill="#008000" fill-rule="evenodd" fill-opacity="1" stroke="#000000" stroke-opacity="1" stroke-width="6.4"/>
<circle clip-path="url(#clip942)" cx="1667.16" cy="938.521" r="14.4" fill="#008000" fill-rule="evenodd" fill-opacity="1" stroke="#000000" stroke-opacity="1" stroke-width="6.4"/>
<circle clip-path="url(#clip942)" cx="1785.59" cy="1009.59" r="14.4" fill="#008000" fill-rule="evenodd" fill-opacity="1" stroke="#000000" stroke-opacity="1" stroke-width="6.4"/>
<circle clip-path="url(#clip942)" cx="1904.02" cy="998.572" r="14.4" fill="#008000" fill-rule="evenodd" fill-opacity="1" stroke="#000000" stroke-opacity="1" stroke-width="6.4"/>
<circle clip-path="url(#clip942)" cx="2022.46" cy="1048.15" r="14.4" fill="#008000" fill-rule="evenodd" fill-opacity="1" stroke="#000000" stroke-opacity="1" stroke-width="6.4"/>
<circle clip-path="url(#clip942)" cx="2140.89" cy="1224.61" r="14.4" fill="#008000" fill-rule="evenodd" fill-opacity="1" stroke="#000000" stroke-opacity="1" stroke-width="6.4"/>
<circle clip-path="url(#clip942)" cx="2259.32" cy="1240.32" r="14.4" fill="#008000" fill-rule="evenodd" fill-opacity="1" stroke="#000000" stroke-opacity="1" stroke-width="6.4"/>
<polyline clip-path="url(#clip942)" style="stroke:#00008b; stroke-linecap:round; stroke-linejoin:round; stroke-width:8; stroke-opacity:1; fill:none" points="719.695,165.122 838.128,372.728 956.561,486.624 1074.99,577.739 1193.43,662.634 1311.86,735.857 1430.29,804.047 1548.73,862.301 1667.16,918.323 1785.59,966.968 1904.02,1011.34 2022.46,1048.82 2140.89,1088.61 2259.32,1121.63 "/>
<path clip-path="url(#clip942)" d="M719.695 201.948 L838.128 409 L956.561 524.366 L1074.99 616.245 L1193.43 699.176 L1311.86 773.054 L1430.29 843.175 L1548.73 899.125 L1667.16 953.129 L1785.59 1003.5 L1904.02 1046.45 L2022.46 1085.65 L2140.89 1124.34 L2259.32 1159.86 L2259.32 1085.16 L2140.89 1051.56 L2022.46 1011.44 L1904.02 977.621 L1785.59 932.258 L1667.16 883.536 L1548.73 824.667 L1430.29 766.634 L1311.86 697.475 L1193.43 623.634 L1074.99 539.628 L956.561 450.023 L838.128 335.253 L719.695 127.862  Z" fill="#0000ff" fill-rule="evenodd" fill-opacity="0.1"/>
<polyline clip-path="url(#clip942)" style="stroke:#0000ff; stroke-linecap:round; stroke-linejoin:round; stroke-width:0; stroke-opacity:0.1; fill:none" points="719.695,201.948 838.128,409 956.561,524.366 1074.99,616.245 1193.43,699.176 1311.86,773.054 1430.29,843.175 1548.73,899.125 1667.16,953.129 1785.59,1003.5 1904.02,1046.45 2022.46,1085.65 2140.89,1124.34 2259.32,1159.86 "/>
</svg>
