<?xml version="1.0" encoding="utf-8"?>
<svg xmlns="http://www.w3.org/2000/svg" xmlns:xlink="http://www.w3.org/1999/xlink" width="600" height="400" viewBox="0 0 2400 1600">
<defs>
  <clipPath id="clip860">
    <rect x="0" y="0" width="2400" height="1600"/>
  </clipPath>
</defs>
<path clip-path="url(#clip860)" d="M0 1600 L2400 1600 L2400 0 L0 0  Z" fill="#ffffff" fill-rule="evenodd" fill-opacity="1"/>
<defs>
  <clipPath id="clip861">
    <rect x="480" y="0" width="1681" height="1600"/>
  </clipPath>
</defs>
<path clip-path="url(#clip860)" d="M673.506 1273.7 L2305.51 1273.7 L2305.51 94.4882 L673.506 94.4882  Z" fill="#ffffff" fill-rule="evenodd" fill-opacity="1"/>
<defs>
  <clipPath id="clip862">
    <rect x="673" y="94" width="1633" height="1180"/>
  </clipPath>
</defs>
<polyline clip-path="url(#clip862)" style="stroke:#000000; stroke-linecap:round; stroke-linejoin:round; stroke-width:4; stroke-opacity:0.1; fill:none" points="719.695,1273.7 719.695,94.4882 "/>
<polyline clip-path="url(#clip862)" style="stroke:#000000; stroke-linecap:round; stroke-linejoin:round; stroke-width:4; stroke-opacity:0.1; fill:none" points="956.561,1273.7 956.561,94.4882 "/>
<polyline clip-path="url(#clip862)" style="stroke:#000000; stroke-linecap:round; stroke-linejoin:round; stroke-width:4; stroke-opacity:0.1; fill:none" points="1193.43,1273.7 1193.43,94.4882 "/>
<polyline clip-path="url(#clip862)" style="stroke:#000000; stroke-linecap:round; stroke-linejoin:round; stroke-width:4; stroke-opacity:0.1; fill:none" points="1430.29,1273.7 1430.29,94.4882 "/>
<polyline clip-path="url(#clip862)" style="stroke:#000000; stroke-linecap:round; stroke-linejoin:round; stroke-width:4; stroke-opacity:0.1; fill:none" points="1667.16,1273.7 1667.16,94.4882 "/>
<polyline clip-path="url(#clip862)" style="stroke:#000000; stroke-linecap:round; stroke-linejoin:round; stroke-width:4; stroke-opacity:0.1; fill:none" points="1904.02,1273.7 1904.02,94.4882 "/>
<polyline clip-path="url(#clip862)" style="stroke:#000000; stroke-linecap:round; stroke-linejoin:round; stroke-width:4; stroke-opacity:0.1; fill:none" points="2140.89,1273.7 2140.89,94.4882 "/>
<polyline clip-path="url(#clip860)" style="stroke:#000000; stroke-linecap:round; stroke-linejoin:round; stroke-width:8; stroke-opacity:1; fill:none" points="673.506,1273.7 2305.51,1273.7 "/>
<polyline clip-path="url(#clip860)" style="stroke:#000000; stroke-linecap:round; stroke-linejoin:round; stroke-width:8; stroke-opacity:1; fill:none" points="719.695,1273.7 719.695,1254.8 "/>
<polyline clip-path="url(#clip860)" style="stroke:#000000; stroke-linecap:round; stroke-linejoin:round; stroke-width:8; stroke-opacity:1; fill:none" points="956.561,1273.7 956.561,1254.8 "/>
<polyline clip-path="url(#clip860)" style="stroke:#000000; stroke-linecap:round; stroke-linejoin:round; stroke-width:8; stroke-opacity:1; fill:none" points="1193.43,1273.7 1193.43,1254.8 "/>
<polyline clip-path="url(#clip860)" style="stroke:#000000; stroke-linecap:round; stroke-linejoin:round; stroke-width:8; stroke-opacity:1; fill:none" points="1430.29,1273.7 1430.29,1254.8 "/>
<polyline clip-path="url(#clip860)" style="stroke:#000000; stroke-linecap:round; stroke-linejoin:round; stroke-width:8; stroke-opacity:1; fill:none" points="1667.16,1273.7 1667.16,1254.8 "/>
<polyline clip-path="url(#clip860)" style="stroke:#000000; stroke-linecap:round; stroke-linejoin:round; stroke-width:8; stroke-opacity:1; fill:none" points="1904.02,1273.7 1904.02,1254.8 "/>
<polyline clip-path="url(#clip860)" style="stroke:#000000; stroke-linecap:round; stroke-linejoin:round; stroke-width:8; stroke-opacity:1; fill:none" points="2140.89,1273.7 2140.89,1254.8 "/>
<path clip-path="url(#clip860)" d="M674.464 1316.33 Q667.241 1316.33 663.584 1323.46 Q659.973 1330.55 659.973 1344.81 Q659.973 1359.02 663.584 1366.15 Q667.241 1373.23 674.464 1373.23 Q681.732 1373.23 685.343 1366.15 Q689.001 1359.02 689.001 1344.81 Q689.001 1330.55 685.343 1323.46 Q681.732 1316.33 674.464 1316.33 M674.464 1308.93 Q686.084 1308.93 692.195 1318.14 Q698.352 1327.31 698.352 1344.81 Q698.352 1362.26 692.195 1371.47 Q686.084 1380.64 674.464 1380.64 Q662.843 1380.64 656.686 1371.47 Q650.575 1362.26 650.575 1344.81 Q650.575 1327.31 656.686 1318.14 Q662.843 1308.93 674.464 1308.93 Z" fill="#000000" fill-rule="nonzero" fill-opacity="1" /><path clip-path="url(#clip860)" d="M714.787 1367.54 L724.556 1367.54 L724.556 1379.3 L714.787 1379.3 L714.787 1367.54 Z" fill="#000000" fill-rule="nonzero" fill-opacity="1" /><path clip-path="url(#clip860)" d="M764.926 1316.33 Q757.704 1316.33 754.046 1323.46 Q750.435 1330.55 750.435 1344.81 Q750.435 1359.02 754.046 1366.15 Q757.704 1373.23 764.926 1373.23 Q772.195 1373.23 775.806 1366.15 Q779.463 1359.02 779.463 1344.81 Q779.463 1330.55 775.806 1323.46 Q772.195 1316.33 764.926 1316.33 M764.926 1308.93 Q776.546 1308.93 782.657 1318.14 Q788.815 1327.31 788.815 1344.81 Q788.815 1362.26 782.657 1371.47 Q776.546 1380.64 764.926 1380.64 Q753.306 1380.64 747.148 1371.47 Q741.037 1362.26 741.037 1344.81 Q741.037 1327.31 747.148 1318.14 Q753.306 1308.93 764.926 1308.93 Z" fill="#000000" fill-rule="nonzero" fill-opacity="1" /><path clip-path="url(#clip860)" d="M912.927 1316.33 Q905.704 1316.33 902.047 1323.46 Q898.436 1330.55 898.436 1344.81 Q898.436 1359.02 902.047 1366.15 Q905.704 1373.23 912.927 1373.23 Q920.195 1373.23 923.806 1366.15 Q927.464 1359.02 927.464 1344.81 Q927.464 1330.55 923.806 1323.46 Q920.195 1316.33 912.927 1316.33 M912.927 1308.93 Q924.547 1308.93 930.658 1318.14 Q936.815 1327.31 936.815 1344.81 Q936.815 1362.26 930.658 1371.47 Q924.547 1380.64 912.927 1380.64 Q901.306 1380.64 895.149 1371.47 Q889.038 1362.26 889.038 1344.81 Q889.038 1327.31 895.149 1318.14 Q901.306 1308.93 912.927 1308.93 Z" fill="#000000" fill-rule="nonzero" fill-opacity="1" /><path clip-path="url(#clip860)" d="M953.251 1367.54 L963.019 1367.54 L963.019 1379.3 L953.251 1379.3 L953.251 1367.54 Z" fill="#000000" fill-rule="nonzero" fill-opacity="1" /><path clip-path="url(#clip860)" d="M991.445 1371.43 L1024.08 1371.43 L1024.08 1379.3 L980.195 1379.3 L980.195 1371.43 Q985.519 1365.92 994.685 1356.66 Q1003.9 1347.35 1006.26 1344.67 Q1010.75 1339.62 1012.51 1336.15 Q1014.32 1332.63 1014.32 1329.25 Q1014.32 1323.74 1010.43 1320.27 Q1006.58 1316.8 1000.38 1316.8 Q995.982 1316.8 991.074 1318.32 Q986.213 1319.85 980.658 1322.95 L980.658 1313.51 Q986.306 1311.24 991.213 1310.08 Q996.121 1308.93 1000.19 1308.93 Q1010.94 1308.93 1017.32 1314.3 Q1023.71 1319.67 1023.71 1328.65 Q1023.71 1332.91 1022.09 1336.75 Q1020.52 1340.55 1016.31 1345.73 Q1015.15 1347.07 1008.94 1353.51 Q1002.74 1359.9 991.445 1371.43 Z" fill="#000000" fill-rule="nonzero" fill-opacity="1" /><path clip-path="url(#clip860)" d="M1147.71 1316.33 Q1140.49 1316.33 1136.83 1323.46 Q1133.22 1330.55 1133.22 1344.81 Q1133.22 1359.02 1136.83 1366.15 Q1140.49 1373.23 1147.71 1373.23 Q1154.98 1373.23 1158.59 1366.15 Q1162.25 1359.02 1162.25 1344.81 Q1162.25 1330.55 1158.59 1323.46 Q1154.98 1316.33 1147.71 1316.33 M1147.71 1308.93 Q1159.33 1308.93 1165.44 1318.14 Q1171.6 1327.31 1171.6 1344.81 Q1171.6 1362.26 1165.44 1371.47 Q1159.33 1380.64 1147.71 1380.64 Q1136.09 1380.64 1129.93 1371.47 Q1123.82 1362.26 1123.82 1344.81 Q1123.82 1327.31 1129.93 1318.14 Q1136.09 1308.93 1147.71 1308.93 Z" fill="#000000" fill-rule="nonzero" fill-opacity="1" /><path clip-path="url(#clip860)" d="M1188.03 1367.54 L1197.8 1367.54 L1197.8 1379.3 L1188.03 1379.3 L1188.03 1367.54 Z" fill="#000000" fill-rule="nonzero" fill-opacity="1" /><path clip-path="url(#clip860)" d="M1243.87 1318.32 L1220.26 1355.22 L1243.87 1355.22 L1243.87 1318.32 M1241.41 1310.18 L1253.17 1310.18 L1253.17 1355.22 L1263.03 1355.22 L1263.03 1363 L1253.17 1363 L1253.17 1379.3 L1243.87 1379.3 L1243.87 1363 L1212.66 1363 L1212.66 1353.97 L1241.41 1310.18 Z" fill="#000000" fill-rule="nonzero" fill-opacity="1" /><path clip-path="url(#clip860)" d="M1384.9 1316.33 Q1377.68 1316.33 1374.02 1323.46 Q1370.41 1330.55 1370.41 1344.81 Q1370.41 1359.02 1374.02 1366.15 Q1377.68 1373.23 1384.9 1373.23 Q1392.17 1373.23 1395.78 1366.15 Q1399.44 1359.02 1399.44 1344.81 Q1399.44 1330.55 1395.78 1323.46 Q1392.17 1316.33 1384.9 1316.33 M1384.9 1308.93 Q1396.52 1308.93 1402.63 1318.14 Q1408.79 1327.31 1408.79 1344.81 Q1408.79 1362.26 1402.63 1371.47 Q1396.52 1380.64 1384.9 1380.64 Q1373.28 1380.64 1367.12 1371.47 Q1361.01 1362.26 1361.01 1344.81 Q1361.01 1327.31 1367.12 1318.14 Q1373.28 1308.93 1384.9 1308.93 Z" fill="#000000" fill-rule="nonzero" fill-opacity="1" /><path clip-path="url(#clip860)" d="M1425.22 1367.54 L1434.99 1367.54 L1434.99 1379.3 L1425.22 1379.3 L1425.22 1367.54 Z" fill="#000000" fill-rule="nonzero" fill-opacity="1" /><path clip-path="url(#clip860)" d="M1476.52 1341.01 Q1470.22 1341.01 1466.52 1345.31 Q1462.86 1349.62 1462.86 1357.12 Q1462.86 1364.57 1466.52 1368.93 Q1470.22 1373.23 1476.52 1373.23 Q1482.82 1373.23 1486.47 1368.93 Q1490.18 1364.57 1490.18 1357.12 Q1490.18 1349.62 1486.47 1345.31 Q1482.82 1341.01 1476.52 1341.01 M1495.08 1311.7 L1495.08 1320.22 Q1491.57 1318.56 1487.95 1317.68 Q1484.39 1316.8 1480.87 1316.8 Q1471.61 1316.8 1466.7 1323.05 Q1461.84 1329.3 1461.15 1341.93 Q1463.88 1337.91 1468 1335.78 Q1472.12 1333.6 1477.07 1333.6 Q1487.49 1333.6 1493.51 1339.94 Q1499.57 1346.24 1499.57 1357.12 Q1499.57 1367.77 1493.28 1374.2 Q1486.98 1380.64 1476.52 1380.64 Q1464.53 1380.64 1458.19 1371.47 Q1451.84 1362.26 1451.84 1344.81 Q1451.84 1328.42 1459.62 1318.69 Q1467.4 1308.93 1480.5 1308.93 Q1484.02 1308.93 1487.58 1309.62 Q1491.19 1310.31 1495.08 1311.7 Z" fill="#000000" fill-rule="nonzero" fill-opacity="1" /><path clip-path="url(#clip860)" d="M1622.02 1316.33 Q1614.8 1316.33 1611.14 1323.46 Q1607.53 1330.55 1607.53 1344.81 Q1607.53 1359.02 1611.14 1366.15 Q1614.8 1373.23 1622.02 1373.23 Q1629.29 1373.23 1632.9 1366.15 Q1636.56 1359.02 1636.56 1344.81 Q1636.56 1330.55 1632.9 1323.46 Q1629.29 1316.33 1622.02 1316.33 M1622.02 1308.93 Q1633.64 1308.93 1639.75 1318.14 Q1645.91 1327.31 1645.91 1344.81 Q1645.91 1362.26 1639.75 1371.47 Q1633.64 1380.64 1622.02 1380.64 Q1610.4 1380.64 1604.24 1371.47 Q1598.13 1362.26 1598.13 1344.81 Q1598.13 1327.31 1604.24 1318.14 Q1610.4 1308.93 1622.02 1308.93 Z" fill="#000000" fill-rule="nonzero" fill-opacity="1" /><path clip-path="url(#clip860)" d="M1662.34 1367.54 L1672.11 1367.54 L1672.11 1379.3 L1662.34 1379.3 L1662.34 1367.54 Z" fill="#000000" fill-rule="nonzero" fill-opacity="1" /><path clip-path="url(#clip860)" d="M1712.48 1346.47 Q1705.82 1346.47 1701.97 1350.04 Q1698.18 1353.6 1698.18 1359.85 Q1698.18 1366.1 1701.97 1369.67 Q1705.82 1373.23 1712.48 1373.23 Q1719.15 1373.23 1722.99 1369.67 Q1726.83 1366.06 1726.83 1359.85 Q1726.83 1353.6 1722.99 1350.04 Q1719.2 1346.47 1712.48 1346.47 M1703.13 1342.49 Q1697.11 1341.01 1693.73 1336.89 Q1690.4 1332.77 1690.4 1326.84 Q1690.4 1318.56 1696.28 1313.74 Q1702.2 1308.93 1712.48 1308.93 Q1722.81 1308.93 1728.69 1313.74 Q1734.57 1318.56 1734.57 1326.84 Q1734.57 1332.77 1731.19 1336.89 Q1727.85 1341.01 1721.88 1342.49 Q1728.64 1344.06 1732.39 1348.65 Q1736.19 1353.23 1736.19 1359.85 Q1736.19 1369.9 1730.03 1375.27 Q1723.92 1380.64 1712.48 1380.64 Q1701.05 1380.64 1694.89 1375.27 Q1688.78 1369.9 1688.78 1359.85 Q1688.78 1353.23 1692.57 1348.65 Q1696.37 1344.06 1703.13 1342.49 M1699.7 1327.72 Q1699.7 1333.09 1703.04 1336.1 Q1706.42 1339.11 1712.48 1339.11 Q1718.5 1339.11 1721.88 1336.1 Q1725.31 1333.09 1725.31 1327.72 Q1725.31 1322.35 1721.88 1319.34 Q1718.5 1316.33 1712.48 1316.33 Q1706.42 1316.33 1703.04 1319.34 Q1699.7 1322.35 1699.7 1327.72 Z" fill="#000000" fill-rule="nonzero" fill-opacity="1" /><path clip-path="url(#clip860)" d="M1838.33 1371.43 L1853.61 1371.43 L1853.61 1318.69 L1836.99 1322.03 L1836.99 1313.51 L1853.52 1310.18 L1862.87 1310.18 L1862.87 1371.43 L1878.14 1371.43 L1878.14 1379.3 L1838.33 1379.3 L1838.33 1371.43 Z" fill="#000000" fill-rule="nonzero" fill-opacity="1" /><path clip-path="url(#clip860)" d="M1897.03 1367.54 L1906.8 1367.54 L1906.8 1379.3 L1897.03 1379.3 L1897.03 1367.54 Z" fill="#000000" fill-rule="nonzero" fill-opacity="1" /><path clip-path="url(#clip860)" d="M1947.17 1316.33 Q1939.95 1316.33 1936.29 1323.46 Q1932.68 1330.55 1932.68 1344.81 Q1932.68 1359.02 1936.29 1366.15 Q1939.95 1373.23 1947.17 1373.23 Q1954.44 1373.23 1958.05 1366.15 Q1961.71 1359.02 1961.71 1344.81 Q1961.71 1330.55 1958.05 1323.46 Q1954.44 1316.33 1947.17 1316.33 M1947.17 1308.93 Q1958.79 1308.93 1964.9 1318.14 Q1971.06 1327.31 1971.06 1344.81 Q1971.06 1362.26 1964.9 1371.47 Q1958.79 1380.64 1947.17 1380.64 Q1935.55 1380.64 1929.39 1371.47 Q1923.28 1362.26 1923.28 1344.81 Q1923.28 1327.31 1929.39 1318.14 Q1935.55 1308.93 1947.17 1308.93 Z" fill="#000000" fill-rule="nonzero" fill-opacity="1" /><path clip-path="url(#clip860)" d="M2076.79 1371.43 L2092.07 1371.43 L2092.07 1318.69 L2075.45 1322.03 L2075.45 1313.51 L2091.98 1310.18 L2101.33 1310.18 L2101.33 1371.43 L2116.61 1371.43 L2116.61 1379.3 L2076.79 1379.3 L2076.79 1371.43 Z" fill="#000000" fill-rule="nonzero" fill-opacity="1" /><path clip-path="url(#clip860)" d="M2135.5 1367.54 L2145.27 1367.54 L2145.27 1379.3 L2135.5 1379.3 L2135.5 1367.54 Z" fill="#000000" fill-rule="nonzero" fill-opacity="1" /><path clip-path="url(#clip860)" d="M2173.69 1371.43 L2206.33 1371.43 L2206.33 1379.3 L2162.44 1379.3 L2162.44 1371.43 Q2167.76 1365.92 2176.93 1356.66 Q2186.14 1347.35 2188.51 1344.67 Q2193 1339.62 2194.76 1336.15 Q2196.56 1332.63 2196.56 1329.25 Q2196.56 1323.74 2192.67 1320.27 Q2188.83 1316.8 2182.63 1316.8 Q2178.23 1316.8 2173.32 1318.32 Q2168.46 1319.85 2162.9 1322.95 L2162.9 1313.51 Q2168.55 1311.24 2173.46 1310.08 Q2178.37 1308.93 2182.44 1308.93 Q2193.18 1308.93 2199.57 1314.3 Q2205.96 1319.67 2205.96 1328.65 Q2205.96 1332.91 2204.34 1336.75 Q2202.76 1340.55 2198.55 1345.73 Q2197.39 1347.07 2191.19 1353.51 Q2184.99 1359.9 2173.69 1371.43 Z" fill="#000000" fill-rule="nonzero" fill-opacity="1" /><path clip-path="url(#clip860)" d="M1375.05 1484.39 L1375.05 1527.42 L1363.34 1527.42 L1363.34 1484.77 Q1363.34 1474.65 1359.39 1469.62 Q1355.45 1464.59 1347.55 1464.59 Q1338.07 1464.59 1332.59 1470.64 Q1327.12 1476.69 1327.12 1487.13 L1327.12 1527.42 L1315.34 1527.42 L1315.34 1428.37 L1327.12 1428.37 L1327.12 1467.2 Q1331.32 1460.77 1336.99 1457.59 Q1342.72 1454.41 1350.16 1454.41 Q1362.45 1454.41 1368.75 1462.05 Q1375.05 1469.62 1375.05 1484.39 Z" fill="#000000" fill-rule="nonzero" fill-opacity="1" /><path clip-path="url(#clip860)" d="M1426.04 1464.34 Q1416.62 1464.34 1411.15 1471.72 Q1405.67 1479.04 1405.67 1491.84 Q1405.67 1504.63 1411.08 1512.02 Q1416.56 1519.34 1426.04 1519.34 Q1435.4 1519.34 1440.87 1511.96 Q1446.35 1504.57 1446.35 1491.84 Q1446.35 1479.17 1440.87 1471.79 Q1435.4 1464.34 1426.04 1464.34 M1426.04 1454.41 Q1441.32 1454.41 1450.04 1464.34 Q1458.76 1474.27 1458.76 1491.84 Q1458.76 1509.35 1450.04 1519.34 Q1441.32 1529.27 1426.04 1529.27 Q1410.7 1529.27 1401.98 1519.34 Q1393.32 1509.35 1393.32 1491.84 Q1393.32 1474.27 1401.98 1464.34 Q1410.7 1454.41 1426.04 1454.41 Z" fill="#000000" fill-rule="nonzero" fill-opacity="1" /><path clip-path="url(#clip860)" d="M1476.97 1499.29 L1476.97 1456.13 L1488.68 1456.13 L1488.68 1498.84 Q1488.68 1508.96 1492.63 1514.06 Q1496.57 1519.08 1504.47 1519.08 Q1513.95 1519.08 1519.43 1513.04 Q1524.97 1506.99 1524.97 1496.55 L1524.97 1456.13 L1536.68 1456.13 L1536.68 1527.42 L1524.97 1527.42 L1524.97 1516.47 Q1520.7 1522.97 1515.04 1526.15 Q1509.43 1529.27 1501.99 1529.27 Q1489.7 1529.27 1483.33 1521.63 Q1476.97 1513.99 1476.97 1499.29 M1506.44 1454.41 L1506.44 1454.41 Z" fill="#000000" fill-rule="nonzero" fill-opacity="1" /><path clip-path="url(#clip860)" d="M1602.12 1467.08 Q1600.14 1465.93 1597.79 1465.42 Q1595.5 1464.85 1592.7 1464.85 Q1582.77 1464.85 1577.42 1471.34 Q1572.14 1477.77 1572.14 1489.87 L1572.14 1527.42 L1560.36 1527.42 L1560.36 1456.13 L1572.14 1456.13 L1572.14 1467.2 Q1575.83 1460.71 1581.75 1457.59 Q1587.67 1454.41 1596.13 1454.41 Q1597.34 1454.41 1598.81 1454.6 Q1600.27 1454.73 1602.05 1455.05 L1602.12 1467.08 Z" fill="#000000" fill-rule="nonzero" fill-opacity="1" /><path clip-path="url(#clip860)" d="M1659.86 1458.23 L1659.86 1469.3 Q1654.89 1466.76 1649.54 1465.49 Q1644.2 1464.21 1638.47 1464.21 Q1629.75 1464.21 1625.35 1466.89 Q1621.02 1469.56 1621.02 1474.91 Q1621.02 1478.98 1624.14 1481.34 Q1627.26 1483.63 1636.68 1485.73 L1640.69 1486.62 Q1653.17 1489.29 1658.39 1494.19 Q1663.67 1499.03 1663.67 1507.75 Q1663.67 1517.68 1655.78 1523.48 Q1647.95 1529.27 1634.2 1529.27 Q1628.47 1529.27 1622.23 1528.12 Q1616.06 1527.04 1609.18 1524.81 L1609.18 1512.72 Q1615.68 1516.09 1621.98 1517.81 Q1628.28 1519.47 1634.46 1519.47 Q1642.73 1519.47 1647.19 1516.67 Q1651.64 1513.8 1651.64 1508.64 Q1651.64 1503.87 1648.4 1501.32 Q1645.21 1498.78 1634.33 1496.42 L1630.25 1495.47 Q1619.37 1493.18 1614.53 1488.47 Q1609.69 1483.69 1609.69 1475.42 Q1609.69 1465.36 1616.82 1459.88 Q1623.95 1454.41 1637.07 1454.41 Q1643.56 1454.41 1649.29 1455.36 Q1655.02 1456.32 1659.86 1458.23 Z" fill="#000000" fill-rule="nonzero" fill-opacity="1" /><polyline clip-path="url(#clip862)" style="stroke:#000000; stroke-linecap:round; stroke-linejoin:round; stroke-width:4; stroke-opacity:0.1; fill:none" points="673.506,1102.85 2305.51,1102.85 "/>
<polyline clip-path="url(#clip862)" style="stroke:#000000; stroke-linecap:round; stroke-linejoin:round; stroke-width:4; stroke-opacity:0.1; fill:none" points="673.506,777.853 2305.51,777.853 "/>
<polyline clip-path="url(#clip862)" style="stroke:#000000; stroke-linecap:round; stroke-linejoin:round; stroke-width:4; stroke-opacity:0.1; fill:none" points="673.506,452.858 2305.51,452.858 "/>
<polyline clip-path="url(#clip862)" style="stroke:#000000; stroke-linecap:round; stroke-linejoin:round; stroke-width:4; stroke-opacity:0.1; fill:none" points="673.506,127.862 2305.51,127.862 "/>
<polyline clip-path="url(#clip860)" style="stroke:#000000; stroke-linecap:round; stroke-linejoin:round; stroke-width:8; stroke-opacity:1; fill:none" points="673.506,1273.7 673.506,94.4882 "/>
<polyline clip-path="url(#clip860)" style="stroke:#000000; stroke-linecap:round; stroke-linejoin:round; stroke-width:8; stroke-opacity:1; fill:none" points="673.506,1102.85 692.404,1102.85 "/>
<polyline clip-path="url(#clip860)" style="stroke:#000000; stroke-linecap:round; stroke-linejoin:round; stroke-width:8; stroke-opacity:1; fill:none" points="673.506,777.853 692.404,777.853 "/>
<polyline clip-path="url(#clip860)" style="stroke:#000000; stroke-linecap:round; stroke-linejoin:round; stroke-width:8; stroke-opacity:1; fill:none" points="673.506,452.858 692.404,452.858 "/>
<polyline clip-path="url(#clip860)" style="stroke:#000000; stroke-linecap:round; stroke-linejoin:round; stroke-width:8; stroke-opacity:1; fill:none" points="673.506,127.862 692.404,127.862 "/>
<path clip-path="url(#clip860)" d="M468.525 1076.44 L444.914 1113.33 L468.525 1113.33 L468.525 1076.44 M466.072 1068.29 L477.831 1068.29 L477.831 1113.33 L487.692 1113.33 L487.692 1121.11 L477.831 1121.11 L477.831 1137.41 L468.525 1137.41 L468.525 1121.11 L437.322 1121.11 L437.322 1112.08 L466.072 1068.29 Z" fill="#000000" fill-rule="nonzero" fill-opacity="1" /><path clip-path="url(#clip860)" d="M523.155 1074.45 Q515.933 1074.45 512.275 1081.58 Q508.664 1088.66 508.664 1102.92 Q508.664 1117.13 512.275 1124.26 Q515.933 1131.34 523.155 1131.34 Q530.423 1131.34 534.034 1124.26 Q537.692 1117.13 537.692 1102.92 Q537.692 1088.66 534.034 1081.58 Q530.423 1074.45 523.155 1074.45 M523.155 1067.04 Q534.775 1067.04 540.886 1076.25 Q547.043 1085.42 547.043 1102.92 Q547.043 1120.37 540.886 1129.58 Q534.775 1138.75 523.155 1138.75 Q511.534 1138.75 505.377 1129.58 Q499.266 1120.37 499.266 1102.92 Q499.266 1085.42 505.377 1076.25 Q511.534 1067.04 523.155 1067.04 Z" fill="#000000" fill-rule="nonzero" fill-opacity="1" /><path clip-path="url(#clip860)" d="M563.479 1125.65 L573.247 1125.65 L573.247 1137.41 L563.479 1137.41 L563.479 1125.65 Z" fill="#000000" fill-rule="nonzero" fill-opacity="1" /><path clip-path="url(#clip860)" d="M613.617 1074.45 Q606.395 1074.45 602.738 1081.58 Q599.127 1088.66 599.127 1102.92 Q599.127 1117.13 602.738 1124.26 Q606.395 1131.34 613.617 1131.34 Q620.886 1131.34 624.497 1124.26 Q628.154 1117.13 628.154 1102.92 Q628.154 1088.66 624.497 1081.58 Q620.886 1074.45 613.617 1074.45 M613.617 1067.04 Q625.238 1067.04 631.349 1076.25 Q637.506 1085.42 637.506 1102.92 Q637.506 1120.37 631.349 1129.58 Q625.238 1138.75 613.617 1138.75 Q601.997 1138.75 595.84 1129.58 Q589.728 1120.37 589.728 1102.92 Q589.728 1085.42 595.84 1076.25 Q601.997 1067.04 613.617 1067.04 Z" fill="#000000" fill-rule="nonzero" fill-opacity="1" /><path clip-path="url(#clip860)" d="M463.988 774.126 Q457.692 774.126 453.988 778.432 Q450.331 782.737 450.331 790.237 Q450.331 797.691 453.988 802.043 Q457.692 806.348 463.988 806.348 Q470.285 806.348 473.942 802.043 Q477.646 797.691 477.646 790.237 Q477.646 782.737 473.942 778.432 Q470.285 774.126 463.988 774.126 M482.553 744.821 L482.553 753.339 Q479.035 751.673 475.424 750.793 Q471.859 749.913 468.34 749.913 Q459.081 749.913 454.174 756.163 Q449.313 762.413 448.618 775.052 Q451.35 771.024 455.47 768.895 Q459.59 766.719 464.544 766.719 Q474.961 766.719 480.979 773.061 Q487.044 779.358 487.044 790.237 Q487.044 800.885 480.748 807.32 Q474.451 813.756 463.988 813.756 Q451.998 813.756 445.655 804.589 Q439.313 795.376 439.313 777.923 Q439.313 761.534 447.09 751.812 Q454.868 742.043 467.97 742.043 Q471.488 742.043 475.053 742.738 Q478.664 743.432 482.553 744.821 Z" fill="#000000" fill-rule="nonzero" fill-opacity="1" /><path clip-path="url(#clip860)" d="M523.155 749.45 Q515.933 749.45 512.275 756.58 Q508.664 763.663 508.664 777.923 Q508.664 792.135 512.275 799.265 Q515.933 806.348 523.155 806.348 Q530.423 806.348 534.034 799.265 Q537.692 792.135 537.692 777.923 Q537.692 763.663 534.034 756.58 Q530.423 749.45 523.155 749.45 M523.155 742.043 Q534.775 742.043 540.886 751.256 Q547.043 760.423 547.043 777.923 Q547.043 795.376 540.886 804.589 Q534.775 813.756 523.155 813.756 Q511.534 813.756 505.377 804.589 Q499.266 795.376 499.266 777.923 Q499.266 760.423 505.377 751.256 Q511.534 742.043 523.155 742.043 Z" fill="#000000" fill-rule="nonzero" fill-opacity="1" /><path clip-path="url(#clip860)" d="M563.479 800.654 L573.247 800.654 L573.247 812.413 L563.479 812.413 L563.479 800.654 Z" fill="#000000" fill-rule="nonzero" fill-opacity="1" /><path clip-path="url(#clip860)" d="M613.617 749.45 Q606.395 749.45 602.738 756.58 Q599.127 763.663 599.127 777.923 Q599.127 792.135 602.738 799.265 Q606.395 806.348 613.617 806.348 Q620.886 806.348 624.497 799.265 Q628.154 792.135 628.154 777.923 Q628.154 763.663 624.497 756.58 Q620.886 749.45 613.617 749.45 M613.617 742.043 Q625.238 742.043 631.349 751.256 Q637.506 760.423 637.506 777.923 Q637.506 795.376 631.349 804.589 Q625.238 813.756 613.617 813.756 Q601.997 813.756 595.84 804.589 Q589.728 795.376 589.728 777.923 Q589.728 760.423 595.84 751.256 Q601.997 742.043 613.617 742.043 Z" fill="#000000" fill-rule="nonzero" fill-opacity="1" /><path clip-path="url(#clip860)" d="M462.831 454.594 Q456.164 454.594 452.322 458.158 Q448.525 461.723 448.525 467.973 Q448.525 474.223 452.322 477.788 Q456.164 481.353 462.831 481.353 Q469.498 481.353 473.34 477.788 Q477.183 474.177 477.183 467.973 Q477.183 461.723 473.34 458.158 Q469.544 454.594 462.831 454.594 M453.479 450.612 Q447.461 449.131 444.081 445.01 Q440.748 440.89 440.748 434.964 Q440.748 426.677 446.627 421.862 Q452.553 417.048 462.831 417.048 Q473.155 417.048 479.035 421.862 Q484.914 426.677 484.914 434.964 Q484.914 440.89 481.535 445.01 Q478.201 449.131 472.229 450.612 Q478.988 452.186 482.738 456.77 Q486.535 461.353 486.535 467.973 Q486.535 478.019 480.377 483.39 Q474.266 488.76 462.831 488.76 Q451.396 488.76 445.238 483.39 Q439.127 478.019 439.127 467.973 Q439.127 461.353 442.924 456.77 Q446.72 452.186 453.479 450.612 M450.053 435.844 Q450.053 441.214 453.387 444.223 Q456.766 447.233 462.831 447.233 Q468.849 447.233 472.229 444.223 Q475.655 441.214 475.655 435.844 Q475.655 430.473 472.229 427.464 Q468.849 424.455 462.831 424.455 Q456.766 424.455 453.387 427.464 Q450.053 430.473 450.053 435.844 Z" fill="#000000" fill-rule="nonzero" fill-opacity="1" /><path clip-path="url(#clip860)" d="M523.155 424.455 Q515.933 424.455 512.275 431.584 Q508.664 438.668 508.664 452.927 Q508.664 467.14 512.275 474.269 Q515.933 481.353 523.155 481.353 Q530.423 481.353 534.034 474.269 Q537.692 467.14 537.692 452.927 Q537.692 438.668 534.034 431.584 Q530.423 424.455 523.155 424.455 M523.155 417.048 Q534.775 417.048 540.886 426.26 Q547.043 435.427 547.043 452.927 Q547.043 470.381 540.886 479.593 Q534.775 488.76 523.155 488.76 Q511.534 488.76 505.377 479.593 Q499.266 470.381 499.266 452.927 Q499.266 435.427 505.377 426.26 Q511.534 417.048 523.155 417.048 Z" fill="#000000" fill-rule="nonzero" fill-opacity="1" /><path clip-path="url(#clip860)" d="M563.479 475.658 L573.247 475.658 L573.247 487.418 L563.479 487.418 L563.479 475.658 Z" fill="#000000" fill-rule="nonzero" fill-opacity="1" /><path clip-path="url(#clip860)" d="M613.617 424.455 Q606.395 424.455 602.738 431.584 Q599.127 438.668 599.127 452.927 Q599.127 467.14 602.738 474.269 Q606.395 481.353 613.617 481.353 Q620.886 481.353 624.497 474.269 Q628.154 467.14 628.154 452.927 Q628.154 438.668 624.497 431.584 Q620.886 424.455 613.617 424.455 M613.617 417.048 Q625.238 417.048 631.349 426.26 Q637.506 435.427 637.506 452.927 Q637.506 470.381 631.349 479.593 Q625.238 488.76 613.617 488.76 Q601.997 488.76 595.84 479.593 Q589.728 470.381 589.728 452.927 Q589.728 435.427 595.84 426.26 Q601.997 417.048 613.617 417.048 Z" fill="#000000" fill-rule="nonzero" fill-opacity="1" /><path clip-path="url(#clip860)" d="M384.128 154.552 L399.405 154.552 L399.405 101.82 L382.785 105.154 L382.785 96.6353 L399.313 93.302 L408.665 93.302 L408.665 154.552 L423.942 154.552 L423.942 162.422 L384.128 162.422 L384.128 154.552 Z" fill="#000000" fill-rule="nonzero" fill-opacity="1" /><path clip-path="url(#clip860)" d="M462.831 99.4594 Q455.609 99.4594 451.951 106.589 Q448.34 113.672 448.34 127.931 Q448.34 142.144 451.951 149.274 Q455.609 156.357 462.831 156.357 Q470.099 156.357 473.711 149.274 Q477.368 142.144 477.368 127.931 Q477.368 113.672 473.711 106.589 Q470.099 99.4594 462.831 99.4594 M462.831 92.052 Q474.451 92.052 480.562 101.265 Q486.72 110.432 486.72 127.931 Q486.72 145.385 480.562 154.598 Q474.451 163.765 462.831 163.765 Q451.211 163.765 445.053 154.598 Q438.942 145.385 438.942 127.931 Q438.942 110.432 445.053 101.265 Q451.211 92.052 462.831 92.052 Z" fill="#000000" fill-rule="nonzero" fill-opacity="1" /><path clip-path="url(#clip860)" d="M523.155 99.4594 Q515.933 99.4594 512.275 106.589 Q508.664 113.672 508.664 127.931 Q508.664 142.144 512.275 149.274 Q515.933 156.357 523.155 156.357 Q530.423 156.357 534.034 149.274 Q537.692 142.144 537.692 127.931 Q537.692 113.672 534.034 106.589 Q530.423 99.4594 523.155 99.4594 M523.155 92.052 Q534.775 92.052 540.886 101.265 Q547.043 110.432 547.043 127.931 Q547.043 145.385 540.886 154.598 Q534.775 163.765 523.155 163.765 Q511.534 163.765 505.377 154.598 Q499.266 145.385 499.266 127.931 Q499.266 110.432 505.377 101.265 Q511.534 92.052 523.155 92.052 Z" fill="#000000" fill-rule="nonzero" fill-opacity="1" /><path clip-path="url(#clip860)" d="M563.479 150.663 L573.247 150.663 L573.247 162.422 L563.479 162.422 L563.479 150.663 Z" fill="#000000" fill-rule="nonzero" fill-opacity="1" /><path clip-path="url(#clip860)" d="M613.617 99.4594 Q606.395 99.4594 602.738 106.589 Q599.127 113.672 599.127 127.931 Q599.127 142.144 602.738 149.274 Q606.395 156.357 613.617 156.357 Q620.886 156.357 624.497 149.274 Q628.154 142.144 628.154 127.931 Q628.154 113.672 624.497 106.589 Q620.886 99.4594 613.617 99.4594 M613.617 92.052 Q625.238 92.052 631.349 101.265 Q637.506 110.432 637.506 127.931 Q637.506 145.385 631.349 154.598 Q625.238 163.765 613.617 163.765 Q601.997 163.765 595.84 154.598 Q589.728 145.385 589.728 127.931 Q589.728 110.432 595.84 101.265 Q601.997 92.052 613.617 92.052 Z" fill="#000000" fill-rule="nonzero" fill-opacity="1" /><path clip-path="url(#clip860)" d="M249.714 913.798 L260.663 913.798 Q257.926 918.764 256.589 923.793 Q255.189 928.758 255.189 933.85 Q255.189 945.245 262.446 951.547 Q269.639 957.849 282.689 957.849 Q295.739 957.849 302.995 951.547 Q310.189 945.245 310.189 933.85 Q310.189 928.758 308.852 923.793 Q307.451 918.764 304.714 913.798 L315.536 913.798 Q317.828 918.7 318.973 923.984 Q320.119 929.204 320.119 935.124 Q320.119 951.229 309.998 960.714 Q299.876 970.199 282.689 970.199 Q265.247 970.199 255.253 960.65 Q245.258 951.038 245.258 934.36 Q245.258 928.949 246.404 923.793 Q247.486 918.636 249.714 913.798 Z" fill="#000000" fill-rule="nonzero" fill-opacity="1" /><path clip-path="url(#clip860)" d="M255.189 865.801 Q255.189 875.222 262.573 880.697 Q269.894 886.171 282.689 886.171 Q295.484 886.171 302.868 880.76 Q310.189 875.286 310.189 865.801 Q310.189 856.443 302.804 850.969 Q295.42 845.494 282.689 845.494 Q270.021 845.494 262.637 850.969 Q255.189 856.443 255.189 865.801 M245.258 865.801 Q245.258 850.523 255.189 841.802 Q265.119 833.081 282.689 833.081 Q300.195 833.081 310.189 841.802 Q320.119 850.523 320.119 865.801 Q320.119 881.142 310.189 889.863 Q300.195 898.521 282.689 898.521 Q265.119 898.521 255.189 889.863 Q245.258 881.142 245.258 865.801 Z" fill="#000000" fill-rule="nonzero" fill-opacity="1" /><path clip-path="url(#clip860)" d="M275.241 754.401 L318.273 754.401 L318.273 766.114 L275.623 766.114 Q265.501 766.114 260.472 770.061 Q255.444 774.008 255.444 781.901 Q255.444 791.386 261.491 796.86 Q267.538 802.335 277.978 802.335 L318.273 802.335 L318.273 814.112 L246.977 814.112 L246.977 802.335 L258.054 802.335 Q251.624 798.134 248.441 792.468 Q245.258 786.739 245.258 779.291 Q245.258 767.005 252.897 760.703 Q260.472 754.401 275.241 754.401 Z" fill="#000000" fill-rule="nonzero" fill-opacity="1" /><path clip-path="url(#clip860)" d="M249.714 679.731 L260.663 679.731 Q257.926 684.697 256.589 689.726 Q255.189 694.691 255.189 699.783 Q255.189 711.178 262.446 717.48 Q269.639 723.782 282.689 723.782 Q295.739 723.782 302.995 717.48 Q310.189 711.178 310.189 699.783 Q310.189 694.691 308.852 689.726 Q307.451 684.697 304.714 679.731 L315.536 679.731 Q317.828 684.633 318.973 689.917 Q320.119 695.136 320.119 701.057 Q320.119 717.162 309.998 726.647 Q299.876 736.132 282.689 736.132 Q265.247 736.132 255.253 726.583 Q245.258 716.971 245.258 700.293 Q245.258 694.882 246.404 689.726 Q247.486 684.569 249.714 679.731 Z" fill="#000000" fill-rule="nonzero" fill-opacity="1" /><path clip-path="url(#clip860)" d="M302.104 657.706 L302.104 644.274 L318.273 644.274 L318.273 657.706 L302.104 657.706 Z" fill="#000000" fill-rule="nonzero" fill-opacity="1" /><path clip-path="url(#clip860)" d="M230.554 504.802 L244.113 504.802 Q238.065 511.295 235.073 518.679 Q232.081 526 232.081 534.275 Q232.081 550.571 242.076 559.229 Q252.006 567.886 270.849 567.886 Q289.627 567.886 299.622 559.229 Q309.552 550.571 309.552 534.275 Q309.552 526 306.56 518.679 Q303.568 511.295 297.521 504.802 L310.953 504.802 Q315.536 511.549 317.828 519.125 Q320.119 526.636 320.119 535.039 Q320.119 556.619 306.942 569.032 Q293.701 581.445 270.849 581.445 Q247.932 581.445 234.755 569.032 Q221.514 556.619 221.514 535.039 Q221.514 526.509 223.806 518.997 Q226.034 511.422 230.554 504.802 Z" fill="#000000" fill-rule="nonzero" fill-opacity="1" /><path clip-path="url(#clip860)" d="M223.233 484.941 L223.233 465.78 L287.909 441.527 L223.233 417.146 L223.233 397.985 L318.273 397.985 L318.273 410.526 L234.819 410.526 L300.004 435.034 L300.004 447.956 L234.819 472.464 L318.273 472.464 L318.273 484.941 L223.233 484.941 Z" fill="#000000" fill-rule="nonzero" fill-opacity="1" /><polyline clip-path="url(#clip862)" style="stroke:#008000; stroke-linecap:round; stroke-linejoin:round; stroke-width:8; stroke-opacity:1; fill:none" points="719.695,1123.89 838.128,491.509 956.561,559.632 1074.99,732.47 1193.43,473.54 1311.86,442.173 1430.29,432.698 1548.73,913.64 1667.16,626.447 1785.59,614.032 1904.02,657.649 2022.46,127.862 2140.89,637.066 2259.32,643.273 "/>
<circle clip-path="url(#clip862)" cx="719.695" cy="1123.89" r="14.4" fill="#008000" fill-rule="evenodd" fill-opacity="1" stroke="#000000" stroke-opacity="1" stroke-width="6.4"/>
<circle clip-path="url(#clip862)" cx="838.128" cy="491.509" r="14.4" fill="#008000" fill-rule="evenodd" fill-opacity="1" stroke="#000000" stroke-opacity="1" stroke-width="6.4"/>
<circle clip-path="url(#clip862)" cx="956.561" cy="559.632" r="14.4" fill="#008000" fill-rule="evenodd" fill-opacity="1" stroke="#000000" stroke-opacity="1" stroke-width="6.4"/>
<circle clip-path="url(#clip862)" cx="1074.99" cy="732.47" r="14.4" fill="#008000" fill-rule="evenodd" fill-opacity="1" stroke="#000000" stroke-opacity="1" stroke-width="6.4"/>
<circle clip-path="url(#clip862)" cx="1193.43" cy="473.54" r="14.4" fill="#008000" fill-rule="evenodd" fill-opacity="1" stroke="#000000" stroke-opacity="1" stroke-width="6.4"/>
<circle clip-path="url(#clip862)" cx="1311.86" cy="442.173" r="14.4" fill="#008000" fill-rule="evenodd" fill-opacity="1" stroke="#000000" stroke-opacity="1" stroke-width="6.4"/>
<circle clip-path="url(#clip862)" cx="1430.29" cy="432.698" r="14.4" fill="#008000" fill-rule="evenodd" fill-opacity="1" stroke="#000000" stroke-opacity="1" stroke-width="6.4"/>
<circle clip-path="url(#clip862)" cx="1548.73" cy="913.64" r="14.4" fill="#008000" fill-rule="evenodd" fill-opacity="1" stroke="#000000" stroke-opacity="1" stroke-width="6.4"/>
<circle clip-path="url(#clip862)" cx="1667.16" cy="626.447" r="14.4" fill="#008000" fill-rule="evenodd" fill-opacity="1" stroke="#000000" stroke-opacity="1" stroke-width="6.4"/>
<circle clip-path="url(#clip862)" cx="1785.59" cy="614.032" r="14.4" fill="#008000" fill-rule="evenodd" fill-opacity="1" stroke="#000000" stroke-opacity="1" stroke-width="6.4"/>
<circle clip-path="url(#clip862)" cx="1904.02" cy="657.649" r="14.4" fill="#008000" fill-rule="evenodd" fill-opacity="1" stroke="#000000" stroke-opacity="1" stroke-width="6.4"/>
<circle clip-path="url(#clip862)" cx="2022.46" cy="127.862" r="14.4" fill="#008000" fill-rule="evenodd" fill-opacity="1" stroke="#000000" stroke-opacity="1" stroke-width="6.4"/>
<circle clip-path="url(#clip862)" cx="2140.89" cy="637.066" r="14.4" fill="#008000" fill-rule="evenodd" fill-opacity="1" stroke="#000000" stroke-opacity="1" stroke-width="6.4"/>
<circle clip-path="url(#clip862)" cx="2259.32" cy="643.273" r="14.4" fill="#008000" fill-rule="evenodd" fill-opacity="1" stroke="#000000" stroke-opacity="1" stroke-width="6.4"/>
<polyline clip-path="url(#clip862)" style="stroke:#00008b; stroke-linecap:round; stroke-linejoin:round; stroke-width:8; stroke-opacity:1; fill:none" points="719.695,1125.72 838.128,956.827 956.561,813.277 1074.99,704.187 1193.43,608.378 1311.86,542.973 1430.29,499.344 1548.73,481.518 1667.16,452.548 1785.59,443.544 1904.02,439.521 2022.46,451.634 2140.89,461.645 2259.32,470.573 "/>
<path clip-path="url(#clip862)" d="M719.695 1240.32 L838.128 1075.51 L956.561 934.859 L1074.99 831.139 L1193.43 734.073 L1311.86 672.92 L1430.29 628.618 L1548.73 607.442 L1667.16 586.082 L1785.59 581.904 L1904.02 584.895 L2022.46 593.773 L2140.89 603.464 L2259.32 619.837 L2259.32 352.469 L2140.89 351.329 L2022.46 331.578 L1904.02 328.522 L1785.59 328.134 L1667.16 335.966 L1548.73 367.263 L1430.29 379.564 L1311.86 424.241 L1193.43 494.219 L1074.99 582.625 L956.561 688.784 L838.128 839.254 L719.695 1006.55  Z" fill="#0000ff" fill-rule="evenodd" fill-opacity="0.1"/>
<polyline clip-path="url(#clip862)" style="stroke:#0000ff; stroke-linecap:round; stroke-linejoin:round; stroke-width:0; stroke-opacity:0.1; fill:none" points="719.695,1240.32 838.128,1075.51 956.561,934.859 1074.99,831.139 1193.43,734.073 1311.86,672.92 1430.29,628.618 1548.73,607.442 1667.16,586.082 1785.59,581.904 1904.02,584.895 2022.46,593.773 2140.89,603.464 2259.32,619.837 "/>
</svg>
