<?xml version="1.0" encoding="utf-8"?>
<svg xmlns="http://www.w3.org/2000/svg" xmlns:xlink="http://www.w3.org/1999/xlink" width="600" height="400" viewBox="0 0 2400 1600">
<defs>
  <clipPath id="clip900">
    <rect x="0" y="0" width="2400" height="1600"/>
  </clipPath>
</defs>
<path clip-path="url(#clip900)" d="M0 1600 L2400 1600 L2400 0 L0 0  Z" fill="#ffffff" fill-rule="evenodd" fill-opacity="1"/>
<defs>
  <clipPath id="clip901">
    <rect x="480" y="0" width="1681" height="1600"/>
  </clipPath>
</defs>
<path clip-path="url(#clip900)" d="M680.45 1273.7 L2305.51 1273.7 L2305.51 94.4882 L680.45 94.4882  Z" fill="#ffffff" fill-rule="evenodd" fill-opacity="1"/>
<defs>
  <clipPath id="clip902">
    <rect x="680" y="94" width="1626" height="1180"/>
  </clipPath>
</defs>
<polyline clip-path="url(#clip902)" style="stroke:#000000; stroke-linecap:round; stroke-linejoin:round; stroke-width:4; stroke-opacity:0.1; fill:none" points="726.443,1273.7 726.443,94.4882 "/>
<polyline clip-path="url(#clip902)" style="stroke:#000000; stroke-linecap:round; stroke-linejoin:round; stroke-width:4; stroke-opacity:0.1; fill:none" points="962.301,1273.7 962.301,94.4882 "/>
<polyline clip-path="url(#clip902)" style="stroke:#000000; stroke-linecap:round; stroke-linejoin:round; stroke-width:4; stroke-opacity:0.1; fill:none" points="1198.16,1273.7 1198.16,94.4882 "/>
<polyline clip-path="url(#clip902)" style="stroke:#000000; stroke-linecap:round; stroke-linejoin:round; stroke-width:4; stroke-opacity:0.1; fill:none" points="1434.02,1273.7 1434.02,94.4882 "/>
<polyline clip-path="url(#clip902)" style="stroke:#000000; stroke-linecap:round; stroke-linejoin:round; stroke-width:4; stroke-opacity:0.1; fill:none" points="1669.87,1273.7 1669.87,94.4882 "/>
<polyline clip-path="url(#clip902)" style="stroke:#000000; stroke-linecap:round; stroke-linejoin:round; stroke-width:4; stroke-opacity:0.1; fill:none" points="1905.73,1273.7 1905.73,94.4882 "/>
<polyline clip-path="url(#clip902)" style="stroke:#000000; stroke-linecap:round; stroke-linejoin:round; stroke-width:4; stroke-opacity:0.1; fill:none" points="2141.59,1273.7 2141.59,94.4882 "/>
<polyline clip-path="url(#clip900)" style="stroke:#000000; stroke-linecap:round; stroke-linejoin:round; stroke-width:8; stroke-opacity:1; fill:none" points="680.45,1273.7 2305.51,1273.7 "/>
<polyline clip-path="url(#clip900)" style="stroke:#000000; stroke-linecap:round; stroke-linejoin:round; stroke-width:8; stroke-opacity:1; fill:none" points="726.443,1273.7 726.443,1254.8 "/>
<polyline clip-path="url(#clip900)" style="stroke:#000000; stroke-linecap:round; stroke-linejoin:round; stroke-width:8; stroke-opacity:1; fill:none" points="962.301,1273.7 962.301,1254.8 "/>
<polyline clip-path="url(#clip900)" style="stroke:#000000; stroke-linecap:round; stroke-linejoin:round; stroke-width:8; stroke-opacity:1; fill:none" points="1198.16,1273.7 1198.16,1254.8 "/>
<polyline clip-path="url(#clip900)" style="stroke:#000000; stroke-linecap:round; stroke-linejoin:round; stroke-width:8; stroke-opacity:1; fill:none" points="1434.02,1273.7 1434.02,1254.8 "/>
<polyline clip-path="url(#clip900)" style="stroke:#000000; stroke-linecap:round; stroke-linejoin:round; stroke-width:8; stroke-opacity:1; fill:none" points="1669.87,1273.7 1669.87,1254.8 "/>
<polyline clip-path="url(#clip900)" style="stroke:#000000; stroke-linecap:round; stroke-linejoin:round; stroke-width:8; stroke-opacity:1; fill:none" points="1905.73,1273.7 1905.73,1254.8 "/>
<polyline clip-path="url(#clip900)" style="stroke:#000000; stroke-linecap:round; stroke-linejoin:round; stroke-width:8; stroke-opacity:1; fill:none" points="2141.59,1273.7 2141.59,1254.8 "/>
<path clip-path="url(#clip900)" d="M681.211 1316.33 Q673.989 1316.33 670.332 1323.46 Q666.721 1330.55 666.721 1344.81 Q666.721 1359.02 670.332 1366.15 Q673.989 1373.23 681.211 1373.23 Q688.48 1373.23 692.091 1366.15 Q695.748 1359.02 695.748 1344.81 Q695.748 1330.55 692.091 1323.46 Q688.48 1316.33 681.211 1316.33 M681.211 1308.93 Q692.832 1308.93 698.943 1318.14 Q705.1 1327.31 705.1 1344.81 Q705.1 1362.26 698.943 1371.47 Q692.832 1380.64 681.211 1380.64 Q669.591 1380.64 663.434 1371.47 Q657.323 1362.26 657.323 1344.81 Q657.323 1327.31 663.434 1318.14 Q669.591 1308.93 681.211 1308.93 Z" fill="#000000" fill-rule="nonzero" fill-opacity="1" /><path clip-path="url(#clip900)" d="M721.535 1367.54 L731.304 1367.54 L731.304 1379.3 L721.535 1379.3 L721.535 1367.54 Z" fill="#000000" fill-rule="nonzero" fill-opacity="1" /><path clip-path="url(#clip900)" d="M771.674 1316.33 Q764.452 1316.33 760.794 1323.46 Q757.183 1330.55 757.183 1344.81 Q757.183 1359.02 760.794 1366.15 Q764.452 1373.23 771.674 1373.23 Q778.942 1373.23 782.553 1366.15 Q786.211 1359.02 786.211 1344.81 Q786.211 1330.55 782.553 1323.46 Q778.942 1316.33 771.674 1316.33 M771.674 1308.93 Q783.294 1308.93 789.405 1318.14 Q795.563 1327.31 795.563 1344.81 Q795.563 1362.26 789.405 1371.47 Q783.294 1380.64 771.674 1380.64 Q760.054 1380.64 753.896 1371.47 Q747.785 1362.26 747.785 1344.81 Q747.785 1327.31 753.896 1318.14 Q760.054 1308.93 771.674 1308.93 Z" fill="#000000" fill-rule="nonzero" fill-opacity="1" /><path clip-path="url(#clip900)" d="M918.667 1316.33 Q911.444 1316.33 907.787 1323.46 Q904.176 1330.55 904.176 1344.81 Q904.176 1359.02 907.787 1366.15 Q911.444 1373.23 918.667 1373.23 Q925.935 1373.23 929.546 1366.15 Q933.204 1359.02 933.204 1344.81 Q933.204 1330.55 929.546 1323.46 Q925.935 1316.33 918.667 1316.33 M918.667 1308.93 Q930.287 1308.93 936.398 1318.14 Q942.555 1327.31 942.555 1344.81 Q942.555 1362.26 936.398 1371.47 Q930.287 1380.64 918.667 1380.64 Q907.046 1380.64 900.889 1371.47 Q894.778 1362.26 894.778 1344.81 Q894.778 1327.31 900.889 1318.14 Q907.046 1308.93 918.667 1308.93 Z" fill="#000000" fill-rule="nonzero" fill-opacity="1" /><path clip-path="url(#clip900)" d="M958.99 1367.54 L968.759 1367.54 L968.759 1379.3 L958.99 1379.3 L958.99 1367.54 Z" fill="#000000" fill-rule="nonzero" fill-opacity="1" /><path clip-path="url(#clip900)" d="M997.185 1371.43 L1029.82 1371.43 L1029.82 1379.3 L985.935 1379.3 L985.935 1371.43 Q991.259 1365.92 1000.43 1356.66 Q1009.64 1347.35 1012 1344.67 Q1016.49 1339.62 1018.25 1336.15 Q1020.05 1332.63 1020.05 1329.25 Q1020.05 1323.74 1016.17 1320.27 Q1012.32 1316.8 1006.12 1316.8 Q1001.72 1316.8 996.814 1318.32 Q991.953 1319.85 986.398 1322.95 L986.398 1313.51 Q992.046 1311.24 996.953 1310.08 Q1001.86 1308.93 1005.93 1308.93 Q1016.68 1308.93 1023.06 1314.3 Q1029.45 1319.67 1029.45 1328.65 Q1029.45 1332.91 1027.83 1336.75 Q1026.26 1340.55 1022.05 1345.73 Q1020.89 1347.07 1014.68 1353.51 Q1008.48 1359.9 997.185 1371.43 Z" fill="#000000" fill-rule="nonzero" fill-opacity="1" /><path clip-path="url(#clip900)" d="M1152.44 1316.33 Q1145.22 1316.33 1141.56 1323.46 Q1137.95 1330.55 1137.95 1344.81 Q1137.95 1359.02 1141.56 1366.15 Q1145.22 1373.23 1152.44 1373.23 Q1159.71 1373.23 1163.32 1366.15 Q1166.98 1359.02 1166.98 1344.81 Q1166.98 1330.55 1163.32 1323.46 Q1159.71 1316.33 1152.44 1316.33 M1152.44 1308.93 Q1164.06 1308.93 1170.17 1318.14 Q1176.33 1327.31 1176.33 1344.81 Q1176.33 1362.26 1170.17 1371.47 Q1164.06 1380.64 1152.44 1380.64 Q1140.82 1380.64 1134.66 1371.47 Q1128.55 1362.26 1128.55 1344.81 Q1128.55 1327.31 1134.66 1318.14 Q1140.82 1308.93 1152.44 1308.93 Z" fill="#000000" fill-rule="nonzero" fill-opacity="1" /><path clip-path="url(#clip900)" d="M1192.77 1367.54 L1202.53 1367.54 L1202.53 1379.3 L1192.77 1379.3 L1192.77 1367.54 Z" fill="#000000" fill-rule="nonzero" fill-opacity="1" /><path clip-path="url(#clip900)" d="M1248.6 1318.32 L1224.99 1355.22 L1248.6 1355.22 L1248.6 1318.32 M1246.14 1310.18 L1257.9 1310.18 L1257.9 1355.22 L1267.76 1355.22 L1267.76 1363 L1257.9 1363 L1257.9 1379.3 L1248.6 1379.3 L1248.6 1363 L1217.39 1363 L1217.39 1353.97 L1246.14 1310.18 Z" fill="#000000" fill-rule="nonzero" fill-opacity="1" /><path clip-path="url(#clip900)" d="M1388.62 1316.33 Q1381.4 1316.33 1377.74 1323.46 Q1374.13 1330.55 1374.13 1344.81 Q1374.13 1359.02 1377.74 1366.15 Q1381.4 1373.23 1388.62 1373.23 Q1395.89 1373.23 1399.5 1366.15 Q1403.16 1359.02 1403.16 1344.81 Q1403.16 1330.55 1399.5 1323.46 Q1395.89 1316.33 1388.62 1316.33 M1388.62 1308.93 Q1400.24 1308.93 1406.35 1318.14 Q1412.51 1327.31 1412.51 1344.81 Q1412.51 1362.26 1406.35 1371.47 Q1400.24 1380.64 1388.62 1380.64 Q1377 1380.64 1370.85 1371.47 Q1364.73 1362.26 1364.73 1344.81 Q1364.73 1327.31 1370.85 1318.14 Q1377 1308.93 1388.62 1308.93 Z" fill="#000000" fill-rule="nonzero" fill-opacity="1" /><path clip-path="url(#clip900)" d="M1428.95 1367.54 L1438.72 1367.54 L1438.72 1379.3 L1428.95 1379.3 L1428.95 1367.54 Z" fill="#000000" fill-rule="nonzero" fill-opacity="1" /><path clip-path="url(#clip900)" d="M1480.24 1341.01 Q1473.95 1341.01 1470.24 1345.31 Q1466.59 1349.62 1466.59 1357.12 Q1466.59 1364.57 1470.24 1368.93 Q1473.95 1373.23 1480.24 1373.23 Q1486.54 1373.23 1490.2 1368.93 Q1493.9 1364.57 1493.9 1357.12 Q1493.9 1349.62 1490.2 1345.31 Q1486.54 1341.01 1480.24 1341.01 M1498.81 1311.7 L1498.81 1320.22 Q1495.29 1318.56 1491.68 1317.68 Q1488.11 1316.8 1484.6 1316.8 Q1475.34 1316.8 1470.43 1323.05 Q1465.57 1329.3 1464.87 1341.93 Q1467.6 1337.91 1471.72 1335.78 Q1475.85 1333.6 1480.8 1333.6 Q1491.22 1333.6 1497.23 1339.94 Q1503.3 1346.24 1503.3 1357.12 Q1503.3 1367.77 1497 1374.2 Q1490.71 1380.64 1480.24 1380.64 Q1468.25 1380.64 1461.91 1371.47 Q1455.57 1362.26 1455.57 1344.81 Q1455.57 1328.42 1463.35 1318.69 Q1471.12 1308.93 1484.22 1308.93 Q1487.74 1308.93 1491.31 1309.62 Q1494.92 1310.31 1498.81 1311.7 Z" fill="#000000" fill-rule="nonzero" fill-opacity="1" /><path clip-path="url(#clip900)" d="M1624.74 1316.33 Q1617.51 1316.33 1613.86 1323.46 Q1610.25 1330.55 1610.25 1344.81 Q1610.25 1359.02 1613.86 1366.15 Q1617.51 1373.23 1624.74 1373.23 Q1632 1373.23 1635.62 1366.15 Q1639.27 1359.02 1639.27 1344.81 Q1639.27 1330.55 1635.62 1323.46 Q1632 1316.33 1624.74 1316.33 M1624.74 1308.93 Q1636.36 1308.93 1642.47 1318.14 Q1648.62 1327.31 1648.62 1344.81 Q1648.62 1362.26 1642.47 1371.47 Q1636.36 1380.64 1624.74 1380.64 Q1613.12 1380.64 1606.96 1371.47 Q1600.85 1362.26 1600.85 1344.81 Q1600.85 1327.31 1606.96 1318.14 Q1613.12 1308.93 1624.74 1308.93 Z" fill="#000000" fill-rule="nonzero" fill-opacity="1" /><path clip-path="url(#clip900)" d="M1665.06 1367.54 L1674.83 1367.54 L1674.83 1379.3 L1665.06 1379.3 L1665.06 1367.54 Z" fill="#000000" fill-rule="nonzero" fill-opacity="1" /><path clip-path="url(#clip900)" d="M1715.2 1346.47 Q1708.53 1346.47 1704.69 1350.04 Q1700.89 1353.6 1700.89 1359.85 Q1700.89 1366.1 1704.69 1369.67 Q1708.53 1373.23 1715.2 1373.23 Q1721.87 1373.23 1725.71 1369.67 Q1729.55 1366.06 1729.55 1359.85 Q1729.55 1353.6 1725.71 1350.04 Q1721.91 1346.47 1715.2 1346.47 M1705.85 1342.49 Q1699.83 1341.01 1696.45 1336.89 Q1693.12 1332.77 1693.12 1326.84 Q1693.12 1318.56 1698.99 1313.74 Q1704.92 1308.93 1715.2 1308.93 Q1725.52 1308.93 1731.4 1313.74 Q1737.28 1318.56 1737.28 1326.84 Q1737.28 1332.77 1733.9 1336.89 Q1730.57 1341.01 1724.6 1342.49 Q1731.36 1344.06 1735.11 1348.65 Q1738.9 1353.23 1738.9 1359.85 Q1738.9 1369.9 1732.74 1375.27 Q1726.63 1380.64 1715.2 1380.64 Q1703.76 1380.64 1697.61 1375.27 Q1691.49 1369.9 1691.49 1359.85 Q1691.49 1353.23 1695.29 1348.65 Q1699.09 1344.06 1705.85 1342.49 M1702.42 1327.72 Q1702.42 1333.09 1705.75 1336.1 Q1709.13 1339.11 1715.2 1339.11 Q1721.22 1339.11 1724.6 1336.1 Q1728.02 1333.09 1728.02 1327.72 Q1728.02 1322.35 1724.6 1319.34 Q1721.22 1316.33 1715.2 1316.33 Q1709.13 1316.33 1705.75 1319.34 Q1702.42 1322.35 1702.42 1327.72 Z" fill="#000000" fill-rule="nonzero" fill-opacity="1" /><path clip-path="url(#clip900)" d="M1840.04 1371.43 L1855.32 1371.43 L1855.32 1318.69 L1838.7 1322.03 L1838.7 1313.51 L1855.22 1310.18 L1864.58 1310.18 L1864.58 1371.43 L1879.85 1371.43 L1879.85 1379.3 L1840.04 1379.3 L1840.04 1371.43 Z" fill="#000000" fill-rule="nonzero" fill-opacity="1" /><path clip-path="url(#clip900)" d="M1898.74 1367.54 L1908.51 1367.54 L1908.51 1379.3 L1898.74 1379.3 L1898.74 1367.54 Z" fill="#000000" fill-rule="nonzero" fill-opacity="1" /><path clip-path="url(#clip900)" d="M1948.88 1316.33 Q1941.66 1316.33 1938 1323.46 Q1934.39 1330.55 1934.39 1344.81 Q1934.39 1359.02 1938 1366.15 Q1941.66 1373.23 1948.88 1373.23 Q1956.15 1373.23 1959.76 1366.15 Q1963.42 1359.02 1963.42 1344.81 Q1963.42 1330.55 1959.76 1323.46 Q1956.15 1316.33 1948.88 1316.33 M1948.88 1308.93 Q1960.5 1308.93 1966.61 1318.14 Q1972.77 1327.31 1972.77 1344.81 Q1972.77 1362.26 1966.61 1371.47 Q1960.5 1380.64 1948.88 1380.64 Q1937.26 1380.64 1931.1 1371.47 Q1924.99 1362.26 1924.99 1344.81 Q1924.99 1327.31 1931.1 1318.14 Q1937.26 1308.93 1948.88 1308.93 Z" fill="#000000" fill-rule="nonzero" fill-opacity="1" /><path clip-path="url(#clip900)" d="M2077.49 1371.43 L2092.77 1371.43 L2092.77 1318.69 L2076.15 1322.03 L2076.15 1313.51 L2092.68 1310.18 L2102.03 1310.18 L2102.03 1371.43 L2117.31 1371.43 L2117.31 1379.3 L2077.49 1379.3 L2077.49 1371.43 Z" fill="#000000" fill-rule="nonzero" fill-opacity="1" /><path clip-path="url(#clip900)" d="M2136.2 1367.54 L2145.97 1367.54 L2145.97 1379.3 L2136.2 1379.3 L2136.2 1367.54 Z" fill="#000000" fill-rule="nonzero" fill-opacity="1" /><path clip-path="url(#clip900)" d="M2174.39 1371.43 L2207.03 1371.43 L2207.03 1379.3 L2163.14 1379.3 L2163.14 1371.43 Q2168.47 1365.92 2177.63 1356.66 Q2186.84 1347.35 2189.21 1344.67 Q2193.7 1339.62 2195.46 1336.15 Q2197.26 1332.63 2197.26 1329.25 Q2197.26 1323.74 2193.37 1320.27 Q2189.53 1316.8 2183.33 1316.8 Q2178.93 1316.8 2174.02 1318.32 Q2169.16 1319.85 2163.6 1322.95 L2163.6 1313.51 Q2169.25 1311.24 2174.16 1310.08 Q2179.07 1308.93 2183.14 1308.93 Q2193.88 1308.93 2200.27 1314.3 Q2206.66 1319.67 2206.66 1328.65 Q2206.66 1332.91 2205.04 1336.75 Q2203.47 1340.55 2199.25 1345.73 Q2198.09 1347.07 2191.89 1353.51 Q2185.69 1359.9 2174.39 1371.43 Z" fill="#000000" fill-rule="nonzero" fill-opacity="1" /><path clip-path="url(#clip900)" d="M1378.53 1484.39 L1378.53 1527.42 L1366.81 1527.42 L1366.81 1484.77 Q1366.81 1474.65 1362.87 1469.62 Q1358.92 1464.59 1351.03 1464.59 Q1341.54 1464.59 1336.07 1470.64 Q1330.59 1476.69 1330.59 1487.13 L1330.59 1527.42 L1318.82 1527.42 L1318.82 1428.37 L1330.59 1428.37 L1330.59 1467.2 Q1334.79 1460.77 1340.46 1457.59 Q1346.19 1454.41 1353.64 1454.41 Q1365.92 1454.41 1372.22 1462.05 Q1378.53 1469.62 1378.53 1484.39 Z" fill="#000000" fill-rule="nonzero" fill-opacity="1" /><path clip-path="url(#clip900)" d="M1429.51 1464.34 Q1420.09 1464.34 1414.62 1471.72 Q1409.14 1479.04 1409.14 1491.84 Q1409.14 1504.63 1414.56 1512.02 Q1420.03 1519.34 1429.51 1519.34 Q1438.87 1519.34 1444.35 1511.96 Q1449.82 1504.57 1449.82 1491.84 Q1449.82 1479.17 1444.35 1471.79 Q1438.87 1464.34 1429.51 1464.34 M1429.51 1454.41 Q1444.79 1454.41 1453.51 1464.34 Q1462.23 1474.27 1462.23 1491.84 Q1462.23 1509.35 1453.51 1519.34 Q1444.79 1529.27 1429.51 1529.27 Q1414.17 1529.27 1405.45 1519.34 Q1396.8 1509.35 1396.8 1491.84 Q1396.8 1474.27 1405.45 1464.34 Q1414.17 1454.41 1429.51 1454.41 Z" fill="#000000" fill-rule="nonzero" fill-opacity="1" /><path clip-path="url(#clip900)" d="M1480.44 1499.29 L1480.44 1456.13 L1492.15 1456.13 L1492.15 1498.84 Q1492.15 1508.96 1496.1 1514.06 Q1500.05 1519.08 1507.94 1519.08 Q1517.43 1519.08 1522.9 1513.04 Q1528.44 1506.99 1528.44 1496.55 L1528.44 1456.13 L1540.15 1456.13 L1540.15 1527.42 L1528.44 1527.42 L1528.44 1516.47 Q1524.17 1522.97 1518.51 1526.15 Q1512.91 1529.27 1505.46 1529.27 Q1493.17 1529.27 1486.81 1521.63 Q1480.44 1513.99 1480.44 1499.29 M1509.91 1454.41 L1509.91 1454.41 Z" fill="#000000" fill-rule="nonzero" fill-opacity="1" /><path clip-path="url(#clip900)" d="M1605.59 1467.08 Q1603.62 1465.93 1601.26 1465.42 Q1598.97 1464.85 1596.17 1464.85 Q1586.24 1464.85 1580.89 1471.34 Q1575.61 1477.77 1575.61 1489.87 L1575.61 1527.42 L1563.83 1527.42 L1563.83 1456.13 L1575.61 1456.13 L1575.61 1467.2 Q1579.3 1460.71 1585.22 1457.59 Q1591.14 1454.41 1599.61 1454.41 Q1600.82 1454.41 1602.28 1454.6 Q1603.74 1454.73 1605.53 1455.05 L1605.59 1467.08 Z" fill="#000000" fill-rule="nonzero" fill-opacity="1" /><path clip-path="url(#clip900)" d="M1663.33 1458.23 L1663.33 1469.3 Q1658.36 1466.76 1653.01 1465.49 Q1647.67 1464.21 1641.94 1464.21 Q1633.22 1464.21 1628.83 1466.89 Q1624.5 1469.56 1624.5 1474.91 Q1624.5 1478.98 1627.62 1481.34 Q1630.73 1483.63 1640.16 1485.73 L1644.17 1486.62 Q1656.64 1489.29 1661.86 1494.19 Q1667.15 1499.03 1667.15 1507.75 Q1667.15 1517.68 1659.25 1523.48 Q1651.42 1529.27 1637.67 1529.27 Q1631.94 1529.27 1625.71 1528.12 Q1619.53 1527.04 1612.66 1524.81 L1612.66 1512.72 Q1619.15 1516.09 1625.45 1517.81 Q1631.75 1519.47 1637.93 1519.47 Q1646.2 1519.47 1650.66 1516.67 Q1655.12 1513.8 1655.12 1508.64 Q1655.12 1503.87 1651.87 1501.32 Q1648.69 1498.78 1637.8 1496.42 L1633.73 1495.47 Q1622.84 1493.18 1618 1488.47 Q1613.17 1483.69 1613.17 1475.42 Q1613.17 1465.36 1620.3 1459.88 Q1627.42 1454.41 1640.54 1454.41 Q1647.03 1454.41 1652.76 1455.36 Q1658.49 1456.32 1663.33 1458.23 Z" fill="#000000" fill-rule="nonzero" fill-opacity="1" /><polyline clip-path="url(#clip902)" style="stroke:#000000; stroke-linecap:round; stroke-linejoin:round; stroke-width:4; stroke-opacity:0.1; fill:none" points="680.45,1109.03 2305.51,1109.03 "/>
<polyline clip-path="url(#clip902)" style="stroke:#000000; stroke-linecap:round; stroke-linejoin:round; stroke-width:4; stroke-opacity:0.1; fill:none" points="680.45,899.892 2305.51,899.892 "/>
<polyline clip-path="url(#clip902)" style="stroke:#000000; stroke-linecap:round; stroke-linejoin:round; stroke-width:4; stroke-opacity:0.1; fill:none" points="680.45,690.749 2305.51,690.749 "/>
<polyline clip-path="url(#clip902)" style="stroke:#000000; stroke-linecap:round; stroke-linejoin:round; stroke-width:4; stroke-opacity:0.1; fill:none" points="680.45,481.606 2305.51,481.606 "/>
<polyline clip-path="url(#clip902)" style="stroke:#000000; stroke-linecap:round; stroke-linejoin:round; stroke-width:4; stroke-opacity:0.1; fill:none" points="680.45,272.464 2305.51,272.464 "/>
<polyline clip-path="url(#clip900)" style="stroke:#000000; stroke-linecap:round; stroke-linejoin:round; stroke-width:8; stroke-opacity:1; fill:none" points="680.45,1273.7 680.45,94.4882 "/>
<polyline clip-path="url(#clip900)" style="stroke:#000000; stroke-linecap:round; stroke-linejoin:round; stroke-width:8; stroke-opacity:1; fill:none" points="680.45,1109.03 699.348,1109.03 "/>
<polyline clip-path="url(#clip900)" style="stroke:#000000; stroke-linecap:round; stroke-linejoin:round; stroke-width:8; stroke-opacity:1; fill:none" points="680.45,899.892 699.348,899.892 "/>
<polyline clip-path="url(#clip900)" style="stroke:#000000; stroke-linecap:round; stroke-linejoin:round; stroke-width:8; stroke-opacity:1; fill:none" points="680.45,690.749 699.348,690.749 "/>
<polyline clip-path="url(#clip900)" style="stroke:#000000; stroke-linecap:round; stroke-linejoin:round; stroke-width:8; stroke-opacity:1; fill:none" points="680.45,481.606 699.348,481.606 "/>
<polyline clip-path="url(#clip900)" style="stroke:#000000; stroke-linecap:round; stroke-linejoin:round; stroke-width:8; stroke-opacity:1; fill:none" points="680.45,272.464 699.348,272.464 "/>
<path clip-path="url(#clip900)" d="M391.072 1135.72 L406.35 1135.72 L406.35 1082.99 L389.73 1086.33 L389.73 1077.81 L406.257 1074.47 L415.609 1074.47 L415.609 1135.72 L430.887 1135.72 L430.887 1143.59 L391.072 1143.59 L391.072 1135.72 Z" fill="#000000" fill-rule="nonzero" fill-opacity="1" /><path clip-path="url(#clip900)" d="M475.47 1082.62 L451.859 1119.52 L475.47 1119.52 L475.47 1082.62 M473.016 1074.47 L484.775 1074.47 L484.775 1119.52 L494.636 1119.52 L494.636 1127.3 L484.775 1127.3 L484.775 1143.59 L475.47 1143.59 L475.47 1127.3 L444.266 1127.3 L444.266 1118.27 L473.016 1074.47 Z" fill="#000000" fill-rule="nonzero" fill-opacity="1" /><path clip-path="url(#clip900)" d="M530.099 1080.63 Q522.877 1080.63 519.22 1087.76 Q515.608 1094.84 515.608 1109.1 Q515.608 1123.32 519.22 1130.45 Q522.877 1137.53 530.099 1137.53 Q537.368 1137.53 540.979 1130.45 Q544.636 1123.32 544.636 1109.1 Q544.636 1094.84 540.979 1087.76 Q537.368 1080.63 530.099 1080.63 M530.099 1073.22 Q541.719 1073.22 547.831 1082.44 Q553.988 1091.6 553.988 1109.1 Q553.988 1126.56 547.831 1135.77 Q541.719 1144.94 530.099 1144.94 Q518.479 1144.94 512.321 1135.77 Q506.21 1126.56 506.21 1109.1 Q506.21 1091.6 512.321 1082.44 Q518.479 1073.22 530.099 1073.22 Z" fill="#000000" fill-rule="nonzero" fill-opacity="1" /><path clip-path="url(#clip900)" d="M570.423 1131.83 L580.191 1131.83 L580.191 1143.59 L570.423 1143.59 L570.423 1131.83 Z" fill="#000000" fill-rule="nonzero" fill-opacity="1" /><path clip-path="url(#clip900)" d="M620.562 1080.63 Q613.339 1080.63 609.682 1087.76 Q606.071 1094.84 606.071 1109.1 Q606.071 1123.32 609.682 1130.45 Q613.339 1137.53 620.562 1137.53 Q627.83 1137.53 631.441 1130.45 Q635.099 1123.32 635.099 1109.1 Q635.099 1094.84 631.441 1087.76 Q627.83 1080.63 620.562 1080.63 M620.562 1073.22 Q632.182 1073.22 638.293 1082.44 Q644.45 1091.6 644.45 1109.1 Q644.45 1126.56 638.293 1135.77 Q632.182 1144.94 620.562 1144.94 Q608.941 1144.94 602.784 1135.77 Q596.673 1126.56 596.673 1109.1 Q596.673 1091.6 602.784 1082.44 Q608.941 1073.22 620.562 1073.22 Z" fill="#000000" fill-rule="nonzero" fill-opacity="1" /><path clip-path="url(#clip900)" d="M391.072 926.581 L406.35 926.581 L406.35 873.85 L389.73 877.183 L389.73 868.665 L406.257 865.332 L415.609 865.332 L415.609 926.581 L430.887 926.581 L430.887 934.452 L391.072 934.452 L391.072 926.581 Z" fill="#000000" fill-rule="nonzero" fill-opacity="1" /><path clip-path="url(#clip900)" d="M470.933 896.165 Q464.637 896.165 460.933 900.47 Q457.275 904.776 457.275 912.276 Q457.275 919.729 460.933 924.081 Q464.637 928.387 470.933 928.387 Q477.229 928.387 480.886 924.081 Q484.59 919.729 484.59 912.276 Q484.59 904.776 480.886 900.47 Q477.229 896.165 470.933 896.165 M489.498 866.859 L489.498 875.378 Q485.979 873.711 482.368 872.831 Q478.803 871.952 475.285 871.952 Q466.025 871.952 461.118 878.202 Q456.257 884.452 455.562 897.091 Q458.294 893.063 462.414 890.933 Q466.535 888.757 471.488 888.757 Q481.905 888.757 487.923 895.1 Q493.988 901.396 493.988 912.276 Q493.988 922.924 487.692 929.359 Q481.396 935.794 470.933 935.794 Q458.942 935.794 452.6 926.627 Q446.257 917.415 446.257 899.961 Q446.257 883.572 454.035 873.85 Q461.812 864.082 474.914 864.082 Q478.433 864.082 481.998 864.776 Q485.609 865.47 489.498 866.859 Z" fill="#000000" fill-rule="nonzero" fill-opacity="1" /><path clip-path="url(#clip900)" d="M530.099 871.489 Q522.877 871.489 519.22 878.618 Q515.608 885.702 515.608 899.961 Q515.608 914.174 519.22 921.303 Q522.877 928.387 530.099 928.387 Q537.368 928.387 540.979 921.303 Q544.636 914.174 544.636 899.961 Q544.636 885.702 540.979 878.618 Q537.368 871.489 530.099 871.489 M530.099 864.082 Q541.719 864.082 547.831 873.294 Q553.988 882.461 553.988 899.961 Q553.988 917.415 547.831 926.627 Q541.719 935.794 530.099 935.794 Q518.479 935.794 512.321 926.627 Q506.21 917.415 506.21 899.961 Q506.21 882.461 512.321 873.294 Q518.479 864.082 530.099 864.082 Z" fill="#000000" fill-rule="nonzero" fill-opacity="1" /><path clip-path="url(#clip900)" d="M570.423 922.692 L580.191 922.692 L580.191 934.452 L570.423 934.452 L570.423 922.692 Z" fill="#000000" fill-rule="nonzero" fill-opacity="1" /><path clip-path="url(#clip900)" d="M620.562 871.489 Q613.339 871.489 609.682 878.618 Q606.071 885.702 606.071 899.961 Q606.071 914.174 609.682 921.303 Q613.339 928.387 620.562 928.387 Q627.83 928.387 631.441 921.303 Q635.099 914.174 635.099 899.961 Q635.099 885.702 631.441 878.618 Q627.83 871.489 620.562 871.489 M620.562 864.082 Q632.182 864.082 638.293 873.294 Q644.45 882.461 644.45 899.961 Q644.45 917.415 638.293 926.627 Q632.182 935.794 620.562 935.794 Q608.941 935.794 602.784 926.627 Q596.673 917.415 596.673 899.961 Q596.673 882.461 602.784 873.294 Q608.941 864.082 620.562 864.082 Z" fill="#000000" fill-rule="nonzero" fill-opacity="1" /><path clip-path="url(#clip900)" d="M391.072 717.439 L406.35 717.439 L406.35 664.707 L389.73 668.041 L389.73 659.522 L406.257 656.189 L415.609 656.189 L415.609 717.439 L430.887 717.439 L430.887 725.309 L391.072 725.309 L391.072 717.439 Z" fill="#000000" fill-rule="nonzero" fill-opacity="1" /><path clip-path="url(#clip900)" d="M469.775 692.485 Q463.109 692.485 459.266 696.05 Q455.47 699.615 455.47 705.865 Q455.47 712.115 459.266 715.679 Q463.109 719.244 469.775 719.244 Q476.442 719.244 480.285 715.679 Q484.127 712.068 484.127 705.865 Q484.127 699.615 480.285 696.05 Q476.488 692.485 469.775 692.485 M460.424 688.504 Q454.405 687.022 451.025 682.902 Q447.692 678.781 447.692 672.856 Q447.692 664.569 453.572 659.754 Q459.498 654.939 469.775 654.939 Q480.099 654.939 485.979 659.754 Q491.859 664.569 491.859 672.856 Q491.859 678.781 488.479 682.902 Q485.146 687.022 479.173 688.504 Q485.933 690.078 489.683 694.661 Q493.479 699.244 493.479 705.865 Q493.479 715.911 487.322 721.281 Q481.211 726.652 469.775 726.652 Q458.34 726.652 452.183 721.281 Q446.072 715.911 446.072 705.865 Q446.072 699.244 449.868 694.661 Q453.664 690.078 460.424 688.504 M456.998 673.735 Q456.998 679.105 460.331 682.115 Q463.711 685.124 469.775 685.124 Q475.794 685.124 479.173 682.115 Q482.599 679.105 482.599 673.735 Q482.599 668.365 479.173 665.356 Q475.794 662.346 469.775 662.346 Q463.711 662.346 460.331 665.356 Q456.998 668.365 456.998 673.735 Z" fill="#000000" fill-rule="nonzero" fill-opacity="1" /><path clip-path="url(#clip900)" d="M530.099 662.346 Q522.877 662.346 519.22 669.476 Q515.608 676.559 515.608 690.818 Q515.608 705.031 519.22 712.161 Q522.877 719.244 530.099 719.244 Q537.368 719.244 540.979 712.161 Q544.636 705.031 544.636 690.818 Q544.636 676.559 540.979 669.476 Q537.368 662.346 530.099 662.346 M530.099 654.939 Q541.719 654.939 547.831 664.152 Q553.988 673.318 553.988 690.818 Q553.988 708.272 547.831 717.485 Q541.719 726.652 530.099 726.652 Q518.479 726.652 512.321 717.485 Q506.21 708.272 506.21 690.818 Q506.21 673.318 512.321 664.152 Q518.479 654.939 530.099 654.939 Z" fill="#000000" fill-rule="nonzero" fill-opacity="1" /><path clip-path="url(#clip900)" d="M570.423 713.55 L580.191 713.55 L580.191 725.309 L570.423 725.309 L570.423 713.55 Z" fill="#000000" fill-rule="nonzero" fill-opacity="1" /><path clip-path="url(#clip900)" d="M620.562 662.346 Q613.339 662.346 609.682 669.476 Q606.071 676.559 606.071 690.818 Q606.071 705.031 609.682 712.161 Q613.339 719.244 620.562 719.244 Q627.83 719.244 631.441 712.161 Q635.099 705.031 635.099 690.818 Q635.099 676.559 631.441 669.476 Q627.83 662.346 620.562 662.346 M620.562 654.939 Q632.182 654.939 638.293 664.152 Q644.45 673.318 644.45 690.818 Q644.45 708.272 638.293 717.485 Q632.182 726.652 620.562 726.652 Q608.941 726.652 602.784 717.485 Q596.673 708.272 596.673 690.818 Q596.673 673.318 602.784 664.152 Q608.941 654.939 620.562 654.939 Z" fill="#000000" fill-rule="nonzero" fill-opacity="1" /><path clip-path="url(#clip900)" d="M397.507 508.296 L430.146 508.296 L430.146 516.166 L386.257 516.166 L386.257 508.296 Q391.581 502.787 400.748 493.528 Q409.961 484.222 412.322 481.537 Q416.813 476.491 418.572 473.018 Q420.378 469.5 420.378 466.12 Q420.378 460.611 416.489 457.139 Q412.646 453.667 406.442 453.667 Q402.044 453.667 397.137 455.194 Q392.276 456.722 386.72 459.824 L386.72 450.38 Q392.368 448.111 397.276 446.954 Q402.183 445.796 406.257 445.796 Q416.998 445.796 423.387 451.167 Q429.776 456.537 429.776 465.518 Q429.776 469.778 428.155 473.62 Q426.581 477.417 422.368 482.602 Q421.211 483.944 415.007 490.379 Q408.803 496.768 397.507 508.296 Z" fill="#000000" fill-rule="nonzero" fill-opacity="1" /><path clip-path="url(#clip900)" d="M469.775 453.204 Q462.553 453.204 458.896 460.333 Q455.285 467.417 455.285 481.676 Q455.285 495.889 458.896 503.018 Q462.553 510.102 469.775 510.102 Q477.044 510.102 480.655 503.018 Q484.312 495.889 484.312 481.676 Q484.312 467.417 480.655 460.333 Q477.044 453.204 469.775 453.204 M469.775 445.796 Q481.396 445.796 487.507 455.009 Q493.664 464.176 493.664 481.676 Q493.664 499.129 487.507 508.342 Q481.396 517.509 469.775 517.509 Q458.155 517.509 451.998 508.342 Q445.887 499.129 445.887 481.676 Q445.887 464.176 451.998 455.009 Q458.155 445.796 469.775 445.796 Z" fill="#000000" fill-rule="nonzero" fill-opacity="1" /><path clip-path="url(#clip900)" d="M530.099 453.204 Q522.877 453.204 519.22 460.333 Q515.608 467.417 515.608 481.676 Q515.608 495.889 519.22 503.018 Q522.877 510.102 530.099 510.102 Q537.368 510.102 540.979 503.018 Q544.636 495.889 544.636 481.676 Q544.636 467.417 540.979 460.333 Q537.368 453.204 530.099 453.204 M530.099 445.796 Q541.719 445.796 547.831 455.009 Q553.988 464.176 553.988 481.676 Q553.988 499.129 547.831 508.342 Q541.719 517.509 530.099 517.509 Q518.479 517.509 512.321 508.342 Q506.21 499.129 506.21 481.676 Q506.21 464.176 512.321 455.009 Q518.479 445.796 530.099 445.796 Z" fill="#000000" fill-rule="nonzero" fill-opacity="1" /><path clip-path="url(#clip900)" d="M570.423 504.407 L580.191 504.407 L580.191 516.166 L570.423 516.166 L570.423 504.407 Z" fill="#000000" fill-rule="nonzero" fill-opacity="1" /><path clip-path="url(#clip900)" d="M620.562 453.204 Q613.339 453.204 609.682 460.333 Q606.071 467.417 606.071 481.676 Q606.071 495.889 609.682 503.018 Q613.339 510.102 620.562 510.102 Q627.83 510.102 631.441 503.018 Q635.099 495.889 635.099 481.676 Q635.099 467.417 631.441 460.333 Q627.83 453.204 620.562 453.204 M620.562 445.796 Q632.182 445.796 638.293 455.009 Q644.45 464.176 644.45 481.676 Q644.45 499.129 638.293 508.342 Q632.182 517.509 620.562 517.509 Q608.941 517.509 602.784 508.342 Q596.673 499.129 596.673 481.676 Q596.673 464.176 602.784 455.009 Q608.941 445.796 620.562 445.796 Z" fill="#000000" fill-rule="nonzero" fill-opacity="1" /><path clip-path="url(#clip900)" d="M397.507 299.153 L430.146 299.153 L430.146 307.024 L386.257 307.024 L386.257 299.153 Q391.581 293.644 400.748 284.385 Q409.961 275.079 412.322 272.394 Q416.813 267.348 418.572 263.876 Q420.378 260.357 420.378 256.978 Q420.378 251.468 416.489 247.996 Q412.646 244.524 406.442 244.524 Q402.044 244.524 397.137 246.052 Q392.276 247.58 386.72 250.681 L386.72 241.237 Q392.368 238.969 397.276 237.811 Q402.183 236.654 406.257 236.654 Q416.998 236.654 423.387 242.024 Q429.776 247.394 429.776 256.376 Q429.776 260.635 428.155 264.478 Q426.581 268.274 422.368 273.459 Q421.211 274.802 415.007 281.237 Q408.803 287.626 397.507 299.153 Z" fill="#000000" fill-rule="nonzero" fill-opacity="1" /><path clip-path="url(#clip900)" d="M457.831 299.153 L490.47 299.153 L490.47 307.024 L446.581 307.024 L446.581 299.153 Q451.905 293.644 461.072 284.385 Q470.285 275.079 472.646 272.394 Q477.136 267.348 478.896 263.876 Q480.701 260.357 480.701 256.978 Q480.701 251.468 476.812 247.996 Q472.97 244.524 466.766 244.524 Q462.368 244.524 457.461 246.052 Q452.6 247.58 447.044 250.681 L447.044 241.237 Q452.692 238.969 457.6 237.811 Q462.507 236.654 466.581 236.654 Q477.322 236.654 483.71 242.024 Q490.099 247.394 490.099 256.376 Q490.099 260.635 488.479 264.478 Q486.905 268.274 482.692 273.459 Q481.535 274.802 475.331 281.237 Q469.127 287.626 457.831 299.153 Z" fill="#000000" fill-rule="nonzero" fill-opacity="1" /><path clip-path="url(#clip900)" d="M530.099 244.061 Q522.877 244.061 519.22 251.191 Q515.608 258.274 515.608 272.533 Q515.608 286.746 519.22 293.876 Q522.877 300.959 530.099 300.959 Q537.368 300.959 540.979 293.876 Q544.636 286.746 544.636 272.533 Q544.636 258.274 540.979 251.191 Q537.368 244.061 530.099 244.061 M530.099 236.654 Q541.719 236.654 547.831 245.867 Q553.988 255.033 553.988 272.533 Q553.988 289.987 547.831 299.2 Q541.719 308.366 530.099 308.366 Q518.479 308.366 512.321 299.2 Q506.21 289.987 506.21 272.533 Q506.21 255.033 512.321 245.867 Q518.479 236.654 530.099 236.654 Z" fill="#000000" fill-rule="nonzero" fill-opacity="1" /><path clip-path="url(#clip900)" d="M570.423 295.265 L580.191 295.265 L580.191 307.024 L570.423 307.024 L570.423 295.265 Z" fill="#000000" fill-rule="nonzero" fill-opacity="1" /><path clip-path="url(#clip900)" d="M620.562 244.061 Q613.339 244.061 609.682 251.191 Q606.071 258.274 606.071 272.533 Q606.071 286.746 609.682 293.876 Q613.339 300.959 620.562 300.959 Q627.83 300.959 631.441 293.876 Q635.099 286.746 635.099 272.533 Q635.099 258.274 631.441 251.191 Q627.83 244.061 620.562 244.061 M620.562 236.654 Q632.182 236.654 638.293 245.867 Q644.45 255.033 644.45 272.533 Q644.45 289.987 638.293 299.2 Q632.182 308.366 620.562 308.366 Q608.941 308.366 602.784 299.2 Q596.673 289.987 596.673 272.533 Q596.673 255.033 602.784 245.867 Q608.941 236.654 620.562 236.654 Z" fill="#000000" fill-rule="nonzero" fill-opacity="1" /><path clip-path="url(#clip900)" d="M253.187 1099.45 L264.136 1099.45 Q261.398 1104.42 260.062 1109.45 Q258.661 1114.41 258.661 1119.51 Q258.661 1130.9 265.918 1137.2 Q273.111 1143.51 286.161 1143.51 Q299.211 1143.51 306.468 1137.2 Q313.661 1130.9 313.661 1119.51 Q313.661 1114.41 312.324 1109.45 Q310.924 1104.42 308.186 1099.45 L319.008 1099.45 Q321.3 1104.36 322.446 1109.64 Q323.591 1114.86 323.591 1120.78 Q323.591 1136.88 313.47 1146.37 Q303.348 1155.85 286.161 1155.85 Q268.719 1155.85 258.725 1146.31 Q248.731 1136.69 248.731 1120.02 Q248.731 1114.6 249.876 1109.45 Q250.959 1104.29 253.187 1099.45 Z" fill="#000000" fill-rule="nonzero" fill-opacity="1" /><path clip-path="url(#clip900)" d="M258.661 1051.46 Q258.661 1060.88 266.045 1066.35 Q273.366 1071.83 286.161 1071.83 Q298.956 1071.83 306.34 1066.42 Q313.661 1060.94 313.661 1051.46 Q313.661 1042.1 306.277 1036.62 Q298.892 1031.15 286.161 1031.15 Q273.493 1031.15 266.109 1036.62 Q258.661 1042.1 258.661 1051.46 M248.731 1051.46 Q248.731 1036.18 258.661 1027.46 Q268.592 1018.74 286.161 1018.74 Q303.667 1018.74 313.661 1027.46 Q323.591 1036.18 323.591 1051.46 Q323.591 1066.8 313.661 1075.52 Q303.667 1084.18 286.161 1084.18 Q268.592 1084.18 258.661 1075.52 Q248.731 1066.8 248.731 1051.46 Z" fill="#000000" fill-rule="nonzero" fill-opacity="1" /><path clip-path="url(#clip900)" d="M278.713 940.057 L321.745 940.057 L321.745 951.77 L279.095 951.77 Q268.974 951.77 263.945 955.717 Q258.916 959.663 258.916 967.557 Q258.916 977.042 264.963 982.516 Q271.011 987.991 281.45 987.991 L321.745 987.991 L321.745 999.767 L250.449 999.767 L250.449 987.991 L261.526 987.991 Q255.096 983.789 251.914 978.124 Q248.731 972.395 248.731 964.947 Q248.731 952.661 256.37 946.359 Q263.945 940.057 278.713 940.057 Z" fill="#000000" fill-rule="nonzero" fill-opacity="1" /><path clip-path="url(#clip900)" d="M253.187 865.387 L264.136 865.387 Q261.398 870.353 260.062 875.381 Q258.661 880.347 258.661 885.439 Q258.661 896.834 265.918 903.136 Q273.111 909.438 286.161 909.438 Q299.211 909.438 306.468 903.136 Q313.661 896.834 313.661 885.439 Q313.661 880.347 312.324 875.381 Q310.924 870.353 308.186 865.387 L319.008 865.387 Q321.3 870.289 322.446 875.572 Q323.591 880.792 323.591 886.712 Q323.591 902.818 313.47 912.303 Q303.348 921.787 286.161 921.787 Q268.719 921.787 258.725 912.239 Q248.731 902.627 248.731 885.949 Q248.731 880.538 249.876 875.381 Q250.959 870.225 253.187 865.387 Z" fill="#000000" fill-rule="nonzero" fill-opacity="1" /><path clip-path="url(#clip900)" d="M305.576 843.362 L305.576 829.93 L321.745 829.93 L321.745 843.362 L305.576 843.362 Z" fill="#000000" fill-rule="nonzero" fill-opacity="1" /><path clip-path="url(#clip900)" d="M250.449 770.538 L250.449 758.125 L310.287 735.845 L250.449 713.565 L250.449 701.152 L321.745 727.888 L321.745 743.802 L250.449 770.538 Z" fill="#000000" fill-rule="nonzero" fill-opacity="1" /><path clip-path="url(#clip900)" d="M283.169 624 L288.898 624 L288.898 677.854 Q300.993 677.09 307.359 670.597 Q313.661 664.04 313.661 652.391 Q313.661 645.643 312.006 639.341 Q310.351 632.975 307.041 626.737 L318.117 626.737 Q320.79 633.039 322.191 639.659 Q323.591 646.28 323.591 653.091 Q323.591 670.151 313.661 680.145 Q303.73 690.076 286.798 690.076 Q269.292 690.076 259.043 680.654 Q248.731 671.17 248.731 655.128 Q248.731 640.742 258.025 632.402 Q267.255 624 283.169 624 M279.732 635.713 Q270.119 635.84 264.39 641.123 Q258.661 646.343 258.661 655.001 Q258.661 664.804 264.199 670.724 Q269.737 676.58 279.795 677.472 L279.732 635.713 Z" fill="#000000" fill-rule="nonzero" fill-opacity="1" /><path clip-path="url(#clip900)" d="M278.713 545.511 L321.745 545.511 L321.745 557.223 L279.095 557.223 Q268.974 557.223 263.945 561.17 Q258.916 565.117 258.916 573.01 Q258.916 582.495 264.963 587.97 Q271.011 593.444 281.45 593.444 L321.745 593.444 L321.745 605.221 L250.449 605.221 L250.449 593.444 L261.526 593.444 Q255.096 589.243 251.914 583.577 Q248.731 577.848 248.731 570.4 Q248.731 558.115 256.37 551.813 Q263.945 545.511 278.713 545.511 Z" fill="#000000" fill-rule="nonzero" fill-opacity="1" /><path clip-path="url(#clip900)" d="M230.206 510.563 L250.449 510.563 L250.449 486.437 L259.552 486.437 L259.552 510.563 L298.256 510.563 Q306.977 510.563 309.459 508.207 Q311.942 505.789 311.942 498.468 L311.942 486.437 L321.745 486.437 L321.745 498.468 Q321.745 512.027 316.716 517.183 Q311.624 522.339 298.256 522.339 L259.552 522.339 L259.552 530.933 L250.449 530.933 L250.449 522.339 L230.206 522.339 L230.206 510.563 Z" fill="#000000" fill-rule="nonzero" fill-opacity="1" /><path clip-path="url(#clip900)" d="M261.398 429.718 Q260.253 431.692 259.743 434.047 Q259.17 436.339 259.17 439.14 Q259.17 449.07 265.663 454.417 Q272.093 459.701 284.188 459.701 L321.745 459.701 L321.745 471.477 L250.449 471.477 L250.449 459.701 L261.526 459.701 Q255.033 456.009 251.914 450.089 Q248.731 444.168 248.731 435.702 Q248.731 434.493 248.922 433.028 Q249.049 431.564 249.367 429.782 L261.398 429.718 Z" fill="#000000" fill-rule="nonzero" fill-opacity="1" /><path clip-path="url(#clip900)" d="M250.449 417.433 L250.449 405.72 L321.745 405.72 L321.745 417.433 L250.449 417.433 M222.695 417.433 L222.695 405.72 L237.527 405.72 L237.527 417.433 L222.695 417.433 Z" fill="#000000" fill-rule="nonzero" fill-opacity="1" /><path clip-path="url(#clip900)" d="M253.187 329.904 L264.136 329.904 Q261.398 334.869 260.062 339.898 Q258.661 344.863 258.661 349.956 Q258.661 361.351 265.918 367.653 Q273.111 373.955 286.161 373.955 Q299.211 373.955 306.468 367.653 Q313.661 361.351 313.661 349.956 Q313.661 344.863 312.324 339.898 Q310.924 334.869 308.186 329.904 L319.008 329.904 Q321.3 334.806 322.446 340.089 Q323.591 345.309 323.591 351.229 Q323.591 367.334 313.47 376.819 Q303.348 386.304 286.161 386.304 Q268.719 386.304 258.725 376.756 Q248.731 367.143 248.731 350.465 Q248.731 345.054 249.876 339.898 Q250.959 334.742 253.187 329.904 Z" fill="#000000" fill-rule="nonzero" fill-opacity="1" /><path clip-path="url(#clip900)" d="M222.695 309.534 L222.695 297.821 L321.745 297.821 L321.745 309.534 L222.695 309.534 Z" fill="#000000" fill-rule="nonzero" fill-opacity="1" /><path clip-path="url(#clip900)" d="M283.169 212.329 L288.898 212.329 L288.898 266.183 Q300.993 265.419 307.359 258.926 Q313.661 252.37 313.661 240.721 Q313.661 233.973 312.006 227.671 Q310.351 221.305 307.041 215.067 L318.117 215.067 Q320.79 221.369 322.191 227.989 Q323.591 234.609 323.591 241.421 Q323.591 258.481 313.661 268.475 Q303.73 278.405 286.798 278.405 Q269.292 278.405 259.043 268.984 Q248.731 259.499 248.731 243.458 Q248.731 229.071 258.025 220.732 Q267.255 212.329 283.169 212.329 M279.732 224.042 Q270.119 224.17 264.39 229.453 Q258.661 234.673 258.661 243.33 Q258.661 253.134 264.199 259.054 Q269.737 264.91 279.795 265.801 L279.732 224.042 Z" fill="#000000" fill-rule="nonzero" fill-opacity="1" /><polyline clip-path="url(#clip902)" style="stroke:#008000; stroke-linecap:round; stroke-linejoin:round; stroke-width:8; stroke-opacity:1; fill:none" points="726.443,169.263 844.372,150.448 962.301,167.17 1080.23,312.144 1198.16,437.87 1316.09,464.149 1434.02,566.973 1551.95,749.898 1669.87,747.683 1787.8,713.098 1905.73,992.746 2023.66,1059.39 2141.59,1003.14 2259.52,1240.32 "/>
<circle clip-path="url(#clip902)" cx="726.443" cy="169.263" r="14.4" fill="#008000" fill-rule="evenodd" fill-opacity="1" stroke="#000000" stroke-opacity="1" stroke-width="6.4"/>
<circle clip-path="url(#clip902)" cx="844.372" cy="150.448" r="14.4" fill="#008000" fill-rule="evenodd" fill-opacity="1" stroke="#000000" stroke-opacity="1" stroke-width="6.4"/>
<circle clip-path="url(#clip902)" cx="962.301" cy="167.17" r="14.4" fill="#008000" fill-rule="evenodd" fill-opacity="1" stroke="#000000" stroke-opacity="1" stroke-width="6.4"/>
<circle clip-path="url(#clip902)" cx="1080.23" cy="312.144" r="14.4" fill="#008000" fill-rule="evenodd" fill-opacity="1" stroke="#000000" stroke-opacity="1" stroke-width="6.4"/>
<circle clip-path="url(#clip902)" cx="1198.16" cy="437.87" r="14.4" fill="#008000" fill-rule="evenodd" fill-opacity="1" stroke="#000000" stroke-opacity="1" stroke-width="6.4"/>
<circle clip-path="url(#clip902)" cx="1316.09" cy="464.149" r="14.4" fill="#008000" fill-rule="evenodd" fill-opacity="1" stroke="#000000" stroke-opacity="1" stroke-width="6.4"/>
<circle clip-path="url(#clip902)" cx="1434.02" cy="566.973" r="14.4" fill="#008000" fill-rule="evenodd" fill-opacity="1" stroke="#000000" stroke-opacity="1" stroke-width="6.4"/>
<circle clip-path="url(#clip902)" cx="1551.95" cy="749.898" r="14.4" fill="#008000" fill-rule="evenodd" fill-opacity="1" stroke="#000000" stroke-opacity="1" stroke-width="6.4"/>
<circle clip-path="url(#clip902)" cx="1669.87" cy="747.683" r="14.4" fill="#008000" fill-rule="evenodd" fill-opacity="1" stroke="#000000" stroke-opacity="1" stroke-width="6.4"/>
<circle clip-path="url(#clip902)" cx="1787.8" cy="713.098" r="14.4" fill="#008000" fill-rule="evenodd" fill-opacity="1" stroke="#000000" stroke-opacity="1" stroke-width="6.4"/>
<circle clip-path="url(#clip902)" cx="1905.73" cy="992.746" r="14.4" fill="#008000" fill-rule="evenodd" fill-opacity="1" stroke="#000000" stroke-opacity="1" stroke-width="6.4"/>
<circle clip-path="url(#clip902)" cx="2023.66" cy="1059.39" r="14.4" fill="#008000" fill-rule="evenodd" fill-opacity="1" stroke="#000000" stroke-opacity="1" stroke-width="6.4"/>
<circle clip-path="url(#clip902)" cx="2141.59" cy="1003.14" r="14.4" fill="#008000" fill-rule="evenodd" fill-opacity="1" stroke="#000000" stroke-opacity="1" stroke-width="6.4"/>
<circle clip-path="url(#clip902)" cx="2259.52" cy="1240.32" r="14.4" fill="#008000" fill-rule="evenodd" fill-opacity="1" stroke="#000000" stroke-opacity="1" stroke-width="6.4"/>
<polyline clip-path="url(#clip902)" style="stroke:#00008b; stroke-linecap:round; stroke-linejoin:round; stroke-width:8; stroke-opacity:1; fill:none" points="726.443,168.288 844.372,179.687 962.301,260.052 1080.23,356.468 1198.16,447.511 1316.09,536.142 1434.02,626.491 1551.95,703.585 1669.87,773.971 1787.8,841.525 1905.73,903.694 2023.66,966.124 2141.59,1017.82 2259.52,1070.49 "/>
<path clip-path="url(#clip902)" d="M726.443 209.578 L844.372 220.972 L962.301 302.469 L1080.23 398.371 L1198.16 486.732 L1316.09 579.581 L1434.02 668.964 L1551.95 745.653 L1669.87 816.591 L1787.8 883.184 L1905.73 945.826 L2023.66 1010.3 L2141.59 1057.68 L2259.52 1113.52 L2259.52 1028.5 L2141.59 975.887 L2023.66 922.106 L1905.73 861.09 L1787.8 799.083 L1669.87 729.843 L1551.95 660.734 L1434.02 582.302 L1316.09 494.404 L1198.16 402.028 L1080.23 306.266 L962.301 214.195 L844.372 131.766 L726.443 127.862  Z" fill="#0000ff" fill-rule="evenodd" fill-opacity="0.1"/>
<polyline clip-path="url(#clip902)" style="stroke:#0000ff; stroke-linecap:round; stroke-linejoin:round; stroke-width:0; stroke-opacity:0.1; fill:none" points="726.443,209.578 844.372,220.972 962.301,302.469 1080.23,398.371 1198.16,486.732 1316.09,579.581 1434.02,668.964 1551.95,745.653 1669.87,816.591 1787.8,883.184 1905.73,945.826 2023.66,1010.3 2141.59,1057.68 2259.52,1113.52 "/>
</svg>
