<?xml version="1.0" encoding="utf-8"?>
<svg xmlns="http://www.w3.org/2000/svg" xmlns:xlink="http://www.w3.org/1999/xlink" width="600" height="400" viewBox="0 0 2400 1600">
<defs>
  <clipPath id="clip710">
    <rect x="0" y="0" width="2400" height="1600"/>
  </clipPath>
</defs>
<path clip-path="url(#clip710)" d="M0 1600 L2400 1600 L2400 0 L0 0  Z" fill="#ffffff" fill-rule="evenodd" fill-opacity="1"/>
<defs>
  <clipPath id="clip711">
    <rect x="480" y="0" width="1681" height="1600"/>
  </clipPath>
</defs>
<path clip-path="url(#clip710)" d="M685.08 1273.7 L2305.51 1273.7 L2305.51 94.4882 L685.08 94.4882  Z" fill="#ffffff" fill-rule="evenodd" fill-opacity="1"/>
<defs>
  <clipPath id="clip712">
    <rect x="685" y="94" width="1621" height="1180"/>
  </clipPath>
</defs>
<polyline clip-path="url(#clip712)" style="stroke:#000000; stroke-linecap:round; stroke-linejoin:round; stroke-width:4; stroke-opacity:0.1; fill:none" points="730.941,1273.7 730.941,94.4882 "/>
<polyline clip-path="url(#clip712)" style="stroke:#000000; stroke-linecap:round; stroke-linejoin:round; stroke-width:4; stroke-opacity:0.1; fill:none" points="966.127,1273.7 966.127,94.4882 "/>
<polyline clip-path="url(#clip712)" style="stroke:#000000; stroke-linecap:round; stroke-linejoin:round; stroke-width:4; stroke-opacity:0.1; fill:none" points="1201.31,1273.7 1201.31,94.4882 "/>
<polyline clip-path="url(#clip712)" style="stroke:#000000; stroke-linecap:round; stroke-linejoin:round; stroke-width:4; stroke-opacity:0.1; fill:none" points="1436.5,1273.7 1436.5,94.4882 "/>
<polyline clip-path="url(#clip712)" style="stroke:#000000; stroke-linecap:round; stroke-linejoin:round; stroke-width:4; stroke-opacity:0.1; fill:none" points="1671.69,1273.7 1671.69,94.4882 "/>
<polyline clip-path="url(#clip712)" style="stroke:#000000; stroke-linecap:round; stroke-linejoin:round; stroke-width:4; stroke-opacity:0.1; fill:none" points="1906.87,1273.7 1906.87,94.4882 "/>
<polyline clip-path="url(#clip712)" style="stroke:#000000; stroke-linecap:round; stroke-linejoin:round; stroke-width:4; stroke-opacity:0.1; fill:none" points="2142.06,1273.7 2142.06,94.4882 "/>
<polyline clip-path="url(#clip710)" style="stroke:#000000; stroke-linecap:round; stroke-linejoin:round; stroke-width:8; stroke-opacity:1; fill:none" points="685.08,1273.7 2305.51,1273.7 "/>
<polyline clip-path="url(#clip710)" style="stroke:#000000; stroke-linecap:round; stroke-linejoin:round; stroke-width:8; stroke-opacity:1; fill:none" points="730.941,1273.7 730.941,1254.8 "/>
<polyline clip-path="url(#clip710)" style="stroke:#000000; stroke-linecap:round; stroke-linejoin:round; stroke-width:8; stroke-opacity:1; fill:none" points="966.127,1273.7 966.127,1254.8 "/>
<polyline clip-path="url(#clip710)" style="stroke:#000000; stroke-linecap:round; stroke-linejoin:round; stroke-width:8; stroke-opacity:1; fill:none" points="1201.31,1273.7 1201.31,1254.8 "/>
<polyline clip-path="url(#clip710)" style="stroke:#000000; stroke-linecap:round; stroke-linejoin:round; stroke-width:8; stroke-opacity:1; fill:none" points="1436.5,1273.7 1436.5,1254.8 "/>
<polyline clip-path="url(#clip710)" style="stroke:#000000; stroke-linecap:round; stroke-linejoin:round; stroke-width:8; stroke-opacity:1; fill:none" points="1671.69,1273.7 1671.69,1254.8 "/>
<polyline clip-path="url(#clip710)" style="stroke:#000000; stroke-linecap:round; stroke-linejoin:round; stroke-width:8; stroke-opacity:1; fill:none" points="1906.87,1273.7 1906.87,1254.8 "/>
<polyline clip-path="url(#clip710)" style="stroke:#000000; stroke-linecap:round; stroke-linejoin:round; stroke-width:8; stroke-opacity:1; fill:none" points="2142.06,1273.7 2142.06,1254.8 "/>
<path clip-path="url(#clip710)" d="M685.71 1316.33 Q678.488 1316.33 674.83 1323.46 Q671.219 1330.55 671.219 1344.81 Q671.219 1359.02 674.83 1366.15 Q678.488 1373.23 685.71 1373.23 Q692.978 1373.23 696.59 1366.15 Q700.247 1359.02 700.247 1344.81 Q700.247 1330.55 696.59 1323.46 Q692.978 1316.33 685.71 1316.33 M685.71 1308.93 Q697.33 1308.93 703.441 1318.14 Q709.599 1327.31 709.599 1344.81 Q709.599 1362.26 703.441 1371.47 Q697.33 1380.64 685.71 1380.64 Q674.09 1380.64 667.932 1371.47 Q661.821 1362.26 661.821 1344.81 Q661.821 1327.31 667.932 1318.14 Q674.09 1308.93 685.71 1308.93 Z" fill="#000000" fill-rule="nonzero" fill-opacity="1" /><path clip-path="url(#clip710)" d="M726.034 1367.54 L735.802 1367.54 L735.802 1379.3 L726.034 1379.3 L726.034 1367.54 Z" fill="#000000" fill-rule="nonzero" fill-opacity="1" /><path clip-path="url(#clip710)" d="M776.172 1316.33 Q768.95 1316.33 765.293 1323.46 Q761.682 1330.55 761.682 1344.81 Q761.682 1359.02 765.293 1366.15 Q768.95 1373.23 776.172 1373.23 Q783.441 1373.23 787.052 1366.15 Q790.709 1359.02 790.709 1344.81 Q790.709 1330.55 787.052 1323.46 Q783.441 1316.33 776.172 1316.33 M776.172 1308.93 Q787.793 1308.93 793.904 1318.14 Q800.061 1327.31 800.061 1344.81 Q800.061 1362.26 793.904 1371.47 Q787.793 1380.64 776.172 1380.64 Q764.552 1380.64 758.395 1371.47 Q752.284 1362.26 752.284 1344.81 Q752.284 1327.31 758.395 1318.14 Q764.552 1308.93 776.172 1308.93 Z" fill="#000000" fill-rule="nonzero" fill-opacity="1" /><path clip-path="url(#clip710)" d="M922.493 1316.33 Q915.271 1316.33 911.614 1323.46 Q908.003 1330.55 908.003 1344.81 Q908.003 1359.02 911.614 1366.15 Q915.271 1373.23 922.493 1373.23 Q929.762 1373.23 933.373 1366.15 Q937.03 1359.02 937.03 1344.81 Q937.03 1330.55 933.373 1323.46 Q929.762 1316.33 922.493 1316.33 M922.493 1308.93 Q934.114 1308.93 940.225 1318.14 Q946.382 1327.31 946.382 1344.81 Q946.382 1362.26 940.225 1371.47 Q934.114 1380.64 922.493 1380.64 Q910.873 1380.64 904.716 1371.47 Q898.605 1362.26 898.605 1344.81 Q898.605 1327.31 904.716 1318.14 Q910.873 1308.93 922.493 1308.93 Z" fill="#000000" fill-rule="nonzero" fill-opacity="1" /><path clip-path="url(#clip710)" d="M962.817 1367.54 L972.586 1367.54 L972.586 1379.3 L962.817 1379.3 L962.817 1367.54 Z" fill="#000000" fill-rule="nonzero" fill-opacity="1" /><path clip-path="url(#clip710)" d="M1001.01 1371.43 L1033.65 1371.43 L1033.65 1379.3 L989.761 1379.3 L989.761 1371.43 Q995.085 1365.92 1004.25 1356.66 Q1013.47 1347.35 1015.83 1344.67 Q1020.32 1339.62 1022.08 1336.15 Q1023.88 1332.63 1023.88 1329.25 Q1023.88 1323.74 1019.99 1320.27 Q1016.15 1316.8 1009.95 1316.8 Q1005.55 1316.8 1000.64 1318.32 Q995.78 1319.85 990.224 1322.95 L990.224 1313.51 Q995.873 1311.24 1000.78 1310.08 Q1005.69 1308.93 1009.76 1308.93 Q1020.5 1308.93 1026.89 1314.3 Q1033.28 1319.67 1033.28 1328.65 Q1033.28 1332.91 1031.66 1336.75 Q1030.09 1340.55 1025.87 1345.73 Q1024.71 1347.07 1018.51 1353.51 Q1012.31 1359.9 1001.01 1371.43 Z" fill="#000000" fill-rule="nonzero" fill-opacity="1" /><path clip-path="url(#clip710)" d="M1155.6 1316.33 Q1148.37 1316.33 1144.72 1323.46 Q1141.11 1330.55 1141.11 1344.81 Q1141.11 1359.02 1144.72 1366.15 Q1148.37 1373.23 1155.6 1373.23 Q1162.86 1373.23 1166.48 1366.15 Q1170.13 1359.02 1170.13 1344.81 Q1170.13 1330.55 1166.48 1323.46 Q1162.86 1316.33 1155.6 1316.33 M1155.6 1308.93 Q1167.22 1308.93 1173.33 1318.14 Q1179.48 1327.31 1179.48 1344.81 Q1179.48 1362.26 1173.33 1371.47 Q1167.22 1380.64 1155.6 1380.64 Q1143.98 1380.64 1137.82 1371.47 Q1131.71 1362.26 1131.71 1344.81 Q1131.71 1327.31 1137.82 1318.14 Q1143.98 1308.93 1155.6 1308.93 Z" fill="#000000" fill-rule="nonzero" fill-opacity="1" /><path clip-path="url(#clip710)" d="M1195.92 1367.54 L1205.69 1367.54 L1205.69 1379.3 L1195.92 1379.3 L1195.92 1367.54 Z" fill="#000000" fill-rule="nonzero" fill-opacity="1" /><path clip-path="url(#clip710)" d="M1251.75 1318.32 L1228.14 1355.22 L1251.75 1355.22 L1251.75 1318.32 M1249.3 1310.18 L1261.06 1310.18 L1261.06 1355.22 L1270.92 1355.22 L1270.92 1363 L1261.06 1363 L1261.06 1379.3 L1251.75 1379.3 L1251.75 1363 L1220.55 1363 L1220.55 1353.97 L1249.3 1310.18 Z" fill="#000000" fill-rule="nonzero" fill-opacity="1" /><path clip-path="url(#clip710)" d="M1391.11 1316.33 Q1383.88 1316.33 1380.23 1323.46 Q1376.62 1330.55 1376.62 1344.81 Q1376.62 1359.02 1380.23 1366.15 Q1383.88 1373.23 1391.11 1373.23 Q1398.37 1373.23 1401.99 1366.15 Q1405.64 1359.02 1405.64 1344.81 Q1405.64 1330.55 1401.99 1323.46 Q1398.37 1316.33 1391.11 1316.33 M1391.11 1308.93 Q1402.73 1308.93 1408.84 1318.14 Q1414.99 1327.31 1414.99 1344.81 Q1414.99 1362.26 1408.84 1371.47 Q1402.73 1380.64 1391.11 1380.64 Q1379.49 1380.64 1373.33 1371.47 Q1367.22 1362.26 1367.22 1344.81 Q1367.22 1327.31 1373.33 1318.14 Q1379.49 1308.93 1391.11 1308.93 Z" fill="#000000" fill-rule="nonzero" fill-opacity="1" /><path clip-path="url(#clip710)" d="M1431.43 1367.54 L1441.2 1367.54 L1441.2 1379.3 L1431.43 1379.3 L1431.43 1367.54 Z" fill="#000000" fill-rule="nonzero" fill-opacity="1" /><path clip-path="url(#clip710)" d="M1482.73 1341.01 Q1476.43 1341.01 1472.73 1345.31 Q1469.07 1349.62 1469.07 1357.12 Q1469.07 1364.57 1472.73 1368.93 Q1476.43 1373.23 1482.73 1373.23 Q1489.02 1373.23 1492.68 1368.93 Q1496.38 1364.57 1496.38 1357.12 Q1496.38 1349.62 1492.68 1345.31 Q1489.02 1341.01 1482.73 1341.01 M1501.29 1311.7 L1501.29 1320.22 Q1497.77 1318.56 1494.16 1317.68 Q1490.6 1316.8 1487.08 1316.8 Q1477.82 1316.8 1472.91 1323.05 Q1468.05 1329.3 1467.36 1341.93 Q1470.09 1337.91 1474.21 1335.78 Q1478.33 1333.6 1483.28 1333.6 Q1493.7 1333.6 1499.72 1339.94 Q1505.78 1346.24 1505.78 1357.12 Q1505.78 1367.77 1499.49 1374.2 Q1493.19 1380.64 1482.73 1380.64 Q1470.74 1380.64 1464.39 1371.47 Q1458.05 1362.26 1458.05 1344.81 Q1458.05 1328.42 1465.83 1318.69 Q1473.61 1308.93 1486.71 1308.93 Q1490.23 1308.93 1493.79 1309.62 Q1497.4 1310.31 1501.29 1311.7 Z" fill="#000000" fill-rule="nonzero" fill-opacity="1" /><path clip-path="url(#clip710)" d="M1626.55 1316.33 Q1619.32 1316.33 1615.67 1323.46 Q1612.06 1330.55 1612.06 1344.81 Q1612.06 1359.02 1615.67 1366.15 Q1619.32 1373.23 1626.55 1373.23 Q1633.82 1373.23 1637.43 1366.15 Q1641.08 1359.02 1641.08 1344.81 Q1641.08 1330.55 1637.43 1323.46 Q1633.82 1316.33 1626.55 1316.33 M1626.55 1308.93 Q1638.17 1308.93 1644.28 1318.14 Q1650.44 1327.31 1650.44 1344.81 Q1650.44 1362.26 1644.28 1371.47 Q1638.17 1380.64 1626.55 1380.64 Q1614.93 1380.64 1608.77 1371.47 Q1602.66 1362.26 1602.66 1344.81 Q1602.66 1327.31 1608.77 1318.14 Q1614.93 1308.93 1626.55 1308.93 Z" fill="#000000" fill-rule="nonzero" fill-opacity="1" /><path clip-path="url(#clip710)" d="M1666.87 1367.54 L1676.64 1367.54 L1676.64 1379.3 L1666.87 1379.3 L1666.87 1367.54 Z" fill="#000000" fill-rule="nonzero" fill-opacity="1" /><path clip-path="url(#clip710)" d="M1717.01 1346.47 Q1710.34 1346.47 1706.5 1350.04 Q1702.7 1353.6 1702.7 1359.85 Q1702.7 1366.1 1706.5 1369.67 Q1710.34 1373.23 1717.01 1373.23 Q1723.68 1373.23 1727.52 1369.67 Q1731.36 1366.06 1731.36 1359.85 Q1731.36 1353.6 1727.52 1350.04 Q1723.72 1346.47 1717.01 1346.47 M1707.66 1342.49 Q1701.64 1341.01 1698.26 1336.89 Q1694.93 1332.77 1694.93 1326.84 Q1694.93 1318.56 1700.81 1313.74 Q1706.73 1308.93 1717.01 1308.93 Q1727.33 1308.93 1733.21 1313.74 Q1739.09 1318.56 1739.09 1326.84 Q1739.09 1332.77 1735.71 1336.89 Q1732.38 1341.01 1726.41 1342.49 Q1733.17 1344.06 1736.92 1348.65 Q1740.71 1353.23 1740.71 1359.85 Q1740.71 1369.9 1734.56 1375.27 Q1728.44 1380.64 1717.01 1380.64 Q1705.57 1380.64 1699.42 1375.27 Q1693.31 1369.9 1693.31 1359.85 Q1693.31 1353.23 1697.1 1348.65 Q1700.9 1344.06 1707.66 1342.49 M1704.23 1327.72 Q1704.23 1333.09 1707.56 1336.1 Q1710.94 1339.11 1717.01 1339.11 Q1723.03 1339.11 1726.41 1336.1 Q1729.83 1333.09 1729.83 1327.72 Q1729.83 1322.35 1726.41 1319.34 Q1723.03 1316.33 1717.01 1316.33 Q1710.94 1316.33 1707.56 1319.34 Q1704.23 1322.35 1704.23 1327.72 Z" fill="#000000" fill-rule="nonzero" fill-opacity="1" /><path clip-path="url(#clip710)" d="M1841.18 1371.43 L1856.46 1371.43 L1856.46 1318.69 L1839.83 1322.03 L1839.83 1313.51 L1856.36 1310.18 L1865.71 1310.18 L1865.71 1371.43 L1880.99 1371.43 L1880.99 1379.3 L1841.18 1379.3 L1841.18 1371.43 Z" fill="#000000" fill-rule="nonzero" fill-opacity="1" /><path clip-path="url(#clip710)" d="M1899.88 1367.54 L1909.65 1367.54 L1909.65 1379.3 L1899.88 1379.3 L1899.88 1367.54 Z" fill="#000000" fill-rule="nonzero" fill-opacity="1" /><path clip-path="url(#clip710)" d="M1950.02 1316.33 Q1942.8 1316.33 1939.14 1323.46 Q1935.53 1330.55 1935.53 1344.81 Q1935.53 1359.02 1939.14 1366.15 Q1942.8 1373.23 1950.02 1373.23 Q1957.29 1373.23 1960.9 1366.15 Q1964.56 1359.02 1964.56 1344.81 Q1964.56 1330.55 1960.9 1323.46 Q1957.29 1316.33 1950.02 1316.33 M1950.02 1308.93 Q1961.64 1308.93 1967.75 1318.14 Q1973.91 1327.31 1973.91 1344.81 Q1973.91 1362.26 1967.75 1371.47 Q1961.64 1380.64 1950.02 1380.64 Q1938.4 1380.64 1932.24 1371.47 Q1926.13 1362.26 1926.13 1344.81 Q1926.13 1327.31 1932.24 1318.14 Q1938.4 1308.93 1950.02 1308.93 Z" fill="#000000" fill-rule="nonzero" fill-opacity="1" /><path clip-path="url(#clip710)" d="M2077.96 1371.43 L2093.24 1371.43 L2093.24 1318.69 L2076.62 1322.03 L2076.62 1313.51 L2093.15 1310.18 L2102.5 1310.18 L2102.5 1371.43 L2117.78 1371.43 L2117.78 1379.3 L2077.96 1379.3 L2077.96 1371.43 Z" fill="#000000" fill-rule="nonzero" fill-opacity="1" /><path clip-path="url(#clip710)" d="M2136.66 1367.54 L2146.43 1367.54 L2146.43 1379.3 L2136.66 1379.3 L2136.66 1367.54 Z" fill="#000000" fill-rule="nonzero" fill-opacity="1" /><path clip-path="url(#clip710)" d="M2174.86 1371.43 L2207.5 1371.43 L2207.5 1379.3 L2163.61 1379.3 L2163.61 1371.43 Q2168.93 1365.92 2178.1 1356.66 Q2187.31 1347.35 2189.67 1344.67 Q2194.16 1339.62 2195.92 1336.15 Q2197.73 1332.63 2197.73 1329.25 Q2197.73 1323.74 2193.84 1320.27 Q2190 1316.8 2183.79 1316.8 Q2179.4 1316.8 2174.49 1318.32 Q2169.63 1319.85 2164.07 1322.95 L2164.07 1313.51 Q2169.72 1311.24 2174.63 1310.08 Q2179.53 1308.93 2183.61 1308.93 Q2194.35 1308.93 2200.74 1314.3 Q2207.13 1319.67 2207.13 1328.65 Q2207.13 1332.91 2205.51 1336.75 Q2203.93 1340.55 2199.72 1345.73 Q2198.56 1347.07 2192.36 1353.51 Q2186.15 1359.9 2174.86 1371.43 Z" fill="#000000" fill-rule="nonzero" fill-opacity="1" /><path clip-path="url(#clip710)" d="M1380.84 1484.39 L1380.84 1527.42 L1369.13 1527.42 L1369.13 1484.77 Q1369.13 1474.65 1365.18 1469.62 Q1361.23 1464.59 1353.34 1464.59 Q1343.86 1464.59 1338.38 1470.64 Q1332.91 1476.69 1332.91 1487.13 L1332.91 1527.42 L1321.13 1527.42 L1321.13 1428.37 L1332.91 1428.37 L1332.91 1467.2 Q1337.11 1460.77 1342.77 1457.59 Q1348.5 1454.41 1355.95 1454.41 Q1368.24 1454.41 1374.54 1462.05 Q1380.84 1469.62 1380.84 1484.39 Z" fill="#000000" fill-rule="nonzero" fill-opacity="1" /><path clip-path="url(#clip710)" d="M1431.83 1464.34 Q1422.41 1464.34 1416.93 1471.72 Q1411.46 1479.04 1411.46 1491.84 Q1411.46 1504.63 1416.87 1512.02 Q1422.34 1519.34 1431.83 1519.34 Q1441.19 1519.34 1446.66 1511.96 Q1452.14 1504.57 1452.14 1491.84 Q1452.14 1479.17 1446.66 1471.79 Q1441.19 1464.34 1431.83 1464.34 M1431.83 1454.41 Q1447.11 1454.41 1455.83 1464.34 Q1464.55 1474.27 1464.55 1491.84 Q1464.55 1509.35 1455.83 1519.34 Q1447.11 1529.27 1431.83 1529.27 Q1416.49 1529.27 1407.77 1519.34 Q1399.11 1509.35 1399.11 1491.84 Q1399.11 1474.27 1407.77 1464.34 Q1416.49 1454.41 1431.83 1454.41 Z" fill="#000000" fill-rule="nonzero" fill-opacity="1" /><path clip-path="url(#clip710)" d="M1482.76 1499.29 L1482.76 1456.13 L1494.47 1456.13 L1494.47 1498.84 Q1494.47 1508.96 1498.42 1514.06 Q1502.36 1519.08 1510.26 1519.08 Q1519.74 1519.08 1525.21 1513.04 Q1530.75 1506.99 1530.75 1496.55 L1530.75 1456.13 L1542.47 1456.13 L1542.47 1527.42 L1530.75 1527.42 L1530.75 1516.47 Q1526.49 1522.97 1520.82 1526.15 Q1515.22 1529.27 1507.77 1529.27 Q1495.49 1529.27 1489.12 1521.63 Q1482.76 1513.99 1482.76 1499.29 M1512.23 1454.41 L1512.23 1454.41 Z" fill="#000000" fill-rule="nonzero" fill-opacity="1" /><path clip-path="url(#clip710)" d="M1607.91 1467.08 Q1605.93 1465.93 1603.58 1465.42 Q1601.28 1464.85 1598.48 1464.85 Q1588.55 1464.85 1583.21 1471.34 Q1577.92 1477.77 1577.92 1489.87 L1577.92 1527.42 L1566.15 1527.42 L1566.15 1456.13 L1577.92 1456.13 L1577.92 1467.2 Q1581.61 1460.71 1587.53 1457.59 Q1593.46 1454.41 1601.92 1454.41 Q1603.13 1454.41 1604.6 1454.6 Q1606.06 1454.73 1607.84 1455.05 L1607.91 1467.08 Z" fill="#000000" fill-rule="nonzero" fill-opacity="1" /><path clip-path="url(#clip710)" d="M1665.64 1458.23 L1665.64 1469.3 Q1660.68 1466.76 1655.33 1465.49 Q1649.98 1464.21 1644.25 1464.21 Q1635.53 1464.21 1631.14 1466.89 Q1626.81 1469.56 1626.81 1474.91 Q1626.81 1478.98 1629.93 1481.34 Q1633.05 1483.63 1642.47 1485.73 L1646.48 1486.62 Q1658.96 1489.29 1664.18 1494.19 Q1669.46 1499.03 1669.46 1507.75 Q1669.46 1517.68 1661.57 1523.48 Q1653.74 1529.27 1639.99 1529.27 Q1634.26 1529.27 1628.02 1528.12 Q1621.85 1527.04 1614.97 1524.81 L1614.97 1512.72 Q1621.46 1516.09 1627.77 1517.81 Q1634.07 1519.47 1640.24 1519.47 Q1648.52 1519.47 1652.97 1516.67 Q1657.43 1513.8 1657.43 1508.64 Q1657.43 1503.87 1654.18 1501.32 Q1651 1498.78 1640.12 1496.42 L1636.04 1495.47 Q1625.16 1493.18 1620.32 1488.47 Q1615.48 1483.69 1615.48 1475.42 Q1615.48 1465.36 1622.61 1459.88 Q1629.74 1454.41 1642.85 1454.41 Q1649.35 1454.41 1655.08 1455.36 Q1660.8 1456.32 1665.64 1458.23 Z" fill="#000000" fill-rule="nonzero" fill-opacity="1" /><polyline clip-path="url(#clip712)" style="stroke:#000000; stroke-linecap:round; stroke-linejoin:round; stroke-width:4; stroke-opacity:0.1; fill:none" points="685.08,1188.65 2305.51,1188.65 "/>
<polyline clip-path="url(#clip712)" style="stroke:#000000; stroke-linecap:round; stroke-linejoin:round; stroke-width:4; stroke-opacity:0.1; fill:none" points="685.08,868.364 2305.51,868.364 "/>
<polyline clip-path="url(#clip712)" style="stroke:#000000; stroke-linecap:round; stroke-linejoin:round; stroke-width:4; stroke-opacity:0.1; fill:none" points="685.08,548.076 2305.51,548.076 "/>
<polyline clip-path="url(#clip712)" style="stroke:#000000; stroke-linecap:round; stroke-linejoin:round; stroke-width:4; stroke-opacity:0.1; fill:none" points="685.08,227.788 2305.51,227.788 "/>
<polyline clip-path="url(#clip710)" style="stroke:#000000; stroke-linecap:round; stroke-linejoin:round; stroke-width:8; stroke-opacity:1; fill:none" points="685.08,1273.7 685.08,94.4882 "/>
<polyline clip-path="url(#clip710)" style="stroke:#000000; stroke-linecap:round; stroke-linejoin:round; stroke-width:8; stroke-opacity:1; fill:none" points="685.08,1188.65 703.978,1188.65 "/>
<polyline clip-path="url(#clip710)" style="stroke:#000000; stroke-linecap:round; stroke-linejoin:round; stroke-width:8; stroke-opacity:1; fill:none" points="685.08,868.364 703.978,868.364 "/>
<polyline clip-path="url(#clip710)" style="stroke:#000000; stroke-linecap:round; stroke-linejoin:round; stroke-width:8; stroke-opacity:1; fill:none" points="685.08,548.076 703.978,548.076 "/>
<polyline clip-path="url(#clip710)" style="stroke:#000000; stroke-linecap:round; stroke-linejoin:round; stroke-width:8; stroke-opacity:1; fill:none" points="685.08,227.788 703.978,227.788 "/>
<path clip-path="url(#clip710)" d="M395.702 1215.34 L410.979 1215.34 L410.979 1162.61 L394.359 1165.94 L394.359 1157.43 L410.887 1154.09 L420.239 1154.09 L420.239 1215.34 L435.516 1215.34 L435.516 1223.21 L395.702 1223.21 L395.702 1215.34 Z" fill="#000000" fill-rule="nonzero" fill-opacity="1" /><path clip-path="url(#clip710)" d="M474.405 1160.25 Q467.183 1160.25 463.525 1167.38 Q459.914 1174.46 459.914 1188.72 Q459.914 1202.93 463.525 1210.06 Q467.183 1217.15 474.405 1217.15 Q481.673 1217.15 485.285 1210.06 Q488.942 1202.93 488.942 1188.72 Q488.942 1174.46 485.285 1167.38 Q481.673 1160.25 474.405 1160.25 M474.405 1152.84 Q486.025 1152.84 492.136 1162.06 Q498.294 1171.22 498.294 1188.72 Q498.294 1206.18 492.136 1215.39 Q486.025 1224.55 474.405 1224.55 Q462.785 1224.55 456.627 1215.39 Q450.516 1206.18 450.516 1188.72 Q450.516 1171.22 456.627 1162.06 Q462.785 1152.84 474.405 1152.84 Z" fill="#000000" fill-rule="nonzero" fill-opacity="1" /><path clip-path="url(#clip710)" d="M534.729 1160.25 Q527.507 1160.25 523.849 1167.38 Q520.238 1174.46 520.238 1188.72 Q520.238 1202.93 523.849 1210.06 Q527.507 1217.15 534.729 1217.15 Q541.997 1217.15 545.608 1210.06 Q549.266 1202.93 549.266 1188.72 Q549.266 1174.46 545.608 1167.38 Q541.997 1160.25 534.729 1160.25 M534.729 1152.84 Q546.349 1152.84 552.46 1162.06 Q558.618 1171.22 558.618 1188.72 Q558.618 1206.18 552.46 1215.39 Q546.349 1224.55 534.729 1224.55 Q523.108 1224.55 516.951 1215.39 Q510.84 1206.18 510.84 1188.72 Q510.84 1171.22 516.951 1162.06 Q523.108 1152.84 534.729 1152.84 Z" fill="#000000" fill-rule="nonzero" fill-opacity="1" /><path clip-path="url(#clip710)" d="M575.053 1211.45 L584.821 1211.45 L584.821 1223.21 L575.053 1223.21 L575.053 1211.45 Z" fill="#000000" fill-rule="nonzero" fill-opacity="1" /><path clip-path="url(#clip710)" d="M625.191 1160.25 Q617.969 1160.25 614.312 1167.38 Q610.701 1174.46 610.701 1188.72 Q610.701 1202.93 614.312 1210.06 Q617.969 1217.15 625.191 1217.15 Q632.46 1217.15 636.071 1210.06 Q639.728 1202.93 639.728 1188.72 Q639.728 1174.46 636.071 1167.38 Q632.46 1160.25 625.191 1160.25 M625.191 1152.84 Q636.812 1152.84 642.923 1162.06 Q649.08 1171.22 649.08 1188.72 Q649.08 1206.18 642.923 1215.39 Q636.812 1224.55 625.191 1224.55 Q613.571 1224.55 607.414 1215.39 Q601.302 1206.18 601.302 1188.72 Q601.302 1171.22 607.414 1162.06 Q613.571 1152.84 625.191 1152.84 Z" fill="#000000" fill-rule="nonzero" fill-opacity="1" /><path clip-path="url(#clip710)" d="M402.137 895.054 L434.776 895.054 L434.776 902.924 L390.887 902.924 L390.887 895.054 Q396.211 889.545 405.378 880.286 Q414.59 870.98 416.952 868.295 Q421.442 863.249 423.202 859.776 Q425.007 856.258 425.007 852.878 Q425.007 847.369 421.118 843.897 Q417.276 840.425 411.072 840.425 Q406.674 840.425 401.766 841.953 Q396.905 843.48 391.35 846.582 L391.35 837.138 Q396.998 834.869 401.905 833.712 Q406.813 832.554 410.887 832.554 Q421.627 832.554 428.016 837.925 Q434.405 843.295 434.405 852.277 Q434.405 856.536 432.785 860.378 Q431.211 864.175 426.998 869.36 Q425.84 870.702 419.637 877.138 Q413.433 883.526 402.137 895.054 Z" fill="#000000" fill-rule="nonzero" fill-opacity="1" /><path clip-path="url(#clip710)" d="M474.405 839.962 Q467.183 839.962 463.525 847.091 Q459.914 854.175 459.914 868.434 Q459.914 882.647 463.525 889.776 Q467.183 896.86 474.405 896.86 Q481.673 896.86 485.285 889.776 Q488.942 882.647 488.942 868.434 Q488.942 854.175 485.285 847.091 Q481.673 839.962 474.405 839.962 M474.405 832.554 Q486.025 832.554 492.136 841.767 Q498.294 850.934 498.294 868.434 Q498.294 885.887 492.136 895.1 Q486.025 904.267 474.405 904.267 Q462.785 904.267 456.627 895.1 Q450.516 885.887 450.516 868.434 Q450.516 850.934 456.627 841.767 Q462.785 832.554 474.405 832.554 Z" fill="#000000" fill-rule="nonzero" fill-opacity="1" /><path clip-path="url(#clip710)" d="M534.729 839.962 Q527.507 839.962 523.849 847.091 Q520.238 854.175 520.238 868.434 Q520.238 882.647 523.849 889.776 Q527.507 896.86 534.729 896.86 Q541.997 896.86 545.608 889.776 Q549.266 882.647 549.266 868.434 Q549.266 854.175 545.608 847.091 Q541.997 839.962 534.729 839.962 M534.729 832.554 Q546.349 832.554 552.46 841.767 Q558.618 850.934 558.618 868.434 Q558.618 885.887 552.46 895.1 Q546.349 904.267 534.729 904.267 Q523.108 904.267 516.951 895.1 Q510.84 885.887 510.84 868.434 Q510.84 850.934 516.951 841.767 Q523.108 832.554 534.729 832.554 Z" fill="#000000" fill-rule="nonzero" fill-opacity="1" /><path clip-path="url(#clip710)" d="M575.053 891.165 L584.821 891.165 L584.821 902.924 L575.053 902.924 L575.053 891.165 Z" fill="#000000" fill-rule="nonzero" fill-opacity="1" /><path clip-path="url(#clip710)" d="M625.191 839.962 Q617.969 839.962 614.312 847.091 Q610.701 854.175 610.701 868.434 Q610.701 882.647 614.312 889.776 Q617.969 896.86 625.191 896.86 Q632.46 896.86 636.071 889.776 Q639.728 882.647 639.728 868.434 Q639.728 854.175 636.071 847.091 Q632.46 839.962 625.191 839.962 M625.191 832.554 Q636.812 832.554 642.923 841.767 Q649.08 850.934 649.08 868.434 Q649.08 885.887 642.923 895.1 Q636.812 904.267 625.191 904.267 Q613.571 904.267 607.414 895.1 Q601.302 885.887 601.302 868.434 Q601.302 850.934 607.414 841.767 Q613.571 832.554 625.191 832.554 Z" fill="#000000" fill-rule="nonzero" fill-opacity="1" /><path clip-path="url(#clip710)" d="M422.415 545.368 Q429.127 546.803 432.877 551.34 Q436.674 555.877 436.674 562.544 Q436.674 572.775 429.637 578.377 Q422.6 583.979 409.637 583.979 Q405.285 583.979 400.655 583.099 Q396.072 582.266 391.165 580.553 L391.165 571.525 Q395.054 573.794 399.683 574.951 Q404.313 576.109 409.359 576.109 Q418.155 576.109 422.739 572.636 Q427.368 569.164 427.368 562.544 Q427.368 556.433 423.063 553.007 Q418.803 549.535 411.165 549.535 L403.109 549.535 L403.109 541.85 L411.535 541.85 Q418.433 541.85 422.09 539.118 Q425.748 536.34 425.748 531.155 Q425.748 525.831 421.952 523.007 Q418.202 520.137 411.165 520.137 Q407.322 520.137 402.924 520.97 Q398.526 521.803 393.248 523.563 L393.248 515.229 Q398.572 513.748 403.202 513.007 Q407.878 512.266 411.998 512.266 Q422.646 512.266 428.85 517.128 Q435.053 521.942 435.053 530.183 Q435.053 535.924 431.766 539.905 Q428.479 543.84 422.415 545.368 Z" fill="#000000" fill-rule="nonzero" fill-opacity="1" /><path clip-path="url(#clip710)" d="M474.405 519.674 Q467.183 519.674 463.525 526.803 Q459.914 533.887 459.914 548.146 Q459.914 562.359 463.525 569.488 Q467.183 576.572 474.405 576.572 Q481.673 576.572 485.285 569.488 Q488.942 562.359 488.942 548.146 Q488.942 533.887 485.285 526.803 Q481.673 519.674 474.405 519.674 M474.405 512.266 Q486.025 512.266 492.136 521.479 Q498.294 530.646 498.294 548.146 Q498.294 565.599 492.136 574.812 Q486.025 583.979 474.405 583.979 Q462.785 583.979 456.627 574.812 Q450.516 565.599 450.516 548.146 Q450.516 530.646 456.627 521.479 Q462.785 512.266 474.405 512.266 Z" fill="#000000" fill-rule="nonzero" fill-opacity="1" /><path clip-path="url(#clip710)" d="M534.729 519.674 Q527.507 519.674 523.849 526.803 Q520.238 533.887 520.238 548.146 Q520.238 562.359 523.849 569.488 Q527.507 576.572 534.729 576.572 Q541.997 576.572 545.608 569.488 Q549.266 562.359 549.266 548.146 Q549.266 533.887 545.608 526.803 Q541.997 519.674 534.729 519.674 M534.729 512.266 Q546.349 512.266 552.46 521.479 Q558.618 530.646 558.618 548.146 Q558.618 565.599 552.46 574.812 Q546.349 583.979 534.729 583.979 Q523.108 583.979 516.951 574.812 Q510.84 565.599 510.84 548.146 Q510.84 530.646 516.951 521.479 Q523.108 512.266 534.729 512.266 Z" fill="#000000" fill-rule="nonzero" fill-opacity="1" /><path clip-path="url(#clip710)" d="M575.053 570.877 L584.821 570.877 L584.821 582.636 L575.053 582.636 L575.053 570.877 Z" fill="#000000" fill-rule="nonzero" fill-opacity="1" /><path clip-path="url(#clip710)" d="M625.191 519.674 Q617.969 519.674 614.312 526.803 Q610.701 533.887 610.701 548.146 Q610.701 562.359 614.312 569.488 Q617.969 576.572 625.191 576.572 Q632.46 576.572 636.071 569.488 Q639.728 562.359 639.728 548.146 Q639.728 533.887 636.071 526.803 Q632.46 519.674 625.191 519.674 M625.191 512.266 Q636.812 512.266 642.923 521.479 Q649.08 530.646 649.08 548.146 Q649.08 565.599 642.923 574.812 Q636.812 583.979 625.191 583.979 Q613.571 583.979 607.414 574.812 Q601.302 565.599 601.302 548.146 Q601.302 530.646 607.414 521.479 Q613.571 512.266 625.191 512.266 Z" fill="#000000" fill-rule="nonzero" fill-opacity="1" /><path clip-path="url(#clip710)" d="M419.776 201.377 L396.165 238.275 L419.776 238.275 L419.776 201.377 M417.322 193.228 L429.081 193.228 L429.081 238.275 L438.942 238.275 L438.942 246.052 L429.081 246.052 L429.081 262.348 L419.776 262.348 L419.776 246.052 L388.572 246.052 L388.572 237.025 L417.322 193.228 Z" fill="#000000" fill-rule="nonzero" fill-opacity="1" /><path clip-path="url(#clip710)" d="M474.405 199.386 Q467.183 199.386 463.525 206.515 Q459.914 213.599 459.914 227.858 Q459.914 242.071 463.525 249.2 Q467.183 256.284 474.405 256.284 Q481.673 256.284 485.285 249.2 Q488.942 242.071 488.942 227.858 Q488.942 213.599 485.285 206.515 Q481.673 199.386 474.405 199.386 M474.405 191.978 Q486.025 191.978 492.136 201.191 Q498.294 210.358 498.294 227.858 Q498.294 245.312 492.136 254.524 Q486.025 263.691 474.405 263.691 Q462.785 263.691 456.627 254.524 Q450.516 245.312 450.516 227.858 Q450.516 210.358 456.627 201.191 Q462.785 191.978 474.405 191.978 Z" fill="#000000" fill-rule="nonzero" fill-opacity="1" /><path clip-path="url(#clip710)" d="M534.729 199.386 Q527.507 199.386 523.849 206.515 Q520.238 213.599 520.238 227.858 Q520.238 242.071 523.849 249.2 Q527.507 256.284 534.729 256.284 Q541.997 256.284 545.608 249.2 Q549.266 242.071 549.266 227.858 Q549.266 213.599 545.608 206.515 Q541.997 199.386 534.729 199.386 M534.729 191.978 Q546.349 191.978 552.46 201.191 Q558.618 210.358 558.618 227.858 Q558.618 245.312 552.46 254.524 Q546.349 263.691 534.729 263.691 Q523.108 263.691 516.951 254.524 Q510.84 245.312 510.84 227.858 Q510.84 210.358 516.951 201.191 Q523.108 191.978 534.729 191.978 Z" fill="#000000" fill-rule="nonzero" fill-opacity="1" /><path clip-path="url(#clip710)" d="M575.053 250.589 L584.821 250.589 L584.821 262.348 L575.053 262.348 L575.053 250.589 Z" fill="#000000" fill-rule="nonzero" fill-opacity="1" /><path clip-path="url(#clip710)" d="M625.191 199.386 Q617.969 199.386 614.312 206.515 Q610.701 213.599 610.701 227.858 Q610.701 242.071 614.312 249.2 Q617.969 256.284 625.191 256.284 Q632.46 256.284 636.071 249.2 Q639.728 242.071 639.728 227.858 Q639.728 213.599 636.071 206.515 Q632.46 199.386 625.191 199.386 M625.191 191.978 Q636.812 191.978 642.923 201.191 Q649.08 210.358 649.08 227.858 Q649.08 245.312 642.923 254.524 Q636.812 263.691 625.191 263.691 Q613.571 263.691 607.414 254.524 Q601.302 245.312 601.302 227.858 Q601.302 210.358 607.414 201.191 Q613.571 191.978 625.191 191.978 Z" fill="#000000" fill-rule="nonzero" fill-opacity="1" /><path clip-path="url(#clip710)" d="M255.501 1099.45 L266.45 1099.45 Q263.713 1104.42 262.376 1109.45 Q260.976 1114.41 260.976 1119.51 Q260.976 1130.9 268.233 1137.2 Q275.426 1143.51 288.476 1143.51 Q301.526 1143.51 308.782 1137.2 Q315.976 1130.9 315.976 1119.51 Q315.976 1114.41 314.639 1109.45 Q313.238 1104.42 310.501 1099.45 L321.323 1099.45 Q323.615 1104.36 324.76 1109.64 Q325.906 1114.86 325.906 1120.78 Q325.906 1136.88 315.785 1146.37 Q305.663 1155.85 288.476 1155.85 Q271.034 1155.85 261.04 1146.31 Q251.045 1136.69 251.045 1120.02 Q251.045 1114.6 252.191 1109.45 Q253.273 1104.29 255.501 1099.45 Z" fill="#000000" fill-rule="nonzero" fill-opacity="1" /><path clip-path="url(#clip710)" d="M260.976 1051.46 Q260.976 1060.88 268.36 1066.35 Q275.681 1071.83 288.476 1071.83 Q301.271 1071.83 308.655 1066.42 Q315.976 1060.94 315.976 1051.46 Q315.976 1042.1 308.591 1036.62 Q301.207 1031.15 288.476 1031.15 Q275.808 1031.15 268.424 1036.62 Q260.976 1042.1 260.976 1051.46 M251.045 1051.46 Q251.045 1036.18 260.976 1027.46 Q270.906 1018.74 288.476 1018.74 Q305.982 1018.74 315.976 1027.46 Q325.906 1036.18 325.906 1051.46 Q325.906 1066.8 315.976 1075.52 Q305.982 1084.18 288.476 1084.18 Q270.906 1084.18 260.976 1075.52 Q251.045 1066.8 251.045 1051.46 Z" fill="#000000" fill-rule="nonzero" fill-opacity="1" /><path clip-path="url(#clip710)" d="M281.028 940.057 L324.06 940.057 L324.06 951.77 L281.41 951.77 Q271.288 951.77 266.259 955.717 Q261.231 959.663 261.231 967.557 Q261.231 977.042 267.278 982.516 Q273.325 987.991 283.765 987.991 L324.06 987.991 L324.06 999.767 L252.764 999.767 L252.764 987.991 L263.841 987.991 Q257.411 983.789 254.228 978.124 Q251.045 972.395 251.045 964.947 Q251.045 952.661 258.684 946.359 Q266.259 940.057 281.028 940.057 Z" fill="#000000" fill-rule="nonzero" fill-opacity="1" /><path clip-path="url(#clip710)" d="M255.501 865.387 L266.45 865.387 Q263.713 870.353 262.376 875.381 Q260.976 880.347 260.976 885.439 Q260.976 896.834 268.233 903.136 Q275.426 909.438 288.476 909.438 Q301.526 909.438 308.782 903.136 Q315.976 896.834 315.976 885.439 Q315.976 880.347 314.639 875.381 Q313.238 870.353 310.501 865.387 L321.323 865.387 Q323.615 870.289 324.76 875.572 Q325.906 880.792 325.906 886.712 Q325.906 902.818 315.785 912.303 Q305.663 921.787 288.476 921.787 Q271.034 921.787 261.04 912.239 Q251.045 902.627 251.045 885.949 Q251.045 880.538 252.191 875.381 Q253.273 870.225 255.501 865.387 Z" fill="#000000" fill-rule="nonzero" fill-opacity="1" /><path clip-path="url(#clip710)" d="M307.891 843.362 L307.891 829.93 L324.06 829.93 L324.06 843.362 L307.891 843.362 Z" fill="#000000" fill-rule="nonzero" fill-opacity="1" /><path clip-path="url(#clip710)" d="M252.764 770.538 L252.764 758.125 L312.602 735.845 L252.764 713.565 L252.764 701.152 L324.06 727.888 L324.06 743.802 L252.764 770.538 Z" fill="#000000" fill-rule="nonzero" fill-opacity="1" /><path clip-path="url(#clip710)" d="M285.484 624 L291.213 624 L291.213 677.854 Q303.308 677.09 309.674 670.597 Q315.976 664.04 315.976 652.391 Q315.976 645.643 314.321 639.341 Q312.666 632.975 309.355 626.737 L320.432 626.737 Q323.105 633.039 324.506 639.659 Q325.906 646.28 325.906 653.091 Q325.906 670.151 315.976 680.145 Q306.045 690.076 289.112 690.076 Q271.607 690.076 261.358 680.654 Q251.045 671.17 251.045 655.128 Q251.045 640.742 260.339 632.402 Q269.57 624 285.484 624 M282.046 635.713 Q272.434 635.84 266.705 641.123 Q260.976 646.343 260.976 655.001 Q260.976 664.804 266.514 670.724 Q272.052 676.58 282.11 677.472 L282.046 635.713 Z" fill="#000000" fill-rule="nonzero" fill-opacity="1" /><path clip-path="url(#clip710)" d="M281.028 545.511 L324.06 545.511 L324.06 557.223 L281.41 557.223 Q271.288 557.223 266.259 561.17 Q261.231 565.117 261.231 573.01 Q261.231 582.495 267.278 587.97 Q273.325 593.444 283.765 593.444 L324.06 593.444 L324.06 605.221 L252.764 605.221 L252.764 593.444 L263.841 593.444 Q257.411 589.243 254.228 583.577 Q251.045 577.848 251.045 570.4 Q251.045 558.115 258.684 551.813 Q266.259 545.511 281.028 545.511 Z" fill="#000000" fill-rule="nonzero" fill-opacity="1" /><path clip-path="url(#clip710)" d="M232.521 510.563 L252.764 510.563 L252.764 486.437 L261.867 486.437 L261.867 510.563 L300.571 510.563 Q309.292 510.563 311.774 508.207 Q314.257 505.789 314.257 498.468 L314.257 486.437 L324.06 486.437 L324.06 498.468 Q324.06 512.027 319.031 517.183 Q313.939 522.339 300.571 522.339 L261.867 522.339 L261.867 530.933 L252.764 530.933 L252.764 522.339 L232.521 522.339 L232.521 510.563 Z" fill="#000000" fill-rule="nonzero" fill-opacity="1" /><path clip-path="url(#clip710)" d="M263.713 429.718 Q262.567 431.692 262.058 434.047 Q261.485 436.339 261.485 439.14 Q261.485 449.07 267.978 454.417 Q274.408 459.701 286.502 459.701 L324.06 459.701 L324.06 471.477 L252.764 471.477 L252.764 459.701 L263.841 459.701 Q257.348 456.009 254.228 450.089 Q251.045 444.168 251.045 435.702 Q251.045 434.493 251.236 433.028 Q251.364 431.564 251.682 429.782 L263.713 429.718 Z" fill="#000000" fill-rule="nonzero" fill-opacity="1" /><path clip-path="url(#clip710)" d="M252.764 417.433 L252.764 405.72 L324.06 405.72 L324.06 417.433 L252.764 417.433 M225.01 417.433 L225.01 405.72 L239.842 405.72 L239.842 417.433 L225.01 417.433 Z" fill="#000000" fill-rule="nonzero" fill-opacity="1" /><path clip-path="url(#clip710)" d="M255.501 329.904 L266.45 329.904 Q263.713 334.869 262.376 339.898 Q260.976 344.863 260.976 349.956 Q260.976 361.351 268.233 367.653 Q275.426 373.955 288.476 373.955 Q301.526 373.955 308.782 367.653 Q315.976 361.351 315.976 349.956 Q315.976 344.863 314.639 339.898 Q313.238 334.869 310.501 329.904 L321.323 329.904 Q323.615 334.806 324.76 340.089 Q325.906 345.309 325.906 351.229 Q325.906 367.334 315.785 376.819 Q305.663 386.304 288.476 386.304 Q271.034 386.304 261.04 376.756 Q251.045 367.143 251.045 350.465 Q251.045 345.054 252.191 339.898 Q253.273 334.742 255.501 329.904 Z" fill="#000000" fill-rule="nonzero" fill-opacity="1" /><path clip-path="url(#clip710)" d="M225.01 309.534 L225.01 297.821 L324.06 297.821 L324.06 309.534 L225.01 309.534 Z" fill="#000000" fill-rule="nonzero" fill-opacity="1" /><path clip-path="url(#clip710)" d="M285.484 212.329 L291.213 212.329 L291.213 266.183 Q303.308 265.419 309.674 258.926 Q315.976 252.37 315.976 240.721 Q315.976 233.973 314.321 227.671 Q312.666 221.305 309.355 215.067 L320.432 215.067 Q323.105 221.369 324.506 227.989 Q325.906 234.609 325.906 241.421 Q325.906 258.481 315.976 268.475 Q306.045 278.405 289.112 278.405 Q271.607 278.405 261.358 268.984 Q251.045 259.499 251.045 243.458 Q251.045 229.071 260.339 220.732 Q269.57 212.329 285.484 212.329 M282.046 224.042 Q272.434 224.17 266.705 229.453 Q260.976 234.673 260.976 243.33 Q260.976 253.134 266.514 259.054 Q272.052 264.91 282.11 265.801 L282.046 224.042 Z" fill="#000000" fill-rule="nonzero" fill-opacity="1" /><polyline clip-path="url(#clip712)" style="stroke:#008000; stroke-linecap:round; stroke-linejoin:round; stroke-width:8; stroke-opacity:1; fill:none" points="730.941,231.127 848.534,296.004 966.127,392.047 1083.72,351.734 1201.31,470.024 1318.91,544.704 1436.5,617.34 1554.09,645.371 1671.69,707.223 1789.28,682.421 1906.87,730.802 2024.46,744.411 2142.06,815.852 2259.65,815.719 "/>
<circle clip-path="url(#clip712)" cx="730.941" cy="231.127" r="14.4" fill="#008000" fill-rule="evenodd" fill-opacity="1" stroke="#000000" stroke-opacity="1" stroke-width="6.4"/>
<circle clip-path="url(#clip712)" cx="848.534" cy="296.004" r="14.4" fill="#008000" fill-rule="evenodd" fill-opacity="1" stroke="#000000" stroke-opacity="1" stroke-width="6.4"/>
<circle clip-path="url(#clip712)" cx="966.127" cy="392.047" r="14.4" fill="#008000" fill-rule="evenodd" fill-opacity="1" stroke="#000000" stroke-opacity="1" stroke-width="6.4"/>
<circle clip-path="url(#clip712)" cx="1083.72" cy="351.734" r="14.4" fill="#008000" fill-rule="evenodd" fill-opacity="1" stroke="#000000" stroke-opacity="1" stroke-width="6.4"/>
<circle clip-path="url(#clip712)" cx="1201.31" cy="470.024" r="14.4" fill="#008000" fill-rule="evenodd" fill-opacity="1" stroke="#000000" stroke-opacity="1" stroke-width="6.4"/>
<circle clip-path="url(#clip712)" cx="1318.91" cy="544.704" r="14.4" fill="#008000" fill-rule="evenodd" fill-opacity="1" stroke="#000000" stroke-opacity="1" stroke-width="6.4"/>
<circle clip-path="url(#clip712)" cx="1436.5" cy="617.34" r="14.4" fill="#008000" fill-rule="evenodd" fill-opacity="1" stroke="#000000" stroke-opacity="1" stroke-width="6.4"/>
<circle clip-path="url(#clip712)" cx="1554.09" cy="645.371" r="14.4" fill="#008000" fill-rule="evenodd" fill-opacity="1" stroke="#000000" stroke-opacity="1" stroke-width="6.4"/>
<circle clip-path="url(#clip712)" cx="1671.69" cy="707.223" r="14.4" fill="#008000" fill-rule="evenodd" fill-opacity="1" stroke="#000000" stroke-opacity="1" stroke-width="6.4"/>
<circle clip-path="url(#clip712)" cx="1789.28" cy="682.421" r="14.4" fill="#008000" fill-rule="evenodd" fill-opacity="1" stroke="#000000" stroke-opacity="1" stroke-width="6.4"/>
<circle clip-path="url(#clip712)" cx="1906.87" cy="730.802" r="14.4" fill="#008000" fill-rule="evenodd" fill-opacity="1" stroke="#000000" stroke-opacity="1" stroke-width="6.4"/>
<circle clip-path="url(#clip712)" cx="2024.46" cy="744.411" r="14.4" fill="#008000" fill-rule="evenodd" fill-opacity="1" stroke="#000000" stroke-opacity="1" stroke-width="6.4"/>
<circle clip-path="url(#clip712)" cx="2142.06" cy="815.852" r="14.4" fill="#008000" fill-rule="evenodd" fill-opacity="1" stroke="#000000" stroke-opacity="1" stroke-width="6.4"/>
<circle clip-path="url(#clip712)" cx="2259.65" cy="815.719" r="14.4" fill="#008000" fill-rule="evenodd" fill-opacity="1" stroke="#000000" stroke-opacity="1" stroke-width="6.4"/>
<polyline clip-path="url(#clip712)" style="stroke:#00008b; stroke-linecap:round; stroke-linejoin:round; stroke-width:8; stroke-opacity:1; fill:none" points="730.941,238.688 848.534,351.837 966.127,467.753 1083.72,567.258 1201.31,665.925 1318.91,736.191 1436.5,809.917 1554.09,870.092 1671.69,924.302 1789.28,966.889 1906.87,1020.41 2024.46,1063.81 2142.06,1106.8 2259.65,1127.84 "/>
<path clip-path="url(#clip712)" d="M730.941 346.295 L848.534 464.531 L966.127 580.201 L1083.72 673.598 L1201.31 769.151 L1318.91 843.148 L1436.5 922.076 L1554.09 982.439 L1671.69 1028.81 L1789.28 1077.99 L1906.87 1133.43 L2024.46 1178.15 L2142.06 1214.86 L2259.65 1240.32 L2259.65 1013.28 L2142.06 995.552 L2024.46 950.38 L1906.87 899.986 L1789.28 861.795 L1671.69 816.424 L1554.09 757.606 L1436.5 701.674 L1318.91 622.57 L1201.31 556.01 L1083.72 453.697 L966.127 365.763 L848.534 244.046 L730.941 127.862  Z" fill="#0000ff" fill-rule="evenodd" fill-opacity="0.1"/>
<polyline clip-path="url(#clip712)" style="stroke:#0000ff; stroke-linecap:round; stroke-linejoin:round; stroke-width:0; stroke-opacity:0.1; fill:none" points="730.941,346.295 848.534,464.531 966.127,580.201 1083.72,673.598 1201.31,769.151 1318.91,843.148 1436.5,922.076 1554.09,982.439 1671.69,1028.81 1789.28,1077.99 1906.87,1133.43 2024.46,1178.15 2142.06,1214.86 2259.65,1240.32 "/>
</svg>
