<?xml version="1.0" encoding="utf-8"?>
<svg xmlns="http://www.w3.org/2000/svg" xmlns:xlink="http://www.w3.org/1999/xlink" width="600" height="400" viewBox="0 0 2400 1600">
<defs>
  <clipPath id="clip360">
    <rect x="0" y="0" width="2400" height="1600"/>
  </clipPath>
</defs>
<path clip-path="url(#clip360)" d="M0 1600 L2400 1600 L2400 0 L0 0  Z" fill="#ffffff" fill-rule="evenodd" fill-opacity="1"/>
<defs>
  <clipPath id="clip361">
    <rect x="480" y="0" width="1681" height="1600"/>
  </clipPath>
</defs>
<path clip-path="url(#clip360)" d="M680.45 1273.7 L2305.51 1273.7 L2305.51 94.4882 L680.45 94.4882  Z" fill="#ffffff" fill-rule="evenodd" fill-opacity="1"/>
<defs>
  <clipPath id="clip362">
    <rect x="680" y="94" width="1626" height="1180"/>
  </clipPath>
</defs>
<polyline clip-path="url(#clip362)" style="stroke:#000000; stroke-linecap:round; stroke-linejoin:round; stroke-width:4; stroke-opacity:0.1; fill:none" points="726.443,1273.7 726.443,94.4882 "/>
<polyline clip-path="url(#clip362)" style="stroke:#000000; stroke-linecap:round; stroke-linejoin:round; stroke-width:4; stroke-opacity:0.1; fill:none" points="962.301,1273.7 962.301,94.4882 "/>
<polyline clip-path="url(#clip362)" style="stroke:#000000; stroke-linecap:round; stroke-linejoin:round; stroke-width:4; stroke-opacity:0.1; fill:none" points="1198.16,1273.7 1198.16,94.4882 "/>
<polyline clip-path="url(#clip362)" style="stroke:#000000; stroke-linecap:round; stroke-linejoin:round; stroke-width:4; stroke-opacity:0.1; fill:none" points="1434.02,1273.7 1434.02,94.4882 "/>
<polyline clip-path="url(#clip362)" style="stroke:#000000; stroke-linecap:round; stroke-linejoin:round; stroke-width:4; stroke-opacity:0.1; fill:none" points="1669.87,1273.7 1669.87,94.4882 "/>
<polyline clip-path="url(#clip362)" style="stroke:#000000; stroke-linecap:round; stroke-linejoin:round; stroke-width:4; stroke-opacity:0.1; fill:none" points="1905.73,1273.7 1905.73,94.4882 "/>
<polyline clip-path="url(#clip362)" style="stroke:#000000; stroke-linecap:round; stroke-linejoin:round; stroke-width:4; stroke-opacity:0.1; fill:none" points="2141.59,1273.7 2141.59,94.4882 "/>
<polyline clip-path="url(#clip360)" style="stroke:#000000; stroke-linecap:round; stroke-linejoin:round; stroke-width:8; stroke-opacity:1; fill:none" points="680.45,1273.7 2305.51,1273.7 "/>
<polyline clip-path="url(#clip360)" style="stroke:#000000; stroke-linecap:round; stroke-linejoin:round; stroke-width:8; stroke-opacity:1; fill:none" points="726.443,1273.7 726.443,1254.8 "/>
<polyline clip-path="url(#clip360)" style="stroke:#000000; stroke-linecap:round; stroke-linejoin:round; stroke-width:8; stroke-opacity:1; fill:none" points="962.301,1273.7 962.301,1254.8 "/>
<polyline clip-path="url(#clip360)" style="stroke:#000000; stroke-linecap:round; stroke-linejoin:round; stroke-width:8; stroke-opacity:1; fill:none" points="1198.16,1273.7 1198.16,1254.8 "/>
<polyline clip-path="url(#clip360)" style="stroke:#000000; stroke-linecap:round; stroke-linejoin:round; stroke-width:8; stroke-opacity:1; fill:none" points="1434.02,1273.7 1434.02,1254.8 "/>
<polyline clip-path="url(#clip360)" style="stroke:#000000; stroke-linecap:round; stroke-linejoin:round; stroke-width:8; stroke-opacity:1; fill:none" points="1669.87,1273.7 1669.87,1254.8 "/>
<polyline clip-path="url(#clip360)" style="stroke:#000000; stroke-linecap:round; stroke-linejoin:round; stroke-width:8; stroke-opacity:1; fill:none" points="1905.73,1273.7 1905.73,1254.8 "/>
<polyline clip-path="url(#clip360)" style="stroke:#000000; stroke-linecap:round; stroke-linejoin:round; stroke-width:8; stroke-opacity:1; fill:none" points="2141.59,1273.7 2141.59,1254.8 "/>
<path clip-path="url(#clip360)" d="M681.211 1316.33 Q673.989 1316.33 670.332 1323.46 Q666.721 1330.55 666.721 1344.81 Q666.721 1359.02 670.332 1366.15 Q673.989 1373.23 681.211 1373.23 Q688.48 1373.23 692.091 1366.15 Q695.748 1359.02 695.748 1344.81 Q695.748 1330.55 692.091 1323.46 Q688.48 1316.33 681.211 1316.33 M681.211 1308.93 Q692.832 1308.93 698.943 1318.14 Q705.1 1327.31 705.1 1344.81 Q705.1 1362.26 698.943 1371.47 Q692.832 1380.64 681.211 1380.64 Q669.591 1380.64 663.434 1371.47 Q657.323 1362.26 657.323 1344.81 Q657.323 1327.31 663.434 1318.14 Q669.591 1308.93 681.211 1308.93 Z" fill="#000000" fill-rule="nonzero" fill-opacity="1" /><path clip-path="url(#clip360)" d="M721.535 1367.54 L731.304 1367.54 L731.304 1379.3 L721.535 1379.3 L721.535 1367.54 Z" fill="#000000" fill-rule="nonzero" fill-opacity="1" /><path clip-path="url(#clip360)" d="M771.674 1316.33 Q764.452 1316.33 760.794 1323.46 Q757.183 1330.55 757.183 1344.81 Q757.183 1359.02 760.794 1366.15 Q764.452 1373.23 771.674 1373.23 Q778.942 1373.23 782.553 1366.15 Q786.211 1359.02 786.211 1344.81 Q786.211 1330.55 782.553 1323.46 Q778.942 1316.33 771.674 1316.33 M771.674 1308.93 Q783.294 1308.93 789.405 1318.14 Q795.563 1327.31 795.563 1344.81 Q795.563 1362.26 789.405 1371.47 Q783.294 1380.64 771.674 1380.64 Q760.054 1380.64 753.896 1371.47 Q747.785 1362.26 747.785 1344.81 Q747.785 1327.31 753.896 1318.14 Q760.054 1308.93 771.674 1308.93 Z" fill="#000000" fill-rule="nonzero" fill-opacity="1" /><path clip-path="url(#clip360)" d="M918.667 1316.33 Q911.444 1316.33 907.787 1323.46 Q904.176 1330.55 904.176 1344.81 Q904.176 1359.02 907.787 1366.15 Q911.444 1373.23 918.667 1373.23 Q925.935 1373.23 929.546 1366.15 Q933.204 1359.02 933.204 1344.81 Q933.204 1330.55 929.546 1323.46 Q925.935 1316.33 918.667 1316.33 M918.667 1308.93 Q930.287 1308.93 936.398 1318.14 Q942.555 1327.31 942.555 1344.81 Q942.555 1362.26 936.398 1371.47 Q930.287 1380.64 918.667 1380.64 Q907.046 1380.64 900.889 1371.47 Q894.778 1362.26 894.778 1344.81 Q894.778 1327.31 900.889 1318.14 Q907.046 1308.93 918.667 1308.93 Z" fill="#000000" fill-rule="nonzero" fill-opacity="1" /><path clip-path="url(#clip360)" d="M958.99 1367.54 L968.759 1367.54 L968.759 1379.3 L958.99 1379.3 L958.99 1367.54 Z" fill="#000000" fill-rule="nonzero" fill-opacity="1" /><path clip-path="url(#clip360)" d="M997.185 1371.43 L1029.82 1371.43 L1029.82 1379.3 L985.935 1379.3 L985.935 1371.43 Q991.259 1365.92 1000.43 1356.66 Q1009.64 1347.35 1012 1344.67 Q1016.49 1339.62 1018.25 1336.15 Q1020.05 1332.63 1020.05 1329.25 Q1020.05 1323.74 1016.17 1320.27 Q1012.32 1316.8 1006.12 1316.8 Q1001.72 1316.8 996.814 1318.32 Q991.953 1319.85 986.398 1322.95 L986.398 1313.51 Q992.046 1311.24 996.953 1310.08 Q1001.86 1308.93 1005.93 1308.93 Q1016.68 1308.93 1023.06 1314.3 Q1029.45 1319.67 1029.45 1328.65 Q1029.45 1332.91 1027.83 1336.75 Q1026.26 1340.55 1022.05 1345.73 Q1020.89 1347.07 1014.68 1353.51 Q1008.48 1359.9 997.185 1371.43 Z" fill="#000000" fill-rule="nonzero" fill-opacity="1" /><path clip-path="url(#clip360)" d="M1152.44 1316.33 Q1145.22 1316.33 1141.56 1323.46 Q1137.95 1330.55 1137.95 1344.81 Q1137.95 1359.02 1141.56 1366.15 Q1145.22 1373.23 1152.44 1373.23 Q1159.71 1373.23 1163.32 1366.15 Q1166.98 1359.02 1166.98 1344.81 Q1166.98 1330.55 1163.32 1323.46 Q1159.71 1316.33 1152.44 1316.33 M1152.44 1308.93 Q1164.06 1308.93 1170.17 1318.14 Q1176.33 1327.31 1176.33 1344.81 Q1176.33 1362.26 1170.17 1371.47 Q1164.06 1380.64 1152.44 1380.64 Q1140.82 1380.64 1134.66 1371.47 Q1128.55 1362.26 1128.55 1344.81 Q1128.55 1327.31 1134.66 1318.14 Q1140.82 1308.93 1152.44 1308.93 Z" fill="#000000" fill-rule="nonzero" fill-opacity="1" /><path clip-path="url(#clip360)" d="M1192.77 1367.54 L1202.53 1367.54 L1202.53 1379.3 L1192.77 1379.3 L1192.77 1367.54 Z" fill="#000000" fill-rule="nonzero" fill-opacity="1" /><path clip-path="url(#clip360)" d="M1248.6 1318.32 L1224.99 1355.22 L1248.6 1355.22 L1248.6 1318.32 M1246.14 1310.18 L1257.9 1310.18 L1257.9 1355.22 L1267.76 1355.22 L1267.76 1363 L1257.9 1363 L1257.9 1379.3 L1248.6 1379.3 L1248.6 1363 L1217.39 1363 L1217.39 1353.97 L1246.14 1310.18 Z" fill="#000000" fill-rule="nonzero" fill-opacity="1" /><path clip-path="url(#clip360)" d="M1388.62 1316.33 Q1381.4 1316.33 1377.74 1323.46 Q1374.13 1330.55 1374.13 1344.81 Q1374.13 1359.02 1377.74 1366.15 Q1381.4 1373.23 1388.62 1373.23 Q1395.89 1373.23 1399.5 1366.15 Q1403.16 1359.02 1403.16 1344.81 Q1403.16 1330.55 1399.5 1323.46 Q1395.89 1316.33 1388.62 1316.33 M1388.62 1308.93 Q1400.24 1308.93 1406.35 1318.14 Q1412.51 1327.31 1412.51 1344.81 Q1412.51 1362.26 1406.35 1371.47 Q1400.24 1380.64 1388.62 1380.64 Q1377 1380.64 1370.85 1371.47 Q1364.73 1362.26 1364.73 1344.81 Q1364.73 1327.31 1370.85 1318.14 Q1377 1308.93 1388.62 1308.93 Z" fill="#000000" fill-rule="nonzero" fill-opacity="1" /><path clip-path="url(#clip360)" d="M1428.95 1367.54 L1438.72 1367.54 L1438.72 1379.3 L1428.95 1379.3 L1428.95 1367.54 Z" fill="#000000" fill-rule="nonzero" fill-opacity="1" /><path clip-path="url(#clip360)" d="M1480.24 1341.01 Q1473.95 1341.01 1470.24 1345.31 Q1466.59 1349.62 1466.59 1357.12 Q1466.59 1364.57 1470.24 1368.93 Q1473.95 1373.23 1480.24 1373.23 Q1486.54 1373.23 1490.2 1368.93 Q1493.9 1364.57 1493.9 1357.12 Q1493.9 1349.62 1490.2 1345.31 Q1486.54 1341.01 1480.24 1341.01 M1498.81 1311.7 L1498.81 1320.22 Q1495.29 1318.56 1491.68 1317.68 Q1488.11 1316.8 1484.6 1316.8 Q1475.34 1316.8 1470.43 1323.05 Q1465.57 1329.3 1464.87 1341.93 Q1467.6 1337.91 1471.72 1335.78 Q1475.85 1333.6 1480.8 1333.6 Q1491.22 1333.6 1497.23 1339.94 Q1503.3 1346.24 1503.3 1357.12 Q1503.3 1367.77 1497 1374.2 Q1490.71 1380.64 1480.24 1380.64 Q1468.25 1380.64 1461.91 1371.47 Q1455.57 1362.26 1455.57 1344.81 Q1455.57 1328.42 1463.35 1318.69 Q1471.12 1308.93 1484.22 1308.93 Q1487.74 1308.93 1491.31 1309.62 Q1494.92 1310.31 1498.81 1311.7 Z" fill="#000000" fill-rule="nonzero" fill-opacity="1" /><path clip-path="url(#clip360)" d="M1624.74 1316.33 Q1617.51 1316.33 1613.86 1323.46 Q1610.25 1330.55 1610.25 1344.81 Q1610.25 1359.02 1613.86 1366.15 Q1617.51 1373.23 1624.74 1373.23 Q1632 1373.23 1635.62 1366.15 Q1639.27 1359.02 1639.27 1344.81 Q1639.27 1330.55 1635.62 1323.46 Q1632 1316.33 1624.74 1316.33 M1624.74 1308.93 Q1636.36 1308.93 1642.47 1318.14 Q1648.62 1327.31 1648.62 1344.81 Q1648.62 1362.26 1642.47 1371.47 Q1636.36 1380.64 1624.74 1380.64 Q1613.12 1380.64 1606.96 1371.47 Q1600.85 1362.26 1600.85 1344.81 Q1600.85 1327.31 1606.96 1318.14 Q1613.12 1308.93 1624.74 1308.93 Z" fill="#000000" fill-rule="nonzero" fill-opacity="1" /><path clip-path="url(#clip360)" d="M1665.06 1367.54 L1674.83 1367.54 L1674.83 1379.3 L1665.06 1379.3 L1665.06 1367.54 Z" fill="#000000" fill-rule="nonzero" fill-opacity="1" /><path clip-path="url(#clip360)" d="M1715.2 1346.47 Q1708.53 1346.47 1704.69 1350.04 Q1700.89 1353.6 1700.89 1359.85 Q1700.89 1366.1 1704.69 1369.67 Q1708.53 1373.23 1715.2 1373.23 Q1721.87 1373.23 1725.71 1369.67 Q1729.55 1366.06 1729.55 1359.85 Q1729.55 1353.6 1725.71 1350.04 Q1721.91 1346.47 1715.2 1346.47 M1705.85 1342.49 Q1699.83 1341.01 1696.45 1336.89 Q1693.12 1332.77 1693.12 1326.84 Q1693.12 1318.56 1698.99 1313.74 Q1704.92 1308.93 1715.2 1308.93 Q1725.52 1308.93 1731.4 1313.74 Q1737.28 1318.56 1737.28 1326.84 Q1737.28 1332.77 1733.9 1336.89 Q1730.57 1341.01 1724.6 1342.49 Q1731.36 1344.06 1735.11 1348.65 Q1738.9 1353.23 1738.9 1359.85 Q1738.9 1369.9 1732.74 1375.27 Q1726.63 1380.64 1715.2 1380.64 Q1703.76 1380.64 1697.61 1375.27 Q1691.49 1369.9 1691.49 1359.85 Q1691.49 1353.23 1695.29 1348.65 Q1699.09 1344.06 1705.85 1342.49 M1702.42 1327.72 Q1702.42 1333.09 1705.75 1336.1 Q1709.13 1339.11 1715.2 1339.11 Q1721.22 1339.11 1724.6 1336.1 Q1728.02 1333.09 1728.02 1327.72 Q1728.02 1322.35 1724.6 1319.34 Q1721.22 1316.33 1715.2 1316.33 Q1709.13 1316.33 1705.75 1319.34 Q1702.42 1322.35 1702.42 1327.72 Z" fill="#000000" fill-rule="nonzero" fill-opacity="1" /><path clip-path="url(#clip360)" d="M1840.04 1371.43 L1855.32 1371.43 L1855.32 1318.69 L1838.7 1322.03 L1838.7 1313.51 L1855.22 1310.18 L1864.58 1310.18 L1864.58 1371.43 L1879.85 1371.43 L1879.85 1379.3 L1840.04 1379.3 L1840.04 1371.43 Z" fill="#000000" fill-rule="nonzero" fill-opacity="1" /><path clip-path="url(#clip360)" d="M1898.74 1367.54 L1908.51 1367.54 L1908.51 1379.3 L1898.74 1379.3 L1898.74 1367.54 Z" fill="#000000" fill-rule="nonzero" fill-opacity="1" /><path clip-path="url(#clip360)" d="M1948.88 1316.33 Q1941.66 1316.33 1938 1323.46 Q1934.39 1330.55 1934.39 1344.81 Q1934.39 1359.02 1938 1366.15 Q1941.66 1373.23 1948.88 1373.23 Q1956.15 1373.23 1959.76 1366.15 Q1963.42 1359.02 1963.42 1344.81 Q1963.42 1330.55 1959.76 1323.46 Q1956.15 1316.33 1948.88 1316.33 M1948.88 1308.93 Q1960.5 1308.93 1966.61 1318.14 Q1972.77 1327.31 1972.77 1344.81 Q1972.77 1362.26 1966.61 1371.47 Q1960.5 1380.64 1948.88 1380.64 Q1937.26 1380.64 1931.1 1371.47 Q1924.99 1362.26 1924.99 1344.81 Q1924.99 1327.31 1931.1 1318.14 Q1937.26 1308.93 1948.88 1308.93 Z" fill="#000000" fill-rule="nonzero" fill-opacity="1" /><path clip-path="url(#clip360)" d="M2077.49 1371.43 L2092.77 1371.43 L2092.77 1318.69 L2076.15 1322.03 L2076.15 1313.51 L2092.68 1310.18 L2102.03 1310.18 L2102.03 1371.43 L2117.31 1371.43 L2117.31 1379.3 L2077.49 1379.3 L2077.49 1371.43 Z" fill="#000000" fill-rule="nonzero" fill-opacity="1" /><path clip-path="url(#clip360)" d="M2136.2 1367.54 L2145.97 1367.54 L2145.97 1379.3 L2136.2 1379.3 L2136.2 1367.54 Z" fill="#000000" fill-rule="nonzero" fill-opacity="1" /><path clip-path="url(#clip360)" d="M2174.39 1371.43 L2207.03 1371.43 L2207.03 1379.3 L2163.14 1379.3 L2163.14 1371.43 Q2168.47 1365.92 2177.63 1356.66 Q2186.84 1347.35 2189.21 1344.67 Q2193.7 1339.62 2195.46 1336.15 Q2197.26 1332.63 2197.26 1329.25 Q2197.26 1323.74 2193.37 1320.27 Q2189.53 1316.8 2183.33 1316.8 Q2178.93 1316.8 2174.02 1318.32 Q2169.16 1319.85 2163.6 1322.95 L2163.6 1313.51 Q2169.25 1311.24 2174.16 1310.08 Q2179.07 1308.93 2183.14 1308.93 Q2193.88 1308.93 2200.27 1314.3 Q2206.66 1319.67 2206.66 1328.65 Q2206.66 1332.91 2205.04 1336.75 Q2203.47 1340.55 2199.25 1345.73 Q2198.09 1347.07 2191.89 1353.51 Q2185.69 1359.9 2174.39 1371.43 Z" fill="#000000" fill-rule="nonzero" fill-opacity="1" /><path clip-path="url(#clip360)" d="M1378.53 1484.39 L1378.53 1527.42 L1366.81 1527.42 L1366.81 1484.77 Q1366.81 1474.65 1362.87 1469.62 Q1358.92 1464.59 1351.03 1464.59 Q1341.54 1464.59 1336.07 1470.64 Q1330.59 1476.69 1330.59 1487.13 L1330.59 1527.42 L1318.82 1527.42 L1318.82 1428.37 L1330.59 1428.37 L1330.59 1467.2 Q1334.79 1460.77 1340.46 1457.59 Q1346.19 1454.41 1353.64 1454.41 Q1365.92 1454.41 1372.22 1462.05 Q1378.53 1469.62 1378.53 1484.39 Z" fill="#000000" fill-rule="nonzero" fill-opacity="1" /><path clip-path="url(#clip360)" d="M1429.51 1464.34 Q1420.09 1464.34 1414.62 1471.72 Q1409.14 1479.04 1409.14 1491.84 Q1409.14 1504.63 1414.56 1512.02 Q1420.03 1519.34 1429.51 1519.34 Q1438.87 1519.34 1444.35 1511.96 Q1449.82 1504.57 1449.82 1491.84 Q1449.82 1479.17 1444.35 1471.79 Q1438.87 1464.34 1429.51 1464.34 M1429.51 1454.41 Q1444.79 1454.41 1453.51 1464.34 Q1462.23 1474.27 1462.23 1491.84 Q1462.23 1509.35 1453.51 1519.34 Q1444.79 1529.27 1429.51 1529.27 Q1414.17 1529.27 1405.45 1519.34 Q1396.8 1509.35 1396.8 1491.84 Q1396.8 1474.27 1405.45 1464.34 Q1414.17 1454.41 1429.51 1454.41 Z" fill="#000000" fill-rule="nonzero" fill-opacity="1" /><path clip-path="url(#clip360)" d="M1480.44 1499.29 L1480.44 1456.13 L1492.15 1456.13 L1492.15 1498.84 Q1492.15 1508.96 1496.1 1514.06 Q1500.05 1519.08 1507.94 1519.08 Q1517.43 1519.08 1522.9 1513.04 Q1528.44 1506.99 1528.44 1496.55 L1528.44 1456.13 L1540.15 1456.13 L1540.15 1527.42 L1528.44 1527.42 L1528.44 1516.47 Q1524.17 1522.97 1518.51 1526.15 Q1512.91 1529.27 1505.46 1529.27 Q1493.17 1529.27 1486.81 1521.63 Q1480.44 1513.99 1480.44 1499.29 M1509.91 1454.41 L1509.91 1454.41 Z" fill="#000000" fill-rule="nonzero" fill-opacity="1" /><path clip-path="url(#clip360)" d="M1605.59 1467.08 Q1603.62 1465.93 1601.26 1465.42 Q1598.97 1464.85 1596.17 1464.85 Q1586.24 1464.85 1580.89 1471.34 Q1575.61 1477.77 1575.61 1489.87 L1575.61 1527.42 L1563.83 1527.42 L1563.83 1456.13 L1575.61 1456.13 L1575.61 1467.2 Q1579.3 1460.71 1585.22 1457.59 Q1591.14 1454.41 1599.61 1454.41 Q1600.82 1454.41 1602.28 1454.6 Q1603.74 1454.73 1605.53 1455.05 L1605.59 1467.08 Z" fill="#000000" fill-rule="nonzero" fill-opacity="1" /><path clip-path="url(#clip360)" d="M1663.33 1458.23 L1663.33 1469.3 Q1658.36 1466.76 1653.01 1465.49 Q1647.67 1464.21 1641.94 1464.21 Q1633.22 1464.21 1628.83 1466.89 Q1624.5 1469.56 1624.5 1474.91 Q1624.5 1478.98 1627.62 1481.34 Q1630.73 1483.63 1640.16 1485.73 L1644.17 1486.62 Q1656.64 1489.29 1661.86 1494.19 Q1667.15 1499.03 1667.15 1507.75 Q1667.15 1517.68 1659.25 1523.48 Q1651.42 1529.27 1637.67 1529.27 Q1631.94 1529.27 1625.71 1528.12 Q1619.53 1527.04 1612.66 1524.81 L1612.66 1512.72 Q1619.15 1516.09 1625.45 1517.81 Q1631.75 1519.47 1637.93 1519.47 Q1646.2 1519.47 1650.66 1516.67 Q1655.12 1513.8 1655.12 1508.64 Q1655.12 1503.87 1651.87 1501.32 Q1648.69 1498.78 1637.8 1496.42 L1633.73 1495.47 Q1622.84 1493.18 1618 1488.47 Q1613.17 1483.69 1613.17 1475.42 Q1613.17 1465.36 1620.3 1459.88 Q1627.42 1454.41 1640.54 1454.41 Q1647.03 1454.41 1652.76 1455.36 Q1658.49 1456.32 1663.33 1458.23 Z" fill="#000000" fill-rule="nonzero" fill-opacity="1" /><polyline clip-path="url(#clip362)" style="stroke:#000000; stroke-linecap:round; stroke-linejoin:round; stroke-width:4; stroke-opacity:0.1; fill:none" points="680.45,1172.83 2305.51,1172.83 "/>
<polyline clip-path="url(#clip362)" style="stroke:#000000; stroke-linecap:round; stroke-linejoin:round; stroke-width:4; stroke-opacity:0.1; fill:none" points="680.45,868.088 2305.51,868.088 "/>
<polyline clip-path="url(#clip362)" style="stroke:#000000; stroke-linecap:round; stroke-linejoin:round; stroke-width:4; stroke-opacity:0.1; fill:none" points="680.45,563.344 2305.51,563.344 "/>
<polyline clip-path="url(#clip362)" style="stroke:#000000; stroke-linecap:round; stroke-linejoin:round; stroke-width:4; stroke-opacity:0.1; fill:none" points="680.45,258.6 2305.51,258.6 "/>
<polyline clip-path="url(#clip360)" style="stroke:#000000; stroke-linecap:round; stroke-linejoin:round; stroke-width:8; stroke-opacity:1; fill:none" points="680.45,1273.7 680.45,94.4882 "/>
<polyline clip-path="url(#clip360)" style="stroke:#000000; stroke-linecap:round; stroke-linejoin:round; stroke-width:8; stroke-opacity:1; fill:none" points="680.45,1172.83 699.348,1172.83 "/>
<polyline clip-path="url(#clip360)" style="stroke:#000000; stroke-linecap:round; stroke-linejoin:round; stroke-width:8; stroke-opacity:1; fill:none" points="680.45,868.088 699.348,868.088 "/>
<polyline clip-path="url(#clip360)" style="stroke:#000000; stroke-linecap:round; stroke-linejoin:round; stroke-width:8; stroke-opacity:1; fill:none" points="680.45,563.344 699.348,563.344 "/>
<polyline clip-path="url(#clip360)" style="stroke:#000000; stroke-linecap:round; stroke-linejoin:round; stroke-width:8; stroke-opacity:1; fill:none" points="680.45,258.6 699.348,258.6 "/>
<path clip-path="url(#clip360)" d="M530.099 1144.43 Q522.877 1144.43 519.22 1151.56 Q515.608 1158.64 515.608 1172.9 Q515.608 1187.11 519.22 1194.24 Q522.877 1201.33 530.099 1201.33 Q537.368 1201.33 540.979 1194.24 Q544.636 1187.11 544.636 1172.9 Q544.636 1158.64 540.979 1151.56 Q537.368 1144.43 530.099 1144.43 M530.099 1137.02 Q541.719 1137.02 547.831 1146.23 Q553.988 1155.4 553.988 1172.9 Q553.988 1190.35 547.831 1199.57 Q541.719 1208.73 530.099 1208.73 Q518.479 1208.73 512.321 1199.57 Q506.21 1190.35 506.21 1172.9 Q506.21 1155.4 512.321 1146.23 Q518.479 1137.02 530.099 1137.02 Z" fill="#000000" fill-rule="nonzero" fill-opacity="1" /><path clip-path="url(#clip360)" d="M570.423 1195.63 L580.191 1195.63 L580.191 1207.39 L570.423 1207.39 L570.423 1195.63 Z" fill="#000000" fill-rule="nonzero" fill-opacity="1" /><path clip-path="url(#clip360)" d="M620.562 1144.43 Q613.339 1144.43 609.682 1151.56 Q606.071 1158.64 606.071 1172.9 Q606.071 1187.11 609.682 1194.24 Q613.339 1201.33 620.562 1201.33 Q627.83 1201.33 631.441 1194.24 Q635.099 1187.11 635.099 1172.9 Q635.099 1158.64 631.441 1151.56 Q627.83 1144.43 620.562 1144.43 M620.562 1137.02 Q632.182 1137.02 638.293 1146.23 Q644.45 1155.4 644.45 1172.9 Q644.45 1190.35 638.293 1199.57 Q632.182 1208.73 620.562 1208.73 Q608.941 1208.73 602.784 1199.57 Q596.673 1190.35 596.673 1172.9 Q596.673 1155.4 602.784 1146.23 Q608.941 1137.02 620.562 1137.02 Z" fill="#000000" fill-rule="nonzero" fill-opacity="1" /><path clip-path="url(#clip360)" d="M391.072 894.777 L406.35 894.777 L406.35 842.046 L389.73 845.379 L389.73 836.861 L406.257 833.528 L415.609 833.528 L415.609 894.777 L430.887 894.777 L430.887 902.648 L391.072 902.648 L391.072 894.777 Z" fill="#000000" fill-rule="nonzero" fill-opacity="1" /><path clip-path="url(#clip360)" d="M469.775 839.685 Q462.553 839.685 458.896 846.815 Q455.285 853.898 455.285 868.157 Q455.285 882.37 458.896 889.5 Q462.553 896.583 469.775 896.583 Q477.044 896.583 480.655 889.5 Q484.312 882.37 484.312 868.157 Q484.312 853.898 480.655 846.815 Q477.044 839.685 469.775 839.685 M469.775 832.278 Q481.396 832.278 487.507 841.491 Q493.664 850.657 493.664 868.157 Q493.664 885.611 487.507 894.824 Q481.396 903.99 469.775 903.99 Q458.155 903.99 451.998 894.824 Q445.887 885.611 445.887 868.157 Q445.887 850.657 451.998 841.491 Q458.155 832.278 469.775 832.278 Z" fill="#000000" fill-rule="nonzero" fill-opacity="1" /><path clip-path="url(#clip360)" d="M530.099 839.685 Q522.877 839.685 519.22 846.815 Q515.608 853.898 515.608 868.157 Q515.608 882.37 519.22 889.5 Q522.877 896.583 530.099 896.583 Q537.368 896.583 540.979 889.5 Q544.636 882.37 544.636 868.157 Q544.636 853.898 540.979 846.815 Q537.368 839.685 530.099 839.685 M530.099 832.278 Q541.719 832.278 547.831 841.491 Q553.988 850.657 553.988 868.157 Q553.988 885.611 547.831 894.824 Q541.719 903.99 530.099 903.99 Q518.479 903.99 512.321 894.824 Q506.21 885.611 506.21 868.157 Q506.21 850.657 512.321 841.491 Q518.479 832.278 530.099 832.278 Z" fill="#000000" fill-rule="nonzero" fill-opacity="1" /><path clip-path="url(#clip360)" d="M570.423 890.888 L580.191 890.888 L580.191 902.648 L570.423 902.648 L570.423 890.888 Z" fill="#000000" fill-rule="nonzero" fill-opacity="1" /><path clip-path="url(#clip360)" d="M620.562 839.685 Q613.339 839.685 609.682 846.815 Q606.071 853.898 606.071 868.157 Q606.071 882.37 609.682 889.5 Q613.339 896.583 620.562 896.583 Q627.83 896.583 631.441 889.5 Q635.099 882.37 635.099 868.157 Q635.099 853.898 631.441 846.815 Q627.83 839.685 620.562 839.685 M620.562 832.278 Q632.182 832.278 638.293 841.491 Q644.45 850.657 644.45 868.157 Q644.45 885.611 638.293 894.824 Q632.182 903.99 620.562 903.99 Q608.941 903.99 602.784 894.824 Q596.673 885.611 596.673 868.157 Q596.673 850.657 602.784 841.491 Q608.941 832.278 620.562 832.278 Z" fill="#000000" fill-rule="nonzero" fill-opacity="1" /><path clip-path="url(#clip360)" d="M397.507 590.034 L430.146 590.034 L430.146 597.904 L386.257 597.904 L386.257 590.034 Q391.581 584.524 400.748 575.265 Q409.961 565.96 412.322 563.275 Q416.813 558.228 418.572 554.756 Q420.378 551.238 420.378 547.858 Q420.378 542.349 416.489 538.877 Q412.646 535.404 406.442 535.404 Q402.044 535.404 397.137 536.932 Q392.276 538.46 386.72 541.562 L386.72 532.117 Q392.368 529.849 397.276 528.691 Q402.183 527.534 406.257 527.534 Q416.998 527.534 423.387 532.904 Q429.776 538.275 429.776 547.256 Q429.776 551.515 428.155 555.358 Q426.581 559.154 422.368 564.339 Q421.211 565.682 415.007 572.117 Q408.803 578.506 397.507 590.034 Z" fill="#000000" fill-rule="nonzero" fill-opacity="1" /><path clip-path="url(#clip360)" d="M469.775 534.941 Q462.553 534.941 458.896 542.071 Q455.285 549.154 455.285 563.413 Q455.285 577.626 458.896 584.756 Q462.553 591.839 469.775 591.839 Q477.044 591.839 480.655 584.756 Q484.312 577.626 484.312 563.413 Q484.312 549.154 480.655 542.071 Q477.044 534.941 469.775 534.941 M469.775 527.534 Q481.396 527.534 487.507 536.747 Q493.664 545.914 493.664 563.413 Q493.664 580.867 487.507 590.08 Q481.396 599.247 469.775 599.247 Q458.155 599.247 451.998 590.08 Q445.887 580.867 445.887 563.413 Q445.887 545.914 451.998 536.747 Q458.155 527.534 469.775 527.534 Z" fill="#000000" fill-rule="nonzero" fill-opacity="1" /><path clip-path="url(#clip360)" d="M530.099 534.941 Q522.877 534.941 519.22 542.071 Q515.608 549.154 515.608 563.413 Q515.608 577.626 519.22 584.756 Q522.877 591.839 530.099 591.839 Q537.368 591.839 540.979 584.756 Q544.636 577.626 544.636 563.413 Q544.636 549.154 540.979 542.071 Q537.368 534.941 530.099 534.941 M530.099 527.534 Q541.719 527.534 547.831 536.747 Q553.988 545.914 553.988 563.413 Q553.988 580.867 547.831 590.08 Q541.719 599.247 530.099 599.247 Q518.479 599.247 512.321 590.08 Q506.21 580.867 506.21 563.413 Q506.21 545.914 512.321 536.747 Q518.479 527.534 530.099 527.534 Z" fill="#000000" fill-rule="nonzero" fill-opacity="1" /><path clip-path="url(#clip360)" d="M570.423 586.145 L580.191 586.145 L580.191 597.904 L570.423 597.904 L570.423 586.145 Z" fill="#000000" fill-rule="nonzero" fill-opacity="1" /><path clip-path="url(#clip360)" d="M620.562 534.941 Q613.339 534.941 609.682 542.071 Q606.071 549.154 606.071 563.413 Q606.071 577.626 609.682 584.756 Q613.339 591.839 620.562 591.839 Q627.83 591.839 631.441 584.756 Q635.099 577.626 635.099 563.413 Q635.099 549.154 631.441 542.071 Q627.83 534.941 620.562 534.941 M620.562 527.534 Q632.182 527.534 638.293 536.747 Q644.45 545.914 644.45 563.413 Q644.45 580.867 638.293 590.08 Q632.182 599.247 620.562 599.247 Q608.941 599.247 602.784 590.08 Q596.673 580.867 596.673 563.413 Q596.673 545.914 602.784 536.747 Q608.941 527.534 620.562 527.534 Z" fill="#000000" fill-rule="nonzero" fill-opacity="1" /><path clip-path="url(#clip360)" d="M417.785 255.892 Q424.498 257.327 428.248 261.864 Q432.044 266.401 432.044 273.068 Q432.044 283.299 425.007 288.901 Q417.97 294.503 405.007 294.503 Q400.655 294.503 396.026 293.623 Q391.442 292.79 386.535 291.077 L386.535 282.049 Q390.424 284.318 395.054 285.475 Q399.683 286.633 404.729 286.633 Q413.526 286.633 418.109 283.16 Q422.739 279.688 422.739 273.068 Q422.739 266.957 418.433 263.531 Q414.174 260.059 406.535 260.059 L398.479 260.059 L398.479 252.374 L406.905 252.374 Q413.803 252.374 417.461 249.642 Q421.118 246.864 421.118 241.679 Q421.118 236.355 417.322 233.531 Q413.572 230.661 406.535 230.661 Q402.692 230.661 398.294 231.494 Q393.896 232.327 388.618 234.087 L388.618 225.753 Q393.942 224.272 398.572 223.531 Q403.248 222.79 407.368 222.79 Q418.016 222.79 424.22 227.651 Q430.424 232.466 430.424 240.707 Q430.424 246.448 427.137 250.429 Q423.85 254.364 417.785 255.892 Z" fill="#000000" fill-rule="nonzero" fill-opacity="1" /><path clip-path="url(#clip360)" d="M469.775 230.198 Q462.553 230.198 458.896 237.327 Q455.285 244.411 455.285 258.67 Q455.285 272.883 458.896 280.012 Q462.553 287.096 469.775 287.096 Q477.044 287.096 480.655 280.012 Q484.312 272.883 484.312 258.67 Q484.312 244.411 480.655 237.327 Q477.044 230.198 469.775 230.198 M469.775 222.79 Q481.396 222.79 487.507 232.003 Q493.664 241.17 493.664 258.67 Q493.664 276.123 487.507 285.336 Q481.396 294.503 469.775 294.503 Q458.155 294.503 451.998 285.336 Q445.887 276.123 445.887 258.67 Q445.887 241.17 451.998 232.003 Q458.155 222.79 469.775 222.79 Z" fill="#000000" fill-rule="nonzero" fill-opacity="1" /><path clip-path="url(#clip360)" d="M530.099 230.198 Q522.877 230.198 519.22 237.327 Q515.608 244.411 515.608 258.67 Q515.608 272.883 519.22 280.012 Q522.877 287.096 530.099 287.096 Q537.368 287.096 540.979 280.012 Q544.636 272.883 544.636 258.67 Q544.636 244.411 540.979 237.327 Q537.368 230.198 530.099 230.198 M530.099 222.79 Q541.719 222.79 547.831 232.003 Q553.988 241.17 553.988 258.67 Q553.988 276.123 547.831 285.336 Q541.719 294.503 530.099 294.503 Q518.479 294.503 512.321 285.336 Q506.21 276.123 506.21 258.67 Q506.21 241.17 512.321 232.003 Q518.479 222.79 530.099 222.79 Z" fill="#000000" fill-rule="nonzero" fill-opacity="1" /><path clip-path="url(#clip360)" d="M570.423 281.401 L580.191 281.401 L580.191 293.16 L570.423 293.16 L570.423 281.401 Z" fill="#000000" fill-rule="nonzero" fill-opacity="1" /><path clip-path="url(#clip360)" d="M620.562 230.198 Q613.339 230.198 609.682 237.327 Q606.071 244.411 606.071 258.67 Q606.071 272.883 609.682 280.012 Q613.339 287.096 620.562 287.096 Q627.83 287.096 631.441 280.012 Q635.099 272.883 635.099 258.67 Q635.099 244.411 631.441 237.327 Q627.83 230.198 620.562 230.198 M620.562 222.79 Q632.182 222.79 638.293 232.003 Q644.45 241.17 644.45 258.67 Q644.45 276.123 638.293 285.336 Q632.182 294.503 620.562 294.503 Q608.941 294.503 602.784 285.336 Q596.673 276.123 596.673 258.67 Q596.673 241.17 602.784 232.003 Q608.941 222.79 620.562 222.79 Z" fill="#000000" fill-rule="nonzero" fill-opacity="1" /><path clip-path="url(#clip360)" d="M253.187 913.798 L264.136 913.798 Q261.398 918.764 260.062 923.793 Q258.661 928.758 258.661 933.85 Q258.661 945.245 265.918 951.547 Q273.111 957.849 286.161 957.849 Q299.211 957.849 306.468 951.547 Q313.661 945.245 313.661 933.85 Q313.661 928.758 312.324 923.793 Q310.924 918.764 308.186 913.798 L319.008 913.798 Q321.3 918.7 322.446 923.984 Q323.591 929.204 323.591 935.124 Q323.591 951.229 313.47 960.714 Q303.348 970.199 286.161 970.199 Q268.719 970.199 258.725 960.65 Q248.731 951.038 248.731 934.36 Q248.731 928.949 249.876 923.793 Q250.959 918.636 253.187 913.798 Z" fill="#000000" fill-rule="nonzero" fill-opacity="1" /><path clip-path="url(#clip360)" d="M258.661 865.801 Q258.661 875.222 266.045 880.697 Q273.366 886.171 286.161 886.171 Q298.956 886.171 306.34 880.76 Q313.661 875.286 313.661 865.801 Q313.661 856.443 306.277 850.969 Q298.892 845.494 286.161 845.494 Q273.493 845.494 266.109 850.969 Q258.661 856.443 258.661 865.801 M248.731 865.801 Q248.731 850.523 258.661 841.802 Q268.592 833.081 286.161 833.081 Q303.667 833.081 313.661 841.802 Q323.591 850.523 323.591 865.801 Q323.591 881.142 313.661 889.863 Q303.667 898.521 286.161 898.521 Q268.592 898.521 258.661 889.863 Q248.731 881.142 248.731 865.801 Z" fill="#000000" fill-rule="nonzero" fill-opacity="1" /><path clip-path="url(#clip360)" d="M278.713 754.401 L321.745 754.401 L321.745 766.114 L279.095 766.114 Q268.974 766.114 263.945 770.061 Q258.916 774.008 258.916 781.901 Q258.916 791.386 264.963 796.86 Q271.011 802.335 281.45 802.335 L321.745 802.335 L321.745 814.112 L250.449 814.112 L250.449 802.335 L261.526 802.335 Q255.096 798.134 251.914 792.468 Q248.731 786.739 248.731 779.291 Q248.731 767.005 256.37 760.703 Q263.945 754.401 278.713 754.401 Z" fill="#000000" fill-rule="nonzero" fill-opacity="1" /><path clip-path="url(#clip360)" d="M253.187 679.731 L264.136 679.731 Q261.398 684.697 260.062 689.726 Q258.661 694.691 258.661 699.783 Q258.661 711.178 265.918 717.48 Q273.111 723.782 286.161 723.782 Q299.211 723.782 306.468 717.48 Q313.661 711.178 313.661 699.783 Q313.661 694.691 312.324 689.726 Q310.924 684.697 308.186 679.731 L319.008 679.731 Q321.3 684.633 322.446 689.917 Q323.591 695.136 323.591 701.057 Q323.591 717.162 313.47 726.647 Q303.348 736.132 286.161 736.132 Q268.719 736.132 258.725 726.583 Q248.731 716.971 248.731 700.293 Q248.731 694.882 249.876 689.726 Q250.959 684.569 253.187 679.731 Z" fill="#000000" fill-rule="nonzero" fill-opacity="1" /><path clip-path="url(#clip360)" d="M305.576 657.706 L305.576 644.274 L321.745 644.274 L321.745 657.706 L305.576 657.706 Z" fill="#000000" fill-rule="nonzero" fill-opacity="1" /><path clip-path="url(#clip360)" d="M234.026 504.802 L247.585 504.802 Q241.537 511.295 238.546 518.679 Q235.554 526 235.554 534.275 Q235.554 550.571 245.548 559.229 Q255.478 567.886 274.321 567.886 Q293.1 567.886 303.094 559.229 Q313.024 550.571 313.024 534.275 Q313.024 526 310.032 518.679 Q307.041 511.295 300.993 504.802 L314.425 504.802 Q319.008 511.549 321.3 519.125 Q323.591 526.636 323.591 535.039 Q323.591 556.619 310.414 569.032 Q297.174 581.445 274.321 581.445 Q251.404 581.445 238.227 569.032 Q224.987 556.619 224.987 535.039 Q224.987 526.509 227.278 518.997 Q229.506 511.422 234.026 504.802 Z" fill="#000000" fill-rule="nonzero" fill-opacity="1" /><path clip-path="url(#clip360)" d="M226.705 484.941 L226.705 465.78 L291.381 441.527 L226.705 417.146 L226.705 397.985 L321.745 397.985 L321.745 410.526 L238.291 410.526 L303.476 435.034 L303.476 447.956 L238.291 472.464 L321.745 472.464 L321.745 484.941 L226.705 484.941 Z" fill="#000000" fill-rule="nonzero" fill-opacity="1" /><polyline clip-path="url(#clip362)" style="stroke:#008000; stroke-linecap:round; stroke-linejoin:round; stroke-width:8; stroke-opacity:1; fill:none" points="726.443,1020.6 844.372,1006.08 962.301,998.771 1080.23,996.922 1198.16,954.193 1316.09,960.574 1434.02,931.163 1551.95,896.388 1669.87,973.707 1787.8,900.088 1905.73,868.088 2023.66,938.748 2141.59,916.458 2259.52,869.475 "/>
<circle clip-path="url(#clip362)" cx="726.443" cy="1020.6" r="14.4" fill="#008000" fill-rule="evenodd" fill-opacity="1" stroke="#000000" stroke-opacity="1" stroke-width="6.4"/>
<circle clip-path="url(#clip362)" cx="844.372" cy="1006.08" r="14.4" fill="#008000" fill-rule="evenodd" fill-opacity="1" stroke="#000000" stroke-opacity="1" stroke-width="6.4"/>
<circle clip-path="url(#clip362)" cx="962.301" cy="998.771" r="14.4" fill="#008000" fill-rule="evenodd" fill-opacity="1" stroke="#000000" stroke-opacity="1" stroke-width="6.4"/>
<circle clip-path="url(#clip362)" cx="1080.23" cy="996.922" r="14.4" fill="#008000" fill-rule="evenodd" fill-opacity="1" stroke="#000000" stroke-opacity="1" stroke-width="6.4"/>
<circle clip-path="url(#clip362)" cx="1198.16" cy="954.193" r="14.4" fill="#008000" fill-rule="evenodd" fill-opacity="1" stroke="#000000" stroke-opacity="1" stroke-width="6.4"/>
<circle clip-path="url(#clip362)" cx="1316.09" cy="960.574" r="14.4" fill="#008000" fill-rule="evenodd" fill-opacity="1" stroke="#000000" stroke-opacity="1" stroke-width="6.4"/>
<circle clip-path="url(#clip362)" cx="1434.02" cy="931.163" r="14.4" fill="#008000" fill-rule="evenodd" fill-opacity="1" stroke="#000000" stroke-opacity="1" stroke-width="6.4"/>
<circle clip-path="url(#clip362)" cx="1551.95" cy="896.388" r="14.4" fill="#008000" fill-rule="evenodd" fill-opacity="1" stroke="#000000" stroke-opacity="1" stroke-width="6.4"/>
<circle clip-path="url(#clip362)" cx="1669.87" cy="973.707" r="14.4" fill="#008000" fill-rule="evenodd" fill-opacity="1" stroke="#000000" stroke-opacity="1" stroke-width="6.4"/>
<circle clip-path="url(#clip362)" cx="1787.8" cy="900.088" r="14.4" fill="#008000" fill-rule="evenodd" fill-opacity="1" stroke="#000000" stroke-opacity="1" stroke-width="6.4"/>
<circle clip-path="url(#clip362)" cx="1905.73" cy="868.088" r="14.4" fill="#008000" fill-rule="evenodd" fill-opacity="1" stroke="#000000" stroke-opacity="1" stroke-width="6.4"/>
<circle clip-path="url(#clip362)" cx="2023.66" cy="938.748" r="14.4" fill="#008000" fill-rule="evenodd" fill-opacity="1" stroke="#000000" stroke-opacity="1" stroke-width="6.4"/>
<circle clip-path="url(#clip362)" cx="2141.59" cy="916.458" r="14.4" fill="#008000" fill-rule="evenodd" fill-opacity="1" stroke="#000000" stroke-opacity="1" stroke-width="6.4"/>
<circle clip-path="url(#clip362)" cx="2259.52" cy="869.475" r="14.4" fill="#008000" fill-rule="evenodd" fill-opacity="1" stroke="#000000" stroke-opacity="1" stroke-width="6.4"/>
<polyline clip-path="url(#clip362)" style="stroke:#00008b; stroke-linecap:round; stroke-linejoin:round; stroke-width:8; stroke-opacity:1; fill:none" points="726.443,1019.06 844.372,885.017 962.301,752.352 1080.23,642.56 1198.16,593.859 1316.09,524.66 1434.02,455.971 1551.95,428.231 1669.87,387.495 1787.8,366.517 1905.73,337.445 2023.66,345.037 2141.59,345.986 2259.52,349.288 "/>
<path clip-path="url(#clip362)" d="M726.443 1240.32 L844.372 1092.86 L962.301 960.916 L1080.23 856.722 L1198.16 814.816 L1316.09 728.734 L1434.02 659.334 L1551.95 639.759 L1669.87 601.427 L1787.8 573.938 L1905.73 554.18 L2023.66 551.775 L2141.59 563.37 L2259.52 553.459 L2259.52 135.419 L2141.59 127.862 L2023.66 136.717 L1905.73 128.119 L1787.8 151.263 L1669.87 170.065 L1551.95 217.48 L1434.02 253.798 L1316.09 303.96 L1198.16 376.657 L1080.23 438.676 L962.301 554.953 L844.372 674.392 L726.443 812.182  Z" fill="#0000ff" fill-rule="evenodd" fill-opacity="0.1"/>
<polyline clip-path="url(#clip362)" style="stroke:#0000ff; stroke-linecap:round; stroke-linejoin:round; stroke-width:0; stroke-opacity:0.1; fill:none" points="726.443,1240.32 844.372,1092.86 962.301,960.916 1080.23,856.722 1198.16,814.816 1316.09,728.734 1434.02,659.334 1551.95,639.759 1669.87,601.427 1787.8,573.938 1905.73,554.18 2023.66,551.775 2141.59,563.37 2259.52,553.459 "/>
</svg>
