<?xml version="1.0" encoding="utf-8"?>
<svg xmlns="http://www.w3.org/2000/svg" xmlns:xlink="http://www.w3.org/1999/xlink" width="600" height="400" viewBox="0 0 2400 1600">
<defs>
  <clipPath id="clip490">
    <rect x="0" y="0" width="2400" height="1600"/>
  </clipPath>
</defs>
<path clip-path="url(#clip490)" d="M0 1600 L2400 1600 L2400 0 L0 0  Z" fill="#ffffff" fill-rule="evenodd" fill-opacity="1"/>
<defs>
  <clipPath id="clip491">
    <rect x="480" y="0" width="1681" height="1600"/>
  </clipPath>
</defs>
<path clip-path="url(#clip490)" d="M680.45 1273.7 L2305.51 1273.7 L2305.51 94.4882 L680.45 94.4882  Z" fill="#ffffff" fill-rule="evenodd" fill-opacity="1"/>
<defs>
  <clipPath id="clip492">
    <rect x="680" y="94" width="1626" height="1180"/>
  </clipPath>
</defs>
<polyline clip-path="url(#clip492)" style="stroke:#000000; stroke-linecap:round; stroke-linejoin:round; stroke-width:4; stroke-opacity:0.1; fill:none" points="726.443,1273.7 726.443,94.4882 "/>
<polyline clip-path="url(#clip492)" style="stroke:#000000; stroke-linecap:round; stroke-linejoin:round; stroke-width:4; stroke-opacity:0.1; fill:none" points="962.301,1273.7 962.301,94.4882 "/>
<polyline clip-path="url(#clip492)" style="stroke:#000000; stroke-linecap:round; stroke-linejoin:round; stroke-width:4; stroke-opacity:0.1; fill:none" points="1198.16,1273.7 1198.16,94.4882 "/>
<polyline clip-path="url(#clip492)" style="stroke:#000000; stroke-linecap:round; stroke-linejoin:round; stroke-width:4; stroke-opacity:0.1; fill:none" points="1434.02,1273.7 1434.02,94.4882 "/>
<polyline clip-path="url(#clip492)" style="stroke:#000000; stroke-linecap:round; stroke-linejoin:round; stroke-width:4; stroke-opacity:0.1; fill:none" points="1669.87,1273.7 1669.87,94.4882 "/>
<polyline clip-path="url(#clip492)" style="stroke:#000000; stroke-linecap:round; stroke-linejoin:round; stroke-width:4; stroke-opacity:0.1; fill:none" points="1905.73,1273.7 1905.73,94.4882 "/>
<polyline clip-path="url(#clip492)" style="stroke:#000000; stroke-linecap:round; stroke-linejoin:round; stroke-width:4; stroke-opacity:0.1; fill:none" points="2141.59,1273.7 2141.59,94.4882 "/>
<polyline clip-path="url(#clip490)" style="stroke:#000000; stroke-linecap:round; stroke-linejoin:round; stroke-width:8; stroke-opacity:1; fill:none" points="680.45,1273.7 2305.51,1273.7 "/>
<polyline clip-path="url(#clip490)" style="stroke:#000000; stroke-linecap:round; stroke-linejoin:round; stroke-width:8; stroke-opacity:1; fill:none" points="726.443,1273.7 726.443,1254.8 "/>
<polyline clip-path="url(#clip490)" style="stroke:#000000; stroke-linecap:round; stroke-linejoin:round; stroke-width:8; stroke-opacity:1; fill:none" points="962.301,1273.7 962.301,1254.8 "/>
<polyline clip-path="url(#clip490)" style="stroke:#000000; stroke-linecap:round; stroke-linejoin:round; stroke-width:8; stroke-opacity:1; fill:none" points="1198.16,1273.7 1198.16,1254.8 "/>
<polyline clip-path="url(#clip490)" style="stroke:#000000; stroke-linecap:round; stroke-linejoin:round; stroke-width:8; stroke-opacity:1; fill:none" points="1434.02,1273.7 1434.02,1254.8 "/>
<polyline clip-path="url(#clip490)" style="stroke:#000000; stroke-linecap:round; stroke-linejoin:round; stroke-width:8; stroke-opacity:1; fill:none" points="1669.87,1273.7 1669.87,1254.8 "/>
<polyline clip-path="url(#clip490)" style="stroke:#000000; stroke-linecap:round; stroke-linejoin:round; stroke-width:8; stroke-opacity:1; fill:none" points="1905.73,1273.7 1905.73,1254.8 "/>
<polyline clip-path="url(#clip490)" style="stroke:#000000; stroke-linecap:round; stroke-linejoin:round; stroke-width:8; stroke-opacity:1; fill:none" points="2141.59,1273.7 2141.59,1254.8 "/>
<path clip-path="url(#clip490)" d="M681.211 1316.33 Q673.989 1316.33 670.332 1323.46 Q666.721 1330.55 666.721 1344.81 Q666.721 1359.02 670.332 1366.15 Q673.989 1373.23 681.211 1373.23 Q688.48 1373.23 692.091 1366.15 Q695.748 1359.02 695.748 1344.81 Q695.748 1330.55 692.091 1323.46 Q688.48 1316.33 681.211 1316.33 M681.211 1308.93 Q692.832 1308.93 698.943 1318.14 Q705.1 1327.31 705.1 1344.81 Q705.1 1362.26 698.943 1371.47 Q692.832 1380.64 681.211 1380.64 Q669.591 1380.64 663.434 1371.47 Q657.323 1362.26 657.323 1344.81 Q657.323 1327.31 663.434 1318.14 Q669.591 1308.93 681.211 1308.93 Z" fill="#000000" fill-rule="nonzero" fill-opacity="1" /><path clip-path="url(#clip490)" d="M721.535 1367.54 L731.304 1367.54 L731.304 1379.3 L721.535 1379.3 L721.535 1367.54 Z" fill="#000000" fill-rule="nonzero" fill-opacity="1" /><path clip-path="url(#clip490)" d="M771.674 1316.33 Q764.452 1316.33 760.794 1323.46 Q757.183 1330.55 757.183 1344.81 Q757.183 1359.02 760.794 1366.15 Q764.452 1373.23 771.674 1373.23 Q778.942 1373.23 782.553 1366.15 Q786.211 1359.02 786.211 1344.81 Q786.211 1330.55 782.553 1323.46 Q778.942 1316.33 771.674 1316.33 M771.674 1308.93 Q783.294 1308.93 789.405 1318.14 Q795.563 1327.31 795.563 1344.81 Q795.563 1362.26 789.405 1371.47 Q783.294 1380.64 771.674 1380.64 Q760.054 1380.64 753.896 1371.47 Q747.785 1362.26 747.785 1344.81 Q747.785 1327.31 753.896 1318.14 Q760.054 1308.93 771.674 1308.93 Z" fill="#000000" fill-rule="nonzero" fill-opacity="1" /><path clip-path="url(#clip490)" d="M918.667 1316.33 Q911.444 1316.33 907.787 1323.46 Q904.176 1330.55 904.176 1344.81 Q904.176 1359.02 907.787 1366.15 Q911.444 1373.23 918.667 1373.23 Q925.935 1373.23 929.546 1366.15 Q933.204 1359.02 933.204 1344.81 Q933.204 1330.55 929.546 1323.46 Q925.935 1316.33 918.667 1316.33 M918.667 1308.93 Q930.287 1308.93 936.398 1318.14 Q942.555 1327.31 942.555 1344.81 Q942.555 1362.26 936.398 1371.47 Q930.287 1380.64 918.667 1380.64 Q907.046 1380.64 900.889 1371.47 Q894.778 1362.26 894.778 1344.81 Q894.778 1327.31 900.889 1318.14 Q907.046 1308.93 918.667 1308.93 Z" fill="#000000" fill-rule="nonzero" fill-opacity="1" /><path clip-path="url(#clip490)" d="M958.99 1367.54 L968.759 1367.54 L968.759 1379.3 L958.99 1379.3 L958.99 1367.54 Z" fill="#000000" fill-rule="nonzero" fill-opacity="1" /><path clip-path="url(#clip490)" d="M997.185 1371.43 L1029.82 1371.43 L1029.82 1379.3 L985.935 1379.3 L985.935 1371.43 Q991.259 1365.92 1000.43 1356.66 Q1009.64 1347.35 1012 1344.67 Q1016.49 1339.62 1018.25 1336.15 Q1020.05 1332.63 1020.05 1329.25 Q1020.05 1323.74 1016.17 1320.27 Q1012.32 1316.8 1006.12 1316.8 Q1001.72 1316.8 996.814 1318.32 Q991.953 1319.85 986.398 1322.95 L986.398 1313.51 Q992.046 1311.24 996.953 1310.08 Q1001.86 1308.93 1005.93 1308.93 Q1016.68 1308.93 1023.06 1314.3 Q1029.45 1319.67 1029.45 1328.65 Q1029.45 1332.91 1027.83 1336.75 Q1026.26 1340.55 1022.05 1345.73 Q1020.89 1347.07 1014.68 1353.51 Q1008.48 1359.9 997.185 1371.43 Z" fill="#000000" fill-rule="nonzero" fill-opacity="1" /><path clip-path="url(#clip490)" d="M1152.44 1316.33 Q1145.22 1316.33 1141.56 1323.46 Q1137.95 1330.55 1137.95 1344.81 Q1137.95 1359.02 1141.56 1366.15 Q1145.22 1373.23 1152.44 1373.23 Q1159.71 1373.23 1163.32 1366.15 Q1166.98 1359.02 1166.98 1344.81 Q1166.98 1330.55 1163.32 1323.46 Q1159.71 1316.33 1152.44 1316.33 M1152.44 1308.93 Q1164.06 1308.93 1170.17 1318.14 Q1176.33 1327.31 1176.33 1344.81 Q1176.33 1362.26 1170.17 1371.47 Q1164.06 1380.64 1152.44 1380.64 Q1140.82 1380.64 1134.66 1371.47 Q1128.55 1362.26 1128.55 1344.81 Q1128.55 1327.31 1134.66 1318.14 Q1140.82 1308.93 1152.44 1308.93 Z" fill="#000000" fill-rule="nonzero" fill-opacity="1" /><path clip-path="url(#clip490)" d="M1192.77 1367.54 L1202.53 1367.54 L1202.53 1379.3 L1192.77 1379.3 L1192.77 1367.54 Z" fill="#000000" fill-rule="nonzero" fill-opacity="1" /><path clip-path="url(#clip490)" d="M1248.6 1318.32 L1224.99 1355.22 L1248.6 1355.22 L1248.6 1318.32 M1246.14 1310.18 L1257.9 1310.18 L1257.9 1355.22 L1267.76 1355.22 L1267.76 1363 L1257.9 1363 L1257.9 1379.3 L1248.6 1379.3 L1248.6 1363 L1217.39 1363 L1217.39 1353.97 L1246.14 1310.18 Z" fill="#000000" fill-rule="nonzero" fill-opacity="1" /><path clip-path="url(#clip490)" d="M1388.62 1316.33 Q1381.4 1316.33 1377.74 1323.46 Q1374.13 1330.55 1374.13 1344.81 Q1374.13 1359.02 1377.74 1366.15 Q1381.4 1373.23 1388.62 1373.23 Q1395.89 1373.23 1399.5 1366.15 Q1403.16 1359.02 1403.16 1344.81 Q1403.16 1330.55 1399.5 1323.46 Q1395.89 1316.33 1388.62 1316.33 M1388.62 1308.93 Q1400.24 1308.93 1406.35 1318.14 Q1412.51 1327.31 1412.51 1344.81 Q1412.51 1362.26 1406.35 1371.47 Q1400.24 1380.64 1388.62 1380.64 Q1377 1380.64 1370.85 1371.47 Q1364.73 1362.26 1364.73 1344.81 Q1364.73 1327.31 1370.85 1318.14 Q1377 1308.93 1388.62 1308.93 Z" fill="#000000" fill-rule="nonzero" fill-opacity="1" /><path clip-path="url(#clip490)" d="M1428.95 1367.54 L1438.72 1367.54 L1438.72 1379.3 L1428.95 1379.3 L1428.95 1367.54 Z" fill="#000000" fill-rule="nonzero" fill-opacity="1" /><path clip-path="url(#clip490)" d="M1480.24 1341.01 Q1473.95 1341.01 1470.24 1345.31 Q1466.59 1349.62 1466.59 1357.12 Q1466.59 1364.57 1470.24 1368.93 Q1473.95 1373.23 1480.24 1373.23 Q1486.54 1373.23 1490.2 1368.93 Q1493.9 1364.57 1493.9 1357.12 Q1493.9 1349.62 1490.2 1345.31 Q1486.54 1341.01 1480.24 1341.01 M1498.81 1311.7 L1498.81 1320.22 Q1495.29 1318.56 1491.68 1317.68 Q1488.11 1316.8 1484.6 1316.8 Q1475.34 1316.8 1470.43 1323.05 Q1465.57 1329.3 1464.87 1341.93 Q1467.6 1337.91 1471.72 1335.78 Q1475.85 1333.6 1480.8 1333.6 Q1491.22 1333.6 1497.23 1339.94 Q1503.3 1346.24 1503.3 1357.12 Q1503.3 1367.77 1497 1374.2 Q1490.71 1380.64 1480.24 1380.64 Q1468.25 1380.64 1461.91 1371.47 Q1455.57 1362.26 1455.57 1344.81 Q1455.57 1328.42 1463.35 1318.69 Q1471.12 1308.93 1484.22 1308.93 Q1487.74 1308.93 1491.31 1309.62 Q1494.92 1310.31 1498.81 1311.7 Z" fill="#000000" fill-rule="nonzero" fill-opacity="1" /><path clip-path="url(#clip490)" d="M1624.74 1316.33 Q1617.51 1316.33 1613.86 1323.46 Q1610.25 1330.55 1610.25 1344.81 Q1610.25 1359.02 1613.86 1366.15 Q1617.51 1373.23 1624.74 1373.23 Q1632 1373.23 1635.62 1366.15 Q1639.27 1359.02 1639.27 1344.81 Q1639.27 1330.55 1635.62 1323.46 Q1632 1316.33 1624.74 1316.33 M1624.74 1308.93 Q1636.36 1308.93 1642.47 1318.14 Q1648.62 1327.31 1648.62 1344.81 Q1648.62 1362.26 1642.47 1371.47 Q1636.36 1380.64 1624.74 1380.64 Q1613.12 1380.64 1606.96 1371.47 Q1600.85 1362.26 1600.85 1344.81 Q1600.85 1327.31 1606.96 1318.14 Q1613.12 1308.93 1624.74 1308.93 Z" fill="#000000" fill-rule="nonzero" fill-opacity="1" /><path clip-path="url(#clip490)" d="M1665.06 1367.54 L1674.83 1367.54 L1674.83 1379.3 L1665.06 1379.3 L1665.06 1367.54 Z" fill="#000000" fill-rule="nonzero" fill-opacity="1" /><path clip-path="url(#clip490)" d="M1715.2 1346.47 Q1708.53 1346.47 1704.69 1350.04 Q1700.89 1353.6 1700.89 1359.85 Q1700.89 1366.1 1704.69 1369.67 Q1708.53 1373.23 1715.2 1373.23 Q1721.87 1373.23 1725.71 1369.67 Q1729.55 1366.06 1729.55 1359.85 Q1729.55 1353.6 1725.71 1350.04 Q1721.91 1346.47 1715.2 1346.47 M1705.85 1342.49 Q1699.83 1341.01 1696.45 1336.89 Q1693.12 1332.77 1693.12 1326.84 Q1693.12 1318.56 1698.99 1313.74 Q1704.92 1308.93 1715.2 1308.93 Q1725.52 1308.93 1731.4 1313.74 Q1737.28 1318.56 1737.28 1326.84 Q1737.28 1332.77 1733.9 1336.89 Q1730.57 1341.01 1724.6 1342.49 Q1731.36 1344.06 1735.11 1348.65 Q1738.9 1353.23 1738.9 1359.85 Q1738.9 1369.9 1732.74 1375.27 Q1726.63 1380.64 1715.2 1380.64 Q1703.76 1380.64 1697.61 1375.27 Q1691.49 1369.9 1691.49 1359.85 Q1691.49 1353.23 1695.29 1348.65 Q1699.09 1344.06 1705.85 1342.49 M1702.42 1327.72 Q1702.42 1333.09 1705.75 1336.1 Q1709.13 1339.11 1715.2 1339.11 Q1721.22 1339.11 1724.6 1336.1 Q1728.02 1333.09 1728.02 1327.72 Q1728.02 1322.35 1724.6 1319.34 Q1721.22 1316.33 1715.2 1316.33 Q1709.13 1316.33 1705.75 1319.34 Q1702.42 1322.35 1702.42 1327.72 Z" fill="#000000" fill-rule="nonzero" fill-opacity="1" /><path clip-path="url(#clip490)" d="M1840.04 1371.43 L1855.32 1371.43 L1855.32 1318.69 L1838.7 1322.03 L1838.7 1313.51 L1855.22 1310.18 L1864.58 1310.18 L1864.58 1371.43 L1879.85 1371.43 L1879.85 1379.3 L1840.04 1379.3 L1840.04 1371.43 Z" fill="#000000" fill-rule="nonzero" fill-opacity="1" /><path clip-path="url(#clip490)" d="M1898.74 1367.54 L1908.51 1367.54 L1908.51 1379.3 L1898.74 1379.3 L1898.74 1367.54 Z" fill="#000000" fill-rule="nonzero" fill-opacity="1" /><path clip-path="url(#clip490)" d="M1948.88 1316.33 Q1941.66 1316.33 1938 1323.46 Q1934.39 1330.55 1934.39 1344.81 Q1934.39 1359.02 1938 1366.15 Q1941.66 1373.23 1948.88 1373.23 Q1956.15 1373.23 1959.76 1366.15 Q1963.42 1359.02 1963.42 1344.81 Q1963.42 1330.55 1959.76 1323.46 Q1956.15 1316.33 1948.88 1316.33 M1948.88 1308.93 Q1960.5 1308.93 1966.61 1318.14 Q1972.77 1327.31 1972.77 1344.81 Q1972.77 1362.26 1966.61 1371.47 Q1960.5 1380.64 1948.88 1380.64 Q1937.26 1380.64 1931.1 1371.47 Q1924.99 1362.26 1924.99 1344.81 Q1924.99 1327.31 1931.1 1318.14 Q1937.26 1308.93 1948.88 1308.93 Z" fill="#000000" fill-rule="nonzero" fill-opacity="1" /><path clip-path="url(#clip490)" d="M2077.49 1371.43 L2092.77 1371.43 L2092.77 1318.69 L2076.15 1322.03 L2076.15 1313.51 L2092.68 1310.18 L2102.03 1310.18 L2102.03 1371.43 L2117.31 1371.43 L2117.31 1379.3 L2077.49 1379.3 L2077.49 1371.43 Z" fill="#000000" fill-rule="nonzero" fill-opacity="1" /><path clip-path="url(#clip490)" d="M2136.2 1367.54 L2145.97 1367.54 L2145.97 1379.3 L2136.2 1379.3 L2136.2 1367.54 Z" fill="#000000" fill-rule="nonzero" fill-opacity="1" /><path clip-path="url(#clip490)" d="M2174.39 1371.43 L2207.03 1371.43 L2207.03 1379.3 L2163.14 1379.3 L2163.14 1371.43 Q2168.47 1365.92 2177.63 1356.66 Q2186.84 1347.35 2189.21 1344.67 Q2193.7 1339.62 2195.46 1336.15 Q2197.26 1332.63 2197.26 1329.25 Q2197.26 1323.74 2193.37 1320.27 Q2189.53 1316.8 2183.33 1316.8 Q2178.93 1316.8 2174.02 1318.32 Q2169.16 1319.85 2163.6 1322.95 L2163.6 1313.51 Q2169.25 1311.24 2174.16 1310.08 Q2179.07 1308.93 2183.14 1308.93 Q2193.88 1308.93 2200.27 1314.3 Q2206.66 1319.67 2206.66 1328.65 Q2206.66 1332.91 2205.04 1336.75 Q2203.47 1340.55 2199.25 1345.73 Q2198.09 1347.07 2191.89 1353.51 Q2185.69 1359.9 2174.39 1371.43 Z" fill="#000000" fill-rule="nonzero" fill-opacity="1" /><path clip-path="url(#clip490)" d="M1378.53 1484.39 L1378.53 1527.42 L1366.81 1527.42 L1366.81 1484.77 Q1366.81 1474.65 1362.87 1469.62 Q1358.92 1464.59 1351.03 1464.59 Q1341.54 1464.59 1336.07 1470.64 Q1330.59 1476.69 1330.59 1487.13 L1330.59 1527.42 L1318.82 1527.42 L1318.82 1428.37 L1330.59 1428.37 L1330.59 1467.2 Q1334.79 1460.77 1340.46 1457.59 Q1346.19 1454.41 1353.64 1454.41 Q1365.92 1454.41 1372.22 1462.05 Q1378.53 1469.62 1378.53 1484.39 Z" fill="#000000" fill-rule="nonzero" fill-opacity="1" /><path clip-path="url(#clip490)" d="M1429.51 1464.34 Q1420.09 1464.34 1414.62 1471.72 Q1409.14 1479.04 1409.14 1491.84 Q1409.14 1504.63 1414.56 1512.02 Q1420.03 1519.34 1429.51 1519.34 Q1438.87 1519.34 1444.35 1511.96 Q1449.82 1504.57 1449.82 1491.84 Q1449.82 1479.17 1444.35 1471.79 Q1438.87 1464.34 1429.51 1464.34 M1429.51 1454.41 Q1444.79 1454.41 1453.51 1464.34 Q1462.23 1474.27 1462.23 1491.84 Q1462.23 1509.35 1453.51 1519.34 Q1444.79 1529.27 1429.51 1529.27 Q1414.17 1529.27 1405.45 1519.34 Q1396.8 1509.35 1396.8 1491.84 Q1396.8 1474.27 1405.45 1464.34 Q1414.17 1454.41 1429.51 1454.41 Z" fill="#000000" fill-rule="nonzero" fill-opacity="1" /><path clip-path="url(#clip490)" d="M1480.44 1499.29 L1480.44 1456.13 L1492.15 1456.13 L1492.15 1498.84 Q1492.15 1508.96 1496.1 1514.06 Q1500.05 1519.08 1507.94 1519.08 Q1517.43 1519.08 1522.9 1513.04 Q1528.44 1506.99 1528.44 1496.55 L1528.44 1456.13 L1540.15 1456.13 L1540.15 1527.42 L1528.44 1527.42 L1528.44 1516.47 Q1524.17 1522.97 1518.51 1526.15 Q1512.91 1529.27 1505.46 1529.27 Q1493.17 1529.27 1486.81 1521.63 Q1480.44 1513.99 1480.44 1499.29 M1509.91 1454.41 L1509.91 1454.41 Z" fill="#000000" fill-rule="nonzero" fill-opacity="1" /><path clip-path="url(#clip490)" d="M1605.59 1467.08 Q1603.62 1465.93 1601.26 1465.42 Q1598.97 1464.85 1596.17 1464.85 Q1586.24 1464.85 1580.89 1471.34 Q1575.61 1477.77 1575.61 1489.87 L1575.61 1527.42 L1563.83 1527.42 L1563.83 1456.13 L1575.61 1456.13 L1575.61 1467.2 Q1579.3 1460.71 1585.22 1457.59 Q1591.14 1454.41 1599.61 1454.41 Q1600.82 1454.41 1602.28 1454.6 Q1603.74 1454.73 1605.53 1455.05 L1605.59 1467.08 Z" fill="#000000" fill-rule="nonzero" fill-opacity="1" /><path clip-path="url(#clip490)" d="M1663.33 1458.23 L1663.33 1469.3 Q1658.36 1466.76 1653.01 1465.49 Q1647.67 1464.21 1641.94 1464.21 Q1633.22 1464.21 1628.83 1466.89 Q1624.5 1469.56 1624.5 1474.91 Q1624.5 1478.98 1627.62 1481.34 Q1630.73 1483.63 1640.16 1485.73 L1644.17 1486.62 Q1656.64 1489.29 1661.86 1494.19 Q1667.15 1499.03 1667.15 1507.75 Q1667.15 1517.68 1659.25 1523.48 Q1651.42 1529.27 1637.67 1529.27 Q1631.94 1529.27 1625.71 1528.12 Q1619.53 1527.04 1612.66 1524.81 L1612.66 1512.72 Q1619.15 1516.09 1625.45 1517.81 Q1631.75 1519.47 1637.93 1519.47 Q1646.2 1519.47 1650.66 1516.67 Q1655.12 1513.8 1655.12 1508.64 Q1655.12 1503.87 1651.87 1501.32 Q1648.69 1498.78 1637.8 1496.42 L1633.73 1495.47 Q1622.84 1493.18 1618 1488.47 Q1613.17 1483.69 1613.17 1475.42 Q1613.17 1465.36 1620.3 1459.88 Q1627.42 1454.41 1640.54 1454.41 Q1647.03 1454.41 1652.76 1455.36 Q1658.49 1456.32 1663.33 1458.23 Z" fill="#000000" fill-rule="nonzero" fill-opacity="1" /><polyline clip-path="url(#clip492)" style="stroke:#000000; stroke-linecap:round; stroke-linejoin:round; stroke-width:4; stroke-opacity:0.1; fill:none" points="680.45,1243.63 2305.51,1243.63 "/>
<polyline clip-path="url(#clip492)" style="stroke:#000000; stroke-linecap:round; stroke-linejoin:round; stroke-width:4; stroke-opacity:0.1; fill:none" points="680.45,1002.97 2305.51,1002.97 "/>
<polyline clip-path="url(#clip492)" style="stroke:#000000; stroke-linecap:round; stroke-linejoin:round; stroke-width:4; stroke-opacity:0.1; fill:none" points="680.45,762.314 2305.51,762.314 "/>
<polyline clip-path="url(#clip492)" style="stroke:#000000; stroke-linecap:round; stroke-linejoin:round; stroke-width:4; stroke-opacity:0.1; fill:none" points="680.45,521.657 2305.51,521.657 "/>
<polyline clip-path="url(#clip492)" style="stroke:#000000; stroke-linecap:round; stroke-linejoin:round; stroke-width:4; stroke-opacity:0.1; fill:none" points="680.45,281.001 2305.51,281.001 "/>
<polyline clip-path="url(#clip490)" style="stroke:#000000; stroke-linecap:round; stroke-linejoin:round; stroke-width:8; stroke-opacity:1; fill:none" points="680.45,1273.7 680.45,94.4882 "/>
<polyline clip-path="url(#clip490)" style="stroke:#000000; stroke-linecap:round; stroke-linejoin:round; stroke-width:8; stroke-opacity:1; fill:none" points="680.45,1243.63 699.348,1243.63 "/>
<polyline clip-path="url(#clip490)" style="stroke:#000000; stroke-linecap:round; stroke-linejoin:round; stroke-width:8; stroke-opacity:1; fill:none" points="680.45,1002.97 699.348,1002.97 "/>
<polyline clip-path="url(#clip490)" style="stroke:#000000; stroke-linecap:round; stroke-linejoin:round; stroke-width:8; stroke-opacity:1; fill:none" points="680.45,762.314 699.348,762.314 "/>
<polyline clip-path="url(#clip490)" style="stroke:#000000; stroke-linecap:round; stroke-linejoin:round; stroke-width:8; stroke-opacity:1; fill:none" points="680.45,521.657 699.348,521.657 "/>
<polyline clip-path="url(#clip490)" style="stroke:#000000; stroke-linecap:round; stroke-linejoin:round; stroke-width:8; stroke-opacity:1; fill:none" points="680.45,281.001 699.348,281.001 "/>
<path clip-path="url(#clip490)" d="M391.072 1270.32 L406.35 1270.32 L406.35 1217.59 L389.73 1220.92 L389.73 1212.4 L406.257 1209.07 L415.609 1209.07 L415.609 1270.32 L430.887 1270.32 L430.887 1278.19 L391.072 1278.19 L391.072 1270.32 Z" fill="#000000" fill-rule="nonzero" fill-opacity="1" /><path clip-path="url(#clip490)" d="M475.47 1217.22 L451.859 1254.11 L475.47 1254.11 L475.47 1217.22 M473.016 1209.07 L484.775 1209.07 L484.775 1254.11 L494.636 1254.11 L494.636 1261.89 L484.775 1261.89 L484.775 1278.19 L475.47 1278.19 L475.47 1261.89 L444.266 1261.89 L444.266 1252.86 L473.016 1209.07 Z" fill="#000000" fill-rule="nonzero" fill-opacity="1" /><path clip-path="url(#clip490)" d="M530.099 1215.22 Q522.877 1215.22 519.22 1222.35 Q515.608 1229.44 515.608 1243.7 Q515.608 1257.91 519.22 1265.04 Q522.877 1272.12 530.099 1272.12 Q537.368 1272.12 540.979 1265.04 Q544.636 1257.91 544.636 1243.7 Q544.636 1229.44 540.979 1222.35 Q537.368 1215.22 530.099 1215.22 M530.099 1207.82 Q541.719 1207.82 547.831 1217.03 Q553.988 1226.2 553.988 1243.7 Q553.988 1261.15 547.831 1270.36 Q541.719 1279.53 530.099 1279.53 Q518.479 1279.53 512.321 1270.36 Q506.21 1261.15 506.21 1243.7 Q506.21 1226.2 512.321 1217.03 Q518.479 1207.82 530.099 1207.82 Z" fill="#000000" fill-rule="nonzero" fill-opacity="1" /><path clip-path="url(#clip490)" d="M570.423 1266.43 L580.191 1266.43 L580.191 1278.19 L570.423 1278.19 L570.423 1266.43 Z" fill="#000000" fill-rule="nonzero" fill-opacity="1" /><path clip-path="url(#clip490)" d="M620.562 1215.22 Q613.339 1215.22 609.682 1222.35 Q606.071 1229.44 606.071 1243.7 Q606.071 1257.91 609.682 1265.04 Q613.339 1272.12 620.562 1272.12 Q627.83 1272.12 631.441 1265.04 Q635.099 1257.91 635.099 1243.7 Q635.099 1229.44 631.441 1222.35 Q627.83 1215.22 620.562 1215.22 M620.562 1207.82 Q632.182 1207.82 638.293 1217.03 Q644.45 1226.2 644.45 1243.7 Q644.45 1261.15 638.293 1270.36 Q632.182 1279.53 620.562 1279.53 Q608.941 1279.53 602.784 1270.36 Q596.673 1261.15 596.673 1243.7 Q596.673 1226.2 602.784 1217.03 Q608.941 1207.82 620.562 1207.82 Z" fill="#000000" fill-rule="nonzero" fill-opacity="1" /><path clip-path="url(#clip490)" d="M391.072 1029.66 L406.35 1029.66 L406.35 976.929 L389.73 980.262 L389.73 971.744 L406.257 968.41 L415.609 968.41 L415.609 1029.66 L430.887 1029.66 L430.887 1037.53 L391.072 1037.53 L391.072 1029.66 Z" fill="#000000" fill-rule="nonzero" fill-opacity="1" /><path clip-path="url(#clip490)" d="M470.933 999.244 Q464.637 999.244 460.933 1003.55 Q457.275 1007.85 457.275 1015.35 Q457.275 1022.81 460.933 1027.16 Q464.637 1031.47 470.933 1031.47 Q477.229 1031.47 480.886 1027.16 Q484.59 1022.81 484.59 1015.35 Q484.59 1007.85 480.886 1003.55 Q477.229 999.244 470.933 999.244 M489.498 969.938 L489.498 978.457 Q485.979 976.79 482.368 975.91 Q478.803 975.031 475.285 975.031 Q466.025 975.031 461.118 981.281 Q456.257 987.531 455.562 1000.17 Q458.294 996.142 462.414 994.012 Q466.535 991.836 471.488 991.836 Q481.905 991.836 487.923 998.179 Q493.988 1004.47 493.988 1015.35 Q493.988 1026 487.692 1032.44 Q481.396 1038.87 470.933 1038.87 Q458.942 1038.87 452.6 1029.71 Q446.257 1020.49 446.257 1003.04 Q446.257 986.651 454.035 976.929 Q461.812 967.16 474.914 967.16 Q478.433 967.16 481.998 967.855 Q485.609 968.549 489.498 969.938 Z" fill="#000000" fill-rule="nonzero" fill-opacity="1" /><path clip-path="url(#clip490)" d="M530.099 974.568 Q522.877 974.568 519.22 981.697 Q515.608 988.781 515.608 1003.04 Q515.608 1017.25 519.22 1024.38 Q522.877 1031.47 530.099 1031.47 Q537.368 1031.47 540.979 1024.38 Q544.636 1017.25 544.636 1003.04 Q544.636 988.781 540.979 981.697 Q537.368 974.568 530.099 974.568 M530.099 967.16 Q541.719 967.16 547.831 976.373 Q553.988 985.54 553.988 1003.04 Q553.988 1020.49 547.831 1029.71 Q541.719 1038.87 530.099 1038.87 Q518.479 1038.87 512.321 1029.71 Q506.21 1020.49 506.21 1003.04 Q506.21 985.54 512.321 976.373 Q518.479 967.16 530.099 967.16 Z" fill="#000000" fill-rule="nonzero" fill-opacity="1" /><path clip-path="url(#clip490)" d="M570.423 1025.77 L580.191 1025.77 L580.191 1037.53 L570.423 1037.53 L570.423 1025.77 Z" fill="#000000" fill-rule="nonzero" fill-opacity="1" /><path clip-path="url(#clip490)" d="M620.562 974.568 Q613.339 974.568 609.682 981.697 Q606.071 988.781 606.071 1003.04 Q606.071 1017.25 609.682 1024.38 Q613.339 1031.47 620.562 1031.47 Q627.83 1031.47 631.441 1024.38 Q635.099 1017.25 635.099 1003.04 Q635.099 988.781 631.441 981.697 Q627.83 974.568 620.562 974.568 M620.562 967.16 Q632.182 967.16 638.293 976.373 Q644.45 985.54 644.45 1003.04 Q644.45 1020.49 638.293 1029.71 Q632.182 1038.87 620.562 1038.87 Q608.941 1038.87 602.784 1029.71 Q596.673 1020.49 596.673 1003.04 Q596.673 985.54 602.784 976.373 Q608.941 967.16 620.562 967.16 Z" fill="#000000" fill-rule="nonzero" fill-opacity="1" /><path clip-path="url(#clip490)" d="M391.072 789.003 L406.35 789.003 L406.35 736.272 L389.73 739.606 L389.73 731.087 L406.257 727.754 L415.609 727.754 L415.609 789.003 L430.887 789.003 L430.887 796.874 L391.072 796.874 L391.072 789.003 Z" fill="#000000" fill-rule="nonzero" fill-opacity="1" /><path clip-path="url(#clip490)" d="M469.775 764.05 Q463.109 764.05 459.266 767.615 Q455.47 771.179 455.47 777.429 Q455.47 783.679 459.266 787.244 Q463.109 790.809 469.775 790.809 Q476.442 790.809 480.285 787.244 Q484.127 783.633 484.127 777.429 Q484.127 771.179 480.285 767.615 Q476.488 764.05 469.775 764.05 M460.424 760.068 Q454.405 758.587 451.025 754.467 Q447.692 750.346 447.692 744.42 Q447.692 736.133 453.572 731.319 Q459.498 726.504 469.775 726.504 Q480.099 726.504 485.979 731.319 Q491.859 736.133 491.859 744.42 Q491.859 750.346 488.479 754.467 Q485.146 758.587 479.173 760.068 Q485.933 761.642 489.683 766.226 Q493.479 770.809 493.479 777.429 Q493.479 787.476 487.322 792.846 Q481.211 798.216 469.775 798.216 Q458.34 798.216 452.183 792.846 Q446.072 787.476 446.072 777.429 Q446.072 770.809 449.868 766.226 Q453.664 761.642 460.424 760.068 M456.998 745.3 Q456.998 750.67 460.331 753.68 Q463.711 756.689 469.775 756.689 Q475.794 756.689 479.173 753.68 Q482.599 750.67 482.599 745.3 Q482.599 739.93 479.173 736.92 Q475.794 733.911 469.775 733.911 Q463.711 733.911 460.331 736.92 Q456.998 739.93 456.998 745.3 Z" fill="#000000" fill-rule="nonzero" fill-opacity="1" /><path clip-path="url(#clip490)" d="M530.099 733.911 Q522.877 733.911 519.22 741.041 Q515.608 748.124 515.608 762.383 Q515.608 776.596 519.22 783.726 Q522.877 790.809 530.099 790.809 Q537.368 790.809 540.979 783.726 Q544.636 776.596 544.636 762.383 Q544.636 748.124 540.979 741.041 Q537.368 733.911 530.099 733.911 M530.099 726.504 Q541.719 726.504 547.831 735.717 Q553.988 744.883 553.988 762.383 Q553.988 779.837 547.831 789.05 Q541.719 798.216 530.099 798.216 Q518.479 798.216 512.321 789.05 Q506.21 779.837 506.21 762.383 Q506.21 744.883 512.321 735.717 Q518.479 726.504 530.099 726.504 Z" fill="#000000" fill-rule="nonzero" fill-opacity="1" /><path clip-path="url(#clip490)" d="M570.423 785.115 L580.191 785.115 L580.191 796.874 L570.423 796.874 L570.423 785.115 Z" fill="#000000" fill-rule="nonzero" fill-opacity="1" /><path clip-path="url(#clip490)" d="M620.562 733.911 Q613.339 733.911 609.682 741.041 Q606.071 748.124 606.071 762.383 Q606.071 776.596 609.682 783.726 Q613.339 790.809 620.562 790.809 Q627.83 790.809 631.441 783.726 Q635.099 776.596 635.099 762.383 Q635.099 748.124 631.441 741.041 Q627.83 733.911 620.562 733.911 M620.562 726.504 Q632.182 726.504 638.293 735.717 Q644.45 744.883 644.45 762.383 Q644.45 779.837 638.293 789.05 Q632.182 798.216 620.562 798.216 Q608.941 798.216 602.784 789.05 Q596.673 779.837 596.673 762.383 Q596.673 744.883 602.784 735.717 Q608.941 726.504 620.562 726.504 Z" fill="#000000" fill-rule="nonzero" fill-opacity="1" /><path clip-path="url(#clip490)" d="M397.507 548.347 L430.146 548.347 L430.146 556.217 L386.257 556.217 L386.257 548.347 Q391.581 542.838 400.748 533.578 Q409.961 524.273 412.322 521.588 Q416.813 516.541 418.572 513.069 Q420.378 509.551 420.378 506.171 Q420.378 500.662 416.489 497.19 Q412.646 493.717 406.442 493.717 Q402.044 493.717 397.137 495.245 Q392.276 496.773 386.72 499.875 L386.72 490.43 Q392.368 488.162 397.276 487.005 Q402.183 485.847 406.257 485.847 Q416.998 485.847 423.387 491.218 Q429.776 496.588 429.776 505.569 Q429.776 509.829 428.155 513.671 Q426.581 517.467 422.368 522.653 Q421.211 523.995 415.007 530.43 Q408.803 536.819 397.507 548.347 Z" fill="#000000" fill-rule="nonzero" fill-opacity="1" /><path clip-path="url(#clip490)" d="M469.775 493.255 Q462.553 493.255 458.896 500.384 Q455.285 507.467 455.285 521.727 Q455.285 535.939 458.896 543.069 Q462.553 550.152 469.775 550.152 Q477.044 550.152 480.655 543.069 Q484.312 535.939 484.312 521.727 Q484.312 507.467 480.655 500.384 Q477.044 493.255 469.775 493.255 M469.775 485.847 Q481.396 485.847 487.507 495.06 Q493.664 504.227 493.664 521.727 Q493.664 539.18 487.507 548.393 Q481.396 557.56 469.775 557.56 Q458.155 557.56 451.998 548.393 Q445.887 539.18 445.887 521.727 Q445.887 504.227 451.998 495.06 Q458.155 485.847 469.775 485.847 Z" fill="#000000" fill-rule="nonzero" fill-opacity="1" /><path clip-path="url(#clip490)" d="M530.099 493.255 Q522.877 493.255 519.22 500.384 Q515.608 507.467 515.608 521.727 Q515.608 535.939 519.22 543.069 Q522.877 550.152 530.099 550.152 Q537.368 550.152 540.979 543.069 Q544.636 535.939 544.636 521.727 Q544.636 507.467 540.979 500.384 Q537.368 493.255 530.099 493.255 M530.099 485.847 Q541.719 485.847 547.831 495.06 Q553.988 504.227 553.988 521.727 Q553.988 539.18 547.831 548.393 Q541.719 557.56 530.099 557.56 Q518.479 557.56 512.321 548.393 Q506.21 539.18 506.21 521.727 Q506.21 504.227 512.321 495.06 Q518.479 485.847 530.099 485.847 Z" fill="#000000" fill-rule="nonzero" fill-opacity="1" /><path clip-path="url(#clip490)" d="M570.423 544.458 L580.191 544.458 L580.191 556.217 L570.423 556.217 L570.423 544.458 Z" fill="#000000" fill-rule="nonzero" fill-opacity="1" /><path clip-path="url(#clip490)" d="M620.562 493.255 Q613.339 493.255 609.682 500.384 Q606.071 507.467 606.071 521.727 Q606.071 535.939 609.682 543.069 Q613.339 550.152 620.562 550.152 Q627.83 550.152 631.441 543.069 Q635.099 535.939 635.099 521.727 Q635.099 507.467 631.441 500.384 Q627.83 493.255 620.562 493.255 M620.562 485.847 Q632.182 485.847 638.293 495.06 Q644.45 504.227 644.45 521.727 Q644.45 539.18 638.293 548.393 Q632.182 557.56 620.562 557.56 Q608.941 557.56 602.784 548.393 Q596.673 539.18 596.673 521.727 Q596.673 504.227 602.784 495.06 Q608.941 485.847 620.562 485.847 Z" fill="#000000" fill-rule="nonzero" fill-opacity="1" /><path clip-path="url(#clip490)" d="M397.507 307.69 L430.146 307.69 L430.146 315.561 L386.257 315.561 L386.257 307.69 Q391.581 302.181 400.748 292.922 Q409.961 283.616 412.322 280.931 Q416.813 275.885 418.572 272.413 Q420.378 268.894 420.378 265.515 Q420.378 260.005 416.489 256.533 Q412.646 253.061 406.442 253.061 Q402.044 253.061 397.137 254.589 Q392.276 256.116 386.72 259.218 L386.72 249.774 Q392.368 247.505 397.276 246.348 Q402.183 245.191 406.257 245.191 Q416.998 245.191 423.387 250.561 Q429.776 255.931 429.776 264.913 Q429.776 269.172 428.155 273.014 Q426.581 276.811 422.368 281.996 Q421.211 283.339 415.007 289.774 Q408.803 296.163 397.507 307.69 Z" fill="#000000" fill-rule="nonzero" fill-opacity="1" /><path clip-path="url(#clip490)" d="M457.831 307.69 L490.47 307.69 L490.47 315.561 L446.581 315.561 L446.581 307.69 Q451.905 302.181 461.072 292.922 Q470.285 283.616 472.646 280.931 Q477.136 275.885 478.896 272.413 Q480.701 268.894 480.701 265.515 Q480.701 260.005 476.812 256.533 Q472.97 253.061 466.766 253.061 Q462.368 253.061 457.461 254.589 Q452.6 256.116 447.044 259.218 L447.044 249.774 Q452.692 247.505 457.6 246.348 Q462.507 245.191 466.581 245.191 Q477.322 245.191 483.71 250.561 Q490.099 255.931 490.099 264.913 Q490.099 269.172 488.479 273.014 Q486.905 276.811 482.692 281.996 Q481.535 283.339 475.331 289.774 Q469.127 296.163 457.831 307.69 Z" fill="#000000" fill-rule="nonzero" fill-opacity="1" /><path clip-path="url(#clip490)" d="M530.099 252.598 Q522.877 252.598 519.22 259.728 Q515.608 266.811 515.608 281.07 Q515.608 295.283 519.22 302.412 Q522.877 309.496 530.099 309.496 Q537.368 309.496 540.979 302.412 Q544.636 295.283 544.636 281.07 Q544.636 266.811 540.979 259.728 Q537.368 252.598 530.099 252.598 M530.099 245.191 Q541.719 245.191 547.831 254.403 Q553.988 263.57 553.988 281.07 Q553.988 298.524 547.831 307.737 Q541.719 316.903 530.099 316.903 Q518.479 316.903 512.321 307.737 Q506.21 298.524 506.21 281.07 Q506.21 263.57 512.321 254.403 Q518.479 245.191 530.099 245.191 Z" fill="#000000" fill-rule="nonzero" fill-opacity="1" /><path clip-path="url(#clip490)" d="M570.423 303.801 L580.191 303.801 L580.191 315.561 L570.423 315.561 L570.423 303.801 Z" fill="#000000" fill-rule="nonzero" fill-opacity="1" /><path clip-path="url(#clip490)" d="M620.562 252.598 Q613.339 252.598 609.682 259.728 Q606.071 266.811 606.071 281.07 Q606.071 295.283 609.682 302.412 Q613.339 309.496 620.562 309.496 Q627.83 309.496 631.441 302.412 Q635.099 295.283 635.099 281.07 Q635.099 266.811 631.441 259.728 Q627.83 252.598 620.562 252.598 M620.562 245.191 Q632.182 245.191 638.293 254.403 Q644.45 263.57 644.45 281.07 Q644.45 298.524 638.293 307.737 Q632.182 316.903 620.562 316.903 Q608.941 316.903 602.784 307.737 Q596.673 298.524 596.673 281.07 Q596.673 263.57 602.784 254.403 Q608.941 245.191 620.562 245.191 Z" fill="#000000" fill-rule="nonzero" fill-opacity="1" /><path clip-path="url(#clip490)" d="M311.051 933.755 L348.863 933.755 L348.863 945.532 L250.449 945.532 L250.449 933.755 L261.271 933.755 Q254.905 930.063 251.85 924.461 Q248.731 918.796 248.731 910.966 Q248.731 897.98 259.043 889.895 Q269.356 881.747 286.161 881.747 Q302.966 881.747 313.279 889.895 Q323.591 897.98 323.591 910.966 Q323.591 918.796 320.536 924.461 Q317.417 930.063 311.051 933.755 M286.161 893.906 Q273.239 893.906 265.918 899.253 Q258.534 904.536 258.534 913.83 Q258.534 923.124 265.918 928.471 Q273.239 933.755 286.161 933.755 Q299.083 933.755 306.468 928.471 Q313.788 923.124 313.788 913.83 Q313.788 904.536 306.468 899.253 Q299.083 893.906 286.161 893.906 Z" fill="#000000" fill-rule="nonzero" fill-opacity="1" /><path clip-path="url(#clip490)" d="M285.906 829.93 Q285.906 844.126 289.153 849.6 Q292.399 855.075 300.229 855.075 Q306.468 855.075 310.16 851.001 Q313.788 846.863 313.788 839.797 Q313.788 830.058 306.913 824.201 Q299.975 818.281 288.516 818.281 L285.906 818.281 L285.906 829.93 M281.068 806.568 L321.745 806.568 L321.745 818.281 L310.924 818.281 Q317.417 822.291 320.536 828.275 Q323.591 834.259 323.591 842.916 Q323.591 853.865 317.48 860.358 Q311.306 866.788 300.993 866.788 Q288.962 866.788 282.851 858.767 Q276.74 850.683 276.74 834.705 L276.74 818.281 L275.594 818.281 Q267.509 818.281 263.117 823.628 Q258.661 828.912 258.661 838.524 Q258.661 844.635 260.125 850.428 Q261.589 856.221 264.518 861.568 L253.696 861.568 Q251.213 855.139 250.004 849.091 Q248.731 843.044 248.731 837.315 Q248.731 821.846 256.751 814.207 Q264.772 806.568 281.068 806.568 Z" fill="#000000" fill-rule="nonzero" fill-opacity="1" /><path clip-path="url(#clip490)" d="M261.398 741.129 Q260.253 743.102 259.743 745.457 Q259.17 747.749 259.17 750.55 Q259.17 760.48 265.663 765.828 Q272.093 771.111 284.188 771.111 L321.745 771.111 L321.745 782.888 L250.449 782.888 L250.449 771.111 L261.526 771.111 Q255.033 767.419 251.914 761.499 Q248.731 755.579 248.731 747.112 Q248.731 745.903 248.922 744.439 Q249.049 742.975 249.367 741.192 L261.398 741.129 Z" fill="#000000" fill-rule="nonzero" fill-opacity="1" /><path clip-path="url(#clip490)" d="M283.169 670.724 L288.898 670.724 L288.898 724.578 Q300.993 723.814 307.359 717.321 Q313.661 710.764 313.661 699.115 Q313.661 692.367 312.006 686.065 Q310.351 679.7 307.041 673.461 L318.117 673.461 Q320.79 679.763 322.191 686.384 Q323.591 693.004 323.591 699.815 Q323.591 716.875 313.661 726.87 Q303.73 736.8 286.798 736.8 Q269.292 736.8 259.043 727.379 Q248.731 717.894 248.731 701.852 Q248.731 687.466 258.025 679.127 Q267.255 670.724 283.169 670.724 M279.732 682.437 Q270.119 682.564 264.39 687.848 Q258.661 693.068 258.661 701.725 Q258.661 711.528 264.199 717.448 Q269.737 723.305 279.795 724.196 L279.732 682.437 Z" fill="#000000" fill-rule="nonzero" fill-opacity="1" /><path clip-path="url(#clip490)" d="M278.713 592.235 L321.745 592.235 L321.745 603.948 L279.095 603.948 Q268.974 603.948 263.945 607.894 Q258.916 611.841 258.916 619.735 Q258.916 629.22 264.963 634.694 Q271.011 640.169 281.45 640.169 L321.745 640.169 L321.745 651.945 L250.449 651.945 L250.449 640.169 L261.526 640.169 Q255.096 635.967 251.914 630.302 Q248.731 624.573 248.731 617.125 Q248.731 604.839 256.37 598.537 Q263.945 592.235 278.713 592.235 Z" fill="#000000" fill-rule="nonzero" fill-opacity="1" /><path clip-path="url(#clip490)" d="M305.576 567.218 L305.576 553.786 L321.745 553.786 L321.745 567.218 L305.576 567.218 Z" fill="#000000" fill-rule="nonzero" fill-opacity="1" /><path clip-path="url(#clip490)" d="M237.909 449.006 L288.644 481.472 L288.644 449.006 L237.909 449.006 M226.705 452.38 L226.705 436.211 L288.644 436.211 L288.644 422.652 L299.338 422.652 L299.338 436.211 L321.745 436.211 L321.745 449.006 L299.338 449.006 L299.338 491.911 L286.925 491.911 L226.705 452.38 Z" fill="#000000" fill-rule="nonzero" fill-opacity="1" /><polyline clip-path="url(#clip492)" style="stroke:#008000; stroke-linecap:round; stroke-linejoin:round; stroke-width:8; stroke-opacity:1; fill:none" points="726.443,203.747 844.372,402.282 962.301,344.978 1080.23,475.092 1198.16,591.034 1316.09,500.977 1434.02,739.289 1551.95,855.716 1669.87,946.509 1787.8,1049.45 1905.73,1067.03 2023.66,1215.61 2141.59,1129.98 2259.52,1240.32 "/>
<circle clip-path="url(#clip492)" cx="726.443" cy="203.747" r="14.4" fill="#008000" fill-rule="evenodd" fill-opacity="1" stroke="#000000" stroke-opacity="1" stroke-width="6.4"/>
<circle clip-path="url(#clip492)" cx="844.372" cy="402.282" r="14.4" fill="#008000" fill-rule="evenodd" fill-opacity="1" stroke="#000000" stroke-opacity="1" stroke-width="6.4"/>
<circle clip-path="url(#clip492)" cx="962.301" cy="344.978" r="14.4" fill="#008000" fill-rule="evenodd" fill-opacity="1" stroke="#000000" stroke-opacity="1" stroke-width="6.4"/>
<circle clip-path="url(#clip492)" cx="1080.23" cy="475.092" r="14.4" fill="#008000" fill-rule="evenodd" fill-opacity="1" stroke="#000000" stroke-opacity="1" stroke-width="6.4"/>
<circle clip-path="url(#clip492)" cx="1198.16" cy="591.034" r="14.4" fill="#008000" fill-rule="evenodd" fill-opacity="1" stroke="#000000" stroke-opacity="1" stroke-width="6.4"/>
<circle clip-path="url(#clip492)" cx="1316.09" cy="500.977" r="14.4" fill="#008000" fill-rule="evenodd" fill-opacity="1" stroke="#000000" stroke-opacity="1" stroke-width="6.4"/>
<circle clip-path="url(#clip492)" cx="1434.02" cy="739.289" r="14.4" fill="#008000" fill-rule="evenodd" fill-opacity="1" stroke="#000000" stroke-opacity="1" stroke-width="6.4"/>
<circle clip-path="url(#clip492)" cx="1551.95" cy="855.716" r="14.4" fill="#008000" fill-rule="evenodd" fill-opacity="1" stroke="#000000" stroke-opacity="1" stroke-width="6.4"/>
<circle clip-path="url(#clip492)" cx="1669.87" cy="946.509" r="14.4" fill="#008000" fill-rule="evenodd" fill-opacity="1" stroke="#000000" stroke-opacity="1" stroke-width="6.4"/>
<circle clip-path="url(#clip492)" cx="1787.8" cy="1049.45" r="14.4" fill="#008000" fill-rule="evenodd" fill-opacity="1" stroke="#000000" stroke-opacity="1" stroke-width="6.4"/>
<circle clip-path="url(#clip492)" cx="1905.73" cy="1067.03" r="14.4" fill="#008000" fill-rule="evenodd" fill-opacity="1" stroke="#000000" stroke-opacity="1" stroke-width="6.4"/>
<circle clip-path="url(#clip492)" cx="2023.66" cy="1215.61" r="14.4" fill="#008000" fill-rule="evenodd" fill-opacity="1" stroke="#000000" stroke-opacity="1" stroke-width="6.4"/>
<circle clip-path="url(#clip492)" cx="2141.59" cy="1129.98" r="14.4" fill="#008000" fill-rule="evenodd" fill-opacity="1" stroke="#000000" stroke-opacity="1" stroke-width="6.4"/>
<circle clip-path="url(#clip492)" cx="2259.52" cy="1240.32" r="14.4" fill="#008000" fill-rule="evenodd" fill-opacity="1" stroke="#000000" stroke-opacity="1" stroke-width="6.4"/>
<polyline clip-path="url(#clip492)" style="stroke:#00008b; stroke-linecap:round; stroke-linejoin:round; stroke-width:8; stroke-opacity:1; fill:none" points="726.443,177.932 844.372,275.353 962.301,371.072 1080.23,473.116 1198.16,565.257 1316.09,656.455 1434.02,737.805 1551.95,816.905 1669.87,884.639 1787.8,947.862 1905.73,1011.26 2023.66,1071.55 2141.59,1126.11 2259.52,1184.94 "/>
<path clip-path="url(#clip492)" d="M726.443 225.959 L844.372 323.475 L962.301 419.326 L1080.23 523.803 L1198.16 615.809 L1316.09 703.988 L1434.02 789.433 L1551.95 864.793 L1669.87 935.034 L1787.8 996.993 L1905.73 1059.79 L2023.66 1123.4 L2141.59 1174.97 L2259.52 1236.38 L2259.52 1132.88 L2141.59 1071.29 L2023.66 1020.62 L1905.73 963.098 L1787.8 901.167 L1669.87 830.794 L1551.95 766.013 L1434.02 687.054 L1316.09 608.069 L1198.16 514.629 L1080.23 423.14 L962.301 320.174 L844.372 227.682 L726.443 127.862  Z" fill="#0000ff" fill-rule="evenodd" fill-opacity="0.1"/>
<polyline clip-path="url(#clip492)" style="stroke:#0000ff; stroke-linecap:round; stroke-linejoin:round; stroke-width:0; stroke-opacity:0.1; fill:none" points="726.443,225.959 844.372,323.475 962.301,419.326 1080.23,523.803 1198.16,615.809 1316.09,703.988 1434.02,789.433 1551.95,864.793 1669.87,935.034 1787.8,996.993 1905.73,1059.79 2023.66,1123.4 2141.59,1174.97 2259.52,1236.38 "/>
</svg>
