<?xml version="1.0" encoding="utf-8"?>
<svg xmlns="http://www.w3.org/2000/svg" xmlns:xlink="http://www.w3.org/1999/xlink" width="600" height="400" viewBox="0 0 2400 1600">
<defs>
  <clipPath id="clip750">
    <rect x="0" y="0" width="2400" height="1600"/>
  </clipPath>
</defs>
<path clip-path="url(#clip750)" d="M0 1600 L2400 1600 L2400 0 L0 0  Z" fill="#ffffff" fill-rule="evenodd" fill-opacity="1"/>
<defs>
  <clipPath id="clip751">
    <rect x="480" y="0" width="1681" height="1600"/>
  </clipPath>
</defs>
<path clip-path="url(#clip750)" d="M680.45 1273.7 L2305.51 1273.7 L2305.51 94.4882 L680.45 94.4882  Z" fill="#ffffff" fill-rule="evenodd" fill-opacity="1"/>
<defs>
  <clipPath id="clip752">
    <rect x="680" y="94" width="1626" height="1180"/>
  </clipPath>
</defs>
<polyline clip-path="url(#clip752)" style="stroke:#000000; stroke-linecap:round; stroke-linejoin:round; stroke-width:4; stroke-opacity:0.1; fill:none" points="726.443,1273.7 726.443,94.4882 "/>
<polyline clip-path="url(#clip752)" style="stroke:#000000; stroke-linecap:round; stroke-linejoin:round; stroke-width:4; stroke-opacity:0.1; fill:none" points="962.301,1273.7 962.301,94.4882 "/>
<polyline clip-path="url(#clip752)" style="stroke:#000000; stroke-linecap:round; stroke-linejoin:round; stroke-width:4; stroke-opacity:0.1; fill:none" points="1198.16,1273.7 1198.16,94.4882 "/>
<polyline clip-path="url(#clip752)" style="stroke:#000000; stroke-linecap:round; stroke-linejoin:round; stroke-width:4; stroke-opacity:0.1; fill:none" points="1434.02,1273.7 1434.02,94.4882 "/>
<polyline clip-path="url(#clip752)" style="stroke:#000000; stroke-linecap:round; stroke-linejoin:round; stroke-width:4; stroke-opacity:0.1; fill:none" points="1669.87,1273.7 1669.87,94.4882 "/>
<polyline clip-path="url(#clip752)" style="stroke:#000000; stroke-linecap:round; stroke-linejoin:round; stroke-width:4; stroke-opacity:0.1; fill:none" points="1905.73,1273.7 1905.73,94.4882 "/>
<polyline clip-path="url(#clip752)" style="stroke:#000000; stroke-linecap:round; stroke-linejoin:round; stroke-width:4; stroke-opacity:0.1; fill:none" points="2141.59,1273.7 2141.59,94.4882 "/>
<polyline clip-path="url(#clip750)" style="stroke:#000000; stroke-linecap:round; stroke-linejoin:round; stroke-width:8; stroke-opacity:1; fill:none" points="680.45,1273.7 2305.51,1273.7 "/>
<polyline clip-path="url(#clip750)" style="stroke:#000000; stroke-linecap:round; stroke-linejoin:round; stroke-width:8; stroke-opacity:1; fill:none" points="726.443,1273.7 726.443,1254.8 "/>
<polyline clip-path="url(#clip750)" style="stroke:#000000; stroke-linecap:round; stroke-linejoin:round; stroke-width:8; stroke-opacity:1; fill:none" points="962.301,1273.7 962.301,1254.8 "/>
<polyline clip-path="url(#clip750)" style="stroke:#000000; stroke-linecap:round; stroke-linejoin:round; stroke-width:8; stroke-opacity:1; fill:none" points="1198.16,1273.7 1198.16,1254.8 "/>
<polyline clip-path="url(#clip750)" style="stroke:#000000; stroke-linecap:round; stroke-linejoin:round; stroke-width:8; stroke-opacity:1; fill:none" points="1434.02,1273.7 1434.02,1254.8 "/>
<polyline clip-path="url(#clip750)" style="stroke:#000000; stroke-linecap:round; stroke-linejoin:round; stroke-width:8; stroke-opacity:1; fill:none" points="1669.87,1273.7 1669.87,1254.8 "/>
<polyline clip-path="url(#clip750)" style="stroke:#000000; stroke-linecap:round; stroke-linejoin:round; stroke-width:8; stroke-opacity:1; fill:none" points="1905.73,1273.7 1905.73,1254.8 "/>
<polyline clip-path="url(#clip750)" style="stroke:#000000; stroke-linecap:round; stroke-linejoin:round; stroke-width:8; stroke-opacity:1; fill:none" points="2141.59,1273.7 2141.59,1254.8 "/>
<path clip-path="url(#clip750)" d="M681.211 1316.33 Q673.989 1316.33 670.332 1323.46 Q666.721 1330.55 666.721 1344.81 Q666.721 1359.02 670.332 1366.15 Q673.989 1373.23 681.211 1373.23 Q688.48 1373.23 692.091 1366.15 Q695.748 1359.02 695.748 1344.81 Q695.748 1330.55 692.091 1323.46 Q688.48 1316.33 681.211 1316.33 M681.211 1308.93 Q692.832 1308.93 698.943 1318.14 Q705.1 1327.31 705.1 1344.81 Q705.1 1362.26 698.943 1371.47 Q692.832 1380.64 681.211 1380.64 Q669.591 1380.64 663.434 1371.47 Q657.323 1362.26 657.323 1344.81 Q657.323 1327.31 663.434 1318.14 Q669.591 1308.93 681.211 1308.93 Z" fill="#000000" fill-rule="nonzero" fill-opacity="1" /><path clip-path="url(#clip750)" d="M721.535 1367.54 L731.304 1367.54 L731.304 1379.3 L721.535 1379.3 L721.535 1367.54 Z" fill="#000000" fill-rule="nonzero" fill-opacity="1" /><path clip-path="url(#clip750)" d="M771.674 1316.33 Q764.452 1316.33 760.794 1323.46 Q757.183 1330.55 757.183 1344.81 Q757.183 1359.02 760.794 1366.15 Q764.452 1373.23 771.674 1373.23 Q778.942 1373.23 782.553 1366.15 Q786.211 1359.02 786.211 1344.81 Q786.211 1330.55 782.553 1323.46 Q778.942 1316.33 771.674 1316.33 M771.674 1308.93 Q783.294 1308.93 789.405 1318.14 Q795.563 1327.31 795.563 1344.81 Q795.563 1362.26 789.405 1371.47 Q783.294 1380.64 771.674 1380.64 Q760.054 1380.64 753.896 1371.47 Q747.785 1362.26 747.785 1344.81 Q747.785 1327.31 753.896 1318.14 Q760.054 1308.93 771.674 1308.93 Z" fill="#000000" fill-rule="nonzero" fill-opacity="1" /><path clip-path="url(#clip750)" d="M918.667 1316.33 Q911.444 1316.33 907.787 1323.46 Q904.176 1330.55 904.176 1344.81 Q904.176 1359.02 907.787 1366.15 Q911.444 1373.23 918.667 1373.23 Q925.935 1373.23 929.546 1366.15 Q933.204 1359.02 933.204 1344.81 Q933.204 1330.55 929.546 1323.46 Q925.935 1316.33 918.667 1316.33 M918.667 1308.93 Q930.287 1308.93 936.398 1318.14 Q942.555 1327.31 942.555 1344.81 Q942.555 1362.26 936.398 1371.47 Q930.287 1380.64 918.667 1380.64 Q907.046 1380.64 900.889 1371.47 Q894.778 1362.26 894.778 1344.81 Q894.778 1327.31 900.889 1318.14 Q907.046 1308.93 918.667 1308.93 Z" fill="#000000" fill-rule="nonzero" fill-opacity="1" /><path clip-path="url(#clip750)" d="M958.99 1367.54 L968.759 1367.54 L968.759 1379.3 L958.99 1379.3 L958.99 1367.54 Z" fill="#000000" fill-rule="nonzero" fill-opacity="1" /><path clip-path="url(#clip750)" d="M997.185 1371.43 L1029.82 1371.43 L1029.82 1379.3 L985.935 1379.3 L985.935 1371.43 Q991.259 1365.92 1000.43 1356.66 Q1009.64 1347.35 1012 1344.67 Q1016.49 1339.62 1018.25 1336.15 Q1020.05 1332.63 1020.05 1329.25 Q1020.05 1323.74 1016.17 1320.27 Q1012.32 1316.8 1006.12 1316.8 Q1001.72 1316.8 996.814 1318.32 Q991.953 1319.85 986.398 1322.95 L986.398 1313.51 Q992.046 1311.24 996.953 1310.08 Q1001.86 1308.93 1005.93 1308.93 Q1016.68 1308.93 1023.06 1314.3 Q1029.45 1319.67 1029.45 1328.65 Q1029.45 1332.91 1027.83 1336.75 Q1026.26 1340.55 1022.05 1345.73 Q1020.89 1347.07 1014.68 1353.51 Q1008.48 1359.9 997.185 1371.43 Z" fill="#000000" fill-rule="nonzero" fill-opacity="1" /><path clip-path="url(#clip750)" d="M1152.44 1316.33 Q1145.22 1316.33 1141.56 1323.46 Q1137.95 1330.55 1137.95 1344.81 Q1137.95 1359.02 1141.56 1366.15 Q1145.22 1373.23 1152.44 1373.23 Q1159.71 1373.23 1163.32 1366.15 Q1166.98 1359.02 1166.98 1344.81 Q1166.98 1330.55 1163.32 1323.46 Q1159.71 1316.33 1152.44 1316.33 M1152.44 1308.93 Q1164.06 1308.93 1170.17 1318.14 Q1176.33 1327.31 1176.33 1344.81 Q1176.33 1362.26 1170.17 1371.47 Q1164.06 1380.64 1152.44 1380.64 Q1140.82 1380.64 1134.66 1371.47 Q1128.55 1362.26 1128.55 1344.81 Q1128.55 1327.31 1134.66 1318.14 Q1140.82 1308.93 1152.44 1308.93 Z" fill="#000000" fill-rule="nonzero" fill-opacity="1" /><path clip-path="url(#clip750)" d="M1192.77 1367.54 L1202.53 1367.54 L1202.53 1379.3 L1192.77 1379.3 L1192.77 1367.54 Z" fill="#000000" fill-rule="nonzero" fill-opacity="1" /><path clip-path="url(#clip750)" d="M1248.6 1318.32 L1224.99 1355.22 L1248.6 1355.22 L1248.6 1318.32 M1246.14 1310.18 L1257.9 1310.18 L1257.9 1355.22 L1267.76 1355.22 L1267.76 1363 L1257.9 1363 L1257.9 1379.3 L1248.6 1379.3 L1248.6 1363 L1217.39 1363 L1217.39 1353.97 L1246.14 1310.18 Z" fill="#000000" fill-rule="nonzero" fill-opacity="1" /><path clip-path="url(#clip750)" d="M1388.62 1316.33 Q1381.4 1316.33 1377.74 1323.46 Q1374.13 1330.55 1374.13 1344.81 Q1374.13 1359.02 1377.74 1366.15 Q1381.4 1373.23 1388.62 1373.23 Q1395.89 1373.23 1399.5 1366.15 Q1403.16 1359.02 1403.16 1344.81 Q1403.16 1330.55 1399.5 1323.46 Q1395.89 1316.33 1388.62 1316.33 M1388.62 1308.93 Q1400.24 1308.93 1406.35 1318.14 Q1412.51 1327.31 1412.51 1344.81 Q1412.51 1362.26 1406.35 1371.47 Q1400.24 1380.64 1388.62 1380.64 Q1377 1380.64 1370.85 1371.47 Q1364.73 1362.26 1364.73 1344.81 Q1364.73 1327.31 1370.85 1318.14 Q1377 1308.93 1388.62 1308.93 Z" fill="#000000" fill-rule="nonzero" fill-opacity="1" /><path clip-path="url(#clip750)" d="M1428.95 1367.54 L1438.72 1367.54 L1438.72 1379.3 L1428.95 1379.3 L1428.95 1367.54 Z" fill="#000000" fill-rule="nonzero" fill-opacity="1" /><path clip-path="url(#clip750)" d="M1480.24 1341.01 Q1473.95 1341.01 1470.24 1345.31 Q1466.59 1349.62 1466.59 1357.12 Q1466.59 1364.57 1470.24 1368.93 Q1473.95 1373.23 1480.24 1373.23 Q1486.54 1373.23 1490.2 1368.93 Q1493.9 1364.57 1493.9 1357.12 Q1493.9 1349.62 1490.2 1345.31 Q1486.54 1341.01 1480.24 1341.01 M1498.81 1311.7 L1498.81 1320.22 Q1495.29 1318.56 1491.68 1317.68 Q1488.11 1316.8 1484.6 1316.8 Q1475.34 1316.8 1470.43 1323.05 Q1465.57 1329.3 1464.87 1341.93 Q1467.6 1337.91 1471.72 1335.78 Q1475.85 1333.6 1480.8 1333.6 Q1491.22 1333.6 1497.23 1339.94 Q1503.3 1346.24 1503.3 1357.12 Q1503.3 1367.77 1497 1374.2 Q1490.71 1380.64 1480.24 1380.64 Q1468.25 1380.64 1461.91 1371.47 Q1455.57 1362.26 1455.57 1344.81 Q1455.57 1328.42 1463.35 1318.69 Q1471.12 1308.93 1484.22 1308.93 Q1487.74 1308.93 1491.31 1309.62 Q1494.92 1310.31 1498.81 1311.7 Z" fill="#000000" fill-rule="nonzero" fill-opacity="1" /><path clip-path="url(#clip750)" d="M1624.74 1316.33 Q1617.51 1316.33 1613.86 1323.46 Q1610.25 1330.55 1610.25 1344.81 Q1610.25 1359.02 1613.86 1366.15 Q1617.51 1373.23 1624.74 1373.23 Q1632 1373.23 1635.62 1366.15 Q1639.27 1359.02 1639.27 1344.81 Q1639.27 1330.55 1635.62 1323.46 Q1632 1316.33 1624.74 1316.33 M1624.74 1308.93 Q1636.36 1308.93 1642.47 1318.14 Q1648.62 1327.31 1648.62 1344.81 Q1648.62 1362.26 1642.47 1371.47 Q1636.36 1380.64 1624.74 1380.64 Q1613.12 1380.64 1606.96 1371.47 Q1600.85 1362.26 1600.85 1344.81 Q1600.85 1327.31 1606.96 1318.14 Q1613.12 1308.93 1624.74 1308.93 Z" fill="#000000" fill-rule="nonzero" fill-opacity="1" /><path clip-path="url(#clip750)" d="M1665.06 1367.54 L1674.83 1367.54 L1674.83 1379.3 L1665.06 1379.3 L1665.06 1367.54 Z" fill="#000000" fill-rule="nonzero" fill-opacity="1" /><path clip-path="url(#clip750)" d="M1715.2 1346.47 Q1708.53 1346.47 1704.69 1350.04 Q1700.89 1353.6 1700.89 1359.85 Q1700.89 1366.1 1704.69 1369.67 Q1708.53 1373.23 1715.2 1373.23 Q1721.87 1373.23 1725.71 1369.67 Q1729.55 1366.06 1729.55 1359.85 Q1729.55 1353.6 1725.71 1350.04 Q1721.91 1346.47 1715.2 1346.47 M1705.85 1342.49 Q1699.83 1341.01 1696.45 1336.89 Q1693.12 1332.77 1693.12 1326.84 Q1693.12 1318.56 1698.99 1313.74 Q1704.92 1308.93 1715.2 1308.93 Q1725.52 1308.93 1731.4 1313.74 Q1737.28 1318.56 1737.28 1326.84 Q1737.28 1332.77 1733.9 1336.89 Q1730.57 1341.01 1724.6 1342.49 Q1731.36 1344.06 1735.11 1348.65 Q1738.9 1353.23 1738.9 1359.85 Q1738.9 1369.9 1732.74 1375.27 Q1726.63 1380.64 1715.2 1380.64 Q1703.76 1380.64 1697.61 1375.27 Q1691.49 1369.9 1691.49 1359.85 Q1691.49 1353.23 1695.29 1348.65 Q1699.09 1344.06 1705.85 1342.49 M1702.42 1327.72 Q1702.42 1333.09 1705.75 1336.1 Q1709.13 1339.11 1715.2 1339.11 Q1721.22 1339.11 1724.6 1336.1 Q1728.02 1333.09 1728.02 1327.72 Q1728.02 1322.35 1724.6 1319.34 Q1721.22 1316.33 1715.2 1316.33 Q1709.13 1316.33 1705.75 1319.34 Q1702.42 1322.35 1702.42 1327.72 Z" fill="#000000" fill-rule="nonzero" fill-opacity="1" /><path clip-path="url(#clip750)" d="M1840.04 1371.43 L1855.32 1371.43 L1855.32 1318.69 L1838.7 1322.03 L1838.7 1313.51 L1855.22 1310.18 L1864.58 1310.18 L1864.58 1371.43 L1879.85 1371.43 L1879.85 1379.3 L1840.04 1379.3 L1840.04 1371.43 Z" fill="#000000" fill-rule="nonzero" fill-opacity="1" /><path clip-path="url(#clip750)" d="M1898.74 1367.54 L1908.51 1367.54 L1908.51 1379.3 L1898.74 1379.3 L1898.74 1367.54 Z" fill="#000000" fill-rule="nonzero" fill-opacity="1" /><path clip-path="url(#clip750)" d="M1948.88 1316.33 Q1941.66 1316.33 1938 1323.46 Q1934.39 1330.55 1934.39 1344.81 Q1934.39 1359.02 1938 1366.15 Q1941.66 1373.23 1948.88 1373.23 Q1956.15 1373.23 1959.76 1366.15 Q1963.42 1359.02 1963.42 1344.81 Q1963.42 1330.55 1959.76 1323.46 Q1956.15 1316.33 1948.88 1316.33 M1948.88 1308.93 Q1960.5 1308.93 1966.61 1318.14 Q1972.77 1327.31 1972.77 1344.81 Q1972.77 1362.26 1966.61 1371.47 Q1960.5 1380.64 1948.88 1380.64 Q1937.26 1380.64 1931.1 1371.47 Q1924.99 1362.26 1924.99 1344.81 Q1924.99 1327.31 1931.1 1318.14 Q1937.26 1308.93 1948.88 1308.93 Z" fill="#000000" fill-rule="nonzero" fill-opacity="1" /><path clip-path="url(#clip750)" d="M2077.49 1371.43 L2092.77 1371.43 L2092.77 1318.69 L2076.15 1322.03 L2076.15 1313.51 L2092.68 1310.18 L2102.03 1310.18 L2102.03 1371.43 L2117.31 1371.43 L2117.31 1379.3 L2077.49 1379.3 L2077.49 1371.43 Z" fill="#000000" fill-rule="nonzero" fill-opacity="1" /><path clip-path="url(#clip750)" d="M2136.2 1367.54 L2145.97 1367.54 L2145.97 1379.3 L2136.2 1379.3 L2136.2 1367.54 Z" fill="#000000" fill-rule="nonzero" fill-opacity="1" /><path clip-path="url(#clip750)" d="M2174.39 1371.43 L2207.03 1371.43 L2207.03 1379.3 L2163.14 1379.3 L2163.14 1371.43 Q2168.47 1365.92 2177.63 1356.66 Q2186.84 1347.35 2189.21 1344.67 Q2193.7 1339.62 2195.46 1336.15 Q2197.26 1332.63 2197.26 1329.25 Q2197.26 1323.74 2193.37 1320.27 Q2189.53 1316.8 2183.33 1316.8 Q2178.93 1316.8 2174.02 1318.32 Q2169.16 1319.85 2163.6 1322.95 L2163.6 1313.51 Q2169.25 1311.24 2174.16 1310.08 Q2179.07 1308.93 2183.14 1308.93 Q2193.88 1308.93 2200.27 1314.3 Q2206.66 1319.67 2206.66 1328.65 Q2206.66 1332.91 2205.04 1336.75 Q2203.47 1340.55 2199.25 1345.73 Q2198.09 1347.07 2191.89 1353.51 Q2185.69 1359.9 2174.39 1371.43 Z" fill="#000000" fill-rule="nonzero" fill-opacity="1" /><path clip-path="url(#clip750)" d="M1378.53 1484.39 L1378.53 1527.42 L1366.81 1527.42 L1366.81 1484.77 Q1366.81 1474.65 1362.87 1469.62 Q1358.92 1464.59 1351.03 1464.59 Q1341.54 1464.59 1336.07 1470.64 Q1330.59 1476.69 1330.59 1487.13 L1330.59 1527.42 L1318.82 1527.42 L1318.82 1428.37 L1330.59 1428.37 L1330.59 1467.2 Q1334.79 1460.77 1340.46 1457.59 Q1346.19 1454.41 1353.64 1454.41 Q1365.92 1454.41 1372.22 1462.05 Q1378.53 1469.62 1378.53 1484.39 Z" fill="#000000" fill-rule="nonzero" fill-opacity="1" /><path clip-path="url(#clip750)" d="M1429.51 1464.34 Q1420.09 1464.34 1414.62 1471.72 Q1409.14 1479.04 1409.14 1491.84 Q1409.14 1504.63 1414.56 1512.02 Q1420.03 1519.34 1429.51 1519.34 Q1438.87 1519.34 1444.35 1511.96 Q1449.82 1504.57 1449.82 1491.84 Q1449.82 1479.17 1444.35 1471.79 Q1438.87 1464.34 1429.51 1464.34 M1429.51 1454.41 Q1444.79 1454.41 1453.51 1464.34 Q1462.23 1474.27 1462.23 1491.84 Q1462.23 1509.35 1453.51 1519.34 Q1444.79 1529.27 1429.51 1529.27 Q1414.17 1529.27 1405.45 1519.34 Q1396.8 1509.35 1396.8 1491.84 Q1396.8 1474.27 1405.45 1464.34 Q1414.17 1454.41 1429.51 1454.41 Z" fill="#000000" fill-rule="nonzero" fill-opacity="1" /><path clip-path="url(#clip750)" d="M1480.44 1499.29 L1480.44 1456.13 L1492.15 1456.13 L1492.15 1498.84 Q1492.15 1508.96 1496.1 1514.06 Q1500.05 1519.08 1507.94 1519.08 Q1517.43 1519.08 1522.9 1513.04 Q1528.44 1506.99 1528.44 1496.55 L1528.44 1456.13 L1540.15 1456.13 L1540.15 1527.42 L1528.44 1527.42 L1528.44 1516.47 Q1524.17 1522.97 1518.51 1526.15 Q1512.91 1529.27 1505.46 1529.27 Q1493.17 1529.27 1486.81 1521.63 Q1480.44 1513.99 1480.44 1499.29 M1509.91 1454.41 L1509.91 1454.41 Z" fill="#000000" fill-rule="nonzero" fill-opacity="1" /><path clip-path="url(#clip750)" d="M1605.59 1467.08 Q1603.62 1465.93 1601.26 1465.42 Q1598.97 1464.85 1596.17 1464.85 Q1586.24 1464.85 1580.89 1471.34 Q1575.61 1477.77 1575.61 1489.87 L1575.61 1527.42 L1563.83 1527.42 L1563.83 1456.13 L1575.61 1456.13 L1575.61 1467.2 Q1579.3 1460.71 1585.22 1457.59 Q1591.14 1454.41 1599.61 1454.41 Q1600.82 1454.41 1602.28 1454.6 Q1603.74 1454.73 1605.53 1455.05 L1605.59 1467.08 Z" fill="#000000" fill-rule="nonzero" fill-opacity="1" /><path clip-path="url(#clip750)" d="M1663.33 1458.23 L1663.33 1469.3 Q1658.36 1466.76 1653.01 1465.49 Q1647.67 1464.21 1641.94 1464.21 Q1633.22 1464.21 1628.83 1466.89 Q1624.5 1469.56 1624.5 1474.91 Q1624.5 1478.98 1627.62 1481.34 Q1630.73 1483.63 1640.16 1485.73 L1644.17 1486.62 Q1656.64 1489.29 1661.86 1494.19 Q1667.15 1499.03 1667.15 1507.75 Q1667.15 1517.68 1659.25 1523.48 Q1651.42 1529.27 1637.67 1529.27 Q1631.94 1529.27 1625.71 1528.12 Q1619.53 1527.04 1612.66 1524.81 L1612.66 1512.72 Q1619.15 1516.09 1625.45 1517.81 Q1631.75 1519.47 1637.93 1519.47 Q1646.2 1519.47 1650.66 1516.67 Q1655.12 1513.8 1655.12 1508.64 Q1655.12 1503.87 1651.87 1501.32 Q1648.69 1498.78 1637.8 1496.42 L1633.73 1495.47 Q1622.84 1493.18 1618 1488.47 Q1613.17 1483.69 1613.17 1475.42 Q1613.17 1465.36 1620.3 1459.88 Q1627.42 1454.41 1640.54 1454.41 Q1647.03 1454.41 1652.76 1455.36 Q1658.49 1456.32 1663.33 1458.23 Z" fill="#000000" fill-rule="nonzero" fill-opacity="1" /><polyline clip-path="url(#clip752)" style="stroke:#000000; stroke-linecap:round; stroke-linejoin:round; stroke-width:4; stroke-opacity:0.1; fill:none" points="680.45,1136.15 2305.51,1136.15 "/>
<polyline clip-path="url(#clip752)" style="stroke:#000000; stroke-linecap:round; stroke-linejoin:round; stroke-width:4; stroke-opacity:0.1; fill:none" points="680.45,986.965 2305.51,986.965 "/>
<polyline clip-path="url(#clip752)" style="stroke:#000000; stroke-linecap:round; stroke-linejoin:round; stroke-width:4; stroke-opacity:0.1; fill:none" points="680.45,837.782 2305.51,837.782 "/>
<polyline clip-path="url(#clip752)" style="stroke:#000000; stroke-linecap:round; stroke-linejoin:round; stroke-width:4; stroke-opacity:0.1; fill:none" points="680.45,688.599 2305.51,688.599 "/>
<polyline clip-path="url(#clip752)" style="stroke:#000000; stroke-linecap:round; stroke-linejoin:round; stroke-width:4; stroke-opacity:0.1; fill:none" points="680.45,539.415 2305.51,539.415 "/>
<polyline clip-path="url(#clip752)" style="stroke:#000000; stroke-linecap:round; stroke-linejoin:round; stroke-width:4; stroke-opacity:0.1; fill:none" points="680.45,390.232 2305.51,390.232 "/>
<polyline clip-path="url(#clip752)" style="stroke:#000000; stroke-linecap:round; stroke-linejoin:round; stroke-width:4; stroke-opacity:0.1; fill:none" points="680.45,241.049 2305.51,241.049 "/>
<polyline clip-path="url(#clip750)" style="stroke:#000000; stroke-linecap:round; stroke-linejoin:round; stroke-width:8; stroke-opacity:1; fill:none" points="680.45,1273.7 680.45,94.4882 "/>
<polyline clip-path="url(#clip750)" style="stroke:#000000; stroke-linecap:round; stroke-linejoin:round; stroke-width:8; stroke-opacity:1; fill:none" points="680.45,1136.15 699.348,1136.15 "/>
<polyline clip-path="url(#clip750)" style="stroke:#000000; stroke-linecap:round; stroke-linejoin:round; stroke-width:8; stroke-opacity:1; fill:none" points="680.45,986.965 699.348,986.965 "/>
<polyline clip-path="url(#clip750)" style="stroke:#000000; stroke-linecap:round; stroke-linejoin:round; stroke-width:8; stroke-opacity:1; fill:none" points="680.45,837.782 699.348,837.782 "/>
<polyline clip-path="url(#clip750)" style="stroke:#000000; stroke-linecap:round; stroke-linejoin:round; stroke-width:8; stroke-opacity:1; fill:none" points="680.45,688.599 699.348,688.599 "/>
<polyline clip-path="url(#clip750)" style="stroke:#000000; stroke-linecap:round; stroke-linejoin:round; stroke-width:8; stroke-opacity:1; fill:none" points="680.45,539.415 699.348,539.415 "/>
<polyline clip-path="url(#clip750)" style="stroke:#000000; stroke-linecap:round; stroke-linejoin:round; stroke-width:8; stroke-opacity:1; fill:none" points="680.45,390.232 699.348,390.232 "/>
<polyline clip-path="url(#clip750)" style="stroke:#000000; stroke-linecap:round; stroke-linejoin:round; stroke-width:8; stroke-opacity:1; fill:none" points="680.45,241.049 699.348,241.049 "/>
<path clip-path="url(#clip750)" d="M391.072 1162.84 L406.35 1162.84 L406.35 1110.11 L389.73 1113.44 L389.73 1104.92 L406.257 1101.59 L415.609 1101.59 L415.609 1162.84 L430.887 1162.84 L430.887 1170.71 L391.072 1170.71 L391.072 1162.84 Z" fill="#000000" fill-rule="nonzero" fill-opacity="1" /><path clip-path="url(#clip750)" d="M469.775 1107.75 Q462.553 1107.75 458.896 1114.87 Q455.285 1121.96 455.285 1136.22 Q455.285 1150.43 458.896 1157.56 Q462.553 1164.64 469.775 1164.64 Q477.044 1164.64 480.655 1157.56 Q484.312 1150.43 484.312 1136.22 Q484.312 1121.96 480.655 1114.87 Q477.044 1107.75 469.775 1107.75 M469.775 1100.34 Q481.396 1100.34 487.507 1109.55 Q493.664 1118.72 493.664 1136.22 Q493.664 1153.67 487.507 1162.88 Q481.396 1172.05 469.775 1172.05 Q458.155 1172.05 451.998 1162.88 Q445.887 1153.67 445.887 1136.22 Q445.887 1118.72 451.998 1109.55 Q458.155 1100.34 469.775 1100.34 Z" fill="#000000" fill-rule="nonzero" fill-opacity="1" /><path clip-path="url(#clip750)" d="M530.099 1107.75 Q522.877 1107.75 519.22 1114.87 Q515.608 1121.96 515.608 1136.22 Q515.608 1150.43 519.22 1157.56 Q522.877 1164.64 530.099 1164.64 Q537.368 1164.64 540.979 1157.56 Q544.636 1150.43 544.636 1136.22 Q544.636 1121.96 540.979 1114.87 Q537.368 1107.75 530.099 1107.75 M530.099 1100.34 Q541.719 1100.34 547.831 1109.55 Q553.988 1118.72 553.988 1136.22 Q553.988 1153.67 547.831 1162.88 Q541.719 1172.05 530.099 1172.05 Q518.479 1172.05 512.321 1162.88 Q506.21 1153.67 506.21 1136.22 Q506.21 1118.72 512.321 1109.55 Q518.479 1100.34 530.099 1100.34 Z" fill="#000000" fill-rule="nonzero" fill-opacity="1" /><path clip-path="url(#clip750)" d="M570.423 1158.95 L580.191 1158.95 L580.191 1170.71 L570.423 1170.71 L570.423 1158.95 Z" fill="#000000" fill-rule="nonzero" fill-opacity="1" /><path clip-path="url(#clip750)" d="M620.562 1107.75 Q613.339 1107.75 609.682 1114.87 Q606.071 1121.96 606.071 1136.22 Q606.071 1150.43 609.682 1157.56 Q613.339 1164.64 620.562 1164.64 Q627.83 1164.64 631.441 1157.56 Q635.099 1150.43 635.099 1136.22 Q635.099 1121.96 631.441 1114.87 Q627.83 1107.75 620.562 1107.75 M620.562 1100.34 Q632.182 1100.34 638.293 1109.55 Q644.45 1118.72 644.45 1136.22 Q644.45 1153.67 638.293 1162.88 Q632.182 1172.05 620.562 1172.05 Q608.941 1172.05 602.784 1162.88 Q596.673 1153.67 596.673 1136.22 Q596.673 1118.72 602.784 1109.55 Q608.941 1100.34 620.562 1100.34 Z" fill="#000000" fill-rule="nonzero" fill-opacity="1" /><path clip-path="url(#clip750)" d="M391.072 1013.65 L406.35 1013.65 L406.35 960.923 L389.73 964.257 L389.73 955.738 L406.257 952.405 L415.609 952.405 L415.609 1013.65 L430.887 1013.65 L430.887 1021.52 L391.072 1021.52 L391.072 1013.65 Z" fill="#000000" fill-rule="nonzero" fill-opacity="1" /><path clip-path="url(#clip750)" d="M457.831 1013.65 L490.47 1013.65 L490.47 1021.52 L446.581 1021.52 L446.581 1013.65 Q451.905 1008.15 461.072 998.886 Q470.285 989.581 472.646 986.895 Q477.136 981.849 478.896 978.377 Q480.701 974.858 480.701 971.479 Q480.701 965.97 476.812 962.497 Q472.97 959.025 466.766 959.025 Q462.368 959.025 457.461 960.553 Q452.6 962.081 447.044 965.183 L447.044 955.738 Q452.692 953.47 457.6 952.312 Q462.507 951.155 466.581 951.155 Q477.322 951.155 483.71 956.525 Q490.099 961.896 490.099 970.877 Q490.099 975.136 488.479 978.979 Q486.905 982.775 482.692 987.96 Q481.535 989.303 475.331 995.738 Q469.127 1002.13 457.831 1013.65 Z" fill="#000000" fill-rule="nonzero" fill-opacity="1" /><path clip-path="url(#clip750)" d="M530.099 958.562 Q522.877 958.562 519.22 965.692 Q515.608 972.775 515.608 987.034 Q515.608 1001.25 519.22 1008.38 Q522.877 1015.46 530.099 1015.46 Q537.368 1015.46 540.979 1008.38 Q544.636 1001.25 544.636 987.034 Q544.636 972.775 540.979 965.692 Q537.368 958.562 530.099 958.562 M530.099 951.155 Q541.719 951.155 547.831 960.368 Q553.988 969.534 553.988 987.034 Q553.988 1004.49 547.831 1013.7 Q541.719 1022.87 530.099 1022.87 Q518.479 1022.87 512.321 1013.7 Q506.21 1004.49 506.21 987.034 Q506.21 969.534 512.321 960.368 Q518.479 951.155 530.099 951.155 Z" fill="#000000" fill-rule="nonzero" fill-opacity="1" /><path clip-path="url(#clip750)" d="M570.423 1009.77 L580.191 1009.77 L580.191 1021.52 L570.423 1021.52 L570.423 1009.77 Z" fill="#000000" fill-rule="nonzero" fill-opacity="1" /><path clip-path="url(#clip750)" d="M620.562 958.562 Q613.339 958.562 609.682 965.692 Q606.071 972.775 606.071 987.034 Q606.071 1001.25 609.682 1008.38 Q613.339 1015.46 620.562 1015.46 Q627.83 1015.46 631.441 1008.38 Q635.099 1001.25 635.099 987.034 Q635.099 972.775 631.441 965.692 Q627.83 958.562 620.562 958.562 M620.562 951.155 Q632.182 951.155 638.293 960.368 Q644.45 969.534 644.45 987.034 Q644.45 1004.49 638.293 1013.7 Q632.182 1022.87 620.562 1022.87 Q608.941 1022.87 602.784 1013.7 Q596.673 1004.49 596.673 987.034 Q596.673 969.534 602.784 960.368 Q608.941 951.155 620.562 951.155 Z" fill="#000000" fill-rule="nonzero" fill-opacity="1" /><path clip-path="url(#clip750)" d="M391.072 864.471 L406.35 864.471 L406.35 811.74 L389.73 815.073 L389.73 806.555 L406.257 803.222 L415.609 803.222 L415.609 864.471 L430.887 864.471 L430.887 872.342 L391.072 872.342 L391.072 864.471 Z" fill="#000000" fill-rule="nonzero" fill-opacity="1" /><path clip-path="url(#clip750)" d="M475.47 811.37 L451.859 848.268 L475.47 848.268 L475.47 811.37 M473.016 803.222 L484.775 803.222 L484.775 848.268 L494.636 848.268 L494.636 856.045 L484.775 856.045 L484.775 872.342 L475.47 872.342 L475.47 856.045 L444.266 856.045 L444.266 847.018 L473.016 803.222 Z" fill="#000000" fill-rule="nonzero" fill-opacity="1" /><path clip-path="url(#clip750)" d="M530.099 809.379 Q522.877 809.379 519.22 816.509 Q515.608 823.592 515.608 837.851 Q515.608 852.064 519.22 859.194 Q522.877 866.277 530.099 866.277 Q537.368 866.277 540.979 859.194 Q544.636 852.064 544.636 837.851 Q544.636 823.592 540.979 816.509 Q537.368 809.379 530.099 809.379 M530.099 801.972 Q541.719 801.972 547.831 811.185 Q553.988 820.351 553.988 837.851 Q553.988 855.305 547.831 864.518 Q541.719 873.684 530.099 873.684 Q518.479 873.684 512.321 864.518 Q506.21 855.305 506.21 837.851 Q506.21 820.351 512.321 811.185 Q518.479 801.972 530.099 801.972 Z" fill="#000000" fill-rule="nonzero" fill-opacity="1" /><path clip-path="url(#clip750)" d="M570.423 860.583 L580.191 860.583 L580.191 872.342 L570.423 872.342 L570.423 860.583 Z" fill="#000000" fill-rule="nonzero" fill-opacity="1" /><path clip-path="url(#clip750)" d="M620.562 809.379 Q613.339 809.379 609.682 816.509 Q606.071 823.592 606.071 837.851 Q606.071 852.064 609.682 859.194 Q613.339 866.277 620.562 866.277 Q627.83 866.277 631.441 859.194 Q635.099 852.064 635.099 837.851 Q635.099 823.592 631.441 816.509 Q627.83 809.379 620.562 809.379 M620.562 801.972 Q632.182 801.972 638.293 811.185 Q644.45 820.351 644.45 837.851 Q644.45 855.305 638.293 864.518 Q632.182 873.684 620.562 873.684 Q608.941 873.684 602.784 864.518 Q596.673 855.305 596.673 837.851 Q596.673 820.351 602.784 811.185 Q608.941 801.972 620.562 801.972 Z" fill="#000000" fill-rule="nonzero" fill-opacity="1" /><path clip-path="url(#clip750)" d="M391.072 715.288 L406.35 715.288 L406.35 662.557 L389.73 665.89 L389.73 657.372 L406.257 654.039 L415.609 654.039 L415.609 715.288 L430.887 715.288 L430.887 723.159 L391.072 723.159 L391.072 715.288 Z" fill="#000000" fill-rule="nonzero" fill-opacity="1" /><path clip-path="url(#clip750)" d="M470.933 684.872 Q464.637 684.872 460.933 689.177 Q457.275 693.483 457.275 700.983 Q457.275 708.436 460.933 712.788 Q464.637 717.094 470.933 717.094 Q477.229 717.094 480.886 712.788 Q484.59 708.436 484.59 700.983 Q484.59 693.483 480.886 689.177 Q477.229 684.872 470.933 684.872 M489.498 655.566 L489.498 664.085 Q485.979 662.418 482.368 661.538 Q478.803 660.659 475.285 660.659 Q466.025 660.659 461.118 666.909 Q456.257 673.159 455.562 685.798 Q458.294 681.77 462.414 679.64 Q466.535 677.464 471.488 677.464 Q481.905 677.464 487.923 683.807 Q493.988 690.103 493.988 700.983 Q493.988 711.631 487.692 718.066 Q481.396 724.501 470.933 724.501 Q458.942 724.501 452.6 715.334 Q446.257 706.122 446.257 688.668 Q446.257 672.279 454.035 662.557 Q461.812 652.789 474.914 652.789 Q478.433 652.789 481.998 653.483 Q485.609 654.177 489.498 655.566 Z" fill="#000000" fill-rule="nonzero" fill-opacity="1" /><path clip-path="url(#clip750)" d="M530.099 660.196 Q522.877 660.196 519.22 667.325 Q515.608 674.409 515.608 688.668 Q515.608 702.881 519.22 710.01 Q522.877 717.094 530.099 717.094 Q537.368 717.094 540.979 710.01 Q544.636 702.881 544.636 688.668 Q544.636 674.409 540.979 667.325 Q537.368 660.196 530.099 660.196 M530.099 652.789 Q541.719 652.789 547.831 662.001 Q553.988 671.168 553.988 688.668 Q553.988 706.122 547.831 715.334 Q541.719 724.501 530.099 724.501 Q518.479 724.501 512.321 715.334 Q506.21 706.122 506.21 688.668 Q506.21 671.168 512.321 662.001 Q518.479 652.789 530.099 652.789 Z" fill="#000000" fill-rule="nonzero" fill-opacity="1" /><path clip-path="url(#clip750)" d="M570.423 711.399 L580.191 711.399 L580.191 723.159 L570.423 723.159 L570.423 711.399 Z" fill="#000000" fill-rule="nonzero" fill-opacity="1" /><path clip-path="url(#clip750)" d="M620.562 660.196 Q613.339 660.196 609.682 667.325 Q606.071 674.409 606.071 688.668 Q606.071 702.881 609.682 710.01 Q613.339 717.094 620.562 717.094 Q627.83 717.094 631.441 710.01 Q635.099 702.881 635.099 688.668 Q635.099 674.409 631.441 667.325 Q627.83 660.196 620.562 660.196 M620.562 652.789 Q632.182 652.789 638.293 662.001 Q644.45 671.168 644.45 688.668 Q644.45 706.122 638.293 715.334 Q632.182 724.501 620.562 724.501 Q608.941 724.501 602.784 715.334 Q596.673 706.122 596.673 688.668 Q596.673 671.168 602.784 662.001 Q608.941 652.789 620.562 652.789 Z" fill="#000000" fill-rule="nonzero" fill-opacity="1" /><path clip-path="url(#clip750)" d="M391.072 566.105 L406.35 566.105 L406.35 513.374 L389.73 516.707 L389.73 508.189 L406.257 504.855 L415.609 504.855 L415.609 566.105 L430.887 566.105 L430.887 573.975 L391.072 573.975 L391.072 566.105 Z" fill="#000000" fill-rule="nonzero" fill-opacity="1" /><path clip-path="url(#clip750)" d="M469.775 541.151 Q463.109 541.151 459.266 544.716 Q455.47 548.281 455.47 554.531 Q455.47 560.781 459.266 564.346 Q463.109 567.911 469.775 567.911 Q476.442 567.911 480.285 564.346 Q484.127 560.735 484.127 554.531 Q484.127 548.281 480.285 544.716 Q476.488 541.151 469.775 541.151 M460.424 537.17 Q454.405 535.689 451.025 531.568 Q447.692 527.448 447.692 521.522 Q447.692 513.235 453.572 508.42 Q459.498 503.605 469.775 503.605 Q480.099 503.605 485.979 508.42 Q491.859 513.235 491.859 521.522 Q491.859 527.448 488.479 531.568 Q485.146 535.689 479.173 537.17 Q485.933 538.744 489.683 543.327 Q493.479 547.911 493.479 554.531 Q493.479 564.577 487.322 569.948 Q481.211 575.318 469.775 575.318 Q458.34 575.318 452.183 569.948 Q446.072 564.577 446.072 554.531 Q446.072 547.911 449.868 543.327 Q453.664 538.744 460.424 537.17 M456.998 522.402 Q456.998 527.772 460.331 530.781 Q463.711 533.79 469.775 533.79 Q475.794 533.79 479.173 530.781 Q482.599 527.772 482.599 522.402 Q482.599 517.031 479.173 514.022 Q475.794 511.013 469.775 511.013 Q463.711 511.013 460.331 514.022 Q456.998 517.031 456.998 522.402 Z" fill="#000000" fill-rule="nonzero" fill-opacity="1" /><path clip-path="url(#clip750)" d="M530.099 511.013 Q522.877 511.013 519.22 518.142 Q515.608 525.226 515.608 539.485 Q515.608 553.698 519.22 560.827 Q522.877 567.911 530.099 567.911 Q537.368 567.911 540.979 560.827 Q544.636 553.698 544.636 539.485 Q544.636 525.226 540.979 518.142 Q537.368 511.013 530.099 511.013 M530.099 503.605 Q541.719 503.605 547.831 512.818 Q553.988 521.985 553.988 539.485 Q553.988 556.938 547.831 566.151 Q541.719 575.318 530.099 575.318 Q518.479 575.318 512.321 566.151 Q506.21 556.938 506.21 539.485 Q506.21 521.985 512.321 512.818 Q518.479 503.605 530.099 503.605 Z" fill="#000000" fill-rule="nonzero" fill-opacity="1" /><path clip-path="url(#clip750)" d="M570.423 562.216 L580.191 562.216 L580.191 573.975 L570.423 573.975 L570.423 562.216 Z" fill="#000000" fill-rule="nonzero" fill-opacity="1" /><path clip-path="url(#clip750)" d="M620.562 511.013 Q613.339 511.013 609.682 518.142 Q606.071 525.226 606.071 539.485 Q606.071 553.698 609.682 560.827 Q613.339 567.911 620.562 567.911 Q627.83 567.911 631.441 560.827 Q635.099 553.698 635.099 539.485 Q635.099 525.226 631.441 518.142 Q627.83 511.013 620.562 511.013 M620.562 503.605 Q632.182 503.605 638.293 512.818 Q644.45 521.985 644.45 539.485 Q644.45 556.938 638.293 566.151 Q632.182 575.318 620.562 575.318 Q608.941 575.318 602.784 566.151 Q596.673 556.938 596.673 539.485 Q596.673 521.985 602.784 512.818 Q608.941 503.605 620.562 503.605 Z" fill="#000000" fill-rule="nonzero" fill-opacity="1" /><path clip-path="url(#clip750)" d="M397.507 416.922 L430.146 416.922 L430.146 424.792 L386.257 424.792 L386.257 416.922 Q391.581 411.413 400.748 402.153 Q409.961 392.848 412.322 390.163 Q416.813 385.116 418.572 381.644 Q420.378 378.126 420.378 374.746 Q420.378 369.237 416.489 365.765 Q412.646 362.293 406.442 362.293 Q402.044 362.293 397.137 363.82 Q392.276 365.348 386.72 368.45 L386.72 359.006 Q392.368 356.737 397.276 355.58 Q402.183 354.422 406.257 354.422 Q416.998 354.422 423.387 359.793 Q429.776 365.163 429.776 374.144 Q429.776 378.404 428.155 382.246 Q426.581 386.042 422.368 391.228 Q421.211 392.57 415.007 399.005 Q408.803 405.394 397.507 416.922 Z" fill="#000000" fill-rule="nonzero" fill-opacity="1" /><path clip-path="url(#clip750)" d="M469.775 361.83 Q462.553 361.83 458.896 368.959 Q455.285 376.042 455.285 390.302 Q455.285 404.515 458.896 411.644 Q462.553 418.727 469.775 418.727 Q477.044 418.727 480.655 411.644 Q484.312 404.515 484.312 390.302 Q484.312 376.042 480.655 368.959 Q477.044 361.83 469.775 361.83 M469.775 354.422 Q481.396 354.422 487.507 363.635 Q493.664 372.802 493.664 390.302 Q493.664 407.755 487.507 416.968 Q481.396 426.135 469.775 426.135 Q458.155 426.135 451.998 416.968 Q445.887 407.755 445.887 390.302 Q445.887 372.802 451.998 363.635 Q458.155 354.422 469.775 354.422 Z" fill="#000000" fill-rule="nonzero" fill-opacity="1" /><path clip-path="url(#clip750)" d="M530.099 361.83 Q522.877 361.83 519.22 368.959 Q515.608 376.042 515.608 390.302 Q515.608 404.515 519.22 411.644 Q522.877 418.727 530.099 418.727 Q537.368 418.727 540.979 411.644 Q544.636 404.515 544.636 390.302 Q544.636 376.042 540.979 368.959 Q537.368 361.83 530.099 361.83 M530.099 354.422 Q541.719 354.422 547.831 363.635 Q553.988 372.802 553.988 390.302 Q553.988 407.755 547.831 416.968 Q541.719 426.135 530.099 426.135 Q518.479 426.135 512.321 416.968 Q506.21 407.755 506.21 390.302 Q506.21 372.802 512.321 363.635 Q518.479 354.422 530.099 354.422 Z" fill="#000000" fill-rule="nonzero" fill-opacity="1" /><path clip-path="url(#clip750)" d="M570.423 413.033 L580.191 413.033 L580.191 424.792 L570.423 424.792 L570.423 413.033 Z" fill="#000000" fill-rule="nonzero" fill-opacity="1" /><path clip-path="url(#clip750)" d="M620.562 361.83 Q613.339 361.83 609.682 368.959 Q606.071 376.042 606.071 390.302 Q606.071 404.515 609.682 411.644 Q613.339 418.727 620.562 418.727 Q627.83 418.727 631.441 411.644 Q635.099 404.515 635.099 390.302 Q635.099 376.042 631.441 368.959 Q627.83 361.83 620.562 361.83 M620.562 354.422 Q632.182 354.422 638.293 363.635 Q644.45 372.802 644.45 390.302 Q644.45 407.755 638.293 416.968 Q632.182 426.135 620.562 426.135 Q608.941 426.135 602.784 416.968 Q596.673 407.755 596.673 390.302 Q596.673 372.802 602.784 363.635 Q608.941 354.422 620.562 354.422 Z" fill="#000000" fill-rule="nonzero" fill-opacity="1" /><path clip-path="url(#clip750)" d="M397.507 267.739 L430.146 267.739 L430.146 275.609 L386.257 275.609 L386.257 267.739 Q391.581 262.229 400.748 252.97 Q409.961 243.665 412.322 240.98 Q416.813 235.933 418.572 232.461 Q420.378 228.943 420.378 225.563 Q420.378 220.054 416.489 216.582 Q412.646 213.109 406.442 213.109 Q402.044 213.109 397.137 214.637 Q392.276 216.165 386.72 219.267 L386.72 209.822 Q392.368 207.554 397.276 206.396 Q402.183 205.239 406.257 205.239 Q416.998 205.239 423.387 210.609 Q429.776 215.98 429.776 224.961 Q429.776 229.22 428.155 233.063 Q426.581 236.859 422.368 242.044 Q421.211 243.387 415.007 249.822 Q408.803 256.211 397.507 267.739 Z" fill="#000000" fill-rule="nonzero" fill-opacity="1" /><path clip-path="url(#clip750)" d="M457.831 267.739 L490.47 267.739 L490.47 275.609 L446.581 275.609 L446.581 267.739 Q451.905 262.229 461.072 252.97 Q470.285 243.665 472.646 240.98 Q477.136 235.933 478.896 232.461 Q480.701 228.943 480.701 225.563 Q480.701 220.054 476.812 216.582 Q472.97 213.109 466.766 213.109 Q462.368 213.109 457.461 214.637 Q452.6 216.165 447.044 219.267 L447.044 209.822 Q452.692 207.554 457.6 206.396 Q462.507 205.239 466.581 205.239 Q477.322 205.239 483.71 210.609 Q490.099 215.98 490.099 224.961 Q490.099 229.22 488.479 233.063 Q486.905 236.859 482.692 242.044 Q481.535 243.387 475.331 249.822 Q469.127 256.211 457.831 267.739 Z" fill="#000000" fill-rule="nonzero" fill-opacity="1" /><path clip-path="url(#clip750)" d="M530.099 212.646 Q522.877 212.646 519.22 219.776 Q515.608 226.859 515.608 241.118 Q515.608 255.331 519.22 262.461 Q522.877 269.544 530.099 269.544 Q537.368 269.544 540.979 262.461 Q544.636 255.331 544.636 241.118 Q544.636 226.859 540.979 219.776 Q537.368 212.646 530.099 212.646 M530.099 205.239 Q541.719 205.239 547.831 214.452 Q553.988 223.619 553.988 241.118 Q553.988 258.572 547.831 267.785 Q541.719 276.952 530.099 276.952 Q518.479 276.952 512.321 267.785 Q506.21 258.572 506.21 241.118 Q506.21 223.619 512.321 214.452 Q518.479 205.239 530.099 205.239 Z" fill="#000000" fill-rule="nonzero" fill-opacity="1" /><path clip-path="url(#clip750)" d="M570.423 263.85 L580.191 263.85 L580.191 275.609 L570.423 275.609 L570.423 263.85 Z" fill="#000000" fill-rule="nonzero" fill-opacity="1" /><path clip-path="url(#clip750)" d="M620.562 212.646 Q613.339 212.646 609.682 219.776 Q606.071 226.859 606.071 241.118 Q606.071 255.331 609.682 262.461 Q613.339 269.544 620.562 269.544 Q627.83 269.544 631.441 262.461 Q635.099 255.331 635.099 241.118 Q635.099 226.859 631.441 219.776 Q627.83 212.646 620.562 212.646 M620.562 205.239 Q632.182 205.239 638.293 214.452 Q644.45 223.619 644.45 241.118 Q644.45 258.572 638.293 267.785 Q632.182 276.952 620.562 276.952 Q608.941 276.952 602.784 267.785 Q596.673 258.572 596.673 241.118 Q596.673 223.619 602.784 214.452 Q608.941 205.239 620.562 205.239 Z" fill="#000000" fill-rule="nonzero" fill-opacity="1" /><path clip-path="url(#clip750)" d="M311.051 931.4 L348.863 931.4 L348.863 943.176 L250.449 943.176 L250.449 931.4 L261.271 931.4 Q254.905 927.708 251.85 922.106 Q248.731 916.44 248.731 908.61 Q248.731 895.624 259.043 887.54 Q269.356 879.392 286.161 879.392 Q302.966 879.392 313.279 887.54 Q323.591 895.624 323.591 908.61 Q323.591 916.44 320.536 922.106 Q317.417 927.708 311.051 931.4 M286.161 891.55 Q273.239 891.55 265.918 896.898 Q258.534 902.181 258.534 911.475 Q258.534 920.769 265.918 926.116 Q273.239 931.4 286.161 931.4 Q299.083 931.4 306.468 926.116 Q313.788 920.769 313.788 911.475 Q313.788 902.181 306.468 896.898 Q299.083 891.55 286.161 891.55 Z" fill="#000000" fill-rule="nonzero" fill-opacity="1" /><path clip-path="url(#clip750)" d="M285.906 827.575 Q285.906 841.771 289.153 847.245 Q292.399 852.72 300.229 852.72 Q306.468 852.72 310.16 848.645 Q313.788 844.508 313.788 837.442 Q313.788 827.702 306.913 821.846 Q299.975 815.926 288.516 815.926 L285.906 815.926 L285.906 827.575 M281.068 804.213 L321.745 804.213 L321.745 815.926 L310.924 815.926 Q317.417 819.936 320.536 825.92 Q323.591 831.904 323.591 840.561 Q323.591 851.51 317.48 858.003 Q311.306 864.432 300.993 864.432 Q288.962 864.432 282.851 856.412 Q276.74 848.327 276.74 832.349 L276.74 815.926 L275.594 815.926 Q267.509 815.926 263.117 821.273 Q258.661 826.556 258.661 836.169 Q258.661 842.28 260.125 848.073 Q261.589 853.865 264.518 859.213 L253.696 859.213 Q251.213 852.783 250.004 846.736 Q248.731 840.688 248.731 834.959 Q248.731 819.491 256.751 811.852 Q264.772 804.213 281.068 804.213 Z" fill="#000000" fill-rule="nonzero" fill-opacity="1" /><path clip-path="url(#clip750)" d="M261.398 738.773 Q260.253 740.747 259.743 743.102 Q259.17 745.394 259.17 748.195 Q259.17 758.125 265.663 763.472 Q272.093 768.756 284.188 768.756 L321.745 768.756 L321.745 780.532 L250.449 780.532 L250.449 768.756 L261.526 768.756 Q255.033 765.064 251.914 759.144 Q248.731 753.224 248.731 744.757 Q248.731 743.548 248.922 742.084 Q249.049 740.619 249.367 738.837 L261.398 738.773 Z" fill="#000000" fill-rule="nonzero" fill-opacity="1" /><path clip-path="url(#clip750)" d="M283.169 668.369 L288.898 668.369 L288.898 722.223 Q300.993 721.459 307.359 714.966 Q313.661 708.409 313.661 696.76 Q313.661 690.012 312.006 683.71 Q310.351 677.344 307.041 671.106 L318.117 671.106 Q320.79 677.408 322.191 684.028 Q323.591 690.649 323.591 697.46 Q323.591 714.52 313.661 724.514 Q303.73 734.445 286.798 734.445 Q269.292 734.445 259.043 725.023 Q248.731 715.539 248.731 699.497 Q248.731 685.11 258.025 676.771 Q267.255 668.369 283.169 668.369 M279.732 680.082 Q270.119 680.209 264.39 685.492 Q258.661 690.712 258.661 699.37 Q258.661 709.173 264.199 715.093 Q269.737 720.949 279.795 721.841 L279.732 680.082 Z" fill="#000000" fill-rule="nonzero" fill-opacity="1" /><path clip-path="url(#clip750)" d="M278.713 589.88 L321.745 589.88 L321.745 601.592 L279.095 601.592 Q268.974 601.592 263.945 605.539 Q258.916 609.486 258.916 617.379 Q258.916 626.864 264.963 632.339 Q271.011 637.813 281.45 637.813 L321.745 637.813 L321.745 649.59 L250.449 649.59 L250.449 637.813 L261.526 637.813 Q255.096 633.612 251.914 627.946 Q248.731 622.217 248.731 614.769 Q248.731 602.484 256.37 596.182 Q263.945 589.88 278.713 589.88 Z" fill="#000000" fill-rule="nonzero" fill-opacity="1" /><path clip-path="url(#clip750)" d="M305.576 564.862 L305.576 551.431 L321.745 551.431 L321.745 564.862 L305.576 564.862 Z" fill="#000000" fill-rule="nonzero" fill-opacity="1" /><path clip-path="url(#clip750)" d="M310.924 479.753 L310.924 458.746 L238.418 458.746 L243.002 481.599 L231.289 481.599 L226.705 458.873 L226.705 446.015 L310.924 446.015 L310.924 425.008 L321.745 425.008 L321.745 479.753 L310.924 479.753 Z" fill="#000000" fill-rule="nonzero" fill-opacity="1" /><polyline clip-path="url(#clip752)" style="stroke:#008000; stroke-linecap:round; stroke-linejoin:round; stroke-width:8; stroke-opacity:1; fill:none" points="726.443,272.389 844.372,393.916 962.301,584.797 1080.23,682.619 1198.16,565.583 1316.09,802.552 1434.02,857.426 1551.95,835.869 1669.87,1019.59 1787.8,1144.51 1905.73,1120.41 2023.66,1138.63 2141.59,1217.96 2259.52,1174.95 "/>
<circle clip-path="url(#clip752)" cx="726.443" cy="272.389" r="14.4" fill="#008000" fill-rule="evenodd" fill-opacity="1" stroke="#000000" stroke-opacity="1" stroke-width="6.4"/>
<circle clip-path="url(#clip752)" cx="844.372" cy="393.916" r="14.4" fill="#008000" fill-rule="evenodd" fill-opacity="1" stroke="#000000" stroke-opacity="1" stroke-width="6.4"/>
<circle clip-path="url(#clip752)" cx="962.301" cy="584.797" r="14.4" fill="#008000" fill-rule="evenodd" fill-opacity="1" stroke="#000000" stroke-opacity="1" stroke-width="6.4"/>
<circle clip-path="url(#clip752)" cx="1080.23" cy="682.619" r="14.4" fill="#008000" fill-rule="evenodd" fill-opacity="1" stroke="#000000" stroke-opacity="1" stroke-width="6.4"/>
<circle clip-path="url(#clip752)" cx="1198.16" cy="565.583" r="14.4" fill="#008000" fill-rule="evenodd" fill-opacity="1" stroke="#000000" stroke-opacity="1" stroke-width="6.4"/>
<circle clip-path="url(#clip752)" cx="1316.09" cy="802.552" r="14.4" fill="#008000" fill-rule="evenodd" fill-opacity="1" stroke="#000000" stroke-opacity="1" stroke-width="6.4"/>
<circle clip-path="url(#clip752)" cx="1434.02" cy="857.426" r="14.4" fill="#008000" fill-rule="evenodd" fill-opacity="1" stroke="#000000" stroke-opacity="1" stroke-width="6.4"/>
<circle clip-path="url(#clip752)" cx="1551.95" cy="835.869" r="14.4" fill="#008000" fill-rule="evenodd" fill-opacity="1" stroke="#000000" stroke-opacity="1" stroke-width="6.4"/>
<circle clip-path="url(#clip752)" cx="1669.87" cy="1019.59" r="14.4" fill="#008000" fill-rule="evenodd" fill-opacity="1" stroke="#000000" stroke-opacity="1" stroke-width="6.4"/>
<circle clip-path="url(#clip752)" cx="1787.8" cy="1144.51" r="14.4" fill="#008000" fill-rule="evenodd" fill-opacity="1" stroke="#000000" stroke-opacity="1" stroke-width="6.4"/>
<circle clip-path="url(#clip752)" cx="1905.73" cy="1120.41" r="14.4" fill="#008000" fill-rule="evenodd" fill-opacity="1" stroke="#000000" stroke-opacity="1" stroke-width="6.4"/>
<circle clip-path="url(#clip752)" cx="2023.66" cy="1138.63" r="14.4" fill="#008000" fill-rule="evenodd" fill-opacity="1" stroke="#000000" stroke-opacity="1" stroke-width="6.4"/>
<circle clip-path="url(#clip752)" cx="2141.59" cy="1217.96" r="14.4" fill="#008000" fill-rule="evenodd" fill-opacity="1" stroke="#000000" stroke-opacity="1" stroke-width="6.4"/>
<circle clip-path="url(#clip752)" cx="2259.52" cy="1174.95" r="14.4" fill="#008000" fill-rule="evenodd" fill-opacity="1" stroke="#000000" stroke-opacity="1" stroke-width="6.4"/>
<polyline clip-path="url(#clip752)" style="stroke:#00008b; stroke-linecap:round; stroke-linejoin:round; stroke-width:8; stroke-opacity:1; fill:none" points="726.443,166.331 844.372,394.425 962.301,541.261 1080.23,651.845 1198.16,739.336 1316.09,819.086 1434.02,887.797 1551.95,942.736 1669.87,998.744 1787.8,1048.69 1905.73,1093.71 2023.66,1133.19 2141.59,1170.22 2259.52,1203.64 "/>
<path clip-path="url(#clip752)" d="M726.443 203.68 L844.372 430.486 L962.301 580.131 L1080.23 691.133 L1198.16 778.214 L1316.09 858.148 L1434.02 927.372 L1551.95 981.493 L1669.87 1036.33 L1787.8 1085.15 L1905.73 1133.18 L2023.66 1171.74 L2141.59 1212.03 L2259.52 1240.32 L2259.52 1165.45 L2141.59 1130.86 L2023.66 1094.57 L1905.73 1055.11 L1787.8 1009.85 L1669.87 960.583 L1551.95 904.429 L1434.02 849.631 L1316.09 781.949 L1198.16 698.672 L1080.23 612.827 L962.301 503.587 L844.372 355.228 L726.443 127.862  Z" fill="#0000ff" fill-rule="evenodd" fill-opacity="0.1"/>
<polyline clip-path="url(#clip752)" style="stroke:#0000ff; stroke-linecap:round; stroke-linejoin:round; stroke-width:0; stroke-opacity:0.1; fill:none" points="726.443,203.68 844.372,430.486 962.301,580.131 1080.23,691.133 1198.16,778.214 1316.09,858.148 1434.02,927.372 1551.95,981.493 1669.87,1036.33 1787.8,1085.15 1905.73,1133.18 2023.66,1171.74 2141.59,1212.03 2259.52,1240.32 "/>
</svg>
