<?xml version="1.0" encoding="utf-8"?>
<svg xmlns="http://www.w3.org/2000/svg" xmlns:xlink="http://www.w3.org/1999/xlink" width="600" height="400" viewBox="0 0 2400 1600">
<defs>
  <clipPath id="clip410">
    <rect x="0" y="0" width="2400" height="1600"/>
  </clipPath>
</defs>
<path clip-path="url(#clip410)" d="M0 1600 L2400 1600 L2400 0 L0 0  Z" fill="#ffffff" fill-rule="evenodd" fill-opacity="1"/>
<defs>
  <clipPath id="clip411">
    <rect x="480" y="0" width="1681" height="1600"/>
  </clipPath>
</defs>
<path clip-path="url(#clip410)" d="M680.45 1273.7 L2305.51 1273.7 L2305.51 94.4882 L680.45 94.4882  Z" fill="#ffffff" fill-rule="evenodd" fill-opacity="1"/>
<defs>
  <clipPath id="clip412">
    <rect x="680" y="94" width="1626" height="1180"/>
  </clipPath>
</defs>
<polyline clip-path="url(#clip412)" style="stroke:#000000; stroke-linecap:round; stroke-linejoin:round; stroke-width:4; stroke-opacity:0.1; fill:none" points="726.443,1273.7 726.443,94.4882 "/>
<polyline clip-path="url(#clip412)" style="stroke:#000000; stroke-linecap:round; stroke-linejoin:round; stroke-width:4; stroke-opacity:0.1; fill:none" points="962.301,1273.7 962.301,94.4882 "/>
<polyline clip-path="url(#clip412)" style="stroke:#000000; stroke-linecap:round; stroke-linejoin:round; stroke-width:4; stroke-opacity:0.1; fill:none" points="1198.16,1273.7 1198.16,94.4882 "/>
<polyline clip-path="url(#clip412)" style="stroke:#000000; stroke-linecap:round; stroke-linejoin:round; stroke-width:4; stroke-opacity:0.1; fill:none" points="1434.02,1273.7 1434.02,94.4882 "/>
<polyline clip-path="url(#clip412)" style="stroke:#000000; stroke-linecap:round; stroke-linejoin:round; stroke-width:4; stroke-opacity:0.1; fill:none" points="1669.87,1273.7 1669.87,94.4882 "/>
<polyline clip-path="url(#clip412)" style="stroke:#000000; stroke-linecap:round; stroke-linejoin:round; stroke-width:4; stroke-opacity:0.1; fill:none" points="1905.73,1273.7 1905.73,94.4882 "/>
<polyline clip-path="url(#clip412)" style="stroke:#000000; stroke-linecap:round; stroke-linejoin:round; stroke-width:4; stroke-opacity:0.1; fill:none" points="2141.59,1273.7 2141.59,94.4882 "/>
<polyline clip-path="url(#clip410)" style="stroke:#000000; stroke-linecap:round; stroke-linejoin:round; stroke-width:8; stroke-opacity:1; fill:none" points="680.45,1273.7 2305.51,1273.7 "/>
<polyline clip-path="url(#clip410)" style="stroke:#000000; stroke-linecap:round; stroke-linejoin:round; stroke-width:8; stroke-opacity:1; fill:none" points="726.443,1273.7 726.443,1254.8 "/>
<polyline clip-path="url(#clip410)" style="stroke:#000000; stroke-linecap:round; stroke-linejoin:round; stroke-width:8; stroke-opacity:1; fill:none" points="962.301,1273.7 962.301,1254.8 "/>
<polyline clip-path="url(#clip410)" style="stroke:#000000; stroke-linecap:round; stroke-linejoin:round; stroke-width:8; stroke-opacity:1; fill:none" points="1198.16,1273.7 1198.16,1254.8 "/>
<polyline clip-path="url(#clip410)" style="stroke:#000000; stroke-linecap:round; stroke-linejoin:round; stroke-width:8; stroke-opacity:1; fill:none" points="1434.02,1273.7 1434.02,1254.8 "/>
<polyline clip-path="url(#clip410)" style="stroke:#000000; stroke-linecap:round; stroke-linejoin:round; stroke-width:8; stroke-opacity:1; fill:none" points="1669.87,1273.7 1669.87,1254.8 "/>
<polyline clip-path="url(#clip410)" style="stroke:#000000; stroke-linecap:round; stroke-linejoin:round; stroke-width:8; stroke-opacity:1; fill:none" points="1905.73,1273.7 1905.73,1254.8 "/>
<polyline clip-path="url(#clip410)" style="stroke:#000000; stroke-linecap:round; stroke-linejoin:round; stroke-width:8; stroke-opacity:1; fill:none" points="2141.59,1273.7 2141.59,1254.8 "/>
<path clip-path="url(#clip410)" d="M681.211 1316.33 Q673.989 1316.33 670.332 1323.46 Q666.721 1330.55 666.721 1344.81 Q666.721 1359.02 670.332 1366.15 Q673.989 1373.23 681.211 1373.23 Q688.48 1373.23 692.091 1366.15 Q695.748 1359.02 695.748 1344.81 Q695.748 1330.55 692.091 1323.46 Q688.48 1316.33 681.211 1316.33 M681.211 1308.93 Q692.832 1308.93 698.943 1318.14 Q705.1 1327.31 705.1 1344.81 Q705.1 1362.26 698.943 1371.47 Q692.832 1380.64 681.211 1380.64 Q669.591 1380.64 663.434 1371.47 Q657.323 1362.26 657.323 1344.81 Q657.323 1327.31 663.434 1318.14 Q669.591 1308.93 681.211 1308.93 Z" fill="#000000" fill-rule="nonzero" fill-opacity="1" /><path clip-path="url(#clip410)" d="M721.535 1367.54 L731.304 1367.54 L731.304 1379.3 L721.535 1379.3 L721.535 1367.54 Z" fill="#000000" fill-rule="nonzero" fill-opacity="1" /><path clip-path="url(#clip410)" d="M771.674 1316.33 Q764.452 1316.33 760.794 1323.46 Q757.183 1330.55 757.183 1344.81 Q757.183 1359.02 760.794 1366.15 Q764.452 1373.23 771.674 1373.23 Q778.942 1373.23 782.553 1366.15 Q786.211 1359.02 786.211 1344.81 Q786.211 1330.55 782.553 1323.46 Q778.942 1316.33 771.674 1316.33 M771.674 1308.93 Q783.294 1308.93 789.405 1318.14 Q795.563 1327.31 795.563 1344.81 Q795.563 1362.26 789.405 1371.47 Q783.294 1380.64 771.674 1380.64 Q760.054 1380.64 753.896 1371.47 Q747.785 1362.26 747.785 1344.81 Q747.785 1327.31 753.896 1318.14 Q760.054 1308.93 771.674 1308.93 Z" fill="#000000" fill-rule="nonzero" fill-opacity="1" /><path clip-path="url(#clip410)" d="M918.667 1316.33 Q911.444 1316.33 907.787 1323.46 Q904.176 1330.55 904.176 1344.81 Q904.176 1359.02 907.787 1366.15 Q911.444 1373.23 918.667 1373.23 Q925.935 1373.23 929.546 1366.15 Q933.204 1359.02 933.204 1344.81 Q933.204 1330.55 929.546 1323.46 Q925.935 1316.33 918.667 1316.33 M918.667 1308.93 Q930.287 1308.93 936.398 1318.14 Q942.555 1327.31 942.555 1344.81 Q942.555 1362.26 936.398 1371.47 Q930.287 1380.64 918.667 1380.64 Q907.046 1380.64 900.889 1371.47 Q894.778 1362.26 894.778 1344.81 Q894.778 1327.31 900.889 1318.14 Q907.046 1308.93 918.667 1308.93 Z" fill="#000000" fill-rule="nonzero" fill-opacity="1" /><path clip-path="url(#clip410)" d="M958.99 1367.54 L968.759 1367.54 L968.759 1379.3 L958.99 1379.3 L958.99 1367.54 Z" fill="#000000" fill-rule="nonzero" fill-opacity="1" /><path clip-path="url(#clip410)" d="M997.185 1371.43 L1029.82 1371.43 L1029.82 1379.3 L985.935 1379.3 L985.935 1371.43 Q991.259 1365.92 1000.43 1356.66 Q1009.64 1347.35 1012 1344.67 Q1016.49 1339.62 1018.25 1336.15 Q1020.05 1332.63 1020.05 1329.25 Q1020.05 1323.74 1016.17 1320.27 Q1012.32 1316.8 1006.12 1316.8 Q1001.72 1316.8 996.814 1318.32 Q991.953 1319.85 986.398 1322.95 L986.398 1313.51 Q992.046 1311.24 996.953 1310.08 Q1001.86 1308.93 1005.93 1308.93 Q1016.68 1308.93 1023.06 1314.3 Q1029.45 1319.67 1029.45 1328.65 Q1029.45 1332.91 1027.83 1336.75 Q1026.26 1340.55 1022.05 1345.73 Q1020.89 1347.07 1014.68 1353.51 Q1008.48 1359.9 997.185 1371.43 Z" fill="#000000" fill-rule="nonzero" fill-opacity="1" /><path clip-path="url(#clip410)" d="M1152.44 1316.33 Q1145.22 1316.33 1141.56 1323.46 Q1137.95 1330.55 1137.95 1344.81 Q1137.95 1359.02 1141.56 1366.15 Q1145.22 1373.23 1152.44 1373.23 Q1159.71 1373.23 1163.32 1366.15 Q1166.98 1359.02 1166.98 1344.81 Q1166.98 1330.55 1163.32 1323.46 Q1159.71 1316.33 1152.44 1316.33 M1152.44 1308.93 Q1164.06 1308.93 1170.17 1318.14 Q1176.33 1327.31 1176.33 1344.81 Q1176.33 1362.26 1170.17 1371.47 Q1164.06 1380.64 1152.44 1380.64 Q1140.82 1380.64 1134.66 1371.47 Q1128.55 1362.26 1128.55 1344.81 Q1128.55 1327.31 1134.66 1318.14 Q1140.82 1308.93 1152.44 1308.93 Z" fill="#000000" fill-rule="nonzero" fill-opacity="1" /><path clip-path="url(#clip410)" d="M1192.77 1367.54 L1202.53 1367.54 L1202.53 1379.3 L1192.77 1379.3 L1192.77 1367.54 Z" fill="#000000" fill-rule="nonzero" fill-opacity="1" /><path clip-path="url(#clip410)" d="M1248.6 1318.32 L1224.99 1355.22 L1248.6 1355.22 L1248.6 1318.32 M1246.14 1310.18 L1257.9 1310.18 L1257.9 1355.22 L1267.76 1355.22 L1267.76 1363 L1257.9 1363 L1257.9 1379.3 L1248.6 1379.3 L1248.6 1363 L1217.39 1363 L1217.39 1353.97 L1246.14 1310.18 Z" fill="#000000" fill-rule="nonzero" fill-opacity="1" /><path clip-path="url(#clip410)" d="M1388.62 1316.33 Q1381.4 1316.33 1377.74 1323.46 Q1374.13 1330.55 1374.13 1344.81 Q1374.13 1359.02 1377.74 1366.15 Q1381.4 1373.23 1388.62 1373.23 Q1395.89 1373.23 1399.5 1366.15 Q1403.16 1359.02 1403.16 1344.81 Q1403.16 1330.55 1399.5 1323.46 Q1395.89 1316.33 1388.62 1316.33 M1388.62 1308.93 Q1400.24 1308.93 1406.35 1318.14 Q1412.51 1327.31 1412.51 1344.81 Q1412.51 1362.26 1406.35 1371.47 Q1400.24 1380.64 1388.62 1380.64 Q1377 1380.64 1370.85 1371.47 Q1364.73 1362.26 1364.73 1344.81 Q1364.73 1327.31 1370.85 1318.14 Q1377 1308.93 1388.62 1308.93 Z" fill="#000000" fill-rule="nonzero" fill-opacity="1" /><path clip-path="url(#clip410)" d="M1428.95 1367.54 L1438.72 1367.54 L1438.72 1379.3 L1428.95 1379.3 L1428.95 1367.54 Z" fill="#000000" fill-rule="nonzero" fill-opacity="1" /><path clip-path="url(#clip410)" d="M1480.24 1341.01 Q1473.95 1341.01 1470.24 1345.31 Q1466.59 1349.62 1466.59 1357.12 Q1466.59 1364.57 1470.24 1368.93 Q1473.95 1373.23 1480.24 1373.23 Q1486.54 1373.23 1490.2 1368.93 Q1493.9 1364.57 1493.9 1357.12 Q1493.9 1349.62 1490.2 1345.31 Q1486.54 1341.01 1480.24 1341.01 M1498.81 1311.7 L1498.81 1320.22 Q1495.29 1318.56 1491.68 1317.68 Q1488.11 1316.8 1484.6 1316.8 Q1475.34 1316.8 1470.43 1323.05 Q1465.57 1329.3 1464.87 1341.93 Q1467.6 1337.91 1471.72 1335.78 Q1475.85 1333.6 1480.8 1333.6 Q1491.22 1333.6 1497.23 1339.94 Q1503.3 1346.24 1503.3 1357.12 Q1503.3 1367.77 1497 1374.2 Q1490.71 1380.64 1480.24 1380.64 Q1468.25 1380.64 1461.91 1371.47 Q1455.57 1362.26 1455.57 1344.81 Q1455.57 1328.42 1463.35 1318.69 Q1471.12 1308.93 1484.22 1308.93 Q1487.74 1308.93 1491.31 1309.62 Q1494.92 1310.31 1498.81 1311.7 Z" fill="#000000" fill-rule="nonzero" fill-opacity="1" /><path clip-path="url(#clip410)" d="M1624.74 1316.33 Q1617.51 1316.33 1613.86 1323.46 Q1610.25 1330.55 1610.25 1344.81 Q1610.25 1359.02 1613.86 1366.15 Q1617.51 1373.23 1624.74 1373.23 Q1632 1373.23 1635.62 1366.15 Q1639.27 1359.02 1639.27 1344.81 Q1639.27 1330.55 1635.62 1323.46 Q1632 1316.33 1624.74 1316.33 M1624.74 1308.93 Q1636.36 1308.93 1642.47 1318.14 Q1648.62 1327.31 1648.62 1344.81 Q1648.62 1362.26 1642.47 1371.47 Q1636.36 1380.64 1624.74 1380.64 Q1613.12 1380.64 1606.96 1371.47 Q1600.85 1362.26 1600.85 1344.81 Q1600.85 1327.31 1606.96 1318.14 Q1613.12 1308.93 1624.74 1308.93 Z" fill="#000000" fill-rule="nonzero" fill-opacity="1" /><path clip-path="url(#clip410)" d="M1665.06 1367.54 L1674.83 1367.54 L1674.83 1379.3 L1665.06 1379.3 L1665.06 1367.54 Z" fill="#000000" fill-rule="nonzero" fill-opacity="1" /><path clip-path="url(#clip410)" d="M1715.2 1346.47 Q1708.53 1346.47 1704.69 1350.04 Q1700.89 1353.6 1700.89 1359.85 Q1700.89 1366.1 1704.69 1369.67 Q1708.53 1373.23 1715.2 1373.23 Q1721.87 1373.23 1725.71 1369.67 Q1729.55 1366.06 1729.55 1359.85 Q1729.55 1353.6 1725.71 1350.04 Q1721.91 1346.47 1715.2 1346.47 M1705.85 1342.49 Q1699.83 1341.01 1696.45 1336.89 Q1693.12 1332.77 1693.12 1326.84 Q1693.12 1318.56 1698.99 1313.74 Q1704.92 1308.93 1715.2 1308.93 Q1725.52 1308.93 1731.4 1313.74 Q1737.28 1318.56 1737.28 1326.84 Q1737.28 1332.77 1733.9 1336.89 Q1730.57 1341.01 1724.6 1342.49 Q1731.36 1344.06 1735.11 1348.65 Q1738.9 1353.23 1738.9 1359.85 Q1738.9 1369.9 1732.74 1375.27 Q1726.63 1380.64 1715.2 1380.64 Q1703.76 1380.64 1697.61 1375.27 Q1691.49 1369.9 1691.49 1359.85 Q1691.49 1353.23 1695.29 1348.65 Q1699.09 1344.06 1705.85 1342.49 M1702.42 1327.72 Q1702.42 1333.09 1705.75 1336.1 Q1709.13 1339.11 1715.2 1339.11 Q1721.22 1339.11 1724.6 1336.1 Q1728.02 1333.09 1728.02 1327.72 Q1728.02 1322.35 1724.6 1319.34 Q1721.22 1316.33 1715.2 1316.33 Q1709.13 1316.33 1705.75 1319.34 Q1702.42 1322.35 1702.42 1327.72 Z" fill="#000000" fill-rule="nonzero" fill-opacity="1" /><path clip-path="url(#clip410)" d="M1840.04 1371.43 L1855.32 1371.43 L1855.32 1318.69 L1838.7 1322.03 L1838.7 1313.51 L1855.22 1310.18 L1864.58 1310.18 L1864.58 1371.43 L1879.85 1371.43 L1879.85 1379.3 L1840.04 1379.3 L1840.04 1371.43 Z" fill="#000000" fill-rule="nonzero" fill-opacity="1" /><path clip-path="url(#clip410)" d="M1898.74 1367.54 L1908.51 1367.54 L1908.51 1379.3 L1898.74 1379.3 L1898.74 1367.54 Z" fill="#000000" fill-rule="nonzero" fill-opacity="1" /><path clip-path="url(#clip410)" d="M1948.88 1316.33 Q1941.66 1316.33 1938 1323.46 Q1934.39 1330.55 1934.39 1344.81 Q1934.39 1359.02 1938 1366.15 Q1941.66 1373.23 1948.88 1373.23 Q1956.15 1373.23 1959.76 1366.15 Q1963.42 1359.02 1963.42 1344.81 Q1963.42 1330.55 1959.76 1323.46 Q1956.15 1316.33 1948.88 1316.33 M1948.88 1308.93 Q1960.5 1308.93 1966.61 1318.14 Q1972.77 1327.31 1972.77 1344.81 Q1972.77 1362.26 1966.61 1371.47 Q1960.5 1380.64 1948.88 1380.64 Q1937.26 1380.64 1931.1 1371.47 Q1924.99 1362.26 1924.99 1344.81 Q1924.99 1327.31 1931.1 1318.14 Q1937.26 1308.93 1948.88 1308.93 Z" fill="#000000" fill-rule="nonzero" fill-opacity="1" /><path clip-path="url(#clip410)" d="M2077.49 1371.43 L2092.77 1371.43 L2092.77 1318.69 L2076.15 1322.03 L2076.15 1313.51 L2092.68 1310.18 L2102.03 1310.18 L2102.03 1371.43 L2117.31 1371.43 L2117.31 1379.3 L2077.49 1379.3 L2077.49 1371.43 Z" fill="#000000" fill-rule="nonzero" fill-opacity="1" /><path clip-path="url(#clip410)" d="M2136.2 1367.54 L2145.97 1367.54 L2145.97 1379.3 L2136.2 1379.3 L2136.2 1367.54 Z" fill="#000000" fill-rule="nonzero" fill-opacity="1" /><path clip-path="url(#clip410)" d="M2174.39 1371.43 L2207.03 1371.43 L2207.03 1379.3 L2163.14 1379.3 L2163.14 1371.43 Q2168.47 1365.92 2177.63 1356.66 Q2186.84 1347.35 2189.21 1344.67 Q2193.7 1339.62 2195.46 1336.15 Q2197.26 1332.63 2197.26 1329.25 Q2197.26 1323.74 2193.37 1320.27 Q2189.53 1316.8 2183.33 1316.8 Q2178.93 1316.8 2174.02 1318.32 Q2169.16 1319.85 2163.6 1322.95 L2163.6 1313.51 Q2169.25 1311.24 2174.16 1310.08 Q2179.07 1308.93 2183.14 1308.93 Q2193.88 1308.93 2200.27 1314.3 Q2206.66 1319.67 2206.66 1328.65 Q2206.66 1332.91 2205.04 1336.75 Q2203.47 1340.55 2199.25 1345.73 Q2198.09 1347.07 2191.89 1353.51 Q2185.69 1359.9 2174.39 1371.43 Z" fill="#000000" fill-rule="nonzero" fill-opacity="1" /><path clip-path="url(#clip410)" d="M1378.53 1484.39 L1378.53 1527.42 L1366.81 1527.42 L1366.81 1484.77 Q1366.81 1474.65 1362.87 1469.62 Q1358.92 1464.59 1351.03 1464.59 Q1341.54 1464.59 1336.07 1470.64 Q1330.59 1476.69 1330.59 1487.13 L1330.59 1527.42 L1318.82 1527.42 L1318.82 1428.37 L1330.59 1428.37 L1330.59 1467.2 Q1334.79 1460.77 1340.46 1457.59 Q1346.19 1454.41 1353.64 1454.41 Q1365.92 1454.41 1372.22 1462.05 Q1378.53 1469.62 1378.53 1484.39 Z" fill="#000000" fill-rule="nonzero" fill-opacity="1" /><path clip-path="url(#clip410)" d="M1429.51 1464.34 Q1420.09 1464.34 1414.62 1471.72 Q1409.14 1479.04 1409.14 1491.84 Q1409.14 1504.63 1414.56 1512.02 Q1420.03 1519.34 1429.51 1519.34 Q1438.87 1519.34 1444.35 1511.96 Q1449.82 1504.57 1449.82 1491.84 Q1449.82 1479.17 1444.35 1471.79 Q1438.87 1464.34 1429.51 1464.34 M1429.51 1454.41 Q1444.79 1454.41 1453.51 1464.34 Q1462.23 1474.27 1462.23 1491.84 Q1462.23 1509.35 1453.51 1519.34 Q1444.79 1529.27 1429.51 1529.27 Q1414.17 1529.27 1405.45 1519.34 Q1396.8 1509.35 1396.8 1491.84 Q1396.8 1474.27 1405.45 1464.34 Q1414.17 1454.41 1429.51 1454.41 Z" fill="#000000" fill-rule="nonzero" fill-opacity="1" /><path clip-path="url(#clip410)" d="M1480.44 1499.29 L1480.44 1456.13 L1492.15 1456.13 L1492.15 1498.84 Q1492.15 1508.96 1496.1 1514.06 Q1500.05 1519.08 1507.94 1519.08 Q1517.43 1519.08 1522.9 1513.04 Q1528.44 1506.99 1528.44 1496.55 L1528.44 1456.13 L1540.15 1456.13 L1540.15 1527.42 L1528.44 1527.42 L1528.44 1516.47 Q1524.17 1522.97 1518.51 1526.15 Q1512.91 1529.27 1505.46 1529.27 Q1493.17 1529.27 1486.81 1521.63 Q1480.44 1513.99 1480.44 1499.29 M1509.91 1454.41 L1509.91 1454.41 Z" fill="#000000" fill-rule="nonzero" fill-opacity="1" /><path clip-path="url(#clip410)" d="M1605.59 1467.08 Q1603.62 1465.93 1601.26 1465.42 Q1598.97 1464.85 1596.17 1464.85 Q1586.24 1464.85 1580.89 1471.34 Q1575.61 1477.77 1575.61 1489.87 L1575.61 1527.42 L1563.83 1527.42 L1563.83 1456.13 L1575.61 1456.13 L1575.61 1467.2 Q1579.3 1460.71 1585.22 1457.59 Q1591.14 1454.41 1599.61 1454.41 Q1600.82 1454.41 1602.28 1454.6 Q1603.74 1454.73 1605.53 1455.05 L1605.59 1467.08 Z" fill="#000000" fill-rule="nonzero" fill-opacity="1" /><path clip-path="url(#clip410)" d="M1663.33 1458.23 L1663.33 1469.3 Q1658.36 1466.76 1653.01 1465.49 Q1647.67 1464.21 1641.94 1464.21 Q1633.22 1464.21 1628.83 1466.89 Q1624.5 1469.56 1624.5 1474.91 Q1624.5 1478.98 1627.62 1481.34 Q1630.73 1483.63 1640.16 1485.73 L1644.17 1486.62 Q1656.64 1489.29 1661.86 1494.19 Q1667.15 1499.03 1667.15 1507.75 Q1667.15 1517.68 1659.25 1523.48 Q1651.42 1529.27 1637.67 1529.27 Q1631.94 1529.27 1625.71 1528.12 Q1619.53 1527.04 1612.66 1524.81 L1612.66 1512.72 Q1619.15 1516.09 1625.45 1517.81 Q1631.75 1519.47 1637.93 1519.47 Q1646.2 1519.47 1650.66 1516.67 Q1655.12 1513.8 1655.12 1508.64 Q1655.12 1503.87 1651.87 1501.32 Q1648.69 1498.78 1637.8 1496.42 L1633.73 1495.47 Q1622.84 1493.18 1618 1488.47 Q1613.17 1483.69 1613.17 1475.42 Q1613.17 1465.36 1620.3 1459.88 Q1627.42 1454.41 1640.54 1454.41 Q1647.03 1454.41 1652.76 1455.36 Q1658.49 1456.32 1663.33 1458.23 Z" fill="#000000" fill-rule="nonzero" fill-opacity="1" /><polyline clip-path="url(#clip412)" style="stroke:#000000; stroke-linecap:round; stroke-linejoin:round; stroke-width:4; stroke-opacity:0.1; fill:none" points="680.45,1091.11 2305.51,1091.11 "/>
<polyline clip-path="url(#clip412)" style="stroke:#000000; stroke-linecap:round; stroke-linejoin:round; stroke-width:4; stroke-opacity:0.1; fill:none" points="680.45,881.476 2305.51,881.476 "/>
<polyline clip-path="url(#clip412)" style="stroke:#000000; stroke-linecap:round; stroke-linejoin:round; stroke-width:4; stroke-opacity:0.1; fill:none" points="680.45,671.847 2305.51,671.847 "/>
<polyline clip-path="url(#clip412)" style="stroke:#000000; stroke-linecap:round; stroke-linejoin:round; stroke-width:4; stroke-opacity:0.1; fill:none" points="680.45,462.218 2305.51,462.218 "/>
<polyline clip-path="url(#clip412)" style="stroke:#000000; stroke-linecap:round; stroke-linejoin:round; stroke-width:4; stroke-opacity:0.1; fill:none" points="680.45,252.589 2305.51,252.589 "/>
<polyline clip-path="url(#clip410)" style="stroke:#000000; stroke-linecap:round; stroke-linejoin:round; stroke-width:8; stroke-opacity:1; fill:none" points="680.45,1273.7 680.45,94.4882 "/>
<polyline clip-path="url(#clip410)" style="stroke:#000000; stroke-linecap:round; stroke-linejoin:round; stroke-width:8; stroke-opacity:1; fill:none" points="680.45,1091.11 699.348,1091.11 "/>
<polyline clip-path="url(#clip410)" style="stroke:#000000; stroke-linecap:round; stroke-linejoin:round; stroke-width:8; stroke-opacity:1; fill:none" points="680.45,881.476 699.348,881.476 "/>
<polyline clip-path="url(#clip410)" style="stroke:#000000; stroke-linecap:round; stroke-linejoin:round; stroke-width:8; stroke-opacity:1; fill:none" points="680.45,671.847 699.348,671.847 "/>
<polyline clip-path="url(#clip410)" style="stroke:#000000; stroke-linecap:round; stroke-linejoin:round; stroke-width:8; stroke-opacity:1; fill:none" points="680.45,462.218 699.348,462.218 "/>
<polyline clip-path="url(#clip410)" style="stroke:#000000; stroke-linecap:round; stroke-linejoin:round; stroke-width:8; stroke-opacity:1; fill:none" points="680.45,252.589 699.348,252.589 "/>
<path clip-path="url(#clip410)" d="M391.072 1117.8 L406.35 1117.8 L406.35 1065.06 L389.73 1068.4 L389.73 1059.88 L406.257 1056.55 L415.609 1056.55 L415.609 1117.8 L430.887 1117.8 L430.887 1125.67 L391.072 1125.67 L391.072 1117.8 Z" fill="#000000" fill-rule="nonzero" fill-opacity="1" /><path clip-path="url(#clip410)" d="M457.831 1117.8 L490.47 1117.8 L490.47 1125.67 L446.581 1125.67 L446.581 1117.8 Q451.905 1112.29 461.072 1103.03 Q470.285 1093.72 472.646 1091.04 Q477.136 1085.99 478.896 1082.52 Q480.701 1079 480.701 1075.62 Q480.701 1070.11 476.812 1066.64 Q472.97 1063.17 466.766 1063.17 Q462.368 1063.17 457.461 1064.69 Q452.6 1066.22 447.044 1069.32 L447.044 1059.88 Q452.692 1057.61 457.6 1056.45 Q462.507 1055.3 466.581 1055.3 Q477.322 1055.3 483.71 1060.67 Q490.099 1066.04 490.099 1075.02 Q490.099 1079.28 488.479 1083.12 Q486.905 1086.92 482.692 1092.1 Q481.535 1093.44 475.331 1099.88 Q469.127 1106.27 457.831 1117.8 Z" fill="#000000" fill-rule="nonzero" fill-opacity="1" /><path clip-path="url(#clip410)" d="M510.192 1056.55 L546.905 1056.55 L546.905 1064.42 L518.757 1064.42 L518.757 1081.36 Q520.794 1080.67 522.831 1080.34 Q524.868 1079.97 526.905 1079.97 Q538.479 1079.97 545.238 1086.31 Q551.997 1092.66 551.997 1103.49 Q551.997 1114.65 545.053 1120.85 Q538.108 1127.01 525.47 1127.01 Q521.118 1127.01 516.581 1126.27 Q512.09 1125.53 507.275 1124.05 L507.275 1114.65 Q511.442 1116.92 515.886 1118.03 Q520.331 1119.14 525.284 1119.14 Q533.294 1119.14 537.969 1114.92 Q542.645 1110.71 542.645 1103.49 Q542.645 1096.27 537.969 1092.05 Q533.294 1087.84 525.284 1087.84 Q521.534 1087.84 517.784 1088.68 Q514.081 1089.51 510.192 1091.27 L510.192 1056.55 Z" fill="#000000" fill-rule="nonzero" fill-opacity="1" /><path clip-path="url(#clip410)" d="M570.423 1113.91 L580.191 1113.91 L580.191 1125.67 L570.423 1125.67 L570.423 1113.91 Z" fill="#000000" fill-rule="nonzero" fill-opacity="1" /><path clip-path="url(#clip410)" d="M620.562 1062.7 Q613.339 1062.7 609.682 1069.83 Q606.071 1076.92 606.071 1091.18 Q606.071 1105.39 609.682 1112.52 Q613.339 1119.6 620.562 1119.6 Q627.83 1119.6 631.441 1112.52 Q635.099 1105.39 635.099 1091.18 Q635.099 1076.92 631.441 1069.83 Q627.83 1062.7 620.562 1062.7 M620.562 1055.3 Q632.182 1055.3 638.293 1064.51 Q644.45 1073.68 644.45 1091.18 Q644.45 1108.63 638.293 1117.84 Q632.182 1127.01 620.562 1127.01 Q608.941 1127.01 602.784 1117.84 Q596.673 1108.63 596.673 1091.18 Q596.673 1073.68 602.784 1064.51 Q608.941 1055.3 620.562 1055.3 Z" fill="#000000" fill-rule="nonzero" fill-opacity="1" /><path clip-path="url(#clip410)" d="M391.072 908.166 L406.35 908.166 L406.35 855.435 L389.73 858.768 L389.73 850.25 L406.257 846.916 L415.609 846.916 L415.609 908.166 L430.887 908.166 L430.887 916.036 L391.072 916.036 L391.072 908.166 Z" fill="#000000" fill-rule="nonzero" fill-opacity="1" /><path clip-path="url(#clip410)" d="M449.868 846.916 L486.581 846.916 L486.581 854.787 L458.433 854.787 L458.433 871.731 Q460.47 871.037 462.507 870.713 Q464.544 870.342 466.581 870.342 Q478.155 870.342 484.914 876.685 Q491.673 883.027 491.673 893.861 Q491.673 905.018 484.729 911.222 Q477.785 917.379 465.146 917.379 Q460.794 917.379 456.257 916.638 Q451.766 915.897 446.951 914.416 L446.951 905.018 Q451.118 907.286 455.562 908.397 Q460.007 909.509 464.961 909.509 Q472.97 909.509 477.646 905.296 Q482.322 901.083 482.322 893.861 Q482.322 886.638 477.646 882.425 Q472.97 878.212 464.961 878.212 Q461.211 878.212 457.461 879.046 Q453.757 879.879 449.868 881.638 L449.868 846.916 Z" fill="#000000" fill-rule="nonzero" fill-opacity="1" /><path clip-path="url(#clip410)" d="M530.099 853.074 Q522.877 853.074 519.22 860.203 Q515.608 867.287 515.608 881.546 Q515.608 895.759 519.22 902.888 Q522.877 909.972 530.099 909.972 Q537.368 909.972 540.979 902.888 Q544.636 895.759 544.636 881.546 Q544.636 867.287 540.979 860.203 Q537.368 853.074 530.099 853.074 M530.099 845.666 Q541.719 845.666 547.831 854.879 Q553.988 864.046 553.988 881.546 Q553.988 898.999 547.831 908.212 Q541.719 917.379 530.099 917.379 Q518.479 917.379 512.321 908.212 Q506.21 898.999 506.21 881.546 Q506.21 864.046 512.321 854.879 Q518.479 845.666 530.099 845.666 Z" fill="#000000" fill-rule="nonzero" fill-opacity="1" /><path clip-path="url(#clip410)" d="M570.423 904.277 L580.191 904.277 L580.191 916.036 L570.423 916.036 L570.423 904.277 Z" fill="#000000" fill-rule="nonzero" fill-opacity="1" /><path clip-path="url(#clip410)" d="M620.562 853.074 Q613.339 853.074 609.682 860.203 Q606.071 867.287 606.071 881.546 Q606.071 895.759 609.682 902.888 Q613.339 909.972 620.562 909.972 Q627.83 909.972 631.441 902.888 Q635.099 895.759 635.099 881.546 Q635.099 867.287 631.441 860.203 Q627.83 853.074 620.562 853.074 M620.562 845.666 Q632.182 845.666 638.293 854.879 Q644.45 864.046 644.45 881.546 Q644.45 898.999 638.293 908.212 Q632.182 917.379 620.562 917.379 Q608.941 917.379 602.784 908.212 Q596.673 898.999 596.673 881.546 Q596.673 864.046 602.784 854.879 Q608.941 845.666 620.562 845.666 Z" fill="#000000" fill-rule="nonzero" fill-opacity="1" /><path clip-path="url(#clip410)" d="M391.072 698.537 L406.35 698.537 L406.35 645.806 L389.73 649.139 L389.73 640.62 L406.257 637.287 L415.609 637.287 L415.609 698.537 L430.887 698.537 L430.887 706.407 L391.072 706.407 L391.072 698.537 Z" fill="#000000" fill-rule="nonzero" fill-opacity="1" /><path clip-path="url(#clip410)" d="M447.414 637.287 L491.859 637.287 L491.859 641.269 L466.766 706.407 L456.998 706.407 L480.609 645.157 L447.414 645.157 L447.414 637.287 Z" fill="#000000" fill-rule="nonzero" fill-opacity="1" /><path clip-path="url(#clip410)" d="M510.192 637.287 L546.905 637.287 L546.905 645.157 L518.757 645.157 L518.757 662.102 Q520.794 661.407 522.831 661.083 Q524.868 660.713 526.905 660.713 Q538.479 660.713 545.238 667.055 Q551.997 673.398 551.997 684.231 Q551.997 695.389 545.053 701.592 Q538.108 707.75 525.47 707.75 Q521.118 707.75 516.581 707.009 Q512.09 706.268 507.275 704.787 L507.275 695.389 Q511.442 697.657 515.886 698.768 Q520.331 699.879 525.284 699.879 Q533.294 699.879 537.969 695.666 Q542.645 691.453 542.645 684.231 Q542.645 677.009 537.969 672.796 Q533.294 668.583 525.284 668.583 Q521.534 668.583 517.784 669.417 Q514.081 670.25 510.192 672.009 L510.192 637.287 Z" fill="#000000" fill-rule="nonzero" fill-opacity="1" /><path clip-path="url(#clip410)" d="M570.423 694.648 L580.191 694.648 L580.191 706.407 L570.423 706.407 L570.423 694.648 Z" fill="#000000" fill-rule="nonzero" fill-opacity="1" /><path clip-path="url(#clip410)" d="M620.562 643.444 Q613.339 643.444 609.682 650.574 Q606.071 657.657 606.071 671.917 Q606.071 686.129 609.682 693.259 Q613.339 700.342 620.562 700.342 Q627.83 700.342 631.441 693.259 Q635.099 686.129 635.099 671.917 Q635.099 657.657 631.441 650.574 Q627.83 643.444 620.562 643.444 M620.562 636.037 Q632.182 636.037 638.293 645.25 Q644.45 654.417 644.45 671.917 Q644.45 689.37 638.293 698.583 Q632.182 707.75 620.562 707.75 Q608.941 707.75 602.784 698.583 Q596.673 689.37 596.673 671.917 Q596.673 654.417 602.784 645.25 Q608.941 636.037 620.562 636.037 Z" fill="#000000" fill-rule="nonzero" fill-opacity="1" /><path clip-path="url(#clip410)" d="M397.507 488.907 L430.146 488.907 L430.146 496.778 L386.257 496.778 L386.257 488.907 Q391.581 483.398 400.748 474.139 Q409.961 464.834 412.322 462.148 Q416.813 457.102 418.572 453.63 Q420.378 450.111 420.378 446.732 Q420.378 441.223 416.489 437.75 Q412.646 434.278 406.442 434.278 Q402.044 434.278 397.137 435.806 Q392.276 437.334 386.72 440.435 L386.72 430.991 Q392.368 428.723 397.276 427.565 Q402.183 426.408 406.257 426.408 Q416.998 426.408 423.387 431.778 Q429.776 437.148 429.776 446.13 Q429.776 450.389 428.155 454.232 Q426.581 458.028 422.368 463.213 Q421.211 464.556 415.007 470.991 Q408.803 477.38 397.507 488.907 Z" fill="#000000" fill-rule="nonzero" fill-opacity="1" /><path clip-path="url(#clip410)" d="M469.775 433.815 Q462.553 433.815 458.896 440.945 Q455.285 448.028 455.285 462.287 Q455.285 476.5 458.896 483.63 Q462.553 490.713 469.775 490.713 Q477.044 490.713 480.655 483.63 Q484.312 476.5 484.312 462.287 Q484.312 448.028 480.655 440.945 Q477.044 433.815 469.775 433.815 M469.775 426.408 Q481.396 426.408 487.507 435.621 Q493.664 444.787 493.664 462.287 Q493.664 479.741 487.507 488.954 Q481.396 498.12 469.775 498.12 Q458.155 498.12 451.998 488.954 Q445.887 479.741 445.887 462.287 Q445.887 444.787 451.998 435.621 Q458.155 426.408 469.775 426.408 Z" fill="#000000" fill-rule="nonzero" fill-opacity="1" /><path clip-path="url(#clip410)" d="M530.099 433.815 Q522.877 433.815 519.22 440.945 Q515.608 448.028 515.608 462.287 Q515.608 476.5 519.22 483.63 Q522.877 490.713 530.099 490.713 Q537.368 490.713 540.979 483.63 Q544.636 476.5 544.636 462.287 Q544.636 448.028 540.979 440.945 Q537.368 433.815 530.099 433.815 M530.099 426.408 Q541.719 426.408 547.831 435.621 Q553.988 444.787 553.988 462.287 Q553.988 479.741 547.831 488.954 Q541.719 498.12 530.099 498.12 Q518.479 498.12 512.321 488.954 Q506.21 479.741 506.21 462.287 Q506.21 444.787 512.321 435.621 Q518.479 426.408 530.099 426.408 Z" fill="#000000" fill-rule="nonzero" fill-opacity="1" /><path clip-path="url(#clip410)" d="M570.423 485.019 L580.191 485.019 L580.191 496.778 L570.423 496.778 L570.423 485.019 Z" fill="#000000" fill-rule="nonzero" fill-opacity="1" /><path clip-path="url(#clip410)" d="M620.562 433.815 Q613.339 433.815 609.682 440.945 Q606.071 448.028 606.071 462.287 Q606.071 476.5 609.682 483.63 Q613.339 490.713 620.562 490.713 Q627.83 490.713 631.441 483.63 Q635.099 476.5 635.099 462.287 Q635.099 448.028 631.441 440.945 Q627.83 433.815 620.562 433.815 M620.562 426.408 Q632.182 426.408 638.293 435.621 Q644.45 444.787 644.45 462.287 Q644.45 479.741 638.293 488.954 Q632.182 498.12 620.562 498.12 Q608.941 498.12 602.784 488.954 Q596.673 479.741 596.673 462.287 Q596.673 444.787 602.784 435.621 Q608.941 426.408 620.562 426.408 Z" fill="#000000" fill-rule="nonzero" fill-opacity="1" /><path clip-path="url(#clip410)" d="M397.507 279.278 L430.146 279.278 L430.146 287.149 L386.257 287.149 L386.257 279.278 Q391.581 273.769 400.748 264.51 Q409.961 255.204 412.322 252.519 Q416.813 247.473 418.572 244.001 Q420.378 240.482 420.378 237.102 Q420.378 231.593 416.489 228.121 Q412.646 224.649 406.442 224.649 Q402.044 224.649 397.137 226.177 Q392.276 227.704 386.72 230.806 L386.72 221.362 Q392.368 219.093 397.276 217.936 Q402.183 216.779 406.257 216.779 Q416.998 216.779 423.387 222.149 Q429.776 227.519 429.776 236.501 Q429.776 240.76 428.155 244.602 Q426.581 248.399 422.368 253.584 Q421.211 254.926 415.007 261.362 Q408.803 267.75 397.507 279.278 Z" fill="#000000" fill-rule="nonzero" fill-opacity="1" /><path clip-path="url(#clip410)" d="M457.831 279.278 L490.47 279.278 L490.47 287.149 L446.581 287.149 L446.581 279.278 Q451.905 273.769 461.072 264.51 Q470.285 255.204 472.646 252.519 Q477.136 247.473 478.896 244.001 Q480.701 240.482 480.701 237.102 Q480.701 231.593 476.812 228.121 Q472.97 224.649 466.766 224.649 Q462.368 224.649 457.461 226.177 Q452.6 227.704 447.044 230.806 L447.044 221.362 Q452.692 219.093 457.6 217.936 Q462.507 216.779 466.581 216.779 Q477.322 216.779 483.71 222.149 Q490.099 227.519 490.099 236.501 Q490.099 240.76 488.479 244.602 Q486.905 248.399 482.692 253.584 Q481.535 254.926 475.331 261.362 Q469.127 267.75 457.831 279.278 Z" fill="#000000" fill-rule="nonzero" fill-opacity="1" /><path clip-path="url(#clip410)" d="M510.192 218.029 L546.905 218.029 L546.905 225.899 L518.757 225.899 L518.757 242.843 Q520.794 242.149 522.831 241.825 Q524.868 241.454 526.905 241.454 Q538.479 241.454 545.238 247.797 Q551.997 254.139 551.997 264.973 Q551.997 276.13 545.053 282.334 Q538.108 288.491 525.47 288.491 Q521.118 288.491 516.581 287.75 Q512.09 287.01 507.275 285.528 L507.275 276.13 Q511.442 278.399 515.886 279.51 Q520.331 280.621 525.284 280.621 Q533.294 280.621 537.969 276.408 Q542.645 272.195 542.645 264.973 Q542.645 257.751 537.969 253.538 Q533.294 249.325 525.284 249.325 Q521.534 249.325 517.784 250.158 Q514.081 250.991 510.192 252.751 L510.192 218.029 Z" fill="#000000" fill-rule="nonzero" fill-opacity="1" /><path clip-path="url(#clip410)" d="M570.423 275.389 L580.191 275.389 L580.191 287.149 L570.423 287.149 L570.423 275.389 Z" fill="#000000" fill-rule="nonzero" fill-opacity="1" /><path clip-path="url(#clip410)" d="M620.562 224.186 Q613.339 224.186 609.682 231.315 Q606.071 238.399 606.071 252.658 Q606.071 266.871 609.682 274 Q613.339 281.084 620.562 281.084 Q627.83 281.084 631.441 274 Q635.099 266.871 635.099 252.658 Q635.099 238.399 631.441 231.315 Q627.83 224.186 620.562 224.186 M620.562 216.779 Q632.182 216.779 638.293 225.991 Q644.45 235.158 644.45 252.658 Q644.45 270.112 638.293 279.324 Q632.182 288.491 620.562 288.491 Q608.941 288.491 602.784 279.324 Q596.673 270.112 596.673 252.658 Q596.673 235.158 602.784 225.991 Q608.941 216.779 620.562 216.779 Z" fill="#000000" fill-rule="nonzero" fill-opacity="1" /><path clip-path="url(#clip410)" d="M311.051 930.89 L348.863 930.89 L348.863 942.667 L250.449 942.667 L250.449 930.89 L261.271 930.89 Q254.905 927.198 251.85 921.596 Q248.731 915.931 248.731 908.101 Q248.731 895.115 259.043 887.031 Q269.356 878.883 286.161 878.883 Q302.966 878.883 313.279 887.031 Q323.591 895.115 323.591 908.101 Q323.591 915.931 320.536 921.596 Q317.417 927.198 311.051 930.89 M286.161 891.041 Q273.239 891.041 265.918 896.388 Q258.534 901.672 258.534 910.966 Q258.534 920.26 265.918 925.607 Q273.239 930.89 286.161 930.89 Q299.083 930.89 306.468 925.607 Q313.788 920.26 313.788 910.966 Q313.788 901.672 306.468 896.388 Q299.083 891.041 286.161 891.041 Z" fill="#000000" fill-rule="nonzero" fill-opacity="1" /><path clip-path="url(#clip410)" d="M285.906 827.066 Q285.906 841.261 289.153 846.736 Q292.399 852.21 300.229 852.21 Q306.468 852.21 310.16 848.136 Q313.788 843.999 313.788 836.933 Q313.788 827.193 306.913 821.337 Q299.975 815.416 288.516 815.416 L285.906 815.416 L285.906 827.066 M281.068 803.704 L321.745 803.704 L321.745 815.416 L310.924 815.416 Q317.417 819.427 320.536 825.411 Q323.591 831.394 323.591 840.052 Q323.591 851.001 317.48 857.494 Q311.306 863.923 300.993 863.923 Q288.962 863.923 282.851 855.902 Q276.74 847.818 276.74 831.84 L276.74 815.416 L275.594 815.416 Q267.509 815.416 263.117 820.764 Q258.661 826.047 258.661 835.659 Q258.661 841.771 260.125 847.563 Q261.589 853.356 264.518 858.703 L253.696 858.703 Q251.213 852.274 250.004 846.227 Q248.731 840.179 248.731 834.45 Q248.731 818.981 256.751 811.342 Q264.772 803.704 281.068 803.704 Z" fill="#000000" fill-rule="nonzero" fill-opacity="1" /><path clip-path="url(#clip410)" d="M261.398 738.264 Q260.253 740.238 259.743 742.593 Q259.17 744.884 259.17 747.685 Q259.17 757.616 265.663 762.963 Q272.093 768.247 284.188 768.247 L321.745 768.247 L321.745 780.023 L250.449 780.023 L250.449 768.247 L261.526 768.247 Q255.033 764.555 251.914 758.634 Q248.731 752.714 248.731 744.248 Q248.731 743.038 248.922 741.574 Q249.049 740.11 249.367 738.328 L261.398 738.264 Z" fill="#000000" fill-rule="nonzero" fill-opacity="1" /><path clip-path="url(#clip410)" d="M283.169 667.859 L288.898 667.859 L288.898 721.713 Q300.993 720.949 307.359 714.456 Q313.661 707.9 313.661 696.25 Q313.661 689.503 312.006 683.201 Q310.351 676.835 307.041 670.597 L318.117 670.597 Q320.79 676.899 322.191 683.519 Q323.591 690.139 323.591 696.951 Q323.591 714.011 313.661 724.005 Q303.73 733.935 286.798 733.935 Q269.292 733.935 259.043 724.514 Q248.731 715.029 248.731 698.988 Q248.731 684.601 258.025 676.262 Q267.255 667.859 283.169 667.859 M279.732 679.572 Q270.119 679.7 264.39 684.983 Q258.661 690.203 258.661 698.86 Q258.661 708.664 264.199 714.584 Q269.737 720.44 279.795 721.331 L279.732 679.572 Z" fill="#000000" fill-rule="nonzero" fill-opacity="1" /><path clip-path="url(#clip410)" d="M278.713 589.37 L321.745 589.37 L321.745 601.083 L279.095 601.083 Q268.974 601.083 263.945 605.03 Q258.916 608.977 258.916 616.87 Q258.916 626.355 264.963 631.83 Q271.011 637.304 281.45 637.304 L321.745 637.304 L321.745 649.081 L250.449 649.081 L250.449 637.304 L261.526 637.304 Q255.096 633.103 251.914 627.437 Q248.731 621.708 248.731 614.26 Q248.731 601.974 256.37 595.672 Q263.945 589.37 278.713 589.37 Z" fill="#000000" fill-rule="nonzero" fill-opacity="1" /><path clip-path="url(#clip410)" d="M305.576 564.353 L305.576 550.921 L321.745 550.921 L321.745 564.353 L305.576 564.353 Z" fill="#000000" fill-rule="nonzero" fill-opacity="1" /><path clip-path="url(#clip410)" d="M310.924 470.395 L310.924 425.517 L321.745 425.517 L321.745 485.864 L310.924 485.864 Q303.348 478.543 290.617 465.939 Q277.822 453.271 274.13 450.025 Q267.191 443.85 262.417 441.431 Q257.579 438.949 252.932 438.949 Q245.357 438.949 240.583 444.296 Q235.808 449.579 235.808 458.109 Q235.808 464.157 237.909 470.904 Q240.01 477.588 244.275 485.227 L231.289 485.227 Q228.169 477.461 226.578 470.713 Q224.987 463.966 224.987 458.364 Q224.987 443.596 232.371 434.811 Q239.755 426.026 252.104 426.026 Q257.961 426.026 263.244 428.254 Q268.464 430.419 275.594 436.211 Q277.44 437.803 286.288 446.333 Q295.073 454.863 310.924 470.395 Z" fill="#000000" fill-rule="nonzero" fill-opacity="1" /><polyline clip-path="url(#clip412)" style="stroke:#008000; stroke-linecap:round; stroke-linejoin:round; stroke-width:8; stroke-opacity:1; fill:none" points="726.443,127.862 844.372,187.166 962.301,392.436 1080.23,454.002 1198.16,501.692 1316.09,640.075 1434.02,808.603 1551.95,893.068 1669.87,997.211 1787.8,1000.81 1905.73,1016.02 2023.66,1129.88 2141.59,1150.18 2259.52,1131.14 "/>
<circle clip-path="url(#clip412)" cx="726.443" cy="127.862" r="14.4" fill="#008000" fill-rule="evenodd" fill-opacity="1" stroke="#000000" stroke-opacity="1" stroke-width="6.4"/>
<circle clip-path="url(#clip412)" cx="844.372" cy="187.166" r="14.4" fill="#008000" fill-rule="evenodd" fill-opacity="1" stroke="#000000" stroke-opacity="1" stroke-width="6.4"/>
<circle clip-path="url(#clip412)" cx="962.301" cy="392.436" r="14.4" fill="#008000" fill-rule="evenodd" fill-opacity="1" stroke="#000000" stroke-opacity="1" stroke-width="6.4"/>
<circle clip-path="url(#clip412)" cx="1080.23" cy="454.002" r="14.4" fill="#008000" fill-rule="evenodd" fill-opacity="1" stroke="#000000" stroke-opacity="1" stroke-width="6.4"/>
<circle clip-path="url(#clip412)" cx="1198.16" cy="501.692" r="14.4" fill="#008000" fill-rule="evenodd" fill-opacity="1" stroke="#000000" stroke-opacity="1" stroke-width="6.4"/>
<circle clip-path="url(#clip412)" cx="1316.09" cy="640.075" r="14.4" fill="#008000" fill-rule="evenodd" fill-opacity="1" stroke="#000000" stroke-opacity="1" stroke-width="6.4"/>
<circle clip-path="url(#clip412)" cx="1434.02" cy="808.603" r="14.4" fill="#008000" fill-rule="evenodd" fill-opacity="1" stroke="#000000" stroke-opacity="1" stroke-width="6.4"/>
<circle clip-path="url(#clip412)" cx="1551.95" cy="893.068" r="14.4" fill="#008000" fill-rule="evenodd" fill-opacity="1" stroke="#000000" stroke-opacity="1" stroke-width="6.4"/>
<circle clip-path="url(#clip412)" cx="1669.87" cy="997.211" r="14.4" fill="#008000" fill-rule="evenodd" fill-opacity="1" stroke="#000000" stroke-opacity="1" stroke-width="6.4"/>
<circle clip-path="url(#clip412)" cx="1787.8" cy="1000.81" r="14.4" fill="#008000" fill-rule="evenodd" fill-opacity="1" stroke="#000000" stroke-opacity="1" stroke-width="6.4"/>
<circle clip-path="url(#clip412)" cx="1905.73" cy="1016.02" r="14.4" fill="#008000" fill-rule="evenodd" fill-opacity="1" stroke="#000000" stroke-opacity="1" stroke-width="6.4"/>
<circle clip-path="url(#clip412)" cx="2023.66" cy="1129.88" r="14.4" fill="#008000" fill-rule="evenodd" fill-opacity="1" stroke="#000000" stroke-opacity="1" stroke-width="6.4"/>
<circle clip-path="url(#clip412)" cx="2141.59" cy="1150.18" r="14.4" fill="#008000" fill-rule="evenodd" fill-opacity="1" stroke="#000000" stroke-opacity="1" stroke-width="6.4"/>
<circle clip-path="url(#clip412)" cx="2259.52" cy="1131.14" r="14.4" fill="#008000" fill-rule="evenodd" fill-opacity="1" stroke="#000000" stroke-opacity="1" stroke-width="6.4"/>
<polyline clip-path="url(#clip412)" style="stroke:#00008b; stroke-linecap:round; stroke-linejoin:round; stroke-width:8; stroke-opacity:1; fill:none" points="726.443,168.336 844.372,360.562 962.301,502.4 1080.23,616.573 1198.16,711.225 1316.09,792.082 1434.02,865.799 1551.95,931.416 1669.87,993.47 1787.8,1043.04 1905.73,1087.21 2023.66,1132 2141.59,1169.97 2259.52,1205.76 "/>
<path clip-path="url(#clip412)" d="M726.443 201.519 L844.372 395.958 L962.301 535.903 L1080.23 651.443 L1198.16 744.377 L1316.09 827.382 L1434.02 903.356 L1551.95 967.98 L1669.87 1028.09 L1787.8 1077.68 L1905.73 1120.28 L2023.66 1166.97 L2141.59 1205.96 L2259.52 1240.32 L2259.52 1172.04 L2141.59 1133.1 L2023.66 1098.11 L1905.73 1053.28 L1787.8 1007.21 L1669.87 956.831 L1551.95 896.327 L1434.02 831.515 L1316.09 757.35 L1198.16 676.403 L1080.23 581.947 L962.301 466.741 L844.372 323.603 L726.443 132.841  Z" fill="#0000ff" fill-rule="evenodd" fill-opacity="0.1"/>
<polyline clip-path="url(#clip412)" style="stroke:#0000ff; stroke-linecap:round; stroke-linejoin:round; stroke-width:0; stroke-opacity:0.1; fill:none" points="726.443,201.519 844.372,395.958 962.301,535.903 1080.23,651.443 1198.16,744.377 1316.09,827.382 1434.02,903.356 1551.95,967.98 1669.87,1028.09 1787.8,1077.68 1905.73,1120.28 2023.66,1166.97 2141.59,1205.96 2259.52,1240.32 "/>
</svg>
