<?xml version="1.0" encoding="utf-8"?>
<svg xmlns="http://www.w3.org/2000/svg" xmlns:xlink="http://www.w3.org/1999/xlink" width="600" height="400" viewBox="0 0 2400 1600">
<defs>
  <clipPath id="clip050">
    <rect x="0" y="0" width="2400" height="1600"/>
  </clipPath>
</defs>
<path clip-path="url(#clip050)" d="M0 1600 L2400 1600 L2400 0 L0 0  Z" fill="#ffffff" fill-rule="evenodd" fill-opacity="1"/>
<defs>
  <clipPath id="clip051">
    <rect x="480" y="0" width="1681" height="1600"/>
  </clipPath>
</defs>
<path clip-path="url(#clip050)" d="M1273.33 1082.2 L2305.51 1082.2 L2305.51 94.4882 L1273.33 94.4882  Z" fill="#ffffff" fill-rule="evenodd" fill-opacity="1"/>
<defs>
  <clipPath id="clip052">
    <rect x="1273" y="94" width="1033" height="989"/>
  </clipPath>
</defs>
<polyline clip-path="url(#clip052)" style="stroke:#000000; stroke-linecap:round; stroke-linejoin:round; stroke-width:4; stroke-opacity:0.1; fill:none" points="1302.55,1082.2 1302.55,94.4882 "/>
<polyline clip-path="url(#clip052)" style="stroke:#000000; stroke-linecap:round; stroke-linejoin:round; stroke-width:4; stroke-opacity:0.1; fill:none" points="1506.83,1082.2 1506.83,94.4882 "/>
<polyline clip-path="url(#clip052)" style="stroke:#000000; stroke-linecap:round; stroke-linejoin:round; stroke-width:4; stroke-opacity:0.1; fill:none" points="1711.11,1082.2 1711.11,94.4882 "/>
<polyline clip-path="url(#clip052)" style="stroke:#000000; stroke-linecap:round; stroke-linejoin:round; stroke-width:4; stroke-opacity:0.1; fill:none" points="1915.4,1082.2 1915.4,94.4882 "/>
<polyline clip-path="url(#clip052)" style="stroke:#000000; stroke-linecap:round; stroke-linejoin:round; stroke-width:4; stroke-opacity:0.1; fill:none" points="2119.68,1082.2 2119.68,94.4882 "/>
<polyline clip-path="url(#clip050)" style="stroke:#000000; stroke-linecap:round; stroke-linejoin:round; stroke-width:8; stroke-opacity:1; fill:none" points="1273.33,1082.2 2305.51,1082.2 "/>
<polyline clip-path="url(#clip050)" style="stroke:#000000; stroke-linecap:round; stroke-linejoin:round; stroke-width:8; stroke-opacity:1; fill:none" points="1302.55,1082.2 1302.55,1063.3 "/>
<polyline clip-path="url(#clip050)" style="stroke:#000000; stroke-linecap:round; stroke-linejoin:round; stroke-width:8; stroke-opacity:1; fill:none" points="1506.83,1082.2 1506.83,1063.3 "/>
<polyline clip-path="url(#clip050)" style="stroke:#000000; stroke-linecap:round; stroke-linejoin:round; stroke-width:8; stroke-opacity:1; fill:none" points="1711.11,1082.2 1711.11,1063.3 "/>
<polyline clip-path="url(#clip050)" style="stroke:#000000; stroke-linecap:round; stroke-linejoin:round; stroke-width:8; stroke-opacity:1; fill:none" points="1915.4,1082.2 1915.4,1063.3 "/>
<polyline clip-path="url(#clip050)" style="stroke:#000000; stroke-linecap:round; stroke-linejoin:round; stroke-width:8; stroke-opacity:1; fill:none" points="2119.68,1082.2 2119.68,1063.3 "/>
<path clip-path="url(#clip050)" d="M1257.31 1124.84 Q1250.09 1124.84 1246.44 1131.97 Q1242.82 1139.05 1242.82 1153.31 Q1242.82 1167.52 1246.44 1174.65 Q1250.09 1181.73 1257.31 1181.73 Q1264.58 1181.73 1268.19 1174.65 Q1271.85 1167.52 1271.85 1153.31 Q1271.85 1139.05 1268.19 1131.97 Q1264.58 1124.84 1257.31 1124.84 M1257.31 1117.43 Q1268.94 1117.43 1275.05 1126.64 Q1281.2 1135.81 1281.2 1153.31 Q1281.2 1170.76 1275.05 1179.98 Q1268.94 1189.14 1257.31 1189.14 Q1245.69 1189.14 1239.54 1179.98 Q1233.43 1170.76 1233.43 1153.31 Q1233.43 1135.81 1239.54 1126.64 Q1245.69 1117.43 1257.31 1117.43 Z" fill="#000000" fill-rule="nonzero" fill-opacity="1" /><path clip-path="url(#clip050)" d="M1297.64 1176.04 L1307.41 1176.04 L1307.41 1187.8 L1297.64 1187.8 L1297.64 1176.04 Z" fill="#000000" fill-rule="nonzero" fill-opacity="1" /><path clip-path="url(#clip050)" d="M1347.78 1124.84 Q1340.56 1124.84 1336.9 1131.97 Q1333.29 1139.05 1333.29 1153.31 Q1333.29 1167.52 1336.9 1174.65 Q1340.56 1181.73 1347.78 1181.73 Q1355.05 1181.73 1358.66 1174.65 Q1362.31 1167.52 1362.31 1153.31 Q1362.31 1139.05 1358.66 1131.97 Q1355.05 1124.84 1347.78 1124.84 M1347.78 1117.43 Q1359.4 1117.43 1365.51 1126.64 Q1371.67 1135.81 1371.67 1153.31 Q1371.67 1170.76 1365.51 1179.98 Q1359.4 1189.14 1347.78 1189.14 Q1336.16 1189.14 1330 1179.98 Q1323.89 1170.76 1323.89 1153.31 Q1323.89 1135.81 1330 1126.64 Q1336.16 1117.43 1347.78 1117.43 Z" fill="#000000" fill-rule="nonzero" fill-opacity="1" /><path clip-path="url(#clip050)" d="M1462.25 1124.84 Q1455.02 1124.84 1451.37 1131.97 Q1447.76 1139.05 1447.76 1153.31 Q1447.76 1167.52 1451.37 1174.65 Q1455.02 1181.73 1462.25 1181.73 Q1469.52 1181.73 1473.13 1174.65 Q1476.78 1167.52 1476.78 1153.31 Q1476.78 1139.05 1473.13 1131.97 Q1469.52 1124.84 1462.25 1124.84 M1462.25 1117.43 Q1473.87 1117.43 1479.98 1126.64 Q1486.14 1135.81 1486.14 1153.31 Q1486.14 1170.76 1479.98 1179.98 Q1473.87 1189.14 1462.25 1189.14 Q1450.63 1189.14 1444.47 1179.98 Q1438.36 1170.76 1438.36 1153.31 Q1438.36 1135.81 1444.47 1126.64 Q1450.63 1117.43 1462.25 1117.43 Z" fill="#000000" fill-rule="nonzero" fill-opacity="1" /><path clip-path="url(#clip050)" d="M1502.57 1176.04 L1512.34 1176.04 L1512.34 1187.8 L1502.57 1187.8 L1502.57 1176.04 Z" fill="#000000" fill-rule="nonzero" fill-opacity="1" /><path clip-path="url(#clip050)" d="M1561.04 1150.53 Q1567.76 1151.97 1571.51 1156.5 Q1575.3 1161.04 1575.3 1167.71 Q1575.3 1177.94 1568.26 1183.54 Q1561.23 1189.14 1548.26 1189.14 Q1543.91 1189.14 1539.28 1188.26 Q1534.7 1187.43 1529.79 1185.72 L1529.79 1176.69 Q1533.68 1178.96 1538.31 1180.11 Q1542.94 1181.27 1547.99 1181.27 Q1556.78 1181.27 1561.37 1177.8 Q1566 1174.33 1566 1167.71 Q1566 1161.6 1561.69 1158.17 Q1557.43 1154.7 1549.79 1154.7 L1541.74 1154.7 L1541.74 1147.01 L1550.16 1147.01 Q1557.06 1147.01 1560.72 1144.28 Q1564.38 1141.5 1564.38 1136.32 Q1564.38 1130.99 1560.58 1128.17 Q1556.83 1125.3 1549.79 1125.3 Q1545.95 1125.3 1541.55 1126.13 Q1537.15 1126.97 1531.88 1128.73 L1531.88 1120.39 Q1537.2 1118.91 1541.83 1118.17 Q1546.51 1117.43 1550.63 1117.43 Q1561.27 1117.43 1567.48 1122.29 Q1573.68 1127.11 1573.68 1135.35 Q1573.68 1141.09 1570.39 1145.07 Q1567.11 1149 1561.04 1150.53 Z" fill="#000000" fill-rule="nonzero" fill-opacity="1" /><path clip-path="url(#clip050)" d="M1665.72 1124.84 Q1658.5 1124.84 1654.84 1131.97 Q1651.23 1139.05 1651.23 1153.31 Q1651.23 1167.52 1654.84 1174.65 Q1658.5 1181.73 1665.72 1181.73 Q1672.99 1181.73 1676.6 1174.65 Q1680.26 1167.52 1680.26 1153.31 Q1680.26 1139.05 1676.6 1131.97 Q1672.99 1124.84 1665.72 1124.84 M1665.72 1117.43 Q1677.34 1117.43 1683.45 1126.64 Q1689.61 1135.81 1689.61 1153.31 Q1689.61 1170.76 1683.45 1179.98 Q1677.34 1189.14 1665.72 1189.14 Q1654.1 1189.14 1647.94 1179.98 Q1641.83 1170.76 1641.83 1153.31 Q1641.83 1135.81 1647.94 1126.64 Q1654.1 1117.43 1665.72 1117.43 Z" fill="#000000" fill-rule="nonzero" fill-opacity="1" /><path clip-path="url(#clip050)" d="M1706.04 1176.04 L1715.81 1176.04 L1715.81 1187.8 L1706.04 1187.8 L1706.04 1176.04 Z" fill="#000000" fill-rule="nonzero" fill-opacity="1" /><path clip-path="url(#clip050)" d="M1757.34 1149.51 Q1751.04 1149.51 1747.34 1153.82 Q1743.68 1158.12 1743.68 1165.62 Q1743.68 1173.08 1747.34 1177.43 Q1751.04 1181.73 1757.34 1181.73 Q1763.64 1181.73 1767.29 1177.43 Q1771 1173.08 1771 1165.62 Q1771 1158.12 1767.29 1153.82 Q1763.64 1149.51 1757.34 1149.51 M1775.91 1120.21 L1775.91 1128.73 Q1772.39 1127.06 1768.78 1126.18 Q1765.21 1125.3 1761.69 1125.3 Q1752.43 1125.3 1747.53 1131.55 Q1742.66 1137.8 1741.97 1150.44 Q1744.7 1146.41 1748.82 1144.28 Q1752.94 1142.11 1757.9 1142.11 Q1768.31 1142.11 1774.33 1148.45 Q1780.4 1154.74 1780.4 1165.62 Q1780.4 1176.27 1774.1 1182.71 Q1767.8 1189.14 1757.34 1189.14 Q1745.35 1189.14 1739.01 1179.98 Q1732.66 1170.76 1732.66 1153.31 Q1732.66 1136.92 1740.44 1127.2 Q1748.22 1117.43 1761.32 1117.43 Q1764.84 1117.43 1768.41 1118.12 Q1772.02 1118.82 1775.91 1120.21 Z" fill="#000000" fill-rule="nonzero" fill-opacity="1" /><path clip-path="url(#clip050)" d="M1870.35 1124.84 Q1863.13 1124.84 1859.47 1131.97 Q1855.86 1139.05 1855.86 1153.31 Q1855.86 1167.52 1859.47 1174.65 Q1863.13 1181.73 1870.35 1181.73 Q1877.62 1181.73 1881.23 1174.65 Q1884.89 1167.52 1884.89 1153.31 Q1884.89 1139.05 1881.23 1131.97 Q1877.62 1124.84 1870.35 1124.84 M1870.35 1117.43 Q1881.97 1117.43 1888.08 1126.64 Q1894.24 1135.81 1894.24 1153.31 Q1894.24 1170.76 1888.08 1179.98 Q1881.97 1189.14 1870.35 1189.14 Q1858.73 1189.14 1852.57 1179.98 Q1846.46 1170.76 1846.46 1153.31 Q1846.46 1135.81 1852.57 1126.64 Q1858.73 1117.43 1870.35 1117.43 Z" fill="#000000" fill-rule="nonzero" fill-opacity="1" /><path clip-path="url(#clip050)" d="M1910.68 1176.04 L1920.44 1176.04 L1920.44 1187.8 L1910.68 1187.8 L1910.68 1176.04 Z" fill="#000000" fill-rule="nonzero" fill-opacity="1" /><path clip-path="url(#clip050)" d="M1941.09 1186.36 L1941.09 1177.85 Q1944.61 1179.51 1948.22 1180.39 Q1951.83 1181.27 1955.3 1181.27 Q1964.56 1181.27 1969.43 1175.07 Q1974.33 1168.82 1975.03 1156.13 Q1972.34 1160.11 1968.22 1162.24 Q1964.1 1164.37 1959.1 1164.37 Q1948.73 1164.37 1942.67 1158.12 Q1936.65 1151.83 1936.65 1140.95 Q1936.65 1130.3 1942.94 1123.86 Q1949.24 1117.43 1959.7 1117.43 Q1971.69 1117.43 1977.99 1126.64 Q1984.33 1135.81 1984.33 1153.31 Q1984.33 1169.65 1976.55 1179.42 Q1968.82 1189.14 1955.72 1189.14 Q1952.2 1189.14 1948.59 1188.45 Q1944.98 1187.75 1941.09 1186.36 M1959.7 1157.06 Q1966 1157.06 1969.66 1152.75 Q1973.36 1148.45 1973.36 1140.95 Q1973.36 1133.49 1969.66 1129.19 Q1966 1124.84 1959.7 1124.84 Q1953.41 1124.84 1949.7 1129.19 Q1946.05 1133.49 1946.05 1140.95 Q1946.05 1148.45 1949.7 1152.75 Q1953.41 1157.06 1959.7 1157.06 Z" fill="#000000" fill-rule="nonzero" fill-opacity="1" /><path clip-path="url(#clip050)" d="M2055.58 1179.93 L2070.86 1179.93 L2070.86 1127.2 L2054.24 1130.53 L2054.24 1122.01 L2070.77 1118.68 L2080.12 1118.68 L2080.12 1179.93 L2095.4 1179.93 L2095.4 1187.8 L2055.58 1187.8 L2055.58 1179.93 Z" fill="#000000" fill-rule="nonzero" fill-opacity="1" /><path clip-path="url(#clip050)" d="M2114.29 1176.04 L2124.06 1176.04 L2124.06 1187.8 L2114.29 1187.8 L2114.29 1176.04 Z" fill="#000000" fill-rule="nonzero" fill-opacity="1" /><path clip-path="url(#clip050)" d="M2152.48 1179.93 L2185.12 1179.93 L2185.12 1187.8 L2141.23 1187.8 L2141.23 1179.93 Q2146.56 1174.42 2155.72 1165.16 Q2164.94 1155.86 2167.3 1153.17 Q2171.79 1148.12 2173.55 1144.65 Q2175.35 1141.13 2175.35 1137.75 Q2175.35 1132.24 2171.46 1128.77 Q2167.62 1125.3 2161.42 1125.3 Q2157.02 1125.3 2152.11 1126.83 Q2147.25 1128.36 2141.7 1131.46 L2141.7 1122.01 Q2147.34 1119.74 2152.25 1118.59 Q2157.16 1117.43 2161.23 1117.43 Q2171.97 1117.43 2178.36 1122.8 Q2184.75 1128.17 2184.75 1137.15 Q2184.75 1141.41 2183.13 1145.25 Q2181.56 1149.05 2177.34 1154.24 Q2176.19 1155.58 2169.98 1162.01 Q2163.78 1168.4 2152.48 1179.93 Z" fill="#000000" fill-rule="nonzero" fill-opacity="1" /><path clip-path="url(#clip050)" d="M1674.97 1292.9 L1674.97 1335.93 L1663.25 1335.93 L1663.25 1293.28 Q1663.25 1283.16 1659.31 1278.13 Q1655.36 1273.1 1647.47 1273.1 Q1637.98 1273.1 1632.51 1279.15 Q1627.03 1285.19 1627.03 1295.63 L1627.03 1335.93 L1615.26 1335.93 L1615.26 1236.88 L1627.03 1236.88 L1627.03 1275.71 Q1631.23 1269.28 1636.9 1266.1 Q1642.63 1262.91 1650.08 1262.91 Q1662.36 1262.91 1668.67 1270.55 Q1674.97 1278.13 1674.97 1292.9 Z" fill="#000000" fill-rule="nonzero" fill-opacity="1" /><path clip-path="url(#clip050)" d="M1725.96 1272.84 Q1716.54 1272.84 1711.06 1280.23 Q1705.59 1287.55 1705.59 1300.34 Q1705.59 1313.14 1711 1320.52 Q1716.47 1327.84 1725.96 1327.84 Q1735.31 1327.84 1740.79 1320.46 Q1746.26 1313.07 1746.26 1300.34 Q1746.26 1287.68 1740.79 1280.29 Q1735.31 1272.84 1725.96 1272.84 M1725.96 1262.91 Q1741.23 1262.91 1749.96 1272.84 Q1758.68 1282.77 1758.68 1300.34 Q1758.68 1317.85 1749.96 1327.84 Q1741.23 1337.77 1725.96 1337.77 Q1710.62 1337.77 1701.89 1327.84 Q1693.24 1317.85 1693.24 1300.34 Q1693.24 1282.77 1701.89 1272.84 Q1710.62 1262.91 1725.96 1262.91 Z" fill="#000000" fill-rule="nonzero" fill-opacity="1" /><path clip-path="url(#clip050)" d="M1776.88 1307.79 L1776.88 1264.63 L1788.6 1264.63 L1788.6 1307.35 Q1788.6 1317.47 1792.54 1322.56 Q1796.49 1327.59 1804.38 1327.59 Q1813.87 1327.59 1819.34 1321.54 Q1824.88 1315.49 1824.88 1305.05 L1824.88 1264.63 L1836.59 1264.63 L1836.59 1335.93 L1824.88 1335.93 L1824.88 1324.98 Q1820.61 1331.47 1814.95 1334.65 Q1809.35 1337.77 1801.9 1337.77 Q1789.61 1337.77 1783.25 1330.13 Q1776.88 1322.5 1776.88 1307.79 M1806.36 1262.91 L1806.36 1262.91 Z" fill="#000000" fill-rule="nonzero" fill-opacity="1" /><path clip-path="url(#clip050)" d="M1902.03 1275.58 Q1900.06 1274.43 1897.7 1273.93 Q1895.41 1273.35 1892.61 1273.35 Q1882.68 1273.35 1877.33 1279.85 Q1872.05 1286.28 1872.05 1298.37 L1872.05 1335.93 L1860.27 1335.93 L1860.27 1264.63 L1872.05 1264.63 L1872.05 1275.71 Q1875.74 1269.22 1881.66 1266.1 Q1887.58 1262.91 1896.05 1262.91 Q1897.26 1262.91 1898.72 1263.1 Q1900.19 1263.23 1901.97 1263.55 L1902.03 1275.58 Z" fill="#000000" fill-rule="nonzero" fill-opacity="1" /><path clip-path="url(#clip050)" d="M1959.77 1266.73 L1959.77 1277.81 Q1954.8 1275.26 1949.46 1273.99 Q1944.11 1272.72 1938.38 1272.72 Q1929.66 1272.72 1925.27 1275.39 Q1920.94 1278.06 1920.94 1283.41 Q1920.94 1287.48 1924.06 1289.84 Q1927.18 1292.13 1936.6 1294.23 L1940.61 1295.12 Q1953.08 1297.8 1958.3 1302.7 Q1963.59 1307.54 1963.59 1316.26 Q1963.59 1326.19 1955.69 1331.98 Q1947.87 1337.77 1934.12 1337.77 Q1928.39 1337.77 1922.15 1336.63 Q1915.97 1335.55 1909.1 1333.32 L1909.1 1321.22 Q1915.59 1324.6 1921.89 1326.32 Q1928.2 1327.97 1934.37 1327.97 Q1942.65 1327.97 1947.1 1325.17 Q1951.56 1322.31 1951.56 1317.15 Q1951.56 1312.37 1948.31 1309.83 Q1945.13 1307.28 1934.24 1304.93 L1930.17 1303.97 Q1919.28 1301.68 1914.45 1296.97 Q1909.61 1292.2 1909.61 1283.92 Q1909.61 1273.86 1916.74 1268.39 Q1923.87 1262.91 1936.98 1262.91 Q1943.47 1262.91 1949.2 1263.87 Q1954.93 1264.82 1959.77 1266.73 Z" fill="#000000" fill-rule="nonzero" fill-opacity="1" /><polyline clip-path="url(#clip052)" style="stroke:#000000; stroke-linecap:round; stroke-linejoin:round; stroke-width:4; stroke-opacity:0.1; fill:none" points="1273.33,1054.25 2305.51,1054.25 "/>
<polyline clip-path="url(#clip052)" style="stroke:#000000; stroke-linecap:round; stroke-linejoin:round; stroke-width:4; stroke-opacity:0.1; fill:none" points="1273.33,890.674 2305.51,890.674 "/>
<polyline clip-path="url(#clip052)" style="stroke:#000000; stroke-linecap:round; stroke-linejoin:round; stroke-width:4; stroke-opacity:0.1; fill:none" points="1273.33,727.103 2305.51,727.103 "/>
<polyline clip-path="url(#clip052)" style="stroke:#000000; stroke-linecap:round; stroke-linejoin:round; stroke-width:4; stroke-opacity:0.1; fill:none" points="1273.33,563.532 2305.51,563.532 "/>
<polyline clip-path="url(#clip052)" style="stroke:#000000; stroke-linecap:round; stroke-linejoin:round; stroke-width:4; stroke-opacity:0.1; fill:none" points="1273.33,399.961 2305.51,399.961 "/>
<polyline clip-path="url(#clip052)" style="stroke:#000000; stroke-linecap:round; stroke-linejoin:round; stroke-width:4; stroke-opacity:0.1; fill:none" points="1273.33,236.389 2305.51,236.389 "/>
<polyline clip-path="url(#clip050)" style="stroke:#000000; stroke-linecap:round; stroke-linejoin:round; stroke-width:8; stroke-opacity:1; fill:none" points="1273.33,1082.2 1273.33,94.4882 "/>
<polyline clip-path="url(#clip050)" style="stroke:#000000; stroke-linecap:round; stroke-linejoin:round; stroke-width:8; stroke-opacity:1; fill:none" points="1273.33,1054.25 1292.23,1054.25 "/>
<polyline clip-path="url(#clip050)" style="stroke:#000000; stroke-linecap:round; stroke-linejoin:round; stroke-width:8; stroke-opacity:1; fill:none" points="1273.33,890.674 1292.23,890.674 "/>
<polyline clip-path="url(#clip050)" style="stroke:#000000; stroke-linecap:round; stroke-linejoin:round; stroke-width:8; stroke-opacity:1; fill:none" points="1273.33,727.103 1292.23,727.103 "/>
<polyline clip-path="url(#clip050)" style="stroke:#000000; stroke-linecap:round; stroke-linejoin:round; stroke-width:8; stroke-opacity:1; fill:none" points="1273.33,563.532 1292.23,563.532 "/>
<polyline clip-path="url(#clip050)" style="stroke:#000000; stroke-linecap:round; stroke-linejoin:round; stroke-width:8; stroke-opacity:1; fill:none" points="1273.33,399.961 1292.23,399.961 "/>
<polyline clip-path="url(#clip050)" style="stroke:#000000; stroke-linecap:round; stroke-linejoin:round; stroke-width:8; stroke-opacity:1; fill:none" points="1273.33,236.389 1292.23,236.389 "/>
<path clip-path="url(#clip050)" d="M1213.44 1025.84 Q1206.22 1025.84 1202.57 1032.97 Q1198.95 1040.06 1198.95 1054.32 Q1198.95 1068.53 1202.57 1075.66 Q1206.22 1082.74 1213.44 1082.74 Q1220.71 1082.74 1224.32 1075.66 Q1227.98 1068.53 1227.98 1054.32 Q1227.98 1040.06 1224.32 1032.97 Q1220.71 1025.84 1213.44 1025.84 M1213.44 1018.44 Q1225.06 1018.44 1231.18 1027.65 Q1237.33 1036.82 1237.33 1054.32 Q1237.33 1071.77 1231.18 1080.98 Q1225.06 1090.15 1213.44 1090.15 Q1201.82 1090.15 1195.67 1080.98 Q1189.56 1071.77 1189.56 1054.32 Q1189.56 1036.82 1195.67 1027.65 Q1201.82 1018.44 1213.44 1018.44 Z" fill="#000000" fill-rule="nonzero" fill-opacity="1" /><path clip-path="url(#clip050)" d="M805.684 869.01 L842.396 869.01 L842.396 876.88 L814.248 876.88 L814.248 893.824 Q816.285 893.13 818.322 892.806 Q820.359 892.435 822.396 892.435 Q833.97 892.435 840.73 898.778 Q847.489 905.12 847.489 915.954 Q847.489 927.111 840.544 933.315 Q833.6 939.472 820.961 939.472 Q816.609 939.472 812.072 938.731 Q807.582 937.991 802.767 936.509 L802.767 927.111 Q806.933 929.38 811.378 930.491 Q815.822 931.602 820.776 931.602 Q828.785 931.602 833.461 927.389 Q838.137 923.176 838.137 915.954 Q838.137 908.732 833.461 904.519 Q828.785 900.306 820.776 900.306 Q817.026 900.306 813.276 901.139 Q809.572 901.972 805.684 903.732 L805.684 869.01 Z" fill="#000000" fill-rule="nonzero" fill-opacity="1" /><path clip-path="url(#clip050)" d="M865.915 926.37 L875.683 926.37 L875.683 938.13 L865.915 938.13 L865.915 926.37 Z" fill="#000000" fill-rule="nonzero" fill-opacity="1" /><path clip-path="url(#clip050)" d="M916.053 875.167 Q908.831 875.167 905.174 882.297 Q901.563 889.38 901.563 903.639 Q901.563 917.852 905.174 924.981 Q908.831 932.065 916.053 932.065 Q923.322 932.065 926.933 924.981 Q930.59 917.852 930.59 903.639 Q930.59 889.38 926.933 882.297 Q923.322 875.167 916.053 875.167 M916.053 867.76 Q927.674 867.76 933.785 876.972 Q939.942 886.139 939.942 903.639 Q939.942 921.093 933.785 930.306 Q927.674 939.472 916.053 939.472 Q904.433 939.472 898.276 930.306 Q892.165 921.093 892.165 903.639 Q892.165 886.139 898.276 876.972 Q904.433 867.76 916.053 867.76 Z" fill="#000000" fill-rule="nonzero" fill-opacity="1" /><path clip-path="url(#clip050)" d="M976.377 875.167 Q969.155 875.167 965.497 882.297 Q961.886 889.38 961.886 903.639 Q961.886 917.852 965.497 924.981 Q969.155 932.065 976.377 932.065 Q983.646 932.065 987.257 924.981 Q990.914 917.852 990.914 903.639 Q990.914 889.38 987.257 882.297 Q983.646 875.167 976.377 875.167 M976.377 867.76 Q987.997 867.76 994.108 876.972 Q1000.27 886.139 1000.27 903.639 Q1000.27 921.093 994.108 930.306 Q987.997 939.472 976.377 939.472 Q964.757 939.472 958.599 930.306 Q952.488 921.093 952.488 903.639 Q952.488 886.139 958.599 876.972 Q964.757 867.76 976.377 867.76 Z" fill="#000000" fill-rule="nonzero" fill-opacity="1" /><path clip-path="url(#clip050)" d="M1073.04 887.204 L1051.89 908.454 L1073.04 929.611 L1067.53 935.213 L1046.28 913.963 L1025.03 935.213 L1019.57 929.611 L1040.68 908.454 L1019.57 887.204 L1025.03 881.602 L1046.28 902.852 L1067.53 881.602 L1073.04 887.204 Z" fill="#000000" fill-rule="nonzero" fill-opacity="1" /><path clip-path="url(#clip050)" d="M1097.77 930.259 L1113.04 930.259 L1113.04 877.528 L1096.42 880.861 L1096.42 872.343 L1112.95 869.01 L1122.3 869.01 L1122.3 930.259 L1137.58 930.259 L1137.58 938.13 L1097.77 938.13 L1097.77 930.259 Z" fill="#000000" fill-rule="nonzero" fill-opacity="1" /><path clip-path="url(#clip050)" d="M1176.47 875.167 Q1169.25 875.167 1165.59 882.297 Q1161.98 889.38 1161.98 903.639 Q1161.98 917.852 1165.59 924.981 Q1169.25 932.065 1176.47 932.065 Q1183.74 932.065 1187.35 924.981 Q1191.01 917.852 1191.01 903.639 Q1191.01 889.38 1187.35 882.297 Q1183.74 875.167 1176.47 875.167 M1176.47 867.76 Q1188.09 867.76 1194.2 876.972 Q1200.36 886.139 1200.36 903.639 Q1200.36 921.093 1194.2 930.306 Q1188.09 939.472 1176.47 939.472 Q1164.85 939.472 1158.69 930.306 Q1152.58 921.093 1152.58 903.639 Q1152.58 886.139 1158.69 876.972 Q1164.85 867.76 1176.47 867.76 Z" fill="#000000" fill-rule="nonzero" fill-opacity="1" /><path clip-path="url(#clip050)" d="M1225.75 853.028 Q1231.2 854.194 1234.25 857.881 Q1237.33 861.567 1237.33 866.984 Q1237.33 875.297 1231.62 879.848 Q1225.9 884.4 1215.37 884.4 Q1211.83 884.4 1208.07 883.685 Q1204.34 883.008 1200.36 881.616 L1200.36 874.281 Q1203.52 876.124 1207.28 877.065 Q1211.04 878.005 1215.14 878.005 Q1222.29 878.005 1226.01 875.184 Q1229.77 872.363 1229.77 866.984 Q1229.77 862.018 1226.27 859.235 Q1222.81 856.414 1216.61 856.414 L1210.06 856.414 L1210.06 850.169 L1216.91 850.169 Q1222.51 850.169 1225.48 847.95 Q1228.46 845.693 1228.46 841.48 Q1228.46 837.154 1225.37 834.86 Q1222.32 832.528 1216.61 832.528 Q1213.49 832.528 1209.91 833.205 Q1206.34 833.882 1202.05 835.311 L1202.05 828.541 Q1206.38 827.337 1210.14 826.735 Q1213.94 826.133 1217.28 826.133 Q1225.94 826.133 1230.98 830.083 Q1236.02 833.995 1236.02 840.69 Q1236.02 845.355 1233.35 848.59 Q1230.68 851.787 1225.75 853.028 Z" fill="#000000" fill-rule="nonzero" fill-opacity="1" /><path clip-path="url(#clip050)" d="M803.262 766.688 L818.539 766.688 L818.539 713.957 L801.919 717.29 L801.919 708.772 L818.447 705.438 L827.799 705.438 L827.799 766.688 L843.076 766.688 L843.076 774.558 L803.262 774.558 L803.262 766.688 Z" fill="#000000" fill-rule="nonzero" fill-opacity="1" /><path clip-path="url(#clip050)" d="M861.965 762.799 L871.733 762.799 L871.733 774.558 L861.965 774.558 L861.965 762.799 Z" fill="#000000" fill-rule="nonzero" fill-opacity="1" /><path clip-path="url(#clip050)" d="M912.104 711.596 Q904.881 711.596 901.224 718.725 Q897.613 725.809 897.613 740.068 Q897.613 754.281 901.224 761.41 Q904.881 768.494 912.104 768.494 Q919.372 768.494 922.983 761.41 Q926.641 754.281 926.641 740.068 Q926.641 725.809 922.983 718.725 Q919.372 711.596 912.104 711.596 M912.104 704.188 Q923.724 704.188 929.835 713.401 Q935.992 722.568 935.992 740.068 Q935.992 757.521 929.835 766.734 Q923.724 775.901 912.104 775.901 Q900.483 775.901 894.326 766.734 Q888.215 757.521 888.215 740.068 Q888.215 722.568 894.326 713.401 Q900.483 704.188 912.104 704.188 Z" fill="#000000" fill-rule="nonzero" fill-opacity="1" /><path clip-path="url(#clip050)" d="M972.427 711.596 Q965.205 711.596 961.548 718.725 Q957.937 725.809 957.937 740.068 Q957.937 754.281 961.548 761.41 Q965.205 768.494 972.427 768.494 Q979.696 768.494 983.307 761.41 Q986.964 754.281 986.964 740.068 Q986.964 725.809 983.307 718.725 Q979.696 711.596 972.427 711.596 M972.427 704.188 Q984.048 704.188 990.159 713.401 Q996.316 722.568 996.316 740.068 Q996.316 757.521 990.159 766.734 Q984.048 775.901 972.427 775.901 Q960.807 775.901 954.65 766.734 Q948.539 757.521 948.539 740.068 Q948.539 722.568 954.65 713.401 Q960.807 704.188 972.427 704.188 Z" fill="#000000" fill-rule="nonzero" fill-opacity="1" /><path clip-path="url(#clip050)" d="M1069.09 723.633 L1047.94 744.883 L1069.09 766.04 L1063.58 771.642 L1042.33 750.392 L1021.08 771.642 L1015.62 766.04 L1036.73 744.883 L1015.62 723.633 L1021.08 718.031 L1042.33 739.281 L1063.58 718.031 L1069.09 723.633 Z" fill="#000000" fill-rule="nonzero" fill-opacity="1" /><path clip-path="url(#clip050)" d="M1093.82 766.688 L1109.09 766.688 L1109.09 713.957 L1092.47 717.29 L1092.47 708.772 L1109 705.438 L1118.35 705.438 L1118.35 766.688 L1133.63 766.688 L1133.63 774.558 L1093.82 774.558 L1093.82 766.688 Z" fill="#000000" fill-rule="nonzero" fill-opacity="1" /><path clip-path="url(#clip050)" d="M1172.52 711.596 Q1165.3 711.596 1161.64 718.725 Q1158.03 725.809 1158.03 740.068 Q1158.03 754.281 1161.64 761.41 Q1165.3 768.494 1172.52 768.494 Q1179.79 768.494 1183.4 761.41 Q1187.06 754.281 1187.06 740.068 Q1187.06 725.809 1183.4 718.725 Q1179.79 711.596 1172.52 711.596 M1172.52 704.188 Q1184.14 704.188 1190.25 713.401 Q1196.41 722.568 1196.41 740.068 Q1196.41 757.521 1190.25 766.734 Q1184.14 775.901 1172.52 775.901 Q1160.9 775.901 1154.74 766.734 Q1148.63 757.521 1148.63 740.068 Q1148.63 722.568 1154.74 713.401 Q1160.9 704.188 1172.52 704.188 Z" fill="#000000" fill-rule="nonzero" fill-opacity="1" /><path clip-path="url(#clip050)" d="M1221.76 670.198 L1202.58 700.177 L1221.76 700.177 L1221.76 670.198 M1219.77 663.578 L1229.32 663.578 L1229.32 700.177 L1237.33 700.177 L1237.33 706.497 L1229.32 706.497 L1229.32 719.738 L1221.76 719.738 L1221.76 706.497 L1196.41 706.497 L1196.41 699.162 L1219.77 663.578 Z" fill="#000000" fill-rule="nonzero" fill-opacity="1" /><path clip-path="url(#clip050)" d="M803.262 603.117 L818.539 603.117 L818.539 550.386 L801.919 553.719 L801.919 545.2 L818.447 541.867 L827.799 541.867 L827.799 603.117 L843.076 603.117 L843.076 610.987 L803.262 610.987 L803.262 603.117 Z" fill="#000000" fill-rule="nonzero" fill-opacity="1" /><path clip-path="url(#clip050)" d="M861.965 599.228 L871.733 599.228 L871.733 610.987 L861.965 610.987 L861.965 599.228 Z" fill="#000000" fill-rule="nonzero" fill-opacity="1" /><path clip-path="url(#clip050)" d="M892.196 541.867 L928.909 541.867 L928.909 549.737 L900.761 549.737 L900.761 566.682 Q902.798 565.987 904.835 565.663 Q906.872 565.293 908.909 565.293 Q920.483 565.293 927.242 571.635 Q934.002 577.978 934.002 588.811 Q934.002 599.969 927.057 606.172 Q920.113 612.33 907.474 612.33 Q903.122 612.33 898.585 611.589 Q894.094 610.848 889.28 609.367 L889.28 599.969 Q893.446 602.237 897.891 603.348 Q902.335 604.459 907.289 604.459 Q915.298 604.459 919.974 600.246 Q924.65 596.034 924.65 588.811 Q924.65 581.589 919.974 577.376 Q915.298 573.163 907.289 573.163 Q903.539 573.163 899.789 573.997 Q896.085 574.83 892.196 576.589 L892.196 541.867 Z" fill="#000000" fill-rule="nonzero" fill-opacity="1" /><path clip-path="url(#clip050)" d="M972.427 548.025 Q965.205 548.025 961.548 555.154 Q957.937 562.237 957.937 576.497 Q957.937 590.709 961.548 597.839 Q965.205 604.922 972.427 604.922 Q979.696 604.922 983.307 597.839 Q986.964 590.709 986.964 576.497 Q986.964 562.237 983.307 555.154 Q979.696 548.025 972.427 548.025 M972.427 540.617 Q984.048 540.617 990.159 549.83 Q996.316 558.997 996.316 576.497 Q996.316 593.95 990.159 603.163 Q984.048 612.33 972.427 612.33 Q960.807 612.33 954.65 603.163 Q948.539 593.95 948.539 576.497 Q948.539 558.997 954.65 549.83 Q960.807 540.617 972.427 540.617 Z" fill="#000000" fill-rule="nonzero" fill-opacity="1" /><path clip-path="url(#clip050)" d="M1069.09 560.061 L1047.94 581.311 L1069.09 602.469 L1063.58 608.07 L1042.33 586.821 L1021.08 608.07 L1015.62 602.469 L1036.73 581.311 L1015.62 560.061 L1021.08 554.46 L1042.33 575.71 L1063.58 554.46 L1069.09 560.061 Z" fill="#000000" fill-rule="nonzero" fill-opacity="1" /><path clip-path="url(#clip050)" d="M1093.82 603.117 L1109.09 603.117 L1109.09 550.386 L1092.47 553.719 L1092.47 545.2 L1109 541.867 L1118.35 541.867 L1118.35 603.117 L1133.63 603.117 L1133.63 610.987 L1093.82 610.987 L1093.82 603.117 Z" fill="#000000" fill-rule="nonzero" fill-opacity="1" /><path clip-path="url(#clip050)" d="M1172.52 548.025 Q1165.3 548.025 1161.64 555.154 Q1158.03 562.237 1158.03 576.497 Q1158.03 590.709 1161.64 597.839 Q1165.3 604.922 1172.52 604.922 Q1179.79 604.922 1183.4 597.839 Q1187.06 590.709 1187.06 576.497 Q1187.06 562.237 1183.4 555.154 Q1179.79 548.025 1172.52 548.025 M1172.52 540.617 Q1184.14 540.617 1190.25 549.83 Q1196.41 558.997 1196.41 576.497 Q1196.41 593.95 1190.25 603.163 Q1184.14 612.33 1172.52 612.33 Q1160.9 612.33 1154.74 603.163 Q1148.63 593.95 1148.63 576.497 Q1148.63 558.997 1154.74 549.83 Q1160.9 540.617 1172.52 540.617 Z" fill="#000000" fill-rule="nonzero" fill-opacity="1" /><path clip-path="url(#clip050)" d="M1221.76 506.627 L1202.58 536.606 L1221.76 536.606 L1221.76 506.627 M1219.77 500.006 L1229.32 500.006 L1229.32 536.606 L1237.33 536.606 L1237.33 542.926 L1229.32 542.926 L1229.32 556.166 L1221.76 556.166 L1221.76 542.926 L1196.41 542.926 L1196.41 535.591 L1219.77 500.006 Z" fill="#000000" fill-rule="nonzero" fill-opacity="1" /><path clip-path="url(#clip050)" d="M809.697 439.546 L842.336 439.546 L842.336 447.416 L798.447 447.416 L798.447 439.546 Q803.771 434.036 812.938 424.777 Q822.15 415.472 824.512 412.786 Q829.002 407.74 830.761 404.268 Q832.567 400.749 832.567 397.37 Q832.567 391.861 828.678 388.388 Q824.836 384.916 818.632 384.916 Q814.234 384.916 809.326 386.444 Q804.465 387.972 798.91 391.074 L798.91 381.629 Q804.558 379.361 809.465 378.203 Q814.373 377.046 818.447 377.046 Q829.187 377.046 835.576 382.416 Q841.965 387.787 841.965 396.768 Q841.965 401.027 840.345 404.87 Q838.771 408.666 834.558 413.851 Q833.4 415.194 827.197 421.629 Q820.993 428.018 809.697 439.546 Z" fill="#000000" fill-rule="nonzero" fill-opacity="1" /><path clip-path="url(#clip050)" d="M861.965 435.657 L871.733 435.657 L871.733 447.416 L861.965 447.416 L861.965 435.657 Z" fill="#000000" fill-rule="nonzero" fill-opacity="1" /><path clip-path="url(#clip050)" d="M912.104 384.453 Q904.881 384.453 901.224 391.583 Q897.613 398.666 897.613 412.925 Q897.613 427.138 901.224 434.268 Q904.881 441.351 912.104 441.351 Q919.372 441.351 922.983 434.268 Q926.641 427.138 926.641 412.925 Q926.641 398.666 922.983 391.583 Q919.372 384.453 912.104 384.453 M912.104 377.046 Q923.724 377.046 929.835 386.259 Q935.992 395.425 935.992 412.925 Q935.992 430.379 929.835 439.592 Q923.724 448.758 912.104 448.758 Q900.483 448.758 894.326 439.592 Q888.215 430.379 888.215 412.925 Q888.215 395.425 894.326 386.259 Q900.483 377.046 912.104 377.046 Z" fill="#000000" fill-rule="nonzero" fill-opacity="1" /><path clip-path="url(#clip050)" d="M972.427 384.453 Q965.205 384.453 961.548 391.583 Q957.937 398.666 957.937 412.925 Q957.937 427.138 961.548 434.268 Q965.205 441.351 972.427 441.351 Q979.696 441.351 983.307 434.268 Q986.964 427.138 986.964 412.925 Q986.964 398.666 983.307 391.583 Q979.696 384.453 972.427 384.453 M972.427 377.046 Q984.048 377.046 990.159 386.259 Q996.316 395.425 996.316 412.925 Q996.316 430.379 990.159 439.592 Q984.048 448.758 972.427 448.758 Q960.807 448.758 954.65 439.592 Q948.539 430.379 948.539 412.925 Q948.539 395.425 954.65 386.259 Q960.807 377.046 972.427 377.046 Z" fill="#000000" fill-rule="nonzero" fill-opacity="1" /><path clip-path="url(#clip050)" d="M1069.09 396.49 L1047.94 417.74 L1069.09 438.897 L1063.58 444.499 L1042.33 423.249 L1021.08 444.499 L1015.62 438.897 L1036.73 417.74 L1015.62 396.49 L1021.08 390.888 L1042.33 412.138 L1063.58 390.888 L1069.09 396.49 Z" fill="#000000" fill-rule="nonzero" fill-opacity="1" /><path clip-path="url(#clip050)" d="M1093.82 439.546 L1109.09 439.546 L1109.09 386.814 L1092.47 390.148 L1092.47 381.629 L1109 378.296 L1118.35 378.296 L1118.35 439.546 L1133.63 439.546 L1133.63 447.416 L1093.82 447.416 L1093.82 439.546 Z" fill="#000000" fill-rule="nonzero" fill-opacity="1" /><path clip-path="url(#clip050)" d="M1172.52 384.453 Q1165.3 384.453 1161.64 391.583 Q1158.03 398.666 1158.03 412.925 Q1158.03 427.138 1161.64 434.268 Q1165.3 441.351 1172.52 441.351 Q1179.79 441.351 1183.4 434.268 Q1187.06 427.138 1187.06 412.925 Q1187.06 398.666 1183.4 391.583 Q1179.79 384.453 1172.52 384.453 M1172.52 377.046 Q1184.14 377.046 1190.25 386.259 Q1196.41 395.425 1196.41 412.925 Q1196.41 430.379 1190.25 439.592 Q1184.14 448.758 1172.52 448.758 Q1160.9 448.758 1154.74 439.592 Q1148.63 430.379 1148.63 412.925 Q1148.63 395.425 1154.74 386.259 Q1160.9 377.046 1172.52 377.046 Z" fill="#000000" fill-rule="nonzero" fill-opacity="1" /><path clip-path="url(#clip050)" d="M1221.76 343.055 L1202.58 373.035 L1221.76 373.035 L1221.76 343.055 M1219.77 336.435 L1229.32 336.435 L1229.32 373.035 L1237.33 373.035 L1237.33 379.354 L1229.32 379.354 L1229.32 392.595 L1221.76 392.595 L1221.76 379.354 L1196.41 379.354 L1196.41 372.019 L1219.77 336.435 Z" fill="#000000" fill-rule="nonzero" fill-opacity="1" /><path clip-path="url(#clip050)" d="M809.697 275.974 L842.336 275.974 L842.336 283.845 L798.447 283.845 L798.447 275.974 Q803.771 270.465 812.938 261.206 Q822.15 251.9 824.512 249.215 Q829.002 244.169 830.761 240.697 Q832.567 237.178 832.567 233.799 Q832.567 228.289 828.678 224.817 Q824.836 221.345 818.632 221.345 Q814.234 221.345 809.326 222.873 Q804.465 224.401 798.91 227.502 L798.91 218.058 Q804.558 215.789 809.465 214.632 Q814.373 213.475 818.447 213.475 Q829.187 213.475 835.576 218.845 Q841.965 224.215 841.965 233.197 Q841.965 237.456 840.345 241.299 Q838.771 245.095 834.558 250.28 Q833.4 251.623 827.197 258.058 Q820.993 264.447 809.697 275.974 Z" fill="#000000" fill-rule="nonzero" fill-opacity="1" /><path clip-path="url(#clip050)" d="M861.965 272.085 L871.733 272.085 L871.733 283.845 L861.965 283.845 L861.965 272.085 Z" fill="#000000" fill-rule="nonzero" fill-opacity="1" /><path clip-path="url(#clip050)" d="M892.196 214.725 L928.909 214.725 L928.909 222.595 L900.761 222.595 L900.761 239.539 Q902.798 238.845 904.835 238.521 Q906.872 238.15 908.909 238.15 Q920.483 238.15 927.242 244.493 Q934.002 250.836 934.002 261.669 Q934.002 272.826 927.057 279.03 Q920.113 285.187 907.474 285.187 Q903.122 285.187 898.585 284.447 Q894.094 283.706 889.28 282.224 L889.28 272.826 Q893.446 275.095 897.891 276.206 Q902.335 277.317 907.289 277.317 Q915.298 277.317 919.974 273.104 Q924.65 268.891 924.65 261.669 Q924.65 254.447 919.974 250.234 Q915.298 246.021 907.289 246.021 Q903.539 246.021 899.789 246.854 Q896.085 247.687 892.196 249.447 L892.196 214.725 Z" fill="#000000" fill-rule="nonzero" fill-opacity="1" /><path clip-path="url(#clip050)" d="M972.427 220.882 Q965.205 220.882 961.548 228.012 Q957.937 235.095 957.937 249.354 Q957.937 263.567 961.548 270.697 Q965.205 277.78 972.427 277.78 Q979.696 277.78 983.307 270.697 Q986.964 263.567 986.964 249.354 Q986.964 235.095 983.307 228.012 Q979.696 220.882 972.427 220.882 M972.427 213.475 Q984.048 213.475 990.159 222.688 Q996.316 231.854 996.316 249.354 Q996.316 266.808 990.159 276.021 Q984.048 285.187 972.427 285.187 Q960.807 285.187 954.65 276.021 Q948.539 266.808 948.539 249.354 Q948.539 231.854 954.65 222.688 Q960.807 213.475 972.427 213.475 Z" fill="#000000" fill-rule="nonzero" fill-opacity="1" /><path clip-path="url(#clip050)" d="M1069.09 232.919 L1047.94 254.169 L1069.09 275.326 L1063.58 280.928 L1042.33 259.678 L1021.08 280.928 L1015.62 275.326 L1036.73 254.169 L1015.62 232.919 L1021.08 227.317 L1042.33 248.567 L1063.58 227.317 L1069.09 232.919 Z" fill="#000000" fill-rule="nonzero" fill-opacity="1" /><path clip-path="url(#clip050)" d="M1093.82 275.974 L1109.09 275.974 L1109.09 223.243 L1092.47 226.576 L1092.47 218.058 L1109 214.725 L1118.35 214.725 L1118.35 275.974 L1133.63 275.974 L1133.63 283.845 L1093.82 283.845 L1093.82 275.974 Z" fill="#000000" fill-rule="nonzero" fill-opacity="1" /><path clip-path="url(#clip050)" d="M1172.52 220.882 Q1165.3 220.882 1161.64 228.012 Q1158.03 235.095 1158.03 249.354 Q1158.03 263.567 1161.64 270.697 Q1165.3 277.78 1172.52 277.78 Q1179.79 277.78 1183.4 270.697 Q1187.06 263.567 1187.06 249.354 Q1187.06 235.095 1183.4 228.012 Q1179.79 220.882 1172.52 220.882 M1172.52 213.475 Q1184.14 213.475 1190.25 222.688 Q1196.41 231.854 1196.41 249.354 Q1196.41 266.808 1190.25 276.021 Q1184.14 285.187 1172.52 285.187 Q1160.9 285.187 1154.74 276.021 Q1148.63 266.808 1148.63 249.354 Q1148.63 231.854 1154.74 222.688 Q1160.9 213.475 1172.52 213.475 Z" fill="#000000" fill-rule="nonzero" fill-opacity="1" /><path clip-path="url(#clip050)" d="M1221.76 179.484 L1202.58 209.464 L1221.76 209.464 L1221.76 179.484 M1219.77 172.864 L1229.32 172.864 L1229.32 209.464 L1237.33 209.464 L1237.33 215.783 L1229.32 215.783 L1229.32 229.024 L1221.76 229.024 L1221.76 215.783 L1196.41 215.783 L1196.41 208.448 L1219.77 172.864 Z" fill="#000000" fill-rule="nonzero" fill-opacity="1" /><path clip-path="url(#clip050)" d="M662.639 1010.23 L662.639 998.518 L733.935 998.518 L733.935 1010.23 L662.639 1010.23 M634.884 1010.23 L634.884 998.518 L649.717 998.518 L649.717 1010.23 L634.884 1010.23 Z" fill="#000000" fill-rule="nonzero" fill-opacity="1" /><path clip-path="url(#clip050)" d="M690.903 914.746 L733.935 914.746 L733.935 926.458 L691.285 926.458 Q681.163 926.458 676.134 930.405 Q671.105 934.352 671.105 942.245 Q671.105 951.73 677.153 957.205 Q683.2 962.679 693.64 962.679 L733.935 962.679 L733.935 974.456 L662.639 974.456 L662.639 962.679 L673.715 962.679 Q667.286 958.478 664.103 952.812 Q660.92 947.083 660.92 939.635 Q660.92 927.35 668.559 921.048 Q676.134 914.746 690.903 914.746 Z" fill="#000000" fill-rule="nonzero" fill-opacity="1" /><path clip-path="url(#clip050)" d="M634.884 855.29 L644.624 855.29 L644.624 866.493 Q644.624 872.796 647.17 875.278 Q649.717 877.697 656.337 877.697 L662.639 877.697 L662.639 858.409 L671.742 858.409 L671.742 877.697 L733.935 877.697 L733.935 889.474 L671.742 889.474 L671.742 900.677 L662.639 900.677 L662.639 889.474 L657.674 889.474 Q645.77 889.474 640.359 883.936 Q634.884 878.397 634.884 866.366 L634.884 855.29 Z" fill="#000000" fill-rule="nonzero" fill-opacity="1" /><path clip-path="url(#clip050)" d="M705.798 846.696 L662.639 846.696 L662.639 834.983 L705.353 834.983 Q715.474 834.983 720.567 831.037 Q725.596 827.09 725.596 819.196 Q725.596 809.711 719.548 804.237 Q713.501 798.699 703.061 798.699 L662.639 798.699 L662.639 786.986 L733.935 786.986 L733.935 798.699 L722.986 798.699 Q729.479 802.964 732.662 808.629 Q735.781 814.231 735.781 821.679 Q735.781 833.965 728.142 840.33 Q720.503 846.696 705.798 846.696 M660.92 817.223 L660.92 817.223 Z" fill="#000000" fill-rule="nonzero" fill-opacity="1" /><path clip-path="url(#clip050)" d="M664.74 717.409 L675.816 717.409 Q673.27 722.374 671.997 727.721 Q670.723 733.068 670.723 738.797 Q670.723 747.518 673.397 751.911 Q676.071 756.239 681.418 756.239 Q685.492 756.239 687.847 753.12 Q690.139 750.001 692.239 740.58 L693.131 736.569 Q695.804 724.093 700.706 718.873 Q705.544 713.589 714.265 713.589 Q724.195 713.589 729.988 721.483 Q735.781 729.313 735.781 743.062 Q735.781 748.792 734.635 755.03 Q733.553 761.205 731.325 768.08 L719.23 768.08 Q722.604 761.587 724.323 755.285 Q725.978 748.983 725.978 742.808 Q725.978 734.532 723.177 730.076 Q720.312 725.62 715.156 725.62 Q710.382 725.62 707.835 728.867 Q705.289 732.05 702.934 742.935 L701.979 747.009 Q699.687 757.895 694.977 762.732 Q690.202 767.57 681.927 767.57 Q671.869 767.57 666.395 760.441 Q660.92 753.311 660.92 740.198 Q660.92 733.705 661.875 727.976 Q662.83 722.247 664.74 717.409 Z" fill="#000000" fill-rule="nonzero" fill-opacity="1" /><path clip-path="url(#clip050)" d="M695.359 633.954 L701.088 633.954 L701.088 687.808 Q713.183 687.044 719.548 680.551 Q725.85 673.995 725.85 662.345 Q725.85 655.598 724.195 649.296 Q722.54 642.93 719.23 636.691 L730.306 636.691 Q732.98 642.994 734.38 649.614 Q735.781 656.234 735.781 663.046 Q735.781 680.106 725.85 690.1 Q715.92 700.03 698.987 700.03 Q681.481 700.03 671.233 690.609 Q660.92 681.124 660.92 665.083 Q660.92 650.696 670.214 642.357 Q679.444 633.954 695.359 633.954 M691.921 645.667 Q682.309 645.794 676.58 651.078 Q670.851 656.298 670.851 664.955 Q670.851 674.758 676.389 680.679 Q681.927 686.535 691.985 687.426 L691.921 645.667 Z" fill="#000000" fill-rule="nonzero" fill-opacity="1" /><path clip-path="url(#clip050)" d="M673.461 567.815 L634.884 567.815 L634.884 556.102 L733.935 556.102 L733.935 567.815 L723.24 567.815 Q729.606 571.507 732.725 577.172 Q735.781 582.774 735.781 590.667 Q735.781 603.59 725.468 611.738 Q715.156 619.822 698.351 619.822 Q681.545 619.822 671.233 611.738 Q660.92 603.59 660.92 590.667 Q660.92 582.774 664.039 577.172 Q667.095 571.507 673.461 567.815 M698.351 607.728 Q711.273 607.728 718.657 602.444 Q725.978 597.097 725.978 587.803 Q725.978 578.509 718.657 573.162 Q711.273 567.815 698.351 567.815 Q685.428 567.815 678.108 573.162 Q670.723 578.509 670.723 587.803 Q670.723 597.097 678.108 602.444 Q685.428 607.728 698.351 607.728 Z" fill="#000000" fill-rule="nonzero" fill-opacity="1" /><path clip-path="url(#clip050)" d="M676.325 435.026 Q668.432 430.634 664.676 424.522 Q660.92 418.411 660.92 410.136 Q660.92 398.996 668.75 392.949 Q676.516 386.901 690.903 386.901 L733.935 386.901 L733.935 398.678 L691.285 398.678 Q681.036 398.678 676.071 402.306 Q671.105 405.935 671.105 413.382 Q671.105 422.485 677.153 427.769 Q683.2 433.053 693.64 433.053 L733.935 433.053 L733.935 444.829 L691.285 444.829 Q680.972 444.829 676.071 448.458 Q671.105 452.086 671.105 459.661 Q671.105 468.637 677.216 473.92 Q683.264 479.204 693.64 479.204 L733.935 479.204 L733.935 490.98 L662.639 490.98 L662.639 479.204 L673.715 479.204 Q667.159 475.194 664.039 469.592 Q660.92 463.99 660.92 456.287 Q660.92 448.521 664.867 443.11 Q668.814 437.636 676.325 435.026 Z" fill="#000000" fill-rule="nonzero" fill-opacity="1" /><path clip-path="url(#clip050)" d="M698.096 331.138 Q698.096 345.333 701.342 350.808 Q704.589 356.282 712.419 356.282 Q718.657 356.282 722.349 352.208 Q725.978 348.07 725.978 341.004 Q725.978 331.265 719.103 325.408 Q712.164 319.488 700.706 319.488 L698.096 319.488 L698.096 331.138 M693.258 307.775 L733.935 307.775 L733.935 319.488 L723.113 319.488 Q729.606 323.499 732.725 329.482 Q735.781 335.466 735.781 344.124 Q735.781 355.073 729.67 361.566 Q723.495 367.995 713.183 367.995 Q701.151 367.995 695.04 359.974 Q688.929 351.89 688.929 335.912 L688.929 319.488 L687.783 319.488 Q679.699 319.488 675.307 324.836 Q670.851 330.119 670.851 339.731 Q670.851 345.842 672.315 351.635 Q673.779 357.428 676.707 362.775 L665.885 362.775 Q663.403 356.346 662.193 350.298 Q660.92 344.251 660.92 338.522 Q660.92 323.053 668.941 315.414 Q676.962 307.775 693.258 307.775 Z" fill="#000000" fill-rule="nonzero" fill-opacity="1" /><path clip-path="url(#clip050)" d="M664.74 238.198 L675.816 238.198 Q673.27 243.163 671.997 248.511 Q670.723 253.858 670.723 259.587 Q670.723 268.308 673.397 272.7 Q676.071 277.029 681.418 277.029 Q685.492 277.029 687.847 273.91 Q690.139 270.791 692.239 261.369 L693.131 257.359 Q695.804 244.882 700.706 239.662 Q705.544 234.379 714.265 234.379 Q724.195 234.379 729.988 242.272 Q735.781 250.102 735.781 263.852 Q735.781 269.581 734.635 275.82 Q733.553 281.994 731.325 288.869 L719.23 288.869 Q722.604 282.376 724.323 276.074 Q725.978 269.772 725.978 263.597 Q725.978 255.322 723.177 250.866 Q720.312 246.41 715.156 246.41 Q710.382 246.41 707.835 249.657 Q705.289 252.839 702.934 263.725 L701.979 267.799 Q699.687 278.684 694.977 283.522 Q690.202 288.36 681.927 288.36 Q671.869 288.36 666.395 281.23 Q660.92 274.101 660.92 260.987 Q660.92 254.494 661.875 248.765 Q662.83 243.036 664.74 238.198 Z" fill="#000000" fill-rule="nonzero" fill-opacity="1" /><path clip-path="url(#clip050)" d="M664.74 170.276 L675.816 170.276 Q673.27 175.241 671.997 180.589 Q670.723 185.936 670.723 191.665 Q670.723 200.386 673.397 204.778 Q676.071 209.107 681.418 209.107 Q685.492 209.107 687.847 205.988 Q690.139 202.869 692.239 193.447 L693.131 189.437 Q695.804 176.96 700.706 171.74 Q705.544 166.457 714.265 166.457 Q724.195 166.457 729.988 174.35 Q735.781 182.18 735.781 195.93 Q735.781 201.659 734.635 207.897 Q733.553 214.072 731.325 220.947 L719.23 220.947 Q722.604 214.454 724.323 208.152 Q725.978 201.85 725.978 195.675 Q725.978 187.4 723.177 182.944 Q720.312 178.488 715.156 178.488 Q710.382 178.488 707.835 181.734 Q705.289 184.917 702.934 195.803 L701.979 199.877 Q699.687 210.762 694.977 215.6 Q690.202 220.438 681.927 220.438 Q671.869 220.438 666.395 213.308 Q660.92 206.179 660.92 193.065 Q660.92 186.572 661.875 180.843 Q662.83 175.114 664.74 170.276 Z" fill="#000000" fill-rule="nonzero" fill-opacity="1" /><polyline clip-path="url(#clip052)" style="stroke:#009af9; stroke-linecap:round; stroke-linejoin:round; stroke-width:8; stroke-opacity:1; fill:none" points="1302.55,386.787 1305.61,416.694 1306.9,423.781 1309.15,432.364 1311.4,438.285 1314.14,443.741 1317.33,448.873 1321.29,454.373 1326.37,460.641 1333.32,468.303 1342.87,477.648 1355.01,488.158 1370.63,500.136 1390.64,513.725 1416.38,529.209 1449.47,546.848 1491.72,566.81 1545.07,589.13 1612.98,614.188 1701.49,642.704 1819.29,675.267 1965.53,709.488 2139,743.825 2276.3,767.539 "/>
<polyline clip-path="url(#clip052)" style="stroke:#e26f46; stroke-linecap:round; stroke-linejoin:round; stroke-width:8; stroke-opacity:1; fill:none" points="1302.55,819.317 1305.61,801.832 1306.9,797.951 1309.15,793.572 1311.4,790.877 1314.14,788.708 1317.33,786.948 1321.29,785.317 1326.37,783.723 1333.32,782.112 1342.87,780.628 1355.01,779.57 1370.63,779.119 1390.64,779.524 1416.38,781.078 1449.47,784.13 1491.72,789.041 1545.07,796.13 1612.98,805.836 1701.49,818.861 1819.29,835.999 1965.53,856.155 2139,877.874 2276.3,893.272 "/>
<polyline clip-path="url(#clip052)" style="stroke:#3da44d; stroke-linecap:round; stroke-linejoin:round; stroke-width:8; stroke-opacity:1; fill:none" points="1302.55,1024.83 1305.61,1012.59 1306.9,1009.47 1309.15,1005.44 1311.4,1002.4 1314.14,999.354 1317.33,996.275 1321.29,992.791 1326.37,988.645 1333.32,983.368 1342.87,976.665 1355.01,968.827 1370.63,959.597 1390.64,948.873 1416.38,936.524 1449.47,922.574 1491.72,907.32 1545.07,891.418 1612.98,875.613 1701.49,861.001 1819.29,849.663 1965.53,844.845 2139,847.813 2276.3,854.277 "/>
<polyline clip-path="url(#clip052)" style="stroke:#c271d2; stroke-linecap:round; stroke-linejoin:round; stroke-width:8; stroke-opacity:1; fill:none" points="1302.55,1054.25 1305.61,1054.06 1306.9,1053.97 1309.15,1053.8 1311.4,1053.62 1314.14,1053.38 1317.33,1053.08 1321.29,1052.7 1326.37,1052.17 1333.32,1051.4 1342.87,1050.24 1355.01,1048.62 1370.63,1046.33 1390.64,1043.06 1416.38,1038.37 1449.47,1031.63 1491.72,1022.01 1545.07,1008.5 1612.98,989.542 1701.49,962.613 1819.29,924.25 1965.53,874.69 2139,815.666 2276.3,770.091 "/>
<polyline clip-path="url(#clip052)" style="stroke:#ac8d18; stroke-linecap:round; stroke-linejoin:round; stroke-width:8; stroke-opacity:1; fill:none" points="1302.55,122.442 1305.61,122.442 1306.9,122.442 1309.15,122.442 1311.4,122.442 1314.14,122.442 1317.33,122.442 1321.29,122.442 1326.37,122.442 1333.32,122.442 1342.87,122.442 1355.01,122.442 1370.63,122.442 1390.64,122.442 1416.38,122.442 1449.47,122.442 1491.72,122.442 1545.07,122.442 1612.98,122.442 1701.49,122.442 1819.29,122.442 1965.53,122.442 2139,122.442 2276.3,122.442 "/>
<path clip-path="url(#clip050)" d="M1761.92 880.468 L2271.11 880.468 L2271.11 258.388 L1761.92 258.388  Z" fill="#ffffff" fill-rule="evenodd" fill-opacity="1"/>
<polyline clip-path="url(#clip050)" style="stroke:#000000; stroke-linecap:round; stroke-linejoin:round; stroke-width:8; stroke-opacity:1; fill:none" points="1761.92,880.468 2271.11,880.468 2271.11,258.388 1761.92,258.388 1761.92,880.468 "/>
<polyline clip-path="url(#clip050)" style="stroke:#009af9; stroke-linecap:round; stroke-linejoin:round; stroke-width:8; stroke-opacity:1; fill:none" points="1773.39,362.068 1842.2,362.068 "/>
<path clip-path="url(#clip050)" d="M1891.21 370.748 Q1891.21 361.35 1887.32 356.026 Q1883.48 350.656 1876.72 350.656 Q1869.96 350.656 1866.07 356.026 Q1862.23 361.35 1862.23 370.748 Q1862.23 380.146 1866.07 385.517 Q1869.96 390.841 1876.72 390.841 Q1883.48 390.841 1887.32 385.517 Q1891.21 380.146 1891.21 370.748 M1862.23 352.646 Q1864.92 348.017 1868.99 345.795 Q1873.11 343.526 1878.81 343.526 Q1888.25 343.526 1894.13 351.026 Q1900.06 358.526 1900.06 370.748 Q1900.06 382.97 1894.13 390.47 Q1888.25 397.97 1878.81 397.97 Q1873.11 397.97 1868.99 395.748 Q1864.92 393.48 1862.23 388.85 L1862.23 396.628 L1853.67 396.628 L1853.67 324.591 L1862.23 324.591 L1862.23 352.646 Z" fill="#000000" fill-rule="nonzero" fill-opacity="1" /><path clip-path="url(#clip050)" d="M1944.22 352.739 Q1942.79 351.906 1941.07 351.535 Q1939.41 351.119 1937.37 351.119 Q1930.15 351.119 1926.26 355.841 Q1922.42 360.517 1922.42 369.313 L1922.42 396.628 L1913.85 396.628 L1913.85 344.776 L1922.42 344.776 L1922.42 352.832 Q1925.1 348.109 1929.41 345.841 Q1933.71 343.526 1939.87 343.526 Q1940.75 343.526 1941.81 343.665 Q1942.88 343.758 1944.18 343.989 L1944.22 352.739 Z" fill="#000000" fill-rule="nonzero" fill-opacity="1" /><path clip-path="url(#clip050)" d="M1976.72 370.563 Q1966.4 370.563 1962.42 372.924 Q1958.44 375.285 1958.44 380.98 Q1958.44 385.517 1961.4 388.202 Q1964.41 390.841 1969.55 390.841 Q1976.63 390.841 1980.89 385.841 Q1985.19 380.794 1985.19 372.461 L1985.19 370.563 L1976.72 370.563 M1993.71 367.044 L1993.71 396.628 L1985.19 396.628 L1985.19 388.757 Q1982.28 393.48 1977.93 395.748 Q1973.57 397.97 1967.28 397.97 Q1959.31 397.97 1954.59 393.526 Q1949.92 389.035 1949.92 381.535 Q1949.92 372.785 1955.75 368.341 Q1961.63 363.896 1973.25 363.896 L1985.19 363.896 L1985.19 363.063 Q1985.19 357.183 1981.31 353.989 Q1977.46 350.748 1970.47 350.748 Q1966.03 350.748 1961.81 351.813 Q1957.6 352.878 1953.71 355.008 L1953.71 347.137 Q1958.39 345.332 1962.79 344.452 Q1967.19 343.526 1971.35 343.526 Q1982.6 343.526 1988.16 349.359 Q1993.71 355.193 1993.71 367.044 Z" fill="#000000" fill-rule="nonzero" fill-opacity="1" /><path clip-path="url(#clip050)" d="M2011.26 344.776 L2019.78 344.776 L2019.78 396.628 L2011.26 396.628 L2011.26 344.776 M2011.26 324.591 L2019.78 324.591 L2019.78 335.378 L2011.26 335.378 L2011.26 324.591 Z" fill="#000000" fill-rule="nonzero" fill-opacity="1" /><path clip-path="url(#clip050)" d="M2080.7 365.332 L2080.7 396.628 L2072.18 396.628 L2072.18 365.609 Q2072.18 358.248 2069.31 354.591 Q2066.44 350.933 2060.7 350.933 Q2053.8 350.933 2049.82 355.332 Q2045.84 359.73 2045.84 367.322 L2045.84 396.628 L2037.28 396.628 L2037.28 344.776 L2045.84 344.776 L2045.84 352.832 Q2048.9 348.156 2053.02 345.841 Q2057.18 343.526 2062.6 343.526 Q2071.54 343.526 2076.12 349.082 Q2080.7 354.591 2080.7 365.332 Z" fill="#000000" fill-rule="nonzero" fill-opacity="1" /><polyline clip-path="url(#clip050)" style="stroke:#e26f46; stroke-linecap:round; stroke-linejoin:round; stroke-width:8; stroke-opacity:1; fill:none" points="1773.39,465.748 1842.2,465.748 "/>
<path clip-path="url(#clip050)" d="M1853.67 448.456 L1862.69 448.456 L1878.9 491.974 L1895.1 448.456 L1904.13 448.456 L1884.69 500.308 L1873.11 500.308 L1853.67 448.456 Z" fill="#000000" fill-rule="nonzero" fill-opacity="1" /><path clip-path="url(#clip050)" d="M1960.24 472.252 L1960.24 476.419 L1921.07 476.419 Q1921.63 485.215 1926.35 489.845 Q1931.12 494.428 1939.59 494.428 Q1944.5 494.428 1949.08 493.224 Q1953.71 492.021 1958.25 489.613 L1958.25 497.669 Q1953.67 499.613 1948.85 500.632 Q1944.04 501.65 1939.08 501.65 Q1926.68 501.65 1919.41 494.428 Q1912.19 487.206 1912.19 474.891 Q1912.19 462.16 1919.04 454.706 Q1925.94 447.206 1937.6 447.206 Q1948.06 447.206 1954.13 453.965 Q1960.24 460.678 1960.24 472.252 M1951.72 469.752 Q1951.63 462.762 1947.79 458.595 Q1943.99 454.428 1937.69 454.428 Q1930.56 454.428 1926.26 458.456 Q1922 462.484 1921.35 469.799 L1951.72 469.752 Z" fill="#000000" fill-rule="nonzero" fill-opacity="1" /><path clip-path="url(#clip050)" d="M2017.32 469.012 L2017.32 500.308 L2008.81 500.308 L2008.81 469.289 Q2008.81 461.928 2005.93 458.271 Q2003.06 454.613 1997.32 454.613 Q1990.43 454.613 1986.44 459.012 Q1982.46 463.41 1982.46 471.002 L1982.46 500.308 L1973.9 500.308 L1973.9 448.456 L1982.46 448.456 L1982.46 456.512 Q1985.52 451.836 1989.64 449.521 Q1993.81 447.206 1999.22 447.206 Q2008.16 447.206 2012.74 452.762 Q2017.32 458.271 2017.32 469.012 Z" fill="#000000" fill-rule="nonzero" fill-opacity="1" /><path clip-path="url(#clip050)" d="M2042.74 433.734 L2042.74 448.456 L2060.29 448.456 L2060.29 455.076 L2042.74 455.076 L2042.74 483.224 Q2042.74 489.567 2044.45 491.373 Q2046.21 493.178 2051.54 493.178 L2060.29 493.178 L2060.29 500.308 L2051.54 500.308 Q2041.68 500.308 2037.93 496.65 Q2034.18 492.947 2034.18 483.224 L2034.18 455.076 L2027.93 455.076 L2027.93 448.456 L2034.18 448.456 L2034.18 433.734 L2042.74 433.734 Z" fill="#000000" fill-rule="nonzero" fill-opacity="1" /><path clip-path="url(#clip050)" d="M2101.54 456.419 Q2100.1 455.586 2098.39 455.215 Q2096.72 454.799 2094.68 454.799 Q2087.46 454.799 2083.57 459.521 Q2079.73 464.197 2079.73 472.993 L2079.73 500.308 L2071.17 500.308 L2071.17 448.456 L2079.73 448.456 L2079.73 456.512 Q2082.42 451.789 2086.72 449.521 Q2091.03 447.206 2097.18 447.206 Q2098.06 447.206 2099.13 447.345 Q2100.19 447.438 2101.49 447.669 L2101.54 456.419 Z" fill="#000000" fill-rule="nonzero" fill-opacity="1" /><path clip-path="url(#clip050)" d="M2110.47 448.456 L2118.99 448.456 L2118.99 500.308 L2110.47 500.308 L2110.47 448.456 M2110.47 428.271 L2118.99 428.271 L2118.99 439.058 L2110.47 439.058 L2110.47 428.271 Z" fill="#000000" fill-rule="nonzero" fill-opacity="1" /><path clip-path="url(#clip050)" d="M2174.13 450.447 L2174.13 458.41 Q2170.52 456.419 2166.86 455.447 Q2163.25 454.428 2159.55 454.428 Q2151.26 454.428 2146.67 459.706 Q2142.09 464.937 2142.09 474.428 Q2142.09 483.919 2146.67 489.197 Q2151.26 494.428 2159.55 494.428 Q2163.25 494.428 2166.86 493.456 Q2170.52 492.437 2174.13 490.447 L2174.13 498.317 Q2170.56 499.984 2166.72 500.817 Q2162.92 501.65 2158.62 501.65 Q2146.91 501.65 2140.01 494.289 Q2133.11 486.928 2133.11 474.428 Q2133.11 461.743 2140.05 454.475 Q2147.05 447.206 2159.17 447.206 Q2163.11 447.206 2166.86 448.039 Q2170.61 448.826 2174.13 450.447 Z" fill="#000000" fill-rule="nonzero" fill-opacity="1" /><path clip-path="url(#clip050)" d="M2188.94 428.271 L2197.46 428.271 L2197.46 500.308 L2188.94 500.308 L2188.94 428.271 Z" fill="#000000" fill-rule="nonzero" fill-opacity="1" /><path clip-path="url(#clip050)" d="M2259.64 472.252 L2259.64 476.419 L2220.47 476.419 Q2221.03 485.215 2225.75 489.845 Q2230.52 494.428 2238.99 494.428 Q2243.9 494.428 2248.48 493.224 Q2253.11 492.021 2257.65 489.613 L2257.65 497.669 Q2253.06 499.613 2248.25 500.632 Q2243.43 501.65 2238.48 501.65 Q2226.07 501.65 2218.8 494.428 Q2211.58 487.206 2211.58 474.891 Q2211.58 462.16 2218.43 454.706 Q2225.33 447.206 2237 447.206 Q2247.46 447.206 2253.53 453.965 Q2259.64 460.678 2259.64 472.252 M2251.12 469.752 Q2251.03 462.762 2247.18 458.595 Q2243.39 454.428 2237.09 454.428 Q2229.96 454.428 2225.66 458.456 Q2221.4 462.484 2220.75 469.799 L2251.12 469.752 Z" fill="#000000" fill-rule="nonzero" fill-opacity="1" /><polyline clip-path="url(#clip050)" style="stroke:#3da44d; stroke-linecap:round; stroke-linejoin:round; stroke-width:8; stroke-opacity:1; fill:none" points="1773.39,569.428 1842.2,569.428 "/>
<path clip-path="url(#clip050)" d="M1909.41 540.192 L1909.41 550.053 Q1904.69 545.655 1899.32 543.479 Q1893.99 541.303 1887.97 541.303 Q1876.12 541.303 1869.82 548.571 Q1863.53 555.793 1863.53 569.497 Q1863.53 583.154 1869.82 590.423 Q1876.12 597.645 1887.97 597.645 Q1893.99 597.645 1899.32 595.469 Q1904.69 593.293 1909.41 588.895 L1909.41 598.664 Q1904.5 601.997 1898.99 603.664 Q1893.53 605.33 1887.42 605.33 Q1871.72 605.33 1862.69 595.747 Q1853.67 586.117 1853.67 569.497 Q1853.67 552.831 1862.69 543.247 Q1871.72 533.618 1887.42 533.618 Q1893.62 533.618 1899.08 535.284 Q1904.59 536.905 1909.41 540.192 Z" fill="#000000" fill-rule="nonzero" fill-opacity="1" /><path clip-path="url(#clip050)" d="M1923.85 534.868 L1937.79 534.868 L1955.43 581.904 L1973.16 534.868 L1987.09 534.868 L1987.09 603.988 L1977.97 603.988 L1977.97 543.294 L1960.15 590.701 L1950.75 590.701 L1932.93 543.294 L1932.93 603.988 L1923.85 603.988 L1923.85 534.868 Z" fill="#000000" fill-rule="nonzero" fill-opacity="1" /><polyline clip-path="url(#clip050)" style="stroke:#c271d2; stroke-linecap:round; stroke-linejoin:round; stroke-width:8; stroke-opacity:1; fill:none" points="1773.39,673.108 1842.2,673.108 "/>
<path clip-path="url(#clip050)" d="M1891.21 681.788 Q1891.21 672.39 1887.32 667.066 Q1883.48 661.696 1876.72 661.696 Q1869.96 661.696 1866.07 667.066 Q1862.23 672.39 1862.23 681.788 Q1862.23 691.186 1866.07 696.557 Q1869.96 701.881 1876.72 701.881 Q1883.48 701.881 1887.32 696.557 Q1891.21 691.186 1891.21 681.788 M1862.23 663.686 Q1864.92 659.057 1868.99 656.835 Q1873.11 654.566 1878.81 654.566 Q1888.25 654.566 1894.13 662.066 Q1900.06 669.566 1900.06 681.788 Q1900.06 694.01 1894.13 701.51 Q1888.25 709.01 1878.81 709.01 Q1873.11 709.01 1868.99 706.788 Q1864.92 704.52 1862.23 699.89 L1862.23 707.668 L1853.67 707.668 L1853.67 635.631 L1862.23 635.631 L1862.23 663.686 Z" fill="#000000" fill-rule="nonzero" fill-opacity="1" /><path clip-path="url(#clip050)" d="M1914.18 635.631 L1922.69 635.631 L1922.69 707.668 L1914.18 707.668 L1914.18 635.631 Z" fill="#000000" fill-rule="nonzero" fill-opacity="1" /><path clip-path="url(#clip050)" d="M1960.61 661.788 Q1953.76 661.788 1949.78 667.159 Q1945.8 672.483 1945.8 681.788 Q1945.8 691.094 1949.73 696.464 Q1953.71 701.788 1960.61 701.788 Q1967.42 701.788 1971.4 696.418 Q1975.38 691.047 1975.38 681.788 Q1975.38 672.575 1971.4 667.205 Q1967.42 661.788 1960.61 661.788 M1960.61 654.566 Q1971.72 654.566 1978.06 661.788 Q1984.41 669.01 1984.41 681.788 Q1984.41 694.52 1978.06 701.788 Q1971.72 709.01 1960.61 709.01 Q1949.45 709.01 1943.11 701.788 Q1936.81 694.52 1936.81 681.788 Q1936.81 669.01 1943.11 661.788 Q1949.45 654.566 1960.61 654.566 Z" fill="#000000" fill-rule="nonzero" fill-opacity="1" /><path clip-path="url(#clip050)" d="M2018.62 661.788 Q2011.77 661.788 2007.79 667.159 Q2003.81 672.483 2003.81 681.788 Q2003.81 691.094 2007.74 696.464 Q2011.72 701.788 2018.62 701.788 Q2025.43 701.788 2029.41 696.418 Q2033.39 691.047 2033.39 681.788 Q2033.39 672.575 2029.41 667.205 Q2025.43 661.788 2018.62 661.788 M2018.62 654.566 Q2029.73 654.566 2036.07 661.788 Q2042.42 669.01 2042.42 681.788 Q2042.42 694.52 2036.07 701.788 Q2029.73 709.01 2018.62 709.01 Q2007.46 709.01 2001.12 701.788 Q1994.82 694.52 1994.82 681.788 Q1994.82 669.01 2001.12 661.788 Q2007.46 654.566 2018.62 654.566 Z" fill="#000000" fill-rule="nonzero" fill-opacity="1" /><path clip-path="url(#clip050)" d="M2090.66 663.686 L2090.66 635.631 L2099.18 635.631 L2099.18 707.668 L2090.66 707.668 L2090.66 699.89 Q2087.97 704.52 2083.85 706.788 Q2079.78 709.01 2074.04 709.01 Q2064.64 709.01 2058.71 701.51 Q2052.83 694.01 2052.83 681.788 Q2052.83 669.566 2058.71 662.066 Q2064.64 654.566 2074.04 654.566 Q2079.78 654.566 2083.85 656.835 Q2087.97 659.057 2090.66 663.686 M2061.63 681.788 Q2061.63 691.186 2065.47 696.557 Q2069.36 701.881 2076.12 701.881 Q2082.88 701.881 2086.77 696.557 Q2090.66 691.186 2090.66 681.788 Q2090.66 672.39 2086.77 667.066 Q2082.88 661.696 2076.12 661.696 Q2069.36 661.696 2065.47 667.066 Q2061.63 672.39 2061.63 681.788 Z" fill="#000000" fill-rule="nonzero" fill-opacity="1" /><polyline clip-path="url(#clip050)" style="stroke:#ac8d18; stroke-linecap:round; stroke-linejoin:round; stroke-width:8; stroke-opacity:1; fill:none" points="1773.39,776.788 1842.2,776.788 "/>
<path clip-path="url(#clip050)" d="M1890.52 761.024 L1890.52 769.079 Q1886.91 767.228 1883.02 766.302 Q1879.13 765.376 1874.96 765.376 Q1868.62 765.376 1865.43 767.32 Q1862.28 769.265 1862.28 773.153 Q1862.28 776.116 1864.55 777.829 Q1866.82 779.496 1873.67 781.024 L1876.58 781.672 Q1885.66 783.616 1889.45 787.181 Q1893.3 790.7 1893.3 797.042 Q1893.3 804.264 1887.56 808.477 Q1881.86 812.69 1871.86 812.69 Q1867.69 812.69 1863.16 811.857 Q1858.67 811.07 1853.67 809.45 L1853.67 800.653 Q1858.39 803.107 1862.97 804.357 Q1867.56 805.561 1872.05 805.561 Q1878.07 805.561 1881.31 803.524 Q1884.55 801.44 1884.55 797.69 Q1884.55 794.218 1882.19 792.366 Q1879.87 790.514 1871.95 788.801 L1868.99 788.107 Q1861.07 786.44 1857.56 783.014 Q1854.04 779.542 1854.04 773.524 Q1854.04 766.209 1859.22 762.228 Q1864.41 758.246 1873.94 758.246 Q1878.67 758.246 1882.83 758.941 Q1887 759.635 1890.52 761.024 Z" fill="#000000" fill-rule="nonzero" fill-opacity="1" /><path clip-path="url(#clip050)" d="M1905.98 790.885 L1905.98 759.496 L1914.5 759.496 L1914.5 790.561 Q1914.5 797.922 1917.37 801.625 Q1920.24 805.283 1925.98 805.283 Q1932.88 805.283 1936.86 800.885 Q1940.89 796.487 1940.89 788.894 L1940.89 759.496 L1949.41 759.496 L1949.41 811.348 L1940.89 811.348 L1940.89 803.385 Q1937.79 808.107 1933.67 810.422 Q1929.59 812.69 1924.18 812.69 Q1915.24 812.69 1910.61 807.135 Q1905.98 801.579 1905.98 790.885 M1927.42 758.246 L1927.42 758.246 Z" fill="#000000" fill-rule="nonzero" fill-opacity="1" /><path clip-path="url(#clip050)" d="M2007.32 769.45 Q2010.52 763.709 2014.96 760.978 Q2019.41 758.246 2025.43 758.246 Q2033.53 758.246 2037.93 763.941 Q2042.32 769.589 2042.32 780.052 L2042.32 811.348 L2033.76 811.348 L2033.76 780.329 Q2033.76 772.876 2031.12 769.265 Q2028.48 765.653 2023.06 765.653 Q2016.44 765.653 2012.6 770.052 Q2008.76 774.45 2008.76 782.042 L2008.76 811.348 L2000.19 811.348 L2000.19 780.329 Q2000.19 772.829 1997.56 769.265 Q1994.92 765.653 1989.41 765.653 Q1982.88 765.653 1979.04 770.098 Q1975.19 774.496 1975.19 782.042 L1975.19 811.348 L1966.63 811.348 L1966.63 759.496 L1975.19 759.496 L1975.19 767.552 Q1978.11 762.783 1982.18 760.515 Q1986.26 758.246 1991.86 758.246 Q1997.51 758.246 2001.44 761.116 Q2005.43 763.987 2007.32 769.45 Z" fill="#000000" fill-rule="nonzero" fill-opacity="1" /></svg>
