<?xml version="1.0" encoding="utf-8"?>
<svg xmlns="http://www.w3.org/2000/svg" xmlns:xlink="http://www.w3.org/1999/xlink" width="600" height="400" viewBox="0 0 2400 1600">
<defs>
  <clipPath id="clip550">
    <rect x="0" y="0" width="2400" height="1600"/>
  </clipPath>
</defs>
<path clip-path="url(#clip550)" d="M0 1600 L2400 1600 L2400 0 L0 0  Z" fill="#ffffff" fill-rule="evenodd" fill-opacity="1"/>
<defs>
  <clipPath id="clip551">
    <rect x="480" y="0" width="1681" height="1600"/>
  </clipPath>
</defs>
<path clip-path="url(#clip550)" d="M685.08 1273.7 L2305.51 1273.7 L2305.51 94.4882 L685.08 94.4882  Z" fill="#ffffff" fill-rule="evenodd" fill-opacity="1"/>
<defs>
  <clipPath id="clip552">
    <rect x="685" y="94" width="1621" height="1180"/>
  </clipPath>
</defs>
<polyline clip-path="url(#clip552)" style="stroke:#000000; stroke-linecap:round; stroke-linejoin:round; stroke-width:4; stroke-opacity:0.1; fill:none" points="730.941,1273.7 730.941,94.4882 "/>
<polyline clip-path="url(#clip552)" style="stroke:#000000; stroke-linecap:round; stroke-linejoin:round; stroke-width:4; stroke-opacity:0.1; fill:none" points="966.127,1273.7 966.127,94.4882 "/>
<polyline clip-path="url(#clip552)" style="stroke:#000000; stroke-linecap:round; stroke-linejoin:round; stroke-width:4; stroke-opacity:0.1; fill:none" points="1201.31,1273.7 1201.31,94.4882 "/>
<polyline clip-path="url(#clip552)" style="stroke:#000000; stroke-linecap:round; stroke-linejoin:round; stroke-width:4; stroke-opacity:0.1; fill:none" points="1436.5,1273.7 1436.5,94.4882 "/>
<polyline clip-path="url(#clip552)" style="stroke:#000000; stroke-linecap:round; stroke-linejoin:round; stroke-width:4; stroke-opacity:0.1; fill:none" points="1671.69,1273.7 1671.69,94.4882 "/>
<polyline clip-path="url(#clip552)" style="stroke:#000000; stroke-linecap:round; stroke-linejoin:round; stroke-width:4; stroke-opacity:0.1; fill:none" points="1906.87,1273.7 1906.87,94.4882 "/>
<polyline clip-path="url(#clip552)" style="stroke:#000000; stroke-linecap:round; stroke-linejoin:round; stroke-width:4; stroke-opacity:0.1; fill:none" points="2142.06,1273.7 2142.06,94.4882 "/>
<polyline clip-path="url(#clip550)" style="stroke:#000000; stroke-linecap:round; stroke-linejoin:round; stroke-width:8; stroke-opacity:1; fill:none" points="685.08,1273.7 2305.51,1273.7 "/>
<polyline clip-path="url(#clip550)" style="stroke:#000000; stroke-linecap:round; stroke-linejoin:round; stroke-width:8; stroke-opacity:1; fill:none" points="730.941,1273.7 730.941,1254.8 "/>
<polyline clip-path="url(#clip550)" style="stroke:#000000; stroke-linecap:round; stroke-linejoin:round; stroke-width:8; stroke-opacity:1; fill:none" points="966.127,1273.7 966.127,1254.8 "/>
<polyline clip-path="url(#clip550)" style="stroke:#000000; stroke-linecap:round; stroke-linejoin:round; stroke-width:8; stroke-opacity:1; fill:none" points="1201.31,1273.7 1201.31,1254.8 "/>
<polyline clip-path="url(#clip550)" style="stroke:#000000; stroke-linecap:round; stroke-linejoin:round; stroke-width:8; stroke-opacity:1; fill:none" points="1436.5,1273.7 1436.5,1254.8 "/>
<polyline clip-path="url(#clip550)" style="stroke:#000000; stroke-linecap:round; stroke-linejoin:round; stroke-width:8; stroke-opacity:1; fill:none" points="1671.69,1273.7 1671.69,1254.8 "/>
<polyline clip-path="url(#clip550)" style="stroke:#000000; stroke-linecap:round; stroke-linejoin:round; stroke-width:8; stroke-opacity:1; fill:none" points="1906.87,1273.7 1906.87,1254.8 "/>
<polyline clip-path="url(#clip550)" style="stroke:#000000; stroke-linecap:round; stroke-linejoin:round; stroke-width:8; stroke-opacity:1; fill:none" points="2142.06,1273.7 2142.06,1254.8 "/>
<path clip-path="url(#clip550)" d="M685.71 1316.33 Q678.488 1316.33 674.83 1323.46 Q671.219 1330.55 671.219 1344.81 Q671.219 1359.02 674.83 1366.15 Q678.488 1373.23 685.71 1373.23 Q692.978 1373.23 696.59 1366.15 Q700.247 1359.02 700.247 1344.81 Q700.247 1330.55 696.59 1323.46 Q692.978 1316.33 685.71 1316.33 M685.71 1308.93 Q697.33 1308.93 703.441 1318.14 Q709.599 1327.31 709.599 1344.81 Q709.599 1362.26 703.441 1371.47 Q697.33 1380.64 685.71 1380.64 Q674.09 1380.64 667.932 1371.47 Q661.821 1362.26 661.821 1344.81 Q661.821 1327.31 667.932 1318.14 Q674.09 1308.93 685.71 1308.93 Z" fill="#000000" fill-rule="nonzero" fill-opacity="1" /><path clip-path="url(#clip550)" d="M726.034 1367.54 L735.802 1367.54 L735.802 1379.3 L726.034 1379.3 L726.034 1367.54 Z" fill="#000000" fill-rule="nonzero" fill-opacity="1" /><path clip-path="url(#clip550)" d="M776.172 1316.33 Q768.95 1316.33 765.293 1323.46 Q761.682 1330.55 761.682 1344.81 Q761.682 1359.02 765.293 1366.15 Q768.95 1373.23 776.172 1373.23 Q783.441 1373.23 787.052 1366.15 Q790.709 1359.02 790.709 1344.81 Q790.709 1330.55 787.052 1323.46 Q783.441 1316.33 776.172 1316.33 M776.172 1308.93 Q787.793 1308.93 793.904 1318.14 Q800.061 1327.31 800.061 1344.81 Q800.061 1362.26 793.904 1371.47 Q787.793 1380.64 776.172 1380.64 Q764.552 1380.64 758.395 1371.47 Q752.284 1362.26 752.284 1344.81 Q752.284 1327.31 758.395 1318.14 Q764.552 1308.93 776.172 1308.93 Z" fill="#000000" fill-rule="nonzero" fill-opacity="1" /><path clip-path="url(#clip550)" d="M922.493 1316.33 Q915.271 1316.33 911.614 1323.46 Q908.003 1330.55 908.003 1344.81 Q908.003 1359.02 911.614 1366.15 Q915.271 1373.23 922.493 1373.23 Q929.762 1373.23 933.373 1366.15 Q937.03 1359.02 937.03 1344.81 Q937.03 1330.55 933.373 1323.46 Q929.762 1316.33 922.493 1316.33 M922.493 1308.93 Q934.114 1308.93 940.225 1318.14 Q946.382 1327.31 946.382 1344.81 Q946.382 1362.26 940.225 1371.47 Q934.114 1380.64 922.493 1380.64 Q910.873 1380.64 904.716 1371.47 Q898.605 1362.26 898.605 1344.81 Q898.605 1327.31 904.716 1318.14 Q910.873 1308.93 922.493 1308.93 Z" fill="#000000" fill-rule="nonzero" fill-opacity="1" /><path clip-path="url(#clip550)" d="M962.817 1367.54 L972.586 1367.54 L972.586 1379.3 L962.817 1379.3 L962.817 1367.54 Z" fill="#000000" fill-rule="nonzero" fill-opacity="1" /><path clip-path="url(#clip550)" d="M1001.01 1371.43 L1033.65 1371.43 L1033.65 1379.3 L989.761 1379.3 L989.761 1371.43 Q995.085 1365.92 1004.25 1356.66 Q1013.47 1347.35 1015.83 1344.67 Q1020.32 1339.62 1022.08 1336.15 Q1023.88 1332.63 1023.88 1329.25 Q1023.88 1323.74 1019.99 1320.27 Q1016.15 1316.8 1009.95 1316.8 Q1005.55 1316.8 1000.64 1318.32 Q995.78 1319.85 990.224 1322.95 L990.224 1313.51 Q995.873 1311.24 1000.78 1310.08 Q1005.69 1308.93 1009.76 1308.93 Q1020.5 1308.93 1026.89 1314.3 Q1033.28 1319.67 1033.28 1328.65 Q1033.28 1332.91 1031.66 1336.75 Q1030.09 1340.55 1025.87 1345.73 Q1024.71 1347.07 1018.51 1353.51 Q1012.31 1359.9 1001.01 1371.43 Z" fill="#000000" fill-rule="nonzero" fill-opacity="1" /><path clip-path="url(#clip550)" d="M1155.6 1316.33 Q1148.37 1316.33 1144.72 1323.46 Q1141.11 1330.55 1141.11 1344.81 Q1141.11 1359.02 1144.72 1366.15 Q1148.37 1373.23 1155.6 1373.23 Q1162.86 1373.23 1166.48 1366.15 Q1170.13 1359.02 1170.13 1344.81 Q1170.13 1330.55 1166.48 1323.46 Q1162.86 1316.33 1155.6 1316.33 M1155.6 1308.93 Q1167.22 1308.93 1173.33 1318.14 Q1179.48 1327.31 1179.48 1344.81 Q1179.48 1362.26 1173.33 1371.47 Q1167.22 1380.64 1155.6 1380.64 Q1143.98 1380.64 1137.82 1371.47 Q1131.71 1362.26 1131.71 1344.81 Q1131.71 1327.31 1137.82 1318.14 Q1143.98 1308.93 1155.6 1308.93 Z" fill="#000000" fill-rule="nonzero" fill-opacity="1" /><path clip-path="url(#clip550)" d="M1195.92 1367.54 L1205.69 1367.54 L1205.69 1379.3 L1195.92 1379.3 L1195.92 1367.54 Z" fill="#000000" fill-rule="nonzero" fill-opacity="1" /><path clip-path="url(#clip550)" d="M1251.75 1318.32 L1228.14 1355.22 L1251.75 1355.22 L1251.75 1318.32 M1249.3 1310.18 L1261.06 1310.18 L1261.06 1355.22 L1270.92 1355.22 L1270.92 1363 L1261.06 1363 L1261.06 1379.3 L1251.75 1379.3 L1251.75 1363 L1220.55 1363 L1220.55 1353.97 L1249.3 1310.18 Z" fill="#000000" fill-rule="nonzero" fill-opacity="1" /><path clip-path="url(#clip550)" d="M1391.11 1316.33 Q1383.88 1316.33 1380.23 1323.46 Q1376.62 1330.55 1376.62 1344.81 Q1376.62 1359.02 1380.23 1366.15 Q1383.88 1373.23 1391.11 1373.23 Q1398.37 1373.23 1401.99 1366.15 Q1405.64 1359.02 1405.64 1344.81 Q1405.64 1330.55 1401.99 1323.46 Q1398.37 1316.33 1391.11 1316.33 M1391.11 1308.93 Q1402.73 1308.93 1408.84 1318.14 Q1414.99 1327.31 1414.99 1344.81 Q1414.99 1362.26 1408.84 1371.47 Q1402.73 1380.64 1391.11 1380.64 Q1379.49 1380.64 1373.33 1371.47 Q1367.22 1362.26 1367.22 1344.81 Q1367.22 1327.31 1373.33 1318.14 Q1379.49 1308.93 1391.11 1308.93 Z" fill="#000000" fill-rule="nonzero" fill-opacity="1" /><path clip-path="url(#clip550)" d="M1431.43 1367.54 L1441.2 1367.54 L1441.2 1379.3 L1431.43 1379.3 L1431.43 1367.54 Z" fill="#000000" fill-rule="nonzero" fill-opacity="1" /><path clip-path="url(#clip550)" d="M1482.73 1341.01 Q1476.43 1341.01 1472.73 1345.31 Q1469.07 1349.62 1469.07 1357.12 Q1469.07 1364.57 1472.73 1368.93 Q1476.43 1373.23 1482.73 1373.23 Q1489.02 1373.23 1492.68 1368.93 Q1496.38 1364.57 1496.38 1357.12 Q1496.38 1349.62 1492.68 1345.31 Q1489.02 1341.01 1482.73 1341.01 M1501.29 1311.7 L1501.29 1320.22 Q1497.77 1318.56 1494.16 1317.68 Q1490.6 1316.8 1487.08 1316.8 Q1477.82 1316.8 1472.91 1323.05 Q1468.05 1329.3 1467.36 1341.93 Q1470.09 1337.91 1474.21 1335.78 Q1478.33 1333.6 1483.28 1333.6 Q1493.7 1333.6 1499.72 1339.94 Q1505.78 1346.24 1505.78 1357.12 Q1505.78 1367.77 1499.49 1374.2 Q1493.19 1380.64 1482.73 1380.64 Q1470.74 1380.64 1464.39 1371.47 Q1458.05 1362.26 1458.05 1344.81 Q1458.05 1328.42 1465.83 1318.69 Q1473.61 1308.93 1486.71 1308.93 Q1490.23 1308.93 1493.79 1309.62 Q1497.4 1310.31 1501.29 1311.7 Z" fill="#000000" fill-rule="nonzero" fill-opacity="1" /><path clip-path="url(#clip550)" d="M1626.55 1316.33 Q1619.32 1316.33 1615.67 1323.46 Q1612.06 1330.55 1612.06 1344.81 Q1612.06 1359.02 1615.67 1366.15 Q1619.32 1373.23 1626.55 1373.23 Q1633.82 1373.23 1637.43 1366.15 Q1641.08 1359.02 1641.08 1344.81 Q1641.08 1330.55 1637.43 1323.46 Q1633.82 1316.33 1626.55 1316.33 M1626.55 1308.93 Q1638.17 1308.93 1644.28 1318.14 Q1650.44 1327.31 1650.44 1344.81 Q1650.44 1362.26 1644.28 1371.47 Q1638.17 1380.64 1626.55 1380.64 Q1614.93 1380.64 1608.77 1371.47 Q1602.66 1362.26 1602.66 1344.81 Q1602.66 1327.31 1608.77 1318.14 Q1614.93 1308.93 1626.55 1308.93 Z" fill="#000000" fill-rule="nonzero" fill-opacity="1" /><path clip-path="url(#clip550)" d="M1666.87 1367.54 L1676.64 1367.54 L1676.64 1379.3 L1666.87 1379.3 L1666.87 1367.54 Z" fill="#000000" fill-rule="nonzero" fill-opacity="1" /><path clip-path="url(#clip550)" d="M1717.01 1346.47 Q1710.34 1346.47 1706.5 1350.04 Q1702.7 1353.6 1702.7 1359.85 Q1702.7 1366.1 1706.5 1369.67 Q1710.34 1373.23 1717.01 1373.23 Q1723.68 1373.23 1727.52 1369.67 Q1731.36 1366.06 1731.36 1359.85 Q1731.36 1353.6 1727.52 1350.04 Q1723.72 1346.47 1717.01 1346.47 M1707.66 1342.49 Q1701.64 1341.01 1698.26 1336.89 Q1694.93 1332.77 1694.93 1326.84 Q1694.93 1318.56 1700.81 1313.74 Q1706.73 1308.93 1717.01 1308.93 Q1727.33 1308.93 1733.21 1313.74 Q1739.09 1318.56 1739.09 1326.84 Q1739.09 1332.77 1735.71 1336.89 Q1732.38 1341.01 1726.41 1342.49 Q1733.17 1344.06 1736.92 1348.65 Q1740.71 1353.23 1740.71 1359.85 Q1740.71 1369.9 1734.56 1375.27 Q1728.44 1380.64 1717.01 1380.64 Q1705.57 1380.64 1699.42 1375.27 Q1693.31 1369.9 1693.31 1359.85 Q1693.31 1353.23 1697.1 1348.65 Q1700.9 1344.06 1707.66 1342.49 M1704.23 1327.72 Q1704.23 1333.09 1707.56 1336.1 Q1710.94 1339.11 1717.01 1339.11 Q1723.03 1339.11 1726.41 1336.1 Q1729.83 1333.09 1729.83 1327.72 Q1729.83 1322.35 1726.41 1319.34 Q1723.03 1316.33 1717.01 1316.33 Q1710.94 1316.33 1707.56 1319.34 Q1704.23 1322.35 1704.23 1327.72 Z" fill="#000000" fill-rule="nonzero" fill-opacity="1" /><path clip-path="url(#clip550)" d="M1841.18 1371.43 L1856.46 1371.43 L1856.46 1318.69 L1839.83 1322.03 L1839.83 1313.51 L1856.36 1310.18 L1865.71 1310.18 L1865.71 1371.43 L1880.99 1371.43 L1880.99 1379.3 L1841.18 1379.3 L1841.18 1371.43 Z" fill="#000000" fill-rule="nonzero" fill-opacity="1" /><path clip-path="url(#clip550)" d="M1899.88 1367.54 L1909.65 1367.54 L1909.65 1379.3 L1899.88 1379.3 L1899.88 1367.54 Z" fill="#000000" fill-rule="nonzero" fill-opacity="1" /><path clip-path="url(#clip550)" d="M1950.02 1316.33 Q1942.8 1316.33 1939.14 1323.46 Q1935.53 1330.55 1935.53 1344.81 Q1935.53 1359.02 1939.14 1366.15 Q1942.8 1373.23 1950.02 1373.23 Q1957.29 1373.23 1960.9 1366.15 Q1964.56 1359.02 1964.56 1344.81 Q1964.56 1330.55 1960.9 1323.46 Q1957.29 1316.33 1950.02 1316.33 M1950.02 1308.93 Q1961.64 1308.93 1967.75 1318.14 Q1973.91 1327.31 1973.91 1344.81 Q1973.91 1362.26 1967.75 1371.47 Q1961.64 1380.64 1950.02 1380.64 Q1938.4 1380.64 1932.24 1371.47 Q1926.13 1362.26 1926.13 1344.81 Q1926.13 1327.31 1932.24 1318.14 Q1938.4 1308.93 1950.02 1308.93 Z" fill="#000000" fill-rule="nonzero" fill-opacity="1" /><path clip-path="url(#clip550)" d="M2077.96 1371.43 L2093.24 1371.43 L2093.24 1318.69 L2076.62 1322.03 L2076.62 1313.51 L2093.15 1310.18 L2102.5 1310.18 L2102.5 1371.43 L2117.78 1371.43 L2117.78 1379.3 L2077.96 1379.3 L2077.96 1371.43 Z" fill="#000000" fill-rule="nonzero" fill-opacity="1" /><path clip-path="url(#clip550)" d="M2136.66 1367.54 L2146.43 1367.54 L2146.43 1379.3 L2136.66 1379.3 L2136.66 1367.54 Z" fill="#000000" fill-rule="nonzero" fill-opacity="1" /><path clip-path="url(#clip550)" d="M2174.86 1371.43 L2207.5 1371.43 L2207.5 1379.3 L2163.61 1379.3 L2163.61 1371.43 Q2168.93 1365.92 2178.1 1356.66 Q2187.31 1347.35 2189.67 1344.67 Q2194.16 1339.62 2195.92 1336.15 Q2197.73 1332.63 2197.73 1329.25 Q2197.73 1323.74 2193.84 1320.27 Q2190 1316.8 2183.79 1316.8 Q2179.4 1316.8 2174.49 1318.32 Q2169.63 1319.85 2164.07 1322.95 L2164.07 1313.51 Q2169.72 1311.24 2174.63 1310.08 Q2179.53 1308.93 2183.61 1308.93 Q2194.35 1308.93 2200.74 1314.3 Q2207.13 1319.67 2207.13 1328.65 Q2207.13 1332.91 2205.51 1336.75 Q2203.93 1340.55 2199.72 1345.73 Q2198.56 1347.07 2192.36 1353.51 Q2186.15 1359.9 2174.86 1371.43 Z" fill="#000000" fill-rule="nonzero" fill-opacity="1" /><path clip-path="url(#clip550)" d="M1380.84 1484.39 L1380.84 1527.42 L1369.13 1527.42 L1369.13 1484.77 Q1369.13 1474.65 1365.18 1469.62 Q1361.23 1464.59 1353.34 1464.59 Q1343.86 1464.59 1338.38 1470.64 Q1332.91 1476.69 1332.91 1487.13 L1332.91 1527.42 L1321.13 1527.42 L1321.13 1428.37 L1332.91 1428.37 L1332.91 1467.2 Q1337.11 1460.77 1342.77 1457.59 Q1348.5 1454.41 1355.95 1454.41 Q1368.24 1454.41 1374.54 1462.05 Q1380.84 1469.62 1380.84 1484.39 Z" fill="#000000" fill-rule="nonzero" fill-opacity="1" /><path clip-path="url(#clip550)" d="M1431.83 1464.34 Q1422.41 1464.34 1416.93 1471.72 Q1411.46 1479.04 1411.46 1491.84 Q1411.46 1504.63 1416.87 1512.02 Q1422.34 1519.34 1431.83 1519.34 Q1441.19 1519.34 1446.66 1511.96 Q1452.14 1504.57 1452.14 1491.84 Q1452.14 1479.17 1446.66 1471.79 Q1441.19 1464.34 1431.83 1464.34 M1431.83 1454.41 Q1447.11 1454.41 1455.83 1464.34 Q1464.55 1474.27 1464.55 1491.84 Q1464.55 1509.35 1455.83 1519.34 Q1447.11 1529.27 1431.83 1529.27 Q1416.49 1529.27 1407.77 1519.34 Q1399.11 1509.35 1399.11 1491.84 Q1399.11 1474.27 1407.77 1464.34 Q1416.49 1454.41 1431.83 1454.41 Z" fill="#000000" fill-rule="nonzero" fill-opacity="1" /><path clip-path="url(#clip550)" d="M1482.76 1499.29 L1482.76 1456.13 L1494.47 1456.13 L1494.47 1498.84 Q1494.47 1508.96 1498.42 1514.06 Q1502.36 1519.08 1510.26 1519.08 Q1519.74 1519.08 1525.21 1513.04 Q1530.75 1506.99 1530.75 1496.55 L1530.75 1456.13 L1542.47 1456.13 L1542.47 1527.42 L1530.75 1527.42 L1530.75 1516.47 Q1526.49 1522.97 1520.82 1526.15 Q1515.22 1529.27 1507.77 1529.27 Q1495.49 1529.27 1489.12 1521.63 Q1482.76 1513.99 1482.76 1499.29 M1512.23 1454.41 L1512.23 1454.41 Z" fill="#000000" fill-rule="nonzero" fill-opacity="1" /><path clip-path="url(#clip550)" d="M1607.91 1467.08 Q1605.93 1465.93 1603.58 1465.42 Q1601.28 1464.85 1598.48 1464.85 Q1588.55 1464.85 1583.21 1471.34 Q1577.92 1477.77 1577.92 1489.87 L1577.92 1527.42 L1566.15 1527.42 L1566.15 1456.13 L1577.92 1456.13 L1577.92 1467.2 Q1581.61 1460.71 1587.53 1457.59 Q1593.46 1454.41 1601.92 1454.41 Q1603.13 1454.41 1604.6 1454.6 Q1606.06 1454.73 1607.84 1455.05 L1607.91 1467.08 Z" fill="#000000" fill-rule="nonzero" fill-opacity="1" /><path clip-path="url(#clip550)" d="M1665.64 1458.23 L1665.64 1469.3 Q1660.68 1466.76 1655.33 1465.49 Q1649.98 1464.21 1644.25 1464.21 Q1635.53 1464.21 1631.14 1466.89 Q1626.81 1469.56 1626.81 1474.91 Q1626.81 1478.98 1629.93 1481.34 Q1633.05 1483.63 1642.47 1485.73 L1646.48 1486.62 Q1658.96 1489.29 1664.18 1494.19 Q1669.46 1499.03 1669.46 1507.75 Q1669.46 1517.68 1661.57 1523.48 Q1653.74 1529.27 1639.99 1529.27 Q1634.26 1529.27 1628.02 1528.12 Q1621.85 1527.04 1614.97 1524.81 L1614.97 1512.72 Q1621.46 1516.09 1627.77 1517.81 Q1634.07 1519.47 1640.24 1519.47 Q1648.52 1519.47 1652.97 1516.67 Q1657.43 1513.8 1657.43 1508.64 Q1657.43 1503.87 1654.18 1501.32 Q1651 1498.78 1640.12 1496.42 L1636.04 1495.47 Q1625.16 1493.18 1620.32 1488.47 Q1615.48 1483.69 1615.48 1475.42 Q1615.48 1465.36 1622.61 1459.88 Q1629.74 1454.41 1642.85 1454.41 Q1649.35 1454.41 1655.08 1455.36 Q1660.8 1456.32 1665.64 1458.23 Z" fill="#000000" fill-rule="nonzero" fill-opacity="1" /><polyline clip-path="url(#clip552)" style="stroke:#000000; stroke-linecap:round; stroke-linejoin:round; stroke-width:4; stroke-opacity:0.1; fill:none" points="685.08,1183.68 2305.51,1183.68 "/>
<polyline clip-path="url(#clip552)" style="stroke:#000000; stroke-linecap:round; stroke-linejoin:round; stroke-width:4; stroke-opacity:0.1; fill:none" points="685.08,992.975 2305.51,992.975 "/>
<polyline clip-path="url(#clip552)" style="stroke:#000000; stroke-linecap:round; stroke-linejoin:round; stroke-width:4; stroke-opacity:0.1; fill:none" points="685.08,802.274 2305.51,802.274 "/>
<polyline clip-path="url(#clip552)" style="stroke:#000000; stroke-linecap:round; stroke-linejoin:round; stroke-width:4; stroke-opacity:0.1; fill:none" points="685.08,611.574 2305.51,611.574 "/>
<polyline clip-path="url(#clip552)" style="stroke:#000000; stroke-linecap:round; stroke-linejoin:round; stroke-width:4; stroke-opacity:0.1; fill:none" points="685.08,420.873 2305.51,420.873 "/>
<polyline clip-path="url(#clip552)" style="stroke:#000000; stroke-linecap:round; stroke-linejoin:round; stroke-width:4; stroke-opacity:0.1; fill:none" points="685.08,230.173 2305.51,230.173 "/>
<polyline clip-path="url(#clip550)" style="stroke:#000000; stroke-linecap:round; stroke-linejoin:round; stroke-width:8; stroke-opacity:1; fill:none" points="685.08,1273.7 685.08,94.4882 "/>
<polyline clip-path="url(#clip550)" style="stroke:#000000; stroke-linecap:round; stroke-linejoin:round; stroke-width:8; stroke-opacity:1; fill:none" points="685.08,1183.68 703.978,1183.68 "/>
<polyline clip-path="url(#clip550)" style="stroke:#000000; stroke-linecap:round; stroke-linejoin:round; stroke-width:8; stroke-opacity:1; fill:none" points="685.08,992.975 703.978,992.975 "/>
<polyline clip-path="url(#clip550)" style="stroke:#000000; stroke-linecap:round; stroke-linejoin:round; stroke-width:8; stroke-opacity:1; fill:none" points="685.08,802.274 703.978,802.274 "/>
<polyline clip-path="url(#clip550)" style="stroke:#000000; stroke-linecap:round; stroke-linejoin:round; stroke-width:8; stroke-opacity:1; fill:none" points="685.08,611.574 703.978,611.574 "/>
<polyline clip-path="url(#clip550)" style="stroke:#000000; stroke-linecap:round; stroke-linejoin:round; stroke-width:8; stroke-opacity:1; fill:none" points="685.08,420.873 703.978,420.873 "/>
<polyline clip-path="url(#clip550)" style="stroke:#000000; stroke-linecap:round; stroke-linejoin:round; stroke-width:8; stroke-opacity:1; fill:none" points="685.08,230.173 703.978,230.173 "/>
<path clip-path="url(#clip550)" d="M395.702 1210.37 L410.979 1210.37 L410.979 1157.63 L394.359 1160.97 L394.359 1152.45 L410.887 1149.12 L420.239 1149.12 L420.239 1210.37 L435.516 1210.37 L435.516 1218.24 L395.702 1218.24 L395.702 1210.37 Z" fill="#000000" fill-rule="nonzero" fill-opacity="1" /><path clip-path="url(#clip550)" d="M454.498 1149.12 L491.21 1149.12 L491.21 1156.99 L463.062 1156.99 L463.062 1173.93 Q465.099 1173.24 467.137 1172.91 Q469.174 1172.54 471.211 1172.54 Q482.785 1172.54 489.544 1178.88 Q496.303 1185.23 496.303 1196.06 Q496.303 1207.22 489.359 1213.42 Q482.414 1219.58 469.775 1219.58 Q465.424 1219.58 460.887 1218.84 Q456.396 1218.1 451.581 1216.62 L451.581 1207.22 Q455.748 1209.49 460.192 1210.6 Q464.637 1211.71 469.59 1211.71 Q477.599 1211.71 482.275 1207.49 Q486.951 1203.28 486.951 1196.06 Q486.951 1188.84 482.275 1184.62 Q477.599 1180.41 469.59 1180.41 Q465.84 1180.41 462.09 1181.24 Q458.387 1182.08 454.498 1183.84 L454.498 1149.12 Z" fill="#000000" fill-rule="nonzero" fill-opacity="1" /><path clip-path="url(#clip550)" d="M534.729 1155.27 Q527.507 1155.27 523.849 1162.4 Q520.238 1169.49 520.238 1183.74 Q520.238 1197.96 523.849 1205.09 Q527.507 1212.17 534.729 1212.17 Q541.997 1212.17 545.608 1205.09 Q549.266 1197.96 549.266 1183.74 Q549.266 1169.49 545.608 1162.4 Q541.997 1155.27 534.729 1155.27 M534.729 1147.87 Q546.349 1147.87 552.46 1157.08 Q558.618 1166.25 558.618 1183.74 Q558.618 1201.2 552.46 1210.41 Q546.349 1219.58 534.729 1219.58 Q523.108 1219.58 516.951 1210.41 Q510.84 1201.2 510.84 1183.74 Q510.84 1166.25 516.951 1157.08 Q523.108 1147.87 534.729 1147.87 Z" fill="#000000" fill-rule="nonzero" fill-opacity="1" /><path clip-path="url(#clip550)" d="M575.053 1206.48 L584.821 1206.48 L584.821 1218.24 L575.053 1218.24 L575.053 1206.48 Z" fill="#000000" fill-rule="nonzero" fill-opacity="1" /><path clip-path="url(#clip550)" d="M625.191 1155.27 Q617.969 1155.27 614.312 1162.4 Q610.701 1169.49 610.701 1183.74 Q610.701 1197.96 614.312 1205.09 Q617.969 1212.17 625.191 1212.17 Q632.46 1212.17 636.071 1205.09 Q639.728 1197.96 639.728 1183.74 Q639.728 1169.49 636.071 1162.4 Q632.46 1155.27 625.191 1155.27 M625.191 1147.87 Q636.812 1147.87 642.923 1157.08 Q649.08 1166.25 649.08 1183.74 Q649.08 1201.2 642.923 1210.41 Q636.812 1219.58 625.191 1219.58 Q613.571 1219.58 607.414 1210.41 Q601.302 1201.2 601.302 1183.74 Q601.302 1166.25 607.414 1157.08 Q613.571 1147.87 625.191 1147.87 Z" fill="#000000" fill-rule="nonzero" fill-opacity="1" /><path clip-path="url(#clip550)" d="M402.137 1019.66 L434.776 1019.66 L434.776 1027.53 L390.887 1027.53 L390.887 1019.66 Q396.211 1014.16 405.378 1004.9 Q414.59 995.591 416.952 992.905 Q421.442 987.859 423.202 984.387 Q425.007 980.869 425.007 977.489 Q425.007 971.98 421.118 968.507 Q417.276 965.035 411.072 965.035 Q406.674 965.035 401.766 966.563 Q396.905 968.091 391.35 971.193 L391.35 961.748 Q396.998 959.48 401.905 958.322 Q406.813 957.165 410.887 957.165 Q421.627 957.165 428.016 962.535 Q434.405 967.906 434.405 976.887 Q434.405 981.146 432.785 984.989 Q431.211 988.785 426.998 993.97 Q425.84 995.313 419.637 1001.75 Q413.433 1008.14 402.137 1019.66 Z" fill="#000000" fill-rule="nonzero" fill-opacity="1" /><path clip-path="url(#clip550)" d="M474.405 964.572 Q467.183 964.572 463.525 971.702 Q459.914 978.785 459.914 993.044 Q459.914 1007.26 463.525 1014.39 Q467.183 1021.47 474.405 1021.47 Q481.673 1021.47 485.285 1014.39 Q488.942 1007.26 488.942 993.044 Q488.942 978.785 485.285 971.702 Q481.673 964.572 474.405 964.572 M474.405 957.165 Q486.025 957.165 492.136 966.378 Q498.294 975.544 498.294 993.044 Q498.294 1010.5 492.136 1019.71 Q486.025 1028.88 474.405 1028.88 Q462.785 1028.88 456.627 1019.71 Q450.516 1010.5 450.516 993.044 Q450.516 975.544 456.627 966.378 Q462.785 957.165 474.405 957.165 Z" fill="#000000" fill-rule="nonzero" fill-opacity="1" /><path clip-path="url(#clip550)" d="M534.729 964.572 Q527.507 964.572 523.849 971.702 Q520.238 978.785 520.238 993.044 Q520.238 1007.26 523.849 1014.39 Q527.507 1021.47 534.729 1021.47 Q541.997 1021.47 545.608 1014.39 Q549.266 1007.26 549.266 993.044 Q549.266 978.785 545.608 971.702 Q541.997 964.572 534.729 964.572 M534.729 957.165 Q546.349 957.165 552.46 966.378 Q558.618 975.544 558.618 993.044 Q558.618 1010.5 552.46 1019.71 Q546.349 1028.88 534.729 1028.88 Q523.108 1028.88 516.951 1019.71 Q510.84 1010.5 510.84 993.044 Q510.84 975.544 516.951 966.378 Q523.108 957.165 534.729 957.165 Z" fill="#000000" fill-rule="nonzero" fill-opacity="1" /><path clip-path="url(#clip550)" d="M575.053 1015.78 L584.821 1015.78 L584.821 1027.53 L575.053 1027.53 L575.053 1015.78 Z" fill="#000000" fill-rule="nonzero" fill-opacity="1" /><path clip-path="url(#clip550)" d="M625.191 964.572 Q617.969 964.572 614.312 971.702 Q610.701 978.785 610.701 993.044 Q610.701 1007.26 614.312 1014.39 Q617.969 1021.47 625.191 1021.47 Q632.46 1021.47 636.071 1014.39 Q639.728 1007.26 639.728 993.044 Q639.728 978.785 636.071 971.702 Q632.46 964.572 625.191 964.572 M625.191 957.165 Q636.812 957.165 642.923 966.378 Q649.08 975.544 649.08 993.044 Q649.08 1010.5 642.923 1019.71 Q636.812 1028.88 625.191 1028.88 Q613.571 1028.88 607.414 1019.71 Q601.302 1010.5 601.302 993.044 Q601.302 975.544 607.414 966.378 Q613.571 957.165 625.191 957.165 Z" fill="#000000" fill-rule="nonzero" fill-opacity="1" /><path clip-path="url(#clip550)" d="M402.137 828.964 L434.776 828.964 L434.776 836.834 L390.887 836.834 L390.887 828.964 Q396.211 823.455 405.378 814.196 Q414.59 804.89 416.952 802.205 Q421.442 797.159 423.202 793.686 Q425.007 790.168 425.007 786.788 Q425.007 781.279 421.118 777.807 Q417.276 774.335 411.072 774.335 Q406.674 774.335 401.766 775.862 Q396.905 777.39 391.35 780.492 L391.35 771.048 Q396.998 768.779 401.905 767.622 Q406.813 766.464 410.887 766.464 Q421.627 766.464 428.016 771.835 Q434.405 777.205 434.405 786.186 Q434.405 790.446 432.785 794.288 Q431.211 798.085 426.998 803.27 Q425.84 804.612 419.637 811.047 Q413.433 817.436 402.137 828.964 Z" fill="#000000" fill-rule="nonzero" fill-opacity="1" /><path clip-path="url(#clip550)" d="M454.498 767.714 L491.21 767.714 L491.21 775.585 L463.062 775.585 L463.062 792.529 Q465.099 791.835 467.137 791.511 Q469.174 791.14 471.211 791.14 Q482.785 791.14 489.544 797.483 Q496.303 803.825 496.303 814.659 Q496.303 825.816 489.359 832.02 Q482.414 838.177 469.775 838.177 Q465.424 838.177 460.887 837.436 Q456.396 836.695 451.581 835.214 L451.581 825.816 Q455.748 828.084 460.192 829.195 Q464.637 830.307 469.59 830.307 Q477.599 830.307 482.275 826.094 Q486.951 821.881 486.951 814.659 Q486.951 807.436 482.275 803.223 Q477.599 799.01 469.59 799.01 Q465.84 799.01 462.09 799.844 Q458.387 800.677 454.498 802.436 L454.498 767.714 Z" fill="#000000" fill-rule="nonzero" fill-opacity="1" /><path clip-path="url(#clip550)" d="M534.729 773.872 Q527.507 773.872 523.849 781.001 Q520.238 788.085 520.238 802.344 Q520.238 816.557 523.849 823.686 Q527.507 830.77 534.729 830.77 Q541.997 830.77 545.608 823.686 Q549.266 816.557 549.266 802.344 Q549.266 788.085 545.608 781.001 Q541.997 773.872 534.729 773.872 M534.729 766.464 Q546.349 766.464 552.46 775.677 Q558.618 784.844 558.618 802.344 Q558.618 819.797 552.46 829.01 Q546.349 838.177 534.729 838.177 Q523.108 838.177 516.951 829.01 Q510.84 819.797 510.84 802.344 Q510.84 784.844 516.951 775.677 Q523.108 766.464 534.729 766.464 Z" fill="#000000" fill-rule="nonzero" fill-opacity="1" /><path clip-path="url(#clip550)" d="M575.053 825.075 L584.821 825.075 L584.821 836.834 L575.053 836.834 L575.053 825.075 Z" fill="#000000" fill-rule="nonzero" fill-opacity="1" /><path clip-path="url(#clip550)" d="M625.191 773.872 Q617.969 773.872 614.312 781.001 Q610.701 788.085 610.701 802.344 Q610.701 816.557 614.312 823.686 Q617.969 830.77 625.191 830.77 Q632.46 830.77 636.071 823.686 Q639.728 816.557 639.728 802.344 Q639.728 788.085 636.071 781.001 Q632.46 773.872 625.191 773.872 M625.191 766.464 Q636.812 766.464 642.923 775.677 Q649.08 784.844 649.08 802.344 Q649.08 819.797 642.923 829.01 Q636.812 838.177 625.191 838.177 Q613.571 838.177 607.414 829.01 Q601.302 819.797 601.302 802.344 Q601.302 784.844 607.414 775.677 Q613.571 766.464 625.191 766.464 Z" fill="#000000" fill-rule="nonzero" fill-opacity="1" /><path clip-path="url(#clip550)" d="M422.415 608.865 Q429.127 610.301 432.877 614.838 Q436.674 619.375 436.674 626.041 Q436.674 636.273 429.637 641.875 Q422.6 647.476 409.637 647.476 Q405.285 647.476 400.655 646.597 Q396.072 645.763 391.165 644.05 L391.165 635.023 Q395.054 637.291 399.683 638.449 Q404.313 639.606 409.359 639.606 Q418.155 639.606 422.739 636.134 Q427.368 632.662 427.368 626.041 Q427.368 619.93 423.063 616.504 Q418.803 613.032 411.165 613.032 L403.109 613.032 L403.109 605.347 L411.535 605.347 Q418.433 605.347 422.09 602.615 Q425.748 599.838 425.748 594.653 Q425.748 589.329 421.952 586.504 Q418.202 583.634 411.165 583.634 Q407.322 583.634 402.924 584.467 Q398.526 585.301 393.248 587.06 L393.248 578.727 Q398.572 577.245 403.202 576.505 Q407.878 575.764 411.998 575.764 Q422.646 575.764 428.85 580.625 Q435.053 585.44 435.053 593.68 Q435.053 599.421 431.766 603.403 Q428.479 607.338 422.415 608.865 Z" fill="#000000" fill-rule="nonzero" fill-opacity="1" /><path clip-path="url(#clip550)" d="M474.405 583.171 Q467.183 583.171 463.525 590.301 Q459.914 597.384 459.914 611.643 Q459.914 625.856 463.525 632.986 Q467.183 640.069 474.405 640.069 Q481.673 640.069 485.285 632.986 Q488.942 625.856 488.942 611.643 Q488.942 597.384 485.285 590.301 Q481.673 583.171 474.405 583.171 M474.405 575.764 Q486.025 575.764 492.136 584.977 Q498.294 594.143 498.294 611.643 Q498.294 629.097 492.136 638.31 Q486.025 647.476 474.405 647.476 Q462.785 647.476 456.627 638.31 Q450.516 629.097 450.516 611.643 Q450.516 594.143 456.627 584.977 Q462.785 575.764 474.405 575.764 Z" fill="#000000" fill-rule="nonzero" fill-opacity="1" /><path clip-path="url(#clip550)" d="M534.729 583.171 Q527.507 583.171 523.849 590.301 Q520.238 597.384 520.238 611.643 Q520.238 625.856 523.849 632.986 Q527.507 640.069 534.729 640.069 Q541.997 640.069 545.608 632.986 Q549.266 625.856 549.266 611.643 Q549.266 597.384 545.608 590.301 Q541.997 583.171 534.729 583.171 M534.729 575.764 Q546.349 575.764 552.46 584.977 Q558.618 594.143 558.618 611.643 Q558.618 629.097 552.46 638.31 Q546.349 647.476 534.729 647.476 Q523.108 647.476 516.951 638.31 Q510.84 629.097 510.84 611.643 Q510.84 594.143 516.951 584.977 Q523.108 575.764 534.729 575.764 Z" fill="#000000" fill-rule="nonzero" fill-opacity="1" /><path clip-path="url(#clip550)" d="M575.053 634.375 L584.821 634.375 L584.821 646.134 L575.053 646.134 L575.053 634.375 Z" fill="#000000" fill-rule="nonzero" fill-opacity="1" /><path clip-path="url(#clip550)" d="M625.191 583.171 Q617.969 583.171 614.312 590.301 Q610.701 597.384 610.701 611.643 Q610.701 625.856 614.312 632.986 Q617.969 640.069 625.191 640.069 Q632.46 640.069 636.071 632.986 Q639.728 625.856 639.728 611.643 Q639.728 597.384 636.071 590.301 Q632.46 583.171 625.191 583.171 M625.191 575.764 Q636.812 575.764 642.923 584.977 Q649.08 594.143 649.08 611.643 Q649.08 629.097 642.923 638.31 Q636.812 647.476 625.191 647.476 Q613.571 647.476 607.414 638.31 Q601.302 629.097 601.302 611.643 Q601.302 594.143 607.414 584.977 Q613.571 575.764 625.191 575.764 Z" fill="#000000" fill-rule="nonzero" fill-opacity="1" /><path clip-path="url(#clip550)" d="M422.415 418.165 Q429.127 419.6 432.877 424.137 Q436.674 428.674 436.674 435.341 Q436.674 445.572 429.637 451.174 Q422.6 456.776 409.637 456.776 Q405.285 456.776 400.655 455.896 Q396.072 455.063 391.165 453.35 L391.165 444.322 Q395.054 446.591 399.683 447.748 Q404.313 448.905 409.359 448.905 Q418.155 448.905 422.739 445.433 Q427.368 441.961 427.368 435.341 Q427.368 429.23 423.063 425.804 Q418.803 422.332 411.165 422.332 L403.109 422.332 L403.109 414.646 L411.535 414.646 Q418.433 414.646 422.09 411.915 Q425.748 409.137 425.748 403.952 Q425.748 398.628 421.952 395.804 Q418.202 392.934 411.165 392.934 Q407.322 392.934 402.924 393.767 Q398.526 394.6 393.248 396.359 L393.248 388.026 Q398.572 386.545 403.202 385.804 Q407.878 385.063 411.998 385.063 Q422.646 385.063 428.85 389.924 Q435.053 394.739 435.053 402.98 Q435.053 408.72 431.766 412.702 Q428.479 416.637 422.415 418.165 Z" fill="#000000" fill-rule="nonzero" fill-opacity="1" /><path clip-path="url(#clip550)" d="M454.498 386.313 L491.21 386.313 L491.21 394.184 L463.062 394.184 L463.062 411.128 Q465.099 410.433 467.137 410.109 Q469.174 409.739 471.211 409.739 Q482.785 409.739 489.544 416.082 Q496.303 422.424 496.303 433.257 Q496.303 444.415 489.359 450.618 Q482.414 456.776 469.775 456.776 Q465.424 456.776 460.887 456.035 Q456.396 455.294 451.581 453.813 L451.581 444.415 Q455.748 446.683 460.192 447.794 Q464.637 448.905 469.59 448.905 Q477.599 448.905 482.275 444.693 Q486.951 440.48 486.951 433.257 Q486.951 426.035 482.275 421.822 Q477.599 417.609 469.59 417.609 Q465.84 417.609 462.09 418.443 Q458.387 419.276 454.498 421.035 L454.498 386.313 Z" fill="#000000" fill-rule="nonzero" fill-opacity="1" /><path clip-path="url(#clip550)" d="M534.729 392.471 Q527.507 392.471 523.849 399.6 Q520.238 406.683 520.238 420.943 Q520.238 435.156 523.849 442.285 Q527.507 449.368 534.729 449.368 Q541.997 449.368 545.608 442.285 Q549.266 435.156 549.266 420.943 Q549.266 406.683 545.608 399.6 Q541.997 392.471 534.729 392.471 M534.729 385.063 Q546.349 385.063 552.46 394.276 Q558.618 403.443 558.618 420.943 Q558.618 438.396 552.46 447.609 Q546.349 456.776 534.729 456.776 Q523.108 456.776 516.951 447.609 Q510.84 438.396 510.84 420.943 Q510.84 403.443 516.951 394.276 Q523.108 385.063 534.729 385.063 Z" fill="#000000" fill-rule="nonzero" fill-opacity="1" /><path clip-path="url(#clip550)" d="M575.053 443.674 L584.821 443.674 L584.821 455.433 L575.053 455.433 L575.053 443.674 Z" fill="#000000" fill-rule="nonzero" fill-opacity="1" /><path clip-path="url(#clip550)" d="M625.191 392.471 Q617.969 392.471 614.312 399.6 Q610.701 406.683 610.701 420.943 Q610.701 435.156 614.312 442.285 Q617.969 449.368 625.191 449.368 Q632.46 449.368 636.071 442.285 Q639.728 435.156 639.728 420.943 Q639.728 406.683 636.071 399.6 Q632.46 392.471 625.191 392.471 M625.191 385.063 Q636.812 385.063 642.923 394.276 Q649.08 403.443 649.08 420.943 Q649.08 438.396 642.923 447.609 Q636.812 456.776 625.191 456.776 Q613.571 456.776 607.414 447.609 Q601.302 438.396 601.302 420.943 Q601.302 403.443 607.414 394.276 Q613.571 385.063 625.191 385.063 Z" fill="#000000" fill-rule="nonzero" fill-opacity="1" /><path clip-path="url(#clip550)" d="M419.776 203.761 L396.165 240.659 L419.776 240.659 L419.776 203.761 M417.322 195.613 L429.081 195.613 L429.081 240.659 L438.942 240.659 L438.942 248.436 L429.081 248.436 L429.081 264.733 L419.776 264.733 L419.776 248.436 L388.572 248.436 L388.572 239.409 L417.322 195.613 Z" fill="#000000" fill-rule="nonzero" fill-opacity="1" /><path clip-path="url(#clip550)" d="M474.405 201.77 Q467.183 201.77 463.525 208.9 Q459.914 215.983 459.914 230.242 Q459.914 244.455 463.525 251.585 Q467.183 258.668 474.405 258.668 Q481.673 258.668 485.285 251.585 Q488.942 244.455 488.942 230.242 Q488.942 215.983 485.285 208.9 Q481.673 201.77 474.405 201.77 M474.405 194.363 Q486.025 194.363 492.136 203.576 Q498.294 212.742 498.294 230.242 Q498.294 247.696 492.136 256.909 Q486.025 266.075 474.405 266.075 Q462.785 266.075 456.627 256.909 Q450.516 247.696 450.516 230.242 Q450.516 212.742 456.627 203.576 Q462.785 194.363 474.405 194.363 Z" fill="#000000" fill-rule="nonzero" fill-opacity="1" /><path clip-path="url(#clip550)" d="M534.729 201.77 Q527.507 201.77 523.849 208.9 Q520.238 215.983 520.238 230.242 Q520.238 244.455 523.849 251.585 Q527.507 258.668 534.729 258.668 Q541.997 258.668 545.608 251.585 Q549.266 244.455 549.266 230.242 Q549.266 215.983 545.608 208.9 Q541.997 201.77 534.729 201.77 M534.729 194.363 Q546.349 194.363 552.46 203.576 Q558.618 212.742 558.618 230.242 Q558.618 247.696 552.46 256.909 Q546.349 266.075 534.729 266.075 Q523.108 266.075 516.951 256.909 Q510.84 247.696 510.84 230.242 Q510.84 212.742 516.951 203.576 Q523.108 194.363 534.729 194.363 Z" fill="#000000" fill-rule="nonzero" fill-opacity="1" /><path clip-path="url(#clip550)" d="M575.053 252.973 L584.821 252.973 L584.821 264.733 L575.053 264.733 L575.053 252.973 Z" fill="#000000" fill-rule="nonzero" fill-opacity="1" /><path clip-path="url(#clip550)" d="M625.191 201.77 Q617.969 201.77 614.312 208.9 Q610.701 215.983 610.701 230.242 Q610.701 244.455 614.312 251.585 Q617.969 258.668 625.191 258.668 Q632.46 258.668 636.071 251.585 Q639.728 244.455 639.728 230.242 Q639.728 215.983 636.071 208.9 Q632.46 201.77 625.191 201.77 M625.191 194.363 Q636.812 194.363 642.923 203.576 Q649.08 212.742 649.08 230.242 Q649.08 247.696 642.923 256.909 Q636.812 266.075 625.191 266.075 Q613.571 266.075 607.414 256.909 Q601.302 247.696 601.302 230.242 Q601.302 212.742 607.414 203.576 Q613.571 194.363 625.191 194.363 Z" fill="#000000" fill-rule="nonzero" fill-opacity="1" /><path clip-path="url(#clip550)" d="M255.501 1099.45 L266.45 1099.45 Q263.713 1104.42 262.376 1109.45 Q260.976 1114.41 260.976 1119.51 Q260.976 1130.9 268.233 1137.2 Q275.426 1143.51 288.476 1143.51 Q301.526 1143.51 308.782 1137.2 Q315.976 1130.9 315.976 1119.51 Q315.976 1114.41 314.639 1109.45 Q313.238 1104.42 310.501 1099.45 L321.323 1099.45 Q323.615 1104.36 324.76 1109.64 Q325.906 1114.86 325.906 1120.78 Q325.906 1136.88 315.785 1146.37 Q305.663 1155.85 288.476 1155.85 Q271.034 1155.85 261.04 1146.31 Q251.045 1136.69 251.045 1120.02 Q251.045 1114.6 252.191 1109.45 Q253.273 1104.29 255.501 1099.45 Z" fill="#000000" fill-rule="nonzero" fill-opacity="1" /><path clip-path="url(#clip550)" d="M260.976 1051.46 Q260.976 1060.88 268.36 1066.35 Q275.681 1071.83 288.476 1071.83 Q301.271 1071.83 308.655 1066.42 Q315.976 1060.94 315.976 1051.46 Q315.976 1042.1 308.591 1036.62 Q301.207 1031.15 288.476 1031.15 Q275.808 1031.15 268.424 1036.62 Q260.976 1042.1 260.976 1051.46 M251.045 1051.46 Q251.045 1036.18 260.976 1027.46 Q270.906 1018.74 288.476 1018.74 Q305.982 1018.74 315.976 1027.46 Q325.906 1036.18 325.906 1051.46 Q325.906 1066.8 315.976 1075.52 Q305.982 1084.18 288.476 1084.18 Q270.906 1084.18 260.976 1075.52 Q251.045 1066.8 251.045 1051.46 Z" fill="#000000" fill-rule="nonzero" fill-opacity="1" /><path clip-path="url(#clip550)" d="M281.028 940.057 L324.06 940.057 L324.06 951.77 L281.41 951.77 Q271.288 951.77 266.259 955.717 Q261.231 959.663 261.231 967.557 Q261.231 977.042 267.278 982.516 Q273.325 987.991 283.765 987.991 L324.06 987.991 L324.06 999.767 L252.764 999.767 L252.764 987.991 L263.841 987.991 Q257.411 983.789 254.228 978.124 Q251.045 972.395 251.045 964.947 Q251.045 952.661 258.684 946.359 Q266.259 940.057 281.028 940.057 Z" fill="#000000" fill-rule="nonzero" fill-opacity="1" /><path clip-path="url(#clip550)" d="M255.501 865.387 L266.45 865.387 Q263.713 870.353 262.376 875.381 Q260.976 880.347 260.976 885.439 Q260.976 896.834 268.233 903.136 Q275.426 909.438 288.476 909.438 Q301.526 909.438 308.782 903.136 Q315.976 896.834 315.976 885.439 Q315.976 880.347 314.639 875.381 Q313.238 870.353 310.501 865.387 L321.323 865.387 Q323.615 870.289 324.76 875.572 Q325.906 880.792 325.906 886.712 Q325.906 902.818 315.785 912.303 Q305.663 921.787 288.476 921.787 Q271.034 921.787 261.04 912.239 Q251.045 902.627 251.045 885.949 Q251.045 880.538 252.191 875.381 Q253.273 870.225 255.501 865.387 Z" fill="#000000" fill-rule="nonzero" fill-opacity="1" /><path clip-path="url(#clip550)" d="M307.891 843.362 L307.891 829.93 L324.06 829.93 L324.06 843.362 L307.891 843.362 Z" fill="#000000" fill-rule="nonzero" fill-opacity="1" /><path clip-path="url(#clip550)" d="M252.764 770.538 L252.764 758.125 L312.602 735.845 L252.764 713.565 L252.764 701.152 L324.06 727.888 L324.06 743.802 L252.764 770.538 Z" fill="#000000" fill-rule="nonzero" fill-opacity="1" /><path clip-path="url(#clip550)" d="M285.484 624 L291.213 624 L291.213 677.854 Q303.308 677.09 309.674 670.597 Q315.976 664.04 315.976 652.391 Q315.976 645.643 314.321 639.341 Q312.666 632.975 309.355 626.737 L320.432 626.737 Q323.105 633.039 324.506 639.659 Q325.906 646.28 325.906 653.091 Q325.906 670.151 315.976 680.145 Q306.045 690.076 289.112 690.076 Q271.607 690.076 261.358 680.654 Q251.045 671.17 251.045 655.128 Q251.045 640.742 260.339 632.402 Q269.57 624 285.484 624 M282.046 635.713 Q272.434 635.84 266.705 641.123 Q260.976 646.343 260.976 655.001 Q260.976 664.804 266.514 670.724 Q272.052 676.58 282.11 677.472 L282.046 635.713 Z" fill="#000000" fill-rule="nonzero" fill-opacity="1" /><path clip-path="url(#clip550)" d="M281.028 545.511 L324.06 545.511 L324.06 557.223 L281.41 557.223 Q271.288 557.223 266.259 561.17 Q261.231 565.117 261.231 573.01 Q261.231 582.495 267.278 587.97 Q273.325 593.444 283.765 593.444 L324.06 593.444 L324.06 605.221 L252.764 605.221 L252.764 593.444 L263.841 593.444 Q257.411 589.243 254.228 583.577 Q251.045 577.848 251.045 570.4 Q251.045 558.115 258.684 551.813 Q266.259 545.511 281.028 545.511 Z" fill="#000000" fill-rule="nonzero" fill-opacity="1" /><path clip-path="url(#clip550)" d="M232.521 510.563 L252.764 510.563 L252.764 486.437 L261.867 486.437 L261.867 510.563 L300.571 510.563 Q309.292 510.563 311.774 508.207 Q314.257 505.789 314.257 498.468 L314.257 486.437 L324.06 486.437 L324.06 498.468 Q324.06 512.027 319.031 517.183 Q313.939 522.339 300.571 522.339 L261.867 522.339 L261.867 530.933 L252.764 530.933 L252.764 522.339 L232.521 522.339 L232.521 510.563 Z" fill="#000000" fill-rule="nonzero" fill-opacity="1" /><path clip-path="url(#clip550)" d="M263.713 429.718 Q262.567 431.692 262.058 434.047 Q261.485 436.339 261.485 439.14 Q261.485 449.07 267.978 454.417 Q274.408 459.701 286.502 459.701 L324.06 459.701 L324.06 471.477 L252.764 471.477 L252.764 459.701 L263.841 459.701 Q257.348 456.009 254.228 450.089 Q251.045 444.168 251.045 435.702 Q251.045 434.493 251.236 433.028 Q251.364 431.564 251.682 429.782 L263.713 429.718 Z" fill="#000000" fill-rule="nonzero" fill-opacity="1" /><path clip-path="url(#clip550)" d="M252.764 417.433 L252.764 405.72 L324.06 405.72 L324.06 417.433 L252.764 417.433 M225.01 417.433 L225.01 405.72 L239.842 405.72 L239.842 417.433 L225.01 417.433 Z" fill="#000000" fill-rule="nonzero" fill-opacity="1" /><path clip-path="url(#clip550)" d="M255.501 329.904 L266.45 329.904 Q263.713 334.869 262.376 339.898 Q260.976 344.863 260.976 349.956 Q260.976 361.351 268.233 367.653 Q275.426 373.955 288.476 373.955 Q301.526 373.955 308.782 367.653 Q315.976 361.351 315.976 349.956 Q315.976 344.863 314.639 339.898 Q313.238 334.869 310.501 329.904 L321.323 329.904 Q323.615 334.806 324.76 340.089 Q325.906 345.309 325.906 351.229 Q325.906 367.334 315.785 376.819 Q305.663 386.304 288.476 386.304 Q271.034 386.304 261.04 376.756 Q251.045 367.143 251.045 350.465 Q251.045 345.054 252.191 339.898 Q253.273 334.742 255.501 329.904 Z" fill="#000000" fill-rule="nonzero" fill-opacity="1" /><path clip-path="url(#clip550)" d="M225.01 309.534 L225.01 297.821 L324.06 297.821 L324.06 309.534 L225.01 309.534 Z" fill="#000000" fill-rule="nonzero" fill-opacity="1" /><path clip-path="url(#clip550)" d="M285.484 212.329 L291.213 212.329 L291.213 266.183 Q303.308 265.419 309.674 258.926 Q315.976 252.37 315.976 240.721 Q315.976 233.973 314.321 227.671 Q312.666 221.305 309.355 215.067 L320.432 215.067 Q323.105 221.369 324.506 227.989 Q325.906 234.609 325.906 241.421 Q325.906 258.481 315.976 268.475 Q306.045 278.405 289.112 278.405 Q271.607 278.405 261.358 268.984 Q251.045 259.499 251.045 243.458 Q251.045 229.071 260.339 220.732 Q269.57 212.329 285.484 212.329 M282.046 224.042 Q272.434 224.17 266.705 229.453 Q260.976 234.673 260.976 243.33 Q260.976 253.134 266.514 259.054 Q272.052 264.91 282.11 265.801 L282.046 224.042 Z" fill="#000000" fill-rule="nonzero" fill-opacity="1" /><polyline clip-path="url(#clip552)" style="stroke:#008000; stroke-linecap:round; stroke-linejoin:round; stroke-width:8; stroke-opacity:1; fill:none" points="730.941,234.148 848.534,311.404 966.127,425.773 1083.72,377.768 1201.31,518.629 1318.91,607.558 1436.5,694.053 1554.09,727.433 1671.69,801.087 1789.28,771.553 1906.87,829.164 2024.46,845.37 2142.06,930.443 2259.65,930.284 "/>
<circle clip-path="url(#clip552)" cx="730.941" cy="234.148" r="14.4" fill="#008000" fill-rule="evenodd" fill-opacity="1" stroke="#000000" stroke-opacity="1" stroke-width="6.4"/>
<circle clip-path="url(#clip552)" cx="848.534" cy="311.404" r="14.4" fill="#008000" fill-rule="evenodd" fill-opacity="1" stroke="#000000" stroke-opacity="1" stroke-width="6.4"/>
<circle clip-path="url(#clip552)" cx="966.127" cy="425.773" r="14.4" fill="#008000" fill-rule="evenodd" fill-opacity="1" stroke="#000000" stroke-opacity="1" stroke-width="6.4"/>
<circle clip-path="url(#clip552)" cx="1083.72" cy="377.768" r="14.4" fill="#008000" fill-rule="evenodd" fill-opacity="1" stroke="#000000" stroke-opacity="1" stroke-width="6.4"/>
<circle clip-path="url(#clip552)" cx="1201.31" cy="518.629" r="14.4" fill="#008000" fill-rule="evenodd" fill-opacity="1" stroke="#000000" stroke-opacity="1" stroke-width="6.4"/>
<circle clip-path="url(#clip552)" cx="1318.91" cy="607.558" r="14.4" fill="#008000" fill-rule="evenodd" fill-opacity="1" stroke="#000000" stroke-opacity="1" stroke-width="6.4"/>
<circle clip-path="url(#clip552)" cx="1436.5" cy="694.053" r="14.4" fill="#008000" fill-rule="evenodd" fill-opacity="1" stroke="#000000" stroke-opacity="1" stroke-width="6.4"/>
<circle clip-path="url(#clip552)" cx="1554.09" cy="727.433" r="14.4" fill="#008000" fill-rule="evenodd" fill-opacity="1" stroke="#000000" stroke-opacity="1" stroke-width="6.4"/>
<circle clip-path="url(#clip552)" cx="1671.69" cy="801.087" r="14.4" fill="#008000" fill-rule="evenodd" fill-opacity="1" stroke="#000000" stroke-opacity="1" stroke-width="6.4"/>
<circle clip-path="url(#clip552)" cx="1789.28" cy="771.553" r="14.4" fill="#008000" fill-rule="evenodd" fill-opacity="1" stroke="#000000" stroke-opacity="1" stroke-width="6.4"/>
<circle clip-path="url(#clip552)" cx="1906.87" cy="829.164" r="14.4" fill="#008000" fill-rule="evenodd" fill-opacity="1" stroke="#000000" stroke-opacity="1" stroke-width="6.4"/>
<circle clip-path="url(#clip552)" cx="2024.46" cy="845.37" r="14.4" fill="#008000" fill-rule="evenodd" fill-opacity="1" stroke="#000000" stroke-opacity="1" stroke-width="6.4"/>
<circle clip-path="url(#clip552)" cx="2142.06" cy="930.443" r="14.4" fill="#008000" fill-rule="evenodd" fill-opacity="1" stroke="#000000" stroke-opacity="1" stroke-width="6.4"/>
<circle clip-path="url(#clip552)" cx="2259.65" cy="930.284" r="14.4" fill="#008000" fill-rule="evenodd" fill-opacity="1" stroke="#000000" stroke-opacity="1" stroke-width="6.4"/>
<polyline clip-path="url(#clip552)" style="stroke:#00008b; stroke-linecap:round; stroke-linejoin:round; stroke-width:8; stroke-opacity:1; fill:none" points="730.941,230.012 848.534,232.105 966.127,355.002 1083.72,440.306 1201.31,527.062 1318.91,622.044 1436.5,718.044 1554.09,751.417 1671.69,825.523 1789.28,891.406 1906.87,964.317 2024.46,987.926 2142.06,1069.36 2259.65,1102.57 "/>
<path clip-path="url(#clip552)" d="M730.941 324.099 L848.534 356.743 L966.127 512.517 L1083.72 569.966 L1201.31 667.503 L1318.91 749.446 L1436.5 846.035 L1554.09 904.566 L1671.69 962.367 L1789.28 1023.25 L1906.87 1108.09 L2024.46 1127.57 L2142.06 1205.49 L2259.65 1240.32 L2259.65 966.171 L2142.06 930.813 L2024.46 873.822 L1906.87 822.076 L1789.28 737.81 L1671.69 704.081 L1554.09 622.657 L1436.5 604.364 L1318.91 495.077 L1201.31 412.675 L1083.72 337.235 L966.127 234.214 L848.534 127.862 L730.941 131.487  Z" fill="#0000ff" fill-rule="evenodd" fill-opacity="0.1"/>
<polyline clip-path="url(#clip552)" style="stroke:#0000ff; stroke-linecap:round; stroke-linejoin:round; stroke-width:0; stroke-opacity:0.1; fill:none" points="730.941,324.099 848.534,356.743 966.127,512.517 1083.72,569.966 1201.31,667.503 1318.91,749.446 1436.5,846.035 1554.09,904.566 1671.69,962.367 1789.28,1023.25 1906.87,1108.09 2024.46,1127.57 2142.06,1205.49 2259.65,1240.32 "/>
</svg>
