<?xml version="1.0" encoding="utf-8"?>
<svg xmlns="http://www.w3.org/2000/svg" xmlns:xlink="http://www.w3.org/1999/xlink" width="600" height="400" viewBox="0 0 2400 1600">
<defs>
  <clipPath id="clip130">
    <rect x="0" y="0" width="2400" height="1600"/>
  </clipPath>
</defs>
<path clip-path="url(#clip130)" d="M0 1600 L2400 1600 L2400 0 L0 0  Z" fill="#ffffff" fill-rule="evenodd" fill-opacity="1"/>
<defs>
  <clipPath id="clip131">
    <rect x="480" y="0" width="1681" height="1600"/>
  </clipPath>
</defs>
<path clip-path="url(#clip130)" d="M685.08 1273.7 L2305.51 1273.7 L2305.51 94.4882 L685.08 94.4882  Z" fill="#ffffff" fill-rule="evenodd" fill-opacity="1"/>
<defs>
  <clipPath id="clip132">
    <rect x="685" y="94" width="1621" height="1180"/>
  </clipPath>
</defs>
<polyline clip-path="url(#clip132)" style="stroke:#000000; stroke-linecap:round; stroke-linejoin:round; stroke-width:4; stroke-opacity:0.1; fill:none" points="730.941,1273.7 730.941,94.4882 "/>
<polyline clip-path="url(#clip132)" style="stroke:#000000; stroke-linecap:round; stroke-linejoin:round; stroke-width:4; stroke-opacity:0.1; fill:none" points="966.127,1273.7 966.127,94.4882 "/>
<polyline clip-path="url(#clip132)" style="stroke:#000000; stroke-linecap:round; stroke-linejoin:round; stroke-width:4; stroke-opacity:0.1; fill:none" points="1201.31,1273.7 1201.31,94.4882 "/>
<polyline clip-path="url(#clip132)" style="stroke:#000000; stroke-linecap:round; stroke-linejoin:round; stroke-width:4; stroke-opacity:0.1; fill:none" points="1436.5,1273.7 1436.5,94.4882 "/>
<polyline clip-path="url(#clip132)" style="stroke:#000000; stroke-linecap:round; stroke-linejoin:round; stroke-width:4; stroke-opacity:0.1; fill:none" points="1671.69,1273.7 1671.69,94.4882 "/>
<polyline clip-path="url(#clip132)" style="stroke:#000000; stroke-linecap:round; stroke-linejoin:round; stroke-width:4; stroke-opacity:0.1; fill:none" points="1906.87,1273.7 1906.87,94.4882 "/>
<polyline clip-path="url(#clip132)" style="stroke:#000000; stroke-linecap:round; stroke-linejoin:round; stroke-width:4; stroke-opacity:0.1; fill:none" points="2142.06,1273.7 2142.06,94.4882 "/>
<polyline clip-path="url(#clip130)" style="stroke:#000000; stroke-linecap:round; stroke-linejoin:round; stroke-width:8; stroke-opacity:1; fill:none" points="685.08,1273.7 2305.51,1273.7 "/>
<polyline clip-path="url(#clip130)" style="stroke:#000000; stroke-linecap:round; stroke-linejoin:round; stroke-width:8; stroke-opacity:1; fill:none" points="730.941,1273.7 730.941,1254.8 "/>
<polyline clip-path="url(#clip130)" style="stroke:#000000; stroke-linecap:round; stroke-linejoin:round; stroke-width:8; stroke-opacity:1; fill:none" points="966.127,1273.7 966.127,1254.8 "/>
<polyline clip-path="url(#clip130)" style="stroke:#000000; stroke-linecap:round; stroke-linejoin:round; stroke-width:8; stroke-opacity:1; fill:none" points="1201.31,1273.7 1201.31,1254.8 "/>
<polyline clip-path="url(#clip130)" style="stroke:#000000; stroke-linecap:round; stroke-linejoin:round; stroke-width:8; stroke-opacity:1; fill:none" points="1436.5,1273.7 1436.5,1254.8 "/>
<polyline clip-path="url(#clip130)" style="stroke:#000000; stroke-linecap:round; stroke-linejoin:round; stroke-width:8; stroke-opacity:1; fill:none" points="1671.69,1273.7 1671.69,1254.8 "/>
<polyline clip-path="url(#clip130)" style="stroke:#000000; stroke-linecap:round; stroke-linejoin:round; stroke-width:8; stroke-opacity:1; fill:none" points="1906.87,1273.7 1906.87,1254.8 "/>
<polyline clip-path="url(#clip130)" style="stroke:#000000; stroke-linecap:round; stroke-linejoin:round; stroke-width:8; stroke-opacity:1; fill:none" points="2142.06,1273.7 2142.06,1254.8 "/>
<path clip-path="url(#clip130)" d="M685.71 1316.33 Q678.488 1316.33 674.83 1323.46 Q671.219 1330.55 671.219 1344.81 Q671.219 1359.02 674.83 1366.15 Q678.488 1373.23 685.71 1373.23 Q692.978 1373.23 696.59 1366.15 Q700.247 1359.02 700.247 1344.81 Q700.247 1330.55 696.59 1323.46 Q692.978 1316.33 685.71 1316.33 M685.71 1308.93 Q697.33 1308.93 703.441 1318.14 Q709.599 1327.31 709.599 1344.81 Q709.599 1362.26 703.441 1371.47 Q697.33 1380.64 685.71 1380.64 Q674.09 1380.64 667.932 1371.47 Q661.821 1362.26 661.821 1344.81 Q661.821 1327.31 667.932 1318.14 Q674.09 1308.93 685.71 1308.93 Z" fill="#000000" fill-rule="nonzero" fill-opacity="1" /><path clip-path="url(#clip130)" d="M726.034 1367.54 L735.802 1367.54 L735.802 1379.3 L726.034 1379.3 L726.034 1367.54 Z" fill="#000000" fill-rule="nonzero" fill-opacity="1" /><path clip-path="url(#clip130)" d="M776.172 1316.33 Q768.95 1316.33 765.293 1323.46 Q761.682 1330.55 761.682 1344.81 Q761.682 1359.02 765.293 1366.15 Q768.95 1373.23 776.172 1373.23 Q783.441 1373.23 787.052 1366.15 Q790.709 1359.02 790.709 1344.81 Q790.709 1330.55 787.052 1323.46 Q783.441 1316.33 776.172 1316.33 M776.172 1308.93 Q787.793 1308.93 793.904 1318.14 Q800.061 1327.31 800.061 1344.81 Q800.061 1362.26 793.904 1371.47 Q787.793 1380.64 776.172 1380.64 Q764.552 1380.64 758.395 1371.47 Q752.284 1362.26 752.284 1344.81 Q752.284 1327.31 758.395 1318.14 Q764.552 1308.93 776.172 1308.93 Z" fill="#000000" fill-rule="nonzero" fill-opacity="1" /><path clip-path="url(#clip130)" d="M922.493 1316.33 Q915.271 1316.33 911.614 1323.46 Q908.003 1330.55 908.003 1344.81 Q908.003 1359.02 911.614 1366.15 Q915.271 1373.23 922.493 1373.23 Q929.762 1373.23 933.373 1366.15 Q937.03 1359.02 937.03 1344.81 Q937.03 1330.55 933.373 1323.46 Q929.762 1316.33 922.493 1316.33 M922.493 1308.93 Q934.114 1308.93 940.225 1318.14 Q946.382 1327.31 946.382 1344.81 Q946.382 1362.26 940.225 1371.47 Q934.114 1380.64 922.493 1380.64 Q910.873 1380.64 904.716 1371.47 Q898.605 1362.26 898.605 1344.81 Q898.605 1327.31 904.716 1318.14 Q910.873 1308.93 922.493 1308.93 Z" fill="#000000" fill-rule="nonzero" fill-opacity="1" /><path clip-path="url(#clip130)" d="M962.817 1367.54 L972.586 1367.54 L972.586 1379.3 L962.817 1379.3 L962.817 1367.54 Z" fill="#000000" fill-rule="nonzero" fill-opacity="1" /><path clip-path="url(#clip130)" d="M1001.01 1371.43 L1033.65 1371.43 L1033.65 1379.3 L989.761 1379.3 L989.761 1371.43 Q995.085 1365.92 1004.25 1356.66 Q1013.47 1347.35 1015.83 1344.67 Q1020.32 1339.62 1022.08 1336.15 Q1023.88 1332.63 1023.88 1329.25 Q1023.88 1323.74 1019.99 1320.27 Q1016.15 1316.8 1009.95 1316.8 Q1005.55 1316.8 1000.64 1318.32 Q995.78 1319.85 990.224 1322.95 L990.224 1313.51 Q995.873 1311.24 1000.78 1310.08 Q1005.69 1308.93 1009.76 1308.93 Q1020.5 1308.93 1026.89 1314.3 Q1033.28 1319.67 1033.28 1328.65 Q1033.28 1332.91 1031.66 1336.75 Q1030.09 1340.55 1025.87 1345.73 Q1024.71 1347.07 1018.51 1353.51 Q1012.31 1359.9 1001.01 1371.43 Z" fill="#000000" fill-rule="nonzero" fill-opacity="1" /><path clip-path="url(#clip130)" d="M1155.6 1316.33 Q1148.37 1316.33 1144.72 1323.46 Q1141.11 1330.55 1141.11 1344.81 Q1141.11 1359.02 1144.72 1366.15 Q1148.37 1373.23 1155.6 1373.23 Q1162.86 1373.23 1166.48 1366.15 Q1170.13 1359.02 1170.13 1344.81 Q1170.13 1330.55 1166.48 1323.46 Q1162.86 1316.33 1155.6 1316.33 M1155.6 1308.93 Q1167.22 1308.93 1173.33 1318.14 Q1179.48 1327.31 1179.48 1344.81 Q1179.48 1362.26 1173.33 1371.47 Q1167.22 1380.64 1155.6 1380.64 Q1143.98 1380.64 1137.82 1371.47 Q1131.71 1362.26 1131.71 1344.81 Q1131.71 1327.31 1137.82 1318.14 Q1143.98 1308.93 1155.6 1308.93 Z" fill="#000000" fill-rule="nonzero" fill-opacity="1" /><path clip-path="url(#clip130)" d="M1195.92 1367.54 L1205.69 1367.54 L1205.69 1379.3 L1195.92 1379.3 L1195.92 1367.54 Z" fill="#000000" fill-rule="nonzero" fill-opacity="1" /><path clip-path="url(#clip130)" d="M1251.75 1318.32 L1228.14 1355.22 L1251.75 1355.22 L1251.75 1318.32 M1249.3 1310.18 L1261.06 1310.18 L1261.06 1355.22 L1270.92 1355.22 L1270.92 1363 L1261.06 1363 L1261.06 1379.3 L1251.75 1379.3 L1251.75 1363 L1220.55 1363 L1220.55 1353.97 L1249.3 1310.18 Z" fill="#000000" fill-rule="nonzero" fill-opacity="1" /><path clip-path="url(#clip130)" d="M1391.11 1316.33 Q1383.88 1316.33 1380.23 1323.46 Q1376.62 1330.55 1376.62 1344.81 Q1376.62 1359.02 1380.23 1366.15 Q1383.88 1373.23 1391.11 1373.23 Q1398.37 1373.23 1401.99 1366.15 Q1405.64 1359.02 1405.64 1344.81 Q1405.64 1330.55 1401.99 1323.46 Q1398.37 1316.33 1391.11 1316.33 M1391.11 1308.93 Q1402.73 1308.93 1408.84 1318.14 Q1414.99 1327.31 1414.99 1344.81 Q1414.99 1362.26 1408.84 1371.47 Q1402.73 1380.64 1391.11 1380.64 Q1379.49 1380.64 1373.33 1371.47 Q1367.22 1362.26 1367.22 1344.81 Q1367.22 1327.31 1373.33 1318.14 Q1379.49 1308.93 1391.11 1308.93 Z" fill="#000000" fill-rule="nonzero" fill-opacity="1" /><path clip-path="url(#clip130)" d="M1431.43 1367.54 L1441.2 1367.54 L1441.2 1379.3 L1431.43 1379.3 L1431.43 1367.54 Z" fill="#000000" fill-rule="nonzero" fill-opacity="1" /><path clip-path="url(#clip130)" d="M1482.73 1341.01 Q1476.43 1341.01 1472.73 1345.31 Q1469.07 1349.62 1469.07 1357.12 Q1469.07 1364.57 1472.73 1368.93 Q1476.43 1373.23 1482.73 1373.23 Q1489.02 1373.23 1492.68 1368.93 Q1496.38 1364.57 1496.38 1357.12 Q1496.38 1349.62 1492.68 1345.31 Q1489.02 1341.01 1482.73 1341.01 M1501.29 1311.7 L1501.29 1320.22 Q1497.77 1318.56 1494.16 1317.68 Q1490.6 1316.8 1487.08 1316.8 Q1477.82 1316.8 1472.91 1323.05 Q1468.05 1329.3 1467.36 1341.93 Q1470.09 1337.91 1474.21 1335.78 Q1478.33 1333.6 1483.28 1333.6 Q1493.7 1333.6 1499.72 1339.94 Q1505.78 1346.24 1505.78 1357.12 Q1505.78 1367.77 1499.49 1374.2 Q1493.19 1380.64 1482.73 1380.64 Q1470.74 1380.64 1464.39 1371.47 Q1458.05 1362.26 1458.05 1344.81 Q1458.05 1328.42 1465.83 1318.69 Q1473.61 1308.93 1486.71 1308.93 Q1490.23 1308.93 1493.79 1309.62 Q1497.4 1310.31 1501.29 1311.7 Z" fill="#000000" fill-rule="nonzero" fill-opacity="1" /><path clip-path="url(#clip130)" d="M1626.55 1316.33 Q1619.32 1316.33 1615.67 1323.46 Q1612.06 1330.55 1612.06 1344.81 Q1612.06 1359.02 1615.67 1366.15 Q1619.32 1373.23 1626.55 1373.23 Q1633.82 1373.23 1637.43 1366.15 Q1641.08 1359.02 1641.08 1344.81 Q1641.08 1330.55 1637.43 1323.46 Q1633.82 1316.33 1626.55 1316.33 M1626.55 1308.93 Q1638.17 1308.93 1644.28 1318.14 Q1650.44 1327.31 1650.44 1344.81 Q1650.44 1362.26 1644.28 1371.47 Q1638.17 1380.64 1626.55 1380.64 Q1614.93 1380.64 1608.77 1371.47 Q1602.66 1362.26 1602.66 1344.81 Q1602.66 1327.31 1608.77 1318.14 Q1614.93 1308.93 1626.55 1308.93 Z" fill="#000000" fill-rule="nonzero" fill-opacity="1" /><path clip-path="url(#clip130)" d="M1666.87 1367.54 L1676.64 1367.54 L1676.64 1379.3 L1666.87 1379.3 L1666.87 1367.54 Z" fill="#000000" fill-rule="nonzero" fill-opacity="1" /><path clip-path="url(#clip130)" d="M1717.01 1346.47 Q1710.34 1346.47 1706.5 1350.04 Q1702.7 1353.6 1702.7 1359.85 Q1702.7 1366.1 1706.5 1369.67 Q1710.34 1373.23 1717.01 1373.23 Q1723.68 1373.23 1727.52 1369.67 Q1731.36 1366.06 1731.36 1359.85 Q1731.36 1353.6 1727.52 1350.04 Q1723.72 1346.47 1717.01 1346.47 M1707.66 1342.49 Q1701.64 1341.01 1698.26 1336.89 Q1694.93 1332.77 1694.93 1326.84 Q1694.93 1318.56 1700.81 1313.74 Q1706.73 1308.93 1717.01 1308.93 Q1727.33 1308.93 1733.21 1313.74 Q1739.09 1318.56 1739.09 1326.84 Q1739.09 1332.77 1735.71 1336.89 Q1732.38 1341.01 1726.41 1342.49 Q1733.17 1344.06 1736.92 1348.65 Q1740.71 1353.23 1740.71 1359.85 Q1740.71 1369.9 1734.56 1375.27 Q1728.44 1380.64 1717.01 1380.64 Q1705.57 1380.64 1699.42 1375.27 Q1693.31 1369.9 1693.31 1359.85 Q1693.31 1353.23 1697.1 1348.65 Q1700.9 1344.06 1707.66 1342.49 M1704.23 1327.72 Q1704.23 1333.09 1707.56 1336.1 Q1710.94 1339.11 1717.01 1339.11 Q1723.03 1339.11 1726.41 1336.1 Q1729.83 1333.09 1729.83 1327.72 Q1729.83 1322.35 1726.41 1319.34 Q1723.03 1316.33 1717.01 1316.33 Q1710.94 1316.33 1707.56 1319.34 Q1704.23 1322.35 1704.23 1327.72 Z" fill="#000000" fill-rule="nonzero" fill-opacity="1" /><path clip-path="url(#clip130)" d="M1841.18 1371.43 L1856.46 1371.43 L1856.46 1318.69 L1839.83 1322.03 L1839.83 1313.51 L1856.36 1310.18 L1865.71 1310.18 L1865.71 1371.43 L1880.99 1371.43 L1880.99 1379.3 L1841.18 1379.3 L1841.18 1371.43 Z" fill="#000000" fill-rule="nonzero" fill-opacity="1" /><path clip-path="url(#clip130)" d="M1899.88 1367.54 L1909.65 1367.54 L1909.65 1379.3 L1899.88 1379.3 L1899.88 1367.54 Z" fill="#000000" fill-rule="nonzero" fill-opacity="1" /><path clip-path="url(#clip130)" d="M1950.02 1316.33 Q1942.8 1316.33 1939.14 1323.46 Q1935.53 1330.55 1935.53 1344.81 Q1935.53 1359.02 1939.14 1366.15 Q1942.8 1373.23 1950.02 1373.23 Q1957.29 1373.23 1960.9 1366.15 Q1964.56 1359.02 1964.56 1344.81 Q1964.56 1330.55 1960.9 1323.46 Q1957.29 1316.33 1950.02 1316.33 M1950.02 1308.93 Q1961.64 1308.93 1967.75 1318.14 Q1973.91 1327.31 1973.91 1344.81 Q1973.91 1362.26 1967.75 1371.47 Q1961.64 1380.64 1950.02 1380.64 Q1938.4 1380.64 1932.24 1371.47 Q1926.13 1362.26 1926.13 1344.81 Q1926.13 1327.31 1932.24 1318.14 Q1938.4 1308.93 1950.02 1308.93 Z" fill="#000000" fill-rule="nonzero" fill-opacity="1" /><path clip-path="url(#clip130)" d="M2077.96 1371.43 L2093.24 1371.43 L2093.24 1318.69 L2076.62 1322.03 L2076.62 1313.51 L2093.15 1310.18 L2102.5 1310.18 L2102.5 1371.43 L2117.78 1371.43 L2117.78 1379.3 L2077.96 1379.3 L2077.96 1371.43 Z" fill="#000000" fill-rule="nonzero" fill-opacity="1" /><path clip-path="url(#clip130)" d="M2136.66 1367.54 L2146.43 1367.54 L2146.43 1379.3 L2136.66 1379.3 L2136.66 1367.54 Z" fill="#000000" fill-rule="nonzero" fill-opacity="1" /><path clip-path="url(#clip130)" d="M2174.86 1371.43 L2207.5 1371.43 L2207.5 1379.3 L2163.61 1379.3 L2163.61 1371.43 Q2168.93 1365.92 2178.1 1356.66 Q2187.31 1347.35 2189.67 1344.67 Q2194.16 1339.62 2195.92 1336.15 Q2197.73 1332.63 2197.73 1329.25 Q2197.73 1323.74 2193.84 1320.27 Q2190 1316.8 2183.79 1316.8 Q2179.4 1316.8 2174.49 1318.32 Q2169.63 1319.85 2164.07 1322.95 L2164.07 1313.51 Q2169.72 1311.24 2174.63 1310.08 Q2179.53 1308.93 2183.61 1308.93 Q2194.35 1308.93 2200.74 1314.3 Q2207.13 1319.67 2207.13 1328.65 Q2207.13 1332.91 2205.51 1336.75 Q2203.93 1340.55 2199.72 1345.73 Q2198.56 1347.07 2192.36 1353.51 Q2186.15 1359.9 2174.86 1371.43 Z" fill="#000000" fill-rule="nonzero" fill-opacity="1" /><path clip-path="url(#clip130)" d="M1380.84 1484.39 L1380.84 1527.42 L1369.13 1527.42 L1369.13 1484.77 Q1369.13 1474.65 1365.18 1469.62 Q1361.23 1464.59 1353.34 1464.59 Q1343.86 1464.59 1338.38 1470.64 Q1332.91 1476.69 1332.91 1487.13 L1332.91 1527.42 L1321.13 1527.42 L1321.13 1428.37 L1332.91 1428.37 L1332.91 1467.2 Q1337.11 1460.77 1342.77 1457.59 Q1348.5 1454.41 1355.95 1454.41 Q1368.24 1454.41 1374.54 1462.05 Q1380.84 1469.62 1380.84 1484.39 Z" fill="#000000" fill-rule="nonzero" fill-opacity="1" /><path clip-path="url(#clip130)" d="M1431.83 1464.34 Q1422.41 1464.34 1416.93 1471.72 Q1411.46 1479.04 1411.46 1491.84 Q1411.46 1504.63 1416.87 1512.02 Q1422.34 1519.34 1431.83 1519.34 Q1441.19 1519.34 1446.66 1511.96 Q1452.14 1504.57 1452.14 1491.84 Q1452.14 1479.17 1446.66 1471.79 Q1441.19 1464.34 1431.83 1464.34 M1431.83 1454.41 Q1447.11 1454.41 1455.83 1464.34 Q1464.55 1474.27 1464.55 1491.84 Q1464.55 1509.35 1455.83 1519.34 Q1447.11 1529.27 1431.83 1529.27 Q1416.49 1529.27 1407.77 1519.34 Q1399.11 1509.35 1399.11 1491.84 Q1399.11 1474.27 1407.77 1464.34 Q1416.49 1454.41 1431.83 1454.41 Z" fill="#000000" fill-rule="nonzero" fill-opacity="1" /><path clip-path="url(#clip130)" d="M1482.76 1499.29 L1482.76 1456.13 L1494.47 1456.13 L1494.47 1498.84 Q1494.47 1508.96 1498.42 1514.06 Q1502.36 1519.08 1510.26 1519.08 Q1519.74 1519.08 1525.21 1513.04 Q1530.75 1506.99 1530.75 1496.55 L1530.75 1456.13 L1542.47 1456.13 L1542.47 1527.42 L1530.75 1527.42 L1530.75 1516.47 Q1526.49 1522.97 1520.82 1526.15 Q1515.22 1529.27 1507.77 1529.27 Q1495.49 1529.27 1489.12 1521.63 Q1482.76 1513.99 1482.76 1499.29 M1512.23 1454.41 L1512.23 1454.41 Z" fill="#000000" fill-rule="nonzero" fill-opacity="1" /><path clip-path="url(#clip130)" d="M1607.91 1467.08 Q1605.93 1465.93 1603.58 1465.42 Q1601.28 1464.85 1598.48 1464.85 Q1588.55 1464.85 1583.21 1471.34 Q1577.92 1477.77 1577.92 1489.87 L1577.92 1527.42 L1566.15 1527.42 L1566.15 1456.13 L1577.92 1456.13 L1577.92 1467.2 Q1581.61 1460.71 1587.53 1457.59 Q1593.46 1454.41 1601.92 1454.41 Q1603.13 1454.41 1604.6 1454.6 Q1606.06 1454.73 1607.84 1455.05 L1607.91 1467.08 Z" fill="#000000" fill-rule="nonzero" fill-opacity="1" /><path clip-path="url(#clip130)" d="M1665.64 1458.23 L1665.64 1469.3 Q1660.68 1466.76 1655.33 1465.49 Q1649.98 1464.21 1644.25 1464.21 Q1635.53 1464.21 1631.14 1466.89 Q1626.81 1469.56 1626.81 1474.91 Q1626.81 1478.98 1629.93 1481.34 Q1633.05 1483.63 1642.47 1485.73 L1646.48 1486.62 Q1658.96 1489.29 1664.18 1494.19 Q1669.46 1499.03 1669.46 1507.75 Q1669.46 1517.68 1661.57 1523.48 Q1653.74 1529.27 1639.99 1529.27 Q1634.26 1529.27 1628.02 1528.12 Q1621.85 1527.04 1614.97 1524.81 L1614.97 1512.72 Q1621.46 1516.09 1627.77 1517.81 Q1634.07 1519.47 1640.24 1519.47 Q1648.52 1519.47 1652.97 1516.67 Q1657.43 1513.8 1657.43 1508.64 Q1657.43 1503.87 1654.18 1501.32 Q1651 1498.78 1640.12 1496.42 L1636.04 1495.47 Q1625.16 1493.18 1620.32 1488.47 Q1615.48 1483.69 1615.48 1475.42 Q1615.48 1465.36 1622.61 1459.88 Q1629.74 1454.41 1642.85 1454.41 Q1649.35 1454.41 1655.08 1455.36 Q1660.8 1456.32 1665.64 1458.23 Z" fill="#000000" fill-rule="nonzero" fill-opacity="1" /><polyline clip-path="url(#clip132)" style="stroke:#000000; stroke-linecap:round; stroke-linejoin:round; stroke-width:4; stroke-opacity:0.1; fill:none" points="685.08,1267.97 2305.51,1267.97 "/>
<polyline clip-path="url(#clip132)" style="stroke:#000000; stroke-linecap:round; stroke-linejoin:round; stroke-width:4; stroke-opacity:0.1; fill:none" points="685.08,1003.8 2305.51,1003.8 "/>
<polyline clip-path="url(#clip132)" style="stroke:#000000; stroke-linecap:round; stroke-linejoin:round; stroke-width:4; stroke-opacity:0.1; fill:none" points="685.08,739.624 2305.51,739.624 "/>
<polyline clip-path="url(#clip132)" style="stroke:#000000; stroke-linecap:round; stroke-linejoin:round; stroke-width:4; stroke-opacity:0.1; fill:none" points="685.08,475.452 2305.51,475.452 "/>
<polyline clip-path="url(#clip132)" style="stroke:#000000; stroke-linecap:round; stroke-linejoin:round; stroke-width:4; stroke-opacity:0.1; fill:none" points="685.08,211.281 2305.51,211.281 "/>
<polyline clip-path="url(#clip130)" style="stroke:#000000; stroke-linecap:round; stroke-linejoin:round; stroke-width:8; stroke-opacity:1; fill:none" points="685.08,1273.7 685.08,94.4882 "/>
<polyline clip-path="url(#clip130)" style="stroke:#000000; stroke-linecap:round; stroke-linejoin:round; stroke-width:8; stroke-opacity:1; fill:none" points="685.08,1267.97 703.978,1267.97 "/>
<polyline clip-path="url(#clip130)" style="stroke:#000000; stroke-linecap:round; stroke-linejoin:round; stroke-width:8; stroke-opacity:1; fill:none" points="685.08,1003.8 703.978,1003.8 "/>
<polyline clip-path="url(#clip130)" style="stroke:#000000; stroke-linecap:round; stroke-linejoin:round; stroke-width:8; stroke-opacity:1; fill:none" points="685.08,739.624 703.978,739.624 "/>
<polyline clip-path="url(#clip130)" style="stroke:#000000; stroke-linecap:round; stroke-linejoin:round; stroke-width:8; stroke-opacity:1; fill:none" points="685.08,475.452 703.978,475.452 "/>
<polyline clip-path="url(#clip130)" style="stroke:#000000; stroke-linecap:round; stroke-linejoin:round; stroke-width:8; stroke-opacity:1; fill:none" points="685.08,211.281 703.978,211.281 "/>
<path clip-path="url(#clip130)" d="M534.729 1239.57 Q527.507 1239.57 523.849 1246.69 Q520.238 1253.78 520.238 1268.04 Q520.238 1282.25 523.849 1289.38 Q527.507 1296.46 534.729 1296.46 Q541.997 1296.46 545.608 1289.38 Q549.266 1282.25 549.266 1268.04 Q549.266 1253.78 545.608 1246.69 Q541.997 1239.57 534.729 1239.57 M534.729 1232.16 Q546.349 1232.16 552.46 1241.37 Q558.618 1250.54 558.618 1268.04 Q558.618 1285.49 552.46 1294.7 Q546.349 1303.87 534.729 1303.87 Q523.108 1303.87 516.951 1294.7 Q510.84 1285.49 510.84 1268.04 Q510.84 1250.54 516.951 1241.37 Q523.108 1232.16 534.729 1232.16 Z" fill="#000000" fill-rule="nonzero" fill-opacity="1" /><path clip-path="url(#clip130)" d="M575.053 1290.77 L584.821 1290.77 L584.821 1302.53 L575.053 1302.53 L575.053 1290.77 Z" fill="#000000" fill-rule="nonzero" fill-opacity="1" /><path clip-path="url(#clip130)" d="M625.191 1239.57 Q617.969 1239.57 614.312 1246.69 Q610.701 1253.78 610.701 1268.04 Q610.701 1282.25 614.312 1289.38 Q617.969 1296.46 625.191 1296.46 Q632.46 1296.46 636.071 1289.38 Q639.728 1282.25 639.728 1268.04 Q639.728 1253.78 636.071 1246.69 Q632.46 1239.57 625.191 1239.57 M625.191 1232.16 Q636.812 1232.16 642.923 1241.37 Q649.08 1250.54 649.08 1268.04 Q649.08 1285.49 642.923 1294.7 Q636.812 1303.87 625.191 1303.87 Q613.571 1303.87 607.414 1294.7 Q601.302 1285.49 601.302 1268.04 Q601.302 1250.54 607.414 1241.37 Q613.571 1232.16 625.191 1232.16 Z" fill="#000000" fill-rule="nonzero" fill-opacity="1" /><path clip-path="url(#clip130)" d="M395.702 1030.49 L410.979 1030.49 L410.979 977.754 L394.359 981.088 L394.359 972.569 L410.887 969.236 L420.239 969.236 L420.239 1030.49 L435.516 1030.49 L435.516 1038.36 L395.702 1038.36 L395.702 1030.49 Z" fill="#000000" fill-rule="nonzero" fill-opacity="1" /><path clip-path="url(#clip130)" d="M474.405 975.393 Q467.183 975.393 463.525 982.523 Q459.914 989.606 459.914 1003.87 Q459.914 1018.08 463.525 1025.21 Q467.183 1032.29 474.405 1032.29 Q481.673 1032.29 485.285 1025.21 Q488.942 1018.08 488.942 1003.87 Q488.942 989.606 485.285 982.523 Q481.673 975.393 474.405 975.393 M474.405 967.986 Q486.025 967.986 492.136 977.199 Q498.294 986.366 498.294 1003.87 Q498.294 1021.32 492.136 1030.53 Q486.025 1039.7 474.405 1039.7 Q462.785 1039.7 456.627 1030.53 Q450.516 1021.32 450.516 1003.87 Q450.516 986.366 456.627 977.199 Q462.785 967.986 474.405 967.986 Z" fill="#000000" fill-rule="nonzero" fill-opacity="1" /><path clip-path="url(#clip130)" d="M534.729 975.393 Q527.507 975.393 523.849 982.523 Q520.238 989.606 520.238 1003.87 Q520.238 1018.08 523.849 1025.21 Q527.507 1032.29 534.729 1032.29 Q541.997 1032.29 545.608 1025.21 Q549.266 1018.08 549.266 1003.87 Q549.266 989.606 545.608 982.523 Q541.997 975.393 534.729 975.393 M534.729 967.986 Q546.349 967.986 552.46 977.199 Q558.618 986.366 558.618 1003.87 Q558.618 1021.32 552.46 1030.53 Q546.349 1039.7 534.729 1039.7 Q523.108 1039.7 516.951 1030.53 Q510.84 1021.32 510.84 1003.87 Q510.84 986.366 516.951 977.199 Q523.108 967.986 534.729 967.986 Z" fill="#000000" fill-rule="nonzero" fill-opacity="1" /><path clip-path="url(#clip130)" d="M575.053 1026.6 L584.821 1026.6 L584.821 1038.36 L575.053 1038.36 L575.053 1026.6 Z" fill="#000000" fill-rule="nonzero" fill-opacity="1" /><path clip-path="url(#clip130)" d="M625.191 975.393 Q617.969 975.393 614.312 982.523 Q610.701 989.606 610.701 1003.87 Q610.701 1018.08 614.312 1025.21 Q617.969 1032.29 625.191 1032.29 Q632.46 1032.29 636.071 1025.21 Q639.728 1018.08 639.728 1003.87 Q639.728 989.606 636.071 982.523 Q632.46 975.393 625.191 975.393 M625.191 967.986 Q636.812 967.986 642.923 977.199 Q649.08 986.366 649.08 1003.87 Q649.08 1021.32 642.923 1030.53 Q636.812 1039.7 625.191 1039.7 Q613.571 1039.7 607.414 1030.53 Q601.302 1021.32 601.302 1003.87 Q601.302 986.366 607.414 977.199 Q613.571 967.986 625.191 967.986 Z" fill="#000000" fill-rule="nonzero" fill-opacity="1" /><path clip-path="url(#clip130)" d="M402.137 766.314 L434.776 766.314 L434.776 774.184 L390.887 774.184 L390.887 766.314 Q396.211 760.805 405.378 751.545 Q414.59 742.24 416.952 739.555 Q421.442 734.509 423.202 731.036 Q425.007 727.518 425.007 724.138 Q425.007 718.629 421.118 715.157 Q417.276 711.685 411.072 711.685 Q406.674 711.685 401.766 713.212 Q396.905 714.74 391.35 717.842 L391.35 708.398 Q396.998 706.129 401.905 704.972 Q406.813 703.814 410.887 703.814 Q421.627 703.814 428.016 709.185 Q434.405 714.555 434.405 723.536 Q434.405 727.796 432.785 731.638 Q431.211 735.434 426.998 740.62 Q425.84 741.962 419.637 748.397 Q413.433 754.786 402.137 766.314 Z" fill="#000000" fill-rule="nonzero" fill-opacity="1" /><path clip-path="url(#clip130)" d="M474.405 711.222 Q467.183 711.222 463.525 718.351 Q459.914 725.434 459.914 739.694 Q459.914 753.907 463.525 761.036 Q467.183 768.119 474.405 768.119 Q481.673 768.119 485.285 761.036 Q488.942 753.907 488.942 739.694 Q488.942 725.434 485.285 718.351 Q481.673 711.222 474.405 711.222 M474.405 703.814 Q486.025 703.814 492.136 713.027 Q498.294 722.194 498.294 739.694 Q498.294 757.147 492.136 766.36 Q486.025 775.527 474.405 775.527 Q462.785 775.527 456.627 766.36 Q450.516 757.147 450.516 739.694 Q450.516 722.194 456.627 713.027 Q462.785 703.814 474.405 703.814 Z" fill="#000000" fill-rule="nonzero" fill-opacity="1" /><path clip-path="url(#clip130)" d="M534.729 711.222 Q527.507 711.222 523.849 718.351 Q520.238 725.434 520.238 739.694 Q520.238 753.907 523.849 761.036 Q527.507 768.119 534.729 768.119 Q541.997 768.119 545.608 761.036 Q549.266 753.907 549.266 739.694 Q549.266 725.434 545.608 718.351 Q541.997 711.222 534.729 711.222 M534.729 703.814 Q546.349 703.814 552.46 713.027 Q558.618 722.194 558.618 739.694 Q558.618 757.147 552.46 766.36 Q546.349 775.527 534.729 775.527 Q523.108 775.527 516.951 766.36 Q510.84 757.147 510.84 739.694 Q510.84 722.194 516.951 713.027 Q523.108 703.814 534.729 703.814 Z" fill="#000000" fill-rule="nonzero" fill-opacity="1" /><path clip-path="url(#clip130)" d="M575.053 762.425 L584.821 762.425 L584.821 774.184 L575.053 774.184 L575.053 762.425 Z" fill="#000000" fill-rule="nonzero" fill-opacity="1" /><path clip-path="url(#clip130)" d="M625.191 711.222 Q617.969 711.222 614.312 718.351 Q610.701 725.434 610.701 739.694 Q610.701 753.907 614.312 761.036 Q617.969 768.119 625.191 768.119 Q632.46 768.119 636.071 761.036 Q639.728 753.907 639.728 739.694 Q639.728 725.434 636.071 718.351 Q632.46 711.222 625.191 711.222 M625.191 703.814 Q636.812 703.814 642.923 713.027 Q649.08 722.194 649.08 739.694 Q649.08 757.147 642.923 766.36 Q636.812 775.527 625.191 775.527 Q613.571 775.527 607.414 766.36 Q601.302 757.147 601.302 739.694 Q601.302 722.194 607.414 713.027 Q613.571 703.814 625.191 703.814 Z" fill="#000000" fill-rule="nonzero" fill-opacity="1" /><path clip-path="url(#clip130)" d="M422.415 472.744 Q429.127 474.179 432.877 478.716 Q436.674 483.253 436.674 489.92 Q436.674 500.151 429.637 505.753 Q422.6 511.355 409.637 511.355 Q405.285 511.355 400.655 510.475 Q396.072 509.642 391.165 507.929 L391.165 498.901 Q395.054 501.17 399.683 502.327 Q404.313 503.485 409.359 503.485 Q418.155 503.485 422.739 500.013 Q427.368 496.54 427.368 489.92 Q427.368 483.809 423.063 480.383 Q418.803 476.911 411.165 476.911 L403.109 476.911 L403.109 469.226 L411.535 469.226 Q418.433 469.226 422.09 466.494 Q425.748 463.716 425.748 458.531 Q425.748 453.207 421.952 450.383 Q418.202 447.513 411.165 447.513 Q407.322 447.513 402.924 448.346 Q398.526 449.179 393.248 450.939 L393.248 442.605 Q398.572 441.124 403.202 440.383 Q407.878 439.642 411.998 439.642 Q422.646 439.642 428.85 444.504 Q435.053 449.318 435.053 457.559 Q435.053 463.3 431.766 467.281 Q428.479 471.216 422.415 472.744 Z" fill="#000000" fill-rule="nonzero" fill-opacity="1" /><path clip-path="url(#clip130)" d="M474.405 447.05 Q467.183 447.05 463.525 454.179 Q459.914 461.263 459.914 475.522 Q459.914 489.735 463.525 496.864 Q467.183 503.948 474.405 503.948 Q481.673 503.948 485.285 496.864 Q488.942 489.735 488.942 475.522 Q488.942 461.263 485.285 454.179 Q481.673 447.05 474.405 447.05 M474.405 439.642 Q486.025 439.642 492.136 448.855 Q498.294 458.022 498.294 475.522 Q498.294 492.976 492.136 502.188 Q486.025 511.355 474.405 511.355 Q462.785 511.355 456.627 502.188 Q450.516 492.976 450.516 475.522 Q450.516 458.022 456.627 448.855 Q462.785 439.642 474.405 439.642 Z" fill="#000000" fill-rule="nonzero" fill-opacity="1" /><path clip-path="url(#clip130)" d="M534.729 447.05 Q527.507 447.05 523.849 454.179 Q520.238 461.263 520.238 475.522 Q520.238 489.735 523.849 496.864 Q527.507 503.948 534.729 503.948 Q541.997 503.948 545.608 496.864 Q549.266 489.735 549.266 475.522 Q549.266 461.263 545.608 454.179 Q541.997 447.05 534.729 447.05 M534.729 439.642 Q546.349 439.642 552.46 448.855 Q558.618 458.022 558.618 475.522 Q558.618 492.976 552.46 502.188 Q546.349 511.355 534.729 511.355 Q523.108 511.355 516.951 502.188 Q510.84 492.976 510.84 475.522 Q510.84 458.022 516.951 448.855 Q523.108 439.642 534.729 439.642 Z" fill="#000000" fill-rule="nonzero" fill-opacity="1" /><path clip-path="url(#clip130)" d="M575.053 498.253 L584.821 498.253 L584.821 510.012 L575.053 510.012 L575.053 498.253 Z" fill="#000000" fill-rule="nonzero" fill-opacity="1" /><path clip-path="url(#clip130)" d="M625.191 447.05 Q617.969 447.05 614.312 454.179 Q610.701 461.263 610.701 475.522 Q610.701 489.735 614.312 496.864 Q617.969 503.948 625.191 503.948 Q632.46 503.948 636.071 496.864 Q639.728 489.735 639.728 475.522 Q639.728 461.263 636.071 454.179 Q632.46 447.05 625.191 447.05 M625.191 439.642 Q636.812 439.642 642.923 448.855 Q649.08 458.022 649.08 475.522 Q649.08 492.976 642.923 502.188 Q636.812 511.355 625.191 511.355 Q613.571 511.355 607.414 502.188 Q601.302 492.976 601.302 475.522 Q601.302 458.022 607.414 448.855 Q613.571 439.642 625.191 439.642 Z" fill="#000000" fill-rule="nonzero" fill-opacity="1" /><path clip-path="url(#clip130)" d="M419.776 184.869 L396.165 221.767 L419.776 221.767 L419.776 184.869 M417.322 176.721 L429.081 176.721 L429.081 221.767 L438.942 221.767 L438.942 229.545 L429.081 229.545 L429.081 245.841 L419.776 245.841 L419.776 229.545 L388.572 229.545 L388.572 220.517 L417.322 176.721 Z" fill="#000000" fill-rule="nonzero" fill-opacity="1" /><path clip-path="url(#clip130)" d="M474.405 182.878 Q467.183 182.878 463.525 190.008 Q459.914 197.091 459.914 211.35 Q459.914 225.563 463.525 232.693 Q467.183 239.776 474.405 239.776 Q481.673 239.776 485.285 232.693 Q488.942 225.563 488.942 211.35 Q488.942 197.091 485.285 190.008 Q481.673 182.878 474.405 182.878 M474.405 175.471 Q486.025 175.471 492.136 184.684 Q498.294 193.85 498.294 211.35 Q498.294 228.804 492.136 238.017 Q486.025 247.183 474.405 247.183 Q462.785 247.183 456.627 238.017 Q450.516 228.804 450.516 211.35 Q450.516 193.85 456.627 184.684 Q462.785 175.471 474.405 175.471 Z" fill="#000000" fill-rule="nonzero" fill-opacity="1" /><path clip-path="url(#clip130)" d="M534.729 182.878 Q527.507 182.878 523.849 190.008 Q520.238 197.091 520.238 211.35 Q520.238 225.563 523.849 232.693 Q527.507 239.776 534.729 239.776 Q541.997 239.776 545.608 232.693 Q549.266 225.563 549.266 211.35 Q549.266 197.091 545.608 190.008 Q541.997 182.878 534.729 182.878 M534.729 175.471 Q546.349 175.471 552.46 184.684 Q558.618 193.85 558.618 211.35 Q558.618 228.804 552.46 238.017 Q546.349 247.183 534.729 247.183 Q523.108 247.183 516.951 238.017 Q510.84 228.804 510.84 211.35 Q510.84 193.85 516.951 184.684 Q523.108 175.471 534.729 175.471 Z" fill="#000000" fill-rule="nonzero" fill-opacity="1" /><path clip-path="url(#clip130)" d="M575.053 234.082 L584.821 234.082 L584.821 245.841 L575.053 245.841 L575.053 234.082 Z" fill="#000000" fill-rule="nonzero" fill-opacity="1" /><path clip-path="url(#clip130)" d="M625.191 182.878 Q617.969 182.878 614.312 190.008 Q610.701 197.091 610.701 211.35 Q610.701 225.563 614.312 232.693 Q617.969 239.776 625.191 239.776 Q632.46 239.776 636.071 232.693 Q639.728 225.563 639.728 211.35 Q639.728 197.091 636.071 190.008 Q632.46 182.878 625.191 182.878 M625.191 175.471 Q636.812 175.471 642.923 184.684 Q649.08 193.85 649.08 211.35 Q649.08 228.804 642.923 238.017 Q636.812 247.183 625.191 247.183 Q613.571 247.183 607.414 238.017 Q601.302 228.804 601.302 211.35 Q601.302 193.85 607.414 184.684 Q613.571 175.471 625.191 175.471 Z" fill="#000000" fill-rule="nonzero" fill-opacity="1" /><path clip-path="url(#clip130)" d="M255.501 913.798 L266.45 913.798 Q263.713 918.764 262.376 923.793 Q260.976 928.758 260.976 933.85 Q260.976 945.245 268.233 951.547 Q275.426 957.849 288.476 957.849 Q301.526 957.849 308.782 951.547 Q315.976 945.245 315.976 933.85 Q315.976 928.758 314.639 923.793 Q313.238 918.764 310.501 913.798 L321.323 913.798 Q323.615 918.7 324.76 923.984 Q325.906 929.204 325.906 935.124 Q325.906 951.229 315.785 960.714 Q305.663 970.199 288.476 970.199 Q271.034 970.199 261.04 960.65 Q251.045 951.038 251.045 934.36 Q251.045 928.949 252.191 923.793 Q253.273 918.636 255.501 913.798 Z" fill="#000000" fill-rule="nonzero" fill-opacity="1" /><path clip-path="url(#clip130)" d="M260.976 865.801 Q260.976 875.222 268.36 880.697 Q275.681 886.171 288.476 886.171 Q301.271 886.171 308.655 880.76 Q315.976 875.286 315.976 865.801 Q315.976 856.443 308.591 850.969 Q301.207 845.494 288.476 845.494 Q275.808 845.494 268.424 850.969 Q260.976 856.443 260.976 865.801 M251.045 865.801 Q251.045 850.523 260.976 841.802 Q270.906 833.081 288.476 833.081 Q305.982 833.081 315.976 841.802 Q325.906 850.523 325.906 865.801 Q325.906 881.142 315.976 889.863 Q305.982 898.521 288.476 898.521 Q270.906 898.521 260.976 889.863 Q251.045 881.142 251.045 865.801 Z" fill="#000000" fill-rule="nonzero" fill-opacity="1" /><path clip-path="url(#clip130)" d="M281.028 754.401 L324.06 754.401 L324.06 766.114 L281.41 766.114 Q271.288 766.114 266.259 770.061 Q261.231 774.008 261.231 781.901 Q261.231 791.386 267.278 796.86 Q273.325 802.335 283.765 802.335 L324.06 802.335 L324.06 814.112 L252.764 814.112 L252.764 802.335 L263.841 802.335 Q257.411 798.134 254.228 792.468 Q251.045 786.739 251.045 779.291 Q251.045 767.005 258.684 760.703 Q266.259 754.401 281.028 754.401 Z" fill="#000000" fill-rule="nonzero" fill-opacity="1" /><path clip-path="url(#clip130)" d="M255.501 679.731 L266.45 679.731 Q263.713 684.697 262.376 689.726 Q260.976 694.691 260.976 699.783 Q260.976 711.178 268.233 717.48 Q275.426 723.782 288.476 723.782 Q301.526 723.782 308.782 717.48 Q315.976 711.178 315.976 699.783 Q315.976 694.691 314.639 689.726 Q313.238 684.697 310.501 679.731 L321.323 679.731 Q323.615 684.633 324.76 689.917 Q325.906 695.136 325.906 701.057 Q325.906 717.162 315.785 726.647 Q305.663 736.132 288.476 736.132 Q271.034 736.132 261.04 726.583 Q251.045 716.971 251.045 700.293 Q251.045 694.882 252.191 689.726 Q253.273 684.569 255.501 679.731 Z" fill="#000000" fill-rule="nonzero" fill-opacity="1" /><path clip-path="url(#clip130)" d="M307.891 657.706 L307.891 644.274 L324.06 644.274 L324.06 657.706 L307.891 657.706 Z" fill="#000000" fill-rule="nonzero" fill-opacity="1" /><path clip-path="url(#clip130)" d="M236.341 504.802 L249.9 504.802 Q243.852 511.295 240.86 518.679 Q237.868 526 237.868 534.275 Q237.868 550.571 247.863 559.229 Q257.793 567.886 276.636 567.886 Q295.414 567.886 305.409 559.229 Q315.339 550.571 315.339 534.275 Q315.339 526 312.347 518.679 Q309.355 511.295 303.308 504.802 L316.74 504.802 Q321.323 511.549 323.615 519.125 Q325.906 526.636 325.906 535.039 Q325.906 556.619 312.729 569.032 Q299.488 581.445 276.636 581.445 Q253.719 581.445 240.542 569.032 Q227.301 556.619 227.301 535.039 Q227.301 526.509 229.593 518.997 Q231.821 511.422 236.341 504.802 Z" fill="#000000" fill-rule="nonzero" fill-opacity="1" /><path clip-path="url(#clip130)" d="M229.02 484.941 L229.02 465.78 L293.696 441.527 L229.02 417.146 L229.02 397.985 L324.06 397.985 L324.06 410.526 L240.606 410.526 L305.791 435.034 L305.791 447.956 L240.606 472.464 L324.06 472.464 L324.06 484.941 L229.02 484.941 Z" fill="#000000" fill-rule="nonzero" fill-opacity="1" /><polyline clip-path="url(#clip132)" style="stroke:#008000; stroke-linecap:round; stroke-linejoin:round; stroke-width:8; stroke-opacity:1; fill:none" points="730.941,1136 848.534,1123.41 966.127,1117.08 1083.72,1115.48 1201.31,1078.44 1318.91,1083.97 1436.5,1058.47 1554.09,1028.33 1671.69,1095.35 1789.28,1031.54 1906.87,1003.8 2024.46,1065.05 2142.06,1045.73 2259.65,1005 "/>
<circle clip-path="url(#clip132)" cx="730.941" cy="1136" r="14.4" fill="#008000" fill-rule="evenodd" fill-opacity="1" stroke="#000000" stroke-opacity="1" stroke-width="6.4"/>
<circle clip-path="url(#clip132)" cx="848.534" cy="1123.41" r="14.4" fill="#008000" fill-rule="evenodd" fill-opacity="1" stroke="#000000" stroke-opacity="1" stroke-width="6.4"/>
<circle clip-path="url(#clip132)" cx="966.127" cy="1117.08" r="14.4" fill="#008000" fill-rule="evenodd" fill-opacity="1" stroke="#000000" stroke-opacity="1" stroke-width="6.4"/>
<circle clip-path="url(#clip132)" cx="1083.72" cy="1115.48" r="14.4" fill="#008000" fill-rule="evenodd" fill-opacity="1" stroke="#000000" stroke-opacity="1" stroke-width="6.4"/>
<circle clip-path="url(#clip132)" cx="1201.31" cy="1078.44" r="14.4" fill="#008000" fill-rule="evenodd" fill-opacity="1" stroke="#000000" stroke-opacity="1" stroke-width="6.4"/>
<circle clip-path="url(#clip132)" cx="1318.91" cy="1083.97" r="14.4" fill="#008000" fill-rule="evenodd" fill-opacity="1" stroke="#000000" stroke-opacity="1" stroke-width="6.4"/>
<circle clip-path="url(#clip132)" cx="1436.5" cy="1058.47" r="14.4" fill="#008000" fill-rule="evenodd" fill-opacity="1" stroke="#000000" stroke-opacity="1" stroke-width="6.4"/>
<circle clip-path="url(#clip132)" cx="1554.09" cy="1028.33" r="14.4" fill="#008000" fill-rule="evenodd" fill-opacity="1" stroke="#000000" stroke-opacity="1" stroke-width="6.4"/>
<circle clip-path="url(#clip132)" cx="1671.69" cy="1095.35" r="14.4" fill="#008000" fill-rule="evenodd" fill-opacity="1" stroke="#000000" stroke-opacity="1" stroke-width="6.4"/>
<circle clip-path="url(#clip132)" cx="1789.28" cy="1031.54" r="14.4" fill="#008000" fill-rule="evenodd" fill-opacity="1" stroke="#000000" stroke-opacity="1" stroke-width="6.4"/>
<circle clip-path="url(#clip132)" cx="1906.87" cy="1003.8" r="14.4" fill="#008000" fill-rule="evenodd" fill-opacity="1" stroke="#000000" stroke-opacity="1" stroke-width="6.4"/>
<circle clip-path="url(#clip132)" cx="2024.46" cy="1065.05" r="14.4" fill="#008000" fill-rule="evenodd" fill-opacity="1" stroke="#000000" stroke-opacity="1" stroke-width="6.4"/>
<circle clip-path="url(#clip132)" cx="2142.06" cy="1045.73" r="14.4" fill="#008000" fill-rule="evenodd" fill-opacity="1" stroke="#000000" stroke-opacity="1" stroke-width="6.4"/>
<circle clip-path="url(#clip132)" cx="2259.65" cy="1005" r="14.4" fill="#008000" fill-rule="evenodd" fill-opacity="1" stroke="#000000" stroke-opacity="1" stroke-width="6.4"/>
<polyline clip-path="url(#clip132)" style="stroke:#00008b; stroke-linecap:round; stroke-linejoin:round; stroke-width:8; stroke-opacity:1; fill:none" points="730.941,1159.48 848.534,836.396 966.127,672.506 1083.72,566.345 1201.31,480.49 1318.91,384.295 1436.5,338.537 1554.09,308.003 1671.69,272.341 1789.28,277.532 1906.87,276.531 2024.46,259.898 2142.06,307.928 2259.65,308.473 "/>
<path clip-path="url(#clip132)" d="M730.941 1240.32 L848.534 919.544 L966.127 780.087 L1083.72 686.036 L1201.31 616.752 L1318.91 534.15 L1436.5 494.488 L1554.09 475.864 L1671.69 428.45 L1789.28 435.122 L1906.87 434.117 L2024.46 419.535 L2142.06 434.128 L2259.65 446.776 L2259.65 177.623 L2142.06 196.217 L2024.46 139.404 L1906.87 127.862 L1789.28 133.165 L1671.69 140.749 L1554.09 173.124 L1436.5 220.142 L1318.91 264.865 L1201.31 369 L1083.72 464.552 L966.127 570.359 L848.534 736.81 L730.941 1066.61  Z" fill="#0000ff" fill-rule="evenodd" fill-opacity="0.1"/>
<polyline clip-path="url(#clip132)" style="stroke:#0000ff; stroke-linecap:round; stroke-linejoin:round; stroke-width:0; stroke-opacity:0.1; fill:none" points="730.941,1240.32 848.534,919.544 966.127,780.087 1083.72,686.036 1201.31,616.752 1318.91,534.15 1436.5,494.488 1554.09,475.864 1671.69,428.45 1789.28,435.122 1906.87,434.117 2024.46,419.535 2142.06,434.128 2259.65,446.776 "/>
</svg>
