<?xml version="1.0" encoding="utf-8"?>
<svg xmlns="http://www.w3.org/2000/svg" xmlns:xlink="http://www.w3.org/1999/xlink" width="600" height="400" viewBox="0 0 2400 1600">
<defs>
  <clipPath id="clip690">
    <rect x="0" y="0" width="2400" height="1600"/>
  </clipPath>
</defs>
<path clip-path="url(#clip690)" d="M0 1600 L2400 1600 L2400 0 L0 0  Z" fill="#ffffff" fill-rule="evenodd" fill-opacity="1"/>
<defs>
  <clipPath id="clip691">
    <rect x="480" y="0" width="1681" height="1600"/>
  </clipPath>
</defs>
<path clip-path="url(#clip690)" d="M731.021 1082.2 L2305.51 1082.2 L2305.51 94.4882 L731.021 94.4882  Z" fill="#ffffff" fill-rule="evenodd" fill-opacity="1"/>
<defs>
  <clipPath id="clip692">
    <rect x="731" y="94" width="1575" height="989"/>
  </clipPath>
</defs>
<polyline clip-path="url(#clip692)" style="stroke:#000000; stroke-linecap:round; stroke-linejoin:round; stroke-width:4; stroke-opacity:0.1; fill:none" points="775.583,1082.2 775.583,94.4882 "/>
<polyline clip-path="url(#clip692)" style="stroke:#000000; stroke-linecap:round; stroke-linejoin:round; stroke-width:4; stroke-opacity:0.1; fill:none" points="1270.71,1082.2 1270.71,94.4882 "/>
<polyline clip-path="url(#clip692)" style="stroke:#000000; stroke-linecap:round; stroke-linejoin:round; stroke-width:4; stroke-opacity:0.1; fill:none" points="1765.83,1082.2 1765.83,94.4882 "/>
<polyline clip-path="url(#clip692)" style="stroke:#000000; stroke-linecap:round; stroke-linejoin:round; stroke-width:4; stroke-opacity:0.1; fill:none" points="2260.95,1082.2 2260.95,94.4882 "/>
<polyline clip-path="url(#clip690)" style="stroke:#000000; stroke-linecap:round; stroke-linejoin:round; stroke-width:8; stroke-opacity:1; fill:none" points="731.021,1082.2 2305.51,1082.2 "/>
<polyline clip-path="url(#clip690)" style="stroke:#000000; stroke-linecap:round; stroke-linejoin:round; stroke-width:8; stroke-opacity:1; fill:none" points="775.583,1082.2 775.583,1063.3 "/>
<polyline clip-path="url(#clip690)" style="stroke:#000000; stroke-linecap:round; stroke-linejoin:round; stroke-width:8; stroke-opacity:1; fill:none" points="1270.71,1082.2 1270.71,1063.3 "/>
<polyline clip-path="url(#clip690)" style="stroke:#000000; stroke-linecap:round; stroke-linejoin:round; stroke-width:8; stroke-opacity:1; fill:none" points="1765.83,1082.2 1765.83,1063.3 "/>
<polyline clip-path="url(#clip690)" style="stroke:#000000; stroke-linecap:round; stroke-linejoin:round; stroke-width:8; stroke-opacity:1; fill:none" points="2260.95,1082.2 2260.95,1063.3 "/>
<path clip-path="url(#clip690)" d="M775.583 1124.84 Q768.36 1124.84 764.703 1131.97 Q761.092 1139.05 761.092 1153.31 Q761.092 1167.52 764.703 1174.65 Q768.36 1181.73 775.583 1181.73 Q782.851 1181.73 786.462 1174.65 Q790.119 1167.52 790.119 1153.31 Q790.119 1139.05 786.462 1131.97 Q782.851 1124.84 775.583 1124.84 M775.583 1117.43 Q787.203 1117.43 793.314 1126.64 Q799.471 1135.81 799.471 1153.31 Q799.471 1170.76 793.314 1179.98 Q787.203 1189.14 775.583 1189.14 Q763.962 1189.14 757.805 1179.98 Q751.694 1170.76 751.694 1153.31 Q751.694 1135.81 757.805 1126.64 Q763.962 1117.43 775.583 1117.43 Z" fill="#000000" fill-rule="nonzero" fill-opacity="1" /><path clip-path="url(#clip690)" d="M1251.47 1179.93 L1266.75 1179.93 L1266.75 1127.2 L1250.13 1130.53 L1250.13 1122.01 L1266.65 1118.68 L1276.01 1118.68 L1276.01 1179.93 L1291.28 1179.93 L1291.28 1187.8 L1251.47 1187.8 L1251.47 1179.93 Z" fill="#000000" fill-rule="nonzero" fill-opacity="1" /><path clip-path="url(#clip690)" d="M1755.13 1179.93 L1787.77 1179.93 L1787.77 1187.8 L1743.88 1187.8 L1743.88 1179.93 Q1749.21 1174.42 1758.37 1165.16 Q1767.59 1155.86 1769.95 1153.17 Q1774.44 1148.12 1776.2 1144.65 Q1778 1141.13 1778 1137.75 Q1778 1132.24 1774.12 1128.77 Q1770.27 1125.3 1764.07 1125.3 Q1759.67 1125.3 1754.76 1126.83 Q1749.9 1128.36 1744.35 1131.46 L1744.35 1122.01 Q1749.99 1119.74 1754.9 1118.59 Q1759.81 1117.43 1763.88 1117.43 Q1774.62 1117.43 1781.01 1122.8 Q1787.4 1128.17 1787.4 1137.15 Q1787.4 1141.41 1785.78 1145.25 Q1784.21 1149.05 1779.99 1154.24 Q1778.84 1155.58 1772.63 1162.01 Q1766.43 1168.4 1755.13 1179.93 Z" fill="#000000" fill-rule="nonzero" fill-opacity="1" /><path clip-path="url(#clip690)" d="M2269.45 1150.53 Q2276.16 1151.97 2279.91 1156.5 Q2283.71 1161.04 2283.71 1167.71 Q2283.71 1177.94 2276.67 1183.54 Q2269.63 1189.14 2256.67 1189.14 Q2252.32 1189.14 2247.69 1188.26 Q2243.1 1187.43 2238.2 1185.72 L2238.2 1176.69 Q2242.09 1178.96 2246.71 1180.11 Q2251.34 1181.27 2256.39 1181.27 Q2265.19 1181.27 2269.77 1177.8 Q2274.4 1174.33 2274.4 1167.71 Q2274.4 1161.6 2270.09 1158.17 Q2265.83 1154.7 2258.2 1154.7 L2250.14 1154.7 L2250.14 1147.01 L2258.57 1147.01 Q2265.46 1147.01 2269.12 1144.28 Q2272.78 1141.5 2272.78 1136.32 Q2272.78 1130.99 2268.98 1128.17 Q2265.23 1125.3 2258.2 1125.3 Q2254.35 1125.3 2249.96 1126.13 Q2245.56 1126.97 2240.28 1128.73 L2240.28 1120.39 Q2245.6 1118.91 2250.23 1118.17 Q2254.91 1117.43 2259.03 1117.43 Q2269.68 1117.43 2275.88 1122.29 Q2282.08 1127.11 2282.08 1135.35 Q2282.08 1141.09 2278.8 1145.07 Q2275.51 1149 2269.45 1150.53 Z" fill="#000000" fill-rule="nonzero" fill-opacity="1" /><path clip-path="url(#clip690)" d="M1458.68 1278.32 Q1463.08 1270.42 1469.19 1266.67 Q1475.3 1262.91 1483.57 1262.91 Q1494.71 1262.91 1500.76 1270.74 Q1506.81 1278.51 1506.81 1292.9 L1506.81 1335.93 L1495.03 1335.93 L1495.03 1293.28 Q1495.03 1283.03 1491.4 1278.06 Q1487.77 1273.1 1480.33 1273.1 Q1471.22 1273.1 1465.94 1279.15 Q1460.66 1285.19 1460.66 1295.63 L1460.66 1335.93 L1448.88 1335.93 L1448.88 1293.28 Q1448.88 1282.97 1445.25 1278.06 Q1441.62 1273.1 1434.05 1273.1 Q1425.07 1273.1 1419.79 1279.21 Q1414.51 1285.26 1414.51 1295.63 L1414.51 1335.93 L1402.73 1335.93 L1402.73 1264.63 L1414.51 1264.63 L1414.51 1275.71 Q1418.52 1269.15 1424.12 1266.03 Q1429.72 1262.91 1437.42 1262.91 Q1445.19 1262.91 1450.6 1266.86 Q1456.07 1270.81 1458.68 1278.32 Z" fill="#000000" fill-rule="nonzero" fill-opacity="1" /><path clip-path="url(#clip690)" d="M1585.68 1278.32 Q1590.07 1270.42 1596.18 1266.67 Q1602.29 1262.91 1610.57 1262.91 Q1621.71 1262.91 1627.76 1270.74 Q1633.8 1278.51 1633.8 1292.9 L1633.8 1335.93 L1622.03 1335.93 L1622.03 1293.28 Q1622.03 1283.03 1618.4 1278.06 Q1614.77 1273.1 1607.32 1273.1 Q1598.22 1273.1 1592.94 1279.15 Q1587.65 1285.19 1587.65 1295.63 L1587.65 1335.93 L1575.88 1335.93 L1575.88 1293.28 Q1575.88 1282.97 1572.25 1278.06 Q1568.62 1273.1 1561.04 1273.1 Q1552.07 1273.1 1546.79 1279.21 Q1541.5 1285.26 1541.5 1295.63 L1541.5 1335.93 L1529.72 1335.93 L1529.72 1264.63 L1541.5 1264.63 L1541.5 1275.71 Q1545.51 1269.15 1551.11 1266.03 Q1556.72 1262.91 1564.42 1262.91 Q1572.18 1262.91 1577.6 1266.86 Q1583.07 1270.81 1585.68 1278.32 Z" fill="#000000" fill-rule="nonzero" fill-opacity="1" /><polyline clip-path="url(#clip692)" style="stroke:#000000; stroke-linecap:round; stroke-linejoin:round; stroke-width:4; stroke-opacity:0.1; fill:none" points="731.021,984.406 2305.51,984.406 "/>
<polyline clip-path="url(#clip692)" style="stroke:#000000; stroke-linecap:round; stroke-linejoin:round; stroke-width:4; stroke-opacity:0.1; fill:none" points="731.021,744.797 2305.51,744.797 "/>
<polyline clip-path="url(#clip692)" style="stroke:#000000; stroke-linecap:round; stroke-linejoin:round; stroke-width:4; stroke-opacity:0.1; fill:none" points="731.021,505.188 2305.51,505.188 "/>
<polyline clip-path="url(#clip692)" style="stroke:#000000; stroke-linecap:round; stroke-linejoin:round; stroke-width:4; stroke-opacity:0.1; fill:none" points="731.021,265.579 2305.51,265.579 "/>
<polyline clip-path="url(#clip690)" style="stroke:#000000; stroke-linecap:round; stroke-linejoin:round; stroke-width:8; stroke-opacity:1; fill:none" points="731.021,1082.2 731.021,94.4882 "/>
<polyline clip-path="url(#clip690)" style="stroke:#000000; stroke-linecap:round; stroke-linejoin:round; stroke-width:8; stroke-opacity:1; fill:none" points="731.021,984.406 749.919,984.406 "/>
<polyline clip-path="url(#clip690)" style="stroke:#000000; stroke-linecap:round; stroke-linejoin:round; stroke-width:8; stroke-opacity:1; fill:none" points="731.021,744.797 749.919,744.797 "/>
<polyline clip-path="url(#clip690)" style="stroke:#000000; stroke-linecap:round; stroke-linejoin:round; stroke-width:8; stroke-opacity:1; fill:none" points="731.021,505.188 749.919,505.188 "/>
<polyline clip-path="url(#clip690)" style="stroke:#000000; stroke-linecap:round; stroke-linejoin:round; stroke-width:8; stroke-opacity:1; fill:none" points="731.021,265.579 749.919,265.579 "/>
<path clip-path="url(#clip690)" d="M590.902 949.846 L627.614 949.846 L627.614 957.716 L599.466 957.716 L599.466 974.66 Q601.503 973.966 603.54 973.642 Q605.578 973.272 607.615 973.272 Q619.189 973.272 625.948 979.614 Q632.707 985.957 632.707 996.79 Q632.707 1007.95 625.763 1014.15 Q618.818 1020.31 606.179 1020.31 Q601.828 1020.31 597.291 1019.57 Q592.8 1018.83 587.985 1017.35 L587.985 1007.95 Q592.152 1010.22 596.596 1011.33 Q601.041 1012.44 605.994 1012.44 Q614.003 1012.44 618.679 1008.23 Q623.355 1004.01 623.355 996.79 Q623.355 989.568 618.679 985.355 Q614.003 981.142 605.994 981.142 Q602.244 981.142 598.494 981.975 Q594.791 982.809 590.902 984.568 L590.902 949.846 Z" fill="#000000" fill-rule="nonzero" fill-opacity="1" /><path clip-path="url(#clip690)" d="M671.133 956.003 Q663.911 956.003 660.253 963.133 Q656.642 970.216 656.642 984.475 Q656.642 998.688 660.253 1005.82 Q663.911 1012.9 671.133 1012.9 Q678.401 1012.9 682.012 1005.82 Q685.67 998.688 685.67 984.475 Q685.67 970.216 682.012 963.133 Q678.401 956.003 671.133 956.003 M671.133 948.596 Q682.753 948.596 688.864 957.809 Q695.021 966.975 695.021 984.475 Q695.021 1001.93 688.864 1011.14 Q682.753 1020.31 671.133 1020.31 Q659.512 1020.31 653.355 1011.14 Q647.244 1001.93 647.244 984.475 Q647.244 966.975 653.355 957.809 Q659.512 948.596 671.133 948.596 Z" fill="#000000" fill-rule="nonzero" fill-opacity="1" /><path clip-path="url(#clip690)" d="M532.106 771.487 L547.383 771.487 L547.383 718.755 L530.763 722.089 L530.763 713.57 L547.291 710.237 L556.643 710.237 L556.643 771.487 L571.92 771.487 L571.92 779.357 L532.106 779.357 L532.106 771.487 Z" fill="#000000" fill-rule="nonzero" fill-opacity="1" /><path clip-path="url(#clip690)" d="M610.809 716.394 Q603.587 716.394 599.929 723.524 Q596.318 730.607 596.318 744.866 Q596.318 759.079 599.929 766.209 Q603.587 773.292 610.809 773.292 Q618.077 773.292 621.689 766.209 Q625.346 759.079 625.346 744.866 Q625.346 730.607 621.689 723.524 Q618.077 716.394 610.809 716.394 M610.809 708.987 Q622.429 708.987 628.54 718.2 Q634.698 727.366 634.698 744.866 Q634.698 762.32 628.54 771.533 Q622.429 780.7 610.809 780.7 Q599.189 780.7 593.031 771.533 Q586.92 762.32 586.92 744.866 Q586.92 727.366 593.031 718.2 Q599.189 708.987 610.809 708.987 Z" fill="#000000" fill-rule="nonzero" fill-opacity="1" /><path clip-path="url(#clip690)" d="M671.133 716.394 Q663.911 716.394 660.253 723.524 Q656.642 730.607 656.642 744.866 Q656.642 759.079 660.253 766.209 Q663.911 773.292 671.133 773.292 Q678.401 773.292 682.012 766.209 Q685.67 759.079 685.67 744.866 Q685.67 730.607 682.012 723.524 Q678.401 716.394 671.133 716.394 M671.133 708.987 Q682.753 708.987 688.864 718.2 Q695.021 727.366 695.021 744.866 Q695.021 762.32 688.864 771.533 Q682.753 780.7 671.133 780.7 Q659.512 780.7 653.355 771.533 Q647.244 762.32 647.244 744.866 Q647.244 727.366 653.355 718.2 Q659.512 708.987 671.133 708.987 Z" fill="#000000" fill-rule="nonzero" fill-opacity="1" /><path clip-path="url(#clip690)" d="M532.106 531.878 L547.383 531.878 L547.383 479.147 L530.763 482.48 L530.763 473.961 L547.291 470.628 L556.643 470.628 L556.643 531.878 L571.92 531.878 L571.92 539.748 L532.106 539.748 L532.106 531.878 Z" fill="#000000" fill-rule="nonzero" fill-opacity="1" /><path clip-path="url(#clip690)" d="M590.902 470.628 L627.614 470.628 L627.614 478.498 L599.466 478.498 L599.466 495.443 Q601.503 494.748 603.54 494.424 Q605.578 494.054 607.615 494.054 Q619.189 494.054 625.948 500.396 Q632.707 506.739 632.707 517.572 Q632.707 528.73 625.763 534.933 Q618.818 541.091 606.179 541.091 Q601.828 541.091 597.291 540.35 Q592.8 539.609 587.985 538.128 L587.985 528.73 Q592.152 530.998 596.596 532.109 Q601.041 533.22 605.994 533.22 Q614.003 533.22 618.679 529.007 Q623.355 524.795 623.355 517.572 Q623.355 510.35 618.679 506.137 Q614.003 501.924 605.994 501.924 Q602.244 501.924 598.494 502.758 Q594.791 503.591 590.902 505.35 L590.902 470.628 Z" fill="#000000" fill-rule="nonzero" fill-opacity="1" /><path clip-path="url(#clip690)" d="M671.133 476.785 Q663.911 476.785 660.253 483.915 Q656.642 490.998 656.642 505.258 Q656.642 519.47 660.253 526.6 Q663.911 533.683 671.133 533.683 Q678.401 533.683 682.012 526.6 Q685.67 519.47 685.67 505.258 Q685.67 490.998 682.012 483.915 Q678.401 476.785 671.133 476.785 M671.133 469.378 Q682.753 469.378 688.864 478.591 Q695.021 487.758 695.021 505.258 Q695.021 522.711 688.864 531.924 Q682.753 541.091 671.133 541.091 Q659.512 541.091 653.355 531.924 Q647.244 522.711 647.244 505.258 Q647.244 487.758 653.355 478.591 Q659.512 469.378 671.133 469.378 Z" fill="#000000" fill-rule="nonzero" fill-opacity="1" /><path clip-path="url(#clip690)" d="M538.541 292.269 L571.18 292.269 L571.18 300.139 L527.291 300.139 L527.291 292.269 Q532.615 286.76 541.782 277.501 Q550.994 268.195 553.356 265.51 Q557.846 260.464 559.606 256.991 Q561.411 253.473 561.411 250.093 Q561.411 244.584 557.522 241.112 Q553.68 237.64 547.476 237.64 Q543.078 237.64 538.17 239.167 Q533.309 240.695 527.754 243.797 L527.754 234.353 Q533.402 232.084 538.309 230.927 Q543.217 229.769 547.291 229.769 Q558.031 229.769 564.42 235.14 Q570.809 240.51 570.809 249.491 Q570.809 253.751 569.189 257.593 Q567.615 261.39 563.402 266.575 Q562.244 267.917 556.041 274.352 Q549.837 280.741 538.541 292.269 Z" fill="#000000" fill-rule="nonzero" fill-opacity="1" /><path clip-path="url(#clip690)" d="M610.809 237.177 Q603.587 237.177 599.929 244.306 Q596.318 251.39 596.318 265.649 Q596.318 279.862 599.929 286.991 Q603.587 294.075 610.809 294.075 Q618.077 294.075 621.689 286.991 Q625.346 279.862 625.346 265.649 Q625.346 251.39 621.689 244.306 Q618.077 237.177 610.809 237.177 M610.809 229.769 Q622.429 229.769 628.54 238.982 Q634.698 248.149 634.698 265.649 Q634.698 283.102 628.54 292.315 Q622.429 301.482 610.809 301.482 Q599.189 301.482 593.031 292.315 Q586.92 283.102 586.92 265.649 Q586.92 248.149 593.031 238.982 Q599.189 229.769 610.809 229.769 Z" fill="#000000" fill-rule="nonzero" fill-opacity="1" /><path clip-path="url(#clip690)" d="M671.133 237.177 Q663.911 237.177 660.253 244.306 Q656.642 251.39 656.642 265.649 Q656.642 279.862 660.253 286.991 Q663.911 294.075 671.133 294.075 Q678.401 294.075 682.012 286.991 Q685.67 279.862 685.67 265.649 Q685.67 251.39 682.012 244.306 Q678.401 237.177 671.133 237.177 M671.133 229.769 Q682.753 229.769 688.864 238.982 Q695.021 248.149 695.021 265.649 Q695.021 283.102 688.864 292.315 Q682.753 301.482 671.133 301.482 Q659.512 301.482 653.355 292.315 Q647.244 283.102 647.244 265.649 Q647.244 248.149 653.355 238.982 Q659.512 229.769 671.133 229.769 Z" fill="#000000" fill-rule="nonzero" fill-opacity="1" /><path clip-path="url(#clip690)" d="M489.897 806.497 L391.483 806.497 L391.483 794.784 L435.788 794.784 Q445.019 794.784 449.729 790.391 Q454.44 785.999 454.44 777.405 Q454.44 767.984 449.093 763.274 Q443.745 758.499 433.051 758.499 L391.483 758.499 L391.483 746.786 L446.355 746.786 Q450.175 746.786 452.021 745.704 Q453.803 744.558 453.803 742.203 Q453.803 741.63 453.485 740.612 Q453.103 739.593 452.339 737.811 L461.76 737.811 Q463.224 740.421 463.925 742.776 Q464.625 745.068 464.625 747.296 Q464.625 751.688 462.142 754.298 Q459.66 756.908 454.567 757.863 Q459.596 761.046 462.142 765.693 Q464.625 770.276 464.625 776.514 Q464.625 783.007 462.142 787.591 Q459.66 792.11 454.694 794.784 L489.897 794.784 L489.897 806.497 Z" fill="#000000" fill-rule="nonzero" fill-opacity="1" /><path clip-path="url(#clip690)" d="M426.303 675.427 Q413.572 675.427 406.57 680.71 Q399.567 685.93 399.567 695.415 Q399.567 704.836 406.57 710.12 Q413.572 715.34 426.303 715.34 Q438.971 715.34 445.973 710.12 Q452.976 704.836 452.976 695.415 Q452.976 685.93 445.973 680.71 Q438.971 675.427 426.303 675.427 M453.931 663.714 Q472.136 663.714 480.985 671.798 Q489.897 679.883 489.897 696.561 Q489.897 702.736 488.942 708.21 Q488.051 713.685 486.141 718.841 L474.746 718.841 Q477.547 713.685 478.884 708.656 Q480.221 703.627 480.221 698.407 Q480.221 686.885 474.174 681.156 Q468.19 675.427 456.031 675.427 L450.238 675.427 Q456.541 679.055 459.66 684.721 Q462.779 690.386 462.779 698.28 Q462.779 711.393 452.785 719.414 Q442.791 727.435 426.303 727.435 Q409.753 727.435 399.758 719.414 Q389.764 711.393 389.764 698.28 Q389.764 690.386 392.883 684.721 Q396.003 679.055 402.305 675.427 L391.483 675.427 L391.483 663.714 L453.931 663.714 Z" fill="#000000" fill-rule="nonzero" fill-opacity="1" /><path clip-path="url(#clip690)" d="M367.739 577.331 L367.739 566.51 L474.874 599.611 L474.874 610.433 L367.739 577.331 Z" fill="#000000" fill-rule="nonzero" fill-opacity="1" /><path clip-path="url(#clip690)" d="M489.897 513.992 L391.483 513.992 L391.483 502.28 L435.788 502.28 Q445.019 502.28 449.729 497.887 Q454.44 493.495 454.44 484.901 Q454.44 475.48 449.093 470.769 Q443.745 465.995 433.051 465.995 L391.483 465.995 L391.483 454.282 L446.355 454.282 Q450.175 454.282 452.021 453.2 Q453.803 452.054 453.803 449.699 Q453.803 449.126 453.485 448.107 Q453.103 447.089 452.339 445.307 L461.76 445.307 Q463.224 447.916 463.925 450.272 Q464.625 452.563 464.625 454.791 Q464.625 459.184 462.142 461.794 Q459.66 464.404 454.567 465.358 Q459.596 468.541 462.142 473.188 Q464.625 477.772 464.625 484.01 Q464.625 490.503 462.142 495.086 Q459.66 499.606 454.694 502.28 L489.897 502.28 L489.897 513.992 Z" fill="#000000" fill-rule="nonzero" fill-opacity="1" /><path clip-path="url(#clip690)" d="M367.739 429.329 L367.739 416.47 L451.957 416.47 L451.957 370.191 L462.779 370.191 L462.779 429.329 L367.739 429.329 Z" fill="#000000" fill-rule="nonzero" fill-opacity="1" /><polyline clip-path="url(#clip692)" style="stroke:#009af9; stroke-linecap:round; stroke-linejoin:round; stroke-width:8; stroke-opacity:1; fill:none" points="874.607,424.35 973.632,370.806 1072.66,315.28 1171.68,299.045 1270.71,302.163 1369.73,364.163 1468.75,447.9 1567.78,574.787 1666.8,660.615 1765.83,726.22 1864.85,791.825 1963.88,857.43 2062.9,923.036 2161.93,988.641 2260.95,1054.25 "/>
<polyline clip-path="url(#clip692)" style="stroke:#008000; stroke-linecap:round; stroke-linejoin:round; stroke-width:8; stroke-opacity:1; fill:none" points="775.583,476.895 940.458,389.407 1105.33,296.956 1270.71,302.163 1435.58,405.393 1600.46,616.66 1765.83,726.22 "/>
<circle clip-path="url(#clip692)" cx="775.583" cy="476.895" r="28.8" fill="#008000" fill-rule="evenodd" fill-opacity="1" stroke="#000000" stroke-opacity="1" stroke-width="6.4"/>
<circle clip-path="url(#clip692)" cx="940.458" cy="389.407" r="28.8" fill="#008000" fill-rule="evenodd" fill-opacity="1" stroke="#000000" stroke-opacity="1" stroke-width="6.4"/>
<circle clip-path="url(#clip692)" cx="1105.33" cy="296.956" r="28.8" fill="#008000" fill-rule="evenodd" fill-opacity="1" stroke="#000000" stroke-opacity="1" stroke-width="6.4"/>
<circle clip-path="url(#clip692)" cx="1270.71" cy="302.163" r="28.8" fill="#008000" fill-rule="evenodd" fill-opacity="1" stroke="#000000" stroke-opacity="1" stroke-width="6.4"/>
<circle clip-path="url(#clip692)" cx="1435.58" cy="405.393" r="28.8" fill="#008000" fill-rule="evenodd" fill-opacity="1" stroke="#000000" stroke-opacity="1" stroke-width="6.4"/>
<circle clip-path="url(#clip692)" cx="1600.46" cy="616.66" r="28.8" fill="#008000" fill-rule="evenodd" fill-opacity="1" stroke="#000000" stroke-opacity="1" stroke-width="6.4"/>
<circle clip-path="url(#clip692)" cx="1765.83" cy="726.22" r="28.8" fill="#008000" fill-rule="evenodd" fill-opacity="1" stroke="#000000" stroke-opacity="1" stroke-width="6.4"/>
<circle clip-path="url(#clip692)" cx="874.607" cy="122.442" r="28.8" fill="#008000" fill-rule="evenodd" fill-opacity="1" stroke="#000000" stroke-opacity="1" stroke-width="6.4"/>
<circle clip-path="url(#clip692)" cx="2260.95" cy="1038.53" r="28.8" fill="#008000" fill-rule="evenodd" fill-opacity="1" stroke="#000000" stroke-opacity="1" stroke-width="6.4"/>
<line clip-path="url(#clip692)" x1="874.607" y1="122.442" x2="874.607" y2="90.4423" style="stroke:#0000ff; stroke-width:6.4; stroke-opacity:1"/>
<line clip-path="url(#clip692)" x1="874.607" y1="122.442" x2="842.607" y2="122.442" style="stroke:#0000ff; stroke-width:6.4; stroke-opacity:1"/>
<line clip-path="url(#clip692)" x1="874.607" y1="122.442" x2="874.607" y2="154.442" style="stroke:#0000ff; stroke-width:6.4; stroke-opacity:1"/>
<line clip-path="url(#clip692)" x1="874.607" y1="122.442" x2="906.607" y2="122.442" style="stroke:#0000ff; stroke-width:6.4; stroke-opacity:1"/>
<line clip-path="url(#clip692)" x1="2260.95" y1="1038.53" x2="2260.95" y2="1006.53" style="stroke:#0000ff; stroke-width:6.4; stroke-opacity:1"/>
<line clip-path="url(#clip692)" x1="2260.95" y1="1038.53" x2="2228.95" y2="1038.53" style="stroke:#0000ff; stroke-width:6.4; stroke-opacity:1"/>
<line clip-path="url(#clip692)" x1="2260.95" y1="1038.53" x2="2260.95" y2="1070.53" style="stroke:#0000ff; stroke-width:6.4; stroke-opacity:1"/>
<line clip-path="url(#clip692)" x1="2260.95" y1="1038.53" x2="2292.95" y2="1038.53" style="stroke:#0000ff; stroke-width:6.4; stroke-opacity:1"/>
</svg>
