<?xml version="1.0" encoding="utf-8"?>
<svg xmlns="http://www.w3.org/2000/svg" xmlns:xlink="http://www.w3.org/1999/xlink" width="600" height="400" viewBox="0 0 2400 1600">
<defs>
  <clipPath id="clip840">
    <rect x="0" y="0" width="2400" height="1600"/>
  </clipPath>
</defs>
<path clip-path="url(#clip840)" d="M0 1600 L2400 1600 L2400 0 L0 0  Z" fill="#ffffff" fill-rule="evenodd" fill-opacity="1"/>
<defs>
  <clipPath id="clip841">
    <rect x="480" y="0" width="1681" height="1600"/>
  </clipPath>
</defs>
<path clip-path="url(#clip840)" d="M673.506 1273.7 L2305.51 1273.7 L2305.51 94.4882 L673.506 94.4882  Z" fill="#ffffff" fill-rule="evenodd" fill-opacity="1"/>
<defs>
  <clipPath id="clip842">
    <rect x="673" y="94" width="1633" height="1180"/>
  </clipPath>
</defs>
<polyline clip-path="url(#clip842)" style="stroke:#000000; stroke-linecap:round; stroke-linejoin:round; stroke-width:4; stroke-opacity:0.1; fill:none" points="719.695,1273.7 719.695,94.4882 "/>
<polyline clip-path="url(#clip842)" style="stroke:#000000; stroke-linecap:round; stroke-linejoin:round; stroke-width:4; stroke-opacity:0.1; fill:none" points="956.561,1273.7 956.561,94.4882 "/>
<polyline clip-path="url(#clip842)" style="stroke:#000000; stroke-linecap:round; stroke-linejoin:round; stroke-width:4; stroke-opacity:0.1; fill:none" points="1193.43,1273.7 1193.43,94.4882 "/>
<polyline clip-path="url(#clip842)" style="stroke:#000000; stroke-linecap:round; stroke-linejoin:round; stroke-width:4; stroke-opacity:0.1; fill:none" points="1430.29,1273.7 1430.29,94.4882 "/>
<polyline clip-path="url(#clip842)" style="stroke:#000000; stroke-linecap:round; stroke-linejoin:round; stroke-width:4; stroke-opacity:0.1; fill:none" points="1667.16,1273.7 1667.16,94.4882 "/>
<polyline clip-path="url(#clip842)" style="stroke:#000000; stroke-linecap:round; stroke-linejoin:round; stroke-width:4; stroke-opacity:0.1; fill:none" points="1904.02,1273.7 1904.02,94.4882 "/>
<polyline clip-path="url(#clip842)" style="stroke:#000000; stroke-linecap:round; stroke-linejoin:round; stroke-width:4; stroke-opacity:0.1; fill:none" points="2140.89,1273.7 2140.89,94.4882 "/>
<polyline clip-path="url(#clip840)" style="stroke:#000000; stroke-linecap:round; stroke-linejoin:round; stroke-width:8; stroke-opacity:1; fill:none" points="673.506,1273.7 2305.51,1273.7 "/>
<polyline clip-path="url(#clip840)" style="stroke:#000000; stroke-linecap:round; stroke-linejoin:round; stroke-width:8; stroke-opacity:1; fill:none" points="719.695,1273.7 719.695,1254.8 "/>
<polyline clip-path="url(#clip840)" style="stroke:#000000; stroke-linecap:round; stroke-linejoin:round; stroke-width:8; stroke-opacity:1; fill:none" points="956.561,1273.7 956.561,1254.8 "/>
<polyline clip-path="url(#clip840)" style="stroke:#000000; stroke-linecap:round; stroke-linejoin:round; stroke-width:8; stroke-opacity:1; fill:none" points="1193.43,1273.7 1193.43,1254.8 "/>
<polyline clip-path="url(#clip840)" style="stroke:#000000; stroke-linecap:round; stroke-linejoin:round; stroke-width:8; stroke-opacity:1; fill:none" points="1430.29,1273.7 1430.29,1254.8 "/>
<polyline clip-path="url(#clip840)" style="stroke:#000000; stroke-linecap:round; stroke-linejoin:round; stroke-width:8; stroke-opacity:1; fill:none" points="1667.16,1273.7 1667.16,1254.8 "/>
<polyline clip-path="url(#clip840)" style="stroke:#000000; stroke-linecap:round; stroke-linejoin:round; stroke-width:8; stroke-opacity:1; fill:none" points="1904.02,1273.7 1904.02,1254.8 "/>
<polyline clip-path="url(#clip840)" style="stroke:#000000; stroke-linecap:round; stroke-linejoin:round; stroke-width:8; stroke-opacity:1; fill:none" points="2140.89,1273.7 2140.89,1254.8 "/>
<path clip-path="url(#clip840)" d="M674.464 1316.33 Q667.241 1316.33 663.584 1323.46 Q659.973 1330.55 659.973 1344.81 Q659.973 1359.02 663.584 1366.15 Q667.241 1373.23 674.464 1373.23 Q681.732 1373.23 685.343 1366.15 Q689.001 1359.02 689.001 1344.81 Q689.001 1330.55 685.343 1323.46 Q681.732 1316.33 674.464 1316.33 M674.464 1308.93 Q686.084 1308.93 692.195 1318.14 Q698.352 1327.31 698.352 1344.81 Q698.352 1362.26 692.195 1371.47 Q686.084 1380.64 674.464 1380.64 Q662.843 1380.64 656.686 1371.47 Q650.575 1362.26 650.575 1344.81 Q650.575 1327.31 656.686 1318.14 Q662.843 1308.93 674.464 1308.93 Z" fill="#000000" fill-rule="nonzero" fill-opacity="1" /><path clip-path="url(#clip840)" d="M714.787 1367.54 L724.556 1367.54 L724.556 1379.3 L714.787 1379.3 L714.787 1367.54 Z" fill="#000000" fill-rule="nonzero" fill-opacity="1" /><path clip-path="url(#clip840)" d="M764.926 1316.33 Q757.704 1316.33 754.046 1323.46 Q750.435 1330.55 750.435 1344.81 Q750.435 1359.02 754.046 1366.15 Q757.704 1373.23 764.926 1373.23 Q772.195 1373.23 775.806 1366.15 Q779.463 1359.02 779.463 1344.81 Q779.463 1330.55 775.806 1323.46 Q772.195 1316.33 764.926 1316.33 M764.926 1308.93 Q776.546 1308.93 782.657 1318.14 Q788.815 1327.31 788.815 1344.81 Q788.815 1362.26 782.657 1371.47 Q776.546 1380.64 764.926 1380.64 Q753.306 1380.64 747.148 1371.47 Q741.037 1362.26 741.037 1344.81 Q741.037 1327.31 747.148 1318.14 Q753.306 1308.93 764.926 1308.93 Z" fill="#000000" fill-rule="nonzero" fill-opacity="1" /><path clip-path="url(#clip840)" d="M912.927 1316.33 Q905.704 1316.33 902.047 1323.46 Q898.436 1330.55 898.436 1344.81 Q898.436 1359.02 902.047 1366.15 Q905.704 1373.23 912.927 1373.23 Q920.195 1373.23 923.806 1366.15 Q927.464 1359.02 927.464 1344.81 Q927.464 1330.55 923.806 1323.46 Q920.195 1316.33 912.927 1316.33 M912.927 1308.93 Q924.547 1308.93 930.658 1318.14 Q936.815 1327.31 936.815 1344.81 Q936.815 1362.26 930.658 1371.47 Q924.547 1380.64 912.927 1380.64 Q901.306 1380.64 895.149 1371.47 Q889.038 1362.26 889.038 1344.81 Q889.038 1327.31 895.149 1318.14 Q901.306 1308.93 912.927 1308.93 Z" fill="#000000" fill-rule="nonzero" fill-opacity="1" /><path clip-path="url(#clip840)" d="M953.251 1367.54 L963.019 1367.54 L963.019 1379.3 L953.251 1379.3 L953.251 1367.54 Z" fill="#000000" fill-rule="nonzero" fill-opacity="1" /><path clip-path="url(#clip840)" d="M991.445 1371.43 L1024.08 1371.43 L1024.08 1379.3 L980.195 1379.3 L980.195 1371.43 Q985.519 1365.92 994.685 1356.66 Q1003.9 1347.35 1006.26 1344.67 Q1010.75 1339.62 1012.51 1336.15 Q1014.32 1332.63 1014.32 1329.25 Q1014.32 1323.74 1010.43 1320.27 Q1006.58 1316.8 1000.38 1316.8 Q995.982 1316.8 991.074 1318.32 Q986.213 1319.85 980.658 1322.95 L980.658 1313.51 Q986.306 1311.24 991.213 1310.08 Q996.121 1308.93 1000.19 1308.93 Q1010.94 1308.93 1017.32 1314.3 Q1023.71 1319.67 1023.71 1328.65 Q1023.71 1332.91 1022.09 1336.75 Q1020.52 1340.55 1016.31 1345.73 Q1015.15 1347.07 1008.94 1353.51 Q1002.74 1359.9 991.445 1371.43 Z" fill="#000000" fill-rule="nonzero" fill-opacity="1" /><path clip-path="url(#clip840)" d="M1147.71 1316.33 Q1140.49 1316.33 1136.83 1323.46 Q1133.22 1330.55 1133.22 1344.81 Q1133.22 1359.02 1136.83 1366.15 Q1140.49 1373.23 1147.71 1373.23 Q1154.98 1373.23 1158.59 1366.15 Q1162.25 1359.02 1162.25 1344.81 Q1162.25 1330.55 1158.59 1323.46 Q1154.98 1316.33 1147.71 1316.33 M1147.71 1308.93 Q1159.33 1308.93 1165.44 1318.14 Q1171.6 1327.31 1171.6 1344.81 Q1171.6 1362.26 1165.44 1371.47 Q1159.33 1380.64 1147.71 1380.64 Q1136.09 1380.64 1129.93 1371.47 Q1123.82 1362.26 1123.82 1344.81 Q1123.82 1327.31 1129.93 1318.14 Q1136.09 1308.93 1147.71 1308.93 Z" fill="#000000" fill-rule="nonzero" fill-opacity="1" /><path clip-path="url(#clip840)" d="M1188.03 1367.54 L1197.8 1367.54 L1197.8 1379.3 L1188.03 1379.3 L1188.03 1367.54 Z" fill="#000000" fill-rule="nonzero" fill-opacity="1" /><path clip-path="url(#clip840)" d="M1243.87 1318.32 L1220.26 1355.22 L1243.87 1355.22 L1243.87 1318.32 M1241.41 1310.18 L1253.17 1310.18 L1253.17 1355.22 L1263.03 1355.22 L1263.03 1363 L1253.17 1363 L1253.17 1379.3 L1243.87 1379.3 L1243.87 1363 L1212.66 1363 L1212.66 1353.97 L1241.41 1310.18 Z" fill="#000000" fill-rule="nonzero" fill-opacity="1" /><path clip-path="url(#clip840)" d="M1384.9 1316.33 Q1377.68 1316.33 1374.02 1323.46 Q1370.41 1330.55 1370.41 1344.81 Q1370.41 1359.02 1374.02 1366.15 Q1377.68 1373.23 1384.9 1373.23 Q1392.17 1373.23 1395.78 1366.15 Q1399.44 1359.02 1399.44 1344.81 Q1399.44 1330.55 1395.78 1323.46 Q1392.17 1316.33 1384.9 1316.33 M1384.9 1308.93 Q1396.52 1308.93 1402.63 1318.14 Q1408.79 1327.31 1408.79 1344.81 Q1408.79 1362.26 1402.63 1371.47 Q1396.52 1380.64 1384.9 1380.64 Q1373.28 1380.64 1367.12 1371.47 Q1361.01 1362.26 1361.01 1344.81 Q1361.01 1327.31 1367.12 1318.14 Q1373.28 1308.93 1384.9 1308.93 Z" fill="#000000" fill-rule="nonzero" fill-opacity="1" /><path clip-path="url(#clip840)" d="M1425.22 1367.54 L1434.99 1367.54 L1434.99 1379.3 L1425.22 1379.3 L1425.22 1367.54 Z" fill="#000000" fill-rule="nonzero" fill-opacity="1" /><path clip-path="url(#clip840)" d="M1476.52 1341.01 Q1470.22 1341.01 1466.52 1345.31 Q1462.86 1349.62 1462.86 1357.12 Q1462.86 1364.57 1466.52 1368.93 Q1470.22 1373.23 1476.52 1373.23 Q1482.82 1373.23 1486.47 1368.93 Q1490.18 1364.57 1490.18 1357.12 Q1490.18 1349.62 1486.47 1345.31 Q1482.82 1341.01 1476.52 1341.01 M1495.08 1311.7 L1495.08 1320.22 Q1491.57 1318.56 1487.95 1317.68 Q1484.39 1316.8 1480.87 1316.8 Q1471.61 1316.8 1466.7 1323.05 Q1461.84 1329.3 1461.15 1341.93 Q1463.88 1337.91 1468 1335.78 Q1472.12 1333.6 1477.07 1333.6 Q1487.49 1333.6 1493.51 1339.94 Q1499.57 1346.24 1499.57 1357.12 Q1499.57 1367.77 1493.28 1374.2 Q1486.98 1380.64 1476.52 1380.64 Q1464.53 1380.64 1458.19 1371.47 Q1451.84 1362.26 1451.84 1344.81 Q1451.84 1328.42 1459.62 1318.69 Q1467.4 1308.93 1480.5 1308.93 Q1484.02 1308.93 1487.58 1309.62 Q1491.19 1310.31 1495.08 1311.7 Z" fill="#000000" fill-rule="nonzero" fill-opacity="1" /><path clip-path="url(#clip840)" d="M1622.02 1316.33 Q1614.8 1316.33 1611.14 1323.46 Q1607.53 1330.55 1607.53 1344.81 Q1607.53 1359.02 1611.14 1366.15 Q1614.8 1373.23 1622.02 1373.23 Q1629.29 1373.23 1632.9 1366.15 Q1636.56 1359.02 1636.56 1344.81 Q1636.56 1330.55 1632.9 1323.46 Q1629.29 1316.33 1622.02 1316.33 M1622.02 1308.93 Q1633.64 1308.93 1639.75 1318.14 Q1645.91 1327.31 1645.91 1344.81 Q1645.91 1362.26 1639.75 1371.47 Q1633.64 1380.64 1622.02 1380.64 Q1610.4 1380.64 1604.24 1371.47 Q1598.13 1362.26 1598.13 1344.81 Q1598.13 1327.31 1604.24 1318.14 Q1610.4 1308.93 1622.02 1308.93 Z" fill="#000000" fill-rule="nonzero" fill-opacity="1" /><path clip-path="url(#clip840)" d="M1662.34 1367.54 L1672.11 1367.54 L1672.11 1379.3 L1662.34 1379.3 L1662.34 1367.54 Z" fill="#000000" fill-rule="nonzero" fill-opacity="1" /><path clip-path="url(#clip840)" d="M1712.48 1346.47 Q1705.82 1346.47 1701.97 1350.04 Q1698.18 1353.6 1698.18 1359.85 Q1698.18 1366.1 1701.97 1369.67 Q1705.82 1373.23 1712.48 1373.23 Q1719.15 1373.23 1722.99 1369.67 Q1726.83 1366.06 1726.83 1359.85 Q1726.83 1353.6 1722.99 1350.04 Q1719.2 1346.47 1712.48 1346.47 M1703.13 1342.49 Q1697.11 1341.01 1693.73 1336.89 Q1690.4 1332.77 1690.4 1326.84 Q1690.4 1318.56 1696.28 1313.74 Q1702.2 1308.93 1712.48 1308.93 Q1722.81 1308.93 1728.69 1313.74 Q1734.57 1318.56 1734.57 1326.84 Q1734.57 1332.77 1731.19 1336.89 Q1727.85 1341.01 1721.88 1342.49 Q1728.64 1344.06 1732.39 1348.65 Q1736.19 1353.23 1736.19 1359.85 Q1736.19 1369.9 1730.03 1375.27 Q1723.92 1380.64 1712.48 1380.64 Q1701.05 1380.64 1694.89 1375.27 Q1688.78 1369.9 1688.78 1359.85 Q1688.78 1353.23 1692.57 1348.65 Q1696.37 1344.06 1703.13 1342.49 M1699.7 1327.72 Q1699.7 1333.09 1703.04 1336.1 Q1706.42 1339.11 1712.48 1339.11 Q1718.5 1339.11 1721.88 1336.1 Q1725.31 1333.09 1725.31 1327.72 Q1725.31 1322.35 1721.88 1319.34 Q1718.5 1316.33 1712.48 1316.33 Q1706.42 1316.33 1703.04 1319.34 Q1699.7 1322.35 1699.7 1327.72 Z" fill="#000000" fill-rule="nonzero" fill-opacity="1" /><path clip-path="url(#clip840)" d="M1838.33 1371.43 L1853.61 1371.43 L1853.61 1318.69 L1836.99 1322.03 L1836.99 1313.51 L1853.52 1310.18 L1862.87 1310.18 L1862.87 1371.43 L1878.14 1371.43 L1878.14 1379.3 L1838.33 1379.3 L1838.33 1371.43 Z" fill="#000000" fill-rule="nonzero" fill-opacity="1" /><path clip-path="url(#clip840)" d="M1897.03 1367.54 L1906.8 1367.54 L1906.8 1379.3 L1897.03 1379.3 L1897.03 1367.54 Z" fill="#000000" fill-rule="nonzero" fill-opacity="1" /><path clip-path="url(#clip840)" d="M1947.17 1316.33 Q1939.95 1316.33 1936.29 1323.46 Q1932.68 1330.55 1932.68 1344.81 Q1932.68 1359.02 1936.29 1366.15 Q1939.95 1373.23 1947.17 1373.23 Q1954.44 1373.23 1958.05 1366.15 Q1961.71 1359.02 1961.71 1344.81 Q1961.71 1330.55 1958.05 1323.46 Q1954.44 1316.33 1947.17 1316.33 M1947.17 1308.93 Q1958.79 1308.93 1964.9 1318.14 Q1971.06 1327.31 1971.06 1344.81 Q1971.06 1362.26 1964.9 1371.47 Q1958.79 1380.64 1947.17 1380.64 Q1935.55 1380.64 1929.39 1371.47 Q1923.28 1362.26 1923.28 1344.81 Q1923.28 1327.31 1929.39 1318.14 Q1935.55 1308.93 1947.17 1308.93 Z" fill="#000000" fill-rule="nonzero" fill-opacity="1" /><path clip-path="url(#clip840)" d="M2076.79 1371.43 L2092.07 1371.43 L2092.07 1318.69 L2075.45 1322.03 L2075.45 1313.51 L2091.98 1310.18 L2101.33 1310.18 L2101.33 1371.43 L2116.61 1371.43 L2116.61 1379.3 L2076.79 1379.3 L2076.79 1371.43 Z" fill="#000000" fill-rule="nonzero" fill-opacity="1" /><path clip-path="url(#clip840)" d="M2135.5 1367.54 L2145.27 1367.54 L2145.27 1379.3 L2135.5 1379.3 L2135.5 1367.54 Z" fill="#000000" fill-rule="nonzero" fill-opacity="1" /><path clip-path="url(#clip840)" d="M2173.69 1371.43 L2206.33 1371.43 L2206.33 1379.3 L2162.44 1379.3 L2162.44 1371.43 Q2167.76 1365.92 2176.93 1356.66 Q2186.14 1347.35 2188.51 1344.67 Q2193 1339.62 2194.76 1336.15 Q2196.56 1332.63 2196.56 1329.25 Q2196.56 1323.74 2192.67 1320.27 Q2188.83 1316.8 2182.63 1316.8 Q2178.23 1316.8 2173.32 1318.32 Q2168.46 1319.85 2162.9 1322.95 L2162.9 1313.51 Q2168.55 1311.24 2173.46 1310.08 Q2178.37 1308.93 2182.44 1308.93 Q2193.18 1308.93 2199.57 1314.3 Q2205.96 1319.67 2205.96 1328.65 Q2205.96 1332.91 2204.34 1336.75 Q2202.76 1340.55 2198.55 1345.73 Q2197.39 1347.07 2191.19 1353.51 Q2184.99 1359.9 2173.69 1371.43 Z" fill="#000000" fill-rule="nonzero" fill-opacity="1" /><path clip-path="url(#clip840)" d="M1375.05 1484.39 L1375.05 1527.42 L1363.34 1527.42 L1363.34 1484.77 Q1363.34 1474.65 1359.39 1469.62 Q1355.45 1464.59 1347.55 1464.59 Q1338.07 1464.59 1332.59 1470.64 Q1327.12 1476.69 1327.12 1487.13 L1327.12 1527.42 L1315.34 1527.42 L1315.34 1428.37 L1327.12 1428.37 L1327.12 1467.2 Q1331.32 1460.77 1336.99 1457.59 Q1342.72 1454.41 1350.16 1454.41 Q1362.45 1454.41 1368.75 1462.05 Q1375.05 1469.62 1375.05 1484.39 Z" fill="#000000" fill-rule="nonzero" fill-opacity="1" /><path clip-path="url(#clip840)" d="M1426.04 1464.34 Q1416.62 1464.34 1411.15 1471.72 Q1405.67 1479.04 1405.67 1491.84 Q1405.67 1504.63 1411.08 1512.02 Q1416.56 1519.34 1426.04 1519.34 Q1435.4 1519.34 1440.87 1511.96 Q1446.35 1504.57 1446.35 1491.84 Q1446.35 1479.17 1440.87 1471.79 Q1435.4 1464.34 1426.04 1464.34 M1426.04 1454.41 Q1441.32 1454.41 1450.04 1464.34 Q1458.76 1474.27 1458.76 1491.84 Q1458.76 1509.35 1450.04 1519.34 Q1441.32 1529.27 1426.04 1529.27 Q1410.7 1529.27 1401.98 1519.34 Q1393.32 1509.35 1393.32 1491.84 Q1393.32 1474.27 1401.98 1464.34 Q1410.7 1454.41 1426.04 1454.41 Z" fill="#000000" fill-rule="nonzero" fill-opacity="1" /><path clip-path="url(#clip840)" d="M1476.97 1499.29 L1476.97 1456.13 L1488.68 1456.13 L1488.68 1498.84 Q1488.68 1508.96 1492.63 1514.06 Q1496.57 1519.08 1504.47 1519.08 Q1513.95 1519.08 1519.43 1513.04 Q1524.97 1506.99 1524.97 1496.55 L1524.97 1456.13 L1536.68 1456.13 L1536.68 1527.42 L1524.97 1527.42 L1524.97 1516.47 Q1520.7 1522.97 1515.04 1526.15 Q1509.43 1529.27 1501.99 1529.27 Q1489.7 1529.27 1483.33 1521.63 Q1476.97 1513.99 1476.97 1499.29 M1506.44 1454.41 L1506.44 1454.41 Z" fill="#000000" fill-rule="nonzero" fill-opacity="1" /><path clip-path="url(#clip840)" d="M1602.12 1467.08 Q1600.14 1465.93 1597.79 1465.42 Q1595.5 1464.85 1592.7 1464.85 Q1582.77 1464.85 1577.42 1471.34 Q1572.14 1477.77 1572.14 1489.87 L1572.14 1527.42 L1560.36 1527.42 L1560.36 1456.13 L1572.14 1456.13 L1572.14 1467.2 Q1575.83 1460.71 1581.75 1457.59 Q1587.67 1454.41 1596.13 1454.41 Q1597.34 1454.41 1598.81 1454.6 Q1600.27 1454.73 1602.05 1455.05 L1602.12 1467.08 Z" fill="#000000" fill-rule="nonzero" fill-opacity="1" /><path clip-path="url(#clip840)" d="M1659.86 1458.23 L1659.86 1469.3 Q1654.89 1466.76 1649.54 1465.49 Q1644.2 1464.21 1638.47 1464.21 Q1629.75 1464.21 1625.35 1466.89 Q1621.02 1469.56 1621.02 1474.91 Q1621.02 1478.98 1624.14 1481.34 Q1627.26 1483.63 1636.68 1485.73 L1640.69 1486.62 Q1653.17 1489.29 1658.39 1494.19 Q1663.67 1499.03 1663.67 1507.75 Q1663.67 1517.68 1655.78 1523.48 Q1647.95 1529.27 1634.2 1529.27 Q1628.47 1529.27 1622.23 1528.12 Q1616.06 1527.04 1609.18 1524.81 L1609.18 1512.72 Q1615.68 1516.09 1621.98 1517.81 Q1628.28 1519.47 1634.46 1519.47 Q1642.73 1519.47 1647.19 1516.67 Q1651.64 1513.8 1651.64 1508.64 Q1651.64 1503.87 1648.4 1501.32 Q1645.21 1498.78 1634.33 1496.42 L1630.25 1495.47 Q1619.37 1493.18 1614.53 1488.47 Q1609.69 1483.69 1609.69 1475.42 Q1609.69 1465.36 1616.82 1459.88 Q1623.95 1454.41 1637.07 1454.41 Q1643.56 1454.41 1649.29 1455.36 Q1655.02 1456.32 1659.86 1458.23 Z" fill="#000000" fill-rule="nonzero" fill-opacity="1" /><polyline clip-path="url(#clip842)" style="stroke:#000000; stroke-linecap:round; stroke-linejoin:round; stroke-width:4; stroke-opacity:0.1; fill:none" points="673.506,1095.5 2305.51,1095.5 "/>
<polyline clip-path="url(#clip842)" style="stroke:#000000; stroke-linecap:round; stroke-linejoin:round; stroke-width:4; stroke-opacity:0.1; fill:none" points="673.506,841.473 2305.51,841.473 "/>
<polyline clip-path="url(#clip842)" style="stroke:#000000; stroke-linecap:round; stroke-linejoin:round; stroke-width:4; stroke-opacity:0.1; fill:none" points="673.506,587.447 2305.51,587.447 "/>
<polyline clip-path="url(#clip842)" style="stroke:#000000; stroke-linecap:round; stroke-linejoin:round; stroke-width:4; stroke-opacity:0.1; fill:none" points="673.506,333.421 2305.51,333.421 "/>
<polyline clip-path="url(#clip840)" style="stroke:#000000; stroke-linecap:round; stroke-linejoin:round; stroke-width:8; stroke-opacity:1; fill:none" points="673.506,1273.7 673.506,94.4882 "/>
<polyline clip-path="url(#clip840)" style="stroke:#000000; stroke-linecap:round; stroke-linejoin:round; stroke-width:8; stroke-opacity:1; fill:none" points="673.506,1095.5 692.404,1095.5 "/>
<polyline clip-path="url(#clip840)" style="stroke:#000000; stroke-linecap:round; stroke-linejoin:round; stroke-width:8; stroke-opacity:1; fill:none" points="673.506,841.473 692.404,841.473 "/>
<polyline clip-path="url(#clip840)" style="stroke:#000000; stroke-linecap:round; stroke-linejoin:round; stroke-width:8; stroke-opacity:1; fill:none" points="673.506,587.447 692.404,587.447 "/>
<polyline clip-path="url(#clip840)" style="stroke:#000000; stroke-linecap:round; stroke-linejoin:round; stroke-width:8; stroke-opacity:1; fill:none" points="673.506,333.421 692.404,333.421 "/>
<path clip-path="url(#clip840)" d="M384.128 1122.19 L399.405 1122.19 L399.405 1069.46 L382.785 1072.79 L382.785 1064.27 L399.313 1060.94 L408.665 1060.94 L408.665 1122.19 L423.942 1122.19 L423.942 1130.06 L384.128 1130.06 L384.128 1122.19 Z" fill="#000000" fill-rule="nonzero" fill-opacity="1" /><path clip-path="url(#clip840)" d="M450.887 1122.19 L483.525 1122.19 L483.525 1130.06 L439.637 1130.06 L439.637 1122.19 Q444.961 1116.68 454.127 1107.42 Q463.34 1098.11 465.701 1095.43 Q470.192 1090.38 471.951 1086.91 Q473.757 1083.39 473.757 1080.01 Q473.757 1074.5 469.868 1071.03 Q466.025 1067.56 459.822 1067.56 Q455.424 1067.56 450.516 1069.09 Q445.655 1070.61 440.1 1073.72 L440.1 1064.27 Q445.748 1062 450.655 1060.85 Q455.562 1059.69 459.637 1059.69 Q470.377 1059.69 476.766 1065.06 Q483.155 1070.43 483.155 1079.41 Q483.155 1083.67 481.535 1087.51 Q479.961 1091.31 475.748 1096.49 Q474.59 1097.84 468.387 1104.27 Q462.183 1110.66 450.887 1122.19 Z" fill="#000000" fill-rule="nonzero" fill-opacity="1" /><path clip-path="url(#clip840)" d="M523.155 1067.1 Q515.933 1067.1 512.275 1074.23 Q508.664 1081.31 508.664 1095.57 Q508.664 1109.78 512.275 1116.91 Q515.933 1123.99 523.155 1123.99 Q530.423 1123.99 534.034 1116.91 Q537.692 1109.78 537.692 1095.57 Q537.692 1081.31 534.034 1074.23 Q530.423 1067.1 523.155 1067.1 M523.155 1059.69 Q534.775 1059.69 540.886 1068.9 Q547.043 1078.07 547.043 1095.57 Q547.043 1113.02 540.886 1122.23 Q534.775 1131.4 523.155 1131.4 Q511.534 1131.4 505.377 1122.23 Q499.266 1113.02 499.266 1095.57 Q499.266 1078.07 505.377 1068.9 Q511.534 1059.69 523.155 1059.69 Z" fill="#000000" fill-rule="nonzero" fill-opacity="1" /><path clip-path="url(#clip840)" d="M563.479 1118.3 L573.247 1118.3 L573.247 1130.06 L563.479 1130.06 L563.479 1118.3 Z" fill="#000000" fill-rule="nonzero" fill-opacity="1" /><path clip-path="url(#clip840)" d="M613.617 1067.1 Q606.395 1067.1 602.738 1074.23 Q599.127 1081.31 599.127 1095.57 Q599.127 1109.78 602.738 1116.91 Q606.395 1123.99 613.617 1123.99 Q620.886 1123.99 624.497 1116.91 Q628.154 1109.78 628.154 1095.57 Q628.154 1081.31 624.497 1074.23 Q620.886 1067.1 613.617 1067.1 M613.617 1059.69 Q625.238 1059.69 631.349 1068.9 Q637.506 1078.07 637.506 1095.57 Q637.506 1113.02 631.349 1122.23 Q625.238 1131.4 613.617 1131.4 Q601.997 1131.4 595.84 1122.23 Q589.728 1113.02 589.728 1095.57 Q589.728 1078.07 595.84 1068.9 Q601.997 1059.69 613.617 1059.69 Z" fill="#000000" fill-rule="nonzero" fill-opacity="1" /><path clip-path="url(#clip840)" d="M384.128 868.163 L399.405 868.163 L399.405 815.431 L382.785 818.765 L382.785 810.246 L399.313 806.913 L408.665 806.913 L408.665 868.163 L423.942 868.163 L423.942 876.033 L384.128 876.033 L384.128 868.163 Z" fill="#000000" fill-rule="nonzero" fill-opacity="1" /><path clip-path="url(#clip840)" d="M468.525 815.061 L444.914 851.959 L468.525 851.959 L468.525 815.061 M466.072 806.913 L477.831 806.913 L477.831 851.959 L487.692 851.959 L487.692 859.737 L477.831 859.737 L477.831 876.033 L468.525 876.033 L468.525 859.737 L437.322 859.737 L437.322 850.709 L466.072 806.913 Z" fill="#000000" fill-rule="nonzero" fill-opacity="1" /><path clip-path="url(#clip840)" d="M523.155 813.07 Q515.933 813.07 512.275 820.2 Q508.664 827.283 508.664 841.542 Q508.664 855.755 512.275 862.885 Q515.933 869.968 523.155 869.968 Q530.423 869.968 534.034 862.885 Q537.692 855.755 537.692 841.542 Q537.692 827.283 534.034 820.2 Q530.423 813.07 523.155 813.07 M523.155 805.663 Q534.775 805.663 540.886 814.876 Q547.043 824.042 547.043 841.542 Q547.043 858.996 540.886 868.209 Q534.775 877.375 523.155 877.375 Q511.534 877.375 505.377 868.209 Q499.266 858.996 499.266 841.542 Q499.266 824.042 505.377 814.876 Q511.534 805.663 523.155 805.663 Z" fill="#000000" fill-rule="nonzero" fill-opacity="1" /><path clip-path="url(#clip840)" d="M563.479 864.274 L573.247 864.274 L573.247 876.033 L563.479 876.033 L563.479 864.274 Z" fill="#000000" fill-rule="nonzero" fill-opacity="1" /><path clip-path="url(#clip840)" d="M613.617 813.07 Q606.395 813.07 602.738 820.2 Q599.127 827.283 599.127 841.542 Q599.127 855.755 602.738 862.885 Q606.395 869.968 613.617 869.968 Q620.886 869.968 624.497 862.885 Q628.154 855.755 628.154 841.542 Q628.154 827.283 624.497 820.2 Q620.886 813.07 613.617 813.07 M613.617 805.663 Q625.238 805.663 631.349 814.876 Q637.506 824.042 637.506 841.542 Q637.506 858.996 631.349 868.209 Q625.238 877.375 613.617 877.375 Q601.997 877.375 595.84 868.209 Q589.728 858.996 589.728 841.542 Q589.728 824.042 595.84 814.876 Q601.997 805.663 613.617 805.663 Z" fill="#000000" fill-rule="nonzero" fill-opacity="1" /><path clip-path="url(#clip840)" d="M384.128 614.137 L399.405 614.137 L399.405 561.405 L382.785 564.739 L382.785 556.22 L399.313 552.887 L408.665 552.887 L408.665 614.137 L423.942 614.137 L423.942 622.007 L384.128 622.007 L384.128 614.137 Z" fill="#000000" fill-rule="nonzero" fill-opacity="1" /><path clip-path="url(#clip840)" d="M463.988 583.72 Q457.692 583.72 453.988 588.026 Q450.331 592.331 450.331 599.831 Q450.331 607.285 453.988 611.637 Q457.692 615.942 463.988 615.942 Q470.285 615.942 473.942 611.637 Q477.646 607.285 477.646 599.831 Q477.646 592.331 473.942 588.026 Q470.285 583.72 463.988 583.72 M482.553 554.415 L482.553 562.933 Q479.035 561.267 475.424 560.387 Q471.859 559.507 468.34 559.507 Q459.081 559.507 454.174 565.757 Q449.313 572.007 448.618 584.646 Q451.35 580.618 455.47 578.489 Q459.59 576.313 464.544 576.313 Q474.961 576.313 480.979 582.655 Q487.044 588.952 487.044 599.831 Q487.044 610.479 480.748 616.914 Q474.451 623.35 463.988 623.35 Q451.998 623.35 445.655 614.183 Q439.313 604.97 439.313 587.516 Q439.313 571.128 447.09 561.405 Q454.868 551.637 467.97 551.637 Q471.488 551.637 475.053 552.331 Q478.664 553.026 482.553 554.415 Z" fill="#000000" fill-rule="nonzero" fill-opacity="1" /><path clip-path="url(#clip840)" d="M523.155 559.044 Q515.933 559.044 512.275 566.174 Q508.664 573.257 508.664 587.516 Q508.664 601.729 512.275 608.859 Q515.933 615.942 523.155 615.942 Q530.423 615.942 534.034 608.859 Q537.692 601.729 537.692 587.516 Q537.692 573.257 534.034 566.174 Q530.423 559.044 523.155 559.044 M523.155 551.637 Q534.775 551.637 540.886 560.85 Q547.043 570.017 547.043 587.516 Q547.043 604.97 540.886 614.183 Q534.775 623.35 523.155 623.35 Q511.534 623.35 505.377 614.183 Q499.266 604.97 499.266 587.516 Q499.266 570.017 505.377 560.85 Q511.534 551.637 523.155 551.637 Z" fill="#000000" fill-rule="nonzero" fill-opacity="1" /><path clip-path="url(#clip840)" d="M563.479 610.248 L573.247 610.248 L573.247 622.007 L563.479 622.007 L563.479 610.248 Z" fill="#000000" fill-rule="nonzero" fill-opacity="1" /><path clip-path="url(#clip840)" d="M613.617 559.044 Q606.395 559.044 602.738 566.174 Q599.127 573.257 599.127 587.516 Q599.127 601.729 602.738 608.859 Q606.395 615.942 613.617 615.942 Q620.886 615.942 624.497 608.859 Q628.154 601.729 628.154 587.516 Q628.154 573.257 624.497 566.174 Q620.886 559.044 613.617 559.044 M613.617 551.637 Q625.238 551.637 631.349 560.85 Q637.506 570.017 637.506 587.516 Q637.506 604.97 631.349 614.183 Q625.238 623.35 613.617 623.35 Q601.997 623.35 595.84 614.183 Q589.728 604.97 589.728 587.516 Q589.728 570.017 595.84 560.85 Q601.997 551.637 613.617 551.637 Z" fill="#000000" fill-rule="nonzero" fill-opacity="1" /><path clip-path="url(#clip840)" d="M384.128 360.111 L399.405 360.111 L399.405 307.38 L382.785 310.713 L382.785 302.194 L399.313 298.861 L408.665 298.861 L408.665 360.111 L423.942 360.111 L423.942 367.981 L384.128 367.981 L384.128 360.111 Z" fill="#000000" fill-rule="nonzero" fill-opacity="1" /><path clip-path="url(#clip840)" d="M462.831 335.157 Q456.164 335.157 452.322 338.722 Q448.525 342.287 448.525 348.537 Q448.525 354.787 452.322 358.352 Q456.164 361.916 462.831 361.916 Q469.498 361.916 473.34 358.352 Q477.183 354.741 477.183 348.537 Q477.183 342.287 473.34 338.722 Q469.544 335.157 462.831 335.157 M453.479 331.176 Q447.461 329.694 444.081 325.574 Q440.748 321.454 440.748 315.528 Q440.748 307.241 446.627 302.426 Q452.553 297.611 462.831 297.611 Q473.155 297.611 479.035 302.426 Q484.914 307.241 484.914 315.528 Q484.914 321.454 481.535 325.574 Q478.201 329.694 472.229 331.176 Q478.988 332.75 482.738 337.333 Q486.535 341.917 486.535 348.537 Q486.535 358.583 480.377 363.953 Q474.266 369.324 462.831 369.324 Q451.396 369.324 445.238 363.953 Q439.127 358.583 439.127 348.537 Q439.127 341.917 442.924 337.333 Q446.72 332.75 453.479 331.176 M450.053 316.407 Q450.053 321.778 453.387 324.787 Q456.766 327.796 462.831 327.796 Q468.849 327.796 472.229 324.787 Q475.655 321.778 475.655 316.407 Q475.655 311.037 472.229 308.028 Q468.849 305.019 462.831 305.019 Q456.766 305.019 453.387 308.028 Q450.053 311.037 450.053 316.407 Z" fill="#000000" fill-rule="nonzero" fill-opacity="1" /><path clip-path="url(#clip840)" d="M523.155 305.019 Q515.933 305.019 512.275 312.148 Q508.664 319.231 508.664 333.491 Q508.664 347.704 512.275 354.833 Q515.933 361.916 523.155 361.916 Q530.423 361.916 534.034 354.833 Q537.692 347.704 537.692 333.491 Q537.692 319.231 534.034 312.148 Q530.423 305.019 523.155 305.019 M523.155 297.611 Q534.775 297.611 540.886 306.824 Q547.043 315.991 547.043 333.491 Q547.043 350.944 540.886 360.157 Q534.775 369.324 523.155 369.324 Q511.534 369.324 505.377 360.157 Q499.266 350.944 499.266 333.491 Q499.266 315.991 505.377 306.824 Q511.534 297.611 523.155 297.611 Z" fill="#000000" fill-rule="nonzero" fill-opacity="1" /><path clip-path="url(#clip840)" d="M563.479 356.222 L573.247 356.222 L573.247 367.981 L563.479 367.981 L563.479 356.222 Z" fill="#000000" fill-rule="nonzero" fill-opacity="1" /><path clip-path="url(#clip840)" d="M613.617 305.019 Q606.395 305.019 602.738 312.148 Q599.127 319.231 599.127 333.491 Q599.127 347.704 602.738 354.833 Q606.395 361.916 613.617 361.916 Q620.886 361.916 624.497 354.833 Q628.154 347.704 628.154 333.491 Q628.154 319.231 624.497 312.148 Q620.886 305.019 613.617 305.019 M613.617 297.611 Q625.238 297.611 631.349 306.824 Q637.506 315.991 637.506 333.491 Q637.506 350.944 631.349 360.157 Q625.238 369.324 613.617 369.324 Q601.997 369.324 595.84 360.157 Q589.728 350.944 589.728 333.491 Q589.728 315.991 595.84 306.824 Q601.997 297.611 613.617 297.611 Z" fill="#000000" fill-rule="nonzero" fill-opacity="1" /><path clip-path="url(#clip840)" d="M307.579 932.195 L345.391 932.195 L345.391 943.972 L246.977 943.972 L246.977 932.195 L257.799 932.195 Q251.433 928.503 248.378 922.901 Q245.258 917.236 245.258 909.406 Q245.258 896.42 255.571 888.336 Q265.883 880.188 282.689 880.188 Q299.494 880.188 309.807 888.336 Q320.119 896.42 320.119 909.406 Q320.119 917.236 317.064 922.901 Q313.944 928.503 307.579 932.195 M282.689 892.346 Q269.766 892.346 262.446 897.693 Q255.062 902.977 255.062 912.271 Q255.062 921.565 262.446 926.912 Q269.766 932.195 282.689 932.195 Q295.611 932.195 302.995 926.912 Q310.316 921.565 310.316 912.271 Q310.316 902.977 302.995 897.693 Q295.611 892.346 282.689 892.346 Z" fill="#000000" fill-rule="nonzero" fill-opacity="1" /><path clip-path="url(#clip840)" d="M282.434 828.371 Q282.434 842.566 285.681 848.041 Q288.927 853.515 296.757 853.515 Q302.995 853.515 306.688 849.441 Q310.316 845.303 310.316 838.238 Q310.316 828.498 303.441 822.642 Q296.502 816.721 285.044 816.721 L282.434 816.721 L282.434 828.371 M277.596 805.009 L318.273 805.009 L318.273 816.721 L307.451 816.721 Q313.944 820.732 317.064 826.716 Q320.119 832.699 320.119 841.357 Q320.119 852.306 314.008 858.799 Q307.833 865.228 297.521 865.228 Q285.49 865.228 279.379 857.207 Q273.268 849.123 273.268 833.145 L273.268 816.721 L272.122 816.721 Q264.037 816.721 259.645 822.069 Q255.189 827.352 255.189 836.964 Q255.189 843.075 256.653 848.868 Q258.117 854.661 261.045 860.008 L250.224 860.008 Q247.741 853.579 246.532 847.531 Q245.258 841.484 245.258 835.755 Q245.258 820.286 253.279 812.647 Q261.3 805.009 277.596 805.009 Z" fill="#000000" fill-rule="nonzero" fill-opacity="1" /><path clip-path="url(#clip840)" d="M257.926 739.569 Q256.78 741.542 256.271 743.898 Q255.698 746.189 255.698 748.99 Q255.698 758.921 262.191 764.268 Q268.621 769.552 280.715 769.552 L318.273 769.552 L318.273 781.328 L246.977 781.328 L246.977 769.552 L258.054 769.552 Q251.561 765.859 248.441 759.939 Q245.258 754.019 245.258 745.553 Q245.258 744.343 245.449 742.879 Q245.577 741.415 245.895 739.633 L257.926 739.569 Z" fill="#000000" fill-rule="nonzero" fill-opacity="1" /><path clip-path="url(#clip840)" d="M279.697 669.164 L285.426 669.164 L285.426 723.018 Q297.521 722.254 303.887 715.761 Q310.189 709.205 310.189 697.555 Q310.189 690.808 308.534 684.506 Q306.878 678.14 303.568 671.902 L314.645 671.902 Q317.318 678.204 318.719 684.824 Q320.119 691.444 320.119 698.256 Q320.119 715.316 310.189 725.31 Q300.258 735.24 283.325 735.24 Q265.82 735.24 255.571 725.819 Q245.258 716.334 245.258 700.293 Q245.258 685.906 254.552 677.567 Q263.783 669.164 279.697 669.164 M276.259 680.877 Q266.647 681.005 260.918 686.288 Q255.189 691.508 255.189 700.165 Q255.189 709.969 260.727 715.889 Q266.265 721.745 276.323 722.636 L276.259 680.877 Z" fill="#000000" fill-rule="nonzero" fill-opacity="1" /><path clip-path="url(#clip840)" d="M275.241 590.675 L318.273 590.675 L318.273 602.388 L275.623 602.388 Q265.501 602.388 260.472 606.335 Q255.444 610.282 255.444 618.175 Q255.444 627.66 261.491 633.134 Q267.538 638.609 277.978 638.609 L318.273 638.609 L318.273 650.386 L246.977 650.386 L246.977 638.609 L258.054 638.609 Q251.624 634.408 248.441 628.742 Q245.258 623.013 245.258 615.565 Q245.258 603.279 252.897 596.977 Q260.472 590.675 275.241 590.675 Z" fill="#000000" fill-rule="nonzero" fill-opacity="1" /><path clip-path="url(#clip840)" d="M302.104 565.658 L302.104 552.226 L318.273 552.226 L318.273 565.658 L302.104 565.658 Z" fill="#000000" fill-rule="nonzero" fill-opacity="1" /><path clip-path="url(#clip840)" d="M267.029 443.818 Q269.003 434.588 275.241 429.432 Q281.479 424.212 290.646 424.212 Q304.714 424.212 312.417 433.888 Q320.119 443.564 320.119 461.388 Q320.119 467.371 318.91 473.737 Q317.764 480.039 315.409 486.787 L302.995 486.787 Q306.115 481.44 307.706 475.074 Q309.297 468.708 309.297 461.77 Q309.297 449.675 304.523 443.373 Q299.749 437.007 290.646 437.007 Q282.243 437.007 277.533 442.927 Q272.758 448.784 272.758 459.287 L272.758 470.363 L262.191 470.363 L262.191 458.778 Q262.191 449.293 258.435 444.264 Q254.616 439.235 247.486 439.235 Q240.166 439.235 236.283 444.455 Q232.336 449.611 232.336 459.287 Q232.336 464.571 233.482 470.618 Q234.628 476.665 237.047 483.922 L225.588 483.922 Q223.551 476.602 222.533 470.236 Q221.514 463.807 221.514 458.141 Q221.514 443.5 228.198 434.97 Q234.819 426.44 246.15 426.44 Q254.043 426.44 259.518 430.96 Q264.928 435.479 267.029 443.818 Z" fill="#000000" fill-rule="nonzero" fill-opacity="1" /><polyline clip-path="url(#clip842)" style="stroke:#008000; stroke-linecap:round; stroke-linejoin:round; stroke-width:8; stroke-opacity:1; fill:none" points="719.695,162.557 838.128,147.667 956.561,403.516 1074.99,478.141 1193.43,584.188 1311.86,706.671 1430.29,804.607 1548.73,818.623 1667.16,963.448 1785.59,921.899 1904.02,1033.11 2022.46,1108.05 2140.89,1157.28 2259.32,1230.86 "/>
<circle clip-path="url(#clip842)" cx="719.695" cy="162.557" r="14.4" fill="#008000" fill-rule="evenodd" fill-opacity="1" stroke="#000000" stroke-opacity="1" stroke-width="6.4"/>
<circle clip-path="url(#clip842)" cx="838.128" cy="147.667" r="14.4" fill="#008000" fill-rule="evenodd" fill-opacity="1" stroke="#000000" stroke-opacity="1" stroke-width="6.4"/>
<circle clip-path="url(#clip842)" cx="956.561" cy="403.516" r="14.4" fill="#008000" fill-rule="evenodd" fill-opacity="1" stroke="#000000" stroke-opacity="1" stroke-width="6.4"/>
<circle clip-path="url(#clip842)" cx="1074.99" cy="478.141" r="14.4" fill="#008000" fill-rule="evenodd" fill-opacity="1" stroke="#000000" stroke-opacity="1" stroke-width="6.4"/>
<circle clip-path="url(#clip842)" cx="1193.43" cy="584.188" r="14.4" fill="#008000" fill-rule="evenodd" fill-opacity="1" stroke="#000000" stroke-opacity="1" stroke-width="6.4"/>
<circle clip-path="url(#clip842)" cx="1311.86" cy="706.671" r="14.4" fill="#008000" fill-rule="evenodd" fill-opacity="1" stroke="#000000" stroke-opacity="1" stroke-width="6.4"/>
<circle clip-path="url(#clip842)" cx="1430.29" cy="804.607" r="14.4" fill="#008000" fill-rule="evenodd" fill-opacity="1" stroke="#000000" stroke-opacity="1" stroke-width="6.4"/>
<circle clip-path="url(#clip842)" cx="1548.73" cy="818.623" r="14.4" fill="#008000" fill-rule="evenodd" fill-opacity="1" stroke="#000000" stroke-opacity="1" stroke-width="6.4"/>
<circle clip-path="url(#clip842)" cx="1667.16" cy="963.448" r="14.4" fill="#008000" fill-rule="evenodd" fill-opacity="1" stroke="#000000" stroke-opacity="1" stroke-width="6.4"/>
<circle clip-path="url(#clip842)" cx="1785.59" cy="921.899" r="14.4" fill="#008000" fill-rule="evenodd" fill-opacity="1" stroke="#000000" stroke-opacity="1" stroke-width="6.4"/>
<circle clip-path="url(#clip842)" cx="1904.02" cy="1033.11" r="14.4" fill="#008000" fill-rule="evenodd" fill-opacity="1" stroke="#000000" stroke-opacity="1" stroke-width="6.4"/>
<circle clip-path="url(#clip842)" cx="2022.46" cy="1108.05" r="14.4" fill="#008000" fill-rule="evenodd" fill-opacity="1" stroke="#000000" stroke-opacity="1" stroke-width="6.4"/>
<circle clip-path="url(#clip842)" cx="2140.89" cy="1157.28" r="14.4" fill="#008000" fill-rule="evenodd" fill-opacity="1" stroke="#000000" stroke-opacity="1" stroke-width="6.4"/>
<circle clip-path="url(#clip842)" cx="2259.32" cy="1230.86" r="14.4" fill="#008000" fill-rule="evenodd" fill-opacity="1" stroke="#000000" stroke-opacity="1" stroke-width="6.4"/>
<polyline clip-path="url(#clip842)" style="stroke:#00008b; stroke-linecap:round; stroke-linejoin:round; stroke-width:8; stroke-opacity:1; fill:none" points="719.695,163.999 838.128,298.441 956.561,419.329 1074.99,524.122 1193.43,626.421 1311.86,714.624 1430.29,796.56 1548.73,868.984 1667.16,936.625 1785.59,997.47 1904.02,1053.55 2022.46,1106.97 2140.89,1156.67 2259.32,1203.46 "/>
<path clip-path="url(#clip842)" d="M719.695 201.111 L838.128 334.153 L956.561 458.706 L1074.99 562.507 L1193.43 664.011 L1311.86 751.568 L1430.29 834.345 L1548.73 907.149 L1667.16 977.873 L1785.59 1036.17 L1904.02 1092.96 L2022.46 1144.45 L2140.89 1198.28 L2259.32 1240.32 L2259.32 1165.68 L2140.89 1116.6 L2022.46 1069.85 L1904.02 1014.46 L1785.59 959.345 L1667.16 899.82 L1548.73 829.133 L1430.29 758.178 L1311.86 676.914 L1193.43 588.957 L1074.99 483.64 L956.561 382.134 L838.128 261.221 L719.695 127.862  Z" fill="#0000ff" fill-rule="evenodd" fill-opacity="0.1"/>
<polyline clip-path="url(#clip842)" style="stroke:#0000ff; stroke-linecap:round; stroke-linejoin:round; stroke-width:0; stroke-opacity:0.1; fill:none" points="719.695,201.111 838.128,334.153 956.561,458.706 1074.99,562.507 1193.43,664.011 1311.86,751.568 1430.29,834.345 1548.73,907.149 1667.16,977.873 1785.59,1036.17 1904.02,1092.96 2022.46,1144.45 2140.89,1198.28 2259.32,1240.32 "/>
</svg>
