<?xml version="1.0" encoding="utf-8"?>
<svg xmlns="http://www.w3.org/2000/svg" xmlns:xlink="http://www.w3.org/1999/xlink" width="600" height="400" viewBox="0 0 2400 1600">
<defs>
  <clipPath id="clip750">
    <rect x="0" y="0" width="2400" height="1600"/>
  </clipPath>
</defs>
<path clip-path="url(#clip750)" d="M0 1600 L2400 1600 L2400 0 L0 0  Z" fill="#ffffff" fill-rule="evenodd" fill-opacity="1"/>
<defs>
  <clipPath id="clip751">
    <rect x="480" y="0" width="1681" height="1600"/>
  </clipPath>
</defs>
<path clip-path="url(#clip750)" d="M673.506 1273.7 L2305.51 1273.7 L2305.51 94.4882 L673.506 94.4882  Z" fill="#ffffff" fill-rule="evenodd" fill-opacity="1"/>
<defs>
  <clipPath id="clip752">
    <rect x="673" y="94" width="1633" height="1180"/>
  </clipPath>
</defs>
<polyline clip-path="url(#clip752)" style="stroke:#000000; stroke-linecap:round; stroke-linejoin:round; stroke-width:4; stroke-opacity:0.1; fill:none" points="719.695,1273.7 719.695,94.4882 "/>
<polyline clip-path="url(#clip752)" style="stroke:#000000; stroke-linecap:round; stroke-linejoin:round; stroke-width:4; stroke-opacity:0.1; fill:none" points="956.561,1273.7 956.561,94.4882 "/>
<polyline clip-path="url(#clip752)" style="stroke:#000000; stroke-linecap:round; stroke-linejoin:round; stroke-width:4; stroke-opacity:0.1; fill:none" points="1193.43,1273.7 1193.43,94.4882 "/>
<polyline clip-path="url(#clip752)" style="stroke:#000000; stroke-linecap:round; stroke-linejoin:round; stroke-width:4; stroke-opacity:0.1; fill:none" points="1430.29,1273.7 1430.29,94.4882 "/>
<polyline clip-path="url(#clip752)" style="stroke:#000000; stroke-linecap:round; stroke-linejoin:round; stroke-width:4; stroke-opacity:0.1; fill:none" points="1667.16,1273.7 1667.16,94.4882 "/>
<polyline clip-path="url(#clip752)" style="stroke:#000000; stroke-linecap:round; stroke-linejoin:round; stroke-width:4; stroke-opacity:0.1; fill:none" points="1904.02,1273.7 1904.02,94.4882 "/>
<polyline clip-path="url(#clip752)" style="stroke:#000000; stroke-linecap:round; stroke-linejoin:round; stroke-width:4; stroke-opacity:0.1; fill:none" points="2140.89,1273.7 2140.89,94.4882 "/>
<polyline clip-path="url(#clip750)" style="stroke:#000000; stroke-linecap:round; stroke-linejoin:round; stroke-width:8; stroke-opacity:1; fill:none" points="673.506,1273.7 2305.51,1273.7 "/>
<polyline clip-path="url(#clip750)" style="stroke:#000000; stroke-linecap:round; stroke-linejoin:round; stroke-width:8; stroke-opacity:1; fill:none" points="719.695,1273.7 719.695,1254.8 "/>
<polyline clip-path="url(#clip750)" style="stroke:#000000; stroke-linecap:round; stroke-linejoin:round; stroke-width:8; stroke-opacity:1; fill:none" points="956.561,1273.7 956.561,1254.8 "/>
<polyline clip-path="url(#clip750)" style="stroke:#000000; stroke-linecap:round; stroke-linejoin:round; stroke-width:8; stroke-opacity:1; fill:none" points="1193.43,1273.7 1193.43,1254.8 "/>
<polyline clip-path="url(#clip750)" style="stroke:#000000; stroke-linecap:round; stroke-linejoin:round; stroke-width:8; stroke-opacity:1; fill:none" points="1430.29,1273.7 1430.29,1254.8 "/>
<polyline clip-path="url(#clip750)" style="stroke:#000000; stroke-linecap:round; stroke-linejoin:round; stroke-width:8; stroke-opacity:1; fill:none" points="1667.16,1273.7 1667.16,1254.8 "/>
<polyline clip-path="url(#clip750)" style="stroke:#000000; stroke-linecap:round; stroke-linejoin:round; stroke-width:8; stroke-opacity:1; fill:none" points="1904.02,1273.7 1904.02,1254.8 "/>
<polyline clip-path="url(#clip750)" style="stroke:#000000; stroke-linecap:round; stroke-linejoin:round; stroke-width:8; stroke-opacity:1; fill:none" points="2140.89,1273.7 2140.89,1254.8 "/>
<path clip-path="url(#clip750)" d="M674.464 1316.33 Q667.241 1316.33 663.584 1323.46 Q659.973 1330.55 659.973 1344.81 Q659.973 1359.02 663.584 1366.15 Q667.241 1373.23 674.464 1373.23 Q681.732 1373.23 685.343 1366.15 Q689.001 1359.02 689.001 1344.81 Q689.001 1330.55 685.343 1323.46 Q681.732 1316.33 674.464 1316.33 M674.464 1308.93 Q686.084 1308.93 692.195 1318.14 Q698.352 1327.31 698.352 1344.81 Q698.352 1362.26 692.195 1371.47 Q686.084 1380.64 674.464 1380.64 Q662.843 1380.64 656.686 1371.47 Q650.575 1362.26 650.575 1344.81 Q650.575 1327.31 656.686 1318.14 Q662.843 1308.93 674.464 1308.93 Z" fill="#000000" fill-rule="nonzero" fill-opacity="1" /><path clip-path="url(#clip750)" d="M714.787 1367.54 L724.556 1367.54 L724.556 1379.3 L714.787 1379.3 L714.787 1367.54 Z" fill="#000000" fill-rule="nonzero" fill-opacity="1" /><path clip-path="url(#clip750)" d="M764.926 1316.33 Q757.704 1316.33 754.046 1323.46 Q750.435 1330.55 750.435 1344.81 Q750.435 1359.02 754.046 1366.15 Q757.704 1373.23 764.926 1373.23 Q772.195 1373.23 775.806 1366.15 Q779.463 1359.02 779.463 1344.81 Q779.463 1330.55 775.806 1323.46 Q772.195 1316.33 764.926 1316.33 M764.926 1308.93 Q776.546 1308.93 782.657 1318.14 Q788.815 1327.31 788.815 1344.81 Q788.815 1362.26 782.657 1371.47 Q776.546 1380.64 764.926 1380.64 Q753.306 1380.64 747.148 1371.47 Q741.037 1362.26 741.037 1344.81 Q741.037 1327.31 747.148 1318.14 Q753.306 1308.93 764.926 1308.93 Z" fill="#000000" fill-rule="nonzero" fill-opacity="1" /><path clip-path="url(#clip750)" d="M912.927 1316.33 Q905.704 1316.33 902.047 1323.46 Q898.436 1330.55 898.436 1344.81 Q898.436 1359.02 902.047 1366.15 Q905.704 1373.23 912.927 1373.23 Q920.195 1373.23 923.806 1366.15 Q927.464 1359.02 927.464 1344.81 Q927.464 1330.55 923.806 1323.46 Q920.195 1316.33 912.927 1316.33 M912.927 1308.93 Q924.547 1308.93 930.658 1318.14 Q936.815 1327.31 936.815 1344.81 Q936.815 1362.26 930.658 1371.47 Q924.547 1380.64 912.927 1380.64 Q901.306 1380.64 895.149 1371.47 Q889.038 1362.26 889.038 1344.81 Q889.038 1327.31 895.149 1318.14 Q901.306 1308.93 912.927 1308.93 Z" fill="#000000" fill-rule="nonzero" fill-opacity="1" /><path clip-path="url(#clip750)" d="M953.251 1367.54 L963.019 1367.54 L963.019 1379.3 L953.251 1379.3 L953.251 1367.54 Z" fill="#000000" fill-rule="nonzero" fill-opacity="1" /><path clip-path="url(#clip750)" d="M991.445 1371.43 L1024.08 1371.43 L1024.08 1379.3 L980.195 1379.3 L980.195 1371.43 Q985.519 1365.92 994.685 1356.66 Q1003.9 1347.35 1006.26 1344.67 Q1010.75 1339.62 1012.51 1336.15 Q1014.32 1332.63 1014.32 1329.25 Q1014.32 1323.74 1010.43 1320.27 Q1006.58 1316.8 1000.38 1316.8 Q995.982 1316.8 991.074 1318.32 Q986.213 1319.85 980.658 1322.95 L980.658 1313.51 Q986.306 1311.24 991.213 1310.08 Q996.121 1308.93 1000.19 1308.93 Q1010.94 1308.93 1017.32 1314.3 Q1023.71 1319.67 1023.71 1328.65 Q1023.71 1332.91 1022.09 1336.75 Q1020.52 1340.55 1016.31 1345.73 Q1015.15 1347.07 1008.94 1353.51 Q1002.74 1359.9 991.445 1371.43 Z" fill="#000000" fill-rule="nonzero" fill-opacity="1" /><path clip-path="url(#clip750)" d="M1147.71 1316.33 Q1140.49 1316.33 1136.83 1323.46 Q1133.22 1330.55 1133.22 1344.81 Q1133.22 1359.02 1136.83 1366.15 Q1140.49 1373.23 1147.71 1373.23 Q1154.98 1373.23 1158.59 1366.15 Q1162.25 1359.02 1162.25 1344.81 Q1162.25 1330.55 1158.59 1323.46 Q1154.98 1316.33 1147.71 1316.33 M1147.71 1308.93 Q1159.33 1308.93 1165.44 1318.14 Q1171.6 1327.31 1171.6 1344.81 Q1171.6 1362.26 1165.44 1371.47 Q1159.33 1380.64 1147.71 1380.64 Q1136.09 1380.64 1129.93 1371.47 Q1123.82 1362.26 1123.82 1344.81 Q1123.82 1327.31 1129.93 1318.14 Q1136.09 1308.93 1147.71 1308.93 Z" fill="#000000" fill-rule="nonzero" fill-opacity="1" /><path clip-path="url(#clip750)" d="M1188.03 1367.54 L1197.8 1367.54 L1197.8 1379.3 L1188.03 1379.3 L1188.03 1367.54 Z" fill="#000000" fill-rule="nonzero" fill-opacity="1" /><path clip-path="url(#clip750)" d="M1243.87 1318.32 L1220.26 1355.22 L1243.87 1355.22 L1243.87 1318.32 M1241.41 1310.18 L1253.17 1310.18 L1253.17 1355.22 L1263.03 1355.22 L1263.03 1363 L1253.17 1363 L1253.17 1379.3 L1243.87 1379.3 L1243.87 1363 L1212.66 1363 L1212.66 1353.97 L1241.41 1310.18 Z" fill="#000000" fill-rule="nonzero" fill-opacity="1" /><path clip-path="url(#clip750)" d="M1384.9 1316.33 Q1377.68 1316.33 1374.02 1323.46 Q1370.41 1330.55 1370.41 1344.81 Q1370.41 1359.02 1374.02 1366.15 Q1377.68 1373.23 1384.9 1373.23 Q1392.17 1373.23 1395.78 1366.15 Q1399.44 1359.02 1399.44 1344.81 Q1399.44 1330.55 1395.78 1323.46 Q1392.17 1316.33 1384.9 1316.33 M1384.9 1308.93 Q1396.52 1308.93 1402.63 1318.14 Q1408.79 1327.31 1408.79 1344.81 Q1408.79 1362.26 1402.63 1371.47 Q1396.52 1380.64 1384.9 1380.64 Q1373.28 1380.64 1367.12 1371.47 Q1361.01 1362.26 1361.01 1344.81 Q1361.01 1327.31 1367.12 1318.14 Q1373.28 1308.93 1384.9 1308.93 Z" fill="#000000" fill-rule="nonzero" fill-opacity="1" /><path clip-path="url(#clip750)" d="M1425.22 1367.54 L1434.99 1367.54 L1434.99 1379.3 L1425.22 1379.3 L1425.22 1367.54 Z" fill="#000000" fill-rule="nonzero" fill-opacity="1" /><path clip-path="url(#clip750)" d="M1476.52 1341.01 Q1470.22 1341.01 1466.52 1345.31 Q1462.86 1349.62 1462.86 1357.12 Q1462.86 1364.57 1466.52 1368.93 Q1470.22 1373.23 1476.52 1373.23 Q1482.82 1373.23 1486.47 1368.93 Q1490.18 1364.57 1490.18 1357.12 Q1490.18 1349.62 1486.47 1345.31 Q1482.82 1341.01 1476.52 1341.01 M1495.08 1311.7 L1495.08 1320.22 Q1491.57 1318.56 1487.95 1317.68 Q1484.39 1316.8 1480.87 1316.8 Q1471.61 1316.8 1466.7 1323.05 Q1461.84 1329.3 1461.15 1341.93 Q1463.88 1337.91 1468 1335.78 Q1472.12 1333.6 1477.07 1333.6 Q1487.49 1333.6 1493.51 1339.94 Q1499.57 1346.24 1499.57 1357.12 Q1499.57 1367.77 1493.28 1374.2 Q1486.98 1380.64 1476.52 1380.64 Q1464.53 1380.64 1458.19 1371.47 Q1451.84 1362.26 1451.84 1344.81 Q1451.84 1328.42 1459.62 1318.69 Q1467.4 1308.93 1480.5 1308.93 Q1484.02 1308.93 1487.58 1309.62 Q1491.19 1310.31 1495.08 1311.7 Z" fill="#000000" fill-rule="nonzero" fill-opacity="1" /><path clip-path="url(#clip750)" d="M1622.02 1316.33 Q1614.8 1316.33 1611.14 1323.46 Q1607.53 1330.55 1607.53 1344.81 Q1607.53 1359.02 1611.14 1366.15 Q1614.8 1373.23 1622.02 1373.23 Q1629.29 1373.23 1632.9 1366.15 Q1636.56 1359.02 1636.56 1344.81 Q1636.56 1330.55 1632.9 1323.46 Q1629.29 1316.33 1622.02 1316.33 M1622.02 1308.93 Q1633.64 1308.93 1639.75 1318.14 Q1645.91 1327.31 1645.91 1344.81 Q1645.91 1362.26 1639.75 1371.47 Q1633.64 1380.64 1622.02 1380.64 Q1610.4 1380.64 1604.24 1371.47 Q1598.13 1362.26 1598.13 1344.81 Q1598.13 1327.31 1604.24 1318.14 Q1610.4 1308.93 1622.02 1308.93 Z" fill="#000000" fill-rule="nonzero" fill-opacity="1" /><path clip-path="url(#clip750)" d="M1662.34 1367.54 L1672.11 1367.54 L1672.11 1379.3 L1662.34 1379.3 L1662.34 1367.54 Z" fill="#000000" fill-rule="nonzero" fill-opacity="1" /><path clip-path="url(#clip750)" d="M1712.48 1346.47 Q1705.82 1346.47 1701.97 1350.04 Q1698.18 1353.6 1698.18 1359.85 Q1698.18 1366.1 1701.97 1369.67 Q1705.82 1373.23 1712.48 1373.23 Q1719.15 1373.23 1722.99 1369.67 Q1726.83 1366.06 1726.83 1359.85 Q1726.83 1353.6 1722.99 1350.04 Q1719.2 1346.47 1712.48 1346.47 M1703.13 1342.49 Q1697.11 1341.01 1693.73 1336.89 Q1690.4 1332.77 1690.4 1326.84 Q1690.4 1318.56 1696.28 1313.74 Q1702.2 1308.93 1712.48 1308.93 Q1722.81 1308.93 1728.69 1313.74 Q1734.57 1318.56 1734.57 1326.84 Q1734.57 1332.77 1731.19 1336.89 Q1727.85 1341.01 1721.88 1342.49 Q1728.64 1344.06 1732.39 1348.65 Q1736.19 1353.23 1736.19 1359.85 Q1736.19 1369.9 1730.03 1375.27 Q1723.92 1380.64 1712.48 1380.64 Q1701.05 1380.64 1694.89 1375.27 Q1688.78 1369.9 1688.78 1359.85 Q1688.78 1353.23 1692.57 1348.65 Q1696.37 1344.06 1703.13 1342.49 M1699.7 1327.72 Q1699.7 1333.09 1703.04 1336.1 Q1706.42 1339.11 1712.48 1339.11 Q1718.5 1339.11 1721.88 1336.1 Q1725.31 1333.09 1725.31 1327.72 Q1725.31 1322.35 1721.88 1319.34 Q1718.5 1316.33 1712.48 1316.33 Q1706.42 1316.33 1703.04 1319.34 Q1699.7 1322.35 1699.7 1327.72 Z" fill="#000000" fill-rule="nonzero" fill-opacity="1" /><path clip-path="url(#clip750)" d="M1838.33 1371.43 L1853.61 1371.43 L1853.61 1318.69 L1836.99 1322.03 L1836.99 1313.51 L1853.52 1310.18 L1862.87 1310.18 L1862.87 1371.43 L1878.14 1371.43 L1878.14 1379.3 L1838.33 1379.3 L1838.33 1371.43 Z" fill="#000000" fill-rule="nonzero" fill-opacity="1" /><path clip-path="url(#clip750)" d="M1897.03 1367.54 L1906.8 1367.54 L1906.8 1379.3 L1897.03 1379.3 L1897.03 1367.54 Z" fill="#000000" fill-rule="nonzero" fill-opacity="1" /><path clip-path="url(#clip750)" d="M1947.17 1316.33 Q1939.95 1316.33 1936.29 1323.46 Q1932.68 1330.55 1932.68 1344.81 Q1932.68 1359.02 1936.29 1366.15 Q1939.95 1373.23 1947.17 1373.23 Q1954.44 1373.23 1958.05 1366.15 Q1961.71 1359.02 1961.71 1344.81 Q1961.71 1330.55 1958.05 1323.46 Q1954.44 1316.33 1947.17 1316.33 M1947.17 1308.93 Q1958.79 1308.93 1964.9 1318.14 Q1971.06 1327.31 1971.06 1344.81 Q1971.06 1362.26 1964.9 1371.47 Q1958.79 1380.64 1947.17 1380.64 Q1935.55 1380.64 1929.39 1371.47 Q1923.28 1362.26 1923.28 1344.81 Q1923.28 1327.31 1929.39 1318.14 Q1935.55 1308.93 1947.17 1308.93 Z" fill="#000000" fill-rule="nonzero" fill-opacity="1" /><path clip-path="url(#clip750)" d="M2076.79 1371.43 L2092.07 1371.43 L2092.07 1318.69 L2075.45 1322.03 L2075.45 1313.51 L2091.98 1310.18 L2101.33 1310.18 L2101.33 1371.43 L2116.61 1371.43 L2116.61 1379.3 L2076.79 1379.3 L2076.79 1371.43 Z" fill="#000000" fill-rule="nonzero" fill-opacity="1" /><path clip-path="url(#clip750)" d="M2135.5 1367.54 L2145.27 1367.54 L2145.27 1379.3 L2135.5 1379.3 L2135.5 1367.54 Z" fill="#000000" fill-rule="nonzero" fill-opacity="1" /><path clip-path="url(#clip750)" d="M2173.69 1371.43 L2206.33 1371.43 L2206.33 1379.3 L2162.44 1379.3 L2162.44 1371.43 Q2167.76 1365.92 2176.93 1356.66 Q2186.14 1347.35 2188.51 1344.67 Q2193 1339.62 2194.76 1336.15 Q2196.56 1332.63 2196.56 1329.25 Q2196.56 1323.74 2192.67 1320.27 Q2188.83 1316.8 2182.63 1316.8 Q2178.23 1316.8 2173.32 1318.32 Q2168.46 1319.85 2162.9 1322.95 L2162.9 1313.51 Q2168.55 1311.24 2173.46 1310.08 Q2178.37 1308.93 2182.44 1308.93 Q2193.18 1308.93 2199.57 1314.3 Q2205.96 1319.67 2205.96 1328.65 Q2205.96 1332.91 2204.34 1336.75 Q2202.76 1340.55 2198.55 1345.73 Q2197.39 1347.07 2191.19 1353.51 Q2184.99 1359.9 2173.69 1371.43 Z" fill="#000000" fill-rule="nonzero" fill-opacity="1" /><path clip-path="url(#clip750)" d="M1375.05 1484.39 L1375.05 1527.42 L1363.34 1527.42 L1363.34 1484.77 Q1363.34 1474.65 1359.39 1469.62 Q1355.45 1464.59 1347.55 1464.59 Q1338.07 1464.59 1332.59 1470.64 Q1327.12 1476.69 1327.12 1487.13 L1327.12 1527.42 L1315.34 1527.42 L1315.34 1428.37 L1327.12 1428.37 L1327.12 1467.2 Q1331.32 1460.77 1336.99 1457.59 Q1342.72 1454.41 1350.16 1454.41 Q1362.45 1454.41 1368.75 1462.05 Q1375.05 1469.62 1375.05 1484.39 Z" fill="#000000" fill-rule="nonzero" fill-opacity="1" /><path clip-path="url(#clip750)" d="M1426.04 1464.34 Q1416.62 1464.34 1411.15 1471.72 Q1405.67 1479.04 1405.67 1491.84 Q1405.67 1504.63 1411.08 1512.02 Q1416.56 1519.34 1426.04 1519.34 Q1435.4 1519.34 1440.87 1511.96 Q1446.35 1504.57 1446.35 1491.84 Q1446.35 1479.17 1440.87 1471.79 Q1435.4 1464.34 1426.04 1464.34 M1426.04 1454.41 Q1441.32 1454.41 1450.04 1464.34 Q1458.76 1474.27 1458.76 1491.84 Q1458.76 1509.35 1450.04 1519.34 Q1441.32 1529.27 1426.04 1529.27 Q1410.7 1529.27 1401.98 1519.34 Q1393.32 1509.35 1393.32 1491.84 Q1393.32 1474.27 1401.98 1464.34 Q1410.7 1454.41 1426.04 1454.41 Z" fill="#000000" fill-rule="nonzero" fill-opacity="1" /><path clip-path="url(#clip750)" d="M1476.97 1499.29 L1476.97 1456.13 L1488.68 1456.13 L1488.68 1498.84 Q1488.68 1508.96 1492.63 1514.06 Q1496.57 1519.08 1504.47 1519.08 Q1513.95 1519.08 1519.43 1513.04 Q1524.97 1506.99 1524.97 1496.55 L1524.97 1456.13 L1536.68 1456.13 L1536.68 1527.42 L1524.97 1527.42 L1524.97 1516.47 Q1520.7 1522.97 1515.04 1526.15 Q1509.43 1529.27 1501.99 1529.27 Q1489.7 1529.27 1483.33 1521.63 Q1476.97 1513.99 1476.97 1499.29 M1506.44 1454.41 L1506.44 1454.41 Z" fill="#000000" fill-rule="nonzero" fill-opacity="1" /><path clip-path="url(#clip750)" d="M1602.12 1467.08 Q1600.14 1465.93 1597.79 1465.42 Q1595.5 1464.85 1592.7 1464.85 Q1582.77 1464.85 1577.42 1471.34 Q1572.14 1477.77 1572.14 1489.87 L1572.14 1527.42 L1560.36 1527.42 L1560.36 1456.13 L1572.14 1456.13 L1572.14 1467.2 Q1575.83 1460.71 1581.75 1457.59 Q1587.67 1454.41 1596.13 1454.41 Q1597.34 1454.41 1598.81 1454.6 Q1600.27 1454.73 1602.05 1455.05 L1602.12 1467.08 Z" fill="#000000" fill-rule="nonzero" fill-opacity="1" /><path clip-path="url(#clip750)" d="M1659.86 1458.23 L1659.86 1469.3 Q1654.89 1466.76 1649.54 1465.49 Q1644.2 1464.21 1638.47 1464.21 Q1629.75 1464.21 1625.35 1466.89 Q1621.02 1469.56 1621.02 1474.91 Q1621.02 1478.98 1624.14 1481.34 Q1627.26 1483.63 1636.68 1485.73 L1640.69 1486.62 Q1653.17 1489.29 1658.39 1494.19 Q1663.67 1499.03 1663.67 1507.75 Q1663.67 1517.68 1655.78 1523.48 Q1647.95 1529.27 1634.2 1529.27 Q1628.47 1529.27 1622.23 1528.12 Q1616.06 1527.04 1609.18 1524.81 L1609.18 1512.72 Q1615.68 1516.09 1621.98 1517.81 Q1628.28 1519.47 1634.46 1519.47 Q1642.73 1519.47 1647.19 1516.67 Q1651.64 1513.8 1651.64 1508.64 Q1651.64 1503.87 1648.4 1501.32 Q1645.21 1498.78 1634.33 1496.42 L1630.25 1495.47 Q1619.37 1493.18 1614.53 1488.47 Q1609.69 1483.69 1609.69 1475.42 Q1609.69 1465.36 1616.82 1459.88 Q1623.95 1454.41 1637.07 1454.41 Q1643.56 1454.41 1649.29 1455.36 Q1655.02 1456.32 1659.86 1458.23 Z" fill="#000000" fill-rule="nonzero" fill-opacity="1" /><polyline clip-path="url(#clip752)" style="stroke:#000000; stroke-linecap:round; stroke-linejoin:round; stroke-width:4; stroke-opacity:0.1; fill:none" points="673.506,1085.99 2305.51,1085.99 "/>
<polyline clip-path="url(#clip752)" style="stroke:#000000; stroke-linecap:round; stroke-linejoin:round; stroke-width:4; stroke-opacity:0.1; fill:none" points="673.506,867.726 2305.51,867.726 "/>
<polyline clip-path="url(#clip752)" style="stroke:#000000; stroke-linecap:round; stroke-linejoin:round; stroke-width:4; stroke-opacity:0.1; fill:none" points="673.506,649.458 2305.51,649.458 "/>
<polyline clip-path="url(#clip752)" style="stroke:#000000; stroke-linecap:round; stroke-linejoin:round; stroke-width:4; stroke-opacity:0.1; fill:none" points="673.506,431.189 2305.51,431.189 "/>
<polyline clip-path="url(#clip752)" style="stroke:#000000; stroke-linecap:round; stroke-linejoin:round; stroke-width:4; stroke-opacity:0.1; fill:none" points="673.506,212.921 2305.51,212.921 "/>
<polyline clip-path="url(#clip750)" style="stroke:#000000; stroke-linecap:round; stroke-linejoin:round; stroke-width:8; stroke-opacity:1; fill:none" points="673.506,1273.7 673.506,94.4882 "/>
<polyline clip-path="url(#clip750)" style="stroke:#000000; stroke-linecap:round; stroke-linejoin:round; stroke-width:8; stroke-opacity:1; fill:none" points="673.506,1085.99 692.404,1085.99 "/>
<polyline clip-path="url(#clip750)" style="stroke:#000000; stroke-linecap:round; stroke-linejoin:round; stroke-width:8; stroke-opacity:1; fill:none" points="673.506,867.726 692.404,867.726 "/>
<polyline clip-path="url(#clip750)" style="stroke:#000000; stroke-linecap:round; stroke-linejoin:round; stroke-width:8; stroke-opacity:1; fill:none" points="673.506,649.458 692.404,649.458 "/>
<polyline clip-path="url(#clip750)" style="stroke:#000000; stroke-linecap:round; stroke-linejoin:round; stroke-width:8; stroke-opacity:1; fill:none" points="673.506,431.189 692.404,431.189 "/>
<polyline clip-path="url(#clip750)" style="stroke:#000000; stroke-linecap:round; stroke-linejoin:round; stroke-width:8; stroke-opacity:1; fill:none" points="673.506,212.921 692.404,212.921 "/>
<path clip-path="url(#clip750)" d="M384.128 1112.68 L399.405 1112.68 L399.405 1059.95 L382.785 1063.29 L382.785 1054.77 L399.313 1051.43 L408.665 1051.43 L408.665 1112.68 L423.942 1112.68 L423.942 1120.55 L384.128 1120.55 L384.128 1112.68 Z" fill="#000000" fill-rule="nonzero" fill-opacity="1" /><path clip-path="url(#clip750)" d="M471.164 1083.29 Q477.877 1084.72 481.627 1089.26 Q485.423 1093.8 485.423 1100.46 Q485.423 1110.69 478.386 1116.3 Q471.349 1121.9 458.387 1121.9 Q454.035 1121.9 449.405 1121.02 Q444.822 1120.18 439.914 1118.47 L439.914 1109.44 Q443.803 1111.71 448.433 1112.87 Q453.063 1114.03 458.109 1114.03 Q466.905 1114.03 471.488 1110.56 Q476.118 1107.08 476.118 1100.46 Q476.118 1094.35 471.812 1090.93 Q467.553 1087.45 459.914 1087.45 L451.859 1087.45 L451.859 1079.77 L460.285 1079.77 Q467.183 1079.77 470.84 1077.04 Q474.498 1074.26 474.498 1069.07 Q474.498 1063.75 470.701 1060.93 Q466.951 1058.06 459.914 1058.06 Q456.072 1058.06 451.674 1058.89 Q447.276 1059.72 441.998 1061.48 L441.998 1053.15 Q447.322 1051.67 451.951 1050.93 Q456.627 1050.18 460.748 1050.18 Q471.396 1050.18 477.599 1055.05 Q483.803 1059.86 483.803 1068.1 Q483.803 1073.84 480.516 1077.82 Q477.229 1081.76 471.164 1083.29 Z" fill="#000000" fill-rule="nonzero" fill-opacity="1" /><path clip-path="url(#clip750)" d="M523.155 1057.59 Q515.933 1057.59 512.275 1064.72 Q508.664 1071.81 508.664 1086.06 Q508.664 1100.28 512.275 1107.41 Q515.933 1114.49 523.155 1114.49 Q530.423 1114.49 534.034 1107.41 Q537.692 1100.28 537.692 1086.06 Q537.692 1071.81 534.034 1064.72 Q530.423 1057.59 523.155 1057.59 M523.155 1050.18 Q534.775 1050.18 540.886 1059.4 Q547.043 1068.56 547.043 1086.06 Q547.043 1103.52 540.886 1112.73 Q534.775 1121.9 523.155 1121.9 Q511.534 1121.9 505.377 1112.73 Q499.266 1103.52 499.266 1086.06 Q499.266 1068.56 505.377 1059.4 Q511.534 1050.18 523.155 1050.18 Z" fill="#000000" fill-rule="nonzero" fill-opacity="1" /><path clip-path="url(#clip750)" d="M563.479 1108.8 L573.247 1108.8 L573.247 1120.55 L563.479 1120.55 L563.479 1108.8 Z" fill="#000000" fill-rule="nonzero" fill-opacity="1" /><path clip-path="url(#clip750)" d="M613.617 1057.59 Q606.395 1057.59 602.738 1064.72 Q599.127 1071.81 599.127 1086.06 Q599.127 1100.28 602.738 1107.41 Q606.395 1114.49 613.617 1114.49 Q620.886 1114.49 624.497 1107.41 Q628.154 1100.28 628.154 1086.06 Q628.154 1071.81 624.497 1064.72 Q620.886 1057.59 613.617 1057.59 M613.617 1050.18 Q625.238 1050.18 631.349 1059.4 Q637.506 1068.56 637.506 1086.06 Q637.506 1103.52 631.349 1112.73 Q625.238 1121.9 613.617 1121.9 Q601.997 1121.9 595.84 1112.73 Q589.728 1103.52 589.728 1086.06 Q589.728 1068.56 595.84 1059.4 Q601.997 1050.18 613.617 1050.18 Z" fill="#000000" fill-rule="nonzero" fill-opacity="1" /><path clip-path="url(#clip750)" d="M384.128 894.416 L399.405 894.416 L399.405 841.685 L382.785 845.018 L382.785 836.5 L399.313 833.166 L408.665 833.166 L408.665 894.416 L423.942 894.416 L423.942 902.286 L384.128 902.286 L384.128 894.416 Z" fill="#000000" fill-rule="nonzero" fill-opacity="1" /><path clip-path="url(#clip750)" d="M468.525 841.315 L444.914 878.212 L468.525 878.212 L468.525 841.315 M466.072 833.166 L477.831 833.166 L477.831 878.212 L487.692 878.212 L487.692 885.99 L477.831 885.99 L477.831 902.286 L468.525 902.286 L468.525 885.99 L437.322 885.99 L437.322 876.962 L466.072 833.166 Z" fill="#000000" fill-rule="nonzero" fill-opacity="1" /><path clip-path="url(#clip750)" d="M523.155 839.324 Q515.933 839.324 512.275 846.453 Q508.664 853.537 508.664 867.796 Q508.664 882.009 512.275 889.138 Q515.933 896.222 523.155 896.222 Q530.423 896.222 534.034 889.138 Q537.692 882.009 537.692 867.796 Q537.692 853.537 534.034 846.453 Q530.423 839.324 523.155 839.324 M523.155 831.916 Q534.775 831.916 540.886 841.129 Q547.043 850.296 547.043 867.796 Q547.043 885.249 540.886 894.462 Q534.775 903.629 523.155 903.629 Q511.534 903.629 505.377 894.462 Q499.266 885.249 499.266 867.796 Q499.266 850.296 505.377 841.129 Q511.534 831.916 523.155 831.916 Z" fill="#000000" fill-rule="nonzero" fill-opacity="1" /><path clip-path="url(#clip750)" d="M563.479 890.527 L573.247 890.527 L573.247 902.286 L563.479 902.286 L563.479 890.527 Z" fill="#000000" fill-rule="nonzero" fill-opacity="1" /><path clip-path="url(#clip750)" d="M613.617 839.324 Q606.395 839.324 602.738 846.453 Q599.127 853.537 599.127 867.796 Q599.127 882.009 602.738 889.138 Q606.395 896.222 613.617 896.222 Q620.886 896.222 624.497 889.138 Q628.154 882.009 628.154 867.796 Q628.154 853.537 624.497 846.453 Q620.886 839.324 613.617 839.324 M613.617 831.916 Q625.238 831.916 631.349 841.129 Q637.506 850.296 637.506 867.796 Q637.506 885.249 631.349 894.462 Q625.238 903.629 613.617 903.629 Q601.997 903.629 595.84 894.462 Q589.728 885.249 589.728 867.796 Q589.728 850.296 595.84 841.129 Q601.997 831.916 613.617 831.916 Z" fill="#000000" fill-rule="nonzero" fill-opacity="1" /><path clip-path="url(#clip750)" d="M384.128 676.148 L399.405 676.148 L399.405 623.416 L382.785 626.75 L382.785 618.231 L399.313 614.898 L408.665 614.898 L408.665 676.148 L423.942 676.148 L423.942 684.018 L384.128 684.018 L384.128 676.148 Z" fill="#000000" fill-rule="nonzero" fill-opacity="1" /><path clip-path="url(#clip750)" d="M442.924 614.898 L479.636 614.898 L479.636 622.768 L451.488 622.768 L451.488 639.713 Q453.525 639.018 455.562 638.694 Q457.6 638.324 459.637 638.324 Q471.211 638.324 477.97 644.666 Q484.729 651.009 484.729 661.842 Q484.729 672.999 477.785 679.203 Q470.84 685.36 458.201 685.36 Q453.85 685.36 449.313 684.62 Q444.822 683.879 440.007 682.397 L440.007 672.999 Q444.174 675.268 448.618 676.379 Q453.063 677.49 458.016 677.49 Q466.025 677.49 470.701 673.277 Q475.377 669.064 475.377 661.842 Q475.377 654.62 470.701 650.407 Q466.025 646.194 458.016 646.194 Q454.266 646.194 450.516 647.027 Q446.813 647.861 442.924 649.62 L442.924 614.898 Z" fill="#000000" fill-rule="nonzero" fill-opacity="1" /><path clip-path="url(#clip750)" d="M523.155 621.055 Q515.933 621.055 512.275 628.185 Q508.664 635.268 508.664 649.527 Q508.664 663.74 512.275 670.87 Q515.933 677.953 523.155 677.953 Q530.423 677.953 534.034 670.87 Q537.692 663.74 537.692 649.527 Q537.692 635.268 534.034 628.185 Q530.423 621.055 523.155 621.055 M523.155 613.648 Q534.775 613.648 540.886 622.861 Q547.043 632.027 547.043 649.527 Q547.043 666.981 540.886 676.194 Q534.775 685.36 523.155 685.36 Q511.534 685.36 505.377 676.194 Q499.266 666.981 499.266 649.527 Q499.266 632.027 505.377 622.861 Q511.534 613.648 523.155 613.648 Z" fill="#000000" fill-rule="nonzero" fill-opacity="1" /><path clip-path="url(#clip750)" d="M563.479 672.259 L573.247 672.259 L573.247 684.018 L563.479 684.018 L563.479 672.259 Z" fill="#000000" fill-rule="nonzero" fill-opacity="1" /><path clip-path="url(#clip750)" d="M613.617 621.055 Q606.395 621.055 602.738 628.185 Q599.127 635.268 599.127 649.527 Q599.127 663.74 602.738 670.87 Q606.395 677.953 613.617 677.953 Q620.886 677.953 624.497 670.87 Q628.154 663.74 628.154 649.527 Q628.154 635.268 624.497 628.185 Q620.886 621.055 613.617 621.055 M613.617 613.648 Q625.238 613.648 631.349 622.861 Q637.506 632.027 637.506 649.527 Q637.506 666.981 631.349 676.194 Q625.238 685.36 613.617 685.36 Q601.997 685.36 595.84 676.194 Q589.728 666.981 589.728 649.527 Q589.728 632.027 595.84 622.861 Q601.997 613.648 613.617 613.648 Z" fill="#000000" fill-rule="nonzero" fill-opacity="1" /><path clip-path="url(#clip750)" d="M384.128 457.879 L399.405 457.879 L399.405 405.148 L382.785 408.481 L382.785 399.963 L399.313 396.629 L408.665 396.629 L408.665 457.879 L423.942 457.879 L423.942 465.749 L384.128 465.749 L384.128 457.879 Z" fill="#000000" fill-rule="nonzero" fill-opacity="1" /><path clip-path="url(#clip750)" d="M463.988 427.462 Q457.692 427.462 453.988 431.768 Q450.331 436.073 450.331 443.573 Q450.331 451.027 453.988 455.379 Q457.692 459.684 463.988 459.684 Q470.285 459.684 473.942 455.379 Q477.646 451.027 477.646 443.573 Q477.646 436.073 473.942 431.768 Q470.285 427.462 463.988 427.462 M482.553 398.157 L482.553 406.675 Q479.035 405.009 475.424 404.129 Q471.859 403.25 468.34 403.25 Q459.081 403.25 454.174 409.5 Q449.313 415.75 448.618 428.388 Q451.35 424.361 455.47 422.231 Q459.59 420.055 464.544 420.055 Q474.961 420.055 480.979 426.398 Q487.044 432.694 487.044 443.573 Q487.044 454.222 480.748 460.657 Q474.451 467.092 463.988 467.092 Q451.998 467.092 445.655 457.925 Q439.313 448.712 439.313 431.259 Q439.313 414.87 447.09 405.148 Q454.868 395.379 467.97 395.379 Q471.488 395.379 475.053 396.074 Q478.664 396.768 482.553 398.157 Z" fill="#000000" fill-rule="nonzero" fill-opacity="1" /><path clip-path="url(#clip750)" d="M523.155 402.787 Q515.933 402.787 512.275 409.916 Q508.664 417 508.664 431.259 Q508.664 445.472 512.275 452.601 Q515.933 459.684 523.155 459.684 Q530.423 459.684 534.034 452.601 Q537.692 445.472 537.692 431.259 Q537.692 417 534.034 409.916 Q530.423 402.787 523.155 402.787 M523.155 395.379 Q534.775 395.379 540.886 404.592 Q547.043 413.759 547.043 431.259 Q547.043 448.712 540.886 457.925 Q534.775 467.092 523.155 467.092 Q511.534 467.092 505.377 457.925 Q499.266 448.712 499.266 431.259 Q499.266 413.759 505.377 404.592 Q511.534 395.379 523.155 395.379 Z" fill="#000000" fill-rule="nonzero" fill-opacity="1" /><path clip-path="url(#clip750)" d="M563.479 453.99 L573.247 453.99 L573.247 465.749 L563.479 465.749 L563.479 453.99 Z" fill="#000000" fill-rule="nonzero" fill-opacity="1" /><path clip-path="url(#clip750)" d="M613.617 402.787 Q606.395 402.787 602.738 409.916 Q599.127 417 599.127 431.259 Q599.127 445.472 602.738 452.601 Q606.395 459.684 613.617 459.684 Q620.886 459.684 624.497 452.601 Q628.154 445.472 628.154 431.259 Q628.154 417 624.497 409.916 Q620.886 402.787 613.617 402.787 M613.617 395.379 Q625.238 395.379 631.349 404.592 Q637.506 413.759 637.506 431.259 Q637.506 448.712 631.349 457.925 Q625.238 467.092 613.617 467.092 Q601.997 467.092 595.84 457.925 Q589.728 448.712 589.728 431.259 Q589.728 413.759 595.84 404.592 Q601.997 395.379 613.617 395.379 Z" fill="#000000" fill-rule="nonzero" fill-opacity="1" /><path clip-path="url(#clip750)" d="M384.128 239.61 L399.405 239.61 L399.405 186.879 L382.785 190.212 L382.785 181.694 L399.313 178.361 L408.665 178.361 L408.665 239.61 L423.942 239.61 L423.942 247.481 L384.128 247.481 L384.128 239.61 Z" fill="#000000" fill-rule="nonzero" fill-opacity="1" /><path clip-path="url(#clip750)" d="M440.47 178.361 L484.914 178.361 L484.914 182.342 L459.822 247.481 L450.053 247.481 L473.664 186.231 L440.47 186.231 L440.47 178.361 Z" fill="#000000" fill-rule="nonzero" fill-opacity="1" /><path clip-path="url(#clip750)" d="M523.155 184.518 Q515.933 184.518 512.275 191.648 Q508.664 198.731 508.664 212.99 Q508.664 227.203 512.275 234.333 Q515.933 241.416 523.155 241.416 Q530.423 241.416 534.034 234.333 Q537.692 227.203 537.692 212.99 Q537.692 198.731 534.034 191.648 Q530.423 184.518 523.155 184.518 M523.155 177.111 Q534.775 177.111 540.886 186.324 Q547.043 195.49 547.043 212.99 Q547.043 230.444 540.886 239.657 Q534.775 248.823 523.155 248.823 Q511.534 248.823 505.377 239.657 Q499.266 230.444 499.266 212.99 Q499.266 195.49 505.377 186.324 Q511.534 177.111 523.155 177.111 Z" fill="#000000" fill-rule="nonzero" fill-opacity="1" /><path clip-path="url(#clip750)" d="M563.479 235.721 L573.247 235.721 L573.247 247.481 L563.479 247.481 L563.479 235.721 Z" fill="#000000" fill-rule="nonzero" fill-opacity="1" /><path clip-path="url(#clip750)" d="M613.617 184.518 Q606.395 184.518 602.738 191.648 Q599.127 198.731 599.127 212.99 Q599.127 227.203 602.738 234.333 Q606.395 241.416 613.617 241.416 Q620.886 241.416 624.497 234.333 Q628.154 227.203 628.154 212.99 Q628.154 198.731 624.497 191.648 Q620.886 184.518 613.617 184.518 M613.617 177.111 Q625.238 177.111 631.349 186.324 Q637.506 195.49 637.506 212.99 Q637.506 230.444 631.349 239.657 Q625.238 248.823 613.617 248.823 Q601.997 248.823 595.84 239.657 Q589.728 230.444 589.728 212.99 Q589.728 195.49 595.84 186.324 Q601.997 177.111 613.617 177.111 Z" fill="#000000" fill-rule="nonzero" fill-opacity="1" /><path clip-path="url(#clip750)" d="M307.579 931.718 L345.391 931.718 L345.391 943.495 L246.977 943.495 L246.977 931.718 L257.799 931.718 Q251.433 928.026 248.378 922.424 Q245.258 916.759 245.258 908.929 Q245.258 895.943 255.571 887.858 Q265.883 879.71 282.689 879.71 Q299.494 879.71 309.807 887.858 Q320.119 895.943 320.119 908.929 Q320.119 916.759 317.064 922.424 Q313.944 928.026 307.579 931.718 M282.689 891.869 Q269.766 891.869 262.446 897.216 Q255.062 902.499 255.062 911.793 Q255.062 921.087 262.446 926.434 Q269.766 931.718 282.689 931.718 Q295.611 931.718 302.995 926.434 Q310.316 921.087 310.316 911.793 Q310.316 902.499 302.995 897.216 Q295.611 891.869 282.689 891.869 Z" fill="#000000" fill-rule="nonzero" fill-opacity="1" /><path clip-path="url(#clip750)" d="M282.434 827.893 Q282.434 842.089 285.681 847.563 Q288.927 853.038 296.757 853.038 Q302.995 853.038 306.688 848.964 Q310.316 844.826 310.316 837.76 Q310.316 828.021 303.441 822.164 Q296.502 816.244 285.044 816.244 L282.434 816.244 L282.434 827.893 M277.596 804.531 L318.273 804.531 L318.273 816.244 L307.451 816.244 Q313.944 820.254 317.064 826.238 Q320.119 832.222 320.119 840.879 Q320.119 851.828 314.008 858.321 Q307.833 864.751 297.521 864.751 Q285.49 864.751 279.379 856.73 Q273.268 848.645 273.268 832.668 L273.268 816.244 L272.122 816.244 Q264.037 816.244 259.645 821.591 Q255.189 826.875 255.189 836.487 Q255.189 842.598 256.653 848.391 Q258.117 854.184 261.045 859.531 L250.224 859.531 Q247.741 853.101 246.532 847.054 Q245.258 841.007 245.258 835.278 Q245.258 819.809 253.279 812.17 Q261.3 804.531 277.596 804.531 Z" fill="#000000" fill-rule="nonzero" fill-opacity="1" /><path clip-path="url(#clip750)" d="M257.926 739.092 Q256.78 741.065 256.271 743.42 Q255.698 745.712 255.698 748.513 Q255.698 758.443 262.191 763.791 Q268.621 769.074 280.715 769.074 L318.273 769.074 L318.273 780.851 L246.977 780.851 L246.977 769.074 L258.054 769.074 Q251.561 765.382 248.441 759.462 Q245.258 753.542 245.258 745.075 Q245.258 743.866 245.449 742.402 Q245.577 740.938 245.895 739.155 L257.926 739.092 Z" fill="#000000" fill-rule="nonzero" fill-opacity="1" /><path clip-path="url(#clip750)" d="M279.697 668.687 L285.426 668.687 L285.426 722.541 Q297.521 721.777 303.887 715.284 Q310.189 708.727 310.189 697.078 Q310.189 690.33 308.534 684.028 Q306.878 677.663 303.568 671.424 L314.645 671.424 Q317.318 677.726 318.719 684.347 Q320.119 690.967 320.119 697.778 Q320.119 714.838 310.189 724.832 Q300.258 734.763 283.325 734.763 Q265.82 734.763 255.571 725.342 Q245.258 715.857 245.258 699.815 Q245.258 685.429 254.552 677.09 Q263.783 668.687 279.697 668.687 M276.259 680.4 Q266.647 680.527 260.918 685.811 Q255.189 691.031 255.189 699.688 Q255.189 709.491 260.727 715.411 Q266.265 721.268 276.323 722.159 L276.259 680.4 Z" fill="#000000" fill-rule="nonzero" fill-opacity="1" /><path clip-path="url(#clip750)" d="M275.241 590.198 L318.273 590.198 L318.273 601.911 L275.623 601.911 Q265.501 601.911 260.472 605.857 Q255.444 609.804 255.444 617.698 Q255.444 627.183 261.491 632.657 Q267.538 638.132 277.978 638.132 L318.273 638.132 L318.273 649.908 L246.977 649.908 L246.977 638.132 L258.054 638.132 Q251.624 633.93 248.441 628.265 Q245.258 622.536 245.258 615.088 Q245.258 602.802 252.897 596.5 Q260.472 590.198 275.241 590.198 Z" fill="#000000" fill-rule="nonzero" fill-opacity="1" /><path clip-path="url(#clip750)" d="M302.104 565.181 L302.104 551.749 L318.273 551.749 L318.273 565.181 L302.104 565.181 Z" fill="#000000" fill-rule="nonzero" fill-opacity="1" /><path clip-path="url(#clip750)" d="M223.233 482.172 L223.233 431.692 L234.055 431.692 L234.055 470.395 L257.353 470.395 Q256.398 467.594 255.953 464.793 Q255.444 461.992 255.444 459.192 Q255.444 443.277 264.165 433.983 Q272.886 424.689 287.781 424.689 Q303.123 424.689 311.653 434.238 Q320.119 443.787 320.119 461.165 Q320.119 467.149 319.101 473.387 Q318.082 479.562 316.045 486.182 L303.123 486.182 Q306.242 480.453 307.77 474.342 Q309.297 468.231 309.297 461.42 Q309.297 450.407 303.505 443.978 Q297.712 437.548 287.781 437.548 Q277.851 437.548 272.058 443.978 Q266.265 450.407 266.265 461.42 Q266.265 466.576 267.411 471.732 Q268.557 476.825 270.976 482.172 L223.233 482.172 Z" fill="#000000" fill-rule="nonzero" fill-opacity="1" /><polyline clip-path="url(#clip752)" style="stroke:#008000; stroke-linecap:round; stroke-linejoin:round; stroke-width:8; stroke-opacity:1; fill:none" points="719.695,194.924 838.128,427.668 956.561,591.438 1074.99,664.019 1193.43,550.987 1311.86,565.203 1430.29,719.772 1548.73,816.763 1667.16,663.511 1785.59,1005.27 1904.02,1067.86 2022.46,1008.41 2140.89,1096.57 2259.32,1240.32 "/>
<circle clip-path="url(#clip752)" cx="719.695" cy="194.924" r="14.4" fill="#008000" fill-rule="evenodd" fill-opacity="1" stroke="#000000" stroke-opacity="1" stroke-width="6.4"/>
<circle clip-path="url(#clip752)" cx="838.128" cy="427.668" r="14.4" fill="#008000" fill-rule="evenodd" fill-opacity="1" stroke="#000000" stroke-opacity="1" stroke-width="6.4"/>
<circle clip-path="url(#clip752)" cx="956.561" cy="591.438" r="14.4" fill="#008000" fill-rule="evenodd" fill-opacity="1" stroke="#000000" stroke-opacity="1" stroke-width="6.4"/>
<circle clip-path="url(#clip752)" cx="1074.99" cy="664.019" r="14.4" fill="#008000" fill-rule="evenodd" fill-opacity="1" stroke="#000000" stroke-opacity="1" stroke-width="6.4"/>
<circle clip-path="url(#clip752)" cx="1193.43" cy="550.987" r="14.4" fill="#008000" fill-rule="evenodd" fill-opacity="1" stroke="#000000" stroke-opacity="1" stroke-width="6.4"/>
<circle clip-path="url(#clip752)" cx="1311.86" cy="565.203" r="14.4" fill="#008000" fill-rule="evenodd" fill-opacity="1" stroke="#000000" stroke-opacity="1" stroke-width="6.4"/>
<circle clip-path="url(#clip752)" cx="1430.29" cy="719.772" r="14.4" fill="#008000" fill-rule="evenodd" fill-opacity="1" stroke="#000000" stroke-opacity="1" stroke-width="6.4"/>
<circle clip-path="url(#clip752)" cx="1548.73" cy="816.763" r="14.4" fill="#008000" fill-rule="evenodd" fill-opacity="1" stroke="#000000" stroke-opacity="1" stroke-width="6.4"/>
<circle clip-path="url(#clip752)" cx="1667.16" cy="663.511" r="14.4" fill="#008000" fill-rule="evenodd" fill-opacity="1" stroke="#000000" stroke-opacity="1" stroke-width="6.4"/>
<circle clip-path="url(#clip752)" cx="1785.59" cy="1005.27" r="14.4" fill="#008000" fill-rule="evenodd" fill-opacity="1" stroke="#000000" stroke-opacity="1" stroke-width="6.4"/>
<circle clip-path="url(#clip752)" cx="1904.02" cy="1067.86" r="14.4" fill="#008000" fill-rule="evenodd" fill-opacity="1" stroke="#000000" stroke-opacity="1" stroke-width="6.4"/>
<circle clip-path="url(#clip752)" cx="2022.46" cy="1008.41" r="14.4" fill="#008000" fill-rule="evenodd" fill-opacity="1" stroke="#000000" stroke-opacity="1" stroke-width="6.4"/>
<circle clip-path="url(#clip752)" cx="2140.89" cy="1096.57" r="14.4" fill="#008000" fill-rule="evenodd" fill-opacity="1" stroke="#000000" stroke-opacity="1" stroke-width="6.4"/>
<circle clip-path="url(#clip752)" cx="2259.32" cy="1240.32" r="14.4" fill="#008000" fill-rule="evenodd" fill-opacity="1" stroke="#000000" stroke-opacity="1" stroke-width="6.4"/>
<polyline clip-path="url(#clip752)" style="stroke:#00008b; stroke-linecap:round; stroke-linejoin:round; stroke-width:8; stroke-opacity:1; fill:none" points="719.695,194.458 838.128,354.252 956.561,424.311 1074.99,480.324 1193.43,541.072 1311.86,594.441 1430.29,664.373 1548.73,721.679 1667.16,777.703 1785.59,851.542 1904.02,913.63 2022.46,978.583 2140.89,1038.72 2259.32,1103.55 "/>
<path clip-path="url(#clip752)" d="M719.695 258.42 L838.128 420.275 L956.561 488.566 L1074.99 546.754 L1193.43 607.573 L1311.86 659.538 L1430.29 728.008 L1548.73 790.208 L1667.16 842.799 L1785.59 916.916 L1904.02 980.502 L2022.46 1044.26 L2140.89 1101.46 L2259.32 1167.05 L2259.32 1038.73 L2140.89 973.715 L2022.46 911.621 L1904.02 844.287 L1785.59 786.469 L1667.16 711.698 L1548.73 654.493 L1430.29 597.462 L1311.86 531.755 L1193.43 475.27 L1074.99 413.079 L956.561 358.937 L838.128 289.034 L719.695 127.862  Z" fill="#0000ff" fill-rule="evenodd" fill-opacity="0.1"/>
<polyline clip-path="url(#clip752)" style="stroke:#0000ff; stroke-linecap:round; stroke-linejoin:round; stroke-width:0; stroke-opacity:0.1; fill:none" points="719.695,258.42 838.128,420.275 956.561,488.566 1074.99,546.754 1193.43,607.573 1311.86,659.538 1430.29,728.008 1548.73,790.208 1667.16,842.799 1785.59,916.916 1904.02,980.502 2022.46,1044.26 2140.89,1101.46 2259.32,1167.05 "/>
</svg>
