<?xml version="1.0" encoding="utf-8"?>
<svg xmlns="http://www.w3.org/2000/svg" xmlns:xlink="http://www.w3.org/1999/xlink" width="600" height="400" viewBox="0 0 2400 1600">
<defs>
  <clipPath id="clip010">
    <rect x="0" y="0" width="2400" height="1600"/>
  </clipPath>
</defs>
<path clip-path="url(#clip010)" d="M0 1600 L2400 1600 L2400 0 L0 0  Z" fill="#ffffff" fill-rule="evenodd" fill-opacity="1"/>
<defs>
  <clipPath id="clip011">
    <rect x="480" y="0" width="1681" height="1600"/>
  </clipPath>
</defs>
<path clip-path="url(#clip010)" d="M673.506 1273.7 L2305.51 1273.7 L2305.51 94.4882 L673.506 94.4882  Z" fill="#ffffff" fill-rule="evenodd" fill-opacity="1"/>
<defs>
  <clipPath id="clip012">
    <rect x="673" y="94" width="1633" height="1180"/>
  </clipPath>
</defs>
<polyline clip-path="url(#clip012)" style="stroke:#000000; stroke-linecap:round; stroke-linejoin:round; stroke-width:4; stroke-opacity:0.1; fill:none" points="719.695,1273.7 719.695,94.4882 "/>
<polyline clip-path="url(#clip012)" style="stroke:#000000; stroke-linecap:round; stroke-linejoin:round; stroke-width:4; stroke-opacity:0.1; fill:none" points="956.561,1273.7 956.561,94.4882 "/>
<polyline clip-path="url(#clip012)" style="stroke:#000000; stroke-linecap:round; stroke-linejoin:round; stroke-width:4; stroke-opacity:0.1; fill:none" points="1193.43,1273.7 1193.43,94.4882 "/>
<polyline clip-path="url(#clip012)" style="stroke:#000000; stroke-linecap:round; stroke-linejoin:round; stroke-width:4; stroke-opacity:0.1; fill:none" points="1430.29,1273.7 1430.29,94.4882 "/>
<polyline clip-path="url(#clip012)" style="stroke:#000000; stroke-linecap:round; stroke-linejoin:round; stroke-width:4; stroke-opacity:0.1; fill:none" points="1667.16,1273.7 1667.16,94.4882 "/>
<polyline clip-path="url(#clip012)" style="stroke:#000000; stroke-linecap:round; stroke-linejoin:round; stroke-width:4; stroke-opacity:0.1; fill:none" points="1904.02,1273.7 1904.02,94.4882 "/>
<polyline clip-path="url(#clip012)" style="stroke:#000000; stroke-linecap:round; stroke-linejoin:round; stroke-width:4; stroke-opacity:0.1; fill:none" points="2140.89,1273.7 2140.89,94.4882 "/>
<polyline clip-path="url(#clip010)" style="stroke:#000000; stroke-linecap:round; stroke-linejoin:round; stroke-width:8; stroke-opacity:1; fill:none" points="673.506,1273.7 2305.51,1273.7 "/>
<polyline clip-path="url(#clip010)" style="stroke:#000000; stroke-linecap:round; stroke-linejoin:round; stroke-width:8; stroke-opacity:1; fill:none" points="719.695,1273.7 719.695,1254.8 "/>
<polyline clip-path="url(#clip010)" style="stroke:#000000; stroke-linecap:round; stroke-linejoin:round; stroke-width:8; stroke-opacity:1; fill:none" points="956.561,1273.7 956.561,1254.8 "/>
<polyline clip-path="url(#clip010)" style="stroke:#000000; stroke-linecap:round; stroke-linejoin:round; stroke-width:8; stroke-opacity:1; fill:none" points="1193.43,1273.7 1193.43,1254.8 "/>
<polyline clip-path="url(#clip010)" style="stroke:#000000; stroke-linecap:round; stroke-linejoin:round; stroke-width:8; stroke-opacity:1; fill:none" points="1430.29,1273.7 1430.29,1254.8 "/>
<polyline clip-path="url(#clip010)" style="stroke:#000000; stroke-linecap:round; stroke-linejoin:round; stroke-width:8; stroke-opacity:1; fill:none" points="1667.16,1273.7 1667.16,1254.8 "/>
<polyline clip-path="url(#clip010)" style="stroke:#000000; stroke-linecap:round; stroke-linejoin:round; stroke-width:8; stroke-opacity:1; fill:none" points="1904.02,1273.7 1904.02,1254.8 "/>
<polyline clip-path="url(#clip010)" style="stroke:#000000; stroke-linecap:round; stroke-linejoin:round; stroke-width:8; stroke-opacity:1; fill:none" points="2140.89,1273.7 2140.89,1254.8 "/>
<path clip-path="url(#clip010)" d="M674.464 1316.33 Q667.241 1316.33 663.584 1323.46 Q659.973 1330.55 659.973 1344.81 Q659.973 1359.02 663.584 1366.15 Q667.241 1373.23 674.464 1373.23 Q681.732 1373.23 685.343 1366.15 Q689.001 1359.02 689.001 1344.81 Q689.001 1330.55 685.343 1323.46 Q681.732 1316.33 674.464 1316.33 M674.464 1308.93 Q686.084 1308.93 692.195 1318.14 Q698.352 1327.31 698.352 1344.81 Q698.352 1362.26 692.195 1371.47 Q686.084 1380.64 674.464 1380.64 Q662.843 1380.64 656.686 1371.47 Q650.575 1362.26 650.575 1344.81 Q650.575 1327.31 656.686 1318.14 Q662.843 1308.93 674.464 1308.93 Z" fill="#000000" fill-rule="nonzero" fill-opacity="1" /><path clip-path="url(#clip010)" d="M714.787 1367.54 L724.556 1367.54 L724.556 1379.3 L714.787 1379.3 L714.787 1367.54 Z" fill="#000000" fill-rule="nonzero" fill-opacity="1" /><path clip-path="url(#clip010)" d="M764.926 1316.33 Q757.704 1316.33 754.046 1323.46 Q750.435 1330.55 750.435 1344.81 Q750.435 1359.02 754.046 1366.15 Q757.704 1373.23 764.926 1373.23 Q772.195 1373.23 775.806 1366.15 Q779.463 1359.02 779.463 1344.81 Q779.463 1330.55 775.806 1323.46 Q772.195 1316.33 764.926 1316.33 M764.926 1308.93 Q776.546 1308.93 782.657 1318.14 Q788.815 1327.31 788.815 1344.81 Q788.815 1362.26 782.657 1371.47 Q776.546 1380.64 764.926 1380.64 Q753.306 1380.64 747.148 1371.47 Q741.037 1362.26 741.037 1344.81 Q741.037 1327.31 747.148 1318.14 Q753.306 1308.93 764.926 1308.93 Z" fill="#000000" fill-rule="nonzero" fill-opacity="1" /><path clip-path="url(#clip010)" d="M912.927 1316.33 Q905.704 1316.33 902.047 1323.46 Q898.436 1330.55 898.436 1344.81 Q898.436 1359.02 902.047 1366.15 Q905.704 1373.23 912.927 1373.23 Q920.195 1373.23 923.806 1366.15 Q927.464 1359.02 927.464 1344.81 Q927.464 1330.55 923.806 1323.46 Q920.195 1316.33 912.927 1316.33 M912.927 1308.93 Q924.547 1308.93 930.658 1318.14 Q936.815 1327.31 936.815 1344.81 Q936.815 1362.26 930.658 1371.47 Q924.547 1380.64 912.927 1380.64 Q901.306 1380.64 895.149 1371.47 Q889.038 1362.26 889.038 1344.81 Q889.038 1327.31 895.149 1318.14 Q901.306 1308.93 912.927 1308.93 Z" fill="#000000" fill-rule="nonzero" fill-opacity="1" /><path clip-path="url(#clip010)" d="M953.251 1367.54 L963.019 1367.54 L963.019 1379.3 L953.251 1379.3 L953.251 1367.54 Z" fill="#000000" fill-rule="nonzero" fill-opacity="1" /><path clip-path="url(#clip010)" d="M991.445 1371.43 L1024.08 1371.43 L1024.08 1379.3 L980.195 1379.3 L980.195 1371.43 Q985.519 1365.92 994.685 1356.66 Q1003.9 1347.35 1006.26 1344.67 Q1010.75 1339.62 1012.51 1336.15 Q1014.32 1332.63 1014.32 1329.25 Q1014.32 1323.74 1010.43 1320.27 Q1006.58 1316.8 1000.38 1316.8 Q995.982 1316.8 991.074 1318.32 Q986.213 1319.85 980.658 1322.95 L980.658 1313.51 Q986.306 1311.24 991.213 1310.08 Q996.121 1308.93 1000.19 1308.93 Q1010.94 1308.93 1017.32 1314.3 Q1023.71 1319.67 1023.71 1328.65 Q1023.71 1332.91 1022.09 1336.75 Q1020.52 1340.55 1016.31 1345.73 Q1015.15 1347.07 1008.94 1353.51 Q1002.74 1359.9 991.445 1371.43 Z" fill="#000000" fill-rule="nonzero" fill-opacity="1" /><path clip-path="url(#clip010)" d="M1147.71 1316.33 Q1140.49 1316.33 1136.83 1323.46 Q1133.22 1330.55 1133.22 1344.81 Q1133.22 1359.02 1136.83 1366.15 Q1140.49 1373.23 1147.71 1373.23 Q1154.98 1373.23 1158.59 1366.15 Q1162.25 1359.02 1162.25 1344.81 Q1162.25 1330.55 1158.59 1323.46 Q1154.98 1316.33 1147.71 1316.33 M1147.71 1308.93 Q1159.33 1308.93 1165.44 1318.14 Q1171.6 1327.31 1171.6 1344.81 Q1171.6 1362.26 1165.44 1371.47 Q1159.33 1380.64 1147.71 1380.64 Q1136.09 1380.64 1129.93 1371.47 Q1123.82 1362.26 1123.82 1344.81 Q1123.82 1327.31 1129.93 1318.14 Q1136.09 1308.93 1147.71 1308.93 Z" fill="#000000" fill-rule="nonzero" fill-opacity="1" /><path clip-path="url(#clip010)" d="M1188.03 1367.54 L1197.8 1367.54 L1197.8 1379.3 L1188.03 1379.3 L1188.03 1367.54 Z" fill="#000000" fill-rule="nonzero" fill-opacity="1" /><path clip-path="url(#clip010)" d="M1243.87 1318.32 L1220.26 1355.22 L1243.87 1355.22 L1243.87 1318.32 M1241.41 1310.18 L1253.17 1310.18 L1253.17 1355.22 L1263.03 1355.22 L1263.03 1363 L1253.17 1363 L1253.17 1379.3 L1243.87 1379.3 L1243.87 1363 L1212.66 1363 L1212.66 1353.97 L1241.41 1310.18 Z" fill="#000000" fill-rule="nonzero" fill-opacity="1" /><path clip-path="url(#clip010)" d="M1384.9 1316.33 Q1377.68 1316.33 1374.02 1323.46 Q1370.41 1330.55 1370.41 1344.81 Q1370.41 1359.02 1374.02 1366.15 Q1377.68 1373.23 1384.9 1373.23 Q1392.17 1373.23 1395.78 1366.15 Q1399.44 1359.02 1399.44 1344.81 Q1399.44 1330.55 1395.78 1323.46 Q1392.17 1316.33 1384.9 1316.33 M1384.9 1308.93 Q1396.52 1308.93 1402.63 1318.14 Q1408.79 1327.31 1408.79 1344.81 Q1408.79 1362.26 1402.63 1371.47 Q1396.52 1380.64 1384.9 1380.64 Q1373.28 1380.64 1367.12 1371.47 Q1361.01 1362.26 1361.01 1344.81 Q1361.01 1327.31 1367.12 1318.14 Q1373.28 1308.93 1384.9 1308.93 Z" fill="#000000" fill-rule="nonzero" fill-opacity="1" /><path clip-path="url(#clip010)" d="M1425.22 1367.54 L1434.99 1367.54 L1434.99 1379.3 L1425.22 1379.3 L1425.22 1367.54 Z" fill="#000000" fill-rule="nonzero" fill-opacity="1" /><path clip-path="url(#clip010)" d="M1476.52 1341.01 Q1470.22 1341.01 1466.52 1345.31 Q1462.86 1349.62 1462.86 1357.12 Q1462.86 1364.57 1466.52 1368.93 Q1470.22 1373.23 1476.52 1373.23 Q1482.82 1373.23 1486.47 1368.93 Q1490.18 1364.57 1490.18 1357.12 Q1490.18 1349.62 1486.47 1345.31 Q1482.82 1341.01 1476.52 1341.01 M1495.08 1311.7 L1495.08 1320.22 Q1491.57 1318.56 1487.95 1317.68 Q1484.39 1316.8 1480.87 1316.8 Q1471.61 1316.8 1466.7 1323.05 Q1461.84 1329.3 1461.15 1341.93 Q1463.88 1337.91 1468 1335.78 Q1472.12 1333.6 1477.07 1333.6 Q1487.49 1333.6 1493.51 1339.94 Q1499.57 1346.24 1499.57 1357.12 Q1499.57 1367.77 1493.28 1374.2 Q1486.98 1380.64 1476.52 1380.64 Q1464.53 1380.64 1458.19 1371.47 Q1451.84 1362.26 1451.84 1344.81 Q1451.84 1328.42 1459.62 1318.69 Q1467.4 1308.93 1480.5 1308.93 Q1484.02 1308.93 1487.58 1309.62 Q1491.19 1310.31 1495.08 1311.7 Z" fill="#000000" fill-rule="nonzero" fill-opacity="1" /><path clip-path="url(#clip010)" d="M1622.02 1316.33 Q1614.8 1316.33 1611.14 1323.46 Q1607.53 1330.55 1607.53 1344.81 Q1607.53 1359.02 1611.14 1366.15 Q1614.8 1373.23 1622.02 1373.23 Q1629.29 1373.23 1632.9 1366.15 Q1636.56 1359.02 1636.56 1344.81 Q1636.56 1330.55 1632.9 1323.46 Q1629.29 1316.33 1622.02 1316.33 M1622.02 1308.93 Q1633.64 1308.93 1639.75 1318.14 Q1645.91 1327.31 1645.91 1344.81 Q1645.91 1362.26 1639.75 1371.47 Q1633.64 1380.64 1622.02 1380.64 Q1610.4 1380.64 1604.24 1371.47 Q1598.13 1362.26 1598.13 1344.81 Q1598.13 1327.31 1604.24 1318.14 Q1610.4 1308.93 1622.02 1308.93 Z" fill="#000000" fill-rule="nonzero" fill-opacity="1" /><path clip-path="url(#clip010)" d="M1662.34 1367.54 L1672.11 1367.54 L1672.11 1379.3 L1662.34 1379.3 L1662.34 1367.54 Z" fill="#000000" fill-rule="nonzero" fill-opacity="1" /><path clip-path="url(#clip010)" d="M1712.48 1346.47 Q1705.82 1346.47 1701.97 1350.04 Q1698.18 1353.6 1698.18 1359.85 Q1698.18 1366.1 1701.97 1369.67 Q1705.82 1373.23 1712.48 1373.23 Q1719.15 1373.23 1722.99 1369.67 Q1726.83 1366.06 1726.83 1359.85 Q1726.83 1353.6 1722.99 1350.04 Q1719.2 1346.47 1712.48 1346.47 M1703.13 1342.49 Q1697.11 1341.01 1693.73 1336.89 Q1690.4 1332.77 1690.4 1326.84 Q1690.4 1318.56 1696.28 1313.74 Q1702.2 1308.93 1712.48 1308.93 Q1722.81 1308.93 1728.69 1313.74 Q1734.57 1318.56 1734.57 1326.84 Q1734.57 1332.77 1731.19 1336.89 Q1727.85 1341.01 1721.88 1342.49 Q1728.64 1344.06 1732.39 1348.65 Q1736.19 1353.23 1736.19 1359.85 Q1736.19 1369.9 1730.03 1375.27 Q1723.92 1380.64 1712.48 1380.64 Q1701.05 1380.64 1694.89 1375.27 Q1688.78 1369.9 1688.78 1359.85 Q1688.78 1353.23 1692.57 1348.65 Q1696.37 1344.06 1703.13 1342.49 M1699.7 1327.72 Q1699.7 1333.09 1703.04 1336.1 Q1706.42 1339.11 1712.48 1339.11 Q1718.5 1339.11 1721.88 1336.1 Q1725.31 1333.09 1725.31 1327.72 Q1725.31 1322.35 1721.88 1319.34 Q1718.5 1316.33 1712.48 1316.33 Q1706.42 1316.33 1703.04 1319.34 Q1699.7 1322.35 1699.7 1327.72 Z" fill="#000000" fill-rule="nonzero" fill-opacity="1" /><path clip-path="url(#clip010)" d="M1838.33 1371.43 L1853.61 1371.43 L1853.61 1318.69 L1836.99 1322.03 L1836.99 1313.51 L1853.52 1310.18 L1862.87 1310.18 L1862.87 1371.43 L1878.14 1371.43 L1878.14 1379.3 L1838.33 1379.3 L1838.33 1371.43 Z" fill="#000000" fill-rule="nonzero" fill-opacity="1" /><path clip-path="url(#clip010)" d="M1897.03 1367.54 L1906.8 1367.54 L1906.8 1379.3 L1897.03 1379.3 L1897.03 1367.54 Z" fill="#000000" fill-rule="nonzero" fill-opacity="1" /><path clip-path="url(#clip010)" d="M1947.17 1316.33 Q1939.95 1316.33 1936.29 1323.46 Q1932.68 1330.55 1932.68 1344.81 Q1932.68 1359.02 1936.29 1366.15 Q1939.95 1373.23 1947.17 1373.23 Q1954.44 1373.23 1958.05 1366.15 Q1961.71 1359.02 1961.71 1344.81 Q1961.71 1330.55 1958.05 1323.46 Q1954.44 1316.33 1947.17 1316.33 M1947.17 1308.93 Q1958.79 1308.93 1964.9 1318.14 Q1971.06 1327.31 1971.06 1344.81 Q1971.06 1362.26 1964.9 1371.47 Q1958.79 1380.64 1947.17 1380.64 Q1935.55 1380.64 1929.39 1371.47 Q1923.28 1362.26 1923.28 1344.81 Q1923.28 1327.31 1929.39 1318.14 Q1935.55 1308.93 1947.17 1308.93 Z" fill="#000000" fill-rule="nonzero" fill-opacity="1" /><path clip-path="url(#clip010)" d="M2076.79 1371.43 L2092.07 1371.43 L2092.07 1318.69 L2075.45 1322.03 L2075.45 1313.51 L2091.98 1310.18 L2101.33 1310.18 L2101.33 1371.43 L2116.61 1371.43 L2116.61 1379.3 L2076.79 1379.3 L2076.79 1371.43 Z" fill="#000000" fill-rule="nonzero" fill-opacity="1" /><path clip-path="url(#clip010)" d="M2135.5 1367.54 L2145.27 1367.54 L2145.27 1379.3 L2135.5 1379.3 L2135.5 1367.54 Z" fill="#000000" fill-rule="nonzero" fill-opacity="1" /><path clip-path="url(#clip010)" d="M2173.69 1371.43 L2206.33 1371.43 L2206.33 1379.3 L2162.44 1379.3 L2162.44 1371.43 Q2167.76 1365.92 2176.93 1356.66 Q2186.14 1347.35 2188.51 1344.67 Q2193 1339.62 2194.76 1336.15 Q2196.56 1332.63 2196.56 1329.25 Q2196.56 1323.74 2192.67 1320.27 Q2188.83 1316.8 2182.63 1316.8 Q2178.23 1316.8 2173.32 1318.32 Q2168.46 1319.85 2162.9 1322.95 L2162.9 1313.51 Q2168.55 1311.24 2173.46 1310.08 Q2178.37 1308.93 2182.44 1308.93 Q2193.18 1308.93 2199.57 1314.3 Q2205.96 1319.67 2205.96 1328.65 Q2205.96 1332.91 2204.34 1336.75 Q2202.76 1340.55 2198.55 1345.73 Q2197.39 1347.07 2191.19 1353.51 Q2184.99 1359.9 2173.69 1371.43 Z" fill="#000000" fill-rule="nonzero" fill-opacity="1" /><path clip-path="url(#clip010)" d="M1375.05 1484.39 L1375.05 1527.42 L1363.34 1527.42 L1363.34 1484.77 Q1363.34 1474.65 1359.39 1469.62 Q1355.45 1464.59 1347.55 1464.59 Q1338.07 1464.59 1332.59 1470.64 Q1327.12 1476.69 1327.12 1487.13 L1327.12 1527.42 L1315.34 1527.42 L1315.34 1428.37 L1327.12 1428.37 L1327.12 1467.2 Q1331.32 1460.77 1336.99 1457.59 Q1342.72 1454.41 1350.16 1454.41 Q1362.45 1454.41 1368.75 1462.05 Q1375.05 1469.62 1375.05 1484.39 Z" fill="#000000" fill-rule="nonzero" fill-opacity="1" /><path clip-path="url(#clip010)" d="M1426.04 1464.34 Q1416.62 1464.34 1411.15 1471.72 Q1405.67 1479.04 1405.67 1491.84 Q1405.67 1504.63 1411.08 1512.02 Q1416.56 1519.34 1426.04 1519.34 Q1435.4 1519.34 1440.87 1511.96 Q1446.35 1504.57 1446.35 1491.84 Q1446.35 1479.17 1440.87 1471.79 Q1435.4 1464.34 1426.04 1464.34 M1426.04 1454.41 Q1441.32 1454.41 1450.04 1464.34 Q1458.76 1474.27 1458.76 1491.84 Q1458.76 1509.35 1450.04 1519.34 Q1441.32 1529.27 1426.04 1529.27 Q1410.7 1529.27 1401.98 1519.34 Q1393.32 1509.35 1393.32 1491.84 Q1393.32 1474.27 1401.98 1464.34 Q1410.7 1454.41 1426.04 1454.41 Z" fill="#000000" fill-rule="nonzero" fill-opacity="1" /><path clip-path="url(#clip010)" d="M1476.97 1499.29 L1476.97 1456.13 L1488.68 1456.13 L1488.68 1498.84 Q1488.68 1508.96 1492.63 1514.06 Q1496.57 1519.08 1504.47 1519.08 Q1513.95 1519.08 1519.43 1513.04 Q1524.97 1506.99 1524.97 1496.55 L1524.97 1456.13 L1536.68 1456.13 L1536.68 1527.42 L1524.97 1527.42 L1524.97 1516.47 Q1520.7 1522.97 1515.04 1526.15 Q1509.43 1529.27 1501.99 1529.27 Q1489.7 1529.27 1483.33 1521.63 Q1476.97 1513.99 1476.97 1499.29 M1506.44 1454.41 L1506.44 1454.41 Z" fill="#000000" fill-rule="nonzero" fill-opacity="1" /><path clip-path="url(#clip010)" d="M1602.12 1467.08 Q1600.14 1465.93 1597.79 1465.42 Q1595.5 1464.85 1592.7 1464.85 Q1582.77 1464.85 1577.42 1471.34 Q1572.14 1477.77 1572.14 1489.87 L1572.14 1527.42 L1560.36 1527.42 L1560.36 1456.13 L1572.14 1456.13 L1572.14 1467.2 Q1575.83 1460.71 1581.75 1457.59 Q1587.67 1454.41 1596.13 1454.41 Q1597.34 1454.41 1598.81 1454.6 Q1600.27 1454.73 1602.05 1455.05 L1602.12 1467.08 Z" fill="#000000" fill-rule="nonzero" fill-opacity="1" /><path clip-path="url(#clip010)" d="M1659.86 1458.23 L1659.86 1469.3 Q1654.89 1466.76 1649.54 1465.49 Q1644.2 1464.21 1638.47 1464.21 Q1629.75 1464.21 1625.35 1466.89 Q1621.02 1469.56 1621.02 1474.91 Q1621.02 1478.98 1624.14 1481.34 Q1627.26 1483.63 1636.68 1485.73 L1640.69 1486.62 Q1653.17 1489.29 1658.39 1494.19 Q1663.67 1499.03 1663.67 1507.75 Q1663.67 1517.68 1655.78 1523.48 Q1647.95 1529.27 1634.2 1529.27 Q1628.47 1529.27 1622.23 1528.12 Q1616.06 1527.04 1609.18 1524.81 L1609.18 1512.72 Q1615.68 1516.09 1621.98 1517.81 Q1628.28 1519.47 1634.46 1519.47 Q1642.73 1519.47 1647.19 1516.67 Q1651.64 1513.8 1651.64 1508.64 Q1651.64 1503.87 1648.4 1501.32 Q1645.21 1498.78 1634.33 1496.42 L1630.25 1495.47 Q1619.37 1493.18 1614.53 1488.47 Q1609.69 1483.69 1609.69 1475.42 Q1609.69 1465.36 1616.82 1459.88 Q1623.95 1454.41 1637.07 1454.41 Q1643.56 1454.41 1649.29 1455.36 Q1655.02 1456.32 1659.86 1458.23 Z" fill="#000000" fill-rule="nonzero" fill-opacity="1" /><polyline clip-path="url(#clip012)" style="stroke:#000000; stroke-linecap:round; stroke-linejoin:round; stroke-width:4; stroke-opacity:0.1; fill:none" points="673.506,1073.73 2305.51,1073.73 "/>
<polyline clip-path="url(#clip012)" style="stroke:#000000; stroke-linecap:round; stroke-linejoin:round; stroke-width:4; stroke-opacity:0.1; fill:none" points="673.506,841.622 2305.51,841.622 "/>
<polyline clip-path="url(#clip012)" style="stroke:#000000; stroke-linecap:round; stroke-linejoin:round; stroke-width:4; stroke-opacity:0.1; fill:none" points="673.506,609.514 2305.51,609.514 "/>
<polyline clip-path="url(#clip012)" style="stroke:#000000; stroke-linecap:round; stroke-linejoin:round; stroke-width:4; stroke-opacity:0.1; fill:none" points="673.506,377.405 2305.51,377.405 "/>
<polyline clip-path="url(#clip012)" style="stroke:#000000; stroke-linecap:round; stroke-linejoin:round; stroke-width:4; stroke-opacity:0.1; fill:none" points="673.506,145.297 2305.51,145.297 "/>
<polyline clip-path="url(#clip010)" style="stroke:#000000; stroke-linecap:round; stroke-linejoin:round; stroke-width:8; stroke-opacity:1; fill:none" points="673.506,1273.7 673.506,94.4882 "/>
<polyline clip-path="url(#clip010)" style="stroke:#000000; stroke-linecap:round; stroke-linejoin:round; stroke-width:8; stroke-opacity:1; fill:none" points="673.506,1073.73 692.404,1073.73 "/>
<polyline clip-path="url(#clip010)" style="stroke:#000000; stroke-linecap:round; stroke-linejoin:round; stroke-width:8; stroke-opacity:1; fill:none" points="673.506,841.622 692.404,841.622 "/>
<polyline clip-path="url(#clip010)" style="stroke:#000000; stroke-linecap:round; stroke-linejoin:round; stroke-width:8; stroke-opacity:1; fill:none" points="673.506,609.514 692.404,609.514 "/>
<polyline clip-path="url(#clip010)" style="stroke:#000000; stroke-linecap:round; stroke-linejoin:round; stroke-width:8; stroke-opacity:1; fill:none" points="673.506,377.405 692.404,377.405 "/>
<polyline clip-path="url(#clip010)" style="stroke:#000000; stroke-linecap:round; stroke-linejoin:round; stroke-width:8; stroke-opacity:1; fill:none" points="673.506,145.297 692.404,145.297 "/>
<path clip-path="url(#clip010)" d="M384.128 1100.42 L399.405 1100.42 L399.405 1047.69 L382.785 1051.02 L382.785 1042.5 L399.313 1039.17 L408.665 1039.17 L408.665 1100.42 L423.942 1100.42 L423.942 1108.29 L384.128 1108.29 L384.128 1100.42 Z" fill="#000000" fill-rule="nonzero" fill-opacity="1" /><path clip-path="url(#clip010)" d="M462.831 1045.33 Q455.609 1045.33 451.951 1052.46 Q448.34 1059.54 448.34 1073.8 Q448.34 1088.01 451.951 1095.14 Q455.609 1102.23 462.831 1102.23 Q470.099 1102.23 473.711 1095.14 Q477.368 1088.01 477.368 1073.8 Q477.368 1059.54 473.711 1052.46 Q470.099 1045.33 462.831 1045.33 M462.831 1037.92 Q474.451 1037.92 480.562 1047.13 Q486.72 1056.3 486.72 1073.8 Q486.72 1091.25 480.562 1100.47 Q474.451 1109.63 462.831 1109.63 Q451.211 1109.63 445.053 1100.47 Q438.942 1091.25 438.942 1073.8 Q438.942 1056.3 445.053 1047.13 Q451.211 1037.92 462.831 1037.92 Z" fill="#000000" fill-rule="nonzero" fill-opacity="1" /><path clip-path="url(#clip010)" d="M523.155 1045.33 Q515.933 1045.33 512.275 1052.46 Q508.664 1059.54 508.664 1073.8 Q508.664 1088.01 512.275 1095.14 Q515.933 1102.23 523.155 1102.23 Q530.423 1102.23 534.034 1095.14 Q537.692 1088.01 537.692 1073.8 Q537.692 1059.54 534.034 1052.46 Q530.423 1045.33 523.155 1045.33 M523.155 1037.92 Q534.775 1037.92 540.886 1047.13 Q547.043 1056.3 547.043 1073.8 Q547.043 1091.25 540.886 1100.47 Q534.775 1109.63 523.155 1109.63 Q511.534 1109.63 505.377 1100.47 Q499.266 1091.25 499.266 1073.8 Q499.266 1056.3 505.377 1047.13 Q511.534 1037.92 523.155 1037.92 Z" fill="#000000" fill-rule="nonzero" fill-opacity="1" /><path clip-path="url(#clip010)" d="M563.479 1096.53 L573.247 1096.53 L573.247 1108.29 L563.479 1108.29 L563.479 1096.53 Z" fill="#000000" fill-rule="nonzero" fill-opacity="1" /><path clip-path="url(#clip010)" d="M613.617 1045.33 Q606.395 1045.33 602.738 1052.46 Q599.127 1059.54 599.127 1073.8 Q599.127 1088.01 602.738 1095.14 Q606.395 1102.23 613.617 1102.23 Q620.886 1102.23 624.497 1095.14 Q628.154 1088.01 628.154 1073.8 Q628.154 1059.54 624.497 1052.46 Q620.886 1045.33 613.617 1045.33 M613.617 1037.92 Q625.238 1037.92 631.349 1047.13 Q637.506 1056.3 637.506 1073.8 Q637.506 1091.25 631.349 1100.47 Q625.238 1109.63 613.617 1109.63 Q601.997 1109.63 595.84 1100.47 Q589.728 1091.25 589.728 1073.8 Q589.728 1056.3 595.84 1047.13 Q601.997 1037.92 613.617 1037.92 Z" fill="#000000" fill-rule="nonzero" fill-opacity="1" /><path clip-path="url(#clip010)" d="M384.128 868.312 L399.405 868.312 L399.405 815.58 L382.785 818.914 L382.785 810.395 L399.313 807.062 L408.665 807.062 L408.665 868.312 L423.942 868.312 L423.942 876.182 L384.128 876.182 L384.128 868.312 Z" fill="#000000" fill-rule="nonzero" fill-opacity="1" /><path clip-path="url(#clip010)" d="M450.887 868.312 L483.525 868.312 L483.525 876.182 L439.637 876.182 L439.637 868.312 Q444.961 862.802 454.127 853.543 Q463.34 844.238 465.701 841.552 Q470.192 836.506 471.951 833.034 Q473.757 829.516 473.757 826.136 Q473.757 820.627 469.868 817.154 Q466.025 813.682 459.822 813.682 Q455.424 813.682 450.516 815.21 Q445.655 816.738 440.1 819.84 L440.1 810.395 Q445.748 808.127 450.655 806.969 Q455.562 805.812 459.637 805.812 Q470.377 805.812 476.766 811.182 Q483.155 816.553 483.155 825.534 Q483.155 829.793 481.535 833.636 Q479.961 837.432 475.748 842.617 Q474.59 843.96 468.387 850.395 Q462.183 856.784 450.887 868.312 Z" fill="#000000" fill-rule="nonzero" fill-opacity="1" /><path clip-path="url(#clip010)" d="M523.155 813.219 Q515.933 813.219 512.275 820.349 Q508.664 827.432 508.664 841.691 Q508.664 855.904 512.275 863.034 Q515.933 870.117 523.155 870.117 Q530.423 870.117 534.034 863.034 Q537.692 855.904 537.692 841.691 Q537.692 827.432 534.034 820.349 Q530.423 813.219 523.155 813.219 M523.155 805.812 Q534.775 805.812 540.886 815.025 Q547.043 824.191 547.043 841.691 Q547.043 859.145 540.886 868.358 Q534.775 877.525 523.155 877.525 Q511.534 877.525 505.377 868.358 Q499.266 859.145 499.266 841.691 Q499.266 824.191 505.377 815.025 Q511.534 805.812 523.155 805.812 Z" fill="#000000" fill-rule="nonzero" fill-opacity="1" /><path clip-path="url(#clip010)" d="M563.479 864.423 L573.247 864.423 L573.247 876.182 L563.479 876.182 L563.479 864.423 Z" fill="#000000" fill-rule="nonzero" fill-opacity="1" /><path clip-path="url(#clip010)" d="M613.617 813.219 Q606.395 813.219 602.738 820.349 Q599.127 827.432 599.127 841.691 Q599.127 855.904 602.738 863.034 Q606.395 870.117 613.617 870.117 Q620.886 870.117 624.497 863.034 Q628.154 855.904 628.154 841.691 Q628.154 827.432 624.497 820.349 Q620.886 813.219 613.617 813.219 M613.617 805.812 Q625.238 805.812 631.349 815.025 Q637.506 824.191 637.506 841.691 Q637.506 859.145 631.349 868.358 Q625.238 877.525 613.617 877.525 Q601.997 877.525 595.84 868.358 Q589.728 859.145 589.728 841.691 Q589.728 824.191 595.84 815.025 Q601.997 805.812 613.617 805.812 Z" fill="#000000" fill-rule="nonzero" fill-opacity="1" /><path clip-path="url(#clip010)" d="M384.128 636.203 L399.405 636.203 L399.405 583.472 L382.785 586.805 L382.785 578.287 L399.313 574.954 L408.665 574.954 L408.665 636.203 L423.942 636.203 L423.942 644.074 L384.128 644.074 L384.128 636.203 Z" fill="#000000" fill-rule="nonzero" fill-opacity="1" /><path clip-path="url(#clip010)" d="M468.525 583.102 L444.914 620 L468.525 620 L468.525 583.102 M466.072 574.954 L477.831 574.954 L477.831 620 L487.692 620 L487.692 627.777 L477.831 627.777 L477.831 644.074 L468.525 644.074 L468.525 627.777 L437.322 627.777 L437.322 618.75 L466.072 574.954 Z" fill="#000000" fill-rule="nonzero" fill-opacity="1" /><path clip-path="url(#clip010)" d="M523.155 581.111 Q515.933 581.111 512.275 588.24 Q508.664 595.324 508.664 609.583 Q508.664 623.796 512.275 630.925 Q515.933 638.009 523.155 638.009 Q530.423 638.009 534.034 630.925 Q537.692 623.796 537.692 609.583 Q537.692 595.324 534.034 588.24 Q530.423 581.111 523.155 581.111 M523.155 573.704 Q534.775 573.704 540.886 582.916 Q547.043 592.083 547.043 609.583 Q547.043 627.037 540.886 636.25 Q534.775 645.416 523.155 645.416 Q511.534 645.416 505.377 636.25 Q499.266 627.037 499.266 609.583 Q499.266 592.083 505.377 582.916 Q511.534 573.704 523.155 573.704 Z" fill="#000000" fill-rule="nonzero" fill-opacity="1" /><path clip-path="url(#clip010)" d="M563.479 632.314 L573.247 632.314 L573.247 644.074 L563.479 644.074 L563.479 632.314 Z" fill="#000000" fill-rule="nonzero" fill-opacity="1" /><path clip-path="url(#clip010)" d="M613.617 581.111 Q606.395 581.111 602.738 588.24 Q599.127 595.324 599.127 609.583 Q599.127 623.796 602.738 630.925 Q606.395 638.009 613.617 638.009 Q620.886 638.009 624.497 630.925 Q628.154 623.796 628.154 609.583 Q628.154 595.324 624.497 588.24 Q620.886 581.111 613.617 581.111 M613.617 573.704 Q625.238 573.704 631.349 582.916 Q637.506 592.083 637.506 609.583 Q637.506 627.037 631.349 636.25 Q625.238 645.416 613.617 645.416 Q601.997 645.416 595.84 636.25 Q589.728 627.037 589.728 609.583 Q589.728 592.083 595.84 582.916 Q601.997 573.704 613.617 573.704 Z" fill="#000000" fill-rule="nonzero" fill-opacity="1" /><path clip-path="url(#clip010)" d="M384.128 404.095 L399.405 404.095 L399.405 351.364 L382.785 354.697 L382.785 346.178 L399.313 342.845 L408.665 342.845 L408.665 404.095 L423.942 404.095 L423.942 411.965 L384.128 411.965 L384.128 404.095 Z" fill="#000000" fill-rule="nonzero" fill-opacity="1" /><path clip-path="url(#clip010)" d="M463.988 373.678 Q457.692 373.678 453.988 377.984 Q450.331 382.289 450.331 389.789 Q450.331 397.243 453.988 401.595 Q457.692 405.9 463.988 405.9 Q470.285 405.9 473.942 401.595 Q477.646 397.243 477.646 389.789 Q477.646 382.289 473.942 377.984 Q470.285 373.678 463.988 373.678 M482.553 344.373 L482.553 352.891 Q479.035 351.225 475.424 350.345 Q471.859 349.465 468.34 349.465 Q459.081 349.465 454.174 355.715 Q449.313 361.965 448.618 374.604 Q451.35 370.576 455.47 368.447 Q459.59 366.271 464.544 366.271 Q474.961 366.271 480.979 372.614 Q487.044 378.91 487.044 389.789 Q487.044 400.437 480.748 406.873 Q474.451 413.308 463.988 413.308 Q451.998 413.308 445.655 404.141 Q439.313 394.928 439.313 377.475 Q439.313 361.086 447.09 351.364 Q454.868 341.595 467.97 341.595 Q471.488 341.595 475.053 342.29 Q478.664 342.984 482.553 344.373 Z" fill="#000000" fill-rule="nonzero" fill-opacity="1" /><path clip-path="url(#clip010)" d="M523.155 349.003 Q515.933 349.003 512.275 356.132 Q508.664 363.215 508.664 377.475 Q508.664 391.687 512.275 398.817 Q515.933 405.9 523.155 405.9 Q530.423 405.9 534.034 398.817 Q537.692 391.687 537.692 377.475 Q537.692 363.215 534.034 356.132 Q530.423 349.003 523.155 349.003 M523.155 341.595 Q534.775 341.595 540.886 350.808 Q547.043 359.975 547.043 377.475 Q547.043 394.928 540.886 404.141 Q534.775 413.308 523.155 413.308 Q511.534 413.308 505.377 404.141 Q499.266 394.928 499.266 377.475 Q499.266 359.975 505.377 350.808 Q511.534 341.595 523.155 341.595 Z" fill="#000000" fill-rule="nonzero" fill-opacity="1" /><path clip-path="url(#clip010)" d="M563.479 400.206 L573.247 400.206 L573.247 411.965 L563.479 411.965 L563.479 400.206 Z" fill="#000000" fill-rule="nonzero" fill-opacity="1" /><path clip-path="url(#clip010)" d="M613.617 349.003 Q606.395 349.003 602.738 356.132 Q599.127 363.215 599.127 377.475 Q599.127 391.687 602.738 398.817 Q606.395 405.9 613.617 405.9 Q620.886 405.9 624.497 398.817 Q628.154 391.687 628.154 377.475 Q628.154 363.215 624.497 356.132 Q620.886 349.003 613.617 349.003 M613.617 341.595 Q625.238 341.595 631.349 350.808 Q637.506 359.975 637.506 377.475 Q637.506 394.928 631.349 404.141 Q625.238 413.308 613.617 413.308 Q601.997 413.308 595.84 404.141 Q589.728 394.928 589.728 377.475 Q589.728 359.975 595.84 350.808 Q601.997 341.595 613.617 341.595 Z" fill="#000000" fill-rule="nonzero" fill-opacity="1" /><path clip-path="url(#clip010)" d="M384.128 171.986 L399.405 171.986 L399.405 119.255 L382.785 122.589 L382.785 114.07 L399.313 110.737 L408.665 110.737 L408.665 171.986 L423.942 171.986 L423.942 179.857 L384.128 179.857 L384.128 171.986 Z" fill="#000000" fill-rule="nonzero" fill-opacity="1" /><path clip-path="url(#clip010)" d="M462.831 147.033 Q456.164 147.033 452.322 150.598 Q448.525 154.162 448.525 160.412 Q448.525 166.662 452.322 170.227 Q456.164 173.792 462.831 173.792 Q469.498 173.792 473.34 170.227 Q477.183 166.616 477.183 160.412 Q477.183 154.162 473.34 150.598 Q469.544 147.033 462.831 147.033 M453.479 143.051 Q447.461 141.57 444.081 137.45 Q440.748 133.329 440.748 127.403 Q440.748 119.116 446.627 114.302 Q452.553 109.487 462.831 109.487 Q473.155 109.487 479.035 114.302 Q484.914 119.116 484.914 127.403 Q484.914 133.329 481.535 137.45 Q478.201 141.57 472.229 143.051 Q478.988 144.625 482.738 149.209 Q486.535 153.792 486.535 160.412 Q486.535 170.459 480.377 175.829 Q474.266 181.199 462.831 181.199 Q451.396 181.199 445.238 175.829 Q439.127 170.459 439.127 160.412 Q439.127 153.792 442.924 149.209 Q446.72 144.625 453.479 143.051 M450.053 128.283 Q450.053 133.653 453.387 136.663 Q456.766 139.672 462.831 139.672 Q468.849 139.672 472.229 136.663 Q475.655 133.653 475.655 128.283 Q475.655 122.913 472.229 119.903 Q468.849 116.894 462.831 116.894 Q456.766 116.894 453.387 119.903 Q450.053 122.913 450.053 128.283 Z" fill="#000000" fill-rule="nonzero" fill-opacity="1" /><path clip-path="url(#clip010)" d="M523.155 116.894 Q515.933 116.894 512.275 124.024 Q508.664 131.107 508.664 145.366 Q508.664 159.579 512.275 166.709 Q515.933 173.792 523.155 173.792 Q530.423 173.792 534.034 166.709 Q537.692 159.579 537.692 145.366 Q537.692 131.107 534.034 124.024 Q530.423 116.894 523.155 116.894 M523.155 109.487 Q534.775 109.487 540.886 118.7 Q547.043 127.866 547.043 145.366 Q547.043 162.82 540.886 172.033 Q534.775 181.199 523.155 181.199 Q511.534 181.199 505.377 172.033 Q499.266 162.82 499.266 145.366 Q499.266 127.866 505.377 118.7 Q511.534 109.487 523.155 109.487 Z" fill="#000000" fill-rule="nonzero" fill-opacity="1" /><path clip-path="url(#clip010)" d="M563.479 168.098 L573.247 168.098 L573.247 179.857 L563.479 179.857 L563.479 168.098 Z" fill="#000000" fill-rule="nonzero" fill-opacity="1" /><path clip-path="url(#clip010)" d="M613.617 116.894 Q606.395 116.894 602.738 124.024 Q599.127 131.107 599.127 145.366 Q599.127 159.579 602.738 166.709 Q606.395 173.792 613.617 173.792 Q620.886 173.792 624.497 166.709 Q628.154 159.579 628.154 145.366 Q628.154 131.107 624.497 124.024 Q620.886 116.894 613.617 116.894 M613.617 109.487 Q625.238 109.487 631.349 118.7 Q637.506 127.866 637.506 145.366 Q637.506 162.82 631.349 172.033 Q625.238 181.199 613.617 181.199 Q601.997 181.199 595.84 172.033 Q589.728 162.82 589.728 145.366 Q589.728 127.866 595.84 118.7 Q601.997 109.487 613.617 109.487 Z" fill="#000000" fill-rule="nonzero" fill-opacity="1" /><path clip-path="url(#clip010)" d="M307.579 930.89 L345.391 930.89 L345.391 942.667 L246.977 942.667 L246.977 930.89 L257.799 930.89 Q251.433 927.198 248.378 921.596 Q245.258 915.931 245.258 908.101 Q245.258 895.115 255.571 887.031 Q265.883 878.883 282.689 878.883 Q299.494 878.883 309.807 887.031 Q320.119 895.115 320.119 908.101 Q320.119 915.931 317.064 921.596 Q313.944 927.198 307.579 930.89 M282.689 891.041 Q269.766 891.041 262.446 896.388 Q255.062 901.672 255.062 910.966 Q255.062 920.26 262.446 925.607 Q269.766 930.89 282.689 930.89 Q295.611 930.89 302.995 925.607 Q310.316 920.26 310.316 910.966 Q310.316 901.672 302.995 896.388 Q295.611 891.041 282.689 891.041 Z" fill="#000000" fill-rule="nonzero" fill-opacity="1" /><path clip-path="url(#clip010)" d="M282.434 827.066 Q282.434 841.261 285.681 846.736 Q288.927 852.21 296.757 852.21 Q302.995 852.21 306.688 848.136 Q310.316 843.999 310.316 836.933 Q310.316 827.193 303.441 821.337 Q296.502 815.416 285.044 815.416 L282.434 815.416 L282.434 827.066 M277.596 803.704 L318.273 803.704 L318.273 815.416 L307.451 815.416 Q313.944 819.427 317.064 825.411 Q320.119 831.394 320.119 840.052 Q320.119 851.001 314.008 857.494 Q307.833 863.923 297.521 863.923 Q285.49 863.923 279.379 855.902 Q273.268 847.818 273.268 831.84 L273.268 815.416 L272.122 815.416 Q264.037 815.416 259.645 820.764 Q255.189 826.047 255.189 835.659 Q255.189 841.771 256.653 847.563 Q258.117 853.356 261.045 858.703 L250.224 858.703 Q247.741 852.274 246.532 846.227 Q245.258 840.179 245.258 834.45 Q245.258 818.981 253.279 811.342 Q261.3 803.704 277.596 803.704 Z" fill="#000000" fill-rule="nonzero" fill-opacity="1" /><path clip-path="url(#clip010)" d="M257.926 738.264 Q256.78 740.238 256.271 742.593 Q255.698 744.884 255.698 747.685 Q255.698 757.616 262.191 762.963 Q268.621 768.247 280.715 768.247 L318.273 768.247 L318.273 780.023 L246.977 780.023 L246.977 768.247 L258.054 768.247 Q251.561 764.555 248.441 758.634 Q245.258 752.714 245.258 744.248 Q245.258 743.038 245.449 741.574 Q245.577 740.11 245.895 738.328 L257.926 738.264 Z" fill="#000000" fill-rule="nonzero" fill-opacity="1" /><path clip-path="url(#clip010)" d="M279.697 667.859 L285.426 667.859 L285.426 721.713 Q297.521 720.949 303.887 714.456 Q310.189 707.9 310.189 696.25 Q310.189 689.503 308.534 683.201 Q306.878 676.835 303.568 670.597 L314.645 670.597 Q317.318 676.899 318.719 683.519 Q320.119 690.139 320.119 696.951 Q320.119 714.011 310.189 724.005 Q300.258 733.935 283.325 733.935 Q265.82 733.935 255.571 724.514 Q245.258 715.029 245.258 698.988 Q245.258 684.601 254.552 676.262 Q263.783 667.859 279.697 667.859 M276.259 679.572 Q266.647 679.7 260.918 684.983 Q255.189 690.203 255.189 698.86 Q255.189 708.664 260.727 714.584 Q266.265 720.44 276.323 721.331 L276.259 679.572 Z" fill="#000000" fill-rule="nonzero" fill-opacity="1" /><path clip-path="url(#clip010)" d="M275.241 589.37 L318.273 589.37 L318.273 601.083 L275.623 601.083 Q265.501 601.083 260.472 605.03 Q255.444 608.977 255.444 616.87 Q255.444 626.355 261.491 631.83 Q267.538 637.304 277.978 637.304 L318.273 637.304 L318.273 649.081 L246.977 649.081 L246.977 637.304 L258.054 637.304 Q251.624 633.103 248.441 627.437 Q245.258 621.708 245.258 614.26 Q245.258 601.974 252.897 595.672 Q260.472 589.37 275.241 589.37 Z" fill="#000000" fill-rule="nonzero" fill-opacity="1" /><path clip-path="url(#clip010)" d="M302.104 564.353 L302.104 550.921 L318.273 550.921 L318.273 564.353 L302.104 564.353 Z" fill="#000000" fill-rule="nonzero" fill-opacity="1" /><path clip-path="url(#clip010)" d="M307.451 470.395 L307.451 425.517 L318.273 425.517 L318.273 485.864 L307.451 485.864 Q299.876 478.543 287.145 465.939 Q274.35 453.271 270.658 450.025 Q263.719 443.85 258.945 441.431 Q254.107 438.949 249.46 438.949 Q241.885 438.949 237.11 444.296 Q232.336 449.579 232.336 458.109 Q232.336 464.157 234.437 470.904 Q236.537 477.588 240.802 485.227 L227.816 485.227 Q224.697 477.461 223.106 470.713 Q221.514 463.966 221.514 458.364 Q221.514 443.596 228.899 434.811 Q236.283 426.026 248.632 426.026 Q254.489 426.026 259.772 428.254 Q264.992 430.419 272.122 436.211 Q273.968 437.803 282.816 446.333 Q291.601 454.863 307.451 470.395 Z" fill="#000000" fill-rule="nonzero" fill-opacity="1" /><polyline clip-path="url(#clip012)" style="stroke:#008000; stroke-linecap:round; stroke-linejoin:round; stroke-width:8; stroke-opacity:1; fill:none" points="719.695,213.067 838.128,345.262 956.561,391.154 1074.99,560.797 1193.43,580.978 1311.86,765.087 1430.29,863.95 1548.73,781.224 1667.16,1008.6 1785.59,1027.72 1904.02,957.652 2022.46,1156.63 2140.89,1215.53 2259.32,1240.32 "/>
<circle clip-path="url(#clip012)" cx="719.695" cy="213.067" r="14.4" fill="#008000" fill-rule="evenodd" fill-opacity="1" stroke="#000000" stroke-opacity="1" stroke-width="6.4"/>
<circle clip-path="url(#clip012)" cx="838.128" cy="345.262" r="14.4" fill="#008000" fill-rule="evenodd" fill-opacity="1" stroke="#000000" stroke-opacity="1" stroke-width="6.4"/>
<circle clip-path="url(#clip012)" cx="956.561" cy="391.154" r="14.4" fill="#008000" fill-rule="evenodd" fill-opacity="1" stroke="#000000" stroke-opacity="1" stroke-width="6.4"/>
<circle clip-path="url(#clip012)" cx="1074.99" cy="560.797" r="14.4" fill="#008000" fill-rule="evenodd" fill-opacity="1" stroke="#000000" stroke-opacity="1" stroke-width="6.4"/>
<circle clip-path="url(#clip012)" cx="1193.43" cy="580.978" r="14.4" fill="#008000" fill-rule="evenodd" fill-opacity="1" stroke="#000000" stroke-opacity="1" stroke-width="6.4"/>
<circle clip-path="url(#clip012)" cx="1311.86" cy="765.087" r="14.4" fill="#008000" fill-rule="evenodd" fill-opacity="1" stroke="#000000" stroke-opacity="1" stroke-width="6.4"/>
<circle clip-path="url(#clip012)" cx="1430.29" cy="863.95" r="14.4" fill="#008000" fill-rule="evenodd" fill-opacity="1" stroke="#000000" stroke-opacity="1" stroke-width="6.4"/>
<circle clip-path="url(#clip012)" cx="1548.73" cy="781.224" r="14.4" fill="#008000" fill-rule="evenodd" fill-opacity="1" stroke="#000000" stroke-opacity="1" stroke-width="6.4"/>
<circle clip-path="url(#clip012)" cx="1667.16" cy="1008.6" r="14.4" fill="#008000" fill-rule="evenodd" fill-opacity="1" stroke="#000000" stroke-opacity="1" stroke-width="6.4"/>
<circle clip-path="url(#clip012)" cx="1785.59" cy="1027.72" r="14.4" fill="#008000" fill-rule="evenodd" fill-opacity="1" stroke="#000000" stroke-opacity="1" stroke-width="6.4"/>
<circle clip-path="url(#clip012)" cx="1904.02" cy="957.652" r="14.4" fill="#008000" fill-rule="evenodd" fill-opacity="1" stroke="#000000" stroke-opacity="1" stroke-width="6.4"/>
<circle clip-path="url(#clip012)" cx="2022.46" cy="1156.63" r="14.4" fill="#008000" fill-rule="evenodd" fill-opacity="1" stroke="#000000" stroke-opacity="1" stroke-width="6.4"/>
<circle clip-path="url(#clip012)" cx="2140.89" cy="1215.53" r="14.4" fill="#008000" fill-rule="evenodd" fill-opacity="1" stroke="#000000" stroke-opacity="1" stroke-width="6.4"/>
<circle clip-path="url(#clip012)" cx="2259.32" cy="1240.32" r="14.4" fill="#008000" fill-rule="evenodd" fill-opacity="1" stroke="#000000" stroke-opacity="1" stroke-width="6.4"/>
<polyline clip-path="url(#clip012)" style="stroke:#00008b; stroke-linecap:round; stroke-linejoin:round; stroke-width:8; stroke-opacity:1; fill:none" points="719.695,168.313 838.128,271.092 956.561,395.897 1074.99,509.035 1193.43,605.364 1311.86,692.984 1430.29,771.811 1548.73,847.874 1667.16,915.227 1785.59,976.168 1904.02,1029.7 2022.46,1081.79 2140.89,1129.18 2259.32,1174.29 "/>
<path clip-path="url(#clip012)" d="M719.695 211.529 L838.128 310.738 L956.561 436.259 L1074.99 549.868 L1193.43 643.948 L1311.86 734.835 L1430.29 814.025 L1548.73 888.794 L1667.16 955.632 L1785.59 1015.62 L1904.02 1071.85 L2022.46 1123.36 L2140.89 1171.07 L2259.32 1215.92 L2259.32 1133.13 L2140.89 1088.66 L2022.46 1042.04 L1904.02 986.391 L1785.59 935.367 L1667.16 875.755 L1548.73 808.749 L1430.29 731.308 L1311.86 652.043 L1193.43 565.257 L1074.99 468.24 L956.561 354.834 L838.128 229.728 L719.695 127.862  Z" fill="#0000ff" fill-rule="evenodd" fill-opacity="0.1"/>
<polyline clip-path="url(#clip012)" style="stroke:#0000ff; stroke-linecap:round; stroke-linejoin:round; stroke-width:0; stroke-opacity:0.1; fill:none" points="719.695,211.529 838.128,310.738 956.561,436.259 1074.99,549.868 1193.43,643.948 1311.86,734.835 1430.29,814.025 1548.73,888.794 1667.16,955.632 1785.59,1015.62 1904.02,1071.85 2022.46,1123.36 2140.89,1171.07 2259.32,1215.92 "/>
</svg>
