<?xml version="1.0" encoding="utf-8"?>
<svg xmlns="http://www.w3.org/2000/svg" xmlns:xlink="http://www.w3.org/1999/xlink" width="600" height="400" viewBox="0 0 2400 1600">
<defs>
  <clipPath id="clip860">
    <rect x="0" y="0" width="2400" height="1600"/>
  </clipPath>
</defs>
<path clip-path="url(#clip860)" d="M0 1600 L2400 1600 L2400 0 L0 0  Z" fill="#ffffff" fill-rule="evenodd" fill-opacity="1"/>
<defs>
  <clipPath id="clip861">
    <rect x="480" y="0" width="1681" height="1600"/>
  </clipPath>
</defs>
<path clip-path="url(#clip860)" d="M673.506 1273.7 L2305.51 1273.7 L2305.51 94.4882 L673.506 94.4882  Z" fill="#ffffff" fill-rule="evenodd" fill-opacity="1"/>
<defs>
  <clipPath id="clip862">
    <rect x="673" y="94" width="1633" height="1180"/>
  </clipPath>
</defs>
<polyline clip-path="url(#clip862)" style="stroke:#000000; stroke-linecap:round; stroke-linejoin:round; stroke-width:4; stroke-opacity:0.1; fill:none" points="719.695,1273.7 719.695,94.4882 "/>
<polyline clip-path="url(#clip862)" style="stroke:#000000; stroke-linecap:round; stroke-linejoin:round; stroke-width:4; stroke-opacity:0.1; fill:none" points="956.561,1273.7 956.561,94.4882 "/>
<polyline clip-path="url(#clip862)" style="stroke:#000000; stroke-linecap:round; stroke-linejoin:round; stroke-width:4; stroke-opacity:0.1; fill:none" points="1193.43,1273.7 1193.43,94.4882 "/>
<polyline clip-path="url(#clip862)" style="stroke:#000000; stroke-linecap:round; stroke-linejoin:round; stroke-width:4; stroke-opacity:0.1; fill:none" points="1430.29,1273.7 1430.29,94.4882 "/>
<polyline clip-path="url(#clip862)" style="stroke:#000000; stroke-linecap:round; stroke-linejoin:round; stroke-width:4; stroke-opacity:0.1; fill:none" points="1667.16,1273.7 1667.16,94.4882 "/>
<polyline clip-path="url(#clip862)" style="stroke:#000000; stroke-linecap:round; stroke-linejoin:round; stroke-width:4; stroke-opacity:0.1; fill:none" points="1904.02,1273.7 1904.02,94.4882 "/>
<polyline clip-path="url(#clip862)" style="stroke:#000000; stroke-linecap:round; stroke-linejoin:round; stroke-width:4; stroke-opacity:0.1; fill:none" points="2140.89,1273.7 2140.89,94.4882 "/>
<polyline clip-path="url(#clip860)" style="stroke:#000000; stroke-linecap:round; stroke-linejoin:round; stroke-width:8; stroke-opacity:1; fill:none" points="673.506,1273.7 2305.51,1273.7 "/>
<polyline clip-path="url(#clip860)" style="stroke:#000000; stroke-linecap:round; stroke-linejoin:round; stroke-width:8; stroke-opacity:1; fill:none" points="719.695,1273.7 719.695,1254.8 "/>
<polyline clip-path="url(#clip860)" style="stroke:#000000; stroke-linecap:round; stroke-linejoin:round; stroke-width:8; stroke-opacity:1; fill:none" points="956.561,1273.7 956.561,1254.8 "/>
<polyline clip-path="url(#clip860)" style="stroke:#000000; stroke-linecap:round; stroke-linejoin:round; stroke-width:8; stroke-opacity:1; fill:none" points="1193.43,1273.7 1193.43,1254.8 "/>
<polyline clip-path="url(#clip860)" style="stroke:#000000; stroke-linecap:round; stroke-linejoin:round; stroke-width:8; stroke-opacity:1; fill:none" points="1430.29,1273.7 1430.29,1254.8 "/>
<polyline clip-path="url(#clip860)" style="stroke:#000000; stroke-linecap:round; stroke-linejoin:round; stroke-width:8; stroke-opacity:1; fill:none" points="1667.16,1273.7 1667.16,1254.8 "/>
<polyline clip-path="url(#clip860)" style="stroke:#000000; stroke-linecap:round; stroke-linejoin:round; stroke-width:8; stroke-opacity:1; fill:none" points="1904.02,1273.7 1904.02,1254.8 "/>
<polyline clip-path="url(#clip860)" style="stroke:#000000; stroke-linecap:round; stroke-linejoin:round; stroke-width:8; stroke-opacity:1; fill:none" points="2140.89,1273.7 2140.89,1254.8 "/>
<path clip-path="url(#clip860)" d="M674.464 1316.33 Q667.241 1316.33 663.584 1323.46 Q659.973 1330.55 659.973 1344.81 Q659.973 1359.02 663.584 1366.15 Q667.241 1373.23 674.464 1373.23 Q681.732 1373.23 685.343 1366.15 Q689.001 1359.02 689.001 1344.81 Q689.001 1330.55 685.343 1323.46 Q681.732 1316.33 674.464 1316.33 M674.464 1308.93 Q686.084 1308.93 692.195 1318.14 Q698.352 1327.31 698.352 1344.81 Q698.352 1362.26 692.195 1371.47 Q686.084 1380.64 674.464 1380.64 Q662.843 1380.64 656.686 1371.47 Q650.575 1362.26 650.575 1344.81 Q650.575 1327.31 656.686 1318.14 Q662.843 1308.93 674.464 1308.93 Z" fill="#000000" fill-rule="nonzero" fill-opacity="1" /><path clip-path="url(#clip860)" d="M714.787 1367.54 L724.556 1367.54 L724.556 1379.3 L714.787 1379.3 L714.787 1367.54 Z" fill="#000000" fill-rule="nonzero" fill-opacity="1" /><path clip-path="url(#clip860)" d="M764.926 1316.33 Q757.704 1316.33 754.046 1323.46 Q750.435 1330.55 750.435 1344.81 Q750.435 1359.02 754.046 1366.15 Q757.704 1373.23 764.926 1373.23 Q772.195 1373.23 775.806 1366.15 Q779.463 1359.02 779.463 1344.81 Q779.463 1330.55 775.806 1323.46 Q772.195 1316.33 764.926 1316.33 M764.926 1308.93 Q776.546 1308.93 782.657 1318.14 Q788.815 1327.31 788.815 1344.81 Q788.815 1362.26 782.657 1371.47 Q776.546 1380.64 764.926 1380.64 Q753.306 1380.64 747.148 1371.47 Q741.037 1362.26 741.037 1344.81 Q741.037 1327.31 747.148 1318.14 Q753.306 1308.93 764.926 1308.93 Z" fill="#000000" fill-rule="nonzero" fill-opacity="1" /><path clip-path="url(#clip860)" d="M912.927 1316.33 Q905.704 1316.33 902.047 1323.46 Q898.436 1330.55 898.436 1344.81 Q898.436 1359.02 902.047 1366.15 Q905.704 1373.23 912.927 1373.23 Q920.195 1373.23 923.806 1366.15 Q927.464 1359.02 927.464 1344.81 Q927.464 1330.55 923.806 1323.46 Q920.195 1316.33 912.927 1316.33 M912.927 1308.93 Q924.547 1308.93 930.658 1318.14 Q936.815 1327.31 936.815 1344.81 Q936.815 1362.26 930.658 1371.47 Q924.547 1380.64 912.927 1380.64 Q901.306 1380.64 895.149 1371.47 Q889.038 1362.26 889.038 1344.81 Q889.038 1327.31 895.149 1318.14 Q901.306 1308.93 912.927 1308.93 Z" fill="#000000" fill-rule="nonzero" fill-opacity="1" /><path clip-path="url(#clip860)" d="M953.251 1367.54 L963.019 1367.54 L963.019 1379.3 L953.251 1379.3 L953.251 1367.54 Z" fill="#000000" fill-rule="nonzero" fill-opacity="1" /><path clip-path="url(#clip860)" d="M991.445 1371.43 L1024.08 1371.43 L1024.08 1379.3 L980.195 1379.3 L980.195 1371.43 Q985.519 1365.92 994.685 1356.66 Q1003.9 1347.35 1006.26 1344.67 Q1010.75 1339.62 1012.51 1336.15 Q1014.32 1332.63 1014.32 1329.25 Q1014.32 1323.74 1010.43 1320.27 Q1006.58 1316.8 1000.38 1316.8 Q995.982 1316.8 991.074 1318.32 Q986.213 1319.85 980.658 1322.95 L980.658 1313.51 Q986.306 1311.24 991.213 1310.08 Q996.121 1308.93 1000.19 1308.93 Q1010.94 1308.93 1017.32 1314.3 Q1023.71 1319.67 1023.71 1328.65 Q1023.71 1332.91 1022.09 1336.75 Q1020.52 1340.55 1016.31 1345.73 Q1015.15 1347.07 1008.94 1353.51 Q1002.74 1359.9 991.445 1371.43 Z" fill="#000000" fill-rule="nonzero" fill-opacity="1" /><path clip-path="url(#clip860)" d="M1147.71 1316.33 Q1140.49 1316.33 1136.83 1323.46 Q1133.22 1330.55 1133.22 1344.81 Q1133.22 1359.02 1136.83 1366.15 Q1140.49 1373.23 1147.71 1373.23 Q1154.98 1373.23 1158.59 1366.15 Q1162.25 1359.02 1162.25 1344.81 Q1162.25 1330.55 1158.59 1323.46 Q1154.98 1316.33 1147.71 1316.33 M1147.71 1308.93 Q1159.33 1308.93 1165.44 1318.14 Q1171.6 1327.31 1171.6 1344.81 Q1171.6 1362.26 1165.44 1371.47 Q1159.33 1380.64 1147.71 1380.64 Q1136.09 1380.64 1129.93 1371.47 Q1123.82 1362.26 1123.82 1344.81 Q1123.82 1327.31 1129.93 1318.14 Q1136.09 1308.93 1147.71 1308.93 Z" fill="#000000" fill-rule="nonzero" fill-opacity="1" /><path clip-path="url(#clip860)" d="M1188.03 1367.54 L1197.8 1367.54 L1197.8 1379.3 L1188.03 1379.3 L1188.03 1367.54 Z" fill="#000000" fill-rule="nonzero" fill-opacity="1" /><path clip-path="url(#clip860)" d="M1243.87 1318.32 L1220.26 1355.22 L1243.87 1355.22 L1243.87 1318.32 M1241.41 1310.18 L1253.17 1310.18 L1253.17 1355.22 L1263.03 1355.22 L1263.03 1363 L1253.17 1363 L1253.17 1379.3 L1243.87 1379.3 L1243.87 1363 L1212.66 1363 L1212.66 1353.97 L1241.41 1310.18 Z" fill="#000000" fill-rule="nonzero" fill-opacity="1" /><path clip-path="url(#clip860)" d="M1384.9 1316.33 Q1377.68 1316.33 1374.02 1323.46 Q1370.41 1330.55 1370.41 1344.81 Q1370.41 1359.02 1374.02 1366.15 Q1377.68 1373.23 1384.9 1373.23 Q1392.17 1373.23 1395.78 1366.15 Q1399.44 1359.02 1399.44 1344.81 Q1399.44 1330.55 1395.78 1323.46 Q1392.17 1316.33 1384.9 1316.33 M1384.9 1308.93 Q1396.52 1308.93 1402.63 1318.14 Q1408.79 1327.31 1408.79 1344.81 Q1408.79 1362.26 1402.63 1371.47 Q1396.52 1380.64 1384.9 1380.64 Q1373.28 1380.64 1367.12 1371.47 Q1361.01 1362.26 1361.01 1344.81 Q1361.01 1327.31 1367.12 1318.14 Q1373.28 1308.93 1384.9 1308.93 Z" fill="#000000" fill-rule="nonzero" fill-opacity="1" /><path clip-path="url(#clip860)" d="M1425.22 1367.54 L1434.99 1367.54 L1434.99 1379.3 L1425.22 1379.3 L1425.22 1367.54 Z" fill="#000000" fill-rule="nonzero" fill-opacity="1" /><path clip-path="url(#clip860)" d="M1476.52 1341.01 Q1470.22 1341.01 1466.52 1345.31 Q1462.86 1349.62 1462.86 1357.12 Q1462.86 1364.57 1466.52 1368.93 Q1470.22 1373.23 1476.52 1373.23 Q1482.82 1373.23 1486.47 1368.93 Q1490.18 1364.57 1490.18 1357.12 Q1490.18 1349.62 1486.47 1345.31 Q1482.82 1341.01 1476.52 1341.01 M1495.08 1311.7 L1495.08 1320.22 Q1491.57 1318.56 1487.95 1317.68 Q1484.39 1316.8 1480.87 1316.8 Q1471.61 1316.8 1466.7 1323.05 Q1461.84 1329.3 1461.15 1341.93 Q1463.88 1337.91 1468 1335.78 Q1472.12 1333.6 1477.07 1333.6 Q1487.49 1333.6 1493.51 1339.94 Q1499.57 1346.24 1499.57 1357.12 Q1499.57 1367.77 1493.28 1374.2 Q1486.98 1380.64 1476.52 1380.64 Q1464.53 1380.64 1458.19 1371.47 Q1451.84 1362.26 1451.84 1344.81 Q1451.84 1328.42 1459.62 1318.69 Q1467.4 1308.93 1480.5 1308.93 Q1484.02 1308.93 1487.58 1309.62 Q1491.19 1310.31 1495.08 1311.7 Z" fill="#000000" fill-rule="nonzero" fill-opacity="1" /><path clip-path="url(#clip860)" d="M1622.02 1316.33 Q1614.8 1316.33 1611.14 1323.46 Q1607.53 1330.55 1607.53 1344.81 Q1607.53 1359.02 1611.14 1366.15 Q1614.8 1373.23 1622.02 1373.23 Q1629.29 1373.23 1632.9 1366.15 Q1636.56 1359.02 1636.56 1344.81 Q1636.56 1330.55 1632.9 1323.46 Q1629.29 1316.33 1622.02 1316.33 M1622.02 1308.93 Q1633.64 1308.93 1639.75 1318.14 Q1645.91 1327.31 1645.91 1344.81 Q1645.91 1362.26 1639.75 1371.47 Q1633.64 1380.64 1622.02 1380.64 Q1610.4 1380.64 1604.24 1371.47 Q1598.13 1362.26 1598.13 1344.81 Q1598.13 1327.31 1604.24 1318.14 Q1610.4 1308.93 1622.02 1308.93 Z" fill="#000000" fill-rule="nonzero" fill-opacity="1" /><path clip-path="url(#clip860)" d="M1662.34 1367.54 L1672.11 1367.54 L1672.11 1379.3 L1662.34 1379.3 L1662.34 1367.54 Z" fill="#000000" fill-rule="nonzero" fill-opacity="1" /><path clip-path="url(#clip860)" d="M1712.48 1346.47 Q1705.82 1346.47 1701.97 1350.04 Q1698.18 1353.6 1698.18 1359.85 Q1698.18 1366.1 1701.97 1369.67 Q1705.82 1373.23 1712.48 1373.23 Q1719.15 1373.23 1722.99 1369.67 Q1726.83 1366.06 1726.83 1359.85 Q1726.83 1353.6 1722.99 1350.04 Q1719.2 1346.47 1712.48 1346.47 M1703.13 1342.49 Q1697.11 1341.01 1693.73 1336.89 Q1690.4 1332.77 1690.4 1326.84 Q1690.4 1318.56 1696.28 1313.74 Q1702.2 1308.93 1712.48 1308.93 Q1722.81 1308.93 1728.69 1313.74 Q1734.57 1318.56 1734.57 1326.84 Q1734.57 1332.77 1731.19 1336.89 Q1727.85 1341.01 1721.88 1342.49 Q1728.64 1344.06 1732.39 1348.65 Q1736.19 1353.23 1736.19 1359.85 Q1736.19 1369.9 1730.03 1375.27 Q1723.92 1380.64 1712.48 1380.64 Q1701.05 1380.64 1694.89 1375.27 Q1688.78 1369.9 1688.78 1359.85 Q1688.78 1353.23 1692.57 1348.65 Q1696.37 1344.06 1703.13 1342.49 M1699.7 1327.72 Q1699.7 1333.09 1703.04 1336.1 Q1706.42 1339.11 1712.48 1339.11 Q1718.5 1339.11 1721.88 1336.1 Q1725.31 1333.09 1725.31 1327.72 Q1725.31 1322.35 1721.88 1319.34 Q1718.5 1316.33 1712.48 1316.33 Q1706.42 1316.33 1703.04 1319.34 Q1699.7 1322.35 1699.7 1327.72 Z" fill="#000000" fill-rule="nonzero" fill-opacity="1" /><path clip-path="url(#clip860)" d="M1838.33 1371.43 L1853.61 1371.43 L1853.61 1318.69 L1836.99 1322.03 L1836.99 1313.51 L1853.52 1310.18 L1862.87 1310.18 L1862.87 1371.43 L1878.14 1371.43 L1878.14 1379.3 L1838.33 1379.3 L1838.33 1371.43 Z" fill="#000000" fill-rule="nonzero" fill-opacity="1" /><path clip-path="url(#clip860)" d="M1897.03 1367.54 L1906.8 1367.54 L1906.8 1379.3 L1897.03 1379.3 L1897.03 1367.54 Z" fill="#000000" fill-rule="nonzero" fill-opacity="1" /><path clip-path="url(#clip860)" d="M1947.17 1316.33 Q1939.95 1316.33 1936.29 1323.46 Q1932.68 1330.55 1932.68 1344.81 Q1932.68 1359.02 1936.29 1366.15 Q1939.95 1373.23 1947.17 1373.23 Q1954.44 1373.23 1958.05 1366.15 Q1961.71 1359.02 1961.71 1344.81 Q1961.71 1330.55 1958.05 1323.46 Q1954.44 1316.33 1947.17 1316.33 M1947.17 1308.93 Q1958.79 1308.93 1964.9 1318.14 Q1971.06 1327.31 1971.06 1344.81 Q1971.06 1362.26 1964.9 1371.47 Q1958.79 1380.64 1947.17 1380.64 Q1935.55 1380.64 1929.39 1371.47 Q1923.28 1362.26 1923.28 1344.81 Q1923.28 1327.31 1929.39 1318.14 Q1935.55 1308.93 1947.17 1308.93 Z" fill="#000000" fill-rule="nonzero" fill-opacity="1" /><path clip-path="url(#clip860)" d="M2076.79 1371.43 L2092.07 1371.43 L2092.07 1318.69 L2075.45 1322.03 L2075.45 1313.51 L2091.98 1310.18 L2101.33 1310.18 L2101.33 1371.43 L2116.61 1371.43 L2116.61 1379.3 L2076.79 1379.3 L2076.79 1371.43 Z" fill="#000000" fill-rule="nonzero" fill-opacity="1" /><path clip-path="url(#clip860)" d="M2135.5 1367.54 L2145.27 1367.54 L2145.27 1379.3 L2135.5 1379.3 L2135.5 1367.54 Z" fill="#000000" fill-rule="nonzero" fill-opacity="1" /><path clip-path="url(#clip860)" d="M2173.69 1371.43 L2206.33 1371.43 L2206.33 1379.3 L2162.44 1379.3 L2162.44 1371.43 Q2167.76 1365.92 2176.93 1356.66 Q2186.14 1347.35 2188.51 1344.67 Q2193 1339.62 2194.76 1336.15 Q2196.56 1332.63 2196.56 1329.25 Q2196.56 1323.74 2192.67 1320.27 Q2188.83 1316.8 2182.63 1316.8 Q2178.23 1316.8 2173.32 1318.32 Q2168.46 1319.85 2162.9 1322.95 L2162.9 1313.51 Q2168.55 1311.24 2173.46 1310.08 Q2178.37 1308.93 2182.44 1308.93 Q2193.18 1308.93 2199.57 1314.3 Q2205.96 1319.67 2205.96 1328.65 Q2205.96 1332.91 2204.34 1336.75 Q2202.76 1340.55 2198.55 1345.73 Q2197.39 1347.07 2191.19 1353.51 Q2184.99 1359.9 2173.69 1371.43 Z" fill="#000000" fill-rule="nonzero" fill-opacity="1" /><path clip-path="url(#clip860)" d="M1375.05 1484.39 L1375.05 1527.42 L1363.34 1527.42 L1363.34 1484.77 Q1363.34 1474.65 1359.39 1469.62 Q1355.45 1464.59 1347.55 1464.59 Q1338.07 1464.59 1332.59 1470.64 Q1327.12 1476.69 1327.12 1487.13 L1327.12 1527.42 L1315.34 1527.42 L1315.34 1428.37 L1327.12 1428.37 L1327.12 1467.2 Q1331.32 1460.77 1336.99 1457.59 Q1342.72 1454.41 1350.16 1454.41 Q1362.45 1454.41 1368.75 1462.05 Q1375.05 1469.62 1375.05 1484.39 Z" fill="#000000" fill-rule="nonzero" fill-opacity="1" /><path clip-path="url(#clip860)" d="M1426.04 1464.34 Q1416.62 1464.34 1411.15 1471.72 Q1405.67 1479.04 1405.67 1491.84 Q1405.67 1504.63 1411.08 1512.02 Q1416.56 1519.34 1426.04 1519.34 Q1435.4 1519.34 1440.87 1511.96 Q1446.35 1504.57 1446.35 1491.84 Q1446.35 1479.17 1440.87 1471.79 Q1435.4 1464.34 1426.04 1464.34 M1426.04 1454.41 Q1441.32 1454.41 1450.04 1464.34 Q1458.76 1474.27 1458.76 1491.84 Q1458.76 1509.35 1450.04 1519.34 Q1441.32 1529.27 1426.04 1529.27 Q1410.7 1529.27 1401.98 1519.34 Q1393.32 1509.35 1393.32 1491.84 Q1393.32 1474.27 1401.98 1464.34 Q1410.7 1454.41 1426.04 1454.41 Z" fill="#000000" fill-rule="nonzero" fill-opacity="1" /><path clip-path="url(#clip860)" d="M1476.97 1499.29 L1476.97 1456.13 L1488.68 1456.13 L1488.68 1498.84 Q1488.68 1508.96 1492.63 1514.06 Q1496.57 1519.08 1504.47 1519.08 Q1513.95 1519.08 1519.43 1513.04 Q1524.97 1506.99 1524.97 1496.55 L1524.97 1456.13 L1536.68 1456.13 L1536.68 1527.42 L1524.97 1527.42 L1524.97 1516.47 Q1520.7 1522.97 1515.04 1526.15 Q1509.43 1529.27 1501.99 1529.27 Q1489.7 1529.27 1483.33 1521.63 Q1476.97 1513.99 1476.97 1499.29 M1506.44 1454.41 L1506.44 1454.41 Z" fill="#000000" fill-rule="nonzero" fill-opacity="1" /><path clip-path="url(#clip860)" d="M1602.12 1467.08 Q1600.14 1465.93 1597.79 1465.42 Q1595.5 1464.85 1592.7 1464.85 Q1582.77 1464.85 1577.42 1471.34 Q1572.14 1477.77 1572.14 1489.87 L1572.14 1527.42 L1560.36 1527.42 L1560.36 1456.13 L1572.14 1456.13 L1572.14 1467.2 Q1575.83 1460.71 1581.75 1457.59 Q1587.67 1454.41 1596.13 1454.41 Q1597.34 1454.41 1598.81 1454.6 Q1600.27 1454.73 1602.05 1455.05 L1602.12 1467.08 Z" fill="#000000" fill-rule="nonzero" fill-opacity="1" /><path clip-path="url(#clip860)" d="M1659.86 1458.23 L1659.86 1469.3 Q1654.89 1466.76 1649.54 1465.49 Q1644.2 1464.21 1638.47 1464.21 Q1629.75 1464.21 1625.35 1466.89 Q1621.02 1469.56 1621.02 1474.91 Q1621.02 1478.98 1624.14 1481.34 Q1627.26 1483.63 1636.68 1485.73 L1640.69 1486.62 Q1653.17 1489.29 1658.39 1494.19 Q1663.67 1499.03 1663.67 1507.75 Q1663.67 1517.68 1655.78 1523.48 Q1647.95 1529.27 1634.2 1529.27 Q1628.47 1529.27 1622.23 1528.12 Q1616.06 1527.04 1609.18 1524.81 L1609.18 1512.72 Q1615.68 1516.09 1621.98 1517.81 Q1628.28 1519.47 1634.46 1519.47 Q1642.73 1519.47 1647.19 1516.67 Q1651.64 1513.8 1651.64 1508.64 Q1651.64 1503.87 1648.4 1501.32 Q1645.21 1498.78 1634.33 1496.42 L1630.25 1495.47 Q1619.37 1493.18 1614.53 1488.47 Q1609.69 1483.69 1609.69 1475.42 Q1609.69 1465.36 1616.82 1459.88 Q1623.95 1454.41 1637.07 1454.41 Q1643.56 1454.41 1649.29 1455.36 Q1655.02 1456.32 1659.86 1458.23 Z" fill="#000000" fill-rule="nonzero" fill-opacity="1" /><polyline clip-path="url(#clip862)" style="stroke:#000000; stroke-linecap:round; stroke-linejoin:round; stroke-width:4; stroke-opacity:0.1; fill:none" points="673.506,1114.93 2305.51,1114.93 "/>
<polyline clip-path="url(#clip862)" style="stroke:#000000; stroke-linecap:round; stroke-linejoin:round; stroke-width:4; stroke-opacity:0.1; fill:none" points="673.506,936.493 2305.51,936.493 "/>
<polyline clip-path="url(#clip862)" style="stroke:#000000; stroke-linecap:round; stroke-linejoin:round; stroke-width:4; stroke-opacity:0.1; fill:none" points="673.506,758.054 2305.51,758.054 "/>
<polyline clip-path="url(#clip862)" style="stroke:#000000; stroke-linecap:round; stroke-linejoin:round; stroke-width:4; stroke-opacity:0.1; fill:none" points="673.506,579.616 2305.51,579.616 "/>
<polyline clip-path="url(#clip862)" style="stroke:#000000; stroke-linecap:round; stroke-linejoin:round; stroke-width:4; stroke-opacity:0.1; fill:none" points="673.506,401.178 2305.51,401.178 "/>
<polyline clip-path="url(#clip862)" style="stroke:#000000; stroke-linecap:round; stroke-linejoin:round; stroke-width:4; stroke-opacity:0.1; fill:none" points="673.506,222.739 2305.51,222.739 "/>
<polyline clip-path="url(#clip860)" style="stroke:#000000; stroke-linecap:round; stroke-linejoin:round; stroke-width:8; stroke-opacity:1; fill:none" points="673.506,1273.7 673.506,94.4882 "/>
<polyline clip-path="url(#clip860)" style="stroke:#000000; stroke-linecap:round; stroke-linejoin:round; stroke-width:8; stroke-opacity:1; fill:none" points="673.506,1114.93 692.404,1114.93 "/>
<polyline clip-path="url(#clip860)" style="stroke:#000000; stroke-linecap:round; stroke-linejoin:round; stroke-width:8; stroke-opacity:1; fill:none" points="673.506,936.493 692.404,936.493 "/>
<polyline clip-path="url(#clip860)" style="stroke:#000000; stroke-linecap:round; stroke-linejoin:round; stroke-width:8; stroke-opacity:1; fill:none" points="673.506,758.054 692.404,758.054 "/>
<polyline clip-path="url(#clip860)" style="stroke:#000000; stroke-linecap:round; stroke-linejoin:round; stroke-width:8; stroke-opacity:1; fill:none" points="673.506,579.616 692.404,579.616 "/>
<polyline clip-path="url(#clip860)" style="stroke:#000000; stroke-linecap:round; stroke-linejoin:round; stroke-width:8; stroke-opacity:1; fill:none" points="673.506,401.178 692.404,401.178 "/>
<polyline clip-path="url(#clip860)" style="stroke:#000000; stroke-linecap:round; stroke-linejoin:round; stroke-width:8; stroke-opacity:1; fill:none" points="673.506,222.739 692.404,222.739 "/>
<path clip-path="url(#clip860)" d="M384.128 1141.62 L399.405 1141.62 L399.405 1088.89 L382.785 1092.22 L382.785 1083.7 L399.313 1080.37 L408.665 1080.37 L408.665 1141.62 L423.942 1141.62 L423.942 1149.49 L384.128 1149.49 L384.128 1141.62 Z" fill="#000000" fill-rule="nonzero" fill-opacity="1" /><path clip-path="url(#clip860)" d="M450.887 1141.62 L483.525 1141.62 L483.525 1149.49 L439.637 1149.49 L439.637 1141.62 Q444.961 1136.11 454.127 1126.85 Q463.34 1117.55 465.701 1114.86 Q470.192 1109.82 471.951 1106.34 Q473.757 1102.82 473.757 1099.45 Q473.757 1093.94 469.868 1090.46 Q466.025 1086.99 459.822 1086.99 Q455.424 1086.99 450.516 1088.52 Q445.655 1090.05 440.1 1093.15 L440.1 1083.7 Q445.748 1081.44 450.655 1080.28 Q455.562 1079.12 459.637 1079.12 Q470.377 1079.12 476.766 1084.49 Q483.155 1089.86 483.155 1098.84 Q483.155 1103.1 481.535 1106.95 Q479.961 1110.74 475.748 1115.93 Q474.59 1117.27 468.387 1123.7 Q462.183 1130.09 450.887 1141.62 Z" fill="#000000" fill-rule="nonzero" fill-opacity="1" /><path clip-path="url(#clip860)" d="M523.155 1086.53 Q515.933 1086.53 512.275 1093.66 Q508.664 1100.74 508.664 1115 Q508.664 1129.21 512.275 1136.34 Q515.933 1143.43 523.155 1143.43 Q530.423 1143.43 534.034 1136.34 Q537.692 1129.21 537.692 1115 Q537.692 1100.74 534.034 1093.66 Q530.423 1086.53 523.155 1086.53 M523.155 1079.12 Q534.775 1079.12 540.886 1088.33 Q547.043 1097.5 547.043 1115 Q547.043 1132.45 540.886 1141.67 Q534.775 1150.83 523.155 1150.83 Q511.534 1150.83 505.377 1141.67 Q499.266 1132.45 499.266 1115 Q499.266 1097.5 505.377 1088.33 Q511.534 1079.12 523.155 1079.12 Z" fill="#000000" fill-rule="nonzero" fill-opacity="1" /><path clip-path="url(#clip860)" d="M563.479 1137.73 L573.247 1137.73 L573.247 1149.49 L563.479 1149.49 L563.479 1137.73 Z" fill="#000000" fill-rule="nonzero" fill-opacity="1" /><path clip-path="url(#clip860)" d="M613.617 1086.53 Q606.395 1086.53 602.738 1093.66 Q599.127 1100.74 599.127 1115 Q599.127 1129.21 602.738 1136.34 Q606.395 1143.43 613.617 1143.43 Q620.886 1143.43 624.497 1136.34 Q628.154 1129.21 628.154 1115 Q628.154 1100.74 624.497 1093.66 Q620.886 1086.53 613.617 1086.53 M613.617 1079.12 Q625.238 1079.12 631.349 1088.33 Q637.506 1097.5 637.506 1115 Q637.506 1132.45 631.349 1141.67 Q625.238 1150.83 613.617 1150.83 Q601.997 1150.83 595.84 1141.67 Q589.728 1132.45 589.728 1115 Q589.728 1097.5 595.84 1088.33 Q601.997 1079.12 613.617 1079.12 Z" fill="#000000" fill-rule="nonzero" fill-opacity="1" /><path clip-path="url(#clip860)" d="M384.128 963.182 L399.405 963.182 L399.405 910.451 L382.785 913.785 L382.785 905.266 L399.313 901.933 L408.665 901.933 L408.665 963.182 L423.942 963.182 L423.942 971.053 L384.128 971.053 L384.128 963.182 Z" fill="#000000" fill-rule="nonzero" fill-opacity="1" /><path clip-path="url(#clip860)" d="M450.887 963.182 L483.525 963.182 L483.525 971.053 L439.637 971.053 L439.637 963.182 Q444.961 957.673 454.127 948.414 Q463.34 939.108 465.701 936.423 Q470.192 931.377 471.951 927.905 Q473.757 924.386 473.757 921.007 Q473.757 915.498 469.868 912.025 Q466.025 908.553 459.822 908.553 Q455.424 908.553 450.516 910.081 Q445.655 911.609 440.1 914.71 L440.1 905.266 Q445.748 902.998 450.655 901.84 Q455.562 900.683 459.637 900.683 Q470.377 900.683 476.766 906.053 Q483.155 911.423 483.155 920.405 Q483.155 924.664 481.535 928.507 Q479.961 932.303 475.748 937.488 Q474.59 938.831 468.387 945.266 Q462.183 951.655 450.887 963.182 Z" fill="#000000" fill-rule="nonzero" fill-opacity="1" /><path clip-path="url(#clip860)" d="M503.247 901.933 L539.96 901.933 L539.96 909.803 L511.812 909.803 L511.812 926.747 Q513.849 926.053 515.886 925.729 Q517.923 925.359 519.96 925.359 Q531.534 925.359 538.294 931.701 Q545.053 938.044 545.053 948.877 Q545.053 960.034 538.108 966.238 Q531.164 972.395 518.525 972.395 Q514.173 972.395 509.636 971.655 Q505.146 970.914 500.331 969.432 L500.331 960.034 Q504.497 962.303 508.942 963.414 Q513.386 964.525 518.34 964.525 Q526.349 964.525 531.025 960.312 Q535.701 956.099 535.701 948.877 Q535.701 941.655 531.025 937.442 Q526.349 933.229 518.34 933.229 Q514.59 933.229 510.84 934.062 Q507.136 934.896 503.247 936.655 L503.247 901.933 Z" fill="#000000" fill-rule="nonzero" fill-opacity="1" /><path clip-path="url(#clip860)" d="M563.479 959.294 L573.247 959.294 L573.247 971.053 L563.479 971.053 L563.479 959.294 Z" fill="#000000" fill-rule="nonzero" fill-opacity="1" /><path clip-path="url(#clip860)" d="M613.617 908.09 Q606.395 908.09 602.738 915.22 Q599.127 922.303 599.127 936.562 Q599.127 950.775 602.738 957.905 Q606.395 964.988 613.617 964.988 Q620.886 964.988 624.497 957.905 Q628.154 950.775 628.154 936.562 Q628.154 922.303 624.497 915.22 Q620.886 908.09 613.617 908.09 M613.617 900.683 Q625.238 900.683 631.349 909.896 Q637.506 919.062 637.506 936.562 Q637.506 954.016 631.349 963.229 Q625.238 972.395 613.617 972.395 Q601.997 972.395 595.84 963.229 Q589.728 954.016 589.728 936.562 Q589.728 919.062 595.84 909.896 Q601.997 900.683 613.617 900.683 Z" fill="#000000" fill-rule="nonzero" fill-opacity="1" /><path clip-path="url(#clip860)" d="M384.128 784.744 L399.405 784.744 L399.405 732.013 L382.785 735.346 L382.785 726.828 L399.313 723.494 L408.665 723.494 L408.665 784.744 L423.942 784.744 L423.942 792.614 L384.128 792.614 L384.128 784.744 Z" fill="#000000" fill-rule="nonzero" fill-opacity="1" /><path clip-path="url(#clip860)" d="M471.164 755.346 Q477.877 756.781 481.627 761.318 Q485.423 765.855 485.423 772.522 Q485.423 782.753 478.386 788.355 Q471.349 793.957 458.387 793.957 Q454.035 793.957 449.405 793.077 Q444.822 792.244 439.914 790.531 L439.914 781.503 Q443.803 783.772 448.433 784.929 Q453.063 786.087 458.109 786.087 Q466.905 786.087 471.488 782.614 Q476.118 779.142 476.118 772.522 Q476.118 766.411 471.812 762.985 Q467.553 759.513 459.914 759.513 L451.859 759.513 L451.859 751.828 L460.285 751.828 Q467.183 751.828 470.84 749.096 Q474.498 746.318 474.498 741.133 Q474.498 735.809 470.701 732.985 Q466.951 730.115 459.914 730.115 Q456.072 730.115 451.674 730.948 Q447.276 731.781 441.998 733.541 L441.998 725.207 Q447.322 723.726 451.951 722.985 Q456.627 722.244 460.748 722.244 Q471.396 722.244 477.599 727.105 Q483.803 731.92 483.803 740.161 Q483.803 745.902 480.516 749.883 Q477.229 753.818 471.164 755.346 Z" fill="#000000" fill-rule="nonzero" fill-opacity="1" /><path clip-path="url(#clip860)" d="M523.155 729.652 Q515.933 729.652 512.275 736.781 Q508.664 743.865 508.664 758.124 Q508.664 772.337 512.275 779.466 Q515.933 786.55 523.155 786.55 Q530.423 786.55 534.034 779.466 Q537.692 772.337 537.692 758.124 Q537.692 743.865 534.034 736.781 Q530.423 729.652 523.155 729.652 M523.155 722.244 Q534.775 722.244 540.886 731.457 Q547.043 740.624 547.043 758.124 Q547.043 775.577 540.886 784.79 Q534.775 793.957 523.155 793.957 Q511.534 793.957 505.377 784.79 Q499.266 775.577 499.266 758.124 Q499.266 740.624 505.377 731.457 Q511.534 722.244 523.155 722.244 Z" fill="#000000" fill-rule="nonzero" fill-opacity="1" /><path clip-path="url(#clip860)" d="M563.479 780.855 L573.247 780.855 L573.247 792.614 L563.479 792.614 L563.479 780.855 Z" fill="#000000" fill-rule="nonzero" fill-opacity="1" /><path clip-path="url(#clip860)" d="M613.617 729.652 Q606.395 729.652 602.738 736.781 Q599.127 743.865 599.127 758.124 Q599.127 772.337 602.738 779.466 Q606.395 786.55 613.617 786.55 Q620.886 786.55 624.497 779.466 Q628.154 772.337 628.154 758.124 Q628.154 743.865 624.497 736.781 Q620.886 729.652 613.617 729.652 M613.617 722.244 Q625.238 722.244 631.349 731.457 Q637.506 740.624 637.506 758.124 Q637.506 775.577 631.349 784.79 Q625.238 793.957 613.617 793.957 Q601.997 793.957 595.84 784.79 Q589.728 775.577 589.728 758.124 Q589.728 740.624 595.84 731.457 Q601.997 722.244 613.617 722.244 Z" fill="#000000" fill-rule="nonzero" fill-opacity="1" /><path clip-path="url(#clip860)" d="M384.128 606.306 L399.405 606.306 L399.405 553.574 L382.785 556.908 L382.785 548.389 L399.313 545.056 L408.665 545.056 L408.665 606.306 L423.942 606.306 L423.942 614.176 L384.128 614.176 L384.128 606.306 Z" fill="#000000" fill-rule="nonzero" fill-opacity="1" /><path clip-path="url(#clip860)" d="M471.164 576.908 Q477.877 578.343 481.627 582.88 Q485.423 587.417 485.423 594.084 Q485.423 604.315 478.386 609.917 Q471.349 615.519 458.387 615.519 Q454.035 615.519 449.405 614.639 Q444.822 613.806 439.914 612.093 L439.914 603.065 Q443.803 605.333 448.433 606.491 Q453.063 607.648 458.109 607.648 Q466.905 607.648 471.488 604.176 Q476.118 600.704 476.118 594.084 Q476.118 587.972 471.812 584.547 Q467.553 581.074 459.914 581.074 L451.859 581.074 L451.859 573.389 L460.285 573.389 Q467.183 573.389 470.84 570.658 Q474.498 567.88 474.498 562.695 Q474.498 557.371 470.701 554.547 Q466.951 551.676 459.914 551.676 Q456.072 551.676 451.674 552.51 Q447.276 553.343 441.998 555.102 L441.998 546.769 Q447.322 545.287 451.951 544.547 Q456.627 543.806 460.748 543.806 Q471.396 543.806 477.599 548.667 Q483.803 553.482 483.803 561.723 Q483.803 567.463 480.516 571.445 Q477.229 575.38 471.164 576.908 Z" fill="#000000" fill-rule="nonzero" fill-opacity="1" /><path clip-path="url(#clip860)" d="M503.247 545.056 L539.96 545.056 L539.96 552.926 L511.812 552.926 L511.812 569.871 Q513.849 569.176 515.886 568.852 Q517.923 568.482 519.96 568.482 Q531.534 568.482 538.294 574.824 Q545.053 581.167 545.053 592 Q545.053 603.158 538.108 609.361 Q531.164 615.519 518.525 615.519 Q514.173 615.519 509.636 614.778 Q505.146 614.037 500.331 612.556 L500.331 603.158 Q504.497 605.426 508.942 606.537 Q513.386 607.648 518.34 607.648 Q526.349 607.648 531.025 603.435 Q535.701 599.222 535.701 592 Q535.701 584.778 531.025 580.565 Q526.349 576.352 518.34 576.352 Q514.59 576.352 510.84 577.185 Q507.136 578.019 503.247 579.778 L503.247 545.056 Z" fill="#000000" fill-rule="nonzero" fill-opacity="1" /><path clip-path="url(#clip860)" d="M563.479 602.417 L573.247 602.417 L573.247 614.176 L563.479 614.176 L563.479 602.417 Z" fill="#000000" fill-rule="nonzero" fill-opacity="1" /><path clip-path="url(#clip860)" d="M613.617 551.213 Q606.395 551.213 602.738 558.343 Q599.127 565.426 599.127 579.685 Q599.127 593.898 602.738 601.028 Q606.395 608.111 613.617 608.111 Q620.886 608.111 624.497 601.028 Q628.154 593.898 628.154 579.685 Q628.154 565.426 624.497 558.343 Q620.886 551.213 613.617 551.213 M613.617 543.806 Q625.238 543.806 631.349 553.019 Q637.506 562.186 637.506 579.685 Q637.506 597.139 631.349 606.352 Q625.238 615.519 613.617 615.519 Q601.997 615.519 595.84 606.352 Q589.728 597.139 589.728 579.685 Q589.728 562.186 595.84 553.019 Q601.997 543.806 613.617 543.806 Z" fill="#000000" fill-rule="nonzero" fill-opacity="1" /><path clip-path="url(#clip860)" d="M384.128 427.867 L399.405 427.867 L399.405 375.136 L382.785 378.469 L382.785 369.951 L399.313 366.618 L408.665 366.618 L408.665 427.867 L423.942 427.867 L423.942 435.738 L384.128 435.738 L384.128 427.867 Z" fill="#000000" fill-rule="nonzero" fill-opacity="1" /><path clip-path="url(#clip860)" d="M468.525 374.766 L444.914 411.664 L468.525 411.664 L468.525 374.766 M466.072 366.618 L477.831 366.618 L477.831 411.664 L487.692 411.664 L487.692 419.441 L477.831 419.441 L477.831 435.738 L468.525 435.738 L468.525 419.441 L437.322 419.441 L437.322 410.414 L466.072 366.618 Z" fill="#000000" fill-rule="nonzero" fill-opacity="1" /><path clip-path="url(#clip860)" d="M523.155 372.775 Q515.933 372.775 512.275 379.905 Q508.664 386.988 508.664 401.247 Q508.664 415.46 512.275 422.59 Q515.933 429.673 523.155 429.673 Q530.423 429.673 534.034 422.59 Q537.692 415.46 537.692 401.247 Q537.692 386.988 534.034 379.905 Q530.423 372.775 523.155 372.775 M523.155 365.368 Q534.775 365.368 540.886 374.581 Q547.043 383.747 547.043 401.247 Q547.043 418.701 540.886 427.914 Q534.775 437.08 523.155 437.08 Q511.534 437.08 505.377 427.914 Q499.266 418.701 499.266 401.247 Q499.266 383.747 505.377 374.581 Q511.534 365.368 523.155 365.368 Z" fill="#000000" fill-rule="nonzero" fill-opacity="1" /><path clip-path="url(#clip860)" d="M563.479 423.978 L573.247 423.978 L573.247 435.738 L563.479 435.738 L563.479 423.978 Z" fill="#000000" fill-rule="nonzero" fill-opacity="1" /><path clip-path="url(#clip860)" d="M613.617 372.775 Q606.395 372.775 602.738 379.905 Q599.127 386.988 599.127 401.247 Q599.127 415.46 602.738 422.59 Q606.395 429.673 613.617 429.673 Q620.886 429.673 624.497 422.59 Q628.154 415.46 628.154 401.247 Q628.154 386.988 624.497 379.905 Q620.886 372.775 613.617 372.775 M613.617 365.368 Q625.238 365.368 631.349 374.581 Q637.506 383.747 637.506 401.247 Q637.506 418.701 631.349 427.914 Q625.238 437.08 613.617 437.08 Q601.997 437.08 595.84 427.914 Q589.728 418.701 589.728 401.247 Q589.728 383.747 595.84 374.581 Q601.997 365.368 613.617 365.368 Z" fill="#000000" fill-rule="nonzero" fill-opacity="1" /><path clip-path="url(#clip860)" d="M384.128 249.429 L399.405 249.429 L399.405 196.698 L382.785 200.031 L382.785 191.513 L399.313 188.179 L408.665 188.179 L408.665 249.429 L423.942 249.429 L423.942 257.299 L384.128 257.299 L384.128 249.429 Z" fill="#000000" fill-rule="nonzero" fill-opacity="1" /><path clip-path="url(#clip860)" d="M468.525 196.327 L444.914 233.225 L468.525 233.225 L468.525 196.327 M466.072 188.179 L477.831 188.179 L477.831 233.225 L487.692 233.225 L487.692 241.003 L477.831 241.003 L477.831 257.299 L468.525 257.299 L468.525 241.003 L437.322 241.003 L437.322 231.975 L466.072 188.179 Z" fill="#000000" fill-rule="nonzero" fill-opacity="1" /><path clip-path="url(#clip860)" d="M503.247 188.179 L539.96 188.179 L539.96 196.05 L511.812 196.05 L511.812 212.994 Q513.849 212.299 515.886 211.975 Q517.923 211.605 519.96 211.605 Q531.534 211.605 538.294 217.948 Q545.053 224.29 545.053 235.123 Q545.053 246.281 538.108 252.484 Q531.164 258.642 518.525 258.642 Q514.173 258.642 509.636 257.901 Q505.146 257.16 500.331 255.679 L500.331 246.281 Q504.497 248.549 508.942 249.66 Q513.386 250.771 518.34 250.771 Q526.349 250.771 531.025 246.559 Q535.701 242.346 535.701 235.123 Q535.701 227.901 531.025 223.688 Q526.349 219.475 518.34 219.475 Q514.59 219.475 510.84 220.309 Q507.136 221.142 503.247 222.901 L503.247 188.179 Z" fill="#000000" fill-rule="nonzero" fill-opacity="1" /><path clip-path="url(#clip860)" d="M563.479 245.54 L573.247 245.54 L573.247 257.299 L563.479 257.299 L563.479 245.54 Z" fill="#000000" fill-rule="nonzero" fill-opacity="1" /><path clip-path="url(#clip860)" d="M613.617 194.337 Q606.395 194.337 602.738 201.466 Q599.127 208.549 599.127 222.809 Q599.127 237.022 602.738 244.151 Q606.395 251.234 613.617 251.234 Q620.886 251.234 624.497 244.151 Q628.154 237.022 628.154 222.809 Q628.154 208.549 624.497 201.466 Q620.886 194.337 613.617 194.337 M613.617 186.929 Q625.238 186.929 631.349 196.142 Q637.506 205.309 637.506 222.809 Q637.506 240.262 631.349 249.475 Q625.238 258.642 613.617 258.642 Q601.997 258.642 595.84 249.475 Q589.728 240.262 589.728 222.809 Q589.728 205.309 595.84 196.142 Q601.997 186.929 613.617 186.929 Z" fill="#000000" fill-rule="nonzero" fill-opacity="1" /><path clip-path="url(#clip860)" d="M307.579 933.309 L345.391 933.309 L345.391 945.086 L246.977 945.086 L246.977 933.309 L257.799 933.309 Q251.433 929.617 248.378 924.015 Q245.258 918.35 245.258 910.52 Q245.258 897.534 255.571 889.45 Q265.883 881.302 282.689 881.302 Q299.494 881.302 309.807 889.45 Q320.119 897.534 320.119 910.52 Q320.119 918.35 317.064 924.015 Q313.944 929.617 307.579 933.309 M282.689 893.46 Q269.766 893.46 262.446 898.807 Q255.062 904.091 255.062 913.385 Q255.062 922.679 262.446 928.026 Q269.766 933.309 282.689 933.309 Q295.611 933.309 302.995 928.026 Q310.316 922.679 310.316 913.385 Q310.316 904.091 302.995 898.807 Q295.611 893.46 282.689 893.46 Z" fill="#000000" fill-rule="nonzero" fill-opacity="1" /><path clip-path="url(#clip860)" d="M282.434 829.485 Q282.434 843.68 285.681 849.155 Q288.927 854.629 296.757 854.629 Q302.995 854.629 306.688 850.555 Q310.316 846.417 310.316 839.352 Q310.316 829.612 303.441 823.756 Q296.502 817.835 285.044 817.835 L282.434 817.835 L282.434 829.485 M277.596 806.123 L318.273 806.123 L318.273 817.835 L307.451 817.835 Q313.944 821.846 317.064 827.83 Q320.119 833.813 320.119 842.471 Q320.119 853.42 314.008 859.913 Q307.833 866.342 297.521 866.342 Q285.49 866.342 279.379 858.321 Q273.268 850.237 273.268 834.259 L273.268 817.835 L272.122 817.835 Q264.037 817.835 259.645 823.183 Q255.189 828.466 255.189 838.078 Q255.189 844.189 256.653 849.982 Q258.117 855.775 261.045 861.122 L250.224 861.122 Q247.741 854.693 246.532 848.645 Q245.258 842.598 245.258 836.869 Q245.258 821.4 253.279 813.761 Q261.3 806.123 277.596 806.123 Z" fill="#000000" fill-rule="nonzero" fill-opacity="1" /><path clip-path="url(#clip860)" d="M257.926 740.683 Q256.78 742.656 256.271 745.012 Q255.698 747.303 255.698 750.104 Q255.698 760.035 262.191 765.382 Q268.621 770.666 280.715 770.666 L318.273 770.666 L318.273 782.442 L246.977 782.442 L246.977 770.666 L258.054 770.666 Q251.561 766.973 248.441 761.053 Q245.258 755.133 245.258 746.667 Q245.258 745.457 245.449 743.993 Q245.577 742.529 245.895 740.747 L257.926 740.683 Z" fill="#000000" fill-rule="nonzero" fill-opacity="1" /><path clip-path="url(#clip860)" d="M279.697 670.278 L285.426 670.278 L285.426 724.132 Q297.521 723.368 303.887 716.875 Q310.189 710.319 310.189 698.669 Q310.189 691.922 308.534 685.62 Q306.878 679.254 303.568 673.016 L314.645 673.016 Q317.318 679.318 318.719 685.938 Q320.119 692.558 320.119 699.37 Q320.119 716.43 310.189 726.424 Q300.258 736.354 283.325 736.354 Q265.82 736.354 255.571 726.933 Q245.258 717.448 245.258 701.407 Q245.258 687.02 254.552 678.681 Q263.783 670.278 279.697 670.278 M276.259 681.991 Q266.647 682.119 260.918 687.402 Q255.189 692.622 255.189 701.279 Q255.189 711.083 260.727 717.003 Q266.265 722.859 276.323 723.75 L276.259 681.991 Z" fill="#000000" fill-rule="nonzero" fill-opacity="1" /><path clip-path="url(#clip860)" d="M275.241 591.789 L318.273 591.789 L318.273 603.502 L275.623 603.502 Q265.501 603.502 260.472 607.449 Q255.444 611.396 255.444 619.289 Q255.444 628.774 261.491 634.248 Q267.538 639.723 277.978 639.723 L318.273 639.723 L318.273 651.5 L246.977 651.5 L246.977 639.723 L258.054 639.723 Q251.624 635.522 248.441 629.856 Q245.258 624.127 245.258 616.679 Q245.258 604.393 252.897 598.091 Q260.472 591.789 275.241 591.789 Z" fill="#000000" fill-rule="nonzero" fill-opacity="1" /><path clip-path="url(#clip860)" d="M302.104 566.772 L302.104 553.34 L318.273 553.34 L318.273 566.772 L302.104 566.772 Z" fill="#000000" fill-rule="nonzero" fill-opacity="1" /><path clip-path="url(#clip860)" d="M265.629 454.799 Q265.629 463.457 271.549 468.549 Q277.469 473.578 287.781 473.578 Q298.03 473.578 304.014 468.549 Q309.934 463.457 309.934 454.799 Q309.934 446.142 304.014 441.113 Q298.03 436.02 287.781 436.02 Q277.469 436.02 271.549 441.113 Q265.629 446.142 265.629 454.799 M225.334 429.273 L237.047 429.273 Q234.755 434.111 233.546 439.076 Q232.336 443.978 232.336 448.815 Q232.336 461.547 240.93 468.295 Q249.523 474.979 266.902 475.933 Q261.364 472.178 258.435 466.512 Q255.444 460.847 255.444 454.035 Q255.444 439.712 264.165 431.437 Q272.822 423.098 287.781 423.098 Q302.422 423.098 311.271 431.755 Q320.119 440.413 320.119 454.799 Q320.119 471.286 307.515 480.007 Q294.847 488.728 270.849 488.728 Q248.314 488.728 234.946 478.034 Q221.514 467.34 221.514 449.325 Q221.514 444.487 222.469 439.585 Q223.424 434.62 225.334 429.273 Z" fill="#000000" fill-rule="nonzero" fill-opacity="1" /><polyline clip-path="url(#clip862)" style="stroke:#008000; stroke-linecap:round; stroke-linejoin:round; stroke-width:8; stroke-opacity:1; fill:none" points="719.695,874.44 838.128,521.899 956.561,771.225 1074.99,897.57 1193.43,672.054 1311.86,635.961 1430.29,285.083 1548.73,407.535 1667.16,584.977 1785.59,577.872 1904.02,829.503 2022.46,935.175 2140.89,912.801 2259.32,1240.32 "/>
<circle clip-path="url(#clip862)" cx="719.695" cy="874.44" r="14.4" fill="#008000" fill-rule="evenodd" fill-opacity="1" stroke="#000000" stroke-opacity="1" stroke-width="6.4"/>
<circle clip-path="url(#clip862)" cx="838.128" cy="521.899" r="14.4" fill="#008000" fill-rule="evenodd" fill-opacity="1" stroke="#000000" stroke-opacity="1" stroke-width="6.4"/>
<circle clip-path="url(#clip862)" cx="956.561" cy="771.225" r="14.4" fill="#008000" fill-rule="evenodd" fill-opacity="1" stroke="#000000" stroke-opacity="1" stroke-width="6.4"/>
<circle clip-path="url(#clip862)" cx="1074.99" cy="897.57" r="14.4" fill="#008000" fill-rule="evenodd" fill-opacity="1" stroke="#000000" stroke-opacity="1" stroke-width="6.4"/>
<circle clip-path="url(#clip862)" cx="1193.43" cy="672.054" r="14.4" fill="#008000" fill-rule="evenodd" fill-opacity="1" stroke="#000000" stroke-opacity="1" stroke-width="6.4"/>
<circle clip-path="url(#clip862)" cx="1311.86" cy="635.961" r="14.4" fill="#008000" fill-rule="evenodd" fill-opacity="1" stroke="#000000" stroke-opacity="1" stroke-width="6.4"/>
<circle clip-path="url(#clip862)" cx="1430.29" cy="285.083" r="14.4" fill="#008000" fill-rule="evenodd" fill-opacity="1" stroke="#000000" stroke-opacity="1" stroke-width="6.4"/>
<circle clip-path="url(#clip862)" cx="1548.73" cy="407.535" r="14.4" fill="#008000" fill-rule="evenodd" fill-opacity="1" stroke="#000000" stroke-opacity="1" stroke-width="6.4"/>
<circle clip-path="url(#clip862)" cx="1667.16" cy="584.977" r="14.4" fill="#008000" fill-rule="evenodd" fill-opacity="1" stroke="#000000" stroke-opacity="1" stroke-width="6.4"/>
<circle clip-path="url(#clip862)" cx="1785.59" cy="577.872" r="14.4" fill="#008000" fill-rule="evenodd" fill-opacity="1" stroke="#000000" stroke-opacity="1" stroke-width="6.4"/>
<circle clip-path="url(#clip862)" cx="1904.02" cy="829.503" r="14.4" fill="#008000" fill-rule="evenodd" fill-opacity="1" stroke="#000000" stroke-opacity="1" stroke-width="6.4"/>
<circle clip-path="url(#clip862)" cx="2022.46" cy="935.175" r="14.4" fill="#008000" fill-rule="evenodd" fill-opacity="1" stroke="#000000" stroke-opacity="1" stroke-width="6.4"/>
<circle clip-path="url(#clip862)" cx="2140.89" cy="912.801" r="14.4" fill="#008000" fill-rule="evenodd" fill-opacity="1" stroke="#000000" stroke-opacity="1" stroke-width="6.4"/>
<circle clip-path="url(#clip862)" cx="2259.32" cy="1240.32" r="14.4" fill="#008000" fill-rule="evenodd" fill-opacity="1" stroke="#000000" stroke-opacity="1" stroke-width="6.4"/>
<polyline clip-path="url(#clip862)" style="stroke:#00008b; stroke-linecap:round; stroke-linejoin:round; stroke-width:8; stroke-opacity:1; fill:none" points="719.695,561.534 838.128,357.389 956.561,284.304 1074.99,237.537 1193.43,236.148 1311.86,239.292 1430.29,279.145 1548.73,317.73 1667.16,386.143 1785.59,445.652 1904.02,520.696 2022.46,594.193 2140.89,681.863 2259.32,770.977 "/>
<path clip-path="url(#clip862)" d="M719.695 671.96 L838.128 464.481 L956.561 391.955 L1074.99 343.067 L1193.43 343.186 L1311.86 344.907 L1430.29 388.252 L1548.73 421.929 L1667.16 493.759 L1785.59 549.722 L1904.02 626.579 L2022.46 703.834 L2140.89 794.742 L2259.32 877.792 L2259.32 666.886 L2140.89 573.426 L2022.46 485.057 L1904.02 415.769 L1785.59 341.271 L1667.16 278.764 L1548.73 211.551 L1430.29 170.649 L1311.86 132.641 L1193.43 127.862 L1074.99 131.445 L956.561 177.605 L838.128 247.985 L719.695 461.868  Z" fill="#0000ff" fill-rule="evenodd" fill-opacity="0.1"/>
<polyline clip-path="url(#clip862)" style="stroke:#0000ff; stroke-linecap:round; stroke-linejoin:round; stroke-width:0; stroke-opacity:0.1; fill:none" points="719.695,671.96 838.128,464.481 956.561,391.955 1074.99,343.067 1193.43,343.186 1311.86,344.907 1430.29,388.252 1548.73,421.929 1667.16,493.759 1785.59,549.722 1904.02,626.579 2022.46,703.834 2140.89,794.742 2259.32,877.792 "/>
</svg>
