<?xml version="1.0" encoding="utf-8"?>
<svg xmlns="http://www.w3.org/2000/svg" xmlns:xlink="http://www.w3.org/1999/xlink" width="600" height="400" viewBox="0 0 2400 1600">
<defs>
  <clipPath id="clip510">
    <rect x="0" y="0" width="2400" height="1600"/>
  </clipPath>
</defs>
<path clip-path="url(#clip510)" d="M0 1600 L2400 1600 L2400 0 L0 0  Z" fill="#ffffff" fill-rule="evenodd" fill-opacity="1"/>
<defs>
  <clipPath id="clip511">
    <rect x="480" y="0" width="1681" height="1600"/>
  </clipPath>
</defs>
<path clip-path="url(#clip510)" d="M680.45 1273.7 L2305.51 1273.7 L2305.51 94.4882 L680.45 94.4882  Z" fill="#ffffff" fill-rule="evenodd" fill-opacity="1"/>
<defs>
  <clipPath id="clip512">
    <rect x="680" y="94" width="1626" height="1180"/>
  </clipPath>
</defs>
<polyline clip-path="url(#clip512)" style="stroke:#000000; stroke-linecap:round; stroke-linejoin:round; stroke-width:4; stroke-opacity:0.1; fill:none" points="726.443,1273.7 726.443,94.4882 "/>
<polyline clip-path="url(#clip512)" style="stroke:#000000; stroke-linecap:round; stroke-linejoin:round; stroke-width:4; stroke-opacity:0.1; fill:none" points="962.301,1273.7 962.301,94.4882 "/>
<polyline clip-path="url(#clip512)" style="stroke:#000000; stroke-linecap:round; stroke-linejoin:round; stroke-width:4; stroke-opacity:0.1; fill:none" points="1198.16,1273.7 1198.16,94.4882 "/>
<polyline clip-path="url(#clip512)" style="stroke:#000000; stroke-linecap:round; stroke-linejoin:round; stroke-width:4; stroke-opacity:0.1; fill:none" points="1434.02,1273.7 1434.02,94.4882 "/>
<polyline clip-path="url(#clip512)" style="stroke:#000000; stroke-linecap:round; stroke-linejoin:round; stroke-width:4; stroke-opacity:0.1; fill:none" points="1669.87,1273.7 1669.87,94.4882 "/>
<polyline clip-path="url(#clip512)" style="stroke:#000000; stroke-linecap:round; stroke-linejoin:round; stroke-width:4; stroke-opacity:0.1; fill:none" points="1905.73,1273.7 1905.73,94.4882 "/>
<polyline clip-path="url(#clip512)" style="stroke:#000000; stroke-linecap:round; stroke-linejoin:round; stroke-width:4; stroke-opacity:0.1; fill:none" points="2141.59,1273.7 2141.59,94.4882 "/>
<polyline clip-path="url(#clip510)" style="stroke:#000000; stroke-linecap:round; stroke-linejoin:round; stroke-width:8; stroke-opacity:1; fill:none" points="680.45,1273.7 2305.51,1273.7 "/>
<polyline clip-path="url(#clip510)" style="stroke:#000000; stroke-linecap:round; stroke-linejoin:round; stroke-width:8; stroke-opacity:1; fill:none" points="726.443,1273.7 726.443,1254.8 "/>
<polyline clip-path="url(#clip510)" style="stroke:#000000; stroke-linecap:round; stroke-linejoin:round; stroke-width:8; stroke-opacity:1; fill:none" points="962.301,1273.7 962.301,1254.8 "/>
<polyline clip-path="url(#clip510)" style="stroke:#000000; stroke-linecap:round; stroke-linejoin:round; stroke-width:8; stroke-opacity:1; fill:none" points="1198.16,1273.7 1198.16,1254.8 "/>
<polyline clip-path="url(#clip510)" style="stroke:#000000; stroke-linecap:round; stroke-linejoin:round; stroke-width:8; stroke-opacity:1; fill:none" points="1434.02,1273.7 1434.02,1254.8 "/>
<polyline clip-path="url(#clip510)" style="stroke:#000000; stroke-linecap:round; stroke-linejoin:round; stroke-width:8; stroke-opacity:1; fill:none" points="1669.87,1273.7 1669.87,1254.8 "/>
<polyline clip-path="url(#clip510)" style="stroke:#000000; stroke-linecap:round; stroke-linejoin:round; stroke-width:8; stroke-opacity:1; fill:none" points="1905.73,1273.7 1905.73,1254.8 "/>
<polyline clip-path="url(#clip510)" style="stroke:#000000; stroke-linecap:round; stroke-linejoin:round; stroke-width:8; stroke-opacity:1; fill:none" points="2141.59,1273.7 2141.59,1254.8 "/>
<path clip-path="url(#clip510)" d="M681.211 1316.33 Q673.989 1316.33 670.332 1323.46 Q666.721 1330.55 666.721 1344.81 Q666.721 1359.02 670.332 1366.15 Q673.989 1373.23 681.211 1373.23 Q688.48 1373.23 692.091 1366.15 Q695.748 1359.02 695.748 1344.81 Q695.748 1330.55 692.091 1323.46 Q688.48 1316.33 681.211 1316.33 M681.211 1308.93 Q692.832 1308.93 698.943 1318.14 Q705.1 1327.31 705.1 1344.81 Q705.1 1362.26 698.943 1371.47 Q692.832 1380.64 681.211 1380.64 Q669.591 1380.64 663.434 1371.47 Q657.323 1362.26 657.323 1344.81 Q657.323 1327.31 663.434 1318.14 Q669.591 1308.93 681.211 1308.93 Z" fill="#000000" fill-rule="nonzero" fill-opacity="1" /><path clip-path="url(#clip510)" d="M721.535 1367.54 L731.304 1367.54 L731.304 1379.3 L721.535 1379.3 L721.535 1367.54 Z" fill="#000000" fill-rule="nonzero" fill-opacity="1" /><path clip-path="url(#clip510)" d="M771.674 1316.33 Q764.452 1316.33 760.794 1323.46 Q757.183 1330.55 757.183 1344.81 Q757.183 1359.02 760.794 1366.15 Q764.452 1373.23 771.674 1373.23 Q778.942 1373.23 782.553 1366.15 Q786.211 1359.02 786.211 1344.81 Q786.211 1330.55 782.553 1323.46 Q778.942 1316.33 771.674 1316.33 M771.674 1308.93 Q783.294 1308.93 789.405 1318.14 Q795.563 1327.31 795.563 1344.81 Q795.563 1362.26 789.405 1371.47 Q783.294 1380.64 771.674 1380.64 Q760.054 1380.64 753.896 1371.47 Q747.785 1362.26 747.785 1344.81 Q747.785 1327.31 753.896 1318.14 Q760.054 1308.93 771.674 1308.93 Z" fill="#000000" fill-rule="nonzero" fill-opacity="1" /><path clip-path="url(#clip510)" d="M918.667 1316.33 Q911.444 1316.33 907.787 1323.46 Q904.176 1330.55 904.176 1344.81 Q904.176 1359.02 907.787 1366.15 Q911.444 1373.23 918.667 1373.23 Q925.935 1373.23 929.546 1366.15 Q933.204 1359.02 933.204 1344.81 Q933.204 1330.55 929.546 1323.46 Q925.935 1316.33 918.667 1316.33 M918.667 1308.93 Q930.287 1308.93 936.398 1318.14 Q942.555 1327.31 942.555 1344.81 Q942.555 1362.26 936.398 1371.47 Q930.287 1380.64 918.667 1380.64 Q907.046 1380.64 900.889 1371.47 Q894.778 1362.26 894.778 1344.81 Q894.778 1327.31 900.889 1318.14 Q907.046 1308.93 918.667 1308.93 Z" fill="#000000" fill-rule="nonzero" fill-opacity="1" /><path clip-path="url(#clip510)" d="M958.99 1367.54 L968.759 1367.54 L968.759 1379.3 L958.99 1379.3 L958.99 1367.54 Z" fill="#000000" fill-rule="nonzero" fill-opacity="1" /><path clip-path="url(#clip510)" d="M997.185 1371.43 L1029.82 1371.43 L1029.82 1379.3 L985.935 1379.3 L985.935 1371.43 Q991.259 1365.92 1000.43 1356.66 Q1009.64 1347.35 1012 1344.67 Q1016.49 1339.62 1018.25 1336.15 Q1020.05 1332.63 1020.05 1329.25 Q1020.05 1323.74 1016.17 1320.27 Q1012.32 1316.8 1006.12 1316.8 Q1001.72 1316.8 996.814 1318.32 Q991.953 1319.85 986.398 1322.95 L986.398 1313.51 Q992.046 1311.24 996.953 1310.08 Q1001.86 1308.93 1005.93 1308.93 Q1016.68 1308.93 1023.06 1314.3 Q1029.45 1319.67 1029.45 1328.65 Q1029.45 1332.91 1027.83 1336.75 Q1026.26 1340.55 1022.05 1345.73 Q1020.89 1347.07 1014.68 1353.51 Q1008.48 1359.9 997.185 1371.43 Z" fill="#000000" fill-rule="nonzero" fill-opacity="1" /><path clip-path="url(#clip510)" d="M1152.44 1316.33 Q1145.22 1316.33 1141.56 1323.46 Q1137.95 1330.55 1137.95 1344.81 Q1137.95 1359.02 1141.56 1366.15 Q1145.22 1373.23 1152.44 1373.23 Q1159.71 1373.23 1163.32 1366.15 Q1166.98 1359.02 1166.98 1344.81 Q1166.98 1330.55 1163.32 1323.46 Q1159.71 1316.33 1152.44 1316.33 M1152.44 1308.93 Q1164.06 1308.93 1170.17 1318.14 Q1176.33 1327.31 1176.33 1344.81 Q1176.33 1362.26 1170.17 1371.47 Q1164.06 1380.64 1152.44 1380.64 Q1140.82 1380.64 1134.66 1371.47 Q1128.55 1362.26 1128.55 1344.81 Q1128.55 1327.31 1134.66 1318.14 Q1140.82 1308.93 1152.44 1308.93 Z" fill="#000000" fill-rule="nonzero" fill-opacity="1" /><path clip-path="url(#clip510)" d="M1192.77 1367.54 L1202.53 1367.54 L1202.53 1379.3 L1192.77 1379.3 L1192.77 1367.54 Z" fill="#000000" fill-rule="nonzero" fill-opacity="1" /><path clip-path="url(#clip510)" d="M1248.6 1318.32 L1224.99 1355.22 L1248.6 1355.22 L1248.6 1318.32 M1246.14 1310.18 L1257.9 1310.18 L1257.9 1355.22 L1267.76 1355.22 L1267.76 1363 L1257.9 1363 L1257.9 1379.3 L1248.6 1379.3 L1248.6 1363 L1217.39 1363 L1217.39 1353.97 L1246.14 1310.18 Z" fill="#000000" fill-rule="nonzero" fill-opacity="1" /><path clip-path="url(#clip510)" d="M1388.62 1316.33 Q1381.4 1316.33 1377.74 1323.46 Q1374.13 1330.55 1374.13 1344.81 Q1374.13 1359.02 1377.74 1366.15 Q1381.4 1373.23 1388.62 1373.23 Q1395.89 1373.23 1399.5 1366.15 Q1403.16 1359.02 1403.16 1344.81 Q1403.16 1330.55 1399.5 1323.46 Q1395.89 1316.33 1388.62 1316.33 M1388.62 1308.93 Q1400.24 1308.93 1406.35 1318.14 Q1412.51 1327.31 1412.51 1344.81 Q1412.51 1362.26 1406.35 1371.47 Q1400.24 1380.64 1388.62 1380.64 Q1377 1380.64 1370.85 1371.47 Q1364.73 1362.26 1364.73 1344.81 Q1364.73 1327.31 1370.85 1318.14 Q1377 1308.93 1388.62 1308.93 Z" fill="#000000" fill-rule="nonzero" fill-opacity="1" /><path clip-path="url(#clip510)" d="M1428.95 1367.54 L1438.72 1367.54 L1438.72 1379.3 L1428.95 1379.3 L1428.95 1367.54 Z" fill="#000000" fill-rule="nonzero" fill-opacity="1" /><path clip-path="url(#clip510)" d="M1480.24 1341.01 Q1473.95 1341.01 1470.24 1345.31 Q1466.59 1349.62 1466.59 1357.12 Q1466.59 1364.57 1470.24 1368.93 Q1473.95 1373.23 1480.24 1373.23 Q1486.54 1373.23 1490.2 1368.93 Q1493.9 1364.57 1493.9 1357.12 Q1493.9 1349.62 1490.2 1345.31 Q1486.54 1341.01 1480.24 1341.01 M1498.81 1311.7 L1498.81 1320.22 Q1495.29 1318.56 1491.68 1317.68 Q1488.11 1316.8 1484.6 1316.8 Q1475.34 1316.8 1470.43 1323.05 Q1465.57 1329.3 1464.87 1341.93 Q1467.6 1337.91 1471.72 1335.78 Q1475.85 1333.6 1480.8 1333.6 Q1491.22 1333.6 1497.23 1339.94 Q1503.3 1346.24 1503.3 1357.12 Q1503.3 1367.77 1497 1374.2 Q1490.71 1380.64 1480.24 1380.64 Q1468.25 1380.64 1461.91 1371.47 Q1455.57 1362.26 1455.57 1344.81 Q1455.57 1328.42 1463.35 1318.69 Q1471.12 1308.93 1484.22 1308.93 Q1487.74 1308.93 1491.31 1309.62 Q1494.92 1310.31 1498.81 1311.7 Z" fill="#000000" fill-rule="nonzero" fill-opacity="1" /><path clip-path="url(#clip510)" d="M1624.74 1316.33 Q1617.51 1316.33 1613.86 1323.46 Q1610.25 1330.55 1610.25 1344.81 Q1610.25 1359.02 1613.86 1366.15 Q1617.51 1373.23 1624.74 1373.23 Q1632 1373.23 1635.62 1366.15 Q1639.27 1359.02 1639.27 1344.81 Q1639.27 1330.55 1635.62 1323.46 Q1632 1316.33 1624.74 1316.33 M1624.74 1308.93 Q1636.36 1308.93 1642.47 1318.14 Q1648.62 1327.31 1648.62 1344.81 Q1648.62 1362.26 1642.47 1371.47 Q1636.36 1380.64 1624.74 1380.64 Q1613.12 1380.64 1606.96 1371.47 Q1600.85 1362.26 1600.85 1344.81 Q1600.85 1327.31 1606.96 1318.14 Q1613.12 1308.93 1624.74 1308.93 Z" fill="#000000" fill-rule="nonzero" fill-opacity="1" /><path clip-path="url(#clip510)" d="M1665.06 1367.54 L1674.83 1367.54 L1674.83 1379.3 L1665.06 1379.3 L1665.06 1367.54 Z" fill="#000000" fill-rule="nonzero" fill-opacity="1" /><path clip-path="url(#clip510)" d="M1715.2 1346.47 Q1708.53 1346.47 1704.69 1350.04 Q1700.89 1353.6 1700.89 1359.85 Q1700.89 1366.1 1704.69 1369.67 Q1708.53 1373.23 1715.2 1373.23 Q1721.87 1373.23 1725.71 1369.67 Q1729.55 1366.06 1729.55 1359.85 Q1729.55 1353.6 1725.71 1350.04 Q1721.91 1346.47 1715.2 1346.47 M1705.85 1342.49 Q1699.83 1341.01 1696.45 1336.89 Q1693.12 1332.77 1693.12 1326.84 Q1693.12 1318.56 1698.99 1313.74 Q1704.92 1308.93 1715.2 1308.93 Q1725.52 1308.93 1731.4 1313.74 Q1737.28 1318.56 1737.28 1326.84 Q1737.28 1332.77 1733.9 1336.89 Q1730.57 1341.01 1724.6 1342.49 Q1731.36 1344.06 1735.11 1348.65 Q1738.9 1353.23 1738.9 1359.85 Q1738.9 1369.9 1732.74 1375.27 Q1726.63 1380.64 1715.2 1380.64 Q1703.76 1380.64 1697.61 1375.27 Q1691.49 1369.9 1691.49 1359.85 Q1691.49 1353.23 1695.29 1348.65 Q1699.09 1344.06 1705.85 1342.49 M1702.42 1327.72 Q1702.42 1333.09 1705.75 1336.1 Q1709.13 1339.11 1715.2 1339.11 Q1721.22 1339.11 1724.6 1336.1 Q1728.02 1333.09 1728.02 1327.72 Q1728.02 1322.35 1724.6 1319.34 Q1721.22 1316.33 1715.2 1316.33 Q1709.13 1316.33 1705.75 1319.34 Q1702.42 1322.35 1702.42 1327.72 Z" fill="#000000" fill-rule="nonzero" fill-opacity="1" /><path clip-path="url(#clip510)" d="M1840.04 1371.43 L1855.32 1371.43 L1855.32 1318.69 L1838.7 1322.03 L1838.7 1313.51 L1855.22 1310.18 L1864.58 1310.18 L1864.58 1371.43 L1879.85 1371.43 L1879.85 1379.3 L1840.04 1379.3 L1840.04 1371.43 Z" fill="#000000" fill-rule="nonzero" fill-opacity="1" /><path clip-path="url(#clip510)" d="M1898.74 1367.54 L1908.51 1367.54 L1908.51 1379.3 L1898.74 1379.3 L1898.74 1367.54 Z" fill="#000000" fill-rule="nonzero" fill-opacity="1" /><path clip-path="url(#clip510)" d="M1948.88 1316.33 Q1941.66 1316.33 1938 1323.46 Q1934.39 1330.55 1934.39 1344.81 Q1934.39 1359.02 1938 1366.15 Q1941.66 1373.23 1948.88 1373.23 Q1956.15 1373.23 1959.76 1366.15 Q1963.42 1359.02 1963.42 1344.81 Q1963.42 1330.55 1959.76 1323.46 Q1956.15 1316.33 1948.88 1316.33 M1948.88 1308.93 Q1960.5 1308.93 1966.61 1318.14 Q1972.77 1327.31 1972.77 1344.81 Q1972.77 1362.26 1966.61 1371.47 Q1960.5 1380.64 1948.88 1380.64 Q1937.26 1380.64 1931.1 1371.47 Q1924.99 1362.26 1924.99 1344.81 Q1924.99 1327.31 1931.1 1318.14 Q1937.26 1308.93 1948.88 1308.93 Z" fill="#000000" fill-rule="nonzero" fill-opacity="1" /><path clip-path="url(#clip510)" d="M2077.49 1371.43 L2092.77 1371.43 L2092.77 1318.69 L2076.15 1322.03 L2076.15 1313.51 L2092.68 1310.18 L2102.03 1310.18 L2102.03 1371.43 L2117.31 1371.43 L2117.31 1379.3 L2077.49 1379.3 L2077.49 1371.43 Z" fill="#000000" fill-rule="nonzero" fill-opacity="1" /><path clip-path="url(#clip510)" d="M2136.2 1367.54 L2145.97 1367.54 L2145.97 1379.3 L2136.2 1379.3 L2136.2 1367.54 Z" fill="#000000" fill-rule="nonzero" fill-opacity="1" /><path clip-path="url(#clip510)" d="M2174.39 1371.43 L2207.03 1371.43 L2207.03 1379.3 L2163.14 1379.3 L2163.14 1371.43 Q2168.47 1365.92 2177.63 1356.66 Q2186.84 1347.35 2189.21 1344.67 Q2193.7 1339.62 2195.46 1336.15 Q2197.26 1332.63 2197.26 1329.25 Q2197.26 1323.74 2193.37 1320.27 Q2189.53 1316.8 2183.33 1316.8 Q2178.93 1316.8 2174.02 1318.32 Q2169.16 1319.85 2163.6 1322.95 L2163.6 1313.51 Q2169.25 1311.24 2174.16 1310.08 Q2179.07 1308.93 2183.14 1308.93 Q2193.88 1308.93 2200.27 1314.3 Q2206.66 1319.67 2206.66 1328.65 Q2206.66 1332.91 2205.04 1336.75 Q2203.47 1340.55 2199.25 1345.73 Q2198.09 1347.07 2191.89 1353.51 Q2185.69 1359.9 2174.39 1371.43 Z" fill="#000000" fill-rule="nonzero" fill-opacity="1" /><path clip-path="url(#clip510)" d="M1378.53 1484.39 L1378.53 1527.42 L1366.81 1527.42 L1366.81 1484.77 Q1366.81 1474.65 1362.87 1469.62 Q1358.92 1464.59 1351.03 1464.59 Q1341.54 1464.59 1336.07 1470.64 Q1330.59 1476.69 1330.59 1487.13 L1330.59 1527.42 L1318.82 1527.42 L1318.82 1428.37 L1330.59 1428.37 L1330.59 1467.2 Q1334.79 1460.77 1340.46 1457.59 Q1346.19 1454.41 1353.64 1454.41 Q1365.92 1454.41 1372.22 1462.05 Q1378.53 1469.62 1378.53 1484.39 Z" fill="#000000" fill-rule="nonzero" fill-opacity="1" /><path clip-path="url(#clip510)" d="M1429.51 1464.34 Q1420.09 1464.34 1414.62 1471.72 Q1409.14 1479.04 1409.14 1491.84 Q1409.14 1504.63 1414.56 1512.02 Q1420.03 1519.34 1429.51 1519.34 Q1438.87 1519.34 1444.35 1511.96 Q1449.82 1504.57 1449.82 1491.84 Q1449.82 1479.17 1444.35 1471.79 Q1438.87 1464.34 1429.51 1464.34 M1429.51 1454.41 Q1444.79 1454.41 1453.51 1464.34 Q1462.23 1474.27 1462.23 1491.84 Q1462.23 1509.35 1453.51 1519.34 Q1444.79 1529.27 1429.51 1529.27 Q1414.17 1529.27 1405.45 1519.34 Q1396.8 1509.35 1396.8 1491.84 Q1396.8 1474.27 1405.45 1464.34 Q1414.17 1454.41 1429.51 1454.41 Z" fill="#000000" fill-rule="nonzero" fill-opacity="1" /><path clip-path="url(#clip510)" d="M1480.44 1499.29 L1480.44 1456.13 L1492.15 1456.13 L1492.15 1498.84 Q1492.15 1508.96 1496.1 1514.06 Q1500.05 1519.08 1507.94 1519.08 Q1517.43 1519.08 1522.9 1513.04 Q1528.44 1506.99 1528.44 1496.55 L1528.44 1456.13 L1540.15 1456.13 L1540.15 1527.42 L1528.44 1527.42 L1528.44 1516.47 Q1524.17 1522.97 1518.51 1526.15 Q1512.91 1529.27 1505.46 1529.27 Q1493.17 1529.27 1486.81 1521.63 Q1480.44 1513.99 1480.44 1499.29 M1509.91 1454.41 L1509.91 1454.41 Z" fill="#000000" fill-rule="nonzero" fill-opacity="1" /><path clip-path="url(#clip510)" d="M1605.59 1467.08 Q1603.62 1465.93 1601.26 1465.42 Q1598.97 1464.85 1596.17 1464.85 Q1586.24 1464.85 1580.89 1471.34 Q1575.61 1477.77 1575.61 1489.87 L1575.61 1527.42 L1563.83 1527.42 L1563.83 1456.13 L1575.61 1456.13 L1575.61 1467.2 Q1579.3 1460.71 1585.22 1457.59 Q1591.14 1454.41 1599.61 1454.41 Q1600.82 1454.41 1602.28 1454.6 Q1603.74 1454.73 1605.53 1455.05 L1605.59 1467.08 Z" fill="#000000" fill-rule="nonzero" fill-opacity="1" /><path clip-path="url(#clip510)" d="M1663.33 1458.23 L1663.33 1469.3 Q1658.36 1466.76 1653.01 1465.49 Q1647.67 1464.21 1641.94 1464.21 Q1633.22 1464.21 1628.83 1466.89 Q1624.5 1469.56 1624.5 1474.91 Q1624.5 1478.98 1627.62 1481.34 Q1630.73 1483.63 1640.16 1485.73 L1644.17 1486.62 Q1656.64 1489.29 1661.86 1494.19 Q1667.15 1499.03 1667.15 1507.75 Q1667.15 1517.68 1659.25 1523.48 Q1651.42 1529.27 1637.67 1529.27 Q1631.94 1529.27 1625.71 1528.12 Q1619.53 1527.04 1612.66 1524.81 L1612.66 1512.72 Q1619.15 1516.09 1625.45 1517.81 Q1631.75 1519.47 1637.93 1519.47 Q1646.2 1519.47 1650.66 1516.67 Q1655.12 1513.8 1655.12 1508.64 Q1655.12 1503.87 1651.87 1501.32 Q1648.69 1498.78 1637.8 1496.42 L1633.73 1495.47 Q1622.84 1493.18 1618 1488.47 Q1613.17 1483.69 1613.17 1475.42 Q1613.17 1465.36 1620.3 1459.88 Q1627.42 1454.41 1640.54 1454.41 Q1647.03 1454.41 1652.76 1455.36 Q1658.49 1456.32 1663.33 1458.23 Z" fill="#000000" fill-rule="nonzero" fill-opacity="1" /><polyline clip-path="url(#clip512)" style="stroke:#000000; stroke-linecap:round; stroke-linejoin:round; stroke-width:4; stroke-opacity:0.1; fill:none" points="680.45,1215.89 2305.51,1215.89 "/>
<polyline clip-path="url(#clip512)" style="stroke:#000000; stroke-linecap:round; stroke-linejoin:round; stroke-width:4; stroke-opacity:0.1; fill:none" points="680.45,980.429 2305.51,980.429 "/>
<polyline clip-path="url(#clip512)" style="stroke:#000000; stroke-linecap:round; stroke-linejoin:round; stroke-width:4; stroke-opacity:0.1; fill:none" points="680.45,744.972 2305.51,744.972 "/>
<polyline clip-path="url(#clip512)" style="stroke:#000000; stroke-linecap:round; stroke-linejoin:round; stroke-width:4; stroke-opacity:0.1; fill:none" points="680.45,509.514 2305.51,509.514 "/>
<polyline clip-path="url(#clip512)" style="stroke:#000000; stroke-linecap:round; stroke-linejoin:round; stroke-width:4; stroke-opacity:0.1; fill:none" points="680.45,274.056 2305.51,274.056 "/>
<polyline clip-path="url(#clip510)" style="stroke:#000000; stroke-linecap:round; stroke-linejoin:round; stroke-width:8; stroke-opacity:1; fill:none" points="680.45,1273.7 680.45,94.4882 "/>
<polyline clip-path="url(#clip510)" style="stroke:#000000; stroke-linecap:round; stroke-linejoin:round; stroke-width:8; stroke-opacity:1; fill:none" points="680.45,1215.89 699.348,1215.89 "/>
<polyline clip-path="url(#clip510)" style="stroke:#000000; stroke-linecap:round; stroke-linejoin:round; stroke-width:8; stroke-opacity:1; fill:none" points="680.45,980.429 699.348,980.429 "/>
<polyline clip-path="url(#clip510)" style="stroke:#000000; stroke-linecap:round; stroke-linejoin:round; stroke-width:8; stroke-opacity:1; fill:none" points="680.45,744.972 699.348,744.972 "/>
<polyline clip-path="url(#clip510)" style="stroke:#000000; stroke-linecap:round; stroke-linejoin:round; stroke-width:8; stroke-opacity:1; fill:none" points="680.45,509.514 699.348,509.514 "/>
<polyline clip-path="url(#clip510)" style="stroke:#000000; stroke-linecap:round; stroke-linejoin:round; stroke-width:8; stroke-opacity:1; fill:none" points="680.45,274.056 699.348,274.056 "/>
<path clip-path="url(#clip510)" d="M530.099 1187.48 Q522.877 1187.48 519.22 1194.61 Q515.608 1201.7 515.608 1215.96 Q515.608 1230.17 519.22 1237.3 Q522.877 1244.38 530.099 1244.38 Q537.368 1244.38 540.979 1237.3 Q544.636 1230.17 544.636 1215.96 Q544.636 1201.7 540.979 1194.61 Q537.368 1187.48 530.099 1187.48 M530.099 1180.08 Q541.719 1180.08 547.831 1189.29 Q553.988 1198.46 553.988 1215.96 Q553.988 1233.41 547.831 1242.62 Q541.719 1251.79 530.099 1251.79 Q518.479 1251.79 512.321 1242.62 Q506.21 1233.41 506.21 1215.96 Q506.21 1198.46 512.321 1189.29 Q518.479 1180.08 530.099 1180.08 Z" fill="#000000" fill-rule="nonzero" fill-opacity="1" /><path clip-path="url(#clip510)" d="M570.423 1238.69 L580.191 1238.69 L580.191 1250.45 L570.423 1250.45 L570.423 1238.69 Z" fill="#000000" fill-rule="nonzero" fill-opacity="1" /><path clip-path="url(#clip510)" d="M620.562 1187.48 Q613.339 1187.48 609.682 1194.61 Q606.071 1201.7 606.071 1215.96 Q606.071 1230.17 609.682 1237.3 Q613.339 1244.38 620.562 1244.38 Q627.83 1244.38 631.441 1237.3 Q635.099 1230.17 635.099 1215.96 Q635.099 1201.7 631.441 1194.61 Q627.83 1187.48 620.562 1187.48 M620.562 1180.08 Q632.182 1180.08 638.293 1189.29 Q644.45 1198.46 644.45 1215.96 Q644.45 1233.41 638.293 1242.62 Q632.182 1251.79 620.562 1251.79 Q608.941 1251.79 602.784 1242.62 Q596.673 1233.41 596.673 1215.96 Q596.673 1198.46 602.784 1189.29 Q608.941 1180.08 620.562 1180.08 Z" fill="#000000" fill-rule="nonzero" fill-opacity="1" /><path clip-path="url(#clip510)" d="M449.868 945.869 L486.581 945.869 L486.581 953.74 L458.433 953.74 L458.433 970.684 Q460.47 969.99 462.507 969.666 Q464.544 969.295 466.581 969.295 Q478.155 969.295 484.914 975.638 Q491.673 981.98 491.673 992.814 Q491.673 1003.97 484.729 1010.17 Q477.785 1016.33 465.146 1016.33 Q460.794 1016.33 456.257 1015.59 Q451.766 1014.85 446.951 1013.37 L446.951 1003.97 Q451.118 1006.24 455.562 1007.35 Q460.007 1008.46 464.961 1008.46 Q472.97 1008.46 477.646 1004.25 Q482.322 1000.04 482.322 992.814 Q482.322 985.591 477.646 981.378 Q472.97 977.166 464.961 977.166 Q461.211 977.166 457.461 977.999 Q453.757 978.832 449.868 980.591 L449.868 945.869 Z" fill="#000000" fill-rule="nonzero" fill-opacity="1" /><path clip-path="url(#clip510)" d="M530.099 952.027 Q522.877 952.027 519.22 959.156 Q515.608 966.24 515.608 980.499 Q515.608 994.712 519.22 1001.84 Q522.877 1008.92 530.099 1008.92 Q537.368 1008.92 540.979 1001.84 Q544.636 994.712 544.636 980.499 Q544.636 966.24 540.979 959.156 Q537.368 952.027 530.099 952.027 M530.099 944.619 Q541.719 944.619 547.831 953.832 Q553.988 962.999 553.988 980.499 Q553.988 997.952 547.831 1007.17 Q541.719 1016.33 530.099 1016.33 Q518.479 1016.33 512.321 1007.17 Q506.21 997.952 506.21 980.499 Q506.21 962.999 512.321 953.832 Q518.479 944.619 530.099 944.619 Z" fill="#000000" fill-rule="nonzero" fill-opacity="1" /><path clip-path="url(#clip510)" d="M570.423 1003.23 L580.191 1003.23 L580.191 1014.99 L570.423 1014.99 L570.423 1003.23 Z" fill="#000000" fill-rule="nonzero" fill-opacity="1" /><path clip-path="url(#clip510)" d="M620.562 952.027 Q613.339 952.027 609.682 959.156 Q606.071 966.24 606.071 980.499 Q606.071 994.712 609.682 1001.84 Q613.339 1008.92 620.562 1008.92 Q627.83 1008.92 631.441 1001.84 Q635.099 994.712 635.099 980.499 Q635.099 966.24 631.441 959.156 Q627.83 952.027 620.562 952.027 M620.562 944.619 Q632.182 944.619 638.293 953.832 Q644.45 962.999 644.45 980.499 Q644.45 997.952 638.293 1007.17 Q632.182 1016.33 620.562 1016.33 Q608.941 1016.33 602.784 1007.17 Q596.673 997.952 596.673 980.499 Q596.673 962.999 602.784 953.832 Q608.941 944.619 620.562 944.619 Z" fill="#000000" fill-rule="nonzero" fill-opacity="1" /><path clip-path="url(#clip510)" d="M391.072 771.661 L406.35 771.661 L406.35 718.93 L389.73 722.264 L389.73 713.745 L406.257 710.412 L415.609 710.412 L415.609 771.661 L430.887 771.661 L430.887 779.532 L391.072 779.532 L391.072 771.661 Z" fill="#000000" fill-rule="nonzero" fill-opacity="1" /><path clip-path="url(#clip510)" d="M469.775 716.569 Q462.553 716.569 458.896 723.699 Q455.285 730.782 455.285 745.041 Q455.285 759.254 458.896 766.384 Q462.553 773.467 469.775 773.467 Q477.044 773.467 480.655 766.384 Q484.312 759.254 484.312 745.041 Q484.312 730.782 480.655 723.699 Q477.044 716.569 469.775 716.569 M469.775 709.162 Q481.396 709.162 487.507 718.375 Q493.664 727.541 493.664 745.041 Q493.664 762.495 487.507 771.708 Q481.396 780.874 469.775 780.874 Q458.155 780.874 451.998 771.708 Q445.887 762.495 445.887 745.041 Q445.887 727.541 451.998 718.375 Q458.155 709.162 469.775 709.162 Z" fill="#000000" fill-rule="nonzero" fill-opacity="1" /><path clip-path="url(#clip510)" d="M530.099 716.569 Q522.877 716.569 519.22 723.699 Q515.608 730.782 515.608 745.041 Q515.608 759.254 519.22 766.384 Q522.877 773.467 530.099 773.467 Q537.368 773.467 540.979 766.384 Q544.636 759.254 544.636 745.041 Q544.636 730.782 540.979 723.699 Q537.368 716.569 530.099 716.569 M530.099 709.162 Q541.719 709.162 547.831 718.375 Q553.988 727.541 553.988 745.041 Q553.988 762.495 547.831 771.708 Q541.719 780.874 530.099 780.874 Q518.479 780.874 512.321 771.708 Q506.21 762.495 506.21 745.041 Q506.21 727.541 512.321 718.375 Q518.479 709.162 530.099 709.162 Z" fill="#000000" fill-rule="nonzero" fill-opacity="1" /><path clip-path="url(#clip510)" d="M570.423 767.773 L580.191 767.773 L580.191 779.532 L570.423 779.532 L570.423 767.773 Z" fill="#000000" fill-rule="nonzero" fill-opacity="1" /><path clip-path="url(#clip510)" d="M620.562 716.569 Q613.339 716.569 609.682 723.699 Q606.071 730.782 606.071 745.041 Q606.071 759.254 609.682 766.384 Q613.339 773.467 620.562 773.467 Q627.83 773.467 631.441 766.384 Q635.099 759.254 635.099 745.041 Q635.099 730.782 631.441 723.699 Q627.83 716.569 620.562 716.569 M620.562 709.162 Q632.182 709.162 638.293 718.375 Q644.45 727.541 644.45 745.041 Q644.45 762.495 638.293 771.708 Q632.182 780.874 620.562 780.874 Q608.941 780.874 602.784 771.708 Q596.673 762.495 596.673 745.041 Q596.673 727.541 602.784 718.375 Q608.941 709.162 620.562 709.162 Z" fill="#000000" fill-rule="nonzero" fill-opacity="1" /><path clip-path="url(#clip510)" d="M391.072 536.204 L406.35 536.204 L406.35 483.473 L389.73 486.806 L389.73 478.287 L406.257 474.954 L415.609 474.954 L415.609 536.204 L430.887 536.204 L430.887 544.074 L391.072 544.074 L391.072 536.204 Z" fill="#000000" fill-rule="nonzero" fill-opacity="1" /><path clip-path="url(#clip510)" d="M449.868 474.954 L486.581 474.954 L486.581 482.824 L458.433 482.824 L458.433 499.769 Q460.47 499.074 462.507 498.75 Q464.544 498.38 466.581 498.38 Q478.155 498.38 484.914 504.722 Q491.673 511.065 491.673 521.898 Q491.673 533.056 484.729 539.259 Q477.785 545.417 465.146 545.417 Q460.794 545.417 456.257 544.676 Q451.766 543.935 446.951 542.454 L446.951 533.056 Q451.118 535.324 455.562 536.435 Q460.007 537.546 464.961 537.546 Q472.97 537.546 477.646 533.333 Q482.322 529.12 482.322 521.898 Q482.322 514.676 477.646 510.463 Q472.97 506.25 464.961 506.25 Q461.211 506.25 457.461 507.084 Q453.757 507.917 449.868 509.676 L449.868 474.954 Z" fill="#000000" fill-rule="nonzero" fill-opacity="1" /><path clip-path="url(#clip510)" d="M530.099 481.111 Q522.877 481.111 519.22 488.241 Q515.608 495.324 515.608 509.584 Q515.608 523.796 519.22 530.926 Q522.877 538.009 530.099 538.009 Q537.368 538.009 540.979 530.926 Q544.636 523.796 544.636 509.584 Q544.636 495.324 540.979 488.241 Q537.368 481.111 530.099 481.111 M530.099 473.704 Q541.719 473.704 547.831 482.917 Q553.988 492.084 553.988 509.584 Q553.988 527.037 547.831 536.25 Q541.719 545.417 530.099 545.417 Q518.479 545.417 512.321 536.25 Q506.21 527.037 506.21 509.584 Q506.21 492.084 512.321 482.917 Q518.479 473.704 530.099 473.704 Z" fill="#000000" fill-rule="nonzero" fill-opacity="1" /><path clip-path="url(#clip510)" d="M570.423 532.315 L580.191 532.315 L580.191 544.074 L570.423 544.074 L570.423 532.315 Z" fill="#000000" fill-rule="nonzero" fill-opacity="1" /><path clip-path="url(#clip510)" d="M620.562 481.111 Q613.339 481.111 609.682 488.241 Q606.071 495.324 606.071 509.584 Q606.071 523.796 609.682 530.926 Q613.339 538.009 620.562 538.009 Q627.83 538.009 631.441 530.926 Q635.099 523.796 635.099 509.584 Q635.099 495.324 631.441 488.241 Q627.83 481.111 620.562 481.111 M620.562 473.704 Q632.182 473.704 638.293 482.917 Q644.45 492.084 644.45 509.584 Q644.45 527.037 638.293 536.25 Q632.182 545.417 620.562 545.417 Q608.941 545.417 602.784 536.25 Q596.673 527.037 596.673 509.584 Q596.673 492.084 602.784 482.917 Q608.941 473.704 620.562 473.704 Z" fill="#000000" fill-rule="nonzero" fill-opacity="1" /><path clip-path="url(#clip510)" d="M397.507 300.746 L430.146 300.746 L430.146 308.616 L386.257 308.616 L386.257 300.746 Q391.581 295.237 400.748 285.978 Q409.961 276.672 412.322 273.987 Q416.813 268.941 418.572 265.468 Q420.378 261.95 420.378 258.57 Q420.378 253.061 416.489 249.589 Q412.646 246.117 406.442 246.117 Q402.044 246.117 397.137 247.645 Q392.276 249.172 386.72 252.274 L386.72 242.83 Q392.368 240.561 397.276 239.404 Q402.183 238.246 406.257 238.246 Q416.998 238.246 423.387 243.617 Q429.776 248.987 429.776 257.969 Q429.776 262.228 428.155 266.07 Q426.581 269.867 422.368 275.052 Q421.211 276.394 415.007 282.829 Q408.803 289.218 397.507 300.746 Z" fill="#000000" fill-rule="nonzero" fill-opacity="1" /><path clip-path="url(#clip510)" d="M469.775 245.654 Q462.553 245.654 458.896 252.783 Q455.285 259.867 455.285 274.126 Q455.285 288.339 458.896 295.468 Q462.553 302.552 469.775 302.552 Q477.044 302.552 480.655 295.468 Q484.312 288.339 484.312 274.126 Q484.312 259.867 480.655 252.783 Q477.044 245.654 469.775 245.654 M469.775 238.246 Q481.396 238.246 487.507 247.459 Q493.664 256.626 493.664 274.126 Q493.664 291.579 487.507 300.792 Q481.396 309.959 469.775 309.959 Q458.155 309.959 451.998 300.792 Q445.887 291.579 445.887 274.126 Q445.887 256.626 451.998 247.459 Q458.155 238.246 469.775 238.246 Z" fill="#000000" fill-rule="nonzero" fill-opacity="1" /><path clip-path="url(#clip510)" d="M530.099 245.654 Q522.877 245.654 519.22 252.783 Q515.608 259.867 515.608 274.126 Q515.608 288.339 519.22 295.468 Q522.877 302.552 530.099 302.552 Q537.368 302.552 540.979 295.468 Q544.636 288.339 544.636 274.126 Q544.636 259.867 540.979 252.783 Q537.368 245.654 530.099 245.654 M530.099 238.246 Q541.719 238.246 547.831 247.459 Q553.988 256.626 553.988 274.126 Q553.988 291.579 547.831 300.792 Q541.719 309.959 530.099 309.959 Q518.479 309.959 512.321 300.792 Q506.21 291.579 506.21 274.126 Q506.21 256.626 512.321 247.459 Q518.479 238.246 530.099 238.246 Z" fill="#000000" fill-rule="nonzero" fill-opacity="1" /><path clip-path="url(#clip510)" d="M570.423 296.857 L580.191 296.857 L580.191 308.616 L570.423 308.616 L570.423 296.857 Z" fill="#000000" fill-rule="nonzero" fill-opacity="1" /><path clip-path="url(#clip510)" d="M620.562 245.654 Q613.339 245.654 609.682 252.783 Q606.071 259.867 606.071 274.126 Q606.071 288.339 609.682 295.468 Q613.339 302.552 620.562 302.552 Q627.83 302.552 631.441 295.468 Q635.099 288.339 635.099 274.126 Q635.099 259.867 631.441 252.783 Q627.83 245.654 620.562 245.654 M620.562 238.246 Q632.182 238.246 638.293 247.459 Q644.45 256.626 644.45 274.126 Q644.45 291.579 638.293 300.792 Q632.182 309.959 620.562 309.959 Q608.941 309.959 602.784 300.792 Q596.673 291.579 596.673 274.126 Q596.673 256.626 602.784 247.459 Q608.941 238.246 620.562 238.246 Z" fill="#000000" fill-rule="nonzero" fill-opacity="1" /><path clip-path="url(#clip510)" d="M253.187 913.798 L264.136 913.798 Q261.398 918.764 260.062 923.793 Q258.661 928.758 258.661 933.85 Q258.661 945.245 265.918 951.547 Q273.111 957.849 286.161 957.849 Q299.211 957.849 306.468 951.547 Q313.661 945.245 313.661 933.85 Q313.661 928.758 312.324 923.793 Q310.924 918.764 308.186 913.798 L319.008 913.798 Q321.3 918.7 322.446 923.984 Q323.591 929.204 323.591 935.124 Q323.591 951.229 313.47 960.714 Q303.348 970.199 286.161 970.199 Q268.719 970.199 258.725 960.65 Q248.731 951.038 248.731 934.36 Q248.731 928.949 249.876 923.793 Q250.959 918.636 253.187 913.798 Z" fill="#000000" fill-rule="nonzero" fill-opacity="1" /><path clip-path="url(#clip510)" d="M258.661 865.801 Q258.661 875.222 266.045 880.697 Q273.366 886.171 286.161 886.171 Q298.956 886.171 306.34 880.76 Q313.661 875.286 313.661 865.801 Q313.661 856.443 306.277 850.969 Q298.892 845.494 286.161 845.494 Q273.493 845.494 266.109 850.969 Q258.661 856.443 258.661 865.801 M248.731 865.801 Q248.731 850.523 258.661 841.802 Q268.592 833.081 286.161 833.081 Q303.667 833.081 313.661 841.802 Q323.591 850.523 323.591 865.801 Q323.591 881.142 313.661 889.863 Q303.667 898.521 286.161 898.521 Q268.592 898.521 258.661 889.863 Q248.731 881.142 248.731 865.801 Z" fill="#000000" fill-rule="nonzero" fill-opacity="1" /><path clip-path="url(#clip510)" d="M278.713 754.401 L321.745 754.401 L321.745 766.114 L279.095 766.114 Q268.974 766.114 263.945 770.061 Q258.916 774.008 258.916 781.901 Q258.916 791.386 264.963 796.86 Q271.011 802.335 281.45 802.335 L321.745 802.335 L321.745 814.112 L250.449 814.112 L250.449 802.335 L261.526 802.335 Q255.096 798.134 251.914 792.468 Q248.731 786.739 248.731 779.291 Q248.731 767.005 256.37 760.703 Q263.945 754.401 278.713 754.401 Z" fill="#000000" fill-rule="nonzero" fill-opacity="1" /><path clip-path="url(#clip510)" d="M253.187 679.731 L264.136 679.731 Q261.398 684.697 260.062 689.726 Q258.661 694.691 258.661 699.783 Q258.661 711.178 265.918 717.48 Q273.111 723.782 286.161 723.782 Q299.211 723.782 306.468 717.48 Q313.661 711.178 313.661 699.783 Q313.661 694.691 312.324 689.726 Q310.924 684.697 308.186 679.731 L319.008 679.731 Q321.3 684.633 322.446 689.917 Q323.591 695.136 323.591 701.057 Q323.591 717.162 313.47 726.647 Q303.348 736.132 286.161 736.132 Q268.719 736.132 258.725 726.583 Q248.731 716.971 248.731 700.293 Q248.731 694.882 249.876 689.726 Q250.959 684.569 253.187 679.731 Z" fill="#000000" fill-rule="nonzero" fill-opacity="1" /><path clip-path="url(#clip510)" d="M305.576 657.706 L305.576 644.274 L321.745 644.274 L321.745 657.706 L305.576 657.706 Z" fill="#000000" fill-rule="nonzero" fill-opacity="1" /><path clip-path="url(#clip510)" d="M234.026 504.802 L247.585 504.802 Q241.537 511.295 238.546 518.679 Q235.554 526 235.554 534.275 Q235.554 550.571 245.548 559.229 Q255.478 567.886 274.321 567.886 Q293.1 567.886 303.094 559.229 Q313.024 550.571 313.024 534.275 Q313.024 526 310.032 518.679 Q307.041 511.295 300.993 504.802 L314.425 504.802 Q319.008 511.549 321.3 519.125 Q323.591 526.636 323.591 535.039 Q323.591 556.619 310.414 569.032 Q297.174 581.445 274.321 581.445 Q251.404 581.445 238.227 569.032 Q224.987 556.619 224.987 535.039 Q224.987 526.509 227.278 518.997 Q229.506 511.422 234.026 504.802 Z" fill="#000000" fill-rule="nonzero" fill-opacity="1" /><path clip-path="url(#clip510)" d="M226.705 484.941 L226.705 465.78 L291.381 441.527 L226.705 417.146 L226.705 397.985 L321.745 397.985 L321.745 410.526 L238.291 410.526 L303.476 435.034 L303.476 447.956 L238.291 472.464 L321.745 472.464 L321.745 484.941 L226.705 484.941 Z" fill="#000000" fill-rule="nonzero" fill-opacity="1" /><polyline clip-path="url(#clip512)" style="stroke:#008000; stroke-linecap:round; stroke-linejoin:round; stroke-width:8; stroke-opacity:1; fill:none" points="726.443,1033.62 844.372,850.356 962.301,870.098 1080.23,920.186 1198.16,845.148 1316.09,836.059 1434.02,833.313 1551.95,972.689 1669.87,889.461 1787.8,885.863 1905.73,898.503 2023.66,744.972 2141.59,892.538 2259.52,894.337 "/>
<circle clip-path="url(#clip512)" cx="726.443" cy="1033.62" r="14.4" fill="#008000" fill-rule="evenodd" fill-opacity="1" stroke="#000000" stroke-opacity="1" stroke-width="6.4"/>
<circle clip-path="url(#clip512)" cx="844.372" cy="850.356" r="14.4" fill="#008000" fill-rule="evenodd" fill-opacity="1" stroke="#000000" stroke-opacity="1" stroke-width="6.4"/>
<circle clip-path="url(#clip512)" cx="962.301" cy="870.098" r="14.4" fill="#008000" fill-rule="evenodd" fill-opacity="1" stroke="#000000" stroke-opacity="1" stroke-width="6.4"/>
<circle clip-path="url(#clip512)" cx="1080.23" cy="920.186" r="14.4" fill="#008000" fill-rule="evenodd" fill-opacity="1" stroke="#000000" stroke-opacity="1" stroke-width="6.4"/>
<circle clip-path="url(#clip512)" cx="1198.16" cy="845.148" r="14.4" fill="#008000" fill-rule="evenodd" fill-opacity="1" stroke="#000000" stroke-opacity="1" stroke-width="6.4"/>
<circle clip-path="url(#clip512)" cx="1316.09" cy="836.059" r="14.4" fill="#008000" fill-rule="evenodd" fill-opacity="1" stroke="#000000" stroke-opacity="1" stroke-width="6.4"/>
<circle clip-path="url(#clip512)" cx="1434.02" cy="833.313" r="14.4" fill="#008000" fill-rule="evenodd" fill-opacity="1" stroke="#000000" stroke-opacity="1" stroke-width="6.4"/>
<circle clip-path="url(#clip512)" cx="1551.95" cy="972.689" r="14.4" fill="#008000" fill-rule="evenodd" fill-opacity="1" stroke="#000000" stroke-opacity="1" stroke-width="6.4"/>
<circle clip-path="url(#clip512)" cx="1669.87" cy="889.461" r="14.4" fill="#008000" fill-rule="evenodd" fill-opacity="1" stroke="#000000" stroke-opacity="1" stroke-width="6.4"/>
<circle clip-path="url(#clip512)" cx="1787.8" cy="885.863" r="14.4" fill="#008000" fill-rule="evenodd" fill-opacity="1" stroke="#000000" stroke-opacity="1" stroke-width="6.4"/>
<circle clip-path="url(#clip512)" cx="1905.73" cy="898.503" r="14.4" fill="#008000" fill-rule="evenodd" fill-opacity="1" stroke="#000000" stroke-opacity="1" stroke-width="6.4"/>
<circle clip-path="url(#clip512)" cx="2023.66" cy="744.972" r="14.4" fill="#008000" fill-rule="evenodd" fill-opacity="1" stroke="#000000" stroke-opacity="1" stroke-width="6.4"/>
<circle clip-path="url(#clip512)" cx="2141.59" cy="892.538" r="14.4" fill="#008000" fill-rule="evenodd" fill-opacity="1" stroke="#000000" stroke-opacity="1" stroke-width="6.4"/>
<circle clip-path="url(#clip512)" cx="2259.52" cy="894.337" r="14.4" fill="#008000" fill-rule="evenodd" fill-opacity="1" stroke="#000000" stroke-opacity="1" stroke-width="6.4"/>
<polyline clip-path="url(#clip512)" style="stroke:#00008b; stroke-linecap:round; stroke-linejoin:round; stroke-width:8; stroke-opacity:1; fill:none" points="726.443,1034.77 844.372,882.234 962.301,779.116 1080.23,665.787 1198.16,595.843 1316.09,528.145 1434.02,465.158 1551.95,437.169 1669.87,399.226 1787.8,367.621 1905.73,352.703 2023.66,328.738 2141.59,356.091 2259.52,335.537 "/>
<path clip-path="url(#clip512)" d="M726.443 1240.32 L844.372 1081.82 L962.301 979.601 L1080.23 862.108 L1198.16 789.711 L1316.09 728.391 L1434.02 651.932 L1551.95 628.63 L1669.87 594.902 L1787.8 563.678 L1905.73 555.222 L2023.66 514.638 L2141.59 553.302 L2259.52 531.95 L2259.52 127.862 L2141.59 163.93 L2023.66 141.988 L1905.73 153.999 L1787.8 180.429 L1669.87 198.817 L1551.95 233.406 L1434.02 266.846 L1316.09 333.959 L1198.16 386.439 L1080.23 474.793 L962.301 584.182 L844.372 673.391 L726.443 833.407  Z" fill="#0000ff" fill-rule="evenodd" fill-opacity="0.1"/>
<polyline clip-path="url(#clip512)" style="stroke:#0000ff; stroke-linecap:round; stroke-linejoin:round; stroke-width:0; stroke-opacity:0.1; fill:none" points="726.443,1240.32 844.372,1081.82 962.301,979.601 1080.23,862.108 1198.16,789.711 1316.09,728.391 1434.02,651.932 1551.95,628.63 1669.87,594.902 1787.8,563.678 1905.73,555.222 2023.66,514.638 2141.59,553.302 2259.52,531.95 "/>
</svg>
