<?xml version="1.0" encoding="utf-8"?>
<svg xmlns="http://www.w3.org/2000/svg" xmlns:xlink="http://www.w3.org/1999/xlink" width="600" height="400" viewBox="0 0 2400 1600">
<defs>
  <clipPath id="clip710">
    <rect x="0" y="0" width="2400" height="1600"/>
  </clipPath>
</defs>
<path clip-path="url(#clip710)" d="M0 1600 L2400 1600 L2400 0 L0 0  Z" fill="#ffffff" fill-rule="evenodd" fill-opacity="1"/>
<defs>
  <clipPath id="clip711">
    <rect x="480" y="0" width="1681" height="1600"/>
  </clipPath>
</defs>
<path clip-path="url(#clip710)" d="M673.506 1273.7 L2305.51 1273.7 L2305.51 94.4882 L673.506 94.4882  Z" fill="#ffffff" fill-rule="evenodd" fill-opacity="1"/>
<defs>
  <clipPath id="clip712">
    <rect x="673" y="94" width="1633" height="1180"/>
  </clipPath>
</defs>
<polyline clip-path="url(#clip712)" style="stroke:#000000; stroke-linecap:round; stroke-linejoin:round; stroke-width:4; stroke-opacity:0.1; fill:none" points="719.695,1273.7 719.695,94.4882 "/>
<polyline clip-path="url(#clip712)" style="stroke:#000000; stroke-linecap:round; stroke-linejoin:round; stroke-width:4; stroke-opacity:0.1; fill:none" points="956.561,1273.7 956.561,94.4882 "/>
<polyline clip-path="url(#clip712)" style="stroke:#000000; stroke-linecap:round; stroke-linejoin:round; stroke-width:4; stroke-opacity:0.1; fill:none" points="1193.43,1273.7 1193.43,94.4882 "/>
<polyline clip-path="url(#clip712)" style="stroke:#000000; stroke-linecap:round; stroke-linejoin:round; stroke-width:4; stroke-opacity:0.1; fill:none" points="1430.29,1273.7 1430.29,94.4882 "/>
<polyline clip-path="url(#clip712)" style="stroke:#000000; stroke-linecap:round; stroke-linejoin:round; stroke-width:4; stroke-opacity:0.1; fill:none" points="1667.16,1273.7 1667.16,94.4882 "/>
<polyline clip-path="url(#clip712)" style="stroke:#000000; stroke-linecap:round; stroke-linejoin:round; stroke-width:4; stroke-opacity:0.1; fill:none" points="1904.02,1273.7 1904.02,94.4882 "/>
<polyline clip-path="url(#clip712)" style="stroke:#000000; stroke-linecap:round; stroke-linejoin:round; stroke-width:4; stroke-opacity:0.1; fill:none" points="2140.89,1273.7 2140.89,94.4882 "/>
<polyline clip-path="url(#clip710)" style="stroke:#000000; stroke-linecap:round; stroke-linejoin:round; stroke-width:8; stroke-opacity:1; fill:none" points="673.506,1273.7 2305.51,1273.7 "/>
<polyline clip-path="url(#clip710)" style="stroke:#000000; stroke-linecap:round; stroke-linejoin:round; stroke-width:8; stroke-opacity:1; fill:none" points="719.695,1273.7 719.695,1254.8 "/>
<polyline clip-path="url(#clip710)" style="stroke:#000000; stroke-linecap:round; stroke-linejoin:round; stroke-width:8; stroke-opacity:1; fill:none" points="956.561,1273.7 956.561,1254.8 "/>
<polyline clip-path="url(#clip710)" style="stroke:#000000; stroke-linecap:round; stroke-linejoin:round; stroke-width:8; stroke-opacity:1; fill:none" points="1193.43,1273.7 1193.43,1254.8 "/>
<polyline clip-path="url(#clip710)" style="stroke:#000000; stroke-linecap:round; stroke-linejoin:round; stroke-width:8; stroke-opacity:1; fill:none" points="1430.29,1273.7 1430.29,1254.8 "/>
<polyline clip-path="url(#clip710)" style="stroke:#000000; stroke-linecap:round; stroke-linejoin:round; stroke-width:8; stroke-opacity:1; fill:none" points="1667.16,1273.7 1667.16,1254.8 "/>
<polyline clip-path="url(#clip710)" style="stroke:#000000; stroke-linecap:round; stroke-linejoin:round; stroke-width:8; stroke-opacity:1; fill:none" points="1904.02,1273.7 1904.02,1254.8 "/>
<polyline clip-path="url(#clip710)" style="stroke:#000000; stroke-linecap:round; stroke-linejoin:round; stroke-width:8; stroke-opacity:1; fill:none" points="2140.89,1273.7 2140.89,1254.8 "/>
<path clip-path="url(#clip710)" d="M674.464 1316.33 Q667.241 1316.33 663.584 1323.46 Q659.973 1330.55 659.973 1344.81 Q659.973 1359.02 663.584 1366.15 Q667.241 1373.23 674.464 1373.23 Q681.732 1373.23 685.343 1366.15 Q689.001 1359.02 689.001 1344.81 Q689.001 1330.55 685.343 1323.46 Q681.732 1316.33 674.464 1316.33 M674.464 1308.93 Q686.084 1308.93 692.195 1318.14 Q698.352 1327.31 698.352 1344.81 Q698.352 1362.26 692.195 1371.47 Q686.084 1380.64 674.464 1380.64 Q662.843 1380.64 656.686 1371.47 Q650.575 1362.26 650.575 1344.81 Q650.575 1327.31 656.686 1318.14 Q662.843 1308.93 674.464 1308.93 Z" fill="#000000" fill-rule="nonzero" fill-opacity="1" /><path clip-path="url(#clip710)" d="M714.787 1367.54 L724.556 1367.54 L724.556 1379.3 L714.787 1379.3 L714.787 1367.54 Z" fill="#000000" fill-rule="nonzero" fill-opacity="1" /><path clip-path="url(#clip710)" d="M764.926 1316.33 Q757.704 1316.33 754.046 1323.46 Q750.435 1330.55 750.435 1344.81 Q750.435 1359.02 754.046 1366.15 Q757.704 1373.23 764.926 1373.23 Q772.195 1373.23 775.806 1366.15 Q779.463 1359.02 779.463 1344.81 Q779.463 1330.55 775.806 1323.46 Q772.195 1316.33 764.926 1316.33 M764.926 1308.93 Q776.546 1308.93 782.657 1318.14 Q788.815 1327.31 788.815 1344.81 Q788.815 1362.26 782.657 1371.47 Q776.546 1380.64 764.926 1380.64 Q753.306 1380.64 747.148 1371.47 Q741.037 1362.26 741.037 1344.81 Q741.037 1327.31 747.148 1318.14 Q753.306 1308.93 764.926 1308.93 Z" fill="#000000" fill-rule="nonzero" fill-opacity="1" /><path clip-path="url(#clip710)" d="M912.927 1316.33 Q905.704 1316.33 902.047 1323.46 Q898.436 1330.55 898.436 1344.81 Q898.436 1359.02 902.047 1366.15 Q905.704 1373.23 912.927 1373.23 Q920.195 1373.23 923.806 1366.15 Q927.464 1359.02 927.464 1344.81 Q927.464 1330.55 923.806 1323.46 Q920.195 1316.33 912.927 1316.33 M912.927 1308.93 Q924.547 1308.93 930.658 1318.14 Q936.815 1327.31 936.815 1344.81 Q936.815 1362.26 930.658 1371.47 Q924.547 1380.64 912.927 1380.64 Q901.306 1380.64 895.149 1371.47 Q889.038 1362.26 889.038 1344.81 Q889.038 1327.31 895.149 1318.14 Q901.306 1308.93 912.927 1308.93 Z" fill="#000000" fill-rule="nonzero" fill-opacity="1" /><path clip-path="url(#clip710)" d="M953.251 1367.54 L963.019 1367.54 L963.019 1379.3 L953.251 1379.3 L953.251 1367.54 Z" fill="#000000" fill-rule="nonzero" fill-opacity="1" /><path clip-path="url(#clip710)" d="M991.445 1371.43 L1024.08 1371.43 L1024.08 1379.3 L980.195 1379.3 L980.195 1371.43 Q985.519 1365.92 994.685 1356.66 Q1003.9 1347.35 1006.26 1344.67 Q1010.75 1339.62 1012.51 1336.15 Q1014.32 1332.63 1014.32 1329.25 Q1014.32 1323.74 1010.43 1320.27 Q1006.58 1316.8 1000.38 1316.8 Q995.982 1316.8 991.074 1318.32 Q986.213 1319.85 980.658 1322.95 L980.658 1313.51 Q986.306 1311.24 991.213 1310.08 Q996.121 1308.93 1000.19 1308.93 Q1010.94 1308.93 1017.32 1314.3 Q1023.71 1319.67 1023.71 1328.65 Q1023.71 1332.91 1022.09 1336.75 Q1020.52 1340.55 1016.31 1345.73 Q1015.15 1347.07 1008.94 1353.51 Q1002.74 1359.9 991.445 1371.43 Z" fill="#000000" fill-rule="nonzero" fill-opacity="1" /><path clip-path="url(#clip710)" d="M1147.71 1316.33 Q1140.49 1316.33 1136.83 1323.46 Q1133.22 1330.55 1133.22 1344.81 Q1133.22 1359.02 1136.83 1366.15 Q1140.49 1373.23 1147.71 1373.23 Q1154.98 1373.23 1158.59 1366.15 Q1162.25 1359.02 1162.25 1344.81 Q1162.25 1330.55 1158.59 1323.46 Q1154.98 1316.33 1147.71 1316.33 M1147.71 1308.93 Q1159.33 1308.93 1165.44 1318.14 Q1171.6 1327.31 1171.6 1344.81 Q1171.6 1362.26 1165.44 1371.47 Q1159.33 1380.64 1147.71 1380.64 Q1136.09 1380.64 1129.93 1371.47 Q1123.82 1362.26 1123.82 1344.81 Q1123.82 1327.31 1129.93 1318.14 Q1136.09 1308.93 1147.71 1308.93 Z" fill="#000000" fill-rule="nonzero" fill-opacity="1" /><path clip-path="url(#clip710)" d="M1188.03 1367.54 L1197.8 1367.54 L1197.8 1379.3 L1188.03 1379.3 L1188.03 1367.54 Z" fill="#000000" fill-rule="nonzero" fill-opacity="1" /><path clip-path="url(#clip710)" d="M1243.87 1318.32 L1220.26 1355.22 L1243.87 1355.22 L1243.87 1318.32 M1241.41 1310.18 L1253.17 1310.18 L1253.17 1355.22 L1263.03 1355.22 L1263.03 1363 L1253.17 1363 L1253.17 1379.3 L1243.87 1379.3 L1243.87 1363 L1212.66 1363 L1212.66 1353.97 L1241.41 1310.18 Z" fill="#000000" fill-rule="nonzero" fill-opacity="1" /><path clip-path="url(#clip710)" d="M1384.9 1316.33 Q1377.68 1316.33 1374.02 1323.46 Q1370.41 1330.55 1370.41 1344.81 Q1370.41 1359.02 1374.02 1366.15 Q1377.68 1373.23 1384.9 1373.23 Q1392.17 1373.23 1395.78 1366.15 Q1399.44 1359.02 1399.44 1344.81 Q1399.44 1330.55 1395.78 1323.46 Q1392.17 1316.33 1384.9 1316.33 M1384.9 1308.93 Q1396.52 1308.93 1402.63 1318.14 Q1408.79 1327.31 1408.79 1344.81 Q1408.79 1362.26 1402.63 1371.47 Q1396.52 1380.64 1384.9 1380.64 Q1373.28 1380.64 1367.12 1371.47 Q1361.01 1362.26 1361.01 1344.81 Q1361.01 1327.31 1367.12 1318.14 Q1373.28 1308.93 1384.9 1308.93 Z" fill="#000000" fill-rule="nonzero" fill-opacity="1" /><path clip-path="url(#clip710)" d="M1425.22 1367.54 L1434.99 1367.54 L1434.99 1379.3 L1425.22 1379.3 L1425.22 1367.54 Z" fill="#000000" fill-rule="nonzero" fill-opacity="1" /><path clip-path="url(#clip710)" d="M1476.52 1341.01 Q1470.22 1341.01 1466.52 1345.31 Q1462.86 1349.62 1462.86 1357.12 Q1462.86 1364.57 1466.52 1368.93 Q1470.22 1373.23 1476.52 1373.23 Q1482.82 1373.23 1486.47 1368.93 Q1490.18 1364.57 1490.18 1357.12 Q1490.18 1349.62 1486.47 1345.31 Q1482.82 1341.01 1476.52 1341.01 M1495.08 1311.7 L1495.08 1320.22 Q1491.57 1318.56 1487.95 1317.68 Q1484.39 1316.8 1480.87 1316.8 Q1471.61 1316.8 1466.7 1323.05 Q1461.84 1329.3 1461.15 1341.93 Q1463.88 1337.91 1468 1335.78 Q1472.12 1333.6 1477.07 1333.6 Q1487.49 1333.6 1493.51 1339.94 Q1499.57 1346.24 1499.57 1357.12 Q1499.57 1367.77 1493.28 1374.2 Q1486.98 1380.64 1476.52 1380.64 Q1464.53 1380.64 1458.19 1371.47 Q1451.84 1362.26 1451.84 1344.81 Q1451.84 1328.42 1459.62 1318.69 Q1467.4 1308.93 1480.5 1308.93 Q1484.02 1308.93 1487.58 1309.62 Q1491.19 1310.31 1495.08 1311.7 Z" fill="#000000" fill-rule="nonzero" fill-opacity="1" /><path clip-path="url(#clip710)" d="M1622.02 1316.33 Q1614.8 1316.33 1611.14 1323.46 Q1607.53 1330.55 1607.53 1344.81 Q1607.53 1359.02 1611.14 1366.15 Q1614.8 1373.23 1622.02 1373.23 Q1629.29 1373.23 1632.9 1366.15 Q1636.56 1359.02 1636.56 1344.81 Q1636.56 1330.55 1632.9 1323.46 Q1629.29 1316.33 1622.02 1316.33 M1622.02 1308.93 Q1633.64 1308.93 1639.75 1318.14 Q1645.91 1327.31 1645.91 1344.81 Q1645.91 1362.26 1639.75 1371.47 Q1633.64 1380.64 1622.02 1380.64 Q1610.4 1380.64 1604.24 1371.47 Q1598.13 1362.26 1598.13 1344.81 Q1598.13 1327.31 1604.24 1318.14 Q1610.4 1308.93 1622.02 1308.93 Z" fill="#000000" fill-rule="nonzero" fill-opacity="1" /><path clip-path="url(#clip710)" d="M1662.34 1367.54 L1672.11 1367.54 L1672.11 1379.3 L1662.34 1379.3 L1662.34 1367.54 Z" fill="#000000" fill-rule="nonzero" fill-opacity="1" /><path clip-path="url(#clip710)" d="M1712.48 1346.47 Q1705.82 1346.47 1701.97 1350.04 Q1698.18 1353.6 1698.18 1359.85 Q1698.18 1366.1 1701.97 1369.67 Q1705.82 1373.23 1712.48 1373.23 Q1719.15 1373.23 1722.99 1369.67 Q1726.83 1366.06 1726.83 1359.85 Q1726.83 1353.6 1722.99 1350.04 Q1719.2 1346.47 1712.48 1346.47 M1703.13 1342.49 Q1697.11 1341.01 1693.73 1336.89 Q1690.4 1332.77 1690.4 1326.84 Q1690.4 1318.56 1696.28 1313.74 Q1702.2 1308.93 1712.48 1308.93 Q1722.81 1308.93 1728.69 1313.74 Q1734.57 1318.56 1734.57 1326.84 Q1734.57 1332.77 1731.19 1336.89 Q1727.85 1341.01 1721.88 1342.49 Q1728.64 1344.06 1732.39 1348.65 Q1736.19 1353.23 1736.19 1359.85 Q1736.19 1369.9 1730.03 1375.27 Q1723.92 1380.64 1712.48 1380.64 Q1701.05 1380.64 1694.89 1375.27 Q1688.78 1369.9 1688.78 1359.85 Q1688.78 1353.23 1692.57 1348.65 Q1696.37 1344.06 1703.13 1342.49 M1699.7 1327.72 Q1699.7 1333.09 1703.04 1336.1 Q1706.42 1339.11 1712.48 1339.11 Q1718.5 1339.11 1721.88 1336.1 Q1725.31 1333.09 1725.31 1327.72 Q1725.31 1322.35 1721.88 1319.34 Q1718.5 1316.33 1712.48 1316.33 Q1706.42 1316.33 1703.04 1319.34 Q1699.7 1322.35 1699.7 1327.72 Z" fill="#000000" fill-rule="nonzero" fill-opacity="1" /><path clip-path="url(#clip710)" d="M1838.33 1371.43 L1853.61 1371.43 L1853.61 1318.69 L1836.99 1322.03 L1836.99 1313.51 L1853.52 1310.18 L1862.87 1310.18 L1862.87 1371.43 L1878.14 1371.43 L1878.14 1379.3 L1838.33 1379.3 L1838.33 1371.43 Z" fill="#000000" fill-rule="nonzero" fill-opacity="1" /><path clip-path="url(#clip710)" d="M1897.03 1367.54 L1906.8 1367.54 L1906.8 1379.3 L1897.03 1379.3 L1897.03 1367.54 Z" fill="#000000" fill-rule="nonzero" fill-opacity="1" /><path clip-path="url(#clip710)" d="M1947.17 1316.33 Q1939.95 1316.33 1936.29 1323.46 Q1932.68 1330.55 1932.68 1344.81 Q1932.68 1359.02 1936.29 1366.15 Q1939.95 1373.23 1947.17 1373.23 Q1954.44 1373.23 1958.05 1366.15 Q1961.71 1359.02 1961.71 1344.81 Q1961.71 1330.55 1958.05 1323.46 Q1954.44 1316.33 1947.17 1316.33 M1947.17 1308.93 Q1958.79 1308.93 1964.9 1318.14 Q1971.06 1327.31 1971.06 1344.81 Q1971.06 1362.26 1964.9 1371.47 Q1958.79 1380.64 1947.17 1380.64 Q1935.55 1380.64 1929.39 1371.47 Q1923.28 1362.26 1923.28 1344.81 Q1923.28 1327.31 1929.39 1318.14 Q1935.55 1308.93 1947.17 1308.93 Z" fill="#000000" fill-rule="nonzero" fill-opacity="1" /><path clip-path="url(#clip710)" d="M2076.79 1371.43 L2092.07 1371.43 L2092.07 1318.69 L2075.45 1322.03 L2075.45 1313.51 L2091.98 1310.18 L2101.33 1310.18 L2101.33 1371.43 L2116.61 1371.43 L2116.61 1379.3 L2076.79 1379.3 L2076.79 1371.43 Z" fill="#000000" fill-rule="nonzero" fill-opacity="1" /><path clip-path="url(#clip710)" d="M2135.5 1367.54 L2145.27 1367.54 L2145.27 1379.3 L2135.5 1379.3 L2135.5 1367.54 Z" fill="#000000" fill-rule="nonzero" fill-opacity="1" /><path clip-path="url(#clip710)" d="M2173.69 1371.43 L2206.33 1371.43 L2206.33 1379.3 L2162.44 1379.3 L2162.44 1371.43 Q2167.76 1365.92 2176.93 1356.66 Q2186.14 1347.35 2188.51 1344.67 Q2193 1339.62 2194.76 1336.15 Q2196.56 1332.63 2196.56 1329.25 Q2196.56 1323.74 2192.67 1320.27 Q2188.83 1316.8 2182.63 1316.8 Q2178.23 1316.8 2173.32 1318.32 Q2168.46 1319.85 2162.9 1322.95 L2162.9 1313.51 Q2168.55 1311.24 2173.46 1310.08 Q2178.37 1308.93 2182.44 1308.93 Q2193.18 1308.93 2199.57 1314.3 Q2205.96 1319.67 2205.96 1328.65 Q2205.96 1332.91 2204.34 1336.75 Q2202.76 1340.55 2198.55 1345.73 Q2197.39 1347.07 2191.19 1353.51 Q2184.99 1359.9 2173.69 1371.43 Z" fill="#000000" fill-rule="nonzero" fill-opacity="1" /><path clip-path="url(#clip710)" d="M1375.05 1484.39 L1375.05 1527.42 L1363.34 1527.42 L1363.34 1484.77 Q1363.34 1474.65 1359.39 1469.62 Q1355.45 1464.59 1347.55 1464.59 Q1338.07 1464.59 1332.59 1470.64 Q1327.12 1476.69 1327.12 1487.13 L1327.12 1527.42 L1315.34 1527.42 L1315.34 1428.37 L1327.12 1428.37 L1327.12 1467.2 Q1331.32 1460.77 1336.99 1457.59 Q1342.72 1454.41 1350.16 1454.41 Q1362.45 1454.41 1368.75 1462.05 Q1375.05 1469.62 1375.05 1484.39 Z" fill="#000000" fill-rule="nonzero" fill-opacity="1" /><path clip-path="url(#clip710)" d="M1426.04 1464.34 Q1416.62 1464.34 1411.15 1471.72 Q1405.67 1479.04 1405.67 1491.84 Q1405.67 1504.63 1411.08 1512.02 Q1416.56 1519.34 1426.04 1519.34 Q1435.4 1519.34 1440.87 1511.96 Q1446.35 1504.57 1446.35 1491.84 Q1446.35 1479.17 1440.87 1471.79 Q1435.4 1464.34 1426.04 1464.34 M1426.04 1454.41 Q1441.32 1454.41 1450.04 1464.34 Q1458.76 1474.27 1458.76 1491.84 Q1458.76 1509.35 1450.04 1519.34 Q1441.32 1529.27 1426.04 1529.27 Q1410.7 1529.27 1401.98 1519.34 Q1393.32 1509.35 1393.32 1491.84 Q1393.32 1474.27 1401.98 1464.34 Q1410.7 1454.41 1426.04 1454.41 Z" fill="#000000" fill-rule="nonzero" fill-opacity="1" /><path clip-path="url(#clip710)" d="M1476.97 1499.29 L1476.97 1456.13 L1488.68 1456.13 L1488.68 1498.84 Q1488.68 1508.96 1492.63 1514.06 Q1496.57 1519.08 1504.47 1519.08 Q1513.95 1519.08 1519.43 1513.04 Q1524.97 1506.99 1524.97 1496.55 L1524.97 1456.13 L1536.68 1456.13 L1536.68 1527.42 L1524.97 1527.42 L1524.97 1516.47 Q1520.7 1522.97 1515.04 1526.15 Q1509.43 1529.27 1501.99 1529.27 Q1489.7 1529.27 1483.33 1521.63 Q1476.97 1513.99 1476.97 1499.29 M1506.44 1454.41 L1506.44 1454.41 Z" fill="#000000" fill-rule="nonzero" fill-opacity="1" /><path clip-path="url(#clip710)" d="M1602.12 1467.08 Q1600.14 1465.93 1597.79 1465.42 Q1595.5 1464.85 1592.7 1464.85 Q1582.77 1464.85 1577.42 1471.34 Q1572.14 1477.77 1572.14 1489.87 L1572.14 1527.42 L1560.36 1527.42 L1560.36 1456.13 L1572.14 1456.13 L1572.14 1467.2 Q1575.83 1460.71 1581.75 1457.59 Q1587.67 1454.41 1596.13 1454.41 Q1597.34 1454.41 1598.81 1454.6 Q1600.27 1454.73 1602.05 1455.05 L1602.12 1467.08 Z" fill="#000000" fill-rule="nonzero" fill-opacity="1" /><path clip-path="url(#clip710)" d="M1659.86 1458.23 L1659.86 1469.3 Q1654.89 1466.76 1649.54 1465.49 Q1644.2 1464.21 1638.47 1464.21 Q1629.75 1464.21 1625.35 1466.89 Q1621.02 1469.56 1621.02 1474.91 Q1621.02 1478.98 1624.14 1481.34 Q1627.26 1483.63 1636.68 1485.73 L1640.69 1486.62 Q1653.17 1489.29 1658.39 1494.19 Q1663.67 1499.03 1663.67 1507.75 Q1663.67 1517.68 1655.78 1523.48 Q1647.95 1529.27 1634.2 1529.27 Q1628.47 1529.27 1622.23 1528.12 Q1616.06 1527.04 1609.18 1524.81 L1609.18 1512.72 Q1615.68 1516.09 1621.98 1517.81 Q1628.28 1519.47 1634.46 1519.47 Q1642.73 1519.47 1647.19 1516.67 Q1651.64 1513.8 1651.64 1508.64 Q1651.64 1503.87 1648.4 1501.32 Q1645.21 1498.78 1634.33 1496.42 L1630.25 1495.47 Q1619.37 1493.18 1614.53 1488.47 Q1609.69 1483.69 1609.69 1475.42 Q1609.69 1465.36 1616.82 1459.88 Q1623.95 1454.41 1637.07 1454.41 Q1643.56 1454.41 1649.29 1455.36 Q1655.02 1456.32 1659.86 1458.23 Z" fill="#000000" fill-rule="nonzero" fill-opacity="1" /><polyline clip-path="url(#clip712)" style="stroke:#000000; stroke-linecap:round; stroke-linejoin:round; stroke-width:4; stroke-opacity:0.1; fill:none" points="673.506,1216.59 2305.51,1216.59 "/>
<polyline clip-path="url(#clip712)" style="stroke:#000000; stroke-linecap:round; stroke-linejoin:round; stroke-width:4; stroke-opacity:0.1; fill:none" points="673.506,929.481 2305.51,929.481 "/>
<polyline clip-path="url(#clip712)" style="stroke:#000000; stroke-linecap:round; stroke-linejoin:round; stroke-width:4; stroke-opacity:0.1; fill:none" points="673.506,642.376 2305.51,642.376 "/>
<polyline clip-path="url(#clip712)" style="stroke:#000000; stroke-linecap:round; stroke-linejoin:round; stroke-width:4; stroke-opacity:0.1; fill:none" points="673.506,355.271 2305.51,355.271 "/>
<polyline clip-path="url(#clip710)" style="stroke:#000000; stroke-linecap:round; stroke-linejoin:round; stroke-width:8; stroke-opacity:1; fill:none" points="673.506,1273.7 673.506,94.4882 "/>
<polyline clip-path="url(#clip710)" style="stroke:#000000; stroke-linecap:round; stroke-linejoin:round; stroke-width:8; stroke-opacity:1; fill:none" points="673.506,1216.59 692.404,1216.59 "/>
<polyline clip-path="url(#clip710)" style="stroke:#000000; stroke-linecap:round; stroke-linejoin:round; stroke-width:8; stroke-opacity:1; fill:none" points="673.506,929.481 692.404,929.481 "/>
<polyline clip-path="url(#clip710)" style="stroke:#000000; stroke-linecap:round; stroke-linejoin:round; stroke-width:8; stroke-opacity:1; fill:none" points="673.506,642.376 692.404,642.376 "/>
<polyline clip-path="url(#clip710)" style="stroke:#000000; stroke-linecap:round; stroke-linejoin:round; stroke-width:8; stroke-opacity:1; fill:none" points="673.506,355.271 692.404,355.271 "/>
<path clip-path="url(#clip710)" d="M384.128 1243.28 L399.405 1243.28 L399.405 1190.55 L382.785 1193.88 L382.785 1185.36 L399.313 1182.03 L408.665 1182.03 L408.665 1243.28 L423.942 1243.28 L423.942 1251.15 L384.128 1251.15 L384.128 1243.28 Z" fill="#000000" fill-rule="nonzero" fill-opacity="1" /><path clip-path="url(#clip710)" d="M450.887 1243.28 L483.525 1243.28 L483.525 1251.15 L439.637 1251.15 L439.637 1243.28 Q444.961 1237.77 454.127 1228.51 Q463.34 1219.2 465.701 1216.52 Q470.192 1211.47 471.951 1208 Q473.757 1204.48 473.757 1201.1 Q473.757 1195.59 469.868 1192.12 Q466.025 1188.65 459.822 1188.65 Q455.424 1188.65 450.516 1190.17 Q445.655 1191.7 440.1 1194.8 L440.1 1185.36 Q445.748 1183.09 450.655 1181.93 Q455.562 1180.78 459.637 1180.78 Q470.377 1180.78 476.766 1186.15 Q483.155 1191.52 483.155 1200.5 Q483.155 1204.76 481.535 1208.6 Q479.961 1212.4 475.748 1217.58 Q474.59 1218.92 468.387 1225.36 Q462.183 1231.75 450.887 1243.28 Z" fill="#000000" fill-rule="nonzero" fill-opacity="1" /><path clip-path="url(#clip710)" d="M523.155 1188.18 Q515.933 1188.18 512.275 1195.31 Q508.664 1202.4 508.664 1216.66 Q508.664 1230.87 512.275 1238 Q515.933 1245.08 523.155 1245.08 Q530.423 1245.08 534.034 1238 Q537.692 1230.87 537.692 1216.66 Q537.692 1202.4 534.034 1195.31 Q530.423 1188.18 523.155 1188.18 M523.155 1180.78 Q534.775 1180.78 540.886 1189.99 Q547.043 1199.16 547.043 1216.66 Q547.043 1234.11 540.886 1243.32 Q534.775 1252.49 523.155 1252.49 Q511.534 1252.49 505.377 1243.32 Q499.266 1234.11 499.266 1216.66 Q499.266 1199.16 505.377 1189.99 Q511.534 1180.78 523.155 1180.78 Z" fill="#000000" fill-rule="nonzero" fill-opacity="1" /><path clip-path="url(#clip710)" d="M563.479 1239.39 L573.247 1239.39 L573.247 1251.15 L563.479 1251.15 L563.479 1239.39 Z" fill="#000000" fill-rule="nonzero" fill-opacity="1" /><path clip-path="url(#clip710)" d="M613.617 1188.18 Q606.395 1188.18 602.738 1195.31 Q599.127 1202.4 599.127 1216.66 Q599.127 1230.87 602.738 1238 Q606.395 1245.08 613.617 1245.08 Q620.886 1245.08 624.497 1238 Q628.154 1230.87 628.154 1216.66 Q628.154 1202.4 624.497 1195.31 Q620.886 1188.18 613.617 1188.18 M613.617 1180.78 Q625.238 1180.78 631.349 1189.99 Q637.506 1199.16 637.506 1216.66 Q637.506 1234.11 631.349 1243.32 Q625.238 1252.49 613.617 1252.49 Q601.997 1252.49 595.84 1243.32 Q589.728 1234.11 589.728 1216.66 Q589.728 1199.16 595.84 1189.99 Q601.997 1180.78 613.617 1180.78 Z" fill="#000000" fill-rule="nonzero" fill-opacity="1" /><path clip-path="url(#clip710)" d="M384.128 956.171 L399.405 956.171 L399.405 903.44 L382.785 906.773 L382.785 898.255 L399.313 894.921 L408.665 894.921 L408.665 956.171 L423.942 956.171 L423.942 964.041 L384.128 964.041 L384.128 956.171 Z" fill="#000000" fill-rule="nonzero" fill-opacity="1" /><path clip-path="url(#clip710)" d="M468.525 903.07 L444.914 939.967 L468.525 939.967 L468.525 903.07 M466.072 894.921 L477.831 894.921 L477.831 939.967 L487.692 939.967 L487.692 947.745 L477.831 947.745 L477.831 964.041 L468.525 964.041 L468.525 947.745 L437.322 947.745 L437.322 938.717 L466.072 894.921 Z" fill="#000000" fill-rule="nonzero" fill-opacity="1" /><path clip-path="url(#clip710)" d="M523.155 901.079 Q515.933 901.079 512.275 908.208 Q508.664 915.292 508.664 929.551 Q508.664 943.764 512.275 950.893 Q515.933 957.977 523.155 957.977 Q530.423 957.977 534.034 950.893 Q537.692 943.764 537.692 929.551 Q537.692 915.292 534.034 908.208 Q530.423 901.079 523.155 901.079 M523.155 893.671 Q534.775 893.671 540.886 902.884 Q547.043 912.051 547.043 929.551 Q547.043 947.004 540.886 956.217 Q534.775 965.384 523.155 965.384 Q511.534 965.384 505.377 956.217 Q499.266 947.004 499.266 929.551 Q499.266 912.051 505.377 902.884 Q511.534 893.671 523.155 893.671 Z" fill="#000000" fill-rule="nonzero" fill-opacity="1" /><path clip-path="url(#clip710)" d="M563.479 952.282 L573.247 952.282 L573.247 964.041 L563.479 964.041 L563.479 952.282 Z" fill="#000000" fill-rule="nonzero" fill-opacity="1" /><path clip-path="url(#clip710)" d="M613.617 901.079 Q606.395 901.079 602.738 908.208 Q599.127 915.292 599.127 929.551 Q599.127 943.764 602.738 950.893 Q606.395 957.977 613.617 957.977 Q620.886 957.977 624.497 950.893 Q628.154 943.764 628.154 929.551 Q628.154 915.292 624.497 908.208 Q620.886 901.079 613.617 901.079 M613.617 893.671 Q625.238 893.671 631.349 902.884 Q637.506 912.051 637.506 929.551 Q637.506 947.004 631.349 956.217 Q625.238 965.384 613.617 965.384 Q601.997 965.384 595.84 956.217 Q589.728 947.004 589.728 929.551 Q589.728 912.051 595.84 902.884 Q601.997 893.671 613.617 893.671 Z" fill="#000000" fill-rule="nonzero" fill-opacity="1" /><path clip-path="url(#clip710)" d="M384.128 669.066 L399.405 669.066 L399.405 616.334 L382.785 619.668 L382.785 611.149 L399.313 607.816 L408.665 607.816 L408.665 669.066 L423.942 669.066 L423.942 676.936 L384.128 676.936 L384.128 669.066 Z" fill="#000000" fill-rule="nonzero" fill-opacity="1" /><path clip-path="url(#clip710)" d="M463.988 638.649 Q457.692 638.649 453.988 642.955 Q450.331 647.26 450.331 654.76 Q450.331 662.214 453.988 666.566 Q457.692 670.871 463.988 670.871 Q470.285 670.871 473.942 666.566 Q477.646 662.214 477.646 654.76 Q477.646 647.26 473.942 642.955 Q470.285 638.649 463.988 638.649 M482.553 609.344 L482.553 617.862 Q479.035 616.196 475.424 615.316 Q471.859 614.436 468.34 614.436 Q459.081 614.436 454.174 620.686 Q449.313 626.936 448.618 639.575 Q451.35 635.547 455.47 633.418 Q459.59 631.242 464.544 631.242 Q474.961 631.242 480.979 637.584 Q487.044 643.881 487.044 654.76 Q487.044 665.408 480.748 671.843 Q474.451 678.279 463.988 678.279 Q451.998 678.279 445.655 669.112 Q439.313 659.899 439.313 642.445 Q439.313 626.057 447.09 616.334 Q454.868 606.566 467.97 606.566 Q471.488 606.566 475.053 607.26 Q478.664 607.955 482.553 609.344 Z" fill="#000000" fill-rule="nonzero" fill-opacity="1" /><path clip-path="url(#clip710)" d="M523.155 613.973 Q515.933 613.973 512.275 621.103 Q508.664 628.186 508.664 642.445 Q508.664 656.658 512.275 663.788 Q515.933 670.871 523.155 670.871 Q530.423 670.871 534.034 663.788 Q537.692 656.658 537.692 642.445 Q537.692 628.186 534.034 621.103 Q530.423 613.973 523.155 613.973 M523.155 606.566 Q534.775 606.566 540.886 615.779 Q547.043 624.946 547.043 642.445 Q547.043 659.899 540.886 669.112 Q534.775 678.279 523.155 678.279 Q511.534 678.279 505.377 669.112 Q499.266 659.899 499.266 642.445 Q499.266 624.946 505.377 615.779 Q511.534 606.566 523.155 606.566 Z" fill="#000000" fill-rule="nonzero" fill-opacity="1" /><path clip-path="url(#clip710)" d="M563.479 665.177 L573.247 665.177 L573.247 676.936 L563.479 676.936 L563.479 665.177 Z" fill="#000000" fill-rule="nonzero" fill-opacity="1" /><path clip-path="url(#clip710)" d="M613.617 613.973 Q606.395 613.973 602.738 621.103 Q599.127 628.186 599.127 642.445 Q599.127 656.658 602.738 663.788 Q606.395 670.871 613.617 670.871 Q620.886 670.871 624.497 663.788 Q628.154 656.658 628.154 642.445 Q628.154 628.186 624.497 621.103 Q620.886 613.973 613.617 613.973 M613.617 606.566 Q625.238 606.566 631.349 615.779 Q637.506 624.946 637.506 642.445 Q637.506 659.899 631.349 669.112 Q625.238 678.279 613.617 678.279 Q601.997 678.279 595.84 669.112 Q589.728 659.899 589.728 642.445 Q589.728 624.946 595.84 615.779 Q601.997 606.566 613.617 606.566 Z" fill="#000000" fill-rule="nonzero" fill-opacity="1" /><path clip-path="url(#clip710)" d="M384.128 381.96 L399.405 381.96 L399.405 329.229 L382.785 332.562 L382.785 324.044 L399.313 320.711 L408.665 320.711 L408.665 381.96 L423.942 381.96 L423.942 389.831 L384.128 389.831 L384.128 381.96 Z" fill="#000000" fill-rule="nonzero" fill-opacity="1" /><path clip-path="url(#clip710)" d="M462.831 357.007 Q456.164 357.007 452.322 360.572 Q448.525 364.136 448.525 370.386 Q448.525 376.636 452.322 380.201 Q456.164 383.766 462.831 383.766 Q469.498 383.766 473.34 380.201 Q477.183 376.59 477.183 370.386 Q477.183 364.136 473.34 360.572 Q469.544 357.007 462.831 357.007 M453.479 353.025 Q447.461 351.544 444.081 347.423 Q440.748 343.303 440.748 337.377 Q440.748 329.09 446.627 324.275 Q452.553 319.461 462.831 319.461 Q473.155 319.461 479.035 324.275 Q484.914 329.09 484.914 337.377 Q484.914 343.303 481.535 347.423 Q478.201 351.544 472.229 353.025 Q478.988 354.599 482.738 359.183 Q486.535 363.766 486.535 370.386 Q486.535 380.433 480.377 385.803 Q474.266 391.173 462.831 391.173 Q451.396 391.173 445.238 385.803 Q439.127 380.433 439.127 370.386 Q439.127 363.766 442.924 359.183 Q446.72 354.599 453.479 353.025 M450.053 338.257 Q450.053 343.627 453.387 346.636 Q456.766 349.646 462.831 349.646 Q468.849 349.646 472.229 346.636 Q475.655 343.627 475.655 338.257 Q475.655 332.886 472.229 329.877 Q468.849 326.868 462.831 326.868 Q456.766 326.868 453.387 329.877 Q450.053 332.886 450.053 338.257 Z" fill="#000000" fill-rule="nonzero" fill-opacity="1" /><path clip-path="url(#clip710)" d="M523.155 326.868 Q515.933 326.868 512.275 333.998 Q508.664 341.081 508.664 355.34 Q508.664 369.553 512.275 376.683 Q515.933 383.766 523.155 383.766 Q530.423 383.766 534.034 376.683 Q537.692 369.553 537.692 355.34 Q537.692 341.081 534.034 333.998 Q530.423 326.868 523.155 326.868 M523.155 319.461 Q534.775 319.461 540.886 328.674 Q547.043 337.84 547.043 355.34 Q547.043 372.794 540.886 382.007 Q534.775 391.173 523.155 391.173 Q511.534 391.173 505.377 382.007 Q499.266 372.794 499.266 355.34 Q499.266 337.84 505.377 328.674 Q511.534 319.461 523.155 319.461 Z" fill="#000000" fill-rule="nonzero" fill-opacity="1" /><path clip-path="url(#clip710)" d="M563.479 378.071 L573.247 378.071 L573.247 389.831 L563.479 389.831 L563.479 378.071 Z" fill="#000000" fill-rule="nonzero" fill-opacity="1" /><path clip-path="url(#clip710)" d="M613.617 326.868 Q606.395 326.868 602.738 333.998 Q599.127 341.081 599.127 355.34 Q599.127 369.553 602.738 376.683 Q606.395 383.766 613.617 383.766 Q620.886 383.766 624.497 376.683 Q628.154 369.553 628.154 355.34 Q628.154 341.081 624.497 333.998 Q620.886 326.868 613.617 326.868 M613.617 319.461 Q625.238 319.461 631.349 328.674 Q637.506 337.84 637.506 355.34 Q637.506 372.794 631.349 382.007 Q625.238 391.173 613.617 391.173 Q601.997 391.173 595.84 382.007 Q589.728 372.794 589.728 355.34 Q589.728 337.84 595.84 328.674 Q601.997 319.461 613.617 319.461 Z" fill="#000000" fill-rule="nonzero" fill-opacity="1" /><path clip-path="url(#clip710)" d="M307.579 933.755 L345.391 933.755 L345.391 945.532 L246.977 945.532 L246.977 933.755 L257.799 933.755 Q251.433 930.063 248.378 924.461 Q245.258 918.796 245.258 910.966 Q245.258 897.98 255.571 889.895 Q265.883 881.747 282.689 881.747 Q299.494 881.747 309.807 889.895 Q320.119 897.98 320.119 910.966 Q320.119 918.796 317.064 924.461 Q313.944 930.063 307.579 933.755 M282.689 893.906 Q269.766 893.906 262.446 899.253 Q255.062 904.536 255.062 913.83 Q255.062 923.124 262.446 928.471 Q269.766 933.755 282.689 933.755 Q295.611 933.755 302.995 928.471 Q310.316 923.124 310.316 913.83 Q310.316 904.536 302.995 899.253 Q295.611 893.906 282.689 893.906 Z" fill="#000000" fill-rule="nonzero" fill-opacity="1" /><path clip-path="url(#clip710)" d="M282.434 829.93 Q282.434 844.126 285.681 849.6 Q288.927 855.075 296.757 855.075 Q302.995 855.075 306.688 851.001 Q310.316 846.863 310.316 839.797 Q310.316 830.058 303.441 824.201 Q296.502 818.281 285.044 818.281 L282.434 818.281 L282.434 829.93 M277.596 806.568 L318.273 806.568 L318.273 818.281 L307.451 818.281 Q313.944 822.291 317.064 828.275 Q320.119 834.259 320.119 842.916 Q320.119 853.865 314.008 860.358 Q307.833 866.788 297.521 866.788 Q285.49 866.788 279.379 858.767 Q273.268 850.683 273.268 834.705 L273.268 818.281 L272.122 818.281 Q264.037 818.281 259.645 823.628 Q255.189 828.912 255.189 838.524 Q255.189 844.635 256.653 850.428 Q258.117 856.221 261.045 861.568 L250.224 861.568 Q247.741 855.139 246.532 849.091 Q245.258 843.044 245.258 837.315 Q245.258 821.846 253.279 814.207 Q261.3 806.568 277.596 806.568 Z" fill="#000000" fill-rule="nonzero" fill-opacity="1" /><path clip-path="url(#clip710)" d="M257.926 741.129 Q256.78 743.102 256.271 745.457 Q255.698 747.749 255.698 750.55 Q255.698 760.48 262.191 765.828 Q268.621 771.111 280.715 771.111 L318.273 771.111 L318.273 782.888 L246.977 782.888 L246.977 771.111 L258.054 771.111 Q251.561 767.419 248.441 761.499 Q245.258 755.579 245.258 747.112 Q245.258 745.903 245.449 744.439 Q245.577 742.975 245.895 741.192 L257.926 741.129 Z" fill="#000000" fill-rule="nonzero" fill-opacity="1" /><path clip-path="url(#clip710)" d="M279.697 670.724 L285.426 670.724 L285.426 724.578 Q297.521 723.814 303.887 717.321 Q310.189 710.764 310.189 699.115 Q310.189 692.367 308.534 686.065 Q306.878 679.7 303.568 673.461 L314.645 673.461 Q317.318 679.763 318.719 686.384 Q320.119 693.004 320.119 699.815 Q320.119 716.875 310.189 726.87 Q300.258 736.8 283.325 736.8 Q265.82 736.8 255.571 727.379 Q245.258 717.894 245.258 701.852 Q245.258 687.466 254.552 679.127 Q263.783 670.724 279.697 670.724 M276.259 682.437 Q266.647 682.564 260.918 687.848 Q255.189 693.068 255.189 701.725 Q255.189 711.528 260.727 717.448 Q266.265 723.305 276.323 724.196 L276.259 682.437 Z" fill="#000000" fill-rule="nonzero" fill-opacity="1" /><path clip-path="url(#clip710)" d="M275.241 592.235 L318.273 592.235 L318.273 603.948 L275.623 603.948 Q265.501 603.948 260.472 607.894 Q255.444 611.841 255.444 619.735 Q255.444 629.22 261.491 634.694 Q267.538 640.169 277.978 640.169 L318.273 640.169 L318.273 651.945 L246.977 651.945 L246.977 640.169 L258.054 640.169 Q251.624 635.967 248.441 630.302 Q245.258 624.573 245.258 617.125 Q245.258 604.839 252.897 598.537 Q260.472 592.235 275.241 592.235 Z" fill="#000000" fill-rule="nonzero" fill-opacity="1" /><path clip-path="url(#clip710)" d="M302.104 567.218 L302.104 553.786 L318.273 553.786 L318.273 567.218 L302.104 567.218 Z" fill="#000000" fill-rule="nonzero" fill-opacity="1" /><path clip-path="url(#clip710)" d="M234.437 449.006 L285.171 481.472 L285.171 449.006 L234.437 449.006 M223.233 452.38 L223.233 436.211 L285.171 436.211 L285.171 422.652 L295.866 422.652 L295.866 436.211 L318.273 436.211 L318.273 449.006 L295.866 449.006 L295.866 491.911 L283.453 491.911 L223.233 452.38 Z" fill="#000000" fill-rule="nonzero" fill-opacity="1" /><polyline clip-path="url(#clip712)" style="stroke:#008000; stroke-linecap:round; stroke-linejoin:round; stroke-width:8; stroke-opacity:1; fill:none" points="719.695,177.754 838.128,293.323 956.561,347.641 1074.99,483.916 1193.43,600.048 1311.86,623.611 1430.29,745.094 1548.73,761.133 1667.16,827.309 1785.59,929.743 1904.02,1009.63 2022.46,996.284 2140.89,1134.95 2259.32,1071.4 "/>
<circle clip-path="url(#clip712)" cx="719.695" cy="177.754" r="14.4" fill="#008000" fill-rule="evenodd" fill-opacity="1" stroke="#000000" stroke-opacity="1" stroke-width="6.4"/>
<circle clip-path="url(#clip712)" cx="838.128" cy="293.323" r="14.4" fill="#008000" fill-rule="evenodd" fill-opacity="1" stroke="#000000" stroke-opacity="1" stroke-width="6.4"/>
<circle clip-path="url(#clip712)" cx="956.561" cy="347.641" r="14.4" fill="#008000" fill-rule="evenodd" fill-opacity="1" stroke="#000000" stroke-opacity="1" stroke-width="6.4"/>
<circle clip-path="url(#clip712)" cx="1074.99" cy="483.916" r="14.4" fill="#008000" fill-rule="evenodd" fill-opacity="1" stroke="#000000" stroke-opacity="1" stroke-width="6.4"/>
<circle clip-path="url(#clip712)" cx="1193.43" cy="600.048" r="14.4" fill="#008000" fill-rule="evenodd" fill-opacity="1" stroke="#000000" stroke-opacity="1" stroke-width="6.4"/>
<circle clip-path="url(#clip712)" cx="1311.86" cy="623.611" r="14.4" fill="#008000" fill-rule="evenodd" fill-opacity="1" stroke="#000000" stroke-opacity="1" stroke-width="6.4"/>
<circle clip-path="url(#clip712)" cx="1430.29" cy="745.094" r="14.4" fill="#008000" fill-rule="evenodd" fill-opacity="1" stroke="#000000" stroke-opacity="1" stroke-width="6.4"/>
<circle clip-path="url(#clip712)" cx="1548.73" cy="761.133" r="14.4" fill="#008000" fill-rule="evenodd" fill-opacity="1" stroke="#000000" stroke-opacity="1" stroke-width="6.4"/>
<circle clip-path="url(#clip712)" cx="1667.16" cy="827.309" r="14.4" fill="#008000" fill-rule="evenodd" fill-opacity="1" stroke="#000000" stroke-opacity="1" stroke-width="6.4"/>
<circle clip-path="url(#clip712)" cx="1785.59" cy="929.743" r="14.4" fill="#008000" fill-rule="evenodd" fill-opacity="1" stroke="#000000" stroke-opacity="1" stroke-width="6.4"/>
<circle clip-path="url(#clip712)" cx="1904.02" cy="1009.63" r="14.4" fill="#008000" fill-rule="evenodd" fill-opacity="1" stroke="#000000" stroke-opacity="1" stroke-width="6.4"/>
<circle clip-path="url(#clip712)" cx="2022.46" cy="996.284" r="14.4" fill="#008000" fill-rule="evenodd" fill-opacity="1" stroke="#000000" stroke-opacity="1" stroke-width="6.4"/>
<circle clip-path="url(#clip712)" cx="2140.89" cy="1134.95" r="14.4" fill="#008000" fill-rule="evenodd" fill-opacity="1" stroke="#000000" stroke-opacity="1" stroke-width="6.4"/>
<circle clip-path="url(#clip712)" cx="2259.32" cy="1071.4" r="14.4" fill="#008000" fill-rule="evenodd" fill-opacity="1" stroke="#000000" stroke-opacity="1" stroke-width="6.4"/>
<polyline clip-path="url(#clip712)" style="stroke:#00008b; stroke-linecap:round; stroke-linejoin:round; stroke-width:8; stroke-opacity:1; fill:none" points="719.695,171.527 838.128,306.312 956.561,422.325 1074.99,526.657 1193.43,617.984 1311.86,699.461 1430.29,777.505 1548.73,848.057 1667.16,915.362 1785.59,978.144 1904.02,1037.15 2022.46,1091.72 2140.89,1144.79 2259.32,1196.18 "/>
<path clip-path="url(#clip712)" d="M719.695 212.886 L838.128 350.227 L956.561 467.147 L1074.99 568.112 L1193.43 661.343 L1311.86 740.964 L1430.29 821.454 L1548.73 891.978 L1667.16 960.872 L1785.59 1022.93 L1904.02 1081.43 L2022.46 1132.19 L2140.89 1187.86 L2259.32 1240.32 L2259.32 1153.37 L2140.89 1099.59 L2022.46 1049.33 L1904.02 992.865 L1785.59 931.7 L1667.16 870.836 L1548.73 803.598 L1430.29 734.189 L1311.86 656.296 L1193.43 576.254 L1074.99 481.664 L956.561 379.913 L838.128 262.53 L719.695 127.862  Z" fill="#0000ff" fill-rule="evenodd" fill-opacity="0.1"/>
<polyline clip-path="url(#clip712)" style="stroke:#0000ff; stroke-linecap:round; stroke-linejoin:round; stroke-width:0; stroke-opacity:0.1; fill:none" points="719.695,212.886 838.128,350.227 956.561,467.147 1074.99,568.112 1193.43,661.343 1311.86,740.964 1430.29,821.454 1548.73,891.978 1667.16,960.872 1785.59,1022.93 1904.02,1081.43 2022.46,1132.19 2140.89,1187.86 2259.32,1240.32 "/>
</svg>
