<?xml version="1.0" encoding="utf-8"?>
<svg xmlns="http://www.w3.org/2000/svg" xmlns:xlink="http://www.w3.org/1999/xlink" width="600" height="400" viewBox="0 0 2400 1600">
<defs>
  <clipPath id="clip130">
    <rect x="0" y="0" width="2400" height="1600"/>
  </clipPath>
</defs>
<path clip-path="url(#clip130)" d="M0 1600 L2400 1600 L2400 0 L0 0  Z" fill="#ffffff" fill-rule="evenodd" fill-opacity="1"/>
<defs>
  <clipPath id="clip131">
    <rect x="480" y="0" width="1681" height="1600"/>
  </clipPath>
</defs>
<path clip-path="url(#clip130)" d="M673.506 1273.7 L2305.51 1273.7 L2305.51 94.4882 L673.506 94.4882  Z" fill="#ffffff" fill-rule="evenodd" fill-opacity="1"/>
<defs>
  <clipPath id="clip132">
    <rect x="673" y="94" width="1633" height="1180"/>
  </clipPath>
</defs>
<polyline clip-path="url(#clip132)" style="stroke:#000000; stroke-linecap:round; stroke-linejoin:round; stroke-width:4; stroke-opacity:0.1; fill:none" points="719.695,1273.7 719.695,94.4882 "/>
<polyline clip-path="url(#clip132)" style="stroke:#000000; stroke-linecap:round; stroke-linejoin:round; stroke-width:4; stroke-opacity:0.1; fill:none" points="956.561,1273.7 956.561,94.4882 "/>
<polyline clip-path="url(#clip132)" style="stroke:#000000; stroke-linecap:round; stroke-linejoin:round; stroke-width:4; stroke-opacity:0.1; fill:none" points="1193.43,1273.7 1193.43,94.4882 "/>
<polyline clip-path="url(#clip132)" style="stroke:#000000; stroke-linecap:round; stroke-linejoin:round; stroke-width:4; stroke-opacity:0.1; fill:none" points="1430.29,1273.7 1430.29,94.4882 "/>
<polyline clip-path="url(#clip132)" style="stroke:#000000; stroke-linecap:round; stroke-linejoin:round; stroke-width:4; stroke-opacity:0.1; fill:none" points="1667.16,1273.7 1667.16,94.4882 "/>
<polyline clip-path="url(#clip132)" style="stroke:#000000; stroke-linecap:round; stroke-linejoin:round; stroke-width:4; stroke-opacity:0.1; fill:none" points="1904.02,1273.7 1904.02,94.4882 "/>
<polyline clip-path="url(#clip132)" style="stroke:#000000; stroke-linecap:round; stroke-linejoin:round; stroke-width:4; stroke-opacity:0.1; fill:none" points="2140.89,1273.7 2140.89,94.4882 "/>
<polyline clip-path="url(#clip130)" style="stroke:#000000; stroke-linecap:round; stroke-linejoin:round; stroke-width:8; stroke-opacity:1; fill:none" points="673.506,1273.7 2305.51,1273.7 "/>
<polyline clip-path="url(#clip130)" style="stroke:#000000; stroke-linecap:round; stroke-linejoin:round; stroke-width:8; stroke-opacity:1; fill:none" points="719.695,1273.7 719.695,1254.8 "/>
<polyline clip-path="url(#clip130)" style="stroke:#000000; stroke-linecap:round; stroke-linejoin:round; stroke-width:8; stroke-opacity:1; fill:none" points="956.561,1273.7 956.561,1254.8 "/>
<polyline clip-path="url(#clip130)" style="stroke:#000000; stroke-linecap:round; stroke-linejoin:round; stroke-width:8; stroke-opacity:1; fill:none" points="1193.43,1273.7 1193.43,1254.8 "/>
<polyline clip-path="url(#clip130)" style="stroke:#000000; stroke-linecap:round; stroke-linejoin:round; stroke-width:8; stroke-opacity:1; fill:none" points="1430.29,1273.7 1430.29,1254.8 "/>
<polyline clip-path="url(#clip130)" style="stroke:#000000; stroke-linecap:round; stroke-linejoin:round; stroke-width:8; stroke-opacity:1; fill:none" points="1667.16,1273.7 1667.16,1254.8 "/>
<polyline clip-path="url(#clip130)" style="stroke:#000000; stroke-linecap:round; stroke-linejoin:round; stroke-width:8; stroke-opacity:1; fill:none" points="1904.02,1273.7 1904.02,1254.8 "/>
<polyline clip-path="url(#clip130)" style="stroke:#000000; stroke-linecap:round; stroke-linejoin:round; stroke-width:8; stroke-opacity:1; fill:none" points="2140.89,1273.7 2140.89,1254.8 "/>
<path clip-path="url(#clip130)" d="M674.464 1316.33 Q667.241 1316.33 663.584 1323.46 Q659.973 1330.55 659.973 1344.81 Q659.973 1359.02 663.584 1366.15 Q667.241 1373.23 674.464 1373.23 Q681.732 1373.23 685.343 1366.15 Q689.001 1359.02 689.001 1344.81 Q689.001 1330.55 685.343 1323.46 Q681.732 1316.33 674.464 1316.33 M674.464 1308.93 Q686.084 1308.93 692.195 1318.14 Q698.352 1327.31 698.352 1344.81 Q698.352 1362.26 692.195 1371.47 Q686.084 1380.64 674.464 1380.64 Q662.843 1380.64 656.686 1371.47 Q650.575 1362.26 650.575 1344.81 Q650.575 1327.31 656.686 1318.14 Q662.843 1308.93 674.464 1308.93 Z" fill="#000000" fill-rule="nonzero" fill-opacity="1" /><path clip-path="url(#clip130)" d="M714.787 1367.54 L724.556 1367.54 L724.556 1379.3 L714.787 1379.3 L714.787 1367.54 Z" fill="#000000" fill-rule="nonzero" fill-opacity="1" /><path clip-path="url(#clip130)" d="M764.926 1316.33 Q757.704 1316.33 754.046 1323.46 Q750.435 1330.55 750.435 1344.81 Q750.435 1359.02 754.046 1366.15 Q757.704 1373.23 764.926 1373.23 Q772.195 1373.23 775.806 1366.15 Q779.463 1359.02 779.463 1344.81 Q779.463 1330.55 775.806 1323.46 Q772.195 1316.33 764.926 1316.33 M764.926 1308.93 Q776.546 1308.93 782.657 1318.14 Q788.815 1327.31 788.815 1344.81 Q788.815 1362.26 782.657 1371.47 Q776.546 1380.64 764.926 1380.64 Q753.306 1380.64 747.148 1371.47 Q741.037 1362.26 741.037 1344.81 Q741.037 1327.31 747.148 1318.14 Q753.306 1308.93 764.926 1308.93 Z" fill="#000000" fill-rule="nonzero" fill-opacity="1" /><path clip-path="url(#clip130)" d="M912.927 1316.33 Q905.704 1316.33 902.047 1323.46 Q898.436 1330.55 898.436 1344.81 Q898.436 1359.02 902.047 1366.15 Q905.704 1373.23 912.927 1373.23 Q920.195 1373.23 923.806 1366.15 Q927.464 1359.02 927.464 1344.81 Q927.464 1330.55 923.806 1323.46 Q920.195 1316.33 912.927 1316.33 M912.927 1308.93 Q924.547 1308.93 930.658 1318.14 Q936.815 1327.31 936.815 1344.81 Q936.815 1362.26 930.658 1371.47 Q924.547 1380.64 912.927 1380.64 Q901.306 1380.64 895.149 1371.47 Q889.038 1362.26 889.038 1344.81 Q889.038 1327.31 895.149 1318.14 Q901.306 1308.93 912.927 1308.93 Z" fill="#000000" fill-rule="nonzero" fill-opacity="1" /><path clip-path="url(#clip130)" d="M953.251 1367.54 L963.019 1367.54 L963.019 1379.3 L953.251 1379.3 L953.251 1367.54 Z" fill="#000000" fill-rule="nonzero" fill-opacity="1" /><path clip-path="url(#clip130)" d="M991.445 1371.43 L1024.08 1371.43 L1024.08 1379.3 L980.195 1379.3 L980.195 1371.43 Q985.519 1365.92 994.685 1356.66 Q1003.9 1347.35 1006.26 1344.67 Q1010.75 1339.62 1012.51 1336.15 Q1014.32 1332.63 1014.32 1329.25 Q1014.32 1323.74 1010.43 1320.27 Q1006.58 1316.8 1000.38 1316.8 Q995.982 1316.8 991.074 1318.32 Q986.213 1319.85 980.658 1322.95 L980.658 1313.51 Q986.306 1311.24 991.213 1310.08 Q996.121 1308.93 1000.19 1308.93 Q1010.94 1308.93 1017.32 1314.3 Q1023.71 1319.67 1023.71 1328.65 Q1023.71 1332.91 1022.09 1336.75 Q1020.52 1340.55 1016.31 1345.73 Q1015.15 1347.07 1008.94 1353.51 Q1002.74 1359.9 991.445 1371.43 Z" fill="#000000" fill-rule="nonzero" fill-opacity="1" /><path clip-path="url(#clip130)" d="M1147.71 1316.33 Q1140.49 1316.33 1136.83 1323.46 Q1133.22 1330.55 1133.22 1344.81 Q1133.22 1359.02 1136.83 1366.15 Q1140.49 1373.23 1147.71 1373.23 Q1154.98 1373.23 1158.59 1366.15 Q1162.25 1359.02 1162.25 1344.81 Q1162.25 1330.55 1158.59 1323.46 Q1154.98 1316.33 1147.71 1316.33 M1147.71 1308.93 Q1159.33 1308.93 1165.44 1318.14 Q1171.6 1327.31 1171.6 1344.81 Q1171.6 1362.26 1165.44 1371.47 Q1159.33 1380.64 1147.71 1380.64 Q1136.09 1380.64 1129.93 1371.47 Q1123.82 1362.26 1123.82 1344.81 Q1123.82 1327.31 1129.93 1318.14 Q1136.09 1308.93 1147.71 1308.93 Z" fill="#000000" fill-rule="nonzero" fill-opacity="1" /><path clip-path="url(#clip130)" d="M1188.03 1367.54 L1197.8 1367.54 L1197.8 1379.3 L1188.03 1379.3 L1188.03 1367.54 Z" fill="#000000" fill-rule="nonzero" fill-opacity="1" /><path clip-path="url(#clip130)" d="M1243.87 1318.32 L1220.26 1355.22 L1243.87 1355.22 L1243.87 1318.32 M1241.41 1310.18 L1253.17 1310.18 L1253.17 1355.22 L1263.03 1355.22 L1263.03 1363 L1253.17 1363 L1253.17 1379.3 L1243.87 1379.3 L1243.87 1363 L1212.66 1363 L1212.66 1353.97 L1241.41 1310.18 Z" fill="#000000" fill-rule="nonzero" fill-opacity="1" /><path clip-path="url(#clip130)" d="M1384.9 1316.33 Q1377.68 1316.33 1374.02 1323.46 Q1370.41 1330.55 1370.41 1344.81 Q1370.41 1359.02 1374.02 1366.15 Q1377.68 1373.23 1384.9 1373.23 Q1392.17 1373.23 1395.78 1366.15 Q1399.44 1359.02 1399.44 1344.81 Q1399.44 1330.55 1395.78 1323.46 Q1392.17 1316.33 1384.9 1316.33 M1384.9 1308.93 Q1396.52 1308.93 1402.63 1318.14 Q1408.79 1327.31 1408.79 1344.81 Q1408.79 1362.26 1402.63 1371.47 Q1396.52 1380.64 1384.9 1380.64 Q1373.28 1380.64 1367.12 1371.47 Q1361.01 1362.26 1361.01 1344.81 Q1361.01 1327.31 1367.12 1318.14 Q1373.28 1308.93 1384.9 1308.93 Z" fill="#000000" fill-rule="nonzero" fill-opacity="1" /><path clip-path="url(#clip130)" d="M1425.22 1367.54 L1434.99 1367.54 L1434.99 1379.3 L1425.22 1379.3 L1425.22 1367.54 Z" fill="#000000" fill-rule="nonzero" fill-opacity="1" /><path clip-path="url(#clip130)" d="M1476.52 1341.01 Q1470.22 1341.01 1466.52 1345.31 Q1462.86 1349.62 1462.86 1357.12 Q1462.86 1364.57 1466.52 1368.93 Q1470.22 1373.23 1476.52 1373.23 Q1482.82 1373.23 1486.47 1368.93 Q1490.18 1364.57 1490.18 1357.12 Q1490.18 1349.62 1486.47 1345.31 Q1482.82 1341.01 1476.52 1341.01 M1495.08 1311.7 L1495.08 1320.22 Q1491.57 1318.56 1487.95 1317.68 Q1484.39 1316.8 1480.87 1316.8 Q1471.61 1316.8 1466.7 1323.05 Q1461.84 1329.3 1461.15 1341.93 Q1463.88 1337.91 1468 1335.78 Q1472.12 1333.6 1477.07 1333.6 Q1487.49 1333.6 1493.51 1339.94 Q1499.57 1346.24 1499.57 1357.12 Q1499.57 1367.77 1493.28 1374.2 Q1486.98 1380.64 1476.52 1380.64 Q1464.53 1380.64 1458.19 1371.47 Q1451.84 1362.26 1451.84 1344.81 Q1451.84 1328.42 1459.62 1318.69 Q1467.4 1308.93 1480.5 1308.93 Q1484.02 1308.93 1487.58 1309.62 Q1491.19 1310.31 1495.08 1311.7 Z" fill="#000000" fill-rule="nonzero" fill-opacity="1" /><path clip-path="url(#clip130)" d="M1622.02 1316.33 Q1614.8 1316.33 1611.14 1323.46 Q1607.53 1330.55 1607.53 1344.81 Q1607.53 1359.02 1611.14 1366.15 Q1614.8 1373.23 1622.02 1373.23 Q1629.29 1373.23 1632.9 1366.15 Q1636.56 1359.02 1636.56 1344.81 Q1636.56 1330.55 1632.9 1323.46 Q1629.29 1316.33 1622.02 1316.33 M1622.02 1308.93 Q1633.64 1308.93 1639.75 1318.14 Q1645.91 1327.31 1645.91 1344.81 Q1645.91 1362.26 1639.75 1371.47 Q1633.64 1380.64 1622.02 1380.64 Q1610.4 1380.64 1604.24 1371.47 Q1598.13 1362.26 1598.13 1344.81 Q1598.13 1327.31 1604.24 1318.14 Q1610.4 1308.93 1622.02 1308.93 Z" fill="#000000" fill-rule="nonzero" fill-opacity="1" /><path clip-path="url(#clip130)" d="M1662.34 1367.54 L1672.11 1367.54 L1672.11 1379.3 L1662.34 1379.3 L1662.34 1367.54 Z" fill="#000000" fill-rule="nonzero" fill-opacity="1" /><path clip-path="url(#clip130)" d="M1712.48 1346.47 Q1705.82 1346.47 1701.97 1350.04 Q1698.18 1353.6 1698.18 1359.85 Q1698.18 1366.1 1701.97 1369.67 Q1705.82 1373.23 1712.48 1373.23 Q1719.15 1373.23 1722.99 1369.67 Q1726.83 1366.06 1726.83 1359.85 Q1726.83 1353.6 1722.99 1350.04 Q1719.2 1346.47 1712.48 1346.47 M1703.13 1342.49 Q1697.11 1341.01 1693.73 1336.89 Q1690.4 1332.77 1690.4 1326.84 Q1690.4 1318.56 1696.28 1313.74 Q1702.2 1308.93 1712.48 1308.93 Q1722.81 1308.93 1728.69 1313.74 Q1734.57 1318.56 1734.57 1326.84 Q1734.57 1332.77 1731.19 1336.89 Q1727.85 1341.01 1721.88 1342.49 Q1728.64 1344.06 1732.39 1348.65 Q1736.19 1353.23 1736.19 1359.85 Q1736.19 1369.9 1730.03 1375.27 Q1723.92 1380.64 1712.48 1380.64 Q1701.05 1380.64 1694.89 1375.27 Q1688.78 1369.9 1688.78 1359.85 Q1688.78 1353.23 1692.57 1348.65 Q1696.37 1344.06 1703.13 1342.49 M1699.7 1327.72 Q1699.7 1333.09 1703.04 1336.1 Q1706.42 1339.11 1712.48 1339.11 Q1718.5 1339.11 1721.88 1336.1 Q1725.31 1333.09 1725.31 1327.72 Q1725.31 1322.35 1721.88 1319.34 Q1718.5 1316.33 1712.48 1316.33 Q1706.42 1316.33 1703.04 1319.34 Q1699.7 1322.35 1699.7 1327.72 Z" fill="#000000" fill-rule="nonzero" fill-opacity="1" /><path clip-path="url(#clip130)" d="M1838.33 1371.43 L1853.61 1371.43 L1853.61 1318.69 L1836.99 1322.03 L1836.99 1313.51 L1853.52 1310.18 L1862.87 1310.18 L1862.87 1371.43 L1878.14 1371.43 L1878.14 1379.3 L1838.33 1379.3 L1838.33 1371.43 Z" fill="#000000" fill-rule="nonzero" fill-opacity="1" /><path clip-path="url(#clip130)" d="M1897.03 1367.54 L1906.8 1367.54 L1906.8 1379.3 L1897.03 1379.3 L1897.03 1367.54 Z" fill="#000000" fill-rule="nonzero" fill-opacity="1" /><path clip-path="url(#clip130)" d="M1947.17 1316.33 Q1939.95 1316.33 1936.29 1323.46 Q1932.68 1330.55 1932.68 1344.81 Q1932.68 1359.02 1936.29 1366.15 Q1939.95 1373.23 1947.17 1373.23 Q1954.44 1373.23 1958.05 1366.15 Q1961.71 1359.02 1961.71 1344.81 Q1961.71 1330.55 1958.05 1323.46 Q1954.44 1316.33 1947.17 1316.33 M1947.17 1308.93 Q1958.79 1308.93 1964.9 1318.14 Q1971.06 1327.31 1971.06 1344.81 Q1971.06 1362.26 1964.9 1371.47 Q1958.79 1380.64 1947.17 1380.64 Q1935.55 1380.64 1929.39 1371.47 Q1923.28 1362.26 1923.28 1344.81 Q1923.28 1327.31 1929.39 1318.14 Q1935.55 1308.93 1947.17 1308.93 Z" fill="#000000" fill-rule="nonzero" fill-opacity="1" /><path clip-path="url(#clip130)" d="M2076.79 1371.43 L2092.07 1371.43 L2092.07 1318.69 L2075.45 1322.03 L2075.45 1313.51 L2091.98 1310.18 L2101.33 1310.18 L2101.33 1371.43 L2116.61 1371.43 L2116.61 1379.3 L2076.79 1379.3 L2076.79 1371.43 Z" fill="#000000" fill-rule="nonzero" fill-opacity="1" /><path clip-path="url(#clip130)" d="M2135.5 1367.54 L2145.27 1367.54 L2145.27 1379.3 L2135.5 1379.3 L2135.5 1367.54 Z" fill="#000000" fill-rule="nonzero" fill-opacity="1" /><path clip-path="url(#clip130)" d="M2173.69 1371.43 L2206.33 1371.43 L2206.33 1379.3 L2162.44 1379.3 L2162.44 1371.43 Q2167.76 1365.92 2176.93 1356.66 Q2186.14 1347.35 2188.51 1344.67 Q2193 1339.62 2194.76 1336.15 Q2196.56 1332.63 2196.56 1329.25 Q2196.56 1323.74 2192.67 1320.27 Q2188.83 1316.8 2182.63 1316.8 Q2178.23 1316.8 2173.32 1318.32 Q2168.46 1319.85 2162.9 1322.95 L2162.9 1313.51 Q2168.55 1311.24 2173.46 1310.08 Q2178.37 1308.93 2182.44 1308.93 Q2193.18 1308.93 2199.57 1314.3 Q2205.96 1319.67 2205.96 1328.65 Q2205.96 1332.91 2204.34 1336.75 Q2202.76 1340.55 2198.55 1345.73 Q2197.39 1347.07 2191.19 1353.51 Q2184.99 1359.9 2173.69 1371.43 Z" fill="#000000" fill-rule="nonzero" fill-opacity="1" /><path clip-path="url(#clip130)" d="M1375.05 1484.39 L1375.05 1527.42 L1363.34 1527.42 L1363.34 1484.77 Q1363.34 1474.65 1359.39 1469.62 Q1355.45 1464.59 1347.55 1464.59 Q1338.07 1464.59 1332.59 1470.64 Q1327.12 1476.69 1327.12 1487.13 L1327.12 1527.42 L1315.34 1527.42 L1315.34 1428.37 L1327.12 1428.37 L1327.12 1467.2 Q1331.32 1460.77 1336.99 1457.59 Q1342.72 1454.41 1350.16 1454.41 Q1362.45 1454.41 1368.75 1462.05 Q1375.05 1469.62 1375.05 1484.39 Z" fill="#000000" fill-rule="nonzero" fill-opacity="1" /><path clip-path="url(#clip130)" d="M1426.04 1464.34 Q1416.62 1464.34 1411.15 1471.72 Q1405.67 1479.04 1405.67 1491.84 Q1405.67 1504.63 1411.08 1512.02 Q1416.56 1519.34 1426.04 1519.34 Q1435.4 1519.34 1440.87 1511.96 Q1446.35 1504.57 1446.35 1491.84 Q1446.35 1479.17 1440.87 1471.79 Q1435.4 1464.34 1426.04 1464.34 M1426.04 1454.41 Q1441.32 1454.41 1450.04 1464.34 Q1458.76 1474.27 1458.76 1491.84 Q1458.76 1509.35 1450.04 1519.34 Q1441.32 1529.27 1426.04 1529.27 Q1410.7 1529.27 1401.98 1519.34 Q1393.32 1509.35 1393.32 1491.84 Q1393.32 1474.27 1401.98 1464.34 Q1410.7 1454.41 1426.04 1454.41 Z" fill="#000000" fill-rule="nonzero" fill-opacity="1" /><path clip-path="url(#clip130)" d="M1476.97 1499.29 L1476.97 1456.13 L1488.68 1456.13 L1488.68 1498.84 Q1488.68 1508.96 1492.63 1514.06 Q1496.57 1519.08 1504.47 1519.08 Q1513.95 1519.08 1519.43 1513.04 Q1524.97 1506.99 1524.97 1496.55 L1524.97 1456.13 L1536.68 1456.13 L1536.68 1527.42 L1524.97 1527.42 L1524.97 1516.47 Q1520.7 1522.97 1515.04 1526.15 Q1509.43 1529.27 1501.99 1529.27 Q1489.7 1529.27 1483.33 1521.63 Q1476.97 1513.99 1476.97 1499.29 M1506.44 1454.41 L1506.44 1454.41 Z" fill="#000000" fill-rule="nonzero" fill-opacity="1" /><path clip-path="url(#clip130)" d="M1602.12 1467.08 Q1600.14 1465.93 1597.79 1465.42 Q1595.5 1464.85 1592.7 1464.85 Q1582.77 1464.85 1577.42 1471.34 Q1572.14 1477.77 1572.14 1489.87 L1572.14 1527.42 L1560.36 1527.42 L1560.36 1456.13 L1572.14 1456.13 L1572.14 1467.2 Q1575.83 1460.71 1581.75 1457.59 Q1587.67 1454.41 1596.13 1454.41 Q1597.34 1454.41 1598.81 1454.6 Q1600.27 1454.73 1602.05 1455.05 L1602.12 1467.08 Z" fill="#000000" fill-rule="nonzero" fill-opacity="1" /><path clip-path="url(#clip130)" d="M1659.86 1458.23 L1659.86 1469.3 Q1654.89 1466.76 1649.54 1465.49 Q1644.2 1464.21 1638.47 1464.21 Q1629.75 1464.21 1625.35 1466.89 Q1621.02 1469.56 1621.02 1474.91 Q1621.02 1478.98 1624.14 1481.34 Q1627.26 1483.63 1636.68 1485.73 L1640.69 1486.62 Q1653.17 1489.29 1658.39 1494.19 Q1663.67 1499.03 1663.67 1507.75 Q1663.67 1517.68 1655.78 1523.48 Q1647.95 1529.27 1634.2 1529.27 Q1628.47 1529.27 1622.23 1528.12 Q1616.06 1527.04 1609.18 1524.81 L1609.18 1512.72 Q1615.68 1516.09 1621.98 1517.81 Q1628.28 1519.47 1634.46 1519.47 Q1642.73 1519.47 1647.19 1516.67 Q1651.64 1513.8 1651.64 1508.64 Q1651.64 1503.87 1648.4 1501.32 Q1645.21 1498.78 1634.33 1496.42 L1630.25 1495.47 Q1619.37 1493.18 1614.53 1488.47 Q1609.69 1483.69 1609.69 1475.42 Q1609.69 1465.36 1616.82 1459.88 Q1623.95 1454.41 1637.07 1454.41 Q1643.56 1454.41 1649.29 1455.36 Q1655.02 1456.32 1659.86 1458.23 Z" fill="#000000" fill-rule="nonzero" fill-opacity="1" /><polyline clip-path="url(#clip132)" style="stroke:#000000; stroke-linecap:round; stroke-linejoin:round; stroke-width:4; stroke-opacity:0.1; fill:none" points="673.506,1076.1 2305.51,1076.1 "/>
<polyline clip-path="url(#clip132)" style="stroke:#000000; stroke-linecap:round; stroke-linejoin:round; stroke-width:4; stroke-opacity:0.1; fill:none" points="673.506,843.825 2305.51,843.825 "/>
<polyline clip-path="url(#clip132)" style="stroke:#000000; stroke-linecap:round; stroke-linejoin:round; stroke-width:4; stroke-opacity:0.1; fill:none" points="673.506,611.554 2305.51,611.554 "/>
<polyline clip-path="url(#clip132)" style="stroke:#000000; stroke-linecap:round; stroke-linejoin:round; stroke-width:4; stroke-opacity:0.1; fill:none" points="673.506,379.284 2305.51,379.284 "/>
<polyline clip-path="url(#clip132)" style="stroke:#000000; stroke-linecap:round; stroke-linejoin:round; stroke-width:4; stroke-opacity:0.1; fill:none" points="673.506,147.014 2305.51,147.014 "/>
<polyline clip-path="url(#clip130)" style="stroke:#000000; stroke-linecap:round; stroke-linejoin:round; stroke-width:8; stroke-opacity:1; fill:none" points="673.506,1273.7 673.506,94.4882 "/>
<polyline clip-path="url(#clip130)" style="stroke:#000000; stroke-linecap:round; stroke-linejoin:round; stroke-width:8; stroke-opacity:1; fill:none" points="673.506,1076.1 692.404,1076.1 "/>
<polyline clip-path="url(#clip130)" style="stroke:#000000; stroke-linecap:round; stroke-linejoin:round; stroke-width:8; stroke-opacity:1; fill:none" points="673.506,843.825 692.404,843.825 "/>
<polyline clip-path="url(#clip130)" style="stroke:#000000; stroke-linecap:round; stroke-linejoin:round; stroke-width:8; stroke-opacity:1; fill:none" points="673.506,611.554 692.404,611.554 "/>
<polyline clip-path="url(#clip130)" style="stroke:#000000; stroke-linecap:round; stroke-linejoin:round; stroke-width:8; stroke-opacity:1; fill:none" points="673.506,379.284 692.404,379.284 "/>
<polyline clip-path="url(#clip130)" style="stroke:#000000; stroke-linecap:round; stroke-linejoin:round; stroke-width:8; stroke-opacity:1; fill:none" points="673.506,147.014 692.404,147.014 "/>
<path clip-path="url(#clip130)" d="M384.128 1102.78 L399.405 1102.78 L399.405 1050.05 L382.785 1053.39 L382.785 1044.87 L399.313 1041.54 L408.665 1041.54 L408.665 1102.78 L423.942 1102.78 L423.942 1110.66 L384.128 1110.66 L384.128 1102.78 Z" fill="#000000" fill-rule="nonzero" fill-opacity="1" /><path clip-path="url(#clip130)" d="M471.164 1073.39 Q477.877 1074.82 481.627 1079.36 Q485.423 1083.9 485.423 1090.56 Q485.423 1100.79 478.386 1106.4 Q471.349 1112 458.387 1112 Q454.035 1112 449.405 1111.12 Q444.822 1110.28 439.914 1108.57 L439.914 1099.54 Q443.803 1101.81 448.433 1102.97 Q453.063 1104.13 458.109 1104.13 Q466.905 1104.13 471.488 1100.66 Q476.118 1097.18 476.118 1090.56 Q476.118 1084.45 471.812 1081.03 Q467.553 1077.55 459.914 1077.55 L451.859 1077.55 L451.859 1069.87 L460.285 1069.87 Q467.183 1069.87 470.84 1067.14 Q474.498 1064.36 474.498 1059.17 Q474.498 1053.85 470.701 1051.03 Q466.951 1048.16 459.914 1048.16 Q456.072 1048.16 451.674 1048.99 Q447.276 1049.82 441.998 1051.58 L441.998 1043.25 Q447.322 1041.77 451.951 1041.03 Q456.627 1040.29 460.748 1040.29 Q471.396 1040.29 477.599 1045.15 Q483.803 1049.96 483.803 1058.2 Q483.803 1063.94 480.516 1067.92 Q477.229 1071.86 471.164 1073.39 Z" fill="#000000" fill-rule="nonzero" fill-opacity="1" /><path clip-path="url(#clip130)" d="M523.155 1047.69 Q515.933 1047.69 512.275 1054.82 Q508.664 1061.91 508.664 1076.16 Q508.664 1090.38 512.275 1097.51 Q515.933 1104.59 523.155 1104.59 Q530.423 1104.59 534.034 1097.51 Q537.692 1090.38 537.692 1076.16 Q537.692 1061.91 534.034 1054.82 Q530.423 1047.69 523.155 1047.69 M523.155 1040.29 Q534.775 1040.29 540.886 1049.5 Q547.043 1058.66 547.043 1076.16 Q547.043 1093.62 540.886 1102.83 Q534.775 1112 523.155 1112 Q511.534 1112 505.377 1102.83 Q499.266 1093.62 499.266 1076.16 Q499.266 1058.66 505.377 1049.5 Q511.534 1040.29 523.155 1040.29 Z" fill="#000000" fill-rule="nonzero" fill-opacity="1" /><path clip-path="url(#clip130)" d="M563.479 1098.9 L573.247 1098.9 L573.247 1110.66 L563.479 1110.66 L563.479 1098.9 Z" fill="#000000" fill-rule="nonzero" fill-opacity="1" /><path clip-path="url(#clip130)" d="M613.617 1047.69 Q606.395 1047.69 602.738 1054.82 Q599.127 1061.91 599.127 1076.16 Q599.127 1090.38 602.738 1097.51 Q606.395 1104.59 613.617 1104.59 Q620.886 1104.59 624.497 1097.51 Q628.154 1090.38 628.154 1076.16 Q628.154 1061.91 624.497 1054.82 Q620.886 1047.69 613.617 1047.69 M613.617 1040.29 Q625.238 1040.29 631.349 1049.5 Q637.506 1058.66 637.506 1076.16 Q637.506 1093.62 631.349 1102.83 Q625.238 1112 613.617 1112 Q601.997 1112 595.84 1102.83 Q589.728 1093.62 589.728 1076.16 Q589.728 1058.66 595.84 1049.5 Q601.997 1040.29 613.617 1040.29 Z" fill="#000000" fill-rule="nonzero" fill-opacity="1" /><path clip-path="url(#clip130)" d="M384.128 870.514 L399.405 870.514 L399.405 817.783 L382.785 821.116 L382.785 812.598 L399.313 809.265 L408.665 809.265 L408.665 870.514 L423.942 870.514 L423.942 878.385 L384.128 878.385 L384.128 870.514 Z" fill="#000000" fill-rule="nonzero" fill-opacity="1" /><path clip-path="url(#clip130)" d="M468.525 817.413 L444.914 854.311 L468.525 854.311 L468.525 817.413 M466.072 809.265 L477.831 809.265 L477.831 854.311 L487.692 854.311 L487.692 862.088 L477.831 862.088 L477.831 878.385 L468.525 878.385 L468.525 862.088 L437.322 862.088 L437.322 853.061 L466.072 809.265 Z" fill="#000000" fill-rule="nonzero" fill-opacity="1" /><path clip-path="url(#clip130)" d="M523.155 815.422 Q515.933 815.422 512.275 822.552 Q508.664 829.635 508.664 843.894 Q508.664 858.107 512.275 865.237 Q515.933 872.32 523.155 872.32 Q530.423 872.32 534.034 865.237 Q537.692 858.107 537.692 843.894 Q537.692 829.635 534.034 822.552 Q530.423 815.422 523.155 815.422 M523.155 808.015 Q534.775 808.015 540.886 817.228 Q547.043 826.394 547.043 843.894 Q547.043 861.348 540.886 870.561 Q534.775 879.727 523.155 879.727 Q511.534 879.727 505.377 870.561 Q499.266 861.348 499.266 843.894 Q499.266 826.394 505.377 817.228 Q511.534 808.015 523.155 808.015 Z" fill="#000000" fill-rule="nonzero" fill-opacity="1" /><path clip-path="url(#clip130)" d="M563.479 866.625 L573.247 866.625 L573.247 878.385 L563.479 878.385 L563.479 866.625 Z" fill="#000000" fill-rule="nonzero" fill-opacity="1" /><path clip-path="url(#clip130)" d="M613.617 815.422 Q606.395 815.422 602.738 822.552 Q599.127 829.635 599.127 843.894 Q599.127 858.107 602.738 865.237 Q606.395 872.32 613.617 872.32 Q620.886 872.32 624.497 865.237 Q628.154 858.107 628.154 843.894 Q628.154 829.635 624.497 822.552 Q620.886 815.422 613.617 815.422 M613.617 808.015 Q625.238 808.015 631.349 817.228 Q637.506 826.394 637.506 843.894 Q637.506 861.348 631.349 870.561 Q625.238 879.727 613.617 879.727 Q601.997 879.727 595.84 870.561 Q589.728 861.348 589.728 843.894 Q589.728 826.394 595.84 817.228 Q601.997 808.015 613.617 808.015 Z" fill="#000000" fill-rule="nonzero" fill-opacity="1" /><path clip-path="url(#clip130)" d="M384.128 638.244 L399.405 638.244 L399.405 585.513 L382.785 588.846 L382.785 580.328 L399.313 576.994 L408.665 576.994 L408.665 638.244 L423.942 638.244 L423.942 646.114 L384.128 646.114 L384.128 638.244 Z" fill="#000000" fill-rule="nonzero" fill-opacity="1" /><path clip-path="url(#clip130)" d="M442.924 576.994 L479.636 576.994 L479.636 584.865 L451.488 584.865 L451.488 601.809 Q453.525 601.115 455.562 600.79 Q457.6 600.42 459.637 600.42 Q471.211 600.42 477.97 606.763 Q484.729 613.105 484.729 623.938 Q484.729 635.096 477.785 641.3 Q470.84 647.457 458.201 647.457 Q453.85 647.457 449.313 646.716 Q444.822 645.975 440.007 644.494 L440.007 635.096 Q444.174 637.364 448.618 638.475 Q453.063 639.587 458.016 639.587 Q466.025 639.587 470.701 635.374 Q475.377 631.161 475.377 623.938 Q475.377 616.716 470.701 612.503 Q466.025 608.29 458.016 608.29 Q454.266 608.29 450.516 609.124 Q446.813 609.957 442.924 611.716 L442.924 576.994 Z" fill="#000000" fill-rule="nonzero" fill-opacity="1" /><path clip-path="url(#clip130)" d="M523.155 583.152 Q515.933 583.152 512.275 590.281 Q508.664 597.365 508.664 611.624 Q508.664 625.837 512.275 632.966 Q515.933 640.05 523.155 640.05 Q530.423 640.05 534.034 632.966 Q537.692 625.837 537.692 611.624 Q537.692 597.365 534.034 590.281 Q530.423 583.152 523.155 583.152 M523.155 575.744 Q534.775 575.744 540.886 584.957 Q547.043 594.124 547.043 611.624 Q547.043 629.077 540.886 638.29 Q534.775 647.457 523.155 647.457 Q511.534 647.457 505.377 638.29 Q499.266 629.077 499.266 611.624 Q499.266 594.124 505.377 584.957 Q511.534 575.744 523.155 575.744 Z" fill="#000000" fill-rule="nonzero" fill-opacity="1" /><path clip-path="url(#clip130)" d="M563.479 634.355 L573.247 634.355 L573.247 646.114 L563.479 646.114 L563.479 634.355 Z" fill="#000000" fill-rule="nonzero" fill-opacity="1" /><path clip-path="url(#clip130)" d="M613.617 583.152 Q606.395 583.152 602.738 590.281 Q599.127 597.365 599.127 611.624 Q599.127 625.837 602.738 632.966 Q606.395 640.05 613.617 640.05 Q620.886 640.05 624.497 632.966 Q628.154 625.837 628.154 611.624 Q628.154 597.365 624.497 590.281 Q620.886 583.152 613.617 583.152 M613.617 575.744 Q625.238 575.744 631.349 584.957 Q637.506 594.124 637.506 611.624 Q637.506 629.077 631.349 638.29 Q625.238 647.457 613.617 647.457 Q601.997 647.457 595.84 638.29 Q589.728 629.077 589.728 611.624 Q589.728 594.124 595.84 584.957 Q601.997 575.744 613.617 575.744 Z" fill="#000000" fill-rule="nonzero" fill-opacity="1" /><path clip-path="url(#clip130)" d="M384.128 405.974 L399.405 405.974 L399.405 353.242 L382.785 356.576 L382.785 348.057 L399.313 344.724 L408.665 344.724 L408.665 405.974 L423.942 405.974 L423.942 413.844 L384.128 413.844 L384.128 405.974 Z" fill="#000000" fill-rule="nonzero" fill-opacity="1" /><path clip-path="url(#clip130)" d="M463.988 375.557 Q457.692 375.557 453.988 379.863 Q450.331 384.168 450.331 391.668 Q450.331 399.122 453.988 403.474 Q457.692 407.779 463.988 407.779 Q470.285 407.779 473.942 403.474 Q477.646 399.122 477.646 391.668 Q477.646 384.168 473.942 379.863 Q470.285 375.557 463.988 375.557 M482.553 346.252 L482.553 354.77 Q479.035 353.104 475.424 352.224 Q471.859 351.344 468.34 351.344 Q459.081 351.344 454.174 357.594 Q449.313 363.844 448.618 376.483 Q451.35 372.455 455.47 370.326 Q459.59 368.15 464.544 368.15 Q474.961 368.15 480.979 374.492 Q487.044 380.789 487.044 391.668 Q487.044 402.316 480.748 408.751 Q474.451 415.187 463.988 415.187 Q451.998 415.187 445.655 406.02 Q439.313 396.807 439.313 379.353 Q439.313 362.965 447.09 353.242 Q454.868 343.474 467.97 343.474 Q471.488 343.474 475.053 344.168 Q478.664 344.863 482.553 346.252 Z" fill="#000000" fill-rule="nonzero" fill-opacity="1" /><path clip-path="url(#clip130)" d="M523.155 350.881 Q515.933 350.881 512.275 358.011 Q508.664 365.094 508.664 379.353 Q508.664 393.566 512.275 400.696 Q515.933 407.779 523.155 407.779 Q530.423 407.779 534.034 400.696 Q537.692 393.566 537.692 379.353 Q537.692 365.094 534.034 358.011 Q530.423 350.881 523.155 350.881 M523.155 343.474 Q534.775 343.474 540.886 352.687 Q547.043 361.853 547.043 379.353 Q547.043 396.807 540.886 406.02 Q534.775 415.187 523.155 415.187 Q511.534 415.187 505.377 406.02 Q499.266 396.807 499.266 379.353 Q499.266 361.853 505.377 352.687 Q511.534 343.474 523.155 343.474 Z" fill="#000000" fill-rule="nonzero" fill-opacity="1" /><path clip-path="url(#clip130)" d="M563.479 402.085 L573.247 402.085 L573.247 413.844 L563.479 413.844 L563.479 402.085 Z" fill="#000000" fill-rule="nonzero" fill-opacity="1" /><path clip-path="url(#clip130)" d="M613.617 350.881 Q606.395 350.881 602.738 358.011 Q599.127 365.094 599.127 379.353 Q599.127 393.566 602.738 400.696 Q606.395 407.779 613.617 407.779 Q620.886 407.779 624.497 400.696 Q628.154 393.566 628.154 379.353 Q628.154 365.094 624.497 358.011 Q620.886 350.881 613.617 350.881 M613.617 343.474 Q625.238 343.474 631.349 352.687 Q637.506 361.853 637.506 379.353 Q637.506 396.807 631.349 406.02 Q625.238 415.187 613.617 415.187 Q601.997 415.187 595.84 406.02 Q589.728 396.807 589.728 379.353 Q589.728 361.853 595.84 352.687 Q601.997 343.474 613.617 343.474 Z" fill="#000000" fill-rule="nonzero" fill-opacity="1" /><path clip-path="url(#clip130)" d="M384.128 173.703 L399.405 173.703 L399.405 120.972 L382.785 124.305 L382.785 115.787 L399.313 112.454 L408.665 112.454 L408.665 173.703 L423.942 173.703 L423.942 181.574 L384.128 181.574 L384.128 173.703 Z" fill="#000000" fill-rule="nonzero" fill-opacity="1" /><path clip-path="url(#clip130)" d="M440.47 112.454 L484.914 112.454 L484.914 116.435 L459.822 181.574 L450.053 181.574 L473.664 120.324 L440.47 120.324 L440.47 112.454 Z" fill="#000000" fill-rule="nonzero" fill-opacity="1" /><path clip-path="url(#clip130)" d="M523.155 118.611 Q515.933 118.611 512.275 125.741 Q508.664 132.824 508.664 147.083 Q508.664 161.296 512.275 168.426 Q515.933 175.509 523.155 175.509 Q530.423 175.509 534.034 168.426 Q537.692 161.296 537.692 147.083 Q537.692 132.824 534.034 125.741 Q530.423 118.611 523.155 118.611 M523.155 111.204 Q534.775 111.204 540.886 120.417 Q547.043 129.583 547.043 147.083 Q547.043 164.537 540.886 173.75 Q534.775 182.916 523.155 182.916 Q511.534 182.916 505.377 173.75 Q499.266 164.537 499.266 147.083 Q499.266 129.583 505.377 120.417 Q511.534 111.204 523.155 111.204 Z" fill="#000000" fill-rule="nonzero" fill-opacity="1" /><path clip-path="url(#clip130)" d="M563.479 169.814 L573.247 169.814 L573.247 181.574 L563.479 181.574 L563.479 169.814 Z" fill="#000000" fill-rule="nonzero" fill-opacity="1" /><path clip-path="url(#clip130)" d="M613.617 118.611 Q606.395 118.611 602.738 125.741 Q599.127 132.824 599.127 147.083 Q599.127 161.296 602.738 168.426 Q606.395 175.509 613.617 175.509 Q620.886 175.509 624.497 168.426 Q628.154 161.296 628.154 147.083 Q628.154 132.824 624.497 125.741 Q620.886 118.611 613.617 118.611 M613.617 111.204 Q625.238 111.204 631.349 120.417 Q637.506 129.583 637.506 147.083 Q637.506 164.537 631.349 173.75 Q625.238 182.916 613.617 182.916 Q601.997 182.916 595.84 173.75 Q589.728 164.537 589.728 147.083 Q589.728 129.583 595.84 120.417 Q601.997 111.204 613.617 111.204 Z" fill="#000000" fill-rule="nonzero" fill-opacity="1" /><path clip-path="url(#clip130)" d="M307.579 931.718 L345.391 931.718 L345.391 943.495 L246.977 943.495 L246.977 931.718 L257.799 931.718 Q251.433 928.026 248.378 922.424 Q245.258 916.759 245.258 908.929 Q245.258 895.943 255.571 887.858 Q265.883 879.71 282.689 879.71 Q299.494 879.71 309.807 887.858 Q320.119 895.943 320.119 908.929 Q320.119 916.759 317.064 922.424 Q313.944 928.026 307.579 931.718 M282.689 891.869 Q269.766 891.869 262.446 897.216 Q255.062 902.499 255.062 911.793 Q255.062 921.087 262.446 926.434 Q269.766 931.718 282.689 931.718 Q295.611 931.718 302.995 926.434 Q310.316 921.087 310.316 911.793 Q310.316 902.499 302.995 897.216 Q295.611 891.869 282.689 891.869 Z" fill="#000000" fill-rule="nonzero" fill-opacity="1" /><path clip-path="url(#clip130)" d="M282.434 827.893 Q282.434 842.089 285.681 847.563 Q288.927 853.038 296.757 853.038 Q302.995 853.038 306.688 848.964 Q310.316 844.826 310.316 837.76 Q310.316 828.021 303.441 822.164 Q296.502 816.244 285.044 816.244 L282.434 816.244 L282.434 827.893 M277.596 804.531 L318.273 804.531 L318.273 816.244 L307.451 816.244 Q313.944 820.254 317.064 826.238 Q320.119 832.222 320.119 840.879 Q320.119 851.828 314.008 858.321 Q307.833 864.751 297.521 864.751 Q285.49 864.751 279.379 856.73 Q273.268 848.645 273.268 832.668 L273.268 816.244 L272.122 816.244 Q264.037 816.244 259.645 821.591 Q255.189 826.875 255.189 836.487 Q255.189 842.598 256.653 848.391 Q258.117 854.184 261.045 859.531 L250.224 859.531 Q247.741 853.101 246.532 847.054 Q245.258 841.007 245.258 835.278 Q245.258 819.809 253.279 812.17 Q261.3 804.531 277.596 804.531 Z" fill="#000000" fill-rule="nonzero" fill-opacity="1" /><path clip-path="url(#clip130)" d="M257.926 739.092 Q256.78 741.065 256.271 743.42 Q255.698 745.712 255.698 748.513 Q255.698 758.443 262.191 763.791 Q268.621 769.074 280.715 769.074 L318.273 769.074 L318.273 780.851 L246.977 780.851 L246.977 769.074 L258.054 769.074 Q251.561 765.382 248.441 759.462 Q245.258 753.542 245.258 745.075 Q245.258 743.866 245.449 742.402 Q245.577 740.938 245.895 739.155 L257.926 739.092 Z" fill="#000000" fill-rule="nonzero" fill-opacity="1" /><path clip-path="url(#clip130)" d="M279.697 668.687 L285.426 668.687 L285.426 722.541 Q297.521 721.777 303.887 715.284 Q310.189 708.727 310.189 697.078 Q310.189 690.33 308.534 684.028 Q306.878 677.663 303.568 671.424 L314.645 671.424 Q317.318 677.726 318.719 684.347 Q320.119 690.967 320.119 697.778 Q320.119 714.838 310.189 724.832 Q300.258 734.763 283.325 734.763 Q265.82 734.763 255.571 725.342 Q245.258 715.857 245.258 699.815 Q245.258 685.429 254.552 677.09 Q263.783 668.687 279.697 668.687 M276.259 680.4 Q266.647 680.527 260.918 685.811 Q255.189 691.031 255.189 699.688 Q255.189 709.491 260.727 715.411 Q266.265 721.268 276.323 722.159 L276.259 680.4 Z" fill="#000000" fill-rule="nonzero" fill-opacity="1" /><path clip-path="url(#clip130)" d="M275.241 590.198 L318.273 590.198 L318.273 601.911 L275.623 601.911 Q265.501 601.911 260.472 605.857 Q255.444 609.804 255.444 617.698 Q255.444 627.183 261.491 632.657 Q267.538 638.132 277.978 638.132 L318.273 638.132 L318.273 649.908 L246.977 649.908 L246.977 638.132 L258.054 638.132 Q251.624 633.93 248.441 628.265 Q245.258 622.536 245.258 615.088 Q245.258 602.802 252.897 596.5 Q260.472 590.198 275.241 590.198 Z" fill="#000000" fill-rule="nonzero" fill-opacity="1" /><path clip-path="url(#clip130)" d="M302.104 565.181 L302.104 551.749 L318.273 551.749 L318.273 565.181 L302.104 565.181 Z" fill="#000000" fill-rule="nonzero" fill-opacity="1" /><path clip-path="url(#clip130)" d="M223.233 482.172 L223.233 431.692 L234.055 431.692 L234.055 470.395 L257.353 470.395 Q256.398 467.594 255.953 464.793 Q255.444 461.992 255.444 459.192 Q255.444 443.277 264.165 433.983 Q272.886 424.689 287.781 424.689 Q303.123 424.689 311.653 434.238 Q320.119 443.787 320.119 461.165 Q320.119 467.149 319.101 473.387 Q318.082 479.562 316.045 486.182 L303.123 486.182 Q306.242 480.453 307.77 474.342 Q309.297 468.231 309.297 461.42 Q309.297 450.407 303.505 443.978 Q297.712 437.548 287.781 437.548 Q277.851 437.548 272.058 443.978 Q266.265 450.407 266.265 461.42 Q266.265 466.576 267.411 471.732 Q268.557 476.825 270.976 482.172 L223.233 482.172 Z" fill="#000000" fill-rule="nonzero" fill-opacity="1" /><polyline clip-path="url(#clip132)" style="stroke:#008000; stroke-linecap:round; stroke-linejoin:round; stroke-width:8; stroke-opacity:1; fill:none" points="719.695,127.862 838.128,375.537 956.561,549.813 1074.99,627.05 1193.43,506.766 1311.86,521.894 1430.29,686.38 1548.73,789.592 1667.16,626.509 1785.59,990.187 1904.02,1056.8 2022.46,993.532 2140.89,1087.35 2259.32,1240.32 "/>
<circle clip-path="url(#clip132)" cx="719.695" cy="127.862" r="14.4" fill="#008000" fill-rule="evenodd" fill-opacity="1" stroke="#000000" stroke-opacity="1" stroke-width="6.4"/>
<circle clip-path="url(#clip132)" cx="838.128" cy="375.537" r="14.4" fill="#008000" fill-rule="evenodd" fill-opacity="1" stroke="#000000" stroke-opacity="1" stroke-width="6.4"/>
<circle clip-path="url(#clip132)" cx="956.561" cy="549.813" r="14.4" fill="#008000" fill-rule="evenodd" fill-opacity="1" stroke="#000000" stroke-opacity="1" stroke-width="6.4"/>
<circle clip-path="url(#clip132)" cx="1074.99" cy="627.05" r="14.4" fill="#008000" fill-rule="evenodd" fill-opacity="1" stroke="#000000" stroke-opacity="1" stroke-width="6.4"/>
<circle clip-path="url(#clip132)" cx="1193.43" cy="506.766" r="14.4" fill="#008000" fill-rule="evenodd" fill-opacity="1" stroke="#000000" stroke-opacity="1" stroke-width="6.4"/>
<circle clip-path="url(#clip132)" cx="1311.86" cy="521.894" r="14.4" fill="#008000" fill-rule="evenodd" fill-opacity="1" stroke="#000000" stroke-opacity="1" stroke-width="6.4"/>
<circle clip-path="url(#clip132)" cx="1430.29" cy="686.38" r="14.4" fill="#008000" fill-rule="evenodd" fill-opacity="1" stroke="#000000" stroke-opacity="1" stroke-width="6.4"/>
<circle clip-path="url(#clip132)" cx="1548.73" cy="789.592" r="14.4" fill="#008000" fill-rule="evenodd" fill-opacity="1" stroke="#000000" stroke-opacity="1" stroke-width="6.4"/>
<circle clip-path="url(#clip132)" cx="1667.16" cy="626.509" r="14.4" fill="#008000" fill-rule="evenodd" fill-opacity="1" stroke="#000000" stroke-opacity="1" stroke-width="6.4"/>
<circle clip-path="url(#clip132)" cx="1785.59" cy="990.187" r="14.4" fill="#008000" fill-rule="evenodd" fill-opacity="1" stroke="#000000" stroke-opacity="1" stroke-width="6.4"/>
<circle clip-path="url(#clip132)" cx="1904.02" cy="1056.8" r="14.4" fill="#008000" fill-rule="evenodd" fill-opacity="1" stroke="#000000" stroke-opacity="1" stroke-width="6.4"/>
<circle clip-path="url(#clip132)" cx="2022.46" cy="993.532" r="14.4" fill="#008000" fill-rule="evenodd" fill-opacity="1" stroke="#000000" stroke-opacity="1" stroke-width="6.4"/>
<circle clip-path="url(#clip132)" cx="2140.89" cy="1087.35" r="14.4" fill="#008000" fill-rule="evenodd" fill-opacity="1" stroke="#000000" stroke-opacity="1" stroke-width="6.4"/>
<circle clip-path="url(#clip132)" cx="2259.32" cy="1240.32" r="14.4" fill="#008000" fill-rule="evenodd" fill-opacity="1" stroke="#000000" stroke-opacity="1" stroke-width="6.4"/>
<polyline clip-path="url(#clip132)" style="stroke:#00008b; stroke-linecap:round; stroke-linejoin:round; stroke-width:8; stroke-opacity:1; fill:none" points="719.695,338.096 838.128,375.772 956.561,403.032 1074.99,441.555 1193.43,495.234 1311.86,556.105 1430.29,622.557 1548.73,690.2 1667.16,759.22 1785.59,826.364 1904.02,893.21 2022.46,965.282 2140.89,1025.28 2259.32,1092.34 "/>
<path clip-path="url(#clip132)" d="M719.695 415.408 L838.128 454.194 L956.561 484.951 L1074.99 523.477 L1193.43 576.38 L1311.86 640.119 L1430.29 701.077 L1548.73 770.418 L1667.16 841.615 L1785.59 905.843 L1904.02 974.403 L2022.46 1052.15 L2140.89 1105.54 L2259.32 1171.81 L2259.32 1018.15 L2140.89 944.989 L2022.46 883.538 L1904.02 813.784 L1785.59 741.298 L1667.16 679.566 L1548.73 608.902 L1430.29 542.994 L1311.86 473.745 L1193.43 416.138 L1074.99 361.454 L956.561 327.001 L838.128 294.263 L719.695 261.758  Z" fill="#0000ff" fill-rule="evenodd" fill-opacity="0.1"/>
<polyline clip-path="url(#clip132)" style="stroke:#0000ff; stroke-linecap:round; stroke-linejoin:round; stroke-width:0; stroke-opacity:0.1; fill:none" points="719.695,415.408 838.128,454.194 956.561,484.951 1074.99,523.477 1193.43,576.38 1311.86,640.119 1430.29,701.077 1548.73,770.418 1667.16,841.615 1785.59,905.843 1904.02,974.403 2022.46,1052.15 2140.89,1105.54 2259.32,1171.81 "/>
</svg>
