<?xml version="1.0" encoding="utf-8"?>
<svg xmlns="http://www.w3.org/2000/svg" xmlns:xlink="http://www.w3.org/1999/xlink" width="600" height="400" viewBox="0 0 2400 1600">
<defs>
  <clipPath id="clip760">
    <rect x="0" y="0" width="2400" height="1600"/>
  </clipPath>
</defs>
<path clip-path="url(#clip760)" d="M0 1600 L2400 1600 L2400 0 L0 0  Z" fill="#ffffff" fill-rule="evenodd" fill-opacity="1"/>
<defs>
  <clipPath id="clip761">
    <rect x="480" y="0" width="1681" height="1600"/>
  </clipPath>
</defs>
<path clip-path="url(#clip760)" d="M673.506 1273.7 L2305.51 1273.7 L2305.51 94.4882 L673.506 94.4882  Z" fill="#ffffff" fill-rule="evenodd" fill-opacity="1"/>
<defs>
  <clipPath id="clip762">
    <rect x="673" y="94" width="1633" height="1180"/>
  </clipPath>
</defs>
<polyline clip-path="url(#clip762)" style="stroke:#000000; stroke-linecap:round; stroke-linejoin:round; stroke-width:4; stroke-opacity:0.1; fill:none" points="719.695,1273.7 719.695,94.4882 "/>
<polyline clip-path="url(#clip762)" style="stroke:#000000; stroke-linecap:round; stroke-linejoin:round; stroke-width:4; stroke-opacity:0.1; fill:none" points="956.561,1273.7 956.561,94.4882 "/>
<polyline clip-path="url(#clip762)" style="stroke:#000000; stroke-linecap:round; stroke-linejoin:round; stroke-width:4; stroke-opacity:0.1; fill:none" points="1193.43,1273.7 1193.43,94.4882 "/>
<polyline clip-path="url(#clip762)" style="stroke:#000000; stroke-linecap:round; stroke-linejoin:round; stroke-width:4; stroke-opacity:0.1; fill:none" points="1430.29,1273.7 1430.29,94.4882 "/>
<polyline clip-path="url(#clip762)" style="stroke:#000000; stroke-linecap:round; stroke-linejoin:round; stroke-width:4; stroke-opacity:0.1; fill:none" points="1667.16,1273.7 1667.16,94.4882 "/>
<polyline clip-path="url(#clip762)" style="stroke:#000000; stroke-linecap:round; stroke-linejoin:round; stroke-width:4; stroke-opacity:0.1; fill:none" points="1904.02,1273.7 1904.02,94.4882 "/>
<polyline clip-path="url(#clip762)" style="stroke:#000000; stroke-linecap:round; stroke-linejoin:round; stroke-width:4; stroke-opacity:0.1; fill:none" points="2140.89,1273.7 2140.89,94.4882 "/>
<polyline clip-path="url(#clip760)" style="stroke:#000000; stroke-linecap:round; stroke-linejoin:round; stroke-width:8; stroke-opacity:1; fill:none" points="673.506,1273.7 2305.51,1273.7 "/>
<polyline clip-path="url(#clip760)" style="stroke:#000000; stroke-linecap:round; stroke-linejoin:round; stroke-width:8; stroke-opacity:1; fill:none" points="719.695,1273.7 719.695,1254.8 "/>
<polyline clip-path="url(#clip760)" style="stroke:#000000; stroke-linecap:round; stroke-linejoin:round; stroke-width:8; stroke-opacity:1; fill:none" points="956.561,1273.7 956.561,1254.8 "/>
<polyline clip-path="url(#clip760)" style="stroke:#000000; stroke-linecap:round; stroke-linejoin:round; stroke-width:8; stroke-opacity:1; fill:none" points="1193.43,1273.7 1193.43,1254.8 "/>
<polyline clip-path="url(#clip760)" style="stroke:#000000; stroke-linecap:round; stroke-linejoin:round; stroke-width:8; stroke-opacity:1; fill:none" points="1430.29,1273.7 1430.29,1254.8 "/>
<polyline clip-path="url(#clip760)" style="stroke:#000000; stroke-linecap:round; stroke-linejoin:round; stroke-width:8; stroke-opacity:1; fill:none" points="1667.16,1273.7 1667.16,1254.8 "/>
<polyline clip-path="url(#clip760)" style="stroke:#000000; stroke-linecap:round; stroke-linejoin:round; stroke-width:8; stroke-opacity:1; fill:none" points="1904.02,1273.7 1904.02,1254.8 "/>
<polyline clip-path="url(#clip760)" style="stroke:#000000; stroke-linecap:round; stroke-linejoin:round; stroke-width:8; stroke-opacity:1; fill:none" points="2140.89,1273.7 2140.89,1254.8 "/>
<path clip-path="url(#clip760)" d="M674.464 1316.33 Q667.241 1316.33 663.584 1323.46 Q659.973 1330.55 659.973 1344.81 Q659.973 1359.02 663.584 1366.15 Q667.241 1373.23 674.464 1373.23 Q681.732 1373.23 685.343 1366.15 Q689.001 1359.02 689.001 1344.81 Q689.001 1330.55 685.343 1323.46 Q681.732 1316.33 674.464 1316.33 M674.464 1308.93 Q686.084 1308.93 692.195 1318.14 Q698.352 1327.31 698.352 1344.81 Q698.352 1362.26 692.195 1371.47 Q686.084 1380.64 674.464 1380.64 Q662.843 1380.64 656.686 1371.47 Q650.575 1362.26 650.575 1344.81 Q650.575 1327.31 656.686 1318.14 Q662.843 1308.93 674.464 1308.93 Z" fill="#000000" fill-rule="nonzero" fill-opacity="1" /><path clip-path="url(#clip760)" d="M714.787 1367.54 L724.556 1367.54 L724.556 1379.3 L714.787 1379.3 L714.787 1367.54 Z" fill="#000000" fill-rule="nonzero" fill-opacity="1" /><path clip-path="url(#clip760)" d="M764.926 1316.33 Q757.704 1316.33 754.046 1323.46 Q750.435 1330.55 750.435 1344.81 Q750.435 1359.02 754.046 1366.15 Q757.704 1373.23 764.926 1373.23 Q772.195 1373.23 775.806 1366.15 Q779.463 1359.02 779.463 1344.81 Q779.463 1330.55 775.806 1323.46 Q772.195 1316.33 764.926 1316.33 M764.926 1308.93 Q776.546 1308.93 782.657 1318.14 Q788.815 1327.31 788.815 1344.81 Q788.815 1362.26 782.657 1371.47 Q776.546 1380.64 764.926 1380.64 Q753.306 1380.64 747.148 1371.47 Q741.037 1362.26 741.037 1344.81 Q741.037 1327.31 747.148 1318.14 Q753.306 1308.93 764.926 1308.93 Z" fill="#000000" fill-rule="nonzero" fill-opacity="1" /><path clip-path="url(#clip760)" d="M912.927 1316.33 Q905.704 1316.33 902.047 1323.46 Q898.436 1330.55 898.436 1344.81 Q898.436 1359.02 902.047 1366.15 Q905.704 1373.23 912.927 1373.23 Q920.195 1373.23 923.806 1366.15 Q927.464 1359.02 927.464 1344.81 Q927.464 1330.55 923.806 1323.46 Q920.195 1316.33 912.927 1316.33 M912.927 1308.93 Q924.547 1308.93 930.658 1318.14 Q936.815 1327.31 936.815 1344.81 Q936.815 1362.26 930.658 1371.47 Q924.547 1380.64 912.927 1380.64 Q901.306 1380.64 895.149 1371.47 Q889.038 1362.26 889.038 1344.81 Q889.038 1327.31 895.149 1318.14 Q901.306 1308.93 912.927 1308.93 Z" fill="#000000" fill-rule="nonzero" fill-opacity="1" /><path clip-path="url(#clip760)" d="M953.251 1367.54 L963.019 1367.54 L963.019 1379.3 L953.251 1379.3 L953.251 1367.54 Z" fill="#000000" fill-rule="nonzero" fill-opacity="1" /><path clip-path="url(#clip760)" d="M991.445 1371.43 L1024.08 1371.43 L1024.08 1379.3 L980.195 1379.3 L980.195 1371.43 Q985.519 1365.92 994.685 1356.66 Q1003.9 1347.35 1006.26 1344.67 Q1010.75 1339.62 1012.51 1336.15 Q1014.32 1332.63 1014.32 1329.25 Q1014.32 1323.74 1010.43 1320.27 Q1006.58 1316.8 1000.38 1316.8 Q995.982 1316.8 991.074 1318.32 Q986.213 1319.85 980.658 1322.95 L980.658 1313.51 Q986.306 1311.24 991.213 1310.08 Q996.121 1308.93 1000.19 1308.93 Q1010.94 1308.93 1017.32 1314.3 Q1023.71 1319.67 1023.71 1328.65 Q1023.71 1332.91 1022.09 1336.75 Q1020.52 1340.55 1016.31 1345.73 Q1015.15 1347.07 1008.94 1353.51 Q1002.74 1359.9 991.445 1371.43 Z" fill="#000000" fill-rule="nonzero" fill-opacity="1" /><path clip-path="url(#clip760)" d="M1147.71 1316.33 Q1140.49 1316.33 1136.83 1323.46 Q1133.22 1330.55 1133.22 1344.81 Q1133.22 1359.02 1136.83 1366.15 Q1140.49 1373.23 1147.71 1373.23 Q1154.98 1373.23 1158.59 1366.15 Q1162.25 1359.02 1162.25 1344.81 Q1162.25 1330.55 1158.59 1323.46 Q1154.98 1316.33 1147.71 1316.33 M1147.71 1308.93 Q1159.33 1308.93 1165.44 1318.14 Q1171.6 1327.31 1171.6 1344.81 Q1171.6 1362.26 1165.44 1371.47 Q1159.33 1380.64 1147.71 1380.64 Q1136.09 1380.64 1129.93 1371.47 Q1123.82 1362.26 1123.82 1344.81 Q1123.82 1327.31 1129.93 1318.14 Q1136.09 1308.93 1147.71 1308.93 Z" fill="#000000" fill-rule="nonzero" fill-opacity="1" /><path clip-path="url(#clip760)" d="M1188.03 1367.54 L1197.8 1367.54 L1197.8 1379.3 L1188.03 1379.3 L1188.03 1367.54 Z" fill="#000000" fill-rule="nonzero" fill-opacity="1" /><path clip-path="url(#clip760)" d="M1243.87 1318.32 L1220.26 1355.22 L1243.87 1355.22 L1243.87 1318.32 M1241.41 1310.18 L1253.17 1310.18 L1253.17 1355.22 L1263.03 1355.22 L1263.03 1363 L1253.17 1363 L1253.17 1379.3 L1243.87 1379.3 L1243.87 1363 L1212.66 1363 L1212.66 1353.97 L1241.41 1310.18 Z" fill="#000000" fill-rule="nonzero" fill-opacity="1" /><path clip-path="url(#clip760)" d="M1384.9 1316.33 Q1377.68 1316.33 1374.02 1323.46 Q1370.41 1330.55 1370.41 1344.81 Q1370.41 1359.02 1374.02 1366.15 Q1377.68 1373.23 1384.9 1373.23 Q1392.17 1373.23 1395.78 1366.15 Q1399.44 1359.02 1399.44 1344.81 Q1399.44 1330.55 1395.78 1323.46 Q1392.17 1316.33 1384.9 1316.33 M1384.9 1308.93 Q1396.52 1308.93 1402.63 1318.14 Q1408.79 1327.31 1408.79 1344.81 Q1408.79 1362.26 1402.63 1371.47 Q1396.52 1380.64 1384.9 1380.64 Q1373.28 1380.64 1367.12 1371.47 Q1361.01 1362.26 1361.01 1344.81 Q1361.01 1327.31 1367.12 1318.14 Q1373.28 1308.93 1384.9 1308.93 Z" fill="#000000" fill-rule="nonzero" fill-opacity="1" /><path clip-path="url(#clip760)" d="M1425.22 1367.54 L1434.99 1367.54 L1434.99 1379.3 L1425.22 1379.3 L1425.22 1367.54 Z" fill="#000000" fill-rule="nonzero" fill-opacity="1" /><path clip-path="url(#clip760)" d="M1476.52 1341.01 Q1470.22 1341.01 1466.52 1345.31 Q1462.86 1349.62 1462.86 1357.12 Q1462.86 1364.57 1466.52 1368.93 Q1470.22 1373.23 1476.52 1373.23 Q1482.82 1373.23 1486.47 1368.93 Q1490.18 1364.57 1490.18 1357.12 Q1490.18 1349.62 1486.47 1345.31 Q1482.82 1341.01 1476.52 1341.01 M1495.08 1311.7 L1495.08 1320.22 Q1491.57 1318.56 1487.95 1317.68 Q1484.39 1316.8 1480.87 1316.8 Q1471.61 1316.8 1466.7 1323.05 Q1461.84 1329.3 1461.15 1341.93 Q1463.88 1337.91 1468 1335.78 Q1472.12 1333.6 1477.07 1333.6 Q1487.49 1333.6 1493.51 1339.94 Q1499.57 1346.24 1499.57 1357.12 Q1499.57 1367.77 1493.28 1374.2 Q1486.98 1380.64 1476.52 1380.64 Q1464.53 1380.64 1458.19 1371.47 Q1451.84 1362.26 1451.84 1344.81 Q1451.84 1328.42 1459.62 1318.69 Q1467.4 1308.93 1480.5 1308.93 Q1484.02 1308.93 1487.58 1309.62 Q1491.19 1310.31 1495.08 1311.7 Z" fill="#000000" fill-rule="nonzero" fill-opacity="1" /><path clip-path="url(#clip760)" d="M1622.02 1316.33 Q1614.8 1316.33 1611.14 1323.46 Q1607.53 1330.55 1607.53 1344.81 Q1607.53 1359.02 1611.14 1366.15 Q1614.8 1373.23 1622.02 1373.23 Q1629.29 1373.23 1632.9 1366.15 Q1636.56 1359.02 1636.56 1344.81 Q1636.56 1330.55 1632.9 1323.46 Q1629.29 1316.33 1622.02 1316.33 M1622.02 1308.93 Q1633.64 1308.93 1639.75 1318.14 Q1645.91 1327.31 1645.91 1344.81 Q1645.91 1362.26 1639.75 1371.47 Q1633.64 1380.64 1622.02 1380.64 Q1610.4 1380.64 1604.24 1371.47 Q1598.13 1362.26 1598.13 1344.81 Q1598.13 1327.31 1604.24 1318.14 Q1610.4 1308.93 1622.02 1308.93 Z" fill="#000000" fill-rule="nonzero" fill-opacity="1" /><path clip-path="url(#clip760)" d="M1662.34 1367.54 L1672.11 1367.54 L1672.11 1379.3 L1662.34 1379.3 L1662.34 1367.54 Z" fill="#000000" fill-rule="nonzero" fill-opacity="1" /><path clip-path="url(#clip760)" d="M1712.48 1346.47 Q1705.82 1346.47 1701.97 1350.04 Q1698.18 1353.6 1698.18 1359.85 Q1698.18 1366.1 1701.97 1369.67 Q1705.82 1373.23 1712.48 1373.23 Q1719.15 1373.23 1722.99 1369.67 Q1726.83 1366.06 1726.83 1359.85 Q1726.83 1353.6 1722.99 1350.04 Q1719.2 1346.47 1712.48 1346.47 M1703.13 1342.49 Q1697.11 1341.01 1693.73 1336.89 Q1690.4 1332.77 1690.4 1326.84 Q1690.4 1318.56 1696.28 1313.74 Q1702.2 1308.93 1712.48 1308.93 Q1722.81 1308.93 1728.69 1313.74 Q1734.57 1318.56 1734.57 1326.84 Q1734.57 1332.77 1731.19 1336.89 Q1727.85 1341.01 1721.88 1342.49 Q1728.64 1344.06 1732.39 1348.65 Q1736.19 1353.23 1736.19 1359.85 Q1736.19 1369.9 1730.03 1375.27 Q1723.92 1380.64 1712.48 1380.64 Q1701.05 1380.64 1694.89 1375.27 Q1688.78 1369.9 1688.78 1359.85 Q1688.78 1353.23 1692.57 1348.65 Q1696.37 1344.06 1703.13 1342.49 M1699.7 1327.72 Q1699.7 1333.09 1703.04 1336.1 Q1706.42 1339.11 1712.48 1339.11 Q1718.5 1339.11 1721.88 1336.1 Q1725.31 1333.09 1725.31 1327.72 Q1725.31 1322.35 1721.88 1319.34 Q1718.5 1316.33 1712.48 1316.33 Q1706.42 1316.33 1703.04 1319.34 Q1699.7 1322.35 1699.7 1327.72 Z" fill="#000000" fill-rule="nonzero" fill-opacity="1" /><path clip-path="url(#clip760)" d="M1838.33 1371.43 L1853.61 1371.43 L1853.61 1318.69 L1836.99 1322.03 L1836.99 1313.51 L1853.52 1310.18 L1862.87 1310.18 L1862.87 1371.43 L1878.14 1371.43 L1878.14 1379.3 L1838.33 1379.3 L1838.33 1371.43 Z" fill="#000000" fill-rule="nonzero" fill-opacity="1" /><path clip-path="url(#clip760)" d="M1897.03 1367.54 L1906.8 1367.54 L1906.8 1379.3 L1897.03 1379.3 L1897.03 1367.54 Z" fill="#000000" fill-rule="nonzero" fill-opacity="1" /><path clip-path="url(#clip760)" d="M1947.17 1316.33 Q1939.95 1316.33 1936.29 1323.46 Q1932.68 1330.55 1932.68 1344.81 Q1932.68 1359.02 1936.29 1366.15 Q1939.95 1373.23 1947.17 1373.23 Q1954.44 1373.23 1958.05 1366.15 Q1961.71 1359.02 1961.71 1344.81 Q1961.71 1330.55 1958.05 1323.46 Q1954.44 1316.33 1947.17 1316.33 M1947.17 1308.93 Q1958.79 1308.93 1964.9 1318.14 Q1971.06 1327.31 1971.06 1344.81 Q1971.06 1362.26 1964.9 1371.47 Q1958.79 1380.64 1947.17 1380.64 Q1935.55 1380.64 1929.39 1371.47 Q1923.28 1362.26 1923.28 1344.81 Q1923.28 1327.31 1929.39 1318.14 Q1935.55 1308.93 1947.17 1308.93 Z" fill="#000000" fill-rule="nonzero" fill-opacity="1" /><path clip-path="url(#clip760)" d="M2076.79 1371.43 L2092.07 1371.43 L2092.07 1318.69 L2075.45 1322.03 L2075.45 1313.51 L2091.98 1310.18 L2101.33 1310.18 L2101.33 1371.43 L2116.61 1371.43 L2116.61 1379.3 L2076.79 1379.3 L2076.79 1371.43 Z" fill="#000000" fill-rule="nonzero" fill-opacity="1" /><path clip-path="url(#clip760)" d="M2135.5 1367.54 L2145.27 1367.54 L2145.27 1379.3 L2135.5 1379.3 L2135.5 1367.54 Z" fill="#000000" fill-rule="nonzero" fill-opacity="1" /><path clip-path="url(#clip760)" d="M2173.69 1371.43 L2206.33 1371.43 L2206.33 1379.3 L2162.44 1379.3 L2162.44 1371.43 Q2167.76 1365.92 2176.93 1356.66 Q2186.14 1347.35 2188.51 1344.67 Q2193 1339.62 2194.76 1336.15 Q2196.56 1332.63 2196.56 1329.25 Q2196.56 1323.74 2192.67 1320.27 Q2188.83 1316.8 2182.63 1316.8 Q2178.23 1316.8 2173.32 1318.32 Q2168.46 1319.85 2162.9 1322.95 L2162.9 1313.51 Q2168.55 1311.24 2173.46 1310.08 Q2178.37 1308.93 2182.44 1308.93 Q2193.18 1308.93 2199.57 1314.3 Q2205.96 1319.67 2205.96 1328.65 Q2205.96 1332.91 2204.34 1336.75 Q2202.76 1340.55 2198.55 1345.73 Q2197.39 1347.07 2191.19 1353.51 Q2184.99 1359.9 2173.69 1371.43 Z" fill="#000000" fill-rule="nonzero" fill-opacity="1" /><path clip-path="url(#clip760)" d="M1375.05 1484.39 L1375.05 1527.42 L1363.34 1527.42 L1363.34 1484.77 Q1363.34 1474.65 1359.39 1469.62 Q1355.45 1464.59 1347.55 1464.59 Q1338.07 1464.59 1332.59 1470.64 Q1327.12 1476.69 1327.12 1487.13 L1327.12 1527.42 L1315.34 1527.42 L1315.34 1428.37 L1327.12 1428.37 L1327.12 1467.2 Q1331.32 1460.77 1336.99 1457.59 Q1342.72 1454.41 1350.16 1454.41 Q1362.45 1454.41 1368.75 1462.05 Q1375.05 1469.62 1375.05 1484.39 Z" fill="#000000" fill-rule="nonzero" fill-opacity="1" /><path clip-path="url(#clip760)" d="M1426.04 1464.34 Q1416.62 1464.34 1411.15 1471.72 Q1405.67 1479.04 1405.67 1491.84 Q1405.67 1504.63 1411.08 1512.02 Q1416.56 1519.34 1426.04 1519.34 Q1435.4 1519.34 1440.87 1511.96 Q1446.35 1504.57 1446.35 1491.84 Q1446.35 1479.17 1440.87 1471.79 Q1435.4 1464.34 1426.04 1464.34 M1426.04 1454.41 Q1441.32 1454.41 1450.04 1464.34 Q1458.76 1474.27 1458.76 1491.84 Q1458.76 1509.35 1450.04 1519.34 Q1441.32 1529.27 1426.04 1529.27 Q1410.7 1529.27 1401.98 1519.34 Q1393.32 1509.35 1393.32 1491.84 Q1393.32 1474.27 1401.98 1464.34 Q1410.7 1454.41 1426.04 1454.41 Z" fill="#000000" fill-rule="nonzero" fill-opacity="1" /><path clip-path="url(#clip760)" d="M1476.97 1499.29 L1476.97 1456.13 L1488.68 1456.13 L1488.68 1498.84 Q1488.68 1508.96 1492.63 1514.06 Q1496.57 1519.08 1504.47 1519.08 Q1513.95 1519.08 1519.43 1513.04 Q1524.97 1506.99 1524.97 1496.55 L1524.97 1456.13 L1536.68 1456.13 L1536.68 1527.42 L1524.97 1527.42 L1524.97 1516.47 Q1520.7 1522.97 1515.04 1526.15 Q1509.43 1529.27 1501.99 1529.27 Q1489.7 1529.27 1483.33 1521.63 Q1476.97 1513.99 1476.97 1499.29 M1506.44 1454.41 L1506.44 1454.41 Z" fill="#000000" fill-rule="nonzero" fill-opacity="1" /><path clip-path="url(#clip760)" d="M1602.12 1467.08 Q1600.14 1465.93 1597.79 1465.42 Q1595.5 1464.85 1592.7 1464.85 Q1582.77 1464.85 1577.42 1471.34 Q1572.14 1477.77 1572.14 1489.87 L1572.14 1527.42 L1560.36 1527.42 L1560.36 1456.13 L1572.14 1456.13 L1572.14 1467.2 Q1575.83 1460.71 1581.75 1457.59 Q1587.67 1454.41 1596.13 1454.41 Q1597.34 1454.41 1598.81 1454.6 Q1600.27 1454.73 1602.05 1455.05 L1602.12 1467.08 Z" fill="#000000" fill-rule="nonzero" fill-opacity="1" /><path clip-path="url(#clip760)" d="M1659.86 1458.23 L1659.86 1469.3 Q1654.89 1466.76 1649.54 1465.49 Q1644.2 1464.21 1638.47 1464.21 Q1629.75 1464.21 1625.35 1466.89 Q1621.02 1469.56 1621.02 1474.91 Q1621.02 1478.98 1624.14 1481.34 Q1627.26 1483.63 1636.68 1485.73 L1640.69 1486.62 Q1653.17 1489.29 1658.39 1494.19 Q1663.67 1499.03 1663.67 1507.75 Q1663.67 1517.68 1655.78 1523.48 Q1647.95 1529.27 1634.2 1529.27 Q1628.47 1529.27 1622.23 1528.12 Q1616.06 1527.04 1609.18 1524.81 L1609.18 1512.72 Q1615.68 1516.09 1621.98 1517.81 Q1628.28 1519.47 1634.46 1519.47 Q1642.73 1519.47 1647.19 1516.67 Q1651.64 1513.8 1651.64 1508.64 Q1651.64 1503.87 1648.4 1501.32 Q1645.21 1498.78 1634.33 1496.42 L1630.25 1495.47 Q1619.37 1493.18 1614.53 1488.47 Q1609.69 1483.69 1609.69 1475.42 Q1609.69 1465.36 1616.82 1459.88 Q1623.95 1454.41 1637.07 1454.41 Q1643.56 1454.41 1649.29 1455.36 Q1655.02 1456.32 1659.86 1458.23 Z" fill="#000000" fill-rule="nonzero" fill-opacity="1" /><polyline clip-path="url(#clip762)" style="stroke:#000000; stroke-linecap:round; stroke-linejoin:round; stroke-width:4; stroke-opacity:0.1; fill:none" points="673.506,1138.32 2305.51,1138.32 "/>
<polyline clip-path="url(#clip762)" style="stroke:#000000; stroke-linecap:round; stroke-linejoin:round; stroke-width:4; stroke-opacity:0.1; fill:none" points="673.506,903.64 2305.51,903.64 "/>
<polyline clip-path="url(#clip762)" style="stroke:#000000; stroke-linecap:round; stroke-linejoin:round; stroke-width:4; stroke-opacity:0.1; fill:none" points="673.506,668.962 2305.51,668.962 "/>
<polyline clip-path="url(#clip762)" style="stroke:#000000; stroke-linecap:round; stroke-linejoin:round; stroke-width:4; stroke-opacity:0.1; fill:none" points="673.506,434.284 2305.51,434.284 "/>
<polyline clip-path="url(#clip762)" style="stroke:#000000; stroke-linecap:round; stroke-linejoin:round; stroke-width:4; stroke-opacity:0.1; fill:none" points="673.506,199.606 2305.51,199.606 "/>
<polyline clip-path="url(#clip760)" style="stroke:#000000; stroke-linecap:round; stroke-linejoin:round; stroke-width:8; stroke-opacity:1; fill:none" points="673.506,1273.7 673.506,94.4882 "/>
<polyline clip-path="url(#clip760)" style="stroke:#000000; stroke-linecap:round; stroke-linejoin:round; stroke-width:8; stroke-opacity:1; fill:none" points="673.506,1138.32 692.404,1138.32 "/>
<polyline clip-path="url(#clip760)" style="stroke:#000000; stroke-linecap:round; stroke-linejoin:round; stroke-width:8; stroke-opacity:1; fill:none" points="673.506,903.64 692.404,903.64 "/>
<polyline clip-path="url(#clip760)" style="stroke:#000000; stroke-linecap:round; stroke-linejoin:round; stroke-width:8; stroke-opacity:1; fill:none" points="673.506,668.962 692.404,668.962 "/>
<polyline clip-path="url(#clip760)" style="stroke:#000000; stroke-linecap:round; stroke-linejoin:round; stroke-width:8; stroke-opacity:1; fill:none" points="673.506,434.284 692.404,434.284 "/>
<polyline clip-path="url(#clip760)" style="stroke:#000000; stroke-linecap:round; stroke-linejoin:round; stroke-width:8; stroke-opacity:1; fill:none" points="673.506,199.606 692.404,199.606 "/>
<path clip-path="url(#clip760)" d="M462.831 1140.05 Q456.164 1140.05 452.322 1143.62 Q448.525 1147.18 448.525 1153.43 Q448.525 1159.68 452.322 1163.25 Q456.164 1166.81 462.831 1166.81 Q469.498 1166.81 473.34 1163.25 Q477.183 1159.64 477.183 1153.43 Q477.183 1147.18 473.34 1143.62 Q469.544 1140.05 462.831 1140.05 M453.479 1136.07 Q447.461 1134.59 444.081 1130.47 Q440.748 1126.35 440.748 1120.42 Q440.748 1112.14 446.627 1107.32 Q452.553 1102.51 462.831 1102.51 Q473.155 1102.51 479.035 1107.32 Q484.914 1112.14 484.914 1120.42 Q484.914 1126.35 481.535 1130.47 Q478.201 1134.59 472.229 1136.07 Q478.988 1137.65 482.738 1142.23 Q486.535 1146.81 486.535 1153.43 Q486.535 1163.48 480.377 1168.85 Q474.266 1174.22 462.831 1174.22 Q451.396 1174.22 445.238 1168.85 Q439.127 1163.48 439.127 1153.43 Q439.127 1146.81 442.924 1142.23 Q446.72 1137.65 453.479 1136.07 M450.053 1121.3 Q450.053 1126.67 453.387 1129.68 Q456.766 1132.69 462.831 1132.69 Q468.849 1132.69 472.229 1129.68 Q475.655 1126.67 475.655 1121.3 Q475.655 1115.93 472.229 1112.92 Q468.849 1109.92 462.831 1109.92 Q456.766 1109.92 453.387 1112.92 Q450.053 1115.93 450.053 1121.3 Z" fill="#000000" fill-rule="nonzero" fill-opacity="1" /><path clip-path="url(#clip760)" d="M523.155 1109.92 Q515.933 1109.92 512.275 1117.05 Q508.664 1124.13 508.664 1138.39 Q508.664 1152.6 512.275 1159.73 Q515.933 1166.81 523.155 1166.81 Q530.423 1166.81 534.034 1159.73 Q537.692 1152.6 537.692 1138.39 Q537.692 1124.13 534.034 1117.05 Q530.423 1109.92 523.155 1109.92 M523.155 1102.51 Q534.775 1102.51 540.886 1111.72 Q547.043 1120.89 547.043 1138.39 Q547.043 1155.84 540.886 1165.05 Q534.775 1174.22 523.155 1174.22 Q511.534 1174.22 505.377 1165.05 Q499.266 1155.84 499.266 1138.39 Q499.266 1120.89 505.377 1111.72 Q511.534 1102.51 523.155 1102.51 Z" fill="#000000" fill-rule="nonzero" fill-opacity="1" /><path clip-path="url(#clip760)" d="M563.479 1161.12 L573.247 1161.12 L573.247 1172.88 L563.479 1172.88 L563.479 1161.12 Z" fill="#000000" fill-rule="nonzero" fill-opacity="1" /><path clip-path="url(#clip760)" d="M613.617 1109.92 Q606.395 1109.92 602.738 1117.05 Q599.127 1124.13 599.127 1138.39 Q599.127 1152.6 602.738 1159.73 Q606.395 1166.81 613.617 1166.81 Q620.886 1166.81 624.497 1159.73 Q628.154 1152.6 628.154 1138.39 Q628.154 1124.13 624.497 1117.05 Q620.886 1109.92 613.617 1109.92 M613.617 1102.51 Q625.238 1102.51 631.349 1111.72 Q637.506 1120.89 637.506 1138.39 Q637.506 1155.84 631.349 1165.05 Q625.238 1174.22 613.617 1174.22 Q601.997 1174.22 595.84 1165.05 Q589.728 1155.84 589.728 1138.39 Q589.728 1120.89 595.84 1111.72 Q601.997 1102.51 613.617 1102.51 Z" fill="#000000" fill-rule="nonzero" fill-opacity="1" /><path clip-path="url(#clip760)" d="M384.128 930.33 L399.405 930.33 L399.405 877.599 L382.785 880.932 L382.785 872.413 L399.313 869.08 L408.665 869.08 L408.665 930.33 L423.942 930.33 L423.942 938.2 L384.128 938.2 L384.128 930.33 Z" fill="#000000" fill-rule="nonzero" fill-opacity="1" /><path clip-path="url(#clip760)" d="M462.831 875.237 Q455.609 875.237 451.951 882.367 Q448.34 889.45 448.34 903.71 Q448.34 917.922 451.951 925.052 Q455.609 932.135 462.831 932.135 Q470.099 932.135 473.711 925.052 Q477.368 917.922 477.368 903.71 Q477.368 889.45 473.711 882.367 Q470.099 875.237 462.831 875.237 M462.831 867.83 Q474.451 867.83 480.562 877.043 Q486.72 886.21 486.72 903.71 Q486.72 921.163 480.562 930.376 Q474.451 939.543 462.831 939.543 Q451.211 939.543 445.053 930.376 Q438.942 921.163 438.942 903.71 Q438.942 886.21 445.053 877.043 Q451.211 867.83 462.831 867.83 Z" fill="#000000" fill-rule="nonzero" fill-opacity="1" /><path clip-path="url(#clip760)" d="M523.155 875.237 Q515.933 875.237 512.275 882.367 Q508.664 889.45 508.664 903.71 Q508.664 917.922 512.275 925.052 Q515.933 932.135 523.155 932.135 Q530.423 932.135 534.034 925.052 Q537.692 917.922 537.692 903.71 Q537.692 889.45 534.034 882.367 Q530.423 875.237 523.155 875.237 M523.155 867.83 Q534.775 867.83 540.886 877.043 Q547.043 886.21 547.043 903.71 Q547.043 921.163 540.886 930.376 Q534.775 939.543 523.155 939.543 Q511.534 939.543 505.377 930.376 Q499.266 921.163 499.266 903.71 Q499.266 886.21 505.377 877.043 Q511.534 867.83 523.155 867.83 Z" fill="#000000" fill-rule="nonzero" fill-opacity="1" /><path clip-path="url(#clip760)" d="M563.479 926.441 L573.247 926.441 L573.247 938.2 L563.479 938.2 L563.479 926.441 Z" fill="#000000" fill-rule="nonzero" fill-opacity="1" /><path clip-path="url(#clip760)" d="M613.617 875.237 Q606.395 875.237 602.738 882.367 Q599.127 889.45 599.127 903.71 Q599.127 917.922 602.738 925.052 Q606.395 932.135 613.617 932.135 Q620.886 932.135 624.497 925.052 Q628.154 917.922 628.154 903.71 Q628.154 889.45 624.497 882.367 Q620.886 875.237 613.617 875.237 M613.617 867.83 Q625.238 867.83 631.349 877.043 Q637.506 886.21 637.506 903.71 Q637.506 921.163 631.349 930.376 Q625.238 939.543 613.617 939.543 Q601.997 939.543 595.84 930.376 Q589.728 921.163 589.728 903.71 Q589.728 886.21 595.84 877.043 Q601.997 867.83 613.617 867.83 Z" fill="#000000" fill-rule="nonzero" fill-opacity="1" /><path clip-path="url(#clip760)" d="M384.128 695.652 L399.405 695.652 L399.405 642.92 L382.785 646.254 L382.785 637.735 L399.313 634.402 L408.665 634.402 L408.665 695.652 L423.942 695.652 L423.942 703.522 L384.128 703.522 L384.128 695.652 Z" fill="#000000" fill-rule="nonzero" fill-opacity="1" /><path clip-path="url(#clip760)" d="M450.887 695.652 L483.525 695.652 L483.525 703.522 L439.637 703.522 L439.637 695.652 Q444.961 690.142 454.127 680.883 Q463.34 671.578 465.701 668.893 Q470.192 663.846 471.951 660.374 Q473.757 656.856 473.757 653.476 Q473.757 647.967 469.868 644.495 Q466.025 641.022 459.822 641.022 Q455.424 641.022 450.516 642.55 Q445.655 644.078 440.1 647.18 L440.1 637.735 Q445.748 635.467 450.655 634.309 Q455.562 633.152 459.637 633.152 Q470.377 633.152 476.766 638.522 Q483.155 643.893 483.155 652.874 Q483.155 657.133 481.535 660.976 Q479.961 664.772 475.748 669.957 Q474.59 671.3 468.387 677.735 Q462.183 684.124 450.887 695.652 Z" fill="#000000" fill-rule="nonzero" fill-opacity="1" /><path clip-path="url(#clip760)" d="M523.155 640.559 Q515.933 640.559 512.275 647.689 Q508.664 654.772 508.664 669.031 Q508.664 683.244 512.275 690.374 Q515.933 697.457 523.155 697.457 Q530.423 697.457 534.034 690.374 Q537.692 683.244 537.692 669.031 Q537.692 654.772 534.034 647.689 Q530.423 640.559 523.155 640.559 M523.155 633.152 Q534.775 633.152 540.886 642.365 Q547.043 651.532 547.043 669.031 Q547.043 686.485 540.886 695.698 Q534.775 704.865 523.155 704.865 Q511.534 704.865 505.377 695.698 Q499.266 686.485 499.266 669.031 Q499.266 651.532 505.377 642.365 Q511.534 633.152 523.155 633.152 Z" fill="#000000" fill-rule="nonzero" fill-opacity="1" /><path clip-path="url(#clip760)" d="M563.479 691.763 L573.247 691.763 L573.247 703.522 L563.479 703.522 L563.479 691.763 Z" fill="#000000" fill-rule="nonzero" fill-opacity="1" /><path clip-path="url(#clip760)" d="M613.617 640.559 Q606.395 640.559 602.738 647.689 Q599.127 654.772 599.127 669.031 Q599.127 683.244 602.738 690.374 Q606.395 697.457 613.617 697.457 Q620.886 697.457 624.497 690.374 Q628.154 683.244 628.154 669.031 Q628.154 654.772 624.497 647.689 Q620.886 640.559 613.617 640.559 M613.617 633.152 Q625.238 633.152 631.349 642.365 Q637.506 651.532 637.506 669.031 Q637.506 686.485 631.349 695.698 Q625.238 704.865 613.617 704.865 Q601.997 704.865 595.84 695.698 Q589.728 686.485 589.728 669.031 Q589.728 651.532 595.84 642.365 Q601.997 633.152 613.617 633.152 Z" fill="#000000" fill-rule="nonzero" fill-opacity="1" /><path clip-path="url(#clip760)" d="M384.128 460.974 L399.405 460.974 L399.405 408.242 L382.785 411.576 L382.785 403.057 L399.313 399.724 L408.665 399.724 L408.665 460.974 L423.942 460.974 L423.942 468.844 L384.128 468.844 L384.128 460.974 Z" fill="#000000" fill-rule="nonzero" fill-opacity="1" /><path clip-path="url(#clip760)" d="M468.525 407.872 L444.914 444.77 L468.525 444.77 L468.525 407.872 M466.072 399.724 L477.831 399.724 L477.831 444.77 L487.692 444.77 L487.692 452.548 L477.831 452.548 L477.831 468.844 L468.525 468.844 L468.525 452.548 L437.322 452.548 L437.322 443.52 L466.072 399.724 Z" fill="#000000" fill-rule="nonzero" fill-opacity="1" /><path clip-path="url(#clip760)" d="M523.155 405.881 Q515.933 405.881 512.275 413.011 Q508.664 420.094 508.664 434.353 Q508.664 448.566 512.275 455.696 Q515.933 462.779 523.155 462.779 Q530.423 462.779 534.034 455.696 Q537.692 448.566 537.692 434.353 Q537.692 420.094 534.034 413.011 Q530.423 405.881 523.155 405.881 M523.155 398.474 Q534.775 398.474 540.886 407.687 Q547.043 416.853 547.043 434.353 Q547.043 451.807 540.886 461.02 Q534.775 470.187 523.155 470.187 Q511.534 470.187 505.377 461.02 Q499.266 451.807 499.266 434.353 Q499.266 416.853 505.377 407.687 Q511.534 398.474 523.155 398.474 Z" fill="#000000" fill-rule="nonzero" fill-opacity="1" /><path clip-path="url(#clip760)" d="M563.479 457.085 L573.247 457.085 L573.247 468.844 L563.479 468.844 L563.479 457.085 Z" fill="#000000" fill-rule="nonzero" fill-opacity="1" /><path clip-path="url(#clip760)" d="M613.617 405.881 Q606.395 405.881 602.738 413.011 Q599.127 420.094 599.127 434.353 Q599.127 448.566 602.738 455.696 Q606.395 462.779 613.617 462.779 Q620.886 462.779 624.497 455.696 Q628.154 448.566 628.154 434.353 Q628.154 420.094 624.497 413.011 Q620.886 405.881 613.617 405.881 M613.617 398.474 Q625.238 398.474 631.349 407.687 Q637.506 416.853 637.506 434.353 Q637.506 451.807 631.349 461.02 Q625.238 470.187 613.617 470.187 Q601.997 470.187 595.84 461.02 Q589.728 451.807 589.728 434.353 Q589.728 416.853 595.84 407.687 Q601.997 398.474 613.617 398.474 Z" fill="#000000" fill-rule="nonzero" fill-opacity="1" /><path clip-path="url(#clip760)" d="M384.128 226.296 L399.405 226.296 L399.405 173.564 L382.785 176.898 L382.785 168.379 L399.313 165.046 L408.665 165.046 L408.665 226.296 L423.942 226.296 L423.942 234.166 L384.128 234.166 L384.128 226.296 Z" fill="#000000" fill-rule="nonzero" fill-opacity="1" /><path clip-path="url(#clip760)" d="M463.988 195.879 Q457.692 195.879 453.988 200.185 Q450.331 204.49 450.331 211.99 Q450.331 219.444 453.988 223.796 Q457.692 228.101 463.988 228.101 Q470.285 228.101 473.942 223.796 Q477.646 219.444 477.646 211.99 Q477.646 204.49 473.942 200.185 Q470.285 195.879 463.988 195.879 M482.553 166.574 L482.553 175.092 Q479.035 173.425 475.424 172.546 Q471.859 171.666 468.34 171.666 Q459.081 171.666 454.174 177.916 Q449.313 184.166 448.618 196.805 Q451.35 192.777 455.47 190.648 Q459.59 188.472 464.544 188.472 Q474.961 188.472 480.979 194.814 Q487.044 201.11 487.044 211.99 Q487.044 222.638 480.748 229.073 Q474.451 235.508 463.988 235.508 Q451.998 235.508 445.655 226.342 Q439.313 217.129 439.313 199.675 Q439.313 183.286 447.09 173.564 Q454.868 163.796 467.97 163.796 Q471.488 163.796 475.053 164.49 Q478.664 165.185 482.553 166.574 Z" fill="#000000" fill-rule="nonzero" fill-opacity="1" /><path clip-path="url(#clip760)" d="M523.155 171.203 Q515.933 171.203 512.275 178.333 Q508.664 185.416 508.664 199.675 Q508.664 213.888 512.275 221.018 Q515.933 228.101 523.155 228.101 Q530.423 228.101 534.034 221.018 Q537.692 213.888 537.692 199.675 Q537.692 185.416 534.034 178.333 Q530.423 171.203 523.155 171.203 M523.155 163.796 Q534.775 163.796 540.886 173.009 Q547.043 182.175 547.043 199.675 Q547.043 217.129 540.886 226.342 Q534.775 235.508 523.155 235.508 Q511.534 235.508 505.377 226.342 Q499.266 217.129 499.266 199.675 Q499.266 182.175 505.377 173.009 Q511.534 163.796 523.155 163.796 Z" fill="#000000" fill-rule="nonzero" fill-opacity="1" /><path clip-path="url(#clip760)" d="M563.479 222.407 L573.247 222.407 L573.247 234.166 L563.479 234.166 L563.479 222.407 Z" fill="#000000" fill-rule="nonzero" fill-opacity="1" /><path clip-path="url(#clip760)" d="M613.617 171.203 Q606.395 171.203 602.738 178.333 Q599.127 185.416 599.127 199.675 Q599.127 213.888 602.738 221.018 Q606.395 228.101 613.617 228.101 Q620.886 228.101 624.497 221.018 Q628.154 213.888 628.154 199.675 Q628.154 185.416 624.497 178.333 Q620.886 171.203 613.617 171.203 M613.617 163.796 Q625.238 163.796 631.349 173.009 Q637.506 182.175 637.506 199.675 Q637.506 217.129 631.349 226.342 Q625.238 235.508 613.617 235.508 Q601.997 235.508 595.84 226.342 Q589.728 217.129 589.728 199.675 Q589.728 182.175 595.84 173.009 Q601.997 163.796 613.617 163.796 Z" fill="#000000" fill-rule="nonzero" fill-opacity="1" /><path clip-path="url(#clip760)" d="M307.579 931.4 L345.391 931.4 L345.391 943.176 L246.977 943.176 L246.977 931.4 L257.799 931.4 Q251.433 927.708 248.378 922.106 Q245.258 916.44 245.258 908.61 Q245.258 895.624 255.571 887.54 Q265.883 879.392 282.689 879.392 Q299.494 879.392 309.807 887.54 Q320.119 895.624 320.119 908.61 Q320.119 916.44 317.064 922.106 Q313.944 927.708 307.579 931.4 M282.689 891.55 Q269.766 891.55 262.446 896.898 Q255.062 902.181 255.062 911.475 Q255.062 920.769 262.446 926.116 Q269.766 931.4 282.689 931.4 Q295.611 931.4 302.995 926.116 Q310.316 920.769 310.316 911.475 Q310.316 902.181 302.995 896.898 Q295.611 891.55 282.689 891.55 Z" fill="#000000" fill-rule="nonzero" fill-opacity="1" /><path clip-path="url(#clip760)" d="M282.434 827.575 Q282.434 841.771 285.681 847.245 Q288.927 852.72 296.757 852.72 Q302.995 852.72 306.688 848.645 Q310.316 844.508 310.316 837.442 Q310.316 827.702 303.441 821.846 Q296.502 815.926 285.044 815.926 L282.434 815.926 L282.434 827.575 M277.596 804.213 L318.273 804.213 L318.273 815.926 L307.451 815.926 Q313.944 819.936 317.064 825.92 Q320.119 831.904 320.119 840.561 Q320.119 851.51 314.008 858.003 Q307.833 864.432 297.521 864.432 Q285.49 864.432 279.379 856.412 Q273.268 848.327 273.268 832.349 L273.268 815.926 L272.122 815.926 Q264.037 815.926 259.645 821.273 Q255.189 826.556 255.189 836.169 Q255.189 842.28 256.653 848.073 Q258.117 853.865 261.045 859.213 L250.224 859.213 Q247.741 852.783 246.532 846.736 Q245.258 840.688 245.258 834.959 Q245.258 819.491 253.279 811.852 Q261.3 804.213 277.596 804.213 Z" fill="#000000" fill-rule="nonzero" fill-opacity="1" /><path clip-path="url(#clip760)" d="M257.926 738.773 Q256.78 740.747 256.271 743.102 Q255.698 745.394 255.698 748.195 Q255.698 758.125 262.191 763.472 Q268.621 768.756 280.715 768.756 L318.273 768.756 L318.273 780.532 L246.977 780.532 L246.977 768.756 L258.054 768.756 Q251.561 765.064 248.441 759.144 Q245.258 753.224 245.258 744.757 Q245.258 743.548 245.449 742.084 Q245.577 740.619 245.895 738.837 L257.926 738.773 Z" fill="#000000" fill-rule="nonzero" fill-opacity="1" /><path clip-path="url(#clip760)" d="M279.697 668.369 L285.426 668.369 L285.426 722.223 Q297.521 721.459 303.887 714.966 Q310.189 708.409 310.189 696.76 Q310.189 690.012 308.534 683.71 Q306.878 677.344 303.568 671.106 L314.645 671.106 Q317.318 677.408 318.719 684.028 Q320.119 690.649 320.119 697.46 Q320.119 714.52 310.189 724.514 Q300.258 734.445 283.325 734.445 Q265.82 734.445 255.571 725.023 Q245.258 715.539 245.258 699.497 Q245.258 685.11 254.552 676.771 Q263.783 668.369 279.697 668.369 M276.259 680.082 Q266.647 680.209 260.918 685.492 Q255.189 690.712 255.189 699.37 Q255.189 709.173 260.727 715.093 Q266.265 720.949 276.323 721.841 L276.259 680.082 Z" fill="#000000" fill-rule="nonzero" fill-opacity="1" /><path clip-path="url(#clip760)" d="M275.241 589.88 L318.273 589.88 L318.273 601.592 L275.623 601.592 Q265.501 601.592 260.472 605.539 Q255.444 609.486 255.444 617.379 Q255.444 626.864 261.491 632.339 Q267.538 637.813 277.978 637.813 L318.273 637.813 L318.273 649.59 L246.977 649.59 L246.977 637.813 L258.054 637.813 Q251.624 633.612 248.441 627.946 Q245.258 622.217 245.258 614.769 Q245.258 602.484 252.897 596.182 Q260.472 589.88 275.241 589.88 Z" fill="#000000" fill-rule="nonzero" fill-opacity="1" /><path clip-path="url(#clip760)" d="M302.104 564.862 L302.104 551.431 L318.273 551.431 L318.273 564.862 L302.104 564.862 Z" fill="#000000" fill-rule="nonzero" fill-opacity="1" /><path clip-path="url(#clip760)" d="M307.451 479.753 L307.451 458.746 L234.946 458.746 L239.529 481.599 L227.816 481.599 L223.233 458.873 L223.233 446.015 L307.451 446.015 L307.451 425.008 L318.273 425.008 L318.273 479.753 L307.451 479.753 Z" fill="#000000" fill-rule="nonzero" fill-opacity="1" /><polyline clip-path="url(#clip762)" style="stroke:#008000; stroke-linecap:round; stroke-linejoin:round; stroke-width:8; stroke-opacity:1; fill:none" points="719.695,247.667 838.128,332.8 956.561,381.04 1074.99,554.437 1193.43,654.47 1311.86,722.852 1430.29,849.621 1548.73,851.463 1667.16,937.375 1785.59,1008.72 1904.02,997.654 2022.46,1047.42 2140.89,1224.55 2259.32,1240.32 "/>
<circle clip-path="url(#clip762)" cx="719.695" cy="247.667" r="14.4" fill="#008000" fill-rule="evenodd" fill-opacity="1" stroke="#000000" stroke-opacity="1" stroke-width="6.4"/>
<circle clip-path="url(#clip762)" cx="838.128" cy="332.8" r="14.4" fill="#008000" fill-rule="evenodd" fill-opacity="1" stroke="#000000" stroke-opacity="1" stroke-width="6.4"/>
<circle clip-path="url(#clip762)" cx="956.561" cy="381.04" r="14.4" fill="#008000" fill-rule="evenodd" fill-opacity="1" stroke="#000000" stroke-opacity="1" stroke-width="6.4"/>
<circle clip-path="url(#clip762)" cx="1074.99" cy="554.437" r="14.4" fill="#008000" fill-rule="evenodd" fill-opacity="1" stroke="#000000" stroke-opacity="1" stroke-width="6.4"/>
<circle clip-path="url(#clip762)" cx="1193.43" cy="654.47" r="14.4" fill="#008000" fill-rule="evenodd" fill-opacity="1" stroke="#000000" stroke-opacity="1" stroke-width="6.4"/>
<circle clip-path="url(#clip762)" cx="1311.86" cy="722.852" r="14.4" fill="#008000" fill-rule="evenodd" fill-opacity="1" stroke="#000000" stroke-opacity="1" stroke-width="6.4"/>
<circle clip-path="url(#clip762)" cx="1430.29" cy="849.621" r="14.4" fill="#008000" fill-rule="evenodd" fill-opacity="1" stroke="#000000" stroke-opacity="1" stroke-width="6.4"/>
<circle clip-path="url(#clip762)" cx="1548.73" cy="851.463" r="14.4" fill="#008000" fill-rule="evenodd" fill-opacity="1" stroke="#000000" stroke-opacity="1" stroke-width="6.4"/>
<circle clip-path="url(#clip762)" cx="1667.16" cy="937.375" r="14.4" fill="#008000" fill-rule="evenodd" fill-opacity="1" stroke="#000000" stroke-opacity="1" stroke-width="6.4"/>
<circle clip-path="url(#clip762)" cx="1785.59" cy="1008.72" r="14.4" fill="#008000" fill-rule="evenodd" fill-opacity="1" stroke="#000000" stroke-opacity="1" stroke-width="6.4"/>
<circle clip-path="url(#clip762)" cx="1904.02" cy="997.654" r="14.4" fill="#008000" fill-rule="evenodd" fill-opacity="1" stroke="#000000" stroke-opacity="1" stroke-width="6.4"/>
<circle clip-path="url(#clip762)" cx="2022.46" cy="1047.42" r="14.4" fill="#008000" fill-rule="evenodd" fill-opacity="1" stroke="#000000" stroke-opacity="1" stroke-width="6.4"/>
<circle clip-path="url(#clip762)" cx="2140.89" cy="1224.55" r="14.4" fill="#008000" fill-rule="evenodd" fill-opacity="1" stroke="#000000" stroke-opacity="1" stroke-width="6.4"/>
<circle clip-path="url(#clip762)" cx="2259.32" cy="1240.32" r="14.4" fill="#008000" fill-rule="evenodd" fill-opacity="1" stroke="#000000" stroke-opacity="1" stroke-width="6.4"/>
<polyline clip-path="url(#clip762)" style="stroke:#00008b; stroke-linecap:round; stroke-linejoin:round; stroke-width:8; stroke-opacity:1; fill:none" points="719.695,164.501 838.128,364.509 956.561,474.579 1074.99,571.212 1193.43,655.695 1311.86,729.955 1430.29,796.078 1548.73,855.679 1667.16,911.27 1785.59,961.307 1904.02,1002.17 2022.46,1045.16 2140.89,1084.03 2259.32,1116.91 "/>
<path clip-path="url(#clip762)" d="M719.695 200.893 L838.128 398.633 L956.561 510.018 L1074.99 607.412 L1193.43 693.362 L1311.86 768.302 L1430.29 830.858 L1548.73 891.207 L1667.16 946.677 L1785.59 996.493 L1904.02 1038.73 L2022.46 1083.52 L2140.89 1121.34 L2259.32 1153.7 L2259.32 1081.79 L2140.89 1048.66 L2022.46 1007.48 L1904.02 965.955 L1785.59 925.994 L1667.16 875.723 L1548.73 817.448 L1430.29 759.866 L1311.86 691.367 L1193.43 617.298 L1074.99 534.012 L956.561 440.45 L838.128 330.306 L719.695 127.862  Z" fill="#0000ff" fill-rule="evenodd" fill-opacity="0.1"/>
<polyline clip-path="url(#clip762)" style="stroke:#0000ff; stroke-linecap:round; stroke-linejoin:round; stroke-width:0; stroke-opacity:0.1; fill:none" points="719.695,200.893 838.128,398.633 956.561,510.018 1074.99,607.412 1193.43,693.362 1311.86,768.302 1430.29,830.858 1548.73,891.207 1667.16,946.677 1785.59,996.493 1904.02,1038.73 2022.46,1083.52 2140.89,1121.34 2259.32,1153.7 "/>
</svg>
