<?xml version="1.0" encoding="utf-8"?>
<svg xmlns="http://www.w3.org/2000/svg" xmlns:xlink="http://www.w3.org/1999/xlink" width="600" height="400" viewBox="0 0 2400 1600">
<defs>
  <clipPath id="clip800">
    <rect x="0" y="0" width="2400" height="1600"/>
  </clipPath>
</defs>
<path clip-path="url(#clip800)" d="M0 1600 L2400 1600 L2400 0 L0 0  Z" fill="#ffffff" fill-rule="evenodd" fill-opacity="1"/>
<defs>
  <clipPath id="clip801">
    <rect x="480" y="0" width="1681" height="1600"/>
  </clipPath>
</defs>
<path clip-path="url(#clip800)" d="M673.506 1273.7 L2305.51 1273.7 L2305.51 94.4882 L673.506 94.4882  Z" fill="#ffffff" fill-rule="evenodd" fill-opacity="1"/>
<defs>
  <clipPath id="clip802">
    <rect x="673" y="94" width="1633" height="1180"/>
  </clipPath>
</defs>
<polyline clip-path="url(#clip802)" style="stroke:#000000; stroke-linecap:round; stroke-linejoin:round; stroke-width:4; stroke-opacity:0.1; fill:none" points="719.695,1273.7 719.695,94.4882 "/>
<polyline clip-path="url(#clip802)" style="stroke:#000000; stroke-linecap:round; stroke-linejoin:round; stroke-width:4; stroke-opacity:0.1; fill:none" points="956.561,1273.7 956.561,94.4882 "/>
<polyline clip-path="url(#clip802)" style="stroke:#000000; stroke-linecap:round; stroke-linejoin:round; stroke-width:4; stroke-opacity:0.1; fill:none" points="1193.43,1273.7 1193.43,94.4882 "/>
<polyline clip-path="url(#clip802)" style="stroke:#000000; stroke-linecap:round; stroke-linejoin:round; stroke-width:4; stroke-opacity:0.1; fill:none" points="1430.29,1273.7 1430.29,94.4882 "/>
<polyline clip-path="url(#clip802)" style="stroke:#000000; stroke-linecap:round; stroke-linejoin:round; stroke-width:4; stroke-opacity:0.1; fill:none" points="1667.16,1273.7 1667.16,94.4882 "/>
<polyline clip-path="url(#clip802)" style="stroke:#000000; stroke-linecap:round; stroke-linejoin:round; stroke-width:4; stroke-opacity:0.1; fill:none" points="1904.02,1273.7 1904.02,94.4882 "/>
<polyline clip-path="url(#clip802)" style="stroke:#000000; stroke-linecap:round; stroke-linejoin:round; stroke-width:4; stroke-opacity:0.1; fill:none" points="2140.89,1273.7 2140.89,94.4882 "/>
<polyline clip-path="url(#clip800)" style="stroke:#000000; stroke-linecap:round; stroke-linejoin:round; stroke-width:8; stroke-opacity:1; fill:none" points="673.506,1273.7 2305.51,1273.7 "/>
<polyline clip-path="url(#clip800)" style="stroke:#000000; stroke-linecap:round; stroke-linejoin:round; stroke-width:8; stroke-opacity:1; fill:none" points="719.695,1273.7 719.695,1254.8 "/>
<polyline clip-path="url(#clip800)" style="stroke:#000000; stroke-linecap:round; stroke-linejoin:round; stroke-width:8; stroke-opacity:1; fill:none" points="956.561,1273.7 956.561,1254.8 "/>
<polyline clip-path="url(#clip800)" style="stroke:#000000; stroke-linecap:round; stroke-linejoin:round; stroke-width:8; stroke-opacity:1; fill:none" points="1193.43,1273.7 1193.43,1254.8 "/>
<polyline clip-path="url(#clip800)" style="stroke:#000000; stroke-linecap:round; stroke-linejoin:round; stroke-width:8; stroke-opacity:1; fill:none" points="1430.29,1273.7 1430.29,1254.8 "/>
<polyline clip-path="url(#clip800)" style="stroke:#000000; stroke-linecap:round; stroke-linejoin:round; stroke-width:8; stroke-opacity:1; fill:none" points="1667.16,1273.7 1667.16,1254.8 "/>
<polyline clip-path="url(#clip800)" style="stroke:#000000; stroke-linecap:round; stroke-linejoin:round; stroke-width:8; stroke-opacity:1; fill:none" points="1904.02,1273.7 1904.02,1254.8 "/>
<polyline clip-path="url(#clip800)" style="stroke:#000000; stroke-linecap:round; stroke-linejoin:round; stroke-width:8; stroke-opacity:1; fill:none" points="2140.89,1273.7 2140.89,1254.8 "/>
<path clip-path="url(#clip800)" d="M674.464 1316.33 Q667.241 1316.33 663.584 1323.46 Q659.973 1330.55 659.973 1344.81 Q659.973 1359.02 663.584 1366.15 Q667.241 1373.23 674.464 1373.23 Q681.732 1373.23 685.343 1366.15 Q689.001 1359.02 689.001 1344.81 Q689.001 1330.55 685.343 1323.46 Q681.732 1316.33 674.464 1316.33 M674.464 1308.93 Q686.084 1308.93 692.195 1318.14 Q698.352 1327.31 698.352 1344.81 Q698.352 1362.26 692.195 1371.47 Q686.084 1380.64 674.464 1380.64 Q662.843 1380.64 656.686 1371.47 Q650.575 1362.26 650.575 1344.81 Q650.575 1327.31 656.686 1318.14 Q662.843 1308.93 674.464 1308.93 Z" fill="#000000" fill-rule="nonzero" fill-opacity="1" /><path clip-path="url(#clip800)" d="M714.787 1367.54 L724.556 1367.54 L724.556 1379.3 L714.787 1379.3 L714.787 1367.54 Z" fill="#000000" fill-rule="nonzero" fill-opacity="1" /><path clip-path="url(#clip800)" d="M764.926 1316.33 Q757.704 1316.33 754.046 1323.46 Q750.435 1330.55 750.435 1344.81 Q750.435 1359.02 754.046 1366.15 Q757.704 1373.23 764.926 1373.23 Q772.195 1373.23 775.806 1366.15 Q779.463 1359.02 779.463 1344.81 Q779.463 1330.55 775.806 1323.46 Q772.195 1316.33 764.926 1316.33 M764.926 1308.93 Q776.546 1308.93 782.657 1318.14 Q788.815 1327.31 788.815 1344.81 Q788.815 1362.26 782.657 1371.47 Q776.546 1380.64 764.926 1380.64 Q753.306 1380.64 747.148 1371.47 Q741.037 1362.26 741.037 1344.81 Q741.037 1327.31 747.148 1318.14 Q753.306 1308.93 764.926 1308.93 Z" fill="#000000" fill-rule="nonzero" fill-opacity="1" /><path clip-path="url(#clip800)" d="M912.927 1316.33 Q905.704 1316.33 902.047 1323.46 Q898.436 1330.55 898.436 1344.81 Q898.436 1359.02 902.047 1366.15 Q905.704 1373.23 912.927 1373.23 Q920.195 1373.23 923.806 1366.15 Q927.464 1359.02 927.464 1344.81 Q927.464 1330.55 923.806 1323.46 Q920.195 1316.33 912.927 1316.33 M912.927 1308.93 Q924.547 1308.93 930.658 1318.14 Q936.815 1327.31 936.815 1344.81 Q936.815 1362.26 930.658 1371.47 Q924.547 1380.64 912.927 1380.64 Q901.306 1380.64 895.149 1371.47 Q889.038 1362.26 889.038 1344.81 Q889.038 1327.31 895.149 1318.14 Q901.306 1308.93 912.927 1308.93 Z" fill="#000000" fill-rule="nonzero" fill-opacity="1" /><path clip-path="url(#clip800)" d="M953.251 1367.54 L963.019 1367.54 L963.019 1379.3 L953.251 1379.3 L953.251 1367.54 Z" fill="#000000" fill-rule="nonzero" fill-opacity="1" /><path clip-path="url(#clip800)" d="M991.445 1371.43 L1024.08 1371.43 L1024.08 1379.3 L980.195 1379.3 L980.195 1371.43 Q985.519 1365.92 994.685 1356.66 Q1003.9 1347.35 1006.26 1344.67 Q1010.75 1339.62 1012.51 1336.15 Q1014.32 1332.63 1014.32 1329.25 Q1014.32 1323.74 1010.43 1320.27 Q1006.58 1316.8 1000.38 1316.8 Q995.982 1316.8 991.074 1318.32 Q986.213 1319.85 980.658 1322.95 L980.658 1313.51 Q986.306 1311.24 991.213 1310.08 Q996.121 1308.93 1000.19 1308.93 Q1010.94 1308.93 1017.32 1314.3 Q1023.71 1319.67 1023.71 1328.65 Q1023.71 1332.91 1022.09 1336.75 Q1020.52 1340.55 1016.31 1345.73 Q1015.15 1347.07 1008.94 1353.51 Q1002.74 1359.9 991.445 1371.43 Z" fill="#000000" fill-rule="nonzero" fill-opacity="1" /><path clip-path="url(#clip800)" d="M1147.71 1316.33 Q1140.49 1316.33 1136.83 1323.46 Q1133.22 1330.55 1133.22 1344.81 Q1133.22 1359.02 1136.83 1366.15 Q1140.49 1373.23 1147.71 1373.23 Q1154.98 1373.23 1158.59 1366.15 Q1162.25 1359.02 1162.25 1344.81 Q1162.25 1330.55 1158.59 1323.46 Q1154.98 1316.33 1147.71 1316.33 M1147.71 1308.93 Q1159.33 1308.93 1165.44 1318.14 Q1171.6 1327.31 1171.6 1344.81 Q1171.6 1362.26 1165.44 1371.47 Q1159.33 1380.64 1147.71 1380.64 Q1136.09 1380.64 1129.93 1371.47 Q1123.82 1362.26 1123.82 1344.81 Q1123.82 1327.31 1129.93 1318.14 Q1136.09 1308.93 1147.71 1308.93 Z" fill="#000000" fill-rule="nonzero" fill-opacity="1" /><path clip-path="url(#clip800)" d="M1188.03 1367.54 L1197.8 1367.54 L1197.8 1379.3 L1188.03 1379.3 L1188.03 1367.54 Z" fill="#000000" fill-rule="nonzero" fill-opacity="1" /><path clip-path="url(#clip800)" d="M1243.87 1318.32 L1220.26 1355.22 L1243.87 1355.22 L1243.87 1318.32 M1241.41 1310.18 L1253.17 1310.18 L1253.17 1355.22 L1263.03 1355.22 L1263.03 1363 L1253.17 1363 L1253.17 1379.3 L1243.87 1379.3 L1243.87 1363 L1212.66 1363 L1212.66 1353.97 L1241.41 1310.18 Z" fill="#000000" fill-rule="nonzero" fill-opacity="1" /><path clip-path="url(#clip800)" d="M1384.9 1316.33 Q1377.68 1316.33 1374.02 1323.46 Q1370.41 1330.55 1370.41 1344.81 Q1370.41 1359.02 1374.02 1366.15 Q1377.68 1373.23 1384.9 1373.23 Q1392.17 1373.23 1395.78 1366.15 Q1399.44 1359.02 1399.44 1344.81 Q1399.44 1330.55 1395.78 1323.46 Q1392.17 1316.33 1384.9 1316.33 M1384.9 1308.93 Q1396.52 1308.93 1402.63 1318.14 Q1408.79 1327.31 1408.79 1344.81 Q1408.79 1362.26 1402.63 1371.47 Q1396.52 1380.64 1384.9 1380.64 Q1373.28 1380.64 1367.12 1371.47 Q1361.01 1362.26 1361.01 1344.81 Q1361.01 1327.31 1367.12 1318.14 Q1373.28 1308.93 1384.9 1308.93 Z" fill="#000000" fill-rule="nonzero" fill-opacity="1" /><path clip-path="url(#clip800)" d="M1425.22 1367.54 L1434.99 1367.54 L1434.99 1379.3 L1425.22 1379.3 L1425.22 1367.54 Z" fill="#000000" fill-rule="nonzero" fill-opacity="1" /><path clip-path="url(#clip800)" d="M1476.52 1341.01 Q1470.22 1341.01 1466.52 1345.31 Q1462.86 1349.62 1462.86 1357.12 Q1462.86 1364.57 1466.52 1368.93 Q1470.22 1373.23 1476.52 1373.23 Q1482.82 1373.23 1486.47 1368.93 Q1490.18 1364.57 1490.18 1357.12 Q1490.18 1349.62 1486.47 1345.31 Q1482.82 1341.01 1476.52 1341.01 M1495.08 1311.7 L1495.08 1320.22 Q1491.57 1318.56 1487.95 1317.68 Q1484.39 1316.8 1480.87 1316.8 Q1471.61 1316.8 1466.7 1323.05 Q1461.84 1329.3 1461.15 1341.93 Q1463.88 1337.91 1468 1335.78 Q1472.12 1333.6 1477.07 1333.6 Q1487.49 1333.6 1493.51 1339.94 Q1499.57 1346.24 1499.57 1357.12 Q1499.57 1367.77 1493.28 1374.2 Q1486.98 1380.64 1476.52 1380.64 Q1464.53 1380.64 1458.19 1371.47 Q1451.84 1362.26 1451.84 1344.81 Q1451.84 1328.42 1459.62 1318.69 Q1467.4 1308.93 1480.5 1308.93 Q1484.02 1308.93 1487.58 1309.62 Q1491.19 1310.31 1495.08 1311.7 Z" fill="#000000" fill-rule="nonzero" fill-opacity="1" /><path clip-path="url(#clip800)" d="M1622.02 1316.33 Q1614.8 1316.33 1611.14 1323.46 Q1607.53 1330.55 1607.53 1344.81 Q1607.53 1359.02 1611.14 1366.15 Q1614.8 1373.23 1622.02 1373.23 Q1629.29 1373.23 1632.9 1366.15 Q1636.56 1359.02 1636.56 1344.81 Q1636.56 1330.55 1632.9 1323.46 Q1629.29 1316.33 1622.02 1316.33 M1622.02 1308.93 Q1633.64 1308.93 1639.75 1318.14 Q1645.91 1327.31 1645.91 1344.81 Q1645.91 1362.26 1639.75 1371.47 Q1633.64 1380.64 1622.02 1380.64 Q1610.4 1380.64 1604.24 1371.47 Q1598.13 1362.26 1598.13 1344.81 Q1598.13 1327.31 1604.24 1318.14 Q1610.4 1308.93 1622.02 1308.93 Z" fill="#000000" fill-rule="nonzero" fill-opacity="1" /><path clip-path="url(#clip800)" d="M1662.34 1367.54 L1672.11 1367.54 L1672.11 1379.3 L1662.34 1379.3 L1662.34 1367.54 Z" fill="#000000" fill-rule="nonzero" fill-opacity="1" /><path clip-path="url(#clip800)" d="M1712.48 1346.47 Q1705.82 1346.47 1701.97 1350.04 Q1698.18 1353.6 1698.18 1359.85 Q1698.18 1366.1 1701.97 1369.67 Q1705.82 1373.23 1712.48 1373.23 Q1719.15 1373.23 1722.99 1369.67 Q1726.83 1366.06 1726.83 1359.85 Q1726.83 1353.6 1722.99 1350.04 Q1719.2 1346.47 1712.48 1346.47 M1703.13 1342.49 Q1697.11 1341.01 1693.73 1336.89 Q1690.4 1332.77 1690.4 1326.84 Q1690.4 1318.56 1696.28 1313.74 Q1702.2 1308.93 1712.48 1308.93 Q1722.81 1308.93 1728.69 1313.74 Q1734.57 1318.56 1734.57 1326.84 Q1734.57 1332.77 1731.19 1336.89 Q1727.85 1341.01 1721.88 1342.49 Q1728.64 1344.06 1732.39 1348.65 Q1736.19 1353.23 1736.19 1359.85 Q1736.19 1369.9 1730.03 1375.27 Q1723.92 1380.64 1712.48 1380.64 Q1701.05 1380.64 1694.89 1375.27 Q1688.78 1369.9 1688.78 1359.85 Q1688.78 1353.23 1692.57 1348.65 Q1696.37 1344.06 1703.13 1342.49 M1699.7 1327.72 Q1699.7 1333.09 1703.04 1336.1 Q1706.42 1339.11 1712.48 1339.11 Q1718.5 1339.11 1721.88 1336.1 Q1725.31 1333.09 1725.31 1327.72 Q1725.31 1322.35 1721.88 1319.34 Q1718.5 1316.33 1712.48 1316.33 Q1706.42 1316.33 1703.04 1319.34 Q1699.7 1322.35 1699.7 1327.72 Z" fill="#000000" fill-rule="nonzero" fill-opacity="1" /><path clip-path="url(#clip800)" d="M1838.33 1371.43 L1853.61 1371.43 L1853.61 1318.69 L1836.99 1322.03 L1836.99 1313.51 L1853.52 1310.18 L1862.87 1310.18 L1862.87 1371.43 L1878.14 1371.43 L1878.14 1379.3 L1838.33 1379.3 L1838.33 1371.43 Z" fill="#000000" fill-rule="nonzero" fill-opacity="1" /><path clip-path="url(#clip800)" d="M1897.03 1367.54 L1906.8 1367.54 L1906.8 1379.3 L1897.03 1379.3 L1897.03 1367.54 Z" fill="#000000" fill-rule="nonzero" fill-opacity="1" /><path clip-path="url(#clip800)" d="M1947.17 1316.33 Q1939.95 1316.33 1936.29 1323.46 Q1932.68 1330.55 1932.68 1344.81 Q1932.68 1359.02 1936.29 1366.15 Q1939.95 1373.23 1947.17 1373.23 Q1954.44 1373.23 1958.05 1366.15 Q1961.71 1359.02 1961.71 1344.81 Q1961.71 1330.55 1958.05 1323.46 Q1954.44 1316.33 1947.17 1316.33 M1947.17 1308.93 Q1958.79 1308.93 1964.9 1318.14 Q1971.06 1327.31 1971.06 1344.81 Q1971.06 1362.26 1964.9 1371.47 Q1958.79 1380.64 1947.17 1380.64 Q1935.55 1380.64 1929.39 1371.47 Q1923.28 1362.26 1923.28 1344.81 Q1923.28 1327.31 1929.39 1318.14 Q1935.55 1308.93 1947.17 1308.93 Z" fill="#000000" fill-rule="nonzero" fill-opacity="1" /><path clip-path="url(#clip800)" d="M2076.79 1371.43 L2092.07 1371.43 L2092.07 1318.69 L2075.45 1322.03 L2075.45 1313.51 L2091.98 1310.18 L2101.33 1310.18 L2101.33 1371.43 L2116.61 1371.43 L2116.61 1379.3 L2076.79 1379.3 L2076.79 1371.43 Z" fill="#000000" fill-rule="nonzero" fill-opacity="1" /><path clip-path="url(#clip800)" d="M2135.5 1367.54 L2145.27 1367.54 L2145.27 1379.3 L2135.5 1379.3 L2135.5 1367.54 Z" fill="#000000" fill-rule="nonzero" fill-opacity="1" /><path clip-path="url(#clip800)" d="M2173.69 1371.43 L2206.33 1371.43 L2206.33 1379.3 L2162.44 1379.3 L2162.44 1371.43 Q2167.76 1365.92 2176.93 1356.66 Q2186.14 1347.35 2188.51 1344.67 Q2193 1339.62 2194.76 1336.15 Q2196.56 1332.63 2196.56 1329.25 Q2196.56 1323.74 2192.67 1320.27 Q2188.83 1316.8 2182.63 1316.8 Q2178.23 1316.8 2173.32 1318.32 Q2168.46 1319.85 2162.9 1322.95 L2162.9 1313.51 Q2168.55 1311.24 2173.46 1310.08 Q2178.37 1308.93 2182.44 1308.93 Q2193.18 1308.93 2199.57 1314.3 Q2205.96 1319.67 2205.96 1328.65 Q2205.96 1332.91 2204.34 1336.75 Q2202.76 1340.55 2198.55 1345.73 Q2197.39 1347.07 2191.19 1353.51 Q2184.99 1359.9 2173.69 1371.43 Z" fill="#000000" fill-rule="nonzero" fill-opacity="1" /><path clip-path="url(#clip800)" d="M1375.05 1484.39 L1375.05 1527.42 L1363.34 1527.42 L1363.34 1484.77 Q1363.34 1474.65 1359.39 1469.62 Q1355.45 1464.59 1347.55 1464.59 Q1338.07 1464.59 1332.59 1470.64 Q1327.12 1476.69 1327.12 1487.13 L1327.12 1527.42 L1315.34 1527.42 L1315.34 1428.37 L1327.12 1428.37 L1327.12 1467.2 Q1331.32 1460.77 1336.99 1457.59 Q1342.72 1454.41 1350.16 1454.41 Q1362.45 1454.41 1368.75 1462.05 Q1375.05 1469.62 1375.05 1484.39 Z" fill="#000000" fill-rule="nonzero" fill-opacity="1" /><path clip-path="url(#clip800)" d="M1426.04 1464.34 Q1416.62 1464.34 1411.15 1471.72 Q1405.67 1479.04 1405.67 1491.84 Q1405.67 1504.63 1411.08 1512.02 Q1416.56 1519.34 1426.04 1519.34 Q1435.4 1519.34 1440.87 1511.96 Q1446.35 1504.57 1446.35 1491.84 Q1446.35 1479.17 1440.87 1471.79 Q1435.4 1464.34 1426.04 1464.34 M1426.04 1454.41 Q1441.32 1454.41 1450.04 1464.34 Q1458.76 1474.27 1458.76 1491.84 Q1458.76 1509.35 1450.04 1519.34 Q1441.32 1529.27 1426.04 1529.27 Q1410.7 1529.27 1401.98 1519.34 Q1393.32 1509.35 1393.32 1491.84 Q1393.32 1474.27 1401.98 1464.34 Q1410.7 1454.41 1426.04 1454.41 Z" fill="#000000" fill-rule="nonzero" fill-opacity="1" /><path clip-path="url(#clip800)" d="M1476.97 1499.29 L1476.97 1456.13 L1488.68 1456.13 L1488.68 1498.84 Q1488.68 1508.96 1492.63 1514.06 Q1496.57 1519.08 1504.47 1519.08 Q1513.95 1519.08 1519.43 1513.04 Q1524.97 1506.99 1524.97 1496.55 L1524.97 1456.13 L1536.68 1456.13 L1536.68 1527.42 L1524.97 1527.42 L1524.97 1516.47 Q1520.7 1522.97 1515.04 1526.15 Q1509.43 1529.27 1501.99 1529.27 Q1489.7 1529.27 1483.33 1521.63 Q1476.97 1513.99 1476.97 1499.29 M1506.44 1454.41 L1506.44 1454.41 Z" fill="#000000" fill-rule="nonzero" fill-opacity="1" /><path clip-path="url(#clip800)" d="M1602.12 1467.08 Q1600.14 1465.93 1597.79 1465.42 Q1595.5 1464.85 1592.7 1464.85 Q1582.77 1464.85 1577.42 1471.34 Q1572.14 1477.77 1572.14 1489.87 L1572.14 1527.42 L1560.36 1527.42 L1560.36 1456.13 L1572.14 1456.13 L1572.14 1467.2 Q1575.83 1460.71 1581.75 1457.59 Q1587.67 1454.41 1596.13 1454.41 Q1597.34 1454.41 1598.81 1454.6 Q1600.27 1454.73 1602.05 1455.05 L1602.12 1467.08 Z" fill="#000000" fill-rule="nonzero" fill-opacity="1" /><path clip-path="url(#clip800)" d="M1659.86 1458.23 L1659.86 1469.3 Q1654.89 1466.76 1649.54 1465.49 Q1644.2 1464.21 1638.47 1464.21 Q1629.75 1464.21 1625.35 1466.89 Q1621.02 1469.56 1621.02 1474.91 Q1621.02 1478.98 1624.14 1481.34 Q1627.26 1483.63 1636.68 1485.73 L1640.69 1486.62 Q1653.17 1489.29 1658.39 1494.19 Q1663.67 1499.03 1663.67 1507.75 Q1663.67 1517.68 1655.78 1523.48 Q1647.95 1529.27 1634.2 1529.27 Q1628.47 1529.27 1622.23 1528.12 Q1616.06 1527.04 1609.18 1524.81 L1609.18 1512.72 Q1615.68 1516.09 1621.98 1517.81 Q1628.28 1519.47 1634.46 1519.47 Q1642.73 1519.47 1647.19 1516.67 Q1651.64 1513.8 1651.64 1508.64 Q1651.64 1503.87 1648.4 1501.32 Q1645.21 1498.78 1634.33 1496.42 L1630.25 1495.47 Q1619.37 1493.18 1614.53 1488.47 Q1609.69 1483.69 1609.69 1475.42 Q1609.69 1465.36 1616.82 1459.88 Q1623.95 1454.41 1637.07 1454.41 Q1643.56 1454.41 1649.29 1455.36 Q1655.02 1456.32 1659.86 1458.23 Z" fill="#000000" fill-rule="nonzero" fill-opacity="1" /><polyline clip-path="url(#clip802)" style="stroke:#000000; stroke-linecap:round; stroke-linejoin:round; stroke-width:4; stroke-opacity:0.1; fill:none" points="673.506,1059.91 2305.51,1059.91 "/>
<polyline clip-path="url(#clip802)" style="stroke:#000000; stroke-linecap:round; stroke-linejoin:round; stroke-width:4; stroke-opacity:0.1; fill:none" points="673.506,808.552 2305.51,808.552 "/>
<polyline clip-path="url(#clip802)" style="stroke:#000000; stroke-linecap:round; stroke-linejoin:round; stroke-width:4; stroke-opacity:0.1; fill:none" points="673.506,557.191 2305.51,557.191 "/>
<polyline clip-path="url(#clip802)" style="stroke:#000000; stroke-linecap:round; stroke-linejoin:round; stroke-width:4; stroke-opacity:0.1; fill:none" points="673.506,305.831 2305.51,305.831 "/>
<polyline clip-path="url(#clip800)" style="stroke:#000000; stroke-linecap:round; stroke-linejoin:round; stroke-width:8; stroke-opacity:1; fill:none" points="673.506,1273.7 673.506,94.4882 "/>
<polyline clip-path="url(#clip800)" style="stroke:#000000; stroke-linecap:round; stroke-linejoin:round; stroke-width:8; stroke-opacity:1; fill:none" points="673.506,1059.91 692.404,1059.91 "/>
<polyline clip-path="url(#clip800)" style="stroke:#000000; stroke-linecap:round; stroke-linejoin:round; stroke-width:8; stroke-opacity:1; fill:none" points="673.506,808.552 692.404,808.552 "/>
<polyline clip-path="url(#clip800)" style="stroke:#000000; stroke-linecap:round; stroke-linejoin:round; stroke-width:8; stroke-opacity:1; fill:none" points="673.506,557.191 692.404,557.191 "/>
<polyline clip-path="url(#clip800)" style="stroke:#000000; stroke-linecap:round; stroke-linejoin:round; stroke-width:8; stroke-opacity:1; fill:none" points="673.506,305.831 692.404,305.831 "/>
<path clip-path="url(#clip800)" d="M384.128 1086.6 L399.405 1086.6 L399.405 1033.87 L382.785 1037.2 L382.785 1028.69 L399.313 1025.35 L408.665 1025.35 L408.665 1086.6 L423.942 1086.6 L423.942 1094.47 L384.128 1094.47 L384.128 1086.6 Z" fill="#000000" fill-rule="nonzero" fill-opacity="1" /><path clip-path="url(#clip800)" d="M462.831 1031.51 Q455.609 1031.51 451.951 1038.64 Q448.34 1045.72 448.34 1059.98 Q448.34 1074.19 451.951 1081.32 Q455.609 1088.41 462.831 1088.41 Q470.099 1088.41 473.711 1081.32 Q477.368 1074.19 477.368 1059.98 Q477.368 1045.72 473.711 1038.64 Q470.099 1031.51 462.831 1031.51 M462.831 1024.1 Q474.451 1024.1 480.562 1033.32 Q486.72 1042.48 486.72 1059.98 Q486.72 1077.44 480.562 1086.65 Q474.451 1095.82 462.831 1095.82 Q451.211 1095.82 445.053 1086.65 Q438.942 1077.44 438.942 1059.98 Q438.942 1042.48 445.053 1033.32 Q451.211 1024.1 462.831 1024.1 Z" fill="#000000" fill-rule="nonzero" fill-opacity="1" /><path clip-path="url(#clip800)" d="M523.155 1031.51 Q515.933 1031.51 512.275 1038.64 Q508.664 1045.72 508.664 1059.98 Q508.664 1074.19 512.275 1081.32 Q515.933 1088.41 523.155 1088.41 Q530.423 1088.41 534.034 1081.32 Q537.692 1074.19 537.692 1059.98 Q537.692 1045.72 534.034 1038.64 Q530.423 1031.51 523.155 1031.51 M523.155 1024.1 Q534.775 1024.1 540.886 1033.32 Q547.043 1042.48 547.043 1059.98 Q547.043 1077.44 540.886 1086.65 Q534.775 1095.82 523.155 1095.82 Q511.534 1095.82 505.377 1086.65 Q499.266 1077.44 499.266 1059.98 Q499.266 1042.48 505.377 1033.32 Q511.534 1024.1 523.155 1024.1 Z" fill="#000000" fill-rule="nonzero" fill-opacity="1" /><path clip-path="url(#clip800)" d="M563.479 1082.71 L573.247 1082.71 L573.247 1094.47 L563.479 1094.47 L563.479 1082.71 Z" fill="#000000" fill-rule="nonzero" fill-opacity="1" /><path clip-path="url(#clip800)" d="M613.617 1031.51 Q606.395 1031.51 602.738 1038.64 Q599.127 1045.72 599.127 1059.98 Q599.127 1074.19 602.738 1081.32 Q606.395 1088.41 613.617 1088.41 Q620.886 1088.41 624.497 1081.32 Q628.154 1074.19 628.154 1059.98 Q628.154 1045.72 624.497 1038.64 Q620.886 1031.51 613.617 1031.51 M613.617 1024.1 Q625.238 1024.1 631.349 1033.32 Q637.506 1042.48 637.506 1059.98 Q637.506 1077.44 631.349 1086.65 Q625.238 1095.82 613.617 1095.82 Q601.997 1095.82 595.84 1086.65 Q589.728 1077.44 589.728 1059.98 Q589.728 1042.48 595.84 1033.32 Q601.997 1024.1 613.617 1024.1 Z" fill="#000000" fill-rule="nonzero" fill-opacity="1" /><path clip-path="url(#clip800)" d="M384.128 835.242 L399.405 835.242 L399.405 782.51 L382.785 785.844 L382.785 777.325 L399.313 773.992 L408.665 773.992 L408.665 835.242 L423.942 835.242 L423.942 843.112 L384.128 843.112 L384.128 835.242 Z" fill="#000000" fill-rule="nonzero" fill-opacity="1" /><path clip-path="url(#clip800)" d="M450.887 835.242 L483.525 835.242 L483.525 843.112 L439.637 843.112 L439.637 835.242 Q444.961 829.732 454.127 820.473 Q463.34 811.168 465.701 808.482 Q470.192 803.436 471.951 799.964 Q473.757 796.445 473.757 793.066 Q473.757 787.557 469.868 784.084 Q466.025 780.612 459.822 780.612 Q455.424 780.612 450.516 782.14 Q445.655 783.668 440.1 786.77 L440.1 777.325 Q445.748 775.057 450.655 773.899 Q455.562 772.742 459.637 772.742 Q470.377 772.742 476.766 778.112 Q483.155 783.483 483.155 792.464 Q483.155 796.723 481.535 800.566 Q479.961 804.362 475.748 809.547 Q474.59 810.89 468.387 817.325 Q462.183 823.714 450.887 835.242 Z" fill="#000000" fill-rule="nonzero" fill-opacity="1" /><path clip-path="url(#clip800)" d="M523.155 780.149 Q515.933 780.149 512.275 787.279 Q508.664 794.362 508.664 808.621 Q508.664 822.834 512.275 829.964 Q515.933 837.047 523.155 837.047 Q530.423 837.047 534.034 829.964 Q537.692 822.834 537.692 808.621 Q537.692 794.362 534.034 787.279 Q530.423 780.149 523.155 780.149 M523.155 772.742 Q534.775 772.742 540.886 781.955 Q547.043 791.121 547.043 808.621 Q547.043 826.075 540.886 835.288 Q534.775 844.454 523.155 844.454 Q511.534 844.454 505.377 835.288 Q499.266 826.075 499.266 808.621 Q499.266 791.121 505.377 781.955 Q511.534 772.742 523.155 772.742 Z" fill="#000000" fill-rule="nonzero" fill-opacity="1" /><path clip-path="url(#clip800)" d="M563.479 831.353 L573.247 831.353 L573.247 843.112 L563.479 843.112 L563.479 831.353 Z" fill="#000000" fill-rule="nonzero" fill-opacity="1" /><path clip-path="url(#clip800)" d="M613.617 780.149 Q606.395 780.149 602.738 787.279 Q599.127 794.362 599.127 808.621 Q599.127 822.834 602.738 829.964 Q606.395 837.047 613.617 837.047 Q620.886 837.047 624.497 829.964 Q628.154 822.834 628.154 808.621 Q628.154 794.362 624.497 787.279 Q620.886 780.149 613.617 780.149 M613.617 772.742 Q625.238 772.742 631.349 781.955 Q637.506 791.121 637.506 808.621 Q637.506 826.075 631.349 835.288 Q625.238 844.454 613.617 844.454 Q601.997 844.454 595.84 835.288 Q589.728 826.075 589.728 808.621 Q589.728 791.121 595.84 781.955 Q601.997 772.742 613.617 772.742 Z" fill="#000000" fill-rule="nonzero" fill-opacity="1" /><path clip-path="url(#clip800)" d="M384.128 583.881 L399.405 583.881 L399.405 531.15 L382.785 534.483 L382.785 525.965 L399.313 522.631 L408.665 522.631 L408.665 583.881 L423.942 583.881 L423.942 591.751 L384.128 591.751 L384.128 583.881 Z" fill="#000000" fill-rule="nonzero" fill-opacity="1" /><path clip-path="url(#clip800)" d="M468.525 530.779 L444.914 567.677 L468.525 567.677 L468.525 530.779 M466.072 522.631 L477.831 522.631 L477.831 567.677 L487.692 567.677 L487.692 575.455 L477.831 575.455 L477.831 591.751 L468.525 591.751 L468.525 575.455 L437.322 575.455 L437.322 566.427 L466.072 522.631 Z" fill="#000000" fill-rule="nonzero" fill-opacity="1" /><path clip-path="url(#clip800)" d="M523.155 528.789 Q515.933 528.789 512.275 535.918 Q508.664 543.002 508.664 557.261 Q508.664 571.474 512.275 578.603 Q515.933 585.687 523.155 585.687 Q530.423 585.687 534.034 578.603 Q537.692 571.474 537.692 557.261 Q537.692 543.002 534.034 535.918 Q530.423 528.789 523.155 528.789 M523.155 521.381 Q534.775 521.381 540.886 530.594 Q547.043 539.761 547.043 557.261 Q547.043 574.714 540.886 583.927 Q534.775 593.094 523.155 593.094 Q511.534 593.094 505.377 583.927 Q499.266 574.714 499.266 557.261 Q499.266 539.761 505.377 530.594 Q511.534 521.381 523.155 521.381 Z" fill="#000000" fill-rule="nonzero" fill-opacity="1" /><path clip-path="url(#clip800)" d="M563.479 579.992 L573.247 579.992 L573.247 591.751 L563.479 591.751 L563.479 579.992 Z" fill="#000000" fill-rule="nonzero" fill-opacity="1" /><path clip-path="url(#clip800)" d="M613.617 528.789 Q606.395 528.789 602.738 535.918 Q599.127 543.002 599.127 557.261 Q599.127 571.474 602.738 578.603 Q606.395 585.687 613.617 585.687 Q620.886 585.687 624.497 578.603 Q628.154 571.474 628.154 557.261 Q628.154 543.002 624.497 535.918 Q620.886 528.789 613.617 528.789 M613.617 521.381 Q625.238 521.381 631.349 530.594 Q637.506 539.761 637.506 557.261 Q637.506 574.714 631.349 583.927 Q625.238 593.094 613.617 593.094 Q601.997 593.094 595.84 583.927 Q589.728 574.714 589.728 557.261 Q589.728 539.761 595.84 530.594 Q601.997 521.381 613.617 521.381 Z" fill="#000000" fill-rule="nonzero" fill-opacity="1" /><path clip-path="url(#clip800)" d="M384.128 332.52 L399.405 332.52 L399.405 279.789 L382.785 283.123 L382.785 274.604 L399.313 271.271 L408.665 271.271 L408.665 332.52 L423.942 332.52 L423.942 340.391 L384.128 340.391 L384.128 332.52 Z" fill="#000000" fill-rule="nonzero" fill-opacity="1" /><path clip-path="url(#clip800)" d="M463.988 302.104 Q457.692 302.104 453.988 306.409 Q450.331 310.715 450.331 318.215 Q450.331 325.669 453.988 330.02 Q457.692 334.326 463.988 334.326 Q470.285 334.326 473.942 330.02 Q477.646 325.669 477.646 318.215 Q477.646 310.715 473.942 306.409 Q470.285 302.104 463.988 302.104 M482.553 272.799 L482.553 281.317 Q479.035 279.65 475.424 278.771 Q471.859 277.891 468.34 277.891 Q459.081 277.891 454.174 284.141 Q449.313 290.391 448.618 303.03 Q451.35 299.002 455.47 296.872 Q459.59 294.697 464.544 294.697 Q474.961 294.697 480.979 301.039 Q487.044 307.335 487.044 318.215 Q487.044 328.863 480.748 335.298 Q474.451 341.733 463.988 341.733 Q451.998 341.733 445.655 332.567 Q439.313 323.354 439.313 305.9 Q439.313 289.511 447.09 279.789 Q454.868 270.021 467.97 270.021 Q471.488 270.021 475.053 270.715 Q478.664 271.41 482.553 272.799 Z" fill="#000000" fill-rule="nonzero" fill-opacity="1" /><path clip-path="url(#clip800)" d="M523.155 277.428 Q515.933 277.428 512.275 284.558 Q508.664 291.641 508.664 305.9 Q508.664 320.113 512.275 327.243 Q515.933 334.326 523.155 334.326 Q530.423 334.326 534.034 327.243 Q537.692 320.113 537.692 305.9 Q537.692 291.641 534.034 284.558 Q530.423 277.428 523.155 277.428 M523.155 270.021 Q534.775 270.021 540.886 279.234 Q547.043 288.4 547.043 305.9 Q547.043 323.354 540.886 332.567 Q534.775 341.733 523.155 341.733 Q511.534 341.733 505.377 332.567 Q499.266 323.354 499.266 305.9 Q499.266 288.4 505.377 279.234 Q511.534 270.021 523.155 270.021 Z" fill="#000000" fill-rule="nonzero" fill-opacity="1" /><path clip-path="url(#clip800)" d="M563.479 328.632 L573.247 328.632 L573.247 340.391 L563.479 340.391 L563.479 328.632 Z" fill="#000000" fill-rule="nonzero" fill-opacity="1" /><path clip-path="url(#clip800)" d="M613.617 277.428 Q606.395 277.428 602.738 284.558 Q599.127 291.641 599.127 305.9 Q599.127 320.113 602.738 327.243 Q606.395 334.326 613.617 334.326 Q620.886 334.326 624.497 327.243 Q628.154 320.113 628.154 305.9 Q628.154 291.641 624.497 284.558 Q620.886 277.428 613.617 277.428 M613.617 270.021 Q625.238 270.021 631.349 279.234 Q637.506 288.4 637.506 305.9 Q637.506 323.354 631.349 332.567 Q625.238 341.733 613.617 341.733 Q601.997 341.733 595.84 332.567 Q589.728 323.354 589.728 305.9 Q589.728 288.4 595.84 279.234 Q601.997 270.021 613.617 270.021 Z" fill="#000000" fill-rule="nonzero" fill-opacity="1" /><path clip-path="url(#clip800)" d="M307.579 930.89 L345.391 930.89 L345.391 942.667 L246.977 942.667 L246.977 930.89 L257.799 930.89 Q251.433 927.198 248.378 921.596 Q245.258 915.931 245.258 908.101 Q245.258 895.115 255.571 887.031 Q265.883 878.883 282.689 878.883 Q299.494 878.883 309.807 887.031 Q320.119 895.115 320.119 908.101 Q320.119 915.931 317.064 921.596 Q313.944 927.198 307.579 930.89 M282.689 891.041 Q269.766 891.041 262.446 896.388 Q255.062 901.672 255.062 910.966 Q255.062 920.26 262.446 925.607 Q269.766 930.89 282.689 930.89 Q295.611 930.89 302.995 925.607 Q310.316 920.26 310.316 910.966 Q310.316 901.672 302.995 896.388 Q295.611 891.041 282.689 891.041 Z" fill="#000000" fill-rule="nonzero" fill-opacity="1" /><path clip-path="url(#clip800)" d="M282.434 827.066 Q282.434 841.261 285.681 846.736 Q288.927 852.21 296.757 852.21 Q302.995 852.21 306.688 848.136 Q310.316 843.999 310.316 836.933 Q310.316 827.193 303.441 821.337 Q296.502 815.416 285.044 815.416 L282.434 815.416 L282.434 827.066 M277.596 803.704 L318.273 803.704 L318.273 815.416 L307.451 815.416 Q313.944 819.427 317.064 825.411 Q320.119 831.394 320.119 840.052 Q320.119 851.001 314.008 857.494 Q307.833 863.923 297.521 863.923 Q285.49 863.923 279.379 855.902 Q273.268 847.818 273.268 831.84 L273.268 815.416 L272.122 815.416 Q264.037 815.416 259.645 820.764 Q255.189 826.047 255.189 835.659 Q255.189 841.771 256.653 847.563 Q258.117 853.356 261.045 858.703 L250.224 858.703 Q247.741 852.274 246.532 846.227 Q245.258 840.179 245.258 834.45 Q245.258 818.981 253.279 811.342 Q261.3 803.704 277.596 803.704 Z" fill="#000000" fill-rule="nonzero" fill-opacity="1" /><path clip-path="url(#clip800)" d="M257.926 738.264 Q256.78 740.238 256.271 742.593 Q255.698 744.884 255.698 747.685 Q255.698 757.616 262.191 762.963 Q268.621 768.247 280.715 768.247 L318.273 768.247 L318.273 780.023 L246.977 780.023 L246.977 768.247 L258.054 768.247 Q251.561 764.555 248.441 758.634 Q245.258 752.714 245.258 744.248 Q245.258 743.038 245.449 741.574 Q245.577 740.11 245.895 738.328 L257.926 738.264 Z" fill="#000000" fill-rule="nonzero" fill-opacity="1" /><path clip-path="url(#clip800)" d="M279.697 667.859 L285.426 667.859 L285.426 721.713 Q297.521 720.949 303.887 714.456 Q310.189 707.9 310.189 696.25 Q310.189 689.503 308.534 683.201 Q306.878 676.835 303.568 670.597 L314.645 670.597 Q317.318 676.899 318.719 683.519 Q320.119 690.139 320.119 696.951 Q320.119 714.011 310.189 724.005 Q300.258 733.935 283.325 733.935 Q265.82 733.935 255.571 724.514 Q245.258 715.029 245.258 698.988 Q245.258 684.601 254.552 676.262 Q263.783 667.859 279.697 667.859 M276.259 679.572 Q266.647 679.7 260.918 684.983 Q255.189 690.203 255.189 698.86 Q255.189 708.664 260.727 714.584 Q266.265 720.44 276.323 721.331 L276.259 679.572 Z" fill="#000000" fill-rule="nonzero" fill-opacity="1" /><path clip-path="url(#clip800)" d="M275.241 589.37 L318.273 589.37 L318.273 601.083 L275.623 601.083 Q265.501 601.083 260.472 605.03 Q255.444 608.977 255.444 616.87 Q255.444 626.355 261.491 631.83 Q267.538 637.304 277.978 637.304 L318.273 637.304 L318.273 649.081 L246.977 649.081 L246.977 637.304 L258.054 637.304 Q251.624 633.103 248.441 627.437 Q245.258 621.708 245.258 614.26 Q245.258 601.974 252.897 595.672 Q260.472 589.37 275.241 589.37 Z" fill="#000000" fill-rule="nonzero" fill-opacity="1" /><path clip-path="url(#clip800)" d="M302.104 564.353 L302.104 550.921 L318.273 550.921 L318.273 564.353 L302.104 564.353 Z" fill="#000000" fill-rule="nonzero" fill-opacity="1" /><path clip-path="url(#clip800)" d="M307.451 470.395 L307.451 425.517 L318.273 425.517 L318.273 485.864 L307.451 485.864 Q299.876 478.543 287.145 465.939 Q274.35 453.271 270.658 450.025 Q263.719 443.85 258.945 441.431 Q254.107 438.949 249.46 438.949 Q241.885 438.949 237.11 444.296 Q232.336 449.579 232.336 458.109 Q232.336 464.157 234.437 470.904 Q236.537 477.588 240.802 485.227 L227.816 485.227 Q224.697 477.461 223.106 470.713 Q221.514 463.966 221.514 458.364 Q221.514 443.596 228.899 434.811 Q236.283 426.026 248.632 426.026 Q254.489 426.026 259.772 428.254 Q264.992 430.419 272.122 436.211 Q273.968 437.803 282.816 446.333 Q291.601 454.863 307.451 470.395 Z" fill="#000000" fill-rule="nonzero" fill-opacity="1" /><polyline clip-path="url(#clip802)" style="stroke:#008000; stroke-linecap:round; stroke-linejoin:round; stroke-width:8; stroke-opacity:1; fill:none" points="719.695,127.862 838.128,271.022 956.561,320.72 1074.99,504.434 1193.43,526.289 1311.86,725.669 1430.29,832.732 1548.73,743.145 1667.16,989.377 1785.59,1010.09 1904.02,934.206 2022.46,1149.68 2140.89,1213.47 2259.32,1240.32 "/>
<circle clip-path="url(#clip802)" cx="719.695" cy="127.862" r="14.4" fill="#008000" fill-rule="evenodd" fill-opacity="1" stroke="#000000" stroke-opacity="1" stroke-width="6.4"/>
<circle clip-path="url(#clip802)" cx="838.128" cy="271.022" r="14.4" fill="#008000" fill-rule="evenodd" fill-opacity="1" stroke="#000000" stroke-opacity="1" stroke-width="6.4"/>
<circle clip-path="url(#clip802)" cx="956.561" cy="320.72" r="14.4" fill="#008000" fill-rule="evenodd" fill-opacity="1" stroke="#000000" stroke-opacity="1" stroke-width="6.4"/>
<circle clip-path="url(#clip802)" cx="1074.99" cy="504.434" r="14.4" fill="#008000" fill-rule="evenodd" fill-opacity="1" stroke="#000000" stroke-opacity="1" stroke-width="6.4"/>
<circle clip-path="url(#clip802)" cx="1193.43" cy="526.289" r="14.4" fill="#008000" fill-rule="evenodd" fill-opacity="1" stroke="#000000" stroke-opacity="1" stroke-width="6.4"/>
<circle clip-path="url(#clip802)" cx="1311.86" cy="725.669" r="14.4" fill="#008000" fill-rule="evenodd" fill-opacity="1" stroke="#000000" stroke-opacity="1" stroke-width="6.4"/>
<circle clip-path="url(#clip802)" cx="1430.29" cy="832.732" r="14.4" fill="#008000" fill-rule="evenodd" fill-opacity="1" stroke="#000000" stroke-opacity="1" stroke-width="6.4"/>
<circle clip-path="url(#clip802)" cx="1548.73" cy="743.145" r="14.4" fill="#008000" fill-rule="evenodd" fill-opacity="1" stroke="#000000" stroke-opacity="1" stroke-width="6.4"/>
<circle clip-path="url(#clip802)" cx="1667.16" cy="989.377" r="14.4" fill="#008000" fill-rule="evenodd" fill-opacity="1" stroke="#000000" stroke-opacity="1" stroke-width="6.4"/>
<circle clip-path="url(#clip802)" cx="1785.59" cy="1010.09" r="14.4" fill="#008000" fill-rule="evenodd" fill-opacity="1" stroke="#000000" stroke-opacity="1" stroke-width="6.4"/>
<circle clip-path="url(#clip802)" cx="1904.02" cy="934.206" r="14.4" fill="#008000" fill-rule="evenodd" fill-opacity="1" stroke="#000000" stroke-opacity="1" stroke-width="6.4"/>
<circle clip-path="url(#clip802)" cx="2022.46" cy="1149.68" r="14.4" fill="#008000" fill-rule="evenodd" fill-opacity="1" stroke="#000000" stroke-opacity="1" stroke-width="6.4"/>
<circle clip-path="url(#clip802)" cx="2140.89" cy="1213.47" r="14.4" fill="#008000" fill-rule="evenodd" fill-opacity="1" stroke="#000000" stroke-opacity="1" stroke-width="6.4"/>
<circle clip-path="url(#clip802)" cx="2259.32" cy="1240.32" r="14.4" fill="#008000" fill-rule="evenodd" fill-opacity="1" stroke="#000000" stroke-opacity="1" stroke-width="6.4"/>
<polyline clip-path="url(#clip802)" style="stroke:#00008b; stroke-linecap:round; stroke-linejoin:round; stroke-width:8; stroke-opacity:1; fill:none" points="719.695,174.618 838.128,308.708 956.561,435.92 1074.99,544.78 1193.43,641.883 1311.86,731.609 1430.29,806.736 1548.73,879.624 1667.16,937.851 1785.59,998.089 1904.02,1047.91 2022.46,1095.16 2140.89,1139.65 2259.32,1177.69 "/>
<path clip-path="url(#clip802)" d="M719.695 211.761 L838.128 346.763 L956.561 472.429 L1074.99 583.603 L1193.43 678.432 L1311.86 768.377 L1430.29 843.349 L1548.73 918.305 L1667.16 973.232 L1785.59 1035.17 L1904.02 1084.75 L2022.46 1136.34 L2140.89 1179.56 L2259.32 1214.42 L2259.32 1138.89 L2140.89 1099.68 L2022.46 1056.35 L1904.02 1008.97 L1785.59 957.132 L1667.16 901.546 L1548.73 840.799 L1430.29 768.772 L1311.86 695.034 L1193.43 603.278 L1074.99 505.863 L956.561 398.263 L838.128 270.296 L719.695 139.084  Z" fill="#0000ff" fill-rule="evenodd" fill-opacity="0.1"/>
<polyline clip-path="url(#clip802)" style="stroke:#0000ff; stroke-linecap:round; stroke-linejoin:round; stroke-width:0; stroke-opacity:0.1; fill:none" points="719.695,211.761 838.128,346.763 956.561,472.429 1074.99,583.603 1193.43,678.432 1311.86,768.377 1430.29,843.349 1548.73,918.305 1667.16,973.232 1785.59,1035.17 1904.02,1084.75 2022.46,1136.34 2140.89,1179.56 2259.32,1214.42 "/>
</svg>
