<?xml version="1.0" encoding="utf-8"?>
<svg xmlns="http://www.w3.org/2000/svg" xmlns:xlink="http://www.w3.org/1999/xlink" width="600" height="400" viewBox="0 0 2400 1600">
<defs>
  <clipPath id="clip340">
    <rect x="0" y="0" width="2400" height="1600"/>
  </clipPath>
</defs>
<path clip-path="url(#clip340)" d="M0 1600 L2400 1600 L2400 0 L0 0  Z" fill="#ffffff" fill-rule="evenodd" fill-opacity="1"/>
<defs>
  <clipPath id="clip341">
    <rect x="480" y="0" width="1681" height="1600"/>
  </clipPath>
</defs>
<path clip-path="url(#clip340)" d="M1273.33 1082.2 L2305.51 1082.2 L2305.51 94.4882 L1273.33 94.4882  Z" fill="#ffffff" fill-rule="evenodd" fill-opacity="1"/>
<defs>
  <clipPath id="clip342">
    <rect x="1273" y="94" width="1033" height="989"/>
  </clipPath>
</defs>
<polyline clip-path="url(#clip342)" style="stroke:#000000; stroke-linecap:round; stroke-linejoin:round; stroke-width:4; stroke-opacity:0.1; fill:none" points="1302.55,1082.2 1302.55,94.4882 "/>
<polyline clip-path="url(#clip342)" style="stroke:#000000; stroke-linecap:round; stroke-linejoin:round; stroke-width:4; stroke-opacity:0.1; fill:none" points="1506.83,1082.2 1506.83,94.4882 "/>
<polyline clip-path="url(#clip342)" style="stroke:#000000; stroke-linecap:round; stroke-linejoin:round; stroke-width:4; stroke-opacity:0.1; fill:none" points="1711.11,1082.2 1711.11,94.4882 "/>
<polyline clip-path="url(#clip342)" style="stroke:#000000; stroke-linecap:round; stroke-linejoin:round; stroke-width:4; stroke-opacity:0.1; fill:none" points="1915.4,1082.2 1915.4,94.4882 "/>
<polyline clip-path="url(#clip342)" style="stroke:#000000; stroke-linecap:round; stroke-linejoin:round; stroke-width:4; stroke-opacity:0.1; fill:none" points="2119.68,1082.2 2119.68,94.4882 "/>
<polyline clip-path="url(#clip340)" style="stroke:#000000; stroke-linecap:round; stroke-linejoin:round; stroke-width:8; stroke-opacity:1; fill:none" points="1273.33,1082.2 2305.51,1082.2 "/>
<polyline clip-path="url(#clip340)" style="stroke:#000000; stroke-linecap:round; stroke-linejoin:round; stroke-width:8; stroke-opacity:1; fill:none" points="1302.55,1082.2 1302.55,1063.3 "/>
<polyline clip-path="url(#clip340)" style="stroke:#000000; stroke-linecap:round; stroke-linejoin:round; stroke-width:8; stroke-opacity:1; fill:none" points="1506.83,1082.2 1506.83,1063.3 "/>
<polyline clip-path="url(#clip340)" style="stroke:#000000; stroke-linecap:round; stroke-linejoin:round; stroke-width:8; stroke-opacity:1; fill:none" points="1711.11,1082.2 1711.11,1063.3 "/>
<polyline clip-path="url(#clip340)" style="stroke:#000000; stroke-linecap:round; stroke-linejoin:round; stroke-width:8; stroke-opacity:1; fill:none" points="1915.4,1082.2 1915.4,1063.3 "/>
<polyline clip-path="url(#clip340)" style="stroke:#000000; stroke-linecap:round; stroke-linejoin:round; stroke-width:8; stroke-opacity:1; fill:none" points="2119.68,1082.2 2119.68,1063.3 "/>
<path clip-path="url(#clip340)" d="M1257.31 1124.84 Q1250.09 1124.84 1246.44 1131.97 Q1242.82 1139.05 1242.82 1153.31 Q1242.82 1167.52 1246.44 1174.65 Q1250.09 1181.73 1257.31 1181.73 Q1264.58 1181.73 1268.19 1174.65 Q1271.85 1167.52 1271.85 1153.31 Q1271.85 1139.05 1268.19 1131.97 Q1264.58 1124.84 1257.31 1124.84 M1257.31 1117.43 Q1268.94 1117.43 1275.05 1126.64 Q1281.2 1135.81 1281.2 1153.31 Q1281.2 1170.76 1275.05 1179.98 Q1268.94 1189.14 1257.31 1189.14 Q1245.69 1189.14 1239.54 1179.98 Q1233.43 1170.76 1233.43 1153.31 Q1233.43 1135.81 1239.54 1126.64 Q1245.69 1117.43 1257.31 1117.43 Z" fill="#000000" fill-rule="nonzero" fill-opacity="1" /><path clip-path="url(#clip340)" d="M1297.64 1176.04 L1307.41 1176.04 L1307.41 1187.8 L1297.64 1187.8 L1297.64 1176.04 Z" fill="#000000" fill-rule="nonzero" fill-opacity="1" /><path clip-path="url(#clip340)" d="M1347.78 1124.84 Q1340.56 1124.84 1336.9 1131.97 Q1333.29 1139.05 1333.29 1153.31 Q1333.29 1167.52 1336.9 1174.65 Q1340.56 1181.73 1347.78 1181.73 Q1355.05 1181.73 1358.66 1174.65 Q1362.31 1167.52 1362.31 1153.31 Q1362.31 1139.05 1358.66 1131.97 Q1355.05 1124.84 1347.78 1124.84 M1347.78 1117.43 Q1359.4 1117.43 1365.51 1126.64 Q1371.67 1135.81 1371.67 1153.31 Q1371.67 1170.76 1365.51 1179.98 Q1359.4 1189.14 1347.78 1189.14 Q1336.16 1189.14 1330 1179.98 Q1323.89 1170.76 1323.89 1153.31 Q1323.89 1135.81 1330 1126.64 Q1336.16 1117.43 1347.78 1117.43 Z" fill="#000000" fill-rule="nonzero" fill-opacity="1" /><path clip-path="url(#clip340)" d="M1462.25 1124.84 Q1455.02 1124.84 1451.37 1131.97 Q1447.76 1139.05 1447.76 1153.31 Q1447.76 1167.52 1451.37 1174.65 Q1455.02 1181.73 1462.25 1181.73 Q1469.52 1181.73 1473.13 1174.65 Q1476.78 1167.52 1476.78 1153.31 Q1476.78 1139.05 1473.13 1131.97 Q1469.52 1124.84 1462.25 1124.84 M1462.25 1117.43 Q1473.87 1117.43 1479.98 1126.64 Q1486.14 1135.81 1486.14 1153.31 Q1486.14 1170.76 1479.98 1179.98 Q1473.87 1189.14 1462.25 1189.14 Q1450.63 1189.14 1444.47 1179.98 Q1438.36 1170.76 1438.36 1153.31 Q1438.36 1135.81 1444.47 1126.64 Q1450.63 1117.43 1462.25 1117.43 Z" fill="#000000" fill-rule="nonzero" fill-opacity="1" /><path clip-path="url(#clip340)" d="M1502.57 1176.04 L1512.34 1176.04 L1512.34 1187.8 L1502.57 1187.8 L1502.57 1176.04 Z" fill="#000000" fill-rule="nonzero" fill-opacity="1" /><path clip-path="url(#clip340)" d="M1561.04 1150.53 Q1567.76 1151.97 1571.51 1156.5 Q1575.3 1161.04 1575.3 1167.71 Q1575.3 1177.94 1568.26 1183.54 Q1561.23 1189.14 1548.26 1189.14 Q1543.91 1189.14 1539.28 1188.26 Q1534.7 1187.43 1529.79 1185.72 L1529.79 1176.69 Q1533.68 1178.96 1538.31 1180.11 Q1542.94 1181.27 1547.99 1181.27 Q1556.78 1181.27 1561.37 1177.8 Q1566 1174.33 1566 1167.71 Q1566 1161.6 1561.69 1158.17 Q1557.43 1154.7 1549.79 1154.7 L1541.74 1154.7 L1541.74 1147.01 L1550.16 1147.01 Q1557.06 1147.01 1560.72 1144.28 Q1564.38 1141.5 1564.38 1136.32 Q1564.38 1130.99 1560.58 1128.17 Q1556.83 1125.3 1549.79 1125.3 Q1545.95 1125.3 1541.55 1126.13 Q1537.15 1126.97 1531.88 1128.73 L1531.88 1120.39 Q1537.2 1118.91 1541.83 1118.17 Q1546.51 1117.43 1550.63 1117.43 Q1561.27 1117.43 1567.48 1122.29 Q1573.68 1127.11 1573.68 1135.35 Q1573.68 1141.09 1570.39 1145.07 Q1567.11 1149 1561.04 1150.53 Z" fill="#000000" fill-rule="nonzero" fill-opacity="1" /><path clip-path="url(#clip340)" d="M1665.72 1124.84 Q1658.5 1124.84 1654.84 1131.97 Q1651.23 1139.05 1651.23 1153.31 Q1651.23 1167.52 1654.84 1174.65 Q1658.5 1181.73 1665.72 1181.73 Q1672.99 1181.73 1676.6 1174.65 Q1680.26 1167.52 1680.26 1153.31 Q1680.26 1139.05 1676.6 1131.97 Q1672.99 1124.84 1665.72 1124.84 M1665.72 1117.43 Q1677.34 1117.43 1683.45 1126.64 Q1689.61 1135.81 1689.61 1153.31 Q1689.61 1170.76 1683.45 1179.98 Q1677.34 1189.14 1665.72 1189.14 Q1654.1 1189.14 1647.94 1179.98 Q1641.83 1170.76 1641.83 1153.31 Q1641.83 1135.81 1647.94 1126.64 Q1654.1 1117.43 1665.72 1117.43 Z" fill="#000000" fill-rule="nonzero" fill-opacity="1" /><path clip-path="url(#clip340)" d="M1706.04 1176.04 L1715.81 1176.04 L1715.81 1187.8 L1706.04 1187.8 L1706.04 1176.04 Z" fill="#000000" fill-rule="nonzero" fill-opacity="1" /><path clip-path="url(#clip340)" d="M1757.34 1149.51 Q1751.04 1149.51 1747.34 1153.82 Q1743.68 1158.12 1743.68 1165.62 Q1743.68 1173.08 1747.34 1177.43 Q1751.04 1181.73 1757.34 1181.73 Q1763.64 1181.73 1767.29 1177.43 Q1771 1173.08 1771 1165.62 Q1771 1158.12 1767.29 1153.82 Q1763.64 1149.51 1757.34 1149.51 M1775.91 1120.21 L1775.91 1128.73 Q1772.39 1127.06 1768.78 1126.18 Q1765.21 1125.3 1761.69 1125.3 Q1752.43 1125.3 1747.53 1131.55 Q1742.66 1137.8 1741.97 1150.44 Q1744.7 1146.41 1748.82 1144.28 Q1752.94 1142.11 1757.9 1142.11 Q1768.31 1142.11 1774.33 1148.45 Q1780.4 1154.74 1780.4 1165.62 Q1780.4 1176.27 1774.1 1182.71 Q1767.8 1189.14 1757.34 1189.14 Q1745.35 1189.14 1739.01 1179.98 Q1732.66 1170.76 1732.66 1153.31 Q1732.66 1136.92 1740.44 1127.2 Q1748.22 1117.43 1761.32 1117.43 Q1764.84 1117.43 1768.41 1118.12 Q1772.02 1118.82 1775.91 1120.21 Z" fill="#000000" fill-rule="nonzero" fill-opacity="1" /><path clip-path="url(#clip340)" d="M1870.35 1124.84 Q1863.13 1124.84 1859.47 1131.97 Q1855.86 1139.05 1855.86 1153.31 Q1855.86 1167.52 1859.47 1174.65 Q1863.13 1181.73 1870.35 1181.73 Q1877.62 1181.73 1881.23 1174.65 Q1884.89 1167.52 1884.89 1153.31 Q1884.89 1139.05 1881.23 1131.97 Q1877.62 1124.84 1870.35 1124.84 M1870.35 1117.43 Q1881.97 1117.43 1888.08 1126.64 Q1894.24 1135.81 1894.24 1153.31 Q1894.24 1170.76 1888.08 1179.98 Q1881.97 1189.14 1870.35 1189.14 Q1858.73 1189.14 1852.57 1179.98 Q1846.46 1170.76 1846.46 1153.31 Q1846.46 1135.81 1852.57 1126.64 Q1858.73 1117.43 1870.35 1117.43 Z" fill="#000000" fill-rule="nonzero" fill-opacity="1" /><path clip-path="url(#clip340)" d="M1910.68 1176.04 L1920.44 1176.04 L1920.44 1187.8 L1910.68 1187.8 L1910.68 1176.04 Z" fill="#000000" fill-rule="nonzero" fill-opacity="1" /><path clip-path="url(#clip340)" d="M1941.09 1186.36 L1941.09 1177.85 Q1944.61 1179.51 1948.22 1180.39 Q1951.83 1181.27 1955.3 1181.27 Q1964.56 1181.27 1969.43 1175.07 Q1974.33 1168.82 1975.03 1156.13 Q1972.34 1160.11 1968.22 1162.24 Q1964.1 1164.37 1959.1 1164.37 Q1948.73 1164.37 1942.67 1158.12 Q1936.65 1151.83 1936.65 1140.95 Q1936.65 1130.3 1942.94 1123.86 Q1949.24 1117.43 1959.7 1117.43 Q1971.69 1117.43 1977.99 1126.64 Q1984.33 1135.81 1984.33 1153.31 Q1984.33 1169.65 1976.55 1179.42 Q1968.82 1189.14 1955.72 1189.14 Q1952.2 1189.14 1948.59 1188.45 Q1944.98 1187.75 1941.09 1186.36 M1959.7 1157.06 Q1966 1157.06 1969.66 1152.75 Q1973.36 1148.45 1973.36 1140.95 Q1973.36 1133.49 1969.66 1129.19 Q1966 1124.84 1959.7 1124.84 Q1953.41 1124.84 1949.7 1129.19 Q1946.05 1133.49 1946.05 1140.95 Q1946.05 1148.45 1949.7 1152.75 Q1953.41 1157.06 1959.7 1157.06 Z" fill="#000000" fill-rule="nonzero" fill-opacity="1" /><path clip-path="url(#clip340)" d="M2055.58 1179.93 L2070.86 1179.93 L2070.86 1127.2 L2054.24 1130.53 L2054.24 1122.01 L2070.77 1118.68 L2080.12 1118.68 L2080.12 1179.93 L2095.4 1179.93 L2095.4 1187.8 L2055.58 1187.8 L2055.58 1179.93 Z" fill="#000000" fill-rule="nonzero" fill-opacity="1" /><path clip-path="url(#clip340)" d="M2114.29 1176.04 L2124.06 1176.04 L2124.06 1187.8 L2114.29 1187.8 L2114.29 1176.04 Z" fill="#000000" fill-rule="nonzero" fill-opacity="1" /><path clip-path="url(#clip340)" d="M2152.48 1179.93 L2185.12 1179.93 L2185.12 1187.8 L2141.23 1187.8 L2141.23 1179.93 Q2146.56 1174.42 2155.72 1165.16 Q2164.94 1155.86 2167.3 1153.17 Q2171.79 1148.12 2173.55 1144.65 Q2175.35 1141.13 2175.35 1137.75 Q2175.35 1132.24 2171.46 1128.77 Q2167.62 1125.3 2161.42 1125.3 Q2157.02 1125.3 2152.11 1126.83 Q2147.25 1128.36 2141.7 1131.46 L2141.7 1122.01 Q2147.34 1119.74 2152.25 1118.59 Q2157.16 1117.43 2161.23 1117.43 Q2171.97 1117.43 2178.36 1122.8 Q2184.75 1128.17 2184.75 1137.15 Q2184.75 1141.41 2183.13 1145.25 Q2181.56 1149.05 2177.34 1154.24 Q2176.19 1155.58 2169.98 1162.01 Q2163.78 1168.4 2152.48 1179.93 Z" fill="#000000" fill-rule="nonzero" fill-opacity="1" /><path clip-path="url(#clip340)" d="M1674.97 1292.9 L1674.97 1335.93 L1663.25 1335.93 L1663.25 1293.28 Q1663.25 1283.16 1659.31 1278.13 Q1655.36 1273.1 1647.47 1273.1 Q1637.98 1273.1 1632.51 1279.15 Q1627.03 1285.19 1627.03 1295.63 L1627.03 1335.93 L1615.26 1335.93 L1615.26 1236.88 L1627.03 1236.88 L1627.03 1275.71 Q1631.23 1269.28 1636.9 1266.1 Q1642.63 1262.91 1650.08 1262.91 Q1662.36 1262.91 1668.67 1270.55 Q1674.97 1278.13 1674.97 1292.9 Z" fill="#000000" fill-rule="nonzero" fill-opacity="1" /><path clip-path="url(#clip340)" d="M1725.96 1272.84 Q1716.54 1272.84 1711.06 1280.23 Q1705.59 1287.55 1705.59 1300.34 Q1705.59 1313.14 1711 1320.52 Q1716.47 1327.84 1725.96 1327.84 Q1735.31 1327.84 1740.79 1320.46 Q1746.26 1313.07 1746.26 1300.34 Q1746.26 1287.68 1740.79 1280.29 Q1735.31 1272.84 1725.96 1272.84 M1725.96 1262.91 Q1741.23 1262.91 1749.96 1272.84 Q1758.68 1282.77 1758.68 1300.34 Q1758.68 1317.85 1749.96 1327.84 Q1741.23 1337.77 1725.96 1337.77 Q1710.62 1337.77 1701.89 1327.84 Q1693.24 1317.85 1693.24 1300.34 Q1693.24 1282.77 1701.89 1272.84 Q1710.62 1262.91 1725.96 1262.91 Z" fill="#000000" fill-rule="nonzero" fill-opacity="1" /><path clip-path="url(#clip340)" d="M1776.88 1307.79 L1776.88 1264.63 L1788.6 1264.63 L1788.6 1307.35 Q1788.6 1317.47 1792.54 1322.56 Q1796.49 1327.59 1804.38 1327.59 Q1813.87 1327.59 1819.34 1321.54 Q1824.88 1315.49 1824.88 1305.05 L1824.88 1264.63 L1836.59 1264.63 L1836.59 1335.93 L1824.88 1335.93 L1824.88 1324.98 Q1820.61 1331.47 1814.95 1334.65 Q1809.35 1337.77 1801.9 1337.77 Q1789.61 1337.77 1783.25 1330.13 Q1776.88 1322.5 1776.88 1307.79 M1806.36 1262.91 L1806.36 1262.91 Z" fill="#000000" fill-rule="nonzero" fill-opacity="1" /><path clip-path="url(#clip340)" d="M1902.03 1275.58 Q1900.06 1274.43 1897.7 1273.93 Q1895.41 1273.35 1892.61 1273.35 Q1882.68 1273.35 1877.33 1279.85 Q1872.05 1286.28 1872.05 1298.37 L1872.05 1335.93 L1860.27 1335.93 L1860.27 1264.63 L1872.05 1264.63 L1872.05 1275.71 Q1875.74 1269.22 1881.66 1266.1 Q1887.58 1262.91 1896.05 1262.91 Q1897.26 1262.91 1898.72 1263.1 Q1900.19 1263.23 1901.97 1263.55 L1902.03 1275.58 Z" fill="#000000" fill-rule="nonzero" fill-opacity="1" /><path clip-path="url(#clip340)" d="M1959.77 1266.73 L1959.77 1277.81 Q1954.8 1275.26 1949.46 1273.99 Q1944.11 1272.72 1938.38 1272.72 Q1929.66 1272.72 1925.27 1275.39 Q1920.94 1278.06 1920.94 1283.41 Q1920.94 1287.48 1924.06 1289.84 Q1927.18 1292.13 1936.6 1294.23 L1940.61 1295.12 Q1953.08 1297.8 1958.3 1302.7 Q1963.59 1307.54 1963.59 1316.26 Q1963.59 1326.19 1955.69 1331.98 Q1947.87 1337.77 1934.12 1337.77 Q1928.39 1337.77 1922.15 1336.63 Q1915.97 1335.55 1909.1 1333.32 L1909.1 1321.22 Q1915.59 1324.6 1921.89 1326.32 Q1928.2 1327.97 1934.37 1327.97 Q1942.65 1327.97 1947.1 1325.17 Q1951.56 1322.31 1951.56 1317.15 Q1951.56 1312.37 1948.31 1309.83 Q1945.13 1307.28 1934.24 1304.93 L1930.17 1303.97 Q1919.28 1301.68 1914.45 1296.97 Q1909.61 1292.2 1909.61 1283.92 Q1909.61 1273.86 1916.74 1268.39 Q1923.87 1262.91 1936.98 1262.91 Q1943.47 1262.91 1949.2 1263.87 Q1954.93 1264.82 1959.77 1266.73 Z" fill="#000000" fill-rule="nonzero" fill-opacity="1" /><polyline clip-path="url(#clip342)" style="stroke:#000000; stroke-linecap:round; stroke-linejoin:round; stroke-width:4; stroke-opacity:0.1; fill:none" points="1273.33,1054.25 2305.51,1054.25 "/>
<polyline clip-path="url(#clip342)" style="stroke:#000000; stroke-linecap:round; stroke-linejoin:round; stroke-width:4; stroke-opacity:0.1; fill:none" points="1273.33,840.223 2305.51,840.223 "/>
<polyline clip-path="url(#clip342)" style="stroke:#000000; stroke-linecap:round; stroke-linejoin:round; stroke-width:4; stroke-opacity:0.1; fill:none" points="1273.33,626.2 2305.51,626.2 "/>
<polyline clip-path="url(#clip342)" style="stroke:#000000; stroke-linecap:round; stroke-linejoin:round; stroke-width:4; stroke-opacity:0.1; fill:none" points="1273.33,412.178 2305.51,412.178 "/>
<polyline clip-path="url(#clip342)" style="stroke:#000000; stroke-linecap:round; stroke-linejoin:round; stroke-width:4; stroke-opacity:0.1; fill:none" points="1273.33,198.155 2305.51,198.155 "/>
<polyline clip-path="url(#clip340)" style="stroke:#000000; stroke-linecap:round; stroke-linejoin:round; stroke-width:8; stroke-opacity:1; fill:none" points="1273.33,1082.2 1273.33,94.4882 "/>
<polyline clip-path="url(#clip340)" style="stroke:#000000; stroke-linecap:round; stroke-linejoin:round; stroke-width:8; stroke-opacity:1; fill:none" points="1273.33,1054.25 1292.23,1054.25 "/>
<polyline clip-path="url(#clip340)" style="stroke:#000000; stroke-linecap:round; stroke-linejoin:round; stroke-width:8; stroke-opacity:1; fill:none" points="1273.33,840.223 1292.23,840.223 "/>
<polyline clip-path="url(#clip340)" style="stroke:#000000; stroke-linecap:round; stroke-linejoin:round; stroke-width:8; stroke-opacity:1; fill:none" points="1273.33,626.2 1292.23,626.2 "/>
<polyline clip-path="url(#clip340)" style="stroke:#000000; stroke-linecap:round; stroke-linejoin:round; stroke-width:8; stroke-opacity:1; fill:none" points="1273.33,412.178 1292.23,412.178 "/>
<polyline clip-path="url(#clip340)" style="stroke:#000000; stroke-linecap:round; stroke-linejoin:round; stroke-width:8; stroke-opacity:1; fill:none" points="1273.33,198.155 1292.23,198.155 "/>
<path clip-path="url(#clip340)" d="M1213.44 1025.84 Q1206.22 1025.84 1202.57 1032.97 Q1198.95 1040.06 1198.95 1054.32 Q1198.95 1068.53 1202.57 1075.66 Q1206.22 1082.74 1213.44 1082.74 Q1220.71 1082.74 1224.32 1075.66 Q1227.98 1068.53 1227.98 1054.32 Q1227.98 1040.06 1224.32 1032.97 Q1220.71 1025.84 1213.44 1025.84 M1213.44 1018.44 Q1225.06 1018.44 1231.18 1027.65 Q1237.33 1036.82 1237.33 1054.32 Q1237.33 1071.77 1231.18 1080.98 Q1225.06 1090.15 1213.44 1090.15 Q1201.82 1090.15 1195.67 1080.98 Q1189.56 1071.77 1189.56 1054.32 Q1189.56 1036.82 1195.67 1027.65 Q1201.82 1018.44 1213.44 1018.44 Z" fill="#000000" fill-rule="nonzero" fill-opacity="1" /><path clip-path="url(#clip340)" d="M805.684 818.558 L842.396 818.558 L842.396 826.429 L814.248 826.429 L814.248 843.373 Q816.285 842.678 818.322 842.354 Q820.359 841.984 822.396 841.984 Q833.97 841.984 840.73 848.327 Q847.489 854.669 847.489 865.502 Q847.489 876.66 840.544 882.863 Q833.6 889.021 820.961 889.021 Q816.609 889.021 812.072 888.28 Q807.582 887.539 802.767 886.058 L802.767 876.66 Q806.933 878.928 811.378 880.039 Q815.822 881.15 820.776 881.15 Q828.785 881.15 833.461 876.938 Q838.137 872.725 838.137 865.502 Q838.137 858.28 833.461 854.067 Q828.785 849.854 820.776 849.854 Q817.026 849.854 813.276 850.688 Q809.572 851.521 805.684 853.28 L805.684 818.558 Z" fill="#000000" fill-rule="nonzero" fill-opacity="1" /><path clip-path="url(#clip340)" d="M865.915 875.919 L875.683 875.919 L875.683 887.678 L865.915 887.678 L865.915 875.919 Z" fill="#000000" fill-rule="nonzero" fill-opacity="1" /><path clip-path="url(#clip340)" d="M916.053 824.716 Q908.831 824.716 905.174 831.845 Q901.563 838.928 901.563 853.188 Q901.563 867.401 905.174 874.53 Q908.831 881.613 916.053 881.613 Q923.322 881.613 926.933 874.53 Q930.59 867.401 930.59 853.188 Q930.59 838.928 926.933 831.845 Q923.322 824.716 916.053 824.716 M916.053 817.308 Q927.674 817.308 933.785 826.521 Q939.942 835.688 939.942 853.188 Q939.942 870.641 933.785 879.854 Q927.674 889.021 916.053 889.021 Q904.433 889.021 898.276 879.854 Q892.165 870.641 892.165 853.188 Q892.165 835.688 898.276 826.521 Q904.433 817.308 916.053 817.308 Z" fill="#000000" fill-rule="nonzero" fill-opacity="1" /><path clip-path="url(#clip340)" d="M976.377 824.716 Q969.155 824.716 965.497 831.845 Q961.886 838.928 961.886 853.188 Q961.886 867.401 965.497 874.53 Q969.155 881.613 976.377 881.613 Q983.646 881.613 987.257 874.53 Q990.914 867.401 990.914 853.188 Q990.914 838.928 987.257 831.845 Q983.646 824.716 976.377 824.716 M976.377 817.308 Q987.997 817.308 994.108 826.521 Q1000.27 835.688 1000.27 853.188 Q1000.27 870.641 994.108 879.854 Q987.997 889.021 976.377 889.021 Q964.757 889.021 958.599 879.854 Q952.488 870.641 952.488 853.188 Q952.488 835.688 958.599 826.521 Q964.757 817.308 976.377 817.308 Z" fill="#000000" fill-rule="nonzero" fill-opacity="1" /><path clip-path="url(#clip340)" d="M1073.04 836.753 L1051.89 858.002 L1073.04 879.16 L1067.53 884.762 L1046.28 863.512 L1025.03 884.762 L1019.57 879.16 L1040.68 858.002 L1019.57 836.753 L1025.03 831.151 L1046.28 852.401 L1067.53 831.151 L1073.04 836.753 Z" fill="#000000" fill-rule="nonzero" fill-opacity="1" /><path clip-path="url(#clip340)" d="M1097.77 879.808 L1113.04 879.808 L1113.04 827.077 L1096.42 830.41 L1096.42 821.892 L1112.95 818.558 L1122.3 818.558 L1122.3 879.808 L1137.58 879.808 L1137.58 887.678 L1097.77 887.678 L1097.77 879.808 Z" fill="#000000" fill-rule="nonzero" fill-opacity="1" /><path clip-path="url(#clip340)" d="M1176.47 824.716 Q1169.25 824.716 1165.59 831.845 Q1161.98 838.928 1161.98 853.188 Q1161.98 867.401 1165.59 874.53 Q1169.25 881.613 1176.47 881.613 Q1183.74 881.613 1187.35 874.53 Q1191.01 867.401 1191.01 853.188 Q1191.01 838.928 1187.35 831.845 Q1183.74 824.716 1176.47 824.716 M1176.47 817.308 Q1188.09 817.308 1194.2 826.521 Q1200.36 835.688 1200.36 853.188 Q1200.36 870.641 1194.2 879.854 Q1188.09 889.021 1176.47 889.021 Q1164.85 889.021 1158.69 879.854 Q1152.58 870.641 1152.58 853.188 Q1152.58 835.688 1158.69 826.521 Q1164.85 817.308 1176.47 817.308 Z" fill="#000000" fill-rule="nonzero" fill-opacity="1" /><path clip-path="url(#clip340)" d="M1225.75 802.577 Q1231.2 803.743 1234.25 807.429 Q1237.33 811.116 1237.33 816.532 Q1237.33 824.845 1231.62 829.397 Q1225.9 833.948 1215.37 833.948 Q1211.83 833.948 1208.07 833.234 Q1204.34 832.556 1200.36 831.165 L1200.36 823.83 Q1203.52 825.673 1207.28 826.613 Q1211.04 827.554 1215.14 827.554 Q1222.29 827.554 1226.01 824.732 Q1229.77 821.911 1229.77 816.532 Q1229.77 811.567 1226.27 808.783 Q1222.81 805.962 1216.61 805.962 L1210.06 805.962 L1210.06 799.718 L1216.91 799.718 Q1222.51 799.718 1225.48 797.499 Q1228.46 795.242 1228.46 791.029 Q1228.46 786.703 1225.37 784.409 Q1222.32 782.076 1216.61 782.076 Q1213.49 782.076 1209.91 782.754 Q1206.34 783.431 1202.05 784.86 L1202.05 778.089 Q1206.38 776.885 1210.14 776.284 Q1213.94 775.682 1217.28 775.682 Q1225.94 775.682 1230.98 779.631 Q1236.02 783.543 1236.02 790.239 Q1236.02 794.903 1233.35 798.138 Q1230.68 801.336 1225.75 802.577 Z" fill="#000000" fill-rule="nonzero" fill-opacity="1" /><path clip-path="url(#clip340)" d="M803.262 665.785 L818.539 665.785 L818.539 613.054 L801.919 616.387 L801.919 607.869 L818.447 604.536 L827.799 604.536 L827.799 665.785 L843.076 665.785 L843.076 673.656 L803.262 673.656 L803.262 665.785 Z" fill="#000000" fill-rule="nonzero" fill-opacity="1" /><path clip-path="url(#clip340)" d="M861.965 661.896 L871.733 661.896 L871.733 673.656 L861.965 673.656 L861.965 661.896 Z" fill="#000000" fill-rule="nonzero" fill-opacity="1" /><path clip-path="url(#clip340)" d="M912.104 610.693 Q904.881 610.693 901.224 617.823 Q897.613 624.906 897.613 639.165 Q897.613 653.378 901.224 660.508 Q904.881 667.591 912.104 667.591 Q919.372 667.591 922.983 660.508 Q926.641 653.378 926.641 639.165 Q926.641 624.906 922.983 617.823 Q919.372 610.693 912.104 610.693 M912.104 603.286 Q923.724 603.286 929.835 612.499 Q935.992 621.665 935.992 639.165 Q935.992 656.619 929.835 665.832 Q923.724 674.998 912.104 674.998 Q900.483 674.998 894.326 665.832 Q888.215 656.619 888.215 639.165 Q888.215 621.665 894.326 612.499 Q900.483 603.286 912.104 603.286 Z" fill="#000000" fill-rule="nonzero" fill-opacity="1" /><path clip-path="url(#clip340)" d="M972.427 610.693 Q965.205 610.693 961.548 617.823 Q957.937 624.906 957.937 639.165 Q957.937 653.378 961.548 660.508 Q965.205 667.591 972.427 667.591 Q979.696 667.591 983.307 660.508 Q986.964 653.378 986.964 639.165 Q986.964 624.906 983.307 617.823 Q979.696 610.693 972.427 610.693 M972.427 603.286 Q984.048 603.286 990.159 612.499 Q996.316 621.665 996.316 639.165 Q996.316 656.619 990.159 665.832 Q984.048 674.998 972.427 674.998 Q960.807 674.998 954.65 665.832 Q948.539 656.619 948.539 639.165 Q948.539 621.665 954.65 612.499 Q960.807 603.286 972.427 603.286 Z" fill="#000000" fill-rule="nonzero" fill-opacity="1" /><path clip-path="url(#clip340)" d="M1069.09 622.73 L1047.94 643.98 L1069.09 665.137 L1063.58 670.739 L1042.33 649.489 L1021.08 670.739 L1015.62 665.137 L1036.73 643.98 L1015.62 622.73 L1021.08 617.128 L1042.33 638.378 L1063.58 617.128 L1069.09 622.73 Z" fill="#000000" fill-rule="nonzero" fill-opacity="1" /><path clip-path="url(#clip340)" d="M1093.82 665.785 L1109.09 665.785 L1109.09 613.054 L1092.47 616.387 L1092.47 607.869 L1109 604.536 L1118.35 604.536 L1118.35 665.785 L1133.63 665.785 L1133.63 673.656 L1093.82 673.656 L1093.82 665.785 Z" fill="#000000" fill-rule="nonzero" fill-opacity="1" /><path clip-path="url(#clip340)" d="M1172.52 610.693 Q1165.3 610.693 1161.64 617.823 Q1158.03 624.906 1158.03 639.165 Q1158.03 653.378 1161.64 660.508 Q1165.3 667.591 1172.52 667.591 Q1179.79 667.591 1183.4 660.508 Q1187.06 653.378 1187.06 639.165 Q1187.06 624.906 1183.4 617.823 Q1179.79 610.693 1172.52 610.693 M1172.52 603.286 Q1184.14 603.286 1190.25 612.499 Q1196.41 621.665 1196.41 639.165 Q1196.41 656.619 1190.25 665.832 Q1184.14 674.998 1172.52 674.998 Q1160.9 674.998 1154.74 665.832 Q1148.63 656.619 1148.63 639.165 Q1148.63 621.665 1154.74 612.499 Q1160.9 603.286 1172.52 603.286 Z" fill="#000000" fill-rule="nonzero" fill-opacity="1" /><path clip-path="url(#clip340)" d="M1221.76 569.295 L1202.58 599.275 L1221.76 599.275 L1221.76 569.295 M1219.77 562.675 L1229.32 562.675 L1229.32 599.275 L1237.33 599.275 L1237.33 605.594 L1229.32 605.594 L1229.32 618.835 L1221.76 618.835 L1221.76 605.594 L1196.41 605.594 L1196.41 598.259 L1219.77 562.675 Z" fill="#000000" fill-rule="nonzero" fill-opacity="1" /><path clip-path="url(#clip340)" d="M803.262 451.763 L818.539 451.763 L818.539 399.032 L801.919 402.365 L801.919 393.846 L818.447 390.513 L827.799 390.513 L827.799 451.763 L843.076 451.763 L843.076 459.633 L803.262 459.633 L803.262 451.763 Z" fill="#000000" fill-rule="nonzero" fill-opacity="1" /><path clip-path="url(#clip340)" d="M861.965 447.874 L871.733 447.874 L871.733 459.633 L861.965 459.633 L861.965 447.874 Z" fill="#000000" fill-rule="nonzero" fill-opacity="1" /><path clip-path="url(#clip340)" d="M892.196 390.513 L928.909 390.513 L928.909 398.383 L900.761 398.383 L900.761 415.328 Q902.798 414.633 904.835 414.309 Q906.872 413.939 908.909 413.939 Q920.483 413.939 927.242 420.281 Q934.002 426.624 934.002 437.457 Q934.002 448.615 927.057 454.818 Q920.113 460.976 907.474 460.976 Q903.122 460.976 898.585 460.235 Q894.094 459.494 889.28 458.013 L889.28 448.615 Q893.446 450.883 897.891 451.994 Q902.335 453.105 907.289 453.105 Q915.298 453.105 919.974 448.892 Q924.65 444.679 924.65 437.457 Q924.65 430.235 919.974 426.022 Q915.298 421.809 907.289 421.809 Q903.539 421.809 899.789 422.642 Q896.085 423.476 892.196 425.235 L892.196 390.513 Z" fill="#000000" fill-rule="nonzero" fill-opacity="1" /><path clip-path="url(#clip340)" d="M972.427 396.67 Q965.205 396.67 961.548 403.8 Q957.937 410.883 957.937 425.142 Q957.937 439.355 961.548 446.485 Q965.205 453.568 972.427 453.568 Q979.696 453.568 983.307 446.485 Q986.964 439.355 986.964 425.142 Q986.964 410.883 983.307 403.8 Q979.696 396.67 972.427 396.67 M972.427 389.263 Q984.048 389.263 990.159 398.476 Q996.316 407.643 996.316 425.142 Q996.316 442.596 990.159 451.809 Q984.048 460.976 972.427 460.976 Q960.807 460.976 954.65 451.809 Q948.539 442.596 948.539 425.142 Q948.539 407.643 954.65 398.476 Q960.807 389.263 972.427 389.263 Z" fill="#000000" fill-rule="nonzero" fill-opacity="1" /><path clip-path="url(#clip340)" d="M1069.09 408.707 L1047.94 429.957 L1069.09 451.115 L1063.58 456.716 L1042.33 435.466 L1021.08 456.716 L1015.62 451.115 L1036.73 429.957 L1015.62 408.707 L1021.08 403.106 L1042.33 424.355 L1063.58 403.106 L1069.09 408.707 Z" fill="#000000" fill-rule="nonzero" fill-opacity="1" /><path clip-path="url(#clip340)" d="M1093.82 451.763 L1109.09 451.763 L1109.09 399.032 L1092.47 402.365 L1092.47 393.846 L1109 390.513 L1118.35 390.513 L1118.35 451.763 L1133.63 451.763 L1133.63 459.633 L1093.82 459.633 L1093.82 451.763 Z" fill="#000000" fill-rule="nonzero" fill-opacity="1" /><path clip-path="url(#clip340)" d="M1172.52 396.67 Q1165.3 396.67 1161.64 403.8 Q1158.03 410.883 1158.03 425.142 Q1158.03 439.355 1161.64 446.485 Q1165.3 453.568 1172.52 453.568 Q1179.79 453.568 1183.4 446.485 Q1187.06 439.355 1187.06 425.142 Q1187.06 410.883 1183.4 403.8 Q1179.79 396.67 1172.52 396.67 M1172.52 389.263 Q1184.14 389.263 1190.25 398.476 Q1196.41 407.643 1196.41 425.142 Q1196.41 442.596 1190.25 451.809 Q1184.14 460.976 1172.52 460.976 Q1160.9 460.976 1154.74 451.809 Q1148.63 442.596 1148.63 425.142 Q1148.63 407.643 1154.74 398.476 Q1160.9 389.263 1172.52 389.263 Z" fill="#000000" fill-rule="nonzero" fill-opacity="1" /><path clip-path="url(#clip340)" d="M1221.76 355.273 L1202.58 385.252 L1221.76 385.252 L1221.76 355.273 M1219.77 348.652 L1229.32 348.652 L1229.32 385.252 L1237.33 385.252 L1237.33 391.572 L1229.32 391.572 L1229.32 404.812 L1221.76 404.812 L1221.76 391.572 L1196.41 391.572 L1196.41 384.237 L1219.77 348.652 Z" fill="#000000" fill-rule="nonzero" fill-opacity="1" /><path clip-path="url(#clip340)" d="M809.697 237.74 L842.336 237.74 L842.336 245.61 L798.447 245.61 L798.447 237.74 Q803.771 232.231 812.938 222.972 Q822.15 213.666 824.512 210.981 Q829.002 205.935 830.761 202.463 Q832.567 198.944 832.567 195.564 Q832.567 190.055 828.678 186.583 Q824.836 183.111 818.632 183.111 Q814.234 183.111 809.326 184.639 Q804.465 186.166 798.91 189.268 L798.91 179.824 Q804.558 177.555 809.465 176.398 Q814.373 175.24 818.447 175.24 Q829.187 175.24 835.576 180.611 Q841.965 185.981 841.965 194.963 Q841.965 199.222 840.345 203.064 Q838.771 206.861 834.558 212.046 Q833.4 213.388 827.197 219.824 Q820.993 226.212 809.697 237.74 Z" fill="#000000" fill-rule="nonzero" fill-opacity="1" /><path clip-path="url(#clip340)" d="M861.965 233.851 L871.733 233.851 L871.733 245.61 L861.965 245.61 L861.965 233.851 Z" fill="#000000" fill-rule="nonzero" fill-opacity="1" /><path clip-path="url(#clip340)" d="M912.104 182.648 Q904.881 182.648 901.224 189.777 Q897.613 196.861 897.613 211.12 Q897.613 225.333 901.224 232.462 Q904.881 239.546 912.104 239.546 Q919.372 239.546 922.983 232.462 Q926.641 225.333 926.641 211.12 Q926.641 196.861 922.983 189.777 Q919.372 182.648 912.104 182.648 M912.104 175.24 Q923.724 175.24 929.835 184.453 Q935.992 193.62 935.992 211.12 Q935.992 228.573 929.835 237.786 Q923.724 246.953 912.104 246.953 Q900.483 246.953 894.326 237.786 Q888.215 228.573 888.215 211.12 Q888.215 193.62 894.326 184.453 Q900.483 175.24 912.104 175.24 Z" fill="#000000" fill-rule="nonzero" fill-opacity="1" /><path clip-path="url(#clip340)" d="M972.427 182.648 Q965.205 182.648 961.548 189.777 Q957.937 196.861 957.937 211.12 Q957.937 225.333 961.548 232.462 Q965.205 239.546 972.427 239.546 Q979.696 239.546 983.307 232.462 Q986.964 225.333 986.964 211.12 Q986.964 196.861 983.307 189.777 Q979.696 182.648 972.427 182.648 M972.427 175.24 Q984.048 175.24 990.159 184.453 Q996.316 193.62 996.316 211.12 Q996.316 228.573 990.159 237.786 Q984.048 246.953 972.427 246.953 Q960.807 246.953 954.65 237.786 Q948.539 228.573 948.539 211.12 Q948.539 193.62 954.65 184.453 Q960.807 175.24 972.427 175.24 Z" fill="#000000" fill-rule="nonzero" fill-opacity="1" /><path clip-path="url(#clip340)" d="M1069.09 194.685 L1047.94 215.935 L1069.09 237.092 L1063.58 242.694 L1042.33 221.444 L1021.08 242.694 L1015.62 237.092 L1036.73 215.935 L1015.62 194.685 L1021.08 189.083 L1042.33 210.333 L1063.58 189.083 L1069.09 194.685 Z" fill="#000000" fill-rule="nonzero" fill-opacity="1" /><path clip-path="url(#clip340)" d="M1093.82 237.74 L1109.09 237.74 L1109.09 185.009 L1092.47 188.342 L1092.47 179.824 L1109 176.49 L1118.35 176.49 L1118.35 237.74 L1133.63 237.74 L1133.63 245.61 L1093.82 245.61 L1093.82 237.74 Z" fill="#000000" fill-rule="nonzero" fill-opacity="1" /><path clip-path="url(#clip340)" d="M1172.52 182.648 Q1165.3 182.648 1161.64 189.777 Q1158.03 196.861 1158.03 211.12 Q1158.03 225.333 1161.64 232.462 Q1165.3 239.546 1172.52 239.546 Q1179.79 239.546 1183.4 232.462 Q1187.06 225.333 1187.06 211.12 Q1187.06 196.861 1183.4 189.777 Q1179.79 182.648 1172.52 182.648 M1172.52 175.24 Q1184.14 175.24 1190.25 184.453 Q1196.41 193.62 1196.41 211.12 Q1196.41 228.573 1190.25 237.786 Q1184.14 246.953 1172.52 246.953 Q1160.9 246.953 1154.74 237.786 Q1148.63 228.573 1148.63 211.12 Q1148.63 193.62 1154.74 184.453 Q1160.9 175.24 1172.52 175.24 Z" fill="#000000" fill-rule="nonzero" fill-opacity="1" /><path clip-path="url(#clip340)" d="M1221.76 141.25 L1202.58 171.23 L1221.76 171.23 L1221.76 141.25 M1219.77 134.63 L1229.32 134.63 L1229.32 171.23 L1237.33 171.23 L1237.33 177.549 L1229.32 177.549 L1229.32 190.79 L1221.76 190.79 L1221.76 177.549 L1196.41 177.549 L1196.41 170.214 L1219.77 134.63 Z" fill="#000000" fill-rule="nonzero" fill-opacity="1" /><path clip-path="url(#clip340)" d="M662.639 1010.23 L662.639 998.518 L733.935 998.518 L733.935 1010.23 L662.639 1010.23 M634.884 1010.23 L634.884 998.518 L649.717 998.518 L649.717 1010.23 L634.884 1010.23 Z" fill="#000000" fill-rule="nonzero" fill-opacity="1" /><path clip-path="url(#clip340)" d="M690.903 914.746 L733.935 914.746 L733.935 926.458 L691.285 926.458 Q681.163 926.458 676.134 930.405 Q671.105 934.352 671.105 942.245 Q671.105 951.73 677.153 957.205 Q683.2 962.679 693.64 962.679 L733.935 962.679 L733.935 974.456 L662.639 974.456 L662.639 962.679 L673.715 962.679 Q667.286 958.478 664.103 952.812 Q660.92 947.083 660.92 939.635 Q660.92 927.35 668.559 921.048 Q676.134 914.746 690.903 914.746 Z" fill="#000000" fill-rule="nonzero" fill-opacity="1" /><path clip-path="url(#clip340)" d="M634.884 855.29 L644.624 855.29 L644.624 866.493 Q644.624 872.796 647.17 875.278 Q649.717 877.697 656.337 877.697 L662.639 877.697 L662.639 858.409 L671.742 858.409 L671.742 877.697 L733.935 877.697 L733.935 889.474 L671.742 889.474 L671.742 900.677 L662.639 900.677 L662.639 889.474 L657.674 889.474 Q645.77 889.474 640.359 883.936 Q634.884 878.397 634.884 866.366 L634.884 855.29 Z" fill="#000000" fill-rule="nonzero" fill-opacity="1" /><path clip-path="url(#clip340)" d="M705.798 846.696 L662.639 846.696 L662.639 834.983 L705.353 834.983 Q715.474 834.983 720.567 831.037 Q725.596 827.09 725.596 819.196 Q725.596 809.711 719.548 804.237 Q713.501 798.699 703.061 798.699 L662.639 798.699 L662.639 786.986 L733.935 786.986 L733.935 798.699 L722.986 798.699 Q729.479 802.964 732.662 808.629 Q735.781 814.231 735.781 821.679 Q735.781 833.965 728.142 840.33 Q720.503 846.696 705.798 846.696 M660.92 817.223 L660.92 817.223 Z" fill="#000000" fill-rule="nonzero" fill-opacity="1" /><path clip-path="url(#clip340)" d="M664.74 717.409 L675.816 717.409 Q673.27 722.374 671.997 727.721 Q670.723 733.068 670.723 738.797 Q670.723 747.518 673.397 751.911 Q676.071 756.239 681.418 756.239 Q685.492 756.239 687.847 753.12 Q690.139 750.001 692.239 740.58 L693.131 736.569 Q695.804 724.093 700.706 718.873 Q705.544 713.589 714.265 713.589 Q724.195 713.589 729.988 721.483 Q735.781 729.313 735.781 743.062 Q735.781 748.792 734.635 755.03 Q733.553 761.205 731.325 768.08 L719.23 768.08 Q722.604 761.587 724.323 755.285 Q725.978 748.983 725.978 742.808 Q725.978 734.532 723.177 730.076 Q720.312 725.62 715.156 725.62 Q710.382 725.62 707.835 728.867 Q705.289 732.05 702.934 742.935 L701.979 747.009 Q699.687 757.895 694.977 762.732 Q690.202 767.57 681.927 767.57 Q671.869 767.57 666.395 760.441 Q660.92 753.311 660.92 740.198 Q660.92 733.705 661.875 727.976 Q662.83 722.247 664.74 717.409 Z" fill="#000000" fill-rule="nonzero" fill-opacity="1" /><path clip-path="url(#clip340)" d="M695.359 633.954 L701.088 633.954 L701.088 687.808 Q713.183 687.044 719.548 680.551 Q725.85 673.995 725.85 662.345 Q725.85 655.598 724.195 649.296 Q722.54 642.93 719.23 636.691 L730.306 636.691 Q732.98 642.994 734.38 649.614 Q735.781 656.234 735.781 663.046 Q735.781 680.106 725.85 690.1 Q715.92 700.03 698.987 700.03 Q681.481 700.03 671.233 690.609 Q660.92 681.124 660.92 665.083 Q660.92 650.696 670.214 642.357 Q679.444 633.954 695.359 633.954 M691.921 645.667 Q682.309 645.794 676.58 651.078 Q670.851 656.298 670.851 664.955 Q670.851 674.758 676.389 680.679 Q681.927 686.535 691.985 687.426 L691.921 645.667 Z" fill="#000000" fill-rule="nonzero" fill-opacity="1" /><path clip-path="url(#clip340)" d="M673.461 567.815 L634.884 567.815 L634.884 556.102 L733.935 556.102 L733.935 567.815 L723.24 567.815 Q729.606 571.507 732.725 577.172 Q735.781 582.774 735.781 590.667 Q735.781 603.59 725.468 611.738 Q715.156 619.822 698.351 619.822 Q681.545 619.822 671.233 611.738 Q660.92 603.59 660.92 590.667 Q660.92 582.774 664.039 577.172 Q667.095 571.507 673.461 567.815 M698.351 607.728 Q711.273 607.728 718.657 602.444 Q725.978 597.097 725.978 587.803 Q725.978 578.509 718.657 573.162 Q711.273 567.815 698.351 567.815 Q685.428 567.815 678.108 573.162 Q670.723 578.509 670.723 587.803 Q670.723 597.097 678.108 602.444 Q685.428 607.728 698.351 607.728 Z" fill="#000000" fill-rule="nonzero" fill-opacity="1" /><path clip-path="url(#clip340)" d="M676.325 435.026 Q668.432 430.634 664.676 424.522 Q660.92 418.411 660.92 410.136 Q660.92 398.996 668.75 392.949 Q676.516 386.901 690.903 386.901 L733.935 386.901 L733.935 398.678 L691.285 398.678 Q681.036 398.678 676.071 402.306 Q671.105 405.935 671.105 413.382 Q671.105 422.485 677.153 427.769 Q683.2 433.053 693.64 433.053 L733.935 433.053 L733.935 444.829 L691.285 444.829 Q680.972 444.829 676.071 448.458 Q671.105 452.086 671.105 459.661 Q671.105 468.637 677.216 473.92 Q683.264 479.204 693.64 479.204 L733.935 479.204 L733.935 490.98 L662.639 490.98 L662.639 479.204 L673.715 479.204 Q667.159 475.194 664.039 469.592 Q660.92 463.99 660.92 456.287 Q660.92 448.521 664.867 443.11 Q668.814 437.636 676.325 435.026 Z" fill="#000000" fill-rule="nonzero" fill-opacity="1" /><path clip-path="url(#clip340)" d="M698.096 331.138 Q698.096 345.333 701.342 350.808 Q704.589 356.282 712.419 356.282 Q718.657 356.282 722.349 352.208 Q725.978 348.07 725.978 341.004 Q725.978 331.265 719.103 325.408 Q712.164 319.488 700.706 319.488 L698.096 319.488 L698.096 331.138 M693.258 307.775 L733.935 307.775 L733.935 319.488 L723.113 319.488 Q729.606 323.499 732.725 329.482 Q735.781 335.466 735.781 344.124 Q735.781 355.073 729.67 361.566 Q723.495 367.995 713.183 367.995 Q701.151 367.995 695.04 359.974 Q688.929 351.89 688.929 335.912 L688.929 319.488 L687.783 319.488 Q679.699 319.488 675.307 324.836 Q670.851 330.119 670.851 339.731 Q670.851 345.842 672.315 351.635 Q673.779 357.428 676.707 362.775 L665.885 362.775 Q663.403 356.346 662.193 350.298 Q660.92 344.251 660.92 338.522 Q660.92 323.053 668.941 315.414 Q676.962 307.775 693.258 307.775 Z" fill="#000000" fill-rule="nonzero" fill-opacity="1" /><path clip-path="url(#clip340)" d="M664.74 238.198 L675.816 238.198 Q673.27 243.163 671.997 248.511 Q670.723 253.858 670.723 259.587 Q670.723 268.308 673.397 272.7 Q676.071 277.029 681.418 277.029 Q685.492 277.029 687.847 273.91 Q690.139 270.791 692.239 261.369 L693.131 257.359 Q695.804 244.882 700.706 239.662 Q705.544 234.379 714.265 234.379 Q724.195 234.379 729.988 242.272 Q735.781 250.102 735.781 263.852 Q735.781 269.581 734.635 275.82 Q733.553 281.994 731.325 288.869 L719.23 288.869 Q722.604 282.376 724.323 276.074 Q725.978 269.772 725.978 263.597 Q725.978 255.322 723.177 250.866 Q720.312 246.41 715.156 246.41 Q710.382 246.41 707.835 249.657 Q705.289 252.839 702.934 263.725 L701.979 267.799 Q699.687 278.684 694.977 283.522 Q690.202 288.36 681.927 288.36 Q671.869 288.36 666.395 281.23 Q660.92 274.101 660.92 260.987 Q660.92 254.494 661.875 248.765 Q662.83 243.036 664.74 238.198 Z" fill="#000000" fill-rule="nonzero" fill-opacity="1" /><path clip-path="url(#clip340)" d="M664.74 170.276 L675.816 170.276 Q673.27 175.241 671.997 180.589 Q670.723 185.936 670.723 191.665 Q670.723 200.386 673.397 204.778 Q676.071 209.107 681.418 209.107 Q685.492 209.107 687.847 205.988 Q690.139 202.869 692.239 193.447 L693.131 189.437 Q695.804 176.96 700.706 171.74 Q705.544 166.457 714.265 166.457 Q724.195 166.457 729.988 174.35 Q735.781 182.18 735.781 195.93 Q735.781 201.659 734.635 207.897 Q733.553 214.072 731.325 220.947 L719.23 220.947 Q722.604 214.454 724.323 208.152 Q725.978 201.85 725.978 195.675 Q725.978 187.4 723.177 182.944 Q720.312 178.488 715.156 178.488 Q710.382 178.488 707.835 181.734 Q705.289 184.917 702.934 195.803 L701.979 199.877 Q699.687 210.762 694.977 215.6 Q690.202 220.438 681.927 220.438 Q671.869 220.438 666.395 213.308 Q660.92 206.179 660.92 193.065 Q660.92 186.572 661.875 180.843 Q662.83 175.114 664.74 170.276 Z" fill="#000000" fill-rule="nonzero" fill-opacity="1" /><polyline clip-path="url(#clip342)" style="stroke:#009af9; stroke-linecap:round; stroke-linejoin:round; stroke-width:8; stroke-opacity:1; fill:none" points="1302.55,329.374 1305.54,364.607 1306.78,372.928 1308.96,383.015 1311.14,389.925 1313.77,396.141 1316.78,401.865 1320.47,407.861 1325.11,414.553 1331.32,422.573 1339.87,432.446 1350.84,443.744 1364.83,456.578 1382.74,471.232 1405.71,488.006 1435.24,507.237 1473.15,529.189 1521.25,553.9 1582.18,581.5 1660.64,612.5 1764.33,647.564 1898.57,685.554 2058.12,722.949 2247.7,759.816 2276.3,764.833 "/>
<polyline clip-path="url(#clip342)" style="stroke:#e26f46; stroke-linecap:round; stroke-linejoin:round; stroke-width:8; stroke-opacity:1; fill:none" points="1302.55,877.136 1305.54,858.657 1306.78,854.468 1308.96,849.606 1311.14,846.499 1313.77,843.921 1316.78,841.742 1320.47,839.636 1325.11,837.464 1331.32,835.077 1339.87,832.449 1350.84,829.856 1364.83,827.435 1382.74,825.33 1405.71,823.744 1435.24,822.948 1473.15,823.293 1521.25,825.176 1582.18,829.043 1660.64,835.529 1764.33,845.564 1898.57,859.635 2058.12,876.516 2247.7,895.549 2276.3,898.277 "/>
<polyline clip-path="url(#clip342)" style="stroke:#3da44d; stroke-linecap:round; stroke-linejoin:round; stroke-width:8; stroke-opacity:1; fill:none" points="1302.55,1024.42 1305.54,1007.86 1306.78,1003.83 1308.96,998.79 1311.14,995.192 1313.77,991.815 1316.78,988.584 1320.47,985.1 1325.11,981.12 1331.32,976.252 1339.87,970.137 1350.84,963.004 1364.83,954.77 1382.74,945.268 1405.71,934.373 1435.24,922.02 1473.15,908.335 1521.25,893.785 1582.18,879.033 1660.64,864.933 1764.33,852.974 1898.57,845.917 2058.12,846.024 2247.7,853.532 2276.3,855.116 "/>
<polyline clip-path="url(#clip342)" style="stroke:#c271d2; stroke-linecap:round; stroke-linejoin:round; stroke-width:8; stroke-opacity:1; fill:none" points="1302.55,1054.25 1305.54,1054.05 1306.78,1053.96 1308.96,1053.77 1311.14,1053.56 1313.77,1053.3 1316.78,1052.99 1320.47,1052.58 1325.11,1052.04 1331.32,1051.28 1339.87,1050.15 1350.84,1048.57 1364.83,1046.4 1382.74,1043.35 1405.71,1039.06 1435.24,1032.97 1473.15,1024.36 1521.25,1012.32 1582.18,995.603 1660.64,972.217 1764.33,939.078 1898.57,894.073 2058.12,839.689 2247.7,776.283 2276.3,766.954 "/>
<polyline clip-path="url(#clip342)" style="stroke:#ac8d18; stroke-linecap:round; stroke-linejoin:round; stroke-width:8; stroke-opacity:1; fill:none" points="1302.55,122.442 1305.54,122.442 1306.78,122.442 1308.96,122.442 1311.14,122.442 1313.77,122.442 1316.78,122.442 1320.47,122.442 1325.11,122.442 1331.32,122.442 1339.87,122.442 1350.84,122.442 1364.83,122.442 1382.74,122.442 1405.71,122.442 1435.24,122.442 1473.15,122.442 1521.25,122.442 1582.18,122.442 1660.64,122.442 1764.33,122.442 1898.57,122.442 2058.12,122.442 2247.7,122.442 2276.3,122.442 "/>
<path clip-path="url(#clip340)" d="M1761.92 880.468 L2271.11 880.468 L2271.11 258.388 L1761.92 258.388  Z" fill="#ffffff" fill-rule="evenodd" fill-opacity="1"/>
<polyline clip-path="url(#clip340)" style="stroke:#000000; stroke-linecap:round; stroke-linejoin:round; stroke-width:8; stroke-opacity:1; fill:none" points="1761.92,880.468 2271.11,880.468 2271.11,258.388 1761.92,258.388 1761.92,880.468 "/>
<polyline clip-path="url(#clip340)" style="stroke:#009af9; stroke-linecap:round; stroke-linejoin:round; stroke-width:8; stroke-opacity:1; fill:none" points="1773.39,362.068 1842.2,362.068 "/>
<path clip-path="url(#clip340)" d="M1891.21 370.748 Q1891.21 361.35 1887.32 356.026 Q1883.48 350.656 1876.72 350.656 Q1869.96 350.656 1866.07 356.026 Q1862.23 361.35 1862.23 370.748 Q1862.23 380.146 1866.07 385.517 Q1869.96 390.841 1876.72 390.841 Q1883.48 390.841 1887.32 385.517 Q1891.21 380.146 1891.21 370.748 M1862.23 352.646 Q1864.92 348.017 1868.99 345.795 Q1873.11 343.526 1878.81 343.526 Q1888.25 343.526 1894.13 351.026 Q1900.06 358.526 1900.06 370.748 Q1900.06 382.97 1894.13 390.47 Q1888.25 397.97 1878.81 397.97 Q1873.11 397.97 1868.99 395.748 Q1864.92 393.48 1862.23 388.85 L1862.23 396.628 L1853.67 396.628 L1853.67 324.591 L1862.23 324.591 L1862.23 352.646 Z" fill="#000000" fill-rule="nonzero" fill-opacity="1" /><path clip-path="url(#clip340)" d="M1944.22 352.739 Q1942.79 351.906 1941.07 351.535 Q1939.41 351.119 1937.37 351.119 Q1930.15 351.119 1926.26 355.841 Q1922.42 360.517 1922.42 369.313 L1922.42 396.628 L1913.85 396.628 L1913.85 344.776 L1922.42 344.776 L1922.42 352.832 Q1925.1 348.109 1929.41 345.841 Q1933.71 343.526 1939.87 343.526 Q1940.75 343.526 1941.81 343.665 Q1942.88 343.758 1944.18 343.989 L1944.22 352.739 Z" fill="#000000" fill-rule="nonzero" fill-opacity="1" /><path clip-path="url(#clip340)" d="M1976.72 370.563 Q1966.4 370.563 1962.42 372.924 Q1958.44 375.285 1958.44 380.98 Q1958.44 385.517 1961.4 388.202 Q1964.41 390.841 1969.55 390.841 Q1976.63 390.841 1980.89 385.841 Q1985.19 380.794 1985.19 372.461 L1985.19 370.563 L1976.72 370.563 M1993.71 367.044 L1993.71 396.628 L1985.19 396.628 L1985.19 388.757 Q1982.28 393.48 1977.93 395.748 Q1973.57 397.97 1967.28 397.97 Q1959.31 397.97 1954.59 393.526 Q1949.92 389.035 1949.92 381.535 Q1949.92 372.785 1955.75 368.341 Q1961.63 363.896 1973.25 363.896 L1985.19 363.896 L1985.19 363.063 Q1985.19 357.183 1981.31 353.989 Q1977.46 350.748 1970.47 350.748 Q1966.03 350.748 1961.81 351.813 Q1957.6 352.878 1953.71 355.008 L1953.71 347.137 Q1958.39 345.332 1962.79 344.452 Q1967.19 343.526 1971.35 343.526 Q1982.6 343.526 1988.16 349.359 Q1993.71 355.193 1993.71 367.044 Z" fill="#000000" fill-rule="nonzero" fill-opacity="1" /><path clip-path="url(#clip340)" d="M2011.26 344.776 L2019.78 344.776 L2019.78 396.628 L2011.26 396.628 L2011.26 344.776 M2011.26 324.591 L2019.78 324.591 L2019.78 335.378 L2011.26 335.378 L2011.26 324.591 Z" fill="#000000" fill-rule="nonzero" fill-opacity="1" /><path clip-path="url(#clip340)" d="M2080.7 365.332 L2080.7 396.628 L2072.18 396.628 L2072.18 365.609 Q2072.18 358.248 2069.31 354.591 Q2066.44 350.933 2060.7 350.933 Q2053.8 350.933 2049.82 355.332 Q2045.84 359.73 2045.84 367.322 L2045.84 396.628 L2037.28 396.628 L2037.28 344.776 L2045.84 344.776 L2045.84 352.832 Q2048.9 348.156 2053.02 345.841 Q2057.18 343.526 2062.6 343.526 Q2071.54 343.526 2076.12 349.082 Q2080.7 354.591 2080.7 365.332 Z" fill="#000000" fill-rule="nonzero" fill-opacity="1" /><polyline clip-path="url(#clip340)" style="stroke:#e26f46; stroke-linecap:round; stroke-linejoin:round; stroke-width:8; stroke-opacity:1; fill:none" points="1773.39,465.748 1842.2,465.748 "/>
<path clip-path="url(#clip340)" d="M1853.67 448.456 L1862.69 448.456 L1878.9 491.974 L1895.1 448.456 L1904.13 448.456 L1884.69 500.308 L1873.11 500.308 L1853.67 448.456 Z" fill="#000000" fill-rule="nonzero" fill-opacity="1" /><path clip-path="url(#clip340)" d="M1960.24 472.252 L1960.24 476.419 L1921.07 476.419 Q1921.63 485.215 1926.35 489.845 Q1931.12 494.428 1939.59 494.428 Q1944.5 494.428 1949.08 493.224 Q1953.71 492.021 1958.25 489.613 L1958.25 497.669 Q1953.67 499.613 1948.85 500.632 Q1944.04 501.65 1939.08 501.65 Q1926.68 501.65 1919.41 494.428 Q1912.19 487.206 1912.19 474.891 Q1912.19 462.16 1919.04 454.706 Q1925.94 447.206 1937.6 447.206 Q1948.06 447.206 1954.13 453.965 Q1960.24 460.678 1960.24 472.252 M1951.72 469.752 Q1951.63 462.762 1947.79 458.595 Q1943.99 454.428 1937.69 454.428 Q1930.56 454.428 1926.26 458.456 Q1922 462.484 1921.35 469.799 L1951.72 469.752 Z" fill="#000000" fill-rule="nonzero" fill-opacity="1" /><path clip-path="url(#clip340)" d="M2017.32 469.012 L2017.32 500.308 L2008.81 500.308 L2008.81 469.289 Q2008.81 461.928 2005.93 458.271 Q2003.06 454.613 1997.32 454.613 Q1990.43 454.613 1986.44 459.012 Q1982.46 463.41 1982.46 471.002 L1982.46 500.308 L1973.9 500.308 L1973.9 448.456 L1982.46 448.456 L1982.46 456.512 Q1985.52 451.836 1989.64 449.521 Q1993.81 447.206 1999.22 447.206 Q2008.16 447.206 2012.74 452.762 Q2017.32 458.271 2017.32 469.012 Z" fill="#000000" fill-rule="nonzero" fill-opacity="1" /><path clip-path="url(#clip340)" d="M2042.74 433.734 L2042.74 448.456 L2060.29 448.456 L2060.29 455.076 L2042.74 455.076 L2042.74 483.224 Q2042.74 489.567 2044.45 491.373 Q2046.21 493.178 2051.54 493.178 L2060.29 493.178 L2060.29 500.308 L2051.54 500.308 Q2041.68 500.308 2037.93 496.65 Q2034.18 492.947 2034.18 483.224 L2034.18 455.076 L2027.93 455.076 L2027.93 448.456 L2034.18 448.456 L2034.18 433.734 L2042.74 433.734 Z" fill="#000000" fill-rule="nonzero" fill-opacity="1" /><path clip-path="url(#clip340)" d="M2101.54 456.419 Q2100.1 455.586 2098.39 455.215 Q2096.72 454.799 2094.68 454.799 Q2087.46 454.799 2083.57 459.521 Q2079.73 464.197 2079.73 472.993 L2079.73 500.308 L2071.17 500.308 L2071.17 448.456 L2079.73 448.456 L2079.73 456.512 Q2082.42 451.789 2086.72 449.521 Q2091.03 447.206 2097.18 447.206 Q2098.06 447.206 2099.13 447.345 Q2100.19 447.438 2101.49 447.669 L2101.54 456.419 Z" fill="#000000" fill-rule="nonzero" fill-opacity="1" /><path clip-path="url(#clip340)" d="M2110.47 448.456 L2118.99 448.456 L2118.99 500.308 L2110.47 500.308 L2110.47 448.456 M2110.47 428.271 L2118.99 428.271 L2118.99 439.058 L2110.47 439.058 L2110.47 428.271 Z" fill="#000000" fill-rule="nonzero" fill-opacity="1" /><path clip-path="url(#clip340)" d="M2174.13 450.447 L2174.13 458.41 Q2170.52 456.419 2166.86 455.447 Q2163.25 454.428 2159.55 454.428 Q2151.26 454.428 2146.67 459.706 Q2142.09 464.937 2142.09 474.428 Q2142.09 483.919 2146.67 489.197 Q2151.26 494.428 2159.55 494.428 Q2163.25 494.428 2166.86 493.456 Q2170.52 492.437 2174.13 490.447 L2174.13 498.317 Q2170.56 499.984 2166.72 500.817 Q2162.92 501.65 2158.62 501.65 Q2146.91 501.65 2140.01 494.289 Q2133.11 486.928 2133.11 474.428 Q2133.11 461.743 2140.05 454.475 Q2147.05 447.206 2159.17 447.206 Q2163.11 447.206 2166.86 448.039 Q2170.61 448.826 2174.13 450.447 Z" fill="#000000" fill-rule="nonzero" fill-opacity="1" /><path clip-path="url(#clip340)" d="M2188.94 428.271 L2197.46 428.271 L2197.46 500.308 L2188.94 500.308 L2188.94 428.271 Z" fill="#000000" fill-rule="nonzero" fill-opacity="1" /><path clip-path="url(#clip340)" d="M2259.64 472.252 L2259.64 476.419 L2220.47 476.419 Q2221.03 485.215 2225.75 489.845 Q2230.52 494.428 2238.99 494.428 Q2243.9 494.428 2248.48 493.224 Q2253.11 492.021 2257.65 489.613 L2257.65 497.669 Q2253.06 499.613 2248.25 500.632 Q2243.43 501.65 2238.48 501.65 Q2226.07 501.65 2218.8 494.428 Q2211.58 487.206 2211.58 474.891 Q2211.58 462.16 2218.43 454.706 Q2225.33 447.206 2237 447.206 Q2247.46 447.206 2253.53 453.965 Q2259.64 460.678 2259.64 472.252 M2251.12 469.752 Q2251.03 462.762 2247.18 458.595 Q2243.39 454.428 2237.09 454.428 Q2229.96 454.428 2225.66 458.456 Q2221.4 462.484 2220.75 469.799 L2251.12 469.752 Z" fill="#000000" fill-rule="nonzero" fill-opacity="1" /><polyline clip-path="url(#clip340)" style="stroke:#3da44d; stroke-linecap:round; stroke-linejoin:round; stroke-width:8; stroke-opacity:1; fill:none" points="1773.39,569.428 1842.2,569.428 "/>
<path clip-path="url(#clip340)" d="M1909.41 540.192 L1909.41 550.053 Q1904.69 545.655 1899.32 543.479 Q1893.99 541.303 1887.97 541.303 Q1876.12 541.303 1869.82 548.571 Q1863.53 555.793 1863.53 569.497 Q1863.53 583.154 1869.82 590.423 Q1876.12 597.645 1887.97 597.645 Q1893.99 597.645 1899.32 595.469 Q1904.69 593.293 1909.41 588.895 L1909.41 598.664 Q1904.5 601.997 1898.99 603.664 Q1893.53 605.33 1887.42 605.33 Q1871.72 605.33 1862.69 595.747 Q1853.67 586.117 1853.67 569.497 Q1853.67 552.831 1862.69 543.247 Q1871.72 533.618 1887.42 533.618 Q1893.62 533.618 1899.08 535.284 Q1904.59 536.905 1909.41 540.192 Z" fill="#000000" fill-rule="nonzero" fill-opacity="1" /><path clip-path="url(#clip340)" d="M1923.85 534.868 L1937.79 534.868 L1955.43 581.904 L1973.16 534.868 L1987.09 534.868 L1987.09 603.988 L1977.97 603.988 L1977.97 543.294 L1960.15 590.701 L1950.75 590.701 L1932.93 543.294 L1932.93 603.988 L1923.85 603.988 L1923.85 534.868 Z" fill="#000000" fill-rule="nonzero" fill-opacity="1" /><polyline clip-path="url(#clip340)" style="stroke:#c271d2; stroke-linecap:round; stroke-linejoin:round; stroke-width:8; stroke-opacity:1; fill:none" points="1773.39,673.108 1842.2,673.108 "/>
<path clip-path="url(#clip340)" d="M1891.21 681.788 Q1891.21 672.39 1887.32 667.066 Q1883.48 661.696 1876.72 661.696 Q1869.96 661.696 1866.07 667.066 Q1862.23 672.39 1862.23 681.788 Q1862.23 691.186 1866.07 696.557 Q1869.96 701.881 1876.72 701.881 Q1883.48 701.881 1887.32 696.557 Q1891.21 691.186 1891.21 681.788 M1862.23 663.686 Q1864.92 659.057 1868.99 656.835 Q1873.11 654.566 1878.81 654.566 Q1888.25 654.566 1894.13 662.066 Q1900.06 669.566 1900.06 681.788 Q1900.06 694.01 1894.13 701.51 Q1888.25 709.01 1878.81 709.01 Q1873.11 709.01 1868.99 706.788 Q1864.92 704.52 1862.23 699.89 L1862.23 707.668 L1853.67 707.668 L1853.67 635.631 L1862.23 635.631 L1862.23 663.686 Z" fill="#000000" fill-rule="nonzero" fill-opacity="1" /><path clip-path="url(#clip340)" d="M1914.18 635.631 L1922.69 635.631 L1922.69 707.668 L1914.18 707.668 L1914.18 635.631 Z" fill="#000000" fill-rule="nonzero" fill-opacity="1" /><path clip-path="url(#clip340)" d="M1960.61 661.788 Q1953.76 661.788 1949.78 667.159 Q1945.8 672.483 1945.8 681.788 Q1945.8 691.094 1949.73 696.464 Q1953.71 701.788 1960.61 701.788 Q1967.42 701.788 1971.4 696.418 Q1975.38 691.047 1975.38 681.788 Q1975.38 672.575 1971.4 667.205 Q1967.42 661.788 1960.61 661.788 M1960.61 654.566 Q1971.72 654.566 1978.06 661.788 Q1984.41 669.01 1984.41 681.788 Q1984.41 694.52 1978.06 701.788 Q1971.72 709.01 1960.61 709.01 Q1949.45 709.01 1943.11 701.788 Q1936.81 694.52 1936.81 681.788 Q1936.81 669.01 1943.11 661.788 Q1949.45 654.566 1960.61 654.566 Z" fill="#000000" fill-rule="nonzero" fill-opacity="1" /><path clip-path="url(#clip340)" d="M2018.62 661.788 Q2011.77 661.788 2007.79 667.159 Q2003.81 672.483 2003.81 681.788 Q2003.81 691.094 2007.74 696.464 Q2011.72 701.788 2018.62 701.788 Q2025.43 701.788 2029.41 696.418 Q2033.39 691.047 2033.39 681.788 Q2033.39 672.575 2029.41 667.205 Q2025.43 661.788 2018.62 661.788 M2018.62 654.566 Q2029.73 654.566 2036.07 661.788 Q2042.42 669.01 2042.42 681.788 Q2042.42 694.52 2036.07 701.788 Q2029.73 709.01 2018.62 709.01 Q2007.46 709.01 2001.12 701.788 Q1994.82 694.52 1994.82 681.788 Q1994.82 669.01 2001.12 661.788 Q2007.46 654.566 2018.62 654.566 Z" fill="#000000" fill-rule="nonzero" fill-opacity="1" /><path clip-path="url(#clip340)" d="M2090.66 663.686 L2090.66 635.631 L2099.18 635.631 L2099.18 707.668 L2090.66 707.668 L2090.66 699.89 Q2087.97 704.52 2083.85 706.788 Q2079.78 709.01 2074.04 709.01 Q2064.64 709.01 2058.71 701.51 Q2052.83 694.01 2052.83 681.788 Q2052.83 669.566 2058.71 662.066 Q2064.64 654.566 2074.04 654.566 Q2079.78 654.566 2083.85 656.835 Q2087.97 659.057 2090.66 663.686 M2061.63 681.788 Q2061.63 691.186 2065.47 696.557 Q2069.36 701.881 2076.12 701.881 Q2082.88 701.881 2086.77 696.557 Q2090.66 691.186 2090.66 681.788 Q2090.66 672.39 2086.77 667.066 Q2082.88 661.696 2076.12 661.696 Q2069.36 661.696 2065.47 667.066 Q2061.63 672.39 2061.63 681.788 Z" fill="#000000" fill-rule="nonzero" fill-opacity="1" /><polyline clip-path="url(#clip340)" style="stroke:#ac8d18; stroke-linecap:round; stroke-linejoin:round; stroke-width:8; stroke-opacity:1; fill:none" points="1773.39,776.788 1842.2,776.788 "/>
<path clip-path="url(#clip340)" d="M1890.52 761.024 L1890.52 769.079 Q1886.91 767.228 1883.02 766.302 Q1879.13 765.376 1874.96 765.376 Q1868.62 765.376 1865.43 767.32 Q1862.28 769.265 1862.28 773.153 Q1862.28 776.116 1864.55 777.829 Q1866.82 779.496 1873.67 781.024 L1876.58 781.672 Q1885.66 783.616 1889.45 787.181 Q1893.3 790.7 1893.3 797.042 Q1893.3 804.264 1887.56 808.477 Q1881.86 812.69 1871.86 812.69 Q1867.69 812.69 1863.16 811.857 Q1858.67 811.07 1853.67 809.45 L1853.67 800.653 Q1858.39 803.107 1862.97 804.357 Q1867.56 805.561 1872.05 805.561 Q1878.07 805.561 1881.31 803.524 Q1884.55 801.44 1884.55 797.69 Q1884.55 794.218 1882.19 792.366 Q1879.87 790.514 1871.95 788.801 L1868.99 788.107 Q1861.07 786.44 1857.56 783.014 Q1854.04 779.542 1854.04 773.524 Q1854.04 766.209 1859.22 762.228 Q1864.41 758.246 1873.94 758.246 Q1878.67 758.246 1882.83 758.941 Q1887 759.635 1890.52 761.024 Z" fill="#000000" fill-rule="nonzero" fill-opacity="1" /><path clip-path="url(#clip340)" d="M1905.98 790.885 L1905.98 759.496 L1914.5 759.496 L1914.5 790.561 Q1914.5 797.922 1917.37 801.625 Q1920.24 805.283 1925.98 805.283 Q1932.88 805.283 1936.86 800.885 Q1940.89 796.487 1940.89 788.894 L1940.89 759.496 L1949.41 759.496 L1949.41 811.348 L1940.89 811.348 L1940.89 803.385 Q1937.79 808.107 1933.67 810.422 Q1929.59 812.69 1924.18 812.69 Q1915.24 812.69 1910.61 807.135 Q1905.98 801.579 1905.98 790.885 M1927.42 758.246 L1927.42 758.246 Z" fill="#000000" fill-rule="nonzero" fill-opacity="1" /><path clip-path="url(#clip340)" d="M2007.32 769.45 Q2010.52 763.709 2014.96 760.978 Q2019.41 758.246 2025.43 758.246 Q2033.53 758.246 2037.93 763.941 Q2042.32 769.589 2042.32 780.052 L2042.32 811.348 L2033.76 811.348 L2033.76 780.329 Q2033.76 772.876 2031.12 769.265 Q2028.48 765.653 2023.06 765.653 Q2016.44 765.653 2012.6 770.052 Q2008.76 774.45 2008.76 782.042 L2008.76 811.348 L2000.19 811.348 L2000.19 780.329 Q2000.19 772.829 1997.56 769.265 Q1994.92 765.653 1989.41 765.653 Q1982.88 765.653 1979.04 770.098 Q1975.19 774.496 1975.19 782.042 L1975.19 811.348 L1966.63 811.348 L1966.63 759.496 L1975.19 759.496 L1975.19 767.552 Q1978.11 762.783 1982.18 760.515 Q1986.26 758.246 1991.86 758.246 Q1997.51 758.246 2001.44 761.116 Q2005.43 763.987 2007.32 769.45 Z" fill="#000000" fill-rule="nonzero" fill-opacity="1" /></svg>
