<?xml version="1.0" encoding="utf-8"?>
<svg xmlns="http://www.w3.org/2000/svg" xmlns:xlink="http://www.w3.org/1999/xlink" width="600" height="400" viewBox="0 0 2400 1600">
<defs>
  <clipPath id="clip310">
    <rect x="0" y="0" width="2400" height="1600"/>
  </clipPath>
</defs>
<path clip-path="url(#clip310)" d="M0 1600 L2400 1600 L2400 0 L0 0  Z" fill="#ffffff" fill-rule="evenodd" fill-opacity="1"/>
<defs>
  <clipPath id="clip311">
    <rect x="480" y="0" width="1681" height="1600"/>
  </clipPath>
</defs>
<path clip-path="url(#clip310)" d="M673.506 1273.7 L2305.51 1273.7 L2305.51 94.4882 L673.506 94.4882  Z" fill="#ffffff" fill-rule="evenodd" fill-opacity="1"/>
<defs>
  <clipPath id="clip312">
    <rect x="673" y="94" width="1633" height="1180"/>
  </clipPath>
</defs>
<polyline clip-path="url(#clip312)" style="stroke:#000000; stroke-linecap:round; stroke-linejoin:round; stroke-width:4; stroke-opacity:0.1; fill:none" points="719.695,1273.7 719.695,94.4882 "/>
<polyline clip-path="url(#clip312)" style="stroke:#000000; stroke-linecap:round; stroke-linejoin:round; stroke-width:4; stroke-opacity:0.1; fill:none" points="994.628,1273.7 994.628,94.4882 "/>
<polyline clip-path="url(#clip312)" style="stroke:#000000; stroke-linecap:round; stroke-linejoin:round; stroke-width:4; stroke-opacity:0.1; fill:none" points="1269.56,1273.7 1269.56,94.4882 "/>
<polyline clip-path="url(#clip312)" style="stroke:#000000; stroke-linecap:round; stroke-linejoin:round; stroke-width:4; stroke-opacity:0.1; fill:none" points="1544.5,1273.7 1544.5,94.4882 "/>
<polyline clip-path="url(#clip312)" style="stroke:#000000; stroke-linecap:round; stroke-linejoin:round; stroke-width:4; stroke-opacity:0.1; fill:none" points="1819.43,1273.7 1819.43,94.4882 "/>
<polyline clip-path="url(#clip312)" style="stroke:#000000; stroke-linecap:round; stroke-linejoin:round; stroke-width:4; stroke-opacity:0.1; fill:none" points="2094.36,1273.7 2094.36,94.4882 "/>
<polyline clip-path="url(#clip310)" style="stroke:#000000; stroke-linecap:round; stroke-linejoin:round; stroke-width:8; stroke-opacity:1; fill:none" points="673.506,1273.7 2305.51,1273.7 "/>
<polyline clip-path="url(#clip310)" style="stroke:#000000; stroke-linecap:round; stroke-linejoin:round; stroke-width:8; stroke-opacity:1; fill:none" points="719.695,1273.7 719.695,1254.8 "/>
<polyline clip-path="url(#clip310)" style="stroke:#000000; stroke-linecap:round; stroke-linejoin:round; stroke-width:8; stroke-opacity:1; fill:none" points="994.628,1273.7 994.628,1254.8 "/>
<polyline clip-path="url(#clip310)" style="stroke:#000000; stroke-linecap:round; stroke-linejoin:round; stroke-width:8; stroke-opacity:1; fill:none" points="1269.56,1273.7 1269.56,1254.8 "/>
<polyline clip-path="url(#clip310)" style="stroke:#000000; stroke-linecap:round; stroke-linejoin:round; stroke-width:8; stroke-opacity:1; fill:none" points="1544.5,1273.7 1544.5,1254.8 "/>
<polyline clip-path="url(#clip310)" style="stroke:#000000; stroke-linecap:round; stroke-linejoin:round; stroke-width:8; stroke-opacity:1; fill:none" points="1819.43,1273.7 1819.43,1254.8 "/>
<polyline clip-path="url(#clip310)" style="stroke:#000000; stroke-linecap:round; stroke-linejoin:round; stroke-width:8; stroke-opacity:1; fill:none" points="2094.36,1273.7 2094.36,1254.8 "/>
<path clip-path="url(#clip310)" d="M644.302 1316.33 Q637.08 1316.33 633.422 1323.46 Q629.811 1330.55 629.811 1344.81 Q629.811 1359.02 633.422 1366.15 Q637.08 1373.23 644.302 1373.23 Q651.57 1373.23 655.181 1366.15 Q658.839 1359.02 658.839 1344.81 Q658.839 1330.55 655.181 1323.46 Q651.57 1316.33 644.302 1316.33 M644.302 1308.93 Q655.922 1308.93 662.033 1318.14 Q668.19 1327.31 668.19 1344.81 Q668.19 1362.26 662.033 1371.47 Q655.922 1380.64 644.302 1380.64 Q632.681 1380.64 626.524 1371.47 Q620.413 1362.26 620.413 1344.81 Q620.413 1327.31 626.524 1318.14 Q632.681 1308.93 644.302 1308.93 Z" fill="#000000" fill-rule="nonzero" fill-opacity="1" /><path clip-path="url(#clip310)" d="M684.626 1367.54 L694.394 1367.54 L694.394 1379.3 L684.626 1379.3 L684.626 1367.54 Z" fill="#000000" fill-rule="nonzero" fill-opacity="1" /><path clip-path="url(#clip310)" d="M734.764 1316.33 Q727.542 1316.33 723.885 1323.46 Q720.274 1330.55 720.274 1344.81 Q720.274 1359.02 723.885 1366.15 Q727.542 1373.23 734.764 1373.23 Q742.033 1373.23 745.644 1366.15 Q749.301 1359.02 749.301 1344.81 Q749.301 1330.55 745.644 1323.46 Q742.033 1316.33 734.764 1316.33 M734.764 1308.93 Q746.384 1308.93 752.496 1318.14 Q758.653 1327.31 758.653 1344.81 Q758.653 1362.26 752.496 1371.47 Q746.384 1380.64 734.764 1380.64 Q723.144 1380.64 716.986 1371.47 Q710.875 1362.26 710.875 1344.81 Q710.875 1327.31 716.986 1318.14 Q723.144 1308.93 734.764 1308.93 Z" fill="#000000" fill-rule="nonzero" fill-opacity="1" /><path clip-path="url(#clip310)" d="M795.088 1316.33 Q787.866 1316.33 784.208 1323.46 Q780.597 1330.55 780.597 1344.81 Q780.597 1359.02 784.208 1366.15 Q787.866 1373.23 795.088 1373.23 Q802.356 1373.23 805.967 1366.15 Q809.625 1359.02 809.625 1344.81 Q809.625 1330.55 805.967 1323.46 Q802.356 1316.33 795.088 1316.33 M795.088 1308.93 Q806.708 1308.93 812.819 1318.14 Q818.977 1327.31 818.977 1344.81 Q818.977 1362.26 812.819 1371.47 Q806.708 1380.64 795.088 1380.64 Q783.468 1380.64 777.31 1371.47 Q771.199 1362.26 771.199 1344.81 Q771.199 1327.31 777.31 1318.14 Q783.468 1308.93 795.088 1308.93 Z" fill="#000000" fill-rule="nonzero" fill-opacity="1" /><path clip-path="url(#clip310)" d="M920.231 1316.33 Q913.008 1316.33 909.351 1323.46 Q905.74 1330.55 905.74 1344.81 Q905.74 1359.02 909.351 1366.15 Q913.008 1373.23 920.231 1373.23 Q927.499 1373.23 931.11 1366.15 Q934.768 1359.02 934.768 1344.81 Q934.768 1330.55 931.11 1323.46 Q927.499 1316.33 920.231 1316.33 M920.231 1308.93 Q931.851 1308.93 937.962 1318.14 Q944.119 1327.31 944.119 1344.81 Q944.119 1362.26 937.962 1371.47 Q931.851 1380.64 920.231 1380.64 Q908.61 1380.64 902.453 1371.47 Q896.342 1362.26 896.342 1344.81 Q896.342 1327.31 902.453 1318.14 Q908.61 1308.93 920.231 1308.93 Z" fill="#000000" fill-rule="nonzero" fill-opacity="1" /><path clip-path="url(#clip310)" d="M960.555 1367.54 L970.323 1367.54 L970.323 1379.3 L960.555 1379.3 L960.555 1367.54 Z" fill="#000000" fill-rule="nonzero" fill-opacity="1" /><path clip-path="url(#clip310)" d="M998.749 1371.43 L1031.39 1371.43 L1031.39 1379.3 L987.499 1379.3 L987.499 1371.43 Q992.823 1365.92 1001.99 1356.66 Q1011.2 1347.35 1013.56 1344.67 Q1018.05 1339.62 1019.81 1336.15 Q1021.62 1332.63 1021.62 1329.25 Q1021.62 1323.74 1017.73 1320.27 Q1013.89 1316.8 1007.68 1316.8 Q1003.29 1316.8 998.378 1318.32 Q993.517 1319.85 987.962 1322.95 L987.962 1313.51 Q993.61 1311.24 998.517 1310.08 Q1003.42 1308.93 1007.5 1308.93 Q1018.24 1308.93 1024.63 1314.3 Q1031.02 1319.67 1031.02 1328.65 Q1031.02 1332.91 1029.4 1336.75 Q1027.82 1340.55 1023.61 1345.73 Q1022.45 1347.07 1016.25 1353.51 Q1010.04 1359.9 998.749 1371.43 Z" fill="#000000" fill-rule="nonzero" fill-opacity="1" /><path clip-path="url(#clip310)" d="M1051.11 1310.18 L1087.82 1310.18 L1087.82 1318.05 L1059.67 1318.05 L1059.67 1334.99 Q1061.71 1334.3 1063.75 1333.97 Q1065.79 1333.6 1067.82 1333.6 Q1079.4 1333.6 1086.16 1339.94 Q1092.91 1346.29 1092.91 1357.12 Q1092.91 1368.28 1085.97 1374.48 Q1079.03 1380.64 1066.39 1380.64 Q1062.04 1380.64 1057.5 1379.9 Q1053.01 1379.16 1048.19 1377.68 L1048.19 1368.28 Q1052.36 1370.55 1056.8 1371.66 Q1061.25 1372.77 1066.2 1372.77 Q1074.21 1372.77 1078.89 1368.56 Q1083.56 1364.34 1083.56 1357.12 Q1083.56 1349.9 1078.89 1345.68 Q1074.21 1341.47 1066.2 1341.47 Q1062.45 1341.47 1058.7 1342.31 Q1055 1343.14 1051.11 1344.9 L1051.11 1310.18 Z" fill="#000000" fill-rule="nonzero" fill-opacity="1" /><path clip-path="url(#clip310)" d="M1194.17 1316.33 Q1186.95 1316.33 1183.29 1323.46 Q1179.68 1330.55 1179.68 1344.81 Q1179.68 1359.02 1183.29 1366.15 Q1186.95 1373.23 1194.17 1373.23 Q1201.44 1373.23 1205.05 1366.15 Q1208.71 1359.02 1208.71 1344.81 Q1208.71 1330.55 1205.05 1323.46 Q1201.44 1316.33 1194.17 1316.33 M1194.17 1308.93 Q1205.79 1308.93 1211.9 1318.14 Q1218.06 1327.31 1218.06 1344.81 Q1218.06 1362.26 1211.9 1371.47 Q1205.79 1380.64 1194.17 1380.64 Q1182.55 1380.64 1176.39 1371.47 Q1170.28 1362.26 1170.28 1344.81 Q1170.28 1327.31 1176.39 1318.14 Q1182.55 1308.93 1194.17 1308.93 Z" fill="#000000" fill-rule="nonzero" fill-opacity="1" /><path clip-path="url(#clip310)" d="M1234.49 1367.54 L1244.26 1367.54 L1244.26 1379.3 L1234.49 1379.3 L1234.49 1367.54 Z" fill="#000000" fill-rule="nonzero" fill-opacity="1" /><path clip-path="url(#clip310)" d="M1264.72 1310.18 L1301.44 1310.18 L1301.44 1318.05 L1273.29 1318.05 L1273.29 1334.99 Q1275.33 1334.3 1277.36 1333.97 Q1279.4 1333.6 1281.44 1333.6 Q1293.01 1333.6 1299.77 1339.94 Q1306.53 1346.29 1306.53 1357.12 Q1306.53 1368.28 1299.58 1374.48 Q1292.64 1380.64 1280 1380.64 Q1275.65 1380.64 1271.11 1379.9 Q1266.62 1379.16 1261.81 1377.68 L1261.81 1368.28 Q1265.97 1370.55 1270.42 1371.66 Q1274.86 1372.77 1279.82 1372.77 Q1287.83 1372.77 1292.5 1368.56 Q1297.18 1364.34 1297.18 1357.12 Q1297.18 1349.9 1292.5 1345.68 Q1287.83 1341.47 1279.82 1341.47 Q1276.07 1341.47 1272.32 1342.31 Q1268.61 1343.14 1264.72 1344.9 L1264.72 1310.18 Z" fill="#000000" fill-rule="nonzero" fill-opacity="1" /><path clip-path="url(#clip310)" d="M1344.96 1316.33 Q1337.73 1316.33 1334.08 1323.46 Q1330.46 1330.55 1330.46 1344.81 Q1330.46 1359.02 1334.08 1366.15 Q1337.73 1373.23 1344.96 1373.23 Q1352.22 1373.23 1355.83 1366.15 Q1359.49 1359.02 1359.49 1344.81 Q1359.49 1330.55 1355.83 1323.46 Q1352.22 1316.33 1344.96 1316.33 M1344.96 1308.93 Q1356.58 1308.93 1362.69 1318.14 Q1368.84 1327.31 1368.84 1344.81 Q1368.84 1362.26 1362.69 1371.47 Q1356.58 1380.64 1344.96 1380.64 Q1333.33 1380.64 1327.18 1371.47 Q1321.07 1362.26 1321.07 1344.81 Q1321.07 1327.31 1327.18 1318.14 Q1333.33 1308.93 1344.96 1308.93 Z" fill="#000000" fill-rule="nonzero" fill-opacity="1" /><path clip-path="url(#clip310)" d="M1470.1 1316.33 Q1462.88 1316.33 1459.22 1323.46 Q1455.61 1330.55 1455.61 1344.81 Q1455.61 1359.02 1459.22 1366.15 Q1462.88 1373.23 1470.1 1373.23 Q1477.37 1373.23 1480.98 1366.15 Q1484.63 1359.02 1484.63 1344.81 Q1484.63 1330.55 1480.98 1323.46 Q1477.37 1316.33 1470.1 1316.33 M1470.1 1308.93 Q1481.72 1308.93 1487.83 1318.14 Q1493.99 1327.31 1493.99 1344.81 Q1493.99 1362.26 1487.83 1371.47 Q1481.72 1380.64 1470.1 1380.64 Q1458.48 1380.64 1452.32 1371.47 Q1446.21 1362.26 1446.21 1344.81 Q1446.21 1327.31 1452.32 1318.14 Q1458.48 1308.93 1470.1 1308.93 Z" fill="#000000" fill-rule="nonzero" fill-opacity="1" /><path clip-path="url(#clip310)" d="M1510.42 1367.54 L1520.19 1367.54 L1520.19 1379.3 L1510.42 1379.3 L1510.42 1367.54 Z" fill="#000000" fill-rule="nonzero" fill-opacity="1" /><path clip-path="url(#clip310)" d="M1538.2 1310.18 L1582.64 1310.18 L1582.64 1314.16 L1557.55 1379.3 L1547.78 1379.3 L1571.39 1318.05 L1538.2 1318.05 L1538.2 1310.18 Z" fill="#000000" fill-rule="nonzero" fill-opacity="1" /><path clip-path="url(#clip310)" d="M1600.98 1310.18 L1637.69 1310.18 L1637.69 1318.05 L1609.54 1318.05 L1609.54 1334.99 Q1611.58 1334.3 1613.62 1333.97 Q1615.65 1333.6 1617.69 1333.6 Q1629.26 1333.6 1636.02 1339.94 Q1642.78 1346.29 1642.78 1357.12 Q1642.78 1368.28 1635.84 1374.48 Q1628.89 1380.64 1616.25 1380.64 Q1611.9 1380.64 1607.37 1379.9 Q1602.87 1379.16 1598.06 1377.68 L1598.06 1368.28 Q1602.23 1370.55 1606.67 1371.66 Q1611.12 1372.77 1616.07 1372.77 Q1624.08 1372.77 1628.75 1368.56 Q1633.43 1364.34 1633.43 1357.12 Q1633.43 1349.9 1628.75 1345.68 Q1624.08 1341.47 1616.07 1341.47 Q1612.32 1341.47 1608.57 1342.31 Q1604.87 1343.14 1600.98 1344.9 L1600.98 1310.18 Z" fill="#000000" fill-rule="nonzero" fill-opacity="1" /><path clip-path="url(#clip310)" d="M1723.57 1371.43 L1738.85 1371.43 L1738.85 1318.69 L1722.23 1322.03 L1722.23 1313.51 L1738.76 1310.18 L1748.11 1310.18 L1748.11 1371.43 L1763.39 1371.43 L1763.39 1379.3 L1723.57 1379.3 L1723.57 1371.43 Z" fill="#000000" fill-rule="nonzero" fill-opacity="1" /><path clip-path="url(#clip310)" d="M1782.28 1367.54 L1792.05 1367.54 L1792.05 1379.3 L1782.28 1379.3 L1782.28 1367.54 Z" fill="#000000" fill-rule="nonzero" fill-opacity="1" /><path clip-path="url(#clip310)" d="M1832.42 1316.33 Q1825.19 1316.33 1821.54 1323.46 Q1817.92 1330.55 1817.92 1344.81 Q1817.92 1359.02 1821.54 1366.15 Q1825.19 1373.23 1832.42 1373.23 Q1839.68 1373.23 1843.29 1366.15 Q1846.95 1359.02 1846.95 1344.81 Q1846.95 1330.55 1843.29 1323.46 Q1839.68 1316.33 1832.42 1316.33 M1832.42 1308.93 Q1844.04 1308.93 1850.15 1318.14 Q1856.3 1327.31 1856.3 1344.81 Q1856.3 1362.26 1850.15 1371.47 Q1844.04 1380.64 1832.42 1380.64 Q1820.79 1380.64 1814.64 1371.47 Q1808.53 1362.26 1808.53 1344.81 Q1808.53 1327.31 1814.64 1318.14 Q1820.79 1308.93 1832.42 1308.93 Z" fill="#000000" fill-rule="nonzero" fill-opacity="1" /><path clip-path="url(#clip310)" d="M1892.74 1316.33 Q1885.52 1316.33 1881.86 1323.46 Q1878.25 1330.55 1878.25 1344.81 Q1878.25 1359.02 1881.86 1366.15 Q1885.52 1373.23 1892.74 1373.23 Q1900.01 1373.23 1903.62 1366.15 Q1907.28 1359.02 1907.28 1344.81 Q1907.28 1330.55 1903.62 1323.46 Q1900.01 1316.33 1892.74 1316.33 M1892.74 1308.93 Q1904.36 1308.93 1910.47 1318.14 Q1916.63 1327.31 1916.63 1344.81 Q1916.63 1362.26 1910.47 1371.47 Q1904.36 1380.64 1892.74 1380.64 Q1881.12 1380.64 1874.96 1371.47 Q1868.85 1362.26 1868.85 1344.81 Q1868.85 1327.31 1874.96 1318.14 Q1881.12 1308.93 1892.74 1308.93 Z" fill="#000000" fill-rule="nonzero" fill-opacity="1" /><path clip-path="url(#clip310)" d="M1999.5 1371.43 L2014.78 1371.43 L2014.78 1318.69 L1998.16 1322.03 L1998.16 1313.51 L2014.69 1310.18 L2024.04 1310.18 L2024.04 1371.43 L2039.32 1371.43 L2039.32 1379.3 L1999.5 1379.3 L1999.5 1371.43 Z" fill="#000000" fill-rule="nonzero" fill-opacity="1" /><path clip-path="url(#clip310)" d="M2058.21 1367.54 L2067.97 1367.54 L2067.97 1379.3 L2058.21 1379.3 L2058.21 1367.54 Z" fill="#000000" fill-rule="nonzero" fill-opacity="1" /><path clip-path="url(#clip310)" d="M2096.4 1371.43 L2129.04 1371.43 L2129.04 1379.3 L2085.15 1379.3 L2085.15 1371.43 Q2090.47 1365.92 2099.64 1356.66 Q2108.85 1347.35 2111.21 1344.67 Q2115.71 1339.62 2117.46 1336.15 Q2119.27 1332.63 2119.27 1329.25 Q2119.27 1323.74 2115.38 1320.27 Q2111.54 1316.8 2105.33 1316.8 Q2100.94 1316.8 2096.03 1318.32 Q2091.17 1319.85 2085.61 1322.95 L2085.61 1313.51 Q2091.26 1311.24 2096.17 1310.08 Q2101.08 1308.93 2105.15 1308.93 Q2115.89 1308.93 2122.28 1314.3 Q2128.67 1319.67 2128.67 1328.65 Q2128.67 1332.91 2127.05 1336.75 Q2125.47 1340.55 2121.26 1345.73 Q2120.1 1347.07 2113.9 1353.51 Q2107.7 1359.9 2096.4 1371.43 Z" fill="#000000" fill-rule="nonzero" fill-opacity="1" /><path clip-path="url(#clip310)" d="M2148.76 1310.18 L2185.47 1310.18 L2185.47 1318.05 L2157.33 1318.05 L2157.33 1334.99 Q2159.36 1334.3 2161.4 1333.97 Q2163.44 1333.6 2165.47 1333.6 Q2177.05 1333.6 2183.81 1339.94 Q2190.57 1346.29 2190.57 1357.12 Q2190.57 1368.28 2183.62 1374.48 Q2176.68 1380.64 2164.04 1380.64 Q2159.69 1380.64 2155.15 1379.9 Q2150.66 1379.16 2145.84 1377.68 L2145.84 1368.28 Q2150.01 1370.55 2154.46 1371.66 Q2158.9 1372.77 2163.85 1372.77 Q2171.86 1372.77 2176.54 1368.56 Q2181.21 1364.34 2181.21 1357.12 Q2181.21 1349.9 2176.54 1345.68 Q2171.86 1341.47 2163.85 1341.47 Q2160.1 1341.47 2156.35 1342.31 Q2152.65 1343.14 2148.76 1344.9 L2148.76 1310.18 Z" fill="#000000" fill-rule="nonzero" fill-opacity="1" /><path clip-path="url(#clip310)" d="M1375.05 1484.39 L1375.05 1527.42 L1363.34 1527.42 L1363.34 1484.77 Q1363.34 1474.65 1359.39 1469.62 Q1355.45 1464.59 1347.55 1464.59 Q1338.07 1464.59 1332.59 1470.64 Q1327.12 1476.69 1327.12 1487.13 L1327.12 1527.42 L1315.34 1527.42 L1315.34 1428.37 L1327.12 1428.37 L1327.12 1467.2 Q1331.32 1460.77 1336.99 1457.59 Q1342.72 1454.41 1350.16 1454.41 Q1362.45 1454.41 1368.75 1462.05 Q1375.05 1469.62 1375.05 1484.39 Z" fill="#000000" fill-rule="nonzero" fill-opacity="1" /><path clip-path="url(#clip310)" d="M1426.04 1464.34 Q1416.62 1464.34 1411.15 1471.72 Q1405.67 1479.04 1405.67 1491.84 Q1405.67 1504.63 1411.08 1512.02 Q1416.56 1519.34 1426.04 1519.34 Q1435.4 1519.34 1440.87 1511.96 Q1446.35 1504.57 1446.35 1491.84 Q1446.35 1479.17 1440.87 1471.79 Q1435.4 1464.34 1426.04 1464.34 M1426.04 1454.41 Q1441.32 1454.41 1450.04 1464.34 Q1458.76 1474.27 1458.76 1491.84 Q1458.76 1509.35 1450.04 1519.34 Q1441.32 1529.27 1426.04 1529.27 Q1410.7 1529.27 1401.98 1519.34 Q1393.32 1509.35 1393.32 1491.84 Q1393.32 1474.27 1401.98 1464.34 Q1410.7 1454.41 1426.04 1454.41 Z" fill="#000000" fill-rule="nonzero" fill-opacity="1" /><path clip-path="url(#clip310)" d="M1476.97 1499.29 L1476.97 1456.13 L1488.68 1456.13 L1488.68 1498.84 Q1488.68 1508.96 1492.63 1514.06 Q1496.57 1519.08 1504.47 1519.08 Q1513.95 1519.08 1519.43 1513.04 Q1524.97 1506.99 1524.97 1496.55 L1524.97 1456.13 L1536.68 1456.13 L1536.68 1527.42 L1524.97 1527.42 L1524.97 1516.47 Q1520.7 1522.97 1515.04 1526.15 Q1509.43 1529.27 1501.99 1529.27 Q1489.7 1529.27 1483.33 1521.63 Q1476.97 1513.99 1476.97 1499.29 M1506.44 1454.41 L1506.44 1454.41 Z" fill="#000000" fill-rule="nonzero" fill-opacity="1" /><path clip-path="url(#clip310)" d="M1602.12 1467.08 Q1600.14 1465.93 1597.79 1465.42 Q1595.5 1464.85 1592.7 1464.85 Q1582.77 1464.85 1577.42 1471.34 Q1572.14 1477.77 1572.14 1489.87 L1572.14 1527.42 L1560.36 1527.42 L1560.36 1456.13 L1572.14 1456.13 L1572.14 1467.2 Q1575.83 1460.71 1581.75 1457.59 Q1587.67 1454.41 1596.13 1454.41 Q1597.34 1454.41 1598.81 1454.6 Q1600.27 1454.73 1602.05 1455.05 L1602.12 1467.08 Z" fill="#000000" fill-rule="nonzero" fill-opacity="1" /><path clip-path="url(#clip310)" d="M1659.86 1458.23 L1659.86 1469.3 Q1654.89 1466.76 1649.54 1465.49 Q1644.2 1464.21 1638.47 1464.21 Q1629.75 1464.21 1625.35 1466.89 Q1621.02 1469.56 1621.02 1474.91 Q1621.02 1478.98 1624.14 1481.34 Q1627.26 1483.63 1636.68 1485.73 L1640.69 1486.62 Q1653.17 1489.29 1658.39 1494.19 Q1663.67 1499.03 1663.67 1507.75 Q1663.67 1517.68 1655.78 1523.48 Q1647.95 1529.27 1634.2 1529.27 Q1628.47 1529.27 1622.23 1528.12 Q1616.06 1527.04 1609.18 1524.81 L1609.18 1512.72 Q1615.68 1516.09 1621.98 1517.81 Q1628.28 1519.47 1634.46 1519.47 Q1642.73 1519.47 1647.19 1516.67 Q1651.64 1513.8 1651.64 1508.64 Q1651.64 1503.87 1648.4 1501.32 Q1645.21 1498.78 1634.33 1496.42 L1630.25 1495.47 Q1619.37 1493.18 1614.53 1488.47 Q1609.69 1483.69 1609.69 1475.42 Q1609.69 1465.36 1616.82 1459.88 Q1623.95 1454.41 1637.07 1454.41 Q1643.56 1454.41 1649.29 1455.36 Q1655.02 1456.32 1659.86 1458.23 Z" fill="#000000" fill-rule="nonzero" fill-opacity="1" /><polyline clip-path="url(#clip312)" style="stroke:#000000; stroke-linecap:round; stroke-linejoin:round; stroke-width:4; stroke-opacity:0.1; fill:none" points="673.506,1143.46 2305.51,1143.46 "/>
<polyline clip-path="url(#clip312)" style="stroke:#000000; stroke-linecap:round; stroke-linejoin:round; stroke-width:4; stroke-opacity:0.1; fill:none" points="673.506,896.203 2305.51,896.203 "/>
<polyline clip-path="url(#clip312)" style="stroke:#000000; stroke-linecap:round; stroke-linejoin:round; stroke-width:4; stroke-opacity:0.1; fill:none" points="673.506,648.942 2305.51,648.942 "/>
<polyline clip-path="url(#clip312)" style="stroke:#000000; stroke-linecap:round; stroke-linejoin:round; stroke-width:4; stroke-opacity:0.1; fill:none" points="673.506,401.681 2305.51,401.681 "/>
<polyline clip-path="url(#clip312)" style="stroke:#000000; stroke-linecap:round; stroke-linejoin:round; stroke-width:4; stroke-opacity:0.1; fill:none" points="673.506,154.42 2305.51,154.42 "/>
<polyline clip-path="url(#clip310)" style="stroke:#000000; stroke-linecap:round; stroke-linejoin:round; stroke-width:8; stroke-opacity:1; fill:none" points="673.506,1273.7 673.506,94.4882 "/>
<polyline clip-path="url(#clip310)" style="stroke:#000000; stroke-linecap:round; stroke-linejoin:round; stroke-width:8; stroke-opacity:1; fill:none" points="673.506,1143.46 692.404,1143.46 "/>
<polyline clip-path="url(#clip310)" style="stroke:#000000; stroke-linecap:round; stroke-linejoin:round; stroke-width:8; stroke-opacity:1; fill:none" points="673.506,896.203 692.404,896.203 "/>
<polyline clip-path="url(#clip310)" style="stroke:#000000; stroke-linecap:round; stroke-linejoin:round; stroke-width:8; stroke-opacity:1; fill:none" points="673.506,648.942 692.404,648.942 "/>
<polyline clip-path="url(#clip310)" style="stroke:#000000; stroke-linecap:round; stroke-linejoin:round; stroke-width:8; stroke-opacity:1; fill:none" points="673.506,401.681 692.404,401.681 "/>
<polyline clip-path="url(#clip310)" style="stroke:#000000; stroke-linecap:round; stroke-linejoin:round; stroke-width:8; stroke-opacity:1; fill:none" points="673.506,154.42 692.404,154.42 "/>
<path clip-path="url(#clip310)" d="M384.128 1170.15 L399.405 1170.15 L399.405 1117.42 L382.785 1120.76 L382.785 1112.24 L399.313 1108.9 L408.665 1108.9 L408.665 1170.15 L423.942 1170.15 L423.942 1178.02 L384.128 1178.02 L384.128 1170.15 Z" fill="#000000" fill-rule="nonzero" fill-opacity="1" /><path clip-path="url(#clip310)" d="M462.831 1115.06 Q455.609 1115.06 451.951 1122.19 Q448.34 1129.27 448.34 1143.53 Q448.34 1157.75 451.951 1164.88 Q455.609 1171.96 462.831 1171.96 Q470.099 1171.96 473.711 1164.88 Q477.368 1157.75 477.368 1143.53 Q477.368 1129.27 473.711 1122.19 Q470.099 1115.06 462.831 1115.06 M462.831 1107.65 Q474.451 1107.65 480.562 1116.87 Q486.72 1126.03 486.72 1143.53 Q486.72 1160.99 480.562 1170.2 Q474.451 1179.37 462.831 1179.37 Q451.211 1179.37 445.053 1170.2 Q438.942 1160.99 438.942 1143.53 Q438.942 1126.03 445.053 1116.87 Q451.211 1107.65 462.831 1107.65 Z" fill="#000000" fill-rule="nonzero" fill-opacity="1" /><path clip-path="url(#clip310)" d="M503.247 1108.9 L539.96 1108.9 L539.96 1116.77 L511.812 1116.77 L511.812 1133.72 Q513.849 1133.02 515.886 1132.7 Q517.923 1132.33 519.96 1132.33 Q531.534 1132.33 538.294 1138.67 Q545.053 1145.02 545.053 1155.85 Q545.053 1167.01 538.108 1173.21 Q531.164 1179.37 518.525 1179.37 Q514.173 1179.37 509.636 1178.63 Q505.146 1177.89 500.331 1176.4 L500.331 1167.01 Q504.497 1169.27 508.942 1170.39 Q513.386 1171.5 518.34 1171.5 Q526.349 1171.5 531.025 1167.28 Q535.701 1163.07 535.701 1155.85 Q535.701 1148.63 531.025 1144.41 Q526.349 1140.2 518.34 1140.2 Q514.59 1140.2 510.84 1141.03 Q507.136 1141.87 503.247 1143.63 L503.247 1108.9 Z" fill="#000000" fill-rule="nonzero" fill-opacity="1" /><path clip-path="url(#clip310)" d="M563.479 1166.27 L573.247 1166.27 L573.247 1178.02 L563.479 1178.02 L563.479 1166.27 Z" fill="#000000" fill-rule="nonzero" fill-opacity="1" /><path clip-path="url(#clip310)" d="M613.617 1115.06 Q606.395 1115.06 602.738 1122.19 Q599.127 1129.27 599.127 1143.53 Q599.127 1157.75 602.738 1164.88 Q606.395 1171.96 613.617 1171.96 Q620.886 1171.96 624.497 1164.88 Q628.154 1157.75 628.154 1143.53 Q628.154 1129.27 624.497 1122.19 Q620.886 1115.06 613.617 1115.06 M613.617 1107.65 Q625.238 1107.65 631.349 1116.87 Q637.506 1126.03 637.506 1143.53 Q637.506 1160.99 631.349 1170.2 Q625.238 1179.37 613.617 1179.37 Q601.997 1179.37 595.84 1170.2 Q589.728 1160.99 589.728 1143.53 Q589.728 1126.03 595.84 1116.87 Q601.997 1107.65 613.617 1107.65 Z" fill="#000000" fill-rule="nonzero" fill-opacity="1" /><path clip-path="url(#clip310)" d="M384.128 922.893 L399.405 922.893 L399.405 870.162 L382.785 873.495 L382.785 864.977 L399.313 861.643 L408.665 861.643 L408.665 922.893 L423.942 922.893 L423.942 930.763 L384.128 930.763 L384.128 922.893 Z" fill="#000000" fill-rule="nonzero" fill-opacity="1" /><path clip-path="url(#clip310)" d="M444.451 922.893 L459.729 922.893 L459.729 870.162 L443.109 873.495 L443.109 864.977 L459.637 861.643 L468.988 861.643 L468.988 922.893 L484.266 922.893 L484.266 930.763 L444.451 930.763 L444.451 922.893 Z" fill="#000000" fill-rule="nonzero" fill-opacity="1" /><path clip-path="url(#clip310)" d="M523.155 867.801 Q515.933 867.801 512.275 874.93 Q508.664 882.014 508.664 896.273 Q508.664 910.486 512.275 917.615 Q515.933 924.699 523.155 924.699 Q530.423 924.699 534.034 917.615 Q537.692 910.486 537.692 896.273 Q537.692 882.014 534.034 874.93 Q530.423 867.801 523.155 867.801 M523.155 860.393 Q534.775 860.393 540.886 869.606 Q547.043 878.773 547.043 896.273 Q547.043 913.726 540.886 922.939 Q534.775 932.106 523.155 932.106 Q511.534 932.106 505.377 922.939 Q499.266 913.726 499.266 896.273 Q499.266 878.773 505.377 869.606 Q511.534 860.393 523.155 860.393 Z" fill="#000000" fill-rule="nonzero" fill-opacity="1" /><path clip-path="url(#clip310)" d="M563.479 919.004 L573.247 919.004 L573.247 930.763 L563.479 930.763 L563.479 919.004 Z" fill="#000000" fill-rule="nonzero" fill-opacity="1" /><path clip-path="url(#clip310)" d="M613.617 867.801 Q606.395 867.801 602.738 874.93 Q599.127 882.014 599.127 896.273 Q599.127 910.486 602.738 917.615 Q606.395 924.699 613.617 924.699 Q620.886 924.699 624.497 917.615 Q628.154 910.486 628.154 896.273 Q628.154 882.014 624.497 874.93 Q620.886 867.801 613.617 867.801 M613.617 860.393 Q625.238 860.393 631.349 869.606 Q637.506 878.773 637.506 896.273 Q637.506 913.726 631.349 922.939 Q625.238 932.106 613.617 932.106 Q601.997 932.106 595.84 922.939 Q589.728 913.726 589.728 896.273 Q589.728 878.773 595.84 869.606 Q601.997 860.393 613.617 860.393 Z" fill="#000000" fill-rule="nonzero" fill-opacity="1" /><path clip-path="url(#clip310)" d="M384.128 675.632 L399.405 675.632 L399.405 622.901 L382.785 626.234 L382.785 617.716 L399.313 614.382 L408.665 614.382 L408.665 675.632 L423.942 675.632 L423.942 683.502 L384.128 683.502 L384.128 675.632 Z" fill="#000000" fill-rule="nonzero" fill-opacity="1" /><path clip-path="url(#clip310)" d="M444.451 675.632 L459.729 675.632 L459.729 622.901 L443.109 626.234 L443.109 617.716 L459.637 614.382 L468.988 614.382 L468.988 675.632 L484.266 675.632 L484.266 683.502 L444.451 683.502 L444.451 675.632 Z" fill="#000000" fill-rule="nonzero" fill-opacity="1" /><path clip-path="url(#clip310)" d="M503.247 614.382 L539.96 614.382 L539.96 622.253 L511.812 622.253 L511.812 639.197 Q513.849 638.503 515.886 638.179 Q517.923 637.808 519.96 637.808 Q531.534 637.808 538.294 644.151 Q545.053 650.493 545.053 661.327 Q545.053 672.484 538.108 678.688 Q531.164 684.845 518.525 684.845 Q514.173 684.845 509.636 684.104 Q505.146 683.363 500.331 681.882 L500.331 672.484 Q504.497 674.752 508.942 675.864 Q513.386 676.975 518.34 676.975 Q526.349 676.975 531.025 672.762 Q535.701 668.549 535.701 661.327 Q535.701 654.104 531.025 649.891 Q526.349 645.679 518.34 645.679 Q514.59 645.679 510.84 646.512 Q507.136 647.345 503.247 649.104 L503.247 614.382 Z" fill="#000000" fill-rule="nonzero" fill-opacity="1" /><path clip-path="url(#clip310)" d="M563.479 671.743 L573.247 671.743 L573.247 683.502 L563.479 683.502 L563.479 671.743 Z" fill="#000000" fill-rule="nonzero" fill-opacity="1" /><path clip-path="url(#clip310)" d="M613.617 620.54 Q606.395 620.54 602.738 627.669 Q599.127 634.753 599.127 649.012 Q599.127 663.225 602.738 670.354 Q606.395 677.438 613.617 677.438 Q620.886 677.438 624.497 670.354 Q628.154 663.225 628.154 649.012 Q628.154 634.753 624.497 627.669 Q620.886 620.54 613.617 620.54 M613.617 613.132 Q625.238 613.132 631.349 622.345 Q637.506 631.512 637.506 649.012 Q637.506 666.465 631.349 675.678 Q625.238 684.845 613.617 684.845 Q601.997 684.845 595.84 675.678 Q589.728 666.465 589.728 649.012 Q589.728 631.512 595.84 622.345 Q601.997 613.132 613.617 613.132 Z" fill="#000000" fill-rule="nonzero" fill-opacity="1" /><path clip-path="url(#clip310)" d="M384.128 428.371 L399.405 428.371 L399.405 375.64 L382.785 378.973 L382.785 370.455 L399.313 367.121 L408.665 367.121 L408.665 428.371 L423.942 428.371 L423.942 436.241 L384.128 436.241 L384.128 428.371 Z" fill="#000000" fill-rule="nonzero" fill-opacity="1" /><path clip-path="url(#clip310)" d="M450.887 428.371 L483.525 428.371 L483.525 436.241 L439.637 436.241 L439.637 428.371 Q444.961 422.862 454.127 413.603 Q463.34 404.297 465.701 401.612 Q470.192 396.566 471.951 393.093 Q473.757 389.575 473.757 386.195 Q473.757 380.686 469.868 377.214 Q466.025 373.742 459.822 373.742 Q455.424 373.742 450.516 375.269 Q445.655 376.797 440.1 379.899 L440.1 370.455 Q445.748 368.186 450.655 367.029 Q455.562 365.871 459.637 365.871 Q470.377 365.871 476.766 371.242 Q483.155 376.612 483.155 385.593 Q483.155 389.853 481.535 393.695 Q479.961 397.492 475.748 402.677 Q474.59 404.019 468.387 410.454 Q462.183 416.843 450.887 428.371 Z" fill="#000000" fill-rule="nonzero" fill-opacity="1" /><path clip-path="url(#clip310)" d="M523.155 373.279 Q515.933 373.279 512.275 380.408 Q508.664 387.492 508.664 401.751 Q508.664 415.964 512.275 423.093 Q515.933 430.177 523.155 430.177 Q530.423 430.177 534.034 423.093 Q537.692 415.964 537.692 401.751 Q537.692 387.492 534.034 380.408 Q530.423 373.279 523.155 373.279 M523.155 365.871 Q534.775 365.871 540.886 375.084 Q547.043 384.251 547.043 401.751 Q547.043 419.204 540.886 428.417 Q534.775 437.584 523.155 437.584 Q511.534 437.584 505.377 428.417 Q499.266 419.204 499.266 401.751 Q499.266 384.251 505.377 375.084 Q511.534 365.871 523.155 365.871 Z" fill="#000000" fill-rule="nonzero" fill-opacity="1" /><path clip-path="url(#clip310)" d="M563.479 424.482 L573.247 424.482 L573.247 436.241 L563.479 436.241 L563.479 424.482 Z" fill="#000000" fill-rule="nonzero" fill-opacity="1" /><path clip-path="url(#clip310)" d="M613.617 373.279 Q606.395 373.279 602.738 380.408 Q599.127 387.492 599.127 401.751 Q599.127 415.964 602.738 423.093 Q606.395 430.177 613.617 430.177 Q620.886 430.177 624.497 423.093 Q628.154 415.964 628.154 401.751 Q628.154 387.492 624.497 380.408 Q620.886 373.279 613.617 373.279 M613.617 365.871 Q625.238 365.871 631.349 375.084 Q637.506 384.251 637.506 401.751 Q637.506 419.204 631.349 428.417 Q625.238 437.584 613.617 437.584 Q601.997 437.584 595.84 428.417 Q589.728 419.204 589.728 401.751 Q589.728 384.251 595.84 375.084 Q601.997 365.871 613.617 365.871 Z" fill="#000000" fill-rule="nonzero" fill-opacity="1" /><path clip-path="url(#clip310)" d="M384.128 181.11 L399.405 181.11 L399.405 128.379 L382.785 131.712 L382.785 123.194 L399.313 119.86 L408.665 119.86 L408.665 181.11 L423.942 181.11 L423.942 188.98 L384.128 188.98 L384.128 181.11 Z" fill="#000000" fill-rule="nonzero" fill-opacity="1" /><path clip-path="url(#clip310)" d="M450.887 181.11 L483.525 181.11 L483.525 188.98 L439.637 188.98 L439.637 181.11 Q444.961 175.601 454.127 166.342 Q463.34 157.036 465.701 154.351 Q470.192 149.305 471.951 145.832 Q473.757 142.314 473.757 138.934 Q473.757 133.425 469.868 129.953 Q466.025 126.481 459.822 126.481 Q455.424 126.481 450.516 128.008 Q445.655 129.536 440.1 132.638 L440.1 123.194 Q445.748 120.925 450.655 119.768 Q455.562 118.61 459.637 118.61 Q470.377 118.61 476.766 123.981 Q483.155 129.351 483.155 138.332 Q483.155 142.592 481.535 146.434 Q479.961 150.231 475.748 155.416 Q474.59 156.758 468.387 163.193 Q462.183 169.582 450.887 181.11 Z" fill="#000000" fill-rule="nonzero" fill-opacity="1" /><path clip-path="url(#clip310)" d="M503.247 119.86 L539.96 119.86 L539.96 127.731 L511.812 127.731 L511.812 144.675 Q513.849 143.981 515.886 143.656 Q517.923 143.286 519.96 143.286 Q531.534 143.286 538.294 149.629 Q545.053 155.971 545.053 166.805 Q545.053 177.962 538.108 184.166 Q531.164 190.323 518.525 190.323 Q514.173 190.323 509.636 189.582 Q505.146 188.841 500.331 187.36 L500.331 177.962 Q504.497 180.23 508.942 181.341 Q513.386 182.453 518.34 182.453 Q526.349 182.453 531.025 178.24 Q535.701 174.027 535.701 166.805 Q535.701 159.582 531.025 155.369 Q526.349 151.156 518.34 151.156 Q514.59 151.156 510.84 151.99 Q507.136 152.823 503.247 154.582 L503.247 119.86 Z" fill="#000000" fill-rule="nonzero" fill-opacity="1" /><path clip-path="url(#clip310)" d="M563.479 177.221 L573.247 177.221 L573.247 188.98 L563.479 188.98 L563.479 177.221 Z" fill="#000000" fill-rule="nonzero" fill-opacity="1" /><path clip-path="url(#clip310)" d="M613.617 126.018 Q606.395 126.018 602.738 133.147 Q599.127 140.231 599.127 154.49 Q599.127 168.703 602.738 175.832 Q606.395 182.916 613.617 182.916 Q620.886 182.916 624.497 175.832 Q628.154 168.703 628.154 154.49 Q628.154 140.231 624.497 133.147 Q620.886 126.018 613.617 126.018 M613.617 118.61 Q625.238 118.61 631.349 127.823 Q637.506 136.99 637.506 154.49 Q637.506 171.943 631.349 181.156 Q625.238 190.323 613.617 190.323 Q601.997 190.323 595.84 181.156 Q589.728 171.943 589.728 154.49 Q589.728 136.99 595.84 127.823 Q601.997 118.61 613.617 118.61 Z" fill="#000000" fill-rule="nonzero" fill-opacity="1" /><path clip-path="url(#clip310)" d="M307.579 933.309 L345.391 933.309 L345.391 945.086 L246.977 945.086 L246.977 933.309 L257.799 933.309 Q251.433 929.617 248.378 924.015 Q245.258 918.35 245.258 910.52 Q245.258 897.534 255.571 889.45 Q265.883 881.302 282.689 881.302 Q299.494 881.302 309.807 889.45 Q320.119 897.534 320.119 910.52 Q320.119 918.35 317.064 924.015 Q313.944 929.617 307.579 933.309 M282.689 893.46 Q269.766 893.46 262.446 898.807 Q255.062 904.091 255.062 913.385 Q255.062 922.679 262.446 928.026 Q269.766 933.309 282.689 933.309 Q295.611 933.309 302.995 928.026 Q310.316 922.679 310.316 913.385 Q310.316 904.091 302.995 898.807 Q295.611 893.46 282.689 893.46 Z" fill="#000000" fill-rule="nonzero" fill-opacity="1" /><path clip-path="url(#clip310)" d="M282.434 829.485 Q282.434 843.68 285.681 849.155 Q288.927 854.629 296.757 854.629 Q302.995 854.629 306.688 850.555 Q310.316 846.417 310.316 839.352 Q310.316 829.612 303.441 823.756 Q296.502 817.835 285.044 817.835 L282.434 817.835 L282.434 829.485 M277.596 806.123 L318.273 806.123 L318.273 817.835 L307.451 817.835 Q313.944 821.846 317.064 827.83 Q320.119 833.813 320.119 842.471 Q320.119 853.42 314.008 859.913 Q307.833 866.342 297.521 866.342 Q285.49 866.342 279.379 858.321 Q273.268 850.237 273.268 834.259 L273.268 817.835 L272.122 817.835 Q264.037 817.835 259.645 823.183 Q255.189 828.466 255.189 838.078 Q255.189 844.189 256.653 849.982 Q258.117 855.775 261.045 861.122 L250.224 861.122 Q247.741 854.693 246.532 848.645 Q245.258 842.598 245.258 836.869 Q245.258 821.4 253.279 813.761 Q261.3 806.123 277.596 806.123 Z" fill="#000000" fill-rule="nonzero" fill-opacity="1" /><path clip-path="url(#clip310)" d="M257.926 740.683 Q256.78 742.656 256.271 745.012 Q255.698 747.303 255.698 750.104 Q255.698 760.035 262.191 765.382 Q268.621 770.666 280.715 770.666 L318.273 770.666 L318.273 782.442 L246.977 782.442 L246.977 770.666 L258.054 770.666 Q251.561 766.973 248.441 761.053 Q245.258 755.133 245.258 746.667 Q245.258 745.457 245.449 743.993 Q245.577 742.529 245.895 740.747 L257.926 740.683 Z" fill="#000000" fill-rule="nonzero" fill-opacity="1" /><path clip-path="url(#clip310)" d="M279.697 670.278 L285.426 670.278 L285.426 724.132 Q297.521 723.368 303.887 716.875 Q310.189 710.319 310.189 698.669 Q310.189 691.922 308.534 685.62 Q306.878 679.254 303.568 673.016 L314.645 673.016 Q317.318 679.318 318.719 685.938 Q320.119 692.558 320.119 699.37 Q320.119 716.43 310.189 726.424 Q300.258 736.354 283.325 736.354 Q265.82 736.354 255.571 726.933 Q245.258 717.448 245.258 701.407 Q245.258 687.02 254.552 678.681 Q263.783 670.278 279.697 670.278 M276.259 681.991 Q266.647 682.119 260.918 687.402 Q255.189 692.622 255.189 701.279 Q255.189 711.083 260.727 717.003 Q266.265 722.859 276.323 723.75 L276.259 681.991 Z" fill="#000000" fill-rule="nonzero" fill-opacity="1" /><path clip-path="url(#clip310)" d="M275.241 591.789 L318.273 591.789 L318.273 603.502 L275.623 603.502 Q265.501 603.502 260.472 607.449 Q255.444 611.396 255.444 619.289 Q255.444 628.774 261.491 634.248 Q267.538 639.723 277.978 639.723 L318.273 639.723 L318.273 651.5 L246.977 651.5 L246.977 639.723 L258.054 639.723 Q251.624 635.522 248.441 629.856 Q245.258 624.127 245.258 616.679 Q245.258 604.393 252.897 598.091 Q260.472 591.789 275.241 591.789 Z" fill="#000000" fill-rule="nonzero" fill-opacity="1" /><path clip-path="url(#clip310)" d="M302.104 566.772 L302.104 553.34 L318.273 553.34 L318.273 566.772 L302.104 566.772 Z" fill="#000000" fill-rule="nonzero" fill-opacity="1" /><path clip-path="url(#clip310)" d="M265.629 454.799 Q265.629 463.457 271.549 468.549 Q277.469 473.578 287.781 473.578 Q298.03 473.578 304.014 468.549 Q309.934 463.457 309.934 454.799 Q309.934 446.142 304.014 441.113 Q298.03 436.02 287.781 436.02 Q277.469 436.02 271.549 441.113 Q265.629 446.142 265.629 454.799 M225.334 429.273 L237.047 429.273 Q234.755 434.111 233.546 439.076 Q232.336 443.978 232.336 448.815 Q232.336 461.547 240.93 468.295 Q249.523 474.979 266.902 475.933 Q261.364 472.178 258.435 466.512 Q255.444 460.847 255.444 454.035 Q255.444 439.712 264.165 431.437 Q272.822 423.098 287.781 423.098 Q302.422 423.098 311.271 431.755 Q320.119 440.413 320.119 454.799 Q320.119 471.286 307.515 480.007 Q294.847 488.728 270.849 488.728 Q248.314 488.728 234.946 478.034 Q221.514 467.34 221.514 449.325 Q221.514 444.487 222.469 439.585 Q223.424 434.62 225.334 429.273 Z" fill="#000000" fill-rule="nonzero" fill-opacity="1" /><polyline clip-path="url(#clip312)" style="stroke:#008000; stroke-linecap:round; stroke-linejoin:round; stroke-width:8; stroke-opacity:1; fill:none" points="719.695,947.679 829.668,548.786 939.642,542.84 1049.62,543.9 1159.59,409.968 1269.56,127.862 1379.54,653.36 1489.51,277.833 1599.48,523.437 1709.46,695.162 1819.43,484.262 1929.4,1072.9 2039.38,896.475 2149.35,1066.08 2259.32,1037.41 "/>
<circle clip-path="url(#clip312)" cx="719.695" cy="947.679" r="14.4" fill="#008000" fill-rule="evenodd" fill-opacity="1" stroke="#000000" stroke-opacity="1" stroke-width="6.4"/>
<circle clip-path="url(#clip312)" cx="829.668" cy="548.786" r="14.4" fill="#008000" fill-rule="evenodd" fill-opacity="1" stroke="#000000" stroke-opacity="1" stroke-width="6.4"/>
<circle clip-path="url(#clip312)" cx="939.642" cy="542.84" r="14.4" fill="#008000" fill-rule="evenodd" fill-opacity="1" stroke="#000000" stroke-opacity="1" stroke-width="6.4"/>
<circle clip-path="url(#clip312)" cx="1049.62" cy="543.9" r="14.4" fill="#008000" fill-rule="evenodd" fill-opacity="1" stroke="#000000" stroke-opacity="1" stroke-width="6.4"/>
<circle clip-path="url(#clip312)" cx="1159.59" cy="409.968" r="14.4" fill="#008000" fill-rule="evenodd" fill-opacity="1" stroke="#000000" stroke-opacity="1" stroke-width="6.4"/>
<circle clip-path="url(#clip312)" cx="1269.56" cy="127.862" r="14.4" fill="#008000" fill-rule="evenodd" fill-opacity="1" stroke="#000000" stroke-opacity="1" stroke-width="6.4"/>
<circle clip-path="url(#clip312)" cx="1379.54" cy="653.36" r="14.4" fill="#008000" fill-rule="evenodd" fill-opacity="1" stroke="#000000" stroke-opacity="1" stroke-width="6.4"/>
<circle clip-path="url(#clip312)" cx="1489.51" cy="277.833" r="14.4" fill="#008000" fill-rule="evenodd" fill-opacity="1" stroke="#000000" stroke-opacity="1" stroke-width="6.4"/>
<circle clip-path="url(#clip312)" cx="1599.48" cy="523.437" r="14.4" fill="#008000" fill-rule="evenodd" fill-opacity="1" stroke="#000000" stroke-opacity="1" stroke-width="6.4"/>
<circle clip-path="url(#clip312)" cx="1709.46" cy="695.162" r="14.4" fill="#008000" fill-rule="evenodd" fill-opacity="1" stroke="#000000" stroke-opacity="1" stroke-width="6.4"/>
<circle clip-path="url(#clip312)" cx="1819.43" cy="484.262" r="14.4" fill="#008000" fill-rule="evenodd" fill-opacity="1" stroke="#000000" stroke-opacity="1" stroke-width="6.4"/>
<circle clip-path="url(#clip312)" cx="1929.4" cy="1072.9" r="14.4" fill="#008000" fill-rule="evenodd" fill-opacity="1" stroke="#000000" stroke-opacity="1" stroke-width="6.4"/>
<circle clip-path="url(#clip312)" cx="2039.38" cy="896.475" r="14.4" fill="#008000" fill-rule="evenodd" fill-opacity="1" stroke="#000000" stroke-opacity="1" stroke-width="6.4"/>
<circle clip-path="url(#clip312)" cx="2149.35" cy="1066.08" r="14.4" fill="#008000" fill-rule="evenodd" fill-opacity="1" stroke="#000000" stroke-opacity="1" stroke-width="6.4"/>
<circle clip-path="url(#clip312)" cx="2259.32" cy="1037.41" r="14.4" fill="#008000" fill-rule="evenodd" fill-opacity="1" stroke="#000000" stroke-opacity="1" stroke-width="6.4"/>
<polyline clip-path="url(#clip312)" style="stroke:#00008b; stroke-linecap:round; stroke-linejoin:round; stroke-width:8; stroke-opacity:1; fill:none" points="719.695,616.195 829.668,501.853 939.642,427.257 1049.62,404.484 1159.59,402.118 1269.56,430.762 1379.54,465.121 1489.51,517.84 1599.48,583.136 1709.46,666.241 1819.43,749.184 1929.4,824.05 2039.38,911.473 2149.35,998.413 2259.32,1088.59 "/>
<path clip-path="url(#clip312)" d="M719.695 771.762 L829.668 653.369 L939.642 581.664 L1049.62 550.549 L1159.59 564.205 L1269.56 583.685 L1379.54 620 L1489.51 665.253 L1599.48 739.638 L1709.46 815.045 L1819.43 904.385 L1929.4 978.836 L2039.38 1069.32 L2149.35 1159.95 L2259.32 1240.32 L2259.32 928.961 L2149.35 841.362 L2039.38 755.688 L1929.4 671.316 L1819.43 593.883 L1709.46 511.777 L1599.48 422.116 L1489.51 370.393 L1379.54 307.862 L1269.56 273.33 L1159.59 247.468 L1049.62 257.489 L939.642 271.558 L829.668 353.03 L719.695 464.083  Z" fill="#0000ff" fill-rule="evenodd" fill-opacity="0.1"/>
<polyline clip-path="url(#clip312)" style="stroke:#0000ff; stroke-linecap:round; stroke-linejoin:round; stroke-width:0; stroke-opacity:0.1; fill:none" points="719.695,771.762 829.668,653.369 939.642,581.664 1049.62,550.549 1159.59,564.205 1269.56,583.685 1379.54,620 1489.51,665.253 1599.48,739.638 1709.46,815.045 1819.43,904.385 1929.4,978.836 2039.38,1069.32 2149.35,1159.95 2259.32,1240.32 "/>
</svg>
