<?xml version="1.0" encoding="utf-8"?>
<svg xmlns="http://www.w3.org/2000/svg" xmlns:xlink="http://www.w3.org/1999/xlink" width="600" height="400" viewBox="0 0 2400 1600">
<defs>
  <clipPath id="clip030">
    <rect x="0" y="0" width="2400" height="1600"/>
  </clipPath>
</defs>
<path clip-path="url(#clip030)" d="M0 1600 L2400 1600 L2400 0 L0 0  Z" fill="#ffffff" fill-rule="evenodd" fill-opacity="1"/>
<defs>
  <clipPath id="clip031">
    <rect x="480" y="0" width="1681" height="1600"/>
  </clipPath>
</defs>
<path clip-path="url(#clip030)" d="M673.506 1273.7 L2305.51 1273.7 L2305.51 94.4882 L673.506 94.4882  Z" fill="#ffffff" fill-rule="evenodd" fill-opacity="1"/>
<defs>
  <clipPath id="clip032">
    <rect x="673" y="94" width="1633" height="1180"/>
  </clipPath>
</defs>
<polyline clip-path="url(#clip032)" style="stroke:#000000; stroke-linecap:round; stroke-linejoin:round; stroke-width:4; stroke-opacity:0.1; fill:none" points="719.695,1273.7 719.695,94.4882 "/>
<polyline clip-path="url(#clip032)" style="stroke:#000000; stroke-linecap:round; stroke-linejoin:round; stroke-width:4; stroke-opacity:0.1; fill:none" points="994.628,1273.7 994.628,94.4882 "/>
<polyline clip-path="url(#clip032)" style="stroke:#000000; stroke-linecap:round; stroke-linejoin:round; stroke-width:4; stroke-opacity:0.1; fill:none" points="1269.56,1273.7 1269.56,94.4882 "/>
<polyline clip-path="url(#clip032)" style="stroke:#000000; stroke-linecap:round; stroke-linejoin:round; stroke-width:4; stroke-opacity:0.1; fill:none" points="1544.5,1273.7 1544.5,94.4882 "/>
<polyline clip-path="url(#clip032)" style="stroke:#000000; stroke-linecap:round; stroke-linejoin:round; stroke-width:4; stroke-opacity:0.1; fill:none" points="1819.43,1273.7 1819.43,94.4882 "/>
<polyline clip-path="url(#clip032)" style="stroke:#000000; stroke-linecap:round; stroke-linejoin:round; stroke-width:4; stroke-opacity:0.1; fill:none" points="2094.36,1273.7 2094.36,94.4882 "/>
<polyline clip-path="url(#clip030)" style="stroke:#000000; stroke-linecap:round; stroke-linejoin:round; stroke-width:8; stroke-opacity:1; fill:none" points="673.506,1273.7 2305.51,1273.7 "/>
<polyline clip-path="url(#clip030)" style="stroke:#000000; stroke-linecap:round; stroke-linejoin:round; stroke-width:8; stroke-opacity:1; fill:none" points="719.695,1273.7 719.695,1254.8 "/>
<polyline clip-path="url(#clip030)" style="stroke:#000000; stroke-linecap:round; stroke-linejoin:round; stroke-width:8; stroke-opacity:1; fill:none" points="994.628,1273.7 994.628,1254.8 "/>
<polyline clip-path="url(#clip030)" style="stroke:#000000; stroke-linecap:round; stroke-linejoin:round; stroke-width:8; stroke-opacity:1; fill:none" points="1269.56,1273.7 1269.56,1254.8 "/>
<polyline clip-path="url(#clip030)" style="stroke:#000000; stroke-linecap:round; stroke-linejoin:round; stroke-width:8; stroke-opacity:1; fill:none" points="1544.5,1273.7 1544.5,1254.8 "/>
<polyline clip-path="url(#clip030)" style="stroke:#000000; stroke-linecap:round; stroke-linejoin:round; stroke-width:8; stroke-opacity:1; fill:none" points="1819.43,1273.7 1819.43,1254.8 "/>
<polyline clip-path="url(#clip030)" style="stroke:#000000; stroke-linecap:round; stroke-linejoin:round; stroke-width:8; stroke-opacity:1; fill:none" points="2094.36,1273.7 2094.36,1254.8 "/>
<path clip-path="url(#clip030)" d="M644.302 1316.33 Q637.08 1316.33 633.422 1323.46 Q629.811 1330.55 629.811 1344.81 Q629.811 1359.02 633.422 1366.15 Q637.08 1373.23 644.302 1373.23 Q651.57 1373.23 655.181 1366.15 Q658.839 1359.02 658.839 1344.81 Q658.839 1330.55 655.181 1323.46 Q651.57 1316.33 644.302 1316.33 M644.302 1308.93 Q655.922 1308.93 662.033 1318.14 Q668.19 1327.31 668.19 1344.81 Q668.19 1362.26 662.033 1371.47 Q655.922 1380.64 644.302 1380.64 Q632.681 1380.64 626.524 1371.47 Q620.413 1362.26 620.413 1344.81 Q620.413 1327.31 626.524 1318.14 Q632.681 1308.93 644.302 1308.93 Z" fill="#000000" fill-rule="nonzero" fill-opacity="1" /><path clip-path="url(#clip030)" d="M684.626 1367.54 L694.394 1367.54 L694.394 1379.3 L684.626 1379.3 L684.626 1367.54 Z" fill="#000000" fill-rule="nonzero" fill-opacity="1" /><path clip-path="url(#clip030)" d="M734.764 1316.33 Q727.542 1316.33 723.885 1323.46 Q720.274 1330.55 720.274 1344.81 Q720.274 1359.02 723.885 1366.15 Q727.542 1373.23 734.764 1373.23 Q742.033 1373.23 745.644 1366.15 Q749.301 1359.02 749.301 1344.81 Q749.301 1330.55 745.644 1323.46 Q742.033 1316.33 734.764 1316.33 M734.764 1308.93 Q746.384 1308.93 752.496 1318.14 Q758.653 1327.31 758.653 1344.81 Q758.653 1362.26 752.496 1371.47 Q746.384 1380.64 734.764 1380.64 Q723.144 1380.64 716.986 1371.47 Q710.875 1362.26 710.875 1344.81 Q710.875 1327.31 716.986 1318.14 Q723.144 1308.93 734.764 1308.93 Z" fill="#000000" fill-rule="nonzero" fill-opacity="1" /><path clip-path="url(#clip030)" d="M795.088 1316.33 Q787.866 1316.33 784.208 1323.46 Q780.597 1330.55 780.597 1344.81 Q780.597 1359.02 784.208 1366.15 Q787.866 1373.23 795.088 1373.23 Q802.356 1373.23 805.967 1366.15 Q809.625 1359.02 809.625 1344.81 Q809.625 1330.55 805.967 1323.46 Q802.356 1316.33 795.088 1316.33 M795.088 1308.93 Q806.708 1308.93 812.819 1318.14 Q818.977 1327.31 818.977 1344.81 Q818.977 1362.26 812.819 1371.47 Q806.708 1380.64 795.088 1380.64 Q783.468 1380.64 777.31 1371.47 Q771.199 1362.26 771.199 1344.81 Q771.199 1327.31 777.31 1318.14 Q783.468 1308.93 795.088 1308.93 Z" fill="#000000" fill-rule="nonzero" fill-opacity="1" /><path clip-path="url(#clip030)" d="M920.231 1316.33 Q913.008 1316.33 909.351 1323.46 Q905.74 1330.55 905.74 1344.81 Q905.74 1359.02 909.351 1366.15 Q913.008 1373.23 920.231 1373.23 Q927.499 1373.23 931.11 1366.15 Q934.768 1359.02 934.768 1344.81 Q934.768 1330.55 931.11 1323.46 Q927.499 1316.33 920.231 1316.33 M920.231 1308.93 Q931.851 1308.93 937.962 1318.14 Q944.119 1327.31 944.119 1344.81 Q944.119 1362.26 937.962 1371.47 Q931.851 1380.64 920.231 1380.64 Q908.61 1380.64 902.453 1371.47 Q896.342 1362.26 896.342 1344.81 Q896.342 1327.31 902.453 1318.14 Q908.61 1308.93 920.231 1308.93 Z" fill="#000000" fill-rule="nonzero" fill-opacity="1" /><path clip-path="url(#clip030)" d="M960.555 1367.54 L970.323 1367.54 L970.323 1379.3 L960.555 1379.3 L960.555 1367.54 Z" fill="#000000" fill-rule="nonzero" fill-opacity="1" /><path clip-path="url(#clip030)" d="M998.749 1371.43 L1031.39 1371.43 L1031.39 1379.3 L987.499 1379.3 L987.499 1371.43 Q992.823 1365.92 1001.99 1356.66 Q1011.2 1347.35 1013.56 1344.67 Q1018.05 1339.62 1019.81 1336.15 Q1021.62 1332.63 1021.62 1329.25 Q1021.62 1323.74 1017.73 1320.27 Q1013.89 1316.8 1007.68 1316.8 Q1003.29 1316.8 998.378 1318.32 Q993.517 1319.85 987.962 1322.95 L987.962 1313.51 Q993.61 1311.24 998.517 1310.08 Q1003.42 1308.93 1007.5 1308.93 Q1018.24 1308.93 1024.63 1314.3 Q1031.02 1319.67 1031.02 1328.65 Q1031.02 1332.91 1029.4 1336.75 Q1027.82 1340.55 1023.61 1345.73 Q1022.45 1347.07 1016.25 1353.51 Q1010.04 1359.9 998.749 1371.43 Z" fill="#000000" fill-rule="nonzero" fill-opacity="1" /><path clip-path="url(#clip030)" d="M1051.11 1310.18 L1087.82 1310.18 L1087.82 1318.05 L1059.67 1318.05 L1059.67 1334.99 Q1061.71 1334.3 1063.75 1333.97 Q1065.79 1333.6 1067.82 1333.6 Q1079.4 1333.6 1086.16 1339.94 Q1092.91 1346.29 1092.91 1357.12 Q1092.91 1368.28 1085.97 1374.48 Q1079.03 1380.64 1066.39 1380.64 Q1062.04 1380.64 1057.5 1379.9 Q1053.01 1379.16 1048.19 1377.68 L1048.19 1368.28 Q1052.36 1370.55 1056.8 1371.66 Q1061.25 1372.77 1066.2 1372.77 Q1074.21 1372.77 1078.89 1368.56 Q1083.56 1364.34 1083.56 1357.12 Q1083.56 1349.9 1078.89 1345.68 Q1074.21 1341.47 1066.2 1341.47 Q1062.45 1341.47 1058.7 1342.31 Q1055 1343.14 1051.11 1344.9 L1051.11 1310.18 Z" fill="#000000" fill-rule="nonzero" fill-opacity="1" /><path clip-path="url(#clip030)" d="M1194.17 1316.33 Q1186.95 1316.33 1183.29 1323.46 Q1179.68 1330.55 1179.68 1344.81 Q1179.68 1359.02 1183.29 1366.15 Q1186.95 1373.23 1194.17 1373.23 Q1201.44 1373.23 1205.05 1366.15 Q1208.71 1359.02 1208.71 1344.81 Q1208.71 1330.55 1205.05 1323.46 Q1201.44 1316.33 1194.17 1316.33 M1194.17 1308.93 Q1205.79 1308.93 1211.9 1318.14 Q1218.06 1327.31 1218.06 1344.81 Q1218.06 1362.26 1211.9 1371.47 Q1205.79 1380.64 1194.17 1380.64 Q1182.55 1380.64 1176.39 1371.47 Q1170.28 1362.26 1170.28 1344.81 Q1170.28 1327.31 1176.39 1318.14 Q1182.55 1308.93 1194.17 1308.93 Z" fill="#000000" fill-rule="nonzero" fill-opacity="1" /><path clip-path="url(#clip030)" d="M1234.49 1367.54 L1244.26 1367.54 L1244.26 1379.3 L1234.49 1379.3 L1234.49 1367.54 Z" fill="#000000" fill-rule="nonzero" fill-opacity="1" /><path clip-path="url(#clip030)" d="M1264.72 1310.18 L1301.44 1310.18 L1301.44 1318.05 L1273.29 1318.05 L1273.29 1334.99 Q1275.33 1334.3 1277.36 1333.97 Q1279.4 1333.6 1281.44 1333.6 Q1293.01 1333.6 1299.77 1339.94 Q1306.53 1346.29 1306.53 1357.12 Q1306.53 1368.28 1299.58 1374.48 Q1292.64 1380.64 1280 1380.64 Q1275.65 1380.64 1271.11 1379.9 Q1266.62 1379.16 1261.81 1377.68 L1261.81 1368.28 Q1265.97 1370.55 1270.42 1371.66 Q1274.86 1372.77 1279.82 1372.77 Q1287.83 1372.77 1292.5 1368.56 Q1297.18 1364.34 1297.18 1357.12 Q1297.18 1349.9 1292.5 1345.68 Q1287.83 1341.47 1279.82 1341.47 Q1276.07 1341.47 1272.32 1342.31 Q1268.61 1343.14 1264.72 1344.9 L1264.72 1310.18 Z" fill="#000000" fill-rule="nonzero" fill-opacity="1" /><path clip-path="url(#clip030)" d="M1344.96 1316.33 Q1337.73 1316.33 1334.08 1323.46 Q1330.46 1330.55 1330.46 1344.81 Q1330.46 1359.02 1334.08 1366.15 Q1337.73 1373.23 1344.96 1373.23 Q1352.22 1373.23 1355.83 1366.15 Q1359.49 1359.02 1359.49 1344.81 Q1359.49 1330.55 1355.83 1323.46 Q1352.22 1316.33 1344.96 1316.33 M1344.96 1308.93 Q1356.58 1308.93 1362.69 1318.14 Q1368.84 1327.31 1368.84 1344.81 Q1368.84 1362.26 1362.69 1371.47 Q1356.58 1380.64 1344.96 1380.64 Q1333.33 1380.64 1327.18 1371.47 Q1321.07 1362.26 1321.07 1344.81 Q1321.07 1327.31 1327.18 1318.14 Q1333.33 1308.93 1344.96 1308.93 Z" fill="#000000" fill-rule="nonzero" fill-opacity="1" /><path clip-path="url(#clip030)" d="M1470.1 1316.33 Q1462.88 1316.33 1459.22 1323.46 Q1455.61 1330.55 1455.61 1344.81 Q1455.61 1359.02 1459.22 1366.15 Q1462.88 1373.23 1470.1 1373.23 Q1477.37 1373.23 1480.98 1366.15 Q1484.63 1359.02 1484.63 1344.81 Q1484.63 1330.55 1480.98 1323.46 Q1477.37 1316.33 1470.1 1316.33 M1470.1 1308.93 Q1481.72 1308.93 1487.83 1318.14 Q1493.99 1327.31 1493.99 1344.81 Q1493.99 1362.26 1487.83 1371.47 Q1481.72 1380.64 1470.1 1380.64 Q1458.48 1380.64 1452.32 1371.47 Q1446.21 1362.26 1446.21 1344.81 Q1446.21 1327.31 1452.32 1318.14 Q1458.48 1308.93 1470.1 1308.93 Z" fill="#000000" fill-rule="nonzero" fill-opacity="1" /><path clip-path="url(#clip030)" d="M1510.42 1367.54 L1520.19 1367.54 L1520.19 1379.3 L1510.42 1379.3 L1510.42 1367.54 Z" fill="#000000" fill-rule="nonzero" fill-opacity="1" /><path clip-path="url(#clip030)" d="M1538.2 1310.18 L1582.64 1310.18 L1582.64 1314.16 L1557.55 1379.3 L1547.78 1379.3 L1571.39 1318.05 L1538.2 1318.05 L1538.2 1310.18 Z" fill="#000000" fill-rule="nonzero" fill-opacity="1" /><path clip-path="url(#clip030)" d="M1600.98 1310.18 L1637.69 1310.18 L1637.69 1318.05 L1609.54 1318.05 L1609.54 1334.99 Q1611.58 1334.3 1613.62 1333.97 Q1615.65 1333.6 1617.69 1333.6 Q1629.26 1333.6 1636.02 1339.94 Q1642.78 1346.29 1642.78 1357.12 Q1642.78 1368.28 1635.84 1374.48 Q1628.89 1380.64 1616.25 1380.64 Q1611.9 1380.64 1607.37 1379.9 Q1602.87 1379.16 1598.06 1377.68 L1598.06 1368.28 Q1602.23 1370.55 1606.67 1371.66 Q1611.12 1372.77 1616.07 1372.77 Q1624.08 1372.77 1628.75 1368.56 Q1633.43 1364.34 1633.43 1357.12 Q1633.43 1349.9 1628.75 1345.68 Q1624.08 1341.47 1616.07 1341.47 Q1612.32 1341.47 1608.57 1342.31 Q1604.87 1343.14 1600.98 1344.9 L1600.98 1310.18 Z" fill="#000000" fill-rule="nonzero" fill-opacity="1" /><path clip-path="url(#clip030)" d="M1723.57 1371.43 L1738.85 1371.43 L1738.85 1318.69 L1722.23 1322.03 L1722.23 1313.51 L1738.76 1310.18 L1748.11 1310.18 L1748.11 1371.43 L1763.39 1371.43 L1763.39 1379.3 L1723.57 1379.3 L1723.57 1371.43 Z" fill="#000000" fill-rule="nonzero" fill-opacity="1" /><path clip-path="url(#clip030)" d="M1782.28 1367.54 L1792.05 1367.54 L1792.05 1379.3 L1782.28 1379.3 L1782.28 1367.54 Z" fill="#000000" fill-rule="nonzero" fill-opacity="1" /><path clip-path="url(#clip030)" d="M1832.42 1316.33 Q1825.19 1316.33 1821.54 1323.46 Q1817.92 1330.55 1817.92 1344.81 Q1817.92 1359.02 1821.54 1366.15 Q1825.19 1373.23 1832.42 1373.23 Q1839.68 1373.23 1843.29 1366.15 Q1846.95 1359.02 1846.95 1344.81 Q1846.95 1330.55 1843.29 1323.46 Q1839.68 1316.33 1832.42 1316.33 M1832.42 1308.93 Q1844.04 1308.93 1850.15 1318.14 Q1856.3 1327.31 1856.3 1344.81 Q1856.3 1362.26 1850.15 1371.47 Q1844.04 1380.64 1832.42 1380.64 Q1820.79 1380.64 1814.64 1371.47 Q1808.53 1362.26 1808.53 1344.81 Q1808.53 1327.31 1814.64 1318.14 Q1820.79 1308.93 1832.42 1308.93 Z" fill="#000000" fill-rule="nonzero" fill-opacity="1" /><path clip-path="url(#clip030)" d="M1892.74 1316.33 Q1885.52 1316.33 1881.86 1323.46 Q1878.25 1330.55 1878.25 1344.81 Q1878.25 1359.02 1881.86 1366.15 Q1885.52 1373.23 1892.74 1373.23 Q1900.01 1373.23 1903.62 1366.15 Q1907.28 1359.02 1907.28 1344.81 Q1907.28 1330.55 1903.62 1323.46 Q1900.01 1316.33 1892.74 1316.33 M1892.74 1308.93 Q1904.36 1308.93 1910.47 1318.14 Q1916.63 1327.31 1916.63 1344.81 Q1916.63 1362.26 1910.47 1371.47 Q1904.36 1380.64 1892.74 1380.64 Q1881.12 1380.64 1874.96 1371.47 Q1868.85 1362.26 1868.85 1344.81 Q1868.85 1327.31 1874.96 1318.14 Q1881.12 1308.93 1892.74 1308.93 Z" fill="#000000" fill-rule="nonzero" fill-opacity="1" /><path clip-path="url(#clip030)" d="M1999.5 1371.43 L2014.78 1371.43 L2014.78 1318.69 L1998.16 1322.03 L1998.16 1313.51 L2014.69 1310.18 L2024.04 1310.18 L2024.04 1371.43 L2039.32 1371.43 L2039.32 1379.3 L1999.5 1379.3 L1999.5 1371.43 Z" fill="#000000" fill-rule="nonzero" fill-opacity="1" /><path clip-path="url(#clip030)" d="M2058.21 1367.54 L2067.97 1367.54 L2067.97 1379.3 L2058.21 1379.3 L2058.21 1367.54 Z" fill="#000000" fill-rule="nonzero" fill-opacity="1" /><path clip-path="url(#clip030)" d="M2096.4 1371.43 L2129.04 1371.43 L2129.04 1379.3 L2085.15 1379.3 L2085.15 1371.43 Q2090.47 1365.92 2099.64 1356.66 Q2108.85 1347.35 2111.21 1344.67 Q2115.71 1339.62 2117.46 1336.15 Q2119.27 1332.63 2119.27 1329.25 Q2119.27 1323.74 2115.38 1320.27 Q2111.54 1316.8 2105.33 1316.8 Q2100.94 1316.8 2096.03 1318.32 Q2091.17 1319.85 2085.61 1322.95 L2085.61 1313.51 Q2091.26 1311.24 2096.17 1310.08 Q2101.08 1308.93 2105.15 1308.93 Q2115.89 1308.93 2122.28 1314.3 Q2128.67 1319.67 2128.67 1328.65 Q2128.67 1332.91 2127.05 1336.75 Q2125.47 1340.55 2121.26 1345.73 Q2120.1 1347.07 2113.9 1353.51 Q2107.7 1359.9 2096.4 1371.43 Z" fill="#000000" fill-rule="nonzero" fill-opacity="1" /><path clip-path="url(#clip030)" d="M2148.76 1310.18 L2185.47 1310.18 L2185.47 1318.05 L2157.33 1318.05 L2157.33 1334.99 Q2159.36 1334.3 2161.4 1333.97 Q2163.44 1333.6 2165.47 1333.6 Q2177.05 1333.6 2183.81 1339.94 Q2190.57 1346.29 2190.57 1357.12 Q2190.57 1368.28 2183.62 1374.48 Q2176.68 1380.64 2164.04 1380.64 Q2159.69 1380.64 2155.15 1379.9 Q2150.66 1379.16 2145.84 1377.68 L2145.84 1368.28 Q2150.01 1370.55 2154.46 1371.66 Q2158.9 1372.77 2163.85 1372.77 Q2171.86 1372.77 2176.54 1368.56 Q2181.21 1364.34 2181.21 1357.12 Q2181.21 1349.9 2176.54 1345.68 Q2171.86 1341.47 2163.85 1341.47 Q2160.1 1341.47 2156.35 1342.31 Q2152.65 1343.14 2148.76 1344.9 L2148.76 1310.18 Z" fill="#000000" fill-rule="nonzero" fill-opacity="1" /><path clip-path="url(#clip030)" d="M1375.05 1484.39 L1375.05 1527.42 L1363.34 1527.42 L1363.34 1484.77 Q1363.34 1474.65 1359.39 1469.62 Q1355.45 1464.59 1347.55 1464.59 Q1338.07 1464.59 1332.59 1470.64 Q1327.12 1476.69 1327.12 1487.13 L1327.12 1527.42 L1315.34 1527.42 L1315.34 1428.37 L1327.12 1428.37 L1327.12 1467.2 Q1331.32 1460.77 1336.99 1457.59 Q1342.72 1454.41 1350.16 1454.41 Q1362.45 1454.41 1368.75 1462.05 Q1375.05 1469.62 1375.05 1484.39 Z" fill="#000000" fill-rule="nonzero" fill-opacity="1" /><path clip-path="url(#clip030)" d="M1426.04 1464.34 Q1416.62 1464.34 1411.15 1471.72 Q1405.67 1479.04 1405.67 1491.84 Q1405.67 1504.63 1411.08 1512.02 Q1416.56 1519.34 1426.04 1519.34 Q1435.4 1519.34 1440.87 1511.96 Q1446.35 1504.57 1446.35 1491.84 Q1446.35 1479.17 1440.87 1471.79 Q1435.4 1464.34 1426.04 1464.34 M1426.04 1454.41 Q1441.32 1454.41 1450.04 1464.34 Q1458.76 1474.27 1458.76 1491.84 Q1458.76 1509.35 1450.04 1519.34 Q1441.32 1529.27 1426.04 1529.27 Q1410.7 1529.27 1401.98 1519.34 Q1393.32 1509.35 1393.32 1491.84 Q1393.32 1474.27 1401.98 1464.34 Q1410.7 1454.41 1426.04 1454.41 Z" fill="#000000" fill-rule="nonzero" fill-opacity="1" /><path clip-path="url(#clip030)" d="M1476.97 1499.29 L1476.97 1456.13 L1488.68 1456.13 L1488.68 1498.84 Q1488.68 1508.96 1492.63 1514.06 Q1496.57 1519.08 1504.47 1519.08 Q1513.95 1519.08 1519.43 1513.04 Q1524.97 1506.99 1524.97 1496.55 L1524.97 1456.13 L1536.68 1456.13 L1536.68 1527.42 L1524.97 1527.42 L1524.97 1516.47 Q1520.7 1522.97 1515.04 1526.15 Q1509.43 1529.27 1501.99 1529.27 Q1489.7 1529.27 1483.33 1521.63 Q1476.97 1513.99 1476.97 1499.29 M1506.44 1454.41 L1506.44 1454.41 Z" fill="#000000" fill-rule="nonzero" fill-opacity="1" /><path clip-path="url(#clip030)" d="M1602.12 1467.08 Q1600.14 1465.93 1597.79 1465.42 Q1595.5 1464.85 1592.7 1464.85 Q1582.77 1464.85 1577.42 1471.34 Q1572.14 1477.77 1572.14 1489.87 L1572.14 1527.42 L1560.36 1527.42 L1560.36 1456.13 L1572.14 1456.13 L1572.14 1467.2 Q1575.83 1460.71 1581.75 1457.59 Q1587.67 1454.41 1596.13 1454.41 Q1597.34 1454.41 1598.81 1454.6 Q1600.27 1454.73 1602.05 1455.05 L1602.12 1467.08 Z" fill="#000000" fill-rule="nonzero" fill-opacity="1" /><path clip-path="url(#clip030)" d="M1659.86 1458.23 L1659.86 1469.3 Q1654.89 1466.76 1649.54 1465.49 Q1644.2 1464.21 1638.47 1464.21 Q1629.75 1464.21 1625.35 1466.89 Q1621.02 1469.56 1621.02 1474.91 Q1621.02 1478.98 1624.14 1481.34 Q1627.26 1483.63 1636.68 1485.73 L1640.69 1486.62 Q1653.17 1489.29 1658.39 1494.19 Q1663.67 1499.03 1663.67 1507.75 Q1663.67 1517.68 1655.78 1523.48 Q1647.95 1529.27 1634.2 1529.27 Q1628.47 1529.27 1622.23 1528.12 Q1616.06 1527.04 1609.18 1524.81 L1609.18 1512.72 Q1615.68 1516.09 1621.98 1517.81 Q1628.28 1519.47 1634.46 1519.47 Q1642.73 1519.47 1647.19 1516.67 Q1651.64 1513.8 1651.64 1508.64 Q1651.64 1503.87 1648.4 1501.32 Q1645.21 1498.78 1634.33 1496.42 L1630.25 1495.47 Q1619.37 1493.18 1614.53 1488.47 Q1609.69 1483.69 1609.69 1475.42 Q1609.69 1465.36 1616.82 1459.88 Q1623.95 1454.41 1637.07 1454.41 Q1643.56 1454.41 1649.29 1455.36 Q1655.02 1456.32 1659.86 1458.23 Z" fill="#000000" fill-rule="nonzero" fill-opacity="1" /><polyline clip-path="url(#clip032)" style="stroke:#000000; stroke-linecap:round; stroke-linejoin:round; stroke-width:4; stroke-opacity:0.1; fill:none" points="673.506,1230.25 2305.51,1230.25 "/>
<polyline clip-path="url(#clip032)" style="stroke:#000000; stroke-linecap:round; stroke-linejoin:round; stroke-width:4; stroke-opacity:0.1; fill:none" points="673.506,928.26 2305.51,928.26 "/>
<polyline clip-path="url(#clip032)" style="stroke:#000000; stroke-linecap:round; stroke-linejoin:round; stroke-width:4; stroke-opacity:0.1; fill:none" points="673.506,626.274 2305.51,626.274 "/>
<polyline clip-path="url(#clip032)" style="stroke:#000000; stroke-linecap:round; stroke-linejoin:round; stroke-width:4; stroke-opacity:0.1; fill:none" points="673.506,324.288 2305.51,324.288 "/>
<polyline clip-path="url(#clip030)" style="stroke:#000000; stroke-linecap:round; stroke-linejoin:round; stroke-width:8; stroke-opacity:1; fill:none" points="673.506,1273.7 673.506,94.4882 "/>
<polyline clip-path="url(#clip030)" style="stroke:#000000; stroke-linecap:round; stroke-linejoin:round; stroke-width:8; stroke-opacity:1; fill:none" points="673.506,1230.25 692.404,1230.25 "/>
<polyline clip-path="url(#clip030)" style="stroke:#000000; stroke-linecap:round; stroke-linejoin:round; stroke-width:8; stroke-opacity:1; fill:none" points="673.506,928.26 692.404,928.26 "/>
<polyline clip-path="url(#clip030)" style="stroke:#000000; stroke-linecap:round; stroke-linejoin:round; stroke-width:8; stroke-opacity:1; fill:none" points="673.506,626.274 692.404,626.274 "/>
<polyline clip-path="url(#clip030)" style="stroke:#000000; stroke-linecap:round; stroke-linejoin:round; stroke-width:8; stroke-opacity:1; fill:none" points="673.506,324.288 692.404,324.288 "/>
<path clip-path="url(#clip030)" d="M468.525 1203.83 L444.914 1240.73 L468.525 1240.73 L468.525 1203.83 M466.072 1195.69 L477.831 1195.69 L477.831 1240.73 L487.692 1240.73 L487.692 1248.51 L477.831 1248.51 L477.831 1264.81 L468.525 1264.81 L468.525 1248.51 L437.322 1248.51 L437.322 1239.48 L466.072 1195.69 Z" fill="#000000" fill-rule="nonzero" fill-opacity="1" /><path clip-path="url(#clip030)" d="M523.155 1201.84 Q515.933 1201.84 512.275 1208.97 Q508.664 1216.06 508.664 1230.31 Q508.664 1244.53 512.275 1251.66 Q515.933 1258.74 523.155 1258.74 Q530.423 1258.74 534.034 1251.66 Q537.692 1244.53 537.692 1230.31 Q537.692 1216.06 534.034 1208.97 Q530.423 1201.84 523.155 1201.84 M523.155 1194.44 Q534.775 1194.44 540.886 1203.65 Q547.043 1212.81 547.043 1230.31 Q547.043 1247.77 540.886 1256.98 Q534.775 1266.15 523.155 1266.15 Q511.534 1266.15 505.377 1256.98 Q499.266 1247.77 499.266 1230.31 Q499.266 1212.81 505.377 1203.65 Q511.534 1194.44 523.155 1194.44 Z" fill="#000000" fill-rule="nonzero" fill-opacity="1" /><path clip-path="url(#clip030)" d="M563.479 1253.05 L573.247 1253.05 L573.247 1264.81 L563.479 1264.81 L563.479 1253.05 Z" fill="#000000" fill-rule="nonzero" fill-opacity="1" /><path clip-path="url(#clip030)" d="M613.617 1201.84 Q606.395 1201.84 602.738 1208.97 Q599.127 1216.06 599.127 1230.31 Q599.127 1244.53 602.738 1251.66 Q606.395 1258.74 613.617 1258.74 Q620.886 1258.74 624.497 1251.66 Q628.154 1244.53 628.154 1230.31 Q628.154 1216.06 624.497 1208.97 Q620.886 1201.84 613.617 1201.84 M613.617 1194.44 Q625.238 1194.44 631.349 1203.65 Q637.506 1212.81 637.506 1230.31 Q637.506 1247.77 631.349 1256.98 Q625.238 1266.15 613.617 1266.15 Q601.997 1266.15 595.84 1256.98 Q589.728 1247.77 589.728 1230.31 Q589.728 1212.81 595.84 1203.65 Q601.997 1194.44 613.617 1194.44 Z" fill="#000000" fill-rule="nonzero" fill-opacity="1" /><path clip-path="url(#clip030)" d="M463.988 924.533 Q457.692 924.533 453.988 928.838 Q450.331 933.144 450.331 940.644 Q450.331 948.097 453.988 952.449 Q457.692 956.755 463.988 956.755 Q470.285 956.755 473.942 952.449 Q477.646 948.097 477.646 940.644 Q477.646 933.144 473.942 928.838 Q470.285 924.533 463.988 924.533 M482.553 895.227 L482.553 903.746 Q479.035 902.079 475.424 901.2 Q471.859 900.32 468.34 900.32 Q459.081 900.32 454.174 906.57 Q449.313 912.82 448.618 925.459 Q451.35 921.431 455.47 919.301 Q459.59 917.125 464.544 917.125 Q474.961 917.125 480.979 923.468 Q487.044 929.764 487.044 940.644 Q487.044 951.292 480.748 957.727 Q474.451 964.162 463.988 964.162 Q451.998 964.162 445.655 954.996 Q439.313 945.783 439.313 928.329 Q439.313 911.94 447.09 902.218 Q454.868 892.45 467.97 892.45 Q471.488 892.45 475.053 893.144 Q478.664 893.839 482.553 895.227 Z" fill="#000000" fill-rule="nonzero" fill-opacity="1" /><path clip-path="url(#clip030)" d="M523.155 899.857 Q515.933 899.857 512.275 906.987 Q508.664 914.07 508.664 928.329 Q508.664 942.542 512.275 949.672 Q515.933 956.755 523.155 956.755 Q530.423 956.755 534.034 949.672 Q537.692 942.542 537.692 928.329 Q537.692 914.07 534.034 906.987 Q530.423 899.857 523.155 899.857 M523.155 892.45 Q534.775 892.45 540.886 901.663 Q547.043 910.829 547.043 928.329 Q547.043 945.783 540.886 954.996 Q534.775 964.162 523.155 964.162 Q511.534 964.162 505.377 954.996 Q499.266 945.783 499.266 928.329 Q499.266 910.829 505.377 901.663 Q511.534 892.45 523.155 892.45 Z" fill="#000000" fill-rule="nonzero" fill-opacity="1" /><path clip-path="url(#clip030)" d="M563.479 951.06 L573.247 951.06 L573.247 962.82 L563.479 962.82 L563.479 951.06 Z" fill="#000000" fill-rule="nonzero" fill-opacity="1" /><path clip-path="url(#clip030)" d="M613.617 899.857 Q606.395 899.857 602.738 906.987 Q599.127 914.07 599.127 928.329 Q599.127 942.542 602.738 949.672 Q606.395 956.755 613.617 956.755 Q620.886 956.755 624.497 949.672 Q628.154 942.542 628.154 928.329 Q628.154 914.07 624.497 906.987 Q620.886 899.857 613.617 899.857 M613.617 892.45 Q625.238 892.45 631.349 901.663 Q637.506 910.829 637.506 928.329 Q637.506 945.783 631.349 954.996 Q625.238 964.162 613.617 964.162 Q601.997 964.162 595.84 954.996 Q589.728 945.783 589.728 928.329 Q589.728 910.829 595.84 901.663 Q601.997 892.45 613.617 892.45 Z" fill="#000000" fill-rule="nonzero" fill-opacity="1" /><path clip-path="url(#clip030)" d="M462.831 628.01 Q456.164 628.01 452.322 631.575 Q448.525 635.14 448.525 641.39 Q448.525 647.64 452.322 651.204 Q456.164 654.769 462.831 654.769 Q469.498 654.769 473.34 651.204 Q477.183 647.593 477.183 641.39 Q477.183 635.14 473.34 631.575 Q469.544 628.01 462.831 628.01 M453.479 624.029 Q447.461 622.547 444.081 618.427 Q440.748 614.306 440.748 608.381 Q440.748 600.094 446.627 595.279 Q452.553 590.464 462.831 590.464 Q473.155 590.464 479.035 595.279 Q484.914 600.094 484.914 608.381 Q484.914 614.306 481.535 618.427 Q478.201 622.547 472.229 624.029 Q478.988 625.603 482.738 630.186 Q486.535 634.769 486.535 641.39 Q486.535 651.436 480.377 656.806 Q474.266 662.177 462.831 662.177 Q451.396 662.177 445.238 656.806 Q439.127 651.436 439.127 641.39 Q439.127 634.769 442.924 630.186 Q446.72 625.603 453.479 624.029 M450.053 609.26 Q450.053 614.631 453.387 617.64 Q456.766 620.649 462.831 620.649 Q468.849 620.649 472.229 617.64 Q475.655 614.631 475.655 609.26 Q475.655 603.89 472.229 600.881 Q468.849 597.871 462.831 597.871 Q456.766 597.871 453.387 600.881 Q450.053 603.89 450.053 609.26 Z" fill="#000000" fill-rule="nonzero" fill-opacity="1" /><path clip-path="url(#clip030)" d="M523.155 597.871 Q515.933 597.871 512.275 605.001 Q508.664 612.084 508.664 626.343 Q508.664 640.556 512.275 647.686 Q515.933 654.769 523.155 654.769 Q530.423 654.769 534.034 647.686 Q537.692 640.556 537.692 626.343 Q537.692 612.084 534.034 605.001 Q530.423 597.871 523.155 597.871 M523.155 590.464 Q534.775 590.464 540.886 599.677 Q547.043 608.844 547.043 626.343 Q547.043 643.797 540.886 653.01 Q534.775 662.177 523.155 662.177 Q511.534 662.177 505.377 653.01 Q499.266 643.797 499.266 626.343 Q499.266 608.844 505.377 599.677 Q511.534 590.464 523.155 590.464 Z" fill="#000000" fill-rule="nonzero" fill-opacity="1" /><path clip-path="url(#clip030)" d="M563.479 649.075 L573.247 649.075 L573.247 660.834 L563.479 660.834 L563.479 649.075 Z" fill="#000000" fill-rule="nonzero" fill-opacity="1" /><path clip-path="url(#clip030)" d="M613.617 597.871 Q606.395 597.871 602.738 605.001 Q599.127 612.084 599.127 626.343 Q599.127 640.556 602.738 647.686 Q606.395 654.769 613.617 654.769 Q620.886 654.769 624.497 647.686 Q628.154 640.556 628.154 626.343 Q628.154 612.084 624.497 605.001 Q620.886 597.871 613.617 597.871 M613.617 590.464 Q625.238 590.464 631.349 599.677 Q637.506 608.844 637.506 626.343 Q637.506 643.797 631.349 653.01 Q625.238 662.177 613.617 662.177 Q601.997 662.177 595.84 653.01 Q589.728 643.797 589.728 626.343 Q589.728 608.844 595.84 599.677 Q601.997 590.464 613.617 590.464 Z" fill="#000000" fill-rule="nonzero" fill-opacity="1" /><path clip-path="url(#clip030)" d="M384.128 350.978 L399.405 350.978 L399.405 298.247 L382.785 301.58 L382.785 293.062 L399.313 289.728 L408.665 289.728 L408.665 350.978 L423.942 350.978 L423.942 358.848 L384.128 358.848 L384.128 350.978 Z" fill="#000000" fill-rule="nonzero" fill-opacity="1" /><path clip-path="url(#clip030)" d="M462.831 295.886 Q455.609 295.886 451.951 303.015 Q448.34 310.099 448.34 324.358 Q448.34 338.571 451.951 345.7 Q455.609 352.784 462.831 352.784 Q470.099 352.784 473.711 345.7 Q477.368 338.571 477.368 324.358 Q477.368 310.099 473.711 303.015 Q470.099 295.886 462.831 295.886 M462.831 288.478 Q474.451 288.478 480.562 297.691 Q486.72 306.858 486.72 324.358 Q486.72 341.811 480.562 351.024 Q474.451 360.191 462.831 360.191 Q451.211 360.191 445.053 351.024 Q438.942 341.811 438.942 324.358 Q438.942 306.858 445.053 297.691 Q451.211 288.478 462.831 288.478 Z" fill="#000000" fill-rule="nonzero" fill-opacity="1" /><path clip-path="url(#clip030)" d="M523.155 295.886 Q515.933 295.886 512.275 303.015 Q508.664 310.099 508.664 324.358 Q508.664 338.571 512.275 345.7 Q515.933 352.784 523.155 352.784 Q530.423 352.784 534.034 345.7 Q537.692 338.571 537.692 324.358 Q537.692 310.099 534.034 303.015 Q530.423 295.886 523.155 295.886 M523.155 288.478 Q534.775 288.478 540.886 297.691 Q547.043 306.858 547.043 324.358 Q547.043 341.811 540.886 351.024 Q534.775 360.191 523.155 360.191 Q511.534 360.191 505.377 351.024 Q499.266 341.811 499.266 324.358 Q499.266 306.858 505.377 297.691 Q511.534 288.478 523.155 288.478 Z" fill="#000000" fill-rule="nonzero" fill-opacity="1" /><path clip-path="url(#clip030)" d="M563.479 347.089 L573.247 347.089 L573.247 358.848 L563.479 358.848 L563.479 347.089 Z" fill="#000000" fill-rule="nonzero" fill-opacity="1" /><path clip-path="url(#clip030)" d="M613.617 295.886 Q606.395 295.886 602.738 303.015 Q599.127 310.099 599.127 324.358 Q599.127 338.571 602.738 345.7 Q606.395 352.784 613.617 352.784 Q620.886 352.784 624.497 345.7 Q628.154 338.571 628.154 324.358 Q628.154 310.099 624.497 303.015 Q620.886 295.886 613.617 295.886 M613.617 288.478 Q625.238 288.478 631.349 297.691 Q637.506 306.858 637.506 324.358 Q637.506 341.811 631.349 351.024 Q625.238 360.191 613.617 360.191 Q601.997 360.191 595.84 351.024 Q589.728 341.811 589.728 324.358 Q589.728 306.858 595.84 297.691 Q601.997 288.478 613.617 288.478 Z" fill="#000000" fill-rule="nonzero" fill-opacity="1" /><path clip-path="url(#clip030)" d="M249.714 913.798 L260.663 913.798 Q257.926 918.764 256.589 923.793 Q255.189 928.758 255.189 933.85 Q255.189 945.245 262.446 951.547 Q269.639 957.849 282.689 957.849 Q295.739 957.849 302.995 951.547 Q310.189 945.245 310.189 933.85 Q310.189 928.758 308.852 923.793 Q307.451 918.764 304.714 913.798 L315.536 913.798 Q317.828 918.7 318.973 923.984 Q320.119 929.204 320.119 935.124 Q320.119 951.229 309.998 960.714 Q299.876 970.199 282.689 970.199 Q265.247 970.199 255.253 960.65 Q245.258 951.038 245.258 934.36 Q245.258 928.949 246.404 923.793 Q247.486 918.636 249.714 913.798 Z" fill="#000000" fill-rule="nonzero" fill-opacity="1" /><path clip-path="url(#clip030)" d="M255.189 865.801 Q255.189 875.222 262.573 880.697 Q269.894 886.171 282.689 886.171 Q295.484 886.171 302.868 880.76 Q310.189 875.286 310.189 865.801 Q310.189 856.443 302.804 850.969 Q295.42 845.494 282.689 845.494 Q270.021 845.494 262.637 850.969 Q255.189 856.443 255.189 865.801 M245.258 865.801 Q245.258 850.523 255.189 841.802 Q265.119 833.081 282.689 833.081 Q300.195 833.081 310.189 841.802 Q320.119 850.523 320.119 865.801 Q320.119 881.142 310.189 889.863 Q300.195 898.521 282.689 898.521 Q265.119 898.521 255.189 889.863 Q245.258 881.142 245.258 865.801 Z" fill="#000000" fill-rule="nonzero" fill-opacity="1" /><path clip-path="url(#clip030)" d="M275.241 754.401 L318.273 754.401 L318.273 766.114 L275.623 766.114 Q265.501 766.114 260.472 770.061 Q255.444 774.008 255.444 781.901 Q255.444 791.386 261.491 796.86 Q267.538 802.335 277.978 802.335 L318.273 802.335 L318.273 814.112 L246.977 814.112 L246.977 802.335 L258.054 802.335 Q251.624 798.134 248.441 792.468 Q245.258 786.739 245.258 779.291 Q245.258 767.005 252.897 760.703 Q260.472 754.401 275.241 754.401 Z" fill="#000000" fill-rule="nonzero" fill-opacity="1" /><path clip-path="url(#clip030)" d="M249.714 679.731 L260.663 679.731 Q257.926 684.697 256.589 689.726 Q255.189 694.691 255.189 699.783 Q255.189 711.178 262.446 717.48 Q269.639 723.782 282.689 723.782 Q295.739 723.782 302.995 717.48 Q310.189 711.178 310.189 699.783 Q310.189 694.691 308.852 689.726 Q307.451 684.697 304.714 679.731 L315.536 679.731 Q317.828 684.633 318.973 689.917 Q320.119 695.136 320.119 701.057 Q320.119 717.162 309.998 726.647 Q299.876 736.132 282.689 736.132 Q265.247 736.132 255.253 726.583 Q245.258 716.971 245.258 700.293 Q245.258 694.882 246.404 689.726 Q247.486 684.569 249.714 679.731 Z" fill="#000000" fill-rule="nonzero" fill-opacity="1" /><path clip-path="url(#clip030)" d="M302.104 657.706 L302.104 644.274 L318.273 644.274 L318.273 657.706 L302.104 657.706 Z" fill="#000000" fill-rule="nonzero" fill-opacity="1" /><path clip-path="url(#clip030)" d="M230.554 504.802 L244.113 504.802 Q238.065 511.295 235.073 518.679 Q232.081 526 232.081 534.275 Q232.081 550.571 242.076 559.229 Q252.006 567.886 270.849 567.886 Q289.627 567.886 299.622 559.229 Q309.552 550.571 309.552 534.275 Q309.552 526 306.56 518.679 Q303.568 511.295 297.521 504.802 L310.953 504.802 Q315.536 511.549 317.828 519.125 Q320.119 526.636 320.119 535.039 Q320.119 556.619 306.942 569.032 Q293.701 581.445 270.849 581.445 Q247.932 581.445 234.755 569.032 Q221.514 556.619 221.514 535.039 Q221.514 526.509 223.806 518.997 Q226.034 511.422 230.554 504.802 Z" fill="#000000" fill-rule="nonzero" fill-opacity="1" /><path clip-path="url(#clip030)" d="M223.233 484.941 L223.233 465.78 L287.909 441.527 L223.233 417.146 L223.233 397.985 L318.273 397.985 L318.273 410.526 L234.819 410.526 L300.004 435.034 L300.004 447.956 L234.819 472.464 L318.273 472.464 L318.273 484.941 L223.233 484.941 Z" fill="#000000" fill-rule="nonzero" fill-opacity="1" /><polyline clip-path="url(#clip032)" style="stroke:#008000; stroke-linecap:round; stroke-linejoin:round; stroke-width:8; stroke-opacity:1; fill:none" points="719.695,1112.77 829.668,977.424 939.642,822.272 1049.62,633.603 1159.59,375.061 1269.56,574.625 1379.54,344.946 1489.51,578.869 1599.48,482.412 1709.46,324.288 1819.43,716.057 1929.4,484.959 2039.38,447.054 2149.35,961.582 2259.32,776.166 "/>
<circle clip-path="url(#clip032)" cx="719.695" cy="1112.77" r="14.4" fill="#008000" fill-rule="evenodd" fill-opacity="1" stroke="#000000" stroke-opacity="1" stroke-width="6.4"/>
<circle clip-path="url(#clip032)" cx="829.668" cy="977.424" r="14.4" fill="#008000" fill-rule="evenodd" fill-opacity="1" stroke="#000000" stroke-opacity="1" stroke-width="6.4"/>
<circle clip-path="url(#clip032)" cx="939.642" cy="822.272" r="14.4" fill="#008000" fill-rule="evenodd" fill-opacity="1" stroke="#000000" stroke-opacity="1" stroke-width="6.4"/>
<circle clip-path="url(#clip032)" cx="1049.62" cy="633.603" r="14.4" fill="#008000" fill-rule="evenodd" fill-opacity="1" stroke="#000000" stroke-opacity="1" stroke-width="6.4"/>
<circle clip-path="url(#clip032)" cx="1159.59" cy="375.061" r="14.4" fill="#008000" fill-rule="evenodd" fill-opacity="1" stroke="#000000" stroke-opacity="1" stroke-width="6.4"/>
<circle clip-path="url(#clip032)" cx="1269.56" cy="574.625" r="14.4" fill="#008000" fill-rule="evenodd" fill-opacity="1" stroke="#000000" stroke-opacity="1" stroke-width="6.4"/>
<circle clip-path="url(#clip032)" cx="1379.54" cy="344.946" r="14.4" fill="#008000" fill-rule="evenodd" fill-opacity="1" stroke="#000000" stroke-opacity="1" stroke-width="6.4"/>
<circle clip-path="url(#clip032)" cx="1489.51" cy="578.869" r="14.4" fill="#008000" fill-rule="evenodd" fill-opacity="1" stroke="#000000" stroke-opacity="1" stroke-width="6.4"/>
<circle clip-path="url(#clip032)" cx="1599.48" cy="482.412" r="14.4" fill="#008000" fill-rule="evenodd" fill-opacity="1" stroke="#000000" stroke-opacity="1" stroke-width="6.4"/>
<circle clip-path="url(#clip032)" cx="1709.46" cy="324.288" r="14.4" fill="#008000" fill-rule="evenodd" fill-opacity="1" stroke="#000000" stroke-opacity="1" stroke-width="6.4"/>
<circle clip-path="url(#clip032)" cx="1819.43" cy="716.057" r="14.4" fill="#008000" fill-rule="evenodd" fill-opacity="1" stroke="#000000" stroke-opacity="1" stroke-width="6.4"/>
<circle clip-path="url(#clip032)" cx="1929.4" cy="484.959" r="14.4" fill="#008000" fill-rule="evenodd" fill-opacity="1" stroke="#000000" stroke-opacity="1" stroke-width="6.4"/>
<circle clip-path="url(#clip032)" cx="2039.38" cy="447.054" r="14.4" fill="#008000" fill-rule="evenodd" fill-opacity="1" stroke="#000000" stroke-opacity="1" stroke-width="6.4"/>
<circle clip-path="url(#clip032)" cx="2149.35" cy="961.582" r="14.4" fill="#008000" fill-rule="evenodd" fill-opacity="1" stroke="#000000" stroke-opacity="1" stroke-width="6.4"/>
<circle clip-path="url(#clip032)" cx="2259.32" cy="776.166" r="14.4" fill="#008000" fill-rule="evenodd" fill-opacity="1" stroke="#000000" stroke-opacity="1" stroke-width="6.4"/>
<polyline clip-path="url(#clip032)" style="stroke:#00008b; stroke-linecap:round; stroke-linejoin:round; stroke-width:8; stroke-opacity:1; fill:none" points="719.695,1116 829.668,835.183 939.642,625.619 1049.62,481.465 1159.59,374.863 1269.56,303.155 1379.54,262.566 1489.51,247.057 1599.48,255.038 1709.46,265.723 1819.43,296.808 1929.4,327.167 2039.38,374.828 2149.35,441.72 2259.32,485.019 "/>
<path clip-path="url(#clip032)" d="M719.695 1240.32 L829.668 958.078 L939.642 741.664 L1049.62 607.016 L1159.59 507.628 L1269.56 422.225 L1379.54 385.879 L1489.51 365.508 L1599.48 371.818 L1709.46 380.373 L1819.43 419.559 L1929.4 445.52 L2039.38 494.366 L2149.35 569.072 L2259.32 605.236 L2259.32 360.088 L2149.35 313.368 L2039.38 253.708 L1929.4 212.103 L1819.43 172.687 L1709.46 143.055 L1599.48 141.498 L1489.51 127.862 L1379.54 136.364 L1269.56 186.508 L1159.59 256.597 L1049.62 359.995 L939.642 499.647 L829.668 716.539 L719.695 993.895  Z" fill="#0000ff" fill-rule="evenodd" fill-opacity="0.1"/>
<polyline clip-path="url(#clip032)" style="stroke:#0000ff; stroke-linecap:round; stroke-linejoin:round; stroke-width:0; stroke-opacity:0.1; fill:none" points="719.695,1240.32 829.668,958.078 939.642,741.664 1049.62,607.016 1159.59,507.628 1269.56,422.225 1379.54,385.879 1489.51,365.508 1599.48,371.818 1709.46,380.373 1819.43,419.559 1929.4,445.52 2039.38,494.366 2149.35,569.072 2259.32,605.236 "/>
</svg>
