<?xml version="1.0" encoding="utf-8"?>
<svg xmlns="http://www.w3.org/2000/svg" xmlns:xlink="http://www.w3.org/1999/xlink" width="600" height="400" viewBox="0 0 2400 1600">
<defs>
  <clipPath id="clip930">
    <rect x="0" y="0" width="2400" height="1600"/>
  </clipPath>
</defs>
<path clip-path="url(#clip930)" d="M0 1600 L2400 1600 L2400 0 L0 0  Z" fill="#ffffff" fill-rule="evenodd" fill-opacity="1"/>
<defs>
  <clipPath id="clip931">
    <rect x="480" y="0" width="1681" height="1600"/>
  </clipPath>
</defs>
<path clip-path="url(#clip930)" d="M673.506 1273.7 L2305.51 1273.7 L2305.51 94.4882 L673.506 94.4882  Z" fill="#ffffff" fill-rule="evenodd" fill-opacity="1"/>
<defs>
  <clipPath id="clip932">
    <rect x="673" y="94" width="1633" height="1180"/>
  </clipPath>
</defs>
<polyline clip-path="url(#clip932)" style="stroke:#000000; stroke-linecap:round; stroke-linejoin:round; stroke-width:4; stroke-opacity:0.1; fill:none" points="719.695,1273.7 719.695,94.4882 "/>
<polyline clip-path="url(#clip932)" style="stroke:#000000; stroke-linecap:round; stroke-linejoin:round; stroke-width:4; stroke-opacity:0.1; fill:none" points="994.628,1273.7 994.628,94.4882 "/>
<polyline clip-path="url(#clip932)" style="stroke:#000000; stroke-linecap:round; stroke-linejoin:round; stroke-width:4; stroke-opacity:0.1; fill:none" points="1269.56,1273.7 1269.56,94.4882 "/>
<polyline clip-path="url(#clip932)" style="stroke:#000000; stroke-linecap:round; stroke-linejoin:round; stroke-width:4; stroke-opacity:0.1; fill:none" points="1544.5,1273.7 1544.5,94.4882 "/>
<polyline clip-path="url(#clip932)" style="stroke:#000000; stroke-linecap:round; stroke-linejoin:round; stroke-width:4; stroke-opacity:0.1; fill:none" points="1819.43,1273.7 1819.43,94.4882 "/>
<polyline clip-path="url(#clip932)" style="stroke:#000000; stroke-linecap:round; stroke-linejoin:round; stroke-width:4; stroke-opacity:0.1; fill:none" points="2094.36,1273.7 2094.36,94.4882 "/>
<polyline clip-path="url(#clip930)" style="stroke:#000000; stroke-linecap:round; stroke-linejoin:round; stroke-width:8; stroke-opacity:1; fill:none" points="673.506,1273.7 2305.51,1273.7 "/>
<polyline clip-path="url(#clip930)" style="stroke:#000000; stroke-linecap:round; stroke-linejoin:round; stroke-width:8; stroke-opacity:1; fill:none" points="719.695,1273.7 719.695,1254.8 "/>
<polyline clip-path="url(#clip930)" style="stroke:#000000; stroke-linecap:round; stroke-linejoin:round; stroke-width:8; stroke-opacity:1; fill:none" points="994.628,1273.7 994.628,1254.8 "/>
<polyline clip-path="url(#clip930)" style="stroke:#000000; stroke-linecap:round; stroke-linejoin:round; stroke-width:8; stroke-opacity:1; fill:none" points="1269.56,1273.7 1269.56,1254.8 "/>
<polyline clip-path="url(#clip930)" style="stroke:#000000; stroke-linecap:round; stroke-linejoin:round; stroke-width:8; stroke-opacity:1; fill:none" points="1544.5,1273.7 1544.5,1254.8 "/>
<polyline clip-path="url(#clip930)" style="stroke:#000000; stroke-linecap:round; stroke-linejoin:round; stroke-width:8; stroke-opacity:1; fill:none" points="1819.43,1273.7 1819.43,1254.8 "/>
<polyline clip-path="url(#clip930)" style="stroke:#000000; stroke-linecap:round; stroke-linejoin:round; stroke-width:8; stroke-opacity:1; fill:none" points="2094.36,1273.7 2094.36,1254.8 "/>
<path clip-path="url(#clip930)" d="M644.302 1316.33 Q637.08 1316.33 633.422 1323.46 Q629.811 1330.55 629.811 1344.81 Q629.811 1359.02 633.422 1366.15 Q637.08 1373.23 644.302 1373.23 Q651.57 1373.23 655.181 1366.15 Q658.839 1359.02 658.839 1344.81 Q658.839 1330.55 655.181 1323.46 Q651.57 1316.33 644.302 1316.33 M644.302 1308.93 Q655.922 1308.93 662.033 1318.14 Q668.19 1327.31 668.19 1344.81 Q668.19 1362.26 662.033 1371.47 Q655.922 1380.64 644.302 1380.64 Q632.681 1380.64 626.524 1371.47 Q620.413 1362.26 620.413 1344.81 Q620.413 1327.31 626.524 1318.14 Q632.681 1308.93 644.302 1308.93 Z" fill="#000000" fill-rule="nonzero" fill-opacity="1" /><path clip-path="url(#clip930)" d="M684.626 1367.54 L694.394 1367.54 L694.394 1379.3 L684.626 1379.3 L684.626 1367.54 Z" fill="#000000" fill-rule="nonzero" fill-opacity="1" /><path clip-path="url(#clip930)" d="M734.764 1316.33 Q727.542 1316.33 723.885 1323.46 Q720.274 1330.55 720.274 1344.81 Q720.274 1359.02 723.885 1366.15 Q727.542 1373.23 734.764 1373.23 Q742.033 1373.23 745.644 1366.15 Q749.301 1359.02 749.301 1344.81 Q749.301 1330.55 745.644 1323.46 Q742.033 1316.33 734.764 1316.33 M734.764 1308.93 Q746.384 1308.93 752.496 1318.14 Q758.653 1327.31 758.653 1344.81 Q758.653 1362.26 752.496 1371.47 Q746.384 1380.64 734.764 1380.64 Q723.144 1380.64 716.986 1371.47 Q710.875 1362.26 710.875 1344.81 Q710.875 1327.31 716.986 1318.14 Q723.144 1308.93 734.764 1308.93 Z" fill="#000000" fill-rule="nonzero" fill-opacity="1" /><path clip-path="url(#clip930)" d="M795.088 1316.33 Q787.866 1316.33 784.208 1323.46 Q780.597 1330.55 780.597 1344.81 Q780.597 1359.02 784.208 1366.15 Q787.866 1373.23 795.088 1373.23 Q802.356 1373.23 805.967 1366.15 Q809.625 1359.02 809.625 1344.81 Q809.625 1330.55 805.967 1323.46 Q802.356 1316.33 795.088 1316.33 M795.088 1308.93 Q806.708 1308.93 812.819 1318.14 Q818.977 1327.31 818.977 1344.81 Q818.977 1362.26 812.819 1371.47 Q806.708 1380.64 795.088 1380.64 Q783.468 1380.64 777.31 1371.47 Q771.199 1362.26 771.199 1344.81 Q771.199 1327.31 777.31 1318.14 Q783.468 1308.93 795.088 1308.93 Z" fill="#000000" fill-rule="nonzero" fill-opacity="1" /><path clip-path="url(#clip930)" d="M920.231 1316.33 Q913.008 1316.33 909.351 1323.46 Q905.74 1330.55 905.74 1344.81 Q905.74 1359.02 909.351 1366.15 Q913.008 1373.23 920.231 1373.23 Q927.499 1373.23 931.11 1366.15 Q934.768 1359.02 934.768 1344.81 Q934.768 1330.55 931.11 1323.46 Q927.499 1316.33 920.231 1316.33 M920.231 1308.93 Q931.851 1308.93 937.962 1318.14 Q944.119 1327.31 944.119 1344.81 Q944.119 1362.26 937.962 1371.47 Q931.851 1380.64 920.231 1380.64 Q908.61 1380.64 902.453 1371.47 Q896.342 1362.26 896.342 1344.81 Q896.342 1327.31 902.453 1318.14 Q908.61 1308.93 920.231 1308.93 Z" fill="#000000" fill-rule="nonzero" fill-opacity="1" /><path clip-path="url(#clip930)" d="M960.555 1367.54 L970.323 1367.54 L970.323 1379.3 L960.555 1379.3 L960.555 1367.54 Z" fill="#000000" fill-rule="nonzero" fill-opacity="1" /><path clip-path="url(#clip930)" d="M998.749 1371.43 L1031.39 1371.43 L1031.39 1379.3 L987.499 1379.3 L987.499 1371.43 Q992.823 1365.92 1001.99 1356.66 Q1011.2 1347.35 1013.56 1344.67 Q1018.05 1339.62 1019.81 1336.15 Q1021.62 1332.63 1021.62 1329.25 Q1021.62 1323.74 1017.73 1320.27 Q1013.89 1316.8 1007.68 1316.8 Q1003.29 1316.8 998.378 1318.32 Q993.517 1319.85 987.962 1322.95 L987.962 1313.51 Q993.61 1311.24 998.517 1310.08 Q1003.42 1308.93 1007.5 1308.93 Q1018.24 1308.93 1024.63 1314.3 Q1031.02 1319.67 1031.02 1328.65 Q1031.02 1332.91 1029.4 1336.75 Q1027.82 1340.55 1023.61 1345.73 Q1022.45 1347.07 1016.25 1353.51 Q1010.04 1359.9 998.749 1371.43 Z" fill="#000000" fill-rule="nonzero" fill-opacity="1" /><path clip-path="url(#clip930)" d="M1051.11 1310.18 L1087.82 1310.18 L1087.82 1318.05 L1059.67 1318.05 L1059.67 1334.99 Q1061.71 1334.3 1063.75 1333.97 Q1065.79 1333.6 1067.82 1333.6 Q1079.4 1333.6 1086.16 1339.94 Q1092.91 1346.29 1092.91 1357.12 Q1092.91 1368.28 1085.97 1374.48 Q1079.03 1380.64 1066.39 1380.64 Q1062.04 1380.64 1057.5 1379.9 Q1053.01 1379.16 1048.19 1377.68 L1048.19 1368.28 Q1052.36 1370.55 1056.8 1371.66 Q1061.25 1372.77 1066.2 1372.77 Q1074.21 1372.77 1078.89 1368.56 Q1083.56 1364.34 1083.56 1357.12 Q1083.56 1349.9 1078.89 1345.68 Q1074.21 1341.47 1066.2 1341.47 Q1062.45 1341.47 1058.7 1342.31 Q1055 1343.14 1051.11 1344.9 L1051.11 1310.18 Z" fill="#000000" fill-rule="nonzero" fill-opacity="1" /><path clip-path="url(#clip930)" d="M1194.17 1316.33 Q1186.95 1316.33 1183.29 1323.46 Q1179.68 1330.55 1179.68 1344.81 Q1179.68 1359.02 1183.29 1366.15 Q1186.95 1373.23 1194.17 1373.23 Q1201.44 1373.23 1205.05 1366.15 Q1208.71 1359.02 1208.71 1344.81 Q1208.71 1330.55 1205.05 1323.46 Q1201.44 1316.33 1194.17 1316.33 M1194.17 1308.93 Q1205.79 1308.93 1211.9 1318.14 Q1218.06 1327.31 1218.06 1344.81 Q1218.06 1362.26 1211.9 1371.47 Q1205.79 1380.64 1194.17 1380.64 Q1182.55 1380.64 1176.39 1371.47 Q1170.28 1362.26 1170.28 1344.81 Q1170.28 1327.31 1176.39 1318.14 Q1182.55 1308.93 1194.17 1308.93 Z" fill="#000000" fill-rule="nonzero" fill-opacity="1" /><path clip-path="url(#clip930)" d="M1234.49 1367.54 L1244.26 1367.54 L1244.26 1379.3 L1234.49 1379.3 L1234.49 1367.54 Z" fill="#000000" fill-rule="nonzero" fill-opacity="1" /><path clip-path="url(#clip930)" d="M1264.72 1310.18 L1301.44 1310.18 L1301.44 1318.05 L1273.29 1318.05 L1273.29 1334.99 Q1275.33 1334.3 1277.36 1333.97 Q1279.4 1333.6 1281.44 1333.6 Q1293.01 1333.6 1299.77 1339.94 Q1306.53 1346.29 1306.53 1357.12 Q1306.53 1368.28 1299.58 1374.48 Q1292.64 1380.64 1280 1380.64 Q1275.65 1380.64 1271.11 1379.9 Q1266.62 1379.16 1261.81 1377.68 L1261.81 1368.28 Q1265.97 1370.55 1270.42 1371.66 Q1274.86 1372.77 1279.82 1372.77 Q1287.83 1372.77 1292.5 1368.56 Q1297.18 1364.34 1297.18 1357.12 Q1297.18 1349.9 1292.5 1345.68 Q1287.83 1341.47 1279.82 1341.47 Q1276.07 1341.47 1272.32 1342.31 Q1268.61 1343.14 1264.72 1344.9 L1264.72 1310.18 Z" fill="#000000" fill-rule="nonzero" fill-opacity="1" /><path clip-path="url(#clip930)" d="M1344.96 1316.33 Q1337.73 1316.33 1334.08 1323.46 Q1330.46 1330.55 1330.46 1344.81 Q1330.46 1359.02 1334.08 1366.15 Q1337.73 1373.23 1344.96 1373.23 Q1352.22 1373.23 1355.83 1366.15 Q1359.49 1359.02 1359.49 1344.81 Q1359.49 1330.55 1355.83 1323.46 Q1352.22 1316.33 1344.96 1316.33 M1344.96 1308.93 Q1356.58 1308.93 1362.69 1318.14 Q1368.84 1327.31 1368.84 1344.81 Q1368.84 1362.26 1362.69 1371.47 Q1356.58 1380.64 1344.96 1380.64 Q1333.33 1380.64 1327.18 1371.47 Q1321.07 1362.26 1321.07 1344.81 Q1321.07 1327.31 1327.18 1318.14 Q1333.33 1308.93 1344.96 1308.93 Z" fill="#000000" fill-rule="nonzero" fill-opacity="1" /><path clip-path="url(#clip930)" d="M1470.1 1316.33 Q1462.88 1316.33 1459.22 1323.46 Q1455.61 1330.55 1455.61 1344.81 Q1455.61 1359.02 1459.22 1366.15 Q1462.88 1373.23 1470.1 1373.23 Q1477.37 1373.23 1480.98 1366.15 Q1484.63 1359.02 1484.63 1344.81 Q1484.63 1330.55 1480.98 1323.46 Q1477.37 1316.33 1470.1 1316.33 M1470.1 1308.93 Q1481.72 1308.93 1487.83 1318.14 Q1493.99 1327.31 1493.99 1344.81 Q1493.99 1362.26 1487.83 1371.47 Q1481.72 1380.64 1470.1 1380.64 Q1458.48 1380.64 1452.32 1371.47 Q1446.21 1362.26 1446.21 1344.81 Q1446.21 1327.31 1452.32 1318.14 Q1458.48 1308.93 1470.1 1308.93 Z" fill="#000000" fill-rule="nonzero" fill-opacity="1" /><path clip-path="url(#clip930)" d="M1510.42 1367.54 L1520.19 1367.54 L1520.19 1379.3 L1510.42 1379.3 L1510.42 1367.54 Z" fill="#000000" fill-rule="nonzero" fill-opacity="1" /><path clip-path="url(#clip930)" d="M1538.2 1310.18 L1582.64 1310.18 L1582.64 1314.16 L1557.55 1379.3 L1547.78 1379.3 L1571.39 1318.05 L1538.2 1318.05 L1538.2 1310.18 Z" fill="#000000" fill-rule="nonzero" fill-opacity="1" /><path clip-path="url(#clip930)" d="M1600.98 1310.18 L1637.69 1310.18 L1637.69 1318.05 L1609.54 1318.05 L1609.54 1334.99 Q1611.58 1334.3 1613.62 1333.97 Q1615.65 1333.6 1617.69 1333.6 Q1629.26 1333.6 1636.02 1339.94 Q1642.78 1346.29 1642.78 1357.12 Q1642.78 1368.28 1635.84 1374.48 Q1628.89 1380.64 1616.25 1380.64 Q1611.9 1380.64 1607.37 1379.9 Q1602.87 1379.16 1598.06 1377.68 L1598.06 1368.28 Q1602.23 1370.55 1606.67 1371.66 Q1611.12 1372.77 1616.07 1372.77 Q1624.08 1372.77 1628.75 1368.56 Q1633.43 1364.34 1633.43 1357.12 Q1633.43 1349.9 1628.75 1345.68 Q1624.08 1341.47 1616.07 1341.47 Q1612.32 1341.47 1608.57 1342.31 Q1604.87 1343.14 1600.98 1344.9 L1600.98 1310.18 Z" fill="#000000" fill-rule="nonzero" fill-opacity="1" /><path clip-path="url(#clip930)" d="M1723.57 1371.43 L1738.85 1371.43 L1738.85 1318.69 L1722.23 1322.03 L1722.23 1313.51 L1738.76 1310.18 L1748.11 1310.18 L1748.11 1371.43 L1763.39 1371.43 L1763.39 1379.3 L1723.57 1379.3 L1723.57 1371.43 Z" fill="#000000" fill-rule="nonzero" fill-opacity="1" /><path clip-path="url(#clip930)" d="M1782.28 1367.54 L1792.05 1367.54 L1792.05 1379.3 L1782.28 1379.3 L1782.28 1367.54 Z" fill="#000000" fill-rule="nonzero" fill-opacity="1" /><path clip-path="url(#clip930)" d="M1832.42 1316.33 Q1825.19 1316.33 1821.54 1323.46 Q1817.92 1330.55 1817.92 1344.81 Q1817.92 1359.02 1821.54 1366.15 Q1825.19 1373.23 1832.42 1373.23 Q1839.68 1373.23 1843.29 1366.15 Q1846.95 1359.02 1846.95 1344.81 Q1846.95 1330.55 1843.29 1323.46 Q1839.68 1316.33 1832.42 1316.33 M1832.42 1308.93 Q1844.04 1308.93 1850.15 1318.14 Q1856.3 1327.31 1856.3 1344.81 Q1856.3 1362.26 1850.15 1371.47 Q1844.04 1380.64 1832.42 1380.64 Q1820.79 1380.64 1814.64 1371.47 Q1808.53 1362.26 1808.53 1344.81 Q1808.53 1327.31 1814.64 1318.14 Q1820.79 1308.93 1832.42 1308.93 Z" fill="#000000" fill-rule="nonzero" fill-opacity="1" /><path clip-path="url(#clip930)" d="M1892.74 1316.33 Q1885.52 1316.33 1881.86 1323.46 Q1878.25 1330.55 1878.25 1344.81 Q1878.25 1359.02 1881.86 1366.15 Q1885.52 1373.23 1892.74 1373.23 Q1900.01 1373.23 1903.62 1366.15 Q1907.28 1359.02 1907.28 1344.81 Q1907.28 1330.55 1903.62 1323.46 Q1900.01 1316.33 1892.74 1316.33 M1892.74 1308.93 Q1904.36 1308.93 1910.47 1318.14 Q1916.63 1327.31 1916.63 1344.81 Q1916.63 1362.26 1910.47 1371.47 Q1904.36 1380.64 1892.74 1380.64 Q1881.12 1380.64 1874.96 1371.47 Q1868.85 1362.26 1868.85 1344.81 Q1868.85 1327.31 1874.96 1318.14 Q1881.12 1308.93 1892.74 1308.93 Z" fill="#000000" fill-rule="nonzero" fill-opacity="1" /><path clip-path="url(#clip930)" d="M1999.5 1371.43 L2014.78 1371.43 L2014.78 1318.69 L1998.16 1322.03 L1998.16 1313.51 L2014.69 1310.18 L2024.04 1310.18 L2024.04 1371.43 L2039.32 1371.43 L2039.32 1379.3 L1999.5 1379.3 L1999.5 1371.43 Z" fill="#000000" fill-rule="nonzero" fill-opacity="1" /><path clip-path="url(#clip930)" d="M2058.21 1367.54 L2067.97 1367.54 L2067.97 1379.3 L2058.21 1379.3 L2058.21 1367.54 Z" fill="#000000" fill-rule="nonzero" fill-opacity="1" /><path clip-path="url(#clip930)" d="M2096.4 1371.43 L2129.04 1371.43 L2129.04 1379.3 L2085.15 1379.3 L2085.15 1371.43 Q2090.47 1365.92 2099.64 1356.66 Q2108.85 1347.35 2111.21 1344.67 Q2115.71 1339.62 2117.46 1336.15 Q2119.27 1332.63 2119.27 1329.25 Q2119.27 1323.74 2115.38 1320.27 Q2111.54 1316.8 2105.33 1316.8 Q2100.94 1316.8 2096.03 1318.32 Q2091.17 1319.85 2085.61 1322.95 L2085.61 1313.51 Q2091.26 1311.24 2096.17 1310.08 Q2101.08 1308.93 2105.15 1308.93 Q2115.89 1308.93 2122.28 1314.3 Q2128.67 1319.67 2128.67 1328.65 Q2128.67 1332.91 2127.05 1336.75 Q2125.47 1340.55 2121.26 1345.73 Q2120.1 1347.07 2113.9 1353.51 Q2107.7 1359.9 2096.4 1371.43 Z" fill="#000000" fill-rule="nonzero" fill-opacity="1" /><path clip-path="url(#clip930)" d="M2148.76 1310.18 L2185.47 1310.18 L2185.47 1318.05 L2157.33 1318.05 L2157.33 1334.99 Q2159.36 1334.3 2161.4 1333.97 Q2163.44 1333.6 2165.47 1333.6 Q2177.05 1333.6 2183.81 1339.94 Q2190.57 1346.29 2190.57 1357.12 Q2190.57 1368.28 2183.62 1374.48 Q2176.68 1380.64 2164.04 1380.64 Q2159.69 1380.64 2155.15 1379.9 Q2150.66 1379.16 2145.84 1377.68 L2145.84 1368.28 Q2150.01 1370.55 2154.46 1371.66 Q2158.9 1372.77 2163.85 1372.77 Q2171.86 1372.77 2176.54 1368.56 Q2181.21 1364.34 2181.21 1357.12 Q2181.21 1349.9 2176.54 1345.68 Q2171.86 1341.47 2163.85 1341.47 Q2160.1 1341.47 2156.35 1342.31 Q2152.65 1343.14 2148.76 1344.9 L2148.76 1310.18 Z" fill="#000000" fill-rule="nonzero" fill-opacity="1" /><path clip-path="url(#clip930)" d="M1375.05 1484.39 L1375.05 1527.42 L1363.34 1527.42 L1363.34 1484.77 Q1363.34 1474.65 1359.39 1469.62 Q1355.45 1464.59 1347.55 1464.59 Q1338.07 1464.59 1332.59 1470.64 Q1327.12 1476.69 1327.12 1487.13 L1327.12 1527.42 L1315.34 1527.42 L1315.34 1428.37 L1327.12 1428.37 L1327.12 1467.2 Q1331.32 1460.77 1336.99 1457.59 Q1342.72 1454.41 1350.16 1454.41 Q1362.45 1454.41 1368.75 1462.05 Q1375.05 1469.62 1375.05 1484.39 Z" fill="#000000" fill-rule="nonzero" fill-opacity="1" /><path clip-path="url(#clip930)" d="M1426.04 1464.34 Q1416.62 1464.34 1411.15 1471.72 Q1405.67 1479.04 1405.67 1491.84 Q1405.67 1504.63 1411.08 1512.02 Q1416.56 1519.34 1426.04 1519.34 Q1435.4 1519.34 1440.87 1511.96 Q1446.35 1504.57 1446.35 1491.84 Q1446.35 1479.17 1440.87 1471.79 Q1435.4 1464.34 1426.04 1464.34 M1426.04 1454.41 Q1441.32 1454.41 1450.04 1464.34 Q1458.76 1474.27 1458.76 1491.84 Q1458.76 1509.35 1450.04 1519.34 Q1441.32 1529.27 1426.04 1529.27 Q1410.7 1529.27 1401.98 1519.34 Q1393.32 1509.35 1393.32 1491.84 Q1393.32 1474.27 1401.98 1464.34 Q1410.7 1454.41 1426.04 1454.41 Z" fill="#000000" fill-rule="nonzero" fill-opacity="1" /><path clip-path="url(#clip930)" d="M1476.97 1499.29 L1476.97 1456.13 L1488.68 1456.13 L1488.68 1498.84 Q1488.68 1508.96 1492.63 1514.06 Q1496.57 1519.08 1504.47 1519.08 Q1513.95 1519.08 1519.43 1513.04 Q1524.97 1506.99 1524.97 1496.55 L1524.97 1456.13 L1536.68 1456.13 L1536.68 1527.42 L1524.97 1527.42 L1524.97 1516.47 Q1520.7 1522.97 1515.04 1526.15 Q1509.43 1529.27 1501.99 1529.27 Q1489.7 1529.27 1483.33 1521.63 Q1476.97 1513.99 1476.97 1499.29 M1506.44 1454.41 L1506.44 1454.41 Z" fill="#000000" fill-rule="nonzero" fill-opacity="1" /><path clip-path="url(#clip930)" d="M1602.12 1467.08 Q1600.14 1465.93 1597.79 1465.42 Q1595.5 1464.85 1592.7 1464.85 Q1582.77 1464.85 1577.42 1471.34 Q1572.14 1477.77 1572.14 1489.87 L1572.14 1527.42 L1560.36 1527.42 L1560.36 1456.13 L1572.14 1456.13 L1572.14 1467.2 Q1575.83 1460.71 1581.75 1457.59 Q1587.67 1454.41 1596.13 1454.41 Q1597.34 1454.41 1598.81 1454.6 Q1600.27 1454.73 1602.05 1455.05 L1602.12 1467.08 Z" fill="#000000" fill-rule="nonzero" fill-opacity="1" /><path clip-path="url(#clip930)" d="M1659.86 1458.23 L1659.86 1469.3 Q1654.89 1466.76 1649.54 1465.49 Q1644.2 1464.21 1638.47 1464.21 Q1629.75 1464.21 1625.35 1466.89 Q1621.02 1469.56 1621.02 1474.91 Q1621.02 1478.98 1624.14 1481.34 Q1627.26 1483.63 1636.68 1485.73 L1640.69 1486.62 Q1653.17 1489.29 1658.39 1494.19 Q1663.67 1499.03 1663.67 1507.75 Q1663.67 1517.68 1655.78 1523.48 Q1647.95 1529.27 1634.2 1529.27 Q1628.47 1529.27 1622.23 1528.12 Q1616.06 1527.04 1609.18 1524.81 L1609.18 1512.72 Q1615.68 1516.09 1621.98 1517.81 Q1628.28 1519.47 1634.46 1519.47 Q1642.73 1519.47 1647.19 1516.67 Q1651.64 1513.8 1651.64 1508.64 Q1651.64 1503.87 1648.4 1501.32 Q1645.21 1498.78 1634.33 1496.42 L1630.25 1495.47 Q1619.37 1493.18 1614.53 1488.47 Q1609.69 1483.69 1609.69 1475.42 Q1609.69 1465.36 1616.82 1459.88 Q1623.95 1454.41 1637.07 1454.41 Q1643.56 1454.41 1649.29 1455.36 Q1655.02 1456.32 1659.86 1458.23 Z" fill="#000000" fill-rule="nonzero" fill-opacity="1" /><polyline clip-path="url(#clip932)" style="stroke:#000000; stroke-linecap:round; stroke-linejoin:round; stroke-width:4; stroke-opacity:0.1; fill:none" points="673.506,1249.63 2305.51,1249.63 "/>
<polyline clip-path="url(#clip932)" style="stroke:#000000; stroke-linecap:round; stroke-linejoin:round; stroke-width:4; stroke-opacity:0.1; fill:none" points="673.506,1029.99 2305.51,1029.99 "/>
<polyline clip-path="url(#clip932)" style="stroke:#000000; stroke-linecap:round; stroke-linejoin:round; stroke-width:4; stroke-opacity:0.1; fill:none" points="673.506,810.357 2305.51,810.357 "/>
<polyline clip-path="url(#clip932)" style="stroke:#000000; stroke-linecap:round; stroke-linejoin:round; stroke-width:4; stroke-opacity:0.1; fill:none" points="673.506,590.722 2305.51,590.722 "/>
<polyline clip-path="url(#clip932)" style="stroke:#000000; stroke-linecap:round; stroke-linejoin:round; stroke-width:4; stroke-opacity:0.1; fill:none" points="673.506,371.088 2305.51,371.088 "/>
<polyline clip-path="url(#clip932)" style="stroke:#000000; stroke-linecap:round; stroke-linejoin:round; stroke-width:4; stroke-opacity:0.1; fill:none" points="673.506,151.453 2305.51,151.453 "/>
<polyline clip-path="url(#clip930)" style="stroke:#000000; stroke-linecap:round; stroke-linejoin:round; stroke-width:8; stroke-opacity:1; fill:none" points="673.506,1273.7 673.506,94.4882 "/>
<polyline clip-path="url(#clip930)" style="stroke:#000000; stroke-linecap:round; stroke-linejoin:round; stroke-width:8; stroke-opacity:1; fill:none" points="673.506,1249.63 692.404,1249.63 "/>
<polyline clip-path="url(#clip930)" style="stroke:#000000; stroke-linecap:round; stroke-linejoin:round; stroke-width:8; stroke-opacity:1; fill:none" points="673.506,1029.99 692.404,1029.99 "/>
<polyline clip-path="url(#clip930)" style="stroke:#000000; stroke-linecap:round; stroke-linejoin:round; stroke-width:8; stroke-opacity:1; fill:none" points="673.506,810.357 692.404,810.357 "/>
<polyline clip-path="url(#clip930)" style="stroke:#000000; stroke-linecap:round; stroke-linejoin:round; stroke-width:8; stroke-opacity:1; fill:none" points="673.506,590.722 692.404,590.722 "/>
<polyline clip-path="url(#clip930)" style="stroke:#000000; stroke-linecap:round; stroke-linejoin:round; stroke-width:8; stroke-opacity:1; fill:none" points="673.506,371.088 692.404,371.088 "/>
<polyline clip-path="url(#clip930)" style="stroke:#000000; stroke-linecap:round; stroke-linejoin:round; stroke-width:8; stroke-opacity:1; fill:none" points="673.506,151.453 692.404,151.453 "/>
<path clip-path="url(#clip930)" d="M384.128 1276.32 L399.405 1276.32 L399.405 1223.58 L382.785 1226.92 L382.785 1218.4 L399.313 1215.07 L408.665 1215.07 L408.665 1276.32 L423.942 1276.32 L423.942 1284.19 L384.128 1284.19 L384.128 1276.32 Z" fill="#000000" fill-rule="nonzero" fill-opacity="1" /><path clip-path="url(#clip930)" d="M462.831 1221.22 Q455.609 1221.22 451.951 1228.35 Q448.34 1235.44 448.34 1249.7 Q448.34 1263.91 451.951 1271.04 Q455.609 1278.12 462.831 1278.12 Q470.099 1278.12 473.711 1271.04 Q477.368 1263.91 477.368 1249.7 Q477.368 1235.44 473.711 1228.35 Q470.099 1221.22 462.831 1221.22 M462.831 1213.82 Q474.451 1213.82 480.562 1223.03 Q486.72 1232.2 486.72 1249.7 Q486.72 1267.15 480.562 1276.36 Q474.451 1285.53 462.831 1285.53 Q451.211 1285.53 445.053 1276.36 Q438.942 1267.15 438.942 1249.7 Q438.942 1232.2 445.053 1223.03 Q451.211 1213.82 462.831 1213.82 Z" fill="#000000" fill-rule="nonzero" fill-opacity="1" /><path clip-path="url(#clip930)" d="M523.155 1221.22 Q515.933 1221.22 512.275 1228.35 Q508.664 1235.44 508.664 1249.7 Q508.664 1263.91 512.275 1271.04 Q515.933 1278.12 523.155 1278.12 Q530.423 1278.12 534.034 1271.04 Q537.692 1263.91 537.692 1249.7 Q537.692 1235.44 534.034 1228.35 Q530.423 1221.22 523.155 1221.22 M523.155 1213.82 Q534.775 1213.82 540.886 1223.03 Q547.043 1232.2 547.043 1249.7 Q547.043 1267.15 540.886 1276.36 Q534.775 1285.53 523.155 1285.53 Q511.534 1285.53 505.377 1276.36 Q499.266 1267.15 499.266 1249.7 Q499.266 1232.2 505.377 1223.03 Q511.534 1213.82 523.155 1213.82 Z" fill="#000000" fill-rule="nonzero" fill-opacity="1" /><path clip-path="url(#clip930)" d="M563.479 1272.43 L573.247 1272.43 L573.247 1284.19 L563.479 1284.19 L563.479 1272.43 Z" fill="#000000" fill-rule="nonzero" fill-opacity="1" /><path clip-path="url(#clip930)" d="M613.617 1221.22 Q606.395 1221.22 602.738 1228.35 Q599.127 1235.44 599.127 1249.7 Q599.127 1263.91 602.738 1271.04 Q606.395 1278.12 613.617 1278.12 Q620.886 1278.12 624.497 1271.04 Q628.154 1263.91 628.154 1249.7 Q628.154 1235.44 624.497 1228.35 Q620.886 1221.22 613.617 1221.22 M613.617 1213.82 Q625.238 1213.82 631.349 1223.03 Q637.506 1232.2 637.506 1249.7 Q637.506 1267.15 631.349 1276.36 Q625.238 1285.53 613.617 1285.53 Q601.997 1285.53 595.84 1276.36 Q589.728 1267.15 589.728 1249.7 Q589.728 1232.2 595.84 1223.03 Q601.997 1213.82 613.617 1213.82 Z" fill="#000000" fill-rule="nonzero" fill-opacity="1" /><path clip-path="url(#clip930)" d="M384.128 1056.68 L399.405 1056.68 L399.405 1003.95 L382.785 1007.28 L382.785 998.765 L399.313 995.431 L408.665 995.431 L408.665 1056.68 L423.942 1056.68 L423.942 1064.55 L384.128 1064.55 L384.128 1056.68 Z" fill="#000000" fill-rule="nonzero" fill-opacity="1" /><path clip-path="url(#clip930)" d="M462.831 1001.59 Q455.609 1001.59 451.951 1008.72 Q448.34 1015.8 448.34 1030.06 Q448.34 1044.27 451.951 1051.4 Q455.609 1058.49 462.831 1058.49 Q470.099 1058.49 473.711 1051.4 Q477.368 1044.27 477.368 1030.06 Q477.368 1015.8 473.711 1008.72 Q470.099 1001.59 462.831 1001.59 M462.831 994.181 Q474.451 994.181 480.562 1003.39 Q486.72 1012.56 486.72 1030.06 Q486.72 1047.51 480.562 1056.73 Q474.451 1065.89 462.831 1065.89 Q451.211 1065.89 445.053 1056.73 Q438.942 1047.51 438.942 1030.06 Q438.942 1012.56 445.053 1003.39 Q451.211 994.181 462.831 994.181 Z" fill="#000000" fill-rule="nonzero" fill-opacity="1" /><path clip-path="url(#clip930)" d="M503.247 995.431 L539.96 995.431 L539.96 1003.3 L511.812 1003.3 L511.812 1020.25 Q513.849 1019.55 515.886 1019.23 Q517.923 1018.86 519.96 1018.86 Q531.534 1018.86 538.294 1025.2 Q545.053 1031.54 545.053 1042.38 Q545.053 1053.53 538.108 1059.74 Q531.164 1065.89 518.525 1065.89 Q514.173 1065.89 509.636 1065.15 Q505.146 1064.41 500.331 1062.93 L500.331 1053.53 Q504.497 1055.8 508.942 1056.91 Q513.386 1058.02 518.34 1058.02 Q526.349 1058.02 531.025 1053.81 Q535.701 1049.6 535.701 1042.38 Q535.701 1035.15 531.025 1030.94 Q526.349 1026.73 518.34 1026.73 Q514.59 1026.73 510.84 1027.56 Q507.136 1028.39 503.247 1030.15 L503.247 995.431 Z" fill="#000000" fill-rule="nonzero" fill-opacity="1" /><path clip-path="url(#clip930)" d="M563.479 1052.79 L573.247 1052.79 L573.247 1064.55 L563.479 1064.55 L563.479 1052.79 Z" fill="#000000" fill-rule="nonzero" fill-opacity="1" /><path clip-path="url(#clip930)" d="M613.617 1001.59 Q606.395 1001.59 602.738 1008.72 Q599.127 1015.8 599.127 1030.06 Q599.127 1044.27 602.738 1051.4 Q606.395 1058.49 613.617 1058.49 Q620.886 1058.49 624.497 1051.4 Q628.154 1044.27 628.154 1030.06 Q628.154 1015.8 624.497 1008.72 Q620.886 1001.59 613.617 1001.59 M613.617 994.181 Q625.238 994.181 631.349 1003.39 Q637.506 1012.56 637.506 1030.06 Q637.506 1047.51 631.349 1056.73 Q625.238 1065.89 613.617 1065.89 Q601.997 1065.89 595.84 1056.73 Q589.728 1047.51 589.728 1030.06 Q589.728 1012.56 595.84 1003.39 Q601.997 994.181 613.617 994.181 Z" fill="#000000" fill-rule="nonzero" fill-opacity="1" /><path clip-path="url(#clip930)" d="M384.128 837.046 L399.405 837.046 L399.405 784.315 L382.785 787.649 L382.785 779.13 L399.313 775.797 L408.665 775.797 L408.665 837.046 L423.942 837.046 L423.942 844.917 L384.128 844.917 L384.128 837.046 Z" fill="#000000" fill-rule="nonzero" fill-opacity="1" /><path clip-path="url(#clip930)" d="M444.451 837.046 L459.729 837.046 L459.729 784.315 L443.109 787.649 L443.109 779.13 L459.637 775.797 L468.988 775.797 L468.988 837.046 L484.266 837.046 L484.266 844.917 L444.451 844.917 L444.451 837.046 Z" fill="#000000" fill-rule="nonzero" fill-opacity="1" /><path clip-path="url(#clip930)" d="M523.155 781.954 Q515.933 781.954 512.275 789.084 Q508.664 796.167 508.664 810.426 Q508.664 824.639 512.275 831.769 Q515.933 838.852 523.155 838.852 Q530.423 838.852 534.034 831.769 Q537.692 824.639 537.692 810.426 Q537.692 796.167 534.034 789.084 Q530.423 781.954 523.155 781.954 M523.155 774.547 Q534.775 774.547 540.886 783.76 Q547.043 792.926 547.043 810.426 Q547.043 827.88 540.886 837.093 Q534.775 846.259 523.155 846.259 Q511.534 846.259 505.377 837.093 Q499.266 827.88 499.266 810.426 Q499.266 792.926 505.377 783.76 Q511.534 774.547 523.155 774.547 Z" fill="#000000" fill-rule="nonzero" fill-opacity="1" /><path clip-path="url(#clip930)" d="M563.479 833.158 L573.247 833.158 L573.247 844.917 L563.479 844.917 L563.479 833.158 Z" fill="#000000" fill-rule="nonzero" fill-opacity="1" /><path clip-path="url(#clip930)" d="M613.617 781.954 Q606.395 781.954 602.738 789.084 Q599.127 796.167 599.127 810.426 Q599.127 824.639 602.738 831.769 Q606.395 838.852 613.617 838.852 Q620.886 838.852 624.497 831.769 Q628.154 824.639 628.154 810.426 Q628.154 796.167 624.497 789.084 Q620.886 781.954 613.617 781.954 M613.617 774.547 Q625.238 774.547 631.349 783.76 Q637.506 792.926 637.506 810.426 Q637.506 827.88 631.349 837.093 Q625.238 846.259 613.617 846.259 Q601.997 846.259 595.84 837.093 Q589.728 827.88 589.728 810.426 Q589.728 792.926 595.84 783.76 Q601.997 774.547 613.617 774.547 Z" fill="#000000" fill-rule="nonzero" fill-opacity="1" /><path clip-path="url(#clip930)" d="M384.128 617.412 L399.405 617.412 L399.405 564.681 L382.785 568.014 L382.785 559.496 L399.313 556.162 L408.665 556.162 L408.665 617.412 L423.942 617.412 L423.942 625.282 L384.128 625.282 L384.128 617.412 Z" fill="#000000" fill-rule="nonzero" fill-opacity="1" /><path clip-path="url(#clip930)" d="M444.451 617.412 L459.729 617.412 L459.729 564.681 L443.109 568.014 L443.109 559.496 L459.637 556.162 L468.988 556.162 L468.988 617.412 L484.266 617.412 L484.266 625.282 L444.451 625.282 L444.451 617.412 Z" fill="#000000" fill-rule="nonzero" fill-opacity="1" /><path clip-path="url(#clip930)" d="M503.247 556.162 L539.96 556.162 L539.96 564.033 L511.812 564.033 L511.812 580.977 Q513.849 580.282 515.886 579.958 Q517.923 579.588 519.96 579.588 Q531.534 579.588 538.294 585.931 Q545.053 592.273 545.053 603.106 Q545.053 614.264 538.108 620.467 Q531.164 626.625 518.525 626.625 Q514.173 626.625 509.636 625.884 Q505.146 625.143 500.331 623.662 L500.331 614.264 Q504.497 616.532 508.942 617.643 Q513.386 618.754 518.34 618.754 Q526.349 618.754 531.025 614.542 Q535.701 610.329 535.701 603.106 Q535.701 595.884 531.025 591.671 Q526.349 587.458 518.34 587.458 Q514.59 587.458 510.84 588.292 Q507.136 589.125 503.247 590.884 L503.247 556.162 Z" fill="#000000" fill-rule="nonzero" fill-opacity="1" /><path clip-path="url(#clip930)" d="M563.479 613.523 L573.247 613.523 L573.247 625.282 L563.479 625.282 L563.479 613.523 Z" fill="#000000" fill-rule="nonzero" fill-opacity="1" /><path clip-path="url(#clip930)" d="M613.617 562.32 Q606.395 562.32 602.738 569.449 Q599.127 576.532 599.127 590.792 Q599.127 605.005 602.738 612.134 Q606.395 619.217 613.617 619.217 Q620.886 619.217 624.497 612.134 Q628.154 605.005 628.154 590.792 Q628.154 576.532 624.497 569.449 Q620.886 562.32 613.617 562.32 M613.617 554.912 Q625.238 554.912 631.349 564.125 Q637.506 573.292 637.506 590.792 Q637.506 608.245 631.349 617.458 Q625.238 626.625 613.617 626.625 Q601.997 626.625 595.84 617.458 Q589.728 608.245 589.728 590.792 Q589.728 573.292 595.84 564.125 Q601.997 554.912 613.617 554.912 Z" fill="#000000" fill-rule="nonzero" fill-opacity="1" /><path clip-path="url(#clip930)" d="M384.128 397.777 L399.405 397.777 L399.405 345.046 L382.785 348.379 L382.785 339.861 L399.313 336.528 L408.665 336.528 L408.665 397.777 L423.942 397.777 L423.942 405.648 L384.128 405.648 L384.128 397.777 Z" fill="#000000" fill-rule="nonzero" fill-opacity="1" /><path clip-path="url(#clip930)" d="M450.887 397.777 L483.525 397.777 L483.525 405.648 L439.637 405.648 L439.637 397.777 Q444.961 392.268 454.127 383.009 Q463.34 373.703 465.701 371.018 Q470.192 365.972 471.951 362.5 Q473.757 358.981 473.757 355.602 Q473.757 350.092 469.868 346.62 Q466.025 343.148 459.822 343.148 Q455.424 343.148 450.516 344.676 Q445.655 346.203 440.1 349.305 L440.1 339.861 Q445.748 337.592 450.655 336.435 Q455.562 335.278 459.637 335.278 Q470.377 335.278 476.766 340.648 Q483.155 346.018 483.155 355 Q483.155 359.259 481.535 363.102 Q479.961 366.898 475.748 372.083 Q474.59 373.426 468.387 379.861 Q462.183 386.25 450.887 397.777 Z" fill="#000000" fill-rule="nonzero" fill-opacity="1" /><path clip-path="url(#clip930)" d="M523.155 342.685 Q515.933 342.685 512.275 349.815 Q508.664 356.898 508.664 371.157 Q508.664 385.37 512.275 392.5 Q515.933 399.583 523.155 399.583 Q530.423 399.583 534.034 392.5 Q537.692 385.37 537.692 371.157 Q537.692 356.898 534.034 349.815 Q530.423 342.685 523.155 342.685 M523.155 335.278 Q534.775 335.278 540.886 344.491 Q547.043 353.657 547.043 371.157 Q547.043 388.611 540.886 397.824 Q534.775 406.99 523.155 406.99 Q511.534 406.99 505.377 397.824 Q499.266 388.611 499.266 371.157 Q499.266 353.657 505.377 344.491 Q511.534 335.278 523.155 335.278 Z" fill="#000000" fill-rule="nonzero" fill-opacity="1" /><path clip-path="url(#clip930)" d="M563.479 393.888 L573.247 393.888 L573.247 405.648 L563.479 405.648 L563.479 393.888 Z" fill="#000000" fill-rule="nonzero" fill-opacity="1" /><path clip-path="url(#clip930)" d="M613.617 342.685 Q606.395 342.685 602.738 349.815 Q599.127 356.898 599.127 371.157 Q599.127 385.37 602.738 392.5 Q606.395 399.583 613.617 399.583 Q620.886 399.583 624.497 392.5 Q628.154 385.37 628.154 371.157 Q628.154 356.898 624.497 349.815 Q620.886 342.685 613.617 342.685 M613.617 335.278 Q625.238 335.278 631.349 344.491 Q637.506 353.657 637.506 371.157 Q637.506 388.611 631.349 397.824 Q625.238 406.99 613.617 406.99 Q601.997 406.99 595.84 397.824 Q589.728 388.611 589.728 371.157 Q589.728 353.657 595.84 344.491 Q601.997 335.278 613.617 335.278 Z" fill="#000000" fill-rule="nonzero" fill-opacity="1" /><path clip-path="url(#clip930)" d="M384.128 178.143 L399.405 178.143 L399.405 125.411 L382.785 128.745 L382.785 120.226 L399.313 116.893 L408.665 116.893 L408.665 178.143 L423.942 178.143 L423.942 186.013 L384.128 186.013 L384.128 178.143 Z" fill="#000000" fill-rule="nonzero" fill-opacity="1" /><path clip-path="url(#clip930)" d="M450.887 178.143 L483.525 178.143 L483.525 186.013 L439.637 186.013 L439.637 178.143 Q444.961 172.633 454.127 163.374 Q463.34 154.069 465.701 151.384 Q470.192 146.337 471.951 142.865 Q473.757 139.347 473.757 135.967 Q473.757 130.458 469.868 126.986 Q466.025 123.513 459.822 123.513 Q455.424 123.513 450.516 125.041 Q445.655 126.569 440.1 129.671 L440.1 120.226 Q445.748 117.958 450.655 116.8 Q455.562 115.643 459.637 115.643 Q470.377 115.643 476.766 121.013 Q483.155 126.384 483.155 135.365 Q483.155 139.624 481.535 143.467 Q479.961 147.263 475.748 152.448 Q474.59 153.791 468.387 160.226 Q462.183 166.615 450.887 178.143 Z" fill="#000000" fill-rule="nonzero" fill-opacity="1" /><path clip-path="url(#clip930)" d="M503.247 116.893 L539.96 116.893 L539.96 124.763 L511.812 124.763 L511.812 141.708 Q513.849 141.013 515.886 140.689 Q517.923 140.319 519.96 140.319 Q531.534 140.319 538.294 146.661 Q545.053 153.004 545.053 163.837 Q545.053 174.995 538.108 181.198 Q531.164 187.356 518.525 187.356 Q514.173 187.356 509.636 186.615 Q505.146 185.874 500.331 184.393 L500.331 174.995 Q504.497 177.263 508.942 178.374 Q513.386 179.485 518.34 179.485 Q526.349 179.485 531.025 175.272 Q535.701 171.059 535.701 163.837 Q535.701 156.615 531.025 152.402 Q526.349 148.189 518.34 148.189 Q514.59 148.189 510.84 149.022 Q507.136 149.856 503.247 151.615 L503.247 116.893 Z" fill="#000000" fill-rule="nonzero" fill-opacity="1" /><path clip-path="url(#clip930)" d="M563.479 174.254 L573.247 174.254 L573.247 186.013 L563.479 186.013 L563.479 174.254 Z" fill="#000000" fill-rule="nonzero" fill-opacity="1" /><path clip-path="url(#clip930)" d="M613.617 123.05 Q606.395 123.05 602.738 130.18 Q599.127 137.263 599.127 151.522 Q599.127 165.735 602.738 172.865 Q606.395 179.948 613.617 179.948 Q620.886 179.948 624.497 172.865 Q628.154 165.735 628.154 151.522 Q628.154 137.263 624.497 130.18 Q620.886 123.05 613.617 123.05 M613.617 115.643 Q625.238 115.643 631.349 124.856 Q637.506 134.023 637.506 151.522 Q637.506 168.976 631.349 178.189 Q625.238 187.356 613.617 187.356 Q601.997 187.356 595.84 178.189 Q589.728 168.976 589.728 151.522 Q589.728 134.023 595.84 124.856 Q601.997 115.643 613.617 115.643 Z" fill="#000000" fill-rule="nonzero" fill-opacity="1" /><path clip-path="url(#clip930)" d="M307.579 933.309 L345.391 933.309 L345.391 945.086 L246.977 945.086 L246.977 933.309 L257.799 933.309 Q251.433 929.617 248.378 924.015 Q245.258 918.35 245.258 910.52 Q245.258 897.534 255.571 889.45 Q265.883 881.302 282.689 881.302 Q299.494 881.302 309.807 889.45 Q320.119 897.534 320.119 910.52 Q320.119 918.35 317.064 924.015 Q313.944 929.617 307.579 933.309 M282.689 893.46 Q269.766 893.46 262.446 898.807 Q255.062 904.091 255.062 913.385 Q255.062 922.679 262.446 928.026 Q269.766 933.309 282.689 933.309 Q295.611 933.309 302.995 928.026 Q310.316 922.679 310.316 913.385 Q310.316 904.091 302.995 898.807 Q295.611 893.46 282.689 893.46 Z" fill="#000000" fill-rule="nonzero" fill-opacity="1" /><path clip-path="url(#clip930)" d="M282.434 829.485 Q282.434 843.68 285.681 849.155 Q288.927 854.629 296.757 854.629 Q302.995 854.629 306.688 850.555 Q310.316 846.417 310.316 839.352 Q310.316 829.612 303.441 823.756 Q296.502 817.835 285.044 817.835 L282.434 817.835 L282.434 829.485 M277.596 806.123 L318.273 806.123 L318.273 817.835 L307.451 817.835 Q313.944 821.846 317.064 827.83 Q320.119 833.813 320.119 842.471 Q320.119 853.42 314.008 859.913 Q307.833 866.342 297.521 866.342 Q285.49 866.342 279.379 858.321 Q273.268 850.237 273.268 834.259 L273.268 817.835 L272.122 817.835 Q264.037 817.835 259.645 823.183 Q255.189 828.466 255.189 838.078 Q255.189 844.189 256.653 849.982 Q258.117 855.775 261.045 861.122 L250.224 861.122 Q247.741 854.693 246.532 848.645 Q245.258 842.598 245.258 836.869 Q245.258 821.4 253.279 813.761 Q261.3 806.123 277.596 806.123 Z" fill="#000000" fill-rule="nonzero" fill-opacity="1" /><path clip-path="url(#clip930)" d="M257.926 740.683 Q256.78 742.656 256.271 745.012 Q255.698 747.303 255.698 750.104 Q255.698 760.035 262.191 765.382 Q268.621 770.666 280.715 770.666 L318.273 770.666 L318.273 782.442 L246.977 782.442 L246.977 770.666 L258.054 770.666 Q251.561 766.973 248.441 761.053 Q245.258 755.133 245.258 746.667 Q245.258 745.457 245.449 743.993 Q245.577 742.529 245.895 740.747 L257.926 740.683 Z" fill="#000000" fill-rule="nonzero" fill-opacity="1" /><path clip-path="url(#clip930)" d="M279.697 670.278 L285.426 670.278 L285.426 724.132 Q297.521 723.368 303.887 716.875 Q310.189 710.319 310.189 698.669 Q310.189 691.922 308.534 685.62 Q306.878 679.254 303.568 673.016 L314.645 673.016 Q317.318 679.318 318.719 685.938 Q320.119 692.558 320.119 699.37 Q320.119 716.43 310.189 726.424 Q300.258 736.354 283.325 736.354 Q265.82 736.354 255.571 726.933 Q245.258 717.448 245.258 701.407 Q245.258 687.02 254.552 678.681 Q263.783 670.278 279.697 670.278 M276.259 681.991 Q266.647 682.119 260.918 687.402 Q255.189 692.622 255.189 701.279 Q255.189 711.083 260.727 717.003 Q266.265 722.859 276.323 723.75 L276.259 681.991 Z" fill="#000000" fill-rule="nonzero" fill-opacity="1" /><path clip-path="url(#clip930)" d="M275.241 591.789 L318.273 591.789 L318.273 603.502 L275.623 603.502 Q265.501 603.502 260.472 607.449 Q255.444 611.396 255.444 619.289 Q255.444 628.774 261.491 634.248 Q267.538 639.723 277.978 639.723 L318.273 639.723 L318.273 651.5 L246.977 651.5 L246.977 639.723 L258.054 639.723 Q251.624 635.522 248.441 629.856 Q245.258 624.127 245.258 616.679 Q245.258 604.393 252.897 598.091 Q260.472 591.789 275.241 591.789 Z" fill="#000000" fill-rule="nonzero" fill-opacity="1" /><path clip-path="url(#clip930)" d="M302.104 566.772 L302.104 553.34 L318.273 553.34 L318.273 566.772 L302.104 566.772 Z" fill="#000000" fill-rule="nonzero" fill-opacity="1" /><path clip-path="url(#clip930)" d="M265.629 454.799 Q265.629 463.457 271.549 468.549 Q277.469 473.578 287.781 473.578 Q298.03 473.578 304.014 468.549 Q309.934 463.457 309.934 454.799 Q309.934 446.142 304.014 441.113 Q298.03 436.02 287.781 436.02 Q277.469 436.02 271.549 441.113 Q265.629 446.142 265.629 454.799 M225.334 429.273 L237.047 429.273 Q234.755 434.111 233.546 439.076 Q232.336 443.978 232.336 448.815 Q232.336 461.547 240.93 468.295 Q249.523 474.979 266.902 475.933 Q261.364 472.178 258.435 466.512 Q255.444 460.847 255.444 454.035 Q255.444 439.712 264.165 431.437 Q272.822 423.098 287.781 423.098 Q302.422 423.098 311.271 431.755 Q320.119 440.413 320.119 454.799 Q320.119 471.286 307.515 480.007 Q294.847 488.728 270.849 488.728 Q248.314 488.728 234.946 478.034 Q221.514 467.34 221.514 449.325 Q221.514 444.487 222.469 439.585 Q223.424 434.62 225.334 429.273 Z" fill="#000000" fill-rule="nonzero" fill-opacity="1" /><polyline clip-path="url(#clip932)" style="stroke:#008000; stroke-linecap:round; stroke-linejoin:round; stroke-width:8; stroke-opacity:1; fill:none" points="719.695,856.081 829.668,501.756 939.642,496.475 1049.62,497.417 1159.59,378.448 1269.56,127.862 1379.54,594.646 1489.51,261.077 1599.48,479.24 1709.46,631.778 1819.43,444.442 1929.4,967.312 2039.38,810.598 2149.35,961.253 2259.32,935.789 "/>
<circle clip-path="url(#clip932)" cx="719.695" cy="856.081" r="14.4" fill="#008000" fill-rule="evenodd" fill-opacity="1" stroke="#000000" stroke-opacity="1" stroke-width="6.4"/>
<circle clip-path="url(#clip932)" cx="829.668" cy="501.756" r="14.4" fill="#008000" fill-rule="evenodd" fill-opacity="1" stroke="#000000" stroke-opacity="1" stroke-width="6.4"/>
<circle clip-path="url(#clip932)" cx="939.642" cy="496.475" r="14.4" fill="#008000" fill-rule="evenodd" fill-opacity="1" stroke="#000000" stroke-opacity="1" stroke-width="6.4"/>
<circle clip-path="url(#clip932)" cx="1049.62" cy="497.417" r="14.4" fill="#008000" fill-rule="evenodd" fill-opacity="1" stroke="#000000" stroke-opacity="1" stroke-width="6.4"/>
<circle clip-path="url(#clip932)" cx="1159.59" cy="378.448" r="14.4" fill="#008000" fill-rule="evenodd" fill-opacity="1" stroke="#000000" stroke-opacity="1" stroke-width="6.4"/>
<circle clip-path="url(#clip932)" cx="1269.56" cy="127.862" r="14.4" fill="#008000" fill-rule="evenodd" fill-opacity="1" stroke="#000000" stroke-opacity="1" stroke-width="6.4"/>
<circle clip-path="url(#clip932)" cx="1379.54" cy="594.646" r="14.4" fill="#008000" fill-rule="evenodd" fill-opacity="1" stroke="#000000" stroke-opacity="1" stroke-width="6.4"/>
<circle clip-path="url(#clip932)" cx="1489.51" cy="261.077" r="14.4" fill="#008000" fill-rule="evenodd" fill-opacity="1" stroke="#000000" stroke-opacity="1" stroke-width="6.4"/>
<circle clip-path="url(#clip932)" cx="1599.48" cy="479.24" r="14.4" fill="#008000" fill-rule="evenodd" fill-opacity="1" stroke="#000000" stroke-opacity="1" stroke-width="6.4"/>
<circle clip-path="url(#clip932)" cx="1709.46" cy="631.778" r="14.4" fill="#008000" fill-rule="evenodd" fill-opacity="1" stroke="#000000" stroke-opacity="1" stroke-width="6.4"/>
<circle clip-path="url(#clip932)" cx="1819.43" cy="444.442" r="14.4" fill="#008000" fill-rule="evenodd" fill-opacity="1" stroke="#000000" stroke-opacity="1" stroke-width="6.4"/>
<circle clip-path="url(#clip932)" cx="1929.4" cy="967.312" r="14.4" fill="#008000" fill-rule="evenodd" fill-opacity="1" stroke="#000000" stroke-opacity="1" stroke-width="6.4"/>
<circle clip-path="url(#clip932)" cx="2039.38" cy="810.598" r="14.4" fill="#008000" fill-rule="evenodd" fill-opacity="1" stroke="#000000" stroke-opacity="1" stroke-width="6.4"/>
<circle clip-path="url(#clip932)" cx="2149.35" cy="961.253" r="14.4" fill="#008000" fill-rule="evenodd" fill-opacity="1" stroke="#000000" stroke-opacity="1" stroke-width="6.4"/>
<circle clip-path="url(#clip932)" cx="2259.32" cy="935.789" r="14.4" fill="#008000" fill-rule="evenodd" fill-opacity="1" stroke="#000000" stroke-opacity="1" stroke-width="6.4"/>
<polyline clip-path="url(#clip932)" style="stroke:#00008b; stroke-linecap:round; stroke-linejoin:round; stroke-width:8; stroke-opacity:1; fill:none" points="719.695,557.444 829.668,501.725 939.642,445.839 1049.62,442.943 1159.59,431.806 1269.56,461.226 1379.54,479.646 1489.51,538.043 1599.48,598.818 1709.46,657.273 1819.43,745.951 1929.4,820.924 2039.38,907.579 2149.35,1006.16 2259.32,1100.33 "/>
<path clip-path="url(#clip932)" d="M719.695 695.561 L829.668 631.647 L939.642 574.531 L1049.62 578.322 L1159.59 567.039 L1269.56 594.968 L1379.54 620.357 L1489.51 665.871 L1599.48 729.658 L1709.46 794.47 L1819.43 880.242 L1929.4 961.773 L2039.38 1034.27 L2149.35 1139.51 L2259.32 1240.32 L2259.32 963.187 L2149.35 877.179 L2039.38 770.687 L1929.4 688.1 L1819.43 610.449 L1709.46 523.489 L1599.48 471.769 L1489.51 411.659 L1379.54 337.726 L1269.56 334.009 L1159.59 298.279 L1049.62 311.293 L939.642 318.724 L829.668 367.607 L719.695 423.496  Z" fill="#0000ff" fill-rule="evenodd" fill-opacity="0.1"/>
<polyline clip-path="url(#clip932)" style="stroke:#0000ff; stroke-linecap:round; stroke-linejoin:round; stroke-width:0; stroke-opacity:0.1; fill:none" points="719.695,695.561 829.668,631.647 939.642,574.531 1049.62,578.322 1159.59,567.039 1269.56,594.968 1379.54,620.357 1489.51,665.871 1599.48,729.658 1709.46,794.47 1819.43,880.242 1929.4,961.773 2039.38,1034.27 2149.35,1139.51 2259.32,1240.32 "/>
</svg>
