<?xml version="1.0" encoding="utf-8"?>
<svg xmlns="http://www.w3.org/2000/svg" xmlns:xlink="http://www.w3.org/1999/xlink" width="600" height="400" viewBox="0 0 2400 1600">
<defs>
  <clipPath id="clip350">
    <rect x="0" y="0" width="2400" height="1600"/>
  </clipPath>
</defs>
<path clip-path="url(#clip350)" d="M0 1600 L2400 1600 L2400 0 L0 0  Z" fill="#ffffff" fill-rule="evenodd" fill-opacity="1"/>
<defs>
  <clipPath id="clip351">
    <rect x="480" y="0" width="1681" height="1600"/>
  </clipPath>
</defs>
<path clip-path="url(#clip350)" d="M673.506 1273.7 L2305.51 1273.7 L2305.51 94.4882 L673.506 94.4882  Z" fill="#ffffff" fill-rule="evenodd" fill-opacity="1"/>
<defs>
  <clipPath id="clip352">
    <rect x="673" y="94" width="1633" height="1180"/>
  </clipPath>
</defs>
<polyline clip-path="url(#clip352)" style="stroke:#000000; stroke-linecap:round; stroke-linejoin:round; stroke-width:4; stroke-opacity:0.1; fill:none" points="719.695,1273.7 719.695,94.4882 "/>
<polyline clip-path="url(#clip352)" style="stroke:#000000; stroke-linecap:round; stroke-linejoin:round; stroke-width:4; stroke-opacity:0.1; fill:none" points="994.628,1273.7 994.628,94.4882 "/>
<polyline clip-path="url(#clip352)" style="stroke:#000000; stroke-linecap:round; stroke-linejoin:round; stroke-width:4; stroke-opacity:0.1; fill:none" points="1269.56,1273.7 1269.56,94.4882 "/>
<polyline clip-path="url(#clip352)" style="stroke:#000000; stroke-linecap:round; stroke-linejoin:round; stroke-width:4; stroke-opacity:0.1; fill:none" points="1544.5,1273.7 1544.5,94.4882 "/>
<polyline clip-path="url(#clip352)" style="stroke:#000000; stroke-linecap:round; stroke-linejoin:round; stroke-width:4; stroke-opacity:0.1; fill:none" points="1819.43,1273.7 1819.43,94.4882 "/>
<polyline clip-path="url(#clip352)" style="stroke:#000000; stroke-linecap:round; stroke-linejoin:round; stroke-width:4; stroke-opacity:0.1; fill:none" points="2094.36,1273.7 2094.36,94.4882 "/>
<polyline clip-path="url(#clip350)" style="stroke:#000000; stroke-linecap:round; stroke-linejoin:round; stroke-width:8; stroke-opacity:1; fill:none" points="673.506,1273.7 2305.51,1273.7 "/>
<polyline clip-path="url(#clip350)" style="stroke:#000000; stroke-linecap:round; stroke-linejoin:round; stroke-width:8; stroke-opacity:1; fill:none" points="719.695,1273.7 719.695,1254.8 "/>
<polyline clip-path="url(#clip350)" style="stroke:#000000; stroke-linecap:round; stroke-linejoin:round; stroke-width:8; stroke-opacity:1; fill:none" points="994.628,1273.7 994.628,1254.8 "/>
<polyline clip-path="url(#clip350)" style="stroke:#000000; stroke-linecap:round; stroke-linejoin:round; stroke-width:8; stroke-opacity:1; fill:none" points="1269.56,1273.7 1269.56,1254.8 "/>
<polyline clip-path="url(#clip350)" style="stroke:#000000; stroke-linecap:round; stroke-linejoin:round; stroke-width:8; stroke-opacity:1; fill:none" points="1544.5,1273.7 1544.5,1254.8 "/>
<polyline clip-path="url(#clip350)" style="stroke:#000000; stroke-linecap:round; stroke-linejoin:round; stroke-width:8; stroke-opacity:1; fill:none" points="1819.43,1273.7 1819.43,1254.8 "/>
<polyline clip-path="url(#clip350)" style="stroke:#000000; stroke-linecap:round; stroke-linejoin:round; stroke-width:8; stroke-opacity:1; fill:none" points="2094.36,1273.7 2094.36,1254.8 "/>
<path clip-path="url(#clip350)" d="M644.302 1316.33 Q637.08 1316.33 633.422 1323.46 Q629.811 1330.55 629.811 1344.81 Q629.811 1359.02 633.422 1366.15 Q637.08 1373.23 644.302 1373.23 Q651.57 1373.23 655.181 1366.15 Q658.839 1359.02 658.839 1344.81 Q658.839 1330.55 655.181 1323.46 Q651.57 1316.33 644.302 1316.33 M644.302 1308.93 Q655.922 1308.93 662.033 1318.14 Q668.19 1327.31 668.19 1344.81 Q668.19 1362.26 662.033 1371.47 Q655.922 1380.64 644.302 1380.64 Q632.681 1380.64 626.524 1371.47 Q620.413 1362.26 620.413 1344.81 Q620.413 1327.31 626.524 1318.14 Q632.681 1308.93 644.302 1308.93 Z" fill="#000000" fill-rule="nonzero" fill-opacity="1" /><path clip-path="url(#clip350)" d="M684.626 1367.54 L694.394 1367.54 L694.394 1379.3 L684.626 1379.3 L684.626 1367.54 Z" fill="#000000" fill-rule="nonzero" fill-opacity="1" /><path clip-path="url(#clip350)" d="M734.764 1316.33 Q727.542 1316.33 723.885 1323.46 Q720.274 1330.55 720.274 1344.81 Q720.274 1359.02 723.885 1366.15 Q727.542 1373.23 734.764 1373.23 Q742.033 1373.23 745.644 1366.15 Q749.301 1359.02 749.301 1344.81 Q749.301 1330.55 745.644 1323.46 Q742.033 1316.33 734.764 1316.33 M734.764 1308.93 Q746.384 1308.93 752.496 1318.14 Q758.653 1327.31 758.653 1344.81 Q758.653 1362.26 752.496 1371.47 Q746.384 1380.64 734.764 1380.64 Q723.144 1380.64 716.986 1371.47 Q710.875 1362.26 710.875 1344.81 Q710.875 1327.31 716.986 1318.14 Q723.144 1308.93 734.764 1308.93 Z" fill="#000000" fill-rule="nonzero" fill-opacity="1" /><path clip-path="url(#clip350)" d="M795.088 1316.33 Q787.866 1316.33 784.208 1323.46 Q780.597 1330.55 780.597 1344.81 Q780.597 1359.02 784.208 1366.15 Q787.866 1373.23 795.088 1373.23 Q802.356 1373.23 805.967 1366.15 Q809.625 1359.02 809.625 1344.81 Q809.625 1330.55 805.967 1323.46 Q802.356 1316.33 795.088 1316.33 M795.088 1308.93 Q806.708 1308.93 812.819 1318.14 Q818.977 1327.31 818.977 1344.81 Q818.977 1362.26 812.819 1371.47 Q806.708 1380.64 795.088 1380.64 Q783.468 1380.64 777.31 1371.47 Q771.199 1362.26 771.199 1344.81 Q771.199 1327.31 777.31 1318.14 Q783.468 1308.93 795.088 1308.93 Z" fill="#000000" fill-rule="nonzero" fill-opacity="1" /><path clip-path="url(#clip350)" d="M920.231 1316.33 Q913.008 1316.33 909.351 1323.46 Q905.74 1330.55 905.74 1344.81 Q905.74 1359.02 909.351 1366.15 Q913.008 1373.23 920.231 1373.23 Q927.499 1373.23 931.11 1366.15 Q934.768 1359.02 934.768 1344.81 Q934.768 1330.55 931.11 1323.46 Q927.499 1316.33 920.231 1316.33 M920.231 1308.93 Q931.851 1308.93 937.962 1318.14 Q944.119 1327.31 944.119 1344.81 Q944.119 1362.26 937.962 1371.47 Q931.851 1380.64 920.231 1380.64 Q908.61 1380.64 902.453 1371.47 Q896.342 1362.26 896.342 1344.81 Q896.342 1327.31 902.453 1318.14 Q908.61 1308.93 920.231 1308.93 Z" fill="#000000" fill-rule="nonzero" fill-opacity="1" /><path clip-path="url(#clip350)" d="M960.555 1367.54 L970.323 1367.54 L970.323 1379.3 L960.555 1379.3 L960.555 1367.54 Z" fill="#000000" fill-rule="nonzero" fill-opacity="1" /><path clip-path="url(#clip350)" d="M998.749 1371.43 L1031.39 1371.43 L1031.39 1379.3 L987.499 1379.3 L987.499 1371.43 Q992.823 1365.92 1001.99 1356.66 Q1011.2 1347.35 1013.56 1344.67 Q1018.05 1339.62 1019.81 1336.15 Q1021.62 1332.63 1021.62 1329.25 Q1021.62 1323.74 1017.73 1320.27 Q1013.89 1316.8 1007.68 1316.8 Q1003.29 1316.8 998.378 1318.32 Q993.517 1319.85 987.962 1322.95 L987.962 1313.51 Q993.61 1311.24 998.517 1310.08 Q1003.42 1308.93 1007.5 1308.93 Q1018.24 1308.93 1024.63 1314.3 Q1031.02 1319.67 1031.02 1328.65 Q1031.02 1332.91 1029.4 1336.75 Q1027.82 1340.55 1023.61 1345.73 Q1022.45 1347.07 1016.25 1353.51 Q1010.04 1359.9 998.749 1371.43 Z" fill="#000000" fill-rule="nonzero" fill-opacity="1" /><path clip-path="url(#clip350)" d="M1051.11 1310.18 L1087.82 1310.18 L1087.82 1318.05 L1059.67 1318.05 L1059.67 1334.99 Q1061.71 1334.3 1063.75 1333.97 Q1065.79 1333.6 1067.82 1333.6 Q1079.4 1333.6 1086.16 1339.94 Q1092.91 1346.29 1092.91 1357.12 Q1092.91 1368.28 1085.97 1374.48 Q1079.03 1380.64 1066.39 1380.64 Q1062.04 1380.64 1057.5 1379.9 Q1053.01 1379.16 1048.19 1377.68 L1048.19 1368.28 Q1052.36 1370.55 1056.8 1371.66 Q1061.25 1372.77 1066.2 1372.77 Q1074.21 1372.77 1078.89 1368.56 Q1083.56 1364.34 1083.56 1357.12 Q1083.56 1349.9 1078.89 1345.68 Q1074.21 1341.47 1066.2 1341.47 Q1062.45 1341.47 1058.7 1342.31 Q1055 1343.14 1051.11 1344.9 L1051.11 1310.18 Z" fill="#000000" fill-rule="nonzero" fill-opacity="1" /><path clip-path="url(#clip350)" d="M1194.17 1316.33 Q1186.95 1316.33 1183.29 1323.46 Q1179.68 1330.55 1179.68 1344.81 Q1179.68 1359.02 1183.29 1366.15 Q1186.95 1373.23 1194.17 1373.23 Q1201.44 1373.23 1205.05 1366.15 Q1208.71 1359.02 1208.71 1344.81 Q1208.71 1330.55 1205.05 1323.46 Q1201.44 1316.33 1194.17 1316.33 M1194.17 1308.93 Q1205.79 1308.93 1211.9 1318.14 Q1218.06 1327.31 1218.06 1344.81 Q1218.06 1362.26 1211.9 1371.47 Q1205.79 1380.64 1194.17 1380.64 Q1182.55 1380.64 1176.39 1371.47 Q1170.28 1362.26 1170.28 1344.81 Q1170.28 1327.31 1176.39 1318.14 Q1182.55 1308.93 1194.17 1308.93 Z" fill="#000000" fill-rule="nonzero" fill-opacity="1" /><path clip-path="url(#clip350)" d="M1234.49 1367.54 L1244.26 1367.54 L1244.26 1379.3 L1234.49 1379.3 L1234.49 1367.54 Z" fill="#000000" fill-rule="nonzero" fill-opacity="1" /><path clip-path="url(#clip350)" d="M1264.72 1310.18 L1301.44 1310.18 L1301.44 1318.05 L1273.29 1318.05 L1273.29 1334.99 Q1275.33 1334.3 1277.36 1333.97 Q1279.4 1333.6 1281.44 1333.6 Q1293.01 1333.6 1299.77 1339.94 Q1306.53 1346.29 1306.53 1357.12 Q1306.53 1368.28 1299.58 1374.48 Q1292.64 1380.64 1280 1380.64 Q1275.65 1380.64 1271.11 1379.9 Q1266.62 1379.16 1261.81 1377.68 L1261.81 1368.28 Q1265.97 1370.55 1270.42 1371.66 Q1274.86 1372.77 1279.82 1372.77 Q1287.83 1372.77 1292.5 1368.56 Q1297.18 1364.34 1297.18 1357.12 Q1297.18 1349.9 1292.5 1345.68 Q1287.83 1341.47 1279.82 1341.47 Q1276.07 1341.47 1272.32 1342.31 Q1268.61 1343.14 1264.72 1344.9 L1264.72 1310.18 Z" fill="#000000" fill-rule="nonzero" fill-opacity="1" /><path clip-path="url(#clip350)" d="M1344.96 1316.33 Q1337.73 1316.33 1334.08 1323.46 Q1330.46 1330.55 1330.46 1344.81 Q1330.46 1359.02 1334.08 1366.15 Q1337.73 1373.23 1344.96 1373.23 Q1352.22 1373.23 1355.83 1366.15 Q1359.49 1359.02 1359.49 1344.81 Q1359.49 1330.55 1355.83 1323.46 Q1352.22 1316.33 1344.96 1316.33 M1344.96 1308.93 Q1356.58 1308.93 1362.69 1318.14 Q1368.84 1327.31 1368.84 1344.81 Q1368.84 1362.26 1362.69 1371.47 Q1356.58 1380.64 1344.96 1380.64 Q1333.33 1380.64 1327.18 1371.47 Q1321.07 1362.26 1321.07 1344.81 Q1321.07 1327.31 1327.18 1318.14 Q1333.33 1308.93 1344.96 1308.93 Z" fill="#000000" fill-rule="nonzero" fill-opacity="1" /><path clip-path="url(#clip350)" d="M1470.1 1316.33 Q1462.88 1316.33 1459.22 1323.46 Q1455.61 1330.55 1455.61 1344.81 Q1455.61 1359.02 1459.22 1366.15 Q1462.88 1373.23 1470.1 1373.23 Q1477.37 1373.23 1480.98 1366.15 Q1484.63 1359.02 1484.63 1344.81 Q1484.63 1330.55 1480.98 1323.46 Q1477.37 1316.33 1470.1 1316.33 M1470.1 1308.93 Q1481.72 1308.93 1487.83 1318.14 Q1493.99 1327.31 1493.99 1344.81 Q1493.99 1362.26 1487.83 1371.47 Q1481.72 1380.64 1470.1 1380.64 Q1458.48 1380.64 1452.32 1371.47 Q1446.21 1362.26 1446.21 1344.81 Q1446.21 1327.31 1452.32 1318.14 Q1458.48 1308.93 1470.1 1308.93 Z" fill="#000000" fill-rule="nonzero" fill-opacity="1" /><path clip-path="url(#clip350)" d="M1510.42 1367.54 L1520.19 1367.54 L1520.19 1379.3 L1510.42 1379.3 L1510.42 1367.54 Z" fill="#000000" fill-rule="nonzero" fill-opacity="1" /><path clip-path="url(#clip350)" d="M1538.2 1310.18 L1582.64 1310.18 L1582.64 1314.16 L1557.55 1379.3 L1547.78 1379.3 L1571.39 1318.05 L1538.2 1318.05 L1538.2 1310.18 Z" fill="#000000" fill-rule="nonzero" fill-opacity="1" /><path clip-path="url(#clip350)" d="M1600.98 1310.18 L1637.69 1310.18 L1637.69 1318.05 L1609.54 1318.05 L1609.54 1334.99 Q1611.58 1334.3 1613.62 1333.97 Q1615.65 1333.6 1617.69 1333.6 Q1629.26 1333.6 1636.02 1339.94 Q1642.78 1346.29 1642.78 1357.12 Q1642.78 1368.28 1635.84 1374.48 Q1628.89 1380.64 1616.25 1380.64 Q1611.9 1380.64 1607.37 1379.9 Q1602.87 1379.16 1598.06 1377.68 L1598.06 1368.28 Q1602.23 1370.55 1606.67 1371.66 Q1611.12 1372.77 1616.07 1372.77 Q1624.08 1372.77 1628.75 1368.56 Q1633.43 1364.34 1633.43 1357.12 Q1633.43 1349.9 1628.75 1345.68 Q1624.08 1341.47 1616.07 1341.47 Q1612.32 1341.47 1608.57 1342.31 Q1604.87 1343.14 1600.98 1344.9 L1600.98 1310.18 Z" fill="#000000" fill-rule="nonzero" fill-opacity="1" /><path clip-path="url(#clip350)" d="M1723.57 1371.43 L1738.85 1371.43 L1738.85 1318.69 L1722.23 1322.03 L1722.23 1313.51 L1738.76 1310.18 L1748.11 1310.18 L1748.11 1371.43 L1763.39 1371.43 L1763.39 1379.3 L1723.57 1379.3 L1723.57 1371.43 Z" fill="#000000" fill-rule="nonzero" fill-opacity="1" /><path clip-path="url(#clip350)" d="M1782.28 1367.54 L1792.05 1367.54 L1792.05 1379.3 L1782.28 1379.3 L1782.28 1367.54 Z" fill="#000000" fill-rule="nonzero" fill-opacity="1" /><path clip-path="url(#clip350)" d="M1832.42 1316.33 Q1825.19 1316.33 1821.54 1323.46 Q1817.92 1330.55 1817.92 1344.81 Q1817.92 1359.02 1821.54 1366.15 Q1825.19 1373.23 1832.42 1373.23 Q1839.68 1373.23 1843.29 1366.15 Q1846.95 1359.02 1846.95 1344.81 Q1846.95 1330.55 1843.29 1323.46 Q1839.68 1316.33 1832.42 1316.33 M1832.42 1308.93 Q1844.04 1308.93 1850.15 1318.14 Q1856.3 1327.31 1856.3 1344.81 Q1856.3 1362.26 1850.15 1371.47 Q1844.04 1380.64 1832.42 1380.64 Q1820.79 1380.64 1814.64 1371.47 Q1808.53 1362.26 1808.53 1344.81 Q1808.53 1327.31 1814.64 1318.14 Q1820.79 1308.93 1832.42 1308.93 Z" fill="#000000" fill-rule="nonzero" fill-opacity="1" /><path clip-path="url(#clip350)" d="M1892.74 1316.33 Q1885.52 1316.33 1881.86 1323.46 Q1878.25 1330.55 1878.25 1344.81 Q1878.25 1359.02 1881.86 1366.15 Q1885.52 1373.23 1892.74 1373.23 Q1900.01 1373.23 1903.62 1366.15 Q1907.28 1359.02 1907.28 1344.81 Q1907.28 1330.55 1903.62 1323.46 Q1900.01 1316.33 1892.74 1316.33 M1892.74 1308.93 Q1904.36 1308.93 1910.47 1318.14 Q1916.63 1327.31 1916.63 1344.81 Q1916.63 1362.26 1910.47 1371.47 Q1904.36 1380.64 1892.74 1380.64 Q1881.12 1380.64 1874.96 1371.47 Q1868.85 1362.26 1868.85 1344.81 Q1868.85 1327.31 1874.96 1318.14 Q1881.12 1308.93 1892.74 1308.93 Z" fill="#000000" fill-rule="nonzero" fill-opacity="1" /><path clip-path="url(#clip350)" d="M1999.5 1371.43 L2014.78 1371.43 L2014.78 1318.69 L1998.16 1322.03 L1998.16 1313.51 L2014.69 1310.18 L2024.04 1310.18 L2024.04 1371.43 L2039.32 1371.43 L2039.32 1379.3 L1999.5 1379.3 L1999.5 1371.43 Z" fill="#000000" fill-rule="nonzero" fill-opacity="1" /><path clip-path="url(#clip350)" d="M2058.21 1367.54 L2067.97 1367.54 L2067.97 1379.3 L2058.21 1379.3 L2058.21 1367.54 Z" fill="#000000" fill-rule="nonzero" fill-opacity="1" /><path clip-path="url(#clip350)" d="M2096.4 1371.43 L2129.04 1371.43 L2129.04 1379.3 L2085.15 1379.3 L2085.15 1371.43 Q2090.47 1365.92 2099.64 1356.66 Q2108.85 1347.35 2111.21 1344.67 Q2115.71 1339.62 2117.46 1336.15 Q2119.27 1332.63 2119.27 1329.25 Q2119.27 1323.74 2115.38 1320.27 Q2111.54 1316.8 2105.33 1316.8 Q2100.94 1316.8 2096.03 1318.32 Q2091.17 1319.85 2085.61 1322.95 L2085.61 1313.51 Q2091.26 1311.24 2096.17 1310.08 Q2101.08 1308.93 2105.15 1308.93 Q2115.89 1308.93 2122.28 1314.3 Q2128.67 1319.67 2128.67 1328.65 Q2128.67 1332.91 2127.05 1336.75 Q2125.47 1340.55 2121.26 1345.73 Q2120.1 1347.07 2113.9 1353.51 Q2107.7 1359.9 2096.4 1371.43 Z" fill="#000000" fill-rule="nonzero" fill-opacity="1" /><path clip-path="url(#clip350)" d="M2148.76 1310.18 L2185.47 1310.18 L2185.47 1318.05 L2157.33 1318.05 L2157.33 1334.99 Q2159.36 1334.3 2161.4 1333.97 Q2163.44 1333.6 2165.47 1333.6 Q2177.05 1333.6 2183.81 1339.94 Q2190.57 1346.29 2190.57 1357.12 Q2190.57 1368.28 2183.62 1374.48 Q2176.68 1380.64 2164.04 1380.64 Q2159.69 1380.64 2155.15 1379.9 Q2150.66 1379.16 2145.84 1377.68 L2145.84 1368.28 Q2150.01 1370.55 2154.46 1371.66 Q2158.9 1372.77 2163.85 1372.77 Q2171.86 1372.77 2176.54 1368.56 Q2181.21 1364.34 2181.21 1357.12 Q2181.21 1349.9 2176.54 1345.68 Q2171.86 1341.47 2163.85 1341.47 Q2160.1 1341.47 2156.35 1342.31 Q2152.65 1343.14 2148.76 1344.9 L2148.76 1310.18 Z" fill="#000000" fill-rule="nonzero" fill-opacity="1" /><path clip-path="url(#clip350)" d="M1375.05 1484.39 L1375.05 1527.42 L1363.34 1527.42 L1363.34 1484.77 Q1363.34 1474.65 1359.39 1469.62 Q1355.45 1464.59 1347.55 1464.59 Q1338.07 1464.59 1332.59 1470.64 Q1327.12 1476.69 1327.12 1487.13 L1327.12 1527.42 L1315.34 1527.42 L1315.34 1428.37 L1327.12 1428.37 L1327.12 1467.2 Q1331.32 1460.77 1336.99 1457.59 Q1342.72 1454.41 1350.16 1454.41 Q1362.45 1454.41 1368.75 1462.05 Q1375.05 1469.62 1375.05 1484.39 Z" fill="#000000" fill-rule="nonzero" fill-opacity="1" /><path clip-path="url(#clip350)" d="M1426.04 1464.34 Q1416.62 1464.34 1411.15 1471.72 Q1405.67 1479.04 1405.67 1491.84 Q1405.67 1504.63 1411.08 1512.02 Q1416.56 1519.34 1426.04 1519.34 Q1435.4 1519.34 1440.87 1511.96 Q1446.35 1504.57 1446.35 1491.84 Q1446.35 1479.17 1440.87 1471.79 Q1435.4 1464.34 1426.04 1464.34 M1426.04 1454.41 Q1441.32 1454.41 1450.04 1464.34 Q1458.76 1474.27 1458.76 1491.84 Q1458.76 1509.35 1450.04 1519.34 Q1441.32 1529.27 1426.04 1529.27 Q1410.7 1529.27 1401.98 1519.34 Q1393.32 1509.35 1393.32 1491.84 Q1393.32 1474.27 1401.98 1464.34 Q1410.7 1454.41 1426.04 1454.41 Z" fill="#000000" fill-rule="nonzero" fill-opacity="1" /><path clip-path="url(#clip350)" d="M1476.97 1499.29 L1476.97 1456.13 L1488.68 1456.13 L1488.68 1498.84 Q1488.68 1508.96 1492.63 1514.06 Q1496.57 1519.08 1504.47 1519.08 Q1513.95 1519.08 1519.43 1513.04 Q1524.97 1506.99 1524.97 1496.55 L1524.97 1456.13 L1536.68 1456.13 L1536.68 1527.42 L1524.97 1527.42 L1524.97 1516.47 Q1520.7 1522.97 1515.04 1526.15 Q1509.43 1529.27 1501.99 1529.27 Q1489.7 1529.27 1483.33 1521.63 Q1476.97 1513.99 1476.97 1499.29 M1506.44 1454.41 L1506.44 1454.41 Z" fill="#000000" fill-rule="nonzero" fill-opacity="1" /><path clip-path="url(#clip350)" d="M1602.12 1467.08 Q1600.14 1465.93 1597.79 1465.42 Q1595.5 1464.85 1592.7 1464.85 Q1582.77 1464.85 1577.42 1471.34 Q1572.14 1477.77 1572.14 1489.87 L1572.14 1527.42 L1560.36 1527.42 L1560.36 1456.13 L1572.14 1456.13 L1572.14 1467.2 Q1575.83 1460.71 1581.75 1457.59 Q1587.67 1454.41 1596.13 1454.41 Q1597.34 1454.41 1598.81 1454.6 Q1600.27 1454.73 1602.05 1455.05 L1602.12 1467.08 Z" fill="#000000" fill-rule="nonzero" fill-opacity="1" /><path clip-path="url(#clip350)" d="M1659.86 1458.23 L1659.86 1469.3 Q1654.89 1466.76 1649.54 1465.49 Q1644.2 1464.21 1638.47 1464.21 Q1629.75 1464.21 1625.35 1466.89 Q1621.02 1469.56 1621.02 1474.91 Q1621.02 1478.98 1624.14 1481.34 Q1627.26 1483.63 1636.68 1485.73 L1640.69 1486.62 Q1653.17 1489.29 1658.39 1494.19 Q1663.67 1499.03 1663.67 1507.75 Q1663.67 1517.68 1655.78 1523.48 Q1647.95 1529.27 1634.2 1529.27 Q1628.47 1529.27 1622.23 1528.12 Q1616.06 1527.04 1609.18 1524.81 L1609.18 1512.72 Q1615.68 1516.09 1621.98 1517.81 Q1628.28 1519.47 1634.46 1519.47 Q1642.73 1519.47 1647.19 1516.67 Q1651.64 1513.8 1651.64 1508.64 Q1651.64 1503.87 1648.4 1501.32 Q1645.21 1498.78 1634.33 1496.42 L1630.25 1495.47 Q1619.37 1493.18 1614.53 1488.47 Q1609.69 1483.69 1609.69 1475.42 Q1609.69 1465.36 1616.82 1459.88 Q1623.95 1454.41 1637.07 1454.41 Q1643.56 1454.41 1649.29 1455.36 Q1655.02 1456.32 1659.86 1458.23 Z" fill="#000000" fill-rule="nonzero" fill-opacity="1" /><polyline clip-path="url(#clip352)" style="stroke:#000000; stroke-linecap:round; stroke-linejoin:round; stroke-width:4; stroke-opacity:0.1; fill:none" points="673.506,1241.1 2305.51,1241.1 "/>
<polyline clip-path="url(#clip352)" style="stroke:#000000; stroke-linecap:round; stroke-linejoin:round; stroke-width:4; stroke-opacity:0.1; fill:none" points="673.506,1075.74 2305.51,1075.74 "/>
<polyline clip-path="url(#clip352)" style="stroke:#000000; stroke-linecap:round; stroke-linejoin:round; stroke-width:4; stroke-opacity:0.1; fill:none" points="673.506,910.386 2305.51,910.386 "/>
<polyline clip-path="url(#clip352)" style="stroke:#000000; stroke-linecap:round; stroke-linejoin:round; stroke-width:4; stroke-opacity:0.1; fill:none" points="673.506,745.03 2305.51,745.03 "/>
<polyline clip-path="url(#clip352)" style="stroke:#000000; stroke-linecap:round; stroke-linejoin:round; stroke-width:4; stroke-opacity:0.1; fill:none" points="673.506,579.674 2305.51,579.674 "/>
<polyline clip-path="url(#clip352)" style="stroke:#000000; stroke-linecap:round; stroke-linejoin:round; stroke-width:4; stroke-opacity:0.1; fill:none" points="673.506,414.317 2305.51,414.317 "/>
<polyline clip-path="url(#clip352)" style="stroke:#000000; stroke-linecap:round; stroke-linejoin:round; stroke-width:4; stroke-opacity:0.1; fill:none" points="673.506,248.961 2305.51,248.961 "/>
<polyline clip-path="url(#clip350)" style="stroke:#000000; stroke-linecap:round; stroke-linejoin:round; stroke-width:8; stroke-opacity:1; fill:none" points="673.506,1273.7 673.506,94.4882 "/>
<polyline clip-path="url(#clip350)" style="stroke:#000000; stroke-linecap:round; stroke-linejoin:round; stroke-width:8; stroke-opacity:1; fill:none" points="673.506,1241.1 692.404,1241.1 "/>
<polyline clip-path="url(#clip350)" style="stroke:#000000; stroke-linecap:round; stroke-linejoin:round; stroke-width:8; stroke-opacity:1; fill:none" points="673.506,1075.74 692.404,1075.74 "/>
<polyline clip-path="url(#clip350)" style="stroke:#000000; stroke-linecap:round; stroke-linejoin:round; stroke-width:8; stroke-opacity:1; fill:none" points="673.506,910.386 692.404,910.386 "/>
<polyline clip-path="url(#clip350)" style="stroke:#000000; stroke-linecap:round; stroke-linejoin:round; stroke-width:8; stroke-opacity:1; fill:none" points="673.506,745.03 692.404,745.03 "/>
<polyline clip-path="url(#clip350)" style="stroke:#000000; stroke-linecap:round; stroke-linejoin:round; stroke-width:8; stroke-opacity:1; fill:none" points="673.506,579.674 692.404,579.674 "/>
<polyline clip-path="url(#clip350)" style="stroke:#000000; stroke-linecap:round; stroke-linejoin:round; stroke-width:8; stroke-opacity:1; fill:none" points="673.506,414.317 692.404,414.317 "/>
<polyline clip-path="url(#clip350)" style="stroke:#000000; stroke-linecap:round; stroke-linejoin:round; stroke-width:8; stroke-opacity:1; fill:none" points="673.506,248.961 692.404,248.961 "/>
<path clip-path="url(#clip350)" d="M440.47 1206.54 L484.914 1206.54 L484.914 1210.52 L459.822 1275.66 L450.053 1275.66 L473.664 1214.41 L440.47 1214.41 L440.47 1206.54 Z" fill="#000000" fill-rule="nonzero" fill-opacity="1" /><path clip-path="url(#clip350)" d="M503.247 1206.54 L539.96 1206.54 L539.96 1214.41 L511.812 1214.41 L511.812 1231.35 Q513.849 1230.66 515.886 1230.33 Q517.923 1229.96 519.96 1229.96 Q531.534 1229.96 538.294 1236.31 Q545.053 1242.65 545.053 1253.48 Q545.053 1264.64 538.108 1270.84 Q531.164 1277 518.525 1277 Q514.173 1277 509.636 1276.26 Q505.146 1275.52 500.331 1274.04 L500.331 1264.64 Q504.497 1266.91 508.942 1268.02 Q513.386 1269.13 518.34 1269.13 Q526.349 1269.13 531.025 1264.92 Q535.701 1260.7 535.701 1253.48 Q535.701 1246.26 531.025 1242.05 Q526.349 1237.83 518.34 1237.83 Q514.59 1237.83 510.84 1238.67 Q507.136 1239.5 503.247 1241.26 L503.247 1206.54 Z" fill="#000000" fill-rule="nonzero" fill-opacity="1" /><path clip-path="url(#clip350)" d="M563.479 1263.9 L573.247 1263.9 L573.247 1275.66 L563.479 1275.66 L563.479 1263.9 Z" fill="#000000" fill-rule="nonzero" fill-opacity="1" /><path clip-path="url(#clip350)" d="M613.617 1212.7 Q606.395 1212.7 602.738 1219.82 Q599.127 1226.91 599.127 1241.17 Q599.127 1255.38 602.738 1262.51 Q606.395 1269.59 613.617 1269.59 Q620.886 1269.59 624.497 1262.51 Q628.154 1255.38 628.154 1241.17 Q628.154 1226.91 624.497 1219.82 Q620.886 1212.7 613.617 1212.7 M613.617 1205.29 Q625.238 1205.29 631.349 1214.5 Q637.506 1223.67 637.506 1241.17 Q637.506 1258.62 631.349 1267.83 Q625.238 1277 613.617 1277 Q601.997 1277 595.84 1267.83 Q589.728 1258.62 589.728 1241.17 Q589.728 1223.67 595.84 1214.5 Q601.997 1205.29 613.617 1205.29 Z" fill="#000000" fill-rule="nonzero" fill-opacity="1" /><path clip-path="url(#clip350)" d="M462.831 1077.48 Q456.164 1077.48 452.322 1081.04 Q448.525 1084.61 448.525 1090.86 Q448.525 1097.11 452.322 1100.67 Q456.164 1104.24 462.831 1104.24 Q469.498 1104.24 473.34 1100.67 Q477.183 1097.06 477.183 1090.86 Q477.183 1084.61 473.34 1081.04 Q469.544 1077.48 462.831 1077.48 M453.479 1073.5 Q447.461 1072.01 444.081 1067.89 Q440.748 1063.77 440.748 1057.85 Q440.748 1049.56 446.627 1044.75 Q452.553 1039.93 462.831 1039.93 Q473.155 1039.93 479.035 1044.75 Q484.914 1049.56 484.914 1057.85 Q484.914 1063.77 481.535 1067.89 Q478.201 1072.01 472.229 1073.5 Q478.988 1075.07 482.738 1079.65 Q486.535 1084.24 486.535 1090.86 Q486.535 1100.9 480.377 1106.27 Q474.266 1111.64 462.831 1111.64 Q451.396 1111.64 445.238 1106.27 Q439.127 1100.9 439.127 1090.86 Q439.127 1084.24 442.924 1079.65 Q446.72 1075.07 453.479 1073.5 M450.053 1058.73 Q450.053 1064.1 453.387 1067.11 Q456.766 1070.12 462.831 1070.12 Q468.849 1070.12 472.229 1067.11 Q475.655 1064.1 475.655 1058.73 Q475.655 1053.36 472.229 1050.35 Q468.849 1047.34 462.831 1047.34 Q456.766 1047.34 453.387 1050.35 Q450.053 1053.36 450.053 1058.73 Z" fill="#000000" fill-rule="nonzero" fill-opacity="1" /><path clip-path="url(#clip350)" d="M523.155 1047.34 Q515.933 1047.34 512.275 1054.47 Q508.664 1061.55 508.664 1075.81 Q508.664 1090.02 512.275 1097.15 Q515.933 1104.24 523.155 1104.24 Q530.423 1104.24 534.034 1097.15 Q537.692 1090.02 537.692 1075.81 Q537.692 1061.55 534.034 1054.47 Q530.423 1047.34 523.155 1047.34 M523.155 1039.93 Q534.775 1039.93 540.886 1049.14 Q547.043 1058.31 547.043 1075.81 Q547.043 1093.26 540.886 1102.48 Q534.775 1111.64 523.155 1111.64 Q511.534 1111.64 505.377 1102.48 Q499.266 1093.26 499.266 1075.81 Q499.266 1058.31 505.377 1049.14 Q511.534 1039.93 523.155 1039.93 Z" fill="#000000" fill-rule="nonzero" fill-opacity="1" /><path clip-path="url(#clip350)" d="M563.479 1098.54 L573.247 1098.54 L573.247 1110.3 L563.479 1110.3 L563.479 1098.54 Z" fill="#000000" fill-rule="nonzero" fill-opacity="1" /><path clip-path="url(#clip350)" d="M613.617 1047.34 Q606.395 1047.34 602.738 1054.47 Q599.127 1061.55 599.127 1075.81 Q599.127 1090.02 602.738 1097.15 Q606.395 1104.24 613.617 1104.24 Q620.886 1104.24 624.497 1097.15 Q628.154 1090.02 628.154 1075.81 Q628.154 1061.55 624.497 1054.47 Q620.886 1047.34 613.617 1047.34 M613.617 1039.93 Q625.238 1039.93 631.349 1049.14 Q637.506 1058.31 637.506 1075.81 Q637.506 1093.26 631.349 1102.48 Q625.238 1111.64 613.617 1111.64 Q601.997 1111.64 595.84 1102.48 Q589.728 1093.26 589.728 1075.81 Q589.728 1058.31 595.84 1049.14 Q601.997 1039.93 613.617 1039.93 Z" fill="#000000" fill-rule="nonzero" fill-opacity="1" /><path clip-path="url(#clip350)" d="M462.831 912.122 Q456.164 912.122 452.322 915.687 Q448.525 919.251 448.525 925.501 Q448.525 931.751 452.322 935.316 Q456.164 938.881 462.831 938.881 Q469.498 938.881 473.34 935.316 Q477.183 931.705 477.183 925.501 Q477.183 919.251 473.34 915.687 Q469.544 912.122 462.831 912.122 M453.479 908.14 Q447.461 906.659 444.081 902.538 Q440.748 898.418 440.748 892.492 Q440.748 884.205 446.627 879.39 Q452.553 874.576 462.831 874.576 Q473.155 874.576 479.035 879.39 Q484.914 884.205 484.914 892.492 Q484.914 898.418 481.535 902.538 Q478.201 906.659 472.229 908.14 Q478.988 909.714 482.738 914.298 Q486.535 918.881 486.535 925.501 Q486.535 935.548 480.377 940.918 Q474.266 946.288 462.831 946.288 Q451.396 946.288 445.238 940.918 Q439.127 935.548 439.127 925.501 Q439.127 918.881 442.924 914.298 Q446.72 909.714 453.479 908.14 M450.053 893.372 Q450.053 898.742 453.387 901.751 Q456.766 904.761 462.831 904.761 Q468.849 904.761 472.229 901.751 Q475.655 898.742 475.655 893.372 Q475.655 888.002 472.229 884.992 Q468.849 881.983 462.831 881.983 Q456.766 881.983 453.387 884.992 Q450.053 888.002 450.053 893.372 Z" fill="#000000" fill-rule="nonzero" fill-opacity="1" /><path clip-path="url(#clip350)" d="M503.247 875.826 L539.96 875.826 L539.96 883.696 L511.812 883.696 L511.812 900.64 Q513.849 899.946 515.886 899.622 Q517.923 899.251 519.96 899.251 Q531.534 899.251 538.294 905.594 Q545.053 911.937 545.053 922.77 Q545.053 933.927 538.108 940.131 Q531.164 946.288 518.525 946.288 Q514.173 946.288 509.636 945.548 Q505.146 944.807 500.331 943.325 L500.331 933.927 Q504.497 936.196 508.942 937.307 Q513.386 938.418 518.34 938.418 Q526.349 938.418 531.025 934.205 Q535.701 929.992 535.701 922.77 Q535.701 915.548 531.025 911.335 Q526.349 907.122 518.34 907.122 Q514.59 907.122 510.84 907.955 Q507.136 908.788 503.247 910.548 L503.247 875.826 Z" fill="#000000" fill-rule="nonzero" fill-opacity="1" /><path clip-path="url(#clip350)" d="M563.479 933.186 L573.247 933.186 L573.247 944.946 L563.479 944.946 L563.479 933.186 Z" fill="#000000" fill-rule="nonzero" fill-opacity="1" /><path clip-path="url(#clip350)" d="M613.617 881.983 Q606.395 881.983 602.738 889.113 Q599.127 896.196 599.127 910.455 Q599.127 924.668 602.738 931.798 Q606.395 938.881 613.617 938.881 Q620.886 938.881 624.497 931.798 Q628.154 924.668 628.154 910.455 Q628.154 896.196 624.497 889.113 Q620.886 881.983 613.617 881.983 M613.617 874.576 Q625.238 874.576 631.349 883.789 Q637.506 892.955 637.506 910.455 Q637.506 927.909 631.349 937.122 Q625.238 946.288 613.617 946.288 Q601.997 946.288 595.84 937.122 Q589.728 927.909 589.728 910.455 Q589.728 892.955 595.84 883.789 Q601.997 874.576 613.617 874.576 Z" fill="#000000" fill-rule="nonzero" fill-opacity="1" /><path clip-path="url(#clip350)" d="M443.109 778.154 L443.109 769.636 Q446.627 771.303 450.238 772.182 Q453.85 773.062 457.322 773.062 Q466.581 773.062 471.442 766.858 Q476.349 760.608 477.044 747.923 Q474.359 751.905 470.238 754.034 Q466.118 756.164 461.118 756.164 Q450.748 756.164 444.683 749.914 Q438.664 743.618 438.664 732.738 Q438.664 722.09 444.961 715.655 Q451.257 709.22 461.72 709.22 Q473.711 709.22 480.007 718.433 Q486.349 727.599 486.349 745.099 Q486.349 761.442 478.572 771.21 Q470.84 780.932 457.738 780.932 Q454.22 780.932 450.609 780.238 Q446.998 779.543 443.109 778.154 M461.72 748.849 Q468.016 748.849 471.674 744.543 Q475.377 740.238 475.377 732.738 Q475.377 725.284 471.674 720.979 Q468.016 716.627 461.72 716.627 Q455.424 716.627 451.72 720.979 Q448.063 725.284 448.063 732.738 Q448.063 740.238 451.72 744.543 Q455.424 748.849 461.72 748.849 Z" fill="#000000" fill-rule="nonzero" fill-opacity="1" /><path clip-path="url(#clip350)" d="M523.155 716.627 Q515.933 716.627 512.275 723.757 Q508.664 730.84 508.664 745.099 Q508.664 759.312 512.275 766.442 Q515.933 773.525 523.155 773.525 Q530.423 773.525 534.034 766.442 Q537.692 759.312 537.692 745.099 Q537.692 730.84 534.034 723.757 Q530.423 716.627 523.155 716.627 M523.155 709.22 Q534.775 709.22 540.886 718.433 Q547.043 727.599 547.043 745.099 Q547.043 762.553 540.886 771.766 Q534.775 780.932 523.155 780.932 Q511.534 780.932 505.377 771.766 Q499.266 762.553 499.266 745.099 Q499.266 727.599 505.377 718.433 Q511.534 709.22 523.155 709.22 Z" fill="#000000" fill-rule="nonzero" fill-opacity="1" /><path clip-path="url(#clip350)" d="M563.479 767.83 L573.247 767.83 L573.247 779.59 L563.479 779.59 L563.479 767.83 Z" fill="#000000" fill-rule="nonzero" fill-opacity="1" /><path clip-path="url(#clip350)" d="M613.617 716.627 Q606.395 716.627 602.738 723.757 Q599.127 730.84 599.127 745.099 Q599.127 759.312 602.738 766.442 Q606.395 773.525 613.617 773.525 Q620.886 773.525 624.497 766.442 Q628.154 759.312 628.154 745.099 Q628.154 730.84 624.497 723.757 Q620.886 716.627 613.617 716.627 M613.617 709.22 Q625.238 709.22 631.349 718.433 Q637.506 727.599 637.506 745.099 Q637.506 762.553 631.349 771.766 Q625.238 780.932 613.617 780.932 Q601.997 780.932 595.84 771.766 Q589.728 762.553 589.728 745.099 Q589.728 727.599 595.84 718.433 Q601.997 709.22 613.617 709.22 Z" fill="#000000" fill-rule="nonzero" fill-opacity="1" /><path clip-path="url(#clip350)" d="M443.109 612.798 L443.109 604.28 Q446.627 605.947 450.238 606.826 Q453.85 607.706 457.322 607.706 Q466.581 607.706 471.442 601.502 Q476.349 595.252 477.044 582.567 Q474.359 586.548 470.238 588.678 Q466.118 590.808 461.118 590.808 Q450.748 590.808 444.683 584.558 Q438.664 578.261 438.664 567.382 Q438.664 556.734 444.961 550.299 Q451.257 543.864 461.72 543.864 Q473.711 543.864 480.007 553.076 Q486.349 562.243 486.349 579.743 Q486.349 596.085 478.572 605.854 Q470.84 615.576 457.738 615.576 Q454.22 615.576 450.609 614.882 Q446.998 614.187 443.109 612.798 M461.72 583.493 Q468.016 583.493 471.674 579.187 Q475.377 574.882 475.377 567.382 Q475.377 559.928 471.674 555.623 Q468.016 551.271 461.72 551.271 Q455.424 551.271 451.72 555.623 Q448.063 559.928 448.063 567.382 Q448.063 574.882 451.72 579.187 Q455.424 583.493 461.72 583.493 Z" fill="#000000" fill-rule="nonzero" fill-opacity="1" /><path clip-path="url(#clip350)" d="M503.247 545.114 L539.96 545.114 L539.96 552.984 L511.812 552.984 L511.812 569.928 Q513.849 569.234 515.886 568.91 Q517.923 568.539 519.96 568.539 Q531.534 568.539 538.294 574.882 Q545.053 581.224 545.053 592.058 Q545.053 603.215 538.108 609.419 Q531.164 615.576 518.525 615.576 Q514.173 615.576 509.636 614.835 Q505.146 614.095 500.331 612.613 L500.331 603.215 Q504.497 605.484 508.942 606.595 Q513.386 607.706 518.34 607.706 Q526.349 607.706 531.025 603.493 Q535.701 599.28 535.701 592.058 Q535.701 584.836 531.025 580.623 Q526.349 576.41 518.34 576.41 Q514.59 576.41 510.84 577.243 Q507.136 578.076 503.247 579.836 L503.247 545.114 Z" fill="#000000" fill-rule="nonzero" fill-opacity="1" /><path clip-path="url(#clip350)" d="M563.479 602.474 L573.247 602.474 L573.247 614.234 L563.479 614.234 L563.479 602.474 Z" fill="#000000" fill-rule="nonzero" fill-opacity="1" /><path clip-path="url(#clip350)" d="M613.617 551.271 Q606.395 551.271 602.738 558.4 Q599.127 565.484 599.127 579.743 Q599.127 593.956 602.738 601.085 Q606.395 608.169 613.617 608.169 Q620.886 608.169 624.497 601.085 Q628.154 593.956 628.154 579.743 Q628.154 565.484 624.497 558.4 Q620.886 551.271 613.617 551.271 M613.617 543.864 Q625.238 543.864 631.349 553.076 Q637.506 562.243 637.506 579.743 Q637.506 597.197 631.349 606.409 Q625.238 615.576 613.617 615.576 Q601.997 615.576 595.84 606.409 Q589.728 597.197 589.728 579.743 Q589.728 562.243 595.84 553.076 Q601.997 543.864 613.617 543.864 Z" fill="#000000" fill-rule="nonzero" fill-opacity="1" /><path clip-path="url(#clip350)" d="M384.128 441.007 L399.405 441.007 L399.405 388.276 L382.785 391.609 L382.785 383.091 L399.313 379.757 L408.665 379.757 L408.665 441.007 L423.942 441.007 L423.942 448.877 L384.128 448.877 L384.128 441.007 Z" fill="#000000" fill-rule="nonzero" fill-opacity="1" /><path clip-path="url(#clip350)" d="M462.831 385.915 Q455.609 385.915 451.951 393.044 Q448.34 400.128 448.34 414.387 Q448.34 428.6 451.951 435.729 Q455.609 442.813 462.831 442.813 Q470.099 442.813 473.711 435.729 Q477.368 428.6 477.368 414.387 Q477.368 400.128 473.711 393.044 Q470.099 385.915 462.831 385.915 M462.831 378.507 Q474.451 378.507 480.562 387.72 Q486.72 396.887 486.72 414.387 Q486.72 431.841 480.562 441.053 Q474.451 450.22 462.831 450.22 Q451.211 450.22 445.053 441.053 Q438.942 431.841 438.942 414.387 Q438.942 396.887 445.053 387.72 Q451.211 378.507 462.831 378.507 Z" fill="#000000" fill-rule="nonzero" fill-opacity="1" /><path clip-path="url(#clip350)" d="M523.155 385.915 Q515.933 385.915 512.275 393.044 Q508.664 400.128 508.664 414.387 Q508.664 428.6 512.275 435.729 Q515.933 442.813 523.155 442.813 Q530.423 442.813 534.034 435.729 Q537.692 428.6 537.692 414.387 Q537.692 400.128 534.034 393.044 Q530.423 385.915 523.155 385.915 M523.155 378.507 Q534.775 378.507 540.886 387.72 Q547.043 396.887 547.043 414.387 Q547.043 431.841 540.886 441.053 Q534.775 450.22 523.155 450.22 Q511.534 450.22 505.377 441.053 Q499.266 431.841 499.266 414.387 Q499.266 396.887 505.377 387.72 Q511.534 378.507 523.155 378.507 Z" fill="#000000" fill-rule="nonzero" fill-opacity="1" /><path clip-path="url(#clip350)" d="M563.479 437.118 L573.247 437.118 L573.247 448.877 L563.479 448.877 L563.479 437.118 Z" fill="#000000" fill-rule="nonzero" fill-opacity="1" /><path clip-path="url(#clip350)" d="M613.617 385.915 Q606.395 385.915 602.738 393.044 Q599.127 400.128 599.127 414.387 Q599.127 428.6 602.738 435.729 Q606.395 442.813 613.617 442.813 Q620.886 442.813 624.497 435.729 Q628.154 428.6 628.154 414.387 Q628.154 400.128 624.497 393.044 Q620.886 385.915 613.617 385.915 M613.617 378.507 Q625.238 378.507 631.349 387.72 Q637.506 396.887 637.506 414.387 Q637.506 431.841 631.349 441.053 Q625.238 450.22 613.617 450.22 Q601.997 450.22 595.84 441.053 Q589.728 431.841 589.728 414.387 Q589.728 396.887 595.84 387.72 Q601.997 378.507 613.617 378.507 Z" fill="#000000" fill-rule="nonzero" fill-opacity="1" /><path clip-path="url(#clip350)" d="M384.128 275.651 L399.405 275.651 L399.405 222.92 L382.785 226.253 L382.785 217.735 L399.313 214.401 L408.665 214.401 L408.665 275.651 L423.942 275.651 L423.942 283.521 L384.128 283.521 L384.128 275.651 Z" fill="#000000" fill-rule="nonzero" fill-opacity="1" /><path clip-path="url(#clip350)" d="M462.831 220.559 Q455.609 220.559 451.951 227.688 Q448.34 234.772 448.34 249.031 Q448.34 263.244 451.951 270.373 Q455.609 277.457 462.831 277.457 Q470.099 277.457 473.711 270.373 Q477.368 263.244 477.368 249.031 Q477.368 234.772 473.711 227.688 Q470.099 220.559 462.831 220.559 M462.831 213.151 Q474.451 213.151 480.562 222.364 Q486.72 231.531 486.72 249.031 Q486.72 266.484 480.562 275.697 Q474.451 284.864 462.831 284.864 Q451.211 284.864 445.053 275.697 Q438.942 266.484 438.942 249.031 Q438.942 231.531 445.053 222.364 Q451.211 213.151 462.831 213.151 Z" fill="#000000" fill-rule="nonzero" fill-opacity="1" /><path clip-path="url(#clip350)" d="M503.247 214.401 L539.96 214.401 L539.96 222.272 L511.812 222.272 L511.812 239.216 Q513.849 238.522 515.886 238.198 Q517.923 237.827 519.96 237.827 Q531.534 237.827 538.294 244.17 Q545.053 250.512 545.053 261.346 Q545.053 272.503 538.108 278.707 Q531.164 284.864 518.525 284.864 Q514.173 284.864 509.636 284.123 Q505.146 283.383 500.331 281.901 L500.331 272.503 Q504.497 274.771 508.942 275.883 Q513.386 276.994 518.34 276.994 Q526.349 276.994 531.025 272.781 Q535.701 268.568 535.701 261.346 Q535.701 254.123 531.025 249.91 Q526.349 245.698 518.34 245.698 Q514.59 245.698 510.84 246.531 Q507.136 247.364 503.247 249.123 L503.247 214.401 Z" fill="#000000" fill-rule="nonzero" fill-opacity="1" /><path clip-path="url(#clip350)" d="M563.479 271.762 L573.247 271.762 L573.247 283.521 L563.479 283.521 L563.479 271.762 Z" fill="#000000" fill-rule="nonzero" fill-opacity="1" /><path clip-path="url(#clip350)" d="M613.617 220.559 Q606.395 220.559 602.738 227.688 Q599.127 234.772 599.127 249.031 Q599.127 263.244 602.738 270.373 Q606.395 277.457 613.617 277.457 Q620.886 277.457 624.497 270.373 Q628.154 263.244 628.154 249.031 Q628.154 234.772 624.497 227.688 Q620.886 220.559 613.617 220.559 M613.617 213.151 Q625.238 213.151 631.349 222.364 Q637.506 231.531 637.506 249.031 Q637.506 266.484 631.349 275.697 Q625.238 284.864 613.617 284.864 Q601.997 284.864 595.84 275.697 Q589.728 266.484 589.728 249.031 Q589.728 231.531 595.84 222.364 Q601.997 213.151 613.617 213.151 Z" fill="#000000" fill-rule="nonzero" fill-opacity="1" /><path clip-path="url(#clip350)" d="M307.579 931.845 L345.391 931.845 L345.391 943.622 L246.977 943.622 L246.977 931.845 L257.799 931.845 Q251.433 928.153 248.378 922.551 Q245.258 916.886 245.258 909.056 Q245.258 896.07 255.571 887.986 Q265.883 879.837 282.689 879.837 Q299.494 879.837 309.807 887.986 Q320.119 896.07 320.119 909.056 Q320.119 916.886 317.064 922.551 Q313.944 928.153 307.579 931.845 M282.689 891.996 Q269.766 891.996 262.446 897.343 Q255.062 902.627 255.062 911.921 Q255.062 921.215 262.446 926.562 Q269.766 931.845 282.689 931.845 Q295.611 931.845 302.995 926.562 Q310.316 921.215 310.316 911.921 Q310.316 902.627 302.995 897.343 Q295.611 891.996 282.689 891.996 Z" fill="#000000" fill-rule="nonzero" fill-opacity="1" /><path clip-path="url(#clip350)" d="M282.434 828.021 Q282.434 842.216 285.681 847.691 Q288.927 853.165 296.757 853.165 Q302.995 853.165 306.688 849.091 Q310.316 844.953 310.316 837.887 Q310.316 828.148 303.441 822.291 Q296.502 816.371 285.044 816.371 L282.434 816.371 L282.434 828.021 M277.596 804.658 L318.273 804.658 L318.273 816.371 L307.451 816.371 Q313.944 820.382 317.064 826.366 Q320.119 832.349 320.119 841.007 Q320.119 851.956 314.008 858.449 Q307.833 864.878 297.521 864.878 Q285.49 864.878 279.379 856.857 Q273.268 848.773 273.268 832.795 L273.268 816.371 L272.122 816.371 Q264.037 816.371 259.645 821.719 Q255.189 827.002 255.189 836.614 Q255.189 842.725 256.653 848.518 Q258.117 854.311 261.045 859.658 L250.224 859.658 Q247.741 853.229 246.532 847.181 Q245.258 841.134 245.258 835.405 Q245.258 819.936 253.279 812.297 Q261.3 804.658 277.596 804.658 Z" fill="#000000" fill-rule="nonzero" fill-opacity="1" /><path clip-path="url(#clip350)" d="M257.926 739.219 Q256.78 741.192 256.271 743.548 Q255.698 745.839 255.698 748.64 Q255.698 758.571 262.191 763.918 Q268.621 769.201 280.715 769.201 L318.273 769.201 L318.273 780.978 L246.977 780.978 L246.977 769.201 L258.054 769.201 Q251.561 765.509 248.441 759.589 Q245.258 753.669 245.258 745.203 Q245.258 743.993 245.449 742.529 Q245.577 741.065 245.895 739.283 L257.926 739.219 Z" fill="#000000" fill-rule="nonzero" fill-opacity="1" /><path clip-path="url(#clip350)" d="M279.697 668.814 L285.426 668.814 L285.426 722.668 Q297.521 721.904 303.887 715.411 Q310.189 708.855 310.189 697.205 Q310.189 690.458 308.534 684.156 Q306.878 677.79 303.568 671.552 L314.645 671.552 Q317.318 677.854 318.719 684.474 Q320.119 691.094 320.119 697.906 Q320.119 714.966 310.189 724.96 Q300.258 734.89 283.325 734.89 Q265.82 734.89 255.571 725.469 Q245.258 715.984 245.258 699.943 Q245.258 685.556 254.552 677.217 Q263.783 668.814 279.697 668.814 M276.259 680.527 Q266.647 680.654 260.918 685.938 Q255.189 691.158 255.189 699.815 Q255.189 709.618 260.727 715.539 Q266.265 721.395 276.323 722.286 L276.259 680.527 Z" fill="#000000" fill-rule="nonzero" fill-opacity="1" /><path clip-path="url(#clip350)" d="M275.241 590.325 L318.273 590.325 L318.273 602.038 L275.623 602.038 Q265.501 602.038 260.472 605.985 Q255.444 609.931 255.444 617.825 Q255.444 627.31 261.491 632.784 Q267.538 638.259 277.978 638.259 L318.273 638.259 L318.273 650.035 L246.977 650.035 L246.977 638.259 L258.054 638.259 Q251.624 634.058 248.441 628.392 Q245.258 622.663 245.258 615.215 Q245.258 602.929 252.897 596.627 Q260.472 590.325 275.241 590.325 Z" fill="#000000" fill-rule="nonzero" fill-opacity="1" /><path clip-path="url(#clip350)" d="M302.104 565.308 L302.104 551.876 L318.273 551.876 L318.273 565.308 L302.104 565.308 Z" fill="#000000" fill-rule="nonzero" fill-opacity="1" /><path clip-path="url(#clip350)" d="M223.233 485.673 L223.233 424.562 L228.708 424.562 L318.273 459.064 L318.273 472.496 L234.055 440.031 L234.055 485.673 L223.233 485.673 Z" fill="#000000" fill-rule="nonzero" fill-opacity="1" /><polyline clip-path="url(#clip352)" style="stroke:#008000; stroke-linecap:round; stroke-linejoin:round; stroke-width:8; stroke-opacity:1; fill:none" points="719.695,1136.26 829.668,890.1 939.642,431.516 1049.62,588.028 1159.59,366.698 1269.56,263.847 1379.54,127.862 1489.51,252.134 1599.48,323.394 1709.46,348.822 1819.43,296.826 1929.4,396.164 2039.38,324.688 2149.35,629.39 2259.32,561.09 "/>
<circle clip-path="url(#clip352)" cx="719.695" cy="1136.26" r="14.4" fill="#008000" fill-rule="evenodd" fill-opacity="1" stroke="#000000" stroke-opacity="1" stroke-width="6.4"/>
<circle clip-path="url(#clip352)" cx="829.668" cy="890.1" r="14.4" fill="#008000" fill-rule="evenodd" fill-opacity="1" stroke="#000000" stroke-opacity="1" stroke-width="6.4"/>
<circle clip-path="url(#clip352)" cx="939.642" cy="431.516" r="14.4" fill="#008000" fill-rule="evenodd" fill-opacity="1" stroke="#000000" stroke-opacity="1" stroke-width="6.4"/>
<circle clip-path="url(#clip352)" cx="1049.62" cy="588.028" r="14.4" fill="#008000" fill-rule="evenodd" fill-opacity="1" stroke="#000000" stroke-opacity="1" stroke-width="6.4"/>
<circle clip-path="url(#clip352)" cx="1159.59" cy="366.698" r="14.4" fill="#008000" fill-rule="evenodd" fill-opacity="1" stroke="#000000" stroke-opacity="1" stroke-width="6.4"/>
<circle clip-path="url(#clip352)" cx="1269.56" cy="263.847" r="14.4" fill="#008000" fill-rule="evenodd" fill-opacity="1" stroke="#000000" stroke-opacity="1" stroke-width="6.4"/>
<circle clip-path="url(#clip352)" cx="1379.54" cy="127.862" r="14.4" fill="#008000" fill-rule="evenodd" fill-opacity="1" stroke="#000000" stroke-opacity="1" stroke-width="6.4"/>
<circle clip-path="url(#clip352)" cx="1489.51" cy="252.134" r="14.4" fill="#008000" fill-rule="evenodd" fill-opacity="1" stroke="#000000" stroke-opacity="1" stroke-width="6.4"/>
<circle clip-path="url(#clip352)" cx="1599.48" cy="323.394" r="14.4" fill="#008000" fill-rule="evenodd" fill-opacity="1" stroke="#000000" stroke-opacity="1" stroke-width="6.4"/>
<circle clip-path="url(#clip352)" cx="1709.46" cy="348.822" r="14.4" fill="#008000" fill-rule="evenodd" fill-opacity="1" stroke="#000000" stroke-opacity="1" stroke-width="6.4"/>
<circle clip-path="url(#clip352)" cx="1819.43" cy="296.826" r="14.4" fill="#008000" fill-rule="evenodd" fill-opacity="1" stroke="#000000" stroke-opacity="1" stroke-width="6.4"/>
<circle clip-path="url(#clip352)" cx="1929.4" cy="396.164" r="14.4" fill="#008000" fill-rule="evenodd" fill-opacity="1" stroke="#000000" stroke-opacity="1" stroke-width="6.4"/>
<circle clip-path="url(#clip352)" cx="2039.38" cy="324.688" r="14.4" fill="#008000" fill-rule="evenodd" fill-opacity="1" stroke="#000000" stroke-opacity="1" stroke-width="6.4"/>
<circle clip-path="url(#clip352)" cx="2149.35" cy="629.39" r="14.4" fill="#008000" fill-rule="evenodd" fill-opacity="1" stroke="#000000" stroke-opacity="1" stroke-width="6.4"/>
<circle clip-path="url(#clip352)" cx="2259.32" cy="561.09" r="14.4" fill="#008000" fill-rule="evenodd" fill-opacity="1" stroke="#000000" stroke-opacity="1" stroke-width="6.4"/>
<polyline clip-path="url(#clip352)" style="stroke:#00008b; stroke-linecap:round; stroke-linejoin:round; stroke-width:8; stroke-opacity:1; fill:none" points="719.695,1136.27 829.668,1014.72 939.642,908.276 1049.62,820.937 1159.59,734.935 1269.56,665.064 1379.54,592.643 1489.51,542.577 1599.48,504.569 1709.46,462.916 1819.43,431.919 1929.4,412.64 2039.38,393.203 2149.35,387.306 2259.32,372.589 "/>
<path clip-path="url(#clip352)" d="M719.695 1240.32 L829.668 1115.44 L939.642 1011.9 L1049.62 922.566 L1159.59 832.076 L1269.56 768.135 L1379.54 695.454 L1489.51 648.559 L1599.48 607.69 L1709.46 568.228 L1819.43 535.533 L1929.4 519.286 L2039.38 497.323 L2149.35 498.924 L2259.32 479.682 L2259.32 273.818 L2149.35 282.911 L2039.38 289.23 L1929.4 312.968 L1819.43 331.256 L1709.46 356.669 L1599.48 400.943 L1489.51 443.028 L1379.54 489.064 L1269.56 558.31 L1159.59 634.068 L1049.62 713.923 L939.642 803.752 L829.668 909.438 L719.695 1026.53  Z" fill="#0000ff" fill-rule="evenodd" fill-opacity="0.1"/>
<polyline clip-path="url(#clip352)" style="stroke:#0000ff; stroke-linecap:round; stroke-linejoin:round; stroke-width:0; stroke-opacity:0.1; fill:none" points="719.695,1240.32 829.668,1115.44 939.642,1011.9 1049.62,922.566 1159.59,832.076 1269.56,768.135 1379.54,695.454 1489.51,648.559 1599.48,607.69 1709.46,568.228 1819.43,535.533 1929.4,519.286 2039.38,497.323 2149.35,498.924 2259.32,479.682 "/>
</svg>
