<?xml version="1.0" encoding="utf-8"?>
<svg xmlns="http://www.w3.org/2000/svg" xmlns:xlink="http://www.w3.org/1999/xlink" width="600" height="400" viewBox="0 0 2400 1600">
<defs>
  <clipPath id="clip040">
    <rect x="0" y="0" width="2400" height="1600"/>
  </clipPath>
</defs>
<path clip-path="url(#clip040)" d="M0 1600 L2400 1600 L2400 0 L0 0  Z" fill="#ffffff" fill-rule="evenodd" fill-opacity="1"/>
<defs>
  <clipPath id="clip041">
    <rect x="480" y="0" width="1681" height="1600"/>
  </clipPath>
</defs>
<path clip-path="url(#clip040)" d="M673.506 1273.7 L2305.51 1273.7 L2305.51 94.4882 L673.506 94.4882  Z" fill="#ffffff" fill-rule="evenodd" fill-opacity="1"/>
<defs>
  <clipPath id="clip042">
    <rect x="673" y="94" width="1633" height="1180"/>
  </clipPath>
</defs>
<polyline clip-path="url(#clip042)" style="stroke:#000000; stroke-linecap:round; stroke-linejoin:round; stroke-width:4; stroke-opacity:0.1; fill:none" points="719.695,1273.7 719.695,94.4882 "/>
<polyline clip-path="url(#clip042)" style="stroke:#000000; stroke-linecap:round; stroke-linejoin:round; stroke-width:4; stroke-opacity:0.1; fill:none" points="994.628,1273.7 994.628,94.4882 "/>
<polyline clip-path="url(#clip042)" style="stroke:#000000; stroke-linecap:round; stroke-linejoin:round; stroke-width:4; stroke-opacity:0.1; fill:none" points="1269.56,1273.7 1269.56,94.4882 "/>
<polyline clip-path="url(#clip042)" style="stroke:#000000; stroke-linecap:round; stroke-linejoin:round; stroke-width:4; stroke-opacity:0.1; fill:none" points="1544.5,1273.7 1544.5,94.4882 "/>
<polyline clip-path="url(#clip042)" style="stroke:#000000; stroke-linecap:round; stroke-linejoin:round; stroke-width:4; stroke-opacity:0.1; fill:none" points="1819.43,1273.7 1819.43,94.4882 "/>
<polyline clip-path="url(#clip042)" style="stroke:#000000; stroke-linecap:round; stroke-linejoin:round; stroke-width:4; stroke-opacity:0.1; fill:none" points="2094.36,1273.7 2094.36,94.4882 "/>
<polyline clip-path="url(#clip040)" style="stroke:#000000; stroke-linecap:round; stroke-linejoin:round; stroke-width:8; stroke-opacity:1; fill:none" points="673.506,1273.7 2305.51,1273.7 "/>
<polyline clip-path="url(#clip040)" style="stroke:#000000; stroke-linecap:round; stroke-linejoin:round; stroke-width:8; stroke-opacity:1; fill:none" points="719.695,1273.7 719.695,1254.8 "/>
<polyline clip-path="url(#clip040)" style="stroke:#000000; stroke-linecap:round; stroke-linejoin:round; stroke-width:8; stroke-opacity:1; fill:none" points="994.628,1273.7 994.628,1254.8 "/>
<polyline clip-path="url(#clip040)" style="stroke:#000000; stroke-linecap:round; stroke-linejoin:round; stroke-width:8; stroke-opacity:1; fill:none" points="1269.56,1273.7 1269.56,1254.8 "/>
<polyline clip-path="url(#clip040)" style="stroke:#000000; stroke-linecap:round; stroke-linejoin:round; stroke-width:8; stroke-opacity:1; fill:none" points="1544.5,1273.7 1544.5,1254.8 "/>
<polyline clip-path="url(#clip040)" style="stroke:#000000; stroke-linecap:round; stroke-linejoin:round; stroke-width:8; stroke-opacity:1; fill:none" points="1819.43,1273.7 1819.43,1254.8 "/>
<polyline clip-path="url(#clip040)" style="stroke:#000000; stroke-linecap:round; stroke-linejoin:round; stroke-width:8; stroke-opacity:1; fill:none" points="2094.36,1273.7 2094.36,1254.8 "/>
<path clip-path="url(#clip040)" d="M644.302 1316.33 Q637.08 1316.33 633.422 1323.46 Q629.811 1330.55 629.811 1344.81 Q629.811 1359.02 633.422 1366.15 Q637.08 1373.23 644.302 1373.23 Q651.57 1373.23 655.181 1366.15 Q658.839 1359.02 658.839 1344.81 Q658.839 1330.55 655.181 1323.46 Q651.57 1316.33 644.302 1316.33 M644.302 1308.93 Q655.922 1308.93 662.033 1318.14 Q668.19 1327.31 668.19 1344.81 Q668.19 1362.26 662.033 1371.47 Q655.922 1380.64 644.302 1380.64 Q632.681 1380.64 626.524 1371.47 Q620.413 1362.26 620.413 1344.81 Q620.413 1327.31 626.524 1318.14 Q632.681 1308.93 644.302 1308.93 Z" fill="#000000" fill-rule="nonzero" fill-opacity="1" /><path clip-path="url(#clip040)" d="M684.626 1367.54 L694.394 1367.54 L694.394 1379.3 L684.626 1379.3 L684.626 1367.54 Z" fill="#000000" fill-rule="nonzero" fill-opacity="1" /><path clip-path="url(#clip040)" d="M734.764 1316.33 Q727.542 1316.33 723.885 1323.46 Q720.274 1330.55 720.274 1344.81 Q720.274 1359.02 723.885 1366.15 Q727.542 1373.23 734.764 1373.23 Q742.033 1373.23 745.644 1366.15 Q749.301 1359.02 749.301 1344.81 Q749.301 1330.55 745.644 1323.46 Q742.033 1316.33 734.764 1316.33 M734.764 1308.93 Q746.384 1308.93 752.496 1318.14 Q758.653 1327.31 758.653 1344.81 Q758.653 1362.26 752.496 1371.47 Q746.384 1380.64 734.764 1380.64 Q723.144 1380.64 716.986 1371.47 Q710.875 1362.26 710.875 1344.81 Q710.875 1327.31 716.986 1318.14 Q723.144 1308.93 734.764 1308.93 Z" fill="#000000" fill-rule="nonzero" fill-opacity="1" /><path clip-path="url(#clip040)" d="M795.088 1316.33 Q787.866 1316.33 784.208 1323.46 Q780.597 1330.55 780.597 1344.81 Q780.597 1359.02 784.208 1366.15 Q787.866 1373.23 795.088 1373.23 Q802.356 1373.23 805.967 1366.15 Q809.625 1359.02 809.625 1344.81 Q809.625 1330.55 805.967 1323.46 Q802.356 1316.33 795.088 1316.33 M795.088 1308.93 Q806.708 1308.93 812.819 1318.14 Q818.977 1327.31 818.977 1344.81 Q818.977 1362.26 812.819 1371.47 Q806.708 1380.64 795.088 1380.64 Q783.468 1380.64 777.31 1371.47 Q771.199 1362.26 771.199 1344.81 Q771.199 1327.31 777.31 1318.14 Q783.468 1308.93 795.088 1308.93 Z" fill="#000000" fill-rule="nonzero" fill-opacity="1" /><path clip-path="url(#clip040)" d="M920.231 1316.33 Q913.008 1316.33 909.351 1323.46 Q905.74 1330.55 905.74 1344.81 Q905.74 1359.02 909.351 1366.15 Q913.008 1373.23 920.231 1373.23 Q927.499 1373.23 931.11 1366.15 Q934.768 1359.02 934.768 1344.81 Q934.768 1330.55 931.11 1323.46 Q927.499 1316.33 920.231 1316.33 M920.231 1308.93 Q931.851 1308.93 937.962 1318.14 Q944.119 1327.31 944.119 1344.81 Q944.119 1362.26 937.962 1371.47 Q931.851 1380.64 920.231 1380.64 Q908.61 1380.64 902.453 1371.47 Q896.342 1362.26 896.342 1344.81 Q896.342 1327.31 902.453 1318.14 Q908.61 1308.93 920.231 1308.93 Z" fill="#000000" fill-rule="nonzero" fill-opacity="1" /><path clip-path="url(#clip040)" d="M960.555 1367.54 L970.323 1367.54 L970.323 1379.3 L960.555 1379.3 L960.555 1367.54 Z" fill="#000000" fill-rule="nonzero" fill-opacity="1" /><path clip-path="url(#clip040)" d="M998.749 1371.43 L1031.39 1371.43 L1031.39 1379.3 L987.499 1379.3 L987.499 1371.43 Q992.823 1365.92 1001.99 1356.66 Q1011.2 1347.35 1013.56 1344.67 Q1018.05 1339.62 1019.81 1336.15 Q1021.62 1332.63 1021.62 1329.25 Q1021.62 1323.74 1017.73 1320.27 Q1013.89 1316.8 1007.68 1316.8 Q1003.29 1316.8 998.378 1318.32 Q993.517 1319.85 987.962 1322.95 L987.962 1313.51 Q993.61 1311.24 998.517 1310.08 Q1003.42 1308.93 1007.5 1308.93 Q1018.24 1308.93 1024.63 1314.3 Q1031.02 1319.67 1031.02 1328.65 Q1031.02 1332.91 1029.4 1336.75 Q1027.82 1340.55 1023.61 1345.73 Q1022.45 1347.07 1016.25 1353.51 Q1010.04 1359.9 998.749 1371.43 Z" fill="#000000" fill-rule="nonzero" fill-opacity="1" /><path clip-path="url(#clip040)" d="M1051.11 1310.18 L1087.82 1310.18 L1087.82 1318.05 L1059.67 1318.05 L1059.67 1334.99 Q1061.71 1334.3 1063.75 1333.97 Q1065.79 1333.6 1067.82 1333.6 Q1079.4 1333.6 1086.16 1339.94 Q1092.91 1346.29 1092.91 1357.12 Q1092.91 1368.28 1085.97 1374.48 Q1079.03 1380.64 1066.39 1380.64 Q1062.04 1380.64 1057.5 1379.9 Q1053.01 1379.16 1048.19 1377.68 L1048.19 1368.28 Q1052.36 1370.55 1056.8 1371.66 Q1061.25 1372.77 1066.2 1372.77 Q1074.21 1372.77 1078.89 1368.56 Q1083.56 1364.34 1083.56 1357.12 Q1083.56 1349.9 1078.89 1345.68 Q1074.21 1341.47 1066.2 1341.47 Q1062.45 1341.47 1058.7 1342.31 Q1055 1343.14 1051.11 1344.9 L1051.11 1310.18 Z" fill="#000000" fill-rule="nonzero" fill-opacity="1" /><path clip-path="url(#clip040)" d="M1194.17 1316.33 Q1186.95 1316.33 1183.29 1323.46 Q1179.68 1330.55 1179.68 1344.81 Q1179.68 1359.02 1183.29 1366.15 Q1186.95 1373.23 1194.17 1373.23 Q1201.44 1373.23 1205.05 1366.15 Q1208.71 1359.02 1208.71 1344.81 Q1208.71 1330.55 1205.05 1323.46 Q1201.44 1316.33 1194.17 1316.33 M1194.17 1308.93 Q1205.79 1308.93 1211.9 1318.14 Q1218.06 1327.31 1218.06 1344.81 Q1218.06 1362.26 1211.9 1371.47 Q1205.79 1380.64 1194.17 1380.64 Q1182.55 1380.64 1176.39 1371.47 Q1170.28 1362.26 1170.28 1344.81 Q1170.28 1327.31 1176.39 1318.14 Q1182.55 1308.93 1194.17 1308.93 Z" fill="#000000" fill-rule="nonzero" fill-opacity="1" /><path clip-path="url(#clip040)" d="M1234.49 1367.54 L1244.26 1367.54 L1244.26 1379.3 L1234.49 1379.3 L1234.49 1367.54 Z" fill="#000000" fill-rule="nonzero" fill-opacity="1" /><path clip-path="url(#clip040)" d="M1264.72 1310.18 L1301.44 1310.18 L1301.44 1318.05 L1273.29 1318.05 L1273.29 1334.99 Q1275.33 1334.3 1277.36 1333.97 Q1279.4 1333.6 1281.44 1333.6 Q1293.01 1333.6 1299.77 1339.94 Q1306.53 1346.29 1306.53 1357.12 Q1306.53 1368.28 1299.58 1374.48 Q1292.64 1380.64 1280 1380.64 Q1275.65 1380.64 1271.11 1379.9 Q1266.62 1379.16 1261.81 1377.68 L1261.81 1368.28 Q1265.97 1370.55 1270.42 1371.66 Q1274.86 1372.77 1279.82 1372.77 Q1287.83 1372.77 1292.5 1368.56 Q1297.18 1364.34 1297.18 1357.12 Q1297.18 1349.9 1292.5 1345.68 Q1287.83 1341.47 1279.82 1341.47 Q1276.07 1341.47 1272.32 1342.31 Q1268.61 1343.14 1264.72 1344.9 L1264.72 1310.18 Z" fill="#000000" fill-rule="nonzero" fill-opacity="1" /><path clip-path="url(#clip040)" d="M1344.96 1316.33 Q1337.73 1316.33 1334.08 1323.46 Q1330.46 1330.55 1330.46 1344.81 Q1330.46 1359.02 1334.08 1366.15 Q1337.73 1373.23 1344.96 1373.23 Q1352.22 1373.23 1355.83 1366.15 Q1359.49 1359.02 1359.49 1344.81 Q1359.49 1330.55 1355.83 1323.46 Q1352.22 1316.33 1344.96 1316.33 M1344.96 1308.93 Q1356.58 1308.93 1362.69 1318.14 Q1368.84 1327.31 1368.84 1344.81 Q1368.84 1362.26 1362.69 1371.47 Q1356.58 1380.64 1344.96 1380.64 Q1333.33 1380.64 1327.18 1371.47 Q1321.07 1362.26 1321.07 1344.81 Q1321.07 1327.31 1327.18 1318.14 Q1333.33 1308.93 1344.96 1308.93 Z" fill="#000000" fill-rule="nonzero" fill-opacity="1" /><path clip-path="url(#clip040)" d="M1470.1 1316.33 Q1462.88 1316.33 1459.22 1323.46 Q1455.61 1330.55 1455.61 1344.81 Q1455.61 1359.02 1459.22 1366.15 Q1462.88 1373.23 1470.1 1373.23 Q1477.37 1373.23 1480.98 1366.15 Q1484.63 1359.02 1484.63 1344.81 Q1484.63 1330.55 1480.98 1323.46 Q1477.37 1316.33 1470.1 1316.33 M1470.1 1308.93 Q1481.72 1308.93 1487.83 1318.14 Q1493.99 1327.31 1493.99 1344.81 Q1493.99 1362.26 1487.83 1371.47 Q1481.72 1380.64 1470.1 1380.64 Q1458.48 1380.64 1452.32 1371.47 Q1446.21 1362.26 1446.21 1344.81 Q1446.21 1327.31 1452.32 1318.14 Q1458.48 1308.93 1470.1 1308.93 Z" fill="#000000" fill-rule="nonzero" fill-opacity="1" /><path clip-path="url(#clip040)" d="M1510.42 1367.54 L1520.19 1367.54 L1520.19 1379.3 L1510.42 1379.3 L1510.42 1367.54 Z" fill="#000000" fill-rule="nonzero" fill-opacity="1" /><path clip-path="url(#clip040)" d="M1538.2 1310.18 L1582.64 1310.18 L1582.64 1314.16 L1557.55 1379.3 L1547.78 1379.3 L1571.39 1318.05 L1538.2 1318.05 L1538.2 1310.18 Z" fill="#000000" fill-rule="nonzero" fill-opacity="1" /><path clip-path="url(#clip040)" d="M1600.98 1310.18 L1637.69 1310.18 L1637.69 1318.05 L1609.54 1318.05 L1609.54 1334.99 Q1611.58 1334.3 1613.62 1333.97 Q1615.65 1333.6 1617.69 1333.6 Q1629.26 1333.6 1636.02 1339.94 Q1642.78 1346.29 1642.78 1357.12 Q1642.78 1368.28 1635.84 1374.48 Q1628.89 1380.64 1616.25 1380.64 Q1611.9 1380.64 1607.37 1379.9 Q1602.87 1379.16 1598.06 1377.68 L1598.06 1368.28 Q1602.23 1370.55 1606.67 1371.66 Q1611.12 1372.77 1616.07 1372.77 Q1624.08 1372.77 1628.75 1368.56 Q1633.43 1364.34 1633.43 1357.12 Q1633.43 1349.9 1628.75 1345.68 Q1624.08 1341.47 1616.07 1341.47 Q1612.32 1341.47 1608.57 1342.31 Q1604.87 1343.14 1600.98 1344.9 L1600.98 1310.18 Z" fill="#000000" fill-rule="nonzero" fill-opacity="1" /><path clip-path="url(#clip040)" d="M1723.57 1371.43 L1738.85 1371.43 L1738.85 1318.69 L1722.23 1322.03 L1722.23 1313.51 L1738.76 1310.18 L1748.11 1310.18 L1748.11 1371.43 L1763.39 1371.43 L1763.39 1379.3 L1723.57 1379.3 L1723.57 1371.43 Z" fill="#000000" fill-rule="nonzero" fill-opacity="1" /><path clip-path="url(#clip040)" d="M1782.28 1367.54 L1792.05 1367.54 L1792.05 1379.3 L1782.28 1379.3 L1782.28 1367.54 Z" fill="#000000" fill-rule="nonzero" fill-opacity="1" /><path clip-path="url(#clip040)" d="M1832.42 1316.33 Q1825.19 1316.33 1821.54 1323.46 Q1817.92 1330.55 1817.92 1344.81 Q1817.92 1359.02 1821.54 1366.15 Q1825.19 1373.23 1832.42 1373.23 Q1839.68 1373.23 1843.29 1366.15 Q1846.95 1359.02 1846.95 1344.81 Q1846.95 1330.55 1843.29 1323.46 Q1839.68 1316.33 1832.42 1316.33 M1832.42 1308.93 Q1844.04 1308.93 1850.15 1318.14 Q1856.3 1327.31 1856.3 1344.81 Q1856.3 1362.26 1850.15 1371.47 Q1844.04 1380.64 1832.42 1380.64 Q1820.79 1380.64 1814.64 1371.47 Q1808.53 1362.26 1808.53 1344.81 Q1808.53 1327.31 1814.64 1318.14 Q1820.79 1308.93 1832.42 1308.93 Z" fill="#000000" fill-rule="nonzero" fill-opacity="1" /><path clip-path="url(#clip040)" d="M1892.74 1316.33 Q1885.52 1316.33 1881.86 1323.46 Q1878.25 1330.55 1878.25 1344.81 Q1878.25 1359.02 1881.86 1366.15 Q1885.52 1373.23 1892.74 1373.23 Q1900.01 1373.23 1903.62 1366.15 Q1907.28 1359.02 1907.28 1344.81 Q1907.28 1330.55 1903.62 1323.46 Q1900.01 1316.33 1892.74 1316.33 M1892.74 1308.93 Q1904.36 1308.93 1910.47 1318.14 Q1916.63 1327.31 1916.63 1344.81 Q1916.63 1362.26 1910.47 1371.47 Q1904.36 1380.64 1892.74 1380.64 Q1881.12 1380.64 1874.96 1371.47 Q1868.85 1362.26 1868.85 1344.81 Q1868.85 1327.31 1874.96 1318.14 Q1881.12 1308.93 1892.74 1308.93 Z" fill="#000000" fill-rule="nonzero" fill-opacity="1" /><path clip-path="url(#clip040)" d="M1999.5 1371.43 L2014.78 1371.43 L2014.78 1318.69 L1998.16 1322.03 L1998.16 1313.51 L2014.69 1310.18 L2024.04 1310.18 L2024.04 1371.43 L2039.32 1371.43 L2039.32 1379.3 L1999.5 1379.3 L1999.5 1371.43 Z" fill="#000000" fill-rule="nonzero" fill-opacity="1" /><path clip-path="url(#clip040)" d="M2058.21 1367.54 L2067.97 1367.54 L2067.97 1379.3 L2058.21 1379.3 L2058.21 1367.54 Z" fill="#000000" fill-rule="nonzero" fill-opacity="1" /><path clip-path="url(#clip040)" d="M2096.4 1371.43 L2129.04 1371.43 L2129.04 1379.3 L2085.15 1379.3 L2085.15 1371.43 Q2090.47 1365.92 2099.64 1356.66 Q2108.85 1347.35 2111.21 1344.67 Q2115.71 1339.62 2117.46 1336.15 Q2119.27 1332.63 2119.27 1329.25 Q2119.27 1323.74 2115.38 1320.27 Q2111.54 1316.8 2105.33 1316.8 Q2100.94 1316.8 2096.03 1318.32 Q2091.17 1319.85 2085.61 1322.95 L2085.61 1313.51 Q2091.26 1311.24 2096.17 1310.08 Q2101.08 1308.93 2105.15 1308.93 Q2115.89 1308.93 2122.28 1314.3 Q2128.67 1319.67 2128.67 1328.65 Q2128.67 1332.91 2127.05 1336.75 Q2125.47 1340.55 2121.26 1345.73 Q2120.1 1347.07 2113.9 1353.51 Q2107.7 1359.9 2096.4 1371.43 Z" fill="#000000" fill-rule="nonzero" fill-opacity="1" /><path clip-path="url(#clip040)" d="M2148.76 1310.18 L2185.47 1310.18 L2185.47 1318.05 L2157.33 1318.05 L2157.33 1334.99 Q2159.36 1334.3 2161.4 1333.97 Q2163.44 1333.6 2165.47 1333.6 Q2177.05 1333.6 2183.81 1339.94 Q2190.57 1346.29 2190.57 1357.12 Q2190.57 1368.28 2183.62 1374.48 Q2176.68 1380.64 2164.04 1380.64 Q2159.69 1380.64 2155.15 1379.9 Q2150.66 1379.16 2145.84 1377.68 L2145.84 1368.28 Q2150.01 1370.55 2154.46 1371.66 Q2158.9 1372.77 2163.85 1372.77 Q2171.86 1372.77 2176.54 1368.56 Q2181.21 1364.34 2181.21 1357.12 Q2181.21 1349.9 2176.54 1345.68 Q2171.86 1341.47 2163.85 1341.47 Q2160.1 1341.47 2156.35 1342.31 Q2152.65 1343.14 2148.76 1344.9 L2148.76 1310.18 Z" fill="#000000" fill-rule="nonzero" fill-opacity="1" /><path clip-path="url(#clip040)" d="M1375.05 1484.39 L1375.05 1527.42 L1363.34 1527.42 L1363.34 1484.77 Q1363.34 1474.65 1359.39 1469.62 Q1355.45 1464.59 1347.55 1464.59 Q1338.07 1464.59 1332.59 1470.64 Q1327.12 1476.69 1327.12 1487.13 L1327.12 1527.42 L1315.34 1527.42 L1315.34 1428.37 L1327.12 1428.37 L1327.12 1467.2 Q1331.32 1460.77 1336.99 1457.59 Q1342.72 1454.41 1350.16 1454.41 Q1362.45 1454.41 1368.75 1462.05 Q1375.05 1469.62 1375.05 1484.39 Z" fill="#000000" fill-rule="nonzero" fill-opacity="1" /><path clip-path="url(#clip040)" d="M1426.04 1464.34 Q1416.62 1464.34 1411.15 1471.72 Q1405.67 1479.04 1405.67 1491.84 Q1405.67 1504.63 1411.08 1512.02 Q1416.56 1519.34 1426.04 1519.34 Q1435.4 1519.34 1440.87 1511.96 Q1446.35 1504.57 1446.35 1491.84 Q1446.35 1479.17 1440.87 1471.79 Q1435.4 1464.34 1426.04 1464.34 M1426.04 1454.41 Q1441.32 1454.41 1450.04 1464.34 Q1458.76 1474.27 1458.76 1491.84 Q1458.76 1509.35 1450.04 1519.34 Q1441.32 1529.27 1426.04 1529.27 Q1410.7 1529.27 1401.98 1519.34 Q1393.32 1509.35 1393.32 1491.84 Q1393.32 1474.27 1401.98 1464.34 Q1410.7 1454.41 1426.04 1454.41 Z" fill="#000000" fill-rule="nonzero" fill-opacity="1" /><path clip-path="url(#clip040)" d="M1476.97 1499.29 L1476.97 1456.13 L1488.68 1456.13 L1488.68 1498.84 Q1488.68 1508.96 1492.63 1514.06 Q1496.57 1519.08 1504.47 1519.08 Q1513.95 1519.08 1519.43 1513.04 Q1524.97 1506.99 1524.97 1496.55 L1524.97 1456.13 L1536.68 1456.13 L1536.68 1527.42 L1524.97 1527.42 L1524.97 1516.47 Q1520.7 1522.97 1515.04 1526.15 Q1509.43 1529.27 1501.99 1529.27 Q1489.7 1529.27 1483.33 1521.63 Q1476.97 1513.99 1476.97 1499.29 M1506.44 1454.41 L1506.44 1454.41 Z" fill="#000000" fill-rule="nonzero" fill-opacity="1" /><path clip-path="url(#clip040)" d="M1602.12 1467.08 Q1600.14 1465.93 1597.79 1465.42 Q1595.5 1464.85 1592.7 1464.85 Q1582.77 1464.85 1577.42 1471.34 Q1572.14 1477.77 1572.14 1489.87 L1572.14 1527.42 L1560.36 1527.42 L1560.36 1456.13 L1572.14 1456.13 L1572.14 1467.2 Q1575.83 1460.71 1581.75 1457.59 Q1587.67 1454.41 1596.13 1454.41 Q1597.34 1454.41 1598.81 1454.6 Q1600.27 1454.73 1602.05 1455.05 L1602.12 1467.08 Z" fill="#000000" fill-rule="nonzero" fill-opacity="1" /><path clip-path="url(#clip040)" d="M1659.86 1458.23 L1659.86 1469.3 Q1654.89 1466.76 1649.54 1465.49 Q1644.2 1464.21 1638.47 1464.21 Q1629.75 1464.21 1625.35 1466.89 Q1621.02 1469.56 1621.02 1474.91 Q1621.02 1478.98 1624.14 1481.34 Q1627.26 1483.63 1636.68 1485.73 L1640.69 1486.62 Q1653.17 1489.29 1658.39 1494.19 Q1663.67 1499.03 1663.67 1507.75 Q1663.67 1517.68 1655.78 1523.48 Q1647.95 1529.27 1634.2 1529.27 Q1628.47 1529.27 1622.23 1528.12 Q1616.06 1527.04 1609.18 1524.81 L1609.18 1512.72 Q1615.68 1516.09 1621.98 1517.81 Q1628.28 1519.47 1634.46 1519.47 Q1642.73 1519.47 1647.19 1516.67 Q1651.64 1513.8 1651.64 1508.64 Q1651.64 1503.87 1648.4 1501.32 Q1645.21 1498.78 1634.33 1496.42 L1630.25 1495.47 Q1619.37 1493.18 1614.53 1488.47 Q1609.69 1483.69 1609.69 1475.42 Q1609.69 1465.36 1616.82 1459.88 Q1623.95 1454.41 1637.07 1454.41 Q1643.56 1454.41 1649.29 1455.36 Q1655.02 1456.32 1659.86 1458.23 Z" fill="#000000" fill-rule="nonzero" fill-opacity="1" /><polyline clip-path="url(#clip042)" style="stroke:#000000; stroke-linecap:round; stroke-linejoin:round; stroke-width:4; stroke-opacity:0.1; fill:none" points="673.506,1248.65 2305.51,1248.65 "/>
<polyline clip-path="url(#clip042)" style="stroke:#000000; stroke-linecap:round; stroke-linejoin:round; stroke-width:4; stroke-opacity:0.1; fill:none" points="673.506,1082.17 2305.51,1082.17 "/>
<polyline clip-path="url(#clip042)" style="stroke:#000000; stroke-linecap:round; stroke-linejoin:round; stroke-width:4; stroke-opacity:0.1; fill:none" points="673.506,915.692 2305.51,915.692 "/>
<polyline clip-path="url(#clip042)" style="stroke:#000000; stroke-linecap:round; stroke-linejoin:round; stroke-width:4; stroke-opacity:0.1; fill:none" points="673.506,749.215 2305.51,749.215 "/>
<polyline clip-path="url(#clip042)" style="stroke:#000000; stroke-linecap:round; stroke-linejoin:round; stroke-width:4; stroke-opacity:0.1; fill:none" points="673.506,582.737 2305.51,582.737 "/>
<polyline clip-path="url(#clip042)" style="stroke:#000000; stroke-linecap:round; stroke-linejoin:round; stroke-width:4; stroke-opacity:0.1; fill:none" points="673.506,416.26 2305.51,416.26 "/>
<polyline clip-path="url(#clip042)" style="stroke:#000000; stroke-linecap:round; stroke-linejoin:round; stroke-width:4; stroke-opacity:0.1; fill:none" points="673.506,249.783 2305.51,249.783 "/>
<polyline clip-path="url(#clip040)" style="stroke:#000000; stroke-linecap:round; stroke-linejoin:round; stroke-width:8; stroke-opacity:1; fill:none" points="673.506,1273.7 673.506,94.4882 "/>
<polyline clip-path="url(#clip040)" style="stroke:#000000; stroke-linecap:round; stroke-linejoin:round; stroke-width:8; stroke-opacity:1; fill:none" points="673.506,1248.65 692.404,1248.65 "/>
<polyline clip-path="url(#clip040)" style="stroke:#000000; stroke-linecap:round; stroke-linejoin:round; stroke-width:8; stroke-opacity:1; fill:none" points="673.506,1082.17 692.404,1082.17 "/>
<polyline clip-path="url(#clip040)" style="stroke:#000000; stroke-linecap:round; stroke-linejoin:round; stroke-width:8; stroke-opacity:1; fill:none" points="673.506,915.692 692.404,915.692 "/>
<polyline clip-path="url(#clip040)" style="stroke:#000000; stroke-linecap:round; stroke-linejoin:round; stroke-width:8; stroke-opacity:1; fill:none" points="673.506,749.215 692.404,749.215 "/>
<polyline clip-path="url(#clip040)" style="stroke:#000000; stroke-linecap:round; stroke-linejoin:round; stroke-width:8; stroke-opacity:1; fill:none" points="673.506,582.737 692.404,582.737 "/>
<polyline clip-path="url(#clip040)" style="stroke:#000000; stroke-linecap:round; stroke-linejoin:round; stroke-width:8; stroke-opacity:1; fill:none" points="673.506,416.26 692.404,416.26 "/>
<polyline clip-path="url(#clip040)" style="stroke:#000000; stroke-linecap:round; stroke-linejoin:round; stroke-width:8; stroke-opacity:1; fill:none" points="673.506,249.783 692.404,249.783 "/>
<path clip-path="url(#clip040)" d="M440.47 1214.09 L484.914 1214.09 L484.914 1218.07 L459.822 1283.21 L450.053 1283.21 L473.664 1221.96 L440.47 1221.96 L440.47 1214.09 Z" fill="#000000" fill-rule="nonzero" fill-opacity="1" /><path clip-path="url(#clip040)" d="M503.247 1214.09 L539.96 1214.09 L539.96 1221.96 L511.812 1221.96 L511.812 1238.9 Q513.849 1238.21 515.886 1237.88 Q517.923 1237.51 519.96 1237.51 Q531.534 1237.51 538.294 1243.86 Q545.053 1250.2 545.053 1261.03 Q545.053 1272.19 538.108 1278.39 Q531.164 1284.55 518.525 1284.55 Q514.173 1284.55 509.636 1283.81 Q505.146 1283.07 500.331 1281.59 L500.331 1272.19 Q504.497 1274.46 508.942 1275.57 Q513.386 1276.68 518.34 1276.68 Q526.349 1276.68 531.025 1272.47 Q535.701 1268.25 535.701 1261.03 Q535.701 1253.81 531.025 1249.6 Q526.349 1245.38 518.34 1245.38 Q514.59 1245.38 510.84 1246.22 Q507.136 1247.05 503.247 1248.81 L503.247 1214.09 Z" fill="#000000" fill-rule="nonzero" fill-opacity="1" /><path clip-path="url(#clip040)" d="M563.479 1271.45 L573.247 1271.45 L573.247 1283.21 L563.479 1283.21 L563.479 1271.45 Z" fill="#000000" fill-rule="nonzero" fill-opacity="1" /><path clip-path="url(#clip040)" d="M613.617 1220.24 Q606.395 1220.24 602.738 1227.37 Q599.127 1234.46 599.127 1248.72 Q599.127 1262.93 602.738 1270.06 Q606.395 1277.14 613.617 1277.14 Q620.886 1277.14 624.497 1270.06 Q628.154 1262.93 628.154 1248.72 Q628.154 1234.46 624.497 1227.37 Q620.886 1220.24 613.617 1220.24 M613.617 1212.84 Q625.238 1212.84 631.349 1222.05 Q637.506 1231.22 637.506 1248.72 Q637.506 1266.17 631.349 1275.38 Q625.238 1284.55 613.617 1284.55 Q601.997 1284.55 595.84 1275.38 Q589.728 1266.17 589.728 1248.72 Q589.728 1231.22 595.84 1222.05 Q601.997 1212.84 613.617 1212.84 Z" fill="#000000" fill-rule="nonzero" fill-opacity="1" /><path clip-path="url(#clip040)" d="M462.831 1083.91 Q456.164 1083.91 452.322 1087.47 Q448.525 1091.04 448.525 1097.29 Q448.525 1103.54 452.322 1107.1 Q456.164 1110.66 462.831 1110.66 Q469.498 1110.66 473.34 1107.1 Q477.183 1103.49 477.183 1097.29 Q477.183 1091.04 473.34 1087.47 Q469.544 1083.91 462.831 1083.91 M453.479 1079.92 Q447.461 1078.44 444.081 1074.32 Q440.748 1070.2 440.748 1064.28 Q440.748 1055.99 446.627 1051.17 Q452.553 1046.36 462.831 1046.36 Q473.155 1046.36 479.035 1051.17 Q484.914 1055.99 484.914 1064.28 Q484.914 1070.2 481.535 1074.32 Q478.201 1078.44 472.229 1079.92 Q478.988 1081.5 482.738 1086.08 Q486.535 1090.66 486.535 1097.29 Q486.535 1107.33 480.377 1112.7 Q474.266 1118.07 462.831 1118.07 Q451.396 1118.07 445.238 1112.7 Q439.127 1107.33 439.127 1097.29 Q439.127 1090.66 442.924 1086.08 Q446.72 1081.5 453.479 1079.92 M450.053 1065.16 Q450.053 1070.53 453.387 1073.54 Q456.766 1076.54 462.831 1076.54 Q468.849 1076.54 472.229 1073.54 Q475.655 1070.53 475.655 1065.16 Q475.655 1059.79 472.229 1056.78 Q468.849 1053.77 462.831 1053.77 Q456.766 1053.77 453.387 1056.78 Q450.053 1059.79 450.053 1065.16 Z" fill="#000000" fill-rule="nonzero" fill-opacity="1" /><path clip-path="url(#clip040)" d="M523.155 1053.77 Q515.933 1053.77 512.275 1060.9 Q508.664 1067.98 508.664 1082.24 Q508.664 1096.45 512.275 1103.58 Q515.933 1110.66 523.155 1110.66 Q530.423 1110.66 534.034 1103.58 Q537.692 1096.45 537.692 1082.24 Q537.692 1067.98 534.034 1060.9 Q530.423 1053.77 523.155 1053.77 M523.155 1046.36 Q534.775 1046.36 540.886 1055.57 Q547.043 1064.74 547.043 1082.24 Q547.043 1099.69 540.886 1108.91 Q534.775 1118.07 523.155 1118.07 Q511.534 1118.07 505.377 1108.91 Q499.266 1099.69 499.266 1082.24 Q499.266 1064.74 505.377 1055.57 Q511.534 1046.36 523.155 1046.36 Z" fill="#000000" fill-rule="nonzero" fill-opacity="1" /><path clip-path="url(#clip040)" d="M563.479 1104.97 L573.247 1104.97 L573.247 1116.73 L563.479 1116.73 L563.479 1104.97 Z" fill="#000000" fill-rule="nonzero" fill-opacity="1" /><path clip-path="url(#clip040)" d="M613.617 1053.77 Q606.395 1053.77 602.738 1060.9 Q599.127 1067.98 599.127 1082.24 Q599.127 1096.45 602.738 1103.58 Q606.395 1110.66 613.617 1110.66 Q620.886 1110.66 624.497 1103.58 Q628.154 1096.45 628.154 1082.24 Q628.154 1067.98 624.497 1060.9 Q620.886 1053.77 613.617 1053.77 M613.617 1046.36 Q625.238 1046.36 631.349 1055.57 Q637.506 1064.74 637.506 1082.24 Q637.506 1099.69 631.349 1108.91 Q625.238 1118.07 613.617 1118.07 Q601.997 1118.07 595.84 1108.91 Q589.728 1099.69 589.728 1082.24 Q589.728 1064.74 595.84 1055.57 Q601.997 1046.36 613.617 1046.36 Z" fill="#000000" fill-rule="nonzero" fill-opacity="1" /><path clip-path="url(#clip040)" d="M462.831 917.428 Q456.164 917.428 452.322 920.993 Q448.525 924.558 448.525 930.808 Q448.525 937.058 452.322 940.622 Q456.164 944.187 462.831 944.187 Q469.498 944.187 473.34 940.622 Q477.183 937.011 477.183 930.808 Q477.183 924.558 473.34 920.993 Q469.544 917.428 462.831 917.428 M453.479 913.447 Q447.461 911.965 444.081 907.845 Q440.748 903.725 440.748 897.799 Q440.748 889.512 446.627 884.697 Q452.553 879.882 462.831 879.882 Q473.155 879.882 479.035 884.697 Q484.914 889.512 484.914 897.799 Q484.914 903.725 481.535 907.845 Q478.201 911.965 472.229 913.447 Q478.988 915.021 482.738 919.604 Q486.535 924.187 486.535 930.808 Q486.535 940.854 480.377 946.224 Q474.266 951.595 462.831 951.595 Q451.396 951.595 445.238 946.224 Q439.127 940.854 439.127 930.808 Q439.127 924.187 442.924 919.604 Q446.72 915.021 453.479 913.447 M450.053 898.678 Q450.053 904.049 453.387 907.058 Q456.766 910.067 462.831 910.067 Q468.849 910.067 472.229 907.058 Q475.655 904.049 475.655 898.678 Q475.655 893.308 472.229 890.299 Q468.849 887.289 462.831 887.289 Q456.766 887.289 453.387 890.299 Q450.053 893.308 450.053 898.678 Z" fill="#000000" fill-rule="nonzero" fill-opacity="1" /><path clip-path="url(#clip040)" d="M503.247 881.132 L539.96 881.132 L539.96 889.002 L511.812 889.002 L511.812 905.947 Q513.849 905.252 515.886 904.928 Q517.923 904.558 519.96 904.558 Q531.534 904.558 538.294 910.9 Q545.053 917.243 545.053 928.076 Q545.053 939.234 538.108 945.437 Q531.164 951.595 518.525 951.595 Q514.173 951.595 509.636 950.854 Q505.146 950.113 500.331 948.632 L500.331 939.234 Q504.497 941.502 508.942 942.613 Q513.386 943.724 518.34 943.724 Q526.349 943.724 531.025 939.511 Q535.701 935.298 535.701 928.076 Q535.701 920.854 531.025 916.641 Q526.349 912.428 518.34 912.428 Q514.59 912.428 510.84 913.261 Q507.136 914.095 503.247 915.854 L503.247 881.132 Z" fill="#000000" fill-rule="nonzero" fill-opacity="1" /><path clip-path="url(#clip040)" d="M563.479 938.493 L573.247 938.493 L573.247 950.252 L563.479 950.252 L563.479 938.493 Z" fill="#000000" fill-rule="nonzero" fill-opacity="1" /><path clip-path="url(#clip040)" d="M613.617 887.289 Q606.395 887.289 602.738 894.419 Q599.127 901.502 599.127 915.761 Q599.127 929.974 602.738 937.104 Q606.395 944.187 613.617 944.187 Q620.886 944.187 624.497 937.104 Q628.154 929.974 628.154 915.761 Q628.154 901.502 624.497 894.419 Q620.886 887.289 613.617 887.289 M613.617 879.882 Q625.238 879.882 631.349 889.095 Q637.506 898.262 637.506 915.761 Q637.506 933.215 631.349 942.428 Q625.238 951.595 613.617 951.595 Q601.997 951.595 595.84 942.428 Q589.728 933.215 589.728 915.761 Q589.728 898.262 595.84 889.095 Q601.997 879.882 613.617 879.882 Z" fill="#000000" fill-rule="nonzero" fill-opacity="1" /><path clip-path="url(#clip040)" d="M443.109 782.339 L443.109 773.821 Q446.627 775.488 450.238 776.367 Q453.85 777.247 457.322 777.247 Q466.581 777.247 471.442 771.043 Q476.349 764.793 477.044 752.108 Q474.359 756.09 470.238 758.219 Q466.118 760.349 461.118 760.349 Q450.748 760.349 444.683 754.099 Q438.664 747.803 438.664 736.923 Q438.664 726.275 444.961 719.84 Q451.257 713.405 461.72 713.405 Q473.711 713.405 480.007 722.618 Q486.349 731.784 486.349 749.284 Q486.349 765.627 478.572 775.395 Q470.84 785.117 457.738 785.117 Q454.22 785.117 450.609 784.423 Q446.998 783.728 443.109 782.339 M461.72 753.034 Q468.016 753.034 471.674 748.729 Q475.377 744.423 475.377 736.923 Q475.377 729.469 471.674 725.164 Q468.016 720.812 461.72 720.812 Q455.424 720.812 451.72 725.164 Q448.063 729.469 448.063 736.923 Q448.063 744.423 451.72 748.729 Q455.424 753.034 461.72 753.034 Z" fill="#000000" fill-rule="nonzero" fill-opacity="1" /><path clip-path="url(#clip040)" d="M523.155 720.812 Q515.933 720.812 512.275 727.942 Q508.664 735.025 508.664 749.284 Q508.664 763.497 512.275 770.627 Q515.933 777.71 523.155 777.71 Q530.423 777.71 534.034 770.627 Q537.692 763.497 537.692 749.284 Q537.692 735.025 534.034 727.942 Q530.423 720.812 523.155 720.812 M523.155 713.405 Q534.775 713.405 540.886 722.618 Q547.043 731.784 547.043 749.284 Q547.043 766.738 540.886 775.951 Q534.775 785.117 523.155 785.117 Q511.534 785.117 505.377 775.951 Q499.266 766.738 499.266 749.284 Q499.266 731.784 505.377 722.618 Q511.534 713.405 523.155 713.405 Z" fill="#000000" fill-rule="nonzero" fill-opacity="1" /><path clip-path="url(#clip040)" d="M563.479 772.015 L573.247 772.015 L573.247 783.775 L563.479 783.775 L563.479 772.015 Z" fill="#000000" fill-rule="nonzero" fill-opacity="1" /><path clip-path="url(#clip040)" d="M613.617 720.812 Q606.395 720.812 602.738 727.942 Q599.127 735.025 599.127 749.284 Q599.127 763.497 602.738 770.627 Q606.395 777.71 613.617 777.71 Q620.886 777.71 624.497 770.627 Q628.154 763.497 628.154 749.284 Q628.154 735.025 624.497 727.942 Q620.886 720.812 613.617 720.812 M613.617 713.405 Q625.238 713.405 631.349 722.618 Q637.506 731.784 637.506 749.284 Q637.506 766.738 631.349 775.951 Q625.238 785.117 613.617 785.117 Q601.997 785.117 595.84 775.951 Q589.728 766.738 589.728 749.284 Q589.728 731.784 595.84 722.618 Q601.997 713.405 613.617 713.405 Z" fill="#000000" fill-rule="nonzero" fill-opacity="1" /><path clip-path="url(#clip040)" d="M443.109 615.862 L443.109 607.344 Q446.627 609.01 450.238 609.89 Q453.85 610.77 457.322 610.77 Q466.581 610.77 471.442 604.566 Q476.349 598.316 477.044 585.631 Q474.359 589.612 470.238 591.742 Q466.118 593.872 461.118 593.872 Q450.748 593.872 444.683 587.622 Q438.664 581.325 438.664 570.446 Q438.664 559.798 444.961 553.362 Q451.257 546.927 461.72 546.927 Q473.711 546.927 480.007 556.14 Q486.349 565.307 486.349 582.807 Q486.349 599.149 478.572 608.918 Q470.84 618.64 457.738 618.64 Q454.22 618.64 450.609 617.945 Q446.998 617.251 443.109 615.862 M461.72 586.557 Q468.016 586.557 471.674 582.251 Q475.377 577.946 475.377 570.446 Q475.377 562.992 471.674 558.687 Q468.016 554.335 461.72 554.335 Q455.424 554.335 451.72 558.687 Q448.063 562.992 448.063 570.446 Q448.063 577.946 451.72 582.251 Q455.424 586.557 461.72 586.557 Z" fill="#000000" fill-rule="nonzero" fill-opacity="1" /><path clip-path="url(#clip040)" d="M503.247 548.177 L539.96 548.177 L539.96 556.048 L511.812 556.048 L511.812 572.992 Q513.849 572.298 515.886 571.973 Q517.923 571.603 519.96 571.603 Q531.534 571.603 538.294 577.946 Q545.053 584.288 545.053 595.122 Q545.053 606.279 538.108 612.483 Q531.164 618.64 518.525 618.64 Q514.173 618.64 509.636 617.899 Q505.146 617.158 500.331 615.677 L500.331 606.279 Q504.497 608.547 508.942 609.658 Q513.386 610.77 518.34 610.77 Q526.349 610.77 531.025 606.557 Q535.701 602.344 535.701 595.122 Q535.701 587.899 531.025 583.686 Q526.349 579.473 518.34 579.473 Q514.59 579.473 510.84 580.307 Q507.136 581.14 503.247 582.899 L503.247 548.177 Z" fill="#000000" fill-rule="nonzero" fill-opacity="1" /><path clip-path="url(#clip040)" d="M563.479 605.538 L573.247 605.538 L573.247 617.297 L563.479 617.297 L563.479 605.538 Z" fill="#000000" fill-rule="nonzero" fill-opacity="1" /><path clip-path="url(#clip040)" d="M613.617 554.335 Q606.395 554.335 602.738 561.464 Q599.127 568.548 599.127 582.807 Q599.127 597.02 602.738 604.149 Q606.395 611.233 613.617 611.233 Q620.886 611.233 624.497 604.149 Q628.154 597.02 628.154 582.807 Q628.154 568.548 624.497 561.464 Q620.886 554.335 613.617 554.335 M613.617 546.927 Q625.238 546.927 631.349 556.14 Q637.506 565.307 637.506 582.807 Q637.506 600.26 631.349 609.473 Q625.238 618.64 613.617 618.64 Q601.997 618.64 595.84 609.473 Q589.728 600.26 589.728 582.807 Q589.728 565.307 595.84 556.14 Q601.997 546.927 613.617 546.927 Z" fill="#000000" fill-rule="nonzero" fill-opacity="1" /><path clip-path="url(#clip040)" d="M384.128 442.95 L399.405 442.95 L399.405 390.218 L382.785 393.552 L382.785 385.033 L399.313 381.7 L408.665 381.7 L408.665 442.95 L423.942 442.95 L423.942 450.82 L384.128 450.82 L384.128 442.95 Z" fill="#000000" fill-rule="nonzero" fill-opacity="1" /><path clip-path="url(#clip040)" d="M462.831 387.857 Q455.609 387.857 451.951 394.987 Q448.34 402.07 448.34 416.329 Q448.34 430.542 451.951 437.672 Q455.609 444.755 462.831 444.755 Q470.099 444.755 473.711 437.672 Q477.368 430.542 477.368 416.329 Q477.368 402.07 473.711 394.987 Q470.099 387.857 462.831 387.857 M462.831 380.45 Q474.451 380.45 480.562 389.663 Q486.72 398.829 486.72 416.329 Q486.72 433.783 480.562 442.996 Q474.451 452.163 462.831 452.163 Q451.211 452.163 445.053 442.996 Q438.942 433.783 438.942 416.329 Q438.942 398.829 445.053 389.663 Q451.211 380.45 462.831 380.45 Z" fill="#000000" fill-rule="nonzero" fill-opacity="1" /><path clip-path="url(#clip040)" d="M523.155 387.857 Q515.933 387.857 512.275 394.987 Q508.664 402.07 508.664 416.329 Q508.664 430.542 512.275 437.672 Q515.933 444.755 523.155 444.755 Q530.423 444.755 534.034 437.672 Q537.692 430.542 537.692 416.329 Q537.692 402.07 534.034 394.987 Q530.423 387.857 523.155 387.857 M523.155 380.45 Q534.775 380.45 540.886 389.663 Q547.043 398.829 547.043 416.329 Q547.043 433.783 540.886 442.996 Q534.775 452.163 523.155 452.163 Q511.534 452.163 505.377 442.996 Q499.266 433.783 499.266 416.329 Q499.266 398.829 505.377 389.663 Q511.534 380.45 523.155 380.45 Z" fill="#000000" fill-rule="nonzero" fill-opacity="1" /><path clip-path="url(#clip040)" d="M563.479 439.061 L573.247 439.061 L573.247 450.82 L563.479 450.82 L563.479 439.061 Z" fill="#000000" fill-rule="nonzero" fill-opacity="1" /><path clip-path="url(#clip040)" d="M613.617 387.857 Q606.395 387.857 602.738 394.987 Q599.127 402.07 599.127 416.329 Q599.127 430.542 602.738 437.672 Q606.395 444.755 613.617 444.755 Q620.886 444.755 624.497 437.672 Q628.154 430.542 628.154 416.329 Q628.154 402.07 624.497 394.987 Q620.886 387.857 613.617 387.857 M613.617 380.45 Q625.238 380.45 631.349 389.663 Q637.506 398.829 637.506 416.329 Q637.506 433.783 631.349 442.996 Q625.238 452.163 613.617 452.163 Q601.997 452.163 595.84 442.996 Q589.728 433.783 589.728 416.329 Q589.728 398.829 595.84 389.663 Q601.997 380.45 613.617 380.45 Z" fill="#000000" fill-rule="nonzero" fill-opacity="1" /><path clip-path="url(#clip040)" d="M384.128 276.472 L399.405 276.472 L399.405 223.741 L382.785 227.074 L382.785 218.556 L399.313 215.223 L408.665 215.223 L408.665 276.472 L423.942 276.472 L423.942 284.343 L384.128 284.343 L384.128 276.472 Z" fill="#000000" fill-rule="nonzero" fill-opacity="1" /><path clip-path="url(#clip040)" d="M462.831 221.38 Q455.609 221.38 451.951 228.51 Q448.34 235.593 448.34 249.852 Q448.34 264.065 451.951 271.195 Q455.609 278.278 462.831 278.278 Q470.099 278.278 473.711 271.195 Q477.368 264.065 477.368 249.852 Q477.368 235.593 473.711 228.51 Q470.099 221.38 462.831 221.38 M462.831 213.973 Q474.451 213.973 480.562 223.186 Q486.72 232.352 486.72 249.852 Q486.72 267.306 480.562 276.519 Q474.451 285.685 462.831 285.685 Q451.211 285.685 445.053 276.519 Q438.942 267.306 438.942 249.852 Q438.942 232.352 445.053 223.186 Q451.211 213.973 462.831 213.973 Z" fill="#000000" fill-rule="nonzero" fill-opacity="1" /><path clip-path="url(#clip040)" d="M503.247 215.223 L539.96 215.223 L539.96 223.093 L511.812 223.093 L511.812 240.037 Q513.849 239.343 515.886 239.019 Q517.923 238.648 519.96 238.648 Q531.534 238.648 538.294 244.991 Q545.053 251.333 545.053 262.167 Q545.053 273.324 538.108 279.528 Q531.164 285.685 518.525 285.685 Q514.173 285.685 509.636 284.944 Q505.146 284.204 500.331 282.722 L500.331 273.324 Q504.497 275.593 508.942 276.704 Q513.386 277.815 518.34 277.815 Q526.349 277.815 531.025 273.602 Q535.701 269.389 535.701 262.167 Q535.701 254.945 531.025 250.732 Q526.349 246.519 518.34 246.519 Q514.59 246.519 510.84 247.352 Q507.136 248.185 503.247 249.945 L503.247 215.223 Z" fill="#000000" fill-rule="nonzero" fill-opacity="1" /><path clip-path="url(#clip040)" d="M563.479 272.583 L573.247 272.583 L573.247 284.343 L563.479 284.343 L563.479 272.583 Z" fill="#000000" fill-rule="nonzero" fill-opacity="1" /><path clip-path="url(#clip040)" d="M613.617 221.38 Q606.395 221.38 602.738 228.51 Q599.127 235.593 599.127 249.852 Q599.127 264.065 602.738 271.195 Q606.395 278.278 613.617 278.278 Q620.886 278.278 624.497 271.195 Q628.154 264.065 628.154 249.852 Q628.154 235.593 624.497 228.51 Q620.886 221.38 613.617 221.38 M613.617 213.973 Q625.238 213.973 631.349 223.186 Q637.506 232.352 637.506 249.852 Q637.506 267.306 631.349 276.519 Q625.238 285.685 613.617 285.685 Q601.997 285.685 595.84 276.519 Q589.728 267.306 589.728 249.852 Q589.728 232.352 595.84 223.186 Q601.997 213.973 613.617 213.973 Z" fill="#000000" fill-rule="nonzero" fill-opacity="1" /><path clip-path="url(#clip040)" d="M307.579 931.845 L345.391 931.845 L345.391 943.622 L246.977 943.622 L246.977 931.845 L257.799 931.845 Q251.433 928.153 248.378 922.551 Q245.258 916.886 245.258 909.056 Q245.258 896.07 255.571 887.986 Q265.883 879.837 282.689 879.837 Q299.494 879.837 309.807 887.986 Q320.119 896.07 320.119 909.056 Q320.119 916.886 317.064 922.551 Q313.944 928.153 307.579 931.845 M282.689 891.996 Q269.766 891.996 262.446 897.343 Q255.062 902.627 255.062 911.921 Q255.062 921.215 262.446 926.562 Q269.766 931.845 282.689 931.845 Q295.611 931.845 302.995 926.562 Q310.316 921.215 310.316 911.921 Q310.316 902.627 302.995 897.343 Q295.611 891.996 282.689 891.996 Z" fill="#000000" fill-rule="nonzero" fill-opacity="1" /><path clip-path="url(#clip040)" d="M282.434 828.021 Q282.434 842.216 285.681 847.691 Q288.927 853.165 296.757 853.165 Q302.995 853.165 306.688 849.091 Q310.316 844.953 310.316 837.887 Q310.316 828.148 303.441 822.291 Q296.502 816.371 285.044 816.371 L282.434 816.371 L282.434 828.021 M277.596 804.658 L318.273 804.658 L318.273 816.371 L307.451 816.371 Q313.944 820.382 317.064 826.366 Q320.119 832.349 320.119 841.007 Q320.119 851.956 314.008 858.449 Q307.833 864.878 297.521 864.878 Q285.49 864.878 279.379 856.857 Q273.268 848.773 273.268 832.795 L273.268 816.371 L272.122 816.371 Q264.037 816.371 259.645 821.719 Q255.189 827.002 255.189 836.614 Q255.189 842.725 256.653 848.518 Q258.117 854.311 261.045 859.658 L250.224 859.658 Q247.741 853.229 246.532 847.181 Q245.258 841.134 245.258 835.405 Q245.258 819.936 253.279 812.297 Q261.3 804.658 277.596 804.658 Z" fill="#000000" fill-rule="nonzero" fill-opacity="1" /><path clip-path="url(#clip040)" d="M257.926 739.219 Q256.78 741.192 256.271 743.548 Q255.698 745.839 255.698 748.64 Q255.698 758.571 262.191 763.918 Q268.621 769.201 280.715 769.201 L318.273 769.201 L318.273 780.978 L246.977 780.978 L246.977 769.201 L258.054 769.201 Q251.561 765.509 248.441 759.589 Q245.258 753.669 245.258 745.203 Q245.258 743.993 245.449 742.529 Q245.577 741.065 245.895 739.283 L257.926 739.219 Z" fill="#000000" fill-rule="nonzero" fill-opacity="1" /><path clip-path="url(#clip040)" d="M279.697 668.814 L285.426 668.814 L285.426 722.668 Q297.521 721.904 303.887 715.411 Q310.189 708.855 310.189 697.205 Q310.189 690.458 308.534 684.156 Q306.878 677.79 303.568 671.552 L314.645 671.552 Q317.318 677.854 318.719 684.474 Q320.119 691.094 320.119 697.906 Q320.119 714.966 310.189 724.96 Q300.258 734.89 283.325 734.89 Q265.82 734.89 255.571 725.469 Q245.258 715.984 245.258 699.943 Q245.258 685.556 254.552 677.217 Q263.783 668.814 279.697 668.814 M276.259 680.527 Q266.647 680.654 260.918 685.938 Q255.189 691.158 255.189 699.815 Q255.189 709.618 260.727 715.539 Q266.265 721.395 276.323 722.286 L276.259 680.527 Z" fill="#000000" fill-rule="nonzero" fill-opacity="1" /><path clip-path="url(#clip040)" d="M275.241 590.325 L318.273 590.325 L318.273 602.038 L275.623 602.038 Q265.501 602.038 260.472 605.985 Q255.444 609.931 255.444 617.825 Q255.444 627.31 261.491 632.784 Q267.538 638.259 277.978 638.259 L318.273 638.259 L318.273 650.035 L246.977 650.035 L246.977 638.259 L258.054 638.259 Q251.624 634.058 248.441 628.392 Q245.258 622.663 245.258 615.215 Q245.258 602.929 252.897 596.627 Q260.472 590.325 275.241 590.325 Z" fill="#000000" fill-rule="nonzero" fill-opacity="1" /><path clip-path="url(#clip040)" d="M302.104 565.308 L302.104 551.876 L318.273 551.876 L318.273 565.308 L302.104 565.308 Z" fill="#000000" fill-rule="nonzero" fill-opacity="1" /><path clip-path="url(#clip040)" d="M223.233 485.673 L223.233 424.562 L228.708 424.562 L318.273 459.064 L318.273 472.496 L234.055 440.031 L234.055 485.673 L223.233 485.673 Z" fill="#000000" fill-rule="nonzero" fill-opacity="1" /><polyline clip-path="url(#clip042)" style="stroke:#008000; stroke-linecap:round; stroke-linejoin:round; stroke-width:8; stroke-opacity:1; fill:none" points="719.695,1143.1 829.668,895.269 939.642,433.575 1049.62,591.148 1159.59,368.318 1269.56,264.769 1379.54,127.862 1489.51,252.977 1599.48,324.72 1709.46,350.32 1819.43,297.971 1929.4,397.983 2039.38,326.023 2149.35,632.791 2259.32,564.027 "/>
<circle clip-path="url(#clip042)" cx="719.695" cy="1143.1" r="14.4" fill="#008000" fill-rule="evenodd" fill-opacity="1" stroke="#000000" stroke-opacity="1" stroke-width="6.4"/>
<circle clip-path="url(#clip042)" cx="829.668" cy="895.269" r="14.4" fill="#008000" fill-rule="evenodd" fill-opacity="1" stroke="#000000" stroke-opacity="1" stroke-width="6.4"/>
<circle clip-path="url(#clip042)" cx="939.642" cy="433.575" r="14.4" fill="#008000" fill-rule="evenodd" fill-opacity="1" stroke="#000000" stroke-opacity="1" stroke-width="6.4"/>
<circle clip-path="url(#clip042)" cx="1049.62" cy="591.148" r="14.4" fill="#008000" fill-rule="evenodd" fill-opacity="1" stroke="#000000" stroke-opacity="1" stroke-width="6.4"/>
<circle clip-path="url(#clip042)" cx="1159.59" cy="368.318" r="14.4" fill="#008000" fill-rule="evenodd" fill-opacity="1" stroke="#000000" stroke-opacity="1" stroke-width="6.4"/>
<circle clip-path="url(#clip042)" cx="1269.56" cy="264.769" r="14.4" fill="#008000" fill-rule="evenodd" fill-opacity="1" stroke="#000000" stroke-opacity="1" stroke-width="6.4"/>
<circle clip-path="url(#clip042)" cx="1379.54" cy="127.862" r="14.4" fill="#008000" fill-rule="evenodd" fill-opacity="1" stroke="#000000" stroke-opacity="1" stroke-width="6.4"/>
<circle clip-path="url(#clip042)" cx="1489.51" cy="252.977" r="14.4" fill="#008000" fill-rule="evenodd" fill-opacity="1" stroke="#000000" stroke-opacity="1" stroke-width="6.4"/>
<circle clip-path="url(#clip042)" cx="1599.48" cy="324.72" r="14.4" fill="#008000" fill-rule="evenodd" fill-opacity="1" stroke="#000000" stroke-opacity="1" stroke-width="6.4"/>
<circle clip-path="url(#clip042)" cx="1709.46" cy="350.32" r="14.4" fill="#008000" fill-rule="evenodd" fill-opacity="1" stroke="#000000" stroke-opacity="1" stroke-width="6.4"/>
<circle clip-path="url(#clip042)" cx="1819.43" cy="297.971" r="14.4" fill="#008000" fill-rule="evenodd" fill-opacity="1" stroke="#000000" stroke-opacity="1" stroke-width="6.4"/>
<circle clip-path="url(#clip042)" cx="1929.4" cy="397.983" r="14.4" fill="#008000" fill-rule="evenodd" fill-opacity="1" stroke="#000000" stroke-opacity="1" stroke-width="6.4"/>
<circle clip-path="url(#clip042)" cx="2039.38" cy="326.023" r="14.4" fill="#008000" fill-rule="evenodd" fill-opacity="1" stroke="#000000" stroke-opacity="1" stroke-width="6.4"/>
<circle clip-path="url(#clip042)" cx="2149.35" cy="632.791" r="14.4" fill="#008000" fill-rule="evenodd" fill-opacity="1" stroke="#000000" stroke-opacity="1" stroke-width="6.4"/>
<circle clip-path="url(#clip042)" cx="2259.32" cy="564.027" r="14.4" fill="#008000" fill-rule="evenodd" fill-opacity="1" stroke="#000000" stroke-opacity="1" stroke-width="6.4"/>
<polyline clip-path="url(#clip042)" style="stroke:#00008b; stroke-linecap:round; stroke-linejoin:round; stroke-width:8; stroke-opacity:1; fill:none" points="719.695,1146 829.668,825.468 939.642,644.559 1049.62,525.359 1159.59,445.684 1269.56,390.339 1379.54,362.822 1489.51,342.235 1599.48,349.335 1709.46,365.823 1819.43,391.229 1929.4,427.419 2039.38,464.645 2149.35,515.305 2259.32,562.708 "/>
<path clip-path="url(#clip042)" d="M719.695 1240.32 L829.668 925.606 L939.642 744.76 L1049.62 621.58 L1159.59 548.829 L1269.56 486.971 L1379.54 465.001 L1489.51 444.163 L1599.48 453.129 L1709.46 471.769 L1819.43 491.074 L1929.4 532.691 L2039.38 562.133 L2149.35 612.535 L2259.32 664.154 L2259.32 456.314 L2149.35 417.001 L2039.38 359.49 L1929.4 319.937 L1819.43 286.793 L1709.46 259.221 L1599.48 244.148 L1489.51 238.674 L1379.54 263.595 L1269.56 288.37 L1159.59 340.744 L1049.62 427.048 L939.642 543.736 L829.668 721.809 L719.695 1048.33  Z" fill="#0000ff" fill-rule="evenodd" fill-opacity="0.1"/>
<polyline clip-path="url(#clip042)" style="stroke:#0000ff; stroke-linecap:round; stroke-linejoin:round; stroke-width:0; stroke-opacity:0.1; fill:none" points="719.695,1240.32 829.668,925.606 939.642,744.76 1049.62,621.58 1159.59,548.829 1269.56,486.971 1379.54,465.001 1489.51,444.163 1599.48,453.129 1709.46,471.769 1819.43,491.074 1929.4,532.691 2039.38,562.133 2149.35,612.535 2259.32,664.154 "/>
</svg>
