<?xml version="1.0" encoding="utf-8"?>
<svg xmlns="http://www.w3.org/2000/svg" xmlns:xlink="http://www.w3.org/1999/xlink" width="600" height="400" viewBox="0 0 2400 1600">
<defs>
  <clipPath id="clip450">
    <rect x="0" y="0" width="2400" height="1600"/>
  </clipPath>
</defs>
<path clip-path="url(#clip450)" d="M0 1600 L2400 1600 L2400 0 L0 0  Z" fill="#ffffff" fill-rule="evenodd" fill-opacity="1"/>
<defs>
  <clipPath id="clip451">
    <rect x="480" y="0" width="1681" height="1600"/>
  </clipPath>
</defs>
<path clip-path="url(#clip450)" d="M731.021 1082.2 L2305.51 1082.2 L2305.51 94.4882 L731.021 94.4882  Z" fill="#ffffff" fill-rule="evenodd" fill-opacity="1"/>
<defs>
  <clipPath id="clip452">
    <rect x="731" y="94" width="1575" height="989"/>
  </clipPath>
</defs>
<polyline clip-path="url(#clip452)" style="stroke:#000000; stroke-linecap:round; stroke-linejoin:round; stroke-width:4; stroke-opacity:0.1; fill:none" points="775.583,1082.2 775.583,94.4882 "/>
<polyline clip-path="url(#clip452)" style="stroke:#000000; stroke-linecap:round; stroke-linejoin:round; stroke-width:4; stroke-opacity:0.1; fill:none" points="1146.92,1082.2 1146.92,94.4882 "/>
<polyline clip-path="url(#clip452)" style="stroke:#000000; stroke-linecap:round; stroke-linejoin:round; stroke-width:4; stroke-opacity:0.1; fill:none" points="1518.27,1082.2 1518.27,94.4882 "/>
<polyline clip-path="url(#clip452)" style="stroke:#000000; stroke-linecap:round; stroke-linejoin:round; stroke-width:4; stroke-opacity:0.1; fill:none" points="1889.61,1082.2 1889.61,94.4882 "/>
<polyline clip-path="url(#clip452)" style="stroke:#000000; stroke-linecap:round; stroke-linejoin:round; stroke-width:4; stroke-opacity:0.1; fill:none" points="2260.95,1082.2 2260.95,94.4882 "/>
<polyline clip-path="url(#clip450)" style="stroke:#000000; stroke-linecap:round; stroke-linejoin:round; stroke-width:8; stroke-opacity:1; fill:none" points="731.021,1082.2 2305.51,1082.2 "/>
<polyline clip-path="url(#clip450)" style="stroke:#000000; stroke-linecap:round; stroke-linejoin:round; stroke-width:8; stroke-opacity:1; fill:none" points="775.583,1082.2 775.583,1063.3 "/>
<polyline clip-path="url(#clip450)" style="stroke:#000000; stroke-linecap:round; stroke-linejoin:round; stroke-width:8; stroke-opacity:1; fill:none" points="1146.92,1082.2 1146.92,1063.3 "/>
<polyline clip-path="url(#clip450)" style="stroke:#000000; stroke-linecap:round; stroke-linejoin:round; stroke-width:8; stroke-opacity:1; fill:none" points="1518.27,1082.2 1518.27,1063.3 "/>
<polyline clip-path="url(#clip450)" style="stroke:#000000; stroke-linecap:round; stroke-linejoin:round; stroke-width:8; stroke-opacity:1; fill:none" points="1889.61,1082.2 1889.61,1063.3 "/>
<polyline clip-path="url(#clip450)" style="stroke:#000000; stroke-linecap:round; stroke-linejoin:round; stroke-width:8; stroke-opacity:1; fill:none" points="2260.95,1082.2 2260.95,1063.3 "/>
<path clip-path="url(#clip450)" d="M730.351 1124.84 Q723.129 1124.84 719.472 1131.97 Q715.861 1139.05 715.861 1153.31 Q715.861 1167.52 719.472 1174.65 Q723.129 1181.73 730.351 1181.73 Q737.62 1181.73 741.231 1174.65 Q744.888 1167.52 744.888 1153.31 Q744.888 1139.05 741.231 1131.97 Q737.62 1124.84 730.351 1124.84 M730.351 1117.43 Q741.972 1117.43 748.083 1126.64 Q754.24 1135.81 754.24 1153.31 Q754.24 1170.76 748.083 1179.98 Q741.972 1189.14 730.351 1189.14 Q718.731 1189.14 712.574 1179.98 Q706.463 1170.76 706.463 1153.31 Q706.463 1135.81 712.574 1126.64 Q718.731 1117.43 730.351 1117.43 Z" fill="#000000" fill-rule="nonzero" fill-opacity="1" /><path clip-path="url(#clip450)" d="M770.675 1176.04 L780.444 1176.04 L780.444 1187.8 L770.675 1187.8 L770.675 1176.04 Z" fill="#000000" fill-rule="nonzero" fill-opacity="1" /><path clip-path="url(#clip450)" d="M820.814 1124.84 Q813.592 1124.84 809.934 1131.97 Q806.323 1139.05 806.323 1153.31 Q806.323 1167.52 809.934 1174.65 Q813.592 1181.73 820.814 1181.73 Q828.082 1181.73 831.693 1174.65 Q835.351 1167.52 835.351 1153.31 Q835.351 1139.05 831.693 1131.97 Q828.082 1124.84 820.814 1124.84 M820.814 1117.43 Q832.434 1117.43 838.545 1126.64 Q844.703 1135.81 844.703 1153.31 Q844.703 1170.76 838.545 1179.98 Q832.434 1189.14 820.814 1189.14 Q809.193 1189.14 803.036 1179.98 Q796.925 1170.76 796.925 1153.31 Q796.925 1135.81 803.036 1126.64 Q809.193 1117.43 820.814 1117.43 Z" fill="#000000" fill-rule="nonzero" fill-opacity="1" /><path clip-path="url(#clip450)" d="M1102.69 1124.84 Q1095.47 1124.84 1091.81 1131.97 Q1088.2 1139.05 1088.2 1153.31 Q1088.2 1167.52 1091.81 1174.65 Q1095.47 1181.73 1102.69 1181.73 Q1109.96 1181.73 1113.57 1174.65 Q1117.23 1167.52 1117.23 1153.31 Q1117.23 1139.05 1113.57 1131.97 Q1109.96 1124.84 1102.69 1124.84 M1102.69 1117.43 Q1114.31 1117.43 1120.42 1126.64 Q1126.58 1135.81 1126.58 1153.31 Q1126.58 1170.76 1120.42 1179.98 Q1114.31 1189.14 1102.69 1189.14 Q1091.07 1189.14 1084.91 1179.98 Q1078.8 1170.76 1078.8 1153.31 Q1078.8 1135.81 1084.91 1126.64 Q1091.07 1117.43 1102.69 1117.43 Z" fill="#000000" fill-rule="nonzero" fill-opacity="1" /><path clip-path="url(#clip450)" d="M1143.01 1176.04 L1152.78 1176.04 L1152.78 1187.8 L1143.01 1187.8 L1143.01 1176.04 Z" fill="#000000" fill-rule="nonzero" fill-opacity="1" /><path clip-path="url(#clip450)" d="M1173.24 1118.68 L1209.96 1118.68 L1209.96 1126.55 L1181.81 1126.55 L1181.81 1143.49 Q1183.85 1142.8 1185.88 1142.48 Q1187.92 1142.11 1189.96 1142.11 Q1201.53 1142.11 1208.29 1148.45 Q1215.05 1154.79 1215.05 1165.62 Q1215.05 1176.78 1208.1 1182.98 Q1201.16 1189.14 1188.52 1189.14 Q1184.17 1189.14 1179.63 1188.4 Q1175.14 1187.66 1170.33 1186.18 L1170.33 1176.78 Q1174.49 1179.05 1178.94 1180.16 Q1183.38 1181.27 1188.34 1181.27 Q1196.35 1181.27 1201.02 1177.06 Q1205.7 1172.85 1205.7 1165.62 Q1205.7 1158.4 1201.02 1154.19 Q1196.35 1149.98 1188.34 1149.98 Q1184.59 1149.98 1180.84 1150.81 Q1177.13 1151.64 1173.24 1153.4 L1173.24 1118.68 Z" fill="#000000" fill-rule="nonzero" fill-opacity="1" /><path clip-path="url(#clip450)" d="M1452.57 1179.93 L1467.85 1179.93 L1467.85 1127.2 L1451.23 1130.53 L1451.23 1122.01 L1467.76 1118.68 L1477.11 1118.68 L1477.11 1179.93 L1492.39 1179.93 L1492.39 1187.8 L1452.57 1187.8 L1452.57 1179.93 Z" fill="#000000" fill-rule="nonzero" fill-opacity="1" /><path clip-path="url(#clip450)" d="M1511.28 1176.04 L1521.04 1176.04 L1521.04 1187.8 L1511.28 1187.8 L1511.28 1176.04 Z" fill="#000000" fill-rule="nonzero" fill-opacity="1" /><path clip-path="url(#clip450)" d="M1561.41 1124.84 Q1554.19 1124.84 1550.53 1131.97 Q1546.92 1139.05 1546.92 1153.31 Q1546.92 1167.52 1550.53 1174.65 Q1554.19 1181.73 1561.41 1181.73 Q1568.68 1181.73 1572.29 1174.65 Q1575.95 1167.52 1575.95 1153.31 Q1575.95 1139.05 1572.29 1131.97 Q1568.68 1124.84 1561.41 1124.84 M1561.41 1117.43 Q1573.03 1117.43 1579.15 1126.64 Q1585.3 1135.81 1585.3 1153.31 Q1585.3 1170.76 1579.15 1179.98 Q1573.03 1189.14 1561.41 1189.14 Q1549.79 1189.14 1543.64 1179.98 Q1537.53 1170.76 1537.53 1153.31 Q1537.53 1135.81 1543.64 1126.64 Q1549.79 1117.43 1561.41 1117.43 Z" fill="#000000" fill-rule="nonzero" fill-opacity="1" /><path clip-path="url(#clip450)" d="M1824.91 1179.93 L1840.19 1179.93 L1840.19 1127.2 L1823.57 1130.53 L1823.57 1122.01 L1840.1 1118.68 L1849.45 1118.68 L1849.45 1179.93 L1864.72 1179.93 L1864.72 1187.8 L1824.91 1187.8 L1824.91 1179.93 Z" fill="#000000" fill-rule="nonzero" fill-opacity="1" /><path clip-path="url(#clip450)" d="M1883.61 1176.04 L1893.38 1176.04 L1893.38 1187.8 L1883.61 1187.8 L1883.61 1176.04 Z" fill="#000000" fill-rule="nonzero" fill-opacity="1" /><path clip-path="url(#clip450)" d="M1913.84 1118.68 L1950.56 1118.68 L1950.56 1126.55 L1922.41 1126.55 L1922.41 1143.49 Q1924.45 1142.8 1926.48 1142.48 Q1928.52 1142.11 1930.56 1142.11 Q1942.13 1142.11 1948.89 1148.45 Q1955.65 1154.79 1955.65 1165.62 Q1955.65 1176.78 1948.71 1182.98 Q1941.76 1189.14 1929.12 1189.14 Q1924.77 1189.14 1920.23 1188.4 Q1915.74 1187.66 1910.93 1186.18 L1910.93 1176.78 Q1915.09 1179.05 1919.54 1180.16 Q1923.98 1181.27 1928.94 1181.27 Q1936.95 1181.27 1941.62 1177.06 Q1946.3 1172.85 1946.3 1165.62 Q1946.3 1158.4 1941.62 1154.19 Q1936.95 1149.98 1928.94 1149.98 Q1925.19 1149.98 1921.44 1150.81 Q1917.73 1151.64 1913.84 1153.4 L1913.84 1118.68 Z" fill="#000000" fill-rule="nonzero" fill-opacity="1" /><path clip-path="url(#clip450)" d="M2203.43 1179.93 L2236.07 1179.93 L2236.07 1187.8 L2192.18 1187.8 L2192.18 1179.93 Q2197.5 1174.42 2206.67 1165.16 Q2215.88 1155.86 2218.24 1153.17 Q2222.73 1148.12 2224.49 1144.65 Q2226.3 1141.13 2226.3 1137.75 Q2226.3 1132.24 2222.41 1128.77 Q2218.57 1125.3 2212.36 1125.3 Q2207.96 1125.3 2203.06 1126.83 Q2198.2 1128.36 2192.64 1131.46 L2192.64 1122.01 Q2198.29 1119.74 2203.2 1118.59 Q2208.1 1117.43 2212.18 1117.43 Q2222.92 1117.43 2229.31 1122.8 Q2235.7 1128.17 2235.7 1137.15 Q2235.7 1141.41 2234.08 1145.25 Q2232.5 1149.05 2228.29 1154.24 Q2227.13 1155.58 2220.93 1162.01 Q2214.72 1168.4 2203.43 1179.93 Z" fill="#000000" fill-rule="nonzero" fill-opacity="1" /><path clip-path="url(#clip450)" d="M2255.7 1176.04 L2265.46 1176.04 L2265.46 1187.8 L2255.7 1187.8 L2255.7 1176.04 Z" fill="#000000" fill-rule="nonzero" fill-opacity="1" /><path clip-path="url(#clip450)" d="M2305.83 1124.84 Q2298.61 1124.84 2294.96 1131.97 Q2291.34 1139.05 2291.34 1153.31 Q2291.34 1167.52 2294.96 1174.65 Q2298.61 1181.73 2305.83 1181.73 Q2313.1 1181.73 2316.71 1174.65 Q2320.37 1167.52 2320.37 1153.31 Q2320.37 1139.05 2316.71 1131.97 Q2313.1 1124.84 2305.83 1124.84 M2305.83 1117.43 Q2317.46 1117.43 2323.57 1126.64 Q2329.72 1135.81 2329.72 1153.31 Q2329.72 1170.76 2323.57 1179.98 Q2317.46 1189.14 2305.83 1189.14 Q2294.21 1189.14 2288.06 1179.98 Q2281.95 1170.76 2281.95 1153.31 Q2281.95 1135.81 2288.06 1126.64 Q2294.21 1117.43 2305.83 1117.43 Z" fill="#000000" fill-rule="nonzero" fill-opacity="1" /><path clip-path="url(#clip450)" d="M1458.68 1278.32 Q1463.08 1270.42 1469.19 1266.67 Q1475.3 1262.91 1483.57 1262.91 Q1494.71 1262.91 1500.76 1270.74 Q1506.81 1278.51 1506.81 1292.9 L1506.81 1335.93 L1495.03 1335.93 L1495.03 1293.28 Q1495.03 1283.03 1491.4 1278.06 Q1487.77 1273.1 1480.33 1273.1 Q1471.22 1273.1 1465.94 1279.15 Q1460.66 1285.19 1460.66 1295.63 L1460.66 1335.93 L1448.88 1335.93 L1448.88 1293.28 Q1448.88 1282.97 1445.25 1278.06 Q1441.62 1273.1 1434.05 1273.1 Q1425.07 1273.1 1419.79 1279.21 Q1414.51 1285.26 1414.51 1295.63 L1414.51 1335.93 L1402.73 1335.93 L1402.73 1264.63 L1414.51 1264.63 L1414.51 1275.71 Q1418.52 1269.15 1424.12 1266.03 Q1429.72 1262.91 1437.42 1262.91 Q1445.19 1262.91 1450.6 1266.86 Q1456.07 1270.81 1458.68 1278.32 Z" fill="#000000" fill-rule="nonzero" fill-opacity="1" /><path clip-path="url(#clip450)" d="M1585.68 1278.32 Q1590.07 1270.42 1596.18 1266.67 Q1602.29 1262.91 1610.57 1262.91 Q1621.71 1262.91 1627.76 1270.74 Q1633.8 1278.51 1633.8 1292.9 L1633.8 1335.93 L1622.03 1335.93 L1622.03 1293.28 Q1622.03 1283.03 1618.4 1278.06 Q1614.77 1273.1 1607.32 1273.1 Q1598.22 1273.1 1592.94 1279.15 Q1587.65 1285.19 1587.65 1295.63 L1587.65 1335.93 L1575.88 1335.93 L1575.88 1293.28 Q1575.88 1282.97 1572.25 1278.06 Q1568.62 1273.1 1561.04 1273.1 Q1552.07 1273.1 1546.79 1279.21 Q1541.5 1285.26 1541.5 1295.63 L1541.5 1335.93 L1529.72 1335.93 L1529.72 1264.63 L1541.5 1264.63 L1541.5 1275.71 Q1545.51 1269.15 1551.11 1266.03 Q1556.72 1262.91 1564.42 1262.91 Q1572.18 1262.91 1577.6 1266.86 Q1583.07 1270.81 1585.68 1278.32 Z" fill="#000000" fill-rule="nonzero" fill-opacity="1" /><polyline clip-path="url(#clip452)" style="stroke:#000000; stroke-linecap:round; stroke-linejoin:round; stroke-width:4; stroke-opacity:0.1; fill:none" points="731.021,1020.75 2305.51,1020.75 "/>
<polyline clip-path="url(#clip452)" style="stroke:#000000; stroke-linecap:round; stroke-linejoin:round; stroke-width:4; stroke-opacity:0.1; fill:none" points="731.021,808.941 2305.51,808.941 "/>
<polyline clip-path="url(#clip452)" style="stroke:#000000; stroke-linecap:round; stroke-linejoin:round; stroke-width:4; stroke-opacity:0.1; fill:none" points="731.021,597.127 2305.51,597.127 "/>
<polyline clip-path="url(#clip452)" style="stroke:#000000; stroke-linecap:round; stroke-linejoin:round; stroke-width:4; stroke-opacity:0.1; fill:none" points="731.021,385.314 2305.51,385.314 "/>
<polyline clip-path="url(#clip452)" style="stroke:#000000; stroke-linecap:round; stroke-linejoin:round; stroke-width:4; stroke-opacity:0.1; fill:none" points="731.021,173.5 2305.51,173.5 "/>
<polyline clip-path="url(#clip450)" style="stroke:#000000; stroke-linecap:round; stroke-linejoin:round; stroke-width:8; stroke-opacity:1; fill:none" points="731.021,1082.2 731.021,94.4882 "/>
<polyline clip-path="url(#clip450)" style="stroke:#000000; stroke-linecap:round; stroke-linejoin:round; stroke-width:8; stroke-opacity:1; fill:none" points="731.021,1020.75 749.919,1020.75 "/>
<polyline clip-path="url(#clip450)" style="stroke:#000000; stroke-linecap:round; stroke-linejoin:round; stroke-width:8; stroke-opacity:1; fill:none" points="731.021,808.941 749.919,808.941 "/>
<polyline clip-path="url(#clip450)" style="stroke:#000000; stroke-linecap:round; stroke-linejoin:round; stroke-width:8; stroke-opacity:1; fill:none" points="731.021,597.127 749.919,597.127 "/>
<polyline clip-path="url(#clip450)" style="stroke:#000000; stroke-linecap:round; stroke-linejoin:round; stroke-width:8; stroke-opacity:1; fill:none" points="731.021,385.314 749.919,385.314 "/>
<polyline clip-path="url(#clip450)" style="stroke:#000000; stroke-linecap:round; stroke-linejoin:round; stroke-width:8; stroke-opacity:1; fill:none" points="731.021,173.5 749.919,173.5 "/>
<path clip-path="url(#clip450)" d="M590.902 986.194 L627.614 986.194 L627.614 994.064 L599.466 994.064 L599.466 1011.01 Q601.503 1010.31 603.54 1009.99 Q605.578 1009.62 607.615 1009.62 Q619.189 1009.62 625.948 1015.96 Q632.707 1022.31 632.707 1033.14 Q632.707 1044.3 625.763 1050.5 Q618.818 1056.66 606.179 1056.66 Q601.828 1056.66 597.291 1055.92 Q592.8 1055.18 587.985 1053.69 L587.985 1044.3 Q592.152 1046.56 596.596 1047.68 Q601.041 1048.79 605.994 1048.79 Q614.003 1048.79 618.679 1044.57 Q623.355 1040.36 623.355 1033.14 Q623.355 1025.92 618.679 1021.7 Q614.003 1017.49 605.994 1017.49 Q602.244 1017.49 598.494 1018.32 Q594.791 1019.16 590.902 1020.92 L590.902 986.194 Z" fill="#000000" fill-rule="nonzero" fill-opacity="1" /><path clip-path="url(#clip450)" d="M671.133 992.351 Q663.911 992.351 660.253 999.481 Q656.642 1006.56 656.642 1020.82 Q656.642 1035.04 660.253 1042.17 Q663.911 1049.25 671.133 1049.25 Q678.401 1049.25 682.012 1042.17 Q685.67 1035.04 685.67 1020.82 Q685.67 1006.56 682.012 999.481 Q678.401 992.351 671.133 992.351 M671.133 984.944 Q682.753 984.944 688.864 994.157 Q695.021 1003.32 695.021 1020.82 Q695.021 1038.28 688.864 1047.49 Q682.753 1056.66 671.133 1056.66 Q659.512 1056.66 653.355 1047.49 Q647.244 1038.28 647.244 1020.82 Q647.244 1003.32 653.355 994.157 Q659.512 984.944 671.133 984.944 Z" fill="#000000" fill-rule="nonzero" fill-opacity="1" /><path clip-path="url(#clip450)" d="M532.106 835.63 L547.383 835.63 L547.383 782.899 L530.763 786.232 L530.763 777.714 L547.291 774.381 L556.643 774.381 L556.643 835.63 L571.92 835.63 L571.92 843.501 L532.106 843.501 L532.106 835.63 Z" fill="#000000" fill-rule="nonzero" fill-opacity="1" /><path clip-path="url(#clip450)" d="M610.809 780.538 Q603.587 780.538 599.929 787.668 Q596.318 794.751 596.318 809.01 Q596.318 823.223 599.929 830.353 Q603.587 837.436 610.809 837.436 Q618.077 837.436 621.689 830.353 Q625.346 823.223 625.346 809.01 Q625.346 794.751 621.689 787.668 Q618.077 780.538 610.809 780.538 M610.809 773.131 Q622.429 773.131 628.54 782.344 Q634.698 791.51 634.698 809.01 Q634.698 826.464 628.54 835.677 Q622.429 844.843 610.809 844.843 Q599.189 844.843 593.031 835.677 Q586.92 826.464 586.92 809.01 Q586.92 791.51 593.031 782.344 Q599.189 773.131 610.809 773.131 Z" fill="#000000" fill-rule="nonzero" fill-opacity="1" /><path clip-path="url(#clip450)" d="M671.133 780.538 Q663.911 780.538 660.253 787.668 Q656.642 794.751 656.642 809.01 Q656.642 823.223 660.253 830.353 Q663.911 837.436 671.133 837.436 Q678.401 837.436 682.012 830.353 Q685.67 823.223 685.67 809.01 Q685.67 794.751 682.012 787.668 Q678.401 780.538 671.133 780.538 M671.133 773.131 Q682.753 773.131 688.864 782.344 Q695.021 791.51 695.021 809.01 Q695.021 826.464 688.864 835.677 Q682.753 844.843 671.133 844.843 Q659.512 844.843 653.355 835.677 Q647.244 826.464 647.244 809.01 Q647.244 791.51 653.355 782.344 Q659.512 773.131 671.133 773.131 Z" fill="#000000" fill-rule="nonzero" fill-opacity="1" /><path clip-path="url(#clip450)" d="M532.106 623.817 L547.383 623.817 L547.383 571.086 L530.763 574.419 L530.763 565.901 L547.291 562.567 L556.643 562.567 L556.643 623.817 L571.92 623.817 L571.92 631.687 L532.106 631.687 L532.106 623.817 Z" fill="#000000" fill-rule="nonzero" fill-opacity="1" /><path clip-path="url(#clip450)" d="M590.902 562.567 L627.614 562.567 L627.614 570.438 L599.466 570.438 L599.466 587.382 Q601.503 586.688 603.54 586.363 Q605.578 585.993 607.615 585.993 Q619.189 585.993 625.948 592.336 Q632.707 598.678 632.707 609.511 Q632.707 620.669 625.763 626.872 Q618.818 633.03 606.179 633.03 Q601.828 633.03 597.291 632.289 Q592.8 631.548 587.985 630.067 L587.985 620.669 Q592.152 622.937 596.596 624.048 Q601.041 625.16 605.994 625.16 Q614.003 625.16 618.679 620.947 Q623.355 616.734 623.355 609.511 Q623.355 602.289 618.679 598.076 Q614.003 593.863 605.994 593.863 Q602.244 593.863 598.494 594.697 Q594.791 595.53 590.902 597.289 L590.902 562.567 Z" fill="#000000" fill-rule="nonzero" fill-opacity="1" /><path clip-path="url(#clip450)" d="M671.133 568.725 Q663.911 568.725 660.253 575.854 Q656.642 582.938 656.642 597.197 Q656.642 611.41 660.253 618.539 Q663.911 625.622 671.133 625.622 Q678.401 625.622 682.012 618.539 Q685.67 611.41 685.67 597.197 Q685.67 582.938 682.012 575.854 Q678.401 568.725 671.133 568.725 M671.133 561.317 Q682.753 561.317 688.864 570.53 Q695.021 579.697 695.021 597.197 Q695.021 614.65 688.864 623.863 Q682.753 633.03 671.133 633.03 Q659.512 633.03 653.355 623.863 Q647.244 614.65 647.244 597.197 Q647.244 579.697 653.355 570.53 Q659.512 561.317 671.133 561.317 Z" fill="#000000" fill-rule="nonzero" fill-opacity="1" /><path clip-path="url(#clip450)" d="M538.541 412.004 L571.18 412.004 L571.18 419.874 L527.291 419.874 L527.291 412.004 Q532.615 406.494 541.782 397.235 Q550.994 387.93 553.356 385.244 Q557.846 380.198 559.606 376.726 Q561.411 373.207 561.411 369.828 Q561.411 364.319 557.522 360.846 Q553.68 357.374 547.476 357.374 Q543.078 357.374 538.17 358.902 Q533.309 360.43 527.754 363.532 L527.754 354.087 Q533.402 351.819 538.309 350.661 Q543.217 349.504 547.291 349.504 Q558.031 349.504 564.42 354.874 Q570.809 360.245 570.809 369.226 Q570.809 373.485 569.189 377.328 Q567.615 381.124 563.402 386.309 Q562.244 387.652 556.041 394.087 Q549.837 400.476 538.541 412.004 Z" fill="#000000" fill-rule="nonzero" fill-opacity="1" /><path clip-path="url(#clip450)" d="M610.809 356.911 Q603.587 356.911 599.929 364.041 Q596.318 371.124 596.318 385.383 Q596.318 399.596 599.929 406.726 Q603.587 413.809 610.809 413.809 Q618.077 413.809 621.689 406.726 Q625.346 399.596 625.346 385.383 Q625.346 371.124 621.689 364.041 Q618.077 356.911 610.809 356.911 M610.809 349.504 Q622.429 349.504 628.54 358.717 Q634.698 367.883 634.698 385.383 Q634.698 402.837 628.54 412.05 Q622.429 421.216 610.809 421.216 Q599.189 421.216 593.031 412.05 Q586.92 402.837 586.92 385.383 Q586.92 367.883 593.031 358.717 Q599.189 349.504 610.809 349.504 Z" fill="#000000" fill-rule="nonzero" fill-opacity="1" /><path clip-path="url(#clip450)" d="M671.133 356.911 Q663.911 356.911 660.253 364.041 Q656.642 371.124 656.642 385.383 Q656.642 399.596 660.253 406.726 Q663.911 413.809 671.133 413.809 Q678.401 413.809 682.012 406.726 Q685.67 399.596 685.67 385.383 Q685.67 371.124 682.012 364.041 Q678.401 356.911 671.133 356.911 M671.133 349.504 Q682.753 349.504 688.864 358.717 Q695.021 367.883 695.021 385.383 Q695.021 402.837 688.864 412.05 Q682.753 421.216 671.133 421.216 Q659.512 421.216 653.355 412.05 Q647.244 402.837 647.244 385.383 Q647.244 367.883 653.355 358.717 Q659.512 349.504 671.133 349.504 Z" fill="#000000" fill-rule="nonzero" fill-opacity="1" /><path clip-path="url(#clip450)" d="M538.541 200.19 L571.18 200.19 L571.18 208.06 L527.291 208.06 L527.291 200.19 Q532.615 194.681 541.782 185.422 Q550.994 176.116 553.356 173.431 Q557.846 168.385 559.606 164.912 Q561.411 161.394 561.411 158.014 Q561.411 152.505 557.522 149.033 Q553.68 145.561 547.476 145.561 Q543.078 145.561 538.17 147.089 Q533.309 148.616 527.754 151.718 L527.754 142.274 Q533.402 140.005 538.309 138.848 Q543.217 137.69 547.291 137.69 Q558.031 137.69 564.42 143.061 Q570.809 148.431 570.809 157.413 Q570.809 161.672 569.189 165.514 Q567.615 169.311 563.402 174.496 Q562.244 175.838 556.041 182.273 Q549.837 188.662 538.541 200.19 Z" fill="#000000" fill-rule="nonzero" fill-opacity="1" /><path clip-path="url(#clip450)" d="M590.902 138.94 L627.614 138.94 L627.614 146.811 L599.466 146.811 L599.466 163.755 Q601.503 163.061 603.54 162.737 Q605.578 162.366 607.615 162.366 Q619.189 162.366 625.948 168.709 Q632.707 175.051 632.707 185.885 Q632.707 197.042 625.763 203.246 Q618.818 209.403 606.179 209.403 Q601.828 209.403 597.291 208.662 Q592.8 207.922 587.985 206.44 L587.985 197.042 Q592.152 199.31 596.596 200.422 Q601.041 201.533 605.994 201.533 Q614.003 201.533 618.679 197.32 Q623.355 193.107 623.355 185.885 Q623.355 178.662 618.679 174.449 Q614.003 170.237 605.994 170.237 Q602.244 170.237 598.494 171.07 Q594.791 171.903 590.902 173.662 L590.902 138.94 Z" fill="#000000" fill-rule="nonzero" fill-opacity="1" /><path clip-path="url(#clip450)" d="M671.133 145.098 Q663.911 145.098 660.253 152.227 Q656.642 159.311 656.642 173.57 Q656.642 187.783 660.253 194.912 Q663.911 201.996 671.133 201.996 Q678.401 201.996 682.012 194.912 Q685.67 187.783 685.67 173.57 Q685.67 159.311 682.012 152.227 Q678.401 145.098 671.133 145.098 M671.133 137.69 Q682.753 137.69 688.864 146.903 Q695.021 156.07 695.021 173.57 Q695.021 191.023 688.864 200.236 Q682.753 209.403 671.133 209.403 Q659.512 209.403 653.355 200.236 Q647.244 191.023 647.244 173.57 Q647.244 156.07 653.355 146.903 Q659.512 137.69 671.133 137.69 Z" fill="#000000" fill-rule="nonzero" fill-opacity="1" /><path clip-path="url(#clip450)" d="M489.897 806.497 L391.483 806.497 L391.483 794.784 L435.788 794.784 Q445.019 794.784 449.729 790.391 Q454.44 785.999 454.44 777.405 Q454.44 767.984 449.093 763.274 Q443.745 758.499 433.051 758.499 L391.483 758.499 L391.483 746.786 L446.355 746.786 Q450.175 746.786 452.021 745.704 Q453.803 744.558 453.803 742.203 Q453.803 741.63 453.485 740.612 Q453.103 739.593 452.339 737.811 L461.76 737.811 Q463.224 740.421 463.925 742.776 Q464.625 745.068 464.625 747.296 Q464.625 751.688 462.142 754.298 Q459.66 756.908 454.567 757.863 Q459.596 761.046 462.142 765.693 Q464.625 770.276 464.625 776.514 Q464.625 783.007 462.142 787.591 Q459.66 792.11 454.694 794.784 L489.897 794.784 L489.897 806.497 Z" fill="#000000" fill-rule="nonzero" fill-opacity="1" /><path clip-path="url(#clip450)" d="M426.303 675.427 Q413.572 675.427 406.57 680.71 Q399.567 685.93 399.567 695.415 Q399.567 704.836 406.57 710.12 Q413.572 715.34 426.303 715.34 Q438.971 715.34 445.973 710.12 Q452.976 704.836 452.976 695.415 Q452.976 685.93 445.973 680.71 Q438.971 675.427 426.303 675.427 M453.931 663.714 Q472.136 663.714 480.985 671.798 Q489.897 679.883 489.897 696.561 Q489.897 702.736 488.942 708.21 Q488.051 713.685 486.141 718.841 L474.746 718.841 Q477.547 713.685 478.884 708.656 Q480.221 703.627 480.221 698.407 Q480.221 686.885 474.174 681.156 Q468.19 675.427 456.031 675.427 L450.238 675.427 Q456.541 679.055 459.66 684.721 Q462.779 690.386 462.779 698.28 Q462.779 711.393 452.785 719.414 Q442.791 727.435 426.303 727.435 Q409.753 727.435 399.758 719.414 Q389.764 711.393 389.764 698.28 Q389.764 690.386 392.883 684.721 Q396.003 679.055 402.305 675.427 L391.483 675.427 L391.483 663.714 L453.931 663.714 Z" fill="#000000" fill-rule="nonzero" fill-opacity="1" /><path clip-path="url(#clip450)" d="M367.739 577.331 L367.739 566.51 L474.874 599.611 L474.874 610.433 L367.739 577.331 Z" fill="#000000" fill-rule="nonzero" fill-opacity="1" /><path clip-path="url(#clip450)" d="M489.897 513.992 L391.483 513.992 L391.483 502.28 L435.788 502.28 Q445.019 502.28 449.729 497.887 Q454.44 493.495 454.44 484.901 Q454.44 475.48 449.093 470.769 Q443.745 465.995 433.051 465.995 L391.483 465.995 L391.483 454.282 L446.355 454.282 Q450.175 454.282 452.021 453.2 Q453.803 452.054 453.803 449.699 Q453.803 449.126 453.485 448.107 Q453.103 447.089 452.339 445.307 L461.76 445.307 Q463.224 447.916 463.925 450.272 Q464.625 452.563 464.625 454.791 Q464.625 459.184 462.142 461.794 Q459.66 464.404 454.567 465.358 Q459.596 468.541 462.142 473.188 Q464.625 477.772 464.625 484.01 Q464.625 490.503 462.142 495.086 Q459.66 499.606 454.694 502.28 L489.897 502.28 L489.897 513.992 Z" fill="#000000" fill-rule="nonzero" fill-opacity="1" /><path clip-path="url(#clip450)" d="M367.739 429.329 L367.739 416.47 L451.957 416.47 L451.957 370.191 L462.779 370.191 L462.779 429.329 L367.739 429.329 Z" fill="#000000" fill-rule="nonzero" fill-opacity="1" /><polyline clip-path="url(#clip452)" style="stroke:#009af9; stroke-linecap:round; stroke-linejoin:round; stroke-width:8; stroke-opacity:1; fill:none" points="874.607,632.736 973.632,508.779 1072.66,425.603 1171.68,382.802 1270.71,339.971 1369.73,291.138 1468.75,242.306 1567.78,246.217 1666.8,302.871 1765.83,359.459 1864.85,389.404 1963.88,419.349 2062.9,464.398 2161.93,524.254 2260.95,584.109 "/>
<polyline clip-path="url(#clip452)" style="stroke:#008000; stroke-linecap:round; stroke-linejoin:round; stroke-width:8; stroke-opacity:1; fill:none" points="775.583,756.692 1022.9,447.111 1270.21,340.215 1518.27,217.889 1765.58,359.384 2012.89,434.171 2260.95,584.109 "/>
<circle clip-path="url(#clip452)" cx="775.583" cy="756.692" r="28.8" fill="#008000" fill-rule="evenodd" fill-opacity="1" stroke="#000000" stroke-opacity="1" stroke-width="6.4"/>
<circle clip-path="url(#clip452)" cx="1022.9" cy="447.111" r="28.8" fill="#008000" fill-rule="evenodd" fill-opacity="1" stroke="#000000" stroke-opacity="1" stroke-width="6.4"/>
<circle clip-path="url(#clip452)" cx="1270.21" cy="340.215" r="28.8" fill="#008000" fill-rule="evenodd" fill-opacity="1" stroke="#000000" stroke-opacity="1" stroke-width="6.4"/>
<circle clip-path="url(#clip452)" cx="1518.27" cy="217.889" r="28.8" fill="#008000" fill-rule="evenodd" fill-opacity="1" stroke="#000000" stroke-opacity="1" stroke-width="6.4"/>
<circle clip-path="url(#clip452)" cx="1765.58" cy="359.384" r="28.8" fill="#008000" fill-rule="evenodd" fill-opacity="1" stroke="#000000" stroke-opacity="1" stroke-width="6.4"/>
<circle clip-path="url(#clip452)" cx="2012.89" cy="434.171" r="28.8" fill="#008000" fill-rule="evenodd" fill-opacity="1" stroke="#000000" stroke-opacity="1" stroke-width="6.4"/>
<circle clip-path="url(#clip452)" cx="2260.95" cy="584.109" r="28.8" fill="#008000" fill-rule="evenodd" fill-opacity="1" stroke="#000000" stroke-opacity="1" stroke-width="6.4"/>
<circle clip-path="url(#clip452)" cx="874.607" cy="122.442" r="28.8" fill="#008000" fill-rule="evenodd" fill-opacity="1" stroke="#000000" stroke-opacity="1" stroke-width="6.4"/>
<circle clip-path="url(#clip452)" cx="2260.95" cy="1054.25" r="28.8" fill="#008000" fill-rule="evenodd" fill-opacity="1" stroke="#000000" stroke-opacity="1" stroke-width="6.4"/>
<line clip-path="url(#clip452)" x1="874.607" y1="122.442" x2="874.607" y2="90.4423" style="stroke:#0000ff; stroke-width:6.4; stroke-opacity:1"/>
<line clip-path="url(#clip452)" x1="874.607" y1="122.442" x2="842.607" y2="122.442" style="stroke:#0000ff; stroke-width:6.4; stroke-opacity:1"/>
<line clip-path="url(#clip452)" x1="874.607" y1="122.442" x2="874.607" y2="154.442" style="stroke:#0000ff; stroke-width:6.4; stroke-opacity:1"/>
<line clip-path="url(#clip452)" x1="874.607" y1="122.442" x2="906.607" y2="122.442" style="stroke:#0000ff; stroke-width:6.4; stroke-opacity:1"/>
<line clip-path="url(#clip452)" x1="2260.95" y1="1054.25" x2="2260.95" y2="1022.25" style="stroke:#0000ff; stroke-width:6.4; stroke-opacity:1"/>
<line clip-path="url(#clip452)" x1="2260.95" y1="1054.25" x2="2228.95" y2="1054.25" style="stroke:#0000ff; stroke-width:6.4; stroke-opacity:1"/>
<line clip-path="url(#clip452)" x1="2260.95" y1="1054.25" x2="2260.95" y2="1086.25" style="stroke:#0000ff; stroke-width:6.4; stroke-opacity:1"/>
<line clip-path="url(#clip452)" x1="2260.95" y1="1054.25" x2="2292.95" y2="1054.25" style="stroke:#0000ff; stroke-width:6.4; stroke-opacity:1"/>
</svg>
