<?xml version="1.0" encoding="utf-8"?>
<svg xmlns="http://www.w3.org/2000/svg" xmlns:xlink="http://www.w3.org/1999/xlink" width="600" height="400" viewBox="0 0 2400 1600">
<defs>
  <clipPath id="clip620">
    <rect x="0" y="0" width="2400" height="1600"/>
  </clipPath>
</defs>
<path clip-path="url(#clip620)" d="M0 1600 L2400 1600 L2400 0 L0 0  Z" fill="#ffffff" fill-rule="evenodd" fill-opacity="1"/>
<defs>
  <clipPath id="clip621">
    <rect x="480" y="0" width="1681" height="1600"/>
  </clipPath>
</defs>
<path clip-path="url(#clip620)" d="M680.45 1273.7 L2305.51 1273.7 L2305.51 94.4882 L680.45 94.4882  Z" fill="#ffffff" fill-rule="evenodd" fill-opacity="1"/>
<defs>
  <clipPath id="clip622">
    <rect x="680" y="94" width="1626" height="1180"/>
  </clipPath>
</defs>
<polyline clip-path="url(#clip622)" style="stroke:#000000; stroke-linecap:round; stroke-linejoin:round; stroke-width:4; stroke-opacity:0.1; fill:none" points="726.443,1273.7 726.443,94.4882 "/>
<polyline clip-path="url(#clip622)" style="stroke:#000000; stroke-linecap:round; stroke-linejoin:round; stroke-width:4; stroke-opacity:0.1; fill:none" points="1000.21,1273.7 1000.21,94.4882 "/>
<polyline clip-path="url(#clip622)" style="stroke:#000000; stroke-linecap:round; stroke-linejoin:round; stroke-width:4; stroke-opacity:0.1; fill:none" points="1273.97,1273.7 1273.97,94.4882 "/>
<polyline clip-path="url(#clip622)" style="stroke:#000000; stroke-linecap:round; stroke-linejoin:round; stroke-width:4; stroke-opacity:0.1; fill:none" points="1547.73,1273.7 1547.73,94.4882 "/>
<polyline clip-path="url(#clip622)" style="stroke:#000000; stroke-linecap:round; stroke-linejoin:round; stroke-width:4; stroke-opacity:0.1; fill:none" points="1821.5,1273.7 1821.5,94.4882 "/>
<polyline clip-path="url(#clip622)" style="stroke:#000000; stroke-linecap:round; stroke-linejoin:round; stroke-width:4; stroke-opacity:0.1; fill:none" points="2095.26,1273.7 2095.26,94.4882 "/>
<polyline clip-path="url(#clip620)" style="stroke:#000000; stroke-linecap:round; stroke-linejoin:round; stroke-width:8; stroke-opacity:1; fill:none" points="680.45,1273.7 2305.51,1273.7 "/>
<polyline clip-path="url(#clip620)" style="stroke:#000000; stroke-linecap:round; stroke-linejoin:round; stroke-width:8; stroke-opacity:1; fill:none" points="726.443,1273.7 726.443,1254.8 "/>
<polyline clip-path="url(#clip620)" style="stroke:#000000; stroke-linecap:round; stroke-linejoin:round; stroke-width:8; stroke-opacity:1; fill:none" points="1000.21,1273.7 1000.21,1254.8 "/>
<polyline clip-path="url(#clip620)" style="stroke:#000000; stroke-linecap:round; stroke-linejoin:round; stroke-width:8; stroke-opacity:1; fill:none" points="1273.97,1273.7 1273.97,1254.8 "/>
<polyline clip-path="url(#clip620)" style="stroke:#000000; stroke-linecap:round; stroke-linejoin:round; stroke-width:8; stroke-opacity:1; fill:none" points="1547.73,1273.7 1547.73,1254.8 "/>
<polyline clip-path="url(#clip620)" style="stroke:#000000; stroke-linecap:round; stroke-linejoin:round; stroke-width:8; stroke-opacity:1; fill:none" points="1821.5,1273.7 1821.5,1254.8 "/>
<polyline clip-path="url(#clip620)" style="stroke:#000000; stroke-linecap:round; stroke-linejoin:round; stroke-width:8; stroke-opacity:1; fill:none" points="2095.26,1273.7 2095.26,1254.8 "/>
<path clip-path="url(#clip620)" d="M651.05 1316.33 Q643.827 1316.33 640.17 1323.46 Q636.559 1330.55 636.559 1344.81 Q636.559 1359.02 640.17 1366.15 Q643.827 1373.23 651.05 1373.23 Q658.318 1373.23 661.929 1366.15 Q665.587 1359.02 665.587 1344.81 Q665.587 1330.55 661.929 1323.46 Q658.318 1316.33 651.05 1316.33 M651.05 1308.93 Q662.67 1308.93 668.781 1318.14 Q674.938 1327.31 674.938 1344.81 Q674.938 1362.26 668.781 1371.47 Q662.67 1380.64 651.05 1380.64 Q639.429 1380.64 633.272 1371.47 Q627.161 1362.26 627.161 1344.81 Q627.161 1327.31 633.272 1318.14 Q639.429 1308.93 651.05 1308.93 Z" fill="#000000" fill-rule="nonzero" fill-opacity="1" /><path clip-path="url(#clip620)" d="M691.373 1367.54 L701.142 1367.54 L701.142 1379.3 L691.373 1379.3 L691.373 1367.54 Z" fill="#000000" fill-rule="nonzero" fill-opacity="1" /><path clip-path="url(#clip620)" d="M741.512 1316.33 Q734.29 1316.33 730.632 1323.46 Q727.021 1330.55 727.021 1344.81 Q727.021 1359.02 730.632 1366.15 Q734.29 1373.23 741.512 1373.23 Q748.781 1373.23 752.392 1366.15 Q756.049 1359.02 756.049 1344.81 Q756.049 1330.55 752.392 1323.46 Q748.781 1316.33 741.512 1316.33 M741.512 1308.93 Q753.132 1308.93 759.243 1318.14 Q765.401 1327.31 765.401 1344.81 Q765.401 1362.26 759.243 1371.47 Q753.132 1380.64 741.512 1380.64 Q729.892 1380.64 723.734 1371.47 Q717.623 1362.26 717.623 1344.81 Q717.623 1327.31 723.734 1318.14 Q729.892 1308.93 741.512 1308.93 Z" fill="#000000" fill-rule="nonzero" fill-opacity="1" /><path clip-path="url(#clip620)" d="M801.836 1316.33 Q794.614 1316.33 790.956 1323.46 Q787.345 1330.55 787.345 1344.81 Q787.345 1359.02 790.956 1366.15 Q794.614 1373.23 801.836 1373.23 Q809.104 1373.23 812.715 1366.15 Q816.373 1359.02 816.373 1344.81 Q816.373 1330.55 812.715 1323.46 Q809.104 1316.33 801.836 1316.33 M801.836 1308.93 Q813.456 1308.93 819.567 1318.14 Q825.725 1327.31 825.725 1344.81 Q825.725 1362.26 819.567 1371.47 Q813.456 1380.64 801.836 1380.64 Q790.215 1380.64 784.058 1371.47 Q777.947 1362.26 777.947 1344.81 Q777.947 1327.31 784.058 1318.14 Q790.215 1308.93 801.836 1308.93 Z" fill="#000000" fill-rule="nonzero" fill-opacity="1" /><path clip-path="url(#clip620)" d="M925.809 1316.33 Q918.586 1316.33 914.929 1323.46 Q911.318 1330.55 911.318 1344.81 Q911.318 1359.02 914.929 1366.15 Q918.586 1373.23 925.809 1373.23 Q933.077 1373.23 936.688 1366.15 Q940.346 1359.02 940.346 1344.81 Q940.346 1330.55 936.688 1323.46 Q933.077 1316.33 925.809 1316.33 M925.809 1308.93 Q937.429 1308.93 943.54 1318.14 Q949.697 1327.31 949.697 1344.81 Q949.697 1362.26 943.54 1371.47 Q937.429 1380.64 925.809 1380.64 Q914.188 1380.64 908.031 1371.47 Q901.92 1362.26 901.92 1344.81 Q901.92 1327.31 908.031 1318.14 Q914.188 1308.93 925.809 1308.93 Z" fill="#000000" fill-rule="nonzero" fill-opacity="1" /><path clip-path="url(#clip620)" d="M966.133 1367.54 L975.901 1367.54 L975.901 1379.3 L966.133 1379.3 L966.133 1367.54 Z" fill="#000000" fill-rule="nonzero" fill-opacity="1" /><path clip-path="url(#clip620)" d="M1004.33 1371.43 L1036.97 1371.43 L1036.97 1379.3 L993.077 1379.3 L993.077 1371.43 Q998.401 1365.92 1007.57 1356.66 Q1016.78 1347.35 1019.14 1344.67 Q1023.63 1339.62 1025.39 1336.15 Q1027.2 1332.63 1027.2 1329.25 Q1027.2 1323.74 1023.31 1320.27 Q1019.47 1316.8 1013.26 1316.8 Q1008.86 1316.8 1003.96 1318.32 Q999.095 1319.85 993.54 1322.95 L993.54 1313.51 Q999.188 1311.24 1004.1 1310.08 Q1009 1308.93 1013.08 1308.93 Q1023.82 1308.93 1030.21 1314.3 Q1036.6 1319.67 1036.6 1328.65 Q1036.6 1332.91 1034.97 1336.75 Q1033.4 1340.55 1029.19 1345.73 Q1028.03 1347.07 1021.83 1353.51 Q1015.62 1359.9 1004.33 1371.43 Z" fill="#000000" fill-rule="nonzero" fill-opacity="1" /><path clip-path="url(#clip620)" d="M1056.69 1310.18 L1093.4 1310.18 L1093.4 1318.05 L1065.25 1318.05 L1065.25 1334.99 Q1067.29 1334.3 1069.33 1333.97 Q1071.36 1333.6 1073.4 1333.6 Q1084.97 1333.6 1091.73 1339.94 Q1098.49 1346.29 1098.49 1357.12 Q1098.49 1368.28 1091.55 1374.48 Q1084.6 1380.64 1071.97 1380.64 Q1067.61 1380.64 1063.08 1379.9 Q1058.59 1379.16 1053.77 1377.68 L1053.77 1368.28 Q1057.94 1370.55 1062.38 1371.66 Q1066.83 1372.77 1071.78 1372.77 Q1079.79 1372.77 1084.47 1368.56 Q1089.14 1364.34 1089.14 1357.12 Q1089.14 1349.9 1084.47 1345.68 Q1079.79 1341.47 1071.78 1341.47 Q1068.03 1341.47 1064.28 1342.31 Q1060.58 1343.14 1056.69 1344.9 L1056.69 1310.18 Z" fill="#000000" fill-rule="nonzero" fill-opacity="1" /><path clip-path="url(#clip620)" d="M1198.58 1316.33 Q1191.35 1316.33 1187.7 1323.46 Q1184.09 1330.55 1184.09 1344.81 Q1184.09 1359.02 1187.7 1366.15 Q1191.35 1373.23 1198.58 1373.23 Q1205.85 1373.23 1209.46 1366.15 Q1213.11 1359.02 1213.11 1344.81 Q1213.11 1330.55 1209.46 1323.46 Q1205.85 1316.33 1198.58 1316.33 M1198.58 1308.93 Q1210.2 1308.93 1216.31 1318.14 Q1222.47 1327.31 1222.47 1344.81 Q1222.47 1362.26 1216.31 1371.47 Q1210.2 1380.64 1198.58 1380.64 Q1186.96 1380.64 1180.8 1371.47 Q1174.69 1362.26 1174.69 1344.81 Q1174.69 1327.31 1180.8 1318.14 Q1186.96 1308.93 1198.58 1308.93 Z" fill="#000000" fill-rule="nonzero" fill-opacity="1" /><path clip-path="url(#clip620)" d="M1238.9 1367.54 L1248.67 1367.54 L1248.67 1379.3 L1238.9 1379.3 L1238.9 1367.54 Z" fill="#000000" fill-rule="nonzero" fill-opacity="1" /><path clip-path="url(#clip620)" d="M1269.13 1310.18 L1305.84 1310.18 L1305.84 1318.05 L1277.7 1318.05 L1277.7 1334.99 Q1279.73 1334.3 1281.77 1333.97 Q1283.81 1333.6 1285.85 1333.6 Q1297.42 1333.6 1304.18 1339.94 Q1310.94 1346.29 1310.94 1357.12 Q1310.94 1368.28 1303.99 1374.48 Q1297.05 1380.64 1284.41 1380.64 Q1280.06 1380.64 1275.52 1379.9 Q1271.03 1379.16 1266.22 1377.68 L1266.22 1368.28 Q1270.38 1370.55 1274.83 1371.66 Q1279.27 1372.77 1284.22 1372.77 Q1292.23 1372.77 1296.91 1368.56 Q1301.59 1364.34 1301.59 1357.12 Q1301.59 1349.9 1296.91 1345.68 Q1292.23 1341.47 1284.22 1341.47 Q1280.47 1341.47 1276.72 1342.31 Q1273.02 1343.14 1269.13 1344.9 L1269.13 1310.18 Z" fill="#000000" fill-rule="nonzero" fill-opacity="1" /><path clip-path="url(#clip620)" d="M1349.36 1316.33 Q1342.14 1316.33 1338.48 1323.46 Q1334.87 1330.55 1334.87 1344.81 Q1334.87 1359.02 1338.48 1366.15 Q1342.14 1373.23 1349.36 1373.23 Q1356.63 1373.23 1360.24 1366.15 Q1363.9 1359.02 1363.9 1344.81 Q1363.9 1330.55 1360.24 1323.46 Q1356.63 1316.33 1349.36 1316.33 M1349.36 1308.93 Q1360.98 1308.93 1367.09 1318.14 Q1373.25 1327.31 1373.25 1344.81 Q1373.25 1362.26 1367.09 1371.47 Q1360.98 1380.64 1349.36 1380.64 Q1337.74 1380.64 1331.59 1371.47 Q1325.47 1362.26 1325.47 1344.81 Q1325.47 1327.31 1331.59 1318.14 Q1337.74 1308.93 1349.36 1308.93 Z" fill="#000000" fill-rule="nonzero" fill-opacity="1" /><path clip-path="url(#clip620)" d="M1473.34 1316.33 Q1466.11 1316.33 1462.46 1323.46 Q1458.85 1330.55 1458.85 1344.81 Q1458.85 1359.02 1462.46 1366.15 Q1466.11 1373.23 1473.34 1373.23 Q1480.6 1373.23 1484.22 1366.15 Q1487.87 1359.02 1487.87 1344.81 Q1487.87 1330.55 1484.22 1323.46 Q1480.6 1316.33 1473.34 1316.33 M1473.34 1308.93 Q1484.96 1308.93 1491.07 1318.14 Q1497.22 1327.31 1497.22 1344.81 Q1497.22 1362.26 1491.07 1371.47 Q1484.96 1380.64 1473.34 1380.64 Q1461.72 1380.64 1455.56 1371.47 Q1449.45 1362.26 1449.45 1344.81 Q1449.45 1327.31 1455.56 1318.14 Q1461.72 1308.93 1473.34 1308.93 Z" fill="#000000" fill-rule="nonzero" fill-opacity="1" /><path clip-path="url(#clip620)" d="M1513.66 1367.54 L1523.43 1367.54 L1523.43 1379.3 L1513.66 1379.3 L1513.66 1367.54 Z" fill="#000000" fill-rule="nonzero" fill-opacity="1" /><path clip-path="url(#clip620)" d="M1541.44 1310.18 L1585.88 1310.18 L1585.88 1314.16 L1560.79 1379.3 L1551.02 1379.3 L1574.63 1318.05 L1541.44 1318.05 L1541.44 1310.18 Z" fill="#000000" fill-rule="nonzero" fill-opacity="1" /><path clip-path="url(#clip620)" d="M1604.22 1310.18 L1640.93 1310.18 L1640.93 1318.05 L1612.78 1318.05 L1612.78 1334.99 Q1614.82 1334.3 1616.85 1333.97 Q1618.89 1333.6 1620.93 1333.6 Q1632.5 1333.6 1639.26 1339.94 Q1646.02 1346.29 1646.02 1357.12 Q1646.02 1368.28 1639.08 1374.48 Q1632.13 1380.64 1619.49 1380.64 Q1615.14 1380.64 1610.6 1379.9 Q1606.11 1379.16 1601.3 1377.68 L1601.3 1368.28 Q1605.47 1370.55 1609.91 1371.66 Q1614.35 1372.77 1619.31 1372.77 Q1627.32 1372.77 1631.99 1368.56 Q1636.67 1364.34 1636.67 1357.12 Q1636.67 1349.9 1631.99 1345.68 Q1627.32 1341.47 1619.31 1341.47 Q1615.56 1341.47 1611.81 1342.31 Q1608.1 1343.14 1604.22 1344.9 L1604.22 1310.18 Z" fill="#000000" fill-rule="nonzero" fill-opacity="1" /><path clip-path="url(#clip620)" d="M1725.64 1371.43 L1740.92 1371.43 L1740.92 1318.69 L1724.3 1322.03 L1724.3 1313.51 L1740.83 1310.18 L1750.18 1310.18 L1750.18 1371.43 L1765.46 1371.43 L1765.46 1379.3 L1725.64 1379.3 L1725.64 1371.43 Z" fill="#000000" fill-rule="nonzero" fill-opacity="1" /><path clip-path="url(#clip620)" d="M1784.34 1367.54 L1794.11 1367.54 L1794.11 1379.3 L1784.34 1379.3 L1784.34 1367.54 Z" fill="#000000" fill-rule="nonzero" fill-opacity="1" /><path clip-path="url(#clip620)" d="M1834.48 1316.33 Q1827.26 1316.33 1823.6 1323.46 Q1819.99 1330.55 1819.99 1344.81 Q1819.99 1359.02 1823.6 1366.15 Q1827.26 1373.23 1834.48 1373.23 Q1841.75 1373.23 1845.36 1366.15 Q1849.02 1359.02 1849.02 1344.81 Q1849.02 1330.55 1845.36 1323.46 Q1841.75 1316.33 1834.48 1316.33 M1834.48 1308.93 Q1846.1 1308.93 1852.21 1318.14 Q1858.37 1327.31 1858.37 1344.81 Q1858.37 1362.26 1852.21 1371.47 Q1846.1 1380.64 1834.48 1380.64 Q1822.86 1380.64 1816.71 1371.47 Q1810.59 1362.26 1810.59 1344.81 Q1810.59 1327.31 1816.71 1318.14 Q1822.86 1308.93 1834.48 1308.93 Z" fill="#000000" fill-rule="nonzero" fill-opacity="1" /><path clip-path="url(#clip620)" d="M1894.81 1316.33 Q1887.59 1316.33 1883.93 1323.46 Q1880.32 1330.55 1880.32 1344.81 Q1880.32 1359.02 1883.93 1366.15 Q1887.59 1373.23 1894.81 1373.23 Q1902.08 1373.23 1905.69 1366.15 Q1909.34 1359.02 1909.34 1344.81 Q1909.34 1330.55 1905.69 1323.46 Q1902.08 1316.33 1894.81 1316.33 M1894.81 1308.93 Q1906.43 1308.93 1912.54 1318.14 Q1918.7 1327.31 1918.7 1344.81 Q1918.7 1362.26 1912.54 1371.47 Q1906.43 1380.64 1894.81 1380.64 Q1883.19 1380.64 1877.03 1371.47 Q1870.92 1362.26 1870.92 1344.81 Q1870.92 1327.31 1877.03 1318.14 Q1883.19 1308.93 1894.81 1308.93 Z" fill="#000000" fill-rule="nonzero" fill-opacity="1" /><path clip-path="url(#clip620)" d="M2000.4 1371.43 L2015.68 1371.43 L2015.68 1318.69 L1999.06 1322.03 L1999.06 1313.51 L2015.59 1310.18 L2024.94 1310.18 L2024.94 1371.43 L2040.22 1371.43 L2040.22 1379.3 L2000.4 1379.3 L2000.4 1371.43 Z" fill="#000000" fill-rule="nonzero" fill-opacity="1" /><path clip-path="url(#clip620)" d="M2059.1 1367.54 L2068.87 1367.54 L2068.87 1379.3 L2059.1 1379.3 L2059.1 1367.54 Z" fill="#000000" fill-rule="nonzero" fill-opacity="1" /><path clip-path="url(#clip620)" d="M2097.3 1371.43 L2129.94 1371.43 L2129.94 1379.3 L2086.05 1379.3 L2086.05 1371.43 Q2091.37 1365.92 2100.54 1356.66 Q2109.75 1347.35 2112.11 1344.67 Q2116.6 1339.62 2118.36 1336.15 Q2120.17 1332.63 2120.17 1329.25 Q2120.17 1323.74 2116.28 1320.27 Q2112.44 1316.8 2106.23 1316.8 Q2101.84 1316.8 2096.93 1318.32 Q2092.07 1319.85 2086.51 1322.95 L2086.51 1313.51 Q2092.16 1311.24 2097.07 1310.08 Q2101.97 1308.93 2106.05 1308.93 Q2116.79 1308.93 2123.18 1314.3 Q2129.57 1319.67 2129.57 1328.65 Q2129.57 1332.91 2127.95 1336.75 Q2126.37 1340.55 2122.16 1345.73 Q2121 1347.07 2114.8 1353.51 Q2108.59 1359.9 2097.3 1371.43 Z" fill="#000000" fill-rule="nonzero" fill-opacity="1" /><path clip-path="url(#clip620)" d="M2149.66 1310.18 L2186.37 1310.18 L2186.37 1318.05 L2158.22 1318.05 L2158.22 1334.99 Q2160.26 1334.3 2162.3 1333.97 Q2164.33 1333.6 2166.37 1333.6 Q2177.95 1333.6 2184.71 1339.94 Q2191.46 1346.29 2191.46 1357.12 Q2191.46 1368.28 2184.52 1374.48 Q2177.58 1380.64 2164.94 1380.64 Q2160.58 1380.64 2156.05 1379.9 Q2151.56 1379.16 2146.74 1377.68 L2146.74 1368.28 Q2150.91 1370.55 2155.35 1371.66 Q2159.8 1372.77 2164.75 1372.77 Q2172.76 1372.77 2177.44 1368.56 Q2182.11 1364.34 2182.11 1357.12 Q2182.11 1349.9 2177.44 1345.68 Q2172.76 1341.47 2164.75 1341.47 Q2161 1341.47 2157.25 1342.31 Q2153.55 1343.14 2149.66 1344.9 L2149.66 1310.18 Z" fill="#000000" fill-rule="nonzero" fill-opacity="1" /><path clip-path="url(#clip620)" d="M1378.53 1484.39 L1378.53 1527.42 L1366.81 1527.42 L1366.81 1484.77 Q1366.81 1474.65 1362.87 1469.62 Q1358.92 1464.59 1351.03 1464.59 Q1341.54 1464.59 1336.07 1470.64 Q1330.59 1476.69 1330.59 1487.13 L1330.59 1527.42 L1318.82 1527.42 L1318.82 1428.37 L1330.59 1428.37 L1330.59 1467.2 Q1334.79 1460.77 1340.46 1457.59 Q1346.19 1454.41 1353.64 1454.41 Q1365.92 1454.41 1372.22 1462.05 Q1378.53 1469.62 1378.53 1484.39 Z" fill="#000000" fill-rule="nonzero" fill-opacity="1" /><path clip-path="url(#clip620)" d="M1429.51 1464.34 Q1420.09 1464.34 1414.62 1471.72 Q1409.14 1479.04 1409.14 1491.84 Q1409.14 1504.63 1414.56 1512.02 Q1420.03 1519.34 1429.51 1519.34 Q1438.87 1519.34 1444.35 1511.96 Q1449.82 1504.57 1449.82 1491.84 Q1449.82 1479.17 1444.35 1471.79 Q1438.87 1464.34 1429.51 1464.34 M1429.51 1454.41 Q1444.79 1454.41 1453.51 1464.34 Q1462.23 1474.27 1462.23 1491.84 Q1462.23 1509.35 1453.51 1519.34 Q1444.79 1529.27 1429.51 1529.27 Q1414.17 1529.27 1405.45 1519.34 Q1396.8 1509.35 1396.8 1491.84 Q1396.8 1474.27 1405.45 1464.34 Q1414.17 1454.41 1429.51 1454.41 Z" fill="#000000" fill-rule="nonzero" fill-opacity="1" /><path clip-path="url(#clip620)" d="M1480.44 1499.29 L1480.44 1456.13 L1492.15 1456.13 L1492.15 1498.84 Q1492.15 1508.96 1496.1 1514.06 Q1500.05 1519.08 1507.94 1519.08 Q1517.43 1519.08 1522.9 1513.04 Q1528.44 1506.99 1528.44 1496.55 L1528.44 1456.13 L1540.15 1456.13 L1540.15 1527.42 L1528.44 1527.42 L1528.44 1516.47 Q1524.17 1522.97 1518.51 1526.15 Q1512.91 1529.27 1505.46 1529.27 Q1493.17 1529.27 1486.81 1521.63 Q1480.44 1513.99 1480.44 1499.29 M1509.91 1454.41 L1509.91 1454.41 Z" fill="#000000" fill-rule="nonzero" fill-opacity="1" /><path clip-path="url(#clip620)" d="M1605.59 1467.08 Q1603.62 1465.93 1601.26 1465.42 Q1598.97 1464.85 1596.17 1464.85 Q1586.24 1464.85 1580.89 1471.34 Q1575.61 1477.77 1575.61 1489.87 L1575.61 1527.42 L1563.83 1527.42 L1563.83 1456.13 L1575.61 1456.13 L1575.61 1467.2 Q1579.3 1460.71 1585.22 1457.59 Q1591.14 1454.41 1599.61 1454.41 Q1600.82 1454.41 1602.28 1454.6 Q1603.74 1454.73 1605.53 1455.05 L1605.59 1467.08 Z" fill="#000000" fill-rule="nonzero" fill-opacity="1" /><path clip-path="url(#clip620)" d="M1663.33 1458.23 L1663.33 1469.3 Q1658.36 1466.76 1653.01 1465.49 Q1647.67 1464.21 1641.94 1464.21 Q1633.22 1464.21 1628.83 1466.89 Q1624.5 1469.56 1624.5 1474.91 Q1624.5 1478.98 1627.62 1481.34 Q1630.73 1483.63 1640.16 1485.73 L1644.17 1486.62 Q1656.64 1489.29 1661.86 1494.19 Q1667.15 1499.03 1667.15 1507.75 Q1667.15 1517.68 1659.25 1523.48 Q1651.42 1529.27 1637.67 1529.27 Q1631.94 1529.27 1625.71 1528.12 Q1619.53 1527.04 1612.66 1524.81 L1612.66 1512.72 Q1619.15 1516.09 1625.45 1517.81 Q1631.75 1519.47 1637.93 1519.47 Q1646.2 1519.47 1650.66 1516.67 Q1655.12 1513.8 1655.12 1508.64 Q1655.12 1503.87 1651.87 1501.32 Q1648.69 1498.78 1637.8 1496.42 L1633.73 1495.47 Q1622.84 1493.18 1618 1488.47 Q1613.17 1483.69 1613.17 1475.42 Q1613.17 1465.36 1620.3 1459.88 Q1627.42 1454.41 1640.54 1454.41 Q1647.03 1454.41 1652.76 1455.36 Q1658.49 1456.32 1663.33 1458.23 Z" fill="#000000" fill-rule="nonzero" fill-opacity="1" /><polyline clip-path="url(#clip622)" style="stroke:#000000; stroke-linecap:round; stroke-linejoin:round; stroke-width:4; stroke-opacity:0.1; fill:none" points="680.45,1116.56 2305.51,1116.56 "/>
<polyline clip-path="url(#clip622)" style="stroke:#000000; stroke-linecap:round; stroke-linejoin:round; stroke-width:4; stroke-opacity:0.1; fill:none" points="680.45,908.303 2305.51,908.303 "/>
<polyline clip-path="url(#clip622)" style="stroke:#000000; stroke-linecap:round; stroke-linejoin:round; stroke-width:4; stroke-opacity:0.1; fill:none" points="680.45,700.047 2305.51,700.047 "/>
<polyline clip-path="url(#clip622)" style="stroke:#000000; stroke-linecap:round; stroke-linejoin:round; stroke-width:4; stroke-opacity:0.1; fill:none" points="680.45,491.79 2305.51,491.79 "/>
<polyline clip-path="url(#clip622)" style="stroke:#000000; stroke-linecap:round; stroke-linejoin:round; stroke-width:4; stroke-opacity:0.1; fill:none" points="680.45,283.533 2305.51,283.533 "/>
<polyline clip-path="url(#clip620)" style="stroke:#000000; stroke-linecap:round; stroke-linejoin:round; stroke-width:8; stroke-opacity:1; fill:none" points="680.45,1273.7 680.45,94.4882 "/>
<polyline clip-path="url(#clip620)" style="stroke:#000000; stroke-linecap:round; stroke-linejoin:round; stroke-width:8; stroke-opacity:1; fill:none" points="680.45,1116.56 699.348,1116.56 "/>
<polyline clip-path="url(#clip620)" style="stroke:#000000; stroke-linecap:round; stroke-linejoin:round; stroke-width:8; stroke-opacity:1; fill:none" points="680.45,908.303 699.348,908.303 "/>
<polyline clip-path="url(#clip620)" style="stroke:#000000; stroke-linecap:round; stroke-linejoin:round; stroke-width:8; stroke-opacity:1; fill:none" points="680.45,700.047 699.348,700.047 "/>
<polyline clip-path="url(#clip620)" style="stroke:#000000; stroke-linecap:round; stroke-linejoin:round; stroke-width:8; stroke-opacity:1; fill:none" points="680.45,491.79 699.348,491.79 "/>
<polyline clip-path="url(#clip620)" style="stroke:#000000; stroke-linecap:round; stroke-linejoin:round; stroke-width:8; stroke-opacity:1; fill:none" points="680.45,283.533 699.348,283.533 "/>
<path clip-path="url(#clip620)" d="M391.072 1143.25 L406.35 1143.25 L406.35 1090.52 L389.73 1093.85 L389.73 1085.33 L406.257 1082 L415.609 1082 L415.609 1143.25 L430.887 1143.25 L430.887 1151.12 L391.072 1151.12 L391.072 1143.25 Z" fill="#000000" fill-rule="nonzero" fill-opacity="1" /><path clip-path="url(#clip620)" d="M449.868 1082 L486.581 1082 L486.581 1089.87 L458.433 1089.87 L458.433 1106.81 Q460.47 1106.12 462.507 1105.8 Q464.544 1105.43 466.581 1105.43 Q478.155 1105.43 484.914 1111.77 Q491.673 1118.11 491.673 1128.94 Q491.673 1140.1 484.729 1146.31 Q477.785 1152.46 465.146 1152.46 Q460.794 1152.46 456.257 1151.72 Q451.766 1150.98 446.951 1149.5 L446.951 1140.1 Q451.118 1142.37 455.562 1143.48 Q460.007 1144.59 464.961 1144.59 Q472.97 1144.59 477.646 1140.38 Q482.322 1136.17 482.322 1128.94 Q482.322 1121.72 477.646 1117.51 Q472.97 1113.3 464.961 1113.3 Q461.211 1113.3 457.461 1114.13 Q453.757 1114.96 449.868 1116.72 L449.868 1082 Z" fill="#000000" fill-rule="nonzero" fill-opacity="1" /><path clip-path="url(#clip620)" d="M530.099 1088.16 Q522.877 1088.16 519.22 1095.29 Q515.608 1102.37 515.608 1116.63 Q515.608 1130.84 519.22 1137.97 Q522.877 1145.06 530.099 1145.06 Q537.368 1145.06 540.979 1137.97 Q544.636 1130.84 544.636 1116.63 Q544.636 1102.37 540.979 1095.29 Q537.368 1088.16 530.099 1088.16 M530.099 1080.75 Q541.719 1080.75 547.831 1089.96 Q553.988 1099.13 553.988 1116.63 Q553.988 1134.08 547.831 1143.3 Q541.719 1152.46 530.099 1152.46 Q518.479 1152.46 512.321 1143.3 Q506.21 1134.08 506.21 1116.63 Q506.21 1099.13 512.321 1089.96 Q518.479 1080.75 530.099 1080.75 Z" fill="#000000" fill-rule="nonzero" fill-opacity="1" /><path clip-path="url(#clip620)" d="M570.423 1139.36 L580.191 1139.36 L580.191 1151.12 L570.423 1151.12 L570.423 1139.36 Z" fill="#000000" fill-rule="nonzero" fill-opacity="1" /><path clip-path="url(#clip620)" d="M620.562 1088.16 Q613.339 1088.16 609.682 1095.29 Q606.071 1102.37 606.071 1116.63 Q606.071 1130.84 609.682 1137.97 Q613.339 1145.06 620.562 1145.06 Q627.83 1145.06 631.441 1137.97 Q635.099 1130.84 635.099 1116.63 Q635.099 1102.37 631.441 1095.29 Q627.83 1088.16 620.562 1088.16 M620.562 1080.75 Q632.182 1080.75 638.293 1089.96 Q644.45 1099.13 644.45 1116.63 Q644.45 1134.08 638.293 1143.3 Q632.182 1152.46 620.562 1152.46 Q608.941 1152.46 602.784 1143.3 Q596.673 1134.08 596.673 1116.63 Q596.673 1099.13 602.784 1089.96 Q608.941 1080.75 620.562 1080.75 Z" fill="#000000" fill-rule="nonzero" fill-opacity="1" /><path clip-path="url(#clip620)" d="M391.072 934.993 L406.35 934.993 L406.35 882.262 L389.73 885.595 L389.73 877.077 L406.257 873.743 L415.609 873.743 L415.609 934.993 L430.887 934.993 L430.887 942.863 L391.072 942.863 L391.072 934.993 Z" fill="#000000" fill-rule="nonzero" fill-opacity="1" /><path clip-path="url(#clip620)" d="M469.775 910.039 Q463.109 910.039 459.266 913.604 Q455.47 917.169 455.47 923.419 Q455.47 929.669 459.266 933.234 Q463.109 936.799 469.775 936.799 Q476.442 936.799 480.285 933.234 Q484.127 929.623 484.127 923.419 Q484.127 917.169 480.285 913.604 Q476.488 910.039 469.775 910.039 M460.424 906.058 Q454.405 904.577 451.025 900.456 Q447.692 896.336 447.692 890.41 Q447.692 882.123 453.572 877.308 Q459.498 872.493 469.775 872.493 Q480.099 872.493 485.979 877.308 Q491.859 882.123 491.859 890.41 Q491.859 896.336 488.479 900.456 Q485.146 904.577 479.173 906.058 Q485.933 907.632 489.683 912.215 Q493.479 916.799 493.479 923.419 Q493.479 933.465 487.322 938.836 Q481.211 944.206 469.775 944.206 Q458.34 944.206 452.183 938.836 Q446.072 933.465 446.072 923.419 Q446.072 916.799 449.868 912.215 Q453.664 907.632 460.424 906.058 M456.998 891.29 Q456.998 896.66 460.331 899.669 Q463.711 902.678 469.775 902.678 Q475.794 902.678 479.173 899.669 Q482.599 896.66 482.599 891.29 Q482.599 885.919 479.173 882.91 Q475.794 879.901 469.775 879.901 Q463.711 879.901 460.331 882.91 Q456.998 885.919 456.998 891.29 Z" fill="#000000" fill-rule="nonzero" fill-opacity="1" /><path clip-path="url(#clip620)" d="M530.099 879.901 Q522.877 879.901 519.22 887.03 Q515.608 894.114 515.608 908.373 Q515.608 922.586 519.22 929.715 Q522.877 936.799 530.099 936.799 Q537.368 936.799 540.979 929.715 Q544.636 922.586 544.636 908.373 Q544.636 894.114 540.979 887.03 Q537.368 879.901 530.099 879.901 M530.099 872.493 Q541.719 872.493 547.831 881.706 Q553.988 890.873 553.988 908.373 Q553.988 925.826 547.831 935.039 Q541.719 944.206 530.099 944.206 Q518.479 944.206 512.321 935.039 Q506.21 925.826 506.21 908.373 Q506.21 890.873 512.321 881.706 Q518.479 872.493 530.099 872.493 Z" fill="#000000" fill-rule="nonzero" fill-opacity="1" /><path clip-path="url(#clip620)" d="M570.423 931.104 L580.191 931.104 L580.191 942.863 L570.423 942.863 L570.423 931.104 Z" fill="#000000" fill-rule="nonzero" fill-opacity="1" /><path clip-path="url(#clip620)" d="M620.562 879.901 Q613.339 879.901 609.682 887.03 Q606.071 894.114 606.071 908.373 Q606.071 922.586 609.682 929.715 Q613.339 936.799 620.562 936.799 Q627.83 936.799 631.441 929.715 Q635.099 922.586 635.099 908.373 Q635.099 894.114 631.441 887.03 Q627.83 879.901 620.562 879.901 M620.562 872.493 Q632.182 872.493 638.293 881.706 Q644.45 890.873 644.45 908.373 Q644.45 925.826 638.293 935.039 Q632.182 944.206 620.562 944.206 Q608.941 944.206 602.784 935.039 Q596.673 925.826 596.673 908.373 Q596.673 890.873 602.784 881.706 Q608.941 872.493 620.562 872.493 Z" fill="#000000" fill-rule="nonzero" fill-opacity="1" /><path clip-path="url(#clip620)" d="M397.507 726.736 L430.146 726.736 L430.146 734.607 L386.257 734.607 L386.257 726.736 Q391.581 721.227 400.748 711.968 Q409.961 702.662 412.322 699.977 Q416.813 694.931 418.572 691.459 Q420.378 687.94 420.378 684.561 Q420.378 679.051 416.489 675.579 Q412.646 672.107 406.442 672.107 Q402.044 672.107 397.137 673.635 Q392.276 675.163 386.72 678.264 L386.72 668.82 Q392.368 666.552 397.276 665.394 Q402.183 664.237 406.257 664.237 Q416.998 664.237 423.387 669.607 Q429.776 674.977 429.776 683.959 Q429.776 688.218 428.155 692.061 Q426.581 695.857 422.368 701.042 Q421.211 702.385 415.007 708.82 Q408.803 715.209 397.507 726.736 Z" fill="#000000" fill-rule="nonzero" fill-opacity="1" /><path clip-path="url(#clip620)" d="M451.396 726.736 L466.674 726.736 L466.674 674.005 L450.053 677.339 L450.053 668.82 L466.581 665.487 L475.933 665.487 L475.933 726.736 L491.21 726.736 L491.21 734.607 L451.396 734.607 L451.396 726.736 Z" fill="#000000" fill-rule="nonzero" fill-opacity="1" /><path clip-path="url(#clip620)" d="M530.099 671.644 Q522.877 671.644 519.22 678.774 Q515.608 685.857 515.608 700.116 Q515.608 714.329 519.22 721.459 Q522.877 728.542 530.099 728.542 Q537.368 728.542 540.979 721.459 Q544.636 714.329 544.636 700.116 Q544.636 685.857 540.979 678.774 Q537.368 671.644 530.099 671.644 M530.099 664.237 Q541.719 664.237 547.831 673.45 Q553.988 682.616 553.988 700.116 Q553.988 717.57 547.831 726.783 Q541.719 735.949 530.099 735.949 Q518.479 735.949 512.321 726.783 Q506.21 717.57 506.21 700.116 Q506.21 682.616 512.321 673.45 Q518.479 664.237 530.099 664.237 Z" fill="#000000" fill-rule="nonzero" fill-opacity="1" /><path clip-path="url(#clip620)" d="M570.423 722.848 L580.191 722.848 L580.191 734.607 L570.423 734.607 L570.423 722.848 Z" fill="#000000" fill-rule="nonzero" fill-opacity="1" /><path clip-path="url(#clip620)" d="M620.562 671.644 Q613.339 671.644 609.682 678.774 Q606.071 685.857 606.071 700.116 Q606.071 714.329 609.682 721.459 Q613.339 728.542 620.562 728.542 Q627.83 728.542 631.441 721.459 Q635.099 714.329 635.099 700.116 Q635.099 685.857 631.441 678.774 Q627.83 671.644 620.562 671.644 M620.562 664.237 Q632.182 664.237 638.293 673.45 Q644.45 682.616 644.45 700.116 Q644.45 717.57 638.293 726.783 Q632.182 735.949 620.562 735.949 Q608.941 735.949 602.784 726.783 Q596.673 717.57 596.673 700.116 Q596.673 682.616 602.784 673.45 Q608.941 664.237 620.562 664.237 Z" fill="#000000" fill-rule="nonzero" fill-opacity="1" /><path clip-path="url(#clip620)" d="M397.507 518.48 L430.146 518.48 L430.146 526.35 L386.257 526.35 L386.257 518.48 Q391.581 512.97 400.748 503.711 Q409.961 494.406 412.322 491.721 Q416.813 486.674 418.572 483.202 Q420.378 479.684 420.378 476.304 Q420.378 470.795 416.489 467.323 Q412.646 463.85 406.442 463.85 Q402.044 463.85 397.137 465.378 Q392.276 466.906 386.72 470.008 L386.72 460.563 Q392.368 458.295 397.276 457.137 Q402.183 455.98 406.257 455.98 Q416.998 455.98 423.387 461.35 Q429.776 466.721 429.776 475.702 Q429.776 479.961 428.155 483.804 Q426.581 487.6 422.368 492.785 Q421.211 494.128 415.007 500.563 Q408.803 506.952 397.507 518.48 Z" fill="#000000" fill-rule="nonzero" fill-opacity="1" /><path clip-path="url(#clip620)" d="M475.47 465.378 L451.859 502.276 L475.47 502.276 L475.47 465.378 M473.016 457.23 L484.775 457.23 L484.775 502.276 L494.636 502.276 L494.636 510.054 L484.775 510.054 L484.775 526.35 L475.47 526.35 L475.47 510.054 L444.266 510.054 L444.266 501.026 L473.016 457.23 Z" fill="#000000" fill-rule="nonzero" fill-opacity="1" /><path clip-path="url(#clip620)" d="M530.099 463.387 Q522.877 463.387 519.22 470.517 Q515.608 477.6 515.608 491.859 Q515.608 506.072 519.22 513.202 Q522.877 520.285 530.099 520.285 Q537.368 520.285 540.979 513.202 Q544.636 506.072 544.636 491.859 Q544.636 477.6 540.979 470.517 Q537.368 463.387 530.099 463.387 M530.099 455.98 Q541.719 455.98 547.831 465.193 Q553.988 474.36 553.988 491.859 Q553.988 509.313 547.831 518.526 Q541.719 527.693 530.099 527.693 Q518.479 527.693 512.321 518.526 Q506.21 509.313 506.21 491.859 Q506.21 474.36 512.321 465.193 Q518.479 455.98 530.099 455.98 Z" fill="#000000" fill-rule="nonzero" fill-opacity="1" /><path clip-path="url(#clip620)" d="M570.423 514.591 L580.191 514.591 L580.191 526.35 L570.423 526.35 L570.423 514.591 Z" fill="#000000" fill-rule="nonzero" fill-opacity="1" /><path clip-path="url(#clip620)" d="M620.562 463.387 Q613.339 463.387 609.682 470.517 Q606.071 477.6 606.071 491.859 Q606.071 506.072 609.682 513.202 Q613.339 520.285 620.562 520.285 Q627.83 520.285 631.441 513.202 Q635.099 506.072 635.099 491.859 Q635.099 477.6 631.441 470.517 Q627.83 463.387 620.562 463.387 M620.562 455.98 Q632.182 455.98 638.293 465.193 Q644.45 474.36 644.45 491.859 Q644.45 509.313 638.293 518.526 Q632.182 527.693 620.562 527.693 Q608.941 527.693 602.784 518.526 Q596.673 509.313 596.673 491.859 Q596.673 474.36 602.784 465.193 Q608.941 455.98 620.562 455.98 Z" fill="#000000" fill-rule="nonzero" fill-opacity="1" /><path clip-path="url(#clip620)" d="M397.507 310.223 L430.146 310.223 L430.146 318.093 L386.257 318.093 L386.257 310.223 Q391.581 304.714 400.748 295.455 Q409.961 286.149 412.322 283.464 Q416.813 278.418 418.572 274.945 Q420.378 271.427 420.378 268.047 Q420.378 262.538 416.489 259.066 Q412.646 255.594 406.442 255.594 Q402.044 255.594 397.137 257.121 Q392.276 258.649 386.72 261.751 L386.72 252.307 Q392.368 250.038 397.276 248.881 Q402.183 247.723 406.257 247.723 Q416.998 247.723 423.387 253.094 Q429.776 258.464 429.776 267.445 Q429.776 271.705 428.155 275.547 Q426.581 279.344 422.368 284.529 Q421.211 285.871 415.007 292.306 Q408.803 298.695 397.507 310.223 Z" fill="#000000" fill-rule="nonzero" fill-opacity="1" /><path clip-path="url(#clip620)" d="M447.414 248.973 L491.859 248.973 L491.859 252.955 L466.766 318.093 L456.998 318.093 L480.609 256.844 L447.414 256.844 L447.414 248.973 Z" fill="#000000" fill-rule="nonzero" fill-opacity="1" /><path clip-path="url(#clip620)" d="M530.099 255.131 Q522.877 255.131 519.22 262.26 Q515.608 269.344 515.608 283.603 Q515.608 297.816 519.22 304.945 Q522.877 312.029 530.099 312.029 Q537.368 312.029 540.979 304.945 Q544.636 297.816 544.636 283.603 Q544.636 269.344 540.979 262.26 Q537.368 255.131 530.099 255.131 M530.099 247.723 Q541.719 247.723 547.831 256.936 Q553.988 266.103 553.988 283.603 Q553.988 301.056 547.831 310.269 Q541.719 319.436 530.099 319.436 Q518.479 319.436 512.321 310.269 Q506.21 301.056 506.21 283.603 Q506.21 266.103 512.321 256.936 Q518.479 247.723 530.099 247.723 Z" fill="#000000" fill-rule="nonzero" fill-opacity="1" /><path clip-path="url(#clip620)" d="M570.423 306.334 L580.191 306.334 L580.191 318.093 L570.423 318.093 L570.423 306.334 Z" fill="#000000" fill-rule="nonzero" fill-opacity="1" /><path clip-path="url(#clip620)" d="M620.562 255.131 Q613.339 255.131 609.682 262.26 Q606.071 269.344 606.071 283.603 Q606.071 297.816 609.682 304.945 Q613.339 312.029 620.562 312.029 Q627.83 312.029 631.441 304.945 Q635.099 297.816 635.099 283.603 Q635.099 269.344 631.441 262.26 Q627.83 255.131 620.562 255.131 M620.562 247.723 Q632.182 247.723 638.293 256.936 Q644.45 266.103 644.45 283.603 Q644.45 301.056 638.293 310.269 Q632.182 319.436 620.562 319.436 Q608.941 319.436 602.784 310.269 Q596.673 301.056 596.673 283.603 Q596.673 266.103 602.784 256.936 Q608.941 247.723 620.562 247.723 Z" fill="#000000" fill-rule="nonzero" fill-opacity="1" /><path clip-path="url(#clip620)" d="M253.187 1099.45 L264.136 1099.45 Q261.398 1104.42 260.062 1109.45 Q258.661 1114.41 258.661 1119.51 Q258.661 1130.9 265.918 1137.2 Q273.111 1143.51 286.161 1143.51 Q299.211 1143.51 306.468 1137.2 Q313.661 1130.9 313.661 1119.51 Q313.661 1114.41 312.324 1109.45 Q310.924 1104.42 308.186 1099.45 L319.008 1099.45 Q321.3 1104.36 322.446 1109.64 Q323.591 1114.86 323.591 1120.78 Q323.591 1136.88 313.47 1146.37 Q303.348 1155.85 286.161 1155.85 Q268.719 1155.85 258.725 1146.31 Q248.731 1136.69 248.731 1120.02 Q248.731 1114.6 249.876 1109.45 Q250.959 1104.29 253.187 1099.45 Z" fill="#000000" fill-rule="nonzero" fill-opacity="1" /><path clip-path="url(#clip620)" d="M258.661 1051.46 Q258.661 1060.88 266.045 1066.35 Q273.366 1071.83 286.161 1071.83 Q298.956 1071.83 306.34 1066.42 Q313.661 1060.94 313.661 1051.46 Q313.661 1042.1 306.277 1036.62 Q298.892 1031.15 286.161 1031.15 Q273.493 1031.15 266.109 1036.62 Q258.661 1042.1 258.661 1051.46 M248.731 1051.46 Q248.731 1036.18 258.661 1027.46 Q268.592 1018.74 286.161 1018.74 Q303.667 1018.74 313.661 1027.46 Q323.591 1036.18 323.591 1051.46 Q323.591 1066.8 313.661 1075.52 Q303.667 1084.18 286.161 1084.18 Q268.592 1084.18 258.661 1075.52 Q248.731 1066.8 248.731 1051.46 Z" fill="#000000" fill-rule="nonzero" fill-opacity="1" /><path clip-path="url(#clip620)" d="M278.713 940.057 L321.745 940.057 L321.745 951.77 L279.095 951.77 Q268.974 951.77 263.945 955.717 Q258.916 959.663 258.916 967.557 Q258.916 977.042 264.963 982.516 Q271.011 987.991 281.45 987.991 L321.745 987.991 L321.745 999.767 L250.449 999.767 L250.449 987.991 L261.526 987.991 Q255.096 983.789 251.914 978.124 Q248.731 972.395 248.731 964.947 Q248.731 952.661 256.37 946.359 Q263.945 940.057 278.713 940.057 Z" fill="#000000" fill-rule="nonzero" fill-opacity="1" /><path clip-path="url(#clip620)" d="M253.187 865.387 L264.136 865.387 Q261.398 870.353 260.062 875.381 Q258.661 880.347 258.661 885.439 Q258.661 896.834 265.918 903.136 Q273.111 909.438 286.161 909.438 Q299.211 909.438 306.468 903.136 Q313.661 896.834 313.661 885.439 Q313.661 880.347 312.324 875.381 Q310.924 870.353 308.186 865.387 L319.008 865.387 Q321.3 870.289 322.446 875.572 Q323.591 880.792 323.591 886.712 Q323.591 902.818 313.47 912.303 Q303.348 921.787 286.161 921.787 Q268.719 921.787 258.725 912.239 Q248.731 902.627 248.731 885.949 Q248.731 880.538 249.876 875.381 Q250.959 870.225 253.187 865.387 Z" fill="#000000" fill-rule="nonzero" fill-opacity="1" /><path clip-path="url(#clip620)" d="M305.576 843.362 L305.576 829.93 L321.745 829.93 L321.745 843.362 L305.576 843.362 Z" fill="#000000" fill-rule="nonzero" fill-opacity="1" /><path clip-path="url(#clip620)" d="M250.449 770.538 L250.449 758.125 L310.287 735.845 L250.449 713.565 L250.449 701.152 L321.745 727.888 L321.745 743.802 L250.449 770.538 Z" fill="#000000" fill-rule="nonzero" fill-opacity="1" /><path clip-path="url(#clip620)" d="M283.169 624 L288.898 624 L288.898 677.854 Q300.993 677.09 307.359 670.597 Q313.661 664.04 313.661 652.391 Q313.661 645.643 312.006 639.341 Q310.351 632.975 307.041 626.737 L318.117 626.737 Q320.79 633.039 322.191 639.659 Q323.591 646.28 323.591 653.091 Q323.591 670.151 313.661 680.145 Q303.73 690.076 286.798 690.076 Q269.292 690.076 259.043 680.654 Q248.731 671.17 248.731 655.128 Q248.731 640.742 258.025 632.402 Q267.255 624 283.169 624 M279.732 635.713 Q270.119 635.84 264.39 641.123 Q258.661 646.343 258.661 655.001 Q258.661 664.804 264.199 670.724 Q269.737 676.58 279.795 677.472 L279.732 635.713 Z" fill="#000000" fill-rule="nonzero" fill-opacity="1" /><path clip-path="url(#clip620)" d="M278.713 545.511 L321.745 545.511 L321.745 557.223 L279.095 557.223 Q268.974 557.223 263.945 561.17 Q258.916 565.117 258.916 573.01 Q258.916 582.495 264.963 587.97 Q271.011 593.444 281.45 593.444 L321.745 593.444 L321.745 605.221 L250.449 605.221 L250.449 593.444 L261.526 593.444 Q255.096 589.243 251.914 583.577 Q248.731 577.848 248.731 570.4 Q248.731 558.115 256.37 551.813 Q263.945 545.511 278.713 545.511 Z" fill="#000000" fill-rule="nonzero" fill-opacity="1" /><path clip-path="url(#clip620)" d="M230.206 510.563 L250.449 510.563 L250.449 486.437 L259.552 486.437 L259.552 510.563 L298.256 510.563 Q306.977 510.563 309.459 508.207 Q311.942 505.789 311.942 498.468 L311.942 486.437 L321.745 486.437 L321.745 498.468 Q321.745 512.027 316.716 517.183 Q311.624 522.339 298.256 522.339 L259.552 522.339 L259.552 530.933 L250.449 530.933 L250.449 522.339 L230.206 522.339 L230.206 510.563 Z" fill="#000000" fill-rule="nonzero" fill-opacity="1" /><path clip-path="url(#clip620)" d="M261.398 429.718 Q260.253 431.692 259.743 434.047 Q259.17 436.339 259.17 439.14 Q259.17 449.07 265.663 454.417 Q272.093 459.701 284.188 459.701 L321.745 459.701 L321.745 471.477 L250.449 471.477 L250.449 459.701 L261.526 459.701 Q255.033 456.009 251.914 450.089 Q248.731 444.168 248.731 435.702 Q248.731 434.493 248.922 433.028 Q249.049 431.564 249.367 429.782 L261.398 429.718 Z" fill="#000000" fill-rule="nonzero" fill-opacity="1" /><path clip-path="url(#clip620)" d="M250.449 417.433 L250.449 405.72 L321.745 405.72 L321.745 417.433 L250.449 417.433 M222.695 417.433 L222.695 405.72 L237.527 405.72 L237.527 417.433 L222.695 417.433 Z" fill="#000000" fill-rule="nonzero" fill-opacity="1" /><path clip-path="url(#clip620)" d="M253.187 329.904 L264.136 329.904 Q261.398 334.869 260.062 339.898 Q258.661 344.863 258.661 349.956 Q258.661 361.351 265.918 367.653 Q273.111 373.955 286.161 373.955 Q299.211 373.955 306.468 367.653 Q313.661 361.351 313.661 349.956 Q313.661 344.863 312.324 339.898 Q310.924 334.869 308.186 329.904 L319.008 329.904 Q321.3 334.806 322.446 340.089 Q323.591 345.309 323.591 351.229 Q323.591 367.334 313.47 376.819 Q303.348 386.304 286.161 386.304 Q268.719 386.304 258.725 376.756 Q248.731 367.143 248.731 350.465 Q248.731 345.054 249.876 339.898 Q250.959 334.742 253.187 329.904 Z" fill="#000000" fill-rule="nonzero" fill-opacity="1" /><path clip-path="url(#clip620)" d="M222.695 309.534 L222.695 297.821 L321.745 297.821 L321.745 309.534 L222.695 309.534 Z" fill="#000000" fill-rule="nonzero" fill-opacity="1" /><path clip-path="url(#clip620)" d="M283.169 212.329 L288.898 212.329 L288.898 266.183 Q300.993 265.419 307.359 258.926 Q313.661 252.37 313.661 240.721 Q313.661 233.973 312.006 227.671 Q310.351 221.305 307.041 215.067 L318.117 215.067 Q320.79 221.369 322.191 227.989 Q323.591 234.609 323.591 241.421 Q323.591 258.481 313.661 268.475 Q303.73 278.405 286.798 278.405 Q269.292 278.405 259.043 268.984 Q248.731 259.499 248.731 243.458 Q248.731 229.071 258.025 220.732 Q267.255 212.329 283.169 212.329 M279.732 224.042 Q270.119 224.17 264.39 229.453 Q258.661 234.673 258.661 243.33 Q258.661 253.134 264.199 259.054 Q269.737 264.91 279.795 265.801 L279.732 224.042 Z" fill="#000000" fill-rule="nonzero" fill-opacity="1" /><polyline clip-path="url(#clip622)" style="stroke:#008000; stroke-linecap:round; stroke-linejoin:round; stroke-width:8; stroke-opacity:1; fill:none" points="726.443,338.703 835.948,274.733 945.454,242.364 1054.96,127.862 1164.46,172.816 1273.97,328.542 1383.48,302.433 1492.98,386.158 1602.49,493.283 1711.99,557.547 1821.5,441.709 1931,661.111 2040.51,664.823 2150.01,674.407 2259.52,700.222 "/>
<circle clip-path="url(#clip622)" cx="726.443" cy="338.703" r="14.4" fill="#008000" fill-rule="evenodd" fill-opacity="1" stroke="#000000" stroke-opacity="1" stroke-width="6.4"/>
<circle clip-path="url(#clip622)" cx="835.948" cy="274.733" r="14.4" fill="#008000" fill-rule="evenodd" fill-opacity="1" stroke="#000000" stroke-opacity="1" stroke-width="6.4"/>
<circle clip-path="url(#clip622)" cx="945.454" cy="242.364" r="14.4" fill="#008000" fill-rule="evenodd" fill-opacity="1" stroke="#000000" stroke-opacity="1" stroke-width="6.4"/>
<circle clip-path="url(#clip622)" cx="1054.96" cy="127.862" r="14.4" fill="#008000" fill-rule="evenodd" fill-opacity="1" stroke="#000000" stroke-opacity="1" stroke-width="6.4"/>
<circle clip-path="url(#clip622)" cx="1164.46" cy="172.816" r="14.4" fill="#008000" fill-rule="evenodd" fill-opacity="1" stroke="#000000" stroke-opacity="1" stroke-width="6.4"/>
<circle clip-path="url(#clip622)" cx="1273.97" cy="328.542" r="14.4" fill="#008000" fill-rule="evenodd" fill-opacity="1" stroke="#000000" stroke-opacity="1" stroke-width="6.4"/>
<circle clip-path="url(#clip622)" cx="1383.48" cy="302.433" r="14.4" fill="#008000" fill-rule="evenodd" fill-opacity="1" stroke="#000000" stroke-opacity="1" stroke-width="6.4"/>
<circle clip-path="url(#clip622)" cx="1492.98" cy="386.158" r="14.4" fill="#008000" fill-rule="evenodd" fill-opacity="1" stroke="#000000" stroke-opacity="1" stroke-width="6.4"/>
<circle clip-path="url(#clip622)" cx="1602.49" cy="493.283" r="14.4" fill="#008000" fill-rule="evenodd" fill-opacity="1" stroke="#000000" stroke-opacity="1" stroke-width="6.4"/>
<circle clip-path="url(#clip622)" cx="1711.99" cy="557.547" r="14.4" fill="#008000" fill-rule="evenodd" fill-opacity="1" stroke="#000000" stroke-opacity="1" stroke-width="6.4"/>
<circle clip-path="url(#clip622)" cx="1821.5" cy="441.709" r="14.4" fill="#008000" fill-rule="evenodd" fill-opacity="1" stroke="#000000" stroke-opacity="1" stroke-width="6.4"/>
<circle clip-path="url(#clip622)" cx="1931" cy="661.111" r="14.4" fill="#008000" fill-rule="evenodd" fill-opacity="1" stroke="#000000" stroke-opacity="1" stroke-width="6.4"/>
<circle clip-path="url(#clip622)" cx="2040.51" cy="664.823" r="14.4" fill="#008000" fill-rule="evenodd" fill-opacity="1" stroke="#000000" stroke-opacity="1" stroke-width="6.4"/>
<circle clip-path="url(#clip622)" cx="2150.01" cy="674.407" r="14.4" fill="#008000" fill-rule="evenodd" fill-opacity="1" stroke="#000000" stroke-opacity="1" stroke-width="6.4"/>
<circle clip-path="url(#clip622)" cx="2259.52" cy="700.222" r="14.4" fill="#008000" fill-rule="evenodd" fill-opacity="1" stroke="#000000" stroke-opacity="1" stroke-width="6.4"/>
<polyline clip-path="url(#clip622)" style="stroke:#00008b; stroke-linecap:round; stroke-linejoin:round; stroke-width:8; stroke-opacity:1; fill:none" points="726.443,337.259 835.948,444.262 945.454,489.691 1054.96,571.12 1164.46,638.67 1273.97,688.005 1383.48,744.026 1492.98,793.769 1602.49,834.967 1711.99,875.452 1821.5,918.146 1931,973.447 2040.51,983.41 2150.01,1027.09 2259.52,1061.22 "/>
<path clip-path="url(#clip622)" d="M726.443 510.615 L835.948 622.947 L945.454 656.264 L1054.96 744.72 L1164.46 820.096 L1273.97 858.076 L1383.48 919.937 L1492.98 972.093 L1602.49 1005.97 L1711.99 1056.06 L1821.5 1095.19 L1931 1147.2 L2040.51 1152.07 L2150.01 1208.59 L2259.52 1240.32 L2259.52 883.13 L2150.01 846.605 L2040.51 811.548 L1931 796.523 L1821.5 733.037 L1711.99 699.461 L1602.49 666.527 L1492.98 616.246 L1383.48 573.023 L1273.97 509.86 L1164.46 457.776 L1054.96 388.481 L945.454 322.807 L835.948 269.671 L726.443 160.149  Z" fill="#0000ff" fill-rule="evenodd" fill-opacity="0.1"/>
<polyline clip-path="url(#clip622)" style="stroke:#0000ff; stroke-linecap:round; stroke-linejoin:round; stroke-width:0; stroke-opacity:0.1; fill:none" points="726.443,510.615 835.948,622.947 945.454,656.264 1054.96,744.72 1164.46,820.096 1273.97,858.076 1383.48,919.937 1492.98,972.093 1602.49,1005.97 1711.99,1056.06 1821.5,1095.19 1931,1147.2 2040.51,1152.07 2150.01,1208.59 2259.52,1240.32 "/>
</svg>
