<?xml version="1.0" encoding="utf-8"?>
<svg xmlns="http://www.w3.org/2000/svg" xmlns:xlink="http://www.w3.org/1999/xlink" width="600" height="400" viewBox="0 0 2400 1600">
<defs>
  <clipPath id="clip240">
    <rect x="0" y="0" width="2400" height="1600"/>
  </clipPath>
</defs>
<path clip-path="url(#clip240)" d="M0 1600 L2400 1600 L2400 0 L0 0  Z" fill="#ffffff" fill-rule="evenodd" fill-opacity="1"/>
<defs>
  <clipPath id="clip241">
    <rect x="480" y="0" width="1681" height="1600"/>
  </clipPath>
</defs>
<path clip-path="url(#clip240)" d="M673.506 1273.7 L2305.51 1273.7 L2305.51 94.4882 L673.506 94.4882  Z" fill="#ffffff" fill-rule="evenodd" fill-opacity="1"/>
<defs>
  <clipPath id="clip242">
    <rect x="673" y="94" width="1633" height="1180"/>
  </clipPath>
</defs>
<polyline clip-path="url(#clip242)" style="stroke:#000000; stroke-linecap:round; stroke-linejoin:round; stroke-width:4; stroke-opacity:0.1; fill:none" points="719.695,1273.7 719.695,94.4882 "/>
<polyline clip-path="url(#clip242)" style="stroke:#000000; stroke-linecap:round; stroke-linejoin:round; stroke-width:4; stroke-opacity:0.1; fill:none" points="994.628,1273.7 994.628,94.4882 "/>
<polyline clip-path="url(#clip242)" style="stroke:#000000; stroke-linecap:round; stroke-linejoin:round; stroke-width:4; stroke-opacity:0.1; fill:none" points="1269.56,1273.7 1269.56,94.4882 "/>
<polyline clip-path="url(#clip242)" style="stroke:#000000; stroke-linecap:round; stroke-linejoin:round; stroke-width:4; stroke-opacity:0.1; fill:none" points="1544.5,1273.7 1544.5,94.4882 "/>
<polyline clip-path="url(#clip242)" style="stroke:#000000; stroke-linecap:round; stroke-linejoin:round; stroke-width:4; stroke-opacity:0.1; fill:none" points="1819.43,1273.7 1819.43,94.4882 "/>
<polyline clip-path="url(#clip242)" style="stroke:#000000; stroke-linecap:round; stroke-linejoin:round; stroke-width:4; stroke-opacity:0.1; fill:none" points="2094.36,1273.7 2094.36,94.4882 "/>
<polyline clip-path="url(#clip240)" style="stroke:#000000; stroke-linecap:round; stroke-linejoin:round; stroke-width:8; stroke-opacity:1; fill:none" points="673.506,1273.7 2305.51,1273.7 "/>
<polyline clip-path="url(#clip240)" style="stroke:#000000; stroke-linecap:round; stroke-linejoin:round; stroke-width:8; stroke-opacity:1; fill:none" points="719.695,1273.7 719.695,1254.8 "/>
<polyline clip-path="url(#clip240)" style="stroke:#000000; stroke-linecap:round; stroke-linejoin:round; stroke-width:8; stroke-opacity:1; fill:none" points="994.628,1273.7 994.628,1254.8 "/>
<polyline clip-path="url(#clip240)" style="stroke:#000000; stroke-linecap:round; stroke-linejoin:round; stroke-width:8; stroke-opacity:1; fill:none" points="1269.56,1273.7 1269.56,1254.8 "/>
<polyline clip-path="url(#clip240)" style="stroke:#000000; stroke-linecap:round; stroke-linejoin:round; stroke-width:8; stroke-opacity:1; fill:none" points="1544.5,1273.7 1544.5,1254.8 "/>
<polyline clip-path="url(#clip240)" style="stroke:#000000; stroke-linecap:round; stroke-linejoin:round; stroke-width:8; stroke-opacity:1; fill:none" points="1819.43,1273.7 1819.43,1254.8 "/>
<polyline clip-path="url(#clip240)" style="stroke:#000000; stroke-linecap:round; stroke-linejoin:round; stroke-width:8; stroke-opacity:1; fill:none" points="2094.36,1273.7 2094.36,1254.8 "/>
<path clip-path="url(#clip240)" d="M644.302 1316.33 Q637.08 1316.33 633.422 1323.46 Q629.811 1330.55 629.811 1344.81 Q629.811 1359.02 633.422 1366.15 Q637.08 1373.23 644.302 1373.23 Q651.57 1373.23 655.181 1366.15 Q658.839 1359.02 658.839 1344.81 Q658.839 1330.55 655.181 1323.46 Q651.57 1316.33 644.302 1316.33 M644.302 1308.93 Q655.922 1308.93 662.033 1318.14 Q668.19 1327.31 668.19 1344.81 Q668.19 1362.26 662.033 1371.47 Q655.922 1380.64 644.302 1380.64 Q632.681 1380.64 626.524 1371.47 Q620.413 1362.26 620.413 1344.81 Q620.413 1327.31 626.524 1318.14 Q632.681 1308.93 644.302 1308.93 Z" fill="#000000" fill-rule="nonzero" fill-opacity="1" /><path clip-path="url(#clip240)" d="M684.626 1367.54 L694.394 1367.54 L694.394 1379.3 L684.626 1379.3 L684.626 1367.54 Z" fill="#000000" fill-rule="nonzero" fill-opacity="1" /><path clip-path="url(#clip240)" d="M734.764 1316.33 Q727.542 1316.33 723.885 1323.46 Q720.274 1330.55 720.274 1344.81 Q720.274 1359.02 723.885 1366.15 Q727.542 1373.23 734.764 1373.23 Q742.033 1373.23 745.644 1366.15 Q749.301 1359.02 749.301 1344.81 Q749.301 1330.55 745.644 1323.46 Q742.033 1316.33 734.764 1316.33 M734.764 1308.93 Q746.384 1308.93 752.496 1318.14 Q758.653 1327.31 758.653 1344.81 Q758.653 1362.26 752.496 1371.47 Q746.384 1380.64 734.764 1380.64 Q723.144 1380.64 716.986 1371.47 Q710.875 1362.26 710.875 1344.81 Q710.875 1327.31 716.986 1318.14 Q723.144 1308.93 734.764 1308.93 Z" fill="#000000" fill-rule="nonzero" fill-opacity="1" /><path clip-path="url(#clip240)" d="M795.088 1316.33 Q787.866 1316.33 784.208 1323.46 Q780.597 1330.55 780.597 1344.81 Q780.597 1359.02 784.208 1366.15 Q787.866 1373.23 795.088 1373.23 Q802.356 1373.23 805.967 1366.15 Q809.625 1359.02 809.625 1344.81 Q809.625 1330.55 805.967 1323.46 Q802.356 1316.33 795.088 1316.33 M795.088 1308.93 Q806.708 1308.93 812.819 1318.14 Q818.977 1327.31 818.977 1344.81 Q818.977 1362.26 812.819 1371.47 Q806.708 1380.64 795.088 1380.64 Q783.468 1380.64 777.31 1371.47 Q771.199 1362.26 771.199 1344.81 Q771.199 1327.31 777.31 1318.14 Q783.468 1308.93 795.088 1308.93 Z" fill="#000000" fill-rule="nonzero" fill-opacity="1" /><path clip-path="url(#clip240)" d="M920.231 1316.33 Q913.008 1316.33 909.351 1323.46 Q905.74 1330.55 905.74 1344.81 Q905.74 1359.02 909.351 1366.15 Q913.008 1373.23 920.231 1373.23 Q927.499 1373.23 931.11 1366.15 Q934.768 1359.02 934.768 1344.81 Q934.768 1330.55 931.11 1323.46 Q927.499 1316.33 920.231 1316.33 M920.231 1308.93 Q931.851 1308.93 937.962 1318.14 Q944.119 1327.31 944.119 1344.81 Q944.119 1362.26 937.962 1371.47 Q931.851 1380.64 920.231 1380.64 Q908.61 1380.64 902.453 1371.47 Q896.342 1362.26 896.342 1344.81 Q896.342 1327.31 902.453 1318.14 Q908.61 1308.93 920.231 1308.93 Z" fill="#000000" fill-rule="nonzero" fill-opacity="1" /><path clip-path="url(#clip240)" d="M960.555 1367.54 L970.323 1367.54 L970.323 1379.3 L960.555 1379.3 L960.555 1367.54 Z" fill="#000000" fill-rule="nonzero" fill-opacity="1" /><path clip-path="url(#clip240)" d="M998.749 1371.43 L1031.39 1371.43 L1031.39 1379.3 L987.499 1379.3 L987.499 1371.43 Q992.823 1365.92 1001.99 1356.66 Q1011.2 1347.35 1013.56 1344.67 Q1018.05 1339.62 1019.81 1336.15 Q1021.62 1332.63 1021.62 1329.25 Q1021.62 1323.74 1017.73 1320.27 Q1013.89 1316.8 1007.68 1316.8 Q1003.29 1316.8 998.378 1318.32 Q993.517 1319.85 987.962 1322.95 L987.962 1313.51 Q993.61 1311.24 998.517 1310.08 Q1003.42 1308.93 1007.5 1308.93 Q1018.24 1308.93 1024.63 1314.3 Q1031.02 1319.67 1031.02 1328.65 Q1031.02 1332.91 1029.4 1336.75 Q1027.82 1340.55 1023.61 1345.73 Q1022.45 1347.07 1016.25 1353.51 Q1010.04 1359.9 998.749 1371.43 Z" fill="#000000" fill-rule="nonzero" fill-opacity="1" /><path clip-path="url(#clip240)" d="M1051.11 1310.18 L1087.82 1310.18 L1087.82 1318.05 L1059.67 1318.05 L1059.67 1334.99 Q1061.71 1334.3 1063.75 1333.97 Q1065.79 1333.6 1067.82 1333.6 Q1079.4 1333.6 1086.16 1339.94 Q1092.91 1346.29 1092.91 1357.12 Q1092.91 1368.28 1085.97 1374.48 Q1079.03 1380.64 1066.39 1380.64 Q1062.04 1380.64 1057.5 1379.9 Q1053.01 1379.16 1048.19 1377.68 L1048.19 1368.28 Q1052.36 1370.55 1056.8 1371.66 Q1061.25 1372.77 1066.2 1372.77 Q1074.21 1372.77 1078.89 1368.56 Q1083.56 1364.34 1083.56 1357.12 Q1083.56 1349.9 1078.89 1345.68 Q1074.21 1341.47 1066.2 1341.47 Q1062.45 1341.47 1058.7 1342.31 Q1055 1343.14 1051.11 1344.9 L1051.11 1310.18 Z" fill="#000000" fill-rule="nonzero" fill-opacity="1" /><path clip-path="url(#clip240)" d="M1194.17 1316.33 Q1186.95 1316.33 1183.29 1323.46 Q1179.68 1330.55 1179.68 1344.81 Q1179.68 1359.02 1183.29 1366.15 Q1186.95 1373.23 1194.17 1373.23 Q1201.44 1373.23 1205.05 1366.15 Q1208.71 1359.02 1208.71 1344.81 Q1208.71 1330.55 1205.05 1323.46 Q1201.44 1316.33 1194.17 1316.33 M1194.17 1308.93 Q1205.79 1308.93 1211.9 1318.14 Q1218.06 1327.31 1218.06 1344.81 Q1218.06 1362.26 1211.9 1371.47 Q1205.79 1380.64 1194.17 1380.64 Q1182.55 1380.64 1176.39 1371.47 Q1170.28 1362.26 1170.28 1344.81 Q1170.28 1327.31 1176.39 1318.14 Q1182.55 1308.93 1194.17 1308.93 Z" fill="#000000" fill-rule="nonzero" fill-opacity="1" /><path clip-path="url(#clip240)" d="M1234.49 1367.54 L1244.26 1367.54 L1244.26 1379.3 L1234.49 1379.3 L1234.49 1367.54 Z" fill="#000000" fill-rule="nonzero" fill-opacity="1" /><path clip-path="url(#clip240)" d="M1264.72 1310.18 L1301.44 1310.18 L1301.44 1318.05 L1273.29 1318.05 L1273.29 1334.99 Q1275.33 1334.3 1277.36 1333.97 Q1279.4 1333.6 1281.44 1333.6 Q1293.01 1333.6 1299.77 1339.94 Q1306.53 1346.29 1306.53 1357.12 Q1306.53 1368.28 1299.58 1374.48 Q1292.64 1380.64 1280 1380.64 Q1275.65 1380.64 1271.11 1379.9 Q1266.62 1379.16 1261.81 1377.68 L1261.81 1368.28 Q1265.97 1370.55 1270.42 1371.66 Q1274.86 1372.77 1279.82 1372.77 Q1287.83 1372.77 1292.5 1368.56 Q1297.18 1364.34 1297.18 1357.12 Q1297.18 1349.9 1292.5 1345.68 Q1287.83 1341.47 1279.82 1341.47 Q1276.07 1341.47 1272.32 1342.31 Q1268.61 1343.14 1264.72 1344.9 L1264.72 1310.18 Z" fill="#000000" fill-rule="nonzero" fill-opacity="1" /><path clip-path="url(#clip240)" d="M1344.96 1316.33 Q1337.73 1316.33 1334.08 1323.46 Q1330.46 1330.55 1330.46 1344.81 Q1330.46 1359.02 1334.08 1366.15 Q1337.73 1373.23 1344.96 1373.23 Q1352.22 1373.23 1355.83 1366.15 Q1359.49 1359.02 1359.49 1344.81 Q1359.49 1330.55 1355.83 1323.46 Q1352.22 1316.33 1344.96 1316.33 M1344.96 1308.93 Q1356.58 1308.93 1362.69 1318.14 Q1368.84 1327.31 1368.84 1344.81 Q1368.84 1362.26 1362.69 1371.47 Q1356.58 1380.64 1344.96 1380.64 Q1333.33 1380.64 1327.18 1371.47 Q1321.07 1362.26 1321.07 1344.81 Q1321.07 1327.31 1327.18 1318.14 Q1333.33 1308.93 1344.96 1308.93 Z" fill="#000000" fill-rule="nonzero" fill-opacity="1" /><path clip-path="url(#clip240)" d="M1470.1 1316.33 Q1462.88 1316.33 1459.22 1323.46 Q1455.61 1330.55 1455.61 1344.81 Q1455.61 1359.02 1459.22 1366.15 Q1462.88 1373.23 1470.1 1373.23 Q1477.37 1373.23 1480.98 1366.15 Q1484.63 1359.02 1484.63 1344.81 Q1484.63 1330.55 1480.98 1323.46 Q1477.37 1316.33 1470.1 1316.33 M1470.1 1308.93 Q1481.72 1308.93 1487.83 1318.14 Q1493.99 1327.31 1493.99 1344.81 Q1493.99 1362.26 1487.83 1371.47 Q1481.72 1380.64 1470.1 1380.64 Q1458.48 1380.64 1452.32 1371.47 Q1446.21 1362.26 1446.21 1344.81 Q1446.21 1327.31 1452.32 1318.14 Q1458.48 1308.93 1470.1 1308.93 Z" fill="#000000" fill-rule="nonzero" fill-opacity="1" /><path clip-path="url(#clip240)" d="M1510.42 1367.54 L1520.19 1367.54 L1520.19 1379.3 L1510.42 1379.3 L1510.42 1367.54 Z" fill="#000000" fill-rule="nonzero" fill-opacity="1" /><path clip-path="url(#clip240)" d="M1538.2 1310.18 L1582.64 1310.18 L1582.64 1314.16 L1557.55 1379.3 L1547.78 1379.3 L1571.39 1318.05 L1538.2 1318.05 L1538.2 1310.18 Z" fill="#000000" fill-rule="nonzero" fill-opacity="1" /><path clip-path="url(#clip240)" d="M1600.98 1310.18 L1637.69 1310.18 L1637.69 1318.05 L1609.54 1318.05 L1609.54 1334.99 Q1611.58 1334.3 1613.62 1333.97 Q1615.65 1333.6 1617.69 1333.6 Q1629.26 1333.6 1636.02 1339.94 Q1642.78 1346.29 1642.78 1357.12 Q1642.78 1368.28 1635.84 1374.48 Q1628.89 1380.64 1616.25 1380.64 Q1611.9 1380.64 1607.37 1379.9 Q1602.87 1379.16 1598.06 1377.68 L1598.06 1368.28 Q1602.23 1370.55 1606.67 1371.66 Q1611.12 1372.77 1616.07 1372.77 Q1624.08 1372.77 1628.75 1368.56 Q1633.43 1364.34 1633.43 1357.12 Q1633.43 1349.9 1628.75 1345.68 Q1624.08 1341.47 1616.07 1341.47 Q1612.32 1341.47 1608.57 1342.31 Q1604.87 1343.14 1600.98 1344.9 L1600.98 1310.18 Z" fill="#000000" fill-rule="nonzero" fill-opacity="1" /><path clip-path="url(#clip240)" d="M1723.57 1371.43 L1738.85 1371.43 L1738.85 1318.69 L1722.23 1322.03 L1722.23 1313.51 L1738.76 1310.18 L1748.11 1310.18 L1748.11 1371.43 L1763.39 1371.43 L1763.39 1379.3 L1723.57 1379.3 L1723.57 1371.43 Z" fill="#000000" fill-rule="nonzero" fill-opacity="1" /><path clip-path="url(#clip240)" d="M1782.28 1367.54 L1792.05 1367.54 L1792.05 1379.3 L1782.28 1379.3 L1782.28 1367.54 Z" fill="#000000" fill-rule="nonzero" fill-opacity="1" /><path clip-path="url(#clip240)" d="M1832.42 1316.33 Q1825.19 1316.33 1821.54 1323.46 Q1817.92 1330.55 1817.92 1344.81 Q1817.92 1359.02 1821.54 1366.15 Q1825.19 1373.23 1832.42 1373.23 Q1839.68 1373.23 1843.29 1366.15 Q1846.95 1359.02 1846.95 1344.81 Q1846.95 1330.55 1843.29 1323.46 Q1839.68 1316.33 1832.42 1316.33 M1832.42 1308.93 Q1844.04 1308.93 1850.15 1318.14 Q1856.3 1327.31 1856.3 1344.81 Q1856.3 1362.26 1850.15 1371.47 Q1844.04 1380.64 1832.42 1380.64 Q1820.79 1380.64 1814.64 1371.47 Q1808.53 1362.26 1808.53 1344.81 Q1808.53 1327.31 1814.64 1318.14 Q1820.79 1308.93 1832.42 1308.93 Z" fill="#000000" fill-rule="nonzero" fill-opacity="1" /><path clip-path="url(#clip240)" d="M1892.74 1316.33 Q1885.52 1316.33 1881.86 1323.46 Q1878.25 1330.55 1878.25 1344.81 Q1878.25 1359.02 1881.86 1366.15 Q1885.52 1373.23 1892.74 1373.23 Q1900.01 1373.23 1903.62 1366.15 Q1907.28 1359.02 1907.28 1344.81 Q1907.28 1330.55 1903.62 1323.46 Q1900.01 1316.33 1892.74 1316.33 M1892.74 1308.93 Q1904.36 1308.93 1910.47 1318.14 Q1916.63 1327.31 1916.63 1344.81 Q1916.63 1362.26 1910.47 1371.47 Q1904.36 1380.64 1892.74 1380.64 Q1881.12 1380.64 1874.96 1371.47 Q1868.85 1362.26 1868.85 1344.81 Q1868.85 1327.31 1874.96 1318.14 Q1881.12 1308.93 1892.74 1308.93 Z" fill="#000000" fill-rule="nonzero" fill-opacity="1" /><path clip-path="url(#clip240)" d="M1999.5 1371.43 L2014.78 1371.43 L2014.78 1318.69 L1998.16 1322.03 L1998.16 1313.51 L2014.69 1310.18 L2024.04 1310.18 L2024.04 1371.43 L2039.32 1371.43 L2039.32 1379.3 L1999.5 1379.3 L1999.5 1371.43 Z" fill="#000000" fill-rule="nonzero" fill-opacity="1" /><path clip-path="url(#clip240)" d="M2058.21 1367.54 L2067.97 1367.54 L2067.97 1379.3 L2058.21 1379.3 L2058.21 1367.54 Z" fill="#000000" fill-rule="nonzero" fill-opacity="1" /><path clip-path="url(#clip240)" d="M2096.4 1371.43 L2129.04 1371.43 L2129.04 1379.3 L2085.15 1379.3 L2085.15 1371.43 Q2090.47 1365.92 2099.64 1356.66 Q2108.85 1347.35 2111.21 1344.67 Q2115.71 1339.62 2117.46 1336.15 Q2119.27 1332.63 2119.27 1329.25 Q2119.27 1323.74 2115.38 1320.27 Q2111.54 1316.8 2105.33 1316.8 Q2100.94 1316.8 2096.03 1318.32 Q2091.17 1319.85 2085.61 1322.95 L2085.61 1313.51 Q2091.26 1311.24 2096.17 1310.08 Q2101.08 1308.93 2105.15 1308.93 Q2115.89 1308.93 2122.28 1314.3 Q2128.67 1319.67 2128.67 1328.65 Q2128.67 1332.91 2127.05 1336.75 Q2125.47 1340.55 2121.26 1345.73 Q2120.1 1347.07 2113.9 1353.51 Q2107.7 1359.9 2096.4 1371.43 Z" fill="#000000" fill-rule="nonzero" fill-opacity="1" /><path clip-path="url(#clip240)" d="M2148.76 1310.18 L2185.47 1310.18 L2185.47 1318.05 L2157.33 1318.05 L2157.33 1334.99 Q2159.36 1334.3 2161.4 1333.97 Q2163.44 1333.6 2165.47 1333.6 Q2177.05 1333.6 2183.81 1339.94 Q2190.57 1346.29 2190.57 1357.12 Q2190.57 1368.28 2183.62 1374.48 Q2176.68 1380.64 2164.04 1380.64 Q2159.69 1380.64 2155.15 1379.9 Q2150.66 1379.16 2145.84 1377.68 L2145.84 1368.28 Q2150.01 1370.55 2154.46 1371.66 Q2158.9 1372.77 2163.85 1372.77 Q2171.86 1372.77 2176.54 1368.56 Q2181.21 1364.34 2181.21 1357.12 Q2181.21 1349.9 2176.54 1345.68 Q2171.86 1341.47 2163.85 1341.47 Q2160.1 1341.47 2156.35 1342.31 Q2152.65 1343.14 2148.76 1344.9 L2148.76 1310.18 Z" fill="#000000" fill-rule="nonzero" fill-opacity="1" /><path clip-path="url(#clip240)" d="M1375.05 1484.39 L1375.05 1527.42 L1363.34 1527.42 L1363.34 1484.77 Q1363.34 1474.65 1359.39 1469.62 Q1355.45 1464.59 1347.55 1464.59 Q1338.07 1464.59 1332.59 1470.64 Q1327.12 1476.69 1327.12 1487.13 L1327.12 1527.42 L1315.34 1527.42 L1315.34 1428.37 L1327.12 1428.37 L1327.12 1467.2 Q1331.32 1460.77 1336.99 1457.59 Q1342.72 1454.41 1350.16 1454.41 Q1362.45 1454.41 1368.75 1462.05 Q1375.05 1469.62 1375.05 1484.39 Z" fill="#000000" fill-rule="nonzero" fill-opacity="1" /><path clip-path="url(#clip240)" d="M1426.04 1464.34 Q1416.62 1464.34 1411.15 1471.72 Q1405.67 1479.04 1405.67 1491.84 Q1405.67 1504.63 1411.08 1512.02 Q1416.56 1519.34 1426.04 1519.34 Q1435.4 1519.34 1440.87 1511.96 Q1446.35 1504.57 1446.35 1491.84 Q1446.35 1479.17 1440.87 1471.79 Q1435.4 1464.34 1426.04 1464.34 M1426.04 1454.41 Q1441.32 1454.41 1450.04 1464.34 Q1458.76 1474.27 1458.76 1491.84 Q1458.76 1509.35 1450.04 1519.34 Q1441.32 1529.27 1426.04 1529.27 Q1410.7 1529.27 1401.98 1519.34 Q1393.32 1509.35 1393.32 1491.84 Q1393.32 1474.27 1401.98 1464.34 Q1410.7 1454.41 1426.04 1454.41 Z" fill="#000000" fill-rule="nonzero" fill-opacity="1" /><path clip-path="url(#clip240)" d="M1476.97 1499.29 L1476.97 1456.13 L1488.68 1456.13 L1488.68 1498.84 Q1488.68 1508.96 1492.63 1514.06 Q1496.57 1519.08 1504.47 1519.08 Q1513.95 1519.08 1519.43 1513.04 Q1524.97 1506.99 1524.97 1496.55 L1524.97 1456.13 L1536.68 1456.13 L1536.68 1527.42 L1524.97 1527.42 L1524.97 1516.47 Q1520.7 1522.97 1515.04 1526.15 Q1509.43 1529.27 1501.99 1529.27 Q1489.7 1529.27 1483.33 1521.63 Q1476.97 1513.99 1476.97 1499.29 M1506.44 1454.41 L1506.44 1454.41 Z" fill="#000000" fill-rule="nonzero" fill-opacity="1" /><path clip-path="url(#clip240)" d="M1602.12 1467.08 Q1600.14 1465.93 1597.79 1465.42 Q1595.5 1464.85 1592.7 1464.85 Q1582.77 1464.85 1577.42 1471.34 Q1572.14 1477.77 1572.14 1489.87 L1572.14 1527.42 L1560.36 1527.42 L1560.36 1456.13 L1572.14 1456.13 L1572.14 1467.2 Q1575.83 1460.71 1581.75 1457.59 Q1587.67 1454.41 1596.13 1454.41 Q1597.34 1454.41 1598.81 1454.6 Q1600.27 1454.73 1602.05 1455.05 L1602.12 1467.08 Z" fill="#000000" fill-rule="nonzero" fill-opacity="1" /><path clip-path="url(#clip240)" d="M1659.86 1458.23 L1659.86 1469.3 Q1654.89 1466.76 1649.54 1465.49 Q1644.2 1464.21 1638.47 1464.21 Q1629.75 1464.21 1625.35 1466.89 Q1621.02 1469.56 1621.02 1474.91 Q1621.02 1478.98 1624.14 1481.34 Q1627.26 1483.63 1636.68 1485.73 L1640.69 1486.62 Q1653.17 1489.29 1658.39 1494.19 Q1663.67 1499.03 1663.67 1507.75 Q1663.67 1517.68 1655.78 1523.48 Q1647.95 1529.27 1634.2 1529.27 Q1628.47 1529.27 1622.23 1528.12 Q1616.06 1527.04 1609.18 1524.81 L1609.18 1512.72 Q1615.68 1516.09 1621.98 1517.81 Q1628.28 1519.47 1634.46 1519.47 Q1642.73 1519.47 1647.19 1516.67 Q1651.64 1513.8 1651.64 1508.64 Q1651.64 1503.87 1648.4 1501.32 Q1645.21 1498.78 1634.33 1496.42 L1630.25 1495.47 Q1619.37 1493.18 1614.53 1488.47 Q1609.69 1483.69 1609.69 1475.42 Q1609.69 1465.36 1616.82 1459.88 Q1623.95 1454.41 1637.07 1454.41 Q1643.56 1454.41 1649.29 1455.36 Q1655.02 1456.32 1659.86 1458.23 Z" fill="#000000" fill-rule="nonzero" fill-opacity="1" /><polyline clip-path="url(#clip242)" style="stroke:#000000; stroke-linecap:round; stroke-linejoin:round; stroke-width:4; stroke-opacity:0.1; fill:none" points="673.506,1188.24 2305.51,1188.24 "/>
<polyline clip-path="url(#clip242)" style="stroke:#000000; stroke-linecap:round; stroke-linejoin:round; stroke-width:4; stroke-opacity:0.1; fill:none" points="673.506,1001.21 2305.51,1001.21 "/>
<polyline clip-path="url(#clip242)" style="stroke:#000000; stroke-linecap:round; stroke-linejoin:round; stroke-width:4; stroke-opacity:0.1; fill:none" points="673.506,814.176 2305.51,814.176 "/>
<polyline clip-path="url(#clip242)" style="stroke:#000000; stroke-linecap:round; stroke-linejoin:round; stroke-width:4; stroke-opacity:0.1; fill:none" points="673.506,627.141 2305.51,627.141 "/>
<polyline clip-path="url(#clip242)" style="stroke:#000000; stroke-linecap:round; stroke-linejoin:round; stroke-width:4; stroke-opacity:0.1; fill:none" points="673.506,440.107 2305.51,440.107 "/>
<polyline clip-path="url(#clip242)" style="stroke:#000000; stroke-linecap:round; stroke-linejoin:round; stroke-width:4; stroke-opacity:0.1; fill:none" points="673.506,253.073 2305.51,253.073 "/>
<polyline clip-path="url(#clip240)" style="stroke:#000000; stroke-linecap:round; stroke-linejoin:round; stroke-width:8; stroke-opacity:1; fill:none" points="673.506,1273.7 673.506,94.4882 "/>
<polyline clip-path="url(#clip240)" style="stroke:#000000; stroke-linecap:round; stroke-linejoin:round; stroke-width:8; stroke-opacity:1; fill:none" points="673.506,1188.24 692.404,1188.24 "/>
<polyline clip-path="url(#clip240)" style="stroke:#000000; stroke-linecap:round; stroke-linejoin:round; stroke-width:8; stroke-opacity:1; fill:none" points="673.506,1001.21 692.404,1001.21 "/>
<polyline clip-path="url(#clip240)" style="stroke:#000000; stroke-linecap:round; stroke-linejoin:round; stroke-width:8; stroke-opacity:1; fill:none" points="673.506,814.176 692.404,814.176 "/>
<polyline clip-path="url(#clip240)" style="stroke:#000000; stroke-linecap:round; stroke-linejoin:round; stroke-width:8; stroke-opacity:1; fill:none" points="673.506,627.141 692.404,627.141 "/>
<polyline clip-path="url(#clip240)" style="stroke:#000000; stroke-linecap:round; stroke-linejoin:round; stroke-width:8; stroke-opacity:1; fill:none" points="673.506,440.107 692.404,440.107 "/>
<polyline clip-path="url(#clip240)" style="stroke:#000000; stroke-linecap:round; stroke-linejoin:round; stroke-width:8; stroke-opacity:1; fill:none" points="673.506,253.073 692.404,253.073 "/>
<path clip-path="url(#clip240)" d="M384.128 1214.93 L399.405 1214.93 L399.405 1162.2 L382.785 1165.54 L382.785 1157.02 L399.313 1153.68 L408.665 1153.68 L408.665 1214.93 L423.942 1214.93 L423.942 1222.8 L384.128 1222.8 L384.128 1214.93 Z" fill="#000000" fill-rule="nonzero" fill-opacity="1" /><path clip-path="url(#clip240)" d="M468.525 1161.83 L444.914 1198.73 L468.525 1198.73 L468.525 1161.83 M466.072 1153.68 L477.831 1153.68 L477.831 1198.73 L487.692 1198.73 L487.692 1206.51 L477.831 1206.51 L477.831 1222.8 L468.525 1222.8 L468.525 1206.51 L437.322 1206.51 L437.322 1197.48 L466.072 1153.68 Z" fill="#000000" fill-rule="nonzero" fill-opacity="1" /><path clip-path="url(#clip240)" d="M523.155 1159.84 Q515.933 1159.84 512.275 1166.97 Q508.664 1174.05 508.664 1188.31 Q508.664 1202.53 512.275 1209.66 Q515.933 1216.74 523.155 1216.74 Q530.423 1216.74 534.034 1209.66 Q537.692 1202.53 537.692 1188.31 Q537.692 1174.05 534.034 1166.97 Q530.423 1159.84 523.155 1159.84 M523.155 1152.43 Q534.775 1152.43 540.886 1161.65 Q547.043 1170.81 547.043 1188.31 Q547.043 1205.77 540.886 1214.98 Q534.775 1224.15 523.155 1224.15 Q511.534 1224.15 505.377 1214.98 Q499.266 1205.77 499.266 1188.31 Q499.266 1170.81 505.377 1161.65 Q511.534 1152.43 523.155 1152.43 Z" fill="#000000" fill-rule="nonzero" fill-opacity="1" /><path clip-path="url(#clip240)" d="M563.479 1211.05 L573.247 1211.05 L573.247 1222.8 L563.479 1222.8 L563.479 1211.05 Z" fill="#000000" fill-rule="nonzero" fill-opacity="1" /><path clip-path="url(#clip240)" d="M613.617 1159.84 Q606.395 1159.84 602.738 1166.97 Q599.127 1174.05 599.127 1188.31 Q599.127 1202.53 602.738 1209.66 Q606.395 1216.74 613.617 1216.74 Q620.886 1216.74 624.497 1209.66 Q628.154 1202.53 628.154 1188.31 Q628.154 1174.05 624.497 1166.97 Q620.886 1159.84 613.617 1159.84 M613.617 1152.43 Q625.238 1152.43 631.349 1161.65 Q637.506 1170.81 637.506 1188.31 Q637.506 1205.77 631.349 1214.98 Q625.238 1224.15 613.617 1224.15 Q601.997 1224.15 595.84 1214.98 Q589.728 1205.77 589.728 1188.31 Q589.728 1170.81 595.84 1161.65 Q601.997 1152.43 613.617 1152.43 Z" fill="#000000" fill-rule="nonzero" fill-opacity="1" /><path clip-path="url(#clip240)" d="M384.128 1027.9 L399.405 1027.9 L399.405 975.169 L382.785 978.502 L382.785 969.984 L399.313 966.65 L408.665 966.65 L408.665 1027.9 L423.942 1027.9 L423.942 1035.77 L384.128 1035.77 L384.128 1027.9 Z" fill="#000000" fill-rule="nonzero" fill-opacity="1" /><path clip-path="url(#clip240)" d="M442.924 966.65 L479.636 966.65 L479.636 974.521 L451.488 974.521 L451.488 991.465 Q453.525 990.771 455.562 990.446 Q457.6 990.076 459.637 990.076 Q471.211 990.076 477.97 996.419 Q484.729 1002.76 484.729 1013.59 Q484.729 1024.75 477.785 1030.96 Q470.84 1037.11 458.201 1037.11 Q453.85 1037.11 449.313 1036.37 Q444.822 1035.63 440.007 1034.15 L440.007 1024.75 Q444.174 1027.02 448.618 1028.13 Q453.063 1029.24 458.016 1029.24 Q466.025 1029.24 470.701 1025.03 Q475.377 1020.82 475.377 1013.59 Q475.377 1006.37 470.701 1002.16 Q466.025 997.946 458.016 997.946 Q454.266 997.946 450.516 998.78 Q446.813 999.613 442.924 1001.37 L442.924 966.65 Z" fill="#000000" fill-rule="nonzero" fill-opacity="1" /><path clip-path="url(#clip240)" d="M523.155 972.808 Q515.933 972.808 512.275 979.937 Q508.664 987.021 508.664 1001.28 Q508.664 1015.49 512.275 1022.62 Q515.933 1029.71 523.155 1029.71 Q530.423 1029.71 534.034 1022.62 Q537.692 1015.49 537.692 1001.28 Q537.692 987.021 534.034 979.937 Q530.423 972.808 523.155 972.808 M523.155 965.4 Q534.775 965.4 540.886 974.613 Q547.043 983.78 547.043 1001.28 Q547.043 1018.73 540.886 1027.95 Q534.775 1037.11 523.155 1037.11 Q511.534 1037.11 505.377 1027.95 Q499.266 1018.73 499.266 1001.28 Q499.266 983.78 505.377 974.613 Q511.534 965.4 523.155 965.4 Z" fill="#000000" fill-rule="nonzero" fill-opacity="1" /><path clip-path="url(#clip240)" d="M563.479 1024.01 L573.247 1024.01 L573.247 1035.77 L563.479 1035.77 L563.479 1024.01 Z" fill="#000000" fill-rule="nonzero" fill-opacity="1" /><path clip-path="url(#clip240)" d="M613.617 972.808 Q606.395 972.808 602.738 979.937 Q599.127 987.021 599.127 1001.28 Q599.127 1015.49 602.738 1022.62 Q606.395 1029.71 613.617 1029.71 Q620.886 1029.71 624.497 1022.62 Q628.154 1015.49 628.154 1001.28 Q628.154 987.021 624.497 979.937 Q620.886 972.808 613.617 972.808 M613.617 965.4 Q625.238 965.4 631.349 974.613 Q637.506 983.78 637.506 1001.28 Q637.506 1018.73 631.349 1027.95 Q625.238 1037.11 613.617 1037.11 Q601.997 1037.11 595.84 1027.95 Q589.728 1018.73 589.728 1001.28 Q589.728 983.78 595.84 974.613 Q601.997 965.4 613.617 965.4 Z" fill="#000000" fill-rule="nonzero" fill-opacity="1" /><path clip-path="url(#clip240)" d="M384.128 840.866 L399.405 840.866 L399.405 788.134 L382.785 791.468 L382.785 782.949 L399.313 779.616 L408.665 779.616 L408.665 840.866 L423.942 840.866 L423.942 848.736 L384.128 848.736 L384.128 840.866 Z" fill="#000000" fill-rule="nonzero" fill-opacity="1" /><path clip-path="url(#clip240)" d="M463.988 810.449 Q457.692 810.449 453.988 814.755 Q450.331 819.06 450.331 826.56 Q450.331 834.014 453.988 838.366 Q457.692 842.671 463.988 842.671 Q470.285 842.671 473.942 838.366 Q477.646 834.014 477.646 826.56 Q477.646 819.06 473.942 814.755 Q470.285 810.449 463.988 810.449 M482.553 781.144 L482.553 789.662 Q479.035 787.995 475.424 787.116 Q471.859 786.236 468.34 786.236 Q459.081 786.236 454.174 792.486 Q449.313 798.736 448.618 811.375 Q451.35 807.347 455.47 805.218 Q459.59 803.042 464.544 803.042 Q474.961 803.042 480.979 809.384 Q487.044 815.681 487.044 826.56 Q487.044 837.208 480.748 843.643 Q474.451 850.078 463.988 850.078 Q451.998 850.078 445.655 840.912 Q439.313 831.699 439.313 814.245 Q439.313 797.857 447.09 788.134 Q454.868 778.366 467.97 778.366 Q471.488 778.366 475.053 779.06 Q478.664 779.755 482.553 781.144 Z" fill="#000000" fill-rule="nonzero" fill-opacity="1" /><path clip-path="url(#clip240)" d="M523.155 785.773 Q515.933 785.773 512.275 792.903 Q508.664 799.986 508.664 814.245 Q508.664 828.458 512.275 835.588 Q515.933 842.671 523.155 842.671 Q530.423 842.671 534.034 835.588 Q537.692 828.458 537.692 814.245 Q537.692 799.986 534.034 792.903 Q530.423 785.773 523.155 785.773 M523.155 778.366 Q534.775 778.366 540.886 787.579 Q547.043 796.745 547.043 814.245 Q547.043 831.699 540.886 840.912 Q534.775 850.078 523.155 850.078 Q511.534 850.078 505.377 840.912 Q499.266 831.699 499.266 814.245 Q499.266 796.745 505.377 787.579 Q511.534 778.366 523.155 778.366 Z" fill="#000000" fill-rule="nonzero" fill-opacity="1" /><path clip-path="url(#clip240)" d="M563.479 836.977 L573.247 836.977 L573.247 848.736 L563.479 848.736 L563.479 836.977 Z" fill="#000000" fill-rule="nonzero" fill-opacity="1" /><path clip-path="url(#clip240)" d="M613.617 785.773 Q606.395 785.773 602.738 792.903 Q599.127 799.986 599.127 814.245 Q599.127 828.458 602.738 835.588 Q606.395 842.671 613.617 842.671 Q620.886 842.671 624.497 835.588 Q628.154 828.458 628.154 814.245 Q628.154 799.986 624.497 792.903 Q620.886 785.773 613.617 785.773 M613.617 778.366 Q625.238 778.366 631.349 787.579 Q637.506 796.745 637.506 814.245 Q637.506 831.699 631.349 840.912 Q625.238 850.078 613.617 850.078 Q601.997 850.078 595.84 840.912 Q589.728 831.699 589.728 814.245 Q589.728 796.745 595.84 787.579 Q601.997 778.366 613.617 778.366 Z" fill="#000000" fill-rule="nonzero" fill-opacity="1" /><path clip-path="url(#clip240)" d="M384.128 653.831 L399.405 653.831 L399.405 601.1 L382.785 604.433 L382.785 595.915 L399.313 592.581 L408.665 592.581 L408.665 653.831 L423.942 653.831 L423.942 661.701 L384.128 661.701 L384.128 653.831 Z" fill="#000000" fill-rule="nonzero" fill-opacity="1" /><path clip-path="url(#clip240)" d="M440.47 592.581 L484.914 592.581 L484.914 596.563 L459.822 661.701 L450.053 661.701 L473.664 600.452 L440.47 600.452 L440.47 592.581 Z" fill="#000000" fill-rule="nonzero" fill-opacity="1" /><path clip-path="url(#clip240)" d="M523.155 598.739 Q515.933 598.739 512.275 605.868 Q508.664 612.952 508.664 627.211 Q508.664 641.424 512.275 648.553 Q515.933 655.637 523.155 655.637 Q530.423 655.637 534.034 648.553 Q537.692 641.424 537.692 627.211 Q537.692 612.952 534.034 605.868 Q530.423 598.739 523.155 598.739 M523.155 591.331 Q534.775 591.331 540.886 600.544 Q547.043 609.711 547.043 627.211 Q547.043 644.665 540.886 653.877 Q534.775 663.044 523.155 663.044 Q511.534 663.044 505.377 653.877 Q499.266 644.665 499.266 627.211 Q499.266 609.711 505.377 600.544 Q511.534 591.331 523.155 591.331 Z" fill="#000000" fill-rule="nonzero" fill-opacity="1" /><path clip-path="url(#clip240)" d="M563.479 649.942 L573.247 649.942 L573.247 661.701 L563.479 661.701 L563.479 649.942 Z" fill="#000000" fill-rule="nonzero" fill-opacity="1" /><path clip-path="url(#clip240)" d="M613.617 598.739 Q606.395 598.739 602.738 605.868 Q599.127 612.952 599.127 627.211 Q599.127 641.424 602.738 648.553 Q606.395 655.637 613.617 655.637 Q620.886 655.637 624.497 648.553 Q628.154 641.424 628.154 627.211 Q628.154 612.952 624.497 605.868 Q620.886 598.739 613.617 598.739 M613.617 591.331 Q625.238 591.331 631.349 600.544 Q637.506 609.711 637.506 627.211 Q637.506 644.665 631.349 653.877 Q625.238 663.044 613.617 663.044 Q601.997 663.044 595.84 653.877 Q589.728 644.665 589.728 627.211 Q589.728 609.711 595.84 600.544 Q601.997 591.331 613.617 591.331 Z" fill="#000000" fill-rule="nonzero" fill-opacity="1" /><path clip-path="url(#clip240)" d="M384.128 466.797 L399.405 466.797 L399.405 414.066 L382.785 417.399 L382.785 408.88 L399.313 405.547 L408.665 405.547 L408.665 466.797 L423.942 466.797 L423.942 474.667 L384.128 474.667 L384.128 466.797 Z" fill="#000000" fill-rule="nonzero" fill-opacity="1" /><path clip-path="url(#clip240)" d="M462.831 441.843 Q456.164 441.843 452.322 445.408 Q448.525 448.973 448.525 455.223 Q448.525 461.473 452.322 465.037 Q456.164 468.602 462.831 468.602 Q469.498 468.602 473.34 465.037 Q477.183 461.426 477.183 455.223 Q477.183 448.973 473.34 445.408 Q469.544 441.843 462.831 441.843 M453.479 437.862 Q447.461 436.38 444.081 432.26 Q440.748 428.14 440.748 422.214 Q440.748 413.927 446.627 409.112 Q452.553 404.297 462.831 404.297 Q473.155 404.297 479.035 409.112 Q484.914 413.927 484.914 422.214 Q484.914 428.14 481.535 432.26 Q478.201 436.38 472.229 437.862 Q478.988 439.436 482.738 444.019 Q486.535 448.602 486.535 455.223 Q486.535 465.269 480.377 470.639 Q474.266 476.01 462.831 476.01 Q451.396 476.01 445.238 470.639 Q439.127 465.269 439.127 455.223 Q439.127 448.602 442.924 444.019 Q446.72 439.436 453.479 437.862 M450.053 423.093 Q450.053 428.464 453.387 431.473 Q456.766 434.482 462.831 434.482 Q468.849 434.482 472.229 431.473 Q475.655 428.464 475.655 423.093 Q475.655 417.723 472.229 414.714 Q468.849 411.704 462.831 411.704 Q456.766 411.704 453.387 414.714 Q450.053 417.723 450.053 423.093 Z" fill="#000000" fill-rule="nonzero" fill-opacity="1" /><path clip-path="url(#clip240)" d="M523.155 411.704 Q515.933 411.704 512.275 418.834 Q508.664 425.917 508.664 440.177 Q508.664 454.389 512.275 461.519 Q515.933 468.602 523.155 468.602 Q530.423 468.602 534.034 461.519 Q537.692 454.389 537.692 440.177 Q537.692 425.917 534.034 418.834 Q530.423 411.704 523.155 411.704 M523.155 404.297 Q534.775 404.297 540.886 413.51 Q547.043 422.677 547.043 440.177 Q547.043 457.63 540.886 466.843 Q534.775 476.01 523.155 476.01 Q511.534 476.01 505.377 466.843 Q499.266 457.63 499.266 440.177 Q499.266 422.677 505.377 413.51 Q511.534 404.297 523.155 404.297 Z" fill="#000000" fill-rule="nonzero" fill-opacity="1" /><path clip-path="url(#clip240)" d="M563.479 462.908 L573.247 462.908 L573.247 474.667 L563.479 474.667 L563.479 462.908 Z" fill="#000000" fill-rule="nonzero" fill-opacity="1" /><path clip-path="url(#clip240)" d="M613.617 411.704 Q606.395 411.704 602.738 418.834 Q599.127 425.917 599.127 440.177 Q599.127 454.389 602.738 461.519 Q606.395 468.602 613.617 468.602 Q620.886 468.602 624.497 461.519 Q628.154 454.389 628.154 440.177 Q628.154 425.917 624.497 418.834 Q620.886 411.704 613.617 411.704 M613.617 404.297 Q625.238 404.297 631.349 413.51 Q637.506 422.677 637.506 440.177 Q637.506 457.63 631.349 466.843 Q625.238 476.01 613.617 476.01 Q601.997 476.01 595.84 466.843 Q589.728 457.63 589.728 440.177 Q589.728 422.677 595.84 413.51 Q601.997 404.297 613.617 404.297 Z" fill="#000000" fill-rule="nonzero" fill-opacity="1" /><path clip-path="url(#clip240)" d="M384.128 279.762 L399.405 279.762 L399.405 227.031 L382.785 230.364 L382.785 221.846 L399.313 218.513 L408.665 218.513 L408.665 279.762 L423.942 279.762 L423.942 287.633 L384.128 287.633 L384.128 279.762 Z" fill="#000000" fill-rule="nonzero" fill-opacity="1" /><path clip-path="url(#clip240)" d="M443.109 286.197 L443.109 277.679 Q446.627 279.346 450.238 280.225 Q453.85 281.105 457.322 281.105 Q466.581 281.105 471.442 274.901 Q476.349 268.651 477.044 255.966 Q474.359 259.948 470.238 262.077 Q466.118 264.207 461.118 264.207 Q450.748 264.207 444.683 257.957 Q438.664 251.661 438.664 240.781 Q438.664 230.133 444.961 223.698 Q451.257 217.263 461.72 217.263 Q473.711 217.263 480.007 226.476 Q486.349 235.642 486.349 253.142 Q486.349 269.485 478.572 279.253 Q470.84 288.975 457.738 288.975 Q454.22 288.975 450.609 288.281 Q446.998 287.586 443.109 286.197 M461.72 256.892 Q468.016 256.892 471.674 252.587 Q475.377 248.281 475.377 240.781 Q475.377 233.327 471.674 229.022 Q468.016 224.67 461.72 224.67 Q455.424 224.67 451.72 229.022 Q448.063 233.327 448.063 240.781 Q448.063 248.281 451.72 252.587 Q455.424 256.892 461.72 256.892 Z" fill="#000000" fill-rule="nonzero" fill-opacity="1" /><path clip-path="url(#clip240)" d="M523.155 224.67 Q515.933 224.67 512.275 231.8 Q508.664 238.883 508.664 253.142 Q508.664 267.355 512.275 274.485 Q515.933 281.568 523.155 281.568 Q530.423 281.568 534.034 274.485 Q537.692 267.355 537.692 253.142 Q537.692 238.883 534.034 231.8 Q530.423 224.67 523.155 224.67 M523.155 217.263 Q534.775 217.263 540.886 226.476 Q547.043 235.642 547.043 253.142 Q547.043 270.596 540.886 279.809 Q534.775 288.975 523.155 288.975 Q511.534 288.975 505.377 279.809 Q499.266 270.596 499.266 253.142 Q499.266 235.642 505.377 226.476 Q511.534 217.263 523.155 217.263 Z" fill="#000000" fill-rule="nonzero" fill-opacity="1" /><path clip-path="url(#clip240)" d="M563.479 275.873 L573.247 275.873 L573.247 287.633 L563.479 287.633 L563.479 275.873 Z" fill="#000000" fill-rule="nonzero" fill-opacity="1" /><path clip-path="url(#clip240)" d="M613.617 224.67 Q606.395 224.67 602.738 231.8 Q599.127 238.883 599.127 253.142 Q599.127 267.355 602.738 274.485 Q606.395 281.568 613.617 281.568 Q620.886 281.568 624.497 274.485 Q628.154 267.355 628.154 253.142 Q628.154 238.883 624.497 231.8 Q620.886 224.67 613.617 224.67 M613.617 217.263 Q625.238 217.263 631.349 226.476 Q637.506 235.642 637.506 253.142 Q637.506 270.596 631.349 279.809 Q625.238 288.975 613.617 288.975 Q601.997 288.975 595.84 279.809 Q589.728 270.596 589.728 253.142 Q589.728 235.642 595.84 226.476 Q601.997 217.263 613.617 217.263 Z" fill="#000000" fill-rule="nonzero" fill-opacity="1" /><path clip-path="url(#clip240)" d="M307.579 933.309 L345.391 933.309 L345.391 945.086 L246.977 945.086 L246.977 933.309 L257.799 933.309 Q251.433 929.617 248.378 924.015 Q245.258 918.35 245.258 910.52 Q245.258 897.534 255.571 889.45 Q265.883 881.302 282.689 881.302 Q299.494 881.302 309.807 889.45 Q320.119 897.534 320.119 910.52 Q320.119 918.35 317.064 924.015 Q313.944 929.617 307.579 933.309 M282.689 893.46 Q269.766 893.46 262.446 898.807 Q255.062 904.091 255.062 913.385 Q255.062 922.679 262.446 928.026 Q269.766 933.309 282.689 933.309 Q295.611 933.309 302.995 928.026 Q310.316 922.679 310.316 913.385 Q310.316 904.091 302.995 898.807 Q295.611 893.46 282.689 893.46 Z" fill="#000000" fill-rule="nonzero" fill-opacity="1" /><path clip-path="url(#clip240)" d="M282.434 829.485 Q282.434 843.68 285.681 849.155 Q288.927 854.629 296.757 854.629 Q302.995 854.629 306.688 850.555 Q310.316 846.417 310.316 839.352 Q310.316 829.612 303.441 823.756 Q296.502 817.835 285.044 817.835 L282.434 817.835 L282.434 829.485 M277.596 806.123 L318.273 806.123 L318.273 817.835 L307.451 817.835 Q313.944 821.846 317.064 827.83 Q320.119 833.813 320.119 842.471 Q320.119 853.42 314.008 859.913 Q307.833 866.342 297.521 866.342 Q285.49 866.342 279.379 858.321 Q273.268 850.237 273.268 834.259 L273.268 817.835 L272.122 817.835 Q264.037 817.835 259.645 823.183 Q255.189 828.466 255.189 838.078 Q255.189 844.189 256.653 849.982 Q258.117 855.775 261.045 861.122 L250.224 861.122 Q247.741 854.693 246.532 848.645 Q245.258 842.598 245.258 836.869 Q245.258 821.4 253.279 813.761 Q261.3 806.123 277.596 806.123 Z" fill="#000000" fill-rule="nonzero" fill-opacity="1" /><path clip-path="url(#clip240)" d="M257.926 740.683 Q256.78 742.656 256.271 745.012 Q255.698 747.303 255.698 750.104 Q255.698 760.035 262.191 765.382 Q268.621 770.666 280.715 770.666 L318.273 770.666 L318.273 782.442 L246.977 782.442 L246.977 770.666 L258.054 770.666 Q251.561 766.973 248.441 761.053 Q245.258 755.133 245.258 746.667 Q245.258 745.457 245.449 743.993 Q245.577 742.529 245.895 740.747 L257.926 740.683 Z" fill="#000000" fill-rule="nonzero" fill-opacity="1" /><path clip-path="url(#clip240)" d="M279.697 670.278 L285.426 670.278 L285.426 724.132 Q297.521 723.368 303.887 716.875 Q310.189 710.319 310.189 698.669 Q310.189 691.922 308.534 685.62 Q306.878 679.254 303.568 673.016 L314.645 673.016 Q317.318 679.318 318.719 685.938 Q320.119 692.558 320.119 699.37 Q320.119 716.43 310.189 726.424 Q300.258 736.354 283.325 736.354 Q265.82 736.354 255.571 726.933 Q245.258 717.448 245.258 701.407 Q245.258 687.02 254.552 678.681 Q263.783 670.278 279.697 670.278 M276.259 681.991 Q266.647 682.119 260.918 687.402 Q255.189 692.622 255.189 701.279 Q255.189 711.083 260.727 717.003 Q266.265 722.859 276.323 723.75 L276.259 681.991 Z" fill="#000000" fill-rule="nonzero" fill-opacity="1" /><path clip-path="url(#clip240)" d="M275.241 591.789 L318.273 591.789 L318.273 603.502 L275.623 603.502 Q265.501 603.502 260.472 607.449 Q255.444 611.396 255.444 619.289 Q255.444 628.774 261.491 634.248 Q267.538 639.723 277.978 639.723 L318.273 639.723 L318.273 651.5 L246.977 651.5 L246.977 639.723 L258.054 639.723 Q251.624 635.522 248.441 629.856 Q245.258 624.127 245.258 616.679 Q245.258 604.393 252.897 598.091 Q260.472 591.789 275.241 591.789 Z" fill="#000000" fill-rule="nonzero" fill-opacity="1" /><path clip-path="url(#clip240)" d="M302.104 566.772 L302.104 553.34 L318.273 553.34 L318.273 566.772 L302.104 566.772 Z" fill="#000000" fill-rule="nonzero" fill-opacity="1" /><path clip-path="url(#clip240)" d="M265.629 454.799 Q265.629 463.457 271.549 468.549 Q277.469 473.578 287.781 473.578 Q298.03 473.578 304.014 468.549 Q309.934 463.457 309.934 454.799 Q309.934 446.142 304.014 441.113 Q298.03 436.02 287.781 436.02 Q277.469 436.02 271.549 441.113 Q265.629 446.142 265.629 454.799 M225.334 429.273 L237.047 429.273 Q234.755 434.111 233.546 439.076 Q232.336 443.978 232.336 448.815 Q232.336 461.547 240.93 468.295 Q249.523 474.979 266.902 475.933 Q261.364 472.178 258.435 466.512 Q255.444 460.847 255.444 454.035 Q255.444 439.712 264.165 431.437 Q272.822 423.098 287.781 423.098 Q302.422 423.098 311.271 431.755 Q320.119 440.413 320.119 454.799 Q320.119 471.286 307.515 480.007 Q294.847 488.728 270.849 488.728 Q248.314 488.728 234.946 478.034 Q221.514 467.34 221.514 449.325 Q221.514 444.487 222.469 439.585 Q223.424 434.62 225.334 429.273 Z" fill="#000000" fill-rule="nonzero" fill-opacity="1" /><polyline clip-path="url(#clip242)" style="stroke:#008000; stroke-linecap:round; stroke-linejoin:round; stroke-width:8; stroke-opacity:1; fill:none" points="719.695,281.747 829.668,382.277 939.642,312.442 1049.62,352.807 1159.59,619.975 1269.56,561.596 1379.54,726.347 1489.51,662.355 1599.48,811.771 1709.46,635.922 1819.43,943.403 1929.4,1005.84 2039.38,990.147 2149.35,1093.48 2259.32,1240.32 "/>
<circle clip-path="url(#clip242)" cx="719.695" cy="281.747" r="14.4" fill="#008000" fill-rule="evenodd" fill-opacity="1" stroke="#000000" stroke-opacity="1" stroke-width="6.4"/>
<circle clip-path="url(#clip242)" cx="829.668" cy="382.277" r="14.4" fill="#008000" fill-rule="evenodd" fill-opacity="1" stroke="#000000" stroke-opacity="1" stroke-width="6.4"/>
<circle clip-path="url(#clip242)" cx="939.642" cy="312.442" r="14.4" fill="#008000" fill-rule="evenodd" fill-opacity="1" stroke="#000000" stroke-opacity="1" stroke-width="6.4"/>
<circle clip-path="url(#clip242)" cx="1049.62" cy="352.807" r="14.4" fill="#008000" fill-rule="evenodd" fill-opacity="1" stroke="#000000" stroke-opacity="1" stroke-width="6.4"/>
<circle clip-path="url(#clip242)" cx="1159.59" cy="619.975" r="14.4" fill="#008000" fill-rule="evenodd" fill-opacity="1" stroke="#000000" stroke-opacity="1" stroke-width="6.4"/>
<circle clip-path="url(#clip242)" cx="1269.56" cy="561.596" r="14.4" fill="#008000" fill-rule="evenodd" fill-opacity="1" stroke="#000000" stroke-opacity="1" stroke-width="6.4"/>
<circle clip-path="url(#clip242)" cx="1379.54" cy="726.347" r="14.4" fill="#008000" fill-rule="evenodd" fill-opacity="1" stroke="#000000" stroke-opacity="1" stroke-width="6.4"/>
<circle clip-path="url(#clip242)" cx="1489.51" cy="662.355" r="14.4" fill="#008000" fill-rule="evenodd" fill-opacity="1" stroke="#000000" stroke-opacity="1" stroke-width="6.4"/>
<circle clip-path="url(#clip242)" cx="1599.48" cy="811.771" r="14.4" fill="#008000" fill-rule="evenodd" fill-opacity="1" stroke="#000000" stroke-opacity="1" stroke-width="6.4"/>
<circle clip-path="url(#clip242)" cx="1709.46" cy="635.922" r="14.4" fill="#008000" fill-rule="evenodd" fill-opacity="1" stroke="#000000" stroke-opacity="1" stroke-width="6.4"/>
<circle clip-path="url(#clip242)" cx="1819.43" cy="943.403" r="14.4" fill="#008000" fill-rule="evenodd" fill-opacity="1" stroke="#000000" stroke-opacity="1" stroke-width="6.4"/>
<circle clip-path="url(#clip242)" cx="1929.4" cy="1005.84" r="14.4" fill="#008000" fill-rule="evenodd" fill-opacity="1" stroke="#000000" stroke-opacity="1" stroke-width="6.4"/>
<circle clip-path="url(#clip242)" cx="2039.38" cy="990.147" r="14.4" fill="#008000" fill-rule="evenodd" fill-opacity="1" stroke="#000000" stroke-opacity="1" stroke-width="6.4"/>
<circle clip-path="url(#clip242)" cx="2149.35" cy="1093.48" r="14.4" fill="#008000" fill-rule="evenodd" fill-opacity="1" stroke="#000000" stroke-opacity="1" stroke-width="6.4"/>
<circle clip-path="url(#clip242)" cx="2259.32" cy="1240.32" r="14.4" fill="#008000" fill-rule="evenodd" fill-opacity="1" stroke="#000000" stroke-opacity="1" stroke-width="6.4"/>
<polyline clip-path="url(#clip242)" style="stroke:#00008b; stroke-linecap:round; stroke-linejoin:round; stroke-width:8; stroke-opacity:1; fill:none" points="719.695,211.45 829.668,266.214 939.642,310.116 1049.62,365.117 1159.59,428.369 1269.56,502.497 1379.54,565.898 1489.51,638.156 1599.48,701.085 1709.46,769.744 1819.43,837.051 1929.4,898.027 2039.38,957.367 2149.35,1025.76 2259.32,1086.19 "/>
<path clip-path="url(#clip242)" d="M719.695 296.609 L829.668 350.645 L939.642 395.951 L1049.62 447.694 L1159.59 514.57 L1269.56 586.515 L1379.54 648.04 L1489.51 718.527 L1599.48 786.884 L1709.46 853.208 L1819.43 923.849 L1929.4 980.989 L2039.38 1040.24 L2149.35 1110.46 L2259.32 1168.21 L2259.32 1001.57 L2149.35 942.399 L2039.38 877.582 L1929.4 817.917 L1819.43 747.373 L1709.46 677.8 L1599.48 616.352 L1489.51 549.492 L1379.54 478.929 L1269.56 419.522 L1159.59 344.731 L1049.62 283.179 L939.642 225.53 L829.668 182.412 L719.695 127.862  Z" fill="#0000ff" fill-rule="evenodd" fill-opacity="0.1"/>
<polyline clip-path="url(#clip242)" style="stroke:#0000ff; stroke-linecap:round; stroke-linejoin:round; stroke-width:0; stroke-opacity:0.1; fill:none" points="719.695,296.609 829.668,350.645 939.642,395.951 1049.62,447.694 1159.59,514.57 1269.56,586.515 1379.54,648.04 1489.51,718.527 1599.48,786.884 1709.46,853.208 1819.43,923.849 1929.4,980.989 2039.38,1040.24 2149.35,1110.46 2259.32,1168.21 "/>
</svg>
