<?xml version="1.0" encoding="utf-8"?>
<svg xmlns="http://www.w3.org/2000/svg" xmlns:xlink="http://www.w3.org/1999/xlink" width="600" height="400" viewBox="0 0 2400 1600">
<defs>
  <clipPath id="clip910">
    <rect x="0" y="0" width="2400" height="1600"/>
  </clipPath>
</defs>
<path clip-path="url(#clip910)" d="M0 1600 L2400 1600 L2400 0 L0 0  Z" fill="#ffffff" fill-rule="evenodd" fill-opacity="1"/>
<defs>
  <clipPath id="clip911">
    <rect x="480" y="0" width="1681" height="1600"/>
  </clipPath>
</defs>
<path clip-path="url(#clip910)" d="M680.45 1273.7 L2305.51 1273.7 L2305.51 94.4882 L680.45 94.4882  Z" fill="#ffffff" fill-rule="evenodd" fill-opacity="1"/>
<defs>
  <clipPath id="clip912">
    <rect x="680" y="94" width="1626" height="1180"/>
  </clipPath>
</defs>
<polyline clip-path="url(#clip912)" style="stroke:#000000; stroke-linecap:round; stroke-linejoin:round; stroke-width:4; stroke-opacity:0.1; fill:none" points="726.443,1273.7 726.443,94.4882 "/>
<polyline clip-path="url(#clip912)" style="stroke:#000000; stroke-linecap:round; stroke-linejoin:round; stroke-width:4; stroke-opacity:0.1; fill:none" points="1000.21,1273.7 1000.21,94.4882 "/>
<polyline clip-path="url(#clip912)" style="stroke:#000000; stroke-linecap:round; stroke-linejoin:round; stroke-width:4; stroke-opacity:0.1; fill:none" points="1273.97,1273.7 1273.97,94.4882 "/>
<polyline clip-path="url(#clip912)" style="stroke:#000000; stroke-linecap:round; stroke-linejoin:round; stroke-width:4; stroke-opacity:0.1; fill:none" points="1547.73,1273.7 1547.73,94.4882 "/>
<polyline clip-path="url(#clip912)" style="stroke:#000000; stroke-linecap:round; stroke-linejoin:round; stroke-width:4; stroke-opacity:0.1; fill:none" points="1821.5,1273.7 1821.5,94.4882 "/>
<polyline clip-path="url(#clip912)" style="stroke:#000000; stroke-linecap:round; stroke-linejoin:round; stroke-width:4; stroke-opacity:0.1; fill:none" points="2095.26,1273.7 2095.26,94.4882 "/>
<polyline clip-path="url(#clip910)" style="stroke:#000000; stroke-linecap:round; stroke-linejoin:round; stroke-width:8; stroke-opacity:1; fill:none" points="680.45,1273.7 2305.51,1273.7 "/>
<polyline clip-path="url(#clip910)" style="stroke:#000000; stroke-linecap:round; stroke-linejoin:round; stroke-width:8; stroke-opacity:1; fill:none" points="726.443,1273.7 726.443,1254.8 "/>
<polyline clip-path="url(#clip910)" style="stroke:#000000; stroke-linecap:round; stroke-linejoin:round; stroke-width:8; stroke-opacity:1; fill:none" points="1000.21,1273.7 1000.21,1254.8 "/>
<polyline clip-path="url(#clip910)" style="stroke:#000000; stroke-linecap:round; stroke-linejoin:round; stroke-width:8; stroke-opacity:1; fill:none" points="1273.97,1273.7 1273.97,1254.8 "/>
<polyline clip-path="url(#clip910)" style="stroke:#000000; stroke-linecap:round; stroke-linejoin:round; stroke-width:8; stroke-opacity:1; fill:none" points="1547.73,1273.7 1547.73,1254.8 "/>
<polyline clip-path="url(#clip910)" style="stroke:#000000; stroke-linecap:round; stroke-linejoin:round; stroke-width:8; stroke-opacity:1; fill:none" points="1821.5,1273.7 1821.5,1254.8 "/>
<polyline clip-path="url(#clip910)" style="stroke:#000000; stroke-linecap:round; stroke-linejoin:round; stroke-width:8; stroke-opacity:1; fill:none" points="2095.26,1273.7 2095.26,1254.8 "/>
<path clip-path="url(#clip910)" d="M651.05 1316.33 Q643.827 1316.33 640.17 1323.46 Q636.559 1330.55 636.559 1344.81 Q636.559 1359.02 640.17 1366.15 Q643.827 1373.23 651.05 1373.23 Q658.318 1373.23 661.929 1366.15 Q665.587 1359.02 665.587 1344.81 Q665.587 1330.55 661.929 1323.46 Q658.318 1316.33 651.05 1316.33 M651.05 1308.93 Q662.67 1308.93 668.781 1318.14 Q674.938 1327.31 674.938 1344.81 Q674.938 1362.26 668.781 1371.47 Q662.67 1380.64 651.05 1380.64 Q639.429 1380.64 633.272 1371.47 Q627.161 1362.26 627.161 1344.81 Q627.161 1327.31 633.272 1318.14 Q639.429 1308.93 651.05 1308.93 Z" fill="#000000" fill-rule="nonzero" fill-opacity="1" /><path clip-path="url(#clip910)" d="M691.373 1367.54 L701.142 1367.54 L701.142 1379.3 L691.373 1379.3 L691.373 1367.54 Z" fill="#000000" fill-rule="nonzero" fill-opacity="1" /><path clip-path="url(#clip910)" d="M741.512 1316.33 Q734.29 1316.33 730.632 1323.46 Q727.021 1330.55 727.021 1344.81 Q727.021 1359.02 730.632 1366.15 Q734.29 1373.23 741.512 1373.23 Q748.781 1373.23 752.392 1366.15 Q756.049 1359.02 756.049 1344.81 Q756.049 1330.55 752.392 1323.46 Q748.781 1316.33 741.512 1316.33 M741.512 1308.93 Q753.132 1308.93 759.243 1318.14 Q765.401 1327.31 765.401 1344.81 Q765.401 1362.26 759.243 1371.47 Q753.132 1380.64 741.512 1380.64 Q729.892 1380.64 723.734 1371.47 Q717.623 1362.26 717.623 1344.81 Q717.623 1327.31 723.734 1318.14 Q729.892 1308.93 741.512 1308.93 Z" fill="#000000" fill-rule="nonzero" fill-opacity="1" /><path clip-path="url(#clip910)" d="M801.836 1316.33 Q794.614 1316.33 790.956 1323.46 Q787.345 1330.55 787.345 1344.81 Q787.345 1359.02 790.956 1366.15 Q794.614 1373.23 801.836 1373.23 Q809.104 1373.23 812.715 1366.15 Q816.373 1359.02 816.373 1344.81 Q816.373 1330.55 812.715 1323.46 Q809.104 1316.33 801.836 1316.33 M801.836 1308.93 Q813.456 1308.93 819.567 1318.14 Q825.725 1327.31 825.725 1344.81 Q825.725 1362.26 819.567 1371.47 Q813.456 1380.64 801.836 1380.64 Q790.215 1380.64 784.058 1371.47 Q777.947 1362.26 777.947 1344.81 Q777.947 1327.31 784.058 1318.14 Q790.215 1308.93 801.836 1308.93 Z" fill="#000000" fill-rule="nonzero" fill-opacity="1" /><path clip-path="url(#clip910)" d="M925.809 1316.33 Q918.586 1316.33 914.929 1323.46 Q911.318 1330.55 911.318 1344.81 Q911.318 1359.02 914.929 1366.15 Q918.586 1373.23 925.809 1373.23 Q933.077 1373.23 936.688 1366.15 Q940.346 1359.02 940.346 1344.81 Q940.346 1330.55 936.688 1323.46 Q933.077 1316.33 925.809 1316.33 M925.809 1308.93 Q937.429 1308.93 943.54 1318.14 Q949.697 1327.31 949.697 1344.81 Q949.697 1362.26 943.54 1371.47 Q937.429 1380.64 925.809 1380.64 Q914.188 1380.64 908.031 1371.47 Q901.92 1362.26 901.92 1344.81 Q901.92 1327.31 908.031 1318.14 Q914.188 1308.93 925.809 1308.93 Z" fill="#000000" fill-rule="nonzero" fill-opacity="1" /><path clip-path="url(#clip910)" d="M966.133 1367.54 L975.901 1367.54 L975.901 1379.3 L966.133 1379.3 L966.133 1367.54 Z" fill="#000000" fill-rule="nonzero" fill-opacity="1" /><path clip-path="url(#clip910)" d="M1004.33 1371.43 L1036.97 1371.43 L1036.97 1379.3 L993.077 1379.3 L993.077 1371.43 Q998.401 1365.92 1007.57 1356.66 Q1016.78 1347.35 1019.14 1344.67 Q1023.63 1339.62 1025.39 1336.15 Q1027.2 1332.63 1027.2 1329.25 Q1027.2 1323.74 1023.31 1320.27 Q1019.47 1316.8 1013.26 1316.8 Q1008.86 1316.8 1003.96 1318.32 Q999.095 1319.85 993.54 1322.95 L993.54 1313.51 Q999.188 1311.24 1004.1 1310.08 Q1009 1308.93 1013.08 1308.93 Q1023.82 1308.93 1030.21 1314.3 Q1036.6 1319.67 1036.6 1328.65 Q1036.6 1332.91 1034.97 1336.75 Q1033.4 1340.55 1029.19 1345.73 Q1028.03 1347.07 1021.83 1353.51 Q1015.62 1359.9 1004.33 1371.43 Z" fill="#000000" fill-rule="nonzero" fill-opacity="1" /><path clip-path="url(#clip910)" d="M1056.69 1310.18 L1093.4 1310.18 L1093.4 1318.05 L1065.25 1318.05 L1065.25 1334.99 Q1067.29 1334.3 1069.33 1333.97 Q1071.36 1333.6 1073.4 1333.6 Q1084.97 1333.6 1091.73 1339.94 Q1098.49 1346.29 1098.49 1357.12 Q1098.49 1368.28 1091.55 1374.48 Q1084.6 1380.64 1071.97 1380.64 Q1067.61 1380.64 1063.08 1379.9 Q1058.59 1379.16 1053.77 1377.68 L1053.77 1368.28 Q1057.94 1370.55 1062.38 1371.66 Q1066.83 1372.77 1071.78 1372.77 Q1079.79 1372.77 1084.47 1368.56 Q1089.14 1364.34 1089.14 1357.12 Q1089.14 1349.9 1084.47 1345.68 Q1079.79 1341.47 1071.78 1341.47 Q1068.03 1341.47 1064.28 1342.31 Q1060.58 1343.14 1056.69 1344.9 L1056.69 1310.18 Z" fill="#000000" fill-rule="nonzero" fill-opacity="1" /><path clip-path="url(#clip910)" d="M1198.58 1316.33 Q1191.35 1316.33 1187.7 1323.46 Q1184.09 1330.55 1184.09 1344.81 Q1184.09 1359.02 1187.7 1366.15 Q1191.35 1373.23 1198.58 1373.23 Q1205.85 1373.23 1209.46 1366.15 Q1213.11 1359.02 1213.11 1344.81 Q1213.11 1330.55 1209.46 1323.46 Q1205.85 1316.33 1198.58 1316.33 M1198.58 1308.93 Q1210.2 1308.93 1216.31 1318.14 Q1222.47 1327.31 1222.47 1344.81 Q1222.47 1362.26 1216.31 1371.47 Q1210.2 1380.64 1198.58 1380.64 Q1186.96 1380.64 1180.8 1371.47 Q1174.69 1362.26 1174.69 1344.81 Q1174.69 1327.31 1180.8 1318.14 Q1186.96 1308.93 1198.58 1308.93 Z" fill="#000000" fill-rule="nonzero" fill-opacity="1" /><path clip-path="url(#clip910)" d="M1238.9 1367.54 L1248.67 1367.54 L1248.67 1379.3 L1238.9 1379.3 L1238.9 1367.54 Z" fill="#000000" fill-rule="nonzero" fill-opacity="1" /><path clip-path="url(#clip910)" d="M1269.13 1310.18 L1305.84 1310.18 L1305.84 1318.05 L1277.7 1318.05 L1277.7 1334.99 Q1279.73 1334.3 1281.77 1333.97 Q1283.81 1333.6 1285.85 1333.6 Q1297.42 1333.6 1304.18 1339.94 Q1310.94 1346.29 1310.94 1357.12 Q1310.94 1368.28 1303.99 1374.48 Q1297.05 1380.64 1284.41 1380.64 Q1280.06 1380.64 1275.52 1379.9 Q1271.03 1379.16 1266.22 1377.68 L1266.22 1368.28 Q1270.38 1370.55 1274.83 1371.66 Q1279.27 1372.77 1284.22 1372.77 Q1292.23 1372.77 1296.91 1368.56 Q1301.59 1364.34 1301.59 1357.12 Q1301.59 1349.9 1296.91 1345.68 Q1292.23 1341.47 1284.22 1341.47 Q1280.47 1341.47 1276.72 1342.31 Q1273.02 1343.14 1269.13 1344.9 L1269.13 1310.18 Z" fill="#000000" fill-rule="nonzero" fill-opacity="1" /><path clip-path="url(#clip910)" d="M1349.36 1316.33 Q1342.14 1316.33 1338.48 1323.46 Q1334.87 1330.55 1334.87 1344.81 Q1334.87 1359.02 1338.48 1366.15 Q1342.14 1373.23 1349.36 1373.23 Q1356.63 1373.23 1360.24 1366.15 Q1363.9 1359.02 1363.9 1344.81 Q1363.9 1330.55 1360.24 1323.46 Q1356.63 1316.33 1349.36 1316.33 M1349.36 1308.93 Q1360.98 1308.93 1367.09 1318.14 Q1373.25 1327.31 1373.25 1344.81 Q1373.25 1362.26 1367.09 1371.47 Q1360.98 1380.64 1349.36 1380.64 Q1337.74 1380.64 1331.59 1371.47 Q1325.47 1362.26 1325.47 1344.81 Q1325.47 1327.31 1331.59 1318.14 Q1337.74 1308.93 1349.36 1308.93 Z" fill="#000000" fill-rule="nonzero" fill-opacity="1" /><path clip-path="url(#clip910)" d="M1473.34 1316.33 Q1466.11 1316.33 1462.46 1323.46 Q1458.85 1330.55 1458.85 1344.81 Q1458.85 1359.02 1462.46 1366.15 Q1466.11 1373.23 1473.34 1373.23 Q1480.6 1373.23 1484.22 1366.15 Q1487.87 1359.02 1487.87 1344.81 Q1487.87 1330.55 1484.22 1323.46 Q1480.6 1316.33 1473.34 1316.33 M1473.34 1308.93 Q1484.96 1308.93 1491.07 1318.14 Q1497.22 1327.31 1497.22 1344.81 Q1497.22 1362.26 1491.07 1371.47 Q1484.96 1380.64 1473.34 1380.64 Q1461.72 1380.64 1455.56 1371.47 Q1449.45 1362.26 1449.45 1344.81 Q1449.45 1327.31 1455.56 1318.14 Q1461.72 1308.93 1473.34 1308.93 Z" fill="#000000" fill-rule="nonzero" fill-opacity="1" /><path clip-path="url(#clip910)" d="M1513.66 1367.54 L1523.43 1367.54 L1523.43 1379.3 L1513.66 1379.3 L1513.66 1367.54 Z" fill="#000000" fill-rule="nonzero" fill-opacity="1" /><path clip-path="url(#clip910)" d="M1541.44 1310.18 L1585.88 1310.18 L1585.88 1314.16 L1560.79 1379.3 L1551.02 1379.3 L1574.63 1318.05 L1541.44 1318.05 L1541.44 1310.18 Z" fill="#000000" fill-rule="nonzero" fill-opacity="1" /><path clip-path="url(#clip910)" d="M1604.22 1310.18 L1640.93 1310.18 L1640.93 1318.05 L1612.78 1318.05 L1612.78 1334.99 Q1614.82 1334.3 1616.85 1333.97 Q1618.89 1333.6 1620.93 1333.6 Q1632.5 1333.6 1639.26 1339.94 Q1646.02 1346.29 1646.02 1357.12 Q1646.02 1368.28 1639.08 1374.48 Q1632.13 1380.64 1619.49 1380.64 Q1615.14 1380.64 1610.6 1379.9 Q1606.11 1379.16 1601.3 1377.68 L1601.3 1368.28 Q1605.47 1370.55 1609.91 1371.66 Q1614.35 1372.77 1619.31 1372.77 Q1627.32 1372.77 1631.99 1368.56 Q1636.67 1364.34 1636.67 1357.12 Q1636.67 1349.9 1631.99 1345.68 Q1627.32 1341.47 1619.31 1341.47 Q1615.56 1341.47 1611.81 1342.31 Q1608.1 1343.14 1604.22 1344.9 L1604.22 1310.18 Z" fill="#000000" fill-rule="nonzero" fill-opacity="1" /><path clip-path="url(#clip910)" d="M1725.64 1371.43 L1740.92 1371.43 L1740.92 1318.69 L1724.3 1322.03 L1724.3 1313.51 L1740.83 1310.18 L1750.18 1310.18 L1750.18 1371.43 L1765.46 1371.43 L1765.46 1379.3 L1725.64 1379.3 L1725.64 1371.43 Z" fill="#000000" fill-rule="nonzero" fill-opacity="1" /><path clip-path="url(#clip910)" d="M1784.34 1367.54 L1794.11 1367.54 L1794.11 1379.3 L1784.34 1379.3 L1784.34 1367.54 Z" fill="#000000" fill-rule="nonzero" fill-opacity="1" /><path clip-path="url(#clip910)" d="M1834.48 1316.33 Q1827.26 1316.33 1823.6 1323.46 Q1819.99 1330.55 1819.99 1344.81 Q1819.99 1359.02 1823.6 1366.15 Q1827.26 1373.23 1834.48 1373.23 Q1841.75 1373.23 1845.36 1366.15 Q1849.02 1359.02 1849.02 1344.81 Q1849.02 1330.55 1845.36 1323.46 Q1841.75 1316.33 1834.48 1316.33 M1834.48 1308.93 Q1846.1 1308.93 1852.21 1318.14 Q1858.37 1327.31 1858.37 1344.81 Q1858.37 1362.26 1852.21 1371.47 Q1846.1 1380.64 1834.48 1380.64 Q1822.86 1380.64 1816.71 1371.47 Q1810.59 1362.26 1810.59 1344.81 Q1810.59 1327.31 1816.71 1318.14 Q1822.86 1308.93 1834.48 1308.93 Z" fill="#000000" fill-rule="nonzero" fill-opacity="1" /><path clip-path="url(#clip910)" d="M1894.81 1316.33 Q1887.59 1316.33 1883.93 1323.46 Q1880.32 1330.55 1880.32 1344.81 Q1880.32 1359.02 1883.93 1366.15 Q1887.59 1373.23 1894.81 1373.23 Q1902.08 1373.23 1905.69 1366.15 Q1909.34 1359.02 1909.34 1344.81 Q1909.34 1330.55 1905.69 1323.46 Q1902.08 1316.33 1894.81 1316.33 M1894.81 1308.93 Q1906.43 1308.93 1912.54 1318.14 Q1918.7 1327.31 1918.7 1344.81 Q1918.7 1362.26 1912.54 1371.47 Q1906.43 1380.64 1894.81 1380.64 Q1883.19 1380.64 1877.03 1371.47 Q1870.92 1362.26 1870.92 1344.81 Q1870.92 1327.31 1877.03 1318.14 Q1883.19 1308.93 1894.81 1308.93 Z" fill="#000000" fill-rule="nonzero" fill-opacity="1" /><path clip-path="url(#clip910)" d="M2000.4 1371.43 L2015.68 1371.43 L2015.68 1318.69 L1999.06 1322.03 L1999.06 1313.51 L2015.59 1310.18 L2024.94 1310.18 L2024.94 1371.43 L2040.22 1371.43 L2040.22 1379.3 L2000.4 1379.3 L2000.4 1371.43 Z" fill="#000000" fill-rule="nonzero" fill-opacity="1" /><path clip-path="url(#clip910)" d="M2059.1 1367.54 L2068.87 1367.54 L2068.87 1379.3 L2059.1 1379.3 L2059.1 1367.54 Z" fill="#000000" fill-rule="nonzero" fill-opacity="1" /><path clip-path="url(#clip910)" d="M2097.3 1371.43 L2129.94 1371.43 L2129.94 1379.3 L2086.05 1379.3 L2086.05 1371.43 Q2091.37 1365.92 2100.54 1356.66 Q2109.75 1347.35 2112.11 1344.67 Q2116.6 1339.62 2118.36 1336.15 Q2120.17 1332.63 2120.17 1329.25 Q2120.17 1323.74 2116.28 1320.27 Q2112.44 1316.8 2106.23 1316.8 Q2101.84 1316.8 2096.93 1318.32 Q2092.07 1319.85 2086.51 1322.95 L2086.51 1313.51 Q2092.16 1311.24 2097.07 1310.08 Q2101.97 1308.93 2106.05 1308.93 Q2116.79 1308.93 2123.18 1314.3 Q2129.57 1319.67 2129.57 1328.65 Q2129.57 1332.91 2127.95 1336.75 Q2126.37 1340.55 2122.16 1345.73 Q2121 1347.07 2114.8 1353.51 Q2108.59 1359.9 2097.3 1371.43 Z" fill="#000000" fill-rule="nonzero" fill-opacity="1" /><path clip-path="url(#clip910)" d="M2149.66 1310.18 L2186.37 1310.18 L2186.37 1318.05 L2158.22 1318.05 L2158.22 1334.99 Q2160.26 1334.3 2162.3 1333.97 Q2164.33 1333.6 2166.37 1333.6 Q2177.95 1333.6 2184.71 1339.94 Q2191.46 1346.29 2191.46 1357.12 Q2191.46 1368.28 2184.52 1374.48 Q2177.58 1380.64 2164.94 1380.64 Q2160.58 1380.64 2156.05 1379.9 Q2151.56 1379.16 2146.74 1377.68 L2146.74 1368.28 Q2150.91 1370.55 2155.35 1371.66 Q2159.8 1372.77 2164.75 1372.77 Q2172.76 1372.77 2177.44 1368.56 Q2182.11 1364.34 2182.11 1357.12 Q2182.11 1349.9 2177.44 1345.68 Q2172.76 1341.47 2164.75 1341.47 Q2161 1341.47 2157.25 1342.31 Q2153.55 1343.14 2149.66 1344.9 L2149.66 1310.18 Z" fill="#000000" fill-rule="nonzero" fill-opacity="1" /><path clip-path="url(#clip910)" d="M1378.53 1484.39 L1378.53 1527.42 L1366.81 1527.42 L1366.81 1484.77 Q1366.81 1474.65 1362.87 1469.62 Q1358.92 1464.59 1351.03 1464.59 Q1341.54 1464.59 1336.07 1470.64 Q1330.59 1476.69 1330.59 1487.13 L1330.59 1527.42 L1318.82 1527.42 L1318.82 1428.37 L1330.59 1428.37 L1330.59 1467.2 Q1334.79 1460.77 1340.46 1457.59 Q1346.19 1454.41 1353.64 1454.41 Q1365.92 1454.41 1372.22 1462.05 Q1378.53 1469.62 1378.53 1484.39 Z" fill="#000000" fill-rule="nonzero" fill-opacity="1" /><path clip-path="url(#clip910)" d="M1429.51 1464.34 Q1420.09 1464.34 1414.62 1471.72 Q1409.14 1479.04 1409.14 1491.84 Q1409.14 1504.63 1414.56 1512.02 Q1420.03 1519.34 1429.51 1519.34 Q1438.87 1519.34 1444.35 1511.96 Q1449.82 1504.57 1449.82 1491.84 Q1449.82 1479.17 1444.35 1471.79 Q1438.87 1464.34 1429.51 1464.34 M1429.51 1454.41 Q1444.79 1454.41 1453.51 1464.34 Q1462.23 1474.27 1462.23 1491.84 Q1462.23 1509.35 1453.51 1519.34 Q1444.79 1529.27 1429.51 1529.27 Q1414.17 1529.27 1405.45 1519.34 Q1396.8 1509.35 1396.8 1491.84 Q1396.8 1474.27 1405.45 1464.34 Q1414.17 1454.41 1429.51 1454.41 Z" fill="#000000" fill-rule="nonzero" fill-opacity="1" /><path clip-path="url(#clip910)" d="M1480.44 1499.29 L1480.44 1456.13 L1492.15 1456.13 L1492.15 1498.84 Q1492.15 1508.96 1496.1 1514.06 Q1500.05 1519.08 1507.94 1519.08 Q1517.43 1519.08 1522.9 1513.04 Q1528.44 1506.99 1528.44 1496.55 L1528.44 1456.13 L1540.15 1456.13 L1540.15 1527.42 L1528.44 1527.42 L1528.44 1516.47 Q1524.17 1522.97 1518.51 1526.15 Q1512.91 1529.27 1505.46 1529.27 Q1493.17 1529.27 1486.81 1521.63 Q1480.44 1513.99 1480.44 1499.29 M1509.91 1454.41 L1509.91 1454.41 Z" fill="#000000" fill-rule="nonzero" fill-opacity="1" /><path clip-path="url(#clip910)" d="M1605.59 1467.08 Q1603.62 1465.93 1601.26 1465.42 Q1598.97 1464.85 1596.17 1464.85 Q1586.24 1464.85 1580.89 1471.34 Q1575.61 1477.77 1575.61 1489.87 L1575.61 1527.42 L1563.83 1527.42 L1563.83 1456.13 L1575.61 1456.13 L1575.61 1467.2 Q1579.3 1460.71 1585.22 1457.59 Q1591.14 1454.41 1599.61 1454.41 Q1600.82 1454.41 1602.28 1454.6 Q1603.74 1454.73 1605.53 1455.05 L1605.59 1467.08 Z" fill="#000000" fill-rule="nonzero" fill-opacity="1" /><path clip-path="url(#clip910)" d="M1663.33 1458.23 L1663.33 1469.3 Q1658.36 1466.76 1653.01 1465.49 Q1647.67 1464.21 1641.94 1464.21 Q1633.22 1464.21 1628.83 1466.89 Q1624.5 1469.56 1624.5 1474.91 Q1624.5 1478.98 1627.62 1481.34 Q1630.73 1483.63 1640.16 1485.73 L1644.17 1486.62 Q1656.64 1489.29 1661.86 1494.19 Q1667.15 1499.03 1667.15 1507.75 Q1667.15 1517.68 1659.25 1523.48 Q1651.42 1529.27 1637.67 1529.27 Q1631.94 1529.27 1625.71 1528.12 Q1619.53 1527.04 1612.66 1524.81 L1612.66 1512.72 Q1619.15 1516.09 1625.45 1517.81 Q1631.75 1519.47 1637.93 1519.47 Q1646.2 1519.47 1650.66 1516.67 Q1655.12 1513.8 1655.12 1508.64 Q1655.12 1503.87 1651.87 1501.32 Q1648.69 1498.78 1637.8 1496.42 L1633.73 1495.47 Q1622.84 1493.18 1618 1488.47 Q1613.17 1483.69 1613.17 1475.42 Q1613.17 1465.36 1620.3 1459.88 Q1627.42 1454.41 1640.54 1454.41 Q1647.03 1454.41 1652.76 1455.36 Q1658.49 1456.32 1663.33 1458.23 Z" fill="#000000" fill-rule="nonzero" fill-opacity="1" /><polyline clip-path="url(#clip912)" style="stroke:#000000; stroke-linecap:round; stroke-linejoin:round; stroke-width:4; stroke-opacity:0.1; fill:none" points="680.45,1105.6 2305.51,1105.6 "/>
<polyline clip-path="url(#clip912)" style="stroke:#000000; stroke-linecap:round; stroke-linejoin:round; stroke-width:4; stroke-opacity:0.1; fill:none" points="680.45,901.669 2305.51,901.669 "/>
<polyline clip-path="url(#clip912)" style="stroke:#000000; stroke-linecap:round; stroke-linejoin:round; stroke-width:4; stroke-opacity:0.1; fill:none" points="680.45,697.739 2305.51,697.739 "/>
<polyline clip-path="url(#clip912)" style="stroke:#000000; stroke-linecap:round; stroke-linejoin:round; stroke-width:4; stroke-opacity:0.1; fill:none" points="680.45,493.81 2305.51,493.81 "/>
<polyline clip-path="url(#clip912)" style="stroke:#000000; stroke-linecap:round; stroke-linejoin:round; stroke-width:4; stroke-opacity:0.1; fill:none" points="680.45,289.88 2305.51,289.88 "/>
<polyline clip-path="url(#clip910)" style="stroke:#000000; stroke-linecap:round; stroke-linejoin:round; stroke-width:8; stroke-opacity:1; fill:none" points="680.45,1273.7 680.45,94.4882 "/>
<polyline clip-path="url(#clip910)" style="stroke:#000000; stroke-linecap:round; stroke-linejoin:round; stroke-width:8; stroke-opacity:1; fill:none" points="680.45,1105.6 699.348,1105.6 "/>
<polyline clip-path="url(#clip910)" style="stroke:#000000; stroke-linecap:round; stroke-linejoin:round; stroke-width:8; stroke-opacity:1; fill:none" points="680.45,901.669 699.348,901.669 "/>
<polyline clip-path="url(#clip910)" style="stroke:#000000; stroke-linecap:round; stroke-linejoin:round; stroke-width:8; stroke-opacity:1; fill:none" points="680.45,697.739 699.348,697.739 "/>
<polyline clip-path="url(#clip910)" style="stroke:#000000; stroke-linecap:round; stroke-linejoin:round; stroke-width:8; stroke-opacity:1; fill:none" points="680.45,493.81 699.348,493.81 "/>
<polyline clip-path="url(#clip910)" style="stroke:#000000; stroke-linecap:round; stroke-linejoin:round; stroke-width:8; stroke-opacity:1; fill:none" points="680.45,289.88 699.348,289.88 "/>
<path clip-path="url(#clip910)" d="M391.072 1132.29 L406.35 1132.29 L406.35 1079.56 L389.73 1082.89 L389.73 1074.37 L406.257 1071.04 L415.609 1071.04 L415.609 1132.29 L430.887 1132.29 L430.887 1140.16 L391.072 1140.16 L391.072 1132.29 Z" fill="#000000" fill-rule="nonzero" fill-opacity="1" /><path clip-path="url(#clip910)" d="M457.831 1132.29 L490.47 1132.29 L490.47 1140.16 L446.581 1140.16 L446.581 1132.29 Q451.905 1126.78 461.072 1117.52 Q470.285 1108.21 472.646 1105.53 Q477.136 1100.48 478.896 1097.01 Q480.701 1093.49 480.701 1090.11 Q480.701 1084.6 476.812 1081.13 Q472.97 1077.66 466.766 1077.66 Q462.368 1077.66 457.461 1079.19 Q452.6 1080.71 447.044 1083.82 L447.044 1074.37 Q452.692 1072.1 457.6 1070.95 Q462.507 1069.79 466.581 1069.79 Q477.322 1069.79 483.71 1075.16 Q490.099 1080.53 490.099 1089.51 Q490.099 1093.77 488.479 1097.61 Q486.905 1101.41 482.692 1106.59 Q481.535 1107.94 475.331 1114.37 Q469.127 1120.76 457.831 1132.29 Z" fill="#000000" fill-rule="nonzero" fill-opacity="1" /><path clip-path="url(#clip910)" d="M530.099 1077.2 Q522.877 1077.2 519.22 1084.33 Q515.608 1091.41 515.608 1105.67 Q515.608 1119.88 519.22 1127.01 Q522.877 1134.09 530.099 1134.09 Q537.368 1134.09 540.979 1127.01 Q544.636 1119.88 544.636 1105.67 Q544.636 1091.41 540.979 1084.33 Q537.368 1077.2 530.099 1077.2 M530.099 1069.79 Q541.719 1069.79 547.831 1079 Q553.988 1088.17 553.988 1105.67 Q553.988 1123.12 547.831 1132.33 Q541.719 1141.5 530.099 1141.5 Q518.479 1141.5 512.321 1132.33 Q506.21 1123.12 506.21 1105.67 Q506.21 1088.17 512.321 1079 Q518.479 1069.79 530.099 1069.79 Z" fill="#000000" fill-rule="nonzero" fill-opacity="1" /><path clip-path="url(#clip910)" d="M570.423 1128.4 L580.191 1128.4 L580.191 1140.16 L570.423 1140.16 L570.423 1128.4 Z" fill="#000000" fill-rule="nonzero" fill-opacity="1" /><path clip-path="url(#clip910)" d="M620.562 1077.2 Q613.339 1077.2 609.682 1084.33 Q606.071 1091.41 606.071 1105.67 Q606.071 1119.88 609.682 1127.01 Q613.339 1134.09 620.562 1134.09 Q627.83 1134.09 631.441 1127.01 Q635.099 1119.88 635.099 1105.67 Q635.099 1091.41 631.441 1084.33 Q627.83 1077.2 620.562 1077.2 M620.562 1069.79 Q632.182 1069.79 638.293 1079 Q644.45 1088.17 644.45 1105.67 Q644.45 1123.12 638.293 1132.33 Q632.182 1141.5 620.562 1141.5 Q608.941 1141.5 602.784 1132.33 Q596.673 1123.12 596.673 1105.67 Q596.673 1088.17 602.784 1079 Q608.941 1069.79 620.562 1069.79 Z" fill="#000000" fill-rule="nonzero" fill-opacity="1" /><path clip-path="url(#clip910)" d="M391.072 928.359 L406.35 928.359 L406.35 875.627 L389.73 878.961 L389.73 870.442 L406.257 867.109 L415.609 867.109 L415.609 928.359 L430.887 928.359 L430.887 936.229 L391.072 936.229 L391.072 928.359 Z" fill="#000000" fill-rule="nonzero" fill-opacity="1" /><path clip-path="url(#clip910)" d="M475.47 875.257 L451.859 912.155 L475.47 912.155 L475.47 875.257 M473.016 867.109 L484.775 867.109 L484.775 912.155 L494.636 912.155 L494.636 919.933 L484.775 919.933 L484.775 936.229 L475.47 936.229 L475.47 919.933 L444.266 919.933 L444.266 910.905 L473.016 867.109 Z" fill="#000000" fill-rule="nonzero" fill-opacity="1" /><path clip-path="url(#clip910)" d="M530.099 873.266 Q522.877 873.266 519.22 880.396 Q515.608 887.479 515.608 901.738 Q515.608 915.951 519.22 923.081 Q522.877 930.164 530.099 930.164 Q537.368 930.164 540.979 923.081 Q544.636 915.951 544.636 901.738 Q544.636 887.479 540.979 880.396 Q537.368 873.266 530.099 873.266 M530.099 865.859 Q541.719 865.859 547.831 875.072 Q553.988 884.238 553.988 901.738 Q553.988 919.192 547.831 928.405 Q541.719 937.571 530.099 937.571 Q518.479 937.571 512.321 928.405 Q506.21 919.192 506.21 901.738 Q506.21 884.238 512.321 875.072 Q518.479 865.859 530.099 865.859 Z" fill="#000000" fill-rule="nonzero" fill-opacity="1" /><path clip-path="url(#clip910)" d="M570.423 924.47 L580.191 924.47 L580.191 936.229 L570.423 936.229 L570.423 924.47 Z" fill="#000000" fill-rule="nonzero" fill-opacity="1" /><path clip-path="url(#clip910)" d="M620.562 873.266 Q613.339 873.266 609.682 880.396 Q606.071 887.479 606.071 901.738 Q606.071 915.951 609.682 923.081 Q613.339 930.164 620.562 930.164 Q627.83 930.164 631.441 923.081 Q635.099 915.951 635.099 901.738 Q635.099 887.479 631.441 880.396 Q627.83 873.266 620.562 873.266 M620.562 865.859 Q632.182 865.859 638.293 875.072 Q644.45 884.238 644.45 901.738 Q644.45 919.192 638.293 928.405 Q632.182 937.571 620.562 937.571 Q608.941 937.571 602.784 928.405 Q596.673 919.192 596.673 901.738 Q596.673 884.238 602.784 875.072 Q608.941 865.859 620.562 865.859 Z" fill="#000000" fill-rule="nonzero" fill-opacity="1" /><path clip-path="url(#clip910)" d="M391.072 724.429 L406.35 724.429 L406.35 671.698 L389.73 675.031 L389.73 666.513 L406.257 663.179 L415.609 663.179 L415.609 724.429 L430.887 724.429 L430.887 732.299 L391.072 732.299 L391.072 724.429 Z" fill="#000000" fill-rule="nonzero" fill-opacity="1" /><path clip-path="url(#clip910)" d="M470.933 694.012 Q464.637 694.012 460.933 698.318 Q457.275 702.624 457.275 710.123 Q457.275 717.577 460.933 721.929 Q464.637 726.235 470.933 726.235 Q477.229 726.235 480.886 721.929 Q484.59 717.577 484.59 710.123 Q484.59 702.624 480.886 698.318 Q477.229 694.012 470.933 694.012 M489.498 664.707 L489.498 673.226 Q485.979 671.559 482.368 670.679 Q478.803 669.8 475.285 669.8 Q466.025 669.8 461.118 676.05 Q456.257 682.3 455.562 694.938 Q458.294 690.911 462.414 688.781 Q466.535 686.605 471.488 686.605 Q481.905 686.605 487.923 692.948 Q493.988 699.244 493.988 710.123 Q493.988 720.772 487.692 727.207 Q481.396 733.642 470.933 733.642 Q458.942 733.642 452.6 724.475 Q446.257 715.262 446.257 697.809 Q446.257 681.42 454.035 671.698 Q461.812 661.929 474.914 661.929 Q478.433 661.929 481.998 662.624 Q485.609 663.318 489.498 664.707 Z" fill="#000000" fill-rule="nonzero" fill-opacity="1" /><path clip-path="url(#clip910)" d="M530.099 669.337 Q522.877 669.337 519.22 676.466 Q515.608 683.55 515.608 697.809 Q515.608 712.022 519.22 719.151 Q522.877 726.235 530.099 726.235 Q537.368 726.235 540.979 719.151 Q544.636 712.022 544.636 697.809 Q544.636 683.55 540.979 676.466 Q537.368 669.337 530.099 669.337 M530.099 661.929 Q541.719 661.929 547.831 671.142 Q553.988 680.309 553.988 697.809 Q553.988 715.262 547.831 724.475 Q541.719 733.642 530.099 733.642 Q518.479 733.642 512.321 724.475 Q506.21 715.262 506.21 697.809 Q506.21 680.309 512.321 671.142 Q518.479 661.929 530.099 661.929 Z" fill="#000000" fill-rule="nonzero" fill-opacity="1" /><path clip-path="url(#clip910)" d="M570.423 720.54 L580.191 720.54 L580.191 732.299 L570.423 732.299 L570.423 720.54 Z" fill="#000000" fill-rule="nonzero" fill-opacity="1" /><path clip-path="url(#clip910)" d="M620.562 669.337 Q613.339 669.337 609.682 676.466 Q606.071 683.55 606.071 697.809 Q606.071 712.022 609.682 719.151 Q613.339 726.235 620.562 726.235 Q627.83 726.235 631.441 719.151 Q635.099 712.022 635.099 697.809 Q635.099 683.55 631.441 676.466 Q627.83 669.337 620.562 669.337 M620.562 661.929 Q632.182 661.929 638.293 671.142 Q644.45 680.309 644.45 697.809 Q644.45 715.262 638.293 724.475 Q632.182 733.642 620.562 733.642 Q608.941 733.642 602.784 724.475 Q596.673 715.262 596.673 697.809 Q596.673 680.309 602.784 671.142 Q608.941 661.929 620.562 661.929 Z" fill="#000000" fill-rule="nonzero" fill-opacity="1" /><path clip-path="url(#clip910)" d="M391.072 520.499 L406.35 520.499 L406.35 467.768 L389.73 471.101 L389.73 462.583 L406.257 459.25 L415.609 459.25 L415.609 520.499 L430.887 520.499 L430.887 528.37 L391.072 528.37 L391.072 520.499 Z" fill="#000000" fill-rule="nonzero" fill-opacity="1" /><path clip-path="url(#clip910)" d="M469.775 495.546 Q463.109 495.546 459.266 499.111 Q455.47 502.675 455.47 508.925 Q455.47 515.175 459.266 518.74 Q463.109 522.305 469.775 522.305 Q476.442 522.305 480.285 518.74 Q484.127 515.129 484.127 508.925 Q484.127 502.675 480.285 499.111 Q476.488 495.546 469.775 495.546 M460.424 491.564 Q454.405 490.083 451.025 485.963 Q447.692 481.842 447.692 475.916 Q447.692 467.629 453.572 462.815 Q459.498 458 469.775 458 Q480.099 458 485.979 462.815 Q491.859 467.629 491.859 475.916 Q491.859 481.842 488.479 485.963 Q485.146 490.083 479.173 491.564 Q485.933 493.138 489.683 497.722 Q493.479 502.305 493.479 508.925 Q493.479 518.972 487.322 524.342 Q481.211 529.712 469.775 529.712 Q458.34 529.712 452.183 524.342 Q446.072 518.972 446.072 508.925 Q446.072 502.305 449.868 497.722 Q453.664 493.138 460.424 491.564 M456.998 476.796 Q456.998 482.166 460.331 485.175 Q463.711 488.185 469.775 488.185 Q475.794 488.185 479.173 485.175 Q482.599 482.166 482.599 476.796 Q482.599 471.426 479.173 468.416 Q475.794 465.407 469.775 465.407 Q463.711 465.407 460.331 468.416 Q456.998 471.426 456.998 476.796 Z" fill="#000000" fill-rule="nonzero" fill-opacity="1" /><path clip-path="url(#clip910)" d="M530.099 465.407 Q522.877 465.407 519.22 472.537 Q515.608 479.62 515.608 493.879 Q515.608 508.092 519.22 515.222 Q522.877 522.305 530.099 522.305 Q537.368 522.305 540.979 515.222 Q544.636 508.092 544.636 493.879 Q544.636 479.62 540.979 472.537 Q537.368 465.407 530.099 465.407 M530.099 458 Q541.719 458 547.831 467.213 Q553.988 476.379 553.988 493.879 Q553.988 511.333 547.831 520.546 Q541.719 529.712 530.099 529.712 Q518.479 529.712 512.321 520.546 Q506.21 511.333 506.21 493.879 Q506.21 476.379 512.321 467.213 Q518.479 458 530.099 458 Z" fill="#000000" fill-rule="nonzero" fill-opacity="1" /><path clip-path="url(#clip910)" d="M570.423 516.611 L580.191 516.611 L580.191 528.37 L570.423 528.37 L570.423 516.611 Z" fill="#000000" fill-rule="nonzero" fill-opacity="1" /><path clip-path="url(#clip910)" d="M620.562 465.407 Q613.339 465.407 609.682 472.537 Q606.071 479.62 606.071 493.879 Q606.071 508.092 609.682 515.222 Q613.339 522.305 620.562 522.305 Q627.83 522.305 631.441 515.222 Q635.099 508.092 635.099 493.879 Q635.099 479.62 631.441 472.537 Q627.83 465.407 620.562 465.407 M620.562 458 Q632.182 458 638.293 467.213 Q644.45 476.379 644.45 493.879 Q644.45 511.333 638.293 520.546 Q632.182 529.712 620.562 529.712 Q608.941 529.712 602.784 520.546 Q596.673 511.333 596.673 493.879 Q596.673 476.379 602.784 467.213 Q608.941 458 620.562 458 Z" fill="#000000" fill-rule="nonzero" fill-opacity="1" /><path clip-path="url(#clip910)" d="M397.507 316.57 L430.146 316.57 L430.146 324.44 L386.257 324.44 L386.257 316.57 Q391.581 311.061 400.748 301.801 Q409.961 292.496 412.322 289.811 Q416.813 284.764 418.572 281.292 Q420.378 277.774 420.378 274.394 Q420.378 268.885 416.489 265.413 Q412.646 261.94 406.442 261.94 Q402.044 261.94 397.137 263.468 Q392.276 264.996 386.72 268.098 L386.72 258.653 Q392.368 256.385 397.276 255.228 Q402.183 254.07 406.257 254.07 Q416.998 254.07 423.387 259.44 Q429.776 264.811 429.776 273.792 Q429.776 278.051 428.155 281.894 Q426.581 285.69 422.368 290.875 Q421.211 292.218 415.007 298.653 Q408.803 305.042 397.507 316.57 Z" fill="#000000" fill-rule="nonzero" fill-opacity="1" /><path clip-path="url(#clip910)" d="M469.775 261.478 Q462.553 261.478 458.896 268.607 Q455.285 275.69 455.285 289.95 Q455.285 304.162 458.896 311.292 Q462.553 318.375 469.775 318.375 Q477.044 318.375 480.655 311.292 Q484.312 304.162 484.312 289.95 Q484.312 275.69 480.655 268.607 Q477.044 261.478 469.775 261.478 M469.775 254.07 Q481.396 254.07 487.507 263.283 Q493.664 272.45 493.664 289.95 Q493.664 307.403 487.507 316.616 Q481.396 325.783 469.775 325.783 Q458.155 325.783 451.998 316.616 Q445.887 307.403 445.887 289.95 Q445.887 272.45 451.998 263.283 Q458.155 254.07 469.775 254.07 Z" fill="#000000" fill-rule="nonzero" fill-opacity="1" /><path clip-path="url(#clip910)" d="M530.099 261.478 Q522.877 261.478 519.22 268.607 Q515.608 275.69 515.608 289.95 Q515.608 304.162 519.22 311.292 Q522.877 318.375 530.099 318.375 Q537.368 318.375 540.979 311.292 Q544.636 304.162 544.636 289.95 Q544.636 275.69 540.979 268.607 Q537.368 261.478 530.099 261.478 M530.099 254.07 Q541.719 254.07 547.831 263.283 Q553.988 272.45 553.988 289.95 Q553.988 307.403 547.831 316.616 Q541.719 325.783 530.099 325.783 Q518.479 325.783 512.321 316.616 Q506.21 307.403 506.21 289.95 Q506.21 272.45 512.321 263.283 Q518.479 254.07 530.099 254.07 Z" fill="#000000" fill-rule="nonzero" fill-opacity="1" /><path clip-path="url(#clip910)" d="M570.423 312.681 L580.191 312.681 L580.191 324.44 L570.423 324.44 L570.423 312.681 Z" fill="#000000" fill-rule="nonzero" fill-opacity="1" /><path clip-path="url(#clip910)" d="M620.562 261.478 Q613.339 261.478 609.682 268.607 Q606.071 275.69 606.071 289.95 Q606.071 304.162 609.682 311.292 Q613.339 318.375 620.562 318.375 Q627.83 318.375 631.441 311.292 Q635.099 304.162 635.099 289.95 Q635.099 275.69 631.441 268.607 Q627.83 261.478 620.562 261.478 M620.562 254.07 Q632.182 254.07 638.293 263.283 Q644.45 272.45 644.45 289.95 Q644.45 307.403 638.293 316.616 Q632.182 325.783 620.562 325.783 Q608.941 325.783 602.784 316.616 Q596.673 307.403 596.673 289.95 Q596.673 272.45 602.784 263.283 Q608.941 254.07 620.562 254.07 Z" fill="#000000" fill-rule="nonzero" fill-opacity="1" /><path clip-path="url(#clip910)" d="M311.051 932.195 L348.863 932.195 L348.863 943.972 L250.449 943.972 L250.449 932.195 L261.271 932.195 Q254.905 928.503 251.85 922.901 Q248.731 917.236 248.731 909.406 Q248.731 896.42 259.043 888.336 Q269.356 880.188 286.161 880.188 Q302.966 880.188 313.279 888.336 Q323.591 896.42 323.591 909.406 Q323.591 917.236 320.536 922.901 Q317.417 928.503 311.051 932.195 M286.161 892.346 Q273.239 892.346 265.918 897.693 Q258.534 902.977 258.534 912.271 Q258.534 921.565 265.918 926.912 Q273.239 932.195 286.161 932.195 Q299.083 932.195 306.468 926.912 Q313.788 921.565 313.788 912.271 Q313.788 902.977 306.468 897.693 Q299.083 892.346 286.161 892.346 Z" fill="#000000" fill-rule="nonzero" fill-opacity="1" /><path clip-path="url(#clip910)" d="M285.906 828.371 Q285.906 842.566 289.153 848.041 Q292.399 853.515 300.229 853.515 Q306.468 853.515 310.16 849.441 Q313.788 845.303 313.788 838.238 Q313.788 828.498 306.913 822.642 Q299.975 816.721 288.516 816.721 L285.906 816.721 L285.906 828.371 M281.068 805.009 L321.745 805.009 L321.745 816.721 L310.924 816.721 Q317.417 820.732 320.536 826.716 Q323.591 832.699 323.591 841.357 Q323.591 852.306 317.48 858.799 Q311.306 865.228 300.993 865.228 Q288.962 865.228 282.851 857.207 Q276.74 849.123 276.74 833.145 L276.74 816.721 L275.594 816.721 Q267.509 816.721 263.117 822.069 Q258.661 827.352 258.661 836.964 Q258.661 843.075 260.125 848.868 Q261.589 854.661 264.518 860.008 L253.696 860.008 Q251.213 853.579 250.004 847.531 Q248.731 841.484 248.731 835.755 Q248.731 820.286 256.751 812.647 Q264.772 805.009 281.068 805.009 Z" fill="#000000" fill-rule="nonzero" fill-opacity="1" /><path clip-path="url(#clip910)" d="M261.398 739.569 Q260.253 741.542 259.743 743.898 Q259.17 746.189 259.17 748.99 Q259.17 758.921 265.663 764.268 Q272.093 769.552 284.188 769.552 L321.745 769.552 L321.745 781.328 L250.449 781.328 L250.449 769.552 L261.526 769.552 Q255.033 765.859 251.914 759.939 Q248.731 754.019 248.731 745.553 Q248.731 744.343 248.922 742.879 Q249.049 741.415 249.367 739.633 L261.398 739.569 Z" fill="#000000" fill-rule="nonzero" fill-opacity="1" /><path clip-path="url(#clip910)" d="M283.169 669.164 L288.898 669.164 L288.898 723.018 Q300.993 722.254 307.359 715.761 Q313.661 709.205 313.661 697.555 Q313.661 690.808 312.006 684.506 Q310.351 678.14 307.041 671.902 L318.117 671.902 Q320.79 678.204 322.191 684.824 Q323.591 691.444 323.591 698.256 Q323.591 715.316 313.661 725.31 Q303.73 735.24 286.798 735.24 Q269.292 735.24 259.043 725.819 Q248.731 716.334 248.731 700.293 Q248.731 685.906 258.025 677.567 Q267.255 669.164 283.169 669.164 M279.732 680.877 Q270.119 681.005 264.39 686.288 Q258.661 691.508 258.661 700.165 Q258.661 709.969 264.199 715.889 Q269.737 721.745 279.795 722.636 L279.732 680.877 Z" fill="#000000" fill-rule="nonzero" fill-opacity="1" /><path clip-path="url(#clip910)" d="M278.713 590.675 L321.745 590.675 L321.745 602.388 L279.095 602.388 Q268.974 602.388 263.945 606.335 Q258.916 610.282 258.916 618.175 Q258.916 627.66 264.963 633.134 Q271.011 638.609 281.45 638.609 L321.745 638.609 L321.745 650.386 L250.449 650.386 L250.449 638.609 L261.526 638.609 Q255.096 634.408 251.914 628.742 Q248.731 623.013 248.731 615.565 Q248.731 603.279 256.37 596.977 Q263.945 590.675 278.713 590.675 Z" fill="#000000" fill-rule="nonzero" fill-opacity="1" /><path clip-path="url(#clip910)" d="M305.576 565.658 L305.576 552.226 L321.745 552.226 L321.745 565.658 L305.576 565.658 Z" fill="#000000" fill-rule="nonzero" fill-opacity="1" /><path clip-path="url(#clip910)" d="M270.501 443.818 Q272.475 434.588 278.713 429.432 Q284.952 424.212 294.118 424.212 Q308.186 424.212 315.889 433.888 Q323.591 443.564 323.591 461.388 Q323.591 467.371 322.382 473.737 Q321.236 480.039 318.881 486.787 L306.468 486.787 Q309.587 481.44 311.178 475.074 Q312.77 468.708 312.77 461.77 Q312.77 449.675 307.995 443.373 Q303.221 437.007 294.118 437.007 Q285.715 437.007 281.005 442.927 Q276.231 448.784 276.231 459.287 L276.231 470.363 L265.663 470.363 L265.663 458.778 Q265.663 449.293 261.908 444.264 Q258.088 439.235 250.959 439.235 Q243.638 439.235 239.755 444.455 Q235.808 449.611 235.808 459.287 Q235.808 464.571 236.954 470.618 Q238.1 476.665 240.519 483.922 L229.061 483.922 Q227.024 476.602 226.005 470.236 Q224.987 463.807 224.987 458.141 Q224.987 443.5 231.671 434.97 Q238.291 426.44 249.622 426.44 Q257.515 426.44 262.99 430.96 Q268.401 435.479 270.501 443.818 Z" fill="#000000" fill-rule="nonzero" fill-opacity="1" /><polyline clip-path="url(#clip912)" style="stroke:#008000; stroke-linecap:round; stroke-linejoin:round; stroke-width:8; stroke-opacity:1; fill:none" points="726.443,181.33 835.948,234.605 945.454,310.692 1054.96,430.151 1164.46,519.536 1273.97,610.465 1383.48,685.759 1492.98,752.402 1602.49,851.19 1711.99,935.025 1821.5,996.24 1931,1167.33 2040.51,1181.43 2150.01,1240.32 2259.52,1129.17 "/>
<circle clip-path="url(#clip912)" cx="726.443" cy="181.33" r="14.4" fill="#008000" fill-rule="evenodd" fill-opacity="1" stroke="#000000" stroke-opacity="1" stroke-width="6.4"/>
<circle clip-path="url(#clip912)" cx="835.948" cy="234.605" r="14.4" fill="#008000" fill-rule="evenodd" fill-opacity="1" stroke="#000000" stroke-opacity="1" stroke-width="6.4"/>
<circle clip-path="url(#clip912)" cx="945.454" cy="310.692" r="14.4" fill="#008000" fill-rule="evenodd" fill-opacity="1" stroke="#000000" stroke-opacity="1" stroke-width="6.4"/>
<circle clip-path="url(#clip912)" cx="1054.96" cy="430.151" r="14.4" fill="#008000" fill-rule="evenodd" fill-opacity="1" stroke="#000000" stroke-opacity="1" stroke-width="6.4"/>
<circle clip-path="url(#clip912)" cx="1164.46" cy="519.536" r="14.4" fill="#008000" fill-rule="evenodd" fill-opacity="1" stroke="#000000" stroke-opacity="1" stroke-width="6.4"/>
<circle clip-path="url(#clip912)" cx="1273.97" cy="610.465" r="14.4" fill="#008000" fill-rule="evenodd" fill-opacity="1" stroke="#000000" stroke-opacity="1" stroke-width="6.4"/>
<circle clip-path="url(#clip912)" cx="1383.48" cy="685.759" r="14.4" fill="#008000" fill-rule="evenodd" fill-opacity="1" stroke="#000000" stroke-opacity="1" stroke-width="6.4"/>
<circle clip-path="url(#clip912)" cx="1492.98" cy="752.402" r="14.4" fill="#008000" fill-rule="evenodd" fill-opacity="1" stroke="#000000" stroke-opacity="1" stroke-width="6.4"/>
<circle clip-path="url(#clip912)" cx="1602.49" cy="851.19" r="14.4" fill="#008000" fill-rule="evenodd" fill-opacity="1" stroke="#000000" stroke-opacity="1" stroke-width="6.4"/>
<circle clip-path="url(#clip912)" cx="1711.99" cy="935.025" r="14.4" fill="#008000" fill-rule="evenodd" fill-opacity="1" stroke="#000000" stroke-opacity="1" stroke-width="6.4"/>
<circle clip-path="url(#clip912)" cx="1821.5" cy="996.24" r="14.4" fill="#008000" fill-rule="evenodd" fill-opacity="1" stroke="#000000" stroke-opacity="1" stroke-width="6.4"/>
<circle clip-path="url(#clip912)" cx="1931" cy="1167.33" r="14.4" fill="#008000" fill-rule="evenodd" fill-opacity="1" stroke="#000000" stroke-opacity="1" stroke-width="6.4"/>
<circle clip-path="url(#clip912)" cx="2040.51" cy="1181.43" r="14.4" fill="#008000" fill-rule="evenodd" fill-opacity="1" stroke="#000000" stroke-opacity="1" stroke-width="6.4"/>
<circle clip-path="url(#clip912)" cx="2150.01" cy="1240.32" r="14.4" fill="#008000" fill-rule="evenodd" fill-opacity="1" stroke="#000000" stroke-opacity="1" stroke-width="6.4"/>
<circle clip-path="url(#clip912)" cx="2259.52" cy="1129.17" r="14.4" fill="#008000" fill-rule="evenodd" fill-opacity="1" stroke="#000000" stroke-opacity="1" stroke-width="6.4"/>
<polyline clip-path="url(#clip912)" style="stroke:#00008b; stroke-linecap:round; stroke-linejoin:round; stroke-width:8; stroke-opacity:1; fill:none" points="726.443,180.243 835.948,269.425 945.454,371.588 1054.96,471.406 1164.46,554.74 1273.97,628.481 1383.48,696.393 1492.98,758.797 1602.49,820.868 1711.99,881.339 1821.5,933.264 1931,980.482 2040.51,1027.57 2150.01,1070.52 2259.52,1116.09 "/>
<path clip-path="url(#clip912)" d="M726.443 233.197 L835.948 322.425 L945.454 423.053 L1054.96 523.241 L1164.46 605.316 L1273.97 678.88 L1383.48 750.019 L1492.98 809.355 L1602.49 869.303 L1711.99 933.138 L1821.5 987.105 L1931 1033.28 L2040.51 1079.26 L2150.01 1121.05 L2259.52 1169.17 L2259.52 1063.53 L2150.01 1017.33 L2040.51 976.514 L1931 924.981 L1821.5 881.25 L1711.99 827.811 L1602.49 768.719 L1492.98 708.317 L1383.48 642.814 L1273.97 578.459 L1164.46 503.032 L1054.96 421.678 L945.454 321.516 L835.948 216.006 L726.443 127.862  Z" fill="#0000ff" fill-rule="evenodd" fill-opacity="0.1"/>
<polyline clip-path="url(#clip912)" style="stroke:#0000ff; stroke-linecap:round; stroke-linejoin:round; stroke-width:0; stroke-opacity:0.1; fill:none" points="726.443,233.197 835.948,322.425 945.454,423.053 1054.96,523.241 1164.46,605.316 1273.97,678.88 1383.48,750.019 1492.98,809.355 1602.49,869.303 1711.99,933.138 1821.5,987.105 1931,1033.28 2040.51,1079.26 2150.01,1121.05 2259.52,1169.17 "/>
</svg>
