<?xml version="1.0" encoding="utf-8"?>
<svg xmlns="http://www.w3.org/2000/svg" xmlns:xlink="http://www.w3.org/1999/xlink" width="600" height="400" viewBox="0 0 2400 1600">
<defs>
  <clipPath id="clip900">
    <rect x="0" y="0" width="2400" height="1600"/>
  </clipPath>
</defs>
<path clip-path="url(#clip900)" d="M0 1600 L2400 1600 L2400 0 L0 0  Z" fill="#ffffff" fill-rule="evenodd" fill-opacity="1"/>
<defs>
  <clipPath id="clip901">
    <rect x="480" y="0" width="1681" height="1600"/>
  </clipPath>
</defs>
<path clip-path="url(#clip900)" d="M673.506 1273.7 L2305.51 1273.7 L2305.51 94.4882 L673.506 94.4882  Z" fill="#ffffff" fill-rule="evenodd" fill-opacity="1"/>
<defs>
  <clipPath id="clip902">
    <rect x="673" y="94" width="1633" height="1180"/>
  </clipPath>
</defs>
<polyline clip-path="url(#clip902)" style="stroke:#000000; stroke-linecap:round; stroke-linejoin:round; stroke-width:4; stroke-opacity:0.1; fill:none" points="719.695,1273.7 719.695,94.4882 "/>
<polyline clip-path="url(#clip902)" style="stroke:#000000; stroke-linecap:round; stroke-linejoin:round; stroke-width:4; stroke-opacity:0.1; fill:none" points="994.628,1273.7 994.628,94.4882 "/>
<polyline clip-path="url(#clip902)" style="stroke:#000000; stroke-linecap:round; stroke-linejoin:round; stroke-width:4; stroke-opacity:0.1; fill:none" points="1269.56,1273.7 1269.56,94.4882 "/>
<polyline clip-path="url(#clip902)" style="stroke:#000000; stroke-linecap:round; stroke-linejoin:round; stroke-width:4; stroke-opacity:0.1; fill:none" points="1544.5,1273.7 1544.5,94.4882 "/>
<polyline clip-path="url(#clip902)" style="stroke:#000000; stroke-linecap:round; stroke-linejoin:round; stroke-width:4; stroke-opacity:0.1; fill:none" points="1819.43,1273.7 1819.43,94.4882 "/>
<polyline clip-path="url(#clip902)" style="stroke:#000000; stroke-linecap:round; stroke-linejoin:round; stroke-width:4; stroke-opacity:0.1; fill:none" points="2094.36,1273.7 2094.36,94.4882 "/>
<polyline clip-path="url(#clip900)" style="stroke:#000000; stroke-linecap:round; stroke-linejoin:round; stroke-width:8; stroke-opacity:1; fill:none" points="673.506,1273.7 2305.51,1273.7 "/>
<polyline clip-path="url(#clip900)" style="stroke:#000000; stroke-linecap:round; stroke-linejoin:round; stroke-width:8; stroke-opacity:1; fill:none" points="719.695,1273.7 719.695,1254.8 "/>
<polyline clip-path="url(#clip900)" style="stroke:#000000; stroke-linecap:round; stroke-linejoin:round; stroke-width:8; stroke-opacity:1; fill:none" points="994.628,1273.7 994.628,1254.8 "/>
<polyline clip-path="url(#clip900)" style="stroke:#000000; stroke-linecap:round; stroke-linejoin:round; stroke-width:8; stroke-opacity:1; fill:none" points="1269.56,1273.7 1269.56,1254.8 "/>
<polyline clip-path="url(#clip900)" style="stroke:#000000; stroke-linecap:round; stroke-linejoin:round; stroke-width:8; stroke-opacity:1; fill:none" points="1544.5,1273.7 1544.5,1254.8 "/>
<polyline clip-path="url(#clip900)" style="stroke:#000000; stroke-linecap:round; stroke-linejoin:round; stroke-width:8; stroke-opacity:1; fill:none" points="1819.43,1273.7 1819.43,1254.8 "/>
<polyline clip-path="url(#clip900)" style="stroke:#000000; stroke-linecap:round; stroke-linejoin:round; stroke-width:8; stroke-opacity:1; fill:none" points="2094.36,1273.7 2094.36,1254.8 "/>
<path clip-path="url(#clip900)" d="M644.302 1316.33 Q637.08 1316.33 633.422 1323.46 Q629.811 1330.55 629.811 1344.81 Q629.811 1359.02 633.422 1366.15 Q637.08 1373.23 644.302 1373.23 Q651.57 1373.23 655.181 1366.15 Q658.839 1359.02 658.839 1344.81 Q658.839 1330.55 655.181 1323.46 Q651.57 1316.33 644.302 1316.33 M644.302 1308.93 Q655.922 1308.93 662.033 1318.14 Q668.19 1327.31 668.19 1344.81 Q668.19 1362.26 662.033 1371.47 Q655.922 1380.64 644.302 1380.64 Q632.681 1380.64 626.524 1371.47 Q620.413 1362.26 620.413 1344.81 Q620.413 1327.31 626.524 1318.14 Q632.681 1308.93 644.302 1308.93 Z" fill="#000000" fill-rule="nonzero" fill-opacity="1" /><path clip-path="url(#clip900)" d="M684.626 1367.54 L694.394 1367.54 L694.394 1379.3 L684.626 1379.3 L684.626 1367.54 Z" fill="#000000" fill-rule="nonzero" fill-opacity="1" /><path clip-path="url(#clip900)" d="M734.764 1316.33 Q727.542 1316.33 723.885 1323.46 Q720.274 1330.55 720.274 1344.81 Q720.274 1359.02 723.885 1366.15 Q727.542 1373.23 734.764 1373.23 Q742.033 1373.23 745.644 1366.15 Q749.301 1359.02 749.301 1344.81 Q749.301 1330.55 745.644 1323.46 Q742.033 1316.33 734.764 1316.33 M734.764 1308.93 Q746.384 1308.93 752.496 1318.14 Q758.653 1327.31 758.653 1344.81 Q758.653 1362.26 752.496 1371.47 Q746.384 1380.64 734.764 1380.64 Q723.144 1380.64 716.986 1371.47 Q710.875 1362.26 710.875 1344.81 Q710.875 1327.31 716.986 1318.14 Q723.144 1308.93 734.764 1308.93 Z" fill="#000000" fill-rule="nonzero" fill-opacity="1" /><path clip-path="url(#clip900)" d="M795.088 1316.33 Q787.866 1316.33 784.208 1323.46 Q780.597 1330.55 780.597 1344.81 Q780.597 1359.02 784.208 1366.15 Q787.866 1373.23 795.088 1373.23 Q802.356 1373.23 805.967 1366.15 Q809.625 1359.02 809.625 1344.81 Q809.625 1330.55 805.967 1323.46 Q802.356 1316.33 795.088 1316.33 M795.088 1308.93 Q806.708 1308.93 812.819 1318.14 Q818.977 1327.31 818.977 1344.81 Q818.977 1362.26 812.819 1371.47 Q806.708 1380.64 795.088 1380.64 Q783.468 1380.64 777.31 1371.47 Q771.199 1362.26 771.199 1344.81 Q771.199 1327.31 777.31 1318.14 Q783.468 1308.93 795.088 1308.93 Z" fill="#000000" fill-rule="nonzero" fill-opacity="1" /><path clip-path="url(#clip900)" d="M920.231 1316.33 Q913.008 1316.33 909.351 1323.46 Q905.74 1330.55 905.74 1344.81 Q905.74 1359.02 909.351 1366.15 Q913.008 1373.23 920.231 1373.23 Q927.499 1373.23 931.11 1366.15 Q934.768 1359.02 934.768 1344.81 Q934.768 1330.55 931.11 1323.46 Q927.499 1316.33 920.231 1316.33 M920.231 1308.93 Q931.851 1308.93 937.962 1318.14 Q944.119 1327.31 944.119 1344.81 Q944.119 1362.26 937.962 1371.47 Q931.851 1380.64 920.231 1380.64 Q908.61 1380.64 902.453 1371.47 Q896.342 1362.26 896.342 1344.81 Q896.342 1327.31 902.453 1318.14 Q908.61 1308.93 920.231 1308.93 Z" fill="#000000" fill-rule="nonzero" fill-opacity="1" /><path clip-path="url(#clip900)" d="M960.555 1367.54 L970.323 1367.54 L970.323 1379.3 L960.555 1379.3 L960.555 1367.54 Z" fill="#000000" fill-rule="nonzero" fill-opacity="1" /><path clip-path="url(#clip900)" d="M998.749 1371.43 L1031.39 1371.43 L1031.39 1379.3 L987.499 1379.3 L987.499 1371.43 Q992.823 1365.92 1001.99 1356.66 Q1011.2 1347.35 1013.56 1344.67 Q1018.05 1339.62 1019.81 1336.15 Q1021.62 1332.63 1021.62 1329.25 Q1021.62 1323.74 1017.73 1320.27 Q1013.89 1316.8 1007.68 1316.8 Q1003.29 1316.8 998.378 1318.32 Q993.517 1319.85 987.962 1322.95 L987.962 1313.51 Q993.61 1311.24 998.517 1310.08 Q1003.42 1308.93 1007.5 1308.93 Q1018.24 1308.93 1024.63 1314.3 Q1031.02 1319.67 1031.02 1328.65 Q1031.02 1332.91 1029.4 1336.75 Q1027.82 1340.55 1023.61 1345.73 Q1022.45 1347.07 1016.25 1353.51 Q1010.04 1359.9 998.749 1371.43 Z" fill="#000000" fill-rule="nonzero" fill-opacity="1" /><path clip-path="url(#clip900)" d="M1051.11 1310.18 L1087.82 1310.18 L1087.82 1318.05 L1059.67 1318.05 L1059.67 1334.99 Q1061.71 1334.3 1063.75 1333.97 Q1065.79 1333.6 1067.82 1333.6 Q1079.4 1333.6 1086.16 1339.94 Q1092.91 1346.29 1092.91 1357.12 Q1092.91 1368.28 1085.97 1374.48 Q1079.03 1380.64 1066.39 1380.64 Q1062.04 1380.64 1057.5 1379.9 Q1053.01 1379.16 1048.19 1377.68 L1048.19 1368.28 Q1052.36 1370.55 1056.8 1371.66 Q1061.25 1372.77 1066.2 1372.77 Q1074.21 1372.77 1078.89 1368.56 Q1083.56 1364.34 1083.56 1357.12 Q1083.56 1349.9 1078.89 1345.68 Q1074.21 1341.47 1066.2 1341.47 Q1062.45 1341.47 1058.7 1342.31 Q1055 1343.14 1051.11 1344.9 L1051.11 1310.18 Z" fill="#000000" fill-rule="nonzero" fill-opacity="1" /><path clip-path="url(#clip900)" d="M1194.17 1316.33 Q1186.95 1316.33 1183.29 1323.46 Q1179.68 1330.55 1179.68 1344.81 Q1179.68 1359.02 1183.29 1366.15 Q1186.95 1373.23 1194.17 1373.23 Q1201.44 1373.23 1205.05 1366.15 Q1208.71 1359.02 1208.71 1344.81 Q1208.71 1330.55 1205.05 1323.46 Q1201.44 1316.33 1194.17 1316.33 M1194.17 1308.93 Q1205.79 1308.93 1211.9 1318.14 Q1218.06 1327.31 1218.06 1344.81 Q1218.06 1362.26 1211.9 1371.47 Q1205.79 1380.64 1194.17 1380.64 Q1182.55 1380.64 1176.39 1371.47 Q1170.28 1362.26 1170.28 1344.81 Q1170.28 1327.31 1176.39 1318.14 Q1182.55 1308.93 1194.17 1308.93 Z" fill="#000000" fill-rule="nonzero" fill-opacity="1" /><path clip-path="url(#clip900)" d="M1234.49 1367.54 L1244.26 1367.54 L1244.26 1379.3 L1234.49 1379.3 L1234.49 1367.54 Z" fill="#000000" fill-rule="nonzero" fill-opacity="1" /><path clip-path="url(#clip900)" d="M1264.72 1310.18 L1301.44 1310.18 L1301.44 1318.05 L1273.29 1318.05 L1273.29 1334.99 Q1275.33 1334.3 1277.36 1333.97 Q1279.4 1333.6 1281.44 1333.6 Q1293.01 1333.6 1299.77 1339.94 Q1306.53 1346.29 1306.53 1357.12 Q1306.53 1368.28 1299.58 1374.48 Q1292.64 1380.64 1280 1380.64 Q1275.65 1380.64 1271.11 1379.9 Q1266.62 1379.16 1261.81 1377.68 L1261.81 1368.28 Q1265.97 1370.55 1270.42 1371.66 Q1274.86 1372.77 1279.82 1372.77 Q1287.83 1372.77 1292.5 1368.56 Q1297.18 1364.34 1297.18 1357.12 Q1297.18 1349.9 1292.5 1345.68 Q1287.83 1341.47 1279.82 1341.47 Q1276.07 1341.47 1272.32 1342.31 Q1268.61 1343.14 1264.72 1344.9 L1264.72 1310.18 Z" fill="#000000" fill-rule="nonzero" fill-opacity="1" /><path clip-path="url(#clip900)" d="M1344.96 1316.33 Q1337.73 1316.33 1334.08 1323.46 Q1330.46 1330.55 1330.46 1344.81 Q1330.46 1359.02 1334.08 1366.15 Q1337.73 1373.23 1344.96 1373.23 Q1352.22 1373.23 1355.83 1366.15 Q1359.49 1359.02 1359.49 1344.81 Q1359.49 1330.55 1355.83 1323.46 Q1352.22 1316.33 1344.96 1316.33 M1344.96 1308.93 Q1356.58 1308.93 1362.69 1318.14 Q1368.84 1327.31 1368.84 1344.81 Q1368.84 1362.26 1362.69 1371.47 Q1356.58 1380.64 1344.96 1380.64 Q1333.33 1380.64 1327.18 1371.47 Q1321.07 1362.26 1321.07 1344.81 Q1321.07 1327.31 1327.18 1318.14 Q1333.33 1308.93 1344.96 1308.93 Z" fill="#000000" fill-rule="nonzero" fill-opacity="1" /><path clip-path="url(#clip900)" d="M1470.1 1316.33 Q1462.88 1316.33 1459.22 1323.46 Q1455.61 1330.55 1455.61 1344.81 Q1455.61 1359.02 1459.22 1366.15 Q1462.88 1373.23 1470.1 1373.23 Q1477.37 1373.23 1480.98 1366.15 Q1484.63 1359.02 1484.63 1344.81 Q1484.63 1330.55 1480.98 1323.46 Q1477.37 1316.33 1470.1 1316.33 M1470.1 1308.93 Q1481.72 1308.93 1487.83 1318.14 Q1493.99 1327.31 1493.99 1344.81 Q1493.99 1362.26 1487.83 1371.47 Q1481.72 1380.64 1470.1 1380.64 Q1458.48 1380.64 1452.32 1371.47 Q1446.21 1362.26 1446.21 1344.81 Q1446.21 1327.31 1452.32 1318.14 Q1458.48 1308.93 1470.1 1308.93 Z" fill="#000000" fill-rule="nonzero" fill-opacity="1" /><path clip-path="url(#clip900)" d="M1510.42 1367.54 L1520.19 1367.54 L1520.19 1379.3 L1510.42 1379.3 L1510.42 1367.54 Z" fill="#000000" fill-rule="nonzero" fill-opacity="1" /><path clip-path="url(#clip900)" d="M1538.2 1310.18 L1582.64 1310.18 L1582.64 1314.16 L1557.55 1379.3 L1547.78 1379.3 L1571.39 1318.05 L1538.2 1318.05 L1538.2 1310.18 Z" fill="#000000" fill-rule="nonzero" fill-opacity="1" /><path clip-path="url(#clip900)" d="M1600.98 1310.18 L1637.69 1310.18 L1637.69 1318.05 L1609.54 1318.05 L1609.54 1334.99 Q1611.58 1334.3 1613.62 1333.97 Q1615.65 1333.6 1617.69 1333.6 Q1629.26 1333.6 1636.02 1339.94 Q1642.78 1346.29 1642.78 1357.12 Q1642.78 1368.28 1635.84 1374.48 Q1628.89 1380.64 1616.25 1380.64 Q1611.9 1380.64 1607.37 1379.9 Q1602.87 1379.16 1598.06 1377.68 L1598.06 1368.28 Q1602.23 1370.55 1606.67 1371.66 Q1611.12 1372.77 1616.07 1372.77 Q1624.08 1372.77 1628.75 1368.56 Q1633.43 1364.34 1633.43 1357.12 Q1633.43 1349.9 1628.75 1345.68 Q1624.08 1341.47 1616.07 1341.47 Q1612.32 1341.47 1608.57 1342.31 Q1604.87 1343.14 1600.98 1344.9 L1600.98 1310.18 Z" fill="#000000" fill-rule="nonzero" fill-opacity="1" /><path clip-path="url(#clip900)" d="M1723.57 1371.43 L1738.85 1371.43 L1738.85 1318.69 L1722.23 1322.03 L1722.23 1313.51 L1738.76 1310.18 L1748.11 1310.18 L1748.11 1371.43 L1763.39 1371.43 L1763.39 1379.3 L1723.57 1379.3 L1723.57 1371.43 Z" fill="#000000" fill-rule="nonzero" fill-opacity="1" /><path clip-path="url(#clip900)" d="M1782.28 1367.54 L1792.05 1367.54 L1792.05 1379.3 L1782.28 1379.3 L1782.28 1367.54 Z" fill="#000000" fill-rule="nonzero" fill-opacity="1" /><path clip-path="url(#clip900)" d="M1832.42 1316.33 Q1825.19 1316.33 1821.54 1323.46 Q1817.92 1330.55 1817.92 1344.81 Q1817.92 1359.02 1821.54 1366.15 Q1825.19 1373.23 1832.42 1373.23 Q1839.68 1373.23 1843.29 1366.15 Q1846.95 1359.02 1846.95 1344.81 Q1846.95 1330.55 1843.29 1323.46 Q1839.68 1316.33 1832.42 1316.33 M1832.42 1308.93 Q1844.04 1308.93 1850.15 1318.14 Q1856.3 1327.31 1856.3 1344.81 Q1856.3 1362.26 1850.15 1371.47 Q1844.04 1380.64 1832.42 1380.64 Q1820.79 1380.64 1814.64 1371.47 Q1808.53 1362.26 1808.53 1344.81 Q1808.53 1327.31 1814.64 1318.14 Q1820.79 1308.93 1832.42 1308.93 Z" fill="#000000" fill-rule="nonzero" fill-opacity="1" /><path clip-path="url(#clip900)" d="M1892.74 1316.33 Q1885.52 1316.33 1881.86 1323.46 Q1878.25 1330.55 1878.25 1344.81 Q1878.25 1359.02 1881.86 1366.15 Q1885.52 1373.23 1892.74 1373.23 Q1900.01 1373.23 1903.62 1366.15 Q1907.28 1359.02 1907.28 1344.81 Q1907.28 1330.55 1903.62 1323.46 Q1900.01 1316.33 1892.74 1316.33 M1892.74 1308.93 Q1904.36 1308.93 1910.47 1318.14 Q1916.63 1327.31 1916.63 1344.81 Q1916.63 1362.26 1910.47 1371.47 Q1904.36 1380.64 1892.74 1380.64 Q1881.12 1380.64 1874.96 1371.47 Q1868.85 1362.26 1868.85 1344.81 Q1868.85 1327.31 1874.96 1318.14 Q1881.12 1308.93 1892.74 1308.93 Z" fill="#000000" fill-rule="nonzero" fill-opacity="1" /><path clip-path="url(#clip900)" d="M1999.5 1371.43 L2014.78 1371.43 L2014.78 1318.69 L1998.16 1322.03 L1998.16 1313.51 L2014.69 1310.18 L2024.04 1310.18 L2024.04 1371.43 L2039.32 1371.43 L2039.32 1379.3 L1999.5 1379.3 L1999.5 1371.43 Z" fill="#000000" fill-rule="nonzero" fill-opacity="1" /><path clip-path="url(#clip900)" d="M2058.21 1367.54 L2067.97 1367.54 L2067.97 1379.3 L2058.21 1379.3 L2058.21 1367.54 Z" fill="#000000" fill-rule="nonzero" fill-opacity="1" /><path clip-path="url(#clip900)" d="M2096.4 1371.43 L2129.04 1371.43 L2129.04 1379.3 L2085.15 1379.3 L2085.15 1371.43 Q2090.47 1365.92 2099.64 1356.66 Q2108.85 1347.35 2111.21 1344.67 Q2115.71 1339.62 2117.46 1336.15 Q2119.27 1332.63 2119.27 1329.25 Q2119.27 1323.74 2115.38 1320.27 Q2111.54 1316.8 2105.33 1316.8 Q2100.94 1316.8 2096.03 1318.32 Q2091.17 1319.85 2085.61 1322.95 L2085.61 1313.51 Q2091.26 1311.24 2096.17 1310.08 Q2101.08 1308.93 2105.15 1308.93 Q2115.89 1308.93 2122.28 1314.3 Q2128.67 1319.67 2128.67 1328.65 Q2128.67 1332.91 2127.05 1336.75 Q2125.47 1340.55 2121.26 1345.73 Q2120.1 1347.07 2113.9 1353.51 Q2107.7 1359.9 2096.4 1371.43 Z" fill="#000000" fill-rule="nonzero" fill-opacity="1" /><path clip-path="url(#clip900)" d="M2148.76 1310.18 L2185.47 1310.18 L2185.47 1318.05 L2157.33 1318.05 L2157.33 1334.99 Q2159.36 1334.3 2161.4 1333.97 Q2163.44 1333.6 2165.47 1333.6 Q2177.05 1333.6 2183.81 1339.94 Q2190.57 1346.29 2190.57 1357.12 Q2190.57 1368.28 2183.62 1374.48 Q2176.68 1380.64 2164.04 1380.64 Q2159.69 1380.64 2155.15 1379.9 Q2150.66 1379.16 2145.84 1377.68 L2145.84 1368.28 Q2150.01 1370.55 2154.46 1371.66 Q2158.9 1372.77 2163.85 1372.77 Q2171.86 1372.77 2176.54 1368.56 Q2181.21 1364.34 2181.21 1357.12 Q2181.21 1349.9 2176.54 1345.68 Q2171.86 1341.47 2163.85 1341.47 Q2160.1 1341.47 2156.35 1342.31 Q2152.65 1343.14 2148.76 1344.9 L2148.76 1310.18 Z" fill="#000000" fill-rule="nonzero" fill-opacity="1" /><path clip-path="url(#clip900)" d="M1375.05 1484.39 L1375.05 1527.42 L1363.34 1527.42 L1363.34 1484.77 Q1363.34 1474.65 1359.39 1469.62 Q1355.45 1464.59 1347.55 1464.59 Q1338.07 1464.59 1332.59 1470.64 Q1327.12 1476.69 1327.12 1487.13 L1327.12 1527.42 L1315.34 1527.42 L1315.34 1428.37 L1327.12 1428.37 L1327.12 1467.2 Q1331.32 1460.77 1336.99 1457.59 Q1342.72 1454.41 1350.16 1454.41 Q1362.45 1454.41 1368.75 1462.05 Q1375.05 1469.62 1375.05 1484.39 Z" fill="#000000" fill-rule="nonzero" fill-opacity="1" /><path clip-path="url(#clip900)" d="M1426.04 1464.34 Q1416.62 1464.34 1411.15 1471.72 Q1405.67 1479.04 1405.67 1491.84 Q1405.67 1504.63 1411.08 1512.02 Q1416.56 1519.34 1426.04 1519.34 Q1435.4 1519.34 1440.87 1511.96 Q1446.35 1504.57 1446.35 1491.84 Q1446.35 1479.17 1440.87 1471.79 Q1435.4 1464.34 1426.04 1464.34 M1426.04 1454.41 Q1441.32 1454.41 1450.04 1464.34 Q1458.76 1474.27 1458.76 1491.84 Q1458.76 1509.35 1450.04 1519.34 Q1441.32 1529.27 1426.04 1529.27 Q1410.7 1529.27 1401.98 1519.34 Q1393.32 1509.35 1393.32 1491.84 Q1393.32 1474.27 1401.98 1464.34 Q1410.7 1454.41 1426.04 1454.41 Z" fill="#000000" fill-rule="nonzero" fill-opacity="1" /><path clip-path="url(#clip900)" d="M1476.97 1499.29 L1476.97 1456.13 L1488.68 1456.13 L1488.68 1498.84 Q1488.68 1508.96 1492.63 1514.06 Q1496.57 1519.08 1504.47 1519.08 Q1513.95 1519.08 1519.43 1513.04 Q1524.97 1506.99 1524.97 1496.55 L1524.97 1456.13 L1536.68 1456.13 L1536.68 1527.42 L1524.97 1527.42 L1524.97 1516.47 Q1520.7 1522.97 1515.04 1526.15 Q1509.43 1529.27 1501.99 1529.27 Q1489.7 1529.27 1483.33 1521.63 Q1476.97 1513.99 1476.97 1499.29 M1506.44 1454.41 L1506.44 1454.41 Z" fill="#000000" fill-rule="nonzero" fill-opacity="1" /><path clip-path="url(#clip900)" d="M1602.12 1467.08 Q1600.14 1465.93 1597.79 1465.42 Q1595.5 1464.85 1592.7 1464.85 Q1582.77 1464.85 1577.42 1471.34 Q1572.14 1477.77 1572.14 1489.87 L1572.14 1527.42 L1560.36 1527.42 L1560.36 1456.13 L1572.14 1456.13 L1572.14 1467.2 Q1575.83 1460.71 1581.75 1457.59 Q1587.67 1454.41 1596.13 1454.41 Q1597.34 1454.41 1598.81 1454.6 Q1600.27 1454.73 1602.05 1455.05 L1602.12 1467.08 Z" fill="#000000" fill-rule="nonzero" fill-opacity="1" /><path clip-path="url(#clip900)" d="M1659.86 1458.23 L1659.86 1469.3 Q1654.89 1466.76 1649.54 1465.49 Q1644.2 1464.21 1638.47 1464.21 Q1629.75 1464.21 1625.35 1466.89 Q1621.02 1469.56 1621.02 1474.91 Q1621.02 1478.98 1624.14 1481.34 Q1627.26 1483.63 1636.68 1485.73 L1640.69 1486.62 Q1653.17 1489.29 1658.39 1494.19 Q1663.67 1499.03 1663.67 1507.75 Q1663.67 1517.68 1655.78 1523.48 Q1647.95 1529.27 1634.2 1529.27 Q1628.47 1529.27 1622.23 1528.12 Q1616.06 1527.04 1609.18 1524.81 L1609.18 1512.72 Q1615.68 1516.09 1621.98 1517.81 Q1628.28 1519.47 1634.46 1519.47 Q1642.73 1519.47 1647.19 1516.67 Q1651.64 1513.8 1651.64 1508.64 Q1651.64 1503.87 1648.4 1501.32 Q1645.21 1498.78 1634.33 1496.42 L1630.25 1495.47 Q1619.37 1493.18 1614.53 1488.47 Q1609.69 1483.69 1609.69 1475.42 Q1609.69 1465.36 1616.82 1459.88 Q1623.95 1454.41 1637.07 1454.41 Q1643.56 1454.41 1649.29 1455.36 Q1655.02 1456.32 1659.86 1458.23 Z" fill="#000000" fill-rule="nonzero" fill-opacity="1" /><polyline clip-path="url(#clip902)" style="stroke:#000000; stroke-linecap:round; stroke-linejoin:round; stroke-width:4; stroke-opacity:0.1; fill:none" points="673.506,1237.31 2305.51,1237.31 "/>
<polyline clip-path="url(#clip902)" style="stroke:#000000; stroke-linecap:round; stroke-linejoin:round; stroke-width:4; stroke-opacity:0.1; fill:none" points="673.506,917.79 2305.51,917.79 "/>
<polyline clip-path="url(#clip902)" style="stroke:#000000; stroke-linecap:round; stroke-linejoin:round; stroke-width:4; stroke-opacity:0.1; fill:none" points="673.506,598.268 2305.51,598.268 "/>
<polyline clip-path="url(#clip902)" style="stroke:#000000; stroke-linecap:round; stroke-linejoin:round; stroke-width:4; stroke-opacity:0.1; fill:none" points="673.506,278.746 2305.51,278.746 "/>
<polyline clip-path="url(#clip900)" style="stroke:#000000; stroke-linecap:round; stroke-linejoin:round; stroke-width:8; stroke-opacity:1; fill:none" points="673.506,1273.7 673.506,94.4882 "/>
<polyline clip-path="url(#clip900)" style="stroke:#000000; stroke-linecap:round; stroke-linejoin:round; stroke-width:8; stroke-opacity:1; fill:none" points="673.506,1237.31 692.404,1237.31 "/>
<polyline clip-path="url(#clip900)" style="stroke:#000000; stroke-linecap:round; stroke-linejoin:round; stroke-width:8; stroke-opacity:1; fill:none" points="673.506,917.79 692.404,917.79 "/>
<polyline clip-path="url(#clip900)" style="stroke:#000000; stroke-linecap:round; stroke-linejoin:round; stroke-width:8; stroke-opacity:1; fill:none" points="673.506,598.268 692.404,598.268 "/>
<polyline clip-path="url(#clip900)" style="stroke:#000000; stroke-linecap:round; stroke-linejoin:round; stroke-width:8; stroke-opacity:1; fill:none" points="673.506,278.746 692.404,278.746 "/>
<path clip-path="url(#clip900)" d="M384.128 1264 L399.405 1264 L399.405 1211.27 L382.785 1214.6 L382.785 1206.09 L399.313 1202.75 L408.665 1202.75 L408.665 1264 L423.942 1264 L423.942 1271.87 L384.128 1271.87 L384.128 1264 Z" fill="#000000" fill-rule="nonzero" fill-opacity="1" /><path clip-path="url(#clip900)" d="M471.164 1234.6 Q477.877 1236.04 481.627 1240.58 Q485.423 1245.11 485.423 1251.78 Q485.423 1262.01 478.386 1267.61 Q471.349 1273.21 458.387 1273.21 Q454.035 1273.21 449.405 1272.33 Q444.822 1271.5 439.914 1269.79 L439.914 1260.76 Q443.803 1263.03 448.433 1264.19 Q453.063 1265.34 458.109 1265.34 Q466.905 1265.34 471.488 1261.87 Q476.118 1258.4 476.118 1251.78 Q476.118 1245.67 471.812 1242.24 Q467.553 1238.77 459.914 1238.77 L451.859 1238.77 L451.859 1231.09 L460.285 1231.09 Q467.183 1231.09 470.84 1228.35 Q474.498 1225.58 474.498 1220.39 Q474.498 1215.07 470.701 1212.24 Q466.951 1209.37 459.914 1209.37 Q456.072 1209.37 451.674 1210.21 Q447.276 1211.04 441.998 1212.8 L441.998 1204.46 Q447.322 1202.98 451.951 1202.24 Q456.627 1201.5 460.748 1201.5 Q471.396 1201.5 477.599 1206.36 Q483.803 1211.18 483.803 1219.42 Q483.803 1225.16 480.516 1229.14 Q477.229 1233.08 471.164 1234.6 Z" fill="#000000" fill-rule="nonzero" fill-opacity="1" /><path clip-path="url(#clip900)" d="M523.155 1208.91 Q515.933 1208.91 512.275 1216.04 Q508.664 1223.12 508.664 1237.38 Q508.664 1251.59 512.275 1258.72 Q515.933 1265.81 523.155 1265.81 Q530.423 1265.81 534.034 1258.72 Q537.692 1251.59 537.692 1237.38 Q537.692 1223.12 534.034 1216.04 Q530.423 1208.91 523.155 1208.91 M523.155 1201.5 Q534.775 1201.5 540.886 1210.71 Q547.043 1219.88 547.043 1237.38 Q547.043 1254.83 540.886 1264.05 Q534.775 1273.21 523.155 1273.21 Q511.534 1273.21 505.377 1264.05 Q499.266 1254.83 499.266 1237.38 Q499.266 1219.88 505.377 1210.71 Q511.534 1201.5 523.155 1201.5 Z" fill="#000000" fill-rule="nonzero" fill-opacity="1" /><path clip-path="url(#clip900)" d="M563.479 1260.11 L573.247 1260.11 L573.247 1271.87 L563.479 1271.87 L563.479 1260.11 Z" fill="#000000" fill-rule="nonzero" fill-opacity="1" /><path clip-path="url(#clip900)" d="M613.617 1208.91 Q606.395 1208.91 602.738 1216.04 Q599.127 1223.12 599.127 1237.38 Q599.127 1251.59 602.738 1258.72 Q606.395 1265.81 613.617 1265.81 Q620.886 1265.81 624.497 1258.72 Q628.154 1251.59 628.154 1237.38 Q628.154 1223.12 624.497 1216.04 Q620.886 1208.91 613.617 1208.91 M613.617 1201.5 Q625.238 1201.5 631.349 1210.71 Q637.506 1219.88 637.506 1237.38 Q637.506 1254.83 631.349 1264.05 Q625.238 1273.21 613.617 1273.21 Q601.997 1273.21 595.84 1264.05 Q589.728 1254.83 589.728 1237.38 Q589.728 1219.88 595.84 1210.71 Q601.997 1201.5 613.617 1201.5 Z" fill="#000000" fill-rule="nonzero" fill-opacity="1" /><path clip-path="url(#clip900)" d="M384.128 944.48 L399.405 944.48 L399.405 891.748 L382.785 895.082 L382.785 886.563 L399.313 883.23 L408.665 883.23 L408.665 944.48 L423.942 944.48 L423.942 952.35 L384.128 952.35 L384.128 944.48 Z" fill="#000000" fill-rule="nonzero" fill-opacity="1" /><path clip-path="url(#clip900)" d="M468.525 891.378 L444.914 928.276 L468.525 928.276 L468.525 891.378 M466.072 883.23 L477.831 883.23 L477.831 928.276 L487.692 928.276 L487.692 936.054 L477.831 936.054 L477.831 952.35 L468.525 952.35 L468.525 936.054 L437.322 936.054 L437.322 927.026 L466.072 883.23 Z" fill="#000000" fill-rule="nonzero" fill-opacity="1" /><path clip-path="url(#clip900)" d="M523.155 889.387 Q515.933 889.387 512.275 896.517 Q508.664 903.6 508.664 917.859 Q508.664 932.072 512.275 939.202 Q515.933 946.285 523.155 946.285 Q530.423 946.285 534.034 939.202 Q537.692 932.072 537.692 917.859 Q537.692 903.6 534.034 896.517 Q530.423 889.387 523.155 889.387 M523.155 881.98 Q534.775 881.98 540.886 891.193 Q547.043 900.36 547.043 917.859 Q547.043 935.313 540.886 944.526 Q534.775 953.693 523.155 953.693 Q511.534 953.693 505.377 944.526 Q499.266 935.313 499.266 917.859 Q499.266 900.36 505.377 891.193 Q511.534 881.98 523.155 881.98 Z" fill="#000000" fill-rule="nonzero" fill-opacity="1" /><path clip-path="url(#clip900)" d="M563.479 940.591 L573.247 940.591 L573.247 952.35 L563.479 952.35 L563.479 940.591 Z" fill="#000000" fill-rule="nonzero" fill-opacity="1" /><path clip-path="url(#clip900)" d="M613.617 889.387 Q606.395 889.387 602.738 896.517 Q599.127 903.6 599.127 917.859 Q599.127 932.072 602.738 939.202 Q606.395 946.285 613.617 946.285 Q620.886 946.285 624.497 939.202 Q628.154 932.072 628.154 917.859 Q628.154 903.6 624.497 896.517 Q620.886 889.387 613.617 889.387 M613.617 881.98 Q625.238 881.98 631.349 891.193 Q637.506 900.36 637.506 917.859 Q637.506 935.313 631.349 944.526 Q625.238 953.693 613.617 953.693 Q601.997 953.693 595.84 944.526 Q589.728 935.313 589.728 917.859 Q589.728 900.36 595.84 891.193 Q601.997 881.98 613.617 881.98 Z" fill="#000000" fill-rule="nonzero" fill-opacity="1" /><path clip-path="url(#clip900)" d="M384.128 624.958 L399.405 624.958 L399.405 572.227 L382.785 575.56 L382.785 567.041 L399.313 563.708 L408.665 563.708 L408.665 624.958 L423.942 624.958 L423.942 632.828 L384.128 632.828 L384.128 624.958 Z" fill="#000000" fill-rule="nonzero" fill-opacity="1" /><path clip-path="url(#clip900)" d="M442.924 563.708 L479.636 563.708 L479.636 571.578 L451.488 571.578 L451.488 588.523 Q453.525 587.828 455.562 587.504 Q457.6 587.134 459.637 587.134 Q471.211 587.134 477.97 593.476 Q484.729 599.819 484.729 610.652 Q484.729 621.81 477.785 628.013 Q470.84 634.171 458.201 634.171 Q453.85 634.171 449.313 633.43 Q444.822 632.689 440.007 631.208 L440.007 621.81 Q444.174 624.078 448.618 625.189 Q453.063 626.3 458.016 626.3 Q466.025 626.3 470.701 622.087 Q475.377 617.874 475.377 610.652 Q475.377 603.43 470.701 599.217 Q466.025 595.004 458.016 595.004 Q454.266 595.004 450.516 595.838 Q446.813 596.671 442.924 598.43 L442.924 563.708 Z" fill="#000000" fill-rule="nonzero" fill-opacity="1" /><path clip-path="url(#clip900)" d="M523.155 569.865 Q515.933 569.865 512.275 576.995 Q508.664 584.078 508.664 598.337 Q508.664 612.55 512.275 619.68 Q515.933 626.763 523.155 626.763 Q530.423 626.763 534.034 619.68 Q537.692 612.55 537.692 598.337 Q537.692 584.078 534.034 576.995 Q530.423 569.865 523.155 569.865 M523.155 562.458 Q534.775 562.458 540.886 571.671 Q547.043 580.838 547.043 598.337 Q547.043 615.791 540.886 625.004 Q534.775 634.171 523.155 634.171 Q511.534 634.171 505.377 625.004 Q499.266 615.791 499.266 598.337 Q499.266 580.838 505.377 571.671 Q511.534 562.458 523.155 562.458 Z" fill="#000000" fill-rule="nonzero" fill-opacity="1" /><path clip-path="url(#clip900)" d="M563.479 621.069 L573.247 621.069 L573.247 632.828 L563.479 632.828 L563.479 621.069 Z" fill="#000000" fill-rule="nonzero" fill-opacity="1" /><path clip-path="url(#clip900)" d="M613.617 569.865 Q606.395 569.865 602.738 576.995 Q599.127 584.078 599.127 598.337 Q599.127 612.55 602.738 619.68 Q606.395 626.763 613.617 626.763 Q620.886 626.763 624.497 619.68 Q628.154 612.55 628.154 598.337 Q628.154 584.078 624.497 576.995 Q620.886 569.865 613.617 569.865 M613.617 562.458 Q625.238 562.458 631.349 571.671 Q637.506 580.838 637.506 598.337 Q637.506 615.791 631.349 625.004 Q625.238 634.171 613.617 634.171 Q601.997 634.171 595.84 625.004 Q589.728 615.791 589.728 598.337 Q589.728 580.838 595.84 571.671 Q601.997 562.458 613.617 562.458 Z" fill="#000000" fill-rule="nonzero" fill-opacity="1" /><path clip-path="url(#clip900)" d="M384.128 305.436 L399.405 305.436 L399.405 252.705 L382.785 256.038 L382.785 247.519 L399.313 244.186 L408.665 244.186 L408.665 305.436 L423.942 305.436 L423.942 313.306 L384.128 313.306 L384.128 305.436 Z" fill="#000000" fill-rule="nonzero" fill-opacity="1" /><path clip-path="url(#clip900)" d="M463.988 275.019 Q457.692 275.019 453.988 279.325 Q450.331 283.63 450.331 291.13 Q450.331 298.584 453.988 302.936 Q457.692 307.241 463.988 307.241 Q470.285 307.241 473.942 302.936 Q477.646 298.584 477.646 291.13 Q477.646 283.63 473.942 279.325 Q470.285 275.019 463.988 275.019 M482.553 245.714 L482.553 254.232 Q479.035 252.566 475.424 251.686 Q471.859 250.806 468.34 250.806 Q459.081 250.806 454.174 257.056 Q449.313 263.306 448.618 275.945 Q451.35 271.917 455.47 269.788 Q459.59 267.612 464.544 267.612 Q474.961 267.612 480.979 273.954 Q487.044 280.251 487.044 291.13 Q487.044 301.778 480.748 308.214 Q474.451 314.649 463.988 314.649 Q451.998 314.649 445.655 305.482 Q439.313 296.269 439.313 278.816 Q439.313 262.427 447.09 252.705 Q454.868 242.936 467.97 242.936 Q471.488 242.936 475.053 243.631 Q478.664 244.325 482.553 245.714 Z" fill="#000000" fill-rule="nonzero" fill-opacity="1" /><path clip-path="url(#clip900)" d="M523.155 250.344 Q515.933 250.344 512.275 257.473 Q508.664 264.556 508.664 278.816 Q508.664 293.028 512.275 300.158 Q515.933 307.241 523.155 307.241 Q530.423 307.241 534.034 300.158 Q537.692 293.028 537.692 278.816 Q537.692 264.556 534.034 257.473 Q530.423 250.344 523.155 250.344 M523.155 242.936 Q534.775 242.936 540.886 252.149 Q547.043 261.316 547.043 278.816 Q547.043 296.269 540.886 305.482 Q534.775 314.649 523.155 314.649 Q511.534 314.649 505.377 305.482 Q499.266 296.269 499.266 278.816 Q499.266 261.316 505.377 252.149 Q511.534 242.936 523.155 242.936 Z" fill="#000000" fill-rule="nonzero" fill-opacity="1" /><path clip-path="url(#clip900)" d="M563.479 301.547 L573.247 301.547 L573.247 313.306 L563.479 313.306 L563.479 301.547 Z" fill="#000000" fill-rule="nonzero" fill-opacity="1" /><path clip-path="url(#clip900)" d="M613.617 250.344 Q606.395 250.344 602.738 257.473 Q599.127 264.556 599.127 278.816 Q599.127 293.028 602.738 300.158 Q606.395 307.241 613.617 307.241 Q620.886 307.241 624.497 300.158 Q628.154 293.028 628.154 278.816 Q628.154 264.556 624.497 257.473 Q620.886 250.344 613.617 250.344 M613.617 242.936 Q625.238 242.936 631.349 252.149 Q637.506 261.316 637.506 278.816 Q637.506 296.269 631.349 305.482 Q625.238 314.649 613.617 314.649 Q601.997 314.649 595.84 305.482 Q589.728 296.269 589.728 278.816 Q589.728 261.316 595.84 252.149 Q601.997 242.936 613.617 242.936 Z" fill="#000000" fill-rule="nonzero" fill-opacity="1" /><path clip-path="url(#clip900)" d="M307.579 931.845 L345.391 931.845 L345.391 943.622 L246.977 943.622 L246.977 931.845 L257.799 931.845 Q251.433 928.153 248.378 922.551 Q245.258 916.886 245.258 909.056 Q245.258 896.07 255.571 887.986 Q265.883 879.837 282.689 879.837 Q299.494 879.837 309.807 887.986 Q320.119 896.07 320.119 909.056 Q320.119 916.886 317.064 922.551 Q313.944 928.153 307.579 931.845 M282.689 891.996 Q269.766 891.996 262.446 897.343 Q255.062 902.627 255.062 911.921 Q255.062 921.215 262.446 926.562 Q269.766 931.845 282.689 931.845 Q295.611 931.845 302.995 926.562 Q310.316 921.215 310.316 911.921 Q310.316 902.627 302.995 897.343 Q295.611 891.996 282.689 891.996 Z" fill="#000000" fill-rule="nonzero" fill-opacity="1" /><path clip-path="url(#clip900)" d="M282.434 828.021 Q282.434 842.216 285.681 847.691 Q288.927 853.165 296.757 853.165 Q302.995 853.165 306.688 849.091 Q310.316 844.953 310.316 837.887 Q310.316 828.148 303.441 822.291 Q296.502 816.371 285.044 816.371 L282.434 816.371 L282.434 828.021 M277.596 804.658 L318.273 804.658 L318.273 816.371 L307.451 816.371 Q313.944 820.382 317.064 826.366 Q320.119 832.349 320.119 841.007 Q320.119 851.956 314.008 858.449 Q307.833 864.878 297.521 864.878 Q285.49 864.878 279.379 856.857 Q273.268 848.773 273.268 832.795 L273.268 816.371 L272.122 816.371 Q264.037 816.371 259.645 821.719 Q255.189 827.002 255.189 836.614 Q255.189 842.725 256.653 848.518 Q258.117 854.311 261.045 859.658 L250.224 859.658 Q247.741 853.229 246.532 847.181 Q245.258 841.134 245.258 835.405 Q245.258 819.936 253.279 812.297 Q261.3 804.658 277.596 804.658 Z" fill="#000000" fill-rule="nonzero" fill-opacity="1" /><path clip-path="url(#clip900)" d="M257.926 739.219 Q256.78 741.192 256.271 743.548 Q255.698 745.839 255.698 748.64 Q255.698 758.571 262.191 763.918 Q268.621 769.201 280.715 769.201 L318.273 769.201 L318.273 780.978 L246.977 780.978 L246.977 769.201 L258.054 769.201 Q251.561 765.509 248.441 759.589 Q245.258 753.669 245.258 745.203 Q245.258 743.993 245.449 742.529 Q245.577 741.065 245.895 739.283 L257.926 739.219 Z" fill="#000000" fill-rule="nonzero" fill-opacity="1" /><path clip-path="url(#clip900)" d="M279.697 668.814 L285.426 668.814 L285.426 722.668 Q297.521 721.904 303.887 715.411 Q310.189 708.855 310.189 697.205 Q310.189 690.458 308.534 684.156 Q306.878 677.79 303.568 671.552 L314.645 671.552 Q317.318 677.854 318.719 684.474 Q320.119 691.094 320.119 697.906 Q320.119 714.966 310.189 724.96 Q300.258 734.89 283.325 734.89 Q265.82 734.89 255.571 725.469 Q245.258 715.984 245.258 699.943 Q245.258 685.556 254.552 677.217 Q263.783 668.814 279.697 668.814 M276.259 680.527 Q266.647 680.654 260.918 685.938 Q255.189 691.158 255.189 699.815 Q255.189 709.618 260.727 715.539 Q266.265 721.395 276.323 722.286 L276.259 680.527 Z" fill="#000000" fill-rule="nonzero" fill-opacity="1" /><path clip-path="url(#clip900)" d="M275.241 590.325 L318.273 590.325 L318.273 602.038 L275.623 602.038 Q265.501 602.038 260.472 605.985 Q255.444 609.931 255.444 617.825 Q255.444 627.31 261.491 632.784 Q267.538 638.259 277.978 638.259 L318.273 638.259 L318.273 650.035 L246.977 650.035 L246.977 638.259 L258.054 638.259 Q251.624 634.058 248.441 628.392 Q245.258 622.663 245.258 615.215 Q245.258 602.929 252.897 596.627 Q260.472 590.325 275.241 590.325 Z" fill="#000000" fill-rule="nonzero" fill-opacity="1" /><path clip-path="url(#clip900)" d="M302.104 565.308 L302.104 551.876 L318.273 551.876 L318.273 565.308 L302.104 565.308 Z" fill="#000000" fill-rule="nonzero" fill-opacity="1" /><path clip-path="url(#clip900)" d="M223.233 485.673 L223.233 424.562 L228.708 424.562 L318.273 459.064 L318.273 472.496 L234.055 440.031 L234.055 485.673 L223.233 485.673 Z" fill="#000000" fill-rule="nonzero" fill-opacity="1" /><polyline clip-path="url(#clip902)" style="stroke:#008000; stroke-linecap:round; stroke-linejoin:round; stroke-width:8; stroke-opacity:1; fill:none" points="719.695,500.08 829.668,643.095 939.642,155.074 1049.62,213.047 1159.59,396.469 1269.56,228.521 1379.54,289.633 1489.51,424.715 1599.48,334.442 1709.46,306.415 1819.43,497.377 1929.4,1025.24 2039.38,391.195 2149.35,739.775 2259.32,566.204 "/>
<circle clip-path="url(#clip902)" cx="719.695" cy="500.08" r="14.4" fill="#008000" fill-rule="evenodd" fill-opacity="1" stroke="#000000" stroke-opacity="1" stroke-width="6.4"/>
<circle clip-path="url(#clip902)" cx="829.668" cy="643.095" r="14.4" fill="#008000" fill-rule="evenodd" fill-opacity="1" stroke="#000000" stroke-opacity="1" stroke-width="6.4"/>
<circle clip-path="url(#clip902)" cx="939.642" cy="155.074" r="14.4" fill="#008000" fill-rule="evenodd" fill-opacity="1" stroke="#000000" stroke-opacity="1" stroke-width="6.4"/>
<circle clip-path="url(#clip902)" cx="1049.62" cy="213.047" r="14.4" fill="#008000" fill-rule="evenodd" fill-opacity="1" stroke="#000000" stroke-opacity="1" stroke-width="6.4"/>
<circle clip-path="url(#clip902)" cx="1159.59" cy="396.469" r="14.4" fill="#008000" fill-rule="evenodd" fill-opacity="1" stroke="#000000" stroke-opacity="1" stroke-width="6.4"/>
<circle clip-path="url(#clip902)" cx="1269.56" cy="228.521" r="14.4" fill="#008000" fill-rule="evenodd" fill-opacity="1" stroke="#000000" stroke-opacity="1" stroke-width="6.4"/>
<circle clip-path="url(#clip902)" cx="1379.54" cy="289.633" r="14.4" fill="#008000" fill-rule="evenodd" fill-opacity="1" stroke="#000000" stroke-opacity="1" stroke-width="6.4"/>
<circle clip-path="url(#clip902)" cx="1489.51" cy="424.715" r="14.4" fill="#008000" fill-rule="evenodd" fill-opacity="1" stroke="#000000" stroke-opacity="1" stroke-width="6.4"/>
<circle clip-path="url(#clip902)" cx="1599.48" cy="334.442" r="14.4" fill="#008000" fill-rule="evenodd" fill-opacity="1" stroke="#000000" stroke-opacity="1" stroke-width="6.4"/>
<circle clip-path="url(#clip902)" cx="1709.46" cy="306.415" r="14.4" fill="#008000" fill-rule="evenodd" fill-opacity="1" stroke="#000000" stroke-opacity="1" stroke-width="6.4"/>
<circle clip-path="url(#clip902)" cx="1819.43" cy="497.377" r="14.4" fill="#008000" fill-rule="evenodd" fill-opacity="1" stroke="#000000" stroke-opacity="1" stroke-width="6.4"/>
<circle clip-path="url(#clip902)" cx="1929.4" cy="1025.24" r="14.4" fill="#008000" fill-rule="evenodd" fill-opacity="1" stroke="#000000" stroke-opacity="1" stroke-width="6.4"/>
<circle clip-path="url(#clip902)" cx="2039.38" cy="391.195" r="14.4" fill="#008000" fill-rule="evenodd" fill-opacity="1" stroke="#000000" stroke-opacity="1" stroke-width="6.4"/>
<circle clip-path="url(#clip902)" cx="2149.35" cy="739.775" r="14.4" fill="#008000" fill-rule="evenodd" fill-opacity="1" stroke="#000000" stroke-opacity="1" stroke-width="6.4"/>
<circle clip-path="url(#clip902)" cx="2259.32" cy="566.204" r="14.4" fill="#008000" fill-rule="evenodd" fill-opacity="1" stroke="#000000" stroke-opacity="1" stroke-width="6.4"/>
<polyline clip-path="url(#clip902)" style="stroke:#00008b; stroke-linecap:round; stroke-linejoin:round; stroke-width:8; stroke-opacity:1; fill:none" points="719.695,495.754 829.668,362.37 939.642,302.908 1049.62,288.604 1159.59,305.098 1269.56,343.785 1379.54,385.237 1489.51,448.343 1599.48,518.074 1709.46,600.582 1819.43,697.122 1929.4,778.545 2039.38,876.415 2149.35,976.877 2259.32,1072.2 "/>
<path clip-path="url(#clip902)" d="M719.695 649 L829.668 521.609 L939.642 474.288 L1049.62 454.698 L1159.59 469.162 L1269.56 512.345 L1379.54 567.125 L1489.51 609.484 L1599.48 686.763 L1709.46 769.482 L1819.43 871.54 L1929.4 942.548 L2039.38 1041 L2149.35 1136.67 L2259.32 1240.32 L2259.32 906.36 L2149.35 818.518 L2039.38 713.971 L1929.4 605.411 L1819.43 530.448 L1709.46 434.577 L1599.48 353.517 L1489.51 286.976 L1379.54 208.873 L1269.56 175.846 L1159.59 141.348 L1049.62 127.862 L939.642 129.659 L829.668 195.771 L719.695 335.539  Z" fill="#0000ff" fill-rule="evenodd" fill-opacity="0.1"/>
<polyline clip-path="url(#clip902)" style="stroke:#0000ff; stroke-linecap:round; stroke-linejoin:round; stroke-width:0; stroke-opacity:0.1; fill:none" points="719.695,649 829.668,521.609 939.642,474.288 1049.62,454.698 1159.59,469.162 1269.56,512.345 1379.54,567.125 1489.51,609.484 1599.48,686.763 1709.46,769.482 1819.43,871.54 1929.4,942.548 2039.38,1041 2149.35,1136.67 2259.32,1240.32 "/>
</svg>
