<?xml version="1.0" encoding="utf-8"?>
<svg xmlns="http://www.w3.org/2000/svg" xmlns:xlink="http://www.w3.org/1999/xlink" width="600" height="400" viewBox="0 0 2400 1600">
<defs>
  <clipPath id="clip690">
    <rect x="0" y="0" width="2400" height="1600"/>
  </clipPath>
</defs>
<path clip-path="url(#clip690)" d="M0 1600 L2400 1600 L2400 0 L0 0  Z" fill="#ffffff" fill-rule="evenodd" fill-opacity="1"/>
<defs>
  <clipPath id="clip691">
    <rect x="480" y="0" width="1681" height="1600"/>
  </clipPath>
</defs>
<path clip-path="url(#clip690)" d="M680.45 1273.7 L2305.51 1273.7 L2305.51 94.4882 L680.45 94.4882  Z" fill="#ffffff" fill-rule="evenodd" fill-opacity="1"/>
<defs>
  <clipPath id="clip692">
    <rect x="680" y="94" width="1626" height="1180"/>
  </clipPath>
</defs>
<polyline clip-path="url(#clip692)" style="stroke:#000000; stroke-linecap:round; stroke-linejoin:round; stroke-width:4; stroke-opacity:0.1; fill:none" points="726.443,1273.7 726.443,94.4882 "/>
<polyline clip-path="url(#clip692)" style="stroke:#000000; stroke-linecap:round; stroke-linejoin:round; stroke-width:4; stroke-opacity:0.1; fill:none" points="1000.21,1273.7 1000.21,94.4882 "/>
<polyline clip-path="url(#clip692)" style="stroke:#000000; stroke-linecap:round; stroke-linejoin:round; stroke-width:4; stroke-opacity:0.1; fill:none" points="1273.97,1273.7 1273.97,94.4882 "/>
<polyline clip-path="url(#clip692)" style="stroke:#000000; stroke-linecap:round; stroke-linejoin:round; stroke-width:4; stroke-opacity:0.1; fill:none" points="1547.73,1273.7 1547.73,94.4882 "/>
<polyline clip-path="url(#clip692)" style="stroke:#000000; stroke-linecap:round; stroke-linejoin:round; stroke-width:4; stroke-opacity:0.1; fill:none" points="1821.5,1273.7 1821.5,94.4882 "/>
<polyline clip-path="url(#clip692)" style="stroke:#000000; stroke-linecap:round; stroke-linejoin:round; stroke-width:4; stroke-opacity:0.1; fill:none" points="2095.26,1273.7 2095.26,94.4882 "/>
<polyline clip-path="url(#clip690)" style="stroke:#000000; stroke-linecap:round; stroke-linejoin:round; stroke-width:8; stroke-opacity:1; fill:none" points="680.45,1273.7 2305.51,1273.7 "/>
<polyline clip-path="url(#clip690)" style="stroke:#000000; stroke-linecap:round; stroke-linejoin:round; stroke-width:8; stroke-opacity:1; fill:none" points="726.443,1273.7 726.443,1254.8 "/>
<polyline clip-path="url(#clip690)" style="stroke:#000000; stroke-linecap:round; stroke-linejoin:round; stroke-width:8; stroke-opacity:1; fill:none" points="1000.21,1273.7 1000.21,1254.8 "/>
<polyline clip-path="url(#clip690)" style="stroke:#000000; stroke-linecap:round; stroke-linejoin:round; stroke-width:8; stroke-opacity:1; fill:none" points="1273.97,1273.7 1273.97,1254.8 "/>
<polyline clip-path="url(#clip690)" style="stroke:#000000; stroke-linecap:round; stroke-linejoin:round; stroke-width:8; stroke-opacity:1; fill:none" points="1547.73,1273.7 1547.73,1254.8 "/>
<polyline clip-path="url(#clip690)" style="stroke:#000000; stroke-linecap:round; stroke-linejoin:round; stroke-width:8; stroke-opacity:1; fill:none" points="1821.5,1273.7 1821.5,1254.8 "/>
<polyline clip-path="url(#clip690)" style="stroke:#000000; stroke-linecap:round; stroke-linejoin:round; stroke-width:8; stroke-opacity:1; fill:none" points="2095.26,1273.7 2095.26,1254.8 "/>
<path clip-path="url(#clip690)" d="M651.05 1316.33 Q643.827 1316.33 640.17 1323.46 Q636.559 1330.55 636.559 1344.81 Q636.559 1359.02 640.17 1366.15 Q643.827 1373.23 651.05 1373.23 Q658.318 1373.23 661.929 1366.15 Q665.587 1359.02 665.587 1344.81 Q665.587 1330.55 661.929 1323.46 Q658.318 1316.33 651.05 1316.33 M651.05 1308.93 Q662.67 1308.93 668.781 1318.14 Q674.938 1327.31 674.938 1344.81 Q674.938 1362.26 668.781 1371.47 Q662.67 1380.64 651.05 1380.64 Q639.429 1380.64 633.272 1371.47 Q627.161 1362.26 627.161 1344.81 Q627.161 1327.31 633.272 1318.14 Q639.429 1308.93 651.05 1308.93 Z" fill="#000000" fill-rule="nonzero" fill-opacity="1" /><path clip-path="url(#clip690)" d="M691.373 1367.54 L701.142 1367.54 L701.142 1379.3 L691.373 1379.3 L691.373 1367.54 Z" fill="#000000" fill-rule="nonzero" fill-opacity="1" /><path clip-path="url(#clip690)" d="M741.512 1316.33 Q734.29 1316.33 730.632 1323.46 Q727.021 1330.55 727.021 1344.81 Q727.021 1359.02 730.632 1366.15 Q734.29 1373.23 741.512 1373.23 Q748.781 1373.23 752.392 1366.15 Q756.049 1359.02 756.049 1344.81 Q756.049 1330.55 752.392 1323.46 Q748.781 1316.33 741.512 1316.33 M741.512 1308.93 Q753.132 1308.93 759.243 1318.14 Q765.401 1327.31 765.401 1344.81 Q765.401 1362.26 759.243 1371.47 Q753.132 1380.64 741.512 1380.64 Q729.892 1380.64 723.734 1371.47 Q717.623 1362.26 717.623 1344.81 Q717.623 1327.31 723.734 1318.14 Q729.892 1308.93 741.512 1308.93 Z" fill="#000000" fill-rule="nonzero" fill-opacity="1" /><path clip-path="url(#clip690)" d="M801.836 1316.33 Q794.614 1316.33 790.956 1323.46 Q787.345 1330.55 787.345 1344.81 Q787.345 1359.02 790.956 1366.15 Q794.614 1373.23 801.836 1373.23 Q809.104 1373.23 812.715 1366.15 Q816.373 1359.02 816.373 1344.81 Q816.373 1330.55 812.715 1323.46 Q809.104 1316.33 801.836 1316.33 M801.836 1308.93 Q813.456 1308.93 819.567 1318.14 Q825.725 1327.31 825.725 1344.81 Q825.725 1362.26 819.567 1371.47 Q813.456 1380.64 801.836 1380.64 Q790.215 1380.64 784.058 1371.47 Q777.947 1362.26 777.947 1344.81 Q777.947 1327.31 784.058 1318.14 Q790.215 1308.93 801.836 1308.93 Z" fill="#000000" fill-rule="nonzero" fill-opacity="1" /><path clip-path="url(#clip690)" d="M925.809 1316.33 Q918.586 1316.33 914.929 1323.46 Q911.318 1330.55 911.318 1344.81 Q911.318 1359.02 914.929 1366.15 Q918.586 1373.23 925.809 1373.23 Q933.077 1373.23 936.688 1366.15 Q940.346 1359.02 940.346 1344.81 Q940.346 1330.55 936.688 1323.46 Q933.077 1316.33 925.809 1316.33 M925.809 1308.93 Q937.429 1308.93 943.54 1318.14 Q949.697 1327.31 949.697 1344.81 Q949.697 1362.26 943.54 1371.47 Q937.429 1380.64 925.809 1380.64 Q914.188 1380.64 908.031 1371.47 Q901.92 1362.26 901.92 1344.81 Q901.92 1327.31 908.031 1318.14 Q914.188 1308.93 925.809 1308.93 Z" fill="#000000" fill-rule="nonzero" fill-opacity="1" /><path clip-path="url(#clip690)" d="M966.133 1367.54 L975.901 1367.54 L975.901 1379.3 L966.133 1379.3 L966.133 1367.54 Z" fill="#000000" fill-rule="nonzero" fill-opacity="1" /><path clip-path="url(#clip690)" d="M1004.33 1371.43 L1036.97 1371.43 L1036.97 1379.3 L993.077 1379.3 L993.077 1371.43 Q998.401 1365.92 1007.57 1356.66 Q1016.78 1347.35 1019.14 1344.67 Q1023.63 1339.62 1025.39 1336.15 Q1027.2 1332.63 1027.2 1329.25 Q1027.2 1323.74 1023.31 1320.27 Q1019.47 1316.8 1013.26 1316.8 Q1008.86 1316.8 1003.96 1318.32 Q999.095 1319.85 993.54 1322.95 L993.54 1313.51 Q999.188 1311.24 1004.1 1310.08 Q1009 1308.93 1013.08 1308.93 Q1023.82 1308.93 1030.21 1314.3 Q1036.6 1319.67 1036.6 1328.65 Q1036.6 1332.91 1034.97 1336.75 Q1033.4 1340.55 1029.19 1345.73 Q1028.03 1347.07 1021.83 1353.51 Q1015.62 1359.9 1004.33 1371.43 Z" fill="#000000" fill-rule="nonzero" fill-opacity="1" /><path clip-path="url(#clip690)" d="M1056.69 1310.18 L1093.4 1310.18 L1093.4 1318.05 L1065.25 1318.05 L1065.25 1334.99 Q1067.29 1334.3 1069.33 1333.97 Q1071.36 1333.6 1073.4 1333.6 Q1084.97 1333.6 1091.73 1339.94 Q1098.49 1346.29 1098.49 1357.12 Q1098.49 1368.28 1091.55 1374.48 Q1084.6 1380.64 1071.97 1380.64 Q1067.61 1380.64 1063.08 1379.9 Q1058.59 1379.16 1053.77 1377.68 L1053.77 1368.28 Q1057.94 1370.55 1062.38 1371.66 Q1066.83 1372.77 1071.78 1372.77 Q1079.79 1372.77 1084.47 1368.56 Q1089.14 1364.34 1089.14 1357.12 Q1089.14 1349.9 1084.47 1345.68 Q1079.79 1341.47 1071.78 1341.47 Q1068.03 1341.47 1064.28 1342.31 Q1060.58 1343.14 1056.69 1344.9 L1056.69 1310.18 Z" fill="#000000" fill-rule="nonzero" fill-opacity="1" /><path clip-path="url(#clip690)" d="M1198.58 1316.33 Q1191.35 1316.33 1187.7 1323.46 Q1184.09 1330.55 1184.09 1344.81 Q1184.09 1359.02 1187.7 1366.15 Q1191.35 1373.23 1198.58 1373.23 Q1205.85 1373.23 1209.46 1366.15 Q1213.11 1359.02 1213.11 1344.81 Q1213.11 1330.55 1209.46 1323.46 Q1205.85 1316.33 1198.58 1316.33 M1198.58 1308.93 Q1210.2 1308.93 1216.31 1318.14 Q1222.47 1327.31 1222.47 1344.81 Q1222.47 1362.26 1216.31 1371.47 Q1210.2 1380.64 1198.58 1380.64 Q1186.96 1380.64 1180.8 1371.47 Q1174.69 1362.26 1174.69 1344.81 Q1174.69 1327.31 1180.8 1318.14 Q1186.96 1308.93 1198.58 1308.93 Z" fill="#000000" fill-rule="nonzero" fill-opacity="1" /><path clip-path="url(#clip690)" d="M1238.9 1367.54 L1248.67 1367.54 L1248.67 1379.3 L1238.9 1379.3 L1238.9 1367.54 Z" fill="#000000" fill-rule="nonzero" fill-opacity="1" /><path clip-path="url(#clip690)" d="M1269.13 1310.18 L1305.84 1310.18 L1305.84 1318.05 L1277.7 1318.05 L1277.7 1334.99 Q1279.73 1334.3 1281.77 1333.97 Q1283.81 1333.6 1285.85 1333.6 Q1297.42 1333.6 1304.18 1339.94 Q1310.94 1346.29 1310.94 1357.12 Q1310.94 1368.28 1303.99 1374.48 Q1297.05 1380.64 1284.41 1380.64 Q1280.06 1380.64 1275.52 1379.9 Q1271.03 1379.16 1266.22 1377.68 L1266.22 1368.28 Q1270.38 1370.55 1274.83 1371.66 Q1279.27 1372.77 1284.22 1372.77 Q1292.23 1372.77 1296.91 1368.56 Q1301.59 1364.34 1301.59 1357.12 Q1301.59 1349.9 1296.91 1345.68 Q1292.23 1341.47 1284.22 1341.47 Q1280.47 1341.47 1276.72 1342.31 Q1273.02 1343.14 1269.13 1344.9 L1269.13 1310.18 Z" fill="#000000" fill-rule="nonzero" fill-opacity="1" /><path clip-path="url(#clip690)" d="M1349.36 1316.33 Q1342.14 1316.33 1338.48 1323.46 Q1334.87 1330.55 1334.87 1344.81 Q1334.87 1359.02 1338.48 1366.15 Q1342.14 1373.23 1349.36 1373.23 Q1356.63 1373.23 1360.24 1366.15 Q1363.9 1359.02 1363.9 1344.81 Q1363.9 1330.55 1360.24 1323.46 Q1356.63 1316.33 1349.36 1316.33 M1349.36 1308.93 Q1360.98 1308.93 1367.09 1318.14 Q1373.25 1327.31 1373.25 1344.81 Q1373.25 1362.26 1367.09 1371.47 Q1360.98 1380.64 1349.36 1380.64 Q1337.74 1380.64 1331.59 1371.47 Q1325.47 1362.26 1325.47 1344.81 Q1325.47 1327.31 1331.59 1318.14 Q1337.74 1308.93 1349.36 1308.93 Z" fill="#000000" fill-rule="nonzero" fill-opacity="1" /><path clip-path="url(#clip690)" d="M1473.34 1316.33 Q1466.11 1316.33 1462.46 1323.46 Q1458.85 1330.55 1458.85 1344.81 Q1458.85 1359.02 1462.46 1366.15 Q1466.11 1373.23 1473.34 1373.23 Q1480.6 1373.23 1484.22 1366.15 Q1487.87 1359.02 1487.87 1344.81 Q1487.87 1330.55 1484.22 1323.46 Q1480.6 1316.33 1473.34 1316.33 M1473.34 1308.93 Q1484.96 1308.93 1491.07 1318.14 Q1497.22 1327.31 1497.22 1344.81 Q1497.22 1362.26 1491.07 1371.47 Q1484.96 1380.64 1473.34 1380.64 Q1461.72 1380.64 1455.56 1371.47 Q1449.45 1362.26 1449.45 1344.81 Q1449.45 1327.31 1455.56 1318.14 Q1461.72 1308.93 1473.34 1308.93 Z" fill="#000000" fill-rule="nonzero" fill-opacity="1" /><path clip-path="url(#clip690)" d="M1513.66 1367.54 L1523.43 1367.54 L1523.43 1379.3 L1513.66 1379.3 L1513.66 1367.54 Z" fill="#000000" fill-rule="nonzero" fill-opacity="1" /><path clip-path="url(#clip690)" d="M1541.44 1310.18 L1585.88 1310.18 L1585.88 1314.16 L1560.79 1379.3 L1551.02 1379.3 L1574.63 1318.05 L1541.44 1318.05 L1541.44 1310.18 Z" fill="#000000" fill-rule="nonzero" fill-opacity="1" /><path clip-path="url(#clip690)" d="M1604.22 1310.18 L1640.93 1310.18 L1640.93 1318.05 L1612.78 1318.05 L1612.78 1334.99 Q1614.82 1334.3 1616.85 1333.97 Q1618.89 1333.6 1620.93 1333.6 Q1632.5 1333.6 1639.26 1339.94 Q1646.02 1346.29 1646.02 1357.12 Q1646.02 1368.28 1639.08 1374.48 Q1632.13 1380.64 1619.49 1380.64 Q1615.14 1380.64 1610.6 1379.9 Q1606.11 1379.16 1601.3 1377.68 L1601.3 1368.28 Q1605.47 1370.55 1609.91 1371.66 Q1614.35 1372.77 1619.31 1372.77 Q1627.32 1372.77 1631.99 1368.56 Q1636.67 1364.34 1636.67 1357.12 Q1636.67 1349.9 1631.99 1345.68 Q1627.32 1341.47 1619.31 1341.47 Q1615.56 1341.47 1611.81 1342.31 Q1608.1 1343.14 1604.22 1344.9 L1604.22 1310.18 Z" fill="#000000" fill-rule="nonzero" fill-opacity="1" /><path clip-path="url(#clip690)" d="M1725.64 1371.43 L1740.92 1371.43 L1740.92 1318.69 L1724.3 1322.03 L1724.3 1313.51 L1740.83 1310.18 L1750.18 1310.18 L1750.18 1371.43 L1765.46 1371.43 L1765.46 1379.3 L1725.64 1379.3 L1725.64 1371.43 Z" fill="#000000" fill-rule="nonzero" fill-opacity="1" /><path clip-path="url(#clip690)" d="M1784.34 1367.54 L1794.11 1367.54 L1794.11 1379.3 L1784.34 1379.3 L1784.34 1367.54 Z" fill="#000000" fill-rule="nonzero" fill-opacity="1" /><path clip-path="url(#clip690)" d="M1834.48 1316.33 Q1827.26 1316.33 1823.6 1323.46 Q1819.99 1330.55 1819.99 1344.81 Q1819.99 1359.02 1823.6 1366.15 Q1827.26 1373.23 1834.48 1373.23 Q1841.75 1373.23 1845.36 1366.15 Q1849.02 1359.02 1849.02 1344.81 Q1849.02 1330.55 1845.36 1323.46 Q1841.75 1316.33 1834.48 1316.33 M1834.48 1308.93 Q1846.1 1308.93 1852.21 1318.14 Q1858.37 1327.31 1858.37 1344.81 Q1858.37 1362.26 1852.21 1371.47 Q1846.1 1380.64 1834.48 1380.64 Q1822.86 1380.64 1816.71 1371.47 Q1810.59 1362.26 1810.59 1344.81 Q1810.59 1327.31 1816.71 1318.14 Q1822.86 1308.93 1834.48 1308.93 Z" fill="#000000" fill-rule="nonzero" fill-opacity="1" /><path clip-path="url(#clip690)" d="M1894.81 1316.33 Q1887.59 1316.33 1883.93 1323.46 Q1880.32 1330.55 1880.32 1344.81 Q1880.32 1359.02 1883.93 1366.15 Q1887.59 1373.23 1894.81 1373.23 Q1902.08 1373.23 1905.69 1366.15 Q1909.34 1359.02 1909.34 1344.81 Q1909.34 1330.55 1905.69 1323.46 Q1902.08 1316.33 1894.81 1316.33 M1894.81 1308.93 Q1906.43 1308.93 1912.54 1318.14 Q1918.7 1327.31 1918.7 1344.81 Q1918.7 1362.26 1912.54 1371.47 Q1906.43 1380.64 1894.81 1380.64 Q1883.19 1380.64 1877.03 1371.47 Q1870.92 1362.26 1870.92 1344.81 Q1870.92 1327.31 1877.03 1318.14 Q1883.19 1308.93 1894.81 1308.93 Z" fill="#000000" fill-rule="nonzero" fill-opacity="1" /><path clip-path="url(#clip690)" d="M2000.4 1371.43 L2015.68 1371.43 L2015.68 1318.69 L1999.06 1322.03 L1999.06 1313.51 L2015.59 1310.18 L2024.94 1310.18 L2024.94 1371.43 L2040.22 1371.43 L2040.22 1379.3 L2000.4 1379.3 L2000.4 1371.43 Z" fill="#000000" fill-rule="nonzero" fill-opacity="1" /><path clip-path="url(#clip690)" d="M2059.1 1367.54 L2068.87 1367.54 L2068.87 1379.3 L2059.1 1379.3 L2059.1 1367.54 Z" fill="#000000" fill-rule="nonzero" fill-opacity="1" /><path clip-path="url(#clip690)" d="M2097.3 1371.43 L2129.94 1371.43 L2129.94 1379.3 L2086.05 1379.3 L2086.05 1371.43 Q2091.37 1365.92 2100.54 1356.66 Q2109.75 1347.35 2112.11 1344.67 Q2116.6 1339.62 2118.36 1336.15 Q2120.17 1332.63 2120.17 1329.25 Q2120.17 1323.74 2116.28 1320.27 Q2112.44 1316.8 2106.23 1316.8 Q2101.84 1316.8 2096.93 1318.32 Q2092.07 1319.85 2086.51 1322.95 L2086.51 1313.51 Q2092.16 1311.24 2097.07 1310.08 Q2101.97 1308.93 2106.05 1308.93 Q2116.79 1308.93 2123.18 1314.3 Q2129.57 1319.67 2129.57 1328.65 Q2129.57 1332.91 2127.95 1336.75 Q2126.37 1340.55 2122.16 1345.73 Q2121 1347.07 2114.8 1353.51 Q2108.59 1359.9 2097.3 1371.43 Z" fill="#000000" fill-rule="nonzero" fill-opacity="1" /><path clip-path="url(#clip690)" d="M2149.66 1310.18 L2186.37 1310.18 L2186.37 1318.05 L2158.22 1318.05 L2158.22 1334.99 Q2160.26 1334.3 2162.3 1333.97 Q2164.33 1333.6 2166.37 1333.6 Q2177.95 1333.6 2184.71 1339.94 Q2191.46 1346.29 2191.46 1357.12 Q2191.46 1368.28 2184.52 1374.48 Q2177.58 1380.64 2164.94 1380.64 Q2160.58 1380.64 2156.05 1379.9 Q2151.56 1379.16 2146.74 1377.68 L2146.74 1368.28 Q2150.91 1370.55 2155.35 1371.66 Q2159.8 1372.77 2164.75 1372.77 Q2172.76 1372.77 2177.44 1368.56 Q2182.11 1364.34 2182.11 1357.12 Q2182.11 1349.9 2177.44 1345.68 Q2172.76 1341.47 2164.75 1341.47 Q2161 1341.47 2157.25 1342.31 Q2153.55 1343.14 2149.66 1344.9 L2149.66 1310.18 Z" fill="#000000" fill-rule="nonzero" fill-opacity="1" /><path clip-path="url(#clip690)" d="M1378.53 1484.39 L1378.53 1527.42 L1366.81 1527.42 L1366.81 1484.77 Q1366.81 1474.65 1362.87 1469.62 Q1358.92 1464.59 1351.03 1464.59 Q1341.54 1464.59 1336.07 1470.64 Q1330.59 1476.69 1330.59 1487.13 L1330.59 1527.42 L1318.82 1527.42 L1318.82 1428.37 L1330.59 1428.37 L1330.59 1467.2 Q1334.79 1460.77 1340.46 1457.59 Q1346.19 1454.41 1353.64 1454.41 Q1365.92 1454.41 1372.22 1462.05 Q1378.53 1469.62 1378.53 1484.39 Z" fill="#000000" fill-rule="nonzero" fill-opacity="1" /><path clip-path="url(#clip690)" d="M1429.51 1464.34 Q1420.09 1464.34 1414.62 1471.72 Q1409.14 1479.04 1409.14 1491.84 Q1409.14 1504.63 1414.56 1512.02 Q1420.03 1519.34 1429.51 1519.34 Q1438.87 1519.34 1444.35 1511.96 Q1449.82 1504.57 1449.82 1491.84 Q1449.82 1479.17 1444.35 1471.79 Q1438.87 1464.34 1429.51 1464.34 M1429.51 1454.41 Q1444.79 1454.41 1453.51 1464.34 Q1462.23 1474.27 1462.23 1491.84 Q1462.23 1509.35 1453.51 1519.34 Q1444.79 1529.27 1429.51 1529.27 Q1414.17 1529.27 1405.45 1519.34 Q1396.8 1509.35 1396.8 1491.84 Q1396.8 1474.27 1405.45 1464.34 Q1414.17 1454.41 1429.51 1454.41 Z" fill="#000000" fill-rule="nonzero" fill-opacity="1" /><path clip-path="url(#clip690)" d="M1480.44 1499.29 L1480.44 1456.13 L1492.15 1456.13 L1492.15 1498.84 Q1492.15 1508.96 1496.1 1514.06 Q1500.05 1519.08 1507.94 1519.08 Q1517.43 1519.08 1522.9 1513.04 Q1528.44 1506.99 1528.44 1496.55 L1528.44 1456.13 L1540.15 1456.13 L1540.15 1527.42 L1528.44 1527.42 L1528.44 1516.47 Q1524.17 1522.97 1518.51 1526.15 Q1512.91 1529.27 1505.46 1529.27 Q1493.17 1529.27 1486.81 1521.63 Q1480.44 1513.99 1480.44 1499.29 M1509.91 1454.41 L1509.91 1454.41 Z" fill="#000000" fill-rule="nonzero" fill-opacity="1" /><path clip-path="url(#clip690)" d="M1605.59 1467.08 Q1603.62 1465.93 1601.26 1465.42 Q1598.97 1464.85 1596.17 1464.85 Q1586.24 1464.85 1580.89 1471.34 Q1575.61 1477.77 1575.61 1489.87 L1575.61 1527.42 L1563.83 1527.42 L1563.83 1456.13 L1575.61 1456.13 L1575.61 1467.2 Q1579.3 1460.71 1585.22 1457.59 Q1591.14 1454.41 1599.61 1454.41 Q1600.82 1454.41 1602.28 1454.6 Q1603.74 1454.73 1605.53 1455.05 L1605.59 1467.08 Z" fill="#000000" fill-rule="nonzero" fill-opacity="1" /><path clip-path="url(#clip690)" d="M1663.33 1458.23 L1663.33 1469.3 Q1658.36 1466.76 1653.01 1465.49 Q1647.67 1464.21 1641.94 1464.21 Q1633.22 1464.21 1628.83 1466.89 Q1624.5 1469.56 1624.5 1474.91 Q1624.5 1478.98 1627.62 1481.34 Q1630.73 1483.63 1640.16 1485.73 L1644.17 1486.62 Q1656.64 1489.29 1661.86 1494.19 Q1667.15 1499.03 1667.15 1507.75 Q1667.15 1517.68 1659.25 1523.48 Q1651.42 1529.27 1637.67 1529.27 Q1631.94 1529.27 1625.71 1528.12 Q1619.53 1527.04 1612.66 1524.81 L1612.66 1512.72 Q1619.15 1516.09 1625.45 1517.81 Q1631.75 1519.47 1637.93 1519.47 Q1646.2 1519.47 1650.66 1516.67 Q1655.12 1513.8 1655.12 1508.64 Q1655.12 1503.87 1651.87 1501.32 Q1648.69 1498.78 1637.8 1496.42 L1633.73 1495.47 Q1622.84 1493.18 1618 1488.47 Q1613.17 1483.69 1613.17 1475.42 Q1613.17 1465.36 1620.3 1459.88 Q1627.42 1454.41 1640.54 1454.41 Q1647.03 1454.41 1652.76 1455.36 Q1658.49 1456.32 1663.33 1458.23 Z" fill="#000000" fill-rule="nonzero" fill-opacity="1" /><polyline clip-path="url(#clip692)" style="stroke:#000000; stroke-linecap:round; stroke-linejoin:round; stroke-width:4; stroke-opacity:0.1; fill:none" points="680.45,1125.07 2305.51,1125.07 "/>
<polyline clip-path="url(#clip692)" style="stroke:#000000; stroke-linecap:round; stroke-linejoin:round; stroke-width:4; stroke-opacity:0.1; fill:none" points="680.45,915.022 2305.51,915.022 "/>
<polyline clip-path="url(#clip692)" style="stroke:#000000; stroke-linecap:round; stroke-linejoin:round; stroke-width:4; stroke-opacity:0.1; fill:none" points="680.45,704.973 2305.51,704.973 "/>
<polyline clip-path="url(#clip692)" style="stroke:#000000; stroke-linecap:round; stroke-linejoin:round; stroke-width:4; stroke-opacity:0.1; fill:none" points="680.45,494.923 2305.51,494.923 "/>
<polyline clip-path="url(#clip692)" style="stroke:#000000; stroke-linecap:round; stroke-linejoin:round; stroke-width:4; stroke-opacity:0.1; fill:none" points="680.45,284.874 2305.51,284.874 "/>
<polyline clip-path="url(#clip690)" style="stroke:#000000; stroke-linecap:round; stroke-linejoin:round; stroke-width:8; stroke-opacity:1; fill:none" points="680.45,1273.7 680.45,94.4882 "/>
<polyline clip-path="url(#clip690)" style="stroke:#000000; stroke-linecap:round; stroke-linejoin:round; stroke-width:8; stroke-opacity:1; fill:none" points="680.45,1125.07 699.348,1125.07 "/>
<polyline clip-path="url(#clip690)" style="stroke:#000000; stroke-linecap:round; stroke-linejoin:round; stroke-width:8; stroke-opacity:1; fill:none" points="680.45,915.022 699.348,915.022 "/>
<polyline clip-path="url(#clip690)" style="stroke:#000000; stroke-linecap:round; stroke-linejoin:round; stroke-width:8; stroke-opacity:1; fill:none" points="680.45,704.973 699.348,704.973 "/>
<polyline clip-path="url(#clip690)" style="stroke:#000000; stroke-linecap:round; stroke-linejoin:round; stroke-width:8; stroke-opacity:1; fill:none" points="680.45,494.923 699.348,494.923 "/>
<polyline clip-path="url(#clip690)" style="stroke:#000000; stroke-linecap:round; stroke-linejoin:round; stroke-width:8; stroke-opacity:1; fill:none" points="680.45,284.874 699.348,284.874 "/>
<path clip-path="url(#clip690)" d="M391.072 1151.76 L406.35 1151.76 L406.35 1099.03 L389.73 1102.36 L389.73 1093.85 L406.257 1090.51 L415.609 1090.51 L415.609 1151.76 L430.887 1151.76 L430.887 1159.63 L391.072 1159.63 L391.072 1151.76 Z" fill="#000000" fill-rule="nonzero" fill-opacity="1" /><path clip-path="url(#clip690)" d="M449.868 1090.51 L486.581 1090.51 L486.581 1098.38 L458.433 1098.38 L458.433 1115.33 Q460.47 1114.63 462.507 1114.31 Q464.544 1113.94 466.581 1113.94 Q478.155 1113.94 484.914 1120.28 Q491.673 1126.62 491.673 1137.46 Q491.673 1148.61 484.729 1154.82 Q477.785 1160.97 465.146 1160.97 Q460.794 1160.97 456.257 1160.23 Q451.766 1159.49 446.951 1158.01 L446.951 1148.61 Q451.118 1150.88 455.562 1151.99 Q460.007 1153.1 464.961 1153.1 Q472.97 1153.1 477.646 1148.89 Q482.322 1144.68 482.322 1137.46 Q482.322 1130.23 477.646 1126.02 Q472.97 1121.81 464.961 1121.81 Q461.211 1121.81 457.461 1122.64 Q453.757 1123.47 449.868 1125.23 L449.868 1090.51 Z" fill="#000000" fill-rule="nonzero" fill-opacity="1" /><path clip-path="url(#clip690)" d="M530.099 1096.67 Q522.877 1096.67 519.22 1103.8 Q515.608 1110.88 515.608 1125.14 Q515.608 1139.35 519.22 1146.48 Q522.877 1153.57 530.099 1153.57 Q537.368 1153.57 540.979 1146.48 Q544.636 1139.35 544.636 1125.14 Q544.636 1110.88 540.979 1103.8 Q537.368 1096.67 530.099 1096.67 M530.099 1089.26 Q541.719 1089.26 547.831 1098.47 Q553.988 1107.64 553.988 1125.14 Q553.988 1142.59 547.831 1151.81 Q541.719 1160.97 530.099 1160.97 Q518.479 1160.97 512.321 1151.81 Q506.21 1142.59 506.21 1125.14 Q506.21 1107.64 512.321 1098.47 Q518.479 1089.26 530.099 1089.26 Z" fill="#000000" fill-rule="nonzero" fill-opacity="1" /><path clip-path="url(#clip690)" d="M570.423 1147.87 L580.191 1147.87 L580.191 1159.63 L570.423 1159.63 L570.423 1147.87 Z" fill="#000000" fill-rule="nonzero" fill-opacity="1" /><path clip-path="url(#clip690)" d="M620.562 1096.67 Q613.339 1096.67 609.682 1103.8 Q606.071 1110.88 606.071 1125.14 Q606.071 1139.35 609.682 1146.48 Q613.339 1153.57 620.562 1153.57 Q627.83 1153.57 631.441 1146.48 Q635.099 1139.35 635.099 1125.14 Q635.099 1110.88 631.441 1103.8 Q627.83 1096.67 620.562 1096.67 M620.562 1089.26 Q632.182 1089.26 638.293 1098.47 Q644.45 1107.64 644.45 1125.14 Q644.45 1142.59 638.293 1151.81 Q632.182 1160.97 620.562 1160.97 Q608.941 1160.97 602.784 1151.81 Q596.673 1142.59 596.673 1125.14 Q596.673 1107.64 602.784 1098.47 Q608.941 1089.26 620.562 1089.26 Z" fill="#000000" fill-rule="nonzero" fill-opacity="1" /><path clip-path="url(#clip690)" d="M391.072 941.712 L406.35 941.712 L406.35 888.981 L389.73 892.314 L389.73 883.796 L406.257 880.462 L415.609 880.462 L415.609 941.712 L430.887 941.712 L430.887 949.582 L391.072 949.582 L391.072 941.712 Z" fill="#000000" fill-rule="nonzero" fill-opacity="1" /><path clip-path="url(#clip690)" d="M469.775 916.758 Q463.109 916.758 459.266 920.323 Q455.47 923.888 455.47 930.138 Q455.47 936.388 459.266 939.953 Q463.109 943.517 469.775 943.517 Q476.442 943.517 480.285 939.953 Q484.127 936.342 484.127 930.138 Q484.127 923.888 480.285 920.323 Q476.488 916.758 469.775 916.758 M460.424 912.777 Q454.405 911.295 451.025 907.175 Q447.692 903.055 447.692 897.129 Q447.692 888.842 453.572 884.027 Q459.498 879.212 469.775 879.212 Q480.099 879.212 485.979 884.027 Q491.859 888.842 491.859 897.129 Q491.859 903.055 488.479 907.175 Q485.146 911.295 479.173 912.777 Q485.933 914.351 489.683 918.934 Q493.479 923.518 493.479 930.138 Q493.479 940.184 487.322 945.554 Q481.211 950.925 469.775 950.925 Q458.34 950.925 452.183 945.554 Q446.072 940.184 446.072 930.138 Q446.072 923.518 449.868 918.934 Q453.664 914.351 460.424 912.777 M456.998 898.008 Q456.998 903.379 460.331 906.388 Q463.711 909.397 469.775 909.397 Q475.794 909.397 479.173 906.388 Q482.599 903.379 482.599 898.008 Q482.599 892.638 479.173 889.629 Q475.794 886.62 469.775 886.62 Q463.711 886.62 460.331 889.629 Q456.998 892.638 456.998 898.008 Z" fill="#000000" fill-rule="nonzero" fill-opacity="1" /><path clip-path="url(#clip690)" d="M530.099 886.62 Q522.877 886.62 519.22 893.749 Q515.608 900.832 515.608 915.092 Q515.608 929.305 519.22 936.434 Q522.877 943.517 530.099 943.517 Q537.368 943.517 540.979 936.434 Q544.636 929.305 544.636 915.092 Q544.636 900.832 540.979 893.749 Q537.368 886.62 530.099 886.62 M530.099 879.212 Q541.719 879.212 547.831 888.425 Q553.988 897.592 553.988 915.092 Q553.988 932.545 547.831 941.758 Q541.719 950.925 530.099 950.925 Q518.479 950.925 512.321 941.758 Q506.21 932.545 506.21 915.092 Q506.21 897.592 512.321 888.425 Q518.479 879.212 530.099 879.212 Z" fill="#000000" fill-rule="nonzero" fill-opacity="1" /><path clip-path="url(#clip690)" d="M570.423 937.823 L580.191 937.823 L580.191 949.582 L570.423 949.582 L570.423 937.823 Z" fill="#000000" fill-rule="nonzero" fill-opacity="1" /><path clip-path="url(#clip690)" d="M620.562 886.62 Q613.339 886.62 609.682 893.749 Q606.071 900.832 606.071 915.092 Q606.071 929.305 609.682 936.434 Q613.339 943.517 620.562 943.517 Q627.83 943.517 631.441 936.434 Q635.099 929.305 635.099 915.092 Q635.099 900.832 631.441 893.749 Q627.83 886.62 620.562 886.62 M620.562 879.212 Q632.182 879.212 638.293 888.425 Q644.45 897.592 644.45 915.092 Q644.45 932.545 638.293 941.758 Q632.182 950.925 620.562 950.925 Q608.941 950.925 602.784 941.758 Q596.673 932.545 596.673 915.092 Q596.673 897.592 602.784 888.425 Q608.941 879.212 620.562 879.212 Z" fill="#000000" fill-rule="nonzero" fill-opacity="1" /><path clip-path="url(#clip690)" d="M397.507 731.662 L430.146 731.662 L430.146 739.533 L386.257 739.533 L386.257 731.662 Q391.581 726.153 400.748 716.894 Q409.961 707.588 412.322 704.903 Q416.813 699.857 418.572 696.385 Q420.378 692.866 420.378 689.487 Q420.378 683.977 416.489 680.505 Q412.646 677.033 406.442 677.033 Q402.044 677.033 397.137 678.561 Q392.276 680.089 386.72 683.19 L386.72 673.746 Q392.368 671.477 397.276 670.32 Q402.183 669.163 406.257 669.163 Q416.998 669.163 423.387 674.533 Q429.776 679.903 429.776 688.885 Q429.776 693.144 428.155 696.987 Q426.581 700.783 422.368 705.968 Q421.211 707.311 415.007 713.746 Q408.803 720.135 397.507 731.662 Z" fill="#000000" fill-rule="nonzero" fill-opacity="1" /><path clip-path="url(#clip690)" d="M451.396 731.662 L466.674 731.662 L466.674 678.931 L450.053 682.264 L450.053 673.746 L466.581 670.413 L475.933 670.413 L475.933 731.662 L491.21 731.662 L491.21 739.533 L451.396 739.533 L451.396 731.662 Z" fill="#000000" fill-rule="nonzero" fill-opacity="1" /><path clip-path="url(#clip690)" d="M530.099 676.57 Q522.877 676.57 519.22 683.7 Q515.608 690.783 515.608 705.042 Q515.608 719.255 519.22 726.385 Q522.877 733.468 530.099 733.468 Q537.368 733.468 540.979 726.385 Q544.636 719.255 544.636 705.042 Q544.636 690.783 540.979 683.7 Q537.368 676.57 530.099 676.57 M530.099 669.163 Q541.719 669.163 547.831 678.376 Q553.988 687.542 553.988 705.042 Q553.988 722.496 547.831 731.709 Q541.719 740.875 530.099 740.875 Q518.479 740.875 512.321 731.709 Q506.21 722.496 506.21 705.042 Q506.21 687.542 512.321 678.376 Q518.479 669.163 530.099 669.163 Z" fill="#000000" fill-rule="nonzero" fill-opacity="1" /><path clip-path="url(#clip690)" d="M570.423 727.773 L580.191 727.773 L580.191 739.533 L570.423 739.533 L570.423 727.773 Z" fill="#000000" fill-rule="nonzero" fill-opacity="1" /><path clip-path="url(#clip690)" d="M620.562 676.57 Q613.339 676.57 609.682 683.7 Q606.071 690.783 606.071 705.042 Q606.071 719.255 609.682 726.385 Q613.339 733.468 620.562 733.468 Q627.83 733.468 631.441 726.385 Q635.099 719.255 635.099 705.042 Q635.099 690.783 631.441 683.7 Q627.83 676.57 620.562 676.57 M620.562 669.163 Q632.182 669.163 638.293 678.376 Q644.45 687.542 644.45 705.042 Q644.45 722.496 638.293 731.709 Q632.182 740.875 620.562 740.875 Q608.941 740.875 602.784 731.709 Q596.673 722.496 596.673 705.042 Q596.673 687.542 602.784 678.376 Q608.941 669.163 620.562 669.163 Z" fill="#000000" fill-rule="nonzero" fill-opacity="1" /><path clip-path="url(#clip690)" d="M397.507 521.613 L430.146 521.613 L430.146 529.483 L386.257 529.483 L386.257 521.613 Q391.581 516.104 400.748 506.844 Q409.961 497.539 412.322 494.854 Q416.813 489.807 418.572 486.335 Q420.378 482.817 420.378 479.437 Q420.378 473.928 416.489 470.456 Q412.646 466.983 406.442 466.983 Q402.044 466.983 397.137 468.511 Q392.276 470.039 386.72 473.141 L386.72 463.696 Q392.368 461.428 397.276 460.271 Q402.183 459.113 406.257 459.113 Q416.998 459.113 423.387 464.483 Q429.776 469.854 429.776 478.835 Q429.776 483.094 428.155 486.937 Q426.581 490.733 422.368 495.918 Q421.211 497.261 415.007 503.696 Q408.803 510.085 397.507 521.613 Z" fill="#000000" fill-rule="nonzero" fill-opacity="1" /><path clip-path="url(#clip690)" d="M475.47 468.511 L451.859 505.409 L475.47 505.409 L475.47 468.511 M473.016 460.363 L484.775 460.363 L484.775 505.409 L494.636 505.409 L494.636 513.187 L484.775 513.187 L484.775 529.483 L475.47 529.483 L475.47 513.187 L444.266 513.187 L444.266 504.159 L473.016 460.363 Z" fill="#000000" fill-rule="nonzero" fill-opacity="1" /><path clip-path="url(#clip690)" d="M530.099 466.52 Q522.877 466.52 519.22 473.65 Q515.608 480.733 515.608 494.993 Q515.608 509.205 519.22 516.335 Q522.877 523.418 530.099 523.418 Q537.368 523.418 540.979 516.335 Q544.636 509.205 544.636 494.993 Q544.636 480.733 540.979 473.65 Q537.368 466.52 530.099 466.52 M530.099 459.113 Q541.719 459.113 547.831 468.326 Q553.988 477.493 553.988 494.993 Q553.988 512.446 547.831 521.659 Q541.719 530.826 530.099 530.826 Q518.479 530.826 512.321 521.659 Q506.21 512.446 506.21 494.993 Q506.21 477.493 512.321 468.326 Q518.479 459.113 530.099 459.113 Z" fill="#000000" fill-rule="nonzero" fill-opacity="1" /><path clip-path="url(#clip690)" d="M570.423 517.724 L580.191 517.724 L580.191 529.483 L570.423 529.483 L570.423 517.724 Z" fill="#000000" fill-rule="nonzero" fill-opacity="1" /><path clip-path="url(#clip690)" d="M620.562 466.52 Q613.339 466.52 609.682 473.65 Q606.071 480.733 606.071 494.993 Q606.071 509.205 609.682 516.335 Q613.339 523.418 620.562 523.418 Q627.83 523.418 631.441 516.335 Q635.099 509.205 635.099 494.993 Q635.099 480.733 631.441 473.65 Q627.83 466.52 620.562 466.52 M620.562 459.113 Q632.182 459.113 638.293 468.326 Q644.45 477.493 644.45 494.993 Q644.45 512.446 638.293 521.659 Q632.182 530.826 620.562 530.826 Q608.941 530.826 602.784 521.659 Q596.673 512.446 596.673 494.993 Q596.673 477.493 602.784 468.326 Q608.941 459.113 620.562 459.113 Z" fill="#000000" fill-rule="nonzero" fill-opacity="1" /><path clip-path="url(#clip690)" d="M397.507 311.563 L430.146 311.563 L430.146 319.434 L386.257 319.434 L386.257 311.563 Q391.581 306.054 400.748 296.795 Q409.961 287.489 412.322 284.804 Q416.813 279.758 418.572 276.286 Q420.378 272.767 420.378 269.388 Q420.378 263.878 416.489 260.406 Q412.646 256.934 406.442 256.934 Q402.044 256.934 397.137 258.462 Q392.276 259.989 386.72 263.091 L386.72 253.647 Q392.368 251.378 397.276 250.221 Q402.183 249.064 406.257 249.064 Q416.998 249.064 423.387 254.434 Q429.776 259.804 429.776 268.786 Q429.776 273.045 428.155 276.887 Q426.581 280.684 422.368 285.869 Q421.211 287.211 415.007 293.647 Q408.803 300.035 397.507 311.563 Z" fill="#000000" fill-rule="nonzero" fill-opacity="1" /><path clip-path="url(#clip690)" d="M447.414 250.314 L491.859 250.314 L491.859 254.295 L466.766 319.434 L456.998 319.434 L480.609 258.184 L447.414 258.184 L447.414 250.314 Z" fill="#000000" fill-rule="nonzero" fill-opacity="1" /><path clip-path="url(#clip690)" d="M530.099 256.471 Q522.877 256.471 519.22 263.601 Q515.608 270.684 515.608 284.943 Q515.608 299.156 519.22 306.285 Q522.877 313.369 530.099 313.369 Q537.368 313.369 540.979 306.285 Q544.636 299.156 544.636 284.943 Q544.636 270.684 540.979 263.601 Q537.368 256.471 530.099 256.471 M530.099 249.064 Q541.719 249.064 547.831 258.276 Q553.988 267.443 553.988 284.943 Q553.988 302.397 547.831 311.61 Q541.719 320.776 530.099 320.776 Q518.479 320.776 512.321 311.61 Q506.21 302.397 506.21 284.943 Q506.21 267.443 512.321 258.276 Q518.479 249.064 530.099 249.064 Z" fill="#000000" fill-rule="nonzero" fill-opacity="1" /><path clip-path="url(#clip690)" d="M570.423 307.674 L580.191 307.674 L580.191 319.434 L570.423 319.434 L570.423 307.674 Z" fill="#000000" fill-rule="nonzero" fill-opacity="1" /><path clip-path="url(#clip690)" d="M620.562 256.471 Q613.339 256.471 609.682 263.601 Q606.071 270.684 606.071 284.943 Q606.071 299.156 609.682 306.285 Q613.339 313.369 620.562 313.369 Q627.83 313.369 631.441 306.285 Q635.099 299.156 635.099 284.943 Q635.099 270.684 631.441 263.601 Q627.83 256.471 620.562 256.471 M620.562 249.064 Q632.182 249.064 638.293 258.276 Q644.45 267.443 644.45 284.943 Q644.45 302.397 638.293 311.61 Q632.182 320.776 620.562 320.776 Q608.941 320.776 602.784 311.61 Q596.673 302.397 596.673 284.943 Q596.673 267.443 602.784 258.276 Q608.941 249.064 620.562 249.064 Z" fill="#000000" fill-rule="nonzero" fill-opacity="1" /><path clip-path="url(#clip690)" d="M253.187 1099.45 L264.136 1099.45 Q261.398 1104.42 260.062 1109.45 Q258.661 1114.41 258.661 1119.51 Q258.661 1130.9 265.918 1137.2 Q273.111 1143.51 286.161 1143.51 Q299.211 1143.51 306.468 1137.2 Q313.661 1130.9 313.661 1119.51 Q313.661 1114.41 312.324 1109.45 Q310.924 1104.42 308.186 1099.45 L319.008 1099.45 Q321.3 1104.36 322.446 1109.64 Q323.591 1114.86 323.591 1120.78 Q323.591 1136.88 313.47 1146.37 Q303.348 1155.85 286.161 1155.85 Q268.719 1155.85 258.725 1146.31 Q248.731 1136.69 248.731 1120.02 Q248.731 1114.6 249.876 1109.45 Q250.959 1104.29 253.187 1099.45 Z" fill="#000000" fill-rule="nonzero" fill-opacity="1" /><path clip-path="url(#clip690)" d="M258.661 1051.46 Q258.661 1060.88 266.045 1066.35 Q273.366 1071.83 286.161 1071.83 Q298.956 1071.83 306.34 1066.42 Q313.661 1060.94 313.661 1051.46 Q313.661 1042.1 306.277 1036.62 Q298.892 1031.15 286.161 1031.15 Q273.493 1031.15 266.109 1036.62 Q258.661 1042.1 258.661 1051.46 M248.731 1051.46 Q248.731 1036.18 258.661 1027.46 Q268.592 1018.74 286.161 1018.74 Q303.667 1018.74 313.661 1027.46 Q323.591 1036.18 323.591 1051.46 Q323.591 1066.8 313.661 1075.52 Q303.667 1084.18 286.161 1084.18 Q268.592 1084.18 258.661 1075.52 Q248.731 1066.8 248.731 1051.46 Z" fill="#000000" fill-rule="nonzero" fill-opacity="1" /><path clip-path="url(#clip690)" d="M278.713 940.057 L321.745 940.057 L321.745 951.77 L279.095 951.77 Q268.974 951.77 263.945 955.717 Q258.916 959.663 258.916 967.557 Q258.916 977.042 264.963 982.516 Q271.011 987.991 281.45 987.991 L321.745 987.991 L321.745 999.767 L250.449 999.767 L250.449 987.991 L261.526 987.991 Q255.096 983.789 251.914 978.124 Q248.731 972.395 248.731 964.947 Q248.731 952.661 256.37 946.359 Q263.945 940.057 278.713 940.057 Z" fill="#000000" fill-rule="nonzero" fill-opacity="1" /><path clip-path="url(#clip690)" d="M253.187 865.387 L264.136 865.387 Q261.398 870.353 260.062 875.381 Q258.661 880.347 258.661 885.439 Q258.661 896.834 265.918 903.136 Q273.111 909.438 286.161 909.438 Q299.211 909.438 306.468 903.136 Q313.661 896.834 313.661 885.439 Q313.661 880.347 312.324 875.381 Q310.924 870.353 308.186 865.387 L319.008 865.387 Q321.3 870.289 322.446 875.572 Q323.591 880.792 323.591 886.712 Q323.591 902.818 313.47 912.303 Q303.348 921.787 286.161 921.787 Q268.719 921.787 258.725 912.239 Q248.731 902.627 248.731 885.949 Q248.731 880.538 249.876 875.381 Q250.959 870.225 253.187 865.387 Z" fill="#000000" fill-rule="nonzero" fill-opacity="1" /><path clip-path="url(#clip690)" d="M305.576 843.362 L305.576 829.93 L321.745 829.93 L321.745 843.362 L305.576 843.362 Z" fill="#000000" fill-rule="nonzero" fill-opacity="1" /><path clip-path="url(#clip690)" d="M250.449 770.538 L250.449 758.125 L310.287 735.845 L250.449 713.565 L250.449 701.152 L321.745 727.888 L321.745 743.802 L250.449 770.538 Z" fill="#000000" fill-rule="nonzero" fill-opacity="1" /><path clip-path="url(#clip690)" d="M283.169 624 L288.898 624 L288.898 677.854 Q300.993 677.09 307.359 670.597 Q313.661 664.04 313.661 652.391 Q313.661 645.643 312.006 639.341 Q310.351 632.975 307.041 626.737 L318.117 626.737 Q320.79 633.039 322.191 639.659 Q323.591 646.28 323.591 653.091 Q323.591 670.151 313.661 680.145 Q303.73 690.076 286.798 690.076 Q269.292 690.076 259.043 680.654 Q248.731 671.17 248.731 655.128 Q248.731 640.742 258.025 632.402 Q267.255 624 283.169 624 M279.732 635.713 Q270.119 635.84 264.39 641.123 Q258.661 646.343 258.661 655.001 Q258.661 664.804 264.199 670.724 Q269.737 676.58 279.795 677.472 L279.732 635.713 Z" fill="#000000" fill-rule="nonzero" fill-opacity="1" /><path clip-path="url(#clip690)" d="M278.713 545.511 L321.745 545.511 L321.745 557.223 L279.095 557.223 Q268.974 557.223 263.945 561.17 Q258.916 565.117 258.916 573.01 Q258.916 582.495 264.963 587.97 Q271.011 593.444 281.45 593.444 L321.745 593.444 L321.745 605.221 L250.449 605.221 L250.449 593.444 L261.526 593.444 Q255.096 589.243 251.914 583.577 Q248.731 577.848 248.731 570.4 Q248.731 558.115 256.37 551.813 Q263.945 545.511 278.713 545.511 Z" fill="#000000" fill-rule="nonzero" fill-opacity="1" /><path clip-path="url(#clip690)" d="M230.206 510.563 L250.449 510.563 L250.449 486.437 L259.552 486.437 L259.552 510.563 L298.256 510.563 Q306.977 510.563 309.459 508.207 Q311.942 505.789 311.942 498.468 L311.942 486.437 L321.745 486.437 L321.745 498.468 Q321.745 512.027 316.716 517.183 Q311.624 522.339 298.256 522.339 L259.552 522.339 L259.552 530.933 L250.449 530.933 L250.449 522.339 L230.206 522.339 L230.206 510.563 Z" fill="#000000" fill-rule="nonzero" fill-opacity="1" /><path clip-path="url(#clip690)" d="M261.398 429.718 Q260.253 431.692 259.743 434.047 Q259.17 436.339 259.17 439.14 Q259.17 449.07 265.663 454.417 Q272.093 459.701 284.188 459.701 L321.745 459.701 L321.745 471.477 L250.449 471.477 L250.449 459.701 L261.526 459.701 Q255.033 456.009 251.914 450.089 Q248.731 444.168 248.731 435.702 Q248.731 434.493 248.922 433.028 Q249.049 431.564 249.367 429.782 L261.398 429.718 Z" fill="#000000" fill-rule="nonzero" fill-opacity="1" /><path clip-path="url(#clip690)" d="M250.449 417.433 L250.449 405.72 L321.745 405.72 L321.745 417.433 L250.449 417.433 M222.695 417.433 L222.695 405.72 L237.527 405.72 L237.527 417.433 L222.695 417.433 Z" fill="#000000" fill-rule="nonzero" fill-opacity="1" /><path clip-path="url(#clip690)" d="M253.187 329.904 L264.136 329.904 Q261.398 334.869 260.062 339.898 Q258.661 344.863 258.661 349.956 Q258.661 361.351 265.918 367.653 Q273.111 373.955 286.161 373.955 Q299.211 373.955 306.468 367.653 Q313.661 361.351 313.661 349.956 Q313.661 344.863 312.324 339.898 Q310.924 334.869 308.186 329.904 L319.008 329.904 Q321.3 334.806 322.446 340.089 Q323.591 345.309 323.591 351.229 Q323.591 367.334 313.47 376.819 Q303.348 386.304 286.161 386.304 Q268.719 386.304 258.725 376.756 Q248.731 367.143 248.731 350.465 Q248.731 345.054 249.876 339.898 Q250.959 334.742 253.187 329.904 Z" fill="#000000" fill-rule="nonzero" fill-opacity="1" /><path clip-path="url(#clip690)" d="M222.695 309.534 L222.695 297.821 L321.745 297.821 L321.745 309.534 L222.695 309.534 Z" fill="#000000" fill-rule="nonzero" fill-opacity="1" /><path clip-path="url(#clip690)" d="M283.169 212.329 L288.898 212.329 L288.898 266.183 Q300.993 265.419 307.359 258.926 Q313.661 252.37 313.661 240.721 Q313.661 233.973 312.006 227.671 Q310.351 221.305 307.041 215.067 L318.117 215.067 Q320.79 221.369 322.191 227.989 Q323.591 234.609 323.591 241.421 Q323.591 258.481 313.661 268.475 Q303.73 278.405 286.798 278.405 Q269.292 278.405 259.043 268.984 Q248.731 259.499 248.731 243.458 Q248.731 229.071 258.025 220.732 Q267.255 212.329 283.169 212.329 M279.732 224.042 Q270.119 224.17 264.39 229.453 Q258.661 234.673 258.661 243.33 Q258.661 253.134 264.199 259.054 Q269.737 264.91 279.795 265.801 L279.732 224.042 Z" fill="#000000" fill-rule="nonzero" fill-opacity="1" /><polyline clip-path="url(#clip692)" style="stroke:#008000; stroke-linecap:round; stroke-linejoin:round; stroke-width:8; stroke-opacity:1; fill:none" points="726.443,340.518 835.948,275.997 945.454,243.35 1054.96,127.862 1164.46,173.203 1273.97,330.27 1383.48,303.936 1492.98,388.381 1602.49,496.429 1711.99,561.246 1821.5,444.411 1931,665.702 2040.51,669.446 2150.01,679.112 2259.52,705.15 "/>
<circle clip-path="url(#clip692)" cx="726.443" cy="340.518" r="14.4" fill="#008000" fill-rule="evenodd" fill-opacity="1" stroke="#000000" stroke-opacity="1" stroke-width="6.4"/>
<circle clip-path="url(#clip692)" cx="835.948" cy="275.997" r="14.4" fill="#008000" fill-rule="evenodd" fill-opacity="1" stroke="#000000" stroke-opacity="1" stroke-width="6.4"/>
<circle clip-path="url(#clip692)" cx="945.454" cy="243.35" r="14.4" fill="#008000" fill-rule="evenodd" fill-opacity="1" stroke="#000000" stroke-opacity="1" stroke-width="6.4"/>
<circle clip-path="url(#clip692)" cx="1054.96" cy="127.862" r="14.4" fill="#008000" fill-rule="evenodd" fill-opacity="1" stroke="#000000" stroke-opacity="1" stroke-width="6.4"/>
<circle clip-path="url(#clip692)" cx="1164.46" cy="173.203" r="14.4" fill="#008000" fill-rule="evenodd" fill-opacity="1" stroke="#000000" stroke-opacity="1" stroke-width="6.4"/>
<circle clip-path="url(#clip692)" cx="1273.97" cy="330.27" r="14.4" fill="#008000" fill-rule="evenodd" fill-opacity="1" stroke="#000000" stroke-opacity="1" stroke-width="6.4"/>
<circle clip-path="url(#clip692)" cx="1383.48" cy="303.936" r="14.4" fill="#008000" fill-rule="evenodd" fill-opacity="1" stroke="#000000" stroke-opacity="1" stroke-width="6.4"/>
<circle clip-path="url(#clip692)" cx="1492.98" cy="388.381" r="14.4" fill="#008000" fill-rule="evenodd" fill-opacity="1" stroke="#000000" stroke-opacity="1" stroke-width="6.4"/>
<circle clip-path="url(#clip692)" cx="1602.49" cy="496.429" r="14.4" fill="#008000" fill-rule="evenodd" fill-opacity="1" stroke="#000000" stroke-opacity="1" stroke-width="6.4"/>
<circle clip-path="url(#clip692)" cx="1711.99" cy="561.246" r="14.4" fill="#008000" fill-rule="evenodd" fill-opacity="1" stroke="#000000" stroke-opacity="1" stroke-width="6.4"/>
<circle clip-path="url(#clip692)" cx="1821.5" cy="444.411" r="14.4" fill="#008000" fill-rule="evenodd" fill-opacity="1" stroke="#000000" stroke-opacity="1" stroke-width="6.4"/>
<circle clip-path="url(#clip692)" cx="1931" cy="665.702" r="14.4" fill="#008000" fill-rule="evenodd" fill-opacity="1" stroke="#000000" stroke-opacity="1" stroke-width="6.4"/>
<circle clip-path="url(#clip692)" cx="2040.51" cy="669.446" r="14.4" fill="#008000" fill-rule="evenodd" fill-opacity="1" stroke="#000000" stroke-opacity="1" stroke-width="6.4"/>
<circle clip-path="url(#clip692)" cx="2150.01" cy="679.112" r="14.4" fill="#008000" fill-rule="evenodd" fill-opacity="1" stroke="#000000" stroke-opacity="1" stroke-width="6.4"/>
<circle clip-path="url(#clip692)" cx="2259.52" cy="705.15" r="14.4" fill="#008000" fill-rule="evenodd" fill-opacity="1" stroke="#000000" stroke-opacity="1" stroke-width="6.4"/>
<polyline clip-path="url(#clip692)" style="stroke:#00008b; stroke-linecap:round; stroke-linejoin:round; stroke-width:8; stroke-opacity:1; fill:none" points="726.443,331.172 835.948,428.026 945.454,512.81 1054.96,579.438 1164.46,647.941 1273.97,694.013 1383.48,744.473 1492.98,805.805 1602.49,852.599 1711.99,878.736 1821.5,943.093 1931,960.089 2040.51,1016.57 2150.01,1048.96 2259.52,1059.08 "/>
<path clip-path="url(#clip692)" d="M726.443 497.104 L835.948 610.627 L945.454 692.218 L1054.96 759.197 L1164.46 822.951 L1273.97 870.469 L1383.48 923.303 L1492.98 977.011 L1602.49 1024.18 L1711.99 1050 L1821.5 1110.56 L1931 1138.76 L2040.51 1209.71 L2150.01 1216.06 L2259.52 1240.32 L2259.52 877.977 L2150.01 869.32 L2040.51 825.997 L1931 776.107 L1821.5 760.585 L1711.99 702.724 L1602.49 676.032 L1492.98 618.513 L1383.48 565.057 L1273.97 509.09 L1164.46 480.442 L1054.96 395.463 L945.454 330.397 L835.948 257.109 L726.443 161.903  Z" fill="#0000ff" fill-rule="evenodd" fill-opacity="0.1"/>
<polyline clip-path="url(#clip692)" style="stroke:#0000ff; stroke-linecap:round; stroke-linejoin:round; stroke-width:0; stroke-opacity:0.1; fill:none" points="726.443,497.104 835.948,610.627 945.454,692.218 1054.96,759.197 1164.46,822.951 1273.97,870.469 1383.48,923.303 1492.98,977.011 1602.49,1024.18 1711.99,1050 1821.5,1110.56 1931,1138.76 2040.51,1209.71 2150.01,1216.06 2259.52,1240.32 "/>
</svg>
