<?xml version="1.0" encoding="utf-8"?>
<svg xmlns="http://www.w3.org/2000/svg" xmlns:xlink="http://www.w3.org/1999/xlink" width="600" height="400" viewBox="0 0 2400 1600">
<defs>
  <clipPath id="clip040">
    <rect x="0" y="0" width="2400" height="1600"/>
  </clipPath>
</defs>
<path clip-path="url(#clip040)" d="M0 1600 L2400 1600 L2400 0 L0 0  Z" fill="#ffffff" fill-rule="evenodd" fill-opacity="1"/>
<defs>
  <clipPath id="clip041">
    <rect x="480" y="0" width="1681" height="1600"/>
  </clipPath>
</defs>
<path clip-path="url(#clip040)" d="M673.506 1273.7 L2305.51 1273.7 L2305.51 94.4882 L673.506 94.4882  Z" fill="#ffffff" fill-rule="evenodd" fill-opacity="1"/>
<defs>
  <clipPath id="clip042">
    <rect x="673" y="94" width="1633" height="1180"/>
  </clipPath>
</defs>
<polyline clip-path="url(#clip042)" style="stroke:#000000; stroke-linecap:round; stroke-linejoin:round; stroke-width:4; stroke-opacity:0.1; fill:none" points="719.695,1273.7 719.695,94.4882 "/>
<polyline clip-path="url(#clip042)" style="stroke:#000000; stroke-linecap:round; stroke-linejoin:round; stroke-width:4; stroke-opacity:0.1; fill:none" points="994.628,1273.7 994.628,94.4882 "/>
<polyline clip-path="url(#clip042)" style="stroke:#000000; stroke-linecap:round; stroke-linejoin:round; stroke-width:4; stroke-opacity:0.1; fill:none" points="1269.56,1273.7 1269.56,94.4882 "/>
<polyline clip-path="url(#clip042)" style="stroke:#000000; stroke-linecap:round; stroke-linejoin:round; stroke-width:4; stroke-opacity:0.1; fill:none" points="1544.5,1273.7 1544.5,94.4882 "/>
<polyline clip-path="url(#clip042)" style="stroke:#000000; stroke-linecap:round; stroke-linejoin:round; stroke-width:4; stroke-opacity:0.1; fill:none" points="1819.43,1273.7 1819.43,94.4882 "/>
<polyline clip-path="url(#clip042)" style="stroke:#000000; stroke-linecap:round; stroke-linejoin:round; stroke-width:4; stroke-opacity:0.1; fill:none" points="2094.36,1273.7 2094.36,94.4882 "/>
<polyline clip-path="url(#clip040)" style="stroke:#000000; stroke-linecap:round; stroke-linejoin:round; stroke-width:8; stroke-opacity:1; fill:none" points="673.506,1273.7 2305.51,1273.7 "/>
<polyline clip-path="url(#clip040)" style="stroke:#000000; stroke-linecap:round; stroke-linejoin:round; stroke-width:8; stroke-opacity:1; fill:none" points="719.695,1273.7 719.695,1254.8 "/>
<polyline clip-path="url(#clip040)" style="stroke:#000000; stroke-linecap:round; stroke-linejoin:round; stroke-width:8; stroke-opacity:1; fill:none" points="994.628,1273.7 994.628,1254.8 "/>
<polyline clip-path="url(#clip040)" style="stroke:#000000; stroke-linecap:round; stroke-linejoin:round; stroke-width:8; stroke-opacity:1; fill:none" points="1269.56,1273.7 1269.56,1254.8 "/>
<polyline clip-path="url(#clip040)" style="stroke:#000000; stroke-linecap:round; stroke-linejoin:round; stroke-width:8; stroke-opacity:1; fill:none" points="1544.5,1273.7 1544.5,1254.8 "/>
<polyline clip-path="url(#clip040)" style="stroke:#000000; stroke-linecap:round; stroke-linejoin:round; stroke-width:8; stroke-opacity:1; fill:none" points="1819.43,1273.7 1819.43,1254.8 "/>
<polyline clip-path="url(#clip040)" style="stroke:#000000; stroke-linecap:round; stroke-linejoin:round; stroke-width:8; stroke-opacity:1; fill:none" points="2094.36,1273.7 2094.36,1254.8 "/>
<path clip-path="url(#clip040)" d="M644.302 1316.33 Q637.08 1316.33 633.422 1323.46 Q629.811 1330.55 629.811 1344.81 Q629.811 1359.02 633.422 1366.15 Q637.08 1373.23 644.302 1373.23 Q651.57 1373.23 655.181 1366.15 Q658.839 1359.02 658.839 1344.81 Q658.839 1330.55 655.181 1323.46 Q651.57 1316.33 644.302 1316.33 M644.302 1308.93 Q655.922 1308.93 662.033 1318.14 Q668.19 1327.31 668.19 1344.81 Q668.19 1362.26 662.033 1371.47 Q655.922 1380.64 644.302 1380.64 Q632.681 1380.64 626.524 1371.47 Q620.413 1362.26 620.413 1344.81 Q620.413 1327.31 626.524 1318.14 Q632.681 1308.93 644.302 1308.93 Z" fill="#000000" fill-rule="nonzero" fill-opacity="1" /><path clip-path="url(#clip040)" d="M684.626 1367.54 L694.394 1367.54 L694.394 1379.3 L684.626 1379.3 L684.626 1367.54 Z" fill="#000000" fill-rule="nonzero" fill-opacity="1" /><path clip-path="url(#clip040)" d="M734.764 1316.33 Q727.542 1316.33 723.885 1323.46 Q720.274 1330.55 720.274 1344.81 Q720.274 1359.02 723.885 1366.15 Q727.542 1373.23 734.764 1373.23 Q742.033 1373.23 745.644 1366.15 Q749.301 1359.02 749.301 1344.81 Q749.301 1330.55 745.644 1323.46 Q742.033 1316.33 734.764 1316.33 M734.764 1308.93 Q746.384 1308.93 752.496 1318.14 Q758.653 1327.31 758.653 1344.81 Q758.653 1362.26 752.496 1371.47 Q746.384 1380.64 734.764 1380.64 Q723.144 1380.64 716.986 1371.47 Q710.875 1362.26 710.875 1344.81 Q710.875 1327.31 716.986 1318.14 Q723.144 1308.93 734.764 1308.93 Z" fill="#000000" fill-rule="nonzero" fill-opacity="1" /><path clip-path="url(#clip040)" d="M795.088 1316.33 Q787.866 1316.33 784.208 1323.46 Q780.597 1330.55 780.597 1344.81 Q780.597 1359.02 784.208 1366.15 Q787.866 1373.23 795.088 1373.23 Q802.356 1373.23 805.967 1366.15 Q809.625 1359.02 809.625 1344.81 Q809.625 1330.55 805.967 1323.46 Q802.356 1316.33 795.088 1316.33 M795.088 1308.93 Q806.708 1308.93 812.819 1318.14 Q818.977 1327.31 818.977 1344.81 Q818.977 1362.26 812.819 1371.47 Q806.708 1380.64 795.088 1380.64 Q783.468 1380.64 777.31 1371.47 Q771.199 1362.26 771.199 1344.81 Q771.199 1327.31 777.31 1318.14 Q783.468 1308.93 795.088 1308.93 Z" fill="#000000" fill-rule="nonzero" fill-opacity="1" /><path clip-path="url(#clip040)" d="M920.231 1316.33 Q913.008 1316.33 909.351 1323.46 Q905.74 1330.55 905.74 1344.81 Q905.74 1359.02 909.351 1366.15 Q913.008 1373.23 920.231 1373.23 Q927.499 1373.23 931.11 1366.15 Q934.768 1359.02 934.768 1344.81 Q934.768 1330.55 931.11 1323.46 Q927.499 1316.33 920.231 1316.33 M920.231 1308.93 Q931.851 1308.93 937.962 1318.14 Q944.119 1327.31 944.119 1344.81 Q944.119 1362.26 937.962 1371.47 Q931.851 1380.64 920.231 1380.64 Q908.61 1380.64 902.453 1371.47 Q896.342 1362.26 896.342 1344.81 Q896.342 1327.31 902.453 1318.14 Q908.61 1308.93 920.231 1308.93 Z" fill="#000000" fill-rule="nonzero" fill-opacity="1" /><path clip-path="url(#clip040)" d="M960.555 1367.54 L970.323 1367.54 L970.323 1379.3 L960.555 1379.3 L960.555 1367.54 Z" fill="#000000" fill-rule="nonzero" fill-opacity="1" /><path clip-path="url(#clip040)" d="M998.749 1371.43 L1031.39 1371.43 L1031.39 1379.3 L987.499 1379.3 L987.499 1371.43 Q992.823 1365.92 1001.99 1356.66 Q1011.2 1347.35 1013.56 1344.67 Q1018.05 1339.62 1019.81 1336.15 Q1021.62 1332.63 1021.62 1329.25 Q1021.62 1323.74 1017.73 1320.27 Q1013.89 1316.8 1007.68 1316.8 Q1003.29 1316.8 998.378 1318.32 Q993.517 1319.85 987.962 1322.95 L987.962 1313.51 Q993.61 1311.24 998.517 1310.08 Q1003.42 1308.93 1007.5 1308.93 Q1018.24 1308.93 1024.63 1314.3 Q1031.02 1319.67 1031.02 1328.65 Q1031.02 1332.91 1029.4 1336.75 Q1027.82 1340.55 1023.61 1345.73 Q1022.45 1347.07 1016.25 1353.51 Q1010.04 1359.9 998.749 1371.43 Z" fill="#000000" fill-rule="nonzero" fill-opacity="1" /><path clip-path="url(#clip040)" d="M1051.11 1310.18 L1087.82 1310.18 L1087.82 1318.05 L1059.67 1318.05 L1059.67 1334.99 Q1061.71 1334.3 1063.75 1333.97 Q1065.79 1333.6 1067.82 1333.6 Q1079.4 1333.6 1086.16 1339.94 Q1092.91 1346.29 1092.91 1357.12 Q1092.91 1368.28 1085.97 1374.48 Q1079.03 1380.64 1066.39 1380.64 Q1062.04 1380.64 1057.5 1379.9 Q1053.01 1379.16 1048.19 1377.68 L1048.19 1368.28 Q1052.36 1370.55 1056.8 1371.66 Q1061.25 1372.77 1066.2 1372.77 Q1074.21 1372.77 1078.89 1368.56 Q1083.56 1364.34 1083.56 1357.12 Q1083.56 1349.9 1078.89 1345.68 Q1074.21 1341.47 1066.2 1341.47 Q1062.45 1341.47 1058.7 1342.31 Q1055 1343.14 1051.11 1344.9 L1051.11 1310.18 Z" fill="#000000" fill-rule="nonzero" fill-opacity="1" /><path clip-path="url(#clip040)" d="M1194.17 1316.33 Q1186.95 1316.33 1183.29 1323.46 Q1179.68 1330.55 1179.68 1344.81 Q1179.68 1359.02 1183.29 1366.15 Q1186.95 1373.23 1194.17 1373.23 Q1201.44 1373.23 1205.05 1366.15 Q1208.71 1359.02 1208.71 1344.81 Q1208.71 1330.55 1205.05 1323.46 Q1201.44 1316.33 1194.17 1316.33 M1194.17 1308.93 Q1205.79 1308.93 1211.9 1318.14 Q1218.06 1327.31 1218.06 1344.81 Q1218.06 1362.26 1211.9 1371.47 Q1205.79 1380.64 1194.17 1380.64 Q1182.55 1380.64 1176.39 1371.47 Q1170.28 1362.26 1170.28 1344.81 Q1170.28 1327.31 1176.39 1318.14 Q1182.55 1308.93 1194.17 1308.93 Z" fill="#000000" fill-rule="nonzero" fill-opacity="1" /><path clip-path="url(#clip040)" d="M1234.49 1367.54 L1244.26 1367.54 L1244.26 1379.3 L1234.49 1379.3 L1234.49 1367.54 Z" fill="#000000" fill-rule="nonzero" fill-opacity="1" /><path clip-path="url(#clip040)" d="M1264.72 1310.18 L1301.44 1310.18 L1301.44 1318.05 L1273.29 1318.05 L1273.29 1334.99 Q1275.33 1334.3 1277.36 1333.97 Q1279.4 1333.6 1281.44 1333.6 Q1293.01 1333.6 1299.77 1339.94 Q1306.53 1346.29 1306.53 1357.12 Q1306.53 1368.28 1299.58 1374.48 Q1292.64 1380.64 1280 1380.64 Q1275.65 1380.64 1271.11 1379.9 Q1266.62 1379.16 1261.81 1377.68 L1261.81 1368.28 Q1265.97 1370.55 1270.42 1371.66 Q1274.86 1372.77 1279.82 1372.77 Q1287.83 1372.77 1292.5 1368.56 Q1297.18 1364.34 1297.18 1357.12 Q1297.18 1349.9 1292.5 1345.68 Q1287.83 1341.47 1279.82 1341.47 Q1276.07 1341.47 1272.32 1342.31 Q1268.61 1343.14 1264.72 1344.9 L1264.72 1310.18 Z" fill="#000000" fill-rule="nonzero" fill-opacity="1" /><path clip-path="url(#clip040)" d="M1344.96 1316.33 Q1337.73 1316.33 1334.08 1323.46 Q1330.46 1330.55 1330.46 1344.81 Q1330.46 1359.02 1334.08 1366.15 Q1337.73 1373.23 1344.96 1373.23 Q1352.22 1373.23 1355.83 1366.15 Q1359.49 1359.02 1359.49 1344.81 Q1359.49 1330.55 1355.83 1323.46 Q1352.22 1316.33 1344.96 1316.33 M1344.96 1308.93 Q1356.58 1308.93 1362.69 1318.14 Q1368.84 1327.31 1368.84 1344.81 Q1368.84 1362.26 1362.69 1371.47 Q1356.58 1380.64 1344.96 1380.64 Q1333.33 1380.64 1327.18 1371.47 Q1321.07 1362.26 1321.07 1344.81 Q1321.07 1327.31 1327.18 1318.14 Q1333.33 1308.93 1344.96 1308.93 Z" fill="#000000" fill-rule="nonzero" fill-opacity="1" /><path clip-path="url(#clip040)" d="M1470.1 1316.33 Q1462.88 1316.33 1459.22 1323.46 Q1455.61 1330.55 1455.61 1344.81 Q1455.61 1359.02 1459.22 1366.15 Q1462.88 1373.23 1470.1 1373.23 Q1477.37 1373.23 1480.98 1366.15 Q1484.63 1359.02 1484.63 1344.81 Q1484.63 1330.55 1480.98 1323.46 Q1477.37 1316.33 1470.1 1316.33 M1470.1 1308.93 Q1481.72 1308.93 1487.83 1318.14 Q1493.99 1327.31 1493.99 1344.81 Q1493.99 1362.26 1487.83 1371.47 Q1481.72 1380.64 1470.1 1380.64 Q1458.48 1380.64 1452.32 1371.47 Q1446.21 1362.26 1446.21 1344.81 Q1446.21 1327.31 1452.32 1318.14 Q1458.48 1308.93 1470.1 1308.93 Z" fill="#000000" fill-rule="nonzero" fill-opacity="1" /><path clip-path="url(#clip040)" d="M1510.42 1367.54 L1520.19 1367.54 L1520.19 1379.3 L1510.42 1379.3 L1510.42 1367.54 Z" fill="#000000" fill-rule="nonzero" fill-opacity="1" /><path clip-path="url(#clip040)" d="M1538.2 1310.18 L1582.64 1310.18 L1582.64 1314.16 L1557.55 1379.3 L1547.78 1379.3 L1571.39 1318.05 L1538.2 1318.05 L1538.2 1310.18 Z" fill="#000000" fill-rule="nonzero" fill-opacity="1" /><path clip-path="url(#clip040)" d="M1600.98 1310.18 L1637.69 1310.18 L1637.69 1318.05 L1609.54 1318.05 L1609.54 1334.99 Q1611.58 1334.3 1613.62 1333.97 Q1615.65 1333.6 1617.69 1333.6 Q1629.26 1333.6 1636.02 1339.94 Q1642.78 1346.29 1642.78 1357.12 Q1642.78 1368.28 1635.84 1374.48 Q1628.89 1380.64 1616.25 1380.64 Q1611.9 1380.64 1607.37 1379.9 Q1602.87 1379.16 1598.06 1377.68 L1598.06 1368.28 Q1602.23 1370.55 1606.67 1371.66 Q1611.12 1372.77 1616.07 1372.77 Q1624.08 1372.77 1628.75 1368.56 Q1633.43 1364.34 1633.43 1357.12 Q1633.43 1349.9 1628.75 1345.68 Q1624.08 1341.47 1616.07 1341.47 Q1612.32 1341.47 1608.57 1342.31 Q1604.87 1343.14 1600.98 1344.9 L1600.98 1310.18 Z" fill="#000000" fill-rule="nonzero" fill-opacity="1" /><path clip-path="url(#clip040)" d="M1723.57 1371.43 L1738.85 1371.43 L1738.85 1318.69 L1722.23 1322.03 L1722.23 1313.51 L1738.76 1310.18 L1748.11 1310.18 L1748.11 1371.43 L1763.39 1371.43 L1763.39 1379.3 L1723.57 1379.3 L1723.57 1371.43 Z" fill="#000000" fill-rule="nonzero" fill-opacity="1" /><path clip-path="url(#clip040)" d="M1782.28 1367.54 L1792.05 1367.54 L1792.05 1379.3 L1782.28 1379.3 L1782.28 1367.54 Z" fill="#000000" fill-rule="nonzero" fill-opacity="1" /><path clip-path="url(#clip040)" d="M1832.42 1316.33 Q1825.19 1316.33 1821.54 1323.46 Q1817.92 1330.55 1817.92 1344.81 Q1817.92 1359.02 1821.54 1366.15 Q1825.19 1373.23 1832.42 1373.23 Q1839.68 1373.23 1843.29 1366.15 Q1846.95 1359.02 1846.95 1344.81 Q1846.95 1330.55 1843.29 1323.46 Q1839.68 1316.33 1832.42 1316.33 M1832.42 1308.93 Q1844.04 1308.93 1850.15 1318.14 Q1856.3 1327.31 1856.3 1344.81 Q1856.3 1362.26 1850.15 1371.47 Q1844.04 1380.64 1832.42 1380.64 Q1820.79 1380.64 1814.64 1371.47 Q1808.53 1362.26 1808.53 1344.81 Q1808.53 1327.31 1814.64 1318.14 Q1820.79 1308.93 1832.42 1308.93 Z" fill="#000000" fill-rule="nonzero" fill-opacity="1" /><path clip-path="url(#clip040)" d="M1892.74 1316.33 Q1885.52 1316.33 1881.86 1323.46 Q1878.25 1330.55 1878.25 1344.81 Q1878.25 1359.02 1881.86 1366.15 Q1885.52 1373.23 1892.74 1373.23 Q1900.01 1373.23 1903.62 1366.15 Q1907.28 1359.02 1907.28 1344.81 Q1907.28 1330.55 1903.62 1323.46 Q1900.01 1316.33 1892.74 1316.33 M1892.74 1308.93 Q1904.36 1308.93 1910.47 1318.14 Q1916.63 1327.31 1916.63 1344.81 Q1916.63 1362.26 1910.47 1371.47 Q1904.36 1380.64 1892.74 1380.64 Q1881.12 1380.64 1874.96 1371.47 Q1868.85 1362.26 1868.85 1344.81 Q1868.85 1327.31 1874.96 1318.14 Q1881.12 1308.93 1892.74 1308.93 Z" fill="#000000" fill-rule="nonzero" fill-opacity="1" /><path clip-path="url(#clip040)" d="M1999.5 1371.43 L2014.78 1371.43 L2014.78 1318.69 L1998.16 1322.03 L1998.16 1313.51 L2014.69 1310.18 L2024.04 1310.18 L2024.04 1371.43 L2039.32 1371.43 L2039.32 1379.3 L1999.5 1379.3 L1999.5 1371.43 Z" fill="#000000" fill-rule="nonzero" fill-opacity="1" /><path clip-path="url(#clip040)" d="M2058.21 1367.54 L2067.97 1367.54 L2067.97 1379.3 L2058.21 1379.3 L2058.21 1367.54 Z" fill="#000000" fill-rule="nonzero" fill-opacity="1" /><path clip-path="url(#clip040)" d="M2096.4 1371.43 L2129.04 1371.43 L2129.04 1379.3 L2085.15 1379.3 L2085.15 1371.43 Q2090.47 1365.92 2099.64 1356.66 Q2108.85 1347.35 2111.21 1344.67 Q2115.71 1339.62 2117.46 1336.15 Q2119.27 1332.63 2119.27 1329.25 Q2119.27 1323.74 2115.38 1320.27 Q2111.54 1316.8 2105.33 1316.8 Q2100.94 1316.8 2096.03 1318.32 Q2091.17 1319.85 2085.61 1322.95 L2085.61 1313.51 Q2091.26 1311.24 2096.17 1310.08 Q2101.08 1308.93 2105.15 1308.93 Q2115.89 1308.93 2122.28 1314.3 Q2128.67 1319.67 2128.67 1328.65 Q2128.67 1332.91 2127.05 1336.75 Q2125.47 1340.55 2121.26 1345.73 Q2120.1 1347.07 2113.9 1353.51 Q2107.7 1359.9 2096.4 1371.43 Z" fill="#000000" fill-rule="nonzero" fill-opacity="1" /><path clip-path="url(#clip040)" d="M2148.76 1310.18 L2185.47 1310.18 L2185.47 1318.05 L2157.33 1318.05 L2157.33 1334.99 Q2159.36 1334.3 2161.4 1333.97 Q2163.44 1333.6 2165.47 1333.6 Q2177.05 1333.6 2183.81 1339.94 Q2190.57 1346.29 2190.57 1357.12 Q2190.57 1368.28 2183.62 1374.48 Q2176.68 1380.64 2164.04 1380.64 Q2159.69 1380.64 2155.15 1379.9 Q2150.66 1379.16 2145.84 1377.68 L2145.84 1368.28 Q2150.01 1370.55 2154.46 1371.66 Q2158.9 1372.77 2163.85 1372.77 Q2171.86 1372.77 2176.54 1368.56 Q2181.21 1364.34 2181.21 1357.12 Q2181.21 1349.9 2176.54 1345.68 Q2171.86 1341.47 2163.85 1341.47 Q2160.1 1341.47 2156.35 1342.31 Q2152.65 1343.14 2148.76 1344.9 L2148.76 1310.18 Z" fill="#000000" fill-rule="nonzero" fill-opacity="1" /><path clip-path="url(#clip040)" d="M1375.05 1484.39 L1375.05 1527.42 L1363.34 1527.42 L1363.34 1484.77 Q1363.34 1474.65 1359.39 1469.62 Q1355.45 1464.59 1347.55 1464.59 Q1338.07 1464.59 1332.59 1470.64 Q1327.12 1476.69 1327.12 1487.13 L1327.12 1527.42 L1315.34 1527.42 L1315.34 1428.37 L1327.12 1428.37 L1327.12 1467.2 Q1331.32 1460.77 1336.99 1457.59 Q1342.72 1454.41 1350.16 1454.41 Q1362.45 1454.41 1368.75 1462.05 Q1375.05 1469.62 1375.05 1484.39 Z" fill="#000000" fill-rule="nonzero" fill-opacity="1" /><path clip-path="url(#clip040)" d="M1426.04 1464.34 Q1416.62 1464.34 1411.15 1471.72 Q1405.67 1479.04 1405.67 1491.84 Q1405.67 1504.63 1411.08 1512.02 Q1416.56 1519.34 1426.04 1519.34 Q1435.4 1519.34 1440.87 1511.96 Q1446.35 1504.57 1446.35 1491.84 Q1446.35 1479.17 1440.87 1471.79 Q1435.4 1464.34 1426.04 1464.34 M1426.04 1454.41 Q1441.32 1454.41 1450.04 1464.34 Q1458.76 1474.27 1458.76 1491.84 Q1458.76 1509.35 1450.04 1519.34 Q1441.32 1529.27 1426.04 1529.27 Q1410.7 1529.27 1401.98 1519.34 Q1393.32 1509.35 1393.32 1491.84 Q1393.32 1474.27 1401.98 1464.34 Q1410.7 1454.41 1426.04 1454.41 Z" fill="#000000" fill-rule="nonzero" fill-opacity="1" /><path clip-path="url(#clip040)" d="M1476.97 1499.29 L1476.97 1456.13 L1488.68 1456.13 L1488.68 1498.84 Q1488.68 1508.96 1492.63 1514.06 Q1496.57 1519.08 1504.47 1519.08 Q1513.95 1519.08 1519.43 1513.04 Q1524.97 1506.99 1524.97 1496.55 L1524.97 1456.13 L1536.68 1456.13 L1536.68 1527.42 L1524.97 1527.42 L1524.97 1516.47 Q1520.7 1522.97 1515.04 1526.15 Q1509.43 1529.27 1501.99 1529.27 Q1489.7 1529.27 1483.33 1521.63 Q1476.97 1513.99 1476.97 1499.29 M1506.44 1454.41 L1506.44 1454.41 Z" fill="#000000" fill-rule="nonzero" fill-opacity="1" /><path clip-path="url(#clip040)" d="M1602.12 1467.08 Q1600.14 1465.93 1597.79 1465.42 Q1595.5 1464.85 1592.7 1464.85 Q1582.77 1464.85 1577.42 1471.34 Q1572.14 1477.77 1572.14 1489.87 L1572.14 1527.42 L1560.36 1527.42 L1560.36 1456.13 L1572.14 1456.13 L1572.14 1467.2 Q1575.83 1460.71 1581.75 1457.59 Q1587.67 1454.41 1596.13 1454.41 Q1597.34 1454.41 1598.81 1454.6 Q1600.27 1454.73 1602.05 1455.05 L1602.12 1467.08 Z" fill="#000000" fill-rule="nonzero" fill-opacity="1" /><path clip-path="url(#clip040)" d="M1659.86 1458.23 L1659.86 1469.3 Q1654.89 1466.76 1649.54 1465.49 Q1644.2 1464.21 1638.47 1464.21 Q1629.75 1464.21 1625.35 1466.89 Q1621.02 1469.56 1621.02 1474.91 Q1621.02 1478.98 1624.14 1481.34 Q1627.26 1483.63 1636.68 1485.73 L1640.69 1486.62 Q1653.17 1489.29 1658.39 1494.19 Q1663.67 1499.03 1663.67 1507.75 Q1663.67 1517.68 1655.78 1523.48 Q1647.95 1529.27 1634.2 1529.27 Q1628.47 1529.27 1622.23 1528.12 Q1616.06 1527.04 1609.18 1524.81 L1609.18 1512.72 Q1615.68 1516.09 1621.98 1517.81 Q1628.28 1519.47 1634.46 1519.47 Q1642.73 1519.47 1647.19 1516.67 Q1651.64 1513.8 1651.64 1508.64 Q1651.64 1503.87 1648.4 1501.32 Q1645.21 1498.78 1634.33 1496.42 L1630.25 1495.47 Q1619.37 1493.18 1614.53 1488.47 Q1609.69 1483.69 1609.69 1475.42 Q1609.69 1465.36 1616.82 1459.88 Q1623.95 1454.41 1637.07 1454.41 Q1643.56 1454.41 1649.29 1455.36 Q1655.02 1456.32 1659.86 1458.23 Z" fill="#000000" fill-rule="nonzero" fill-opacity="1" /><polyline clip-path="url(#clip042)" style="stroke:#000000; stroke-linecap:round; stroke-linejoin:round; stroke-width:4; stroke-opacity:0.1; fill:none" points="673.506,1142.66 2305.51,1142.66 "/>
<polyline clip-path="url(#clip042)" style="stroke:#000000; stroke-linecap:round; stroke-linejoin:round; stroke-width:4; stroke-opacity:0.1; fill:none" points="673.506,891.049 2305.51,891.049 "/>
<polyline clip-path="url(#clip042)" style="stroke:#000000; stroke-linecap:round; stroke-linejoin:round; stroke-width:4; stroke-opacity:0.1; fill:none" points="673.506,639.439 2305.51,639.439 "/>
<polyline clip-path="url(#clip042)" style="stroke:#000000; stroke-linecap:round; stroke-linejoin:round; stroke-width:4; stroke-opacity:0.1; fill:none" points="673.506,387.828 2305.51,387.828 "/>
<polyline clip-path="url(#clip042)" style="stroke:#000000; stroke-linecap:round; stroke-linejoin:round; stroke-width:4; stroke-opacity:0.1; fill:none" points="673.506,136.218 2305.51,136.218 "/>
<polyline clip-path="url(#clip040)" style="stroke:#000000; stroke-linecap:round; stroke-linejoin:round; stroke-width:8; stroke-opacity:1; fill:none" points="673.506,1273.7 673.506,94.4882 "/>
<polyline clip-path="url(#clip040)" style="stroke:#000000; stroke-linecap:round; stroke-linejoin:round; stroke-width:8; stroke-opacity:1; fill:none" points="673.506,1142.66 692.404,1142.66 "/>
<polyline clip-path="url(#clip040)" style="stroke:#000000; stroke-linecap:round; stroke-linejoin:round; stroke-width:8; stroke-opacity:1; fill:none" points="673.506,891.049 692.404,891.049 "/>
<polyline clip-path="url(#clip040)" style="stroke:#000000; stroke-linecap:round; stroke-linejoin:round; stroke-width:8; stroke-opacity:1; fill:none" points="673.506,639.439 692.404,639.439 "/>
<polyline clip-path="url(#clip040)" style="stroke:#000000; stroke-linecap:round; stroke-linejoin:round; stroke-width:8; stroke-opacity:1; fill:none" points="673.506,387.828 692.404,387.828 "/>
<polyline clip-path="url(#clip040)" style="stroke:#000000; stroke-linecap:round; stroke-linejoin:round; stroke-width:8; stroke-opacity:1; fill:none" points="673.506,136.218 692.404,136.218 "/>
<path clip-path="url(#clip040)" d="M462.831 1144.4 Q456.164 1144.4 452.322 1147.96 Q448.525 1151.53 448.525 1157.78 Q448.525 1164.03 452.322 1167.59 Q456.164 1171.16 462.831 1171.16 Q469.498 1171.16 473.34 1167.59 Q477.183 1163.98 477.183 1157.78 Q477.183 1151.53 473.34 1147.96 Q469.544 1144.4 462.831 1144.4 M453.479 1140.41 Q447.461 1138.93 444.081 1134.81 Q440.748 1130.69 440.748 1124.77 Q440.748 1116.48 446.627 1111.66 Q452.553 1106.85 462.831 1106.85 Q473.155 1106.85 479.035 1111.66 Q484.914 1116.48 484.914 1124.77 Q484.914 1130.69 481.535 1134.81 Q478.201 1138.93 472.229 1140.41 Q478.988 1141.99 482.738 1146.57 Q486.535 1151.16 486.535 1157.78 Q486.535 1167.82 480.377 1173.19 Q474.266 1178.56 462.831 1178.56 Q451.396 1178.56 445.238 1173.19 Q439.127 1167.82 439.127 1157.78 Q439.127 1151.16 442.924 1146.57 Q446.72 1141.99 453.479 1140.41 M450.053 1125.65 Q450.053 1131.02 453.387 1134.03 Q456.766 1137.03 462.831 1137.03 Q468.849 1137.03 472.229 1134.03 Q475.655 1131.02 475.655 1125.65 Q475.655 1120.28 472.229 1117.27 Q468.849 1114.26 462.831 1114.26 Q456.766 1114.26 453.387 1117.27 Q450.053 1120.28 450.053 1125.65 Z" fill="#000000" fill-rule="nonzero" fill-opacity="1" /><path clip-path="url(#clip040)" d="M523.155 1114.26 Q515.933 1114.26 512.275 1121.39 Q508.664 1128.47 508.664 1142.73 Q508.664 1156.94 512.275 1164.07 Q515.933 1171.16 523.155 1171.16 Q530.423 1171.16 534.034 1164.07 Q537.692 1156.94 537.692 1142.73 Q537.692 1128.47 534.034 1121.39 Q530.423 1114.26 523.155 1114.26 M523.155 1106.85 Q534.775 1106.85 540.886 1116.06 Q547.043 1125.23 547.043 1142.73 Q547.043 1160.18 540.886 1169.4 Q534.775 1178.56 523.155 1178.56 Q511.534 1178.56 505.377 1169.4 Q499.266 1160.18 499.266 1142.73 Q499.266 1125.23 505.377 1116.06 Q511.534 1106.85 523.155 1106.85 Z" fill="#000000" fill-rule="nonzero" fill-opacity="1" /><path clip-path="url(#clip040)" d="M563.479 1165.46 L573.247 1165.46 L573.247 1177.22 L563.479 1177.22 L563.479 1165.46 Z" fill="#000000" fill-rule="nonzero" fill-opacity="1" /><path clip-path="url(#clip040)" d="M613.617 1114.26 Q606.395 1114.26 602.738 1121.39 Q599.127 1128.47 599.127 1142.73 Q599.127 1156.94 602.738 1164.07 Q606.395 1171.16 613.617 1171.16 Q620.886 1171.16 624.497 1164.07 Q628.154 1156.94 628.154 1142.73 Q628.154 1128.47 624.497 1121.39 Q620.886 1114.26 613.617 1114.26 M613.617 1106.85 Q625.238 1106.85 631.349 1116.06 Q637.506 1125.23 637.506 1142.73 Q637.506 1160.18 631.349 1169.4 Q625.238 1178.56 613.617 1178.56 Q601.997 1178.56 595.84 1169.4 Q589.728 1160.18 589.728 1142.73 Q589.728 1125.23 595.84 1116.06 Q601.997 1106.85 613.617 1106.85 Z" fill="#000000" fill-rule="nonzero" fill-opacity="1" /><path clip-path="url(#clip040)" d="M384.128 917.739 L399.405 917.739 L399.405 865.008 L382.785 868.341 L382.785 859.823 L399.313 856.489 L408.665 856.489 L408.665 917.739 L423.942 917.739 L423.942 925.609 L384.128 925.609 L384.128 917.739 Z" fill="#000000" fill-rule="nonzero" fill-opacity="1" /><path clip-path="url(#clip040)" d="M462.831 862.647 Q455.609 862.647 451.951 869.776 Q448.34 876.86 448.34 891.119 Q448.34 905.332 451.951 912.461 Q455.609 919.545 462.831 919.545 Q470.099 919.545 473.711 912.461 Q477.368 905.332 477.368 891.119 Q477.368 876.86 473.711 869.776 Q470.099 862.647 462.831 862.647 M462.831 855.239 Q474.451 855.239 480.562 864.452 Q486.72 873.619 486.72 891.119 Q486.72 908.572 480.562 917.785 Q474.451 926.952 462.831 926.952 Q451.211 926.952 445.053 917.785 Q438.942 908.572 438.942 891.119 Q438.942 873.619 445.053 864.452 Q451.211 855.239 462.831 855.239 Z" fill="#000000" fill-rule="nonzero" fill-opacity="1" /><path clip-path="url(#clip040)" d="M523.155 862.647 Q515.933 862.647 512.275 869.776 Q508.664 876.86 508.664 891.119 Q508.664 905.332 512.275 912.461 Q515.933 919.545 523.155 919.545 Q530.423 919.545 534.034 912.461 Q537.692 905.332 537.692 891.119 Q537.692 876.86 534.034 869.776 Q530.423 862.647 523.155 862.647 M523.155 855.239 Q534.775 855.239 540.886 864.452 Q547.043 873.619 547.043 891.119 Q547.043 908.572 540.886 917.785 Q534.775 926.952 523.155 926.952 Q511.534 926.952 505.377 917.785 Q499.266 908.572 499.266 891.119 Q499.266 873.619 505.377 864.452 Q511.534 855.239 523.155 855.239 Z" fill="#000000" fill-rule="nonzero" fill-opacity="1" /><path clip-path="url(#clip040)" d="M563.479 913.85 L573.247 913.85 L573.247 925.609 L563.479 925.609 L563.479 913.85 Z" fill="#000000" fill-rule="nonzero" fill-opacity="1" /><path clip-path="url(#clip040)" d="M613.617 862.647 Q606.395 862.647 602.738 869.776 Q599.127 876.86 599.127 891.119 Q599.127 905.332 602.738 912.461 Q606.395 919.545 613.617 919.545 Q620.886 919.545 624.497 912.461 Q628.154 905.332 628.154 891.119 Q628.154 876.86 624.497 869.776 Q620.886 862.647 613.617 862.647 M613.617 855.239 Q625.238 855.239 631.349 864.452 Q637.506 873.619 637.506 891.119 Q637.506 908.572 631.349 917.785 Q625.238 926.952 613.617 926.952 Q601.997 926.952 595.84 917.785 Q589.728 908.572 589.728 891.119 Q589.728 873.619 595.84 864.452 Q601.997 855.239 613.617 855.239 Z" fill="#000000" fill-rule="nonzero" fill-opacity="1" /><path clip-path="url(#clip040)" d="M384.128 666.129 L399.405 666.129 L399.405 613.397 L382.785 616.731 L382.785 608.212 L399.313 604.879 L408.665 604.879 L408.665 666.129 L423.942 666.129 L423.942 673.999 L384.128 673.999 L384.128 666.129 Z" fill="#000000" fill-rule="nonzero" fill-opacity="1" /><path clip-path="url(#clip040)" d="M450.887 666.129 L483.525 666.129 L483.525 673.999 L439.637 673.999 L439.637 666.129 Q444.961 660.619 454.127 651.36 Q463.34 642.055 465.701 639.369 Q470.192 634.323 471.951 630.851 Q473.757 627.332 473.757 623.953 Q473.757 618.444 469.868 614.971 Q466.025 611.499 459.822 611.499 Q455.424 611.499 450.516 613.027 Q445.655 614.555 440.1 617.657 L440.1 608.212 Q445.748 605.944 450.655 604.786 Q455.562 603.629 459.637 603.629 Q470.377 603.629 476.766 608.999 Q483.155 614.37 483.155 623.351 Q483.155 627.61 481.535 631.453 Q479.961 635.249 475.748 640.434 Q474.59 641.777 468.387 648.212 Q462.183 654.601 450.887 666.129 Z" fill="#000000" fill-rule="nonzero" fill-opacity="1" /><path clip-path="url(#clip040)" d="M523.155 611.036 Q515.933 611.036 512.275 618.166 Q508.664 625.249 508.664 639.508 Q508.664 653.721 512.275 660.851 Q515.933 667.934 523.155 667.934 Q530.423 667.934 534.034 660.851 Q537.692 653.721 537.692 639.508 Q537.692 625.249 534.034 618.166 Q530.423 611.036 523.155 611.036 M523.155 603.629 Q534.775 603.629 540.886 612.842 Q547.043 622.008 547.043 639.508 Q547.043 656.962 540.886 666.175 Q534.775 675.341 523.155 675.341 Q511.534 675.341 505.377 666.175 Q499.266 656.962 499.266 639.508 Q499.266 622.008 505.377 612.842 Q511.534 603.629 523.155 603.629 Z" fill="#000000" fill-rule="nonzero" fill-opacity="1" /><path clip-path="url(#clip040)" d="M563.479 662.24 L573.247 662.24 L573.247 673.999 L563.479 673.999 L563.479 662.24 Z" fill="#000000" fill-rule="nonzero" fill-opacity="1" /><path clip-path="url(#clip040)" d="M613.617 611.036 Q606.395 611.036 602.738 618.166 Q599.127 625.249 599.127 639.508 Q599.127 653.721 602.738 660.851 Q606.395 667.934 613.617 667.934 Q620.886 667.934 624.497 660.851 Q628.154 653.721 628.154 639.508 Q628.154 625.249 624.497 618.166 Q620.886 611.036 613.617 611.036 M613.617 603.629 Q625.238 603.629 631.349 612.842 Q637.506 622.008 637.506 639.508 Q637.506 656.962 631.349 666.175 Q625.238 675.341 613.617 675.341 Q601.997 675.341 595.84 666.175 Q589.728 656.962 589.728 639.508 Q589.728 622.008 595.84 612.842 Q601.997 603.629 613.617 603.629 Z" fill="#000000" fill-rule="nonzero" fill-opacity="1" /><path clip-path="url(#clip040)" d="M384.128 414.518 L399.405 414.518 L399.405 361.787 L382.785 365.12 L382.785 356.602 L399.313 353.268 L408.665 353.268 L408.665 414.518 L423.942 414.518 L423.942 422.388 L384.128 422.388 L384.128 414.518 Z" fill="#000000" fill-rule="nonzero" fill-opacity="1" /><path clip-path="url(#clip040)" d="M468.525 361.416 L444.914 398.314 L468.525 398.314 L468.525 361.416 M466.072 353.268 L477.831 353.268 L477.831 398.314 L487.692 398.314 L487.692 406.092 L477.831 406.092 L477.831 422.388 L468.525 422.388 L468.525 406.092 L437.322 406.092 L437.322 397.064 L466.072 353.268 Z" fill="#000000" fill-rule="nonzero" fill-opacity="1" /><path clip-path="url(#clip040)" d="M523.155 359.426 Q515.933 359.426 512.275 366.555 Q508.664 373.639 508.664 387.898 Q508.664 402.111 512.275 409.24 Q515.933 416.324 523.155 416.324 Q530.423 416.324 534.034 409.24 Q537.692 402.111 537.692 387.898 Q537.692 373.639 534.034 366.555 Q530.423 359.426 523.155 359.426 M523.155 352.018 Q534.775 352.018 540.886 361.231 Q547.043 370.398 547.043 387.898 Q547.043 405.351 540.886 414.564 Q534.775 423.731 523.155 423.731 Q511.534 423.731 505.377 414.564 Q499.266 405.351 499.266 387.898 Q499.266 370.398 505.377 361.231 Q511.534 352.018 523.155 352.018 Z" fill="#000000" fill-rule="nonzero" fill-opacity="1" /><path clip-path="url(#clip040)" d="M563.479 410.629 L573.247 410.629 L573.247 422.388 L563.479 422.388 L563.479 410.629 Z" fill="#000000" fill-rule="nonzero" fill-opacity="1" /><path clip-path="url(#clip040)" d="M613.617 359.426 Q606.395 359.426 602.738 366.555 Q599.127 373.639 599.127 387.898 Q599.127 402.111 602.738 409.24 Q606.395 416.324 613.617 416.324 Q620.886 416.324 624.497 409.24 Q628.154 402.111 628.154 387.898 Q628.154 373.639 624.497 366.555 Q620.886 359.426 613.617 359.426 M613.617 352.018 Q625.238 352.018 631.349 361.231 Q637.506 370.398 637.506 387.898 Q637.506 405.351 631.349 414.564 Q625.238 423.731 613.617 423.731 Q601.997 423.731 595.84 414.564 Q589.728 405.351 589.728 387.898 Q589.728 370.398 595.84 361.231 Q601.997 352.018 613.617 352.018 Z" fill="#000000" fill-rule="nonzero" fill-opacity="1" /><path clip-path="url(#clip040)" d="M384.128 162.908 L399.405 162.908 L399.405 110.176 L382.785 113.51 L382.785 104.991 L399.313 101.658 L408.665 101.658 L408.665 162.908 L423.942 162.908 L423.942 170.778 L384.128 170.778 L384.128 162.908 Z" fill="#000000" fill-rule="nonzero" fill-opacity="1" /><path clip-path="url(#clip040)" d="M463.988 132.491 Q457.692 132.491 453.988 136.797 Q450.331 141.102 450.331 148.602 Q450.331 156.056 453.988 160.408 Q457.692 164.713 463.988 164.713 Q470.285 164.713 473.942 160.408 Q477.646 156.056 477.646 148.602 Q477.646 141.102 473.942 136.797 Q470.285 132.491 463.988 132.491 M482.553 103.186 L482.553 111.704 Q479.035 110.037 475.424 109.158 Q471.859 108.278 468.34 108.278 Q459.081 108.278 454.174 114.528 Q449.313 120.778 448.618 133.417 Q451.35 129.389 455.47 127.26 Q459.59 125.084 464.544 125.084 Q474.961 125.084 480.979 131.426 Q487.044 137.722 487.044 148.602 Q487.044 159.25 480.748 165.685 Q474.451 172.12 463.988 172.12 Q451.998 172.12 445.655 162.954 Q439.313 153.741 439.313 136.287 Q439.313 119.898 447.09 110.176 Q454.868 100.408 467.97 100.408 Q471.488 100.408 475.053 101.102 Q478.664 101.797 482.553 103.186 Z" fill="#000000" fill-rule="nonzero" fill-opacity="1" /><path clip-path="url(#clip040)" d="M523.155 107.815 Q515.933 107.815 512.275 114.945 Q508.664 122.028 508.664 136.287 Q508.664 150.5 512.275 157.63 Q515.933 164.713 523.155 164.713 Q530.423 164.713 534.034 157.63 Q537.692 150.5 537.692 136.287 Q537.692 122.028 534.034 114.945 Q530.423 107.815 523.155 107.815 M523.155 100.408 Q534.775 100.408 540.886 109.621 Q547.043 118.787 547.043 136.287 Q547.043 153.741 540.886 162.954 Q534.775 172.12 523.155 172.12 Q511.534 172.12 505.377 162.954 Q499.266 153.741 499.266 136.287 Q499.266 118.787 505.377 109.621 Q511.534 100.408 523.155 100.408 Z" fill="#000000" fill-rule="nonzero" fill-opacity="1" /><path clip-path="url(#clip040)" d="M563.479 159.019 L573.247 159.019 L573.247 170.778 L563.479 170.778 L563.479 159.019 Z" fill="#000000" fill-rule="nonzero" fill-opacity="1" /><path clip-path="url(#clip040)" d="M613.617 107.815 Q606.395 107.815 602.738 114.945 Q599.127 122.028 599.127 136.287 Q599.127 150.5 602.738 157.63 Q606.395 164.713 613.617 164.713 Q620.886 164.713 624.497 157.63 Q628.154 150.5 628.154 136.287 Q628.154 122.028 624.497 114.945 Q620.886 107.815 613.617 107.815 M613.617 100.408 Q625.238 100.408 631.349 109.621 Q637.506 118.787 637.506 136.287 Q637.506 153.741 631.349 162.954 Q625.238 172.12 613.617 172.12 Q601.997 172.12 595.84 162.954 Q589.728 153.741 589.728 136.287 Q589.728 118.787 595.84 109.621 Q601.997 100.408 613.617 100.408 Z" fill="#000000" fill-rule="nonzero" fill-opacity="1" /><path clip-path="url(#clip040)" d="M307.579 931.4 L345.391 931.4 L345.391 943.176 L246.977 943.176 L246.977 931.4 L257.799 931.4 Q251.433 927.708 248.378 922.106 Q245.258 916.44 245.258 908.61 Q245.258 895.624 255.571 887.54 Q265.883 879.392 282.689 879.392 Q299.494 879.392 309.807 887.54 Q320.119 895.624 320.119 908.61 Q320.119 916.44 317.064 922.106 Q313.944 927.708 307.579 931.4 M282.689 891.55 Q269.766 891.55 262.446 896.898 Q255.062 902.181 255.062 911.475 Q255.062 920.769 262.446 926.116 Q269.766 931.4 282.689 931.4 Q295.611 931.4 302.995 926.116 Q310.316 920.769 310.316 911.475 Q310.316 902.181 302.995 896.898 Q295.611 891.55 282.689 891.55 Z" fill="#000000" fill-rule="nonzero" fill-opacity="1" /><path clip-path="url(#clip040)" d="M282.434 827.575 Q282.434 841.771 285.681 847.245 Q288.927 852.72 296.757 852.72 Q302.995 852.72 306.688 848.645 Q310.316 844.508 310.316 837.442 Q310.316 827.702 303.441 821.846 Q296.502 815.926 285.044 815.926 L282.434 815.926 L282.434 827.575 M277.596 804.213 L318.273 804.213 L318.273 815.926 L307.451 815.926 Q313.944 819.936 317.064 825.92 Q320.119 831.904 320.119 840.561 Q320.119 851.51 314.008 858.003 Q307.833 864.432 297.521 864.432 Q285.49 864.432 279.379 856.412 Q273.268 848.327 273.268 832.349 L273.268 815.926 L272.122 815.926 Q264.037 815.926 259.645 821.273 Q255.189 826.556 255.189 836.169 Q255.189 842.28 256.653 848.073 Q258.117 853.865 261.045 859.213 L250.224 859.213 Q247.741 852.783 246.532 846.736 Q245.258 840.688 245.258 834.959 Q245.258 819.491 253.279 811.852 Q261.3 804.213 277.596 804.213 Z" fill="#000000" fill-rule="nonzero" fill-opacity="1" /><path clip-path="url(#clip040)" d="M257.926 738.773 Q256.78 740.747 256.271 743.102 Q255.698 745.394 255.698 748.195 Q255.698 758.125 262.191 763.472 Q268.621 768.756 280.715 768.756 L318.273 768.756 L318.273 780.532 L246.977 780.532 L246.977 768.756 L258.054 768.756 Q251.561 765.064 248.441 759.144 Q245.258 753.224 245.258 744.757 Q245.258 743.548 245.449 742.084 Q245.577 740.619 245.895 738.837 L257.926 738.773 Z" fill="#000000" fill-rule="nonzero" fill-opacity="1" /><path clip-path="url(#clip040)" d="M279.697 668.369 L285.426 668.369 L285.426 722.223 Q297.521 721.459 303.887 714.966 Q310.189 708.409 310.189 696.76 Q310.189 690.012 308.534 683.71 Q306.878 677.344 303.568 671.106 L314.645 671.106 Q317.318 677.408 318.719 684.028 Q320.119 690.649 320.119 697.46 Q320.119 714.52 310.189 724.514 Q300.258 734.445 283.325 734.445 Q265.82 734.445 255.571 725.023 Q245.258 715.539 245.258 699.497 Q245.258 685.11 254.552 676.771 Q263.783 668.369 279.697 668.369 M276.259 680.082 Q266.647 680.209 260.918 685.492 Q255.189 690.712 255.189 699.37 Q255.189 709.173 260.727 715.093 Q266.265 720.949 276.323 721.841 L276.259 680.082 Z" fill="#000000" fill-rule="nonzero" fill-opacity="1" /><path clip-path="url(#clip040)" d="M275.241 589.88 L318.273 589.88 L318.273 601.592 L275.623 601.592 Q265.501 601.592 260.472 605.539 Q255.444 609.486 255.444 617.379 Q255.444 626.864 261.491 632.339 Q267.538 637.813 277.978 637.813 L318.273 637.813 L318.273 649.59 L246.977 649.59 L246.977 637.813 L258.054 637.813 Q251.624 633.612 248.441 627.946 Q245.258 622.217 245.258 614.769 Q245.258 602.484 252.897 596.182 Q260.472 589.88 275.241 589.88 Z" fill="#000000" fill-rule="nonzero" fill-opacity="1" /><path clip-path="url(#clip040)" d="M302.104 564.862 L302.104 551.431 L318.273 551.431 L318.273 564.862 L302.104 564.862 Z" fill="#000000" fill-rule="nonzero" fill-opacity="1" /><path clip-path="url(#clip040)" d="M307.451 479.753 L307.451 458.746 L234.946 458.746 L239.529 481.599 L227.816 481.599 L223.233 458.873 L223.233 446.015 L307.451 446.015 L307.451 425.008 L318.273 425.008 L318.273 479.753 L307.451 479.753 Z" fill="#000000" fill-rule="nonzero" fill-opacity="1" /><polyline clip-path="url(#clip042)" style="stroke:#008000; stroke-linecap:round; stroke-linejoin:round; stroke-width:8; stroke-opacity:1; fill:none" points="719.695,735.886 829.668,638.185 939.642,605.896 1049.62,494.022 1159.59,623.6 1269.56,716.868 1379.54,804.131 1489.51,823.248 1599.48,1054.45 1709.46,1024.54 1819.43,1131.78 1929.4,1201.62 2039.38,1179.92 2149.35,1130.18 2259.32,1177.47 "/>
<circle clip-path="url(#clip042)" cx="719.695" cy="735.886" r="14.4" fill="#008000" fill-rule="evenodd" fill-opacity="1" stroke="#000000" stroke-opacity="1" stroke-width="6.4"/>
<circle clip-path="url(#clip042)" cx="829.668" cy="638.185" r="14.4" fill="#008000" fill-rule="evenodd" fill-opacity="1" stroke="#000000" stroke-opacity="1" stroke-width="6.4"/>
<circle clip-path="url(#clip042)" cx="939.642" cy="605.896" r="14.4" fill="#008000" fill-rule="evenodd" fill-opacity="1" stroke="#000000" stroke-opacity="1" stroke-width="6.4"/>
<circle clip-path="url(#clip042)" cx="1049.62" cy="494.022" r="14.4" fill="#008000" fill-rule="evenodd" fill-opacity="1" stroke="#000000" stroke-opacity="1" stroke-width="6.4"/>
<circle clip-path="url(#clip042)" cx="1159.59" cy="623.6" r="14.4" fill="#008000" fill-rule="evenodd" fill-opacity="1" stroke="#000000" stroke-opacity="1" stroke-width="6.4"/>
<circle clip-path="url(#clip042)" cx="1269.56" cy="716.868" r="14.4" fill="#008000" fill-rule="evenodd" fill-opacity="1" stroke="#000000" stroke-opacity="1" stroke-width="6.4"/>
<circle clip-path="url(#clip042)" cx="1379.54" cy="804.131" r="14.4" fill="#008000" fill-rule="evenodd" fill-opacity="1" stroke="#000000" stroke-opacity="1" stroke-width="6.4"/>
<circle clip-path="url(#clip042)" cx="1489.51" cy="823.248" r="14.4" fill="#008000" fill-rule="evenodd" fill-opacity="1" stroke="#000000" stroke-opacity="1" stroke-width="6.4"/>
<circle clip-path="url(#clip042)" cx="1599.48" cy="1054.45" r="14.4" fill="#008000" fill-rule="evenodd" fill-opacity="1" stroke="#000000" stroke-opacity="1" stroke-width="6.4"/>
<circle clip-path="url(#clip042)" cx="1709.46" cy="1024.54" r="14.4" fill="#008000" fill-rule="evenodd" fill-opacity="1" stroke="#000000" stroke-opacity="1" stroke-width="6.4"/>
<circle clip-path="url(#clip042)" cx="1819.43" cy="1131.78" r="14.4" fill="#008000" fill-rule="evenodd" fill-opacity="1" stroke="#000000" stroke-opacity="1" stroke-width="6.4"/>
<circle clip-path="url(#clip042)" cx="1929.4" cy="1201.62" r="14.4" fill="#008000" fill-rule="evenodd" fill-opacity="1" stroke="#000000" stroke-opacity="1" stroke-width="6.4"/>
<circle clip-path="url(#clip042)" cx="2039.38" cy="1179.92" r="14.4" fill="#008000" fill-rule="evenodd" fill-opacity="1" stroke="#000000" stroke-opacity="1" stroke-width="6.4"/>
<circle clip-path="url(#clip042)" cx="2149.35" cy="1130.18" r="14.4" fill="#008000" fill-rule="evenodd" fill-opacity="1" stroke="#000000" stroke-opacity="1" stroke-width="6.4"/>
<circle clip-path="url(#clip042)" cx="2259.32" cy="1177.47" r="14.4" fill="#008000" fill-rule="evenodd" fill-opacity="1" stroke="#000000" stroke-opacity="1" stroke-width="6.4"/>
<polyline clip-path="url(#clip042)" style="stroke:#00008b; stroke-linecap:round; stroke-linejoin:round; stroke-width:8; stroke-opacity:1; fill:none" points="719.695,183.213 829.668,289.715 939.642,396.332 1049.62,497.945 1159.59,583.945 1269.56,667.909 1379.54,739.996 1489.51,814.852 1599.48,880.119 1709.46,937.556 1819.43,1000.77 1929.4,1046.82 2039.38,1096.28 2149.35,1138.18 2259.32,1182.39 "/>
<path clip-path="url(#clip042)" d="M719.695 237.533 L829.668 345.59 L939.642 456.772 L1049.62 553.029 L1159.59 642.624 L1269.56 728.452 L1379.54 799.194 L1489.51 871.361 L1599.48 935.83 L1709.46 994.008 L1819.43 1058.47 L1929.4 1108.45 L2039.38 1155.27 L2149.35 1194.92 L2259.32 1240.32 L2259.32 1122.47 L2149.35 1082.77 L2039.38 1041.68 L1929.4 986.468 L1819.43 944.445 L1709.46 880.63 L1599.48 827.576 L1489.51 755.993 L1379.54 681.718 L1269.56 608.745 L1159.59 527.559 L1049.62 438.983 L939.642 339.631 L829.668 233.108 L719.695 127.862  Z" fill="#0000ff" fill-rule="evenodd" fill-opacity="0.1"/>
<polyline clip-path="url(#clip042)" style="stroke:#0000ff; stroke-linecap:round; stroke-linejoin:round; stroke-width:0; stroke-opacity:0.1; fill:none" points="719.695,237.533 829.668,345.59 939.642,456.772 1049.62,553.029 1159.59,642.624 1269.56,728.452 1379.54,799.194 1489.51,871.361 1599.48,935.83 1709.46,994.008 1819.43,1058.47 1929.4,1108.45 2039.38,1155.27 2149.35,1194.92 2259.32,1240.32 "/>
</svg>
