<?xml version="1.0" encoding="utf-8"?>
<svg xmlns="http://www.w3.org/2000/svg" xmlns:xlink="http://www.w3.org/1999/xlink" width="600" height="400" viewBox="0 0 2400 1600">
<defs>
  <clipPath id="clip410">
    <rect x="0" y="0" width="2400" height="1600"/>
  </clipPath>
</defs>
<path clip-path="url(#clip410)" d="M0 1600 L2400 1600 L2400 0 L0 0  Z" fill="#ffffff" fill-rule="evenodd" fill-opacity="1"/>
<defs>
  <clipPath id="clip411">
    <rect x="480" y="0" width="1681" height="1600"/>
  </clipPath>
</defs>
<path clip-path="url(#clip410)" d="M1273.33 1082.2 L2305.51 1082.2 L2305.51 94.4882 L1273.33 94.4882  Z" fill="#ffffff" fill-rule="evenodd" fill-opacity="1"/>
<defs>
  <clipPath id="clip412">
    <rect x="1273" y="94" width="1033" height="989"/>
  </clipPath>
</defs>
<polyline clip-path="url(#clip412)" style="stroke:#000000; stroke-linecap:round; stroke-linejoin:round; stroke-width:4; stroke-opacity:0.1; fill:none" points="1302.55,1082.2 1302.55,94.4882 "/>
<polyline clip-path="url(#clip412)" style="stroke:#000000; stroke-linecap:round; stroke-linejoin:round; stroke-width:4; stroke-opacity:0.1; fill:none" points="1618.7,1082.2 1618.7,94.4882 "/>
<polyline clip-path="url(#clip412)" style="stroke:#000000; stroke-linecap:round; stroke-linejoin:round; stroke-width:4; stroke-opacity:0.1; fill:none" points="1934.85,1082.2 1934.85,94.4882 "/>
<polyline clip-path="url(#clip412)" style="stroke:#000000; stroke-linecap:round; stroke-linejoin:round; stroke-width:4; stroke-opacity:0.1; fill:none" points="2251.01,1082.2 2251.01,94.4882 "/>
<polyline clip-path="url(#clip410)" style="stroke:#000000; stroke-linecap:round; stroke-linejoin:round; stroke-width:8; stroke-opacity:1; fill:none" points="1273.33,1082.2 2305.51,1082.2 "/>
<polyline clip-path="url(#clip410)" style="stroke:#000000; stroke-linecap:round; stroke-linejoin:round; stroke-width:8; stroke-opacity:1; fill:none" points="1302.55,1082.2 1302.55,1063.3 "/>
<polyline clip-path="url(#clip410)" style="stroke:#000000; stroke-linecap:round; stroke-linejoin:round; stroke-width:8; stroke-opacity:1; fill:none" points="1618.7,1082.2 1618.7,1063.3 "/>
<polyline clip-path="url(#clip410)" style="stroke:#000000; stroke-linecap:round; stroke-linejoin:round; stroke-width:8; stroke-opacity:1; fill:none" points="1934.85,1082.2 1934.85,1063.3 "/>
<polyline clip-path="url(#clip410)" style="stroke:#000000; stroke-linecap:round; stroke-linejoin:round; stroke-width:8; stroke-opacity:1; fill:none" points="2251.01,1082.2 2251.01,1063.3 "/>
<path clip-path="url(#clip410)" d="M1257.31 1124.84 Q1250.09 1124.84 1246.44 1131.97 Q1242.82 1139.05 1242.82 1153.31 Q1242.82 1167.52 1246.44 1174.65 Q1250.09 1181.73 1257.31 1181.73 Q1264.58 1181.73 1268.19 1174.65 Q1271.85 1167.52 1271.85 1153.31 Q1271.85 1139.05 1268.19 1131.97 Q1264.58 1124.84 1257.31 1124.84 M1257.31 1117.43 Q1268.94 1117.43 1275.05 1126.64 Q1281.2 1135.81 1281.2 1153.31 Q1281.2 1170.76 1275.05 1179.98 Q1268.94 1189.14 1257.31 1189.14 Q1245.69 1189.14 1239.54 1179.98 Q1233.43 1170.76 1233.43 1153.31 Q1233.43 1135.81 1239.54 1126.64 Q1245.69 1117.43 1257.31 1117.43 Z" fill="#000000" fill-rule="nonzero" fill-opacity="1" /><path clip-path="url(#clip410)" d="M1297.64 1176.04 L1307.41 1176.04 L1307.41 1187.8 L1297.64 1187.8 L1297.64 1176.04 Z" fill="#000000" fill-rule="nonzero" fill-opacity="1" /><path clip-path="url(#clip410)" d="M1347.78 1124.84 Q1340.56 1124.84 1336.9 1131.97 Q1333.29 1139.05 1333.29 1153.31 Q1333.29 1167.52 1336.9 1174.65 Q1340.56 1181.73 1347.78 1181.73 Q1355.05 1181.73 1358.66 1174.65 Q1362.31 1167.52 1362.31 1153.31 Q1362.31 1139.05 1358.66 1131.97 Q1355.05 1124.84 1347.78 1124.84 M1347.78 1117.43 Q1359.4 1117.43 1365.51 1126.64 Q1371.67 1135.81 1371.67 1153.31 Q1371.67 1170.76 1365.51 1179.98 Q1359.4 1189.14 1347.78 1189.14 Q1336.16 1189.14 1330 1179.98 Q1323.89 1170.76 1323.89 1153.31 Q1323.89 1135.81 1330 1126.64 Q1336.16 1117.43 1347.78 1117.43 Z" fill="#000000" fill-rule="nonzero" fill-opacity="1" /><path clip-path="url(#clip410)" d="M1574.46 1124.84 Q1567.24 1124.84 1563.58 1131.97 Q1559.97 1139.05 1559.97 1153.31 Q1559.97 1167.52 1563.58 1174.65 Q1567.24 1181.73 1574.46 1181.73 Q1581.73 1181.73 1585.34 1174.65 Q1589 1167.52 1589 1153.31 Q1589 1139.05 1585.34 1131.97 Q1581.73 1124.84 1574.46 1124.84 M1574.46 1117.43 Q1586.08 1117.43 1592.2 1126.64 Q1598.35 1135.81 1598.35 1153.31 Q1598.35 1170.76 1592.2 1179.98 Q1586.08 1189.14 1574.46 1189.14 Q1562.84 1189.14 1556.69 1179.98 Q1550.57 1170.76 1550.57 1153.31 Q1550.57 1135.81 1556.69 1126.64 Q1562.84 1117.43 1574.46 1117.43 Z" fill="#000000" fill-rule="nonzero" fill-opacity="1" /><path clip-path="url(#clip410)" d="M1614.79 1176.04 L1624.56 1176.04 L1624.56 1187.8 L1614.79 1187.8 L1614.79 1176.04 Z" fill="#000000" fill-rule="nonzero" fill-opacity="1" /><path clip-path="url(#clip410)" d="M1645.02 1118.68 L1681.73 1118.68 L1681.73 1126.55 L1653.58 1126.55 L1653.58 1143.49 Q1655.62 1142.8 1657.66 1142.48 Q1659.69 1142.11 1661.73 1142.11 Q1673.31 1142.11 1680.07 1148.45 Q1686.82 1154.79 1686.82 1165.62 Q1686.82 1176.78 1679.88 1182.98 Q1672.94 1189.14 1660.3 1189.14 Q1655.94 1189.14 1651.41 1188.4 Q1646.92 1187.66 1642.1 1186.18 L1642.1 1176.78 Q1646.27 1179.05 1650.71 1180.16 Q1655.16 1181.27 1660.11 1181.27 Q1668.12 1181.27 1672.8 1177.06 Q1677.47 1172.85 1677.47 1165.62 Q1677.47 1158.4 1672.8 1154.19 Q1668.12 1149.98 1660.11 1149.98 Q1656.36 1149.98 1652.61 1150.81 Q1648.91 1151.64 1645.02 1153.4 L1645.02 1118.68 Z" fill="#000000" fill-rule="nonzero" fill-opacity="1" /><path clip-path="url(#clip410)" d="M1869.16 1179.93 L1884.44 1179.93 L1884.44 1127.2 L1867.82 1130.53 L1867.82 1122.01 L1884.34 1118.68 L1893.7 1118.68 L1893.7 1179.93 L1908.97 1179.93 L1908.97 1187.8 L1869.16 1187.8 L1869.16 1179.93 Z" fill="#000000" fill-rule="nonzero" fill-opacity="1" /><path clip-path="url(#clip410)" d="M1927.86 1176.04 L1937.63 1176.04 L1937.63 1187.8 L1927.86 1187.8 L1927.86 1176.04 Z" fill="#000000" fill-rule="nonzero" fill-opacity="1" /><path clip-path="url(#clip410)" d="M1978 1124.84 Q1970.78 1124.84 1967.12 1131.97 Q1963.51 1139.05 1963.51 1153.31 Q1963.51 1167.52 1967.12 1174.65 Q1970.78 1181.73 1978 1181.73 Q1985.27 1181.73 1988.88 1174.65 Q1992.54 1167.52 1992.54 1153.31 Q1992.54 1139.05 1988.88 1131.97 Q1985.27 1124.84 1978 1124.84 M1978 1117.43 Q1989.62 1117.43 1995.73 1126.64 Q2001.89 1135.81 2001.89 1153.31 Q2001.89 1170.76 1995.73 1179.98 Q1989.62 1189.14 1978 1189.14 Q1966.38 1189.14 1960.22 1179.98 Q1954.11 1170.76 1954.11 1153.31 Q1954.11 1135.81 1960.22 1126.64 Q1966.38 1117.43 1978 1117.43 Z" fill="#000000" fill-rule="nonzero" fill-opacity="1" /><path clip-path="url(#clip410)" d="M2186.31 1179.93 L2201.59 1179.93 L2201.59 1127.2 L2184.97 1130.53 L2184.97 1122.01 L2201.49 1118.68 L2210.85 1118.68 L2210.85 1179.93 L2226.12 1179.93 L2226.12 1187.8 L2186.31 1187.8 L2186.31 1179.93 Z" fill="#000000" fill-rule="nonzero" fill-opacity="1" /><path clip-path="url(#clip410)" d="M2245.01 1176.04 L2254.78 1176.04 L2254.78 1187.8 L2245.01 1187.8 L2245.01 1176.04 Z" fill="#000000" fill-rule="nonzero" fill-opacity="1" /><path clip-path="url(#clip410)" d="M2275.24 1118.68 L2311.96 1118.68 L2311.96 1126.55 L2283.81 1126.55 L2283.81 1143.49 Q2285.84 1142.8 2287.88 1142.48 Q2289.92 1142.11 2291.96 1142.11 Q2303.53 1142.11 2310.29 1148.45 Q2317.05 1154.79 2317.05 1165.62 Q2317.05 1176.78 2310.1 1182.98 Q2303.16 1189.14 2290.52 1189.14 Q2286.17 1189.14 2281.63 1188.4 Q2277.14 1187.66 2272.33 1186.18 L2272.33 1176.78 Q2276.49 1179.05 2280.94 1180.16 Q2285.38 1181.27 2290.34 1181.27 Q2298.34 1181.27 2303.02 1177.06 Q2307.7 1172.85 2307.7 1165.62 Q2307.7 1158.4 2303.02 1154.19 Q2298.34 1149.98 2290.34 1149.98 Q2286.59 1149.98 2282.84 1150.81 Q2279.13 1151.64 2275.24 1153.4 L2275.24 1118.68 Z" fill="#000000" fill-rule="nonzero" fill-opacity="1" /><path clip-path="url(#clip410)" d="M1674.97 1292.9 L1674.97 1335.93 L1663.25 1335.93 L1663.25 1293.28 Q1663.25 1283.16 1659.31 1278.13 Q1655.36 1273.1 1647.47 1273.1 Q1637.98 1273.1 1632.51 1279.15 Q1627.03 1285.19 1627.03 1295.63 L1627.03 1335.93 L1615.26 1335.93 L1615.26 1236.88 L1627.03 1236.88 L1627.03 1275.71 Q1631.23 1269.28 1636.9 1266.1 Q1642.63 1262.91 1650.08 1262.91 Q1662.36 1262.91 1668.67 1270.55 Q1674.97 1278.13 1674.97 1292.9 Z" fill="#000000" fill-rule="nonzero" fill-opacity="1" /><path clip-path="url(#clip410)" d="M1725.96 1272.84 Q1716.54 1272.84 1711.06 1280.23 Q1705.59 1287.55 1705.59 1300.34 Q1705.59 1313.14 1711 1320.52 Q1716.47 1327.84 1725.96 1327.84 Q1735.31 1327.84 1740.79 1320.46 Q1746.26 1313.07 1746.26 1300.34 Q1746.26 1287.68 1740.79 1280.29 Q1735.31 1272.84 1725.96 1272.84 M1725.96 1262.91 Q1741.23 1262.91 1749.96 1272.84 Q1758.68 1282.77 1758.68 1300.34 Q1758.68 1317.85 1749.96 1327.84 Q1741.23 1337.77 1725.96 1337.77 Q1710.62 1337.77 1701.89 1327.84 Q1693.24 1317.85 1693.24 1300.34 Q1693.24 1282.77 1701.89 1272.84 Q1710.62 1262.91 1725.96 1262.91 Z" fill="#000000" fill-rule="nonzero" fill-opacity="1" /><path clip-path="url(#clip410)" d="M1776.88 1307.79 L1776.88 1264.63 L1788.6 1264.63 L1788.6 1307.35 Q1788.6 1317.47 1792.54 1322.56 Q1796.49 1327.59 1804.38 1327.59 Q1813.87 1327.59 1819.34 1321.54 Q1824.88 1315.49 1824.88 1305.05 L1824.88 1264.63 L1836.59 1264.63 L1836.59 1335.93 L1824.88 1335.93 L1824.88 1324.98 Q1820.61 1331.47 1814.95 1334.65 Q1809.35 1337.77 1801.9 1337.77 Q1789.61 1337.77 1783.25 1330.13 Q1776.88 1322.5 1776.88 1307.79 M1806.36 1262.91 L1806.36 1262.91 Z" fill="#000000" fill-rule="nonzero" fill-opacity="1" /><path clip-path="url(#clip410)" d="M1902.03 1275.58 Q1900.06 1274.43 1897.7 1273.93 Q1895.41 1273.35 1892.61 1273.35 Q1882.68 1273.35 1877.33 1279.85 Q1872.05 1286.28 1872.05 1298.37 L1872.05 1335.93 L1860.27 1335.93 L1860.27 1264.63 L1872.05 1264.63 L1872.05 1275.71 Q1875.74 1269.22 1881.66 1266.1 Q1887.58 1262.91 1896.05 1262.91 Q1897.26 1262.91 1898.72 1263.1 Q1900.19 1263.23 1901.97 1263.55 L1902.03 1275.58 Z" fill="#000000" fill-rule="nonzero" fill-opacity="1" /><path clip-path="url(#clip410)" d="M1959.77 1266.73 L1959.77 1277.81 Q1954.8 1275.26 1949.46 1273.99 Q1944.11 1272.72 1938.38 1272.72 Q1929.66 1272.72 1925.27 1275.39 Q1920.94 1278.06 1920.94 1283.41 Q1920.94 1287.48 1924.06 1289.84 Q1927.18 1292.13 1936.6 1294.23 L1940.61 1295.12 Q1953.08 1297.8 1958.3 1302.7 Q1963.59 1307.54 1963.59 1316.26 Q1963.59 1326.19 1955.69 1331.98 Q1947.87 1337.77 1934.12 1337.77 Q1928.39 1337.77 1922.15 1336.63 Q1915.97 1335.55 1909.1 1333.32 L1909.1 1321.22 Q1915.59 1324.6 1921.89 1326.32 Q1928.2 1327.97 1934.37 1327.97 Q1942.65 1327.97 1947.1 1325.17 Q1951.56 1322.31 1951.56 1317.15 Q1951.56 1312.37 1948.31 1309.83 Q1945.13 1307.28 1934.24 1304.93 L1930.17 1303.97 Q1919.28 1301.68 1914.45 1296.97 Q1909.61 1292.2 1909.61 1283.92 Q1909.61 1273.86 1916.74 1268.39 Q1923.87 1262.91 1936.98 1262.91 Q1943.47 1262.91 1949.2 1263.87 Q1954.93 1264.82 1959.77 1266.73 Z" fill="#000000" fill-rule="nonzero" fill-opacity="1" /><polyline clip-path="url(#clip412)" style="stroke:#000000; stroke-linecap:round; stroke-linejoin:round; stroke-width:4; stroke-opacity:0.1; fill:none" points="1273.33,1054.25 2305.51,1054.25 "/>
<polyline clip-path="url(#clip412)" style="stroke:#000000; stroke-linecap:round; stroke-linejoin:round; stroke-width:4; stroke-opacity:0.1; fill:none" points="1273.33,873.162 2305.51,873.162 "/>
<polyline clip-path="url(#clip412)" style="stroke:#000000; stroke-linecap:round; stroke-linejoin:round; stroke-width:4; stroke-opacity:0.1; fill:none" points="1273.33,692.078 2305.51,692.078 "/>
<polyline clip-path="url(#clip412)" style="stroke:#000000; stroke-linecap:round; stroke-linejoin:round; stroke-width:4; stroke-opacity:0.1; fill:none" points="1273.33,510.994 2305.51,510.994 "/>
<polyline clip-path="url(#clip412)" style="stroke:#000000; stroke-linecap:round; stroke-linejoin:round; stroke-width:4; stroke-opacity:0.1; fill:none" points="1273.33,329.91 2305.51,329.91 "/>
<polyline clip-path="url(#clip412)" style="stroke:#000000; stroke-linecap:round; stroke-linejoin:round; stroke-width:4; stroke-opacity:0.1; fill:none" points="1273.33,148.826 2305.51,148.826 "/>
<polyline clip-path="url(#clip410)" style="stroke:#000000; stroke-linecap:round; stroke-linejoin:round; stroke-width:8; stroke-opacity:1; fill:none" points="1273.33,1082.2 1273.33,94.4882 "/>
<polyline clip-path="url(#clip410)" style="stroke:#000000; stroke-linecap:round; stroke-linejoin:round; stroke-width:8; stroke-opacity:1; fill:none" points="1273.33,1054.25 1292.23,1054.25 "/>
<polyline clip-path="url(#clip410)" style="stroke:#000000; stroke-linecap:round; stroke-linejoin:round; stroke-width:8; stroke-opacity:1; fill:none" points="1273.33,873.162 1292.23,873.162 "/>
<polyline clip-path="url(#clip410)" style="stroke:#000000; stroke-linecap:round; stroke-linejoin:round; stroke-width:8; stroke-opacity:1; fill:none" points="1273.33,692.078 1292.23,692.078 "/>
<polyline clip-path="url(#clip410)" style="stroke:#000000; stroke-linecap:round; stroke-linejoin:round; stroke-width:8; stroke-opacity:1; fill:none" points="1273.33,510.994 1292.23,510.994 "/>
<polyline clip-path="url(#clip410)" style="stroke:#000000; stroke-linecap:round; stroke-linejoin:round; stroke-width:8; stroke-opacity:1; fill:none" points="1273.33,329.91 1292.23,329.91 "/>
<polyline clip-path="url(#clip410)" style="stroke:#000000; stroke-linecap:round; stroke-linejoin:round; stroke-width:8; stroke-opacity:1; fill:none" points="1273.33,148.826 1292.23,148.826 "/>
<path clip-path="url(#clip410)" d="M1213.44 1025.84 Q1206.22 1025.84 1202.57 1032.97 Q1198.95 1040.06 1198.95 1054.32 Q1198.95 1068.53 1202.57 1075.66 Q1206.22 1082.74 1213.44 1082.74 Q1220.71 1082.74 1224.32 1075.66 Q1227.98 1068.53 1227.98 1054.32 Q1227.98 1040.06 1224.32 1032.97 Q1220.71 1025.84 1213.44 1025.84 M1213.44 1018.44 Q1225.06 1018.44 1231.18 1027.65 Q1237.33 1036.82 1237.33 1054.32 Q1237.33 1071.77 1231.18 1080.98 Q1225.06 1090.15 1213.44 1090.15 Q1201.82 1090.15 1195.67 1080.98 Q1189.56 1071.77 1189.56 1054.32 Q1189.56 1036.82 1195.67 1027.65 Q1201.82 1018.44 1213.44 1018.44 Z" fill="#000000" fill-rule="nonzero" fill-opacity="1" /><path clip-path="url(#clip410)" d="M805.684 851.497 L842.396 851.497 L842.396 859.367 L814.248 859.367 L814.248 876.312 Q816.285 875.617 818.322 875.293 Q820.359 874.923 822.396 874.923 Q833.97 874.923 840.73 881.265 Q847.489 887.608 847.489 898.441 Q847.489 909.598 840.544 915.802 Q833.6 921.96 820.961 921.96 Q816.609 921.96 812.072 921.219 Q807.582 920.478 802.767 918.997 L802.767 909.598 Q806.933 911.867 811.378 912.978 Q815.822 914.089 820.776 914.089 Q828.785 914.089 833.461 909.876 Q838.137 905.663 838.137 898.441 Q838.137 891.219 833.461 887.006 Q828.785 882.793 820.776 882.793 Q817.026 882.793 813.276 883.626 Q809.572 884.46 805.684 886.219 L805.684 851.497 Z" fill="#000000" fill-rule="nonzero" fill-opacity="1" /><path clip-path="url(#clip410)" d="M865.915 908.858 L875.683 908.858 L875.683 920.617 L865.915 920.617 L865.915 908.858 Z" fill="#000000" fill-rule="nonzero" fill-opacity="1" /><path clip-path="url(#clip410)" d="M916.053 857.654 Q908.831 857.654 905.174 864.784 Q901.563 871.867 901.563 886.126 Q901.563 900.339 905.174 907.469 Q908.831 914.552 916.053 914.552 Q923.322 914.552 926.933 907.469 Q930.59 900.339 930.59 886.126 Q930.59 871.867 926.933 864.784 Q923.322 857.654 916.053 857.654 M916.053 850.247 Q927.674 850.247 933.785 859.46 Q939.942 868.626 939.942 886.126 Q939.942 903.58 933.785 912.793 Q927.674 921.96 916.053 921.96 Q904.433 921.96 898.276 912.793 Q892.165 903.58 892.165 886.126 Q892.165 868.626 898.276 859.46 Q904.433 850.247 916.053 850.247 Z" fill="#000000" fill-rule="nonzero" fill-opacity="1" /><path clip-path="url(#clip410)" d="M976.377 857.654 Q969.155 857.654 965.497 864.784 Q961.886 871.867 961.886 886.126 Q961.886 900.339 965.497 907.469 Q969.155 914.552 976.377 914.552 Q983.646 914.552 987.257 907.469 Q990.914 900.339 990.914 886.126 Q990.914 871.867 987.257 864.784 Q983.646 857.654 976.377 857.654 M976.377 850.247 Q987.997 850.247 994.108 859.46 Q1000.27 868.626 1000.27 886.126 Q1000.27 903.58 994.108 912.793 Q987.997 921.96 976.377 921.96 Q964.757 921.96 958.599 912.793 Q952.488 903.58 952.488 886.126 Q952.488 868.626 958.599 859.46 Q964.757 850.247 976.377 850.247 Z" fill="#000000" fill-rule="nonzero" fill-opacity="1" /><path clip-path="url(#clip410)" d="M1073.04 869.691 L1051.89 890.941 L1073.04 912.098 L1067.53 917.7 L1046.28 896.45 L1025.03 917.7 L1019.57 912.098 L1040.68 890.941 L1019.57 869.691 L1025.03 864.089 L1046.28 885.339 L1067.53 864.089 L1073.04 869.691 Z" fill="#000000" fill-rule="nonzero" fill-opacity="1" /><path clip-path="url(#clip410)" d="M1097.77 912.747 L1113.04 912.747 L1113.04 860.015 L1096.42 863.349 L1096.42 854.83 L1112.95 851.497 L1122.3 851.497 L1122.3 912.747 L1137.58 912.747 L1137.58 920.617 L1097.77 920.617 L1097.77 912.747 Z" fill="#000000" fill-rule="nonzero" fill-opacity="1" /><path clip-path="url(#clip410)" d="M1176.47 857.654 Q1169.25 857.654 1165.59 864.784 Q1161.98 871.867 1161.98 886.126 Q1161.98 900.339 1165.59 907.469 Q1169.25 914.552 1176.47 914.552 Q1183.74 914.552 1187.35 907.469 Q1191.01 900.339 1191.01 886.126 Q1191.01 871.867 1187.35 864.784 Q1183.74 857.654 1176.47 857.654 M1176.47 850.247 Q1188.09 850.247 1194.2 859.46 Q1200.36 868.626 1200.36 886.126 Q1200.36 903.58 1194.2 912.793 Q1188.09 921.96 1176.47 921.96 Q1164.85 921.96 1158.69 912.793 Q1152.58 903.58 1152.58 886.126 Q1152.58 868.626 1158.69 859.46 Q1164.85 850.247 1176.47 850.247 Z" fill="#000000" fill-rule="nonzero" fill-opacity="1" /><path clip-path="url(#clip410)" d="M1225.75 835.516 Q1231.2 836.682 1234.25 840.368 Q1237.33 844.054 1237.33 849.471 Q1237.33 857.784 1231.62 862.336 Q1225.9 866.887 1215.37 866.887 Q1211.83 866.887 1208.07 866.172 Q1204.34 865.495 1200.36 864.103 L1200.36 856.768 Q1203.52 858.612 1207.28 859.552 Q1211.04 860.492 1215.14 860.492 Q1222.29 860.492 1226.01 857.671 Q1229.77 854.85 1229.77 849.471 Q1229.77 844.506 1226.27 841.722 Q1222.81 838.901 1216.61 838.901 L1210.06 838.901 L1210.06 832.657 L1216.91 832.657 Q1222.51 832.657 1225.48 830.438 Q1228.46 828.181 1228.46 823.968 Q1228.46 819.642 1225.37 817.347 Q1222.32 815.015 1216.61 815.015 Q1213.49 815.015 1209.91 815.692 Q1206.34 816.369 1202.05 817.799 L1202.05 811.028 Q1206.38 809.824 1210.14 809.222 Q1213.94 808.621 1217.28 808.621 Q1225.94 808.621 1230.98 812.57 Q1236.02 816.482 1236.02 823.178 Q1236.02 827.842 1233.35 831.077 Q1230.68 834.274 1225.75 835.516 Z" fill="#000000" fill-rule="nonzero" fill-opacity="1" /><path clip-path="url(#clip410)" d="M803.262 731.663 L818.539 731.663 L818.539 678.932 L801.919 682.265 L801.919 673.746 L818.447 670.413 L827.799 670.413 L827.799 731.663 L843.076 731.663 L843.076 739.533 L803.262 739.533 L803.262 731.663 Z" fill="#000000" fill-rule="nonzero" fill-opacity="1" /><path clip-path="url(#clip410)" d="M861.965 727.774 L871.733 727.774 L871.733 739.533 L861.965 739.533 L861.965 727.774 Z" fill="#000000" fill-rule="nonzero" fill-opacity="1" /><path clip-path="url(#clip410)" d="M912.104 676.57 Q904.881 676.57 901.224 683.7 Q897.613 690.783 897.613 705.043 Q897.613 719.255 901.224 726.385 Q904.881 733.468 912.104 733.468 Q919.372 733.468 922.983 726.385 Q926.641 719.255 926.641 705.043 Q926.641 690.783 922.983 683.7 Q919.372 676.57 912.104 676.57 M912.104 669.163 Q923.724 669.163 929.835 678.376 Q935.992 687.543 935.992 705.043 Q935.992 722.496 929.835 731.709 Q923.724 740.876 912.104 740.876 Q900.483 740.876 894.326 731.709 Q888.215 722.496 888.215 705.043 Q888.215 687.543 894.326 678.376 Q900.483 669.163 912.104 669.163 Z" fill="#000000" fill-rule="nonzero" fill-opacity="1" /><path clip-path="url(#clip410)" d="M972.427 676.57 Q965.205 676.57 961.548 683.7 Q957.937 690.783 957.937 705.043 Q957.937 719.255 961.548 726.385 Q965.205 733.468 972.427 733.468 Q979.696 733.468 983.307 726.385 Q986.964 719.255 986.964 705.043 Q986.964 690.783 983.307 683.7 Q979.696 676.57 972.427 676.57 M972.427 669.163 Q984.048 669.163 990.159 678.376 Q996.316 687.543 996.316 705.043 Q996.316 722.496 990.159 731.709 Q984.048 740.876 972.427 740.876 Q960.807 740.876 954.65 731.709 Q948.539 722.496 948.539 705.043 Q948.539 687.543 954.65 678.376 Q960.807 669.163 972.427 669.163 Z" fill="#000000" fill-rule="nonzero" fill-opacity="1" /><path clip-path="url(#clip410)" d="M1069.09 688.607 L1047.94 709.857 L1069.09 731.015 L1063.58 736.616 L1042.33 715.367 L1021.08 736.616 L1015.62 731.015 L1036.73 709.857 L1015.62 688.607 L1021.08 683.006 L1042.33 704.256 L1063.58 683.006 L1069.09 688.607 Z" fill="#000000" fill-rule="nonzero" fill-opacity="1" /><path clip-path="url(#clip410)" d="M1093.82 731.663 L1109.09 731.663 L1109.09 678.932 L1092.47 682.265 L1092.47 673.746 L1109 670.413 L1118.35 670.413 L1118.35 731.663 L1133.63 731.663 L1133.63 739.533 L1093.82 739.533 L1093.82 731.663 Z" fill="#000000" fill-rule="nonzero" fill-opacity="1" /><path clip-path="url(#clip410)" d="M1172.52 676.57 Q1165.3 676.57 1161.64 683.7 Q1158.03 690.783 1158.03 705.043 Q1158.03 719.255 1161.64 726.385 Q1165.3 733.468 1172.52 733.468 Q1179.79 733.468 1183.4 726.385 Q1187.06 719.255 1187.06 705.043 Q1187.06 690.783 1183.4 683.7 Q1179.79 676.57 1172.52 676.57 M1172.52 669.163 Q1184.14 669.163 1190.25 678.376 Q1196.41 687.543 1196.41 705.043 Q1196.41 722.496 1190.25 731.709 Q1184.14 740.876 1172.52 740.876 Q1160.9 740.876 1154.74 731.709 Q1148.63 722.496 1148.63 705.043 Q1148.63 687.543 1154.74 678.376 Q1160.9 669.163 1172.52 669.163 Z" fill="#000000" fill-rule="nonzero" fill-opacity="1" /><path clip-path="url(#clip410)" d="M1221.76 635.173 L1202.58 665.152 L1221.76 665.152 L1221.76 635.173 M1219.77 628.552 L1229.32 628.552 L1229.32 665.152 L1237.33 665.152 L1237.33 671.472 L1229.32 671.472 L1229.32 684.712 L1221.76 684.712 L1221.76 671.472 L1196.41 671.472 L1196.41 664.137 L1219.77 628.552 Z" fill="#000000" fill-rule="nonzero" fill-opacity="1" /><path clip-path="url(#clip410)" d="M803.262 550.579 L818.539 550.579 L818.539 497.848 L801.919 501.181 L801.919 492.663 L818.447 489.329 L827.799 489.329 L827.799 550.579 L843.076 550.579 L843.076 558.449 L803.262 558.449 L803.262 550.579 Z" fill="#000000" fill-rule="nonzero" fill-opacity="1" /><path clip-path="url(#clip410)" d="M861.965 546.69 L871.733 546.69 L871.733 558.449 L861.965 558.449 L861.965 546.69 Z" fill="#000000" fill-rule="nonzero" fill-opacity="1" /><path clip-path="url(#clip410)" d="M892.196 489.329 L928.909 489.329 L928.909 497.2 L900.761 497.2 L900.761 514.144 Q902.798 513.45 904.835 513.125 Q906.872 512.755 908.909 512.755 Q920.483 512.755 927.242 519.098 Q934.002 525.44 934.002 536.273 Q934.002 547.431 927.057 553.635 Q920.113 559.792 907.474 559.792 Q903.122 559.792 898.585 559.051 Q894.094 558.31 889.28 556.829 L889.28 547.431 Q893.446 549.699 897.891 550.81 Q902.335 551.922 907.289 551.922 Q915.298 551.922 919.974 547.709 Q924.65 543.496 924.65 536.273 Q924.65 529.051 919.974 524.838 Q915.298 520.625 907.289 520.625 Q903.539 520.625 899.789 521.459 Q896.085 522.292 892.196 524.051 L892.196 489.329 Z" fill="#000000" fill-rule="nonzero" fill-opacity="1" /><path clip-path="url(#clip410)" d="M972.427 495.487 Q965.205 495.487 961.548 502.616 Q957.937 509.7 957.937 523.959 Q957.937 538.172 961.548 545.301 Q965.205 552.385 972.427 552.385 Q979.696 552.385 983.307 545.301 Q986.964 538.172 986.964 523.959 Q986.964 509.7 983.307 502.616 Q979.696 495.487 972.427 495.487 M972.427 488.079 Q984.048 488.079 990.159 497.292 Q996.316 506.459 996.316 523.959 Q996.316 541.412 990.159 550.625 Q984.048 559.792 972.427 559.792 Q960.807 559.792 954.65 550.625 Q948.539 541.412 948.539 523.959 Q948.539 506.459 954.65 497.292 Q960.807 488.079 972.427 488.079 Z" fill="#000000" fill-rule="nonzero" fill-opacity="1" /><path clip-path="url(#clip410)" d="M1069.09 507.524 L1047.94 528.774 L1069.09 549.931 L1063.58 555.533 L1042.33 534.283 L1021.08 555.533 L1015.62 549.931 L1036.73 528.774 L1015.62 507.524 L1021.08 501.922 L1042.33 523.172 L1063.58 501.922 L1069.09 507.524 Z" fill="#000000" fill-rule="nonzero" fill-opacity="1" /><path clip-path="url(#clip410)" d="M1093.82 550.579 L1109.09 550.579 L1109.09 497.848 L1092.47 501.181 L1092.47 492.663 L1109 489.329 L1118.35 489.329 L1118.35 550.579 L1133.63 550.579 L1133.63 558.449 L1093.82 558.449 L1093.82 550.579 Z" fill="#000000" fill-rule="nonzero" fill-opacity="1" /><path clip-path="url(#clip410)" d="M1172.52 495.487 Q1165.3 495.487 1161.64 502.616 Q1158.03 509.7 1158.03 523.959 Q1158.03 538.172 1161.64 545.301 Q1165.3 552.385 1172.52 552.385 Q1179.79 552.385 1183.4 545.301 Q1187.06 538.172 1187.06 523.959 Q1187.06 509.7 1183.4 502.616 Q1179.79 495.487 1172.52 495.487 M1172.52 488.079 Q1184.14 488.079 1190.25 497.292 Q1196.41 506.459 1196.41 523.959 Q1196.41 541.412 1190.25 550.625 Q1184.14 559.792 1172.52 559.792 Q1160.9 559.792 1154.74 550.625 Q1148.63 541.412 1148.63 523.959 Q1148.63 506.459 1154.74 497.292 Q1160.9 488.079 1172.52 488.079 Z" fill="#000000" fill-rule="nonzero" fill-opacity="1" /><path clip-path="url(#clip410)" d="M1221.76 454.089 L1202.58 484.068 L1221.76 484.068 L1221.76 454.089 M1219.77 447.468 L1229.32 447.468 L1229.32 484.068 L1237.33 484.068 L1237.33 490.388 L1229.32 490.388 L1229.32 503.628 L1221.76 503.628 L1221.76 490.388 L1196.41 490.388 L1196.41 483.053 L1219.77 447.468 Z" fill="#000000" fill-rule="nonzero" fill-opacity="1" /><path clip-path="url(#clip410)" d="M809.697 369.495 L842.336 369.495 L842.336 377.365 L798.447 377.365 L798.447 369.495 Q803.771 363.986 812.938 354.727 Q822.15 345.421 824.512 342.736 Q829.002 337.69 830.761 334.218 Q832.567 330.699 832.567 327.319 Q832.567 321.81 828.678 318.338 Q824.836 314.866 818.632 314.866 Q814.234 314.866 809.326 316.394 Q804.465 317.921 798.91 321.023 L798.91 311.579 Q804.558 309.31 809.465 308.153 Q814.373 306.995 818.447 306.995 Q829.187 306.995 835.576 312.366 Q841.965 317.736 841.965 326.718 Q841.965 330.977 840.345 334.819 Q838.771 338.616 834.558 343.801 Q833.4 345.143 827.197 351.579 Q820.993 357.967 809.697 369.495 Z" fill="#000000" fill-rule="nonzero" fill-opacity="1" /><path clip-path="url(#clip410)" d="M861.965 365.606 L871.733 365.606 L871.733 377.365 L861.965 377.365 L861.965 365.606 Z" fill="#000000" fill-rule="nonzero" fill-opacity="1" /><path clip-path="url(#clip410)" d="M912.104 314.403 Q904.881 314.403 901.224 321.532 Q897.613 328.616 897.613 342.875 Q897.613 357.088 901.224 364.217 Q904.881 371.301 912.104 371.301 Q919.372 371.301 922.983 364.217 Q926.641 357.088 926.641 342.875 Q926.641 328.616 922.983 321.532 Q919.372 314.403 912.104 314.403 M912.104 306.995 Q923.724 306.995 929.835 316.208 Q935.992 325.375 935.992 342.875 Q935.992 360.329 929.835 369.541 Q923.724 378.708 912.104 378.708 Q900.483 378.708 894.326 369.541 Q888.215 360.329 888.215 342.875 Q888.215 325.375 894.326 316.208 Q900.483 306.995 912.104 306.995 Z" fill="#000000" fill-rule="nonzero" fill-opacity="1" /><path clip-path="url(#clip410)" d="M972.427 314.403 Q965.205 314.403 961.548 321.532 Q957.937 328.616 957.937 342.875 Q957.937 357.088 961.548 364.217 Q965.205 371.301 972.427 371.301 Q979.696 371.301 983.307 364.217 Q986.964 357.088 986.964 342.875 Q986.964 328.616 983.307 321.532 Q979.696 314.403 972.427 314.403 M972.427 306.995 Q984.048 306.995 990.159 316.208 Q996.316 325.375 996.316 342.875 Q996.316 360.329 990.159 369.541 Q984.048 378.708 972.427 378.708 Q960.807 378.708 954.65 369.541 Q948.539 360.329 948.539 342.875 Q948.539 325.375 954.65 316.208 Q960.807 306.995 972.427 306.995 Z" fill="#000000" fill-rule="nonzero" fill-opacity="1" /><path clip-path="url(#clip410)" d="M1069.09 326.44 L1047.94 347.69 L1069.09 368.847 L1063.58 374.449 L1042.33 353.199 L1021.08 374.449 L1015.62 368.847 L1036.73 347.69 L1015.62 326.44 L1021.08 320.838 L1042.33 342.088 L1063.58 320.838 L1069.09 326.44 Z" fill="#000000" fill-rule="nonzero" fill-opacity="1" /><path clip-path="url(#clip410)" d="M1093.82 369.495 L1109.09 369.495 L1109.09 316.764 L1092.47 320.097 L1092.47 311.579 L1109 308.245 L1118.35 308.245 L1118.35 369.495 L1133.63 369.495 L1133.63 377.365 L1093.82 377.365 L1093.82 369.495 Z" fill="#000000" fill-rule="nonzero" fill-opacity="1" /><path clip-path="url(#clip410)" d="M1172.52 314.403 Q1165.3 314.403 1161.64 321.532 Q1158.03 328.616 1158.03 342.875 Q1158.03 357.088 1161.64 364.217 Q1165.3 371.301 1172.52 371.301 Q1179.79 371.301 1183.4 364.217 Q1187.06 357.088 1187.06 342.875 Q1187.06 328.616 1183.4 321.532 Q1179.79 314.403 1172.52 314.403 M1172.52 306.995 Q1184.14 306.995 1190.25 316.208 Q1196.41 325.375 1196.41 342.875 Q1196.41 360.329 1190.25 369.541 Q1184.14 378.708 1172.52 378.708 Q1160.9 378.708 1154.74 369.541 Q1148.63 360.329 1148.63 342.875 Q1148.63 325.375 1154.74 316.208 Q1160.9 306.995 1172.52 306.995 Z" fill="#000000" fill-rule="nonzero" fill-opacity="1" /><path clip-path="url(#clip410)" d="M1221.76 273.005 L1202.58 302.985 L1221.76 302.985 L1221.76 273.005 M1219.77 266.385 L1229.32 266.385 L1229.32 302.985 L1237.33 302.985 L1237.33 309.304 L1229.32 309.304 L1229.32 322.545 L1221.76 322.545 L1221.76 309.304 L1196.41 309.304 L1196.41 301.969 L1219.77 266.385 Z" fill="#000000" fill-rule="nonzero" fill-opacity="1" /><path clip-path="url(#clip410)" d="M809.697 188.411 L842.336 188.411 L842.336 196.282 L798.447 196.282 L798.447 188.411 Q803.771 182.902 812.938 173.643 Q822.15 164.337 824.512 161.652 Q829.002 156.606 830.761 153.134 Q832.567 149.615 832.567 146.236 Q832.567 140.726 828.678 137.254 Q824.836 133.782 818.632 133.782 Q814.234 133.782 809.326 135.31 Q804.465 136.838 798.91 139.939 L798.91 130.495 Q804.558 128.226 809.465 127.069 Q814.373 125.912 818.447 125.912 Q829.187 125.912 835.576 131.282 Q841.965 136.652 841.965 145.634 Q841.965 149.893 840.345 153.736 Q838.771 157.532 834.558 162.717 Q833.4 164.06 827.197 170.495 Q820.993 176.884 809.697 188.411 Z" fill="#000000" fill-rule="nonzero" fill-opacity="1" /><path clip-path="url(#clip410)" d="M861.965 184.522 L871.733 184.522 L871.733 196.282 L861.965 196.282 L861.965 184.522 Z" fill="#000000" fill-rule="nonzero" fill-opacity="1" /><path clip-path="url(#clip410)" d="M892.196 127.162 L928.909 127.162 L928.909 135.032 L900.761 135.032 L900.761 151.976 Q902.798 151.282 904.835 150.958 Q906.872 150.587 908.909 150.587 Q920.483 150.587 927.242 156.93 Q934.002 163.273 934.002 174.106 Q934.002 185.263 927.057 191.467 Q920.113 197.624 907.474 197.624 Q903.122 197.624 898.585 196.883 Q894.094 196.143 889.28 194.661 L889.28 185.263 Q893.446 187.532 897.891 188.643 Q902.335 189.754 907.289 189.754 Q915.298 189.754 919.974 185.541 Q924.65 181.328 924.65 174.106 Q924.65 166.884 919.974 162.671 Q915.298 158.458 907.289 158.458 Q903.539 158.458 899.789 159.291 Q896.085 160.124 892.196 161.884 L892.196 127.162 Z" fill="#000000" fill-rule="nonzero" fill-opacity="1" /><path clip-path="url(#clip410)" d="M972.427 133.319 Q965.205 133.319 961.548 140.449 Q957.937 147.532 957.937 161.791 Q957.937 176.004 961.548 183.134 Q965.205 190.217 972.427 190.217 Q979.696 190.217 983.307 183.134 Q986.964 176.004 986.964 161.791 Q986.964 147.532 983.307 140.449 Q979.696 133.319 972.427 133.319 M972.427 125.912 Q984.048 125.912 990.159 135.125 Q996.316 144.291 996.316 161.791 Q996.316 179.245 990.159 188.458 Q984.048 197.624 972.427 197.624 Q960.807 197.624 954.65 188.458 Q948.539 179.245 948.539 161.791 Q948.539 144.291 954.65 135.125 Q960.807 125.912 972.427 125.912 Z" fill="#000000" fill-rule="nonzero" fill-opacity="1" /><path clip-path="url(#clip410)" d="M1069.09 145.356 L1047.94 166.606 L1069.09 187.763 L1063.58 193.365 L1042.33 172.115 L1021.08 193.365 L1015.62 187.763 L1036.73 166.606 L1015.62 145.356 L1021.08 139.754 L1042.33 161.004 L1063.58 139.754 L1069.09 145.356 Z" fill="#000000" fill-rule="nonzero" fill-opacity="1" /><path clip-path="url(#clip410)" d="M1093.82 188.411 L1109.09 188.411 L1109.09 135.68 L1092.47 139.013 L1092.47 130.495 L1109 127.162 L1118.35 127.162 L1118.35 188.411 L1133.63 188.411 L1133.63 196.282 L1093.82 196.282 L1093.82 188.411 Z" fill="#000000" fill-rule="nonzero" fill-opacity="1" /><path clip-path="url(#clip410)" d="M1172.52 133.319 Q1165.3 133.319 1161.64 140.449 Q1158.03 147.532 1158.03 161.791 Q1158.03 176.004 1161.64 183.134 Q1165.3 190.217 1172.52 190.217 Q1179.79 190.217 1183.4 183.134 Q1187.06 176.004 1187.06 161.791 Q1187.06 147.532 1183.4 140.449 Q1179.79 133.319 1172.52 133.319 M1172.52 125.912 Q1184.14 125.912 1190.25 135.125 Q1196.41 144.291 1196.41 161.791 Q1196.41 179.245 1190.25 188.458 Q1184.14 197.624 1172.52 197.624 Q1160.9 197.624 1154.74 188.458 Q1148.63 179.245 1148.63 161.791 Q1148.63 144.291 1154.74 135.125 Q1160.9 125.912 1172.52 125.912 Z" fill="#000000" fill-rule="nonzero" fill-opacity="1" /><path clip-path="url(#clip410)" d="M1221.76 91.9212 L1202.58 121.901 L1221.76 121.901 L1221.76 91.9212 M1219.77 85.3008 L1229.32 85.3008 L1229.32 121.901 L1237.33 121.901 L1237.33 128.22 L1229.32 128.22 L1229.32 141.461 L1221.76 141.461 L1221.76 128.22 L1196.41 128.22 L1196.41 120.885 L1219.77 85.3008 Z" fill="#000000" fill-rule="nonzero" fill-opacity="1" /><path clip-path="url(#clip410)" d="M662.639 1010.23 L662.639 998.518 L733.935 998.518 L733.935 1010.23 L662.639 1010.23 M634.884 1010.23 L634.884 998.518 L649.717 998.518 L649.717 1010.23 L634.884 1010.23 Z" fill="#000000" fill-rule="nonzero" fill-opacity="1" /><path clip-path="url(#clip410)" d="M690.903 914.746 L733.935 914.746 L733.935 926.458 L691.285 926.458 Q681.163 926.458 676.134 930.405 Q671.105 934.352 671.105 942.245 Q671.105 951.73 677.153 957.205 Q683.2 962.679 693.64 962.679 L733.935 962.679 L733.935 974.456 L662.639 974.456 L662.639 962.679 L673.715 962.679 Q667.286 958.478 664.103 952.812 Q660.92 947.083 660.92 939.635 Q660.92 927.35 668.559 921.048 Q676.134 914.746 690.903 914.746 Z" fill="#000000" fill-rule="nonzero" fill-opacity="1" /><path clip-path="url(#clip410)" d="M634.884 855.29 L644.624 855.29 L644.624 866.493 Q644.624 872.796 647.17 875.278 Q649.717 877.697 656.337 877.697 L662.639 877.697 L662.639 858.409 L671.742 858.409 L671.742 877.697 L733.935 877.697 L733.935 889.474 L671.742 889.474 L671.742 900.677 L662.639 900.677 L662.639 889.474 L657.674 889.474 Q645.77 889.474 640.359 883.936 Q634.884 878.397 634.884 866.366 L634.884 855.29 Z" fill="#000000" fill-rule="nonzero" fill-opacity="1" /><path clip-path="url(#clip410)" d="M705.798 846.696 L662.639 846.696 L662.639 834.983 L705.353 834.983 Q715.474 834.983 720.567 831.037 Q725.596 827.09 725.596 819.196 Q725.596 809.711 719.548 804.237 Q713.501 798.699 703.061 798.699 L662.639 798.699 L662.639 786.986 L733.935 786.986 L733.935 798.699 L722.986 798.699 Q729.479 802.964 732.662 808.629 Q735.781 814.231 735.781 821.679 Q735.781 833.965 728.142 840.33 Q720.503 846.696 705.798 846.696 M660.92 817.223 L660.92 817.223 Z" fill="#000000" fill-rule="nonzero" fill-opacity="1" /><path clip-path="url(#clip410)" d="M664.74 717.409 L675.816 717.409 Q673.27 722.374 671.997 727.721 Q670.723 733.068 670.723 738.797 Q670.723 747.518 673.397 751.911 Q676.071 756.239 681.418 756.239 Q685.492 756.239 687.847 753.12 Q690.139 750.001 692.239 740.58 L693.131 736.569 Q695.804 724.093 700.706 718.873 Q705.544 713.589 714.265 713.589 Q724.195 713.589 729.988 721.483 Q735.781 729.313 735.781 743.062 Q735.781 748.792 734.635 755.03 Q733.553 761.205 731.325 768.08 L719.23 768.08 Q722.604 761.587 724.323 755.285 Q725.978 748.983 725.978 742.808 Q725.978 734.532 723.177 730.076 Q720.312 725.62 715.156 725.62 Q710.382 725.62 707.835 728.867 Q705.289 732.05 702.934 742.935 L701.979 747.009 Q699.687 757.895 694.977 762.732 Q690.202 767.57 681.927 767.57 Q671.869 767.57 666.395 760.441 Q660.92 753.311 660.92 740.198 Q660.92 733.705 661.875 727.976 Q662.83 722.247 664.74 717.409 Z" fill="#000000" fill-rule="nonzero" fill-opacity="1" /><path clip-path="url(#clip410)" d="M695.359 633.954 L701.088 633.954 L701.088 687.808 Q713.183 687.044 719.548 680.551 Q725.85 673.995 725.85 662.345 Q725.85 655.598 724.195 649.296 Q722.54 642.93 719.23 636.691 L730.306 636.691 Q732.98 642.994 734.38 649.614 Q735.781 656.234 735.781 663.046 Q735.781 680.106 725.85 690.1 Q715.92 700.03 698.987 700.03 Q681.481 700.03 671.233 690.609 Q660.92 681.124 660.92 665.083 Q660.92 650.696 670.214 642.357 Q679.444 633.954 695.359 633.954 M691.921 645.667 Q682.309 645.794 676.58 651.078 Q670.851 656.298 670.851 664.955 Q670.851 674.758 676.389 680.679 Q681.927 686.535 691.985 687.426 L691.921 645.667 Z" fill="#000000" fill-rule="nonzero" fill-opacity="1" /><path clip-path="url(#clip410)" d="M673.461 567.815 L634.884 567.815 L634.884 556.102 L733.935 556.102 L733.935 567.815 L723.24 567.815 Q729.606 571.507 732.725 577.172 Q735.781 582.774 735.781 590.667 Q735.781 603.59 725.468 611.738 Q715.156 619.822 698.351 619.822 Q681.545 619.822 671.233 611.738 Q660.92 603.59 660.92 590.667 Q660.92 582.774 664.039 577.172 Q667.095 571.507 673.461 567.815 M698.351 607.728 Q711.273 607.728 718.657 602.444 Q725.978 597.097 725.978 587.803 Q725.978 578.509 718.657 573.162 Q711.273 567.815 698.351 567.815 Q685.428 567.815 678.108 573.162 Q670.723 578.509 670.723 587.803 Q670.723 597.097 678.108 602.444 Q685.428 607.728 698.351 607.728 Z" fill="#000000" fill-rule="nonzero" fill-opacity="1" /><path clip-path="url(#clip410)" d="M676.325 435.026 Q668.432 430.634 664.676 424.522 Q660.92 418.411 660.92 410.136 Q660.92 398.996 668.75 392.949 Q676.516 386.901 690.903 386.901 L733.935 386.901 L733.935 398.678 L691.285 398.678 Q681.036 398.678 676.071 402.306 Q671.105 405.935 671.105 413.382 Q671.105 422.485 677.153 427.769 Q683.2 433.053 693.64 433.053 L733.935 433.053 L733.935 444.829 L691.285 444.829 Q680.972 444.829 676.071 448.458 Q671.105 452.086 671.105 459.661 Q671.105 468.637 677.216 473.92 Q683.264 479.204 693.64 479.204 L733.935 479.204 L733.935 490.98 L662.639 490.98 L662.639 479.204 L673.715 479.204 Q667.159 475.194 664.039 469.592 Q660.92 463.99 660.92 456.287 Q660.92 448.521 664.867 443.11 Q668.814 437.636 676.325 435.026 Z" fill="#000000" fill-rule="nonzero" fill-opacity="1" /><path clip-path="url(#clip410)" d="M698.096 331.138 Q698.096 345.333 701.342 350.808 Q704.589 356.282 712.419 356.282 Q718.657 356.282 722.349 352.208 Q725.978 348.07 725.978 341.004 Q725.978 331.265 719.103 325.408 Q712.164 319.488 700.706 319.488 L698.096 319.488 L698.096 331.138 M693.258 307.775 L733.935 307.775 L733.935 319.488 L723.113 319.488 Q729.606 323.499 732.725 329.482 Q735.781 335.466 735.781 344.124 Q735.781 355.073 729.67 361.566 Q723.495 367.995 713.183 367.995 Q701.151 367.995 695.04 359.974 Q688.929 351.89 688.929 335.912 L688.929 319.488 L687.783 319.488 Q679.699 319.488 675.307 324.836 Q670.851 330.119 670.851 339.731 Q670.851 345.842 672.315 351.635 Q673.779 357.428 676.707 362.775 L665.885 362.775 Q663.403 356.346 662.193 350.298 Q660.92 344.251 660.92 338.522 Q660.92 323.053 668.941 315.414 Q676.962 307.775 693.258 307.775 Z" fill="#000000" fill-rule="nonzero" fill-opacity="1" /><path clip-path="url(#clip410)" d="M664.74 238.198 L675.816 238.198 Q673.27 243.163 671.997 248.511 Q670.723 253.858 670.723 259.587 Q670.723 268.308 673.397 272.7 Q676.071 277.029 681.418 277.029 Q685.492 277.029 687.847 273.91 Q690.139 270.791 692.239 261.369 L693.131 257.359 Q695.804 244.882 700.706 239.662 Q705.544 234.379 714.265 234.379 Q724.195 234.379 729.988 242.272 Q735.781 250.102 735.781 263.852 Q735.781 269.581 734.635 275.82 Q733.553 281.994 731.325 288.869 L719.23 288.869 Q722.604 282.376 724.323 276.074 Q725.978 269.772 725.978 263.597 Q725.978 255.322 723.177 250.866 Q720.312 246.41 715.156 246.41 Q710.382 246.41 707.835 249.657 Q705.289 252.839 702.934 263.725 L701.979 267.799 Q699.687 278.684 694.977 283.522 Q690.202 288.36 681.927 288.36 Q671.869 288.36 666.395 281.23 Q660.92 274.101 660.92 260.987 Q660.92 254.494 661.875 248.765 Q662.83 243.036 664.74 238.198 Z" fill="#000000" fill-rule="nonzero" fill-opacity="1" /><path clip-path="url(#clip410)" d="M664.74 170.276 L675.816 170.276 Q673.27 175.241 671.997 180.589 Q670.723 185.936 670.723 191.665 Q670.723 200.386 673.397 204.778 Q676.071 209.107 681.418 209.107 Q685.492 209.107 687.847 205.988 Q690.139 202.869 692.239 193.447 L693.131 189.437 Q695.804 176.96 700.706 171.74 Q705.544 166.457 714.265 166.457 Q724.195 166.457 729.988 174.35 Q735.781 182.18 735.781 195.93 Q735.781 201.659 734.635 207.897 Q733.553 214.072 731.325 220.947 L719.23 220.947 Q722.604 214.454 724.323 208.152 Q725.978 201.85 725.978 195.675 Q725.978 187.4 723.177 182.944 Q720.312 178.488 715.156 178.488 Q710.382 178.488 707.835 181.734 Q705.289 184.917 702.934 195.803 L701.979 199.877 Q699.687 210.762 694.977 215.6 Q690.202 220.438 681.927 220.438 Q671.869 220.438 666.395 213.308 Q660.92 206.179 660.92 193.065 Q660.92 186.572 661.875 180.843 Q662.83 175.114 664.74 170.276 Z" fill="#000000" fill-rule="nonzero" fill-opacity="1" /><polyline clip-path="url(#clip412)" style="stroke:#009af9; stroke-linecap:round; stroke-linejoin:round; stroke-width:8; stroke-opacity:1; fill:none" points="1302.55,320.716 1305.1,351.82 1306.2,359.789 1308.14,369.697 1310.07,376.599 1312.4,382.859 1315.05,388.614 1318.27,394.604 1322.28,401.228 1327.55,409.08 1334.83,418.816 1344.48,430.348 1356.7,443.328 1372.29,458.099 1392.08,474.807 1417.28,493.797 1449.44,515.405 1490.34,539.854 1542.08,567.229 1608.12,597.869 1694.23,632.33 1807.44,670.501 1946.58,709.32 2111.85,747.278 2276.3,778.925 "/>
<polyline clip-path="url(#clip412)" style="stroke:#e26f46; stroke-linecap:round; stroke-linejoin:round; stroke-width:8; stroke-opacity:1; fill:none" points="1302.55,883.413 1305.1,872.205 1306.2,869.413 1308.14,866.045 1310.07,863.809 1312.4,861.893 1315.05,860.237 1318.27,858.615 1322.28,856.925 1327.55,855.052 1334.83,852.917 1344.48,850.657 1356.7,848.46 1372.29,846.396 1392.08,844.609 1417.28,843.259 1449.44,842.58 1490.34,842.883 1542.08,844.553 1608.12,848.116 1694.23,854.376 1807.44,864.293 1946.58,877.719 2111.85,893.929 2276.3,909.35 "/>
<polyline clip-path="url(#clip412)" style="stroke:#3da44d; stroke-linecap:round; stroke-linejoin:round; stroke-width:8; stroke-opacity:1; fill:none" points="1302.55,1026.8 1305.1,1007.08 1306.2,1002 1308.14,995.65 1310.07,991.191 1312.4,987.113 1315.05,983.336 1318.27,979.381 1322.28,974.99 1327.55,969.771 1334.83,963.291 1344.48,955.629 1356.7,947.057 1372.29,937.422 1392.08,926.753 1417.28,915.024 1449.44,902.332 1490.34,888.996 1542.08,875.61 1608.12,862.915 1694.23,852.041 1807.44,844.992 1946.58,844.157 2111.85,850.259 2276.3,860.704 "/>
<polyline clip-path="url(#clip412)" style="stroke:#c271d2; stroke-linecap:round; stroke-linejoin:round; stroke-width:8; stroke-opacity:1; fill:none" points="1302.55,1054.25 1305.1,1054.07 1306.2,1053.98 1308.14,1053.79 1310.07,1053.58 1312.4,1053.31 1315.05,1052.99 1318.27,1052.58 1322.28,1052.04 1327.55,1051.28 1334.83,1050.15 1344.48,1048.54 1356.7,1046.33 1372.29,1043.26 1392.08,1039.01 1417.28,1033.1 1449.44,1024.86 1490.34,1013.45 1542.08,997.787 1608.12,976.28 1694.23,946.433 1807.44,905.393 1946.58,853.983 2111.85,793.713 2276.3,736.201 "/>
<polyline clip-path="url(#clip412)" style="stroke:#ac8d18; stroke-linecap:round; stroke-linejoin:round; stroke-width:8; stroke-opacity:1; fill:none" points="1302.55,122.442 1305.1,122.442 1306.2,122.442 1308.14,122.442 1310.07,122.442 1312.4,122.442 1315.05,122.442 1318.27,122.442 1322.28,122.442 1327.55,122.442 1334.83,122.442 1344.48,122.442 1356.7,122.442 1372.29,122.442 1392.08,122.442 1417.28,122.442 1449.44,122.442 1490.34,122.442 1542.08,122.442 1608.12,122.442 1694.23,122.442 1807.44,122.442 1946.58,122.442 2111.85,122.442 2276.3,122.442 "/>
<path clip-path="url(#clip410)" d="M1761.92 880.468 L2271.11 880.468 L2271.11 258.388 L1761.92 258.388  Z" fill="#ffffff" fill-rule="evenodd" fill-opacity="1"/>
<polyline clip-path="url(#clip410)" style="stroke:#000000; stroke-linecap:round; stroke-linejoin:round; stroke-width:8; stroke-opacity:1; fill:none" points="1761.92,880.468 2271.11,880.468 2271.11,258.388 1761.92,258.388 1761.92,880.468 "/>
<polyline clip-path="url(#clip410)" style="stroke:#009af9; stroke-linecap:round; stroke-linejoin:round; stroke-width:8; stroke-opacity:1; fill:none" points="1773.39,362.068 1842.2,362.068 "/>
<path clip-path="url(#clip410)" d="M1891.21 370.748 Q1891.21 361.35 1887.32 356.026 Q1883.48 350.656 1876.72 350.656 Q1869.96 350.656 1866.07 356.026 Q1862.23 361.35 1862.23 370.748 Q1862.23 380.146 1866.07 385.517 Q1869.96 390.841 1876.72 390.841 Q1883.48 390.841 1887.32 385.517 Q1891.21 380.146 1891.21 370.748 M1862.23 352.646 Q1864.92 348.017 1868.99 345.795 Q1873.11 343.526 1878.81 343.526 Q1888.25 343.526 1894.13 351.026 Q1900.06 358.526 1900.06 370.748 Q1900.06 382.97 1894.13 390.47 Q1888.25 397.97 1878.81 397.97 Q1873.11 397.97 1868.99 395.748 Q1864.92 393.48 1862.23 388.85 L1862.23 396.628 L1853.67 396.628 L1853.67 324.591 L1862.23 324.591 L1862.23 352.646 Z" fill="#000000" fill-rule="nonzero" fill-opacity="1" /><path clip-path="url(#clip410)" d="M1944.22 352.739 Q1942.79 351.906 1941.07 351.535 Q1939.41 351.119 1937.37 351.119 Q1930.15 351.119 1926.26 355.841 Q1922.42 360.517 1922.42 369.313 L1922.42 396.628 L1913.85 396.628 L1913.85 344.776 L1922.42 344.776 L1922.42 352.832 Q1925.1 348.109 1929.41 345.841 Q1933.71 343.526 1939.87 343.526 Q1940.75 343.526 1941.81 343.665 Q1942.88 343.758 1944.18 343.989 L1944.22 352.739 Z" fill="#000000" fill-rule="nonzero" fill-opacity="1" /><path clip-path="url(#clip410)" d="M1976.72 370.563 Q1966.4 370.563 1962.42 372.924 Q1958.44 375.285 1958.44 380.98 Q1958.44 385.517 1961.4 388.202 Q1964.41 390.841 1969.55 390.841 Q1976.63 390.841 1980.89 385.841 Q1985.19 380.794 1985.19 372.461 L1985.19 370.563 L1976.72 370.563 M1993.71 367.044 L1993.71 396.628 L1985.19 396.628 L1985.19 388.757 Q1982.28 393.48 1977.93 395.748 Q1973.57 397.97 1967.28 397.97 Q1959.31 397.97 1954.59 393.526 Q1949.92 389.035 1949.92 381.535 Q1949.92 372.785 1955.75 368.341 Q1961.63 363.896 1973.25 363.896 L1985.19 363.896 L1985.19 363.063 Q1985.19 357.183 1981.31 353.989 Q1977.46 350.748 1970.47 350.748 Q1966.03 350.748 1961.81 351.813 Q1957.6 352.878 1953.71 355.008 L1953.71 347.137 Q1958.39 345.332 1962.79 344.452 Q1967.19 343.526 1971.35 343.526 Q1982.6 343.526 1988.16 349.359 Q1993.71 355.193 1993.71 367.044 Z" fill="#000000" fill-rule="nonzero" fill-opacity="1" /><path clip-path="url(#clip410)" d="M2011.26 344.776 L2019.78 344.776 L2019.78 396.628 L2011.26 396.628 L2011.26 344.776 M2011.26 324.591 L2019.78 324.591 L2019.78 335.378 L2011.26 335.378 L2011.26 324.591 Z" fill="#000000" fill-rule="nonzero" fill-opacity="1" /><path clip-path="url(#clip410)" d="M2080.7 365.332 L2080.7 396.628 L2072.18 396.628 L2072.18 365.609 Q2072.18 358.248 2069.31 354.591 Q2066.44 350.933 2060.7 350.933 Q2053.8 350.933 2049.82 355.332 Q2045.84 359.73 2045.84 367.322 L2045.84 396.628 L2037.28 396.628 L2037.28 344.776 L2045.84 344.776 L2045.84 352.832 Q2048.9 348.156 2053.02 345.841 Q2057.18 343.526 2062.6 343.526 Q2071.54 343.526 2076.12 349.082 Q2080.7 354.591 2080.7 365.332 Z" fill="#000000" fill-rule="nonzero" fill-opacity="1" /><polyline clip-path="url(#clip410)" style="stroke:#e26f46; stroke-linecap:round; stroke-linejoin:round; stroke-width:8; stroke-opacity:1; fill:none" points="1773.39,465.748 1842.2,465.748 "/>
<path clip-path="url(#clip410)" d="M1853.67 448.456 L1862.69 448.456 L1878.9 491.974 L1895.1 448.456 L1904.13 448.456 L1884.69 500.308 L1873.11 500.308 L1853.67 448.456 Z" fill="#000000" fill-rule="nonzero" fill-opacity="1" /><path clip-path="url(#clip410)" d="M1960.24 472.252 L1960.24 476.419 L1921.07 476.419 Q1921.63 485.215 1926.35 489.845 Q1931.12 494.428 1939.59 494.428 Q1944.5 494.428 1949.08 493.224 Q1953.71 492.021 1958.25 489.613 L1958.25 497.669 Q1953.67 499.613 1948.85 500.632 Q1944.04 501.65 1939.08 501.65 Q1926.68 501.65 1919.41 494.428 Q1912.19 487.206 1912.19 474.891 Q1912.19 462.16 1919.04 454.706 Q1925.94 447.206 1937.6 447.206 Q1948.06 447.206 1954.13 453.965 Q1960.24 460.678 1960.24 472.252 M1951.72 469.752 Q1951.63 462.762 1947.79 458.595 Q1943.99 454.428 1937.69 454.428 Q1930.56 454.428 1926.26 458.456 Q1922 462.484 1921.35 469.799 L1951.72 469.752 Z" fill="#000000" fill-rule="nonzero" fill-opacity="1" /><path clip-path="url(#clip410)" d="M2017.32 469.012 L2017.32 500.308 L2008.81 500.308 L2008.81 469.289 Q2008.81 461.928 2005.93 458.271 Q2003.06 454.613 1997.32 454.613 Q1990.43 454.613 1986.44 459.012 Q1982.46 463.41 1982.46 471.002 L1982.46 500.308 L1973.9 500.308 L1973.9 448.456 L1982.46 448.456 L1982.46 456.512 Q1985.52 451.836 1989.64 449.521 Q1993.81 447.206 1999.22 447.206 Q2008.16 447.206 2012.74 452.762 Q2017.32 458.271 2017.32 469.012 Z" fill="#000000" fill-rule="nonzero" fill-opacity="1" /><path clip-path="url(#clip410)" d="M2042.74 433.734 L2042.74 448.456 L2060.29 448.456 L2060.29 455.076 L2042.74 455.076 L2042.74 483.224 Q2042.74 489.567 2044.45 491.373 Q2046.21 493.178 2051.54 493.178 L2060.29 493.178 L2060.29 500.308 L2051.54 500.308 Q2041.68 500.308 2037.93 496.65 Q2034.18 492.947 2034.18 483.224 L2034.18 455.076 L2027.93 455.076 L2027.93 448.456 L2034.18 448.456 L2034.18 433.734 L2042.74 433.734 Z" fill="#000000" fill-rule="nonzero" fill-opacity="1" /><path clip-path="url(#clip410)" d="M2101.54 456.419 Q2100.1 455.586 2098.39 455.215 Q2096.72 454.799 2094.68 454.799 Q2087.46 454.799 2083.57 459.521 Q2079.73 464.197 2079.73 472.993 L2079.73 500.308 L2071.17 500.308 L2071.17 448.456 L2079.73 448.456 L2079.73 456.512 Q2082.42 451.789 2086.72 449.521 Q2091.03 447.206 2097.18 447.206 Q2098.06 447.206 2099.13 447.345 Q2100.19 447.438 2101.49 447.669 L2101.54 456.419 Z" fill="#000000" fill-rule="nonzero" fill-opacity="1" /><path clip-path="url(#clip410)" d="M2110.47 448.456 L2118.99 448.456 L2118.99 500.308 L2110.47 500.308 L2110.47 448.456 M2110.47 428.271 L2118.99 428.271 L2118.99 439.058 L2110.47 439.058 L2110.47 428.271 Z" fill="#000000" fill-rule="nonzero" fill-opacity="1" /><path clip-path="url(#clip410)" d="M2174.13 450.447 L2174.13 458.41 Q2170.52 456.419 2166.86 455.447 Q2163.25 454.428 2159.55 454.428 Q2151.26 454.428 2146.67 459.706 Q2142.09 464.937 2142.09 474.428 Q2142.09 483.919 2146.67 489.197 Q2151.26 494.428 2159.55 494.428 Q2163.25 494.428 2166.86 493.456 Q2170.52 492.437 2174.13 490.447 L2174.13 498.317 Q2170.56 499.984 2166.72 500.817 Q2162.92 501.65 2158.62 501.65 Q2146.91 501.65 2140.01 494.289 Q2133.11 486.928 2133.11 474.428 Q2133.11 461.743 2140.05 454.475 Q2147.05 447.206 2159.17 447.206 Q2163.11 447.206 2166.86 448.039 Q2170.61 448.826 2174.13 450.447 Z" fill="#000000" fill-rule="nonzero" fill-opacity="1" /><path clip-path="url(#clip410)" d="M2188.94 428.271 L2197.46 428.271 L2197.46 500.308 L2188.94 500.308 L2188.94 428.271 Z" fill="#000000" fill-rule="nonzero" fill-opacity="1" /><path clip-path="url(#clip410)" d="M2259.64 472.252 L2259.64 476.419 L2220.47 476.419 Q2221.03 485.215 2225.75 489.845 Q2230.52 494.428 2238.99 494.428 Q2243.9 494.428 2248.48 493.224 Q2253.11 492.021 2257.65 489.613 L2257.65 497.669 Q2253.06 499.613 2248.25 500.632 Q2243.43 501.65 2238.48 501.65 Q2226.07 501.65 2218.8 494.428 Q2211.58 487.206 2211.58 474.891 Q2211.58 462.16 2218.43 454.706 Q2225.33 447.206 2237 447.206 Q2247.46 447.206 2253.53 453.965 Q2259.64 460.678 2259.64 472.252 M2251.12 469.752 Q2251.03 462.762 2247.18 458.595 Q2243.39 454.428 2237.09 454.428 Q2229.96 454.428 2225.66 458.456 Q2221.4 462.484 2220.75 469.799 L2251.12 469.752 Z" fill="#000000" fill-rule="nonzero" fill-opacity="1" /><polyline clip-path="url(#clip410)" style="stroke:#3da44d; stroke-linecap:round; stroke-linejoin:round; stroke-width:8; stroke-opacity:1; fill:none" points="1773.39,569.428 1842.2,569.428 "/>
<path clip-path="url(#clip410)" d="M1909.41 540.192 L1909.41 550.053 Q1904.69 545.655 1899.32 543.479 Q1893.99 541.303 1887.97 541.303 Q1876.12 541.303 1869.82 548.571 Q1863.53 555.793 1863.53 569.497 Q1863.53 583.154 1869.82 590.423 Q1876.12 597.645 1887.97 597.645 Q1893.99 597.645 1899.32 595.469 Q1904.69 593.293 1909.41 588.895 L1909.41 598.664 Q1904.5 601.997 1898.99 603.664 Q1893.53 605.33 1887.42 605.33 Q1871.72 605.33 1862.69 595.747 Q1853.67 586.117 1853.67 569.497 Q1853.67 552.831 1862.69 543.247 Q1871.72 533.618 1887.42 533.618 Q1893.62 533.618 1899.08 535.284 Q1904.59 536.905 1909.41 540.192 Z" fill="#000000" fill-rule="nonzero" fill-opacity="1" /><path clip-path="url(#clip410)" d="M1923.85 534.868 L1937.79 534.868 L1955.43 581.904 L1973.16 534.868 L1987.09 534.868 L1987.09 603.988 L1977.97 603.988 L1977.97 543.294 L1960.15 590.701 L1950.75 590.701 L1932.93 543.294 L1932.93 603.988 L1923.85 603.988 L1923.85 534.868 Z" fill="#000000" fill-rule="nonzero" fill-opacity="1" /><polyline clip-path="url(#clip410)" style="stroke:#c271d2; stroke-linecap:round; stroke-linejoin:round; stroke-width:8; stroke-opacity:1; fill:none" points="1773.39,673.108 1842.2,673.108 "/>
<path clip-path="url(#clip410)" d="M1891.21 681.788 Q1891.21 672.39 1887.32 667.066 Q1883.48 661.696 1876.72 661.696 Q1869.96 661.696 1866.07 667.066 Q1862.23 672.39 1862.23 681.788 Q1862.23 691.186 1866.07 696.557 Q1869.96 701.881 1876.72 701.881 Q1883.48 701.881 1887.32 696.557 Q1891.21 691.186 1891.21 681.788 M1862.23 663.686 Q1864.92 659.057 1868.99 656.835 Q1873.11 654.566 1878.81 654.566 Q1888.25 654.566 1894.13 662.066 Q1900.06 669.566 1900.06 681.788 Q1900.06 694.01 1894.13 701.51 Q1888.25 709.01 1878.81 709.01 Q1873.11 709.01 1868.99 706.788 Q1864.92 704.52 1862.23 699.89 L1862.23 707.668 L1853.67 707.668 L1853.67 635.631 L1862.23 635.631 L1862.23 663.686 Z" fill="#000000" fill-rule="nonzero" fill-opacity="1" /><path clip-path="url(#clip410)" d="M1914.18 635.631 L1922.69 635.631 L1922.69 707.668 L1914.18 707.668 L1914.18 635.631 Z" fill="#000000" fill-rule="nonzero" fill-opacity="1" /><path clip-path="url(#clip410)" d="M1960.61 661.788 Q1953.76 661.788 1949.78 667.159 Q1945.8 672.483 1945.8 681.788 Q1945.8 691.094 1949.73 696.464 Q1953.71 701.788 1960.61 701.788 Q1967.42 701.788 1971.4 696.418 Q1975.38 691.047 1975.38 681.788 Q1975.38 672.575 1971.4 667.205 Q1967.42 661.788 1960.61 661.788 M1960.61 654.566 Q1971.72 654.566 1978.06 661.788 Q1984.41 669.01 1984.41 681.788 Q1984.41 694.52 1978.06 701.788 Q1971.72 709.01 1960.61 709.01 Q1949.45 709.01 1943.11 701.788 Q1936.81 694.52 1936.81 681.788 Q1936.81 669.01 1943.11 661.788 Q1949.45 654.566 1960.61 654.566 Z" fill="#000000" fill-rule="nonzero" fill-opacity="1" /><path clip-path="url(#clip410)" d="M2018.62 661.788 Q2011.77 661.788 2007.79 667.159 Q2003.81 672.483 2003.81 681.788 Q2003.81 691.094 2007.74 696.464 Q2011.72 701.788 2018.62 701.788 Q2025.43 701.788 2029.41 696.418 Q2033.39 691.047 2033.39 681.788 Q2033.39 672.575 2029.41 667.205 Q2025.43 661.788 2018.62 661.788 M2018.62 654.566 Q2029.73 654.566 2036.07 661.788 Q2042.42 669.01 2042.42 681.788 Q2042.42 694.52 2036.07 701.788 Q2029.73 709.01 2018.62 709.01 Q2007.46 709.01 2001.12 701.788 Q1994.82 694.52 1994.82 681.788 Q1994.82 669.01 2001.12 661.788 Q2007.46 654.566 2018.62 654.566 Z" fill="#000000" fill-rule="nonzero" fill-opacity="1" /><path clip-path="url(#clip410)" d="M2090.66 663.686 L2090.66 635.631 L2099.18 635.631 L2099.18 707.668 L2090.66 707.668 L2090.66 699.89 Q2087.97 704.52 2083.85 706.788 Q2079.78 709.01 2074.04 709.01 Q2064.64 709.01 2058.71 701.51 Q2052.83 694.01 2052.83 681.788 Q2052.83 669.566 2058.71 662.066 Q2064.64 654.566 2074.04 654.566 Q2079.78 654.566 2083.85 656.835 Q2087.97 659.057 2090.66 663.686 M2061.63 681.788 Q2061.63 691.186 2065.47 696.557 Q2069.36 701.881 2076.12 701.881 Q2082.88 701.881 2086.77 696.557 Q2090.66 691.186 2090.66 681.788 Q2090.66 672.39 2086.77 667.066 Q2082.88 661.696 2076.12 661.696 Q2069.36 661.696 2065.47 667.066 Q2061.63 672.39 2061.63 681.788 Z" fill="#000000" fill-rule="nonzero" fill-opacity="1" /><polyline clip-path="url(#clip410)" style="stroke:#ac8d18; stroke-linecap:round; stroke-linejoin:round; stroke-width:8; stroke-opacity:1; fill:none" points="1773.39,776.788 1842.2,776.788 "/>
<path clip-path="url(#clip410)" d="M1890.52 761.024 L1890.52 769.079 Q1886.91 767.228 1883.02 766.302 Q1879.13 765.376 1874.96 765.376 Q1868.62 765.376 1865.43 767.32 Q1862.28 769.265 1862.28 773.153 Q1862.28 776.116 1864.55 777.829 Q1866.82 779.496 1873.67 781.024 L1876.58 781.672 Q1885.66 783.616 1889.45 787.181 Q1893.3 790.7 1893.3 797.042 Q1893.3 804.264 1887.56 808.477 Q1881.86 812.69 1871.86 812.69 Q1867.69 812.69 1863.16 811.857 Q1858.67 811.07 1853.67 809.45 L1853.67 800.653 Q1858.39 803.107 1862.97 804.357 Q1867.56 805.561 1872.05 805.561 Q1878.07 805.561 1881.31 803.524 Q1884.55 801.44 1884.55 797.69 Q1884.55 794.218 1882.19 792.366 Q1879.87 790.514 1871.95 788.801 L1868.99 788.107 Q1861.07 786.44 1857.56 783.014 Q1854.04 779.542 1854.04 773.524 Q1854.04 766.209 1859.22 762.228 Q1864.41 758.246 1873.94 758.246 Q1878.67 758.246 1882.83 758.941 Q1887 759.635 1890.52 761.024 Z" fill="#000000" fill-rule="nonzero" fill-opacity="1" /><path clip-path="url(#clip410)" d="M1905.98 790.885 L1905.98 759.496 L1914.5 759.496 L1914.5 790.561 Q1914.5 797.922 1917.37 801.625 Q1920.24 805.283 1925.98 805.283 Q1932.88 805.283 1936.86 800.885 Q1940.89 796.487 1940.89 788.894 L1940.89 759.496 L1949.41 759.496 L1949.41 811.348 L1940.89 811.348 L1940.89 803.385 Q1937.79 808.107 1933.67 810.422 Q1929.59 812.69 1924.18 812.69 Q1915.24 812.69 1910.61 807.135 Q1905.98 801.579 1905.98 790.885 M1927.42 758.246 L1927.42 758.246 Z" fill="#000000" fill-rule="nonzero" fill-opacity="1" /><path clip-path="url(#clip410)" d="M2007.32 769.45 Q2010.52 763.709 2014.96 760.978 Q2019.41 758.246 2025.43 758.246 Q2033.53 758.246 2037.93 763.941 Q2042.32 769.589 2042.32 780.052 L2042.32 811.348 L2033.76 811.348 L2033.76 780.329 Q2033.76 772.876 2031.12 769.265 Q2028.48 765.653 2023.06 765.653 Q2016.44 765.653 2012.6 770.052 Q2008.76 774.45 2008.76 782.042 L2008.76 811.348 L2000.19 811.348 L2000.19 780.329 Q2000.19 772.829 1997.56 769.265 Q1994.92 765.653 1989.41 765.653 Q1982.88 765.653 1979.04 770.098 Q1975.19 774.496 1975.19 782.042 L1975.19 811.348 L1966.63 811.348 L1966.63 759.496 L1975.19 759.496 L1975.19 767.552 Q1978.11 762.783 1982.18 760.515 Q1986.26 758.246 1991.86 758.246 Q1997.51 758.246 2001.44 761.116 Q2005.43 763.987 2007.32 769.45 Z" fill="#000000" fill-rule="nonzero" fill-opacity="1" /></svg>
