<?xml version="1.0" encoding="utf-8"?>
<svg xmlns="http://www.w3.org/2000/svg" xmlns:xlink="http://www.w3.org/1999/xlink" width="600" height="400" viewBox="0 0 2400 1600">
<defs>
  <clipPath id="clip530">
    <rect x="0" y="0" width="2400" height="1600"/>
  </clipPath>
</defs>
<path clip-path="url(#clip530)" d="M0 1600 L2400 1600 L2400 0 L0 0  Z" fill="#ffffff" fill-rule="evenodd" fill-opacity="1"/>
<defs>
  <clipPath id="clip531">
    <rect x="480" y="0" width="1681" height="1600"/>
  </clipPath>
</defs>
<path clip-path="url(#clip530)" d="M685.08 1273.7 L2305.51 1273.7 L2305.51 94.4882 L685.08 94.4882  Z" fill="#ffffff" fill-rule="evenodd" fill-opacity="1"/>
<defs>
  <clipPath id="clip532">
    <rect x="685" y="94" width="1621" height="1180"/>
  </clipPath>
</defs>
<polyline clip-path="url(#clip532)" style="stroke:#000000; stroke-linecap:round; stroke-linejoin:round; stroke-width:4; stroke-opacity:0.1; fill:none" points="730.941,1273.7 730.941,94.4882 "/>
<polyline clip-path="url(#clip532)" style="stroke:#000000; stroke-linecap:round; stroke-linejoin:round; stroke-width:4; stroke-opacity:0.1; fill:none" points="1003.93,1273.7 1003.93,94.4882 "/>
<polyline clip-path="url(#clip532)" style="stroke:#000000; stroke-linecap:round; stroke-linejoin:round; stroke-width:4; stroke-opacity:0.1; fill:none" points="1276.91,1273.7 1276.91,94.4882 "/>
<polyline clip-path="url(#clip532)" style="stroke:#000000; stroke-linecap:round; stroke-linejoin:round; stroke-width:4; stroke-opacity:0.1; fill:none" points="1549.89,1273.7 1549.89,94.4882 "/>
<polyline clip-path="url(#clip532)" style="stroke:#000000; stroke-linecap:round; stroke-linejoin:round; stroke-width:4; stroke-opacity:0.1; fill:none" points="1822.88,1273.7 1822.88,94.4882 "/>
<polyline clip-path="url(#clip532)" style="stroke:#000000; stroke-linecap:round; stroke-linejoin:round; stroke-width:4; stroke-opacity:0.1; fill:none" points="2095.86,1273.7 2095.86,94.4882 "/>
<polyline clip-path="url(#clip530)" style="stroke:#000000; stroke-linecap:round; stroke-linejoin:round; stroke-width:8; stroke-opacity:1; fill:none" points="685.08,1273.7 2305.51,1273.7 "/>
<polyline clip-path="url(#clip530)" style="stroke:#000000; stroke-linecap:round; stroke-linejoin:round; stroke-width:8; stroke-opacity:1; fill:none" points="730.941,1273.7 730.941,1254.8 "/>
<polyline clip-path="url(#clip530)" style="stroke:#000000; stroke-linecap:round; stroke-linejoin:round; stroke-width:8; stroke-opacity:1; fill:none" points="1003.93,1273.7 1003.93,1254.8 "/>
<polyline clip-path="url(#clip530)" style="stroke:#000000; stroke-linecap:round; stroke-linejoin:round; stroke-width:8; stroke-opacity:1; fill:none" points="1276.91,1273.7 1276.91,1254.8 "/>
<polyline clip-path="url(#clip530)" style="stroke:#000000; stroke-linecap:round; stroke-linejoin:round; stroke-width:8; stroke-opacity:1; fill:none" points="1549.89,1273.7 1549.89,1254.8 "/>
<polyline clip-path="url(#clip530)" style="stroke:#000000; stroke-linecap:round; stroke-linejoin:round; stroke-width:8; stroke-opacity:1; fill:none" points="1822.88,1273.7 1822.88,1254.8 "/>
<polyline clip-path="url(#clip530)" style="stroke:#000000; stroke-linecap:round; stroke-linejoin:round; stroke-width:8; stroke-opacity:1; fill:none" points="2095.86,1273.7 2095.86,1254.8 "/>
<path clip-path="url(#clip530)" d="M655.548 1316.33 Q648.326 1316.33 644.669 1323.46 Q641.057 1330.55 641.057 1344.81 Q641.057 1359.02 644.669 1366.15 Q648.326 1373.23 655.548 1373.23 Q662.817 1373.23 666.428 1366.15 Q670.085 1359.02 670.085 1344.81 Q670.085 1330.55 666.428 1323.46 Q662.817 1316.33 655.548 1316.33 M655.548 1308.93 Q667.168 1308.93 673.28 1318.14 Q679.437 1327.31 679.437 1344.81 Q679.437 1362.26 673.28 1371.47 Q667.168 1380.64 655.548 1380.64 Q643.928 1380.64 637.77 1371.47 Q631.659 1362.26 631.659 1344.81 Q631.659 1327.31 637.77 1318.14 Q643.928 1308.93 655.548 1308.93 Z" fill="#000000" fill-rule="nonzero" fill-opacity="1" /><path clip-path="url(#clip530)" d="M695.872 1367.54 L705.64 1367.54 L705.64 1379.3 L695.872 1379.3 L695.872 1367.54 Z" fill="#000000" fill-rule="nonzero" fill-opacity="1" /><path clip-path="url(#clip530)" d="M746.011 1316.33 Q738.788 1316.33 735.131 1323.46 Q731.52 1330.55 731.52 1344.81 Q731.52 1359.02 735.131 1366.15 Q738.788 1373.23 746.011 1373.23 Q753.279 1373.23 756.89 1366.15 Q760.548 1359.02 760.548 1344.81 Q760.548 1330.55 756.89 1323.46 Q753.279 1316.33 746.011 1316.33 M746.011 1308.93 Q757.631 1308.93 763.742 1318.14 Q769.899 1327.31 769.899 1344.81 Q769.899 1362.26 763.742 1371.47 Q757.631 1380.64 746.011 1380.64 Q734.39 1380.64 728.233 1371.47 Q722.122 1362.26 722.122 1344.81 Q722.122 1327.31 728.233 1318.14 Q734.39 1308.93 746.011 1308.93 Z" fill="#000000" fill-rule="nonzero" fill-opacity="1" /><path clip-path="url(#clip530)" d="M806.334 1316.33 Q799.112 1316.33 795.455 1323.46 Q791.844 1330.55 791.844 1344.81 Q791.844 1359.02 795.455 1366.15 Q799.112 1373.23 806.334 1373.23 Q813.603 1373.23 817.214 1366.15 Q820.871 1359.02 820.871 1344.81 Q820.871 1330.55 817.214 1323.46 Q813.603 1316.33 806.334 1316.33 M806.334 1308.93 Q817.955 1308.93 824.066 1318.14 Q830.223 1327.31 830.223 1344.81 Q830.223 1362.26 824.066 1371.47 Q817.955 1380.64 806.334 1380.64 Q794.714 1380.64 788.557 1371.47 Q782.446 1362.26 782.446 1344.81 Q782.446 1327.31 788.557 1318.14 Q794.714 1308.93 806.334 1308.93 Z" fill="#000000" fill-rule="nonzero" fill-opacity="1" /><path clip-path="url(#clip530)" d="M929.527 1316.33 Q922.305 1316.33 918.648 1323.46 Q915.037 1330.55 915.037 1344.81 Q915.037 1359.02 918.648 1366.15 Q922.305 1373.23 929.527 1373.23 Q936.796 1373.23 940.407 1366.15 Q944.064 1359.02 944.064 1344.81 Q944.064 1330.55 940.407 1323.46 Q936.796 1316.33 929.527 1316.33 M929.527 1308.93 Q941.148 1308.93 947.259 1318.14 Q953.416 1327.31 953.416 1344.81 Q953.416 1362.26 947.259 1371.47 Q941.148 1380.64 929.527 1380.64 Q917.907 1380.64 911.75 1371.47 Q905.639 1362.26 905.639 1344.81 Q905.639 1327.31 911.75 1318.14 Q917.907 1308.93 929.527 1308.93 Z" fill="#000000" fill-rule="nonzero" fill-opacity="1" /><path clip-path="url(#clip530)" d="M969.851 1367.54 L979.62 1367.54 L979.62 1379.3 L969.851 1379.3 L969.851 1367.54 Z" fill="#000000" fill-rule="nonzero" fill-opacity="1" /><path clip-path="url(#clip530)" d="M1008.05 1371.43 L1040.68 1371.43 L1040.68 1379.3 L996.795 1379.3 L996.795 1371.43 Q1002.12 1365.92 1011.29 1356.66 Q1020.5 1347.35 1022.86 1344.67 Q1027.35 1339.62 1029.11 1336.15 Q1030.92 1332.63 1030.92 1329.25 Q1030.92 1323.74 1027.03 1320.27 Q1023.18 1316.8 1016.98 1316.8 Q1012.58 1316.8 1007.68 1318.32 Q1002.81 1319.85 997.258 1322.95 L997.258 1313.51 Q1002.91 1311.24 1007.81 1310.08 Q1012.72 1308.93 1016.8 1308.93 Q1027.54 1308.93 1033.92 1314.3 Q1040.31 1319.67 1040.31 1328.65 Q1040.31 1332.91 1038.69 1336.75 Q1037.12 1340.55 1032.91 1345.73 Q1031.75 1347.07 1025.55 1353.51 Q1019.34 1359.9 1008.05 1371.43 Z" fill="#000000" fill-rule="nonzero" fill-opacity="1" /><path clip-path="url(#clip530)" d="M1060.41 1310.18 L1097.12 1310.18 L1097.12 1318.05 L1068.97 1318.05 L1068.97 1334.99 Q1071.01 1334.3 1073.05 1333.97 Q1075.08 1333.6 1077.12 1333.6 Q1088.69 1333.6 1095.45 1339.94 Q1102.21 1346.29 1102.21 1357.12 Q1102.21 1368.28 1095.27 1374.48 Q1088.32 1380.64 1075.68 1380.64 Q1071.33 1380.64 1066.8 1379.9 Q1062.3 1379.16 1057.49 1377.68 L1057.49 1368.28 Q1061.66 1370.55 1066.1 1371.66 Q1070.55 1372.77 1075.5 1372.77 Q1083.51 1372.77 1088.18 1368.56 Q1092.86 1364.34 1092.86 1357.12 Q1092.86 1349.9 1088.18 1345.68 Q1083.51 1341.47 1075.5 1341.47 Q1071.75 1341.47 1068 1342.31 Q1064.3 1343.14 1060.41 1344.9 L1060.41 1310.18 Z" fill="#000000" fill-rule="nonzero" fill-opacity="1" /><path clip-path="url(#clip530)" d="M1201.52 1316.33 Q1194.29 1316.33 1190.64 1323.46 Q1187.03 1330.55 1187.03 1344.81 Q1187.03 1359.02 1190.64 1366.15 Q1194.29 1373.23 1201.52 1373.23 Q1208.78 1373.23 1212.4 1366.15 Q1216.05 1359.02 1216.05 1344.81 Q1216.05 1330.55 1212.4 1323.46 Q1208.78 1316.33 1201.52 1316.33 M1201.52 1308.93 Q1213.14 1308.93 1219.25 1318.14 Q1225.4 1327.31 1225.4 1344.81 Q1225.4 1362.26 1219.25 1371.47 Q1213.14 1380.64 1201.52 1380.64 Q1189.9 1380.64 1183.74 1371.47 Q1177.63 1362.26 1177.63 1344.81 Q1177.63 1327.31 1183.74 1318.14 Q1189.9 1308.93 1201.52 1308.93 Z" fill="#000000" fill-rule="nonzero" fill-opacity="1" /><path clip-path="url(#clip530)" d="M1241.84 1367.54 L1251.61 1367.54 L1251.61 1379.3 L1241.84 1379.3 L1241.84 1367.54 Z" fill="#000000" fill-rule="nonzero" fill-opacity="1" /><path clip-path="url(#clip530)" d="M1272.07 1310.18 L1308.78 1310.18 L1308.78 1318.05 L1280.64 1318.05 L1280.64 1334.99 Q1282.67 1334.3 1284.71 1333.97 Q1286.75 1333.6 1288.78 1333.6 Q1300.36 1333.6 1307.12 1339.94 Q1313.88 1346.29 1313.88 1357.12 Q1313.88 1368.28 1306.93 1374.48 Q1299.99 1380.64 1287.35 1380.64 Q1283 1380.64 1278.46 1379.9 Q1273.97 1379.16 1269.15 1377.68 L1269.15 1368.28 Q1273.32 1370.55 1277.77 1371.66 Q1282.21 1372.77 1287.16 1372.77 Q1295.17 1372.77 1299.85 1368.56 Q1304.52 1364.34 1304.52 1357.12 Q1304.52 1349.9 1299.85 1345.68 Q1295.17 1341.47 1287.16 1341.47 Q1283.41 1341.47 1279.66 1342.31 Q1275.96 1343.14 1272.07 1344.9 L1272.07 1310.18 Z" fill="#000000" fill-rule="nonzero" fill-opacity="1" /><path clip-path="url(#clip530)" d="M1352.3 1316.33 Q1345.08 1316.33 1341.42 1323.46 Q1337.81 1330.55 1337.81 1344.81 Q1337.81 1359.02 1341.42 1366.15 Q1345.08 1373.23 1352.3 1373.23 Q1359.57 1373.23 1363.18 1366.15 Q1366.84 1359.02 1366.84 1344.81 Q1366.84 1330.55 1363.18 1323.46 Q1359.57 1316.33 1352.3 1316.33 M1352.3 1308.93 Q1363.92 1308.93 1370.03 1318.14 Q1376.19 1327.31 1376.19 1344.81 Q1376.19 1362.26 1370.03 1371.47 Q1363.92 1380.64 1352.3 1380.64 Q1340.68 1380.64 1334.52 1371.47 Q1328.41 1362.26 1328.41 1344.81 Q1328.41 1327.31 1334.52 1318.14 Q1340.68 1308.93 1352.3 1308.93 Z" fill="#000000" fill-rule="nonzero" fill-opacity="1" /><path clip-path="url(#clip530)" d="M1475.49 1316.33 Q1468.27 1316.33 1464.62 1323.46 Q1461 1330.55 1461 1344.81 Q1461 1359.02 1464.62 1366.15 Q1468.27 1373.23 1475.49 1373.23 Q1482.76 1373.23 1486.37 1366.15 Q1490.03 1359.02 1490.03 1344.81 Q1490.03 1330.55 1486.37 1323.46 Q1482.76 1316.33 1475.49 1316.33 M1475.49 1308.93 Q1487.12 1308.93 1493.23 1318.14 Q1499.38 1327.31 1499.38 1344.81 Q1499.38 1362.26 1493.23 1371.47 Q1487.12 1380.64 1475.49 1380.64 Q1463.87 1380.64 1457.72 1371.47 Q1451.61 1362.26 1451.61 1344.81 Q1451.61 1327.31 1457.72 1318.14 Q1463.87 1308.93 1475.49 1308.93 Z" fill="#000000" fill-rule="nonzero" fill-opacity="1" /><path clip-path="url(#clip530)" d="M1515.82 1367.54 L1525.59 1367.54 L1525.59 1379.3 L1515.82 1379.3 L1515.82 1367.54 Z" fill="#000000" fill-rule="nonzero" fill-opacity="1" /><path clip-path="url(#clip530)" d="M1543.6 1310.18 L1588.04 1310.18 L1588.04 1314.16 L1562.95 1379.3 L1553.18 1379.3 L1576.79 1318.05 L1543.6 1318.05 L1543.6 1310.18 Z" fill="#000000" fill-rule="nonzero" fill-opacity="1" /><path clip-path="url(#clip530)" d="M1606.37 1310.18 L1643.09 1310.18 L1643.09 1318.05 L1614.94 1318.05 L1614.94 1334.99 Q1616.98 1334.3 1619.01 1333.97 Q1621.05 1333.6 1623.09 1333.6 Q1634.66 1333.6 1641.42 1339.94 Q1648.18 1346.29 1648.18 1357.12 Q1648.18 1368.28 1641.23 1374.48 Q1634.29 1380.64 1621.65 1380.64 Q1617.3 1380.64 1612.76 1379.9 Q1608.27 1379.16 1603.46 1377.68 L1603.46 1368.28 Q1607.62 1370.55 1612.07 1371.66 Q1616.51 1372.77 1621.47 1372.77 Q1629.48 1372.77 1634.15 1368.56 Q1638.83 1364.34 1638.83 1357.12 Q1638.83 1349.9 1634.15 1345.68 Q1629.48 1341.47 1621.47 1341.47 Q1617.72 1341.47 1613.97 1342.31 Q1610.26 1343.14 1606.37 1344.9 L1606.37 1310.18 Z" fill="#000000" fill-rule="nonzero" fill-opacity="1" /><path clip-path="url(#clip530)" d="M1727.02 1371.43 L1742.3 1371.43 L1742.3 1318.69 L1725.68 1322.03 L1725.68 1313.51 L1742.21 1310.18 L1751.56 1310.18 L1751.56 1371.43 L1766.84 1371.43 L1766.84 1379.3 L1727.02 1379.3 L1727.02 1371.43 Z" fill="#000000" fill-rule="nonzero" fill-opacity="1" /><path clip-path="url(#clip530)" d="M1785.72 1367.54 L1795.49 1367.54 L1795.49 1379.3 L1785.72 1379.3 L1785.72 1367.54 Z" fill="#000000" fill-rule="nonzero" fill-opacity="1" /><path clip-path="url(#clip530)" d="M1835.86 1316.33 Q1828.64 1316.33 1824.98 1323.46 Q1821.37 1330.55 1821.37 1344.81 Q1821.37 1359.02 1824.98 1366.15 Q1828.64 1373.23 1835.86 1373.23 Q1843.13 1373.23 1846.74 1366.15 Q1850.4 1359.02 1850.4 1344.81 Q1850.4 1330.55 1846.74 1323.46 Q1843.13 1316.33 1835.86 1316.33 M1835.86 1308.93 Q1847.48 1308.93 1853.59 1318.14 Q1859.75 1327.31 1859.75 1344.81 Q1859.75 1362.26 1853.59 1371.47 Q1847.48 1380.64 1835.86 1380.64 Q1824.24 1380.64 1818.08 1371.47 Q1811.97 1362.26 1811.97 1344.81 Q1811.97 1327.31 1818.08 1318.14 Q1824.24 1308.93 1835.86 1308.93 Z" fill="#000000" fill-rule="nonzero" fill-opacity="1" /><path clip-path="url(#clip530)" d="M1896.19 1316.33 Q1888.96 1316.33 1885.31 1323.46 Q1881.7 1330.55 1881.7 1344.81 Q1881.7 1359.02 1885.31 1366.15 Q1888.96 1373.23 1896.19 1373.23 Q1903.45 1373.23 1907.07 1366.15 Q1910.72 1359.02 1910.72 1344.81 Q1910.72 1330.55 1907.07 1323.46 Q1903.45 1316.33 1896.19 1316.33 M1896.19 1308.93 Q1907.81 1308.93 1913.92 1318.14 Q1920.08 1327.31 1920.08 1344.81 Q1920.08 1362.26 1913.92 1371.47 Q1907.81 1380.64 1896.19 1380.64 Q1884.57 1380.64 1878.41 1371.47 Q1872.3 1362.26 1872.3 1344.81 Q1872.3 1327.31 1878.41 1318.14 Q1884.57 1308.93 1896.19 1308.93 Z" fill="#000000" fill-rule="nonzero" fill-opacity="1" /><path clip-path="url(#clip530)" d="M2001 1371.43 L2016.28 1371.43 L2016.28 1318.69 L1999.66 1322.03 L1999.66 1313.51 L2016.18 1310.18 L2025.54 1310.18 L2025.54 1371.43 L2040.81 1371.43 L2040.81 1379.3 L2001 1379.3 L2001 1371.43 Z" fill="#000000" fill-rule="nonzero" fill-opacity="1" /><path clip-path="url(#clip530)" d="M2059.7 1367.54 L2069.47 1367.54 L2069.47 1379.3 L2059.7 1379.3 L2059.7 1367.54 Z" fill="#000000" fill-rule="nonzero" fill-opacity="1" /><path clip-path="url(#clip530)" d="M2097.9 1371.43 L2130.54 1371.43 L2130.54 1379.3 L2086.65 1379.3 L2086.65 1371.43 Q2091.97 1365.92 2101.14 1356.66 Q2110.35 1347.35 2112.71 1344.67 Q2117.2 1339.62 2118.96 1336.15 Q2120.77 1332.63 2120.77 1329.25 Q2120.77 1323.74 2116.88 1320.27 Q2113.04 1316.8 2106.83 1316.8 Q2102.43 1316.8 2097.53 1318.32 Q2092.67 1319.85 2087.11 1322.95 L2087.11 1313.51 Q2092.76 1311.24 2097.67 1310.08 Q2102.57 1308.93 2106.65 1308.93 Q2117.39 1308.93 2123.78 1314.3 Q2130.17 1319.67 2130.17 1328.65 Q2130.17 1332.91 2128.55 1336.75 Q2126.97 1340.55 2122.76 1345.73 Q2121.6 1347.07 2115.4 1353.51 Q2109.19 1359.9 2097.9 1371.43 Z" fill="#000000" fill-rule="nonzero" fill-opacity="1" /><path clip-path="url(#clip530)" d="M2150.26 1310.18 L2186.97 1310.18 L2186.97 1318.05 L2158.82 1318.05 L2158.82 1334.99 Q2160.86 1334.3 2162.9 1333.97 Q2164.93 1333.6 2166.97 1333.6 Q2178.54 1333.6 2185.3 1339.94 Q2192.06 1346.29 2192.06 1357.12 Q2192.06 1368.28 2185.12 1374.48 Q2178.17 1380.64 2165.54 1380.64 Q2161.18 1380.64 2156.65 1379.9 Q2152.16 1379.16 2147.34 1377.68 L2147.34 1368.28 Q2151.51 1370.55 2155.95 1371.66 Q2160.4 1372.77 2165.35 1372.77 Q2173.36 1372.77 2178.04 1368.56 Q2182.71 1364.34 2182.71 1357.12 Q2182.71 1349.9 2178.04 1345.68 Q2173.36 1341.47 2165.35 1341.47 Q2161.6 1341.47 2157.85 1342.31 Q2154.15 1343.14 2150.26 1344.9 L2150.26 1310.18 Z" fill="#000000" fill-rule="nonzero" fill-opacity="1" /><path clip-path="url(#clip530)" d="M1380.84 1484.39 L1380.84 1527.42 L1369.13 1527.42 L1369.13 1484.77 Q1369.13 1474.65 1365.18 1469.62 Q1361.23 1464.59 1353.34 1464.59 Q1343.86 1464.59 1338.38 1470.64 Q1332.91 1476.69 1332.91 1487.13 L1332.91 1527.42 L1321.13 1527.42 L1321.13 1428.37 L1332.91 1428.37 L1332.91 1467.2 Q1337.11 1460.77 1342.77 1457.59 Q1348.5 1454.41 1355.95 1454.41 Q1368.24 1454.41 1374.54 1462.05 Q1380.84 1469.62 1380.84 1484.39 Z" fill="#000000" fill-rule="nonzero" fill-opacity="1" /><path clip-path="url(#clip530)" d="M1431.83 1464.34 Q1422.41 1464.34 1416.93 1471.72 Q1411.46 1479.04 1411.46 1491.84 Q1411.46 1504.63 1416.87 1512.02 Q1422.34 1519.34 1431.83 1519.34 Q1441.19 1519.34 1446.66 1511.96 Q1452.14 1504.57 1452.14 1491.84 Q1452.14 1479.17 1446.66 1471.79 Q1441.19 1464.34 1431.83 1464.34 M1431.83 1454.41 Q1447.11 1454.41 1455.83 1464.34 Q1464.55 1474.27 1464.55 1491.84 Q1464.55 1509.35 1455.83 1519.34 Q1447.11 1529.27 1431.83 1529.27 Q1416.49 1529.27 1407.77 1519.34 Q1399.11 1509.35 1399.11 1491.84 Q1399.11 1474.27 1407.77 1464.34 Q1416.49 1454.41 1431.83 1454.41 Z" fill="#000000" fill-rule="nonzero" fill-opacity="1" /><path clip-path="url(#clip530)" d="M1482.76 1499.29 L1482.76 1456.13 L1494.47 1456.13 L1494.47 1498.84 Q1494.47 1508.96 1498.42 1514.06 Q1502.36 1519.08 1510.26 1519.08 Q1519.74 1519.08 1525.21 1513.04 Q1530.75 1506.99 1530.75 1496.55 L1530.75 1456.13 L1542.47 1456.13 L1542.47 1527.42 L1530.75 1527.42 L1530.75 1516.47 Q1526.49 1522.97 1520.82 1526.15 Q1515.22 1529.27 1507.77 1529.27 Q1495.49 1529.27 1489.12 1521.63 Q1482.76 1513.99 1482.76 1499.29 M1512.23 1454.41 L1512.23 1454.41 Z" fill="#000000" fill-rule="nonzero" fill-opacity="1" /><path clip-path="url(#clip530)" d="M1607.91 1467.08 Q1605.93 1465.93 1603.58 1465.42 Q1601.28 1464.85 1598.48 1464.85 Q1588.55 1464.85 1583.21 1471.34 Q1577.92 1477.77 1577.92 1489.87 L1577.92 1527.42 L1566.15 1527.42 L1566.15 1456.13 L1577.92 1456.13 L1577.92 1467.2 Q1581.61 1460.71 1587.53 1457.59 Q1593.46 1454.41 1601.92 1454.41 Q1603.13 1454.41 1604.6 1454.6 Q1606.06 1454.73 1607.84 1455.05 L1607.91 1467.08 Z" fill="#000000" fill-rule="nonzero" fill-opacity="1" /><path clip-path="url(#clip530)" d="M1665.64 1458.23 L1665.64 1469.3 Q1660.68 1466.76 1655.33 1465.49 Q1649.98 1464.21 1644.25 1464.21 Q1635.53 1464.21 1631.14 1466.89 Q1626.81 1469.56 1626.81 1474.91 Q1626.81 1478.98 1629.93 1481.34 Q1633.05 1483.63 1642.47 1485.73 L1646.48 1486.62 Q1658.96 1489.29 1664.18 1494.19 Q1669.46 1499.03 1669.46 1507.75 Q1669.46 1517.68 1661.57 1523.48 Q1653.74 1529.27 1639.99 1529.27 Q1634.26 1529.27 1628.02 1528.12 Q1621.85 1527.04 1614.97 1524.81 L1614.97 1512.72 Q1621.46 1516.09 1627.77 1517.81 Q1634.07 1519.47 1640.24 1519.47 Q1648.52 1519.47 1652.97 1516.67 Q1657.43 1513.8 1657.43 1508.64 Q1657.43 1503.87 1654.18 1501.32 Q1651 1498.78 1640.12 1496.42 L1636.04 1495.47 Q1625.16 1493.18 1620.32 1488.47 Q1615.48 1483.69 1615.48 1475.42 Q1615.48 1465.36 1622.61 1459.88 Q1629.74 1454.41 1642.85 1454.41 Q1649.35 1454.41 1655.08 1455.36 Q1660.8 1456.32 1665.64 1458.23 Z" fill="#000000" fill-rule="nonzero" fill-opacity="1" /><polyline clip-path="url(#clip532)" style="stroke:#000000; stroke-linecap:round; stroke-linejoin:round; stroke-width:4; stroke-opacity:0.1; fill:none" points="685.08,1080.31 2305.51,1080.31 "/>
<polyline clip-path="url(#clip532)" style="stroke:#000000; stroke-linecap:round; stroke-linejoin:round; stroke-width:4; stroke-opacity:0.1; fill:none" points="685.08,834.503 2305.51,834.503 "/>
<polyline clip-path="url(#clip532)" style="stroke:#000000; stroke-linecap:round; stroke-linejoin:round; stroke-width:4; stroke-opacity:0.1; fill:none" points="685.08,588.695 2305.51,588.695 "/>
<polyline clip-path="url(#clip532)" style="stroke:#000000; stroke-linecap:round; stroke-linejoin:round; stroke-width:4; stroke-opacity:0.1; fill:none" points="685.08,342.888 2305.51,342.888 "/>
<polyline clip-path="url(#clip532)" style="stroke:#000000; stroke-linecap:round; stroke-linejoin:round; stroke-width:4; stroke-opacity:0.1; fill:none" points="685.08,97.0802 2305.51,97.0802 "/>
<polyline clip-path="url(#clip530)" style="stroke:#000000; stroke-linecap:round; stroke-linejoin:round; stroke-width:8; stroke-opacity:1; fill:none" points="685.08,1273.7 685.08,94.4882 "/>
<polyline clip-path="url(#clip530)" style="stroke:#000000; stroke-linecap:round; stroke-linejoin:round; stroke-width:8; stroke-opacity:1; fill:none" points="685.08,1080.31 703.978,1080.31 "/>
<polyline clip-path="url(#clip530)" style="stroke:#000000; stroke-linecap:round; stroke-linejoin:round; stroke-width:8; stroke-opacity:1; fill:none" points="685.08,834.503 703.978,834.503 "/>
<polyline clip-path="url(#clip530)" style="stroke:#000000; stroke-linecap:round; stroke-linejoin:round; stroke-width:8; stroke-opacity:1; fill:none" points="685.08,588.695 703.978,588.695 "/>
<polyline clip-path="url(#clip530)" style="stroke:#000000; stroke-linecap:round; stroke-linejoin:round; stroke-width:8; stroke-opacity:1; fill:none" points="685.08,342.888 703.978,342.888 "/>
<polyline clip-path="url(#clip530)" style="stroke:#000000; stroke-linecap:round; stroke-linejoin:round; stroke-width:8; stroke-opacity:1; fill:none" points="685.08,97.0802 703.978,97.0802 "/>
<path clip-path="url(#clip530)" d="M402.137 1107 L434.776 1107 L434.776 1114.87 L390.887 1114.87 L390.887 1107 Q396.211 1101.49 405.378 1092.23 Q414.59 1082.93 416.952 1080.24 Q421.442 1075.19 423.202 1071.72 Q425.007 1068.2 425.007 1064.82 Q425.007 1059.31 421.118 1055.84 Q417.276 1052.37 411.072 1052.37 Q406.674 1052.37 401.766 1053.9 Q396.905 1055.43 391.35 1058.53 L391.35 1049.08 Q396.998 1046.82 401.905 1045.66 Q406.813 1044.5 410.887 1044.5 Q421.627 1044.5 428.016 1049.87 Q434.405 1055.24 434.405 1064.22 Q434.405 1068.48 432.785 1072.32 Q431.211 1076.12 426.998 1081.31 Q425.84 1082.65 419.637 1089.08 Q413.433 1095.47 402.137 1107 Z" fill="#000000" fill-rule="nonzero" fill-opacity="1" /><path clip-path="url(#clip530)" d="M474.405 1051.91 Q467.183 1051.91 463.525 1059.04 Q459.914 1066.12 459.914 1080.38 Q459.914 1094.59 463.525 1101.72 Q467.183 1108.81 474.405 1108.81 Q481.673 1108.81 485.285 1101.72 Q488.942 1094.59 488.942 1080.38 Q488.942 1066.12 485.285 1059.04 Q481.673 1051.91 474.405 1051.91 M474.405 1044.5 Q486.025 1044.5 492.136 1053.71 Q498.294 1062.88 498.294 1080.38 Q498.294 1097.83 492.136 1107.05 Q486.025 1116.21 474.405 1116.21 Q462.785 1116.21 456.627 1107.05 Q450.516 1097.83 450.516 1080.38 Q450.516 1062.88 456.627 1053.71 Q462.785 1044.5 474.405 1044.5 Z" fill="#000000" fill-rule="nonzero" fill-opacity="1" /><path clip-path="url(#clip530)" d="M534.729 1051.91 Q527.507 1051.91 523.849 1059.04 Q520.238 1066.12 520.238 1080.38 Q520.238 1094.59 523.849 1101.72 Q527.507 1108.81 534.729 1108.81 Q541.997 1108.81 545.608 1101.72 Q549.266 1094.59 549.266 1080.38 Q549.266 1066.12 545.608 1059.04 Q541.997 1051.91 534.729 1051.91 M534.729 1044.5 Q546.349 1044.5 552.46 1053.71 Q558.618 1062.88 558.618 1080.38 Q558.618 1097.83 552.46 1107.05 Q546.349 1116.21 534.729 1116.21 Q523.108 1116.21 516.951 1107.05 Q510.84 1097.83 510.84 1080.38 Q510.84 1062.88 516.951 1053.71 Q523.108 1044.5 534.729 1044.5 Z" fill="#000000" fill-rule="nonzero" fill-opacity="1" /><path clip-path="url(#clip530)" d="M575.053 1103.11 L584.821 1103.11 L584.821 1114.87 L575.053 1114.87 L575.053 1103.11 Z" fill="#000000" fill-rule="nonzero" fill-opacity="1" /><path clip-path="url(#clip530)" d="M625.191 1051.91 Q617.969 1051.91 614.312 1059.04 Q610.701 1066.12 610.701 1080.38 Q610.701 1094.59 614.312 1101.72 Q617.969 1108.81 625.191 1108.81 Q632.46 1108.81 636.071 1101.72 Q639.728 1094.59 639.728 1080.38 Q639.728 1066.12 636.071 1059.04 Q632.46 1051.91 625.191 1051.91 M625.191 1044.5 Q636.812 1044.5 642.923 1053.71 Q649.08 1062.88 649.08 1080.38 Q649.08 1097.83 642.923 1107.05 Q636.812 1116.21 625.191 1116.21 Q613.571 1116.21 607.414 1107.05 Q601.302 1097.83 601.302 1080.38 Q601.302 1062.88 607.414 1053.71 Q613.571 1044.5 625.191 1044.5 Z" fill="#000000" fill-rule="nonzero" fill-opacity="1" /><path clip-path="url(#clip530)" d="M402.137 861.192 L434.776 861.192 L434.776 869.063 L390.887 869.063 L390.887 861.192 Q396.211 855.683 405.378 846.424 Q414.59 837.118 416.952 834.433 Q421.442 829.387 423.202 825.915 Q425.007 822.396 425.007 819.017 Q425.007 813.507 421.118 810.035 Q417.276 806.563 411.072 806.563 Q406.674 806.563 401.766 808.091 Q396.905 809.619 391.35 812.72 L391.35 803.276 Q396.998 801.008 401.905 799.85 Q406.813 798.693 410.887 798.693 Q421.627 798.693 428.016 804.063 Q434.405 809.433 434.405 818.415 Q434.405 822.674 432.785 826.517 Q431.211 830.313 426.998 835.498 Q425.84 836.841 419.637 843.276 Q413.433 849.665 402.137 861.192 Z" fill="#000000" fill-rule="nonzero" fill-opacity="1" /><path clip-path="url(#clip530)" d="M454.498 799.943 L491.21 799.943 L491.21 807.813 L463.062 807.813 L463.062 824.757 Q465.099 824.063 467.137 823.739 Q469.174 823.368 471.211 823.368 Q482.785 823.368 489.544 829.711 Q496.303 836.054 496.303 846.887 Q496.303 858.044 489.359 864.248 Q482.414 870.405 469.775 870.405 Q465.424 870.405 460.887 869.665 Q456.396 868.924 451.581 867.442 L451.581 858.044 Q455.748 860.313 460.192 861.424 Q464.637 862.535 469.59 862.535 Q477.599 862.535 482.275 858.322 Q486.951 854.109 486.951 846.887 Q486.951 839.665 482.275 835.452 Q477.599 831.239 469.59 831.239 Q465.84 831.239 462.09 832.072 Q458.387 832.905 454.498 834.665 L454.498 799.943 Z" fill="#000000" fill-rule="nonzero" fill-opacity="1" /><path clip-path="url(#clip530)" d="M534.729 806.1 Q527.507 806.1 523.849 813.23 Q520.238 820.313 520.238 834.572 Q520.238 848.785 523.849 855.915 Q527.507 862.998 534.729 862.998 Q541.997 862.998 545.608 855.915 Q549.266 848.785 549.266 834.572 Q549.266 820.313 545.608 813.23 Q541.997 806.1 534.729 806.1 M534.729 798.693 Q546.349 798.693 552.46 807.906 Q558.618 817.072 558.618 834.572 Q558.618 852.026 552.46 861.239 Q546.349 870.405 534.729 870.405 Q523.108 870.405 516.951 861.239 Q510.84 852.026 510.84 834.572 Q510.84 817.072 516.951 807.906 Q523.108 798.693 534.729 798.693 Z" fill="#000000" fill-rule="nonzero" fill-opacity="1" /><path clip-path="url(#clip530)" d="M575.053 857.303 L584.821 857.303 L584.821 869.063 L575.053 869.063 L575.053 857.303 Z" fill="#000000" fill-rule="nonzero" fill-opacity="1" /><path clip-path="url(#clip530)" d="M625.191 806.1 Q617.969 806.1 614.312 813.23 Q610.701 820.313 610.701 834.572 Q610.701 848.785 614.312 855.915 Q617.969 862.998 625.191 862.998 Q632.46 862.998 636.071 855.915 Q639.728 848.785 639.728 834.572 Q639.728 820.313 636.071 813.23 Q632.46 806.1 625.191 806.1 M625.191 798.693 Q636.812 798.693 642.923 807.906 Q649.08 817.072 649.08 834.572 Q649.08 852.026 642.923 861.239 Q636.812 870.405 625.191 870.405 Q613.571 870.405 607.414 861.239 Q601.302 852.026 601.302 834.572 Q601.302 817.072 607.414 807.906 Q613.571 798.693 625.191 798.693 Z" fill="#000000" fill-rule="nonzero" fill-opacity="1" /><path clip-path="url(#clip530)" d="M422.415 585.987 Q429.127 587.422 432.877 591.959 Q436.674 596.496 436.674 603.163 Q436.674 613.394 429.637 618.996 Q422.6 624.598 409.637 624.598 Q405.285 624.598 400.655 623.718 Q396.072 622.885 391.165 621.172 L391.165 612.144 Q395.054 614.413 399.683 615.57 Q404.313 616.727 409.359 616.727 Q418.155 616.727 422.739 613.255 Q427.368 609.783 427.368 603.163 Q427.368 597.052 423.063 593.626 Q418.803 590.154 411.165 590.154 L403.109 590.154 L403.109 582.468 L411.535 582.468 Q418.433 582.468 422.09 579.737 Q425.748 576.959 425.748 571.774 Q425.748 566.45 421.952 563.626 Q418.202 560.756 411.165 560.756 Q407.322 560.756 402.924 561.589 Q398.526 562.422 393.248 564.181 L393.248 555.848 Q398.572 554.367 403.202 553.626 Q407.878 552.885 411.998 552.885 Q422.646 552.885 428.85 557.746 Q435.053 562.561 435.053 570.802 Q435.053 576.542 431.766 580.524 Q428.479 584.459 422.415 585.987 Z" fill="#000000" fill-rule="nonzero" fill-opacity="1" /><path clip-path="url(#clip530)" d="M474.405 560.293 Q467.183 560.293 463.525 567.422 Q459.914 574.505 459.914 588.765 Q459.914 602.978 463.525 610.107 Q467.183 617.19 474.405 617.19 Q481.673 617.19 485.285 610.107 Q488.942 602.978 488.942 588.765 Q488.942 574.505 485.285 567.422 Q481.673 560.293 474.405 560.293 M474.405 552.885 Q486.025 552.885 492.136 562.098 Q498.294 571.265 498.294 588.765 Q498.294 606.218 492.136 615.431 Q486.025 624.598 474.405 624.598 Q462.785 624.598 456.627 615.431 Q450.516 606.218 450.516 588.765 Q450.516 571.265 456.627 562.098 Q462.785 552.885 474.405 552.885 Z" fill="#000000" fill-rule="nonzero" fill-opacity="1" /><path clip-path="url(#clip530)" d="M534.729 560.293 Q527.507 560.293 523.849 567.422 Q520.238 574.505 520.238 588.765 Q520.238 602.978 523.849 610.107 Q527.507 617.19 534.729 617.19 Q541.997 617.19 545.608 610.107 Q549.266 602.978 549.266 588.765 Q549.266 574.505 545.608 567.422 Q541.997 560.293 534.729 560.293 M534.729 552.885 Q546.349 552.885 552.46 562.098 Q558.618 571.265 558.618 588.765 Q558.618 606.218 552.46 615.431 Q546.349 624.598 534.729 624.598 Q523.108 624.598 516.951 615.431 Q510.84 606.218 510.84 588.765 Q510.84 571.265 516.951 562.098 Q523.108 552.885 534.729 552.885 Z" fill="#000000" fill-rule="nonzero" fill-opacity="1" /><path clip-path="url(#clip530)" d="M575.053 611.496 L584.821 611.496 L584.821 623.255 L575.053 623.255 L575.053 611.496 Z" fill="#000000" fill-rule="nonzero" fill-opacity="1" /><path clip-path="url(#clip530)" d="M625.191 560.293 Q617.969 560.293 614.312 567.422 Q610.701 574.505 610.701 588.765 Q610.701 602.978 614.312 610.107 Q617.969 617.19 625.191 617.19 Q632.46 617.19 636.071 610.107 Q639.728 602.978 639.728 588.765 Q639.728 574.505 636.071 567.422 Q632.46 560.293 625.191 560.293 M625.191 552.885 Q636.812 552.885 642.923 562.098 Q649.08 571.265 649.08 588.765 Q649.08 606.218 642.923 615.431 Q636.812 624.598 625.191 624.598 Q613.571 624.598 607.414 615.431 Q601.302 606.218 601.302 588.765 Q601.302 571.265 607.414 562.098 Q613.571 552.885 625.191 552.885 Z" fill="#000000" fill-rule="nonzero" fill-opacity="1" /><path clip-path="url(#clip530)" d="M422.415 340.179 Q429.127 341.615 432.877 346.152 Q436.674 350.689 436.674 357.355 Q436.674 367.587 429.637 373.188 Q422.6 378.79 409.637 378.79 Q405.285 378.79 400.655 377.911 Q396.072 377.077 391.165 375.364 L391.165 366.337 Q395.054 368.605 399.683 369.763 Q404.313 370.92 409.359 370.92 Q418.155 370.92 422.739 367.448 Q427.368 363.976 427.368 357.355 Q427.368 351.244 423.063 347.818 Q418.803 344.346 411.165 344.346 L403.109 344.346 L403.109 336.661 L411.535 336.661 Q418.433 336.661 422.09 333.929 Q425.748 331.152 425.748 325.966 Q425.748 320.642 421.952 317.818 Q418.202 314.948 411.165 314.948 Q407.322 314.948 402.924 315.781 Q398.526 316.615 393.248 318.374 L393.248 310.041 Q398.572 308.559 403.202 307.818 Q407.878 307.078 411.998 307.078 Q422.646 307.078 428.85 311.939 Q435.053 316.754 435.053 324.994 Q435.053 330.735 431.766 334.716 Q428.479 338.652 422.415 340.179 Z" fill="#000000" fill-rule="nonzero" fill-opacity="1" /><path clip-path="url(#clip530)" d="M454.498 308.328 L491.21 308.328 L491.21 316.198 L463.062 316.198 L463.062 333.142 Q465.099 332.448 467.137 332.124 Q469.174 331.753 471.211 331.753 Q482.785 331.753 489.544 338.096 Q496.303 344.439 496.303 355.272 Q496.303 366.429 489.359 372.633 Q482.414 378.79 469.775 378.79 Q465.424 378.79 460.887 378.05 Q456.396 377.309 451.581 375.827 L451.581 366.429 Q455.748 368.698 460.192 369.809 Q464.637 370.92 469.59 370.92 Q477.599 370.92 482.275 366.707 Q486.951 362.494 486.951 355.272 Q486.951 348.05 482.275 343.837 Q477.599 339.624 469.59 339.624 Q465.84 339.624 462.09 340.457 Q458.387 341.29 454.498 343.05 L454.498 308.328 Z" fill="#000000" fill-rule="nonzero" fill-opacity="1" /><path clip-path="url(#clip530)" d="M534.729 314.485 Q527.507 314.485 523.849 321.615 Q520.238 328.698 520.238 342.957 Q520.238 357.17 523.849 364.3 Q527.507 371.383 534.729 371.383 Q541.997 371.383 545.608 364.3 Q549.266 357.17 549.266 342.957 Q549.266 328.698 545.608 321.615 Q541.997 314.485 534.729 314.485 M534.729 307.078 Q546.349 307.078 552.46 316.291 Q558.618 325.457 558.618 342.957 Q558.618 360.411 552.46 369.624 Q546.349 378.79 534.729 378.79 Q523.108 378.79 516.951 369.624 Q510.84 360.411 510.84 342.957 Q510.84 325.457 516.951 316.291 Q523.108 307.078 534.729 307.078 Z" fill="#000000" fill-rule="nonzero" fill-opacity="1" /><path clip-path="url(#clip530)" d="M575.053 365.688 L584.821 365.688 L584.821 377.448 L575.053 377.448 L575.053 365.688 Z" fill="#000000" fill-rule="nonzero" fill-opacity="1" /><path clip-path="url(#clip530)" d="M625.191 314.485 Q617.969 314.485 614.312 321.615 Q610.701 328.698 610.701 342.957 Q610.701 357.17 614.312 364.3 Q617.969 371.383 625.191 371.383 Q632.46 371.383 636.071 364.3 Q639.728 357.17 639.728 342.957 Q639.728 328.698 636.071 321.615 Q632.46 314.485 625.191 314.485 M625.191 307.078 Q636.812 307.078 642.923 316.291 Q649.08 325.457 649.08 342.957 Q649.08 360.411 642.923 369.624 Q636.812 378.79 625.191 378.79 Q613.571 378.79 607.414 369.624 Q601.302 360.411 601.302 342.957 Q601.302 325.457 607.414 316.291 Q613.571 307.078 625.191 307.078 Z" fill="#000000" fill-rule="nonzero" fill-opacity="1" /><path clip-path="url(#clip530)" d="M419.776 70.6683 L396.165 107.566 L419.776 107.566 L419.776 70.6683 M417.322 62.5202 L429.081 62.5202 L429.081 107.566 L438.942 107.566 L438.942 115.344 L429.081 115.344 L429.081 131.64 L419.776 131.64 L419.776 115.344 L388.572 115.344 L388.572 106.316 L417.322 62.5202 Z" fill="#000000" fill-rule="nonzero" fill-opacity="1" /><path clip-path="url(#clip530)" d="M474.405 68.6776 Q467.183 68.6776 463.525 75.8071 Q459.914 82.8904 459.914 97.1496 Q459.914 111.363 463.525 118.492 Q467.183 125.575 474.405 125.575 Q481.673 125.575 485.285 118.492 Q488.942 111.363 488.942 97.1496 Q488.942 82.8904 485.285 75.8071 Q481.673 68.6776 474.405 68.6776 M474.405 61.2702 Q486.025 61.2702 492.136 70.4831 Q498.294 79.6497 498.294 97.1496 Q498.294 114.603 492.136 123.816 Q486.025 132.983 474.405 132.983 Q462.785 132.983 456.627 123.816 Q450.516 114.603 450.516 97.1496 Q450.516 79.6497 456.627 70.4831 Q462.785 61.2702 474.405 61.2702 Z" fill="#000000" fill-rule="nonzero" fill-opacity="1" /><path clip-path="url(#clip530)" d="M534.729 68.6776 Q527.507 68.6776 523.849 75.8071 Q520.238 82.8904 520.238 97.1496 Q520.238 111.363 523.849 118.492 Q527.507 125.575 534.729 125.575 Q541.997 125.575 545.608 118.492 Q549.266 111.363 549.266 97.1496 Q549.266 82.8904 545.608 75.8071 Q541.997 68.6776 534.729 68.6776 M534.729 61.2702 Q546.349 61.2702 552.46 70.4831 Q558.618 79.6497 558.618 97.1496 Q558.618 114.603 552.46 123.816 Q546.349 132.983 534.729 132.983 Q523.108 132.983 516.951 123.816 Q510.84 114.603 510.84 97.1496 Q510.84 79.6497 516.951 70.4831 Q523.108 61.2702 534.729 61.2702 Z" fill="#000000" fill-rule="nonzero" fill-opacity="1" /><path clip-path="url(#clip530)" d="M575.053 119.881 L584.821 119.881 L584.821 131.64 L575.053 131.64 L575.053 119.881 Z" fill="#000000" fill-rule="nonzero" fill-opacity="1" /><path clip-path="url(#clip530)" d="M625.191 68.6776 Q617.969 68.6776 614.312 75.8071 Q610.701 82.8904 610.701 97.1496 Q610.701 111.363 614.312 118.492 Q617.969 125.575 625.191 125.575 Q632.46 125.575 636.071 118.492 Q639.728 111.363 639.728 97.1496 Q639.728 82.8904 636.071 75.8071 Q632.46 68.6776 625.191 68.6776 M625.191 61.2702 Q636.812 61.2702 642.923 70.4831 Q649.08 79.6497 649.08 97.1496 Q649.08 114.603 642.923 123.816 Q636.812 132.983 625.191 132.983 Q613.571 132.983 607.414 123.816 Q601.302 114.603 601.302 97.1496 Q601.302 79.6497 607.414 70.4831 Q613.571 61.2702 625.191 61.2702 Z" fill="#000000" fill-rule="nonzero" fill-opacity="1" /><path clip-path="url(#clip530)" d="M255.501 1099.45 L266.45 1099.45 Q263.713 1104.42 262.376 1109.45 Q260.976 1114.41 260.976 1119.51 Q260.976 1130.9 268.233 1137.2 Q275.426 1143.51 288.476 1143.51 Q301.526 1143.51 308.782 1137.2 Q315.976 1130.9 315.976 1119.51 Q315.976 1114.41 314.639 1109.45 Q313.238 1104.42 310.501 1099.45 L321.323 1099.45 Q323.615 1104.36 324.76 1109.64 Q325.906 1114.86 325.906 1120.78 Q325.906 1136.88 315.785 1146.37 Q305.663 1155.85 288.476 1155.85 Q271.034 1155.85 261.04 1146.31 Q251.045 1136.69 251.045 1120.02 Q251.045 1114.6 252.191 1109.45 Q253.273 1104.29 255.501 1099.45 Z" fill="#000000" fill-rule="nonzero" fill-opacity="1" /><path clip-path="url(#clip530)" d="M260.976 1051.46 Q260.976 1060.88 268.36 1066.35 Q275.681 1071.83 288.476 1071.83 Q301.271 1071.83 308.655 1066.42 Q315.976 1060.94 315.976 1051.46 Q315.976 1042.1 308.591 1036.62 Q301.207 1031.15 288.476 1031.15 Q275.808 1031.15 268.424 1036.62 Q260.976 1042.1 260.976 1051.46 M251.045 1051.46 Q251.045 1036.18 260.976 1027.46 Q270.906 1018.74 288.476 1018.74 Q305.982 1018.74 315.976 1027.46 Q325.906 1036.18 325.906 1051.46 Q325.906 1066.8 315.976 1075.52 Q305.982 1084.18 288.476 1084.18 Q270.906 1084.18 260.976 1075.52 Q251.045 1066.8 251.045 1051.46 Z" fill="#000000" fill-rule="nonzero" fill-opacity="1" /><path clip-path="url(#clip530)" d="M281.028 940.057 L324.06 940.057 L324.06 951.77 L281.41 951.77 Q271.288 951.77 266.259 955.717 Q261.231 959.663 261.231 967.557 Q261.231 977.042 267.278 982.516 Q273.325 987.991 283.765 987.991 L324.06 987.991 L324.06 999.767 L252.764 999.767 L252.764 987.991 L263.841 987.991 Q257.411 983.789 254.228 978.124 Q251.045 972.395 251.045 964.947 Q251.045 952.661 258.684 946.359 Q266.259 940.057 281.028 940.057 Z" fill="#000000" fill-rule="nonzero" fill-opacity="1" /><path clip-path="url(#clip530)" d="M255.501 865.387 L266.45 865.387 Q263.713 870.353 262.376 875.381 Q260.976 880.347 260.976 885.439 Q260.976 896.834 268.233 903.136 Q275.426 909.438 288.476 909.438 Q301.526 909.438 308.782 903.136 Q315.976 896.834 315.976 885.439 Q315.976 880.347 314.639 875.381 Q313.238 870.353 310.501 865.387 L321.323 865.387 Q323.615 870.289 324.76 875.572 Q325.906 880.792 325.906 886.712 Q325.906 902.818 315.785 912.303 Q305.663 921.787 288.476 921.787 Q271.034 921.787 261.04 912.239 Q251.045 902.627 251.045 885.949 Q251.045 880.538 252.191 875.381 Q253.273 870.225 255.501 865.387 Z" fill="#000000" fill-rule="nonzero" fill-opacity="1" /><path clip-path="url(#clip530)" d="M307.891 843.362 L307.891 829.93 L324.06 829.93 L324.06 843.362 L307.891 843.362 Z" fill="#000000" fill-rule="nonzero" fill-opacity="1" /><path clip-path="url(#clip530)" d="M252.764 770.538 L252.764 758.125 L312.602 735.845 L252.764 713.565 L252.764 701.152 L324.06 727.888 L324.06 743.802 L252.764 770.538 Z" fill="#000000" fill-rule="nonzero" fill-opacity="1" /><path clip-path="url(#clip530)" d="M285.484 624 L291.213 624 L291.213 677.854 Q303.308 677.09 309.674 670.597 Q315.976 664.04 315.976 652.391 Q315.976 645.643 314.321 639.341 Q312.666 632.975 309.355 626.737 L320.432 626.737 Q323.105 633.039 324.506 639.659 Q325.906 646.28 325.906 653.091 Q325.906 670.151 315.976 680.145 Q306.045 690.076 289.112 690.076 Q271.607 690.076 261.358 680.654 Q251.045 671.17 251.045 655.128 Q251.045 640.742 260.339 632.402 Q269.57 624 285.484 624 M282.046 635.713 Q272.434 635.84 266.705 641.123 Q260.976 646.343 260.976 655.001 Q260.976 664.804 266.514 670.724 Q272.052 676.58 282.11 677.472 L282.046 635.713 Z" fill="#000000" fill-rule="nonzero" fill-opacity="1" /><path clip-path="url(#clip530)" d="M281.028 545.511 L324.06 545.511 L324.06 557.223 L281.41 557.223 Q271.288 557.223 266.259 561.17 Q261.231 565.117 261.231 573.01 Q261.231 582.495 267.278 587.97 Q273.325 593.444 283.765 593.444 L324.06 593.444 L324.06 605.221 L252.764 605.221 L252.764 593.444 L263.841 593.444 Q257.411 589.243 254.228 583.577 Q251.045 577.848 251.045 570.4 Q251.045 558.115 258.684 551.813 Q266.259 545.511 281.028 545.511 Z" fill="#000000" fill-rule="nonzero" fill-opacity="1" /><path clip-path="url(#clip530)" d="M232.521 510.563 L252.764 510.563 L252.764 486.437 L261.867 486.437 L261.867 510.563 L300.571 510.563 Q309.292 510.563 311.774 508.207 Q314.257 505.789 314.257 498.468 L314.257 486.437 L324.06 486.437 L324.06 498.468 Q324.06 512.027 319.031 517.183 Q313.939 522.339 300.571 522.339 L261.867 522.339 L261.867 530.933 L252.764 530.933 L252.764 522.339 L232.521 522.339 L232.521 510.563 Z" fill="#000000" fill-rule="nonzero" fill-opacity="1" /><path clip-path="url(#clip530)" d="M263.713 429.718 Q262.567 431.692 262.058 434.047 Q261.485 436.339 261.485 439.14 Q261.485 449.07 267.978 454.417 Q274.408 459.701 286.502 459.701 L324.06 459.701 L324.06 471.477 L252.764 471.477 L252.764 459.701 L263.841 459.701 Q257.348 456.009 254.228 450.089 Q251.045 444.168 251.045 435.702 Q251.045 434.493 251.236 433.028 Q251.364 431.564 251.682 429.782 L263.713 429.718 Z" fill="#000000" fill-rule="nonzero" fill-opacity="1" /><path clip-path="url(#clip530)" d="M252.764 417.433 L252.764 405.72 L324.06 405.72 L324.06 417.433 L252.764 417.433 M225.01 417.433 L225.01 405.72 L239.842 405.72 L239.842 417.433 L225.01 417.433 Z" fill="#000000" fill-rule="nonzero" fill-opacity="1" /><path clip-path="url(#clip530)" d="M255.501 329.904 L266.45 329.904 Q263.713 334.869 262.376 339.898 Q260.976 344.863 260.976 349.956 Q260.976 361.351 268.233 367.653 Q275.426 373.955 288.476 373.955 Q301.526 373.955 308.782 367.653 Q315.976 361.351 315.976 349.956 Q315.976 344.863 314.639 339.898 Q313.238 334.869 310.501 329.904 L321.323 329.904 Q323.615 334.806 324.76 340.089 Q325.906 345.309 325.906 351.229 Q325.906 367.334 315.785 376.819 Q305.663 386.304 288.476 386.304 Q271.034 386.304 261.04 376.756 Q251.045 367.143 251.045 350.465 Q251.045 345.054 252.191 339.898 Q253.273 334.742 255.501 329.904 Z" fill="#000000" fill-rule="nonzero" fill-opacity="1" /><path clip-path="url(#clip530)" d="M225.01 309.534 L225.01 297.821 L324.06 297.821 L324.06 309.534 L225.01 309.534 Z" fill="#000000" fill-rule="nonzero" fill-opacity="1" /><path clip-path="url(#clip530)" d="M285.484 212.329 L291.213 212.329 L291.213 266.183 Q303.308 265.419 309.674 258.926 Q315.976 252.37 315.976 240.721 Q315.976 233.973 314.321 227.671 Q312.666 221.305 309.355 215.067 L320.432 215.067 Q323.105 221.369 324.506 227.989 Q325.906 234.609 325.906 241.421 Q325.906 258.481 315.976 268.475 Q306.045 278.405 289.112 278.405 Q271.607 278.405 261.358 268.984 Q251.045 259.499 251.045 243.458 Q251.045 229.071 260.339 220.732 Q269.57 212.329 285.484 212.329 M282.046 224.042 Q272.434 224.17 266.705 229.453 Q260.976 234.673 260.976 243.33 Q260.976 253.134 266.514 259.054 Q272.052 264.91 282.11 265.801 L282.046 224.042 Z" fill="#000000" fill-rule="nonzero" fill-opacity="1" /><polyline clip-path="url(#clip532)" style="stroke:#008000; stroke-linecap:round; stroke-linejoin:round; stroke-width:8; stroke-opacity:1; fill:none" points="730.941,775.25 840.135,729.947 949.328,707.024 1058.52,625.935 1167.72,657.771 1276.91,768.054 1386.1,749.564 1495.3,808.857 1604.49,884.721 1713.68,930.232 1822.88,848.197 1932.07,1003.58 2041.26,1006.2 2150.46,1012.99 2259.65,1031.27 "/>
<circle clip-path="url(#clip532)" cx="730.941" cy="775.25" r="14.4" fill="#008000" fill-rule="evenodd" fill-opacity="1" stroke="#000000" stroke-opacity="1" stroke-width="6.4"/>
<circle clip-path="url(#clip532)" cx="840.135" cy="729.947" r="14.4" fill="#008000" fill-rule="evenodd" fill-opacity="1" stroke="#000000" stroke-opacity="1" stroke-width="6.4"/>
<circle clip-path="url(#clip532)" cx="949.328" cy="707.024" r="14.4" fill="#008000" fill-rule="evenodd" fill-opacity="1" stroke="#000000" stroke-opacity="1" stroke-width="6.4"/>
<circle clip-path="url(#clip532)" cx="1058.52" cy="625.935" r="14.4" fill="#008000" fill-rule="evenodd" fill-opacity="1" stroke="#000000" stroke-opacity="1" stroke-width="6.4"/>
<circle clip-path="url(#clip532)" cx="1167.72" cy="657.771" r="14.4" fill="#008000" fill-rule="evenodd" fill-opacity="1" stroke="#000000" stroke-opacity="1" stroke-width="6.4"/>
<circle clip-path="url(#clip532)" cx="1276.91" cy="768.054" r="14.4" fill="#008000" fill-rule="evenodd" fill-opacity="1" stroke="#000000" stroke-opacity="1" stroke-width="6.4"/>
<circle clip-path="url(#clip532)" cx="1386.1" cy="749.564" r="14.4" fill="#008000" fill-rule="evenodd" fill-opacity="1" stroke="#000000" stroke-opacity="1" stroke-width="6.4"/>
<circle clip-path="url(#clip532)" cx="1495.3" cy="808.857" r="14.4" fill="#008000" fill-rule="evenodd" fill-opacity="1" stroke="#000000" stroke-opacity="1" stroke-width="6.4"/>
<circle clip-path="url(#clip532)" cx="1604.49" cy="884.721" r="14.4" fill="#008000" fill-rule="evenodd" fill-opacity="1" stroke="#000000" stroke-opacity="1" stroke-width="6.4"/>
<circle clip-path="url(#clip532)" cx="1713.68" cy="930.232" r="14.4" fill="#008000" fill-rule="evenodd" fill-opacity="1" stroke="#000000" stroke-opacity="1" stroke-width="6.4"/>
<circle clip-path="url(#clip532)" cx="1822.88" cy="848.197" r="14.4" fill="#008000" fill-rule="evenodd" fill-opacity="1" stroke="#000000" stroke-opacity="1" stroke-width="6.4"/>
<circle clip-path="url(#clip532)" cx="1932.07" cy="1003.58" r="14.4" fill="#008000" fill-rule="evenodd" fill-opacity="1" stroke="#000000" stroke-opacity="1" stroke-width="6.4"/>
<circle clip-path="url(#clip532)" cx="2041.26" cy="1006.2" r="14.4" fill="#008000" fill-rule="evenodd" fill-opacity="1" stroke="#000000" stroke-opacity="1" stroke-width="6.4"/>
<circle clip-path="url(#clip532)" cx="2150.46" cy="1012.99" r="14.4" fill="#008000" fill-rule="evenodd" fill-opacity="1" stroke="#000000" stroke-opacity="1" stroke-width="6.4"/>
<circle clip-path="url(#clip532)" cx="2259.65" cy="1031.27" r="14.4" fill="#008000" fill-rule="evenodd" fill-opacity="1" stroke="#000000" stroke-opacity="1" stroke-width="6.4"/>
<polyline clip-path="url(#clip532)" style="stroke:#00008b; stroke-linecap:round; stroke-linejoin:round; stroke-width:8; stroke-opacity:1; fill:none" points="730.941,759.222 840.135,473.129 949.328,453.826 1058.52,406.348 1167.72,454.116 1276.91,412.393 1386.1,480.828 1495.3,500.478 1604.49,577.843 1713.68,627.23 1822.88,696.663 1932.07,667.783 2041.26,729.594 2150.46,810.653 2259.65,833.514 "/>
<path clip-path="url(#clip532)" d="M730.941 885.976 L840.135 694.993 L949.328 727.035 L1058.52 705.284 L1167.72 840.167 L1276.91 814.26 L1386.1 904.045 L1495.3 942.305 L1604.49 1009.08 L1713.68 1085.15 L1822.88 1138.11 L1932.07 1164.25 L2041.26 1176.53 L2150.46 1214.51 L2259.65 1240.32 L2259.65 501.043 L2150.46 458.784 L2041.26 424.576 L1932.07 287.784 L1822.88 318.483 L1713.68 263.705 L1604.49 192.166 L1495.3 139.268 L1386.1 167.628 L1276.91 127.862 L1167.72 175.716 L1058.52 147.002 L949.328 221.33 L840.135 321.18 L730.941 652.663  Z" fill="#0000ff" fill-rule="evenodd" fill-opacity="0.1"/>
<polyline clip-path="url(#clip532)" style="stroke:#0000ff; stroke-linecap:round; stroke-linejoin:round; stroke-width:0; stroke-opacity:0.1; fill:none" points="730.941,885.976 840.135,694.993 949.328,727.035 1058.52,705.284 1167.72,840.167 1276.91,814.26 1386.1,904.045 1495.3,942.305 1604.49,1009.08 1713.68,1085.15 1822.88,1138.11 1932.07,1164.25 2041.26,1176.53 2150.46,1214.51 2259.65,1240.32 "/>
</svg>
