<?xml version="1.0" encoding="utf-8"?>
<svg xmlns="http://www.w3.org/2000/svg" xmlns:xlink="http://www.w3.org/1999/xlink" width="600" height="400" viewBox="0 0 2400 1600">
<defs>
  <clipPath id="clip420">
    <rect x="0" y="0" width="2400" height="1600"/>
  </clipPath>
</defs>
<path clip-path="url(#clip420)" d="M0 1600 L2400 1600 L2400 0 L0 0  Z" fill="#ffffff" fill-rule="evenodd" fill-opacity="1"/>
<defs>
  <clipPath id="clip421">
    <rect x="480" y="0" width="1681" height="1600"/>
  </clipPath>
</defs>
<path clip-path="url(#clip420)" d="M685.08 1273.7 L2305.51 1273.7 L2305.51 94.4882 L685.08 94.4882  Z" fill="#ffffff" fill-rule="evenodd" fill-opacity="1"/>
<defs>
  <clipPath id="clip422">
    <rect x="685" y="94" width="1621" height="1180"/>
  </clipPath>
</defs>
<polyline clip-path="url(#clip422)" style="stroke:#000000; stroke-linecap:round; stroke-linejoin:round; stroke-width:4; stroke-opacity:0.1; fill:none" points="730.941,1273.7 730.941,94.4882 "/>
<polyline clip-path="url(#clip422)" style="stroke:#000000; stroke-linecap:round; stroke-linejoin:round; stroke-width:4; stroke-opacity:0.1; fill:none" points="1003.93,1273.7 1003.93,94.4882 "/>
<polyline clip-path="url(#clip422)" style="stroke:#000000; stroke-linecap:round; stroke-linejoin:round; stroke-width:4; stroke-opacity:0.1; fill:none" points="1276.91,1273.7 1276.91,94.4882 "/>
<polyline clip-path="url(#clip422)" style="stroke:#000000; stroke-linecap:round; stroke-linejoin:round; stroke-width:4; stroke-opacity:0.1; fill:none" points="1549.89,1273.7 1549.89,94.4882 "/>
<polyline clip-path="url(#clip422)" style="stroke:#000000; stroke-linecap:round; stroke-linejoin:round; stroke-width:4; stroke-opacity:0.1; fill:none" points="1822.88,1273.7 1822.88,94.4882 "/>
<polyline clip-path="url(#clip422)" style="stroke:#000000; stroke-linecap:round; stroke-linejoin:round; stroke-width:4; stroke-opacity:0.1; fill:none" points="2095.86,1273.7 2095.86,94.4882 "/>
<polyline clip-path="url(#clip420)" style="stroke:#000000; stroke-linecap:round; stroke-linejoin:round; stroke-width:8; stroke-opacity:1; fill:none" points="685.08,1273.7 2305.51,1273.7 "/>
<polyline clip-path="url(#clip420)" style="stroke:#000000; stroke-linecap:round; stroke-linejoin:round; stroke-width:8; stroke-opacity:1; fill:none" points="730.941,1273.7 730.941,1254.8 "/>
<polyline clip-path="url(#clip420)" style="stroke:#000000; stroke-linecap:round; stroke-linejoin:round; stroke-width:8; stroke-opacity:1; fill:none" points="1003.93,1273.7 1003.93,1254.8 "/>
<polyline clip-path="url(#clip420)" style="stroke:#000000; stroke-linecap:round; stroke-linejoin:round; stroke-width:8; stroke-opacity:1; fill:none" points="1276.91,1273.7 1276.91,1254.8 "/>
<polyline clip-path="url(#clip420)" style="stroke:#000000; stroke-linecap:round; stroke-linejoin:round; stroke-width:8; stroke-opacity:1; fill:none" points="1549.89,1273.7 1549.89,1254.8 "/>
<polyline clip-path="url(#clip420)" style="stroke:#000000; stroke-linecap:round; stroke-linejoin:round; stroke-width:8; stroke-opacity:1; fill:none" points="1822.88,1273.7 1822.88,1254.8 "/>
<polyline clip-path="url(#clip420)" style="stroke:#000000; stroke-linecap:round; stroke-linejoin:round; stroke-width:8; stroke-opacity:1; fill:none" points="2095.86,1273.7 2095.86,1254.8 "/>
<path clip-path="url(#clip420)" d="M655.548 1316.33 Q648.326 1316.33 644.669 1323.46 Q641.057 1330.55 641.057 1344.81 Q641.057 1359.02 644.669 1366.15 Q648.326 1373.23 655.548 1373.23 Q662.817 1373.23 666.428 1366.15 Q670.085 1359.02 670.085 1344.81 Q670.085 1330.55 666.428 1323.46 Q662.817 1316.33 655.548 1316.33 M655.548 1308.93 Q667.168 1308.93 673.28 1318.14 Q679.437 1327.31 679.437 1344.81 Q679.437 1362.26 673.28 1371.47 Q667.168 1380.64 655.548 1380.64 Q643.928 1380.64 637.77 1371.47 Q631.659 1362.26 631.659 1344.81 Q631.659 1327.31 637.77 1318.14 Q643.928 1308.93 655.548 1308.93 Z" fill="#000000" fill-rule="nonzero" fill-opacity="1" /><path clip-path="url(#clip420)" d="M695.872 1367.54 L705.64 1367.54 L705.64 1379.3 L695.872 1379.3 L695.872 1367.54 Z" fill="#000000" fill-rule="nonzero" fill-opacity="1" /><path clip-path="url(#clip420)" d="M746.011 1316.33 Q738.788 1316.33 735.131 1323.46 Q731.52 1330.55 731.52 1344.81 Q731.52 1359.02 735.131 1366.15 Q738.788 1373.23 746.011 1373.23 Q753.279 1373.23 756.89 1366.15 Q760.548 1359.02 760.548 1344.81 Q760.548 1330.55 756.89 1323.46 Q753.279 1316.33 746.011 1316.33 M746.011 1308.93 Q757.631 1308.93 763.742 1318.14 Q769.899 1327.31 769.899 1344.81 Q769.899 1362.26 763.742 1371.47 Q757.631 1380.64 746.011 1380.64 Q734.39 1380.64 728.233 1371.47 Q722.122 1362.26 722.122 1344.81 Q722.122 1327.31 728.233 1318.14 Q734.39 1308.93 746.011 1308.93 Z" fill="#000000" fill-rule="nonzero" fill-opacity="1" /><path clip-path="url(#clip420)" d="M806.334 1316.33 Q799.112 1316.33 795.455 1323.46 Q791.844 1330.55 791.844 1344.81 Q791.844 1359.02 795.455 1366.15 Q799.112 1373.23 806.334 1373.23 Q813.603 1373.23 817.214 1366.15 Q820.871 1359.02 820.871 1344.81 Q820.871 1330.55 817.214 1323.46 Q813.603 1316.33 806.334 1316.33 M806.334 1308.93 Q817.955 1308.93 824.066 1318.14 Q830.223 1327.31 830.223 1344.81 Q830.223 1362.26 824.066 1371.47 Q817.955 1380.64 806.334 1380.64 Q794.714 1380.64 788.557 1371.47 Q782.446 1362.26 782.446 1344.81 Q782.446 1327.31 788.557 1318.14 Q794.714 1308.93 806.334 1308.93 Z" fill="#000000" fill-rule="nonzero" fill-opacity="1" /><path clip-path="url(#clip420)" d="M929.527 1316.33 Q922.305 1316.33 918.648 1323.46 Q915.037 1330.55 915.037 1344.81 Q915.037 1359.02 918.648 1366.15 Q922.305 1373.23 929.527 1373.23 Q936.796 1373.23 940.407 1366.15 Q944.064 1359.02 944.064 1344.81 Q944.064 1330.55 940.407 1323.46 Q936.796 1316.33 929.527 1316.33 M929.527 1308.93 Q941.148 1308.93 947.259 1318.14 Q953.416 1327.31 953.416 1344.81 Q953.416 1362.26 947.259 1371.47 Q941.148 1380.64 929.527 1380.64 Q917.907 1380.64 911.75 1371.47 Q905.639 1362.26 905.639 1344.81 Q905.639 1327.31 911.75 1318.14 Q917.907 1308.93 929.527 1308.93 Z" fill="#000000" fill-rule="nonzero" fill-opacity="1" /><path clip-path="url(#clip420)" d="M969.851 1367.54 L979.62 1367.54 L979.62 1379.3 L969.851 1379.3 L969.851 1367.54 Z" fill="#000000" fill-rule="nonzero" fill-opacity="1" /><path clip-path="url(#clip420)" d="M1008.05 1371.43 L1040.68 1371.43 L1040.68 1379.3 L996.795 1379.3 L996.795 1371.43 Q1002.12 1365.92 1011.29 1356.66 Q1020.5 1347.35 1022.86 1344.67 Q1027.35 1339.62 1029.11 1336.15 Q1030.92 1332.63 1030.92 1329.25 Q1030.92 1323.74 1027.03 1320.27 Q1023.18 1316.8 1016.98 1316.8 Q1012.58 1316.8 1007.68 1318.32 Q1002.81 1319.85 997.258 1322.95 L997.258 1313.51 Q1002.91 1311.24 1007.81 1310.08 Q1012.72 1308.93 1016.8 1308.93 Q1027.54 1308.93 1033.92 1314.3 Q1040.31 1319.67 1040.31 1328.65 Q1040.31 1332.91 1038.69 1336.75 Q1037.12 1340.55 1032.91 1345.73 Q1031.75 1347.07 1025.55 1353.51 Q1019.34 1359.9 1008.05 1371.43 Z" fill="#000000" fill-rule="nonzero" fill-opacity="1" /><path clip-path="url(#clip420)" d="M1060.41 1310.18 L1097.12 1310.18 L1097.12 1318.05 L1068.97 1318.05 L1068.97 1334.99 Q1071.01 1334.3 1073.05 1333.97 Q1075.08 1333.6 1077.12 1333.6 Q1088.69 1333.6 1095.45 1339.94 Q1102.21 1346.29 1102.21 1357.12 Q1102.21 1368.28 1095.27 1374.48 Q1088.32 1380.64 1075.68 1380.64 Q1071.33 1380.64 1066.8 1379.9 Q1062.3 1379.16 1057.49 1377.68 L1057.49 1368.28 Q1061.66 1370.55 1066.1 1371.66 Q1070.55 1372.77 1075.5 1372.77 Q1083.51 1372.77 1088.18 1368.56 Q1092.86 1364.34 1092.86 1357.12 Q1092.86 1349.9 1088.18 1345.68 Q1083.51 1341.47 1075.5 1341.47 Q1071.75 1341.47 1068 1342.31 Q1064.3 1343.14 1060.41 1344.9 L1060.41 1310.18 Z" fill="#000000" fill-rule="nonzero" fill-opacity="1" /><path clip-path="url(#clip420)" d="M1201.52 1316.33 Q1194.29 1316.33 1190.64 1323.46 Q1187.03 1330.55 1187.03 1344.81 Q1187.03 1359.02 1190.64 1366.15 Q1194.29 1373.23 1201.52 1373.23 Q1208.78 1373.23 1212.4 1366.15 Q1216.05 1359.02 1216.05 1344.81 Q1216.05 1330.55 1212.4 1323.46 Q1208.78 1316.33 1201.52 1316.33 M1201.52 1308.93 Q1213.14 1308.93 1219.25 1318.14 Q1225.4 1327.31 1225.4 1344.81 Q1225.4 1362.26 1219.25 1371.47 Q1213.14 1380.64 1201.52 1380.64 Q1189.9 1380.64 1183.74 1371.47 Q1177.63 1362.26 1177.63 1344.81 Q1177.63 1327.31 1183.74 1318.14 Q1189.9 1308.93 1201.52 1308.93 Z" fill="#000000" fill-rule="nonzero" fill-opacity="1" /><path clip-path="url(#clip420)" d="M1241.84 1367.54 L1251.61 1367.54 L1251.61 1379.3 L1241.84 1379.3 L1241.84 1367.54 Z" fill="#000000" fill-rule="nonzero" fill-opacity="1" /><path clip-path="url(#clip420)" d="M1272.07 1310.18 L1308.78 1310.18 L1308.78 1318.05 L1280.64 1318.05 L1280.64 1334.99 Q1282.67 1334.3 1284.71 1333.97 Q1286.75 1333.6 1288.78 1333.6 Q1300.36 1333.6 1307.12 1339.94 Q1313.88 1346.29 1313.88 1357.12 Q1313.88 1368.28 1306.93 1374.48 Q1299.99 1380.64 1287.35 1380.64 Q1283 1380.64 1278.46 1379.9 Q1273.97 1379.16 1269.15 1377.68 L1269.15 1368.28 Q1273.32 1370.55 1277.77 1371.66 Q1282.21 1372.77 1287.16 1372.77 Q1295.17 1372.77 1299.85 1368.56 Q1304.52 1364.34 1304.52 1357.12 Q1304.52 1349.9 1299.85 1345.68 Q1295.17 1341.47 1287.16 1341.47 Q1283.41 1341.47 1279.66 1342.31 Q1275.96 1343.14 1272.07 1344.9 L1272.07 1310.18 Z" fill="#000000" fill-rule="nonzero" fill-opacity="1" /><path clip-path="url(#clip420)" d="M1352.3 1316.33 Q1345.08 1316.33 1341.42 1323.46 Q1337.81 1330.55 1337.81 1344.81 Q1337.81 1359.02 1341.42 1366.15 Q1345.08 1373.23 1352.3 1373.23 Q1359.57 1373.23 1363.18 1366.15 Q1366.84 1359.02 1366.84 1344.81 Q1366.84 1330.55 1363.18 1323.46 Q1359.57 1316.33 1352.3 1316.33 M1352.3 1308.93 Q1363.92 1308.93 1370.03 1318.14 Q1376.19 1327.31 1376.19 1344.81 Q1376.19 1362.26 1370.03 1371.47 Q1363.92 1380.64 1352.3 1380.64 Q1340.68 1380.64 1334.52 1371.47 Q1328.41 1362.26 1328.41 1344.81 Q1328.41 1327.31 1334.52 1318.14 Q1340.68 1308.93 1352.3 1308.93 Z" fill="#000000" fill-rule="nonzero" fill-opacity="1" /><path clip-path="url(#clip420)" d="M1475.49 1316.33 Q1468.27 1316.33 1464.62 1323.46 Q1461 1330.55 1461 1344.81 Q1461 1359.02 1464.62 1366.15 Q1468.27 1373.23 1475.49 1373.23 Q1482.76 1373.23 1486.37 1366.15 Q1490.03 1359.02 1490.03 1344.81 Q1490.03 1330.55 1486.37 1323.46 Q1482.76 1316.33 1475.49 1316.33 M1475.49 1308.93 Q1487.12 1308.93 1493.23 1318.14 Q1499.38 1327.31 1499.38 1344.81 Q1499.38 1362.26 1493.23 1371.47 Q1487.12 1380.64 1475.49 1380.64 Q1463.87 1380.64 1457.72 1371.47 Q1451.61 1362.26 1451.61 1344.81 Q1451.61 1327.31 1457.72 1318.14 Q1463.87 1308.93 1475.49 1308.93 Z" fill="#000000" fill-rule="nonzero" fill-opacity="1" /><path clip-path="url(#clip420)" d="M1515.82 1367.54 L1525.59 1367.54 L1525.59 1379.3 L1515.82 1379.3 L1515.82 1367.54 Z" fill="#000000" fill-rule="nonzero" fill-opacity="1" /><path clip-path="url(#clip420)" d="M1543.6 1310.18 L1588.04 1310.18 L1588.04 1314.16 L1562.95 1379.3 L1553.18 1379.3 L1576.79 1318.05 L1543.6 1318.05 L1543.6 1310.18 Z" fill="#000000" fill-rule="nonzero" fill-opacity="1" /><path clip-path="url(#clip420)" d="M1606.37 1310.18 L1643.09 1310.18 L1643.09 1318.05 L1614.94 1318.05 L1614.94 1334.99 Q1616.98 1334.3 1619.01 1333.97 Q1621.05 1333.6 1623.09 1333.6 Q1634.66 1333.6 1641.42 1339.94 Q1648.18 1346.29 1648.18 1357.12 Q1648.18 1368.28 1641.23 1374.48 Q1634.29 1380.64 1621.65 1380.64 Q1617.3 1380.64 1612.76 1379.9 Q1608.27 1379.16 1603.46 1377.68 L1603.46 1368.28 Q1607.62 1370.55 1612.07 1371.66 Q1616.51 1372.77 1621.47 1372.77 Q1629.48 1372.77 1634.15 1368.56 Q1638.83 1364.34 1638.83 1357.12 Q1638.83 1349.9 1634.15 1345.68 Q1629.48 1341.47 1621.47 1341.47 Q1617.72 1341.47 1613.97 1342.31 Q1610.26 1343.14 1606.37 1344.9 L1606.37 1310.18 Z" fill="#000000" fill-rule="nonzero" fill-opacity="1" /><path clip-path="url(#clip420)" d="M1727.02 1371.43 L1742.3 1371.43 L1742.3 1318.69 L1725.68 1322.03 L1725.68 1313.51 L1742.21 1310.18 L1751.56 1310.18 L1751.56 1371.43 L1766.84 1371.43 L1766.84 1379.3 L1727.02 1379.3 L1727.02 1371.43 Z" fill="#000000" fill-rule="nonzero" fill-opacity="1" /><path clip-path="url(#clip420)" d="M1785.72 1367.54 L1795.49 1367.54 L1795.49 1379.3 L1785.72 1379.3 L1785.72 1367.54 Z" fill="#000000" fill-rule="nonzero" fill-opacity="1" /><path clip-path="url(#clip420)" d="M1835.86 1316.33 Q1828.64 1316.33 1824.98 1323.46 Q1821.37 1330.55 1821.37 1344.81 Q1821.37 1359.02 1824.98 1366.15 Q1828.64 1373.23 1835.86 1373.23 Q1843.13 1373.23 1846.74 1366.15 Q1850.4 1359.02 1850.4 1344.81 Q1850.4 1330.55 1846.74 1323.46 Q1843.13 1316.33 1835.86 1316.33 M1835.86 1308.93 Q1847.48 1308.93 1853.59 1318.14 Q1859.75 1327.31 1859.75 1344.81 Q1859.75 1362.26 1853.59 1371.47 Q1847.48 1380.64 1835.86 1380.64 Q1824.24 1380.64 1818.08 1371.47 Q1811.97 1362.26 1811.97 1344.81 Q1811.97 1327.31 1818.08 1318.14 Q1824.24 1308.93 1835.86 1308.93 Z" fill="#000000" fill-rule="nonzero" fill-opacity="1" /><path clip-path="url(#clip420)" d="M1896.19 1316.33 Q1888.96 1316.33 1885.31 1323.46 Q1881.7 1330.55 1881.7 1344.81 Q1881.7 1359.02 1885.31 1366.15 Q1888.96 1373.23 1896.19 1373.23 Q1903.45 1373.23 1907.07 1366.15 Q1910.72 1359.02 1910.72 1344.81 Q1910.72 1330.55 1907.07 1323.46 Q1903.45 1316.33 1896.19 1316.33 M1896.19 1308.93 Q1907.81 1308.93 1913.92 1318.14 Q1920.08 1327.31 1920.08 1344.81 Q1920.08 1362.26 1913.92 1371.47 Q1907.81 1380.64 1896.19 1380.64 Q1884.57 1380.64 1878.41 1371.47 Q1872.3 1362.26 1872.3 1344.81 Q1872.3 1327.31 1878.41 1318.14 Q1884.57 1308.93 1896.19 1308.93 Z" fill="#000000" fill-rule="nonzero" fill-opacity="1" /><path clip-path="url(#clip420)" d="M2001 1371.43 L2016.28 1371.43 L2016.28 1318.69 L1999.66 1322.03 L1999.66 1313.51 L2016.18 1310.18 L2025.54 1310.18 L2025.54 1371.43 L2040.81 1371.43 L2040.81 1379.3 L2001 1379.3 L2001 1371.43 Z" fill="#000000" fill-rule="nonzero" fill-opacity="1" /><path clip-path="url(#clip420)" d="M2059.7 1367.54 L2069.47 1367.54 L2069.47 1379.3 L2059.7 1379.3 L2059.7 1367.54 Z" fill="#000000" fill-rule="nonzero" fill-opacity="1" /><path clip-path="url(#clip420)" d="M2097.9 1371.43 L2130.54 1371.43 L2130.54 1379.3 L2086.65 1379.3 L2086.65 1371.43 Q2091.97 1365.92 2101.14 1356.66 Q2110.35 1347.35 2112.71 1344.67 Q2117.2 1339.62 2118.96 1336.15 Q2120.77 1332.63 2120.77 1329.25 Q2120.77 1323.74 2116.88 1320.27 Q2113.04 1316.8 2106.83 1316.8 Q2102.43 1316.8 2097.53 1318.32 Q2092.67 1319.85 2087.11 1322.95 L2087.11 1313.51 Q2092.76 1311.24 2097.67 1310.08 Q2102.57 1308.93 2106.65 1308.93 Q2117.39 1308.93 2123.78 1314.3 Q2130.17 1319.67 2130.17 1328.65 Q2130.17 1332.91 2128.55 1336.75 Q2126.97 1340.55 2122.76 1345.73 Q2121.6 1347.07 2115.4 1353.51 Q2109.19 1359.9 2097.9 1371.43 Z" fill="#000000" fill-rule="nonzero" fill-opacity="1" /><path clip-path="url(#clip420)" d="M2150.26 1310.18 L2186.97 1310.18 L2186.97 1318.05 L2158.82 1318.05 L2158.82 1334.99 Q2160.86 1334.3 2162.9 1333.97 Q2164.93 1333.6 2166.97 1333.6 Q2178.54 1333.6 2185.3 1339.94 Q2192.06 1346.29 2192.06 1357.12 Q2192.06 1368.28 2185.12 1374.48 Q2178.17 1380.64 2165.54 1380.64 Q2161.18 1380.64 2156.65 1379.9 Q2152.16 1379.16 2147.34 1377.68 L2147.34 1368.28 Q2151.51 1370.55 2155.95 1371.66 Q2160.4 1372.77 2165.35 1372.77 Q2173.36 1372.77 2178.04 1368.56 Q2182.71 1364.34 2182.71 1357.12 Q2182.71 1349.9 2178.04 1345.68 Q2173.36 1341.47 2165.35 1341.47 Q2161.6 1341.47 2157.85 1342.31 Q2154.15 1343.14 2150.26 1344.9 L2150.26 1310.18 Z" fill="#000000" fill-rule="nonzero" fill-opacity="1" /><path clip-path="url(#clip420)" d="M1380.84 1484.39 L1380.84 1527.42 L1369.13 1527.42 L1369.13 1484.77 Q1369.13 1474.65 1365.18 1469.62 Q1361.23 1464.59 1353.34 1464.59 Q1343.86 1464.59 1338.38 1470.64 Q1332.91 1476.69 1332.91 1487.13 L1332.91 1527.42 L1321.13 1527.42 L1321.13 1428.37 L1332.91 1428.37 L1332.91 1467.2 Q1337.11 1460.77 1342.77 1457.59 Q1348.5 1454.41 1355.95 1454.41 Q1368.24 1454.41 1374.54 1462.05 Q1380.84 1469.62 1380.84 1484.39 Z" fill="#000000" fill-rule="nonzero" fill-opacity="1" /><path clip-path="url(#clip420)" d="M1431.83 1464.34 Q1422.41 1464.34 1416.93 1471.72 Q1411.46 1479.04 1411.46 1491.84 Q1411.46 1504.63 1416.87 1512.02 Q1422.34 1519.34 1431.83 1519.34 Q1441.19 1519.34 1446.66 1511.96 Q1452.14 1504.57 1452.14 1491.84 Q1452.14 1479.17 1446.66 1471.79 Q1441.19 1464.34 1431.83 1464.34 M1431.83 1454.41 Q1447.11 1454.41 1455.83 1464.34 Q1464.55 1474.27 1464.55 1491.84 Q1464.55 1509.35 1455.83 1519.34 Q1447.11 1529.27 1431.83 1529.27 Q1416.49 1529.27 1407.77 1519.34 Q1399.11 1509.35 1399.11 1491.84 Q1399.11 1474.27 1407.77 1464.34 Q1416.49 1454.41 1431.83 1454.41 Z" fill="#000000" fill-rule="nonzero" fill-opacity="1" /><path clip-path="url(#clip420)" d="M1482.76 1499.29 L1482.76 1456.13 L1494.47 1456.13 L1494.47 1498.84 Q1494.47 1508.96 1498.42 1514.06 Q1502.36 1519.08 1510.26 1519.08 Q1519.74 1519.08 1525.21 1513.04 Q1530.75 1506.99 1530.75 1496.55 L1530.75 1456.13 L1542.47 1456.13 L1542.47 1527.42 L1530.75 1527.42 L1530.75 1516.47 Q1526.49 1522.97 1520.82 1526.15 Q1515.22 1529.27 1507.77 1529.27 Q1495.49 1529.27 1489.12 1521.63 Q1482.76 1513.99 1482.76 1499.29 M1512.23 1454.41 L1512.23 1454.41 Z" fill="#000000" fill-rule="nonzero" fill-opacity="1" /><path clip-path="url(#clip420)" d="M1607.91 1467.08 Q1605.93 1465.93 1603.58 1465.42 Q1601.28 1464.85 1598.48 1464.85 Q1588.55 1464.85 1583.21 1471.34 Q1577.92 1477.77 1577.92 1489.87 L1577.92 1527.42 L1566.15 1527.42 L1566.15 1456.13 L1577.92 1456.13 L1577.92 1467.2 Q1581.61 1460.71 1587.53 1457.59 Q1593.46 1454.41 1601.92 1454.41 Q1603.13 1454.41 1604.6 1454.6 Q1606.06 1454.73 1607.84 1455.05 L1607.91 1467.08 Z" fill="#000000" fill-rule="nonzero" fill-opacity="1" /><path clip-path="url(#clip420)" d="M1665.64 1458.23 L1665.64 1469.3 Q1660.68 1466.76 1655.33 1465.49 Q1649.98 1464.21 1644.25 1464.21 Q1635.53 1464.21 1631.14 1466.89 Q1626.81 1469.56 1626.81 1474.91 Q1626.81 1478.98 1629.93 1481.34 Q1633.05 1483.63 1642.47 1485.73 L1646.48 1486.62 Q1658.96 1489.29 1664.18 1494.19 Q1669.46 1499.03 1669.46 1507.75 Q1669.46 1517.68 1661.57 1523.48 Q1653.74 1529.27 1639.99 1529.27 Q1634.26 1529.27 1628.02 1528.12 Q1621.85 1527.04 1614.97 1524.81 L1614.97 1512.72 Q1621.46 1516.09 1627.77 1517.81 Q1634.07 1519.47 1640.24 1519.47 Q1648.52 1519.47 1652.97 1516.67 Q1657.43 1513.8 1657.43 1508.64 Q1657.43 1503.87 1654.18 1501.32 Q1651 1498.78 1640.12 1496.42 L1636.04 1495.47 Q1625.16 1493.18 1620.32 1488.47 Q1615.48 1483.69 1615.48 1475.42 Q1615.48 1465.36 1622.61 1459.88 Q1629.74 1454.41 1642.85 1454.41 Q1649.35 1454.41 1655.08 1455.36 Q1660.8 1456.32 1665.64 1458.23 Z" fill="#000000" fill-rule="nonzero" fill-opacity="1" /><polyline clip-path="url(#clip422)" style="stroke:#000000; stroke-linecap:round; stroke-linejoin:round; stroke-width:4; stroke-opacity:0.1; fill:none" points="685.08,1004.48 2305.51,1004.48 "/>
<polyline clip-path="url(#clip422)" style="stroke:#000000; stroke-linecap:round; stroke-linejoin:round; stroke-width:4; stroke-opacity:0.1; fill:none" points="685.08,729.294 2305.51,729.294 "/>
<polyline clip-path="url(#clip422)" style="stroke:#000000; stroke-linecap:round; stroke-linejoin:round; stroke-width:4; stroke-opacity:0.1; fill:none" points="685.08,454.108 2305.51,454.108 "/>
<polyline clip-path="url(#clip422)" style="stroke:#000000; stroke-linecap:round; stroke-linejoin:round; stroke-width:4; stroke-opacity:0.1; fill:none" points="685.08,178.922 2305.51,178.922 "/>
<polyline clip-path="url(#clip420)" style="stroke:#000000; stroke-linecap:round; stroke-linejoin:round; stroke-width:8; stroke-opacity:1; fill:none" points="685.08,1273.7 685.08,94.4882 "/>
<polyline clip-path="url(#clip420)" style="stroke:#000000; stroke-linecap:round; stroke-linejoin:round; stroke-width:8; stroke-opacity:1; fill:none" points="685.08,1004.48 703.978,1004.48 "/>
<polyline clip-path="url(#clip420)" style="stroke:#000000; stroke-linecap:round; stroke-linejoin:round; stroke-width:8; stroke-opacity:1; fill:none" points="685.08,729.294 703.978,729.294 "/>
<polyline clip-path="url(#clip420)" style="stroke:#000000; stroke-linecap:round; stroke-linejoin:round; stroke-width:8; stroke-opacity:1; fill:none" points="685.08,454.108 703.978,454.108 "/>
<polyline clip-path="url(#clip420)" style="stroke:#000000; stroke-linecap:round; stroke-linejoin:round; stroke-width:8; stroke-opacity:1; fill:none" points="685.08,178.922 703.978,178.922 "/>
<path clip-path="url(#clip420)" d="M395.702 1031.17 L410.979 1031.17 L410.979 978.439 L394.359 981.772 L394.359 973.253 L410.887 969.92 L420.239 969.92 L420.239 1031.17 L435.516 1031.17 L435.516 1039.04 L395.702 1039.04 L395.702 1031.17 Z" fill="#000000" fill-rule="nonzero" fill-opacity="1" /><path clip-path="url(#clip420)" d="M474.405 976.078 Q467.183 976.078 463.525 983.207 Q459.914 990.29 459.914 1004.55 Q459.914 1018.76 463.525 1025.89 Q467.183 1032.98 474.405 1032.98 Q481.673 1032.98 485.285 1025.89 Q488.942 1018.76 488.942 1004.55 Q488.942 990.29 485.285 983.207 Q481.673 976.078 474.405 976.078 M474.405 968.67 Q486.025 968.67 492.136 977.883 Q498.294 987.05 498.294 1004.55 Q498.294 1022 492.136 1031.22 Q486.025 1040.38 474.405 1040.38 Q462.785 1040.38 456.627 1031.22 Q450.516 1022 450.516 1004.55 Q450.516 987.05 456.627 977.883 Q462.785 968.67 474.405 968.67 Z" fill="#000000" fill-rule="nonzero" fill-opacity="1" /><path clip-path="url(#clip420)" d="M534.729 976.078 Q527.507 976.078 523.849 983.207 Q520.238 990.29 520.238 1004.55 Q520.238 1018.76 523.849 1025.89 Q527.507 1032.98 534.729 1032.98 Q541.997 1032.98 545.608 1025.89 Q549.266 1018.76 549.266 1004.55 Q549.266 990.29 545.608 983.207 Q541.997 976.078 534.729 976.078 M534.729 968.67 Q546.349 968.67 552.46 977.883 Q558.618 987.05 558.618 1004.55 Q558.618 1022 552.46 1031.22 Q546.349 1040.38 534.729 1040.38 Q523.108 1040.38 516.951 1031.22 Q510.84 1022 510.84 1004.55 Q510.84 987.05 516.951 977.883 Q523.108 968.67 534.729 968.67 Z" fill="#000000" fill-rule="nonzero" fill-opacity="1" /><path clip-path="url(#clip420)" d="M575.053 1027.28 L584.821 1027.28 L584.821 1039.04 L575.053 1039.04 L575.053 1027.28 Z" fill="#000000" fill-rule="nonzero" fill-opacity="1" /><path clip-path="url(#clip420)" d="M625.191 976.078 Q617.969 976.078 614.312 983.207 Q610.701 990.29 610.701 1004.55 Q610.701 1018.76 614.312 1025.89 Q617.969 1032.98 625.191 1032.98 Q632.46 1032.98 636.071 1025.89 Q639.728 1018.76 639.728 1004.55 Q639.728 990.29 636.071 983.207 Q632.46 976.078 625.191 976.078 M625.191 968.67 Q636.812 968.67 642.923 977.883 Q649.08 987.05 649.08 1004.55 Q649.08 1022 642.923 1031.22 Q636.812 1040.38 625.191 1040.38 Q613.571 1040.38 607.414 1031.22 Q601.302 1022 601.302 1004.55 Q601.302 987.05 607.414 977.883 Q613.571 968.67 625.191 968.67 Z" fill="#000000" fill-rule="nonzero" fill-opacity="1" /><path clip-path="url(#clip420)" d="M402.137 755.984 L434.776 755.984 L434.776 763.854 L390.887 763.854 L390.887 755.984 Q396.211 750.474 405.378 741.215 Q414.59 731.91 416.952 729.225 Q421.442 724.178 423.202 720.706 Q425.007 717.188 425.007 713.808 Q425.007 708.299 421.118 704.827 Q417.276 701.354 411.072 701.354 Q406.674 701.354 401.766 702.882 Q396.905 704.41 391.35 707.512 L391.35 698.067 Q396.998 695.799 401.905 694.641 Q406.813 693.484 410.887 693.484 Q421.627 693.484 428.016 698.854 Q434.405 704.225 434.405 713.206 Q434.405 717.465 432.785 721.308 Q431.211 725.104 426.998 730.289 Q425.84 731.632 419.637 738.067 Q413.433 744.456 402.137 755.984 Z" fill="#000000" fill-rule="nonzero" fill-opacity="1" /><path clip-path="url(#clip420)" d="M474.405 700.891 Q467.183 700.891 463.525 708.021 Q459.914 715.104 459.914 729.363 Q459.914 743.576 463.525 750.706 Q467.183 757.789 474.405 757.789 Q481.673 757.789 485.285 750.706 Q488.942 743.576 488.942 729.363 Q488.942 715.104 485.285 708.021 Q481.673 700.891 474.405 700.891 M474.405 693.484 Q486.025 693.484 492.136 702.697 Q498.294 711.864 498.294 729.363 Q498.294 746.817 492.136 756.03 Q486.025 765.197 474.405 765.197 Q462.785 765.197 456.627 756.03 Q450.516 746.817 450.516 729.363 Q450.516 711.864 456.627 702.697 Q462.785 693.484 474.405 693.484 Z" fill="#000000" fill-rule="nonzero" fill-opacity="1" /><path clip-path="url(#clip420)" d="M534.729 700.891 Q527.507 700.891 523.849 708.021 Q520.238 715.104 520.238 729.363 Q520.238 743.576 523.849 750.706 Q527.507 757.789 534.729 757.789 Q541.997 757.789 545.608 750.706 Q549.266 743.576 549.266 729.363 Q549.266 715.104 545.608 708.021 Q541.997 700.891 534.729 700.891 M534.729 693.484 Q546.349 693.484 552.46 702.697 Q558.618 711.864 558.618 729.363 Q558.618 746.817 552.46 756.03 Q546.349 765.197 534.729 765.197 Q523.108 765.197 516.951 756.03 Q510.84 746.817 510.84 729.363 Q510.84 711.864 516.951 702.697 Q523.108 693.484 534.729 693.484 Z" fill="#000000" fill-rule="nonzero" fill-opacity="1" /><path clip-path="url(#clip420)" d="M575.053 752.095 L584.821 752.095 L584.821 763.854 L575.053 763.854 L575.053 752.095 Z" fill="#000000" fill-rule="nonzero" fill-opacity="1" /><path clip-path="url(#clip420)" d="M625.191 700.891 Q617.969 700.891 614.312 708.021 Q610.701 715.104 610.701 729.363 Q610.701 743.576 614.312 750.706 Q617.969 757.789 625.191 757.789 Q632.46 757.789 636.071 750.706 Q639.728 743.576 639.728 729.363 Q639.728 715.104 636.071 708.021 Q632.46 700.891 625.191 700.891 M625.191 693.484 Q636.812 693.484 642.923 702.697 Q649.08 711.864 649.08 729.363 Q649.08 746.817 642.923 756.03 Q636.812 765.197 625.191 765.197 Q613.571 765.197 607.414 756.03 Q601.302 746.817 601.302 729.363 Q601.302 711.864 607.414 702.697 Q613.571 693.484 625.191 693.484 Z" fill="#000000" fill-rule="nonzero" fill-opacity="1" /><path clip-path="url(#clip420)" d="M422.415 451.399 Q429.127 452.835 432.877 457.372 Q436.674 461.909 436.674 468.575 Q436.674 478.807 429.637 484.409 Q422.6 490.01 409.637 490.01 Q405.285 490.01 400.655 489.131 Q396.072 488.297 391.165 486.584 L391.165 477.557 Q395.054 479.825 399.683 480.983 Q404.313 482.14 409.359 482.14 Q418.155 482.14 422.739 478.668 Q427.368 475.196 427.368 468.575 Q427.368 462.464 423.063 459.038 Q418.803 455.566 411.165 455.566 L403.109 455.566 L403.109 447.881 L411.535 447.881 Q418.433 447.881 422.09 445.149 Q425.748 442.372 425.748 437.187 Q425.748 431.863 421.952 429.038 Q418.202 426.168 411.165 426.168 Q407.322 426.168 402.924 427.001 Q398.526 427.835 393.248 429.594 L393.248 421.261 Q398.572 419.779 403.202 419.039 Q407.878 418.298 411.998 418.298 Q422.646 418.298 428.85 423.159 Q435.053 427.974 435.053 436.214 Q435.053 441.955 431.766 445.937 Q428.479 449.872 422.415 451.399 Z" fill="#000000" fill-rule="nonzero" fill-opacity="1" /><path clip-path="url(#clip420)" d="M474.405 425.705 Q467.183 425.705 463.525 432.835 Q459.914 439.918 459.914 454.177 Q459.914 468.39 463.525 475.52 Q467.183 482.603 474.405 482.603 Q481.673 482.603 485.285 475.52 Q488.942 468.39 488.942 454.177 Q488.942 439.918 485.285 432.835 Q481.673 425.705 474.405 425.705 M474.405 418.298 Q486.025 418.298 492.136 427.511 Q498.294 436.677 498.294 454.177 Q498.294 471.631 492.136 480.844 Q486.025 490.01 474.405 490.01 Q462.785 490.01 456.627 480.844 Q450.516 471.631 450.516 454.177 Q450.516 436.677 456.627 427.511 Q462.785 418.298 474.405 418.298 Z" fill="#000000" fill-rule="nonzero" fill-opacity="1" /><path clip-path="url(#clip420)" d="M534.729 425.705 Q527.507 425.705 523.849 432.835 Q520.238 439.918 520.238 454.177 Q520.238 468.39 523.849 475.52 Q527.507 482.603 534.729 482.603 Q541.997 482.603 545.608 475.52 Q549.266 468.39 549.266 454.177 Q549.266 439.918 545.608 432.835 Q541.997 425.705 534.729 425.705 M534.729 418.298 Q546.349 418.298 552.46 427.511 Q558.618 436.677 558.618 454.177 Q558.618 471.631 552.46 480.844 Q546.349 490.01 534.729 490.01 Q523.108 490.01 516.951 480.844 Q510.84 471.631 510.84 454.177 Q510.84 436.677 516.951 427.511 Q523.108 418.298 534.729 418.298 Z" fill="#000000" fill-rule="nonzero" fill-opacity="1" /><path clip-path="url(#clip420)" d="M575.053 476.909 L584.821 476.909 L584.821 488.668 L575.053 488.668 L575.053 476.909 Z" fill="#000000" fill-rule="nonzero" fill-opacity="1" /><path clip-path="url(#clip420)" d="M625.191 425.705 Q617.969 425.705 614.312 432.835 Q610.701 439.918 610.701 454.177 Q610.701 468.39 614.312 475.52 Q617.969 482.603 625.191 482.603 Q632.46 482.603 636.071 475.52 Q639.728 468.39 639.728 454.177 Q639.728 439.918 636.071 432.835 Q632.46 425.705 625.191 425.705 M625.191 418.298 Q636.812 418.298 642.923 427.511 Q649.08 436.677 649.08 454.177 Q649.08 471.631 642.923 480.844 Q636.812 490.01 625.191 490.01 Q613.571 490.01 607.414 480.844 Q601.302 471.631 601.302 454.177 Q601.302 436.677 607.414 427.511 Q613.571 418.298 625.191 418.298 Z" fill="#000000" fill-rule="nonzero" fill-opacity="1" /><path clip-path="url(#clip420)" d="M419.776 152.51 L396.165 189.408 L419.776 189.408 L419.776 152.51 M417.322 144.362 L429.081 144.362 L429.081 189.408 L438.942 189.408 L438.942 197.185 L429.081 197.185 L429.081 213.482 L419.776 213.482 L419.776 197.185 L388.572 197.185 L388.572 188.158 L417.322 144.362 Z" fill="#000000" fill-rule="nonzero" fill-opacity="1" /><path clip-path="url(#clip420)" d="M474.405 150.519 Q467.183 150.519 463.525 157.649 Q459.914 164.732 459.914 178.991 Q459.914 193.204 463.525 200.334 Q467.183 207.417 474.405 207.417 Q481.673 207.417 485.285 200.334 Q488.942 193.204 488.942 178.991 Q488.942 164.732 485.285 157.649 Q481.673 150.519 474.405 150.519 M474.405 143.112 Q486.025 143.112 492.136 152.325 Q498.294 161.491 498.294 178.991 Q498.294 196.445 492.136 205.658 Q486.025 214.824 474.405 214.824 Q462.785 214.824 456.627 205.658 Q450.516 196.445 450.516 178.991 Q450.516 161.491 456.627 152.325 Q462.785 143.112 474.405 143.112 Z" fill="#000000" fill-rule="nonzero" fill-opacity="1" /><path clip-path="url(#clip420)" d="M534.729 150.519 Q527.507 150.519 523.849 157.649 Q520.238 164.732 520.238 178.991 Q520.238 193.204 523.849 200.334 Q527.507 207.417 534.729 207.417 Q541.997 207.417 545.608 200.334 Q549.266 193.204 549.266 178.991 Q549.266 164.732 545.608 157.649 Q541.997 150.519 534.729 150.519 M534.729 143.112 Q546.349 143.112 552.46 152.325 Q558.618 161.491 558.618 178.991 Q558.618 196.445 552.46 205.658 Q546.349 214.824 534.729 214.824 Q523.108 214.824 516.951 205.658 Q510.84 196.445 510.84 178.991 Q510.84 161.491 516.951 152.325 Q523.108 143.112 534.729 143.112 Z" fill="#000000" fill-rule="nonzero" fill-opacity="1" /><path clip-path="url(#clip420)" d="M575.053 201.722 L584.821 201.722 L584.821 213.482 L575.053 213.482 L575.053 201.722 Z" fill="#000000" fill-rule="nonzero" fill-opacity="1" /><path clip-path="url(#clip420)" d="M625.191 150.519 Q617.969 150.519 614.312 157.649 Q610.701 164.732 610.701 178.991 Q610.701 193.204 614.312 200.334 Q617.969 207.417 625.191 207.417 Q632.46 207.417 636.071 200.334 Q639.728 193.204 639.728 178.991 Q639.728 164.732 636.071 157.649 Q632.46 150.519 625.191 150.519 M625.191 143.112 Q636.812 143.112 642.923 152.325 Q649.08 161.491 649.08 178.991 Q649.08 196.445 642.923 205.658 Q636.812 214.824 625.191 214.824 Q613.571 214.824 607.414 205.658 Q601.302 196.445 601.302 178.991 Q601.302 161.491 607.414 152.325 Q613.571 143.112 625.191 143.112 Z" fill="#000000" fill-rule="nonzero" fill-opacity="1" /><path clip-path="url(#clip420)" d="M255.501 913.798 L266.45 913.798 Q263.713 918.764 262.376 923.793 Q260.976 928.758 260.976 933.85 Q260.976 945.245 268.233 951.547 Q275.426 957.849 288.476 957.849 Q301.526 957.849 308.782 951.547 Q315.976 945.245 315.976 933.85 Q315.976 928.758 314.639 923.793 Q313.238 918.764 310.501 913.798 L321.323 913.798 Q323.615 918.7 324.76 923.984 Q325.906 929.204 325.906 935.124 Q325.906 951.229 315.785 960.714 Q305.663 970.199 288.476 970.199 Q271.034 970.199 261.04 960.65 Q251.045 951.038 251.045 934.36 Q251.045 928.949 252.191 923.793 Q253.273 918.636 255.501 913.798 Z" fill="#000000" fill-rule="nonzero" fill-opacity="1" /><path clip-path="url(#clip420)" d="M260.976 865.801 Q260.976 875.222 268.36 880.697 Q275.681 886.171 288.476 886.171 Q301.271 886.171 308.655 880.76 Q315.976 875.286 315.976 865.801 Q315.976 856.443 308.591 850.969 Q301.207 845.494 288.476 845.494 Q275.808 845.494 268.424 850.969 Q260.976 856.443 260.976 865.801 M251.045 865.801 Q251.045 850.523 260.976 841.802 Q270.906 833.081 288.476 833.081 Q305.982 833.081 315.976 841.802 Q325.906 850.523 325.906 865.801 Q325.906 881.142 315.976 889.863 Q305.982 898.521 288.476 898.521 Q270.906 898.521 260.976 889.863 Q251.045 881.142 251.045 865.801 Z" fill="#000000" fill-rule="nonzero" fill-opacity="1" /><path clip-path="url(#clip420)" d="M281.028 754.401 L324.06 754.401 L324.06 766.114 L281.41 766.114 Q271.288 766.114 266.259 770.061 Q261.231 774.008 261.231 781.901 Q261.231 791.386 267.278 796.86 Q273.325 802.335 283.765 802.335 L324.06 802.335 L324.06 814.112 L252.764 814.112 L252.764 802.335 L263.841 802.335 Q257.411 798.134 254.228 792.468 Q251.045 786.739 251.045 779.291 Q251.045 767.005 258.684 760.703 Q266.259 754.401 281.028 754.401 Z" fill="#000000" fill-rule="nonzero" fill-opacity="1" /><path clip-path="url(#clip420)" d="M255.501 679.731 L266.45 679.731 Q263.713 684.697 262.376 689.726 Q260.976 694.691 260.976 699.783 Q260.976 711.178 268.233 717.48 Q275.426 723.782 288.476 723.782 Q301.526 723.782 308.782 717.48 Q315.976 711.178 315.976 699.783 Q315.976 694.691 314.639 689.726 Q313.238 684.697 310.501 679.731 L321.323 679.731 Q323.615 684.633 324.76 689.917 Q325.906 695.136 325.906 701.057 Q325.906 717.162 315.785 726.647 Q305.663 736.132 288.476 736.132 Q271.034 736.132 261.04 726.583 Q251.045 716.971 251.045 700.293 Q251.045 694.882 252.191 689.726 Q253.273 684.569 255.501 679.731 Z" fill="#000000" fill-rule="nonzero" fill-opacity="1" /><path clip-path="url(#clip420)" d="M307.891 657.706 L307.891 644.274 L324.06 644.274 L324.06 657.706 L307.891 657.706 Z" fill="#000000" fill-rule="nonzero" fill-opacity="1" /><path clip-path="url(#clip420)" d="M236.341 504.802 L249.9 504.802 Q243.852 511.295 240.86 518.679 Q237.868 526 237.868 534.275 Q237.868 550.571 247.863 559.229 Q257.793 567.886 276.636 567.886 Q295.414 567.886 305.409 559.229 Q315.339 550.571 315.339 534.275 Q315.339 526 312.347 518.679 Q309.355 511.295 303.308 504.802 L316.74 504.802 Q321.323 511.549 323.615 519.125 Q325.906 526.636 325.906 535.039 Q325.906 556.619 312.729 569.032 Q299.488 581.445 276.636 581.445 Q253.719 581.445 240.542 569.032 Q227.301 556.619 227.301 535.039 Q227.301 526.509 229.593 518.997 Q231.821 511.422 236.341 504.802 Z" fill="#000000" fill-rule="nonzero" fill-opacity="1" /><path clip-path="url(#clip420)" d="M229.02 484.941 L229.02 465.78 L293.696 441.527 L229.02 417.146 L229.02 397.985 L324.06 397.985 L324.06 410.526 L240.606 410.526 L305.791 435.034 L305.791 447.956 L240.606 472.464 L324.06 472.464 L324.06 484.941 L229.02 484.941 Z" fill="#000000" fill-rule="nonzero" fill-opacity="1" /><polyline clip-path="url(#clip422)" style="stroke:#008000; stroke-linecap:round; stroke-linejoin:round; stroke-width:8; stroke-opacity:1; fill:none" points="730.941,1163.83 840.135,1089.33 949.328,1082.47 1058.52,1200.12 1167.72,1177.13 1276.91,1125.74 1386.1,1133.84 1495.3,1108.33 1604.49,1142.75 1713.68,1100.47 1822.88,1120.23 1932.07,1005.88 2041.26,1008.1 2150.46,1083.08 2259.65,1004.48 "/>
<circle clip-path="url(#clip422)" cx="730.941" cy="1163.83" r="14.4" fill="#008000" fill-rule="evenodd" fill-opacity="1" stroke="#000000" stroke-opacity="1" stroke-width="6.4"/>
<circle clip-path="url(#clip422)" cx="840.135" cy="1089.33" r="14.4" fill="#008000" fill-rule="evenodd" fill-opacity="1" stroke="#000000" stroke-opacity="1" stroke-width="6.4"/>
<circle clip-path="url(#clip422)" cx="949.328" cy="1082.47" r="14.4" fill="#008000" fill-rule="evenodd" fill-opacity="1" stroke="#000000" stroke-opacity="1" stroke-width="6.4"/>
<circle clip-path="url(#clip422)" cx="1058.52" cy="1200.12" r="14.4" fill="#008000" fill-rule="evenodd" fill-opacity="1" stroke="#000000" stroke-opacity="1" stroke-width="6.4"/>
<circle clip-path="url(#clip422)" cx="1167.72" cy="1177.13" r="14.4" fill="#008000" fill-rule="evenodd" fill-opacity="1" stroke="#000000" stroke-opacity="1" stroke-width="6.4"/>
<circle clip-path="url(#clip422)" cx="1276.91" cy="1125.74" r="14.4" fill="#008000" fill-rule="evenodd" fill-opacity="1" stroke="#000000" stroke-opacity="1" stroke-width="6.4"/>
<circle clip-path="url(#clip422)" cx="1386.1" cy="1133.84" r="14.4" fill="#008000" fill-rule="evenodd" fill-opacity="1" stroke="#000000" stroke-opacity="1" stroke-width="6.4"/>
<circle clip-path="url(#clip422)" cx="1495.3" cy="1108.33" r="14.4" fill="#008000" fill-rule="evenodd" fill-opacity="1" stroke="#000000" stroke-opacity="1" stroke-width="6.4"/>
<circle clip-path="url(#clip422)" cx="1604.49" cy="1142.75" r="14.4" fill="#008000" fill-rule="evenodd" fill-opacity="1" stroke="#000000" stroke-opacity="1" stroke-width="6.4"/>
<circle clip-path="url(#clip422)" cx="1713.68" cy="1100.47" r="14.4" fill="#008000" fill-rule="evenodd" fill-opacity="1" stroke="#000000" stroke-opacity="1" stroke-width="6.4"/>
<circle clip-path="url(#clip422)" cx="1822.88" cy="1120.23" r="14.4" fill="#008000" fill-rule="evenodd" fill-opacity="1" stroke="#000000" stroke-opacity="1" stroke-width="6.4"/>
<circle clip-path="url(#clip422)" cx="1932.07" cy="1005.88" r="14.4" fill="#008000" fill-rule="evenodd" fill-opacity="1" stroke="#000000" stroke-opacity="1" stroke-width="6.4"/>
<circle clip-path="url(#clip422)" cx="2041.26" cy="1008.1" r="14.4" fill="#008000" fill-rule="evenodd" fill-opacity="1" stroke="#000000" stroke-opacity="1" stroke-width="6.4"/>
<circle clip-path="url(#clip422)" cx="2150.46" cy="1083.08" r="14.4" fill="#008000" fill-rule="evenodd" fill-opacity="1" stroke="#000000" stroke-opacity="1" stroke-width="6.4"/>
<circle clip-path="url(#clip422)" cx="2259.65" cy="1004.48" r="14.4" fill="#008000" fill-rule="evenodd" fill-opacity="1" stroke="#000000" stroke-opacity="1" stroke-width="6.4"/>
<polyline clip-path="url(#clip422)" style="stroke:#00008b; stroke-linecap:round; stroke-linejoin:round; stroke-width:8; stroke-opacity:1; fill:none" points="730.941,1155.47 840.135,759.587 949.328,614.71 1058.52,508.211 1167.72,438.34 1276.91,387.059 1386.1,327.54 1495.3,308.899 1604.49,318.97 1713.68,292.329 1822.88,293.051 1932.07,322.15 2041.26,342.048 2150.46,332.724 2259.65,410.581 "/>
<path clip-path="url(#clip422)" d="M730.941 1240.32 L840.135 875.925 L949.328 755.445 L1058.52 664.499 L1167.72 617.871 L1276.91 564.95 L1386.1 505.504 L1495.3 505.267 L1604.49 474.617 L1713.68 483.282 L1822.88 475.02 L1932.07 503.232 L2041.26 513.327 L2150.46 478.864 L2259.65 538.734 L2259.65 270.513 L2150.46 186.236 L2041.26 193.885 L1932.07 172.548 L1822.88 127.862 L1713.68 138.903 L1604.49 151.616 L1495.3 164.689 L1386.1 167.171 L1276.91 230.541 L1167.72 297.838 L1058.52 367.797 L949.328 475.678 L840.135 658.355 L730.941 1063.8  Z" fill="#0000ff" fill-rule="evenodd" fill-opacity="0.1"/>
<polyline clip-path="url(#clip422)" style="stroke:#0000ff; stroke-linecap:round; stroke-linejoin:round; stroke-width:0; stroke-opacity:0.1; fill:none" points="730.941,1240.32 840.135,875.925 949.328,755.445 1058.52,664.499 1167.72,617.871 1276.91,564.95 1386.1,505.504 1495.3,505.267 1604.49,474.617 1713.68,483.282 1822.88,475.02 1932.07,503.232 2041.26,513.327 2150.46,478.864 2259.65,538.734 "/>
</svg>
