<?xml version="1.0" encoding="utf-8"?>
<svg xmlns="http://www.w3.org/2000/svg" xmlns:xlink="http://www.w3.org/1999/xlink" width="600" height="400" viewBox="0 0 2400 1600">
<defs>
  <clipPath id="clip650">
    <rect x="0" y="0" width="2400" height="1600"/>
  </clipPath>
</defs>
<path clip-path="url(#clip650)" d="M0 1600 L2400 1600 L2400 0 L0 0  Z" fill="#ffffff" fill-rule="evenodd" fill-opacity="1"/>
<defs>
  <clipPath id="clip651">
    <rect x="480" y="0" width="1681" height="1600"/>
  </clipPath>
</defs>
<path clip-path="url(#clip650)" d="M673.985 1082.2 L2305.51 1082.2 L2305.51 94.4882 L673.985 94.4882  Z" fill="#ffffff" fill-rule="evenodd" fill-opacity="1"/>
<defs>
  <clipPath id="clip652">
    <rect x="673" y="94" width="1633" height="989"/>
  </clipPath>
</defs>
<polyline clip-path="url(#clip652)" style="stroke:#000000; stroke-linecap:round; stroke-linejoin:round; stroke-width:4; stroke-opacity:0.1; fill:none" points="885.072,1082.2 885.072,94.4882 "/>
<polyline clip-path="url(#clip652)" style="stroke:#000000; stroke-linecap:round; stroke-linejoin:round; stroke-width:4; stroke-opacity:0.1; fill:none" points="1159.92,1082.2 1159.92,94.4882 "/>
<polyline clip-path="url(#clip652)" style="stroke:#000000; stroke-linecap:round; stroke-linejoin:round; stroke-width:4; stroke-opacity:0.1; fill:none" points="1434.78,1082.2 1434.78,94.4882 "/>
<polyline clip-path="url(#clip652)" style="stroke:#000000; stroke-linecap:round; stroke-linejoin:round; stroke-width:4; stroke-opacity:0.1; fill:none" points="1709.63,1082.2 1709.63,94.4882 "/>
<polyline clip-path="url(#clip652)" style="stroke:#000000; stroke-linecap:round; stroke-linejoin:round; stroke-width:4; stroke-opacity:0.1; fill:none" points="1984.48,1082.2 1984.48,94.4882 "/>
<polyline clip-path="url(#clip652)" style="stroke:#000000; stroke-linecap:round; stroke-linejoin:round; stroke-width:4; stroke-opacity:0.1; fill:none" points="2259.34,1082.2 2259.34,94.4882 "/>
<polyline clip-path="url(#clip650)" style="stroke:#000000; stroke-linecap:round; stroke-linejoin:round; stroke-width:8; stroke-opacity:1; fill:none" points="673.985,1082.2 2305.51,1082.2 "/>
<polyline clip-path="url(#clip650)" style="stroke:#000000; stroke-linecap:round; stroke-linejoin:round; stroke-width:8; stroke-opacity:1; fill:none" points="885.072,1082.2 885.072,1063.3 "/>
<polyline clip-path="url(#clip650)" style="stroke:#000000; stroke-linecap:round; stroke-linejoin:round; stroke-width:8; stroke-opacity:1; fill:none" points="1159.92,1082.2 1159.92,1063.3 "/>
<polyline clip-path="url(#clip650)" style="stroke:#000000; stroke-linecap:round; stroke-linejoin:round; stroke-width:8; stroke-opacity:1; fill:none" points="1434.78,1082.2 1434.78,1063.3 "/>
<polyline clip-path="url(#clip650)" style="stroke:#000000; stroke-linecap:round; stroke-linejoin:round; stroke-width:8; stroke-opacity:1; fill:none" points="1709.63,1082.2 1709.63,1063.3 "/>
<polyline clip-path="url(#clip650)" style="stroke:#000000; stroke-linecap:round; stroke-linejoin:round; stroke-width:8; stroke-opacity:1; fill:none" points="1984.48,1082.2 1984.48,1063.3 "/>
<polyline clip-path="url(#clip650)" style="stroke:#000000; stroke-linecap:round; stroke-linejoin:round; stroke-width:8; stroke-opacity:1; fill:none" points="2259.34,1082.2 2259.34,1063.3 "/>
<path clip-path="url(#clip650)" d="M840.836 1124.84 Q833.614 1124.84 829.956 1131.97 Q826.345 1139.05 826.345 1153.31 Q826.345 1167.52 829.956 1174.65 Q833.614 1181.73 840.836 1181.73 Q848.104 1181.73 851.716 1174.65 Q855.373 1167.52 855.373 1153.31 Q855.373 1139.05 851.716 1131.97 Q848.104 1124.84 840.836 1124.84 M840.836 1117.43 Q852.456 1117.43 858.567 1126.64 Q864.725 1135.81 864.725 1153.31 Q864.725 1170.76 858.567 1179.98 Q852.456 1189.14 840.836 1189.14 Q829.216 1189.14 823.058 1179.98 Q816.947 1170.76 816.947 1153.31 Q816.947 1135.81 823.058 1126.64 Q829.216 1117.43 840.836 1117.43 Z" fill="#000000" fill-rule="nonzero" fill-opacity="1" /><path clip-path="url(#clip650)" d="M881.16 1176.04 L890.928 1176.04 L890.928 1187.8 L881.16 1187.8 L881.16 1176.04 Z" fill="#000000" fill-rule="nonzero" fill-opacity="1" /><path clip-path="url(#clip650)" d="M911.391 1118.68 L948.104 1118.68 L948.104 1126.55 L919.956 1126.55 L919.956 1143.49 Q921.993 1142.8 924.03 1142.48 Q926.067 1142.11 928.104 1142.11 Q939.678 1142.11 946.437 1148.45 Q953.196 1154.79 953.196 1165.62 Q953.196 1176.78 946.252 1182.98 Q939.308 1189.14 926.669 1189.14 Q922.317 1189.14 917.78 1188.4 Q913.289 1187.66 908.474 1186.18 L908.474 1176.78 Q912.641 1179.05 917.086 1180.16 Q921.53 1181.27 926.484 1181.27 Q934.493 1181.27 939.169 1177.06 Q943.845 1172.85 943.845 1165.62 Q943.845 1158.4 939.169 1154.19 Q934.493 1149.98 926.484 1149.98 Q922.734 1149.98 918.984 1150.81 Q915.28 1151.64 911.391 1153.4 L911.391 1118.68 Z" fill="#000000" fill-rule="nonzero" fill-opacity="1" /><path clip-path="url(#clip650)" d="M1094.23 1179.93 L1109.51 1179.93 L1109.51 1127.2 L1092.89 1130.53 L1092.89 1122.01 L1109.42 1118.68 L1118.77 1118.68 L1118.77 1179.93 L1134.05 1179.93 L1134.05 1187.8 L1094.23 1187.8 L1094.23 1179.93 Z" fill="#000000" fill-rule="nonzero" fill-opacity="1" /><path clip-path="url(#clip650)" d="M1152.93 1176.04 L1162.7 1176.04 L1162.7 1187.8 L1152.93 1187.8 L1152.93 1176.04 Z" fill="#000000" fill-rule="nonzero" fill-opacity="1" /><path clip-path="url(#clip650)" d="M1203.07 1124.84 Q1195.85 1124.84 1192.19 1131.97 Q1188.58 1139.05 1188.58 1153.31 Q1188.58 1167.52 1192.19 1174.65 Q1195.85 1181.73 1203.07 1181.73 Q1210.34 1181.73 1213.95 1174.65 Q1217.61 1167.52 1217.61 1153.31 Q1217.61 1139.05 1213.95 1131.97 Q1210.34 1124.84 1203.07 1124.84 M1203.07 1117.43 Q1214.69 1117.43 1220.8 1126.64 Q1226.96 1135.81 1226.96 1153.31 Q1226.96 1170.76 1220.8 1179.98 Q1214.69 1189.14 1203.07 1189.14 Q1191.45 1189.14 1185.29 1179.98 Q1179.18 1170.76 1179.18 1153.31 Q1179.18 1135.81 1185.29 1126.64 Q1191.45 1117.43 1203.07 1117.43 Z" fill="#000000" fill-rule="nonzero" fill-opacity="1" /><path clip-path="url(#clip650)" d="M1370.08 1179.93 L1385.36 1179.93 L1385.36 1127.2 L1368.74 1130.53 L1368.74 1122.01 L1385.26 1118.68 L1394.62 1118.68 L1394.62 1179.93 L1409.89 1179.93 L1409.89 1187.8 L1370.08 1187.8 L1370.08 1179.93 Z" fill="#000000" fill-rule="nonzero" fill-opacity="1" /><path clip-path="url(#clip650)" d="M1428.78 1176.04 L1438.55 1176.04 L1438.55 1187.8 L1428.78 1187.8 L1428.78 1176.04 Z" fill="#000000" fill-rule="nonzero" fill-opacity="1" /><path clip-path="url(#clip650)" d="M1459.01 1118.68 L1495.73 1118.68 L1495.73 1126.55 L1467.58 1126.55 L1467.58 1143.49 Q1469.62 1142.8 1471.65 1142.48 Q1473.69 1142.11 1475.73 1142.11 Q1487.3 1142.11 1494.06 1148.45 Q1500.82 1154.79 1500.82 1165.62 Q1500.82 1176.78 1493.87 1182.98 Q1486.93 1189.14 1474.29 1189.14 Q1469.94 1189.14 1465.4 1188.4 Q1460.91 1187.66 1456.1 1186.18 L1456.1 1176.78 Q1460.26 1179.05 1464.71 1180.16 Q1469.15 1181.27 1474.11 1181.27 Q1482.12 1181.27 1486.79 1177.06 Q1491.47 1172.85 1491.47 1165.62 Q1491.47 1158.4 1486.79 1154.19 Q1482.12 1149.98 1474.11 1149.98 Q1470.36 1149.98 1466.61 1150.81 Q1462.9 1151.64 1459.01 1153.4 L1459.01 1118.68 Z" fill="#000000" fill-rule="nonzero" fill-opacity="1" /><path clip-path="url(#clip650)" d="M1652.11 1179.93 L1684.75 1179.93 L1684.75 1187.8 L1640.86 1187.8 L1640.86 1179.93 Q1646.18 1174.42 1655.35 1165.16 Q1664.56 1155.86 1666.92 1153.17 Q1671.41 1148.12 1673.17 1144.65 Q1674.98 1141.13 1674.98 1137.75 Q1674.98 1132.24 1671.09 1128.77 Q1667.25 1125.3 1661.04 1125.3 Q1656.64 1125.3 1651.74 1126.83 Q1646.88 1128.36 1641.32 1131.46 L1641.32 1122.01 Q1646.97 1119.74 1651.88 1118.59 Q1656.78 1117.43 1660.86 1117.43 Q1671.6 1117.43 1677.99 1122.8 Q1684.38 1128.17 1684.38 1137.15 Q1684.38 1141.41 1682.76 1145.25 Q1681.18 1149.05 1676.97 1154.24 Q1675.81 1155.58 1669.61 1162.01 Q1663.4 1168.4 1652.11 1179.93 Z" fill="#000000" fill-rule="nonzero" fill-opacity="1" /><path clip-path="url(#clip650)" d="M1704.38 1176.04 L1714.14 1176.04 L1714.14 1187.8 L1704.38 1187.8 L1704.38 1176.04 Z" fill="#000000" fill-rule="nonzero" fill-opacity="1" /><path clip-path="url(#clip650)" d="M1754.51 1124.84 Q1747.29 1124.84 1743.64 1131.97 Q1740.02 1139.05 1740.02 1153.31 Q1740.02 1167.52 1743.64 1174.65 Q1747.29 1181.73 1754.51 1181.73 Q1761.78 1181.73 1765.39 1174.65 Q1769.05 1167.52 1769.05 1153.31 Q1769.05 1139.05 1765.39 1131.97 Q1761.78 1124.84 1754.51 1124.84 M1754.51 1117.43 Q1766.13 1117.43 1772.25 1126.64 Q1778.4 1135.81 1778.4 1153.31 Q1778.4 1170.76 1772.25 1179.98 Q1766.13 1189.14 1754.51 1189.14 Q1742.89 1189.14 1736.74 1179.98 Q1730.63 1170.76 1730.63 1153.31 Q1730.63 1135.81 1736.74 1126.64 Q1742.89 1117.43 1754.51 1117.43 Z" fill="#000000" fill-rule="nonzero" fill-opacity="1" /><path clip-path="url(#clip650)" d="M1927.96 1179.93 L1960.59 1179.93 L1960.59 1187.8 L1916.71 1187.8 L1916.71 1179.93 Q1922.03 1174.42 1931.2 1165.16 Q1940.41 1155.86 1942.77 1153.17 Q1947.26 1148.12 1949.02 1144.65 Q1950.83 1141.13 1950.83 1137.75 Q1950.83 1132.24 1946.94 1128.77 Q1943.09 1125.3 1936.89 1125.3 Q1932.49 1125.3 1927.59 1126.83 Q1922.72 1128.36 1917.17 1131.46 L1917.17 1122.01 Q1922.82 1119.74 1927.72 1118.59 Q1932.63 1117.43 1936.71 1117.43 Q1947.45 1117.43 1953.84 1122.8 Q1960.22 1128.17 1960.22 1137.15 Q1960.22 1141.41 1958.6 1145.25 Q1957.03 1149.05 1952.82 1154.24 Q1951.66 1155.58 1945.46 1162.01 Q1939.25 1168.4 1927.96 1179.93 Z" fill="#000000" fill-rule="nonzero" fill-opacity="1" /><path clip-path="url(#clip650)" d="M1980.22 1176.04 L1989.99 1176.04 L1989.99 1187.8 L1980.22 1187.8 L1980.22 1176.04 Z" fill="#000000" fill-rule="nonzero" fill-opacity="1" /><path clip-path="url(#clip650)" d="M2010.46 1118.68 L2047.17 1118.68 L2047.17 1126.55 L2019.02 1126.55 L2019.02 1143.49 Q2021.06 1142.8 2023.09 1142.48 Q2025.13 1142.11 2027.17 1142.11 Q2038.74 1142.11 2045.5 1148.45 Q2052.26 1154.79 2052.26 1165.62 Q2052.26 1176.78 2045.32 1182.98 Q2038.37 1189.14 2025.73 1189.14 Q2021.38 1189.14 2016.84 1188.4 Q2012.35 1187.66 2007.54 1186.18 L2007.54 1176.78 Q2011.71 1179.05 2016.15 1180.16 Q2020.59 1181.27 2025.55 1181.27 Q2033.56 1181.27 2038.23 1177.06 Q2042.91 1172.85 2042.91 1165.62 Q2042.91 1158.4 2038.23 1154.19 Q2033.56 1149.98 2025.55 1149.98 Q2021.8 1149.98 2018.05 1150.81 Q2014.34 1151.64 2010.46 1153.4 L2010.46 1118.68 Z" fill="#000000" fill-rule="nonzero" fill-opacity="1" /><path clip-path="url(#clip650)" d="M2221.95 1150.53 Q2228.67 1151.97 2232.42 1156.5 Q2236.21 1161.04 2236.21 1167.71 Q2236.21 1177.94 2229.17 1183.54 Q2222.14 1189.14 2209.17 1189.14 Q2204.82 1189.14 2200.19 1188.26 Q2195.61 1187.43 2190.7 1185.72 L2190.7 1176.69 Q2194.59 1178.96 2199.22 1180.11 Q2203.85 1181.27 2208.9 1181.27 Q2217.69 1181.27 2222.28 1177.8 Q2226.91 1174.33 2226.91 1167.71 Q2226.91 1161.6 2222.6 1158.17 Q2218.34 1154.7 2210.7 1154.7 L2202.65 1154.7 L2202.65 1147.01 L2211.07 1147.01 Q2217.97 1147.01 2221.63 1144.28 Q2225.29 1141.5 2225.29 1136.32 Q2225.29 1130.99 2221.49 1128.17 Q2217.74 1125.3 2210.7 1125.3 Q2206.86 1125.3 2202.46 1126.13 Q2198.06 1126.97 2192.79 1128.73 L2192.79 1120.39 Q2198.11 1118.91 2202.74 1118.17 Q2207.42 1117.43 2211.54 1117.43 Q2222.18 1117.43 2228.39 1122.29 Q2234.59 1127.11 2234.59 1135.35 Q2234.59 1141.09 2231.3 1145.07 Q2228.02 1149 2221.95 1150.53 Z" fill="#000000" fill-rule="nonzero" fill-opacity="1" /><path clip-path="url(#clip650)" d="M2253.94 1176.04 L2263.71 1176.04 L2263.71 1187.8 L2253.94 1187.8 L2253.94 1176.04 Z" fill="#000000" fill-rule="nonzero" fill-opacity="1" /><path clip-path="url(#clip650)" d="M2304.08 1124.84 Q2296.86 1124.84 2293.2 1131.97 Q2289.59 1139.05 2289.59 1153.31 Q2289.59 1167.52 2293.2 1174.65 Q2296.86 1181.73 2304.08 1181.73 Q2311.35 1181.73 2314.96 1174.65 Q2318.62 1167.52 2318.62 1153.31 Q2318.62 1139.05 2314.96 1131.97 Q2311.35 1124.84 2304.08 1124.84 M2304.08 1117.43 Q2315.7 1117.43 2321.81 1126.64 Q2327.97 1135.81 2327.97 1153.31 Q2327.97 1170.76 2321.81 1179.98 Q2315.7 1189.14 2304.08 1189.14 Q2292.46 1189.14 2286.3 1179.98 Q2280.19 1170.76 2280.19 1153.31 Q2280.19 1135.81 2286.3 1126.64 Q2292.46 1117.43 2304.08 1117.43 Z" fill="#000000" fill-rule="nonzero" fill-opacity="1" /><path clip-path="url(#clip650)" d="M1430.17 1278.32 Q1434.56 1270.42 1440.67 1266.67 Q1446.78 1262.91 1455.06 1262.91 Q1466.2 1262.91 1472.24 1270.74 Q1478.29 1278.51 1478.29 1292.9 L1478.29 1335.93 L1466.51 1335.93 L1466.51 1293.28 Q1466.51 1283.03 1462.88 1278.06 Q1459.26 1273.1 1451.81 1273.1 Q1442.71 1273.1 1437.42 1279.15 Q1432.14 1285.19 1432.14 1295.63 L1432.14 1335.93 L1420.36 1335.93 L1420.36 1293.28 Q1420.36 1282.97 1416.73 1278.06 Q1413.11 1273.1 1405.53 1273.1 Q1396.55 1273.1 1391.27 1279.21 Q1385.99 1285.26 1385.99 1295.63 L1385.99 1335.93 L1374.21 1335.93 L1374.21 1264.63 L1385.99 1264.63 L1385.99 1275.71 Q1390 1269.15 1395.6 1266.03 Q1401.2 1262.91 1408.9 1262.91 Q1416.67 1262.91 1422.08 1266.86 Q1427.56 1270.81 1430.17 1278.32 Z" fill="#000000" fill-rule="nonzero" fill-opacity="1" /><path clip-path="url(#clip650)" d="M1557.16 1278.32 Q1561.55 1270.42 1567.66 1266.67 Q1573.78 1262.91 1582.05 1262.91 Q1593.19 1262.91 1599.24 1270.74 Q1605.29 1278.51 1605.29 1292.9 L1605.29 1335.93 L1593.51 1335.93 L1593.51 1293.28 Q1593.51 1283.03 1589.88 1278.06 Q1586.25 1273.1 1578.8 1273.1 Q1569.7 1273.1 1564.42 1279.15 Q1559.13 1285.19 1559.13 1295.63 L1559.13 1335.93 L1547.36 1335.93 L1547.36 1293.28 Q1547.36 1282.97 1543.73 1278.06 Q1540.1 1273.1 1532.53 1273.1 Q1523.55 1273.1 1518.27 1279.21 Q1512.98 1285.26 1512.98 1295.63 L1512.98 1335.93 L1501.21 1335.93 L1501.21 1264.63 L1512.98 1264.63 L1512.98 1275.71 Q1516.99 1269.15 1522.6 1266.03 Q1528.2 1262.91 1535.9 1262.91 Q1543.67 1262.91 1549.08 1266.86 Q1554.55 1270.81 1557.16 1278.32 Z" fill="#000000" fill-rule="nonzero" fill-opacity="1" /><polyline clip-path="url(#clip652)" style="stroke:#000000; stroke-linecap:round; stroke-linejoin:round; stroke-width:4; stroke-opacity:0.1; fill:none" points="673.985,1055.1 2305.51,1055.1 "/>
<polyline clip-path="url(#clip652)" style="stroke:#000000; stroke-linecap:round; stroke-linejoin:round; stroke-width:4; stroke-opacity:0.1; fill:none" points="673.985,781.09 2305.51,781.09 "/>
<polyline clip-path="url(#clip652)" style="stroke:#000000; stroke-linecap:round; stroke-linejoin:round; stroke-width:4; stroke-opacity:0.1; fill:none" points="673.985,507.084 2305.51,507.084 "/>
<polyline clip-path="url(#clip652)" style="stroke:#000000; stroke-linecap:round; stroke-linejoin:round; stroke-width:4; stroke-opacity:0.1; fill:none" points="673.985,233.077 2305.51,233.077 "/>
<polyline clip-path="url(#clip650)" style="stroke:#000000; stroke-linecap:round; stroke-linejoin:round; stroke-width:8; stroke-opacity:1; fill:none" points="673.985,1082.2 673.985,94.4882 "/>
<polyline clip-path="url(#clip650)" style="stroke:#000000; stroke-linecap:round; stroke-linejoin:round; stroke-width:8; stroke-opacity:1; fill:none" points="673.985,1055.1 692.882,1055.1 "/>
<polyline clip-path="url(#clip650)" style="stroke:#000000; stroke-linecap:round; stroke-linejoin:round; stroke-width:8; stroke-opacity:1; fill:none" points="673.985,781.09 692.882,781.09 "/>
<polyline clip-path="url(#clip650)" style="stroke:#000000; stroke-linecap:round; stroke-linejoin:round; stroke-width:8; stroke-opacity:1; fill:none" points="673.985,507.084 692.882,507.084 "/>
<polyline clip-path="url(#clip650)" style="stroke:#000000; stroke-linecap:round; stroke-linejoin:round; stroke-width:8; stroke-opacity:1; fill:none" points="673.985,233.077 692.882,233.077 "/>
<path clip-path="url(#clip650)" d="M523.634 1026.69 Q516.411 1026.69 512.754 1033.82 Q509.143 1040.91 509.143 1055.17 Q509.143 1069.38 512.754 1076.51 Q516.411 1083.59 523.634 1083.59 Q530.902 1083.59 534.513 1076.51 Q538.17 1069.38 538.17 1055.17 Q538.17 1040.91 534.513 1033.82 Q530.902 1026.69 523.634 1026.69 M523.634 1019.29 Q535.254 1019.29 541.365 1028.5 Q547.522 1037.67 547.522 1055.17 Q547.522 1072.62 541.365 1081.83 Q535.254 1091 523.634 1091 Q512.013 1091 505.856 1081.83 Q499.745 1072.62 499.745 1055.17 Q499.745 1037.67 505.856 1028.5 Q512.013 1019.29 523.634 1019.29 Z" fill="#000000" fill-rule="nonzero" fill-opacity="1" /><path clip-path="url(#clip650)" d="M563.957 1077.9 L573.726 1077.9 L573.726 1089.66 L563.957 1089.66 L563.957 1077.9 Z" fill="#000000" fill-rule="nonzero" fill-opacity="1" /><path clip-path="url(#clip650)" d="M614.096 1026.69 Q606.874 1026.69 603.216 1033.82 Q599.605 1040.91 599.605 1055.17 Q599.605 1069.38 603.216 1076.51 Q606.874 1083.59 614.096 1083.59 Q621.364 1083.59 624.976 1076.51 Q628.633 1069.38 628.633 1055.17 Q628.633 1040.91 624.976 1033.82 Q621.364 1026.69 614.096 1026.69 M614.096 1019.29 Q625.716 1019.29 631.827 1028.5 Q637.985 1037.67 637.985 1055.17 Q637.985 1072.62 631.827 1081.83 Q625.716 1091 614.096 1091 Q602.476 1091 596.318 1081.83 Q590.207 1072.62 590.207 1055.17 Q590.207 1037.67 596.318 1028.5 Q602.476 1019.29 614.096 1019.29 Z" fill="#000000" fill-rule="nonzero" fill-opacity="1" /><path clip-path="url(#clip650)" d="M526.828 752.687 Q519.606 752.687 515.948 759.817 Q512.337 766.9 512.337 781.159 Q512.337 795.372 515.948 802.502 Q519.606 809.585 526.828 809.585 Q534.096 809.585 537.708 802.502 Q541.365 795.372 541.365 781.159 Q541.365 766.9 537.708 759.817 Q534.096 752.687 526.828 752.687 M526.828 745.28 Q538.448 745.28 544.559 754.493 Q550.717 763.659 550.717 781.159 Q550.717 798.613 544.559 807.826 Q538.448 816.992 526.828 816.992 Q515.208 816.992 509.05 807.826 Q502.939 798.613 502.939 781.159 Q502.939 763.659 509.05 754.493 Q515.208 745.28 526.828 745.28 Z" fill="#000000" fill-rule="nonzero" fill-opacity="1" /><path clip-path="url(#clip650)" d="M567.152 803.891 L576.92 803.891 L576.92 815.65 L567.152 815.65 L567.152 803.891 Z" fill="#000000" fill-rule="nonzero" fill-opacity="1" /><path clip-path="url(#clip650)" d="M605.346 807.78 L637.985 807.78 L637.985 815.65 L594.096 815.65 L594.096 807.78 Q599.42 802.27 608.587 793.011 Q617.8 783.706 620.161 781.02 Q624.651 775.974 626.411 772.502 Q628.216 768.983 628.216 765.604 Q628.216 760.095 624.327 756.622 Q620.485 753.15 614.281 753.15 Q609.883 753.15 604.976 754.678 Q600.115 756.206 594.559 759.308 L594.559 749.863 Q600.207 747.595 605.115 746.437 Q610.022 745.28 614.096 745.28 Q624.837 745.28 631.226 750.65 Q637.614 756.021 637.614 765.002 Q637.614 769.261 635.994 773.104 Q634.42 776.9 630.207 782.085 Q629.05 783.428 622.846 789.863 Q616.642 796.252 605.346 807.78 Z" fill="#000000" fill-rule="nonzero" fill-opacity="1" /><path clip-path="url(#clip650)" d="M522.661 478.681 Q515.439 478.681 511.782 485.811 Q508.171 492.894 508.171 507.153 Q508.171 521.366 511.782 528.496 Q515.439 535.579 522.661 535.579 Q529.93 535.579 533.541 528.496 Q537.198 521.366 537.198 507.153 Q537.198 492.894 533.541 485.811 Q529.93 478.681 522.661 478.681 M522.661 471.274 Q534.282 471.274 540.393 480.487 Q546.55 489.653 546.55 507.153 Q546.55 524.607 540.393 533.82 Q534.282 542.986 522.661 542.986 Q511.041 542.986 504.884 533.82 Q498.773 524.607 498.773 507.153 Q498.773 489.653 504.884 480.487 Q511.041 471.274 522.661 471.274 Z" fill="#000000" fill-rule="nonzero" fill-opacity="1" /><path clip-path="url(#clip650)" d="M562.985 529.884 L572.754 529.884 L572.754 541.644 L562.985 541.644 L562.985 529.884 Z" fill="#000000" fill-rule="nonzero" fill-opacity="1" /><path clip-path="url(#clip650)" d="M618.818 480.672 L595.207 517.57 L618.818 517.57 L618.818 480.672 M616.364 472.524 L628.124 472.524 L628.124 517.57 L637.985 517.57 L637.985 525.347 L628.124 525.347 L628.124 541.644 L618.818 541.644 L618.818 525.347 L587.615 525.347 L587.615 516.32 L616.364 472.524 Z" fill="#000000" fill-rule="nonzero" fill-opacity="1" /><path clip-path="url(#clip650)" d="M523.309 204.675 Q516.087 204.675 512.43 211.804 Q508.819 218.888 508.819 233.147 Q508.819 247.36 512.43 254.489 Q516.087 261.573 523.309 261.573 Q530.578 261.573 534.189 254.489 Q537.846 247.36 537.846 233.147 Q537.846 218.888 534.189 211.804 Q530.578 204.675 523.309 204.675 M523.309 197.267 Q534.93 197.267 541.041 206.48 Q547.198 215.647 547.198 233.147 Q547.198 250.6 541.041 259.813 Q534.93 268.98 523.309 268.98 Q511.689 268.98 505.532 259.813 Q499.421 250.6 499.421 233.147 Q499.421 215.647 505.532 206.48 Q511.689 197.267 523.309 197.267 Z" fill="#000000" fill-rule="nonzero" fill-opacity="1" /><path clip-path="url(#clip650)" d="M563.633 255.878 L573.402 255.878 L573.402 267.637 L563.633 267.637 L563.633 255.878 Z" fill="#000000" fill-rule="nonzero" fill-opacity="1" /><path clip-path="url(#clip650)" d="M614.929 229.351 Q608.633 229.351 604.929 233.656 Q601.272 237.962 601.272 245.462 Q601.272 252.915 604.929 257.267 Q608.633 261.573 614.929 261.573 Q621.226 261.573 624.883 257.267 Q628.587 252.915 628.587 245.462 Q628.587 237.962 624.883 233.656 Q621.226 229.351 614.929 229.351 M633.494 200.045 L633.494 208.564 Q629.976 206.897 626.364 206.017 Q622.8 205.138 619.281 205.138 Q610.022 205.138 605.115 211.388 Q600.253 217.638 599.559 230.276 Q602.29 226.249 606.411 224.119 Q610.531 221.943 615.485 221.943 Q625.901 221.943 631.92 228.286 Q637.985 234.582 637.985 245.462 Q637.985 256.11 631.688 262.545 Q625.392 268.98 614.929 268.98 Q602.939 268.98 596.596 259.813 Q590.254 250.6 590.254 233.147 Q590.254 216.758 598.031 207.036 Q605.809 197.267 618.911 197.267 Q622.429 197.267 625.994 197.962 Q629.605 198.656 633.494 200.045 Z" fill="#000000" fill-rule="nonzero" fill-opacity="1" /><path clip-path="url(#clip650)" d="M461.378 806.497 L362.965 806.497 L362.965 794.784 L407.27 794.784 Q416.5 794.784 421.211 790.391 Q425.921 785.999 425.921 777.405 Q425.921 767.984 420.574 763.274 Q415.227 758.499 404.533 758.499 L362.965 758.499 L362.965 746.786 L417.837 746.786 Q421.656 746.786 423.502 745.704 Q425.285 744.558 425.285 742.203 Q425.285 741.63 424.967 740.612 Q424.585 739.593 423.821 737.811 L433.242 737.811 Q434.706 740.421 435.406 742.776 Q436.107 745.068 436.107 747.296 Q436.107 751.688 433.624 754.298 Q431.141 756.908 426.049 757.863 Q431.078 761.046 433.624 765.693 Q436.107 770.276 436.107 776.514 Q436.107 783.007 433.624 787.591 Q431.141 792.11 426.176 794.784 L461.378 794.784 L461.378 806.497 Z" fill="#000000" fill-rule="nonzero" fill-opacity="1" /><path clip-path="url(#clip650)" d="M397.785 675.427 Q385.054 675.427 378.051 680.71 Q371.049 685.93 371.049 695.415 Q371.049 704.836 378.051 710.12 Q385.054 715.34 397.785 715.34 Q410.453 715.34 417.455 710.12 Q424.457 704.836 424.457 695.415 Q424.457 685.93 417.455 680.71 Q410.453 675.427 397.785 675.427 M425.412 663.714 Q443.618 663.714 452.466 671.798 Q461.378 679.883 461.378 696.561 Q461.378 702.736 460.424 708.21 Q459.532 713.685 457.623 718.841 L446.228 718.841 Q449.029 713.685 450.366 708.656 Q451.703 703.627 451.703 698.407 Q451.703 686.885 445.655 681.156 Q439.671 675.427 427.513 675.427 L421.72 675.427 Q428.022 679.055 431.141 684.721 Q434.261 690.386 434.261 698.28 Q434.261 711.393 424.266 719.414 Q414.272 727.435 397.785 727.435 Q381.234 727.435 371.24 719.414 Q361.246 711.393 361.246 698.28 Q361.246 690.386 364.365 684.721 Q367.484 679.055 373.786 675.427 L362.965 675.427 L362.965 663.714 L425.412 663.714 Z" fill="#000000" fill-rule="nonzero" fill-opacity="1" /><path clip-path="url(#clip650)" d="M339.221 577.331 L339.221 566.51 L446.355 599.611 L446.355 610.433 L339.221 577.331 Z" fill="#000000" fill-rule="nonzero" fill-opacity="1" /><path clip-path="url(#clip650)" d="M461.378 513.992 L362.965 513.992 L362.965 502.28 L407.27 502.28 Q416.5 502.28 421.211 497.887 Q425.921 493.495 425.921 484.901 Q425.921 475.48 420.574 470.769 Q415.227 465.995 404.533 465.995 L362.965 465.995 L362.965 454.282 L417.837 454.282 Q421.656 454.282 423.502 453.2 Q425.285 452.054 425.285 449.699 Q425.285 449.126 424.967 448.107 Q424.585 447.089 423.821 445.307 L433.242 445.307 Q434.706 447.916 435.406 450.272 Q436.107 452.563 436.107 454.791 Q436.107 459.184 433.624 461.794 Q431.141 464.404 426.049 465.358 Q431.078 468.541 433.624 473.188 Q436.107 477.772 436.107 484.01 Q436.107 490.503 433.624 495.086 Q431.141 499.606 426.176 502.28 L461.378 502.28 L461.378 513.992 Z" fill="#000000" fill-rule="nonzero" fill-opacity="1" /><path clip-path="url(#clip650)" d="M339.221 429.329 L339.221 416.47 L423.439 416.47 L423.439 370.191 L434.261 370.191 L434.261 429.329 L339.221 429.329 Z" fill="#000000" fill-rule="nonzero" fill-opacity="1" /><polyline clip-path="url(#clip652)" style="stroke:#009af9; stroke-linecap:round; stroke-linejoin:round; stroke-width:8; stroke-opacity:1; fill:none" points="720.16,1050.2 830.101,1033.16 940.042,978.539 1049.98,846.993 1159.92,614.542 1269.87,328.745 1379.81,122.442 1489.75,122.442 1599.69,328.745 1709.63,614.542 1819.57,846.993 1929.51,978.539 2039.45,1033.16 2149.4,1050.2 2259.34,1054.25 "/>
</svg>
