<?xml version="1.0" encoding="utf-8"?>
<svg xmlns="http://www.w3.org/2000/svg" xmlns:xlink="http://www.w3.org/1999/xlink" width="600" height="400" viewBox="0 0 2400 1600">
<defs>
  <clipPath id="clip320">
    <rect x="0" y="0" width="2400" height="1600"/>
  </clipPath>
</defs>
<defs>
  <clipPath id="clip321">
    <rect x="480" y="0" width="1681" height="1600"/>
  </clipPath>
</defs>
<path clip-path="url(#clip320)" d="M558.612 1200.1 L2305.51 1200.1 L2305.51 94.4882 L558.612 94.4882  Z" fill="#ffffff" fill-rule="evenodd" fill-opacity="1"/>
<defs>
  <clipPath id="clip322">
    <rect x="558" y="94" width="1748" height="1107"/>
  </clipPath>
</defs>
<polyline clip-path="url(#clip320)" style="stroke:#000000; stroke-linecap:round; stroke-linejoin:round; stroke-width:8; stroke-opacity:1; fill:none" points="558.612,1200.1 2305.51,1200.1 "/>
<polyline clip-path="url(#clip320)" style="stroke:#000000; stroke-linecap:round; stroke-linejoin:round; stroke-width:8; stroke-opacity:1; fill:none" points="611.548,1200.1 611.548,1181.2 "/>
<polyline clip-path="url(#clip320)" style="stroke:#000000; stroke-linecap:round; stroke-linejoin:round; stroke-width:8; stroke-opacity:1; fill:none" points="1140.91,1200.1 1140.91,1181.2 "/>
<polyline clip-path="url(#clip320)" style="stroke:#000000; stroke-linecap:round; stroke-linejoin:round; stroke-width:8; stroke-opacity:1; fill:none" points="1670.28,1200.1 1670.28,1181.2 "/>
<polyline clip-path="url(#clip320)" style="stroke:#000000; stroke-linecap:round; stroke-linejoin:round; stroke-width:8; stroke-opacity:1; fill:none" points="2199.64,1200.1 2199.64,1181.2 "/>
<path clip-path="url(#clip320)" d="M611.548 1236.87 Q606.132 1236.87 603.389 1242.22 Q600.68 1247.53 600.68 1258.23 Q600.68 1268.89 603.389 1274.23 Q606.132 1279.55 611.548 1279.55 Q617 1279.55 619.708 1274.23 Q622.451 1268.89 622.451 1258.23 Q622.451 1247.53 619.708 1242.22 Q617 1236.87 611.548 1236.87 M611.548 1231.32 Q620.263 1231.32 624.847 1238.23 Q629.465 1245.1 629.465 1258.23 Q629.465 1271.32 624.847 1278.23 Q620.263 1285.1 611.548 1285.1 Q602.833 1285.1 598.215 1278.23 Q593.632 1271.32 593.632 1258.23 Q593.632 1245.1 598.215 1238.23 Q602.833 1231.32 611.548 1231.32 Z" fill="#000000" fill-rule="nonzero" fill-opacity="1" /><path clip-path="url(#clip320)" d="M1102.94 1278.19 L1114.4 1278.19 L1114.4 1238.64 L1101.94 1241.14 L1101.94 1234.76 L1114.33 1232.26 L1121.35 1232.26 L1121.35 1278.19 L1132.8 1278.19 L1132.8 1284.1 L1102.94 1284.1 L1102.94 1278.19 Z" fill="#000000" fill-rule="nonzero" fill-opacity="1" /><path clip-path="url(#clip320)" d="M1161.97 1236.87 Q1156.55 1236.87 1153.81 1242.22 Q1151.1 1247.53 1151.1 1258.23 Q1151.1 1268.89 1153.81 1274.23 Q1156.55 1279.55 1161.97 1279.55 Q1167.42 1279.55 1170.13 1274.23 Q1172.87 1268.89 1172.87 1258.23 Q1172.87 1247.53 1170.13 1242.22 Q1167.42 1236.87 1161.97 1236.87 M1161.97 1231.32 Q1170.69 1231.32 1175.27 1238.23 Q1179.89 1245.1 1179.89 1258.23 Q1179.89 1271.32 1175.27 1278.23 Q1170.69 1285.1 1161.97 1285.1 Q1153.26 1285.1 1148.64 1278.23 Q1144.05 1271.32 1144.05 1258.23 Q1144.05 1245.1 1148.64 1238.23 Q1153.26 1231.32 1161.97 1231.32 Z" fill="#000000" fill-rule="nonzero" fill-opacity="1" /><path clip-path="url(#clip320)" d="M1638.44 1278.19 L1662.91 1278.19 L1662.91 1284.1 L1630 1284.1 L1630 1278.19 Q1633.99 1274.06 1640.87 1267.12 Q1647.78 1260.14 1649.55 1258.12 Q1652.91 1254.34 1654.23 1251.73 Q1655.59 1249.1 1655.59 1246.56 Q1655.59 1242.43 1652.67 1239.83 Q1649.79 1237.22 1645.14 1237.22 Q1641.84 1237.22 1638.16 1238.37 Q1634.51 1239.51 1630.35 1241.84 L1630.35 1234.76 Q1634.58 1233.05 1638.26 1232.19 Q1641.94 1231.32 1645 1231.32 Q1653.05 1231.32 1657.84 1235.35 Q1662.64 1239.37 1662.64 1246.11 Q1662.64 1249.3 1661.42 1252.19 Q1660.24 1255.03 1657.08 1258.92 Q1656.21 1259.93 1651.56 1264.76 Q1646.91 1269.55 1638.44 1278.19 Z" fill="#000000" fill-rule="nonzero" fill-opacity="1" /><path clip-path="url(#clip320)" d="M1692.64 1236.87 Q1687.22 1236.87 1684.48 1242.22 Q1681.77 1247.53 1681.77 1258.23 Q1681.77 1268.89 1684.48 1274.23 Q1687.22 1279.55 1692.64 1279.55 Q1698.09 1279.55 1700.8 1274.23 Q1703.54 1268.89 1703.54 1258.23 Q1703.54 1247.53 1700.8 1242.22 Q1698.09 1236.87 1692.64 1236.87 M1692.64 1231.32 Q1701.35 1231.32 1705.93 1238.23 Q1710.55 1245.1 1710.55 1258.23 Q1710.55 1271.32 1705.93 1278.23 Q1701.35 1285.1 1692.64 1285.1 Q1683.92 1285.1 1679.3 1278.23 Q1674.72 1271.32 1674.72 1258.23 Q1674.72 1245.1 1679.3 1238.23 Q1683.92 1231.32 1692.64 1231.32 Z" fill="#000000" fill-rule="nonzero" fill-opacity="1" /><path clip-path="url(#clip320)" d="M2182.9 1256.14 Q2187.94 1257.22 2190.75 1260.62 Q2193.6 1264.03 2193.6 1269.03 Q2193.6 1276.7 2188.32 1280.9 Q2183.04 1285.1 2173.32 1285.1 Q2170.06 1285.1 2166.58 1284.44 Q2163.15 1283.82 2159.47 1282.53 L2159.47 1275.76 Q2162.38 1277.46 2165.85 1278.33 Q2169.33 1279.2 2173.11 1279.2 Q2179.71 1279.2 2183.15 1276.6 Q2186.62 1273.99 2186.62 1269.03 Q2186.62 1264.44 2183.39 1261.87 Q2180.19 1259.27 2174.47 1259.27 L2168.42 1259.27 L2168.42 1253.51 L2174.74 1253.51 Q2179.92 1253.51 2182.66 1251.46 Q2185.4 1249.37 2185.4 1245.48 Q2185.4 1241.49 2182.56 1239.37 Q2179.74 1237.22 2174.47 1237.22 Q2171.58 1237.22 2168.29 1237.85 Q2164.99 1238.47 2161.03 1239.79 L2161.03 1233.54 Q2165.02 1232.43 2168.49 1231.87 Q2172 1231.32 2175.09 1231.32 Q2183.08 1231.32 2187.73 1234.96 Q2192.38 1238.58 2192.38 1244.76 Q2192.38 1249.06 2189.92 1252.05 Q2187.45 1255 2182.9 1256.14 Z" fill="#000000" fill-rule="nonzero" fill-opacity="1" /><path clip-path="url(#clip320)" d="M2221.9 1236.87 Q2216.48 1236.87 2213.74 1242.22 Q2211.03 1247.53 2211.03 1258.23 Q2211.03 1268.89 2213.74 1274.23 Q2216.48 1279.55 2221.9 1279.55 Q2227.35 1279.55 2230.06 1274.23 Q2232.8 1268.89 2232.8 1258.23 Q2232.8 1247.53 2230.06 1242.22 Q2227.35 1236.87 2221.9 1236.87 M2221.9 1231.32 Q2230.61 1231.32 2235.19 1238.23 Q2239.81 1245.1 2239.81 1258.23 Q2239.81 1271.32 2235.19 1278.23 Q2230.61 1285.1 2221.9 1285.1 Q2213.18 1285.1 2208.56 1278.23 Q2203.98 1271.32 2203.98 1258.23 Q2203.98 1245.1 2208.56 1238.23 Q2213.18 1231.32 2221.9 1231.32 Z" fill="#000000" fill-rule="nonzero" fill-opacity="1" /><path clip-path="url(#clip320)" d="M994.819 1365.5 L994.819 1396.8 L986.3 1396.8 L986.3 1365.78 Q986.3 1358.42 983.43 1354.76 Q980.56 1351.11 974.819 1351.11 Q967.921 1351.11 963.939 1355.5 Q959.958 1359.9 959.958 1367.49 L959.958 1396.8 L951.393 1396.8 L951.393 1324.76 L959.958 1324.76 L959.958 1353 Q963.013 1348.33 967.134 1346.01 Q971.3 1343.7 976.717 1343.7 Q985.652 1343.7 990.235 1349.25 Q994.819 1354.76 994.819 1365.5 Z" fill="#000000" fill-rule="nonzero" fill-opacity="1" /><path clip-path="url(#clip320)" d="M1031.9 1350.92 Q1025.05 1350.92 1021.07 1356.29 Q1017.09 1361.61 1017.09 1370.92 Q1017.09 1380.23 1021.02 1385.6 Q1025 1390.92 1031.9 1390.92 Q1038.71 1390.92 1042.69 1385.55 Q1046.67 1380.18 1046.67 1370.92 Q1046.67 1361.71 1042.69 1356.34 Q1038.71 1350.92 1031.9 1350.92 M1031.9 1343.7 Q1043.01 1343.7 1049.36 1350.92 Q1055.7 1358.14 1055.7 1370.92 Q1055.7 1383.65 1049.36 1390.92 Q1043.01 1398.14 1031.9 1398.14 Q1020.74 1398.14 1014.4 1390.92 Q1008.11 1383.65 1008.11 1370.92 Q1008.11 1358.14 1014.4 1350.92 Q1020.74 1343.7 1031.9 1343.7 Z" fill="#000000" fill-rule="nonzero" fill-opacity="1" /><path clip-path="url(#clip320)" d="M1068.94 1376.34 L1068.94 1344.95 L1077.46 1344.95 L1077.46 1376.01 Q1077.46 1383.37 1080.33 1387.08 Q1083.2 1390.73 1088.94 1390.73 Q1095.84 1390.73 1099.82 1386.34 Q1103.85 1381.94 1103.85 1374.35 L1103.85 1344.95 L1112.36 1344.95 L1112.36 1396.8 L1103.85 1396.8 L1103.85 1388.84 Q1100.74 1393.56 1096.62 1395.87 Q1092.55 1398.14 1087.13 1398.14 Q1078.2 1398.14 1073.57 1392.59 Q1068.94 1387.03 1068.94 1376.34 M1090.37 1343.7 L1090.37 1343.7 Z" fill="#000000" fill-rule="nonzero" fill-opacity="1" /><path clip-path="url(#clip320)" d="M1159.96 1352.91 Q1158.52 1352.08 1156.81 1351.71 Q1155.14 1351.29 1153.1 1351.29 Q1145.88 1351.29 1141.99 1356.01 Q1138.15 1360.69 1138.15 1369.49 L1138.15 1396.8 L1129.59 1396.8 L1129.59 1344.95 L1138.15 1344.95 L1138.15 1353 Q1140.84 1348.28 1145.14 1346.01 Q1149.45 1343.7 1155.6 1343.7 Q1156.48 1343.7 1157.55 1343.84 Q1158.61 1343.93 1159.91 1344.16 L1159.96 1352.91 Z" fill="#000000" fill-rule="nonzero" fill-opacity="1" /><path clip-path="url(#clip320)" d="M1201.95 1346.48 L1201.95 1354.53 Q1198.34 1352.68 1194.45 1351.75 Q1190.56 1350.83 1186.39 1350.83 Q1180.05 1350.83 1176.85 1352.77 Q1173.71 1354.72 1173.71 1358.61 Q1173.71 1361.57 1175.98 1363.28 Q1178.24 1364.95 1185.1 1366.48 L1188.01 1367.12 Q1197.09 1369.07 1200.88 1372.63 Q1204.73 1376.15 1204.73 1382.49 Q1204.73 1389.72 1198.98 1393.93 Q1193.29 1398.14 1183.29 1398.14 Q1179.12 1398.14 1174.59 1397.31 Q1170.1 1396.52 1165.1 1394.9 L1165.1 1386.11 Q1169.82 1388.56 1174.4 1389.81 Q1178.98 1391.01 1183.48 1391.01 Q1189.49 1391.01 1192.73 1388.98 Q1195.98 1386.89 1195.98 1383.14 Q1195.98 1379.67 1193.61 1377.82 Q1191.3 1375.97 1183.38 1374.25 L1180.42 1373.56 Q1172.5 1371.89 1168.98 1368.47 Q1165.47 1364.99 1165.47 1358.98 Q1165.47 1351.66 1170.65 1347.68 Q1175.84 1343.7 1185.37 1343.7 Q1190.1 1343.7 1194.26 1344.39 Q1198.43 1345.09 1201.95 1346.48 Z" fill="#000000" fill-rule="nonzero" fill-opacity="1" /><path clip-path="url(#clip320)" d="M1281.48 1346.48 L1281.48 1354.53 Q1277.87 1352.68 1273.98 1351.75 Q1270.1 1350.83 1265.93 1350.83 Q1259.59 1350.83 1256.39 1352.77 Q1253.24 1354.72 1253.24 1358.61 Q1253.24 1361.57 1255.51 1363.28 Q1257.78 1364.95 1264.63 1366.48 L1267.55 1367.12 Q1276.62 1369.07 1280.42 1372.63 Q1284.26 1376.15 1284.26 1382.49 Q1284.26 1389.72 1278.52 1393.93 Q1272.83 1398.14 1262.83 1398.14 Q1258.66 1398.14 1254.12 1397.31 Q1249.63 1396.52 1244.63 1394.9 L1244.63 1386.11 Q1249.35 1388.56 1253.94 1389.81 Q1258.52 1391.01 1263.01 1391.01 Q1269.03 1391.01 1272.27 1388.98 Q1275.51 1386.89 1275.51 1383.14 Q1275.51 1379.67 1273.15 1377.82 Q1270.84 1375.97 1262.92 1374.25 L1259.96 1373.56 Q1252.04 1371.89 1248.52 1368.47 Q1245 1364.99 1245 1358.98 Q1245 1351.66 1250.19 1347.68 Q1255.37 1343.7 1264.91 1343.7 Q1269.63 1343.7 1273.8 1344.39 Q1277.97 1345.09 1281.48 1346.48 Z" fill="#000000" fill-rule="nonzero" fill-opacity="1" /><path clip-path="url(#clip320)" d="M1297.83 1344.95 L1306.34 1344.95 L1306.34 1396.8 L1297.83 1396.8 L1297.83 1344.95 M1297.83 1324.76 L1306.34 1324.76 L1306.34 1335.55 L1297.83 1335.55 L1297.83 1324.76 Z" fill="#000000" fill-rule="nonzero" fill-opacity="1" /><path clip-path="url(#clip320)" d="M1367.27 1365.5 L1367.27 1396.8 L1358.75 1396.8 L1358.75 1365.78 Q1358.75 1358.42 1355.88 1354.76 Q1353.01 1351.11 1347.27 1351.11 Q1340.37 1351.11 1336.39 1355.5 Q1332.41 1359.9 1332.41 1367.49 L1332.41 1396.8 L1323.84 1396.8 L1323.84 1344.95 L1332.41 1344.95 L1332.41 1353 Q1335.47 1348.33 1339.59 1346.01 Q1343.75 1343.7 1349.17 1343.7 Q1358.1 1343.7 1362.69 1349.25 Q1367.27 1354.76 1367.27 1365.5 Z" fill="#000000" fill-rule="nonzero" fill-opacity="1" /><path clip-path="url(#clip320)" d="M1421.58 1346.94 L1421.58 1354.9 Q1417.96 1352.91 1414.31 1351.94 Q1410.7 1350.92 1406.99 1350.92 Q1398.71 1350.92 1394.12 1356.2 Q1389.54 1361.43 1389.54 1370.92 Q1389.54 1380.41 1394.12 1385.69 Q1398.71 1390.92 1406.99 1390.92 Q1410.7 1390.92 1414.31 1389.95 Q1417.96 1388.93 1421.58 1386.94 L1421.58 1394.81 Q1418.01 1396.48 1414.17 1397.31 Q1410.37 1398.14 1406.07 1398.14 Q1394.35 1398.14 1387.46 1390.78 Q1380.56 1383.42 1380.56 1370.92 Q1380.56 1358.24 1387.5 1350.97 Q1394.49 1343.7 1406.62 1343.7 Q1410.56 1343.7 1414.31 1344.53 Q1418.06 1345.32 1421.58 1346.94 Z" fill="#000000" fill-rule="nonzero" fill-opacity="1" /><path clip-path="url(#clip320)" d="M1480.74 1368.74 L1480.74 1372.91 L1441.58 1372.91 Q1442.13 1381.71 1446.85 1386.34 Q1451.62 1390.92 1460.09 1390.92 Q1465 1390.92 1469.58 1389.72 Q1474.21 1388.51 1478.75 1386.11 L1478.75 1394.16 Q1474.17 1396.11 1469.35 1397.12 Q1464.54 1398.14 1459.58 1398.14 Q1447.18 1398.14 1439.91 1390.92 Q1432.69 1383.7 1432.69 1371.38 Q1432.69 1358.65 1439.54 1351.2 Q1446.44 1343.7 1458.1 1343.7 Q1468.57 1343.7 1474.63 1350.46 Q1480.74 1357.17 1480.74 1368.74 M1472.22 1366.24 Q1472.13 1359.25 1468.29 1355.09 Q1464.49 1350.92 1458.2 1350.92 Q1451.07 1350.92 1446.76 1354.95 Q1442.5 1358.98 1441.85 1366.29 L1472.22 1366.24 Z" fill="#000000" fill-rule="nonzero" fill-opacity="1" /><path clip-path="url(#clip320)" d="M1524.86 1344.95 L1533.38 1344.95 L1533.38 1396.8 L1524.86 1396.8 L1524.86 1344.95 M1524.86 1324.76 L1533.38 1324.76 L1533.38 1335.55 L1524.86 1335.55 L1524.86 1324.76 Z" fill="#000000" fill-rule="nonzero" fill-opacity="1" /><path clip-path="url(#clip320)" d="M1594.31 1365.5 L1594.31 1396.8 L1585.79 1396.8 L1585.79 1365.78 Q1585.79 1358.42 1582.92 1354.76 Q1580.05 1351.11 1574.31 1351.11 Q1567.41 1351.11 1563.43 1355.5 Q1559.45 1359.9 1559.45 1367.49 L1559.45 1396.8 L1550.88 1396.8 L1550.88 1344.95 L1559.45 1344.95 L1559.45 1353 Q1562.5 1348.33 1566.62 1346.01 Q1570.79 1343.7 1576.2 1343.7 Q1585.14 1343.7 1589.72 1349.25 Q1594.31 1354.76 1594.31 1365.5 Z" fill="#000000" fill-rule="nonzero" fill-opacity="1" /><path clip-path="url(#clip320)" d="M1611.3 1344.95 L1619.82 1344.95 L1619.82 1397.73 Q1619.82 1407.63 1616.02 1412.08 Q1612.27 1416.52 1603.89 1416.52 L1600.65 1416.52 L1600.65 1409.3 L1602.92 1409.3 Q1607.78 1409.3 1609.54 1407.03 Q1611.3 1404.81 1611.3 1397.73 L1611.3 1344.95 M1611.3 1324.76 L1619.82 1324.76 L1619.82 1335.55 L1611.3 1335.55 L1611.3 1324.76 Z" fill="#000000" fill-rule="nonzero" fill-opacity="1" /><path clip-path="url(#clip320)" d="M1681.99 1368.74 L1681.99 1372.91 L1642.82 1372.91 Q1643.38 1381.71 1648.1 1386.34 Q1652.87 1390.92 1661.34 1390.92 Q1666.25 1390.92 1670.83 1389.72 Q1675.46 1388.51 1680 1386.11 L1680 1394.16 Q1675.42 1396.11 1670.6 1397.12 Q1665.79 1398.14 1660.83 1398.14 Q1648.43 1398.14 1641.16 1390.92 Q1633.94 1383.7 1633.94 1371.38 Q1633.94 1358.65 1640.79 1351.2 Q1647.69 1343.7 1659.35 1343.7 Q1669.82 1343.7 1675.88 1350.46 Q1681.99 1357.17 1681.99 1368.74 M1673.47 1366.24 Q1673.38 1359.25 1669.54 1355.09 Q1665.74 1350.92 1659.44 1350.92 Q1652.32 1350.92 1648.01 1354.95 Q1643.75 1358.98 1643.1 1366.29 L1673.47 1366.24 Z" fill="#000000" fill-rule="nonzero" fill-opacity="1" /><path clip-path="url(#clip320)" d="M1733.29 1346.94 L1733.29 1354.9 Q1729.68 1352.91 1726.02 1351.94 Q1722.41 1350.92 1718.7 1350.92 Q1710.42 1350.92 1705.83 1356.2 Q1701.25 1361.43 1701.25 1370.92 Q1701.25 1380.41 1705.83 1385.69 Q1710.42 1390.92 1718.7 1390.92 Q1722.41 1390.92 1726.02 1389.95 Q1729.68 1388.93 1733.29 1386.94 L1733.29 1394.81 Q1729.72 1396.48 1725.88 1397.31 Q1722.08 1398.14 1717.78 1398.14 Q1706.06 1398.14 1699.17 1390.78 Q1692.27 1383.42 1692.27 1370.92 Q1692.27 1358.24 1699.21 1350.97 Q1706.2 1343.7 1718.33 1343.7 Q1722.27 1343.7 1726.02 1344.53 Q1729.77 1345.32 1733.29 1346.94 Z" fill="#000000" fill-rule="nonzero" fill-opacity="1" /><path clip-path="url(#clip320)" d="M1756.53 1330.23 L1756.53 1344.95 L1774.07 1344.95 L1774.07 1351.57 L1756.53 1351.57 L1756.53 1379.72 Q1756.53 1386.06 1758.24 1387.86 Q1760 1389.67 1765.32 1389.67 L1774.07 1389.67 L1774.07 1396.8 L1765.32 1396.8 Q1755.46 1396.8 1751.71 1393.14 Q1747.96 1389.44 1747.96 1379.72 L1747.96 1351.57 L1741.71 1351.57 L1741.71 1344.95 L1747.96 1344.95 L1747.96 1330.23 L1756.53 1330.23 Z" fill="#000000" fill-rule="nonzero" fill-opacity="1" /><path clip-path="url(#clip320)" d="M1785.28 1344.95 L1793.8 1344.95 L1793.8 1396.8 L1785.28 1396.8 L1785.28 1344.95 M1785.28 1324.76 L1793.8 1324.76 L1793.8 1335.55 L1785.28 1335.55 L1785.28 1324.76 Z" fill="#000000" fill-rule="nonzero" fill-opacity="1" /><path clip-path="url(#clip320)" d="M1831.71 1350.92 Q1824.86 1350.92 1820.88 1356.29 Q1816.9 1361.61 1816.9 1370.92 Q1816.9 1380.23 1820.83 1385.6 Q1824.81 1390.92 1831.71 1390.92 Q1838.52 1390.92 1842.5 1385.55 Q1846.48 1380.18 1846.48 1370.92 Q1846.48 1361.71 1842.5 1356.34 Q1838.52 1350.92 1831.71 1350.92 M1831.71 1343.7 Q1842.82 1343.7 1849.17 1350.92 Q1855.51 1358.14 1855.51 1370.92 Q1855.51 1383.65 1849.17 1390.92 Q1842.82 1398.14 1831.71 1398.14 Q1820.56 1398.14 1814.21 1390.92 Q1807.92 1383.65 1807.92 1370.92 Q1807.92 1358.14 1814.21 1350.92 Q1820.56 1343.7 1831.71 1343.7 Z" fill="#000000" fill-rule="nonzero" fill-opacity="1" /><path clip-path="url(#clip320)" d="M1912.73 1365.5 L1912.73 1396.8 L1904.21 1396.8 L1904.21 1365.78 Q1904.21 1358.42 1901.34 1354.76 Q1898.47 1351.11 1892.73 1351.11 Q1885.83 1351.11 1881.85 1355.5 Q1877.87 1359.9 1877.87 1367.49 L1877.87 1396.8 L1869.3 1396.8 L1869.3 1344.95 L1877.87 1344.95 L1877.87 1353 Q1880.93 1348.33 1885.05 1346.01 Q1889.21 1343.7 1894.63 1343.7 Q1903.56 1343.7 1908.15 1349.25 Q1912.73 1354.76 1912.73 1365.5 Z" fill="#000000" fill-rule="nonzero" fill-opacity="1" /><polyline clip-path="url(#clip320)" style="stroke:#000000; stroke-linecap:round; stroke-linejoin:round; stroke-width:8; stroke-opacity:1; fill:none" points="558.612,1200.1 558.612,94.4882 "/>
<polyline clip-path="url(#clip320)" style="stroke:#000000; stroke-linecap:round; stroke-linejoin:round; stroke-width:8; stroke-opacity:1; fill:none" points="558.612,851.993 577.509,851.993 "/>
<polyline clip-path="url(#clip320)" style="stroke:#000000; stroke-linecap:round; stroke-linejoin:round; stroke-width:8; stroke-opacity:1; fill:none" points="558.612,503.889 577.509,503.889 "/>
<polyline clip-path="url(#clip320)" style="stroke:#000000; stroke-linecap:round; stroke-linejoin:round; stroke-width:8; stroke-opacity:1; fill:none" points="558.612,155.786 577.509,155.786 "/>
<path clip-path="url(#clip320)" d="M492.751 872.01 L504.209 872.01 L504.209 832.461 L491.744 834.961 L491.744 828.573 L504.14 826.073 L511.154 826.073 L511.154 872.01 L522.612 872.01 L522.612 877.913 L492.751 877.913 L492.751 872.01 Z" fill="#000000" fill-rule="nonzero" fill-opacity="1" /><path clip-path="url(#clip320)" d="M445.668 523.907 L457.126 523.907 L457.126 484.358 L444.661 486.858 L444.661 480.469 L457.057 477.969 L464.07 477.969 L464.07 523.907 L475.529 523.907 L475.529 529.809 L445.668 529.809 L445.668 523.907 Z" fill="#000000" fill-rule="nonzero" fill-opacity="1" /><path clip-path="url(#clip320)" d="M504.695 482.587 Q499.279 482.587 496.536 487.935 Q493.827 493.247 493.827 503.941 Q493.827 514.601 496.536 519.948 Q499.279 525.261 504.695 525.261 Q510.147 525.261 512.855 519.948 Q515.598 514.601 515.598 503.941 Q515.598 493.247 512.855 487.935 Q510.147 482.587 504.695 482.587 M504.695 477.032 Q513.41 477.032 517.994 483.942 Q522.612 490.816 522.612 503.941 Q522.612 517.032 517.994 523.941 Q513.41 530.816 504.695 530.816 Q495.98 530.816 491.362 523.941 Q486.779 517.032 486.779 503.941 Q486.779 490.816 491.362 483.942 Q495.98 477.032 504.695 477.032 Z" fill="#000000" fill-rule="nonzero" fill-opacity="1" /><path clip-path="url(#clip320)" d="M400.425 175.803 L411.883 175.803 L411.883 136.255 L399.418 138.755 L399.418 132.366 L411.814 129.866 L418.828 129.866 L418.828 175.803 L430.286 175.803 L430.286 181.706 L400.425 181.706 L400.425 175.803 Z" fill="#000000" fill-rule="nonzero" fill-opacity="1" /><path clip-path="url(#clip320)" d="M459.452 134.484 Q454.036 134.484 451.293 139.831 Q448.584 145.144 448.584 155.838 Q448.584 166.498 451.293 171.845 Q454.036 177.158 459.452 177.158 Q464.904 177.158 467.612 171.845 Q470.355 166.498 470.355 155.838 Q470.355 145.144 467.612 139.831 Q464.904 134.484 459.452 134.484 M459.452 128.929 Q468.168 128.929 472.751 135.838 Q477.369 142.713 477.369 155.838 Q477.369 168.928 472.751 175.838 Q468.168 182.713 459.452 182.713 Q450.737 182.713 446.119 175.838 Q441.536 168.928 441.536 155.838 Q441.536 142.713 446.119 135.838 Q450.737 128.929 459.452 128.929 Z" fill="#000000" fill-rule="nonzero" fill-opacity="1" /><path clip-path="url(#clip320)" d="M504.695 134.484 Q499.279 134.484 496.536 139.831 Q493.827 145.144 493.827 155.838 Q493.827 166.498 496.536 171.845 Q499.279 177.158 504.695 177.158 Q510.147 177.158 512.855 171.845 Q515.598 166.498 515.598 155.838 Q515.598 145.144 512.855 139.831 Q510.147 134.484 504.695 134.484 M504.695 128.929 Q513.41 128.929 517.994 135.838 Q522.612 142.713 522.612 155.838 Q522.612 168.928 517.994 175.838 Q513.41 182.713 504.695 182.713 Q495.98 182.713 491.362 175.838 Q486.779 168.928 486.779 155.838 Q486.779 142.713 491.362 135.838 Q495.98 128.929 504.695 128.929 Z" fill="#000000" fill-rule="nonzero" fill-opacity="1" /><path clip-path="url(#clip320)" d="M298.793 1101.94 Q297.96 1103.38 297.59 1105.09 Q297.173 1106.76 297.173 1108.79 Q297.173 1116.02 301.895 1119.91 Q306.571 1123.75 315.367 1123.75 L342.682 1123.75 L342.682 1132.31 L290.83 1132.31 L290.83 1123.75 L298.886 1123.75 Q294.164 1121.06 291.895 1116.76 Q289.58 1112.45 289.58 1106.29 Q289.58 1105.41 289.719 1104.35 Q289.812 1103.28 290.043 1101.99 L298.793 1101.94 Z" fill="#000000" fill-rule="nonzero" fill-opacity="1" /><path clip-path="url(#clip320)" d="M314.627 1050.74 L318.793 1050.74 L318.793 1089.91 Q327.59 1089.35 332.219 1084.63 Q336.802 1079.86 336.802 1071.39 Q336.802 1066.48 335.599 1061.9 Q334.395 1057.27 331.988 1052.73 L340.043 1052.73 Q341.988 1057.31 343.006 1062.13 Q344.025 1066.94 344.025 1071.9 Q344.025 1084.3 336.802 1091.57 Q329.58 1098.79 317.266 1098.79 Q304.534 1098.79 297.08 1091.94 Q289.58 1085.04 289.58 1073.38 Q289.58 1062.91 296.34 1056.85 Q303.053 1050.74 314.627 1050.74 M312.127 1059.26 Q305.136 1059.35 300.969 1063.19 Q296.803 1066.99 296.803 1073.29 Q296.803 1080.41 300.83 1084.72 Q304.858 1088.98 312.173 1089.63 L312.127 1059.26 Z" fill="#000000" fill-rule="nonzero" fill-opacity="1" /><path clip-path="url(#clip320)" d="M300.784 996.387 Q295.043 993.193 292.312 988.748 Q289.58 984.304 289.58 978.286 Q289.58 970.184 295.275 965.786 Q300.923 961.388 311.386 961.388 L342.682 961.388 L342.682 969.952 L311.664 969.952 Q304.21 969.952 300.599 972.591 Q296.988 975.23 296.988 980.647 Q296.988 987.267 301.386 991.11 Q305.784 994.952 313.377 994.952 L342.682 994.952 L342.682 1003.52 L311.664 1003.52 Q304.164 1003.52 300.599 1006.16 Q296.988 1008.79 296.988 1014.3 Q296.988 1020.83 301.432 1024.67 Q305.83 1028.52 313.377 1028.52 L342.682 1028.52 L342.682 1037.08 L290.83 1037.08 L290.83 1028.52 L298.886 1028.52 Q294.117 1025.6 291.849 1021.53 Q289.58 1017.45 289.58 1011.85 Q289.58 1006.2 292.451 1002.27 Q295.321 998.285 300.784 996.387 Z" fill="#000000" fill-rule="nonzero" fill-opacity="1" /><path clip-path="url(#clip320)" d="M316.617 920.832 Q316.617 931.156 318.978 935.138 Q321.34 939.119 327.034 939.119 Q331.571 939.119 334.256 936.156 Q336.895 933.147 336.895 928.008 Q336.895 920.925 331.895 916.666 Q326.849 912.36 318.515 912.36 L316.617 912.36 L316.617 920.832 M313.099 903.842 L342.682 903.842 L342.682 912.36 L334.812 912.36 Q339.534 915.277 341.802 919.628 Q344.025 923.98 344.025 930.277 Q344.025 938.239 339.58 942.962 Q335.089 947.638 327.59 947.638 Q318.84 947.638 314.395 941.804 Q309.951 935.925 309.951 924.304 L309.951 912.36 L309.117 912.36 Q303.238 912.36 300.043 916.249 Q296.803 920.091 296.803 927.082 Q296.803 931.527 297.867 935.739 Q298.932 939.952 301.062 943.841 L293.192 943.841 Q291.386 939.165 290.506 934.767 Q289.58 930.369 289.58 926.203 Q289.58 914.953 295.414 909.397 Q301.247 903.842 313.099 903.842 Z" fill="#000000" fill-rule="nonzero" fill-opacity="1" /><path clip-path="url(#clip320)" d="M290.83 886.295 L290.83 877.777 L342.682 877.777 L342.682 886.295 L290.83 886.295 M270.645 886.295 L270.645 877.777 L281.432 877.777 L281.432 886.295 L270.645 886.295 Z" fill="#000000" fill-rule="nonzero" fill-opacity="1" /><path clip-path="url(#clip320)" d="M311.386 816.851 L342.682 816.851 L342.682 825.37 L311.664 825.37 Q304.303 825.37 300.645 828.24 Q296.988 831.11 296.988 836.851 Q296.988 843.749 301.386 847.731 Q305.784 851.712 313.377 851.712 L342.682 851.712 L342.682 860.277 L290.83 860.277 L290.83 851.712 L298.886 851.712 Q294.21 848.657 291.895 844.536 Q289.58 840.37 289.58 834.953 Q289.58 826.018 295.136 821.435 Q300.645 816.851 311.386 816.851 Z" fill="#000000" fill-rule="nonzero" fill-opacity="1" /><path clip-path="url(#clip320)" d="M290.83 799.861 L290.83 791.342 L342.682 791.342 L342.682 799.861 L290.83 799.861 M270.645 799.861 L270.645 791.342 L281.432 791.342 L281.432 799.861 L270.645 799.861 Z" fill="#000000" fill-rule="nonzero" fill-opacity="1" /><path clip-path="url(#clip320)" d="M311.386 730.417 L342.682 730.417 L342.682 738.935 L311.664 738.935 Q304.303 738.935 300.645 741.805 Q296.988 744.676 296.988 750.416 Q296.988 757.315 301.386 761.296 Q305.784 765.277 313.377 765.277 L342.682 765.277 L342.682 773.842 L290.83 773.842 L290.83 765.277 L298.886 765.277 Q294.21 762.222 291.895 758.102 Q289.58 753.935 289.58 748.518 Q289.58 739.583 295.136 735 Q300.645 730.417 311.386 730.417 Z" fill="#000000" fill-rule="nonzero" fill-opacity="1" /><path clip-path="url(#clip320)" d="M316.154 679.306 Q306.895 679.306 301.803 683.148 Q296.71 686.945 296.71 693.843 Q296.71 700.694 301.803 704.537 Q306.895 708.333 316.154 708.333 Q325.367 708.333 330.46 704.537 Q335.552 700.694 335.552 693.843 Q335.552 686.945 330.46 683.148 Q325.367 679.306 316.154 679.306 M336.247 670.787 Q349.488 670.787 355.923 676.667 Q362.404 682.546 362.404 694.676 Q362.404 699.167 361.71 703.148 Q361.062 707.13 359.673 710.88 L351.386 710.88 Q353.423 707.13 354.395 703.472 Q355.367 699.815 355.367 696.019 Q355.367 687.639 350.969 683.472 Q346.617 679.306 337.775 679.306 L333.562 679.306 Q338.145 681.945 340.414 686.065 Q342.682 690.185 342.682 695.926 Q342.682 705.463 335.414 711.296 Q328.145 717.13 316.154 717.13 Q304.117 717.13 296.849 711.296 Q289.58 705.463 289.58 695.926 Q289.58 690.185 291.849 686.065 Q294.117 681.945 298.701 679.306 L290.83 679.306 L290.83 670.787 L336.247 670.787 Z" fill="#000000" fill-rule="nonzero" fill-opacity="1" /><path clip-path="url(#clip320)" d="M276.108 614.676 L290.83 614.676 L290.83 597.13 L297.451 597.13 L297.451 614.676 L325.599 614.676 Q331.941 614.676 333.747 612.963 Q335.552 611.204 335.552 605.88 L335.552 597.13 L342.682 597.13 L342.682 605.88 Q342.682 615.741 339.025 619.491 Q335.321 623.241 325.599 623.241 L297.451 623.241 L297.451 629.491 L290.83 629.491 L290.83 623.241 L276.108 623.241 L276.108 614.676 Z" fill="#000000" fill-rule="nonzero" fill-opacity="1" /><path clip-path="url(#clip320)" d="M298.793 555.88 Q297.96 557.316 297.59 559.029 Q297.173 560.695 297.173 562.732 Q297.173 569.954 301.895 573.843 Q306.571 577.686 315.367 577.686 L342.682 577.686 L342.682 586.251 L290.83 586.251 L290.83 577.686 L298.886 577.686 Q294.164 575.001 291.895 570.695 Q289.58 566.39 289.58 560.232 Q289.58 559.353 289.719 558.288 Q289.812 557.223 290.043 555.927 L298.793 555.88 Z" fill="#000000" fill-rule="nonzero" fill-opacity="1" /><path clip-path="url(#clip320)" d="M316.617 523.381 Q316.617 533.705 318.978 537.686 Q321.34 541.668 327.034 541.668 Q331.571 541.668 334.256 538.705 Q336.895 535.695 336.895 530.556 Q336.895 523.473 331.895 519.214 Q326.849 514.908 318.515 514.908 L316.617 514.908 L316.617 523.381 M313.099 506.39 L342.682 506.39 L342.682 514.908 L334.812 514.908 Q339.534 517.825 341.802 522.177 Q344.025 526.529 344.025 532.825 Q344.025 540.788 339.58 545.51 Q335.089 550.186 327.59 550.186 Q318.84 550.186 314.395 544.353 Q309.951 538.473 309.951 526.853 L309.951 514.908 L309.117 514.908 Q303.238 514.908 300.043 518.797 Q296.803 522.64 296.803 529.631 Q296.803 534.075 297.867 538.288 Q298.932 542.501 301.062 546.39 L293.192 546.39 Q291.386 541.714 290.506 537.316 Q289.58 532.918 289.58 528.751 Q289.58 517.501 295.414 511.945 Q301.247 506.39 313.099 506.39 Z" fill="#000000" fill-rule="nonzero" fill-opacity="1" /><path clip-path="url(#clip320)" d="M292.821 451.529 L300.784 451.529 Q298.793 455.14 297.821 458.798 Q296.803 462.409 296.803 466.112 Q296.803 474.399 302.08 478.983 Q307.312 483.566 316.803 483.566 Q326.293 483.566 331.571 478.983 Q336.802 474.399 336.802 466.112 Q336.802 462.409 335.83 458.798 Q334.812 455.14 332.821 451.529 L340.691 451.529 Q342.358 455.094 343.191 458.936 Q344.025 462.733 344.025 467.038 Q344.025 478.751 336.664 485.649 Q329.302 492.547 316.803 492.547 Q304.117 492.547 296.849 485.603 Q289.58 478.612 289.58 466.483 Q289.58 462.548 290.414 458.798 Q291.201 455.048 292.821 451.529 Z" fill="#000000" fill-rule="nonzero" fill-opacity="1" /><path clip-path="url(#clip320)" d="M314.627 392.363 L318.793 392.363 L318.793 431.529 Q327.59 430.974 332.219 426.251 Q336.802 421.483 336.802 413.011 Q336.802 408.103 335.599 403.52 Q334.395 398.891 331.988 394.354 L340.043 394.354 Q341.988 398.937 343.006 403.752 Q344.025 408.566 344.025 413.52 Q344.025 425.927 336.802 433.196 Q329.58 440.418 317.266 440.418 Q304.534 440.418 297.08 433.566 Q289.58 426.668 289.58 415.002 Q289.58 404.539 296.34 398.474 Q303.053 392.363 314.627 392.363 M312.127 400.881 Q305.136 400.974 300.969 404.816 Q296.803 408.613 296.803 414.909 Q296.803 422.039 300.83 426.344 Q304.858 430.603 312.173 431.251 L312.127 400.881 Z" fill="#000000" fill-rule="nonzero" fill-opacity="1" /><path clip-path="url(#clip320)" d="M298.793 348.335 Q297.96 349.77 297.59 351.483 Q297.173 353.15 297.173 355.187 Q297.173 362.409 301.895 366.298 Q306.571 370.141 315.367 370.141 L342.682 370.141 L342.682 378.705 L290.83 378.705 L290.83 370.141 L298.886 370.141 Q294.164 367.456 291.895 363.15 Q289.58 358.844 289.58 352.687 Q289.58 351.807 289.719 350.743 Q289.812 349.678 290.043 348.382 L298.793 348.335 Z" fill="#000000" fill-rule="nonzero" fill-opacity="1" /><path clip-path="url(#clip320)" d="M270.645 310.048 L270.645 290.419 L277.266 290.419 L277.266 301.53 L348.562 301.53 L348.562 290.419 L355.182 290.419 L355.182 310.048 L270.645 310.048 Z" fill="#000000" fill-rule="nonzero" fill-opacity="1" /><path clip-path="url(#clip320)" d="M312.266 212.271 Q312.266 216.299 315.691 218.614 Q319.117 220.882 325.228 220.882 Q331.247 220.882 334.719 218.614 Q338.145 216.299 338.145 212.271 Q338.145 208.336 334.719 206.067 Q331.247 203.753 325.228 203.753 Q319.164 203.753 315.738 206.067 Q312.266 208.336 312.266 212.271 M306.386 212.271 Q306.386 204.956 311.478 200.651 Q316.571 196.345 325.228 196.345 Q333.886 196.345 338.978 200.697 Q344.025 205.003 344.025 212.271 Q344.025 219.679 338.978 223.984 Q333.886 228.29 325.228 228.29 Q316.525 228.29 311.478 223.984 Q306.386 219.632 306.386 212.271 M278.192 260.049 Q278.192 264.03 281.664 266.345 Q285.09 268.613 291.108 268.613 Q297.219 268.613 300.645 266.345 Q304.071 264.076 304.071 260.049 Q304.071 256.021 300.645 253.752 Q297.219 251.438 291.108 251.438 Q285.136 251.438 281.664 253.752 Q278.192 256.067 278.192 260.049 M272.312 218.243 L272.312 210.836 L344.025 254.076 L344.025 261.484 L272.312 218.243 M272.312 260.049 Q272.312 252.734 277.405 248.382 Q282.451 244.03 291.108 244.03 Q299.858 244.03 304.904 248.382 Q309.951 252.688 309.951 260.049 Q309.951 267.41 304.904 271.715 Q299.812 275.975 291.108 275.975 Q282.497 275.975 277.405 271.669 Q272.312 267.363 272.312 260.049 Z" fill="#000000" fill-rule="nonzero" fill-opacity="1" /><path clip-path="url(#clip320)" d="M270.645 162.271 L355.182 162.271 L355.182 181.901 L348.562 181.901 L348.562 170.836 L277.266 170.836 L277.266 181.901 L270.645 181.901 L270.645 162.271 Z" fill="#000000" fill-rule="nonzero" fill-opacity="1" /><polyline clip-path="url(#clip322)" style="stroke:#ca8894; stroke-linecap:round; stroke-linejoin:round; stroke-width:8; stroke-opacity:1; fill:none" points="611.548,155.786 664.485,173.404 876.23,193.348 1458.53,298.138 2093.77,371.537 "/>
<circle clip-path="url(#clip322)" cx="611.548" cy="155.786" r="28.8" fill="#e7c1c8" fill-rule="evenodd" fill-opacity="1" stroke="#ca8894" stroke-opacity="1" stroke-width="6.4"/>
<circle clip-path="url(#clip322)" cx="664.485" cy="173.404" r="28.8" fill="#e7c1c8" fill-rule="evenodd" fill-opacity="1" stroke="#ca8894" stroke-opacity="1" stroke-width="6.4"/>
<circle clip-path="url(#clip322)" cx="876.23" cy="193.348" r="28.8" fill="#e7c1c8" fill-rule="evenodd" fill-opacity="1" stroke="#ca8894" stroke-opacity="1" stroke-width="6.4"/>
<circle clip-path="url(#clip322)" cx="1458.53" cy="298.138" r="28.8" fill="#e7c1c8" fill-rule="evenodd" fill-opacity="1" stroke="#ca8894" stroke-opacity="1" stroke-width="6.4"/>
<circle clip-path="url(#clip322)" cx="2093.77" cy="371.537" r="28.8" fill="#e7c1c8" fill-rule="evenodd" fill-opacity="1" stroke="#ca8894" stroke-opacity="1" stroke-width="6.4"/>
<polyline clip-path="url(#clip322)" style="stroke:#7ac4c1; stroke-linecap:round; stroke-linejoin:round; stroke-width:8; stroke-opacity:1; fill:none" points="664.485,895.484 876.23,763.131 1458.53,942.373 2093.77,990.517 "/>
<circle clip-path="url(#clip322)" cx="664.485" cy="895.484" r="28.8" fill="#b4dbdb" fill-rule="evenodd" fill-opacity="1" stroke="#7ac4c1" stroke-opacity="1" stroke-width="6.4"/>
<circle clip-path="url(#clip322)" cx="876.23" cy="763.131" r="28.8" fill="#b4dbdb" fill-rule="evenodd" fill-opacity="1" stroke="#7ac4c1" stroke-opacity="1" stroke-width="6.4"/>
<circle clip-path="url(#clip322)" cx="1458.53" cy="942.373" r="28.8" fill="#b4dbdb" fill-rule="evenodd" fill-opacity="1" stroke="#7ac4c1" stroke-opacity="1" stroke-width="6.4"/>
<circle clip-path="url(#clip322)" cx="2093.77" cy="990.517" r="28.8" fill="#b4dbdb" fill-rule="evenodd" fill-opacity="1" stroke="#7ac4c1" stroke-opacity="1" stroke-width="6.4"/>
<path clip-path="url(#clip320)" d="M1899.19 364.622 L2247.28 364.622 L2247.28 131.342 L1899.19 131.342  Z" fill="#ffffff" fill-rule="evenodd" fill-opacity="1"/>
<polyline clip-path="url(#clip320)" style="stroke:#ffffff; stroke-linecap:round; stroke-linejoin:round; stroke-width:8; stroke-opacity:1; fill:none" points="1899.19,364.622 2247.28,364.622 2247.28,131.342 1899.19,131.342 1899.19,364.622 "/>
<polyline clip-path="url(#clip320)" style="stroke:#ca8894; stroke-linecap:round; stroke-linejoin:round; stroke-width:6; stroke-opacity:1; fill:none" points="1918.6,209.102 2035.06,209.102 "/>
<circle clip-path="url(#clip320)" cx="1976.83" cy="209.102" r="10.7833" fill="#e7c1c8" fill-rule="evenodd" fill-opacity="1" stroke="#ca8894" stroke-opacity="1" stroke-width="3.41333"/>
<path clip-path="url(#clip320)" d="M2061.48 210.265 L2061.48 229.258 L2072.73 229.258 Q2078.39 229.258 2081.1 226.932 Q2083.84 224.57 2083.84 219.744 Q2083.84 214.883 2081.1 212.591 Q2078.39 210.265 2072.73 210.265 L2061.48 210.265 M2061.48 188.946 L2061.48 204.571 L2071.87 204.571 Q2077 204.571 2079.5 202.661 Q2082.04 200.716 2082.04 196.758 Q2082.04 192.835 2079.5 190.89 Q2077 188.946 2071.87 188.946 L2061.48 188.946 M2054.47 183.182 L2072.39 183.182 Q2080.41 183.182 2084.75 186.515 Q2089.09 189.848 2089.09 195.994 Q2089.09 200.751 2086.87 203.564 Q2084.64 206.376 2080.34 207.071 Q2085.51 208.182 2088.36 211.723 Q2091.24 215.23 2091.24 220.508 Q2091.24 227.452 2086.52 231.237 Q2081.8 235.022 2073.08 235.022 L2054.47 235.022 L2054.47 183.182 Z" fill="#000000" fill-rule="nonzero" fill-opacity="1" /><path clip-path="url(#clip320)" d="M2125.51 202.105 Q2124.43 201.48 2123.15 201.203 Q2121.9 200.89 2120.37 200.89 Q2114.96 200.89 2112.04 204.432 Q2109.16 207.939 2109.16 214.536 L2109.16 235.022 L2102.73 235.022 L2102.73 196.133 L2109.16 196.133 L2109.16 202.175 Q2111.17 198.633 2114.4 196.932 Q2117.63 195.196 2122.25 195.196 Q2122.91 195.196 2123.71 195.3 Q2124.5 195.369 2125.48 195.543 L2125.51 202.105 Z" fill="#000000" fill-rule="nonzero" fill-opacity="1" /><path clip-path="url(#clip320)" d="M2149.89 215.473 Q2142.14 215.473 2139.16 217.244 Q2136.17 219.015 2136.17 223.286 Q2136.17 226.688 2138.39 228.702 Q2140.65 230.682 2144.5 230.682 Q2149.82 230.682 2153.01 226.932 Q2156.24 223.147 2156.24 216.897 L2156.24 215.473 L2149.89 215.473 M2162.63 212.834 L2162.63 235.022 L2156.24 235.022 L2156.24 229.119 Q2154.05 232.661 2150.79 234.362 Q2147.53 236.029 2142.8 236.029 Q2136.83 236.029 2133.29 232.695 Q2129.78 229.327 2129.78 223.702 Q2129.78 217.14 2134.16 213.807 Q2138.57 210.473 2147.28 210.473 L2156.24 210.473 L2156.24 209.848 Q2156.24 205.439 2153.32 203.043 Q2150.44 200.612 2145.2 200.612 Q2141.87 200.612 2138.71 201.411 Q2135.55 202.209 2132.63 203.807 L2132.63 197.904 Q2136.14 196.55 2139.43 195.89 Q2142.73 195.196 2145.86 195.196 Q2154.3 195.196 2158.46 199.571 Q2162.63 203.946 2162.63 212.834 Z" fill="#000000" fill-rule="nonzero" fill-opacity="1" /><path clip-path="url(#clip320)" d="M2175.79 196.133 L2182.18 196.133 L2182.18 235.022 L2175.79 235.022 L2175.79 196.133 M2175.79 180.994 L2182.18 180.994 L2182.18 189.085 L2175.79 189.085 L2175.79 180.994 Z" fill="#000000" fill-rule="nonzero" fill-opacity="1" /><path clip-path="url(#clip320)" d="M2227.87 211.55 L2227.87 235.022 L2221.48 235.022 L2221.48 211.758 Q2221.48 206.237 2219.33 203.494 Q2217.18 200.751 2212.87 200.751 Q2207.7 200.751 2204.71 204.05 Q2201.73 207.348 2201.73 213.043 L2201.73 235.022 L2195.3 235.022 L2195.3 196.133 L2201.73 196.133 L2201.73 202.175 Q2204.02 198.668 2207.11 196.932 Q2210.23 195.196 2214.3 195.196 Q2221 195.196 2224.43 199.362 Q2227.87 203.494 2227.87 211.55 Z" fill="#000000" fill-rule="nonzero" fill-opacity="1" /><polyline clip-path="url(#clip320)" style="stroke:#7ac4c1; stroke-linecap:round; stroke-linejoin:round; stroke-width:6; stroke-opacity:1; fill:none" points="1918.6,286.862 2035.06,286.862 "/>
<circle clip-path="url(#clip320)" cx="1976.83" cy="286.862" r="10.7833" fill="#b4dbdb" fill-rule="evenodd" fill-opacity="1" stroke="#7ac4c1" stroke-opacity="1" stroke-width="3.41333"/>
<path clip-path="url(#clip320)" d="M2096.28 264.935 L2096.28 272.331 Q2092.73 269.032 2088.71 267.4 Q2084.71 265.768 2080.2 265.768 Q2071.31 265.768 2066.59 271.219 Q2061.87 276.636 2061.87 286.914 Q2061.87 297.157 2066.59 302.608 Q2071.31 308.025 2080.2 308.025 Q2084.71 308.025 2088.71 306.393 Q2092.73 304.761 2096.28 301.462 L2096.28 308.789 Q2092.59 311.289 2088.46 312.539 Q2084.37 313.789 2079.78 313.789 Q2068.01 313.789 2061.24 306.601 Q2054.47 299.379 2054.47 286.914 Q2054.47 274.414 2061.24 267.226 Q2068.01 260.004 2079.78 260.004 Q2084.44 260.004 2088.53 261.254 Q2092.66 262.47 2096.28 264.935 Z" fill="#000000" fill-rule="nonzero" fill-opacity="1" /><path clip-path="url(#clip320)" d="M2138.18 262.643 L2138.18 269.483 Q2134.19 267.574 2130.65 266.636 Q2127.11 265.699 2123.81 265.699 Q2118.08 265.699 2114.96 267.921 Q2111.87 270.143 2111.87 274.24 Q2111.87 277.678 2113.91 279.449 Q2116 281.185 2121.76 282.261 L2126 283.129 Q2133.84 284.622 2137.56 288.407 Q2141.31 292.157 2141.31 298.476 Q2141.31 306.011 2136.24 309.9 Q2131.21 313.789 2121.45 313.789 Q2117.77 313.789 2113.6 312.955 Q2109.47 312.122 2105.03 310.49 L2105.03 303.268 Q2109.3 305.664 2113.39 306.879 Q2117.49 308.094 2121.45 308.094 Q2127.46 308.094 2130.72 305.733 Q2133.98 303.372 2133.98 298.997 Q2133.98 295.178 2131.62 293.025 Q2129.3 290.872 2123.95 289.796 L2119.68 288.962 Q2111.83 287.4 2108.32 284.067 Q2104.82 280.733 2104.82 274.796 Q2104.82 267.921 2109.64 263.963 Q2114.5 260.004 2123.01 260.004 Q2126.66 260.004 2130.44 260.664 Q2134.23 261.324 2138.18 262.643 Z" fill="#000000" fill-rule="nonzero" fill-opacity="1" /><path clip-path="url(#clip320)" d="M2152.25 260.942 L2182.04 260.942 L2182.04 266.845 L2159.26 266.845 L2159.26 282.122 L2179.82 282.122 L2179.82 288.025 L2159.26 288.025 L2159.26 312.782 L2152.25 312.782 L2152.25 260.942 Z" fill="#000000" fill-rule="nonzero" fill-opacity="1" /></svg>
