<?xml version="1.0" encoding="utf-8"?>
<svg xmlns="http://www.w3.org/2000/svg" xmlns:xlink="http://www.w3.org/1999/xlink" width="600" height="400" viewBox="0 0 2400 1600">
<defs>
  <clipPath id="clip260">
    <rect x="0" y="0" width="2400" height="1600"/>
  </clipPath>
</defs>
<path clip-path="url(#clip260)" d="M0 1600 L2400 1600 L2400 0 L0 0  Z" fill="#ffffff" fill-rule="evenodd" fill-opacity="1"/>
<defs>
  <clipPath id="clip261">
    <rect x="480" y="0" width="1681" height="1600"/>
  </clipPath>
</defs>
<path clip-path="url(#clip260)" d="M673.506 1273.7 L2305.51 1273.7 L2305.51 94.4882 L673.506 94.4882  Z" fill="#ffffff" fill-rule="evenodd" fill-opacity="1"/>
<defs>
  <clipPath id="clip262">
    <rect x="673" y="94" width="1633" height="1180"/>
  </clipPath>
</defs>
<polyline clip-path="url(#clip262)" style="stroke:#000000; stroke-linecap:round; stroke-linejoin:round; stroke-width:4; stroke-opacity:0.1; fill:none" points="719.695,1273.7 719.695,94.4882 "/>
<polyline clip-path="url(#clip262)" style="stroke:#000000; stroke-linecap:round; stroke-linejoin:round; stroke-width:4; stroke-opacity:0.1; fill:none" points="994.628,1273.7 994.628,94.4882 "/>
<polyline clip-path="url(#clip262)" style="stroke:#000000; stroke-linecap:round; stroke-linejoin:round; stroke-width:4; stroke-opacity:0.1; fill:none" points="1269.56,1273.7 1269.56,94.4882 "/>
<polyline clip-path="url(#clip262)" style="stroke:#000000; stroke-linecap:round; stroke-linejoin:round; stroke-width:4; stroke-opacity:0.1; fill:none" points="1544.5,1273.7 1544.5,94.4882 "/>
<polyline clip-path="url(#clip262)" style="stroke:#000000; stroke-linecap:round; stroke-linejoin:round; stroke-width:4; stroke-opacity:0.1; fill:none" points="1819.43,1273.7 1819.43,94.4882 "/>
<polyline clip-path="url(#clip262)" style="stroke:#000000; stroke-linecap:round; stroke-linejoin:round; stroke-width:4; stroke-opacity:0.1; fill:none" points="2094.36,1273.7 2094.36,94.4882 "/>
<polyline clip-path="url(#clip260)" style="stroke:#000000; stroke-linecap:round; stroke-linejoin:round; stroke-width:8; stroke-opacity:1; fill:none" points="673.506,1273.7 2305.51,1273.7 "/>
<polyline clip-path="url(#clip260)" style="stroke:#000000; stroke-linecap:round; stroke-linejoin:round; stroke-width:8; stroke-opacity:1; fill:none" points="719.695,1273.7 719.695,1254.8 "/>
<polyline clip-path="url(#clip260)" style="stroke:#000000; stroke-linecap:round; stroke-linejoin:round; stroke-width:8; stroke-opacity:1; fill:none" points="994.628,1273.7 994.628,1254.8 "/>
<polyline clip-path="url(#clip260)" style="stroke:#000000; stroke-linecap:round; stroke-linejoin:round; stroke-width:8; stroke-opacity:1; fill:none" points="1269.56,1273.7 1269.56,1254.8 "/>
<polyline clip-path="url(#clip260)" style="stroke:#000000; stroke-linecap:round; stroke-linejoin:round; stroke-width:8; stroke-opacity:1; fill:none" points="1544.5,1273.7 1544.5,1254.8 "/>
<polyline clip-path="url(#clip260)" style="stroke:#000000; stroke-linecap:round; stroke-linejoin:round; stroke-width:8; stroke-opacity:1; fill:none" points="1819.43,1273.7 1819.43,1254.8 "/>
<polyline clip-path="url(#clip260)" style="stroke:#000000; stroke-linecap:round; stroke-linejoin:round; stroke-width:8; stroke-opacity:1; fill:none" points="2094.36,1273.7 2094.36,1254.8 "/>
<path clip-path="url(#clip260)" d="M719.695 1316.33 Q712.473 1316.33 708.815 1323.46 Q705.204 1330.55 705.204 1344.81 Q705.204 1359.02 708.815 1366.15 Q712.473 1373.23 719.695 1373.23 Q726.963 1373.23 730.574 1366.15 Q734.232 1359.02 734.232 1344.81 Q734.232 1330.55 730.574 1323.46 Q726.963 1316.33 719.695 1316.33 M719.695 1308.93 Q731.315 1308.93 737.426 1318.14 Q743.584 1327.31 743.584 1344.81 Q743.584 1362.26 737.426 1371.47 Q731.315 1380.64 719.695 1380.64 Q708.075 1380.64 701.917 1371.47 Q695.806 1362.26 695.806 1344.81 Q695.806 1327.31 701.917 1318.14 Q708.075 1308.93 719.695 1308.93 Z" fill="#000000" fill-rule="nonzero" fill-opacity="1" /><path clip-path="url(#clip260)" d="M975.184 1310.18 L1011.9 1310.18 L1011.9 1318.05 L983.749 1318.05 L983.749 1334.99 Q985.786 1334.3 987.823 1333.97 Q989.86 1333.6 991.897 1333.6 Q1003.47 1333.6 1010.23 1339.94 Q1016.99 1346.29 1016.99 1357.12 Q1016.99 1368.28 1010.04 1374.48 Q1003.1 1380.64 990.462 1380.64 Q986.11 1380.64 981.573 1379.9 Q977.082 1379.16 972.267 1377.68 L972.267 1368.28 Q976.434 1370.55 980.878 1371.66 Q985.323 1372.77 990.277 1372.77 Q998.286 1372.77 1002.96 1368.56 Q1007.64 1364.34 1007.64 1357.12 Q1007.64 1349.9 1002.96 1345.68 Q998.286 1341.47 990.277 1341.47 Q986.527 1341.47 982.777 1342.31 Q979.073 1343.14 975.184 1344.9 L975.184 1310.18 Z" fill="#000000" fill-rule="nonzero" fill-opacity="1" /><path clip-path="url(#clip260)" d="M1218.94 1371.43 L1234.21 1371.43 L1234.21 1318.69 L1217.59 1322.03 L1217.59 1313.51 L1234.12 1310.18 L1243.47 1310.18 L1243.47 1371.43 L1258.75 1371.43 L1258.75 1379.3 L1218.94 1379.3 L1218.94 1371.43 Z" fill="#000000" fill-rule="nonzero" fill-opacity="1" /><path clip-path="url(#clip260)" d="M1297.64 1316.33 Q1290.42 1316.33 1286.76 1323.46 Q1283.15 1330.55 1283.15 1344.81 Q1283.15 1359.02 1286.76 1366.15 Q1290.42 1373.23 1297.64 1373.23 Q1304.91 1373.23 1308.52 1366.15 Q1312.18 1359.02 1312.18 1344.81 Q1312.18 1330.55 1308.52 1323.46 Q1304.91 1316.33 1297.64 1316.33 M1297.64 1308.93 Q1309.26 1308.93 1315.37 1318.14 Q1321.53 1327.31 1321.53 1344.81 Q1321.53 1362.26 1315.37 1371.47 Q1309.26 1380.64 1297.64 1380.64 Q1286.02 1380.64 1279.86 1371.47 Q1273.75 1362.26 1273.75 1344.81 Q1273.75 1327.31 1279.86 1318.14 Q1286.02 1308.93 1297.64 1308.93 Z" fill="#000000" fill-rule="nonzero" fill-opacity="1" /><path clip-path="url(#clip260)" d="M1494.87 1371.43 L1510.14 1371.43 L1510.14 1318.69 L1493.52 1322.03 L1493.52 1313.51 L1510.05 1310.18 L1519.4 1310.18 L1519.4 1371.43 L1534.68 1371.43 L1534.68 1379.3 L1494.87 1379.3 L1494.87 1371.43 Z" fill="#000000" fill-rule="nonzero" fill-opacity="1" /><path clip-path="url(#clip260)" d="M1553.66 1310.18 L1590.37 1310.18 L1590.37 1318.05 L1562.23 1318.05 L1562.23 1334.99 Q1564.26 1334.3 1566.3 1333.97 Q1568.34 1333.6 1570.38 1333.6 Q1581.95 1333.6 1588.71 1339.94 Q1595.47 1346.29 1595.47 1357.12 Q1595.47 1368.28 1588.52 1374.48 Q1581.58 1380.64 1568.94 1380.64 Q1564.59 1380.64 1560.05 1379.9 Q1555.56 1379.16 1550.75 1377.68 L1550.75 1368.28 Q1554.91 1370.55 1559.36 1371.66 Q1563.8 1372.77 1568.75 1372.77 Q1576.76 1372.77 1581.44 1368.56 Q1586.12 1364.34 1586.12 1357.12 Q1586.12 1349.9 1581.44 1345.68 Q1576.76 1341.47 1568.75 1341.47 Q1565 1341.47 1561.25 1342.31 Q1557.55 1343.14 1553.66 1344.9 L1553.66 1310.18 Z" fill="#000000" fill-rule="nonzero" fill-opacity="1" /><path clip-path="url(#clip260)" d="M1776.98 1371.43 L1809.61 1371.43 L1809.61 1379.3 L1765.73 1379.3 L1765.73 1371.43 Q1771.05 1365.92 1780.22 1356.66 Q1789.43 1347.35 1791.79 1344.67 Q1796.28 1339.62 1798.04 1336.15 Q1799.85 1332.63 1799.85 1329.25 Q1799.85 1323.74 1795.96 1320.27 Q1792.11 1316.8 1785.91 1316.8 Q1781.51 1316.8 1776.61 1318.32 Q1771.74 1319.85 1766.19 1322.95 L1766.19 1313.51 Q1771.84 1311.24 1776.74 1310.08 Q1781.65 1308.93 1785.73 1308.93 Q1796.47 1308.93 1802.86 1314.3 Q1809.24 1319.67 1809.24 1328.65 Q1809.24 1332.91 1807.62 1336.75 Q1806.05 1340.55 1801.84 1345.73 Q1800.68 1347.07 1794.48 1353.51 Q1788.27 1359.9 1776.98 1371.43 Z" fill="#000000" fill-rule="nonzero" fill-opacity="1" /><path clip-path="url(#clip260)" d="M1849.24 1316.33 Q1842.02 1316.33 1838.36 1323.46 Q1834.75 1330.55 1834.75 1344.81 Q1834.75 1359.02 1838.36 1366.15 Q1842.02 1373.23 1849.24 1373.23 Q1856.51 1373.23 1860.12 1366.15 Q1863.78 1359.02 1863.78 1344.81 Q1863.78 1330.55 1860.12 1323.46 Q1856.51 1316.33 1849.24 1316.33 M1849.24 1308.93 Q1860.86 1308.93 1866.98 1318.14 Q1873.13 1327.31 1873.13 1344.81 Q1873.13 1362.26 1866.98 1371.47 Q1860.86 1380.64 1849.24 1380.64 Q1837.62 1380.64 1831.47 1371.47 Q1825.36 1362.26 1825.36 1344.81 Q1825.36 1327.31 1831.47 1318.14 Q1837.62 1308.93 1849.24 1308.93 Z" fill="#000000" fill-rule="nonzero" fill-opacity="1" /><path clip-path="url(#clip260)" d="M2052.9 1371.43 L2085.54 1371.43 L2085.54 1379.3 L2041.65 1379.3 L2041.65 1371.43 Q2046.98 1365.92 2056.15 1356.66 Q2065.36 1347.35 2067.72 1344.67 Q2072.21 1339.62 2073.97 1336.15 Q2075.77 1332.63 2075.77 1329.25 Q2075.77 1323.74 2071.89 1320.27 Q2068.04 1316.8 2061.84 1316.8 Q2057.44 1316.8 2052.53 1318.32 Q2047.67 1319.85 2042.12 1322.95 L2042.12 1313.51 Q2047.77 1311.24 2052.67 1310.08 Q2057.58 1308.93 2061.65 1308.93 Q2072.4 1308.93 2078.78 1314.3 Q2085.17 1319.67 2085.17 1328.65 Q2085.17 1332.91 2083.55 1336.75 Q2081.98 1340.55 2077.77 1345.73 Q2076.61 1347.07 2070.4 1353.51 Q2064.2 1359.9 2052.9 1371.43 Z" fill="#000000" fill-rule="nonzero" fill-opacity="1" /><path clip-path="url(#clip260)" d="M2105.27 1310.18 L2141.98 1310.18 L2141.98 1318.05 L2113.83 1318.05 L2113.83 1334.99 Q2115.87 1334.3 2117.9 1333.97 Q2119.94 1333.6 2121.98 1333.6 Q2133.55 1333.6 2140.31 1339.94 Q2147.07 1346.29 2147.07 1357.12 Q2147.07 1368.28 2140.13 1374.48 Q2133.18 1380.64 2120.54 1380.64 Q2116.19 1380.64 2111.65 1379.9 Q2107.16 1379.16 2102.35 1377.68 L2102.35 1368.28 Q2106.52 1370.55 2110.96 1371.66 Q2115.4 1372.77 2120.36 1372.77 Q2128.37 1372.77 2133.04 1368.56 Q2137.72 1364.34 2137.72 1357.12 Q2137.72 1349.9 2133.04 1345.68 Q2128.37 1341.47 2120.36 1341.47 Q2116.61 1341.47 2112.86 1342.31 Q2109.15 1343.14 2105.27 1344.9 L2105.27 1310.18 Z" fill="#000000" fill-rule="nonzero" fill-opacity="1" /><path clip-path="url(#clip260)" d="M1375.05 1484.39 L1375.05 1527.42 L1363.34 1527.42 L1363.34 1484.77 Q1363.34 1474.65 1359.39 1469.62 Q1355.45 1464.59 1347.55 1464.59 Q1338.07 1464.59 1332.59 1470.64 Q1327.12 1476.69 1327.12 1487.13 L1327.12 1527.42 L1315.34 1527.42 L1315.34 1428.37 L1327.12 1428.37 L1327.12 1467.2 Q1331.32 1460.77 1336.99 1457.59 Q1342.72 1454.41 1350.16 1454.41 Q1362.45 1454.41 1368.75 1462.05 Q1375.05 1469.62 1375.05 1484.39 Z" fill="#000000" fill-rule="nonzero" fill-opacity="1" /><path clip-path="url(#clip260)" d="M1426.04 1464.34 Q1416.62 1464.34 1411.15 1471.72 Q1405.67 1479.04 1405.67 1491.84 Q1405.67 1504.63 1411.08 1512.02 Q1416.56 1519.34 1426.04 1519.34 Q1435.4 1519.34 1440.87 1511.96 Q1446.35 1504.57 1446.35 1491.84 Q1446.35 1479.17 1440.87 1471.79 Q1435.4 1464.34 1426.04 1464.34 M1426.04 1454.41 Q1441.32 1454.41 1450.04 1464.34 Q1458.76 1474.27 1458.76 1491.84 Q1458.76 1509.35 1450.04 1519.34 Q1441.32 1529.27 1426.04 1529.27 Q1410.7 1529.27 1401.98 1519.34 Q1393.32 1509.35 1393.32 1491.84 Q1393.32 1474.27 1401.98 1464.34 Q1410.7 1454.41 1426.04 1454.41 Z" fill="#000000" fill-rule="nonzero" fill-opacity="1" /><path clip-path="url(#clip260)" d="M1476.97 1499.29 L1476.97 1456.13 L1488.68 1456.13 L1488.68 1498.84 Q1488.68 1508.96 1492.63 1514.06 Q1496.57 1519.08 1504.47 1519.08 Q1513.95 1519.08 1519.43 1513.04 Q1524.97 1506.99 1524.97 1496.55 L1524.97 1456.13 L1536.68 1456.13 L1536.68 1527.42 L1524.97 1527.42 L1524.97 1516.47 Q1520.7 1522.97 1515.04 1526.15 Q1509.43 1529.27 1501.99 1529.27 Q1489.7 1529.27 1483.33 1521.63 Q1476.97 1513.99 1476.97 1499.29 M1506.44 1454.41 L1506.44 1454.41 Z" fill="#000000" fill-rule="nonzero" fill-opacity="1" /><path clip-path="url(#clip260)" d="M1602.12 1467.08 Q1600.14 1465.93 1597.79 1465.42 Q1595.5 1464.85 1592.7 1464.85 Q1582.77 1464.85 1577.42 1471.34 Q1572.14 1477.77 1572.14 1489.87 L1572.14 1527.42 L1560.36 1527.42 L1560.36 1456.13 L1572.14 1456.13 L1572.14 1467.2 Q1575.83 1460.71 1581.75 1457.59 Q1587.67 1454.41 1596.13 1454.41 Q1597.34 1454.41 1598.81 1454.6 Q1600.27 1454.73 1602.05 1455.05 L1602.12 1467.08 Z" fill="#000000" fill-rule="nonzero" fill-opacity="1" /><path clip-path="url(#clip260)" d="M1659.86 1458.23 L1659.86 1469.3 Q1654.89 1466.76 1649.54 1465.49 Q1644.2 1464.21 1638.47 1464.21 Q1629.75 1464.21 1625.35 1466.89 Q1621.02 1469.56 1621.02 1474.91 Q1621.02 1478.98 1624.14 1481.34 Q1627.26 1483.63 1636.68 1485.73 L1640.69 1486.62 Q1653.17 1489.29 1658.39 1494.19 Q1663.67 1499.03 1663.67 1507.75 Q1663.67 1517.68 1655.78 1523.48 Q1647.95 1529.27 1634.2 1529.27 Q1628.47 1529.27 1622.23 1528.12 Q1616.06 1527.04 1609.18 1524.81 L1609.18 1512.72 Q1615.68 1516.09 1621.98 1517.81 Q1628.28 1519.47 1634.46 1519.47 Q1642.73 1519.47 1647.19 1516.67 Q1651.64 1513.8 1651.64 1508.64 Q1651.64 1503.87 1648.4 1501.32 Q1645.21 1498.78 1634.33 1496.42 L1630.25 1495.47 Q1619.37 1493.18 1614.53 1488.47 Q1609.69 1483.69 1609.69 1475.42 Q1609.69 1465.36 1616.82 1459.88 Q1623.95 1454.41 1637.07 1454.41 Q1643.56 1454.41 1649.29 1455.36 Q1655.02 1456.32 1659.86 1458.23 Z" fill="#000000" fill-rule="nonzero" fill-opacity="1" /><polyline clip-path="url(#clip262)" style="stroke:#000000; stroke-linecap:round; stroke-linejoin:round; stroke-width:4; stroke-opacity:0.1; fill:none" points="673.506,1192.64 2305.51,1192.64 "/>
<polyline clip-path="url(#clip262)" style="stroke:#000000; stroke-linecap:round; stroke-linejoin:round; stroke-width:4; stroke-opacity:0.1; fill:none" points="673.506,934.192 2305.51,934.192 "/>
<polyline clip-path="url(#clip262)" style="stroke:#000000; stroke-linecap:round; stroke-linejoin:round; stroke-width:4; stroke-opacity:0.1; fill:none" points="673.506,675.747 2305.51,675.747 "/>
<polyline clip-path="url(#clip262)" style="stroke:#000000; stroke-linecap:round; stroke-linejoin:round; stroke-width:4; stroke-opacity:0.1; fill:none" points="673.506,417.302 2305.51,417.302 "/>
<polyline clip-path="url(#clip262)" style="stroke:#000000; stroke-linecap:round; stroke-linejoin:round; stroke-width:4; stroke-opacity:0.1; fill:none" points="673.506,158.856 2305.51,158.856 "/>
<polyline clip-path="url(#clip260)" style="stroke:#000000; stroke-linecap:round; stroke-linejoin:round; stroke-width:8; stroke-opacity:1; fill:none" points="673.506,1273.7 673.506,94.4882 "/>
<polyline clip-path="url(#clip260)" style="stroke:#000000; stroke-linecap:round; stroke-linejoin:round; stroke-width:8; stroke-opacity:1; fill:none" points="673.506,1192.64 692.404,1192.64 "/>
<polyline clip-path="url(#clip260)" style="stroke:#000000; stroke-linecap:round; stroke-linejoin:round; stroke-width:8; stroke-opacity:1; fill:none" points="673.506,934.192 692.404,934.192 "/>
<polyline clip-path="url(#clip260)" style="stroke:#000000; stroke-linecap:round; stroke-linejoin:round; stroke-width:8; stroke-opacity:1; fill:none" points="673.506,675.747 692.404,675.747 "/>
<polyline clip-path="url(#clip260)" style="stroke:#000000; stroke-linecap:round; stroke-linejoin:round; stroke-width:8; stroke-opacity:1; fill:none" points="673.506,417.302 692.404,417.302 "/>
<polyline clip-path="url(#clip260)" style="stroke:#000000; stroke-linecap:round; stroke-linejoin:round; stroke-width:8; stroke-opacity:1; fill:none" points="673.506,158.856 692.404,158.856 "/>
<path clip-path="url(#clip260)" d="M450.887 1219.33 L483.525 1219.33 L483.525 1227.2 L439.637 1227.2 L439.637 1219.33 Q444.961 1213.82 454.127 1204.56 Q463.34 1195.25 465.701 1192.57 Q470.192 1187.52 471.951 1184.05 Q473.757 1180.53 473.757 1177.15 Q473.757 1171.64 469.868 1168.17 Q466.025 1164.7 459.822 1164.7 Q455.424 1164.7 450.516 1166.23 Q445.655 1167.75 440.1 1170.86 L440.1 1161.41 Q445.748 1159.14 450.655 1157.98 Q455.562 1156.83 459.637 1156.83 Q470.377 1156.83 476.766 1162.2 Q483.155 1167.57 483.155 1176.55 Q483.155 1180.81 481.535 1184.65 Q479.961 1188.45 475.748 1193.63 Q474.59 1194.98 468.387 1201.41 Q462.183 1207.8 450.887 1219.33 Z" fill="#000000" fill-rule="nonzero" fill-opacity="1" /><path clip-path="url(#clip260)" d="M523.155 1164.23 Q515.933 1164.23 512.275 1171.36 Q508.664 1178.45 508.664 1192.71 Q508.664 1206.92 512.275 1214.05 Q515.933 1221.13 523.155 1221.13 Q530.423 1221.13 534.034 1214.05 Q537.692 1206.92 537.692 1192.71 Q537.692 1178.45 534.034 1171.36 Q530.423 1164.23 523.155 1164.23 M523.155 1156.83 Q534.775 1156.83 540.886 1166.04 Q547.043 1175.21 547.043 1192.71 Q547.043 1210.16 540.886 1219.37 Q534.775 1228.54 523.155 1228.54 Q511.534 1228.54 505.377 1219.37 Q499.266 1210.16 499.266 1192.71 Q499.266 1175.21 505.377 1166.04 Q511.534 1156.83 523.155 1156.83 Z" fill="#000000" fill-rule="nonzero" fill-opacity="1" /><path clip-path="url(#clip260)" d="M563.479 1215.44 L573.247 1215.44 L573.247 1227.2 L563.479 1227.2 L563.479 1215.44 Z" fill="#000000" fill-rule="nonzero" fill-opacity="1" /><path clip-path="url(#clip260)" d="M613.617 1164.23 Q606.395 1164.23 602.738 1171.36 Q599.127 1178.45 599.127 1192.71 Q599.127 1206.92 602.738 1214.05 Q606.395 1221.13 613.617 1221.13 Q620.886 1221.13 624.497 1214.05 Q628.154 1206.92 628.154 1192.71 Q628.154 1178.45 624.497 1171.36 Q620.886 1164.23 613.617 1164.23 M613.617 1156.83 Q625.238 1156.83 631.349 1166.04 Q637.506 1175.21 637.506 1192.71 Q637.506 1210.16 631.349 1219.37 Q625.238 1228.54 613.617 1228.54 Q601.997 1228.54 595.84 1219.37 Q589.728 1210.16 589.728 1192.71 Q589.728 1175.21 595.84 1166.04 Q601.997 1156.83 613.617 1156.83 Z" fill="#000000" fill-rule="nonzero" fill-opacity="1" /><path clip-path="url(#clip260)" d="M468.525 907.78 L444.914 944.678 L468.525 944.678 L468.525 907.78 M466.072 899.632 L477.831 899.632 L477.831 944.678 L487.692 944.678 L487.692 952.456 L477.831 952.456 L477.831 968.752 L468.525 968.752 L468.525 952.456 L437.322 952.456 L437.322 943.428 L466.072 899.632 Z" fill="#000000" fill-rule="nonzero" fill-opacity="1" /><path clip-path="url(#clip260)" d="M523.155 905.79 Q515.933 905.79 512.275 912.919 Q508.664 920.002 508.664 934.262 Q508.664 948.475 512.275 955.604 Q515.933 962.687 523.155 962.687 Q530.423 962.687 534.034 955.604 Q537.692 948.475 537.692 934.262 Q537.692 920.002 534.034 912.919 Q530.423 905.79 523.155 905.79 M523.155 898.382 Q534.775 898.382 540.886 907.595 Q547.043 916.762 547.043 934.262 Q547.043 951.715 540.886 960.928 Q534.775 970.095 523.155 970.095 Q511.534 970.095 505.377 960.928 Q499.266 951.715 499.266 934.262 Q499.266 916.762 505.377 907.595 Q511.534 898.382 523.155 898.382 Z" fill="#000000" fill-rule="nonzero" fill-opacity="1" /><path clip-path="url(#clip260)" d="M563.479 956.993 L573.247 956.993 L573.247 968.752 L563.479 968.752 L563.479 956.993 Z" fill="#000000" fill-rule="nonzero" fill-opacity="1" /><path clip-path="url(#clip260)" d="M613.617 905.79 Q606.395 905.79 602.738 912.919 Q599.127 920.002 599.127 934.262 Q599.127 948.475 602.738 955.604 Q606.395 962.687 613.617 962.687 Q620.886 962.687 624.497 955.604 Q628.154 948.475 628.154 934.262 Q628.154 920.002 624.497 912.919 Q620.886 905.79 613.617 905.79 M613.617 898.382 Q625.238 898.382 631.349 907.595 Q637.506 916.762 637.506 934.262 Q637.506 951.715 631.349 960.928 Q625.238 970.095 613.617 970.095 Q601.997 970.095 595.84 960.928 Q589.728 951.715 589.728 934.262 Q589.728 916.762 595.84 907.595 Q601.997 898.382 613.617 898.382 Z" fill="#000000" fill-rule="nonzero" fill-opacity="1" /><path clip-path="url(#clip260)" d="M463.988 672.02 Q457.692 672.02 453.988 676.326 Q450.331 680.631 450.331 688.131 Q450.331 695.585 453.988 699.937 Q457.692 704.242 463.988 704.242 Q470.285 704.242 473.942 699.937 Q477.646 695.585 477.646 688.131 Q477.646 680.631 473.942 676.326 Q470.285 672.02 463.988 672.02 M482.553 642.715 L482.553 651.233 Q479.035 649.566 475.424 648.687 Q471.859 647.807 468.34 647.807 Q459.081 647.807 454.174 654.057 Q449.313 660.307 448.618 672.946 Q451.35 668.918 455.47 666.789 Q459.59 664.613 464.544 664.613 Q474.961 664.613 480.979 670.955 Q487.044 677.251 487.044 688.131 Q487.044 698.779 480.748 705.214 Q474.451 711.649 463.988 711.649 Q451.998 711.649 445.655 702.483 Q439.313 693.27 439.313 675.816 Q439.313 659.428 447.09 649.705 Q454.868 639.937 467.97 639.937 Q471.488 639.937 475.053 640.631 Q478.664 641.326 482.553 642.715 Z" fill="#000000" fill-rule="nonzero" fill-opacity="1" /><path clip-path="url(#clip260)" d="M523.155 647.344 Q515.933 647.344 512.275 654.474 Q508.664 661.557 508.664 675.816 Q508.664 690.029 512.275 697.159 Q515.933 704.242 523.155 704.242 Q530.423 704.242 534.034 697.159 Q537.692 690.029 537.692 675.816 Q537.692 661.557 534.034 654.474 Q530.423 647.344 523.155 647.344 M523.155 639.937 Q534.775 639.937 540.886 649.15 Q547.043 658.316 547.043 675.816 Q547.043 693.27 540.886 702.483 Q534.775 711.649 523.155 711.649 Q511.534 711.649 505.377 702.483 Q499.266 693.27 499.266 675.816 Q499.266 658.316 505.377 649.15 Q511.534 639.937 523.155 639.937 Z" fill="#000000" fill-rule="nonzero" fill-opacity="1" /><path clip-path="url(#clip260)" d="M563.479 698.548 L573.247 698.548 L573.247 710.307 L563.479 710.307 L563.479 698.548 Z" fill="#000000" fill-rule="nonzero" fill-opacity="1" /><path clip-path="url(#clip260)" d="M613.617 647.344 Q606.395 647.344 602.738 654.474 Q599.127 661.557 599.127 675.816 Q599.127 690.029 602.738 697.159 Q606.395 704.242 613.617 704.242 Q620.886 704.242 624.497 697.159 Q628.154 690.029 628.154 675.816 Q628.154 661.557 624.497 654.474 Q620.886 647.344 613.617 647.344 M613.617 639.937 Q625.238 639.937 631.349 649.15 Q637.506 658.316 637.506 675.816 Q637.506 693.27 631.349 702.483 Q625.238 711.649 613.617 711.649 Q601.997 711.649 595.84 702.483 Q589.728 693.27 589.728 675.816 Q589.728 658.316 595.84 649.15 Q601.997 639.937 613.617 639.937 Z" fill="#000000" fill-rule="nonzero" fill-opacity="1" /><path clip-path="url(#clip260)" d="M462.831 419.038 Q456.164 419.038 452.322 422.602 Q448.525 426.167 448.525 432.417 Q448.525 438.667 452.322 442.232 Q456.164 445.797 462.831 445.797 Q469.498 445.797 473.34 442.232 Q477.183 438.621 477.183 432.417 Q477.183 426.167 473.34 422.602 Q469.544 419.038 462.831 419.038 M453.479 415.056 Q447.461 413.575 444.081 409.454 Q440.748 405.334 440.748 399.408 Q440.748 391.121 446.627 386.306 Q452.553 381.492 462.831 381.492 Q473.155 381.492 479.035 386.306 Q484.914 391.121 484.914 399.408 Q484.914 405.334 481.535 409.454 Q478.201 413.575 472.229 415.056 Q478.988 416.63 482.738 421.214 Q486.535 425.797 486.535 432.417 Q486.535 442.463 480.377 447.834 Q474.266 453.204 462.831 453.204 Q451.396 453.204 445.238 447.834 Q439.127 442.463 439.127 432.417 Q439.127 425.797 442.924 421.214 Q446.72 416.63 453.479 415.056 M450.053 400.288 Q450.053 405.658 453.387 408.667 Q456.766 411.677 462.831 411.677 Q468.849 411.677 472.229 408.667 Q475.655 405.658 475.655 400.288 Q475.655 394.917 472.229 391.908 Q468.849 388.899 462.831 388.899 Q456.766 388.899 453.387 391.908 Q450.053 394.917 450.053 400.288 Z" fill="#000000" fill-rule="nonzero" fill-opacity="1" /><path clip-path="url(#clip260)" d="M523.155 388.899 Q515.933 388.899 512.275 396.029 Q508.664 403.112 508.664 417.371 Q508.664 431.584 512.275 438.713 Q515.933 445.797 523.155 445.797 Q530.423 445.797 534.034 438.713 Q537.692 431.584 537.692 417.371 Q537.692 403.112 534.034 396.029 Q530.423 388.899 523.155 388.899 M523.155 381.492 Q534.775 381.492 540.886 390.704 Q547.043 399.871 547.043 417.371 Q547.043 434.825 540.886 444.038 Q534.775 453.204 523.155 453.204 Q511.534 453.204 505.377 444.038 Q499.266 434.825 499.266 417.371 Q499.266 399.871 505.377 390.704 Q511.534 381.492 523.155 381.492 Z" fill="#000000" fill-rule="nonzero" fill-opacity="1" /><path clip-path="url(#clip260)" d="M563.479 440.102 L573.247 440.102 L573.247 451.862 L563.479 451.862 L563.479 440.102 Z" fill="#000000" fill-rule="nonzero" fill-opacity="1" /><path clip-path="url(#clip260)" d="M613.617 388.899 Q606.395 388.899 602.738 396.029 Q599.127 403.112 599.127 417.371 Q599.127 431.584 602.738 438.713 Q606.395 445.797 613.617 445.797 Q620.886 445.797 624.497 438.713 Q628.154 431.584 628.154 417.371 Q628.154 403.112 624.497 396.029 Q620.886 388.899 613.617 388.899 M613.617 381.492 Q625.238 381.492 631.349 390.704 Q637.506 399.871 637.506 417.371 Q637.506 434.825 631.349 444.038 Q625.238 453.204 613.617 453.204 Q601.997 453.204 595.84 444.038 Q589.728 434.825 589.728 417.371 Q589.728 399.871 595.84 390.704 Q601.997 381.492 613.617 381.492 Z" fill="#000000" fill-rule="nonzero" fill-opacity="1" /><path clip-path="url(#clip260)" d="M384.128 185.546 L399.405 185.546 L399.405 132.815 L382.785 136.148 L382.785 127.63 L399.313 124.296 L408.665 124.296 L408.665 185.546 L423.942 185.546 L423.942 193.416 L384.128 193.416 L384.128 185.546 Z" fill="#000000" fill-rule="nonzero" fill-opacity="1" /><path clip-path="url(#clip260)" d="M462.831 130.454 Q455.609 130.454 451.951 137.583 Q448.34 144.666 448.34 158.926 Q448.34 173.139 451.951 180.268 Q455.609 187.351 462.831 187.351 Q470.099 187.351 473.711 180.268 Q477.368 173.139 477.368 158.926 Q477.368 144.666 473.711 137.583 Q470.099 130.454 462.831 130.454 M462.831 123.046 Q474.451 123.046 480.562 132.259 Q486.72 141.426 486.72 158.926 Q486.72 176.379 480.562 185.592 Q474.451 194.759 462.831 194.759 Q451.211 194.759 445.053 185.592 Q438.942 176.379 438.942 158.926 Q438.942 141.426 445.053 132.259 Q451.211 123.046 462.831 123.046 Z" fill="#000000" fill-rule="nonzero" fill-opacity="1" /><path clip-path="url(#clip260)" d="M523.155 130.454 Q515.933 130.454 512.275 137.583 Q508.664 144.666 508.664 158.926 Q508.664 173.139 512.275 180.268 Q515.933 187.351 523.155 187.351 Q530.423 187.351 534.034 180.268 Q537.692 173.139 537.692 158.926 Q537.692 144.666 534.034 137.583 Q530.423 130.454 523.155 130.454 M523.155 123.046 Q534.775 123.046 540.886 132.259 Q547.043 141.426 547.043 158.926 Q547.043 176.379 540.886 185.592 Q534.775 194.759 523.155 194.759 Q511.534 194.759 505.377 185.592 Q499.266 176.379 499.266 158.926 Q499.266 141.426 505.377 132.259 Q511.534 123.046 523.155 123.046 Z" fill="#000000" fill-rule="nonzero" fill-opacity="1" /><path clip-path="url(#clip260)" d="M563.479 181.657 L573.247 181.657 L573.247 193.416 L563.479 193.416 L563.479 181.657 Z" fill="#000000" fill-rule="nonzero" fill-opacity="1" /><path clip-path="url(#clip260)" d="M613.617 130.454 Q606.395 130.454 602.738 137.583 Q599.127 144.666 599.127 158.926 Q599.127 173.139 602.738 180.268 Q606.395 187.351 613.617 187.351 Q620.886 187.351 624.497 180.268 Q628.154 173.139 628.154 158.926 Q628.154 144.666 624.497 137.583 Q620.886 130.454 613.617 130.454 M613.617 123.046 Q625.238 123.046 631.349 132.259 Q637.506 141.426 637.506 158.926 Q637.506 176.379 631.349 185.592 Q625.238 194.759 613.617 194.759 Q601.997 194.759 595.84 185.592 Q589.728 176.379 589.728 158.926 Q589.728 141.426 595.84 132.259 Q601.997 123.046 613.617 123.046 Z" fill="#000000" fill-rule="nonzero" fill-opacity="1" /><path clip-path="url(#clip260)" d="M276.45 1103.59 Q276.45 1109.13 281.161 1112.31 Q285.872 1115.43 294.274 1115.43 Q302.55 1115.43 307.324 1112.31 Q312.035 1109.13 312.035 1103.59 Q312.035 1098.18 307.324 1095.06 Q302.55 1091.88 294.274 1091.88 Q285.935 1091.88 281.225 1095.06 Q276.45 1098.18 276.45 1103.59 M268.366 1103.59 Q268.366 1093.53 275.368 1087.61 Q282.371 1081.69 294.274 1081.69 Q306.178 1081.69 313.181 1087.68 Q320.119 1093.6 320.119 1103.59 Q320.119 1113.78 313.181 1119.7 Q306.178 1125.62 294.274 1125.62 Q282.307 1125.62 275.368 1119.7 Q268.366 1113.71 268.366 1103.59 M229.599 1169.29 Q229.599 1174.76 234.373 1177.94 Q239.084 1181.06 247.359 1181.06 Q255.762 1181.06 260.472 1177.94 Q265.183 1174.82 265.183 1169.29 Q265.183 1163.75 260.472 1160.63 Q255.762 1157.45 247.359 1157.45 Q239.147 1157.45 234.373 1160.63 Q229.599 1163.81 229.599 1169.29 M221.514 1111.8 L221.514 1101.62 L320.119 1161.07 L320.119 1171.26 L221.514 1111.8 M221.514 1169.29 Q221.514 1159.23 228.517 1153.24 Q235.455 1147.26 247.359 1147.26 Q259.39 1147.26 266.329 1153.24 Q273.268 1159.16 273.268 1169.29 Q273.268 1179.41 266.329 1185.33 Q259.327 1191.18 247.359 1191.18 Q235.519 1191.18 228.517 1185.26 Q221.514 1179.34 221.514 1169.29 Z" fill="#000000" fill-rule="nonzero" fill-opacity="1" /><path clip-path="url(#clip260)" d="M246.977 1020.77 L246.977 1009.06 L318.273 1009.06 L318.273 1020.77 L246.977 1020.77 M219.223 1020.77 L219.223 1009.06 L234.055 1009.06 L234.055 1020.77 L219.223 1020.77 Z" fill="#000000" fill-rule="nonzero" fill-opacity="1" /><path clip-path="url(#clip260)" d="M275.241 925.289 L318.273 925.289 L318.273 937.001 L275.623 937.001 Q265.501 937.001 260.472 940.948 Q255.444 944.895 255.444 952.788 Q255.444 962.273 261.491 967.748 Q267.538 973.222 277.978 973.222 L318.273 973.222 L318.273 984.999 L246.977 984.999 L246.977 973.222 L258.054 973.222 Q251.624 969.021 248.441 963.356 Q245.258 957.626 245.258 950.179 Q245.258 937.893 252.897 931.591 Q260.472 925.289 275.241 925.289 Z" fill="#000000" fill-rule="nonzero" fill-opacity="1" /><path clip-path="url(#clip260)" d="M219.223 865.833 L228.962 865.833 L228.962 877.037 Q228.962 883.339 231.509 885.821 Q234.055 888.24 240.675 888.24 L246.977 888.24 L246.977 868.952 L256.08 868.952 L256.08 888.24 L318.273 888.24 L318.273 900.017 L256.08 900.017 L256.08 911.22 L246.977 911.22 L246.977 900.017 L242.012 900.017 Q230.108 900.017 224.697 894.479 Q219.223 888.94 219.223 876.909 L219.223 865.833 Z" fill="#000000" fill-rule="nonzero" fill-opacity="1" /><path clip-path="url(#clip260)" d="M290.137 857.239 L246.977 857.239 L246.977 845.526 L289.691 845.526 Q299.813 845.526 304.905 841.58 Q309.934 837.633 309.934 829.739 Q309.934 820.254 303.887 814.78 Q297.839 809.242 287.399 809.242 L246.977 809.242 L246.977 797.529 L318.273 797.529 L318.273 809.242 L307.324 809.242 Q313.817 813.507 317 819.172 Q320.119 824.774 320.119 832.222 Q320.119 844.508 312.48 850.873 Q304.841 857.239 290.137 857.239 M245.258 827.766 L245.258 827.766 Z" fill="#000000" fill-rule="nonzero" fill-opacity="1" /><path clip-path="url(#clip260)" d="M249.078 727.952 L260.154 727.952 Q257.608 732.917 256.335 738.264 Q255.062 743.611 255.062 749.34 Q255.062 758.061 257.735 762.454 Q260.409 766.782 265.756 766.782 Q269.83 766.782 272.185 763.663 Q274.477 760.544 276.578 751.123 L277.469 747.112 Q280.143 734.636 285.044 729.416 Q289.882 724.132 298.603 724.132 Q308.534 724.132 314.326 732.026 Q320.119 739.856 320.119 753.605 Q320.119 759.335 318.973 765.573 Q317.891 771.748 315.663 778.623 L303.568 778.623 Q306.942 772.13 308.661 765.828 Q310.316 759.526 310.316 753.351 Q310.316 745.075 307.515 740.619 Q304.65 736.163 299.494 736.163 Q294.72 736.163 292.174 739.41 Q289.627 742.593 287.272 753.478 L286.317 757.552 Q284.026 768.438 279.315 773.276 Q274.541 778.113 266.265 778.113 Q256.207 778.113 250.733 770.984 Q245.258 763.854 245.258 750.741 Q245.258 744.248 246.213 738.519 Q247.168 732.79 249.078 727.952 Z" fill="#000000" fill-rule="nonzero" fill-opacity="1" /><path clip-path="url(#clip260)" d="M279.697 644.497 L285.426 644.497 L285.426 698.351 Q297.521 697.587 303.887 691.094 Q310.189 684.538 310.189 672.888 Q310.189 666.141 308.534 659.839 Q306.878 653.473 303.568 647.235 L314.645 647.235 Q317.318 653.537 318.719 660.157 Q320.119 666.777 320.119 673.589 Q320.119 690.649 310.189 700.643 Q300.258 710.573 283.325 710.573 Q265.82 710.573 255.571 701.152 Q245.258 691.667 245.258 675.626 Q245.258 661.239 254.552 652.9 Q263.783 644.497 279.697 644.497 M276.259 656.21 Q266.647 656.337 260.918 661.621 Q255.189 666.841 255.189 675.498 Q255.189 685.301 260.727 691.222 Q266.265 697.078 276.323 697.969 L276.259 656.21 Z" fill="#000000" fill-rule="nonzero" fill-opacity="1" /><path clip-path="url(#clip260)" d="M257.799 578.358 L219.223 578.358 L219.223 566.645 L318.273 566.645 L318.273 578.358 L307.579 578.358 Q313.944 582.05 317.064 587.715 Q320.119 593.317 320.119 601.21 Q320.119 614.133 309.807 622.281 Q299.494 630.365 282.689 630.365 Q265.883 630.365 255.571 622.281 Q245.258 614.133 245.258 601.21 Q245.258 593.317 248.378 587.715 Q251.433 582.05 257.799 578.358 M282.689 618.271 Q295.611 618.271 302.995 612.987 Q310.316 607.64 310.316 598.346 Q310.316 589.052 302.995 583.705 Q295.611 578.358 282.689 578.358 Q269.766 578.358 262.446 583.705 Q255.062 589.052 255.062 598.346 Q255.062 607.64 262.446 612.987 Q269.766 618.271 282.689 618.271 Z" fill="#000000" fill-rule="nonzero" fill-opacity="1" /><path clip-path="url(#clip260)" d="M260.663 445.569 Q252.77 441.177 249.014 435.066 Q245.258 428.954 245.258 420.679 Q245.258 409.539 253.088 403.492 Q260.854 397.444 275.241 397.444 L318.273 397.444 L318.273 409.221 L275.623 409.221 Q265.374 409.221 260.409 412.849 Q255.444 416.478 255.444 423.926 Q255.444 433.028 261.491 438.312 Q267.538 443.596 277.978 443.596 L318.273 443.596 L318.273 455.372 L275.623 455.372 Q265.31 455.372 260.409 459.001 Q255.444 462.629 255.444 470.204 Q255.444 479.18 261.555 484.463 Q267.602 489.747 277.978 489.747 L318.273 489.747 L318.273 501.524 L246.977 501.524 L246.977 489.747 L258.054 489.747 Q251.497 485.737 248.378 480.135 Q245.258 474.533 245.258 466.83 Q245.258 459.064 249.205 453.653 Q253.152 448.179 260.663 445.569 Z" fill="#000000" fill-rule="nonzero" fill-opacity="1" /><path clip-path="url(#clip260)" d="M282.434 341.681 Q282.434 355.876 285.681 361.351 Q288.927 366.825 296.757 366.825 Q302.995 366.825 306.688 362.751 Q310.316 358.613 310.316 351.547 Q310.316 341.808 303.441 335.951 Q296.502 330.031 285.044 330.031 L282.434 330.031 L282.434 341.681 M277.596 318.318 L318.273 318.318 L318.273 330.031 L307.451 330.031 Q313.944 334.042 317.064 340.026 Q320.119 346.009 320.119 354.667 Q320.119 365.616 314.008 372.109 Q307.833 378.538 297.521 378.538 Q285.49 378.538 279.379 370.517 Q273.268 362.433 273.268 346.455 L273.268 330.031 L272.122 330.031 Q264.037 330.031 259.645 335.379 Q255.189 340.662 255.189 350.274 Q255.189 356.385 256.653 362.178 Q258.117 367.971 261.045 373.318 L250.224 373.318 Q247.741 366.889 246.532 360.841 Q245.258 354.794 245.258 349.065 Q245.258 333.596 253.279 325.957 Q261.3 318.318 277.596 318.318 Z" fill="#000000" fill-rule="nonzero" fill-opacity="1" /><path clip-path="url(#clip260)" d="M249.078 248.741 L260.154 248.741 Q257.608 253.707 256.335 259.054 Q255.062 264.401 255.062 270.13 Q255.062 278.851 257.735 283.243 Q260.409 287.572 265.756 287.572 Q269.83 287.572 272.185 284.453 Q274.477 281.334 276.578 271.912 L277.469 267.902 Q280.143 255.425 285.044 250.205 Q289.882 244.922 298.603 244.922 Q308.534 244.922 314.326 252.815 Q320.119 260.645 320.119 274.395 Q320.119 280.124 318.973 286.363 Q317.891 292.537 315.663 299.412 L303.568 299.412 Q306.942 292.919 308.661 286.617 Q310.316 280.315 310.316 274.14 Q310.316 265.865 307.515 261.409 Q304.65 256.953 299.494 256.953 Q294.72 256.953 292.174 260.2 Q289.627 263.382 287.272 274.268 L286.317 278.342 Q284.026 289.227 279.315 294.065 Q274.541 298.903 266.265 298.903 Q256.207 298.903 250.733 291.773 Q245.258 284.644 245.258 271.531 Q245.258 265.038 246.213 259.308 Q247.168 253.579 249.078 248.741 Z" fill="#000000" fill-rule="nonzero" fill-opacity="1" /><path clip-path="url(#clip260)" d="M249.078 180.819 L260.154 180.819 Q257.608 185.784 256.335 191.132 Q255.062 196.479 255.062 202.208 Q255.062 210.929 257.735 215.321 Q260.409 219.65 265.756 219.65 Q269.83 219.65 272.185 216.531 Q274.477 213.412 276.578 203.99 L277.469 199.98 Q280.143 187.503 285.044 182.283 Q289.882 177 298.603 177 Q308.534 177 314.326 184.893 Q320.119 192.723 320.119 206.473 Q320.119 212.202 318.973 218.441 Q317.891 224.615 315.663 231.49 L303.568 231.49 Q306.942 224.997 308.661 218.695 Q310.316 212.393 310.316 206.218 Q310.316 197.943 307.515 193.487 Q304.65 189.031 299.494 189.031 Q294.72 189.031 292.174 192.277 Q289.627 195.46 287.272 206.346 L286.317 210.42 Q284.026 221.305 279.315 226.143 Q274.541 230.981 266.265 230.981 Q256.207 230.981 250.733 223.851 Q245.258 216.722 245.258 203.608 Q245.258 197.115 246.213 191.386 Q247.168 185.657 249.078 180.819 Z" fill="#000000" fill-rule="nonzero" fill-opacity="1" /><polyline clip-path="url(#clip262)" style="stroke:#008000; stroke-linecap:round; stroke-linejoin:round; stroke-width:8; stroke-opacity:1; fill:none" points="719.695,158.856 774.682,301.001 994.628,443.146 1599.48,947.114 2259.32,1140.95 "/>
<circle clip-path="url(#clip262)" cx="719.695" cy="158.856" r="14.4" fill="#008000" fill-rule="evenodd" fill-opacity="1" stroke="#000000" stroke-opacity="1" stroke-width="6.4"/>
<circle clip-path="url(#clip262)" cx="774.682" cy="301.001" r="14.4" fill="#008000" fill-rule="evenodd" fill-opacity="1" stroke="#000000" stroke-opacity="1" stroke-width="6.4"/>
<circle clip-path="url(#clip262)" cx="994.628" cy="443.146" r="14.4" fill="#008000" fill-rule="evenodd" fill-opacity="1" stroke="#000000" stroke-opacity="1" stroke-width="6.4"/>
<circle clip-path="url(#clip262)" cx="1599.48" cy="947.114" r="14.4" fill="#008000" fill-rule="evenodd" fill-opacity="1" stroke="#000000" stroke-opacity="1" stroke-width="6.4"/>
<circle clip-path="url(#clip262)" cx="2259.32" cy="1140.95" r="14.4" fill="#008000" fill-rule="evenodd" fill-opacity="1" stroke="#000000" stroke-opacity="1" stroke-width="6.4"/>
<polyline clip-path="url(#clip262)" style="stroke:#00008b; stroke-linecap:round; stroke-linejoin:round; stroke-width:8; stroke-opacity:1; fill:none" points="719.695,160.149 774.682,199.506 994.628,458.4 1599.48,944.043 2259.32,1203.65 "/>
<path clip-path="url(#clip262)" d="M719.695 195.225 L774.682 234.57 L994.628 492.282 L1599.48 980.474 L2259.32 1240.32 L2259.32 1157.07 L1599.48 891.196 L994.628 418.728 L774.682 162.74 L719.695 127.862  Z" fill="#0000ff" fill-rule="evenodd" fill-opacity="0.1"/>
<polyline clip-path="url(#clip262)" style="stroke:#0000ff; stroke-linecap:round; stroke-linejoin:round; stroke-width:0; stroke-opacity:0.1; fill:none" points="719.695,195.225 774.682,234.57 994.628,492.282 1599.48,980.474 2259.32,1240.32 "/>
<path clip-path="url(#clip260)" d="M1810.18 444.835 L2251.11 444.835 L2251.11 133.795 L1810.18 133.795  Z" fill="#ffffff" fill-rule="evenodd" fill-opacity="1"/>
<polyline clip-path="url(#clip260)" style="stroke:#000000; stroke-linecap:round; stroke-linejoin:round; stroke-width:8; stroke-opacity:1; fill:none" points="1810.18,444.835 2251.11,444.835 2251.11,133.795 1810.18,133.795 1810.18,444.835 "/>
<polyline clip-path="url(#clip260)" style="stroke:#008000; stroke-linecap:round; stroke-linejoin:round; stroke-width:8; stroke-opacity:1; fill:none" points="1828.31,237.475 1937.11,237.475 "/>
<circle clip-path="url(#clip260)" cx="1882.71" cy="237.475" r="7.55558" fill="#008000" fill-rule="evenodd" fill-opacity="1" stroke="#000000" stroke-opacity="1" stroke-width="6.71607"/>
<path clip-path="url(#clip260)" d="M2010.99 208.239 L2010.99 218.1 Q2006.27 213.702 2000.9 211.526 Q1995.57 209.35 1989.55 209.35 Q1977.7 209.35 1971.41 216.619 Q1965.11 223.841 1965.11 237.545 Q1965.11 251.202 1971.41 258.47 Q1977.7 265.693 1989.55 265.693 Q1995.57 265.693 2000.9 263.517 Q2006.27 261.341 2010.99 256.943 L2010.99 266.711 Q2006.08 270.044 2000.57 271.711 Q1995.11 273.378 1989 273.378 Q1973.3 273.378 1964.28 263.794 Q1955.25 254.165 1955.25 237.545 Q1955.25 220.878 1964.28 211.295 Q1973.3 201.665 1989 201.665 Q1995.2 201.665 2000.66 203.332 Q2006.17 204.952 2010.99 208.239 Z" fill="#000000" fill-rule="nonzero" fill-opacity="1" /><path clip-path="url(#clip260)" d="M2058.12 221.711 L2058.12 229.767 Q2054.51 227.915 2050.62 226.989 Q2046.73 226.063 2042.56 226.063 Q2036.22 226.063 2033.03 228.008 Q2029.88 229.952 2029.88 233.841 Q2029.88 236.804 2032.15 238.517 Q2034.41 240.183 2041.27 241.711 L2044.18 242.359 Q2053.26 244.304 2057.05 247.869 Q2060.9 251.387 2060.9 257.73 Q2060.9 264.952 2055.16 269.165 Q2049.46 273.378 2039.46 273.378 Q2035.29 273.378 2030.76 272.544 Q2026.27 271.757 2021.27 270.137 L2021.27 261.341 Q2025.99 263.794 2030.57 265.044 Q2035.16 266.248 2039.65 266.248 Q2045.66 266.248 2048.91 264.211 Q2052.15 262.128 2052.15 258.378 Q2052.15 254.906 2049.78 253.054 Q2047.47 251.202 2039.55 249.489 L2036.59 248.794 Q2028.67 247.128 2025.16 243.702 Q2021.64 240.23 2021.64 234.211 Q2021.64 226.896 2026.82 222.915 Q2032.01 218.934 2041.54 218.934 Q2046.27 218.934 2050.43 219.628 Q2054.6 220.322 2058.12 221.711 Z" fill="#000000" fill-rule="nonzero" fill-opacity="1" /><path clip-path="url(#clip260)" d="M2118.81 243.98 L2118.81 248.146 L2079.65 248.146 Q2080.2 256.943 2084.92 261.572 Q2089.69 266.156 2098.16 266.156 Q2103.07 266.156 2107.65 264.952 Q2112.28 263.748 2116.82 261.341 L2116.82 269.396 Q2112.24 271.341 2107.42 272.359 Q2102.61 273.378 2097.65 273.378 Q2085.25 273.378 2077.98 266.156 Q2070.76 258.933 2070.76 246.619 Q2070.76 233.887 2077.61 226.434 Q2084.51 218.934 2096.17 218.934 Q2106.64 218.934 2112.7 225.693 Q2118.81 232.406 2118.81 243.98 M2110.29 241.48 Q2110.2 234.489 2106.36 230.322 Q2102.56 226.156 2096.27 226.156 Q2089.14 226.156 2084.83 230.183 Q2080.57 234.211 2079.92 241.526 L2110.29 241.48 Z" fill="#000000" fill-rule="nonzero" fill-opacity="1" /><path clip-path="url(#clip260)" d="M2162.84 228.146 Q2161.4 227.313 2159.69 226.943 Q2158.02 226.526 2155.99 226.526 Q2148.77 226.526 2144.88 231.248 Q2141.03 235.924 2141.03 244.72 L2141.03 272.035 L2132.47 272.035 L2132.47 220.184 L2141.03 220.184 L2141.03 228.239 Q2143.72 223.517 2148.02 221.248 Q2152.33 218.934 2158.49 218.934 Q2159.37 218.934 2160.43 219.072 Q2161.5 219.165 2162.79 219.397 L2162.84 228.146 Z" fill="#000000" fill-rule="nonzero" fill-opacity="1" /><path clip-path="url(#clip260)" d="M2200.15 228.146 Q2198.72 227.313 2197.01 226.943 Q2195.34 226.526 2193.3 226.526 Q2186.08 226.526 2182.19 231.248 Q2178.35 235.924 2178.35 244.72 L2178.35 272.035 L2169.78 272.035 L2169.78 220.184 L2178.35 220.184 L2178.35 228.239 Q2181.03 223.517 2185.34 221.248 Q2189.65 218.934 2195.8 218.934 Q2196.68 218.934 2197.75 219.072 Q2198.81 219.165 2200.11 219.397 L2200.15 228.146 Z" fill="#000000" fill-rule="nonzero" fill-opacity="1" /><polyline clip-path="url(#clip260)" style="stroke:#00008b; stroke-linecap:round; stroke-linejoin:round; stroke-width:8; stroke-opacity:1; fill:none" points="1828.31,341.155 1937.11,341.155 "/>
<path clip-path="url(#clip260)" d="M1995.94 333.817 Q1999.14 328.076 2003.58 325.345 Q2008.03 322.614 2014.04 322.614 Q2022.15 322.614 2026.54 328.308 Q2030.94 333.956 2030.94 344.419 L2030.94 375.715 L2022.38 375.715 L2022.38 344.697 Q2022.38 337.243 2019.74 333.632 Q2017.1 330.021 2011.68 330.021 Q2005.06 330.021 2001.22 334.419 Q1997.38 338.817 1997.38 346.41 L1997.38 375.715 L1988.81 375.715 L1988.81 344.697 Q1988.81 337.197 1986.17 333.632 Q1983.54 330.021 1978.03 330.021 Q1971.5 330.021 1967.66 334.465 Q1963.81 338.863 1963.81 346.41 L1963.81 375.715 L1955.25 375.715 L1955.25 323.864 L1963.81 323.864 L1963.81 331.919 Q1966.73 327.151 1970.8 324.882 Q1974.88 322.614 1980.48 322.614 Q1986.13 322.614 1990.06 325.484 Q1994.04 328.354 1995.94 333.817 Z" fill="#000000" fill-rule="nonzero" fill-opacity="1" /><path clip-path="url(#clip260)" d="M2068.03 329.836 Q2061.17 329.836 2057.19 335.206 Q2053.21 340.53 2053.21 349.836 Q2053.21 359.141 2057.15 364.511 Q2061.13 369.836 2068.03 369.836 Q2074.83 369.836 2078.81 364.465 Q2082.79 359.095 2082.79 349.836 Q2082.79 340.623 2078.81 335.252 Q2074.83 329.836 2068.03 329.836 M2068.03 322.614 Q2079.14 322.614 2085.48 329.836 Q2091.82 337.058 2091.82 349.836 Q2091.82 362.567 2085.48 369.836 Q2079.14 377.058 2068.03 377.058 Q2056.87 377.058 2050.53 369.836 Q2044.23 362.567 2044.23 349.836 Q2044.23 337.058 2050.53 329.836 Q2056.87 322.614 2068.03 322.614 Z" fill="#000000" fill-rule="nonzero" fill-opacity="1" /><path clip-path="url(#clip260)" d="M2140.06 331.734 L2140.06 303.678 L2148.58 303.678 L2148.58 375.715 L2140.06 375.715 L2140.06 367.937 Q2137.38 372.567 2133.26 374.835 Q2129.18 377.058 2123.44 377.058 Q2114.04 377.058 2108.12 369.558 Q2102.24 362.058 2102.24 349.836 Q2102.24 337.613 2108.12 330.114 Q2114.04 322.614 2123.44 322.614 Q2129.18 322.614 2133.26 324.882 Q2137.38 327.104 2140.06 331.734 M2111.03 349.836 Q2111.03 359.234 2114.88 364.604 Q2118.77 369.928 2125.53 369.928 Q2132.28 369.928 2136.17 364.604 Q2140.06 359.234 2140.06 349.836 Q2140.06 340.438 2136.17 335.113 Q2132.28 329.743 2125.53 329.743 Q2118.77 329.743 2114.88 335.113 Q2111.03 340.438 2111.03 349.836 Z" fill="#000000" fill-rule="nonzero" fill-opacity="1" /><path clip-path="url(#clip260)" d="M2210.48 347.66 L2210.48 351.826 L2171.31 351.826 Q2171.87 360.623 2176.59 365.252 Q2181.36 369.836 2189.83 369.836 Q2194.74 369.836 2199.32 368.632 Q2203.95 367.428 2208.49 365.021 L2208.49 373.076 Q2203.9 375.021 2199.09 376.039 Q2194.27 377.058 2189.32 377.058 Q2176.91 377.058 2169.65 369.836 Q2162.42 362.613 2162.42 350.299 Q2162.42 337.567 2169.27 330.114 Q2176.17 322.614 2187.84 322.614 Q2198.3 322.614 2204.37 329.373 Q2210.48 336.086 2210.48 347.66 M2201.96 345.16 Q2201.87 338.169 2198.02 334.002 Q2194.23 329.836 2187.93 329.836 Q2180.8 329.836 2176.5 333.863 Q2172.24 337.891 2171.59 345.206 L2201.96 345.16 Z" fill="#000000" fill-rule="nonzero" fill-opacity="1" /><path clip-path="url(#clip260)" d="M2224.46 303.678 L2232.98 303.678 L2232.98 375.715 L2224.46 375.715 L2224.46 303.678 Z" fill="#000000" fill-rule="nonzero" fill-opacity="1" /></svg>
