<?xml version="1.0" encoding="utf-8"?>
<svg xmlns="http://www.w3.org/2000/svg" xmlns:xlink="http://www.w3.org/1999/xlink" width="600" height="400" viewBox="0 0 2400 1600">
<defs>
  <clipPath id="clip140">
    <rect x="0" y="0" width="2400" height="1600"/>
  </clipPath>
</defs>
<path clip-path="url(#clip140)" d="M0 1600 L2400 1600 L2400 0 L0 0  Z" fill="#ffffff" fill-rule="evenodd" fill-opacity="1"/>
<defs>
  <clipPath id="clip141">
    <rect x="480" y="0" width="1681" height="1600"/>
  </clipPath>
</defs>
<path clip-path="url(#clip140)" d="M673.506 1273.7 L2305.51 1273.7 L2305.51 94.4882 L673.506 94.4882  Z" fill="#ffffff" fill-rule="evenodd" fill-opacity="1"/>
<defs>
  <clipPath id="clip142">
    <rect x="673" y="94" width="1633" height="1180"/>
  </clipPath>
</defs>
<polyline clip-path="url(#clip142)" style="stroke:#000000; stroke-linecap:round; stroke-linejoin:round; stroke-width:4; stroke-opacity:0.1; fill:none" points="719.695,1273.7 719.695,94.4882 "/>
<polyline clip-path="url(#clip142)" style="stroke:#000000; stroke-linecap:round; stroke-linejoin:round; stroke-width:4; stroke-opacity:0.1; fill:none" points="994.628,1273.7 994.628,94.4882 "/>
<polyline clip-path="url(#clip142)" style="stroke:#000000; stroke-linecap:round; stroke-linejoin:round; stroke-width:4; stroke-opacity:0.1; fill:none" points="1269.56,1273.7 1269.56,94.4882 "/>
<polyline clip-path="url(#clip142)" style="stroke:#000000; stroke-linecap:round; stroke-linejoin:round; stroke-width:4; stroke-opacity:0.1; fill:none" points="1544.5,1273.7 1544.5,94.4882 "/>
<polyline clip-path="url(#clip142)" style="stroke:#000000; stroke-linecap:round; stroke-linejoin:round; stroke-width:4; stroke-opacity:0.1; fill:none" points="1819.43,1273.7 1819.43,94.4882 "/>
<polyline clip-path="url(#clip142)" style="stroke:#000000; stroke-linecap:round; stroke-linejoin:round; stroke-width:4; stroke-opacity:0.1; fill:none" points="2094.36,1273.7 2094.36,94.4882 "/>
<polyline clip-path="url(#clip140)" style="stroke:#000000; stroke-linecap:round; stroke-linejoin:round; stroke-width:8; stroke-opacity:1; fill:none" points="673.506,1273.7 2305.51,1273.7 "/>
<polyline clip-path="url(#clip140)" style="stroke:#000000; stroke-linecap:round; stroke-linejoin:round; stroke-width:8; stroke-opacity:1; fill:none" points="719.695,1273.7 719.695,1254.8 "/>
<polyline clip-path="url(#clip140)" style="stroke:#000000; stroke-linecap:round; stroke-linejoin:round; stroke-width:8; stroke-opacity:1; fill:none" points="994.628,1273.7 994.628,1254.8 "/>
<polyline clip-path="url(#clip140)" style="stroke:#000000; stroke-linecap:round; stroke-linejoin:round; stroke-width:8; stroke-opacity:1; fill:none" points="1269.56,1273.7 1269.56,1254.8 "/>
<polyline clip-path="url(#clip140)" style="stroke:#000000; stroke-linecap:round; stroke-linejoin:round; stroke-width:8; stroke-opacity:1; fill:none" points="1544.5,1273.7 1544.5,1254.8 "/>
<polyline clip-path="url(#clip140)" style="stroke:#000000; stroke-linecap:round; stroke-linejoin:round; stroke-width:8; stroke-opacity:1; fill:none" points="1819.43,1273.7 1819.43,1254.8 "/>
<polyline clip-path="url(#clip140)" style="stroke:#000000; stroke-linecap:round; stroke-linejoin:round; stroke-width:8; stroke-opacity:1; fill:none" points="2094.36,1273.7 2094.36,1254.8 "/>
<path clip-path="url(#clip140)" d="M719.695 1316.33 Q712.473 1316.33 708.815 1323.46 Q705.204 1330.55 705.204 1344.81 Q705.204 1359.02 708.815 1366.15 Q712.473 1373.23 719.695 1373.23 Q726.963 1373.23 730.574 1366.15 Q734.232 1359.02 734.232 1344.81 Q734.232 1330.55 730.574 1323.46 Q726.963 1316.33 719.695 1316.33 M719.695 1308.93 Q731.315 1308.93 737.426 1318.14 Q743.584 1327.31 743.584 1344.81 Q743.584 1362.26 737.426 1371.47 Q731.315 1380.64 719.695 1380.64 Q708.075 1380.64 701.917 1371.47 Q695.806 1362.26 695.806 1344.81 Q695.806 1327.31 701.917 1318.14 Q708.075 1308.93 719.695 1308.93 Z" fill="#000000" fill-rule="nonzero" fill-opacity="1" /><path clip-path="url(#clip140)" d="M975.184 1310.18 L1011.9 1310.18 L1011.9 1318.05 L983.749 1318.05 L983.749 1334.99 Q985.786 1334.3 987.823 1333.97 Q989.86 1333.6 991.897 1333.6 Q1003.47 1333.6 1010.23 1339.94 Q1016.99 1346.29 1016.99 1357.12 Q1016.99 1368.28 1010.04 1374.48 Q1003.1 1380.64 990.462 1380.64 Q986.11 1380.64 981.573 1379.9 Q977.082 1379.16 972.267 1377.68 L972.267 1368.28 Q976.434 1370.55 980.878 1371.66 Q985.323 1372.77 990.277 1372.77 Q998.286 1372.77 1002.96 1368.56 Q1007.64 1364.34 1007.64 1357.12 Q1007.64 1349.9 1002.96 1345.68 Q998.286 1341.47 990.277 1341.47 Q986.527 1341.47 982.777 1342.31 Q979.073 1343.14 975.184 1344.9 L975.184 1310.18 Z" fill="#000000" fill-rule="nonzero" fill-opacity="1" /><path clip-path="url(#clip140)" d="M1218.94 1371.43 L1234.21 1371.43 L1234.21 1318.69 L1217.59 1322.03 L1217.59 1313.51 L1234.12 1310.18 L1243.47 1310.18 L1243.47 1371.43 L1258.75 1371.43 L1258.75 1379.3 L1218.94 1379.3 L1218.94 1371.43 Z" fill="#000000" fill-rule="nonzero" fill-opacity="1" /><path clip-path="url(#clip140)" d="M1297.64 1316.33 Q1290.42 1316.33 1286.76 1323.46 Q1283.15 1330.55 1283.15 1344.81 Q1283.15 1359.02 1286.76 1366.15 Q1290.42 1373.23 1297.64 1373.23 Q1304.91 1373.23 1308.52 1366.15 Q1312.18 1359.02 1312.18 1344.81 Q1312.18 1330.55 1308.52 1323.46 Q1304.91 1316.33 1297.64 1316.33 M1297.64 1308.93 Q1309.26 1308.93 1315.37 1318.14 Q1321.53 1327.31 1321.53 1344.81 Q1321.53 1362.26 1315.37 1371.47 Q1309.26 1380.64 1297.64 1380.64 Q1286.02 1380.64 1279.86 1371.47 Q1273.75 1362.26 1273.75 1344.81 Q1273.75 1327.31 1279.86 1318.14 Q1286.02 1308.93 1297.64 1308.93 Z" fill="#000000" fill-rule="nonzero" fill-opacity="1" /><path clip-path="url(#clip140)" d="M1494.87 1371.43 L1510.14 1371.43 L1510.14 1318.69 L1493.52 1322.03 L1493.52 1313.51 L1510.05 1310.18 L1519.4 1310.18 L1519.4 1371.43 L1534.68 1371.43 L1534.68 1379.3 L1494.87 1379.3 L1494.87 1371.43 Z" fill="#000000" fill-rule="nonzero" fill-opacity="1" /><path clip-path="url(#clip140)" d="M1553.66 1310.18 L1590.37 1310.18 L1590.37 1318.05 L1562.23 1318.05 L1562.23 1334.99 Q1564.26 1334.3 1566.3 1333.97 Q1568.34 1333.6 1570.38 1333.6 Q1581.95 1333.6 1588.71 1339.94 Q1595.47 1346.29 1595.47 1357.12 Q1595.47 1368.28 1588.52 1374.48 Q1581.58 1380.64 1568.94 1380.64 Q1564.59 1380.64 1560.05 1379.9 Q1555.56 1379.16 1550.75 1377.68 L1550.75 1368.28 Q1554.91 1370.55 1559.36 1371.66 Q1563.8 1372.77 1568.75 1372.77 Q1576.76 1372.77 1581.44 1368.56 Q1586.12 1364.34 1586.12 1357.12 Q1586.12 1349.9 1581.44 1345.68 Q1576.76 1341.47 1568.75 1341.47 Q1565 1341.47 1561.25 1342.31 Q1557.55 1343.14 1553.66 1344.9 L1553.66 1310.18 Z" fill="#000000" fill-rule="nonzero" fill-opacity="1" /><path clip-path="url(#clip140)" d="M1776.98 1371.43 L1809.61 1371.43 L1809.61 1379.3 L1765.73 1379.3 L1765.73 1371.43 Q1771.05 1365.92 1780.22 1356.66 Q1789.43 1347.35 1791.79 1344.67 Q1796.28 1339.62 1798.04 1336.15 Q1799.85 1332.63 1799.85 1329.25 Q1799.85 1323.74 1795.96 1320.27 Q1792.11 1316.8 1785.91 1316.8 Q1781.51 1316.8 1776.61 1318.32 Q1771.74 1319.85 1766.19 1322.95 L1766.19 1313.51 Q1771.84 1311.24 1776.74 1310.08 Q1781.65 1308.93 1785.73 1308.93 Q1796.47 1308.93 1802.86 1314.3 Q1809.24 1319.67 1809.24 1328.65 Q1809.24 1332.91 1807.62 1336.75 Q1806.05 1340.55 1801.84 1345.73 Q1800.68 1347.07 1794.48 1353.51 Q1788.27 1359.9 1776.98 1371.43 Z" fill="#000000" fill-rule="nonzero" fill-opacity="1" /><path clip-path="url(#clip140)" d="M1849.24 1316.33 Q1842.02 1316.33 1838.36 1323.46 Q1834.75 1330.55 1834.75 1344.81 Q1834.75 1359.02 1838.36 1366.15 Q1842.02 1373.23 1849.24 1373.23 Q1856.51 1373.23 1860.12 1366.15 Q1863.78 1359.02 1863.78 1344.81 Q1863.78 1330.55 1860.12 1323.46 Q1856.51 1316.33 1849.24 1316.33 M1849.24 1308.93 Q1860.86 1308.93 1866.98 1318.14 Q1873.13 1327.31 1873.13 1344.81 Q1873.13 1362.26 1866.98 1371.47 Q1860.86 1380.64 1849.24 1380.64 Q1837.62 1380.64 1831.47 1371.47 Q1825.36 1362.26 1825.36 1344.81 Q1825.36 1327.31 1831.47 1318.14 Q1837.62 1308.93 1849.24 1308.93 Z" fill="#000000" fill-rule="nonzero" fill-opacity="1" /><path clip-path="url(#clip140)" d="M2052.9 1371.43 L2085.54 1371.43 L2085.54 1379.3 L2041.65 1379.3 L2041.65 1371.43 Q2046.98 1365.92 2056.15 1356.66 Q2065.36 1347.35 2067.72 1344.67 Q2072.21 1339.62 2073.97 1336.15 Q2075.77 1332.63 2075.77 1329.25 Q2075.77 1323.74 2071.89 1320.27 Q2068.04 1316.8 2061.84 1316.8 Q2057.44 1316.8 2052.53 1318.32 Q2047.67 1319.85 2042.12 1322.95 L2042.12 1313.51 Q2047.77 1311.24 2052.67 1310.08 Q2057.58 1308.93 2061.65 1308.93 Q2072.4 1308.93 2078.78 1314.3 Q2085.17 1319.67 2085.17 1328.65 Q2085.17 1332.91 2083.55 1336.75 Q2081.98 1340.55 2077.77 1345.73 Q2076.61 1347.07 2070.4 1353.51 Q2064.2 1359.9 2052.9 1371.43 Z" fill="#000000" fill-rule="nonzero" fill-opacity="1" /><path clip-path="url(#clip140)" d="M2105.27 1310.18 L2141.98 1310.18 L2141.98 1318.05 L2113.83 1318.05 L2113.83 1334.99 Q2115.87 1334.3 2117.9 1333.97 Q2119.94 1333.6 2121.98 1333.6 Q2133.55 1333.6 2140.31 1339.94 Q2147.07 1346.29 2147.07 1357.12 Q2147.07 1368.28 2140.13 1374.48 Q2133.18 1380.64 2120.54 1380.64 Q2116.19 1380.64 2111.65 1379.9 Q2107.16 1379.16 2102.35 1377.68 L2102.35 1368.28 Q2106.52 1370.55 2110.96 1371.66 Q2115.4 1372.77 2120.36 1372.77 Q2128.37 1372.77 2133.04 1368.56 Q2137.72 1364.34 2137.72 1357.12 Q2137.72 1349.9 2133.04 1345.68 Q2128.37 1341.47 2120.36 1341.47 Q2116.61 1341.47 2112.86 1342.31 Q2109.15 1343.14 2105.27 1344.9 L2105.27 1310.18 Z" fill="#000000" fill-rule="nonzero" fill-opacity="1" /><path clip-path="url(#clip140)" d="M1375.05 1484.39 L1375.05 1527.42 L1363.34 1527.42 L1363.34 1484.77 Q1363.34 1474.65 1359.39 1469.62 Q1355.45 1464.59 1347.55 1464.59 Q1338.07 1464.59 1332.59 1470.64 Q1327.12 1476.69 1327.12 1487.13 L1327.12 1527.42 L1315.34 1527.42 L1315.34 1428.37 L1327.12 1428.37 L1327.12 1467.2 Q1331.32 1460.77 1336.99 1457.59 Q1342.72 1454.41 1350.16 1454.41 Q1362.45 1454.41 1368.75 1462.05 Q1375.05 1469.62 1375.05 1484.39 Z" fill="#000000" fill-rule="nonzero" fill-opacity="1" /><path clip-path="url(#clip140)" d="M1426.04 1464.34 Q1416.62 1464.34 1411.15 1471.72 Q1405.67 1479.04 1405.67 1491.84 Q1405.67 1504.63 1411.08 1512.02 Q1416.56 1519.34 1426.04 1519.34 Q1435.4 1519.34 1440.87 1511.96 Q1446.35 1504.57 1446.35 1491.84 Q1446.35 1479.17 1440.87 1471.79 Q1435.4 1464.34 1426.04 1464.34 M1426.04 1454.41 Q1441.32 1454.41 1450.04 1464.34 Q1458.76 1474.27 1458.76 1491.84 Q1458.76 1509.35 1450.04 1519.34 Q1441.32 1529.27 1426.04 1529.27 Q1410.7 1529.27 1401.98 1519.34 Q1393.32 1509.35 1393.32 1491.84 Q1393.32 1474.27 1401.98 1464.34 Q1410.7 1454.41 1426.04 1454.41 Z" fill="#000000" fill-rule="nonzero" fill-opacity="1" /><path clip-path="url(#clip140)" d="M1476.97 1499.29 L1476.97 1456.13 L1488.68 1456.13 L1488.68 1498.84 Q1488.68 1508.96 1492.63 1514.06 Q1496.57 1519.08 1504.47 1519.08 Q1513.95 1519.08 1519.43 1513.04 Q1524.97 1506.99 1524.97 1496.55 L1524.97 1456.13 L1536.68 1456.13 L1536.68 1527.42 L1524.97 1527.42 L1524.97 1516.47 Q1520.7 1522.97 1515.04 1526.15 Q1509.43 1529.27 1501.99 1529.27 Q1489.7 1529.27 1483.33 1521.63 Q1476.97 1513.99 1476.97 1499.29 M1506.44 1454.41 L1506.44 1454.41 Z" fill="#000000" fill-rule="nonzero" fill-opacity="1" /><path clip-path="url(#clip140)" d="M1602.12 1467.08 Q1600.14 1465.93 1597.79 1465.42 Q1595.5 1464.85 1592.7 1464.85 Q1582.77 1464.85 1577.42 1471.34 Q1572.14 1477.77 1572.14 1489.87 L1572.14 1527.42 L1560.36 1527.42 L1560.36 1456.13 L1572.14 1456.13 L1572.14 1467.2 Q1575.83 1460.71 1581.75 1457.59 Q1587.67 1454.41 1596.13 1454.41 Q1597.34 1454.41 1598.81 1454.6 Q1600.27 1454.73 1602.05 1455.05 L1602.12 1467.08 Z" fill="#000000" fill-rule="nonzero" fill-opacity="1" /><path clip-path="url(#clip140)" d="M1659.86 1458.23 L1659.86 1469.3 Q1654.89 1466.76 1649.54 1465.49 Q1644.2 1464.21 1638.47 1464.21 Q1629.75 1464.21 1625.35 1466.89 Q1621.02 1469.56 1621.02 1474.91 Q1621.02 1478.98 1624.14 1481.34 Q1627.26 1483.63 1636.68 1485.73 L1640.69 1486.62 Q1653.17 1489.29 1658.39 1494.19 Q1663.67 1499.03 1663.67 1507.75 Q1663.67 1517.68 1655.78 1523.48 Q1647.95 1529.27 1634.2 1529.27 Q1628.47 1529.27 1622.23 1528.12 Q1616.06 1527.04 1609.18 1524.81 L1609.18 1512.72 Q1615.68 1516.09 1621.98 1517.81 Q1628.28 1519.47 1634.46 1519.47 Q1642.73 1519.47 1647.19 1516.67 Q1651.64 1513.8 1651.64 1508.64 Q1651.64 1503.87 1648.4 1501.32 Q1645.21 1498.78 1634.33 1496.42 L1630.25 1495.47 Q1619.37 1493.18 1614.53 1488.47 Q1609.69 1483.69 1609.69 1475.42 Q1609.69 1465.36 1616.82 1459.88 Q1623.95 1454.41 1637.07 1454.41 Q1643.56 1454.41 1649.29 1455.36 Q1655.02 1456.32 1659.86 1458.23 Z" fill="#000000" fill-rule="nonzero" fill-opacity="1" /><polyline clip-path="url(#clip142)" style="stroke:#000000; stroke-linecap:round; stroke-linejoin:round; stroke-width:4; stroke-opacity:0.1; fill:none" points="673.506,1206.69 2305.51,1206.69 "/>
<polyline clip-path="url(#clip142)" style="stroke:#000000; stroke-linecap:round; stroke-linejoin:round; stroke-width:4; stroke-opacity:0.1; fill:none" points="673.506,944.328 2305.51,944.328 "/>
<polyline clip-path="url(#clip142)" style="stroke:#000000; stroke-linecap:round; stroke-linejoin:round; stroke-width:4; stroke-opacity:0.1; fill:none" points="673.506,681.969 2305.51,681.969 "/>
<polyline clip-path="url(#clip142)" style="stroke:#000000; stroke-linecap:round; stroke-linejoin:round; stroke-width:4; stroke-opacity:0.1; fill:none" points="673.506,419.61 2305.51,419.61 "/>
<polyline clip-path="url(#clip142)" style="stroke:#000000; stroke-linecap:round; stroke-linejoin:round; stroke-width:4; stroke-opacity:0.1; fill:none" points="673.506,157.251 2305.51,157.251 "/>
<polyline clip-path="url(#clip140)" style="stroke:#000000; stroke-linecap:round; stroke-linejoin:round; stroke-width:8; stroke-opacity:1; fill:none" points="673.506,1273.7 673.506,94.4882 "/>
<polyline clip-path="url(#clip140)" style="stroke:#000000; stroke-linecap:round; stroke-linejoin:round; stroke-width:8; stroke-opacity:1; fill:none" points="673.506,1206.69 692.404,1206.69 "/>
<polyline clip-path="url(#clip140)" style="stroke:#000000; stroke-linecap:round; stroke-linejoin:round; stroke-width:8; stroke-opacity:1; fill:none" points="673.506,944.328 692.404,944.328 "/>
<polyline clip-path="url(#clip140)" style="stroke:#000000; stroke-linecap:round; stroke-linejoin:round; stroke-width:8; stroke-opacity:1; fill:none" points="673.506,681.969 692.404,681.969 "/>
<polyline clip-path="url(#clip140)" style="stroke:#000000; stroke-linecap:round; stroke-linejoin:round; stroke-width:8; stroke-opacity:1; fill:none" points="673.506,419.61 692.404,419.61 "/>
<polyline clip-path="url(#clip140)" style="stroke:#000000; stroke-linecap:round; stroke-linejoin:round; stroke-width:8; stroke-opacity:1; fill:none" points="673.506,157.251 692.404,157.251 "/>
<path clip-path="url(#clip140)" d="M523.155 1178.28 Q515.933 1178.28 512.275 1185.41 Q508.664 1192.5 508.664 1206.76 Q508.664 1220.97 512.275 1228.1 Q515.933 1235.18 523.155 1235.18 Q530.423 1235.18 534.034 1228.1 Q537.692 1220.97 537.692 1206.76 Q537.692 1192.5 534.034 1185.41 Q530.423 1178.28 523.155 1178.28 M523.155 1170.88 Q534.775 1170.88 540.886 1180.09 Q547.043 1189.26 547.043 1206.76 Q547.043 1224.21 540.886 1233.42 Q534.775 1242.59 523.155 1242.59 Q511.534 1242.59 505.377 1233.42 Q499.266 1224.21 499.266 1206.76 Q499.266 1189.26 505.377 1180.09 Q511.534 1170.88 523.155 1170.88 Z" fill="#000000" fill-rule="nonzero" fill-opacity="1" /><path clip-path="url(#clip140)" d="M563.479 1229.49 L573.247 1229.49 L573.247 1241.25 L563.479 1241.25 L563.479 1229.49 Z" fill="#000000" fill-rule="nonzero" fill-opacity="1" /><path clip-path="url(#clip140)" d="M613.617 1178.28 Q606.395 1178.28 602.738 1185.41 Q599.127 1192.5 599.127 1206.76 Q599.127 1220.97 602.738 1228.1 Q606.395 1235.18 613.617 1235.18 Q620.886 1235.18 624.497 1228.1 Q628.154 1220.97 628.154 1206.76 Q628.154 1192.5 624.497 1185.41 Q620.886 1178.28 613.617 1178.28 M613.617 1170.88 Q625.238 1170.88 631.349 1180.09 Q637.506 1189.26 637.506 1206.76 Q637.506 1224.21 631.349 1233.42 Q625.238 1242.59 613.617 1242.59 Q601.997 1242.59 595.84 1233.42 Q589.728 1224.21 589.728 1206.76 Q589.728 1189.26 595.84 1180.09 Q601.997 1170.88 613.617 1170.88 Z" fill="#000000" fill-rule="nonzero" fill-opacity="1" /><path clip-path="url(#clip140)" d="M450.887 971.017 L483.525 971.017 L483.525 978.888 L439.637 978.888 L439.637 971.017 Q444.961 965.508 454.127 956.249 Q463.34 946.943 465.701 944.258 Q470.192 939.212 471.951 935.74 Q473.757 932.221 473.757 928.842 Q473.757 923.332 469.868 919.86 Q466.025 916.388 459.822 916.388 Q455.424 916.388 450.516 917.916 Q445.655 919.444 440.1 922.545 L440.1 913.101 Q445.748 910.833 450.655 909.675 Q455.562 908.518 459.637 908.518 Q470.377 908.518 476.766 913.888 Q483.155 919.258 483.155 928.24 Q483.155 932.499 481.535 936.342 Q479.961 940.138 475.748 945.323 Q474.59 946.666 468.387 953.101 Q462.183 959.49 450.887 971.017 Z" fill="#000000" fill-rule="nonzero" fill-opacity="1" /><path clip-path="url(#clip140)" d="M503.247 909.768 L539.96 909.768 L539.96 917.638 L511.812 917.638 L511.812 934.582 Q513.849 933.888 515.886 933.564 Q517.923 933.194 519.96 933.194 Q531.534 933.194 538.294 939.536 Q545.053 945.879 545.053 956.712 Q545.053 967.869 538.108 974.073 Q531.164 980.23 518.525 980.23 Q514.173 980.23 509.636 979.49 Q505.146 978.749 500.331 977.267 L500.331 967.869 Q504.497 970.138 508.942 971.249 Q513.386 972.36 518.34 972.36 Q526.349 972.36 531.025 968.147 Q535.701 963.934 535.701 956.712 Q535.701 949.49 531.025 945.277 Q526.349 941.064 518.34 941.064 Q514.59 941.064 510.84 941.897 Q507.136 942.731 503.247 944.49 L503.247 909.768 Z" fill="#000000" fill-rule="nonzero" fill-opacity="1" /><path clip-path="url(#clip140)" d="M563.479 967.129 L573.247 967.129 L573.247 978.888 L563.479 978.888 L563.479 967.129 Z" fill="#000000" fill-rule="nonzero" fill-opacity="1" /><path clip-path="url(#clip140)" d="M613.617 915.925 Q606.395 915.925 602.738 923.055 Q599.127 930.138 599.127 944.397 Q599.127 958.61 602.738 965.74 Q606.395 972.823 613.617 972.823 Q620.886 972.823 624.497 965.74 Q628.154 958.61 628.154 944.397 Q628.154 930.138 624.497 923.055 Q620.886 915.925 613.617 915.925 M613.617 908.518 Q625.238 908.518 631.349 917.731 Q637.506 926.897 637.506 944.397 Q637.506 961.851 631.349 971.064 Q625.238 980.23 613.617 980.23 Q601.997 980.23 595.84 971.064 Q589.728 961.851 589.728 944.397 Q589.728 926.897 595.84 917.731 Q601.997 908.518 613.617 908.518 Z" fill="#000000" fill-rule="nonzero" fill-opacity="1" /><path clip-path="url(#clip140)" d="M442.924 647.409 L479.636 647.409 L479.636 655.279 L451.488 655.279 L451.488 672.224 Q453.525 671.529 455.562 671.205 Q457.6 670.835 459.637 670.835 Q471.211 670.835 477.97 677.177 Q484.729 683.52 484.729 694.353 Q484.729 705.51 477.785 711.714 Q470.84 717.871 458.201 717.871 Q453.85 717.871 449.313 717.131 Q444.822 716.39 440.007 714.909 L440.007 705.51 Q444.174 707.779 448.618 708.89 Q453.063 710.001 458.016 710.001 Q466.025 710.001 470.701 705.788 Q475.377 701.575 475.377 694.353 Q475.377 687.131 470.701 682.918 Q466.025 678.705 458.016 678.705 Q454.266 678.705 450.516 679.538 Q446.813 680.372 442.924 682.131 L442.924 647.409 Z" fill="#000000" fill-rule="nonzero" fill-opacity="1" /><path clip-path="url(#clip140)" d="M523.155 653.566 Q515.933 653.566 512.275 660.696 Q508.664 667.779 508.664 682.038 Q508.664 696.251 512.275 703.381 Q515.933 710.464 523.155 710.464 Q530.423 710.464 534.034 703.381 Q537.692 696.251 537.692 682.038 Q537.692 667.779 534.034 660.696 Q530.423 653.566 523.155 653.566 M523.155 646.159 Q534.775 646.159 540.886 655.372 Q547.043 664.538 547.043 682.038 Q547.043 699.492 540.886 708.705 Q534.775 717.871 523.155 717.871 Q511.534 717.871 505.377 708.705 Q499.266 699.492 499.266 682.038 Q499.266 664.538 505.377 655.372 Q511.534 646.159 523.155 646.159 Z" fill="#000000" fill-rule="nonzero" fill-opacity="1" /><path clip-path="url(#clip140)" d="M563.479 704.77 L573.247 704.77 L573.247 716.529 L563.479 716.529 L563.479 704.77 Z" fill="#000000" fill-rule="nonzero" fill-opacity="1" /><path clip-path="url(#clip140)" d="M613.617 653.566 Q606.395 653.566 602.738 660.696 Q599.127 667.779 599.127 682.038 Q599.127 696.251 602.738 703.381 Q606.395 710.464 613.617 710.464 Q620.886 710.464 624.497 703.381 Q628.154 696.251 628.154 682.038 Q628.154 667.779 624.497 660.696 Q620.886 653.566 613.617 653.566 M613.617 646.159 Q625.238 646.159 631.349 655.372 Q637.506 664.538 637.506 682.038 Q637.506 699.492 631.349 708.705 Q625.238 717.871 613.617 717.871 Q601.997 717.871 595.84 708.705 Q589.728 699.492 589.728 682.038 Q589.728 664.538 595.84 655.372 Q601.997 646.159 613.617 646.159 Z" fill="#000000" fill-rule="nonzero" fill-opacity="1" /><path clip-path="url(#clip140)" d="M440.47 385.05 L484.914 385.05 L484.914 389.031 L459.822 454.17 L450.053 454.17 L473.664 392.92 L440.47 392.92 L440.47 385.05 Z" fill="#000000" fill-rule="nonzero" fill-opacity="1" /><path clip-path="url(#clip140)" d="M503.247 385.05 L539.96 385.05 L539.96 392.92 L511.812 392.92 L511.812 409.865 Q513.849 409.17 515.886 408.846 Q517.923 408.476 519.96 408.476 Q531.534 408.476 538.294 414.818 Q545.053 421.161 545.053 431.994 Q545.053 443.152 538.108 449.355 Q531.164 455.513 518.525 455.513 Q514.173 455.513 509.636 454.772 Q505.146 454.031 500.331 452.55 L500.331 443.152 Q504.497 445.42 508.942 446.531 Q513.386 447.642 518.34 447.642 Q526.349 447.642 531.025 443.429 Q535.701 439.216 535.701 431.994 Q535.701 424.772 531.025 420.559 Q526.349 416.346 518.34 416.346 Q514.59 416.346 510.84 417.179 Q507.136 418.013 503.247 419.772 L503.247 385.05 Z" fill="#000000" fill-rule="nonzero" fill-opacity="1" /><path clip-path="url(#clip140)" d="M563.479 442.411 L573.247 442.411 L573.247 454.17 L563.479 454.17 L563.479 442.411 Z" fill="#000000" fill-rule="nonzero" fill-opacity="1" /><path clip-path="url(#clip140)" d="M613.617 391.207 Q606.395 391.207 602.738 398.337 Q599.127 405.42 599.127 419.679 Q599.127 433.892 602.738 441.022 Q606.395 448.105 613.617 448.105 Q620.886 448.105 624.497 441.022 Q628.154 433.892 628.154 419.679 Q628.154 405.42 624.497 398.337 Q620.886 391.207 613.617 391.207 M613.617 383.8 Q625.238 383.8 631.349 393.013 Q637.506 402.18 637.506 419.679 Q637.506 437.133 631.349 446.346 Q625.238 455.513 613.617 455.513 Q601.997 455.513 595.84 446.346 Q589.728 437.133 589.728 419.679 Q589.728 402.18 595.84 393.013 Q601.997 383.8 613.617 383.8 Z" fill="#000000" fill-rule="nonzero" fill-opacity="1" /><path clip-path="url(#clip140)" d="M384.128 183.941 L399.405 183.941 L399.405 131.21 L382.785 134.543 L382.785 126.024 L399.313 122.691 L408.665 122.691 L408.665 183.941 L423.942 183.941 L423.942 191.811 L384.128 191.811 L384.128 183.941 Z" fill="#000000" fill-rule="nonzero" fill-opacity="1" /><path clip-path="url(#clip140)" d="M462.831 128.849 Q455.609 128.849 451.951 135.978 Q448.34 143.061 448.34 157.321 Q448.34 171.534 451.951 178.663 Q455.609 185.746 462.831 185.746 Q470.099 185.746 473.711 178.663 Q477.368 171.534 477.368 157.321 Q477.368 143.061 473.711 135.978 Q470.099 128.849 462.831 128.849 M462.831 121.441 Q474.451 121.441 480.562 130.654 Q486.72 139.821 486.72 157.321 Q486.72 174.774 480.562 183.987 Q474.451 193.154 462.831 193.154 Q451.211 193.154 445.053 183.987 Q438.942 174.774 438.942 157.321 Q438.942 139.821 445.053 130.654 Q451.211 121.441 462.831 121.441 Z" fill="#000000" fill-rule="nonzero" fill-opacity="1" /><path clip-path="url(#clip140)" d="M523.155 128.849 Q515.933 128.849 512.275 135.978 Q508.664 143.061 508.664 157.321 Q508.664 171.534 512.275 178.663 Q515.933 185.746 523.155 185.746 Q530.423 185.746 534.034 178.663 Q537.692 171.534 537.692 157.321 Q537.692 143.061 534.034 135.978 Q530.423 128.849 523.155 128.849 M523.155 121.441 Q534.775 121.441 540.886 130.654 Q547.043 139.821 547.043 157.321 Q547.043 174.774 540.886 183.987 Q534.775 193.154 523.155 193.154 Q511.534 193.154 505.377 183.987 Q499.266 174.774 499.266 157.321 Q499.266 139.821 505.377 130.654 Q511.534 121.441 523.155 121.441 Z" fill="#000000" fill-rule="nonzero" fill-opacity="1" /><path clip-path="url(#clip140)" d="M563.479 180.052 L573.247 180.052 L573.247 191.811 L563.479 191.811 L563.479 180.052 Z" fill="#000000" fill-rule="nonzero" fill-opacity="1" /><path clip-path="url(#clip140)" d="M613.617 128.849 Q606.395 128.849 602.738 135.978 Q599.127 143.061 599.127 157.321 Q599.127 171.534 602.738 178.663 Q606.395 185.746 613.617 185.746 Q620.886 185.746 624.497 178.663 Q628.154 171.534 628.154 157.321 Q628.154 143.061 624.497 135.978 Q620.886 128.849 613.617 128.849 M613.617 121.441 Q625.238 121.441 631.349 130.654 Q637.506 139.821 637.506 157.321 Q637.506 174.774 631.349 183.987 Q625.238 193.154 613.617 193.154 Q601.997 193.154 595.84 183.987 Q589.728 174.774 589.728 157.321 Q589.728 139.821 595.84 130.654 Q601.997 121.441 613.617 121.441 Z" fill="#000000" fill-rule="nonzero" fill-opacity="1" /><path clip-path="url(#clip140)" d="M276.45 1103.59 Q276.45 1109.13 281.161 1112.31 Q285.872 1115.43 294.274 1115.43 Q302.55 1115.43 307.324 1112.31 Q312.035 1109.13 312.035 1103.59 Q312.035 1098.18 307.324 1095.06 Q302.55 1091.88 294.274 1091.88 Q285.935 1091.88 281.225 1095.06 Q276.45 1098.18 276.45 1103.59 M268.366 1103.59 Q268.366 1093.53 275.368 1087.61 Q282.371 1081.69 294.274 1081.69 Q306.178 1081.69 313.181 1087.68 Q320.119 1093.6 320.119 1103.59 Q320.119 1113.78 313.181 1119.7 Q306.178 1125.62 294.274 1125.62 Q282.307 1125.62 275.368 1119.7 Q268.366 1113.71 268.366 1103.59 M229.599 1169.29 Q229.599 1174.76 234.373 1177.94 Q239.084 1181.06 247.359 1181.06 Q255.762 1181.06 260.472 1177.94 Q265.183 1174.82 265.183 1169.29 Q265.183 1163.75 260.472 1160.63 Q255.762 1157.45 247.359 1157.45 Q239.147 1157.45 234.373 1160.63 Q229.599 1163.81 229.599 1169.29 M221.514 1111.8 L221.514 1101.62 L320.119 1161.07 L320.119 1171.26 L221.514 1111.8 M221.514 1169.29 Q221.514 1159.23 228.517 1153.24 Q235.455 1147.26 247.359 1147.26 Q259.39 1147.26 266.329 1153.24 Q273.268 1159.16 273.268 1169.29 Q273.268 1179.41 266.329 1185.33 Q259.327 1191.18 247.359 1191.18 Q235.519 1191.18 228.517 1185.26 Q221.514 1179.34 221.514 1169.29 Z" fill="#000000" fill-rule="nonzero" fill-opacity="1" /><path clip-path="url(#clip140)" d="M246.977 1020.77 L246.977 1009.06 L318.273 1009.06 L318.273 1020.77 L246.977 1020.77 M219.223 1020.77 L219.223 1009.06 L234.055 1009.06 L234.055 1020.77 L219.223 1020.77 Z" fill="#000000" fill-rule="nonzero" fill-opacity="1" /><path clip-path="url(#clip140)" d="M275.241 925.289 L318.273 925.289 L318.273 937.001 L275.623 937.001 Q265.501 937.001 260.472 940.948 Q255.444 944.895 255.444 952.788 Q255.444 962.273 261.491 967.748 Q267.538 973.222 277.978 973.222 L318.273 973.222 L318.273 984.999 L246.977 984.999 L246.977 973.222 L258.054 973.222 Q251.624 969.021 248.441 963.356 Q245.258 957.626 245.258 950.179 Q245.258 937.893 252.897 931.591 Q260.472 925.289 275.241 925.289 Z" fill="#000000" fill-rule="nonzero" fill-opacity="1" /><path clip-path="url(#clip140)" d="M219.223 865.833 L228.962 865.833 L228.962 877.037 Q228.962 883.339 231.509 885.821 Q234.055 888.24 240.675 888.24 L246.977 888.24 L246.977 868.952 L256.08 868.952 L256.08 888.24 L318.273 888.24 L318.273 900.017 L256.08 900.017 L256.08 911.22 L246.977 911.22 L246.977 900.017 L242.012 900.017 Q230.108 900.017 224.697 894.479 Q219.223 888.94 219.223 876.909 L219.223 865.833 Z" fill="#000000" fill-rule="nonzero" fill-opacity="1" /><path clip-path="url(#clip140)" d="M290.137 857.239 L246.977 857.239 L246.977 845.526 L289.691 845.526 Q299.813 845.526 304.905 841.58 Q309.934 837.633 309.934 829.739 Q309.934 820.254 303.887 814.78 Q297.839 809.242 287.399 809.242 L246.977 809.242 L246.977 797.529 L318.273 797.529 L318.273 809.242 L307.324 809.242 Q313.817 813.507 317 819.172 Q320.119 824.774 320.119 832.222 Q320.119 844.508 312.48 850.873 Q304.841 857.239 290.137 857.239 M245.258 827.766 L245.258 827.766 Z" fill="#000000" fill-rule="nonzero" fill-opacity="1" /><path clip-path="url(#clip140)" d="M249.078 727.952 L260.154 727.952 Q257.608 732.917 256.335 738.264 Q255.062 743.611 255.062 749.34 Q255.062 758.061 257.735 762.454 Q260.409 766.782 265.756 766.782 Q269.83 766.782 272.185 763.663 Q274.477 760.544 276.578 751.123 L277.469 747.112 Q280.143 734.636 285.044 729.416 Q289.882 724.132 298.603 724.132 Q308.534 724.132 314.326 732.026 Q320.119 739.856 320.119 753.605 Q320.119 759.335 318.973 765.573 Q317.891 771.748 315.663 778.623 L303.568 778.623 Q306.942 772.13 308.661 765.828 Q310.316 759.526 310.316 753.351 Q310.316 745.075 307.515 740.619 Q304.65 736.163 299.494 736.163 Q294.72 736.163 292.174 739.41 Q289.627 742.593 287.272 753.478 L286.317 757.552 Q284.026 768.438 279.315 773.276 Q274.541 778.113 266.265 778.113 Q256.207 778.113 250.733 770.984 Q245.258 763.854 245.258 750.741 Q245.258 744.248 246.213 738.519 Q247.168 732.79 249.078 727.952 Z" fill="#000000" fill-rule="nonzero" fill-opacity="1" /><path clip-path="url(#clip140)" d="M279.697 644.497 L285.426 644.497 L285.426 698.351 Q297.521 697.587 303.887 691.094 Q310.189 684.538 310.189 672.888 Q310.189 666.141 308.534 659.839 Q306.878 653.473 303.568 647.235 L314.645 647.235 Q317.318 653.537 318.719 660.157 Q320.119 666.777 320.119 673.589 Q320.119 690.649 310.189 700.643 Q300.258 710.573 283.325 710.573 Q265.82 710.573 255.571 701.152 Q245.258 691.667 245.258 675.626 Q245.258 661.239 254.552 652.9 Q263.783 644.497 279.697 644.497 M276.259 656.21 Q266.647 656.337 260.918 661.621 Q255.189 666.841 255.189 675.498 Q255.189 685.301 260.727 691.222 Q266.265 697.078 276.323 697.969 L276.259 656.21 Z" fill="#000000" fill-rule="nonzero" fill-opacity="1" /><path clip-path="url(#clip140)" d="M257.799 578.358 L219.223 578.358 L219.223 566.645 L318.273 566.645 L318.273 578.358 L307.579 578.358 Q313.944 582.05 317.064 587.715 Q320.119 593.317 320.119 601.21 Q320.119 614.133 309.807 622.281 Q299.494 630.365 282.689 630.365 Q265.883 630.365 255.571 622.281 Q245.258 614.133 245.258 601.21 Q245.258 593.317 248.378 587.715 Q251.433 582.05 257.799 578.358 M282.689 618.271 Q295.611 618.271 302.995 612.987 Q310.316 607.64 310.316 598.346 Q310.316 589.052 302.995 583.705 Q295.611 578.358 282.689 578.358 Q269.766 578.358 262.446 583.705 Q255.062 589.052 255.062 598.346 Q255.062 607.64 262.446 612.987 Q269.766 618.271 282.689 618.271 Z" fill="#000000" fill-rule="nonzero" fill-opacity="1" /><path clip-path="url(#clip140)" d="M260.663 445.569 Q252.77 441.177 249.014 435.066 Q245.258 428.954 245.258 420.679 Q245.258 409.539 253.088 403.492 Q260.854 397.444 275.241 397.444 L318.273 397.444 L318.273 409.221 L275.623 409.221 Q265.374 409.221 260.409 412.849 Q255.444 416.478 255.444 423.926 Q255.444 433.028 261.491 438.312 Q267.538 443.596 277.978 443.596 L318.273 443.596 L318.273 455.372 L275.623 455.372 Q265.31 455.372 260.409 459.001 Q255.444 462.629 255.444 470.204 Q255.444 479.18 261.555 484.463 Q267.602 489.747 277.978 489.747 L318.273 489.747 L318.273 501.524 L246.977 501.524 L246.977 489.747 L258.054 489.747 Q251.497 485.737 248.378 480.135 Q245.258 474.533 245.258 466.83 Q245.258 459.064 249.205 453.653 Q253.152 448.179 260.663 445.569 Z" fill="#000000" fill-rule="nonzero" fill-opacity="1" /><path clip-path="url(#clip140)" d="M282.434 341.681 Q282.434 355.876 285.681 361.351 Q288.927 366.825 296.757 366.825 Q302.995 366.825 306.688 362.751 Q310.316 358.613 310.316 351.547 Q310.316 341.808 303.441 335.951 Q296.502 330.031 285.044 330.031 L282.434 330.031 L282.434 341.681 M277.596 318.318 L318.273 318.318 L318.273 330.031 L307.451 330.031 Q313.944 334.042 317.064 340.026 Q320.119 346.009 320.119 354.667 Q320.119 365.616 314.008 372.109 Q307.833 378.538 297.521 378.538 Q285.49 378.538 279.379 370.517 Q273.268 362.433 273.268 346.455 L273.268 330.031 L272.122 330.031 Q264.037 330.031 259.645 335.379 Q255.189 340.662 255.189 350.274 Q255.189 356.385 256.653 362.178 Q258.117 367.971 261.045 373.318 L250.224 373.318 Q247.741 366.889 246.532 360.841 Q245.258 354.794 245.258 349.065 Q245.258 333.596 253.279 325.957 Q261.3 318.318 277.596 318.318 Z" fill="#000000" fill-rule="nonzero" fill-opacity="1" /><path clip-path="url(#clip140)" d="M249.078 248.741 L260.154 248.741 Q257.608 253.707 256.335 259.054 Q255.062 264.401 255.062 270.13 Q255.062 278.851 257.735 283.243 Q260.409 287.572 265.756 287.572 Q269.83 287.572 272.185 284.453 Q274.477 281.334 276.578 271.912 L277.469 267.902 Q280.143 255.425 285.044 250.205 Q289.882 244.922 298.603 244.922 Q308.534 244.922 314.326 252.815 Q320.119 260.645 320.119 274.395 Q320.119 280.124 318.973 286.363 Q317.891 292.537 315.663 299.412 L303.568 299.412 Q306.942 292.919 308.661 286.617 Q310.316 280.315 310.316 274.14 Q310.316 265.865 307.515 261.409 Q304.65 256.953 299.494 256.953 Q294.72 256.953 292.174 260.2 Q289.627 263.382 287.272 274.268 L286.317 278.342 Q284.026 289.227 279.315 294.065 Q274.541 298.903 266.265 298.903 Q256.207 298.903 250.733 291.773 Q245.258 284.644 245.258 271.531 Q245.258 265.038 246.213 259.308 Q247.168 253.579 249.078 248.741 Z" fill="#000000" fill-rule="nonzero" fill-opacity="1" /><path clip-path="url(#clip140)" d="M249.078 180.819 L260.154 180.819 Q257.608 185.784 256.335 191.132 Q255.062 196.479 255.062 202.208 Q255.062 210.929 257.735 215.321 Q260.409 219.65 265.756 219.65 Q269.83 219.65 272.185 216.531 Q274.477 213.412 276.578 203.99 L277.469 199.98 Q280.143 187.503 285.044 182.283 Q289.882 177 298.603 177 Q308.534 177 314.326 184.893 Q320.119 192.723 320.119 206.473 Q320.119 212.202 318.973 218.441 Q317.891 224.615 315.663 231.49 L303.568 231.49 Q306.942 224.997 308.661 218.695 Q310.316 212.393 310.316 206.218 Q310.316 197.943 307.515 193.487 Q304.65 189.031 299.494 189.031 Q294.72 189.031 292.174 192.277 Q289.627 195.46 287.272 206.346 L286.317 210.42 Q284.026 221.305 279.315 226.143 Q274.541 230.981 266.265 230.981 Q256.207 230.981 250.733 223.851 Q245.258 216.722 245.258 203.608 Q245.258 197.115 246.213 191.386 Q247.168 185.657 249.078 180.819 Z" fill="#000000" fill-rule="nonzero" fill-opacity="1" /><polyline clip-path="url(#clip142)" style="stroke:#008000; stroke-linecap:round; stroke-linejoin:round; stroke-width:8; stroke-opacity:1; fill:none" points="719.695,157.251 774.682,272.689 994.628,388.127 1599.48,797.407 2259.32,954.822 "/>
<circle clip-path="url(#clip142)" cx="719.695" cy="157.251" r="14.4" fill="#008000" fill-rule="evenodd" fill-opacity="1" stroke="#000000" stroke-opacity="1" stroke-width="6.4"/>
<circle clip-path="url(#clip142)" cx="774.682" cy="272.689" r="14.4" fill="#008000" fill-rule="evenodd" fill-opacity="1" stroke="#000000" stroke-opacity="1" stroke-width="6.4"/>
<circle clip-path="url(#clip142)" cx="994.628" cy="388.127" r="14.4" fill="#008000" fill-rule="evenodd" fill-opacity="1" stroke="#000000" stroke-opacity="1" stroke-width="6.4"/>
<circle clip-path="url(#clip142)" cx="1599.48" cy="797.407" r="14.4" fill="#008000" fill-rule="evenodd" fill-opacity="1" stroke="#000000" stroke-opacity="1" stroke-width="6.4"/>
<circle clip-path="url(#clip142)" cx="2259.32" cy="954.822" r="14.4" fill="#008000" fill-rule="evenodd" fill-opacity="1" stroke="#000000" stroke-opacity="1" stroke-width="6.4"/>
<polyline clip-path="url(#clip142)" style="stroke:#00008b; stroke-linecap:round; stroke-linejoin:round; stroke-width:8; stroke-opacity:1; fill:none" points="719.695,156.59 774.682,608.484 994.628,1130.34 1599.48,1193.22 2259.32,1206.62 "/>
<path clip-path="url(#clip142)" d="M719.695 184.31 L774.682 681.409 L994.628 1173.9 L1599.48 1226.15 L2259.32 1240.32 L2259.32 1170.5 L1599.48 1169.58 L994.628 1093.37 L774.682 525.855 L719.695 127.862  Z" fill="#0000ff" fill-rule="evenodd" fill-opacity="0.1"/>
<polyline clip-path="url(#clip142)" style="stroke:#0000ff; stroke-linecap:round; stroke-linejoin:round; stroke-width:0; stroke-opacity:0.1; fill:none" points="719.695,184.31 774.682,681.409 994.628,1173.9 1599.48,1226.15 2259.32,1240.32 "/>
<path clip-path="url(#clip140)" d="M1810.18 444.835 L2251.11 444.835 L2251.11 133.795 L1810.18 133.795  Z" fill="#ffffff" fill-rule="evenodd" fill-opacity="1"/>
<polyline clip-path="url(#clip140)" style="stroke:#000000; stroke-linecap:round; stroke-linejoin:round; stroke-width:8; stroke-opacity:1; fill:none" points="1810.18,444.835 2251.11,444.835 2251.11,133.795 1810.18,133.795 1810.18,444.835 "/>
<polyline clip-path="url(#clip140)" style="stroke:#008000; stroke-linecap:round; stroke-linejoin:round; stroke-width:8; stroke-opacity:1; fill:none" points="1828.31,237.475 1937.11,237.475 "/>
<circle clip-path="url(#clip140)" cx="1882.71" cy="237.475" r="7.55558" fill="#008000" fill-rule="evenodd" fill-opacity="1" stroke="#000000" stroke-opacity="1" stroke-width="6.71607"/>
<path clip-path="url(#clip140)" d="M2010.99 208.239 L2010.99 218.1 Q2006.27 213.702 2000.9 211.526 Q1995.57 209.35 1989.55 209.35 Q1977.7 209.35 1971.41 216.619 Q1965.11 223.841 1965.11 237.545 Q1965.11 251.202 1971.41 258.47 Q1977.7 265.693 1989.55 265.693 Q1995.57 265.693 2000.9 263.517 Q2006.27 261.341 2010.99 256.943 L2010.99 266.711 Q2006.08 270.044 2000.57 271.711 Q1995.11 273.378 1989 273.378 Q1973.3 273.378 1964.28 263.794 Q1955.25 254.165 1955.25 237.545 Q1955.25 220.878 1964.28 211.295 Q1973.3 201.665 1989 201.665 Q1995.2 201.665 2000.66 203.332 Q2006.17 204.952 2010.99 208.239 Z" fill="#000000" fill-rule="nonzero" fill-opacity="1" /><path clip-path="url(#clip140)" d="M2058.12 221.711 L2058.12 229.767 Q2054.51 227.915 2050.62 226.989 Q2046.73 226.063 2042.56 226.063 Q2036.22 226.063 2033.03 228.008 Q2029.88 229.952 2029.88 233.841 Q2029.88 236.804 2032.15 238.517 Q2034.41 240.183 2041.27 241.711 L2044.18 242.359 Q2053.26 244.304 2057.05 247.869 Q2060.9 251.387 2060.9 257.73 Q2060.9 264.952 2055.16 269.165 Q2049.46 273.378 2039.46 273.378 Q2035.29 273.378 2030.76 272.544 Q2026.27 271.757 2021.27 270.137 L2021.27 261.341 Q2025.99 263.794 2030.57 265.044 Q2035.16 266.248 2039.65 266.248 Q2045.66 266.248 2048.91 264.211 Q2052.15 262.128 2052.15 258.378 Q2052.15 254.906 2049.78 253.054 Q2047.47 251.202 2039.55 249.489 L2036.59 248.794 Q2028.67 247.128 2025.16 243.702 Q2021.64 240.23 2021.64 234.211 Q2021.64 226.896 2026.82 222.915 Q2032.01 218.934 2041.54 218.934 Q2046.27 218.934 2050.43 219.628 Q2054.6 220.322 2058.12 221.711 Z" fill="#000000" fill-rule="nonzero" fill-opacity="1" /><path clip-path="url(#clip140)" d="M2118.81 243.98 L2118.81 248.146 L2079.65 248.146 Q2080.2 256.943 2084.92 261.572 Q2089.69 266.156 2098.16 266.156 Q2103.07 266.156 2107.65 264.952 Q2112.28 263.748 2116.82 261.341 L2116.82 269.396 Q2112.24 271.341 2107.42 272.359 Q2102.61 273.378 2097.65 273.378 Q2085.25 273.378 2077.98 266.156 Q2070.76 258.933 2070.76 246.619 Q2070.76 233.887 2077.61 226.434 Q2084.51 218.934 2096.17 218.934 Q2106.64 218.934 2112.7 225.693 Q2118.81 232.406 2118.81 243.98 M2110.29 241.48 Q2110.2 234.489 2106.36 230.322 Q2102.56 226.156 2096.27 226.156 Q2089.14 226.156 2084.83 230.183 Q2080.57 234.211 2079.92 241.526 L2110.29 241.48 Z" fill="#000000" fill-rule="nonzero" fill-opacity="1" /><path clip-path="url(#clip140)" d="M2162.84 228.146 Q2161.4 227.313 2159.69 226.943 Q2158.02 226.526 2155.99 226.526 Q2148.77 226.526 2144.88 231.248 Q2141.03 235.924 2141.03 244.72 L2141.03 272.035 L2132.47 272.035 L2132.47 220.184 L2141.03 220.184 L2141.03 228.239 Q2143.72 223.517 2148.02 221.248 Q2152.33 218.934 2158.49 218.934 Q2159.37 218.934 2160.43 219.072 Q2161.5 219.165 2162.79 219.397 L2162.84 228.146 Z" fill="#000000" fill-rule="nonzero" fill-opacity="1" /><path clip-path="url(#clip140)" d="M2200.15 228.146 Q2198.72 227.313 2197.01 226.943 Q2195.34 226.526 2193.3 226.526 Q2186.08 226.526 2182.19 231.248 Q2178.35 235.924 2178.35 244.72 L2178.35 272.035 L2169.78 272.035 L2169.78 220.184 L2178.35 220.184 L2178.35 228.239 Q2181.03 223.517 2185.34 221.248 Q2189.65 218.934 2195.8 218.934 Q2196.68 218.934 2197.75 219.072 Q2198.81 219.165 2200.11 219.397 L2200.15 228.146 Z" fill="#000000" fill-rule="nonzero" fill-opacity="1" /><polyline clip-path="url(#clip140)" style="stroke:#00008b; stroke-linecap:round; stroke-linejoin:round; stroke-width:8; stroke-opacity:1; fill:none" points="1828.31,341.155 1937.11,341.155 "/>
<path clip-path="url(#clip140)" d="M1995.94 333.817 Q1999.14 328.076 2003.58 325.345 Q2008.03 322.614 2014.04 322.614 Q2022.15 322.614 2026.54 328.308 Q2030.94 333.956 2030.94 344.419 L2030.94 375.715 L2022.38 375.715 L2022.38 344.697 Q2022.38 337.243 2019.74 333.632 Q2017.1 330.021 2011.68 330.021 Q2005.06 330.021 2001.22 334.419 Q1997.38 338.817 1997.38 346.41 L1997.38 375.715 L1988.81 375.715 L1988.81 344.697 Q1988.81 337.197 1986.17 333.632 Q1983.54 330.021 1978.03 330.021 Q1971.5 330.021 1967.66 334.465 Q1963.81 338.863 1963.81 346.41 L1963.81 375.715 L1955.25 375.715 L1955.25 323.864 L1963.81 323.864 L1963.81 331.919 Q1966.73 327.151 1970.8 324.882 Q1974.88 322.614 1980.48 322.614 Q1986.13 322.614 1990.06 325.484 Q1994.04 328.354 1995.94 333.817 Z" fill="#000000" fill-rule="nonzero" fill-opacity="1" /><path clip-path="url(#clip140)" d="M2068.03 329.836 Q2061.17 329.836 2057.19 335.206 Q2053.21 340.53 2053.21 349.836 Q2053.21 359.141 2057.15 364.511 Q2061.13 369.836 2068.03 369.836 Q2074.83 369.836 2078.81 364.465 Q2082.79 359.095 2082.79 349.836 Q2082.79 340.623 2078.81 335.252 Q2074.83 329.836 2068.03 329.836 M2068.03 322.614 Q2079.14 322.614 2085.48 329.836 Q2091.82 337.058 2091.82 349.836 Q2091.82 362.567 2085.48 369.836 Q2079.14 377.058 2068.03 377.058 Q2056.87 377.058 2050.53 369.836 Q2044.23 362.567 2044.23 349.836 Q2044.23 337.058 2050.53 329.836 Q2056.87 322.614 2068.03 322.614 Z" fill="#000000" fill-rule="nonzero" fill-opacity="1" /><path clip-path="url(#clip140)" d="M2140.06 331.734 L2140.06 303.678 L2148.58 303.678 L2148.58 375.715 L2140.06 375.715 L2140.06 367.937 Q2137.38 372.567 2133.26 374.835 Q2129.18 377.058 2123.44 377.058 Q2114.04 377.058 2108.12 369.558 Q2102.24 362.058 2102.24 349.836 Q2102.24 337.613 2108.12 330.114 Q2114.04 322.614 2123.44 322.614 Q2129.18 322.614 2133.26 324.882 Q2137.38 327.104 2140.06 331.734 M2111.03 349.836 Q2111.03 359.234 2114.88 364.604 Q2118.77 369.928 2125.53 369.928 Q2132.28 369.928 2136.17 364.604 Q2140.06 359.234 2140.06 349.836 Q2140.06 340.438 2136.17 335.113 Q2132.28 329.743 2125.53 329.743 Q2118.77 329.743 2114.88 335.113 Q2111.03 340.438 2111.03 349.836 Z" fill="#000000" fill-rule="nonzero" fill-opacity="1" /><path clip-path="url(#clip140)" d="M2210.48 347.66 L2210.48 351.826 L2171.31 351.826 Q2171.87 360.623 2176.59 365.252 Q2181.36 369.836 2189.83 369.836 Q2194.74 369.836 2199.32 368.632 Q2203.95 367.428 2208.49 365.021 L2208.49 373.076 Q2203.9 375.021 2199.09 376.039 Q2194.27 377.058 2189.32 377.058 Q2176.91 377.058 2169.65 369.836 Q2162.42 362.613 2162.42 350.299 Q2162.42 337.567 2169.27 330.114 Q2176.17 322.614 2187.84 322.614 Q2198.3 322.614 2204.37 329.373 Q2210.48 336.086 2210.48 347.66 M2201.96 345.16 Q2201.87 338.169 2198.02 334.002 Q2194.23 329.836 2187.93 329.836 Q2180.8 329.836 2176.5 333.863 Q2172.24 337.891 2171.59 345.206 L2201.96 345.16 Z" fill="#000000" fill-rule="nonzero" fill-opacity="1" /><path clip-path="url(#clip140)" d="M2224.46 303.678 L2232.98 303.678 L2232.98 375.715 L2224.46 375.715 L2224.46 303.678 Z" fill="#000000" fill-rule="nonzero" fill-opacity="1" /></svg>
