<?xml version="1.0" encoding="utf-8"?>
<svg xmlns="http://www.w3.org/2000/svg" xmlns:xlink="http://www.w3.org/1999/xlink" width="600" height="400" viewBox="0 0 2400 1600">
<defs>
  <clipPath id="clip470">
    <rect x="0" y="0" width="2400" height="1600"/>
  </clipPath>
</defs>
<path clip-path="url(#clip470)" d="M0 1600 L2400 1600 L2400 0 L0 0  Z" fill="#ffffff" fill-rule="evenodd" fill-opacity="1"/>
<defs>
  <clipPath id="clip471">
    <rect x="480" y="0" width="1681" height="1600"/>
  </clipPath>
</defs>
<path clip-path="url(#clip470)" d="M673.506 1273.7 L2305.51 1273.7 L2305.51 94.4882 L673.506 94.4882  Z" fill="#ffffff" fill-rule="evenodd" fill-opacity="1"/>
<defs>
  <clipPath id="clip472">
    <rect x="673" y="94" width="1633" height="1180"/>
  </clipPath>
</defs>
<polyline clip-path="url(#clip472)" style="stroke:#000000; stroke-linecap:round; stroke-linejoin:round; stroke-width:4; stroke-opacity:0.1; fill:none" points="719.695,1273.7 719.695,94.4882 "/>
<polyline clip-path="url(#clip472)" style="stroke:#000000; stroke-linecap:round; stroke-linejoin:round; stroke-width:4; stroke-opacity:0.1; fill:none" points="994.628,1273.7 994.628,94.4882 "/>
<polyline clip-path="url(#clip472)" style="stroke:#000000; stroke-linecap:round; stroke-linejoin:round; stroke-width:4; stroke-opacity:0.1; fill:none" points="1269.56,1273.7 1269.56,94.4882 "/>
<polyline clip-path="url(#clip472)" style="stroke:#000000; stroke-linecap:round; stroke-linejoin:round; stroke-width:4; stroke-opacity:0.1; fill:none" points="1544.5,1273.7 1544.5,94.4882 "/>
<polyline clip-path="url(#clip472)" style="stroke:#000000; stroke-linecap:round; stroke-linejoin:round; stroke-width:4; stroke-opacity:0.1; fill:none" points="1819.43,1273.7 1819.43,94.4882 "/>
<polyline clip-path="url(#clip472)" style="stroke:#000000; stroke-linecap:round; stroke-linejoin:round; stroke-width:4; stroke-opacity:0.1; fill:none" points="2094.36,1273.7 2094.36,94.4882 "/>
<polyline clip-path="url(#clip470)" style="stroke:#000000; stroke-linecap:round; stroke-linejoin:round; stroke-width:8; stroke-opacity:1; fill:none" points="673.506,1273.7 2305.51,1273.7 "/>
<polyline clip-path="url(#clip470)" style="stroke:#000000; stroke-linecap:round; stroke-linejoin:round; stroke-width:8; stroke-opacity:1; fill:none" points="719.695,1273.7 719.695,1254.8 "/>
<polyline clip-path="url(#clip470)" style="stroke:#000000; stroke-linecap:round; stroke-linejoin:round; stroke-width:8; stroke-opacity:1; fill:none" points="994.628,1273.7 994.628,1254.8 "/>
<polyline clip-path="url(#clip470)" style="stroke:#000000; stroke-linecap:round; stroke-linejoin:round; stroke-width:8; stroke-opacity:1; fill:none" points="1269.56,1273.7 1269.56,1254.8 "/>
<polyline clip-path="url(#clip470)" style="stroke:#000000; stroke-linecap:round; stroke-linejoin:round; stroke-width:8; stroke-opacity:1; fill:none" points="1544.5,1273.7 1544.5,1254.8 "/>
<polyline clip-path="url(#clip470)" style="stroke:#000000; stroke-linecap:round; stroke-linejoin:round; stroke-width:8; stroke-opacity:1; fill:none" points="1819.43,1273.7 1819.43,1254.8 "/>
<polyline clip-path="url(#clip470)" style="stroke:#000000; stroke-linecap:round; stroke-linejoin:round; stroke-width:8; stroke-opacity:1; fill:none" points="2094.36,1273.7 2094.36,1254.8 "/>
<path clip-path="url(#clip470)" d="M719.695 1316.33 Q712.473 1316.33 708.815 1323.46 Q705.204 1330.55 705.204 1344.81 Q705.204 1359.02 708.815 1366.15 Q712.473 1373.23 719.695 1373.23 Q726.963 1373.23 730.574 1366.15 Q734.232 1359.02 734.232 1344.81 Q734.232 1330.55 730.574 1323.46 Q726.963 1316.33 719.695 1316.33 M719.695 1308.93 Q731.315 1308.93 737.426 1318.14 Q743.584 1327.31 743.584 1344.81 Q743.584 1362.26 737.426 1371.47 Q731.315 1380.64 719.695 1380.64 Q708.075 1380.64 701.917 1371.47 Q695.806 1362.26 695.806 1344.81 Q695.806 1327.31 701.917 1318.14 Q708.075 1308.93 719.695 1308.93 Z" fill="#000000" fill-rule="nonzero" fill-opacity="1" /><path clip-path="url(#clip470)" d="M975.184 1310.18 L1011.9 1310.18 L1011.9 1318.05 L983.749 1318.05 L983.749 1334.99 Q985.786 1334.3 987.823 1333.97 Q989.86 1333.6 991.897 1333.6 Q1003.47 1333.6 1010.23 1339.94 Q1016.99 1346.29 1016.99 1357.12 Q1016.99 1368.28 1010.04 1374.48 Q1003.1 1380.64 990.462 1380.64 Q986.11 1380.64 981.573 1379.9 Q977.082 1379.16 972.267 1377.68 L972.267 1368.28 Q976.434 1370.55 980.878 1371.66 Q985.323 1372.77 990.277 1372.77 Q998.286 1372.77 1002.96 1368.56 Q1007.64 1364.34 1007.64 1357.12 Q1007.64 1349.9 1002.96 1345.68 Q998.286 1341.47 990.277 1341.47 Q986.527 1341.47 982.777 1342.31 Q979.073 1343.14 975.184 1344.9 L975.184 1310.18 Z" fill="#000000" fill-rule="nonzero" fill-opacity="1" /><path clip-path="url(#clip470)" d="M1218.94 1371.43 L1234.21 1371.43 L1234.21 1318.69 L1217.59 1322.03 L1217.59 1313.51 L1234.12 1310.18 L1243.47 1310.18 L1243.47 1371.43 L1258.75 1371.43 L1258.75 1379.3 L1218.94 1379.3 L1218.94 1371.43 Z" fill="#000000" fill-rule="nonzero" fill-opacity="1" /><path clip-path="url(#clip470)" d="M1297.64 1316.33 Q1290.42 1316.33 1286.76 1323.46 Q1283.15 1330.55 1283.15 1344.81 Q1283.15 1359.02 1286.76 1366.15 Q1290.42 1373.23 1297.64 1373.23 Q1304.91 1373.23 1308.52 1366.15 Q1312.18 1359.02 1312.18 1344.81 Q1312.18 1330.55 1308.52 1323.46 Q1304.91 1316.33 1297.64 1316.33 M1297.64 1308.93 Q1309.26 1308.93 1315.37 1318.14 Q1321.53 1327.31 1321.53 1344.81 Q1321.53 1362.26 1315.37 1371.47 Q1309.26 1380.64 1297.64 1380.64 Q1286.02 1380.64 1279.86 1371.47 Q1273.75 1362.26 1273.75 1344.81 Q1273.75 1327.31 1279.86 1318.14 Q1286.02 1308.93 1297.64 1308.93 Z" fill="#000000" fill-rule="nonzero" fill-opacity="1" /><path clip-path="url(#clip470)" d="M1494.87 1371.43 L1510.14 1371.43 L1510.14 1318.69 L1493.52 1322.03 L1493.52 1313.51 L1510.05 1310.18 L1519.4 1310.18 L1519.4 1371.43 L1534.68 1371.43 L1534.68 1379.3 L1494.87 1379.3 L1494.87 1371.43 Z" fill="#000000" fill-rule="nonzero" fill-opacity="1" /><path clip-path="url(#clip470)" d="M1553.66 1310.18 L1590.37 1310.18 L1590.37 1318.05 L1562.23 1318.05 L1562.23 1334.99 Q1564.26 1334.3 1566.3 1333.97 Q1568.34 1333.6 1570.38 1333.6 Q1581.95 1333.6 1588.71 1339.94 Q1595.47 1346.29 1595.47 1357.12 Q1595.47 1368.28 1588.52 1374.48 Q1581.58 1380.64 1568.94 1380.64 Q1564.59 1380.64 1560.05 1379.9 Q1555.56 1379.16 1550.75 1377.68 L1550.75 1368.28 Q1554.91 1370.55 1559.36 1371.66 Q1563.8 1372.77 1568.75 1372.77 Q1576.76 1372.77 1581.44 1368.56 Q1586.12 1364.34 1586.12 1357.12 Q1586.12 1349.9 1581.44 1345.68 Q1576.76 1341.47 1568.75 1341.47 Q1565 1341.47 1561.25 1342.31 Q1557.55 1343.14 1553.66 1344.9 L1553.66 1310.18 Z" fill="#000000" fill-rule="nonzero" fill-opacity="1" /><path clip-path="url(#clip470)" d="M1776.98 1371.43 L1809.61 1371.43 L1809.61 1379.3 L1765.73 1379.3 L1765.73 1371.43 Q1771.05 1365.92 1780.22 1356.66 Q1789.43 1347.35 1791.79 1344.67 Q1796.28 1339.62 1798.04 1336.15 Q1799.85 1332.63 1799.85 1329.25 Q1799.85 1323.74 1795.96 1320.27 Q1792.11 1316.8 1785.91 1316.8 Q1781.51 1316.8 1776.61 1318.32 Q1771.74 1319.85 1766.19 1322.95 L1766.19 1313.51 Q1771.84 1311.24 1776.74 1310.08 Q1781.65 1308.93 1785.73 1308.93 Q1796.47 1308.93 1802.86 1314.3 Q1809.24 1319.67 1809.24 1328.65 Q1809.24 1332.91 1807.62 1336.75 Q1806.05 1340.55 1801.84 1345.73 Q1800.68 1347.07 1794.48 1353.51 Q1788.27 1359.9 1776.98 1371.43 Z" fill="#000000" fill-rule="nonzero" fill-opacity="1" /><path clip-path="url(#clip470)" d="M1849.24 1316.33 Q1842.02 1316.33 1838.36 1323.46 Q1834.75 1330.55 1834.75 1344.81 Q1834.75 1359.02 1838.36 1366.15 Q1842.02 1373.23 1849.24 1373.23 Q1856.51 1373.23 1860.12 1366.15 Q1863.78 1359.02 1863.78 1344.81 Q1863.78 1330.55 1860.12 1323.46 Q1856.51 1316.33 1849.24 1316.33 M1849.24 1308.93 Q1860.86 1308.93 1866.98 1318.14 Q1873.13 1327.31 1873.13 1344.81 Q1873.13 1362.26 1866.98 1371.47 Q1860.86 1380.64 1849.24 1380.64 Q1837.62 1380.64 1831.47 1371.47 Q1825.36 1362.26 1825.36 1344.81 Q1825.36 1327.31 1831.47 1318.14 Q1837.62 1308.93 1849.24 1308.93 Z" fill="#000000" fill-rule="nonzero" fill-opacity="1" /><path clip-path="url(#clip470)" d="M2052.9 1371.43 L2085.54 1371.43 L2085.54 1379.3 L2041.65 1379.3 L2041.65 1371.43 Q2046.98 1365.92 2056.15 1356.66 Q2065.36 1347.35 2067.72 1344.67 Q2072.21 1339.62 2073.97 1336.15 Q2075.77 1332.63 2075.77 1329.25 Q2075.77 1323.74 2071.89 1320.27 Q2068.04 1316.8 2061.84 1316.8 Q2057.44 1316.8 2052.53 1318.32 Q2047.67 1319.85 2042.12 1322.95 L2042.12 1313.51 Q2047.77 1311.24 2052.67 1310.08 Q2057.58 1308.93 2061.65 1308.93 Q2072.4 1308.93 2078.78 1314.3 Q2085.17 1319.67 2085.17 1328.65 Q2085.17 1332.91 2083.55 1336.75 Q2081.98 1340.55 2077.77 1345.73 Q2076.61 1347.07 2070.4 1353.51 Q2064.2 1359.9 2052.9 1371.43 Z" fill="#000000" fill-rule="nonzero" fill-opacity="1" /><path clip-path="url(#clip470)" d="M2105.27 1310.18 L2141.98 1310.18 L2141.98 1318.05 L2113.83 1318.05 L2113.83 1334.99 Q2115.87 1334.3 2117.9 1333.97 Q2119.94 1333.6 2121.98 1333.6 Q2133.55 1333.6 2140.31 1339.94 Q2147.07 1346.29 2147.07 1357.12 Q2147.07 1368.28 2140.13 1374.48 Q2133.18 1380.64 2120.54 1380.64 Q2116.19 1380.64 2111.65 1379.9 Q2107.16 1379.16 2102.35 1377.68 L2102.35 1368.28 Q2106.52 1370.55 2110.96 1371.66 Q2115.4 1372.77 2120.36 1372.77 Q2128.37 1372.77 2133.04 1368.56 Q2137.72 1364.34 2137.72 1357.12 Q2137.72 1349.9 2133.04 1345.68 Q2128.37 1341.47 2120.36 1341.47 Q2116.61 1341.47 2112.86 1342.31 Q2109.15 1343.14 2105.27 1344.9 L2105.27 1310.18 Z" fill="#000000" fill-rule="nonzero" fill-opacity="1" /><path clip-path="url(#clip470)" d="M1375.05 1484.39 L1375.05 1527.42 L1363.34 1527.42 L1363.34 1484.77 Q1363.34 1474.65 1359.39 1469.62 Q1355.45 1464.59 1347.55 1464.59 Q1338.07 1464.59 1332.59 1470.64 Q1327.12 1476.69 1327.12 1487.13 L1327.12 1527.42 L1315.34 1527.42 L1315.34 1428.37 L1327.12 1428.37 L1327.12 1467.2 Q1331.32 1460.77 1336.99 1457.59 Q1342.72 1454.41 1350.16 1454.41 Q1362.45 1454.41 1368.75 1462.05 Q1375.05 1469.62 1375.05 1484.39 Z" fill="#000000" fill-rule="nonzero" fill-opacity="1" /><path clip-path="url(#clip470)" d="M1426.04 1464.34 Q1416.62 1464.34 1411.15 1471.72 Q1405.67 1479.04 1405.67 1491.84 Q1405.67 1504.63 1411.08 1512.02 Q1416.56 1519.34 1426.04 1519.34 Q1435.4 1519.34 1440.87 1511.96 Q1446.35 1504.57 1446.35 1491.84 Q1446.35 1479.17 1440.87 1471.79 Q1435.4 1464.34 1426.04 1464.34 M1426.04 1454.41 Q1441.32 1454.41 1450.04 1464.34 Q1458.76 1474.27 1458.76 1491.84 Q1458.76 1509.35 1450.04 1519.34 Q1441.32 1529.27 1426.04 1529.27 Q1410.7 1529.27 1401.98 1519.34 Q1393.32 1509.35 1393.32 1491.84 Q1393.32 1474.27 1401.98 1464.34 Q1410.7 1454.41 1426.04 1454.41 Z" fill="#000000" fill-rule="nonzero" fill-opacity="1" /><path clip-path="url(#clip470)" d="M1476.97 1499.29 L1476.97 1456.13 L1488.68 1456.13 L1488.68 1498.84 Q1488.68 1508.96 1492.63 1514.06 Q1496.57 1519.08 1504.47 1519.08 Q1513.95 1519.08 1519.43 1513.04 Q1524.97 1506.99 1524.97 1496.55 L1524.97 1456.13 L1536.68 1456.13 L1536.68 1527.42 L1524.97 1527.42 L1524.97 1516.47 Q1520.7 1522.97 1515.04 1526.15 Q1509.43 1529.27 1501.99 1529.27 Q1489.7 1529.27 1483.33 1521.63 Q1476.97 1513.99 1476.97 1499.29 M1506.44 1454.41 L1506.44 1454.41 Z" fill="#000000" fill-rule="nonzero" fill-opacity="1" /><path clip-path="url(#clip470)" d="M1602.12 1467.08 Q1600.14 1465.93 1597.79 1465.42 Q1595.5 1464.85 1592.7 1464.85 Q1582.77 1464.85 1577.42 1471.34 Q1572.14 1477.77 1572.14 1489.87 L1572.14 1527.42 L1560.36 1527.42 L1560.36 1456.13 L1572.14 1456.13 L1572.14 1467.2 Q1575.83 1460.71 1581.75 1457.59 Q1587.67 1454.41 1596.13 1454.41 Q1597.34 1454.41 1598.81 1454.6 Q1600.27 1454.73 1602.05 1455.05 L1602.12 1467.08 Z" fill="#000000" fill-rule="nonzero" fill-opacity="1" /><path clip-path="url(#clip470)" d="M1659.86 1458.23 L1659.86 1469.3 Q1654.89 1466.76 1649.54 1465.49 Q1644.2 1464.21 1638.47 1464.21 Q1629.75 1464.21 1625.35 1466.89 Q1621.02 1469.56 1621.02 1474.91 Q1621.02 1478.98 1624.14 1481.34 Q1627.26 1483.63 1636.68 1485.73 L1640.69 1486.62 Q1653.17 1489.29 1658.39 1494.19 Q1663.67 1499.03 1663.67 1507.75 Q1663.67 1517.68 1655.78 1523.48 Q1647.95 1529.27 1634.2 1529.27 Q1628.47 1529.27 1622.23 1528.12 Q1616.06 1527.04 1609.18 1524.81 L1609.18 1512.72 Q1615.68 1516.09 1621.98 1517.81 Q1628.28 1519.47 1634.46 1519.47 Q1642.73 1519.47 1647.19 1516.67 Q1651.64 1513.8 1651.64 1508.64 Q1651.64 1503.87 1648.4 1501.32 Q1645.21 1498.78 1634.33 1496.42 L1630.25 1495.47 Q1619.37 1493.18 1614.53 1488.47 Q1609.69 1483.69 1609.69 1475.42 Q1609.69 1465.36 1616.82 1459.88 Q1623.95 1454.41 1637.07 1454.41 Q1643.56 1454.41 1649.29 1455.36 Q1655.02 1456.32 1659.86 1458.23 Z" fill="#000000" fill-rule="nonzero" fill-opacity="1" /><polyline clip-path="url(#clip472)" style="stroke:#000000; stroke-linecap:round; stroke-linejoin:round; stroke-width:4; stroke-opacity:0.1; fill:none" points="673.506,1170.13 2305.51,1170.13 "/>
<polyline clip-path="url(#clip472)" style="stroke:#000000; stroke-linecap:round; stroke-linejoin:round; stroke-width:4; stroke-opacity:0.1; fill:none" points="673.506,914.689 2305.51,914.689 "/>
<polyline clip-path="url(#clip472)" style="stroke:#000000; stroke-linecap:round; stroke-linejoin:round; stroke-width:4; stroke-opacity:0.1; fill:none" points="673.506,659.249 2305.51,659.249 "/>
<polyline clip-path="url(#clip472)" style="stroke:#000000; stroke-linecap:round; stroke-linejoin:round; stroke-width:4; stroke-opacity:0.1; fill:none" points="673.506,403.809 2305.51,403.809 "/>
<polyline clip-path="url(#clip472)" style="stroke:#000000; stroke-linecap:round; stroke-linejoin:round; stroke-width:4; stroke-opacity:0.1; fill:none" points="673.506,148.37 2305.51,148.37 "/>
<polyline clip-path="url(#clip470)" style="stroke:#000000; stroke-linecap:round; stroke-linejoin:round; stroke-width:8; stroke-opacity:1; fill:none" points="673.506,1273.7 673.506,94.4882 "/>
<polyline clip-path="url(#clip470)" style="stroke:#000000; stroke-linecap:round; stroke-linejoin:round; stroke-width:8; stroke-opacity:1; fill:none" points="673.506,1170.13 692.404,1170.13 "/>
<polyline clip-path="url(#clip470)" style="stroke:#000000; stroke-linecap:round; stroke-linejoin:round; stroke-width:8; stroke-opacity:1; fill:none" points="673.506,914.689 692.404,914.689 "/>
<polyline clip-path="url(#clip470)" style="stroke:#000000; stroke-linecap:round; stroke-linejoin:round; stroke-width:8; stroke-opacity:1; fill:none" points="673.506,659.249 692.404,659.249 "/>
<polyline clip-path="url(#clip470)" style="stroke:#000000; stroke-linecap:round; stroke-linejoin:round; stroke-width:8; stroke-opacity:1; fill:none" points="673.506,403.809 692.404,403.809 "/>
<polyline clip-path="url(#clip470)" style="stroke:#000000; stroke-linecap:round; stroke-linejoin:round; stroke-width:8; stroke-opacity:1; fill:none" points="673.506,148.37 692.404,148.37 "/>
<path clip-path="url(#clip470)" d="M450.887 1196.82 L483.525 1196.82 L483.525 1204.69 L439.637 1204.69 L439.637 1196.82 Q444.961 1191.31 454.127 1182.05 Q463.34 1172.74 465.701 1170.06 Q470.192 1165.01 471.951 1161.54 Q473.757 1158.02 473.757 1154.64 Q473.757 1149.13 469.868 1145.66 Q466.025 1142.19 459.822 1142.19 Q455.424 1142.19 450.516 1143.72 Q445.655 1145.24 440.1 1148.35 L440.1 1138.9 Q445.748 1136.63 450.655 1135.48 Q455.562 1134.32 459.637 1134.32 Q470.377 1134.32 476.766 1139.69 Q483.155 1145.06 483.155 1154.04 Q483.155 1158.3 481.535 1162.14 Q479.961 1165.94 475.748 1171.12 Q474.59 1172.47 468.387 1178.9 Q462.183 1185.29 450.887 1196.82 Z" fill="#000000" fill-rule="nonzero" fill-opacity="1" /><path clip-path="url(#clip470)" d="M523.155 1141.73 Q515.933 1141.73 512.275 1148.86 Q508.664 1155.94 508.664 1170.2 Q508.664 1184.41 512.275 1191.54 Q515.933 1198.62 523.155 1198.62 Q530.423 1198.62 534.034 1191.54 Q537.692 1184.41 537.692 1170.2 Q537.692 1155.94 534.034 1148.86 Q530.423 1141.73 523.155 1141.73 M523.155 1134.32 Q534.775 1134.32 540.886 1143.53 Q547.043 1152.7 547.043 1170.2 Q547.043 1187.65 540.886 1196.86 Q534.775 1206.03 523.155 1206.03 Q511.534 1206.03 505.377 1196.86 Q499.266 1187.65 499.266 1170.2 Q499.266 1152.7 505.377 1143.53 Q511.534 1134.32 523.155 1134.32 Z" fill="#000000" fill-rule="nonzero" fill-opacity="1" /><path clip-path="url(#clip470)" d="M563.479 1192.93 L573.247 1192.93 L573.247 1204.69 L563.479 1204.69 L563.479 1192.93 Z" fill="#000000" fill-rule="nonzero" fill-opacity="1" /><path clip-path="url(#clip470)" d="M613.617 1141.73 Q606.395 1141.73 602.738 1148.86 Q599.127 1155.94 599.127 1170.2 Q599.127 1184.41 602.738 1191.54 Q606.395 1198.62 613.617 1198.62 Q620.886 1198.62 624.497 1191.54 Q628.154 1184.41 628.154 1170.2 Q628.154 1155.94 624.497 1148.86 Q620.886 1141.73 613.617 1141.73 M613.617 1134.32 Q625.238 1134.32 631.349 1143.53 Q637.506 1152.7 637.506 1170.2 Q637.506 1187.65 631.349 1196.86 Q625.238 1206.03 613.617 1206.03 Q601.997 1206.03 595.84 1196.86 Q589.728 1187.65 589.728 1170.2 Q589.728 1152.7 595.84 1143.53 Q601.997 1134.32 613.617 1134.32 Z" fill="#000000" fill-rule="nonzero" fill-opacity="1" /><path clip-path="url(#clip470)" d="M468.525 888.277 L444.914 925.175 L468.525 925.175 L468.525 888.277 M466.072 880.129 L477.831 880.129 L477.831 925.175 L487.692 925.175 L487.692 932.953 L477.831 932.953 L477.831 949.249 L468.525 949.249 L468.525 932.953 L437.322 932.953 L437.322 923.925 L466.072 880.129 Z" fill="#000000" fill-rule="nonzero" fill-opacity="1" /><path clip-path="url(#clip470)" d="M523.155 886.286 Q515.933 886.286 512.275 893.416 Q508.664 900.499 508.664 914.759 Q508.664 928.971 512.275 936.101 Q515.933 943.184 523.155 943.184 Q530.423 943.184 534.034 936.101 Q537.692 928.971 537.692 914.759 Q537.692 900.499 534.034 893.416 Q530.423 886.286 523.155 886.286 M523.155 878.879 Q534.775 878.879 540.886 888.092 Q547.043 897.259 547.043 914.759 Q547.043 932.212 540.886 941.425 Q534.775 950.592 523.155 950.592 Q511.534 950.592 505.377 941.425 Q499.266 932.212 499.266 914.759 Q499.266 897.259 505.377 888.092 Q511.534 878.879 523.155 878.879 Z" fill="#000000" fill-rule="nonzero" fill-opacity="1" /><path clip-path="url(#clip470)" d="M563.479 937.49 L573.247 937.49 L573.247 949.249 L563.479 949.249 L563.479 937.49 Z" fill="#000000" fill-rule="nonzero" fill-opacity="1" /><path clip-path="url(#clip470)" d="M613.617 886.286 Q606.395 886.286 602.738 893.416 Q599.127 900.499 599.127 914.759 Q599.127 928.971 602.738 936.101 Q606.395 943.184 613.617 943.184 Q620.886 943.184 624.497 936.101 Q628.154 928.971 628.154 914.759 Q628.154 900.499 624.497 893.416 Q620.886 886.286 613.617 886.286 M613.617 878.879 Q625.238 878.879 631.349 888.092 Q637.506 897.259 637.506 914.759 Q637.506 932.212 631.349 941.425 Q625.238 950.592 613.617 950.592 Q601.997 950.592 595.84 941.425 Q589.728 932.212 589.728 914.759 Q589.728 897.259 595.84 888.092 Q601.997 878.879 613.617 878.879 Z" fill="#000000" fill-rule="nonzero" fill-opacity="1" /><path clip-path="url(#clip470)" d="M463.988 655.522 Q457.692 655.522 453.988 659.828 Q450.331 664.133 450.331 671.633 Q450.331 679.087 453.988 683.439 Q457.692 687.744 463.988 687.744 Q470.285 687.744 473.942 683.439 Q477.646 679.087 477.646 671.633 Q477.646 664.133 473.942 659.828 Q470.285 655.522 463.988 655.522 M482.553 626.217 L482.553 634.735 Q479.035 633.069 475.424 632.189 Q471.859 631.31 468.34 631.31 Q459.081 631.31 454.174 637.56 Q449.313 643.81 448.618 656.448 Q451.35 652.421 455.47 650.291 Q459.59 648.115 464.544 648.115 Q474.961 648.115 480.979 654.458 Q487.044 660.754 487.044 671.633 Q487.044 682.282 480.748 688.717 Q474.451 695.152 463.988 695.152 Q451.998 695.152 445.655 685.985 Q439.313 676.772 439.313 659.319 Q439.313 642.93 447.09 633.208 Q454.868 623.439 467.97 623.439 Q471.488 623.439 475.053 624.134 Q478.664 624.828 482.553 626.217 Z" fill="#000000" fill-rule="nonzero" fill-opacity="1" /><path clip-path="url(#clip470)" d="M523.155 630.847 Q515.933 630.847 512.275 637.976 Q508.664 645.059 508.664 659.319 Q508.664 673.532 512.275 680.661 Q515.933 687.744 523.155 687.744 Q530.423 687.744 534.034 680.661 Q537.692 673.532 537.692 659.319 Q537.692 645.059 534.034 637.976 Q530.423 630.847 523.155 630.847 M523.155 623.439 Q534.775 623.439 540.886 632.652 Q547.043 641.819 547.043 659.319 Q547.043 676.772 540.886 685.985 Q534.775 695.152 523.155 695.152 Q511.534 695.152 505.377 685.985 Q499.266 676.772 499.266 659.319 Q499.266 641.819 505.377 632.652 Q511.534 623.439 523.155 623.439 Z" fill="#000000" fill-rule="nonzero" fill-opacity="1" /><path clip-path="url(#clip470)" d="M563.479 682.05 L573.247 682.05 L573.247 693.809 L563.479 693.809 L563.479 682.05 Z" fill="#000000" fill-rule="nonzero" fill-opacity="1" /><path clip-path="url(#clip470)" d="M613.617 630.847 Q606.395 630.847 602.738 637.976 Q599.127 645.059 599.127 659.319 Q599.127 673.532 602.738 680.661 Q606.395 687.744 613.617 687.744 Q620.886 687.744 624.497 680.661 Q628.154 673.532 628.154 659.319 Q628.154 645.059 624.497 637.976 Q620.886 630.847 613.617 630.847 M613.617 623.439 Q625.238 623.439 631.349 632.652 Q637.506 641.819 637.506 659.319 Q637.506 676.772 631.349 685.985 Q625.238 695.152 613.617 695.152 Q601.997 695.152 595.84 685.985 Q589.728 676.772 589.728 659.319 Q589.728 641.819 595.84 632.652 Q601.997 623.439 613.617 623.439 Z" fill="#000000" fill-rule="nonzero" fill-opacity="1" /><path clip-path="url(#clip470)" d="M462.831 405.545 Q456.164 405.545 452.322 409.11 Q448.525 412.675 448.525 418.925 Q448.525 425.175 452.322 428.74 Q456.164 432.305 462.831 432.305 Q469.498 432.305 473.34 428.74 Q477.183 425.129 477.183 418.925 Q477.183 412.675 473.34 409.11 Q469.544 405.545 462.831 405.545 M453.479 401.564 Q447.461 400.083 444.081 395.962 Q440.748 391.842 440.748 385.916 Q440.748 377.629 446.627 372.814 Q452.553 367.999 462.831 367.999 Q473.155 367.999 479.035 372.814 Q484.914 377.629 484.914 385.916 Q484.914 391.842 481.535 395.962 Q478.201 400.083 472.229 401.564 Q478.988 403.138 482.738 407.721 Q486.535 412.305 486.535 418.925 Q486.535 428.971 480.377 434.342 Q474.266 439.712 462.831 439.712 Q451.396 439.712 445.238 434.342 Q439.127 428.971 439.127 418.925 Q439.127 412.305 442.924 407.721 Q446.72 403.138 453.479 401.564 M450.053 386.796 Q450.053 392.166 453.387 395.175 Q456.766 398.184 462.831 398.184 Q468.849 398.184 472.229 395.175 Q475.655 392.166 475.655 386.796 Q475.655 381.425 472.229 378.416 Q468.849 375.407 462.831 375.407 Q456.766 375.407 453.387 378.416 Q450.053 381.425 450.053 386.796 Z" fill="#000000" fill-rule="nonzero" fill-opacity="1" /><path clip-path="url(#clip470)" d="M523.155 375.407 Q515.933 375.407 512.275 382.536 Q508.664 389.62 508.664 403.879 Q508.664 418.092 512.275 425.221 Q515.933 432.305 523.155 432.305 Q530.423 432.305 534.034 425.221 Q537.692 418.092 537.692 403.879 Q537.692 389.62 534.034 382.536 Q530.423 375.407 523.155 375.407 M523.155 367.999 Q534.775 367.999 540.886 377.212 Q547.043 386.379 547.043 403.879 Q547.043 421.332 540.886 430.545 Q534.775 439.712 523.155 439.712 Q511.534 439.712 505.377 430.545 Q499.266 421.332 499.266 403.879 Q499.266 386.379 505.377 377.212 Q511.534 367.999 523.155 367.999 Z" fill="#000000" fill-rule="nonzero" fill-opacity="1" /><path clip-path="url(#clip470)" d="M563.479 426.61 L573.247 426.61 L573.247 438.369 L563.479 438.369 L563.479 426.61 Z" fill="#000000" fill-rule="nonzero" fill-opacity="1" /><path clip-path="url(#clip470)" d="M613.617 375.407 Q606.395 375.407 602.738 382.536 Q599.127 389.62 599.127 403.879 Q599.127 418.092 602.738 425.221 Q606.395 432.305 613.617 432.305 Q620.886 432.305 624.497 425.221 Q628.154 418.092 628.154 403.879 Q628.154 389.62 624.497 382.536 Q620.886 375.407 613.617 375.407 M613.617 367.999 Q625.238 367.999 631.349 377.212 Q637.506 386.379 637.506 403.879 Q637.506 421.332 631.349 430.545 Q625.238 439.712 613.617 439.712 Q601.997 439.712 595.84 430.545 Q589.728 421.332 589.728 403.879 Q589.728 386.379 595.84 377.212 Q601.997 367.999 613.617 367.999 Z" fill="#000000" fill-rule="nonzero" fill-opacity="1" /><path clip-path="url(#clip470)" d="M384.128 175.059 L399.405 175.059 L399.405 122.328 L382.785 125.661 L382.785 117.143 L399.313 113.81 L408.665 113.81 L408.665 175.059 L423.942 175.059 L423.942 182.93 L384.128 182.93 L384.128 175.059 Z" fill="#000000" fill-rule="nonzero" fill-opacity="1" /><path clip-path="url(#clip470)" d="M462.831 119.967 Q455.609 119.967 451.951 127.096 Q448.34 134.18 448.34 148.439 Q448.34 162.652 451.951 169.781 Q455.609 176.865 462.831 176.865 Q470.099 176.865 473.711 169.781 Q477.368 162.652 477.368 148.439 Q477.368 134.18 473.711 127.096 Q470.099 119.967 462.831 119.967 M462.831 112.56 Q474.451 112.56 480.562 121.772 Q486.72 130.939 486.72 148.439 Q486.72 165.893 480.562 175.105 Q474.451 184.272 462.831 184.272 Q451.211 184.272 445.053 175.105 Q438.942 165.893 438.942 148.439 Q438.942 130.939 445.053 121.772 Q451.211 112.56 462.831 112.56 Z" fill="#000000" fill-rule="nonzero" fill-opacity="1" /><path clip-path="url(#clip470)" d="M523.155 119.967 Q515.933 119.967 512.275 127.096 Q508.664 134.18 508.664 148.439 Q508.664 162.652 512.275 169.781 Q515.933 176.865 523.155 176.865 Q530.423 176.865 534.034 169.781 Q537.692 162.652 537.692 148.439 Q537.692 134.18 534.034 127.096 Q530.423 119.967 523.155 119.967 M523.155 112.56 Q534.775 112.56 540.886 121.772 Q547.043 130.939 547.043 148.439 Q547.043 165.893 540.886 175.105 Q534.775 184.272 523.155 184.272 Q511.534 184.272 505.377 175.105 Q499.266 165.893 499.266 148.439 Q499.266 130.939 505.377 121.772 Q511.534 112.56 523.155 112.56 Z" fill="#000000" fill-rule="nonzero" fill-opacity="1" /><path clip-path="url(#clip470)" d="M563.479 171.17 L573.247 171.17 L573.247 182.93 L563.479 182.93 L563.479 171.17 Z" fill="#000000" fill-rule="nonzero" fill-opacity="1" /><path clip-path="url(#clip470)" d="M613.617 119.967 Q606.395 119.967 602.738 127.096 Q599.127 134.18 599.127 148.439 Q599.127 162.652 602.738 169.781 Q606.395 176.865 613.617 176.865 Q620.886 176.865 624.497 169.781 Q628.154 162.652 628.154 148.439 Q628.154 134.18 624.497 127.096 Q620.886 119.967 613.617 119.967 M613.617 112.56 Q625.238 112.56 631.349 121.772 Q637.506 130.939 637.506 148.439 Q637.506 165.893 631.349 175.105 Q625.238 184.272 613.617 184.272 Q601.997 184.272 595.84 175.105 Q589.728 165.893 589.728 148.439 Q589.728 130.939 595.84 121.772 Q601.997 112.56 613.617 112.56 Z" fill="#000000" fill-rule="nonzero" fill-opacity="1" /><path clip-path="url(#clip470)" d="M276.45 1103.59 Q276.45 1109.13 281.161 1112.31 Q285.872 1115.43 294.274 1115.43 Q302.55 1115.43 307.324 1112.31 Q312.035 1109.13 312.035 1103.59 Q312.035 1098.18 307.324 1095.06 Q302.55 1091.88 294.274 1091.88 Q285.935 1091.88 281.225 1095.06 Q276.45 1098.18 276.45 1103.59 M268.366 1103.59 Q268.366 1093.53 275.368 1087.61 Q282.371 1081.69 294.274 1081.69 Q306.178 1081.69 313.181 1087.68 Q320.119 1093.6 320.119 1103.59 Q320.119 1113.78 313.181 1119.7 Q306.178 1125.62 294.274 1125.62 Q282.307 1125.62 275.368 1119.7 Q268.366 1113.71 268.366 1103.59 M229.599 1169.29 Q229.599 1174.76 234.373 1177.94 Q239.084 1181.06 247.359 1181.06 Q255.762 1181.06 260.472 1177.94 Q265.183 1174.82 265.183 1169.29 Q265.183 1163.75 260.472 1160.63 Q255.762 1157.45 247.359 1157.45 Q239.147 1157.45 234.373 1160.63 Q229.599 1163.81 229.599 1169.29 M221.514 1111.8 L221.514 1101.62 L320.119 1161.07 L320.119 1171.26 L221.514 1111.8 M221.514 1169.29 Q221.514 1159.23 228.517 1153.24 Q235.455 1147.26 247.359 1147.26 Q259.39 1147.26 266.329 1153.24 Q273.268 1159.16 273.268 1169.29 Q273.268 1179.41 266.329 1185.33 Q259.327 1191.18 247.359 1191.18 Q235.519 1191.18 228.517 1185.26 Q221.514 1179.34 221.514 1169.29 Z" fill="#000000" fill-rule="nonzero" fill-opacity="1" /><path clip-path="url(#clip470)" d="M246.977 1020.77 L246.977 1009.06 L318.273 1009.06 L318.273 1020.77 L246.977 1020.77 M219.223 1020.77 L219.223 1009.06 L234.055 1009.06 L234.055 1020.77 L219.223 1020.77 Z" fill="#000000" fill-rule="nonzero" fill-opacity="1" /><path clip-path="url(#clip470)" d="M275.241 925.289 L318.273 925.289 L318.273 937.001 L275.623 937.001 Q265.501 937.001 260.472 940.948 Q255.444 944.895 255.444 952.788 Q255.444 962.273 261.491 967.748 Q267.538 973.222 277.978 973.222 L318.273 973.222 L318.273 984.999 L246.977 984.999 L246.977 973.222 L258.054 973.222 Q251.624 969.021 248.441 963.356 Q245.258 957.626 245.258 950.179 Q245.258 937.893 252.897 931.591 Q260.472 925.289 275.241 925.289 Z" fill="#000000" fill-rule="nonzero" fill-opacity="1" /><path clip-path="url(#clip470)" d="M219.223 865.833 L228.962 865.833 L228.962 877.037 Q228.962 883.339 231.509 885.821 Q234.055 888.24 240.675 888.24 L246.977 888.24 L246.977 868.952 L256.08 868.952 L256.08 888.24 L318.273 888.24 L318.273 900.017 L256.08 900.017 L256.08 911.22 L246.977 911.22 L246.977 900.017 L242.012 900.017 Q230.108 900.017 224.697 894.479 Q219.223 888.94 219.223 876.909 L219.223 865.833 Z" fill="#000000" fill-rule="nonzero" fill-opacity="1" /><path clip-path="url(#clip470)" d="M290.137 857.239 L246.977 857.239 L246.977 845.526 L289.691 845.526 Q299.813 845.526 304.905 841.58 Q309.934 837.633 309.934 829.739 Q309.934 820.254 303.887 814.78 Q297.839 809.242 287.399 809.242 L246.977 809.242 L246.977 797.529 L318.273 797.529 L318.273 809.242 L307.324 809.242 Q313.817 813.507 317 819.172 Q320.119 824.774 320.119 832.222 Q320.119 844.508 312.48 850.873 Q304.841 857.239 290.137 857.239 M245.258 827.766 L245.258 827.766 Z" fill="#000000" fill-rule="nonzero" fill-opacity="1" /><path clip-path="url(#clip470)" d="M249.078 727.952 L260.154 727.952 Q257.608 732.917 256.335 738.264 Q255.062 743.611 255.062 749.34 Q255.062 758.061 257.735 762.454 Q260.409 766.782 265.756 766.782 Q269.83 766.782 272.185 763.663 Q274.477 760.544 276.578 751.123 L277.469 747.112 Q280.143 734.636 285.044 729.416 Q289.882 724.132 298.603 724.132 Q308.534 724.132 314.326 732.026 Q320.119 739.856 320.119 753.605 Q320.119 759.335 318.973 765.573 Q317.891 771.748 315.663 778.623 L303.568 778.623 Q306.942 772.13 308.661 765.828 Q310.316 759.526 310.316 753.351 Q310.316 745.075 307.515 740.619 Q304.65 736.163 299.494 736.163 Q294.72 736.163 292.174 739.41 Q289.627 742.593 287.272 753.478 L286.317 757.552 Q284.026 768.438 279.315 773.276 Q274.541 778.113 266.265 778.113 Q256.207 778.113 250.733 770.984 Q245.258 763.854 245.258 750.741 Q245.258 744.248 246.213 738.519 Q247.168 732.79 249.078 727.952 Z" fill="#000000" fill-rule="nonzero" fill-opacity="1" /><path clip-path="url(#clip470)" d="M279.697 644.497 L285.426 644.497 L285.426 698.351 Q297.521 697.587 303.887 691.094 Q310.189 684.538 310.189 672.888 Q310.189 666.141 308.534 659.839 Q306.878 653.473 303.568 647.235 L314.645 647.235 Q317.318 653.537 318.719 660.157 Q320.119 666.777 320.119 673.589 Q320.119 690.649 310.189 700.643 Q300.258 710.573 283.325 710.573 Q265.82 710.573 255.571 701.152 Q245.258 691.667 245.258 675.626 Q245.258 661.239 254.552 652.9 Q263.783 644.497 279.697 644.497 M276.259 656.21 Q266.647 656.337 260.918 661.621 Q255.189 666.841 255.189 675.498 Q255.189 685.301 260.727 691.222 Q266.265 697.078 276.323 697.969 L276.259 656.21 Z" fill="#000000" fill-rule="nonzero" fill-opacity="1" /><path clip-path="url(#clip470)" d="M257.799 578.358 L219.223 578.358 L219.223 566.645 L318.273 566.645 L318.273 578.358 L307.579 578.358 Q313.944 582.05 317.064 587.715 Q320.119 593.317 320.119 601.21 Q320.119 614.133 309.807 622.281 Q299.494 630.365 282.689 630.365 Q265.883 630.365 255.571 622.281 Q245.258 614.133 245.258 601.21 Q245.258 593.317 248.378 587.715 Q251.433 582.05 257.799 578.358 M282.689 618.271 Q295.611 618.271 302.995 612.987 Q310.316 607.64 310.316 598.346 Q310.316 589.052 302.995 583.705 Q295.611 578.358 282.689 578.358 Q269.766 578.358 262.446 583.705 Q255.062 589.052 255.062 598.346 Q255.062 607.64 262.446 612.987 Q269.766 618.271 282.689 618.271 Z" fill="#000000" fill-rule="nonzero" fill-opacity="1" /><path clip-path="url(#clip470)" d="M260.663 445.569 Q252.77 441.177 249.014 435.066 Q245.258 428.954 245.258 420.679 Q245.258 409.539 253.088 403.492 Q260.854 397.444 275.241 397.444 L318.273 397.444 L318.273 409.221 L275.623 409.221 Q265.374 409.221 260.409 412.849 Q255.444 416.478 255.444 423.926 Q255.444 433.028 261.491 438.312 Q267.538 443.596 277.978 443.596 L318.273 443.596 L318.273 455.372 L275.623 455.372 Q265.31 455.372 260.409 459.001 Q255.444 462.629 255.444 470.204 Q255.444 479.18 261.555 484.463 Q267.602 489.747 277.978 489.747 L318.273 489.747 L318.273 501.524 L246.977 501.524 L246.977 489.747 L258.054 489.747 Q251.497 485.737 248.378 480.135 Q245.258 474.533 245.258 466.83 Q245.258 459.064 249.205 453.653 Q253.152 448.179 260.663 445.569 Z" fill="#000000" fill-rule="nonzero" fill-opacity="1" /><path clip-path="url(#clip470)" d="M282.434 341.681 Q282.434 355.876 285.681 361.351 Q288.927 366.825 296.757 366.825 Q302.995 366.825 306.688 362.751 Q310.316 358.613 310.316 351.547 Q310.316 341.808 303.441 335.951 Q296.502 330.031 285.044 330.031 L282.434 330.031 L282.434 341.681 M277.596 318.318 L318.273 318.318 L318.273 330.031 L307.451 330.031 Q313.944 334.042 317.064 340.026 Q320.119 346.009 320.119 354.667 Q320.119 365.616 314.008 372.109 Q307.833 378.538 297.521 378.538 Q285.49 378.538 279.379 370.517 Q273.268 362.433 273.268 346.455 L273.268 330.031 L272.122 330.031 Q264.037 330.031 259.645 335.379 Q255.189 340.662 255.189 350.274 Q255.189 356.385 256.653 362.178 Q258.117 367.971 261.045 373.318 L250.224 373.318 Q247.741 366.889 246.532 360.841 Q245.258 354.794 245.258 349.065 Q245.258 333.596 253.279 325.957 Q261.3 318.318 277.596 318.318 Z" fill="#000000" fill-rule="nonzero" fill-opacity="1" /><path clip-path="url(#clip470)" d="M249.078 248.741 L260.154 248.741 Q257.608 253.707 256.335 259.054 Q255.062 264.401 255.062 270.13 Q255.062 278.851 257.735 283.243 Q260.409 287.572 265.756 287.572 Q269.83 287.572 272.185 284.453 Q274.477 281.334 276.578 271.912 L277.469 267.902 Q280.143 255.425 285.044 250.205 Q289.882 244.922 298.603 244.922 Q308.534 244.922 314.326 252.815 Q320.119 260.645 320.119 274.395 Q320.119 280.124 318.973 286.363 Q317.891 292.537 315.663 299.412 L303.568 299.412 Q306.942 292.919 308.661 286.617 Q310.316 280.315 310.316 274.14 Q310.316 265.865 307.515 261.409 Q304.65 256.953 299.494 256.953 Q294.72 256.953 292.174 260.2 Q289.627 263.382 287.272 274.268 L286.317 278.342 Q284.026 289.227 279.315 294.065 Q274.541 298.903 266.265 298.903 Q256.207 298.903 250.733 291.773 Q245.258 284.644 245.258 271.531 Q245.258 265.038 246.213 259.308 Q247.168 253.579 249.078 248.741 Z" fill="#000000" fill-rule="nonzero" fill-opacity="1" /><path clip-path="url(#clip470)" d="M249.078 180.819 L260.154 180.819 Q257.608 185.784 256.335 191.132 Q255.062 196.479 255.062 202.208 Q255.062 210.929 257.735 215.321 Q260.409 219.65 265.756 219.65 Q269.83 219.65 272.185 216.531 Q274.477 213.412 276.578 203.99 L277.469 199.98 Q280.143 187.503 285.044 182.283 Q289.882 177 298.603 177 Q308.534 177 314.326 184.893 Q320.119 192.723 320.119 206.473 Q320.119 212.202 318.973 218.441 Q317.891 224.615 315.663 231.49 L303.568 231.49 Q306.942 224.997 308.661 218.695 Q310.316 212.393 310.316 206.218 Q310.316 197.943 307.515 193.487 Q304.65 189.031 299.494 189.031 Q294.72 189.031 292.174 192.277 Q289.627 195.46 287.272 206.346 L286.317 210.42 Q284.026 221.305 279.315 226.143 Q274.541 230.981 266.265 230.981 Q256.207 230.981 250.733 223.851 Q245.258 216.722 245.258 203.608 Q245.258 197.115 246.213 191.386 Q247.168 185.657 249.078 180.819 Z" fill="#000000" fill-rule="nonzero" fill-opacity="1" /><polyline clip-path="url(#clip472)" style="stroke:#008000; stroke-linecap:round; stroke-linejoin:round; stroke-width:8; stroke-opacity:1; fill:none" points="719.695,148.37 774.682,173.913 994.628,429.353 1599.48,953.005 2259.32,1170.13 "/>
<circle clip-path="url(#clip472)" cx="719.695" cy="148.37" r="14.4" fill="#008000" fill-rule="evenodd" fill-opacity="1" stroke="#000000" stroke-opacity="1" stroke-width="6.4"/>
<circle clip-path="url(#clip472)" cx="774.682" cy="173.913" r="14.4" fill="#008000" fill-rule="evenodd" fill-opacity="1" stroke="#000000" stroke-opacity="1" stroke-width="6.4"/>
<circle clip-path="url(#clip472)" cx="994.628" cy="429.353" r="14.4" fill="#008000" fill-rule="evenodd" fill-opacity="1" stroke="#000000" stroke-opacity="1" stroke-width="6.4"/>
<circle clip-path="url(#clip472)" cx="1599.48" cy="953.005" r="14.4" fill="#008000" fill-rule="evenodd" fill-opacity="1" stroke="#000000" stroke-opacity="1" stroke-width="6.4"/>
<circle clip-path="url(#clip472)" cx="2259.32" cy="1170.13" r="14.4" fill="#008000" fill-rule="evenodd" fill-opacity="1" stroke="#000000" stroke-opacity="1" stroke-width="6.4"/>
<polyline clip-path="url(#clip472)" style="stroke:#00008b; stroke-linecap:round; stroke-linejoin:round; stroke-width:8; stroke-opacity:1; fill:none" points="719.695,147.919 774.682,167.434 994.628,384.703 1599.48,939.488 2259.32,1219.22 "/>
<path clip-path="url(#clip472)" d="M719.695 167.835 L774.682 187.644 L994.628 409.535 L1599.48 963.591 L2259.32 1240.32 L2259.32 1193.07 L1599.48 913.393 L994.628 365.383 L774.682 147.647 L719.695 127.862  Z" fill="#0000ff" fill-rule="evenodd" fill-opacity="0.1"/>
<polyline clip-path="url(#clip472)" style="stroke:#0000ff; stroke-linecap:round; stroke-linejoin:round; stroke-width:0; stroke-opacity:0.1; fill:none" points="719.695,167.835 774.682,187.644 994.628,409.535 1599.48,963.591 2259.32,1240.32 "/>
<path clip-path="url(#clip470)" d="M1810.18 444.835 L2251.11 444.835 L2251.11 133.795 L1810.18 133.795  Z" fill="#ffffff" fill-rule="evenodd" fill-opacity="1"/>
<polyline clip-path="url(#clip470)" style="stroke:#000000; stroke-linecap:round; stroke-linejoin:round; stroke-width:8; stroke-opacity:1; fill:none" points="1810.18,444.835 2251.11,444.835 2251.11,133.795 1810.18,133.795 1810.18,444.835 "/>
<polyline clip-path="url(#clip470)" style="stroke:#008000; stroke-linecap:round; stroke-linejoin:round; stroke-width:8; stroke-opacity:1; fill:none" points="1828.31,237.475 1937.11,237.475 "/>
<circle clip-path="url(#clip470)" cx="1882.71" cy="237.475" r="7.55558" fill="#008000" fill-rule="evenodd" fill-opacity="1" stroke="#000000" stroke-opacity="1" stroke-width="6.71607"/>
<path clip-path="url(#clip470)" d="M2010.99 208.239 L2010.99 218.1 Q2006.27 213.702 2000.9 211.526 Q1995.57 209.35 1989.55 209.35 Q1977.7 209.35 1971.41 216.619 Q1965.11 223.841 1965.11 237.545 Q1965.11 251.202 1971.41 258.47 Q1977.7 265.693 1989.55 265.693 Q1995.57 265.693 2000.9 263.517 Q2006.27 261.341 2010.99 256.943 L2010.99 266.711 Q2006.08 270.044 2000.57 271.711 Q1995.11 273.378 1989 273.378 Q1973.3 273.378 1964.28 263.794 Q1955.25 254.165 1955.25 237.545 Q1955.25 220.878 1964.28 211.295 Q1973.3 201.665 1989 201.665 Q1995.2 201.665 2000.66 203.332 Q2006.17 204.952 2010.99 208.239 Z" fill="#000000" fill-rule="nonzero" fill-opacity="1" /><path clip-path="url(#clip470)" d="M2058.12 221.711 L2058.12 229.767 Q2054.51 227.915 2050.62 226.989 Q2046.73 226.063 2042.56 226.063 Q2036.22 226.063 2033.03 228.008 Q2029.88 229.952 2029.88 233.841 Q2029.88 236.804 2032.15 238.517 Q2034.41 240.183 2041.27 241.711 L2044.18 242.359 Q2053.26 244.304 2057.05 247.869 Q2060.9 251.387 2060.9 257.73 Q2060.9 264.952 2055.16 269.165 Q2049.46 273.378 2039.46 273.378 Q2035.29 273.378 2030.76 272.544 Q2026.27 271.757 2021.27 270.137 L2021.27 261.341 Q2025.99 263.794 2030.57 265.044 Q2035.16 266.248 2039.65 266.248 Q2045.66 266.248 2048.91 264.211 Q2052.15 262.128 2052.15 258.378 Q2052.15 254.906 2049.78 253.054 Q2047.47 251.202 2039.55 249.489 L2036.59 248.794 Q2028.67 247.128 2025.16 243.702 Q2021.64 240.23 2021.64 234.211 Q2021.64 226.896 2026.82 222.915 Q2032.01 218.934 2041.54 218.934 Q2046.27 218.934 2050.43 219.628 Q2054.6 220.322 2058.12 221.711 Z" fill="#000000" fill-rule="nonzero" fill-opacity="1" /><path clip-path="url(#clip470)" d="M2118.81 243.98 L2118.81 248.146 L2079.65 248.146 Q2080.2 256.943 2084.92 261.572 Q2089.69 266.156 2098.16 266.156 Q2103.07 266.156 2107.65 264.952 Q2112.28 263.748 2116.82 261.341 L2116.82 269.396 Q2112.24 271.341 2107.42 272.359 Q2102.61 273.378 2097.65 273.378 Q2085.25 273.378 2077.98 266.156 Q2070.76 258.933 2070.76 246.619 Q2070.76 233.887 2077.61 226.434 Q2084.51 218.934 2096.17 218.934 Q2106.64 218.934 2112.7 225.693 Q2118.81 232.406 2118.81 243.98 M2110.29 241.48 Q2110.2 234.489 2106.36 230.322 Q2102.56 226.156 2096.27 226.156 Q2089.14 226.156 2084.83 230.183 Q2080.57 234.211 2079.92 241.526 L2110.29 241.48 Z" fill="#000000" fill-rule="nonzero" fill-opacity="1" /><path clip-path="url(#clip470)" d="M2162.84 228.146 Q2161.4 227.313 2159.69 226.943 Q2158.02 226.526 2155.99 226.526 Q2148.77 226.526 2144.88 231.248 Q2141.03 235.924 2141.03 244.72 L2141.03 272.035 L2132.47 272.035 L2132.47 220.184 L2141.03 220.184 L2141.03 228.239 Q2143.72 223.517 2148.02 221.248 Q2152.33 218.934 2158.49 218.934 Q2159.37 218.934 2160.43 219.072 Q2161.5 219.165 2162.79 219.397 L2162.84 228.146 Z" fill="#000000" fill-rule="nonzero" fill-opacity="1" /><path clip-path="url(#clip470)" d="M2200.15 228.146 Q2198.72 227.313 2197.01 226.943 Q2195.34 226.526 2193.3 226.526 Q2186.08 226.526 2182.19 231.248 Q2178.35 235.924 2178.35 244.72 L2178.35 272.035 L2169.78 272.035 L2169.78 220.184 L2178.35 220.184 L2178.35 228.239 Q2181.03 223.517 2185.34 221.248 Q2189.65 218.934 2195.8 218.934 Q2196.68 218.934 2197.75 219.072 Q2198.81 219.165 2200.11 219.397 L2200.15 228.146 Z" fill="#000000" fill-rule="nonzero" fill-opacity="1" /><polyline clip-path="url(#clip470)" style="stroke:#00008b; stroke-linecap:round; stroke-linejoin:round; stroke-width:8; stroke-opacity:1; fill:none" points="1828.31,341.155 1937.11,341.155 "/>
<path clip-path="url(#clip470)" d="M1995.94 333.817 Q1999.14 328.076 2003.58 325.345 Q2008.03 322.614 2014.04 322.614 Q2022.15 322.614 2026.54 328.308 Q2030.94 333.956 2030.94 344.419 L2030.94 375.715 L2022.38 375.715 L2022.38 344.697 Q2022.38 337.243 2019.74 333.632 Q2017.1 330.021 2011.68 330.021 Q2005.06 330.021 2001.22 334.419 Q1997.38 338.817 1997.38 346.41 L1997.38 375.715 L1988.81 375.715 L1988.81 344.697 Q1988.81 337.197 1986.17 333.632 Q1983.54 330.021 1978.03 330.021 Q1971.5 330.021 1967.66 334.465 Q1963.81 338.863 1963.81 346.41 L1963.81 375.715 L1955.25 375.715 L1955.25 323.864 L1963.81 323.864 L1963.81 331.919 Q1966.73 327.151 1970.8 324.882 Q1974.88 322.614 1980.48 322.614 Q1986.13 322.614 1990.06 325.484 Q1994.04 328.354 1995.94 333.817 Z" fill="#000000" fill-rule="nonzero" fill-opacity="1" /><path clip-path="url(#clip470)" d="M2068.03 329.836 Q2061.17 329.836 2057.19 335.206 Q2053.21 340.53 2053.21 349.836 Q2053.21 359.141 2057.15 364.511 Q2061.13 369.836 2068.03 369.836 Q2074.83 369.836 2078.81 364.465 Q2082.79 359.095 2082.79 349.836 Q2082.79 340.623 2078.81 335.252 Q2074.83 329.836 2068.03 329.836 M2068.03 322.614 Q2079.14 322.614 2085.48 329.836 Q2091.82 337.058 2091.82 349.836 Q2091.82 362.567 2085.48 369.836 Q2079.14 377.058 2068.03 377.058 Q2056.87 377.058 2050.53 369.836 Q2044.23 362.567 2044.23 349.836 Q2044.23 337.058 2050.53 329.836 Q2056.87 322.614 2068.03 322.614 Z" fill="#000000" fill-rule="nonzero" fill-opacity="1" /><path clip-path="url(#clip470)" d="M2140.06 331.734 L2140.06 303.678 L2148.58 303.678 L2148.58 375.715 L2140.06 375.715 L2140.06 367.937 Q2137.38 372.567 2133.26 374.835 Q2129.18 377.058 2123.44 377.058 Q2114.04 377.058 2108.12 369.558 Q2102.24 362.058 2102.24 349.836 Q2102.24 337.613 2108.12 330.114 Q2114.04 322.614 2123.44 322.614 Q2129.18 322.614 2133.26 324.882 Q2137.38 327.104 2140.06 331.734 M2111.03 349.836 Q2111.03 359.234 2114.88 364.604 Q2118.77 369.928 2125.53 369.928 Q2132.28 369.928 2136.17 364.604 Q2140.06 359.234 2140.06 349.836 Q2140.06 340.438 2136.17 335.113 Q2132.28 329.743 2125.53 329.743 Q2118.77 329.743 2114.88 335.113 Q2111.03 340.438 2111.03 349.836 Z" fill="#000000" fill-rule="nonzero" fill-opacity="1" /><path clip-path="url(#clip470)" d="M2210.48 347.66 L2210.48 351.826 L2171.31 351.826 Q2171.87 360.623 2176.59 365.252 Q2181.36 369.836 2189.83 369.836 Q2194.74 369.836 2199.32 368.632 Q2203.95 367.428 2208.49 365.021 L2208.49 373.076 Q2203.9 375.021 2199.09 376.039 Q2194.27 377.058 2189.32 377.058 Q2176.91 377.058 2169.65 369.836 Q2162.42 362.613 2162.42 350.299 Q2162.42 337.567 2169.27 330.114 Q2176.17 322.614 2187.84 322.614 Q2198.3 322.614 2204.37 329.373 Q2210.48 336.086 2210.48 347.66 M2201.96 345.16 Q2201.87 338.169 2198.02 334.002 Q2194.23 329.836 2187.93 329.836 Q2180.8 329.836 2176.5 333.863 Q2172.24 337.891 2171.59 345.206 L2201.96 345.16 Z" fill="#000000" fill-rule="nonzero" fill-opacity="1" /><path clip-path="url(#clip470)" d="M2224.46 303.678 L2232.98 303.678 L2232.98 375.715 L2224.46 375.715 L2224.46 303.678 Z" fill="#000000" fill-rule="nonzero" fill-opacity="1" /></svg>
