<?xml version="1.0" encoding="utf-8"?>
<svg xmlns="http://www.w3.org/2000/svg" xmlns:xlink="http://www.w3.org/1999/xlink" width="600" height="400" viewBox="0 0 2400 1600">
<defs>
  <clipPath id="clip390">
    <rect x="0" y="0" width="2400" height="1600"/>
  </clipPath>
</defs>
<path clip-path="url(#clip390)" d="M0 1600 L2400 1600 L2400 0 L0 0  Z" fill="#ffffff" fill-rule="evenodd" fill-opacity="1"/>
<defs>
  <clipPath id="clip391">
    <rect x="480" y="0" width="1681" height="1600"/>
  </clipPath>
</defs>
<path clip-path="url(#clip390)" d="M559.803 1273.7 L2305.51 1273.7 L2305.51 94.4882 L559.803 94.4882  Z" fill="#ffffff" fill-rule="evenodd" fill-opacity="1"/>
<defs>
  <clipPath id="clip392">
    <rect x="559" y="94" width="1747" height="1180"/>
  </clipPath>
</defs>
<polyline clip-path="url(#clip392)" style="stroke:#000000; stroke-linecap:round; stroke-linejoin:round; stroke-width:4; stroke-opacity:0.1; fill:none" points="609.21,1273.7 609.21,94.4882 "/>
<polyline clip-path="url(#clip392)" style="stroke:#000000; stroke-linecap:round; stroke-linejoin:round; stroke-width:4; stroke-opacity:0.1; fill:none" points="903.298,1273.7 903.298,94.4882 "/>
<polyline clip-path="url(#clip392)" style="stroke:#000000; stroke-linecap:round; stroke-linejoin:round; stroke-width:4; stroke-opacity:0.1; fill:none" points="1197.39,1273.7 1197.39,94.4882 "/>
<polyline clip-path="url(#clip392)" style="stroke:#000000; stroke-linecap:round; stroke-linejoin:round; stroke-width:4; stroke-opacity:0.1; fill:none" points="1491.48,1273.7 1491.48,94.4882 "/>
<polyline clip-path="url(#clip392)" style="stroke:#000000; stroke-linecap:round; stroke-linejoin:round; stroke-width:4; stroke-opacity:0.1; fill:none" points="1785.56,1273.7 1785.56,94.4882 "/>
<polyline clip-path="url(#clip392)" style="stroke:#000000; stroke-linecap:round; stroke-linejoin:round; stroke-width:4; stroke-opacity:0.1; fill:none" points="2079.65,1273.7 2079.65,94.4882 "/>
<polyline clip-path="url(#clip390)" style="stroke:#000000; stroke-linecap:round; stroke-linejoin:round; stroke-width:8; stroke-opacity:1; fill:none" points="559.803,1273.7 2305.51,1273.7 "/>
<polyline clip-path="url(#clip390)" style="stroke:#000000; stroke-linecap:round; stroke-linejoin:round; stroke-width:8; stroke-opacity:1; fill:none" points="609.21,1273.7 609.21,1254.8 "/>
<polyline clip-path="url(#clip390)" style="stroke:#000000; stroke-linecap:round; stroke-linejoin:round; stroke-width:8; stroke-opacity:1; fill:none" points="903.298,1273.7 903.298,1254.8 "/>
<polyline clip-path="url(#clip390)" style="stroke:#000000; stroke-linecap:round; stroke-linejoin:round; stroke-width:8; stroke-opacity:1; fill:none" points="1197.39,1273.7 1197.39,1254.8 "/>
<polyline clip-path="url(#clip390)" style="stroke:#000000; stroke-linecap:round; stroke-linejoin:round; stroke-width:8; stroke-opacity:1; fill:none" points="1491.48,1273.7 1491.48,1254.8 "/>
<polyline clip-path="url(#clip390)" style="stroke:#000000; stroke-linecap:round; stroke-linejoin:round; stroke-width:8; stroke-opacity:1; fill:none" points="1785.56,1273.7 1785.56,1254.8 "/>
<polyline clip-path="url(#clip390)" style="stroke:#000000; stroke-linecap:round; stroke-linejoin:round; stroke-width:8; stroke-opacity:1; fill:none" points="2079.65,1273.7 2079.65,1254.8 "/>
<path clip-path="url(#clip390)" d="M609.21 1316.33 Q601.988 1316.33 598.33 1323.46 Q594.719 1330.55 594.719 1344.81 Q594.719 1359.02 598.33 1366.15 Q601.988 1373.23 609.21 1373.23 Q616.478 1373.23 620.089 1366.15 Q623.747 1359.02 623.747 1344.81 Q623.747 1330.55 620.089 1323.46 Q616.478 1316.33 609.21 1316.33 M609.21 1308.93 Q620.83 1308.93 626.941 1318.14 Q633.098 1327.31 633.098 1344.81 Q633.098 1362.26 626.941 1371.47 Q620.83 1380.64 609.21 1380.64 Q597.589 1380.64 591.432 1371.47 Q585.321 1362.26 585.321 1344.81 Q585.321 1327.31 591.432 1318.14 Q597.589 1308.93 609.21 1308.93 Z" fill="#000000" fill-rule="nonzero" fill-opacity="1" /><path clip-path="url(#clip390)" d="M883.854 1310.18 L920.567 1310.18 L920.567 1318.05 L892.419 1318.05 L892.419 1334.99 Q894.456 1334.3 896.493 1333.97 Q898.53 1333.6 900.567 1333.6 Q912.141 1333.6 918.9 1339.94 Q925.659 1346.29 925.659 1357.12 Q925.659 1368.28 918.715 1374.48 Q911.77 1380.64 899.132 1380.64 Q894.78 1380.64 890.243 1379.9 Q885.752 1379.16 880.937 1377.68 L880.937 1368.28 Q885.104 1370.55 889.548 1371.66 Q893.993 1372.77 898.946 1372.77 Q906.956 1372.77 911.631 1368.56 Q916.307 1364.34 916.307 1357.12 Q916.307 1349.9 911.631 1345.68 Q906.956 1341.47 898.946 1341.47 Q895.196 1341.47 891.446 1342.31 Q887.743 1343.14 883.854 1344.9 L883.854 1310.18 Z" fill="#000000" fill-rule="nonzero" fill-opacity="1" /><path clip-path="url(#clip390)" d="M1146.76 1371.43 L1162.04 1371.43 L1162.04 1318.69 L1145.42 1322.03 L1145.42 1313.51 L1161.95 1310.18 L1171.3 1310.18 L1171.3 1371.43 L1186.58 1371.43 L1186.58 1379.3 L1146.76 1379.3 L1146.76 1371.43 Z" fill="#000000" fill-rule="nonzero" fill-opacity="1" /><path clip-path="url(#clip390)" d="M1225.47 1316.33 Q1218.24 1316.33 1214.59 1323.46 Q1210.97 1330.55 1210.97 1344.81 Q1210.97 1359.02 1214.59 1366.15 Q1218.24 1373.23 1225.47 1373.23 Q1232.73 1373.23 1236.34 1366.15 Q1240 1359.02 1240 1344.81 Q1240 1330.55 1236.34 1323.46 Q1232.73 1316.33 1225.47 1316.33 M1225.47 1308.93 Q1237.09 1308.93 1243.2 1318.14 Q1249.35 1327.31 1249.35 1344.81 Q1249.35 1362.26 1243.2 1371.47 Q1237.09 1380.64 1225.47 1380.64 Q1213.84 1380.64 1207.69 1371.47 Q1201.58 1362.26 1201.58 1344.81 Q1201.58 1327.31 1207.69 1318.14 Q1213.84 1308.93 1225.47 1308.93 Z" fill="#000000" fill-rule="nonzero" fill-opacity="1" /><path clip-path="url(#clip390)" d="M1441.85 1371.43 L1457.12 1371.43 L1457.12 1318.69 L1440.5 1322.03 L1440.5 1313.51 L1457.03 1310.18 L1466.38 1310.18 L1466.38 1371.43 L1481.66 1371.43 L1481.66 1379.3 L1441.85 1379.3 L1441.85 1371.43 Z" fill="#000000" fill-rule="nonzero" fill-opacity="1" /><path clip-path="url(#clip390)" d="M1500.64 1310.18 L1537.35 1310.18 L1537.35 1318.05 L1509.21 1318.05 L1509.21 1334.99 Q1511.24 1334.3 1513.28 1333.97 Q1515.32 1333.6 1517.35 1333.6 Q1528.93 1333.6 1535.69 1339.94 Q1542.45 1346.29 1542.45 1357.12 Q1542.45 1368.28 1535.5 1374.48 Q1528.56 1380.64 1515.92 1380.64 Q1511.57 1380.64 1507.03 1379.9 Q1502.54 1379.16 1497.72 1377.68 L1497.72 1368.28 Q1501.89 1370.55 1506.34 1371.66 Q1510.78 1372.77 1515.73 1372.77 Q1523.74 1372.77 1528.42 1368.56 Q1533.1 1364.34 1533.1 1357.12 Q1533.1 1349.9 1528.42 1345.68 Q1523.74 1341.47 1515.73 1341.47 Q1511.98 1341.47 1508.23 1342.31 Q1504.53 1343.14 1500.64 1344.9 L1500.64 1310.18 Z" fill="#000000" fill-rule="nonzero" fill-opacity="1" /><path clip-path="url(#clip390)" d="M1743.11 1371.43 L1775.75 1371.43 L1775.75 1379.3 L1731.86 1379.3 L1731.86 1371.43 Q1737.18 1365.92 1746.35 1356.66 Q1755.56 1347.35 1757.92 1344.67 Q1762.42 1339.62 1764.17 1336.15 Q1765.98 1332.63 1765.98 1329.25 Q1765.98 1323.74 1762.09 1320.27 Q1758.25 1316.8 1752.05 1316.8 Q1747.65 1316.8 1742.74 1318.32 Q1737.88 1319.85 1732.32 1322.95 L1732.32 1313.51 Q1737.97 1311.24 1742.88 1310.08 Q1747.79 1308.93 1751.86 1308.93 Q1762.6 1308.93 1768.99 1314.3 Q1775.38 1319.67 1775.38 1328.65 Q1775.38 1332.91 1773.76 1336.75 Q1772.18 1340.55 1767.97 1345.73 Q1766.81 1347.07 1760.61 1353.51 Q1754.41 1359.9 1743.11 1371.43 Z" fill="#000000" fill-rule="nonzero" fill-opacity="1" /><path clip-path="url(#clip390)" d="M1815.38 1316.33 Q1808.16 1316.33 1804.5 1323.46 Q1800.89 1330.55 1800.89 1344.81 Q1800.89 1359.02 1804.5 1366.15 Q1808.16 1373.23 1815.38 1373.23 Q1822.65 1373.23 1826.26 1366.15 Q1829.92 1359.02 1829.92 1344.81 Q1829.92 1330.55 1826.26 1323.46 Q1822.65 1316.33 1815.38 1316.33 M1815.38 1308.93 Q1827 1308.93 1833.11 1318.14 Q1839.27 1327.31 1839.27 1344.81 Q1839.27 1362.26 1833.11 1371.47 Q1827 1380.64 1815.38 1380.64 Q1803.76 1380.64 1797.6 1371.47 Q1791.49 1362.26 1791.49 1344.81 Q1791.49 1327.31 1797.6 1318.14 Q1803.76 1308.93 1815.38 1308.93 Z" fill="#000000" fill-rule="nonzero" fill-opacity="1" /><path clip-path="url(#clip390)" d="M2038.19 1371.43 L2070.83 1371.43 L2070.83 1379.3 L2026.94 1379.3 L2026.94 1371.43 Q2032.27 1365.92 2041.43 1356.66 Q2050.65 1347.35 2053.01 1344.67 Q2057.5 1339.62 2059.26 1336.15 Q2061.06 1332.63 2061.06 1329.25 Q2061.06 1323.74 2057.18 1320.27 Q2053.33 1316.8 2047.13 1316.8 Q2042.73 1316.8 2037.82 1318.32 Q2032.96 1319.85 2027.41 1322.95 L2027.41 1313.51 Q2033.05 1311.24 2037.96 1310.08 Q2042.87 1308.93 2046.94 1308.93 Q2057.68 1308.93 2064.07 1314.3 Q2070.46 1319.67 2070.46 1328.65 Q2070.46 1332.91 2068.84 1336.75 Q2067.27 1340.55 2063.05 1345.73 Q2061.9 1347.07 2055.69 1353.51 Q2049.49 1359.9 2038.19 1371.43 Z" fill="#000000" fill-rule="nonzero" fill-opacity="1" /><path clip-path="url(#clip390)" d="M2090.55 1310.18 L2127.27 1310.18 L2127.27 1318.05 L2099.12 1318.05 L2099.12 1334.99 Q2101.16 1334.3 2103.19 1333.97 Q2105.23 1333.6 2107.27 1333.6 Q2118.84 1333.6 2125.6 1339.94 Q2132.36 1346.29 2132.36 1357.12 Q2132.36 1368.28 2125.42 1374.48 Q2118.47 1380.64 2105.83 1380.64 Q2101.48 1380.64 2096.94 1379.9 Q2092.45 1379.16 2087.64 1377.68 L2087.64 1368.28 Q2091.8 1370.55 2096.25 1371.66 Q2100.69 1372.77 2105.65 1372.77 Q2113.66 1372.77 2118.33 1368.56 Q2123.01 1364.34 2123.01 1357.12 Q2123.01 1349.9 2118.33 1345.68 Q2113.66 1341.47 2105.65 1341.47 Q2101.9 1341.47 2098.15 1342.31 Q2094.44 1343.14 2090.55 1344.9 L2090.55 1310.18 Z" fill="#000000" fill-rule="nonzero" fill-opacity="1" /><path clip-path="url(#clip390)" d="M1318.2 1484.39 L1318.2 1527.42 L1306.49 1527.42 L1306.49 1484.77 Q1306.49 1474.65 1302.54 1469.62 Q1298.6 1464.59 1290.7 1464.59 Q1281.22 1464.59 1275.74 1470.64 Q1270.27 1476.69 1270.27 1487.13 L1270.27 1527.42 L1258.49 1527.42 L1258.49 1428.37 L1270.27 1428.37 L1270.27 1467.2 Q1274.47 1460.77 1280.14 1457.59 Q1285.86 1454.41 1293.31 1454.41 Q1305.6 1454.41 1311.9 1462.05 Q1318.2 1469.62 1318.2 1484.39 Z" fill="#000000" fill-rule="nonzero" fill-opacity="1" /><path clip-path="url(#clip390)" d="M1369.19 1464.34 Q1359.77 1464.34 1354.3 1471.72 Q1348.82 1479.04 1348.82 1491.84 Q1348.82 1504.63 1354.23 1512.02 Q1359.71 1519.34 1369.19 1519.34 Q1378.55 1519.34 1384.02 1511.96 Q1389.5 1504.57 1389.5 1491.84 Q1389.5 1479.17 1384.02 1471.79 Q1378.55 1464.34 1369.19 1464.34 M1369.19 1454.41 Q1384.47 1454.41 1393.19 1464.34 Q1401.91 1474.27 1401.91 1491.84 Q1401.91 1509.35 1393.19 1519.34 Q1384.47 1529.27 1369.19 1529.27 Q1353.85 1529.27 1345.13 1519.34 Q1336.47 1509.35 1336.47 1491.84 Q1336.47 1474.27 1345.13 1464.34 Q1353.85 1454.41 1369.19 1454.41 Z" fill="#000000" fill-rule="nonzero" fill-opacity="1" /><path clip-path="url(#clip390)" d="M1420.12 1499.29 L1420.12 1456.13 L1431.83 1456.13 L1431.83 1498.84 Q1431.83 1508.96 1435.78 1514.06 Q1439.72 1519.08 1447.62 1519.08 Q1457.1 1519.08 1462.58 1513.04 Q1468.11 1506.99 1468.11 1496.55 L1468.11 1456.13 L1479.83 1456.13 L1479.83 1527.42 L1468.11 1527.42 L1468.11 1516.47 Q1463.85 1522.97 1458.18 1526.15 Q1452.58 1529.27 1445.13 1529.27 Q1432.85 1529.27 1426.48 1521.63 Q1420.12 1513.99 1420.12 1499.29 M1449.59 1454.41 L1449.59 1454.41 Z" fill="#000000" fill-rule="nonzero" fill-opacity="1" /><path clip-path="url(#clip390)" d="M1545.27 1467.08 Q1543.29 1465.93 1540.94 1465.42 Q1538.65 1464.85 1535.85 1464.85 Q1525.91 1464.85 1520.57 1471.34 Q1515.28 1477.77 1515.28 1489.87 L1515.28 1527.42 L1503.51 1527.42 L1503.51 1456.13 L1515.28 1456.13 L1515.28 1467.2 Q1518.98 1460.71 1524.9 1457.59 Q1530.82 1454.41 1539.28 1454.41 Q1540.49 1454.41 1541.96 1454.6 Q1543.42 1454.73 1545.2 1455.05 L1545.27 1467.08 Z" fill="#000000" fill-rule="nonzero" fill-opacity="1" /><path clip-path="url(#clip390)" d="M1603 1458.23 L1603 1469.3 Q1598.04 1466.76 1592.69 1465.49 Q1587.34 1464.21 1581.61 1464.21 Q1572.89 1464.21 1568.5 1466.89 Q1564.17 1469.56 1564.17 1474.91 Q1564.17 1478.98 1567.29 1481.34 Q1570.41 1483.63 1579.83 1485.73 L1583.84 1486.62 Q1596.32 1489.29 1601.54 1494.19 Q1606.82 1499.03 1606.82 1507.75 Q1606.82 1517.68 1598.93 1523.48 Q1591.1 1529.27 1577.35 1529.27 Q1571.62 1529.27 1565.38 1528.12 Q1559.21 1527.04 1552.33 1524.81 L1552.33 1512.72 Q1558.83 1516.09 1565.13 1517.81 Q1571.43 1519.47 1577.6 1519.47 Q1585.88 1519.47 1590.34 1516.67 Q1594.79 1513.8 1594.79 1508.64 Q1594.79 1503.87 1591.55 1501.32 Q1588.36 1498.78 1577.48 1496.42 L1573.4 1495.47 Q1562.52 1493.18 1557.68 1488.47 Q1552.84 1483.69 1552.84 1475.42 Q1552.84 1465.36 1559.97 1459.88 Q1567.1 1454.41 1580.21 1454.41 Q1586.71 1454.41 1592.44 1455.36 Q1598.17 1456.32 1603 1458.23 Z" fill="#000000" fill-rule="nonzero" fill-opacity="1" /><polyline clip-path="url(#clip392)" style="stroke:#000000; stroke-linecap:round; stroke-linejoin:round; stroke-width:4; stroke-opacity:0.1; fill:none" points="559.803,1199.84 2305.51,1199.84 "/>
<polyline clip-path="url(#clip392)" style="stroke:#000000; stroke-linecap:round; stroke-linejoin:round; stroke-width:4; stroke-opacity:0.1; fill:none" points="559.803,933.853 2305.51,933.853 "/>
<polyline clip-path="url(#clip392)" style="stroke:#000000; stroke-linecap:round; stroke-linejoin:round; stroke-width:4; stroke-opacity:0.1; fill:none" points="559.803,667.861 2305.51,667.861 "/>
<polyline clip-path="url(#clip392)" style="stroke:#000000; stroke-linecap:round; stroke-linejoin:round; stroke-width:4; stroke-opacity:0.1; fill:none" points="559.803,401.869 2305.51,401.869 "/>
<polyline clip-path="url(#clip392)" style="stroke:#000000; stroke-linecap:round; stroke-linejoin:round; stroke-width:4; stroke-opacity:0.1; fill:none" points="559.803,135.877 2305.51,135.877 "/>
<polyline clip-path="url(#clip390)" style="stroke:#000000; stroke-linecap:round; stroke-linejoin:round; stroke-width:8; stroke-opacity:1; fill:none" points="559.803,1273.7 559.803,94.4882 "/>
<polyline clip-path="url(#clip390)" style="stroke:#000000; stroke-linecap:round; stroke-linejoin:round; stroke-width:8; stroke-opacity:1; fill:none" points="559.803,1199.84 578.701,1199.84 "/>
<polyline clip-path="url(#clip390)" style="stroke:#000000; stroke-linecap:round; stroke-linejoin:round; stroke-width:8; stroke-opacity:1; fill:none" points="559.803,933.853 578.701,933.853 "/>
<polyline clip-path="url(#clip390)" style="stroke:#000000; stroke-linecap:round; stroke-linejoin:round; stroke-width:8; stroke-opacity:1; fill:none" points="559.803,667.861 578.701,667.861 "/>
<polyline clip-path="url(#clip390)" style="stroke:#000000; stroke-linecap:round; stroke-linejoin:round; stroke-width:8; stroke-opacity:1; fill:none" points="559.803,401.869 578.701,401.869 "/>
<polyline clip-path="url(#clip390)" style="stroke:#000000; stroke-linecap:round; stroke-linejoin:round; stroke-width:8; stroke-opacity:1; fill:none" points="559.803,135.877 578.701,135.877 "/>
<path clip-path="url(#clip390)" d="M409.452 1171.44 Q402.229 1171.44 398.572 1178.57 Q394.961 1185.66 394.961 1199.91 Q394.961 1214.13 398.572 1221.26 Q402.229 1228.34 409.452 1228.34 Q416.72 1228.34 420.331 1221.26 Q423.989 1214.13 423.989 1199.91 Q423.989 1185.66 420.331 1178.57 Q416.72 1171.44 409.452 1171.44 M409.452 1164.03 Q421.072 1164.03 427.183 1173.25 Q433.34 1182.41 433.34 1199.91 Q433.34 1217.37 427.183 1226.58 Q421.072 1235.75 409.452 1235.75 Q397.831 1235.75 391.674 1226.58 Q385.563 1217.37 385.563 1199.91 Q385.563 1182.41 391.674 1173.25 Q397.831 1164.03 409.452 1164.03 Z" fill="#000000" fill-rule="nonzero" fill-opacity="1" /><path clip-path="url(#clip390)" d="M449.775 1222.65 L459.544 1222.65 L459.544 1234.4 L449.775 1234.4 L449.775 1222.65 Z" fill="#000000" fill-rule="nonzero" fill-opacity="1" /><path clip-path="url(#clip390)" d="M499.914 1171.44 Q492.692 1171.44 489.035 1178.57 Q485.423 1185.66 485.423 1199.91 Q485.423 1214.13 489.035 1221.26 Q492.692 1228.34 499.914 1228.34 Q507.183 1228.34 510.794 1221.26 Q514.451 1214.13 514.451 1199.91 Q514.451 1185.66 510.794 1178.57 Q507.183 1171.44 499.914 1171.44 M499.914 1164.03 Q511.534 1164.03 517.645 1173.25 Q523.803 1182.41 523.803 1199.91 Q523.803 1217.37 517.645 1226.58 Q511.534 1235.75 499.914 1235.75 Q488.294 1235.75 482.136 1226.58 Q476.025 1217.37 476.025 1199.91 Q476.025 1182.41 482.136 1173.25 Q488.294 1164.03 499.914 1164.03 Z" fill="#000000" fill-rule="nonzero" fill-opacity="1" /><path clip-path="url(#clip390)" d="M389.544 899.293 L426.257 899.293 L426.257 907.163 L398.109 907.163 L398.109 924.107 Q400.146 923.413 402.183 923.089 Q404.22 922.719 406.257 922.719 Q417.831 922.719 424.59 929.061 Q431.35 935.404 431.35 946.237 Q431.35 957.394 424.405 963.598 Q417.461 969.755 404.822 969.755 Q400.47 969.755 395.933 969.015 Q391.442 968.274 386.628 966.792 L386.628 957.394 Q390.794 959.663 395.239 960.774 Q399.683 961.885 404.637 961.885 Q412.646 961.885 417.322 957.672 Q421.998 953.459 421.998 946.237 Q421.998 939.015 417.322 934.802 Q412.646 930.589 404.637 930.589 Q400.887 930.589 397.137 931.422 Q393.433 932.256 389.544 934.015 L389.544 899.293 Z" fill="#000000" fill-rule="nonzero" fill-opacity="1" /><path clip-path="url(#clip390)" d="M449.775 956.654 L459.544 956.654 L459.544 968.413 L449.775 968.413 L449.775 956.654 Z" fill="#000000" fill-rule="nonzero" fill-opacity="1" /><path clip-path="url(#clip390)" d="M499.914 905.45 Q492.692 905.45 489.035 912.58 Q485.423 919.663 485.423 933.922 Q485.423 948.135 489.035 955.265 Q492.692 962.348 499.914 962.348 Q507.183 962.348 510.794 955.265 Q514.451 948.135 514.451 933.922 Q514.451 919.663 510.794 912.58 Q507.183 905.45 499.914 905.45 M499.914 898.043 Q511.534 898.043 517.645 907.256 Q523.803 916.422 523.803 933.922 Q523.803 951.376 517.645 960.589 Q511.534 969.755 499.914 969.755 Q488.294 969.755 482.136 960.589 Q476.025 951.376 476.025 933.922 Q476.025 916.422 482.136 907.256 Q488.294 898.043 499.914 898.043 Z" fill="#000000" fill-rule="nonzero" fill-opacity="1" /><path clip-path="url(#clip390)" d="M330.748 694.55 L346.026 694.55 L346.026 641.819 L329.406 645.153 L329.406 636.634 L345.933 633.301 L355.285 633.301 L355.285 694.55 L370.563 694.55 L370.563 702.421 L330.748 702.421 L330.748 694.55 Z" fill="#000000" fill-rule="nonzero" fill-opacity="1" /><path clip-path="url(#clip390)" d="M409.452 639.458 Q402.229 639.458 398.572 646.588 Q394.961 653.671 394.961 667.93 Q394.961 682.143 398.572 689.273 Q402.229 696.356 409.452 696.356 Q416.72 696.356 420.331 689.273 Q423.989 682.143 423.989 667.93 Q423.989 653.671 420.331 646.588 Q416.72 639.458 409.452 639.458 M409.452 632.051 Q421.072 632.051 427.183 641.264 Q433.34 650.43 433.34 667.93 Q433.34 685.384 427.183 694.597 Q421.072 703.763 409.452 703.763 Q397.831 703.763 391.674 694.597 Q385.563 685.384 385.563 667.93 Q385.563 650.43 391.674 641.264 Q397.831 632.051 409.452 632.051 Z" fill="#000000" fill-rule="nonzero" fill-opacity="1" /><path clip-path="url(#clip390)" d="M449.775 690.662 L459.544 690.662 L459.544 702.421 L449.775 702.421 L449.775 690.662 Z" fill="#000000" fill-rule="nonzero" fill-opacity="1" /><path clip-path="url(#clip390)" d="M499.914 639.458 Q492.692 639.458 489.035 646.588 Q485.423 653.671 485.423 667.93 Q485.423 682.143 489.035 689.273 Q492.692 696.356 499.914 696.356 Q507.183 696.356 510.794 689.273 Q514.451 682.143 514.451 667.93 Q514.451 653.671 510.794 646.588 Q507.183 639.458 499.914 639.458 M499.914 632.051 Q511.534 632.051 517.645 641.264 Q523.803 650.43 523.803 667.93 Q523.803 685.384 517.645 694.597 Q511.534 703.763 499.914 703.763 Q488.294 703.763 482.136 694.597 Q476.025 685.384 476.025 667.93 Q476.025 650.43 482.136 641.264 Q488.294 632.051 499.914 632.051 Z" fill="#000000" fill-rule="nonzero" fill-opacity="1" /><path clip-path="url(#clip390)" d="M330.748 428.558 L346.026 428.558 L346.026 375.827 L329.406 379.161 L329.406 370.642 L345.933 367.309 L355.285 367.309 L355.285 428.558 L370.563 428.558 L370.563 436.429 L330.748 436.429 L330.748 428.558 Z" fill="#000000" fill-rule="nonzero" fill-opacity="1" /><path clip-path="url(#clip390)" d="M389.544 367.309 L426.257 367.309 L426.257 375.179 L398.109 375.179 L398.109 392.123 Q400.146 391.429 402.183 391.105 Q404.22 390.735 406.257 390.735 Q417.831 390.735 424.59 397.077 Q431.35 403.42 431.35 414.253 Q431.35 425.41 424.405 431.614 Q417.461 437.771 404.822 437.771 Q400.47 437.771 395.933 437.031 Q391.442 436.29 386.628 434.808 L386.628 425.41 Q390.794 427.679 395.239 428.79 Q399.683 429.901 404.637 429.901 Q412.646 429.901 417.322 425.688 Q421.998 421.475 421.998 414.253 Q421.998 407.031 417.322 402.818 Q412.646 398.605 404.637 398.605 Q400.887 398.605 397.137 399.438 Q393.433 400.272 389.544 402.031 L389.544 367.309 Z" fill="#000000" fill-rule="nonzero" fill-opacity="1" /><path clip-path="url(#clip390)" d="M449.775 424.67 L459.544 424.67 L459.544 436.429 L449.775 436.429 L449.775 424.67 Z" fill="#000000" fill-rule="nonzero" fill-opacity="1" /><path clip-path="url(#clip390)" d="M499.914 373.466 Q492.692 373.466 489.035 380.596 Q485.423 387.679 485.423 401.938 Q485.423 416.151 489.035 423.281 Q492.692 430.364 499.914 430.364 Q507.183 430.364 510.794 423.281 Q514.451 416.151 514.451 401.938 Q514.451 387.679 510.794 380.596 Q507.183 373.466 499.914 373.466 M499.914 366.059 Q511.534 366.059 517.645 375.272 Q523.803 384.438 523.803 401.938 Q523.803 419.392 517.645 428.605 Q511.534 437.771 499.914 437.771 Q488.294 437.771 482.136 428.605 Q476.025 419.392 476.025 401.938 Q476.025 384.438 482.136 375.272 Q488.294 366.059 499.914 366.059 Z" fill="#000000" fill-rule="nonzero" fill-opacity="1" /><path clip-path="url(#clip390)" d="M337.184 162.566 L369.822 162.566 L369.822 170.437 L325.934 170.437 L325.934 162.566 Q331.258 157.057 340.424 147.798 Q349.637 138.492 351.998 135.807 Q356.489 130.761 358.248 127.289 Q360.054 123.77 360.054 120.391 Q360.054 114.881 356.165 111.409 Q352.322 107.937 346.119 107.937 Q341.721 107.937 336.813 109.465 Q331.952 110.993 326.397 114.094 L326.397 104.65 Q332.045 102.382 336.952 101.224 Q341.859 100.067 345.933 100.067 Q356.674 100.067 363.063 105.437 Q369.452 110.807 369.452 119.789 Q369.452 124.048 367.831 127.891 Q366.257 131.687 362.044 136.872 Q360.887 138.215 354.683 144.65 Q348.48 151.039 337.184 162.566 Z" fill="#000000" fill-rule="nonzero" fill-opacity="1" /><path clip-path="url(#clip390)" d="M409.452 107.474 Q402.229 107.474 398.572 114.604 Q394.961 121.687 394.961 135.946 Q394.961 150.159 398.572 157.289 Q402.229 164.372 409.452 164.372 Q416.72 164.372 420.331 157.289 Q423.989 150.159 423.989 135.946 Q423.989 121.687 420.331 114.604 Q416.72 107.474 409.452 107.474 M409.452 100.067 Q421.072 100.067 427.183 109.28 Q433.34 118.446 433.34 135.946 Q433.34 153.4 427.183 162.613 Q421.072 171.779 409.452 171.779 Q397.831 171.779 391.674 162.613 Q385.563 153.4 385.563 135.946 Q385.563 118.446 391.674 109.28 Q397.831 100.067 409.452 100.067 Z" fill="#000000" fill-rule="nonzero" fill-opacity="1" /><path clip-path="url(#clip390)" d="M449.775 158.677 L459.544 158.677 L459.544 170.437 L449.775 170.437 L449.775 158.677 Z" fill="#000000" fill-rule="nonzero" fill-opacity="1" /><path clip-path="url(#clip390)" d="M499.914 107.474 Q492.692 107.474 489.035 114.604 Q485.423 121.687 485.423 135.946 Q485.423 150.159 489.035 157.289 Q492.692 164.372 499.914 164.372 Q507.183 164.372 510.794 157.289 Q514.451 150.159 514.451 135.946 Q514.451 121.687 510.794 114.604 Q507.183 107.474 499.914 107.474 M499.914 100.067 Q511.534 100.067 517.645 109.28 Q523.803 118.446 523.803 135.946 Q523.803 153.4 517.645 162.613 Q511.534 171.779 499.914 171.779 Q488.294 171.779 482.136 162.613 Q476.025 153.4 476.025 135.946 Q476.025 118.446 482.136 109.28 Q488.294 100.067 499.914 100.067 Z" fill="#000000" fill-rule="nonzero" fill-opacity="1" /><path clip-path="url(#clip390)" d="M219.599 1187.36 Q219.599 1192.9 224.309 1196.09 Q229.02 1199.2 237.423 1199.2 Q245.698 1199.2 250.473 1196.09 Q255.183 1192.9 255.183 1187.36 Q255.183 1181.95 250.473 1178.83 Q245.698 1175.65 237.423 1175.65 Q229.084 1175.65 224.373 1178.83 Q219.599 1181.95 219.599 1187.36 M211.514 1187.36 Q211.514 1177.31 218.517 1171.39 Q225.519 1165.47 237.423 1165.47 Q249.327 1165.47 256.329 1171.45 Q263.268 1177.37 263.268 1187.36 Q263.268 1197.55 256.329 1203.47 Q249.327 1209.39 237.423 1209.39 Q225.455 1209.39 218.517 1203.47 Q211.514 1197.49 211.514 1187.36 M172.747 1253.06 Q172.747 1258.53 177.522 1261.72 Q182.232 1264.84 190.508 1264.84 Q198.91 1264.84 203.621 1261.72 Q208.332 1258.6 208.332 1253.06 Q208.332 1247.52 203.621 1244.4 Q198.91 1241.22 190.508 1241.22 Q182.296 1241.22 177.522 1244.4 Q172.747 1247.58 172.747 1253.06 M164.663 1195.58 L164.663 1185.39 L263.268 1244.85 L263.268 1255.03 L164.663 1195.58 M164.663 1253.06 Q164.663 1243 171.665 1237.02 Q178.604 1231.03 190.508 1231.03 Q202.539 1231.03 209.477 1237.02 Q216.416 1242.94 216.416 1253.06 Q216.416 1263.18 209.477 1269.1 Q202.475 1274.96 190.508 1274.96 Q178.667 1274.96 171.665 1269.04 Q164.663 1263.12 164.663 1253.06 Z" fill="#000000" fill-rule="nonzero" fill-opacity="1" /><path clip-path="url(#clip390)" d="M190.126 1104.55 L190.126 1092.83 L261.422 1092.83 L261.422 1104.55 L190.126 1104.55 M162.371 1104.55 L162.371 1092.83 L177.203 1092.83 L177.203 1104.55 L162.371 1104.55 Z" fill="#000000" fill-rule="nonzero" fill-opacity="1" /><path clip-path="url(#clip390)" d="M218.389 1009.06 L261.422 1009.06 L261.422 1020.77 L218.771 1020.77 Q208.65 1020.77 203.621 1024.72 Q198.592 1028.67 198.592 1036.56 Q198.592 1046.05 204.639 1051.52 Q210.687 1057 221.127 1057 L261.422 1057 L261.422 1068.77 L190.126 1068.77 L190.126 1057 L201.202 1057 Q194.773 1052.79 191.59 1047.13 Q188.407 1041.4 188.407 1033.95 Q188.407 1021.67 196.046 1015.36 Q203.621 1009.06 218.389 1009.06 Z" fill="#000000" fill-rule="nonzero" fill-opacity="1" /><path clip-path="url(#clip390)" d="M190.126 985.699 L190.126 973.986 L262.695 973.986 Q276.317 973.986 282.428 979.206 Q288.539 984.362 288.539 995.884 L288.539 1000.34 L278.609 1000.34 L278.609 997.221 Q278.609 990.537 275.49 988.118 Q272.434 985.699 262.695 985.699 L190.126 985.699 M162.371 985.699 L162.371 973.986 L177.203 973.986 L177.203 985.699 L162.371 985.699 Z" fill="#000000" fill-rule="nonzero" fill-opacity="1" /><path clip-path="url(#clip390)" d="M245.253 947.823 L245.253 934.392 L261.422 934.392 L261.422 947.823 L245.253 947.823 Z" fill="#000000" fill-rule="nonzero" fill-opacity="1" /><path clip-path="url(#clip390)" d="M203.812 811.088 Q195.918 806.695 192.163 800.584 Q188.407 794.473 188.407 786.198 Q188.407 775.058 196.237 769.01 Q204.003 762.963 218.389 762.963 L261.422 762.963 L261.422 774.74 L218.771 774.74 Q208.523 774.74 203.557 778.368 Q198.592 781.997 198.592 789.444 Q198.592 798.547 204.639 803.831 Q210.687 809.114 221.127 809.114 L261.422 809.114 L261.422 820.891 L218.771 820.891 Q208.459 820.891 203.557 824.519 Q198.592 828.148 198.592 835.723 Q198.592 844.699 204.703 849.982 Q210.751 855.266 221.127 855.266 L261.422 855.266 L261.422 867.042 L190.126 867.042 L190.126 855.266 L201.202 855.266 Q194.645 851.255 191.526 845.654 Q188.407 840.052 188.407 832.349 Q188.407 824.583 192.354 819.172 Q196.3 813.698 203.812 811.088 Z" fill="#000000" fill-rule="nonzero" fill-opacity="1" /><path clip-path="url(#clip390)" d="M225.583 707.199 Q225.583 721.395 228.829 726.87 Q232.076 732.344 239.905 732.344 Q246.144 732.344 249.836 728.27 Q253.464 724.132 253.464 717.066 Q253.464 707.327 246.589 701.47 Q239.651 695.55 228.193 695.55 L225.583 695.55 L225.583 707.199 M220.745 683.837 L261.422 683.837 L261.422 695.55 L250.6 695.55 Q257.093 699.561 260.212 705.544 Q263.268 711.528 263.268 720.186 Q263.268 731.135 257.157 737.628 Q250.982 744.057 240.669 744.057 Q228.638 744.057 222.527 736.036 Q216.416 727.952 216.416 711.974 L216.416 695.55 L215.27 695.55 Q207.186 695.55 202.793 700.897 Q198.337 706.181 198.337 715.793 Q198.337 721.904 199.802 727.697 Q201.266 733.49 204.194 738.837 L193.372 738.837 Q190.89 732.408 189.68 726.36 Q188.407 720.313 188.407 714.584 Q188.407 699.115 196.428 691.476 Q204.448 683.837 220.745 683.837 Z" fill="#000000" fill-rule="nonzero" fill-opacity="1" /><path clip-path="url(#clip390)" d="M192.226 614.26 L203.303 614.26 Q200.756 619.225 199.483 624.573 Q198.21 629.92 198.21 635.649 Q198.21 644.37 200.884 648.762 Q203.557 653.091 208.904 653.091 Q212.979 653.091 215.334 649.972 Q217.626 646.853 219.726 637.431 L220.617 633.421 Q223.291 620.944 228.193 615.724 Q233.031 610.441 241.752 610.441 Q251.682 610.441 257.475 618.334 Q263.268 626.164 263.268 639.914 Q263.268 645.643 262.122 651.881 Q261.04 658.056 258.812 664.931 L246.717 664.931 Q250.091 658.438 251.809 652.136 Q253.464 645.834 253.464 639.659 Q253.464 631.384 250.664 626.928 Q247.799 622.472 242.643 622.472 Q237.868 622.472 235.322 625.718 Q232.776 628.901 230.421 639.787 L229.466 643.861 Q227.174 654.746 222.463 659.584 Q217.689 664.422 209.414 664.422 Q199.356 664.422 193.881 657.292 Q188.407 650.163 188.407 637.049 Q188.407 630.556 189.362 624.827 Q190.317 619.098 192.226 614.26 Z" fill="#000000" fill-rule="nonzero" fill-opacity="1" /><path clip-path="url(#clip390)" d="M192.226 546.338 L203.303 546.338 Q200.756 551.303 199.483 556.651 Q198.21 561.998 198.21 567.727 Q198.21 576.448 200.884 580.84 Q203.557 585.169 208.904 585.169 Q212.979 585.169 215.334 582.05 Q217.626 578.93 219.726 569.509 L220.617 565.499 Q223.291 553.022 228.193 547.802 Q233.031 542.519 241.752 542.519 Q251.682 542.519 257.475 550.412 Q263.268 558.242 263.268 571.992 Q263.268 577.721 262.122 583.959 Q261.04 590.134 258.812 597.009 L246.717 597.009 Q250.091 590.516 251.809 584.214 Q253.464 577.912 253.464 571.737 Q253.464 563.462 250.664 559.006 Q247.799 554.55 242.643 554.55 Q237.868 554.55 235.322 557.796 Q232.776 560.979 230.421 571.865 L229.466 575.939 Q227.174 586.824 222.463 591.662 Q217.689 596.5 209.414 596.5 Q199.356 596.5 193.881 589.37 Q188.407 582.241 188.407 569.127 Q188.407 562.634 189.362 556.905 Q190.317 551.176 192.226 546.338 Z" fill="#000000" fill-rule="nonzero" fill-opacity="1" /><path clip-path="url(#clip390)" d="M190.126 482.426 L190.126 470.713 L261.422 470.713 L261.422 482.426 L190.126 482.426 M162.371 482.426 L162.371 470.713 L177.203 470.713 L177.203 482.426 L162.371 482.426 Z" fill="#000000" fill-rule="nonzero" fill-opacity="1" /><path clip-path="url(#clip390)" d="M218.389 386.941 L261.422 386.941 L261.422 398.654 L218.771 398.654 Q208.65 398.654 203.621 402.6 Q198.592 406.547 198.592 414.441 Q198.592 423.926 204.639 429.4 Q210.687 434.875 221.127 434.875 L261.422 434.875 L261.422 446.651 L190.126 446.651 L190.126 434.875 L201.202 434.875 Q194.773 430.673 191.59 425.008 Q188.407 419.279 188.407 411.831 Q188.407 399.545 196.046 393.243 Q203.621 386.941 218.389 386.941 Z" fill="#000000" fill-rule="nonzero" fill-opacity="1" /><path clip-path="url(#clip390)" d="M173.702 250.46 L187.261 250.46 Q181.214 256.953 178.222 264.337 Q175.23 271.658 175.23 279.933 Q175.23 296.229 185.224 304.887 Q195.155 313.544 213.997 313.544 Q232.776 313.544 242.77 304.887 Q252.701 296.229 252.701 279.933 Q252.701 271.658 249.709 264.337 Q246.717 256.953 240.669 250.46 L254.101 250.46 Q258.684 257.208 260.976 264.783 Q263.268 272.294 263.268 280.697 Q263.268 302.277 250.091 314.69 Q236.85 327.103 213.997 327.103 Q191.081 327.103 177.903 314.69 Q164.663 302.277 164.663 280.697 Q164.663 272.167 166.954 264.656 Q169.182 257.08 173.702 250.46 Z" fill="#000000" fill-rule="nonzero" fill-opacity="1" /><path clip-path="url(#clip390)" d="M169.501 173.626 L182.041 173.626 Q178.54 180.947 176.821 187.44 Q175.103 193.933 175.103 199.98 Q175.103 210.483 179.177 216.213 Q183.251 221.878 190.762 221.878 Q197.064 221.878 200.311 218.122 Q203.494 214.303 205.467 203.736 L207.058 195.97 Q209.796 181.583 216.734 174.772 Q223.609 167.897 235.195 167.897 Q249.008 167.897 256.138 177.191 Q263.268 186.421 263.268 204.309 Q263.268 211.056 261.74 218.695 Q260.212 226.27 257.22 234.418 L243.98 234.418 Q248.372 226.589 250.6 219.077 Q252.828 211.566 252.828 204.309 Q252.828 193.296 248.499 187.312 Q244.17 181.328 236.15 181.328 Q229.147 181.328 225.201 185.657 Q221.254 189.922 219.281 199.725 L217.753 207.555 Q214.888 221.942 208.777 228.371 Q202.666 234.8 191.781 234.8 Q179.177 234.8 171.92 225.952 Q164.663 217.04 164.663 201.444 Q164.663 194.76 165.872 187.821 Q167.082 180.883 169.501 173.626 Z" fill="#000000" fill-rule="nonzero" fill-opacity="1" /><path clip-path="url(#clip390)" d="M166.382 147.845 L166.382 93.2271 L177.203 93.2271 L177.203 134.986 L205.212 134.986 L205.212 97.3011 L216.034 97.3011 L216.034 134.986 L261.422 134.986 L261.422 147.845 L166.382 147.845 Z" fill="#000000" fill-rule="nonzero" fill-opacity="1" /><polyline clip-path="url(#clip392)" style="stroke:#008000; stroke-linecap:round; stroke-linejoin:round; stroke-width:8; stroke-opacity:1; fill:none" points="609.21,1199.84 668.027,1183.89 903.298,1159.95 1550.29,1175.91 2256.1,1181.23 "/>
<circle clip-path="url(#clip392)" cx="609.21" cy="1199.84" r="14.4" fill="#008000" fill-rule="evenodd" fill-opacity="1" stroke="#000000" stroke-opacity="1" stroke-width="6.4"/>
<circle clip-path="url(#clip392)" cx="668.027" cy="1183.89" r="14.4" fill="#008000" fill-rule="evenodd" fill-opacity="1" stroke="#000000" stroke-opacity="1" stroke-width="6.4"/>
<circle clip-path="url(#clip392)" cx="903.298" cy="1159.95" r="14.4" fill="#008000" fill-rule="evenodd" fill-opacity="1" stroke="#000000" stroke-opacity="1" stroke-width="6.4"/>
<circle clip-path="url(#clip392)" cx="1550.29" cy="1175.91" r="14.4" fill="#008000" fill-rule="evenodd" fill-opacity="1" stroke="#000000" stroke-opacity="1" stroke-width="6.4"/>
<circle clip-path="url(#clip392)" cx="2256.1" cy="1181.23" r="14.4" fill="#008000" fill-rule="evenodd" fill-opacity="1" stroke="#000000" stroke-opacity="1" stroke-width="6.4"/>
<path clip-path="url(#clip392)" d="M609.21 1240.32 L668.027 1006.36 L903.298 525.161 L1550.29 1185.7 L2256.1 1223.54 L2256.1 1152.97 L1550.29 1085.86 L903.298 127.862 L668.027 385.863 L609.21 1159.4  Z" fill="#0000ff" fill-rule="evenodd" fill-opacity="0.1"/>
<polyline clip-path="url(#clip392)" style="stroke:#0000ff; stroke-linecap:round; stroke-linejoin:round; stroke-width:0; stroke-opacity:0.1; fill:none" points="609.21,1240.32 668.027,1006.36 903.298,525.161 1550.29,1185.7 2256.1,1223.54 "/>
<path clip-path="url(#clip390)" d="M1795.02 444.835 L2247.32 444.835 L2247.32 133.795 L1795.02 133.795  Z" fill="#ffffff" fill-rule="evenodd" fill-opacity="1"/>
<polyline clip-path="url(#clip390)" style="stroke:#000000; stroke-linecap:round; stroke-linejoin:round; stroke-width:8; stroke-opacity:1; fill:none" points="1795.02,444.835 2247.32,444.835 2247.32,133.795 1795.02,133.795 1795.02,444.835 "/>
<polyline clip-path="url(#clip390)" style="stroke:#008000; stroke-linecap:round; stroke-linejoin:round; stroke-width:8; stroke-opacity:1; fill:none" points="1814.42,237.475 1930.8,237.475 "/>
<circle clip-path="url(#clip390)" cx="1872.61" cy="237.475" r="8.08199" fill="#008000" fill-rule="evenodd" fill-opacity="1" stroke="#000000" stroke-opacity="1" stroke-width="7.18399"/>
<path clip-path="url(#clip390)" d="M2005.94 208.239 L2005.94 218.1 Q2001.21 213.702 1995.84 211.526 Q1990.52 209.35 1984.5 209.35 Q1972.65 209.35 1966.35 216.619 Q1960.06 223.841 1960.06 237.545 Q1960.06 251.202 1966.35 258.47 Q1972.65 265.693 1984.5 265.693 Q1990.52 265.693 1995.84 263.517 Q2001.21 261.341 2005.94 256.943 L2005.94 266.711 Q2001.03 270.044 1995.52 271.711 Q1990.06 273.378 1983.94 273.378 Q1968.25 273.378 1959.22 263.794 Q1950.19 254.165 1950.19 237.545 Q1950.19 220.878 1959.22 211.295 Q1968.25 201.665 1983.94 201.665 Q1990.15 201.665 1995.61 203.332 Q2001.12 204.952 2005.94 208.239 Z" fill="#000000" fill-rule="nonzero" fill-opacity="1" /><path clip-path="url(#clip390)" d="M2053.06 221.711 L2053.06 229.767 Q2049.45 227.915 2045.56 226.989 Q2041.68 226.063 2037.51 226.063 Q2031.17 226.063 2027.97 228.008 Q2024.82 229.952 2024.82 233.841 Q2024.82 236.804 2027.09 238.517 Q2029.36 240.183 2036.21 241.711 L2039.13 242.359 Q2048.2 244.304 2052 247.869 Q2055.84 251.387 2055.84 257.73 Q2055.84 264.952 2050.1 269.165 Q2044.41 273.378 2034.41 273.378 Q2030.24 273.378 2025.7 272.544 Q2021.21 271.757 2016.21 270.137 L2016.21 261.341 Q2020.94 263.794 2025.52 265.044 Q2030.1 266.248 2034.59 266.248 Q2040.61 266.248 2043.85 264.211 Q2047.09 262.128 2047.09 258.378 Q2047.09 254.906 2044.73 253.054 Q2042.42 251.202 2034.5 249.489 L2031.54 248.794 Q2023.62 247.128 2020.1 243.702 Q2016.58 240.23 2016.58 234.211 Q2016.58 226.896 2021.77 222.915 Q2026.95 218.934 2036.49 218.934 Q2041.21 218.934 2045.38 219.628 Q2049.55 220.322 2053.06 221.711 Z" fill="#000000" fill-rule="nonzero" fill-opacity="1" /><path clip-path="url(#clip390)" d="M2113.76 243.98 L2113.76 248.146 L2074.59 248.146 Q2075.15 256.943 2079.87 261.572 Q2084.64 266.156 2093.11 266.156 Q2098.02 266.156 2102.6 264.952 Q2107.23 263.748 2111.77 261.341 L2111.77 269.396 Q2107.18 271.341 2102.37 272.359 Q2097.56 273.378 2092.6 273.378 Q2080.19 273.378 2072.93 266.156 Q2065.7 258.933 2065.7 246.619 Q2065.7 233.887 2072.56 226.434 Q2079.45 218.934 2091.12 218.934 Q2101.58 218.934 2107.65 225.693 Q2113.76 232.406 2113.76 243.98 M2105.24 241.48 Q2105.15 234.489 2101.31 230.322 Q2097.51 226.156 2091.21 226.156 Q2084.08 226.156 2079.78 230.183 Q2075.52 234.211 2074.87 241.526 L2105.24 241.48 Z" fill="#000000" fill-rule="nonzero" fill-opacity="1" /><path clip-path="url(#clip390)" d="M2157.79 228.146 Q2156.35 227.313 2154.64 226.943 Q2152.97 226.526 2150.93 226.526 Q2143.71 226.526 2139.82 231.248 Q2135.98 235.924 2135.98 244.72 L2135.98 272.035 L2127.42 272.035 L2127.42 220.184 L2135.98 220.184 L2135.98 228.239 Q2138.67 223.517 2142.97 221.248 Q2147.28 218.934 2153.43 218.934 Q2154.31 218.934 2155.38 219.072 Q2156.44 219.165 2157.74 219.397 L2157.79 228.146 Z" fill="#000000" fill-rule="nonzero" fill-opacity="1" /><path clip-path="url(#clip390)" d="M2195.1 228.146 Q2193.67 227.313 2191.95 226.943 Q2190.29 226.526 2188.25 226.526 Q2181.03 226.526 2177.14 231.248 Q2173.3 235.924 2173.3 244.72 L2173.3 272.035 L2164.73 272.035 L2164.73 220.184 L2173.3 220.184 L2173.3 228.239 Q2175.98 223.517 2180.29 221.248 Q2184.59 218.934 2190.75 218.934 Q2191.63 218.934 2192.69 219.072 Q2193.76 219.165 2195.05 219.397 L2195.1 228.146 Z" fill="#000000" fill-rule="nonzero" fill-opacity="1" /><polyline clip-path="url(#clip390)" style="stroke:#00008b; stroke-linecap:round; stroke-linejoin:round; stroke-width:8; stroke-opacity:1; fill:none" points="1814.42,341.155 1930.8,341.155 "/>
<path clip-path="url(#clip390)" d="M1990.89 333.817 Q1994.08 328.076 1998.53 325.345 Q2002.97 322.614 2008.99 322.614 Q2017.09 322.614 2021.49 328.308 Q2025.89 333.956 2025.89 344.419 L2025.89 375.715 L2017.32 375.715 L2017.32 344.697 Q2017.32 337.243 2014.69 333.632 Q2012.05 330.021 2006.63 330.021 Q2000.01 330.021 1996.17 334.419 Q1992.32 338.817 1992.32 346.41 L1992.32 375.715 L1983.76 375.715 L1983.76 344.697 Q1983.76 337.197 1981.12 333.632 Q1978.48 330.021 1972.97 330.021 Q1966.44 330.021 1962.6 334.465 Q1958.76 338.863 1958.76 346.41 L1958.76 375.715 L1950.19 375.715 L1950.19 323.864 L1958.76 323.864 L1958.76 331.919 Q1961.68 327.151 1965.75 324.882 Q1969.82 322.614 1975.43 322.614 Q1981.07 322.614 1985.01 325.484 Q1988.99 328.354 1990.89 333.817 Z" fill="#000000" fill-rule="nonzero" fill-opacity="1" /><path clip-path="url(#clip390)" d="M2062.97 329.836 Q2056.12 329.836 2052.14 335.206 Q2048.16 340.53 2048.16 349.836 Q2048.16 359.141 2052.09 364.511 Q2056.07 369.836 2062.97 369.836 Q2069.78 369.836 2073.76 364.465 Q2077.74 359.095 2077.74 349.836 Q2077.74 340.623 2073.76 335.252 Q2069.78 329.836 2062.97 329.836 M2062.97 322.614 Q2074.08 322.614 2080.43 329.836 Q2086.77 337.058 2086.77 349.836 Q2086.77 362.567 2080.43 369.836 Q2074.08 377.058 2062.97 377.058 Q2051.81 377.058 2045.47 369.836 Q2039.18 362.567 2039.18 349.836 Q2039.18 337.058 2045.47 329.836 Q2051.81 322.614 2062.97 322.614 Z" fill="#000000" fill-rule="nonzero" fill-opacity="1" /><path clip-path="url(#clip390)" d="M2135.01 331.734 L2135.01 303.678 L2143.53 303.678 L2143.53 375.715 L2135.01 375.715 L2135.01 367.937 Q2132.32 372.567 2128.2 374.835 Q2124.13 377.058 2118.39 377.058 Q2108.99 377.058 2103.06 369.558 Q2097.18 362.058 2097.18 349.836 Q2097.18 337.613 2103.06 330.114 Q2108.99 322.614 2118.39 322.614 Q2124.13 322.614 2128.2 324.882 Q2132.32 327.104 2135.01 331.734 M2105.98 349.836 Q2105.98 359.234 2109.82 364.604 Q2113.71 369.928 2120.47 369.928 Q2127.23 369.928 2131.12 364.604 Q2135.01 359.234 2135.01 349.836 Q2135.01 340.438 2131.12 335.113 Q2127.23 329.743 2120.47 329.743 Q2113.71 329.743 2109.82 335.113 Q2105.98 340.438 2105.98 349.836 Z" fill="#000000" fill-rule="nonzero" fill-opacity="1" /><path clip-path="url(#clip390)" d="M2205.42 347.66 L2205.42 351.826 L2166.26 351.826 Q2166.81 360.623 2171.54 365.252 Q2176.3 369.836 2184.78 369.836 Q2189.68 369.836 2194.27 368.632 Q2198.9 367.428 2203.43 365.021 L2203.43 373.076 Q2198.85 375.021 2194.04 376.039 Q2189.22 377.058 2184.27 377.058 Q2171.86 377.058 2164.59 369.836 Q2157.37 362.613 2157.37 350.299 Q2157.37 337.567 2164.22 330.114 Q2171.12 322.614 2182.79 322.614 Q2193.25 322.614 2199.31 329.373 Q2205.42 336.086 2205.42 347.66 M2196.91 345.16 Q2196.81 338.169 2192.97 334.002 Q2189.17 329.836 2182.88 329.836 Q2175.75 329.836 2171.44 333.863 Q2167.18 337.891 2166.54 345.206 L2196.91 345.16 Z" fill="#000000" fill-rule="nonzero" fill-opacity="1" /><path clip-path="url(#clip390)" d="M2219.41 303.678 L2227.92 303.678 L2227.92 375.715 L2219.41 375.715 L2219.41 303.678 Z" fill="#000000" fill-rule="nonzero" fill-opacity="1" /></svg>
