<?xml version="1.0" encoding="utf-8"?>
<svg xmlns="http://www.w3.org/2000/svg" xmlns:xlink="http://www.w3.org/1999/xlink" width="600" height="400" viewBox="0 0 2400 1600">
<defs>
  <clipPath id="clip200">
    <rect x="0" y="0" width="2400" height="1600"/>
  </clipPath>
</defs>
<path clip-path="url(#clip200)" d="M0 1600 L2400 1600 L2400 0 L0 0  Z" fill="#ffffff" fill-rule="evenodd" fill-opacity="1"/>
<defs>
  <clipPath id="clip201">
    <rect x="480" y="0" width="1681" height="1600"/>
  </clipPath>
</defs>
<path clip-path="url(#clip200)" d="M673.506 1273.7 L2305.51 1273.7 L2305.51 94.4882 L673.506 94.4882  Z" fill="#ffffff" fill-rule="evenodd" fill-opacity="1"/>
<defs>
  <clipPath id="clip202">
    <rect x="673" y="94" width="1633" height="1180"/>
  </clipPath>
</defs>
<polyline clip-path="url(#clip202)" style="stroke:#000000; stroke-linecap:round; stroke-linejoin:round; stroke-width:4; stroke-opacity:0.1; fill:none" points="719.695,1273.7 719.695,94.4882 "/>
<polyline clip-path="url(#clip202)" style="stroke:#000000; stroke-linecap:round; stroke-linejoin:round; stroke-width:4; stroke-opacity:0.1; fill:none" points="994.628,1273.7 994.628,94.4882 "/>
<polyline clip-path="url(#clip202)" style="stroke:#000000; stroke-linecap:round; stroke-linejoin:round; stroke-width:4; stroke-opacity:0.1; fill:none" points="1269.56,1273.7 1269.56,94.4882 "/>
<polyline clip-path="url(#clip202)" style="stroke:#000000; stroke-linecap:round; stroke-linejoin:round; stroke-width:4; stroke-opacity:0.1; fill:none" points="1544.5,1273.7 1544.5,94.4882 "/>
<polyline clip-path="url(#clip202)" style="stroke:#000000; stroke-linecap:round; stroke-linejoin:round; stroke-width:4; stroke-opacity:0.1; fill:none" points="1819.43,1273.7 1819.43,94.4882 "/>
<polyline clip-path="url(#clip202)" style="stroke:#000000; stroke-linecap:round; stroke-linejoin:round; stroke-width:4; stroke-opacity:0.1; fill:none" points="2094.36,1273.7 2094.36,94.4882 "/>
<polyline clip-path="url(#clip200)" style="stroke:#000000; stroke-linecap:round; stroke-linejoin:round; stroke-width:8; stroke-opacity:1; fill:none" points="673.506,1273.7 2305.51,1273.7 "/>
<polyline clip-path="url(#clip200)" style="stroke:#000000; stroke-linecap:round; stroke-linejoin:round; stroke-width:8; stroke-opacity:1; fill:none" points="719.695,1273.7 719.695,1254.8 "/>
<polyline clip-path="url(#clip200)" style="stroke:#000000; stroke-linecap:round; stroke-linejoin:round; stroke-width:8; stroke-opacity:1; fill:none" points="994.628,1273.7 994.628,1254.8 "/>
<polyline clip-path="url(#clip200)" style="stroke:#000000; stroke-linecap:round; stroke-linejoin:round; stroke-width:8; stroke-opacity:1; fill:none" points="1269.56,1273.7 1269.56,1254.8 "/>
<polyline clip-path="url(#clip200)" style="stroke:#000000; stroke-linecap:round; stroke-linejoin:round; stroke-width:8; stroke-opacity:1; fill:none" points="1544.5,1273.7 1544.5,1254.8 "/>
<polyline clip-path="url(#clip200)" style="stroke:#000000; stroke-linecap:round; stroke-linejoin:round; stroke-width:8; stroke-opacity:1; fill:none" points="1819.43,1273.7 1819.43,1254.8 "/>
<polyline clip-path="url(#clip200)" style="stroke:#000000; stroke-linecap:round; stroke-linejoin:round; stroke-width:8; stroke-opacity:1; fill:none" points="2094.36,1273.7 2094.36,1254.8 "/>
<path clip-path="url(#clip200)" d="M719.695 1316.33 Q712.473 1316.33 708.815 1323.46 Q705.204 1330.55 705.204 1344.81 Q705.204 1359.02 708.815 1366.15 Q712.473 1373.23 719.695 1373.23 Q726.963 1373.23 730.574 1366.15 Q734.232 1359.02 734.232 1344.81 Q734.232 1330.55 730.574 1323.46 Q726.963 1316.33 719.695 1316.33 M719.695 1308.93 Q731.315 1308.93 737.426 1318.14 Q743.584 1327.31 743.584 1344.81 Q743.584 1362.26 737.426 1371.47 Q731.315 1380.64 719.695 1380.64 Q708.075 1380.64 701.917 1371.47 Q695.806 1362.26 695.806 1344.81 Q695.806 1327.31 701.917 1318.14 Q708.075 1308.93 719.695 1308.93 Z" fill="#000000" fill-rule="nonzero" fill-opacity="1" /><path clip-path="url(#clip200)" d="M975.184 1310.18 L1011.9 1310.18 L1011.9 1318.05 L983.749 1318.05 L983.749 1334.99 Q985.786 1334.3 987.823 1333.97 Q989.86 1333.6 991.897 1333.6 Q1003.47 1333.6 1010.23 1339.94 Q1016.99 1346.29 1016.99 1357.12 Q1016.99 1368.28 1010.04 1374.48 Q1003.1 1380.64 990.462 1380.64 Q986.11 1380.64 981.573 1379.9 Q977.082 1379.16 972.267 1377.68 L972.267 1368.28 Q976.434 1370.55 980.878 1371.66 Q985.323 1372.77 990.277 1372.77 Q998.286 1372.77 1002.96 1368.56 Q1007.64 1364.34 1007.64 1357.12 Q1007.64 1349.9 1002.96 1345.68 Q998.286 1341.47 990.277 1341.47 Q986.527 1341.47 982.777 1342.31 Q979.073 1343.14 975.184 1344.9 L975.184 1310.18 Z" fill="#000000" fill-rule="nonzero" fill-opacity="1" /><path clip-path="url(#clip200)" d="M1218.94 1371.43 L1234.21 1371.43 L1234.21 1318.69 L1217.59 1322.03 L1217.59 1313.51 L1234.12 1310.18 L1243.47 1310.18 L1243.47 1371.43 L1258.75 1371.43 L1258.75 1379.3 L1218.94 1379.3 L1218.94 1371.43 Z" fill="#000000" fill-rule="nonzero" fill-opacity="1" /><path clip-path="url(#clip200)" d="M1297.64 1316.33 Q1290.42 1316.33 1286.76 1323.46 Q1283.15 1330.55 1283.15 1344.81 Q1283.15 1359.02 1286.76 1366.15 Q1290.42 1373.23 1297.64 1373.23 Q1304.91 1373.23 1308.52 1366.15 Q1312.18 1359.02 1312.18 1344.81 Q1312.18 1330.55 1308.52 1323.46 Q1304.91 1316.33 1297.64 1316.33 M1297.64 1308.93 Q1309.26 1308.93 1315.37 1318.14 Q1321.53 1327.31 1321.53 1344.81 Q1321.53 1362.26 1315.37 1371.47 Q1309.26 1380.64 1297.64 1380.64 Q1286.02 1380.64 1279.86 1371.47 Q1273.75 1362.26 1273.75 1344.81 Q1273.75 1327.31 1279.86 1318.14 Q1286.02 1308.93 1297.64 1308.93 Z" fill="#000000" fill-rule="nonzero" fill-opacity="1" /><path clip-path="url(#clip200)" d="M1494.87 1371.43 L1510.14 1371.43 L1510.14 1318.69 L1493.52 1322.03 L1493.52 1313.51 L1510.05 1310.18 L1519.4 1310.18 L1519.4 1371.43 L1534.68 1371.43 L1534.68 1379.3 L1494.87 1379.3 L1494.87 1371.43 Z" fill="#000000" fill-rule="nonzero" fill-opacity="1" /><path clip-path="url(#clip200)" d="M1553.66 1310.18 L1590.37 1310.18 L1590.37 1318.05 L1562.23 1318.05 L1562.23 1334.99 Q1564.26 1334.3 1566.3 1333.97 Q1568.34 1333.6 1570.38 1333.6 Q1581.95 1333.6 1588.71 1339.94 Q1595.47 1346.29 1595.47 1357.12 Q1595.47 1368.28 1588.52 1374.48 Q1581.58 1380.64 1568.94 1380.64 Q1564.59 1380.64 1560.05 1379.9 Q1555.56 1379.16 1550.75 1377.68 L1550.75 1368.28 Q1554.91 1370.55 1559.36 1371.66 Q1563.8 1372.77 1568.75 1372.77 Q1576.76 1372.77 1581.44 1368.56 Q1586.12 1364.34 1586.12 1357.12 Q1586.12 1349.9 1581.44 1345.68 Q1576.76 1341.47 1568.75 1341.47 Q1565 1341.47 1561.25 1342.31 Q1557.55 1343.14 1553.66 1344.9 L1553.66 1310.18 Z" fill="#000000" fill-rule="nonzero" fill-opacity="1" /><path clip-path="url(#clip200)" d="M1776.98 1371.43 L1809.61 1371.43 L1809.61 1379.3 L1765.73 1379.3 L1765.73 1371.43 Q1771.05 1365.92 1780.22 1356.66 Q1789.43 1347.35 1791.79 1344.67 Q1796.28 1339.62 1798.04 1336.15 Q1799.85 1332.63 1799.85 1329.25 Q1799.85 1323.74 1795.96 1320.27 Q1792.11 1316.8 1785.91 1316.8 Q1781.51 1316.8 1776.61 1318.32 Q1771.74 1319.85 1766.19 1322.95 L1766.19 1313.51 Q1771.84 1311.24 1776.74 1310.08 Q1781.65 1308.93 1785.73 1308.93 Q1796.47 1308.93 1802.86 1314.3 Q1809.24 1319.67 1809.24 1328.65 Q1809.24 1332.91 1807.62 1336.75 Q1806.05 1340.55 1801.84 1345.73 Q1800.68 1347.07 1794.48 1353.51 Q1788.27 1359.9 1776.98 1371.43 Z" fill="#000000" fill-rule="nonzero" fill-opacity="1" /><path clip-path="url(#clip200)" d="M1849.24 1316.33 Q1842.02 1316.33 1838.36 1323.46 Q1834.75 1330.55 1834.75 1344.81 Q1834.75 1359.02 1838.36 1366.15 Q1842.02 1373.23 1849.24 1373.23 Q1856.51 1373.23 1860.12 1366.15 Q1863.78 1359.02 1863.78 1344.81 Q1863.78 1330.55 1860.12 1323.46 Q1856.51 1316.33 1849.24 1316.33 M1849.24 1308.93 Q1860.86 1308.93 1866.98 1318.14 Q1873.13 1327.31 1873.13 1344.81 Q1873.13 1362.26 1866.98 1371.47 Q1860.86 1380.64 1849.24 1380.64 Q1837.62 1380.64 1831.47 1371.47 Q1825.36 1362.26 1825.36 1344.81 Q1825.36 1327.31 1831.47 1318.14 Q1837.62 1308.93 1849.24 1308.93 Z" fill="#000000" fill-rule="nonzero" fill-opacity="1" /><path clip-path="url(#clip200)" d="M2052.9 1371.43 L2085.54 1371.43 L2085.54 1379.3 L2041.65 1379.3 L2041.65 1371.43 Q2046.98 1365.92 2056.15 1356.66 Q2065.36 1347.35 2067.72 1344.67 Q2072.21 1339.62 2073.97 1336.15 Q2075.77 1332.63 2075.77 1329.25 Q2075.77 1323.74 2071.89 1320.27 Q2068.04 1316.8 2061.84 1316.8 Q2057.44 1316.8 2052.53 1318.32 Q2047.67 1319.85 2042.12 1322.95 L2042.12 1313.51 Q2047.77 1311.24 2052.67 1310.08 Q2057.58 1308.93 2061.65 1308.93 Q2072.4 1308.93 2078.78 1314.3 Q2085.17 1319.67 2085.17 1328.65 Q2085.17 1332.91 2083.55 1336.75 Q2081.98 1340.55 2077.77 1345.73 Q2076.61 1347.07 2070.4 1353.51 Q2064.2 1359.9 2052.9 1371.43 Z" fill="#000000" fill-rule="nonzero" fill-opacity="1" /><path clip-path="url(#clip200)" d="M2105.27 1310.18 L2141.98 1310.18 L2141.98 1318.05 L2113.83 1318.05 L2113.83 1334.99 Q2115.87 1334.3 2117.9 1333.97 Q2119.94 1333.6 2121.98 1333.6 Q2133.55 1333.6 2140.31 1339.94 Q2147.07 1346.29 2147.07 1357.12 Q2147.07 1368.28 2140.13 1374.48 Q2133.18 1380.64 2120.54 1380.64 Q2116.19 1380.64 2111.65 1379.9 Q2107.16 1379.16 2102.35 1377.68 L2102.35 1368.28 Q2106.52 1370.55 2110.96 1371.66 Q2115.4 1372.77 2120.36 1372.77 Q2128.37 1372.77 2133.04 1368.56 Q2137.72 1364.34 2137.72 1357.12 Q2137.72 1349.9 2133.04 1345.68 Q2128.37 1341.47 2120.36 1341.47 Q2116.61 1341.47 2112.86 1342.31 Q2109.15 1343.14 2105.27 1344.9 L2105.27 1310.18 Z" fill="#000000" fill-rule="nonzero" fill-opacity="1" /><path clip-path="url(#clip200)" d="M1375.05 1484.39 L1375.05 1527.42 L1363.34 1527.42 L1363.34 1484.77 Q1363.34 1474.65 1359.39 1469.62 Q1355.45 1464.59 1347.55 1464.59 Q1338.07 1464.59 1332.59 1470.64 Q1327.12 1476.69 1327.12 1487.13 L1327.12 1527.42 L1315.34 1527.42 L1315.34 1428.37 L1327.12 1428.37 L1327.12 1467.2 Q1331.32 1460.77 1336.99 1457.59 Q1342.72 1454.41 1350.16 1454.41 Q1362.45 1454.41 1368.75 1462.05 Q1375.05 1469.62 1375.05 1484.39 Z" fill="#000000" fill-rule="nonzero" fill-opacity="1" /><path clip-path="url(#clip200)" d="M1426.04 1464.34 Q1416.62 1464.34 1411.15 1471.72 Q1405.67 1479.04 1405.67 1491.84 Q1405.67 1504.63 1411.08 1512.02 Q1416.56 1519.34 1426.04 1519.34 Q1435.4 1519.34 1440.87 1511.96 Q1446.35 1504.57 1446.35 1491.84 Q1446.35 1479.17 1440.87 1471.79 Q1435.4 1464.34 1426.04 1464.34 M1426.04 1454.41 Q1441.32 1454.41 1450.04 1464.34 Q1458.76 1474.27 1458.76 1491.84 Q1458.76 1509.35 1450.04 1519.34 Q1441.32 1529.27 1426.04 1529.27 Q1410.7 1529.27 1401.98 1519.34 Q1393.32 1509.35 1393.32 1491.84 Q1393.32 1474.27 1401.98 1464.34 Q1410.7 1454.41 1426.04 1454.41 Z" fill="#000000" fill-rule="nonzero" fill-opacity="1" /><path clip-path="url(#clip200)" d="M1476.97 1499.29 L1476.97 1456.13 L1488.68 1456.13 L1488.68 1498.84 Q1488.68 1508.96 1492.63 1514.06 Q1496.57 1519.08 1504.47 1519.08 Q1513.95 1519.08 1519.43 1513.04 Q1524.97 1506.99 1524.97 1496.55 L1524.97 1456.13 L1536.68 1456.13 L1536.68 1527.42 L1524.97 1527.42 L1524.97 1516.47 Q1520.7 1522.97 1515.04 1526.15 Q1509.43 1529.27 1501.99 1529.27 Q1489.7 1529.27 1483.33 1521.63 Q1476.97 1513.99 1476.97 1499.29 M1506.44 1454.41 L1506.44 1454.41 Z" fill="#000000" fill-rule="nonzero" fill-opacity="1" /><path clip-path="url(#clip200)" d="M1602.12 1467.08 Q1600.14 1465.93 1597.79 1465.42 Q1595.5 1464.85 1592.7 1464.85 Q1582.77 1464.85 1577.42 1471.34 Q1572.14 1477.77 1572.14 1489.87 L1572.14 1527.42 L1560.36 1527.42 L1560.36 1456.13 L1572.14 1456.13 L1572.14 1467.2 Q1575.83 1460.71 1581.75 1457.59 Q1587.67 1454.41 1596.13 1454.41 Q1597.34 1454.41 1598.81 1454.6 Q1600.27 1454.73 1602.05 1455.05 L1602.12 1467.08 Z" fill="#000000" fill-rule="nonzero" fill-opacity="1" /><path clip-path="url(#clip200)" d="M1659.86 1458.23 L1659.86 1469.3 Q1654.89 1466.76 1649.54 1465.49 Q1644.2 1464.21 1638.47 1464.21 Q1629.75 1464.21 1625.35 1466.89 Q1621.02 1469.56 1621.02 1474.91 Q1621.02 1478.98 1624.14 1481.34 Q1627.26 1483.63 1636.68 1485.73 L1640.69 1486.62 Q1653.17 1489.29 1658.39 1494.19 Q1663.67 1499.03 1663.67 1507.75 Q1663.67 1517.68 1655.78 1523.48 Q1647.95 1529.27 1634.2 1529.27 Q1628.47 1529.27 1622.23 1528.12 Q1616.06 1527.04 1609.18 1524.81 L1609.18 1512.72 Q1615.68 1516.09 1621.98 1517.81 Q1628.28 1519.47 1634.46 1519.47 Q1642.73 1519.47 1647.19 1516.67 Q1651.64 1513.8 1651.64 1508.64 Q1651.64 1503.87 1648.4 1501.32 Q1645.21 1498.78 1634.33 1496.42 L1630.25 1495.47 Q1619.37 1493.18 1614.53 1488.47 Q1609.69 1483.69 1609.69 1475.42 Q1609.69 1465.36 1616.82 1459.88 Q1623.95 1454.41 1637.07 1454.41 Q1643.56 1454.41 1649.29 1455.36 Q1655.02 1456.32 1659.86 1458.23 Z" fill="#000000" fill-rule="nonzero" fill-opacity="1" /><polyline clip-path="url(#clip202)" style="stroke:#000000; stroke-linecap:round; stroke-linejoin:round; stroke-width:4; stroke-opacity:0.1; fill:none" points="673.506,1232.44 2305.51,1232.44 "/>
<polyline clip-path="url(#clip202)" style="stroke:#000000; stroke-linecap:round; stroke-linejoin:round; stroke-width:4; stroke-opacity:0.1; fill:none" points="673.506,959.063 2305.51,959.063 "/>
<polyline clip-path="url(#clip202)" style="stroke:#000000; stroke-linecap:round; stroke-linejoin:round; stroke-width:4; stroke-opacity:0.1; fill:none" points="673.506,685.688 2305.51,685.688 "/>
<polyline clip-path="url(#clip202)" style="stroke:#000000; stroke-linecap:round; stroke-linejoin:round; stroke-width:4; stroke-opacity:0.1; fill:none" points="673.506,412.313 2305.51,412.313 "/>
<polyline clip-path="url(#clip202)" style="stroke:#000000; stroke-linecap:round; stroke-linejoin:round; stroke-width:4; stroke-opacity:0.1; fill:none" points="673.506,138.938 2305.51,138.938 "/>
<polyline clip-path="url(#clip200)" style="stroke:#000000; stroke-linecap:round; stroke-linejoin:round; stroke-width:8; stroke-opacity:1; fill:none" points="673.506,1273.7 673.506,94.4882 "/>
<polyline clip-path="url(#clip200)" style="stroke:#000000; stroke-linecap:round; stroke-linejoin:round; stroke-width:8; stroke-opacity:1; fill:none" points="673.506,1232.44 692.404,1232.44 "/>
<polyline clip-path="url(#clip200)" style="stroke:#000000; stroke-linecap:round; stroke-linejoin:round; stroke-width:8; stroke-opacity:1; fill:none" points="673.506,959.063 692.404,959.063 "/>
<polyline clip-path="url(#clip200)" style="stroke:#000000; stroke-linecap:round; stroke-linejoin:round; stroke-width:8; stroke-opacity:1; fill:none" points="673.506,685.688 692.404,685.688 "/>
<polyline clip-path="url(#clip200)" style="stroke:#000000; stroke-linecap:round; stroke-linejoin:round; stroke-width:8; stroke-opacity:1; fill:none" points="673.506,412.313 692.404,412.313 "/>
<polyline clip-path="url(#clip200)" style="stroke:#000000; stroke-linecap:round; stroke-linejoin:round; stroke-width:8; stroke-opacity:1; fill:none" points="673.506,138.938 692.404,138.938 "/>
<path clip-path="url(#clip200)" d="M523.155 1204.04 Q515.933 1204.04 512.275 1211.16 Q508.664 1218.25 508.664 1232.51 Q508.664 1246.72 512.275 1253.85 Q515.933 1260.93 523.155 1260.93 Q530.423 1260.93 534.034 1253.85 Q537.692 1246.72 537.692 1232.51 Q537.692 1218.25 534.034 1211.16 Q530.423 1204.04 523.155 1204.04 M523.155 1196.63 Q534.775 1196.63 540.886 1205.84 Q547.043 1215.01 547.043 1232.51 Q547.043 1249.96 540.886 1259.17 Q534.775 1268.34 523.155 1268.34 Q511.534 1268.34 505.377 1259.17 Q499.266 1249.96 499.266 1232.51 Q499.266 1215.01 505.377 1205.84 Q511.534 1196.63 523.155 1196.63 Z" fill="#000000" fill-rule="nonzero" fill-opacity="1" /><path clip-path="url(#clip200)" d="M563.479 1255.24 L573.247 1255.24 L573.247 1267 L563.479 1267 L563.479 1255.24 Z" fill="#000000" fill-rule="nonzero" fill-opacity="1" /><path clip-path="url(#clip200)" d="M613.617 1204.04 Q606.395 1204.04 602.738 1211.16 Q599.127 1218.25 599.127 1232.51 Q599.127 1246.72 602.738 1253.85 Q606.395 1260.93 613.617 1260.93 Q620.886 1260.93 624.497 1253.85 Q628.154 1246.72 628.154 1232.51 Q628.154 1218.25 624.497 1211.16 Q620.886 1204.04 613.617 1204.04 M613.617 1196.63 Q625.238 1196.63 631.349 1205.84 Q637.506 1215.01 637.506 1232.51 Q637.506 1249.96 631.349 1259.17 Q625.238 1268.34 613.617 1268.34 Q601.997 1268.34 595.84 1259.17 Q589.728 1249.96 589.728 1232.51 Q589.728 1215.01 595.84 1205.84 Q601.997 1196.63 613.617 1196.63 Z" fill="#000000" fill-rule="nonzero" fill-opacity="1" /><path clip-path="url(#clip200)" d="M450.887 985.753 L483.525 985.753 L483.525 993.623 L439.637 993.623 L439.637 985.753 Q444.961 980.243 454.127 970.984 Q463.34 961.679 465.701 958.993 Q470.192 953.947 471.951 950.475 Q473.757 946.956 473.757 943.577 Q473.757 938.068 469.868 934.595 Q466.025 931.123 459.822 931.123 Q455.424 931.123 450.516 932.651 Q445.655 934.179 440.1 937.281 L440.1 927.836 Q445.748 925.568 450.655 924.41 Q455.562 923.253 459.637 923.253 Q470.377 923.253 476.766 928.623 Q483.155 933.994 483.155 942.975 Q483.155 947.234 481.535 951.077 Q479.961 954.873 475.748 960.058 Q474.59 961.401 468.387 967.836 Q462.183 974.225 450.887 985.753 Z" fill="#000000" fill-rule="nonzero" fill-opacity="1" /><path clip-path="url(#clip200)" d="M503.247 924.503 L539.96 924.503 L539.96 932.373 L511.812 932.373 L511.812 949.318 Q513.849 948.623 515.886 948.299 Q517.923 947.929 519.96 947.929 Q531.534 947.929 538.294 954.271 Q545.053 960.614 545.053 971.447 Q545.053 982.604 538.108 988.808 Q531.164 994.965 518.525 994.965 Q514.173 994.965 509.636 994.225 Q505.146 993.484 500.331 992.003 L500.331 982.604 Q504.497 984.873 508.942 985.984 Q513.386 987.095 518.34 987.095 Q526.349 987.095 531.025 982.882 Q535.701 978.669 535.701 971.447 Q535.701 964.225 531.025 960.012 Q526.349 955.799 518.34 955.799 Q514.59 955.799 510.84 956.632 Q507.136 957.466 503.247 959.225 L503.247 924.503 Z" fill="#000000" fill-rule="nonzero" fill-opacity="1" /><path clip-path="url(#clip200)" d="M563.479 981.864 L573.247 981.864 L573.247 993.623 L563.479 993.623 L563.479 981.864 Z" fill="#000000" fill-rule="nonzero" fill-opacity="1" /><path clip-path="url(#clip200)" d="M613.617 930.66 Q606.395 930.66 602.738 937.79 Q599.127 944.873 599.127 959.132 Q599.127 973.345 602.738 980.475 Q606.395 987.558 613.617 987.558 Q620.886 987.558 624.497 980.475 Q628.154 973.345 628.154 959.132 Q628.154 944.873 624.497 937.79 Q620.886 930.66 613.617 930.66 M613.617 923.253 Q625.238 923.253 631.349 932.466 Q637.506 941.632 637.506 959.132 Q637.506 976.586 631.349 985.799 Q625.238 994.965 613.617 994.965 Q601.997 994.965 595.84 985.799 Q589.728 976.586 589.728 959.132 Q589.728 941.632 595.84 932.466 Q601.997 923.253 613.617 923.253 Z" fill="#000000" fill-rule="nonzero" fill-opacity="1" /><path clip-path="url(#clip200)" d="M442.924 651.128 L479.636 651.128 L479.636 658.998 L451.488 658.998 L451.488 675.943 Q453.525 675.248 455.562 674.924 Q457.6 674.554 459.637 674.554 Q471.211 674.554 477.97 680.896 Q484.729 687.239 484.729 698.072 Q484.729 709.229 477.785 715.433 Q470.84 721.59 458.201 721.59 Q453.85 721.59 449.313 720.85 Q444.822 720.109 440.007 718.628 L440.007 709.229 Q444.174 711.498 448.618 712.609 Q453.063 713.72 458.016 713.72 Q466.025 713.72 470.701 709.507 Q475.377 705.294 475.377 698.072 Q475.377 690.85 470.701 686.637 Q466.025 682.424 458.016 682.424 Q454.266 682.424 450.516 683.257 Q446.813 684.091 442.924 685.85 L442.924 651.128 Z" fill="#000000" fill-rule="nonzero" fill-opacity="1" /><path clip-path="url(#clip200)" d="M523.155 657.285 Q515.933 657.285 512.275 664.415 Q508.664 671.498 508.664 685.757 Q508.664 699.97 512.275 707.1 Q515.933 714.183 523.155 714.183 Q530.423 714.183 534.034 707.1 Q537.692 699.97 537.692 685.757 Q537.692 671.498 534.034 664.415 Q530.423 657.285 523.155 657.285 M523.155 649.878 Q534.775 649.878 540.886 659.091 Q547.043 668.257 547.043 685.757 Q547.043 703.211 540.886 712.424 Q534.775 721.59 523.155 721.59 Q511.534 721.59 505.377 712.424 Q499.266 703.211 499.266 685.757 Q499.266 668.257 505.377 659.091 Q511.534 649.878 523.155 649.878 Z" fill="#000000" fill-rule="nonzero" fill-opacity="1" /><path clip-path="url(#clip200)" d="M563.479 708.489 L573.247 708.489 L573.247 720.248 L563.479 720.248 L563.479 708.489 Z" fill="#000000" fill-rule="nonzero" fill-opacity="1" /><path clip-path="url(#clip200)" d="M613.617 657.285 Q606.395 657.285 602.738 664.415 Q599.127 671.498 599.127 685.757 Q599.127 699.97 602.738 707.1 Q606.395 714.183 613.617 714.183 Q620.886 714.183 624.497 707.1 Q628.154 699.97 628.154 685.757 Q628.154 671.498 624.497 664.415 Q620.886 657.285 613.617 657.285 M613.617 649.878 Q625.238 649.878 631.349 659.091 Q637.506 668.257 637.506 685.757 Q637.506 703.211 631.349 712.424 Q625.238 721.59 613.617 721.59 Q601.997 721.59 595.84 712.424 Q589.728 703.211 589.728 685.757 Q589.728 668.257 595.84 659.091 Q601.997 649.878 613.617 649.878 Z" fill="#000000" fill-rule="nonzero" fill-opacity="1" /><path clip-path="url(#clip200)" d="M440.47 377.753 L484.914 377.753 L484.914 381.734 L459.822 446.873 L450.053 446.873 L473.664 385.623 L440.47 385.623 L440.47 377.753 Z" fill="#000000" fill-rule="nonzero" fill-opacity="1" /><path clip-path="url(#clip200)" d="M503.247 377.753 L539.96 377.753 L539.96 385.623 L511.812 385.623 L511.812 402.568 Q513.849 401.873 515.886 401.549 Q517.923 401.179 519.96 401.179 Q531.534 401.179 538.294 407.521 Q545.053 413.864 545.053 424.697 Q545.053 435.854 538.108 442.058 Q531.164 448.215 518.525 448.215 Q514.173 448.215 509.636 447.475 Q505.146 446.734 500.331 445.253 L500.331 435.854 Q504.497 438.123 508.942 439.234 Q513.386 440.345 518.34 440.345 Q526.349 440.345 531.025 436.132 Q535.701 431.919 535.701 424.697 Q535.701 417.475 531.025 413.262 Q526.349 409.049 518.34 409.049 Q514.59 409.049 510.84 409.882 Q507.136 410.716 503.247 412.475 L503.247 377.753 Z" fill="#000000" fill-rule="nonzero" fill-opacity="1" /><path clip-path="url(#clip200)" d="M563.479 435.114 L573.247 435.114 L573.247 446.873 L563.479 446.873 L563.479 435.114 Z" fill="#000000" fill-rule="nonzero" fill-opacity="1" /><path clip-path="url(#clip200)" d="M613.617 383.91 Q606.395 383.91 602.738 391.04 Q599.127 398.123 599.127 412.382 Q599.127 426.595 602.738 433.725 Q606.395 440.808 613.617 440.808 Q620.886 440.808 624.497 433.725 Q628.154 426.595 628.154 412.382 Q628.154 398.123 624.497 391.04 Q620.886 383.91 613.617 383.91 M613.617 376.503 Q625.238 376.503 631.349 385.716 Q637.506 394.882 637.506 412.382 Q637.506 429.836 631.349 439.049 Q625.238 448.215 613.617 448.215 Q601.997 448.215 595.84 439.049 Q589.728 429.836 589.728 412.382 Q589.728 394.882 595.84 385.716 Q601.997 376.503 613.617 376.503 Z" fill="#000000" fill-rule="nonzero" fill-opacity="1" /><path clip-path="url(#clip200)" d="M384.128 165.628 L399.405 165.628 L399.405 112.896 L382.785 116.23 L382.785 107.711 L399.313 104.378 L408.665 104.378 L408.665 165.628 L423.942 165.628 L423.942 173.498 L384.128 173.498 L384.128 165.628 Z" fill="#000000" fill-rule="nonzero" fill-opacity="1" /><path clip-path="url(#clip200)" d="M462.831 110.535 Q455.609 110.535 451.951 117.665 Q448.34 124.748 448.34 139.007 Q448.34 153.22 451.951 160.35 Q455.609 167.433 462.831 167.433 Q470.099 167.433 473.711 160.35 Q477.368 153.22 477.368 139.007 Q477.368 124.748 473.711 117.665 Q470.099 110.535 462.831 110.535 M462.831 103.128 Q474.451 103.128 480.562 112.341 Q486.72 121.507 486.72 139.007 Q486.72 156.461 480.562 165.674 Q474.451 174.84 462.831 174.84 Q451.211 174.84 445.053 165.674 Q438.942 156.461 438.942 139.007 Q438.942 121.507 445.053 112.341 Q451.211 103.128 462.831 103.128 Z" fill="#000000" fill-rule="nonzero" fill-opacity="1" /><path clip-path="url(#clip200)" d="M523.155 110.535 Q515.933 110.535 512.275 117.665 Q508.664 124.748 508.664 139.007 Q508.664 153.22 512.275 160.35 Q515.933 167.433 523.155 167.433 Q530.423 167.433 534.034 160.35 Q537.692 153.22 537.692 139.007 Q537.692 124.748 534.034 117.665 Q530.423 110.535 523.155 110.535 M523.155 103.128 Q534.775 103.128 540.886 112.341 Q547.043 121.507 547.043 139.007 Q547.043 156.461 540.886 165.674 Q534.775 174.84 523.155 174.84 Q511.534 174.84 505.377 165.674 Q499.266 156.461 499.266 139.007 Q499.266 121.507 505.377 112.341 Q511.534 103.128 523.155 103.128 Z" fill="#000000" fill-rule="nonzero" fill-opacity="1" /><path clip-path="url(#clip200)" d="M563.479 161.739 L573.247 161.739 L573.247 173.498 L563.479 173.498 L563.479 161.739 Z" fill="#000000" fill-rule="nonzero" fill-opacity="1" /><path clip-path="url(#clip200)" d="M613.617 110.535 Q606.395 110.535 602.738 117.665 Q599.127 124.748 599.127 139.007 Q599.127 153.22 602.738 160.35 Q606.395 167.433 613.617 167.433 Q620.886 167.433 624.497 160.35 Q628.154 153.22 628.154 139.007 Q628.154 124.748 624.497 117.665 Q620.886 110.535 613.617 110.535 M613.617 103.128 Q625.238 103.128 631.349 112.341 Q637.506 121.507 637.506 139.007 Q637.506 156.461 631.349 165.674 Q625.238 174.84 613.617 174.84 Q601.997 174.84 595.84 165.674 Q589.728 156.461 589.728 139.007 Q589.728 121.507 595.84 112.341 Q601.997 103.128 613.617 103.128 Z" fill="#000000" fill-rule="nonzero" fill-opacity="1" /><path clip-path="url(#clip200)" d="M276.45 1103.59 Q276.45 1109.13 281.161 1112.31 Q285.872 1115.43 294.274 1115.43 Q302.55 1115.43 307.324 1112.31 Q312.035 1109.13 312.035 1103.59 Q312.035 1098.18 307.324 1095.06 Q302.55 1091.88 294.274 1091.88 Q285.935 1091.88 281.225 1095.06 Q276.45 1098.18 276.45 1103.59 M268.366 1103.59 Q268.366 1093.53 275.368 1087.61 Q282.371 1081.69 294.274 1081.69 Q306.178 1081.69 313.181 1087.68 Q320.119 1093.6 320.119 1103.59 Q320.119 1113.78 313.181 1119.7 Q306.178 1125.62 294.274 1125.62 Q282.307 1125.62 275.368 1119.7 Q268.366 1113.71 268.366 1103.59 M229.599 1169.29 Q229.599 1174.76 234.373 1177.94 Q239.084 1181.06 247.359 1181.06 Q255.762 1181.06 260.472 1177.94 Q265.183 1174.82 265.183 1169.29 Q265.183 1163.75 260.472 1160.63 Q255.762 1157.45 247.359 1157.45 Q239.147 1157.45 234.373 1160.63 Q229.599 1163.81 229.599 1169.29 M221.514 1111.8 L221.514 1101.62 L320.119 1161.07 L320.119 1171.26 L221.514 1111.8 M221.514 1169.29 Q221.514 1159.23 228.517 1153.24 Q235.455 1147.26 247.359 1147.26 Q259.39 1147.26 266.329 1153.24 Q273.268 1159.16 273.268 1169.29 Q273.268 1179.41 266.329 1185.33 Q259.327 1191.18 247.359 1191.18 Q235.519 1191.18 228.517 1185.26 Q221.514 1179.34 221.514 1169.29 Z" fill="#000000" fill-rule="nonzero" fill-opacity="1" /><path clip-path="url(#clip200)" d="M246.977 1020.77 L246.977 1009.06 L318.273 1009.06 L318.273 1020.77 L246.977 1020.77 M219.223 1020.77 L219.223 1009.06 L234.055 1009.06 L234.055 1020.77 L219.223 1020.77 Z" fill="#000000" fill-rule="nonzero" fill-opacity="1" /><path clip-path="url(#clip200)" d="M275.241 925.289 L318.273 925.289 L318.273 937.001 L275.623 937.001 Q265.501 937.001 260.472 940.948 Q255.444 944.895 255.444 952.788 Q255.444 962.273 261.491 967.748 Q267.538 973.222 277.978 973.222 L318.273 973.222 L318.273 984.999 L246.977 984.999 L246.977 973.222 L258.054 973.222 Q251.624 969.021 248.441 963.356 Q245.258 957.626 245.258 950.179 Q245.258 937.893 252.897 931.591 Q260.472 925.289 275.241 925.289 Z" fill="#000000" fill-rule="nonzero" fill-opacity="1" /><path clip-path="url(#clip200)" d="M219.223 865.833 L228.962 865.833 L228.962 877.037 Q228.962 883.339 231.509 885.821 Q234.055 888.24 240.675 888.24 L246.977 888.24 L246.977 868.952 L256.08 868.952 L256.08 888.24 L318.273 888.24 L318.273 900.017 L256.08 900.017 L256.08 911.22 L246.977 911.22 L246.977 900.017 L242.012 900.017 Q230.108 900.017 224.697 894.479 Q219.223 888.94 219.223 876.909 L219.223 865.833 Z" fill="#000000" fill-rule="nonzero" fill-opacity="1" /><path clip-path="url(#clip200)" d="M290.137 857.239 L246.977 857.239 L246.977 845.526 L289.691 845.526 Q299.813 845.526 304.905 841.58 Q309.934 837.633 309.934 829.739 Q309.934 820.254 303.887 814.78 Q297.839 809.242 287.399 809.242 L246.977 809.242 L246.977 797.529 L318.273 797.529 L318.273 809.242 L307.324 809.242 Q313.817 813.507 317 819.172 Q320.119 824.774 320.119 832.222 Q320.119 844.508 312.48 850.873 Q304.841 857.239 290.137 857.239 M245.258 827.766 L245.258 827.766 Z" fill="#000000" fill-rule="nonzero" fill-opacity="1" /><path clip-path="url(#clip200)" d="M249.078 727.952 L260.154 727.952 Q257.608 732.917 256.335 738.264 Q255.062 743.611 255.062 749.34 Q255.062 758.061 257.735 762.454 Q260.409 766.782 265.756 766.782 Q269.83 766.782 272.185 763.663 Q274.477 760.544 276.578 751.123 L277.469 747.112 Q280.143 734.636 285.044 729.416 Q289.882 724.132 298.603 724.132 Q308.534 724.132 314.326 732.026 Q320.119 739.856 320.119 753.605 Q320.119 759.335 318.973 765.573 Q317.891 771.748 315.663 778.623 L303.568 778.623 Q306.942 772.13 308.661 765.828 Q310.316 759.526 310.316 753.351 Q310.316 745.075 307.515 740.619 Q304.65 736.163 299.494 736.163 Q294.72 736.163 292.174 739.41 Q289.627 742.593 287.272 753.478 L286.317 757.552 Q284.026 768.438 279.315 773.276 Q274.541 778.113 266.265 778.113 Q256.207 778.113 250.733 770.984 Q245.258 763.854 245.258 750.741 Q245.258 744.248 246.213 738.519 Q247.168 732.79 249.078 727.952 Z" fill="#000000" fill-rule="nonzero" fill-opacity="1" /><path clip-path="url(#clip200)" d="M279.697 644.497 L285.426 644.497 L285.426 698.351 Q297.521 697.587 303.887 691.094 Q310.189 684.538 310.189 672.888 Q310.189 666.141 308.534 659.839 Q306.878 653.473 303.568 647.235 L314.645 647.235 Q317.318 653.537 318.719 660.157 Q320.119 666.777 320.119 673.589 Q320.119 690.649 310.189 700.643 Q300.258 710.573 283.325 710.573 Q265.82 710.573 255.571 701.152 Q245.258 691.667 245.258 675.626 Q245.258 661.239 254.552 652.9 Q263.783 644.497 279.697 644.497 M276.259 656.21 Q266.647 656.337 260.918 661.621 Q255.189 666.841 255.189 675.498 Q255.189 685.301 260.727 691.222 Q266.265 697.078 276.323 697.969 L276.259 656.21 Z" fill="#000000" fill-rule="nonzero" fill-opacity="1" /><path clip-path="url(#clip200)" d="M257.799 578.358 L219.223 578.358 L219.223 566.645 L318.273 566.645 L318.273 578.358 L307.579 578.358 Q313.944 582.05 317.064 587.715 Q320.119 593.317 320.119 601.21 Q320.119 614.133 309.807 622.281 Q299.494 630.365 282.689 630.365 Q265.883 630.365 255.571 622.281 Q245.258 614.133 245.258 601.21 Q245.258 593.317 248.378 587.715 Q251.433 582.05 257.799 578.358 M282.689 618.271 Q295.611 618.271 302.995 612.987 Q310.316 607.64 310.316 598.346 Q310.316 589.052 302.995 583.705 Q295.611 578.358 282.689 578.358 Q269.766 578.358 262.446 583.705 Q255.062 589.052 255.062 598.346 Q255.062 607.64 262.446 612.987 Q269.766 618.271 282.689 618.271 Z" fill="#000000" fill-rule="nonzero" fill-opacity="1" /><path clip-path="url(#clip200)" d="M260.663 445.569 Q252.77 441.177 249.014 435.066 Q245.258 428.954 245.258 420.679 Q245.258 409.539 253.088 403.492 Q260.854 397.444 275.241 397.444 L318.273 397.444 L318.273 409.221 L275.623 409.221 Q265.374 409.221 260.409 412.849 Q255.444 416.478 255.444 423.926 Q255.444 433.028 261.491 438.312 Q267.538 443.596 277.978 443.596 L318.273 443.596 L318.273 455.372 L275.623 455.372 Q265.31 455.372 260.409 459.001 Q255.444 462.629 255.444 470.204 Q255.444 479.18 261.555 484.463 Q267.602 489.747 277.978 489.747 L318.273 489.747 L318.273 501.524 L246.977 501.524 L246.977 489.747 L258.054 489.747 Q251.497 485.737 248.378 480.135 Q245.258 474.533 245.258 466.83 Q245.258 459.064 249.205 453.653 Q253.152 448.179 260.663 445.569 Z" fill="#000000" fill-rule="nonzero" fill-opacity="1" /><path clip-path="url(#clip200)" d="M282.434 341.681 Q282.434 355.876 285.681 361.351 Q288.927 366.825 296.757 366.825 Q302.995 366.825 306.688 362.751 Q310.316 358.613 310.316 351.547 Q310.316 341.808 303.441 335.951 Q296.502 330.031 285.044 330.031 L282.434 330.031 L282.434 341.681 M277.596 318.318 L318.273 318.318 L318.273 330.031 L307.451 330.031 Q313.944 334.042 317.064 340.026 Q320.119 346.009 320.119 354.667 Q320.119 365.616 314.008 372.109 Q307.833 378.538 297.521 378.538 Q285.49 378.538 279.379 370.517 Q273.268 362.433 273.268 346.455 L273.268 330.031 L272.122 330.031 Q264.037 330.031 259.645 335.379 Q255.189 340.662 255.189 350.274 Q255.189 356.385 256.653 362.178 Q258.117 367.971 261.045 373.318 L250.224 373.318 Q247.741 366.889 246.532 360.841 Q245.258 354.794 245.258 349.065 Q245.258 333.596 253.279 325.957 Q261.3 318.318 277.596 318.318 Z" fill="#000000" fill-rule="nonzero" fill-opacity="1" /><path clip-path="url(#clip200)" d="M249.078 248.741 L260.154 248.741 Q257.608 253.707 256.335 259.054 Q255.062 264.401 255.062 270.13 Q255.062 278.851 257.735 283.243 Q260.409 287.572 265.756 287.572 Q269.83 287.572 272.185 284.453 Q274.477 281.334 276.578 271.912 L277.469 267.902 Q280.143 255.425 285.044 250.205 Q289.882 244.922 298.603 244.922 Q308.534 244.922 314.326 252.815 Q320.119 260.645 320.119 274.395 Q320.119 280.124 318.973 286.363 Q317.891 292.537 315.663 299.412 L303.568 299.412 Q306.942 292.919 308.661 286.617 Q310.316 280.315 310.316 274.14 Q310.316 265.865 307.515 261.409 Q304.65 256.953 299.494 256.953 Q294.72 256.953 292.174 260.2 Q289.627 263.382 287.272 274.268 L286.317 278.342 Q284.026 289.227 279.315 294.065 Q274.541 298.903 266.265 298.903 Q256.207 298.903 250.733 291.773 Q245.258 284.644 245.258 271.531 Q245.258 265.038 246.213 259.308 Q247.168 253.579 249.078 248.741 Z" fill="#000000" fill-rule="nonzero" fill-opacity="1" /><path clip-path="url(#clip200)" d="M249.078 180.819 L260.154 180.819 Q257.608 185.784 256.335 191.132 Q255.062 196.479 255.062 202.208 Q255.062 210.929 257.735 215.321 Q260.409 219.65 265.756 219.65 Q269.83 219.65 272.185 216.531 Q274.477 213.412 276.578 203.99 L277.469 199.98 Q280.143 187.503 285.044 182.283 Q289.882 177 298.603 177 Q308.534 177 314.326 184.893 Q320.119 192.723 320.119 206.473 Q320.119 212.202 318.973 218.441 Q317.891 224.615 315.663 231.49 L303.568 231.49 Q306.942 224.997 308.661 218.695 Q310.316 212.393 310.316 206.218 Q310.316 197.943 307.515 193.487 Q304.65 189.031 299.494 189.031 Q294.72 189.031 292.174 192.277 Q289.627 195.46 287.272 206.346 L286.317 210.42 Q284.026 221.305 279.315 226.143 Q274.541 230.981 266.265 230.981 Q256.207 230.981 250.733 223.851 Q245.258 216.722 245.258 203.608 Q245.258 197.115 246.213 191.386 Q247.168 185.657 249.078 180.819 Z" fill="#000000" fill-rule="nonzero" fill-opacity="1" /><polyline clip-path="url(#clip202)" style="stroke:#008000; stroke-linecap:round; stroke-linejoin:round; stroke-width:8; stroke-opacity:1; fill:none" points="719.695,138.938 774.682,160.808 994.628,379.508 1599.48,827.843 2259.32,1013.74 "/>
<circle clip-path="url(#clip202)" cx="719.695" cy="138.938" r="14.4" fill="#008000" fill-rule="evenodd" fill-opacity="1" stroke="#000000" stroke-opacity="1" stroke-width="6.4"/>
<circle clip-path="url(#clip202)" cx="774.682" cy="160.808" r="14.4" fill="#008000" fill-rule="evenodd" fill-opacity="1" stroke="#000000" stroke-opacity="1" stroke-width="6.4"/>
<circle clip-path="url(#clip202)" cx="994.628" cy="379.508" r="14.4" fill="#008000" fill-rule="evenodd" fill-opacity="1" stroke="#000000" stroke-opacity="1" stroke-width="6.4"/>
<circle clip-path="url(#clip202)" cx="1599.48" cy="827.843" r="14.4" fill="#008000" fill-rule="evenodd" fill-opacity="1" stroke="#000000" stroke-opacity="1" stroke-width="6.4"/>
<circle clip-path="url(#clip202)" cx="2259.32" cy="1013.74" r="14.4" fill="#008000" fill-rule="evenodd" fill-opacity="1" stroke="#000000" stroke-opacity="1" stroke-width="6.4"/>
<path clip-path="url(#clip202)" d="M719.695 156.499 L774.682 331.722 L994.628 1070.87 L1599.48 1228.05 L2259.32 1240.32 L2259.32 1204.5 L1599.48 1170.02 L994.628 835.829 L774.682 219.371 L719.695 127.862  Z" fill="#0000ff" fill-rule="evenodd" fill-opacity="0.1"/>
<polyline clip-path="url(#clip202)" style="stroke:#0000ff; stroke-linecap:round; stroke-linejoin:round; stroke-width:0; stroke-opacity:0.1; fill:none" points="719.695,156.499 774.682,331.722 994.628,1070.87 1599.48,1228.05 2259.32,1240.32 "/>
<path clip-path="url(#clip200)" d="M1810.18 444.835 L2251.11 444.835 L2251.11 133.795 L1810.18 133.795  Z" fill="#ffffff" fill-rule="evenodd" fill-opacity="1"/>
<polyline clip-path="url(#clip200)" style="stroke:#000000; stroke-linecap:round; stroke-linejoin:round; stroke-width:8; stroke-opacity:1; fill:none" points="1810.18,444.835 2251.11,444.835 2251.11,133.795 1810.18,133.795 1810.18,444.835 "/>
<polyline clip-path="url(#clip200)" style="stroke:#008000; stroke-linecap:round; stroke-linejoin:round; stroke-width:8; stroke-opacity:1; fill:none" points="1828.31,237.475 1937.11,237.475 "/>
<circle clip-path="url(#clip200)" cx="1882.71" cy="237.475" r="7.55558" fill="#008000" fill-rule="evenodd" fill-opacity="1" stroke="#000000" stroke-opacity="1" stroke-width="6.71607"/>
<path clip-path="url(#clip200)" d="M2010.99 208.239 L2010.99 218.1 Q2006.27 213.702 2000.9 211.526 Q1995.57 209.35 1989.55 209.35 Q1977.7 209.35 1971.41 216.619 Q1965.11 223.841 1965.11 237.545 Q1965.11 251.202 1971.41 258.47 Q1977.7 265.693 1989.55 265.693 Q1995.57 265.693 2000.9 263.517 Q2006.27 261.341 2010.99 256.943 L2010.99 266.711 Q2006.08 270.044 2000.57 271.711 Q1995.11 273.378 1989 273.378 Q1973.3 273.378 1964.28 263.794 Q1955.25 254.165 1955.25 237.545 Q1955.25 220.878 1964.28 211.295 Q1973.3 201.665 1989 201.665 Q1995.2 201.665 2000.66 203.332 Q2006.17 204.952 2010.99 208.239 Z" fill="#000000" fill-rule="nonzero" fill-opacity="1" /><path clip-path="url(#clip200)" d="M2058.12 221.711 L2058.12 229.767 Q2054.51 227.915 2050.62 226.989 Q2046.73 226.063 2042.56 226.063 Q2036.22 226.063 2033.03 228.008 Q2029.88 229.952 2029.88 233.841 Q2029.88 236.804 2032.15 238.517 Q2034.41 240.183 2041.27 241.711 L2044.18 242.359 Q2053.26 244.304 2057.05 247.869 Q2060.9 251.387 2060.9 257.73 Q2060.9 264.952 2055.16 269.165 Q2049.46 273.378 2039.46 273.378 Q2035.29 273.378 2030.76 272.544 Q2026.27 271.757 2021.27 270.137 L2021.27 261.341 Q2025.99 263.794 2030.57 265.044 Q2035.16 266.248 2039.65 266.248 Q2045.66 266.248 2048.91 264.211 Q2052.15 262.128 2052.15 258.378 Q2052.15 254.906 2049.78 253.054 Q2047.47 251.202 2039.55 249.489 L2036.59 248.794 Q2028.67 247.128 2025.16 243.702 Q2021.64 240.23 2021.64 234.211 Q2021.64 226.896 2026.82 222.915 Q2032.01 218.934 2041.54 218.934 Q2046.27 218.934 2050.43 219.628 Q2054.6 220.322 2058.12 221.711 Z" fill="#000000" fill-rule="nonzero" fill-opacity="1" /><path clip-path="url(#clip200)" d="M2118.81 243.98 L2118.81 248.146 L2079.65 248.146 Q2080.2 256.943 2084.92 261.572 Q2089.69 266.156 2098.16 266.156 Q2103.07 266.156 2107.65 264.952 Q2112.28 263.748 2116.82 261.341 L2116.82 269.396 Q2112.24 271.341 2107.42 272.359 Q2102.61 273.378 2097.65 273.378 Q2085.25 273.378 2077.98 266.156 Q2070.76 258.933 2070.76 246.619 Q2070.76 233.887 2077.61 226.434 Q2084.51 218.934 2096.17 218.934 Q2106.64 218.934 2112.7 225.693 Q2118.81 232.406 2118.81 243.98 M2110.29 241.48 Q2110.2 234.489 2106.36 230.322 Q2102.56 226.156 2096.27 226.156 Q2089.14 226.156 2084.83 230.183 Q2080.57 234.211 2079.92 241.526 L2110.29 241.48 Z" fill="#000000" fill-rule="nonzero" fill-opacity="1" /><path clip-path="url(#clip200)" d="M2162.84 228.146 Q2161.4 227.313 2159.69 226.943 Q2158.02 226.526 2155.99 226.526 Q2148.77 226.526 2144.88 231.248 Q2141.03 235.924 2141.03 244.72 L2141.03 272.035 L2132.47 272.035 L2132.47 220.184 L2141.03 220.184 L2141.03 228.239 Q2143.72 223.517 2148.02 221.248 Q2152.33 218.934 2158.49 218.934 Q2159.37 218.934 2160.43 219.072 Q2161.5 219.165 2162.79 219.397 L2162.84 228.146 Z" fill="#000000" fill-rule="nonzero" fill-opacity="1" /><path clip-path="url(#clip200)" d="M2200.15 228.146 Q2198.72 227.313 2197.01 226.943 Q2195.34 226.526 2193.3 226.526 Q2186.08 226.526 2182.19 231.248 Q2178.35 235.924 2178.35 244.72 L2178.35 272.035 L2169.78 272.035 L2169.78 220.184 L2178.35 220.184 L2178.35 228.239 Q2181.03 223.517 2185.34 221.248 Q2189.65 218.934 2195.8 218.934 Q2196.68 218.934 2197.75 219.072 Q2198.81 219.165 2200.11 219.397 L2200.15 228.146 Z" fill="#000000" fill-rule="nonzero" fill-opacity="1" /><polyline clip-path="url(#clip200)" style="stroke:#00008b; stroke-linecap:round; stroke-linejoin:round; stroke-width:8; stroke-opacity:1; fill:none" points="1828.31,341.155 1937.11,341.155 "/>
<path clip-path="url(#clip200)" d="M1995.94 333.817 Q1999.14 328.076 2003.58 325.345 Q2008.03 322.614 2014.04 322.614 Q2022.15 322.614 2026.54 328.308 Q2030.94 333.956 2030.94 344.419 L2030.94 375.715 L2022.38 375.715 L2022.38 344.697 Q2022.38 337.243 2019.74 333.632 Q2017.1 330.021 2011.68 330.021 Q2005.06 330.021 2001.22 334.419 Q1997.38 338.817 1997.38 346.41 L1997.38 375.715 L1988.81 375.715 L1988.81 344.697 Q1988.81 337.197 1986.17 333.632 Q1983.54 330.021 1978.03 330.021 Q1971.5 330.021 1967.66 334.465 Q1963.81 338.863 1963.81 346.41 L1963.81 375.715 L1955.25 375.715 L1955.25 323.864 L1963.81 323.864 L1963.81 331.919 Q1966.73 327.151 1970.8 324.882 Q1974.88 322.614 1980.48 322.614 Q1986.13 322.614 1990.06 325.484 Q1994.04 328.354 1995.94 333.817 Z" fill="#000000" fill-rule="nonzero" fill-opacity="1" /><path clip-path="url(#clip200)" d="M2068.03 329.836 Q2061.17 329.836 2057.19 335.206 Q2053.21 340.53 2053.21 349.836 Q2053.21 359.141 2057.15 364.511 Q2061.13 369.836 2068.03 369.836 Q2074.83 369.836 2078.81 364.465 Q2082.79 359.095 2082.79 349.836 Q2082.79 340.623 2078.81 335.252 Q2074.83 329.836 2068.03 329.836 M2068.03 322.614 Q2079.14 322.614 2085.48 329.836 Q2091.82 337.058 2091.82 349.836 Q2091.82 362.567 2085.48 369.836 Q2079.14 377.058 2068.03 377.058 Q2056.87 377.058 2050.53 369.836 Q2044.23 362.567 2044.23 349.836 Q2044.23 337.058 2050.53 329.836 Q2056.87 322.614 2068.03 322.614 Z" fill="#000000" fill-rule="nonzero" fill-opacity="1" /><path clip-path="url(#clip200)" d="M2140.06 331.734 L2140.06 303.678 L2148.58 303.678 L2148.58 375.715 L2140.06 375.715 L2140.06 367.937 Q2137.38 372.567 2133.26 374.835 Q2129.18 377.058 2123.44 377.058 Q2114.04 377.058 2108.12 369.558 Q2102.24 362.058 2102.24 349.836 Q2102.24 337.613 2108.12 330.114 Q2114.04 322.614 2123.44 322.614 Q2129.18 322.614 2133.26 324.882 Q2137.38 327.104 2140.06 331.734 M2111.03 349.836 Q2111.03 359.234 2114.88 364.604 Q2118.77 369.928 2125.53 369.928 Q2132.28 369.928 2136.17 364.604 Q2140.06 359.234 2140.06 349.836 Q2140.06 340.438 2136.17 335.113 Q2132.28 329.743 2125.53 329.743 Q2118.77 329.743 2114.88 335.113 Q2111.03 340.438 2111.03 349.836 Z" fill="#000000" fill-rule="nonzero" fill-opacity="1" /><path clip-path="url(#clip200)" d="M2210.48 347.66 L2210.48 351.826 L2171.31 351.826 Q2171.87 360.623 2176.59 365.252 Q2181.36 369.836 2189.83 369.836 Q2194.74 369.836 2199.32 368.632 Q2203.95 367.428 2208.49 365.021 L2208.49 373.076 Q2203.9 375.021 2199.09 376.039 Q2194.27 377.058 2189.32 377.058 Q2176.91 377.058 2169.65 369.836 Q2162.42 362.613 2162.42 350.299 Q2162.42 337.567 2169.27 330.114 Q2176.17 322.614 2187.84 322.614 Q2198.3 322.614 2204.37 329.373 Q2210.48 336.086 2210.48 347.66 M2201.96 345.16 Q2201.87 338.169 2198.02 334.002 Q2194.23 329.836 2187.93 329.836 Q2180.8 329.836 2176.5 333.863 Q2172.24 337.891 2171.59 345.206 L2201.96 345.16 Z" fill="#000000" fill-rule="nonzero" fill-opacity="1" /><path clip-path="url(#clip200)" d="M2224.46 303.678 L2232.98 303.678 L2232.98 375.715 L2224.46 375.715 L2224.46 303.678 Z" fill="#000000" fill-rule="nonzero" fill-opacity="1" /></svg>
