<?xml version="1.0" encoding="utf-8"?>
<svg xmlns="http://www.w3.org/2000/svg" xmlns:xlink="http://www.w3.org/1999/xlink" width="600" height="400" viewBox="0 0 2400 1600">
<defs>
  <clipPath id="clip320">
    <rect x="0" y="0" width="2400" height="1600"/>
  </clipPath>
</defs>
<path clip-path="url(#clip320)" d="M0 1600 L2400 1600 L2400 0 L0 0  Z" fill="#ffffff" fill-rule="evenodd" fill-opacity="1"/>
<defs>
  <clipPath id="clip321">
    <rect x="480" y="0" width="1681" height="1600"/>
  </clipPath>
</defs>
<path clip-path="url(#clip320)" d="M673.506 1273.7 L2305.51 1273.7 L2305.51 94.4882 L673.506 94.4882  Z" fill="#ffffff" fill-rule="evenodd" fill-opacity="1"/>
<defs>
  <clipPath id="clip322">
    <rect x="673" y="94" width="1633" height="1180"/>
  </clipPath>
</defs>
<polyline clip-path="url(#clip322)" style="stroke:#000000; stroke-linecap:round; stroke-linejoin:round; stroke-width:4; stroke-opacity:0.1; fill:none" points="719.695,1273.7 719.695,94.4882 "/>
<polyline clip-path="url(#clip322)" style="stroke:#000000; stroke-linecap:round; stroke-linejoin:round; stroke-width:4; stroke-opacity:0.1; fill:none" points="994.628,1273.7 994.628,94.4882 "/>
<polyline clip-path="url(#clip322)" style="stroke:#000000; stroke-linecap:round; stroke-linejoin:round; stroke-width:4; stroke-opacity:0.1; fill:none" points="1269.56,1273.7 1269.56,94.4882 "/>
<polyline clip-path="url(#clip322)" style="stroke:#000000; stroke-linecap:round; stroke-linejoin:round; stroke-width:4; stroke-opacity:0.1; fill:none" points="1544.5,1273.7 1544.5,94.4882 "/>
<polyline clip-path="url(#clip322)" style="stroke:#000000; stroke-linecap:round; stroke-linejoin:round; stroke-width:4; stroke-opacity:0.1; fill:none" points="1819.43,1273.7 1819.43,94.4882 "/>
<polyline clip-path="url(#clip322)" style="stroke:#000000; stroke-linecap:round; stroke-linejoin:round; stroke-width:4; stroke-opacity:0.1; fill:none" points="2094.36,1273.7 2094.36,94.4882 "/>
<polyline clip-path="url(#clip320)" style="stroke:#000000; stroke-linecap:round; stroke-linejoin:round; stroke-width:8; stroke-opacity:1; fill:none" points="673.506,1273.7 2305.51,1273.7 "/>
<polyline clip-path="url(#clip320)" style="stroke:#000000; stroke-linecap:round; stroke-linejoin:round; stroke-width:8; stroke-opacity:1; fill:none" points="719.695,1273.7 719.695,1254.8 "/>
<polyline clip-path="url(#clip320)" style="stroke:#000000; stroke-linecap:round; stroke-linejoin:round; stroke-width:8; stroke-opacity:1; fill:none" points="994.628,1273.7 994.628,1254.8 "/>
<polyline clip-path="url(#clip320)" style="stroke:#000000; stroke-linecap:round; stroke-linejoin:round; stroke-width:8; stroke-opacity:1; fill:none" points="1269.56,1273.7 1269.56,1254.8 "/>
<polyline clip-path="url(#clip320)" style="stroke:#000000; stroke-linecap:round; stroke-linejoin:round; stroke-width:8; stroke-opacity:1; fill:none" points="1544.5,1273.7 1544.5,1254.8 "/>
<polyline clip-path="url(#clip320)" style="stroke:#000000; stroke-linecap:round; stroke-linejoin:round; stroke-width:8; stroke-opacity:1; fill:none" points="1819.43,1273.7 1819.43,1254.8 "/>
<polyline clip-path="url(#clip320)" style="stroke:#000000; stroke-linecap:round; stroke-linejoin:round; stroke-width:8; stroke-opacity:1; fill:none" points="2094.36,1273.7 2094.36,1254.8 "/>
<path clip-path="url(#clip320)" d="M644.302 1316.33 Q637.08 1316.33 633.422 1323.46 Q629.811 1330.55 629.811 1344.81 Q629.811 1359.02 633.422 1366.15 Q637.08 1373.23 644.302 1373.23 Q651.57 1373.23 655.181 1366.15 Q658.839 1359.02 658.839 1344.81 Q658.839 1330.55 655.181 1323.46 Q651.57 1316.33 644.302 1316.33 M644.302 1308.93 Q655.922 1308.93 662.033 1318.14 Q668.19 1327.31 668.19 1344.81 Q668.19 1362.26 662.033 1371.47 Q655.922 1380.64 644.302 1380.64 Q632.681 1380.64 626.524 1371.47 Q620.413 1362.26 620.413 1344.81 Q620.413 1327.31 626.524 1318.14 Q632.681 1308.93 644.302 1308.93 Z" fill="#000000" fill-rule="nonzero" fill-opacity="1" /><path clip-path="url(#clip320)" d="M684.626 1367.54 L694.394 1367.54 L694.394 1379.3 L684.626 1379.3 L684.626 1367.54 Z" fill="#000000" fill-rule="nonzero" fill-opacity="1" /><path clip-path="url(#clip320)" d="M734.764 1316.33 Q727.542 1316.33 723.885 1323.46 Q720.274 1330.55 720.274 1344.81 Q720.274 1359.02 723.885 1366.15 Q727.542 1373.23 734.764 1373.23 Q742.033 1373.23 745.644 1366.15 Q749.301 1359.02 749.301 1344.81 Q749.301 1330.55 745.644 1323.46 Q742.033 1316.33 734.764 1316.33 M734.764 1308.93 Q746.384 1308.93 752.496 1318.14 Q758.653 1327.31 758.653 1344.81 Q758.653 1362.26 752.496 1371.47 Q746.384 1380.64 734.764 1380.64 Q723.144 1380.64 716.986 1371.47 Q710.875 1362.26 710.875 1344.81 Q710.875 1327.31 716.986 1318.14 Q723.144 1308.93 734.764 1308.93 Z" fill="#000000" fill-rule="nonzero" fill-opacity="1" /><path clip-path="url(#clip320)" d="M795.088 1316.33 Q787.866 1316.33 784.208 1323.46 Q780.597 1330.55 780.597 1344.81 Q780.597 1359.02 784.208 1366.15 Q787.866 1373.23 795.088 1373.23 Q802.356 1373.23 805.967 1366.15 Q809.625 1359.02 809.625 1344.81 Q809.625 1330.55 805.967 1323.46 Q802.356 1316.33 795.088 1316.33 M795.088 1308.93 Q806.708 1308.93 812.819 1318.14 Q818.977 1327.31 818.977 1344.81 Q818.977 1362.26 812.819 1371.47 Q806.708 1380.64 795.088 1380.64 Q783.468 1380.64 777.31 1371.47 Q771.199 1362.26 771.199 1344.81 Q771.199 1327.31 777.31 1318.14 Q783.468 1308.93 795.088 1308.93 Z" fill="#000000" fill-rule="nonzero" fill-opacity="1" /><path clip-path="url(#clip320)" d="M920.231 1316.33 Q913.008 1316.33 909.351 1323.46 Q905.74 1330.55 905.74 1344.81 Q905.74 1359.02 909.351 1366.15 Q913.008 1373.23 920.231 1373.23 Q927.499 1373.23 931.11 1366.15 Q934.768 1359.02 934.768 1344.81 Q934.768 1330.55 931.11 1323.46 Q927.499 1316.33 920.231 1316.33 M920.231 1308.93 Q931.851 1308.93 937.962 1318.14 Q944.119 1327.31 944.119 1344.81 Q944.119 1362.26 937.962 1371.47 Q931.851 1380.64 920.231 1380.64 Q908.61 1380.64 902.453 1371.47 Q896.342 1362.26 896.342 1344.81 Q896.342 1327.31 902.453 1318.14 Q908.61 1308.93 920.231 1308.93 Z" fill="#000000" fill-rule="nonzero" fill-opacity="1" /><path clip-path="url(#clip320)" d="M960.555 1367.54 L970.323 1367.54 L970.323 1379.3 L960.555 1379.3 L960.555 1367.54 Z" fill="#000000" fill-rule="nonzero" fill-opacity="1" /><path clip-path="url(#clip320)" d="M998.749 1371.43 L1031.39 1371.43 L1031.39 1379.3 L987.499 1379.3 L987.499 1371.43 Q992.823 1365.92 1001.99 1356.66 Q1011.2 1347.35 1013.56 1344.67 Q1018.05 1339.62 1019.81 1336.15 Q1021.62 1332.63 1021.62 1329.25 Q1021.62 1323.74 1017.73 1320.27 Q1013.89 1316.8 1007.68 1316.8 Q1003.29 1316.8 998.378 1318.32 Q993.517 1319.85 987.962 1322.95 L987.962 1313.51 Q993.61 1311.24 998.517 1310.08 Q1003.42 1308.93 1007.5 1308.93 Q1018.24 1308.93 1024.63 1314.3 Q1031.02 1319.67 1031.02 1328.65 Q1031.02 1332.91 1029.4 1336.75 Q1027.82 1340.55 1023.61 1345.73 Q1022.45 1347.07 1016.25 1353.51 Q1010.04 1359.9 998.749 1371.43 Z" fill="#000000" fill-rule="nonzero" fill-opacity="1" /><path clip-path="url(#clip320)" d="M1051.11 1310.18 L1087.82 1310.18 L1087.82 1318.05 L1059.67 1318.05 L1059.67 1334.99 Q1061.71 1334.3 1063.75 1333.97 Q1065.79 1333.6 1067.82 1333.6 Q1079.4 1333.6 1086.16 1339.94 Q1092.91 1346.29 1092.91 1357.12 Q1092.91 1368.28 1085.97 1374.48 Q1079.03 1380.64 1066.39 1380.64 Q1062.04 1380.64 1057.5 1379.9 Q1053.01 1379.16 1048.19 1377.68 L1048.19 1368.28 Q1052.36 1370.55 1056.8 1371.66 Q1061.25 1372.77 1066.2 1372.77 Q1074.21 1372.77 1078.89 1368.56 Q1083.56 1364.34 1083.56 1357.12 Q1083.56 1349.9 1078.89 1345.68 Q1074.21 1341.47 1066.2 1341.47 Q1062.45 1341.47 1058.7 1342.31 Q1055 1343.14 1051.11 1344.9 L1051.11 1310.18 Z" fill="#000000" fill-rule="nonzero" fill-opacity="1" /><path clip-path="url(#clip320)" d="M1194.17 1316.33 Q1186.95 1316.33 1183.29 1323.46 Q1179.68 1330.55 1179.68 1344.81 Q1179.68 1359.02 1183.29 1366.15 Q1186.95 1373.23 1194.17 1373.23 Q1201.44 1373.23 1205.05 1366.15 Q1208.71 1359.02 1208.71 1344.81 Q1208.71 1330.55 1205.05 1323.46 Q1201.44 1316.33 1194.17 1316.33 M1194.17 1308.93 Q1205.79 1308.93 1211.9 1318.14 Q1218.06 1327.31 1218.06 1344.81 Q1218.06 1362.26 1211.9 1371.47 Q1205.79 1380.64 1194.17 1380.64 Q1182.55 1380.64 1176.39 1371.47 Q1170.28 1362.26 1170.28 1344.81 Q1170.28 1327.31 1176.39 1318.14 Q1182.55 1308.93 1194.17 1308.93 Z" fill="#000000" fill-rule="nonzero" fill-opacity="1" /><path clip-path="url(#clip320)" d="M1234.49 1367.54 L1244.26 1367.54 L1244.26 1379.3 L1234.49 1379.3 L1234.49 1367.54 Z" fill="#000000" fill-rule="nonzero" fill-opacity="1" /><path clip-path="url(#clip320)" d="M1264.72 1310.18 L1301.44 1310.18 L1301.44 1318.05 L1273.29 1318.05 L1273.29 1334.99 Q1275.33 1334.3 1277.36 1333.97 Q1279.4 1333.6 1281.44 1333.6 Q1293.01 1333.6 1299.77 1339.94 Q1306.53 1346.29 1306.53 1357.12 Q1306.53 1368.28 1299.58 1374.48 Q1292.64 1380.64 1280 1380.64 Q1275.65 1380.64 1271.11 1379.9 Q1266.62 1379.16 1261.81 1377.68 L1261.81 1368.28 Q1265.97 1370.55 1270.42 1371.66 Q1274.86 1372.77 1279.82 1372.77 Q1287.83 1372.77 1292.5 1368.56 Q1297.18 1364.34 1297.18 1357.12 Q1297.18 1349.9 1292.5 1345.68 Q1287.83 1341.47 1279.82 1341.47 Q1276.07 1341.47 1272.32 1342.31 Q1268.61 1343.14 1264.72 1344.9 L1264.72 1310.18 Z" fill="#000000" fill-rule="nonzero" fill-opacity="1" /><path clip-path="url(#clip320)" d="M1344.96 1316.33 Q1337.73 1316.33 1334.08 1323.46 Q1330.46 1330.55 1330.46 1344.81 Q1330.46 1359.02 1334.08 1366.15 Q1337.73 1373.23 1344.96 1373.23 Q1352.22 1373.23 1355.83 1366.15 Q1359.49 1359.02 1359.49 1344.81 Q1359.49 1330.55 1355.83 1323.46 Q1352.22 1316.33 1344.96 1316.33 M1344.96 1308.93 Q1356.58 1308.93 1362.69 1318.14 Q1368.84 1327.31 1368.84 1344.81 Q1368.84 1362.26 1362.69 1371.47 Q1356.58 1380.64 1344.96 1380.64 Q1333.33 1380.64 1327.18 1371.47 Q1321.07 1362.26 1321.07 1344.81 Q1321.07 1327.31 1327.18 1318.14 Q1333.33 1308.93 1344.96 1308.93 Z" fill="#000000" fill-rule="nonzero" fill-opacity="1" /><path clip-path="url(#clip320)" d="M1470.1 1316.33 Q1462.88 1316.33 1459.22 1323.46 Q1455.61 1330.55 1455.61 1344.81 Q1455.61 1359.02 1459.22 1366.15 Q1462.88 1373.23 1470.1 1373.23 Q1477.37 1373.23 1480.98 1366.15 Q1484.63 1359.02 1484.63 1344.81 Q1484.63 1330.55 1480.98 1323.46 Q1477.37 1316.33 1470.1 1316.33 M1470.1 1308.93 Q1481.72 1308.93 1487.83 1318.14 Q1493.99 1327.31 1493.99 1344.81 Q1493.99 1362.26 1487.83 1371.47 Q1481.72 1380.64 1470.1 1380.64 Q1458.48 1380.64 1452.32 1371.47 Q1446.21 1362.26 1446.21 1344.81 Q1446.21 1327.31 1452.32 1318.14 Q1458.48 1308.93 1470.1 1308.93 Z" fill="#000000" fill-rule="nonzero" fill-opacity="1" /><path clip-path="url(#clip320)" d="M1510.42 1367.54 L1520.19 1367.54 L1520.19 1379.3 L1510.42 1379.3 L1510.42 1367.54 Z" fill="#000000" fill-rule="nonzero" fill-opacity="1" /><path clip-path="url(#clip320)" d="M1538.2 1310.18 L1582.64 1310.18 L1582.64 1314.16 L1557.55 1379.3 L1547.78 1379.3 L1571.39 1318.05 L1538.2 1318.05 L1538.2 1310.18 Z" fill="#000000" fill-rule="nonzero" fill-opacity="1" /><path clip-path="url(#clip320)" d="M1600.98 1310.18 L1637.69 1310.18 L1637.69 1318.05 L1609.54 1318.05 L1609.54 1334.99 Q1611.58 1334.3 1613.62 1333.97 Q1615.65 1333.6 1617.69 1333.6 Q1629.26 1333.6 1636.02 1339.94 Q1642.78 1346.29 1642.78 1357.12 Q1642.78 1368.28 1635.84 1374.48 Q1628.89 1380.64 1616.25 1380.64 Q1611.9 1380.64 1607.37 1379.9 Q1602.87 1379.16 1598.06 1377.68 L1598.06 1368.28 Q1602.23 1370.55 1606.67 1371.66 Q1611.12 1372.77 1616.07 1372.77 Q1624.08 1372.77 1628.75 1368.56 Q1633.43 1364.34 1633.43 1357.12 Q1633.43 1349.9 1628.75 1345.68 Q1624.08 1341.47 1616.07 1341.47 Q1612.32 1341.47 1608.57 1342.31 Q1604.87 1343.14 1600.98 1344.9 L1600.98 1310.18 Z" fill="#000000" fill-rule="nonzero" fill-opacity="1" /><path clip-path="url(#clip320)" d="M1723.57 1371.43 L1738.85 1371.43 L1738.85 1318.69 L1722.23 1322.03 L1722.23 1313.51 L1738.76 1310.18 L1748.11 1310.18 L1748.11 1371.43 L1763.39 1371.43 L1763.39 1379.3 L1723.57 1379.3 L1723.57 1371.43 Z" fill="#000000" fill-rule="nonzero" fill-opacity="1" /><path clip-path="url(#clip320)" d="M1782.28 1367.54 L1792.05 1367.54 L1792.05 1379.3 L1782.28 1379.3 L1782.28 1367.54 Z" fill="#000000" fill-rule="nonzero" fill-opacity="1" /><path clip-path="url(#clip320)" d="M1832.42 1316.33 Q1825.19 1316.33 1821.54 1323.46 Q1817.92 1330.55 1817.92 1344.81 Q1817.92 1359.02 1821.54 1366.15 Q1825.19 1373.23 1832.42 1373.23 Q1839.68 1373.23 1843.29 1366.15 Q1846.95 1359.02 1846.95 1344.81 Q1846.95 1330.55 1843.29 1323.46 Q1839.68 1316.33 1832.42 1316.33 M1832.42 1308.93 Q1844.04 1308.93 1850.15 1318.14 Q1856.3 1327.31 1856.3 1344.81 Q1856.3 1362.26 1850.15 1371.47 Q1844.04 1380.64 1832.42 1380.64 Q1820.79 1380.64 1814.64 1371.47 Q1808.53 1362.26 1808.53 1344.81 Q1808.53 1327.31 1814.64 1318.14 Q1820.79 1308.93 1832.42 1308.93 Z" fill="#000000" fill-rule="nonzero" fill-opacity="1" /><path clip-path="url(#clip320)" d="M1892.74 1316.33 Q1885.52 1316.33 1881.86 1323.46 Q1878.25 1330.55 1878.25 1344.81 Q1878.25 1359.02 1881.86 1366.15 Q1885.52 1373.23 1892.74 1373.23 Q1900.01 1373.23 1903.62 1366.15 Q1907.28 1359.02 1907.28 1344.81 Q1907.28 1330.55 1903.62 1323.46 Q1900.01 1316.33 1892.74 1316.33 M1892.74 1308.93 Q1904.36 1308.93 1910.47 1318.14 Q1916.63 1327.31 1916.63 1344.81 Q1916.63 1362.26 1910.47 1371.47 Q1904.36 1380.64 1892.74 1380.64 Q1881.12 1380.64 1874.96 1371.47 Q1868.85 1362.26 1868.85 1344.81 Q1868.85 1327.31 1874.96 1318.14 Q1881.12 1308.93 1892.74 1308.93 Z" fill="#000000" fill-rule="nonzero" fill-opacity="1" /><path clip-path="url(#clip320)" d="M1999.5 1371.43 L2014.78 1371.43 L2014.78 1318.69 L1998.16 1322.03 L1998.16 1313.51 L2014.69 1310.18 L2024.04 1310.18 L2024.04 1371.43 L2039.32 1371.43 L2039.32 1379.3 L1999.5 1379.3 L1999.5 1371.43 Z" fill="#000000" fill-rule="nonzero" fill-opacity="1" /><path clip-path="url(#clip320)" d="M2058.21 1367.54 L2067.97 1367.54 L2067.97 1379.3 L2058.21 1379.3 L2058.21 1367.54 Z" fill="#000000" fill-rule="nonzero" fill-opacity="1" /><path clip-path="url(#clip320)" d="M2096.4 1371.43 L2129.04 1371.43 L2129.04 1379.3 L2085.15 1379.3 L2085.15 1371.43 Q2090.47 1365.92 2099.64 1356.66 Q2108.85 1347.35 2111.21 1344.67 Q2115.71 1339.62 2117.46 1336.15 Q2119.27 1332.63 2119.27 1329.25 Q2119.27 1323.74 2115.38 1320.27 Q2111.54 1316.8 2105.33 1316.8 Q2100.94 1316.8 2096.03 1318.32 Q2091.17 1319.85 2085.61 1322.95 L2085.61 1313.51 Q2091.26 1311.24 2096.17 1310.08 Q2101.08 1308.93 2105.15 1308.93 Q2115.89 1308.93 2122.28 1314.3 Q2128.67 1319.67 2128.67 1328.65 Q2128.67 1332.91 2127.05 1336.75 Q2125.47 1340.55 2121.26 1345.73 Q2120.1 1347.07 2113.9 1353.51 Q2107.7 1359.9 2096.4 1371.43 Z" fill="#000000" fill-rule="nonzero" fill-opacity="1" /><path clip-path="url(#clip320)" d="M2148.76 1310.18 L2185.47 1310.18 L2185.47 1318.05 L2157.33 1318.05 L2157.33 1334.99 Q2159.36 1334.3 2161.4 1333.97 Q2163.44 1333.6 2165.47 1333.6 Q2177.05 1333.6 2183.81 1339.94 Q2190.57 1346.29 2190.57 1357.12 Q2190.57 1368.28 2183.62 1374.48 Q2176.68 1380.64 2164.04 1380.64 Q2159.69 1380.64 2155.15 1379.9 Q2150.66 1379.16 2145.84 1377.68 L2145.84 1368.28 Q2150.01 1370.55 2154.46 1371.66 Q2158.9 1372.77 2163.85 1372.77 Q2171.86 1372.77 2176.54 1368.56 Q2181.21 1364.34 2181.21 1357.12 Q2181.21 1349.9 2176.54 1345.68 Q2171.86 1341.47 2163.85 1341.47 Q2160.1 1341.47 2156.35 1342.31 Q2152.65 1343.14 2148.76 1344.9 L2148.76 1310.18 Z" fill="#000000" fill-rule="nonzero" fill-opacity="1" /><path clip-path="url(#clip320)" d="M1375.05 1484.39 L1375.05 1527.42 L1363.34 1527.42 L1363.34 1484.77 Q1363.34 1474.65 1359.39 1469.62 Q1355.45 1464.59 1347.55 1464.59 Q1338.07 1464.59 1332.59 1470.64 Q1327.12 1476.69 1327.12 1487.13 L1327.12 1527.42 L1315.34 1527.42 L1315.34 1428.37 L1327.12 1428.37 L1327.12 1467.2 Q1331.32 1460.77 1336.99 1457.59 Q1342.72 1454.41 1350.16 1454.41 Q1362.45 1454.41 1368.75 1462.05 Q1375.05 1469.62 1375.05 1484.39 Z" fill="#000000" fill-rule="nonzero" fill-opacity="1" /><path clip-path="url(#clip320)" d="M1426.04 1464.34 Q1416.62 1464.34 1411.15 1471.72 Q1405.67 1479.04 1405.67 1491.84 Q1405.67 1504.63 1411.08 1512.02 Q1416.56 1519.34 1426.04 1519.34 Q1435.4 1519.34 1440.87 1511.96 Q1446.35 1504.57 1446.35 1491.84 Q1446.35 1479.17 1440.87 1471.79 Q1435.4 1464.34 1426.04 1464.34 M1426.04 1454.41 Q1441.32 1454.41 1450.04 1464.34 Q1458.76 1474.27 1458.76 1491.84 Q1458.76 1509.35 1450.04 1519.34 Q1441.32 1529.27 1426.04 1529.27 Q1410.7 1529.27 1401.98 1519.34 Q1393.32 1509.35 1393.32 1491.84 Q1393.32 1474.27 1401.98 1464.34 Q1410.7 1454.41 1426.04 1454.41 Z" fill="#000000" fill-rule="nonzero" fill-opacity="1" /><path clip-path="url(#clip320)" d="M1476.97 1499.29 L1476.97 1456.13 L1488.68 1456.13 L1488.68 1498.84 Q1488.68 1508.96 1492.63 1514.06 Q1496.57 1519.08 1504.47 1519.08 Q1513.95 1519.08 1519.43 1513.04 Q1524.97 1506.99 1524.97 1496.55 L1524.97 1456.13 L1536.68 1456.13 L1536.68 1527.42 L1524.97 1527.42 L1524.97 1516.47 Q1520.7 1522.97 1515.04 1526.15 Q1509.43 1529.27 1501.99 1529.27 Q1489.7 1529.27 1483.33 1521.63 Q1476.97 1513.99 1476.97 1499.29 M1506.44 1454.41 L1506.44 1454.41 Z" fill="#000000" fill-rule="nonzero" fill-opacity="1" /><path clip-path="url(#clip320)" d="M1602.12 1467.08 Q1600.14 1465.93 1597.79 1465.42 Q1595.5 1464.85 1592.7 1464.85 Q1582.77 1464.85 1577.42 1471.34 Q1572.14 1477.77 1572.14 1489.87 L1572.14 1527.42 L1560.36 1527.42 L1560.36 1456.13 L1572.14 1456.13 L1572.14 1467.2 Q1575.83 1460.71 1581.75 1457.59 Q1587.67 1454.41 1596.13 1454.41 Q1597.34 1454.41 1598.81 1454.6 Q1600.27 1454.73 1602.05 1455.05 L1602.12 1467.08 Z" fill="#000000" fill-rule="nonzero" fill-opacity="1" /><path clip-path="url(#clip320)" d="M1659.86 1458.23 L1659.86 1469.3 Q1654.89 1466.76 1649.54 1465.49 Q1644.2 1464.21 1638.47 1464.21 Q1629.75 1464.21 1625.35 1466.89 Q1621.02 1469.56 1621.02 1474.91 Q1621.02 1478.98 1624.14 1481.34 Q1627.26 1483.63 1636.68 1485.73 L1640.69 1486.62 Q1653.17 1489.29 1658.39 1494.19 Q1663.67 1499.03 1663.67 1507.75 Q1663.67 1517.68 1655.78 1523.48 Q1647.95 1529.27 1634.2 1529.27 Q1628.47 1529.27 1622.23 1528.12 Q1616.06 1527.04 1609.18 1524.81 L1609.18 1512.72 Q1615.68 1516.09 1621.98 1517.81 Q1628.28 1519.47 1634.46 1519.47 Q1642.73 1519.47 1647.19 1516.67 Q1651.64 1513.8 1651.64 1508.64 Q1651.64 1503.87 1648.4 1501.32 Q1645.21 1498.78 1634.33 1496.42 L1630.25 1495.47 Q1619.37 1493.18 1614.53 1488.47 Q1609.69 1483.69 1609.69 1475.42 Q1609.69 1465.36 1616.82 1459.88 Q1623.95 1454.41 1637.07 1454.41 Q1643.56 1454.41 1649.29 1455.36 Q1655.02 1456.32 1659.86 1458.23 Z" fill="#000000" fill-rule="nonzero" fill-opacity="1" /><polyline clip-path="url(#clip322)" style="stroke:#000000; stroke-linecap:round; stroke-linejoin:round; stroke-width:4; stroke-opacity:0.1; fill:none" points="673.506,1247.46 2305.51,1247.46 "/>
<polyline clip-path="url(#clip322)" style="stroke:#000000; stroke-linecap:round; stroke-linejoin:round; stroke-width:4; stroke-opacity:0.1; fill:none" points="673.506,1081.16 2305.51,1081.16 "/>
<polyline clip-path="url(#clip322)" style="stroke:#000000; stroke-linecap:round; stroke-linejoin:round; stroke-width:4; stroke-opacity:0.1; fill:none" points="673.506,914.861 2305.51,914.861 "/>
<polyline clip-path="url(#clip322)" style="stroke:#000000; stroke-linecap:round; stroke-linejoin:round; stroke-width:4; stroke-opacity:0.1; fill:none" points="673.506,748.559 2305.51,748.559 "/>
<polyline clip-path="url(#clip322)" style="stroke:#000000; stroke-linecap:round; stroke-linejoin:round; stroke-width:4; stroke-opacity:0.1; fill:none" points="673.506,582.257 2305.51,582.257 "/>
<polyline clip-path="url(#clip322)" style="stroke:#000000; stroke-linecap:round; stroke-linejoin:round; stroke-width:4; stroke-opacity:0.1; fill:none" points="673.506,415.956 2305.51,415.956 "/>
<polyline clip-path="url(#clip322)" style="stroke:#000000; stroke-linecap:round; stroke-linejoin:round; stroke-width:4; stroke-opacity:0.1; fill:none" points="673.506,249.654 2305.51,249.654 "/>
<polyline clip-path="url(#clip320)" style="stroke:#000000; stroke-linecap:round; stroke-linejoin:round; stroke-width:8; stroke-opacity:1; fill:none" points="673.506,1273.7 673.506,94.4882 "/>
<polyline clip-path="url(#clip320)" style="stroke:#000000; stroke-linecap:round; stroke-linejoin:round; stroke-width:8; stroke-opacity:1; fill:none" points="673.506,1247.46 692.404,1247.46 "/>
<polyline clip-path="url(#clip320)" style="stroke:#000000; stroke-linecap:round; stroke-linejoin:round; stroke-width:8; stroke-opacity:1; fill:none" points="673.506,1081.16 692.404,1081.16 "/>
<polyline clip-path="url(#clip320)" style="stroke:#000000; stroke-linecap:round; stroke-linejoin:round; stroke-width:8; stroke-opacity:1; fill:none" points="673.506,914.861 692.404,914.861 "/>
<polyline clip-path="url(#clip320)" style="stroke:#000000; stroke-linecap:round; stroke-linejoin:round; stroke-width:8; stroke-opacity:1; fill:none" points="673.506,748.559 692.404,748.559 "/>
<polyline clip-path="url(#clip320)" style="stroke:#000000; stroke-linecap:round; stroke-linejoin:round; stroke-width:8; stroke-opacity:1; fill:none" points="673.506,582.257 692.404,582.257 "/>
<polyline clip-path="url(#clip320)" style="stroke:#000000; stroke-linecap:round; stroke-linejoin:round; stroke-width:8; stroke-opacity:1; fill:none" points="673.506,415.956 692.404,415.956 "/>
<polyline clip-path="url(#clip320)" style="stroke:#000000; stroke-linecap:round; stroke-linejoin:round; stroke-width:8; stroke-opacity:1; fill:none" points="673.506,249.654 692.404,249.654 "/>
<path clip-path="url(#clip320)" d="M440.47 1212.9 L484.914 1212.9 L484.914 1216.89 L459.822 1282.02 L450.053 1282.02 L473.664 1220.77 L440.47 1220.77 L440.47 1212.9 Z" fill="#000000" fill-rule="nonzero" fill-opacity="1" /><path clip-path="url(#clip320)" d="M503.247 1212.9 L539.96 1212.9 L539.96 1220.77 L511.812 1220.77 L511.812 1237.72 Q513.849 1237.02 515.886 1236.7 Q517.923 1236.33 519.96 1236.33 Q531.534 1236.33 538.294 1242.67 Q545.053 1249.01 545.053 1259.85 Q545.053 1271.01 538.108 1277.21 Q531.164 1283.37 518.525 1283.37 Q514.173 1283.37 509.636 1282.63 Q505.146 1281.89 500.331 1280.4 L500.331 1271.01 Q504.497 1273.27 508.942 1274.39 Q513.386 1275.5 518.34 1275.5 Q526.349 1275.5 531.025 1271.28 Q535.701 1267.07 535.701 1259.85 Q535.701 1252.63 531.025 1248.41 Q526.349 1244.2 518.34 1244.2 Q514.59 1244.2 510.84 1245.03 Q507.136 1245.87 503.247 1247.63 L503.247 1212.9 Z" fill="#000000" fill-rule="nonzero" fill-opacity="1" /><path clip-path="url(#clip320)" d="M563.479 1270.26 L573.247 1270.26 L573.247 1282.02 L563.479 1282.02 L563.479 1270.26 Z" fill="#000000" fill-rule="nonzero" fill-opacity="1" /><path clip-path="url(#clip320)" d="M613.617 1219.06 Q606.395 1219.06 602.738 1226.19 Q599.127 1233.27 599.127 1247.53 Q599.127 1261.75 602.738 1268.88 Q606.395 1275.96 613.617 1275.96 Q620.886 1275.96 624.497 1268.88 Q628.154 1261.75 628.154 1247.53 Q628.154 1233.27 624.497 1226.19 Q620.886 1219.06 613.617 1219.06 M613.617 1211.65 Q625.238 1211.65 631.349 1220.87 Q637.506 1230.03 637.506 1247.53 Q637.506 1264.99 631.349 1274.2 Q625.238 1283.37 613.617 1283.37 Q601.997 1283.37 595.84 1274.2 Q589.728 1264.99 589.728 1247.53 Q589.728 1230.03 595.84 1220.87 Q601.997 1211.65 613.617 1211.65 Z" fill="#000000" fill-rule="nonzero" fill-opacity="1" /><path clip-path="url(#clip320)" d="M462.831 1082.9 Q456.164 1082.9 452.322 1086.46 Q448.525 1090.03 448.525 1096.28 Q448.525 1102.53 452.322 1106.09 Q456.164 1109.66 462.831 1109.66 Q469.498 1109.66 473.34 1106.09 Q477.183 1102.48 477.183 1096.28 Q477.183 1090.03 473.34 1086.46 Q469.544 1082.9 462.831 1082.9 M453.479 1078.92 Q447.461 1077.44 444.081 1073.32 Q440.748 1069.19 440.748 1063.27 Q440.748 1054.98 446.627 1050.17 Q452.553 1045.35 462.831 1045.35 Q473.155 1045.35 479.035 1050.17 Q484.914 1054.98 484.914 1063.27 Q484.914 1069.19 481.535 1073.32 Q478.201 1077.44 472.229 1078.92 Q478.988 1080.49 482.738 1085.07 Q486.535 1089.66 486.535 1096.28 Q486.535 1106.32 480.377 1111.69 Q474.266 1117.06 462.831 1117.06 Q451.396 1117.06 445.238 1111.69 Q439.127 1106.32 439.127 1096.28 Q439.127 1089.66 442.924 1085.07 Q446.72 1080.49 453.479 1078.92 M450.053 1064.15 Q450.053 1069.52 453.387 1072.53 Q456.766 1075.54 462.831 1075.54 Q468.849 1075.54 472.229 1072.53 Q475.655 1069.52 475.655 1064.15 Q475.655 1058.78 472.229 1055.77 Q468.849 1052.76 462.831 1052.76 Q456.766 1052.76 453.387 1055.77 Q450.053 1058.78 450.053 1064.15 Z" fill="#000000" fill-rule="nonzero" fill-opacity="1" /><path clip-path="url(#clip320)" d="M523.155 1052.76 Q515.933 1052.76 512.275 1059.89 Q508.664 1066.97 508.664 1081.23 Q508.664 1095.44 512.275 1102.57 Q515.933 1109.66 523.155 1109.66 Q530.423 1109.66 534.034 1102.57 Q537.692 1095.44 537.692 1081.23 Q537.692 1066.97 534.034 1059.89 Q530.423 1052.76 523.155 1052.76 M523.155 1045.35 Q534.775 1045.35 540.886 1054.57 Q547.043 1063.73 547.043 1081.23 Q547.043 1098.69 540.886 1107.9 Q534.775 1117.06 523.155 1117.06 Q511.534 1117.06 505.377 1107.9 Q499.266 1098.69 499.266 1081.23 Q499.266 1063.73 505.377 1054.57 Q511.534 1045.35 523.155 1045.35 Z" fill="#000000" fill-rule="nonzero" fill-opacity="1" /><path clip-path="url(#clip320)" d="M563.479 1103.96 L573.247 1103.96 L573.247 1115.72 L563.479 1115.72 L563.479 1103.96 Z" fill="#000000" fill-rule="nonzero" fill-opacity="1" /><path clip-path="url(#clip320)" d="M613.617 1052.76 Q606.395 1052.76 602.738 1059.89 Q599.127 1066.97 599.127 1081.23 Q599.127 1095.44 602.738 1102.57 Q606.395 1109.66 613.617 1109.66 Q620.886 1109.66 624.497 1102.57 Q628.154 1095.44 628.154 1081.23 Q628.154 1066.97 624.497 1059.89 Q620.886 1052.76 613.617 1052.76 M613.617 1045.35 Q625.238 1045.35 631.349 1054.57 Q637.506 1063.73 637.506 1081.23 Q637.506 1098.69 631.349 1107.9 Q625.238 1117.06 613.617 1117.06 Q601.997 1117.06 595.84 1107.9 Q589.728 1098.69 589.728 1081.23 Q589.728 1063.73 595.84 1054.57 Q601.997 1045.35 613.617 1045.35 Z" fill="#000000" fill-rule="nonzero" fill-opacity="1" /><path clip-path="url(#clip320)" d="M462.831 916.597 Q456.164 916.597 452.322 920.162 Q448.525 923.726 448.525 929.976 Q448.525 936.226 452.322 939.791 Q456.164 943.356 462.831 943.356 Q469.498 943.356 473.34 939.791 Q477.183 936.18 477.183 929.976 Q477.183 923.726 473.34 920.162 Q469.544 916.597 462.831 916.597 M453.479 912.615 Q447.461 911.134 444.081 907.013 Q440.748 902.893 440.748 896.967 Q440.748 888.68 446.627 883.865 Q452.553 879.051 462.831 879.051 Q473.155 879.051 479.035 883.865 Q484.914 888.68 484.914 896.967 Q484.914 902.893 481.535 907.013 Q478.201 911.134 472.229 912.615 Q478.988 914.189 482.738 918.773 Q486.535 923.356 486.535 929.976 Q486.535 940.023 480.377 945.393 Q474.266 950.763 462.831 950.763 Q451.396 950.763 445.238 945.393 Q439.127 940.023 439.127 929.976 Q439.127 923.356 442.924 918.773 Q446.72 914.189 453.479 912.615 M450.053 897.847 Q450.053 903.217 453.387 906.226 Q456.766 909.236 462.831 909.236 Q468.849 909.236 472.229 906.226 Q475.655 903.217 475.655 897.847 Q475.655 892.477 472.229 889.467 Q468.849 886.458 462.831 886.458 Q456.766 886.458 453.387 889.467 Q450.053 892.477 450.053 897.847 Z" fill="#000000" fill-rule="nonzero" fill-opacity="1" /><path clip-path="url(#clip320)" d="M503.247 880.301 L539.96 880.301 L539.96 888.171 L511.812 888.171 L511.812 905.115 Q513.849 904.421 515.886 904.097 Q517.923 903.726 519.96 903.726 Q531.534 903.726 538.294 910.069 Q545.053 916.412 545.053 927.245 Q545.053 938.402 538.108 944.606 Q531.164 950.763 518.525 950.763 Q514.173 950.763 509.636 950.022 Q505.146 949.282 500.331 947.8 L500.331 938.402 Q504.497 940.671 508.942 941.782 Q513.386 942.893 518.34 942.893 Q526.349 942.893 531.025 938.68 Q535.701 934.467 535.701 927.245 Q535.701 920.023 531.025 915.81 Q526.349 911.597 518.34 911.597 Q514.59 911.597 510.84 912.43 Q507.136 913.263 503.247 915.023 L503.247 880.301 Z" fill="#000000" fill-rule="nonzero" fill-opacity="1" /><path clip-path="url(#clip320)" d="M563.479 937.661 L573.247 937.661 L573.247 949.421 L563.479 949.421 L563.479 937.661 Z" fill="#000000" fill-rule="nonzero" fill-opacity="1" /><path clip-path="url(#clip320)" d="M613.617 886.458 Q606.395 886.458 602.738 893.588 Q599.127 900.671 599.127 914.93 Q599.127 929.143 602.738 936.273 Q606.395 943.356 613.617 943.356 Q620.886 943.356 624.497 936.273 Q628.154 929.143 628.154 914.93 Q628.154 900.671 624.497 893.588 Q620.886 886.458 613.617 886.458 M613.617 879.051 Q625.238 879.051 631.349 888.264 Q637.506 897.43 637.506 914.93 Q637.506 932.384 631.349 941.597 Q625.238 950.763 613.617 950.763 Q601.997 950.763 595.84 941.597 Q589.728 932.384 589.728 914.93 Q589.728 897.43 595.84 888.264 Q601.997 879.051 613.617 879.051 Z" fill="#000000" fill-rule="nonzero" fill-opacity="1" /><path clip-path="url(#clip320)" d="M443.109 781.684 L443.109 773.165 Q446.627 774.832 450.238 775.712 Q453.85 776.591 457.322 776.591 Q466.581 776.591 471.442 770.388 Q476.349 764.138 477.044 751.452 Q474.359 755.434 470.238 757.564 Q466.118 759.693 461.118 759.693 Q450.748 759.693 444.683 753.443 Q438.664 747.147 438.664 736.267 Q438.664 725.619 444.961 719.184 Q451.257 712.749 461.72 712.749 Q473.711 712.749 480.007 721.962 Q486.349 731.128 486.349 748.628 Q486.349 764.971 478.572 774.739 Q470.84 784.462 457.738 784.462 Q454.22 784.462 450.609 783.767 Q446.998 783.073 443.109 781.684 M461.72 752.378 Q468.016 752.378 471.674 748.073 Q475.377 743.767 475.377 736.267 Q475.377 728.814 471.674 724.508 Q468.016 720.156 461.72 720.156 Q455.424 720.156 451.72 724.508 Q448.063 728.814 448.063 736.267 Q448.063 743.767 451.72 748.073 Q455.424 752.378 461.72 752.378 Z" fill="#000000" fill-rule="nonzero" fill-opacity="1" /><path clip-path="url(#clip320)" d="M523.155 720.156 Q515.933 720.156 512.275 727.286 Q508.664 734.369 508.664 748.628 Q508.664 762.841 512.275 769.971 Q515.933 777.054 523.155 777.054 Q530.423 777.054 534.034 769.971 Q537.692 762.841 537.692 748.628 Q537.692 734.369 534.034 727.286 Q530.423 720.156 523.155 720.156 M523.155 712.749 Q534.775 712.749 540.886 721.962 Q547.043 731.128 547.043 748.628 Q547.043 766.082 540.886 775.295 Q534.775 784.462 523.155 784.462 Q511.534 784.462 505.377 775.295 Q499.266 766.082 499.266 748.628 Q499.266 731.128 505.377 721.962 Q511.534 712.749 523.155 712.749 Z" fill="#000000" fill-rule="nonzero" fill-opacity="1" /><path clip-path="url(#clip320)" d="M563.479 771.36 L573.247 771.36 L573.247 783.119 L563.479 783.119 L563.479 771.36 Z" fill="#000000" fill-rule="nonzero" fill-opacity="1" /><path clip-path="url(#clip320)" d="M613.617 720.156 Q606.395 720.156 602.738 727.286 Q599.127 734.369 599.127 748.628 Q599.127 762.841 602.738 769.971 Q606.395 777.054 613.617 777.054 Q620.886 777.054 624.497 769.971 Q628.154 762.841 628.154 748.628 Q628.154 734.369 624.497 727.286 Q620.886 720.156 613.617 720.156 M613.617 712.749 Q625.238 712.749 631.349 721.962 Q637.506 731.128 637.506 748.628 Q637.506 766.082 631.349 775.295 Q625.238 784.462 613.617 784.462 Q601.997 784.462 595.84 775.295 Q589.728 766.082 589.728 748.628 Q589.728 731.128 595.84 721.962 Q601.997 712.749 613.617 712.749 Z" fill="#000000" fill-rule="nonzero" fill-opacity="1" /><path clip-path="url(#clip320)" d="M443.109 615.382 L443.109 606.864 Q446.627 608.53 450.238 609.41 Q453.85 610.29 457.322 610.29 Q466.581 610.29 471.442 604.086 Q476.349 597.836 477.044 585.151 Q474.359 589.132 470.238 591.262 Q466.118 593.391 461.118 593.391 Q450.748 593.391 444.683 587.142 Q438.664 580.845 438.664 569.966 Q438.664 559.318 444.961 552.882 Q451.257 546.447 461.72 546.447 Q473.711 546.447 480.007 555.66 Q486.349 564.827 486.349 582.327 Q486.349 598.669 478.572 608.438 Q470.84 618.16 457.738 618.16 Q454.22 618.16 450.609 617.465 Q446.998 616.771 443.109 615.382 M461.72 586.077 Q468.016 586.077 471.674 581.771 Q475.377 577.466 475.377 569.966 Q475.377 562.512 471.674 558.206 Q468.016 553.855 461.72 553.855 Q455.424 553.855 451.72 558.206 Q448.063 562.512 448.063 569.966 Q448.063 577.466 451.72 581.771 Q455.424 586.077 461.72 586.077 Z" fill="#000000" fill-rule="nonzero" fill-opacity="1" /><path clip-path="url(#clip320)" d="M503.247 547.697 L539.96 547.697 L539.96 555.568 L511.812 555.568 L511.812 572.512 Q513.849 571.818 515.886 571.493 Q517.923 571.123 519.96 571.123 Q531.534 571.123 538.294 577.466 Q545.053 583.808 545.053 594.641 Q545.053 605.799 538.108 612.002 Q531.164 618.16 518.525 618.16 Q514.173 618.16 509.636 617.419 Q505.146 616.678 500.331 615.197 L500.331 605.799 Q504.497 608.067 508.942 609.178 Q513.386 610.29 518.34 610.29 Q526.349 610.29 531.025 606.077 Q535.701 601.864 535.701 594.641 Q535.701 587.419 531.025 583.206 Q526.349 578.993 518.34 578.993 Q514.59 578.993 510.84 579.827 Q507.136 580.66 503.247 582.419 L503.247 547.697 Z" fill="#000000" fill-rule="nonzero" fill-opacity="1" /><path clip-path="url(#clip320)" d="M563.479 605.058 L573.247 605.058 L573.247 616.817 L563.479 616.817 L563.479 605.058 Z" fill="#000000" fill-rule="nonzero" fill-opacity="1" /><path clip-path="url(#clip320)" d="M613.617 553.855 Q606.395 553.855 602.738 560.984 Q599.127 568.068 599.127 582.327 Q599.127 596.54 602.738 603.669 Q606.395 610.752 613.617 610.752 Q620.886 610.752 624.497 603.669 Q628.154 596.54 628.154 582.327 Q628.154 568.068 624.497 560.984 Q620.886 553.855 613.617 553.855 M613.617 546.447 Q625.238 546.447 631.349 555.66 Q637.506 564.827 637.506 582.327 Q637.506 599.78 631.349 608.993 Q625.238 618.16 613.617 618.16 Q601.997 618.16 595.84 608.993 Q589.728 599.78 589.728 582.327 Q589.728 564.827 595.84 555.66 Q601.997 546.447 613.617 546.447 Z" fill="#000000" fill-rule="nonzero" fill-opacity="1" /><path clip-path="url(#clip320)" d="M384.128 442.645 L399.405 442.645 L399.405 389.914 L382.785 393.247 L382.785 384.729 L399.313 381.396 L408.665 381.396 L408.665 442.645 L423.942 442.645 L423.942 450.516 L384.128 450.516 L384.128 442.645 Z" fill="#000000" fill-rule="nonzero" fill-opacity="1" /><path clip-path="url(#clip320)" d="M462.831 387.553 Q455.609 387.553 451.951 394.683 Q448.34 401.766 448.34 416.025 Q448.34 430.238 451.951 437.368 Q455.609 444.451 462.831 444.451 Q470.099 444.451 473.711 437.368 Q477.368 430.238 477.368 416.025 Q477.368 401.766 473.711 394.683 Q470.099 387.553 462.831 387.553 M462.831 380.146 Q474.451 380.146 480.562 389.359 Q486.72 398.525 486.72 416.025 Q486.72 433.479 480.562 442.692 Q474.451 451.858 462.831 451.858 Q451.211 451.858 445.053 442.692 Q438.942 433.479 438.942 416.025 Q438.942 398.525 445.053 389.359 Q451.211 380.146 462.831 380.146 Z" fill="#000000" fill-rule="nonzero" fill-opacity="1" /><path clip-path="url(#clip320)" d="M523.155 387.553 Q515.933 387.553 512.275 394.683 Q508.664 401.766 508.664 416.025 Q508.664 430.238 512.275 437.368 Q515.933 444.451 523.155 444.451 Q530.423 444.451 534.034 437.368 Q537.692 430.238 537.692 416.025 Q537.692 401.766 534.034 394.683 Q530.423 387.553 523.155 387.553 M523.155 380.146 Q534.775 380.146 540.886 389.359 Q547.043 398.525 547.043 416.025 Q547.043 433.479 540.886 442.692 Q534.775 451.858 523.155 451.858 Q511.534 451.858 505.377 442.692 Q499.266 433.479 499.266 416.025 Q499.266 398.525 505.377 389.359 Q511.534 380.146 523.155 380.146 Z" fill="#000000" fill-rule="nonzero" fill-opacity="1" /><path clip-path="url(#clip320)" d="M563.479 438.756 L573.247 438.756 L573.247 450.516 L563.479 450.516 L563.479 438.756 Z" fill="#000000" fill-rule="nonzero" fill-opacity="1" /><path clip-path="url(#clip320)" d="M613.617 387.553 Q606.395 387.553 602.738 394.683 Q599.127 401.766 599.127 416.025 Q599.127 430.238 602.738 437.368 Q606.395 444.451 613.617 444.451 Q620.886 444.451 624.497 437.368 Q628.154 430.238 628.154 416.025 Q628.154 401.766 624.497 394.683 Q620.886 387.553 613.617 387.553 M613.617 380.146 Q625.238 380.146 631.349 389.359 Q637.506 398.525 637.506 416.025 Q637.506 433.479 631.349 442.692 Q625.238 451.858 613.617 451.858 Q601.997 451.858 595.84 442.692 Q589.728 433.479 589.728 416.025 Q589.728 398.525 595.84 389.359 Q601.997 380.146 613.617 380.146 Z" fill="#000000" fill-rule="nonzero" fill-opacity="1" /><path clip-path="url(#clip320)" d="M384.128 276.344 L399.405 276.344 L399.405 223.612 L382.785 226.946 L382.785 218.427 L399.313 215.094 L408.665 215.094 L408.665 276.344 L423.942 276.344 L423.942 284.214 L384.128 284.214 L384.128 276.344 Z" fill="#000000" fill-rule="nonzero" fill-opacity="1" /><path clip-path="url(#clip320)" d="M462.831 221.251 Q455.609 221.251 451.951 228.381 Q448.34 235.464 448.34 249.723 Q448.34 263.936 451.951 271.066 Q455.609 278.149 462.831 278.149 Q470.099 278.149 473.711 271.066 Q477.368 263.936 477.368 249.723 Q477.368 235.464 473.711 228.381 Q470.099 221.251 462.831 221.251 M462.831 213.844 Q474.451 213.844 480.562 223.057 Q486.72 232.223 486.72 249.723 Q486.72 267.177 480.562 276.39 Q474.451 285.557 462.831 285.557 Q451.211 285.557 445.053 276.39 Q438.942 267.177 438.942 249.723 Q438.942 232.223 445.053 223.057 Q451.211 213.844 462.831 213.844 Z" fill="#000000" fill-rule="nonzero" fill-opacity="1" /><path clip-path="url(#clip320)" d="M503.247 215.094 L539.96 215.094 L539.96 222.964 L511.812 222.964 L511.812 239.909 Q513.849 239.214 515.886 238.89 Q517.923 238.52 519.96 238.52 Q531.534 238.52 538.294 244.862 Q545.053 251.205 545.053 262.038 Q545.053 273.195 538.108 279.399 Q531.164 285.557 518.525 285.557 Q514.173 285.557 509.636 284.816 Q505.146 284.075 500.331 282.594 L500.331 273.195 Q504.497 275.464 508.942 276.575 Q513.386 277.686 518.34 277.686 Q526.349 277.686 531.025 273.473 Q535.701 269.26 535.701 262.038 Q535.701 254.816 531.025 250.603 Q526.349 246.39 518.34 246.39 Q514.59 246.39 510.84 247.223 Q507.136 248.057 503.247 249.816 L503.247 215.094 Z" fill="#000000" fill-rule="nonzero" fill-opacity="1" /><path clip-path="url(#clip320)" d="M563.479 272.455 L573.247 272.455 L573.247 284.214 L563.479 284.214 L563.479 272.455 Z" fill="#000000" fill-rule="nonzero" fill-opacity="1" /><path clip-path="url(#clip320)" d="M613.617 221.251 Q606.395 221.251 602.738 228.381 Q599.127 235.464 599.127 249.723 Q599.127 263.936 602.738 271.066 Q606.395 278.149 613.617 278.149 Q620.886 278.149 624.497 271.066 Q628.154 263.936 628.154 249.723 Q628.154 235.464 624.497 228.381 Q620.886 221.251 613.617 221.251 M613.617 213.844 Q625.238 213.844 631.349 223.057 Q637.506 232.223 637.506 249.723 Q637.506 267.177 631.349 276.39 Q625.238 285.557 613.617 285.557 Q601.997 285.557 595.84 276.39 Q589.728 267.177 589.728 249.723 Q589.728 232.223 595.84 223.057 Q601.997 213.844 613.617 213.844 Z" fill="#000000" fill-rule="nonzero" fill-opacity="1" /><path clip-path="url(#clip320)" d="M307.579 931.845 L345.391 931.845 L345.391 943.622 L246.977 943.622 L246.977 931.845 L257.799 931.845 Q251.433 928.153 248.378 922.551 Q245.258 916.886 245.258 909.056 Q245.258 896.07 255.571 887.986 Q265.883 879.837 282.689 879.837 Q299.494 879.837 309.807 887.986 Q320.119 896.07 320.119 909.056 Q320.119 916.886 317.064 922.551 Q313.944 928.153 307.579 931.845 M282.689 891.996 Q269.766 891.996 262.446 897.343 Q255.062 902.627 255.062 911.921 Q255.062 921.215 262.446 926.562 Q269.766 931.845 282.689 931.845 Q295.611 931.845 302.995 926.562 Q310.316 921.215 310.316 911.921 Q310.316 902.627 302.995 897.343 Q295.611 891.996 282.689 891.996 Z" fill="#000000" fill-rule="nonzero" fill-opacity="1" /><path clip-path="url(#clip320)" d="M282.434 828.021 Q282.434 842.216 285.681 847.691 Q288.927 853.165 296.757 853.165 Q302.995 853.165 306.688 849.091 Q310.316 844.953 310.316 837.887 Q310.316 828.148 303.441 822.291 Q296.502 816.371 285.044 816.371 L282.434 816.371 L282.434 828.021 M277.596 804.658 L318.273 804.658 L318.273 816.371 L307.451 816.371 Q313.944 820.382 317.064 826.366 Q320.119 832.349 320.119 841.007 Q320.119 851.956 314.008 858.449 Q307.833 864.878 297.521 864.878 Q285.49 864.878 279.379 856.857 Q273.268 848.773 273.268 832.795 L273.268 816.371 L272.122 816.371 Q264.037 816.371 259.645 821.719 Q255.189 827.002 255.189 836.614 Q255.189 842.725 256.653 848.518 Q258.117 854.311 261.045 859.658 L250.224 859.658 Q247.741 853.229 246.532 847.181 Q245.258 841.134 245.258 835.405 Q245.258 819.936 253.279 812.297 Q261.3 804.658 277.596 804.658 Z" fill="#000000" fill-rule="nonzero" fill-opacity="1" /><path clip-path="url(#clip320)" d="M257.926 739.219 Q256.78 741.192 256.271 743.548 Q255.698 745.839 255.698 748.64 Q255.698 758.571 262.191 763.918 Q268.621 769.201 280.715 769.201 L318.273 769.201 L318.273 780.978 L246.977 780.978 L246.977 769.201 L258.054 769.201 Q251.561 765.509 248.441 759.589 Q245.258 753.669 245.258 745.203 Q245.258 743.993 245.449 742.529 Q245.577 741.065 245.895 739.283 L257.926 739.219 Z" fill="#000000" fill-rule="nonzero" fill-opacity="1" /><path clip-path="url(#clip320)" d="M279.697 668.814 L285.426 668.814 L285.426 722.668 Q297.521 721.904 303.887 715.411 Q310.189 708.855 310.189 697.205 Q310.189 690.458 308.534 684.156 Q306.878 677.79 303.568 671.552 L314.645 671.552 Q317.318 677.854 318.719 684.474 Q320.119 691.094 320.119 697.906 Q320.119 714.966 310.189 724.96 Q300.258 734.89 283.325 734.89 Q265.82 734.89 255.571 725.469 Q245.258 715.984 245.258 699.943 Q245.258 685.556 254.552 677.217 Q263.783 668.814 279.697 668.814 M276.259 680.527 Q266.647 680.654 260.918 685.938 Q255.189 691.158 255.189 699.815 Q255.189 709.618 260.727 715.539 Q266.265 721.395 276.323 722.286 L276.259 680.527 Z" fill="#000000" fill-rule="nonzero" fill-opacity="1" /><path clip-path="url(#clip320)" d="M275.241 590.325 L318.273 590.325 L318.273 602.038 L275.623 602.038 Q265.501 602.038 260.472 605.985 Q255.444 609.931 255.444 617.825 Q255.444 627.31 261.491 632.784 Q267.538 638.259 277.978 638.259 L318.273 638.259 L318.273 650.035 L246.977 650.035 L246.977 638.259 L258.054 638.259 Q251.624 634.058 248.441 628.392 Q245.258 622.663 245.258 615.215 Q245.258 602.929 252.897 596.627 Q260.472 590.325 275.241 590.325 Z" fill="#000000" fill-rule="nonzero" fill-opacity="1" /><path clip-path="url(#clip320)" d="M302.104 565.308 L302.104 551.876 L318.273 551.876 L318.273 565.308 L302.104 565.308 Z" fill="#000000" fill-rule="nonzero" fill-opacity="1" /><path clip-path="url(#clip320)" d="M223.233 485.673 L223.233 424.562 L228.708 424.562 L318.273 459.064 L318.273 472.496 L234.055 440.031 L234.055 485.673 L223.233 485.673 Z" fill="#000000" fill-rule="nonzero" fill-opacity="1" /><polyline clip-path="url(#clip322)" style="stroke:#008000; stroke-linecap:round; stroke-linejoin:round; stroke-width:8; stroke-opacity:1; fill:none" points="719.695,1142.03 829.668,894.459 939.642,433.252 1049.62,590.659 1159.59,368.064 1269.56,264.624 1379.54,127.862 1489.51,252.845 1599.48,324.512 1709.46,350.085 1819.43,297.792 1929.4,397.698 2039.38,325.814 2149.35,632.258 2259.32,563.567 "/>
<circle clip-path="url(#clip322)" cx="719.695" cy="1142.03" r="14.4" fill="#008000" fill-rule="evenodd" fill-opacity="1" stroke="#000000" stroke-opacity="1" stroke-width="6.4"/>
<circle clip-path="url(#clip322)" cx="829.668" cy="894.459" r="14.4" fill="#008000" fill-rule="evenodd" fill-opacity="1" stroke="#000000" stroke-opacity="1" stroke-width="6.4"/>
<circle clip-path="url(#clip322)" cx="939.642" cy="433.252" r="14.4" fill="#008000" fill-rule="evenodd" fill-opacity="1" stroke="#000000" stroke-opacity="1" stroke-width="6.4"/>
<circle clip-path="url(#clip322)" cx="1049.62" cy="590.659" r="14.4" fill="#008000" fill-rule="evenodd" fill-opacity="1" stroke="#000000" stroke-opacity="1" stroke-width="6.4"/>
<circle clip-path="url(#clip322)" cx="1159.59" cy="368.064" r="14.4" fill="#008000" fill-rule="evenodd" fill-opacity="1" stroke="#000000" stroke-opacity="1" stroke-width="6.4"/>
<circle clip-path="url(#clip322)" cx="1269.56" cy="264.624" r="14.4" fill="#008000" fill-rule="evenodd" fill-opacity="1" stroke="#000000" stroke-opacity="1" stroke-width="6.4"/>
<circle clip-path="url(#clip322)" cx="1379.54" cy="127.862" r="14.4" fill="#008000" fill-rule="evenodd" fill-opacity="1" stroke="#000000" stroke-opacity="1" stroke-width="6.4"/>
<circle clip-path="url(#clip322)" cx="1489.51" cy="252.845" r="14.4" fill="#008000" fill-rule="evenodd" fill-opacity="1" stroke="#000000" stroke-opacity="1" stroke-width="6.4"/>
<circle clip-path="url(#clip322)" cx="1599.48" cy="324.512" r="14.4" fill="#008000" fill-rule="evenodd" fill-opacity="1" stroke="#000000" stroke-opacity="1" stroke-width="6.4"/>
<circle clip-path="url(#clip322)" cx="1709.46" cy="350.085" r="14.4" fill="#008000" fill-rule="evenodd" fill-opacity="1" stroke="#000000" stroke-opacity="1" stroke-width="6.4"/>
<circle clip-path="url(#clip322)" cx="1819.43" cy="297.792" r="14.4" fill="#008000" fill-rule="evenodd" fill-opacity="1" stroke="#000000" stroke-opacity="1" stroke-width="6.4"/>
<circle clip-path="url(#clip322)" cx="1929.4" cy="397.698" r="14.4" fill="#008000" fill-rule="evenodd" fill-opacity="1" stroke="#000000" stroke-opacity="1" stroke-width="6.4"/>
<circle clip-path="url(#clip322)" cx="2039.38" cy="325.814" r="14.4" fill="#008000" fill-rule="evenodd" fill-opacity="1" stroke="#000000" stroke-opacity="1" stroke-width="6.4"/>
<circle clip-path="url(#clip322)" cx="2149.35" cy="632.258" r="14.4" fill="#008000" fill-rule="evenodd" fill-opacity="1" stroke="#000000" stroke-opacity="1" stroke-width="6.4"/>
<circle clip-path="url(#clip322)" cx="2259.32" cy="563.567" r="14.4" fill="#008000" fill-rule="evenodd" fill-opacity="1" stroke="#000000" stroke-opacity="1" stroke-width="6.4"/>
<polyline clip-path="url(#clip322)" style="stroke:#00008b; stroke-linecap:round; stroke-linejoin:round; stroke-width:8; stroke-opacity:1; fill:none" points="719.695,1143.79 829.668,758.231 939.642,567.616 1049.62,452.431 1159.59,367.544 1269.56,325.01 1379.54,304.147 1489.51,307.969 1599.48,323.329 1709.46,350.277 1819.43,380.189 1929.4,430.264 2039.38,479.82 2149.35,540.67 2259.32,595.172 "/>
<path clip-path="url(#clip322)" d="M719.695 1240.32 L829.668 858.305 L939.642 670.559 L1049.62 555.023 L1159.59 473.478 L1269.56 424.833 L1379.54 410.022 L1489.51 416.14 L1599.48 427.864 L1709.46 457.136 L1819.43 488.794 L1929.4 526.932 L2039.38 577.916 L2149.35 642.324 L2259.32 696.499 L2259.32 493.97 L2149.35 442.601 L2039.38 377.266 L1929.4 324.622 L1819.43 279.974 L1709.46 248.752 L1599.48 217.087 L1489.51 200.562 L1379.54 202.015 L1269.56 218.617 L1159.59 263.397 L1049.62 342.947 L939.642 463.931 L829.668 659.633 L719.695 1043.19  Z" fill="#0000ff" fill-rule="evenodd" fill-opacity="0.1"/>
<polyline clip-path="url(#clip322)" style="stroke:#0000ff; stroke-linecap:round; stroke-linejoin:round; stroke-width:0; stroke-opacity:0.1; fill:none" points="719.695,1240.32 829.668,858.305 939.642,670.559 1049.62,555.023 1159.59,473.478 1269.56,424.833 1379.54,410.022 1489.51,416.14 1599.48,427.864 1709.46,457.136 1819.43,488.794 1929.4,526.932 2039.38,577.916 2149.35,642.324 2259.32,696.499 "/>
</svg>
