<?xml version="1.0" encoding="utf-8"?>
<svg xmlns="http://www.w3.org/2000/svg" xmlns:xlink="http://www.w3.org/1999/xlink" width="600" height="400" viewBox="0 0 2400 1600">
<defs>
  <clipPath id="clip280">
    <rect x="0" y="0" width="2400" height="1600"/>
  </clipPath>
</defs>
<path clip-path="url(#clip280)" d="M0 1600 L2400 1600 L2400 0 L0 0  Z" fill="#ffffff" fill-rule="evenodd" fill-opacity="1"/>
<defs>
  <clipPath id="clip281">
    <rect x="480" y="0" width="1681" height="1600"/>
  </clipPath>
</defs>
<path clip-path="url(#clip280)" d="M673.506 1273.7 L2305.51 1273.7 L2305.51 94.4882 L673.506 94.4882  Z" fill="#ffffff" fill-rule="evenodd" fill-opacity="1"/>
<defs>
  <clipPath id="clip282">
    <rect x="673" y="94" width="1633" height="1180"/>
  </clipPath>
</defs>
<polyline clip-path="url(#clip282)" style="stroke:#000000; stroke-linecap:round; stroke-linejoin:round; stroke-width:4; stroke-opacity:0.1; fill:none" points="719.695,1273.7 719.695,94.4882 "/>
<polyline clip-path="url(#clip282)" style="stroke:#000000; stroke-linecap:round; stroke-linejoin:round; stroke-width:4; stroke-opacity:0.1; fill:none" points="994.628,1273.7 994.628,94.4882 "/>
<polyline clip-path="url(#clip282)" style="stroke:#000000; stroke-linecap:round; stroke-linejoin:round; stroke-width:4; stroke-opacity:0.1; fill:none" points="1269.56,1273.7 1269.56,94.4882 "/>
<polyline clip-path="url(#clip282)" style="stroke:#000000; stroke-linecap:round; stroke-linejoin:round; stroke-width:4; stroke-opacity:0.1; fill:none" points="1544.5,1273.7 1544.5,94.4882 "/>
<polyline clip-path="url(#clip282)" style="stroke:#000000; stroke-linecap:round; stroke-linejoin:round; stroke-width:4; stroke-opacity:0.1; fill:none" points="1819.43,1273.7 1819.43,94.4882 "/>
<polyline clip-path="url(#clip282)" style="stroke:#000000; stroke-linecap:round; stroke-linejoin:round; stroke-width:4; stroke-opacity:0.1; fill:none" points="2094.36,1273.7 2094.36,94.4882 "/>
<polyline clip-path="url(#clip280)" style="stroke:#000000; stroke-linecap:round; stroke-linejoin:round; stroke-width:8; stroke-opacity:1; fill:none" points="673.506,1273.7 2305.51,1273.7 "/>
<polyline clip-path="url(#clip280)" style="stroke:#000000; stroke-linecap:round; stroke-linejoin:round; stroke-width:8; stroke-opacity:1; fill:none" points="719.695,1273.7 719.695,1254.8 "/>
<polyline clip-path="url(#clip280)" style="stroke:#000000; stroke-linecap:round; stroke-linejoin:round; stroke-width:8; stroke-opacity:1; fill:none" points="994.628,1273.7 994.628,1254.8 "/>
<polyline clip-path="url(#clip280)" style="stroke:#000000; stroke-linecap:round; stroke-linejoin:round; stroke-width:8; stroke-opacity:1; fill:none" points="1269.56,1273.7 1269.56,1254.8 "/>
<polyline clip-path="url(#clip280)" style="stroke:#000000; stroke-linecap:round; stroke-linejoin:round; stroke-width:8; stroke-opacity:1; fill:none" points="1544.5,1273.7 1544.5,1254.8 "/>
<polyline clip-path="url(#clip280)" style="stroke:#000000; stroke-linecap:round; stroke-linejoin:round; stroke-width:8; stroke-opacity:1; fill:none" points="1819.43,1273.7 1819.43,1254.8 "/>
<polyline clip-path="url(#clip280)" style="stroke:#000000; stroke-linecap:round; stroke-linejoin:round; stroke-width:8; stroke-opacity:1; fill:none" points="2094.36,1273.7 2094.36,1254.8 "/>
<path clip-path="url(#clip280)" d="M644.302 1316.33 Q637.08 1316.33 633.422 1323.46 Q629.811 1330.55 629.811 1344.81 Q629.811 1359.02 633.422 1366.15 Q637.08 1373.23 644.302 1373.23 Q651.57 1373.23 655.181 1366.15 Q658.839 1359.02 658.839 1344.81 Q658.839 1330.55 655.181 1323.46 Q651.57 1316.33 644.302 1316.33 M644.302 1308.93 Q655.922 1308.93 662.033 1318.14 Q668.19 1327.31 668.19 1344.81 Q668.19 1362.26 662.033 1371.47 Q655.922 1380.64 644.302 1380.64 Q632.681 1380.64 626.524 1371.47 Q620.413 1362.26 620.413 1344.81 Q620.413 1327.31 626.524 1318.14 Q632.681 1308.93 644.302 1308.93 Z" fill="#000000" fill-rule="nonzero" fill-opacity="1" /><path clip-path="url(#clip280)" d="M684.626 1367.54 L694.394 1367.54 L694.394 1379.3 L684.626 1379.3 L684.626 1367.54 Z" fill="#000000" fill-rule="nonzero" fill-opacity="1" /><path clip-path="url(#clip280)" d="M734.764 1316.33 Q727.542 1316.33 723.885 1323.46 Q720.274 1330.55 720.274 1344.81 Q720.274 1359.02 723.885 1366.15 Q727.542 1373.23 734.764 1373.23 Q742.033 1373.23 745.644 1366.15 Q749.301 1359.02 749.301 1344.81 Q749.301 1330.55 745.644 1323.46 Q742.033 1316.33 734.764 1316.33 M734.764 1308.93 Q746.384 1308.93 752.496 1318.14 Q758.653 1327.31 758.653 1344.81 Q758.653 1362.26 752.496 1371.47 Q746.384 1380.64 734.764 1380.64 Q723.144 1380.64 716.986 1371.47 Q710.875 1362.26 710.875 1344.81 Q710.875 1327.31 716.986 1318.14 Q723.144 1308.93 734.764 1308.93 Z" fill="#000000" fill-rule="nonzero" fill-opacity="1" /><path clip-path="url(#clip280)" d="M795.088 1316.33 Q787.866 1316.33 784.208 1323.46 Q780.597 1330.55 780.597 1344.81 Q780.597 1359.02 784.208 1366.15 Q787.866 1373.23 795.088 1373.23 Q802.356 1373.23 805.967 1366.15 Q809.625 1359.02 809.625 1344.81 Q809.625 1330.55 805.967 1323.46 Q802.356 1316.33 795.088 1316.33 M795.088 1308.93 Q806.708 1308.93 812.819 1318.14 Q818.977 1327.31 818.977 1344.81 Q818.977 1362.26 812.819 1371.47 Q806.708 1380.64 795.088 1380.64 Q783.468 1380.64 777.31 1371.47 Q771.199 1362.26 771.199 1344.81 Q771.199 1327.31 777.31 1318.14 Q783.468 1308.93 795.088 1308.93 Z" fill="#000000" fill-rule="nonzero" fill-opacity="1" /><path clip-path="url(#clip280)" d="M920.231 1316.33 Q913.008 1316.33 909.351 1323.46 Q905.74 1330.55 905.74 1344.81 Q905.74 1359.02 909.351 1366.15 Q913.008 1373.23 920.231 1373.23 Q927.499 1373.23 931.11 1366.15 Q934.768 1359.02 934.768 1344.81 Q934.768 1330.55 931.11 1323.46 Q927.499 1316.33 920.231 1316.33 M920.231 1308.93 Q931.851 1308.93 937.962 1318.14 Q944.119 1327.31 944.119 1344.81 Q944.119 1362.26 937.962 1371.47 Q931.851 1380.64 920.231 1380.64 Q908.61 1380.64 902.453 1371.47 Q896.342 1362.26 896.342 1344.81 Q896.342 1327.31 902.453 1318.14 Q908.61 1308.93 920.231 1308.93 Z" fill="#000000" fill-rule="nonzero" fill-opacity="1" /><path clip-path="url(#clip280)" d="M960.555 1367.54 L970.323 1367.54 L970.323 1379.3 L960.555 1379.3 L960.555 1367.54 Z" fill="#000000" fill-rule="nonzero" fill-opacity="1" /><path clip-path="url(#clip280)" d="M998.749 1371.43 L1031.39 1371.43 L1031.39 1379.3 L987.499 1379.3 L987.499 1371.43 Q992.823 1365.92 1001.99 1356.66 Q1011.2 1347.35 1013.56 1344.67 Q1018.05 1339.62 1019.81 1336.15 Q1021.62 1332.63 1021.62 1329.25 Q1021.62 1323.74 1017.73 1320.27 Q1013.89 1316.8 1007.68 1316.8 Q1003.29 1316.8 998.378 1318.32 Q993.517 1319.85 987.962 1322.95 L987.962 1313.51 Q993.61 1311.24 998.517 1310.08 Q1003.42 1308.93 1007.5 1308.93 Q1018.24 1308.93 1024.63 1314.3 Q1031.02 1319.67 1031.02 1328.65 Q1031.02 1332.91 1029.4 1336.75 Q1027.82 1340.55 1023.61 1345.73 Q1022.45 1347.07 1016.25 1353.51 Q1010.04 1359.9 998.749 1371.43 Z" fill="#000000" fill-rule="nonzero" fill-opacity="1" /><path clip-path="url(#clip280)" d="M1051.11 1310.18 L1087.82 1310.18 L1087.82 1318.05 L1059.67 1318.05 L1059.67 1334.99 Q1061.71 1334.3 1063.75 1333.97 Q1065.79 1333.6 1067.82 1333.6 Q1079.4 1333.6 1086.16 1339.94 Q1092.91 1346.29 1092.91 1357.12 Q1092.91 1368.28 1085.97 1374.48 Q1079.03 1380.64 1066.39 1380.64 Q1062.04 1380.64 1057.5 1379.9 Q1053.01 1379.16 1048.19 1377.68 L1048.19 1368.28 Q1052.36 1370.55 1056.8 1371.66 Q1061.25 1372.77 1066.2 1372.77 Q1074.21 1372.77 1078.89 1368.56 Q1083.56 1364.34 1083.56 1357.12 Q1083.56 1349.9 1078.89 1345.68 Q1074.21 1341.47 1066.2 1341.47 Q1062.45 1341.47 1058.7 1342.31 Q1055 1343.14 1051.11 1344.9 L1051.11 1310.18 Z" fill="#000000" fill-rule="nonzero" fill-opacity="1" /><path clip-path="url(#clip280)" d="M1194.17 1316.33 Q1186.95 1316.33 1183.29 1323.46 Q1179.68 1330.55 1179.68 1344.81 Q1179.68 1359.02 1183.29 1366.15 Q1186.95 1373.23 1194.17 1373.23 Q1201.44 1373.23 1205.05 1366.15 Q1208.71 1359.02 1208.71 1344.81 Q1208.71 1330.55 1205.05 1323.46 Q1201.44 1316.33 1194.17 1316.33 M1194.17 1308.93 Q1205.79 1308.93 1211.9 1318.14 Q1218.06 1327.31 1218.06 1344.81 Q1218.06 1362.26 1211.9 1371.47 Q1205.79 1380.64 1194.17 1380.64 Q1182.55 1380.64 1176.39 1371.47 Q1170.28 1362.26 1170.28 1344.81 Q1170.28 1327.31 1176.39 1318.14 Q1182.55 1308.93 1194.17 1308.93 Z" fill="#000000" fill-rule="nonzero" fill-opacity="1" /><path clip-path="url(#clip280)" d="M1234.49 1367.54 L1244.26 1367.54 L1244.26 1379.3 L1234.49 1379.3 L1234.49 1367.54 Z" fill="#000000" fill-rule="nonzero" fill-opacity="1" /><path clip-path="url(#clip280)" d="M1264.72 1310.18 L1301.44 1310.18 L1301.44 1318.05 L1273.29 1318.05 L1273.29 1334.99 Q1275.33 1334.3 1277.36 1333.97 Q1279.4 1333.6 1281.44 1333.6 Q1293.01 1333.6 1299.77 1339.94 Q1306.53 1346.29 1306.53 1357.12 Q1306.53 1368.28 1299.58 1374.48 Q1292.64 1380.64 1280 1380.64 Q1275.65 1380.64 1271.11 1379.9 Q1266.62 1379.16 1261.81 1377.68 L1261.81 1368.28 Q1265.97 1370.55 1270.42 1371.66 Q1274.86 1372.77 1279.82 1372.77 Q1287.83 1372.77 1292.5 1368.56 Q1297.18 1364.34 1297.18 1357.12 Q1297.18 1349.9 1292.5 1345.68 Q1287.83 1341.47 1279.82 1341.47 Q1276.07 1341.47 1272.32 1342.31 Q1268.61 1343.14 1264.72 1344.9 L1264.72 1310.18 Z" fill="#000000" fill-rule="nonzero" fill-opacity="1" /><path clip-path="url(#clip280)" d="M1344.96 1316.33 Q1337.73 1316.33 1334.08 1323.46 Q1330.46 1330.55 1330.46 1344.81 Q1330.46 1359.02 1334.08 1366.15 Q1337.73 1373.23 1344.96 1373.23 Q1352.22 1373.23 1355.83 1366.15 Q1359.49 1359.02 1359.49 1344.81 Q1359.49 1330.55 1355.83 1323.46 Q1352.22 1316.33 1344.96 1316.33 M1344.96 1308.93 Q1356.58 1308.93 1362.69 1318.14 Q1368.84 1327.31 1368.84 1344.81 Q1368.84 1362.26 1362.69 1371.47 Q1356.58 1380.64 1344.96 1380.64 Q1333.33 1380.64 1327.18 1371.47 Q1321.07 1362.26 1321.07 1344.81 Q1321.07 1327.31 1327.18 1318.14 Q1333.33 1308.93 1344.96 1308.93 Z" fill="#000000" fill-rule="nonzero" fill-opacity="1" /><path clip-path="url(#clip280)" d="M1470.1 1316.33 Q1462.88 1316.33 1459.22 1323.46 Q1455.61 1330.55 1455.61 1344.81 Q1455.61 1359.02 1459.22 1366.15 Q1462.88 1373.23 1470.1 1373.23 Q1477.37 1373.23 1480.98 1366.15 Q1484.63 1359.02 1484.63 1344.81 Q1484.63 1330.55 1480.98 1323.46 Q1477.37 1316.33 1470.1 1316.33 M1470.1 1308.93 Q1481.72 1308.93 1487.83 1318.14 Q1493.99 1327.31 1493.99 1344.81 Q1493.99 1362.26 1487.83 1371.47 Q1481.72 1380.64 1470.1 1380.64 Q1458.48 1380.64 1452.32 1371.47 Q1446.21 1362.26 1446.21 1344.81 Q1446.21 1327.31 1452.32 1318.14 Q1458.48 1308.93 1470.1 1308.93 Z" fill="#000000" fill-rule="nonzero" fill-opacity="1" /><path clip-path="url(#clip280)" d="M1510.42 1367.54 L1520.19 1367.54 L1520.19 1379.3 L1510.42 1379.3 L1510.42 1367.54 Z" fill="#000000" fill-rule="nonzero" fill-opacity="1" /><path clip-path="url(#clip280)" d="M1538.2 1310.18 L1582.64 1310.18 L1582.64 1314.16 L1557.55 1379.3 L1547.78 1379.3 L1571.39 1318.05 L1538.2 1318.05 L1538.2 1310.18 Z" fill="#000000" fill-rule="nonzero" fill-opacity="1" /><path clip-path="url(#clip280)" d="M1600.98 1310.18 L1637.69 1310.18 L1637.69 1318.05 L1609.54 1318.05 L1609.54 1334.99 Q1611.58 1334.3 1613.62 1333.97 Q1615.65 1333.6 1617.69 1333.6 Q1629.26 1333.6 1636.02 1339.94 Q1642.78 1346.29 1642.78 1357.12 Q1642.78 1368.28 1635.84 1374.48 Q1628.89 1380.64 1616.25 1380.64 Q1611.9 1380.64 1607.37 1379.9 Q1602.87 1379.16 1598.06 1377.68 L1598.06 1368.28 Q1602.23 1370.55 1606.67 1371.66 Q1611.12 1372.77 1616.07 1372.77 Q1624.08 1372.77 1628.75 1368.56 Q1633.43 1364.34 1633.43 1357.12 Q1633.43 1349.9 1628.75 1345.68 Q1624.08 1341.47 1616.07 1341.47 Q1612.32 1341.47 1608.57 1342.31 Q1604.87 1343.14 1600.98 1344.9 L1600.98 1310.18 Z" fill="#000000" fill-rule="nonzero" fill-opacity="1" /><path clip-path="url(#clip280)" d="M1723.57 1371.43 L1738.85 1371.43 L1738.85 1318.69 L1722.23 1322.03 L1722.23 1313.51 L1738.76 1310.18 L1748.11 1310.18 L1748.11 1371.43 L1763.39 1371.43 L1763.39 1379.3 L1723.57 1379.3 L1723.57 1371.43 Z" fill="#000000" fill-rule="nonzero" fill-opacity="1" /><path clip-path="url(#clip280)" d="M1782.28 1367.54 L1792.05 1367.54 L1792.05 1379.3 L1782.28 1379.3 L1782.28 1367.54 Z" fill="#000000" fill-rule="nonzero" fill-opacity="1" /><path clip-path="url(#clip280)" d="M1832.42 1316.33 Q1825.19 1316.33 1821.54 1323.46 Q1817.92 1330.55 1817.92 1344.81 Q1817.92 1359.02 1821.54 1366.15 Q1825.19 1373.23 1832.42 1373.23 Q1839.68 1373.23 1843.29 1366.15 Q1846.95 1359.02 1846.95 1344.81 Q1846.95 1330.55 1843.29 1323.46 Q1839.68 1316.33 1832.42 1316.33 M1832.42 1308.93 Q1844.04 1308.93 1850.15 1318.14 Q1856.3 1327.31 1856.3 1344.81 Q1856.3 1362.26 1850.15 1371.47 Q1844.04 1380.64 1832.42 1380.64 Q1820.79 1380.64 1814.64 1371.47 Q1808.53 1362.26 1808.53 1344.81 Q1808.53 1327.31 1814.64 1318.14 Q1820.79 1308.93 1832.42 1308.93 Z" fill="#000000" fill-rule="nonzero" fill-opacity="1" /><path clip-path="url(#clip280)" d="M1892.74 1316.33 Q1885.52 1316.33 1881.86 1323.46 Q1878.25 1330.55 1878.25 1344.81 Q1878.25 1359.02 1881.86 1366.15 Q1885.52 1373.23 1892.74 1373.23 Q1900.01 1373.23 1903.62 1366.15 Q1907.28 1359.02 1907.28 1344.81 Q1907.28 1330.55 1903.62 1323.46 Q1900.01 1316.33 1892.74 1316.33 M1892.74 1308.93 Q1904.36 1308.93 1910.47 1318.14 Q1916.63 1327.31 1916.63 1344.81 Q1916.63 1362.26 1910.47 1371.47 Q1904.36 1380.64 1892.74 1380.64 Q1881.12 1380.64 1874.96 1371.47 Q1868.85 1362.26 1868.85 1344.81 Q1868.85 1327.31 1874.96 1318.14 Q1881.12 1308.93 1892.74 1308.93 Z" fill="#000000" fill-rule="nonzero" fill-opacity="1" /><path clip-path="url(#clip280)" d="M1999.5 1371.43 L2014.78 1371.43 L2014.78 1318.69 L1998.16 1322.03 L1998.16 1313.51 L2014.69 1310.18 L2024.04 1310.18 L2024.04 1371.43 L2039.32 1371.43 L2039.32 1379.3 L1999.5 1379.3 L1999.5 1371.43 Z" fill="#000000" fill-rule="nonzero" fill-opacity="1" /><path clip-path="url(#clip280)" d="M2058.21 1367.54 L2067.97 1367.54 L2067.97 1379.3 L2058.21 1379.3 L2058.21 1367.54 Z" fill="#000000" fill-rule="nonzero" fill-opacity="1" /><path clip-path="url(#clip280)" d="M2096.4 1371.43 L2129.04 1371.43 L2129.04 1379.3 L2085.15 1379.3 L2085.15 1371.43 Q2090.47 1365.92 2099.64 1356.66 Q2108.85 1347.35 2111.21 1344.67 Q2115.71 1339.62 2117.46 1336.15 Q2119.27 1332.63 2119.27 1329.25 Q2119.27 1323.74 2115.38 1320.27 Q2111.54 1316.8 2105.33 1316.8 Q2100.94 1316.8 2096.03 1318.32 Q2091.17 1319.85 2085.61 1322.95 L2085.61 1313.51 Q2091.26 1311.24 2096.17 1310.08 Q2101.08 1308.93 2105.15 1308.93 Q2115.89 1308.93 2122.28 1314.3 Q2128.67 1319.67 2128.67 1328.65 Q2128.67 1332.91 2127.05 1336.75 Q2125.47 1340.55 2121.26 1345.73 Q2120.1 1347.07 2113.9 1353.51 Q2107.7 1359.9 2096.4 1371.43 Z" fill="#000000" fill-rule="nonzero" fill-opacity="1" /><path clip-path="url(#clip280)" d="M2148.76 1310.18 L2185.47 1310.18 L2185.47 1318.05 L2157.33 1318.05 L2157.33 1334.99 Q2159.36 1334.3 2161.4 1333.97 Q2163.44 1333.6 2165.47 1333.6 Q2177.05 1333.6 2183.81 1339.94 Q2190.57 1346.29 2190.57 1357.12 Q2190.57 1368.28 2183.62 1374.48 Q2176.68 1380.64 2164.04 1380.64 Q2159.69 1380.64 2155.15 1379.9 Q2150.66 1379.16 2145.84 1377.68 L2145.84 1368.28 Q2150.01 1370.55 2154.46 1371.66 Q2158.9 1372.77 2163.85 1372.77 Q2171.86 1372.77 2176.54 1368.56 Q2181.21 1364.34 2181.21 1357.12 Q2181.21 1349.9 2176.54 1345.68 Q2171.86 1341.47 2163.85 1341.47 Q2160.1 1341.47 2156.35 1342.31 Q2152.65 1343.14 2148.76 1344.9 L2148.76 1310.18 Z" fill="#000000" fill-rule="nonzero" fill-opacity="1" /><path clip-path="url(#clip280)" d="M1375.05 1484.39 L1375.05 1527.42 L1363.34 1527.42 L1363.34 1484.77 Q1363.34 1474.65 1359.39 1469.62 Q1355.45 1464.59 1347.55 1464.59 Q1338.07 1464.59 1332.59 1470.64 Q1327.12 1476.69 1327.12 1487.13 L1327.12 1527.42 L1315.34 1527.42 L1315.34 1428.37 L1327.12 1428.37 L1327.12 1467.2 Q1331.32 1460.77 1336.99 1457.59 Q1342.72 1454.41 1350.16 1454.41 Q1362.45 1454.41 1368.75 1462.05 Q1375.05 1469.62 1375.05 1484.39 Z" fill="#000000" fill-rule="nonzero" fill-opacity="1" /><path clip-path="url(#clip280)" d="M1426.04 1464.34 Q1416.62 1464.34 1411.15 1471.72 Q1405.67 1479.04 1405.67 1491.84 Q1405.67 1504.63 1411.08 1512.02 Q1416.56 1519.34 1426.04 1519.34 Q1435.4 1519.34 1440.87 1511.96 Q1446.35 1504.57 1446.35 1491.84 Q1446.35 1479.17 1440.87 1471.79 Q1435.4 1464.34 1426.04 1464.34 M1426.04 1454.41 Q1441.32 1454.41 1450.04 1464.34 Q1458.76 1474.27 1458.76 1491.84 Q1458.76 1509.35 1450.04 1519.34 Q1441.32 1529.27 1426.04 1529.27 Q1410.7 1529.27 1401.98 1519.34 Q1393.32 1509.35 1393.32 1491.84 Q1393.32 1474.27 1401.98 1464.34 Q1410.7 1454.41 1426.04 1454.41 Z" fill="#000000" fill-rule="nonzero" fill-opacity="1" /><path clip-path="url(#clip280)" d="M1476.97 1499.29 L1476.97 1456.13 L1488.68 1456.13 L1488.68 1498.84 Q1488.68 1508.96 1492.63 1514.06 Q1496.57 1519.08 1504.47 1519.08 Q1513.95 1519.08 1519.43 1513.04 Q1524.97 1506.99 1524.97 1496.55 L1524.97 1456.13 L1536.68 1456.13 L1536.68 1527.42 L1524.97 1527.42 L1524.97 1516.47 Q1520.7 1522.97 1515.04 1526.15 Q1509.43 1529.27 1501.99 1529.27 Q1489.7 1529.27 1483.33 1521.63 Q1476.97 1513.99 1476.97 1499.29 M1506.44 1454.41 L1506.44 1454.41 Z" fill="#000000" fill-rule="nonzero" fill-opacity="1" /><path clip-path="url(#clip280)" d="M1602.12 1467.08 Q1600.14 1465.93 1597.79 1465.42 Q1595.5 1464.85 1592.7 1464.85 Q1582.77 1464.85 1577.42 1471.34 Q1572.14 1477.77 1572.14 1489.87 L1572.14 1527.42 L1560.36 1527.42 L1560.36 1456.13 L1572.14 1456.13 L1572.14 1467.2 Q1575.83 1460.71 1581.75 1457.59 Q1587.67 1454.41 1596.13 1454.41 Q1597.34 1454.41 1598.81 1454.6 Q1600.27 1454.73 1602.05 1455.05 L1602.12 1467.08 Z" fill="#000000" fill-rule="nonzero" fill-opacity="1" /><path clip-path="url(#clip280)" d="M1659.86 1458.23 L1659.86 1469.3 Q1654.89 1466.76 1649.54 1465.49 Q1644.2 1464.21 1638.47 1464.21 Q1629.75 1464.21 1625.35 1466.89 Q1621.02 1469.56 1621.02 1474.91 Q1621.02 1478.98 1624.14 1481.34 Q1627.26 1483.63 1636.68 1485.73 L1640.69 1486.62 Q1653.17 1489.29 1658.39 1494.19 Q1663.67 1499.03 1663.67 1507.75 Q1663.67 1517.68 1655.78 1523.48 Q1647.95 1529.27 1634.2 1529.27 Q1628.47 1529.27 1622.23 1528.12 Q1616.06 1527.04 1609.18 1524.81 L1609.18 1512.72 Q1615.68 1516.09 1621.98 1517.81 Q1628.28 1519.47 1634.46 1519.47 Q1642.73 1519.47 1647.19 1516.67 Q1651.64 1513.8 1651.64 1508.64 Q1651.64 1503.87 1648.4 1501.32 Q1645.21 1498.78 1634.33 1496.42 L1630.25 1495.47 Q1619.37 1493.18 1614.53 1488.47 Q1609.69 1483.69 1609.69 1475.42 Q1609.69 1465.36 1616.82 1459.88 Q1623.95 1454.41 1637.07 1454.41 Q1643.56 1454.41 1649.29 1455.36 Q1655.02 1456.32 1659.86 1458.23 Z" fill="#000000" fill-rule="nonzero" fill-opacity="1" /><polyline clip-path="url(#clip282)" style="stroke:#000000; stroke-linecap:round; stroke-linejoin:round; stroke-width:4; stroke-opacity:0.1; fill:none" points="673.506,1272.13 2305.51,1272.13 "/>
<polyline clip-path="url(#clip282)" style="stroke:#000000; stroke-linecap:round; stroke-linejoin:round; stroke-width:4; stroke-opacity:0.1; fill:none" points="673.506,1048.09 2305.51,1048.09 "/>
<polyline clip-path="url(#clip282)" style="stroke:#000000; stroke-linecap:round; stroke-linejoin:round; stroke-width:4; stroke-opacity:0.1; fill:none" points="673.506,824.051 2305.51,824.051 "/>
<polyline clip-path="url(#clip282)" style="stroke:#000000; stroke-linecap:round; stroke-linejoin:round; stroke-width:4; stroke-opacity:0.1; fill:none" points="673.506,600.01 2305.51,600.01 "/>
<polyline clip-path="url(#clip282)" style="stroke:#000000; stroke-linecap:round; stroke-linejoin:round; stroke-width:4; stroke-opacity:0.1; fill:none" points="673.506,375.968 2305.51,375.968 "/>
<polyline clip-path="url(#clip282)" style="stroke:#000000; stroke-linecap:round; stroke-linejoin:round; stroke-width:4; stroke-opacity:0.1; fill:none" points="673.506,151.926 2305.51,151.926 "/>
<polyline clip-path="url(#clip280)" style="stroke:#000000; stroke-linecap:round; stroke-linejoin:round; stroke-width:8; stroke-opacity:1; fill:none" points="673.506,1273.7 673.506,94.4882 "/>
<polyline clip-path="url(#clip280)" style="stroke:#000000; stroke-linecap:round; stroke-linejoin:round; stroke-width:8; stroke-opacity:1; fill:none" points="673.506,1272.13 692.404,1272.13 "/>
<polyline clip-path="url(#clip280)" style="stroke:#000000; stroke-linecap:round; stroke-linejoin:round; stroke-width:8; stroke-opacity:1; fill:none" points="673.506,1048.09 692.404,1048.09 "/>
<polyline clip-path="url(#clip280)" style="stroke:#000000; stroke-linecap:round; stroke-linejoin:round; stroke-width:8; stroke-opacity:1; fill:none" points="673.506,824.051 692.404,824.051 "/>
<polyline clip-path="url(#clip280)" style="stroke:#000000; stroke-linecap:round; stroke-linejoin:round; stroke-width:8; stroke-opacity:1; fill:none" points="673.506,600.01 692.404,600.01 "/>
<polyline clip-path="url(#clip280)" style="stroke:#000000; stroke-linecap:round; stroke-linejoin:round; stroke-width:8; stroke-opacity:1; fill:none" points="673.506,375.968 692.404,375.968 "/>
<polyline clip-path="url(#clip280)" style="stroke:#000000; stroke-linecap:round; stroke-linejoin:round; stroke-width:8; stroke-opacity:1; fill:none" points="673.506,151.926 692.404,151.926 "/>
<path clip-path="url(#clip280)" d="M384.128 1298.82 L399.405 1298.82 L399.405 1246.09 L382.785 1249.43 L382.785 1240.91 L399.313 1237.57 L408.665 1237.57 L408.665 1298.82 L423.942 1298.82 L423.942 1306.69 L384.128 1306.69 L384.128 1298.82 Z" fill="#000000" fill-rule="nonzero" fill-opacity="1" /><path clip-path="url(#clip280)" d="M462.831 1243.73 Q455.609 1243.73 451.951 1250.86 Q448.34 1257.94 448.34 1272.2 Q448.34 1286.42 451.951 1293.55 Q455.609 1300.63 462.831 1300.63 Q470.099 1300.63 473.711 1293.55 Q477.368 1286.42 477.368 1272.2 Q477.368 1257.94 473.711 1250.86 Q470.099 1243.73 462.831 1243.73 M462.831 1236.32 Q474.451 1236.32 480.562 1245.54 Q486.72 1254.7 486.72 1272.2 Q486.72 1289.66 480.562 1298.87 Q474.451 1308.04 462.831 1308.04 Q451.211 1308.04 445.053 1298.87 Q438.942 1289.66 438.942 1272.2 Q438.942 1254.7 445.053 1245.54 Q451.211 1236.32 462.831 1236.32 Z" fill="#000000" fill-rule="nonzero" fill-opacity="1" /><path clip-path="url(#clip280)" d="M523.155 1243.73 Q515.933 1243.73 512.275 1250.86 Q508.664 1257.94 508.664 1272.2 Q508.664 1286.42 512.275 1293.55 Q515.933 1300.63 523.155 1300.63 Q530.423 1300.63 534.034 1293.55 Q537.692 1286.42 537.692 1272.2 Q537.692 1257.94 534.034 1250.86 Q530.423 1243.73 523.155 1243.73 M523.155 1236.32 Q534.775 1236.32 540.886 1245.54 Q547.043 1254.7 547.043 1272.2 Q547.043 1289.66 540.886 1298.87 Q534.775 1308.04 523.155 1308.04 Q511.534 1308.04 505.377 1298.87 Q499.266 1289.66 499.266 1272.2 Q499.266 1254.7 505.377 1245.54 Q511.534 1236.32 523.155 1236.32 Z" fill="#000000" fill-rule="nonzero" fill-opacity="1" /><path clip-path="url(#clip280)" d="M563.479 1294.94 L573.247 1294.94 L573.247 1306.69 L563.479 1306.69 L563.479 1294.94 Z" fill="#000000" fill-rule="nonzero" fill-opacity="1" /><path clip-path="url(#clip280)" d="M613.617 1243.73 Q606.395 1243.73 602.738 1250.86 Q599.127 1257.94 599.127 1272.2 Q599.127 1286.42 602.738 1293.55 Q606.395 1300.63 613.617 1300.63 Q620.886 1300.63 624.497 1293.55 Q628.154 1286.42 628.154 1272.2 Q628.154 1257.94 624.497 1250.86 Q620.886 1243.73 613.617 1243.73 M613.617 1236.32 Q625.238 1236.32 631.349 1245.54 Q637.506 1254.7 637.506 1272.2 Q637.506 1289.66 631.349 1298.87 Q625.238 1308.04 613.617 1308.04 Q601.997 1308.04 595.84 1298.87 Q589.728 1289.66 589.728 1272.2 Q589.728 1254.7 595.84 1245.54 Q601.997 1236.32 613.617 1236.32 Z" fill="#000000" fill-rule="nonzero" fill-opacity="1" /><path clip-path="url(#clip280)" d="M384.128 1074.78 L399.405 1074.78 L399.405 1022.05 L382.785 1025.38 L382.785 1016.87 L399.313 1013.53 L408.665 1013.53 L408.665 1074.78 L423.942 1074.78 L423.942 1082.65 L384.128 1082.65 L384.128 1074.78 Z" fill="#000000" fill-rule="nonzero" fill-opacity="1" /><path clip-path="url(#clip280)" d="M462.831 1019.69 Q455.609 1019.69 451.951 1026.82 Q448.34 1033.9 448.34 1048.16 Q448.34 1062.38 451.951 1069.5 Q455.609 1076.59 462.831 1076.59 Q470.099 1076.59 473.711 1069.5 Q477.368 1062.38 477.368 1048.16 Q477.368 1033.9 473.711 1026.82 Q470.099 1019.69 462.831 1019.69 M462.831 1012.28 Q474.451 1012.28 480.562 1021.5 Q486.72 1030.66 486.72 1048.16 Q486.72 1065.62 480.562 1074.83 Q474.451 1084 462.831 1084 Q451.211 1084 445.053 1074.83 Q438.942 1065.62 438.942 1048.16 Q438.942 1030.66 445.053 1021.5 Q451.211 1012.28 462.831 1012.28 Z" fill="#000000" fill-rule="nonzero" fill-opacity="1" /><path clip-path="url(#clip280)" d="M503.247 1013.53 L539.96 1013.53 L539.96 1021.4 L511.812 1021.4 L511.812 1038.35 Q513.849 1037.65 515.886 1037.33 Q517.923 1036.96 519.96 1036.96 Q531.534 1036.96 538.294 1043.3 Q545.053 1049.64 545.053 1060.48 Q545.053 1071.63 538.108 1077.84 Q531.164 1084 518.525 1084 Q514.173 1084 509.636 1083.25 Q505.146 1082.51 500.331 1081.03 L500.331 1071.63 Q504.497 1073.9 508.942 1075.01 Q513.386 1076.13 518.34 1076.13 Q526.349 1076.13 531.025 1071.91 Q535.701 1067.7 535.701 1060.48 Q535.701 1053.25 531.025 1049.04 Q526.349 1044.83 518.34 1044.83 Q514.59 1044.83 510.84 1045.66 Q507.136 1046.5 503.247 1048.25 L503.247 1013.53 Z" fill="#000000" fill-rule="nonzero" fill-opacity="1" /><path clip-path="url(#clip280)" d="M563.479 1070.89 L573.247 1070.89 L573.247 1082.65 L563.479 1082.65 L563.479 1070.89 Z" fill="#000000" fill-rule="nonzero" fill-opacity="1" /><path clip-path="url(#clip280)" d="M613.617 1019.69 Q606.395 1019.69 602.738 1026.82 Q599.127 1033.9 599.127 1048.16 Q599.127 1062.38 602.738 1069.5 Q606.395 1076.59 613.617 1076.59 Q620.886 1076.59 624.497 1069.5 Q628.154 1062.38 628.154 1048.16 Q628.154 1033.9 624.497 1026.82 Q620.886 1019.69 613.617 1019.69 M613.617 1012.28 Q625.238 1012.28 631.349 1021.5 Q637.506 1030.66 637.506 1048.16 Q637.506 1065.62 631.349 1074.83 Q625.238 1084 613.617 1084 Q601.997 1084 595.84 1074.83 Q589.728 1065.62 589.728 1048.16 Q589.728 1030.66 595.84 1021.5 Q601.997 1012.28 613.617 1012.28 Z" fill="#000000" fill-rule="nonzero" fill-opacity="1" /><path clip-path="url(#clip280)" d="M384.128 850.741 L399.405 850.741 L399.405 798.01 L382.785 801.343 L382.785 792.825 L399.313 789.491 L408.665 789.491 L408.665 850.741 L423.942 850.741 L423.942 858.611 L384.128 858.611 L384.128 850.741 Z" fill="#000000" fill-rule="nonzero" fill-opacity="1" /><path clip-path="url(#clip280)" d="M444.451 850.741 L459.729 850.741 L459.729 798.01 L443.109 801.343 L443.109 792.825 L459.637 789.491 L468.988 789.491 L468.988 850.741 L484.266 850.741 L484.266 858.611 L444.451 858.611 L444.451 850.741 Z" fill="#000000" fill-rule="nonzero" fill-opacity="1" /><path clip-path="url(#clip280)" d="M523.155 795.649 Q515.933 795.649 512.275 802.778 Q508.664 809.861 508.664 824.121 Q508.664 838.334 512.275 845.463 Q515.933 852.546 523.155 852.546 Q530.423 852.546 534.034 845.463 Q537.692 838.334 537.692 824.121 Q537.692 809.861 534.034 802.778 Q530.423 795.649 523.155 795.649 M523.155 788.241 Q534.775 788.241 540.886 797.454 Q547.043 806.621 547.043 824.121 Q547.043 841.574 540.886 850.787 Q534.775 859.954 523.155 859.954 Q511.534 859.954 505.377 850.787 Q499.266 841.574 499.266 824.121 Q499.266 806.621 505.377 797.454 Q511.534 788.241 523.155 788.241 Z" fill="#000000" fill-rule="nonzero" fill-opacity="1" /><path clip-path="url(#clip280)" d="M563.479 846.852 L573.247 846.852 L573.247 858.611 L563.479 858.611 L563.479 846.852 Z" fill="#000000" fill-rule="nonzero" fill-opacity="1" /><path clip-path="url(#clip280)" d="M613.617 795.649 Q606.395 795.649 602.738 802.778 Q599.127 809.861 599.127 824.121 Q599.127 838.334 602.738 845.463 Q606.395 852.546 613.617 852.546 Q620.886 852.546 624.497 845.463 Q628.154 838.334 628.154 824.121 Q628.154 809.861 624.497 802.778 Q620.886 795.649 613.617 795.649 M613.617 788.241 Q625.238 788.241 631.349 797.454 Q637.506 806.621 637.506 824.121 Q637.506 841.574 631.349 850.787 Q625.238 859.954 613.617 859.954 Q601.997 859.954 595.84 850.787 Q589.728 841.574 589.728 824.121 Q589.728 806.621 595.84 797.454 Q601.997 788.241 613.617 788.241 Z" fill="#000000" fill-rule="nonzero" fill-opacity="1" /><path clip-path="url(#clip280)" d="M384.128 626.699 L399.405 626.699 L399.405 573.968 L382.785 577.301 L382.785 568.783 L399.313 565.45 L408.665 565.45 L408.665 626.699 L423.942 626.699 L423.942 634.57 L384.128 634.57 L384.128 626.699 Z" fill="#000000" fill-rule="nonzero" fill-opacity="1" /><path clip-path="url(#clip280)" d="M444.451 626.699 L459.729 626.699 L459.729 573.968 L443.109 577.301 L443.109 568.783 L459.637 565.45 L468.988 565.45 L468.988 626.699 L484.266 626.699 L484.266 634.57 L444.451 634.57 L444.451 626.699 Z" fill="#000000" fill-rule="nonzero" fill-opacity="1" /><path clip-path="url(#clip280)" d="M503.247 565.45 L539.96 565.45 L539.96 573.32 L511.812 573.32 L511.812 590.264 Q513.849 589.57 515.886 589.246 Q517.923 588.875 519.96 588.875 Q531.534 588.875 538.294 595.218 Q545.053 601.561 545.053 612.394 Q545.053 623.551 538.108 629.755 Q531.164 635.912 518.525 635.912 Q514.173 635.912 509.636 635.171 Q505.146 634.431 500.331 632.949 L500.331 623.551 Q504.497 625.82 508.942 626.931 Q513.386 628.042 518.34 628.042 Q526.349 628.042 531.025 623.829 Q535.701 619.616 535.701 612.394 Q535.701 605.172 531.025 600.959 Q526.349 596.746 518.34 596.746 Q514.59 596.746 510.84 597.579 Q507.136 598.412 503.247 600.172 L503.247 565.45 Z" fill="#000000" fill-rule="nonzero" fill-opacity="1" /><path clip-path="url(#clip280)" d="M563.479 622.81 L573.247 622.81 L573.247 634.57 L563.479 634.57 L563.479 622.81 Z" fill="#000000" fill-rule="nonzero" fill-opacity="1" /><path clip-path="url(#clip280)" d="M613.617 571.607 Q606.395 571.607 602.738 578.737 Q599.127 585.82 599.127 600.079 Q599.127 614.292 602.738 621.422 Q606.395 628.505 613.617 628.505 Q620.886 628.505 624.497 621.422 Q628.154 614.292 628.154 600.079 Q628.154 585.82 624.497 578.737 Q620.886 571.607 613.617 571.607 M613.617 564.2 Q625.238 564.2 631.349 573.413 Q637.506 582.579 637.506 600.079 Q637.506 617.533 631.349 626.746 Q625.238 635.912 613.617 635.912 Q601.997 635.912 595.84 626.746 Q589.728 617.533 589.728 600.079 Q589.728 582.579 595.84 573.413 Q601.997 564.2 613.617 564.2 Z" fill="#000000" fill-rule="nonzero" fill-opacity="1" /><path clip-path="url(#clip280)" d="M384.128 402.658 L399.405 402.658 L399.405 349.926 L382.785 353.26 L382.785 344.741 L399.313 341.408 L408.665 341.408 L408.665 402.658 L423.942 402.658 L423.942 410.528 L384.128 410.528 L384.128 402.658 Z" fill="#000000" fill-rule="nonzero" fill-opacity="1" /><path clip-path="url(#clip280)" d="M450.887 402.658 L483.525 402.658 L483.525 410.528 L439.637 410.528 L439.637 402.658 Q444.961 397.148 454.127 387.889 Q463.34 378.584 465.701 375.899 Q470.192 370.852 471.951 367.38 Q473.757 363.862 473.757 360.482 Q473.757 354.973 469.868 351.501 Q466.025 348.028 459.822 348.028 Q455.424 348.028 450.516 349.556 Q445.655 351.084 440.1 354.186 L440.1 344.741 Q445.748 342.473 450.655 341.315 Q455.562 340.158 459.637 340.158 Q470.377 340.158 476.766 345.528 Q483.155 350.899 483.155 359.88 Q483.155 364.139 481.535 367.982 Q479.961 371.778 475.748 376.963 Q474.59 378.306 468.387 384.741 Q462.183 391.13 450.887 402.658 Z" fill="#000000" fill-rule="nonzero" fill-opacity="1" /><path clip-path="url(#clip280)" d="M523.155 347.565 Q515.933 347.565 512.275 354.695 Q508.664 361.778 508.664 376.037 Q508.664 390.25 512.275 397.38 Q515.933 404.463 523.155 404.463 Q530.423 404.463 534.034 397.38 Q537.692 390.25 537.692 376.037 Q537.692 361.778 534.034 354.695 Q530.423 347.565 523.155 347.565 M523.155 340.158 Q534.775 340.158 540.886 349.371 Q547.043 358.537 547.043 376.037 Q547.043 393.491 540.886 402.704 Q534.775 411.871 523.155 411.871 Q511.534 411.871 505.377 402.704 Q499.266 393.491 499.266 376.037 Q499.266 358.537 505.377 349.371 Q511.534 340.158 523.155 340.158 Z" fill="#000000" fill-rule="nonzero" fill-opacity="1" /><path clip-path="url(#clip280)" d="M563.479 398.769 L573.247 398.769 L573.247 410.528 L563.479 410.528 L563.479 398.769 Z" fill="#000000" fill-rule="nonzero" fill-opacity="1" /><path clip-path="url(#clip280)" d="M613.617 347.565 Q606.395 347.565 602.738 354.695 Q599.127 361.778 599.127 376.037 Q599.127 390.25 602.738 397.38 Q606.395 404.463 613.617 404.463 Q620.886 404.463 624.497 397.38 Q628.154 390.25 628.154 376.037 Q628.154 361.778 624.497 354.695 Q620.886 347.565 613.617 347.565 M613.617 340.158 Q625.238 340.158 631.349 349.371 Q637.506 358.537 637.506 376.037 Q637.506 393.491 631.349 402.704 Q625.238 411.871 613.617 411.871 Q601.997 411.871 595.84 402.704 Q589.728 393.491 589.728 376.037 Q589.728 358.537 595.84 349.371 Q601.997 340.158 613.617 340.158 Z" fill="#000000" fill-rule="nonzero" fill-opacity="1" /><path clip-path="url(#clip280)" d="M384.128 178.616 L399.405 178.616 L399.405 125.885 L382.785 129.218 L382.785 120.7 L399.313 117.366 L408.665 117.366 L408.665 178.616 L423.942 178.616 L423.942 186.486 L384.128 186.486 L384.128 178.616 Z" fill="#000000" fill-rule="nonzero" fill-opacity="1" /><path clip-path="url(#clip280)" d="M450.887 178.616 L483.525 178.616 L483.525 186.486 L439.637 186.486 L439.637 178.616 Q444.961 173.107 454.127 163.848 Q463.34 154.542 465.701 151.857 Q470.192 146.811 471.951 143.338 Q473.757 139.82 473.757 136.44 Q473.757 130.931 469.868 127.459 Q466.025 123.987 459.822 123.987 Q455.424 123.987 450.516 125.514 Q445.655 127.042 440.1 130.144 L440.1 120.7 Q445.748 118.431 450.655 117.274 Q455.562 116.116 459.637 116.116 Q470.377 116.116 476.766 121.487 Q483.155 126.857 483.155 135.838 Q483.155 140.098 481.535 143.94 Q479.961 147.737 475.748 152.922 Q474.59 154.264 468.387 160.699 Q462.183 167.088 450.887 178.616 Z" fill="#000000" fill-rule="nonzero" fill-opacity="1" /><path clip-path="url(#clip280)" d="M503.247 117.366 L539.96 117.366 L539.96 125.237 L511.812 125.237 L511.812 142.181 Q513.849 141.487 515.886 141.162 Q517.923 140.792 519.96 140.792 Q531.534 140.792 538.294 147.135 Q545.053 153.477 545.053 164.311 Q545.053 175.468 538.108 181.672 Q531.164 187.829 518.525 187.829 Q514.173 187.829 509.636 187.088 Q505.146 186.347 500.331 184.866 L500.331 175.468 Q504.497 177.736 508.942 178.847 Q513.386 179.959 518.34 179.959 Q526.349 179.959 531.025 175.746 Q535.701 171.533 535.701 164.311 Q535.701 157.088 531.025 152.875 Q526.349 148.662 518.34 148.662 Q514.59 148.662 510.84 149.496 Q507.136 150.329 503.247 152.088 L503.247 117.366 Z" fill="#000000" fill-rule="nonzero" fill-opacity="1" /><path clip-path="url(#clip280)" d="M563.479 174.727 L573.247 174.727 L573.247 186.486 L563.479 186.486 L563.479 174.727 Z" fill="#000000" fill-rule="nonzero" fill-opacity="1" /><path clip-path="url(#clip280)" d="M613.617 123.524 Q606.395 123.524 602.738 130.653 Q599.127 137.737 599.127 151.996 Q599.127 166.209 602.738 173.338 Q606.395 180.422 613.617 180.422 Q620.886 180.422 624.497 173.338 Q628.154 166.209 628.154 151.996 Q628.154 137.737 624.497 130.653 Q620.886 123.524 613.617 123.524 M613.617 116.116 Q625.238 116.116 631.349 125.329 Q637.506 134.496 637.506 151.996 Q637.506 169.449 631.349 178.662 Q625.238 187.829 613.617 187.829 Q601.997 187.829 595.84 178.662 Q589.728 169.449 589.728 151.996 Q589.728 134.496 595.84 125.329 Q601.997 116.116 613.617 116.116 Z" fill="#000000" fill-rule="nonzero" fill-opacity="1" /><path clip-path="url(#clip280)" d="M307.579 933.309 L345.391 933.309 L345.391 945.086 L246.977 945.086 L246.977 933.309 L257.799 933.309 Q251.433 929.617 248.378 924.015 Q245.258 918.35 245.258 910.52 Q245.258 897.534 255.571 889.45 Q265.883 881.302 282.689 881.302 Q299.494 881.302 309.807 889.45 Q320.119 897.534 320.119 910.52 Q320.119 918.35 317.064 924.015 Q313.944 929.617 307.579 933.309 M282.689 893.46 Q269.766 893.46 262.446 898.807 Q255.062 904.091 255.062 913.385 Q255.062 922.679 262.446 928.026 Q269.766 933.309 282.689 933.309 Q295.611 933.309 302.995 928.026 Q310.316 922.679 310.316 913.385 Q310.316 904.091 302.995 898.807 Q295.611 893.46 282.689 893.46 Z" fill="#000000" fill-rule="nonzero" fill-opacity="1" /><path clip-path="url(#clip280)" d="M282.434 829.485 Q282.434 843.68 285.681 849.155 Q288.927 854.629 296.757 854.629 Q302.995 854.629 306.688 850.555 Q310.316 846.417 310.316 839.352 Q310.316 829.612 303.441 823.756 Q296.502 817.835 285.044 817.835 L282.434 817.835 L282.434 829.485 M277.596 806.123 L318.273 806.123 L318.273 817.835 L307.451 817.835 Q313.944 821.846 317.064 827.83 Q320.119 833.813 320.119 842.471 Q320.119 853.42 314.008 859.913 Q307.833 866.342 297.521 866.342 Q285.49 866.342 279.379 858.321 Q273.268 850.237 273.268 834.259 L273.268 817.835 L272.122 817.835 Q264.037 817.835 259.645 823.183 Q255.189 828.466 255.189 838.078 Q255.189 844.189 256.653 849.982 Q258.117 855.775 261.045 861.122 L250.224 861.122 Q247.741 854.693 246.532 848.645 Q245.258 842.598 245.258 836.869 Q245.258 821.4 253.279 813.761 Q261.3 806.123 277.596 806.123 Z" fill="#000000" fill-rule="nonzero" fill-opacity="1" /><path clip-path="url(#clip280)" d="M257.926 740.683 Q256.78 742.656 256.271 745.012 Q255.698 747.303 255.698 750.104 Q255.698 760.035 262.191 765.382 Q268.621 770.666 280.715 770.666 L318.273 770.666 L318.273 782.442 L246.977 782.442 L246.977 770.666 L258.054 770.666 Q251.561 766.973 248.441 761.053 Q245.258 755.133 245.258 746.667 Q245.258 745.457 245.449 743.993 Q245.577 742.529 245.895 740.747 L257.926 740.683 Z" fill="#000000" fill-rule="nonzero" fill-opacity="1" /><path clip-path="url(#clip280)" d="M279.697 670.278 L285.426 670.278 L285.426 724.132 Q297.521 723.368 303.887 716.875 Q310.189 710.319 310.189 698.669 Q310.189 691.922 308.534 685.62 Q306.878 679.254 303.568 673.016 L314.645 673.016 Q317.318 679.318 318.719 685.938 Q320.119 692.558 320.119 699.37 Q320.119 716.43 310.189 726.424 Q300.258 736.354 283.325 736.354 Q265.82 736.354 255.571 726.933 Q245.258 717.448 245.258 701.407 Q245.258 687.02 254.552 678.681 Q263.783 670.278 279.697 670.278 M276.259 681.991 Q266.647 682.119 260.918 687.402 Q255.189 692.622 255.189 701.279 Q255.189 711.083 260.727 717.003 Q266.265 722.859 276.323 723.75 L276.259 681.991 Z" fill="#000000" fill-rule="nonzero" fill-opacity="1" /><path clip-path="url(#clip280)" d="M275.241 591.789 L318.273 591.789 L318.273 603.502 L275.623 603.502 Q265.501 603.502 260.472 607.449 Q255.444 611.396 255.444 619.289 Q255.444 628.774 261.491 634.248 Q267.538 639.723 277.978 639.723 L318.273 639.723 L318.273 651.5 L246.977 651.5 L246.977 639.723 L258.054 639.723 Q251.624 635.522 248.441 629.856 Q245.258 624.127 245.258 616.679 Q245.258 604.393 252.897 598.091 Q260.472 591.789 275.241 591.789 Z" fill="#000000" fill-rule="nonzero" fill-opacity="1" /><path clip-path="url(#clip280)" d="M302.104 566.772 L302.104 553.34 L318.273 553.34 L318.273 566.772 L302.104 566.772 Z" fill="#000000" fill-rule="nonzero" fill-opacity="1" /><path clip-path="url(#clip280)" d="M265.629 454.799 Q265.629 463.457 271.549 468.549 Q277.469 473.578 287.781 473.578 Q298.03 473.578 304.014 468.549 Q309.934 463.457 309.934 454.799 Q309.934 446.142 304.014 441.113 Q298.03 436.02 287.781 436.02 Q277.469 436.02 271.549 441.113 Q265.629 446.142 265.629 454.799 M225.334 429.273 L237.047 429.273 Q234.755 434.111 233.546 439.076 Q232.336 443.978 232.336 448.815 Q232.336 461.547 240.93 468.295 Q249.523 474.979 266.902 475.933 Q261.364 472.178 258.435 466.512 Q255.444 460.847 255.444 454.035 Q255.444 439.712 264.165 431.437 Q272.822 423.098 287.781 423.098 Q302.422 423.098 311.271 431.755 Q320.119 440.413 320.119 454.799 Q320.119 471.286 307.515 480.007 Q294.847 488.728 270.849 488.728 Q248.314 488.728 234.946 478.034 Q221.514 467.34 221.514 449.325 Q221.514 444.487 222.469 439.585 Q223.424 434.62 225.334 429.273 Z" fill="#000000" fill-rule="nonzero" fill-opacity="1" /><polyline clip-path="url(#clip282)" style="stroke:#008000; stroke-linecap:round; stroke-linejoin:round; stroke-width:8; stroke-opacity:1; fill:none" points="719.695,870.693 829.668,509.258 939.642,503.871 1049.62,504.832 1159.59,383.476 1269.56,127.862 1379.54,604.012 1489.51,263.75 1599.48,486.29 1709.46,641.889 1819.43,450.794 1929.4,984.156 2039.38,824.298 2149.35,977.975 2259.32,952 "/>
<circle clip-path="url(#clip282)" cx="719.695" cy="870.693" r="14.4" fill="#008000" fill-rule="evenodd" fill-opacity="1" stroke="#000000" stroke-opacity="1" stroke-width="6.4"/>
<circle clip-path="url(#clip282)" cx="829.668" cy="509.258" r="14.4" fill="#008000" fill-rule="evenodd" fill-opacity="1" stroke="#000000" stroke-opacity="1" stroke-width="6.4"/>
<circle clip-path="url(#clip282)" cx="939.642" cy="503.871" r="14.4" fill="#008000" fill-rule="evenodd" fill-opacity="1" stroke="#000000" stroke-opacity="1" stroke-width="6.4"/>
<circle clip-path="url(#clip282)" cx="1049.62" cy="504.832" r="14.4" fill="#008000" fill-rule="evenodd" fill-opacity="1" stroke="#000000" stroke-opacity="1" stroke-width="6.4"/>
<circle clip-path="url(#clip282)" cx="1159.59" cy="383.476" r="14.4" fill="#008000" fill-rule="evenodd" fill-opacity="1" stroke="#000000" stroke-opacity="1" stroke-width="6.4"/>
<circle clip-path="url(#clip282)" cx="1269.56" cy="127.862" r="14.4" fill="#008000" fill-rule="evenodd" fill-opacity="1" stroke="#000000" stroke-opacity="1" stroke-width="6.4"/>
<circle clip-path="url(#clip282)" cx="1379.54" cy="604.012" r="14.4" fill="#008000" fill-rule="evenodd" fill-opacity="1" stroke="#000000" stroke-opacity="1" stroke-width="6.4"/>
<circle clip-path="url(#clip282)" cx="1489.51" cy="263.75" r="14.4" fill="#008000" fill-rule="evenodd" fill-opacity="1" stroke="#000000" stroke-opacity="1" stroke-width="6.4"/>
<circle clip-path="url(#clip282)" cx="1599.48" cy="486.29" r="14.4" fill="#008000" fill-rule="evenodd" fill-opacity="1" stroke="#000000" stroke-opacity="1" stroke-width="6.4"/>
<circle clip-path="url(#clip282)" cx="1709.46" cy="641.889" r="14.4" fill="#008000" fill-rule="evenodd" fill-opacity="1" stroke="#000000" stroke-opacity="1" stroke-width="6.4"/>
<circle clip-path="url(#clip282)" cx="1819.43" cy="450.794" r="14.4" fill="#008000" fill-rule="evenodd" fill-opacity="1" stroke="#000000" stroke-opacity="1" stroke-width="6.4"/>
<circle clip-path="url(#clip282)" cx="1929.4" cy="984.156" r="14.4" fill="#008000" fill-rule="evenodd" fill-opacity="1" stroke="#000000" stroke-opacity="1" stroke-width="6.4"/>
<circle clip-path="url(#clip282)" cx="2039.38" cy="824.298" r="14.4" fill="#008000" fill-rule="evenodd" fill-opacity="1" stroke="#000000" stroke-opacity="1" stroke-width="6.4"/>
<circle clip-path="url(#clip282)" cx="2149.35" cy="977.975" r="14.4" fill="#008000" fill-rule="evenodd" fill-opacity="1" stroke="#000000" stroke-opacity="1" stroke-width="6.4"/>
<circle clip-path="url(#clip282)" cx="2259.32" cy="952" r="14.4" fill="#008000" fill-rule="evenodd" fill-opacity="1" stroke="#000000" stroke-opacity="1" stroke-width="6.4"/>
<polyline clip-path="url(#clip282)" style="stroke:#00008b; stroke-linecap:round; stroke-linejoin:round; stroke-width:8; stroke-opacity:1; fill:none" points="719.695,577.367 829.668,487.982 939.642,419.949 1049.62,387.037 1159.59,375.69 1269.56,377.058 1379.54,421.386 1489.51,478.492 1599.48,539.044 1709.46,628.194 1819.43,709.739 1929.4,795.814 2039.38,913.181 2149.35,1002.59 2259.32,1109.05 "/>
<path clip-path="url(#clip282)" d="M719.695 711.508 L829.668 626.595 L939.642 557.814 L1049.62 522.902 L1159.59 507.124 L1269.56 506.685 L1379.54 557.155 L1489.51 615.017 L1599.48 676.738 L1709.46 766.939 L1819.43 850.016 L1929.4 925.478 L2039.38 1054.32 L2149.35 1132.45 L2259.32 1240.32 L2259.32 979.742 L2149.35 873.993 L2039.38 773.653 L1929.4 664.292 L1819.43 580.24 L1709.46 484.832 L1599.48 401.27 L1489.51 346.089 L1379.54 290.479 L1269.56 251.805 L1159.59 244.276 L1049.62 249.771 L939.642 287.465 L829.668 345.391 L719.695 442.17  Z" fill="#0000ff" fill-rule="evenodd" fill-opacity="0.1"/>
<polyline clip-path="url(#clip282)" style="stroke:#0000ff; stroke-linecap:round; stroke-linejoin:round; stroke-width:0; stroke-opacity:0.1; fill:none" points="719.695,711.508 829.668,626.595 939.642,557.814 1049.62,522.902 1159.59,507.124 1269.56,506.685 1379.54,557.155 1489.51,615.017 1599.48,676.738 1709.46,766.939 1819.43,850.016 1929.4,925.478 2039.38,1054.32 2149.35,1132.45 2259.32,1240.32 "/>
</svg>
