<?xml version="1.0" encoding="utf-8"?>
<svg xmlns="http://www.w3.org/2000/svg" xmlns:xlink="http://www.w3.org/1999/xlink" width="600" height="400" viewBox="0 0 2400 1600">
<defs>
  <clipPath id="clip200">
    <rect x="0" y="0" width="2400" height="1600"/>
  </clipPath>
</defs>
<path clip-path="url(#clip200)" d="M0 1600 L2400 1600 L2400 0 L0 0  Z" fill="#ffffff" fill-rule="evenodd" fill-opacity="1"/>
<defs>
  <clipPath id="clip201">
    <rect x="480" y="0" width="1681" height="1600"/>
  </clipPath>
</defs>
<path clip-path="url(#clip200)" d="M673.506 1273.7 L2305.51 1273.7 L2305.51 94.4882 L673.506 94.4882  Z" fill="#ffffff" fill-rule="evenodd" fill-opacity="1"/>
<defs>
  <clipPath id="clip202">
    <rect x="673" y="94" width="1633" height="1180"/>
  </clipPath>
</defs>
<polyline clip-path="url(#clip202)" style="stroke:#000000; stroke-linecap:round; stroke-linejoin:round; stroke-width:4; stroke-opacity:0.1; fill:none" points="719.695,1273.7 719.695,94.4882 "/>
<polyline clip-path="url(#clip202)" style="stroke:#000000; stroke-linecap:round; stroke-linejoin:round; stroke-width:4; stroke-opacity:0.1; fill:none" points="994.628,1273.7 994.628,94.4882 "/>
<polyline clip-path="url(#clip202)" style="stroke:#000000; stroke-linecap:round; stroke-linejoin:round; stroke-width:4; stroke-opacity:0.1; fill:none" points="1269.56,1273.7 1269.56,94.4882 "/>
<polyline clip-path="url(#clip202)" style="stroke:#000000; stroke-linecap:round; stroke-linejoin:round; stroke-width:4; stroke-opacity:0.1; fill:none" points="1544.5,1273.7 1544.5,94.4882 "/>
<polyline clip-path="url(#clip202)" style="stroke:#000000; stroke-linecap:round; stroke-linejoin:round; stroke-width:4; stroke-opacity:0.1; fill:none" points="1819.43,1273.7 1819.43,94.4882 "/>
<polyline clip-path="url(#clip202)" style="stroke:#000000; stroke-linecap:round; stroke-linejoin:round; stroke-width:4; stroke-opacity:0.1; fill:none" points="2094.36,1273.7 2094.36,94.4882 "/>
<polyline clip-path="url(#clip200)" style="stroke:#000000; stroke-linecap:round; stroke-linejoin:round; stroke-width:8; stroke-opacity:1; fill:none" points="673.506,1273.7 2305.51,1273.7 "/>
<polyline clip-path="url(#clip200)" style="stroke:#000000; stroke-linecap:round; stroke-linejoin:round; stroke-width:8; stroke-opacity:1; fill:none" points="719.695,1273.7 719.695,1254.8 "/>
<polyline clip-path="url(#clip200)" style="stroke:#000000; stroke-linecap:round; stroke-linejoin:round; stroke-width:8; stroke-opacity:1; fill:none" points="994.628,1273.7 994.628,1254.8 "/>
<polyline clip-path="url(#clip200)" style="stroke:#000000; stroke-linecap:round; stroke-linejoin:round; stroke-width:8; stroke-opacity:1; fill:none" points="1269.56,1273.7 1269.56,1254.8 "/>
<polyline clip-path="url(#clip200)" style="stroke:#000000; stroke-linecap:round; stroke-linejoin:round; stroke-width:8; stroke-opacity:1; fill:none" points="1544.5,1273.7 1544.5,1254.8 "/>
<polyline clip-path="url(#clip200)" style="stroke:#000000; stroke-linecap:round; stroke-linejoin:round; stroke-width:8; stroke-opacity:1; fill:none" points="1819.43,1273.7 1819.43,1254.8 "/>
<polyline clip-path="url(#clip200)" style="stroke:#000000; stroke-linecap:round; stroke-linejoin:round; stroke-width:8; stroke-opacity:1; fill:none" points="2094.36,1273.7 2094.36,1254.8 "/>
<path clip-path="url(#clip200)" d="M644.302 1316.33 Q637.08 1316.33 633.422 1323.46 Q629.811 1330.55 629.811 1344.81 Q629.811 1359.02 633.422 1366.15 Q637.08 1373.23 644.302 1373.23 Q651.57 1373.23 655.181 1366.15 Q658.839 1359.02 658.839 1344.81 Q658.839 1330.55 655.181 1323.46 Q651.57 1316.33 644.302 1316.33 M644.302 1308.93 Q655.922 1308.93 662.033 1318.14 Q668.19 1327.31 668.19 1344.81 Q668.19 1362.26 662.033 1371.47 Q655.922 1380.64 644.302 1380.64 Q632.681 1380.64 626.524 1371.47 Q620.413 1362.26 620.413 1344.81 Q620.413 1327.31 626.524 1318.14 Q632.681 1308.93 644.302 1308.93 Z" fill="#000000" fill-rule="nonzero" fill-opacity="1" /><path clip-path="url(#clip200)" d="M684.626 1367.54 L694.394 1367.54 L694.394 1379.3 L684.626 1379.3 L684.626 1367.54 Z" fill="#000000" fill-rule="nonzero" fill-opacity="1" /><path clip-path="url(#clip200)" d="M734.764 1316.33 Q727.542 1316.33 723.885 1323.46 Q720.274 1330.55 720.274 1344.81 Q720.274 1359.02 723.885 1366.15 Q727.542 1373.23 734.764 1373.23 Q742.033 1373.23 745.644 1366.15 Q749.301 1359.02 749.301 1344.81 Q749.301 1330.55 745.644 1323.46 Q742.033 1316.33 734.764 1316.33 M734.764 1308.93 Q746.384 1308.93 752.496 1318.14 Q758.653 1327.31 758.653 1344.81 Q758.653 1362.26 752.496 1371.47 Q746.384 1380.64 734.764 1380.64 Q723.144 1380.64 716.986 1371.47 Q710.875 1362.26 710.875 1344.81 Q710.875 1327.31 716.986 1318.14 Q723.144 1308.93 734.764 1308.93 Z" fill="#000000" fill-rule="nonzero" fill-opacity="1" /><path clip-path="url(#clip200)" d="M795.088 1316.33 Q787.866 1316.33 784.208 1323.46 Q780.597 1330.55 780.597 1344.81 Q780.597 1359.02 784.208 1366.15 Q787.866 1373.23 795.088 1373.23 Q802.356 1373.23 805.967 1366.15 Q809.625 1359.02 809.625 1344.81 Q809.625 1330.55 805.967 1323.46 Q802.356 1316.33 795.088 1316.33 M795.088 1308.93 Q806.708 1308.93 812.819 1318.14 Q818.977 1327.31 818.977 1344.81 Q818.977 1362.26 812.819 1371.47 Q806.708 1380.64 795.088 1380.64 Q783.468 1380.64 777.31 1371.47 Q771.199 1362.26 771.199 1344.81 Q771.199 1327.31 777.31 1318.14 Q783.468 1308.93 795.088 1308.93 Z" fill="#000000" fill-rule="nonzero" fill-opacity="1" /><path clip-path="url(#clip200)" d="M920.231 1316.33 Q913.008 1316.33 909.351 1323.46 Q905.74 1330.55 905.74 1344.81 Q905.74 1359.02 909.351 1366.15 Q913.008 1373.23 920.231 1373.23 Q927.499 1373.23 931.11 1366.15 Q934.768 1359.02 934.768 1344.81 Q934.768 1330.55 931.11 1323.46 Q927.499 1316.33 920.231 1316.33 M920.231 1308.93 Q931.851 1308.93 937.962 1318.14 Q944.119 1327.31 944.119 1344.81 Q944.119 1362.26 937.962 1371.47 Q931.851 1380.64 920.231 1380.64 Q908.61 1380.64 902.453 1371.47 Q896.342 1362.26 896.342 1344.81 Q896.342 1327.31 902.453 1318.14 Q908.61 1308.93 920.231 1308.93 Z" fill="#000000" fill-rule="nonzero" fill-opacity="1" /><path clip-path="url(#clip200)" d="M960.555 1367.54 L970.323 1367.54 L970.323 1379.3 L960.555 1379.3 L960.555 1367.54 Z" fill="#000000" fill-rule="nonzero" fill-opacity="1" /><path clip-path="url(#clip200)" d="M998.749 1371.43 L1031.39 1371.43 L1031.39 1379.3 L987.499 1379.3 L987.499 1371.43 Q992.823 1365.92 1001.99 1356.66 Q1011.2 1347.35 1013.56 1344.67 Q1018.05 1339.62 1019.81 1336.15 Q1021.62 1332.63 1021.62 1329.25 Q1021.62 1323.74 1017.73 1320.27 Q1013.89 1316.8 1007.68 1316.8 Q1003.29 1316.8 998.378 1318.32 Q993.517 1319.85 987.962 1322.95 L987.962 1313.51 Q993.61 1311.24 998.517 1310.08 Q1003.42 1308.93 1007.5 1308.93 Q1018.24 1308.93 1024.63 1314.3 Q1031.02 1319.67 1031.02 1328.65 Q1031.02 1332.91 1029.4 1336.75 Q1027.82 1340.55 1023.61 1345.73 Q1022.45 1347.07 1016.25 1353.51 Q1010.04 1359.9 998.749 1371.43 Z" fill="#000000" fill-rule="nonzero" fill-opacity="1" /><path clip-path="url(#clip200)" d="M1051.11 1310.18 L1087.82 1310.18 L1087.82 1318.05 L1059.67 1318.05 L1059.67 1334.99 Q1061.71 1334.3 1063.75 1333.97 Q1065.79 1333.6 1067.82 1333.6 Q1079.4 1333.6 1086.16 1339.94 Q1092.91 1346.29 1092.91 1357.12 Q1092.91 1368.28 1085.97 1374.48 Q1079.03 1380.64 1066.39 1380.64 Q1062.04 1380.64 1057.5 1379.9 Q1053.01 1379.16 1048.19 1377.68 L1048.19 1368.28 Q1052.36 1370.55 1056.8 1371.66 Q1061.25 1372.77 1066.2 1372.77 Q1074.21 1372.77 1078.89 1368.56 Q1083.56 1364.34 1083.56 1357.12 Q1083.56 1349.9 1078.89 1345.68 Q1074.21 1341.47 1066.2 1341.47 Q1062.45 1341.47 1058.7 1342.31 Q1055 1343.14 1051.11 1344.9 L1051.11 1310.18 Z" fill="#000000" fill-rule="nonzero" fill-opacity="1" /><path clip-path="url(#clip200)" d="M1194.17 1316.33 Q1186.95 1316.33 1183.29 1323.46 Q1179.68 1330.55 1179.68 1344.81 Q1179.68 1359.02 1183.29 1366.15 Q1186.95 1373.23 1194.17 1373.23 Q1201.44 1373.23 1205.05 1366.15 Q1208.71 1359.02 1208.71 1344.81 Q1208.71 1330.55 1205.05 1323.46 Q1201.44 1316.33 1194.17 1316.33 M1194.17 1308.93 Q1205.79 1308.93 1211.9 1318.14 Q1218.06 1327.31 1218.06 1344.81 Q1218.06 1362.26 1211.9 1371.47 Q1205.79 1380.64 1194.17 1380.64 Q1182.55 1380.64 1176.39 1371.47 Q1170.28 1362.26 1170.28 1344.81 Q1170.28 1327.31 1176.39 1318.14 Q1182.55 1308.93 1194.17 1308.93 Z" fill="#000000" fill-rule="nonzero" fill-opacity="1" /><path clip-path="url(#clip200)" d="M1234.49 1367.54 L1244.26 1367.54 L1244.26 1379.3 L1234.49 1379.3 L1234.49 1367.54 Z" fill="#000000" fill-rule="nonzero" fill-opacity="1" /><path clip-path="url(#clip200)" d="M1264.72 1310.18 L1301.44 1310.18 L1301.44 1318.05 L1273.29 1318.05 L1273.29 1334.99 Q1275.33 1334.3 1277.36 1333.97 Q1279.4 1333.6 1281.44 1333.6 Q1293.01 1333.6 1299.77 1339.94 Q1306.53 1346.29 1306.53 1357.12 Q1306.53 1368.28 1299.58 1374.48 Q1292.64 1380.64 1280 1380.64 Q1275.65 1380.64 1271.11 1379.9 Q1266.62 1379.16 1261.81 1377.68 L1261.81 1368.28 Q1265.97 1370.55 1270.42 1371.66 Q1274.86 1372.77 1279.82 1372.77 Q1287.83 1372.77 1292.5 1368.56 Q1297.18 1364.34 1297.18 1357.12 Q1297.18 1349.9 1292.5 1345.68 Q1287.83 1341.47 1279.82 1341.47 Q1276.07 1341.47 1272.32 1342.31 Q1268.61 1343.14 1264.72 1344.9 L1264.72 1310.18 Z" fill="#000000" fill-rule="nonzero" fill-opacity="1" /><path clip-path="url(#clip200)" d="M1344.96 1316.33 Q1337.73 1316.33 1334.08 1323.46 Q1330.46 1330.55 1330.46 1344.81 Q1330.46 1359.02 1334.08 1366.15 Q1337.73 1373.23 1344.96 1373.23 Q1352.22 1373.23 1355.83 1366.15 Q1359.49 1359.02 1359.49 1344.81 Q1359.49 1330.55 1355.83 1323.46 Q1352.22 1316.33 1344.96 1316.33 M1344.96 1308.93 Q1356.58 1308.93 1362.69 1318.14 Q1368.84 1327.31 1368.84 1344.81 Q1368.84 1362.26 1362.69 1371.47 Q1356.58 1380.64 1344.96 1380.64 Q1333.33 1380.64 1327.18 1371.47 Q1321.07 1362.26 1321.07 1344.81 Q1321.07 1327.31 1327.18 1318.14 Q1333.33 1308.93 1344.96 1308.93 Z" fill="#000000" fill-rule="nonzero" fill-opacity="1" /><path clip-path="url(#clip200)" d="M1470.1 1316.33 Q1462.88 1316.33 1459.22 1323.46 Q1455.61 1330.55 1455.61 1344.81 Q1455.61 1359.02 1459.22 1366.15 Q1462.88 1373.23 1470.1 1373.23 Q1477.37 1373.23 1480.98 1366.15 Q1484.63 1359.02 1484.63 1344.81 Q1484.63 1330.55 1480.98 1323.46 Q1477.37 1316.33 1470.1 1316.33 M1470.1 1308.93 Q1481.72 1308.93 1487.83 1318.14 Q1493.99 1327.31 1493.99 1344.81 Q1493.99 1362.26 1487.83 1371.47 Q1481.72 1380.64 1470.1 1380.64 Q1458.48 1380.64 1452.32 1371.47 Q1446.21 1362.26 1446.21 1344.81 Q1446.21 1327.31 1452.32 1318.14 Q1458.48 1308.93 1470.1 1308.93 Z" fill="#000000" fill-rule="nonzero" fill-opacity="1" /><path clip-path="url(#clip200)" d="M1510.42 1367.54 L1520.19 1367.54 L1520.19 1379.3 L1510.42 1379.3 L1510.42 1367.54 Z" fill="#000000" fill-rule="nonzero" fill-opacity="1" /><path clip-path="url(#clip200)" d="M1538.2 1310.18 L1582.64 1310.18 L1582.64 1314.16 L1557.55 1379.3 L1547.78 1379.3 L1571.39 1318.05 L1538.2 1318.05 L1538.2 1310.18 Z" fill="#000000" fill-rule="nonzero" fill-opacity="1" /><path clip-path="url(#clip200)" d="M1600.98 1310.18 L1637.69 1310.18 L1637.69 1318.05 L1609.54 1318.05 L1609.54 1334.99 Q1611.58 1334.3 1613.62 1333.97 Q1615.65 1333.6 1617.69 1333.6 Q1629.26 1333.6 1636.02 1339.94 Q1642.78 1346.29 1642.78 1357.12 Q1642.78 1368.28 1635.84 1374.48 Q1628.89 1380.64 1616.25 1380.64 Q1611.9 1380.64 1607.37 1379.9 Q1602.87 1379.16 1598.06 1377.68 L1598.06 1368.28 Q1602.23 1370.55 1606.67 1371.66 Q1611.12 1372.77 1616.07 1372.77 Q1624.08 1372.77 1628.75 1368.56 Q1633.43 1364.34 1633.43 1357.12 Q1633.43 1349.9 1628.75 1345.68 Q1624.08 1341.47 1616.07 1341.47 Q1612.32 1341.47 1608.57 1342.31 Q1604.87 1343.14 1600.98 1344.9 L1600.98 1310.18 Z" fill="#000000" fill-rule="nonzero" fill-opacity="1" /><path clip-path="url(#clip200)" d="M1723.57 1371.43 L1738.85 1371.43 L1738.85 1318.69 L1722.23 1322.03 L1722.23 1313.51 L1738.76 1310.18 L1748.11 1310.18 L1748.11 1371.43 L1763.39 1371.43 L1763.39 1379.3 L1723.57 1379.3 L1723.57 1371.43 Z" fill="#000000" fill-rule="nonzero" fill-opacity="1" /><path clip-path="url(#clip200)" d="M1782.28 1367.54 L1792.05 1367.54 L1792.05 1379.3 L1782.28 1379.3 L1782.28 1367.54 Z" fill="#000000" fill-rule="nonzero" fill-opacity="1" /><path clip-path="url(#clip200)" d="M1832.42 1316.33 Q1825.19 1316.33 1821.54 1323.46 Q1817.92 1330.55 1817.92 1344.81 Q1817.92 1359.02 1821.54 1366.15 Q1825.19 1373.23 1832.42 1373.23 Q1839.68 1373.23 1843.29 1366.15 Q1846.95 1359.02 1846.95 1344.81 Q1846.95 1330.55 1843.29 1323.46 Q1839.68 1316.33 1832.42 1316.33 M1832.42 1308.93 Q1844.04 1308.93 1850.15 1318.14 Q1856.3 1327.31 1856.3 1344.81 Q1856.3 1362.26 1850.15 1371.47 Q1844.04 1380.64 1832.42 1380.64 Q1820.79 1380.64 1814.64 1371.47 Q1808.53 1362.26 1808.53 1344.81 Q1808.53 1327.31 1814.64 1318.14 Q1820.79 1308.93 1832.42 1308.93 Z" fill="#000000" fill-rule="nonzero" fill-opacity="1" /><path clip-path="url(#clip200)" d="M1892.74 1316.33 Q1885.52 1316.33 1881.86 1323.46 Q1878.25 1330.55 1878.25 1344.81 Q1878.25 1359.02 1881.86 1366.15 Q1885.52 1373.23 1892.74 1373.23 Q1900.01 1373.23 1903.62 1366.15 Q1907.28 1359.02 1907.28 1344.81 Q1907.28 1330.55 1903.62 1323.46 Q1900.01 1316.33 1892.74 1316.33 M1892.74 1308.93 Q1904.36 1308.93 1910.47 1318.14 Q1916.63 1327.31 1916.63 1344.81 Q1916.63 1362.26 1910.47 1371.47 Q1904.36 1380.64 1892.74 1380.64 Q1881.12 1380.64 1874.96 1371.47 Q1868.85 1362.26 1868.85 1344.81 Q1868.85 1327.31 1874.96 1318.14 Q1881.12 1308.93 1892.74 1308.93 Z" fill="#000000" fill-rule="nonzero" fill-opacity="1" /><path clip-path="url(#clip200)" d="M1999.5 1371.43 L2014.78 1371.43 L2014.78 1318.69 L1998.16 1322.03 L1998.16 1313.51 L2014.69 1310.18 L2024.04 1310.18 L2024.04 1371.43 L2039.32 1371.43 L2039.32 1379.3 L1999.5 1379.3 L1999.5 1371.43 Z" fill="#000000" fill-rule="nonzero" fill-opacity="1" /><path clip-path="url(#clip200)" d="M2058.21 1367.54 L2067.97 1367.54 L2067.97 1379.3 L2058.21 1379.3 L2058.21 1367.54 Z" fill="#000000" fill-rule="nonzero" fill-opacity="1" /><path clip-path="url(#clip200)" d="M2096.4 1371.43 L2129.04 1371.43 L2129.04 1379.3 L2085.15 1379.3 L2085.15 1371.43 Q2090.47 1365.92 2099.64 1356.66 Q2108.85 1347.35 2111.21 1344.67 Q2115.71 1339.62 2117.46 1336.15 Q2119.27 1332.63 2119.27 1329.25 Q2119.27 1323.74 2115.38 1320.27 Q2111.54 1316.8 2105.33 1316.8 Q2100.94 1316.8 2096.03 1318.32 Q2091.17 1319.85 2085.61 1322.95 L2085.61 1313.51 Q2091.26 1311.24 2096.17 1310.08 Q2101.08 1308.93 2105.15 1308.93 Q2115.89 1308.93 2122.28 1314.3 Q2128.67 1319.67 2128.67 1328.65 Q2128.67 1332.91 2127.05 1336.75 Q2125.47 1340.55 2121.26 1345.73 Q2120.1 1347.07 2113.9 1353.51 Q2107.7 1359.9 2096.4 1371.43 Z" fill="#000000" fill-rule="nonzero" fill-opacity="1" /><path clip-path="url(#clip200)" d="M2148.76 1310.18 L2185.47 1310.18 L2185.47 1318.05 L2157.33 1318.05 L2157.33 1334.99 Q2159.36 1334.3 2161.4 1333.97 Q2163.44 1333.6 2165.47 1333.6 Q2177.05 1333.6 2183.81 1339.94 Q2190.57 1346.29 2190.57 1357.12 Q2190.57 1368.28 2183.62 1374.48 Q2176.68 1380.64 2164.04 1380.64 Q2159.69 1380.64 2155.15 1379.9 Q2150.66 1379.16 2145.84 1377.68 L2145.84 1368.28 Q2150.01 1370.55 2154.46 1371.66 Q2158.9 1372.77 2163.85 1372.77 Q2171.86 1372.77 2176.54 1368.56 Q2181.21 1364.34 2181.21 1357.12 Q2181.21 1349.9 2176.54 1345.68 Q2171.86 1341.47 2163.85 1341.47 Q2160.1 1341.47 2156.35 1342.31 Q2152.65 1343.14 2148.76 1344.9 L2148.76 1310.18 Z" fill="#000000" fill-rule="nonzero" fill-opacity="1" /><path clip-path="url(#clip200)" d="M1375.05 1484.39 L1375.05 1527.42 L1363.34 1527.42 L1363.34 1484.77 Q1363.34 1474.65 1359.39 1469.62 Q1355.45 1464.59 1347.55 1464.59 Q1338.07 1464.59 1332.59 1470.64 Q1327.12 1476.69 1327.12 1487.13 L1327.12 1527.42 L1315.34 1527.42 L1315.34 1428.37 L1327.12 1428.37 L1327.12 1467.2 Q1331.32 1460.77 1336.99 1457.59 Q1342.72 1454.41 1350.16 1454.41 Q1362.45 1454.41 1368.75 1462.05 Q1375.05 1469.62 1375.05 1484.39 Z" fill="#000000" fill-rule="nonzero" fill-opacity="1" /><path clip-path="url(#clip200)" d="M1426.04 1464.34 Q1416.62 1464.34 1411.15 1471.72 Q1405.67 1479.04 1405.67 1491.84 Q1405.67 1504.63 1411.08 1512.02 Q1416.56 1519.34 1426.04 1519.34 Q1435.4 1519.34 1440.87 1511.96 Q1446.35 1504.57 1446.35 1491.84 Q1446.35 1479.17 1440.87 1471.79 Q1435.4 1464.34 1426.04 1464.34 M1426.04 1454.41 Q1441.32 1454.41 1450.04 1464.34 Q1458.76 1474.27 1458.76 1491.84 Q1458.76 1509.35 1450.04 1519.34 Q1441.32 1529.27 1426.04 1529.27 Q1410.7 1529.27 1401.98 1519.34 Q1393.32 1509.35 1393.32 1491.84 Q1393.32 1474.27 1401.98 1464.34 Q1410.7 1454.41 1426.04 1454.41 Z" fill="#000000" fill-rule="nonzero" fill-opacity="1" /><path clip-path="url(#clip200)" d="M1476.97 1499.29 L1476.97 1456.13 L1488.68 1456.13 L1488.68 1498.84 Q1488.68 1508.96 1492.63 1514.06 Q1496.57 1519.08 1504.47 1519.08 Q1513.95 1519.08 1519.43 1513.04 Q1524.97 1506.99 1524.97 1496.55 L1524.97 1456.13 L1536.68 1456.13 L1536.68 1527.42 L1524.97 1527.42 L1524.97 1516.47 Q1520.7 1522.97 1515.04 1526.15 Q1509.43 1529.27 1501.99 1529.27 Q1489.7 1529.27 1483.33 1521.63 Q1476.97 1513.99 1476.97 1499.29 M1506.44 1454.41 L1506.44 1454.41 Z" fill="#000000" fill-rule="nonzero" fill-opacity="1" /><path clip-path="url(#clip200)" d="M1602.12 1467.08 Q1600.14 1465.93 1597.79 1465.42 Q1595.5 1464.85 1592.7 1464.85 Q1582.77 1464.85 1577.42 1471.34 Q1572.14 1477.77 1572.14 1489.87 L1572.14 1527.42 L1560.36 1527.42 L1560.36 1456.13 L1572.14 1456.13 L1572.14 1467.2 Q1575.83 1460.71 1581.75 1457.59 Q1587.67 1454.41 1596.13 1454.41 Q1597.34 1454.41 1598.81 1454.6 Q1600.27 1454.73 1602.05 1455.05 L1602.12 1467.08 Z" fill="#000000" fill-rule="nonzero" fill-opacity="1" /><path clip-path="url(#clip200)" d="M1659.86 1458.23 L1659.86 1469.3 Q1654.89 1466.76 1649.54 1465.49 Q1644.2 1464.21 1638.47 1464.21 Q1629.75 1464.21 1625.35 1466.89 Q1621.02 1469.56 1621.02 1474.91 Q1621.02 1478.98 1624.14 1481.34 Q1627.26 1483.63 1636.68 1485.73 L1640.69 1486.62 Q1653.17 1489.29 1658.39 1494.19 Q1663.67 1499.03 1663.67 1507.75 Q1663.67 1517.68 1655.78 1523.48 Q1647.95 1529.27 1634.2 1529.27 Q1628.47 1529.27 1622.23 1528.12 Q1616.06 1527.04 1609.18 1524.81 L1609.18 1512.72 Q1615.68 1516.09 1621.98 1517.81 Q1628.28 1519.47 1634.46 1519.47 Q1642.73 1519.47 1647.19 1516.67 Q1651.64 1513.8 1651.64 1508.64 Q1651.64 1503.87 1648.4 1501.32 Q1645.21 1498.78 1634.33 1496.42 L1630.25 1495.47 Q1619.37 1493.18 1614.53 1488.47 Q1609.69 1483.69 1609.69 1475.42 Q1609.69 1465.36 1616.82 1459.88 Q1623.95 1454.41 1637.07 1454.41 Q1643.56 1454.41 1649.29 1455.36 Q1655.02 1456.32 1659.86 1458.23 Z" fill="#000000" fill-rule="nonzero" fill-opacity="1" /><polyline clip-path="url(#clip202)" style="stroke:#000000; stroke-linecap:round; stroke-linejoin:round; stroke-width:4; stroke-opacity:0.1; fill:none" points="673.506,1082.92 2305.51,1082.92 "/>
<polyline clip-path="url(#clip202)" style="stroke:#000000; stroke-linecap:round; stroke-linejoin:round; stroke-width:4; stroke-opacity:0.1; fill:none" points="673.506,783.857 2305.51,783.857 "/>
<polyline clip-path="url(#clip202)" style="stroke:#000000; stroke-linecap:round; stroke-linejoin:round; stroke-width:4; stroke-opacity:0.1; fill:none" points="673.506,484.793 2305.51,484.793 "/>
<polyline clip-path="url(#clip202)" style="stroke:#000000; stroke-linecap:round; stroke-linejoin:round; stroke-width:4; stroke-opacity:0.1; fill:none" points="673.506,185.73 2305.51,185.73 "/>
<polyline clip-path="url(#clip200)" style="stroke:#000000; stroke-linecap:round; stroke-linejoin:round; stroke-width:8; stroke-opacity:1; fill:none" points="673.506,1273.7 673.506,94.4882 "/>
<polyline clip-path="url(#clip200)" style="stroke:#000000; stroke-linecap:round; stroke-linejoin:round; stroke-width:8; stroke-opacity:1; fill:none" points="673.506,1082.92 692.404,1082.92 "/>
<polyline clip-path="url(#clip200)" style="stroke:#000000; stroke-linecap:round; stroke-linejoin:round; stroke-width:8; stroke-opacity:1; fill:none" points="673.506,783.857 692.404,783.857 "/>
<polyline clip-path="url(#clip200)" style="stroke:#000000; stroke-linecap:round; stroke-linejoin:round; stroke-width:8; stroke-opacity:1; fill:none" points="673.506,484.793 692.404,484.793 "/>
<polyline clip-path="url(#clip200)" style="stroke:#000000; stroke-linecap:round; stroke-linejoin:round; stroke-width:8; stroke-opacity:1; fill:none" points="673.506,185.73 692.404,185.73 "/>
<path clip-path="url(#clip200)" d="M384.128 1109.61 L399.405 1109.61 L399.405 1056.88 L382.785 1060.21 L382.785 1051.69 L399.313 1048.36 L408.665 1048.36 L408.665 1109.61 L423.942 1109.61 L423.942 1117.48 L384.128 1117.48 L384.128 1109.61 Z" fill="#000000" fill-rule="nonzero" fill-opacity="1" /><path clip-path="url(#clip200)" d="M462.831 1054.52 Q455.609 1054.52 451.951 1061.65 Q448.34 1068.73 448.34 1082.99 Q448.34 1097.2 451.951 1104.33 Q455.609 1111.42 462.831 1111.42 Q470.099 1111.42 473.711 1104.33 Q477.368 1097.2 477.368 1082.99 Q477.368 1068.73 473.711 1061.65 Q470.099 1054.52 462.831 1054.52 M462.831 1047.11 Q474.451 1047.11 480.562 1056.32 Q486.72 1065.49 486.72 1082.99 Q486.72 1100.44 480.562 1109.66 Q474.451 1118.82 462.831 1118.82 Q451.211 1118.82 445.053 1109.66 Q438.942 1100.44 438.942 1082.99 Q438.942 1065.49 445.053 1056.32 Q451.211 1047.11 462.831 1047.11 Z" fill="#000000" fill-rule="nonzero" fill-opacity="1" /><path clip-path="url(#clip200)" d="M523.155 1054.52 Q515.933 1054.52 512.275 1061.65 Q508.664 1068.73 508.664 1082.99 Q508.664 1097.2 512.275 1104.33 Q515.933 1111.42 523.155 1111.42 Q530.423 1111.42 534.034 1104.33 Q537.692 1097.2 537.692 1082.99 Q537.692 1068.73 534.034 1061.65 Q530.423 1054.52 523.155 1054.52 M523.155 1047.11 Q534.775 1047.11 540.886 1056.32 Q547.043 1065.49 547.043 1082.99 Q547.043 1100.44 540.886 1109.66 Q534.775 1118.82 523.155 1118.82 Q511.534 1118.82 505.377 1109.66 Q499.266 1100.44 499.266 1082.99 Q499.266 1065.49 505.377 1056.32 Q511.534 1047.11 523.155 1047.11 Z" fill="#000000" fill-rule="nonzero" fill-opacity="1" /><path clip-path="url(#clip200)" d="M563.479 1105.72 L573.247 1105.72 L573.247 1117.48 L563.479 1117.48 L563.479 1105.72 Z" fill="#000000" fill-rule="nonzero" fill-opacity="1" /><path clip-path="url(#clip200)" d="M613.617 1054.52 Q606.395 1054.52 602.738 1061.65 Q599.127 1068.73 599.127 1082.99 Q599.127 1097.2 602.738 1104.33 Q606.395 1111.42 613.617 1111.42 Q620.886 1111.42 624.497 1104.33 Q628.154 1097.2 628.154 1082.99 Q628.154 1068.73 624.497 1061.65 Q620.886 1054.52 613.617 1054.52 M613.617 1047.11 Q625.238 1047.11 631.349 1056.32 Q637.506 1065.49 637.506 1082.99 Q637.506 1100.44 631.349 1109.66 Q625.238 1118.82 613.617 1118.82 Q601.997 1118.82 595.84 1109.66 Q589.728 1100.44 589.728 1082.99 Q589.728 1065.49 595.84 1056.32 Q601.997 1047.11 613.617 1047.11 Z" fill="#000000" fill-rule="nonzero" fill-opacity="1" /><path clip-path="url(#clip200)" d="M384.128 810.547 L399.405 810.547 L399.405 757.815 L382.785 761.149 L382.785 752.63 L399.313 749.297 L408.665 749.297 L408.665 810.547 L423.942 810.547 L423.942 818.417 L384.128 818.417 L384.128 810.547 Z" fill="#000000" fill-rule="nonzero" fill-opacity="1" /><path clip-path="url(#clip200)" d="M450.887 810.547 L483.525 810.547 L483.525 818.417 L439.637 818.417 L439.637 810.547 Q444.961 805.037 454.127 795.778 Q463.34 786.473 465.701 783.787 Q470.192 778.741 471.951 775.269 Q473.757 771.75 473.757 768.371 Q473.757 762.862 469.868 759.389 Q466.025 755.917 459.822 755.917 Q455.424 755.917 450.516 757.445 Q445.655 758.973 440.1 762.075 L440.1 752.63 Q445.748 750.362 450.655 749.204 Q455.562 748.047 459.637 748.047 Q470.377 748.047 476.766 753.417 Q483.155 758.788 483.155 767.769 Q483.155 772.028 481.535 775.871 Q479.961 779.667 475.748 784.852 Q474.59 786.195 468.387 792.63 Q462.183 799.019 450.887 810.547 Z" fill="#000000" fill-rule="nonzero" fill-opacity="1" /><path clip-path="url(#clip200)" d="M523.155 755.454 Q515.933 755.454 512.275 762.584 Q508.664 769.667 508.664 783.926 Q508.664 798.139 512.275 805.269 Q515.933 812.352 523.155 812.352 Q530.423 812.352 534.034 805.269 Q537.692 798.139 537.692 783.926 Q537.692 769.667 534.034 762.584 Q530.423 755.454 523.155 755.454 M523.155 748.047 Q534.775 748.047 540.886 757.26 Q547.043 766.426 547.043 783.926 Q547.043 801.38 540.886 810.593 Q534.775 819.759 523.155 819.759 Q511.534 819.759 505.377 810.593 Q499.266 801.38 499.266 783.926 Q499.266 766.426 505.377 757.26 Q511.534 748.047 523.155 748.047 Z" fill="#000000" fill-rule="nonzero" fill-opacity="1" /><path clip-path="url(#clip200)" d="M563.479 806.658 L573.247 806.658 L573.247 818.417 L563.479 818.417 L563.479 806.658 Z" fill="#000000" fill-rule="nonzero" fill-opacity="1" /><path clip-path="url(#clip200)" d="M613.617 755.454 Q606.395 755.454 602.738 762.584 Q599.127 769.667 599.127 783.926 Q599.127 798.139 602.738 805.269 Q606.395 812.352 613.617 812.352 Q620.886 812.352 624.497 805.269 Q628.154 798.139 628.154 783.926 Q628.154 769.667 624.497 762.584 Q620.886 755.454 613.617 755.454 M613.617 748.047 Q625.238 748.047 631.349 757.26 Q637.506 766.426 637.506 783.926 Q637.506 801.38 631.349 810.593 Q625.238 819.759 613.617 819.759 Q601.997 819.759 595.84 810.593 Q589.728 801.38 589.728 783.926 Q589.728 766.426 595.84 757.26 Q601.997 748.047 613.617 748.047 Z" fill="#000000" fill-rule="nonzero" fill-opacity="1" /><path clip-path="url(#clip200)" d="M384.128 511.483 L399.405 511.483 L399.405 458.752 L382.785 462.085 L382.785 453.567 L399.313 450.233 L408.665 450.233 L408.665 511.483 L423.942 511.483 L423.942 519.353 L384.128 519.353 L384.128 511.483 Z" fill="#000000" fill-rule="nonzero" fill-opacity="1" /><path clip-path="url(#clip200)" d="M468.525 458.381 L444.914 495.279 L468.525 495.279 L468.525 458.381 M466.072 450.233 L477.831 450.233 L477.831 495.279 L487.692 495.279 L487.692 503.057 L477.831 503.057 L477.831 519.353 L468.525 519.353 L468.525 503.057 L437.322 503.057 L437.322 494.029 L466.072 450.233 Z" fill="#000000" fill-rule="nonzero" fill-opacity="1" /><path clip-path="url(#clip200)" d="M523.155 456.391 Q515.933 456.391 512.275 463.52 Q508.664 470.604 508.664 484.863 Q508.664 499.076 512.275 506.205 Q515.933 513.288 523.155 513.288 Q530.423 513.288 534.034 506.205 Q537.692 499.076 537.692 484.863 Q537.692 470.604 534.034 463.52 Q530.423 456.391 523.155 456.391 M523.155 448.983 Q534.775 448.983 540.886 458.196 Q547.043 467.363 547.043 484.863 Q547.043 502.316 540.886 511.529 Q534.775 520.696 523.155 520.696 Q511.534 520.696 505.377 511.529 Q499.266 502.316 499.266 484.863 Q499.266 467.363 505.377 458.196 Q511.534 448.983 523.155 448.983 Z" fill="#000000" fill-rule="nonzero" fill-opacity="1" /><path clip-path="url(#clip200)" d="M563.479 507.594 L573.247 507.594 L573.247 519.353 L563.479 519.353 L563.479 507.594 Z" fill="#000000" fill-rule="nonzero" fill-opacity="1" /><path clip-path="url(#clip200)" d="M613.617 456.391 Q606.395 456.391 602.738 463.52 Q599.127 470.604 599.127 484.863 Q599.127 499.076 602.738 506.205 Q606.395 513.288 613.617 513.288 Q620.886 513.288 624.497 506.205 Q628.154 499.076 628.154 484.863 Q628.154 470.604 624.497 463.52 Q620.886 456.391 613.617 456.391 M613.617 448.983 Q625.238 448.983 631.349 458.196 Q637.506 467.363 637.506 484.863 Q637.506 502.316 631.349 511.529 Q625.238 520.696 613.617 520.696 Q601.997 520.696 595.84 511.529 Q589.728 502.316 589.728 484.863 Q589.728 467.363 595.84 458.196 Q601.997 448.983 613.617 448.983 Z" fill="#000000" fill-rule="nonzero" fill-opacity="1" /><path clip-path="url(#clip200)" d="M384.128 212.419 L399.405 212.419 L399.405 159.688 L382.785 163.021 L382.785 154.503 L399.313 151.17 L408.665 151.17 L408.665 212.419 L423.942 212.419 L423.942 220.29 L384.128 220.29 L384.128 212.419 Z" fill="#000000" fill-rule="nonzero" fill-opacity="1" /><path clip-path="url(#clip200)" d="M463.988 182.003 Q457.692 182.003 453.988 186.308 Q450.331 190.614 450.331 198.114 Q450.331 205.567 453.988 209.919 Q457.692 214.225 463.988 214.225 Q470.285 214.225 473.942 209.919 Q477.646 205.567 477.646 198.114 Q477.646 190.614 473.942 186.308 Q470.285 182.003 463.988 182.003 M482.553 152.697 L482.553 161.216 Q479.035 159.549 475.424 158.67 Q471.859 157.79 468.34 157.79 Q459.081 157.79 454.174 164.04 Q449.313 170.29 448.618 182.929 Q451.35 178.901 455.47 176.771 Q459.59 174.595 464.544 174.595 Q474.961 174.595 480.979 180.938 Q487.044 187.234 487.044 198.114 Q487.044 208.762 480.748 215.197 Q474.451 221.632 463.988 221.632 Q451.998 221.632 445.655 212.466 Q439.313 203.253 439.313 185.799 Q439.313 169.41 447.09 159.688 Q454.868 149.92 467.97 149.92 Q471.488 149.92 475.053 150.614 Q478.664 151.309 482.553 152.697 Z" fill="#000000" fill-rule="nonzero" fill-opacity="1" /><path clip-path="url(#clip200)" d="M523.155 157.327 Q515.933 157.327 512.275 164.457 Q508.664 171.54 508.664 185.799 Q508.664 200.012 512.275 207.142 Q515.933 214.225 523.155 214.225 Q530.423 214.225 534.034 207.142 Q537.692 200.012 537.692 185.799 Q537.692 171.54 534.034 164.457 Q530.423 157.327 523.155 157.327 M523.155 149.92 Q534.775 149.92 540.886 159.133 Q547.043 168.299 547.043 185.799 Q547.043 203.253 540.886 212.466 Q534.775 221.632 523.155 221.632 Q511.534 221.632 505.377 212.466 Q499.266 203.253 499.266 185.799 Q499.266 168.299 505.377 159.133 Q511.534 149.92 523.155 149.92 Z" fill="#000000" fill-rule="nonzero" fill-opacity="1" /><path clip-path="url(#clip200)" d="M563.479 208.53 L573.247 208.53 L573.247 220.29 L563.479 220.29 L563.479 208.53 Z" fill="#000000" fill-rule="nonzero" fill-opacity="1" /><path clip-path="url(#clip200)" d="M613.617 157.327 Q606.395 157.327 602.738 164.457 Q599.127 171.54 599.127 185.799 Q599.127 200.012 602.738 207.142 Q606.395 214.225 613.617 214.225 Q620.886 214.225 624.497 207.142 Q628.154 200.012 628.154 185.799 Q628.154 171.54 624.497 164.457 Q620.886 157.327 613.617 157.327 M613.617 149.92 Q625.238 149.92 631.349 159.133 Q637.506 168.299 637.506 185.799 Q637.506 203.253 631.349 212.466 Q625.238 221.632 613.617 221.632 Q601.997 221.632 595.84 212.466 Q589.728 203.253 589.728 185.799 Q589.728 168.299 595.84 159.133 Q601.997 149.92 613.617 149.92 Z" fill="#000000" fill-rule="nonzero" fill-opacity="1" /><path clip-path="url(#clip200)" d="M307.579 933.755 L345.391 933.755 L345.391 945.532 L246.977 945.532 L246.977 933.755 L257.799 933.755 Q251.433 930.063 248.378 924.461 Q245.258 918.796 245.258 910.966 Q245.258 897.98 255.571 889.895 Q265.883 881.747 282.689 881.747 Q299.494 881.747 309.807 889.895 Q320.119 897.98 320.119 910.966 Q320.119 918.796 317.064 924.461 Q313.944 930.063 307.579 933.755 M282.689 893.906 Q269.766 893.906 262.446 899.253 Q255.062 904.536 255.062 913.83 Q255.062 923.124 262.446 928.471 Q269.766 933.755 282.689 933.755 Q295.611 933.755 302.995 928.471 Q310.316 923.124 310.316 913.83 Q310.316 904.536 302.995 899.253 Q295.611 893.906 282.689 893.906 Z" fill="#000000" fill-rule="nonzero" fill-opacity="1" /><path clip-path="url(#clip200)" d="M282.434 829.93 Q282.434 844.126 285.681 849.6 Q288.927 855.075 296.757 855.075 Q302.995 855.075 306.688 851.001 Q310.316 846.863 310.316 839.797 Q310.316 830.058 303.441 824.201 Q296.502 818.281 285.044 818.281 L282.434 818.281 L282.434 829.93 M277.596 806.568 L318.273 806.568 L318.273 818.281 L307.451 818.281 Q313.944 822.291 317.064 828.275 Q320.119 834.259 320.119 842.916 Q320.119 853.865 314.008 860.358 Q307.833 866.788 297.521 866.788 Q285.49 866.788 279.379 858.767 Q273.268 850.683 273.268 834.705 L273.268 818.281 L272.122 818.281 Q264.037 818.281 259.645 823.628 Q255.189 828.912 255.189 838.524 Q255.189 844.635 256.653 850.428 Q258.117 856.221 261.045 861.568 L250.224 861.568 Q247.741 855.139 246.532 849.091 Q245.258 843.044 245.258 837.315 Q245.258 821.846 253.279 814.207 Q261.3 806.568 277.596 806.568 Z" fill="#000000" fill-rule="nonzero" fill-opacity="1" /><path clip-path="url(#clip200)" d="M257.926 741.129 Q256.78 743.102 256.271 745.457 Q255.698 747.749 255.698 750.55 Q255.698 760.48 262.191 765.828 Q268.621 771.111 280.715 771.111 L318.273 771.111 L318.273 782.888 L246.977 782.888 L246.977 771.111 L258.054 771.111 Q251.561 767.419 248.441 761.499 Q245.258 755.579 245.258 747.112 Q245.258 745.903 245.449 744.439 Q245.577 742.975 245.895 741.192 L257.926 741.129 Z" fill="#000000" fill-rule="nonzero" fill-opacity="1" /><path clip-path="url(#clip200)" d="M279.697 670.724 L285.426 670.724 L285.426 724.578 Q297.521 723.814 303.887 717.321 Q310.189 710.764 310.189 699.115 Q310.189 692.367 308.534 686.065 Q306.878 679.7 303.568 673.461 L314.645 673.461 Q317.318 679.763 318.719 686.384 Q320.119 693.004 320.119 699.815 Q320.119 716.875 310.189 726.87 Q300.258 736.8 283.325 736.8 Q265.82 736.8 255.571 727.379 Q245.258 717.894 245.258 701.852 Q245.258 687.466 254.552 679.127 Q263.783 670.724 279.697 670.724 M276.259 682.437 Q266.647 682.564 260.918 687.848 Q255.189 693.068 255.189 701.725 Q255.189 711.528 260.727 717.448 Q266.265 723.305 276.323 724.196 L276.259 682.437 Z" fill="#000000" fill-rule="nonzero" fill-opacity="1" /><path clip-path="url(#clip200)" d="M275.241 592.235 L318.273 592.235 L318.273 603.948 L275.623 603.948 Q265.501 603.948 260.472 607.894 Q255.444 611.841 255.444 619.735 Q255.444 629.22 261.491 634.694 Q267.538 640.169 277.978 640.169 L318.273 640.169 L318.273 651.945 L246.977 651.945 L246.977 640.169 L258.054 640.169 Q251.624 635.967 248.441 630.302 Q245.258 624.573 245.258 617.125 Q245.258 604.839 252.897 598.537 Q260.472 592.235 275.241 592.235 Z" fill="#000000" fill-rule="nonzero" fill-opacity="1" /><path clip-path="url(#clip200)" d="M302.104 567.218 L302.104 553.786 L318.273 553.786 L318.273 567.218 L302.104 567.218 Z" fill="#000000" fill-rule="nonzero" fill-opacity="1" /><path clip-path="url(#clip200)" d="M234.437 449.006 L285.171 481.472 L285.171 449.006 L234.437 449.006 M223.233 452.38 L223.233 436.211 L285.171 436.211 L285.171 422.652 L295.866 422.652 L295.866 436.211 L318.273 436.211 L318.273 449.006 L295.866 449.006 L295.866 491.911 L283.453 491.911 L223.233 452.38 Z" fill="#000000" fill-rule="nonzero" fill-opacity="1" /><polyline clip-path="url(#clip202)" style="stroke:#008000; stroke-linecap:round; stroke-linejoin:round; stroke-width:8; stroke-opacity:1; fill:none" points="719.695,221.077 829.668,245.214 939.642,372.798 1049.62,412.864 1159.59,508.507 1269.56,604.08 1379.54,595.983 1489.51,684.672 1599.48,871.776 1709.46,888.304 1819.43,965.984 1929.4,1026.21 2039.38,1128.37 2149.35,1131.43 2259.32,1240.32 "/>
<circle clip-path="url(#clip202)" cx="719.695" cy="221.077" r="14.4" fill="#008000" fill-rule="evenodd" fill-opacity="1" stroke="#000000" stroke-opacity="1" stroke-width="6.4"/>
<circle clip-path="url(#clip202)" cx="829.668" cy="245.214" r="14.4" fill="#008000" fill-rule="evenodd" fill-opacity="1" stroke="#000000" stroke-opacity="1" stroke-width="6.4"/>
<circle clip-path="url(#clip202)" cx="939.642" cy="372.798" r="14.4" fill="#008000" fill-rule="evenodd" fill-opacity="1" stroke="#000000" stroke-opacity="1" stroke-width="6.4"/>
<circle clip-path="url(#clip202)" cx="1049.62" cy="412.864" r="14.4" fill="#008000" fill-rule="evenodd" fill-opacity="1" stroke="#000000" stroke-opacity="1" stroke-width="6.4"/>
<circle clip-path="url(#clip202)" cx="1159.59" cy="508.507" r="14.4" fill="#008000" fill-rule="evenodd" fill-opacity="1" stroke="#000000" stroke-opacity="1" stroke-width="6.4"/>
<circle clip-path="url(#clip202)" cx="1269.56" cy="604.08" r="14.4" fill="#008000" fill-rule="evenodd" fill-opacity="1" stroke="#000000" stroke-opacity="1" stroke-width="6.4"/>
<circle clip-path="url(#clip202)" cx="1379.54" cy="595.983" r="14.4" fill="#008000" fill-rule="evenodd" fill-opacity="1" stroke="#000000" stroke-opacity="1" stroke-width="6.4"/>
<circle clip-path="url(#clip202)" cx="1489.51" cy="684.672" r="14.4" fill="#008000" fill-rule="evenodd" fill-opacity="1" stroke="#000000" stroke-opacity="1" stroke-width="6.4"/>
<circle clip-path="url(#clip202)" cx="1599.48" cy="871.776" r="14.4" fill="#008000" fill-rule="evenodd" fill-opacity="1" stroke="#000000" stroke-opacity="1" stroke-width="6.4"/>
<circle clip-path="url(#clip202)" cx="1709.46" cy="888.304" r="14.4" fill="#008000" fill-rule="evenodd" fill-opacity="1" stroke="#000000" stroke-opacity="1" stroke-width="6.4"/>
<circle clip-path="url(#clip202)" cx="1819.43" cy="965.984" r="14.4" fill="#008000" fill-rule="evenodd" fill-opacity="1" stroke="#000000" stroke-opacity="1" stroke-width="6.4"/>
<circle clip-path="url(#clip202)" cx="1929.4" cy="1026.21" r="14.4" fill="#008000" fill-rule="evenodd" fill-opacity="1" stroke="#000000" stroke-opacity="1" stroke-width="6.4"/>
<circle clip-path="url(#clip202)" cx="2039.38" cy="1128.37" r="14.4" fill="#008000" fill-rule="evenodd" fill-opacity="1" stroke="#000000" stroke-opacity="1" stroke-width="6.4"/>
<circle clip-path="url(#clip202)" cx="2149.35" cy="1131.43" r="14.4" fill="#008000" fill-rule="evenodd" fill-opacity="1" stroke="#000000" stroke-opacity="1" stroke-width="6.4"/>
<circle clip-path="url(#clip202)" cx="2259.32" cy="1240.32" r="14.4" fill="#008000" fill-rule="evenodd" fill-opacity="1" stroke="#000000" stroke-opacity="1" stroke-width="6.4"/>
<polyline clip-path="url(#clip202)" style="stroke:#00008b; stroke-linecap:round; stroke-linejoin:round; stroke-width:8; stroke-opacity:1; fill:none" points="719.695,174.234 829.668,229.141 939.642,314.815 1049.62,406.354 1159.59,492.931 1269.56,568.331 1379.54,643.704 1489.51,708.54 1599.48,771.347 1709.46,834.237 1819.43,888.019 1929.4,945.717 2039.38,995.156 2149.35,1046.45 2259.32,1090.51 "/>
<path clip-path="url(#clip202)" d="M719.695 218.966 L829.668 272.695 L939.642 358.808 L1049.62 449.073 L1159.59 538.871 L1269.56 614.151 L1379.54 688.133 L1489.51 751.907 L1599.48 817.627 L1709.46 875.186 L1819.43 933.492 L1929.4 991.683 L2039.38 1041.33 L2149.35 1091.39 L2259.32 1133.28 L2259.32 1043.84 L2149.35 1004.1 L2039.38 947.37 L1929.4 900.079 L1819.43 843.161 L1709.46 789.243 L1599.48 724.747 L1489.51 662.77 L1379.54 597.93 L1269.56 523.314 L1159.59 452.132 L1049.62 361.682 L939.642 271.379 L829.668 183.723 L719.695 127.862  Z" fill="#0000ff" fill-rule="evenodd" fill-opacity="0.1"/>
<polyline clip-path="url(#clip202)" style="stroke:#0000ff; stroke-linecap:round; stroke-linejoin:round; stroke-width:0; stroke-opacity:0.1; fill:none" points="719.695,218.966 829.668,272.695 939.642,358.808 1049.62,449.073 1159.59,538.871 1269.56,614.151 1379.54,688.133 1489.51,751.907 1599.48,817.627 1709.46,875.186 1819.43,933.492 1929.4,991.683 2039.38,1041.33 2149.35,1091.39 2259.32,1133.28 "/>
</svg>
