<?xml version="1.0" encoding="utf-8"?>
<svg xmlns="http://www.w3.org/2000/svg" xmlns:xlink="http://www.w3.org/1999/xlink" width="600" height="400" viewBox="0 0 2400 1600">
<defs>
  <clipPath id="clip120">
    <rect x="0" y="0" width="2400" height="1600"/>
  </clipPath>
</defs>
<path clip-path="url(#clip120)" d="M0 1600 L2400 1600 L2400 0 L0 0  Z" fill="#ffffff" fill-rule="evenodd" fill-opacity="1"/>
<defs>
  <clipPath id="clip121">
    <rect x="480" y="0" width="1681" height="1600"/>
  </clipPath>
</defs>
<path clip-path="url(#clip120)" d="M673.506 1273.7 L2305.51 1273.7 L2305.51 94.4882 L673.506 94.4882  Z" fill="#ffffff" fill-rule="evenodd" fill-opacity="1"/>
<defs>
  <clipPath id="clip122">
    <rect x="673" y="94" width="1633" height="1180"/>
  </clipPath>
</defs>
<polyline clip-path="url(#clip122)" style="stroke:#000000; stroke-linecap:round; stroke-linejoin:round; stroke-width:4; stroke-opacity:0.1; fill:none" points="719.695,1273.7 719.695,94.4882 "/>
<polyline clip-path="url(#clip122)" style="stroke:#000000; stroke-linecap:round; stroke-linejoin:round; stroke-width:4; stroke-opacity:0.1; fill:none" points="994.628,1273.7 994.628,94.4882 "/>
<polyline clip-path="url(#clip122)" style="stroke:#000000; stroke-linecap:round; stroke-linejoin:round; stroke-width:4; stroke-opacity:0.1; fill:none" points="1269.56,1273.7 1269.56,94.4882 "/>
<polyline clip-path="url(#clip122)" style="stroke:#000000; stroke-linecap:round; stroke-linejoin:round; stroke-width:4; stroke-opacity:0.1; fill:none" points="1544.5,1273.7 1544.5,94.4882 "/>
<polyline clip-path="url(#clip122)" style="stroke:#000000; stroke-linecap:round; stroke-linejoin:round; stroke-width:4; stroke-opacity:0.1; fill:none" points="1819.43,1273.7 1819.43,94.4882 "/>
<polyline clip-path="url(#clip122)" style="stroke:#000000; stroke-linecap:round; stroke-linejoin:round; stroke-width:4; stroke-opacity:0.1; fill:none" points="2094.36,1273.7 2094.36,94.4882 "/>
<polyline clip-path="url(#clip120)" style="stroke:#000000; stroke-linecap:round; stroke-linejoin:round; stroke-width:8; stroke-opacity:1; fill:none" points="673.506,1273.7 2305.51,1273.7 "/>
<polyline clip-path="url(#clip120)" style="stroke:#000000; stroke-linecap:round; stroke-linejoin:round; stroke-width:8; stroke-opacity:1; fill:none" points="719.695,1273.7 719.695,1254.8 "/>
<polyline clip-path="url(#clip120)" style="stroke:#000000; stroke-linecap:round; stroke-linejoin:round; stroke-width:8; stroke-opacity:1; fill:none" points="994.628,1273.7 994.628,1254.8 "/>
<polyline clip-path="url(#clip120)" style="stroke:#000000; stroke-linecap:round; stroke-linejoin:round; stroke-width:8; stroke-opacity:1; fill:none" points="1269.56,1273.7 1269.56,1254.8 "/>
<polyline clip-path="url(#clip120)" style="stroke:#000000; stroke-linecap:round; stroke-linejoin:round; stroke-width:8; stroke-opacity:1; fill:none" points="1544.5,1273.7 1544.5,1254.8 "/>
<polyline clip-path="url(#clip120)" style="stroke:#000000; stroke-linecap:round; stroke-linejoin:round; stroke-width:8; stroke-opacity:1; fill:none" points="1819.43,1273.7 1819.43,1254.8 "/>
<polyline clip-path="url(#clip120)" style="stroke:#000000; stroke-linecap:round; stroke-linejoin:round; stroke-width:8; stroke-opacity:1; fill:none" points="2094.36,1273.7 2094.36,1254.8 "/>
<path clip-path="url(#clip120)" d="M644.302 1316.33 Q637.08 1316.33 633.422 1323.46 Q629.811 1330.55 629.811 1344.81 Q629.811 1359.02 633.422 1366.15 Q637.08 1373.23 644.302 1373.23 Q651.57 1373.23 655.181 1366.15 Q658.839 1359.02 658.839 1344.81 Q658.839 1330.55 655.181 1323.46 Q651.57 1316.33 644.302 1316.33 M644.302 1308.93 Q655.922 1308.93 662.033 1318.14 Q668.19 1327.31 668.19 1344.81 Q668.19 1362.26 662.033 1371.47 Q655.922 1380.64 644.302 1380.64 Q632.681 1380.64 626.524 1371.47 Q620.413 1362.26 620.413 1344.81 Q620.413 1327.31 626.524 1318.14 Q632.681 1308.93 644.302 1308.93 Z" fill="#000000" fill-rule="nonzero" fill-opacity="1" /><path clip-path="url(#clip120)" d="M684.626 1367.54 L694.394 1367.54 L694.394 1379.3 L684.626 1379.3 L684.626 1367.54 Z" fill="#000000" fill-rule="nonzero" fill-opacity="1" /><path clip-path="url(#clip120)" d="M734.764 1316.33 Q727.542 1316.33 723.885 1323.46 Q720.274 1330.55 720.274 1344.81 Q720.274 1359.02 723.885 1366.15 Q727.542 1373.23 734.764 1373.23 Q742.033 1373.23 745.644 1366.15 Q749.301 1359.02 749.301 1344.81 Q749.301 1330.55 745.644 1323.46 Q742.033 1316.33 734.764 1316.33 M734.764 1308.93 Q746.384 1308.93 752.496 1318.14 Q758.653 1327.31 758.653 1344.81 Q758.653 1362.26 752.496 1371.47 Q746.384 1380.64 734.764 1380.64 Q723.144 1380.64 716.986 1371.47 Q710.875 1362.26 710.875 1344.81 Q710.875 1327.31 716.986 1318.14 Q723.144 1308.93 734.764 1308.93 Z" fill="#000000" fill-rule="nonzero" fill-opacity="1" /><path clip-path="url(#clip120)" d="M795.088 1316.33 Q787.866 1316.33 784.208 1323.46 Q780.597 1330.55 780.597 1344.81 Q780.597 1359.02 784.208 1366.15 Q787.866 1373.23 795.088 1373.23 Q802.356 1373.23 805.967 1366.15 Q809.625 1359.02 809.625 1344.81 Q809.625 1330.55 805.967 1323.46 Q802.356 1316.33 795.088 1316.33 M795.088 1308.93 Q806.708 1308.93 812.819 1318.14 Q818.977 1327.31 818.977 1344.81 Q818.977 1362.26 812.819 1371.47 Q806.708 1380.64 795.088 1380.64 Q783.468 1380.64 777.31 1371.47 Q771.199 1362.26 771.199 1344.81 Q771.199 1327.31 777.31 1318.14 Q783.468 1308.93 795.088 1308.93 Z" fill="#000000" fill-rule="nonzero" fill-opacity="1" /><path clip-path="url(#clip120)" d="M920.231 1316.33 Q913.008 1316.33 909.351 1323.46 Q905.74 1330.55 905.74 1344.81 Q905.74 1359.02 909.351 1366.15 Q913.008 1373.23 920.231 1373.23 Q927.499 1373.23 931.11 1366.15 Q934.768 1359.02 934.768 1344.81 Q934.768 1330.55 931.11 1323.46 Q927.499 1316.33 920.231 1316.33 M920.231 1308.93 Q931.851 1308.93 937.962 1318.14 Q944.119 1327.31 944.119 1344.81 Q944.119 1362.26 937.962 1371.47 Q931.851 1380.64 920.231 1380.64 Q908.61 1380.64 902.453 1371.47 Q896.342 1362.26 896.342 1344.81 Q896.342 1327.31 902.453 1318.14 Q908.61 1308.93 920.231 1308.93 Z" fill="#000000" fill-rule="nonzero" fill-opacity="1" /><path clip-path="url(#clip120)" d="M960.555 1367.54 L970.323 1367.54 L970.323 1379.3 L960.555 1379.3 L960.555 1367.54 Z" fill="#000000" fill-rule="nonzero" fill-opacity="1" /><path clip-path="url(#clip120)" d="M998.749 1371.43 L1031.39 1371.43 L1031.39 1379.3 L987.499 1379.3 L987.499 1371.43 Q992.823 1365.92 1001.99 1356.66 Q1011.2 1347.35 1013.56 1344.67 Q1018.05 1339.62 1019.81 1336.15 Q1021.62 1332.63 1021.62 1329.25 Q1021.62 1323.74 1017.73 1320.27 Q1013.89 1316.8 1007.68 1316.8 Q1003.29 1316.8 998.378 1318.32 Q993.517 1319.85 987.962 1322.95 L987.962 1313.51 Q993.61 1311.24 998.517 1310.08 Q1003.42 1308.93 1007.5 1308.93 Q1018.24 1308.93 1024.63 1314.3 Q1031.02 1319.67 1031.02 1328.65 Q1031.02 1332.91 1029.4 1336.75 Q1027.82 1340.55 1023.61 1345.73 Q1022.45 1347.07 1016.25 1353.51 Q1010.04 1359.9 998.749 1371.43 Z" fill="#000000" fill-rule="nonzero" fill-opacity="1" /><path clip-path="url(#clip120)" d="M1051.11 1310.18 L1087.82 1310.18 L1087.82 1318.05 L1059.67 1318.05 L1059.67 1334.99 Q1061.71 1334.3 1063.75 1333.97 Q1065.79 1333.6 1067.82 1333.6 Q1079.4 1333.6 1086.16 1339.94 Q1092.91 1346.29 1092.91 1357.12 Q1092.91 1368.28 1085.97 1374.48 Q1079.03 1380.64 1066.39 1380.64 Q1062.04 1380.64 1057.5 1379.9 Q1053.01 1379.16 1048.19 1377.68 L1048.19 1368.28 Q1052.36 1370.55 1056.8 1371.66 Q1061.25 1372.77 1066.2 1372.77 Q1074.21 1372.77 1078.89 1368.56 Q1083.56 1364.34 1083.56 1357.12 Q1083.56 1349.9 1078.89 1345.68 Q1074.21 1341.47 1066.2 1341.47 Q1062.45 1341.47 1058.7 1342.31 Q1055 1343.14 1051.11 1344.9 L1051.11 1310.18 Z" fill="#000000" fill-rule="nonzero" fill-opacity="1" /><path clip-path="url(#clip120)" d="M1194.17 1316.33 Q1186.95 1316.33 1183.29 1323.46 Q1179.68 1330.55 1179.68 1344.81 Q1179.68 1359.02 1183.29 1366.15 Q1186.95 1373.23 1194.17 1373.23 Q1201.44 1373.23 1205.05 1366.15 Q1208.71 1359.02 1208.71 1344.81 Q1208.71 1330.55 1205.05 1323.46 Q1201.44 1316.33 1194.17 1316.33 M1194.17 1308.93 Q1205.79 1308.93 1211.9 1318.14 Q1218.06 1327.31 1218.06 1344.81 Q1218.06 1362.26 1211.9 1371.47 Q1205.79 1380.64 1194.17 1380.64 Q1182.55 1380.64 1176.39 1371.47 Q1170.28 1362.26 1170.28 1344.81 Q1170.28 1327.31 1176.39 1318.14 Q1182.55 1308.93 1194.17 1308.93 Z" fill="#000000" fill-rule="nonzero" fill-opacity="1" /><path clip-path="url(#clip120)" d="M1234.49 1367.54 L1244.26 1367.54 L1244.26 1379.3 L1234.49 1379.3 L1234.49 1367.54 Z" fill="#000000" fill-rule="nonzero" fill-opacity="1" /><path clip-path="url(#clip120)" d="M1264.72 1310.18 L1301.44 1310.18 L1301.44 1318.05 L1273.29 1318.05 L1273.29 1334.99 Q1275.33 1334.3 1277.36 1333.97 Q1279.4 1333.6 1281.44 1333.6 Q1293.01 1333.6 1299.77 1339.94 Q1306.53 1346.29 1306.53 1357.12 Q1306.53 1368.28 1299.58 1374.48 Q1292.64 1380.64 1280 1380.64 Q1275.65 1380.64 1271.11 1379.9 Q1266.62 1379.16 1261.81 1377.68 L1261.81 1368.28 Q1265.97 1370.55 1270.42 1371.66 Q1274.86 1372.77 1279.82 1372.77 Q1287.83 1372.77 1292.5 1368.56 Q1297.18 1364.34 1297.18 1357.12 Q1297.18 1349.9 1292.5 1345.68 Q1287.83 1341.47 1279.82 1341.47 Q1276.07 1341.47 1272.32 1342.31 Q1268.61 1343.14 1264.72 1344.9 L1264.72 1310.18 Z" fill="#000000" fill-rule="nonzero" fill-opacity="1" /><path clip-path="url(#clip120)" d="M1344.96 1316.33 Q1337.73 1316.33 1334.08 1323.46 Q1330.46 1330.55 1330.46 1344.81 Q1330.46 1359.02 1334.08 1366.15 Q1337.73 1373.23 1344.96 1373.23 Q1352.22 1373.23 1355.83 1366.15 Q1359.49 1359.02 1359.49 1344.81 Q1359.49 1330.55 1355.83 1323.46 Q1352.22 1316.33 1344.96 1316.33 M1344.96 1308.93 Q1356.58 1308.93 1362.69 1318.14 Q1368.84 1327.31 1368.84 1344.81 Q1368.84 1362.26 1362.69 1371.47 Q1356.58 1380.64 1344.96 1380.64 Q1333.33 1380.64 1327.18 1371.47 Q1321.07 1362.26 1321.07 1344.81 Q1321.07 1327.31 1327.18 1318.14 Q1333.33 1308.93 1344.96 1308.93 Z" fill="#000000" fill-rule="nonzero" fill-opacity="1" /><path clip-path="url(#clip120)" d="M1470.1 1316.33 Q1462.88 1316.33 1459.22 1323.46 Q1455.61 1330.55 1455.61 1344.81 Q1455.61 1359.02 1459.22 1366.15 Q1462.88 1373.23 1470.1 1373.23 Q1477.37 1373.23 1480.98 1366.15 Q1484.63 1359.02 1484.63 1344.81 Q1484.63 1330.55 1480.98 1323.46 Q1477.37 1316.33 1470.1 1316.33 M1470.1 1308.93 Q1481.72 1308.93 1487.83 1318.14 Q1493.99 1327.31 1493.99 1344.81 Q1493.99 1362.26 1487.83 1371.47 Q1481.72 1380.64 1470.1 1380.64 Q1458.48 1380.64 1452.32 1371.47 Q1446.21 1362.26 1446.21 1344.81 Q1446.21 1327.31 1452.32 1318.14 Q1458.48 1308.93 1470.1 1308.93 Z" fill="#000000" fill-rule="nonzero" fill-opacity="1" /><path clip-path="url(#clip120)" d="M1510.42 1367.54 L1520.19 1367.54 L1520.19 1379.3 L1510.42 1379.3 L1510.42 1367.54 Z" fill="#000000" fill-rule="nonzero" fill-opacity="1" /><path clip-path="url(#clip120)" d="M1538.2 1310.18 L1582.64 1310.18 L1582.64 1314.16 L1557.55 1379.3 L1547.78 1379.3 L1571.39 1318.05 L1538.2 1318.05 L1538.2 1310.18 Z" fill="#000000" fill-rule="nonzero" fill-opacity="1" /><path clip-path="url(#clip120)" d="M1600.98 1310.18 L1637.69 1310.18 L1637.69 1318.05 L1609.54 1318.05 L1609.54 1334.99 Q1611.58 1334.3 1613.62 1333.97 Q1615.65 1333.6 1617.69 1333.6 Q1629.26 1333.6 1636.02 1339.94 Q1642.78 1346.29 1642.78 1357.12 Q1642.78 1368.28 1635.84 1374.48 Q1628.89 1380.64 1616.25 1380.64 Q1611.9 1380.64 1607.37 1379.9 Q1602.87 1379.16 1598.06 1377.68 L1598.06 1368.28 Q1602.23 1370.55 1606.67 1371.66 Q1611.12 1372.77 1616.07 1372.77 Q1624.08 1372.77 1628.75 1368.56 Q1633.43 1364.34 1633.43 1357.12 Q1633.43 1349.9 1628.75 1345.68 Q1624.08 1341.47 1616.07 1341.47 Q1612.32 1341.47 1608.57 1342.31 Q1604.87 1343.14 1600.98 1344.9 L1600.98 1310.18 Z" fill="#000000" fill-rule="nonzero" fill-opacity="1" /><path clip-path="url(#clip120)" d="M1723.57 1371.43 L1738.85 1371.43 L1738.85 1318.69 L1722.23 1322.03 L1722.23 1313.51 L1738.76 1310.18 L1748.11 1310.18 L1748.11 1371.43 L1763.39 1371.43 L1763.39 1379.3 L1723.57 1379.3 L1723.57 1371.43 Z" fill="#000000" fill-rule="nonzero" fill-opacity="1" /><path clip-path="url(#clip120)" d="M1782.28 1367.54 L1792.05 1367.54 L1792.05 1379.3 L1782.28 1379.3 L1782.28 1367.54 Z" fill="#000000" fill-rule="nonzero" fill-opacity="1" /><path clip-path="url(#clip120)" d="M1832.42 1316.33 Q1825.19 1316.33 1821.54 1323.46 Q1817.92 1330.55 1817.92 1344.81 Q1817.92 1359.02 1821.54 1366.15 Q1825.19 1373.23 1832.42 1373.23 Q1839.68 1373.23 1843.29 1366.15 Q1846.95 1359.02 1846.95 1344.81 Q1846.95 1330.55 1843.29 1323.46 Q1839.68 1316.33 1832.42 1316.33 M1832.42 1308.93 Q1844.04 1308.93 1850.15 1318.14 Q1856.3 1327.31 1856.3 1344.81 Q1856.3 1362.26 1850.15 1371.47 Q1844.04 1380.64 1832.42 1380.64 Q1820.79 1380.64 1814.64 1371.47 Q1808.53 1362.26 1808.53 1344.81 Q1808.53 1327.31 1814.64 1318.14 Q1820.79 1308.93 1832.42 1308.93 Z" fill="#000000" fill-rule="nonzero" fill-opacity="1" /><path clip-path="url(#clip120)" d="M1892.74 1316.33 Q1885.52 1316.33 1881.86 1323.46 Q1878.25 1330.55 1878.25 1344.81 Q1878.25 1359.02 1881.86 1366.15 Q1885.52 1373.23 1892.74 1373.23 Q1900.01 1373.23 1903.62 1366.15 Q1907.28 1359.02 1907.28 1344.81 Q1907.28 1330.55 1903.62 1323.46 Q1900.01 1316.33 1892.74 1316.33 M1892.74 1308.93 Q1904.36 1308.93 1910.47 1318.14 Q1916.63 1327.31 1916.63 1344.81 Q1916.63 1362.26 1910.47 1371.47 Q1904.36 1380.64 1892.74 1380.64 Q1881.12 1380.64 1874.96 1371.47 Q1868.85 1362.26 1868.85 1344.81 Q1868.85 1327.31 1874.96 1318.14 Q1881.12 1308.93 1892.74 1308.93 Z" fill="#000000" fill-rule="nonzero" fill-opacity="1" /><path clip-path="url(#clip120)" d="M1999.5 1371.43 L2014.78 1371.43 L2014.78 1318.69 L1998.16 1322.03 L1998.16 1313.51 L2014.69 1310.18 L2024.04 1310.18 L2024.04 1371.43 L2039.32 1371.43 L2039.32 1379.3 L1999.5 1379.3 L1999.5 1371.43 Z" fill="#000000" fill-rule="nonzero" fill-opacity="1" /><path clip-path="url(#clip120)" d="M2058.21 1367.54 L2067.97 1367.54 L2067.97 1379.3 L2058.21 1379.3 L2058.21 1367.54 Z" fill="#000000" fill-rule="nonzero" fill-opacity="1" /><path clip-path="url(#clip120)" d="M2096.4 1371.43 L2129.04 1371.43 L2129.04 1379.3 L2085.15 1379.3 L2085.15 1371.43 Q2090.47 1365.92 2099.64 1356.66 Q2108.85 1347.35 2111.21 1344.67 Q2115.71 1339.62 2117.46 1336.15 Q2119.27 1332.63 2119.27 1329.25 Q2119.27 1323.74 2115.38 1320.27 Q2111.54 1316.8 2105.33 1316.8 Q2100.94 1316.8 2096.03 1318.32 Q2091.17 1319.85 2085.61 1322.95 L2085.61 1313.51 Q2091.26 1311.24 2096.17 1310.08 Q2101.08 1308.93 2105.15 1308.93 Q2115.89 1308.93 2122.28 1314.3 Q2128.67 1319.67 2128.67 1328.65 Q2128.67 1332.91 2127.05 1336.75 Q2125.47 1340.55 2121.26 1345.73 Q2120.1 1347.07 2113.9 1353.51 Q2107.7 1359.9 2096.4 1371.43 Z" fill="#000000" fill-rule="nonzero" fill-opacity="1" /><path clip-path="url(#clip120)" d="M2148.76 1310.18 L2185.47 1310.18 L2185.47 1318.05 L2157.33 1318.05 L2157.33 1334.99 Q2159.36 1334.3 2161.4 1333.97 Q2163.44 1333.6 2165.47 1333.6 Q2177.05 1333.6 2183.81 1339.94 Q2190.57 1346.29 2190.57 1357.12 Q2190.57 1368.28 2183.62 1374.48 Q2176.68 1380.64 2164.04 1380.64 Q2159.69 1380.64 2155.15 1379.9 Q2150.66 1379.16 2145.84 1377.68 L2145.84 1368.28 Q2150.01 1370.55 2154.46 1371.66 Q2158.9 1372.77 2163.85 1372.77 Q2171.86 1372.77 2176.54 1368.56 Q2181.21 1364.34 2181.21 1357.12 Q2181.21 1349.9 2176.54 1345.68 Q2171.86 1341.47 2163.85 1341.47 Q2160.1 1341.47 2156.35 1342.31 Q2152.65 1343.14 2148.76 1344.9 L2148.76 1310.18 Z" fill="#000000" fill-rule="nonzero" fill-opacity="1" /><path clip-path="url(#clip120)" d="M1375.05 1484.39 L1375.05 1527.42 L1363.34 1527.42 L1363.34 1484.77 Q1363.34 1474.65 1359.39 1469.62 Q1355.45 1464.59 1347.55 1464.59 Q1338.07 1464.59 1332.59 1470.64 Q1327.12 1476.69 1327.12 1487.13 L1327.12 1527.42 L1315.34 1527.42 L1315.34 1428.37 L1327.12 1428.37 L1327.12 1467.2 Q1331.32 1460.77 1336.99 1457.59 Q1342.72 1454.41 1350.16 1454.41 Q1362.45 1454.41 1368.75 1462.05 Q1375.05 1469.62 1375.05 1484.39 Z" fill="#000000" fill-rule="nonzero" fill-opacity="1" /><path clip-path="url(#clip120)" d="M1426.04 1464.34 Q1416.62 1464.34 1411.15 1471.72 Q1405.67 1479.04 1405.67 1491.84 Q1405.67 1504.63 1411.08 1512.02 Q1416.56 1519.34 1426.04 1519.34 Q1435.4 1519.34 1440.87 1511.96 Q1446.35 1504.57 1446.35 1491.84 Q1446.35 1479.17 1440.87 1471.79 Q1435.4 1464.34 1426.04 1464.34 M1426.04 1454.41 Q1441.32 1454.41 1450.04 1464.34 Q1458.76 1474.27 1458.76 1491.84 Q1458.76 1509.35 1450.04 1519.34 Q1441.32 1529.27 1426.04 1529.27 Q1410.7 1529.27 1401.98 1519.34 Q1393.32 1509.35 1393.32 1491.84 Q1393.32 1474.27 1401.98 1464.34 Q1410.7 1454.41 1426.04 1454.41 Z" fill="#000000" fill-rule="nonzero" fill-opacity="1" /><path clip-path="url(#clip120)" d="M1476.97 1499.29 L1476.97 1456.13 L1488.68 1456.13 L1488.68 1498.84 Q1488.68 1508.96 1492.63 1514.06 Q1496.57 1519.08 1504.47 1519.08 Q1513.95 1519.08 1519.43 1513.04 Q1524.97 1506.99 1524.97 1496.55 L1524.97 1456.13 L1536.68 1456.13 L1536.68 1527.42 L1524.97 1527.42 L1524.97 1516.47 Q1520.7 1522.97 1515.04 1526.15 Q1509.43 1529.27 1501.99 1529.27 Q1489.7 1529.27 1483.33 1521.63 Q1476.97 1513.99 1476.97 1499.29 M1506.44 1454.41 L1506.44 1454.41 Z" fill="#000000" fill-rule="nonzero" fill-opacity="1" /><path clip-path="url(#clip120)" d="M1602.12 1467.08 Q1600.14 1465.93 1597.79 1465.42 Q1595.5 1464.85 1592.7 1464.85 Q1582.77 1464.85 1577.42 1471.34 Q1572.14 1477.77 1572.14 1489.87 L1572.14 1527.42 L1560.36 1527.42 L1560.36 1456.13 L1572.14 1456.13 L1572.14 1467.2 Q1575.83 1460.71 1581.75 1457.59 Q1587.67 1454.41 1596.13 1454.41 Q1597.34 1454.41 1598.81 1454.6 Q1600.27 1454.73 1602.05 1455.05 L1602.12 1467.08 Z" fill="#000000" fill-rule="nonzero" fill-opacity="1" /><path clip-path="url(#clip120)" d="M1659.86 1458.23 L1659.86 1469.3 Q1654.89 1466.76 1649.54 1465.49 Q1644.2 1464.21 1638.47 1464.21 Q1629.75 1464.21 1625.35 1466.89 Q1621.02 1469.56 1621.02 1474.91 Q1621.02 1478.98 1624.14 1481.34 Q1627.26 1483.63 1636.68 1485.73 L1640.69 1486.62 Q1653.17 1489.29 1658.39 1494.19 Q1663.67 1499.03 1663.67 1507.75 Q1663.67 1517.68 1655.78 1523.48 Q1647.95 1529.27 1634.2 1529.27 Q1628.47 1529.27 1622.23 1528.12 Q1616.06 1527.04 1609.18 1524.81 L1609.18 1512.72 Q1615.68 1516.09 1621.98 1517.81 Q1628.28 1519.47 1634.46 1519.47 Q1642.73 1519.47 1647.19 1516.67 Q1651.64 1513.8 1651.64 1508.64 Q1651.64 1503.87 1648.4 1501.32 Q1645.21 1498.78 1634.33 1496.42 L1630.25 1495.47 Q1619.37 1493.18 1614.53 1488.47 Q1609.69 1483.69 1609.69 1475.42 Q1609.69 1465.36 1616.82 1459.88 Q1623.95 1454.41 1637.07 1454.41 Q1643.56 1454.41 1649.29 1455.36 Q1655.02 1456.32 1659.86 1458.23 Z" fill="#000000" fill-rule="nonzero" fill-opacity="1" /><polyline clip-path="url(#clip122)" style="stroke:#000000; stroke-linecap:round; stroke-linejoin:round; stroke-width:4; stroke-opacity:0.1; fill:none" points="673.506,1065.3 2305.51,1065.3 "/>
<polyline clip-path="url(#clip122)" style="stroke:#000000; stroke-linecap:round; stroke-linejoin:round; stroke-width:4; stroke-opacity:0.1; fill:none" points="673.506,812.783 2305.51,812.783 "/>
<polyline clip-path="url(#clip122)" style="stroke:#000000; stroke-linecap:round; stroke-linejoin:round; stroke-width:4; stroke-opacity:0.1; fill:none" points="673.506,560.262 2305.51,560.262 "/>
<polyline clip-path="url(#clip122)" style="stroke:#000000; stroke-linecap:round; stroke-linejoin:round; stroke-width:4; stroke-opacity:0.1; fill:none" points="673.506,307.74 2305.51,307.74 "/>
<polyline clip-path="url(#clip120)" style="stroke:#000000; stroke-linecap:round; stroke-linejoin:round; stroke-width:8; stroke-opacity:1; fill:none" points="673.506,1273.7 673.506,94.4882 "/>
<polyline clip-path="url(#clip120)" style="stroke:#000000; stroke-linecap:round; stroke-linejoin:round; stroke-width:8; stroke-opacity:1; fill:none" points="673.506,1065.3 692.404,1065.3 "/>
<polyline clip-path="url(#clip120)" style="stroke:#000000; stroke-linecap:round; stroke-linejoin:round; stroke-width:8; stroke-opacity:1; fill:none" points="673.506,812.783 692.404,812.783 "/>
<polyline clip-path="url(#clip120)" style="stroke:#000000; stroke-linecap:round; stroke-linejoin:round; stroke-width:8; stroke-opacity:1; fill:none" points="673.506,560.262 692.404,560.262 "/>
<polyline clip-path="url(#clip120)" style="stroke:#000000; stroke-linecap:round; stroke-linejoin:round; stroke-width:8; stroke-opacity:1; fill:none" points="673.506,307.74 692.404,307.74 "/>
<path clip-path="url(#clip120)" d="M462.831 1067.04 Q456.164 1067.04 452.322 1070.61 Q448.525 1074.17 448.525 1080.42 Q448.525 1086.67 452.322 1090.24 Q456.164 1093.8 462.831 1093.8 Q469.498 1093.8 473.34 1090.24 Q477.183 1086.62 477.183 1080.42 Q477.183 1074.17 473.34 1070.61 Q469.544 1067.04 462.831 1067.04 M453.479 1063.06 Q447.461 1061.58 444.081 1057.46 Q440.748 1053.34 440.748 1047.41 Q440.748 1039.12 446.627 1034.31 Q452.553 1029.49 462.831 1029.49 Q473.155 1029.49 479.035 1034.31 Q484.914 1039.12 484.914 1047.41 Q484.914 1053.34 481.535 1057.46 Q478.201 1061.58 472.229 1063.06 Q478.988 1064.63 482.738 1069.22 Q486.535 1073.8 486.535 1080.42 Q486.535 1090.47 480.377 1095.84 Q474.266 1101.21 462.831 1101.21 Q451.396 1101.21 445.238 1095.84 Q439.127 1090.47 439.127 1080.42 Q439.127 1073.8 442.924 1069.22 Q446.72 1064.63 453.479 1063.06 M450.053 1048.29 Q450.053 1053.66 453.387 1056.67 Q456.766 1059.68 462.831 1059.68 Q468.849 1059.68 472.229 1056.67 Q475.655 1053.66 475.655 1048.29 Q475.655 1042.92 472.229 1039.91 Q468.849 1036.9 462.831 1036.9 Q456.766 1036.9 453.387 1039.91 Q450.053 1042.92 450.053 1048.29 Z" fill="#000000" fill-rule="nonzero" fill-opacity="1" /><path clip-path="url(#clip120)" d="M523.155 1036.9 Q515.933 1036.9 512.275 1044.03 Q508.664 1051.12 508.664 1065.37 Q508.664 1079.59 512.275 1086.72 Q515.933 1093.8 523.155 1093.8 Q530.423 1093.8 534.034 1086.72 Q537.692 1079.59 537.692 1065.37 Q537.692 1051.12 534.034 1044.03 Q530.423 1036.9 523.155 1036.9 M523.155 1029.49 Q534.775 1029.49 540.886 1038.71 Q547.043 1047.87 547.043 1065.37 Q547.043 1082.83 540.886 1092.04 Q534.775 1101.21 523.155 1101.21 Q511.534 1101.21 505.377 1092.04 Q499.266 1082.83 499.266 1065.37 Q499.266 1047.87 505.377 1038.71 Q511.534 1029.49 523.155 1029.49 Z" fill="#000000" fill-rule="nonzero" fill-opacity="1" /><path clip-path="url(#clip120)" d="M563.479 1088.11 L573.247 1088.11 L573.247 1099.86 L563.479 1099.86 L563.479 1088.11 Z" fill="#000000" fill-rule="nonzero" fill-opacity="1" /><path clip-path="url(#clip120)" d="M613.617 1036.9 Q606.395 1036.9 602.738 1044.03 Q599.127 1051.12 599.127 1065.37 Q599.127 1079.59 602.738 1086.72 Q606.395 1093.8 613.617 1093.8 Q620.886 1093.8 624.497 1086.72 Q628.154 1079.59 628.154 1065.37 Q628.154 1051.12 624.497 1044.03 Q620.886 1036.9 613.617 1036.9 M613.617 1029.49 Q625.238 1029.49 631.349 1038.71 Q637.506 1047.87 637.506 1065.37 Q637.506 1082.83 631.349 1092.04 Q625.238 1101.21 613.617 1101.21 Q601.997 1101.21 595.84 1092.04 Q589.728 1082.83 589.728 1065.37 Q589.728 1047.87 595.84 1038.71 Q601.997 1029.49 613.617 1029.49 Z" fill="#000000" fill-rule="nonzero" fill-opacity="1" /><path clip-path="url(#clip120)" d="M384.128 839.473 L399.405 839.473 L399.405 786.742 L382.785 790.075 L382.785 781.557 L399.313 778.223 L408.665 778.223 L408.665 839.473 L423.942 839.473 L423.942 847.343 L384.128 847.343 L384.128 839.473 Z" fill="#000000" fill-rule="nonzero" fill-opacity="1" /><path clip-path="url(#clip120)" d="M462.831 784.381 Q455.609 784.381 451.951 791.51 Q448.34 798.594 448.34 812.853 Q448.34 827.066 451.951 834.195 Q455.609 841.279 462.831 841.279 Q470.099 841.279 473.711 834.195 Q477.368 827.066 477.368 812.853 Q477.368 798.594 473.711 791.51 Q470.099 784.381 462.831 784.381 M462.831 776.973 Q474.451 776.973 480.562 786.186 Q486.72 795.353 486.72 812.853 Q486.72 830.306 480.562 839.519 Q474.451 848.686 462.831 848.686 Q451.211 848.686 445.053 839.519 Q438.942 830.306 438.942 812.853 Q438.942 795.353 445.053 786.186 Q451.211 776.973 462.831 776.973 Z" fill="#000000" fill-rule="nonzero" fill-opacity="1" /><path clip-path="url(#clip120)" d="M523.155 784.381 Q515.933 784.381 512.275 791.51 Q508.664 798.594 508.664 812.853 Q508.664 827.066 512.275 834.195 Q515.933 841.279 523.155 841.279 Q530.423 841.279 534.034 834.195 Q537.692 827.066 537.692 812.853 Q537.692 798.594 534.034 791.51 Q530.423 784.381 523.155 784.381 M523.155 776.973 Q534.775 776.973 540.886 786.186 Q547.043 795.353 547.043 812.853 Q547.043 830.306 540.886 839.519 Q534.775 848.686 523.155 848.686 Q511.534 848.686 505.377 839.519 Q499.266 830.306 499.266 812.853 Q499.266 795.353 505.377 786.186 Q511.534 776.973 523.155 776.973 Z" fill="#000000" fill-rule="nonzero" fill-opacity="1" /><path clip-path="url(#clip120)" d="M563.479 835.584 L573.247 835.584 L573.247 847.343 L563.479 847.343 L563.479 835.584 Z" fill="#000000" fill-rule="nonzero" fill-opacity="1" /><path clip-path="url(#clip120)" d="M613.617 784.381 Q606.395 784.381 602.738 791.51 Q599.127 798.594 599.127 812.853 Q599.127 827.066 602.738 834.195 Q606.395 841.279 613.617 841.279 Q620.886 841.279 624.497 834.195 Q628.154 827.066 628.154 812.853 Q628.154 798.594 624.497 791.51 Q620.886 784.381 613.617 784.381 M613.617 776.973 Q625.238 776.973 631.349 786.186 Q637.506 795.353 637.506 812.853 Q637.506 830.306 631.349 839.519 Q625.238 848.686 613.617 848.686 Q601.997 848.686 595.84 839.519 Q589.728 830.306 589.728 812.853 Q589.728 795.353 595.84 786.186 Q601.997 776.973 613.617 776.973 Z" fill="#000000" fill-rule="nonzero" fill-opacity="1" /><path clip-path="url(#clip120)" d="M384.128 586.951 L399.405 586.951 L399.405 534.22 L382.785 537.553 L382.785 529.035 L399.313 525.702 L408.665 525.702 L408.665 586.951 L423.942 586.951 L423.942 594.822 L384.128 594.822 L384.128 586.951 Z" fill="#000000" fill-rule="nonzero" fill-opacity="1" /><path clip-path="url(#clip120)" d="M450.887 586.951 L483.525 586.951 L483.525 594.822 L439.637 594.822 L439.637 586.951 Q444.961 581.442 454.127 572.183 Q463.34 562.877 465.701 560.192 Q470.192 555.146 471.951 551.674 Q473.757 548.155 473.757 544.776 Q473.757 539.266 469.868 535.794 Q466.025 532.322 459.822 532.322 Q455.424 532.322 450.516 533.85 Q445.655 535.378 440.1 538.479 L440.1 529.035 Q445.748 526.766 450.655 525.609 Q455.562 524.452 459.637 524.452 Q470.377 524.452 476.766 529.822 Q483.155 535.192 483.155 544.174 Q483.155 548.433 481.535 552.276 Q479.961 556.072 475.748 561.257 Q474.59 562.6 468.387 569.035 Q462.183 575.424 450.887 586.951 Z" fill="#000000" fill-rule="nonzero" fill-opacity="1" /><path clip-path="url(#clip120)" d="M523.155 531.859 Q515.933 531.859 512.275 538.989 Q508.664 546.072 508.664 560.331 Q508.664 574.544 512.275 581.674 Q515.933 588.757 523.155 588.757 Q530.423 588.757 534.034 581.674 Q537.692 574.544 537.692 560.331 Q537.692 546.072 534.034 538.989 Q530.423 531.859 523.155 531.859 M523.155 524.452 Q534.775 524.452 540.886 533.665 Q547.043 542.831 547.043 560.331 Q547.043 577.785 540.886 586.998 Q534.775 596.164 523.155 596.164 Q511.534 596.164 505.377 586.998 Q499.266 577.785 499.266 560.331 Q499.266 542.831 505.377 533.665 Q511.534 524.452 523.155 524.452 Z" fill="#000000" fill-rule="nonzero" fill-opacity="1" /><path clip-path="url(#clip120)" d="M563.479 583.062 L573.247 583.062 L573.247 594.822 L563.479 594.822 L563.479 583.062 Z" fill="#000000" fill-rule="nonzero" fill-opacity="1" /><path clip-path="url(#clip120)" d="M613.617 531.859 Q606.395 531.859 602.738 538.989 Q599.127 546.072 599.127 560.331 Q599.127 574.544 602.738 581.674 Q606.395 588.757 613.617 588.757 Q620.886 588.757 624.497 581.674 Q628.154 574.544 628.154 560.331 Q628.154 546.072 624.497 538.989 Q620.886 531.859 613.617 531.859 M613.617 524.452 Q625.238 524.452 631.349 533.665 Q637.506 542.831 637.506 560.331 Q637.506 577.785 631.349 586.998 Q625.238 596.164 613.617 596.164 Q601.997 596.164 595.84 586.998 Q589.728 577.785 589.728 560.331 Q589.728 542.831 595.84 533.665 Q601.997 524.452 613.617 524.452 Z" fill="#000000" fill-rule="nonzero" fill-opacity="1" /><path clip-path="url(#clip120)" d="M384.128 334.43 L399.405 334.43 L399.405 281.699 L382.785 285.032 L382.785 276.513 L399.313 273.18 L408.665 273.18 L408.665 334.43 L423.942 334.43 L423.942 342.3 L384.128 342.3 L384.128 334.43 Z" fill="#000000" fill-rule="nonzero" fill-opacity="1" /><path clip-path="url(#clip120)" d="M468.525 281.328 L444.914 318.226 L468.525 318.226 L468.525 281.328 M466.072 273.18 L477.831 273.18 L477.831 318.226 L487.692 318.226 L487.692 326.004 L477.831 326.004 L477.831 342.3 L468.525 342.3 L468.525 326.004 L437.322 326.004 L437.322 316.976 L466.072 273.18 Z" fill="#000000" fill-rule="nonzero" fill-opacity="1" /><path clip-path="url(#clip120)" d="M523.155 279.337 Q515.933 279.337 512.275 286.467 Q508.664 293.55 508.664 307.809 Q508.664 322.022 512.275 329.152 Q515.933 336.235 523.155 336.235 Q530.423 336.235 534.034 329.152 Q537.692 322.022 537.692 307.809 Q537.692 293.55 534.034 286.467 Q530.423 279.337 523.155 279.337 M523.155 271.93 Q534.775 271.93 540.886 281.143 Q547.043 290.31 547.043 307.809 Q547.043 325.263 540.886 334.476 Q534.775 343.643 523.155 343.643 Q511.534 343.643 505.377 334.476 Q499.266 325.263 499.266 307.809 Q499.266 290.31 505.377 281.143 Q511.534 271.93 523.155 271.93 Z" fill="#000000" fill-rule="nonzero" fill-opacity="1" /><path clip-path="url(#clip120)" d="M563.479 330.541 L573.247 330.541 L573.247 342.3 L563.479 342.3 L563.479 330.541 Z" fill="#000000" fill-rule="nonzero" fill-opacity="1" /><path clip-path="url(#clip120)" d="M613.617 279.337 Q606.395 279.337 602.738 286.467 Q599.127 293.55 599.127 307.809 Q599.127 322.022 602.738 329.152 Q606.395 336.235 613.617 336.235 Q620.886 336.235 624.497 329.152 Q628.154 322.022 628.154 307.809 Q628.154 293.55 624.497 286.467 Q620.886 279.337 613.617 279.337 M613.617 271.93 Q625.238 271.93 631.349 281.143 Q637.506 290.31 637.506 307.809 Q637.506 325.263 631.349 334.476 Q625.238 343.643 613.617 343.643 Q601.997 343.643 595.84 334.476 Q589.728 325.263 589.728 307.809 Q589.728 290.31 595.84 281.143 Q601.997 271.93 613.617 271.93 Z" fill="#000000" fill-rule="nonzero" fill-opacity="1" /><path clip-path="url(#clip120)" d="M307.579 930.89 L345.391 930.89 L345.391 942.667 L246.977 942.667 L246.977 930.89 L257.799 930.89 Q251.433 927.198 248.378 921.596 Q245.258 915.931 245.258 908.101 Q245.258 895.115 255.571 887.031 Q265.883 878.883 282.689 878.883 Q299.494 878.883 309.807 887.031 Q320.119 895.115 320.119 908.101 Q320.119 915.931 317.064 921.596 Q313.944 927.198 307.579 930.89 M282.689 891.041 Q269.766 891.041 262.446 896.388 Q255.062 901.672 255.062 910.966 Q255.062 920.26 262.446 925.607 Q269.766 930.89 282.689 930.89 Q295.611 930.89 302.995 925.607 Q310.316 920.26 310.316 910.966 Q310.316 901.672 302.995 896.388 Q295.611 891.041 282.689 891.041 Z" fill="#000000" fill-rule="nonzero" fill-opacity="1" /><path clip-path="url(#clip120)" d="M282.434 827.066 Q282.434 841.261 285.681 846.736 Q288.927 852.21 296.757 852.21 Q302.995 852.21 306.688 848.136 Q310.316 843.999 310.316 836.933 Q310.316 827.193 303.441 821.337 Q296.502 815.416 285.044 815.416 L282.434 815.416 L282.434 827.066 M277.596 803.704 L318.273 803.704 L318.273 815.416 L307.451 815.416 Q313.944 819.427 317.064 825.411 Q320.119 831.394 320.119 840.052 Q320.119 851.001 314.008 857.494 Q307.833 863.923 297.521 863.923 Q285.49 863.923 279.379 855.902 Q273.268 847.818 273.268 831.84 L273.268 815.416 L272.122 815.416 Q264.037 815.416 259.645 820.764 Q255.189 826.047 255.189 835.659 Q255.189 841.771 256.653 847.563 Q258.117 853.356 261.045 858.703 L250.224 858.703 Q247.741 852.274 246.532 846.227 Q245.258 840.179 245.258 834.45 Q245.258 818.981 253.279 811.342 Q261.3 803.704 277.596 803.704 Z" fill="#000000" fill-rule="nonzero" fill-opacity="1" /><path clip-path="url(#clip120)" d="M257.926 738.264 Q256.78 740.238 256.271 742.593 Q255.698 744.884 255.698 747.685 Q255.698 757.616 262.191 762.963 Q268.621 768.247 280.715 768.247 L318.273 768.247 L318.273 780.023 L246.977 780.023 L246.977 768.247 L258.054 768.247 Q251.561 764.555 248.441 758.634 Q245.258 752.714 245.258 744.248 Q245.258 743.038 245.449 741.574 Q245.577 740.11 245.895 738.328 L257.926 738.264 Z" fill="#000000" fill-rule="nonzero" fill-opacity="1" /><path clip-path="url(#clip120)" d="M279.697 667.859 L285.426 667.859 L285.426 721.713 Q297.521 720.949 303.887 714.456 Q310.189 707.9 310.189 696.25 Q310.189 689.503 308.534 683.201 Q306.878 676.835 303.568 670.597 L314.645 670.597 Q317.318 676.899 318.719 683.519 Q320.119 690.139 320.119 696.951 Q320.119 714.011 310.189 724.005 Q300.258 733.935 283.325 733.935 Q265.82 733.935 255.571 724.514 Q245.258 715.029 245.258 698.988 Q245.258 684.601 254.552 676.262 Q263.783 667.859 279.697 667.859 M276.259 679.572 Q266.647 679.7 260.918 684.983 Q255.189 690.203 255.189 698.86 Q255.189 708.664 260.727 714.584 Q266.265 720.44 276.323 721.331 L276.259 679.572 Z" fill="#000000" fill-rule="nonzero" fill-opacity="1" /><path clip-path="url(#clip120)" d="M275.241 589.37 L318.273 589.37 L318.273 601.083 L275.623 601.083 Q265.501 601.083 260.472 605.03 Q255.444 608.977 255.444 616.87 Q255.444 626.355 261.491 631.83 Q267.538 637.304 277.978 637.304 L318.273 637.304 L318.273 649.081 L246.977 649.081 L246.977 637.304 L258.054 637.304 Q251.624 633.103 248.441 627.437 Q245.258 621.708 245.258 614.26 Q245.258 601.974 252.897 595.672 Q260.472 589.37 275.241 589.37 Z" fill="#000000" fill-rule="nonzero" fill-opacity="1" /><path clip-path="url(#clip120)" d="M302.104 564.353 L302.104 550.921 L318.273 550.921 L318.273 564.353 L302.104 564.353 Z" fill="#000000" fill-rule="nonzero" fill-opacity="1" /><path clip-path="url(#clip120)" d="M307.451 470.395 L307.451 425.517 L318.273 425.517 L318.273 485.864 L307.451 485.864 Q299.876 478.543 287.145 465.939 Q274.35 453.271 270.658 450.025 Q263.719 443.85 258.945 441.431 Q254.107 438.949 249.46 438.949 Q241.885 438.949 237.11 444.296 Q232.336 449.579 232.336 458.109 Q232.336 464.157 234.437 470.904 Q236.537 477.588 240.802 485.227 L227.816 485.227 Q224.697 477.461 223.106 470.713 Q221.514 463.966 221.514 458.364 Q221.514 443.596 228.899 434.811 Q236.283 426.026 248.632 426.026 Q254.489 426.026 259.772 428.254 Q264.992 430.419 272.122 436.211 Q273.968 437.803 282.816 446.333 Q291.601 454.863 307.451 470.395 Z" fill="#000000" fill-rule="nonzero" fill-opacity="1" /><polyline clip-path="url(#clip122)" style="stroke:#008000; stroke-linecap:round; stroke-linejoin:round; stroke-width:8; stroke-opacity:1; fill:none" points="719.695,127.862 829.668,182.156 939.642,310.665 1049.62,324.927 1159.59,429.879 1269.56,562.895 1379.54,606.904 1489.51,764.114 1599.48,845.331 1709.46,821.35 1819.43,903.865 1929.4,1041.29 2039.38,1035.75 2149.35,1145.67 2259.32,1240.32 "/>
<circle clip-path="url(#clip122)" cx="719.695" cy="127.862" r="14.4" fill="#008000" fill-rule="evenodd" fill-opacity="1" stroke="#000000" stroke-opacity="1" stroke-width="6.4"/>
<circle clip-path="url(#clip122)" cx="829.668" cy="182.156" r="14.4" fill="#008000" fill-rule="evenodd" fill-opacity="1" stroke="#000000" stroke-opacity="1" stroke-width="6.4"/>
<circle clip-path="url(#clip122)" cx="939.642" cy="310.665" r="14.4" fill="#008000" fill-rule="evenodd" fill-opacity="1" stroke="#000000" stroke-opacity="1" stroke-width="6.4"/>
<circle clip-path="url(#clip122)" cx="1049.62" cy="324.927" r="14.4" fill="#008000" fill-rule="evenodd" fill-opacity="1" stroke="#000000" stroke-opacity="1" stroke-width="6.4"/>
<circle clip-path="url(#clip122)" cx="1159.59" cy="429.879" r="14.4" fill="#008000" fill-rule="evenodd" fill-opacity="1" stroke="#000000" stroke-opacity="1" stroke-width="6.4"/>
<circle clip-path="url(#clip122)" cx="1269.56" cy="562.895" r="14.4" fill="#008000" fill-rule="evenodd" fill-opacity="1" stroke="#000000" stroke-opacity="1" stroke-width="6.4"/>
<circle clip-path="url(#clip122)" cx="1379.54" cy="606.904" r="14.4" fill="#008000" fill-rule="evenodd" fill-opacity="1" stroke="#000000" stroke-opacity="1" stroke-width="6.4"/>
<circle clip-path="url(#clip122)" cx="1489.51" cy="764.114" r="14.4" fill="#008000" fill-rule="evenodd" fill-opacity="1" stroke="#000000" stroke-opacity="1" stroke-width="6.4"/>
<circle clip-path="url(#clip122)" cx="1599.48" cy="845.331" r="14.4" fill="#008000" fill-rule="evenodd" fill-opacity="1" stroke="#000000" stroke-opacity="1" stroke-width="6.4"/>
<circle clip-path="url(#clip122)" cx="1709.46" cy="821.35" r="14.4" fill="#008000" fill-rule="evenodd" fill-opacity="1" stroke="#000000" stroke-opacity="1" stroke-width="6.4"/>
<circle clip-path="url(#clip122)" cx="1819.43" cy="903.865" r="14.4" fill="#008000" fill-rule="evenodd" fill-opacity="1" stroke="#000000" stroke-opacity="1" stroke-width="6.4"/>
<circle clip-path="url(#clip122)" cx="1929.4" cy="1041.29" r="14.4" fill="#008000" fill-rule="evenodd" fill-opacity="1" stroke="#000000" stroke-opacity="1" stroke-width="6.4"/>
<circle clip-path="url(#clip122)" cx="2039.38" cy="1035.75" r="14.4" fill="#008000" fill-rule="evenodd" fill-opacity="1" stroke="#000000" stroke-opacity="1" stroke-width="6.4"/>
<circle clip-path="url(#clip122)" cx="2149.35" cy="1145.67" r="14.4" fill="#008000" fill-rule="evenodd" fill-opacity="1" stroke="#000000" stroke-opacity="1" stroke-width="6.4"/>
<circle clip-path="url(#clip122)" cx="2259.32" cy="1240.32" r="14.4" fill="#008000" fill-rule="evenodd" fill-opacity="1" stroke="#000000" stroke-opacity="1" stroke-width="6.4"/>
<polyline clip-path="url(#clip122)" style="stroke:#00008b; stroke-linecap:round; stroke-linejoin:round; stroke-width:8; stroke-opacity:1; fill:none" points="719.695,209.664 829.668,341.061 939.642,462.263 1049.62,564.336 1159.59,651.071 1269.56,731.013 1379.54,798.756 1489.51,861.347 1599.48,916.854 1709.46,968.696 1819.43,1017.03 1929.4,1055.43 2039.38,1095.61 2149.35,1134.29 2259.32,1169.52 "/>
<path clip-path="url(#clip122)" d="M719.695 246.843 L829.668 379.957 L939.642 499.392 L1049.62 602.961 L1159.59 688.504 L1269.56 767.597 L1379.54 837.802 L1489.51 901.308 L1599.48 956.131 L1709.46 1007.31 L1819.43 1056.82 L1929.4 1094.69 L2039.38 1134.44 L2149.35 1173.16 L2259.32 1208.38 L2259.32 1129.98 L2149.35 1094.88 L2039.38 1058.35 L1929.4 1016.33 L1819.43 978.04 L1709.46 928.066 L1599.48 879.76 L1489.51 822.022 L1379.54 761.203 L1269.56 693.424 L1159.59 611.907 L1049.62 527.29 L939.642 425.287 L829.668 304.154 L719.695 170.845  Z" fill="#0000ff" fill-rule="evenodd" fill-opacity="0.1"/>
<polyline clip-path="url(#clip122)" style="stroke:#0000ff; stroke-linecap:round; stroke-linejoin:round; stroke-width:0; stroke-opacity:0.1; fill:none" points="719.695,246.843 829.668,379.957 939.642,499.392 1049.62,602.961 1159.59,688.504 1269.56,767.597 1379.54,837.802 1489.51,901.308 1599.48,956.131 1709.46,1007.31 1819.43,1056.82 1929.4,1094.69 2039.38,1134.44 2149.35,1173.16 2259.32,1208.38 "/>
</svg>
