<?xml version="1.0" encoding="utf-8"?>
<svg xmlns="http://www.w3.org/2000/svg" xmlns:xlink="http://www.w3.org/1999/xlink" width="600" height="400" viewBox="0 0 2400 1600">
<defs>
  <clipPath id="clip160">
    <rect x="0" y="0" width="2400" height="1600"/>
  </clipPath>
</defs>
<path clip-path="url(#clip160)" d="M0 1600 L2400 1600 L2400 0 L0 0  Z" fill="#ffffff" fill-rule="evenodd" fill-opacity="1"/>
<defs>
  <clipPath id="clip161">
    <rect x="480" y="0" width="1681" height="1600"/>
  </clipPath>
</defs>
<path clip-path="url(#clip160)" d="M673.506 1273.7 L2305.51 1273.7 L2305.51 94.4882 L673.506 94.4882  Z" fill="#ffffff" fill-rule="evenodd" fill-opacity="1"/>
<defs>
  <clipPath id="clip162">
    <rect x="673" y="94" width="1633" height="1180"/>
  </clipPath>
</defs>
<polyline clip-path="url(#clip162)" style="stroke:#000000; stroke-linecap:round; stroke-linejoin:round; stroke-width:4; stroke-opacity:0.1; fill:none" points="719.695,1273.7 719.695,94.4882 "/>
<polyline clip-path="url(#clip162)" style="stroke:#000000; stroke-linecap:round; stroke-linejoin:round; stroke-width:4; stroke-opacity:0.1; fill:none" points="994.628,1273.7 994.628,94.4882 "/>
<polyline clip-path="url(#clip162)" style="stroke:#000000; stroke-linecap:round; stroke-linejoin:round; stroke-width:4; stroke-opacity:0.1; fill:none" points="1269.56,1273.7 1269.56,94.4882 "/>
<polyline clip-path="url(#clip162)" style="stroke:#000000; stroke-linecap:round; stroke-linejoin:round; stroke-width:4; stroke-opacity:0.1; fill:none" points="1544.5,1273.7 1544.5,94.4882 "/>
<polyline clip-path="url(#clip162)" style="stroke:#000000; stroke-linecap:round; stroke-linejoin:round; stroke-width:4; stroke-opacity:0.1; fill:none" points="1819.43,1273.7 1819.43,94.4882 "/>
<polyline clip-path="url(#clip162)" style="stroke:#000000; stroke-linecap:round; stroke-linejoin:round; stroke-width:4; stroke-opacity:0.1; fill:none" points="2094.36,1273.7 2094.36,94.4882 "/>
<polyline clip-path="url(#clip160)" style="stroke:#000000; stroke-linecap:round; stroke-linejoin:round; stroke-width:8; stroke-opacity:1; fill:none" points="673.506,1273.7 2305.51,1273.7 "/>
<polyline clip-path="url(#clip160)" style="stroke:#000000; stroke-linecap:round; stroke-linejoin:round; stroke-width:8; stroke-opacity:1; fill:none" points="719.695,1273.7 719.695,1254.8 "/>
<polyline clip-path="url(#clip160)" style="stroke:#000000; stroke-linecap:round; stroke-linejoin:round; stroke-width:8; stroke-opacity:1; fill:none" points="994.628,1273.7 994.628,1254.8 "/>
<polyline clip-path="url(#clip160)" style="stroke:#000000; stroke-linecap:round; stroke-linejoin:round; stroke-width:8; stroke-opacity:1; fill:none" points="1269.56,1273.7 1269.56,1254.8 "/>
<polyline clip-path="url(#clip160)" style="stroke:#000000; stroke-linecap:round; stroke-linejoin:round; stroke-width:8; stroke-opacity:1; fill:none" points="1544.5,1273.7 1544.5,1254.8 "/>
<polyline clip-path="url(#clip160)" style="stroke:#000000; stroke-linecap:round; stroke-linejoin:round; stroke-width:8; stroke-opacity:1; fill:none" points="1819.43,1273.7 1819.43,1254.8 "/>
<polyline clip-path="url(#clip160)" style="stroke:#000000; stroke-linecap:round; stroke-linejoin:round; stroke-width:8; stroke-opacity:1; fill:none" points="2094.36,1273.7 2094.36,1254.8 "/>
<path clip-path="url(#clip160)" d="M644.302 1316.33 Q637.08 1316.33 633.422 1323.46 Q629.811 1330.55 629.811 1344.81 Q629.811 1359.02 633.422 1366.15 Q637.08 1373.23 644.302 1373.23 Q651.57 1373.23 655.181 1366.15 Q658.839 1359.02 658.839 1344.81 Q658.839 1330.55 655.181 1323.46 Q651.57 1316.33 644.302 1316.33 M644.302 1308.93 Q655.922 1308.93 662.033 1318.14 Q668.19 1327.31 668.19 1344.81 Q668.19 1362.26 662.033 1371.47 Q655.922 1380.64 644.302 1380.64 Q632.681 1380.64 626.524 1371.47 Q620.413 1362.26 620.413 1344.81 Q620.413 1327.31 626.524 1318.14 Q632.681 1308.93 644.302 1308.93 Z" fill="#000000" fill-rule="nonzero" fill-opacity="1" /><path clip-path="url(#clip160)" d="M684.626 1367.54 L694.394 1367.54 L694.394 1379.3 L684.626 1379.3 L684.626 1367.54 Z" fill="#000000" fill-rule="nonzero" fill-opacity="1" /><path clip-path="url(#clip160)" d="M734.764 1316.33 Q727.542 1316.33 723.885 1323.46 Q720.274 1330.55 720.274 1344.81 Q720.274 1359.02 723.885 1366.15 Q727.542 1373.23 734.764 1373.23 Q742.033 1373.23 745.644 1366.15 Q749.301 1359.02 749.301 1344.81 Q749.301 1330.55 745.644 1323.46 Q742.033 1316.33 734.764 1316.33 M734.764 1308.93 Q746.384 1308.93 752.496 1318.14 Q758.653 1327.31 758.653 1344.81 Q758.653 1362.26 752.496 1371.47 Q746.384 1380.64 734.764 1380.64 Q723.144 1380.64 716.986 1371.47 Q710.875 1362.26 710.875 1344.81 Q710.875 1327.31 716.986 1318.14 Q723.144 1308.93 734.764 1308.93 Z" fill="#000000" fill-rule="nonzero" fill-opacity="1" /><path clip-path="url(#clip160)" d="M795.088 1316.33 Q787.866 1316.33 784.208 1323.46 Q780.597 1330.55 780.597 1344.81 Q780.597 1359.02 784.208 1366.15 Q787.866 1373.23 795.088 1373.23 Q802.356 1373.23 805.967 1366.15 Q809.625 1359.02 809.625 1344.81 Q809.625 1330.55 805.967 1323.46 Q802.356 1316.33 795.088 1316.33 M795.088 1308.93 Q806.708 1308.93 812.819 1318.14 Q818.977 1327.31 818.977 1344.81 Q818.977 1362.26 812.819 1371.47 Q806.708 1380.64 795.088 1380.64 Q783.468 1380.64 777.31 1371.47 Q771.199 1362.26 771.199 1344.81 Q771.199 1327.31 777.31 1318.14 Q783.468 1308.93 795.088 1308.93 Z" fill="#000000" fill-rule="nonzero" fill-opacity="1" /><path clip-path="url(#clip160)" d="M920.231 1316.33 Q913.008 1316.33 909.351 1323.46 Q905.74 1330.55 905.74 1344.81 Q905.74 1359.02 909.351 1366.15 Q913.008 1373.23 920.231 1373.23 Q927.499 1373.23 931.11 1366.15 Q934.768 1359.02 934.768 1344.81 Q934.768 1330.55 931.11 1323.46 Q927.499 1316.33 920.231 1316.33 M920.231 1308.93 Q931.851 1308.93 937.962 1318.14 Q944.119 1327.31 944.119 1344.81 Q944.119 1362.26 937.962 1371.47 Q931.851 1380.64 920.231 1380.64 Q908.61 1380.64 902.453 1371.47 Q896.342 1362.26 896.342 1344.81 Q896.342 1327.31 902.453 1318.14 Q908.61 1308.93 920.231 1308.93 Z" fill="#000000" fill-rule="nonzero" fill-opacity="1" /><path clip-path="url(#clip160)" d="M960.555 1367.54 L970.323 1367.54 L970.323 1379.3 L960.555 1379.3 L960.555 1367.54 Z" fill="#000000" fill-rule="nonzero" fill-opacity="1" /><path clip-path="url(#clip160)" d="M998.749 1371.43 L1031.39 1371.43 L1031.39 1379.3 L987.499 1379.3 L987.499 1371.43 Q992.823 1365.92 1001.99 1356.66 Q1011.2 1347.35 1013.56 1344.67 Q1018.05 1339.62 1019.81 1336.15 Q1021.62 1332.63 1021.62 1329.25 Q1021.62 1323.74 1017.73 1320.27 Q1013.89 1316.8 1007.68 1316.8 Q1003.29 1316.8 998.378 1318.32 Q993.517 1319.85 987.962 1322.95 L987.962 1313.51 Q993.61 1311.24 998.517 1310.08 Q1003.42 1308.93 1007.5 1308.93 Q1018.24 1308.93 1024.63 1314.3 Q1031.02 1319.67 1031.02 1328.65 Q1031.02 1332.91 1029.4 1336.75 Q1027.82 1340.55 1023.61 1345.73 Q1022.45 1347.07 1016.25 1353.51 Q1010.04 1359.9 998.749 1371.43 Z" fill="#000000" fill-rule="nonzero" fill-opacity="1" /><path clip-path="url(#clip160)" d="M1051.11 1310.18 L1087.82 1310.18 L1087.82 1318.05 L1059.67 1318.05 L1059.67 1334.99 Q1061.71 1334.3 1063.75 1333.97 Q1065.79 1333.6 1067.82 1333.6 Q1079.4 1333.6 1086.16 1339.94 Q1092.91 1346.29 1092.91 1357.12 Q1092.91 1368.28 1085.97 1374.48 Q1079.03 1380.64 1066.39 1380.64 Q1062.04 1380.64 1057.5 1379.9 Q1053.01 1379.16 1048.19 1377.68 L1048.19 1368.28 Q1052.36 1370.55 1056.8 1371.66 Q1061.25 1372.77 1066.2 1372.77 Q1074.21 1372.77 1078.89 1368.56 Q1083.56 1364.34 1083.56 1357.12 Q1083.56 1349.9 1078.89 1345.68 Q1074.21 1341.47 1066.2 1341.47 Q1062.45 1341.47 1058.7 1342.31 Q1055 1343.14 1051.11 1344.9 L1051.11 1310.18 Z" fill="#000000" fill-rule="nonzero" fill-opacity="1" /><path clip-path="url(#clip160)" d="M1194.17 1316.33 Q1186.95 1316.33 1183.29 1323.46 Q1179.68 1330.55 1179.68 1344.81 Q1179.68 1359.02 1183.29 1366.15 Q1186.95 1373.23 1194.17 1373.23 Q1201.44 1373.23 1205.05 1366.15 Q1208.71 1359.02 1208.71 1344.81 Q1208.71 1330.55 1205.05 1323.46 Q1201.44 1316.33 1194.17 1316.33 M1194.17 1308.93 Q1205.79 1308.93 1211.9 1318.14 Q1218.06 1327.31 1218.06 1344.81 Q1218.06 1362.26 1211.9 1371.47 Q1205.79 1380.64 1194.17 1380.64 Q1182.55 1380.64 1176.39 1371.47 Q1170.28 1362.26 1170.28 1344.81 Q1170.28 1327.31 1176.39 1318.14 Q1182.55 1308.93 1194.17 1308.93 Z" fill="#000000" fill-rule="nonzero" fill-opacity="1" /><path clip-path="url(#clip160)" d="M1234.49 1367.54 L1244.26 1367.54 L1244.26 1379.3 L1234.49 1379.3 L1234.49 1367.54 Z" fill="#000000" fill-rule="nonzero" fill-opacity="1" /><path clip-path="url(#clip160)" d="M1264.72 1310.18 L1301.44 1310.18 L1301.44 1318.05 L1273.29 1318.05 L1273.29 1334.99 Q1275.33 1334.3 1277.36 1333.97 Q1279.4 1333.6 1281.44 1333.6 Q1293.01 1333.6 1299.77 1339.94 Q1306.53 1346.29 1306.53 1357.12 Q1306.53 1368.28 1299.58 1374.48 Q1292.64 1380.64 1280 1380.64 Q1275.65 1380.64 1271.11 1379.9 Q1266.62 1379.16 1261.81 1377.68 L1261.81 1368.28 Q1265.97 1370.55 1270.42 1371.66 Q1274.86 1372.77 1279.82 1372.77 Q1287.83 1372.77 1292.5 1368.56 Q1297.18 1364.34 1297.18 1357.12 Q1297.18 1349.9 1292.5 1345.68 Q1287.83 1341.47 1279.82 1341.47 Q1276.07 1341.47 1272.32 1342.31 Q1268.61 1343.14 1264.72 1344.9 L1264.72 1310.18 Z" fill="#000000" fill-rule="nonzero" fill-opacity="1" /><path clip-path="url(#clip160)" d="M1344.96 1316.33 Q1337.73 1316.33 1334.08 1323.46 Q1330.46 1330.55 1330.46 1344.81 Q1330.46 1359.02 1334.08 1366.15 Q1337.73 1373.23 1344.96 1373.23 Q1352.22 1373.23 1355.83 1366.15 Q1359.49 1359.02 1359.49 1344.81 Q1359.49 1330.55 1355.83 1323.46 Q1352.22 1316.33 1344.96 1316.33 M1344.96 1308.93 Q1356.58 1308.93 1362.69 1318.14 Q1368.84 1327.31 1368.84 1344.81 Q1368.84 1362.26 1362.69 1371.47 Q1356.58 1380.64 1344.96 1380.64 Q1333.33 1380.64 1327.18 1371.47 Q1321.07 1362.26 1321.07 1344.81 Q1321.07 1327.31 1327.18 1318.14 Q1333.33 1308.93 1344.96 1308.93 Z" fill="#000000" fill-rule="nonzero" fill-opacity="1" /><path clip-path="url(#clip160)" d="M1470.1 1316.33 Q1462.88 1316.33 1459.22 1323.46 Q1455.61 1330.55 1455.61 1344.81 Q1455.61 1359.02 1459.22 1366.15 Q1462.88 1373.23 1470.1 1373.23 Q1477.37 1373.23 1480.98 1366.15 Q1484.63 1359.02 1484.63 1344.81 Q1484.63 1330.55 1480.98 1323.46 Q1477.37 1316.33 1470.1 1316.33 M1470.1 1308.93 Q1481.72 1308.93 1487.83 1318.14 Q1493.99 1327.31 1493.99 1344.81 Q1493.99 1362.26 1487.83 1371.47 Q1481.72 1380.64 1470.1 1380.64 Q1458.48 1380.64 1452.32 1371.47 Q1446.21 1362.26 1446.21 1344.81 Q1446.21 1327.31 1452.32 1318.14 Q1458.48 1308.93 1470.1 1308.93 Z" fill="#000000" fill-rule="nonzero" fill-opacity="1" /><path clip-path="url(#clip160)" d="M1510.42 1367.54 L1520.19 1367.54 L1520.19 1379.3 L1510.42 1379.3 L1510.42 1367.54 Z" fill="#000000" fill-rule="nonzero" fill-opacity="1" /><path clip-path="url(#clip160)" d="M1538.2 1310.18 L1582.64 1310.18 L1582.64 1314.16 L1557.55 1379.3 L1547.78 1379.3 L1571.39 1318.05 L1538.2 1318.05 L1538.2 1310.18 Z" fill="#000000" fill-rule="nonzero" fill-opacity="1" /><path clip-path="url(#clip160)" d="M1600.98 1310.18 L1637.69 1310.18 L1637.69 1318.05 L1609.54 1318.05 L1609.54 1334.99 Q1611.58 1334.3 1613.62 1333.97 Q1615.65 1333.6 1617.69 1333.6 Q1629.26 1333.6 1636.02 1339.94 Q1642.78 1346.29 1642.78 1357.12 Q1642.78 1368.28 1635.84 1374.48 Q1628.89 1380.64 1616.25 1380.64 Q1611.9 1380.64 1607.37 1379.9 Q1602.87 1379.16 1598.06 1377.68 L1598.06 1368.28 Q1602.23 1370.55 1606.67 1371.66 Q1611.12 1372.77 1616.07 1372.77 Q1624.08 1372.77 1628.75 1368.56 Q1633.43 1364.34 1633.43 1357.12 Q1633.43 1349.9 1628.75 1345.68 Q1624.08 1341.47 1616.07 1341.47 Q1612.32 1341.47 1608.57 1342.31 Q1604.87 1343.14 1600.98 1344.9 L1600.98 1310.18 Z" fill="#000000" fill-rule="nonzero" fill-opacity="1" /><path clip-path="url(#clip160)" d="M1723.57 1371.43 L1738.85 1371.43 L1738.85 1318.69 L1722.23 1322.03 L1722.23 1313.51 L1738.76 1310.18 L1748.11 1310.18 L1748.11 1371.43 L1763.39 1371.43 L1763.39 1379.3 L1723.57 1379.3 L1723.57 1371.43 Z" fill="#000000" fill-rule="nonzero" fill-opacity="1" /><path clip-path="url(#clip160)" d="M1782.28 1367.54 L1792.05 1367.54 L1792.05 1379.3 L1782.28 1379.3 L1782.28 1367.54 Z" fill="#000000" fill-rule="nonzero" fill-opacity="1" /><path clip-path="url(#clip160)" d="M1832.42 1316.33 Q1825.19 1316.33 1821.54 1323.46 Q1817.92 1330.55 1817.92 1344.81 Q1817.92 1359.02 1821.54 1366.15 Q1825.19 1373.23 1832.42 1373.23 Q1839.68 1373.23 1843.29 1366.15 Q1846.95 1359.02 1846.95 1344.81 Q1846.95 1330.55 1843.29 1323.46 Q1839.68 1316.33 1832.42 1316.33 M1832.42 1308.93 Q1844.04 1308.93 1850.15 1318.14 Q1856.3 1327.31 1856.3 1344.81 Q1856.3 1362.26 1850.15 1371.47 Q1844.04 1380.64 1832.42 1380.64 Q1820.79 1380.64 1814.64 1371.47 Q1808.53 1362.26 1808.53 1344.81 Q1808.53 1327.31 1814.64 1318.14 Q1820.79 1308.93 1832.42 1308.93 Z" fill="#000000" fill-rule="nonzero" fill-opacity="1" /><path clip-path="url(#clip160)" d="M1892.74 1316.33 Q1885.52 1316.33 1881.86 1323.46 Q1878.25 1330.55 1878.25 1344.81 Q1878.25 1359.02 1881.86 1366.15 Q1885.52 1373.23 1892.74 1373.23 Q1900.01 1373.23 1903.62 1366.15 Q1907.28 1359.02 1907.28 1344.81 Q1907.28 1330.55 1903.62 1323.46 Q1900.01 1316.33 1892.74 1316.33 M1892.74 1308.93 Q1904.36 1308.93 1910.47 1318.14 Q1916.63 1327.31 1916.63 1344.81 Q1916.63 1362.26 1910.47 1371.47 Q1904.36 1380.64 1892.74 1380.64 Q1881.12 1380.64 1874.96 1371.47 Q1868.85 1362.26 1868.85 1344.81 Q1868.85 1327.31 1874.96 1318.14 Q1881.12 1308.93 1892.74 1308.93 Z" fill="#000000" fill-rule="nonzero" fill-opacity="1" /><path clip-path="url(#clip160)" d="M1999.5 1371.43 L2014.78 1371.43 L2014.78 1318.69 L1998.16 1322.03 L1998.16 1313.51 L2014.69 1310.18 L2024.04 1310.18 L2024.04 1371.43 L2039.32 1371.43 L2039.32 1379.3 L1999.5 1379.3 L1999.5 1371.43 Z" fill="#000000" fill-rule="nonzero" fill-opacity="1" /><path clip-path="url(#clip160)" d="M2058.21 1367.54 L2067.97 1367.54 L2067.97 1379.3 L2058.21 1379.3 L2058.21 1367.54 Z" fill="#000000" fill-rule="nonzero" fill-opacity="1" /><path clip-path="url(#clip160)" d="M2096.4 1371.43 L2129.04 1371.43 L2129.04 1379.3 L2085.15 1379.3 L2085.15 1371.43 Q2090.47 1365.92 2099.64 1356.66 Q2108.85 1347.35 2111.21 1344.67 Q2115.71 1339.62 2117.46 1336.15 Q2119.27 1332.63 2119.27 1329.25 Q2119.27 1323.74 2115.38 1320.27 Q2111.54 1316.8 2105.33 1316.8 Q2100.94 1316.8 2096.03 1318.32 Q2091.17 1319.85 2085.61 1322.95 L2085.61 1313.51 Q2091.26 1311.24 2096.17 1310.08 Q2101.08 1308.93 2105.15 1308.93 Q2115.89 1308.93 2122.28 1314.3 Q2128.67 1319.67 2128.67 1328.65 Q2128.67 1332.91 2127.05 1336.75 Q2125.47 1340.55 2121.26 1345.73 Q2120.1 1347.07 2113.9 1353.51 Q2107.7 1359.9 2096.4 1371.43 Z" fill="#000000" fill-rule="nonzero" fill-opacity="1" /><path clip-path="url(#clip160)" d="M2148.76 1310.18 L2185.47 1310.18 L2185.47 1318.05 L2157.33 1318.05 L2157.33 1334.99 Q2159.36 1334.3 2161.4 1333.97 Q2163.44 1333.6 2165.47 1333.6 Q2177.05 1333.6 2183.81 1339.94 Q2190.57 1346.29 2190.57 1357.12 Q2190.57 1368.28 2183.62 1374.48 Q2176.68 1380.64 2164.04 1380.64 Q2159.69 1380.64 2155.15 1379.9 Q2150.66 1379.16 2145.84 1377.68 L2145.84 1368.28 Q2150.01 1370.55 2154.46 1371.66 Q2158.9 1372.77 2163.85 1372.77 Q2171.86 1372.77 2176.54 1368.56 Q2181.21 1364.34 2181.21 1357.12 Q2181.21 1349.9 2176.54 1345.68 Q2171.86 1341.47 2163.85 1341.47 Q2160.1 1341.47 2156.35 1342.31 Q2152.65 1343.14 2148.76 1344.9 L2148.76 1310.18 Z" fill="#000000" fill-rule="nonzero" fill-opacity="1" /><path clip-path="url(#clip160)" d="M1375.05 1484.39 L1375.05 1527.42 L1363.34 1527.42 L1363.34 1484.77 Q1363.34 1474.65 1359.39 1469.62 Q1355.45 1464.59 1347.55 1464.59 Q1338.07 1464.59 1332.59 1470.64 Q1327.12 1476.69 1327.12 1487.13 L1327.12 1527.42 L1315.34 1527.42 L1315.34 1428.37 L1327.12 1428.37 L1327.12 1467.2 Q1331.32 1460.77 1336.99 1457.59 Q1342.72 1454.41 1350.16 1454.41 Q1362.45 1454.41 1368.75 1462.05 Q1375.05 1469.62 1375.05 1484.39 Z" fill="#000000" fill-rule="nonzero" fill-opacity="1" /><path clip-path="url(#clip160)" d="M1426.04 1464.34 Q1416.62 1464.34 1411.15 1471.72 Q1405.67 1479.04 1405.67 1491.84 Q1405.67 1504.63 1411.08 1512.02 Q1416.56 1519.34 1426.04 1519.34 Q1435.4 1519.34 1440.87 1511.96 Q1446.35 1504.57 1446.35 1491.84 Q1446.35 1479.17 1440.87 1471.79 Q1435.4 1464.34 1426.04 1464.34 M1426.04 1454.41 Q1441.32 1454.41 1450.04 1464.34 Q1458.76 1474.27 1458.76 1491.84 Q1458.76 1509.35 1450.04 1519.34 Q1441.32 1529.27 1426.04 1529.27 Q1410.7 1529.27 1401.98 1519.34 Q1393.32 1509.35 1393.32 1491.84 Q1393.32 1474.27 1401.98 1464.34 Q1410.7 1454.41 1426.04 1454.41 Z" fill="#000000" fill-rule="nonzero" fill-opacity="1" /><path clip-path="url(#clip160)" d="M1476.97 1499.29 L1476.97 1456.13 L1488.68 1456.13 L1488.68 1498.84 Q1488.68 1508.96 1492.63 1514.06 Q1496.57 1519.08 1504.47 1519.08 Q1513.95 1519.08 1519.43 1513.04 Q1524.97 1506.99 1524.97 1496.55 L1524.97 1456.13 L1536.68 1456.13 L1536.68 1527.42 L1524.97 1527.42 L1524.97 1516.47 Q1520.7 1522.97 1515.04 1526.15 Q1509.43 1529.27 1501.99 1529.27 Q1489.7 1529.27 1483.33 1521.63 Q1476.97 1513.99 1476.97 1499.29 M1506.44 1454.41 L1506.44 1454.41 Z" fill="#000000" fill-rule="nonzero" fill-opacity="1" /><path clip-path="url(#clip160)" d="M1602.12 1467.08 Q1600.14 1465.93 1597.79 1465.42 Q1595.5 1464.85 1592.7 1464.85 Q1582.77 1464.85 1577.42 1471.34 Q1572.14 1477.77 1572.14 1489.87 L1572.14 1527.42 L1560.36 1527.42 L1560.36 1456.13 L1572.14 1456.13 L1572.14 1467.2 Q1575.83 1460.71 1581.75 1457.59 Q1587.67 1454.41 1596.13 1454.41 Q1597.34 1454.41 1598.81 1454.6 Q1600.27 1454.73 1602.05 1455.05 L1602.12 1467.08 Z" fill="#000000" fill-rule="nonzero" fill-opacity="1" /><path clip-path="url(#clip160)" d="M1659.86 1458.23 L1659.86 1469.3 Q1654.89 1466.76 1649.54 1465.49 Q1644.2 1464.21 1638.47 1464.21 Q1629.75 1464.21 1625.35 1466.89 Q1621.02 1469.56 1621.02 1474.91 Q1621.02 1478.98 1624.14 1481.34 Q1627.26 1483.63 1636.68 1485.73 L1640.69 1486.62 Q1653.17 1489.29 1658.39 1494.19 Q1663.67 1499.03 1663.67 1507.75 Q1663.67 1517.68 1655.78 1523.48 Q1647.95 1529.27 1634.2 1529.27 Q1628.47 1529.27 1622.23 1528.12 Q1616.06 1527.04 1609.18 1524.81 L1609.18 1512.72 Q1615.68 1516.09 1621.98 1517.81 Q1628.28 1519.47 1634.46 1519.47 Q1642.73 1519.47 1647.19 1516.67 Q1651.64 1513.8 1651.64 1508.64 Q1651.64 1503.87 1648.4 1501.32 Q1645.21 1498.78 1634.33 1496.42 L1630.25 1495.47 Q1619.37 1493.18 1614.53 1488.47 Q1609.69 1483.69 1609.69 1475.42 Q1609.69 1465.36 1616.82 1459.88 Q1623.95 1454.41 1637.07 1454.41 Q1643.56 1454.41 1649.29 1455.36 Q1655.02 1456.32 1659.86 1458.23 Z" fill="#000000" fill-rule="nonzero" fill-opacity="1" /><polyline clip-path="url(#clip162)" style="stroke:#000000; stroke-linecap:round; stroke-linejoin:round; stroke-width:4; stroke-opacity:0.1; fill:none" points="673.506,1243.48 2305.51,1243.48 "/>
<polyline clip-path="url(#clip162)" style="stroke:#000000; stroke-linecap:round; stroke-linejoin:round; stroke-width:4; stroke-opacity:0.1; fill:none" points="673.506,1009.52 2305.51,1009.52 "/>
<polyline clip-path="url(#clip162)" style="stroke:#000000; stroke-linecap:round; stroke-linejoin:round; stroke-width:4; stroke-opacity:0.1; fill:none" points="673.506,775.567 2305.51,775.567 "/>
<polyline clip-path="url(#clip162)" style="stroke:#000000; stroke-linecap:round; stroke-linejoin:round; stroke-width:4; stroke-opacity:0.1; fill:none" points="673.506,541.613 2305.51,541.613 "/>
<polyline clip-path="url(#clip162)" style="stroke:#000000; stroke-linecap:round; stroke-linejoin:round; stroke-width:4; stroke-opacity:0.1; fill:none" points="673.506,307.659 2305.51,307.659 "/>
<polyline clip-path="url(#clip160)" style="stroke:#000000; stroke-linecap:round; stroke-linejoin:round; stroke-width:8; stroke-opacity:1; fill:none" points="673.506,1273.7 673.506,94.4882 "/>
<polyline clip-path="url(#clip160)" style="stroke:#000000; stroke-linecap:round; stroke-linejoin:round; stroke-width:8; stroke-opacity:1; fill:none" points="673.506,1243.48 692.404,1243.48 "/>
<polyline clip-path="url(#clip160)" style="stroke:#000000; stroke-linecap:round; stroke-linejoin:round; stroke-width:8; stroke-opacity:1; fill:none" points="673.506,1009.52 692.404,1009.52 "/>
<polyline clip-path="url(#clip160)" style="stroke:#000000; stroke-linecap:round; stroke-linejoin:round; stroke-width:8; stroke-opacity:1; fill:none" points="673.506,775.567 692.404,775.567 "/>
<polyline clip-path="url(#clip160)" style="stroke:#000000; stroke-linecap:round; stroke-linejoin:round; stroke-width:8; stroke-opacity:1; fill:none" points="673.506,541.613 692.404,541.613 "/>
<polyline clip-path="url(#clip160)" style="stroke:#000000; stroke-linecap:round; stroke-linejoin:round; stroke-width:8; stroke-opacity:1; fill:none" points="673.506,307.659 692.404,307.659 "/>
<path clip-path="url(#clip160)" d="M462.831 1245.21 Q456.164 1245.21 452.322 1248.78 Q448.525 1252.34 448.525 1258.59 Q448.525 1264.84 452.322 1268.41 Q456.164 1271.97 462.831 1271.97 Q469.498 1271.97 473.34 1268.41 Q477.183 1264.8 477.183 1258.59 Q477.183 1252.34 473.34 1248.78 Q469.544 1245.21 462.831 1245.21 M453.479 1241.23 Q447.461 1239.75 444.081 1235.63 Q440.748 1231.51 440.748 1225.58 Q440.748 1217.3 446.627 1212.48 Q452.553 1207.67 462.831 1207.67 Q473.155 1207.67 479.035 1212.48 Q484.914 1217.3 484.914 1225.58 Q484.914 1231.51 481.535 1235.63 Q478.201 1239.75 472.229 1241.23 Q478.988 1242.8 482.738 1247.39 Q486.535 1251.97 486.535 1258.59 Q486.535 1268.64 480.377 1274.01 Q474.266 1279.38 462.831 1279.38 Q451.396 1279.38 445.238 1274.01 Q439.127 1268.64 439.127 1258.59 Q439.127 1251.97 442.924 1247.39 Q446.72 1242.8 453.479 1241.23 M450.053 1226.46 Q450.053 1231.83 453.387 1234.84 Q456.766 1237.85 462.831 1237.85 Q468.849 1237.85 472.229 1234.84 Q475.655 1231.83 475.655 1226.46 Q475.655 1221.09 472.229 1218.08 Q468.849 1215.07 462.831 1215.07 Q456.766 1215.07 453.387 1218.08 Q450.053 1221.09 450.053 1226.46 Z" fill="#000000" fill-rule="nonzero" fill-opacity="1" /><path clip-path="url(#clip160)" d="M523.155 1215.07 Q515.933 1215.07 512.275 1222.2 Q508.664 1229.29 508.664 1243.55 Q508.664 1257.76 512.275 1264.89 Q515.933 1271.97 523.155 1271.97 Q530.423 1271.97 534.034 1264.89 Q537.692 1257.76 537.692 1243.55 Q537.692 1229.29 534.034 1222.2 Q530.423 1215.07 523.155 1215.07 M523.155 1207.67 Q534.775 1207.67 540.886 1216.88 Q547.043 1226.05 547.043 1243.55 Q547.043 1261 540.886 1270.21 Q534.775 1279.38 523.155 1279.38 Q511.534 1279.38 505.377 1270.21 Q499.266 1261 499.266 1243.55 Q499.266 1226.05 505.377 1216.88 Q511.534 1207.67 523.155 1207.67 Z" fill="#000000" fill-rule="nonzero" fill-opacity="1" /><path clip-path="url(#clip160)" d="M563.479 1266.28 L573.247 1266.28 L573.247 1278.04 L563.479 1278.04 L563.479 1266.28 Z" fill="#000000" fill-rule="nonzero" fill-opacity="1" /><path clip-path="url(#clip160)" d="M613.617 1215.07 Q606.395 1215.07 602.738 1222.2 Q599.127 1229.29 599.127 1243.55 Q599.127 1257.76 602.738 1264.89 Q606.395 1271.97 613.617 1271.97 Q620.886 1271.97 624.497 1264.89 Q628.154 1257.76 628.154 1243.55 Q628.154 1229.29 624.497 1222.2 Q620.886 1215.07 613.617 1215.07 M613.617 1207.67 Q625.238 1207.67 631.349 1216.88 Q637.506 1226.05 637.506 1243.55 Q637.506 1261 631.349 1270.21 Q625.238 1279.38 613.617 1279.38 Q601.997 1279.38 595.84 1270.21 Q589.728 1261 589.728 1243.55 Q589.728 1226.05 595.84 1216.88 Q601.997 1207.67 613.617 1207.67 Z" fill="#000000" fill-rule="nonzero" fill-opacity="1" /><path clip-path="url(#clip160)" d="M384.128 1036.21 L399.405 1036.21 L399.405 983.48 L382.785 986.813 L382.785 978.295 L399.313 974.962 L408.665 974.962 L408.665 1036.21 L423.942 1036.21 L423.942 1044.08 L384.128 1044.08 L384.128 1036.21 Z" fill="#000000" fill-rule="nonzero" fill-opacity="1" /><path clip-path="url(#clip160)" d="M462.831 981.119 Q455.609 981.119 451.951 988.249 Q448.34 995.332 448.34 1009.59 Q448.34 1023.8 451.951 1030.93 Q455.609 1038.02 462.831 1038.02 Q470.099 1038.02 473.711 1030.93 Q477.368 1023.8 477.368 1009.59 Q477.368 995.332 473.711 988.249 Q470.099 981.119 462.831 981.119 M462.831 973.712 Q474.451 973.712 480.562 982.925 Q486.72 992.091 486.72 1009.59 Q486.72 1027.04 480.562 1036.26 Q474.451 1045.42 462.831 1045.42 Q451.211 1045.42 445.053 1036.26 Q438.942 1027.04 438.942 1009.59 Q438.942 992.091 445.053 982.925 Q451.211 973.712 462.831 973.712 Z" fill="#000000" fill-rule="nonzero" fill-opacity="1" /><path clip-path="url(#clip160)" d="M523.155 981.119 Q515.933 981.119 512.275 988.249 Q508.664 995.332 508.664 1009.59 Q508.664 1023.8 512.275 1030.93 Q515.933 1038.02 523.155 1038.02 Q530.423 1038.02 534.034 1030.93 Q537.692 1023.8 537.692 1009.59 Q537.692 995.332 534.034 988.249 Q530.423 981.119 523.155 981.119 M523.155 973.712 Q534.775 973.712 540.886 982.925 Q547.043 992.091 547.043 1009.59 Q547.043 1027.04 540.886 1036.26 Q534.775 1045.42 523.155 1045.42 Q511.534 1045.42 505.377 1036.26 Q499.266 1027.04 499.266 1009.59 Q499.266 992.091 505.377 982.925 Q511.534 973.712 523.155 973.712 Z" fill="#000000" fill-rule="nonzero" fill-opacity="1" /><path clip-path="url(#clip160)" d="M563.479 1032.32 L573.247 1032.32 L573.247 1044.08 L563.479 1044.08 L563.479 1032.32 Z" fill="#000000" fill-rule="nonzero" fill-opacity="1" /><path clip-path="url(#clip160)" d="M613.617 981.119 Q606.395 981.119 602.738 988.249 Q599.127 995.332 599.127 1009.59 Q599.127 1023.8 602.738 1030.93 Q606.395 1038.02 613.617 1038.02 Q620.886 1038.02 624.497 1030.93 Q628.154 1023.8 628.154 1009.59 Q628.154 995.332 624.497 988.249 Q620.886 981.119 613.617 981.119 M613.617 973.712 Q625.238 973.712 631.349 982.925 Q637.506 992.091 637.506 1009.59 Q637.506 1027.04 631.349 1036.26 Q625.238 1045.42 613.617 1045.42 Q601.997 1045.42 595.84 1036.26 Q589.728 1027.04 589.728 1009.59 Q589.728 992.091 595.84 982.925 Q601.997 973.712 613.617 973.712 Z" fill="#000000" fill-rule="nonzero" fill-opacity="1" /><path clip-path="url(#clip160)" d="M384.128 802.257 L399.405 802.257 L399.405 749.526 L382.785 752.859 L382.785 744.341 L399.313 741.007 L408.665 741.007 L408.665 802.257 L423.942 802.257 L423.942 810.127 L384.128 810.127 L384.128 802.257 Z" fill="#000000" fill-rule="nonzero" fill-opacity="1" /><path clip-path="url(#clip160)" d="M450.887 802.257 L483.525 802.257 L483.525 810.127 L439.637 810.127 L439.637 802.257 Q444.961 796.748 454.127 787.489 Q463.34 778.183 465.701 775.498 Q470.192 770.452 471.951 766.98 Q473.757 763.461 473.757 760.081 Q473.757 754.572 469.868 751.1 Q466.025 747.628 459.822 747.628 Q455.424 747.628 450.516 749.156 Q445.655 750.683 440.1 753.785 L440.1 744.341 Q445.748 742.072 450.655 740.915 Q455.562 739.757 459.637 739.757 Q470.377 739.757 476.766 745.128 Q483.155 750.498 483.155 759.48 Q483.155 763.739 481.535 767.581 Q479.961 771.378 475.748 776.563 Q474.59 777.905 468.387 784.341 Q462.183 790.729 450.887 802.257 Z" fill="#000000" fill-rule="nonzero" fill-opacity="1" /><path clip-path="url(#clip160)" d="M523.155 747.165 Q515.933 747.165 512.275 754.294 Q508.664 761.378 508.664 775.637 Q508.664 789.85 512.275 796.979 Q515.933 804.063 523.155 804.063 Q530.423 804.063 534.034 796.979 Q537.692 789.85 537.692 775.637 Q537.692 761.378 534.034 754.294 Q530.423 747.165 523.155 747.165 M523.155 739.757 Q534.775 739.757 540.886 748.97 Q547.043 758.137 547.043 775.637 Q547.043 793.091 540.886 802.303 Q534.775 811.47 523.155 811.47 Q511.534 811.47 505.377 802.303 Q499.266 793.091 499.266 775.637 Q499.266 758.137 505.377 748.97 Q511.534 739.757 523.155 739.757 Z" fill="#000000" fill-rule="nonzero" fill-opacity="1" /><path clip-path="url(#clip160)" d="M563.479 798.368 L573.247 798.368 L573.247 810.127 L563.479 810.127 L563.479 798.368 Z" fill="#000000" fill-rule="nonzero" fill-opacity="1" /><path clip-path="url(#clip160)" d="M613.617 747.165 Q606.395 747.165 602.738 754.294 Q599.127 761.378 599.127 775.637 Q599.127 789.85 602.738 796.979 Q606.395 804.063 613.617 804.063 Q620.886 804.063 624.497 796.979 Q628.154 789.85 628.154 775.637 Q628.154 761.378 624.497 754.294 Q620.886 747.165 613.617 747.165 M613.617 739.757 Q625.238 739.757 631.349 748.97 Q637.506 758.137 637.506 775.637 Q637.506 793.091 631.349 802.303 Q625.238 811.47 613.617 811.47 Q601.997 811.47 595.84 802.303 Q589.728 793.091 589.728 775.637 Q589.728 758.137 595.84 748.97 Q601.997 739.757 613.617 739.757 Z" fill="#000000" fill-rule="nonzero" fill-opacity="1" /><path clip-path="url(#clip160)" d="M384.128 568.303 L399.405 568.303 L399.405 515.572 L382.785 518.905 L382.785 510.387 L399.313 507.053 L408.665 507.053 L408.665 568.303 L423.942 568.303 L423.942 576.173 L384.128 576.173 L384.128 568.303 Z" fill="#000000" fill-rule="nonzero" fill-opacity="1" /><path clip-path="url(#clip160)" d="M468.525 515.201 L444.914 552.099 L468.525 552.099 L468.525 515.201 M466.072 507.053 L477.831 507.053 L477.831 552.099 L487.692 552.099 L487.692 559.877 L477.831 559.877 L477.831 576.173 L468.525 576.173 L468.525 559.877 L437.322 559.877 L437.322 550.849 L466.072 507.053 Z" fill="#000000" fill-rule="nonzero" fill-opacity="1" /><path clip-path="url(#clip160)" d="M523.155 513.211 Q515.933 513.211 512.275 520.34 Q508.664 527.424 508.664 541.683 Q508.664 555.896 512.275 563.025 Q515.933 570.108 523.155 570.108 Q530.423 570.108 534.034 563.025 Q537.692 555.896 537.692 541.683 Q537.692 527.424 534.034 520.34 Q530.423 513.211 523.155 513.211 M523.155 505.803 Q534.775 505.803 540.886 515.016 Q547.043 524.183 547.043 541.683 Q547.043 559.136 540.886 568.349 Q534.775 577.516 523.155 577.516 Q511.534 577.516 505.377 568.349 Q499.266 559.136 499.266 541.683 Q499.266 524.183 505.377 515.016 Q511.534 505.803 523.155 505.803 Z" fill="#000000" fill-rule="nonzero" fill-opacity="1" /><path clip-path="url(#clip160)" d="M563.479 564.414 L573.247 564.414 L573.247 576.173 L563.479 576.173 L563.479 564.414 Z" fill="#000000" fill-rule="nonzero" fill-opacity="1" /><path clip-path="url(#clip160)" d="M613.617 513.211 Q606.395 513.211 602.738 520.34 Q599.127 527.424 599.127 541.683 Q599.127 555.896 602.738 563.025 Q606.395 570.108 613.617 570.108 Q620.886 570.108 624.497 563.025 Q628.154 555.896 628.154 541.683 Q628.154 527.424 624.497 520.34 Q620.886 513.211 613.617 513.211 M613.617 505.803 Q625.238 505.803 631.349 515.016 Q637.506 524.183 637.506 541.683 Q637.506 559.136 631.349 568.349 Q625.238 577.516 613.617 577.516 Q601.997 577.516 595.84 568.349 Q589.728 559.136 589.728 541.683 Q589.728 524.183 595.84 515.016 Q601.997 505.803 613.617 505.803 Z" fill="#000000" fill-rule="nonzero" fill-opacity="1" /><path clip-path="url(#clip160)" d="M384.128 334.349 L399.405 334.349 L399.405 281.618 L382.785 284.951 L382.785 276.432 L399.313 273.099 L408.665 273.099 L408.665 334.349 L423.942 334.349 L423.942 342.219 L384.128 342.219 L384.128 334.349 Z" fill="#000000" fill-rule="nonzero" fill-opacity="1" /><path clip-path="url(#clip160)" d="M463.988 303.932 Q457.692 303.932 453.988 308.238 Q450.331 312.543 450.331 320.043 Q450.331 327.497 453.988 331.849 Q457.692 336.154 463.988 336.154 Q470.285 336.154 473.942 331.849 Q477.646 327.497 477.646 320.043 Q477.646 312.543 473.942 308.238 Q470.285 303.932 463.988 303.932 M482.553 274.627 L482.553 283.145 Q479.035 281.479 475.424 280.599 Q471.859 279.719 468.34 279.719 Q459.081 279.719 454.174 285.969 Q449.313 292.219 448.618 304.858 Q451.35 300.83 455.47 298.701 Q459.59 296.525 464.544 296.525 Q474.961 296.525 480.979 302.867 Q487.044 309.164 487.044 320.043 Q487.044 330.691 480.748 337.126 Q474.451 343.562 463.988 343.562 Q451.998 343.562 445.655 334.395 Q439.313 325.182 439.313 307.728 Q439.313 291.34 447.09 281.618 Q454.868 271.849 467.97 271.849 Q471.488 271.849 475.053 272.543 Q478.664 273.238 482.553 274.627 Z" fill="#000000" fill-rule="nonzero" fill-opacity="1" /><path clip-path="url(#clip160)" d="M523.155 279.256 Q515.933 279.256 512.275 286.386 Q508.664 293.469 508.664 307.728 Q508.664 321.941 512.275 329.071 Q515.933 336.154 523.155 336.154 Q530.423 336.154 534.034 329.071 Q537.692 321.941 537.692 307.728 Q537.692 293.469 534.034 286.386 Q530.423 279.256 523.155 279.256 M523.155 271.849 Q534.775 271.849 540.886 281.062 Q547.043 290.229 547.043 307.728 Q547.043 325.182 540.886 334.395 Q534.775 343.562 523.155 343.562 Q511.534 343.562 505.377 334.395 Q499.266 325.182 499.266 307.728 Q499.266 290.229 505.377 281.062 Q511.534 271.849 523.155 271.849 Z" fill="#000000" fill-rule="nonzero" fill-opacity="1" /><path clip-path="url(#clip160)" d="M563.479 330.46 L573.247 330.46 L573.247 342.219 L563.479 342.219 L563.479 330.46 Z" fill="#000000" fill-rule="nonzero" fill-opacity="1" /><path clip-path="url(#clip160)" d="M613.617 279.256 Q606.395 279.256 602.738 286.386 Q599.127 293.469 599.127 307.728 Q599.127 321.941 602.738 329.071 Q606.395 336.154 613.617 336.154 Q620.886 336.154 624.497 329.071 Q628.154 321.941 628.154 307.728 Q628.154 293.469 624.497 286.386 Q620.886 279.256 613.617 279.256 M613.617 271.849 Q625.238 271.849 631.349 281.062 Q637.506 290.229 637.506 307.728 Q637.506 325.182 631.349 334.395 Q625.238 343.562 613.617 343.562 Q601.997 343.562 595.84 334.395 Q589.728 325.182 589.728 307.728 Q589.728 290.229 595.84 281.062 Q601.997 271.849 613.617 271.849 Z" fill="#000000" fill-rule="nonzero" fill-opacity="1" /><path clip-path="url(#clip160)" d="M307.579 932.195 L345.391 932.195 L345.391 943.972 L246.977 943.972 L246.977 932.195 L257.799 932.195 Q251.433 928.503 248.378 922.901 Q245.258 917.236 245.258 909.406 Q245.258 896.42 255.571 888.336 Q265.883 880.188 282.689 880.188 Q299.494 880.188 309.807 888.336 Q320.119 896.42 320.119 909.406 Q320.119 917.236 317.064 922.901 Q313.944 928.503 307.579 932.195 M282.689 892.346 Q269.766 892.346 262.446 897.693 Q255.062 902.977 255.062 912.271 Q255.062 921.565 262.446 926.912 Q269.766 932.195 282.689 932.195 Q295.611 932.195 302.995 926.912 Q310.316 921.565 310.316 912.271 Q310.316 902.977 302.995 897.693 Q295.611 892.346 282.689 892.346 Z" fill="#000000" fill-rule="nonzero" fill-opacity="1" /><path clip-path="url(#clip160)" d="M282.434 828.371 Q282.434 842.566 285.681 848.041 Q288.927 853.515 296.757 853.515 Q302.995 853.515 306.688 849.441 Q310.316 845.303 310.316 838.238 Q310.316 828.498 303.441 822.642 Q296.502 816.721 285.044 816.721 L282.434 816.721 L282.434 828.371 M277.596 805.009 L318.273 805.009 L318.273 816.721 L307.451 816.721 Q313.944 820.732 317.064 826.716 Q320.119 832.699 320.119 841.357 Q320.119 852.306 314.008 858.799 Q307.833 865.228 297.521 865.228 Q285.49 865.228 279.379 857.207 Q273.268 849.123 273.268 833.145 L273.268 816.721 L272.122 816.721 Q264.037 816.721 259.645 822.069 Q255.189 827.352 255.189 836.964 Q255.189 843.075 256.653 848.868 Q258.117 854.661 261.045 860.008 L250.224 860.008 Q247.741 853.579 246.532 847.531 Q245.258 841.484 245.258 835.755 Q245.258 820.286 253.279 812.647 Q261.3 805.009 277.596 805.009 Z" fill="#000000" fill-rule="nonzero" fill-opacity="1" /><path clip-path="url(#clip160)" d="M257.926 739.569 Q256.78 741.542 256.271 743.898 Q255.698 746.189 255.698 748.99 Q255.698 758.921 262.191 764.268 Q268.621 769.552 280.715 769.552 L318.273 769.552 L318.273 781.328 L246.977 781.328 L246.977 769.552 L258.054 769.552 Q251.561 765.859 248.441 759.939 Q245.258 754.019 245.258 745.553 Q245.258 744.343 245.449 742.879 Q245.577 741.415 245.895 739.633 L257.926 739.569 Z" fill="#000000" fill-rule="nonzero" fill-opacity="1" /><path clip-path="url(#clip160)" d="M279.697 669.164 L285.426 669.164 L285.426 723.018 Q297.521 722.254 303.887 715.761 Q310.189 709.205 310.189 697.555 Q310.189 690.808 308.534 684.506 Q306.878 678.14 303.568 671.902 L314.645 671.902 Q317.318 678.204 318.719 684.824 Q320.119 691.444 320.119 698.256 Q320.119 715.316 310.189 725.31 Q300.258 735.24 283.325 735.24 Q265.82 735.24 255.571 725.819 Q245.258 716.334 245.258 700.293 Q245.258 685.906 254.552 677.567 Q263.783 669.164 279.697 669.164 M276.259 680.877 Q266.647 681.005 260.918 686.288 Q255.189 691.508 255.189 700.165 Q255.189 709.969 260.727 715.889 Q266.265 721.745 276.323 722.636 L276.259 680.877 Z" fill="#000000" fill-rule="nonzero" fill-opacity="1" /><path clip-path="url(#clip160)" d="M275.241 590.675 L318.273 590.675 L318.273 602.388 L275.623 602.388 Q265.501 602.388 260.472 606.335 Q255.444 610.282 255.444 618.175 Q255.444 627.66 261.491 633.134 Q267.538 638.609 277.978 638.609 L318.273 638.609 L318.273 650.386 L246.977 650.386 L246.977 638.609 L258.054 638.609 Q251.624 634.408 248.441 628.742 Q245.258 623.013 245.258 615.565 Q245.258 603.279 252.897 596.977 Q260.472 590.675 275.241 590.675 Z" fill="#000000" fill-rule="nonzero" fill-opacity="1" /><path clip-path="url(#clip160)" d="M302.104 565.658 L302.104 552.226 L318.273 552.226 L318.273 565.658 L302.104 565.658 Z" fill="#000000" fill-rule="nonzero" fill-opacity="1" /><path clip-path="url(#clip160)" d="M267.029 443.818 Q269.003 434.588 275.241 429.432 Q281.479 424.212 290.646 424.212 Q304.714 424.212 312.417 433.888 Q320.119 443.564 320.119 461.388 Q320.119 467.371 318.91 473.737 Q317.764 480.039 315.409 486.787 L302.995 486.787 Q306.115 481.44 307.706 475.074 Q309.297 468.708 309.297 461.77 Q309.297 449.675 304.523 443.373 Q299.749 437.007 290.646 437.007 Q282.243 437.007 277.533 442.927 Q272.758 448.784 272.758 459.287 L272.758 470.363 L262.191 470.363 L262.191 458.778 Q262.191 449.293 258.435 444.264 Q254.616 439.235 247.486 439.235 Q240.166 439.235 236.283 444.455 Q232.336 449.611 232.336 459.287 Q232.336 464.571 233.482 470.618 Q234.628 476.665 237.047 483.922 L225.588 483.922 Q223.551 476.602 222.533 470.236 Q221.514 463.807 221.514 458.141 Q221.514 443.5 228.198 434.97 Q234.819 426.44 246.15 426.44 Q254.043 426.44 259.518 430.96 Q264.928 435.479 267.029 443.818 Z" fill="#000000" fill-rule="nonzero" fill-opacity="1" /><polyline clip-path="url(#clip162)" style="stroke:#008000; stroke-linecap:round; stroke-linejoin:round; stroke-width:8; stroke-opacity:1; fill:none" points="719.695,159.844 829.668,260.283 939.642,341.045 1049.62,439.948 1159.59,514.06 1269.56,534.163 1379.54,709.259 1489.51,686.889 1599.48,869.671 1709.46,851.312 1819.43,888.466 1929.4,1034.29 2039.38,1056.01 2149.35,1105.01 2259.32,1240.32 "/>
<circle clip-path="url(#clip162)" cx="719.695" cy="159.844" r="14.4" fill="#008000" fill-rule="evenodd" fill-opacity="1" stroke="#000000" stroke-opacity="1" stroke-width="6.4"/>
<circle clip-path="url(#clip162)" cx="829.668" cy="260.283" r="14.4" fill="#008000" fill-rule="evenodd" fill-opacity="1" stroke="#000000" stroke-opacity="1" stroke-width="6.4"/>
<circle clip-path="url(#clip162)" cx="939.642" cy="341.045" r="14.4" fill="#008000" fill-rule="evenodd" fill-opacity="1" stroke="#000000" stroke-opacity="1" stroke-width="6.4"/>
<circle clip-path="url(#clip162)" cx="1049.62" cy="439.948" r="14.4" fill="#008000" fill-rule="evenodd" fill-opacity="1" stroke="#000000" stroke-opacity="1" stroke-width="6.4"/>
<circle clip-path="url(#clip162)" cx="1159.59" cy="514.06" r="14.4" fill="#008000" fill-rule="evenodd" fill-opacity="1" stroke="#000000" stroke-opacity="1" stroke-width="6.4"/>
<circle clip-path="url(#clip162)" cx="1269.56" cy="534.163" r="14.4" fill="#008000" fill-rule="evenodd" fill-opacity="1" stroke="#000000" stroke-opacity="1" stroke-width="6.4"/>
<circle clip-path="url(#clip162)" cx="1379.54" cy="709.259" r="14.4" fill="#008000" fill-rule="evenodd" fill-opacity="1" stroke="#000000" stroke-opacity="1" stroke-width="6.4"/>
<circle clip-path="url(#clip162)" cx="1489.51" cy="686.889" r="14.4" fill="#008000" fill-rule="evenodd" fill-opacity="1" stroke="#000000" stroke-opacity="1" stroke-width="6.4"/>
<circle clip-path="url(#clip162)" cx="1599.48" cy="869.671" r="14.4" fill="#008000" fill-rule="evenodd" fill-opacity="1" stroke="#000000" stroke-opacity="1" stroke-width="6.4"/>
<circle clip-path="url(#clip162)" cx="1709.46" cy="851.312" r="14.4" fill="#008000" fill-rule="evenodd" fill-opacity="1" stroke="#000000" stroke-opacity="1" stroke-width="6.4"/>
<circle clip-path="url(#clip162)" cx="1819.43" cy="888.466" r="14.4" fill="#008000" fill-rule="evenodd" fill-opacity="1" stroke="#000000" stroke-opacity="1" stroke-width="6.4"/>
<circle clip-path="url(#clip162)" cx="1929.4" cy="1034.29" r="14.4" fill="#008000" fill-rule="evenodd" fill-opacity="1" stroke="#000000" stroke-opacity="1" stroke-width="6.4"/>
<circle clip-path="url(#clip162)" cx="2039.38" cy="1056.01" r="14.4" fill="#008000" fill-rule="evenodd" fill-opacity="1" stroke="#000000" stroke-opacity="1" stroke-width="6.4"/>
<circle clip-path="url(#clip162)" cx="2149.35" cy="1105.01" r="14.4" fill="#008000" fill-rule="evenodd" fill-opacity="1" stroke="#000000" stroke-opacity="1" stroke-width="6.4"/>
<circle clip-path="url(#clip162)" cx="2259.32" cy="1240.32" r="14.4" fill="#008000" fill-rule="evenodd" fill-opacity="1" stroke="#000000" stroke-opacity="1" stroke-width="6.4"/>
<polyline clip-path="url(#clip162)" style="stroke:#00008b; stroke-linecap:round; stroke-linejoin:round; stroke-width:8; stroke-opacity:1; fill:none" points="719.695,162.328 829.668,321.768 939.642,421.706 1049.62,510.355 1159.59,593.14 1269.56,666.747 1379.54,736.819 1489.51,797.968 1599.48,854.176 1709.46,905.998 1819.43,954.14 1929.4,999.079 2039.38,1038.99 2149.35,1079.8 2259.32,1115.82 "/>
<path clip-path="url(#clip162)" d="M719.695 198.241 L829.668 356.426 L939.642 455.875 L1049.62 545.347 L1159.59 629.501 L1269.56 702.059 L1379.54 772.535 L1489.51 833.198 L1599.48 891.385 L1709.46 941.377 L1819.43 988.458 L1929.4 1034.82 L2039.38 1075.64 L2149.35 1113.86 L2259.32 1153.1 L2259.32 1078.04 L2149.35 1046.4 L2039.38 1003.18 L1929.4 964.045 L1819.43 918.764 L1709.46 870.558 L1599.48 817.985 L1489.51 761.868 L1379.54 703.057 L1269.56 629.443 L1159.59 557.236 L1049.62 475.859 L939.642 387.491 L829.668 284.529 L719.695 127.862  Z" fill="#0000ff" fill-rule="evenodd" fill-opacity="0.1"/>
<polyline clip-path="url(#clip162)" style="stroke:#0000ff; stroke-linecap:round; stroke-linejoin:round; stroke-width:0; stroke-opacity:0.1; fill:none" points="719.695,198.241 829.668,356.426 939.642,455.875 1049.62,545.347 1159.59,629.501 1269.56,702.059 1379.54,772.535 1489.51,833.198 1599.48,891.385 1709.46,941.377 1819.43,988.458 1929.4,1034.82 2039.38,1075.64 2149.35,1113.86 2259.32,1153.1 "/>
</svg>
