<?xml version="1.0" encoding="utf-8"?>
<svg xmlns="http://www.w3.org/2000/svg" xmlns:xlink="http://www.w3.org/1999/xlink" width="600" height="400" viewBox="0 0 2400 1600">
<defs>
  <clipPath id="clip880">
    <rect x="0" y="0" width="2400" height="1600"/>
  </clipPath>
</defs>
<path clip-path="url(#clip880)" d="M0 1600 L2400 1600 L2400 0 L0 0  Z" fill="#ffffff" fill-rule="evenodd" fill-opacity="1"/>
<defs>
  <clipPath id="clip881">
    <rect x="480" y="0" width="1681" height="1600"/>
  </clipPath>
</defs>
<path clip-path="url(#clip880)" d="M680.45 1273.7 L2305.51 1273.7 L2305.51 94.4882 L680.45 94.4882  Z" fill="#ffffff" fill-rule="evenodd" fill-opacity="1"/>
<defs>
  <clipPath id="clip882">
    <rect x="680" y="94" width="1626" height="1180"/>
  </clipPath>
</defs>
<polyline clip-path="url(#clip882)" style="stroke:#000000; stroke-linecap:round; stroke-linejoin:round; stroke-width:4; stroke-opacity:0.1; fill:none" points="726.443,1273.7 726.443,94.4882 "/>
<polyline clip-path="url(#clip882)" style="stroke:#000000; stroke-linecap:round; stroke-linejoin:round; stroke-width:4; stroke-opacity:0.1; fill:none" points="1000.21,1273.7 1000.21,94.4882 "/>
<polyline clip-path="url(#clip882)" style="stroke:#000000; stroke-linecap:round; stroke-linejoin:round; stroke-width:4; stroke-opacity:0.1; fill:none" points="1273.97,1273.7 1273.97,94.4882 "/>
<polyline clip-path="url(#clip882)" style="stroke:#000000; stroke-linecap:round; stroke-linejoin:round; stroke-width:4; stroke-opacity:0.1; fill:none" points="1547.73,1273.7 1547.73,94.4882 "/>
<polyline clip-path="url(#clip882)" style="stroke:#000000; stroke-linecap:round; stroke-linejoin:round; stroke-width:4; stroke-opacity:0.1; fill:none" points="1821.5,1273.7 1821.5,94.4882 "/>
<polyline clip-path="url(#clip882)" style="stroke:#000000; stroke-linecap:round; stroke-linejoin:round; stroke-width:4; stroke-opacity:0.1; fill:none" points="2095.26,1273.7 2095.26,94.4882 "/>
<polyline clip-path="url(#clip880)" style="stroke:#000000; stroke-linecap:round; stroke-linejoin:round; stroke-width:8; stroke-opacity:1; fill:none" points="680.45,1273.7 2305.51,1273.7 "/>
<polyline clip-path="url(#clip880)" style="stroke:#000000; stroke-linecap:round; stroke-linejoin:round; stroke-width:8; stroke-opacity:1; fill:none" points="726.443,1273.7 726.443,1254.8 "/>
<polyline clip-path="url(#clip880)" style="stroke:#000000; stroke-linecap:round; stroke-linejoin:round; stroke-width:8; stroke-opacity:1; fill:none" points="1000.21,1273.7 1000.21,1254.8 "/>
<polyline clip-path="url(#clip880)" style="stroke:#000000; stroke-linecap:round; stroke-linejoin:round; stroke-width:8; stroke-opacity:1; fill:none" points="1273.97,1273.7 1273.97,1254.8 "/>
<polyline clip-path="url(#clip880)" style="stroke:#000000; stroke-linecap:round; stroke-linejoin:round; stroke-width:8; stroke-opacity:1; fill:none" points="1547.73,1273.7 1547.73,1254.8 "/>
<polyline clip-path="url(#clip880)" style="stroke:#000000; stroke-linecap:round; stroke-linejoin:round; stroke-width:8; stroke-opacity:1; fill:none" points="1821.5,1273.7 1821.5,1254.8 "/>
<polyline clip-path="url(#clip880)" style="stroke:#000000; stroke-linecap:round; stroke-linejoin:round; stroke-width:8; stroke-opacity:1; fill:none" points="2095.26,1273.7 2095.26,1254.8 "/>
<path clip-path="url(#clip880)" d="M651.05 1316.33 Q643.827 1316.33 640.17 1323.46 Q636.559 1330.55 636.559 1344.81 Q636.559 1359.02 640.17 1366.15 Q643.827 1373.23 651.05 1373.23 Q658.318 1373.23 661.929 1366.15 Q665.587 1359.02 665.587 1344.81 Q665.587 1330.55 661.929 1323.46 Q658.318 1316.33 651.05 1316.33 M651.05 1308.93 Q662.67 1308.93 668.781 1318.14 Q674.938 1327.31 674.938 1344.81 Q674.938 1362.26 668.781 1371.47 Q662.67 1380.64 651.05 1380.64 Q639.429 1380.64 633.272 1371.47 Q627.161 1362.26 627.161 1344.81 Q627.161 1327.31 633.272 1318.14 Q639.429 1308.93 651.05 1308.93 Z" fill="#000000" fill-rule="nonzero" fill-opacity="1" /><path clip-path="url(#clip880)" d="M691.373 1367.54 L701.142 1367.54 L701.142 1379.3 L691.373 1379.3 L691.373 1367.54 Z" fill="#000000" fill-rule="nonzero" fill-opacity="1" /><path clip-path="url(#clip880)" d="M741.512 1316.33 Q734.29 1316.33 730.632 1323.46 Q727.021 1330.55 727.021 1344.81 Q727.021 1359.02 730.632 1366.15 Q734.29 1373.23 741.512 1373.23 Q748.781 1373.23 752.392 1366.15 Q756.049 1359.02 756.049 1344.81 Q756.049 1330.55 752.392 1323.46 Q748.781 1316.33 741.512 1316.33 M741.512 1308.93 Q753.132 1308.93 759.243 1318.14 Q765.401 1327.31 765.401 1344.81 Q765.401 1362.26 759.243 1371.47 Q753.132 1380.64 741.512 1380.64 Q729.892 1380.64 723.734 1371.47 Q717.623 1362.26 717.623 1344.81 Q717.623 1327.31 723.734 1318.14 Q729.892 1308.93 741.512 1308.93 Z" fill="#000000" fill-rule="nonzero" fill-opacity="1" /><path clip-path="url(#clip880)" d="M801.836 1316.33 Q794.614 1316.33 790.956 1323.46 Q787.345 1330.55 787.345 1344.81 Q787.345 1359.02 790.956 1366.15 Q794.614 1373.23 801.836 1373.23 Q809.104 1373.23 812.715 1366.15 Q816.373 1359.02 816.373 1344.81 Q816.373 1330.55 812.715 1323.46 Q809.104 1316.33 801.836 1316.33 M801.836 1308.93 Q813.456 1308.93 819.567 1318.14 Q825.725 1327.31 825.725 1344.81 Q825.725 1362.26 819.567 1371.47 Q813.456 1380.64 801.836 1380.64 Q790.215 1380.64 784.058 1371.47 Q777.947 1362.26 777.947 1344.81 Q777.947 1327.31 784.058 1318.14 Q790.215 1308.93 801.836 1308.93 Z" fill="#000000" fill-rule="nonzero" fill-opacity="1" /><path clip-path="url(#clip880)" d="M925.809 1316.33 Q918.586 1316.33 914.929 1323.46 Q911.318 1330.55 911.318 1344.81 Q911.318 1359.02 914.929 1366.15 Q918.586 1373.23 925.809 1373.23 Q933.077 1373.23 936.688 1366.15 Q940.346 1359.02 940.346 1344.81 Q940.346 1330.55 936.688 1323.46 Q933.077 1316.33 925.809 1316.33 M925.809 1308.93 Q937.429 1308.93 943.54 1318.14 Q949.697 1327.31 949.697 1344.81 Q949.697 1362.26 943.54 1371.47 Q937.429 1380.64 925.809 1380.64 Q914.188 1380.64 908.031 1371.47 Q901.92 1362.26 901.92 1344.81 Q901.92 1327.31 908.031 1318.14 Q914.188 1308.93 925.809 1308.93 Z" fill="#000000" fill-rule="nonzero" fill-opacity="1" /><path clip-path="url(#clip880)" d="M966.133 1367.54 L975.901 1367.54 L975.901 1379.3 L966.133 1379.3 L966.133 1367.54 Z" fill="#000000" fill-rule="nonzero" fill-opacity="1" /><path clip-path="url(#clip880)" d="M1004.33 1371.43 L1036.97 1371.43 L1036.97 1379.3 L993.077 1379.3 L993.077 1371.43 Q998.401 1365.92 1007.57 1356.66 Q1016.78 1347.35 1019.14 1344.67 Q1023.63 1339.62 1025.39 1336.15 Q1027.2 1332.63 1027.2 1329.25 Q1027.2 1323.74 1023.31 1320.27 Q1019.47 1316.8 1013.26 1316.8 Q1008.86 1316.8 1003.96 1318.32 Q999.095 1319.85 993.54 1322.95 L993.54 1313.51 Q999.188 1311.24 1004.1 1310.08 Q1009 1308.93 1013.08 1308.93 Q1023.82 1308.93 1030.21 1314.3 Q1036.6 1319.67 1036.6 1328.65 Q1036.6 1332.91 1034.97 1336.75 Q1033.4 1340.55 1029.19 1345.73 Q1028.03 1347.07 1021.83 1353.51 Q1015.62 1359.9 1004.33 1371.43 Z" fill="#000000" fill-rule="nonzero" fill-opacity="1" /><path clip-path="url(#clip880)" d="M1056.69 1310.18 L1093.4 1310.18 L1093.4 1318.05 L1065.25 1318.05 L1065.25 1334.99 Q1067.29 1334.3 1069.33 1333.97 Q1071.36 1333.6 1073.4 1333.6 Q1084.97 1333.6 1091.73 1339.94 Q1098.49 1346.29 1098.49 1357.12 Q1098.49 1368.28 1091.55 1374.48 Q1084.6 1380.64 1071.97 1380.64 Q1067.61 1380.64 1063.08 1379.9 Q1058.59 1379.16 1053.77 1377.68 L1053.77 1368.28 Q1057.94 1370.55 1062.38 1371.66 Q1066.83 1372.77 1071.78 1372.77 Q1079.79 1372.77 1084.47 1368.56 Q1089.14 1364.34 1089.14 1357.12 Q1089.14 1349.9 1084.47 1345.68 Q1079.79 1341.47 1071.78 1341.47 Q1068.03 1341.47 1064.28 1342.31 Q1060.58 1343.14 1056.69 1344.9 L1056.69 1310.18 Z" fill="#000000" fill-rule="nonzero" fill-opacity="1" /><path clip-path="url(#clip880)" d="M1198.58 1316.33 Q1191.35 1316.33 1187.7 1323.46 Q1184.09 1330.55 1184.09 1344.81 Q1184.09 1359.02 1187.7 1366.15 Q1191.35 1373.23 1198.58 1373.23 Q1205.85 1373.23 1209.46 1366.15 Q1213.11 1359.02 1213.11 1344.81 Q1213.11 1330.55 1209.46 1323.46 Q1205.85 1316.33 1198.58 1316.33 M1198.58 1308.93 Q1210.2 1308.93 1216.31 1318.14 Q1222.47 1327.31 1222.47 1344.81 Q1222.47 1362.26 1216.31 1371.47 Q1210.2 1380.64 1198.58 1380.64 Q1186.96 1380.64 1180.8 1371.47 Q1174.69 1362.26 1174.69 1344.81 Q1174.69 1327.31 1180.8 1318.14 Q1186.96 1308.93 1198.58 1308.93 Z" fill="#000000" fill-rule="nonzero" fill-opacity="1" /><path clip-path="url(#clip880)" d="M1238.9 1367.54 L1248.67 1367.54 L1248.67 1379.3 L1238.9 1379.3 L1238.9 1367.54 Z" fill="#000000" fill-rule="nonzero" fill-opacity="1" /><path clip-path="url(#clip880)" d="M1269.13 1310.18 L1305.84 1310.18 L1305.84 1318.05 L1277.7 1318.05 L1277.7 1334.99 Q1279.73 1334.3 1281.77 1333.97 Q1283.81 1333.6 1285.85 1333.6 Q1297.42 1333.6 1304.18 1339.94 Q1310.94 1346.29 1310.94 1357.12 Q1310.94 1368.28 1303.99 1374.48 Q1297.05 1380.64 1284.41 1380.64 Q1280.06 1380.64 1275.52 1379.9 Q1271.03 1379.16 1266.22 1377.68 L1266.22 1368.28 Q1270.38 1370.55 1274.83 1371.66 Q1279.27 1372.77 1284.22 1372.77 Q1292.23 1372.77 1296.91 1368.56 Q1301.59 1364.34 1301.59 1357.12 Q1301.59 1349.9 1296.91 1345.68 Q1292.23 1341.47 1284.22 1341.47 Q1280.47 1341.47 1276.72 1342.31 Q1273.02 1343.14 1269.13 1344.9 L1269.13 1310.18 Z" fill="#000000" fill-rule="nonzero" fill-opacity="1" /><path clip-path="url(#clip880)" d="M1349.36 1316.33 Q1342.14 1316.33 1338.48 1323.46 Q1334.87 1330.55 1334.87 1344.81 Q1334.87 1359.02 1338.48 1366.15 Q1342.14 1373.23 1349.36 1373.23 Q1356.63 1373.23 1360.24 1366.15 Q1363.9 1359.02 1363.9 1344.81 Q1363.9 1330.55 1360.24 1323.46 Q1356.63 1316.33 1349.36 1316.33 M1349.36 1308.93 Q1360.98 1308.93 1367.09 1318.14 Q1373.25 1327.31 1373.25 1344.81 Q1373.25 1362.26 1367.09 1371.47 Q1360.98 1380.64 1349.36 1380.64 Q1337.74 1380.64 1331.59 1371.47 Q1325.47 1362.26 1325.47 1344.81 Q1325.47 1327.31 1331.59 1318.14 Q1337.74 1308.93 1349.36 1308.93 Z" fill="#000000" fill-rule="nonzero" fill-opacity="1" /><path clip-path="url(#clip880)" d="M1473.34 1316.33 Q1466.11 1316.33 1462.46 1323.46 Q1458.85 1330.55 1458.85 1344.81 Q1458.85 1359.02 1462.46 1366.15 Q1466.11 1373.23 1473.34 1373.23 Q1480.6 1373.23 1484.22 1366.15 Q1487.87 1359.02 1487.87 1344.81 Q1487.87 1330.55 1484.22 1323.46 Q1480.6 1316.33 1473.34 1316.33 M1473.34 1308.93 Q1484.96 1308.93 1491.07 1318.14 Q1497.22 1327.31 1497.22 1344.81 Q1497.22 1362.26 1491.07 1371.47 Q1484.96 1380.64 1473.34 1380.64 Q1461.72 1380.64 1455.56 1371.47 Q1449.45 1362.26 1449.45 1344.81 Q1449.45 1327.31 1455.56 1318.14 Q1461.72 1308.93 1473.34 1308.93 Z" fill="#000000" fill-rule="nonzero" fill-opacity="1" /><path clip-path="url(#clip880)" d="M1513.66 1367.54 L1523.43 1367.54 L1523.43 1379.3 L1513.66 1379.3 L1513.66 1367.54 Z" fill="#000000" fill-rule="nonzero" fill-opacity="1" /><path clip-path="url(#clip880)" d="M1541.44 1310.18 L1585.88 1310.18 L1585.88 1314.16 L1560.79 1379.3 L1551.02 1379.3 L1574.63 1318.05 L1541.44 1318.05 L1541.44 1310.18 Z" fill="#000000" fill-rule="nonzero" fill-opacity="1" /><path clip-path="url(#clip880)" d="M1604.22 1310.18 L1640.93 1310.18 L1640.93 1318.05 L1612.78 1318.05 L1612.78 1334.99 Q1614.82 1334.3 1616.85 1333.97 Q1618.89 1333.6 1620.93 1333.6 Q1632.5 1333.6 1639.26 1339.94 Q1646.02 1346.29 1646.02 1357.12 Q1646.02 1368.28 1639.08 1374.48 Q1632.13 1380.64 1619.49 1380.64 Q1615.14 1380.64 1610.6 1379.9 Q1606.11 1379.16 1601.3 1377.68 L1601.3 1368.28 Q1605.47 1370.55 1609.91 1371.66 Q1614.35 1372.77 1619.31 1372.77 Q1627.32 1372.77 1631.99 1368.56 Q1636.67 1364.34 1636.67 1357.12 Q1636.67 1349.9 1631.99 1345.68 Q1627.32 1341.47 1619.31 1341.47 Q1615.56 1341.47 1611.81 1342.31 Q1608.1 1343.14 1604.22 1344.9 L1604.22 1310.18 Z" fill="#000000" fill-rule="nonzero" fill-opacity="1" /><path clip-path="url(#clip880)" d="M1725.64 1371.43 L1740.92 1371.43 L1740.92 1318.69 L1724.3 1322.03 L1724.3 1313.51 L1740.83 1310.18 L1750.18 1310.18 L1750.18 1371.43 L1765.46 1371.43 L1765.46 1379.3 L1725.64 1379.3 L1725.64 1371.43 Z" fill="#000000" fill-rule="nonzero" fill-opacity="1" /><path clip-path="url(#clip880)" d="M1784.34 1367.54 L1794.11 1367.54 L1794.11 1379.3 L1784.34 1379.3 L1784.34 1367.54 Z" fill="#000000" fill-rule="nonzero" fill-opacity="1" /><path clip-path="url(#clip880)" d="M1834.48 1316.33 Q1827.26 1316.33 1823.6 1323.46 Q1819.99 1330.55 1819.99 1344.81 Q1819.99 1359.02 1823.6 1366.15 Q1827.26 1373.23 1834.48 1373.23 Q1841.75 1373.23 1845.36 1366.15 Q1849.02 1359.02 1849.02 1344.81 Q1849.02 1330.55 1845.36 1323.46 Q1841.75 1316.33 1834.48 1316.33 M1834.48 1308.93 Q1846.1 1308.93 1852.21 1318.14 Q1858.37 1327.31 1858.37 1344.81 Q1858.37 1362.26 1852.21 1371.47 Q1846.1 1380.64 1834.48 1380.64 Q1822.86 1380.64 1816.71 1371.47 Q1810.59 1362.26 1810.59 1344.81 Q1810.59 1327.31 1816.71 1318.14 Q1822.86 1308.93 1834.48 1308.93 Z" fill="#000000" fill-rule="nonzero" fill-opacity="1" /><path clip-path="url(#clip880)" d="M1894.81 1316.33 Q1887.59 1316.33 1883.93 1323.46 Q1880.32 1330.55 1880.32 1344.81 Q1880.32 1359.02 1883.93 1366.15 Q1887.59 1373.23 1894.81 1373.23 Q1902.08 1373.23 1905.69 1366.15 Q1909.34 1359.02 1909.34 1344.81 Q1909.34 1330.55 1905.69 1323.46 Q1902.08 1316.33 1894.81 1316.33 M1894.81 1308.93 Q1906.43 1308.93 1912.54 1318.14 Q1918.7 1327.31 1918.7 1344.81 Q1918.7 1362.26 1912.54 1371.47 Q1906.43 1380.64 1894.81 1380.64 Q1883.19 1380.64 1877.03 1371.47 Q1870.92 1362.26 1870.92 1344.81 Q1870.92 1327.31 1877.03 1318.14 Q1883.19 1308.93 1894.81 1308.93 Z" fill="#000000" fill-rule="nonzero" fill-opacity="1" /><path clip-path="url(#clip880)" d="M2000.4 1371.43 L2015.68 1371.43 L2015.68 1318.69 L1999.06 1322.03 L1999.06 1313.51 L2015.59 1310.18 L2024.94 1310.18 L2024.94 1371.43 L2040.22 1371.43 L2040.22 1379.3 L2000.4 1379.3 L2000.4 1371.43 Z" fill="#000000" fill-rule="nonzero" fill-opacity="1" /><path clip-path="url(#clip880)" d="M2059.1 1367.54 L2068.87 1367.54 L2068.87 1379.3 L2059.1 1379.3 L2059.1 1367.54 Z" fill="#000000" fill-rule="nonzero" fill-opacity="1" /><path clip-path="url(#clip880)" d="M2097.3 1371.43 L2129.94 1371.43 L2129.94 1379.3 L2086.05 1379.3 L2086.05 1371.43 Q2091.37 1365.92 2100.54 1356.66 Q2109.75 1347.35 2112.11 1344.67 Q2116.6 1339.62 2118.36 1336.15 Q2120.17 1332.63 2120.17 1329.25 Q2120.17 1323.74 2116.28 1320.27 Q2112.44 1316.8 2106.23 1316.8 Q2101.84 1316.8 2096.93 1318.32 Q2092.07 1319.85 2086.51 1322.95 L2086.51 1313.51 Q2092.16 1311.24 2097.07 1310.08 Q2101.97 1308.93 2106.05 1308.93 Q2116.79 1308.93 2123.18 1314.3 Q2129.57 1319.67 2129.57 1328.65 Q2129.57 1332.91 2127.95 1336.75 Q2126.37 1340.55 2122.16 1345.73 Q2121 1347.07 2114.8 1353.51 Q2108.59 1359.9 2097.3 1371.43 Z" fill="#000000" fill-rule="nonzero" fill-opacity="1" /><path clip-path="url(#clip880)" d="M2149.66 1310.18 L2186.37 1310.18 L2186.37 1318.05 L2158.22 1318.05 L2158.22 1334.99 Q2160.26 1334.3 2162.3 1333.97 Q2164.33 1333.6 2166.37 1333.6 Q2177.95 1333.6 2184.71 1339.94 Q2191.46 1346.29 2191.46 1357.12 Q2191.46 1368.28 2184.52 1374.48 Q2177.58 1380.64 2164.94 1380.64 Q2160.58 1380.64 2156.05 1379.9 Q2151.56 1379.16 2146.74 1377.68 L2146.74 1368.28 Q2150.91 1370.55 2155.35 1371.66 Q2159.8 1372.77 2164.75 1372.77 Q2172.76 1372.77 2177.44 1368.56 Q2182.11 1364.34 2182.11 1357.12 Q2182.11 1349.9 2177.44 1345.68 Q2172.76 1341.47 2164.75 1341.47 Q2161 1341.47 2157.25 1342.31 Q2153.55 1343.14 2149.66 1344.9 L2149.66 1310.18 Z" fill="#000000" fill-rule="nonzero" fill-opacity="1" /><path clip-path="url(#clip880)" d="M1378.53 1484.39 L1378.53 1527.42 L1366.81 1527.42 L1366.81 1484.77 Q1366.81 1474.65 1362.87 1469.62 Q1358.92 1464.59 1351.03 1464.59 Q1341.54 1464.59 1336.07 1470.64 Q1330.59 1476.69 1330.59 1487.13 L1330.59 1527.42 L1318.82 1527.42 L1318.82 1428.37 L1330.59 1428.37 L1330.59 1467.2 Q1334.79 1460.77 1340.46 1457.59 Q1346.19 1454.41 1353.64 1454.41 Q1365.92 1454.41 1372.22 1462.05 Q1378.53 1469.62 1378.53 1484.39 Z" fill="#000000" fill-rule="nonzero" fill-opacity="1" /><path clip-path="url(#clip880)" d="M1429.51 1464.34 Q1420.09 1464.34 1414.62 1471.72 Q1409.14 1479.04 1409.14 1491.84 Q1409.14 1504.63 1414.56 1512.02 Q1420.03 1519.34 1429.51 1519.34 Q1438.87 1519.34 1444.35 1511.96 Q1449.82 1504.57 1449.82 1491.84 Q1449.82 1479.17 1444.35 1471.79 Q1438.87 1464.34 1429.51 1464.34 M1429.51 1454.41 Q1444.79 1454.41 1453.51 1464.34 Q1462.23 1474.27 1462.23 1491.84 Q1462.23 1509.35 1453.51 1519.34 Q1444.79 1529.27 1429.51 1529.27 Q1414.17 1529.27 1405.45 1519.34 Q1396.8 1509.35 1396.8 1491.84 Q1396.8 1474.27 1405.45 1464.34 Q1414.17 1454.41 1429.51 1454.41 Z" fill="#000000" fill-rule="nonzero" fill-opacity="1" /><path clip-path="url(#clip880)" d="M1480.44 1499.29 L1480.44 1456.13 L1492.15 1456.13 L1492.15 1498.84 Q1492.15 1508.96 1496.1 1514.06 Q1500.05 1519.08 1507.94 1519.08 Q1517.43 1519.08 1522.9 1513.04 Q1528.44 1506.99 1528.44 1496.55 L1528.44 1456.13 L1540.15 1456.13 L1540.15 1527.42 L1528.44 1527.42 L1528.44 1516.47 Q1524.17 1522.97 1518.51 1526.15 Q1512.91 1529.27 1505.46 1529.27 Q1493.17 1529.27 1486.81 1521.63 Q1480.44 1513.99 1480.44 1499.29 M1509.91 1454.41 L1509.91 1454.41 Z" fill="#000000" fill-rule="nonzero" fill-opacity="1" /><path clip-path="url(#clip880)" d="M1605.59 1467.08 Q1603.62 1465.93 1601.26 1465.42 Q1598.97 1464.85 1596.17 1464.85 Q1586.24 1464.85 1580.89 1471.34 Q1575.61 1477.77 1575.61 1489.87 L1575.61 1527.42 L1563.83 1527.42 L1563.83 1456.13 L1575.61 1456.13 L1575.61 1467.2 Q1579.3 1460.71 1585.22 1457.59 Q1591.14 1454.41 1599.61 1454.41 Q1600.82 1454.41 1602.28 1454.6 Q1603.74 1454.73 1605.53 1455.05 L1605.59 1467.08 Z" fill="#000000" fill-rule="nonzero" fill-opacity="1" /><path clip-path="url(#clip880)" d="M1663.33 1458.23 L1663.33 1469.3 Q1658.36 1466.76 1653.01 1465.49 Q1647.67 1464.21 1641.94 1464.21 Q1633.22 1464.21 1628.83 1466.89 Q1624.5 1469.56 1624.5 1474.91 Q1624.5 1478.98 1627.62 1481.34 Q1630.73 1483.63 1640.16 1485.73 L1644.17 1486.62 Q1656.64 1489.29 1661.86 1494.19 Q1667.15 1499.03 1667.15 1507.75 Q1667.15 1517.68 1659.25 1523.48 Q1651.42 1529.27 1637.67 1529.27 Q1631.94 1529.27 1625.71 1528.12 Q1619.53 1527.04 1612.66 1524.81 L1612.66 1512.72 Q1619.15 1516.09 1625.45 1517.81 Q1631.75 1519.47 1637.93 1519.47 Q1646.2 1519.47 1650.66 1516.67 Q1655.12 1513.8 1655.12 1508.64 Q1655.12 1503.87 1651.87 1501.32 Q1648.69 1498.78 1637.8 1496.42 L1633.73 1495.47 Q1622.84 1493.18 1618 1488.47 Q1613.17 1483.69 1613.17 1475.42 Q1613.17 1465.36 1620.3 1459.88 Q1627.42 1454.41 1640.54 1454.41 Q1647.03 1454.41 1652.76 1455.36 Q1658.49 1456.32 1663.33 1458.23 Z" fill="#000000" fill-rule="nonzero" fill-opacity="1" /><polyline clip-path="url(#clip882)" style="stroke:#000000; stroke-linecap:round; stroke-linejoin:round; stroke-width:4; stroke-opacity:0.1; fill:none" points="680.45,1165.07 2305.51,1165.07 "/>
<polyline clip-path="url(#clip882)" style="stroke:#000000; stroke-linecap:round; stroke-linejoin:round; stroke-width:4; stroke-opacity:0.1; fill:none" points="680.45,901.202 2305.51,901.202 "/>
<polyline clip-path="url(#clip882)" style="stroke:#000000; stroke-linecap:round; stroke-linejoin:round; stroke-width:4; stroke-opacity:0.1; fill:none" points="680.45,637.336 2305.51,637.336 "/>
<polyline clip-path="url(#clip882)" style="stroke:#000000; stroke-linecap:round; stroke-linejoin:round; stroke-width:4; stroke-opacity:0.1; fill:none" points="680.45,373.47 2305.51,373.47 "/>
<polyline clip-path="url(#clip882)" style="stroke:#000000; stroke-linecap:round; stroke-linejoin:round; stroke-width:4; stroke-opacity:0.1; fill:none" points="680.45,109.604 2305.51,109.604 "/>
<polyline clip-path="url(#clip880)" style="stroke:#000000; stroke-linecap:round; stroke-linejoin:round; stroke-width:8; stroke-opacity:1; fill:none" points="680.45,1273.7 680.45,94.4882 "/>
<polyline clip-path="url(#clip880)" style="stroke:#000000; stroke-linecap:round; stroke-linejoin:round; stroke-width:8; stroke-opacity:1; fill:none" points="680.45,1165.07 699.348,1165.07 "/>
<polyline clip-path="url(#clip880)" style="stroke:#000000; stroke-linecap:round; stroke-linejoin:round; stroke-width:8; stroke-opacity:1; fill:none" points="680.45,901.202 699.348,901.202 "/>
<polyline clip-path="url(#clip880)" style="stroke:#000000; stroke-linecap:round; stroke-linejoin:round; stroke-width:8; stroke-opacity:1; fill:none" points="680.45,637.336 699.348,637.336 "/>
<polyline clip-path="url(#clip880)" style="stroke:#000000; stroke-linecap:round; stroke-linejoin:round; stroke-width:8; stroke-opacity:1; fill:none" points="680.45,373.47 699.348,373.47 "/>
<polyline clip-path="url(#clip880)" style="stroke:#000000; stroke-linecap:round; stroke-linejoin:round; stroke-width:8; stroke-opacity:1; fill:none" points="680.45,109.604 699.348,109.604 "/>
<path clip-path="url(#clip880)" d="M391.072 1191.76 L406.35 1191.76 L406.35 1139.03 L389.73 1142.36 L389.73 1133.84 L406.257 1130.51 L415.609 1130.51 L415.609 1191.76 L430.887 1191.76 L430.887 1199.63 L391.072 1199.63 L391.072 1191.76 Z" fill="#000000" fill-rule="nonzero" fill-opacity="1" /><path clip-path="url(#clip880)" d="M449.868 1130.51 L486.581 1130.51 L486.581 1138.38 L458.433 1138.38 L458.433 1155.32 Q460.47 1154.63 462.507 1154.3 Q464.544 1153.93 466.581 1153.93 Q478.155 1153.93 484.914 1160.28 Q491.673 1166.62 491.673 1177.45 Q491.673 1188.61 484.729 1194.81 Q477.785 1200.97 465.146 1200.97 Q460.794 1200.97 456.257 1200.23 Q451.766 1199.49 446.951 1198.01 L446.951 1188.61 Q451.118 1190.88 455.562 1191.99 Q460.007 1193.1 464.961 1193.1 Q472.97 1193.1 477.646 1188.89 Q482.322 1184.67 482.322 1177.45 Q482.322 1170.23 477.646 1166.02 Q472.97 1161.8 464.961 1161.8 Q461.211 1161.8 457.461 1162.64 Q453.757 1163.47 449.868 1165.23 L449.868 1130.51 Z" fill="#000000" fill-rule="nonzero" fill-opacity="1" /><path clip-path="url(#clip880)" d="M530.099 1136.66 Q522.877 1136.66 519.22 1143.79 Q515.608 1150.88 515.608 1165.14 Q515.608 1179.35 519.22 1186.48 Q522.877 1193.56 530.099 1193.56 Q537.368 1193.56 540.979 1186.48 Q544.636 1179.35 544.636 1165.14 Q544.636 1150.88 540.979 1143.79 Q537.368 1136.66 530.099 1136.66 M530.099 1129.26 Q541.719 1129.26 547.831 1138.47 Q553.988 1147.64 553.988 1165.14 Q553.988 1182.59 547.831 1191.8 Q541.719 1200.97 530.099 1200.97 Q518.479 1200.97 512.321 1191.8 Q506.21 1182.59 506.21 1165.14 Q506.21 1147.64 512.321 1138.47 Q518.479 1129.26 530.099 1129.26 Z" fill="#000000" fill-rule="nonzero" fill-opacity="1" /><path clip-path="url(#clip880)" d="M570.423 1187.87 L580.191 1187.87 L580.191 1199.63 L570.423 1199.63 L570.423 1187.87 Z" fill="#000000" fill-rule="nonzero" fill-opacity="1" /><path clip-path="url(#clip880)" d="M620.562 1136.66 Q613.339 1136.66 609.682 1143.79 Q606.071 1150.88 606.071 1165.14 Q606.071 1179.35 609.682 1186.48 Q613.339 1193.56 620.562 1193.56 Q627.83 1193.56 631.441 1186.48 Q635.099 1179.35 635.099 1165.14 Q635.099 1150.88 631.441 1143.79 Q627.83 1136.66 620.562 1136.66 M620.562 1129.26 Q632.182 1129.26 638.293 1138.47 Q644.45 1147.64 644.45 1165.14 Q644.45 1182.59 638.293 1191.8 Q632.182 1200.97 620.562 1200.97 Q608.941 1200.97 602.784 1191.8 Q596.673 1182.59 596.673 1165.14 Q596.673 1147.64 602.784 1138.47 Q608.941 1129.26 620.562 1129.26 Z" fill="#000000" fill-rule="nonzero" fill-opacity="1" /><path clip-path="url(#clip880)" d="M397.507 927.891 L430.146 927.891 L430.146 935.762 L386.257 935.762 L386.257 927.891 Q391.581 922.382 400.748 913.123 Q409.961 903.817 412.322 901.132 Q416.813 896.086 418.572 892.614 Q420.378 889.095 420.378 885.716 Q420.378 880.206 416.489 876.734 Q412.646 873.262 406.442 873.262 Q402.044 873.262 397.137 874.79 Q392.276 876.318 386.72 879.419 L386.72 869.975 Q392.368 867.706 397.276 866.549 Q402.183 865.392 406.257 865.392 Q416.998 865.392 423.387 870.762 Q429.776 876.132 429.776 885.114 Q429.776 889.373 428.155 893.216 Q426.581 897.012 422.368 902.197 Q421.211 903.54 415.007 909.975 Q408.803 916.364 397.507 927.891 Z" fill="#000000" fill-rule="nonzero" fill-opacity="1" /><path clip-path="url(#clip880)" d="M469.775 872.799 Q462.553 872.799 458.896 879.929 Q455.285 887.012 455.285 901.271 Q455.285 915.484 458.896 922.614 Q462.553 929.697 469.775 929.697 Q477.044 929.697 480.655 922.614 Q484.312 915.484 484.312 901.271 Q484.312 887.012 480.655 879.929 Q477.044 872.799 469.775 872.799 M469.775 865.392 Q481.396 865.392 487.507 874.605 Q493.664 883.771 493.664 901.271 Q493.664 918.725 487.507 927.938 Q481.396 937.104 469.775 937.104 Q458.155 937.104 451.998 927.938 Q445.887 918.725 445.887 901.271 Q445.887 883.771 451.998 874.605 Q458.155 865.392 469.775 865.392 Z" fill="#000000" fill-rule="nonzero" fill-opacity="1" /><path clip-path="url(#clip880)" d="M530.099 872.799 Q522.877 872.799 519.22 879.929 Q515.608 887.012 515.608 901.271 Q515.608 915.484 519.22 922.614 Q522.877 929.697 530.099 929.697 Q537.368 929.697 540.979 922.614 Q544.636 915.484 544.636 901.271 Q544.636 887.012 540.979 879.929 Q537.368 872.799 530.099 872.799 M530.099 865.392 Q541.719 865.392 547.831 874.605 Q553.988 883.771 553.988 901.271 Q553.988 918.725 547.831 927.938 Q541.719 937.104 530.099 937.104 Q518.479 937.104 512.321 927.938 Q506.21 918.725 506.21 901.271 Q506.21 883.771 512.321 874.605 Q518.479 865.392 530.099 865.392 Z" fill="#000000" fill-rule="nonzero" fill-opacity="1" /><path clip-path="url(#clip880)" d="M570.423 924.002 L580.191 924.002 L580.191 935.762 L570.423 935.762 L570.423 924.002 Z" fill="#000000" fill-rule="nonzero" fill-opacity="1" /><path clip-path="url(#clip880)" d="M620.562 872.799 Q613.339 872.799 609.682 879.929 Q606.071 887.012 606.071 901.271 Q606.071 915.484 609.682 922.614 Q613.339 929.697 620.562 929.697 Q627.83 929.697 631.441 922.614 Q635.099 915.484 635.099 901.271 Q635.099 887.012 631.441 879.929 Q627.83 872.799 620.562 872.799 M620.562 865.392 Q632.182 865.392 638.293 874.605 Q644.45 883.771 644.45 901.271 Q644.45 918.725 638.293 927.938 Q632.182 937.104 620.562 937.104 Q608.941 937.104 602.784 927.938 Q596.673 918.725 596.673 901.271 Q596.673 883.771 602.784 874.605 Q608.941 865.392 620.562 865.392 Z" fill="#000000" fill-rule="nonzero" fill-opacity="1" /><path clip-path="url(#clip880)" d="M397.507 664.025 L430.146 664.025 L430.146 671.896 L386.257 671.896 L386.257 664.025 Q391.581 658.516 400.748 649.257 Q409.961 639.951 412.322 637.266 Q416.813 632.22 418.572 628.748 Q420.378 625.229 420.378 621.85 Q420.378 616.34 416.489 612.868 Q412.646 609.396 406.442 609.396 Q402.044 609.396 397.137 610.924 Q392.276 612.452 386.72 615.553 L386.72 606.109 Q392.368 603.841 397.276 602.683 Q402.183 601.526 406.257 601.526 Q416.998 601.526 423.387 606.896 Q429.776 612.266 429.776 621.248 Q429.776 625.507 428.155 629.35 Q426.581 633.146 422.368 638.331 Q421.211 639.674 415.007 646.109 Q408.803 652.498 397.507 664.025 Z" fill="#000000" fill-rule="nonzero" fill-opacity="1" /><path clip-path="url(#clip880)" d="M449.868 602.776 L486.581 602.776 L486.581 610.646 L458.433 610.646 L458.433 627.59 Q460.47 626.896 462.507 626.572 Q464.544 626.202 466.581 626.202 Q478.155 626.202 484.914 632.544 Q491.673 638.887 491.673 649.72 Q491.673 660.877 484.729 667.081 Q477.785 673.238 465.146 673.238 Q460.794 673.238 456.257 672.498 Q451.766 671.757 446.951 670.275 L446.951 660.877 Q451.118 663.146 455.562 664.257 Q460.007 665.368 464.961 665.368 Q472.97 665.368 477.646 661.155 Q482.322 656.942 482.322 649.72 Q482.322 642.498 477.646 638.285 Q472.97 634.072 464.961 634.072 Q461.211 634.072 457.461 634.905 Q453.757 635.739 449.868 637.498 L449.868 602.776 Z" fill="#000000" fill-rule="nonzero" fill-opacity="1" /><path clip-path="url(#clip880)" d="M530.099 608.933 Q522.877 608.933 519.22 616.063 Q515.608 623.146 515.608 637.405 Q515.608 651.618 519.22 658.748 Q522.877 665.831 530.099 665.831 Q537.368 665.831 540.979 658.748 Q544.636 651.618 544.636 637.405 Q544.636 623.146 540.979 616.063 Q537.368 608.933 530.099 608.933 M530.099 601.526 Q541.719 601.526 547.831 610.739 Q553.988 619.905 553.988 637.405 Q553.988 654.859 547.831 664.072 Q541.719 673.238 530.099 673.238 Q518.479 673.238 512.321 664.072 Q506.21 654.859 506.21 637.405 Q506.21 619.905 512.321 610.739 Q518.479 601.526 530.099 601.526 Z" fill="#000000" fill-rule="nonzero" fill-opacity="1" /><path clip-path="url(#clip880)" d="M570.423 660.137 L580.191 660.137 L580.191 671.896 L570.423 671.896 L570.423 660.137 Z" fill="#000000" fill-rule="nonzero" fill-opacity="1" /><path clip-path="url(#clip880)" d="M620.562 608.933 Q613.339 608.933 609.682 616.063 Q606.071 623.146 606.071 637.405 Q606.071 651.618 609.682 658.748 Q613.339 665.831 620.562 665.831 Q627.83 665.831 631.441 658.748 Q635.099 651.618 635.099 637.405 Q635.099 623.146 631.441 616.063 Q627.83 608.933 620.562 608.933 M620.562 601.526 Q632.182 601.526 638.293 610.739 Q644.45 619.905 644.45 637.405 Q644.45 654.859 638.293 664.072 Q632.182 673.238 620.562 673.238 Q608.941 673.238 602.784 664.072 Q596.673 654.859 596.673 637.405 Q596.673 619.905 602.784 610.739 Q608.941 601.526 620.562 601.526 Z" fill="#000000" fill-rule="nonzero" fill-opacity="1" /><path clip-path="url(#clip880)" d="M417.785 370.762 Q424.498 372.197 428.248 376.734 Q432.044 381.271 432.044 387.937 Q432.044 398.169 425.007 403.771 Q417.97 409.372 405.007 409.372 Q400.655 409.372 396.026 408.493 Q391.442 407.66 386.535 405.947 L386.535 396.919 Q390.424 399.187 395.054 400.345 Q399.683 401.502 404.729 401.502 Q413.526 401.502 418.109 398.03 Q422.739 394.558 422.739 387.937 Q422.739 381.826 418.433 378.4 Q414.174 374.928 406.535 374.928 L398.479 374.928 L398.479 367.243 L406.905 367.243 Q413.803 367.243 417.461 364.512 Q421.118 361.734 421.118 356.549 Q421.118 351.225 417.322 348.401 Q413.572 345.53 406.535 345.53 Q402.692 345.53 398.294 346.364 Q393.896 347.197 388.618 348.956 L388.618 340.623 Q393.942 339.141 398.572 338.401 Q403.248 337.66 407.368 337.66 Q418.016 337.66 424.22 342.521 Q430.424 347.336 430.424 355.576 Q430.424 361.317 427.137 365.299 Q423.85 369.234 417.785 370.762 Z" fill="#000000" fill-rule="nonzero" fill-opacity="1" /><path clip-path="url(#clip880)" d="M469.775 345.067 Q462.553 345.067 458.896 352.197 Q455.285 359.28 455.285 373.539 Q455.285 387.752 458.896 394.882 Q462.553 401.965 469.775 401.965 Q477.044 401.965 480.655 394.882 Q484.312 387.752 484.312 373.539 Q484.312 359.28 480.655 352.197 Q477.044 345.067 469.775 345.067 M469.775 337.66 Q481.396 337.66 487.507 346.873 Q493.664 356.039 493.664 373.539 Q493.664 390.993 487.507 400.206 Q481.396 409.372 469.775 409.372 Q458.155 409.372 451.998 400.206 Q445.887 390.993 445.887 373.539 Q445.887 356.039 451.998 346.873 Q458.155 337.66 469.775 337.66 Z" fill="#000000" fill-rule="nonzero" fill-opacity="1" /><path clip-path="url(#clip880)" d="M530.099 345.067 Q522.877 345.067 519.22 352.197 Q515.608 359.28 515.608 373.539 Q515.608 387.752 519.22 394.882 Q522.877 401.965 530.099 401.965 Q537.368 401.965 540.979 394.882 Q544.636 387.752 544.636 373.539 Q544.636 359.28 540.979 352.197 Q537.368 345.067 530.099 345.067 M530.099 337.66 Q541.719 337.66 547.831 346.873 Q553.988 356.039 553.988 373.539 Q553.988 390.993 547.831 400.206 Q541.719 409.372 530.099 409.372 Q518.479 409.372 512.321 400.206 Q506.21 390.993 506.21 373.539 Q506.21 356.039 512.321 346.873 Q518.479 337.66 530.099 337.66 Z" fill="#000000" fill-rule="nonzero" fill-opacity="1" /><path clip-path="url(#clip880)" d="M570.423 396.271 L580.191 396.271 L580.191 408.03 L570.423 408.03 L570.423 396.271 Z" fill="#000000" fill-rule="nonzero" fill-opacity="1" /><path clip-path="url(#clip880)" d="M620.562 345.067 Q613.339 345.067 609.682 352.197 Q606.071 359.28 606.071 373.539 Q606.071 387.752 609.682 394.882 Q613.339 401.965 620.562 401.965 Q627.83 401.965 631.441 394.882 Q635.099 387.752 635.099 373.539 Q635.099 359.28 631.441 352.197 Q627.83 345.067 620.562 345.067 M620.562 337.66 Q632.182 337.66 638.293 346.873 Q644.45 356.039 644.45 373.539 Q644.45 390.993 638.293 400.206 Q632.182 409.372 620.562 409.372 Q608.941 409.372 602.784 400.206 Q596.673 390.993 596.673 373.539 Q596.673 356.039 602.784 346.873 Q608.941 337.66 620.562 337.66 Z" fill="#000000" fill-rule="nonzero" fill-opacity="1" /><path clip-path="url(#clip880)" d="M417.785 106.896 Q424.498 108.331 428.248 112.868 Q432.044 117.405 432.044 124.072 Q432.044 134.303 425.007 139.905 Q417.97 145.507 405.007 145.507 Q400.655 145.507 396.026 144.627 Q391.442 143.794 386.535 142.081 L386.535 133.053 Q390.424 135.321 395.054 136.479 Q399.683 137.636 404.729 137.636 Q413.526 137.636 418.109 134.164 Q422.739 130.692 422.739 124.072 Q422.739 117.96 418.433 114.535 Q414.174 111.062 406.535 111.062 L398.479 111.062 L398.479 103.377 L406.905 103.377 Q413.803 103.377 417.461 100.646 Q421.118 97.8679 421.118 92.6828 Q421.118 87.3587 417.322 84.5347 Q413.572 81.6643 406.535 81.6643 Q402.692 81.6643 398.294 82.4977 Q393.896 83.331 388.618 85.0902 L388.618 76.7569 Q393.942 75.2755 398.572 74.5347 Q403.248 73.794 407.368 73.794 Q418.016 73.794 424.22 78.6551 Q430.424 83.4699 430.424 91.7106 Q430.424 97.4513 427.137 101.433 Q423.85 105.368 417.785 106.896 Z" fill="#000000" fill-rule="nonzero" fill-opacity="1" /><path clip-path="url(#clip880)" d="M449.868 75.044 L486.581 75.044 L486.581 82.9143 L458.433 82.9143 L458.433 99.8587 Q460.47 99.1642 462.507 98.8402 Q464.544 98.4698 466.581 98.4698 Q478.155 98.4698 484.914 104.812 Q491.673 111.155 491.673 121.988 Q491.673 133.146 484.729 139.349 Q477.785 145.507 465.146 145.507 Q460.794 145.507 456.257 144.766 Q451.766 144.025 446.951 142.544 L446.951 133.146 Q451.118 135.414 455.562 136.525 Q460.007 137.636 464.961 137.636 Q472.97 137.636 477.646 133.423 Q482.322 129.21 482.322 121.988 Q482.322 114.766 477.646 110.553 Q472.97 106.34 464.961 106.34 Q461.211 106.34 457.461 107.173 Q453.757 108.007 449.868 109.766 L449.868 75.044 Z" fill="#000000" fill-rule="nonzero" fill-opacity="1" /><path clip-path="url(#clip880)" d="M530.099 81.2014 Q522.877 81.2014 519.22 88.331 Q515.608 95.4143 515.608 109.673 Q515.608 123.886 519.22 131.016 Q522.877 138.099 530.099 138.099 Q537.368 138.099 540.979 131.016 Q544.636 123.886 544.636 109.673 Q544.636 95.4143 540.979 88.331 Q537.368 81.2014 530.099 81.2014 M530.099 73.794 Q541.719 73.794 547.831 83.0069 Q553.988 92.1735 553.988 109.673 Q553.988 127.127 547.831 136.34 Q541.719 145.507 530.099 145.507 Q518.479 145.507 512.321 136.34 Q506.21 127.127 506.21 109.673 Q506.21 92.1735 512.321 83.0069 Q518.479 73.794 530.099 73.794 Z" fill="#000000" fill-rule="nonzero" fill-opacity="1" /><path clip-path="url(#clip880)" d="M570.423 132.405 L580.191 132.405 L580.191 144.164 L570.423 144.164 L570.423 132.405 Z" fill="#000000" fill-rule="nonzero" fill-opacity="1" /><path clip-path="url(#clip880)" d="M620.562 81.2014 Q613.339 81.2014 609.682 88.331 Q606.071 95.4143 606.071 109.673 Q606.071 123.886 609.682 131.016 Q613.339 138.099 620.562 138.099 Q627.83 138.099 631.441 131.016 Q635.099 123.886 635.099 109.673 Q635.099 95.4143 631.441 88.331 Q627.83 81.2014 620.562 81.2014 M620.562 73.794 Q632.182 73.794 638.293 83.0069 Q644.45 92.1735 644.45 109.673 Q644.45 127.127 638.293 136.34 Q632.182 145.507 620.562 145.507 Q608.941 145.507 602.784 136.34 Q596.673 127.127 596.673 109.673 Q596.673 92.1735 602.784 83.0069 Q608.941 73.794 620.562 73.794 Z" fill="#000000" fill-rule="nonzero" fill-opacity="1" /><path clip-path="url(#clip880)" d="M253.187 1099.45 L264.136 1099.45 Q261.398 1104.42 260.062 1109.45 Q258.661 1114.41 258.661 1119.51 Q258.661 1130.9 265.918 1137.2 Q273.111 1143.51 286.161 1143.51 Q299.211 1143.51 306.468 1137.2 Q313.661 1130.9 313.661 1119.51 Q313.661 1114.41 312.324 1109.45 Q310.924 1104.42 308.186 1099.45 L319.008 1099.45 Q321.3 1104.36 322.446 1109.64 Q323.591 1114.86 323.591 1120.78 Q323.591 1136.88 313.47 1146.37 Q303.348 1155.85 286.161 1155.85 Q268.719 1155.85 258.725 1146.31 Q248.731 1136.69 248.731 1120.02 Q248.731 1114.6 249.876 1109.45 Q250.959 1104.29 253.187 1099.45 Z" fill="#000000" fill-rule="nonzero" fill-opacity="1" /><path clip-path="url(#clip880)" d="M258.661 1051.46 Q258.661 1060.88 266.045 1066.35 Q273.366 1071.83 286.161 1071.83 Q298.956 1071.83 306.34 1066.42 Q313.661 1060.94 313.661 1051.46 Q313.661 1042.1 306.277 1036.62 Q298.892 1031.15 286.161 1031.15 Q273.493 1031.15 266.109 1036.62 Q258.661 1042.1 258.661 1051.46 M248.731 1051.46 Q248.731 1036.18 258.661 1027.46 Q268.592 1018.74 286.161 1018.74 Q303.667 1018.74 313.661 1027.46 Q323.591 1036.18 323.591 1051.46 Q323.591 1066.8 313.661 1075.52 Q303.667 1084.18 286.161 1084.18 Q268.592 1084.18 258.661 1075.52 Q248.731 1066.8 248.731 1051.46 Z" fill="#000000" fill-rule="nonzero" fill-opacity="1" /><path clip-path="url(#clip880)" d="M278.713 940.057 L321.745 940.057 L321.745 951.77 L279.095 951.77 Q268.974 951.77 263.945 955.717 Q258.916 959.663 258.916 967.557 Q258.916 977.042 264.963 982.516 Q271.011 987.991 281.45 987.991 L321.745 987.991 L321.745 999.767 L250.449 999.767 L250.449 987.991 L261.526 987.991 Q255.096 983.789 251.914 978.124 Q248.731 972.395 248.731 964.947 Q248.731 952.661 256.37 946.359 Q263.945 940.057 278.713 940.057 Z" fill="#000000" fill-rule="nonzero" fill-opacity="1" /><path clip-path="url(#clip880)" d="M253.187 865.387 L264.136 865.387 Q261.398 870.353 260.062 875.381 Q258.661 880.347 258.661 885.439 Q258.661 896.834 265.918 903.136 Q273.111 909.438 286.161 909.438 Q299.211 909.438 306.468 903.136 Q313.661 896.834 313.661 885.439 Q313.661 880.347 312.324 875.381 Q310.924 870.353 308.186 865.387 L319.008 865.387 Q321.3 870.289 322.446 875.572 Q323.591 880.792 323.591 886.712 Q323.591 902.818 313.47 912.303 Q303.348 921.787 286.161 921.787 Q268.719 921.787 258.725 912.239 Q248.731 902.627 248.731 885.949 Q248.731 880.538 249.876 875.381 Q250.959 870.225 253.187 865.387 Z" fill="#000000" fill-rule="nonzero" fill-opacity="1" /><path clip-path="url(#clip880)" d="M305.576 843.362 L305.576 829.93 L321.745 829.93 L321.745 843.362 L305.576 843.362 Z" fill="#000000" fill-rule="nonzero" fill-opacity="1" /><path clip-path="url(#clip880)" d="M250.449 770.538 L250.449 758.125 L310.287 735.845 L250.449 713.565 L250.449 701.152 L321.745 727.888 L321.745 743.802 L250.449 770.538 Z" fill="#000000" fill-rule="nonzero" fill-opacity="1" /><path clip-path="url(#clip880)" d="M283.169 624 L288.898 624 L288.898 677.854 Q300.993 677.09 307.359 670.597 Q313.661 664.04 313.661 652.391 Q313.661 645.643 312.006 639.341 Q310.351 632.975 307.041 626.737 L318.117 626.737 Q320.79 633.039 322.191 639.659 Q323.591 646.28 323.591 653.091 Q323.591 670.151 313.661 680.145 Q303.73 690.076 286.798 690.076 Q269.292 690.076 259.043 680.654 Q248.731 671.17 248.731 655.128 Q248.731 640.742 258.025 632.402 Q267.255 624 283.169 624 M279.732 635.713 Q270.119 635.84 264.39 641.123 Q258.661 646.343 258.661 655.001 Q258.661 664.804 264.199 670.724 Q269.737 676.58 279.795 677.472 L279.732 635.713 Z" fill="#000000" fill-rule="nonzero" fill-opacity="1" /><path clip-path="url(#clip880)" d="M278.713 545.511 L321.745 545.511 L321.745 557.223 L279.095 557.223 Q268.974 557.223 263.945 561.17 Q258.916 565.117 258.916 573.01 Q258.916 582.495 264.963 587.97 Q271.011 593.444 281.45 593.444 L321.745 593.444 L321.745 605.221 L250.449 605.221 L250.449 593.444 L261.526 593.444 Q255.096 589.243 251.914 583.577 Q248.731 577.848 248.731 570.4 Q248.731 558.115 256.37 551.813 Q263.945 545.511 278.713 545.511 Z" fill="#000000" fill-rule="nonzero" fill-opacity="1" /><path clip-path="url(#clip880)" d="M230.206 510.563 L250.449 510.563 L250.449 486.437 L259.552 486.437 L259.552 510.563 L298.256 510.563 Q306.977 510.563 309.459 508.207 Q311.942 505.789 311.942 498.468 L311.942 486.437 L321.745 486.437 L321.745 498.468 Q321.745 512.027 316.716 517.183 Q311.624 522.339 298.256 522.339 L259.552 522.339 L259.552 530.933 L250.449 530.933 L250.449 522.339 L230.206 522.339 L230.206 510.563 Z" fill="#000000" fill-rule="nonzero" fill-opacity="1" /><path clip-path="url(#clip880)" d="M261.398 429.718 Q260.253 431.692 259.743 434.047 Q259.17 436.339 259.17 439.14 Q259.17 449.07 265.663 454.417 Q272.093 459.701 284.188 459.701 L321.745 459.701 L321.745 471.477 L250.449 471.477 L250.449 459.701 L261.526 459.701 Q255.033 456.009 251.914 450.089 Q248.731 444.168 248.731 435.702 Q248.731 434.493 248.922 433.028 Q249.049 431.564 249.367 429.782 L261.398 429.718 Z" fill="#000000" fill-rule="nonzero" fill-opacity="1" /><path clip-path="url(#clip880)" d="M250.449 417.433 L250.449 405.72 L321.745 405.72 L321.745 417.433 L250.449 417.433 M222.695 417.433 L222.695 405.72 L237.527 405.72 L237.527 417.433 L222.695 417.433 Z" fill="#000000" fill-rule="nonzero" fill-opacity="1" /><path clip-path="url(#clip880)" d="M253.187 329.904 L264.136 329.904 Q261.398 334.869 260.062 339.898 Q258.661 344.863 258.661 349.956 Q258.661 361.351 265.918 367.653 Q273.111 373.955 286.161 373.955 Q299.211 373.955 306.468 367.653 Q313.661 361.351 313.661 349.956 Q313.661 344.863 312.324 339.898 Q310.924 334.869 308.186 329.904 L319.008 329.904 Q321.3 334.806 322.446 340.089 Q323.591 345.309 323.591 351.229 Q323.591 367.334 313.47 376.819 Q303.348 386.304 286.161 386.304 Q268.719 386.304 258.725 376.756 Q248.731 367.143 248.731 350.465 Q248.731 345.054 249.876 339.898 Q250.959 334.742 253.187 329.904 Z" fill="#000000" fill-rule="nonzero" fill-opacity="1" /><path clip-path="url(#clip880)" d="M222.695 309.534 L222.695 297.821 L321.745 297.821 L321.745 309.534 L222.695 309.534 Z" fill="#000000" fill-rule="nonzero" fill-opacity="1" /><path clip-path="url(#clip880)" d="M283.169 212.329 L288.898 212.329 L288.898 266.183 Q300.993 265.419 307.359 258.926 Q313.661 252.37 313.661 240.721 Q313.661 233.973 312.006 227.671 Q310.351 221.305 307.041 215.067 L318.117 215.067 Q320.79 221.369 322.191 227.989 Q323.591 234.609 323.591 241.421 Q323.591 258.481 313.661 268.475 Q303.73 278.405 286.798 278.405 Q269.292 278.405 259.043 268.984 Q248.731 259.499 248.731 243.458 Q248.731 229.071 258.025 220.732 Q267.255 212.329 283.169 212.329 M279.732 224.042 Q270.119 224.17 264.39 229.453 Q258.661 234.673 258.661 243.33 Q258.661 253.134 264.199 259.054 Q269.737 264.91 279.795 265.801 L279.732 224.042 Z" fill="#000000" fill-rule="nonzero" fill-opacity="1" /><polyline clip-path="url(#clip882)" style="stroke:#008000; stroke-linecap:round; stroke-linejoin:round; stroke-width:8; stroke-opacity:1; fill:none" points="726.443,646.786 835.948,696.097 945.454,752.029 1054.96,866.995 1164.46,798 1273.97,855.038 1383.48,981.041 1492.98,932.305 1602.49,1030.02 1711.99,1033.43 1821.5,1112.36 1931,1109.63 2040.51,1125.89 2150.01,1170.47 2259.52,1181.39 "/>
<circle clip-path="url(#clip882)" cx="726.443" cy="646.786" r="14.4" fill="#008000" fill-rule="evenodd" fill-opacity="1" stroke="#000000" stroke-opacity="1" stroke-width="6.4"/>
<circle clip-path="url(#clip882)" cx="835.948" cy="696.097" r="14.4" fill="#008000" fill-rule="evenodd" fill-opacity="1" stroke="#000000" stroke-opacity="1" stroke-width="6.4"/>
<circle clip-path="url(#clip882)" cx="945.454" cy="752.029" r="14.4" fill="#008000" fill-rule="evenodd" fill-opacity="1" stroke="#000000" stroke-opacity="1" stroke-width="6.4"/>
<circle clip-path="url(#clip882)" cx="1054.96" cy="866.995" r="14.4" fill="#008000" fill-rule="evenodd" fill-opacity="1" stroke="#000000" stroke-opacity="1" stroke-width="6.4"/>
<circle clip-path="url(#clip882)" cx="1164.46" cy="798" r="14.4" fill="#008000" fill-rule="evenodd" fill-opacity="1" stroke="#000000" stroke-opacity="1" stroke-width="6.4"/>
<circle clip-path="url(#clip882)" cx="1273.97" cy="855.038" r="14.4" fill="#008000" fill-rule="evenodd" fill-opacity="1" stroke="#000000" stroke-opacity="1" stroke-width="6.4"/>
<circle clip-path="url(#clip882)" cx="1383.48" cy="981.041" r="14.4" fill="#008000" fill-rule="evenodd" fill-opacity="1" stroke="#000000" stroke-opacity="1" stroke-width="6.4"/>
<circle clip-path="url(#clip882)" cx="1492.98" cy="932.305" r="14.4" fill="#008000" fill-rule="evenodd" fill-opacity="1" stroke="#000000" stroke-opacity="1" stroke-width="6.4"/>
<circle clip-path="url(#clip882)" cx="1602.49" cy="1030.02" r="14.4" fill="#008000" fill-rule="evenodd" fill-opacity="1" stroke="#000000" stroke-opacity="1" stroke-width="6.4"/>
<circle clip-path="url(#clip882)" cx="1711.99" cy="1033.43" r="14.4" fill="#008000" fill-rule="evenodd" fill-opacity="1" stroke="#000000" stroke-opacity="1" stroke-width="6.4"/>
<circle clip-path="url(#clip882)" cx="1821.5" cy="1112.36" r="14.4" fill="#008000" fill-rule="evenodd" fill-opacity="1" stroke="#000000" stroke-opacity="1" stroke-width="6.4"/>
<circle clip-path="url(#clip882)" cx="1931" cy="1109.63" r="14.4" fill="#008000" fill-rule="evenodd" fill-opacity="1" stroke="#000000" stroke-opacity="1" stroke-width="6.4"/>
<circle clip-path="url(#clip882)" cx="2040.51" cy="1125.89" r="14.4" fill="#008000" fill-rule="evenodd" fill-opacity="1" stroke="#000000" stroke-opacity="1" stroke-width="6.4"/>
<circle clip-path="url(#clip882)" cx="2150.01" cy="1170.47" r="14.4" fill="#008000" fill-rule="evenodd" fill-opacity="1" stroke="#000000" stroke-opacity="1" stroke-width="6.4"/>
<circle clip-path="url(#clip882)" cx="2259.52" cy="1181.39" r="14.4" fill="#008000" fill-rule="evenodd" fill-opacity="1" stroke="#000000" stroke-opacity="1" stroke-width="6.4"/>
<polyline clip-path="url(#clip882)" style="stroke:#00008b; stroke-linecap:round; stroke-linejoin:round; stroke-width:8; stroke-opacity:1; fill:none" points="726.443,645.185 835.948,404.113 945.454,381.174 1054.96,394.137 1164.46,435.234 1273.97,505.2 1383.48,548.012 1492.98,589.979 1602.49,653.32 1711.99,650.842 1821.5,723.237 1931,760.316 2040.51,828.158 2150.01,880.217 2259.52,882.881 "/>
<path clip-path="url(#clip882)" d="M726.443 803.411 L835.948 573.691 L945.454 622.969 L1054.96 662.268 L1164.46 740.002 L1273.97 794.025 L1383.48 905.22 L1492.98 944.989 L1602.49 1028.81 L1711.99 1023.57 L1821.5 1117.82 L1931 1124.06 L2040.51 1167.31 L2150.01 1240.32 L2259.52 1231.03 L2259.52 601.252 L2150.01 574.123 L2040.51 502.372 L1931 474.826 L1821.5 464.637 L1711.99 354.648 L1602.49 332.797 L1492.98 295.669 L1383.48 248.099 L1273.97 236.434 L1164.46 151.451 L1054.96 157.241 L945.454 127.862 L835.948 206.598 L726.443 478.289  Z" fill="#0000ff" fill-rule="evenodd" fill-opacity="0.1"/>
<polyline clip-path="url(#clip882)" style="stroke:#0000ff; stroke-linecap:round; stroke-linejoin:round; stroke-width:0; stroke-opacity:0.1; fill:none" points="726.443,803.411 835.948,573.691 945.454,622.969 1054.96,662.268 1164.46,740.002 1273.97,794.025 1383.48,905.22 1492.98,944.989 1602.49,1028.81 1711.99,1023.57 1821.5,1117.82 1931,1124.06 2040.51,1167.31 2150.01,1240.32 2259.52,1231.03 "/>
</svg>
