<?xml version="1.0" encoding="utf-8"?>
<svg xmlns="http://www.w3.org/2000/svg" xmlns:xlink="http://www.w3.org/1999/xlink" width="600" height="400" viewBox="0 0 2400 1600">
<defs>
  <clipPath id="clip350">
    <rect x="0" y="0" width="2400" height="1600"/>
  </clipPath>
</defs>
<path clip-path="url(#clip350)" d="M0 1600 L2400 1600 L2400 0 L0 0  Z" fill="#ffffff" fill-rule="evenodd" fill-opacity="1"/>
<defs>
  <clipPath id="clip351">
    <rect x="480" y="0" width="1681" height="1600"/>
  </clipPath>
</defs>
<path clip-path="url(#clip350)" d="M735.651 1082.2 L2305.51 1082.2 L2305.51 94.4882 L735.651 94.4882  Z" fill="#ffffff" fill-rule="evenodd" fill-opacity="1"/>
<defs>
  <clipPath id="clip352">
    <rect x="735" y="94" width="1571" height="989"/>
  </clipPath>
</defs>
<polyline clip-path="url(#clip352)" style="stroke:#000000; stroke-linecap:round; stroke-linejoin:round; stroke-width:4; stroke-opacity:0.1; fill:none" points="780.081,1082.2 780.081,94.4882 "/>
<polyline clip-path="url(#clip352)" style="stroke:#000000; stroke-linecap:round; stroke-linejoin:round; stroke-width:4; stroke-opacity:0.1; fill:none" points="1150.33,1082.2 1150.33,94.4882 "/>
<polyline clip-path="url(#clip352)" style="stroke:#000000; stroke-linecap:round; stroke-linejoin:round; stroke-width:4; stroke-opacity:0.1; fill:none" points="1520.58,1082.2 1520.58,94.4882 "/>
<polyline clip-path="url(#clip352)" style="stroke:#000000; stroke-linecap:round; stroke-linejoin:round; stroke-width:4; stroke-opacity:0.1; fill:none" points="1890.83,1082.2 1890.83,94.4882 "/>
<polyline clip-path="url(#clip352)" style="stroke:#000000; stroke-linecap:round; stroke-linejoin:round; stroke-width:4; stroke-opacity:0.1; fill:none" points="2261.08,1082.2 2261.08,94.4882 "/>
<polyline clip-path="url(#clip350)" style="stroke:#000000; stroke-linecap:round; stroke-linejoin:round; stroke-width:8; stroke-opacity:1; fill:none" points="735.651,1082.2 2305.51,1082.2 "/>
<polyline clip-path="url(#clip350)" style="stroke:#000000; stroke-linecap:round; stroke-linejoin:round; stroke-width:8; stroke-opacity:1; fill:none" points="780.081,1082.2 780.081,1063.3 "/>
<polyline clip-path="url(#clip350)" style="stroke:#000000; stroke-linecap:round; stroke-linejoin:round; stroke-width:8; stroke-opacity:1; fill:none" points="1150.33,1082.2 1150.33,1063.3 "/>
<polyline clip-path="url(#clip350)" style="stroke:#000000; stroke-linecap:round; stroke-linejoin:round; stroke-width:8; stroke-opacity:1; fill:none" points="1520.58,1082.2 1520.58,1063.3 "/>
<polyline clip-path="url(#clip350)" style="stroke:#000000; stroke-linecap:round; stroke-linejoin:round; stroke-width:8; stroke-opacity:1; fill:none" points="1890.83,1082.2 1890.83,1063.3 "/>
<polyline clip-path="url(#clip350)" style="stroke:#000000; stroke-linecap:round; stroke-linejoin:round; stroke-width:8; stroke-opacity:1; fill:none" points="2261.08,1082.2 2261.08,1063.3 "/>
<path clip-path="url(#clip350)" d="M734.85 1124.84 Q727.628 1124.84 723.97 1131.97 Q720.359 1139.05 720.359 1153.31 Q720.359 1167.52 723.97 1174.65 Q727.628 1181.73 734.85 1181.73 Q742.118 1181.73 745.729 1174.65 Q749.387 1167.52 749.387 1153.31 Q749.387 1139.05 745.729 1131.97 Q742.118 1124.84 734.85 1124.84 M734.85 1117.43 Q746.47 1117.43 752.581 1126.64 Q758.739 1135.81 758.739 1153.31 Q758.739 1170.76 752.581 1179.98 Q746.47 1189.14 734.85 1189.14 Q723.23 1189.14 717.072 1179.98 Q710.961 1170.76 710.961 1153.31 Q710.961 1135.81 717.072 1126.64 Q723.23 1117.43 734.85 1117.43 Z" fill="#000000" fill-rule="nonzero" fill-opacity="1" /><path clip-path="url(#clip350)" d="M775.174 1176.04 L784.942 1176.04 L784.942 1187.8 L775.174 1187.8 L775.174 1176.04 Z" fill="#000000" fill-rule="nonzero" fill-opacity="1" /><path clip-path="url(#clip350)" d="M825.312 1124.84 Q818.09 1124.84 814.433 1131.97 Q810.822 1139.05 810.822 1153.31 Q810.822 1167.52 814.433 1174.65 Q818.09 1181.73 825.312 1181.73 Q832.581 1181.73 836.192 1174.65 Q839.849 1167.52 839.849 1153.31 Q839.849 1139.05 836.192 1131.97 Q832.581 1124.84 825.312 1124.84 M825.312 1117.43 Q836.933 1117.43 843.044 1126.64 Q849.201 1135.81 849.201 1153.31 Q849.201 1170.76 843.044 1179.98 Q836.933 1189.14 825.312 1189.14 Q813.692 1189.14 807.535 1179.98 Q801.424 1170.76 801.424 1153.31 Q801.424 1135.81 807.535 1126.64 Q813.692 1117.43 825.312 1117.43 Z" fill="#000000" fill-rule="nonzero" fill-opacity="1" /><path clip-path="url(#clip350)" d="M1106.1 1124.84 Q1098.87 1124.84 1095.22 1131.97 Q1091.6 1139.05 1091.6 1153.31 Q1091.6 1167.52 1095.22 1174.65 Q1098.87 1181.73 1106.1 1181.73 Q1113.36 1181.73 1116.97 1174.65 Q1120.63 1167.52 1120.63 1153.31 Q1120.63 1139.05 1116.97 1131.97 Q1113.36 1124.84 1106.1 1124.84 M1106.1 1117.43 Q1117.72 1117.43 1123.83 1126.64 Q1129.98 1135.81 1129.98 1153.31 Q1129.98 1170.76 1123.83 1179.98 Q1117.72 1189.14 1106.1 1189.14 Q1094.48 1189.14 1088.32 1179.98 Q1082.21 1170.76 1082.21 1153.31 Q1082.21 1135.81 1088.32 1126.64 Q1094.48 1117.43 1106.1 1117.43 Z" fill="#000000" fill-rule="nonzero" fill-opacity="1" /><path clip-path="url(#clip350)" d="M1146.42 1176.04 L1156.19 1176.04 L1156.19 1187.8 L1146.42 1187.8 L1146.42 1176.04 Z" fill="#000000" fill-rule="nonzero" fill-opacity="1" /><path clip-path="url(#clip350)" d="M1176.65 1118.68 L1213.36 1118.68 L1213.36 1126.55 L1185.22 1126.55 L1185.22 1143.49 Q1187.25 1142.8 1189.29 1142.48 Q1191.33 1142.11 1193.36 1142.11 Q1204.94 1142.11 1211.7 1148.45 Q1218.46 1154.79 1218.46 1165.62 Q1218.46 1176.78 1211.51 1182.98 Q1204.57 1189.14 1191.93 1189.14 Q1187.58 1189.14 1183.04 1188.4 Q1178.55 1187.66 1173.73 1186.18 L1173.73 1176.78 Q1177.9 1179.05 1182.34 1180.16 Q1186.79 1181.27 1191.74 1181.27 Q1199.75 1181.27 1204.43 1177.06 Q1209.1 1172.85 1209.1 1165.62 Q1209.1 1158.4 1204.43 1154.19 Q1199.75 1149.98 1191.74 1149.98 Q1187.99 1149.98 1184.24 1150.81 Q1180.54 1151.64 1176.65 1153.4 L1176.65 1118.68 Z" fill="#000000" fill-rule="nonzero" fill-opacity="1" /><path clip-path="url(#clip350)" d="M1454.89 1179.93 L1470.17 1179.93 L1470.17 1127.2 L1453.54 1130.53 L1453.54 1122.01 L1470.07 1118.68 L1479.42 1118.68 L1479.42 1179.93 L1494.7 1179.93 L1494.7 1187.8 L1454.89 1187.8 L1454.89 1179.93 Z" fill="#000000" fill-rule="nonzero" fill-opacity="1" /><path clip-path="url(#clip350)" d="M1513.59 1176.04 L1523.36 1176.04 L1523.36 1187.8 L1513.59 1187.8 L1513.59 1176.04 Z" fill="#000000" fill-rule="nonzero" fill-opacity="1" /><path clip-path="url(#clip350)" d="M1563.73 1124.84 Q1556.51 1124.84 1552.85 1131.97 Q1549.24 1139.05 1549.24 1153.31 Q1549.24 1167.52 1552.85 1174.65 Q1556.51 1181.73 1563.73 1181.73 Q1571 1181.73 1574.61 1174.65 Q1578.27 1167.52 1578.27 1153.31 Q1578.27 1139.05 1574.61 1131.97 Q1571 1124.84 1563.73 1124.84 M1563.73 1117.43 Q1575.35 1117.43 1581.46 1126.64 Q1587.62 1135.81 1587.62 1153.31 Q1587.62 1170.76 1581.46 1179.98 Q1575.35 1189.14 1563.73 1189.14 Q1552.11 1189.14 1545.95 1179.98 Q1539.84 1170.76 1539.84 1153.31 Q1539.84 1135.81 1545.95 1126.64 Q1552.11 1117.43 1563.73 1117.43 Z" fill="#000000" fill-rule="nonzero" fill-opacity="1" /><path clip-path="url(#clip350)" d="M1826.13 1179.93 L1841.41 1179.93 L1841.41 1127.2 L1824.79 1130.53 L1824.79 1122.01 L1841.32 1118.68 L1850.67 1118.68 L1850.67 1179.93 L1865.95 1179.93 L1865.95 1187.8 L1826.13 1187.8 L1826.13 1179.93 Z" fill="#000000" fill-rule="nonzero" fill-opacity="1" /><path clip-path="url(#clip350)" d="M1884.84 1176.04 L1894.6 1176.04 L1894.6 1187.8 L1884.84 1187.8 L1884.84 1176.04 Z" fill="#000000" fill-rule="nonzero" fill-opacity="1" /><path clip-path="url(#clip350)" d="M1915.07 1118.68 L1951.78 1118.68 L1951.78 1126.55 L1923.63 1126.55 L1923.63 1143.49 Q1925.67 1142.8 1927.71 1142.48 Q1929.74 1142.11 1931.78 1142.11 Q1943.35 1142.11 1950.11 1148.45 Q1956.87 1154.79 1956.87 1165.62 Q1956.87 1176.78 1949.93 1182.98 Q1942.98 1189.14 1930.35 1189.14 Q1925.99 1189.14 1921.46 1188.4 Q1916.97 1187.66 1912.15 1186.18 L1912.15 1176.78 Q1916.32 1179.05 1920.76 1180.16 Q1925.21 1181.27 1930.16 1181.27 Q1938.17 1181.27 1942.85 1177.06 Q1947.52 1172.85 1947.52 1165.62 Q1947.52 1158.4 1942.85 1154.19 Q1938.17 1149.98 1930.16 1149.98 Q1926.41 1149.98 1922.66 1150.81 Q1918.96 1151.64 1915.07 1153.4 L1915.07 1118.68 Z" fill="#000000" fill-rule="nonzero" fill-opacity="1" /><path clip-path="url(#clip350)" d="M2203.56 1179.93 L2236.2 1179.93 L2236.2 1187.8 L2192.31 1187.8 L2192.31 1179.93 Q2197.63 1174.42 2206.8 1165.16 Q2216.01 1155.86 2218.37 1153.17 Q2222.86 1148.12 2224.62 1144.65 Q2226.43 1141.13 2226.43 1137.75 Q2226.43 1132.24 2222.54 1128.77 Q2218.7 1125.3 2212.49 1125.3 Q2208.1 1125.3 2203.19 1126.83 Q2198.33 1128.36 2192.77 1131.46 L2192.77 1122.01 Q2198.42 1119.74 2203.33 1118.59 Q2208.23 1117.43 2212.31 1117.43 Q2223.05 1117.43 2229.44 1122.8 Q2235.83 1128.17 2235.83 1137.15 Q2235.83 1141.41 2234.21 1145.25 Q2232.63 1149.05 2228.42 1154.24 Q2227.26 1155.58 2221.06 1162.01 Q2214.86 1168.4 2203.56 1179.93 Z" fill="#000000" fill-rule="nonzero" fill-opacity="1" /><path clip-path="url(#clip350)" d="M2255.83 1176.04 L2265.6 1176.04 L2265.6 1187.8 L2255.83 1187.8 L2255.83 1176.04 Z" fill="#000000" fill-rule="nonzero" fill-opacity="1" /><path clip-path="url(#clip350)" d="M2305.97 1124.84 Q2298.74 1124.84 2295.09 1131.97 Q2291.48 1139.05 2291.48 1153.31 Q2291.48 1167.52 2295.09 1174.65 Q2298.74 1181.73 2305.97 1181.73 Q2313.23 1181.73 2316.85 1174.65 Q2320.5 1167.52 2320.5 1153.31 Q2320.5 1139.05 2316.85 1131.97 Q2313.23 1124.84 2305.97 1124.84 M2305.97 1117.43 Q2317.59 1117.43 2323.7 1126.64 Q2329.85 1135.81 2329.85 1153.31 Q2329.85 1170.76 2323.7 1179.98 Q2317.59 1189.14 2305.97 1189.14 Q2294.35 1189.14 2288.19 1179.98 Q2282.08 1170.76 2282.08 1153.31 Q2282.08 1135.81 2288.19 1126.64 Q2294.35 1117.43 2305.97 1117.43 Z" fill="#000000" fill-rule="nonzero" fill-opacity="1" /><path clip-path="url(#clip350)" d="M1461 1278.32 Q1465.39 1270.42 1471.5 1266.67 Q1477.61 1262.91 1485.89 1262.91 Q1497.03 1262.91 1503.08 1270.74 Q1509.12 1278.51 1509.12 1292.9 L1509.12 1335.93 L1497.35 1335.93 L1497.35 1293.28 Q1497.35 1283.03 1493.72 1278.06 Q1490.09 1273.1 1482.64 1273.1 Q1473.54 1273.1 1468.26 1279.15 Q1462.97 1285.19 1462.97 1295.63 L1462.97 1335.93 L1451.2 1335.93 L1451.2 1293.28 Q1451.2 1282.97 1447.57 1278.06 Q1443.94 1273.1 1436.36 1273.1 Q1427.39 1273.1 1422.1 1279.21 Q1416.82 1285.26 1416.82 1295.63 L1416.82 1335.93 L1405.04 1335.93 L1405.04 1264.63 L1416.82 1264.63 L1416.82 1275.71 Q1420.83 1269.15 1426.43 1266.03 Q1432.03 1262.91 1439.74 1262.91 Q1447.5 1262.91 1452.91 1266.86 Q1458.39 1270.81 1461 1278.32 Z" fill="#000000" fill-rule="nonzero" fill-opacity="1" /><path clip-path="url(#clip350)" d="M1587.99 1278.32 Q1592.39 1270.42 1598.5 1266.67 Q1604.61 1262.91 1612.88 1262.91 Q1624.02 1262.91 1630.07 1270.74 Q1636.12 1278.51 1636.12 1292.9 L1636.12 1335.93 L1624.34 1335.93 L1624.34 1293.28 Q1624.34 1283.03 1620.71 1278.06 Q1617.09 1273.1 1609.64 1273.1 Q1600.53 1273.1 1595.25 1279.15 Q1589.97 1285.19 1589.97 1295.63 L1589.97 1335.93 L1578.19 1335.93 L1578.19 1293.28 Q1578.19 1282.97 1574.56 1278.06 Q1570.93 1273.1 1563.36 1273.1 Q1554.38 1273.1 1549.1 1279.21 Q1543.82 1285.26 1543.82 1295.63 L1543.82 1335.93 L1532.04 1335.93 L1532.04 1264.63 L1543.82 1264.63 L1543.82 1275.71 Q1547.83 1269.15 1553.43 1266.03 Q1559.03 1262.91 1566.73 1262.91 Q1574.5 1262.91 1579.91 1266.86 Q1585.38 1270.81 1587.99 1278.32 Z" fill="#000000" fill-rule="nonzero" fill-opacity="1" /><polyline clip-path="url(#clip352)" style="stroke:#000000; stroke-linecap:round; stroke-linejoin:round; stroke-width:4; stroke-opacity:0.1; fill:none" points="735.651,1003.78 2305.51,1003.78 "/>
<polyline clip-path="url(#clip352)" style="stroke:#000000; stroke-linecap:round; stroke-linejoin:round; stroke-width:4; stroke-opacity:0.1; fill:none" points="735.651,753.833 2305.51,753.833 "/>
<polyline clip-path="url(#clip352)" style="stroke:#000000; stroke-linecap:round; stroke-linejoin:round; stroke-width:4; stroke-opacity:0.1; fill:none" points="735.651,503.889 2305.51,503.889 "/>
<polyline clip-path="url(#clip352)" style="stroke:#000000; stroke-linecap:round; stroke-linejoin:round; stroke-width:4; stroke-opacity:0.1; fill:none" points="735.651,253.945 2305.51,253.945 "/>
<polyline clip-path="url(#clip350)" style="stroke:#000000; stroke-linecap:round; stroke-linejoin:round; stroke-width:8; stroke-opacity:1; fill:none" points="735.651,1082.2 735.651,94.4882 "/>
<polyline clip-path="url(#clip350)" style="stroke:#000000; stroke-linecap:round; stroke-linejoin:round; stroke-width:8; stroke-opacity:1; fill:none" points="735.651,1003.78 754.549,1003.78 "/>
<polyline clip-path="url(#clip350)" style="stroke:#000000; stroke-linecap:round; stroke-linejoin:round; stroke-width:8; stroke-opacity:1; fill:none" points="735.651,753.833 754.549,753.833 "/>
<polyline clip-path="url(#clip350)" style="stroke:#000000; stroke-linecap:round; stroke-linejoin:round; stroke-width:8; stroke-opacity:1; fill:none" points="735.651,503.889 754.549,503.889 "/>
<polyline clip-path="url(#clip350)" style="stroke:#000000; stroke-linecap:round; stroke-linejoin:round; stroke-width:8; stroke-opacity:1; fill:none" points="735.651,253.945 754.549,253.945 "/>
<path clip-path="url(#clip350)" d="M536.735 1030.47 L552.013 1030.47 L552.013 977.736 L535.393 981.069 L535.393 972.551 L551.92 969.217 L561.272 969.217 L561.272 1030.47 L576.55 1030.47 L576.55 1038.34 L536.735 1038.34 L536.735 1030.47 Z" fill="#000000" fill-rule="nonzero" fill-opacity="1" /><path clip-path="url(#clip350)" d="M615.439 975.375 Q608.216 975.375 604.559 982.504 Q600.948 989.588 600.948 1003.85 Q600.948 1018.06 604.559 1025.19 Q608.216 1032.27 615.439 1032.27 Q622.707 1032.27 626.318 1025.19 Q629.976 1018.06 629.976 1003.85 Q629.976 989.588 626.318 982.504 Q622.707 975.375 615.439 975.375 M615.439 967.967 Q627.059 967.967 633.17 977.18 Q639.327 986.347 639.327 1003.85 Q639.327 1021.3 633.17 1030.51 Q627.059 1039.68 615.439 1039.68 Q603.818 1039.68 597.661 1030.51 Q591.55 1021.3 591.55 1003.85 Q591.55 986.347 597.661 977.18 Q603.818 967.967 615.439 967.967 Z" fill="#000000" fill-rule="nonzero" fill-opacity="1" /><path clip-path="url(#clip350)" d="M675.762 975.375 Q668.54 975.375 664.883 982.504 Q661.272 989.588 661.272 1003.85 Q661.272 1018.06 664.883 1025.19 Q668.54 1032.27 675.762 1032.27 Q683.031 1032.27 686.642 1025.19 Q690.299 1018.06 690.299 1003.85 Q690.299 989.588 686.642 982.504 Q683.031 975.375 675.762 975.375 M675.762 967.967 Q687.383 967.967 693.494 977.18 Q699.651 986.347 699.651 1003.85 Q699.651 1021.3 693.494 1030.51 Q687.383 1039.68 675.762 1039.68 Q664.142 1039.68 657.985 1030.51 Q651.874 1021.3 651.874 1003.85 Q651.874 986.347 657.985 977.18 Q664.142 967.967 675.762 967.967 Z" fill="#000000" fill-rule="nonzero" fill-opacity="1" /><path clip-path="url(#clip350)" d="M543.17 780.523 L575.809 780.523 L575.809 788.393 L531.921 788.393 L531.921 780.523 Q537.245 775.014 546.411 765.754 Q555.624 756.449 557.985 753.764 Q562.476 748.718 564.235 745.245 Q566.041 741.727 566.041 738.347 Q566.041 732.838 562.152 729.366 Q558.309 725.894 552.106 725.894 Q547.707 725.894 542.8 727.421 Q537.939 728.949 532.383 732.051 L532.383 722.607 Q538.032 720.338 542.939 719.181 Q547.846 718.023 551.92 718.023 Q562.661 718.023 569.05 723.394 Q575.439 728.764 575.439 737.745 Q575.439 742.005 573.818 745.847 Q572.244 749.643 568.031 754.829 Q566.874 756.171 560.67 762.606 Q554.467 768.995 543.17 780.523 Z" fill="#000000" fill-rule="nonzero" fill-opacity="1" /><path clip-path="url(#clip350)" d="M615.439 725.431 Q608.216 725.431 604.559 732.56 Q600.948 739.643 600.948 753.903 Q600.948 768.116 604.559 775.245 Q608.216 782.328 615.439 782.328 Q622.707 782.328 626.318 775.245 Q629.976 768.116 629.976 753.903 Q629.976 739.643 626.318 732.56 Q622.707 725.431 615.439 725.431 M615.439 718.023 Q627.059 718.023 633.17 727.236 Q639.327 736.403 639.327 753.903 Q639.327 771.356 633.17 780.569 Q627.059 789.736 615.439 789.736 Q603.818 789.736 597.661 780.569 Q591.55 771.356 591.55 753.903 Q591.55 736.403 597.661 727.236 Q603.818 718.023 615.439 718.023 Z" fill="#000000" fill-rule="nonzero" fill-opacity="1" /><path clip-path="url(#clip350)" d="M675.762 725.431 Q668.54 725.431 664.883 732.56 Q661.272 739.643 661.272 753.903 Q661.272 768.116 664.883 775.245 Q668.54 782.328 675.762 782.328 Q683.031 782.328 686.642 775.245 Q690.299 768.116 690.299 753.903 Q690.299 739.643 686.642 732.56 Q683.031 725.431 675.762 725.431 M675.762 718.023 Q687.383 718.023 693.494 727.236 Q699.651 736.403 699.651 753.903 Q699.651 771.356 693.494 780.569 Q687.383 789.736 675.762 789.736 Q664.142 789.736 657.985 780.569 Q651.874 771.356 651.874 753.903 Q651.874 736.403 657.985 727.236 Q664.142 718.023 675.762 718.023 Z" fill="#000000" fill-rule="nonzero" fill-opacity="1" /><path clip-path="url(#clip350)" d="M563.448 501.181 Q570.161 502.616 573.911 507.153 Q577.707 511.69 577.707 518.357 Q577.707 528.588 570.67 534.19 Q563.633 539.792 550.67 539.792 Q546.319 539.792 541.689 538.912 Q537.106 538.079 532.198 536.366 L532.198 527.338 Q536.087 529.607 540.717 530.764 Q545.346 531.921 550.393 531.921 Q559.189 531.921 563.772 528.449 Q568.402 524.977 568.402 518.357 Q568.402 512.246 564.096 508.82 Q559.837 505.347 552.198 505.347 L544.143 505.347 L544.143 497.662 L552.569 497.662 Q559.467 497.662 563.124 494.931 Q566.781 492.153 566.781 486.968 Q566.781 481.644 562.985 478.82 Q559.235 475.949 552.198 475.949 Q548.356 475.949 543.957 476.783 Q539.559 477.616 534.282 479.375 L534.282 471.042 Q539.606 469.561 544.235 468.82 Q548.911 468.079 553.032 468.079 Q563.68 468.079 569.883 472.94 Q576.087 477.755 576.087 485.996 Q576.087 491.736 572.8 495.718 Q569.513 499.653 563.448 501.181 Z" fill="#000000" fill-rule="nonzero" fill-opacity="1" /><path clip-path="url(#clip350)" d="M615.439 475.486 Q608.216 475.486 604.559 482.616 Q600.948 489.699 600.948 503.959 Q600.948 518.171 604.559 525.301 Q608.216 532.384 615.439 532.384 Q622.707 532.384 626.318 525.301 Q629.976 518.171 629.976 503.959 Q629.976 489.699 626.318 482.616 Q622.707 475.486 615.439 475.486 M615.439 468.079 Q627.059 468.079 633.17 477.292 Q639.327 486.459 639.327 503.959 Q639.327 521.412 633.17 530.625 Q627.059 539.792 615.439 539.792 Q603.818 539.792 597.661 530.625 Q591.55 521.412 591.55 503.959 Q591.55 486.459 597.661 477.292 Q603.818 468.079 615.439 468.079 Z" fill="#000000" fill-rule="nonzero" fill-opacity="1" /><path clip-path="url(#clip350)" d="M675.762 475.486 Q668.54 475.486 664.883 482.616 Q661.272 489.699 661.272 503.959 Q661.272 518.171 664.883 525.301 Q668.54 532.384 675.762 532.384 Q683.031 532.384 686.642 525.301 Q690.299 518.171 690.299 503.959 Q690.299 489.699 686.642 482.616 Q683.031 475.486 675.762 475.486 M675.762 468.079 Q687.383 468.079 693.494 477.292 Q699.651 486.459 699.651 503.959 Q699.651 521.412 693.494 530.625 Q687.383 539.792 675.762 539.792 Q664.142 539.792 657.985 530.625 Q651.874 521.412 651.874 503.959 Q651.874 486.459 657.985 477.292 Q664.142 468.079 675.762 468.079 Z" fill="#000000" fill-rule="nonzero" fill-opacity="1" /><path clip-path="url(#clip350)" d="M560.809 227.533 L537.198 264.431 L560.809 264.431 L560.809 227.533 M558.356 219.385 L570.115 219.385 L570.115 264.431 L579.976 264.431 L579.976 272.209 L570.115 272.209 L570.115 288.505 L560.809 288.505 L560.809 272.209 L529.606 272.209 L529.606 263.181 L558.356 219.385 Z" fill="#000000" fill-rule="nonzero" fill-opacity="1" /><path clip-path="url(#clip350)" d="M615.439 225.542 Q608.216 225.542 604.559 232.672 Q600.948 239.755 600.948 254.014 Q600.948 268.227 604.559 275.357 Q608.216 282.44 615.439 282.44 Q622.707 282.44 626.318 275.357 Q629.976 268.227 629.976 254.014 Q629.976 239.755 626.318 232.672 Q622.707 225.542 615.439 225.542 M615.439 218.135 Q627.059 218.135 633.17 227.348 Q639.327 236.514 639.327 254.014 Q639.327 271.468 633.17 280.681 Q627.059 289.848 615.439 289.848 Q603.818 289.848 597.661 280.681 Q591.55 271.468 591.55 254.014 Q591.55 236.514 597.661 227.348 Q603.818 218.135 615.439 218.135 Z" fill="#000000" fill-rule="nonzero" fill-opacity="1" /><path clip-path="url(#clip350)" d="M675.762 225.542 Q668.54 225.542 664.883 232.672 Q661.272 239.755 661.272 254.014 Q661.272 268.227 664.883 275.357 Q668.54 282.44 675.762 282.44 Q683.031 282.44 686.642 275.357 Q690.299 268.227 690.299 254.014 Q690.299 239.755 686.642 232.672 Q683.031 225.542 675.762 225.542 M675.762 218.135 Q687.383 218.135 693.494 227.348 Q699.651 236.514 699.651 254.014 Q699.651 271.468 693.494 280.681 Q687.383 289.848 675.762 289.848 Q664.142 289.848 657.985 280.681 Q651.874 271.468 651.874 254.014 Q651.874 236.514 657.985 227.348 Q664.142 218.135 675.762 218.135 Z" fill="#000000" fill-rule="nonzero" fill-opacity="1" /><path clip-path="url(#clip350)" d="M492.212 806.497 L393.798 806.497 L393.798 794.784 L438.103 794.784 Q447.333 794.784 452.044 790.391 Q456.755 785.999 456.755 777.405 Q456.755 767.984 451.407 763.274 Q446.06 758.499 435.366 758.499 L393.798 758.499 L393.798 746.786 L448.67 746.786 Q452.49 746.786 454.336 745.704 Q456.118 744.558 456.118 742.203 Q456.118 741.63 455.8 740.612 Q455.418 739.593 454.654 737.811 L464.075 737.811 Q465.539 740.421 466.24 742.776 Q466.94 745.068 466.94 747.296 Q466.94 751.688 464.457 754.298 Q461.975 756.908 456.882 757.863 Q461.911 761.046 464.457 765.693 Q466.94 770.276 466.94 776.514 Q466.94 783.007 464.457 787.591 Q461.975 792.11 457.009 794.784 L492.212 794.784 L492.212 806.497 Z" fill="#000000" fill-rule="nonzero" fill-opacity="1" /><path clip-path="url(#clip350)" d="M428.618 675.427 Q415.887 675.427 408.885 680.71 Q401.882 685.93 401.882 695.415 Q401.882 704.836 408.885 710.12 Q415.887 715.34 428.618 715.34 Q441.286 715.34 448.288 710.12 Q455.291 704.836 455.291 695.415 Q455.291 685.93 448.288 680.71 Q441.286 675.427 428.618 675.427 M456.245 663.714 Q474.451 663.714 483.3 671.798 Q492.212 679.883 492.212 696.561 Q492.212 702.736 491.257 708.21 Q490.366 713.685 488.456 718.841 L477.061 718.841 Q479.862 713.685 481.199 708.656 Q482.536 703.627 482.536 698.407 Q482.536 686.885 476.488 681.156 Q470.505 675.427 458.346 675.427 L452.553 675.427 Q458.855 679.055 461.975 684.721 Q465.094 690.386 465.094 698.28 Q465.094 711.393 455.1 719.414 Q445.105 727.435 428.618 727.435 Q412.067 727.435 402.073 719.414 Q392.079 711.393 392.079 698.28 Q392.079 690.386 395.198 684.721 Q398.317 679.055 404.619 675.427 L393.798 675.427 L393.798 663.714 L456.245 663.714 Z" fill="#000000" fill-rule="nonzero" fill-opacity="1" /><path clip-path="url(#clip350)" d="M370.054 577.331 L370.054 566.51 L477.189 599.611 L477.189 610.433 L370.054 577.331 Z" fill="#000000" fill-rule="nonzero" fill-opacity="1" /><path clip-path="url(#clip350)" d="M492.212 513.992 L393.798 513.992 L393.798 502.28 L438.103 502.28 Q447.333 502.28 452.044 497.887 Q456.755 493.495 456.755 484.901 Q456.755 475.48 451.407 470.769 Q446.06 465.995 435.366 465.995 L393.798 465.995 L393.798 454.282 L448.67 454.282 Q452.49 454.282 454.336 453.2 Q456.118 452.054 456.118 449.699 Q456.118 449.126 455.8 448.107 Q455.418 447.089 454.654 445.307 L464.075 445.307 Q465.539 447.916 466.24 450.272 Q466.94 452.563 466.94 454.791 Q466.94 459.184 464.457 461.794 Q461.975 464.404 456.882 465.358 Q461.911 468.541 464.457 473.188 Q466.94 477.772 466.94 484.01 Q466.94 490.503 464.457 495.086 Q461.975 499.606 457.009 502.28 L492.212 502.28 L492.212 513.992 Z" fill="#000000" fill-rule="nonzero" fill-opacity="1" /><path clip-path="url(#clip350)" d="M370.054 429.329 L370.054 416.47 L454.272 416.47 L454.272 370.191 L465.094 370.191 L465.094 429.329 L370.054 429.329 Z" fill="#000000" fill-rule="nonzero" fill-opacity="1" /><polyline clip-path="url(#clip352)" style="stroke:#009af9; stroke-linecap:round; stroke-linejoin:round; stroke-width:8; stroke-opacity:1; fill:none" points="878.814,343.169 977.548,247.034 1076.28,183.761 1175.01,153.025 1273.75,122.635 1372.48,161.124 1471.21,199.613 1569.95,227.547 1668.68,244.927 1767.41,262.528 1866.15,368.749 1964.88,474.97 2063.62,569.562 2162.35,652.755 2261.08,735.949 "/>
<polyline clip-path="url(#clip352)" style="stroke:#008000; stroke-linecap:round; stroke-linejoin:round; stroke-width:8; stroke-opacity:1; fill:none" points="780.081,439.304 1026.67,199.206 1273.25,122.442 1520.58,218.858 1767.17,262.263 2013.75,527.549 2261.08,735.949 "/>
<circle clip-path="url(#clip352)" cx="780.081" cy="439.304" r="28.8" fill="#008000" fill-rule="evenodd" fill-opacity="1" stroke="#000000" stroke-opacity="1" stroke-width="6.4"/>
<circle clip-path="url(#clip352)" cx="1026.67" cy="199.206" r="28.8" fill="#008000" fill-rule="evenodd" fill-opacity="1" stroke="#000000" stroke-opacity="1" stroke-width="6.4"/>
<circle clip-path="url(#clip352)" cx="1273.25" cy="122.442" r="28.8" fill="#008000" fill-rule="evenodd" fill-opacity="1" stroke="#000000" stroke-opacity="1" stroke-width="6.4"/>
<circle clip-path="url(#clip352)" cx="1520.58" cy="218.858" r="28.8" fill="#008000" fill-rule="evenodd" fill-opacity="1" stroke="#000000" stroke-opacity="1" stroke-width="6.4"/>
<circle clip-path="url(#clip352)" cx="1767.17" cy="262.263" r="28.8" fill="#008000" fill-rule="evenodd" fill-opacity="1" stroke="#000000" stroke-opacity="1" stroke-width="6.4"/>
<circle clip-path="url(#clip352)" cx="2013.75" cy="527.549" r="28.8" fill="#008000" fill-rule="evenodd" fill-opacity="1" stroke="#000000" stroke-opacity="1" stroke-width="6.4"/>
<circle clip-path="url(#clip352)" cx="2261.08" cy="735.949" r="28.8" fill="#008000" fill-rule="evenodd" fill-opacity="1" stroke="#000000" stroke-opacity="1" stroke-width="6.4"/>
<circle clip-path="url(#clip352)" cx="878.814" cy="394.46" r="28.8" fill="#008000" fill-rule="evenodd" fill-opacity="1" stroke="#000000" stroke-opacity="1" stroke-width="6.4"/>
<circle clip-path="url(#clip352)" cx="2261.08" cy="1054.25" r="28.8" fill="#008000" fill-rule="evenodd" fill-opacity="1" stroke="#000000" stroke-opacity="1" stroke-width="6.4"/>
<line clip-path="url(#clip352)" x1="878.814" y1="394.46" x2="878.814" y2="362.46" style="stroke:#0000ff; stroke-width:6.4; stroke-opacity:1"/>
<line clip-path="url(#clip352)" x1="878.814" y1="394.46" x2="846.814" y2="394.46" style="stroke:#0000ff; stroke-width:6.4; stroke-opacity:1"/>
<line clip-path="url(#clip352)" x1="878.814" y1="394.46" x2="878.814" y2="426.46" style="stroke:#0000ff; stroke-width:6.4; stroke-opacity:1"/>
<line clip-path="url(#clip352)" x1="878.814" y1="394.46" x2="910.814" y2="394.46" style="stroke:#0000ff; stroke-width:6.4; stroke-opacity:1"/>
<line clip-path="url(#clip352)" x1="2261.08" y1="1054.25" x2="2261.08" y2="1022.25" style="stroke:#0000ff; stroke-width:6.4; stroke-opacity:1"/>
<line clip-path="url(#clip352)" x1="2261.08" y1="1054.25" x2="2229.08" y2="1054.25" style="stroke:#0000ff; stroke-width:6.4; stroke-opacity:1"/>
<line clip-path="url(#clip352)" x1="2261.08" y1="1054.25" x2="2261.08" y2="1086.25" style="stroke:#0000ff; stroke-width:6.4; stroke-opacity:1"/>
<line clip-path="url(#clip352)" x1="2261.08" y1="1054.25" x2="2293.08" y2="1054.25" style="stroke:#0000ff; stroke-width:6.4; stroke-opacity:1"/>
</svg>
