<?xml version="1.0" encoding="utf-8"?>
<svg xmlns="http://www.w3.org/2000/svg" xmlns:xlink="http://www.w3.org/1999/xlink" width="600" height="400" viewBox="0 0 2400 1600">
<defs>
  <clipPath id="clip830">
    <rect x="0" y="0" width="2400" height="1600"/>
  </clipPath>
</defs>
<path clip-path="url(#clip830)" d="M0 1600 L2400 1600 L2400 0 L0 0  Z" fill="#ffffff" fill-rule="evenodd" fill-opacity="1"/>
<defs>
  <clipPath id="clip831">
    <rect x="480" y="0" width="1681" height="1600"/>
  </clipPath>
</defs>
<path clip-path="url(#clip830)" d="M680.45 1273.7 L2305.51 1273.7 L2305.51 94.4882 L680.45 94.4882  Z" fill="#ffffff" fill-rule="evenodd" fill-opacity="1"/>
<defs>
  <clipPath id="clip832">
    <rect x="680" y="94" width="1626" height="1180"/>
  </clipPath>
</defs>
<polyline clip-path="url(#clip832)" style="stroke:#000000; stroke-linecap:round; stroke-linejoin:round; stroke-width:4; stroke-opacity:0.1; fill:none" points="726.443,1273.7 726.443,94.4882 "/>
<polyline clip-path="url(#clip832)" style="stroke:#000000; stroke-linecap:round; stroke-linejoin:round; stroke-width:4; stroke-opacity:0.1; fill:none" points="962.301,1273.7 962.301,94.4882 "/>
<polyline clip-path="url(#clip832)" style="stroke:#000000; stroke-linecap:round; stroke-linejoin:round; stroke-width:4; stroke-opacity:0.1; fill:none" points="1198.16,1273.7 1198.16,94.4882 "/>
<polyline clip-path="url(#clip832)" style="stroke:#000000; stroke-linecap:round; stroke-linejoin:round; stroke-width:4; stroke-opacity:0.1; fill:none" points="1434.02,1273.7 1434.02,94.4882 "/>
<polyline clip-path="url(#clip832)" style="stroke:#000000; stroke-linecap:round; stroke-linejoin:round; stroke-width:4; stroke-opacity:0.1; fill:none" points="1669.87,1273.7 1669.87,94.4882 "/>
<polyline clip-path="url(#clip832)" style="stroke:#000000; stroke-linecap:round; stroke-linejoin:round; stroke-width:4; stroke-opacity:0.1; fill:none" points="1905.73,1273.7 1905.73,94.4882 "/>
<polyline clip-path="url(#clip832)" style="stroke:#000000; stroke-linecap:round; stroke-linejoin:round; stroke-width:4; stroke-opacity:0.1; fill:none" points="2141.59,1273.7 2141.59,94.4882 "/>
<polyline clip-path="url(#clip830)" style="stroke:#000000; stroke-linecap:round; stroke-linejoin:round; stroke-width:8; stroke-opacity:1; fill:none" points="680.45,1273.7 2305.51,1273.7 "/>
<polyline clip-path="url(#clip830)" style="stroke:#000000; stroke-linecap:round; stroke-linejoin:round; stroke-width:8; stroke-opacity:1; fill:none" points="726.443,1273.7 726.443,1254.8 "/>
<polyline clip-path="url(#clip830)" style="stroke:#000000; stroke-linecap:round; stroke-linejoin:round; stroke-width:8; stroke-opacity:1; fill:none" points="962.301,1273.7 962.301,1254.8 "/>
<polyline clip-path="url(#clip830)" style="stroke:#000000; stroke-linecap:round; stroke-linejoin:round; stroke-width:8; stroke-opacity:1; fill:none" points="1198.16,1273.7 1198.16,1254.8 "/>
<polyline clip-path="url(#clip830)" style="stroke:#000000; stroke-linecap:round; stroke-linejoin:round; stroke-width:8; stroke-opacity:1; fill:none" points="1434.02,1273.7 1434.02,1254.8 "/>
<polyline clip-path="url(#clip830)" style="stroke:#000000; stroke-linecap:round; stroke-linejoin:round; stroke-width:8; stroke-opacity:1; fill:none" points="1669.87,1273.7 1669.87,1254.8 "/>
<polyline clip-path="url(#clip830)" style="stroke:#000000; stroke-linecap:round; stroke-linejoin:round; stroke-width:8; stroke-opacity:1; fill:none" points="1905.73,1273.7 1905.73,1254.8 "/>
<polyline clip-path="url(#clip830)" style="stroke:#000000; stroke-linecap:round; stroke-linejoin:round; stroke-width:8; stroke-opacity:1; fill:none" points="2141.59,1273.7 2141.59,1254.8 "/>
<path clip-path="url(#clip830)" d="M681.211 1316.33 Q673.989 1316.33 670.332 1323.46 Q666.721 1330.55 666.721 1344.81 Q666.721 1359.02 670.332 1366.15 Q673.989 1373.23 681.211 1373.23 Q688.48 1373.23 692.091 1366.15 Q695.748 1359.02 695.748 1344.81 Q695.748 1330.55 692.091 1323.46 Q688.48 1316.33 681.211 1316.33 M681.211 1308.93 Q692.832 1308.93 698.943 1318.14 Q705.1 1327.31 705.1 1344.81 Q705.1 1362.26 698.943 1371.47 Q692.832 1380.64 681.211 1380.64 Q669.591 1380.64 663.434 1371.47 Q657.323 1362.26 657.323 1344.81 Q657.323 1327.31 663.434 1318.14 Q669.591 1308.93 681.211 1308.93 Z" fill="#000000" fill-rule="nonzero" fill-opacity="1" /><path clip-path="url(#clip830)" d="M721.535 1367.54 L731.304 1367.54 L731.304 1379.3 L721.535 1379.3 L721.535 1367.54 Z" fill="#000000" fill-rule="nonzero" fill-opacity="1" /><path clip-path="url(#clip830)" d="M771.674 1316.33 Q764.452 1316.33 760.794 1323.46 Q757.183 1330.55 757.183 1344.81 Q757.183 1359.02 760.794 1366.15 Q764.452 1373.23 771.674 1373.23 Q778.942 1373.23 782.553 1366.15 Q786.211 1359.02 786.211 1344.81 Q786.211 1330.55 782.553 1323.46 Q778.942 1316.33 771.674 1316.33 M771.674 1308.93 Q783.294 1308.93 789.405 1318.14 Q795.563 1327.31 795.563 1344.81 Q795.563 1362.26 789.405 1371.47 Q783.294 1380.64 771.674 1380.64 Q760.054 1380.64 753.896 1371.47 Q747.785 1362.26 747.785 1344.81 Q747.785 1327.31 753.896 1318.14 Q760.054 1308.93 771.674 1308.93 Z" fill="#000000" fill-rule="nonzero" fill-opacity="1" /><path clip-path="url(#clip830)" d="M918.667 1316.33 Q911.444 1316.33 907.787 1323.46 Q904.176 1330.55 904.176 1344.81 Q904.176 1359.02 907.787 1366.15 Q911.444 1373.23 918.667 1373.23 Q925.935 1373.23 929.546 1366.15 Q933.204 1359.02 933.204 1344.81 Q933.204 1330.55 929.546 1323.46 Q925.935 1316.33 918.667 1316.33 M918.667 1308.93 Q930.287 1308.93 936.398 1318.14 Q942.555 1327.31 942.555 1344.81 Q942.555 1362.26 936.398 1371.47 Q930.287 1380.64 918.667 1380.64 Q907.046 1380.64 900.889 1371.47 Q894.778 1362.26 894.778 1344.81 Q894.778 1327.31 900.889 1318.14 Q907.046 1308.93 918.667 1308.93 Z" fill="#000000" fill-rule="nonzero" fill-opacity="1" /><path clip-path="url(#clip830)" d="M958.99 1367.54 L968.759 1367.54 L968.759 1379.3 L958.99 1379.3 L958.99 1367.54 Z" fill="#000000" fill-rule="nonzero" fill-opacity="1" /><path clip-path="url(#clip830)" d="M997.185 1371.43 L1029.82 1371.43 L1029.82 1379.3 L985.935 1379.3 L985.935 1371.43 Q991.259 1365.92 1000.43 1356.66 Q1009.64 1347.35 1012 1344.67 Q1016.49 1339.62 1018.25 1336.15 Q1020.05 1332.63 1020.05 1329.25 Q1020.05 1323.74 1016.17 1320.27 Q1012.32 1316.8 1006.12 1316.8 Q1001.72 1316.8 996.814 1318.32 Q991.953 1319.85 986.398 1322.95 L986.398 1313.51 Q992.046 1311.24 996.953 1310.08 Q1001.86 1308.93 1005.93 1308.93 Q1016.68 1308.93 1023.06 1314.3 Q1029.45 1319.67 1029.45 1328.65 Q1029.45 1332.91 1027.83 1336.75 Q1026.26 1340.55 1022.05 1345.73 Q1020.89 1347.07 1014.68 1353.51 Q1008.48 1359.9 997.185 1371.43 Z" fill="#000000" fill-rule="nonzero" fill-opacity="1" /><path clip-path="url(#clip830)" d="M1152.44 1316.33 Q1145.22 1316.33 1141.56 1323.46 Q1137.95 1330.55 1137.95 1344.81 Q1137.95 1359.02 1141.56 1366.15 Q1145.22 1373.23 1152.44 1373.23 Q1159.71 1373.23 1163.32 1366.15 Q1166.98 1359.02 1166.98 1344.81 Q1166.98 1330.55 1163.32 1323.46 Q1159.71 1316.33 1152.44 1316.33 M1152.44 1308.93 Q1164.06 1308.93 1170.17 1318.14 Q1176.33 1327.31 1176.33 1344.81 Q1176.33 1362.26 1170.17 1371.47 Q1164.06 1380.64 1152.44 1380.64 Q1140.82 1380.64 1134.66 1371.47 Q1128.55 1362.26 1128.55 1344.81 Q1128.55 1327.31 1134.66 1318.14 Q1140.82 1308.93 1152.44 1308.93 Z" fill="#000000" fill-rule="nonzero" fill-opacity="1" /><path clip-path="url(#clip830)" d="M1192.77 1367.54 L1202.53 1367.54 L1202.53 1379.3 L1192.77 1379.3 L1192.77 1367.54 Z" fill="#000000" fill-rule="nonzero" fill-opacity="1" /><path clip-path="url(#clip830)" d="M1248.6 1318.32 L1224.99 1355.22 L1248.6 1355.22 L1248.6 1318.32 M1246.14 1310.18 L1257.9 1310.18 L1257.9 1355.22 L1267.76 1355.22 L1267.76 1363 L1257.9 1363 L1257.9 1379.3 L1248.6 1379.3 L1248.6 1363 L1217.39 1363 L1217.39 1353.97 L1246.14 1310.18 Z" fill="#000000" fill-rule="nonzero" fill-opacity="1" /><path clip-path="url(#clip830)" d="M1388.62 1316.33 Q1381.4 1316.33 1377.74 1323.46 Q1374.13 1330.55 1374.13 1344.81 Q1374.13 1359.02 1377.74 1366.15 Q1381.4 1373.23 1388.62 1373.23 Q1395.89 1373.23 1399.5 1366.15 Q1403.16 1359.02 1403.16 1344.81 Q1403.16 1330.55 1399.5 1323.46 Q1395.89 1316.33 1388.62 1316.33 M1388.62 1308.93 Q1400.24 1308.93 1406.35 1318.14 Q1412.51 1327.31 1412.51 1344.81 Q1412.51 1362.26 1406.35 1371.47 Q1400.24 1380.64 1388.62 1380.64 Q1377 1380.64 1370.85 1371.47 Q1364.73 1362.26 1364.73 1344.81 Q1364.73 1327.31 1370.85 1318.14 Q1377 1308.93 1388.62 1308.93 Z" fill="#000000" fill-rule="nonzero" fill-opacity="1" /><path clip-path="url(#clip830)" d="M1428.95 1367.54 L1438.72 1367.54 L1438.72 1379.3 L1428.95 1379.3 L1428.95 1367.54 Z" fill="#000000" fill-rule="nonzero" fill-opacity="1" /><path clip-path="url(#clip830)" d="M1480.24 1341.01 Q1473.95 1341.01 1470.24 1345.31 Q1466.59 1349.62 1466.59 1357.12 Q1466.59 1364.57 1470.24 1368.93 Q1473.95 1373.23 1480.24 1373.23 Q1486.54 1373.23 1490.2 1368.93 Q1493.9 1364.57 1493.9 1357.12 Q1493.9 1349.62 1490.2 1345.31 Q1486.54 1341.01 1480.24 1341.01 M1498.81 1311.7 L1498.81 1320.22 Q1495.29 1318.56 1491.68 1317.68 Q1488.11 1316.8 1484.6 1316.8 Q1475.34 1316.8 1470.43 1323.05 Q1465.57 1329.3 1464.87 1341.93 Q1467.6 1337.91 1471.72 1335.78 Q1475.85 1333.6 1480.8 1333.6 Q1491.22 1333.6 1497.23 1339.94 Q1503.3 1346.24 1503.3 1357.12 Q1503.3 1367.77 1497 1374.2 Q1490.71 1380.64 1480.24 1380.64 Q1468.25 1380.64 1461.91 1371.47 Q1455.57 1362.26 1455.57 1344.81 Q1455.57 1328.42 1463.35 1318.69 Q1471.12 1308.93 1484.22 1308.93 Q1487.74 1308.93 1491.31 1309.62 Q1494.92 1310.31 1498.81 1311.7 Z" fill="#000000" fill-rule="nonzero" fill-opacity="1" /><path clip-path="url(#clip830)" d="M1624.74 1316.33 Q1617.51 1316.33 1613.86 1323.46 Q1610.25 1330.55 1610.25 1344.81 Q1610.25 1359.02 1613.86 1366.15 Q1617.51 1373.23 1624.74 1373.23 Q1632 1373.23 1635.62 1366.15 Q1639.27 1359.02 1639.27 1344.81 Q1639.27 1330.55 1635.62 1323.46 Q1632 1316.33 1624.74 1316.33 M1624.74 1308.93 Q1636.36 1308.93 1642.47 1318.14 Q1648.62 1327.31 1648.62 1344.81 Q1648.62 1362.26 1642.47 1371.47 Q1636.36 1380.64 1624.74 1380.64 Q1613.12 1380.64 1606.96 1371.47 Q1600.85 1362.26 1600.85 1344.81 Q1600.85 1327.31 1606.96 1318.14 Q1613.12 1308.93 1624.74 1308.93 Z" fill="#000000" fill-rule="nonzero" fill-opacity="1" /><path clip-path="url(#clip830)" d="M1665.06 1367.54 L1674.83 1367.54 L1674.83 1379.3 L1665.06 1379.3 L1665.06 1367.54 Z" fill="#000000" fill-rule="nonzero" fill-opacity="1" /><path clip-path="url(#clip830)" d="M1715.2 1346.47 Q1708.53 1346.47 1704.69 1350.04 Q1700.89 1353.6 1700.89 1359.85 Q1700.89 1366.1 1704.69 1369.67 Q1708.53 1373.23 1715.2 1373.23 Q1721.87 1373.23 1725.71 1369.67 Q1729.55 1366.06 1729.55 1359.85 Q1729.55 1353.6 1725.71 1350.04 Q1721.91 1346.47 1715.2 1346.47 M1705.85 1342.49 Q1699.83 1341.01 1696.45 1336.89 Q1693.12 1332.77 1693.12 1326.84 Q1693.12 1318.56 1698.99 1313.74 Q1704.92 1308.93 1715.2 1308.93 Q1725.52 1308.93 1731.4 1313.74 Q1737.28 1318.56 1737.28 1326.84 Q1737.28 1332.77 1733.9 1336.89 Q1730.57 1341.01 1724.6 1342.49 Q1731.36 1344.06 1735.11 1348.65 Q1738.9 1353.23 1738.9 1359.85 Q1738.9 1369.9 1732.74 1375.27 Q1726.63 1380.64 1715.2 1380.64 Q1703.76 1380.64 1697.61 1375.27 Q1691.49 1369.9 1691.49 1359.85 Q1691.49 1353.23 1695.29 1348.65 Q1699.09 1344.06 1705.85 1342.49 M1702.42 1327.72 Q1702.42 1333.09 1705.75 1336.1 Q1709.13 1339.11 1715.2 1339.11 Q1721.22 1339.11 1724.6 1336.1 Q1728.02 1333.09 1728.02 1327.72 Q1728.02 1322.35 1724.6 1319.34 Q1721.22 1316.33 1715.2 1316.33 Q1709.13 1316.33 1705.75 1319.34 Q1702.42 1322.35 1702.42 1327.72 Z" fill="#000000" fill-rule="nonzero" fill-opacity="1" /><path clip-path="url(#clip830)" d="M1840.04 1371.43 L1855.32 1371.43 L1855.32 1318.69 L1838.7 1322.03 L1838.7 1313.51 L1855.22 1310.18 L1864.58 1310.18 L1864.58 1371.43 L1879.85 1371.43 L1879.85 1379.3 L1840.04 1379.3 L1840.04 1371.43 Z" fill="#000000" fill-rule="nonzero" fill-opacity="1" /><path clip-path="url(#clip830)" d="M1898.74 1367.54 L1908.51 1367.54 L1908.51 1379.3 L1898.74 1379.3 L1898.74 1367.54 Z" fill="#000000" fill-rule="nonzero" fill-opacity="1" /><path clip-path="url(#clip830)" d="M1948.88 1316.33 Q1941.66 1316.33 1938 1323.46 Q1934.39 1330.55 1934.39 1344.81 Q1934.39 1359.02 1938 1366.15 Q1941.66 1373.23 1948.88 1373.23 Q1956.15 1373.23 1959.76 1366.15 Q1963.42 1359.02 1963.42 1344.81 Q1963.42 1330.55 1959.76 1323.46 Q1956.15 1316.33 1948.88 1316.33 M1948.88 1308.93 Q1960.5 1308.93 1966.61 1318.14 Q1972.77 1327.31 1972.77 1344.81 Q1972.77 1362.26 1966.61 1371.47 Q1960.5 1380.64 1948.88 1380.64 Q1937.26 1380.64 1931.1 1371.47 Q1924.99 1362.26 1924.99 1344.81 Q1924.99 1327.31 1931.1 1318.14 Q1937.26 1308.93 1948.88 1308.93 Z" fill="#000000" fill-rule="nonzero" fill-opacity="1" /><path clip-path="url(#clip830)" d="M2077.49 1371.43 L2092.77 1371.43 L2092.77 1318.69 L2076.15 1322.03 L2076.15 1313.51 L2092.68 1310.18 L2102.03 1310.18 L2102.03 1371.43 L2117.31 1371.43 L2117.31 1379.3 L2077.49 1379.3 L2077.49 1371.43 Z" fill="#000000" fill-rule="nonzero" fill-opacity="1" /><path clip-path="url(#clip830)" d="M2136.2 1367.54 L2145.97 1367.54 L2145.97 1379.3 L2136.2 1379.3 L2136.2 1367.54 Z" fill="#000000" fill-rule="nonzero" fill-opacity="1" /><path clip-path="url(#clip830)" d="M2174.39 1371.43 L2207.03 1371.43 L2207.03 1379.3 L2163.14 1379.3 L2163.14 1371.43 Q2168.47 1365.92 2177.63 1356.66 Q2186.84 1347.35 2189.21 1344.67 Q2193.7 1339.62 2195.46 1336.15 Q2197.26 1332.63 2197.26 1329.25 Q2197.26 1323.74 2193.37 1320.27 Q2189.53 1316.8 2183.33 1316.8 Q2178.93 1316.8 2174.02 1318.32 Q2169.16 1319.85 2163.6 1322.95 L2163.6 1313.51 Q2169.25 1311.24 2174.16 1310.08 Q2179.07 1308.93 2183.14 1308.93 Q2193.88 1308.93 2200.27 1314.3 Q2206.66 1319.67 2206.66 1328.65 Q2206.66 1332.91 2205.04 1336.75 Q2203.47 1340.55 2199.25 1345.73 Q2198.09 1347.07 2191.89 1353.51 Q2185.69 1359.9 2174.39 1371.43 Z" fill="#000000" fill-rule="nonzero" fill-opacity="1" /><path clip-path="url(#clip830)" d="M1378.53 1484.39 L1378.53 1527.42 L1366.81 1527.42 L1366.81 1484.77 Q1366.81 1474.65 1362.87 1469.62 Q1358.92 1464.59 1351.03 1464.59 Q1341.54 1464.59 1336.07 1470.64 Q1330.59 1476.69 1330.59 1487.13 L1330.59 1527.42 L1318.82 1527.42 L1318.82 1428.37 L1330.59 1428.37 L1330.59 1467.2 Q1334.79 1460.77 1340.46 1457.59 Q1346.19 1454.41 1353.64 1454.41 Q1365.92 1454.41 1372.22 1462.05 Q1378.53 1469.62 1378.53 1484.39 Z" fill="#000000" fill-rule="nonzero" fill-opacity="1" /><path clip-path="url(#clip830)" d="M1429.51 1464.34 Q1420.09 1464.34 1414.62 1471.72 Q1409.14 1479.04 1409.14 1491.84 Q1409.14 1504.63 1414.56 1512.02 Q1420.03 1519.34 1429.51 1519.34 Q1438.87 1519.34 1444.35 1511.96 Q1449.82 1504.57 1449.82 1491.84 Q1449.82 1479.17 1444.35 1471.79 Q1438.87 1464.34 1429.51 1464.34 M1429.51 1454.41 Q1444.79 1454.41 1453.51 1464.34 Q1462.23 1474.27 1462.23 1491.84 Q1462.23 1509.35 1453.51 1519.34 Q1444.79 1529.27 1429.51 1529.27 Q1414.17 1529.27 1405.45 1519.34 Q1396.8 1509.35 1396.8 1491.84 Q1396.8 1474.27 1405.45 1464.34 Q1414.17 1454.41 1429.51 1454.41 Z" fill="#000000" fill-rule="nonzero" fill-opacity="1" /><path clip-path="url(#clip830)" d="M1480.44 1499.29 L1480.44 1456.13 L1492.15 1456.13 L1492.15 1498.84 Q1492.15 1508.96 1496.1 1514.06 Q1500.05 1519.08 1507.94 1519.08 Q1517.43 1519.08 1522.9 1513.04 Q1528.44 1506.99 1528.44 1496.55 L1528.44 1456.13 L1540.15 1456.13 L1540.15 1527.42 L1528.44 1527.42 L1528.44 1516.47 Q1524.17 1522.97 1518.51 1526.15 Q1512.91 1529.27 1505.46 1529.27 Q1493.17 1529.27 1486.81 1521.63 Q1480.44 1513.99 1480.44 1499.29 M1509.91 1454.41 L1509.91 1454.41 Z" fill="#000000" fill-rule="nonzero" fill-opacity="1" /><path clip-path="url(#clip830)" d="M1605.59 1467.08 Q1603.62 1465.93 1601.26 1465.42 Q1598.97 1464.85 1596.17 1464.85 Q1586.24 1464.85 1580.89 1471.34 Q1575.61 1477.77 1575.61 1489.87 L1575.61 1527.42 L1563.83 1527.42 L1563.83 1456.13 L1575.61 1456.13 L1575.61 1467.2 Q1579.3 1460.71 1585.22 1457.59 Q1591.14 1454.41 1599.61 1454.41 Q1600.82 1454.41 1602.28 1454.6 Q1603.74 1454.73 1605.53 1455.05 L1605.59 1467.08 Z" fill="#000000" fill-rule="nonzero" fill-opacity="1" /><path clip-path="url(#clip830)" d="M1663.33 1458.23 L1663.33 1469.3 Q1658.36 1466.76 1653.01 1465.49 Q1647.67 1464.21 1641.94 1464.21 Q1633.22 1464.21 1628.83 1466.89 Q1624.5 1469.56 1624.5 1474.91 Q1624.5 1478.98 1627.62 1481.34 Q1630.73 1483.63 1640.16 1485.73 L1644.17 1486.62 Q1656.64 1489.29 1661.86 1494.19 Q1667.15 1499.03 1667.15 1507.75 Q1667.15 1517.68 1659.25 1523.48 Q1651.42 1529.27 1637.67 1529.27 Q1631.94 1529.27 1625.71 1528.12 Q1619.53 1527.04 1612.66 1524.81 L1612.66 1512.72 Q1619.15 1516.09 1625.45 1517.81 Q1631.75 1519.47 1637.93 1519.47 Q1646.2 1519.47 1650.66 1516.67 Q1655.12 1513.8 1655.12 1508.64 Q1655.12 1503.87 1651.87 1501.32 Q1648.69 1498.78 1637.8 1496.42 L1633.73 1495.47 Q1622.84 1493.18 1618 1488.47 Q1613.17 1483.69 1613.17 1475.42 Q1613.17 1465.36 1620.3 1459.88 Q1627.42 1454.41 1640.54 1454.41 Q1647.03 1454.41 1652.76 1455.36 Q1658.49 1456.32 1663.33 1458.23 Z" fill="#000000" fill-rule="nonzero" fill-opacity="1" /><polyline clip-path="url(#clip832)" style="stroke:#000000; stroke-linecap:round; stroke-linejoin:round; stroke-width:4; stroke-opacity:0.1; fill:none" points="680.45,1110.52 2305.51,1110.52 "/>
<polyline clip-path="url(#clip832)" style="stroke:#000000; stroke-linecap:round; stroke-linejoin:round; stroke-width:4; stroke-opacity:0.1; fill:none" points="680.45,911.781 2305.51,911.781 "/>
<polyline clip-path="url(#clip832)" style="stroke:#000000; stroke-linecap:round; stroke-linejoin:round; stroke-width:4; stroke-opacity:0.1; fill:none" points="680.45,713.041 2305.51,713.041 "/>
<polyline clip-path="url(#clip832)" style="stroke:#000000; stroke-linecap:round; stroke-linejoin:round; stroke-width:4; stroke-opacity:0.1; fill:none" points="680.45,514.301 2305.51,514.301 "/>
<polyline clip-path="url(#clip832)" style="stroke:#000000; stroke-linecap:round; stroke-linejoin:round; stroke-width:4; stroke-opacity:0.1; fill:none" points="680.45,315.561 2305.51,315.561 "/>
<polyline clip-path="url(#clip832)" style="stroke:#000000; stroke-linecap:round; stroke-linejoin:round; stroke-width:4; stroke-opacity:0.1; fill:none" points="680.45,116.82 2305.51,116.82 "/>
<polyline clip-path="url(#clip830)" style="stroke:#000000; stroke-linecap:round; stroke-linejoin:round; stroke-width:8; stroke-opacity:1; fill:none" points="680.45,1273.7 680.45,94.4882 "/>
<polyline clip-path="url(#clip830)" style="stroke:#000000; stroke-linecap:round; stroke-linejoin:round; stroke-width:8; stroke-opacity:1; fill:none" points="680.45,1110.52 699.348,1110.52 "/>
<polyline clip-path="url(#clip830)" style="stroke:#000000; stroke-linecap:round; stroke-linejoin:round; stroke-width:8; stroke-opacity:1; fill:none" points="680.45,911.781 699.348,911.781 "/>
<polyline clip-path="url(#clip830)" style="stroke:#000000; stroke-linecap:round; stroke-linejoin:round; stroke-width:8; stroke-opacity:1; fill:none" points="680.45,713.041 699.348,713.041 "/>
<polyline clip-path="url(#clip830)" style="stroke:#000000; stroke-linecap:round; stroke-linejoin:round; stroke-width:8; stroke-opacity:1; fill:none" points="680.45,514.301 699.348,514.301 "/>
<polyline clip-path="url(#clip830)" style="stroke:#000000; stroke-linecap:round; stroke-linejoin:round; stroke-width:8; stroke-opacity:1; fill:none" points="680.45,315.561 699.348,315.561 "/>
<polyline clip-path="url(#clip830)" style="stroke:#000000; stroke-linecap:round; stroke-linejoin:round; stroke-width:8; stroke-opacity:1; fill:none" points="680.45,116.82 699.348,116.82 "/>
<path clip-path="url(#clip830)" d="M397.507 1137.21 L430.146 1137.21 L430.146 1145.08 L386.257 1145.08 L386.257 1137.21 Q391.581 1131.7 400.748 1122.44 Q409.961 1113.14 412.322 1110.45 Q416.813 1105.41 418.572 1101.93 Q420.378 1098.42 420.378 1095.04 Q420.378 1089.53 416.489 1086.05 Q412.646 1082.58 406.442 1082.58 Q402.044 1082.58 397.137 1084.11 Q392.276 1085.64 386.72 1088.74 L386.72 1079.29 Q392.368 1077.03 397.276 1075.87 Q402.183 1074.71 406.257 1074.71 Q416.998 1074.71 423.387 1080.08 Q429.776 1085.45 429.776 1094.43 Q429.776 1098.69 428.155 1102.54 Q426.581 1106.33 422.368 1111.52 Q421.211 1112.86 415.007 1119.29 Q408.803 1125.68 397.507 1137.21 Z" fill="#000000" fill-rule="nonzero" fill-opacity="1" /><path clip-path="url(#clip830)" d="M469.775 1112.26 Q463.109 1112.26 459.266 1115.82 Q455.47 1119.39 455.47 1125.64 Q455.47 1131.89 459.266 1135.45 Q463.109 1139.02 469.775 1139.02 Q476.442 1139.02 480.285 1135.45 Q484.127 1131.84 484.127 1125.64 Q484.127 1119.39 480.285 1115.82 Q476.488 1112.26 469.775 1112.26 M460.424 1108.28 Q454.405 1106.79 451.025 1102.67 Q447.692 1098.55 447.692 1092.63 Q447.692 1084.34 453.572 1079.53 Q459.498 1074.71 469.775 1074.71 Q480.099 1074.71 485.979 1079.53 Q491.859 1084.34 491.859 1092.63 Q491.859 1098.55 488.479 1102.67 Q485.146 1106.79 479.173 1108.28 Q485.933 1109.85 489.683 1114.43 Q493.479 1119.02 493.479 1125.64 Q493.479 1135.68 487.322 1141.05 Q481.211 1146.42 469.775 1146.42 Q458.34 1146.42 452.183 1141.05 Q446.072 1135.68 446.072 1125.64 Q446.072 1119.02 449.868 1114.43 Q453.664 1109.85 460.424 1108.28 M456.998 1093.51 Q456.998 1098.88 460.331 1101.89 Q463.711 1104.9 469.775 1104.9 Q475.794 1104.9 479.173 1101.89 Q482.599 1098.88 482.599 1093.51 Q482.599 1088.14 479.173 1085.13 Q475.794 1082.12 469.775 1082.12 Q463.711 1082.12 460.331 1085.13 Q456.998 1088.14 456.998 1093.51 Z" fill="#000000" fill-rule="nonzero" fill-opacity="1" /><path clip-path="url(#clip830)" d="M530.099 1082.12 Q522.877 1082.12 519.22 1089.25 Q515.608 1096.33 515.608 1110.59 Q515.608 1124.8 519.22 1131.93 Q522.877 1139.02 530.099 1139.02 Q537.368 1139.02 540.979 1131.93 Q544.636 1124.8 544.636 1110.59 Q544.636 1096.33 540.979 1089.25 Q537.368 1082.12 530.099 1082.12 M530.099 1074.71 Q541.719 1074.71 547.831 1083.92 Q553.988 1093.09 553.988 1110.59 Q553.988 1128.04 547.831 1137.26 Q541.719 1146.42 530.099 1146.42 Q518.479 1146.42 512.321 1137.26 Q506.21 1128.04 506.21 1110.59 Q506.21 1093.09 512.321 1083.92 Q518.479 1074.71 530.099 1074.71 Z" fill="#000000" fill-rule="nonzero" fill-opacity="1" /><path clip-path="url(#clip830)" d="M570.423 1133.32 L580.191 1133.32 L580.191 1145.08 L570.423 1145.08 L570.423 1133.32 Z" fill="#000000" fill-rule="nonzero" fill-opacity="1" /><path clip-path="url(#clip830)" d="M620.562 1082.12 Q613.339 1082.12 609.682 1089.25 Q606.071 1096.33 606.071 1110.59 Q606.071 1124.8 609.682 1131.93 Q613.339 1139.02 620.562 1139.02 Q627.83 1139.02 631.441 1131.93 Q635.099 1124.8 635.099 1110.59 Q635.099 1096.33 631.441 1089.25 Q627.83 1082.12 620.562 1082.12 M620.562 1074.71 Q632.182 1074.71 638.293 1083.92 Q644.45 1093.09 644.45 1110.59 Q644.45 1128.04 638.293 1137.26 Q632.182 1146.42 620.562 1146.42 Q608.941 1146.42 602.784 1137.26 Q596.673 1128.04 596.673 1110.59 Q596.673 1093.09 602.784 1083.92 Q608.941 1074.71 620.562 1074.71 Z" fill="#000000" fill-rule="nonzero" fill-opacity="1" /><path clip-path="url(#clip830)" d="M397.507 938.471 L430.146 938.471 L430.146 946.341 L386.257 946.341 L386.257 938.471 Q391.581 932.962 400.748 923.703 Q409.961 914.397 412.322 911.712 Q416.813 906.666 418.572 903.193 Q420.378 899.675 420.378 896.295 Q420.378 890.786 416.489 887.314 Q412.646 883.842 406.442 883.842 Q402.044 883.842 397.137 885.369 Q392.276 886.897 386.72 889.999 L386.72 880.555 Q392.368 878.286 397.276 877.129 Q402.183 875.971 406.257 875.971 Q416.998 875.971 423.387 881.342 Q429.776 886.712 429.776 895.693 Q429.776 899.953 428.155 903.795 Q426.581 907.592 422.368 912.777 Q421.211 914.119 415.007 920.554 Q408.803 926.943 397.507 938.471 Z" fill="#000000" fill-rule="nonzero" fill-opacity="1" /><path clip-path="url(#clip830)" d="M450.053 944.906 L450.053 936.388 Q453.572 938.054 457.183 938.934 Q460.794 939.814 464.266 939.814 Q473.525 939.814 478.386 933.61 Q483.294 927.36 483.988 914.675 Q481.303 918.656 477.183 920.786 Q473.062 922.915 468.062 922.915 Q457.692 922.915 451.627 916.666 Q445.609 910.369 445.609 899.49 Q445.609 888.842 451.905 882.406 Q458.201 875.971 468.664 875.971 Q480.655 875.971 486.951 885.184 Q493.294 894.351 493.294 911.851 Q493.294 928.193 485.516 937.962 Q477.785 947.684 464.683 947.684 Q461.164 947.684 457.553 946.989 Q453.942 946.295 450.053 944.906 M468.664 915.601 Q474.961 915.601 478.618 911.295 Q482.322 906.99 482.322 899.49 Q482.322 892.036 478.618 887.73 Q474.961 883.379 468.664 883.379 Q462.368 883.379 458.664 887.73 Q455.007 892.036 455.007 899.49 Q455.007 906.99 458.664 911.295 Q462.368 915.601 468.664 915.601 Z" fill="#000000" fill-rule="nonzero" fill-opacity="1" /><path clip-path="url(#clip830)" d="M530.099 883.379 Q522.877 883.379 519.22 890.508 Q515.608 897.592 515.608 911.851 Q515.608 926.064 519.22 933.193 Q522.877 940.277 530.099 940.277 Q537.368 940.277 540.979 933.193 Q544.636 926.064 544.636 911.851 Q544.636 897.592 540.979 890.508 Q537.368 883.379 530.099 883.379 M530.099 875.971 Q541.719 875.971 547.831 885.184 Q553.988 894.351 553.988 911.851 Q553.988 929.304 547.831 938.517 Q541.719 947.684 530.099 947.684 Q518.479 947.684 512.321 938.517 Q506.21 929.304 506.21 911.851 Q506.21 894.351 512.321 885.184 Q518.479 875.971 530.099 875.971 Z" fill="#000000" fill-rule="nonzero" fill-opacity="1" /><path clip-path="url(#clip830)" d="M570.423 934.582 L580.191 934.582 L580.191 946.341 L570.423 946.341 L570.423 934.582 Z" fill="#000000" fill-rule="nonzero" fill-opacity="1" /><path clip-path="url(#clip830)" d="M620.562 883.379 Q613.339 883.379 609.682 890.508 Q606.071 897.592 606.071 911.851 Q606.071 926.064 609.682 933.193 Q613.339 940.277 620.562 940.277 Q627.83 940.277 631.441 933.193 Q635.099 926.064 635.099 911.851 Q635.099 897.592 631.441 890.508 Q627.83 883.379 620.562 883.379 M620.562 875.971 Q632.182 875.971 638.293 885.184 Q644.45 894.351 644.45 911.851 Q644.45 929.304 638.293 938.517 Q632.182 947.684 620.562 947.684 Q608.941 947.684 602.784 938.517 Q596.673 929.304 596.673 911.851 Q596.673 894.351 602.784 885.184 Q608.941 875.971 620.562 875.971 Z" fill="#000000" fill-rule="nonzero" fill-opacity="1" /><path clip-path="url(#clip830)" d="M417.785 710.333 Q424.498 711.768 428.248 716.305 Q432.044 720.842 432.044 727.509 Q432.044 737.74 425.007 743.342 Q417.97 748.944 405.007 748.944 Q400.655 748.944 396.026 748.064 Q391.442 747.231 386.535 745.518 L386.535 736.49 Q390.424 738.759 395.054 739.916 Q399.683 741.073 404.729 741.073 Q413.526 741.073 418.109 737.601 Q422.739 734.129 422.739 727.509 Q422.739 721.398 418.433 717.972 Q414.174 714.499 406.535 714.499 L398.479 714.499 L398.479 706.814 L406.905 706.814 Q413.803 706.814 417.461 704.083 Q421.118 701.305 421.118 696.12 Q421.118 690.796 417.322 687.972 Q413.572 685.101 406.535 685.101 Q402.692 685.101 398.294 685.935 Q393.896 686.768 388.618 688.527 L388.618 680.194 Q393.942 678.713 398.572 677.972 Q403.248 677.231 407.368 677.231 Q418.016 677.231 424.22 682.092 Q430.424 686.907 430.424 695.148 Q430.424 700.888 427.137 704.87 Q423.85 708.805 417.785 710.333 Z" fill="#000000" fill-rule="nonzero" fill-opacity="1" /><path clip-path="url(#clip830)" d="M469.775 684.638 Q462.553 684.638 458.896 691.768 Q455.285 698.851 455.285 713.111 Q455.285 727.323 458.896 734.453 Q462.553 741.536 469.775 741.536 Q477.044 741.536 480.655 734.453 Q484.312 727.323 484.312 713.111 Q484.312 698.851 480.655 691.768 Q477.044 684.638 469.775 684.638 M469.775 677.231 Q481.396 677.231 487.507 686.444 Q493.664 695.611 493.664 713.111 Q493.664 730.564 487.507 739.777 Q481.396 748.944 469.775 748.944 Q458.155 748.944 451.998 739.777 Q445.887 730.564 445.887 713.111 Q445.887 695.611 451.998 686.444 Q458.155 677.231 469.775 677.231 Z" fill="#000000" fill-rule="nonzero" fill-opacity="1" /><path clip-path="url(#clip830)" d="M530.099 684.638 Q522.877 684.638 519.22 691.768 Q515.608 698.851 515.608 713.111 Q515.608 727.323 519.22 734.453 Q522.877 741.536 530.099 741.536 Q537.368 741.536 540.979 734.453 Q544.636 727.323 544.636 713.111 Q544.636 698.851 540.979 691.768 Q537.368 684.638 530.099 684.638 M530.099 677.231 Q541.719 677.231 547.831 686.444 Q553.988 695.611 553.988 713.111 Q553.988 730.564 547.831 739.777 Q541.719 748.944 530.099 748.944 Q518.479 748.944 512.321 739.777 Q506.21 730.564 506.21 713.111 Q506.21 695.611 512.321 686.444 Q518.479 677.231 530.099 677.231 Z" fill="#000000" fill-rule="nonzero" fill-opacity="1" /><path clip-path="url(#clip830)" d="M570.423 735.842 L580.191 735.842 L580.191 747.601 L570.423 747.601 L570.423 735.842 Z" fill="#000000" fill-rule="nonzero" fill-opacity="1" /><path clip-path="url(#clip830)" d="M620.562 684.638 Q613.339 684.638 609.682 691.768 Q606.071 698.851 606.071 713.111 Q606.071 727.323 609.682 734.453 Q613.339 741.536 620.562 741.536 Q627.83 741.536 631.441 734.453 Q635.099 727.323 635.099 713.111 Q635.099 698.851 631.441 691.768 Q627.83 684.638 620.562 684.638 M620.562 677.231 Q632.182 677.231 638.293 686.444 Q644.45 695.611 644.45 713.111 Q644.45 730.564 638.293 739.777 Q632.182 748.944 620.562 748.944 Q608.941 748.944 602.784 739.777 Q596.673 730.564 596.673 713.111 Q596.673 695.611 602.784 686.444 Q608.941 677.231 620.562 677.231 Z" fill="#000000" fill-rule="nonzero" fill-opacity="1" /><path clip-path="url(#clip830)" d="M417.785 511.593 Q424.498 513.028 428.248 517.565 Q432.044 522.102 432.044 528.768 Q432.044 539 425.007 544.602 Q417.97 550.203 405.007 550.203 Q400.655 550.203 396.026 549.324 Q391.442 548.49 386.535 546.778 L386.535 537.75 Q390.424 540.018 395.054 541.176 Q399.683 542.333 404.729 542.333 Q413.526 542.333 418.109 538.861 Q422.739 535.389 422.739 528.768 Q422.739 522.657 418.433 519.231 Q414.174 515.759 406.535 515.759 L398.479 515.759 L398.479 508.074 L406.905 508.074 Q413.803 508.074 417.461 505.343 Q421.118 502.565 421.118 497.38 Q421.118 492.056 417.322 489.232 Q413.572 486.361 406.535 486.361 Q402.692 486.361 398.294 487.195 Q393.896 488.028 388.618 489.787 L388.618 481.454 Q393.942 479.972 398.572 479.232 Q403.248 478.491 407.368 478.491 Q418.016 478.491 424.22 483.352 Q430.424 488.167 430.424 496.407 Q430.424 502.148 427.137 506.13 Q423.85 510.065 417.785 511.593 Z" fill="#000000" fill-rule="nonzero" fill-opacity="1" /><path clip-path="url(#clip830)" d="M451.396 540.991 L466.674 540.991 L466.674 488.259 L450.053 491.593 L450.053 483.074 L466.581 479.741 L475.933 479.741 L475.933 540.991 L491.21 540.991 L491.21 548.861 L451.396 548.861 L451.396 540.991 Z" fill="#000000" fill-rule="nonzero" fill-opacity="1" /><path clip-path="url(#clip830)" d="M530.099 485.898 Q522.877 485.898 519.22 493.028 Q515.608 500.111 515.608 514.37 Q515.608 528.583 519.22 535.713 Q522.877 542.796 530.099 542.796 Q537.368 542.796 540.979 535.713 Q544.636 528.583 544.636 514.37 Q544.636 500.111 540.979 493.028 Q537.368 485.898 530.099 485.898 M530.099 478.491 Q541.719 478.491 547.831 487.704 Q553.988 496.87 553.988 514.37 Q553.988 531.824 547.831 541.037 Q541.719 550.203 530.099 550.203 Q518.479 550.203 512.321 541.037 Q506.21 531.824 506.21 514.37 Q506.21 496.87 512.321 487.704 Q518.479 478.491 530.099 478.491 Z" fill="#000000" fill-rule="nonzero" fill-opacity="1" /><path clip-path="url(#clip830)" d="M570.423 537.102 L580.191 537.102 L580.191 548.861 L570.423 548.861 L570.423 537.102 Z" fill="#000000" fill-rule="nonzero" fill-opacity="1" /><path clip-path="url(#clip830)" d="M620.562 485.898 Q613.339 485.898 609.682 493.028 Q606.071 500.111 606.071 514.37 Q606.071 528.583 609.682 535.713 Q613.339 542.796 620.562 542.796 Q627.83 542.796 631.441 535.713 Q635.099 528.583 635.099 514.37 Q635.099 500.111 631.441 493.028 Q627.83 485.898 620.562 485.898 M620.562 478.491 Q632.182 478.491 638.293 487.704 Q644.45 496.87 644.45 514.37 Q644.45 531.824 638.293 541.037 Q632.182 550.203 620.562 550.203 Q608.941 550.203 602.784 541.037 Q596.673 531.824 596.673 514.37 Q596.673 496.87 602.784 487.704 Q608.941 478.491 620.562 478.491 Z" fill="#000000" fill-rule="nonzero" fill-opacity="1" /><path clip-path="url(#clip830)" d="M417.785 312.852 Q424.498 314.288 428.248 318.825 Q432.044 323.362 432.044 330.028 Q432.044 340.26 425.007 345.861 Q417.97 351.463 405.007 351.463 Q400.655 351.463 396.026 350.584 Q391.442 349.75 386.535 348.037 L386.535 339.01 Q390.424 341.278 395.054 342.435 Q399.683 343.593 404.729 343.593 Q413.526 343.593 418.109 340.121 Q422.739 336.648 422.739 330.028 Q422.739 323.917 418.433 320.491 Q414.174 317.019 406.535 317.019 L398.479 317.019 L398.479 309.334 L406.905 309.334 Q413.803 309.334 417.461 306.602 Q421.118 303.825 421.118 298.639 Q421.118 293.315 417.322 290.491 Q413.572 287.621 406.535 287.621 Q402.692 287.621 398.294 288.454 Q393.896 289.288 388.618 291.047 L388.618 282.714 Q393.942 281.232 398.572 280.491 Q403.248 279.751 407.368 279.751 Q418.016 279.751 424.22 284.612 Q430.424 289.427 430.424 297.667 Q430.424 303.408 427.137 307.389 Q423.85 311.325 417.785 312.852 Z" fill="#000000" fill-rule="nonzero" fill-opacity="1" /><path clip-path="url(#clip830)" d="M457.831 342.25 L490.47 342.25 L490.47 350.121 L446.581 350.121 L446.581 342.25 Q451.905 336.741 461.072 327.482 Q470.285 318.176 472.646 315.491 Q477.136 310.445 478.896 306.973 Q480.701 303.454 480.701 300.075 Q480.701 294.565 476.812 291.093 Q472.97 287.621 466.766 287.621 Q462.368 287.621 457.461 289.149 Q452.6 290.677 447.044 293.778 L447.044 284.334 Q452.692 282.065 457.6 280.908 Q462.507 279.751 466.581 279.751 Q477.322 279.751 483.71 285.121 Q490.099 290.491 490.099 299.473 Q490.099 303.732 488.479 307.575 Q486.905 311.371 482.692 316.556 Q481.535 317.899 475.331 324.334 Q469.127 330.723 457.831 342.25 Z" fill="#000000" fill-rule="nonzero" fill-opacity="1" /><path clip-path="url(#clip830)" d="M530.099 287.158 Q522.877 287.158 519.22 294.288 Q515.608 301.371 515.608 315.63 Q515.608 329.843 519.22 336.973 Q522.877 344.056 530.099 344.056 Q537.368 344.056 540.979 336.973 Q544.636 329.843 544.636 315.63 Q544.636 301.371 540.979 294.288 Q537.368 287.158 530.099 287.158 M530.099 279.751 Q541.719 279.751 547.831 288.964 Q553.988 298.13 553.988 315.63 Q553.988 333.084 547.831 342.297 Q541.719 351.463 530.099 351.463 Q518.479 351.463 512.321 342.297 Q506.21 333.084 506.21 315.63 Q506.21 298.13 512.321 288.964 Q518.479 279.751 530.099 279.751 Z" fill="#000000" fill-rule="nonzero" fill-opacity="1" /><path clip-path="url(#clip830)" d="M570.423 338.361 L580.191 338.361 L580.191 350.121 L570.423 350.121 L570.423 338.361 Z" fill="#000000" fill-rule="nonzero" fill-opacity="1" /><path clip-path="url(#clip830)" d="M620.562 287.158 Q613.339 287.158 609.682 294.288 Q606.071 301.371 606.071 315.63 Q606.071 329.843 609.682 336.973 Q613.339 344.056 620.562 344.056 Q627.83 344.056 631.441 336.973 Q635.099 329.843 635.099 315.63 Q635.099 301.371 631.441 294.288 Q627.83 287.158 620.562 287.158 M620.562 279.751 Q632.182 279.751 638.293 288.964 Q644.45 298.13 644.45 315.63 Q644.45 333.084 638.293 342.297 Q632.182 351.463 620.562 351.463 Q608.941 351.463 602.784 342.297 Q596.673 333.084 596.673 315.63 Q596.673 298.13 602.784 288.964 Q608.941 279.751 620.562 279.751 Z" fill="#000000" fill-rule="nonzero" fill-opacity="1" /><path clip-path="url(#clip830)" d="M417.785 114.112 Q424.498 115.547 428.248 120.084 Q432.044 124.621 432.044 131.288 Q432.044 141.519 425.007 147.121 Q417.97 152.723 405.007 152.723 Q400.655 152.723 396.026 151.843 Q391.442 151.01 386.535 149.297 L386.535 140.269 Q390.424 142.538 395.054 143.695 Q399.683 144.853 404.729 144.853 Q413.526 144.853 418.109 141.38 Q422.739 137.908 422.739 131.288 Q422.739 125.177 418.433 121.751 Q414.174 118.279 406.535 118.279 L398.479 118.279 L398.479 110.594 L406.905 110.594 Q413.803 110.594 417.461 107.862 Q421.118 105.084 421.118 99.8992 Q421.118 94.5752 417.322 91.7511 Q413.572 88.8808 406.535 88.8808 Q402.692 88.8808 398.294 89.7141 Q393.896 90.5474 388.618 92.3067 L388.618 83.9734 Q393.942 82.4919 398.572 81.7512 Q403.248 81.0104 407.368 81.0104 Q418.016 81.0104 424.22 85.8715 Q430.424 90.6863 430.424 98.927 Q430.424 104.668 427.137 108.649 Q423.85 112.584 417.785 114.112 Z" fill="#000000" fill-rule="nonzero" fill-opacity="1" /><path clip-path="url(#clip830)" d="M478.109 114.112 Q484.822 115.547 488.572 120.084 Q492.368 124.621 492.368 131.288 Q492.368 141.519 485.331 147.121 Q478.294 152.723 465.331 152.723 Q460.979 152.723 456.35 151.843 Q451.766 151.01 446.859 149.297 L446.859 140.269 Q450.748 142.538 455.377 143.695 Q460.007 144.853 465.053 144.853 Q473.849 144.853 478.433 141.38 Q483.062 137.908 483.062 131.288 Q483.062 125.177 478.757 121.751 Q474.498 118.279 466.859 118.279 L458.803 118.279 L458.803 110.594 L467.229 110.594 Q474.127 110.594 477.785 107.862 Q481.442 105.084 481.442 99.8992 Q481.442 94.5752 477.646 91.7511 Q473.896 88.8808 466.859 88.8808 Q463.016 88.8808 458.618 89.7141 Q454.22 90.5474 448.942 92.3067 L448.942 83.9734 Q454.266 82.4919 458.896 81.7512 Q463.572 81.0104 467.692 81.0104 Q478.34 81.0104 484.544 85.8715 Q490.747 90.6863 490.747 98.927 Q490.747 104.668 487.46 108.649 Q484.173 112.584 478.109 114.112 Z" fill="#000000" fill-rule="nonzero" fill-opacity="1" /><path clip-path="url(#clip830)" d="M530.099 88.4178 Q522.877 88.4178 519.22 95.5474 Q515.608 102.631 515.608 116.89 Q515.608 131.103 519.22 138.232 Q522.877 145.316 530.099 145.316 Q537.368 145.316 540.979 138.232 Q544.636 131.103 544.636 116.89 Q544.636 102.631 540.979 95.5474 Q537.368 88.4178 530.099 88.4178 M530.099 81.0104 Q541.719 81.0104 547.831 90.2233 Q553.988 99.39 553.988 116.89 Q553.988 134.343 547.831 143.556 Q541.719 152.723 530.099 152.723 Q518.479 152.723 512.321 143.556 Q506.21 134.343 506.21 116.89 Q506.21 99.39 512.321 90.2233 Q518.479 81.0104 530.099 81.0104 Z" fill="#000000" fill-rule="nonzero" fill-opacity="1" /><path clip-path="url(#clip830)" d="M570.423 139.621 L580.191 139.621 L580.191 151.38 L570.423 151.38 L570.423 139.621 Z" fill="#000000" fill-rule="nonzero" fill-opacity="1" /><path clip-path="url(#clip830)" d="M620.562 88.4178 Q613.339 88.4178 609.682 95.5474 Q606.071 102.631 606.071 116.89 Q606.071 131.103 609.682 138.232 Q613.339 145.316 620.562 145.316 Q627.83 145.316 631.441 138.232 Q635.099 131.103 635.099 116.89 Q635.099 102.631 631.441 95.5474 Q627.83 88.4178 620.562 88.4178 M620.562 81.0104 Q632.182 81.0104 638.293 90.2233 Q644.45 99.39 644.45 116.89 Q644.45 134.343 638.293 143.556 Q632.182 152.723 620.562 152.723 Q608.941 152.723 602.784 143.556 Q596.673 134.343 596.673 116.89 Q596.673 99.39 602.784 90.2233 Q608.941 81.0104 620.562 81.0104 Z" fill="#000000" fill-rule="nonzero" fill-opacity="1" /><path clip-path="url(#clip830)" d="M311.051 933.309 L348.863 933.309 L348.863 945.086 L250.449 945.086 L250.449 933.309 L261.271 933.309 Q254.905 929.617 251.85 924.015 Q248.731 918.35 248.731 910.52 Q248.731 897.534 259.043 889.45 Q269.356 881.302 286.161 881.302 Q302.966 881.302 313.279 889.45 Q323.591 897.534 323.591 910.52 Q323.591 918.35 320.536 924.015 Q317.417 929.617 311.051 933.309 M286.161 893.46 Q273.239 893.46 265.918 898.807 Q258.534 904.091 258.534 913.385 Q258.534 922.679 265.918 928.026 Q273.239 933.309 286.161 933.309 Q299.083 933.309 306.468 928.026 Q313.788 922.679 313.788 913.385 Q313.788 904.091 306.468 898.807 Q299.083 893.46 286.161 893.46 Z" fill="#000000" fill-rule="nonzero" fill-opacity="1" /><path clip-path="url(#clip830)" d="M285.906 829.485 Q285.906 843.68 289.153 849.155 Q292.399 854.629 300.229 854.629 Q306.468 854.629 310.16 850.555 Q313.788 846.417 313.788 839.352 Q313.788 829.612 306.913 823.756 Q299.975 817.835 288.516 817.835 L285.906 817.835 L285.906 829.485 M281.068 806.123 L321.745 806.123 L321.745 817.835 L310.924 817.835 Q317.417 821.846 320.536 827.83 Q323.591 833.813 323.591 842.471 Q323.591 853.42 317.48 859.913 Q311.306 866.342 300.993 866.342 Q288.962 866.342 282.851 858.321 Q276.74 850.237 276.74 834.259 L276.74 817.835 L275.594 817.835 Q267.509 817.835 263.117 823.183 Q258.661 828.466 258.661 838.078 Q258.661 844.189 260.125 849.982 Q261.589 855.775 264.518 861.122 L253.696 861.122 Q251.213 854.693 250.004 848.645 Q248.731 842.598 248.731 836.869 Q248.731 821.4 256.751 813.761 Q264.772 806.123 281.068 806.123 Z" fill="#000000" fill-rule="nonzero" fill-opacity="1" /><path clip-path="url(#clip830)" d="M261.398 740.683 Q260.253 742.656 259.743 745.012 Q259.17 747.303 259.17 750.104 Q259.17 760.035 265.663 765.382 Q272.093 770.666 284.188 770.666 L321.745 770.666 L321.745 782.442 L250.449 782.442 L250.449 770.666 L261.526 770.666 Q255.033 766.973 251.914 761.053 Q248.731 755.133 248.731 746.667 Q248.731 745.457 248.922 743.993 Q249.049 742.529 249.367 740.747 L261.398 740.683 Z" fill="#000000" fill-rule="nonzero" fill-opacity="1" /><path clip-path="url(#clip830)" d="M283.169 670.278 L288.898 670.278 L288.898 724.132 Q300.993 723.368 307.359 716.875 Q313.661 710.319 313.661 698.669 Q313.661 691.922 312.006 685.62 Q310.351 679.254 307.041 673.016 L318.117 673.016 Q320.79 679.318 322.191 685.938 Q323.591 692.558 323.591 699.37 Q323.591 716.43 313.661 726.424 Q303.73 736.354 286.798 736.354 Q269.292 736.354 259.043 726.933 Q248.731 717.448 248.731 701.407 Q248.731 687.02 258.025 678.681 Q267.255 670.278 283.169 670.278 M279.732 681.991 Q270.119 682.119 264.39 687.402 Q258.661 692.622 258.661 701.279 Q258.661 711.083 264.199 717.003 Q269.737 722.859 279.795 723.75 L279.732 681.991 Z" fill="#000000" fill-rule="nonzero" fill-opacity="1" /><path clip-path="url(#clip830)" d="M278.713 591.789 L321.745 591.789 L321.745 603.502 L279.095 603.502 Q268.974 603.502 263.945 607.449 Q258.916 611.396 258.916 619.289 Q258.916 628.774 264.963 634.248 Q271.011 639.723 281.45 639.723 L321.745 639.723 L321.745 651.5 L250.449 651.5 L250.449 639.723 L261.526 639.723 Q255.096 635.522 251.914 629.856 Q248.731 624.127 248.731 616.679 Q248.731 604.393 256.37 598.091 Q263.945 591.789 278.713 591.789 Z" fill="#000000" fill-rule="nonzero" fill-opacity="1" /><path clip-path="url(#clip830)" d="M305.576 566.772 L305.576 553.34 L321.745 553.34 L321.745 566.772 L305.576 566.772 Z" fill="#000000" fill-rule="nonzero" fill-opacity="1" /><path clip-path="url(#clip830)" d="M269.101 454.799 Q269.101 463.457 275.021 468.549 Q280.941 473.578 291.254 473.578 Q301.502 473.578 307.486 468.549 Q313.406 463.457 313.406 454.799 Q313.406 446.142 307.486 441.113 Q301.502 436.02 291.254 436.02 Q280.941 436.02 275.021 441.113 Q269.101 446.142 269.101 454.799 M228.806 429.273 L240.519 429.273 Q238.227 434.111 237.018 439.076 Q235.808 443.978 235.808 448.815 Q235.808 461.547 244.402 468.295 Q252.996 474.979 270.374 475.933 Q264.836 472.178 261.908 466.512 Q258.916 460.847 258.916 454.035 Q258.916 439.712 267.637 431.437 Q276.294 423.098 291.254 423.098 Q305.895 423.098 314.743 431.755 Q323.591 440.413 323.591 454.799 Q323.591 471.286 310.987 480.007 Q298.32 488.728 274.321 488.728 Q251.786 488.728 238.418 478.034 Q224.987 467.34 224.987 449.325 Q224.987 444.487 225.941 439.585 Q226.896 434.62 228.806 429.273 Z" fill="#000000" fill-rule="nonzero" fill-opacity="1" /><polyline clip-path="url(#clip832)" style="stroke:#008000; stroke-linecap:round; stroke-linejoin:round; stroke-width:8; stroke-opacity:1; fill:none" points="726.443,901.173 844.372,1018.06 962.301,940.097 1080.23,610.638 1198.16,571.993 1316.09,711.577 1434.02,726.333 1551.95,849.965 1669.87,1158.96 1787.8,966.578 1905.73,1240.32 2023.66,244.409 2141.59,755.327 2259.52,565.413 "/>
<circle clip-path="url(#clip832)" cx="726.443" cy="901.173" r="14.4" fill="#008000" fill-rule="evenodd" fill-opacity="1" stroke="#000000" stroke-opacity="1" stroke-width="6.4"/>
<circle clip-path="url(#clip832)" cx="844.372" cy="1018.06" r="14.4" fill="#008000" fill-rule="evenodd" fill-opacity="1" stroke="#000000" stroke-opacity="1" stroke-width="6.4"/>
<circle clip-path="url(#clip832)" cx="962.301" cy="940.097" r="14.4" fill="#008000" fill-rule="evenodd" fill-opacity="1" stroke="#000000" stroke-opacity="1" stroke-width="6.4"/>
<circle clip-path="url(#clip832)" cx="1080.23" cy="610.638" r="14.4" fill="#008000" fill-rule="evenodd" fill-opacity="1" stroke="#000000" stroke-opacity="1" stroke-width="6.4"/>
<circle clip-path="url(#clip832)" cx="1198.16" cy="571.993" r="14.4" fill="#008000" fill-rule="evenodd" fill-opacity="1" stroke="#000000" stroke-opacity="1" stroke-width="6.4"/>
<circle clip-path="url(#clip832)" cx="1316.09" cy="711.577" r="14.4" fill="#008000" fill-rule="evenodd" fill-opacity="1" stroke="#000000" stroke-opacity="1" stroke-width="6.4"/>
<circle clip-path="url(#clip832)" cx="1434.02" cy="726.333" r="14.4" fill="#008000" fill-rule="evenodd" fill-opacity="1" stroke="#000000" stroke-opacity="1" stroke-width="6.4"/>
<circle clip-path="url(#clip832)" cx="1551.95" cy="849.965" r="14.4" fill="#008000" fill-rule="evenodd" fill-opacity="1" stroke="#000000" stroke-opacity="1" stroke-width="6.4"/>
<circle clip-path="url(#clip832)" cx="1669.87" cy="1158.96" r="14.4" fill="#008000" fill-rule="evenodd" fill-opacity="1" stroke="#000000" stroke-opacity="1" stroke-width="6.4"/>
<circle clip-path="url(#clip832)" cx="1787.8" cy="966.578" r="14.4" fill="#008000" fill-rule="evenodd" fill-opacity="1" stroke="#000000" stroke-opacity="1" stroke-width="6.4"/>
<circle clip-path="url(#clip832)" cx="1905.73" cy="1240.32" r="14.4" fill="#008000" fill-rule="evenodd" fill-opacity="1" stroke="#000000" stroke-opacity="1" stroke-width="6.4"/>
<circle clip-path="url(#clip832)" cx="2023.66" cy="244.409" r="14.4" fill="#008000" fill-rule="evenodd" fill-opacity="1" stroke="#000000" stroke-opacity="1" stroke-width="6.4"/>
<circle clip-path="url(#clip832)" cx="2141.59" cy="755.327" r="14.4" fill="#008000" fill-rule="evenodd" fill-opacity="1" stroke="#000000" stroke-opacity="1" stroke-width="6.4"/>
<circle clip-path="url(#clip832)" cx="2259.52" cy="565.413" r="14.4" fill="#008000" fill-rule="evenodd" fill-opacity="1" stroke="#000000" stroke-opacity="1" stroke-width="6.4"/>
<polyline clip-path="url(#clip832)" style="stroke:#00008b; stroke-linecap:round; stroke-linejoin:round; stroke-width:8; stroke-opacity:1; fill:none" points="726.443,498.26 844.372,396.498 962.301,376.442 1080.23,377.494 1198.16,354.142 1316.09,353.297 1434.02,358.883 1551.95,369.836 1669.87,400.953 1787.8,431.153 1905.73,470.092 2023.66,534.545 2141.59,590.43 2259.52,656.473 "/>
<path clip-path="url(#clip832)" d="M726.443 715.817 L844.372 617.869 L962.301 588.838 L1080.23 595.336 L1198.16 581.873 L1316.09 573.216 L1434.02 582.396 L1551.95 587.516 L1669.87 628.047 L1787.8 655.978 L1905.73 690.688 L2023.66 762.792 L2141.59 809.799 L2259.52 881.911 L2259.52 430.508 L2141.59 355.395 L2023.66 294.89 L1905.73 255.092 L1787.8 208.638 L1669.87 185.325 L1551.95 152.966 L1434.02 139.341 L1316.09 145.69 L1198.16 127.862 L1080.23 158.747 L962.301 162.806 L844.372 184.595 L726.443 288.085  Z" fill="#0000ff" fill-rule="evenodd" fill-opacity="0.1"/>
<polyline clip-path="url(#clip832)" style="stroke:#0000ff; stroke-linecap:round; stroke-linejoin:round; stroke-width:0; stroke-opacity:0.1; fill:none" points="726.443,715.817 844.372,617.869 962.301,588.838 1080.23,595.336 1198.16,581.873 1316.09,573.216 1434.02,582.396 1551.95,587.516 1669.87,628.047 1787.8,655.978 1905.73,690.688 2023.66,762.792 2141.59,809.799 2259.52,881.911 "/>
</svg>
