<?xml version="1.0" encoding="utf-8"?>
<svg xmlns="http://www.w3.org/2000/svg" xmlns:xlink="http://www.w3.org/1999/xlink" width="600" height="400" viewBox="0 0 2400 1600">
<defs>
  <clipPath id="clip670">
    <rect x="0" y="0" width="2400" height="1600"/>
  </clipPath>
</defs>
<path clip-path="url(#clip670)" d="M0 1600 L2400 1600 L2400 0 L0 0  Z" fill="#ffffff" fill-rule="evenodd" fill-opacity="1"/>
<defs>
  <clipPath id="clip671">
    <rect x="480" y="0" width="1681" height="1600"/>
  </clipPath>
</defs>
<path clip-path="url(#clip670)" d="M685.08 1273.7 L2305.51 1273.7 L2305.51 94.4882 L685.08 94.4882  Z" fill="#ffffff" fill-rule="evenodd" fill-opacity="1"/>
<defs>
  <clipPath id="clip672">
    <rect x="685" y="94" width="1621" height="1180"/>
  </clipPath>
</defs>
<polyline clip-path="url(#clip672)" style="stroke:#000000; stroke-linecap:round; stroke-linejoin:round; stroke-width:4; stroke-opacity:0.1; fill:none" points="730.941,1273.7 730.941,94.4882 "/>
<polyline clip-path="url(#clip672)" style="stroke:#000000; stroke-linecap:round; stroke-linejoin:round; stroke-width:4; stroke-opacity:0.1; fill:none" points="966.127,1273.7 966.127,94.4882 "/>
<polyline clip-path="url(#clip672)" style="stroke:#000000; stroke-linecap:round; stroke-linejoin:round; stroke-width:4; stroke-opacity:0.1; fill:none" points="1201.31,1273.7 1201.31,94.4882 "/>
<polyline clip-path="url(#clip672)" style="stroke:#000000; stroke-linecap:round; stroke-linejoin:round; stroke-width:4; stroke-opacity:0.1; fill:none" points="1436.5,1273.7 1436.5,94.4882 "/>
<polyline clip-path="url(#clip672)" style="stroke:#000000; stroke-linecap:round; stroke-linejoin:round; stroke-width:4; stroke-opacity:0.1; fill:none" points="1671.69,1273.7 1671.69,94.4882 "/>
<polyline clip-path="url(#clip672)" style="stroke:#000000; stroke-linecap:round; stroke-linejoin:round; stroke-width:4; stroke-opacity:0.1; fill:none" points="1906.87,1273.7 1906.87,94.4882 "/>
<polyline clip-path="url(#clip672)" style="stroke:#000000; stroke-linecap:round; stroke-linejoin:round; stroke-width:4; stroke-opacity:0.1; fill:none" points="2142.06,1273.7 2142.06,94.4882 "/>
<polyline clip-path="url(#clip670)" style="stroke:#000000; stroke-linecap:round; stroke-linejoin:round; stroke-width:8; stroke-opacity:1; fill:none" points="685.08,1273.7 2305.51,1273.7 "/>
<polyline clip-path="url(#clip670)" style="stroke:#000000; stroke-linecap:round; stroke-linejoin:round; stroke-width:8; stroke-opacity:1; fill:none" points="730.941,1273.7 730.941,1254.8 "/>
<polyline clip-path="url(#clip670)" style="stroke:#000000; stroke-linecap:round; stroke-linejoin:round; stroke-width:8; stroke-opacity:1; fill:none" points="966.127,1273.7 966.127,1254.8 "/>
<polyline clip-path="url(#clip670)" style="stroke:#000000; stroke-linecap:round; stroke-linejoin:round; stroke-width:8; stroke-opacity:1; fill:none" points="1201.31,1273.7 1201.31,1254.8 "/>
<polyline clip-path="url(#clip670)" style="stroke:#000000; stroke-linecap:round; stroke-linejoin:round; stroke-width:8; stroke-opacity:1; fill:none" points="1436.5,1273.7 1436.5,1254.8 "/>
<polyline clip-path="url(#clip670)" style="stroke:#000000; stroke-linecap:round; stroke-linejoin:round; stroke-width:8; stroke-opacity:1; fill:none" points="1671.69,1273.7 1671.69,1254.8 "/>
<polyline clip-path="url(#clip670)" style="stroke:#000000; stroke-linecap:round; stroke-linejoin:round; stroke-width:8; stroke-opacity:1; fill:none" points="1906.87,1273.7 1906.87,1254.8 "/>
<polyline clip-path="url(#clip670)" style="stroke:#000000; stroke-linecap:round; stroke-linejoin:round; stroke-width:8; stroke-opacity:1; fill:none" points="2142.06,1273.7 2142.06,1254.8 "/>
<path clip-path="url(#clip670)" d="M685.71 1316.33 Q678.488 1316.33 674.83 1323.46 Q671.219 1330.55 671.219 1344.81 Q671.219 1359.02 674.83 1366.15 Q678.488 1373.23 685.71 1373.23 Q692.978 1373.23 696.59 1366.15 Q700.247 1359.02 700.247 1344.81 Q700.247 1330.55 696.59 1323.46 Q692.978 1316.33 685.71 1316.33 M685.71 1308.93 Q697.33 1308.93 703.441 1318.14 Q709.599 1327.31 709.599 1344.81 Q709.599 1362.26 703.441 1371.47 Q697.33 1380.64 685.71 1380.64 Q674.09 1380.64 667.932 1371.47 Q661.821 1362.26 661.821 1344.81 Q661.821 1327.31 667.932 1318.14 Q674.09 1308.93 685.71 1308.93 Z" fill="#000000" fill-rule="nonzero" fill-opacity="1" /><path clip-path="url(#clip670)" d="M726.034 1367.54 L735.802 1367.54 L735.802 1379.3 L726.034 1379.3 L726.034 1367.54 Z" fill="#000000" fill-rule="nonzero" fill-opacity="1" /><path clip-path="url(#clip670)" d="M776.172 1316.33 Q768.95 1316.33 765.293 1323.46 Q761.682 1330.55 761.682 1344.81 Q761.682 1359.02 765.293 1366.15 Q768.95 1373.23 776.172 1373.23 Q783.441 1373.23 787.052 1366.15 Q790.709 1359.02 790.709 1344.81 Q790.709 1330.55 787.052 1323.46 Q783.441 1316.33 776.172 1316.33 M776.172 1308.93 Q787.793 1308.93 793.904 1318.14 Q800.061 1327.31 800.061 1344.81 Q800.061 1362.26 793.904 1371.47 Q787.793 1380.64 776.172 1380.64 Q764.552 1380.64 758.395 1371.47 Q752.284 1362.26 752.284 1344.81 Q752.284 1327.31 758.395 1318.14 Q764.552 1308.93 776.172 1308.93 Z" fill="#000000" fill-rule="nonzero" fill-opacity="1" /><path clip-path="url(#clip670)" d="M922.493 1316.33 Q915.271 1316.33 911.614 1323.46 Q908.003 1330.55 908.003 1344.81 Q908.003 1359.02 911.614 1366.15 Q915.271 1373.23 922.493 1373.23 Q929.762 1373.23 933.373 1366.15 Q937.03 1359.02 937.03 1344.81 Q937.03 1330.55 933.373 1323.46 Q929.762 1316.33 922.493 1316.33 M922.493 1308.93 Q934.114 1308.93 940.225 1318.14 Q946.382 1327.31 946.382 1344.81 Q946.382 1362.26 940.225 1371.47 Q934.114 1380.64 922.493 1380.64 Q910.873 1380.64 904.716 1371.47 Q898.605 1362.26 898.605 1344.81 Q898.605 1327.31 904.716 1318.14 Q910.873 1308.93 922.493 1308.93 Z" fill="#000000" fill-rule="nonzero" fill-opacity="1" /><path clip-path="url(#clip670)" d="M962.817 1367.54 L972.586 1367.54 L972.586 1379.3 L962.817 1379.3 L962.817 1367.54 Z" fill="#000000" fill-rule="nonzero" fill-opacity="1" /><path clip-path="url(#clip670)" d="M1001.01 1371.43 L1033.65 1371.43 L1033.65 1379.3 L989.761 1379.3 L989.761 1371.43 Q995.085 1365.92 1004.25 1356.66 Q1013.47 1347.35 1015.83 1344.67 Q1020.32 1339.62 1022.08 1336.15 Q1023.88 1332.63 1023.88 1329.25 Q1023.88 1323.74 1019.99 1320.27 Q1016.15 1316.8 1009.95 1316.8 Q1005.55 1316.8 1000.64 1318.32 Q995.78 1319.85 990.224 1322.95 L990.224 1313.51 Q995.873 1311.24 1000.78 1310.08 Q1005.69 1308.93 1009.76 1308.93 Q1020.5 1308.93 1026.89 1314.3 Q1033.28 1319.67 1033.28 1328.65 Q1033.28 1332.91 1031.66 1336.75 Q1030.09 1340.55 1025.87 1345.73 Q1024.71 1347.07 1018.51 1353.51 Q1012.31 1359.9 1001.01 1371.43 Z" fill="#000000" fill-rule="nonzero" fill-opacity="1" /><path clip-path="url(#clip670)" d="M1155.6 1316.33 Q1148.37 1316.33 1144.72 1323.46 Q1141.11 1330.55 1141.11 1344.81 Q1141.11 1359.02 1144.72 1366.15 Q1148.37 1373.23 1155.6 1373.23 Q1162.86 1373.23 1166.48 1366.15 Q1170.13 1359.02 1170.13 1344.81 Q1170.13 1330.55 1166.48 1323.46 Q1162.86 1316.33 1155.6 1316.33 M1155.6 1308.93 Q1167.22 1308.93 1173.33 1318.14 Q1179.48 1327.31 1179.48 1344.81 Q1179.48 1362.26 1173.33 1371.47 Q1167.22 1380.64 1155.6 1380.64 Q1143.98 1380.64 1137.82 1371.47 Q1131.71 1362.26 1131.71 1344.81 Q1131.71 1327.31 1137.82 1318.14 Q1143.98 1308.93 1155.6 1308.93 Z" fill="#000000" fill-rule="nonzero" fill-opacity="1" /><path clip-path="url(#clip670)" d="M1195.92 1367.54 L1205.69 1367.54 L1205.69 1379.3 L1195.92 1379.3 L1195.92 1367.54 Z" fill="#000000" fill-rule="nonzero" fill-opacity="1" /><path clip-path="url(#clip670)" d="M1251.75 1318.32 L1228.14 1355.22 L1251.75 1355.22 L1251.75 1318.32 M1249.3 1310.18 L1261.06 1310.18 L1261.06 1355.22 L1270.92 1355.22 L1270.92 1363 L1261.06 1363 L1261.06 1379.3 L1251.75 1379.3 L1251.75 1363 L1220.55 1363 L1220.55 1353.97 L1249.3 1310.18 Z" fill="#000000" fill-rule="nonzero" fill-opacity="1" /><path clip-path="url(#clip670)" d="M1391.11 1316.33 Q1383.88 1316.33 1380.23 1323.46 Q1376.62 1330.55 1376.62 1344.81 Q1376.62 1359.02 1380.23 1366.15 Q1383.88 1373.23 1391.11 1373.23 Q1398.37 1373.23 1401.99 1366.15 Q1405.64 1359.02 1405.64 1344.81 Q1405.64 1330.55 1401.99 1323.46 Q1398.37 1316.33 1391.11 1316.33 M1391.11 1308.93 Q1402.73 1308.93 1408.84 1318.14 Q1414.99 1327.31 1414.99 1344.81 Q1414.99 1362.26 1408.84 1371.47 Q1402.73 1380.64 1391.11 1380.64 Q1379.49 1380.64 1373.33 1371.47 Q1367.22 1362.26 1367.22 1344.81 Q1367.22 1327.31 1373.33 1318.14 Q1379.49 1308.93 1391.11 1308.93 Z" fill="#000000" fill-rule="nonzero" fill-opacity="1" /><path clip-path="url(#clip670)" d="M1431.43 1367.54 L1441.2 1367.54 L1441.2 1379.3 L1431.43 1379.3 L1431.43 1367.54 Z" fill="#000000" fill-rule="nonzero" fill-opacity="1" /><path clip-path="url(#clip670)" d="M1482.73 1341.01 Q1476.43 1341.01 1472.73 1345.31 Q1469.07 1349.62 1469.07 1357.12 Q1469.07 1364.57 1472.73 1368.93 Q1476.43 1373.23 1482.73 1373.23 Q1489.02 1373.23 1492.68 1368.93 Q1496.38 1364.57 1496.38 1357.12 Q1496.38 1349.62 1492.68 1345.31 Q1489.02 1341.01 1482.73 1341.01 M1501.29 1311.7 L1501.29 1320.22 Q1497.77 1318.56 1494.16 1317.68 Q1490.6 1316.8 1487.08 1316.8 Q1477.82 1316.8 1472.91 1323.05 Q1468.05 1329.3 1467.36 1341.93 Q1470.09 1337.91 1474.21 1335.78 Q1478.33 1333.6 1483.28 1333.6 Q1493.7 1333.6 1499.72 1339.94 Q1505.78 1346.24 1505.78 1357.12 Q1505.78 1367.77 1499.49 1374.2 Q1493.19 1380.64 1482.73 1380.64 Q1470.74 1380.64 1464.39 1371.47 Q1458.05 1362.26 1458.05 1344.81 Q1458.05 1328.42 1465.83 1318.69 Q1473.61 1308.93 1486.71 1308.93 Q1490.23 1308.93 1493.79 1309.62 Q1497.4 1310.31 1501.29 1311.7 Z" fill="#000000" fill-rule="nonzero" fill-opacity="1" /><path clip-path="url(#clip670)" d="M1626.55 1316.33 Q1619.32 1316.33 1615.67 1323.46 Q1612.06 1330.55 1612.06 1344.81 Q1612.06 1359.02 1615.67 1366.15 Q1619.32 1373.23 1626.55 1373.23 Q1633.82 1373.23 1637.43 1366.15 Q1641.08 1359.02 1641.08 1344.81 Q1641.08 1330.55 1637.43 1323.46 Q1633.82 1316.33 1626.55 1316.33 M1626.55 1308.93 Q1638.17 1308.93 1644.28 1318.14 Q1650.44 1327.31 1650.44 1344.81 Q1650.44 1362.26 1644.28 1371.47 Q1638.17 1380.64 1626.55 1380.64 Q1614.93 1380.64 1608.77 1371.47 Q1602.66 1362.26 1602.66 1344.81 Q1602.66 1327.31 1608.77 1318.14 Q1614.93 1308.93 1626.55 1308.93 Z" fill="#000000" fill-rule="nonzero" fill-opacity="1" /><path clip-path="url(#clip670)" d="M1666.87 1367.54 L1676.64 1367.54 L1676.64 1379.3 L1666.87 1379.3 L1666.87 1367.54 Z" fill="#000000" fill-rule="nonzero" fill-opacity="1" /><path clip-path="url(#clip670)" d="M1717.01 1346.47 Q1710.34 1346.47 1706.5 1350.04 Q1702.7 1353.6 1702.7 1359.85 Q1702.7 1366.1 1706.5 1369.67 Q1710.34 1373.23 1717.01 1373.23 Q1723.68 1373.23 1727.52 1369.67 Q1731.36 1366.06 1731.36 1359.85 Q1731.36 1353.6 1727.52 1350.04 Q1723.72 1346.47 1717.01 1346.47 M1707.66 1342.49 Q1701.64 1341.01 1698.26 1336.89 Q1694.93 1332.77 1694.93 1326.84 Q1694.93 1318.56 1700.81 1313.74 Q1706.73 1308.93 1717.01 1308.93 Q1727.33 1308.93 1733.21 1313.74 Q1739.09 1318.56 1739.09 1326.84 Q1739.09 1332.77 1735.71 1336.89 Q1732.38 1341.01 1726.41 1342.49 Q1733.17 1344.06 1736.92 1348.65 Q1740.71 1353.23 1740.71 1359.85 Q1740.71 1369.9 1734.56 1375.27 Q1728.44 1380.64 1717.01 1380.64 Q1705.57 1380.64 1699.42 1375.27 Q1693.31 1369.9 1693.31 1359.85 Q1693.31 1353.23 1697.1 1348.65 Q1700.9 1344.06 1707.66 1342.49 M1704.23 1327.72 Q1704.23 1333.09 1707.56 1336.1 Q1710.94 1339.11 1717.01 1339.11 Q1723.03 1339.11 1726.41 1336.1 Q1729.83 1333.09 1729.83 1327.72 Q1729.83 1322.35 1726.41 1319.34 Q1723.03 1316.33 1717.01 1316.33 Q1710.94 1316.33 1707.56 1319.34 Q1704.23 1322.35 1704.23 1327.72 Z" fill="#000000" fill-rule="nonzero" fill-opacity="1" /><path clip-path="url(#clip670)" d="M1841.18 1371.43 L1856.46 1371.43 L1856.46 1318.69 L1839.83 1322.03 L1839.83 1313.51 L1856.36 1310.18 L1865.71 1310.18 L1865.71 1371.43 L1880.99 1371.43 L1880.99 1379.3 L1841.18 1379.3 L1841.18 1371.43 Z" fill="#000000" fill-rule="nonzero" fill-opacity="1" /><path clip-path="url(#clip670)" d="M1899.88 1367.54 L1909.65 1367.54 L1909.65 1379.3 L1899.88 1379.3 L1899.88 1367.54 Z" fill="#000000" fill-rule="nonzero" fill-opacity="1" /><path clip-path="url(#clip670)" d="M1950.02 1316.33 Q1942.8 1316.33 1939.14 1323.46 Q1935.53 1330.55 1935.53 1344.81 Q1935.53 1359.02 1939.14 1366.15 Q1942.8 1373.23 1950.02 1373.23 Q1957.29 1373.23 1960.9 1366.15 Q1964.56 1359.02 1964.56 1344.81 Q1964.56 1330.55 1960.9 1323.46 Q1957.29 1316.33 1950.02 1316.33 M1950.02 1308.93 Q1961.64 1308.93 1967.75 1318.14 Q1973.91 1327.31 1973.91 1344.81 Q1973.91 1362.26 1967.75 1371.47 Q1961.64 1380.64 1950.02 1380.64 Q1938.4 1380.64 1932.24 1371.47 Q1926.13 1362.26 1926.13 1344.81 Q1926.13 1327.31 1932.24 1318.14 Q1938.4 1308.93 1950.02 1308.93 Z" fill="#000000" fill-rule="nonzero" fill-opacity="1" /><path clip-path="url(#clip670)" d="M2077.96 1371.43 L2093.24 1371.43 L2093.24 1318.69 L2076.62 1322.03 L2076.62 1313.51 L2093.15 1310.18 L2102.5 1310.18 L2102.5 1371.43 L2117.78 1371.43 L2117.78 1379.3 L2077.96 1379.3 L2077.96 1371.43 Z" fill="#000000" fill-rule="nonzero" fill-opacity="1" /><path clip-path="url(#clip670)" d="M2136.66 1367.54 L2146.43 1367.54 L2146.43 1379.3 L2136.66 1379.3 L2136.66 1367.54 Z" fill="#000000" fill-rule="nonzero" fill-opacity="1" /><path clip-path="url(#clip670)" d="M2174.86 1371.43 L2207.5 1371.43 L2207.5 1379.3 L2163.61 1379.3 L2163.61 1371.43 Q2168.93 1365.92 2178.1 1356.66 Q2187.31 1347.35 2189.67 1344.67 Q2194.16 1339.62 2195.92 1336.15 Q2197.73 1332.63 2197.73 1329.25 Q2197.73 1323.74 2193.84 1320.27 Q2190 1316.8 2183.79 1316.8 Q2179.4 1316.8 2174.49 1318.32 Q2169.63 1319.85 2164.07 1322.95 L2164.07 1313.51 Q2169.72 1311.24 2174.63 1310.08 Q2179.53 1308.93 2183.61 1308.93 Q2194.35 1308.93 2200.74 1314.3 Q2207.13 1319.67 2207.13 1328.65 Q2207.13 1332.91 2205.51 1336.75 Q2203.93 1340.55 2199.72 1345.73 Q2198.56 1347.07 2192.36 1353.51 Q2186.15 1359.9 2174.86 1371.43 Z" fill="#000000" fill-rule="nonzero" fill-opacity="1" /><path clip-path="url(#clip670)" d="M1380.84 1484.39 L1380.84 1527.42 L1369.13 1527.42 L1369.13 1484.77 Q1369.13 1474.65 1365.18 1469.62 Q1361.23 1464.59 1353.34 1464.59 Q1343.86 1464.59 1338.38 1470.64 Q1332.91 1476.69 1332.91 1487.13 L1332.91 1527.42 L1321.13 1527.42 L1321.13 1428.37 L1332.91 1428.37 L1332.91 1467.2 Q1337.11 1460.77 1342.77 1457.59 Q1348.5 1454.41 1355.95 1454.41 Q1368.24 1454.41 1374.54 1462.05 Q1380.84 1469.62 1380.84 1484.39 Z" fill="#000000" fill-rule="nonzero" fill-opacity="1" /><path clip-path="url(#clip670)" d="M1431.83 1464.34 Q1422.41 1464.34 1416.93 1471.72 Q1411.46 1479.04 1411.46 1491.84 Q1411.46 1504.63 1416.87 1512.02 Q1422.34 1519.34 1431.83 1519.34 Q1441.19 1519.34 1446.66 1511.96 Q1452.14 1504.57 1452.14 1491.84 Q1452.14 1479.17 1446.66 1471.79 Q1441.19 1464.34 1431.83 1464.34 M1431.83 1454.41 Q1447.11 1454.41 1455.83 1464.34 Q1464.55 1474.27 1464.55 1491.84 Q1464.55 1509.35 1455.83 1519.34 Q1447.11 1529.27 1431.83 1529.27 Q1416.49 1529.27 1407.77 1519.34 Q1399.11 1509.35 1399.11 1491.84 Q1399.11 1474.27 1407.77 1464.34 Q1416.49 1454.41 1431.83 1454.41 Z" fill="#000000" fill-rule="nonzero" fill-opacity="1" /><path clip-path="url(#clip670)" d="M1482.76 1499.29 L1482.76 1456.13 L1494.47 1456.13 L1494.47 1498.84 Q1494.47 1508.96 1498.42 1514.06 Q1502.36 1519.08 1510.26 1519.08 Q1519.74 1519.08 1525.21 1513.04 Q1530.75 1506.99 1530.75 1496.55 L1530.75 1456.13 L1542.47 1456.13 L1542.47 1527.42 L1530.75 1527.42 L1530.75 1516.47 Q1526.49 1522.97 1520.82 1526.15 Q1515.22 1529.27 1507.77 1529.27 Q1495.49 1529.27 1489.12 1521.63 Q1482.76 1513.99 1482.76 1499.29 M1512.23 1454.41 L1512.23 1454.41 Z" fill="#000000" fill-rule="nonzero" fill-opacity="1" /><path clip-path="url(#clip670)" d="M1607.91 1467.08 Q1605.93 1465.93 1603.58 1465.42 Q1601.28 1464.85 1598.48 1464.85 Q1588.55 1464.85 1583.21 1471.34 Q1577.92 1477.77 1577.92 1489.87 L1577.92 1527.42 L1566.15 1527.42 L1566.15 1456.13 L1577.92 1456.13 L1577.92 1467.2 Q1581.61 1460.71 1587.53 1457.59 Q1593.46 1454.41 1601.92 1454.41 Q1603.13 1454.41 1604.6 1454.6 Q1606.06 1454.73 1607.84 1455.05 L1607.91 1467.08 Z" fill="#000000" fill-rule="nonzero" fill-opacity="1" /><path clip-path="url(#clip670)" d="M1665.64 1458.23 L1665.64 1469.3 Q1660.68 1466.76 1655.33 1465.49 Q1649.98 1464.21 1644.25 1464.21 Q1635.53 1464.21 1631.14 1466.89 Q1626.81 1469.56 1626.81 1474.91 Q1626.81 1478.98 1629.93 1481.34 Q1633.05 1483.63 1642.47 1485.73 L1646.48 1486.62 Q1658.96 1489.29 1664.18 1494.19 Q1669.46 1499.03 1669.46 1507.75 Q1669.46 1517.68 1661.57 1523.48 Q1653.74 1529.27 1639.99 1529.27 Q1634.26 1529.27 1628.02 1528.12 Q1621.85 1527.04 1614.97 1524.81 L1614.97 1512.72 Q1621.46 1516.09 1627.77 1517.81 Q1634.07 1519.47 1640.24 1519.47 Q1648.52 1519.47 1652.97 1516.67 Q1657.43 1513.8 1657.43 1508.64 Q1657.43 1503.87 1654.18 1501.32 Q1651 1498.78 1640.12 1496.42 L1636.04 1495.47 Q1625.16 1493.18 1620.32 1488.47 Q1615.48 1483.69 1615.48 1475.42 Q1615.48 1465.36 1622.61 1459.88 Q1629.74 1454.41 1642.85 1454.41 Q1649.35 1454.41 1655.08 1455.36 Q1660.8 1456.32 1665.64 1458.23 Z" fill="#000000" fill-rule="nonzero" fill-opacity="1" /><polyline clip-path="url(#clip672)" style="stroke:#000000; stroke-linecap:round; stroke-linejoin:round; stroke-width:4; stroke-opacity:0.1; fill:none" points="685.08,1049.77 2305.51,1049.77 "/>
<polyline clip-path="url(#clip672)" style="stroke:#000000; stroke-linecap:round; stroke-linejoin:round; stroke-width:4; stroke-opacity:0.1; fill:none" points="685.08,781.615 2305.51,781.615 "/>
<polyline clip-path="url(#clip672)" style="stroke:#000000; stroke-linecap:round; stroke-linejoin:round; stroke-width:4; stroke-opacity:0.1; fill:none" points="685.08,513.464 2305.51,513.464 "/>
<polyline clip-path="url(#clip672)" style="stroke:#000000; stroke-linecap:round; stroke-linejoin:round; stroke-width:4; stroke-opacity:0.1; fill:none" points="685.08,245.314 2305.51,245.314 "/>
<polyline clip-path="url(#clip670)" style="stroke:#000000; stroke-linecap:round; stroke-linejoin:round; stroke-width:8; stroke-opacity:1; fill:none" points="685.08,1273.7 685.08,94.4882 "/>
<polyline clip-path="url(#clip670)" style="stroke:#000000; stroke-linecap:round; stroke-linejoin:round; stroke-width:8; stroke-opacity:1; fill:none" points="685.08,1049.77 703.978,1049.77 "/>
<polyline clip-path="url(#clip670)" style="stroke:#000000; stroke-linecap:round; stroke-linejoin:round; stroke-width:8; stroke-opacity:1; fill:none" points="685.08,781.615 703.978,781.615 "/>
<polyline clip-path="url(#clip670)" style="stroke:#000000; stroke-linecap:round; stroke-linejoin:round; stroke-width:8; stroke-opacity:1; fill:none" points="685.08,513.464 703.978,513.464 "/>
<polyline clip-path="url(#clip670)" style="stroke:#000000; stroke-linecap:round; stroke-linejoin:round; stroke-width:8; stroke-opacity:1; fill:none" points="685.08,245.314 703.978,245.314 "/>
<path clip-path="url(#clip670)" d="M402.137 1076.46 L434.776 1076.46 L434.776 1084.33 L390.887 1084.33 L390.887 1076.46 Q396.211 1070.95 405.378 1061.69 Q414.59 1052.38 416.952 1049.7 Q421.442 1044.65 423.202 1041.18 Q425.007 1037.66 425.007 1034.28 Q425.007 1028.77 421.118 1025.3 Q417.276 1021.83 411.072 1021.83 Q406.674 1021.83 401.766 1023.35 Q396.905 1024.88 391.35 1027.98 L391.35 1018.54 Q396.998 1016.27 401.905 1015.11 Q406.813 1013.96 410.887 1013.96 Q421.627 1013.96 428.016 1019.33 Q434.405 1024.7 434.405 1033.68 Q434.405 1037.94 432.785 1041.78 Q431.211 1045.58 426.998 1050.76 Q425.84 1052.1 419.637 1058.54 Q413.433 1064.93 402.137 1076.46 Z" fill="#000000" fill-rule="nonzero" fill-opacity="1" /><path clip-path="url(#clip670)" d="M454.498 1015.21 L491.21 1015.21 L491.21 1023.08 L463.062 1023.08 L463.062 1040.02 Q465.099 1039.33 467.137 1039 Q469.174 1038.63 471.211 1038.63 Q482.785 1038.63 489.544 1044.97 Q496.303 1051.32 496.303 1062.15 Q496.303 1073.31 489.359 1079.51 Q482.414 1085.67 469.775 1085.67 Q465.424 1085.67 460.887 1084.93 Q456.396 1084.19 451.581 1082.71 L451.581 1073.31 Q455.748 1075.58 460.192 1076.69 Q464.637 1077.8 469.59 1077.8 Q477.599 1077.8 482.275 1073.58 Q486.951 1069.37 486.951 1062.15 Q486.951 1054.93 482.275 1050.71 Q477.599 1046.5 469.59 1046.5 Q465.84 1046.5 462.09 1047.34 Q458.387 1048.17 454.498 1049.93 L454.498 1015.21 Z" fill="#000000" fill-rule="nonzero" fill-opacity="1" /><path clip-path="url(#clip670)" d="M534.729 1021.36 Q527.507 1021.36 523.849 1028.49 Q520.238 1035.58 520.238 1049.84 Q520.238 1064.05 523.849 1071.18 Q527.507 1078.26 534.729 1078.26 Q541.997 1078.26 545.608 1071.18 Q549.266 1064.05 549.266 1049.84 Q549.266 1035.58 545.608 1028.49 Q541.997 1021.36 534.729 1021.36 M534.729 1013.96 Q546.349 1013.96 552.46 1023.17 Q558.618 1032.34 558.618 1049.84 Q558.618 1067.29 552.46 1076.5 Q546.349 1085.67 534.729 1085.67 Q523.108 1085.67 516.951 1076.5 Q510.84 1067.29 510.84 1049.84 Q510.84 1032.34 516.951 1023.17 Q523.108 1013.96 534.729 1013.96 Z" fill="#000000" fill-rule="nonzero" fill-opacity="1" /><path clip-path="url(#clip670)" d="M575.053 1072.57 L584.821 1072.57 L584.821 1084.33 L575.053 1084.33 L575.053 1072.57 Z" fill="#000000" fill-rule="nonzero" fill-opacity="1" /><path clip-path="url(#clip670)" d="M625.191 1021.36 Q617.969 1021.36 614.312 1028.49 Q610.701 1035.58 610.701 1049.84 Q610.701 1064.05 614.312 1071.18 Q617.969 1078.26 625.191 1078.26 Q632.46 1078.26 636.071 1071.18 Q639.728 1064.05 639.728 1049.84 Q639.728 1035.58 636.071 1028.49 Q632.46 1021.36 625.191 1021.36 M625.191 1013.96 Q636.812 1013.96 642.923 1023.17 Q649.08 1032.34 649.08 1049.84 Q649.08 1067.29 642.923 1076.5 Q636.812 1085.67 625.191 1085.67 Q613.571 1085.67 607.414 1076.5 Q601.302 1067.29 601.302 1049.84 Q601.302 1032.34 607.414 1023.17 Q613.571 1013.96 625.191 1013.96 Z" fill="#000000" fill-rule="nonzero" fill-opacity="1" /><path clip-path="url(#clip670)" d="M422.415 778.907 Q429.127 780.342 432.877 784.879 Q436.674 789.416 436.674 796.082 Q436.674 806.314 429.637 811.916 Q422.6 817.518 409.637 817.518 Q405.285 817.518 400.655 816.638 Q396.072 815.805 391.165 814.092 L391.165 805.064 Q395.054 807.332 399.683 808.49 Q404.313 809.647 409.359 809.647 Q418.155 809.647 422.739 806.175 Q427.368 802.703 427.368 796.082 Q427.368 789.971 423.063 786.545 Q418.803 783.073 411.165 783.073 L403.109 783.073 L403.109 775.388 L411.535 775.388 Q418.433 775.388 422.09 772.657 Q425.748 769.879 425.748 764.694 Q425.748 759.37 421.952 756.546 Q418.202 753.675 411.165 753.675 Q407.322 753.675 402.924 754.509 Q398.526 755.342 393.248 757.101 L393.248 748.768 Q398.572 747.286 403.202 746.546 Q407.878 745.805 411.998 745.805 Q422.646 745.805 428.85 750.666 Q435.053 755.481 435.053 763.722 Q435.053 769.462 431.766 773.444 Q428.479 777.379 422.415 778.907 Z" fill="#000000" fill-rule="nonzero" fill-opacity="1" /><path clip-path="url(#clip670)" d="M474.405 753.212 Q467.183 753.212 463.525 760.342 Q459.914 767.425 459.914 781.684 Q459.914 795.897 463.525 803.027 Q467.183 810.11 474.405 810.11 Q481.673 810.11 485.285 803.027 Q488.942 795.897 488.942 781.684 Q488.942 767.425 485.285 760.342 Q481.673 753.212 474.405 753.212 M474.405 745.805 Q486.025 745.805 492.136 755.018 Q498.294 764.184 498.294 781.684 Q498.294 799.138 492.136 808.351 Q486.025 817.518 474.405 817.518 Q462.785 817.518 456.627 808.351 Q450.516 799.138 450.516 781.684 Q450.516 764.184 456.627 755.018 Q462.785 745.805 474.405 745.805 Z" fill="#000000" fill-rule="nonzero" fill-opacity="1" /><path clip-path="url(#clip670)" d="M534.729 753.212 Q527.507 753.212 523.849 760.342 Q520.238 767.425 520.238 781.684 Q520.238 795.897 523.849 803.027 Q527.507 810.11 534.729 810.11 Q541.997 810.11 545.608 803.027 Q549.266 795.897 549.266 781.684 Q549.266 767.425 545.608 760.342 Q541.997 753.212 534.729 753.212 M534.729 745.805 Q546.349 745.805 552.46 755.018 Q558.618 764.184 558.618 781.684 Q558.618 799.138 552.46 808.351 Q546.349 817.518 534.729 817.518 Q523.108 817.518 516.951 808.351 Q510.84 799.138 510.84 781.684 Q510.84 764.184 516.951 755.018 Q523.108 745.805 534.729 745.805 Z" fill="#000000" fill-rule="nonzero" fill-opacity="1" /><path clip-path="url(#clip670)" d="M575.053 804.416 L584.821 804.416 L584.821 816.175 L575.053 816.175 L575.053 804.416 Z" fill="#000000" fill-rule="nonzero" fill-opacity="1" /><path clip-path="url(#clip670)" d="M625.191 753.212 Q617.969 753.212 614.312 760.342 Q610.701 767.425 610.701 781.684 Q610.701 795.897 614.312 803.027 Q617.969 810.11 625.191 810.11 Q632.46 810.11 636.071 803.027 Q639.728 795.897 639.728 781.684 Q639.728 767.425 636.071 760.342 Q632.46 753.212 625.191 753.212 M625.191 745.805 Q636.812 745.805 642.923 755.018 Q649.08 764.184 649.08 781.684 Q649.08 799.138 642.923 808.351 Q636.812 817.518 625.191 817.518 Q613.571 817.518 607.414 808.351 Q601.302 799.138 601.302 781.684 Q601.302 764.184 607.414 755.018 Q613.571 745.805 625.191 745.805 Z" fill="#000000" fill-rule="nonzero" fill-opacity="1" /><path clip-path="url(#clip670)" d="M422.415 510.756 Q429.127 512.191 432.877 516.728 Q436.674 521.265 436.674 527.932 Q436.674 538.163 429.637 543.765 Q422.6 549.367 409.637 549.367 Q405.285 549.367 400.655 548.487 Q396.072 547.654 391.165 545.941 L391.165 536.913 Q395.054 539.182 399.683 540.339 Q404.313 541.497 409.359 541.497 Q418.155 541.497 422.739 538.024 Q427.368 534.552 427.368 527.932 Q427.368 521.821 423.063 518.395 Q418.803 514.923 411.165 514.923 L403.109 514.923 L403.109 507.237 L411.535 507.237 Q418.433 507.237 422.09 504.506 Q425.748 501.728 425.748 496.543 Q425.748 491.219 421.952 488.395 Q418.202 485.525 411.165 485.525 Q407.322 485.525 402.924 486.358 Q398.526 487.191 393.248 488.951 L393.248 480.617 Q398.572 479.136 403.202 478.395 Q407.878 477.654 411.998 477.654 Q422.646 477.654 428.85 482.515 Q435.053 487.33 435.053 495.571 Q435.053 501.312 431.766 505.293 Q428.479 509.228 422.415 510.756 Z" fill="#000000" fill-rule="nonzero" fill-opacity="1" /><path clip-path="url(#clip670)" d="M454.498 478.904 L491.21 478.904 L491.21 486.775 L463.062 486.775 L463.062 503.719 Q465.099 503.025 467.137 502.7 Q469.174 502.33 471.211 502.33 Q482.785 502.33 489.544 508.673 Q496.303 515.015 496.303 525.848 Q496.303 537.006 489.359 543.209 Q482.414 549.367 469.775 549.367 Q465.424 549.367 460.887 548.626 Q456.396 547.885 451.581 546.404 L451.581 537.006 Q455.748 539.274 460.192 540.385 Q464.637 541.497 469.59 541.497 Q477.599 541.497 482.275 537.284 Q486.951 533.071 486.951 525.848 Q486.951 518.626 482.275 514.413 Q477.599 510.2 469.59 510.2 Q465.84 510.2 462.09 511.034 Q458.387 511.867 454.498 513.626 L454.498 478.904 Z" fill="#000000" fill-rule="nonzero" fill-opacity="1" /><path clip-path="url(#clip670)" d="M534.729 485.062 Q527.507 485.062 523.849 492.191 Q520.238 499.275 520.238 513.534 Q520.238 527.747 523.849 534.876 Q527.507 541.959 534.729 541.959 Q541.997 541.959 545.608 534.876 Q549.266 527.747 549.266 513.534 Q549.266 499.275 545.608 492.191 Q541.997 485.062 534.729 485.062 M534.729 477.654 Q546.349 477.654 552.46 486.867 Q558.618 496.034 558.618 513.534 Q558.618 530.987 552.46 540.2 Q546.349 549.367 534.729 549.367 Q523.108 549.367 516.951 540.2 Q510.84 530.987 510.84 513.534 Q510.84 496.034 516.951 486.867 Q523.108 477.654 534.729 477.654 Z" fill="#000000" fill-rule="nonzero" fill-opacity="1" /><path clip-path="url(#clip670)" d="M575.053 536.265 L584.821 536.265 L584.821 548.024 L575.053 548.024 L575.053 536.265 Z" fill="#000000" fill-rule="nonzero" fill-opacity="1" /><path clip-path="url(#clip670)" d="M625.191 485.062 Q617.969 485.062 614.312 492.191 Q610.701 499.275 610.701 513.534 Q610.701 527.747 614.312 534.876 Q617.969 541.959 625.191 541.959 Q632.46 541.959 636.071 534.876 Q639.728 527.747 639.728 513.534 Q639.728 499.275 636.071 492.191 Q632.46 485.062 625.191 485.062 M625.191 477.654 Q636.812 477.654 642.923 486.867 Q649.08 496.034 649.08 513.534 Q649.08 530.987 642.923 540.2 Q636.812 549.367 625.191 549.367 Q613.571 549.367 607.414 540.2 Q601.302 530.987 601.302 513.534 Q601.302 496.034 607.414 486.867 Q613.571 477.654 625.191 477.654 Z" fill="#000000" fill-rule="nonzero" fill-opacity="1" /><path clip-path="url(#clip670)" d="M419.776 218.902 L396.165 255.8 L419.776 255.8 L419.776 218.902 M417.322 210.754 L429.081 210.754 L429.081 255.8 L438.942 255.8 L438.942 263.577 L429.081 263.577 L429.081 279.874 L419.776 279.874 L419.776 263.577 L388.572 263.577 L388.572 254.55 L417.322 210.754 Z" fill="#000000" fill-rule="nonzero" fill-opacity="1" /><path clip-path="url(#clip670)" d="M474.405 216.911 Q467.183 216.911 463.525 224.041 Q459.914 231.124 459.914 245.383 Q459.914 259.596 463.525 266.726 Q467.183 273.809 474.405 273.809 Q481.673 273.809 485.285 266.726 Q488.942 259.596 488.942 245.383 Q488.942 231.124 485.285 224.041 Q481.673 216.911 474.405 216.911 M474.405 209.504 Q486.025 209.504 492.136 218.717 Q498.294 227.883 498.294 245.383 Q498.294 262.837 492.136 272.05 Q486.025 281.216 474.405 281.216 Q462.785 281.216 456.627 272.05 Q450.516 262.837 450.516 245.383 Q450.516 227.883 456.627 218.717 Q462.785 209.504 474.405 209.504 Z" fill="#000000" fill-rule="nonzero" fill-opacity="1" /><path clip-path="url(#clip670)" d="M534.729 216.911 Q527.507 216.911 523.849 224.041 Q520.238 231.124 520.238 245.383 Q520.238 259.596 523.849 266.726 Q527.507 273.809 534.729 273.809 Q541.997 273.809 545.608 266.726 Q549.266 259.596 549.266 245.383 Q549.266 231.124 545.608 224.041 Q541.997 216.911 534.729 216.911 M534.729 209.504 Q546.349 209.504 552.46 218.717 Q558.618 227.883 558.618 245.383 Q558.618 262.837 552.46 272.05 Q546.349 281.216 534.729 281.216 Q523.108 281.216 516.951 272.05 Q510.84 262.837 510.84 245.383 Q510.84 227.883 516.951 218.717 Q523.108 209.504 534.729 209.504 Z" fill="#000000" fill-rule="nonzero" fill-opacity="1" /><path clip-path="url(#clip670)" d="M575.053 268.114 L584.821 268.114 L584.821 279.874 L575.053 279.874 L575.053 268.114 Z" fill="#000000" fill-rule="nonzero" fill-opacity="1" /><path clip-path="url(#clip670)" d="M625.191 216.911 Q617.969 216.911 614.312 224.041 Q610.701 231.124 610.701 245.383 Q610.701 259.596 614.312 266.726 Q617.969 273.809 625.191 273.809 Q632.46 273.809 636.071 266.726 Q639.728 259.596 639.728 245.383 Q639.728 231.124 636.071 224.041 Q632.46 216.911 625.191 216.911 M625.191 209.504 Q636.812 209.504 642.923 218.717 Q649.08 227.883 649.08 245.383 Q649.08 262.837 642.923 272.05 Q636.812 281.216 625.191 281.216 Q613.571 281.216 607.414 272.05 Q601.302 262.837 601.302 245.383 Q601.302 227.883 607.414 218.717 Q613.571 209.504 625.191 209.504 Z" fill="#000000" fill-rule="nonzero" fill-opacity="1" /><path clip-path="url(#clip670)" d="M313.366 930.89 L351.178 930.89 L351.178 942.667 L252.764 942.667 L252.764 930.89 L263.586 930.89 Q257.22 927.198 254.165 921.596 Q251.045 915.931 251.045 908.101 Q251.045 895.115 261.358 887.031 Q271.67 878.883 288.476 878.883 Q305.281 878.883 315.594 887.031 Q325.906 895.115 325.906 908.101 Q325.906 915.931 322.851 921.596 Q319.731 927.198 313.366 930.89 M288.476 891.041 Q275.553 891.041 268.233 896.388 Q260.849 901.672 260.849 910.966 Q260.849 920.26 268.233 925.607 Q275.553 930.89 288.476 930.89 Q301.398 930.89 308.782 925.607 Q316.103 920.26 316.103 910.966 Q316.103 901.672 308.782 896.388 Q301.398 891.041 288.476 891.041 Z" fill="#000000" fill-rule="nonzero" fill-opacity="1" /><path clip-path="url(#clip670)" d="M288.221 827.066 Q288.221 841.261 291.468 846.736 Q294.714 852.21 302.544 852.21 Q308.782 852.21 312.475 848.136 Q316.103 843.999 316.103 836.933 Q316.103 827.193 309.228 821.337 Q302.289 815.416 290.831 815.416 L288.221 815.416 L288.221 827.066 M283.383 803.704 L324.06 803.704 L324.06 815.416 L313.238 815.416 Q319.731 819.427 322.851 825.411 Q325.906 831.394 325.906 840.052 Q325.906 851.001 319.795 857.494 Q313.62 863.923 303.308 863.923 Q291.277 863.923 285.166 855.902 Q279.055 847.818 279.055 831.84 L279.055 815.416 L277.909 815.416 Q269.824 815.416 265.432 820.764 Q260.976 826.047 260.976 835.659 Q260.976 841.771 262.44 847.563 Q263.904 853.356 266.832 858.703 L256.011 858.703 Q253.528 852.274 252.319 846.227 Q251.045 840.179 251.045 834.45 Q251.045 818.981 259.066 811.342 Q267.087 803.704 283.383 803.704 Z" fill="#000000" fill-rule="nonzero" fill-opacity="1" /><path clip-path="url(#clip670)" d="M263.713 738.264 Q262.567 740.238 262.058 742.593 Q261.485 744.884 261.485 747.685 Q261.485 757.616 267.978 762.963 Q274.408 768.247 286.502 768.247 L324.06 768.247 L324.06 780.023 L252.764 780.023 L252.764 768.247 L263.841 768.247 Q257.348 764.555 254.228 758.634 Q251.045 752.714 251.045 744.248 Q251.045 743.038 251.236 741.574 Q251.364 740.11 251.682 738.328 L263.713 738.264 Z" fill="#000000" fill-rule="nonzero" fill-opacity="1" /><path clip-path="url(#clip670)" d="M285.484 667.859 L291.213 667.859 L291.213 721.713 Q303.308 720.949 309.674 714.456 Q315.976 707.9 315.976 696.25 Q315.976 689.503 314.321 683.201 Q312.666 676.835 309.355 670.597 L320.432 670.597 Q323.105 676.899 324.506 683.519 Q325.906 690.139 325.906 696.951 Q325.906 714.011 315.976 724.005 Q306.045 733.935 289.112 733.935 Q271.607 733.935 261.358 724.514 Q251.045 715.029 251.045 698.988 Q251.045 684.601 260.339 676.262 Q269.57 667.859 285.484 667.859 M282.046 679.572 Q272.434 679.7 266.705 684.983 Q260.976 690.203 260.976 698.86 Q260.976 708.664 266.514 714.584 Q272.052 720.44 282.11 721.331 L282.046 679.572 Z" fill="#000000" fill-rule="nonzero" fill-opacity="1" /><path clip-path="url(#clip670)" d="M281.028 589.37 L324.06 589.37 L324.06 601.083 L281.41 601.083 Q271.288 601.083 266.259 605.03 Q261.231 608.977 261.231 616.87 Q261.231 626.355 267.278 631.83 Q273.325 637.304 283.765 637.304 L324.06 637.304 L324.06 649.081 L252.764 649.081 L252.764 637.304 L263.841 637.304 Q257.411 633.103 254.228 627.437 Q251.045 621.708 251.045 614.26 Q251.045 601.974 258.684 595.672 Q266.259 589.37 281.028 589.37 Z" fill="#000000" fill-rule="nonzero" fill-opacity="1" /><path clip-path="url(#clip670)" d="M307.891 564.353 L307.891 550.921 L324.06 550.921 L324.06 564.353 L307.891 564.353 Z" fill="#000000" fill-rule="nonzero" fill-opacity="1" /><path clip-path="url(#clip670)" d="M313.238 470.395 L313.238 425.517 L324.06 425.517 L324.06 485.864 L313.238 485.864 Q305.663 478.543 292.932 465.939 Q280.137 453.271 276.445 450.025 Q269.506 443.85 264.732 441.431 Q259.894 438.949 255.247 438.949 Q247.672 438.949 242.897 444.296 Q238.123 449.579 238.123 458.109 Q238.123 464.157 240.224 470.904 Q242.324 477.588 246.589 485.227 L233.603 485.227 Q230.484 477.461 228.893 470.713 Q227.301 463.966 227.301 458.364 Q227.301 443.596 234.686 434.811 Q242.07 426.026 254.419 426.026 Q260.276 426.026 265.559 428.254 Q270.779 430.419 277.909 436.211 Q279.755 437.803 288.603 446.333 Q297.388 454.863 313.238 470.395 Z" fill="#000000" fill-rule="nonzero" fill-opacity="1" /><polyline clip-path="url(#clip672)" style="stroke:#008000; stroke-linecap:round; stroke-linejoin:round; stroke-width:8; stroke-opacity:1; fill:none" points="730.941,127.862 848.534,168.015 966.127,352.776 1083.72,428.422 1201.31,400.591 1318.91,505.488 1436.5,588.086 1554.09,741.734 1671.69,848.019 1789.28,964.84 1906.87,930.413 2024.46,979.53 2142.06,940.68 2259.65,868.316 "/>
<circle clip-path="url(#clip672)" cx="730.941" cy="127.862" r="14.4" fill="#008000" fill-rule="evenodd" fill-opacity="1" stroke="#000000" stroke-opacity="1" stroke-width="6.4"/>
<circle clip-path="url(#clip672)" cx="848.534" cy="168.015" r="14.4" fill="#008000" fill-rule="evenodd" fill-opacity="1" stroke="#000000" stroke-opacity="1" stroke-width="6.4"/>
<circle clip-path="url(#clip672)" cx="966.127" cy="352.776" r="14.4" fill="#008000" fill-rule="evenodd" fill-opacity="1" stroke="#000000" stroke-opacity="1" stroke-width="6.4"/>
<circle clip-path="url(#clip672)" cx="1083.72" cy="428.422" r="14.4" fill="#008000" fill-rule="evenodd" fill-opacity="1" stroke="#000000" stroke-opacity="1" stroke-width="6.4"/>
<circle clip-path="url(#clip672)" cx="1201.31" cy="400.591" r="14.4" fill="#008000" fill-rule="evenodd" fill-opacity="1" stroke="#000000" stroke-opacity="1" stroke-width="6.4"/>
<circle clip-path="url(#clip672)" cx="1318.91" cy="505.488" r="14.4" fill="#008000" fill-rule="evenodd" fill-opacity="1" stroke="#000000" stroke-opacity="1" stroke-width="6.4"/>
<circle clip-path="url(#clip672)" cx="1436.5" cy="588.086" r="14.4" fill="#008000" fill-rule="evenodd" fill-opacity="1" stroke="#000000" stroke-opacity="1" stroke-width="6.4"/>
<circle clip-path="url(#clip672)" cx="1554.09" cy="741.734" r="14.4" fill="#008000" fill-rule="evenodd" fill-opacity="1" stroke="#000000" stroke-opacity="1" stroke-width="6.4"/>
<circle clip-path="url(#clip672)" cx="1671.69" cy="848.019" r="14.4" fill="#008000" fill-rule="evenodd" fill-opacity="1" stroke="#000000" stroke-opacity="1" stroke-width="6.4"/>
<circle clip-path="url(#clip672)" cx="1789.28" cy="964.84" r="14.4" fill="#008000" fill-rule="evenodd" fill-opacity="1" stroke="#000000" stroke-opacity="1" stroke-width="6.4"/>
<circle clip-path="url(#clip672)" cx="1906.87" cy="930.413" r="14.4" fill="#008000" fill-rule="evenodd" fill-opacity="1" stroke="#000000" stroke-opacity="1" stroke-width="6.4"/>
<circle clip-path="url(#clip672)" cx="2024.46" cy="979.53" r="14.4" fill="#008000" fill-rule="evenodd" fill-opacity="1" stroke="#000000" stroke-opacity="1" stroke-width="6.4"/>
<circle clip-path="url(#clip672)" cx="2142.06" cy="940.68" r="14.4" fill="#008000" fill-rule="evenodd" fill-opacity="1" stroke="#000000" stroke-opacity="1" stroke-width="6.4"/>
<circle clip-path="url(#clip672)" cx="2259.65" cy="868.316" r="14.4" fill="#008000" fill-rule="evenodd" fill-opacity="1" stroke="#000000" stroke-opacity="1" stroke-width="6.4"/>
<polyline clip-path="url(#clip672)" style="stroke:#00008b; stroke-linecap:round; stroke-linejoin:round; stroke-width:8; stroke-opacity:1; fill:none" points="730.941,230.946 848.534,367.97 966.127,491.798 1083.72,593.044 1201.31,683.014 1318.91,761.778 1436.5,828.733 1554.09,891.029 1671.69,948.449 1789.28,1004.82 1906.87,1049.05 2024.46,1095.33 2142.06,1136.26 2259.65,1179.17 "/>
<path clip-path="url(#clip672)" d="M730.941 290.778 L848.534 427.045 L966.127 547.57 L1083.72 651.522 L1201.31 741.201 L1318.91 822.429 L1436.5 887.037 L1554.09 952.331 L1671.69 1008.6 L1789.28 1063.96 L1906.87 1109.29 L2024.46 1155.06 L2142.06 1195.29 L2259.65 1240.32 L2259.65 1115.82 L2142.06 1079.73 L2024.46 1035.62 L1906.87 989.176 L1789.28 944.284 L1671.69 888.844 L1554.09 827.656 L1436.5 766.731 L1318.91 703.108 L1201.31 623.624 L1083.72 532.211 L966.127 431.823 L848.534 307.44 L730.941 170.718  Z" fill="#0000ff" fill-rule="evenodd" fill-opacity="0.1"/>
<polyline clip-path="url(#clip672)" style="stroke:#0000ff; stroke-linecap:round; stroke-linejoin:round; stroke-width:0; stroke-opacity:0.1; fill:none" points="730.941,290.778 848.534,427.045 966.127,547.57 1083.72,651.522 1201.31,741.201 1318.91,822.429 1436.5,887.037 1554.09,952.331 1671.69,1008.6 1789.28,1063.96 1906.87,1109.29 2024.46,1155.06 2142.06,1195.29 2259.65,1240.32 "/>
</svg>
