<?xml version="1.0" encoding="utf-8"?>
<svg xmlns="http://www.w3.org/2000/svg" xmlns:xlink="http://www.w3.org/1999/xlink" width="600" height="400" viewBox="0 0 2400 1600">
<defs>
  <clipPath id="clip790">
    <rect x="0" y="0" width="2400" height="1600"/>
  </clipPath>
</defs>
<path clip-path="url(#clip790)" d="M0 1600 L2400 1600 L2400 0 L0 0  Z" fill="#ffffff" fill-rule="evenodd" fill-opacity="1"/>
<defs>
  <clipPath id="clip791">
    <rect x="480" y="0" width="1681" height="1600"/>
  </clipPath>
</defs>
<path clip-path="url(#clip790)" d="M685.08 1273.7 L2305.51 1273.7 L2305.51 94.4882 L685.08 94.4882  Z" fill="#ffffff" fill-rule="evenodd" fill-opacity="1"/>
<defs>
  <clipPath id="clip792">
    <rect x="685" y="94" width="1621" height="1180"/>
  </clipPath>
</defs>
<polyline clip-path="url(#clip792)" style="stroke:#000000; stroke-linecap:round; stroke-linejoin:round; stroke-width:4; stroke-opacity:0.1; fill:none" points="730.941,1273.7 730.941,94.4882 "/>
<polyline clip-path="url(#clip792)" style="stroke:#000000; stroke-linecap:round; stroke-linejoin:round; stroke-width:4; stroke-opacity:0.1; fill:none" points="966.127,1273.7 966.127,94.4882 "/>
<polyline clip-path="url(#clip792)" style="stroke:#000000; stroke-linecap:round; stroke-linejoin:round; stroke-width:4; stroke-opacity:0.1; fill:none" points="1201.31,1273.7 1201.31,94.4882 "/>
<polyline clip-path="url(#clip792)" style="stroke:#000000; stroke-linecap:round; stroke-linejoin:round; stroke-width:4; stroke-opacity:0.1; fill:none" points="1436.5,1273.7 1436.5,94.4882 "/>
<polyline clip-path="url(#clip792)" style="stroke:#000000; stroke-linecap:round; stroke-linejoin:round; stroke-width:4; stroke-opacity:0.1; fill:none" points="1671.69,1273.7 1671.69,94.4882 "/>
<polyline clip-path="url(#clip792)" style="stroke:#000000; stroke-linecap:round; stroke-linejoin:round; stroke-width:4; stroke-opacity:0.1; fill:none" points="1906.87,1273.7 1906.87,94.4882 "/>
<polyline clip-path="url(#clip792)" style="stroke:#000000; stroke-linecap:round; stroke-linejoin:round; stroke-width:4; stroke-opacity:0.1; fill:none" points="2142.06,1273.7 2142.06,94.4882 "/>
<polyline clip-path="url(#clip790)" style="stroke:#000000; stroke-linecap:round; stroke-linejoin:round; stroke-width:8; stroke-opacity:1; fill:none" points="685.08,1273.7 2305.51,1273.7 "/>
<polyline clip-path="url(#clip790)" style="stroke:#000000; stroke-linecap:round; stroke-linejoin:round; stroke-width:8; stroke-opacity:1; fill:none" points="730.941,1273.7 730.941,1254.8 "/>
<polyline clip-path="url(#clip790)" style="stroke:#000000; stroke-linecap:round; stroke-linejoin:round; stroke-width:8; stroke-opacity:1; fill:none" points="966.127,1273.7 966.127,1254.8 "/>
<polyline clip-path="url(#clip790)" style="stroke:#000000; stroke-linecap:round; stroke-linejoin:round; stroke-width:8; stroke-opacity:1; fill:none" points="1201.31,1273.7 1201.31,1254.8 "/>
<polyline clip-path="url(#clip790)" style="stroke:#000000; stroke-linecap:round; stroke-linejoin:round; stroke-width:8; stroke-opacity:1; fill:none" points="1436.5,1273.7 1436.5,1254.8 "/>
<polyline clip-path="url(#clip790)" style="stroke:#000000; stroke-linecap:round; stroke-linejoin:round; stroke-width:8; stroke-opacity:1; fill:none" points="1671.69,1273.7 1671.69,1254.8 "/>
<polyline clip-path="url(#clip790)" style="stroke:#000000; stroke-linecap:round; stroke-linejoin:round; stroke-width:8; stroke-opacity:1; fill:none" points="1906.87,1273.7 1906.87,1254.8 "/>
<polyline clip-path="url(#clip790)" style="stroke:#000000; stroke-linecap:round; stroke-linejoin:round; stroke-width:8; stroke-opacity:1; fill:none" points="2142.06,1273.7 2142.06,1254.8 "/>
<path clip-path="url(#clip790)" d="M685.71 1316.33 Q678.488 1316.33 674.83 1323.46 Q671.219 1330.55 671.219 1344.81 Q671.219 1359.02 674.83 1366.15 Q678.488 1373.23 685.71 1373.23 Q692.978 1373.23 696.59 1366.15 Q700.247 1359.02 700.247 1344.81 Q700.247 1330.55 696.59 1323.46 Q692.978 1316.33 685.71 1316.33 M685.71 1308.93 Q697.33 1308.93 703.441 1318.14 Q709.599 1327.31 709.599 1344.81 Q709.599 1362.26 703.441 1371.47 Q697.33 1380.64 685.71 1380.64 Q674.09 1380.64 667.932 1371.47 Q661.821 1362.26 661.821 1344.81 Q661.821 1327.31 667.932 1318.14 Q674.09 1308.93 685.71 1308.93 Z" fill="#000000" fill-rule="nonzero" fill-opacity="1" /><path clip-path="url(#clip790)" d="M726.034 1367.54 L735.802 1367.54 L735.802 1379.3 L726.034 1379.3 L726.034 1367.54 Z" fill="#000000" fill-rule="nonzero" fill-opacity="1" /><path clip-path="url(#clip790)" d="M776.172 1316.33 Q768.95 1316.33 765.293 1323.46 Q761.682 1330.55 761.682 1344.81 Q761.682 1359.02 765.293 1366.15 Q768.95 1373.23 776.172 1373.23 Q783.441 1373.23 787.052 1366.15 Q790.709 1359.02 790.709 1344.81 Q790.709 1330.55 787.052 1323.46 Q783.441 1316.33 776.172 1316.33 M776.172 1308.93 Q787.793 1308.93 793.904 1318.14 Q800.061 1327.31 800.061 1344.81 Q800.061 1362.26 793.904 1371.47 Q787.793 1380.64 776.172 1380.64 Q764.552 1380.64 758.395 1371.47 Q752.284 1362.26 752.284 1344.81 Q752.284 1327.31 758.395 1318.14 Q764.552 1308.93 776.172 1308.93 Z" fill="#000000" fill-rule="nonzero" fill-opacity="1" /><path clip-path="url(#clip790)" d="M922.493 1316.33 Q915.271 1316.33 911.614 1323.46 Q908.003 1330.55 908.003 1344.81 Q908.003 1359.02 911.614 1366.15 Q915.271 1373.23 922.493 1373.23 Q929.762 1373.23 933.373 1366.15 Q937.03 1359.02 937.03 1344.81 Q937.03 1330.55 933.373 1323.46 Q929.762 1316.33 922.493 1316.33 M922.493 1308.93 Q934.114 1308.93 940.225 1318.14 Q946.382 1327.31 946.382 1344.81 Q946.382 1362.26 940.225 1371.47 Q934.114 1380.64 922.493 1380.64 Q910.873 1380.64 904.716 1371.47 Q898.605 1362.26 898.605 1344.81 Q898.605 1327.31 904.716 1318.14 Q910.873 1308.93 922.493 1308.93 Z" fill="#000000" fill-rule="nonzero" fill-opacity="1" /><path clip-path="url(#clip790)" d="M962.817 1367.54 L972.586 1367.54 L972.586 1379.3 L962.817 1379.3 L962.817 1367.54 Z" fill="#000000" fill-rule="nonzero" fill-opacity="1" /><path clip-path="url(#clip790)" d="M1001.01 1371.43 L1033.65 1371.43 L1033.65 1379.3 L989.761 1379.3 L989.761 1371.43 Q995.085 1365.92 1004.25 1356.66 Q1013.47 1347.35 1015.83 1344.67 Q1020.32 1339.62 1022.08 1336.15 Q1023.88 1332.63 1023.88 1329.25 Q1023.88 1323.74 1019.99 1320.27 Q1016.15 1316.8 1009.95 1316.8 Q1005.55 1316.8 1000.64 1318.32 Q995.78 1319.85 990.224 1322.95 L990.224 1313.51 Q995.873 1311.24 1000.78 1310.08 Q1005.69 1308.93 1009.76 1308.93 Q1020.5 1308.93 1026.89 1314.3 Q1033.28 1319.67 1033.28 1328.65 Q1033.28 1332.91 1031.66 1336.75 Q1030.09 1340.55 1025.87 1345.73 Q1024.71 1347.07 1018.51 1353.51 Q1012.31 1359.9 1001.01 1371.43 Z" fill="#000000" fill-rule="nonzero" fill-opacity="1" /><path clip-path="url(#clip790)" d="M1155.6 1316.33 Q1148.37 1316.33 1144.72 1323.46 Q1141.11 1330.55 1141.11 1344.81 Q1141.11 1359.02 1144.72 1366.15 Q1148.37 1373.23 1155.6 1373.23 Q1162.86 1373.23 1166.48 1366.15 Q1170.13 1359.02 1170.13 1344.81 Q1170.13 1330.55 1166.48 1323.46 Q1162.86 1316.33 1155.6 1316.33 M1155.6 1308.93 Q1167.22 1308.93 1173.33 1318.14 Q1179.48 1327.31 1179.48 1344.81 Q1179.48 1362.26 1173.33 1371.47 Q1167.22 1380.64 1155.6 1380.64 Q1143.98 1380.64 1137.82 1371.47 Q1131.71 1362.26 1131.71 1344.81 Q1131.71 1327.31 1137.82 1318.14 Q1143.98 1308.93 1155.6 1308.93 Z" fill="#000000" fill-rule="nonzero" fill-opacity="1" /><path clip-path="url(#clip790)" d="M1195.92 1367.54 L1205.69 1367.54 L1205.69 1379.3 L1195.92 1379.3 L1195.92 1367.54 Z" fill="#000000" fill-rule="nonzero" fill-opacity="1" /><path clip-path="url(#clip790)" d="M1251.75 1318.32 L1228.14 1355.22 L1251.75 1355.22 L1251.75 1318.32 M1249.3 1310.18 L1261.06 1310.18 L1261.06 1355.22 L1270.92 1355.22 L1270.92 1363 L1261.06 1363 L1261.06 1379.3 L1251.75 1379.3 L1251.75 1363 L1220.55 1363 L1220.55 1353.97 L1249.3 1310.18 Z" fill="#000000" fill-rule="nonzero" fill-opacity="1" /><path clip-path="url(#clip790)" d="M1391.11 1316.33 Q1383.88 1316.33 1380.23 1323.46 Q1376.62 1330.55 1376.62 1344.81 Q1376.62 1359.02 1380.23 1366.15 Q1383.88 1373.23 1391.11 1373.23 Q1398.37 1373.23 1401.99 1366.15 Q1405.64 1359.02 1405.64 1344.81 Q1405.64 1330.55 1401.99 1323.46 Q1398.37 1316.33 1391.11 1316.33 M1391.11 1308.93 Q1402.73 1308.93 1408.84 1318.14 Q1414.99 1327.31 1414.99 1344.81 Q1414.99 1362.26 1408.84 1371.47 Q1402.73 1380.64 1391.11 1380.64 Q1379.49 1380.64 1373.33 1371.47 Q1367.22 1362.26 1367.22 1344.81 Q1367.22 1327.31 1373.33 1318.14 Q1379.49 1308.93 1391.11 1308.93 Z" fill="#000000" fill-rule="nonzero" fill-opacity="1" /><path clip-path="url(#clip790)" d="M1431.43 1367.54 L1441.2 1367.54 L1441.2 1379.3 L1431.43 1379.3 L1431.43 1367.54 Z" fill="#000000" fill-rule="nonzero" fill-opacity="1" /><path clip-path="url(#clip790)" d="M1482.73 1341.01 Q1476.43 1341.01 1472.73 1345.31 Q1469.07 1349.62 1469.07 1357.12 Q1469.07 1364.57 1472.73 1368.93 Q1476.43 1373.23 1482.73 1373.23 Q1489.02 1373.23 1492.68 1368.93 Q1496.38 1364.57 1496.38 1357.12 Q1496.38 1349.62 1492.68 1345.31 Q1489.02 1341.01 1482.73 1341.01 M1501.29 1311.7 L1501.29 1320.22 Q1497.77 1318.56 1494.16 1317.68 Q1490.6 1316.8 1487.08 1316.8 Q1477.82 1316.8 1472.91 1323.05 Q1468.05 1329.3 1467.36 1341.93 Q1470.09 1337.91 1474.21 1335.78 Q1478.33 1333.6 1483.28 1333.6 Q1493.7 1333.6 1499.72 1339.94 Q1505.78 1346.24 1505.78 1357.12 Q1505.78 1367.77 1499.49 1374.2 Q1493.19 1380.64 1482.73 1380.64 Q1470.74 1380.64 1464.39 1371.47 Q1458.05 1362.26 1458.05 1344.81 Q1458.05 1328.42 1465.83 1318.69 Q1473.61 1308.93 1486.71 1308.93 Q1490.23 1308.93 1493.79 1309.62 Q1497.4 1310.31 1501.29 1311.7 Z" fill="#000000" fill-rule="nonzero" fill-opacity="1" /><path clip-path="url(#clip790)" d="M1626.55 1316.33 Q1619.32 1316.33 1615.67 1323.46 Q1612.06 1330.55 1612.06 1344.81 Q1612.06 1359.02 1615.67 1366.15 Q1619.32 1373.23 1626.55 1373.23 Q1633.82 1373.23 1637.43 1366.15 Q1641.08 1359.02 1641.08 1344.81 Q1641.08 1330.55 1637.43 1323.46 Q1633.82 1316.33 1626.55 1316.33 M1626.55 1308.93 Q1638.17 1308.93 1644.28 1318.14 Q1650.44 1327.31 1650.44 1344.81 Q1650.44 1362.26 1644.28 1371.47 Q1638.17 1380.64 1626.55 1380.64 Q1614.93 1380.64 1608.77 1371.47 Q1602.66 1362.26 1602.66 1344.81 Q1602.66 1327.31 1608.77 1318.14 Q1614.93 1308.93 1626.55 1308.93 Z" fill="#000000" fill-rule="nonzero" fill-opacity="1" /><path clip-path="url(#clip790)" d="M1666.87 1367.54 L1676.64 1367.54 L1676.64 1379.3 L1666.87 1379.3 L1666.87 1367.54 Z" fill="#000000" fill-rule="nonzero" fill-opacity="1" /><path clip-path="url(#clip790)" d="M1717.01 1346.47 Q1710.34 1346.47 1706.5 1350.04 Q1702.7 1353.6 1702.7 1359.85 Q1702.7 1366.1 1706.5 1369.67 Q1710.34 1373.23 1717.01 1373.23 Q1723.68 1373.23 1727.52 1369.67 Q1731.36 1366.06 1731.36 1359.85 Q1731.36 1353.6 1727.52 1350.04 Q1723.72 1346.47 1717.01 1346.47 M1707.66 1342.49 Q1701.64 1341.01 1698.26 1336.89 Q1694.93 1332.77 1694.93 1326.84 Q1694.93 1318.56 1700.81 1313.74 Q1706.73 1308.93 1717.01 1308.93 Q1727.33 1308.93 1733.21 1313.74 Q1739.09 1318.56 1739.09 1326.84 Q1739.09 1332.77 1735.71 1336.89 Q1732.38 1341.01 1726.41 1342.49 Q1733.17 1344.06 1736.92 1348.65 Q1740.71 1353.23 1740.71 1359.85 Q1740.71 1369.9 1734.56 1375.27 Q1728.44 1380.64 1717.01 1380.64 Q1705.57 1380.64 1699.42 1375.27 Q1693.31 1369.9 1693.31 1359.85 Q1693.31 1353.23 1697.1 1348.65 Q1700.9 1344.06 1707.66 1342.49 M1704.23 1327.72 Q1704.23 1333.09 1707.56 1336.1 Q1710.94 1339.11 1717.01 1339.11 Q1723.03 1339.11 1726.41 1336.1 Q1729.83 1333.09 1729.83 1327.72 Q1729.83 1322.35 1726.41 1319.34 Q1723.03 1316.33 1717.01 1316.33 Q1710.94 1316.33 1707.56 1319.34 Q1704.23 1322.35 1704.23 1327.72 Z" fill="#000000" fill-rule="nonzero" fill-opacity="1" /><path clip-path="url(#clip790)" d="M1841.18 1371.43 L1856.46 1371.43 L1856.46 1318.69 L1839.83 1322.03 L1839.83 1313.51 L1856.36 1310.18 L1865.71 1310.18 L1865.71 1371.43 L1880.99 1371.43 L1880.99 1379.3 L1841.18 1379.3 L1841.18 1371.43 Z" fill="#000000" fill-rule="nonzero" fill-opacity="1" /><path clip-path="url(#clip790)" d="M1899.88 1367.54 L1909.65 1367.54 L1909.65 1379.3 L1899.88 1379.3 L1899.88 1367.54 Z" fill="#000000" fill-rule="nonzero" fill-opacity="1" /><path clip-path="url(#clip790)" d="M1950.02 1316.33 Q1942.8 1316.33 1939.14 1323.46 Q1935.53 1330.55 1935.53 1344.81 Q1935.53 1359.02 1939.14 1366.15 Q1942.8 1373.23 1950.02 1373.23 Q1957.29 1373.23 1960.9 1366.15 Q1964.56 1359.02 1964.56 1344.81 Q1964.56 1330.55 1960.9 1323.46 Q1957.29 1316.33 1950.02 1316.33 M1950.02 1308.93 Q1961.64 1308.93 1967.75 1318.14 Q1973.91 1327.31 1973.91 1344.81 Q1973.91 1362.26 1967.75 1371.47 Q1961.64 1380.64 1950.02 1380.64 Q1938.4 1380.64 1932.24 1371.47 Q1926.13 1362.26 1926.13 1344.81 Q1926.13 1327.31 1932.24 1318.14 Q1938.4 1308.93 1950.02 1308.93 Z" fill="#000000" fill-rule="nonzero" fill-opacity="1" /><path clip-path="url(#clip790)" d="M2077.96 1371.43 L2093.24 1371.43 L2093.24 1318.69 L2076.62 1322.03 L2076.62 1313.51 L2093.15 1310.18 L2102.5 1310.18 L2102.5 1371.43 L2117.78 1371.43 L2117.78 1379.3 L2077.96 1379.3 L2077.96 1371.43 Z" fill="#000000" fill-rule="nonzero" fill-opacity="1" /><path clip-path="url(#clip790)" d="M2136.66 1367.54 L2146.43 1367.54 L2146.43 1379.3 L2136.66 1379.3 L2136.66 1367.54 Z" fill="#000000" fill-rule="nonzero" fill-opacity="1" /><path clip-path="url(#clip790)" d="M2174.86 1371.43 L2207.5 1371.43 L2207.5 1379.3 L2163.61 1379.3 L2163.61 1371.43 Q2168.93 1365.92 2178.1 1356.66 Q2187.31 1347.35 2189.67 1344.67 Q2194.16 1339.62 2195.92 1336.15 Q2197.73 1332.63 2197.73 1329.25 Q2197.73 1323.74 2193.84 1320.27 Q2190 1316.8 2183.79 1316.8 Q2179.4 1316.8 2174.49 1318.32 Q2169.63 1319.85 2164.07 1322.95 L2164.07 1313.51 Q2169.72 1311.24 2174.63 1310.08 Q2179.53 1308.93 2183.61 1308.93 Q2194.35 1308.93 2200.74 1314.3 Q2207.13 1319.67 2207.13 1328.65 Q2207.13 1332.91 2205.51 1336.75 Q2203.93 1340.55 2199.72 1345.73 Q2198.56 1347.07 2192.36 1353.51 Q2186.15 1359.9 2174.86 1371.43 Z" fill="#000000" fill-rule="nonzero" fill-opacity="1" /><path clip-path="url(#clip790)" d="M1380.84 1484.39 L1380.84 1527.42 L1369.13 1527.42 L1369.13 1484.77 Q1369.13 1474.65 1365.18 1469.62 Q1361.23 1464.59 1353.34 1464.59 Q1343.86 1464.59 1338.38 1470.64 Q1332.91 1476.69 1332.91 1487.13 L1332.91 1527.42 L1321.13 1527.42 L1321.13 1428.37 L1332.91 1428.37 L1332.91 1467.2 Q1337.11 1460.77 1342.77 1457.59 Q1348.5 1454.41 1355.95 1454.41 Q1368.24 1454.41 1374.54 1462.05 Q1380.84 1469.62 1380.84 1484.39 Z" fill="#000000" fill-rule="nonzero" fill-opacity="1" /><path clip-path="url(#clip790)" d="M1431.83 1464.34 Q1422.41 1464.34 1416.93 1471.72 Q1411.46 1479.04 1411.46 1491.84 Q1411.46 1504.63 1416.87 1512.02 Q1422.34 1519.34 1431.83 1519.34 Q1441.19 1519.34 1446.66 1511.96 Q1452.14 1504.57 1452.14 1491.84 Q1452.14 1479.17 1446.66 1471.79 Q1441.19 1464.34 1431.83 1464.34 M1431.83 1454.41 Q1447.11 1454.41 1455.83 1464.34 Q1464.55 1474.27 1464.55 1491.84 Q1464.55 1509.35 1455.83 1519.34 Q1447.11 1529.27 1431.83 1529.27 Q1416.49 1529.27 1407.77 1519.34 Q1399.11 1509.35 1399.11 1491.84 Q1399.11 1474.27 1407.77 1464.34 Q1416.49 1454.41 1431.83 1454.41 Z" fill="#000000" fill-rule="nonzero" fill-opacity="1" /><path clip-path="url(#clip790)" d="M1482.76 1499.29 L1482.76 1456.13 L1494.47 1456.13 L1494.47 1498.84 Q1494.47 1508.96 1498.42 1514.06 Q1502.36 1519.08 1510.26 1519.08 Q1519.74 1519.08 1525.21 1513.04 Q1530.75 1506.99 1530.75 1496.55 L1530.75 1456.13 L1542.47 1456.13 L1542.47 1527.42 L1530.75 1527.42 L1530.75 1516.47 Q1526.49 1522.97 1520.82 1526.15 Q1515.22 1529.27 1507.77 1529.27 Q1495.49 1529.27 1489.12 1521.63 Q1482.76 1513.99 1482.76 1499.29 M1512.23 1454.41 L1512.23 1454.41 Z" fill="#000000" fill-rule="nonzero" fill-opacity="1" /><path clip-path="url(#clip790)" d="M1607.91 1467.08 Q1605.93 1465.93 1603.58 1465.42 Q1601.28 1464.85 1598.48 1464.85 Q1588.55 1464.85 1583.21 1471.34 Q1577.92 1477.77 1577.92 1489.87 L1577.92 1527.42 L1566.15 1527.42 L1566.15 1456.13 L1577.92 1456.13 L1577.92 1467.2 Q1581.61 1460.71 1587.53 1457.59 Q1593.46 1454.41 1601.92 1454.41 Q1603.13 1454.41 1604.6 1454.6 Q1606.06 1454.73 1607.84 1455.05 L1607.91 1467.08 Z" fill="#000000" fill-rule="nonzero" fill-opacity="1" /><path clip-path="url(#clip790)" d="M1665.64 1458.23 L1665.64 1469.3 Q1660.68 1466.76 1655.33 1465.49 Q1649.98 1464.21 1644.25 1464.21 Q1635.53 1464.21 1631.14 1466.89 Q1626.81 1469.56 1626.81 1474.91 Q1626.81 1478.98 1629.93 1481.34 Q1633.05 1483.63 1642.47 1485.73 L1646.48 1486.62 Q1658.96 1489.29 1664.18 1494.19 Q1669.46 1499.03 1669.46 1507.75 Q1669.46 1517.68 1661.57 1523.48 Q1653.74 1529.27 1639.99 1529.27 Q1634.26 1529.27 1628.02 1528.12 Q1621.85 1527.04 1614.97 1524.81 L1614.97 1512.72 Q1621.46 1516.09 1627.77 1517.81 Q1634.07 1519.47 1640.24 1519.47 Q1648.52 1519.47 1652.97 1516.67 Q1657.43 1513.8 1657.43 1508.64 Q1657.43 1503.87 1654.18 1501.32 Q1651 1498.78 1640.12 1496.42 L1636.04 1495.47 Q1625.16 1493.18 1620.32 1488.47 Q1615.48 1483.69 1615.48 1475.42 Q1615.48 1465.36 1622.61 1459.88 Q1629.74 1454.41 1642.85 1454.41 Q1649.35 1454.41 1655.08 1455.36 Q1660.8 1456.32 1665.64 1458.23 Z" fill="#000000" fill-rule="nonzero" fill-opacity="1" /><polyline clip-path="url(#clip792)" style="stroke:#000000; stroke-linecap:round; stroke-linejoin:round; stroke-width:4; stroke-opacity:0.1; fill:none" points="685.08,1135.66 2305.51,1135.66 "/>
<polyline clip-path="url(#clip792)" style="stroke:#000000; stroke-linecap:round; stroke-linejoin:round; stroke-width:4; stroke-opacity:0.1; fill:none" points="685.08,901.747 2305.51,901.747 "/>
<polyline clip-path="url(#clip792)" style="stroke:#000000; stroke-linecap:round; stroke-linejoin:round; stroke-width:4; stroke-opacity:0.1; fill:none" points="685.08,667.831 2305.51,667.831 "/>
<polyline clip-path="url(#clip792)" style="stroke:#000000; stroke-linecap:round; stroke-linejoin:round; stroke-width:4; stroke-opacity:0.1; fill:none" points="685.08,433.916 2305.51,433.916 "/>
<polyline clip-path="url(#clip792)" style="stroke:#000000; stroke-linecap:round; stroke-linejoin:round; stroke-width:4; stroke-opacity:0.1; fill:none" points="685.08,200.001 2305.51,200.001 "/>
<polyline clip-path="url(#clip790)" style="stroke:#000000; stroke-linecap:round; stroke-linejoin:round; stroke-width:8; stroke-opacity:1; fill:none" points="685.08,1273.7 685.08,94.4882 "/>
<polyline clip-path="url(#clip790)" style="stroke:#000000; stroke-linecap:round; stroke-linejoin:round; stroke-width:8; stroke-opacity:1; fill:none" points="685.08,1135.66 703.978,1135.66 "/>
<polyline clip-path="url(#clip790)" style="stroke:#000000; stroke-linecap:round; stroke-linejoin:round; stroke-width:8; stroke-opacity:1; fill:none" points="685.08,901.747 703.978,901.747 "/>
<polyline clip-path="url(#clip790)" style="stroke:#000000; stroke-linecap:round; stroke-linejoin:round; stroke-width:8; stroke-opacity:1; fill:none" points="685.08,667.831 703.978,667.831 "/>
<polyline clip-path="url(#clip790)" style="stroke:#000000; stroke-linecap:round; stroke-linejoin:round; stroke-width:8; stroke-opacity:1; fill:none" points="685.08,433.916 703.978,433.916 "/>
<polyline clip-path="url(#clip790)" style="stroke:#000000; stroke-linecap:round; stroke-linejoin:round; stroke-width:8; stroke-opacity:1; fill:none" points="685.08,200.001 703.978,200.001 "/>
<path clip-path="url(#clip790)" d="M422.415 1132.95 Q429.127 1134.39 432.877 1138.93 Q436.674 1143.46 436.674 1150.13 Q436.674 1160.36 429.637 1165.96 Q422.6 1171.56 409.637 1171.56 Q405.285 1171.56 400.655 1170.68 Q396.072 1169.85 391.165 1168.14 L391.165 1159.11 Q395.054 1161.38 399.683 1162.54 Q404.313 1163.69 409.359 1163.69 Q418.155 1163.69 422.739 1160.22 Q427.368 1156.75 427.368 1150.13 Q427.368 1144.02 423.063 1140.59 Q418.803 1137.12 411.165 1137.12 L403.109 1137.12 L403.109 1129.44 L411.535 1129.44 Q418.433 1129.44 422.09 1126.7 Q425.748 1123.93 425.748 1118.74 Q425.748 1113.42 421.952 1110.59 Q418.202 1107.72 411.165 1107.72 Q407.322 1107.72 402.924 1108.56 Q398.526 1109.39 393.248 1111.15 L393.248 1102.81 Q398.572 1101.33 403.202 1100.59 Q407.878 1099.85 411.998 1099.85 Q422.646 1099.85 428.85 1104.71 Q435.053 1109.53 435.053 1117.77 Q435.053 1123.51 431.766 1127.49 Q428.479 1131.43 422.415 1132.95 Z" fill="#000000" fill-rule="nonzero" fill-opacity="1" /><path clip-path="url(#clip790)" d="M462.461 1162.35 L495.099 1162.35 L495.099 1170.22 L451.211 1170.22 L451.211 1162.35 Q456.535 1156.84 465.701 1147.58 Q474.914 1138.28 477.275 1135.59 Q481.766 1130.55 483.525 1127.07 Q485.331 1123.56 485.331 1120.18 Q485.331 1114.67 481.442 1111.19 Q477.599 1107.72 471.396 1107.72 Q466.998 1107.72 462.09 1109.25 Q457.229 1110.78 451.674 1113.88 L451.674 1104.44 Q457.322 1102.17 462.229 1101.01 Q467.137 1099.85 471.211 1099.85 Q481.951 1099.85 488.34 1105.22 Q494.729 1110.59 494.729 1119.57 Q494.729 1123.83 493.109 1127.68 Q491.535 1131.47 487.322 1136.66 Q486.164 1138 479.961 1144.44 Q473.757 1150.82 462.461 1162.35 Z" fill="#000000" fill-rule="nonzero" fill-opacity="1" /><path clip-path="url(#clip790)" d="M534.729 1107.26 Q527.507 1107.26 523.849 1114.39 Q520.238 1121.47 520.238 1135.73 Q520.238 1149.94 523.849 1157.07 Q527.507 1164.16 534.729 1164.16 Q541.997 1164.16 545.608 1157.07 Q549.266 1149.94 549.266 1135.73 Q549.266 1121.47 545.608 1114.39 Q541.997 1107.26 534.729 1107.26 M534.729 1099.85 Q546.349 1099.85 552.46 1109.06 Q558.618 1118.23 558.618 1135.73 Q558.618 1153.19 552.46 1162.4 Q546.349 1171.56 534.729 1171.56 Q523.108 1171.56 516.951 1162.4 Q510.84 1153.19 510.84 1135.73 Q510.84 1118.23 516.951 1109.06 Q523.108 1099.85 534.729 1099.85 Z" fill="#000000" fill-rule="nonzero" fill-opacity="1" /><path clip-path="url(#clip790)" d="M575.053 1158.46 L584.821 1158.46 L584.821 1170.22 L575.053 1170.22 L575.053 1158.46 Z" fill="#000000" fill-rule="nonzero" fill-opacity="1" /><path clip-path="url(#clip790)" d="M625.191 1107.26 Q617.969 1107.26 614.312 1114.39 Q610.701 1121.47 610.701 1135.73 Q610.701 1149.94 614.312 1157.07 Q617.969 1164.16 625.191 1164.16 Q632.46 1164.16 636.071 1157.07 Q639.728 1149.94 639.728 1135.73 Q639.728 1121.47 636.071 1114.39 Q632.46 1107.26 625.191 1107.26 M625.191 1099.85 Q636.812 1099.85 642.923 1109.06 Q649.08 1118.23 649.08 1135.73 Q649.08 1153.19 642.923 1162.4 Q636.812 1171.56 625.191 1171.56 Q613.571 1171.56 607.414 1162.4 Q601.302 1153.19 601.302 1135.73 Q601.302 1118.23 607.414 1109.06 Q613.571 1099.85 625.191 1099.85 Z" fill="#000000" fill-rule="nonzero" fill-opacity="1" /><path clip-path="url(#clip790)" d="M422.415 899.038 Q429.127 900.473 432.877 905.011 Q436.674 909.548 436.674 916.214 Q436.674 926.446 429.637 932.047 Q422.6 937.649 409.637 937.649 Q405.285 937.649 400.655 936.77 Q396.072 935.936 391.165 934.223 L391.165 925.196 Q395.054 927.464 399.683 928.621 Q404.313 929.779 409.359 929.779 Q418.155 929.779 422.739 926.307 Q427.368 922.834 427.368 916.214 Q427.368 910.103 423.063 906.677 Q418.803 903.205 411.165 903.205 L403.109 903.205 L403.109 895.52 L411.535 895.52 Q418.433 895.52 422.09 892.788 Q425.748 890.011 425.748 884.825 Q425.748 879.501 421.952 876.677 Q418.202 873.807 411.165 873.807 Q407.322 873.807 402.924 874.64 Q398.526 875.474 393.248 877.233 L393.248 868.9 Q398.572 867.418 403.202 866.677 Q407.878 865.937 411.998 865.937 Q422.646 865.937 428.85 870.798 Q435.053 875.613 435.053 883.853 Q435.053 889.594 431.766 893.575 Q428.479 897.511 422.415 899.038 Z" fill="#000000" fill-rule="nonzero" fill-opacity="1" /><path clip-path="url(#clip790)" d="M480.099 875.335 L456.488 912.233 L480.099 912.233 L480.099 875.335 M477.646 867.187 L489.405 867.187 L489.405 912.233 L499.266 912.233 L499.266 920.01 L489.405 920.01 L489.405 936.307 L480.099 936.307 L480.099 920.01 L448.896 920.01 L448.896 910.983 L477.646 867.187 Z" fill="#000000" fill-rule="nonzero" fill-opacity="1" /><path clip-path="url(#clip790)" d="M534.729 873.344 Q527.507 873.344 523.849 880.474 Q520.238 887.557 520.238 901.816 Q520.238 916.029 523.849 923.159 Q527.507 930.242 534.729 930.242 Q541.997 930.242 545.608 923.159 Q549.266 916.029 549.266 901.816 Q549.266 887.557 545.608 880.474 Q541.997 873.344 534.729 873.344 M534.729 865.937 Q546.349 865.937 552.46 875.15 Q558.618 884.316 558.618 901.816 Q558.618 919.27 552.46 928.483 Q546.349 937.649 534.729 937.649 Q523.108 937.649 516.951 928.483 Q510.84 919.27 510.84 901.816 Q510.84 884.316 516.951 875.15 Q523.108 865.937 534.729 865.937 Z" fill="#000000" fill-rule="nonzero" fill-opacity="1" /><path clip-path="url(#clip790)" d="M575.053 924.547 L584.821 924.547 L584.821 936.307 L575.053 936.307 L575.053 924.547 Z" fill="#000000" fill-rule="nonzero" fill-opacity="1" /><path clip-path="url(#clip790)" d="M625.191 873.344 Q617.969 873.344 614.312 880.474 Q610.701 887.557 610.701 901.816 Q610.701 916.029 614.312 923.159 Q617.969 930.242 625.191 930.242 Q632.46 930.242 636.071 923.159 Q639.728 916.029 639.728 901.816 Q639.728 887.557 636.071 880.474 Q632.46 873.344 625.191 873.344 M625.191 865.937 Q636.812 865.937 642.923 875.15 Q649.08 884.316 649.08 901.816 Q649.08 919.27 642.923 928.483 Q636.812 937.649 625.191 937.649 Q613.571 937.649 607.414 928.483 Q601.302 919.27 601.302 901.816 Q601.302 884.316 607.414 875.15 Q613.571 865.937 625.191 865.937 Z" fill="#000000" fill-rule="nonzero" fill-opacity="1" /><path clip-path="url(#clip790)" d="M422.415 665.123 Q429.127 666.558 432.877 671.095 Q436.674 675.632 436.674 682.299 Q436.674 692.53 429.637 698.132 Q422.6 703.734 409.637 703.734 Q405.285 703.734 400.655 702.854 Q396.072 702.021 391.165 700.308 L391.165 691.28 Q395.054 693.549 399.683 694.706 Q404.313 695.864 409.359 695.864 Q418.155 695.864 422.739 692.391 Q427.368 688.919 427.368 682.299 Q427.368 676.188 423.063 672.762 Q418.803 669.29 411.165 669.29 L403.109 669.29 L403.109 661.604 L411.535 661.604 Q418.433 661.604 422.09 658.873 Q425.748 656.095 425.748 650.91 Q425.748 645.586 421.952 642.762 Q418.202 639.892 411.165 639.892 Q407.322 639.892 402.924 640.725 Q398.526 641.558 393.248 643.318 L393.248 634.984 Q398.572 633.503 403.202 632.762 Q407.878 632.021 411.998 632.021 Q422.646 632.021 428.85 636.882 Q435.053 641.697 435.053 649.938 Q435.053 655.679 431.766 659.66 Q428.479 663.595 422.415 665.123 Z" fill="#000000" fill-rule="nonzero" fill-opacity="1" /><path clip-path="url(#clip790)" d="M475.562 664.104 Q469.266 664.104 465.562 668.41 Q461.905 672.716 461.905 680.215 Q461.905 687.669 465.562 692.021 Q469.266 696.327 475.562 696.327 Q481.859 696.327 485.516 692.021 Q489.22 687.669 489.22 680.215 Q489.22 672.716 485.516 668.41 Q481.859 664.104 475.562 664.104 M494.127 634.799 L494.127 643.318 Q490.609 641.651 486.998 640.771 Q483.433 639.892 479.914 639.892 Q470.655 639.892 465.748 646.142 Q460.887 652.392 460.192 665.03 Q462.924 661.003 467.044 658.873 Q471.164 656.697 476.118 656.697 Q486.535 656.697 492.553 663.04 Q498.618 669.336 498.618 680.215 Q498.618 690.864 492.322 697.299 Q486.025 703.734 475.562 703.734 Q463.572 703.734 457.229 694.567 Q450.887 685.354 450.887 667.901 Q450.887 651.512 458.664 641.79 Q466.442 632.021 479.544 632.021 Q483.062 632.021 486.627 632.716 Q490.238 633.41 494.127 634.799 Z" fill="#000000" fill-rule="nonzero" fill-opacity="1" /><path clip-path="url(#clip790)" d="M534.729 639.429 Q527.507 639.429 523.849 646.558 Q520.238 653.642 520.238 667.901 Q520.238 682.114 523.849 689.243 Q527.507 696.327 534.729 696.327 Q541.997 696.327 545.608 689.243 Q549.266 682.114 549.266 667.901 Q549.266 653.642 545.608 646.558 Q541.997 639.429 534.729 639.429 M534.729 632.021 Q546.349 632.021 552.46 641.234 Q558.618 650.401 558.618 667.901 Q558.618 685.354 552.46 694.567 Q546.349 703.734 534.729 703.734 Q523.108 703.734 516.951 694.567 Q510.84 685.354 510.84 667.901 Q510.84 650.401 516.951 641.234 Q523.108 632.021 534.729 632.021 Z" fill="#000000" fill-rule="nonzero" fill-opacity="1" /><path clip-path="url(#clip790)" d="M575.053 690.632 L584.821 690.632 L584.821 702.391 L575.053 702.391 L575.053 690.632 Z" fill="#000000" fill-rule="nonzero" fill-opacity="1" /><path clip-path="url(#clip790)" d="M625.191 639.429 Q617.969 639.429 614.312 646.558 Q610.701 653.642 610.701 667.901 Q610.701 682.114 614.312 689.243 Q617.969 696.327 625.191 696.327 Q632.46 696.327 636.071 689.243 Q639.728 682.114 639.728 667.901 Q639.728 653.642 636.071 646.558 Q632.46 639.429 625.191 639.429 M625.191 632.021 Q636.812 632.021 642.923 641.234 Q649.08 650.401 649.08 667.901 Q649.08 685.354 642.923 694.567 Q636.812 703.734 625.191 703.734 Q613.571 703.734 607.414 694.567 Q601.302 685.354 601.302 667.901 Q601.302 650.401 607.414 641.234 Q613.571 632.021 625.191 632.021 Z" fill="#000000" fill-rule="nonzero" fill-opacity="1" /><path clip-path="url(#clip790)" d="M422.415 431.208 Q429.127 432.643 432.877 437.18 Q436.674 441.717 436.674 448.383 Q436.674 458.615 429.637 464.217 Q422.6 469.819 409.637 469.819 Q405.285 469.819 400.655 468.939 Q396.072 468.106 391.165 466.393 L391.165 457.365 Q395.054 459.633 399.683 460.791 Q404.313 461.948 409.359 461.948 Q418.155 461.948 422.739 458.476 Q427.368 455.004 427.368 448.383 Q427.368 442.272 423.063 438.847 Q418.803 435.374 411.165 435.374 L403.109 435.374 L403.109 427.689 L411.535 427.689 Q418.433 427.689 422.09 424.958 Q425.748 422.18 425.748 416.995 Q425.748 411.671 421.952 408.847 Q418.202 405.976 411.165 405.976 Q407.322 405.976 402.924 406.81 Q398.526 407.643 393.248 409.402 L393.248 401.069 Q398.572 399.587 403.202 398.847 Q407.878 398.106 411.998 398.106 Q422.646 398.106 428.85 402.967 Q435.053 407.782 435.053 416.023 Q435.053 421.763 431.766 425.745 Q428.479 429.68 422.415 431.208 Z" fill="#000000" fill-rule="nonzero" fill-opacity="1" /><path clip-path="url(#clip790)" d="M474.405 435.652 Q467.738 435.652 463.896 439.217 Q460.1 442.782 460.1 449.032 Q460.1 455.282 463.896 458.846 Q467.738 462.411 474.405 462.411 Q481.072 462.411 484.914 458.846 Q488.757 455.235 488.757 449.032 Q488.757 442.782 484.914 439.217 Q481.118 435.652 474.405 435.652 M465.053 431.671 Q459.035 430.189 455.655 426.069 Q452.322 421.948 452.322 416.023 Q452.322 407.736 458.201 402.921 Q464.127 398.106 474.405 398.106 Q484.729 398.106 490.609 402.921 Q496.488 407.736 496.488 416.023 Q496.488 421.948 493.109 426.069 Q489.775 430.189 483.803 431.671 Q490.562 433.245 494.312 437.828 Q498.109 442.411 498.109 449.032 Q498.109 459.078 491.951 464.448 Q485.84 469.819 474.405 469.819 Q462.97 469.819 456.812 464.448 Q450.701 459.078 450.701 449.032 Q450.701 442.411 454.498 437.828 Q458.294 433.245 465.053 431.671 M461.627 416.902 Q461.627 422.273 464.961 425.282 Q468.34 428.291 474.405 428.291 Q480.423 428.291 483.803 425.282 Q487.229 422.273 487.229 416.902 Q487.229 411.532 483.803 408.523 Q480.423 405.513 474.405 405.513 Q468.34 405.513 464.961 408.523 Q461.627 411.532 461.627 416.902 Z" fill="#000000" fill-rule="nonzero" fill-opacity="1" /><path clip-path="url(#clip790)" d="M534.729 405.513 Q527.507 405.513 523.849 412.643 Q520.238 419.726 520.238 433.985 Q520.238 448.198 523.849 455.328 Q527.507 462.411 534.729 462.411 Q541.997 462.411 545.608 455.328 Q549.266 448.198 549.266 433.985 Q549.266 419.726 545.608 412.643 Q541.997 405.513 534.729 405.513 M534.729 398.106 Q546.349 398.106 552.46 407.319 Q558.618 416.486 558.618 433.985 Q558.618 451.439 552.46 460.652 Q546.349 469.819 534.729 469.819 Q523.108 469.819 516.951 460.652 Q510.84 451.439 510.84 433.985 Q510.84 416.486 516.951 407.319 Q523.108 398.106 534.729 398.106 Z" fill="#000000" fill-rule="nonzero" fill-opacity="1" /><path clip-path="url(#clip790)" d="M575.053 456.717 L584.821 456.717 L584.821 468.476 L575.053 468.476 L575.053 456.717 Z" fill="#000000" fill-rule="nonzero" fill-opacity="1" /><path clip-path="url(#clip790)" d="M625.191 405.513 Q617.969 405.513 614.312 412.643 Q610.701 419.726 610.701 433.985 Q610.701 448.198 614.312 455.328 Q617.969 462.411 625.191 462.411 Q632.46 462.411 636.071 455.328 Q639.728 448.198 639.728 433.985 Q639.728 419.726 636.071 412.643 Q632.46 405.513 625.191 405.513 M625.191 398.106 Q636.812 398.106 642.923 407.319 Q649.08 416.486 649.08 433.985 Q649.08 451.439 642.923 460.652 Q636.812 469.819 625.191 469.819 Q613.571 469.819 607.414 460.652 Q601.302 451.439 601.302 433.985 Q601.302 416.486 607.414 407.319 Q613.571 398.106 625.191 398.106 Z" fill="#000000" fill-rule="nonzero" fill-opacity="1" /><path clip-path="url(#clip790)" d="M419.776 173.589 L396.165 210.487 L419.776 210.487 L419.776 173.589 M417.322 165.441 L429.081 165.441 L429.081 210.487 L438.942 210.487 L438.942 218.264 L429.081 218.264 L429.081 234.561 L419.776 234.561 L419.776 218.264 L388.572 218.264 L388.572 209.237 L417.322 165.441 Z" fill="#000000" fill-rule="nonzero" fill-opacity="1" /><path clip-path="url(#clip790)" d="M474.405 171.598 Q467.183 171.598 463.525 178.728 Q459.914 185.811 459.914 200.07 Q459.914 214.283 463.525 221.413 Q467.183 228.496 474.405 228.496 Q481.673 228.496 485.285 221.413 Q488.942 214.283 488.942 200.07 Q488.942 185.811 485.285 178.728 Q481.673 171.598 474.405 171.598 M474.405 164.191 Q486.025 164.191 492.136 173.404 Q498.294 182.57 498.294 200.07 Q498.294 217.524 492.136 226.737 Q486.025 235.903 474.405 235.903 Q462.785 235.903 456.627 226.737 Q450.516 217.524 450.516 200.07 Q450.516 182.57 456.627 173.404 Q462.785 164.191 474.405 164.191 Z" fill="#000000" fill-rule="nonzero" fill-opacity="1" /><path clip-path="url(#clip790)" d="M534.729 171.598 Q527.507 171.598 523.849 178.728 Q520.238 185.811 520.238 200.07 Q520.238 214.283 523.849 221.413 Q527.507 228.496 534.729 228.496 Q541.997 228.496 545.608 221.413 Q549.266 214.283 549.266 200.07 Q549.266 185.811 545.608 178.728 Q541.997 171.598 534.729 171.598 M534.729 164.191 Q546.349 164.191 552.46 173.404 Q558.618 182.57 558.618 200.07 Q558.618 217.524 552.46 226.737 Q546.349 235.903 534.729 235.903 Q523.108 235.903 516.951 226.737 Q510.84 217.524 510.84 200.07 Q510.84 182.57 516.951 173.404 Q523.108 164.191 534.729 164.191 Z" fill="#000000" fill-rule="nonzero" fill-opacity="1" /><path clip-path="url(#clip790)" d="M575.053 222.801 L584.821 222.801 L584.821 234.561 L575.053 234.561 L575.053 222.801 Z" fill="#000000" fill-rule="nonzero" fill-opacity="1" /><path clip-path="url(#clip790)" d="M625.191 171.598 Q617.969 171.598 614.312 178.728 Q610.701 185.811 610.701 200.07 Q610.701 214.283 614.312 221.413 Q617.969 228.496 625.191 228.496 Q632.46 228.496 636.071 221.413 Q639.728 214.283 639.728 200.07 Q639.728 185.811 636.071 178.728 Q632.46 171.598 625.191 171.598 M625.191 164.191 Q636.812 164.191 642.923 173.404 Q649.08 182.57 649.08 200.07 Q649.08 217.524 642.923 226.737 Q636.812 235.903 625.191 235.903 Q613.571 235.903 607.414 226.737 Q601.302 217.524 601.302 200.07 Q601.302 182.57 607.414 173.404 Q613.571 164.191 625.191 164.191 Z" fill="#000000" fill-rule="nonzero" fill-opacity="1" /><path clip-path="url(#clip790)" d="M313.366 931.718 L351.178 931.718 L351.178 943.495 L252.764 943.495 L252.764 931.718 L263.586 931.718 Q257.22 928.026 254.165 922.424 Q251.045 916.759 251.045 908.929 Q251.045 895.943 261.358 887.858 Q271.67 879.71 288.476 879.71 Q305.281 879.71 315.594 887.858 Q325.906 895.943 325.906 908.929 Q325.906 916.759 322.851 922.424 Q319.731 928.026 313.366 931.718 M288.476 891.869 Q275.553 891.869 268.233 897.216 Q260.849 902.499 260.849 911.793 Q260.849 921.087 268.233 926.434 Q275.553 931.718 288.476 931.718 Q301.398 931.718 308.782 926.434 Q316.103 921.087 316.103 911.793 Q316.103 902.499 308.782 897.216 Q301.398 891.869 288.476 891.869 Z" fill="#000000" fill-rule="nonzero" fill-opacity="1" /><path clip-path="url(#clip790)" d="M288.221 827.893 Q288.221 842.089 291.468 847.563 Q294.714 853.038 302.544 853.038 Q308.782 853.038 312.475 848.964 Q316.103 844.826 316.103 837.76 Q316.103 828.021 309.228 822.164 Q302.289 816.244 290.831 816.244 L288.221 816.244 L288.221 827.893 M283.383 804.531 L324.06 804.531 L324.06 816.244 L313.238 816.244 Q319.731 820.254 322.851 826.238 Q325.906 832.222 325.906 840.879 Q325.906 851.828 319.795 858.321 Q313.62 864.751 303.308 864.751 Q291.277 864.751 285.166 856.73 Q279.055 848.645 279.055 832.668 L279.055 816.244 L277.909 816.244 Q269.824 816.244 265.432 821.591 Q260.976 826.875 260.976 836.487 Q260.976 842.598 262.44 848.391 Q263.904 854.184 266.832 859.531 L256.011 859.531 Q253.528 853.101 252.319 847.054 Q251.045 841.007 251.045 835.278 Q251.045 819.809 259.066 812.17 Q267.087 804.531 283.383 804.531 Z" fill="#000000" fill-rule="nonzero" fill-opacity="1" /><path clip-path="url(#clip790)" d="M263.713 739.092 Q262.567 741.065 262.058 743.42 Q261.485 745.712 261.485 748.513 Q261.485 758.443 267.978 763.791 Q274.408 769.074 286.502 769.074 L324.06 769.074 L324.06 780.851 L252.764 780.851 L252.764 769.074 L263.841 769.074 Q257.348 765.382 254.228 759.462 Q251.045 753.542 251.045 745.075 Q251.045 743.866 251.236 742.402 Q251.364 740.938 251.682 739.155 L263.713 739.092 Z" fill="#000000" fill-rule="nonzero" fill-opacity="1" /><path clip-path="url(#clip790)" d="M285.484 668.687 L291.213 668.687 L291.213 722.541 Q303.308 721.777 309.674 715.284 Q315.976 708.727 315.976 697.078 Q315.976 690.33 314.321 684.028 Q312.666 677.663 309.355 671.424 L320.432 671.424 Q323.105 677.726 324.506 684.347 Q325.906 690.967 325.906 697.778 Q325.906 714.838 315.976 724.832 Q306.045 734.763 289.112 734.763 Q271.607 734.763 261.358 725.342 Q251.045 715.857 251.045 699.815 Q251.045 685.429 260.339 677.09 Q269.57 668.687 285.484 668.687 M282.046 680.4 Q272.434 680.527 266.705 685.811 Q260.976 691.031 260.976 699.688 Q260.976 709.491 266.514 715.411 Q272.052 721.268 282.11 722.159 L282.046 680.4 Z" fill="#000000" fill-rule="nonzero" fill-opacity="1" /><path clip-path="url(#clip790)" d="M281.028 590.198 L324.06 590.198 L324.06 601.911 L281.41 601.911 Q271.288 601.911 266.259 605.857 Q261.231 609.804 261.231 617.698 Q261.231 627.183 267.278 632.657 Q273.325 638.132 283.765 638.132 L324.06 638.132 L324.06 649.908 L252.764 649.908 L252.764 638.132 L263.841 638.132 Q257.411 633.93 254.228 628.265 Q251.045 622.536 251.045 615.088 Q251.045 602.802 258.684 596.5 Q266.259 590.198 281.028 590.198 Z" fill="#000000" fill-rule="nonzero" fill-opacity="1" /><path clip-path="url(#clip790)" d="M307.891 565.181 L307.891 551.749 L324.06 551.749 L324.06 565.181 L307.891 565.181 Z" fill="#000000" fill-rule="nonzero" fill-opacity="1" /><path clip-path="url(#clip790)" d="M229.02 482.172 L229.02 431.692 L239.842 431.692 L239.842 470.395 L263.14 470.395 Q262.185 467.594 261.74 464.793 Q261.231 461.992 261.231 459.192 Q261.231 443.277 269.952 433.983 Q278.673 424.689 293.568 424.689 Q308.91 424.689 317.44 434.238 Q325.906 443.787 325.906 461.165 Q325.906 467.149 324.888 473.387 Q323.869 479.562 321.832 486.182 L308.91 486.182 Q312.029 480.453 313.557 474.342 Q315.084 468.231 315.084 461.42 Q315.084 450.407 309.292 443.978 Q303.499 437.548 293.568 437.548 Q283.638 437.548 277.845 443.978 Q272.052 450.407 272.052 461.42 Q272.052 466.576 273.198 471.732 Q274.344 476.825 276.763 482.172 L229.02 482.172 Z" fill="#000000" fill-rule="nonzero" fill-opacity="1" /><polyline clip-path="url(#clip792)" style="stroke:#008000; stroke-linecap:round; stroke-linejoin:round; stroke-width:8; stroke-opacity:1; fill:none" points="730.941,238.923 848.534,407.836 966.127,284.901 1083.72,575.481 1201.31,480.076 1318.91,738.456 1436.5,687.409 1554.09,919.268 1671.69,962.241 1789.28,1167.77 1906.87,1237.14 2024.46,780.819 2142.06,1014.84 2259.65,1107.92 "/>
<circle clip-path="url(#clip792)" cx="730.941" cy="238.923" r="14.4" fill="#008000" fill-rule="evenodd" fill-opacity="1" stroke="#000000" stroke-opacity="1" stroke-width="6.4"/>
<circle clip-path="url(#clip792)" cx="848.534" cy="407.836" r="14.4" fill="#008000" fill-rule="evenodd" fill-opacity="1" stroke="#000000" stroke-opacity="1" stroke-width="6.4"/>
<circle clip-path="url(#clip792)" cx="966.127" cy="284.901" r="14.4" fill="#008000" fill-rule="evenodd" fill-opacity="1" stroke="#000000" stroke-opacity="1" stroke-width="6.4"/>
<circle clip-path="url(#clip792)" cx="1083.72" cy="575.481" r="14.4" fill="#008000" fill-rule="evenodd" fill-opacity="1" stroke="#000000" stroke-opacity="1" stroke-width="6.4"/>
<circle clip-path="url(#clip792)" cx="1201.31" cy="480.076" r="14.4" fill="#008000" fill-rule="evenodd" fill-opacity="1" stroke="#000000" stroke-opacity="1" stroke-width="6.4"/>
<circle clip-path="url(#clip792)" cx="1318.91" cy="738.456" r="14.4" fill="#008000" fill-rule="evenodd" fill-opacity="1" stroke="#000000" stroke-opacity="1" stroke-width="6.4"/>
<circle clip-path="url(#clip792)" cx="1436.5" cy="687.409" r="14.4" fill="#008000" fill-rule="evenodd" fill-opacity="1" stroke="#000000" stroke-opacity="1" stroke-width="6.4"/>
<circle clip-path="url(#clip792)" cx="1554.09" cy="919.268" r="14.4" fill="#008000" fill-rule="evenodd" fill-opacity="1" stroke="#000000" stroke-opacity="1" stroke-width="6.4"/>
<circle clip-path="url(#clip792)" cx="1671.69" cy="962.241" r="14.4" fill="#008000" fill-rule="evenodd" fill-opacity="1" stroke="#000000" stroke-opacity="1" stroke-width="6.4"/>
<circle clip-path="url(#clip792)" cx="1789.28" cy="1167.77" r="14.4" fill="#008000" fill-rule="evenodd" fill-opacity="1" stroke="#000000" stroke-opacity="1" stroke-width="6.4"/>
<circle clip-path="url(#clip792)" cx="1906.87" cy="1237.14" r="14.4" fill="#008000" fill-rule="evenodd" fill-opacity="1" stroke="#000000" stroke-opacity="1" stroke-width="6.4"/>
<circle clip-path="url(#clip792)" cx="2024.46" cy="780.819" r="14.4" fill="#008000" fill-rule="evenodd" fill-opacity="1" stroke="#000000" stroke-opacity="1" stroke-width="6.4"/>
<circle clip-path="url(#clip792)" cx="2142.06" cy="1014.84" r="14.4" fill="#008000" fill-rule="evenodd" fill-opacity="1" stroke="#000000" stroke-opacity="1" stroke-width="6.4"/>
<circle clip-path="url(#clip792)" cx="2259.65" cy="1107.92" r="14.4" fill="#008000" fill-rule="evenodd" fill-opacity="1" stroke="#000000" stroke-opacity="1" stroke-width="6.4"/>
<polyline clip-path="url(#clip792)" style="stroke:#00008b; stroke-linecap:round; stroke-linejoin:round; stroke-width:8; stroke-opacity:1; fill:none" points="730.941,253.931 848.534,472.959 966.127,552.46 1083.72,597.178 1201.31,637.655 1318.91,690.988 1436.5,733.042 1554.09,772.322 1671.69,829.555 1789.28,884.999 1906.87,936.289 2024.46,995.134 2142.06,1060.34 2259.65,1114.15 "/>
<path clip-path="url(#clip792)" d="M730.941 381.751 L848.534 602.948 L966.127 681.967 L1083.72 727.405 L1201.31 758.65 L1318.91 823.753 L1436.5 861.178 L1554.09 897.377 L1671.69 955.257 L1789.28 1016.03 L1906.87 1066.72 L2024.46 1118.34 L2142.06 1188.42 L2259.65 1240.32 L2259.65 981.292 L2142.06 931.812 L2024.46 869.199 L1906.87 808.297 L1789.28 752.737 L1671.69 706.43 L1554.09 641.153 L1436.5 607.877 L1318.91 561.561 L1201.31 507.973 L1083.72 466.643 L966.127 423.31 L848.534 338.42 L730.941 127.862  Z" fill="#0000ff" fill-rule="evenodd" fill-opacity="0.1"/>
<polyline clip-path="url(#clip792)" style="stroke:#0000ff; stroke-linecap:round; stroke-linejoin:round; stroke-width:0; stroke-opacity:0.1; fill:none" points="730.941,381.751 848.534,602.948 966.127,681.967 1083.72,727.405 1201.31,758.65 1318.91,823.753 1436.5,861.178 1554.09,897.377 1671.69,955.257 1789.28,1016.03 1906.87,1066.72 2024.46,1118.34 2142.06,1188.42 2259.65,1240.32 "/>
</svg>
