<?xml version="1.0" encoding="utf-8"?>
<svg xmlns="http://www.w3.org/2000/svg" xmlns:xlink="http://www.w3.org/1999/xlink" width="600" height="400" viewBox="0 0 2400 1600">
<defs>
  <clipPath id="clip590">
    <rect x="0" y="0" width="2400" height="1600"/>
  </clipPath>
</defs>
<path clip-path="url(#clip590)" d="M0 1600 L2400 1600 L2400 0 L0 0  Z" fill="#ffffff" fill-rule="evenodd" fill-opacity="1"/>
<defs>
  <clipPath id="clip591">
    <rect x="480" y="0" width="1681" height="1600"/>
  </clipPath>
</defs>
<path clip-path="url(#clip590)" d="M680.45 1273.7 L2305.51 1273.7 L2305.51 94.4882 L680.45 94.4882  Z" fill="#ffffff" fill-rule="evenodd" fill-opacity="1"/>
<defs>
  <clipPath id="clip592">
    <rect x="680" y="94" width="1626" height="1180"/>
  </clipPath>
</defs>
<polyline clip-path="url(#clip592)" style="stroke:#000000; stroke-linecap:round; stroke-linejoin:round; stroke-width:4; stroke-opacity:0.1; fill:none" points="726.443,1273.7 726.443,94.4882 "/>
<polyline clip-path="url(#clip592)" style="stroke:#000000; stroke-linecap:round; stroke-linejoin:round; stroke-width:4; stroke-opacity:0.1; fill:none" points="962.301,1273.7 962.301,94.4882 "/>
<polyline clip-path="url(#clip592)" style="stroke:#000000; stroke-linecap:round; stroke-linejoin:round; stroke-width:4; stroke-opacity:0.1; fill:none" points="1198.16,1273.7 1198.16,94.4882 "/>
<polyline clip-path="url(#clip592)" style="stroke:#000000; stroke-linecap:round; stroke-linejoin:round; stroke-width:4; stroke-opacity:0.1; fill:none" points="1434.02,1273.7 1434.02,94.4882 "/>
<polyline clip-path="url(#clip592)" style="stroke:#000000; stroke-linecap:round; stroke-linejoin:round; stroke-width:4; stroke-opacity:0.1; fill:none" points="1669.87,1273.7 1669.87,94.4882 "/>
<polyline clip-path="url(#clip592)" style="stroke:#000000; stroke-linecap:round; stroke-linejoin:round; stroke-width:4; stroke-opacity:0.1; fill:none" points="1905.73,1273.7 1905.73,94.4882 "/>
<polyline clip-path="url(#clip592)" style="stroke:#000000; stroke-linecap:round; stroke-linejoin:round; stroke-width:4; stroke-opacity:0.1; fill:none" points="2141.59,1273.7 2141.59,94.4882 "/>
<polyline clip-path="url(#clip590)" style="stroke:#000000; stroke-linecap:round; stroke-linejoin:round; stroke-width:8; stroke-opacity:1; fill:none" points="680.45,1273.7 2305.51,1273.7 "/>
<polyline clip-path="url(#clip590)" style="stroke:#000000; stroke-linecap:round; stroke-linejoin:round; stroke-width:8; stroke-opacity:1; fill:none" points="726.443,1273.7 726.443,1254.8 "/>
<polyline clip-path="url(#clip590)" style="stroke:#000000; stroke-linecap:round; stroke-linejoin:round; stroke-width:8; stroke-opacity:1; fill:none" points="962.301,1273.7 962.301,1254.8 "/>
<polyline clip-path="url(#clip590)" style="stroke:#000000; stroke-linecap:round; stroke-linejoin:round; stroke-width:8; stroke-opacity:1; fill:none" points="1198.16,1273.7 1198.16,1254.8 "/>
<polyline clip-path="url(#clip590)" style="stroke:#000000; stroke-linecap:round; stroke-linejoin:round; stroke-width:8; stroke-opacity:1; fill:none" points="1434.02,1273.7 1434.02,1254.8 "/>
<polyline clip-path="url(#clip590)" style="stroke:#000000; stroke-linecap:round; stroke-linejoin:round; stroke-width:8; stroke-opacity:1; fill:none" points="1669.87,1273.7 1669.87,1254.8 "/>
<polyline clip-path="url(#clip590)" style="stroke:#000000; stroke-linecap:round; stroke-linejoin:round; stroke-width:8; stroke-opacity:1; fill:none" points="1905.73,1273.7 1905.73,1254.8 "/>
<polyline clip-path="url(#clip590)" style="stroke:#000000; stroke-linecap:round; stroke-linejoin:round; stroke-width:8; stroke-opacity:1; fill:none" points="2141.59,1273.7 2141.59,1254.8 "/>
<path clip-path="url(#clip590)" d="M681.211 1316.33 Q673.989 1316.33 670.332 1323.46 Q666.721 1330.55 666.721 1344.81 Q666.721 1359.02 670.332 1366.15 Q673.989 1373.23 681.211 1373.23 Q688.48 1373.23 692.091 1366.15 Q695.748 1359.02 695.748 1344.81 Q695.748 1330.55 692.091 1323.46 Q688.48 1316.33 681.211 1316.33 M681.211 1308.93 Q692.832 1308.93 698.943 1318.14 Q705.1 1327.31 705.1 1344.81 Q705.1 1362.26 698.943 1371.47 Q692.832 1380.64 681.211 1380.64 Q669.591 1380.64 663.434 1371.47 Q657.323 1362.26 657.323 1344.81 Q657.323 1327.31 663.434 1318.14 Q669.591 1308.93 681.211 1308.93 Z" fill="#000000" fill-rule="nonzero" fill-opacity="1" /><path clip-path="url(#clip590)" d="M721.535 1367.54 L731.304 1367.54 L731.304 1379.3 L721.535 1379.3 L721.535 1367.54 Z" fill="#000000" fill-rule="nonzero" fill-opacity="1" /><path clip-path="url(#clip590)" d="M771.674 1316.33 Q764.452 1316.33 760.794 1323.46 Q757.183 1330.55 757.183 1344.81 Q757.183 1359.02 760.794 1366.15 Q764.452 1373.23 771.674 1373.23 Q778.942 1373.23 782.553 1366.15 Q786.211 1359.02 786.211 1344.81 Q786.211 1330.55 782.553 1323.46 Q778.942 1316.33 771.674 1316.33 M771.674 1308.93 Q783.294 1308.93 789.405 1318.14 Q795.563 1327.31 795.563 1344.81 Q795.563 1362.26 789.405 1371.47 Q783.294 1380.64 771.674 1380.64 Q760.054 1380.64 753.896 1371.47 Q747.785 1362.26 747.785 1344.81 Q747.785 1327.31 753.896 1318.14 Q760.054 1308.93 771.674 1308.93 Z" fill="#000000" fill-rule="nonzero" fill-opacity="1" /><path clip-path="url(#clip590)" d="M918.667 1316.33 Q911.444 1316.33 907.787 1323.46 Q904.176 1330.55 904.176 1344.81 Q904.176 1359.02 907.787 1366.15 Q911.444 1373.23 918.667 1373.23 Q925.935 1373.23 929.546 1366.15 Q933.204 1359.02 933.204 1344.81 Q933.204 1330.55 929.546 1323.46 Q925.935 1316.33 918.667 1316.33 M918.667 1308.93 Q930.287 1308.93 936.398 1318.14 Q942.555 1327.31 942.555 1344.81 Q942.555 1362.26 936.398 1371.47 Q930.287 1380.64 918.667 1380.64 Q907.046 1380.64 900.889 1371.47 Q894.778 1362.26 894.778 1344.81 Q894.778 1327.31 900.889 1318.14 Q907.046 1308.93 918.667 1308.93 Z" fill="#000000" fill-rule="nonzero" fill-opacity="1" /><path clip-path="url(#clip590)" d="M958.99 1367.54 L968.759 1367.54 L968.759 1379.3 L958.99 1379.3 L958.99 1367.54 Z" fill="#000000" fill-rule="nonzero" fill-opacity="1" /><path clip-path="url(#clip590)" d="M997.185 1371.43 L1029.82 1371.43 L1029.82 1379.3 L985.935 1379.3 L985.935 1371.43 Q991.259 1365.92 1000.43 1356.66 Q1009.64 1347.35 1012 1344.67 Q1016.49 1339.62 1018.25 1336.15 Q1020.05 1332.63 1020.05 1329.25 Q1020.05 1323.74 1016.17 1320.27 Q1012.32 1316.8 1006.12 1316.8 Q1001.72 1316.8 996.814 1318.32 Q991.953 1319.85 986.398 1322.95 L986.398 1313.51 Q992.046 1311.24 996.953 1310.08 Q1001.86 1308.93 1005.93 1308.93 Q1016.68 1308.93 1023.06 1314.3 Q1029.45 1319.67 1029.45 1328.65 Q1029.45 1332.91 1027.83 1336.75 Q1026.26 1340.55 1022.05 1345.73 Q1020.89 1347.07 1014.68 1353.51 Q1008.48 1359.9 997.185 1371.43 Z" fill="#000000" fill-rule="nonzero" fill-opacity="1" /><path clip-path="url(#clip590)" d="M1152.44 1316.33 Q1145.22 1316.33 1141.56 1323.46 Q1137.95 1330.55 1137.95 1344.81 Q1137.95 1359.02 1141.56 1366.15 Q1145.22 1373.23 1152.44 1373.23 Q1159.71 1373.23 1163.32 1366.15 Q1166.98 1359.02 1166.98 1344.81 Q1166.98 1330.55 1163.32 1323.46 Q1159.71 1316.33 1152.44 1316.33 M1152.44 1308.93 Q1164.06 1308.93 1170.17 1318.14 Q1176.33 1327.31 1176.33 1344.81 Q1176.33 1362.26 1170.17 1371.47 Q1164.06 1380.64 1152.44 1380.64 Q1140.82 1380.64 1134.66 1371.47 Q1128.55 1362.26 1128.55 1344.81 Q1128.55 1327.31 1134.66 1318.14 Q1140.82 1308.93 1152.44 1308.93 Z" fill="#000000" fill-rule="nonzero" fill-opacity="1" /><path clip-path="url(#clip590)" d="M1192.77 1367.54 L1202.53 1367.54 L1202.53 1379.3 L1192.77 1379.3 L1192.77 1367.54 Z" fill="#000000" fill-rule="nonzero" fill-opacity="1" /><path clip-path="url(#clip590)" d="M1248.6 1318.32 L1224.99 1355.22 L1248.6 1355.22 L1248.6 1318.32 M1246.14 1310.18 L1257.9 1310.18 L1257.9 1355.22 L1267.76 1355.22 L1267.76 1363 L1257.9 1363 L1257.9 1379.3 L1248.6 1379.3 L1248.6 1363 L1217.39 1363 L1217.39 1353.97 L1246.14 1310.18 Z" fill="#000000" fill-rule="nonzero" fill-opacity="1" /><path clip-path="url(#clip590)" d="M1388.62 1316.33 Q1381.4 1316.33 1377.74 1323.46 Q1374.13 1330.55 1374.13 1344.81 Q1374.13 1359.02 1377.74 1366.15 Q1381.4 1373.23 1388.62 1373.23 Q1395.89 1373.23 1399.5 1366.15 Q1403.16 1359.02 1403.16 1344.81 Q1403.16 1330.55 1399.5 1323.46 Q1395.89 1316.33 1388.62 1316.33 M1388.62 1308.93 Q1400.24 1308.93 1406.35 1318.14 Q1412.51 1327.31 1412.51 1344.81 Q1412.51 1362.26 1406.35 1371.47 Q1400.24 1380.64 1388.62 1380.64 Q1377 1380.64 1370.85 1371.47 Q1364.73 1362.26 1364.73 1344.81 Q1364.73 1327.31 1370.85 1318.14 Q1377 1308.93 1388.62 1308.93 Z" fill="#000000" fill-rule="nonzero" fill-opacity="1" /><path clip-path="url(#clip590)" d="M1428.95 1367.54 L1438.72 1367.54 L1438.72 1379.3 L1428.95 1379.3 L1428.95 1367.54 Z" fill="#000000" fill-rule="nonzero" fill-opacity="1" /><path clip-path="url(#clip590)" d="M1480.24 1341.01 Q1473.95 1341.01 1470.24 1345.31 Q1466.59 1349.62 1466.59 1357.12 Q1466.59 1364.57 1470.24 1368.93 Q1473.95 1373.23 1480.24 1373.23 Q1486.54 1373.23 1490.2 1368.93 Q1493.9 1364.57 1493.9 1357.12 Q1493.9 1349.62 1490.2 1345.31 Q1486.54 1341.01 1480.24 1341.01 M1498.81 1311.7 L1498.81 1320.22 Q1495.29 1318.56 1491.68 1317.68 Q1488.11 1316.8 1484.6 1316.8 Q1475.34 1316.8 1470.43 1323.05 Q1465.57 1329.3 1464.87 1341.93 Q1467.6 1337.91 1471.72 1335.78 Q1475.85 1333.6 1480.8 1333.6 Q1491.22 1333.6 1497.23 1339.94 Q1503.3 1346.24 1503.3 1357.12 Q1503.3 1367.77 1497 1374.2 Q1490.71 1380.64 1480.24 1380.64 Q1468.25 1380.64 1461.91 1371.47 Q1455.57 1362.26 1455.57 1344.81 Q1455.57 1328.42 1463.35 1318.69 Q1471.12 1308.93 1484.22 1308.93 Q1487.74 1308.93 1491.31 1309.62 Q1494.92 1310.31 1498.81 1311.7 Z" fill="#000000" fill-rule="nonzero" fill-opacity="1" /><path clip-path="url(#clip590)" d="M1624.74 1316.33 Q1617.51 1316.33 1613.86 1323.46 Q1610.25 1330.55 1610.25 1344.81 Q1610.25 1359.02 1613.86 1366.15 Q1617.51 1373.23 1624.74 1373.23 Q1632 1373.23 1635.62 1366.15 Q1639.27 1359.02 1639.27 1344.81 Q1639.27 1330.55 1635.62 1323.46 Q1632 1316.33 1624.74 1316.33 M1624.74 1308.93 Q1636.36 1308.93 1642.47 1318.14 Q1648.62 1327.31 1648.62 1344.81 Q1648.62 1362.26 1642.47 1371.47 Q1636.36 1380.64 1624.74 1380.64 Q1613.12 1380.64 1606.96 1371.47 Q1600.85 1362.26 1600.85 1344.81 Q1600.85 1327.31 1606.96 1318.14 Q1613.12 1308.93 1624.74 1308.93 Z" fill="#000000" fill-rule="nonzero" fill-opacity="1" /><path clip-path="url(#clip590)" d="M1665.06 1367.54 L1674.83 1367.54 L1674.83 1379.3 L1665.06 1379.3 L1665.06 1367.54 Z" fill="#000000" fill-rule="nonzero" fill-opacity="1" /><path clip-path="url(#clip590)" d="M1715.2 1346.47 Q1708.53 1346.47 1704.69 1350.04 Q1700.89 1353.6 1700.89 1359.85 Q1700.89 1366.1 1704.69 1369.67 Q1708.53 1373.23 1715.2 1373.23 Q1721.87 1373.23 1725.71 1369.67 Q1729.55 1366.06 1729.55 1359.85 Q1729.55 1353.6 1725.71 1350.04 Q1721.91 1346.47 1715.2 1346.47 M1705.85 1342.49 Q1699.83 1341.01 1696.45 1336.89 Q1693.12 1332.77 1693.12 1326.84 Q1693.12 1318.56 1698.99 1313.74 Q1704.92 1308.93 1715.2 1308.93 Q1725.52 1308.93 1731.4 1313.74 Q1737.28 1318.56 1737.28 1326.84 Q1737.28 1332.77 1733.9 1336.89 Q1730.57 1341.01 1724.6 1342.49 Q1731.36 1344.06 1735.11 1348.65 Q1738.9 1353.23 1738.9 1359.85 Q1738.9 1369.9 1732.74 1375.27 Q1726.63 1380.64 1715.2 1380.64 Q1703.76 1380.64 1697.61 1375.27 Q1691.49 1369.9 1691.49 1359.85 Q1691.49 1353.23 1695.29 1348.65 Q1699.09 1344.06 1705.85 1342.49 M1702.42 1327.72 Q1702.42 1333.09 1705.75 1336.1 Q1709.13 1339.11 1715.2 1339.11 Q1721.22 1339.11 1724.6 1336.1 Q1728.02 1333.09 1728.02 1327.72 Q1728.02 1322.35 1724.6 1319.34 Q1721.22 1316.33 1715.2 1316.33 Q1709.13 1316.33 1705.75 1319.34 Q1702.42 1322.35 1702.42 1327.72 Z" fill="#000000" fill-rule="nonzero" fill-opacity="1" /><path clip-path="url(#clip590)" d="M1840.04 1371.43 L1855.32 1371.43 L1855.32 1318.69 L1838.7 1322.03 L1838.7 1313.51 L1855.22 1310.18 L1864.58 1310.18 L1864.58 1371.43 L1879.85 1371.43 L1879.85 1379.3 L1840.04 1379.3 L1840.04 1371.43 Z" fill="#000000" fill-rule="nonzero" fill-opacity="1" /><path clip-path="url(#clip590)" d="M1898.74 1367.54 L1908.51 1367.54 L1908.51 1379.3 L1898.74 1379.3 L1898.74 1367.54 Z" fill="#000000" fill-rule="nonzero" fill-opacity="1" /><path clip-path="url(#clip590)" d="M1948.88 1316.33 Q1941.66 1316.33 1938 1323.46 Q1934.39 1330.55 1934.39 1344.81 Q1934.39 1359.02 1938 1366.15 Q1941.66 1373.23 1948.88 1373.23 Q1956.15 1373.23 1959.76 1366.15 Q1963.42 1359.02 1963.42 1344.81 Q1963.42 1330.55 1959.76 1323.46 Q1956.15 1316.33 1948.88 1316.33 M1948.88 1308.93 Q1960.5 1308.93 1966.61 1318.14 Q1972.77 1327.31 1972.77 1344.81 Q1972.77 1362.26 1966.61 1371.47 Q1960.5 1380.64 1948.88 1380.64 Q1937.26 1380.64 1931.1 1371.47 Q1924.99 1362.26 1924.99 1344.81 Q1924.99 1327.31 1931.1 1318.14 Q1937.26 1308.93 1948.88 1308.93 Z" fill="#000000" fill-rule="nonzero" fill-opacity="1" /><path clip-path="url(#clip590)" d="M2077.49 1371.43 L2092.77 1371.43 L2092.77 1318.69 L2076.15 1322.03 L2076.15 1313.51 L2092.68 1310.18 L2102.03 1310.18 L2102.03 1371.43 L2117.31 1371.43 L2117.31 1379.3 L2077.49 1379.3 L2077.49 1371.43 Z" fill="#000000" fill-rule="nonzero" fill-opacity="1" /><path clip-path="url(#clip590)" d="M2136.2 1367.54 L2145.97 1367.54 L2145.97 1379.3 L2136.2 1379.3 L2136.2 1367.54 Z" fill="#000000" fill-rule="nonzero" fill-opacity="1" /><path clip-path="url(#clip590)" d="M2174.39 1371.43 L2207.03 1371.43 L2207.03 1379.3 L2163.14 1379.3 L2163.14 1371.43 Q2168.47 1365.92 2177.63 1356.66 Q2186.84 1347.35 2189.21 1344.67 Q2193.7 1339.62 2195.46 1336.15 Q2197.26 1332.63 2197.26 1329.25 Q2197.26 1323.74 2193.37 1320.27 Q2189.53 1316.8 2183.33 1316.8 Q2178.93 1316.8 2174.02 1318.32 Q2169.16 1319.85 2163.6 1322.95 L2163.6 1313.51 Q2169.25 1311.24 2174.16 1310.08 Q2179.07 1308.93 2183.14 1308.93 Q2193.88 1308.93 2200.27 1314.3 Q2206.66 1319.67 2206.66 1328.65 Q2206.66 1332.91 2205.04 1336.75 Q2203.47 1340.55 2199.25 1345.73 Q2198.09 1347.07 2191.89 1353.51 Q2185.69 1359.9 2174.39 1371.43 Z" fill="#000000" fill-rule="nonzero" fill-opacity="1" /><path clip-path="url(#clip590)" d="M1378.53 1484.39 L1378.53 1527.42 L1366.81 1527.42 L1366.81 1484.77 Q1366.81 1474.65 1362.87 1469.62 Q1358.92 1464.59 1351.03 1464.59 Q1341.54 1464.59 1336.07 1470.64 Q1330.59 1476.69 1330.59 1487.13 L1330.59 1527.42 L1318.82 1527.42 L1318.82 1428.37 L1330.59 1428.37 L1330.59 1467.2 Q1334.79 1460.77 1340.46 1457.59 Q1346.19 1454.41 1353.64 1454.41 Q1365.92 1454.41 1372.22 1462.05 Q1378.53 1469.62 1378.53 1484.39 Z" fill="#000000" fill-rule="nonzero" fill-opacity="1" /><path clip-path="url(#clip590)" d="M1429.51 1464.34 Q1420.09 1464.34 1414.62 1471.72 Q1409.14 1479.04 1409.14 1491.84 Q1409.14 1504.63 1414.56 1512.02 Q1420.03 1519.34 1429.51 1519.34 Q1438.87 1519.34 1444.35 1511.96 Q1449.82 1504.57 1449.82 1491.84 Q1449.82 1479.17 1444.35 1471.79 Q1438.87 1464.34 1429.51 1464.34 M1429.51 1454.41 Q1444.79 1454.41 1453.51 1464.34 Q1462.23 1474.27 1462.23 1491.84 Q1462.23 1509.35 1453.51 1519.34 Q1444.79 1529.27 1429.51 1529.27 Q1414.17 1529.27 1405.45 1519.34 Q1396.8 1509.35 1396.8 1491.84 Q1396.8 1474.27 1405.45 1464.34 Q1414.17 1454.41 1429.51 1454.41 Z" fill="#000000" fill-rule="nonzero" fill-opacity="1" /><path clip-path="url(#clip590)" d="M1480.44 1499.29 L1480.44 1456.13 L1492.15 1456.13 L1492.15 1498.84 Q1492.15 1508.96 1496.1 1514.06 Q1500.05 1519.08 1507.94 1519.08 Q1517.43 1519.08 1522.9 1513.04 Q1528.44 1506.99 1528.44 1496.55 L1528.44 1456.13 L1540.15 1456.13 L1540.15 1527.42 L1528.44 1527.42 L1528.44 1516.47 Q1524.17 1522.97 1518.51 1526.15 Q1512.91 1529.27 1505.46 1529.27 Q1493.17 1529.27 1486.81 1521.63 Q1480.44 1513.99 1480.44 1499.29 M1509.91 1454.41 L1509.91 1454.41 Z" fill="#000000" fill-rule="nonzero" fill-opacity="1" /><path clip-path="url(#clip590)" d="M1605.59 1467.08 Q1603.62 1465.93 1601.26 1465.42 Q1598.97 1464.85 1596.17 1464.85 Q1586.24 1464.85 1580.89 1471.34 Q1575.61 1477.77 1575.61 1489.87 L1575.61 1527.42 L1563.83 1527.42 L1563.83 1456.13 L1575.61 1456.13 L1575.61 1467.2 Q1579.3 1460.71 1585.22 1457.59 Q1591.14 1454.41 1599.61 1454.41 Q1600.82 1454.41 1602.28 1454.6 Q1603.74 1454.73 1605.53 1455.05 L1605.59 1467.08 Z" fill="#000000" fill-rule="nonzero" fill-opacity="1" /><path clip-path="url(#clip590)" d="M1663.33 1458.23 L1663.33 1469.3 Q1658.36 1466.76 1653.01 1465.49 Q1647.67 1464.21 1641.94 1464.21 Q1633.22 1464.21 1628.83 1466.89 Q1624.5 1469.56 1624.5 1474.91 Q1624.5 1478.98 1627.62 1481.34 Q1630.73 1483.63 1640.16 1485.73 L1644.17 1486.62 Q1656.64 1489.29 1661.86 1494.19 Q1667.15 1499.03 1667.15 1507.75 Q1667.15 1517.68 1659.25 1523.48 Q1651.42 1529.27 1637.67 1529.27 Q1631.94 1529.27 1625.71 1528.12 Q1619.53 1527.04 1612.66 1524.81 L1612.66 1512.72 Q1619.15 1516.09 1625.45 1517.81 Q1631.75 1519.47 1637.93 1519.47 Q1646.2 1519.47 1650.66 1516.67 Q1655.12 1513.8 1655.12 1508.64 Q1655.12 1503.87 1651.87 1501.32 Q1648.69 1498.78 1637.8 1496.42 L1633.73 1495.47 Q1622.84 1493.18 1618 1488.47 Q1613.17 1483.69 1613.17 1475.42 Q1613.17 1465.36 1620.3 1459.88 Q1627.42 1454.41 1640.54 1454.41 Q1647.03 1454.41 1652.76 1455.36 Q1658.49 1456.32 1663.33 1458.23 Z" fill="#000000" fill-rule="nonzero" fill-opacity="1" /><polyline clip-path="url(#clip592)" style="stroke:#000000; stroke-linecap:round; stroke-linejoin:round; stroke-width:4; stroke-opacity:0.1; fill:none" points="680.45,1248.5 2305.51,1248.5 "/>
<polyline clip-path="url(#clip592)" style="stroke:#000000; stroke-linecap:round; stroke-linejoin:round; stroke-width:4; stroke-opacity:0.1; fill:none" points="680.45,975.903 2305.51,975.903 "/>
<polyline clip-path="url(#clip592)" style="stroke:#000000; stroke-linecap:round; stroke-linejoin:round; stroke-width:4; stroke-opacity:0.1; fill:none" points="680.45,703.309 2305.51,703.309 "/>
<polyline clip-path="url(#clip592)" style="stroke:#000000; stroke-linecap:round; stroke-linejoin:round; stroke-width:4; stroke-opacity:0.1; fill:none" points="680.45,430.714 2305.51,430.714 "/>
<polyline clip-path="url(#clip592)" style="stroke:#000000; stroke-linecap:round; stroke-linejoin:round; stroke-width:4; stroke-opacity:0.1; fill:none" points="680.45,158.12 2305.51,158.12 "/>
<polyline clip-path="url(#clip590)" style="stroke:#000000; stroke-linecap:round; stroke-linejoin:round; stroke-width:8; stroke-opacity:1; fill:none" points="680.45,1273.7 680.45,94.4882 "/>
<polyline clip-path="url(#clip590)" style="stroke:#000000; stroke-linecap:round; stroke-linejoin:round; stroke-width:8; stroke-opacity:1; fill:none" points="680.45,1248.5 699.348,1248.5 "/>
<polyline clip-path="url(#clip590)" style="stroke:#000000; stroke-linecap:round; stroke-linejoin:round; stroke-width:8; stroke-opacity:1; fill:none" points="680.45,975.903 699.348,975.903 "/>
<polyline clip-path="url(#clip590)" style="stroke:#000000; stroke-linecap:round; stroke-linejoin:round; stroke-width:8; stroke-opacity:1; fill:none" points="680.45,703.309 699.348,703.309 "/>
<polyline clip-path="url(#clip590)" style="stroke:#000000; stroke-linecap:round; stroke-linejoin:round; stroke-width:8; stroke-opacity:1; fill:none" points="680.45,430.714 699.348,430.714 "/>
<polyline clip-path="url(#clip590)" style="stroke:#000000; stroke-linecap:round; stroke-linejoin:round; stroke-width:8; stroke-opacity:1; fill:none" points="680.45,158.12 699.348,158.12 "/>
<path clip-path="url(#clip590)" d="M397.507 1275.19 L430.146 1275.19 L430.146 1283.06 L386.257 1283.06 L386.257 1275.19 Q391.581 1269.68 400.748 1260.42 Q409.961 1251.11 412.322 1248.43 Q416.813 1243.38 418.572 1239.91 Q420.378 1236.39 420.378 1233.01 Q420.378 1227.5 416.489 1224.03 Q412.646 1220.56 406.442 1220.56 Q402.044 1220.56 397.137 1222.09 Q392.276 1223.61 386.72 1226.72 L386.72 1217.27 Q392.368 1215 397.276 1213.84 Q402.183 1212.69 406.257 1212.69 Q416.998 1212.69 423.387 1218.06 Q429.776 1223.43 429.776 1232.41 Q429.776 1236.67 428.155 1240.51 Q426.581 1244.31 422.368 1249.49 Q421.211 1250.84 415.007 1257.27 Q408.803 1263.66 397.507 1275.19 Z" fill="#000000" fill-rule="nonzero" fill-opacity="1" /><path clip-path="url(#clip590)" d="M447.414 1213.94 L491.859 1213.94 L491.859 1217.92 L466.766 1283.06 L456.998 1283.06 L480.609 1221.81 L447.414 1221.81 L447.414 1213.94 Z" fill="#000000" fill-rule="nonzero" fill-opacity="1" /><path clip-path="url(#clip590)" d="M510.192 1213.94 L546.905 1213.94 L546.905 1221.81 L518.757 1221.81 L518.757 1238.75 Q520.794 1238.06 522.831 1237.73 Q524.868 1237.36 526.905 1237.36 Q538.479 1237.36 545.238 1243.71 Q551.997 1250.05 551.997 1260.88 Q551.997 1272.04 545.053 1278.24 Q538.108 1284.4 525.47 1284.4 Q521.118 1284.4 516.581 1283.66 Q512.09 1282.92 507.275 1281.44 L507.275 1272.04 Q511.442 1274.31 515.886 1275.42 Q520.331 1276.53 525.284 1276.53 Q533.294 1276.53 537.969 1272.32 Q542.645 1268.1 542.645 1260.88 Q542.645 1253.66 537.969 1249.45 Q533.294 1245.23 525.284 1245.23 Q521.534 1245.23 517.784 1246.07 Q514.081 1246.9 510.192 1248.66 L510.192 1213.94 Z" fill="#000000" fill-rule="nonzero" fill-opacity="1" /><path clip-path="url(#clip590)" d="M570.423 1271.3 L580.191 1271.3 L580.191 1283.06 L570.423 1283.06 L570.423 1271.3 Z" fill="#000000" fill-rule="nonzero" fill-opacity="1" /><path clip-path="url(#clip590)" d="M620.562 1220.09 Q613.339 1220.09 609.682 1227.22 Q606.071 1234.31 606.071 1248.57 Q606.071 1262.78 609.682 1269.91 Q613.339 1276.99 620.562 1276.99 Q627.83 1276.99 631.441 1269.91 Q635.099 1262.78 635.099 1248.57 Q635.099 1234.31 631.441 1227.22 Q627.83 1220.09 620.562 1220.09 M620.562 1212.69 Q632.182 1212.69 638.293 1221.9 Q644.45 1231.07 644.45 1248.57 Q644.45 1266.02 638.293 1275.23 Q632.182 1284.4 620.562 1284.4 Q608.941 1284.4 602.784 1275.23 Q596.673 1266.02 596.673 1248.57 Q596.673 1231.07 602.784 1221.9 Q608.941 1212.69 620.562 1212.69 Z" fill="#000000" fill-rule="nonzero" fill-opacity="1" /><path clip-path="url(#clip590)" d="M417.785 973.195 Q424.498 974.63 428.248 979.167 Q432.044 983.704 432.044 990.371 Q432.044 1000.6 425.007 1006.2 Q417.97 1011.81 405.007 1011.81 Q400.655 1011.81 396.026 1010.93 Q391.442 1010.09 386.535 1008.38 L386.535 999.352 Q390.424 1001.62 395.054 1002.78 Q399.683 1003.94 404.729 1003.94 Q413.526 1003.94 418.109 1000.46 Q422.739 996.991 422.739 990.371 Q422.739 984.26 418.433 980.834 Q414.174 977.361 406.535 977.361 L398.479 977.361 L398.479 969.676 L406.905 969.676 Q413.803 969.676 417.461 966.945 Q421.118 964.167 421.118 958.982 Q421.118 953.658 417.322 950.834 Q413.572 947.963 406.535 947.963 Q402.692 947.963 398.294 948.797 Q393.896 949.63 388.618 951.389 L388.618 943.056 Q393.942 941.575 398.572 940.834 Q403.248 940.093 407.368 940.093 Q418.016 940.093 424.22 944.954 Q430.424 949.769 430.424 958.01 Q430.424 963.75 427.137 967.732 Q423.85 971.667 417.785 973.195 Z" fill="#000000" fill-rule="nonzero" fill-opacity="1" /><path clip-path="url(#clip590)" d="M469.775 947.5 Q462.553 947.5 458.896 954.63 Q455.285 961.713 455.285 975.973 Q455.285 990.185 458.896 997.315 Q462.553 1004.4 469.775 1004.4 Q477.044 1004.4 480.655 997.315 Q484.312 990.185 484.312 975.973 Q484.312 961.713 480.655 954.63 Q477.044 947.5 469.775 947.5 M469.775 940.093 Q481.396 940.093 487.507 949.306 Q493.664 958.473 493.664 975.973 Q493.664 993.426 487.507 1002.64 Q481.396 1011.81 469.775 1011.81 Q458.155 1011.81 451.998 1002.64 Q445.887 993.426 445.887 975.973 Q445.887 958.473 451.998 949.306 Q458.155 940.093 469.775 940.093 Z" fill="#000000" fill-rule="nonzero" fill-opacity="1" /><path clip-path="url(#clip590)" d="M530.099 947.5 Q522.877 947.5 519.22 954.63 Q515.608 961.713 515.608 975.973 Q515.608 990.185 519.22 997.315 Q522.877 1004.4 530.099 1004.4 Q537.368 1004.4 540.979 997.315 Q544.636 990.185 544.636 975.973 Q544.636 961.713 540.979 954.63 Q537.368 947.5 530.099 947.5 M530.099 940.093 Q541.719 940.093 547.831 949.306 Q553.988 958.473 553.988 975.973 Q553.988 993.426 547.831 1002.64 Q541.719 1011.81 530.099 1011.81 Q518.479 1011.81 512.321 1002.64 Q506.21 993.426 506.21 975.973 Q506.21 958.473 512.321 949.306 Q518.479 940.093 530.099 940.093 Z" fill="#000000" fill-rule="nonzero" fill-opacity="1" /><path clip-path="url(#clip590)" d="M570.423 998.704 L580.191 998.704 L580.191 1010.46 L570.423 1010.46 L570.423 998.704 Z" fill="#000000" fill-rule="nonzero" fill-opacity="1" /><path clip-path="url(#clip590)" d="M620.562 947.5 Q613.339 947.5 609.682 954.63 Q606.071 961.713 606.071 975.973 Q606.071 990.185 609.682 997.315 Q613.339 1004.4 620.562 1004.4 Q627.83 1004.4 631.441 997.315 Q635.099 990.185 635.099 975.973 Q635.099 961.713 631.441 954.63 Q627.83 947.5 620.562 947.5 M620.562 940.093 Q632.182 940.093 638.293 949.306 Q644.45 958.473 644.45 975.973 Q644.45 993.426 638.293 1002.64 Q632.182 1011.81 620.562 1011.81 Q608.941 1011.81 602.784 1002.64 Q596.673 993.426 596.673 975.973 Q596.673 958.473 602.784 949.306 Q608.941 940.093 620.562 940.093 Z" fill="#000000" fill-rule="nonzero" fill-opacity="1" /><path clip-path="url(#clip590)" d="M417.785 700.6 Q424.498 702.036 428.248 706.573 Q432.044 711.11 432.044 717.776 Q432.044 728.008 425.007 733.61 Q417.97 739.211 405.007 739.211 Q400.655 739.211 396.026 738.332 Q391.442 737.498 386.535 735.785 L386.535 726.758 Q390.424 729.026 395.054 730.184 Q399.683 731.341 404.729 731.341 Q413.526 731.341 418.109 727.869 Q422.739 724.397 422.739 717.776 Q422.739 711.665 418.433 708.239 Q414.174 704.767 406.535 704.767 L398.479 704.767 L398.479 697.082 L406.905 697.082 Q413.803 697.082 417.461 694.35 Q421.118 691.573 421.118 686.388 Q421.118 681.064 417.322 678.239 Q413.572 675.369 406.535 675.369 Q402.692 675.369 398.294 676.202 Q393.896 677.036 388.618 678.795 L388.618 670.462 Q393.942 668.98 398.572 668.24 Q403.248 667.499 407.368 667.499 Q418.016 667.499 424.22 672.36 Q430.424 677.175 430.424 685.415 Q430.424 691.156 427.137 695.138 Q423.85 699.073 417.785 700.6 Z" fill="#000000" fill-rule="nonzero" fill-opacity="1" /><path clip-path="url(#clip590)" d="M457.831 729.998 L490.47 729.998 L490.47 737.869 L446.581 737.869 L446.581 729.998 Q451.905 724.489 461.072 715.23 Q470.285 705.925 472.646 703.239 Q477.136 698.193 478.896 694.721 Q480.701 691.202 480.701 687.823 Q480.701 682.314 476.812 678.841 Q472.97 675.369 466.766 675.369 Q462.368 675.369 457.461 676.897 Q452.6 678.425 447.044 681.526 L447.044 672.082 Q452.692 669.814 457.6 668.656 Q462.507 667.499 466.581 667.499 Q477.322 667.499 483.71 672.869 Q490.099 678.239 490.099 687.221 Q490.099 691.48 488.479 695.323 Q486.905 699.119 482.692 704.304 Q481.535 705.647 475.331 712.082 Q469.127 718.471 457.831 729.998 Z" fill="#000000" fill-rule="nonzero" fill-opacity="1" /><path clip-path="url(#clip590)" d="M510.192 668.749 L546.905 668.749 L546.905 676.619 L518.757 676.619 L518.757 693.563 Q520.794 692.869 522.831 692.545 Q524.868 692.175 526.905 692.175 Q538.479 692.175 545.238 698.517 Q551.997 704.86 551.997 715.693 Q551.997 726.85 545.053 733.054 Q538.108 739.211 525.47 739.211 Q521.118 739.211 516.581 738.471 Q512.09 737.73 507.275 736.248 L507.275 726.85 Q511.442 729.119 515.886 730.23 Q520.331 731.341 525.284 731.341 Q533.294 731.341 537.969 727.128 Q542.645 722.915 542.645 715.693 Q542.645 708.471 537.969 704.258 Q533.294 700.045 525.284 700.045 Q521.534 700.045 517.784 700.878 Q514.081 701.712 510.192 703.471 L510.192 668.749 Z" fill="#000000" fill-rule="nonzero" fill-opacity="1" /><path clip-path="url(#clip590)" d="M570.423 726.11 L580.191 726.11 L580.191 737.869 L570.423 737.869 L570.423 726.11 Z" fill="#000000" fill-rule="nonzero" fill-opacity="1" /><path clip-path="url(#clip590)" d="M620.562 674.906 Q613.339 674.906 609.682 682.036 Q606.071 689.119 606.071 703.378 Q606.071 717.591 609.682 724.721 Q613.339 731.804 620.562 731.804 Q627.83 731.804 631.441 724.721 Q635.099 717.591 635.099 703.378 Q635.099 689.119 631.441 682.036 Q627.83 674.906 620.562 674.906 M620.562 667.499 Q632.182 667.499 638.293 676.712 Q644.45 685.878 644.45 703.378 Q644.45 720.832 638.293 730.045 Q632.182 739.211 620.562 739.211 Q608.941 739.211 602.784 730.045 Q596.673 720.832 596.673 703.378 Q596.673 685.878 602.784 676.712 Q608.941 667.499 620.562 667.499 Z" fill="#000000" fill-rule="nonzero" fill-opacity="1" /><path clip-path="url(#clip590)" d="M417.785 428.006 Q424.498 429.441 428.248 433.978 Q432.044 438.515 432.044 445.182 Q432.044 455.413 425.007 461.015 Q417.97 466.617 405.007 466.617 Q400.655 466.617 396.026 465.737 Q391.442 464.904 386.535 463.191 L386.535 454.163 Q390.424 456.432 395.054 457.589 Q399.683 458.747 404.729 458.747 Q413.526 458.747 418.109 455.274 Q422.739 451.802 422.739 445.182 Q422.739 439.071 418.433 435.645 Q414.174 432.173 406.535 432.173 L398.479 432.173 L398.479 424.488 L406.905 424.488 Q413.803 424.488 417.461 421.756 Q421.118 418.978 421.118 413.793 Q421.118 408.469 417.322 405.645 Q413.572 402.775 406.535 402.775 Q402.692 402.775 398.294 403.608 Q393.896 404.441 388.618 406.201 L388.618 397.867 Q393.942 396.386 398.572 395.645 Q403.248 394.904 407.368 394.904 Q418.016 394.904 424.22 399.766 Q430.424 404.58 430.424 412.821 Q430.424 418.562 427.137 422.543 Q423.85 426.478 417.785 428.006 Z" fill="#000000" fill-rule="nonzero" fill-opacity="1" /><path clip-path="url(#clip590)" d="M449.868 396.154 L486.581 396.154 L486.581 404.025 L458.433 404.025 L458.433 420.969 Q460.47 420.275 462.507 419.951 Q464.544 419.58 466.581 419.58 Q478.155 419.58 484.914 425.923 Q491.673 432.265 491.673 443.099 Q491.673 454.256 484.729 460.46 Q477.785 466.617 465.146 466.617 Q460.794 466.617 456.257 465.876 Q451.766 465.136 446.951 463.654 L446.951 454.256 Q451.118 456.524 455.562 457.636 Q460.007 458.747 464.961 458.747 Q472.97 458.747 477.646 454.534 Q482.322 450.321 482.322 443.099 Q482.322 435.876 477.646 431.664 Q472.97 427.451 464.961 427.451 Q461.211 427.451 457.461 428.284 Q453.757 429.117 449.868 430.876 L449.868 396.154 Z" fill="#000000" fill-rule="nonzero" fill-opacity="1" /><path clip-path="url(#clip590)" d="M530.099 402.312 Q522.877 402.312 519.22 409.441 Q515.608 416.525 515.608 430.784 Q515.608 444.997 519.22 452.126 Q522.877 459.21 530.099 459.21 Q537.368 459.21 540.979 452.126 Q544.636 444.997 544.636 430.784 Q544.636 416.525 540.979 409.441 Q537.368 402.312 530.099 402.312 M530.099 394.904 Q541.719 394.904 547.831 404.117 Q553.988 413.284 553.988 430.784 Q553.988 448.237 547.831 457.45 Q541.719 466.617 530.099 466.617 Q518.479 466.617 512.321 457.45 Q506.21 448.237 506.21 430.784 Q506.21 413.284 512.321 404.117 Q518.479 394.904 530.099 394.904 Z" fill="#000000" fill-rule="nonzero" fill-opacity="1" /><path clip-path="url(#clip590)" d="M570.423 453.515 L580.191 453.515 L580.191 465.274 L570.423 465.274 L570.423 453.515 Z" fill="#000000" fill-rule="nonzero" fill-opacity="1" /><path clip-path="url(#clip590)" d="M620.562 402.312 Q613.339 402.312 609.682 409.441 Q606.071 416.525 606.071 430.784 Q606.071 444.997 609.682 452.126 Q613.339 459.21 620.562 459.21 Q627.83 459.21 631.441 452.126 Q635.099 444.997 635.099 430.784 Q635.099 416.525 631.441 409.441 Q627.83 402.312 620.562 402.312 M620.562 394.904 Q632.182 394.904 638.293 404.117 Q644.45 413.284 644.45 430.784 Q644.45 448.237 638.293 457.45 Q632.182 466.617 620.562 466.617 Q608.941 466.617 602.784 457.45 Q596.673 448.237 596.673 430.784 Q596.673 413.284 602.784 404.117 Q608.941 394.904 620.562 394.904 Z" fill="#000000" fill-rule="nonzero" fill-opacity="1" /><path clip-path="url(#clip590)" d="M417.785 155.412 Q424.498 156.847 428.248 161.384 Q432.044 165.921 432.044 172.588 Q432.044 182.819 425.007 188.421 Q417.97 194.023 405.007 194.023 Q400.655 194.023 396.026 193.143 Q391.442 192.31 386.535 190.597 L386.535 181.569 Q390.424 183.838 395.054 184.995 Q399.683 186.152 404.729 186.152 Q413.526 186.152 418.109 182.68 Q422.739 179.208 422.739 172.588 Q422.739 166.477 418.433 163.051 Q414.174 159.578 406.535 159.578 L398.479 159.578 L398.479 151.893 L406.905 151.893 Q413.803 151.893 417.461 149.162 Q421.118 146.384 421.118 141.199 Q421.118 135.875 417.322 133.051 Q413.572 130.18 406.535 130.18 Q402.692 130.18 398.294 131.014 Q393.896 131.847 388.618 133.606 L388.618 125.273 Q393.942 123.792 398.572 123.051 Q403.248 122.31 407.368 122.31 Q418.016 122.31 424.22 127.171 Q430.424 131.986 430.424 140.227 Q430.424 145.967 427.137 149.949 Q423.85 153.884 417.785 155.412 Z" fill="#000000" fill-rule="nonzero" fill-opacity="1" /><path clip-path="url(#clip590)" d="M447.414 123.56 L491.859 123.56 L491.859 127.542 L466.766 192.68 L456.998 192.68 L480.609 131.43 L447.414 131.43 L447.414 123.56 Z" fill="#000000" fill-rule="nonzero" fill-opacity="1" /><path clip-path="url(#clip590)" d="M510.192 123.56 L546.905 123.56 L546.905 131.43 L518.757 131.43 L518.757 148.375 Q520.794 147.68 522.831 147.356 Q524.868 146.986 526.905 146.986 Q538.479 146.986 545.238 153.328 Q551.997 159.671 551.997 170.504 Q551.997 181.662 545.053 187.865 Q538.108 194.023 525.47 194.023 Q521.118 194.023 516.581 193.282 Q512.09 192.541 507.275 191.06 L507.275 181.662 Q511.442 183.93 515.886 185.041 Q520.331 186.152 525.284 186.152 Q533.294 186.152 537.969 181.939 Q542.645 177.726 542.645 170.504 Q542.645 163.282 537.969 159.069 Q533.294 154.856 525.284 154.856 Q521.534 154.856 517.784 155.69 Q514.081 156.523 510.192 158.282 L510.192 123.56 Z" fill="#000000" fill-rule="nonzero" fill-opacity="1" /><path clip-path="url(#clip590)" d="M570.423 180.921 L580.191 180.921 L580.191 192.68 L570.423 192.68 L570.423 180.921 Z" fill="#000000" fill-rule="nonzero" fill-opacity="1" /><path clip-path="url(#clip590)" d="M620.562 129.717 Q613.339 129.717 609.682 136.847 Q606.071 143.93 606.071 158.19 Q606.071 172.402 609.682 179.532 Q613.339 186.615 620.562 186.615 Q627.83 186.615 631.441 179.532 Q635.099 172.402 635.099 158.19 Q635.099 143.93 631.441 136.847 Q627.83 129.717 620.562 129.717 M620.562 122.31 Q632.182 122.31 638.293 131.523 Q644.45 140.69 644.45 158.19 Q644.45 175.643 638.293 184.856 Q632.182 194.023 620.562 194.023 Q608.941 194.023 602.784 184.856 Q596.673 175.643 596.673 158.19 Q596.673 140.69 602.784 131.523 Q608.941 122.31 620.562 122.31 Z" fill="#000000" fill-rule="nonzero" fill-opacity="1" /><path clip-path="url(#clip590)" d="M253.187 1099.45 L264.136 1099.45 Q261.398 1104.42 260.062 1109.45 Q258.661 1114.41 258.661 1119.51 Q258.661 1130.9 265.918 1137.2 Q273.111 1143.51 286.161 1143.51 Q299.211 1143.51 306.468 1137.2 Q313.661 1130.9 313.661 1119.51 Q313.661 1114.41 312.324 1109.45 Q310.924 1104.42 308.186 1099.45 L319.008 1099.45 Q321.3 1104.36 322.446 1109.64 Q323.591 1114.86 323.591 1120.78 Q323.591 1136.88 313.47 1146.37 Q303.348 1155.85 286.161 1155.85 Q268.719 1155.85 258.725 1146.31 Q248.731 1136.69 248.731 1120.02 Q248.731 1114.6 249.876 1109.45 Q250.959 1104.29 253.187 1099.45 Z" fill="#000000" fill-rule="nonzero" fill-opacity="1" /><path clip-path="url(#clip590)" d="M258.661 1051.46 Q258.661 1060.88 266.045 1066.35 Q273.366 1071.83 286.161 1071.83 Q298.956 1071.83 306.34 1066.42 Q313.661 1060.94 313.661 1051.46 Q313.661 1042.1 306.277 1036.62 Q298.892 1031.15 286.161 1031.15 Q273.493 1031.15 266.109 1036.62 Q258.661 1042.1 258.661 1051.46 M248.731 1051.46 Q248.731 1036.18 258.661 1027.46 Q268.592 1018.74 286.161 1018.74 Q303.667 1018.74 313.661 1027.46 Q323.591 1036.18 323.591 1051.46 Q323.591 1066.8 313.661 1075.52 Q303.667 1084.18 286.161 1084.18 Q268.592 1084.18 258.661 1075.52 Q248.731 1066.8 248.731 1051.46 Z" fill="#000000" fill-rule="nonzero" fill-opacity="1" /><path clip-path="url(#clip590)" d="M278.713 940.057 L321.745 940.057 L321.745 951.77 L279.095 951.77 Q268.974 951.77 263.945 955.717 Q258.916 959.663 258.916 967.557 Q258.916 977.042 264.963 982.516 Q271.011 987.991 281.45 987.991 L321.745 987.991 L321.745 999.767 L250.449 999.767 L250.449 987.991 L261.526 987.991 Q255.096 983.789 251.914 978.124 Q248.731 972.395 248.731 964.947 Q248.731 952.661 256.37 946.359 Q263.945 940.057 278.713 940.057 Z" fill="#000000" fill-rule="nonzero" fill-opacity="1" /><path clip-path="url(#clip590)" d="M253.187 865.387 L264.136 865.387 Q261.398 870.353 260.062 875.381 Q258.661 880.347 258.661 885.439 Q258.661 896.834 265.918 903.136 Q273.111 909.438 286.161 909.438 Q299.211 909.438 306.468 903.136 Q313.661 896.834 313.661 885.439 Q313.661 880.347 312.324 875.381 Q310.924 870.353 308.186 865.387 L319.008 865.387 Q321.3 870.289 322.446 875.572 Q323.591 880.792 323.591 886.712 Q323.591 902.818 313.47 912.303 Q303.348 921.787 286.161 921.787 Q268.719 921.787 258.725 912.239 Q248.731 902.627 248.731 885.949 Q248.731 880.538 249.876 875.381 Q250.959 870.225 253.187 865.387 Z" fill="#000000" fill-rule="nonzero" fill-opacity="1" /><path clip-path="url(#clip590)" d="M305.576 843.362 L305.576 829.93 L321.745 829.93 L321.745 843.362 L305.576 843.362 Z" fill="#000000" fill-rule="nonzero" fill-opacity="1" /><path clip-path="url(#clip590)" d="M250.449 770.538 L250.449 758.125 L310.287 735.845 L250.449 713.565 L250.449 701.152 L321.745 727.888 L321.745 743.802 L250.449 770.538 Z" fill="#000000" fill-rule="nonzero" fill-opacity="1" /><path clip-path="url(#clip590)" d="M283.169 624 L288.898 624 L288.898 677.854 Q300.993 677.09 307.359 670.597 Q313.661 664.04 313.661 652.391 Q313.661 645.643 312.006 639.341 Q310.351 632.975 307.041 626.737 L318.117 626.737 Q320.79 633.039 322.191 639.659 Q323.591 646.28 323.591 653.091 Q323.591 670.151 313.661 680.145 Q303.73 690.076 286.798 690.076 Q269.292 690.076 259.043 680.654 Q248.731 671.17 248.731 655.128 Q248.731 640.742 258.025 632.402 Q267.255 624 283.169 624 M279.732 635.713 Q270.119 635.84 264.39 641.123 Q258.661 646.343 258.661 655.001 Q258.661 664.804 264.199 670.724 Q269.737 676.58 279.795 677.472 L279.732 635.713 Z" fill="#000000" fill-rule="nonzero" fill-opacity="1" /><path clip-path="url(#clip590)" d="M278.713 545.511 L321.745 545.511 L321.745 557.223 L279.095 557.223 Q268.974 557.223 263.945 561.17 Q258.916 565.117 258.916 573.01 Q258.916 582.495 264.963 587.97 Q271.011 593.444 281.45 593.444 L321.745 593.444 L321.745 605.221 L250.449 605.221 L250.449 593.444 L261.526 593.444 Q255.096 589.243 251.914 583.577 Q248.731 577.848 248.731 570.4 Q248.731 558.115 256.37 551.813 Q263.945 545.511 278.713 545.511 Z" fill="#000000" fill-rule="nonzero" fill-opacity="1" /><path clip-path="url(#clip590)" d="M230.206 510.563 L250.449 510.563 L250.449 486.437 L259.552 486.437 L259.552 510.563 L298.256 510.563 Q306.977 510.563 309.459 508.207 Q311.942 505.789 311.942 498.468 L311.942 486.437 L321.745 486.437 L321.745 498.468 Q321.745 512.027 316.716 517.183 Q311.624 522.339 298.256 522.339 L259.552 522.339 L259.552 530.933 L250.449 530.933 L250.449 522.339 L230.206 522.339 L230.206 510.563 Z" fill="#000000" fill-rule="nonzero" fill-opacity="1" /><path clip-path="url(#clip590)" d="M261.398 429.718 Q260.253 431.692 259.743 434.047 Q259.17 436.339 259.17 439.14 Q259.17 449.07 265.663 454.417 Q272.093 459.701 284.188 459.701 L321.745 459.701 L321.745 471.477 L250.449 471.477 L250.449 459.701 L261.526 459.701 Q255.033 456.009 251.914 450.089 Q248.731 444.168 248.731 435.702 Q248.731 434.493 248.922 433.028 Q249.049 431.564 249.367 429.782 L261.398 429.718 Z" fill="#000000" fill-rule="nonzero" fill-opacity="1" /><path clip-path="url(#clip590)" d="M250.449 417.433 L250.449 405.72 L321.745 405.72 L321.745 417.433 L250.449 417.433 M222.695 417.433 L222.695 405.72 L237.527 405.72 L237.527 417.433 L222.695 417.433 Z" fill="#000000" fill-rule="nonzero" fill-opacity="1" /><path clip-path="url(#clip590)" d="M253.187 329.904 L264.136 329.904 Q261.398 334.869 260.062 339.898 Q258.661 344.863 258.661 349.956 Q258.661 361.351 265.918 367.653 Q273.111 373.955 286.161 373.955 Q299.211 373.955 306.468 367.653 Q313.661 361.351 313.661 349.956 Q313.661 344.863 312.324 339.898 Q310.924 334.869 308.186 329.904 L319.008 329.904 Q321.3 334.806 322.446 340.089 Q323.591 345.309 323.591 351.229 Q323.591 367.334 313.47 376.819 Q303.348 386.304 286.161 386.304 Q268.719 386.304 258.725 376.756 Q248.731 367.143 248.731 350.465 Q248.731 345.054 249.876 339.898 Q250.959 334.742 253.187 329.904 Z" fill="#000000" fill-rule="nonzero" fill-opacity="1" /><path clip-path="url(#clip590)" d="M222.695 309.534 L222.695 297.821 L321.745 297.821 L321.745 309.534 L222.695 309.534 Z" fill="#000000" fill-rule="nonzero" fill-opacity="1" /><path clip-path="url(#clip590)" d="M283.169 212.329 L288.898 212.329 L288.898 266.183 Q300.993 265.419 307.359 258.926 Q313.661 252.37 313.661 240.721 Q313.661 233.973 312.006 227.671 Q310.351 221.305 307.041 215.067 L318.117 215.067 Q320.79 221.369 322.191 227.989 Q323.591 234.609 323.591 241.421 Q323.591 258.481 313.661 268.475 Q303.73 278.405 286.798 278.405 Q269.292 278.405 259.043 268.984 Q248.731 259.499 248.731 243.458 Q248.731 229.071 258.025 220.732 Q267.255 212.329 283.169 212.329 M279.732 224.042 Q270.119 224.17 264.39 229.453 Q258.661 234.673 258.661 243.33 Q258.661 253.134 264.199 259.054 Q269.737 264.91 279.795 265.801 L279.732 224.042 Z" fill="#000000" fill-rule="nonzero" fill-opacity="1" /><polyline clip-path="url(#clip592)" style="stroke:#008000; stroke-linecap:round; stroke-linejoin:round; stroke-width:8; stroke-opacity:1; fill:none" points="726.443,498.519 844.372,376.185 962.301,525.87 1080.23,442.264 1198.16,647.832 1316.09,813.687 1434.02,986.303 1551.95,940.463 1669.87,1101.9 1787.8,887.096 1905.73,943.154 2023.66,328.616 2141.59,255.404 2259.52,127.862 "/>
<circle clip-path="url(#clip592)" cx="726.443" cy="498.519" r="14.4" fill="#008000" fill-rule="evenodd" fill-opacity="1" stroke="#000000" stroke-opacity="1" stroke-width="6.4"/>
<circle clip-path="url(#clip592)" cx="844.372" cy="376.185" r="14.4" fill="#008000" fill-rule="evenodd" fill-opacity="1" stroke="#000000" stroke-opacity="1" stroke-width="6.4"/>
<circle clip-path="url(#clip592)" cx="962.301" cy="525.87" r="14.4" fill="#008000" fill-rule="evenodd" fill-opacity="1" stroke="#000000" stroke-opacity="1" stroke-width="6.4"/>
<circle clip-path="url(#clip592)" cx="1080.23" cy="442.264" r="14.4" fill="#008000" fill-rule="evenodd" fill-opacity="1" stroke="#000000" stroke-opacity="1" stroke-width="6.4"/>
<circle clip-path="url(#clip592)" cx="1198.16" cy="647.832" r="14.4" fill="#008000" fill-rule="evenodd" fill-opacity="1" stroke="#000000" stroke-opacity="1" stroke-width="6.4"/>
<circle clip-path="url(#clip592)" cx="1316.09" cy="813.687" r="14.4" fill="#008000" fill-rule="evenodd" fill-opacity="1" stroke="#000000" stroke-opacity="1" stroke-width="6.4"/>
<circle clip-path="url(#clip592)" cx="1434.02" cy="986.303" r="14.4" fill="#008000" fill-rule="evenodd" fill-opacity="1" stroke="#000000" stroke-opacity="1" stroke-width="6.4"/>
<circle clip-path="url(#clip592)" cx="1551.95" cy="940.463" r="14.4" fill="#008000" fill-rule="evenodd" fill-opacity="1" stroke="#000000" stroke-opacity="1" stroke-width="6.4"/>
<circle clip-path="url(#clip592)" cx="1669.87" cy="1101.9" r="14.4" fill="#008000" fill-rule="evenodd" fill-opacity="1" stroke="#000000" stroke-opacity="1" stroke-width="6.4"/>
<circle clip-path="url(#clip592)" cx="1787.8" cy="887.096" r="14.4" fill="#008000" fill-rule="evenodd" fill-opacity="1" stroke="#000000" stroke-opacity="1" stroke-width="6.4"/>
<circle clip-path="url(#clip592)" cx="1905.73" cy="943.154" r="14.4" fill="#008000" fill-rule="evenodd" fill-opacity="1" stroke="#000000" stroke-opacity="1" stroke-width="6.4"/>
<circle clip-path="url(#clip592)" cx="2023.66" cy="328.616" r="14.4" fill="#008000" fill-rule="evenodd" fill-opacity="1" stroke="#000000" stroke-opacity="1" stroke-width="6.4"/>
<circle clip-path="url(#clip592)" cx="2141.59" cy="255.404" r="14.4" fill="#008000" fill-rule="evenodd" fill-opacity="1" stroke="#000000" stroke-opacity="1" stroke-width="6.4"/>
<circle clip-path="url(#clip592)" cx="2259.52" cy="127.862" r="14.4" fill="#008000" fill-rule="evenodd" fill-opacity="1" stroke="#000000" stroke-opacity="1" stroke-width="6.4"/>
<polyline clip-path="url(#clip592)" style="stroke:#00008b; stroke-linecap:round; stroke-linejoin:round; stroke-width:8; stroke-opacity:1; fill:none" points="726.443,496.919 844.372,381.473 962.301,394.399 1080.23,432.444 1198.16,467.531 1316.09,527.567 1434.02,608.315 1551.95,659.667 1669.87,747.067 1787.8,789.176 1905.73,854.393 2023.66,918.623 2141.59,988.547 2259.52,1035.08 "/>
<path clip-path="url(#clip592)" d="M726.443 700.844 L844.372 616.924 L962.301 629.973 L1080.23 658.168 L1198.16 696.718 L1316.09 747.515 L1434.02 823.091 L1551.95 864.131 L1669.87 937.506 L1787.8 978.009 L1905.73 1048.67 L2023.66 1126.26 L2141.59 1197.68 L2259.52 1240.32 L2259.52 717.292 L2141.59 683.729 L2023.66 633.945 L1905.73 575.591 L1787.8 527.009 L1669.87 487.182 L1551.95 408.39 L1434.02 377.672 L1316.09 327.333 L1198.16 271.794 L1080.23 245.891 L962.301 209.203 L844.372 192.778 L726.443 293.403  Z" fill="#0000ff" fill-rule="evenodd" fill-opacity="0.1"/>
<polyline clip-path="url(#clip592)" style="stroke:#0000ff; stroke-linecap:round; stroke-linejoin:round; stroke-width:0; stroke-opacity:0.1; fill:none" points="726.443,700.844 844.372,616.924 962.301,629.973 1080.23,658.168 1198.16,696.718 1316.09,747.515 1434.02,823.091 1551.95,864.131 1669.87,937.506 1787.8,978.009 1905.73,1048.67 2023.66,1126.26 2141.59,1197.68 2259.52,1240.32 "/>
</svg>
