<?xml version="1.0" encoding="utf-8"?>
<svg xmlns="http://www.w3.org/2000/svg" xmlns:xlink="http://www.w3.org/1999/xlink" width="600" height="400" viewBox="0 0 2400 1600">
<defs>
  <clipPath id="clip550">
    <rect x="0" y="0" width="2400" height="1600"/>
  </clipPath>
</defs>
<path clip-path="url(#clip550)" d="M0 1600 L2400 1600 L2400 0 L0 0  Z" fill="#ffffff" fill-rule="evenodd" fill-opacity="1"/>
<defs>
  <clipPath id="clip551">
    <rect x="480" y="0" width="1681" height="1600"/>
  </clipPath>
</defs>
<path clip-path="url(#clip550)" d="M673.506 1273.7 L2305.51 1273.7 L2305.51 94.4882 L673.506 94.4882  Z" fill="#ffffff" fill-rule="evenodd" fill-opacity="1"/>
<defs>
  <clipPath id="clip552">
    <rect x="673" y="94" width="1633" height="1180"/>
  </clipPath>
</defs>
<polyline clip-path="url(#clip552)" style="stroke:#000000; stroke-linecap:round; stroke-linejoin:round; stroke-width:4; stroke-opacity:0.1; fill:none" points="719.695,1273.7 719.695,94.4882 "/>
<polyline clip-path="url(#clip552)" style="stroke:#000000; stroke-linecap:round; stroke-linejoin:round; stroke-width:4; stroke-opacity:0.1; fill:none" points="956.561,1273.7 956.561,94.4882 "/>
<polyline clip-path="url(#clip552)" style="stroke:#000000; stroke-linecap:round; stroke-linejoin:round; stroke-width:4; stroke-opacity:0.1; fill:none" points="1193.43,1273.7 1193.43,94.4882 "/>
<polyline clip-path="url(#clip552)" style="stroke:#000000; stroke-linecap:round; stroke-linejoin:round; stroke-width:4; stroke-opacity:0.1; fill:none" points="1430.29,1273.7 1430.29,94.4882 "/>
<polyline clip-path="url(#clip552)" style="stroke:#000000; stroke-linecap:round; stroke-linejoin:round; stroke-width:4; stroke-opacity:0.1; fill:none" points="1667.16,1273.7 1667.16,94.4882 "/>
<polyline clip-path="url(#clip552)" style="stroke:#000000; stroke-linecap:round; stroke-linejoin:round; stroke-width:4; stroke-opacity:0.1; fill:none" points="1904.02,1273.7 1904.02,94.4882 "/>
<polyline clip-path="url(#clip552)" style="stroke:#000000; stroke-linecap:round; stroke-linejoin:round; stroke-width:4; stroke-opacity:0.1; fill:none" points="2140.89,1273.7 2140.89,94.4882 "/>
<polyline clip-path="url(#clip550)" style="stroke:#000000; stroke-linecap:round; stroke-linejoin:round; stroke-width:8; stroke-opacity:1; fill:none" points="673.506,1273.7 2305.51,1273.7 "/>
<polyline clip-path="url(#clip550)" style="stroke:#000000; stroke-linecap:round; stroke-linejoin:round; stroke-width:8; stroke-opacity:1; fill:none" points="719.695,1273.7 719.695,1254.8 "/>
<polyline clip-path="url(#clip550)" style="stroke:#000000; stroke-linecap:round; stroke-linejoin:round; stroke-width:8; stroke-opacity:1; fill:none" points="956.561,1273.7 956.561,1254.8 "/>
<polyline clip-path="url(#clip550)" style="stroke:#000000; stroke-linecap:round; stroke-linejoin:round; stroke-width:8; stroke-opacity:1; fill:none" points="1193.43,1273.7 1193.43,1254.8 "/>
<polyline clip-path="url(#clip550)" style="stroke:#000000; stroke-linecap:round; stroke-linejoin:round; stroke-width:8; stroke-opacity:1; fill:none" points="1430.29,1273.7 1430.29,1254.8 "/>
<polyline clip-path="url(#clip550)" style="stroke:#000000; stroke-linecap:round; stroke-linejoin:round; stroke-width:8; stroke-opacity:1; fill:none" points="1667.16,1273.7 1667.16,1254.8 "/>
<polyline clip-path="url(#clip550)" style="stroke:#000000; stroke-linecap:round; stroke-linejoin:round; stroke-width:8; stroke-opacity:1; fill:none" points="1904.02,1273.7 1904.02,1254.8 "/>
<polyline clip-path="url(#clip550)" style="stroke:#000000; stroke-linecap:round; stroke-linejoin:round; stroke-width:8; stroke-opacity:1; fill:none" points="2140.89,1273.7 2140.89,1254.8 "/>
<path clip-path="url(#clip550)" d="M674.464 1316.33 Q667.241 1316.33 663.584 1323.46 Q659.973 1330.55 659.973 1344.81 Q659.973 1359.02 663.584 1366.15 Q667.241 1373.23 674.464 1373.23 Q681.732 1373.23 685.343 1366.15 Q689.001 1359.02 689.001 1344.81 Q689.001 1330.55 685.343 1323.46 Q681.732 1316.33 674.464 1316.33 M674.464 1308.93 Q686.084 1308.93 692.195 1318.14 Q698.352 1327.31 698.352 1344.81 Q698.352 1362.26 692.195 1371.47 Q686.084 1380.64 674.464 1380.64 Q662.843 1380.64 656.686 1371.47 Q650.575 1362.26 650.575 1344.81 Q650.575 1327.31 656.686 1318.14 Q662.843 1308.93 674.464 1308.93 Z" fill="#000000" fill-rule="nonzero" fill-opacity="1" /><path clip-path="url(#clip550)" d="M714.787 1367.54 L724.556 1367.54 L724.556 1379.3 L714.787 1379.3 L714.787 1367.54 Z" fill="#000000" fill-rule="nonzero" fill-opacity="1" /><path clip-path="url(#clip550)" d="M764.926 1316.33 Q757.704 1316.33 754.046 1323.46 Q750.435 1330.55 750.435 1344.81 Q750.435 1359.02 754.046 1366.15 Q757.704 1373.23 764.926 1373.23 Q772.195 1373.23 775.806 1366.15 Q779.463 1359.02 779.463 1344.81 Q779.463 1330.55 775.806 1323.46 Q772.195 1316.33 764.926 1316.33 M764.926 1308.93 Q776.546 1308.93 782.657 1318.14 Q788.815 1327.31 788.815 1344.81 Q788.815 1362.26 782.657 1371.47 Q776.546 1380.64 764.926 1380.64 Q753.306 1380.64 747.148 1371.47 Q741.037 1362.26 741.037 1344.81 Q741.037 1327.31 747.148 1318.14 Q753.306 1308.93 764.926 1308.93 Z" fill="#000000" fill-rule="nonzero" fill-opacity="1" /><path clip-path="url(#clip550)" d="M912.927 1316.33 Q905.704 1316.33 902.047 1323.46 Q898.436 1330.55 898.436 1344.81 Q898.436 1359.02 902.047 1366.15 Q905.704 1373.23 912.927 1373.23 Q920.195 1373.23 923.806 1366.15 Q927.464 1359.02 927.464 1344.81 Q927.464 1330.55 923.806 1323.46 Q920.195 1316.33 912.927 1316.33 M912.927 1308.93 Q924.547 1308.93 930.658 1318.14 Q936.815 1327.31 936.815 1344.81 Q936.815 1362.26 930.658 1371.47 Q924.547 1380.64 912.927 1380.64 Q901.306 1380.64 895.149 1371.47 Q889.038 1362.26 889.038 1344.81 Q889.038 1327.31 895.149 1318.14 Q901.306 1308.93 912.927 1308.93 Z" fill="#000000" fill-rule="nonzero" fill-opacity="1" /><path clip-path="url(#clip550)" d="M953.251 1367.54 L963.019 1367.54 L963.019 1379.3 L953.251 1379.3 L953.251 1367.54 Z" fill="#000000" fill-rule="nonzero" fill-opacity="1" /><path clip-path="url(#clip550)" d="M991.445 1371.43 L1024.08 1371.43 L1024.08 1379.3 L980.195 1379.3 L980.195 1371.43 Q985.519 1365.92 994.685 1356.66 Q1003.9 1347.35 1006.26 1344.67 Q1010.75 1339.62 1012.51 1336.15 Q1014.32 1332.63 1014.32 1329.25 Q1014.32 1323.74 1010.43 1320.27 Q1006.58 1316.8 1000.38 1316.8 Q995.982 1316.8 991.074 1318.32 Q986.213 1319.85 980.658 1322.95 L980.658 1313.51 Q986.306 1311.24 991.213 1310.08 Q996.121 1308.93 1000.19 1308.93 Q1010.94 1308.93 1017.32 1314.3 Q1023.71 1319.67 1023.71 1328.65 Q1023.71 1332.91 1022.09 1336.75 Q1020.52 1340.55 1016.31 1345.73 Q1015.15 1347.07 1008.94 1353.51 Q1002.74 1359.9 991.445 1371.43 Z" fill="#000000" fill-rule="nonzero" fill-opacity="1" /><path clip-path="url(#clip550)" d="M1147.71 1316.33 Q1140.49 1316.33 1136.83 1323.46 Q1133.22 1330.55 1133.22 1344.81 Q1133.22 1359.02 1136.83 1366.15 Q1140.49 1373.23 1147.71 1373.23 Q1154.98 1373.23 1158.59 1366.15 Q1162.25 1359.02 1162.25 1344.81 Q1162.25 1330.55 1158.59 1323.46 Q1154.98 1316.33 1147.71 1316.33 M1147.71 1308.93 Q1159.33 1308.93 1165.44 1318.14 Q1171.6 1327.31 1171.6 1344.81 Q1171.6 1362.26 1165.44 1371.47 Q1159.33 1380.64 1147.71 1380.64 Q1136.09 1380.64 1129.93 1371.47 Q1123.82 1362.26 1123.82 1344.81 Q1123.82 1327.31 1129.93 1318.14 Q1136.09 1308.93 1147.71 1308.93 Z" fill="#000000" fill-rule="nonzero" fill-opacity="1" /><path clip-path="url(#clip550)" d="M1188.03 1367.54 L1197.8 1367.54 L1197.8 1379.3 L1188.03 1379.3 L1188.03 1367.54 Z" fill="#000000" fill-rule="nonzero" fill-opacity="1" /><path clip-path="url(#clip550)" d="M1243.87 1318.32 L1220.26 1355.22 L1243.87 1355.22 L1243.87 1318.32 M1241.41 1310.18 L1253.17 1310.18 L1253.17 1355.22 L1263.03 1355.22 L1263.03 1363 L1253.17 1363 L1253.17 1379.3 L1243.87 1379.3 L1243.87 1363 L1212.66 1363 L1212.66 1353.97 L1241.41 1310.18 Z" fill="#000000" fill-rule="nonzero" fill-opacity="1" /><path clip-path="url(#clip550)" d="M1384.9 1316.33 Q1377.68 1316.33 1374.02 1323.46 Q1370.41 1330.55 1370.41 1344.81 Q1370.41 1359.02 1374.02 1366.15 Q1377.68 1373.23 1384.9 1373.23 Q1392.17 1373.23 1395.78 1366.15 Q1399.44 1359.02 1399.44 1344.81 Q1399.44 1330.55 1395.78 1323.46 Q1392.17 1316.33 1384.9 1316.33 M1384.9 1308.93 Q1396.52 1308.93 1402.63 1318.14 Q1408.79 1327.31 1408.79 1344.81 Q1408.79 1362.26 1402.63 1371.47 Q1396.52 1380.64 1384.9 1380.64 Q1373.28 1380.64 1367.12 1371.47 Q1361.01 1362.26 1361.01 1344.81 Q1361.01 1327.31 1367.12 1318.14 Q1373.28 1308.93 1384.9 1308.93 Z" fill="#000000" fill-rule="nonzero" fill-opacity="1" /><path clip-path="url(#clip550)" d="M1425.22 1367.54 L1434.99 1367.54 L1434.99 1379.3 L1425.22 1379.3 L1425.22 1367.54 Z" fill="#000000" fill-rule="nonzero" fill-opacity="1" /><path clip-path="url(#clip550)" d="M1476.52 1341.01 Q1470.22 1341.01 1466.52 1345.31 Q1462.86 1349.62 1462.86 1357.12 Q1462.86 1364.57 1466.52 1368.93 Q1470.22 1373.23 1476.52 1373.23 Q1482.82 1373.23 1486.47 1368.93 Q1490.18 1364.57 1490.18 1357.12 Q1490.18 1349.62 1486.47 1345.31 Q1482.82 1341.01 1476.52 1341.01 M1495.08 1311.7 L1495.08 1320.22 Q1491.57 1318.56 1487.95 1317.68 Q1484.39 1316.8 1480.87 1316.8 Q1471.61 1316.8 1466.7 1323.05 Q1461.84 1329.3 1461.15 1341.93 Q1463.88 1337.91 1468 1335.78 Q1472.12 1333.6 1477.07 1333.6 Q1487.49 1333.6 1493.51 1339.94 Q1499.57 1346.24 1499.57 1357.12 Q1499.57 1367.77 1493.28 1374.2 Q1486.98 1380.64 1476.52 1380.64 Q1464.53 1380.64 1458.19 1371.47 Q1451.84 1362.26 1451.84 1344.81 Q1451.84 1328.42 1459.62 1318.69 Q1467.4 1308.93 1480.5 1308.93 Q1484.02 1308.93 1487.58 1309.62 Q1491.19 1310.31 1495.08 1311.7 Z" fill="#000000" fill-rule="nonzero" fill-opacity="1" /><path clip-path="url(#clip550)" d="M1622.02 1316.33 Q1614.8 1316.33 1611.14 1323.46 Q1607.53 1330.55 1607.53 1344.81 Q1607.53 1359.02 1611.14 1366.15 Q1614.8 1373.23 1622.02 1373.23 Q1629.29 1373.23 1632.9 1366.15 Q1636.56 1359.02 1636.56 1344.81 Q1636.56 1330.55 1632.9 1323.46 Q1629.29 1316.33 1622.02 1316.33 M1622.02 1308.93 Q1633.64 1308.93 1639.75 1318.14 Q1645.91 1327.31 1645.91 1344.81 Q1645.91 1362.26 1639.75 1371.47 Q1633.64 1380.64 1622.02 1380.64 Q1610.4 1380.64 1604.24 1371.47 Q1598.13 1362.26 1598.13 1344.81 Q1598.13 1327.31 1604.24 1318.14 Q1610.4 1308.93 1622.02 1308.93 Z" fill="#000000" fill-rule="nonzero" fill-opacity="1" /><path clip-path="url(#clip550)" d="M1662.34 1367.54 L1672.11 1367.54 L1672.11 1379.3 L1662.34 1379.3 L1662.34 1367.54 Z" fill="#000000" fill-rule="nonzero" fill-opacity="1" /><path clip-path="url(#clip550)" d="M1712.48 1346.47 Q1705.82 1346.47 1701.97 1350.04 Q1698.18 1353.6 1698.18 1359.85 Q1698.18 1366.1 1701.97 1369.67 Q1705.82 1373.23 1712.48 1373.23 Q1719.15 1373.23 1722.99 1369.67 Q1726.83 1366.06 1726.83 1359.85 Q1726.83 1353.6 1722.99 1350.04 Q1719.2 1346.47 1712.48 1346.47 M1703.13 1342.49 Q1697.11 1341.01 1693.73 1336.89 Q1690.4 1332.77 1690.4 1326.84 Q1690.4 1318.56 1696.28 1313.74 Q1702.2 1308.93 1712.48 1308.93 Q1722.81 1308.93 1728.69 1313.74 Q1734.57 1318.56 1734.57 1326.84 Q1734.57 1332.77 1731.19 1336.89 Q1727.85 1341.01 1721.88 1342.49 Q1728.64 1344.06 1732.39 1348.65 Q1736.19 1353.23 1736.19 1359.85 Q1736.19 1369.9 1730.03 1375.27 Q1723.92 1380.64 1712.48 1380.64 Q1701.05 1380.64 1694.89 1375.27 Q1688.78 1369.9 1688.78 1359.85 Q1688.78 1353.23 1692.57 1348.65 Q1696.37 1344.06 1703.13 1342.49 M1699.7 1327.72 Q1699.7 1333.09 1703.04 1336.1 Q1706.42 1339.11 1712.48 1339.11 Q1718.5 1339.11 1721.88 1336.1 Q1725.31 1333.09 1725.31 1327.72 Q1725.31 1322.35 1721.88 1319.34 Q1718.5 1316.33 1712.48 1316.33 Q1706.42 1316.33 1703.04 1319.34 Q1699.7 1322.35 1699.7 1327.72 Z" fill="#000000" fill-rule="nonzero" fill-opacity="1" /><path clip-path="url(#clip550)" d="M1838.33 1371.43 L1853.61 1371.43 L1853.61 1318.69 L1836.99 1322.03 L1836.99 1313.51 L1853.52 1310.18 L1862.87 1310.18 L1862.87 1371.43 L1878.14 1371.43 L1878.14 1379.3 L1838.33 1379.3 L1838.33 1371.43 Z" fill="#000000" fill-rule="nonzero" fill-opacity="1" /><path clip-path="url(#clip550)" d="M1897.03 1367.54 L1906.8 1367.54 L1906.8 1379.3 L1897.03 1379.3 L1897.03 1367.54 Z" fill="#000000" fill-rule="nonzero" fill-opacity="1" /><path clip-path="url(#clip550)" d="M1947.17 1316.33 Q1939.95 1316.33 1936.29 1323.46 Q1932.68 1330.55 1932.68 1344.81 Q1932.68 1359.02 1936.29 1366.15 Q1939.95 1373.23 1947.17 1373.23 Q1954.44 1373.23 1958.05 1366.15 Q1961.71 1359.02 1961.71 1344.81 Q1961.71 1330.55 1958.05 1323.46 Q1954.44 1316.33 1947.17 1316.33 M1947.17 1308.93 Q1958.79 1308.93 1964.9 1318.14 Q1971.06 1327.31 1971.06 1344.81 Q1971.06 1362.26 1964.9 1371.47 Q1958.79 1380.64 1947.17 1380.64 Q1935.55 1380.64 1929.39 1371.47 Q1923.28 1362.26 1923.28 1344.81 Q1923.28 1327.31 1929.39 1318.14 Q1935.55 1308.93 1947.17 1308.93 Z" fill="#000000" fill-rule="nonzero" fill-opacity="1" /><path clip-path="url(#clip550)" d="M2076.79 1371.43 L2092.07 1371.43 L2092.07 1318.69 L2075.45 1322.03 L2075.45 1313.51 L2091.98 1310.18 L2101.33 1310.18 L2101.33 1371.43 L2116.61 1371.43 L2116.61 1379.3 L2076.79 1379.3 L2076.79 1371.43 Z" fill="#000000" fill-rule="nonzero" fill-opacity="1" /><path clip-path="url(#clip550)" d="M2135.5 1367.54 L2145.27 1367.54 L2145.27 1379.3 L2135.5 1379.3 L2135.5 1367.54 Z" fill="#000000" fill-rule="nonzero" fill-opacity="1" /><path clip-path="url(#clip550)" d="M2173.69 1371.43 L2206.33 1371.43 L2206.33 1379.3 L2162.44 1379.3 L2162.44 1371.43 Q2167.76 1365.92 2176.93 1356.66 Q2186.14 1347.35 2188.51 1344.67 Q2193 1339.62 2194.76 1336.15 Q2196.56 1332.63 2196.56 1329.25 Q2196.56 1323.74 2192.67 1320.27 Q2188.83 1316.8 2182.63 1316.8 Q2178.23 1316.8 2173.32 1318.32 Q2168.46 1319.85 2162.9 1322.95 L2162.9 1313.51 Q2168.55 1311.24 2173.46 1310.08 Q2178.37 1308.93 2182.44 1308.93 Q2193.18 1308.93 2199.57 1314.3 Q2205.96 1319.67 2205.96 1328.65 Q2205.96 1332.91 2204.34 1336.75 Q2202.76 1340.55 2198.55 1345.73 Q2197.39 1347.07 2191.19 1353.51 Q2184.99 1359.9 2173.69 1371.43 Z" fill="#000000" fill-rule="nonzero" fill-opacity="1" /><path clip-path="url(#clip550)" d="M1375.05 1484.39 L1375.05 1527.42 L1363.34 1527.42 L1363.34 1484.77 Q1363.34 1474.65 1359.39 1469.62 Q1355.45 1464.59 1347.55 1464.59 Q1338.07 1464.59 1332.59 1470.64 Q1327.12 1476.69 1327.12 1487.13 L1327.12 1527.42 L1315.34 1527.42 L1315.34 1428.37 L1327.12 1428.37 L1327.12 1467.2 Q1331.32 1460.77 1336.99 1457.59 Q1342.72 1454.41 1350.16 1454.41 Q1362.45 1454.41 1368.75 1462.05 Q1375.05 1469.62 1375.05 1484.39 Z" fill="#000000" fill-rule="nonzero" fill-opacity="1" /><path clip-path="url(#clip550)" d="M1426.04 1464.34 Q1416.62 1464.34 1411.15 1471.72 Q1405.67 1479.04 1405.67 1491.84 Q1405.67 1504.63 1411.08 1512.02 Q1416.56 1519.34 1426.04 1519.34 Q1435.4 1519.34 1440.87 1511.96 Q1446.35 1504.57 1446.35 1491.84 Q1446.35 1479.17 1440.87 1471.79 Q1435.4 1464.34 1426.04 1464.34 M1426.04 1454.41 Q1441.32 1454.41 1450.04 1464.34 Q1458.76 1474.27 1458.76 1491.84 Q1458.76 1509.35 1450.04 1519.34 Q1441.32 1529.27 1426.04 1529.27 Q1410.7 1529.27 1401.98 1519.34 Q1393.32 1509.35 1393.32 1491.84 Q1393.32 1474.27 1401.98 1464.34 Q1410.7 1454.41 1426.04 1454.41 Z" fill="#000000" fill-rule="nonzero" fill-opacity="1" /><path clip-path="url(#clip550)" d="M1476.97 1499.29 L1476.97 1456.13 L1488.68 1456.13 L1488.68 1498.84 Q1488.68 1508.96 1492.63 1514.06 Q1496.57 1519.08 1504.47 1519.08 Q1513.95 1519.08 1519.43 1513.04 Q1524.97 1506.99 1524.97 1496.55 L1524.97 1456.13 L1536.68 1456.13 L1536.68 1527.42 L1524.97 1527.42 L1524.97 1516.47 Q1520.7 1522.97 1515.04 1526.15 Q1509.43 1529.27 1501.99 1529.27 Q1489.7 1529.27 1483.33 1521.63 Q1476.97 1513.99 1476.97 1499.29 M1506.44 1454.41 L1506.44 1454.41 Z" fill="#000000" fill-rule="nonzero" fill-opacity="1" /><path clip-path="url(#clip550)" d="M1602.12 1467.08 Q1600.14 1465.93 1597.79 1465.42 Q1595.5 1464.85 1592.7 1464.85 Q1582.77 1464.85 1577.42 1471.34 Q1572.14 1477.77 1572.14 1489.87 L1572.14 1527.42 L1560.36 1527.42 L1560.36 1456.13 L1572.14 1456.13 L1572.14 1467.2 Q1575.83 1460.71 1581.75 1457.59 Q1587.67 1454.41 1596.13 1454.41 Q1597.34 1454.41 1598.81 1454.6 Q1600.27 1454.73 1602.05 1455.05 L1602.12 1467.08 Z" fill="#000000" fill-rule="nonzero" fill-opacity="1" /><path clip-path="url(#clip550)" d="M1659.86 1458.23 L1659.86 1469.3 Q1654.89 1466.76 1649.54 1465.49 Q1644.2 1464.21 1638.47 1464.21 Q1629.75 1464.21 1625.35 1466.89 Q1621.02 1469.56 1621.02 1474.91 Q1621.02 1478.98 1624.14 1481.34 Q1627.26 1483.63 1636.68 1485.73 L1640.69 1486.62 Q1653.17 1489.29 1658.39 1494.19 Q1663.67 1499.03 1663.67 1507.75 Q1663.67 1517.68 1655.78 1523.48 Q1647.95 1529.27 1634.2 1529.27 Q1628.47 1529.27 1622.23 1528.12 Q1616.06 1527.04 1609.18 1524.81 L1609.18 1512.72 Q1615.68 1516.09 1621.98 1517.81 Q1628.28 1519.47 1634.46 1519.47 Q1642.73 1519.47 1647.19 1516.67 Q1651.64 1513.8 1651.64 1508.64 Q1651.64 1503.87 1648.4 1501.32 Q1645.21 1498.78 1634.33 1496.42 L1630.25 1495.47 Q1619.37 1493.18 1614.53 1488.47 Q1609.69 1483.69 1609.69 1475.42 Q1609.69 1465.36 1616.82 1459.88 Q1623.95 1454.41 1637.07 1454.41 Q1643.56 1454.41 1649.29 1455.36 Q1655.02 1456.32 1659.86 1458.23 Z" fill="#000000" fill-rule="nonzero" fill-opacity="1" /><polyline clip-path="url(#clip552)" style="stroke:#000000; stroke-linecap:round; stroke-linejoin:round; stroke-width:4; stroke-opacity:0.1; fill:none" points="673.506,1109.44 2305.51,1109.44 "/>
<polyline clip-path="url(#clip552)" style="stroke:#000000; stroke-linecap:round; stroke-linejoin:round; stroke-width:4; stroke-opacity:0.1; fill:none" points="673.506,932.461 2305.51,932.461 "/>
<polyline clip-path="url(#clip552)" style="stroke:#000000; stroke-linecap:round; stroke-linejoin:round; stroke-width:4; stroke-opacity:0.1; fill:none" points="673.506,755.48 2305.51,755.48 "/>
<polyline clip-path="url(#clip552)" style="stroke:#000000; stroke-linecap:round; stroke-linejoin:round; stroke-width:4; stroke-opacity:0.1; fill:none" points="673.506,578.499 2305.51,578.499 "/>
<polyline clip-path="url(#clip552)" style="stroke:#000000; stroke-linecap:round; stroke-linejoin:round; stroke-width:4; stroke-opacity:0.1; fill:none" points="673.506,401.518 2305.51,401.518 "/>
<polyline clip-path="url(#clip552)" style="stroke:#000000; stroke-linecap:round; stroke-linejoin:round; stroke-width:4; stroke-opacity:0.1; fill:none" points="673.506,224.538 2305.51,224.538 "/>
<polyline clip-path="url(#clip550)" style="stroke:#000000; stroke-linecap:round; stroke-linejoin:round; stroke-width:8; stroke-opacity:1; fill:none" points="673.506,1273.7 673.506,94.4882 "/>
<polyline clip-path="url(#clip550)" style="stroke:#000000; stroke-linecap:round; stroke-linejoin:round; stroke-width:8; stroke-opacity:1; fill:none" points="673.506,1109.44 692.404,1109.44 "/>
<polyline clip-path="url(#clip550)" style="stroke:#000000; stroke-linecap:round; stroke-linejoin:round; stroke-width:8; stroke-opacity:1; fill:none" points="673.506,932.461 692.404,932.461 "/>
<polyline clip-path="url(#clip550)" style="stroke:#000000; stroke-linecap:round; stroke-linejoin:round; stroke-width:8; stroke-opacity:1; fill:none" points="673.506,755.48 692.404,755.48 "/>
<polyline clip-path="url(#clip550)" style="stroke:#000000; stroke-linecap:round; stroke-linejoin:round; stroke-width:8; stroke-opacity:1; fill:none" points="673.506,578.499 692.404,578.499 "/>
<polyline clip-path="url(#clip550)" style="stroke:#000000; stroke-linecap:round; stroke-linejoin:round; stroke-width:8; stroke-opacity:1; fill:none" points="673.506,401.518 692.404,401.518 "/>
<polyline clip-path="url(#clip550)" style="stroke:#000000; stroke-linecap:round; stroke-linejoin:round; stroke-width:8; stroke-opacity:1; fill:none" points="673.506,224.538 692.404,224.538 "/>
<path clip-path="url(#clip550)" d="M442.924 1074.88 L479.636 1074.88 L479.636 1082.75 L451.488 1082.75 L451.488 1099.7 Q453.525 1099 455.562 1098.68 Q457.6 1098.31 459.637 1098.31 Q471.211 1098.31 477.97 1104.65 Q484.729 1110.99 484.729 1121.83 Q484.729 1132.98 477.785 1139.19 Q470.84 1145.34 458.201 1145.34 Q453.85 1145.34 449.313 1144.6 Q444.822 1143.86 440.007 1142.38 L440.007 1132.98 Q444.174 1135.25 448.618 1136.36 Q453.063 1137.47 458.016 1137.47 Q466.025 1137.47 470.701 1133.26 Q475.377 1129.05 475.377 1121.83 Q475.377 1114.6 470.701 1110.39 Q466.025 1106.18 458.016 1106.18 Q454.266 1106.18 450.516 1107.01 Q446.813 1107.84 442.924 1109.6 L442.924 1074.88 Z" fill="#000000" fill-rule="nonzero" fill-opacity="1" /><path clip-path="url(#clip550)" d="M523.155 1081.04 Q515.933 1081.04 512.275 1088.17 Q508.664 1095.25 508.664 1109.51 Q508.664 1123.72 512.275 1130.85 Q515.933 1137.94 523.155 1137.94 Q530.423 1137.94 534.034 1130.85 Q537.692 1123.72 537.692 1109.51 Q537.692 1095.25 534.034 1088.17 Q530.423 1081.04 523.155 1081.04 M523.155 1073.63 Q534.775 1073.63 540.886 1082.84 Q547.043 1092.01 547.043 1109.51 Q547.043 1126.96 540.886 1136.18 Q534.775 1145.34 523.155 1145.34 Q511.534 1145.34 505.377 1136.18 Q499.266 1126.96 499.266 1109.51 Q499.266 1092.01 505.377 1082.84 Q511.534 1073.63 523.155 1073.63 Z" fill="#000000" fill-rule="nonzero" fill-opacity="1" /><path clip-path="url(#clip550)" d="M563.479 1132.24 L573.247 1132.24 L573.247 1144 L563.479 1144 L563.479 1132.24 Z" fill="#000000" fill-rule="nonzero" fill-opacity="1" /><path clip-path="url(#clip550)" d="M613.617 1081.04 Q606.395 1081.04 602.738 1088.17 Q599.127 1095.25 599.127 1109.51 Q599.127 1123.72 602.738 1130.85 Q606.395 1137.94 613.617 1137.94 Q620.886 1137.94 624.497 1130.85 Q628.154 1123.72 628.154 1109.51 Q628.154 1095.25 624.497 1088.17 Q620.886 1081.04 613.617 1081.04 M613.617 1073.63 Q625.238 1073.63 631.349 1082.84 Q637.506 1092.01 637.506 1109.51 Q637.506 1126.96 631.349 1136.18 Q625.238 1145.34 613.617 1145.34 Q601.997 1145.34 595.84 1136.18 Q589.728 1126.96 589.728 1109.51 Q589.728 1092.01 595.84 1082.84 Q601.997 1073.63 613.617 1073.63 Z" fill="#000000" fill-rule="nonzero" fill-opacity="1" /><path clip-path="url(#clip550)" d="M463.988 928.734 Q457.692 928.734 453.988 933.039 Q450.331 937.345 450.331 944.845 Q450.331 952.299 453.988 956.65 Q457.692 960.956 463.988 960.956 Q470.285 960.956 473.942 956.65 Q477.646 952.299 477.646 944.845 Q477.646 937.345 473.942 933.039 Q470.285 928.734 463.988 928.734 M482.553 899.428 L482.553 907.947 Q479.035 906.28 475.424 905.401 Q471.859 904.521 468.34 904.521 Q459.081 904.521 454.174 910.771 Q449.313 917.021 448.618 929.66 Q451.35 925.632 455.47 923.502 Q459.59 921.326 464.544 921.326 Q474.961 921.326 480.979 927.669 Q487.044 933.965 487.044 944.845 Q487.044 955.493 480.748 961.928 Q474.451 968.363 463.988 968.363 Q451.998 968.363 445.655 959.197 Q439.313 949.984 439.313 932.53 Q439.313 916.141 447.09 906.419 Q454.868 896.651 467.97 896.651 Q471.488 896.651 475.053 897.345 Q478.664 898.04 482.553 899.428 Z" fill="#000000" fill-rule="nonzero" fill-opacity="1" /><path clip-path="url(#clip550)" d="M523.155 904.058 Q515.933 904.058 512.275 911.188 Q508.664 918.271 508.664 932.53 Q508.664 946.743 512.275 953.873 Q515.933 960.956 523.155 960.956 Q530.423 960.956 534.034 953.873 Q537.692 946.743 537.692 932.53 Q537.692 918.271 534.034 911.188 Q530.423 904.058 523.155 904.058 M523.155 896.651 Q534.775 896.651 540.886 905.864 Q547.043 915.03 547.043 932.53 Q547.043 949.984 540.886 959.197 Q534.775 968.363 523.155 968.363 Q511.534 968.363 505.377 959.197 Q499.266 949.984 499.266 932.53 Q499.266 915.03 505.377 905.864 Q511.534 896.651 523.155 896.651 Z" fill="#000000" fill-rule="nonzero" fill-opacity="1" /><path clip-path="url(#clip550)" d="M563.479 955.261 L573.247 955.261 L573.247 967.021 L563.479 967.021 L563.479 955.261 Z" fill="#000000" fill-rule="nonzero" fill-opacity="1" /><path clip-path="url(#clip550)" d="M613.617 904.058 Q606.395 904.058 602.738 911.188 Q599.127 918.271 599.127 932.53 Q599.127 946.743 602.738 953.873 Q606.395 960.956 613.617 960.956 Q620.886 960.956 624.497 953.873 Q628.154 946.743 628.154 932.53 Q628.154 918.271 624.497 911.188 Q620.886 904.058 613.617 904.058 M613.617 896.651 Q625.238 896.651 631.349 905.864 Q637.506 915.03 637.506 932.53 Q637.506 949.984 631.349 959.197 Q625.238 968.363 613.617 968.363 Q601.997 968.363 595.84 959.197 Q589.728 949.984 589.728 932.53 Q589.728 915.03 595.84 905.864 Q601.997 896.651 613.617 896.651 Z" fill="#000000" fill-rule="nonzero" fill-opacity="1" /><path clip-path="url(#clip550)" d="M440.47 720.92 L484.914 720.92 L484.914 724.901 L459.822 790.04 L450.053 790.04 L473.664 728.79 L440.47 728.79 L440.47 720.92 Z" fill="#000000" fill-rule="nonzero" fill-opacity="1" /><path clip-path="url(#clip550)" d="M523.155 727.077 Q515.933 727.077 512.275 734.207 Q508.664 741.29 508.664 755.549 Q508.664 769.762 512.275 776.892 Q515.933 783.975 523.155 783.975 Q530.423 783.975 534.034 776.892 Q537.692 769.762 537.692 755.549 Q537.692 741.29 534.034 734.207 Q530.423 727.077 523.155 727.077 M523.155 719.67 Q534.775 719.67 540.886 728.883 Q547.043 738.049 547.043 755.549 Q547.043 773.003 540.886 782.216 Q534.775 791.383 523.155 791.383 Q511.534 791.383 505.377 782.216 Q499.266 773.003 499.266 755.549 Q499.266 738.049 505.377 728.883 Q511.534 719.67 523.155 719.67 Z" fill="#000000" fill-rule="nonzero" fill-opacity="1" /><path clip-path="url(#clip550)" d="M563.479 778.281 L573.247 778.281 L573.247 790.04 L563.479 790.04 L563.479 778.281 Z" fill="#000000" fill-rule="nonzero" fill-opacity="1" /><path clip-path="url(#clip550)" d="M613.617 727.077 Q606.395 727.077 602.738 734.207 Q599.127 741.29 599.127 755.549 Q599.127 769.762 602.738 776.892 Q606.395 783.975 613.617 783.975 Q620.886 783.975 624.497 776.892 Q628.154 769.762 628.154 755.549 Q628.154 741.29 624.497 734.207 Q620.886 727.077 613.617 727.077 M613.617 719.67 Q625.238 719.67 631.349 728.883 Q637.506 738.049 637.506 755.549 Q637.506 773.003 631.349 782.216 Q625.238 791.383 613.617 791.383 Q601.997 791.383 595.84 782.216 Q589.728 773.003 589.728 755.549 Q589.728 738.049 595.84 728.883 Q601.997 719.67 613.617 719.67 Z" fill="#000000" fill-rule="nonzero" fill-opacity="1" /><path clip-path="url(#clip550)" d="M462.831 580.235 Q456.164 580.235 452.322 583.8 Q448.525 587.365 448.525 593.615 Q448.525 599.865 452.322 603.43 Q456.164 606.994 462.831 606.994 Q469.498 606.994 473.34 603.43 Q477.183 599.819 477.183 593.615 Q477.183 587.365 473.34 583.8 Q469.544 580.235 462.831 580.235 M453.479 576.254 Q447.461 574.772 444.081 570.652 Q440.748 566.532 440.748 560.606 Q440.748 552.319 446.627 547.504 Q452.553 542.689 462.831 542.689 Q473.155 542.689 479.035 547.504 Q484.914 552.319 484.914 560.606 Q484.914 566.532 481.535 570.652 Q478.201 574.772 472.229 576.254 Q478.988 577.828 482.738 582.411 Q486.535 586.995 486.535 593.615 Q486.535 603.661 480.377 609.031 Q474.266 614.402 462.831 614.402 Q451.396 614.402 445.238 609.031 Q439.127 603.661 439.127 593.615 Q439.127 586.995 442.924 582.411 Q446.72 577.828 453.479 576.254 M450.053 561.485 Q450.053 566.856 453.387 569.865 Q456.766 572.874 462.831 572.874 Q468.849 572.874 472.229 569.865 Q475.655 566.856 475.655 561.485 Q475.655 556.115 472.229 553.106 Q468.849 550.097 462.831 550.097 Q456.766 550.097 453.387 553.106 Q450.053 556.115 450.053 561.485 Z" fill="#000000" fill-rule="nonzero" fill-opacity="1" /><path clip-path="url(#clip550)" d="M523.155 550.097 Q515.933 550.097 512.275 557.226 Q508.664 564.309 508.664 578.569 Q508.664 592.782 512.275 599.911 Q515.933 606.994 523.155 606.994 Q530.423 606.994 534.034 599.911 Q537.692 592.782 537.692 578.569 Q537.692 564.309 534.034 557.226 Q530.423 550.097 523.155 550.097 M523.155 542.689 Q534.775 542.689 540.886 551.902 Q547.043 561.069 547.043 578.569 Q547.043 596.022 540.886 605.235 Q534.775 614.402 523.155 614.402 Q511.534 614.402 505.377 605.235 Q499.266 596.022 499.266 578.569 Q499.266 561.069 505.377 551.902 Q511.534 542.689 523.155 542.689 Z" fill="#000000" fill-rule="nonzero" fill-opacity="1" /><path clip-path="url(#clip550)" d="M563.479 601.3 L573.247 601.3 L573.247 613.059 L563.479 613.059 L563.479 601.3 Z" fill="#000000" fill-rule="nonzero" fill-opacity="1" /><path clip-path="url(#clip550)" d="M613.617 550.097 Q606.395 550.097 602.738 557.226 Q599.127 564.309 599.127 578.569 Q599.127 592.782 602.738 599.911 Q606.395 606.994 613.617 606.994 Q620.886 606.994 624.497 599.911 Q628.154 592.782 628.154 578.569 Q628.154 564.309 624.497 557.226 Q620.886 550.097 613.617 550.097 M613.617 542.689 Q625.238 542.689 631.349 551.902 Q637.506 561.069 637.506 578.569 Q637.506 596.022 631.349 605.235 Q625.238 614.402 613.617 614.402 Q601.997 614.402 595.84 605.235 Q589.728 596.022 589.728 578.569 Q589.728 561.069 595.84 551.902 Q601.997 542.689 613.617 542.689 Z" fill="#000000" fill-rule="nonzero" fill-opacity="1" /><path clip-path="url(#clip550)" d="M443.109 434.643 L443.109 426.125 Q446.627 427.791 450.238 428.671 Q453.85 429.551 457.322 429.551 Q466.581 429.551 471.442 423.347 Q476.349 417.097 477.044 404.412 Q474.359 408.393 470.238 410.523 Q466.118 412.653 461.118 412.653 Q450.748 412.653 444.683 406.403 Q438.664 400.106 438.664 389.227 Q438.664 378.579 444.961 372.144 Q451.257 365.708 461.72 365.708 Q473.711 365.708 480.007 374.921 Q486.349 384.088 486.349 401.588 Q486.349 417.93 478.572 427.699 Q470.84 437.421 457.738 437.421 Q454.22 437.421 450.609 436.727 Q446.998 436.032 443.109 434.643 M461.72 405.338 Q468.016 405.338 471.674 401.032 Q475.377 396.727 475.377 389.227 Q475.377 381.773 471.674 377.468 Q468.016 373.116 461.72 373.116 Q455.424 373.116 451.72 377.468 Q448.063 381.773 448.063 389.227 Q448.063 396.727 451.72 401.032 Q455.424 405.338 461.72 405.338 Z" fill="#000000" fill-rule="nonzero" fill-opacity="1" /><path clip-path="url(#clip550)" d="M523.155 373.116 Q515.933 373.116 512.275 380.245 Q508.664 387.329 508.664 401.588 Q508.664 415.801 512.275 422.93 Q515.933 430.014 523.155 430.014 Q530.423 430.014 534.034 422.93 Q537.692 415.801 537.692 401.588 Q537.692 387.329 534.034 380.245 Q530.423 373.116 523.155 373.116 M523.155 365.708 Q534.775 365.708 540.886 374.921 Q547.043 384.088 547.043 401.588 Q547.043 419.042 540.886 428.254 Q534.775 437.421 523.155 437.421 Q511.534 437.421 505.377 428.254 Q499.266 419.042 499.266 401.588 Q499.266 384.088 505.377 374.921 Q511.534 365.708 523.155 365.708 Z" fill="#000000" fill-rule="nonzero" fill-opacity="1" /><path clip-path="url(#clip550)" d="M563.479 424.319 L573.247 424.319 L573.247 436.078 L563.479 436.078 L563.479 424.319 Z" fill="#000000" fill-rule="nonzero" fill-opacity="1" /><path clip-path="url(#clip550)" d="M613.617 373.116 Q606.395 373.116 602.738 380.245 Q599.127 387.329 599.127 401.588 Q599.127 415.801 602.738 422.93 Q606.395 430.014 613.617 430.014 Q620.886 430.014 624.497 422.93 Q628.154 415.801 628.154 401.588 Q628.154 387.329 624.497 380.245 Q620.886 373.116 613.617 373.116 M613.617 365.708 Q625.238 365.708 631.349 374.921 Q637.506 384.088 637.506 401.588 Q637.506 419.042 631.349 428.254 Q625.238 437.421 613.617 437.421 Q601.997 437.421 595.84 428.254 Q589.728 419.042 589.728 401.588 Q589.728 384.088 595.84 374.921 Q601.997 365.708 613.617 365.708 Z" fill="#000000" fill-rule="nonzero" fill-opacity="1" /><path clip-path="url(#clip550)" d="M384.128 251.227 L399.405 251.227 L399.405 198.496 L382.785 201.83 L382.785 193.311 L399.313 189.978 L408.665 189.978 L408.665 251.227 L423.942 251.227 L423.942 259.098 L384.128 259.098 L384.128 251.227 Z" fill="#000000" fill-rule="nonzero" fill-opacity="1" /><path clip-path="url(#clip550)" d="M462.831 196.135 Q455.609 196.135 451.951 203.265 Q448.34 210.348 448.34 224.607 Q448.34 238.82 451.951 245.95 Q455.609 253.033 462.831 253.033 Q470.099 253.033 473.711 245.95 Q477.368 238.82 477.368 224.607 Q477.368 210.348 473.711 203.265 Q470.099 196.135 462.831 196.135 M462.831 188.728 Q474.451 188.728 480.562 197.941 Q486.72 207.107 486.72 224.607 Q486.72 242.061 480.562 251.274 Q474.451 260.44 462.831 260.44 Q451.211 260.44 445.053 251.274 Q438.942 242.061 438.942 224.607 Q438.942 207.107 445.053 197.941 Q451.211 188.728 462.831 188.728 Z" fill="#000000" fill-rule="nonzero" fill-opacity="1" /><path clip-path="url(#clip550)" d="M523.155 196.135 Q515.933 196.135 512.275 203.265 Q508.664 210.348 508.664 224.607 Q508.664 238.82 512.275 245.95 Q515.933 253.033 523.155 253.033 Q530.423 253.033 534.034 245.95 Q537.692 238.82 537.692 224.607 Q537.692 210.348 534.034 203.265 Q530.423 196.135 523.155 196.135 M523.155 188.728 Q534.775 188.728 540.886 197.941 Q547.043 207.107 547.043 224.607 Q547.043 242.061 540.886 251.274 Q534.775 260.44 523.155 260.44 Q511.534 260.44 505.377 251.274 Q499.266 242.061 499.266 224.607 Q499.266 207.107 505.377 197.941 Q511.534 188.728 523.155 188.728 Z" fill="#000000" fill-rule="nonzero" fill-opacity="1" /><path clip-path="url(#clip550)" d="M563.479 247.339 L573.247 247.339 L573.247 259.098 L563.479 259.098 L563.479 247.339 Z" fill="#000000" fill-rule="nonzero" fill-opacity="1" /><path clip-path="url(#clip550)" d="M613.617 196.135 Q606.395 196.135 602.738 203.265 Q599.127 210.348 599.127 224.607 Q599.127 238.82 602.738 245.95 Q606.395 253.033 613.617 253.033 Q620.886 253.033 624.497 245.95 Q628.154 238.82 628.154 224.607 Q628.154 210.348 624.497 203.265 Q620.886 196.135 613.617 196.135 M613.617 188.728 Q625.238 188.728 631.349 197.941 Q637.506 207.107 637.506 224.607 Q637.506 242.061 631.349 251.274 Q625.238 260.44 613.617 260.44 Q601.997 260.44 595.84 251.274 Q589.728 242.061 589.728 224.607 Q589.728 207.107 595.84 197.941 Q601.997 188.728 613.617 188.728 Z" fill="#000000" fill-rule="nonzero" fill-opacity="1" /><path clip-path="url(#clip550)" d="M249.714 913.798 L260.663 913.798 Q257.926 918.764 256.589 923.793 Q255.189 928.758 255.189 933.85 Q255.189 945.245 262.446 951.547 Q269.639 957.849 282.689 957.849 Q295.739 957.849 302.995 951.547 Q310.189 945.245 310.189 933.85 Q310.189 928.758 308.852 923.793 Q307.451 918.764 304.714 913.798 L315.536 913.798 Q317.828 918.7 318.973 923.984 Q320.119 929.204 320.119 935.124 Q320.119 951.229 309.998 960.714 Q299.876 970.199 282.689 970.199 Q265.247 970.199 255.253 960.65 Q245.258 951.038 245.258 934.36 Q245.258 928.949 246.404 923.793 Q247.486 918.636 249.714 913.798 Z" fill="#000000" fill-rule="nonzero" fill-opacity="1" /><path clip-path="url(#clip550)" d="M255.189 865.801 Q255.189 875.222 262.573 880.697 Q269.894 886.171 282.689 886.171 Q295.484 886.171 302.868 880.76 Q310.189 875.286 310.189 865.801 Q310.189 856.443 302.804 850.969 Q295.42 845.494 282.689 845.494 Q270.021 845.494 262.637 850.969 Q255.189 856.443 255.189 865.801 M245.258 865.801 Q245.258 850.523 255.189 841.802 Q265.119 833.081 282.689 833.081 Q300.195 833.081 310.189 841.802 Q320.119 850.523 320.119 865.801 Q320.119 881.142 310.189 889.863 Q300.195 898.521 282.689 898.521 Q265.119 898.521 255.189 889.863 Q245.258 881.142 245.258 865.801 Z" fill="#000000" fill-rule="nonzero" fill-opacity="1" /><path clip-path="url(#clip550)" d="M275.241 754.401 L318.273 754.401 L318.273 766.114 L275.623 766.114 Q265.501 766.114 260.472 770.061 Q255.444 774.008 255.444 781.901 Q255.444 791.386 261.491 796.86 Q267.538 802.335 277.978 802.335 L318.273 802.335 L318.273 814.112 L246.977 814.112 L246.977 802.335 L258.054 802.335 Q251.624 798.134 248.441 792.468 Q245.258 786.739 245.258 779.291 Q245.258 767.005 252.897 760.703 Q260.472 754.401 275.241 754.401 Z" fill="#000000" fill-rule="nonzero" fill-opacity="1" /><path clip-path="url(#clip550)" d="M249.714 679.731 L260.663 679.731 Q257.926 684.697 256.589 689.726 Q255.189 694.691 255.189 699.783 Q255.189 711.178 262.446 717.48 Q269.639 723.782 282.689 723.782 Q295.739 723.782 302.995 717.48 Q310.189 711.178 310.189 699.783 Q310.189 694.691 308.852 689.726 Q307.451 684.697 304.714 679.731 L315.536 679.731 Q317.828 684.633 318.973 689.917 Q320.119 695.136 320.119 701.057 Q320.119 717.162 309.998 726.647 Q299.876 736.132 282.689 736.132 Q265.247 736.132 255.253 726.583 Q245.258 716.971 245.258 700.293 Q245.258 694.882 246.404 689.726 Q247.486 684.569 249.714 679.731 Z" fill="#000000" fill-rule="nonzero" fill-opacity="1" /><path clip-path="url(#clip550)" d="M302.104 657.706 L302.104 644.274 L318.273 644.274 L318.273 657.706 L302.104 657.706 Z" fill="#000000" fill-rule="nonzero" fill-opacity="1" /><path clip-path="url(#clip550)" d="M230.554 504.802 L244.113 504.802 Q238.065 511.295 235.073 518.679 Q232.081 526 232.081 534.275 Q232.081 550.571 242.076 559.229 Q252.006 567.886 270.849 567.886 Q289.627 567.886 299.622 559.229 Q309.552 550.571 309.552 534.275 Q309.552 526 306.56 518.679 Q303.568 511.295 297.521 504.802 L310.953 504.802 Q315.536 511.549 317.828 519.125 Q320.119 526.636 320.119 535.039 Q320.119 556.619 306.942 569.032 Q293.701 581.445 270.849 581.445 Q247.932 581.445 234.755 569.032 Q221.514 556.619 221.514 535.039 Q221.514 526.509 223.806 518.997 Q226.034 511.422 230.554 504.802 Z" fill="#000000" fill-rule="nonzero" fill-opacity="1" /><path clip-path="url(#clip550)" d="M223.233 484.941 L223.233 465.78 L287.909 441.527 L223.233 417.146 L223.233 397.985 L318.273 397.985 L318.273 410.526 L234.819 410.526 L300.004 435.034 L300.004 447.956 L234.819 472.464 L318.273 472.464 L318.273 484.941 L223.233 484.941 Z" fill="#000000" fill-rule="nonzero" fill-opacity="1" /><polyline clip-path="url(#clip552)" style="stroke:#008000; stroke-linecap:round; stroke-linejoin:round; stroke-width:8; stroke-opacity:1; fill:none" points="719.695,581.894 838.128,622.988 956.561,576.531 1074.99,674.807 1193.43,419.297 1311.86,555.091 1430.29,236.151 1548.73,302.262 1667.16,224.538 1785.59,511.315 1904.02,1240.32 2022.46,972.307 2140.89,1107.21 2259.32,1144.73 "/>
<circle clip-path="url(#clip552)" cx="719.695" cy="581.894" r="14.4" fill="#008000" fill-rule="evenodd" fill-opacity="1" stroke="#000000" stroke-opacity="1" stroke-width="6.4"/>
<circle clip-path="url(#clip552)" cx="838.128" cy="622.988" r="14.4" fill="#008000" fill-rule="evenodd" fill-opacity="1" stroke="#000000" stroke-opacity="1" stroke-width="6.4"/>
<circle clip-path="url(#clip552)" cx="956.561" cy="576.531" r="14.4" fill="#008000" fill-rule="evenodd" fill-opacity="1" stroke="#000000" stroke-opacity="1" stroke-width="6.4"/>
<circle clip-path="url(#clip552)" cx="1074.99" cy="674.807" r="14.4" fill="#008000" fill-rule="evenodd" fill-opacity="1" stroke="#000000" stroke-opacity="1" stroke-width="6.4"/>
<circle clip-path="url(#clip552)" cx="1193.43" cy="419.297" r="14.4" fill="#008000" fill-rule="evenodd" fill-opacity="1" stroke="#000000" stroke-opacity="1" stroke-width="6.4"/>
<circle clip-path="url(#clip552)" cx="1311.86" cy="555.091" r="14.4" fill="#008000" fill-rule="evenodd" fill-opacity="1" stroke="#000000" stroke-opacity="1" stroke-width="6.4"/>
<circle clip-path="url(#clip552)" cx="1430.29" cy="236.151" r="14.4" fill="#008000" fill-rule="evenodd" fill-opacity="1" stroke="#000000" stroke-opacity="1" stroke-width="6.4"/>
<circle clip-path="url(#clip552)" cx="1548.73" cy="302.262" r="14.4" fill="#008000" fill-rule="evenodd" fill-opacity="1" stroke="#000000" stroke-opacity="1" stroke-width="6.4"/>
<circle clip-path="url(#clip552)" cx="1667.16" cy="224.538" r="14.4" fill="#008000" fill-rule="evenodd" fill-opacity="1" stroke="#000000" stroke-opacity="1" stroke-width="6.4"/>
<circle clip-path="url(#clip552)" cx="1785.59" cy="511.315" r="14.4" fill="#008000" fill-rule="evenodd" fill-opacity="1" stroke="#000000" stroke-opacity="1" stroke-width="6.4"/>
<circle clip-path="url(#clip552)" cx="1904.02" cy="1240.32" r="14.4" fill="#008000" fill-rule="evenodd" fill-opacity="1" stroke="#000000" stroke-opacity="1" stroke-width="6.4"/>
<circle clip-path="url(#clip552)" cx="2022.46" cy="972.307" r="14.4" fill="#008000" fill-rule="evenodd" fill-opacity="1" stroke="#000000" stroke-opacity="1" stroke-width="6.4"/>
<circle clip-path="url(#clip552)" cx="2140.89" cy="1107.21" r="14.4" fill="#008000" fill-rule="evenodd" fill-opacity="1" stroke="#000000" stroke-opacity="1" stroke-width="6.4"/>
<circle clip-path="url(#clip552)" cx="2259.32" cy="1144.73" r="14.4" fill="#008000" fill-rule="evenodd" fill-opacity="1" stroke="#000000" stroke-opacity="1" stroke-width="6.4"/>
<polyline clip-path="url(#clip552)" style="stroke:#00008b; stroke-linecap:round; stroke-linejoin:round; stroke-width:8; stroke-opacity:1; fill:none" points="719.695,561.046 838.128,531.509 956.561,468.263 1074.99,417.037 1193.43,377.205 1311.86,334.688 1430.29,285.225 1548.73,250.009 1667.16,220.514 1785.59,212.236 1904.02,150.691 2022.46,151.768 2140.89,130.566 2259.32,152.481 "/>
<path clip-path="url(#clip552)" d="M719.695 792.101 L838.128 771.67 L956.561 751.441 L1074.99 706.987 L1193.43 697.086 L1311.86 689.779 L1430.29 672.332 L1548.73 652.225 L1667.16 644.167 L1785.59 645.602 L1904.02 648.778 L2022.46 656.068 L2140.89 644.581 L2259.32 681.869 L2259.32 144.05 L2140.89 127.862 L2022.46 155.739 L1904.02 132.252 L1785.59 166.631 L1667.16 161.175 L1548.73 176.758 L1430.29 211.015 L1311.86 238.193 L1193.43 252.224 L1074.99 268.853 L956.561 304.81 L838.128 354.096 L719.695 378.48  Z" fill="#0000ff" fill-rule="evenodd" fill-opacity="0.1"/>
<polyline clip-path="url(#clip552)" style="stroke:#0000ff; stroke-linecap:round; stroke-linejoin:round; stroke-width:0; stroke-opacity:0.1; fill:none" points="719.695,792.101 838.128,771.67 956.561,751.441 1074.99,706.987 1193.43,697.086 1311.86,689.779 1430.29,672.332 1548.73,652.225 1667.16,644.167 1785.59,645.602 1904.02,648.778 2022.46,656.068 2140.89,644.581 2259.32,681.869 "/>
</svg>
