<?xml version="1.0" encoding="utf-8"?>
<svg xmlns="http://www.w3.org/2000/svg" xmlns:xlink="http://www.w3.org/1999/xlink" width="600" height="400" viewBox="0 0 2400 1600">
<defs>
  <clipPath id="clip720">
    <rect x="0" y="0" width="2400" height="1600"/>
  </clipPath>
</defs>
<path clip-path="url(#clip720)" d="M0 1600 L2400 1600 L2400 0 L0 0  Z" fill="#ffffff" fill-rule="evenodd" fill-opacity="1"/>
<defs>
  <clipPath id="clip721">
    <rect x="480" y="0" width="1681" height="1600"/>
  </clipPath>
</defs>
<path clip-path="url(#clip720)" d="M680.45 1273.7 L2305.51 1273.7 L2305.51 94.4882 L680.45 94.4882  Z" fill="#ffffff" fill-rule="evenodd" fill-opacity="1"/>
<defs>
  <clipPath id="clip722">
    <rect x="680" y="94" width="1626" height="1180"/>
  </clipPath>
</defs>
<polyline clip-path="url(#clip722)" style="stroke:#000000; stroke-linecap:round; stroke-linejoin:round; stroke-width:4; stroke-opacity:0.1; fill:none" points="726.443,1273.7 726.443,94.4882 "/>
<polyline clip-path="url(#clip722)" style="stroke:#000000; stroke-linecap:round; stroke-linejoin:round; stroke-width:4; stroke-opacity:0.1; fill:none" points="962.301,1273.7 962.301,94.4882 "/>
<polyline clip-path="url(#clip722)" style="stroke:#000000; stroke-linecap:round; stroke-linejoin:round; stroke-width:4; stroke-opacity:0.1; fill:none" points="1198.16,1273.7 1198.16,94.4882 "/>
<polyline clip-path="url(#clip722)" style="stroke:#000000; stroke-linecap:round; stroke-linejoin:round; stroke-width:4; stroke-opacity:0.1; fill:none" points="1434.02,1273.7 1434.02,94.4882 "/>
<polyline clip-path="url(#clip722)" style="stroke:#000000; stroke-linecap:round; stroke-linejoin:round; stroke-width:4; stroke-opacity:0.1; fill:none" points="1669.87,1273.7 1669.87,94.4882 "/>
<polyline clip-path="url(#clip722)" style="stroke:#000000; stroke-linecap:round; stroke-linejoin:round; stroke-width:4; stroke-opacity:0.1; fill:none" points="1905.73,1273.7 1905.73,94.4882 "/>
<polyline clip-path="url(#clip722)" style="stroke:#000000; stroke-linecap:round; stroke-linejoin:round; stroke-width:4; stroke-opacity:0.1; fill:none" points="2141.59,1273.7 2141.59,94.4882 "/>
<polyline clip-path="url(#clip720)" style="stroke:#000000; stroke-linecap:round; stroke-linejoin:round; stroke-width:8; stroke-opacity:1; fill:none" points="680.45,1273.7 2305.51,1273.7 "/>
<polyline clip-path="url(#clip720)" style="stroke:#000000; stroke-linecap:round; stroke-linejoin:round; stroke-width:8; stroke-opacity:1; fill:none" points="726.443,1273.7 726.443,1254.8 "/>
<polyline clip-path="url(#clip720)" style="stroke:#000000; stroke-linecap:round; stroke-linejoin:round; stroke-width:8; stroke-opacity:1; fill:none" points="962.301,1273.7 962.301,1254.8 "/>
<polyline clip-path="url(#clip720)" style="stroke:#000000; stroke-linecap:round; stroke-linejoin:round; stroke-width:8; stroke-opacity:1; fill:none" points="1198.16,1273.7 1198.16,1254.8 "/>
<polyline clip-path="url(#clip720)" style="stroke:#000000; stroke-linecap:round; stroke-linejoin:round; stroke-width:8; stroke-opacity:1; fill:none" points="1434.02,1273.7 1434.02,1254.8 "/>
<polyline clip-path="url(#clip720)" style="stroke:#000000; stroke-linecap:round; stroke-linejoin:round; stroke-width:8; stroke-opacity:1; fill:none" points="1669.87,1273.7 1669.87,1254.8 "/>
<polyline clip-path="url(#clip720)" style="stroke:#000000; stroke-linecap:round; stroke-linejoin:round; stroke-width:8; stroke-opacity:1; fill:none" points="1905.73,1273.7 1905.73,1254.8 "/>
<polyline clip-path="url(#clip720)" style="stroke:#000000; stroke-linecap:round; stroke-linejoin:round; stroke-width:8; stroke-opacity:1; fill:none" points="2141.59,1273.7 2141.59,1254.8 "/>
<path clip-path="url(#clip720)" d="M681.211 1316.33 Q673.989 1316.33 670.332 1323.46 Q666.721 1330.55 666.721 1344.81 Q666.721 1359.02 670.332 1366.15 Q673.989 1373.23 681.211 1373.23 Q688.48 1373.23 692.091 1366.15 Q695.748 1359.02 695.748 1344.81 Q695.748 1330.55 692.091 1323.46 Q688.48 1316.33 681.211 1316.33 M681.211 1308.93 Q692.832 1308.93 698.943 1318.14 Q705.1 1327.31 705.1 1344.81 Q705.1 1362.26 698.943 1371.47 Q692.832 1380.64 681.211 1380.64 Q669.591 1380.64 663.434 1371.47 Q657.323 1362.26 657.323 1344.81 Q657.323 1327.31 663.434 1318.14 Q669.591 1308.93 681.211 1308.93 Z" fill="#000000" fill-rule="nonzero" fill-opacity="1" /><path clip-path="url(#clip720)" d="M721.535 1367.54 L731.304 1367.54 L731.304 1379.3 L721.535 1379.3 L721.535 1367.54 Z" fill="#000000" fill-rule="nonzero" fill-opacity="1" /><path clip-path="url(#clip720)" d="M771.674 1316.33 Q764.452 1316.33 760.794 1323.46 Q757.183 1330.55 757.183 1344.81 Q757.183 1359.02 760.794 1366.15 Q764.452 1373.23 771.674 1373.23 Q778.942 1373.23 782.553 1366.15 Q786.211 1359.02 786.211 1344.81 Q786.211 1330.55 782.553 1323.46 Q778.942 1316.33 771.674 1316.33 M771.674 1308.93 Q783.294 1308.93 789.405 1318.14 Q795.563 1327.31 795.563 1344.81 Q795.563 1362.26 789.405 1371.47 Q783.294 1380.64 771.674 1380.64 Q760.054 1380.64 753.896 1371.47 Q747.785 1362.26 747.785 1344.81 Q747.785 1327.31 753.896 1318.14 Q760.054 1308.93 771.674 1308.93 Z" fill="#000000" fill-rule="nonzero" fill-opacity="1" /><path clip-path="url(#clip720)" d="M918.667 1316.33 Q911.444 1316.33 907.787 1323.46 Q904.176 1330.55 904.176 1344.81 Q904.176 1359.02 907.787 1366.15 Q911.444 1373.23 918.667 1373.23 Q925.935 1373.23 929.546 1366.15 Q933.204 1359.02 933.204 1344.81 Q933.204 1330.55 929.546 1323.46 Q925.935 1316.33 918.667 1316.33 M918.667 1308.93 Q930.287 1308.93 936.398 1318.14 Q942.555 1327.31 942.555 1344.81 Q942.555 1362.26 936.398 1371.47 Q930.287 1380.64 918.667 1380.64 Q907.046 1380.64 900.889 1371.47 Q894.778 1362.26 894.778 1344.81 Q894.778 1327.31 900.889 1318.14 Q907.046 1308.93 918.667 1308.93 Z" fill="#000000" fill-rule="nonzero" fill-opacity="1" /><path clip-path="url(#clip720)" d="M958.99 1367.54 L968.759 1367.54 L968.759 1379.3 L958.99 1379.3 L958.99 1367.54 Z" fill="#000000" fill-rule="nonzero" fill-opacity="1" /><path clip-path="url(#clip720)" d="M997.185 1371.43 L1029.82 1371.43 L1029.82 1379.3 L985.935 1379.3 L985.935 1371.43 Q991.259 1365.92 1000.43 1356.66 Q1009.64 1347.35 1012 1344.67 Q1016.49 1339.62 1018.25 1336.15 Q1020.05 1332.63 1020.05 1329.25 Q1020.05 1323.74 1016.17 1320.27 Q1012.32 1316.8 1006.12 1316.8 Q1001.72 1316.8 996.814 1318.32 Q991.953 1319.85 986.398 1322.95 L986.398 1313.51 Q992.046 1311.24 996.953 1310.08 Q1001.86 1308.93 1005.93 1308.93 Q1016.68 1308.93 1023.06 1314.3 Q1029.45 1319.67 1029.45 1328.65 Q1029.45 1332.91 1027.83 1336.75 Q1026.26 1340.55 1022.05 1345.73 Q1020.89 1347.07 1014.68 1353.51 Q1008.48 1359.9 997.185 1371.43 Z" fill="#000000" fill-rule="nonzero" fill-opacity="1" /><path clip-path="url(#clip720)" d="M1152.44 1316.33 Q1145.22 1316.33 1141.56 1323.46 Q1137.95 1330.55 1137.95 1344.81 Q1137.95 1359.02 1141.56 1366.15 Q1145.22 1373.23 1152.44 1373.23 Q1159.71 1373.23 1163.32 1366.15 Q1166.98 1359.02 1166.98 1344.81 Q1166.98 1330.55 1163.32 1323.46 Q1159.71 1316.33 1152.44 1316.33 M1152.44 1308.93 Q1164.06 1308.93 1170.17 1318.14 Q1176.33 1327.31 1176.33 1344.81 Q1176.33 1362.26 1170.17 1371.47 Q1164.06 1380.64 1152.44 1380.64 Q1140.82 1380.64 1134.66 1371.47 Q1128.55 1362.26 1128.55 1344.81 Q1128.55 1327.31 1134.66 1318.14 Q1140.82 1308.93 1152.44 1308.93 Z" fill="#000000" fill-rule="nonzero" fill-opacity="1" /><path clip-path="url(#clip720)" d="M1192.77 1367.54 L1202.53 1367.54 L1202.53 1379.3 L1192.77 1379.3 L1192.77 1367.54 Z" fill="#000000" fill-rule="nonzero" fill-opacity="1" /><path clip-path="url(#clip720)" d="M1248.6 1318.32 L1224.99 1355.22 L1248.6 1355.22 L1248.6 1318.32 M1246.14 1310.18 L1257.9 1310.18 L1257.9 1355.22 L1267.76 1355.22 L1267.76 1363 L1257.9 1363 L1257.9 1379.3 L1248.6 1379.3 L1248.6 1363 L1217.39 1363 L1217.39 1353.97 L1246.14 1310.18 Z" fill="#000000" fill-rule="nonzero" fill-opacity="1" /><path clip-path="url(#clip720)" d="M1388.62 1316.33 Q1381.4 1316.33 1377.74 1323.46 Q1374.13 1330.55 1374.13 1344.81 Q1374.13 1359.02 1377.74 1366.15 Q1381.4 1373.23 1388.62 1373.23 Q1395.89 1373.23 1399.5 1366.15 Q1403.16 1359.02 1403.16 1344.81 Q1403.16 1330.55 1399.5 1323.46 Q1395.89 1316.33 1388.62 1316.33 M1388.62 1308.93 Q1400.24 1308.93 1406.35 1318.14 Q1412.51 1327.31 1412.51 1344.81 Q1412.51 1362.26 1406.35 1371.47 Q1400.24 1380.64 1388.62 1380.64 Q1377 1380.64 1370.85 1371.47 Q1364.73 1362.26 1364.73 1344.81 Q1364.73 1327.31 1370.85 1318.14 Q1377 1308.93 1388.62 1308.93 Z" fill="#000000" fill-rule="nonzero" fill-opacity="1" /><path clip-path="url(#clip720)" d="M1428.95 1367.54 L1438.72 1367.54 L1438.72 1379.3 L1428.95 1379.3 L1428.95 1367.54 Z" fill="#000000" fill-rule="nonzero" fill-opacity="1" /><path clip-path="url(#clip720)" d="M1480.24 1341.01 Q1473.95 1341.01 1470.24 1345.31 Q1466.59 1349.62 1466.59 1357.12 Q1466.59 1364.57 1470.24 1368.93 Q1473.95 1373.23 1480.24 1373.23 Q1486.54 1373.23 1490.2 1368.93 Q1493.9 1364.57 1493.9 1357.12 Q1493.9 1349.62 1490.2 1345.31 Q1486.54 1341.01 1480.24 1341.01 M1498.81 1311.7 L1498.81 1320.22 Q1495.29 1318.56 1491.68 1317.68 Q1488.11 1316.8 1484.6 1316.8 Q1475.34 1316.8 1470.43 1323.05 Q1465.57 1329.3 1464.87 1341.93 Q1467.6 1337.91 1471.72 1335.78 Q1475.85 1333.6 1480.8 1333.6 Q1491.22 1333.6 1497.23 1339.94 Q1503.3 1346.24 1503.3 1357.12 Q1503.3 1367.77 1497 1374.2 Q1490.71 1380.64 1480.24 1380.64 Q1468.25 1380.64 1461.91 1371.47 Q1455.57 1362.26 1455.57 1344.81 Q1455.57 1328.42 1463.35 1318.69 Q1471.12 1308.93 1484.22 1308.93 Q1487.74 1308.93 1491.31 1309.62 Q1494.92 1310.31 1498.81 1311.7 Z" fill="#000000" fill-rule="nonzero" fill-opacity="1" /><path clip-path="url(#clip720)" d="M1624.74 1316.33 Q1617.51 1316.33 1613.86 1323.46 Q1610.25 1330.55 1610.25 1344.81 Q1610.25 1359.02 1613.86 1366.15 Q1617.51 1373.23 1624.74 1373.23 Q1632 1373.23 1635.62 1366.15 Q1639.27 1359.02 1639.27 1344.81 Q1639.27 1330.55 1635.62 1323.46 Q1632 1316.33 1624.74 1316.33 M1624.74 1308.93 Q1636.36 1308.93 1642.47 1318.14 Q1648.62 1327.31 1648.62 1344.81 Q1648.62 1362.26 1642.47 1371.47 Q1636.36 1380.64 1624.74 1380.64 Q1613.12 1380.64 1606.96 1371.47 Q1600.85 1362.26 1600.85 1344.81 Q1600.85 1327.31 1606.96 1318.14 Q1613.12 1308.93 1624.74 1308.93 Z" fill="#000000" fill-rule="nonzero" fill-opacity="1" /><path clip-path="url(#clip720)" d="M1665.06 1367.54 L1674.83 1367.54 L1674.83 1379.3 L1665.06 1379.3 L1665.06 1367.54 Z" fill="#000000" fill-rule="nonzero" fill-opacity="1" /><path clip-path="url(#clip720)" d="M1715.2 1346.47 Q1708.53 1346.47 1704.69 1350.04 Q1700.89 1353.6 1700.89 1359.85 Q1700.89 1366.1 1704.69 1369.67 Q1708.53 1373.23 1715.2 1373.23 Q1721.87 1373.23 1725.71 1369.67 Q1729.55 1366.06 1729.55 1359.85 Q1729.55 1353.6 1725.71 1350.04 Q1721.91 1346.47 1715.2 1346.47 M1705.85 1342.49 Q1699.83 1341.01 1696.45 1336.89 Q1693.12 1332.77 1693.12 1326.84 Q1693.12 1318.56 1698.99 1313.74 Q1704.92 1308.93 1715.2 1308.93 Q1725.52 1308.93 1731.4 1313.74 Q1737.28 1318.56 1737.28 1326.84 Q1737.28 1332.77 1733.9 1336.89 Q1730.57 1341.01 1724.6 1342.49 Q1731.36 1344.06 1735.11 1348.65 Q1738.9 1353.23 1738.9 1359.85 Q1738.9 1369.9 1732.74 1375.27 Q1726.63 1380.64 1715.2 1380.64 Q1703.76 1380.64 1697.61 1375.27 Q1691.49 1369.9 1691.49 1359.85 Q1691.49 1353.23 1695.29 1348.65 Q1699.09 1344.06 1705.85 1342.49 M1702.42 1327.72 Q1702.42 1333.09 1705.75 1336.1 Q1709.13 1339.11 1715.2 1339.11 Q1721.22 1339.11 1724.6 1336.1 Q1728.02 1333.09 1728.02 1327.72 Q1728.02 1322.35 1724.6 1319.34 Q1721.22 1316.33 1715.2 1316.33 Q1709.13 1316.33 1705.75 1319.34 Q1702.42 1322.35 1702.42 1327.72 Z" fill="#000000" fill-rule="nonzero" fill-opacity="1" /><path clip-path="url(#clip720)" d="M1840.04 1371.43 L1855.32 1371.43 L1855.32 1318.69 L1838.7 1322.03 L1838.7 1313.51 L1855.22 1310.18 L1864.58 1310.18 L1864.58 1371.43 L1879.85 1371.43 L1879.85 1379.3 L1840.04 1379.3 L1840.04 1371.43 Z" fill="#000000" fill-rule="nonzero" fill-opacity="1" /><path clip-path="url(#clip720)" d="M1898.74 1367.54 L1908.51 1367.54 L1908.51 1379.3 L1898.74 1379.3 L1898.74 1367.54 Z" fill="#000000" fill-rule="nonzero" fill-opacity="1" /><path clip-path="url(#clip720)" d="M1948.88 1316.33 Q1941.66 1316.33 1938 1323.46 Q1934.39 1330.55 1934.39 1344.81 Q1934.39 1359.02 1938 1366.15 Q1941.66 1373.23 1948.88 1373.23 Q1956.15 1373.23 1959.76 1366.15 Q1963.42 1359.02 1963.42 1344.81 Q1963.42 1330.55 1959.76 1323.46 Q1956.15 1316.33 1948.88 1316.33 M1948.88 1308.93 Q1960.5 1308.93 1966.61 1318.14 Q1972.77 1327.31 1972.77 1344.81 Q1972.77 1362.26 1966.61 1371.47 Q1960.5 1380.64 1948.88 1380.64 Q1937.26 1380.64 1931.1 1371.47 Q1924.99 1362.26 1924.99 1344.81 Q1924.99 1327.31 1931.1 1318.14 Q1937.26 1308.93 1948.88 1308.93 Z" fill="#000000" fill-rule="nonzero" fill-opacity="1" /><path clip-path="url(#clip720)" d="M2077.49 1371.43 L2092.77 1371.43 L2092.77 1318.69 L2076.15 1322.03 L2076.15 1313.51 L2092.68 1310.18 L2102.03 1310.18 L2102.03 1371.43 L2117.31 1371.43 L2117.31 1379.3 L2077.49 1379.3 L2077.49 1371.43 Z" fill="#000000" fill-rule="nonzero" fill-opacity="1" /><path clip-path="url(#clip720)" d="M2136.2 1367.54 L2145.97 1367.54 L2145.97 1379.3 L2136.2 1379.3 L2136.2 1367.54 Z" fill="#000000" fill-rule="nonzero" fill-opacity="1" /><path clip-path="url(#clip720)" d="M2174.39 1371.43 L2207.03 1371.43 L2207.03 1379.3 L2163.14 1379.3 L2163.14 1371.43 Q2168.47 1365.92 2177.63 1356.66 Q2186.84 1347.35 2189.21 1344.67 Q2193.7 1339.62 2195.46 1336.15 Q2197.26 1332.63 2197.26 1329.25 Q2197.26 1323.74 2193.37 1320.27 Q2189.53 1316.8 2183.33 1316.8 Q2178.93 1316.8 2174.02 1318.32 Q2169.16 1319.85 2163.6 1322.95 L2163.6 1313.51 Q2169.25 1311.24 2174.16 1310.08 Q2179.07 1308.93 2183.14 1308.93 Q2193.88 1308.93 2200.27 1314.3 Q2206.66 1319.67 2206.66 1328.65 Q2206.66 1332.91 2205.04 1336.75 Q2203.47 1340.55 2199.25 1345.73 Q2198.09 1347.07 2191.89 1353.51 Q2185.69 1359.9 2174.39 1371.43 Z" fill="#000000" fill-rule="nonzero" fill-opacity="1" /><path clip-path="url(#clip720)" d="M1378.53 1484.39 L1378.53 1527.42 L1366.81 1527.42 L1366.81 1484.77 Q1366.81 1474.65 1362.87 1469.62 Q1358.92 1464.59 1351.03 1464.59 Q1341.54 1464.59 1336.07 1470.64 Q1330.59 1476.69 1330.59 1487.13 L1330.59 1527.42 L1318.82 1527.42 L1318.82 1428.37 L1330.59 1428.37 L1330.59 1467.2 Q1334.79 1460.77 1340.46 1457.59 Q1346.19 1454.41 1353.64 1454.41 Q1365.92 1454.41 1372.22 1462.05 Q1378.53 1469.62 1378.53 1484.39 Z" fill="#000000" fill-rule="nonzero" fill-opacity="1" /><path clip-path="url(#clip720)" d="M1429.51 1464.34 Q1420.09 1464.34 1414.62 1471.72 Q1409.14 1479.04 1409.14 1491.84 Q1409.14 1504.63 1414.56 1512.02 Q1420.03 1519.34 1429.51 1519.34 Q1438.87 1519.34 1444.35 1511.96 Q1449.82 1504.57 1449.82 1491.84 Q1449.82 1479.17 1444.35 1471.79 Q1438.87 1464.34 1429.51 1464.34 M1429.51 1454.41 Q1444.79 1454.41 1453.51 1464.34 Q1462.23 1474.27 1462.23 1491.84 Q1462.23 1509.35 1453.51 1519.34 Q1444.79 1529.27 1429.51 1529.27 Q1414.17 1529.27 1405.45 1519.34 Q1396.8 1509.35 1396.8 1491.84 Q1396.8 1474.27 1405.45 1464.34 Q1414.17 1454.41 1429.51 1454.41 Z" fill="#000000" fill-rule="nonzero" fill-opacity="1" /><path clip-path="url(#clip720)" d="M1480.44 1499.29 L1480.44 1456.13 L1492.15 1456.13 L1492.15 1498.84 Q1492.15 1508.96 1496.1 1514.06 Q1500.05 1519.08 1507.94 1519.08 Q1517.43 1519.08 1522.9 1513.04 Q1528.44 1506.99 1528.44 1496.55 L1528.44 1456.13 L1540.15 1456.13 L1540.15 1527.42 L1528.44 1527.42 L1528.44 1516.47 Q1524.17 1522.97 1518.51 1526.15 Q1512.91 1529.27 1505.46 1529.27 Q1493.17 1529.27 1486.81 1521.63 Q1480.44 1513.99 1480.44 1499.29 M1509.91 1454.41 L1509.91 1454.41 Z" fill="#000000" fill-rule="nonzero" fill-opacity="1" /><path clip-path="url(#clip720)" d="M1605.59 1467.08 Q1603.62 1465.93 1601.26 1465.42 Q1598.97 1464.85 1596.17 1464.85 Q1586.24 1464.85 1580.89 1471.34 Q1575.61 1477.77 1575.61 1489.87 L1575.61 1527.42 L1563.83 1527.42 L1563.83 1456.13 L1575.61 1456.13 L1575.61 1467.2 Q1579.3 1460.71 1585.22 1457.59 Q1591.14 1454.41 1599.61 1454.41 Q1600.82 1454.41 1602.28 1454.6 Q1603.74 1454.73 1605.53 1455.05 L1605.59 1467.08 Z" fill="#000000" fill-rule="nonzero" fill-opacity="1" /><path clip-path="url(#clip720)" d="M1663.33 1458.23 L1663.33 1469.3 Q1658.36 1466.76 1653.01 1465.49 Q1647.67 1464.21 1641.94 1464.21 Q1633.22 1464.21 1628.83 1466.89 Q1624.5 1469.56 1624.5 1474.91 Q1624.5 1478.98 1627.62 1481.34 Q1630.73 1483.63 1640.16 1485.73 L1644.17 1486.62 Q1656.64 1489.29 1661.86 1494.19 Q1667.15 1499.03 1667.15 1507.75 Q1667.15 1517.68 1659.25 1523.48 Q1651.42 1529.27 1637.67 1529.27 Q1631.94 1529.27 1625.71 1528.12 Q1619.53 1527.04 1612.66 1524.81 L1612.66 1512.72 Q1619.15 1516.09 1625.45 1517.81 Q1631.75 1519.47 1637.93 1519.47 Q1646.2 1519.47 1650.66 1516.67 Q1655.12 1513.8 1655.12 1508.64 Q1655.12 1503.87 1651.87 1501.32 Q1648.69 1498.78 1637.8 1496.42 L1633.73 1495.47 Q1622.84 1493.18 1618 1488.47 Q1613.17 1483.69 1613.17 1475.42 Q1613.17 1465.36 1620.3 1459.88 Q1627.42 1454.41 1640.54 1454.41 Q1647.03 1454.41 1652.76 1455.36 Q1658.49 1456.32 1663.33 1458.23 Z" fill="#000000" fill-rule="nonzero" fill-opacity="1" /><polyline clip-path="url(#clip722)" style="stroke:#000000; stroke-linecap:round; stroke-linejoin:round; stroke-width:4; stroke-opacity:0.1; fill:none" points="680.45,1153.71 2305.51,1153.71 "/>
<polyline clip-path="url(#clip722)" style="stroke:#000000; stroke-linecap:round; stroke-linejoin:round; stroke-width:4; stroke-opacity:0.1; fill:none" points="680.45,995.793 2305.51,995.793 "/>
<polyline clip-path="url(#clip722)" style="stroke:#000000; stroke-linecap:round; stroke-linejoin:round; stroke-width:4; stroke-opacity:0.1; fill:none" points="680.45,837.872 2305.51,837.872 "/>
<polyline clip-path="url(#clip722)" style="stroke:#000000; stroke-linecap:round; stroke-linejoin:round; stroke-width:4; stroke-opacity:0.1; fill:none" points="680.45,679.951 2305.51,679.951 "/>
<polyline clip-path="url(#clip722)" style="stroke:#000000; stroke-linecap:round; stroke-linejoin:round; stroke-width:4; stroke-opacity:0.1; fill:none" points="680.45,522.031 2305.51,522.031 "/>
<polyline clip-path="url(#clip722)" style="stroke:#000000; stroke-linecap:round; stroke-linejoin:round; stroke-width:4; stroke-opacity:0.1; fill:none" points="680.45,364.11 2305.51,364.11 "/>
<polyline clip-path="url(#clip722)" style="stroke:#000000; stroke-linecap:round; stroke-linejoin:round; stroke-width:4; stroke-opacity:0.1; fill:none" points="680.45,206.19 2305.51,206.19 "/>
<polyline clip-path="url(#clip720)" style="stroke:#000000; stroke-linecap:round; stroke-linejoin:round; stroke-width:8; stroke-opacity:1; fill:none" points="680.45,1273.7 680.45,94.4882 "/>
<polyline clip-path="url(#clip720)" style="stroke:#000000; stroke-linecap:round; stroke-linejoin:round; stroke-width:8; stroke-opacity:1; fill:none" points="680.45,1153.71 699.348,1153.71 "/>
<polyline clip-path="url(#clip720)" style="stroke:#000000; stroke-linecap:round; stroke-linejoin:round; stroke-width:8; stroke-opacity:1; fill:none" points="680.45,995.793 699.348,995.793 "/>
<polyline clip-path="url(#clip720)" style="stroke:#000000; stroke-linecap:round; stroke-linejoin:round; stroke-width:8; stroke-opacity:1; fill:none" points="680.45,837.872 699.348,837.872 "/>
<polyline clip-path="url(#clip720)" style="stroke:#000000; stroke-linecap:round; stroke-linejoin:round; stroke-width:8; stroke-opacity:1; fill:none" points="680.45,679.951 699.348,679.951 "/>
<polyline clip-path="url(#clip720)" style="stroke:#000000; stroke-linecap:round; stroke-linejoin:round; stroke-width:8; stroke-opacity:1; fill:none" points="680.45,522.031 699.348,522.031 "/>
<polyline clip-path="url(#clip720)" style="stroke:#000000; stroke-linecap:round; stroke-linejoin:round; stroke-width:8; stroke-opacity:1; fill:none" points="680.45,364.11 699.348,364.11 "/>
<polyline clip-path="url(#clip720)" style="stroke:#000000; stroke-linecap:round; stroke-linejoin:round; stroke-width:8; stroke-opacity:1; fill:none" points="680.45,206.19 699.348,206.19 "/>
<path clip-path="url(#clip720)" d="M391.072 1180.4 L406.35 1180.4 L406.35 1127.67 L389.73 1131.01 L389.73 1122.49 L406.257 1119.15 L415.609 1119.15 L415.609 1180.4 L430.887 1180.4 L430.887 1188.27 L391.072 1188.27 L391.072 1180.4 Z" fill="#000000" fill-rule="nonzero" fill-opacity="1" /><path clip-path="url(#clip720)" d="M469.775 1125.31 Q462.553 1125.31 458.896 1132.44 Q455.285 1139.52 455.285 1153.78 Q455.285 1168 458.896 1175.13 Q462.553 1182.21 469.775 1182.21 Q477.044 1182.21 480.655 1175.13 Q484.312 1168 484.312 1153.78 Q484.312 1139.52 480.655 1132.44 Q477.044 1125.31 469.775 1125.31 M469.775 1117.9 Q481.396 1117.9 487.507 1127.12 Q493.664 1136.28 493.664 1153.78 Q493.664 1171.24 487.507 1180.45 Q481.396 1189.62 469.775 1189.62 Q458.155 1189.62 451.998 1180.45 Q445.887 1171.24 445.887 1153.78 Q445.887 1136.28 451.998 1127.12 Q458.155 1117.9 469.775 1117.9 Z" fill="#000000" fill-rule="nonzero" fill-opacity="1" /><path clip-path="url(#clip720)" d="M530.099 1125.31 Q522.877 1125.31 519.22 1132.44 Q515.608 1139.52 515.608 1153.78 Q515.608 1168 519.22 1175.13 Q522.877 1182.21 530.099 1182.21 Q537.368 1182.21 540.979 1175.13 Q544.636 1168 544.636 1153.78 Q544.636 1139.52 540.979 1132.44 Q537.368 1125.31 530.099 1125.31 M530.099 1117.9 Q541.719 1117.9 547.831 1127.12 Q553.988 1136.28 553.988 1153.78 Q553.988 1171.24 547.831 1180.45 Q541.719 1189.62 530.099 1189.62 Q518.479 1189.62 512.321 1180.45 Q506.21 1171.24 506.21 1153.78 Q506.21 1136.28 512.321 1127.12 Q518.479 1117.9 530.099 1117.9 Z" fill="#000000" fill-rule="nonzero" fill-opacity="1" /><path clip-path="url(#clip720)" d="M570.423 1176.51 L580.191 1176.51 L580.191 1188.27 L570.423 1188.27 L570.423 1176.51 Z" fill="#000000" fill-rule="nonzero" fill-opacity="1" /><path clip-path="url(#clip720)" d="M620.562 1125.31 Q613.339 1125.31 609.682 1132.44 Q606.071 1139.52 606.071 1153.78 Q606.071 1168 609.682 1175.13 Q613.339 1182.21 620.562 1182.21 Q627.83 1182.21 631.441 1175.13 Q635.099 1168 635.099 1153.78 Q635.099 1139.52 631.441 1132.44 Q627.83 1125.31 620.562 1125.31 M620.562 1117.9 Q632.182 1117.9 638.293 1127.12 Q644.45 1136.28 644.45 1153.78 Q644.45 1171.24 638.293 1180.45 Q632.182 1189.62 620.562 1189.62 Q608.941 1189.62 602.784 1180.45 Q596.673 1171.24 596.673 1153.78 Q596.673 1136.28 602.784 1127.12 Q608.941 1117.9 620.562 1117.9 Z" fill="#000000" fill-rule="nonzero" fill-opacity="1" /><path clip-path="url(#clip720)" d="M391.072 1022.48 L406.35 1022.48 L406.35 969.751 L389.73 973.084 L389.73 964.566 L406.257 961.233 L415.609 961.233 L415.609 1022.48 L430.887 1022.48 L430.887 1030.35 L391.072 1030.35 L391.072 1022.48 Z" fill="#000000" fill-rule="nonzero" fill-opacity="1" /><path clip-path="url(#clip720)" d="M457.831 1022.48 L490.47 1022.48 L490.47 1030.35 L446.581 1030.35 L446.581 1022.48 Q451.905 1016.97 461.072 1007.71 Q470.285 998.408 472.646 995.723 Q477.136 990.677 478.896 987.205 Q480.701 983.686 480.701 980.307 Q480.701 974.797 476.812 971.325 Q472.97 967.853 466.766 967.853 Q462.368 967.853 457.461 969.381 Q452.6 970.909 447.044 974.01 L447.044 964.566 Q452.692 962.298 457.6 961.14 Q462.507 959.983 466.581 959.983 Q477.322 959.983 483.71 965.353 Q490.099 970.723 490.099 979.705 Q490.099 983.964 488.479 987.807 Q486.905 991.603 482.692 996.788 Q481.535 998.131 475.331 1004.57 Q469.127 1010.95 457.831 1022.48 Z" fill="#000000" fill-rule="nonzero" fill-opacity="1" /><path clip-path="url(#clip720)" d="M530.099 967.39 Q522.877 967.39 519.22 974.52 Q515.608 981.603 515.608 995.862 Q515.608 1010.08 519.22 1017.2 Q522.877 1024.29 530.099 1024.29 Q537.368 1024.29 540.979 1017.2 Q544.636 1010.08 544.636 995.862 Q544.636 981.603 540.979 974.52 Q537.368 967.39 530.099 967.39 M530.099 959.983 Q541.719 959.983 547.831 969.196 Q553.988 978.362 553.988 995.862 Q553.988 1013.32 547.831 1022.53 Q541.719 1031.7 530.099 1031.7 Q518.479 1031.7 512.321 1022.53 Q506.21 1013.32 506.21 995.862 Q506.21 978.362 512.321 969.196 Q518.479 959.983 530.099 959.983 Z" fill="#000000" fill-rule="nonzero" fill-opacity="1" /><path clip-path="url(#clip720)" d="M570.423 1018.59 L580.191 1018.59 L580.191 1030.35 L570.423 1030.35 L570.423 1018.59 Z" fill="#000000" fill-rule="nonzero" fill-opacity="1" /><path clip-path="url(#clip720)" d="M620.562 967.39 Q613.339 967.39 609.682 974.52 Q606.071 981.603 606.071 995.862 Q606.071 1010.08 609.682 1017.2 Q613.339 1024.29 620.562 1024.29 Q627.83 1024.29 631.441 1017.2 Q635.099 1010.08 635.099 995.862 Q635.099 981.603 631.441 974.52 Q627.83 967.39 620.562 967.39 M620.562 959.983 Q632.182 959.983 638.293 969.196 Q644.45 978.362 644.45 995.862 Q644.45 1013.32 638.293 1022.53 Q632.182 1031.7 620.562 1031.7 Q608.941 1031.7 602.784 1022.53 Q596.673 1013.32 596.673 995.862 Q596.673 978.362 602.784 969.196 Q608.941 959.983 620.562 959.983 Z" fill="#000000" fill-rule="nonzero" fill-opacity="1" /><path clip-path="url(#clip720)" d="M391.072 864.562 L406.35 864.562 L406.35 811.831 L389.73 815.164 L389.73 806.645 L406.257 803.312 L415.609 803.312 L415.609 864.562 L430.887 864.562 L430.887 872.432 L391.072 872.432 L391.072 864.562 Z" fill="#000000" fill-rule="nonzero" fill-opacity="1" /><path clip-path="url(#clip720)" d="M475.47 811.46 L451.859 848.358 L475.47 848.358 L475.47 811.46 M473.016 803.312 L484.775 803.312 L484.775 848.358 L494.636 848.358 L494.636 856.136 L484.775 856.136 L484.775 872.432 L475.47 872.432 L475.47 856.136 L444.266 856.136 L444.266 847.108 L473.016 803.312 Z" fill="#000000" fill-rule="nonzero" fill-opacity="1" /><path clip-path="url(#clip720)" d="M530.099 809.469 Q522.877 809.469 519.22 816.599 Q515.608 823.682 515.608 837.942 Q515.608 852.154 519.22 859.284 Q522.877 866.367 530.099 866.367 Q537.368 866.367 540.979 859.284 Q544.636 852.154 544.636 837.942 Q544.636 823.682 540.979 816.599 Q537.368 809.469 530.099 809.469 M530.099 802.062 Q541.719 802.062 547.831 811.275 Q553.988 820.442 553.988 837.942 Q553.988 855.395 547.831 864.608 Q541.719 873.775 530.099 873.775 Q518.479 873.775 512.321 864.608 Q506.21 855.395 506.21 837.942 Q506.21 820.442 512.321 811.275 Q518.479 802.062 530.099 802.062 Z" fill="#000000" fill-rule="nonzero" fill-opacity="1" /><path clip-path="url(#clip720)" d="M570.423 860.673 L580.191 860.673 L580.191 872.432 L570.423 872.432 L570.423 860.673 Z" fill="#000000" fill-rule="nonzero" fill-opacity="1" /><path clip-path="url(#clip720)" d="M620.562 809.469 Q613.339 809.469 609.682 816.599 Q606.071 823.682 606.071 837.942 Q606.071 852.154 609.682 859.284 Q613.339 866.367 620.562 866.367 Q627.83 866.367 631.441 859.284 Q635.099 852.154 635.099 837.942 Q635.099 823.682 631.441 816.599 Q627.83 809.469 620.562 809.469 M620.562 802.062 Q632.182 802.062 638.293 811.275 Q644.45 820.442 644.45 837.942 Q644.45 855.395 638.293 864.608 Q632.182 873.775 620.562 873.775 Q608.941 873.775 602.784 864.608 Q596.673 855.395 596.673 837.942 Q596.673 820.442 602.784 811.275 Q608.941 802.062 620.562 802.062 Z" fill="#000000" fill-rule="nonzero" fill-opacity="1" /><path clip-path="url(#clip720)" d="M391.072 706.641 L406.35 706.641 L406.35 653.91 L389.73 657.243 L389.73 648.725 L406.257 645.391 L415.609 645.391 L415.609 706.641 L430.887 706.641 L430.887 714.511 L391.072 714.511 L391.072 706.641 Z" fill="#000000" fill-rule="nonzero" fill-opacity="1" /><path clip-path="url(#clip720)" d="M470.933 676.225 Q464.637 676.225 460.933 680.53 Q457.275 684.836 457.275 692.336 Q457.275 699.789 460.933 704.141 Q464.637 708.447 470.933 708.447 Q477.229 708.447 480.886 704.141 Q484.59 699.789 484.59 692.336 Q484.59 684.836 480.886 680.53 Q477.229 676.225 470.933 676.225 M489.498 646.919 L489.498 655.438 Q485.979 653.771 482.368 652.891 Q478.803 652.012 475.285 652.012 Q466.025 652.012 461.118 658.262 Q456.257 664.512 455.562 677.151 Q458.294 673.123 462.414 670.993 Q466.535 668.817 471.488 668.817 Q481.905 668.817 487.923 675.16 Q493.988 681.456 493.988 692.336 Q493.988 702.984 487.692 709.419 Q481.396 715.854 470.933 715.854 Q458.942 715.854 452.6 706.687 Q446.257 697.474 446.257 680.021 Q446.257 663.632 454.035 653.91 Q461.812 644.141 474.914 644.141 Q478.433 644.141 481.998 644.836 Q485.609 645.53 489.498 646.919 Z" fill="#000000" fill-rule="nonzero" fill-opacity="1" /><path clip-path="url(#clip720)" d="M530.099 651.549 Q522.877 651.549 519.22 658.678 Q515.608 665.762 515.608 680.021 Q515.608 694.234 519.22 701.363 Q522.877 708.447 530.099 708.447 Q537.368 708.447 540.979 701.363 Q544.636 694.234 544.636 680.021 Q544.636 665.762 540.979 658.678 Q537.368 651.549 530.099 651.549 M530.099 644.141 Q541.719 644.141 547.831 653.354 Q553.988 662.521 553.988 680.021 Q553.988 697.474 547.831 706.687 Q541.719 715.854 530.099 715.854 Q518.479 715.854 512.321 706.687 Q506.21 697.474 506.21 680.021 Q506.21 662.521 512.321 653.354 Q518.479 644.141 530.099 644.141 Z" fill="#000000" fill-rule="nonzero" fill-opacity="1" /><path clip-path="url(#clip720)" d="M570.423 702.752 L580.191 702.752 L580.191 714.511 L570.423 714.511 L570.423 702.752 Z" fill="#000000" fill-rule="nonzero" fill-opacity="1" /><path clip-path="url(#clip720)" d="M620.562 651.549 Q613.339 651.549 609.682 658.678 Q606.071 665.762 606.071 680.021 Q606.071 694.234 609.682 701.363 Q613.339 708.447 620.562 708.447 Q627.83 708.447 631.441 701.363 Q635.099 694.234 635.099 680.021 Q635.099 665.762 631.441 658.678 Q627.83 651.549 620.562 651.549 M620.562 644.141 Q632.182 644.141 638.293 653.354 Q644.45 662.521 644.45 680.021 Q644.45 697.474 638.293 706.687 Q632.182 715.854 620.562 715.854 Q608.941 715.854 602.784 706.687 Q596.673 697.474 596.673 680.021 Q596.673 662.521 602.784 653.354 Q608.941 644.141 620.562 644.141 Z" fill="#000000" fill-rule="nonzero" fill-opacity="1" /><path clip-path="url(#clip720)" d="M391.072 548.72 L406.35 548.72 L406.35 495.989 L389.73 499.323 L389.73 490.804 L406.257 487.471 L415.609 487.471 L415.609 548.72 L430.887 548.72 L430.887 556.591 L391.072 556.591 L391.072 548.72 Z" fill="#000000" fill-rule="nonzero" fill-opacity="1" /><path clip-path="url(#clip720)" d="M469.775 523.767 Q463.109 523.767 459.266 527.332 Q455.47 530.896 455.47 537.146 Q455.47 543.396 459.266 546.961 Q463.109 550.526 469.775 550.526 Q476.442 550.526 480.285 546.961 Q484.127 543.35 484.127 537.146 Q484.127 530.896 480.285 527.332 Q476.488 523.767 469.775 523.767 M460.424 519.785 Q454.405 518.304 451.025 514.184 Q447.692 510.063 447.692 504.137 Q447.692 495.85 453.572 491.036 Q459.498 486.221 469.775 486.221 Q480.099 486.221 485.979 491.036 Q491.859 495.85 491.859 504.137 Q491.859 510.063 488.479 514.184 Q485.146 518.304 479.173 519.785 Q485.933 521.359 489.683 525.943 Q493.479 530.526 493.479 537.146 Q493.479 547.193 487.322 552.563 Q481.211 557.933 469.775 557.933 Q458.34 557.933 452.183 552.563 Q446.072 547.193 446.072 537.146 Q446.072 530.526 449.868 525.943 Q453.664 521.359 460.424 519.785 M456.998 505.017 Q456.998 510.387 460.331 513.397 Q463.711 516.406 469.775 516.406 Q475.794 516.406 479.173 513.397 Q482.599 510.387 482.599 505.017 Q482.599 499.647 479.173 496.637 Q475.794 493.628 469.775 493.628 Q463.711 493.628 460.331 496.637 Q456.998 499.647 456.998 505.017 Z" fill="#000000" fill-rule="nonzero" fill-opacity="1" /><path clip-path="url(#clip720)" d="M530.099 493.628 Q522.877 493.628 519.22 500.758 Q515.608 507.841 515.608 522.1 Q515.608 536.313 519.22 543.443 Q522.877 550.526 530.099 550.526 Q537.368 550.526 540.979 543.443 Q544.636 536.313 544.636 522.1 Q544.636 507.841 540.979 500.758 Q537.368 493.628 530.099 493.628 M530.099 486.221 Q541.719 486.221 547.831 495.434 Q553.988 504.6 553.988 522.1 Q553.988 539.554 547.831 548.767 Q541.719 557.933 530.099 557.933 Q518.479 557.933 512.321 548.767 Q506.21 539.554 506.21 522.1 Q506.21 504.6 512.321 495.434 Q518.479 486.221 530.099 486.221 Z" fill="#000000" fill-rule="nonzero" fill-opacity="1" /><path clip-path="url(#clip720)" d="M570.423 544.832 L580.191 544.832 L580.191 556.591 L570.423 556.591 L570.423 544.832 Z" fill="#000000" fill-rule="nonzero" fill-opacity="1" /><path clip-path="url(#clip720)" d="M620.562 493.628 Q613.339 493.628 609.682 500.758 Q606.071 507.841 606.071 522.1 Q606.071 536.313 609.682 543.443 Q613.339 550.526 620.562 550.526 Q627.83 550.526 631.441 543.443 Q635.099 536.313 635.099 522.1 Q635.099 507.841 631.441 500.758 Q627.83 493.628 620.562 493.628 M620.562 486.221 Q632.182 486.221 638.293 495.434 Q644.45 504.6 644.45 522.1 Q644.45 539.554 638.293 548.767 Q632.182 557.933 620.562 557.933 Q608.941 557.933 602.784 548.767 Q596.673 539.554 596.673 522.1 Q596.673 504.6 602.784 495.434 Q608.941 486.221 620.562 486.221 Z" fill="#000000" fill-rule="nonzero" fill-opacity="1" /><path clip-path="url(#clip720)" d="M397.507 390.8 L430.146 390.8 L430.146 398.67 L386.257 398.67 L386.257 390.8 Q391.581 385.291 400.748 376.031 Q409.961 366.726 412.322 364.041 Q416.813 358.994 418.572 355.522 Q420.378 352.004 420.378 348.624 Q420.378 343.115 416.489 339.643 Q412.646 336.17 406.442 336.17 Q402.044 336.17 397.137 337.698 Q392.276 339.226 386.72 342.328 L386.72 332.883 Q392.368 330.615 397.276 329.458 Q402.183 328.3 406.257 328.3 Q416.998 328.3 423.387 333.67 Q429.776 339.041 429.776 348.022 Q429.776 352.282 428.155 356.124 Q426.581 359.92 422.368 365.106 Q421.211 366.448 415.007 372.883 Q408.803 379.272 397.507 390.8 Z" fill="#000000" fill-rule="nonzero" fill-opacity="1" /><path clip-path="url(#clip720)" d="M469.775 335.708 Q462.553 335.708 458.896 342.837 Q455.285 349.92 455.285 364.18 Q455.285 378.392 458.896 385.522 Q462.553 392.605 469.775 392.605 Q477.044 392.605 480.655 385.522 Q484.312 378.392 484.312 364.18 Q484.312 349.92 480.655 342.837 Q477.044 335.708 469.775 335.708 M469.775 328.3 Q481.396 328.3 487.507 337.513 Q493.664 346.68 493.664 364.18 Q493.664 381.633 487.507 390.846 Q481.396 400.013 469.775 400.013 Q458.155 400.013 451.998 390.846 Q445.887 381.633 445.887 364.18 Q445.887 346.68 451.998 337.513 Q458.155 328.3 469.775 328.3 Z" fill="#000000" fill-rule="nonzero" fill-opacity="1" /><path clip-path="url(#clip720)" d="M530.099 335.708 Q522.877 335.708 519.22 342.837 Q515.608 349.92 515.608 364.18 Q515.608 378.392 519.22 385.522 Q522.877 392.605 530.099 392.605 Q537.368 392.605 540.979 385.522 Q544.636 378.392 544.636 364.18 Q544.636 349.92 540.979 342.837 Q537.368 335.708 530.099 335.708 M530.099 328.3 Q541.719 328.3 547.831 337.513 Q553.988 346.68 553.988 364.18 Q553.988 381.633 547.831 390.846 Q541.719 400.013 530.099 400.013 Q518.479 400.013 512.321 390.846 Q506.21 381.633 506.21 364.18 Q506.21 346.68 512.321 337.513 Q518.479 328.3 530.099 328.3 Z" fill="#000000" fill-rule="nonzero" fill-opacity="1" /><path clip-path="url(#clip720)" d="M570.423 386.911 L580.191 386.911 L580.191 398.67 L570.423 398.67 L570.423 386.911 Z" fill="#000000" fill-rule="nonzero" fill-opacity="1" /><path clip-path="url(#clip720)" d="M620.562 335.708 Q613.339 335.708 609.682 342.837 Q606.071 349.92 606.071 364.18 Q606.071 378.392 609.682 385.522 Q613.339 392.605 620.562 392.605 Q627.83 392.605 631.441 385.522 Q635.099 378.392 635.099 364.18 Q635.099 349.92 631.441 342.837 Q627.83 335.708 620.562 335.708 M620.562 328.3 Q632.182 328.3 638.293 337.513 Q644.45 346.68 644.45 364.18 Q644.45 381.633 638.293 390.846 Q632.182 400.013 620.562 400.013 Q608.941 400.013 602.784 390.846 Q596.673 381.633 596.673 364.18 Q596.673 346.68 602.784 337.513 Q608.941 328.3 620.562 328.3 Z" fill="#000000" fill-rule="nonzero" fill-opacity="1" /><path clip-path="url(#clip720)" d="M397.507 232.879 L430.146 232.879 L430.146 240.75 L386.257 240.75 L386.257 232.879 Q391.581 227.37 400.748 218.111 Q409.961 208.805 412.322 206.12 Q416.813 201.074 418.572 197.602 Q420.378 194.083 420.378 190.703 Q420.378 185.194 416.489 181.722 Q412.646 178.25 406.442 178.25 Q402.044 178.25 397.137 179.778 Q392.276 181.305 386.72 184.407 L386.72 174.963 Q392.368 172.694 397.276 171.537 Q402.183 170.38 406.257 170.38 Q416.998 170.38 423.387 175.75 Q429.776 181.12 429.776 190.102 Q429.776 194.361 428.155 198.203 Q426.581 202 422.368 207.185 Q421.211 208.527 415.007 214.963 Q408.803 221.351 397.507 232.879 Z" fill="#000000" fill-rule="nonzero" fill-opacity="1" /><path clip-path="url(#clip720)" d="M457.831 232.879 L490.47 232.879 L490.47 240.75 L446.581 240.75 L446.581 232.879 Q451.905 227.37 461.072 218.111 Q470.285 208.805 472.646 206.12 Q477.136 201.074 478.896 197.602 Q480.701 194.083 480.701 190.703 Q480.701 185.194 476.812 181.722 Q472.97 178.25 466.766 178.25 Q462.368 178.25 457.461 179.778 Q452.6 181.305 447.044 184.407 L447.044 174.963 Q452.692 172.694 457.6 171.537 Q462.507 170.38 466.581 170.38 Q477.322 170.38 483.71 175.75 Q490.099 181.12 490.099 190.102 Q490.099 194.361 488.479 198.203 Q486.905 202 482.692 207.185 Q481.535 208.527 475.331 214.963 Q469.127 221.351 457.831 232.879 Z" fill="#000000" fill-rule="nonzero" fill-opacity="1" /><path clip-path="url(#clip720)" d="M530.099 177.787 Q522.877 177.787 519.22 184.916 Q515.608 192 515.608 206.259 Q515.608 220.472 519.22 227.601 Q522.877 234.685 530.099 234.685 Q537.368 234.685 540.979 227.601 Q544.636 220.472 544.636 206.259 Q544.636 192 540.979 184.916 Q537.368 177.787 530.099 177.787 M530.099 170.38 Q541.719 170.38 547.831 179.592 Q553.988 188.759 553.988 206.259 Q553.988 223.713 547.831 232.925 Q541.719 242.092 530.099 242.092 Q518.479 242.092 512.321 232.925 Q506.21 223.713 506.21 206.259 Q506.21 188.759 512.321 179.592 Q518.479 170.38 530.099 170.38 Z" fill="#000000" fill-rule="nonzero" fill-opacity="1" /><path clip-path="url(#clip720)" d="M570.423 228.99 L580.191 228.99 L580.191 240.75 L570.423 240.75 L570.423 228.99 Z" fill="#000000" fill-rule="nonzero" fill-opacity="1" /><path clip-path="url(#clip720)" d="M620.562 177.787 Q613.339 177.787 609.682 184.916 Q606.071 192 606.071 206.259 Q606.071 220.472 609.682 227.601 Q613.339 234.685 620.562 234.685 Q627.83 234.685 631.441 227.601 Q635.099 220.472 635.099 206.259 Q635.099 192 631.441 184.916 Q627.83 177.787 620.562 177.787 M620.562 170.38 Q632.182 170.38 638.293 179.592 Q644.45 188.759 644.45 206.259 Q644.45 223.713 638.293 232.925 Q632.182 242.092 620.562 242.092 Q608.941 242.092 602.784 232.925 Q596.673 223.713 596.673 206.259 Q596.673 188.759 602.784 179.592 Q608.941 170.38 620.562 170.38 Z" fill="#000000" fill-rule="nonzero" fill-opacity="1" /><path clip-path="url(#clip720)" d="M311.051 931.4 L348.863 931.4 L348.863 943.176 L250.449 943.176 L250.449 931.4 L261.271 931.4 Q254.905 927.708 251.85 922.106 Q248.731 916.44 248.731 908.61 Q248.731 895.624 259.043 887.54 Q269.356 879.392 286.161 879.392 Q302.966 879.392 313.279 887.54 Q323.591 895.624 323.591 908.61 Q323.591 916.44 320.536 922.106 Q317.417 927.708 311.051 931.4 M286.161 891.55 Q273.239 891.55 265.918 896.898 Q258.534 902.181 258.534 911.475 Q258.534 920.769 265.918 926.116 Q273.239 931.4 286.161 931.4 Q299.083 931.4 306.468 926.116 Q313.788 920.769 313.788 911.475 Q313.788 902.181 306.468 896.898 Q299.083 891.55 286.161 891.55 Z" fill="#000000" fill-rule="nonzero" fill-opacity="1" /><path clip-path="url(#clip720)" d="M285.906 827.575 Q285.906 841.771 289.153 847.245 Q292.399 852.72 300.229 852.72 Q306.468 852.72 310.16 848.645 Q313.788 844.508 313.788 837.442 Q313.788 827.702 306.913 821.846 Q299.975 815.926 288.516 815.926 L285.906 815.926 L285.906 827.575 M281.068 804.213 L321.745 804.213 L321.745 815.926 L310.924 815.926 Q317.417 819.936 320.536 825.92 Q323.591 831.904 323.591 840.561 Q323.591 851.51 317.48 858.003 Q311.306 864.432 300.993 864.432 Q288.962 864.432 282.851 856.412 Q276.74 848.327 276.74 832.349 L276.74 815.926 L275.594 815.926 Q267.509 815.926 263.117 821.273 Q258.661 826.556 258.661 836.169 Q258.661 842.28 260.125 848.073 Q261.589 853.865 264.518 859.213 L253.696 859.213 Q251.213 852.783 250.004 846.736 Q248.731 840.688 248.731 834.959 Q248.731 819.491 256.751 811.852 Q264.772 804.213 281.068 804.213 Z" fill="#000000" fill-rule="nonzero" fill-opacity="1" /><path clip-path="url(#clip720)" d="M261.398 738.773 Q260.253 740.747 259.743 743.102 Q259.17 745.394 259.17 748.195 Q259.17 758.125 265.663 763.472 Q272.093 768.756 284.188 768.756 L321.745 768.756 L321.745 780.532 L250.449 780.532 L250.449 768.756 L261.526 768.756 Q255.033 765.064 251.914 759.144 Q248.731 753.224 248.731 744.757 Q248.731 743.548 248.922 742.084 Q249.049 740.619 249.367 738.837 L261.398 738.773 Z" fill="#000000" fill-rule="nonzero" fill-opacity="1" /><path clip-path="url(#clip720)" d="M283.169 668.369 L288.898 668.369 L288.898 722.223 Q300.993 721.459 307.359 714.966 Q313.661 708.409 313.661 696.76 Q313.661 690.012 312.006 683.71 Q310.351 677.344 307.041 671.106 L318.117 671.106 Q320.79 677.408 322.191 684.028 Q323.591 690.649 323.591 697.46 Q323.591 714.52 313.661 724.514 Q303.73 734.445 286.798 734.445 Q269.292 734.445 259.043 725.023 Q248.731 715.539 248.731 699.497 Q248.731 685.11 258.025 676.771 Q267.255 668.369 283.169 668.369 M279.732 680.082 Q270.119 680.209 264.39 685.492 Q258.661 690.712 258.661 699.37 Q258.661 709.173 264.199 715.093 Q269.737 720.949 279.795 721.841 L279.732 680.082 Z" fill="#000000" fill-rule="nonzero" fill-opacity="1" /><path clip-path="url(#clip720)" d="M278.713 589.88 L321.745 589.88 L321.745 601.592 L279.095 601.592 Q268.974 601.592 263.945 605.539 Q258.916 609.486 258.916 617.379 Q258.916 626.864 264.963 632.339 Q271.011 637.813 281.45 637.813 L321.745 637.813 L321.745 649.59 L250.449 649.59 L250.449 637.813 L261.526 637.813 Q255.096 633.612 251.914 627.946 Q248.731 622.217 248.731 614.769 Q248.731 602.484 256.37 596.182 Q263.945 589.88 278.713 589.88 Z" fill="#000000" fill-rule="nonzero" fill-opacity="1" /><path clip-path="url(#clip720)" d="M305.576 564.862 L305.576 551.431 L321.745 551.431 L321.745 564.862 L305.576 564.862 Z" fill="#000000" fill-rule="nonzero" fill-opacity="1" /><path clip-path="url(#clip720)" d="M310.924 479.753 L310.924 458.746 L238.418 458.746 L243.002 481.599 L231.289 481.599 L226.705 458.873 L226.705 446.015 L310.924 446.015 L310.924 425.008 L321.745 425.008 L321.745 479.753 L310.924 479.753 Z" fill="#000000" fill-rule="nonzero" fill-opacity="1" /><polyline clip-path="url(#clip722)" style="stroke:#008000; stroke-linecap:round; stroke-linejoin:round; stroke-width:8; stroke-opacity:1; fill:none" points="726.443,239.365 844.372,368.009 962.301,570.071 1080.23,673.622 1198.16,549.731 1316.09,800.579 1434.02,858.667 1551.95,835.847 1669.87,1030.33 1787.8,1162.56 1905.73,1137.05 2023.66,1156.34 2141.59,1240.32 2259.52,1194.79 "/>
<circle clip-path="url(#clip722)" cx="726.443" cy="239.365" r="14.4" fill="#008000" fill-rule="evenodd" fill-opacity="1" stroke="#000000" stroke-opacity="1" stroke-width="6.4"/>
<circle clip-path="url(#clip722)" cx="844.372" cy="368.009" r="14.4" fill="#008000" fill-rule="evenodd" fill-opacity="1" stroke="#000000" stroke-opacity="1" stroke-width="6.4"/>
<circle clip-path="url(#clip722)" cx="962.301" cy="570.071" r="14.4" fill="#008000" fill-rule="evenodd" fill-opacity="1" stroke="#000000" stroke-opacity="1" stroke-width="6.4"/>
<circle clip-path="url(#clip722)" cx="1080.23" cy="673.622" r="14.4" fill="#008000" fill-rule="evenodd" fill-opacity="1" stroke="#000000" stroke-opacity="1" stroke-width="6.4"/>
<circle clip-path="url(#clip722)" cx="1198.16" cy="549.731" r="14.4" fill="#008000" fill-rule="evenodd" fill-opacity="1" stroke="#000000" stroke-opacity="1" stroke-width="6.4"/>
<circle clip-path="url(#clip722)" cx="1316.09" cy="800.579" r="14.4" fill="#008000" fill-rule="evenodd" fill-opacity="1" stroke="#000000" stroke-opacity="1" stroke-width="6.4"/>
<circle clip-path="url(#clip722)" cx="1434.02" cy="858.667" r="14.4" fill="#008000" fill-rule="evenodd" fill-opacity="1" stroke="#000000" stroke-opacity="1" stroke-width="6.4"/>
<circle clip-path="url(#clip722)" cx="1551.95" cy="835.847" r="14.4" fill="#008000" fill-rule="evenodd" fill-opacity="1" stroke="#000000" stroke-opacity="1" stroke-width="6.4"/>
<circle clip-path="url(#clip722)" cx="1669.87" cy="1030.33" r="14.4" fill="#008000" fill-rule="evenodd" fill-opacity="1" stroke="#000000" stroke-opacity="1" stroke-width="6.4"/>
<circle clip-path="url(#clip722)" cx="1787.8" cy="1162.56" r="14.4" fill="#008000" fill-rule="evenodd" fill-opacity="1" stroke="#000000" stroke-opacity="1" stroke-width="6.4"/>
<circle clip-path="url(#clip722)" cx="1905.73" cy="1137.05" r="14.4" fill="#008000" fill-rule="evenodd" fill-opacity="1" stroke="#000000" stroke-opacity="1" stroke-width="6.4"/>
<circle clip-path="url(#clip722)" cx="2023.66" cy="1156.34" r="14.4" fill="#008000" fill-rule="evenodd" fill-opacity="1" stroke="#000000" stroke-opacity="1" stroke-width="6.4"/>
<circle clip-path="url(#clip722)" cx="2141.59" cy="1240.32" r="14.4" fill="#008000" fill-rule="evenodd" fill-opacity="1" stroke="#000000" stroke-opacity="1" stroke-width="6.4"/>
<circle clip-path="url(#clip722)" cx="2259.52" cy="1194.79" r="14.4" fill="#008000" fill-rule="evenodd" fill-opacity="1" stroke="#000000" stroke-opacity="1" stroke-width="6.4"/>
<polyline clip-path="url(#clip722)" style="stroke:#00008b; stroke-linecap:round; stroke-linejoin:round; stroke-width:8; stroke-opacity:1; fill:none" points="726.443,162.282 844.372,395.902 962.301,526.813 1080.23,629.223 1198.16,710.663 1316.09,784.966 1434.02,849.474 1551.95,904.992 1669.87,958.056 1787.8,999.198 1905.73,1043.5 2023.66,1078.15 2141.59,1113.36 2259.52,1141.26 "/>
<path clip-path="url(#clip722)" d="M726.443 196.58 L844.372 430.097 L962.301 562.128 L1080.23 664.541 L1198.16 743.403 L1316.09 818.356 L1434.02 884.477 L1551.95 938.931 L1669.87 992.545 L1787.8 1032.69 L1905.73 1078.49 L2023.66 1112.25 L2141.59 1146.47 L2259.52 1175.42 L2259.52 1107.08 L2141.59 1077.34 L2023.66 1044.62 L1905.73 1009.51 L1787.8 966.384 L1669.87 924.212 L1551.95 871.047 L1434.02 815.697 L1316.09 750.488 L1198.16 676.82 L1080.23 593.972 L962.301 493.595 L844.372 361.252 L726.443 127.862  Z" fill="#0000ff" fill-rule="evenodd" fill-opacity="0.1"/>
<polyline clip-path="url(#clip722)" style="stroke:#0000ff; stroke-linecap:round; stroke-linejoin:round; stroke-width:0; stroke-opacity:0.1; fill:none" points="726.443,196.58 844.372,430.097 962.301,562.128 1080.23,664.541 1198.16,743.403 1316.09,818.356 1434.02,884.477 1551.95,938.931 1669.87,992.545 1787.8,1032.69 1905.73,1078.49 2023.66,1112.25 2141.59,1146.47 2259.52,1175.42 "/>
</svg>
