<?xml version="1.0" encoding="utf-8"?>
<svg xmlns="http://www.w3.org/2000/svg" xmlns:xlink="http://www.w3.org/1999/xlink" width="600" height="400" viewBox="0 0 2400 1600">
<defs>
  <clipPath id="clip760">
    <rect x="0" y="0" width="2400" height="1600"/>
  </clipPath>
</defs>
<path clip-path="url(#clip760)" d="M0 1600 L2400 1600 L2400 0 L0 0  Z" fill="#ffffff" fill-rule="evenodd" fill-opacity="1"/>
<defs>
  <clipPath id="clip761">
    <rect x="480" y="0" width="1681" height="1600"/>
  </clipPath>
</defs>
<path clip-path="url(#clip760)" d="M680.45 1273.7 L2305.51 1273.7 L2305.51 94.4882 L680.45 94.4882  Z" fill="#ffffff" fill-rule="evenodd" fill-opacity="1"/>
<defs>
  <clipPath id="clip762">
    <rect x="680" y="94" width="1626" height="1180"/>
  </clipPath>
</defs>
<polyline clip-path="url(#clip762)" style="stroke:#000000; stroke-linecap:round; stroke-linejoin:round; stroke-width:4; stroke-opacity:0.1; fill:none" points="726.443,1273.7 726.443,94.4882 "/>
<polyline clip-path="url(#clip762)" style="stroke:#000000; stroke-linecap:round; stroke-linejoin:round; stroke-width:4; stroke-opacity:0.1; fill:none" points="962.301,1273.7 962.301,94.4882 "/>
<polyline clip-path="url(#clip762)" style="stroke:#000000; stroke-linecap:round; stroke-linejoin:round; stroke-width:4; stroke-opacity:0.1; fill:none" points="1198.16,1273.7 1198.16,94.4882 "/>
<polyline clip-path="url(#clip762)" style="stroke:#000000; stroke-linecap:round; stroke-linejoin:round; stroke-width:4; stroke-opacity:0.1; fill:none" points="1434.02,1273.7 1434.02,94.4882 "/>
<polyline clip-path="url(#clip762)" style="stroke:#000000; stroke-linecap:round; stroke-linejoin:round; stroke-width:4; stroke-opacity:0.1; fill:none" points="1669.87,1273.7 1669.87,94.4882 "/>
<polyline clip-path="url(#clip762)" style="stroke:#000000; stroke-linecap:round; stroke-linejoin:round; stroke-width:4; stroke-opacity:0.1; fill:none" points="1905.73,1273.7 1905.73,94.4882 "/>
<polyline clip-path="url(#clip762)" style="stroke:#000000; stroke-linecap:round; stroke-linejoin:round; stroke-width:4; stroke-opacity:0.1; fill:none" points="2141.59,1273.7 2141.59,94.4882 "/>
<polyline clip-path="url(#clip760)" style="stroke:#000000; stroke-linecap:round; stroke-linejoin:round; stroke-width:8; stroke-opacity:1; fill:none" points="680.45,1273.7 2305.51,1273.7 "/>
<polyline clip-path="url(#clip760)" style="stroke:#000000; stroke-linecap:round; stroke-linejoin:round; stroke-width:8; stroke-opacity:1; fill:none" points="726.443,1273.7 726.443,1254.8 "/>
<polyline clip-path="url(#clip760)" style="stroke:#000000; stroke-linecap:round; stroke-linejoin:round; stroke-width:8; stroke-opacity:1; fill:none" points="962.301,1273.7 962.301,1254.8 "/>
<polyline clip-path="url(#clip760)" style="stroke:#000000; stroke-linecap:round; stroke-linejoin:round; stroke-width:8; stroke-opacity:1; fill:none" points="1198.16,1273.7 1198.16,1254.8 "/>
<polyline clip-path="url(#clip760)" style="stroke:#000000; stroke-linecap:round; stroke-linejoin:round; stroke-width:8; stroke-opacity:1; fill:none" points="1434.02,1273.7 1434.02,1254.8 "/>
<polyline clip-path="url(#clip760)" style="stroke:#000000; stroke-linecap:round; stroke-linejoin:round; stroke-width:8; stroke-opacity:1; fill:none" points="1669.87,1273.7 1669.87,1254.8 "/>
<polyline clip-path="url(#clip760)" style="stroke:#000000; stroke-linecap:round; stroke-linejoin:round; stroke-width:8; stroke-opacity:1; fill:none" points="1905.73,1273.7 1905.73,1254.8 "/>
<polyline clip-path="url(#clip760)" style="stroke:#000000; stroke-linecap:round; stroke-linejoin:round; stroke-width:8; stroke-opacity:1; fill:none" points="2141.59,1273.7 2141.59,1254.8 "/>
<path clip-path="url(#clip760)" d="M681.211 1316.33 Q673.989 1316.33 670.332 1323.46 Q666.721 1330.55 666.721 1344.81 Q666.721 1359.02 670.332 1366.15 Q673.989 1373.23 681.211 1373.23 Q688.48 1373.23 692.091 1366.15 Q695.748 1359.02 695.748 1344.81 Q695.748 1330.55 692.091 1323.46 Q688.48 1316.33 681.211 1316.33 M681.211 1308.93 Q692.832 1308.93 698.943 1318.14 Q705.1 1327.31 705.1 1344.81 Q705.1 1362.26 698.943 1371.47 Q692.832 1380.64 681.211 1380.64 Q669.591 1380.64 663.434 1371.47 Q657.323 1362.26 657.323 1344.81 Q657.323 1327.31 663.434 1318.14 Q669.591 1308.93 681.211 1308.93 Z" fill="#000000" fill-rule="nonzero" fill-opacity="1" /><path clip-path="url(#clip760)" d="M721.535 1367.54 L731.304 1367.54 L731.304 1379.3 L721.535 1379.3 L721.535 1367.54 Z" fill="#000000" fill-rule="nonzero" fill-opacity="1" /><path clip-path="url(#clip760)" d="M771.674 1316.33 Q764.452 1316.33 760.794 1323.46 Q757.183 1330.55 757.183 1344.81 Q757.183 1359.02 760.794 1366.15 Q764.452 1373.23 771.674 1373.23 Q778.942 1373.23 782.553 1366.15 Q786.211 1359.02 786.211 1344.81 Q786.211 1330.55 782.553 1323.46 Q778.942 1316.33 771.674 1316.33 M771.674 1308.93 Q783.294 1308.93 789.405 1318.14 Q795.563 1327.31 795.563 1344.81 Q795.563 1362.26 789.405 1371.47 Q783.294 1380.64 771.674 1380.64 Q760.054 1380.64 753.896 1371.47 Q747.785 1362.26 747.785 1344.81 Q747.785 1327.31 753.896 1318.14 Q760.054 1308.93 771.674 1308.93 Z" fill="#000000" fill-rule="nonzero" fill-opacity="1" /><path clip-path="url(#clip760)" d="M918.667 1316.33 Q911.444 1316.33 907.787 1323.46 Q904.176 1330.55 904.176 1344.81 Q904.176 1359.02 907.787 1366.15 Q911.444 1373.23 918.667 1373.23 Q925.935 1373.23 929.546 1366.15 Q933.204 1359.02 933.204 1344.81 Q933.204 1330.55 929.546 1323.46 Q925.935 1316.33 918.667 1316.33 M918.667 1308.93 Q930.287 1308.93 936.398 1318.14 Q942.555 1327.31 942.555 1344.81 Q942.555 1362.26 936.398 1371.47 Q930.287 1380.64 918.667 1380.64 Q907.046 1380.64 900.889 1371.47 Q894.778 1362.26 894.778 1344.81 Q894.778 1327.31 900.889 1318.14 Q907.046 1308.93 918.667 1308.93 Z" fill="#000000" fill-rule="nonzero" fill-opacity="1" /><path clip-path="url(#clip760)" d="M958.99 1367.54 L968.759 1367.54 L968.759 1379.3 L958.99 1379.3 L958.99 1367.54 Z" fill="#000000" fill-rule="nonzero" fill-opacity="1" /><path clip-path="url(#clip760)" d="M997.185 1371.43 L1029.82 1371.43 L1029.82 1379.3 L985.935 1379.3 L985.935 1371.43 Q991.259 1365.92 1000.43 1356.66 Q1009.64 1347.35 1012 1344.67 Q1016.49 1339.62 1018.25 1336.15 Q1020.05 1332.63 1020.05 1329.25 Q1020.05 1323.74 1016.17 1320.27 Q1012.32 1316.8 1006.12 1316.8 Q1001.72 1316.8 996.814 1318.32 Q991.953 1319.85 986.398 1322.95 L986.398 1313.51 Q992.046 1311.24 996.953 1310.08 Q1001.86 1308.93 1005.93 1308.93 Q1016.68 1308.93 1023.06 1314.3 Q1029.45 1319.67 1029.45 1328.65 Q1029.45 1332.91 1027.83 1336.75 Q1026.26 1340.55 1022.05 1345.73 Q1020.89 1347.07 1014.68 1353.51 Q1008.48 1359.9 997.185 1371.43 Z" fill="#000000" fill-rule="nonzero" fill-opacity="1" /><path clip-path="url(#clip760)" d="M1152.44 1316.33 Q1145.22 1316.33 1141.56 1323.46 Q1137.95 1330.55 1137.95 1344.81 Q1137.95 1359.02 1141.56 1366.15 Q1145.22 1373.23 1152.44 1373.23 Q1159.71 1373.23 1163.32 1366.15 Q1166.98 1359.02 1166.98 1344.81 Q1166.98 1330.55 1163.32 1323.46 Q1159.71 1316.33 1152.44 1316.33 M1152.44 1308.93 Q1164.06 1308.93 1170.17 1318.14 Q1176.33 1327.31 1176.33 1344.81 Q1176.33 1362.26 1170.17 1371.47 Q1164.06 1380.64 1152.44 1380.64 Q1140.82 1380.64 1134.66 1371.47 Q1128.55 1362.26 1128.55 1344.81 Q1128.55 1327.31 1134.66 1318.14 Q1140.82 1308.93 1152.44 1308.93 Z" fill="#000000" fill-rule="nonzero" fill-opacity="1" /><path clip-path="url(#clip760)" d="M1192.77 1367.54 L1202.53 1367.54 L1202.53 1379.3 L1192.77 1379.3 L1192.77 1367.54 Z" fill="#000000" fill-rule="nonzero" fill-opacity="1" /><path clip-path="url(#clip760)" d="M1248.6 1318.32 L1224.99 1355.22 L1248.6 1355.22 L1248.6 1318.32 M1246.14 1310.18 L1257.9 1310.18 L1257.9 1355.22 L1267.76 1355.22 L1267.76 1363 L1257.9 1363 L1257.9 1379.3 L1248.6 1379.3 L1248.6 1363 L1217.39 1363 L1217.39 1353.97 L1246.14 1310.18 Z" fill="#000000" fill-rule="nonzero" fill-opacity="1" /><path clip-path="url(#clip760)" d="M1388.62 1316.33 Q1381.4 1316.33 1377.74 1323.46 Q1374.13 1330.55 1374.13 1344.81 Q1374.13 1359.02 1377.74 1366.15 Q1381.4 1373.23 1388.62 1373.23 Q1395.89 1373.23 1399.5 1366.15 Q1403.16 1359.02 1403.16 1344.81 Q1403.16 1330.55 1399.5 1323.46 Q1395.89 1316.33 1388.62 1316.33 M1388.62 1308.93 Q1400.24 1308.93 1406.35 1318.14 Q1412.51 1327.31 1412.51 1344.81 Q1412.51 1362.26 1406.35 1371.47 Q1400.24 1380.64 1388.62 1380.64 Q1377 1380.64 1370.85 1371.47 Q1364.73 1362.26 1364.73 1344.81 Q1364.73 1327.31 1370.85 1318.14 Q1377 1308.93 1388.62 1308.93 Z" fill="#000000" fill-rule="nonzero" fill-opacity="1" /><path clip-path="url(#clip760)" d="M1428.95 1367.54 L1438.72 1367.54 L1438.72 1379.3 L1428.95 1379.3 L1428.95 1367.54 Z" fill="#000000" fill-rule="nonzero" fill-opacity="1" /><path clip-path="url(#clip760)" d="M1480.24 1341.01 Q1473.95 1341.01 1470.24 1345.31 Q1466.59 1349.62 1466.59 1357.12 Q1466.59 1364.57 1470.24 1368.93 Q1473.95 1373.23 1480.24 1373.23 Q1486.54 1373.23 1490.2 1368.93 Q1493.9 1364.57 1493.9 1357.12 Q1493.9 1349.62 1490.2 1345.31 Q1486.54 1341.01 1480.24 1341.01 M1498.81 1311.7 L1498.81 1320.22 Q1495.29 1318.56 1491.68 1317.68 Q1488.11 1316.8 1484.6 1316.8 Q1475.34 1316.8 1470.43 1323.05 Q1465.57 1329.3 1464.87 1341.93 Q1467.6 1337.91 1471.72 1335.78 Q1475.85 1333.6 1480.8 1333.6 Q1491.22 1333.6 1497.23 1339.94 Q1503.3 1346.24 1503.3 1357.12 Q1503.3 1367.77 1497 1374.2 Q1490.71 1380.64 1480.24 1380.64 Q1468.25 1380.64 1461.91 1371.47 Q1455.57 1362.26 1455.57 1344.81 Q1455.57 1328.42 1463.35 1318.69 Q1471.12 1308.93 1484.22 1308.93 Q1487.74 1308.93 1491.31 1309.62 Q1494.92 1310.31 1498.81 1311.7 Z" fill="#000000" fill-rule="nonzero" fill-opacity="1" /><path clip-path="url(#clip760)" d="M1624.74 1316.33 Q1617.51 1316.33 1613.86 1323.46 Q1610.25 1330.55 1610.25 1344.81 Q1610.25 1359.02 1613.86 1366.15 Q1617.51 1373.23 1624.74 1373.23 Q1632 1373.23 1635.62 1366.15 Q1639.27 1359.02 1639.27 1344.81 Q1639.27 1330.55 1635.62 1323.46 Q1632 1316.33 1624.74 1316.33 M1624.74 1308.93 Q1636.36 1308.93 1642.47 1318.14 Q1648.62 1327.31 1648.62 1344.81 Q1648.62 1362.26 1642.47 1371.47 Q1636.36 1380.64 1624.74 1380.64 Q1613.12 1380.64 1606.96 1371.47 Q1600.85 1362.26 1600.85 1344.81 Q1600.85 1327.31 1606.96 1318.14 Q1613.12 1308.93 1624.74 1308.93 Z" fill="#000000" fill-rule="nonzero" fill-opacity="1" /><path clip-path="url(#clip760)" d="M1665.06 1367.54 L1674.83 1367.54 L1674.83 1379.3 L1665.06 1379.3 L1665.06 1367.54 Z" fill="#000000" fill-rule="nonzero" fill-opacity="1" /><path clip-path="url(#clip760)" d="M1715.2 1346.47 Q1708.53 1346.47 1704.69 1350.04 Q1700.89 1353.6 1700.89 1359.85 Q1700.89 1366.1 1704.69 1369.67 Q1708.53 1373.23 1715.2 1373.23 Q1721.87 1373.23 1725.71 1369.67 Q1729.55 1366.06 1729.55 1359.85 Q1729.55 1353.6 1725.71 1350.04 Q1721.91 1346.47 1715.2 1346.47 M1705.85 1342.49 Q1699.83 1341.01 1696.45 1336.89 Q1693.12 1332.77 1693.12 1326.84 Q1693.12 1318.56 1698.99 1313.74 Q1704.92 1308.93 1715.2 1308.93 Q1725.52 1308.93 1731.4 1313.74 Q1737.28 1318.56 1737.28 1326.84 Q1737.28 1332.77 1733.9 1336.89 Q1730.57 1341.01 1724.6 1342.49 Q1731.36 1344.06 1735.11 1348.65 Q1738.9 1353.23 1738.9 1359.85 Q1738.9 1369.9 1732.74 1375.27 Q1726.63 1380.64 1715.2 1380.64 Q1703.76 1380.64 1697.61 1375.27 Q1691.49 1369.9 1691.49 1359.85 Q1691.49 1353.23 1695.29 1348.65 Q1699.09 1344.06 1705.85 1342.49 M1702.42 1327.72 Q1702.42 1333.09 1705.75 1336.1 Q1709.13 1339.11 1715.2 1339.11 Q1721.22 1339.11 1724.6 1336.1 Q1728.02 1333.09 1728.02 1327.72 Q1728.02 1322.35 1724.6 1319.34 Q1721.22 1316.33 1715.2 1316.33 Q1709.13 1316.33 1705.75 1319.34 Q1702.42 1322.35 1702.42 1327.72 Z" fill="#000000" fill-rule="nonzero" fill-opacity="1" /><path clip-path="url(#clip760)" d="M1840.04 1371.43 L1855.32 1371.43 L1855.32 1318.69 L1838.7 1322.03 L1838.7 1313.51 L1855.22 1310.18 L1864.58 1310.18 L1864.58 1371.43 L1879.85 1371.43 L1879.85 1379.3 L1840.04 1379.3 L1840.04 1371.43 Z" fill="#000000" fill-rule="nonzero" fill-opacity="1" /><path clip-path="url(#clip760)" d="M1898.74 1367.54 L1908.51 1367.54 L1908.51 1379.3 L1898.74 1379.3 L1898.74 1367.54 Z" fill="#000000" fill-rule="nonzero" fill-opacity="1" /><path clip-path="url(#clip760)" d="M1948.88 1316.33 Q1941.66 1316.33 1938 1323.46 Q1934.39 1330.55 1934.39 1344.81 Q1934.39 1359.02 1938 1366.15 Q1941.66 1373.23 1948.88 1373.23 Q1956.15 1373.23 1959.76 1366.15 Q1963.42 1359.02 1963.42 1344.81 Q1963.42 1330.55 1959.76 1323.46 Q1956.15 1316.33 1948.88 1316.33 M1948.88 1308.93 Q1960.5 1308.93 1966.61 1318.14 Q1972.77 1327.31 1972.77 1344.81 Q1972.77 1362.26 1966.61 1371.47 Q1960.5 1380.64 1948.88 1380.64 Q1937.26 1380.64 1931.1 1371.47 Q1924.99 1362.26 1924.99 1344.81 Q1924.99 1327.31 1931.1 1318.14 Q1937.26 1308.93 1948.88 1308.93 Z" fill="#000000" fill-rule="nonzero" fill-opacity="1" /><path clip-path="url(#clip760)" d="M2077.49 1371.43 L2092.77 1371.43 L2092.77 1318.69 L2076.15 1322.03 L2076.15 1313.51 L2092.68 1310.18 L2102.03 1310.18 L2102.03 1371.43 L2117.31 1371.43 L2117.31 1379.3 L2077.49 1379.3 L2077.49 1371.43 Z" fill="#000000" fill-rule="nonzero" fill-opacity="1" /><path clip-path="url(#clip760)" d="M2136.2 1367.54 L2145.97 1367.54 L2145.97 1379.3 L2136.2 1379.3 L2136.2 1367.54 Z" fill="#000000" fill-rule="nonzero" fill-opacity="1" /><path clip-path="url(#clip760)" d="M2174.39 1371.43 L2207.03 1371.43 L2207.03 1379.3 L2163.14 1379.3 L2163.14 1371.43 Q2168.47 1365.92 2177.63 1356.66 Q2186.84 1347.35 2189.21 1344.67 Q2193.7 1339.62 2195.46 1336.15 Q2197.26 1332.63 2197.26 1329.25 Q2197.26 1323.74 2193.37 1320.27 Q2189.53 1316.8 2183.33 1316.8 Q2178.93 1316.8 2174.02 1318.32 Q2169.16 1319.85 2163.6 1322.95 L2163.6 1313.51 Q2169.25 1311.24 2174.16 1310.08 Q2179.07 1308.93 2183.14 1308.93 Q2193.88 1308.93 2200.27 1314.3 Q2206.66 1319.67 2206.66 1328.65 Q2206.66 1332.91 2205.04 1336.75 Q2203.47 1340.55 2199.25 1345.73 Q2198.09 1347.07 2191.89 1353.51 Q2185.69 1359.9 2174.39 1371.43 Z" fill="#000000" fill-rule="nonzero" fill-opacity="1" /><path clip-path="url(#clip760)" d="M1378.53 1484.39 L1378.53 1527.42 L1366.81 1527.42 L1366.81 1484.77 Q1366.81 1474.65 1362.87 1469.62 Q1358.92 1464.59 1351.03 1464.59 Q1341.54 1464.59 1336.07 1470.64 Q1330.59 1476.69 1330.59 1487.13 L1330.59 1527.42 L1318.82 1527.42 L1318.82 1428.37 L1330.59 1428.37 L1330.59 1467.2 Q1334.79 1460.77 1340.46 1457.59 Q1346.19 1454.41 1353.64 1454.41 Q1365.92 1454.41 1372.22 1462.05 Q1378.53 1469.62 1378.53 1484.39 Z" fill="#000000" fill-rule="nonzero" fill-opacity="1" /><path clip-path="url(#clip760)" d="M1429.51 1464.34 Q1420.09 1464.34 1414.62 1471.72 Q1409.14 1479.04 1409.14 1491.84 Q1409.14 1504.63 1414.56 1512.02 Q1420.03 1519.34 1429.51 1519.34 Q1438.87 1519.34 1444.35 1511.96 Q1449.82 1504.57 1449.82 1491.84 Q1449.82 1479.17 1444.35 1471.79 Q1438.87 1464.34 1429.51 1464.34 M1429.51 1454.41 Q1444.79 1454.41 1453.51 1464.34 Q1462.23 1474.27 1462.23 1491.84 Q1462.23 1509.35 1453.51 1519.34 Q1444.79 1529.27 1429.51 1529.27 Q1414.17 1529.27 1405.45 1519.34 Q1396.8 1509.35 1396.8 1491.84 Q1396.8 1474.27 1405.45 1464.34 Q1414.17 1454.41 1429.51 1454.41 Z" fill="#000000" fill-rule="nonzero" fill-opacity="1" /><path clip-path="url(#clip760)" d="M1480.44 1499.29 L1480.44 1456.13 L1492.15 1456.13 L1492.15 1498.84 Q1492.15 1508.96 1496.1 1514.06 Q1500.05 1519.08 1507.94 1519.08 Q1517.43 1519.08 1522.9 1513.04 Q1528.44 1506.99 1528.44 1496.55 L1528.44 1456.13 L1540.15 1456.13 L1540.15 1527.42 L1528.44 1527.42 L1528.44 1516.47 Q1524.17 1522.97 1518.51 1526.15 Q1512.91 1529.27 1505.46 1529.27 Q1493.17 1529.27 1486.81 1521.63 Q1480.44 1513.99 1480.44 1499.29 M1509.91 1454.41 L1509.91 1454.41 Z" fill="#000000" fill-rule="nonzero" fill-opacity="1" /><path clip-path="url(#clip760)" d="M1605.59 1467.08 Q1603.62 1465.93 1601.26 1465.42 Q1598.97 1464.85 1596.17 1464.85 Q1586.24 1464.85 1580.89 1471.34 Q1575.61 1477.77 1575.61 1489.87 L1575.61 1527.42 L1563.83 1527.42 L1563.83 1456.13 L1575.61 1456.13 L1575.61 1467.2 Q1579.3 1460.71 1585.22 1457.59 Q1591.14 1454.41 1599.61 1454.41 Q1600.82 1454.41 1602.28 1454.6 Q1603.74 1454.73 1605.53 1455.05 L1605.59 1467.08 Z" fill="#000000" fill-rule="nonzero" fill-opacity="1" /><path clip-path="url(#clip760)" d="M1663.33 1458.23 L1663.33 1469.3 Q1658.36 1466.76 1653.01 1465.49 Q1647.67 1464.21 1641.94 1464.21 Q1633.22 1464.21 1628.83 1466.89 Q1624.5 1469.56 1624.5 1474.91 Q1624.5 1478.98 1627.62 1481.34 Q1630.73 1483.63 1640.16 1485.73 L1644.17 1486.62 Q1656.64 1489.29 1661.86 1494.19 Q1667.15 1499.03 1667.15 1507.75 Q1667.15 1517.68 1659.25 1523.48 Q1651.42 1529.27 1637.67 1529.27 Q1631.94 1529.27 1625.71 1528.12 Q1619.53 1527.04 1612.66 1524.81 L1612.66 1512.72 Q1619.15 1516.09 1625.45 1517.81 Q1631.75 1519.47 1637.93 1519.47 Q1646.2 1519.47 1650.66 1516.67 Q1655.12 1513.8 1655.12 1508.64 Q1655.12 1503.87 1651.87 1501.32 Q1648.69 1498.78 1637.8 1496.42 L1633.73 1495.47 Q1622.84 1493.18 1618 1488.47 Q1613.17 1483.69 1613.17 1475.42 Q1613.17 1465.36 1620.3 1459.88 Q1627.42 1454.41 1640.54 1454.41 Q1647.03 1454.41 1652.76 1455.36 Q1658.49 1456.32 1663.33 1458.23 Z" fill="#000000" fill-rule="nonzero" fill-opacity="1" /><polyline clip-path="url(#clip762)" style="stroke:#000000; stroke-linecap:round; stroke-linejoin:round; stroke-width:4; stroke-opacity:0.1; fill:none" points="680.45,1092.63 2305.51,1092.63 "/>
<polyline clip-path="url(#clip762)" style="stroke:#000000; stroke-linecap:round; stroke-linejoin:round; stroke-width:4; stroke-opacity:0.1; fill:none" points="680.45,882.669 2305.51,882.669 "/>
<polyline clip-path="url(#clip762)" style="stroke:#000000; stroke-linecap:round; stroke-linejoin:round; stroke-width:4; stroke-opacity:0.1; fill:none" points="680.45,672.708 2305.51,672.708 "/>
<polyline clip-path="url(#clip762)" style="stroke:#000000; stroke-linecap:round; stroke-linejoin:round; stroke-width:4; stroke-opacity:0.1; fill:none" points="680.45,462.747 2305.51,462.747 "/>
<polyline clip-path="url(#clip762)" style="stroke:#000000; stroke-linecap:round; stroke-linejoin:round; stroke-width:4; stroke-opacity:0.1; fill:none" points="680.45,252.786 2305.51,252.786 "/>
<polyline clip-path="url(#clip760)" style="stroke:#000000; stroke-linecap:round; stroke-linejoin:round; stroke-width:8; stroke-opacity:1; fill:none" points="680.45,1273.7 680.45,94.4882 "/>
<polyline clip-path="url(#clip760)" style="stroke:#000000; stroke-linecap:round; stroke-linejoin:round; stroke-width:8; stroke-opacity:1; fill:none" points="680.45,1092.63 699.348,1092.63 "/>
<polyline clip-path="url(#clip760)" style="stroke:#000000; stroke-linecap:round; stroke-linejoin:round; stroke-width:8; stroke-opacity:1; fill:none" points="680.45,882.669 699.348,882.669 "/>
<polyline clip-path="url(#clip760)" style="stroke:#000000; stroke-linecap:round; stroke-linejoin:round; stroke-width:8; stroke-opacity:1; fill:none" points="680.45,672.708 699.348,672.708 "/>
<polyline clip-path="url(#clip760)" style="stroke:#000000; stroke-linecap:round; stroke-linejoin:round; stroke-width:8; stroke-opacity:1; fill:none" points="680.45,462.747 699.348,462.747 "/>
<polyline clip-path="url(#clip760)" style="stroke:#000000; stroke-linecap:round; stroke-linejoin:round; stroke-width:8; stroke-opacity:1; fill:none" points="680.45,252.786 699.348,252.786 "/>
<path clip-path="url(#clip760)" d="M391.072 1119.32 L406.35 1119.32 L406.35 1066.59 L389.73 1069.92 L389.73 1061.4 L406.257 1058.07 L415.609 1058.07 L415.609 1119.32 L430.887 1119.32 L430.887 1127.19 L391.072 1127.19 L391.072 1119.32 Z" fill="#000000" fill-rule="nonzero" fill-opacity="1" /><path clip-path="url(#clip760)" d="M457.831 1119.32 L490.47 1119.32 L490.47 1127.19 L446.581 1127.19 L446.581 1119.32 Q451.905 1113.81 461.072 1104.55 Q470.285 1095.25 472.646 1092.56 Q477.136 1087.51 478.896 1084.04 Q480.701 1080.52 480.701 1077.14 Q480.701 1071.63 476.812 1068.16 Q472.97 1064.69 466.766 1064.69 Q462.368 1064.69 457.461 1066.22 Q452.6 1067.75 447.044 1070.85 L447.044 1061.4 Q452.692 1059.13 457.6 1057.98 Q462.507 1056.82 466.581 1056.82 Q477.322 1056.82 483.71 1062.19 Q490.099 1067.56 490.099 1076.54 Q490.099 1080.8 488.479 1084.64 Q486.905 1088.44 482.692 1093.63 Q481.535 1094.97 475.331 1101.4 Q469.127 1107.79 457.831 1119.32 Z" fill="#000000" fill-rule="nonzero" fill-opacity="1" /><path clip-path="url(#clip760)" d="M510.192 1058.07 L546.905 1058.07 L546.905 1065.94 L518.757 1065.94 L518.757 1082.88 Q520.794 1082.19 522.831 1081.87 Q524.868 1081.5 526.905 1081.5 Q538.479 1081.5 545.238 1087.84 Q551.997 1094.18 551.997 1105.01 Q551.997 1116.17 545.053 1122.38 Q538.108 1128.53 525.47 1128.53 Q521.118 1128.53 516.581 1127.79 Q512.09 1127.05 507.275 1125.57 L507.275 1116.17 Q511.442 1118.44 515.886 1119.55 Q520.331 1120.66 525.284 1120.66 Q533.294 1120.66 537.969 1116.45 Q542.645 1112.24 542.645 1105.01 Q542.645 1097.79 537.969 1093.58 Q533.294 1089.37 525.284 1089.37 Q521.534 1089.37 517.784 1090.2 Q514.081 1091.03 510.192 1092.79 L510.192 1058.07 Z" fill="#000000" fill-rule="nonzero" fill-opacity="1" /><path clip-path="url(#clip760)" d="M570.423 1115.43 L580.191 1115.43 L580.191 1127.19 L570.423 1127.19 L570.423 1115.43 Z" fill="#000000" fill-rule="nonzero" fill-opacity="1" /><path clip-path="url(#clip760)" d="M620.562 1064.23 Q613.339 1064.23 609.682 1071.36 Q606.071 1078.44 606.071 1092.7 Q606.071 1106.91 609.682 1114.04 Q613.339 1121.13 620.562 1121.13 Q627.83 1121.13 631.441 1114.04 Q635.099 1106.91 635.099 1092.7 Q635.099 1078.44 631.441 1071.36 Q627.83 1064.23 620.562 1064.23 M620.562 1056.82 Q632.182 1056.82 638.293 1066.03 Q644.45 1075.2 644.45 1092.7 Q644.45 1110.15 638.293 1119.37 Q632.182 1128.53 620.562 1128.53 Q608.941 1128.53 602.784 1119.37 Q596.673 1110.15 596.673 1092.7 Q596.673 1075.2 602.784 1066.03 Q608.941 1056.82 620.562 1056.82 Z" fill="#000000" fill-rule="nonzero" fill-opacity="1" /><path clip-path="url(#clip760)" d="M391.072 909.359 L406.35 909.359 L406.35 856.627 L389.73 859.961 L389.73 851.442 L406.257 848.109 L415.609 848.109 L415.609 909.359 L430.887 909.359 L430.887 917.229 L391.072 917.229 L391.072 909.359 Z" fill="#000000" fill-rule="nonzero" fill-opacity="1" /><path clip-path="url(#clip760)" d="M449.868 848.109 L486.581 848.109 L486.581 855.979 L458.433 855.979 L458.433 872.924 Q460.47 872.229 462.507 871.905 Q464.544 871.535 466.581 871.535 Q478.155 871.535 484.914 877.877 Q491.673 884.22 491.673 895.053 Q491.673 906.21 484.729 912.414 Q477.785 918.571 465.146 918.571 Q460.794 918.571 456.257 917.831 Q451.766 917.09 446.951 915.608 L446.951 906.21 Q451.118 908.479 455.562 909.59 Q460.007 910.701 464.961 910.701 Q472.97 910.701 477.646 906.488 Q482.322 902.275 482.322 895.053 Q482.322 887.831 477.646 883.618 Q472.97 879.405 464.961 879.405 Q461.211 879.405 457.461 880.238 Q453.757 881.072 449.868 882.831 L449.868 848.109 Z" fill="#000000" fill-rule="nonzero" fill-opacity="1" /><path clip-path="url(#clip760)" d="M530.099 854.266 Q522.877 854.266 519.22 861.396 Q515.608 868.479 515.608 882.738 Q515.608 896.951 519.22 904.081 Q522.877 911.164 530.099 911.164 Q537.368 911.164 540.979 904.081 Q544.636 896.951 544.636 882.738 Q544.636 868.479 540.979 861.396 Q537.368 854.266 530.099 854.266 M530.099 846.859 Q541.719 846.859 547.831 856.072 Q553.988 865.238 553.988 882.738 Q553.988 900.192 547.831 909.405 Q541.719 918.571 530.099 918.571 Q518.479 918.571 512.321 909.405 Q506.21 900.192 506.21 882.738 Q506.21 865.238 512.321 856.072 Q518.479 846.859 530.099 846.859 Z" fill="#000000" fill-rule="nonzero" fill-opacity="1" /><path clip-path="url(#clip760)" d="M570.423 905.47 L580.191 905.47 L580.191 917.229 L570.423 917.229 L570.423 905.47 Z" fill="#000000" fill-rule="nonzero" fill-opacity="1" /><path clip-path="url(#clip760)" d="M620.562 854.266 Q613.339 854.266 609.682 861.396 Q606.071 868.479 606.071 882.738 Q606.071 896.951 609.682 904.081 Q613.339 911.164 620.562 911.164 Q627.83 911.164 631.441 904.081 Q635.099 896.951 635.099 882.738 Q635.099 868.479 631.441 861.396 Q627.83 854.266 620.562 854.266 M620.562 846.859 Q632.182 846.859 638.293 856.072 Q644.45 865.238 644.45 882.738 Q644.45 900.192 638.293 909.405 Q632.182 918.571 620.562 918.571 Q608.941 918.571 602.784 909.405 Q596.673 900.192 596.673 882.738 Q596.673 865.238 602.784 856.072 Q608.941 846.859 620.562 846.859 Z" fill="#000000" fill-rule="nonzero" fill-opacity="1" /><path clip-path="url(#clip760)" d="M391.072 699.398 L406.35 699.398 L406.35 646.666 L389.73 650 L389.73 641.481 L406.257 638.148 L415.609 638.148 L415.609 699.398 L430.887 699.398 L430.887 707.268 L391.072 707.268 L391.072 699.398 Z" fill="#000000" fill-rule="nonzero" fill-opacity="1" /><path clip-path="url(#clip760)" d="M447.414 638.148 L491.859 638.148 L491.859 642.129 L466.766 707.268 L456.998 707.268 L480.609 646.018 L447.414 646.018 L447.414 638.148 Z" fill="#000000" fill-rule="nonzero" fill-opacity="1" /><path clip-path="url(#clip760)" d="M510.192 638.148 L546.905 638.148 L546.905 646.018 L518.757 646.018 L518.757 662.963 Q520.794 662.268 522.831 661.944 Q524.868 661.574 526.905 661.574 Q538.479 661.574 545.238 667.916 Q551.997 674.259 551.997 685.092 Q551.997 696.249 545.053 702.453 Q538.108 708.61 525.47 708.61 Q521.118 708.61 516.581 707.87 Q512.09 707.129 507.275 705.648 L507.275 696.249 Q511.442 698.518 515.886 699.629 Q520.331 700.74 525.284 700.74 Q533.294 700.74 537.969 696.527 Q542.645 692.314 542.645 685.092 Q542.645 677.87 537.969 673.657 Q533.294 669.444 525.284 669.444 Q521.534 669.444 517.784 670.277 Q514.081 671.111 510.192 672.87 L510.192 638.148 Z" fill="#000000" fill-rule="nonzero" fill-opacity="1" /><path clip-path="url(#clip760)" d="M570.423 695.509 L580.191 695.509 L580.191 707.268 L570.423 707.268 L570.423 695.509 Z" fill="#000000" fill-rule="nonzero" fill-opacity="1" /><path clip-path="url(#clip760)" d="M620.562 644.305 Q613.339 644.305 609.682 651.435 Q606.071 658.518 606.071 672.777 Q606.071 686.99 609.682 694.12 Q613.339 701.203 620.562 701.203 Q627.83 701.203 631.441 694.12 Q635.099 686.99 635.099 672.777 Q635.099 658.518 631.441 651.435 Q627.83 644.305 620.562 644.305 M620.562 636.898 Q632.182 636.898 638.293 646.111 Q644.45 655.277 644.45 672.777 Q644.45 690.231 638.293 699.444 Q632.182 708.61 620.562 708.61 Q608.941 708.61 602.784 699.444 Q596.673 690.231 596.673 672.777 Q596.673 655.277 602.784 646.111 Q608.941 636.898 620.562 636.898 Z" fill="#000000" fill-rule="nonzero" fill-opacity="1" /><path clip-path="url(#clip760)" d="M397.507 489.437 L430.146 489.437 L430.146 497.307 L386.257 497.307 L386.257 489.437 Q391.581 483.927 400.748 474.668 Q409.961 465.363 412.322 462.677 Q416.813 457.631 418.572 454.159 Q420.378 450.64 420.378 447.261 Q420.378 441.752 416.489 438.279 Q412.646 434.807 406.442 434.807 Q402.044 434.807 397.137 436.335 Q392.276 437.863 386.72 440.965 L386.72 431.52 Q392.368 429.252 397.276 428.094 Q402.183 426.937 406.257 426.937 Q416.998 426.937 423.387 432.307 Q429.776 437.678 429.776 446.659 Q429.776 450.918 428.155 454.761 Q426.581 458.557 422.368 463.742 Q421.211 465.085 415.007 471.52 Q408.803 477.909 397.507 489.437 Z" fill="#000000" fill-rule="nonzero" fill-opacity="1" /><path clip-path="url(#clip760)" d="M469.775 434.344 Q462.553 434.344 458.896 441.474 Q455.285 448.557 455.285 462.816 Q455.285 477.029 458.896 484.159 Q462.553 491.242 469.775 491.242 Q477.044 491.242 480.655 484.159 Q484.312 477.029 484.312 462.816 Q484.312 448.557 480.655 441.474 Q477.044 434.344 469.775 434.344 M469.775 426.937 Q481.396 426.937 487.507 436.15 Q493.664 445.316 493.664 462.816 Q493.664 480.27 487.507 489.483 Q481.396 498.649 469.775 498.649 Q458.155 498.649 451.998 489.483 Q445.887 480.27 445.887 462.816 Q445.887 445.316 451.998 436.15 Q458.155 426.937 469.775 426.937 Z" fill="#000000" fill-rule="nonzero" fill-opacity="1" /><path clip-path="url(#clip760)" d="M530.099 434.344 Q522.877 434.344 519.22 441.474 Q515.608 448.557 515.608 462.816 Q515.608 477.029 519.22 484.159 Q522.877 491.242 530.099 491.242 Q537.368 491.242 540.979 484.159 Q544.636 477.029 544.636 462.816 Q544.636 448.557 540.979 441.474 Q537.368 434.344 530.099 434.344 M530.099 426.937 Q541.719 426.937 547.831 436.15 Q553.988 445.316 553.988 462.816 Q553.988 480.27 547.831 489.483 Q541.719 498.649 530.099 498.649 Q518.479 498.649 512.321 489.483 Q506.21 480.27 506.21 462.816 Q506.21 445.316 512.321 436.15 Q518.479 426.937 530.099 426.937 Z" fill="#000000" fill-rule="nonzero" fill-opacity="1" /><path clip-path="url(#clip760)" d="M570.423 485.548 L580.191 485.548 L580.191 497.307 L570.423 497.307 L570.423 485.548 Z" fill="#000000" fill-rule="nonzero" fill-opacity="1" /><path clip-path="url(#clip760)" d="M620.562 434.344 Q613.339 434.344 609.682 441.474 Q606.071 448.557 606.071 462.816 Q606.071 477.029 609.682 484.159 Q613.339 491.242 620.562 491.242 Q627.83 491.242 631.441 484.159 Q635.099 477.029 635.099 462.816 Q635.099 448.557 631.441 441.474 Q627.83 434.344 620.562 434.344 M620.562 426.937 Q632.182 426.937 638.293 436.15 Q644.45 445.316 644.45 462.816 Q644.45 480.27 638.293 489.483 Q632.182 498.649 620.562 498.649 Q608.941 498.649 602.784 489.483 Q596.673 480.27 596.673 462.816 Q596.673 445.316 602.784 436.15 Q608.941 426.937 620.562 426.937 Z" fill="#000000" fill-rule="nonzero" fill-opacity="1" /><path clip-path="url(#clip760)" d="M397.507 279.476 L430.146 279.476 L430.146 287.346 L386.257 287.346 L386.257 279.476 Q391.581 273.966 400.748 264.707 Q409.961 255.402 412.322 252.716 Q416.813 247.67 418.572 244.198 Q420.378 240.679 420.378 237.3 Q420.378 231.791 416.489 228.318 Q412.646 224.846 406.442 224.846 Q402.044 224.846 397.137 226.374 Q392.276 227.902 386.72 231.004 L386.72 221.559 Q392.368 219.291 397.276 218.133 Q402.183 216.976 406.257 216.976 Q416.998 216.976 423.387 222.346 Q429.776 227.717 429.776 236.698 Q429.776 240.957 428.155 244.8 Q426.581 248.596 422.368 253.781 Q421.211 255.124 415.007 261.559 Q408.803 267.948 397.507 279.476 Z" fill="#000000" fill-rule="nonzero" fill-opacity="1" /><path clip-path="url(#clip760)" d="M457.831 279.476 L490.47 279.476 L490.47 287.346 L446.581 287.346 L446.581 279.476 Q451.905 273.966 461.072 264.707 Q470.285 255.402 472.646 252.716 Q477.136 247.67 478.896 244.198 Q480.701 240.679 480.701 237.3 Q480.701 231.791 476.812 228.318 Q472.97 224.846 466.766 224.846 Q462.368 224.846 457.461 226.374 Q452.6 227.902 447.044 231.004 L447.044 221.559 Q452.692 219.291 457.6 218.133 Q462.507 216.976 466.581 216.976 Q477.322 216.976 483.71 222.346 Q490.099 227.717 490.099 236.698 Q490.099 240.957 488.479 244.8 Q486.905 248.596 482.692 253.781 Q481.535 255.124 475.331 261.559 Q469.127 267.948 457.831 279.476 Z" fill="#000000" fill-rule="nonzero" fill-opacity="1" /><path clip-path="url(#clip760)" d="M510.192 218.226 L546.905 218.226 L546.905 226.096 L518.757 226.096 L518.757 243.041 Q520.794 242.346 522.831 242.022 Q524.868 241.652 526.905 241.652 Q538.479 241.652 545.238 247.994 Q551.997 254.337 551.997 265.17 Q551.997 276.327 545.053 282.531 Q538.108 288.688 525.47 288.688 Q521.118 288.688 516.581 287.948 Q512.09 287.207 507.275 285.726 L507.275 276.327 Q511.442 278.596 515.886 279.707 Q520.331 280.818 525.284 280.818 Q533.294 280.818 537.969 276.605 Q542.645 272.392 542.645 265.17 Q542.645 257.948 537.969 253.735 Q533.294 249.522 525.284 249.522 Q521.534 249.522 517.784 250.355 Q514.081 251.189 510.192 252.948 L510.192 218.226 Z" fill="#000000" fill-rule="nonzero" fill-opacity="1" /><path clip-path="url(#clip760)" d="M570.423 275.587 L580.191 275.587 L580.191 287.346 L570.423 287.346 L570.423 275.587 Z" fill="#000000" fill-rule="nonzero" fill-opacity="1" /><path clip-path="url(#clip760)" d="M620.562 224.383 Q613.339 224.383 609.682 231.513 Q606.071 238.596 606.071 252.855 Q606.071 267.068 609.682 274.198 Q613.339 281.281 620.562 281.281 Q627.83 281.281 631.441 274.198 Q635.099 267.068 635.099 252.855 Q635.099 238.596 631.441 231.513 Q627.83 224.383 620.562 224.383 M620.562 216.976 Q632.182 216.976 638.293 226.189 Q644.45 235.355 644.45 252.855 Q644.45 270.309 638.293 279.522 Q632.182 288.688 620.562 288.688 Q608.941 288.688 602.784 279.522 Q596.673 270.309 596.673 252.855 Q596.673 235.355 602.784 226.189 Q608.941 216.976 620.562 216.976 Z" fill="#000000" fill-rule="nonzero" fill-opacity="1" /><path clip-path="url(#clip760)" d="M311.051 930.89 L348.863 930.89 L348.863 942.667 L250.449 942.667 L250.449 930.89 L261.271 930.89 Q254.905 927.198 251.85 921.596 Q248.731 915.931 248.731 908.101 Q248.731 895.115 259.043 887.031 Q269.356 878.883 286.161 878.883 Q302.966 878.883 313.279 887.031 Q323.591 895.115 323.591 908.101 Q323.591 915.931 320.536 921.596 Q317.417 927.198 311.051 930.89 M286.161 891.041 Q273.239 891.041 265.918 896.388 Q258.534 901.672 258.534 910.966 Q258.534 920.26 265.918 925.607 Q273.239 930.89 286.161 930.89 Q299.083 930.89 306.468 925.607 Q313.788 920.26 313.788 910.966 Q313.788 901.672 306.468 896.388 Q299.083 891.041 286.161 891.041 Z" fill="#000000" fill-rule="nonzero" fill-opacity="1" /><path clip-path="url(#clip760)" d="M285.906 827.066 Q285.906 841.261 289.153 846.736 Q292.399 852.21 300.229 852.21 Q306.468 852.21 310.16 848.136 Q313.788 843.999 313.788 836.933 Q313.788 827.193 306.913 821.337 Q299.975 815.416 288.516 815.416 L285.906 815.416 L285.906 827.066 M281.068 803.704 L321.745 803.704 L321.745 815.416 L310.924 815.416 Q317.417 819.427 320.536 825.411 Q323.591 831.394 323.591 840.052 Q323.591 851.001 317.48 857.494 Q311.306 863.923 300.993 863.923 Q288.962 863.923 282.851 855.902 Q276.74 847.818 276.74 831.84 L276.74 815.416 L275.594 815.416 Q267.509 815.416 263.117 820.764 Q258.661 826.047 258.661 835.659 Q258.661 841.771 260.125 847.563 Q261.589 853.356 264.518 858.703 L253.696 858.703 Q251.213 852.274 250.004 846.227 Q248.731 840.179 248.731 834.45 Q248.731 818.981 256.751 811.342 Q264.772 803.704 281.068 803.704 Z" fill="#000000" fill-rule="nonzero" fill-opacity="1" /><path clip-path="url(#clip760)" d="M261.398 738.264 Q260.253 740.238 259.743 742.593 Q259.17 744.884 259.17 747.685 Q259.17 757.616 265.663 762.963 Q272.093 768.247 284.188 768.247 L321.745 768.247 L321.745 780.023 L250.449 780.023 L250.449 768.247 L261.526 768.247 Q255.033 764.555 251.914 758.634 Q248.731 752.714 248.731 744.248 Q248.731 743.038 248.922 741.574 Q249.049 740.11 249.367 738.328 L261.398 738.264 Z" fill="#000000" fill-rule="nonzero" fill-opacity="1" /><path clip-path="url(#clip760)" d="M283.169 667.859 L288.898 667.859 L288.898 721.713 Q300.993 720.949 307.359 714.456 Q313.661 707.9 313.661 696.25 Q313.661 689.503 312.006 683.201 Q310.351 676.835 307.041 670.597 L318.117 670.597 Q320.79 676.899 322.191 683.519 Q323.591 690.139 323.591 696.951 Q323.591 714.011 313.661 724.005 Q303.73 733.935 286.798 733.935 Q269.292 733.935 259.043 724.514 Q248.731 715.029 248.731 698.988 Q248.731 684.601 258.025 676.262 Q267.255 667.859 283.169 667.859 M279.732 679.572 Q270.119 679.7 264.39 684.983 Q258.661 690.203 258.661 698.86 Q258.661 708.664 264.199 714.584 Q269.737 720.44 279.795 721.331 L279.732 679.572 Z" fill="#000000" fill-rule="nonzero" fill-opacity="1" /><path clip-path="url(#clip760)" d="M278.713 589.37 L321.745 589.37 L321.745 601.083 L279.095 601.083 Q268.974 601.083 263.945 605.03 Q258.916 608.977 258.916 616.87 Q258.916 626.355 264.963 631.83 Q271.011 637.304 281.45 637.304 L321.745 637.304 L321.745 649.081 L250.449 649.081 L250.449 637.304 L261.526 637.304 Q255.096 633.103 251.914 627.437 Q248.731 621.708 248.731 614.26 Q248.731 601.974 256.37 595.672 Q263.945 589.37 278.713 589.37 Z" fill="#000000" fill-rule="nonzero" fill-opacity="1" /><path clip-path="url(#clip760)" d="M305.576 564.353 L305.576 550.921 L321.745 550.921 L321.745 564.353 L305.576 564.353 Z" fill="#000000" fill-rule="nonzero" fill-opacity="1" /><path clip-path="url(#clip760)" d="M310.924 470.395 L310.924 425.517 L321.745 425.517 L321.745 485.864 L310.924 485.864 Q303.348 478.543 290.617 465.939 Q277.822 453.271 274.13 450.025 Q267.191 443.85 262.417 441.431 Q257.579 438.949 252.932 438.949 Q245.357 438.949 240.583 444.296 Q235.808 449.579 235.808 458.109 Q235.808 464.157 237.909 470.904 Q240.01 477.588 244.275 485.227 L231.289 485.227 Q228.169 477.461 226.578 470.713 Q224.987 463.966 224.987 458.364 Q224.987 443.596 232.371 434.811 Q239.755 426.026 252.104 426.026 Q257.961 426.026 263.244 428.254 Q268.464 430.419 275.594 436.211 Q277.44 437.803 286.288 446.333 Q295.073 454.863 310.924 470.395 Z" fill="#000000" fill-rule="nonzero" fill-opacity="1" /><polyline clip-path="url(#clip762)" style="stroke:#008000; stroke-linecap:round; stroke-linejoin:round; stroke-width:8; stroke-opacity:1; fill:none" points="726.443,127.862 844.372,187.26 962.301,392.855 1080.23,454.518 1198.16,502.283 1316.09,640.886 1434.02,809.68 1551.95,894.279 1669.87,998.587 1787.8,1002.19 1905.73,1017.43 2023.66,1131.47 2141.59,1151.8 2259.52,1132.73 "/>
<circle clip-path="url(#clip762)" cx="726.443" cy="127.862" r="14.4" fill="#008000" fill-rule="evenodd" fill-opacity="1" stroke="#000000" stroke-opacity="1" stroke-width="6.4"/>
<circle clip-path="url(#clip762)" cx="844.372" cy="187.26" r="14.4" fill="#008000" fill-rule="evenodd" fill-opacity="1" stroke="#000000" stroke-opacity="1" stroke-width="6.4"/>
<circle clip-path="url(#clip762)" cx="962.301" cy="392.855" r="14.4" fill="#008000" fill-rule="evenodd" fill-opacity="1" stroke="#000000" stroke-opacity="1" stroke-width="6.4"/>
<circle clip-path="url(#clip762)" cx="1080.23" cy="454.518" r="14.4" fill="#008000" fill-rule="evenodd" fill-opacity="1" stroke="#000000" stroke-opacity="1" stroke-width="6.4"/>
<circle clip-path="url(#clip762)" cx="1198.16" cy="502.283" r="14.4" fill="#008000" fill-rule="evenodd" fill-opacity="1" stroke="#000000" stroke-opacity="1" stroke-width="6.4"/>
<circle clip-path="url(#clip762)" cx="1316.09" cy="640.886" r="14.4" fill="#008000" fill-rule="evenodd" fill-opacity="1" stroke="#000000" stroke-opacity="1" stroke-width="6.4"/>
<circle clip-path="url(#clip762)" cx="1434.02" cy="809.68" r="14.4" fill="#008000" fill-rule="evenodd" fill-opacity="1" stroke="#000000" stroke-opacity="1" stroke-width="6.4"/>
<circle clip-path="url(#clip762)" cx="1551.95" cy="894.279" r="14.4" fill="#008000" fill-rule="evenodd" fill-opacity="1" stroke="#000000" stroke-opacity="1" stroke-width="6.4"/>
<circle clip-path="url(#clip762)" cx="1669.87" cy="998.587" r="14.4" fill="#008000" fill-rule="evenodd" fill-opacity="1" stroke="#000000" stroke-opacity="1" stroke-width="6.4"/>
<circle clip-path="url(#clip762)" cx="1787.8" cy="1002.19" r="14.4" fill="#008000" fill-rule="evenodd" fill-opacity="1" stroke="#000000" stroke-opacity="1" stroke-width="6.4"/>
<circle clip-path="url(#clip762)" cx="1905.73" cy="1017.43" r="14.4" fill="#008000" fill-rule="evenodd" fill-opacity="1" stroke="#000000" stroke-opacity="1" stroke-width="6.4"/>
<circle clip-path="url(#clip762)" cx="2023.66" cy="1131.47" r="14.4" fill="#008000" fill-rule="evenodd" fill-opacity="1" stroke="#000000" stroke-opacity="1" stroke-width="6.4"/>
<circle clip-path="url(#clip762)" cx="2141.59" cy="1151.8" r="14.4" fill="#008000" fill-rule="evenodd" fill-opacity="1" stroke="#000000" stroke-opacity="1" stroke-width="6.4"/>
<circle clip-path="url(#clip762)" cx="2259.52" cy="1132.73" r="14.4" fill="#008000" fill-rule="evenodd" fill-opacity="1" stroke="#000000" stroke-opacity="1" stroke-width="6.4"/>
<polyline clip-path="url(#clip762)" style="stroke:#00008b; stroke-linecap:round; stroke-linejoin:round; stroke-width:8; stroke-opacity:1; fill:none" points="726.443,168.454 844.372,362.774 962.301,503.301 1080.23,615.232 1198.16,712.162 1316.09,795.217 1434.02,867.101 1551.95,929.384 1669.87,991.722 1787.8,1041.69 1905.73,1087.05 2023.66,1131.11 2141.59,1169.62 2259.52,1205.73 "/>
<path clip-path="url(#clip762)" d="M726.443 202.458 L844.372 397.631 L962.301 539.839 L1080.23 648.494 L1198.16 746.525 L1316.09 830.228 L1434.02 905.045 L1551.95 967.335 L1669.87 1027.66 L1787.8 1076.02 L1905.73 1122.3 L2023.66 1166.52 L2141.59 1207.83 L2259.52 1240.32 L2259.52 1170.74 L2141.59 1132.07 L2023.66 1093.82 L1905.73 1052.94 L1787.8 1006.21 L1669.87 956.685 L1551.95 891.923 L1434.02 831.727 L1316.09 759.864 L1198.16 676.987 L1080.23 583.283 L962.301 468.188 L844.372 327.699 L726.443 132.23  Z" fill="#0000ff" fill-rule="evenodd" fill-opacity="0.1"/>
<polyline clip-path="url(#clip762)" style="stroke:#0000ff; stroke-linecap:round; stroke-linejoin:round; stroke-width:0; stroke-opacity:0.1; fill:none" points="726.443,202.458 844.372,397.631 962.301,539.839 1080.23,648.494 1198.16,746.525 1316.09,830.228 1434.02,905.045 1551.95,967.335 1669.87,1027.66 1787.8,1076.02 1905.73,1122.3 2023.66,1166.52 2141.59,1207.83 2259.52,1240.32 "/>
</svg>
