<?xml version="1.0" encoding="utf-8"?>
<svg xmlns="http://www.w3.org/2000/svg" xmlns:xlink="http://www.w3.org/1999/xlink" width="600" height="400" viewBox="0 0 2400 1600">
<defs>
  <clipPath id="clip960">
    <rect x="0" y="0" width="2400" height="1600"/>
  </clipPath>
</defs>
<path clip-path="url(#clip960)" d="M0 1600 L2400 1600 L2400 0 L0 0  Z" fill="#ffffff" fill-rule="evenodd" fill-opacity="1"/>
<defs>
  <clipPath id="clip961">
    <rect x="480" y="0" width="1681" height="1600"/>
  </clipPath>
</defs>
<path clip-path="url(#clip960)" d="M673.506 1273.7 L2305.51 1273.7 L2305.51 94.4882 L673.506 94.4882  Z" fill="#ffffff" fill-rule="evenodd" fill-opacity="1"/>
<defs>
  <clipPath id="clip962">
    <rect x="673" y="94" width="1633" height="1180"/>
  </clipPath>
</defs>
<polyline clip-path="url(#clip962)" style="stroke:#000000; stroke-linecap:round; stroke-linejoin:round; stroke-width:4; stroke-opacity:0.1; fill:none" points="719.695,1273.7 719.695,94.4882 "/>
<polyline clip-path="url(#clip962)" style="stroke:#000000; stroke-linecap:round; stroke-linejoin:round; stroke-width:4; stroke-opacity:0.1; fill:none" points="956.561,1273.7 956.561,94.4882 "/>
<polyline clip-path="url(#clip962)" style="stroke:#000000; stroke-linecap:round; stroke-linejoin:round; stroke-width:4; stroke-opacity:0.1; fill:none" points="1193.43,1273.7 1193.43,94.4882 "/>
<polyline clip-path="url(#clip962)" style="stroke:#000000; stroke-linecap:round; stroke-linejoin:round; stroke-width:4; stroke-opacity:0.1; fill:none" points="1430.29,1273.7 1430.29,94.4882 "/>
<polyline clip-path="url(#clip962)" style="stroke:#000000; stroke-linecap:round; stroke-linejoin:round; stroke-width:4; stroke-opacity:0.1; fill:none" points="1667.16,1273.7 1667.16,94.4882 "/>
<polyline clip-path="url(#clip962)" style="stroke:#000000; stroke-linecap:round; stroke-linejoin:round; stroke-width:4; stroke-opacity:0.1; fill:none" points="1904.02,1273.7 1904.02,94.4882 "/>
<polyline clip-path="url(#clip962)" style="stroke:#000000; stroke-linecap:round; stroke-linejoin:round; stroke-width:4; stroke-opacity:0.1; fill:none" points="2140.89,1273.7 2140.89,94.4882 "/>
<polyline clip-path="url(#clip960)" style="stroke:#000000; stroke-linecap:round; stroke-linejoin:round; stroke-width:8; stroke-opacity:1; fill:none" points="673.506,1273.7 2305.51,1273.7 "/>
<polyline clip-path="url(#clip960)" style="stroke:#000000; stroke-linecap:round; stroke-linejoin:round; stroke-width:8; stroke-opacity:1; fill:none" points="719.695,1273.7 719.695,1254.8 "/>
<polyline clip-path="url(#clip960)" style="stroke:#000000; stroke-linecap:round; stroke-linejoin:round; stroke-width:8; stroke-opacity:1; fill:none" points="956.561,1273.7 956.561,1254.8 "/>
<polyline clip-path="url(#clip960)" style="stroke:#000000; stroke-linecap:round; stroke-linejoin:round; stroke-width:8; stroke-opacity:1; fill:none" points="1193.43,1273.7 1193.43,1254.8 "/>
<polyline clip-path="url(#clip960)" style="stroke:#000000; stroke-linecap:round; stroke-linejoin:round; stroke-width:8; stroke-opacity:1; fill:none" points="1430.29,1273.7 1430.29,1254.8 "/>
<polyline clip-path="url(#clip960)" style="stroke:#000000; stroke-linecap:round; stroke-linejoin:round; stroke-width:8; stroke-opacity:1; fill:none" points="1667.16,1273.7 1667.16,1254.8 "/>
<polyline clip-path="url(#clip960)" style="stroke:#000000; stroke-linecap:round; stroke-linejoin:round; stroke-width:8; stroke-opacity:1; fill:none" points="1904.02,1273.7 1904.02,1254.8 "/>
<polyline clip-path="url(#clip960)" style="stroke:#000000; stroke-linecap:round; stroke-linejoin:round; stroke-width:8; stroke-opacity:1; fill:none" points="2140.89,1273.7 2140.89,1254.8 "/>
<path clip-path="url(#clip960)" d="M674.464 1316.33 Q667.241 1316.33 663.584 1323.46 Q659.973 1330.55 659.973 1344.81 Q659.973 1359.02 663.584 1366.15 Q667.241 1373.23 674.464 1373.23 Q681.732 1373.23 685.343 1366.15 Q689.001 1359.02 689.001 1344.81 Q689.001 1330.55 685.343 1323.46 Q681.732 1316.33 674.464 1316.33 M674.464 1308.93 Q686.084 1308.93 692.195 1318.14 Q698.352 1327.31 698.352 1344.81 Q698.352 1362.26 692.195 1371.47 Q686.084 1380.64 674.464 1380.64 Q662.843 1380.64 656.686 1371.47 Q650.575 1362.26 650.575 1344.81 Q650.575 1327.31 656.686 1318.14 Q662.843 1308.93 674.464 1308.93 Z" fill="#000000" fill-rule="nonzero" fill-opacity="1" /><path clip-path="url(#clip960)" d="M714.787 1367.54 L724.556 1367.54 L724.556 1379.3 L714.787 1379.3 L714.787 1367.54 Z" fill="#000000" fill-rule="nonzero" fill-opacity="1" /><path clip-path="url(#clip960)" d="M764.926 1316.33 Q757.704 1316.33 754.046 1323.46 Q750.435 1330.55 750.435 1344.81 Q750.435 1359.02 754.046 1366.15 Q757.704 1373.23 764.926 1373.23 Q772.195 1373.23 775.806 1366.15 Q779.463 1359.02 779.463 1344.81 Q779.463 1330.55 775.806 1323.46 Q772.195 1316.33 764.926 1316.33 M764.926 1308.93 Q776.546 1308.93 782.657 1318.14 Q788.815 1327.31 788.815 1344.81 Q788.815 1362.26 782.657 1371.47 Q776.546 1380.64 764.926 1380.64 Q753.306 1380.64 747.148 1371.47 Q741.037 1362.26 741.037 1344.81 Q741.037 1327.31 747.148 1318.14 Q753.306 1308.93 764.926 1308.93 Z" fill="#000000" fill-rule="nonzero" fill-opacity="1" /><path clip-path="url(#clip960)" d="M912.927 1316.33 Q905.704 1316.33 902.047 1323.46 Q898.436 1330.55 898.436 1344.81 Q898.436 1359.02 902.047 1366.15 Q905.704 1373.23 912.927 1373.23 Q920.195 1373.23 923.806 1366.15 Q927.464 1359.02 927.464 1344.81 Q927.464 1330.55 923.806 1323.46 Q920.195 1316.33 912.927 1316.33 M912.927 1308.93 Q924.547 1308.93 930.658 1318.14 Q936.815 1327.31 936.815 1344.81 Q936.815 1362.26 930.658 1371.47 Q924.547 1380.64 912.927 1380.64 Q901.306 1380.64 895.149 1371.47 Q889.038 1362.26 889.038 1344.81 Q889.038 1327.31 895.149 1318.14 Q901.306 1308.93 912.927 1308.93 Z" fill="#000000" fill-rule="nonzero" fill-opacity="1" /><path clip-path="url(#clip960)" d="M953.251 1367.54 L963.019 1367.54 L963.019 1379.3 L953.251 1379.3 L953.251 1367.54 Z" fill="#000000" fill-rule="nonzero" fill-opacity="1" /><path clip-path="url(#clip960)" d="M991.445 1371.43 L1024.08 1371.43 L1024.08 1379.3 L980.195 1379.3 L980.195 1371.43 Q985.519 1365.92 994.685 1356.66 Q1003.9 1347.35 1006.26 1344.67 Q1010.75 1339.62 1012.51 1336.15 Q1014.32 1332.63 1014.32 1329.25 Q1014.32 1323.74 1010.43 1320.27 Q1006.58 1316.8 1000.38 1316.8 Q995.982 1316.8 991.074 1318.32 Q986.213 1319.85 980.658 1322.95 L980.658 1313.51 Q986.306 1311.24 991.213 1310.08 Q996.121 1308.93 1000.19 1308.93 Q1010.94 1308.93 1017.32 1314.3 Q1023.71 1319.67 1023.71 1328.65 Q1023.71 1332.91 1022.09 1336.75 Q1020.52 1340.55 1016.31 1345.73 Q1015.15 1347.07 1008.94 1353.51 Q1002.74 1359.9 991.445 1371.43 Z" fill="#000000" fill-rule="nonzero" fill-opacity="1" /><path clip-path="url(#clip960)" d="M1147.71 1316.33 Q1140.49 1316.33 1136.83 1323.46 Q1133.22 1330.55 1133.22 1344.81 Q1133.22 1359.02 1136.83 1366.15 Q1140.49 1373.23 1147.71 1373.23 Q1154.98 1373.23 1158.59 1366.15 Q1162.25 1359.02 1162.25 1344.81 Q1162.25 1330.55 1158.59 1323.46 Q1154.98 1316.33 1147.71 1316.33 M1147.71 1308.93 Q1159.33 1308.93 1165.44 1318.14 Q1171.6 1327.31 1171.6 1344.81 Q1171.6 1362.26 1165.44 1371.47 Q1159.33 1380.64 1147.71 1380.64 Q1136.09 1380.64 1129.93 1371.47 Q1123.82 1362.26 1123.82 1344.81 Q1123.82 1327.31 1129.93 1318.14 Q1136.09 1308.93 1147.71 1308.93 Z" fill="#000000" fill-rule="nonzero" fill-opacity="1" /><path clip-path="url(#clip960)" d="M1188.03 1367.54 L1197.8 1367.54 L1197.8 1379.3 L1188.03 1379.3 L1188.03 1367.54 Z" fill="#000000" fill-rule="nonzero" fill-opacity="1" /><path clip-path="url(#clip960)" d="M1243.87 1318.32 L1220.26 1355.22 L1243.87 1355.22 L1243.87 1318.32 M1241.41 1310.18 L1253.17 1310.18 L1253.17 1355.22 L1263.03 1355.22 L1263.03 1363 L1253.17 1363 L1253.17 1379.3 L1243.87 1379.3 L1243.87 1363 L1212.66 1363 L1212.66 1353.97 L1241.41 1310.18 Z" fill="#000000" fill-rule="nonzero" fill-opacity="1" /><path clip-path="url(#clip960)" d="M1384.9 1316.33 Q1377.68 1316.33 1374.02 1323.46 Q1370.41 1330.55 1370.41 1344.81 Q1370.41 1359.02 1374.02 1366.15 Q1377.68 1373.23 1384.9 1373.23 Q1392.17 1373.23 1395.78 1366.15 Q1399.44 1359.02 1399.44 1344.81 Q1399.44 1330.55 1395.78 1323.46 Q1392.17 1316.33 1384.9 1316.33 M1384.9 1308.93 Q1396.52 1308.93 1402.63 1318.14 Q1408.79 1327.31 1408.79 1344.81 Q1408.79 1362.26 1402.63 1371.47 Q1396.52 1380.64 1384.9 1380.64 Q1373.28 1380.64 1367.12 1371.47 Q1361.01 1362.26 1361.01 1344.81 Q1361.01 1327.31 1367.12 1318.14 Q1373.28 1308.93 1384.9 1308.93 Z" fill="#000000" fill-rule="nonzero" fill-opacity="1" /><path clip-path="url(#clip960)" d="M1425.22 1367.54 L1434.99 1367.54 L1434.99 1379.3 L1425.22 1379.3 L1425.22 1367.54 Z" fill="#000000" fill-rule="nonzero" fill-opacity="1" /><path clip-path="url(#clip960)" d="M1476.52 1341.01 Q1470.22 1341.01 1466.52 1345.31 Q1462.86 1349.62 1462.86 1357.12 Q1462.86 1364.57 1466.52 1368.93 Q1470.22 1373.23 1476.52 1373.23 Q1482.82 1373.23 1486.47 1368.93 Q1490.18 1364.57 1490.18 1357.12 Q1490.18 1349.62 1486.47 1345.31 Q1482.82 1341.01 1476.52 1341.01 M1495.08 1311.7 L1495.08 1320.22 Q1491.57 1318.56 1487.95 1317.68 Q1484.39 1316.8 1480.87 1316.8 Q1471.61 1316.8 1466.7 1323.05 Q1461.84 1329.3 1461.15 1341.93 Q1463.88 1337.91 1468 1335.78 Q1472.12 1333.6 1477.07 1333.6 Q1487.49 1333.6 1493.51 1339.94 Q1499.57 1346.24 1499.57 1357.12 Q1499.57 1367.77 1493.28 1374.2 Q1486.98 1380.64 1476.52 1380.64 Q1464.53 1380.64 1458.19 1371.47 Q1451.84 1362.26 1451.84 1344.81 Q1451.84 1328.42 1459.62 1318.69 Q1467.4 1308.93 1480.5 1308.93 Q1484.02 1308.93 1487.58 1309.62 Q1491.19 1310.31 1495.08 1311.7 Z" fill="#000000" fill-rule="nonzero" fill-opacity="1" /><path clip-path="url(#clip960)" d="M1622.02 1316.33 Q1614.8 1316.33 1611.14 1323.46 Q1607.53 1330.55 1607.53 1344.81 Q1607.53 1359.02 1611.14 1366.15 Q1614.8 1373.23 1622.02 1373.23 Q1629.29 1373.23 1632.9 1366.15 Q1636.56 1359.02 1636.56 1344.81 Q1636.56 1330.55 1632.9 1323.46 Q1629.29 1316.33 1622.02 1316.33 M1622.02 1308.93 Q1633.64 1308.93 1639.75 1318.14 Q1645.91 1327.31 1645.91 1344.81 Q1645.91 1362.26 1639.75 1371.47 Q1633.64 1380.64 1622.02 1380.64 Q1610.4 1380.64 1604.24 1371.47 Q1598.13 1362.26 1598.13 1344.81 Q1598.13 1327.31 1604.24 1318.14 Q1610.4 1308.93 1622.02 1308.93 Z" fill="#000000" fill-rule="nonzero" fill-opacity="1" /><path clip-path="url(#clip960)" d="M1662.34 1367.54 L1672.11 1367.54 L1672.11 1379.3 L1662.34 1379.3 L1662.34 1367.54 Z" fill="#000000" fill-rule="nonzero" fill-opacity="1" /><path clip-path="url(#clip960)" d="M1712.48 1346.47 Q1705.82 1346.47 1701.97 1350.04 Q1698.18 1353.6 1698.18 1359.85 Q1698.18 1366.1 1701.97 1369.67 Q1705.82 1373.23 1712.48 1373.23 Q1719.15 1373.23 1722.99 1369.67 Q1726.83 1366.06 1726.83 1359.85 Q1726.83 1353.6 1722.99 1350.04 Q1719.2 1346.47 1712.48 1346.47 M1703.13 1342.49 Q1697.11 1341.01 1693.73 1336.89 Q1690.4 1332.77 1690.4 1326.84 Q1690.4 1318.56 1696.28 1313.74 Q1702.2 1308.93 1712.48 1308.93 Q1722.81 1308.93 1728.69 1313.74 Q1734.57 1318.56 1734.57 1326.84 Q1734.57 1332.77 1731.19 1336.89 Q1727.85 1341.01 1721.88 1342.49 Q1728.64 1344.06 1732.39 1348.65 Q1736.19 1353.23 1736.19 1359.85 Q1736.19 1369.9 1730.03 1375.27 Q1723.92 1380.64 1712.48 1380.64 Q1701.05 1380.64 1694.89 1375.27 Q1688.78 1369.9 1688.78 1359.85 Q1688.78 1353.23 1692.57 1348.65 Q1696.37 1344.06 1703.13 1342.49 M1699.7 1327.72 Q1699.7 1333.09 1703.04 1336.1 Q1706.42 1339.11 1712.48 1339.11 Q1718.5 1339.11 1721.88 1336.1 Q1725.31 1333.09 1725.31 1327.72 Q1725.31 1322.35 1721.88 1319.34 Q1718.5 1316.33 1712.48 1316.33 Q1706.42 1316.33 1703.04 1319.34 Q1699.7 1322.35 1699.7 1327.72 Z" fill="#000000" fill-rule="nonzero" fill-opacity="1" /><path clip-path="url(#clip960)" d="M1838.33 1371.43 L1853.61 1371.43 L1853.61 1318.69 L1836.99 1322.03 L1836.99 1313.51 L1853.52 1310.18 L1862.87 1310.18 L1862.87 1371.43 L1878.14 1371.43 L1878.14 1379.3 L1838.33 1379.3 L1838.33 1371.43 Z" fill="#000000" fill-rule="nonzero" fill-opacity="1" /><path clip-path="url(#clip960)" d="M1897.03 1367.54 L1906.8 1367.54 L1906.8 1379.3 L1897.03 1379.3 L1897.03 1367.54 Z" fill="#000000" fill-rule="nonzero" fill-opacity="1" /><path clip-path="url(#clip960)" d="M1947.17 1316.33 Q1939.95 1316.33 1936.29 1323.46 Q1932.68 1330.55 1932.68 1344.81 Q1932.68 1359.02 1936.29 1366.15 Q1939.95 1373.23 1947.17 1373.23 Q1954.44 1373.23 1958.05 1366.15 Q1961.71 1359.02 1961.71 1344.81 Q1961.71 1330.55 1958.05 1323.46 Q1954.44 1316.33 1947.17 1316.33 M1947.17 1308.93 Q1958.79 1308.93 1964.9 1318.14 Q1971.06 1327.31 1971.06 1344.81 Q1971.06 1362.26 1964.9 1371.47 Q1958.79 1380.64 1947.17 1380.64 Q1935.55 1380.64 1929.39 1371.47 Q1923.28 1362.26 1923.28 1344.81 Q1923.28 1327.31 1929.39 1318.14 Q1935.55 1308.93 1947.17 1308.93 Z" fill="#000000" fill-rule="nonzero" fill-opacity="1" /><path clip-path="url(#clip960)" d="M2076.79 1371.43 L2092.07 1371.43 L2092.07 1318.69 L2075.45 1322.03 L2075.45 1313.51 L2091.98 1310.18 L2101.33 1310.18 L2101.33 1371.43 L2116.61 1371.43 L2116.61 1379.3 L2076.79 1379.3 L2076.79 1371.43 Z" fill="#000000" fill-rule="nonzero" fill-opacity="1" /><path clip-path="url(#clip960)" d="M2135.5 1367.54 L2145.27 1367.54 L2145.27 1379.3 L2135.5 1379.3 L2135.5 1367.54 Z" fill="#000000" fill-rule="nonzero" fill-opacity="1" /><path clip-path="url(#clip960)" d="M2173.69 1371.43 L2206.33 1371.43 L2206.33 1379.3 L2162.44 1379.3 L2162.44 1371.43 Q2167.76 1365.92 2176.93 1356.66 Q2186.14 1347.35 2188.51 1344.67 Q2193 1339.62 2194.76 1336.15 Q2196.56 1332.63 2196.56 1329.25 Q2196.56 1323.74 2192.67 1320.27 Q2188.83 1316.8 2182.63 1316.8 Q2178.23 1316.8 2173.32 1318.32 Q2168.46 1319.85 2162.9 1322.95 L2162.9 1313.51 Q2168.55 1311.24 2173.46 1310.08 Q2178.37 1308.93 2182.44 1308.93 Q2193.18 1308.93 2199.57 1314.3 Q2205.96 1319.67 2205.96 1328.65 Q2205.96 1332.91 2204.34 1336.75 Q2202.76 1340.55 2198.55 1345.73 Q2197.39 1347.07 2191.19 1353.51 Q2184.99 1359.9 2173.69 1371.43 Z" fill="#000000" fill-rule="nonzero" fill-opacity="1" /><path clip-path="url(#clip960)" d="M1375.05 1484.39 L1375.05 1527.42 L1363.34 1527.42 L1363.34 1484.77 Q1363.34 1474.65 1359.39 1469.62 Q1355.45 1464.59 1347.55 1464.59 Q1338.07 1464.59 1332.59 1470.64 Q1327.12 1476.69 1327.12 1487.13 L1327.12 1527.42 L1315.34 1527.42 L1315.34 1428.37 L1327.12 1428.37 L1327.12 1467.2 Q1331.32 1460.77 1336.99 1457.59 Q1342.72 1454.41 1350.16 1454.41 Q1362.45 1454.41 1368.75 1462.05 Q1375.05 1469.62 1375.05 1484.39 Z" fill="#000000" fill-rule="nonzero" fill-opacity="1" /><path clip-path="url(#clip960)" d="M1426.04 1464.34 Q1416.62 1464.34 1411.15 1471.72 Q1405.67 1479.04 1405.67 1491.84 Q1405.67 1504.63 1411.08 1512.02 Q1416.56 1519.34 1426.04 1519.34 Q1435.4 1519.34 1440.87 1511.96 Q1446.35 1504.57 1446.35 1491.84 Q1446.35 1479.17 1440.87 1471.79 Q1435.4 1464.34 1426.04 1464.34 M1426.04 1454.41 Q1441.32 1454.41 1450.04 1464.34 Q1458.76 1474.27 1458.76 1491.84 Q1458.76 1509.35 1450.04 1519.34 Q1441.32 1529.27 1426.04 1529.27 Q1410.7 1529.27 1401.98 1519.34 Q1393.32 1509.35 1393.32 1491.84 Q1393.32 1474.27 1401.98 1464.34 Q1410.7 1454.41 1426.04 1454.41 Z" fill="#000000" fill-rule="nonzero" fill-opacity="1" /><path clip-path="url(#clip960)" d="M1476.97 1499.29 L1476.97 1456.13 L1488.68 1456.13 L1488.68 1498.84 Q1488.68 1508.96 1492.63 1514.06 Q1496.57 1519.08 1504.47 1519.08 Q1513.95 1519.08 1519.43 1513.04 Q1524.97 1506.99 1524.97 1496.55 L1524.97 1456.13 L1536.68 1456.13 L1536.68 1527.42 L1524.97 1527.42 L1524.97 1516.47 Q1520.7 1522.97 1515.04 1526.15 Q1509.43 1529.27 1501.99 1529.27 Q1489.7 1529.27 1483.33 1521.63 Q1476.97 1513.99 1476.97 1499.29 M1506.44 1454.41 L1506.44 1454.41 Z" fill="#000000" fill-rule="nonzero" fill-opacity="1" /><path clip-path="url(#clip960)" d="M1602.12 1467.08 Q1600.14 1465.93 1597.79 1465.42 Q1595.5 1464.85 1592.7 1464.85 Q1582.77 1464.85 1577.42 1471.34 Q1572.14 1477.77 1572.14 1489.87 L1572.14 1527.42 L1560.36 1527.42 L1560.36 1456.13 L1572.14 1456.13 L1572.14 1467.2 Q1575.83 1460.71 1581.75 1457.59 Q1587.67 1454.41 1596.13 1454.41 Q1597.34 1454.41 1598.81 1454.6 Q1600.27 1454.73 1602.05 1455.05 L1602.12 1467.08 Z" fill="#000000" fill-rule="nonzero" fill-opacity="1" /><path clip-path="url(#clip960)" d="M1659.86 1458.23 L1659.86 1469.3 Q1654.89 1466.76 1649.54 1465.49 Q1644.2 1464.21 1638.47 1464.21 Q1629.75 1464.21 1625.35 1466.89 Q1621.02 1469.56 1621.02 1474.91 Q1621.02 1478.98 1624.14 1481.34 Q1627.26 1483.63 1636.68 1485.73 L1640.69 1486.62 Q1653.17 1489.29 1658.39 1494.19 Q1663.67 1499.03 1663.67 1507.75 Q1663.67 1517.68 1655.78 1523.48 Q1647.95 1529.27 1634.2 1529.27 Q1628.47 1529.27 1622.23 1528.12 Q1616.06 1527.04 1609.18 1524.81 L1609.18 1512.72 Q1615.68 1516.09 1621.98 1517.81 Q1628.28 1519.47 1634.46 1519.47 Q1642.73 1519.47 1647.19 1516.67 Q1651.64 1513.8 1651.64 1508.64 Q1651.64 1503.87 1648.4 1501.32 Q1645.21 1498.78 1634.33 1496.42 L1630.25 1495.47 Q1619.37 1493.18 1614.53 1488.47 Q1609.69 1483.69 1609.69 1475.42 Q1609.69 1465.36 1616.82 1459.88 Q1623.95 1454.41 1637.07 1454.41 Q1643.56 1454.41 1649.29 1455.36 Q1655.02 1456.32 1659.86 1458.23 Z" fill="#000000" fill-rule="nonzero" fill-opacity="1" /><polyline clip-path="url(#clip962)" style="stroke:#000000; stroke-linecap:round; stroke-linejoin:round; stroke-width:4; stroke-opacity:0.1; fill:none" points="673.506,1110.96 2305.51,1110.96 "/>
<polyline clip-path="url(#clip962)" style="stroke:#000000; stroke-linecap:round; stroke-linejoin:round; stroke-width:4; stroke-opacity:0.1; fill:none" points="673.506,931.053 2305.51,931.053 "/>
<polyline clip-path="url(#clip962)" style="stroke:#000000; stroke-linecap:round; stroke-linejoin:round; stroke-width:4; stroke-opacity:0.1; fill:none" points="673.506,751.147 2305.51,751.147 "/>
<polyline clip-path="url(#clip962)" style="stroke:#000000; stroke-linecap:round; stroke-linejoin:round; stroke-width:4; stroke-opacity:0.1; fill:none" points="673.506,571.241 2305.51,571.241 "/>
<polyline clip-path="url(#clip962)" style="stroke:#000000; stroke-linecap:round; stroke-linejoin:round; stroke-width:4; stroke-opacity:0.1; fill:none" points="673.506,391.335 2305.51,391.335 "/>
<polyline clip-path="url(#clip962)" style="stroke:#000000; stroke-linecap:round; stroke-linejoin:round; stroke-width:4; stroke-opacity:0.1; fill:none" points="673.506,211.43 2305.51,211.43 "/>
<polyline clip-path="url(#clip960)" style="stroke:#000000; stroke-linecap:round; stroke-linejoin:round; stroke-width:8; stroke-opacity:1; fill:none" points="673.506,1273.7 673.506,94.4882 "/>
<polyline clip-path="url(#clip960)" style="stroke:#000000; stroke-linecap:round; stroke-linejoin:round; stroke-width:8; stroke-opacity:1; fill:none" points="673.506,1110.96 692.404,1110.96 "/>
<polyline clip-path="url(#clip960)" style="stroke:#000000; stroke-linecap:round; stroke-linejoin:round; stroke-width:8; stroke-opacity:1; fill:none" points="673.506,931.053 692.404,931.053 "/>
<polyline clip-path="url(#clip960)" style="stroke:#000000; stroke-linecap:round; stroke-linejoin:round; stroke-width:8; stroke-opacity:1; fill:none" points="673.506,751.147 692.404,751.147 "/>
<polyline clip-path="url(#clip960)" style="stroke:#000000; stroke-linecap:round; stroke-linejoin:round; stroke-width:8; stroke-opacity:1; fill:none" points="673.506,571.241 692.404,571.241 "/>
<polyline clip-path="url(#clip960)" style="stroke:#000000; stroke-linecap:round; stroke-linejoin:round; stroke-width:8; stroke-opacity:1; fill:none" points="673.506,391.335 692.404,391.335 "/>
<polyline clip-path="url(#clip960)" style="stroke:#000000; stroke-linecap:round; stroke-linejoin:round; stroke-width:8; stroke-opacity:1; fill:none" points="673.506,211.43 692.404,211.43 "/>
<path clip-path="url(#clip960)" d="M384.128 1137.65 L399.405 1137.65 L399.405 1084.92 L382.785 1088.25 L382.785 1079.73 L399.313 1076.4 L408.665 1076.4 L408.665 1137.65 L423.942 1137.65 L423.942 1145.52 L384.128 1145.52 L384.128 1137.65 Z" fill="#000000" fill-rule="nonzero" fill-opacity="1" /><path clip-path="url(#clip960)" d="M462.831 1082.56 Q455.609 1082.56 451.951 1089.69 Q448.34 1096.77 448.34 1111.03 Q448.34 1125.24 451.951 1132.37 Q455.609 1139.45 462.831 1139.45 Q470.099 1139.45 473.711 1132.37 Q477.368 1125.24 477.368 1111.03 Q477.368 1096.77 473.711 1089.69 Q470.099 1082.56 462.831 1082.56 M462.831 1075.15 Q474.451 1075.15 480.562 1084.36 Q486.72 1093.53 486.72 1111.03 Q486.72 1128.48 480.562 1137.69 Q474.451 1146.86 462.831 1146.86 Q451.211 1146.86 445.053 1137.69 Q438.942 1128.48 438.942 1111.03 Q438.942 1093.53 445.053 1084.36 Q451.211 1075.15 462.831 1075.15 Z" fill="#000000" fill-rule="nonzero" fill-opacity="1" /><path clip-path="url(#clip960)" d="M523.155 1082.56 Q515.933 1082.56 512.275 1089.69 Q508.664 1096.77 508.664 1111.03 Q508.664 1125.24 512.275 1132.37 Q515.933 1139.45 523.155 1139.45 Q530.423 1139.45 534.034 1132.37 Q537.692 1125.24 537.692 1111.03 Q537.692 1096.77 534.034 1089.69 Q530.423 1082.56 523.155 1082.56 M523.155 1075.15 Q534.775 1075.15 540.886 1084.36 Q547.043 1093.53 547.043 1111.03 Q547.043 1128.48 540.886 1137.69 Q534.775 1146.86 523.155 1146.86 Q511.534 1146.86 505.377 1137.69 Q499.266 1128.48 499.266 1111.03 Q499.266 1093.53 505.377 1084.36 Q511.534 1075.15 523.155 1075.15 Z" fill="#000000" fill-rule="nonzero" fill-opacity="1" /><path clip-path="url(#clip960)" d="M563.479 1133.76 L573.247 1133.76 L573.247 1145.52 L563.479 1145.52 L563.479 1133.76 Z" fill="#000000" fill-rule="nonzero" fill-opacity="1" /><path clip-path="url(#clip960)" d="M613.617 1082.56 Q606.395 1082.56 602.738 1089.69 Q599.127 1096.77 599.127 1111.03 Q599.127 1125.24 602.738 1132.37 Q606.395 1139.45 613.617 1139.45 Q620.886 1139.45 624.497 1132.37 Q628.154 1125.24 628.154 1111.03 Q628.154 1096.77 624.497 1089.69 Q620.886 1082.56 613.617 1082.56 M613.617 1075.15 Q625.238 1075.15 631.349 1084.36 Q637.506 1093.53 637.506 1111.03 Q637.506 1128.48 631.349 1137.69 Q625.238 1146.86 613.617 1146.86 Q601.997 1146.86 595.84 1137.69 Q589.728 1128.48 589.728 1111.03 Q589.728 1093.53 595.84 1084.36 Q601.997 1075.15 613.617 1075.15 Z" fill="#000000" fill-rule="nonzero" fill-opacity="1" /><path clip-path="url(#clip960)" d="M384.128 957.742 L399.405 957.742 L399.405 905.011 L382.785 908.344 L382.785 899.826 L399.313 896.493 L408.665 896.493 L408.665 957.742 L423.942 957.742 L423.942 965.613 L384.128 965.613 L384.128 957.742 Z" fill="#000000" fill-rule="nonzero" fill-opacity="1" /><path clip-path="url(#clip960)" d="M444.451 957.742 L459.729 957.742 L459.729 905.011 L443.109 908.344 L443.109 899.826 L459.637 896.493 L468.988 896.493 L468.988 957.742 L484.266 957.742 L484.266 965.613 L444.451 965.613 L444.451 957.742 Z" fill="#000000" fill-rule="nonzero" fill-opacity="1" /><path clip-path="url(#clip960)" d="M523.155 902.65 Q515.933 902.65 512.275 909.78 Q508.664 916.863 508.664 931.122 Q508.664 945.335 512.275 952.465 Q515.933 959.548 523.155 959.548 Q530.423 959.548 534.034 952.465 Q537.692 945.335 537.692 931.122 Q537.692 916.863 534.034 909.78 Q530.423 902.65 523.155 902.65 M523.155 895.243 Q534.775 895.243 540.886 904.456 Q547.043 913.622 547.043 931.122 Q547.043 948.576 540.886 957.789 Q534.775 966.955 523.155 966.955 Q511.534 966.955 505.377 957.789 Q499.266 948.576 499.266 931.122 Q499.266 913.622 505.377 904.456 Q511.534 895.243 523.155 895.243 Z" fill="#000000" fill-rule="nonzero" fill-opacity="1" /><path clip-path="url(#clip960)" d="M563.479 953.853 L573.247 953.853 L573.247 965.613 L563.479 965.613 L563.479 953.853 Z" fill="#000000" fill-rule="nonzero" fill-opacity="1" /><path clip-path="url(#clip960)" d="M613.617 902.65 Q606.395 902.65 602.738 909.78 Q599.127 916.863 599.127 931.122 Q599.127 945.335 602.738 952.465 Q606.395 959.548 613.617 959.548 Q620.886 959.548 624.497 952.465 Q628.154 945.335 628.154 931.122 Q628.154 916.863 624.497 909.78 Q620.886 902.65 613.617 902.65 M613.617 895.243 Q625.238 895.243 631.349 904.456 Q637.506 913.622 637.506 931.122 Q637.506 948.576 631.349 957.789 Q625.238 966.955 613.617 966.955 Q601.997 966.955 595.84 957.789 Q589.728 948.576 589.728 931.122 Q589.728 913.622 595.84 904.456 Q601.997 895.243 613.617 895.243 Z" fill="#000000" fill-rule="nonzero" fill-opacity="1" /><path clip-path="url(#clip960)" d="M384.128 777.837 L399.405 777.837 L399.405 725.105 L382.785 728.439 L382.785 719.92 L399.313 716.587 L408.665 716.587 L408.665 777.837 L423.942 777.837 L423.942 785.707 L384.128 785.707 L384.128 777.837 Z" fill="#000000" fill-rule="nonzero" fill-opacity="1" /><path clip-path="url(#clip960)" d="M450.887 777.837 L483.525 777.837 L483.525 785.707 L439.637 785.707 L439.637 777.837 Q444.961 772.327 454.127 763.068 Q463.34 753.763 465.701 751.077 Q470.192 746.031 471.951 742.559 Q473.757 739.04 473.757 735.661 Q473.757 730.152 469.868 726.679 Q466.025 723.207 459.822 723.207 Q455.424 723.207 450.516 724.735 Q445.655 726.263 440.1 729.365 L440.1 719.92 Q445.748 717.652 450.655 716.494 Q455.562 715.337 459.637 715.337 Q470.377 715.337 476.766 720.707 Q483.155 726.078 483.155 735.059 Q483.155 739.318 481.535 743.161 Q479.961 746.957 475.748 752.142 Q474.59 753.485 468.387 759.92 Q462.183 766.309 450.887 777.837 Z" fill="#000000" fill-rule="nonzero" fill-opacity="1" /><path clip-path="url(#clip960)" d="M523.155 722.744 Q515.933 722.744 512.275 729.874 Q508.664 736.957 508.664 751.216 Q508.664 765.429 512.275 772.559 Q515.933 779.642 523.155 779.642 Q530.423 779.642 534.034 772.559 Q537.692 765.429 537.692 751.216 Q537.692 736.957 534.034 729.874 Q530.423 722.744 523.155 722.744 M523.155 715.337 Q534.775 715.337 540.886 724.55 Q547.043 733.716 547.043 751.216 Q547.043 768.67 540.886 777.883 Q534.775 787.049 523.155 787.049 Q511.534 787.049 505.377 777.883 Q499.266 768.67 499.266 751.216 Q499.266 733.716 505.377 724.55 Q511.534 715.337 523.155 715.337 Z" fill="#000000" fill-rule="nonzero" fill-opacity="1" /><path clip-path="url(#clip960)" d="M563.479 773.948 L573.247 773.948 L573.247 785.707 L563.479 785.707 L563.479 773.948 Z" fill="#000000" fill-rule="nonzero" fill-opacity="1" /><path clip-path="url(#clip960)" d="M613.617 722.744 Q606.395 722.744 602.738 729.874 Q599.127 736.957 599.127 751.216 Q599.127 765.429 602.738 772.559 Q606.395 779.642 613.617 779.642 Q620.886 779.642 624.497 772.559 Q628.154 765.429 628.154 751.216 Q628.154 736.957 624.497 729.874 Q620.886 722.744 613.617 722.744 M613.617 715.337 Q625.238 715.337 631.349 724.55 Q637.506 733.716 637.506 751.216 Q637.506 768.67 631.349 777.883 Q625.238 787.049 613.617 787.049 Q601.997 787.049 595.84 777.883 Q589.728 768.67 589.728 751.216 Q589.728 733.716 595.84 724.55 Q601.997 715.337 613.617 715.337 Z" fill="#000000" fill-rule="nonzero" fill-opacity="1" /><path clip-path="url(#clip960)" d="M384.128 597.931 L399.405 597.931 L399.405 545.2 L382.785 548.533 L382.785 540.014 L399.313 536.681 L408.665 536.681 L408.665 597.931 L423.942 597.931 L423.942 605.801 L384.128 605.801 L384.128 597.931 Z" fill="#000000" fill-rule="nonzero" fill-opacity="1" /><path clip-path="url(#clip960)" d="M471.164 568.533 Q477.877 569.968 481.627 574.505 Q485.423 579.042 485.423 585.709 Q485.423 595.94 478.386 601.542 Q471.349 607.144 458.387 607.144 Q454.035 607.144 449.405 606.264 Q444.822 605.431 439.914 603.718 L439.914 594.69 Q443.803 596.959 448.433 598.116 Q453.063 599.273 458.109 599.273 Q466.905 599.273 471.488 595.801 Q476.118 592.329 476.118 585.709 Q476.118 579.598 471.812 576.172 Q467.553 572.699 459.914 572.699 L451.859 572.699 L451.859 565.014 L460.285 565.014 Q467.183 565.014 470.84 562.283 Q474.498 559.505 474.498 554.32 Q474.498 548.996 470.701 546.172 Q466.951 543.301 459.914 543.301 Q456.072 543.301 451.674 544.135 Q447.276 544.968 441.998 546.727 L441.998 538.394 Q447.322 536.913 451.951 536.172 Q456.627 535.431 460.748 535.431 Q471.396 535.431 477.599 540.292 Q483.803 545.107 483.803 553.348 Q483.803 559.088 480.516 563.07 Q477.229 567.005 471.164 568.533 Z" fill="#000000" fill-rule="nonzero" fill-opacity="1" /><path clip-path="url(#clip960)" d="M523.155 542.838 Q515.933 542.838 512.275 549.968 Q508.664 557.051 508.664 571.311 Q508.664 585.523 512.275 592.653 Q515.933 599.736 523.155 599.736 Q530.423 599.736 534.034 592.653 Q537.692 585.523 537.692 571.311 Q537.692 557.051 534.034 549.968 Q530.423 542.838 523.155 542.838 M523.155 535.431 Q534.775 535.431 540.886 544.644 Q547.043 553.811 547.043 571.311 Q547.043 588.764 540.886 597.977 Q534.775 607.144 523.155 607.144 Q511.534 607.144 505.377 597.977 Q499.266 588.764 499.266 571.311 Q499.266 553.811 505.377 544.644 Q511.534 535.431 523.155 535.431 Z" fill="#000000" fill-rule="nonzero" fill-opacity="1" /><path clip-path="url(#clip960)" d="M563.479 594.042 L573.247 594.042 L573.247 605.801 L563.479 605.801 L563.479 594.042 Z" fill="#000000" fill-rule="nonzero" fill-opacity="1" /><path clip-path="url(#clip960)" d="M613.617 542.838 Q606.395 542.838 602.738 549.968 Q599.127 557.051 599.127 571.311 Q599.127 585.523 602.738 592.653 Q606.395 599.736 613.617 599.736 Q620.886 599.736 624.497 592.653 Q628.154 585.523 628.154 571.311 Q628.154 557.051 624.497 549.968 Q620.886 542.838 613.617 542.838 M613.617 535.431 Q625.238 535.431 631.349 544.644 Q637.506 553.811 637.506 571.311 Q637.506 588.764 631.349 597.977 Q625.238 607.144 613.617 607.144 Q601.997 607.144 595.84 597.977 Q589.728 588.764 589.728 571.311 Q589.728 553.811 595.84 544.644 Q601.997 535.431 613.617 535.431 Z" fill="#000000" fill-rule="nonzero" fill-opacity="1" /><path clip-path="url(#clip960)" d="M384.128 418.025 L399.405 418.025 L399.405 365.294 L382.785 368.627 L382.785 360.109 L399.313 356.775 L408.665 356.775 L408.665 418.025 L423.942 418.025 L423.942 425.895 L384.128 425.895 L384.128 418.025 Z" fill="#000000" fill-rule="nonzero" fill-opacity="1" /><path clip-path="url(#clip960)" d="M468.525 364.923 L444.914 401.821 L468.525 401.821 L468.525 364.923 M466.072 356.775 L477.831 356.775 L477.831 401.821 L487.692 401.821 L487.692 409.599 L477.831 409.599 L477.831 425.895 L468.525 425.895 L468.525 409.599 L437.322 409.599 L437.322 400.571 L466.072 356.775 Z" fill="#000000" fill-rule="nonzero" fill-opacity="1" /><path clip-path="url(#clip960)" d="M523.155 362.933 Q515.933 362.933 512.275 370.062 Q508.664 377.146 508.664 391.405 Q508.664 405.618 512.275 412.747 Q515.933 419.831 523.155 419.831 Q530.423 419.831 534.034 412.747 Q537.692 405.618 537.692 391.405 Q537.692 377.146 534.034 370.062 Q530.423 362.933 523.155 362.933 M523.155 355.525 Q534.775 355.525 540.886 364.738 Q547.043 373.905 547.043 391.405 Q547.043 408.858 540.886 418.071 Q534.775 427.238 523.155 427.238 Q511.534 427.238 505.377 418.071 Q499.266 408.858 499.266 391.405 Q499.266 373.905 505.377 364.738 Q511.534 355.525 523.155 355.525 Z" fill="#000000" fill-rule="nonzero" fill-opacity="1" /><path clip-path="url(#clip960)" d="M563.479 414.136 L573.247 414.136 L573.247 425.895 L563.479 425.895 L563.479 414.136 Z" fill="#000000" fill-rule="nonzero" fill-opacity="1" /><path clip-path="url(#clip960)" d="M613.617 362.933 Q606.395 362.933 602.738 370.062 Q599.127 377.146 599.127 391.405 Q599.127 405.618 602.738 412.747 Q606.395 419.831 613.617 419.831 Q620.886 419.831 624.497 412.747 Q628.154 405.618 628.154 391.405 Q628.154 377.146 624.497 370.062 Q620.886 362.933 613.617 362.933 M613.617 355.525 Q625.238 355.525 631.349 364.738 Q637.506 373.905 637.506 391.405 Q637.506 408.858 631.349 418.071 Q625.238 427.238 613.617 427.238 Q601.997 427.238 595.84 418.071 Q589.728 408.858 589.728 391.405 Q589.728 373.905 595.84 364.738 Q601.997 355.525 613.617 355.525 Z" fill="#000000" fill-rule="nonzero" fill-opacity="1" /><path clip-path="url(#clip960)" d="M384.128 238.119 L399.405 238.119 L399.405 185.388 L382.785 188.721 L382.785 180.203 L399.313 176.87 L408.665 176.87 L408.665 238.119 L423.942 238.119 L423.942 245.99 L384.128 245.99 L384.128 238.119 Z" fill="#000000" fill-rule="nonzero" fill-opacity="1" /><path clip-path="url(#clip960)" d="M442.924 176.87 L479.636 176.87 L479.636 184.74 L451.488 184.74 L451.488 201.684 Q453.525 200.99 455.562 200.666 Q457.6 200.295 459.637 200.295 Q471.211 200.295 477.97 206.638 Q484.729 212.98 484.729 223.814 Q484.729 234.971 477.785 241.175 Q470.84 247.332 458.201 247.332 Q453.85 247.332 449.313 246.591 Q444.822 245.851 440.007 244.369 L440.007 234.971 Q444.174 237.24 448.618 238.351 Q453.063 239.462 458.016 239.462 Q466.025 239.462 470.701 235.249 Q475.377 231.036 475.377 223.814 Q475.377 216.592 470.701 212.379 Q466.025 208.166 458.016 208.166 Q454.266 208.166 450.516 208.999 Q446.813 209.832 442.924 211.592 L442.924 176.87 Z" fill="#000000" fill-rule="nonzero" fill-opacity="1" /><path clip-path="url(#clip960)" d="M523.155 183.027 Q515.933 183.027 512.275 190.156 Q508.664 197.24 508.664 211.499 Q508.664 225.712 512.275 232.841 Q515.933 239.925 523.155 239.925 Q530.423 239.925 534.034 232.841 Q537.692 225.712 537.692 211.499 Q537.692 197.24 534.034 190.156 Q530.423 183.027 523.155 183.027 M523.155 175.62 Q534.775 175.62 540.886 184.832 Q547.043 193.999 547.043 211.499 Q547.043 228.953 540.886 238.165 Q534.775 247.332 523.155 247.332 Q511.534 247.332 505.377 238.165 Q499.266 228.953 499.266 211.499 Q499.266 193.999 505.377 184.832 Q511.534 175.62 523.155 175.62 Z" fill="#000000" fill-rule="nonzero" fill-opacity="1" /><path clip-path="url(#clip960)" d="M563.479 234.23 L573.247 234.23 L573.247 245.99 L563.479 245.99 L563.479 234.23 Z" fill="#000000" fill-rule="nonzero" fill-opacity="1" /><path clip-path="url(#clip960)" d="M613.617 183.027 Q606.395 183.027 602.738 190.156 Q599.127 197.24 599.127 211.499 Q599.127 225.712 602.738 232.841 Q606.395 239.925 613.617 239.925 Q620.886 239.925 624.497 232.841 Q628.154 225.712 628.154 211.499 Q628.154 197.24 624.497 190.156 Q620.886 183.027 613.617 183.027 M613.617 175.62 Q625.238 175.62 631.349 184.832 Q637.506 193.999 637.506 211.499 Q637.506 228.953 631.349 238.165 Q625.238 247.332 613.617 247.332 Q601.997 247.332 595.84 238.165 Q589.728 228.953 589.728 211.499 Q589.728 193.999 595.84 184.832 Q601.997 175.62 613.617 175.62 Z" fill="#000000" fill-rule="nonzero" fill-opacity="1" /><path clip-path="url(#clip960)" d="M307.579 931.845 L345.391 931.845 L345.391 943.622 L246.977 943.622 L246.977 931.845 L257.799 931.845 Q251.433 928.153 248.378 922.551 Q245.258 916.886 245.258 909.056 Q245.258 896.07 255.571 887.986 Q265.883 879.837 282.689 879.837 Q299.494 879.837 309.807 887.986 Q320.119 896.07 320.119 909.056 Q320.119 916.886 317.064 922.551 Q313.944 928.153 307.579 931.845 M282.689 891.996 Q269.766 891.996 262.446 897.343 Q255.062 902.627 255.062 911.921 Q255.062 921.215 262.446 926.562 Q269.766 931.845 282.689 931.845 Q295.611 931.845 302.995 926.562 Q310.316 921.215 310.316 911.921 Q310.316 902.627 302.995 897.343 Q295.611 891.996 282.689 891.996 Z" fill="#000000" fill-rule="nonzero" fill-opacity="1" /><path clip-path="url(#clip960)" d="M282.434 828.021 Q282.434 842.216 285.681 847.691 Q288.927 853.165 296.757 853.165 Q302.995 853.165 306.688 849.091 Q310.316 844.953 310.316 837.887 Q310.316 828.148 303.441 822.291 Q296.502 816.371 285.044 816.371 L282.434 816.371 L282.434 828.021 M277.596 804.658 L318.273 804.658 L318.273 816.371 L307.451 816.371 Q313.944 820.382 317.064 826.366 Q320.119 832.349 320.119 841.007 Q320.119 851.956 314.008 858.449 Q307.833 864.878 297.521 864.878 Q285.49 864.878 279.379 856.857 Q273.268 848.773 273.268 832.795 L273.268 816.371 L272.122 816.371 Q264.037 816.371 259.645 821.719 Q255.189 827.002 255.189 836.614 Q255.189 842.725 256.653 848.518 Q258.117 854.311 261.045 859.658 L250.224 859.658 Q247.741 853.229 246.532 847.181 Q245.258 841.134 245.258 835.405 Q245.258 819.936 253.279 812.297 Q261.3 804.658 277.596 804.658 Z" fill="#000000" fill-rule="nonzero" fill-opacity="1" /><path clip-path="url(#clip960)" d="M257.926 739.219 Q256.78 741.192 256.271 743.548 Q255.698 745.839 255.698 748.64 Q255.698 758.571 262.191 763.918 Q268.621 769.201 280.715 769.201 L318.273 769.201 L318.273 780.978 L246.977 780.978 L246.977 769.201 L258.054 769.201 Q251.561 765.509 248.441 759.589 Q245.258 753.669 245.258 745.203 Q245.258 743.993 245.449 742.529 Q245.577 741.065 245.895 739.283 L257.926 739.219 Z" fill="#000000" fill-rule="nonzero" fill-opacity="1" /><path clip-path="url(#clip960)" d="M279.697 668.814 L285.426 668.814 L285.426 722.668 Q297.521 721.904 303.887 715.411 Q310.189 708.855 310.189 697.205 Q310.189 690.458 308.534 684.156 Q306.878 677.79 303.568 671.552 L314.645 671.552 Q317.318 677.854 318.719 684.474 Q320.119 691.094 320.119 697.906 Q320.119 714.966 310.189 724.96 Q300.258 734.89 283.325 734.89 Q265.82 734.89 255.571 725.469 Q245.258 715.984 245.258 699.943 Q245.258 685.556 254.552 677.217 Q263.783 668.814 279.697 668.814 M276.259 680.527 Q266.647 680.654 260.918 685.938 Q255.189 691.158 255.189 699.815 Q255.189 709.618 260.727 715.539 Q266.265 721.395 276.323 722.286 L276.259 680.527 Z" fill="#000000" fill-rule="nonzero" fill-opacity="1" /><path clip-path="url(#clip960)" d="M275.241 590.325 L318.273 590.325 L318.273 602.038 L275.623 602.038 Q265.501 602.038 260.472 605.985 Q255.444 609.931 255.444 617.825 Q255.444 627.31 261.491 632.784 Q267.538 638.259 277.978 638.259 L318.273 638.259 L318.273 650.035 L246.977 650.035 L246.977 638.259 L258.054 638.259 Q251.624 634.058 248.441 628.392 Q245.258 622.663 245.258 615.215 Q245.258 602.929 252.897 596.627 Q260.472 590.325 275.241 590.325 Z" fill="#000000" fill-rule="nonzero" fill-opacity="1" /><path clip-path="url(#clip960)" d="M302.104 565.308 L302.104 551.876 L318.273 551.876 L318.273 565.308 L302.104 565.308 Z" fill="#000000" fill-rule="nonzero" fill-opacity="1" /><path clip-path="url(#clip960)" d="M223.233 485.673 L223.233 424.562 L228.708 424.562 L318.273 459.064 L318.273 472.496 L234.055 440.031 L234.055 485.673 L223.233 485.673 Z" fill="#000000" fill-rule="nonzero" fill-opacity="1" /><polyline clip-path="url(#clip962)" style="stroke:#008000; stroke-linecap:round; stroke-linejoin:round; stroke-width:8; stroke-opacity:1; fill:none" points="719.695,1165.29 838.128,801.48 956.561,747.973 1074.99,417.524 1193.43,503.295 1311.86,197.06 1430.29,281.847 1548.73,333.839 1667.16,127.862 1785.59,192.044 1904.02,143.474 2022.46,201.28 2140.89,429.783 2259.32,211.781 "/>
<circle clip-path="url(#clip962)" cx="719.695" cy="1165.29" r="14.4" fill="#008000" fill-rule="evenodd" fill-opacity="1" stroke="#000000" stroke-opacity="1" stroke-width="6.4"/>
<circle clip-path="url(#clip962)" cx="838.128" cy="801.48" r="14.4" fill="#008000" fill-rule="evenodd" fill-opacity="1" stroke="#000000" stroke-opacity="1" stroke-width="6.4"/>
<circle clip-path="url(#clip962)" cx="956.561" cy="747.973" r="14.4" fill="#008000" fill-rule="evenodd" fill-opacity="1" stroke="#000000" stroke-opacity="1" stroke-width="6.4"/>
<circle clip-path="url(#clip962)" cx="1074.99" cy="417.524" r="14.4" fill="#008000" fill-rule="evenodd" fill-opacity="1" stroke="#000000" stroke-opacity="1" stroke-width="6.4"/>
<circle clip-path="url(#clip962)" cx="1193.43" cy="503.295" r="14.4" fill="#008000" fill-rule="evenodd" fill-opacity="1" stroke="#000000" stroke-opacity="1" stroke-width="6.4"/>
<circle clip-path="url(#clip962)" cx="1311.86" cy="197.06" r="14.4" fill="#008000" fill-rule="evenodd" fill-opacity="1" stroke="#000000" stroke-opacity="1" stroke-width="6.4"/>
<circle clip-path="url(#clip962)" cx="1430.29" cy="281.847" r="14.4" fill="#008000" fill-rule="evenodd" fill-opacity="1" stroke="#000000" stroke-opacity="1" stroke-width="6.4"/>
<circle clip-path="url(#clip962)" cx="1548.73" cy="333.839" r="14.4" fill="#008000" fill-rule="evenodd" fill-opacity="1" stroke="#000000" stroke-opacity="1" stroke-width="6.4"/>
<circle clip-path="url(#clip962)" cx="1667.16" cy="127.862" r="14.4" fill="#008000" fill-rule="evenodd" fill-opacity="1" stroke="#000000" stroke-opacity="1" stroke-width="6.4"/>
<circle clip-path="url(#clip962)" cx="1785.59" cy="192.044" r="14.4" fill="#008000" fill-rule="evenodd" fill-opacity="1" stroke="#000000" stroke-opacity="1" stroke-width="6.4"/>
<circle clip-path="url(#clip962)" cx="1904.02" cy="143.474" r="14.4" fill="#008000" fill-rule="evenodd" fill-opacity="1" stroke="#000000" stroke-opacity="1" stroke-width="6.4"/>
<circle clip-path="url(#clip962)" cx="2022.46" cy="201.28" r="14.4" fill="#008000" fill-rule="evenodd" fill-opacity="1" stroke="#000000" stroke-opacity="1" stroke-width="6.4"/>
<circle clip-path="url(#clip962)" cx="2140.89" cy="429.783" r="14.4" fill="#008000" fill-rule="evenodd" fill-opacity="1" stroke="#000000" stroke-opacity="1" stroke-width="6.4"/>
<circle clip-path="url(#clip962)" cx="2259.32" cy="211.781" r="14.4" fill="#008000" fill-rule="evenodd" fill-opacity="1" stroke="#000000" stroke-opacity="1" stroke-width="6.4"/>
<polyline clip-path="url(#clip962)" style="stroke:#00008b; stroke-linecap:round; stroke-linejoin:round; stroke-width:8; stroke-opacity:1; fill:none" points="719.695,1167.45 838.128,735.784 956.561,542.817 1074.99,410.293 1193.43,332.309 1311.86,285.125 1430.29,253.227 1548.73,235.603 1667.16,246.31 1785.59,258.166 1904.02,291.983 2022.46,325.266 2140.89,359.256 2259.32,404.091 "/>
<path clip-path="url(#clip962)" d="M719.695 1240.32 L838.128 807.873 L956.561 624.875 L1074.99 492.719 L1193.43 411.104 L1311.86 361.236 L1430.29 334.101 L1548.73 316.548 L1667.16 323.576 L1785.59 336.852 L1904.02 372.657 L2022.46 402.417 L2140.89 435.842 L2259.32 481.562 L2259.32 325.648 L2140.89 278.143 L2022.46 245.383 L1904.02 209.345 L1785.59 180.646 L1667.16 169.476 L1548.73 156.265 L1430.29 175.673 L1311.86 209.839 L1193.43 259.131 L1074.99 330.972 L956.561 466.178 L838.128 662.159 L719.695 1093.74  Z" fill="#0000ff" fill-rule="evenodd" fill-opacity="0.1"/>
<polyline clip-path="url(#clip962)" style="stroke:#0000ff; stroke-linecap:round; stroke-linejoin:round; stroke-width:0; stroke-opacity:0.1; fill:none" points="719.695,1240.32 838.128,807.873 956.561,624.875 1074.99,492.719 1193.43,411.104 1311.86,361.236 1430.29,334.101 1548.73,316.548 1667.16,323.576 1785.59,336.852 1904.02,372.657 2022.46,402.417 2140.89,435.842 2259.32,481.562 "/>
</svg>
