<?xml version="1.0" encoding="utf-8"?>
<svg xmlns="http://www.w3.org/2000/svg" xmlns:xlink="http://www.w3.org/1999/xlink" width="600" height="400" viewBox="0 0 2400 1600">
<defs>
  <clipPath id="clip560">
    <rect x="0" y="0" width="2400" height="1600"/>
  </clipPath>
</defs>
<path clip-path="url(#clip560)" d="M0 1600 L2400 1600 L2400 0 L0 0  Z" fill="#ffffff" fill-rule="evenodd" fill-opacity="1"/>
<defs>
  <clipPath id="clip561">
    <rect x="480" y="0" width="1681" height="1600"/>
  </clipPath>
</defs>
<path clip-path="url(#clip560)" d="M680.45 1273.7 L2305.51 1273.7 L2305.51 94.4882 L680.45 94.4882  Z" fill="#ffffff" fill-rule="evenodd" fill-opacity="1"/>
<defs>
  <clipPath id="clip562">
    <rect x="680" y="94" width="1626" height="1180"/>
  </clipPath>
</defs>
<polyline clip-path="url(#clip562)" style="stroke:#000000; stroke-linecap:round; stroke-linejoin:round; stroke-width:4; stroke-opacity:0.1; fill:none" points="726.443,1273.7 726.443,94.4882 "/>
<polyline clip-path="url(#clip562)" style="stroke:#000000; stroke-linecap:round; stroke-linejoin:round; stroke-width:4; stroke-opacity:0.1; fill:none" points="962.301,1273.7 962.301,94.4882 "/>
<polyline clip-path="url(#clip562)" style="stroke:#000000; stroke-linecap:round; stroke-linejoin:round; stroke-width:4; stroke-opacity:0.1; fill:none" points="1198.16,1273.7 1198.16,94.4882 "/>
<polyline clip-path="url(#clip562)" style="stroke:#000000; stroke-linecap:round; stroke-linejoin:round; stroke-width:4; stroke-opacity:0.1; fill:none" points="1434.02,1273.7 1434.02,94.4882 "/>
<polyline clip-path="url(#clip562)" style="stroke:#000000; stroke-linecap:round; stroke-linejoin:round; stroke-width:4; stroke-opacity:0.1; fill:none" points="1669.87,1273.7 1669.87,94.4882 "/>
<polyline clip-path="url(#clip562)" style="stroke:#000000; stroke-linecap:round; stroke-linejoin:round; stroke-width:4; stroke-opacity:0.1; fill:none" points="1905.73,1273.7 1905.73,94.4882 "/>
<polyline clip-path="url(#clip562)" style="stroke:#000000; stroke-linecap:round; stroke-linejoin:round; stroke-width:4; stroke-opacity:0.1; fill:none" points="2141.59,1273.7 2141.59,94.4882 "/>
<polyline clip-path="url(#clip560)" style="stroke:#000000; stroke-linecap:round; stroke-linejoin:round; stroke-width:8; stroke-opacity:1; fill:none" points="680.45,1273.7 2305.51,1273.7 "/>
<polyline clip-path="url(#clip560)" style="stroke:#000000; stroke-linecap:round; stroke-linejoin:round; stroke-width:8; stroke-opacity:1; fill:none" points="726.443,1273.7 726.443,1254.8 "/>
<polyline clip-path="url(#clip560)" style="stroke:#000000; stroke-linecap:round; stroke-linejoin:round; stroke-width:8; stroke-opacity:1; fill:none" points="962.301,1273.7 962.301,1254.8 "/>
<polyline clip-path="url(#clip560)" style="stroke:#000000; stroke-linecap:round; stroke-linejoin:round; stroke-width:8; stroke-opacity:1; fill:none" points="1198.16,1273.7 1198.16,1254.8 "/>
<polyline clip-path="url(#clip560)" style="stroke:#000000; stroke-linecap:round; stroke-linejoin:round; stroke-width:8; stroke-opacity:1; fill:none" points="1434.02,1273.7 1434.02,1254.8 "/>
<polyline clip-path="url(#clip560)" style="stroke:#000000; stroke-linecap:round; stroke-linejoin:round; stroke-width:8; stroke-opacity:1; fill:none" points="1669.87,1273.7 1669.87,1254.8 "/>
<polyline clip-path="url(#clip560)" style="stroke:#000000; stroke-linecap:round; stroke-linejoin:round; stroke-width:8; stroke-opacity:1; fill:none" points="1905.73,1273.7 1905.73,1254.8 "/>
<polyline clip-path="url(#clip560)" style="stroke:#000000; stroke-linecap:round; stroke-linejoin:round; stroke-width:8; stroke-opacity:1; fill:none" points="2141.59,1273.7 2141.59,1254.8 "/>
<path clip-path="url(#clip560)" d="M681.211 1316.33 Q673.989 1316.33 670.332 1323.46 Q666.721 1330.55 666.721 1344.81 Q666.721 1359.02 670.332 1366.15 Q673.989 1373.23 681.211 1373.23 Q688.48 1373.23 692.091 1366.15 Q695.748 1359.02 695.748 1344.81 Q695.748 1330.55 692.091 1323.46 Q688.48 1316.33 681.211 1316.33 M681.211 1308.93 Q692.832 1308.93 698.943 1318.14 Q705.1 1327.31 705.1 1344.81 Q705.1 1362.26 698.943 1371.47 Q692.832 1380.64 681.211 1380.64 Q669.591 1380.64 663.434 1371.47 Q657.323 1362.26 657.323 1344.81 Q657.323 1327.31 663.434 1318.14 Q669.591 1308.93 681.211 1308.93 Z" fill="#000000" fill-rule="nonzero" fill-opacity="1" /><path clip-path="url(#clip560)" d="M721.535 1367.54 L731.304 1367.54 L731.304 1379.3 L721.535 1379.3 L721.535 1367.54 Z" fill="#000000" fill-rule="nonzero" fill-opacity="1" /><path clip-path="url(#clip560)" d="M771.674 1316.33 Q764.452 1316.33 760.794 1323.46 Q757.183 1330.55 757.183 1344.81 Q757.183 1359.02 760.794 1366.15 Q764.452 1373.23 771.674 1373.23 Q778.942 1373.23 782.553 1366.15 Q786.211 1359.02 786.211 1344.81 Q786.211 1330.55 782.553 1323.46 Q778.942 1316.33 771.674 1316.33 M771.674 1308.93 Q783.294 1308.93 789.405 1318.14 Q795.563 1327.31 795.563 1344.81 Q795.563 1362.26 789.405 1371.47 Q783.294 1380.64 771.674 1380.64 Q760.054 1380.64 753.896 1371.47 Q747.785 1362.26 747.785 1344.81 Q747.785 1327.31 753.896 1318.14 Q760.054 1308.93 771.674 1308.93 Z" fill="#000000" fill-rule="nonzero" fill-opacity="1" /><path clip-path="url(#clip560)" d="M918.667 1316.33 Q911.444 1316.33 907.787 1323.46 Q904.176 1330.55 904.176 1344.81 Q904.176 1359.02 907.787 1366.15 Q911.444 1373.23 918.667 1373.23 Q925.935 1373.23 929.546 1366.15 Q933.204 1359.02 933.204 1344.81 Q933.204 1330.55 929.546 1323.46 Q925.935 1316.33 918.667 1316.33 M918.667 1308.93 Q930.287 1308.93 936.398 1318.14 Q942.555 1327.31 942.555 1344.81 Q942.555 1362.26 936.398 1371.47 Q930.287 1380.64 918.667 1380.64 Q907.046 1380.64 900.889 1371.47 Q894.778 1362.26 894.778 1344.81 Q894.778 1327.31 900.889 1318.14 Q907.046 1308.93 918.667 1308.93 Z" fill="#000000" fill-rule="nonzero" fill-opacity="1" /><path clip-path="url(#clip560)" d="M958.99 1367.54 L968.759 1367.54 L968.759 1379.3 L958.99 1379.3 L958.99 1367.54 Z" fill="#000000" fill-rule="nonzero" fill-opacity="1" /><path clip-path="url(#clip560)" d="M997.185 1371.43 L1029.82 1371.43 L1029.82 1379.3 L985.935 1379.3 L985.935 1371.43 Q991.259 1365.92 1000.43 1356.66 Q1009.64 1347.35 1012 1344.67 Q1016.49 1339.62 1018.25 1336.15 Q1020.05 1332.63 1020.05 1329.25 Q1020.05 1323.74 1016.17 1320.27 Q1012.32 1316.8 1006.12 1316.8 Q1001.72 1316.8 996.814 1318.32 Q991.953 1319.85 986.398 1322.95 L986.398 1313.51 Q992.046 1311.24 996.953 1310.08 Q1001.86 1308.93 1005.93 1308.93 Q1016.68 1308.93 1023.06 1314.3 Q1029.45 1319.67 1029.45 1328.65 Q1029.45 1332.91 1027.83 1336.75 Q1026.26 1340.55 1022.05 1345.73 Q1020.89 1347.07 1014.68 1353.51 Q1008.48 1359.9 997.185 1371.43 Z" fill="#000000" fill-rule="nonzero" fill-opacity="1" /><path clip-path="url(#clip560)" d="M1152.44 1316.33 Q1145.22 1316.33 1141.56 1323.46 Q1137.95 1330.55 1137.95 1344.81 Q1137.95 1359.02 1141.56 1366.15 Q1145.22 1373.23 1152.44 1373.23 Q1159.71 1373.23 1163.32 1366.15 Q1166.98 1359.02 1166.98 1344.81 Q1166.98 1330.55 1163.32 1323.46 Q1159.71 1316.33 1152.44 1316.33 M1152.44 1308.93 Q1164.06 1308.93 1170.17 1318.14 Q1176.33 1327.31 1176.33 1344.81 Q1176.33 1362.26 1170.17 1371.47 Q1164.06 1380.64 1152.44 1380.64 Q1140.82 1380.64 1134.66 1371.47 Q1128.55 1362.26 1128.55 1344.81 Q1128.55 1327.31 1134.66 1318.14 Q1140.82 1308.93 1152.44 1308.93 Z" fill="#000000" fill-rule="nonzero" fill-opacity="1" /><path clip-path="url(#clip560)" d="M1192.77 1367.54 L1202.53 1367.54 L1202.53 1379.3 L1192.77 1379.3 L1192.77 1367.54 Z" fill="#000000" fill-rule="nonzero" fill-opacity="1" /><path clip-path="url(#clip560)" d="M1248.6 1318.32 L1224.99 1355.22 L1248.6 1355.22 L1248.6 1318.32 M1246.14 1310.18 L1257.9 1310.18 L1257.9 1355.22 L1267.76 1355.22 L1267.76 1363 L1257.9 1363 L1257.9 1379.3 L1248.6 1379.3 L1248.6 1363 L1217.39 1363 L1217.39 1353.97 L1246.14 1310.18 Z" fill="#000000" fill-rule="nonzero" fill-opacity="1" /><path clip-path="url(#clip560)" d="M1388.62 1316.33 Q1381.4 1316.33 1377.74 1323.46 Q1374.13 1330.55 1374.13 1344.81 Q1374.13 1359.02 1377.74 1366.15 Q1381.4 1373.23 1388.62 1373.23 Q1395.89 1373.23 1399.5 1366.15 Q1403.16 1359.02 1403.16 1344.81 Q1403.16 1330.55 1399.5 1323.46 Q1395.89 1316.33 1388.62 1316.33 M1388.62 1308.93 Q1400.24 1308.93 1406.35 1318.14 Q1412.51 1327.31 1412.51 1344.81 Q1412.51 1362.26 1406.35 1371.47 Q1400.24 1380.64 1388.62 1380.64 Q1377 1380.64 1370.85 1371.47 Q1364.73 1362.26 1364.73 1344.81 Q1364.73 1327.31 1370.85 1318.14 Q1377 1308.93 1388.62 1308.93 Z" fill="#000000" fill-rule="nonzero" fill-opacity="1" /><path clip-path="url(#clip560)" d="M1428.95 1367.54 L1438.72 1367.54 L1438.72 1379.3 L1428.95 1379.3 L1428.95 1367.54 Z" fill="#000000" fill-rule="nonzero" fill-opacity="1" /><path clip-path="url(#clip560)" d="M1480.24 1341.01 Q1473.95 1341.01 1470.24 1345.31 Q1466.59 1349.62 1466.59 1357.12 Q1466.59 1364.57 1470.24 1368.93 Q1473.95 1373.23 1480.24 1373.23 Q1486.54 1373.23 1490.2 1368.93 Q1493.9 1364.57 1493.9 1357.12 Q1493.9 1349.62 1490.2 1345.31 Q1486.54 1341.01 1480.24 1341.01 M1498.81 1311.7 L1498.81 1320.22 Q1495.29 1318.56 1491.68 1317.68 Q1488.11 1316.8 1484.6 1316.8 Q1475.34 1316.8 1470.43 1323.05 Q1465.57 1329.3 1464.87 1341.93 Q1467.6 1337.91 1471.72 1335.78 Q1475.85 1333.6 1480.8 1333.6 Q1491.22 1333.6 1497.23 1339.94 Q1503.3 1346.24 1503.3 1357.12 Q1503.3 1367.77 1497 1374.2 Q1490.71 1380.64 1480.24 1380.64 Q1468.25 1380.64 1461.91 1371.47 Q1455.57 1362.26 1455.57 1344.81 Q1455.57 1328.42 1463.35 1318.69 Q1471.12 1308.93 1484.22 1308.93 Q1487.74 1308.93 1491.31 1309.62 Q1494.92 1310.31 1498.81 1311.7 Z" fill="#000000" fill-rule="nonzero" fill-opacity="1" /><path clip-path="url(#clip560)" d="M1624.74 1316.33 Q1617.51 1316.33 1613.86 1323.46 Q1610.25 1330.55 1610.25 1344.81 Q1610.25 1359.02 1613.86 1366.15 Q1617.51 1373.23 1624.74 1373.23 Q1632 1373.23 1635.62 1366.15 Q1639.27 1359.02 1639.27 1344.81 Q1639.27 1330.55 1635.62 1323.46 Q1632 1316.33 1624.74 1316.33 M1624.74 1308.93 Q1636.36 1308.93 1642.47 1318.14 Q1648.62 1327.31 1648.62 1344.81 Q1648.62 1362.26 1642.47 1371.47 Q1636.36 1380.64 1624.74 1380.64 Q1613.12 1380.64 1606.96 1371.47 Q1600.85 1362.26 1600.85 1344.81 Q1600.85 1327.31 1606.96 1318.14 Q1613.12 1308.93 1624.74 1308.93 Z" fill="#000000" fill-rule="nonzero" fill-opacity="1" /><path clip-path="url(#clip560)" d="M1665.06 1367.54 L1674.83 1367.54 L1674.83 1379.3 L1665.06 1379.3 L1665.06 1367.54 Z" fill="#000000" fill-rule="nonzero" fill-opacity="1" /><path clip-path="url(#clip560)" d="M1715.2 1346.47 Q1708.53 1346.47 1704.69 1350.04 Q1700.89 1353.6 1700.89 1359.85 Q1700.89 1366.1 1704.69 1369.67 Q1708.53 1373.23 1715.2 1373.23 Q1721.87 1373.23 1725.71 1369.67 Q1729.55 1366.06 1729.55 1359.85 Q1729.55 1353.6 1725.71 1350.04 Q1721.91 1346.47 1715.2 1346.47 M1705.85 1342.49 Q1699.83 1341.01 1696.45 1336.89 Q1693.12 1332.77 1693.12 1326.84 Q1693.12 1318.56 1698.99 1313.74 Q1704.92 1308.93 1715.2 1308.93 Q1725.52 1308.93 1731.4 1313.74 Q1737.28 1318.56 1737.28 1326.84 Q1737.28 1332.77 1733.9 1336.89 Q1730.57 1341.01 1724.6 1342.49 Q1731.36 1344.06 1735.11 1348.65 Q1738.9 1353.23 1738.9 1359.85 Q1738.9 1369.9 1732.74 1375.27 Q1726.63 1380.64 1715.2 1380.64 Q1703.76 1380.64 1697.61 1375.27 Q1691.49 1369.9 1691.49 1359.85 Q1691.49 1353.23 1695.29 1348.65 Q1699.09 1344.06 1705.85 1342.49 M1702.42 1327.72 Q1702.42 1333.09 1705.75 1336.1 Q1709.13 1339.11 1715.2 1339.11 Q1721.22 1339.11 1724.6 1336.1 Q1728.02 1333.09 1728.02 1327.72 Q1728.02 1322.35 1724.6 1319.34 Q1721.22 1316.33 1715.2 1316.33 Q1709.13 1316.33 1705.75 1319.34 Q1702.42 1322.35 1702.42 1327.72 Z" fill="#000000" fill-rule="nonzero" fill-opacity="1" /><path clip-path="url(#clip560)" d="M1840.04 1371.43 L1855.32 1371.43 L1855.32 1318.69 L1838.7 1322.03 L1838.7 1313.51 L1855.22 1310.18 L1864.58 1310.18 L1864.58 1371.43 L1879.85 1371.43 L1879.85 1379.3 L1840.04 1379.3 L1840.04 1371.43 Z" fill="#000000" fill-rule="nonzero" fill-opacity="1" /><path clip-path="url(#clip560)" d="M1898.74 1367.54 L1908.51 1367.54 L1908.51 1379.3 L1898.74 1379.3 L1898.74 1367.54 Z" fill="#000000" fill-rule="nonzero" fill-opacity="1" /><path clip-path="url(#clip560)" d="M1948.88 1316.33 Q1941.66 1316.33 1938 1323.46 Q1934.39 1330.55 1934.39 1344.81 Q1934.39 1359.02 1938 1366.15 Q1941.66 1373.23 1948.88 1373.23 Q1956.15 1373.23 1959.76 1366.15 Q1963.42 1359.02 1963.42 1344.81 Q1963.42 1330.55 1959.76 1323.46 Q1956.15 1316.33 1948.88 1316.33 M1948.88 1308.93 Q1960.5 1308.93 1966.61 1318.14 Q1972.77 1327.31 1972.77 1344.81 Q1972.77 1362.26 1966.61 1371.47 Q1960.5 1380.64 1948.88 1380.64 Q1937.26 1380.64 1931.1 1371.47 Q1924.99 1362.26 1924.99 1344.81 Q1924.99 1327.31 1931.1 1318.14 Q1937.26 1308.93 1948.88 1308.93 Z" fill="#000000" fill-rule="nonzero" fill-opacity="1" /><path clip-path="url(#clip560)" d="M2077.49 1371.43 L2092.77 1371.43 L2092.77 1318.69 L2076.15 1322.03 L2076.15 1313.51 L2092.68 1310.18 L2102.03 1310.18 L2102.03 1371.43 L2117.31 1371.43 L2117.31 1379.3 L2077.49 1379.3 L2077.49 1371.43 Z" fill="#000000" fill-rule="nonzero" fill-opacity="1" /><path clip-path="url(#clip560)" d="M2136.2 1367.54 L2145.97 1367.54 L2145.97 1379.3 L2136.2 1379.3 L2136.2 1367.54 Z" fill="#000000" fill-rule="nonzero" fill-opacity="1" /><path clip-path="url(#clip560)" d="M2174.39 1371.43 L2207.03 1371.43 L2207.03 1379.3 L2163.14 1379.3 L2163.14 1371.43 Q2168.47 1365.92 2177.63 1356.66 Q2186.84 1347.35 2189.21 1344.67 Q2193.7 1339.62 2195.46 1336.15 Q2197.26 1332.63 2197.26 1329.25 Q2197.26 1323.74 2193.37 1320.27 Q2189.53 1316.8 2183.33 1316.8 Q2178.93 1316.8 2174.02 1318.32 Q2169.16 1319.85 2163.6 1322.95 L2163.6 1313.51 Q2169.25 1311.24 2174.16 1310.08 Q2179.07 1308.93 2183.14 1308.93 Q2193.88 1308.93 2200.27 1314.3 Q2206.66 1319.67 2206.66 1328.65 Q2206.66 1332.91 2205.04 1336.75 Q2203.47 1340.55 2199.25 1345.73 Q2198.09 1347.07 2191.89 1353.51 Q2185.69 1359.9 2174.39 1371.43 Z" fill="#000000" fill-rule="nonzero" fill-opacity="1" /><path clip-path="url(#clip560)" d="M1378.53 1484.39 L1378.53 1527.42 L1366.81 1527.42 L1366.81 1484.77 Q1366.81 1474.65 1362.87 1469.62 Q1358.92 1464.59 1351.03 1464.59 Q1341.54 1464.59 1336.07 1470.64 Q1330.59 1476.69 1330.59 1487.13 L1330.59 1527.42 L1318.82 1527.42 L1318.82 1428.37 L1330.59 1428.37 L1330.59 1467.2 Q1334.79 1460.77 1340.46 1457.59 Q1346.19 1454.41 1353.64 1454.41 Q1365.92 1454.41 1372.22 1462.05 Q1378.53 1469.62 1378.53 1484.39 Z" fill="#000000" fill-rule="nonzero" fill-opacity="1" /><path clip-path="url(#clip560)" d="M1429.51 1464.34 Q1420.09 1464.34 1414.62 1471.72 Q1409.14 1479.04 1409.14 1491.84 Q1409.14 1504.63 1414.56 1512.02 Q1420.03 1519.34 1429.51 1519.34 Q1438.87 1519.34 1444.35 1511.96 Q1449.82 1504.57 1449.82 1491.84 Q1449.82 1479.17 1444.35 1471.79 Q1438.87 1464.34 1429.51 1464.34 M1429.51 1454.41 Q1444.79 1454.41 1453.51 1464.34 Q1462.23 1474.27 1462.23 1491.84 Q1462.23 1509.35 1453.51 1519.34 Q1444.79 1529.27 1429.51 1529.27 Q1414.17 1529.27 1405.45 1519.34 Q1396.8 1509.35 1396.8 1491.84 Q1396.8 1474.27 1405.45 1464.34 Q1414.17 1454.41 1429.51 1454.41 Z" fill="#000000" fill-rule="nonzero" fill-opacity="1" /><path clip-path="url(#clip560)" d="M1480.44 1499.29 L1480.44 1456.13 L1492.15 1456.13 L1492.15 1498.84 Q1492.15 1508.96 1496.1 1514.06 Q1500.05 1519.08 1507.94 1519.08 Q1517.43 1519.08 1522.9 1513.04 Q1528.44 1506.99 1528.44 1496.55 L1528.44 1456.13 L1540.15 1456.13 L1540.15 1527.42 L1528.44 1527.42 L1528.44 1516.47 Q1524.17 1522.97 1518.51 1526.15 Q1512.91 1529.27 1505.46 1529.27 Q1493.17 1529.27 1486.81 1521.63 Q1480.44 1513.99 1480.44 1499.29 M1509.91 1454.41 L1509.91 1454.41 Z" fill="#000000" fill-rule="nonzero" fill-opacity="1" /><path clip-path="url(#clip560)" d="M1605.59 1467.08 Q1603.62 1465.93 1601.26 1465.42 Q1598.97 1464.85 1596.17 1464.85 Q1586.24 1464.85 1580.89 1471.34 Q1575.61 1477.77 1575.61 1489.87 L1575.61 1527.42 L1563.83 1527.42 L1563.83 1456.13 L1575.61 1456.13 L1575.61 1467.2 Q1579.3 1460.71 1585.22 1457.59 Q1591.14 1454.41 1599.61 1454.41 Q1600.82 1454.41 1602.28 1454.6 Q1603.74 1454.73 1605.53 1455.05 L1605.59 1467.08 Z" fill="#000000" fill-rule="nonzero" fill-opacity="1" /><path clip-path="url(#clip560)" d="M1663.33 1458.23 L1663.33 1469.3 Q1658.36 1466.76 1653.01 1465.49 Q1647.67 1464.21 1641.94 1464.21 Q1633.22 1464.21 1628.83 1466.89 Q1624.5 1469.56 1624.5 1474.91 Q1624.5 1478.98 1627.62 1481.34 Q1630.73 1483.63 1640.16 1485.73 L1644.17 1486.62 Q1656.64 1489.29 1661.86 1494.19 Q1667.15 1499.03 1667.15 1507.75 Q1667.15 1517.68 1659.25 1523.48 Q1651.42 1529.27 1637.67 1529.27 Q1631.94 1529.27 1625.71 1528.12 Q1619.53 1527.04 1612.66 1524.81 L1612.66 1512.72 Q1619.15 1516.09 1625.45 1517.81 Q1631.75 1519.47 1637.93 1519.47 Q1646.2 1519.47 1650.66 1516.67 Q1655.12 1513.8 1655.12 1508.64 Q1655.12 1503.87 1651.87 1501.32 Q1648.69 1498.78 1637.8 1496.42 L1633.73 1495.47 Q1622.84 1493.18 1618 1488.47 Q1613.17 1483.69 1613.17 1475.42 Q1613.17 1465.36 1620.3 1459.88 Q1627.42 1454.41 1640.54 1454.41 Q1647.03 1454.41 1652.76 1455.36 Q1658.49 1456.32 1663.33 1458.23 Z" fill="#000000" fill-rule="nonzero" fill-opacity="1" /><polyline clip-path="url(#clip562)" style="stroke:#000000; stroke-linecap:round; stroke-linejoin:round; stroke-width:4; stroke-opacity:0.1; fill:none" points="680.45,1202.94 2305.51,1202.94 "/>
<polyline clip-path="url(#clip562)" style="stroke:#000000; stroke-linecap:round; stroke-linejoin:round; stroke-width:4; stroke-opacity:0.1; fill:none" points="680.45,902.574 2305.51,902.574 "/>
<polyline clip-path="url(#clip562)" style="stroke:#000000; stroke-linecap:round; stroke-linejoin:round; stroke-width:4; stroke-opacity:0.1; fill:none" points="680.45,602.204 2305.51,602.204 "/>
<polyline clip-path="url(#clip562)" style="stroke:#000000; stroke-linecap:round; stroke-linejoin:round; stroke-width:4; stroke-opacity:0.1; fill:none" points="680.45,301.834 2305.51,301.834 "/>
<polyline clip-path="url(#clip560)" style="stroke:#000000; stroke-linecap:round; stroke-linejoin:round; stroke-width:8; stroke-opacity:1; fill:none" points="680.45,1273.7 680.45,94.4882 "/>
<polyline clip-path="url(#clip560)" style="stroke:#000000; stroke-linecap:round; stroke-linejoin:round; stroke-width:8; stroke-opacity:1; fill:none" points="680.45,1202.94 699.348,1202.94 "/>
<polyline clip-path="url(#clip560)" style="stroke:#000000; stroke-linecap:round; stroke-linejoin:round; stroke-width:8; stroke-opacity:1; fill:none" points="680.45,902.574 699.348,902.574 "/>
<polyline clip-path="url(#clip560)" style="stroke:#000000; stroke-linecap:round; stroke-linejoin:round; stroke-width:8; stroke-opacity:1; fill:none" points="680.45,602.204 699.348,602.204 "/>
<polyline clip-path="url(#clip560)" style="stroke:#000000; stroke-linecap:round; stroke-linejoin:round; stroke-width:8; stroke-opacity:1; fill:none" points="680.45,301.834 699.348,301.834 "/>
<path clip-path="url(#clip560)" d="M449.868 1168.38 L486.581 1168.38 L486.581 1176.25 L458.433 1176.25 L458.433 1193.2 Q460.47 1192.5 462.507 1192.18 Q464.544 1191.81 466.581 1191.81 Q478.155 1191.81 484.914 1198.15 Q491.673 1204.49 491.673 1215.33 Q491.673 1226.48 484.729 1232.69 Q477.785 1238.85 465.146 1238.85 Q460.794 1238.85 456.257 1238.11 Q451.766 1237.36 446.951 1235.88 L446.951 1226.48 Q451.118 1228.75 455.562 1229.86 Q460.007 1230.98 464.961 1230.98 Q472.97 1230.98 477.646 1226.76 Q482.322 1222.55 482.322 1215.33 Q482.322 1208.11 477.646 1203.89 Q472.97 1199.68 464.961 1199.68 Q461.211 1199.68 457.461 1200.51 Q453.757 1201.35 449.868 1203.11 L449.868 1168.38 Z" fill="#000000" fill-rule="nonzero" fill-opacity="1" /><path clip-path="url(#clip560)" d="M530.099 1174.54 Q522.877 1174.54 519.22 1181.67 Q515.608 1188.75 515.608 1203.01 Q515.608 1217.23 519.22 1224.36 Q522.877 1231.44 530.099 1231.44 Q537.368 1231.44 540.979 1224.36 Q544.636 1217.23 544.636 1203.01 Q544.636 1188.75 540.979 1181.67 Q537.368 1174.54 530.099 1174.54 M530.099 1167.13 Q541.719 1167.13 547.831 1176.35 Q553.988 1185.51 553.988 1203.01 Q553.988 1220.47 547.831 1229.68 Q541.719 1238.85 530.099 1238.85 Q518.479 1238.85 512.321 1229.68 Q506.21 1220.47 506.21 1203.01 Q506.21 1185.51 512.321 1176.35 Q518.479 1167.13 530.099 1167.13 Z" fill="#000000" fill-rule="nonzero" fill-opacity="1" /><path clip-path="url(#clip560)" d="M570.423 1225.74 L580.191 1225.74 L580.191 1237.5 L570.423 1237.5 L570.423 1225.74 Z" fill="#000000" fill-rule="nonzero" fill-opacity="1" /><path clip-path="url(#clip560)" d="M620.562 1174.54 Q613.339 1174.54 609.682 1181.67 Q606.071 1188.75 606.071 1203.01 Q606.071 1217.23 609.682 1224.36 Q613.339 1231.44 620.562 1231.44 Q627.83 1231.44 631.441 1224.36 Q635.099 1217.23 635.099 1203.01 Q635.099 1188.75 631.441 1181.67 Q627.83 1174.54 620.562 1174.54 M620.562 1167.13 Q632.182 1167.13 638.293 1176.35 Q644.45 1185.51 644.45 1203.01 Q644.45 1220.47 638.293 1229.68 Q632.182 1238.85 620.562 1238.85 Q608.941 1238.85 602.784 1229.68 Q596.673 1220.47 596.673 1203.01 Q596.673 1185.51 602.784 1176.35 Q608.941 1167.13 620.562 1167.13 Z" fill="#000000" fill-rule="nonzero" fill-opacity="1" /><path clip-path="url(#clip560)" d="M391.072 929.263 L406.35 929.263 L406.35 876.532 L389.73 879.865 L389.73 871.347 L406.257 868.014 L415.609 868.014 L415.609 929.263 L430.887 929.263 L430.887 937.134 L391.072 937.134 L391.072 929.263 Z" fill="#000000" fill-rule="nonzero" fill-opacity="1" /><path clip-path="url(#clip560)" d="M469.775 874.171 Q462.553 874.171 458.896 881.301 Q455.285 888.384 455.285 902.643 Q455.285 916.856 458.896 923.986 Q462.553 931.069 469.775 931.069 Q477.044 931.069 480.655 923.986 Q484.312 916.856 484.312 902.643 Q484.312 888.384 480.655 881.301 Q477.044 874.171 469.775 874.171 M469.775 866.764 Q481.396 866.764 487.507 875.977 Q493.664 885.143 493.664 902.643 Q493.664 920.097 487.507 929.31 Q481.396 938.476 469.775 938.476 Q458.155 938.476 451.998 929.31 Q445.887 920.097 445.887 902.643 Q445.887 885.143 451.998 875.977 Q458.155 866.764 469.775 866.764 Z" fill="#000000" fill-rule="nonzero" fill-opacity="1" /><path clip-path="url(#clip560)" d="M530.099 874.171 Q522.877 874.171 519.22 881.301 Q515.608 888.384 515.608 902.643 Q515.608 916.856 519.22 923.986 Q522.877 931.069 530.099 931.069 Q537.368 931.069 540.979 923.986 Q544.636 916.856 544.636 902.643 Q544.636 888.384 540.979 881.301 Q537.368 874.171 530.099 874.171 M530.099 866.764 Q541.719 866.764 547.831 875.977 Q553.988 885.143 553.988 902.643 Q553.988 920.097 547.831 929.31 Q541.719 938.476 530.099 938.476 Q518.479 938.476 512.321 929.31 Q506.21 920.097 506.21 902.643 Q506.21 885.143 512.321 875.977 Q518.479 866.764 530.099 866.764 Z" fill="#000000" fill-rule="nonzero" fill-opacity="1" /><path clip-path="url(#clip560)" d="M570.423 925.374 L580.191 925.374 L580.191 937.134 L570.423 937.134 L570.423 925.374 Z" fill="#000000" fill-rule="nonzero" fill-opacity="1" /><path clip-path="url(#clip560)" d="M620.562 874.171 Q613.339 874.171 609.682 881.301 Q606.071 888.384 606.071 902.643 Q606.071 916.856 609.682 923.986 Q613.339 931.069 620.562 931.069 Q627.83 931.069 631.441 923.986 Q635.099 916.856 635.099 902.643 Q635.099 888.384 631.441 881.301 Q627.83 874.171 620.562 874.171 M620.562 866.764 Q632.182 866.764 638.293 875.977 Q644.45 885.143 644.45 902.643 Q644.45 920.097 638.293 929.31 Q632.182 938.476 620.562 938.476 Q608.941 938.476 602.784 929.31 Q596.673 920.097 596.673 902.643 Q596.673 885.143 602.784 875.977 Q608.941 866.764 620.562 866.764 Z" fill="#000000" fill-rule="nonzero" fill-opacity="1" /><path clip-path="url(#clip560)" d="M391.072 628.894 L406.35 628.894 L406.35 576.162 L389.73 579.496 L389.73 570.977 L406.257 567.644 L415.609 567.644 L415.609 628.894 L430.887 628.894 L430.887 636.764 L391.072 636.764 L391.072 628.894 Z" fill="#000000" fill-rule="nonzero" fill-opacity="1" /><path clip-path="url(#clip560)" d="M449.868 567.644 L486.581 567.644 L486.581 575.514 L458.433 575.514 L458.433 592.459 Q460.47 591.764 462.507 591.44 Q464.544 591.07 466.581 591.07 Q478.155 591.07 484.914 597.412 Q491.673 603.755 491.673 614.588 Q491.673 625.745 484.729 631.949 Q477.785 638.107 465.146 638.107 Q460.794 638.107 456.257 637.366 Q451.766 636.625 446.951 635.144 L446.951 625.745 Q451.118 628.014 455.562 629.125 Q460.007 630.236 464.961 630.236 Q472.97 630.236 477.646 626.023 Q482.322 621.81 482.322 614.588 Q482.322 607.366 477.646 603.153 Q472.97 598.94 464.961 598.94 Q461.211 598.94 457.461 599.773 Q453.757 600.607 449.868 602.366 L449.868 567.644 Z" fill="#000000" fill-rule="nonzero" fill-opacity="1" /><path clip-path="url(#clip560)" d="M530.099 573.801 Q522.877 573.801 519.22 580.931 Q515.608 588.014 515.608 602.273 Q515.608 616.486 519.22 623.616 Q522.877 630.699 530.099 630.699 Q537.368 630.699 540.979 623.616 Q544.636 616.486 544.636 602.273 Q544.636 588.014 540.979 580.931 Q537.368 573.801 530.099 573.801 M530.099 566.394 Q541.719 566.394 547.831 575.607 Q553.988 584.773 553.988 602.273 Q553.988 619.727 547.831 628.94 Q541.719 638.107 530.099 638.107 Q518.479 638.107 512.321 628.94 Q506.21 619.727 506.21 602.273 Q506.21 584.773 512.321 575.607 Q518.479 566.394 530.099 566.394 Z" fill="#000000" fill-rule="nonzero" fill-opacity="1" /><path clip-path="url(#clip560)" d="M570.423 625.005 L580.191 625.005 L580.191 636.764 L570.423 636.764 L570.423 625.005 Z" fill="#000000" fill-rule="nonzero" fill-opacity="1" /><path clip-path="url(#clip560)" d="M620.562 573.801 Q613.339 573.801 609.682 580.931 Q606.071 588.014 606.071 602.273 Q606.071 616.486 609.682 623.616 Q613.339 630.699 620.562 630.699 Q627.83 630.699 631.441 623.616 Q635.099 616.486 635.099 602.273 Q635.099 588.014 631.441 580.931 Q627.83 573.801 620.562 573.801 M620.562 566.394 Q632.182 566.394 638.293 575.607 Q644.45 584.773 644.45 602.273 Q644.45 619.727 638.293 628.94 Q632.182 638.107 620.562 638.107 Q608.941 638.107 602.784 628.94 Q596.673 619.727 596.673 602.273 Q596.673 584.773 602.784 575.607 Q608.941 566.394 620.562 566.394 Z" fill="#000000" fill-rule="nonzero" fill-opacity="1" /><path clip-path="url(#clip560)" d="M397.507 328.524 L430.146 328.524 L430.146 336.394 L386.257 336.394 L386.257 328.524 Q391.581 323.015 400.748 313.755 Q409.961 304.45 412.322 301.765 Q416.813 296.719 418.572 293.246 Q420.378 289.728 420.378 286.348 Q420.378 280.839 416.489 277.367 Q412.646 273.895 406.442 273.895 Q402.044 273.895 397.137 275.422 Q392.276 276.95 386.72 280.052 L386.72 270.608 Q392.368 268.339 397.276 267.182 Q402.183 266.024 406.257 266.024 Q416.998 266.024 423.387 271.395 Q429.776 276.765 429.776 285.746 Q429.776 290.006 428.155 293.848 Q426.581 297.644 422.368 302.83 Q421.211 304.172 415.007 310.607 Q408.803 316.996 397.507 328.524 Z" fill="#000000" fill-rule="nonzero" fill-opacity="1" /><path clip-path="url(#clip560)" d="M469.775 273.432 Q462.553 273.432 458.896 280.561 Q455.285 287.644 455.285 301.904 Q455.285 316.117 458.896 323.246 Q462.553 330.329 469.775 330.329 Q477.044 330.329 480.655 323.246 Q484.312 316.117 484.312 301.904 Q484.312 287.644 480.655 280.561 Q477.044 273.432 469.775 273.432 M469.775 266.024 Q481.396 266.024 487.507 275.237 Q493.664 284.404 493.664 301.904 Q493.664 319.357 487.507 328.57 Q481.396 337.737 469.775 337.737 Q458.155 337.737 451.998 328.57 Q445.887 319.357 445.887 301.904 Q445.887 284.404 451.998 275.237 Q458.155 266.024 469.775 266.024 Z" fill="#000000" fill-rule="nonzero" fill-opacity="1" /><path clip-path="url(#clip560)" d="M530.099 273.432 Q522.877 273.432 519.22 280.561 Q515.608 287.644 515.608 301.904 Q515.608 316.117 519.22 323.246 Q522.877 330.329 530.099 330.329 Q537.368 330.329 540.979 323.246 Q544.636 316.117 544.636 301.904 Q544.636 287.644 540.979 280.561 Q537.368 273.432 530.099 273.432 M530.099 266.024 Q541.719 266.024 547.831 275.237 Q553.988 284.404 553.988 301.904 Q553.988 319.357 547.831 328.57 Q541.719 337.737 530.099 337.737 Q518.479 337.737 512.321 328.57 Q506.21 319.357 506.21 301.904 Q506.21 284.404 512.321 275.237 Q518.479 266.024 530.099 266.024 Z" fill="#000000" fill-rule="nonzero" fill-opacity="1" /><path clip-path="url(#clip560)" d="M570.423 324.635 L580.191 324.635 L580.191 336.394 L570.423 336.394 L570.423 324.635 Z" fill="#000000" fill-rule="nonzero" fill-opacity="1" /><path clip-path="url(#clip560)" d="M620.562 273.432 Q613.339 273.432 609.682 280.561 Q606.071 287.644 606.071 301.904 Q606.071 316.117 609.682 323.246 Q613.339 330.329 620.562 330.329 Q627.83 330.329 631.441 323.246 Q635.099 316.117 635.099 301.904 Q635.099 287.644 631.441 280.561 Q627.83 273.432 620.562 273.432 M620.562 266.024 Q632.182 266.024 638.293 275.237 Q644.45 284.404 644.45 301.904 Q644.45 319.357 638.293 328.57 Q632.182 337.737 620.562 337.737 Q608.941 337.737 602.784 328.57 Q596.673 319.357 596.673 301.904 Q596.673 284.404 602.784 275.237 Q608.941 266.024 620.562 266.024 Z" fill="#000000" fill-rule="nonzero" fill-opacity="1" /><path clip-path="url(#clip560)" d="M311.051 931.4 L348.863 931.4 L348.863 943.176 L250.449 943.176 L250.449 931.4 L261.271 931.4 Q254.905 927.708 251.85 922.106 Q248.731 916.44 248.731 908.61 Q248.731 895.624 259.043 887.54 Q269.356 879.392 286.161 879.392 Q302.966 879.392 313.279 887.54 Q323.591 895.624 323.591 908.61 Q323.591 916.44 320.536 922.106 Q317.417 927.708 311.051 931.4 M286.161 891.55 Q273.239 891.55 265.918 896.898 Q258.534 902.181 258.534 911.475 Q258.534 920.769 265.918 926.116 Q273.239 931.4 286.161 931.4 Q299.083 931.4 306.468 926.116 Q313.788 920.769 313.788 911.475 Q313.788 902.181 306.468 896.898 Q299.083 891.55 286.161 891.55 Z" fill="#000000" fill-rule="nonzero" fill-opacity="1" /><path clip-path="url(#clip560)" d="M285.906 827.575 Q285.906 841.771 289.153 847.245 Q292.399 852.72 300.229 852.72 Q306.468 852.72 310.16 848.645 Q313.788 844.508 313.788 837.442 Q313.788 827.702 306.913 821.846 Q299.975 815.926 288.516 815.926 L285.906 815.926 L285.906 827.575 M281.068 804.213 L321.745 804.213 L321.745 815.926 L310.924 815.926 Q317.417 819.936 320.536 825.92 Q323.591 831.904 323.591 840.561 Q323.591 851.51 317.48 858.003 Q311.306 864.432 300.993 864.432 Q288.962 864.432 282.851 856.412 Q276.74 848.327 276.74 832.349 L276.74 815.926 L275.594 815.926 Q267.509 815.926 263.117 821.273 Q258.661 826.556 258.661 836.169 Q258.661 842.28 260.125 848.073 Q261.589 853.865 264.518 859.213 L253.696 859.213 Q251.213 852.783 250.004 846.736 Q248.731 840.688 248.731 834.959 Q248.731 819.491 256.751 811.852 Q264.772 804.213 281.068 804.213 Z" fill="#000000" fill-rule="nonzero" fill-opacity="1" /><path clip-path="url(#clip560)" d="M261.398 738.773 Q260.253 740.747 259.743 743.102 Q259.17 745.394 259.17 748.195 Q259.17 758.125 265.663 763.472 Q272.093 768.756 284.188 768.756 L321.745 768.756 L321.745 780.532 L250.449 780.532 L250.449 768.756 L261.526 768.756 Q255.033 765.064 251.914 759.144 Q248.731 753.224 248.731 744.757 Q248.731 743.548 248.922 742.084 Q249.049 740.619 249.367 738.837 L261.398 738.773 Z" fill="#000000" fill-rule="nonzero" fill-opacity="1" /><path clip-path="url(#clip560)" d="M283.169 668.369 L288.898 668.369 L288.898 722.223 Q300.993 721.459 307.359 714.966 Q313.661 708.409 313.661 696.76 Q313.661 690.012 312.006 683.71 Q310.351 677.344 307.041 671.106 L318.117 671.106 Q320.79 677.408 322.191 684.028 Q323.591 690.649 323.591 697.46 Q323.591 714.52 313.661 724.514 Q303.73 734.445 286.798 734.445 Q269.292 734.445 259.043 725.023 Q248.731 715.539 248.731 699.497 Q248.731 685.11 258.025 676.771 Q267.255 668.369 283.169 668.369 M279.732 680.082 Q270.119 680.209 264.39 685.492 Q258.661 690.712 258.661 699.37 Q258.661 709.173 264.199 715.093 Q269.737 720.949 279.795 721.841 L279.732 680.082 Z" fill="#000000" fill-rule="nonzero" fill-opacity="1" /><path clip-path="url(#clip560)" d="M278.713 589.88 L321.745 589.88 L321.745 601.592 L279.095 601.592 Q268.974 601.592 263.945 605.539 Q258.916 609.486 258.916 617.379 Q258.916 626.864 264.963 632.339 Q271.011 637.813 281.45 637.813 L321.745 637.813 L321.745 649.59 L250.449 649.59 L250.449 637.813 L261.526 637.813 Q255.096 633.612 251.914 627.946 Q248.731 622.217 248.731 614.769 Q248.731 602.484 256.37 596.182 Q263.945 589.88 278.713 589.88 Z" fill="#000000" fill-rule="nonzero" fill-opacity="1" /><path clip-path="url(#clip560)" d="M305.576 564.862 L305.576 551.431 L321.745 551.431 L321.745 564.862 L305.576 564.862 Z" fill="#000000" fill-rule="nonzero" fill-opacity="1" /><path clip-path="url(#clip560)" d="M310.924 479.753 L310.924 458.746 L238.418 458.746 L243.002 481.599 L231.289 481.599 L226.705 458.873 L226.705 446.015 L310.924 446.015 L310.924 425.008 L321.745 425.008 L321.745 479.753 L310.924 479.753 Z" fill="#000000" fill-rule="nonzero" fill-opacity="1" /><polyline clip-path="url(#clip562)" style="stroke:#008000; stroke-linecap:round; stroke-linejoin:round; stroke-width:8; stroke-opacity:1; fill:none" points="726.443,206.927 844.372,304.801 962.301,458.531 1080.23,537.315 1198.16,443.057 1316.09,633.905 1434.02,678.099 1551.95,660.737 1669.87,808.699 1787.8,909.308 1905.73,889.899 2023.66,904.575 2141.59,968.466 2259.52,933.822 "/>
<circle clip-path="url(#clip562)" cx="726.443" cy="206.927" r="14.4" fill="#008000" fill-rule="evenodd" fill-opacity="1" stroke="#000000" stroke-opacity="1" stroke-width="6.4"/>
<circle clip-path="url(#clip562)" cx="844.372" cy="304.801" r="14.4" fill="#008000" fill-rule="evenodd" fill-opacity="1" stroke="#000000" stroke-opacity="1" stroke-width="6.4"/>
<circle clip-path="url(#clip562)" cx="962.301" cy="458.531" r="14.4" fill="#008000" fill-rule="evenodd" fill-opacity="1" stroke="#000000" stroke-opacity="1" stroke-width="6.4"/>
<circle clip-path="url(#clip562)" cx="1080.23" cy="537.315" r="14.4" fill="#008000" fill-rule="evenodd" fill-opacity="1" stroke="#000000" stroke-opacity="1" stroke-width="6.4"/>
<circle clip-path="url(#clip562)" cx="1198.16" cy="443.057" r="14.4" fill="#008000" fill-rule="evenodd" fill-opacity="1" stroke="#000000" stroke-opacity="1" stroke-width="6.4"/>
<circle clip-path="url(#clip562)" cx="1316.09" cy="633.905" r="14.4" fill="#008000" fill-rule="evenodd" fill-opacity="1" stroke="#000000" stroke-opacity="1" stroke-width="6.4"/>
<circle clip-path="url(#clip562)" cx="1434.02" cy="678.099" r="14.4" fill="#008000" fill-rule="evenodd" fill-opacity="1" stroke="#000000" stroke-opacity="1" stroke-width="6.4"/>
<circle clip-path="url(#clip562)" cx="1551.95" cy="660.737" r="14.4" fill="#008000" fill-rule="evenodd" fill-opacity="1" stroke="#000000" stroke-opacity="1" stroke-width="6.4"/>
<circle clip-path="url(#clip562)" cx="1669.87" cy="808.699" r="14.4" fill="#008000" fill-rule="evenodd" fill-opacity="1" stroke="#000000" stroke-opacity="1" stroke-width="6.4"/>
<circle clip-path="url(#clip562)" cx="1787.8" cy="909.308" r="14.4" fill="#008000" fill-rule="evenodd" fill-opacity="1" stroke="#000000" stroke-opacity="1" stroke-width="6.4"/>
<circle clip-path="url(#clip562)" cx="1905.73" cy="889.899" r="14.4" fill="#008000" fill-rule="evenodd" fill-opacity="1" stroke="#000000" stroke-opacity="1" stroke-width="6.4"/>
<circle clip-path="url(#clip562)" cx="2023.66" cy="904.575" r="14.4" fill="#008000" fill-rule="evenodd" fill-opacity="1" stroke="#000000" stroke-opacity="1" stroke-width="6.4"/>
<circle clip-path="url(#clip562)" cx="2141.59" cy="968.466" r="14.4" fill="#008000" fill-rule="evenodd" fill-opacity="1" stroke="#000000" stroke-opacity="1" stroke-width="6.4"/>
<circle clip-path="url(#clip562)" cx="2259.52" cy="933.822" r="14.4" fill="#008000" fill-rule="evenodd" fill-opacity="1" stroke="#000000" stroke-opacity="1" stroke-width="6.4"/>
<polyline clip-path="url(#clip562)" style="stroke:#00008b; stroke-linecap:round; stroke-linejoin:round; stroke-width:8; stroke-opacity:1; fill:none" points="726.443,159.464 844.372,862.758 962.301,882.131 1080.23,893.866 1198.16,907.215 1316.09,933.224 1434.02,949.386 1551.95,974.57 1669.87,1000.52 1787.8,1017.48 1905.73,1040.38 2023.66,1063.06 2141.59,1079.76 2259.52,1100.45 "/>
<path clip-path="url(#clip562)" d="M726.443 176.788 L844.372 947.429 L962.301 979.049 L1080.23 1020.33 L1198.16 1039.38 L1316.09 1068.78 L1434.02 1096.67 L1551.95 1127.39 L1669.87 1153.01 L1787.8 1173.76 L1905.73 1190.03 L2023.66 1215.69 L2141.59 1233.07 L2259.52 1240.32 L2259.52 1024.55 L2141.59 986.275 L2023.66 984.384 L1905.73 958.492 L1787.8 942.82 L1669.87 918.726 L1551.95 891.849 L1434.02 878.759 L1316.09 869.135 L1198.16 853.119 L1080.23 827.987 L962.301 840.842 L844.372 835.263 L726.443 127.862  Z" fill="#0000ff" fill-rule="evenodd" fill-opacity="0.1"/>
<polyline clip-path="url(#clip562)" style="stroke:#0000ff; stroke-linecap:round; stroke-linejoin:round; stroke-width:0; stroke-opacity:0.1; fill:none" points="726.443,176.788 844.372,947.429 962.301,979.049 1080.23,1020.33 1198.16,1039.38 1316.09,1068.78 1434.02,1096.67 1551.95,1127.39 1669.87,1153.01 1787.8,1173.76 1905.73,1190.03 2023.66,1215.69 2141.59,1233.07 2259.52,1240.32 "/>
</svg>
