<?xml version="1.0" encoding="utf-8"?>
<svg xmlns="http://www.w3.org/2000/svg" xmlns:xlink="http://www.w3.org/1999/xlink" width="600" height="400" viewBox="0 0 2400 1600">
<defs>
  <clipPath id="clip590">
    <rect x="0" y="0" width="2400" height="1600"/>
  </clipPath>
</defs>
<path clip-path="url(#clip590)" d="M0 1600 L2400 1600 L2400 0 L0 0  Z" fill="#ffffff" fill-rule="evenodd" fill-opacity="1"/>
<defs>
  <clipPath id="clip591">
    <rect x="480" y="0" width="1681" height="1600"/>
  </clipPath>
</defs>
<path clip-path="url(#clip590)" d="M559.803 1273.7 L2305.51 1273.7 L2305.51 94.4882 L559.803 94.4882  Z" fill="#ffffff" fill-rule="evenodd" fill-opacity="1"/>
<defs>
  <clipPath id="clip592">
    <rect x="559" y="94" width="1747" height="1180"/>
  </clipPath>
</defs>
<polyline clip-path="url(#clip592)" style="stroke:#000000; stroke-linecap:round; stroke-linejoin:round; stroke-width:4; stroke-opacity:0.1; fill:none" points="609.21,1273.7 609.21,94.4882 "/>
<polyline clip-path="url(#clip592)" style="stroke:#000000; stroke-linecap:round; stroke-linejoin:round; stroke-width:4; stroke-opacity:0.1; fill:none" points="952.313,1273.7 952.313,94.4882 "/>
<polyline clip-path="url(#clip592)" style="stroke:#000000; stroke-linecap:round; stroke-linejoin:round; stroke-width:4; stroke-opacity:0.1; fill:none" points="1295.42,1273.7 1295.42,94.4882 "/>
<polyline clip-path="url(#clip592)" style="stroke:#000000; stroke-linecap:round; stroke-linejoin:round; stroke-width:4; stroke-opacity:0.1; fill:none" points="1638.52,1273.7 1638.52,94.4882 "/>
<polyline clip-path="url(#clip592)" style="stroke:#000000; stroke-linecap:round; stroke-linejoin:round; stroke-width:4; stroke-opacity:0.1; fill:none" points="1981.62,1273.7 1981.62,94.4882 "/>
<polyline clip-path="url(#clip590)" style="stroke:#000000; stroke-linecap:round; stroke-linejoin:round; stroke-width:8; stroke-opacity:1; fill:none" points="559.803,1273.7 2305.51,1273.7 "/>
<polyline clip-path="url(#clip590)" style="stroke:#000000; stroke-linecap:round; stroke-linejoin:round; stroke-width:8; stroke-opacity:1; fill:none" points="609.21,1273.7 609.21,1254.8 "/>
<polyline clip-path="url(#clip590)" style="stroke:#000000; stroke-linecap:round; stroke-linejoin:round; stroke-width:8; stroke-opacity:1; fill:none" points="952.313,1273.7 952.313,1254.8 "/>
<polyline clip-path="url(#clip590)" style="stroke:#000000; stroke-linecap:round; stroke-linejoin:round; stroke-width:8; stroke-opacity:1; fill:none" points="1295.42,1273.7 1295.42,1254.8 "/>
<polyline clip-path="url(#clip590)" style="stroke:#000000; stroke-linecap:round; stroke-linejoin:round; stroke-width:8; stroke-opacity:1; fill:none" points="1638.52,1273.7 1638.52,1254.8 "/>
<polyline clip-path="url(#clip590)" style="stroke:#000000; stroke-linecap:round; stroke-linejoin:round; stroke-width:8; stroke-opacity:1; fill:none" points="1981.62,1273.7 1981.62,1254.8 "/>
<path clip-path="url(#clip590)" d="M609.21 1316.33 Q601.988 1316.33 598.33 1323.46 Q594.719 1330.55 594.719 1344.81 Q594.719 1359.02 598.33 1366.15 Q601.988 1373.23 609.21 1373.23 Q616.478 1373.23 620.089 1366.15 Q623.747 1359.02 623.747 1344.81 Q623.747 1330.55 620.089 1323.46 Q616.478 1316.33 609.21 1316.33 M609.21 1308.93 Q620.83 1308.93 626.941 1318.14 Q633.098 1327.31 633.098 1344.81 Q633.098 1362.26 626.941 1371.47 Q620.83 1380.64 609.21 1380.64 Q597.589 1380.64 591.432 1371.47 Q585.321 1362.26 585.321 1344.81 Q585.321 1327.31 591.432 1318.14 Q597.589 1308.93 609.21 1308.93 Z" fill="#000000" fill-rule="nonzero" fill-opacity="1" /><path clip-path="url(#clip590)" d="M910.855 1371.43 L943.494 1371.43 L943.494 1379.3 L899.605 1379.3 L899.605 1371.43 Q904.929 1365.92 914.096 1356.66 Q923.308 1347.35 925.67 1344.67 Q930.16 1339.62 931.919 1336.15 Q933.725 1332.63 933.725 1329.25 Q933.725 1323.74 929.836 1320.27 Q925.994 1316.8 919.79 1316.8 Q915.392 1316.8 910.484 1318.32 Q905.623 1319.85 900.068 1322.95 L900.068 1313.51 Q905.716 1311.24 910.623 1310.08 Q915.531 1308.93 919.605 1308.93 Q930.345 1308.93 936.734 1314.3 Q943.123 1319.67 943.123 1328.65 Q943.123 1332.91 941.503 1336.75 Q939.929 1340.55 935.716 1345.73 Q934.558 1347.07 928.355 1353.51 Q922.151 1359.9 910.855 1371.43 Z" fill="#000000" fill-rule="nonzero" fill-opacity="1" /><path clip-path="url(#clip590)" d="M963.216 1310.18 L999.928 1310.18 L999.928 1318.05 L971.78 1318.05 L971.78 1334.99 Q973.817 1334.3 975.854 1333.97 Q977.891 1333.6 979.928 1333.6 Q991.503 1333.6 998.262 1339.94 Q1005.02 1346.29 1005.02 1357.12 Q1005.02 1368.28 998.077 1374.48 Q991.132 1380.64 978.493 1380.64 Q974.141 1380.64 969.604 1379.9 Q965.114 1379.16 960.299 1377.68 L960.299 1368.28 Q964.466 1370.55 968.91 1371.66 Q973.354 1372.77 978.308 1372.77 Q986.317 1372.77 990.993 1368.56 Q995.669 1364.34 995.669 1357.12 Q995.669 1349.9 990.993 1345.68 Q986.317 1341.47 978.308 1341.47 Q974.558 1341.47 970.808 1342.31 Q967.104 1343.14 963.216 1344.9 L963.216 1310.18 Z" fill="#000000" fill-rule="nonzero" fill-opacity="1" /><path clip-path="url(#clip590)" d="M1244.81 1310.18 L1281.53 1310.18 L1281.53 1318.05 L1253.38 1318.05 L1253.38 1334.99 Q1255.42 1334.3 1257.45 1333.97 Q1259.49 1333.6 1261.53 1333.6 Q1273.1 1333.6 1279.86 1339.94 Q1286.62 1346.29 1286.62 1357.12 Q1286.62 1368.28 1279.68 1374.48 Q1272.73 1380.64 1260.09 1380.64 Q1255.74 1380.64 1251.2 1379.9 Q1246.71 1379.16 1241.9 1377.68 L1241.9 1368.28 Q1246.06 1370.55 1250.51 1371.66 Q1254.95 1372.77 1259.91 1372.77 Q1267.92 1372.77 1272.59 1368.56 Q1277.27 1364.34 1277.27 1357.12 Q1277.27 1349.9 1272.59 1345.68 Q1267.92 1341.47 1259.91 1341.47 Q1256.16 1341.47 1252.41 1342.31 Q1248.7 1343.14 1244.81 1344.9 L1244.81 1310.18 Z" fill="#000000" fill-rule="nonzero" fill-opacity="1" /><path clip-path="url(#clip590)" d="M1325.05 1316.33 Q1317.82 1316.33 1314.17 1323.46 Q1310.55 1330.55 1310.55 1344.81 Q1310.55 1359.02 1314.17 1366.15 Q1317.82 1373.23 1325.05 1373.23 Q1332.31 1373.23 1335.93 1366.15 Q1339.58 1359.02 1339.58 1344.81 Q1339.58 1330.55 1335.93 1323.46 Q1332.31 1316.33 1325.05 1316.33 M1325.05 1308.93 Q1336.67 1308.93 1342.78 1318.14 Q1348.93 1327.31 1348.93 1344.81 Q1348.93 1362.26 1342.78 1371.47 Q1336.67 1380.64 1325.05 1380.64 Q1313.43 1380.64 1307.27 1371.47 Q1301.16 1362.26 1301.16 1344.81 Q1301.16 1327.31 1307.27 1318.14 Q1313.43 1308.93 1325.05 1308.93 Z" fill="#000000" fill-rule="nonzero" fill-opacity="1" /><path clip-path="url(#clip590)" d="M1586.23 1310.18 L1630.67 1310.18 L1630.67 1314.16 L1605.58 1379.3 L1595.81 1379.3 L1619.42 1318.05 L1586.23 1318.05 L1586.23 1310.18 Z" fill="#000000" fill-rule="nonzero" fill-opacity="1" /><path clip-path="url(#clip590)" d="M1649.01 1310.18 L1685.72 1310.18 L1685.72 1318.05 L1657.57 1318.05 L1657.57 1334.99 Q1659.61 1334.3 1661.64 1333.97 Q1663.68 1333.6 1665.72 1333.6 Q1677.29 1333.6 1684.05 1339.94 Q1690.81 1346.29 1690.81 1357.12 Q1690.81 1368.28 1683.87 1374.48 Q1676.92 1380.64 1664.28 1380.64 Q1659.93 1380.64 1655.39 1379.9 Q1650.9 1379.16 1646.09 1377.68 L1646.09 1368.28 Q1650.26 1370.55 1654.7 1371.66 Q1659.14 1372.77 1664.1 1372.77 Q1672.11 1372.77 1676.78 1368.56 Q1681.46 1364.34 1681.46 1357.12 Q1681.46 1349.9 1676.78 1345.68 Q1672.11 1341.47 1664.1 1341.47 Q1660.35 1341.47 1656.6 1342.31 Q1652.89 1343.14 1649.01 1344.9 L1649.01 1310.18 Z" fill="#000000" fill-rule="nonzero" fill-opacity="1" /><path clip-path="url(#clip590)" d="M1900.84 1371.43 L1916.11 1371.43 L1916.11 1318.69 L1899.49 1322.03 L1899.49 1313.51 L1916.02 1310.18 L1925.37 1310.18 L1925.37 1371.43 L1940.65 1371.43 L1940.65 1379.3 L1900.84 1379.3 L1900.84 1371.43 Z" fill="#000000" fill-rule="nonzero" fill-opacity="1" /><path clip-path="url(#clip590)" d="M1979.54 1316.33 Q1972.32 1316.33 1968.66 1323.46 Q1965.05 1330.55 1965.05 1344.81 Q1965.05 1359.02 1968.66 1366.15 Q1972.32 1373.23 1979.54 1373.23 Q1986.81 1373.23 1990.42 1366.15 Q1994.08 1359.02 1994.08 1344.81 Q1994.08 1330.55 1990.42 1323.46 Q1986.81 1316.33 1979.54 1316.33 M1979.54 1308.93 Q1991.16 1308.93 1997.27 1318.14 Q2003.43 1327.31 2003.43 1344.81 Q2003.43 1362.26 1997.27 1371.47 Q1991.16 1380.64 1979.54 1380.64 Q1967.92 1380.64 1961.76 1371.47 Q1955.65 1362.26 1955.65 1344.81 Q1955.65 1327.31 1961.76 1318.14 Q1967.92 1308.93 1979.54 1308.93 Z" fill="#000000" fill-rule="nonzero" fill-opacity="1" /><path clip-path="url(#clip590)" d="M2039.86 1316.33 Q2032.64 1316.33 2028.98 1323.46 Q2025.37 1330.55 2025.37 1344.81 Q2025.37 1359.02 2028.98 1366.15 Q2032.64 1373.23 2039.86 1373.23 Q2047.13 1373.23 2050.74 1366.15 Q2054.4 1359.02 2054.4 1344.81 Q2054.4 1330.55 2050.74 1323.46 Q2047.13 1316.33 2039.86 1316.33 M2039.86 1308.93 Q2051.48 1308.93 2057.59 1318.14 Q2063.75 1327.31 2063.75 1344.81 Q2063.75 1362.26 2057.59 1371.47 Q2051.48 1380.64 2039.86 1380.64 Q2028.24 1380.64 2022.09 1371.47 Q2015.97 1362.26 2015.97 1344.81 Q2015.97 1327.31 2022.09 1318.14 Q2028.24 1308.93 2039.86 1308.93 Z" fill="#000000" fill-rule="nonzero" fill-opacity="1" /><path clip-path="url(#clip590)" d="M1233.86 1469.81 Q1238.25 1461.92 1244.36 1458.16 Q1250.47 1454.41 1258.75 1454.41 Q1269.89 1454.41 1275.93 1462.24 Q1281.98 1470.01 1281.98 1484.39 L1281.98 1527.42 L1270.2 1527.42 L1270.2 1484.77 Q1270.2 1474.52 1266.58 1469.56 Q1262.95 1464.59 1255.5 1464.59 Q1246.4 1464.59 1241.11 1470.64 Q1235.83 1476.69 1235.83 1487.13 L1235.83 1527.42 L1224.05 1527.42 L1224.05 1484.77 Q1224.05 1474.46 1220.42 1469.56 Q1216.8 1464.59 1209.22 1464.59 Q1200.25 1464.59 1194.96 1470.71 Q1189.68 1476.75 1189.68 1487.13 L1189.68 1527.42 L1177.9 1527.42 L1177.9 1456.13 L1189.68 1456.13 L1189.68 1467.2 Q1193.69 1460.65 1199.29 1457.53 Q1204.89 1454.41 1212.59 1454.41 Q1220.36 1454.41 1225.77 1458.36 Q1231.25 1462.3 1233.86 1469.81 Z" fill="#000000" fill-rule="nonzero" fill-opacity="1" /><path clip-path="url(#clip590)" d="M1305.34 1456.13 L1317.06 1456.13 L1317.06 1527.42 L1305.34 1527.42 L1305.34 1456.13 M1305.34 1428.37 L1317.06 1428.37 L1317.06 1443.21 L1305.34 1443.21 L1305.34 1428.37 Z" fill="#000000" fill-rule="nonzero" fill-opacity="1" /><path clip-path="url(#clip590)" d="M1400.83 1484.39 L1400.83 1527.42 L1389.12 1527.42 L1389.12 1484.77 Q1389.12 1474.65 1385.17 1469.62 Q1381.22 1464.59 1373.33 1464.59 Q1363.84 1464.59 1358.37 1470.64 Q1352.9 1476.69 1352.9 1487.13 L1352.9 1527.42 L1341.12 1527.42 L1341.12 1456.13 L1352.9 1456.13 L1352.9 1467.2 Q1357.1 1460.77 1362.76 1457.59 Q1368.49 1454.41 1375.94 1454.41 Q1388.22 1454.41 1394.53 1462.05 Q1400.83 1469.62 1400.83 1484.39 Z" fill="#000000" fill-rule="nonzero" fill-opacity="1" /><path clip-path="url(#clip590)" d="M1422.98 1499.29 L1422.98 1456.13 L1434.69 1456.13 L1434.69 1498.84 Q1434.69 1508.96 1438.64 1514.06 Q1442.59 1519.08 1450.48 1519.08 Q1459.97 1519.08 1465.44 1513.04 Q1470.98 1506.99 1470.98 1496.55 L1470.98 1456.13 L1482.69 1456.13 L1482.69 1527.42 L1470.98 1527.42 L1470.98 1516.47 Q1466.71 1522.97 1461.05 1526.15 Q1455.45 1529.27 1448 1529.27 Q1435.71 1529.27 1429.35 1521.63 Q1422.98 1513.99 1422.98 1499.29 M1452.45 1454.41 L1452.45 1454.41 Z" fill="#000000" fill-rule="nonzero" fill-opacity="1" /><path clip-path="url(#clip590)" d="M1518.4 1435.88 L1518.4 1456.13 L1542.53 1456.13 L1542.53 1465.23 L1518.4 1465.23 L1518.4 1503.93 Q1518.4 1512.66 1520.76 1515.14 Q1523.18 1517.62 1530.5 1517.62 L1542.53 1517.62 L1542.53 1527.42 L1530.5 1527.42 Q1516.94 1527.42 1511.78 1522.39 Q1506.63 1517.3 1506.63 1503.93 L1506.63 1465.23 L1498.03 1465.23 L1498.03 1456.13 L1506.63 1456.13 L1506.63 1435.88 L1518.4 1435.88 Z" fill="#000000" fill-rule="nonzero" fill-opacity="1" /><path clip-path="url(#clip590)" d="M1618.92 1488.85 L1618.92 1494.58 L1565.06 1494.58 Q1565.83 1506.67 1572.32 1513.04 Q1578.88 1519.34 1590.53 1519.34 Q1597.27 1519.34 1603.58 1517.68 Q1609.94 1516.03 1616.18 1512.72 L1616.18 1523.8 Q1609.88 1526.47 1603.26 1527.87 Q1596.64 1529.27 1589.83 1529.27 Q1572.77 1529.27 1562.77 1519.34 Q1552.84 1509.41 1552.84 1492.48 Q1552.84 1474.97 1562.26 1464.72 Q1571.75 1454.41 1587.79 1454.41 Q1602.18 1454.41 1610.52 1463.7 Q1618.92 1472.93 1618.92 1488.85 M1607.21 1485.41 Q1607.08 1475.8 1601.79 1470.07 Q1596.57 1464.34 1587.92 1464.34 Q1578.11 1464.34 1572.19 1469.88 Q1566.34 1475.42 1565.45 1485.47 L1607.21 1485.41 Z" fill="#000000" fill-rule="nonzero" fill-opacity="1" /><path clip-path="url(#clip590)" d="M1683.59 1458.23 L1683.59 1469.3 Q1678.63 1466.76 1673.28 1465.49 Q1667.93 1464.21 1662.2 1464.21 Q1653.48 1464.21 1649.09 1466.89 Q1644.76 1469.56 1644.76 1474.91 Q1644.76 1478.98 1647.88 1481.34 Q1651 1483.63 1660.42 1485.73 L1664.43 1486.62 Q1676.91 1489.29 1682.13 1494.19 Q1687.41 1499.03 1687.41 1507.75 Q1687.41 1517.68 1679.52 1523.48 Q1671.69 1529.27 1657.94 1529.27 Q1652.21 1529.27 1645.97 1528.12 Q1639.8 1527.04 1632.92 1524.81 L1632.92 1512.72 Q1639.42 1516.09 1645.72 1517.81 Q1652.02 1519.47 1658.19 1519.47 Q1666.47 1519.47 1670.93 1516.67 Q1675.38 1513.8 1675.38 1508.64 Q1675.38 1503.87 1672.14 1501.32 Q1668.95 1498.78 1658.07 1496.42 L1653.99 1495.47 Q1643.11 1493.18 1638.27 1488.47 Q1633.43 1483.69 1633.43 1475.42 Q1633.43 1465.36 1640.56 1459.88 Q1647.69 1454.41 1660.8 1454.41 Q1667.3 1454.41 1673.03 1455.36 Q1678.76 1456.32 1683.59 1458.23 Z" fill="#000000" fill-rule="nonzero" fill-opacity="1" /><polyline clip-path="url(#clip592)" style="stroke:#000000; stroke-linecap:round; stroke-linejoin:round; stroke-width:4; stroke-opacity:0.1; fill:none" points="559.803,1194.65 2305.51,1194.65 "/>
<polyline clip-path="url(#clip592)" style="stroke:#000000; stroke-linecap:round; stroke-linejoin:round; stroke-width:4; stroke-opacity:0.1; fill:none" points="559.803,1026.68 2305.51,1026.68 "/>
<polyline clip-path="url(#clip592)" style="stroke:#000000; stroke-linecap:round; stroke-linejoin:round; stroke-width:4; stroke-opacity:0.1; fill:none" points="559.803,858.708 2305.51,858.708 "/>
<polyline clip-path="url(#clip592)" style="stroke:#000000; stroke-linecap:round; stroke-linejoin:round; stroke-width:4; stroke-opacity:0.1; fill:none" points="559.803,690.739 2305.51,690.739 "/>
<polyline clip-path="url(#clip592)" style="stroke:#000000; stroke-linecap:round; stroke-linejoin:round; stroke-width:4; stroke-opacity:0.1; fill:none" points="559.803,522.769 2305.51,522.769 "/>
<polyline clip-path="url(#clip592)" style="stroke:#000000; stroke-linecap:round; stroke-linejoin:round; stroke-width:4; stroke-opacity:0.1; fill:none" points="559.803,354.799 2305.51,354.799 "/>
<polyline clip-path="url(#clip592)" style="stroke:#000000; stroke-linecap:round; stroke-linejoin:round; stroke-width:4; stroke-opacity:0.1; fill:none" points="559.803,186.829 2305.51,186.829 "/>
<polyline clip-path="url(#clip590)" style="stroke:#000000; stroke-linecap:round; stroke-linejoin:round; stroke-width:8; stroke-opacity:1; fill:none" points="559.803,1273.7 559.803,94.4882 "/>
<polyline clip-path="url(#clip590)" style="stroke:#000000; stroke-linecap:round; stroke-linejoin:round; stroke-width:8; stroke-opacity:1; fill:none" points="559.803,1194.65 578.701,1194.65 "/>
<polyline clip-path="url(#clip590)" style="stroke:#000000; stroke-linecap:round; stroke-linejoin:round; stroke-width:8; stroke-opacity:1; fill:none" points="559.803,1026.68 578.701,1026.68 "/>
<polyline clip-path="url(#clip590)" style="stroke:#000000; stroke-linecap:round; stroke-linejoin:round; stroke-width:8; stroke-opacity:1; fill:none" points="559.803,858.708 578.701,858.708 "/>
<polyline clip-path="url(#clip590)" style="stroke:#000000; stroke-linecap:round; stroke-linejoin:round; stroke-width:8; stroke-opacity:1; fill:none" points="559.803,690.739 578.701,690.739 "/>
<polyline clip-path="url(#clip590)" style="stroke:#000000; stroke-linecap:round; stroke-linejoin:round; stroke-width:8; stroke-opacity:1; fill:none" points="559.803,522.769 578.701,522.769 "/>
<polyline clip-path="url(#clip590)" style="stroke:#000000; stroke-linecap:round; stroke-linejoin:round; stroke-width:8; stroke-opacity:1; fill:none" points="559.803,354.799 578.701,354.799 "/>
<polyline clip-path="url(#clip590)" style="stroke:#000000; stroke-linecap:round; stroke-linejoin:round; stroke-width:8; stroke-opacity:1; fill:none" points="559.803,186.829 578.701,186.829 "/>
<path clip-path="url(#clip590)" d="M330.748 1221.34 L346.026 1221.34 L346.026 1168.61 L329.406 1171.94 L329.406 1163.42 L345.933 1160.09 L355.285 1160.09 L355.285 1221.34 L370.563 1221.34 L370.563 1229.21 L330.748 1229.21 L330.748 1221.34 Z" fill="#000000" fill-rule="nonzero" fill-opacity="1" /><path clip-path="url(#clip590)" d="M415.146 1168.24 L391.535 1205.13 L415.146 1205.13 L415.146 1168.24 M412.692 1160.09 L424.452 1160.09 L424.452 1205.13 L434.313 1205.13 L434.313 1212.91 L424.452 1212.91 L424.452 1229.21 L415.146 1229.21 L415.146 1212.91 L383.943 1212.91 L383.943 1203.88 L412.692 1160.09 Z" fill="#000000" fill-rule="nonzero" fill-opacity="1" /><path clip-path="url(#clip590)" d="M449.775 1217.45 L459.544 1217.45 L459.544 1229.21 L449.775 1229.21 L449.775 1217.45 Z" fill="#000000" fill-rule="nonzero" fill-opacity="1" /><path clip-path="url(#clip590)" d="M499.914 1166.25 Q492.692 1166.25 489.035 1173.37 Q485.423 1180.46 485.423 1194.72 Q485.423 1208.93 489.035 1216.06 Q492.692 1223.14 499.914 1223.14 Q507.183 1223.14 510.794 1216.06 Q514.451 1208.93 514.451 1194.72 Q514.451 1180.46 510.794 1173.37 Q507.183 1166.25 499.914 1166.25 M499.914 1158.84 Q511.534 1158.84 517.645 1168.05 Q523.803 1177.22 523.803 1194.72 Q523.803 1212.17 517.645 1221.38 Q511.534 1230.55 499.914 1230.55 Q488.294 1230.55 482.136 1221.38 Q476.025 1212.17 476.025 1194.72 Q476.025 1177.22 482.136 1168.05 Q488.294 1158.84 499.914 1158.84 Z" fill="#000000" fill-rule="nonzero" fill-opacity="1" /><path clip-path="url(#clip590)" d="M330.748 1053.37 L346.026 1053.37 L346.026 1000.64 L329.406 1003.97 L329.406 995.451 L345.933 992.118 L355.285 992.118 L355.285 1053.37 L370.563 1053.37 L370.563 1061.24 L330.748 1061.24 L330.748 1053.37 Z" fill="#000000" fill-rule="nonzero" fill-opacity="1" /><path clip-path="url(#clip590)" d="M389.544 992.118 L426.257 992.118 L426.257 999.988 L398.109 999.988 L398.109 1016.93 Q400.146 1016.24 402.183 1015.91 Q404.22 1015.54 406.257 1015.54 Q417.831 1015.54 424.59 1021.89 Q431.35 1028.23 431.35 1039.06 Q431.35 1050.22 424.405 1056.42 Q417.461 1062.58 404.822 1062.58 Q400.47 1062.58 395.933 1061.84 Q391.442 1061.1 386.628 1059.62 L386.628 1050.22 Q390.794 1052.49 395.239 1053.6 Q399.683 1054.71 404.637 1054.71 Q412.646 1054.71 417.322 1050.5 Q421.998 1046.28 421.998 1039.06 Q421.998 1031.84 417.322 1027.63 Q412.646 1023.41 404.637 1023.41 Q400.887 1023.41 397.137 1024.25 Q393.433 1025.08 389.544 1026.84 L389.544 992.118 Z" fill="#000000" fill-rule="nonzero" fill-opacity="1" /><path clip-path="url(#clip590)" d="M449.775 1049.48 L459.544 1049.48 L459.544 1061.24 L449.775 1061.24 L449.775 1049.48 Z" fill="#000000" fill-rule="nonzero" fill-opacity="1" /><path clip-path="url(#clip590)" d="M499.914 998.276 Q492.692 998.276 489.035 1005.41 Q485.423 1012.49 485.423 1026.75 Q485.423 1040.96 489.035 1048.09 Q492.692 1055.17 499.914 1055.17 Q507.183 1055.17 510.794 1048.09 Q514.451 1040.96 514.451 1026.75 Q514.451 1012.49 510.794 1005.41 Q507.183 998.276 499.914 998.276 M499.914 990.868 Q511.534 990.868 517.645 1000.08 Q523.803 1009.25 523.803 1026.75 Q523.803 1044.2 517.645 1053.41 Q511.534 1062.58 499.914 1062.58 Q488.294 1062.58 482.136 1053.41 Q476.025 1044.2 476.025 1026.75 Q476.025 1009.25 482.136 1000.08 Q488.294 990.868 499.914 990.868 Z" fill="#000000" fill-rule="nonzero" fill-opacity="1" /><path clip-path="url(#clip590)" d="M330.748 885.398 L346.026 885.398 L346.026 832.667 L329.406 836 L329.406 827.482 L345.933 824.148 L355.285 824.148 L355.285 885.398 L370.563 885.398 L370.563 893.268 L330.748 893.268 L330.748 885.398 Z" fill="#000000" fill-rule="nonzero" fill-opacity="1" /><path clip-path="url(#clip590)" d="M410.609 854.982 Q404.313 854.982 400.609 859.287 Q396.952 863.593 396.952 871.093 Q396.952 878.546 400.609 882.898 Q404.313 887.204 410.609 887.204 Q416.905 887.204 420.563 882.898 Q424.266 878.546 424.266 871.093 Q424.266 863.593 420.563 859.287 Q416.905 854.982 410.609 854.982 M429.174 825.676 L429.174 834.195 Q425.655 832.528 422.044 831.648 Q418.479 830.769 414.961 830.769 Q405.702 830.769 400.794 837.019 Q395.933 843.269 395.239 855.907 Q397.97 851.88 402.091 849.75 Q406.211 847.574 411.165 847.574 Q421.581 847.574 427.6 853.917 Q433.664 860.213 433.664 871.093 Q433.664 881.741 427.368 888.176 Q421.072 894.611 410.609 894.611 Q398.618 894.611 392.276 885.444 Q385.933 876.231 385.933 858.778 Q385.933 842.389 393.711 832.667 Q401.489 822.898 414.59 822.898 Q418.109 822.898 421.674 823.593 Q425.285 824.287 429.174 825.676 Z" fill="#000000" fill-rule="nonzero" fill-opacity="1" /><path clip-path="url(#clip590)" d="M449.775 881.509 L459.544 881.509 L459.544 893.268 L449.775 893.268 L449.775 881.509 Z" fill="#000000" fill-rule="nonzero" fill-opacity="1" /><path clip-path="url(#clip590)" d="M499.914 830.306 Q492.692 830.306 489.035 837.435 Q485.423 844.519 485.423 858.778 Q485.423 872.991 489.035 880.12 Q492.692 887.204 499.914 887.204 Q507.183 887.204 510.794 880.12 Q514.451 872.991 514.451 858.778 Q514.451 844.519 510.794 837.435 Q507.183 830.306 499.914 830.306 M499.914 822.898 Q511.534 822.898 517.645 832.111 Q523.803 841.278 523.803 858.778 Q523.803 876.231 517.645 885.444 Q511.534 894.611 499.914 894.611 Q488.294 894.611 482.136 885.444 Q476.025 876.231 476.025 858.778 Q476.025 841.278 482.136 832.111 Q488.294 822.898 499.914 822.898 Z" fill="#000000" fill-rule="nonzero" fill-opacity="1" /><path clip-path="url(#clip590)" d="M330.748 717.428 L346.026 717.428 L346.026 664.697 L329.406 668.03 L329.406 659.512 L345.933 656.179 L355.285 656.179 L355.285 717.428 L370.563 717.428 L370.563 725.299 L330.748 725.299 L330.748 717.428 Z" fill="#000000" fill-rule="nonzero" fill-opacity="1" /><path clip-path="url(#clip590)" d="M387.091 656.179 L431.535 656.179 L431.535 660.16 L406.442 725.299 L396.674 725.299 L420.285 664.049 L387.091 664.049 L387.091 656.179 Z" fill="#000000" fill-rule="nonzero" fill-opacity="1" /><path clip-path="url(#clip590)" d="M449.775 713.539 L459.544 713.539 L459.544 725.299 L449.775 725.299 L449.775 713.539 Z" fill="#000000" fill-rule="nonzero" fill-opacity="1" /><path clip-path="url(#clip590)" d="M499.914 662.336 Q492.692 662.336 489.035 669.466 Q485.423 676.549 485.423 690.808 Q485.423 705.021 489.035 712.15 Q492.692 719.234 499.914 719.234 Q507.183 719.234 510.794 712.15 Q514.451 705.021 514.451 690.808 Q514.451 676.549 510.794 669.466 Q507.183 662.336 499.914 662.336 M499.914 654.929 Q511.534 654.929 517.645 664.141 Q523.803 673.308 523.803 690.808 Q523.803 708.262 517.645 717.475 Q511.534 726.641 499.914 726.641 Q488.294 726.641 482.136 717.475 Q476.025 708.262 476.025 690.808 Q476.025 673.308 482.136 664.141 Q488.294 654.929 499.914 654.929 Z" fill="#000000" fill-rule="nonzero" fill-opacity="1" /><path clip-path="url(#clip590)" d="M330.748 549.458 L346.026 549.458 L346.026 496.727 L329.406 500.061 L329.406 491.542 L345.933 488.209 L355.285 488.209 L355.285 549.458 L370.563 549.458 L370.563 557.329 L330.748 557.329 L330.748 549.458 Z" fill="#000000" fill-rule="nonzero" fill-opacity="1" /><path clip-path="url(#clip590)" d="M409.452 524.505 Q402.785 524.505 398.942 528.07 Q395.146 531.634 395.146 537.884 Q395.146 544.134 398.942 547.699 Q402.785 551.264 409.452 551.264 Q416.118 551.264 419.961 547.699 Q423.803 544.088 423.803 537.884 Q423.803 531.634 419.961 528.07 Q416.165 524.505 409.452 524.505 M400.1 520.523 Q394.081 519.042 390.702 514.922 Q387.368 510.801 387.368 504.875 Q387.368 496.588 393.248 491.774 Q399.174 486.959 409.452 486.959 Q419.776 486.959 425.655 491.774 Q431.535 496.588 431.535 504.875 Q431.535 510.801 428.155 514.922 Q424.822 519.042 418.85 520.523 Q425.609 522.097 429.359 526.681 Q433.155 531.264 433.155 537.884 Q433.155 547.931 426.998 553.301 Q420.887 558.671 409.452 558.671 Q398.017 558.671 391.859 553.301 Q385.748 547.931 385.748 537.884 Q385.748 531.264 389.544 526.681 Q393.341 522.097 400.1 520.523 M396.674 505.755 Q396.674 511.125 400.007 514.135 Q403.387 517.144 409.452 517.144 Q415.47 517.144 418.85 514.135 Q422.276 511.125 422.276 505.755 Q422.276 500.385 418.85 497.375 Q415.47 494.366 409.452 494.366 Q403.387 494.366 400.007 497.375 Q396.674 500.385 396.674 505.755 Z" fill="#000000" fill-rule="nonzero" fill-opacity="1" /><path clip-path="url(#clip590)" d="M449.775 545.57 L459.544 545.57 L459.544 557.329 L449.775 557.329 L449.775 545.57 Z" fill="#000000" fill-rule="nonzero" fill-opacity="1" /><path clip-path="url(#clip590)" d="M499.914 494.366 Q492.692 494.366 489.035 501.496 Q485.423 508.579 485.423 522.838 Q485.423 537.051 489.035 544.181 Q492.692 551.264 499.914 551.264 Q507.183 551.264 510.794 544.181 Q514.451 537.051 514.451 522.838 Q514.451 508.579 510.794 501.496 Q507.183 494.366 499.914 494.366 M499.914 486.959 Q511.534 486.959 517.645 496.172 Q523.803 505.338 523.803 522.838 Q523.803 540.292 517.645 549.505 Q511.534 558.671 499.914 558.671 Q488.294 558.671 482.136 549.505 Q476.025 540.292 476.025 522.838 Q476.025 505.338 482.136 496.172 Q488.294 486.959 499.914 486.959 Z" fill="#000000" fill-rule="nonzero" fill-opacity="1" /><path clip-path="url(#clip590)" d="M330.748 381.489 L346.026 381.489 L346.026 328.757 L329.406 332.091 L329.406 323.572 L345.933 320.239 L355.285 320.239 L355.285 381.489 L370.563 381.489 L370.563 389.359 L330.748 389.359 L330.748 381.489 Z" fill="#000000" fill-rule="nonzero" fill-opacity="1" /><path clip-path="url(#clip590)" d="M389.73 387.924 L389.73 379.405 Q393.248 381.072 396.859 381.952 Q400.47 382.831 403.942 382.831 Q413.202 382.831 418.063 376.628 Q422.97 370.378 423.665 357.692 Q420.979 361.674 416.859 363.804 Q412.739 365.933 407.739 365.933 Q397.368 365.933 391.304 359.683 Q385.285 353.387 385.285 342.507 Q385.285 331.859 391.581 325.424 Q397.878 318.989 408.341 318.989 Q420.331 318.989 426.627 328.202 Q432.97 337.368 432.97 354.868 Q432.97 371.211 425.192 380.979 Q417.461 390.702 404.359 390.702 Q400.841 390.702 397.229 390.007 Q393.618 389.313 389.73 387.924 M408.341 358.618 Q414.637 358.618 418.294 354.313 Q421.998 350.007 421.998 342.507 Q421.998 335.054 418.294 330.748 Q414.637 326.396 408.341 326.396 Q402.044 326.396 398.341 330.748 Q394.683 335.054 394.683 342.507 Q394.683 350.007 398.341 354.313 Q402.044 358.618 408.341 358.618 Z" fill="#000000" fill-rule="nonzero" fill-opacity="1" /><path clip-path="url(#clip590)" d="M449.775 377.6 L459.544 377.6 L459.544 389.359 L449.775 389.359 L449.775 377.6 Z" fill="#000000" fill-rule="nonzero" fill-opacity="1" /><path clip-path="url(#clip590)" d="M499.914 326.396 Q492.692 326.396 489.035 333.526 Q485.423 340.609 485.423 354.868 Q485.423 369.081 489.035 376.211 Q492.692 383.294 499.914 383.294 Q507.183 383.294 510.794 376.211 Q514.451 369.081 514.451 354.868 Q514.451 340.609 510.794 333.526 Q507.183 326.396 499.914 326.396 M499.914 318.989 Q511.534 318.989 517.645 328.202 Q523.803 337.368 523.803 354.868 Q523.803 372.322 517.645 381.535 Q511.534 390.702 499.914 390.702 Q488.294 390.702 482.136 381.535 Q476.025 372.322 476.025 354.868 Q476.025 337.368 482.136 328.202 Q488.294 318.989 499.914 318.989 Z" fill="#000000" fill-rule="nonzero" fill-opacity="1" /><path clip-path="url(#clip590)" d="M337.184 213.519 L369.822 213.519 L369.822 221.389 L325.934 221.389 L325.934 213.519 Q331.258 208.01 340.424 198.75 Q349.637 189.445 351.998 186.76 Q356.489 181.713 358.248 178.241 Q360.054 174.723 360.054 171.343 Q360.054 165.834 356.165 162.362 Q352.322 158.89 346.119 158.89 Q341.721 158.89 336.813 160.417 Q331.952 161.945 326.397 165.047 L326.397 155.602 Q332.045 153.334 336.952 152.177 Q341.859 151.019 345.933 151.019 Q356.674 151.019 363.063 156.39 Q369.452 161.76 369.452 170.741 Q369.452 175.001 367.831 178.843 Q366.257 182.639 362.044 187.825 Q360.887 189.167 354.683 195.602 Q348.48 201.991 337.184 213.519 Z" fill="#000000" fill-rule="nonzero" fill-opacity="1" /><path clip-path="url(#clip590)" d="M409.452 158.427 Q402.229 158.427 398.572 165.556 Q394.961 172.639 394.961 186.899 Q394.961 201.112 398.572 208.241 Q402.229 215.324 409.452 215.324 Q416.72 215.324 420.331 208.241 Q423.989 201.112 423.989 186.899 Q423.989 172.639 420.331 165.556 Q416.72 158.427 409.452 158.427 M409.452 151.019 Q421.072 151.019 427.183 160.232 Q433.34 169.399 433.34 186.899 Q433.34 204.352 427.183 213.565 Q421.072 222.732 409.452 222.732 Q397.831 222.732 391.674 213.565 Q385.563 204.352 385.563 186.899 Q385.563 169.399 391.674 160.232 Q397.831 151.019 409.452 151.019 Z" fill="#000000" fill-rule="nonzero" fill-opacity="1" /><path clip-path="url(#clip590)" d="M449.775 209.63 L459.544 209.63 L459.544 221.389 L449.775 221.389 L449.775 209.63 Z" fill="#000000" fill-rule="nonzero" fill-opacity="1" /><path clip-path="url(#clip590)" d="M499.914 158.427 Q492.692 158.427 489.035 165.556 Q485.423 172.639 485.423 186.899 Q485.423 201.112 489.035 208.241 Q492.692 215.324 499.914 215.324 Q507.183 215.324 510.794 208.241 Q514.451 201.112 514.451 186.899 Q514.451 172.639 510.794 165.556 Q507.183 158.427 499.914 158.427 M499.914 151.019 Q511.534 151.019 517.645 160.232 Q523.803 169.399 523.803 186.899 Q523.803 204.352 517.645 213.565 Q511.534 222.732 499.914 222.732 Q488.294 222.732 482.136 213.565 Q476.025 204.352 476.025 186.899 Q476.025 169.399 482.136 160.232 Q488.294 151.019 499.914 151.019 Z" fill="#000000" fill-rule="nonzero" fill-opacity="1" /><path clip-path="url(#clip590)" d="M288.539 755.483 L190.126 755.483 L190.126 743.77 L234.431 743.77 Q243.661 743.77 248.372 739.378 Q253.082 734.986 253.082 726.392 Q253.082 716.971 247.735 712.26 Q242.388 707.486 231.694 707.486 L190.126 707.486 L190.126 695.773 L244.998 695.773 Q248.817 695.773 250.664 694.691 Q252.446 693.545 252.446 691.19 Q252.446 690.617 252.128 689.598 Q251.746 688.58 250.982 686.797 L260.403 686.797 Q261.867 689.407 262.567 691.763 Q263.268 694.054 263.268 696.282 Q263.268 700.675 260.785 703.285 Q258.302 705.895 253.21 706.849 Q258.239 710.032 260.785 714.679 Q263.268 719.262 263.268 725.501 Q263.268 731.994 260.785 736.577 Q258.302 741.097 253.337 743.77 L288.539 743.77 L288.539 755.483 Z" fill="#000000" fill-rule="nonzero" fill-opacity="1" /><path clip-path="url(#clip590)" d="M224.946 624.413 Q212.215 624.413 205.212 629.697 Q198.21 634.917 198.21 644.402 Q198.21 653.823 205.212 659.107 Q212.215 664.326 224.946 664.326 Q237.614 664.326 244.616 659.107 Q251.618 653.823 251.618 644.402 Q251.618 634.917 244.616 629.697 Q237.614 624.413 224.946 624.413 M252.573 612.701 Q270.779 612.701 279.627 620.785 Q288.539 628.869 288.539 645.548 Q288.539 651.722 287.585 657.197 Q286.693 662.671 284.784 667.828 L273.389 667.828 Q276.19 662.671 277.527 657.642 Q278.864 652.614 278.864 647.394 Q278.864 635.872 272.816 630.143 Q266.832 624.413 254.674 624.413 L248.881 624.413 Q255.183 628.042 258.302 633.707 Q261.422 639.373 261.422 647.266 Q261.422 660.38 251.427 668.401 Q241.433 676.421 224.946 676.421 Q208.395 676.421 198.401 668.401 Q188.407 660.38 188.407 647.266 Q188.407 639.373 191.526 633.707 Q194.645 628.042 200.947 624.413 L190.126 624.413 L190.126 612.701 L252.573 612.701 Z" fill="#000000" fill-rule="nonzero" fill-opacity="1" /><circle clip-path="url(#clip592)" cx="609.21" cy="186.829" r="14.4" fill="#008000" fill-rule="evenodd" fill-opacity="1" stroke="#000000" stroke-opacity="1" stroke-width="6.4"/>
<circle clip-path="url(#clip592)" cx="2256.1" cy="946.693" r="14.4" fill="#008000" fill-rule="evenodd" fill-opacity="1" stroke="#000000" stroke-opacity="1" stroke-width="6.4"/>
<path clip-path="url(#clip592)" d="M609.21 320.147 L2256.1 1240.32 L2256.1 1023.97 L609.21 127.862  Z" fill="#0000ff" fill-rule="evenodd" fill-opacity="0.1"/>
<polyline clip-path="url(#clip592)" style="stroke:#0000ff; stroke-linecap:round; stroke-linejoin:round; stroke-width:0; stroke-opacity:0.1; fill:none" points="609.21,320.147 2256.1,1240.32 "/>
<path clip-path="url(#clip590)" d="M1795.02 444.835 L2247.32 444.835 L2247.32 133.795 L1795.02 133.795  Z" fill="#ffffff" fill-rule="evenodd" fill-opacity="1"/>
<polyline clip-path="url(#clip590)" style="stroke:#000000; stroke-linecap:round; stroke-linejoin:round; stroke-width:8; stroke-opacity:1; fill:none" points="1795.02,444.835 2247.32,444.835 2247.32,133.795 1795.02,133.795 1795.02,444.835 "/>
<polyline clip-path="url(#clip590)" style="stroke:#008000; stroke-linecap:round; stroke-linejoin:round; stroke-width:8; stroke-opacity:1; fill:none" points="1814.42,237.475 1930.8,237.475 "/>
<circle clip-path="url(#clip590)" cx="1872.61" cy="237.475" r="8.08199" fill="#008000" fill-rule="evenodd" fill-opacity="1" stroke="#000000" stroke-opacity="1" stroke-width="7.18399"/>
<path clip-path="url(#clip590)" d="M1959.55 210.6 L1959.55 236.572 L1971.31 236.572 Q1977.83 236.572 1981.4 233.193 Q1984.96 229.813 1984.96 223.563 Q1984.96 217.359 1981.4 213.98 Q1977.83 210.6 1971.31 210.6 L1959.55 210.6 M1950.19 202.915 L1971.31 202.915 Q1982.93 202.915 1988.85 208.193 Q1994.82 213.424 1994.82 223.563 Q1994.82 233.795 1988.85 239.026 Q1982.93 244.257 1971.31 244.257 L1959.55 244.257 L1959.55 272.035 L1950.19 272.035 L1950.19 202.915 Z" fill="#000000" fill-rule="nonzero" fill-opacity="1" /><path clip-path="url(#clip590)" d="M2007 199.998 L2015.52 199.998 L2015.52 272.035 L2007 272.035 L2007 199.998 Z" fill="#000000" fill-rule="nonzero" fill-opacity="1" /><path clip-path="url(#clip590)" d="M2056.91 245.97 Q2046.58 245.97 2042.6 248.332 Q2038.62 250.693 2038.62 256.387 Q2038.62 260.924 2041.58 263.609 Q2044.59 266.248 2049.73 266.248 Q2056.81 266.248 2061.07 261.248 Q2065.38 256.202 2065.38 247.869 L2065.38 245.97 L2056.91 245.97 M2073.9 242.452 L2073.9 272.035 L2065.38 272.035 L2065.38 264.165 Q2062.46 268.887 2058.11 271.155 Q2053.76 273.378 2047.46 273.378 Q2039.5 273.378 2034.78 268.933 Q2030.1 264.443 2030.1 256.943 Q2030.1 248.193 2035.94 243.748 Q2041.81 239.304 2053.43 239.304 L2065.38 239.304 L2065.38 238.47 Q2065.38 232.591 2061.49 229.396 Q2057.65 226.156 2050.66 226.156 Q2046.21 226.156 2042 227.221 Q2037.79 228.285 2033.9 230.415 L2033.9 222.545 Q2038.57 220.739 2042.97 219.859 Q2047.37 218.934 2051.54 218.934 Q2062.79 218.934 2068.34 224.767 Q2073.9 230.6 2073.9 242.452 Z" fill="#000000" fill-rule="nonzero" fill-opacity="1" /><polyline clip-path="url(#clip590)" style="stroke:#00008b; stroke-linecap:round; stroke-linejoin:round; stroke-width:8; stroke-opacity:1; fill:none" points="1814.42,341.155 1930.8,341.155 "/>
<path clip-path="url(#clip590)" d="M1990.89 333.817 Q1994.08 328.076 1998.53 325.345 Q2002.97 322.614 2008.99 322.614 Q2017.09 322.614 2021.49 328.308 Q2025.89 333.956 2025.89 344.419 L2025.89 375.715 L2017.32 375.715 L2017.32 344.697 Q2017.32 337.243 2014.69 333.632 Q2012.05 330.021 2006.63 330.021 Q2000.01 330.021 1996.17 334.419 Q1992.32 338.817 1992.32 346.41 L1992.32 375.715 L1983.76 375.715 L1983.76 344.697 Q1983.76 337.197 1981.12 333.632 Q1978.48 330.021 1972.97 330.021 Q1966.44 330.021 1962.6 334.465 Q1958.76 338.863 1958.76 346.41 L1958.76 375.715 L1950.19 375.715 L1950.19 323.864 L1958.76 323.864 L1958.76 331.919 Q1961.68 327.151 1965.75 324.882 Q1969.82 322.614 1975.43 322.614 Q1981.07 322.614 1985.01 325.484 Q1988.99 328.354 1990.89 333.817 Z" fill="#000000" fill-rule="nonzero" fill-opacity="1" /><path clip-path="url(#clip590)" d="M2062.97 329.836 Q2056.12 329.836 2052.14 335.206 Q2048.16 340.53 2048.16 349.836 Q2048.16 359.141 2052.09 364.511 Q2056.07 369.836 2062.97 369.836 Q2069.78 369.836 2073.76 364.465 Q2077.74 359.095 2077.74 349.836 Q2077.74 340.623 2073.76 335.252 Q2069.78 329.836 2062.97 329.836 M2062.97 322.614 Q2074.08 322.614 2080.43 329.836 Q2086.77 337.058 2086.77 349.836 Q2086.77 362.567 2080.43 369.836 Q2074.08 377.058 2062.97 377.058 Q2051.81 377.058 2045.47 369.836 Q2039.18 362.567 2039.18 349.836 Q2039.18 337.058 2045.47 329.836 Q2051.81 322.614 2062.97 322.614 Z" fill="#000000" fill-rule="nonzero" fill-opacity="1" /><path clip-path="url(#clip590)" d="M2135.01 331.734 L2135.01 303.678 L2143.53 303.678 L2143.53 375.715 L2135.01 375.715 L2135.01 367.937 Q2132.32 372.567 2128.2 374.835 Q2124.13 377.058 2118.39 377.058 Q2108.99 377.058 2103.06 369.558 Q2097.18 362.058 2097.18 349.836 Q2097.18 337.613 2103.06 330.114 Q2108.99 322.614 2118.39 322.614 Q2124.13 322.614 2128.2 324.882 Q2132.32 327.104 2135.01 331.734 M2105.98 349.836 Q2105.98 359.234 2109.82 364.604 Q2113.71 369.928 2120.47 369.928 Q2127.23 369.928 2131.12 364.604 Q2135.01 359.234 2135.01 349.836 Q2135.01 340.438 2131.12 335.113 Q2127.23 329.743 2120.47 329.743 Q2113.71 329.743 2109.82 335.113 Q2105.98 340.438 2105.98 349.836 Z" fill="#000000" fill-rule="nonzero" fill-opacity="1" /><path clip-path="url(#clip590)" d="M2205.42 347.66 L2205.42 351.826 L2166.26 351.826 Q2166.81 360.623 2171.54 365.252 Q2176.3 369.836 2184.78 369.836 Q2189.68 369.836 2194.27 368.632 Q2198.9 367.428 2203.43 365.021 L2203.43 373.076 Q2198.85 375.021 2194.04 376.039 Q2189.22 377.058 2184.27 377.058 Q2171.86 377.058 2164.59 369.836 Q2157.37 362.613 2157.37 350.299 Q2157.37 337.567 2164.22 330.114 Q2171.12 322.614 2182.79 322.614 Q2193.25 322.614 2199.31 329.373 Q2205.42 336.086 2205.42 347.66 M2196.91 345.16 Q2196.81 338.169 2192.97 334.002 Q2189.17 329.836 2182.88 329.836 Q2175.75 329.836 2171.44 333.863 Q2167.18 337.891 2166.54 345.206 L2196.91 345.16 Z" fill="#000000" fill-rule="nonzero" fill-opacity="1" /><path clip-path="url(#clip590)" d="M2219.41 303.678 L2227.92 303.678 L2227.92 375.715 L2219.41 375.715 L2219.41 303.678 Z" fill="#000000" fill-rule="nonzero" fill-opacity="1" /></svg>
