<?xml version="1.0" encoding="utf-8"?>
<svg xmlns="http://www.w3.org/2000/svg" xmlns:xlink="http://www.w3.org/1999/xlink" width="600" height="400" viewBox="0 0 2400 1600">
<defs>
  <clipPath id="clip120">
    <rect x="0" y="0" width="2400" height="1600"/>
  </clipPath>
</defs>
<path clip-path="url(#clip120)" d="M0 1600 L2400 1600 L2400 0 L0 0  Z" fill="#ffffff" fill-rule="evenodd" fill-opacity="1"/>
<defs>
  <clipPath id="clip121">
    <rect x="480" y="0" width="1681" height="1600"/>
  </clipPath>
</defs>
<path clip-path="url(#clip120)" d="M610.374 1082.2 L2305.51 1082.2 L2305.51 94.4882 L610.374 94.4882  Z" fill="#ffffff" fill-rule="evenodd" fill-opacity="1"/>
<defs>
  <clipPath id="clip122">
    <rect x="610" y="94" width="1696" height="989"/>
  </clipPath>
</defs>
<polyline clip-path="url(#clip122)" style="stroke:#000000; stroke-linecap:round; stroke-linejoin:round; stroke-width:4; stroke-opacity:0.1; fill:none" points="658.35,1082.2 658.35,94.4882 "/>
<polyline clip-path="url(#clip122)" style="stroke:#000000; stroke-linecap:round; stroke-linejoin:round; stroke-width:4; stroke-opacity:0.1; fill:none" points="1058.15,1082.2 1058.15,94.4882 "/>
<polyline clip-path="url(#clip122)" style="stroke:#000000; stroke-linecap:round; stroke-linejoin:round; stroke-width:4; stroke-opacity:0.1; fill:none" points="1457.94,1082.2 1457.94,94.4882 "/>
<polyline clip-path="url(#clip122)" style="stroke:#000000; stroke-linecap:round; stroke-linejoin:round; stroke-width:4; stroke-opacity:0.1; fill:none" points="1857.74,1082.2 1857.74,94.4882 "/>
<polyline clip-path="url(#clip122)" style="stroke:#000000; stroke-linecap:round; stroke-linejoin:round; stroke-width:4; stroke-opacity:0.1; fill:none" points="2257.54,1082.2 2257.54,94.4882 "/>
<polyline clip-path="url(#clip120)" style="stroke:#000000; stroke-linecap:round; stroke-linejoin:round; stroke-width:8; stroke-opacity:1; fill:none" points="610.374,1082.2 2305.51,1082.2 "/>
<polyline clip-path="url(#clip120)" style="stroke:#000000; stroke-linecap:round; stroke-linejoin:round; stroke-width:8; stroke-opacity:1; fill:none" points="658.35,1082.2 658.35,1063.3 "/>
<polyline clip-path="url(#clip120)" style="stroke:#000000; stroke-linecap:round; stroke-linejoin:round; stroke-width:8; stroke-opacity:1; fill:none" points="1058.15,1082.2 1058.15,1063.3 "/>
<polyline clip-path="url(#clip120)" style="stroke:#000000; stroke-linecap:round; stroke-linejoin:round; stroke-width:8; stroke-opacity:1; fill:none" points="1457.94,1082.2 1457.94,1063.3 "/>
<polyline clip-path="url(#clip120)" style="stroke:#000000; stroke-linecap:round; stroke-linejoin:round; stroke-width:8; stroke-opacity:1; fill:none" points="1857.74,1082.2 1857.74,1063.3 "/>
<polyline clip-path="url(#clip120)" style="stroke:#000000; stroke-linecap:round; stroke-linejoin:round; stroke-width:8; stroke-opacity:1; fill:none" points="2257.54,1082.2 2257.54,1063.3 "/>
<path clip-path="url(#clip120)" d="M613.118 1124.84 Q605.896 1124.84 602.239 1131.97 Q598.628 1139.05 598.628 1153.31 Q598.628 1167.52 602.239 1174.65 Q605.896 1181.73 613.118 1181.73 Q620.387 1181.73 623.998 1174.65 Q627.655 1167.52 627.655 1153.31 Q627.655 1139.05 623.998 1131.97 Q620.387 1124.84 613.118 1124.84 M613.118 1117.43 Q624.739 1117.43 630.85 1126.64 Q637.007 1135.81 637.007 1153.31 Q637.007 1170.76 630.85 1179.98 Q624.739 1189.14 613.118 1189.14 Q601.498 1189.14 595.341 1179.98 Q589.23 1170.76 589.23 1153.31 Q589.23 1135.81 595.341 1126.64 Q601.498 1117.43 613.118 1117.43 Z" fill="#000000" fill-rule="nonzero" fill-opacity="1" /><path clip-path="url(#clip120)" d="M653.442 1176.04 L663.211 1176.04 L663.211 1187.8 L653.442 1187.8 L653.442 1176.04 Z" fill="#000000" fill-rule="nonzero" fill-opacity="1" /><path clip-path="url(#clip120)" d="M703.581 1124.84 Q696.359 1124.84 692.701 1131.97 Q689.09 1139.05 689.09 1153.31 Q689.09 1167.52 692.701 1174.65 Q696.359 1181.73 703.581 1181.73 Q710.849 1181.73 714.46 1174.65 Q718.118 1167.52 718.118 1153.31 Q718.118 1139.05 714.46 1131.97 Q710.849 1124.84 703.581 1124.84 M703.581 1117.43 Q715.201 1117.43 721.312 1126.64 Q727.47 1135.81 727.47 1153.31 Q727.47 1170.76 721.312 1179.98 Q715.201 1189.14 703.581 1189.14 Q691.961 1189.14 685.803 1179.98 Q679.692 1170.76 679.692 1153.31 Q679.692 1135.81 685.803 1126.64 Q691.961 1117.43 703.581 1117.43 Z" fill="#000000" fill-rule="nonzero" fill-opacity="1" /><path clip-path="url(#clip120)" d="M1013.91 1124.84 Q1006.69 1124.84 1003.03 1131.97 Q999.42 1139.05 999.42 1153.31 Q999.42 1167.52 1003.03 1174.65 Q1006.69 1181.73 1013.91 1181.73 Q1021.18 1181.73 1024.79 1174.65 Q1028.45 1167.52 1028.45 1153.31 Q1028.45 1139.05 1024.79 1131.97 Q1021.18 1124.84 1013.91 1124.84 M1013.91 1117.43 Q1025.53 1117.43 1031.64 1126.64 Q1037.8 1135.81 1037.8 1153.31 Q1037.8 1170.76 1031.64 1179.98 Q1025.53 1189.14 1013.91 1189.14 Q1002.29 1189.14 996.133 1179.98 Q990.022 1170.76 990.022 1153.31 Q990.022 1135.81 996.133 1126.64 Q1002.29 1117.43 1013.91 1117.43 Z" fill="#000000" fill-rule="nonzero" fill-opacity="1" /><path clip-path="url(#clip120)" d="M1054.23 1176.04 L1064 1176.04 L1064 1187.8 L1054.23 1187.8 L1054.23 1176.04 Z" fill="#000000" fill-rule="nonzero" fill-opacity="1" /><path clip-path="url(#clip120)" d="M1084.47 1118.68 L1121.18 1118.68 L1121.18 1126.55 L1093.03 1126.55 L1093.03 1143.49 Q1095.07 1142.8 1097.1 1142.48 Q1099.14 1142.11 1101.18 1142.11 Q1112.75 1142.11 1119.51 1148.45 Q1126.27 1154.79 1126.27 1165.62 Q1126.27 1176.78 1119.33 1182.98 Q1112.38 1189.14 1099.74 1189.14 Q1095.39 1189.14 1090.85 1188.4 Q1086.36 1187.66 1081.55 1186.18 L1081.55 1176.78 Q1085.72 1179.05 1090.16 1180.16 Q1094.6 1181.27 1099.56 1181.27 Q1107.57 1181.27 1112.24 1177.06 Q1116.92 1172.85 1116.92 1165.62 Q1116.92 1158.4 1112.24 1154.19 Q1107.57 1149.98 1099.56 1149.98 Q1095.81 1149.98 1092.06 1150.81 Q1088.35 1151.64 1084.47 1153.4 L1084.47 1118.68 Z" fill="#000000" fill-rule="nonzero" fill-opacity="1" /><path clip-path="url(#clip120)" d="M1392.25 1179.93 L1407.53 1179.93 L1407.53 1127.2 L1390.91 1130.53 L1390.91 1122.01 L1407.43 1118.68 L1416.79 1118.68 L1416.79 1179.93 L1432.06 1179.93 L1432.06 1187.8 L1392.25 1187.8 L1392.25 1179.93 Z" fill="#000000" fill-rule="nonzero" fill-opacity="1" /><path clip-path="url(#clip120)" d="M1450.95 1176.04 L1460.72 1176.04 L1460.72 1187.8 L1450.95 1187.8 L1450.95 1176.04 Z" fill="#000000" fill-rule="nonzero" fill-opacity="1" /><path clip-path="url(#clip120)" d="M1501.09 1124.84 Q1493.87 1124.84 1490.21 1131.97 Q1486.6 1139.05 1486.6 1153.31 Q1486.6 1167.52 1490.21 1174.65 Q1493.87 1181.73 1501.09 1181.73 Q1508.36 1181.73 1511.97 1174.65 Q1515.63 1167.52 1515.63 1153.31 Q1515.63 1139.05 1511.97 1131.97 Q1508.36 1124.84 1501.09 1124.84 M1501.09 1117.43 Q1512.71 1117.43 1518.82 1126.64 Q1524.98 1135.81 1524.98 1153.31 Q1524.98 1170.76 1518.82 1179.98 Q1512.71 1189.14 1501.09 1189.14 Q1489.47 1189.14 1483.31 1179.98 Q1477.2 1170.76 1477.2 1153.31 Q1477.2 1135.81 1483.31 1126.64 Q1489.47 1117.43 1501.09 1117.43 Z" fill="#000000" fill-rule="nonzero" fill-opacity="1" /><path clip-path="url(#clip120)" d="M1793.04 1179.93 L1808.32 1179.93 L1808.32 1127.2 L1791.7 1130.53 L1791.7 1122.01 L1808.23 1118.68 L1817.58 1118.68 L1817.58 1179.93 L1832.86 1179.93 L1832.86 1187.8 L1793.04 1187.8 L1793.04 1179.93 Z" fill="#000000" fill-rule="nonzero" fill-opacity="1" /><path clip-path="url(#clip120)" d="M1851.74 1176.04 L1861.51 1176.04 L1861.51 1187.8 L1851.74 1187.8 L1851.74 1176.04 Z" fill="#000000" fill-rule="nonzero" fill-opacity="1" /><path clip-path="url(#clip120)" d="M1881.98 1118.68 L1918.69 1118.68 L1918.69 1126.55 L1890.54 1126.55 L1890.54 1143.49 Q1892.58 1142.8 1894.61 1142.48 Q1896.65 1142.11 1898.69 1142.11 Q1910.26 1142.11 1917.02 1148.45 Q1923.78 1154.79 1923.78 1165.62 Q1923.78 1176.78 1916.84 1182.98 Q1909.89 1189.14 1897.25 1189.14 Q1892.9 1189.14 1888.36 1188.4 Q1883.87 1187.66 1879.06 1186.18 L1879.06 1176.78 Q1883.23 1179.05 1887.67 1180.16 Q1892.11 1181.27 1897.07 1181.27 Q1905.08 1181.27 1909.75 1177.06 Q1914.43 1172.85 1914.43 1165.62 Q1914.43 1158.4 1909.75 1154.19 Q1905.08 1149.98 1897.07 1149.98 Q1893.32 1149.98 1889.57 1150.81 Q1885.86 1151.64 1881.98 1153.4 L1881.98 1118.68 Z" fill="#000000" fill-rule="nonzero" fill-opacity="1" /><path clip-path="url(#clip120)" d="M2200.01 1179.93 L2232.65 1179.93 L2232.65 1187.8 L2188.76 1187.8 L2188.76 1179.93 Q2194.09 1174.42 2203.25 1165.16 Q2212.47 1155.86 2214.83 1153.17 Q2219.32 1148.12 2221.08 1144.65 Q2222.88 1141.13 2222.88 1137.75 Q2222.88 1132.24 2218.99 1128.77 Q2215.15 1125.3 2208.95 1125.3 Q2204.55 1125.3 2199.64 1126.83 Q2194.78 1128.36 2189.23 1131.46 L2189.23 1122.01 Q2194.87 1119.74 2199.78 1118.59 Q2204.69 1117.43 2208.76 1117.43 Q2219.5 1117.43 2225.89 1122.8 Q2232.28 1128.17 2232.28 1137.15 Q2232.28 1141.41 2230.66 1145.25 Q2229.09 1149.05 2224.87 1154.24 Q2223.72 1155.58 2217.51 1162.01 Q2211.31 1168.4 2200.01 1179.93 Z" fill="#000000" fill-rule="nonzero" fill-opacity="1" /><path clip-path="url(#clip120)" d="M2252.28 1176.04 L2262.05 1176.04 L2262.05 1187.8 L2252.28 1187.8 L2252.28 1176.04 Z" fill="#000000" fill-rule="nonzero" fill-opacity="1" /><path clip-path="url(#clip120)" d="M2302.42 1124.84 Q2295.2 1124.84 2291.54 1131.97 Q2287.93 1139.05 2287.93 1153.31 Q2287.93 1167.52 2291.54 1174.65 Q2295.2 1181.73 2302.42 1181.73 Q2309.69 1181.73 2313.3 1174.65 Q2316.96 1167.52 2316.96 1153.31 Q2316.96 1139.05 2313.3 1131.97 Q2309.69 1124.84 2302.42 1124.84 M2302.42 1117.43 Q2314.04 1117.43 2320.15 1126.64 Q2326.31 1135.81 2326.31 1153.31 Q2326.31 1170.76 2320.15 1179.98 Q2314.04 1189.14 2302.42 1189.14 Q2290.8 1189.14 2284.64 1179.98 Q2278.53 1170.76 2278.53 1153.31 Q2278.53 1135.81 2284.64 1126.64 Q2290.8 1117.43 2302.42 1117.43 Z" fill="#000000" fill-rule="nonzero" fill-opacity="1" /><path clip-path="url(#clip120)" d="M1343.49 1292.9 L1343.49 1335.93 L1331.77 1335.93 L1331.77 1293.28 Q1331.77 1283.16 1327.83 1278.13 Q1323.88 1273.1 1315.99 1273.1 Q1306.5 1273.1 1301.03 1279.15 Q1295.55 1285.19 1295.55 1295.63 L1295.55 1335.93 L1283.78 1335.93 L1283.78 1236.88 L1295.55 1236.88 L1295.55 1275.71 Q1299.76 1269.28 1305.42 1266.1 Q1311.15 1262.91 1318.6 1262.91 Q1330.88 1262.91 1337.19 1270.55 Q1343.49 1278.13 1343.49 1292.9 Z" fill="#000000" fill-rule="nonzero" fill-opacity="1" /><path clip-path="url(#clip120)" d="M1394.48 1272.84 Q1385.06 1272.84 1379.58 1280.23 Q1374.11 1287.55 1374.11 1300.34 Q1374.11 1313.14 1379.52 1320.52 Q1384.99 1327.84 1394.48 1327.84 Q1403.83 1327.84 1409.31 1320.46 Q1414.78 1313.07 1414.78 1300.34 Q1414.78 1287.68 1409.31 1280.29 Q1403.83 1272.84 1394.48 1272.84 M1394.48 1262.91 Q1409.75 1262.91 1418.48 1272.84 Q1427.2 1282.77 1427.2 1300.34 Q1427.2 1317.85 1418.48 1327.84 Q1409.75 1337.77 1394.48 1337.77 Q1379.14 1337.77 1370.41 1327.84 Q1361.76 1317.85 1361.76 1300.34 Q1361.76 1282.77 1370.41 1272.84 Q1379.14 1262.91 1394.48 1262.91 Z" fill="#000000" fill-rule="nonzero" fill-opacity="1" /><path clip-path="url(#clip120)" d="M1445.4 1307.79 L1445.4 1264.63 L1457.12 1264.63 L1457.12 1307.35 Q1457.12 1317.47 1461.06 1322.56 Q1465.01 1327.59 1472.9 1327.59 Q1482.39 1327.59 1487.86 1321.54 Q1493.4 1315.49 1493.4 1305.05 L1493.4 1264.63 L1505.11 1264.63 L1505.11 1335.93 L1493.4 1335.93 L1493.4 1324.98 Q1489.13 1331.47 1483.47 1334.65 Q1477.87 1337.77 1470.42 1337.77 Q1458.13 1337.77 1451.77 1330.13 Q1445.4 1322.5 1445.4 1307.79 M1474.88 1262.91 L1474.88 1262.91 Z" fill="#000000" fill-rule="nonzero" fill-opacity="1" /><path clip-path="url(#clip120)" d="M1570.55 1275.58 Q1568.58 1274.43 1566.22 1273.93 Q1563.93 1273.35 1561.13 1273.35 Q1551.2 1273.35 1545.85 1279.85 Q1540.57 1286.28 1540.57 1298.37 L1540.57 1335.93 L1528.79 1335.93 L1528.79 1264.63 L1540.57 1264.63 L1540.57 1275.71 Q1544.26 1269.22 1550.18 1266.1 Q1556.1 1262.91 1564.57 1262.91 Q1565.78 1262.91 1567.24 1263.1 Q1568.71 1263.23 1570.49 1263.55 L1570.55 1275.58 Z" fill="#000000" fill-rule="nonzero" fill-opacity="1" /><path clip-path="url(#clip120)" d="M1628.29 1266.73 L1628.29 1277.81 Q1623.32 1275.26 1617.98 1273.99 Q1612.63 1272.72 1606.9 1272.72 Q1598.18 1272.72 1593.79 1275.39 Q1589.46 1278.06 1589.46 1283.41 Q1589.46 1287.48 1592.58 1289.84 Q1595.7 1292.13 1605.12 1294.23 L1609.13 1295.12 Q1621.61 1297.8 1626.83 1302.7 Q1632.11 1307.54 1632.11 1316.26 Q1632.11 1326.19 1624.22 1331.98 Q1616.39 1337.77 1602.64 1337.77 Q1596.91 1337.77 1590.67 1336.63 Q1584.49 1335.55 1577.62 1333.32 L1577.62 1321.22 Q1584.11 1324.6 1590.41 1326.32 Q1596.72 1327.97 1602.89 1327.97 Q1611.17 1327.97 1615.62 1325.17 Q1620.08 1322.31 1620.08 1317.15 Q1620.08 1312.37 1616.83 1309.83 Q1613.65 1307.28 1602.76 1304.93 L1598.69 1303.97 Q1587.8 1301.68 1582.97 1296.97 Q1578.13 1292.2 1578.13 1283.92 Q1578.13 1273.86 1585.26 1268.39 Q1592.39 1262.91 1605.5 1262.91 Q1611.99 1262.91 1617.72 1263.87 Q1623.45 1264.82 1628.29 1266.73 Z" fill="#000000" fill-rule="nonzero" fill-opacity="1" /><polyline clip-path="url(#clip122)" style="stroke:#000000; stroke-linecap:round; stroke-linejoin:round; stroke-width:4; stroke-opacity:0.1; fill:none" points="610.374,1054.25 2305.51,1054.25 "/>
<polyline clip-path="url(#clip122)" style="stroke:#000000; stroke-linecap:round; stroke-linejoin:round; stroke-width:4; stroke-opacity:0.1; fill:none" points="610.374,818.172 2305.51,818.172 "/>
<polyline clip-path="url(#clip122)" style="stroke:#000000; stroke-linecap:round; stroke-linejoin:round; stroke-width:4; stroke-opacity:0.1; fill:none" points="610.374,582.099 2305.51,582.099 "/>
<polyline clip-path="url(#clip122)" style="stroke:#000000; stroke-linecap:round; stroke-linejoin:round; stroke-width:4; stroke-opacity:0.1; fill:none" points="610.374,346.026 2305.51,346.026 "/>
<polyline clip-path="url(#clip122)" style="stroke:#000000; stroke-linecap:round; stroke-linejoin:round; stroke-width:4; stroke-opacity:0.1; fill:none" points="610.374,109.953 2305.51,109.953 "/>
<polyline clip-path="url(#clip120)" style="stroke:#000000; stroke-linecap:round; stroke-linejoin:round; stroke-width:8; stroke-opacity:1; fill:none" points="610.374,1082.2 610.374,94.4882 "/>
<polyline clip-path="url(#clip120)" style="stroke:#000000; stroke-linecap:round; stroke-linejoin:round; stroke-width:8; stroke-opacity:1; fill:none" points="610.374,1054.25 629.272,1054.25 "/>
<polyline clip-path="url(#clip120)" style="stroke:#000000; stroke-linecap:round; stroke-linejoin:round; stroke-width:8; stroke-opacity:1; fill:none" points="610.374,818.172 629.272,818.172 "/>
<polyline clip-path="url(#clip120)" style="stroke:#000000; stroke-linecap:round; stroke-linejoin:round; stroke-width:8; stroke-opacity:1; fill:none" points="610.374,582.099 629.272,582.099 "/>
<polyline clip-path="url(#clip120)" style="stroke:#000000; stroke-linecap:round; stroke-linejoin:round; stroke-width:8; stroke-opacity:1; fill:none" points="610.374,346.026 629.272,346.026 "/>
<polyline clip-path="url(#clip120)" style="stroke:#000000; stroke-linecap:round; stroke-linejoin:round; stroke-width:8; stroke-opacity:1; fill:none" points="610.374,109.953 629.272,109.953 "/>
<path clip-path="url(#clip120)" d="M550.485 1025.84 Q543.263 1025.84 539.606 1032.97 Q535.995 1040.06 535.995 1054.32 Q535.995 1068.53 539.606 1075.66 Q543.263 1082.74 550.485 1082.74 Q557.754 1082.74 561.365 1075.66 Q565.022 1068.53 565.022 1054.32 Q565.022 1040.06 561.365 1032.97 Q557.754 1025.84 550.485 1025.84 M550.485 1018.44 Q562.106 1018.44 568.217 1027.65 Q574.374 1036.82 574.374 1054.32 Q574.374 1071.77 568.217 1080.98 Q562.106 1090.15 550.485 1090.15 Q538.865 1090.15 532.708 1080.98 Q526.596 1071.77 526.596 1054.32 Q526.596 1036.82 532.708 1027.65 Q538.865 1018.44 550.485 1018.44 Z" fill="#000000" fill-rule="nonzero" fill-opacity="1" /><path clip-path="url(#clip120)" d="M532.569 783.612 L569.281 783.612 L569.281 791.483 L541.133 791.483 L541.133 808.427 Q543.17 807.733 545.207 807.409 Q547.244 807.038 549.282 807.038 Q560.856 807.038 567.615 813.381 Q574.374 819.723 574.374 830.557 Q574.374 841.714 567.43 847.918 Q560.485 854.075 547.846 854.075 Q543.495 854.075 538.958 853.334 Q534.467 852.594 529.652 851.112 L529.652 841.714 Q533.819 843.983 538.263 845.094 Q542.707 846.205 547.661 846.205 Q555.67 846.205 560.346 841.992 Q565.022 837.779 565.022 830.557 Q565.022 823.334 560.346 819.122 Q555.67 814.909 547.661 814.909 Q543.911 814.909 540.161 815.742 Q536.458 816.575 532.569 818.335 L532.569 783.612 Z" fill="#000000" fill-rule="nonzero" fill-opacity="1" /><path clip-path="url(#clip120)" d="M471.782 608.789 L487.06 608.789 L487.06 556.058 L470.439 559.391 L470.439 550.873 L486.967 547.539 L496.319 547.539 L496.319 608.789 L511.597 608.789 L511.597 616.659 L471.782 616.659 L471.782 608.789 Z" fill="#000000" fill-rule="nonzero" fill-opacity="1" /><path clip-path="url(#clip120)" d="M550.485 553.697 Q543.263 553.697 539.606 560.826 Q535.995 567.91 535.995 582.169 Q535.995 596.382 539.606 603.511 Q543.263 610.595 550.485 610.595 Q557.754 610.595 561.365 603.511 Q565.022 596.382 565.022 582.169 Q565.022 567.91 561.365 560.826 Q557.754 553.697 550.485 553.697 M550.485 546.289 Q562.106 546.289 568.217 555.502 Q574.374 564.669 574.374 582.169 Q574.374 599.622 568.217 608.835 Q562.106 618.002 550.485 618.002 Q538.865 618.002 532.708 608.835 Q526.596 599.622 526.596 582.169 Q526.596 564.669 532.708 555.502 Q538.865 546.289 550.485 546.289 Z" fill="#000000" fill-rule="nonzero" fill-opacity="1" /><path clip-path="url(#clip120)" d="M473.773 372.716 L489.05 372.716 L489.05 319.985 L472.43 323.318 L472.43 314.8 L488.958 311.466 L498.31 311.466 L498.31 372.716 L513.587 372.716 L513.587 380.586 L473.773 380.586 L473.773 372.716 Z" fill="#000000" fill-rule="nonzero" fill-opacity="1" /><path clip-path="url(#clip120)" d="M532.569 311.466 L569.281 311.466 L569.281 319.337 L541.133 319.337 L541.133 336.281 Q543.17 335.587 545.207 335.262 Q547.244 334.892 549.282 334.892 Q560.856 334.892 567.615 341.235 Q574.374 347.577 574.374 358.41 Q574.374 369.568 567.43 375.771 Q560.485 381.929 547.846 381.929 Q543.495 381.929 538.958 381.188 Q534.467 380.447 529.652 378.966 L529.652 369.568 Q533.819 371.836 538.263 372.947 Q542.707 374.059 547.661 374.059 Q555.67 374.059 560.346 369.846 Q565.022 365.633 565.022 358.41 Q565.022 351.188 560.346 346.975 Q555.67 342.762 547.661 342.762 Q543.911 342.762 540.161 343.596 Q536.458 344.429 532.569 346.188 L532.569 311.466 Z" fill="#000000" fill-rule="nonzero" fill-opacity="1" /><path clip-path="url(#clip120)" d="M478.217 136.643 L510.856 136.643 L510.856 144.513 L466.967 144.513 L466.967 136.643 Q472.291 131.134 481.458 121.874 Q490.671 112.569 493.032 109.884 Q497.523 104.837 499.282 101.365 Q501.087 97.8467 501.087 94.4671 Q501.087 88.9579 497.198 85.4857 Q493.356 82.0135 487.152 82.0135 Q482.754 82.0135 477.847 83.5413 Q472.986 85.069 467.43 88.1709 L467.43 78.7265 Q473.078 76.458 477.986 75.3006 Q482.893 74.1432 486.967 74.1432 Q497.708 74.1432 504.097 79.5135 Q510.485 84.8839 510.485 93.8653 Q510.485 98.1245 508.865 101.967 Q507.291 105.763 503.078 110.949 Q501.921 112.291 495.717 118.726 Q489.513 125.115 478.217 136.643 Z" fill="#000000" fill-rule="nonzero" fill-opacity="1" /><path clip-path="url(#clip120)" d="M550.485 81.5505 Q543.263 81.5505 539.606 88.6801 Q535.995 95.7634 535.995 110.023 Q535.995 124.235 539.606 131.365 Q543.263 138.448 550.485 138.448 Q557.754 138.448 561.365 131.365 Q565.022 124.235 565.022 110.023 Q565.022 95.7634 561.365 88.6801 Q557.754 81.5505 550.485 81.5505 M550.485 74.1432 Q562.106 74.1432 568.217 83.3561 Q574.374 92.5227 574.374 110.023 Q574.374 127.476 568.217 136.689 Q562.106 145.856 550.485 145.856 Q538.865 145.856 532.708 136.689 Q526.596 127.476 526.596 110.023 Q526.596 92.5227 532.708 83.3561 Q538.865 74.1432 550.485 74.1432 Z" fill="#000000" fill-rule="nonzero" fill-opacity="1" /><path clip-path="url(#clip120)" d="M429.573 659.735 L331.159 659.735 L331.159 648.022 L375.465 648.022 Q384.695 648.022 389.405 643.63 Q394.116 639.238 394.116 630.644 Q394.116 621.223 388.769 616.512 Q383.422 611.738 372.727 611.738 L331.159 611.738 L331.159 600.025 L386.032 600.025 Q389.851 600.025 391.697 598.943 Q393.48 597.797 393.48 595.442 Q393.48 594.869 393.161 593.85 Q392.779 592.832 392.015 591.049 L401.437 591.049 Q402.901 593.659 403.601 596.015 Q404.301 598.306 404.301 600.534 Q404.301 604.927 401.819 607.537 Q399.336 610.146 394.243 611.101 Q399.272 614.284 401.819 618.931 Q404.301 623.514 404.301 629.753 Q404.301 636.246 401.819 640.829 Q399.336 645.349 394.371 648.022 L429.573 648.022 L429.573 659.735 Z" fill="#000000" fill-rule="nonzero" fill-opacity="1" /><path clip-path="url(#clip120)" d="M365.98 528.665 Q353.248 528.665 346.246 533.949 Q339.244 539.169 339.244 548.654 Q339.244 558.075 346.246 563.359 Q353.248 568.578 365.98 568.578 Q378.647 568.578 385.65 563.359 Q392.652 558.075 392.652 548.654 Q392.652 539.169 385.65 533.949 Q378.647 528.665 365.98 528.665 M393.607 516.953 Q411.813 516.953 420.661 525.037 Q429.573 533.121 429.573 549.8 Q429.573 555.974 428.618 561.449 Q427.727 566.923 425.817 572.08 L414.423 572.08 Q417.224 566.923 418.56 561.894 Q419.897 556.866 419.897 551.646 Q419.897 540.124 413.85 534.395 Q407.866 528.665 395.707 528.665 L389.915 528.665 Q396.217 532.294 399.336 537.959 Q402.455 543.625 402.455 551.518 Q402.455 564.632 392.461 572.652 Q382.467 580.673 365.98 580.673 Q349.429 580.673 339.435 572.652 Q329.44 564.632 329.44 551.518 Q329.44 543.625 332.56 537.959 Q335.679 532.294 341.981 528.665 L331.159 528.665 L331.159 516.953 L393.607 516.953 Z" fill="#000000" fill-rule="nonzero" fill-opacity="1" /><polyline clip-path="url(#clip122)" style="stroke:#009af9; stroke-linecap:round; stroke-linejoin:round; stroke-width:8; stroke-opacity:1; fill:none" points="658.35,122.442 659.396,126.295 660.15,128.602 661.397,131.765 662.734,134.504 664.424,137.312 666.361,139.965 668.663,142.665 671.373,145.507 674.642,148.705 678.678,152.51 683.867,157.326 690.886,163.818 700.998,173.21 715.548,186.845 735.363,205.585 763.025,231.785 798.807,265.131 842.625,304.314 896.974,349.629 964.545,400.533 1049.99,456.736 1159.11,517.099 1295.29,578.177 1457.55,635.607 1647.24,687.892 1866.43,734.911 2118.87,777.475 2257.54,797.201 "/>
<polyline clip-path="url(#clip122)" style="stroke:#e26f46; stroke-linecap:round; stroke-linejoin:round; stroke-width:8; stroke-opacity:1; fill:none" points="658.35,1054.25 659.396,1051.61 660.15,1050.04 661.397,1047.9 662.734,1046.05 664.424,1044.18 666.361,1042.44 668.663,1040.69 671.373,1038.88 674.642,1036.87 678.678,1034.52 683.867,1031.59 690.886,1027.71 700.998,1022.23 715.548,1014.53 735.363,1004.37 763.025,990.888 798.807,974.836 842.625,957.45 896.974,939.293 964.545,921.471 1049.99,905.22 1159.11,892.315 1295.29,884.93 1457.55,884.293 1647.24,890.075 1866.43,901.101 2118.87,915.859 2257.54,924.064 "/>
<polyline clip-path="url(#clip122)" style="stroke:#3da44d; stroke-linecap:round; stroke-linejoin:round; stroke-width:8; stroke-opacity:1; fill:none" points="658.35,1054.25 659.396,1053.03 660.15,1052.29 661.397,1051.28 662.734,1050.39 664.424,1049.46 666.361,1048.57 668.663,1047.63 671.373,1046.63 674.642,1045.48 678.678,1044.08 683.867,1042.27 690.886,1039.79 700.998,1036.1 715.548,1030.59 735.363,1022.77 763.025,1011.48 798.807,996.679 842.625,978.931 896.974,958.253 964.545,935.288 1049.99,910.957 1159.11,887.129 1295.29,867.108 1457.55,854.161 1647.24,849.637 1866.43,853.511 2118.87,864.778 2257.54,872.613 "/>
<polyline clip-path="url(#clip122)" style="stroke:#c271d2; stroke-linecap:round; stroke-linejoin:round; stroke-width:8; stroke-opacity:1; fill:none" points="658.35,1054.25 659.396,1054.24 660.15,1054.24 661.397,1054.24 662.734,1054.23 664.424,1054.22 666.361,1054.21 668.663,1054.19 671.373,1054.16 674.642,1054.12 678.678,1054.07 683.867,1053.99 690.886,1053.86 700.998,1053.63 715.548,1053.21 735.363,1052.45 763.025,1051.03 798.807,1048.53 842.625,1044.48 896.974,1038 964.545,1027.89 1049.99,1012.27 1159.11,988.636 1295.29,954.965 1457.55,911.119 1647.24,857.576 1866.43,795.655 2118.87,727.068 2257.54,691.301 "/>
<polyline clip-path="url(#clip122)" style="stroke:#ac8d18; stroke-linecap:round; stroke-linejoin:round; stroke-width:8; stroke-opacity:1; fill:none" points="658.35,122.442 659.396,122.442 660.15,122.442 661.397,122.442 662.734,122.442 664.424,122.442 666.361,122.442 668.663,122.442 671.373,122.442 674.642,122.442 678.678,122.442 683.867,122.442 690.886,122.442 700.998,122.442 715.548,122.442 735.363,122.442 763.025,122.442 798.807,122.442 842.625,122.442 896.974,122.442 964.545,122.442 1049.99,122.442 1159.11,122.442 1295.29,122.442 1457.55,122.442 1647.24,122.442 1866.43,122.442 2118.87,122.442 2257.54,122.442 "/>
<path clip-path="url(#clip120)" d="M1673.52 880.468 L2249.01 880.468 L2249.01 258.388 L1673.52 258.388  Z" fill="#ffffff" fill-rule="evenodd" fill-opacity="1"/>
<polyline clip-path="url(#clip120)" style="stroke:#000000; stroke-linecap:round; stroke-linejoin:round; stroke-width:8; stroke-opacity:1; fill:none" points="1673.52,880.468 2249.01,880.468 2249.01,258.388 1673.52,258.388 1673.52,880.468 "/>
<polyline clip-path="url(#clip120)" style="stroke:#009af9; stroke-linecap:round; stroke-linejoin:round; stroke-width:8; stroke-opacity:1; fill:none" points="1692.36,362.068 1805.37,362.068 "/>
<path clip-path="url(#clip120)" d="M1861.75 370.748 Q1861.75 361.35 1857.86 356.026 Q1854.02 350.656 1847.26 350.656 Q1840.5 350.656 1836.61 356.026 Q1832.77 361.35 1832.77 370.748 Q1832.77 380.146 1836.61 385.517 Q1840.5 390.841 1847.26 390.841 Q1854.02 390.841 1857.86 385.517 Q1861.75 380.146 1861.75 370.748 M1832.77 352.646 Q1835.45 348.017 1839.53 345.795 Q1843.65 343.526 1849.34 343.526 Q1858.79 343.526 1864.67 351.026 Q1870.59 358.526 1870.59 370.748 Q1870.59 382.97 1864.67 390.47 Q1858.79 397.97 1849.34 397.97 Q1843.65 397.97 1839.53 395.748 Q1835.45 393.48 1832.77 388.85 L1832.77 396.628 L1824.2 396.628 L1824.2 324.591 L1832.77 324.591 L1832.77 352.646 Z" fill="#000000" fill-rule="nonzero" fill-opacity="1" /><path clip-path="url(#clip120)" d="M1914.76 352.739 Q1913.32 351.906 1911.61 351.535 Q1909.94 351.119 1907.91 351.119 Q1900.68 351.119 1896.79 355.841 Q1892.95 360.517 1892.95 369.313 L1892.95 396.628 L1884.39 396.628 L1884.39 344.776 L1892.95 344.776 L1892.95 352.832 Q1895.64 348.109 1899.94 345.841 Q1904.25 343.526 1910.41 343.526 Q1911.29 343.526 1912.35 343.665 Q1913.41 343.758 1914.71 343.989 L1914.76 352.739 Z" fill="#000000" fill-rule="nonzero" fill-opacity="1" /><path clip-path="url(#clip120)" d="M1947.26 370.563 Q1936.93 370.563 1932.95 372.924 Q1928.97 375.285 1928.97 380.98 Q1928.97 385.517 1931.93 388.202 Q1934.94 390.841 1940.08 390.841 Q1947.16 390.841 1951.42 385.841 Q1955.73 380.794 1955.73 372.461 L1955.73 370.563 L1947.26 370.563 M1964.25 367.044 L1964.25 396.628 L1955.73 396.628 L1955.73 388.757 Q1952.81 393.48 1948.46 395.748 Q1944.11 397.97 1937.81 397.97 Q1929.85 397.97 1925.13 393.526 Q1920.45 389.035 1920.45 381.535 Q1920.45 372.785 1926.29 368.341 Q1932.16 363.896 1943.78 363.896 L1955.73 363.896 L1955.73 363.063 Q1955.73 357.183 1951.84 353.989 Q1948 350.748 1941.01 350.748 Q1936.56 350.748 1932.35 351.813 Q1928.14 352.878 1924.25 355.008 L1924.25 347.137 Q1928.92 345.332 1933.32 344.452 Q1937.72 343.526 1941.89 343.526 Q1953.14 343.526 1958.69 349.359 Q1964.25 355.193 1964.25 367.044 Z" fill="#000000" fill-rule="nonzero" fill-opacity="1" /><path clip-path="url(#clip120)" d="M1981.79 344.776 L1990.31 344.776 L1990.31 396.628 L1981.79 396.628 L1981.79 344.776 M1981.79 324.591 L1990.31 324.591 L1990.31 335.378 L1981.79 335.378 L1981.79 324.591 Z" fill="#000000" fill-rule="nonzero" fill-opacity="1" /><path clip-path="url(#clip120)" d="M2051.24 365.332 L2051.24 396.628 L2042.72 396.628 L2042.72 365.609 Q2042.72 358.248 2039.85 354.591 Q2036.98 350.933 2031.24 350.933 Q2024.34 350.933 2020.36 355.332 Q2016.38 359.73 2016.38 367.322 L2016.38 396.628 L2007.81 396.628 L2007.81 344.776 L2016.38 344.776 L2016.38 352.832 Q2019.43 348.156 2023.55 345.841 Q2027.72 343.526 2033.14 343.526 Q2042.07 343.526 2046.65 349.082 Q2051.24 354.591 2051.24 365.332 Z" fill="#000000" fill-rule="nonzero" fill-opacity="1" /><polyline clip-path="url(#clip120)" style="stroke:#e26f46; stroke-linecap:round; stroke-linejoin:round; stroke-width:8; stroke-opacity:1; fill:none" points="1692.36,465.748 1805.37,465.748 "/>
<path clip-path="url(#clip120)" d="M1824.2 448.456 L1833.23 448.456 L1849.43 491.974 L1865.64 448.456 L1874.66 448.456 L1855.22 500.308 L1843.65 500.308 L1824.2 448.456 Z" fill="#000000" fill-rule="nonzero" fill-opacity="1" /><path clip-path="url(#clip120)" d="M1930.78 472.252 L1930.78 476.419 L1891.61 476.419 Q1892.16 485.215 1896.89 489.845 Q1901.66 494.428 1910.13 494.428 Q1915.04 494.428 1919.62 493.224 Q1924.25 492.021 1928.79 489.613 L1928.79 497.669 Q1924.2 499.613 1919.39 500.632 Q1914.57 501.65 1909.62 501.65 Q1897.21 501.65 1889.94 494.428 Q1882.72 487.206 1882.72 474.891 Q1882.72 462.16 1889.57 454.706 Q1896.47 447.206 1908.14 447.206 Q1918.6 447.206 1924.66 453.965 Q1930.78 460.678 1930.78 472.252 M1922.26 469.752 Q1922.16 462.762 1918.32 458.595 Q1914.53 454.428 1908.23 454.428 Q1901.1 454.428 1896.79 458.456 Q1892.54 462.484 1891.89 469.799 L1922.26 469.752 Z" fill="#000000" fill-rule="nonzero" fill-opacity="1" /><path clip-path="url(#clip120)" d="M1987.86 469.012 L1987.86 500.308 L1979.34 500.308 L1979.34 469.289 Q1979.34 461.928 1976.47 458.271 Q1973.6 454.613 1967.86 454.613 Q1960.96 454.613 1956.98 459.012 Q1953 463.41 1953 471.002 L1953 500.308 L1944.43 500.308 L1944.43 448.456 L1953 448.456 L1953 456.512 Q1956.05 451.836 1960.17 449.521 Q1964.34 447.206 1969.76 447.206 Q1978.69 447.206 1983.28 452.762 Q1987.86 458.271 1987.86 469.012 Z" fill="#000000" fill-rule="nonzero" fill-opacity="1" /><path clip-path="url(#clip120)" d="M2013.28 433.734 L2013.28 448.456 L2030.82 448.456 L2030.82 455.076 L2013.28 455.076 L2013.28 483.224 Q2013.28 489.567 2014.99 491.373 Q2016.75 493.178 2022.07 493.178 L2030.82 493.178 L2030.82 500.308 L2022.07 500.308 Q2012.21 500.308 2008.46 496.65 Q2004.71 492.947 2004.71 483.224 L2004.71 455.076 L1998.46 455.076 L1998.46 448.456 L2004.71 448.456 L2004.71 433.734 L2013.28 433.734 Z" fill="#000000" fill-rule="nonzero" fill-opacity="1" /><path clip-path="url(#clip120)" d="M2072.07 456.419 Q2070.64 455.586 2068.92 455.215 Q2067.26 454.799 2065.22 454.799 Q2058 454.799 2054.11 459.521 Q2050.27 464.197 2050.27 472.993 L2050.27 500.308 L2041.7 500.308 L2041.7 448.456 L2050.27 448.456 L2050.27 456.512 Q2052.95 451.789 2057.26 449.521 Q2061.56 447.206 2067.72 447.206 Q2068.6 447.206 2069.66 447.345 Q2070.73 447.438 2072.03 447.669 L2072.07 456.419 Z" fill="#000000" fill-rule="nonzero" fill-opacity="1" /><path clip-path="url(#clip120)" d="M2081.01 448.456 L2089.52 448.456 L2089.52 500.308 L2081.01 500.308 L2081.01 448.456 M2081.01 428.271 L2089.52 428.271 L2089.52 439.058 L2081.01 439.058 L2081.01 428.271 Z" fill="#000000" fill-rule="nonzero" fill-opacity="1" /><path clip-path="url(#clip120)" d="M2144.66 450.447 L2144.66 458.41 Q2141.05 456.419 2137.4 455.447 Q2133.78 454.428 2130.08 454.428 Q2121.79 454.428 2117.21 459.706 Q2112.63 464.937 2112.63 474.428 Q2112.63 483.919 2117.21 489.197 Q2121.79 494.428 2130.08 494.428 Q2133.78 494.428 2137.4 493.456 Q2141.05 492.437 2144.66 490.447 L2144.66 498.317 Q2141.1 499.984 2137.26 500.817 Q2133.46 501.65 2129.15 501.65 Q2117.44 501.65 2110.54 494.289 Q2103.65 486.928 2103.65 474.428 Q2103.65 461.743 2110.59 454.475 Q2117.58 447.206 2129.71 447.206 Q2133.65 447.206 2137.4 448.039 Q2141.15 448.826 2144.66 450.447 Z" fill="#000000" fill-rule="nonzero" fill-opacity="1" /><path clip-path="url(#clip120)" d="M2159.48 428.271 L2168 428.271 L2168 500.308 L2159.48 500.308 L2159.48 428.271 Z" fill="#000000" fill-rule="nonzero" fill-opacity="1" /><path clip-path="url(#clip120)" d="M2230.17 472.252 L2230.17 476.419 L2191.01 476.419 Q2191.56 485.215 2196.28 489.845 Q2201.05 494.428 2209.52 494.428 Q2214.43 494.428 2219.02 493.224 Q2223.64 492.021 2228.18 489.613 L2228.18 497.669 Q2223.6 499.613 2218.78 500.632 Q2213.97 501.65 2209.02 501.65 Q2196.61 501.65 2189.34 494.428 Q2182.12 487.206 2182.12 474.891 Q2182.12 462.16 2188.97 454.706 Q2195.87 447.206 2207.53 447.206 Q2218 447.206 2224.06 453.965 Q2230.17 460.678 2230.17 472.252 M2221.65 469.752 Q2221.56 462.762 2217.72 458.595 Q2213.92 454.428 2207.63 454.428 Q2200.5 454.428 2196.19 458.456 Q2191.93 462.484 2191.28 469.799 L2221.65 469.752 Z" fill="#000000" fill-rule="nonzero" fill-opacity="1" /><polyline clip-path="url(#clip120)" style="stroke:#3da44d; stroke-linecap:round; stroke-linejoin:round; stroke-width:8; stroke-opacity:1; fill:none" points="1692.36,569.428 1805.37,569.428 "/>
<path clip-path="url(#clip120)" d="M1879.94 540.192 L1879.94 550.053 Q1875.22 545.655 1869.85 543.479 Q1864.53 541.303 1858.51 541.303 Q1846.66 541.303 1840.36 548.571 Q1834.06 555.793 1834.06 569.497 Q1834.06 583.154 1840.36 590.423 Q1846.66 597.645 1858.51 597.645 Q1864.53 597.645 1869.85 595.469 Q1875.22 593.293 1879.94 588.895 L1879.94 598.664 Q1875.04 601.997 1869.53 603.664 Q1864.06 605.33 1857.95 605.33 Q1842.26 605.33 1833.23 595.747 Q1824.2 586.117 1824.2 569.497 Q1824.2 552.831 1833.23 543.247 Q1842.26 533.618 1857.95 533.618 Q1864.16 533.618 1869.62 535.284 Q1875.13 536.905 1879.94 540.192 Z" fill="#000000" fill-rule="nonzero" fill-opacity="1" /><path clip-path="url(#clip120)" d="M1894.39 534.868 L1908.32 534.868 L1925.96 581.904 L1943.69 534.868 L1957.63 534.868 L1957.63 603.988 L1948.51 603.988 L1948.51 543.294 L1930.68 590.701 L1921.29 590.701 L1903.46 543.294 L1903.46 603.988 L1894.39 603.988 L1894.39 534.868 Z" fill="#000000" fill-rule="nonzero" fill-opacity="1" /><polyline clip-path="url(#clip120)" style="stroke:#c271d2; stroke-linecap:round; stroke-linejoin:round; stroke-width:8; stroke-opacity:1; fill:none" points="1692.36,673.108 1805.37,673.108 "/>
<path clip-path="url(#clip120)" d="M1861.75 681.788 Q1861.75 672.39 1857.86 667.066 Q1854.02 661.696 1847.26 661.696 Q1840.5 661.696 1836.61 667.066 Q1832.77 672.39 1832.77 681.788 Q1832.77 691.186 1836.61 696.557 Q1840.5 701.881 1847.26 701.881 Q1854.02 701.881 1857.86 696.557 Q1861.75 691.186 1861.75 681.788 M1832.77 663.686 Q1835.45 659.057 1839.53 656.835 Q1843.65 654.566 1849.34 654.566 Q1858.79 654.566 1864.67 662.066 Q1870.59 669.566 1870.59 681.788 Q1870.59 694.01 1864.67 701.51 Q1858.79 709.01 1849.34 709.01 Q1843.65 709.01 1839.53 706.788 Q1835.45 704.52 1832.77 699.89 L1832.77 707.668 L1824.2 707.668 L1824.2 635.631 L1832.77 635.631 L1832.77 663.686 Z" fill="#000000" fill-rule="nonzero" fill-opacity="1" /><path clip-path="url(#clip120)" d="M1884.71 635.631 L1893.23 635.631 L1893.23 707.668 L1884.71 707.668 L1884.71 635.631 Z" fill="#000000" fill-rule="nonzero" fill-opacity="1" /><path clip-path="url(#clip120)" d="M1931.15 661.788 Q1924.29 661.788 1920.31 667.159 Q1916.33 672.483 1916.33 681.788 Q1916.33 691.094 1920.27 696.464 Q1924.25 701.788 1931.15 701.788 Q1937.95 701.788 1941.93 696.418 Q1945.91 691.047 1945.91 681.788 Q1945.91 672.575 1941.93 667.205 Q1937.95 661.788 1931.15 661.788 M1931.15 654.566 Q1942.26 654.566 1948.6 661.788 Q1954.94 669.01 1954.94 681.788 Q1954.94 694.52 1948.6 701.788 Q1942.26 709.01 1931.15 709.01 Q1919.99 709.01 1913.65 701.788 Q1907.35 694.52 1907.35 681.788 Q1907.35 669.01 1913.65 661.788 Q1919.99 654.566 1931.15 654.566 Z" fill="#000000" fill-rule="nonzero" fill-opacity="1" /><path clip-path="url(#clip120)" d="M1989.16 661.788 Q1982.3 661.788 1978.32 667.159 Q1974.34 672.483 1974.34 681.788 Q1974.34 691.094 1978.28 696.464 Q1982.26 701.788 1989.16 701.788 Q1995.96 701.788 1999.94 696.418 Q2003.92 691.047 2003.92 681.788 Q2003.92 672.575 1999.94 667.205 Q1995.96 661.788 1989.16 661.788 M1989.16 654.566 Q2000.27 654.566 2006.61 661.788 Q2012.95 669.01 2012.95 681.788 Q2012.95 694.52 2006.61 701.788 Q2000.27 709.01 1989.16 709.01 Q1978 709.01 1971.66 701.788 Q1965.36 694.52 1965.36 681.788 Q1965.36 669.01 1971.66 661.788 Q1978 654.566 1989.16 654.566 Z" fill="#000000" fill-rule="nonzero" fill-opacity="1" /><path clip-path="url(#clip120)" d="M2061.19 663.686 L2061.19 635.631 L2069.71 635.631 L2069.71 707.668 L2061.19 707.668 L2061.19 699.89 Q2058.51 704.52 2054.39 706.788 Q2050.31 709.01 2044.57 709.01 Q2035.17 709.01 2029.25 701.51 Q2023.37 694.01 2023.37 681.788 Q2023.37 669.566 2029.25 662.066 Q2035.17 654.566 2044.57 654.566 Q2050.31 654.566 2054.39 656.835 Q2058.51 659.057 2061.19 663.686 M2032.16 681.788 Q2032.16 691.186 2036.01 696.557 Q2039.9 701.881 2046.65 701.881 Q2053.41 701.881 2057.3 696.557 Q2061.19 691.186 2061.19 681.788 Q2061.19 672.39 2057.3 667.066 Q2053.41 661.696 2046.65 661.696 Q2039.9 661.696 2036.01 667.066 Q2032.16 672.39 2032.16 681.788 Z" fill="#000000" fill-rule="nonzero" fill-opacity="1" /><polyline clip-path="url(#clip120)" style="stroke:#ac8d18; stroke-linecap:round; stroke-linejoin:round; stroke-width:8; stroke-opacity:1; fill:none" points="1692.36,776.788 1805.37,776.788 "/>
<path clip-path="url(#clip120)" d="M1861.05 761.024 L1861.05 769.079 Q1857.44 767.228 1853.55 766.302 Q1849.67 765.376 1845.5 765.376 Q1839.16 765.376 1835.96 767.32 Q1832.81 769.265 1832.81 773.153 Q1832.81 776.116 1835.08 777.829 Q1837.35 779.496 1844.2 781.024 L1847.12 781.672 Q1856.19 783.616 1859.99 787.181 Q1863.83 790.7 1863.83 797.042 Q1863.83 804.264 1858.09 808.477 Q1852.4 812.69 1842.4 812.69 Q1838.23 812.69 1833.69 811.857 Q1829.2 811.07 1824.2 809.45 L1824.2 800.653 Q1828.92 803.107 1833.51 804.357 Q1838.09 805.561 1842.58 805.561 Q1848.6 805.561 1851.84 803.524 Q1855.08 801.44 1855.08 797.69 Q1855.08 794.218 1852.72 792.366 Q1850.41 790.514 1842.49 788.801 L1839.53 788.107 Q1831.61 786.44 1828.09 783.014 Q1824.57 779.542 1824.57 773.524 Q1824.57 766.209 1829.76 762.228 Q1834.94 758.246 1844.48 758.246 Q1849.2 758.246 1853.37 758.941 Q1857.54 759.635 1861.05 761.024 Z" fill="#000000" fill-rule="nonzero" fill-opacity="1" /><path clip-path="url(#clip120)" d="M1876.52 790.885 L1876.52 759.496 L1885.04 759.496 L1885.04 790.561 Q1885.04 797.922 1887.91 801.625 Q1890.78 805.283 1896.52 805.283 Q1903.41 805.283 1907.4 800.885 Q1911.42 796.487 1911.42 788.894 L1911.42 759.496 L1919.94 759.496 L1919.94 811.348 L1911.42 811.348 L1911.42 803.385 Q1908.32 808.107 1904.2 810.422 Q1900.13 812.69 1894.71 812.69 Q1885.78 812.69 1881.15 807.135 Q1876.52 801.579 1876.52 790.885 M1897.95 758.246 L1897.95 758.246 Z" fill="#000000" fill-rule="nonzero" fill-opacity="1" /><path clip-path="url(#clip120)" d="M1977.86 769.45 Q1981.05 763.709 1985.5 760.978 Q1989.94 758.246 1995.96 758.246 Q2004.06 758.246 2008.46 763.941 Q2012.86 769.589 2012.86 780.052 L2012.86 811.348 L2004.29 811.348 L2004.29 780.329 Q2004.29 772.876 2001.66 769.265 Q1999.02 765.653 1993.6 765.653 Q1986.98 765.653 1983.14 770.052 Q1979.29 774.45 1979.29 782.042 L1979.29 811.348 L1970.73 811.348 L1970.73 780.329 Q1970.73 772.829 1968.09 769.265 Q1965.45 765.653 1959.94 765.653 Q1953.41 765.653 1949.57 770.098 Q1945.73 774.496 1945.73 782.042 L1945.73 811.348 L1937.16 811.348 L1937.16 759.496 L1945.73 759.496 L1945.73 767.552 Q1948.65 762.783 1952.72 760.515 Q1956.79 758.246 1962.4 758.246 Q1968.04 758.246 1971.98 761.116 Q1975.96 763.987 1977.86 769.45 Z" fill="#000000" fill-rule="nonzero" fill-opacity="1" /></svg>
